<?xml version="1.0" encoding="UTF-8" standalone="no"?>
<!DOCTYPE svg PUBLIC "-//W3C//DTD SVG 1.1//EN"
 "http://www.w3.org/Graphics/SVG/1.1/DTD/svg11.dtd">
<!-- Generated by graphviz version 13.1.2 (20250808.2320)
 -->
<!-- Title: llvm::ConstantPtrAuth Pages: 1 -->
<svg width="121pt" height="193pt"
 viewBox="0.00 0.00 121.00 193.00" xmlns="http://www.w3.org/2000/svg" xmlns:xlink="http://www.w3.org/1999/xlink">
<g id="graph0" class="graph" transform="scale(1 1) rotate(0) translate(4 189)">
<title>llvm::ConstantPtrAuth</title>
<!-- Node1 -->
<g id="Node000001" class="node">
<title>Node1</title>
<g id="a_Node000001"><a xlink:title="A signed pointer, in the ptrauth sense.">
<polygon fill="#999999" stroke="#666666" points="112.75,-19.25 0,-19.25 0,0 112.75,0 112.75,-19.25"/>
<text xml:space="preserve" text-anchor="middle" x="56.38" y="-5.75" font-family="Helvetica,sans-Serif" font-size="10.00">llvm::ConstantPtrAuth</text>
</a>
</g>
</g>
<!-- Node2 -->
<g id="Node000002" class="node">
<title>Node2</title>
<g id="a_Node000002"><a xlink:href="classllvm_1_1Constant.html" target="_top" xlink:title="This is an important base class in LLVM.">
<polygon fill="white" stroke="#666666" points="96.25,-74.5 16.5,-74.5 16.5,-55.25 96.25,-55.25 96.25,-74.5"/>
<text xml:space="preserve" text-anchor="middle" x="56.38" y="-61" font-family="Helvetica,sans-Serif" font-size="10.00">llvm::Constant</text>
</a>
</g>
</g>
<!-- Node2&#45;&gt;Node1 -->
<g id="edge1_Node000001_Node000002" class="edge">
<title>Node2&#45;&gt;Node1</title>
<g id="a_edge1_Node000001_Node000002"><a xlink:title=" ">
<path fill="none" stroke="#63b8ff" d="M56.38,-43.63C56.38,-35.34 56.38,-26.17 56.38,-19.61"/>
<polygon fill="#63b8ff" stroke="#63b8ff" points="52.88,-43.57 56.38,-53.57 59.88,-43.57 52.88,-43.57"/>
</a>
</g>
</g>
<!-- Node3 -->
<g id="Node000003" class="node">
<title>Node3</title>
<g id="a_Node000003"><a xlink:href="classllvm_1_1User.html" target="_top" xlink:title=" ">
<polygon fill="white" stroke="#666666" points="86.88,-129.75 25.88,-129.75 25.88,-110.5 86.88,-110.5 86.88,-129.75"/>
<text xml:space="preserve" text-anchor="middle" x="56.38" y="-116.25" font-family="Helvetica,sans-Serif" font-size="10.00">llvm::User</text>
</a>
</g>
</g>
<!-- Node3&#45;&gt;Node2 -->
<g id="edge2_Node000002_Node000003" class="edge">
<title>Node3&#45;&gt;Node2</title>
<g id="a_edge2_Node000002_Node000003"><a xlink:title=" ">
<path fill="none" stroke="#63b8ff" d="M56.38,-98.88C56.38,-90.59 56.38,-81.42 56.38,-74.86"/>
<polygon fill="#63b8ff" stroke="#63b8ff" points="52.88,-98.82 56.38,-108.82 59.88,-98.82 52.88,-98.82"/>
</a>
</g>
</g>
<!-- Node4 -->
<g id="Node000004" class="node">
<title>Node4</title>
<g id="a_Node000004"><a xlink:href="classllvm_1_1Value.html" target="_top" xlink:title="LLVM Value Representation.">
<polygon fill="white" stroke="#666666" points="88.38,-185 24.38,-185 24.38,-165.75 88.38,-165.75 88.38,-185"/>
<text xml:space="preserve" text-anchor="middle" x="56.38" y="-171.5" font-family="Helvetica,sans-Serif" font-size="10.00">llvm::Value</text>
</a>
</g>
</g>
<!-- Node4&#45;&gt;Node3 -->
<g id="edge3_Node000003_Node000004" class="edge">
<title>Node4&#45;&gt;Node3</title>
<g id="a_edge3_Node000003_Node000004"><a xlink:title=" ">
<path fill="none" stroke="#63b8ff" d="M56.38,-154.13C56.38,-145.84 56.38,-136.67 56.38,-130.11"/>
<polygon fill="#63b8ff" stroke="#63b8ff" points="52.88,-154.07 56.38,-164.07 59.88,-154.07 52.88,-154.07"/>
</a>
</g>
</g>
</g>
</svg>
