<?xml version="1.0" encoding="UTF-8" standalone="no"?>
<!DOCTYPE svg PUBLIC "-//W3C//DTD SVG 1.1//EN"
 "http://www.w3.org/Graphics/SVG/1.1/DTD/svg11.dtd">
<!-- Generated by graphviz version 13.1.2 (20250808.2320)
 -->
<!-- Title: llvm::ConstantDataVector Pages: 1 -->
<svg width="155pt" height="304pt"
 viewBox="0.00 0.00 155.00 304.00" xmlns="http://www.w3.org/2000/svg" xmlns:xlink="http://www.w3.org/1999/xlink">
<g id="graph0" class="graph" transform="scale(1 1) rotate(0) translate(4 299.5)">
<title>llvm::ConstantDataVector</title>
<!-- Node1 -->
<g id="Node000001" class="node">
<title>Node1</title>
<g id="a_Node000001"><a xlink:title="A vector constant whose element type is a simple 1/2/4/8&#45;byte integer or float/double,...">
<polygon fill="#999999" stroke="#666666" points="137.88,-19.25 8.62,-19.25 8.62,0 137.88,0 137.88,-19.25"/>
<text xml:space="preserve" text-anchor="middle" x="73.25" y="-5.75" font-family="Helvetica,sans-Serif" font-size="10.00">llvm::ConstantDataVector</text>
</a>
</g>
</g>
<!-- Node2 -->
<g id="Node000002" class="node">
<title>Node2</title>
<g id="a_Node000002"><a xlink:href="classllvm_1_1ConstantDataSequential.html" target="_top" xlink:title="ConstantDataSequential &#45; A vector or array constant whose element type is a simple 1/2/4/8&#45;byte integ...">
<polygon fill="white" stroke="#666666" points="146.5,-74.5 0,-74.5 0,-55.25 146.5,-55.25 146.5,-74.5"/>
<text xml:space="preserve" text-anchor="middle" x="73.25" y="-61" font-family="Helvetica,sans-Serif" font-size="10.00">llvm::ConstantDataSequential</text>
</a>
</g>
</g>
<!-- Node2&#45;&gt;Node1 -->
<g id="edge1_Node000001_Node000002" class="edge">
<title>Node2&#45;&gt;Node1</title>
<g id="a_edge1_Node000001_Node000002"><a xlink:title=" ">
<path fill="none" stroke="#63b8ff" d="M73.25,-43.63C73.25,-35.34 73.25,-26.17 73.25,-19.61"/>
<polygon fill="#63b8ff" stroke="#63b8ff" points="69.75,-43.57 73.25,-53.57 76.75,-43.57 69.75,-43.57"/>
</a>
</g>
</g>
<!-- Node3 -->
<g id="Node000003" class="node">
<title>Node3</title>
<g id="a_Node000003"><a xlink:href="classllvm_1_1ConstantData.html" target="_top" xlink:title="Base class for constants with no operands.">
<polygon fill="white" stroke="#666666" points="123.62,-129.75 22.88,-129.75 22.88,-110.5 123.62,-110.5 123.62,-129.75"/>
<text xml:space="preserve" text-anchor="middle" x="73.25" y="-116.25" font-family="Helvetica,sans-Serif" font-size="10.00">llvm::ConstantData</text>
</a>
</g>
</g>
<!-- Node3&#45;&gt;Node2 -->
<g id="edge2_Node000002_Node000003" class="edge">
<title>Node3&#45;&gt;Node2</title>
<g id="a_edge2_Node000002_Node000003"><a xlink:title=" ">
<path fill="none" stroke="#63b8ff" d="M73.25,-98.88C73.25,-90.59 73.25,-81.42 73.25,-74.86"/>
<polygon fill="#63b8ff" stroke="#63b8ff" points="69.75,-98.82 73.25,-108.82 76.75,-98.82 69.75,-98.82"/>
</a>
</g>
</g>
<!-- Node4 -->
<g id="Node000004" class="node">
<title>Node4</title>
<g id="a_Node000004"><a xlink:href="classllvm_1_1Constant.html" target="_top" xlink:title="This is an important base class in LLVM.">
<polygon fill="white" stroke="#666666" points="113.12,-185 33.38,-185 33.38,-165.75 113.12,-165.75 113.12,-185"/>
<text xml:space="preserve" text-anchor="middle" x="73.25" y="-171.5" font-family="Helvetica,sans-Serif" font-size="10.00">llvm::Constant</text>
</a>
</g>
</g>
<!-- Node4&#45;&gt;Node3 -->
<g id="edge3_Node000003_Node000004" class="edge">
<title>Node4&#45;&gt;Node3</title>
<g id="a_edge3_Node000003_Node000004"><a xlink:title=" ">
<path fill="none" stroke="#63b8ff" d="M73.25,-154.13C73.25,-145.84 73.25,-136.67 73.25,-130.11"/>
<polygon fill="#63b8ff" stroke="#63b8ff" points="69.75,-154.07 73.25,-164.07 76.75,-154.07 69.75,-154.07"/>
</a>
</g>
</g>
<!-- Node5 -->
<g id="Node000005" class="node">
<title>Node5</title>
<g id="a_Node000005"><a xlink:href="classllvm_1_1User.html" target="_top" xlink:title=" ">
<polygon fill="white" stroke="#666666" points="103.75,-240.25 42.75,-240.25 42.75,-221 103.75,-221 103.75,-240.25"/>
<text xml:space="preserve" text-anchor="middle" x="73.25" y="-226.75" font-family="Helvetica,sans-Serif" font-size="10.00">llvm::User</text>
</a>
</g>
</g>
<!-- Node5&#45;&gt;Node4 -->
<g id="edge4_Node000004_Node000005" class="edge">
<title>Node5&#45;&gt;Node4</title>
<g id="a_edge4_Node000004_Node000005"><a xlink:title=" ">
<path fill="none" stroke="#63b8ff" d="M73.25,-209.38C73.25,-201.09 73.25,-191.92 73.25,-185.36"/>
<polygon fill="#63b8ff" stroke="#63b8ff" points="69.75,-209.32 73.25,-219.32 76.75,-209.32 69.75,-209.32"/>
</a>
</g>
</g>
<!-- Node6 -->
<g id="Node000006" class="node">
<title>Node6</title>
<g id="a_Node000006"><a xlink:href="classllvm_1_1Value.html" target="_top" xlink:title="LLVM Value Representation.">
<polygon fill="white" stroke="#666666" points="105.25,-295.5 41.25,-295.5 41.25,-276.25 105.25,-276.25 105.25,-295.5"/>
<text xml:space="preserve" text-anchor="middle" x="73.25" y="-282" font-family="Helvetica,sans-Serif" font-size="10.00">llvm::Value</text>
</a>
</g>
</g>
<!-- Node6&#45;&gt;Node5 -->
<g id="edge5_Node000005_Node000006" class="edge">
<title>Node6&#45;&gt;Node5</title>
<g id="a_edge5_Node000005_Node000006"><a xlink:title=" ">
<path fill="none" stroke="#63b8ff" d="M73.25,-264.63C73.25,-256.34 73.25,-247.17 73.25,-240.61"/>
<polygon fill="#63b8ff" stroke="#63b8ff" points="69.75,-264.57 73.25,-274.57 76.75,-264.57 69.75,-264.57"/>
</a>
</g>
</g>
</g>
</svg>
