<?xml version="1.0" encoding="UTF-8" standalone="no"?>
<!DOCTYPE svg PUBLIC "-//W3C//DTD SVG 1.1//EN"
 "http://www.w3.org/Graphics/SVG/1.1/DTD/svg11.dtd">
<!-- Generated by graphviz version 13.1.2 (20250808.2320)
 -->
<!-- Title: llvm::objcopy::elf::RelocationSection Pages: 1 -->
<svg width="898pt" height="75pt"
 viewBox="0.00 0.00 898.00 75.00" xmlns="http://www.w3.org/2000/svg" xmlns:xlink="http://www.w3.org/1999/xlink">
<g id="graph0" class="graph" transform="scale(1 1) rotate(0) translate(4 70.75)">
<title>llvm::objcopy::elf::RelocationSection</title>
<!-- Node1 -->
<g id="Node000001" class="node">
<title>Node1</title>
<g id="a_Node000001"><a xlink:title=" ">
<polygon fill="#999999" stroke="#666666" points="890,-61.12 788.5,-61.12 788.5,-30.62 890,-30.62 890,-61.12"/>
<text xml:space="preserve" text-anchor="start" x="796.5" y="-47.62" font-family="Helvetica,sans-Serif" font-size="10.00">llvm::objcopy::elf</text>
<text xml:space="preserve" text-anchor="middle" x="839.25" y="-36.38" font-family="Helvetica,sans-Serif" font-size="10.00">::RelocationSection</text>
</a>
</g>
</g>
<!-- Node2 -->
<g id="Node000002" class="node">
<title>Node2</title>
<g id="a_Node000002"><a xlink:href="classllvm_1_1objcopy_1_1elf_1_1RelocSectionWithSymtabBase.html" target="_top" xlink:title=" ">
<polygon fill="white" stroke="#666666" points="751.5,-66.75 594.5,-66.75 594.5,-25 751.5,-25 751.5,-66.75"/>
<text xml:space="preserve" text-anchor="start" x="602.5" y="-53.25" font-family="Helvetica,sans-Serif" font-size="10.00">llvm::objcopy::elf</text>
<text xml:space="preserve" text-anchor="start" x="602.5" y="-42" font-family="Helvetica,sans-Serif" font-size="10.00">::RelocSectionWithSymtabBase</text>
<text xml:space="preserve" text-anchor="middle" x="673" y="-30.75" font-family="Helvetica,sans-Serif" font-size="10.00">&lt; SymbolTableSection &gt;</text>
</a>
</g>
</g>
<!-- Node2&#45;&gt;Node1 -->
<g id="edge1_Node000001_Node000002" class="edge">
<title>Node2&#45;&gt;Node1</title>
<g id="a_edge1_Node000001_Node000002"><a xlink:title=" ">
<path fill="none" stroke="#63b8ff" d="M763.17,-45.88C771.8,-45.88 780.33,-45.88 788.36,-45.88"/>
<polygon fill="#63b8ff" stroke="#63b8ff" points="763.31,-42.38 753.31,-45.88 763.31,-49.38 763.31,-42.38"/>
</a>
</g>
</g>
<!-- Node3 -->
<g id="Node000003" class="node">
<title>Node3</title>
<g id="a_Node000003"><a xlink:href="classllvm_1_1objcopy_1_1elf_1_1RelocationSectionBase.html" target="_top" xlink:title=" ">
<polygon fill="white" stroke="#666666" points="251.25,-60.12 127.25,-60.12 127.25,-29.62 251.25,-29.62 251.25,-60.12"/>
<text xml:space="preserve" text-anchor="start" x="135.25" y="-46.62" font-family="Helvetica,sans-Serif" font-size="10.00">llvm::objcopy::elf</text>
<text xml:space="preserve" text-anchor="middle" x="189.25" y="-35.38" font-family="Helvetica,sans-Serif" font-size="10.00">::RelocationSectionBase</text>
</a>
</g>
</g>
<!-- Node3&#45;&gt;Node2 -->
<g id="edge2_Node000002_Node000003" class="edge">
<title>Node3&#45;&gt;Node2</title>
<g id="a_edge2_Node000002_Node000003"><a xlink:title=" ">
<path fill="none" stroke="#63b8ff" d="M262.59,-50.41C340.22,-55.54 467.15,-61.58 576.5,-55.88 582.24,-55.58 588.17,-55.17 594.14,-54.71"/>
<polygon fill="#63b8ff" stroke="#63b8ff" points="263.22,-46.95 253.01,-49.76 262.75,-53.93 263.22,-46.95"/>
</a>
</g>
</g>
<!-- Node5 -->
<g id="Node000005" class="node">
<title>Node5</title>
<g id="a_Node000005"><a xlink:href="classllvm_1_1objcopy_1_1elf_1_1RelocSectionWithSymtabBase.html" target="_top" xlink:title=" ">
<polygon fill="white" stroke="#666666" points="445.25,-41.75 288.25,-41.75 288.25,0 445.25,0 445.25,-41.75"/>
<text xml:space="preserve" text-anchor="start" x="296.25" y="-28.25" font-family="Helvetica,sans-Serif" font-size="10.00">llvm::objcopy::elf</text>
<text xml:space="preserve" text-anchor="start" x="296.25" y="-17" font-family="Helvetica,sans-Serif" font-size="10.00">::RelocSectionWithSymtabBase</text>
<text xml:space="preserve" text-anchor="middle" x="366.75" y="-5.75" font-family="Helvetica,sans-Serif" font-size="10.00">&lt; SymTabType &gt;</text>
</a>
</g>
</g>
<!-- Node3&#45;&gt;Node5 -->
<g id="edge5_Node000005_Node000003" class="edge">
<title>Node3&#45;&gt;Node5</title>
<g id="a_edge5_Node000005_Node000003"><a xlink:title=" ">
<path fill="none" stroke="#63b8ff" d="M262.83,-34.95C271.16,-33.81 279.67,-32.65 288.05,-31.5"/>
<polygon fill="#63b8ff" stroke="#63b8ff" points="262.56,-31.45 253.13,-36.28 263.51,-38.39 262.56,-31.45"/>
</a>
</g>
</g>
<!-- Node4 -->
<g id="Node000004" class="node">
<title>Node4</title>
<g id="a_Node000004"><a xlink:href="classllvm_1_1objcopy_1_1elf_1_1SectionBase.html" target="_top" xlink:title=" ">
<polygon fill="white" stroke="#666666" points="90.25,-60.12 0,-60.12 0,-29.62 90.25,-29.62 90.25,-60.12"/>
<text xml:space="preserve" text-anchor="start" x="8" y="-46.62" font-family="Helvetica,sans-Serif" font-size="10.00">llvm::objcopy::elf</text>
<text xml:space="preserve" text-anchor="middle" x="45.12" y="-35.38" font-family="Helvetica,sans-Serif" font-size="10.00">::SectionBase</text>
</a>
</g>
</g>
<!-- Node4&#45;&gt;Node3 -->
<g id="edge3_Node000003_Node000004" class="edge">
<title>Node4&#45;&gt;Node3</title>
<g id="a_edge3_Node000003_Node000004"><a xlink:title=" ">
<path fill="none" stroke="#63b8ff" d="M102.02,-44.88C110.19,-44.88 118.63,-44.88 126.9,-44.88"/>
<polygon fill="#63b8ff" stroke="#63b8ff" points="102.22,-41.38 92.22,-44.88 102.22,-48.38 102.22,-41.38"/>
</a>
</g>
</g>
<!-- Node5&#45;&gt;Node2 -->
<g id="edge4_Node000002_Node000005" class="edge">
<title>Node5&#45;&gt;Node2</title>
<g id="a_edge4_Node000002_Node000005"><a xlink:title=" ">
<path fill="none" stroke="orange" stroke-dasharray="5,2" d="M457.15,-28.22C500.64,-31.79 552.42,-36.05 594.25,-39.49"/>
<polygon fill="orange" stroke="orange" points="457.47,-24.74 447.22,-27.4 456.9,-31.71 457.47,-24.74"/>
</a>
</g>
<text xml:space="preserve" text-anchor="start" x="466.25" y="-42.54" font-family="Helvetica,sans-Serif" font-size="10.00" fill="grey">&lt; SymbolTableSection &gt;</text>
</g>
</g>
</svg>
