<?xml version="1.0" encoding="UTF-8" standalone="no"?>
<!DOCTYPE svg PUBLIC "-//W3C//DTD SVG 1.1//EN"
 "http://www.w3.org/Graphics/SVG/1.1/DTD/svg11.dtd">
<!-- Generated by graphviz version 13.1.2 (20250808.2320)
 -->
<!-- Title: llvm::jitlink::MachOJITLinker_arm64 Pages: 1 -->
<svg width="246pt" height="246pt"
 viewBox="0.00 0.00 246.00 246.00" xmlns="http://www.w3.org/2000/svg" xmlns:xlink="http://www.w3.org/1999/xlink">
<g id="graph0" class="graph" transform="scale(1 1) rotate(0) translate(4 242)">
<title>llvm::jitlink::MachOJITLinker_arm64</title>
<!-- Node1 -->
<g id="Node000001" class="node">
<title>Node1</title>
<g id="a_Node000001"><a xlink:title=" ">
<polygon fill="#999999" stroke="#666666" points="140.5,-30.5 0,-30.5 0,0 140.5,0 140.5,-30.5"/>
<text xml:space="preserve" text-anchor="start" x="8" y="-17" font-family="Helvetica,sans-Serif" font-size="10.00">llvm::jitlink::MachOJITLinker</text>
<text xml:space="preserve" text-anchor="middle" x="70.25" y="-5.75" font-family="Helvetica,sans-Serif" font-size="10.00">_arm64</text>
</a>
</g>
</g>
<!-- Node2 -->
<g id="Node000002" class="node">
<title>Node2</title>
<g id="a_Node000002"><a xlink:href="classllvm_1_1jitlink_1_1JITLinker.html" target="_top" xlink:title=" ">
<polygon fill="white" stroke="#666666" points="139.38,-98 1.12,-98 1.12,-67.5 139.38,-67.5 139.38,-98"/>
<text xml:space="preserve" text-anchor="start" x="9.12" y="-84.5" font-family="Helvetica,sans-Serif" font-size="10.00">llvm::jitlink::JITLinker</text>
<text xml:space="preserve" text-anchor="middle" x="70.25" y="-73.25" font-family="Helvetica,sans-Serif" font-size="10.00">&lt; MachOJITLinker_arm64 &gt;</text>
</a>
</g>
</g>
<!-- Node2&#45;&gt;Node1 -->
<g id="edge1_Node000001_Node000002" class="edge">
<title>Node2&#45;&gt;Node1</title>
<g id="a_edge1_Node000001_Node000002"><a xlink:title=" ">
<path fill="none" stroke="#63b8ff" d="M70.25,-55.84C70.25,-47.3 70.25,-38.12 70.25,-30.75"/>
<polygon fill="#63b8ff" stroke="#63b8ff" points="66.75,-55.7 70.25,-65.7 73.75,-55.7 66.75,-55.7"/>
</a>
</g>
</g>
<!-- Node3 -->
<g id="Node000003" class="node">
<title>Node3</title>
<g id="a_Node000003"><a xlink:href="classllvm_1_1jitlink_1_1JITLinkerBase.html" target="_top" xlink:title="Base class for a JIT linker.">
<polygon fill="white" stroke="#666666" points="132,-238 0.5,-238 0.5,-218.75 132,-218.75 132,-238"/>
<text xml:space="preserve" text-anchor="middle" x="66.25" y="-224.5" font-family="Helvetica,sans-Serif" font-size="10.00">llvm::jitlink::JITLinkerBase</text>
</a>
</g>
</g>
<!-- Node3&#45;&gt;Node2 -->
<g id="edge2_Node000002_Node000003" class="edge">
<title>Node3&#45;&gt;Node2</title>
<g id="a_edge2_Node000002_Node000003"><a xlink:title=" ">
<path fill="none" stroke="#63b8ff" d="M66.82,-207.09C67.64,-177.62 69.14,-123.71 69.85,-98.05"/>
<polygon fill="#63b8ff" stroke="#63b8ff" points="63.32,-206.78 66.54,-216.88 70.32,-206.98 63.32,-206.78"/>
</a>
</g>
</g>
<!-- Node4 -->
<g id="Node000004" class="node">
<title>Node4</title>
<g id="a_Node000004"><a xlink:href="classllvm_1_1jitlink_1_1JITLinker.html" target="_top" xlink:title=" ">
<polygon fill="white" stroke="#666666" points="191.75,-181.75 82.75,-181.75 82.75,-151.25 191.75,-151.25 191.75,-181.75"/>
<text xml:space="preserve" text-anchor="start" x="90.75" y="-168.25" font-family="Helvetica,sans-Serif" font-size="10.00">llvm::jitlink::JITLinker</text>
<text xml:space="preserve" text-anchor="middle" x="137.25" y="-157" font-family="Helvetica,sans-Serif" font-size="10.00">&lt; LinkerImpl &gt;</text>
</a>
</g>
</g>
<!-- Node3&#45;&gt;Node4 -->
<g id="edge4_Node000004_Node000003" class="edge">
<title>Node3&#45;&gt;Node4</title>
<g id="a_edge4_Node000004_Node000003"><a xlink:title=" ">
<path fill="none" stroke="#63b8ff" d="M85.69,-210.98C96.42,-201.93 109.64,-190.79 120,-182.05"/>
<polygon fill="#63b8ff" stroke="#63b8ff" points="83.58,-208.18 78.19,-217.31 88.09,-213.53 83.58,-208.18"/>
</a>
</g>
</g>
<!-- Node4&#45;&gt;Node2 -->
<g id="edge3_Node000002_Node000004" class="edge">
<title>Node4&#45;&gt;Node2</title>
<g id="a_edge3_Node000002_Node000004"><a xlink:title=" ">
<path fill="none" stroke="orange" stroke-dasharray="5,2" d="M118.14,-142.18C106.54,-128.03 92.1,-110.41 82.12,-98.24"/>
<polygon fill="orange" stroke="orange" points="115.27,-144.2 124.31,-149.71 120.68,-139.76 115.27,-144.2"/>
</a>
</g>
<text xml:space="preserve" text-anchor="start" x="112.75" y="-120.75" font-family="Helvetica,sans-Serif" font-size="10.00" fill="grey">&lt; MachOJITLinker_arm64 &gt;</text>
</g>
</g>
</svg>
