<?xml version="1.0" encoding="UTF-8" standalone="no"?>
<!DOCTYPE svg PUBLIC "-//W3C//DTD SVG 1.1//EN"
 "http://www.w3.org/Graphics/SVG/1.1/DTD/svg11.dtd">
<!-- Generated by graphviz version 13.1.2 (20250808.2320)
 -->
<!-- Title: llvm::cl::list_storage&lt; DataType, bool &gt; Pages: 1 -->
<svg width="218pt" height="274pt"
 viewBox="0.00 0.00 218.00 274.00" xmlns="http://www.w3.org/2000/svg" xmlns:xlink="http://www.w3.org/1999/xlink">
<g id="graph0" class="graph" transform="scale(1 1) rotate(0) translate(4 269.5)">
<title>llvm::cl::list_storage&lt; DataType, bool &gt;</title>
<!-- Node1 -->
<g id="Node000001" class="node">
<title>Node1</title>
<g id="a_Node000001"><a xlink:title=" ">
<polygon fill="#999999" stroke="#666666" points="125.5,-181.75 21.75,-181.75 21.75,-151.25 125.5,-151.25 125.5,-181.75"/>
<text xml:space="preserve" text-anchor="start" x="29.75" y="-168.25" font-family="Helvetica,sans-Serif" font-size="10.00">llvm::cl::list_storage</text>
<text xml:space="preserve" text-anchor="middle" x="73.62" y="-157" font-family="Helvetica,sans-Serif" font-size="10.00">&lt; DataType, bool &gt;</text>
</a>
</g>
</g>
<!-- Node3 -->
<g id="Node000003" class="node">
<title>Node3</title>
<g id="a_Node000003"><a xlink:href="classllvm_1_1cl_1_1list.html" target="_top" xlink:title=" ">
<polygon fill="white" stroke="#666666" points="147.25,-114.25 0,-114.25 0,-83.75 147.25,-83.75 147.25,-114.25"/>
<text xml:space="preserve" text-anchor="start" x="8" y="-100.75" font-family="Helvetica,sans-Serif" font-size="10.00">llvm::cl::list&lt; DataType,</text>
<text xml:space="preserve" text-anchor="middle" x="73.62" y="-89.5" font-family="Helvetica,sans-Serif" font-size="10.00"> StorageClass, ParserClass &gt;</text>
</a>
</g>
</g>
<!-- Node1&#45;&gt;Node3 -->
<g id="edge2_Node000001_Node000003" class="edge">
<title>Node1&#45;&gt;Node3</title>
<g id="a_edge2_Node000001_Node000003"><a xlink:title=" ">
<path fill="none" stroke="#63b8ff" d="M73.62,-139.59C73.62,-131.05 73.62,-121.87 73.62,-114.5"/>
<polygon fill="#63b8ff" stroke="#63b8ff" points="70.13,-139.45 73.63,-149.45 77.13,-139.45 70.13,-139.45"/>
</a>
</g>
</g>
<!-- Node2 -->
<g id="Node000002" class="node">
<title>Node2</title>
<g id="a_Node000002"><a xlink:href="classllvm_1_1cl_1_1list__storage.html" target="_top" xlink:title=" ">
<polygon fill="white" stroke="#666666" points="144.25,-265.5 3,-265.5 3,-235 144.25,-235 144.25,-265.5"/>
<text xml:space="preserve" text-anchor="start" x="11" y="-252" font-family="Helvetica,sans-Serif" font-size="10.00">llvm::cl::list_storage</text>
<text xml:space="preserve" text-anchor="middle" x="73.62" y="-240.75" font-family="Helvetica,sans-Serif" font-size="10.00">&lt; DataType, StorageClass &gt;</text>
</a>
</g>
</g>
<!-- Node2&#45;&gt;Node1 -->
<g id="edge1_Node000001_Node000002" class="edge">
<title>Node2&#45;&gt;Node1</title>
<g id="a_edge1_Node000001_Node000002"><a xlink:title=" ">
<path fill="none" stroke="orange" stroke-dasharray="5,2" d="M73.62,-223.47C73.62,-209.78 73.62,-193.46 73.62,-181.99"/>
<polygon fill="orange" stroke="orange" points="70.13,-223.12 73.63,-233.12 77.13,-223.12 70.13,-223.12"/>
</a>
</g>
<text xml:space="preserve" text-anchor="start" x="76.62" y="-204.5" font-family="Helvetica,sans-Serif" font-size="10.00" fill="grey">&lt; DataType, bool &gt;</text>
</g>
<!-- Node4 -->
<g id="Node000004" class="node">
<title>Node4</title>
<g id="a_Node000004"><a xlink:href="classllvm_1_1cl_1_1list.html" target="_top" xlink:title=" ">
<polygon fill="white" stroke="#666666" points="135.62,-30.5 11.62,-30.5 11.62,0 135.62,0 135.62,-30.5"/>
<text xml:space="preserve" text-anchor="start" x="19.62" y="-17" font-family="Helvetica,sans-Serif" font-size="10.00">llvm::cl::list&lt; std</text>
<text xml:space="preserve" text-anchor="middle" x="73.62" y="-5.75" font-family="Helvetica,sans-Serif" font-size="10.00">::string, DebugCounter &gt;</text>
</a>
</g>
</g>
<!-- Node3&#45;&gt;Node4 -->
<g id="edge3_Node000003_Node000004" class="edge">
<title>Node3&#45;&gt;Node4</title>
<g id="a_edge3_Node000003_Node000004"><a xlink:title=" ">
<path fill="none" stroke="orange" stroke-dasharray="5,2" d="M73.62,-72.22C73.62,-58.53 73.62,-42.21 73.62,-30.74"/>
<polygon fill="orange" stroke="orange" points="70.13,-71.87 73.63,-81.87 77.13,-71.87 70.13,-71.87"/>
</a>
</g>
<text xml:space="preserve" text-anchor="start" x="76.62" y="-53.25" font-family="Helvetica,sans-Serif" font-size="10.00" fill="grey">&lt; std::string, DebugCounter &gt;</text>
</g>
</g>
</svg>
