<?xml version="1.0" encoding="UTF-8" standalone="no"?>
<!DOCTYPE svg PUBLIC "-//W3C//DTD SVG 1.1//EN"
 "http://www.w3.org/Graphics/SVG/1.1/DTD/svg11.dtd">
<!-- Generated by graphviz version 13.1.2 (20250808.2320)
 -->
<!-- Title: llvm::SmallPtrSetIteratorImpl Pages: 1 -->
<svg width="557pt" height="100pt"
 viewBox="0.00 0.00 557.00 100.00" xmlns="http://www.w3.org/2000/svg" xmlns:xlink="http://www.w3.org/1999/xlink">
<g id="graph0" class="graph" transform="scale(1 1) rotate(0) translate(4 95.5)">
<title>llvm::SmallPtrSetIteratorImpl</title>
<!-- Node1 -->
<g id="Node000001" class="node">
<title>Node1</title>
<g id="a_Node000001"><a xlink:title="SmallPtrSetIteratorImpl &#45; This is the common base class shared between all instances of SmallPtrSetIt...">
<polygon fill="#999999" stroke="#666666" points="142,-54.88 0,-54.88 0,-35.62 142,-35.62 142,-54.88"/>
<text xml:space="preserve" text-anchor="middle" x="71" y="-41.38" font-family="Helvetica,sans-Serif" font-size="10.00">llvm::SmallPtrSetIteratorImpl</text>
</a>
</g>
</g>
<!-- Node2 -->
<g id="Node000002" class="node">
<title>Node2</title>
<g id="a_Node000002"><a xlink:href="classllvm_1_1SmallPtrSetIterator.html" target="_top" xlink:title=" ">
<polygon fill="white" stroke="#666666" points="548.5,-91.5 425.25,-91.5 425.25,-61 548.5,-61 548.5,-91.5"/>
<text xml:space="preserve" text-anchor="start" x="433.25" y="-78" font-family="Helvetica,sans-Serif" font-size="10.00">llvm::SmallPtrSetIterator</text>
<text xml:space="preserve" text-anchor="middle" x="486.88" y="-66.75" font-family="Helvetica,sans-Serif" font-size="10.00">&lt; PtrType &gt;</text>
</a>
</g>
</g>
<!-- Node1&#45;&gt;Node2 -->
<g id="edge1_Node000001_Node000002" class="edge">
<title>Node1&#45;&gt;Node2</title>
<g id="a_edge1_Node000001_Node000002"><a xlink:title=" ">
<path fill="none" stroke="#63b8ff" d="M123.13,-57.97C140.75,-62.02 160.66,-66.23 179,-69.25 279.31,-85.77 305.72,-89.4 407.25,-84.25 413.01,-83.96 418.99,-83.55 424.97,-83.06"/>
<polygon fill="#63b8ff" stroke="#63b8ff" points="123.94,-54.57 113.4,-55.7 122.34,-61.38 123.94,-54.57"/>
</a>
</g>
</g>
<!-- Node3 -->
<g id="Node000003" class="node">
<title>Node3</title>
<g id="a_Node000003"><a xlink:href="classllvm_1_1SmallPtrSetIterator.html" target="_top" xlink:title=" ">
<polygon fill="white" stroke="#666666" points="548.5,-30.5 425.25,-30.5 425.25,0 548.5,0 548.5,-30.5"/>
<text xml:space="preserve" text-anchor="start" x="433.25" y="-17" font-family="Helvetica,sans-Serif" font-size="10.00">llvm::SmallPtrSetIterator</text>
<text xml:space="preserve" text-anchor="middle" x="486.88" y="-5.75" font-family="Helvetica,sans-Serif" font-size="10.00">&lt; MachineInstr * &gt;</text>
</a>
</g>
</g>
<!-- Node1&#45;&gt;Node3 -->
<g id="edge2_Node000001_Node000003" class="edge">
<title>Node1&#45;&gt;Node3</title>
<g id="a_edge2_Node000001_Node000003"><a xlink:title=" ">
<path fill="none" stroke="#63b8ff" d="M120.32,-32.57C138.58,-28.27 159.63,-23.88 179,-21.25 263.75,-9.73 362.85,-10.3 425,-12.32"/>
<polygon fill="#63b8ff" stroke="#63b8ff" points="119.72,-29.11 110.82,-34.87 121.36,-35.92 119.72,-29.11"/>
</a>
</g>
</g>
<!-- Node4 -->
<g id="Node000004" class="node">
<title>Node4</title>
<g id="a_Node000004"><a xlink:href="classllvm_1_1SmallPtrSetIterator.html" target="_top" xlink:title="SmallPtrSetIterator &#45; This implements a const_iterator for SmallPtrSet.">
<polygon fill="white" stroke="#666666" points="302.25,-60.5 179,-60.5 179,-30 302.25,-30 302.25,-60.5"/>
<text xml:space="preserve" text-anchor="start" x="187" y="-47" font-family="Helvetica,sans-Serif" font-size="10.00">llvm::SmallPtrSetIterator</text>
<text xml:space="preserve" text-anchor="middle" x="240.62" y="-35.75" font-family="Helvetica,sans-Serif" font-size="10.00">&lt; PtrTy &gt;</text>
</a>
</g>
</g>
<!-- Node1&#45;&gt;Node4 -->
<g id="edge3_Node000001_Node000004" class="edge">
<title>Node1&#45;&gt;Node4</title>
<g id="a_edge3_Node000001_Node000004"><a xlink:title=" ">
<path fill="none" stroke="#63b8ff" d="M153.55,-45.25C161.98,-45.25 170.43,-45.25 178.58,-45.25"/>
<polygon fill="#63b8ff" stroke="#63b8ff" points="153.63,-41.75 143.63,-45.25 153.63,-48.75 153.63,-41.75"/>
</a>
</g>
</g>
<!-- Node4&#45;&gt;Node2 -->
<g id="edge4_Node000004_Node000002" class="edge">
<title>Node4&#45;&gt;Node2</title>
<g id="a_edge4_Node000004_Node000002"><a xlink:title=" ">
<path fill="none" stroke="orange" stroke-dasharray="5,2" d="M313.83,-54.41C349.12,-58.89 391.13,-64.23 424.8,-68.5"/>
<polygon fill="orange" stroke="orange" points="314.49,-50.97 304.13,-53.18 313.61,-57.91 314.49,-50.97"/>
</a>
</g>
<text xml:space="preserve" text-anchor="start" x="337.88" y="-70.97" font-family="Helvetica,sans-Serif" font-size="10.00" fill="grey">&lt; PtrType &gt;</text>
</g>
<!-- Node4&#45;&gt;Node3 -->
<g id="edge5_Node000004_Node000003" class="edge">
<title>Node4&#45;&gt;Node3</title>
<g id="a_edge5_Node000004_Node000003"><a xlink:title=" ">
<path fill="none" stroke="orange" stroke-dasharray="5,2" d="M313.63,-28.07C315.86,-27.69 318.07,-27.33 320.25,-27 354.74,-21.81 393.63,-18.9 425.05,-17.27"/>
<polygon fill="orange" stroke="orange" points="313.08,-24.61 303.88,-29.87 314.35,-31.49 313.08,-24.61"/>
</a>
</g>
<text xml:space="preserve" text-anchor="start" x="323.25" y="-31.75" font-family="Helvetica,sans-Serif" font-size="10.00" fill="grey">&lt; MachineInstr * &gt;</text>
</g>
</g>
</svg>
