<?xml version="1.0" encoding="UTF-8" standalone="no"?>
<!DOCTYPE svg PUBLIC "-//W3C//DTD SVG 1.1//EN"
 "http://www.w3.org/Graphics/SVG/1.1/DTD/svg11.dtd">
<!-- Generated by graphviz version 13.1.2 (20250808.2320)
 -->
<!-- Title: llvm::TargetExtType Pages: 1 -->
<svg width="400pt" height="335pt"
 viewBox="0.00 0.00 400.00 335.00" xmlns="http://www.w3.org/2000/svg" xmlns:xlink="http://www.w3.org/1999/xlink">
<g id="graph0" class="graph" transform="scale(1 1) rotate(0) translate(4 331.25)">
<title>llvm::TargetExtType</title>
<!-- Node1 -->
<g id="Node000001" class="node">
<title>Node1</title>
<g id="a_Node000001"><a xlink:title="Class to represent target extensions types, which are generally unintrospectable from target&#45;independ...">
<polygon fill="#999999" stroke="#666666" points="200,-167.25 97,-167.25 97,-148 200,-148 200,-167.25"/>
<text xml:space="preserve" text-anchor="middle" x="148.5" y="-153.75" font-family="Helvetica,sans-Serif" font-size="10.00">llvm::TargetExtType</text>
</a>
</g>
</g>
<!-- Node3 -->
<g id="Node000003" class="node">
<title>Node3</title>
<g id="a_Node000003"><a xlink:href="classllvm_1_1dxil_1_1AnyResourceExtType.html" target="_top" xlink:title=" ">
<polygon fill="white" stroke="#666666" points="392.25,-327.25 236,-327.25 236,-308 392.25,-308 392.25,-327.25"/>
<text xml:space="preserve" text-anchor="middle" x="314.12" y="-313.75" font-family="Helvetica,sans-Serif" font-size="10.00">llvm::dxil::AnyResourceExtType</text>
</a>
</g>
</g>
<!-- Node1&#45;&gt;Node3 -->
<g id="edge2_Node000001_Node000003" class="edge">
<title>Node1&#45;&gt;Node3</title>
<g id="a_edge2_Node000001_Node000003"><a xlink:title=" ">
<path fill="none" stroke="#63b8ff" d="M156.2,-178.26C167.47,-209.57 193.27,-268.7 236,-299.62 240.34,-302.77 245.15,-305.37 250.19,-307.53"/>
<polygon fill="#63b8ff" stroke="#63b8ff" points="159.52,-177.15 152.96,-168.82 152.9,-179.42 159.52,-177.15"/>
</a>
</g>
</g>
<!-- Node4 -->
<g id="Node000004" class="node">
<title>Node4</title>
<g id="a_Node000004"><a xlink:href="classllvm_1_1dxil_1_1CBufferExtType.html" target="_top" xlink:title="The dx.CBuffer target extension type.">
<polygon fill="white" stroke="#666666" points="379.5,-290.25 248.75,-290.25 248.75,-271 379.5,-271 379.5,-290.25"/>
<text xml:space="preserve" text-anchor="middle" x="314.12" y="-276.75" font-family="Helvetica,sans-Serif" font-size="10.00">llvm::dxil::CBufferExtType</text>
</a>
</g>
</g>
<!-- Node1&#45;&gt;Node4 -->
<g id="edge3_Node000001_Node000004" class="edge">
<title>Node1&#45;&gt;Node4</title>
<g id="a_edge3_Node000001_Node000004"><a xlink:title=" ">
<path fill="none" stroke="#63b8ff" d="M160.56,-177.43C174.85,-201.15 201.99,-240.34 236,-261.62 241.84,-265.28 248.35,-268.24 255.03,-270.62"/>
<polygon fill="#63b8ff" stroke="#63b8ff" points="163.74,-175.93 155.68,-169.05 157.69,-179.45 163.74,-175.93"/>
</a>
</g>
</g>
<!-- Node5 -->
<g id="Node000005" class="node">
<title>Node5</title>
<g id="a_Node000005"><a xlink:href="classllvm_1_1dxil_1_1FeedbackTextureExtType.html" target="_top" xlink:title="The dx.FeedbackTexture target extension type.">
<polygon fill="white" stroke="#666666" points="382.12,-252.88 246.12,-252.88 246.12,-222.38 382.12,-222.38 382.12,-252.88"/>
<text xml:space="preserve" text-anchor="start" x="254.12" y="-239.38" font-family="Helvetica,sans-Serif" font-size="10.00">llvm::dxil::FeedbackTexture</text>
<text xml:space="preserve" text-anchor="middle" x="314.12" y="-228.12" font-family="Helvetica,sans-Serif" font-size="10.00">ExtType</text>
</a>
</g>
</g>
<!-- Node1&#45;&gt;Node5 -->
<g id="edge4_Node000001_Node000005" class="edge">
<title>Node1&#45;&gt;Node5</title>
<g id="a_edge4_Node000001_Node000005"><a xlink:title=" ">
<path fill="none" stroke="#63b8ff" d="M171.36,-174.18C188.29,-186.39 212.71,-202.71 236,-213.62 242.48,-216.66 249.43,-219.44 256.42,-221.94"/>
<polygon fill="#63b8ff" stroke="#63b8ff" points="173.68,-171.54 163.55,-168.44 169.53,-177.18 173.68,-171.54"/>
</a>
</g>
</g>
<!-- Node6 -->
<g id="Node000006" class="node">
<title>Node6</title>
<g id="a_Node000006"><a xlink:href="classllvm_1_1dxil_1_1LayoutExtType.html" target="_top" xlink:title="The dx.Layout target extension type.">
<polygon fill="white" stroke="#666666" points="377.25,-204.25 251,-204.25 251,-185 377.25,-185 377.25,-204.25"/>
<text xml:space="preserve" text-anchor="middle" x="314.12" y="-190.75" font-family="Helvetica,sans-Serif" font-size="10.00">llvm::dxil::LayoutExtType</text>
</a>
</g>
</g>
<!-- Node1&#45;&gt;Node6 -->
<g id="edge5_Node000001_Node000006" class="edge">
<title>Node1&#45;&gt;Node6</title>
<g id="a_edge5_Node000001_Node000006"><a xlink:title=" ">
<path fill="none" stroke="#63b8ff" d="M205.36,-170.26C225.95,-174.91 248.99,-180.12 268.47,-184.53"/>
<polygon fill="#63b8ff" stroke="#63b8ff" points="206.21,-166.86 195.69,-168.07 204.67,-173.69 206.21,-166.86"/>
</a>
</g>
</g>
<!-- Node7 -->
<g id="Node000007" class="node">
<title>Node7</title>
<g id="a_Node000007"><a xlink:href="classllvm_1_1dxil_1_1MSTextureExtType.html" target="_top" xlink:title="The dx.MSTexture target extension type.">
<polygon fill="white" stroke="#666666" points="386.25,-167.25 242,-167.25 242,-148 386.25,-148 386.25,-167.25"/>
<text xml:space="preserve" text-anchor="middle" x="314.12" y="-153.75" font-family="Helvetica,sans-Serif" font-size="10.00">llvm::dxil::MSTextureExtType</text>
</a>
</g>
</g>
<!-- Node1&#45;&gt;Node7 -->
<g id="edge6_Node000001_Node000007" class="edge">
<title>Node1&#45;&gt;Node7</title>
<g id="a_edge6_Node000001_Node000007"><a xlink:title=" ">
<path fill="none" stroke="#63b8ff" d="M211.63,-157.62C221.41,-157.62 231.59,-157.62 241.56,-157.62"/>
<polygon fill="#63b8ff" stroke="#63b8ff" points="211.89,-154.13 201.89,-157.63 211.89,-161.13 211.89,-154.13"/>
</a>
</g>
</g>
<!-- Node8 -->
<g id="Node000008" class="node">
<title>Node8</title>
<g id="a_Node000008"><a xlink:href="classllvm_1_1dxil_1_1RawBufferExtType.html" target="_top" xlink:title="The dx.RawBuffer target extension type.">
<polygon fill="white" stroke="#666666" points="385.88,-130.25 242.38,-130.25 242.38,-111 385.88,-111 385.88,-130.25"/>
<text xml:space="preserve" text-anchor="middle" x="314.12" y="-116.75" font-family="Helvetica,sans-Serif" font-size="10.00">llvm::dxil::RawBufferExtType</text>
</a>
</g>
</g>
<!-- Node1&#45;&gt;Node8 -->
<g id="edge7_Node000001_Node000008" class="edge">
<title>Node1&#45;&gt;Node8</title>
<g id="a_edge7_Node000001_Node000008"><a xlink:title=" ">
<path fill="none" stroke="#63b8ff" d="M205.36,-144.99C225.95,-140.34 248.99,-135.13 268.47,-130.72"/>
<polygon fill="#63b8ff" stroke="#63b8ff" points="204.67,-141.56 195.69,-147.18 206.21,-148.39 204.67,-141.56"/>
</a>
</g>
</g>
<!-- Node9 -->
<g id="Node000009" class="node">
<title>Node9</title>
<g id="a_Node000009"><a xlink:href="classllvm_1_1dxil_1_1SamplerExtType.html" target="_top" xlink:title="The dx.Sampler target extension type.">
<polygon fill="white" stroke="#666666" points="380.62,-93.25 247.62,-93.25 247.62,-74 380.62,-74 380.62,-93.25"/>
<text xml:space="preserve" text-anchor="middle" x="314.12" y="-79.75" font-family="Helvetica,sans-Serif" font-size="10.00">llvm::dxil::SamplerExtType</text>
</a>
</g>
</g>
<!-- Node1&#45;&gt;Node9 -->
<g id="edge8_Node000001_Node000009" class="edge">
<title>Node1&#45;&gt;Node9</title>
<g id="a_edge8_Node000001_Node000009"><a xlink:title=" ">
<path fill="none" stroke="#63b8ff" d="M170.85,-140.79C187.68,-128.3 212.19,-111.75 236,-101.62 243.34,-98.51 251.31,-95.88 259.25,-93.67"/>
<polygon fill="#63b8ff" stroke="#63b8ff" points="168.95,-137.85 163.1,-146.68 173.18,-143.42 168.95,-137.85"/>
</a>
</g>
</g>
<!-- Node10 -->
<g id="Node000010" class="node">
<title>Node10</title>
<g id="a_Node000010"><a xlink:href="classllvm_1_1dxil_1_1TextureExtType.html" target="_top" xlink:title="The dx.Texture target extension type.">
<polygon fill="white" stroke="#666666" points="378.75,-56.25 249.5,-56.25 249.5,-37 378.75,-37 378.75,-56.25"/>
<text xml:space="preserve" text-anchor="middle" x="314.12" y="-42.75" font-family="Helvetica,sans-Serif" font-size="10.00">llvm::dxil::TextureExtType</text>
</a>
</g>
</g>
<!-- Node1&#45;&gt;Node10 -->
<g id="edge9_Node000001_Node000010" class="edge">
<title>Node1&#45;&gt;Node10</title>
<g id="a_edge9_Node000001_Node000010"><a xlink:title=" ">
<path fill="none" stroke="#63b8ff" d="M162.12,-138.31C177.13,-116.93 204.2,-83.06 236,-64.62 241.47,-61.45 247.47,-58.84 253.62,-56.69"/>
<polygon fill="#63b8ff" stroke="#63b8ff" points="159.33,-136.19 156.6,-146.43 165.12,-140.12 159.33,-136.19"/>
</a>
</g>
</g>
<!-- Node11 -->
<g id="Node000011" class="node">
<title>Node11</title>
<g id="a_Node000011"><a xlink:href="classllvm_1_1dxil_1_1TypedBufferExtType.html" target="_top" xlink:title="The dx.TypedBuffer target extension type.">
<polygon fill="white" stroke="#666666" points="388.88,-19.25 239.38,-19.25 239.38,0 388.88,0 388.88,-19.25"/>
<text xml:space="preserve" text-anchor="middle" x="314.12" y="-5.75" font-family="Helvetica,sans-Serif" font-size="10.00">llvm::dxil::TypedBufferExtType</text>
</a>
</g>
</g>
<!-- Node1&#45;&gt;Node11 -->
<g id="edge10_Node000001_Node000011" class="edge">
<title>Node1&#45;&gt;Node11</title>
<g id="a_edge10_Node000001_Node000011"><a xlink:title=" ">
<path fill="none" stroke="#63b8ff" d="M157.39,-137.07C169.64,-108 196.06,-55.33 236,-27.62 240.52,-24.49 245.51,-21.9 250.71,-19.75"/>
<polygon fill="#63b8ff" stroke="#63b8ff" points="154.19,-135.63 153.7,-146.21 160.69,-138.25 154.19,-135.63"/>
</a>
</g>
</g>
<!-- Node2 -->
<g id="Node000002" class="node">
<title>Node2</title>
<g id="a_Node000002"><a xlink:href="classllvm_1_1Type.html" target="_top" xlink:title="The instances of the Type class are immutable: once they are created, they are never changed.">
<polygon fill="white" stroke="#666666" points="61,-167.25 0,-167.25 0,-148 61,-148 61,-167.25"/>
<text xml:space="preserve" text-anchor="middle" x="30.5" y="-153.75" font-family="Helvetica,sans-Serif" font-size="10.00">llvm::Type</text>
</a>
</g>
</g>
<!-- Node2&#45;&gt;Node1 -->
<g id="edge1_Node000001_Node000002" class="edge">
<title>Node2&#45;&gt;Node1</title>
<g id="a_edge1_Node000001_Node000002"><a xlink:title=" ">
<path fill="none" stroke="#63b8ff" d="M72.69,-157.62C80.42,-157.62 88.59,-157.62 96.58,-157.62"/>
<polygon fill="#63b8ff" stroke="#63b8ff" points="72.89,-154.13 62.89,-157.63 72.89,-161.13 72.89,-154.13"/>
</a>
</g>
</g>
</g>
</svg>
