<?xml version="1.0" encoding="UTF-8" standalone="no"?>
<!DOCTYPE svg PUBLIC "-//W3C//DTD SVG 1.1//EN"
 "http://www.w3.org/Graphics/SVG/1.1/DTD/svg11.dtd">
<!-- Generated by graphviz version 13.1.2 (20250808.2320)
 -->
<!-- Title: llvm::MCCodeEmitter Pages: 1 -->
<svg width="304pt" height="175pt"
 viewBox="0.00 0.00 304.00 175.00" xmlns="http://www.w3.org/2000/svg" xmlns:xlink="http://www.w3.org/1999/xlink">
<g id="graph0" class="graph" transform="scale(1 1) rotate(0) translate(4 171.25)">
<title>llvm::MCCodeEmitter</title>
<!-- Node1 -->
<g id="Node000001" class="node">
<title>Node1</title>
<g id="a_Node000001"><a xlink:title="MCCodeEmitter &#45; Generic instruction encoding interface.">
<polygon fill="#999999" stroke="#666666" points="110.5,-93.25 0,-93.25 0,-74 110.5,-74 110.5,-93.25"/>
<text xml:space="preserve" text-anchor="middle" x="55.25" y="-79.75" font-family="Helvetica,sans-Serif" font-size="10.00">llvm::MCCodeEmitter</text>
</a>
</g>
</g>
<!-- Node2 -->
<g id="Node000002" class="node">
<title>Node2</title>
<g id="a_Node000002"><a xlink:href="classllvm_1_1AVRMCCodeEmitter.html" target="_top" xlink:title="Writes AVR machine code to a stream.">
<polygon fill="white" stroke="#666666" points="286.25,-167.25 156.25,-167.25 156.25,-148 286.25,-148 286.25,-167.25"/>
<text xml:space="preserve" text-anchor="middle" x="221.25" y="-153.75" font-family="Helvetica,sans-Serif" font-size="10.00">llvm::AVRMCCodeEmitter</text>
</a>
</g>
</g>
<!-- Node1&#45;&gt;Node2 -->
<g id="edge1_Node000001_Node000002" class="edge">
<title>Node1&#45;&gt;Node2</title>
<g id="a_edge1_Node000001_Node000002"><a xlink:title=" ">
<path fill="none" stroke="#63b8ff" d="M78.18,-99.99C95.82,-112.46 121.68,-129.21 146.5,-139.62 153.79,-142.69 161.72,-145.3 169.58,-147.51"/>
<polygon fill="#63b8ff" stroke="#63b8ff" points="80.67,-97.47 70.51,-94.46 76.57,-103.15 80.67,-97.47"/>
</a>
</g>
</g>
<!-- Node3 -->
<g id="Node000003" class="node">
<title>Node3</title>
<g id="a_Node000003"><a xlink:href="classllvm_1_1HexagonMCCodeEmitter.html" target="_top" xlink:title=" ">
<polygon fill="white" stroke="#666666" points="296,-130.25 146.5,-130.25 146.5,-111 296,-111 296,-130.25"/>
<text xml:space="preserve" text-anchor="middle" x="221.25" y="-116.75" font-family="Helvetica,sans-Serif" font-size="10.00">llvm::HexagonMCCodeEmitter</text>
</a>
</g>
</g>
<!-- Node1&#45;&gt;Node3 -->
<g id="edge2_Node000001_Node000003" class="edge">
<title>Node1&#45;&gt;Node3</title>
<g id="a_edge2_Node000001_Node000003"><a xlink:title=" ">
<path fill="none" stroke="#63b8ff" d="M112.24,-96.26C132.88,-100.91 155.97,-106.12 175.49,-110.53"/>
<polygon fill="#63b8ff" stroke="#63b8ff" points="113.07,-92.86 102.54,-94.07 111.52,-99.68 113.07,-92.86"/>
</a>
</g>
</g>
<!-- Node4 -->
<g id="Node000004" class="node">
<title>Node4</title>
<g id="a_Node000004"><a xlink:href="classllvm_1_1MSP430MCCodeEmitter.html" target="_top" xlink:title=" ">
<polygon fill="white" stroke="#666666" points="295.25,-93.25 147.25,-93.25 147.25,-74 295.25,-74 295.25,-93.25"/>
<text xml:space="preserve" text-anchor="middle" x="221.25" y="-79.75" font-family="Helvetica,sans-Serif" font-size="10.00">llvm::MSP430MCCodeEmitter</text>
</a>
</g>
</g>
<!-- Node1&#45;&gt;Node4 -->
<g id="edge3_Node000001_Node000004" class="edge">
<title>Node1&#45;&gt;Node4</title>
<g id="a_edge3_Node000001_Node000004"><a xlink:title=" ">
<path fill="none" stroke="#63b8ff" d="M122.18,-83.62C130.31,-83.62 138.67,-83.62 146.91,-83.62"/>
<polygon fill="#63b8ff" stroke="#63b8ff" points="122.37,-80.13 112.37,-83.63 122.37,-87.13 122.37,-80.13"/>
</a>
</g>
</g>
<!-- Node5 -->
<g id="Node000005" class="node">
<title>Node5</title>
<g id="a_Node000005"><a xlink:href="classllvm_1_1MipsMCCodeEmitter.html" target="_top" xlink:title=" ">
<polygon fill="white" stroke="#666666" points="287,-56.25 155.5,-56.25 155.5,-37 287,-37 287,-56.25"/>
<text xml:space="preserve" text-anchor="middle" x="221.25" y="-42.75" font-family="Helvetica,sans-Serif" font-size="10.00">llvm::MipsMCCodeEmitter</text>
</a>
</g>
</g>
<!-- Node1&#45;&gt;Node5 -->
<g id="edge4_Node000001_Node000005" class="edge">
<title>Node1&#45;&gt;Node5</title>
<g id="a_edge4_Node000001_Node000005"><a xlink:title=" ">
<path fill="none" stroke="#63b8ff" d="M112.24,-70.99C132.88,-66.34 155.97,-61.13 175.49,-56.72"/>
<polygon fill="#63b8ff" stroke="#63b8ff" points="111.52,-67.57 102.54,-73.18 113.07,-74.39 111.52,-67.57"/>
</a>
</g>
</g>
<!-- Node6 -->
<g id="Node000006" class="node">
<title>Node6</title>
<g id="a_Node000006"><a xlink:href="classllvm_1_1PPCMCCodeEmitter.html" target="_top" xlink:title=" ">
<polygon fill="white" stroke="#666666" points="287,-19.25 155.5,-19.25 155.5,0 287,0 287,-19.25"/>
<text xml:space="preserve" text-anchor="middle" x="221.25" y="-5.75" font-family="Helvetica,sans-Serif" font-size="10.00">llvm::PPCMCCodeEmitter</text>
</a>
</g>
</g>
<!-- Node1&#45;&gt;Node6 -->
<g id="edge5_Node000001_Node000006" class="edge">
<title>Node1&#45;&gt;Node6</title>
<g id="a_edge5_Node000001_Node000006"><a xlink:title=" ">
<path fill="none" stroke="#63b8ff" d="M78.18,-67.26C95.82,-54.79 121.68,-38.04 146.5,-27.62 153.79,-24.56 161.72,-21.95 169.58,-19.74"/>
<polygon fill="#63b8ff" stroke="#63b8ff" points="76.57,-64.1 70.51,-72.79 80.67,-69.78 76.57,-64.1"/>
</a>
</g>
</g>
</g>
</svg>
