<?xml version="1.0" encoding="UTF-8" standalone="no"?>
<!DOCTYPE svg PUBLIC "-//W3C//DTD SVG 1.1//EN"
 "http://www.w3.org/Graphics/SVG/1.1/DTD/svg11.dtd">
<!-- Generated by graphviz version 13.1.2 (20250808.2320)
 -->
<!-- Title: llvm::SCEVPtrToIntExpr Pages: 1 -->
<svg width="131pt" height="193pt"
 viewBox="0.00 0.00 131.00 193.00" xmlns="http://www.w3.org/2000/svg" xmlns:xlink="http://www.w3.org/1999/xlink">
<g id="graph0" class="graph" transform="scale(1 1) rotate(0) translate(4 189)">
<title>llvm::SCEVPtrToIntExpr</title>
<!-- Node1 -->
<g id="Node000001" class="node">
<title>Node1</title>
<g id="a_Node000001"><a xlink:title="This class represents a cast from a pointer to a pointer&#45;sized integer value.">
<polygon fill="#999999" stroke="#666666" points="122.5,-19.25 0,-19.25 0,0 122.5,0 122.5,-19.25"/>
<text xml:space="preserve" text-anchor="middle" x="61.25" y="-5.75" font-family="Helvetica,sans-Serif" font-size="10.00">llvm::SCEVPtrToIntExpr</text>
</a>
</g>
</g>
<!-- Node2 -->
<g id="Node000002" class="node">
<title>Node2</title>
<g id="a_Node000002"><a xlink:href="classllvm_1_1SCEVCastExpr.html" target="_top" xlink:title="This is the base class for unary cast operator classes.">
<polygon fill="white" stroke="#666666" points="115.75,-74.5 6.75,-74.5 6.75,-55.25 115.75,-55.25 115.75,-74.5"/>
<text xml:space="preserve" text-anchor="middle" x="61.25" y="-61" font-family="Helvetica,sans-Serif" font-size="10.00">llvm::SCEVCastExpr</text>
</a>
</g>
</g>
<!-- Node2&#45;&gt;Node1 -->
<g id="edge1_Node000001_Node000002" class="edge">
<title>Node2&#45;&gt;Node1</title>
<g id="a_edge1_Node000001_Node000002"><a xlink:title=" ">
<path fill="none" stroke="#63b8ff" d="M61.25,-43.63C61.25,-35.34 61.25,-26.17 61.25,-19.61"/>
<polygon fill="#63b8ff" stroke="#63b8ff" points="57.75,-43.57 61.25,-53.57 64.75,-43.57 57.75,-43.57"/>
</a>
</g>
</g>
<!-- Node3 -->
<g id="Node000003" class="node">
<title>Node3</title>
<g id="a_Node000003"><a xlink:href="classllvm_1_1SCEV.html" target="_top" xlink:title="This class represents an analyzed expression in the program.">
<polygon fill="white" stroke="#666666" points="95.12,-129.75 27.38,-129.75 27.38,-110.5 95.12,-110.5 95.12,-129.75"/>
<text xml:space="preserve" text-anchor="middle" x="61.25" y="-116.25" font-family="Helvetica,sans-Serif" font-size="10.00">llvm::SCEV</text>
</a>
</g>
</g>
<!-- Node3&#45;&gt;Node2 -->
<g id="edge2_Node000002_Node000003" class="edge">
<title>Node3&#45;&gt;Node2</title>
<g id="a_edge2_Node000002_Node000003"><a xlink:title=" ">
<path fill="none" stroke="#63b8ff" d="M61.25,-98.88C61.25,-90.59 61.25,-81.42 61.25,-74.86"/>
<polygon fill="#63b8ff" stroke="#63b8ff" points="57.75,-98.82 61.25,-108.82 64.75,-98.82 57.75,-98.82"/>
</a>
</g>
</g>
<!-- Node4 -->
<g id="Node000004" class="node">
<title>Node4</title>
<g id="a_Node000004"><a xlink:href="classllvm_1_1FoldingSetBase_1_1Node.html" target="_top" xlink:title="Node &#45; This class is used to maintain the singly linked bucket list in a folding set.">
<polygon fill="white" stroke="#666666" points="104.12,-185 18.38,-185 18.38,-165.75 104.12,-165.75 104.12,-185"/>
<text xml:space="preserve" text-anchor="middle" x="61.25" y="-171.5" font-family="Helvetica,sans-Serif" font-size="10.00">FoldingSetNode</text>
</a>
</g>
</g>
<!-- Node4&#45;&gt;Node3 -->
<g id="edge3_Node000003_Node000004" class="edge">
<title>Node4&#45;&gt;Node3</title>
<g id="a_edge3_Node000003_Node000004"><a xlink:title=" ">
<path fill="none" stroke="#63b8ff" d="M61.25,-154.13C61.25,-145.84 61.25,-136.67 61.25,-130.11"/>
<polygon fill="#63b8ff" stroke="#63b8ff" points="57.75,-154.07 61.25,-164.07 64.75,-154.07 57.75,-154.07"/>
</a>
</g>
</g>
</g>
</svg>
