<?xml version="1.0" encoding="UTF-8" standalone="no"?>
<!DOCTYPE svg PUBLIC "-//W3C//DTD SVG 1.1//EN"
 "http://www.w3.org/Graphics/SVG/1.1/DTD/svg11.dtd">
<!-- Generated by graphviz version 13.1.2 (20250808.2320)
 -->
<!-- Title: llvm::cl::parser&lt; double &gt; Pages: 1 -->
<svg width="765pt" height="123pt"
 viewBox="0.00 0.00 765.00 123.00" xmlns="http://www.w3.org/2000/svg" xmlns:xlink="http://www.w3.org/1999/xlink">
<g id="graph0" class="graph" transform="scale(1 1) rotate(0) translate(4 118.97)">
<title>llvm::cl::parser&lt; double &gt;</title>
<!-- Node1 -->
<g id="Node000001" class="node">
<title>Node1</title>
<g id="a_Node000001"><a xlink:title=" ">
<polygon fill="#999999" stroke="#666666" points="757.25,-94.88 630.25,-94.88 630.25,-75.62 757.25,-75.62 757.25,-94.88"/>
<text xml:space="preserve" text-anchor="middle" x="693.75" y="-81.38" font-family="Helvetica,sans-Serif" font-size="10.00">llvm::cl::parser&lt; double &gt;</text>
</a>
</g>
</g>
<!-- Node2 -->
<g id="Node000002" class="node">
<title>Node2</title>
<g id="a_Node000002"><a xlink:href="classllvm_1_1cl_1_1generic__parser__base.html" target="_top" xlink:title=" ">
<polygon fill="white" stroke="#666666" points="312.75,-111.88 169.25,-111.88 169.25,-92.62 312.75,-92.62 312.75,-111.88"/>
<text xml:space="preserve" text-anchor="middle" x="241" y="-98.38" font-family="Helvetica,sans-Serif" font-size="10.00">llvm::cl::generic_parser_base</text>
</a>
</g>
</g>
<!-- Node2&#45;&gt;Node1 -->
<g id="edge1_Node000001_Node000002" class="edge">
<title>Node2&#45;&gt;Node1</title>
<g id="a_edge1_Node000001_Node000002"><a xlink:title=" ">
<path fill="none" stroke="#63b8ff" d="M324.28,-109.82C399.58,-115.16 513.91,-119.3 612.25,-106.25 628.72,-104.06 646.63,-99.6 661.37,-95.36"/>
<polygon fill="#63b8ff" stroke="#63b8ff" points="324.74,-106.34 314.51,-109.1 324.22,-113.32 324.74,-106.34"/>
</a>
</g>
</g>
<!-- Node6 -->
<g id="Node000006" class="node">
<title>Node6</title>
<g id="a_Node000006"><a xlink:href="classllvm_1_1cl_1_1parser.html" target="_top" xlink:title=" ">
<polygon fill="white" stroke="#666666" points="541.75,-94.88 401.25,-94.88 401.25,-75.62 541.75,-75.62 541.75,-94.88"/>
<text xml:space="preserve" text-anchor="middle" x="471.5" y="-81.38" font-family="Helvetica,sans-Serif" font-size="10.00">llvm::cl::parser&lt; DataType &gt;</text>
</a>
</g>
</g>
<!-- Node2&#45;&gt;Node6 -->
<g id="edge7_Node000006_Node000002" class="edge">
<title>Node2&#45;&gt;Node6</title>
<g id="a_edge7_Node000006_Node000002"><a xlink:title=" ">
<path fill="none" stroke="#63b8ff" d="M324.41,-96.12C349.54,-94.25 376.89,-92.21 401.07,-90.42"/>
<polygon fill="#63b8ff" stroke="#63b8ff" points="324.27,-92.62 314.56,-96.85 324.79,-99.6 324.27,-92.62"/>
</a>
</g>
</g>
<!-- Node3 -->
<g id="Node000003" class="node">
<title>Node3</title>
<g id="a_Node000003"><a xlink:href="classllvm_1_1cl_1_1basic__parser.html" target="_top" xlink:title=" ">
<polygon fill="white" stroke="#666666" points="526,-57.5 417,-57.5 417,-27 526,-27 526,-57.5"/>
<text xml:space="preserve" text-anchor="start" x="425" y="-44" font-family="Helvetica,sans-Serif" font-size="10.00">llvm::cl::basic_parser</text>
<text xml:space="preserve" text-anchor="middle" x="471.5" y="-32.75" font-family="Helvetica,sans-Serif" font-size="10.00">&lt; double &gt;</text>
</a>
</g>
</g>
<!-- Node3&#45;&gt;Node1 -->
<g id="edge2_Node000001_Node000003" class="edge">
<title>Node3&#45;&gt;Node1</title>
<g id="a_edge2_Node000001_Node000003"><a xlink:title=" ">
<path fill="none" stroke="#63b8ff" d="M537.31,-54.9C570.34,-61.35 609.97,-69.09 640.94,-75.14"/>
<polygon fill="#63b8ff" stroke="#63b8ff" points="538.35,-51.54 527.86,-53.06 537.01,-58.41 538.35,-51.54"/>
</a>
</g>
</g>
<!-- Node4 -->
<g id="Node000004" class="node">
<title>Node4</title>
<g id="a_Node000004"><a xlink:href="classllvm_1_1cl_1_1basic__parser__impl.html" target="_top" xlink:title=" ">
<polygon fill="white" stroke="#666666" points="132.25,-45.88 0,-45.88 0,-26.62 132.25,-26.62 132.25,-45.88"/>
<text xml:space="preserve" text-anchor="middle" x="66.12" y="-32.38" font-family="Helvetica,sans-Serif" font-size="10.00">llvm::cl::basic_parser_impl</text>
</a>
</g>
</g>
<!-- Node4&#45;&gt;Node3 -->
<g id="edge3_Node000003_Node000004" class="edge">
<title>Node4&#45;&gt;Node3</title>
<g id="a_edge3_Node000003_Node000004"><a xlink:title=" ">
<path fill="none" stroke="#63b8ff" d="M143.95,-40.02C146.07,-40.1 148.17,-40.18 150.25,-40.25 253.76,-43.89 279.69,-45.44 383.25,-44.25 394.01,-44.13 405.51,-43.92 416.51,-43.68"/>
<polygon fill="#63b8ff" stroke="#63b8ff" points="144.11,-36.52 133.97,-39.62 143.82,-43.52 144.11,-36.52"/>
</a>
</g>
</g>
<!-- Node5 -->
<g id="Node000005" class="node">
<title>Node5</title>
<g id="a_Node000005"><a xlink:href="classllvm_1_1cl_1_1basic__parser.html" target="_top" xlink:title=" ">
<polygon fill="white" stroke="#666666" points="295.5,-30.5 186.5,-30.5 186.5,0 295.5,0 295.5,-30.5"/>
<text xml:space="preserve" text-anchor="start" x="194.5" y="-17" font-family="Helvetica,sans-Serif" font-size="10.00">llvm::cl::basic_parser</text>
<text xml:space="preserve" text-anchor="middle" x="241" y="-5.75" font-family="Helvetica,sans-Serif" font-size="10.00">&lt; DataType &gt;</text>
</a>
</g>
</g>
<!-- Node4&#45;&gt;Node5 -->
<g id="edge5_Node000005_Node000004" class="edge">
<title>Node4&#45;&gt;Node5</title>
<g id="a_edge5_Node000005_Node000004"><a xlink:title=" ">
<path fill="none" stroke="#63b8ff" d="M143.81,-26.93C158.07,-25.2 172.7,-23.43 186.1,-21.8"/>
<polygon fill="#63b8ff" stroke="#63b8ff" points="143.49,-23.45 133.98,-28.13 144.33,-30.4 143.49,-23.45"/>
</a>
</g>
</g>
<!-- Node5&#45;&gt;Node3 -->
<g id="edge4_Node000003_Node000005" class="edge">
<title>Node5&#45;&gt;Node3</title>
<g id="a_edge4_Node000003_Node000005"><a xlink:title=" ">
<path fill="none" stroke="orange" stroke-dasharray="5,2" d="M307.24,-19.44C331.2,-21.31 358.5,-23.81 383.25,-27 394.08,-28.39 405.61,-30.19 416.63,-32.05"/>
<polygon fill="orange" stroke="orange" points="307.52,-15.96 297.29,-18.69 307,-22.94 307.52,-15.96"/>
</a>
</g>
<text xml:space="preserve" text-anchor="start" x="333.75" y="-31.75" font-family="Helvetica,sans-Serif" font-size="10.00" fill="grey">&lt; double &gt;</text>
</g>
<!-- Node6&#45;&gt;Node1 -->
<g id="edge6_Node000001_Node000006" class="edge">
<title>Node6&#45;&gt;Node1</title>
<g id="a_edge6_Node000001_Node000006"><a xlink:title=" ">
<path fill="none" stroke="orange" stroke-dasharray="5,2" d="M553.58,-85.25C578.76,-85.25 606.11,-85.25 629.86,-85.25"/>
<polygon fill="orange" stroke="orange" points="553.7,-81.75 543.7,-85.25 553.7,-88.75 553.7,-81.75"/>
</a>
</g>
<text xml:space="preserve" text-anchor="start" x="562.75" y="-90" font-family="Helvetica,sans-Serif" font-size="10.00" fill="grey">&lt; double &gt;</text>
</g>
</g>
</svg>
