<?xml version="1.0" encoding="UTF-8" standalone="no"?>
<!DOCTYPE svg PUBLIC "-//W3C//DTD SVG 1.1//EN"
 "http://www.w3.org/Graphics/SVG/1.1/DTD/svg11.dtd">
<!-- Generated by graphviz version 13.1.2 (20250808.2320)
 -->
<!-- Title: llvm::RTTIRoot Pages: 1 -->
<svg width="746pt" height="158pt"
 viewBox="0.00 0.00 746.00 158.00" xmlns="http://www.w3.org/2000/svg" xmlns:xlink="http://www.w3.org/1999/xlink">
<g id="graph0" class="graph" transform="scale(1 1) rotate(0) translate(4 153.88)">
<title>llvm::RTTIRoot</title>
<!-- Node1 -->
<g id="Node000001" class="node">
<title>Node1</title>
<g id="a_Node000001"><a xlink:title="Base class for the extensible RTTI hierarchy.">
<polygon fill="#999999" stroke="#666666" points="83.5,-95.25 0,-95.25 0,-76 83.5,-76 83.5,-95.25"/>
<text xml:space="preserve" text-anchor="middle" x="41.75" y="-81.75" font-family="Helvetica,sans-Serif" font-size="10.00">llvm::RTTIRoot</text>
</a>
</g>
</g>
<!-- Node2 -->
<g id="Node000002" class="node">
<title>Node2</title>
<g id="a_Node000002"><a xlink:href="classllvm_1_1RTTIExtends.html" target="_top" xlink:title=" ">
<polygon fill="white" stroke="#666666" points="248.75,-149.88 119.5,-149.88 119.5,-119.38 248.75,-119.38 248.75,-149.88"/>
<text xml:space="preserve" text-anchor="start" x="127.5" y="-136.38" font-family="Helvetica,sans-Serif" font-size="10.00">llvm::RTTIExtends&lt;</text>
<text xml:space="preserve" text-anchor="middle" x="184.12" y="-125.12" font-family="Helvetica,sans-Serif" font-size="10.00"> ObjectLayer, RTTIRoot &gt;</text>
</a>
</g>
</g>
<!-- Node1&#45;&gt;Node2 -->
<g id="edge1_Node000001_Node000002" class="edge">
<title>Node1&#45;&gt;Node2</title>
<g id="a_edge1_Node000001_Node000002"><a xlink:title=" ">
<path fill="none" stroke="#63b8ff" d="M81.9,-99.29C99.35,-105.38 120.02,-112.6 138.11,-118.91"/>
<polygon fill="#63b8ff" stroke="#63b8ff" points="83.52,-96.15 72.92,-96.16 81.21,-102.76 83.52,-96.15"/>
</a>
</g>
</g>
<!-- Node5 -->
<g id="Node000005" class="node">
<title>Node5</title>
<g id="a_Node000005"><a xlink:href="classllvm_1_1RTTIExtends.html" target="_top" xlink:title=" ">
<polygon fill="white" stroke="#666666" points="236.38,-100.88 131.88,-100.88 131.88,-70.38 236.38,-70.38 236.38,-100.88"/>
<text xml:space="preserve" text-anchor="start" x="139.88" y="-87.38" font-family="Helvetica,sans-Serif" font-size="10.00">llvm::RTTIExtends&lt;</text>
<text xml:space="preserve" text-anchor="middle" x="184.12" y="-76.12" font-family="Helvetica,sans-Serif" font-size="10.00"> Task, RTTIRoot &gt;</text>
</a>
</g>
</g>
<!-- Node1&#45;&gt;Node5 -->
<g id="edge4_Node000001_Node000005" class="edge">
<title>Node1&#45;&gt;Node5</title>
<g id="a_edge4_Node000001_Node000005"><a xlink:title=" ">
<path fill="none" stroke="#63b8ff" d="M94.94,-85.62C106.92,-85.62 119.65,-85.62 131.6,-85.62"/>
<polygon fill="#63b8ff" stroke="#63b8ff" points="95.24,-82.13 85.24,-85.63 95.24,-89.13 95.24,-82.13"/>
</a>
</g>
</g>
<!-- Node7 -->
<g id="Node000007" class="node">
<title>Node7</title>
<g id="a_Node000007"><a xlink:href="classllvm_1_1RTTIExtends.html" target="_top" xlink:title=" ">
<polygon fill="white" stroke="#666666" points="247.62,-51.88 120.62,-51.88 120.62,-21.38 247.62,-21.38 247.62,-51.88"/>
<text xml:space="preserve" text-anchor="start" x="128.62" y="-38.38" font-family="Helvetica,sans-Serif" font-size="10.00">llvm::RTTIExtends&lt;</text>
<text xml:space="preserve" text-anchor="middle" x="184.12" y="-27.12" font-family="Helvetica,sans-Serif" font-size="10.00"> FileSystem, RTTIRoot &gt;</text>
</a>
</g>
</g>
<!-- Node1&#45;&gt;Node7 -->
<g id="edge6_Node000001_Node000007" class="edge">
<title>Node1&#45;&gt;Node7</title>
<g id="a_edge6_Node000001_Node000007"><a xlink:title=" ">
<path fill="none" stroke="#63b8ff" d="M81.9,-71.96C99.35,-65.87 120.02,-58.65 138.11,-52.34"/>
<polygon fill="#63b8ff" stroke="#63b8ff" points="81.21,-68.49 72.92,-75.09 83.52,-75.1 81.21,-68.49"/>
</a>
</g>
</g>
<!-- Node3 -->
<g id="Node000003" class="node">
<title>Node3</title>
<g id="a_Node000003"><a xlink:href="classllvm_1_1orc_1_1ObjectLayer.html" target="_top" xlink:title="Interface for Layers that accept object files.">
<polygon fill="white" stroke="#666666" points="396.75,-144.25 284.75,-144.25 284.75,-125 396.75,-125 396.75,-144.25"/>
<text xml:space="preserve" text-anchor="middle" x="340.75" y="-130.75" font-family="Helvetica,sans-Serif" font-size="10.00">llvm::orc::ObjectLayer</text>
</a>
</g>
</g>
<!-- Node2&#45;&gt;Node3 -->
<g id="edge2_Node000002_Node000003" class="edge">
<title>Node2&#45;&gt;Node3</title>
<g id="a_edge2_Node000002_Node000003"><a xlink:title=" ">
<path fill="none" stroke="#63b8ff" d="M260.36,-134.62C268.5,-134.62 276.66,-134.62 284.5,-134.62"/>
<polygon fill="#63b8ff" stroke="#63b8ff" points="260.42,-131.13 250.42,-134.63 260.42,-138.13 260.42,-131.13"/>
</a>
</g>
</g>
<!-- Node4 -->
<g id="Node000004" class="node">
<title>Node4</title>
<g id="a_Node000004"><a xlink:href="classllvm_1_1orc_1_1LazyObjectLinkingLayer.html" target="_top" xlink:title="LazyObjectLinkingLayer is an adapter for ObjectLinkingLayer that builds lazy reexports for all functi...">
<polygon fill="white" stroke="#666666" points="574.75,-149.88 435,-149.88 435,-119.38 574.75,-119.38 574.75,-149.88"/>
<text xml:space="preserve" text-anchor="start" x="443" y="-136.38" font-family="Helvetica,sans-Serif" font-size="10.00">llvm::orc::LazyObjectLinking</text>
<text xml:space="preserve" text-anchor="middle" x="504.88" y="-125.12" font-family="Helvetica,sans-Serif" font-size="10.00">Layer</text>
</a>
</g>
</g>
<!-- Node3&#45;&gt;Node4 -->
<g id="edge3_Node000003_Node000004" class="edge">
<title>Node3&#45;&gt;Node4</title>
<g id="a_edge3_Node000003_Node000004"><a xlink:title=" ">
<path fill="none" stroke="#63b8ff" d="M408.36,-134.62C417.06,-134.62 425.99,-134.62 434.73,-134.62"/>
<polygon fill="#63b8ff" stroke="#63b8ff" points="408.6,-131.13 398.6,-134.63 408.6,-138.13 408.6,-131.13"/>
</a>
</g>
</g>
<!-- Node6 -->
<g id="Node000006" class="node">
<title>Node6</title>
<g id="a_Node000006"><a xlink:href="classllvm_1_1orc_1_1Task.html" target="_top" xlink:title="Represents an abstract task for ORC to run.">
<polygon fill="white" stroke="#666666" points="381,-95.25 300.5,-95.25 300.5,-76 381,-76 381,-95.25"/>
<text xml:space="preserve" text-anchor="middle" x="340.75" y="-81.75" font-family="Helvetica,sans-Serif" font-size="10.00">llvm::orc::Task</text>
</a>
</g>
</g>
<!-- Node5&#45;&gt;Node6 -->
<g id="edge5_Node000005_Node000006" class="edge">
<title>Node5&#45;&gt;Node6</title>
<g id="a_edge5_Node000005_Node000006"><a xlink:title=" ">
<path fill="none" stroke="#63b8ff" d="M248.02,-85.62C265.67,-85.62 284.36,-85.62 300.23,-85.62"/>
<polygon fill="#63b8ff" stroke="#63b8ff" points="248.13,-82.13 238.13,-85.63 248.13,-89.13 248.13,-82.13"/>
</a>
</g>
</g>
<!-- Node8 -->
<g id="Node000008" class="node">
<title>Node8</title>
<g id="a_Node000008"><a xlink:href="classllvm_1_1vfs_1_1FileSystem.html" target="_top" xlink:title="The virtual file system interface.">
<polygon fill="white" stroke="#666666" points="395.25,-46.25 286.25,-46.25 286.25,-27 395.25,-27 395.25,-46.25"/>
<text xml:space="preserve" text-anchor="middle" x="340.75" y="-32.75" font-family="Helvetica,sans-Serif" font-size="10.00">llvm::vfs::FileSystem</text>
</a>
</g>
</g>
<!-- Node7&#45;&gt;Node8 -->
<g id="edge7_Node000007_Node000008" class="edge">
<title>Node7&#45;&gt;Node8</title>
<g id="a_edge7_Node000007_Node000008"><a xlink:title=" ">
<path fill="none" stroke="#63b8ff" d="M259.29,-36.62C268.24,-36.62 277.25,-36.62 285.83,-36.62"/>
<polygon fill="#63b8ff" stroke="#63b8ff" points="259.53,-33.13 249.53,-36.63 259.53,-40.13 259.53,-33.13"/>
</a>
</g>
</g>
<!-- Node9 -->
<g id="Node000009" class="node">
<title>Node9</title>
<g id="a_Node000009"><a xlink:href="classllvm_1_1RTTIExtends.html" target="_top" xlink:title=" ">
<polygon fill="white" stroke="#666666" points="565.38,-79.5 444.38,-79.5 444.38,-37.75 565.38,-37.75 565.38,-79.5"/>
<text xml:space="preserve" text-anchor="start" x="452.38" y="-66" font-family="Helvetica,sans-Serif" font-size="10.00">llvm::RTTIExtends&lt;</text>
<text xml:space="preserve" text-anchor="start" x="452.38" y="-54.75" font-family="Helvetica,sans-Serif" font-size="10.00"> RedirectingFileSystem,</text>
<text xml:space="preserve" text-anchor="middle" x="504.88" y="-43.5" font-family="Helvetica,sans-Serif" font-size="10.00"> vfs::FileSystem &gt;</text>
</a>
</g>
</g>
<!-- Node8&#45;&gt;Node9 -->
<g id="edge8_Node000008_Node000009" class="edge">
<title>Node8&#45;&gt;Node9</title>
<g id="a_edge8_Node000008_Node000009"><a xlink:title=" ">
<path fill="none" stroke="#63b8ff" d="M406.83,-45.46C419.1,-47.12 431.88,-48.86 443.98,-50.5"/>
<polygon fill="#63b8ff" stroke="#63b8ff" points="407.61,-42.03 397.24,-44.15 406.67,-48.97 407.61,-42.03"/>
</a>
</g>
</g>
<!-- Node11 -->
<g id="Node000011" class="node">
<title>Node11</title>
<g id="a_Node000011"><a xlink:href="classllvm_1_1FileCollectorFileSystem.html" target="_top" xlink:title=" ">
<polygon fill="white" stroke="#666666" points="577,-19.25 432.75,-19.25 432.75,0 577,0 577,-19.25"/>
<text xml:space="preserve" text-anchor="middle" x="504.88" y="-5.75" font-family="Helvetica,sans-Serif" font-size="10.00">llvm::FileCollectorFileSystem</text>
</a>
</g>
</g>
<!-- Node8&#45;&gt;Node11 -->
<g id="edge10_Node000008_Node000011" class="edge">
<title>Node8&#45;&gt;Node11</title>
<g id="a_edge10_Node000008_Node000011"><a xlink:title=" ">
<path fill="none" stroke="#63b8ff" d="M407,-25.76C418.93,-23.77 431.34,-21.71 443.13,-19.74"/>
<polygon fill="#63b8ff" stroke="#63b8ff" points="406.52,-22.29 397.23,-27.39 407.67,-29.2 406.52,-22.29"/>
</a>
</g>
</g>
<!-- Node10 -->
<g id="Node000010" class="node">
<title>Node10</title>
<g id="a_Node000010"><a xlink:href="classllvm_1_1vfs_1_1RedirectingFileSystem.html" target="_top" xlink:title="A virtual file system parsed from a YAML file.">
<polygon fill="white" stroke="#666666" points="737.75,-73.88 613,-73.88 613,-43.38 737.75,-43.38 737.75,-73.88"/>
<text xml:space="preserve" text-anchor="start" x="621" y="-60.38" font-family="Helvetica,sans-Serif" font-size="10.00">llvm::vfs::RedirectingFile</text>
<text xml:space="preserve" text-anchor="middle" x="675.38" y="-49.12" font-family="Helvetica,sans-Serif" font-size="10.00">System</text>
</a>
</g>
</g>
<!-- Node9&#45;&gt;Node10 -->
<g id="edge9_Node000009_Node000010" class="edge">
<title>Node9&#45;&gt;Node10</title>
<g id="a_edge9_Node000009_Node000010"><a xlink:title=" ">
<path fill="none" stroke="#63b8ff" d="M576.99,-58.62C588.86,-58.62 601.09,-58.62 612.69,-58.62"/>
<polygon fill="#63b8ff" stroke="#63b8ff" points="577.27,-55.13 567.27,-58.63 577.27,-62.13 577.27,-55.13"/>
</a>
</g>
</g>
</g>
</svg>
