<?xml version="1.0" encoding="UTF-8" standalone="no"?>
<!DOCTYPE svg PUBLIC "-//W3C//DTD SVG 1.1//EN"
 "http://www.w3.org/Graphics/SVG/1.1/DTD/svg11.dtd">
<!-- Generated by graphviz version 13.1.2 (20250808.2320)
 -->
<!-- Title: llvm::BinaryStreamRefBase&lt; RefType, StreamType &gt; Pages: 1 -->
<svg width="671pt" height="108pt"
 viewBox="0.00 0.00 671.00 108.00" xmlns="http://www.w3.org/2000/svg" xmlns:xlink="http://www.w3.org/1999/xlink">
<g id="graph0" class="graph" transform="scale(1 1) rotate(0) translate(4 103.52)">
<title>llvm::BinaryStreamRefBase&lt; RefType, StreamType &gt;</title>
<!-- Node1 -->
<g id="Node000001" class="node">
<title>Node1</title>
<g id="a_Node000001"><a xlink:title="Common stuff for mutable and immutable StreamRefs.">
<polygon fill="#999999" stroke="#666666" points="137.5,-64.12 0,-64.12 0,-33.62 137.5,-33.62 137.5,-64.12"/>
<text xml:space="preserve" text-anchor="start" x="8" y="-50.62" font-family="Helvetica,sans-Serif" font-size="10.00">llvm::BinaryStreamRefBase</text>
<text xml:space="preserve" text-anchor="middle" x="68.75" y="-39.38" font-family="Helvetica,sans-Serif" font-size="10.00">&lt; RefType, StreamType &gt;</text>
</a>
</g>
</g>
<!-- Node2 -->
<g id="Node000002" class="node">
<title>Node2</title>
<g id="a_Node000002"><a xlink:href="classllvm_1_1BinaryStreamRefBase.html" target="_top" xlink:title=" ">
<polygon fill="white" stroke="#666666" points="476,-92.12 301.75,-92.12 301.75,-61.62 476,-61.62 476,-92.12"/>
<text xml:space="preserve" text-anchor="start" x="309.75" y="-78.62" font-family="Helvetica,sans-Serif" font-size="10.00">llvm::BinaryStreamRefBase</text>
<text xml:space="preserve" text-anchor="middle" x="388.88" y="-67.38" font-family="Helvetica,sans-Serif" font-size="10.00">&lt; BinaryStreamRef, BinaryStream &gt;</text>
</a>
</g>
</g>
<!-- Node1&#45;&gt;Node2 -->
<g id="edge1_Node000001_Node000002" class="edge">
<title>Node1&#45;&gt;Node2</title>
<g id="a_edge1_Node000001_Node000002"><a xlink:title=" ">
<path fill="none" stroke="orange" stroke-dasharray="5,2" d="M149.2,-55.87C195.55,-59.95 254.06,-65.1 301.54,-69.28"/>
<polygon fill="orange" stroke="orange" points="149.77,-52.4 139.5,-55.01 149.16,-59.38 149.77,-52.4"/>
</a>
</g>
<text xml:space="preserve" text-anchor="start" x="176.12" y="-87.02" font-family="Helvetica,sans-Serif" font-size="10.00" fill="grey">&lt; BinaryStreamRef,</text>
<text xml:space="preserve" text-anchor="start" x="176.12" y="-71.77" font-family="Helvetica,sans-Serif" font-size="10.00" fill="grey">   BinaryStream &gt;</text>
</g>
<!-- Node4 -->
<g id="Node000004" class="node">
<title>Node4</title>
<g id="a_Node000004"><a xlink:href="classllvm_1_1BinaryStreamRefBase.html" target="_top" xlink:title=" ">
<polygon fill="white" stroke="#666666" points="458,-41.75 319.75,-41.75 319.75,0 458,0 458,-41.75"/>
<text xml:space="preserve" text-anchor="start" x="327.75" y="-28.25" font-family="Helvetica,sans-Serif" font-size="10.00">llvm::BinaryStreamRefBase</text>
<text xml:space="preserve" text-anchor="start" x="327.75" y="-17" font-family="Helvetica,sans-Serif" font-size="10.00">&lt; WritableBinaryStreamRef,</text>
<text xml:space="preserve" text-anchor="middle" x="388.88" y="-5.75" font-family="Helvetica,sans-Serif" font-size="10.00"> WritableBinaryStream &gt;</text>
</a>
</g>
</g>
<!-- Node1&#45;&gt;Node4 -->
<g id="edge3_Node000001_Node000004" class="edge">
<title>Node1&#45;&gt;Node4</title>
<g id="a_edge3_Node000001_Node000004"><a xlink:title=" ">
<path fill="none" stroke="orange" stroke-dasharray="5,2" d="M118.56,-29.66C130.46,-25.81 143.29,-22.35 155.5,-20.38 210.06,-11.55 272.77,-12.31 319.29,-14.93"/>
<polygon fill="orange" stroke="orange" points="117.71,-26.25 109.37,-32.78 119.96,-32.88 117.71,-26.25"/>
</a>
</g>
<text xml:space="preserve" text-anchor="start" x="158.5" y="-40.38" font-family="Helvetica,sans-Serif" font-size="10.00" fill="grey">&lt; WritableBinaryStreamRef,</text>
<text xml:space="preserve" text-anchor="start" x="158.5" y="-25.12" font-family="Helvetica,sans-Serif" font-size="10.00" fill="grey">   WritableBinaryStream &gt;</text>
</g>
<!-- Node3 -->
<g id="Node000003" class="node">
<title>Node3</title>
<g id="a_Node000003"><a xlink:href="classllvm_1_1BinaryStreamRef.html" target="_top" xlink:title="BinaryStreamRef is to BinaryStream what ArrayRef is to an Array.">
<polygon fill="white" stroke="#666666" points="645.62,-86.5 530.62,-86.5 530.62,-67.25 645.62,-67.25 645.62,-86.5"/>
<text xml:space="preserve" text-anchor="middle" x="588.12" y="-73" font-family="Helvetica,sans-Serif" font-size="10.00">llvm::BinaryStreamRef</text>
</a>
</g>
</g>
<!-- Node2&#45;&gt;Node3 -->
<g id="edge2_Node000002_Node000003" class="edge">
<title>Node2&#45;&gt;Node3</title>
<g id="a_edge2_Node000002_Node000003"><a xlink:title=" ">
<path fill="none" stroke="#63b8ff" d="M487.54,-76.88C502.16,-76.88 516.8,-76.88 530.19,-76.88"/>
<polygon fill="#63b8ff" stroke="#63b8ff" points="487.91,-73.38 477.91,-76.88 487.91,-80.38 487.91,-73.38"/>
</a>
</g>
</g>
<!-- Node5 -->
<g id="Node000005" class="node">
<title>Node5</title>
<g id="a_Node000005"><a xlink:href="classllvm_1_1WritableBinaryStreamRef.html" target="_top" xlink:title=" ">
<polygon fill="white" stroke="#666666" points="663.25,-30.5 513,-30.5 513,-11.25 663.25,-11.25 663.25,-30.5"/>
<text xml:space="preserve" text-anchor="middle" x="588.12" y="-17" font-family="Helvetica,sans-Serif" font-size="10.00">llvm::WritableBinaryStreamRef</text>
</a>
</g>
</g>
<!-- Node4&#45;&gt;Node5 -->
<g id="edge4_Node000004_Node000005" class="edge">
<title>Node4&#45;&gt;Node5</title>
<g id="a_edge4_Node000004_Node000005"><a xlink:title=" ">
<path fill="none" stroke="#63b8ff" d="M469.6,-20.88C483.85,-20.88 498.66,-20.88 512.75,-20.88"/>
<polygon fill="#63b8ff" stroke="#63b8ff" points="469.82,-17.38 459.82,-20.88 469.82,-24.38 469.82,-17.38"/>
</a>
</g>
</g>
</g>
</svg>
