<?xml version="1.0" encoding="UTF-8" standalone="no"?>
<!DOCTYPE svg PUBLIC "-//W3C//DTD SVG 1.1//EN"
 "http://www.w3.org/Graphics/SVG/1.1/DTD/svg11.dtd">
<!-- Generated by graphviz version 13.1.2 (20250808.2320)
 -->
<!-- Title: MipsGenRegisterInfo Pages: 1 -->
<svg width="278pt" height="138pt"
 viewBox="0.00 0.00 278.00 138.00" xmlns="http://www.w3.org/2000/svg" xmlns:xlink="http://www.w3.org/1999/xlink">
<g id="graph0" class="graph" transform="scale(1 1) rotate(0) translate(4 133.75)">
<title>MipsGenRegisterInfo</title>
<!-- Node1 -->
<g id="Node000001" class="node">
<title>Node1</title>
<g id="a_Node000001"><a xlink:title=" ">
<polygon fill="#999999" stroke="#666666" points="188.5,-129.75 80.25,-129.75 80.25,-110.5 188.5,-110.5 188.5,-129.75"/>
<text xml:space="preserve" text-anchor="middle" x="134.38" y="-116.25" font-family="Helvetica,sans-Serif" font-size="10.00">MipsGenRegisterInfo</text>
</a>
</g>
</g>
<!-- Node2 -->
<g id="Node000002" class="node">
<title>Node2</title>
<g id="a_Node000002"><a xlink:href="classllvm_1_1MipsRegisterInfo.html" target="_top" xlink:title=" ">
<polygon fill="white" stroke="#666666" points="191.5,-74.5 77.25,-74.5 77.25,-55.25 191.5,-55.25 191.5,-74.5"/>
<text xml:space="preserve" text-anchor="middle" x="134.38" y="-61" font-family="Helvetica,sans-Serif" font-size="10.00">llvm::MipsRegisterInfo</text>
</a>
</g>
</g>
<!-- Node1&#45;&gt;Node2 -->
<g id="edge1_Node000001_Node000002" class="edge">
<title>Node1&#45;&gt;Node2</title>
<g id="a_edge1_Node000001_Node000002"><a xlink:title=" ">
<path fill="none" stroke="#63b8ff" d="M134.38,-98.88C134.38,-90.59 134.38,-81.42 134.38,-74.86"/>
<polygon fill="#63b8ff" stroke="#63b8ff" points="130.88,-98.82 134.38,-108.82 137.88,-98.82 130.88,-98.82"/>
</a>
</g>
</g>
<!-- Node3 -->
<g id="Node000003" class="node">
<title>Node3</title>
<g id="a_Node000003"><a xlink:href="classllvm_1_1Mips16RegisterInfo.html" target="_top" xlink:title=" ">
<polygon fill="white" stroke="#666666" points="124.75,-19.25 0,-19.25 0,0 124.75,0 124.75,-19.25"/>
<text xml:space="preserve" text-anchor="middle" x="62.38" y="-5.75" font-family="Helvetica,sans-Serif" font-size="10.00">llvm::Mips16RegisterInfo</text>
</a>
</g>
</g>
<!-- Node2&#45;&gt;Node3 -->
<g id="edge2_Node000002_Node000003" class="edge">
<title>Node2&#45;&gt;Node3</title>
<g id="a_edge2_Node000002_Node000003"><a xlink:title=" ">
<path fill="none" stroke="#63b8ff" d="M113.2,-48.22C100.56,-38.87 84.97,-27.33 74.41,-19.52"/>
<polygon fill="#63b8ff" stroke="#63b8ff" points="110.82,-50.81 120.94,-53.94 114.99,-45.18 110.82,-50.81"/>
</a>
</g>
</g>
<!-- Node4 -->
<g id="Node000004" class="node">
<title>Node4</title>
<g id="a_Node000004"><a xlink:href="classllvm_1_1MipsSERegisterInfo.html" target="_top" xlink:title=" ">
<polygon fill="white" stroke="#666666" points="270.25,-19.25 142.5,-19.25 142.5,0 270.25,0 270.25,-19.25"/>
<text xml:space="preserve" text-anchor="middle" x="206.38" y="-5.75" font-family="Helvetica,sans-Serif" font-size="10.00">llvm::MipsSERegisterInfo</text>
</a>
</g>
</g>
<!-- Node2&#45;&gt;Node4 -->
<g id="edge3_Node000002_Node000004" class="edge">
<title>Node2&#45;&gt;Node4</title>
<g id="a_edge3_Node000002_Node000004"><a xlink:title=" ">
<path fill="none" stroke="#63b8ff" d="M155.55,-48.22C168.19,-38.87 183.78,-27.33 194.34,-19.52"/>
<polygon fill="#63b8ff" stroke="#63b8ff" points="153.76,-45.18 147.81,-53.94 157.93,-50.81 153.76,-45.18"/>
</a>
</g>
</g>
</g>
</svg>
