<?xml version="1.0" encoding="UTF-8" standalone="no"?>
<!DOCTYPE svg PUBLIC "-//W3C//DTD SVG 1.1//EN"
 "http://www.w3.org/Graphics/SVG/1.1/DTD/svg11.dtd">
<!-- Generated by graphviz version 13.1.2 (20250808.2320)
 -->
<!-- Title: llvm::DWARFLocationTable Pages: 1 -->
<svg width="286pt" height="83pt"
 viewBox="0.00 0.00 286.00 83.00" xmlns="http://www.w3.org/2000/svg" xmlns:xlink="http://www.w3.org/1999/xlink">
<g id="graph0" class="graph" transform="scale(1 1) rotate(0) translate(4 78.5)">
<title>llvm::DWARFLocationTable</title>
<!-- Node1 -->
<g id="Node000001" class="node">
<title>Node1</title>
<g id="a_Node000001"><a xlink:title="An abstract base class for various kinds of location tables (.debug_loc, .debug_loclists,...">
<polygon fill="#999999" stroke="#666666" points="202.88,-74.5 66.12,-74.5 66.12,-55.25 202.88,-55.25 202.88,-74.5"/>
<text xml:space="preserve" text-anchor="middle" x="134.5" y="-61" font-family="Helvetica,sans-Serif" font-size="10.00">llvm::DWARFLocationTable</text>
</a>
</g>
</g>
<!-- Node2 -->
<g id="Node000002" class="node">
<title>Node2</title>
<g id="a_Node000002"><a xlink:href="classllvm_1_1DWARFDebugLoc.html" target="_top" xlink:title=" ">
<polygon fill="white" stroke="#666666" points="121,-19.25 0,-19.25 0,0 121,0 121,-19.25"/>
<text xml:space="preserve" text-anchor="middle" x="60.5" y="-5.75" font-family="Helvetica,sans-Serif" font-size="10.00">llvm::DWARFDebugLoc</text>
</a>
</g>
</g>
<!-- Node1&#45;&gt;Node2 -->
<g id="edge1_Node000001_Node000002" class="edge">
<title>Node1&#45;&gt;Node2</title>
<g id="a_edge1_Node000001_Node000002"><a xlink:title=" ">
<path fill="none" stroke="#63b8ff" d="M112.74,-48.22C99.75,-38.87 83.72,-27.33 72.87,-19.52"/>
<polygon fill="#63b8ff" stroke="#63b8ff" points="110.56,-50.96 120.72,-53.96 114.65,-45.28 110.56,-50.96"/>
</a>
</g>
</g>
<!-- Node3 -->
<g id="Node000003" class="node">
<title>Node3</title>
<g id="a_Node000003"><a xlink:href="classllvm_1_1DWARFDebugLoclists.html" target="_top" xlink:title=" ">
<polygon fill="white" stroke="#666666" points="278,-19.25 139,-19.25 139,0 278,0 278,-19.25"/>
<text xml:space="preserve" text-anchor="middle" x="208.5" y="-5.75" font-family="Helvetica,sans-Serif" font-size="10.00">llvm::DWARFDebugLoclists</text>
</a>
</g>
</g>
<!-- Node1&#45;&gt;Node3 -->
<g id="edge2_Node000001_Node000003" class="edge">
<title>Node1&#45;&gt;Node3</title>
<g id="a_edge2_Node000001_Node000003"><a xlink:title=" ">
<path fill="none" stroke="#63b8ff" d="M156.26,-48.22C169.25,-38.87 185.28,-27.33 196.13,-19.52"/>
<polygon fill="#63b8ff" stroke="#63b8ff" points="154.35,-45.28 148.28,-53.96 158.44,-50.96 154.35,-45.28"/>
</a>
</g>
</g>
</g>
</svg>
