<?xml version="1.0" encoding="UTF-8" standalone="no"?>
<!DOCTYPE svg PUBLIC "-//W3C//DTD SVG 1.1//EN"
 "http://www.w3.org/Graphics/SVG/1.1/DTD/svg11.dtd">
<!-- Generated by graphviz version 13.1.2 (20250808.2320)
 -->
<!-- Title: llvm::orc::IRCompileLayer::IRCompiler Pages: 1 -->
<svg width="316pt" height="160pt"
 viewBox="0.00 0.00 316.00 160.00" xmlns="http://www.w3.org/2000/svg" xmlns:xlink="http://www.w3.org/1999/xlink">
<g id="graph0" class="graph" transform="scale(1 1) rotate(0) translate(4 156.25)">
<title>llvm::orc::IRCompileLayer::IRCompiler</title>
<!-- Node1 -->
<g id="Node000001" class="node">
<title>Node1</title>
<g id="a_Node000001"><a xlink:title=" ">
<polygon fill="#999999" stroke="#666666" points="223.5,-152.25 93.5,-152.25 93.5,-121.75 223.5,-121.75 223.5,-152.25"/>
<text xml:space="preserve" text-anchor="start" x="101.5" y="-138.75" font-family="Helvetica,sans-Serif" font-size="10.00">llvm::orc::IRCompileLayer</text>
<text xml:space="preserve" text-anchor="middle" x="158.5" y="-127.5" font-family="Helvetica,sans-Serif" font-size="10.00">::IRCompiler</text>
</a>
</g>
</g>
<!-- Node2 -->
<g id="Node000002" class="node">
<title>Node2</title>
<g id="a_Node000002"><a xlink:href="classllvm_1_1orc_1_1ConcurrentIRCompiler.html" target="_top" xlink:title="A thread&#45;safe version of SimpleCompiler.">
<polygon fill="white" stroke="#666666" points="157,-85.75 0,-85.75 0,-66.5 157,-66.5 157,-85.75"/>
<text xml:space="preserve" text-anchor="middle" x="78.5" y="-72.25" font-family="Helvetica,sans-Serif" font-size="10.00">llvm::orc::ConcurrentIRCompiler</text>
</a>
</g>
</g>
<!-- Node1&#45;&gt;Node2 -->
<g id="edge1_Node000001_Node000002" class="edge">
<title>Node1&#45;&gt;Node2</title>
<g id="a_edge1_Node000001_Node000002"><a xlink:title=" ">
<path fill="none" stroke="#63b8ff" d="M129.83,-114.9C116.44,-105.05 101.2,-93.83 90.83,-86.2"/>
<polygon fill="#63b8ff" stroke="#63b8ff" points="127.38,-117.44 137.51,-120.55 131.53,-111.8 127.38,-117.44"/>
</a>
</g>
</g>
<!-- Node3 -->
<g id="Node000003" class="node">
<title>Node3</title>
<g id="a_Node000003"><a xlink:href="classllvm_1_1orc_1_1SimpleCompiler.html" target="_top" xlink:title="Simple compile functor: Takes a single IR module and returns an ObjectFile.">
<polygon fill="white" stroke="#666666" points="303.75,-85.75 175.25,-85.75 175.25,-66.5 303.75,-66.5 303.75,-85.75"/>
<text xml:space="preserve" text-anchor="middle" x="239.5" y="-72.25" font-family="Helvetica,sans-Serif" font-size="10.00">llvm::orc::SimpleCompiler</text>
</a>
</g>
</g>
<!-- Node1&#45;&gt;Node3 -->
<g id="edge2_Node000001_Node000003" class="edge">
<title>Node1&#45;&gt;Node3</title>
<g id="a_edge2_Node000001_Node000003"><a xlink:title=" ">
<path fill="none" stroke="#63b8ff" d="M187.53,-114.9C201.08,-105.05 216.51,-93.83 227.01,-86.2"/>
<polygon fill="#63b8ff" stroke="#63b8ff" points="185.78,-111.85 179.75,-120.56 189.89,-117.51 185.78,-111.85"/>
</a>
</g>
</g>
<!-- Node4 -->
<g id="Node000004" class="node">
<title>Node4</title>
<g id="a_Node000004"><a xlink:href="classllvm_1_1orc_1_1TMOwningSimpleCompiler.html" target="_top" xlink:title="A SimpleCompiler that owns its TargetMachine.">
<polygon fill="white" stroke="#666666" points="307.88,-30.5 171.12,-30.5 171.12,0 307.88,0 307.88,-30.5"/>
<text xml:space="preserve" text-anchor="start" x="179.12" y="-17" font-family="Helvetica,sans-Serif" font-size="10.00">llvm::orc::TMOwningSimple</text>
<text xml:space="preserve" text-anchor="middle" x="239.5" y="-5.75" font-family="Helvetica,sans-Serif" font-size="10.00">Compiler</text>
</a>
</g>
</g>
<!-- Node3&#45;&gt;Node4 -->
<g id="edge3_Node000003_Node000004" class="edge">
<title>Node3&#45;&gt;Node4</title>
<g id="a_edge3_Node000003_Node000004"><a xlink:title=" ">
<path fill="none" stroke="#63b8ff" d="M239.5,-54.92C239.5,-46.99 239.5,-38.06 239.5,-30.78"/>
<polygon fill="#63b8ff" stroke="#63b8ff" points="236,-54.67 239.5,-64.67 243,-54.67 236,-54.67"/>
</a>
</g>
</g>
</g>
</svg>
