<?xml version="1.0" encoding="UTF-8" standalone="no"?>
<!DOCTYPE svg PUBLIC "-//W3C//DTD SVG 1.1//EN"
 "http://www.w3.org/Graphics/SVG/1.1/DTD/svg11.dtd">
<!-- Generated by graphviz version 13.1.2 (20250808.2320)
 -->
<!-- Title: llvm::MachineConstantPoolValue Pages: 1 -->
<svg width="538pt" height="433pt"
 viewBox="0.00 0.00 538.00 433.00" xmlns="http://www.w3.org/2000/svg" xmlns:xlink="http://www.w3.org/1999/xlink">
<g id="graph0" class="graph" transform="scale(1 1) rotate(0) translate(4 428.88)">
<title>llvm::MachineConstantPoolValue</title>
<!-- Node1 -->
<g id="Node000001" class="node">
<title>Node1</title>
<g id="a_Node000001"><a xlink:title="Abstract base class for all machine specific constantpool value subclasses.">
<polygon fill="#999999" stroke="#666666" points="136,-227.5 0,-227.5 0,-197 136,-197 136,-227.5"/>
<text xml:space="preserve" text-anchor="start" x="8" y="-214" font-family="Helvetica,sans-Serif" font-size="10.00">llvm::MachineConstantPool</text>
<text xml:space="preserve" text-anchor="middle" x="68" y="-202.75" font-family="Helvetica,sans-Serif" font-size="10.00">Value</text>
</a>
</g>
</g>
<!-- Node2 -->
<g id="Node000002" class="node">
<title>Node2</title>
<g id="a_Node000002"><a xlink:href="classllvm_1_1ARMConstantPoolValue.html" target="_top" xlink:title="ARMConstantPoolValue &#45; ARM specific constantpool value.">
<polygon fill="white" stroke="#666666" points="322.25,-368.88 176.5,-368.88 176.5,-349.62 322.25,-349.62 322.25,-368.88"/>
<text xml:space="preserve" text-anchor="middle" x="249.38" y="-355.38" font-family="Helvetica,sans-Serif" font-size="10.00">llvm::ARMConstantPoolValue</text>
</a>
</g>
</g>
<!-- Node1&#45;&gt;Node2 -->
<g id="edge1_Node000001_Node000002" class="edge">
<title>Node1&#45;&gt;Node2</title>
<g id="a_edge1_Node000001_Node000002"><a xlink:title=" ">
<path fill="none" stroke="#63b8ff" d="M96.87,-235.09C136.61,-267.66 207.88,-326.07 236.25,-349.31"/>
<polygon fill="#63b8ff" stroke="#63b8ff" points="99.32,-232.57 89.37,-228.94 94.88,-237.99 99.32,-232.57"/>
</a>
</g>
</g>
<!-- Node6 -->
<g id="Node000006" class="node">
<title>Node6</title>
<g id="a_Node000006"><a xlink:href="classllvm_1_1CSKYConstantPoolValue.html" target="_top" xlink:title="CSKYConstantPoolValue &#45; CSKY specific constantpool value.">
<polygon fill="white" stroke="#666666" points="324.88,-258.88 173.88,-258.88 173.88,-239.62 324.88,-239.62 324.88,-258.88"/>
<text xml:space="preserve" text-anchor="middle" x="249.38" y="-245.38" font-family="Helvetica,sans-Serif" font-size="10.00">llvm::CSKYConstantPoolValue</text>
</a>
</g>
</g>
<!-- Node1&#45;&gt;Node6 -->
<g id="edge5_Node000001_Node000006" class="edge">
<title>Node1&#45;&gt;Node6</title>
<g id="a_edge5_Node000001_Node000006"><a xlink:title=" ">
<path fill="none" stroke="#63b8ff" d="M147.5,-228.44C165.17,-232.09 183.42,-235.85 199.46,-239.16"/>
<polygon fill="#63b8ff" stroke="#63b8ff" points="148.29,-225.03 137.79,-226.44 146.87,-231.89 148.29,-225.03"/>
</a>
</g>
</g>
<!-- Node11 -->
<g id="Node000011" class="node">
<title>Node11</title>
<g id="a_Node000011"><a xlink:href="classllvm_1_1RISCVConstantPoolValue.html" target="_top" xlink:title="A RISCV&#45;specific constant pool value.">
<polygon fill="white" stroke="#666666" points="326.75,-221.88 172,-221.88 172,-202.62 326.75,-202.62 326.75,-221.88"/>
<text xml:space="preserve" text-anchor="middle" x="249.38" y="-208.38" font-family="Helvetica,sans-Serif" font-size="10.00">llvm::RISCVConstantPoolValue</text>
</a>
</g>
</g>
<!-- Node1&#45;&gt;Node11 -->
<g id="edge10_Node000001_Node000011" class="edge">
<title>Node1&#45;&gt;Node11</title>
<g id="a_edge10_Node000001_Node000011"><a xlink:title=" ">
<path fill="none" stroke="#63b8ff" d="M147.8,-212.25C155.72,-212.25 163.75,-212.25 171.65,-212.25"/>
<polygon fill="#63b8ff" stroke="#63b8ff" points="147.82,-208.75 137.82,-212.25 147.82,-215.75 147.82,-208.75"/>
</a>
</g>
</g>
<!-- Node12 -->
<g id="Node000012" class="node">
<title>Node12</title>
<g id="a_Node000012"><a xlink:href="classllvm_1_1SystemZConstantPoolValue.html" target="_top" xlink:title="A SystemZ&#45;specific constant pool value.">
<polygon fill="white" stroke="#666666" points="318.88,-184.5 179.88,-184.5 179.88,-154 318.88,-154 318.88,-184.5"/>
<text xml:space="preserve" text-anchor="start" x="187.88" y="-171" font-family="Helvetica,sans-Serif" font-size="10.00">llvm::SystemZConstantPool</text>
<text xml:space="preserve" text-anchor="middle" x="249.38" y="-159.75" font-family="Helvetica,sans-Serif" font-size="10.00">Value</text>
</a>
</g>
</g>
<!-- Node1&#45;&gt;Node12 -->
<g id="edge11_Node000001_Node000012" class="edge">
<title>Node1&#45;&gt;Node12</title>
<g id="a_edge11_Node000001_Node000012"><a xlink:title=" ">
<path fill="none" stroke="#63b8ff" d="M145.34,-193.95C157.78,-190.97 170.58,-187.9 182.73,-184.99"/>
<polygon fill="#63b8ff" stroke="#63b8ff" points="144.9,-190.46 135.99,-196.19 146.53,-197.26 144.9,-190.46"/>
</a>
</g>
</g>
<!-- Node13 -->
<g id="Node000013" class="node">
<title>Node13</title>
<g id="a_Node000013"><a xlink:href="classllvm_1_1XtensaConstantPoolValue.html" target="_top" xlink:title="XtensaConstantPoolValue &#45; Xtensa specific constantpool value.">
<polygon fill="white" stroke="#666666" points="314.38,-116.5 184.38,-116.5 184.38,-86 314.38,-86 314.38,-116.5"/>
<text xml:space="preserve" text-anchor="start" x="192.38" y="-103" font-family="Helvetica,sans-Serif" font-size="10.00">llvm::XtensaConstantPool</text>
<text xml:space="preserve" text-anchor="middle" x="249.38" y="-91.75" font-family="Helvetica,sans-Serif" font-size="10.00">Value</text>
</a>
</g>
</g>
<!-- Node1&#45;&gt;Node13 -->
<g id="edge12_Node000001_Node000013" class="edge">
<title>Node1&#45;&gt;Node13</title>
<g id="a_edge12_Node000001_Node000013"><a xlink:title=" ">
<path fill="none" stroke="#63b8ff" d="M101.42,-190.52C121.56,-177.18 148.08,-159.9 172,-145.25 187.79,-135.58 205.71,-125.22 220.23,-116.98"/>
<polygon fill="#63b8ff" stroke="#63b8ff" points="99.74,-187.43 93.35,-195.88 103.61,-193.26 99.74,-187.43"/>
</a>
</g>
</g>
<!-- Node3 -->
<g id="Node000003" class="node">
<title>Node3</title>
<g id="a_Node000003"><a xlink:href="classllvm_1_1ARMConstantPoolConstant.html" target="_top" xlink:title="ARMConstantPoolConstant &#45; ARM&#45;specific constant pool values for Constants, Functions,...">
<polygon fill="white" stroke="#666666" points="526.88,-424.88 365.38,-424.88 365.38,-405.62 526.88,-405.62 526.88,-424.88"/>
<text xml:space="preserve" text-anchor="middle" x="446.12" y="-411.38" font-family="Helvetica,sans-Serif" font-size="10.00">llvm::ARMConstantPoolConstant</text>
</a>
</g>
</g>
<!-- Node2&#45;&gt;Node3 -->
<g id="edge2_Node000002_Node000003" class="edge">
<title>Node2&#45;&gt;Node3</title>
<g id="a_edge2_Node000002_Node000003"><a xlink:title=" ">
<path fill="none" stroke="#63b8ff" d="M288.08,-373.17C309.74,-380.87 337.57,-390.26 362.75,-397.25 373.05,-400.11 384.17,-402.8 394.81,-405.19"/>
<polygon fill="#63b8ff" stroke="#63b8ff" points="289.38,-369.92 278.79,-369.83 287.01,-376.5 289.38,-369.92"/>
</a>
</g>
</g>
<!-- Node4 -->
<g id="Node000004" class="node">
<title>Node4</title>
<g id="a_Node000004"><a xlink:href="classllvm_1_1ARMConstantPoolMBB.html" target="_top" xlink:title="ARMConstantPoolMBB &#45; ARM&#45;specific constantpool value of a machine basic block.">
<polygon fill="white" stroke="#666666" points="517.88,-387.88 374.38,-387.88 374.38,-368.62 517.88,-368.62 517.88,-387.88"/>
<text xml:space="preserve" text-anchor="middle" x="446.12" y="-374.38" font-family="Helvetica,sans-Serif" font-size="10.00">llvm::ARMConstantPoolMBB</text>
</a>
</g>
</g>
<!-- Node2&#45;&gt;Node4 -->
<g id="edge3_Node000002_Node000004" class="edge">
<title>Node2&#45;&gt;Node4</title>
<g id="a_edge3_Node000002_Node000004"><a xlink:title=" ">
<path fill="none" stroke="#63b8ff" d="M333.76,-367.38C347.15,-368.69 360.9,-370.03 373.97,-371.31"/>
<polygon fill="#63b8ff" stroke="#63b8ff" points="334.41,-363.93 324.12,-366.44 333.74,-370.9 334.41,-363.93"/>
</a>
</g>
</g>
<!-- Node5 -->
<g id="Node000005" class="node">
<title>Node5</title>
<g id="a_Node000005"><a xlink:href="classllvm_1_1ARMConstantPoolSymbol.html" target="_top" xlink:title="ARMConstantPoolSymbol &#45; ARM&#45;specific constantpool values for external symbols.">
<polygon fill="white" stroke="#666666" points="523.5,-350.88 368.75,-350.88 368.75,-331.62 523.5,-331.62 523.5,-350.88"/>
<text xml:space="preserve" text-anchor="middle" x="446.12" y="-337.38" font-family="Helvetica,sans-Serif" font-size="10.00">llvm::ARMConstantPoolSymbol</text>
</a>
</g>
</g>
<!-- Node2&#45;&gt;Node5 -->
<g id="edge4_Node000002_Node000005" class="edge">
<title>Node2&#45;&gt;Node5</title>
<g id="a_edge4_Node000002_Node000005"><a xlink:title=" ">
<path fill="none" stroke="#63b8ff" d="M333.95,-351.53C345.4,-350.47 357.11,-349.38 368.43,-348.34"/>
<polygon fill="#63b8ff" stroke="#63b8ff" points="333.76,-348.03 324.12,-352.43 334.4,-355 333.76,-348.03"/>
</a>
</g>
</g>
<!-- Node7 -->
<g id="Node000007" class="node">
<title>Node7</title>
<g id="a_Node000007"><a xlink:href="classllvm_1_1CSKYConstantPoolConstant.html" target="_top" xlink:title="CSKY&#45;specific constant pool values for Constants, Functions, and BlockAddresses.">
<polygon fill="white" stroke="#666666" points="529.5,-313.88 362.75,-313.88 362.75,-294.62 529.5,-294.62 529.5,-313.88"/>
<text xml:space="preserve" text-anchor="middle" x="446.12" y="-300.38" font-family="Helvetica,sans-Serif" font-size="10.00">llvm::CSKYConstantPoolConstant</text>
</a>
</g>
</g>
<!-- Node6&#45;&gt;Node7 -->
<g id="edge6_Node000006_Node000007" class="edge">
<title>Node6&#45;&gt;Node7</title>
<g id="a_edge6_Node000006_Node000007"><a xlink:title=" ">
<path fill="none" stroke="#63b8ff" d="M288.99,-263.05C310.53,-270.48 337.95,-279.48 362.75,-286.25 373.2,-289.1 384.49,-291.81 395.26,-294.22"/>
<polygon fill="#63b8ff" stroke="#63b8ff" points="290.33,-259.81 279.73,-259.83 288.03,-266.43 290.33,-259.81"/>
</a>
</g>
</g>
<!-- Node8 -->
<g id="Node000008" class="node">
<title>Node8</title>
<g id="a_Node000008"><a xlink:href="classllvm_1_1CSKYConstantPoolJT.html" target="_top" xlink:title="CSKY&#45;specific constantpool value of a jump table.">
<polygon fill="white" stroke="#666666" points="515.25,-276.88 377,-276.88 377,-257.62 515.25,-257.62 515.25,-276.88"/>
<text xml:space="preserve" text-anchor="middle" x="446.12" y="-263.38" font-family="Helvetica,sans-Serif" font-size="10.00">llvm::CSKYConstantPoolJT</text>
</a>
</g>
</g>
<!-- Node6&#45;&gt;Node8 -->
<g id="edge7_Node000006_Node000008" class="edge">
<title>Node6&#45;&gt;Node8</title>
<g id="a_edge7_Node000006_Node000008"><a xlink:title=" ">
<path fill="none" stroke="#63b8ff" d="M336.35,-257.2C349.84,-258.44 363.63,-259.72 376.65,-260.92"/>
<polygon fill="#63b8ff" stroke="#63b8ff" points="336.9,-253.73 326.62,-256.3 336.26,-260.7 336.9,-253.73"/>
</a>
</g>
</g>
<!-- Node9 -->
<g id="Node000009" class="node">
<title>Node9</title>
<g id="a_Node000009"><a xlink:href="classllvm_1_1CSKYConstantPoolMBB.html" target="_top" xlink:title="CSKYConstantPoolMBB &#45; CSKY&#45;specific constantpool value of a machine basic block.">
<polygon fill="white" stroke="#666666" points="520.5,-239.88 371.75,-239.88 371.75,-220.62 520.5,-220.62 520.5,-239.88"/>
<text xml:space="preserve" text-anchor="middle" x="446.12" y="-226.38" font-family="Helvetica,sans-Serif" font-size="10.00">llvm::CSKYConstantPoolMBB</text>
</a>
</g>
</g>
<!-- Node6&#45;&gt;Node9 -->
<g id="edge8_Node000006_Node000009" class="edge">
<title>Node6&#45;&gt;Node9</title>
<g id="a_edge8_Node000006_Node000009"><a xlink:title=" ">
<path fill="none" stroke="#63b8ff" d="M336.3,-240.87C348.05,-239.72 360.04,-238.55 371.55,-237.43"/>
<polygon fill="#63b8ff" stroke="#63b8ff" points="336.23,-237.36 326.62,-241.81 336.91,-244.32 336.23,-237.36"/>
</a>
</g>
</g>
<!-- Node10 -->
<g id="Node000010" class="node">
<title>Node10</title>
<g id="a_Node000010"><a xlink:href="classllvm_1_1CSKYConstantPoolSymbol.html" target="_top" xlink:title="CSKYConstantPoolSymbol &#45; CSKY&#45;specific constantpool values for external symbols.">
<polygon fill="white" stroke="#666666" points="526.12,-202.88 366.12,-202.88 366.12,-183.62 526.12,-183.62 526.12,-202.88"/>
<text xml:space="preserve" text-anchor="middle" x="446.12" y="-189.38" font-family="Helvetica,sans-Serif" font-size="10.00">llvm::CSKYConstantPoolSymbol</text>
</a>
</g>
</g>
<!-- Node6&#45;&gt;Node10 -->
<g id="edge9_Node000006_Node000010" class="edge">
<title>Node6&#45;&gt;Node10</title>
<g id="a_edge9_Node000006_Node000010"><a xlink:title=" ">
<path fill="none" stroke="#63b8ff" d="M312.97,-236C317.68,-234.55 322.32,-232.96 326.75,-231.25 343.82,-224.64 345.63,-217.72 362.75,-211.25 370.97,-208.15 379.86,-205.51 388.65,-203.29"/>
<polygon fill="#63b8ff" stroke="#63b8ff" points="312.02,-232.63 303.37,-238.74 313.94,-239.36 312.02,-232.63"/>
</a>
</g>
</g>
<!-- Node14 -->
<g id="Node000014" class="node">
<title>Node14</title>
<g id="a_Node000014"><a xlink:href="classllvm_1_1XtensaConstantPoolConstant.html" target="_top" xlink:title="XtensaConstantPoolConstant &#45; Xtensa&#45;specific constant pool values for Constants (for example BlockAdd...">
<polygon fill="white" stroke="#666666" points="511.12,-165.5 381.12,-165.5 381.12,-135 511.12,-135 511.12,-165.5"/>
<text xml:space="preserve" text-anchor="start" x="389.12" y="-152" font-family="Helvetica,sans-Serif" font-size="10.00">llvm::XtensaConstantPool</text>
<text xml:space="preserve" text-anchor="middle" x="446.12" y="-140.75" font-family="Helvetica,sans-Serif" font-size="10.00">Constant</text>
</a>
</g>
</g>
<!-- Node13&#45;&gt;Node14 -->
<g id="edge13_Node000013_Node000014" class="edge">
<title>Node13&#45;&gt;Node14</title>
<g id="a_edge13_Node000013_Node000014"><a xlink:title=" ">
<path fill="none" stroke="#63b8ff" d="M323.74,-119.71C343.16,-124.6 363.94,-129.82 382.72,-134.55"/>
<polygon fill="#63b8ff" stroke="#63b8ff" points="324.82,-116.37 314.27,-117.33 323.11,-123.16 324.82,-116.37"/>
</a>
</g>
</g>
<!-- Node15 -->
<g id="Node000015" class="node">
<title>Node15</title>
<g id="a_Node000015"><a xlink:href="classllvm_1_1XtensaConstantPoolJumpTable.html" target="_top" xlink:title="XtensaConstantPoolJumpTable &#45; Xtensa&#45;specific constantpool values for Jump Table symbols.">
<polygon fill="white" stroke="#666666" points="511.12,-116.5 381.12,-116.5 381.12,-86 511.12,-86 511.12,-116.5"/>
<text xml:space="preserve" text-anchor="start" x="389.12" y="-103" font-family="Helvetica,sans-Serif" font-size="10.00">llvm::XtensaConstantPool</text>
<text xml:space="preserve" text-anchor="middle" x="446.12" y="-91.75" font-family="Helvetica,sans-Serif" font-size="10.00">JumpTable</text>
</a>
</g>
</g>
<!-- Node13&#45;&gt;Node15 -->
<g id="edge14_Node000013_Node000015" class="edge">
<title>Node13&#45;&gt;Node15</title>
<g id="a_edge14_Node000013_Node000015"><a xlink:title=" ">
<path fill="none" stroke="#63b8ff" d="M326.1,-101.25C344.2,-101.25 363.36,-101.25 380.88,-101.25"/>
<polygon fill="#63b8ff" stroke="#63b8ff" points="326.2,-97.75 316.2,-101.25 326.2,-104.75 326.2,-97.75"/>
</a>
</g>
</g>
<!-- Node16 -->
<g id="Node000016" class="node">
<title>Node16</title>
<g id="a_Node000016"><a xlink:href="classllvm_1_1XtensaConstantPoolMBB.html" target="_top" xlink:title="XtensaConstantPoolMBB &#45; Xtensa&#45;specific constantpool value of a machine basic block.">
<polygon fill="white" stroke="#666666" points="522,-67.88 370.25,-67.88 370.25,-48.62 522,-48.62 522,-67.88"/>
<text xml:space="preserve" text-anchor="middle" x="446.12" y="-54.38" font-family="Helvetica,sans-Serif" font-size="10.00">llvm::XtensaConstantPoolMBB</text>
</a>
</g>
</g>
<!-- Node13&#45;&gt;Node16 -->
<g id="edge15_Node000013_Node000016" class="edge">
<title>Node13&#45;&gt;Node16</title>
<g id="a_edge15_Node000013_Node000016"><a xlink:title=" ">
<path fill="none" stroke="#63b8ff" d="M325.91,-84.57C350.7,-79.1 377.48,-73.19 399.37,-68.35"/>
<polygon fill="#63b8ff" stroke="#63b8ff" points="325.17,-81.15 316.16,-86.72 326.68,-87.99 325.17,-81.15"/>
</a>
</g>
</g>
<!-- Node17 -->
<g id="Node000017" class="node">
<title>Node17</title>
<g id="a_Node000017"><a xlink:href="classllvm_1_1XtensaConstantPoolSymbol.html" target="_top" xlink:title="XtensaConstantPoolSymbol &#45; Xtensa&#45;specific constantpool values for external symbols.">
<polygon fill="white" stroke="#666666" points="511.12,-30.5 381.12,-30.5 381.12,0 511.12,0 511.12,-30.5"/>
<text xml:space="preserve" text-anchor="start" x="389.12" y="-17" font-family="Helvetica,sans-Serif" font-size="10.00">llvm::XtensaConstantPool</text>
<text xml:space="preserve" text-anchor="middle" x="446.12" y="-5.75" font-family="Helvetica,sans-Serif" font-size="10.00">Symbol</text>
</a>
</g>
</g>
<!-- Node13&#45;&gt;Node17 -->
<g id="edge16_Node000013_Node000017" class="edge">
<title>Node13&#45;&gt;Node17</title>
<g id="a_edge16_Node000013_Node000017"><a xlink:title=" ">
<path fill="none" stroke="#63b8ff" d="M284.77,-79.67C306.53,-66.69 335.57,-50.54 362.75,-39.25 370.04,-36.22 377.84,-33.42 385.63,-30.88"/>
<polygon fill="#63b8ff" stroke="#63b8ff" points="283.06,-76.62 276.32,-84.79 286.68,-82.6 283.06,-76.62"/>
</a>
</g>
</g>
</g>
</svg>
