<?xml version="1.0" encoding="UTF-8" standalone="no"?>
<!DOCTYPE svg PUBLIC "-//W3C//DTD SVG 1.1//EN"
 "http://www.w3.org/Graphics/SVG/1.1/DTD/svg11.dtd">
<!-- Generated by graphviz version 13.1.2 (20250808.2320)
 -->
<!-- Title: llvm::jitlink::JITLinkMemoryManager Pages: 1 -->
<svg width="327pt" height="137pt"
 viewBox="0.00 0.00 327.00 137.00" xmlns="http://www.w3.org/2000/svg" xmlns:xlink="http://www.w3.org/1999/xlink">
<g id="graph0" class="graph" transform="scale(1 1) rotate(0) translate(4 132.5)">
<title>llvm::jitlink::JITLinkMemoryManager</title>
<!-- Node1 -->
<g id="Node000001" class="node">
<title>Node1</title>
<g id="a_Node000001"><a xlink:title="Manages allocations of JIT memory.">
<polygon fill="#999999" stroke="#666666" points="136,-79.5 0,-79.5 0,-49 136,-49 136,-79.5"/>
<text xml:space="preserve" text-anchor="start" x="8" y="-66" font-family="Helvetica,sans-Serif" font-size="10.00">llvm::jitlink::JITLinkMemory</text>
<text xml:space="preserve" text-anchor="middle" x="68" y="-54.75" font-family="Helvetica,sans-Serif" font-size="10.00">Manager</text>
</a>
</g>
</g>
<!-- Node2 -->
<g id="Node000002" class="node">
<title>Node2</title>
<g id="a_Node000002"><a xlink:href="classllvm_1_1jitlink_1_1InProcessMemoryManager.html" target="_top" xlink:title="A JITLinkMemoryManager that allocates in&#45;process memory.">
<polygon fill="white" stroke="#666666" points="301.62,-128.5 188.88,-128.5 188.88,-98 301.62,-98 301.62,-128.5"/>
<text xml:space="preserve" text-anchor="start" x="196.88" y="-115" font-family="Helvetica,sans-Serif" font-size="10.00">llvm::jitlink::InProcess</text>
<text xml:space="preserve" text-anchor="middle" x="245.25" y="-103.75" font-family="Helvetica,sans-Serif" font-size="10.00">MemoryManager</text>
</a>
</g>
</g>
<!-- Node1&#45;&gt;Node2 -->
<g id="edge1_Node000001_Node000002" class="edge">
<title>Node1&#45;&gt;Node2</title>
<g id="a_edge1_Node000001_Node000002"><a xlink:title=" ">
<path fill="none" stroke="#63b8ff" d="M135.62,-82.88C153.08,-87.76 171.73,-92.97 188.55,-97.68"/>
<polygon fill="#63b8ff" stroke="#63b8ff" points="136.96,-79.62 126.39,-80.3 135.08,-86.36 136.96,-79.62"/>
</a>
</g>
</g>
<!-- Node3 -->
<g id="Node000003" class="node">
<title>Node3</title>
<g id="a_Node000003"><a xlink:href="classllvm_1_1orc_1_1EPCGenericJITLinkMemoryManager.html" target="_top" xlink:title=" ">
<polygon fill="white" stroke="#666666" points="318.5,-79.5 172,-79.5 172,-49 318.5,-49 318.5,-79.5"/>
<text xml:space="preserve" text-anchor="start" x="180" y="-66" font-family="Helvetica,sans-Serif" font-size="10.00">llvm::orc::EPCGenericJITLink</text>
<text xml:space="preserve" text-anchor="middle" x="245.25" y="-54.75" font-family="Helvetica,sans-Serif" font-size="10.00">MemoryManager</text>
</a>
</g>
</g>
<!-- Node1&#45;&gt;Node3 -->
<g id="edge2_Node000001_Node000003" class="edge">
<title>Node1&#45;&gt;Node3</title>
<g id="a_edge2_Node000001_Node000003"><a xlink:title=" ">
<path fill="none" stroke="#63b8ff" d="M147.51,-64.25C155.54,-64.25 163.68,-64.25 171.64,-64.25"/>
<polygon fill="#63b8ff" stroke="#63b8ff" points="147.77,-60.75 137.77,-64.25 147.77,-67.75 147.77,-60.75"/>
</a>
</g>
</g>
<!-- Node4 -->
<g id="Node000004" class="node">
<title>Node4</title>
<g id="a_Node000004"><a xlink:href="classllvm_1_1orc_1_1MapperJITLinkMemoryManager.html" target="_top" xlink:title=" ">
<polygon fill="white" stroke="#666666" points="307.25,-30.5 183.25,-30.5 183.25,0 307.25,0 307.25,-30.5"/>
<text xml:space="preserve" text-anchor="start" x="191.25" y="-17" font-family="Helvetica,sans-Serif" font-size="10.00">llvm::orc::MapperJITLink</text>
<text xml:space="preserve" text-anchor="middle" x="245.25" y="-5.75" font-family="Helvetica,sans-Serif" font-size="10.00">MemoryManager</text>
</a>
</g>
</g>
<!-- Node1&#45;&gt;Node4 -->
<g id="edge3_Node000001_Node000004" class="edge">
<title>Node1&#45;&gt;Node4</title>
<g id="a_edge3_Node000001_Node000004"><a xlink:title=" ">
<path fill="none" stroke="#63b8ff" d="M136.01,-45.52C153.15,-40.72 171.41,-35.62 187.95,-30.99"/>
<polygon fill="#63b8ff" stroke="#63b8ff" points="135.08,-42.14 126.39,-48.2 136.96,-48.88 135.08,-42.14"/>
</a>
</g>
</g>
</g>
</svg>
