<?xml version="1.0" encoding="UTF-8" standalone="no"?>
<!DOCTYPE svg PUBLIC "-//W3C//DTD SVG 1.1//EN"
 "http://www.w3.org/Graphics/SVG/1.1/DTD/svg11.dtd">
<!-- Generated by graphviz version 13.1.2 (20250808.2320)
 -->
<!-- Title: llvm::MCUnwindV2EpilogTargetExpr Pages: 1 -->
<svg width="183pt" height="138pt"
 viewBox="0.00 0.00 183.00 138.00" xmlns="http://www.w3.org/2000/svg" xmlns:xlink="http://www.w3.org/1999/xlink">
<g id="graph0" class="graph" transform="scale(1 1) rotate(0) translate(4 133.75)">
<title>llvm::MCUnwindV2EpilogTargetExpr</title>
<!-- Node1 -->
<g id="Node000001" class="node">
<title>Node1</title>
<g id="a_Node000001"><a xlink:title="MCExpr that represents the epilog unwind code in an unwind table.">
<polygon fill="#999999" stroke="#666666" points="175,-19.25 0,-19.25 0,0 175,0 175,-19.25"/>
<text xml:space="preserve" text-anchor="middle" x="87.5" y="-5.75" font-family="Helvetica,sans-Serif" font-size="10.00">llvm::MCUnwindV2EpilogTargetExpr</text>
</a>
</g>
</g>
<!-- Node2 -->
<g id="Node000002" class="node">
<title>Node2</title>
<g id="a_Node000002"><a xlink:href="classllvm_1_1MCTargetExpr.html" target="_top" xlink:title="Extension point for target&#45;specific MCExpr subclasses to implement.">
<polygon fill="white" stroke="#666666" points="139,-74.5 36,-74.5 36,-55.25 139,-55.25 139,-74.5"/>
<text xml:space="preserve" text-anchor="middle" x="87.5" y="-61" font-family="Helvetica,sans-Serif" font-size="10.00">llvm::MCTargetExpr</text>
</a>
</g>
</g>
<!-- Node2&#45;&gt;Node1 -->
<g id="edge1_Node000001_Node000002" class="edge">
<title>Node2&#45;&gt;Node1</title>
<g id="a_edge1_Node000001_Node000002"><a xlink:title=" ">
<path fill="none" stroke="#63b8ff" d="M87.5,-43.63C87.5,-35.34 87.5,-26.17 87.5,-19.61"/>
<polygon fill="#63b8ff" stroke="#63b8ff" points="84,-43.57 87.5,-53.57 91,-43.57 84,-43.57"/>
</a>
</g>
</g>
<!-- Node3 -->
<g id="Node000003" class="node">
<title>Node3</title>
<g id="a_Node000003"><a xlink:href="classllvm_1_1MCExpr.html" target="_top" xlink:title="Base class for the full range of assembler expressions which are needed for parsing.">
<polygon fill="white" stroke="#666666" points="125.5,-129.75 49.5,-129.75 49.5,-110.5 125.5,-110.5 125.5,-129.75"/>
<text xml:space="preserve" text-anchor="middle" x="87.5" y="-116.25" font-family="Helvetica,sans-Serif" font-size="10.00">llvm::MCExpr</text>
</a>
</g>
</g>
<!-- Node3&#45;&gt;Node2 -->
<g id="edge2_Node000002_Node000003" class="edge">
<title>Node3&#45;&gt;Node2</title>
<g id="a_edge2_Node000002_Node000003"><a xlink:title=" ">
<path fill="none" stroke="#63b8ff" d="M87.5,-98.88C87.5,-90.59 87.5,-81.42 87.5,-74.86"/>
<polygon fill="#63b8ff" stroke="#63b8ff" points="84,-98.82 87.5,-108.82 91,-98.82 84,-98.82"/>
</a>
</g>
</g>
</g>
</svg>
