<?xml version="1.0" encoding="UTF-8" standalone="no"?>
<!DOCTYPE svg PUBLIC "-//W3C//DTD SVG 1.1//EN"
 "http://www.w3.org/Graphics/SVG/1.1/DTD/svg11.dtd">
<!-- Generated by graphviz version 13.1.2 (20250808.2320)
 -->
<!-- Title: llvm::TargetLoweringObjectFileMachO Pages: 1 -->
<svg width="338pt" height="216pt"
 viewBox="0.00 0.00 338.00 216.00" xmlns="http://www.w3.org/2000/svg" xmlns:xlink="http://www.w3.org/1999/xlink">
<g id="graph0" class="graph" transform="scale(1 1) rotate(0) translate(4 211.5)">
<title>llvm::TargetLoweringObjectFileMachO</title>
<!-- Node1 -->
<g id="Node000001" class="node">
<title>Node1</title>
<g id="a_Node000001"><a xlink:title=" ">
<polygon fill="#999999" stroke="#666666" points="223.75,-97 89.25,-97 89.25,-66.5 223.75,-66.5 223.75,-97"/>
<text xml:space="preserve" text-anchor="start" x="97.25" y="-83.5" font-family="Helvetica,sans-Serif" font-size="10.00">llvm::TargetLoweringObject</text>
<text xml:space="preserve" text-anchor="middle" x="156.5" y="-72.25" font-family="Helvetica,sans-Serif" font-size="10.00">FileMachO</text>
</a>
</g>
</g>
<!-- Node4 -->
<g id="Node000004" class="node">
<title>Node4</title>
<g id="a_Node000004"><a xlink:href="classllvm_1_1AArch64__MachoTargetObjectFile.html" target="_top" xlink:title="AArch64_MachoTargetObjectFile &#45; This TLOF implementation is used for Darwin.">
<polygon fill="white" stroke="#666666" points="139,-30.5 0,-30.5 0,0 139,0 139,-30.5"/>
<text xml:space="preserve" text-anchor="start" x="8" y="-17" font-family="Helvetica,sans-Serif" font-size="10.00">llvm::AArch64_MachoTarget</text>
<text xml:space="preserve" text-anchor="middle" x="69.5" y="-5.75" font-family="Helvetica,sans-Serif" font-size="10.00">ObjectFile</text>
</a>
</g>
</g>
<!-- Node1&#45;&gt;Node4 -->
<g id="edge3_Node000001_Node000004" class="edge">
<title>Node1&#45;&gt;Node4</title>
<g id="a_edge3_Node000001_Node000004"><a xlink:title=" ">
<path fill="none" stroke="#63b8ff" d="M127.56,-59.29C114.95,-49.94 100.5,-39.23 89.16,-30.83"/>
<polygon fill="#63b8ff" stroke="#63b8ff" points="125.42,-62.07 135.54,-65.21 129.59,-56.45 125.42,-62.07"/>
</a>
</g>
</g>
<!-- Node5 -->
<g id="Node000005" class="node">
<title>Node5</title>
<g id="a_Node000005"><a xlink:href="classllvm_1_1X86__64MachoTargetObjectFile.html" target="_top" xlink:title="X86_64MachoTargetObjectFile &#45; This TLOF implementation is used for Darwin x86&#45;64.">
<polygon fill="white" stroke="#666666" points="330.25,-24.88 156.75,-24.88 156.75,-5.63 330.25,-5.63 330.25,-24.88"/>
<text xml:space="preserve" text-anchor="middle" x="243.5" y="-11.38" font-family="Helvetica,sans-Serif" font-size="10.00">llvm::X86_64MachoTargetObjectFile</text>
</a>
</g>
</g>
<!-- Node1&#45;&gt;Node5 -->
<g id="edge4_Node000001_Node000005" class="edge">
<title>Node1&#45;&gt;Node5</title>
<g id="a_edge4_Node000001_Node000005"><a xlink:title=" ">
<path fill="none" stroke="#63b8ff" d="M185.12,-59.53C200.92,-47.82 219.69,-33.9 231.6,-25.07"/>
<polygon fill="#63b8ff" stroke="#63b8ff" points="183.41,-56.45 177.46,-65.21 187.58,-62.07 183.41,-56.45"/>
</a>
</g>
</g>
<!-- Node2 -->
<g id="Node000002" class="node">
<title>Node2</title>
<g id="a_Node000002"><a xlink:href="classllvm_1_1TargetLoweringObjectFile.html" target="_top" xlink:title=" ">
<polygon fill="white" stroke="#666666" points="231.62,-152.25 81.38,-152.25 81.38,-133 231.62,-133 231.62,-152.25"/>
<text xml:space="preserve" text-anchor="middle" x="156.5" y="-138.75" font-family="Helvetica,sans-Serif" font-size="10.00">llvm::TargetLoweringObjectFile</text>
</a>
</g>
</g>
<!-- Node2&#45;&gt;Node1 -->
<g id="edge1_Node000001_Node000002" class="edge">
<title>Node2&#45;&gt;Node1</title>
<g id="a_edge1_Node000001_Node000002"><a xlink:title=" ">
<path fill="none" stroke="#63b8ff" d="M156.5,-121.42C156.5,-113.49 156.5,-104.56 156.5,-97.28"/>
<polygon fill="#63b8ff" stroke="#63b8ff" points="153,-121.17 156.5,-131.17 160,-121.17 153,-121.17"/>
</a>
</g>
</g>
<!-- Node3 -->
<g id="Node000003" class="node">
<title>Node3</title>
<g id="a_Node000003"><a xlink:href="classllvm_1_1MCObjectFileInfo.html" target="_top" xlink:title=" ">
<polygon fill="white" stroke="#666666" points="214.75,-207.5 98.25,-207.5 98.25,-188.25 214.75,-188.25 214.75,-207.5"/>
<text xml:space="preserve" text-anchor="middle" x="156.5" y="-194" font-family="Helvetica,sans-Serif" font-size="10.00">llvm::MCObjectFileInfo</text>
</a>
</g>
</g>
<!-- Node3&#45;&gt;Node2 -->
<g id="edge2_Node000002_Node000003" class="edge">
<title>Node3&#45;&gt;Node2</title>
<g id="a_edge2_Node000002_Node000003"><a xlink:title=" ">
<path fill="none" stroke="#63b8ff" d="M156.5,-176.63C156.5,-168.34 156.5,-159.17 156.5,-152.61"/>
<polygon fill="#63b8ff" stroke="#63b8ff" points="153,-176.57 156.5,-186.57 160,-176.57 153,-176.57"/>
</a>
</g>
</g>
</g>
</svg>
