<?xml version="1.0" encoding="UTF-8" standalone="no"?>
<!DOCTYPE svg PUBLIC "-//W3C//DTD SVG 1.1//EN"
 "http://www.w3.org/Graphics/SVG/1.1/DTD/svg11.dtd">
<!-- Generated by graphviz version 13.1.2 (20250808.2320)
 -->
<!-- Title: llvm::GlobalVariable Pages: 1 -->
<svg width="2232pt" height="552pt"
 viewBox="0.00 0.00 2232.00 552.00" xmlns="http://www.w3.org/2000/svg" xmlns:xlink="http://www.w3.org/1999/xlink">
<g id="graph0" class="graph" transform="scale(1 1) rotate(0) translate(4 547.62)">
<title>llvm::GlobalVariable</title>
<!-- Node1 -->
<g id="Node000001" class="node">
<title>Node1</title>
<g id="a_Node000001"><a xlink:title=" ">
<polygon fill="#999999" stroke="#666666" points="2224.25,-299.62 2122,-299.62 2122,-280.38 2224.25,-280.38 2224.25,-299.62"/>
<text xml:space="preserve" text-anchor="middle" x="2173.12" y="-286.12" font-family="Helvetica,sans-Serif" font-size="10.00">llvm::GlobalVariable</text>
</a>
</g>
</g>
<!-- Node2 -->
<g id="Node000002" class="node">
<title>Node2</title>
<g id="a_Node000002"><a xlink:href="classllvm_1_1GlobalObject.html" target="_top" xlink:title=" ">
<polygon fill="white" stroke="#666666" points="2074.12,-321.62 1977.88,-321.62 1977.88,-302.38 2074.12,-302.38 2074.12,-321.62"/>
<text xml:space="preserve" text-anchor="middle" x="2026" y="-308.12" font-family="Helvetica,sans-Serif" font-size="10.00">llvm::GlobalObject</text>
</a>
</g>
</g>
<!-- Node2&#45;&gt;Node1 -->
<g id="edge1_Node000001_Node000002" class="edge">
<title>Node2&#45;&gt;Node1</title>
<g id="a_edge1_Node000001_Node000002"><a xlink:title=" ">
<path fill="none" stroke="#63b8ff" d="M2085.7,-303.1C2097.56,-301.3 2109.94,-299.43 2121.5,-297.67"/>
<polygon fill="#63b8ff" stroke="#63b8ff" points="2085.38,-299.61 2076.02,-304.57 2086.43,-306.53 2085.38,-299.61"/>
</a>
</g>
</g>
<!-- Node3 -->
<g id="Node000003" class="node">
<title>Node3</title>
<g id="a_Node000003"><a xlink:href="classllvm_1_1GlobalValue.html" target="_top" xlink:title=" ">
<polygon fill="white" stroke="#666666" points="1841.75,-326.62 1750,-326.62 1750,-307.38 1841.75,-307.38 1841.75,-326.62"/>
<text xml:space="preserve" text-anchor="middle" x="1795.88" y="-313.12" font-family="Helvetica,sans-Serif" font-size="10.00">llvm::GlobalValue</text>
</a>
</g>
</g>
<!-- Node3&#45;&gt;Node2 -->
<g id="edge2_Node000002_Node000003" class="edge">
<title>Node3&#45;&gt;Node2</title>
<g id="a_edge2_Node000002_Node000003"><a xlink:title=" ">
<path fill="none" stroke="#63b8ff" d="M1853.64,-315.76C1891.74,-314.92 1941.35,-313.83 1977.39,-313.04"/>
<polygon fill="#63b8ff" stroke="#63b8ff" points="1853.65,-312.25 1843.73,-315.97 1853.81,-319.25 1853.65,-312.25"/>
</a>
</g>
</g>
<!-- Node4 -->
<g id="Node000004" class="node">
<title>Node4</title>
<g id="a_Node000004"><a xlink:href="classllvm_1_1Constant.html" target="_top" xlink:title="This is an important base class in LLVM.">
<polygon fill="white" stroke="#666666" points="1673.25,-398.62 1593.5,-398.62 1593.5,-379.38 1673.25,-379.38 1673.25,-398.62"/>
<text xml:space="preserve" text-anchor="middle" x="1633.38" y="-385.12" font-family="Helvetica,sans-Serif" font-size="10.00">llvm::Constant</text>
</a>
</g>
</g>
<!-- Node4&#45;&gt;Node3 -->
<g id="edge3_Node000003_Node000004" class="edge">
<title>Node4&#45;&gt;Node3</title>
<g id="a_edge3_Node000003_Node000004"><a xlink:title=" ">
<path fill="none" stroke="#63b8ff" d="M1667.11,-374.31C1698.52,-360.22 1745.1,-339.33 1772.49,-327.04"/>
<polygon fill="#63b8ff" stroke="#63b8ff" points="1665.76,-371.08 1658.07,-378.37 1668.63,-377.47 1665.76,-371.08"/>
</a>
</g>
</g>
<!-- Node5 -->
<g id="Node000005" class="node">
<title>Node5</title>
<g id="a_Node000005"><a xlink:href="classllvm_1_1User.html" target="_top" xlink:title=" ">
<polygon fill="white" stroke="#666666" points="1325.38,-499.62 1264.38,-499.62 1264.38,-480.38 1325.38,-480.38 1325.38,-499.62"/>
<text xml:space="preserve" text-anchor="middle" x="1294.88" y="-486.12" font-family="Helvetica,sans-Serif" font-size="10.00">llvm::User</text>
</a>
</g>
</g>
<!-- Node5&#45;&gt;Node4 -->
<g id="edge4_Node000004_Node000005" class="edge">
<title>Node5&#45;&gt;Node4</title>
<g id="a_edge4_Node000004_Node000005"><a xlink:title=" ">
<path fill="none" stroke="#63b8ff" d="M1336.73,-477.74C1403.99,-457.55 1536.77,-417.7 1598.87,-399.06"/>
<polygon fill="#63b8ff" stroke="#63b8ff" points="1335.76,-474.37 1327.19,-480.6 1337.77,-481.08 1335.76,-474.37"/>
</a>
</g>
</g>
<!-- Node6 -->
<g id="Node000006" class="node">
<title>Node6</title>
<g id="a_Node000006"><a xlink:href="classllvm_1_1Value.html" target="_top" xlink:title="LLVM Value Representation.">
<polygon fill="white" stroke="#666666" points="921,-543.62 857,-543.62 857,-524.38 921,-524.38 921,-543.62"/>
<text xml:space="preserve" text-anchor="middle" x="889" y="-530.12" font-family="Helvetica,sans-Serif" font-size="10.00">llvm::Value</text>
</a>
</g>
</g>
<!-- Node6&#45;&gt;Node5 -->
<g id="edge5_Node000005_Node000006" class="edge">
<title>Node6&#45;&gt;Node5</title>
<g id="a_edge5_Node000005_Node000006"><a xlink:title=" ">
<path fill="none" stroke="#63b8ff" d="M932.42,-535.61C992.53,-537.1 1105.72,-536.97 1200.25,-520 1224.11,-515.72 1250.3,-506.96 1268.9,-500"/>
<polygon fill="#63b8ff" stroke="#63b8ff" points="932.73,-532.12 922.64,-535.34 932.54,-539.12 932.73,-532.12"/>
</a>
</g>
</g>
<!-- Node7 -->
<g id="Node000007" class="node">
<title>Node7</title>
<g id="a_Node000007"><a xlink:href="classllvm_1_1ilist__node.html" target="_top" xlink:title=" ">
<polygon fill="white" stroke="#666666" points="2085,-284.25 1967,-284.25 1967,-253.75 2085,-253.75 2085,-284.25"/>
<text xml:space="preserve" text-anchor="start" x="1975" y="-270.75" font-family="Helvetica,sans-Serif" font-size="10.00">llvm::ilist_node&lt; Global</text>
<text xml:space="preserve" text-anchor="middle" x="2026" y="-259.5" font-family="Helvetica,sans-Serif" font-size="10.00">Variable &gt;</text>
</a>
</g>
</g>
<!-- Node7&#45;&gt;Node1 -->
<g id="edge6_Node000001_Node000007" class="edge">
<title>Node7&#45;&gt;Node1</title>
<g id="a_edge6_Node000001_Node000007"><a xlink:title=" ">
<path fill="none" stroke="#63b8ff" d="M2096.41,-279.04C2105,-280.29 2113.64,-281.54 2121.87,-282.73"/>
<polygon fill="#63b8ff" stroke="#63b8ff" points="2097.09,-275.61 2086.69,-277.64 2096.09,-282.53 2097.09,-275.61"/>
</a>
</g>
</g>
<!-- Node8 -->
<g id="Node000008" class="node">
<title>Node8</title>
<g id="a_Node000008"><a xlink:href="classllvm_1_1ilist__node__impl.html" target="_top" xlink:title=" ">
<polygon fill="white" stroke="#666666" points="1710,-224.5 1556.75,-224.5 1556.75,-171.5 1710,-171.5 1710,-224.5"/>
<text xml:space="preserve" text-anchor="start" x="1564.75" y="-211" font-family="Helvetica,sans-Serif" font-size="10.00">llvm::ilist_node_impl</text>
<text xml:space="preserve" text-anchor="start" x="1564.75" y="-199.75" font-family="Helvetica,sans-Serif" font-size="10.00">&lt; ilist_detail::compute</text>
<text xml:space="preserve" text-anchor="start" x="1564.75" y="-188.5" font-family="Helvetica,sans-Serif" font-size="10.00">_node_options&lt; GlobalVariable,</text>
<text xml:space="preserve" text-anchor="middle" x="1633.38" y="-177.25" font-family="Helvetica,sans-Serif" font-size="10.00"> Options... &gt;::type &gt;</text>
</a>
</g>
</g>
<!-- Node8&#45;&gt;Node7 -->
<g id="edge7_Node000007_Node000008" class="edge">
<title>Node8&#45;&gt;Node7</title>
<g id="a_edge7_Node000007_Node000008"><a xlink:title=" ">
<path fill="none" stroke="#63b8ff" d="M1721.4,-213.82C1796.09,-227.39 1901.67,-246.58 1966.61,-258.39"/>
<polygon fill="#63b8ff" stroke="#63b8ff" points="1722.11,-210.39 1711.64,-212.04 1720.86,-217.28 1722.11,-210.39"/>
</a>
</g>
</g>
<!-- Node9 -->
<g id="Node000009" class="node">
<title>Node9</title>
<g id="a_Node000009"><a xlink:href="classllvm_1_1ilist__node__base.html" target="_top" xlink:title=" ">
<polygon fill="white" stroke="#666666" points="1371.5,-358.5 1218.25,-358.5 1218.25,-305.5 1371.5,-305.5 1371.5,-358.5"/>
<text xml:space="preserve" text-anchor="start" x="1226.25" y="-345" font-family="Helvetica,sans-Serif" font-size="10.00">ilist_detail::compute</text>
<text xml:space="preserve" text-anchor="start" x="1226.25" y="-333.75" font-family="Helvetica,sans-Serif" font-size="10.00">_node_options&lt; GlobalVariable,</text>
<text xml:space="preserve" text-anchor="start" x="1226.25" y="-322.5" font-family="Helvetica,sans-Serif" font-size="10.00"> Options... &gt;::type::node</text>
<text xml:space="preserve" text-anchor="middle" x="1294.88" y="-311.25" font-family="Helvetica,sans-Serif" font-size="10.00">_base_type</text>
</a>
</g>
</g>
<!-- Node9&#45;&gt;Node8 -->
<g id="edge8_Node000008_Node000009" class="edge">
<title>Node9&#45;&gt;Node8</title>
<g id="a_edge8_Node000008_Node000009"><a xlink:title=" ">
<path fill="none" stroke="#8b1a1a" d="M1383.26,-335.34C1443.24,-335.71 1515.97,-331.76 1538.75,-312 1565.95,-288.41 1534.09,-260.99 1556.75,-233 1559.12,-230.08 1561.78,-227.39 1564.66,-224.91"/>
<polygon fill="#8b1a1a" stroke="#8b1a1a" points="1383.39,-331.84 1373.35,-335.23 1383.31,-338.84 1383.39,-331.84"/>
</a>
</g>
</g>
<!-- Node10 -->
<g id="Node000010" class="node">
<title>Node10</title>
<g id="a_Node000010"><a xlink:href="classllvm_1_1ilist__detail_1_1node__base__prevnext.html" target="_top" xlink:title=" ">
<polygon fill="white" stroke="#666666" points="983.25,-418.88 794.75,-418.88 794.75,-377.12 983.25,-377.12 983.25,-418.88"/>
<text xml:space="preserve" text-anchor="start" x="802.75" y="-405.38" font-family="Helvetica,sans-Serif" font-size="10.00">llvm::ilist_detail</text>
<text xml:space="preserve" text-anchor="start" x="802.75" y="-394.12" font-family="Helvetica,sans-Serif" font-size="10.00">::node_base_prevnext</text>
<text xml:space="preserve" text-anchor="middle" x="889" y="-382.88" font-family="Helvetica,sans-Serif" font-size="10.00">&lt; NodeBase, EnableSentinelTracking &gt;</text>
</a>
</g>
</g>
<!-- Node10&#45;&gt;Node9 -->
<g id="edge9_Node000009_Node000010" class="edge">
<title>Node10&#45;&gt;Node9</title>
<g id="a_edge9_Node000009_Node000010"><a xlink:title=" ">
<path fill="none" stroke="#63b8ff" d="M994.47,-382.11C1054.69,-372.8 1131.8,-360.62 1200.25,-349 1205.95,-348.03 1211.84,-347.01 1217.77,-345.97"/>
<polygon fill="#63b8ff" stroke="#63b8ff" points="994.27,-378.6 984.92,-383.59 995.34,-385.52 994.27,-378.6"/>
</a>
</g>
</g>
<!-- Node23 -->
<g id="Node000023" class="node">
<title>Node23</title>
<g id="a_Node000023"><a xlink:href="classllvm_1_1ilist__node__base.html" target="_top" xlink:title=" ">
<polygon fill="white" stroke="#666666" points="1365.5,-417.88 1224.25,-417.88 1224.25,-376.12 1365.5,-376.12 1365.5,-417.88"/>
<text xml:space="preserve" text-anchor="start" x="1232.25" y="-404.38" font-family="Helvetica,sans-Serif" font-size="10.00">ilist_detail::compute</text>
<text xml:space="preserve" text-anchor="start" x="1232.25" y="-393.12" font-family="Helvetica,sans-Serif" font-size="10.00">_node_options&lt; T, Options...</text>
<text xml:space="preserve" text-anchor="middle" x="1294.88" y="-381.88" font-family="Helvetica,sans-Serif" font-size="10.00"> &gt;::type::node_base_type</text>
</a>
</g>
</g>
<!-- Node10&#45;&gt;Node23 -->
<g id="edge24_Node000023_Node000010" class="edge">
<title>Node10&#45;&gt;Node23</title>
<g id="a_edge24_Node000023_Node000010"><a xlink:title=" ">
<path fill="none" stroke="#63b8ff" d="M995.06,-397.74C1067.19,-397.56 1160.95,-397.33 1224.04,-397.17"/>
<polygon fill="#63b8ff" stroke="#63b8ff" points="995.18,-394.24 985.19,-397.76 995.19,-401.24 995.18,-394.24"/>
</a>
</g>
</g>
<!-- Node11 -->
<g id="Node000011" class="node">
<title>Node11</title>
<g id="a_Node000011"><a xlink:href="classllvm_1_1ilist__detail_1_1node__base__parent.html" target="_top" xlink:title=" ">
<polygon fill="white" stroke="#666666" points="942.75,-358.88 835.25,-358.88 835.25,-317.12 942.75,-317.12 942.75,-358.88"/>
<text xml:space="preserve" text-anchor="start" x="843.25" y="-345.38" font-family="Helvetica,sans-Serif" font-size="10.00">llvm::ilist_detail</text>
<text xml:space="preserve" text-anchor="start" x="843.25" y="-334.12" font-family="Helvetica,sans-Serif" font-size="10.00">::node_base_parent&lt;</text>
<text xml:space="preserve" text-anchor="middle" x="889" y="-322.88" font-family="Helvetica,sans-Serif" font-size="10.00"> ParentTy &gt;</text>
</a>
</g>
</g>
<!-- Node11&#45;&gt;Node9 -->
<g id="edge10_Node000009_Node000011" class="edge">
<title>Node11&#45;&gt;Node9</title>
<g id="a_edge10_Node000009_Node000011"><a xlink:title=" ">
<path fill="none" stroke="#63b8ff" d="M954.65,-336.79C969.93,-336.52 986.17,-336.24 1001.25,-336 1074.78,-334.84 1158.72,-333.71 1217.78,-332.95"/>
<polygon fill="#63b8ff" stroke="#63b8ff" points="954.64,-333.29 944.7,-336.97 954.77,-340.29 954.64,-333.29"/>
</a>
</g>
</g>
<!-- Node11&#45;&gt;Node23 -->
<g id="edge25_Node000023_Node000011" class="edge">
<title>Node11&#45;&gt;Node23</title>
<g id="a_edge25_Node000023_Node000011"><a xlink:title=" ">
<path fill="none" stroke="#63b8ff" d="M954.17,-347.37C1027.75,-358.12 1147.99,-375.69 1223.92,-386.78"/>
<polygon fill="#63b8ff" stroke="#63b8ff" points="955.11,-343.98 944.71,-345.99 954.1,-350.9 955.11,-343.98"/>
</a>
</g>
</g>
<!-- Node12 -->
<g id="Node000012" class="node">
<title>Node12</title>
<g id="a_Node000012"><a xlink:href="classllvm_1_1ilist__node__base.html" target="_top" xlink:title="Base class for ilist nodes.">
<polygon fill="white" stroke="#666666" points="954.38,-493.88 823.62,-493.88 823.62,-452.12 954.38,-452.12 954.38,-493.88"/>
<text xml:space="preserve" text-anchor="start" x="831.62" y="-480.38" font-family="Helvetica,sans-Serif" font-size="10.00">llvm::ilist_node_base</text>
<text xml:space="preserve" text-anchor="start" x="831.62" y="-469.12" font-family="Helvetica,sans-Serif" font-size="10.00">&lt; EnableSentinelTracking,</text>
<text xml:space="preserve" text-anchor="middle" x="889" y="-457.88" font-family="Helvetica,sans-Serif" font-size="10.00"> ParentTy &gt;</text>
</a>
</g>
</g>
<!-- Node12&#45;&gt;Node9 -->
<g id="edge11_Node000009_Node000012" class="edge">
<title>Node12&#45;&gt;Node9</title>
<g id="a_edge11_Node000009_Node000012"><a xlink:title=" ">
<path fill="none" stroke="orange" stroke-dasharray="5,2" d="M948.19,-447.35C965.11,-440.4 983.76,-433.22 1001.25,-427.5 1087.88,-399.18 1116.17,-413.17 1200.25,-378 1208.9,-374.38 1209.98,-371.42 1218.25,-367 1223.35,-364.27 1228.71,-361.54 1234.11,-358.88"/>
<polygon fill="orange" stroke="orange" points="947.18,-443.98 939.29,-451.06 949.87,-450.44 947.18,-443.98"/>
</a>
</g>
<text xml:space="preserve" text-anchor="start" x="1041.12" y="-447.5" font-family="Helvetica,sans-Serif" font-size="10.00" fill="grey">&lt; enable_sentinel_tracking,</text>
<text xml:space="preserve" text-anchor="start" x="1041.12" y="-432.25" font-family="Helvetica,sans-Serif" font-size="10.00" fill="grey">   parent_ty &gt;</text>
</g>
<!-- Node12&#45;&gt;Node23 -->
<g id="edge26_Node000023_Node000012" class="edge">
<title>Node12&#45;&gt;Node23</title>
<g id="a_edge26_Node000023_Node000012"><a xlink:title=" ">
<path fill="none" stroke="orange" stroke-dasharray="5,2" d="M965.95,-475.84C1043.59,-477.84 1158.52,-478.07 1200.25,-464 1227.9,-454.68 1254.47,-434.2 1272.19,-418.32"/>
<polygon fill="orange" stroke="orange" points="966.39,-472.35 956.29,-475.57 966.19,-479.34 966.39,-472.35"/>
</a>
</g>
<text xml:space="preserve" text-anchor="start" x="1041.12" y="-496.83" font-family="Helvetica,sans-Serif" font-size="10.00" fill="grey">&lt; enable_sentinel_tracking,</text>
<text xml:space="preserve" text-anchor="start" x="1041.12" y="-481.58" font-family="Helvetica,sans-Serif" font-size="10.00" fill="grey">   parent_ty &gt;</text>
</g>
<!-- Node13 -->
<g id="Node000013" class="node">
<title>Node13</title>
<g id="a_Node000013"><a xlink:href="classllvm_1_1ilist__detail_1_1node__base__prevnext.html" target="_top" xlink:title=" ">
<polygon fill="white" stroke="#666666" points="584,-458.12 405.25,-458.12 405.25,-393.88 584,-393.88 584,-458.12"/>
<text xml:space="preserve" text-anchor="start" x="413.25" y="-444.62" font-family="Helvetica,sans-Serif" font-size="10.00">llvm::ilist_detail</text>
<text xml:space="preserve" text-anchor="start" x="413.25" y="-433.38" font-family="Helvetica,sans-Serif" font-size="10.00">::node_base_prevnext</text>
<text xml:space="preserve" text-anchor="start" x="413.25" y="-422.12" font-family="Helvetica,sans-Serif" font-size="10.00">&lt; ilist_node_base&lt; EnableSentinel</text>
<text xml:space="preserve" text-anchor="start" x="413.25" y="-410.88" font-family="Helvetica,sans-Serif" font-size="10.00">Tracking, ParentTy &gt;, EnableSentinel</text>
<text xml:space="preserve" text-anchor="middle" x="494.62" y="-399.62" font-family="Helvetica,sans-Serif" font-size="10.00">Tracking &gt;</text>
</a>
</g>
</g>
<!-- Node13&#45;&gt;Node12 -->
<g id="edge12_Node000012_Node000013" class="edge">
<title>Node13&#45;&gt;Node12</title>
<g id="a_edge12_Node000012_Node000013"><a xlink:title=" ">
<path fill="none" stroke="#63b8ff" d="M595.45,-437.96C667.03,-446.53 761.36,-457.83 823.3,-465.25"/>
<polygon fill="#63b8ff" stroke="#63b8ff" points="596.02,-434.5 585.67,-436.79 595.19,-441.45 596.02,-434.5"/>
</a>
</g>
</g>
<!-- Node14 -->
<g id="Node000014" class="node">
<title>Node14</title>
<g id="a_Node000014"><a xlink:href="classllvm_1_1ilist__detail_1_1node__base__prevnext.html" target="_top" xlink:title=" ">
<polygon fill="white" stroke="#666666" points="188.5,-446.88 0,-446.88 0,-405.12 188.5,-405.12 188.5,-446.88"/>
<text xml:space="preserve" text-anchor="start" x="8" y="-433.38" font-family="Helvetica,sans-Serif" font-size="10.00">llvm::ilist_detail</text>
<text xml:space="preserve" text-anchor="start" x="8" y="-422.12" font-family="Helvetica,sans-Serif" font-size="10.00">::node_base_prevnext</text>
<text xml:space="preserve" text-anchor="middle" x="94.25" y="-410.88" font-family="Helvetica,sans-Serif" font-size="10.00">&lt; NodeBase, EnableSentinelTracking &gt;</text>
</a>
</g>
</g>
<!-- Node14&#45;&gt;Node13 -->
<g id="edge13_Node000013_Node000014" class="edge">
<title>Node14&#45;&gt;Node13</title>
<g id="a_edge13_Node000013_Node000014"><a xlink:title=" ">
<path fill="none" stroke="orange" stroke-dasharray="5,2" d="M200.2,-426C263.96,-426 344.47,-426 405.02,-426"/>
<polygon fill="orange" stroke="orange" points="200.42,-422.5 190.42,-426 200.42,-429.5 200.42,-422.5"/>
</a>
</g>
<text xml:space="preserve" text-anchor="start" x="209.5" y="-461.25" font-family="Helvetica,sans-Serif" font-size="10.00" fill="grey">&lt; ilist_node_base&lt;</text>
<text xml:space="preserve" text-anchor="start" x="209.5" y="-446" font-family="Helvetica,sans-Serif" font-size="10.00" fill="grey">   EnableSentinelTracking,</text>
<text xml:space="preserve" text-anchor="start" x="209.5" y="-430.75" font-family="Helvetica,sans-Serif" font-size="10.00" fill="grey">   ParentTy &gt;, EnableSentinelTracking &gt;</text>
</g>
<!-- Node15 -->
<g id="Node000015" class="node">
<title>Node15</title>
<g id="a_Node000015"><a xlink:href="classllvm_1_1ilist__detail_1_1node__base__parent.html" target="_top" xlink:title=" ">
<polygon fill="white" stroke="#666666" points="548.38,-517.88 440.88,-517.88 440.88,-476.12 548.38,-476.12 548.38,-517.88"/>
<text xml:space="preserve" text-anchor="start" x="448.88" y="-504.38" font-family="Helvetica,sans-Serif" font-size="10.00">llvm::ilist_detail</text>
<text xml:space="preserve" text-anchor="start" x="448.88" y="-493.12" font-family="Helvetica,sans-Serif" font-size="10.00">::node_base_parent&lt;</text>
<text xml:space="preserve" text-anchor="middle" x="494.62" y="-481.88" font-family="Helvetica,sans-Serif" font-size="10.00"> ParentTy &gt;</text>
</a>
</g>
</g>
<!-- Node15&#45;&gt;Node12 -->
<g id="edge14_Node000012_Node000015" class="edge">
<title>Node15&#45;&gt;Node12</title>
<g id="a_edge14_Node000012_Node000015"><a xlink:title=" ">
<path fill="none" stroke="#63b8ff" d="M559.81,-493.07C632.5,-488.63 750.29,-481.42 823.23,-476.96"/>
<polygon fill="#63b8ff" stroke="#63b8ff" points="559.82,-489.57 550.05,-493.67 560.25,-496.55 559.82,-489.57"/>
</a>
</g>
</g>
<!-- Node16 -->
<g id="Node000016" class="node">
<title>Node16</title>
<g id="a_Node000016"><a xlink:href="classllvm_1_1ilist__detail_1_1node__parent__access.html" target="_top" xlink:title=" ">
<polygon fill="white" stroke="#666666" points="1200.25,-98 1001.25,-98 1001.25,0 1200.25,0 1200.25,-98"/>
<text xml:space="preserve" text-anchor="start" x="1009.25" y="-84.5" font-family="Helvetica,sans-Serif" font-size="10.00">llvm::ilist_detail</text>
<text xml:space="preserve" text-anchor="start" x="1009.25" y="-73.25" font-family="Helvetica,sans-Serif" font-size="10.00">::node_parent_access</text>
<text xml:space="preserve" text-anchor="start" x="1009.25" y="-62" font-family="Helvetica,sans-Serif" font-size="10.00">&lt; ilist_node_impl&lt; ilist</text>
<text xml:space="preserve" text-anchor="start" x="1009.25" y="-50.75" font-family="Helvetica,sans-Serif" font-size="10.00">_detail::compute_node_options</text>
<text xml:space="preserve" text-anchor="start" x="1009.25" y="-39.5" font-family="Helvetica,sans-Serif" font-size="10.00">&lt; GlobalVariable, Options...</text>
<text xml:space="preserve" text-anchor="start" x="1009.25" y="-28.25" font-family="Helvetica,sans-Serif" font-size="10.00"> &gt;::type &gt;, ilist_detail::compute</text>
<text xml:space="preserve" text-anchor="start" x="1009.25" y="-17" font-family="Helvetica,sans-Serif" font-size="10.00">_node_options&lt; GlobalVariable, Options...</text>
<text xml:space="preserve" text-anchor="middle" x="1100.75" y="-5.75" font-family="Helvetica,sans-Serif" font-size="10.00"> &gt;::type::parent_ty &gt;</text>
</a>
</g>
</g>
<!-- Node16&#45;&gt;Node8 -->
<g id="edge15_Node000008_Node000016" class="edge">
<title>Node16&#45;&gt;Node8</title>
<g id="a_edge15_Node000008_Node000016"><a xlink:title=" ">
<path fill="none" stroke="#63b8ff" d="M1212.2,-53.38C1303.23,-60.42 1433.94,-78.54 1538.75,-125 1563.81,-136.11 1588.1,-155.38 1605.66,-171.33"/>
<polygon fill="#63b8ff" stroke="#63b8ff" points="1212.48,-49.89 1202.25,-52.65 1211.97,-56.87 1212.48,-49.89"/>
</a>
</g>
</g>
<!-- Node17 -->
<g id="Node000017" class="node">
<title>Node17</title>
<g id="a_Node000017"><a xlink:href="classllvm_1_1ilist__detail_1_1node__parent__access.html" target="_top" xlink:title="Mixin base class that is used to add getParent() and setParent(ParentTy*) methods to ilist_node_impl ...">
<polygon fill="white" stroke="#666666" points="550.62,-183.88 438.62,-183.88 438.62,-142.12 550.62,-142.12 550.62,-183.88"/>
<text xml:space="preserve" text-anchor="start" x="446.62" y="-170.38" font-family="Helvetica,sans-Serif" font-size="10.00">llvm::ilist_detail</text>
<text xml:space="preserve" text-anchor="start" x="446.62" y="-159.12" font-family="Helvetica,sans-Serif" font-size="10.00">::node_parent_access</text>
<text xml:space="preserve" text-anchor="middle" x="494.62" y="-147.88" font-family="Helvetica,sans-Serif" font-size="10.00">&lt; NodeTy, ParentTy &gt;</text>
</a>
</g>
</g>
<!-- Node17&#45;&gt;Node16 -->
<g id="edge16_Node000016_Node000017" class="edge">
<title>Node17&#45;&gt;Node16</title>
<g id="a_edge16_Node000016_Node000017"><a xlink:title=" ">
<path fill="none" stroke="orange" stroke-dasharray="5,2" d="M513.29,-132.42C531.47,-104.33 562.66,-64.53 602,-47.25 730.77,9.3 896.99,-6.76 1000.99,-25.96"/>
<polygon fill="orange" stroke="orange" points="510.56,-130.2 508.22,-140.53 516.49,-133.91 510.56,-130.2"/>
</a>
</g>
<text xml:space="preserve" text-anchor="start" x="617.75" y="-143.5" font-family="Helvetica,sans-Serif" font-size="10.00" fill="grey">&lt; ilist_node_impl&lt;</text>
<text xml:space="preserve" text-anchor="start" x="617.75" y="-128.25" font-family="Helvetica,sans-Serif" font-size="10.00" fill="grey">   ilist_detail::compute</text>
<text xml:space="preserve" text-anchor="start" x="617.75" y="-113" font-family="Helvetica,sans-Serif" font-size="10.00" fill="grey">  _node_options&lt; GlobalVariable,</text>
<text xml:space="preserve" text-anchor="start" x="617.75" y="-97.75" font-family="Helvetica,sans-Serif" font-size="10.00" fill="grey">   Options... &gt;::type &gt;, ilist</text>
<text xml:space="preserve" text-anchor="start" x="617.75" y="-82.5" font-family="Helvetica,sans-Serif" font-size="10.00" fill="grey">  _detail::compute_node_options</text>
<text xml:space="preserve" text-anchor="start" x="617.75" y="-67.25" font-family="Helvetica,sans-Serif" font-size="10.00" fill="grey">  &lt; GlobalVariable, Options... &gt;</text>
<text xml:space="preserve" text-anchor="start" x="617.75" y="-52" font-family="Helvetica,sans-Serif" font-size="10.00" fill="grey">  ::type::parent_ty &gt;</text>
</g>
<!-- Node20 -->
<g id="Node000020" class="node">
<title>Node20</title>
<g id="a_Node000020"><a xlink:href="classllvm_1_1ilist__detail_1_1node__parent__access.html" target="_top" xlink:title=" ">
<polygon fill="white" stroke="#666666" points="958.12,-299.5 819.88,-299.5 819.88,-246.5 958.12,-246.5 958.12,-299.5"/>
<text xml:space="preserve" text-anchor="start" x="827.88" y="-286" font-family="Helvetica,sans-Serif" font-size="10.00">llvm::ilist_detail</text>
<text xml:space="preserve" text-anchor="start" x="827.88" y="-274.75" font-family="Helvetica,sans-Serif" font-size="10.00">::node_parent_access</text>
<text xml:space="preserve" text-anchor="start" x="827.88" y="-263.5" font-family="Helvetica,sans-Serif" font-size="10.00">&lt; ilist_node_impl&lt; OptionsT</text>
<text xml:space="preserve" text-anchor="middle" x="889" y="-252.25" font-family="Helvetica,sans-Serif" font-size="10.00"> &gt;, OptionsT::parent_ty &gt;</text>
</a>
</g>
</g>
<!-- Node17&#45;&gt;Node20 -->
<g id="edge20_Node000020_Node000017" class="edge">
<title>Node17&#45;&gt;Node20</title>
<g id="a_edge20_Node000020_Node000017"><a xlink:title=" ">
<path fill="none" stroke="orange" stroke-dasharray="5,2" d="M518.93,-192.67C538.45,-215.05 568.45,-244.18 602,-258 672,-286.83 759.89,-286.67 819.64,-281.81"/>
<polygon fill="orange" stroke="orange" points="521.84,-190.69 512.71,-185.32 516.5,-195.21 521.84,-190.69"/>
</a>
</g>
<text xml:space="preserve" text-anchor="start" x="637.62" y="-319.51" font-family="Helvetica,sans-Serif" font-size="10.00" fill="grey">&lt; ilist_node_impl&lt;</text>
<text xml:space="preserve" text-anchor="start" x="637.62" y="-304.26" font-family="Helvetica,sans-Serif" font-size="10.00" fill="grey">   OptionsT &gt;, OptionsT</text>
<text xml:space="preserve" text-anchor="start" x="637.62" y="-289.01" font-family="Helvetica,sans-Serif" font-size="10.00" fill="grey">  ::parent_ty &gt;</text>
</g>
<!-- Node24 -->
<g id="Node000024" class="node">
<title>Node24</title>
<g id="a_Node000024"><a xlink:href="classllvm_1_1ilist__detail_1_1node__parent__access.html" target="_top" xlink:title=" ">
<polygon fill="white" stroke="#666666" points="1181.5,-206.38 1020,-206.38 1020,-119.62 1181.5,-119.62 1181.5,-206.38"/>
<text xml:space="preserve" text-anchor="start" x="1028" y="-192.88" font-family="Helvetica,sans-Serif" font-size="10.00">llvm::ilist_detail</text>
<text xml:space="preserve" text-anchor="start" x="1028" y="-181.62" font-family="Helvetica,sans-Serif" font-size="10.00">::node_parent_access</text>
<text xml:space="preserve" text-anchor="start" x="1028" y="-170.38" font-family="Helvetica,sans-Serif" font-size="10.00">&lt; ilist_node_impl&lt; ilist</text>
<text xml:space="preserve" text-anchor="start" x="1028" y="-159.12" font-family="Helvetica,sans-Serif" font-size="10.00">_detail::compute_node_options</text>
<text xml:space="preserve" text-anchor="start" x="1028" y="-147.88" font-family="Helvetica,sans-Serif" font-size="10.00">&lt; T, Options... &gt;::type &gt;, ilist</text>
<text xml:space="preserve" text-anchor="start" x="1028" y="-136.62" font-family="Helvetica,sans-Serif" font-size="10.00">_detail::compute_node_options&lt;</text>
<text xml:space="preserve" text-anchor="middle" x="1100.75" y="-125.38" font-family="Helvetica,sans-Serif" font-size="10.00"> T, Options... &gt;::type::parent_ty &gt;</text>
</a>
</g>
</g>
<!-- Node17&#45;&gt;Node24 -->
<g id="edge28_Node000024_Node000017" class="edge">
<title>Node17&#45;&gt;Node24</title>
<g id="a_edge28_Node000024_Node000017"><a xlink:title=" ">
<path fill="none" stroke="orange" stroke-dasharray="5,2" d="M562.45,-161.19C575.56,-160.9 589.21,-160.65 602,-160.5 749.33,-158.77 921.2,-160.45 1019.57,-161.77"/>
<polygon fill="orange" stroke="orange" points="562.54,-157.69 552.62,-161.41 562.7,-164.68 562.54,-157.69"/>
</a>
</g>
<text xml:space="preserve" text-anchor="start" x="605" y="-241.5" font-family="Helvetica,sans-Serif" font-size="10.00" fill="grey">&lt; ilist_node_impl&lt;</text>
<text xml:space="preserve" text-anchor="start" x="605" y="-226.25" font-family="Helvetica,sans-Serif" font-size="10.00" fill="grey">   ilist_detail::compute</text>
<text xml:space="preserve" text-anchor="start" x="605" y="-211" font-family="Helvetica,sans-Serif" font-size="10.00" fill="grey">  _node_options&lt; T, Options...</text>
<text xml:space="preserve" text-anchor="start" x="605" y="-195.75" font-family="Helvetica,sans-Serif" font-size="10.00" fill="grey">   &gt;::type &gt;, ilist_detail::</text>
<text xml:space="preserve" text-anchor="start" x="605" y="-180.5" font-family="Helvetica,sans-Serif" font-size="10.00" fill="grey">  compute_node_options&lt; T, Options...</text>
<text xml:space="preserve" text-anchor="start" x="605" y="-165.25" font-family="Helvetica,sans-Serif" font-size="10.00" fill="grey">   &gt;::type::parent_ty &gt;</text>
</g>
<!-- Node18 -->
<g id="Node000018" class="node">
<title>Node18</title>
<g id="a_Node000018"><a xlink:href="classllvm_1_1ilist__node__impl.html" target="_top" xlink:title="Implementation for an ilist node.">
<polygon fill="white" stroke="#666666" points="1347.12,-255.25 1242.62,-255.25 1242.62,-224.75 1347.12,-224.75 1347.12,-255.25"/>
<text xml:space="preserve" text-anchor="start" x="1250.62" y="-241.75" font-family="Helvetica,sans-Serif" font-size="10.00">llvm::ilist_node_impl</text>
<text xml:space="preserve" text-anchor="middle" x="1294.88" y="-230.5" font-family="Helvetica,sans-Serif" font-size="10.00">&lt; OptionsT &gt;</text>
</a>
</g>
</g>
<!-- Node18&#45;&gt;Node8 -->
<g id="edge17_Node000008_Node000018" class="edge">
<title>Node18&#45;&gt;Node8</title>
<g id="a_edge17_Node000008_Node000018"><a xlink:title=" ">
<path fill="none" stroke="orange" stroke-dasharray="5,2" d="M1331.84,-219.19C1348.75,-210.57 1369.55,-201.59 1389.5,-197.25 1444.4,-185.31 1507.95,-186 1556.27,-189.41"/>
<polygon fill="orange" stroke="orange" points="1330.4,-215.99 1323.19,-223.76 1333.67,-222.18 1330.4,-215.99"/>
</a>
</g>
<text xml:space="preserve" text-anchor="start" x="1392.5" y="-232.5" font-family="Helvetica,sans-Serif" font-size="10.00" fill="grey">&lt; ilist_detail::compute</text>
<text xml:space="preserve" text-anchor="start" x="1392.5" y="-217.25" font-family="Helvetica,sans-Serif" font-size="10.00" fill="grey">  _node_options&lt; GlobalVariable,</text>
<text xml:space="preserve" text-anchor="start" x="1392.5" y="-202" font-family="Helvetica,sans-Serif" font-size="10.00" fill="grey">   Options... &gt;::type &gt;</text>
</g>
<!-- Node22 -->
<g id="Node000022" class="node">
<title>Node22</title>
<g id="a_Node000022"><a xlink:href="classllvm_1_1ilist__node__impl.html" target="_top" xlink:title=" ">
<polygon fill="white" stroke="#666666" points="1704,-295.5 1562.75,-295.5 1562.75,-242.5 1704,-242.5 1704,-295.5"/>
<text xml:space="preserve" text-anchor="start" x="1570.75" y="-282" font-family="Helvetica,sans-Serif" font-size="10.00">llvm::ilist_node_impl</text>
<text xml:space="preserve" text-anchor="start" x="1570.75" y="-270.75" font-family="Helvetica,sans-Serif" font-size="10.00">&lt; ilist_detail::compute</text>
<text xml:space="preserve" text-anchor="start" x="1570.75" y="-259.5" font-family="Helvetica,sans-Serif" font-size="10.00">_node_options&lt; T, Options...</text>
<text xml:space="preserve" text-anchor="middle" x="1633.38" y="-248.25" font-family="Helvetica,sans-Serif" font-size="10.00"> &gt;::type &gt;</text>
</a>
</g>
</g>
<!-- Node18&#45;&gt;Node22 -->
<g id="edge29_Node000022_Node000018" class="edge">
<title>Node18&#45;&gt;Node22</title>
<g id="a_edge29_Node000022_Node000018"><a xlink:title=" ">
<path fill="none" stroke="orange" stroke-dasharray="5,2" d="M1358.54,-245.4C1416.45,-250.39 1502.37,-257.8 1562.48,-262.98"/>
<polygon fill="orange" stroke="orange" points="1359.12,-241.94 1348.86,-244.57 1358.52,-248.91 1359.12,-241.94"/>
</a>
</g>
<text xml:space="preserve" text-anchor="start" x="1398.5" y="-295.68" font-family="Helvetica,sans-Serif" font-size="10.00" fill="grey">&lt; ilist_detail::compute</text>
<text xml:space="preserve" text-anchor="start" x="1398.5" y="-280.43" font-family="Helvetica,sans-Serif" font-size="10.00" fill="grey">  _node_options&lt; T, Options...</text>
<text xml:space="preserve" text-anchor="start" x="1398.5" y="-265.18" font-family="Helvetica,sans-Serif" font-size="10.00" fill="grey">   &gt;::type &gt;</text>
</g>
<!-- Node19 -->
<g id="Node000019" class="node">
<title>Node19</title>
<g id="a_Node000019"><a xlink:title=" ">
<polygon fill="white" stroke="#666666" points="954.75,-228.62 823.25,-228.62 823.25,-209.38 954.75,-209.38 954.75,-228.62"/>
<text xml:space="preserve" text-anchor="middle" x="889" y="-215.12" font-family="Helvetica,sans-Serif" font-size="10.00">OptionsT::node_base_type</text>
</a>
</g>
</g>
<!-- Node19&#45;&gt;Node18 -->
<g id="edge18_Node000018_Node000019" class="edge">
<title>Node19&#45;&gt;Node18</title>
<g id="a_edge18_Node000018_Node000019"><a xlink:title=" ">
<path fill="none" stroke="#8b1a1a" d="M965.98,-222.95C1046.76,-227.15 1172.31,-233.68 1242.29,-237.32"/>
<polygon fill="#8b1a1a" stroke="#8b1a1a" points="966.57,-219.48 956.4,-222.45 966.21,-226.47 966.57,-219.48"/>
</a>
</g>
</g>
<!-- Node20&#45;&gt;Node18 -->
<g id="edge19_Node000018_Node000020" class="edge">
<title>Node20&#45;&gt;Node18</title>
<g id="a_edge19_Node000018_Node000020"><a xlink:title=" ">
<path fill="none" stroke="#63b8ff" d="M969.64,-266.49C1050.54,-259.88 1173.45,-249.84 1242.37,-244.21"/>
<polygon fill="#63b8ff" stroke="#63b8ff" points="969.7,-262.98 960.02,-267.28 970.27,-269.95 969.7,-262.98"/>
</a>
</g>
</g>
<!-- Node21 -->
<g id="Node000021" class="node">
<title>Node21</title>
<g id="a_Node000021"><a xlink:href="classllvm_1_1ilist__node.html" target="_top" xlink:title=" ">
<polygon fill="white" stroke="#666666" points="1844.75,-284.25 1747,-284.25 1747,-253.75 1844.75,-253.75 1844.75,-284.25"/>
<text xml:space="preserve" text-anchor="start" x="1755" y="-270.75" font-family="Helvetica,sans-Serif" font-size="10.00">llvm::ilist_node&lt; T,</text>
<text xml:space="preserve" text-anchor="middle" x="1795.88" y="-259.5" font-family="Helvetica,sans-Serif" font-size="10.00"> Options &gt;</text>
</a>
</g>
</g>
<!-- Node21&#45;&gt;Node7 -->
<g id="edge21_Node000007_Node000021" class="edge">
<title>Node21&#45;&gt;Node7</title>
<g id="a_edge21_Node000007_Node000021"><a xlink:title=" ">
<path fill="none" stroke="orange" stroke-dasharray="5,2" d="M1856.19,-269C1890.29,-269 1932.95,-269 1966.85,-269"/>
<polygon fill="orange" stroke="orange" points="1856.49,-265.5 1846.49,-269 1856.49,-272.5 1856.49,-265.5"/>
</a>
</g>
<text xml:space="preserve" text-anchor="start" x="1865.75" y="-273.75" font-family="Helvetica,sans-Serif" font-size="10.00" fill="grey">&lt; GlobalVariable &gt;</text>
</g>
<!-- Node22&#45;&gt;Node21 -->
<g id="edge22_Node000021_Node000022" class="edge">
<title>Node22&#45;&gt;Node21</title>
<g id="a_edge22_Node000021_Node000022"><a xlink:title=" ">
<path fill="none" stroke="#63b8ff" d="M1715.81,-269C1726.43,-269 1737.03,-269 1746.85,-269"/>
<polygon fill="#63b8ff" stroke="#63b8ff" points="1715.82,-265.5 1705.82,-269 1715.82,-272.5 1715.82,-265.5"/>
</a>
</g>
</g>
<!-- Node23&#45;&gt;Node22 -->
<g id="edge23_Node000022_Node000023" class="edge">
<title>Node23&#45;&gt;Node22</title>
<g id="a_edge23_Node000022_Node000023"><a xlink:title=" ">
<path fill="none" stroke="#8b1a1a" d="M1377.12,-389.81C1425.86,-383.13 1488.03,-370.35 1538.75,-346 1564.55,-333.61 1589.36,-312.65 1606.95,-295.73"/>
<polygon fill="#8b1a1a" stroke="#8b1a1a" points="1376.95,-386.3 1367.49,-391.06 1377.86,-393.24 1376.95,-386.3"/>
</a>
</g>
</g>
<!-- Node24&#45;&gt;Node22 -->
<g id="edge27_Node000022_Node000024" class="edge">
<title>Node24&#45;&gt;Node22</title>
<g id="a_edge27_Node000022_Node000024"><a xlink:title=" ">
<path fill="none" stroke="#63b8ff" d="M1192.92,-140C1288.68,-121.55 1438.95,-109.39 1538.75,-183 1557.76,-197.02 1540.89,-215.5 1556.75,-233 1559.78,-236.34 1563.18,-239.4 1566.82,-242.2"/>
<polygon fill="#63b8ff" stroke="#63b8ff" points="1192.41,-136.54 1183.29,-141.93 1193.78,-143.4 1192.41,-136.54"/>
</a>
</g>
</g>
</g>
</svg>
