<?xml version="1.0" encoding="UTF-8" standalone="no"?>
<!DOCTYPE svg PUBLIC "-//W3C//DTD SVG 1.1//EN"
 "http://www.w3.org/Graphics/SVG/1.1/DTD/svg11.dtd">
<!-- Generated by graphviz version 13.1.2 (20250808.2320)
 -->
<!-- Title: llvm::object::SectionStrippedError Pages: 1 -->
<svg width="234pt" height="261pt"
 viewBox="0.00 0.00 234.00 261.00" xmlns="http://www.w3.org/2000/svg" xmlns:xlink="http://www.w3.org/1999/xlink">
<g id="graph0" class="graph" transform="scale(1 1) rotate(0) translate(4 257.25)">
<title>llvm::object::SectionStrippedError</title>
<!-- Node1 -->
<g id="Node000001" class="node">
<title>Node1</title>
<g id="a_Node000001"><a xlink:title=" ">
<polygon fill="#999999" stroke="#666666" points="141.25,-30.5 0,-30.5 0,0 141.25,0 141.25,-30.5"/>
<text xml:space="preserve" text-anchor="start" x="8" y="-17" font-family="Helvetica,sans-Serif" font-size="10.00">llvm::object::SectionStripped</text>
<text xml:space="preserve" text-anchor="middle" x="70.62" y="-5.75" font-family="Helvetica,sans-Serif" font-size="10.00">Error</text>
</a>
</g>
</g>
<!-- Node2 -->
<g id="Node000002" class="node">
<title>Node2</title>
<g id="a_Node000002"><a xlink:href="classllvm_1_1ErrorInfo.html" target="_top" xlink:title=" ">
<polygon fill="white" stroke="#666666" points="138.62,-98 2.62,-98 2.62,-67.5 138.62,-67.5 138.62,-98"/>
<text xml:space="preserve" text-anchor="start" x="10.62" y="-84.5" font-family="Helvetica,sans-Serif" font-size="10.00">llvm::ErrorInfo&lt; Section</text>
<text xml:space="preserve" text-anchor="middle" x="70.62" y="-73.25" font-family="Helvetica,sans-Serif" font-size="10.00">StrippedError, BinaryError &gt;</text>
</a>
</g>
</g>
<!-- Node2&#45;&gt;Node1 -->
<g id="edge1_Node000001_Node000002" class="edge">
<title>Node2&#45;&gt;Node1</title>
<g id="a_edge1_Node000001_Node000002"><a xlink:title=" ">
<path fill="none" stroke="#63b8ff" d="M70.62,-55.84C70.62,-47.3 70.62,-38.12 70.62,-30.75"/>
<polygon fill="#63b8ff" stroke="#63b8ff" points="67.13,-55.7 70.63,-65.7 74.13,-55.7 67.13,-55.7"/>
</a>
</g>
</g>
<!-- Node3 -->
<g id="Node000003" class="node">
<title>Node3</title>
<g id="a_Node000003"><a xlink:title=" ">
<polygon fill="white" stroke="#666666" points="68,-191.38 3.25,-191.38 3.25,-172.12 68,-172.12 68,-191.38"/>
<text xml:space="preserve" text-anchor="middle" x="35.62" y="-177.88" font-family="Helvetica,sans-Serif" font-size="10.00">BinaryError</text>
</a>
</g>
</g>
<!-- Node3&#45;&gt;Node2 -->
<g id="edge2_Node000002_Node000003" class="edge">
<title>Node3&#45;&gt;Node2</title>
<g id="a_edge2_Node000002_Node000003"><a xlink:title=" ">
<path fill="none" stroke="#63b8ff" d="M42.73,-161.06C49.44,-142.46 59.35,-114.99 65.38,-98.3"/>
<polygon fill="#63b8ff" stroke="#63b8ff" points="39.47,-159.78 39.37,-170.37 46.06,-162.16 39.47,-159.78"/>
</a>
</g>
</g>
<!-- Node4 -->
<g id="Node000004" class="node">
<title>Node4</title>
<g id="a_Node000004"><a xlink:href="classllvm_1_1ErrorInfo.html" target="_top" xlink:title="Base class for user error types.">
<polygon fill="white" stroke="#666666" points="203.62,-197 85.62,-197 85.62,-166.5 203.62,-166.5 203.62,-197"/>
<text xml:space="preserve" text-anchor="start" x="93.62" y="-183.5" font-family="Helvetica,sans-Serif" font-size="10.00">llvm::ErrorInfo&lt; ThisErr</text>
<text xml:space="preserve" text-anchor="middle" x="144.62" y="-172.25" font-family="Helvetica,sans-Serif" font-size="10.00">T, ParentErrT &gt;</text>
</a>
</g>
</g>
<!-- Node4&#45;&gt;Node2 -->
<g id="edge3_Node000002_Node000004" class="edge">
<title>Node4&#45;&gt;Node2</title>
<g id="a_edge3_Node000002_Node000004"><a xlink:title=" ">
<path fill="none" stroke="orange" stroke-dasharray="5,2" d="M126.58,-157.09C112.56,-138.72 93.59,-113.85 81.73,-98.3"/>
<polygon fill="orange" stroke="orange" points="123.62,-158.99 132.47,-164.81 129.19,-154.74 123.62,-158.99"/>
</a>
</g>
<text xml:space="preserve" text-anchor="start" x="121.58" y="-136" font-family="Helvetica,sans-Serif" font-size="10.00" fill="grey">&lt; SectionStrippedError,</text>
<text xml:space="preserve" text-anchor="start" x="121.58" y="-120.75" font-family="Helvetica,sans-Serif" font-size="10.00" fill="grey">   BinaryError &gt;</text>
</g>
<!-- Node5 -->
<g id="Node000005" class="node">
<title>Node5</title>
<g id="a_Node000005"><a xlink:href="classllvm_1_1ErrorInfoBase.html" target="_top" xlink:title="Base class for error info classes.">
<polygon fill="white" stroke="#666666" points="194.62,-253.25 94.62,-253.25 94.62,-234 194.62,-234 194.62,-253.25"/>
<text xml:space="preserve" text-anchor="middle" x="144.62" y="-239.75" font-family="Helvetica,sans-Serif" font-size="10.00">llvm::ErrorInfoBase</text>
</a>
</g>
</g>
<!-- Node5&#45;&gt;Node4 -->
<g id="edge4_Node000004_Node000005" class="edge">
<title>Node5&#45;&gt;Node4</title>
<g id="a_edge4_Node000004_Node000005"><a xlink:title=" ">
<path fill="none" stroke="#63b8ff" d="M144.62,-222.19C144.62,-213.93 144.62,-204.59 144.62,-197.07"/>
<polygon fill="#63b8ff" stroke="#63b8ff" points="141.13,-222.02 144.63,-232.02 148.13,-222.02 141.13,-222.02"/>
</a>
</g>
</g>
</g>
</svg>
