<?xml version="1.0" encoding="UTF-8" standalone="no"?>
<!DOCTYPE svg PUBLIC "-//W3C//DTD SVG 1.1//EN"
 "http://www.w3.org/Graphics/SVG/1.1/DTD/svg11.dtd">
<!-- Generated by graphviz version 13.1.2 (20250808.2320)
 -->
<!-- Title: llvm::jitlink::JITLinkError Pages: 1 -->
<svg width="199pt" height="235pt"
 viewBox="0.00 0.00 199.00 235.00" xmlns="http://www.w3.org/2000/svg" xmlns:xlink="http://www.w3.org/1999/xlink">
<g id="graph0" class="graph" transform="scale(1 1) rotate(0) translate(4 230.75)">
<title>llvm::jitlink::JITLinkError</title>
<!-- Node1 -->
<g id="Node000001" class="node">
<title>Node1</title>
<g id="a_Node000001"><a xlink:title="Base class for errors originating in JIT linker, e.g.">
<polygon fill="#999999" stroke="#666666" points="121.75,-19.25 0,-19.25 0,0 121.75,0 121.75,-19.25"/>
<text xml:space="preserve" text-anchor="middle" x="60.88" y="-5.75" font-family="Helvetica,sans-Serif" font-size="10.00">llvm::jitlink::JITLinkError</text>
</a>
</g>
</g>
<!-- Node2 -->
<g id="Node000002" class="node">
<title>Node2</title>
<g id="a_Node000002"><a xlink:href="classllvm_1_1ErrorInfo.html" target="_top" xlink:title=" ">
<polygon fill="white" stroke="#666666" points="120.25,-86.75 1.5,-86.75 1.5,-56.25 120.25,-56.25 120.25,-86.75"/>
<text xml:space="preserve" text-anchor="start" x="9.5" y="-73.25" font-family="Helvetica,sans-Serif" font-size="10.00">llvm::ErrorInfo&lt; JITLink</text>
<text xml:space="preserve" text-anchor="middle" x="60.88" y="-62" font-family="Helvetica,sans-Serif" font-size="10.00">Error &gt;</text>
</a>
</g>
</g>
<!-- Node2&#45;&gt;Node1 -->
<g id="edge1_Node000001_Node000002" class="edge">
<title>Node2&#45;&gt;Node1</title>
<g id="a_edge1_Node000001_Node000002"><a xlink:title=" ">
<path fill="none" stroke="#63b8ff" d="M60.88,-44.77C60.88,-35.79 60.88,-26.29 60.88,-19.6"/>
<polygon fill="#63b8ff" stroke="#63b8ff" points="57.38,-44.49 60.88,-54.49 64.38,-44.49 57.38,-44.49"/>
</a>
</g>
</g>
<!-- Node3 -->
<g id="Node000003" class="node">
<title>Node3</title>
<g id="a_Node000003"><a xlink:href="classllvm_1_1ErrorInfoBase.html" target="_top" xlink:title="Base class for error info classes.">
<polygon fill="white" stroke="#666666" points="106.88,-226.75 6.88,-226.75 6.88,-207.5 106.88,-207.5 106.88,-226.75"/>
<text xml:space="preserve" text-anchor="middle" x="56.88" y="-213.25" font-family="Helvetica,sans-Serif" font-size="10.00">llvm::ErrorInfoBase</text>
</a>
</g>
</g>
<!-- Node3&#45;&gt;Node2 -->
<g id="edge2_Node000002_Node000003" class="edge">
<title>Node3&#45;&gt;Node2</title>
<g id="a_edge2_Node000002_Node000003"><a xlink:title=" ">
<path fill="none" stroke="#63b8ff" d="M57.44,-195.84C58.26,-166.37 59.76,-112.46 60.48,-86.8"/>
<polygon fill="#63b8ff" stroke="#63b8ff" points="53.95,-195.53 57.17,-205.63 60.94,-195.73 53.95,-195.53"/>
</a>
</g>
</g>
<!-- Node4 -->
<g id="Node000004" class="node">
<title>Node4</title>
<g id="a_Node000004"><a xlink:href="classllvm_1_1ErrorInfo.html" target="_top" xlink:title="Base class for user error types.">
<polygon fill="white" stroke="#666666" points="190.88,-170.5 72.88,-170.5 72.88,-140 190.88,-140 190.88,-170.5"/>
<text xml:space="preserve" text-anchor="start" x="80.88" y="-157" font-family="Helvetica,sans-Serif" font-size="10.00">llvm::ErrorInfo&lt; ThisErr</text>
<text xml:space="preserve" text-anchor="middle" x="131.88" y="-145.75" font-family="Helvetica,sans-Serif" font-size="10.00">T, ParentErrT &gt;</text>
</a>
</g>
</g>
<!-- Node3&#45;&gt;Node4 -->
<g id="edge4_Node000004_Node000003" class="edge">
<title>Node3&#45;&gt;Node4</title>
<g id="a_edge4_Node000004_Node000003"><a xlink:title=" ">
<path fill="none" stroke="#63b8ff" d="M77.07,-200C88.47,-190.9 102.59,-179.63 113.65,-170.8"/>
<polygon fill="#63b8ff" stroke="#63b8ff" points="75.08,-197.11 69.45,-206.09 79.45,-202.58 75.08,-197.11"/>
</a>
</g>
</g>
<!-- Node4&#45;&gt;Node2 -->
<g id="edge3_Node000002_Node000004" class="edge">
<title>Node4&#45;&gt;Node2</title>
<g id="a_edge3_Node000002_Node000004"><a xlink:title=" ">
<path fill="none" stroke="orange" stroke-dasharray="5,2" d="M111.97,-131.33C99.62,-117.11 84.13,-99.27 73.46,-86.99"/>
<polygon fill="orange" stroke="orange" points="108.99,-133.24 118.19,-138.49 114.27,-128.65 108.99,-133.24"/>
</a>
</g>
<text xml:space="preserve" text-anchor="start" x="105.73" y="-109.5" font-family="Helvetica,sans-Serif" font-size="10.00" fill="grey">&lt; JITLinkError &gt;</text>
</g>
</g>
</svg>
