<?xml version="1.0" encoding="UTF-8" standalone="no"?>
<!DOCTYPE svg PUBLIC "-//W3C//DTD SVG 1.1//EN"
 "http://www.w3.org/Graphics/SVG/1.1/DTD/svg11.dtd">
<!-- Generated by graphviz version 13.1.2 (20250808.2320)
 -->
<!-- Title: llvm::MachineInstrBundleIterator&lt; Ty, IsReverse &gt; Pages: 1 -->
<svg width="808pt" height="329pt"
 viewBox="0.00 0.00 808.00 329.00" xmlns="http://www.w3.org/2000/svg" xmlns:xlink="http://www.w3.org/1999/xlink">
<g id="graph0" class="graph" transform="scale(1 1) rotate(0) translate(4 324.5)">
<title>llvm::MachineInstrBundleIterator&lt; Ty, IsReverse &gt;</title>
<!-- Node1 -->
<g id="Node000001" class="node">
<title>Node1</title>
<g id="a_Node000001"><a xlink:title="MachineBasicBlock iterator that automatically skips over MIs that are inside bundles (i....">
<polygon fill="#999999" stroke="#666666" points="508.75,-189.5 382.5,-189.5 382.5,-159 508.75,-159 508.75,-189.5"/>
<text xml:space="preserve" text-anchor="start" x="390.5" y="-176" font-family="Helvetica,sans-Serif" font-size="10.00">llvm::MachineInstrBundle</text>
<text xml:space="preserve" text-anchor="middle" x="445.62" y="-164.75" font-family="Helvetica,sans-Serif" font-size="10.00">Iterator&lt; Ty, IsReverse &gt;</text>
</a>
</g>
</g>
<!-- Node4 -->
<g id="Node000004" class="node">
<title>Node4</title>
<g id="a_Node000004"><a xlink:href="classllvm_1_1MachineInstrBundleIterator.html" target="_top" xlink:title=" ">
<polygon fill="white" stroke="#666666" points="789.12,-320.5 662.88,-320.5 662.88,-290 789.12,-290 789.12,-320.5"/>
<text xml:space="preserve" text-anchor="start" x="670.88" y="-307" font-family="Helvetica,sans-Serif" font-size="10.00">llvm::MachineInstrBundle</text>
<text xml:space="preserve" text-anchor="middle" x="726" y="-295.75" font-family="Helvetica,sans-Serif" font-size="10.00">Iterator&lt; MachineInstr &gt;</text>
</a>
</g>
</g>
<!-- Node1&#45;&gt;Node4 -->
<g id="edge3_Node000001_Node000004" class="edge">
<title>Node1&#45;&gt;Node4</title>
<g id="a_edge3_Node000001_Node000004"><a xlink:title=" ">
<path fill="none" stroke="orange" stroke-dasharray="5,2" d="M462.54,-198.9C476.89,-219.08 499.83,-246.73 526.75,-262.25 568.25,-286.17 621.61,-296.81 662.51,-301.53"/>
<polygon fill="orange" stroke="orange" points="465.61,-197.19 457.06,-190.93 459.84,-201.15 465.61,-197.19"/>
</a>
</g>
<text xml:space="preserve" text-anchor="start" x="543.25" y="-301.59" font-family="Helvetica,sans-Serif" font-size="10.00" fill="grey">&lt; MachineInstr &gt;</text>
</g>
<!-- Node5 -->
<g id="Node000005" class="node">
<title>Node5</title>
<g id="a_Node000005"><a xlink:href="classllvm_1_1MachineInstrBundleIterator.html" target="_top" xlink:title=" ">
<polygon fill="white" stroke="#666666" points="800,-271.5 652,-271.5 652,-241 800,-241 800,-271.5"/>
<text xml:space="preserve" text-anchor="start" x="660" y="-258" font-family="Helvetica,sans-Serif" font-size="10.00">llvm::MachineInstrBundle</text>
<text xml:space="preserve" text-anchor="middle" x="726" y="-246.75" font-family="Helvetica,sans-Serif" font-size="10.00">Iterator&lt; const MachineInstr &gt;</text>
</a>
</g>
</g>
<!-- Node1&#45;&gt;Node5 -->
<g id="edge4_Node000001_Node000005" class="edge">
<title>Node1&#45;&gt;Node5</title>
<g id="a_edge4_Node000001_Node000005"><a xlink:title=" ">
<path fill="none" stroke="orange" stroke-dasharray="5,2" d="M484.52,-195C497.61,-201.54 512.56,-208.34 526.75,-213.25 567.19,-227.25 613.9,-237.65 651.82,-244.71"/>
<polygon fill="orange" stroke="orange" points="486.32,-191.99 475.82,-190.54 483.12,-198.22 486.32,-191.99"/>
</a>
</g>
<text xml:space="preserve" text-anchor="start" x="529.75" y="-245.88" font-family="Helvetica,sans-Serif" font-size="10.00" fill="grey">&lt; const MachineInstr &gt;</text>
</g>
<!-- Node6 -->
<g id="Node000006" class="node">
<title>Node6</title>
<g id="a_Node000006"><a xlink:href="classllvm_1_1MachineInstrBundleIterator.html" target="_top" xlink:title=" ">
<polygon fill="white" stroke="#666666" points="789.12,-223.12 662.88,-223.12 662.88,-181.38 789.12,-181.38 789.12,-223.12"/>
<text xml:space="preserve" text-anchor="start" x="670.88" y="-209.62" font-family="Helvetica,sans-Serif" font-size="10.00">llvm::MachineInstrBundle</text>
<text xml:space="preserve" text-anchor="start" x="670.88" y="-198.38" font-family="Helvetica,sans-Serif" font-size="10.00">Iterator&lt; MachineInstr,</text>
<text xml:space="preserve" text-anchor="middle" x="726" y="-187.12" font-family="Helvetica,sans-Serif" font-size="10.00"> true &gt;</text>
</a>
</g>
</g>
<!-- Node1&#45;&gt;Node6 -->
<g id="edge5_Node000001_Node000006" class="edge">
<title>Node1&#45;&gt;Node6</title>
<g id="a_edge5_Node000001_Node000006"><a xlink:title=" ">
<path fill="none" stroke="orange" stroke-dasharray="5,2" d="M520.41,-181.67C564.77,-186.13 620.61,-191.75 662.74,-195.99"/>
<polygon fill="orange" stroke="orange" points="520.9,-178.2 510.6,-180.69 520.2,-185.17 520.9,-178.2"/>
</a>
</g>
<text xml:space="preserve" text-anchor="start" x="532.38" y="-197.14" font-family="Helvetica,sans-Serif" font-size="10.00" fill="grey">&lt; MachineInstr, true &gt;</text>
</g>
<!-- Node7 -->
<g id="Node000007" class="node">
<title>Node7</title>
<g id="a_Node000007"><a xlink:href="classllvm_1_1MachineInstrBundleIterator.html" target="_top" xlink:title=" ">
<polygon fill="white" stroke="#666666" points="796.62,-163.12 655.38,-163.12 655.38,-121.38 796.62,-121.38 796.62,-163.12"/>
<text xml:space="preserve" text-anchor="start" x="663.38" y="-149.62" font-family="Helvetica,sans-Serif" font-size="10.00">llvm::MachineInstrBundle</text>
<text xml:space="preserve" text-anchor="start" x="663.38" y="-138.38" font-family="Helvetica,sans-Serif" font-size="10.00">Iterator&lt; const MachineInstr,</text>
<text xml:space="preserve" text-anchor="middle" x="726" y="-127.12" font-family="Helvetica,sans-Serif" font-size="10.00"> true &gt;</text>
</a>
</g>
</g>
<!-- Node1&#45;&gt;Node7 -->
<g id="edge6_Node000001_Node000007" class="edge">
<title>Node1&#45;&gt;Node7</title>
<g id="a_edge6_Node000001_Node000007"><a xlink:title=" ">
<path fill="none" stroke="orange" stroke-dasharray="5,2" d="M493.17,-154.84C504.01,-151.13 515.64,-147.77 526.75,-145.75 568.92,-138.09 616.96,-137.05 655.19,-138.01"/>
<polygon fill="orange" stroke="orange" points="492.28,-151.44 484.06,-158.13 494.66,-158.03 492.28,-151.44"/>
</a>
</g>
<text xml:space="preserve" text-anchor="start" x="533.12" y="-165.75" font-family="Helvetica,sans-Serif" font-size="10.00" fill="grey">&lt; const MachineInstr,</text>
<text xml:space="preserve" text-anchor="start" x="533.12" y="-150.5" font-family="Helvetica,sans-Serif" font-size="10.00" fill="grey">   true &gt;</text>
</g>
<!-- Node8 -->
<g id="Node000008" class="node">
<title>Node8</title>
<g id="a_Node000008"><a xlink:href="classllvm_1_1MachineInstrBundleIterator.html" target="_top" xlink:title=" ">
<polygon fill="white" stroke="#666666" points="796.62,-101.75 655.38,-101.75 655.38,-48.75 796.62,-48.75 796.62,-101.75"/>
<text xml:space="preserve" text-anchor="start" x="663.38" y="-88.25" font-family="Helvetica,sans-Serif" font-size="10.00">llvm::MachineInstrBundle</text>
<text xml:space="preserve" text-anchor="start" x="663.38" y="-77" font-family="Helvetica,sans-Serif" font-size="10.00">Iterator&lt; typename nonconst</text>
<text xml:space="preserve" text-anchor="start" x="663.38" y="-65.75" font-family="Helvetica,sans-Serif" font-size="10.00">_instr_iterator::value_type,</text>
<text xml:space="preserve" text-anchor="middle" x="726" y="-54.5" font-family="Helvetica,sans-Serif" font-size="10.00"> IsReverse &gt;</text>
</a>
</g>
</g>
<!-- Node1&#45;&gt;Node8 -->
<g id="edge7_Node000001_Node000008" class="edge">
<title>Node1&#45;&gt;Node8</title>
<g id="a_edge7_Node000001_Node000008"><a xlink:title=" ">
<path fill="none" stroke="orange" stroke-dasharray="5,2" d="M461.41,-148.97C475.32,-127.84 498.24,-99.06 526.75,-85.5 566.43,-66.62 615.76,-64.01 655.29,-66.14"/>
<polygon fill="orange" stroke="orange" points="458.51,-147.01 456.13,-157.34 464.43,-150.75 458.51,-147.01"/>
</a>
</g>
<text xml:space="preserve" text-anchor="start" x="533.12" y="-120.75" font-family="Helvetica,sans-Serif" font-size="10.00" fill="grey">&lt; typename nonconst</text>
<text xml:space="preserve" text-anchor="start" x="533.12" y="-105.5" font-family="Helvetica,sans-Serif" font-size="10.00" fill="grey">  _instr_iterator::value</text>
<text xml:space="preserve" text-anchor="start" x="533.12" y="-90.25" font-family="Helvetica,sans-Serif" font-size="10.00" fill="grey">  _type, IsReverse &gt;</text>
</g>
<!-- Node9 -->
<g id="Node000009" class="node">
<title>Node9</title>
<g id="a_Node000009"><a xlink:href="classllvm_1_1MachineInstrBundleIterator.html" target="_top" xlink:title=" ">
<polygon fill="white" stroke="#666666" points="790.25,-30.5 661.75,-30.5 661.75,0 790.25,0 790.25,-30.5"/>
<text xml:space="preserve" text-anchor="start" x="669.75" y="-17" font-family="Helvetica,sans-Serif" font-size="10.00">llvm::MachineInstrBundle</text>
<text xml:space="preserve" text-anchor="middle" x="726" y="-5.75" font-family="Helvetica,sans-Serif" font-size="10.00">Iterator&lt; Ty, !IsReverse &gt;</text>
</a>
</g>
</g>
<!-- Node1&#45;&gt;Node9 -->
<g id="edge8_Node000001_Node000009" class="edge">
<title>Node1&#45;&gt;Node9</title>
<g id="a_edge8_Node000001_Node000009"><a xlink:title=" ">
<path fill="none" stroke="orange" stroke-dasharray="5,2" d="M455.04,-148.08C466.25,-117.73 489.18,-68.7 526.75,-44 566.42,-17.92 620.15,-11.48 661.66,-11.15"/>
<polygon fill="orange" stroke="orange" points="451.82,-146.69 451.81,-157.28 458.42,-149.01 451.82,-146.69"/>
</a>
</g>
<text xml:space="preserve" text-anchor="start" x="539.5" y="-48.75" font-family="Helvetica,sans-Serif" font-size="10.00" fill="grey">&lt; Ty, !IsReverse &gt;</text>
</g>
<!-- Node2 -->
<g id="Node000002" class="node">
<title>Node2</title>
<g id="a_Node000002"><a xlink:href="structllvm_1_1MachineInstrBundleIteratorHelper_3_01false_01_4.html" target="_top" xlink:title=" ">
<polygon fill="white" stroke="#666666" points="345.5,-189.5 219.25,-189.5 219.25,-159 345.5,-159 345.5,-189.5"/>
<text xml:space="preserve" text-anchor="start" x="227.25" y="-176" font-family="Helvetica,sans-Serif" font-size="10.00">llvm::MachineInstrBundle</text>
<text xml:space="preserve" text-anchor="middle" x="282.38" y="-164.75" font-family="Helvetica,sans-Serif" font-size="10.00">IteratorHelper&lt; false &gt;</text>
</a>
</g>
</g>
<!-- Node2&#45;&gt;Node1 -->
<g id="edge1_Node000001_Node000002" class="edge">
<title>Node2&#45;&gt;Node1</title>
<g id="a_edge1_Node000001_Node000002"><a xlink:title=" ">
<path fill="none" stroke="#8b1a1a" d="M357.07,-174.25C365.46,-174.25 373.95,-174.25 382.18,-174.25"/>
<polygon fill="#8b1a1a" stroke="#8b1a1a" points="357.23,-170.75 347.23,-174.25 357.23,-177.75 357.23,-170.75"/>
</a>
</g>
</g>
<!-- Node3 -->
<g id="Node000003" class="node">
<title>Node3</title>
<g id="a_Node000003"><a xlink:href="structllvm_1_1MachineInstrBundleIteratorHelper.html" target="_top" xlink:title=" ">
<polygon fill="white" stroke="#666666" points="138.25,-189.5 0,-189.5 0,-159 138.25,-159 138.25,-189.5"/>
<text xml:space="preserve" text-anchor="start" x="8" y="-176" font-family="Helvetica,sans-Serif" font-size="10.00">llvm::MachineInstrBundle</text>
<text xml:space="preserve" text-anchor="middle" x="69.12" y="-164.75" font-family="Helvetica,sans-Serif" font-size="10.00">IteratorHelper&lt; IsReverse &gt;</text>
</a>
</g>
</g>
<!-- Node3&#45;&gt;Node2 -->
<g id="edge2_Node000002_Node000003" class="edge">
<title>Node3&#45;&gt;Node2</title>
<g id="a_edge2_Node000002_Node000003"><a xlink:title=" ">
<path fill="none" stroke="orange" stroke-dasharray="5,2" d="M150.08,-174.25C172.84,-174.25 197.29,-174.25 218.85,-174.25"/>
<polygon fill="orange" stroke="orange" points="150.23,-170.75 140.23,-174.25 150.23,-177.75 150.23,-170.75"/>
</a>
</g>
<text xml:space="preserve" text-anchor="start" x="159.25" y="-179" font-family="Helvetica,sans-Serif" font-size="10.00" fill="grey">&lt; false &gt;</text>
</g>
</g>
</svg>
