<?xml version="1.0" encoding="UTF-8" standalone="no"?>
<!DOCTYPE svg PUBLIC "-//W3C//DTD SVG 1.1//EN"
 "http://www.w3.org/Graphics/SVG/1.1/DTD/svg11.dtd">
<!-- Generated by graphviz version 13.1.2 (20250808.2320)
 -->
<!-- Title: llvm::SelectionDAGISelPass Pages: 1 -->
<svg width="356pt" height="235pt"
 viewBox="0.00 0.00 356.00 235.00" xmlns="http://www.w3.org/2000/svg" xmlns:xlink="http://www.w3.org/1999/xlink">
<g id="graph0" class="graph" transform="scale(1 1) rotate(0) translate(4 230.75)">
<title>llvm::SelectionDAGISelPass</title>
<!-- Node1 -->
<g id="Node000001" class="node">
<title>Node1</title>
<g id="a_Node000001"><a xlink:title=" ">
<polygon fill="#999999" stroke="#666666" points="251,-75.5 109,-75.5 109,-56.25 251,-56.25 251,-75.5"/>
<text xml:space="preserve" text-anchor="middle" x="180" y="-62" font-family="Helvetica,sans-Serif" font-size="10.00">llvm::SelectionDAGISelPass</text>
</a>
</g>
</g>
<!-- Node4 -->
<g id="Node000004" class="node">
<title>Node4</title>
<g id="a_Node000004"><a xlink:href="classllvm_1_1AMDGPUISelDAGToDAGPass.html" target="_top" xlink:title=" ">
<polygon fill="white" stroke="#666666" points="178,-19.25 0,-19.25 0,0 178,0 178,-19.25"/>
<text xml:space="preserve" text-anchor="middle" x="89" y="-5.75" font-family="Helvetica,sans-Serif" font-size="10.00">llvm::AMDGPUISelDAGToDAGPass</text>
</a>
</g>
</g>
<!-- Node1&#45;&gt;Node4 -->
<g id="edge3_Node000001_Node000004" class="edge">
<title>Node1&#45;&gt;Node4</title>
<g id="a_edge3_Node000001_Node000004"><a xlink:title=" ">
<path fill="none" stroke="#63b8ff" d="M155.47,-50.25C139.07,-40.47 118.02,-27.93 104.05,-19.6"/>
<polygon fill="#63b8ff" stroke="#63b8ff" points="153.29,-53.03 163.67,-55.14 156.88,-47.01 153.29,-53.03"/>
</a>
</g>
</g>
<!-- Node5 -->
<g id="Node000005" class="node">
<title>Node5</title>
<g id="a_Node000005"><a xlink:href="classllvm_1_1X86ISelDAGToDAGPass.html" target="_top" xlink:title=" ">
<polygon fill="white" stroke="#666666" points="347.5,-19.25 196.5,-19.25 196.5,0 347.5,0 347.5,-19.25"/>
<text xml:space="preserve" text-anchor="middle" x="272" y="-5.75" font-family="Helvetica,sans-Serif" font-size="10.00">llvm::X86ISelDAGToDAGPass</text>
</a>
</g>
</g>
<!-- Node1&#45;&gt;Node5 -->
<g id="edge4_Node000001_Node000005" class="edge">
<title>Node1&#45;&gt;Node5</title>
<g id="a_edge4_Node000001_Node000005"><a xlink:title=" ">
<path fill="none" stroke="#63b8ff" d="M204.8,-50.25C221.38,-40.47 242.66,-27.93 256.79,-19.6"/>
<polygon fill="#63b8ff" stroke="#63b8ff" points="203.33,-47.05 196.5,-55.15 206.89,-53.08 203.33,-47.05"/>
</a>
</g>
</g>
<!-- Node2 -->
<g id="Node000002" class="node">
<title>Node2</title>
<g id="a_Node000002"><a xlink:href="structllvm_1_1PassInfoMixin.html" target="_top" xlink:title=" ">
<polygon fill="white" stroke="#666666" points="248,-143 112,-143 112,-112.5 248,-112.5 248,-143"/>
<text xml:space="preserve" text-anchor="start" x="120" y="-129.5" font-family="Helvetica,sans-Serif" font-size="10.00">llvm::PassInfoMixin</text>
<text xml:space="preserve" text-anchor="middle" x="180" y="-118.25" font-family="Helvetica,sans-Serif" font-size="10.00">&lt; SelectionDAGISelPass &gt;</text>
</a>
</g>
</g>
<!-- Node2&#45;&gt;Node1 -->
<g id="edge1_Node000001_Node000002" class="edge">
<title>Node2&#45;&gt;Node1</title>
<g id="a_edge1_Node000001_Node000002"><a xlink:title=" ">
<path fill="none" stroke="#63b8ff" d="M180,-101.02C180,-92.04 180,-82.54 180,-75.85"/>
<polygon fill="#63b8ff" stroke="#63b8ff" points="176.5,-100.74 180,-110.74 183.5,-100.74 176.5,-100.74"/>
</a>
</g>
</g>
<!-- Node3 -->
<g id="Node000003" class="node">
<title>Node3</title>
<g id="a_Node000003"><a xlink:href="structllvm_1_1PassInfoMixin.html" target="_top" xlink:title="A CRTP mix&#45;in to automatically provide informational APIs needed for passes.">
<polygon fill="white" stroke="#666666" points="231.12,-226.75 128.88,-226.75 128.88,-196.25 231.12,-196.25 231.12,-226.75"/>
<text xml:space="preserve" text-anchor="start" x="136.88" y="-213.25" font-family="Helvetica,sans-Serif" font-size="10.00">llvm::PassInfoMixin</text>
<text xml:space="preserve" text-anchor="middle" x="180" y="-202" font-family="Helvetica,sans-Serif" font-size="10.00">&lt; DerivedT &gt;</text>
</a>
</g>
</g>
<!-- Node3&#45;&gt;Node2 -->
<g id="edge2_Node000002_Node000003" class="edge">
<title>Node3&#45;&gt;Node2</title>
<g id="a_edge2_Node000002_Node000003"><a xlink:title=" ">
<path fill="none" stroke="orange" stroke-dasharray="5,2" d="M180,-184.72C180,-171.03 180,-154.71 180,-143.24"/>
<polygon fill="orange" stroke="orange" points="176.5,-184.37 180,-194.37 183.5,-184.37 176.5,-184.37"/>
</a>
</g>
<text xml:space="preserve" text-anchor="start" x="183" y="-165.75" font-family="Helvetica,sans-Serif" font-size="10.00" fill="grey">&lt; SelectionDAGISelPass &gt;</text>
</g>
</g>
</svg>
