<?xml version="1.0" encoding="UTF-8" standalone="no"?>
<!DOCTYPE svg PUBLIC "-//W3C//DTD SVG 1.1//EN"
 "http://www.w3.org/Graphics/SVG/1.1/DTD/svg11.dtd">
<!-- Generated by graphviz version 13.1.2 (20250808.2320)
 -->
<!-- Title: llvm::CrashRecoveryContextDeleteCleanup&lt; T &gt; Pages: 1 -->
<svg width="879pt" height="65pt"
 viewBox="0.00 0.00 879.00 65.00" xmlns="http://www.w3.org/2000/svg" xmlns:xlink="http://www.w3.org/1999/xlink">
<g id="graph0" class="graph" transform="scale(1 1) rotate(0) translate(4 61.12)">
<title>llvm::CrashRecoveryContextDeleteCleanup&lt; T &gt;</title>
<!-- Node1 -->
<g id="Node000001" class="node">
<title>Node1</title>
<g id="a_Node000001"><a xlink:title="Cleanup handler that reclaims resource by calling &#39;delete&#39; on it.">
<polygon fill="#999999" stroke="#666666" points="870.75,-51.5 728,-51.5 728,-21 870.75,-21 870.75,-51.5"/>
<text xml:space="preserve" text-anchor="start" x="736" y="-38" font-family="Helvetica,sans-Serif" font-size="10.00">llvm::CrashRecoveryContext</text>
<text xml:space="preserve" text-anchor="middle" x="799.38" y="-26.75" font-family="Helvetica,sans-Serif" font-size="10.00">DeleteCleanup&lt; T &gt;</text>
</a>
</g>
</g>
<!-- Node2 -->
<g id="Node000002" class="node">
<title>Node2</title>
<g id="a_Node000002"><a xlink:href="classllvm_1_1CrashRecoveryContextCleanupBase.html" target="_top" xlink:title=" ">
<polygon fill="white" stroke="#666666" points="691,-57.12 504.75,-57.12 504.75,-15.38 691,-15.38 691,-57.12"/>
<text xml:space="preserve" text-anchor="start" x="512.75" y="-43.62" font-family="Helvetica,sans-Serif" font-size="10.00">llvm::CrashRecoveryContext</text>
<text xml:space="preserve" text-anchor="start" x="512.75" y="-32.38" font-family="Helvetica,sans-Serif" font-size="10.00">CleanupBase&lt; CrashRecoveryContext</text>
<text xml:space="preserve" text-anchor="middle" x="597.88" y="-21.12" font-family="Helvetica,sans-Serif" font-size="10.00">DeleteCleanup&lt; T &gt;, T &gt;</text>
</a>
</g>
</g>
<!-- Node2&#45;&gt;Node1 -->
<g id="edge1_Node000001_Node000002" class="edge">
<title>Node2&#45;&gt;Node1</title>
<g id="a_edge1_Node000001_Node000002"><a xlink:title=" ">
<path fill="none" stroke="#63b8ff" d="M702.81,-36.25C711.23,-36.25 719.62,-36.25 727.72,-36.25"/>
<polygon fill="#63b8ff" stroke="#63b8ff" points="702.84,-32.75 692.84,-36.25 702.84,-39.75 702.84,-32.75"/>
</a>
</g>
</g>
<!-- Node3 -->
<g id="Node000003" class="node">
<title>Node3</title>
<g id="a_Node000003"><a xlink:href="classllvm_1_1CrashRecoveryContextCleanup.html" target="_top" xlink:title="Abstract base class of cleanup handlers.">
<polygon fill="white" stroke="#666666" points="142.75,-53.5 0,-53.5 0,-23 142.75,-23 142.75,-53.5"/>
<text xml:space="preserve" text-anchor="start" x="8" y="-40" font-family="Helvetica,sans-Serif" font-size="10.00">llvm::CrashRecoveryContext</text>
<text xml:space="preserve" text-anchor="middle" x="71.38" y="-28.75" font-family="Helvetica,sans-Serif" font-size="10.00">Cleanup</text>
</a>
</g>
</g>
<!-- Node3&#45;&gt;Node2 -->
<g id="edge2_Node000002_Node000003" class="edge">
<title>Node3&#45;&gt;Node2</title>
<g id="a_edge2_Node000002_Node000003"><a xlink:title=" ">
<path fill="none" stroke="#63b8ff" d="M154.63,-42.96C238.27,-47.02 371.59,-51.47 486.75,-46.25 492.5,-45.99 498.42,-45.65 504.38,-45.26"/>
<polygon fill="#63b8ff" stroke="#63b8ff" points="154.84,-39.47 144.68,-42.47 154.49,-46.46 154.84,-39.47"/>
</a>
</g>
</g>
<!-- Node4 -->
<g id="Node000004" class="node">
<title>Node4</title>
<g id="a_Node000004"><a xlink:href="classllvm_1_1CrashRecoveryContextCleanupBase.html" target="_top" xlink:title="Base class of cleanup handler that controls recovery of resources of the given type.">
<polygon fill="white" stroke="#666666" points="322.5,-30.5 179.75,-30.5 179.75,0 322.5,0 322.5,-30.5"/>
<text xml:space="preserve" text-anchor="start" x="187.75" y="-17" font-family="Helvetica,sans-Serif" font-size="10.00">llvm::CrashRecoveryContext</text>
<text xml:space="preserve" text-anchor="middle" x="251.12" y="-5.75" font-family="Helvetica,sans-Serif" font-size="10.00">CleanupBase&lt; Derived, T &gt;</text>
</a>
</g>
</g>
<!-- Node3&#45;&gt;Node4 -->
<g id="edge4_Node000004_Node000003" class="edge">
<title>Node3&#45;&gt;Node4</title>
<g id="a_edge4_Node000004_Node000003"><a xlink:title=" ">
<path fill="none" stroke="#63b8ff" d="M154.41,-27.64C162.73,-26.56 171.13,-25.47 179.32,-24.41"/>
<polygon fill="#63b8ff" stroke="#63b8ff" points="154.11,-24.15 144.64,-28.9 155,-31.09 154.11,-24.15"/>
</a>
</g>
</g>
<!-- Node4&#45;&gt;Node2 -->
<g id="edge3_Node000002_Node000004" class="edge">
<title>Node4&#45;&gt;Node2</title>
<g id="a_edge3_Node000002_Node000004"><a xlink:title=" ">
<path fill="none" stroke="orange" stroke-dasharray="5,2" d="M333.86,-13.81C336.1,-13.79 338.31,-13.77 340.5,-13.75 405.5,-13.2 422.08,-7.21 486.75,-13.75 492.48,-14.33 498.35,-15.07 504.25,-15.94"/>
<polygon fill="orange" stroke="orange" points="334.02,-10.31 324.06,-13.93 334.11,-17.31 334.02,-10.31"/>
</a>
</g>
<text xml:space="preserve" text-anchor="start" x="343.5" y="-33.75" font-family="Helvetica,sans-Serif" font-size="10.00" fill="grey">&lt; CrashRecoveryContextDelete</text>
<text xml:space="preserve" text-anchor="start" x="343.5" y="-18.5" font-family="Helvetica,sans-Serif" font-size="10.00" fill="grey">  Cleanup&lt; T &gt;, T &gt;</text>
</g>
</g>
</svg>
