<?xml version="1.0" encoding="UTF-8" standalone="no"?>
<!DOCTYPE svg PUBLIC "-//W3C//DTD SVG 1.1//EN"
 "http://www.w3.org/Graphics/SVG/1.1/DTD/svg11.dtd">
<!-- Generated by graphviz version 13.1.2 (20250808.2320)
 -->
<!-- Title: llvm::SimpleDDGNode Pages: 1 -->
<svg width="196pt" height="224pt"
 viewBox="0.00 0.00 196.00 224.00" xmlns="http://www.w3.org/2000/svg" xmlns:xlink="http://www.w3.org/1999/xlink">
<g id="graph0" class="graph" transform="scale(1 1) rotate(0) translate(4 219.5)">
<title>llvm::SimpleDDGNode</title>
<!-- Node1 -->
<g id="Node000001" class="node">
<title>Node1</title>
<g id="a_Node000001"><a xlink:title="Subclass of DDGNode representing single or multi&#45;instruction nodes.">
<polygon fill="#999999" stroke="#666666" points="125.12,-19.25 9.38,-19.25 9.38,0 125.12,0 125.12,-19.25"/>
<text xml:space="preserve" text-anchor="middle" x="67.25" y="-5.75" font-family="Helvetica,sans-Serif" font-size="10.00">llvm::SimpleDDGNode</text>
</a>
</g>
</g>
<!-- Node2 -->
<g id="Node000002" class="node">
<title>Node2</title>
<g id="a_Node000002"><a xlink:href="classllvm_1_1DDGNode.html" target="_top" xlink:title="Data Dependence Graph Node The graph can represent the following types of nodes:">
<polygon fill="white" stroke="#666666" points="110.12,-75.5 24.38,-75.5 24.38,-56.25 110.12,-56.25 110.12,-75.5"/>
<text xml:space="preserve" text-anchor="middle" x="67.25" y="-62" font-family="Helvetica,sans-Serif" font-size="10.00">llvm::DDGNode</text>
</a>
</g>
</g>
<!-- Node2&#45;&gt;Node1 -->
<g id="edge1_Node000001_Node000002" class="edge">
<title>Node2&#45;&gt;Node1</title>
<g id="a_edge1_Node000001_Node000002"><a xlink:title=" ">
<path fill="none" stroke="#63b8ff" d="M67.25,-44.69C67.25,-35.98 67.25,-26.24 67.25,-19.42"/>
<polygon fill="#63b8ff" stroke="#63b8ff" points="63.75,-44.4 67.25,-54.4 70.75,-44.4 63.75,-44.4"/>
</a>
</g>
</g>
<!-- Node3 -->
<g id="Node000003" class="node">
<title>Node3</title>
<g id="a_Node000003"><a xlink:href="classllvm_1_1DGNode.html" target="_top" xlink:title=" ">
<polygon fill="white" stroke="#666666" points="109.38,-131.75 25.12,-131.75 25.12,-112.5 109.38,-112.5 109.38,-131.75"/>
<text xml:space="preserve" text-anchor="middle" x="67.25" y="-118.25" font-family="Helvetica,sans-Serif" font-size="10.00">DDGNodeBase</text>
</a>
</g>
</g>
<!-- Node3&#45;&gt;Node2 -->
<g id="edge2_Node000002_Node000003" class="edge">
<title>Node3&#45;&gt;Node2</title>
<g id="a_edge2_Node000002_Node000003"><a xlink:title=" ">
<path fill="none" stroke="#63b8ff" d="M67.25,-100.94C67.25,-92.23 67.25,-82.49 67.25,-75.67"/>
<polygon fill="#63b8ff" stroke="#63b8ff" points="63.75,-100.65 67.25,-110.65 70.75,-100.65 63.75,-100.65"/>
</a>
</g>
</g>
<!-- Node4 -->
<g id="Node000004" class="node">
<title>Node4</title>
<g id="a_Node000004"><a xlink:href="classllvm_1_1DGNode.html" target="_top" xlink:title="Represent a node in the directed graph.">
<polygon fill="white" stroke="#666666" points="134.5,-215.5 0,-215.5 0,-185 134.5,-185 134.5,-215.5"/>
<text xml:space="preserve" text-anchor="start" x="8" y="-202" font-family="Helvetica,sans-Serif" font-size="10.00">llvm::DGNode&lt; NodeType,</text>
<text xml:space="preserve" text-anchor="middle" x="67.25" y="-190.75" font-family="Helvetica,sans-Serif" font-size="10.00"> EdgeType &gt;</text>
</a>
</g>
</g>
<!-- Node4&#45;&gt;Node3 -->
<g id="edge3_Node000003_Node000004" class="edge">
<title>Node4&#45;&gt;Node3</title>
<g id="a_edge3_Node000003_Node000004"><a xlink:title=" ">
<path fill="none" stroke="orange" stroke-dasharray="5,2" d="M67.25,-173.35C67.25,-159.03 67.25,-142.13 67.25,-132.04"/>
<polygon fill="orange" stroke="orange" points="63.75,-173.06 67.25,-183.06 70.75,-173.06 63.75,-173.06"/>
</a>
</g>
<text xml:space="preserve" text-anchor="start" x="70.25" y="-154.5" font-family="Helvetica,sans-Serif" font-size="10.00" fill="grey">&lt; DDGNode, DDGEdge &gt;</text>
</g>
</g>
</svg>
