<?xml version="1.0" encoding="UTF-8" standalone="no"?>
<!DOCTYPE svg PUBLIC "-//W3C//DTD SVG 1.1//EN"
 "http://www.w3.org/Graphics/SVG/1.1/DTD/svg11.dtd">
<!-- Generated by graphviz version 13.1.2 (20250808.2320)
 -->
<!-- Title: llvm::MCTargetStreamer Pages: 1 -->
<svg width="561pt" height="1037pt"
 viewBox="0.00 0.00 561.00 1037.00" xmlns="http://www.w3.org/2000/svg" xmlns:xlink="http://www.w3.org/1999/xlink">
<g id="graph0" class="graph" transform="scale(1 1) rotate(0) translate(4 1033.25)">
<title>llvm::MCTargetStreamer</title>
<!-- Node1 -->
<g id="Node000001" class="node">
<title>Node1</title>
<g id="a_Node000001"><a xlink:title="Target specific streamer interface.">
<polygon fill="#999999" stroke="#666666" points="122.5,-573.25 0,-573.25 0,-554 122.5,-554 122.5,-573.25"/>
<text xml:space="preserve" text-anchor="middle" x="61.25" y="-559.75" font-family="Helvetica,sans-Serif" font-size="10.00">llvm::MCTargetStreamer</text>
</a>
</g>
</g>
<!-- Node2 -->
<g id="Node000002" class="node">
<title>Node2</title>
<g id="a_Node000002"><a xlink:href="classllvm_1_1AArch64TargetStreamer.html" target="_top" xlink:title=" ">
<polygon fill="white" stroke="#666666" points="315.5,-992.25 171.25,-992.25 171.25,-973 315.5,-973 315.5,-992.25"/>
<text xml:space="preserve" text-anchor="middle" x="243.38" y="-978.75" font-family="Helvetica,sans-Serif" font-size="10.00">llvm::AArch64TargetStreamer</text>
</a>
</g>
</g>
<!-- Node1&#45;&gt;Node2 -->
<g id="edge1_Node000001_Node000002" class="edge">
<title>Node1&#45;&gt;Node2</title>
<g id="a_edge1_Node000001_Node000002"><a xlink:title=" ">
<path fill="none" stroke="#63b8ff" d="M62.73,-584.99C65.06,-644.83 78.75,-816.96 158.5,-927.62 173.57,-948.53 199.25,-963.65 218.23,-972.68"/>
<polygon fill="#63b8ff" stroke="#63b8ff" points="66.23,-585.1 62.42,-575.21 59.23,-585.31 66.23,-585.1"/>
</a>
</g>
</g>
<!-- Node5 -->
<g id="Node000005" class="node">
<title>Node5</title>
<g id="a_Node000005"><a xlink:href="classllvm_1_1AMDGPUTargetStreamer.html" target="_top" xlink:title=" ">
<polygon fill="white" stroke="#666666" points="318.88,-918.25 167.88,-918.25 167.88,-899 318.88,-899 318.88,-918.25"/>
<text xml:space="preserve" text-anchor="middle" x="243.38" y="-904.75" font-family="Helvetica,sans-Serif" font-size="10.00">llvm::AMDGPUTargetStreamer</text>
</a>
</g>
</g>
<!-- Node1&#45;&gt;Node5 -->
<g id="edge4_Node000001_Node000005" class="edge">
<title>Node1&#45;&gt;Node5</title>
<g id="a_edge4_Node000001_Node000005"><a xlink:title=" ">
<path fill="none" stroke="#63b8ff" d="M62.06,-585.2C62.78,-642.53 72.85,-800.05 158.5,-884.62 164.64,-890.69 172.21,-895.25 180.26,-898.66"/>
<polygon fill="#63b8ff" stroke="#63b8ff" points="65.56,-585.21 62.04,-575.22 58.56,-585.23 65.56,-585.21"/>
</a>
</g>
</g>
<!-- Node8 -->
<g id="Node000008" class="node">
<title>Node8</title>
<g id="a_Node000008"><a xlink:href="classllvm_1_1ARCTargetStreamer.html" target="_top" xlink:title=" ">
<polygon fill="white" stroke="#666666" points="307.62,-875.25 179.12,-875.25 179.12,-856 307.62,-856 307.62,-875.25"/>
<text xml:space="preserve" text-anchor="middle" x="243.38" y="-861.75" font-family="Helvetica,sans-Serif" font-size="10.00">llvm::ARCTargetStreamer</text>
</a>
</g>
</g>
<!-- Node1&#45;&gt;Node8 -->
<g id="edge7_Node000001_Node000008" class="edge">
<title>Node1&#45;&gt;Node8</title>
<g id="a_edge7_Node000001_Node000008"><a xlink:title=" ">
<path fill="none" stroke="#63b8ff" d="M62.71,-584.78C65.08,-637.73 78.95,-776.76 158.5,-847.62 164.39,-852.88 171.44,-856.72 178.91,-859.52"/>
<polygon fill="#63b8ff" stroke="#63b8ff" points="66.22,-584.92 62.38,-575.04 59.22,-585.15 66.22,-584.92"/>
</a>
</g>
</g>
<!-- Node9 -->
<g id="Node000009" class="node">
<title>Node9</title>
<g id="a_Node000009"><a xlink:href="classllvm_1_1ARMTargetStreamer.html" target="_top" xlink:title=" ">
<polygon fill="white" stroke="#666666" points="308,-838.25 178.75,-838.25 178.75,-819 308,-819 308,-838.25"/>
<text xml:space="preserve" text-anchor="middle" x="243.38" y="-824.75" font-family="Helvetica,sans-Serif" font-size="10.00">llvm::ARMTargetStreamer</text>
</a>
</g>
</g>
<!-- Node1&#45;&gt;Node9 -->
<g id="edge8_Node000001_Node000009" class="edge">
<title>Node1&#45;&gt;Node9</title>
<g id="a_edge8_Node000001_Node000009"><a xlink:title=" ">
<path fill="none" stroke="#63b8ff" d="M63.95,-584.91C68.97,-633.05 88.2,-750.77 158.5,-810.62 164.28,-815.55 171.09,-819.23 178.29,-821.96"/>
<polygon fill="#63b8ff" stroke="#63b8ff" points="67.44,-584.66 63.03,-575.02 60.47,-585.3 67.44,-584.66"/>
</a>
</g>
</g>
<!-- Node10 -->
<g id="Node000010" class="node">
<title>Node10</title>
<g id="a_Node000010"><a xlink:href="classllvm_1_1AVRTargetStreamer.html" target="_top" xlink:title="A generic AVR target output stream.">
<polygon fill="white" stroke="#666666" points="306.5,-801.25 180.25,-801.25 180.25,-782 306.5,-782 306.5,-801.25"/>
<text xml:space="preserve" text-anchor="middle" x="243.38" y="-787.75" font-family="Helvetica,sans-Serif" font-size="10.00">llvm::AVRTargetStreamer</text>
</a>
</g>
</g>
<!-- Node1&#45;&gt;Node10 -->
<g id="edge9_Node000001_Node000010" class="edge">
<title>Node1&#45;&gt;Node10</title>
<g id="a_edge9_Node000001_Node000010"><a xlink:title=" ">
<path fill="none" stroke="#63b8ff" d="M65.51,-584.61C73.3,-627.3 97.14,-724.39 158.5,-773.62 164.77,-778.66 172.13,-782.37 179.84,-785.09"/>
<polygon fill="#63b8ff" stroke="#63b8ff" points="68.99,-584.2 63.87,-574.93 62.09,-585.37 68.99,-584.2"/>
</a>
</g>
</g>
<!-- Node13 -->
<g id="Node000013" class="node">
<title>Node13</title>
<g id="a_Node000013"><a xlink:href="classllvm_1_1CSKYTargetStreamer.html" target="_top" xlink:title=" ">
<polygon fill="white" stroke="#666666" points="310.62,-764.25 176.12,-764.25 176.12,-745 310.62,-745 310.62,-764.25"/>
<text xml:space="preserve" text-anchor="middle" x="243.38" y="-750.75" font-family="Helvetica,sans-Serif" font-size="10.00">llvm::CSKYTargetStreamer</text>
</a>
</g>
</g>
<!-- Node1&#45;&gt;Node13 -->
<g id="edge12_Node000001_Node000013" class="edge">
<title>Node1&#45;&gt;Node13</title>
<g id="a_edge12_Node000001_Node000013"><a xlink:title=" ">
<path fill="none" stroke="#63b8ff" d="M68.55,-584.6C80.3,-620.1 108.97,-691.92 158.5,-730.62 166.26,-736.69 175.48,-741.22 184.93,-744.6"/>
<polygon fill="#63b8ff" stroke="#63b8ff" points="71.9,-583.59 65.55,-575.12 65.23,-585.71 71.9,-583.59"/>
</a>
</g>
</g>
<!-- Node16 -->
<g id="Node000016" class="node">
<title>Node16</title>
<g id="a_Node000016"><a xlink:href="classllvm_1_1HexagonTargetStreamer.html" target="_top" xlink:title=" ">
<polygon fill="white" stroke="#666666" points="316.25,-721.25 170.5,-721.25 170.5,-702 316.25,-702 316.25,-721.25"/>
<text xml:space="preserve" text-anchor="middle" x="243.38" y="-707.75" font-family="Helvetica,sans-Serif" font-size="10.00">llvm::HexagonTargetStreamer</text>
</a>
</g>
</g>
<!-- Node1&#45;&gt;Node16 -->
<g id="edge15_Node000001_Node000016" class="edge">
<title>Node1&#45;&gt;Node16</title>
<g id="a_edge15_Node000001_Node000016"><a xlink:title=" ">
<path fill="none" stroke="#63b8ff" d="M71.41,-583.91C85.66,-613.04 115.99,-666.23 158.5,-693.62 163.38,-696.77 168.72,-699.38 174.27,-701.53"/>
<polygon fill="#63b8ff" stroke="#63b8ff" points="74.67,-582.62 67.24,-575.07 68.33,-585.6 74.67,-582.62"/>
</a>
</g>
</g>
<!-- Node17 -->
<g id="Node000017" class="node">
<title>Node17</title>
<g id="a_Node000017"><a xlink:href="classllvm_1_1LoongArchTargetStreamer.html" target="_top" xlink:title=" ">
<polygon fill="white" stroke="#666666" points="320,-684.25 166.75,-684.25 166.75,-665 320,-665 320,-684.25"/>
<text xml:space="preserve" text-anchor="middle" x="243.38" y="-670.75" font-family="Helvetica,sans-Serif" font-size="10.00">llvm::LoongArchTargetStreamer</text>
</a>
</g>
</g>
<!-- Node1&#45;&gt;Node17 -->
<g id="edge16_Node000001_Node000017" class="edge">
<title>Node1&#45;&gt;Node17</title>
<g id="a_edge16_Node000001_Node000017"><a xlink:title=" ">
<path fill="none" stroke="#63b8ff" d="M76.27,-582.44C93.28,-603.85 124.01,-638.23 158.5,-656.62 164.41,-659.78 170.84,-662.38 177.42,-664.52"/>
<polygon fill="#63b8ff" stroke="#63b8ff" points="79.26,-580.59 70.38,-574.81 73.72,-584.87 79.26,-580.59"/>
</a>
</g>
</g>
<!-- Node20 -->
<g id="Node000020" class="node">
<title>Node20</title>
<g id="a_Node000020"><a xlink:href="classllvm_1_1MSP430TargetELFStreamer.html" target="_top" xlink:title=" ">
<polygon fill="white" stroke="#666666" points="324.5,-647.25 162.25,-647.25 162.25,-628 324.5,-628 324.5,-647.25"/>
<text xml:space="preserve" text-anchor="middle" x="243.38" y="-633.75" font-family="Helvetica,sans-Serif" font-size="10.00">llvm::MSP430TargetELFStreamer</text>
</a>
</g>
</g>
<!-- Node1&#45;&gt;Node20 -->
<g id="edge19_Node000001_Node000020" class="edge">
<title>Node1&#45;&gt;Node20</title>
<g id="a_edge19_Node000001_Node000020"><a xlink:title=" ">
<path fill="none" stroke="#63b8ff" d="M85.72,-580.12C104.58,-592.67 132.18,-609.44 158.5,-619.62 166.56,-622.74 175.27,-625.37 183.92,-627.57"/>
<polygon fill="#63b8ff" stroke="#63b8ff" points="87.7,-577.23 77.46,-574.51 83.76,-583.03 87.7,-577.23"/>
</a>
</g>
</g>
<!-- Node21 -->
<g id="Node000021" class="node">
<title>Node21</title>
<g id="a_Node000021"><a xlink:href="classllvm_1_1MipsTargetStreamer.html" target="_top" xlink:title=" ">
<polygon fill="white" stroke="#666666" points="307.25,-610.25 179.5,-610.25 179.5,-591 307.25,-591 307.25,-610.25"/>
<text xml:space="preserve" text-anchor="middle" x="243.38" y="-596.75" font-family="Helvetica,sans-Serif" font-size="10.00">llvm::MipsTargetStreamer</text>
</a>
</g>
</g>
<!-- Node1&#45;&gt;Node21 -->
<g id="edge20_Node000001_Node000021" class="edge">
<title>Node1&#45;&gt;Node21</title>
<g id="a_edge20_Node000001_Node000021"><a xlink:title=" ">
<path fill="none" stroke="#63b8ff" d="M122.49,-576C145.47,-580.72 171.38,-586.04 193.21,-590.53"/>
<polygon fill="#63b8ff" stroke="#63b8ff" points="123.45,-572.62 112.95,-574.04 122.04,-579.48 123.45,-572.62"/>
</a>
</g>
</g>
<!-- Node24 -->
<g id="Node000024" class="node">
<title>Node24</title>
<g id="a_Node000024"><a xlink:href="classllvm_1_1NVPTXTargetStreamer.html" target="_top" xlink:title="Implments NVPTX&#45;specific streamer.">
<polygon fill="white" stroke="#666666" points="313.62,-573.25 173.12,-573.25 173.12,-554 313.62,-554 313.62,-573.25"/>
<text xml:space="preserve" text-anchor="middle" x="243.38" y="-559.75" font-family="Helvetica,sans-Serif" font-size="10.00">llvm::NVPTXTargetStreamer</text>
</a>
</g>
</g>
<!-- Node1&#45;&gt;Node24 -->
<g id="edge23_Node000001_Node000024" class="edge">
<title>Node1&#45;&gt;Node24</title>
<g id="a_edge23_Node000001_Node000024"><a xlink:title=" ">
<path fill="none" stroke="#63b8ff" d="M134.45,-563.62C147.13,-563.62 160.3,-563.62 172.9,-563.62"/>
<polygon fill="#63b8ff" stroke="#63b8ff" points="134.49,-560.13 124.49,-563.63 134.49,-567.13 134.49,-560.13"/>
</a>
</g>
</g>
<!-- Node26 -->
<g id="Node000026" class="node">
<title>Node26</title>
<g id="a_Node000026"><a xlink:href="classllvm_1_1PPCTargetStreamer.html" target="_top" xlink:title=" ">
<polygon fill="white" stroke="#666666" points="307.25,-536.25 179.5,-536.25 179.5,-517 307.25,-517 307.25,-536.25"/>
<text xml:space="preserve" text-anchor="middle" x="243.38" y="-522.75" font-family="Helvetica,sans-Serif" font-size="10.00">llvm::PPCTargetStreamer</text>
</a>
</g>
</g>
<!-- Node1&#45;&gt;Node26 -->
<g id="edge25_Node000001_Node000026" class="edge">
<title>Node1&#45;&gt;Node26</title>
<g id="a_edge25_Node000001_Node000026"><a xlink:title=" ">
<path fill="none" stroke="#63b8ff" d="M122.49,-551.25C145.47,-546.53 171.38,-541.21 193.21,-536.72"/>
<polygon fill="#63b8ff" stroke="#63b8ff" points="122.04,-547.77 112.95,-553.21 123.45,-554.63 122.04,-547.77"/>
</a>
</g>
</g>
<!-- Node27 -->
<g id="Node000027" class="node">
<title>Node27</title>
<g id="a_Node000027"><a xlink:href="classllvm_1_1RISCVTargetStreamer.html" target="_top" xlink:title=" ">
<polygon fill="white" stroke="#666666" points="312.5,-499.25 174.25,-499.25 174.25,-480 312.5,-480 312.5,-499.25"/>
<text xml:space="preserve" text-anchor="middle" x="243.38" y="-485.75" font-family="Helvetica,sans-Serif" font-size="10.00">llvm::RISCVTargetStreamer</text>
</a>
</g>
</g>
<!-- Node1&#45;&gt;Node27 -->
<g id="edge26_Node000001_Node000027" class="edge">
<title>Node1&#45;&gt;Node27</title>
<g id="a_edge26_Node000001_Node000027"><a xlink:title=" ">
<path fill="none" stroke="#63b8ff" d="M85.72,-547.13C104.58,-534.58 132.18,-517.81 158.5,-507.62 166.56,-504.51 175.27,-501.88 183.92,-499.68"/>
<polygon fill="#63b8ff" stroke="#63b8ff" points="83.76,-544.22 77.46,-552.74 87.7,-550.02 83.76,-544.22"/>
</a>
</g>
</g>
<!-- Node30 -->
<g id="Node000030" class="node">
<title>Node30</title>
<g id="a_Node000030"><a xlink:href="classllvm_1_1SPIRVTargetStreamer.html" target="_top" xlink:title=" ">
<polygon fill="white" stroke="#666666" points="312.12,-462.25 174.62,-462.25 174.62,-443 312.12,-443 312.12,-462.25"/>
<text xml:space="preserve" text-anchor="middle" x="243.38" y="-448.75" font-family="Helvetica,sans-Serif" font-size="10.00">llvm::SPIRVTargetStreamer</text>
</a>
</g>
</g>
<!-- Node1&#45;&gt;Node30 -->
<g id="edge29_Node000001_Node000030" class="edge">
<title>Node1&#45;&gt;Node30</title>
<g id="a_edge29_Node000001_Node000030"><a xlink:title=" ">
<path fill="none" stroke="#63b8ff" d="M76.27,-544.81C93.28,-523.4 124.01,-489.02 158.5,-470.62 164.41,-467.47 170.84,-464.87 177.42,-462.73"/>
<polygon fill="#63b8ff" stroke="#63b8ff" points="73.72,-542.38 70.38,-552.44 79.26,-546.66 73.72,-542.38"/>
</a>
</g>
</g>
<!-- Node31 -->
<g id="Node000031" class="node">
<title>Node31</title>
<g id="a_Node000031"><a xlink:href="classllvm_1_1SparcTargetStreamer.html" target="_top" xlink:title=" ">
<polygon fill="white" stroke="#666666" points="309.5,-425.25 177.25,-425.25 177.25,-406 309.5,-406 309.5,-425.25"/>
<text xml:space="preserve" text-anchor="middle" x="243.38" y="-411.75" font-family="Helvetica,sans-Serif" font-size="10.00">llvm::SparcTargetStreamer</text>
</a>
</g>
</g>
<!-- Node1&#45;&gt;Node31 -->
<g id="edge30_Node000001_Node000031" class="edge">
<title>Node1&#45;&gt;Node31</title>
<g id="a_edge30_Node000001_Node000031"><a xlink:title=" ">
<path fill="none" stroke="#63b8ff" d="M71.41,-543.34C85.66,-514.21 115.99,-461.02 158.5,-433.62 164.13,-429.99 170.38,-427.08 176.85,-424.75"/>
<polygon fill="#63b8ff" stroke="#63b8ff" points="68.33,-541.65 67.24,-552.18 74.67,-544.63 68.33,-541.65"/>
</a>
</g>
</g>
<!-- Node34 -->
<g id="Node000034" class="node">
<title>Node34</title>
<g id="a_Node000034"><a xlink:href="classllvm_1_1SystemZTargetStreamer.html" target="_top" xlink:title=" ">
<polygon fill="white" stroke="#666666" points="316.62,-351.25 170.12,-351.25 170.12,-332 316.62,-332 316.62,-351.25"/>
<text xml:space="preserve" text-anchor="middle" x="243.38" y="-337.75" font-family="Helvetica,sans-Serif" font-size="10.00">llvm::SystemZTargetStreamer</text>
</a>
</g>
</g>
<!-- Node1&#45;&gt;Node34 -->
<g id="edge33_Node000001_Node000034" class="edge">
<title>Node1&#45;&gt;Node34</title>
<g id="a_edge33_Node000001_Node000034"><a xlink:title=" ">
<path fill="none" stroke="#63b8ff" d="M70.31,-543.18C84.3,-509.58 115.76,-441.9 158.5,-396.62 176.91,-377.13 203.52,-361.18 221.81,-351.57"/>
<polygon fill="#63b8ff" stroke="#63b8ff" points="67.18,-541.57 66.66,-552.15 73.67,-544.2 67.18,-541.57"/>
</a>
</g>
</g>
<!-- Node39 -->
<g id="Node000039" class="node">
<title>Node39</title>
<g id="a_Node000039"><a xlink:href="classllvm_1_1VETargetStreamer.html" target="_top" xlink:title=" ">
<polygon fill="white" stroke="#666666" points="303.5,-240.25 183.25,-240.25 183.25,-221 303.5,-221 303.5,-240.25"/>
<text xml:space="preserve" text-anchor="middle" x="243.38" y="-226.75" font-family="Helvetica,sans-Serif" font-size="10.00">llvm::VETargetStreamer</text>
</a>
</g>
</g>
<!-- Node1&#45;&gt;Node39 -->
<g id="edge38_Node000001_Node000039" class="edge">
<title>Node1&#45;&gt;Node39</title>
<g id="a_edge38_Node000001_Node000039"><a xlink:title=" ">
<path fill="none" stroke="#63b8ff" d="M67.8,-542.84C79.92,-499.59 111.48,-397.69 158.5,-322.62 179.5,-289.11 213.33,-256.5 230.93,-240.62"/>
<polygon fill="#63b8ff" stroke="#63b8ff" points="64.45,-541.82 65.18,-552.39 71.2,-543.67 64.45,-541.82"/>
</a>
</g>
</g>
<!-- Node42 -->
<g id="Node000042" class="node">
<title>Node42</title>
<g id="a_Node000042"><a xlink:href="classllvm_1_1WebAssemblyTargetStreamer.html" target="_top" xlink:title="WebAssembly&#45;specific streamer interface, to implement support WebAssembly&#45;specific assembly directive...">
<polygon fill="white" stroke="#666666" points="328.25,-185.25 158.5,-185.25 158.5,-166 328.25,-166 328.25,-185.25"/>
<text xml:space="preserve" text-anchor="middle" x="243.38" y="-171.75" font-family="Helvetica,sans-Serif" font-size="10.00">llvm::WebAssemblyTargetStreamer</text>
</a>
</g>
</g>
<!-- Node1&#45;&gt;Node42 -->
<g id="edge41_Node000001_Node000042" class="edge">
<title>Node1&#45;&gt;Node42</title>
<g id="a_edge41_Node000001_Node000042"><a xlink:title=" ">
<path fill="none" stroke="#63b8ff" d="M62,-542.22C62.46,-482.4 71.71,-311.36 158.5,-211.62 169.21,-199.31 184.89,-191.08 199.79,-185.64"/>
<polygon fill="#63b8ff" stroke="#63b8ff" points="58.5,-542.01 62.02,-552 65.5,-542 58.5,-542.01"/>
</a>
</g>
</g>
<!-- Node46 -->
<g id="Node000046" class="node">
<title>Node46</title>
<g id="a_Node000046"><a xlink:href="classllvm_1_1X86TargetStreamer.html" target="_top" xlink:title="X86 target streamer implementing x86&#45;only assembly directives.">
<polygon fill="white" stroke="#666666" points="305.38,-148.25 181.38,-148.25 181.38,-129 305.38,-129 305.38,-148.25"/>
<text xml:space="preserve" text-anchor="middle" x="243.38" y="-134.75" font-family="Helvetica,sans-Serif" font-size="10.00">llvm::X86TargetStreamer</text>
</a>
</g>
</g>
<!-- Node1&#45;&gt;Node46 -->
<g id="edge45_Node000001_Node000046" class="edge">
<title>Node1&#45;&gt;Node46</title>
<g id="a_edge45_Node000001_Node000046"><a xlink:title=" ">
<path fill="none" stroke="#63b8ff" d="M64.31,-542.45C72.08,-466.85 102.11,-211.86 158.5,-156.62 164.78,-150.48 172.62,-146.21 180.96,-143.27"/>
<polygon fill="#63b8ff" stroke="#63b8ff" points="60.85,-541.89 63.33,-552.19 67.81,-542.58 60.85,-541.89"/>
</a>
</g>
</g>
<!-- Node47 -->
<g id="Node000047" class="node">
<title>Node47</title>
<g id="a_Node000047"><a xlink:href="classllvm_1_1XCoreTargetStreamer.html" target="_top" xlink:title=" ">
<polygon fill="white" stroke="#666666" points="310.62,-111.25 176.12,-111.25 176.12,-92 310.62,-92 310.62,-111.25"/>
<text xml:space="preserve" text-anchor="middle" x="243.38" y="-97.75" font-family="Helvetica,sans-Serif" font-size="10.00">llvm::XCoreTargetStreamer</text>
</a>
</g>
</g>
<!-- Node1&#45;&gt;Node47 -->
<g id="edge46_Node000001_Node000047" class="edge">
<title>Node1&#45;&gt;Node47</title>
<g id="a_edge46_Node000001_Node000047"><a xlink:title=" ">
<path fill="none" stroke="#63b8ff" d="M63.85,-542.6C70.32,-462.88 97.29,-180.71 158.5,-119.62 163.45,-114.68 169.42,-110.94 175.85,-108.14"/>
<polygon fill="#63b8ff" stroke="#63b8ff" points="60.39,-541.84 63.1,-552.08 67.37,-542.39 60.39,-541.84"/>
</a>
</g>
</g>
<!-- Node48 -->
<g id="Node000048" class="node">
<title>Node48</title>
<g id="a_Node000048"><a xlink:href="classllvm_1_1XtensaTargetStreamer.html" target="_top" xlink:title=" ">
<polygon fill="#fff0f0" stroke="red" points="312.12,-38.25 174.62,-38.25 174.62,-19 312.12,-19 312.12,-38.25"/>
<text xml:space="preserve" text-anchor="middle" x="243.38" y="-24.75" font-family="Helvetica,sans-Serif" font-size="10.00">llvm::XtensaTargetStreamer</text>
</a>
</g>
</g>
<!-- Node1&#45;&gt;Node48 -->
<g id="edge47_Node000001_Node000048" class="edge">
<title>Node1&#45;&gt;Node48</title>
<g id="a_edge47_Node000001_Node000048"><a xlink:title=" ">
<path fill="none" stroke="#63b8ff" d="M64.27,-542.6C72.51,-460.22 105.7,-160.12 158.5,-82.62 172.64,-61.87 197.67,-47.3 216.72,-38.57"/>
<polygon fill="#63b8ff" stroke="#63b8ff" points="60.8,-542.09 63.31,-552.38 67.77,-542.77 60.8,-542.09"/>
</a>
</g>
</g>
<!-- Node3 -->
<g id="Node000003" class="node">
<title>Node3</title>
<g id="a_Node000003"><a xlink:href="classllvm_1_1AArch64TargetELFStreamer.html" target="_top" xlink:title=" ">
<polygon fill="white" stroke="#666666" points="539.62,-1029.25 377.38,-1029.25 377.38,-1010 539.62,-1010 539.62,-1029.25"/>
<text xml:space="preserve" text-anchor="middle" x="458.5" y="-1015.75" font-family="Helvetica,sans-Serif" font-size="10.00">llvm::AArch64TargetELFStreamer</text>
</a>
</g>
</g>
<!-- Node2&#45;&gt;Node3 -->
<g id="edge2_Node000002_Node000003" class="edge">
<title>Node2&#45;&gt;Node3</title>
<g id="a_edge2_Node000002_Node000003"><a xlink:title=" ">
<path fill="none" stroke="#63b8ff" d="M313.8,-994.68C341.45,-999.48 372.91,-1004.94 399.33,-1009.53"/>
<polygon fill="#63b8ff" stroke="#63b8ff" points="314.55,-991.26 304.1,-992.99 313.36,-998.15 314.55,-991.26"/>
</a>
</g>
</g>
<!-- Node4 -->
<g id="Node000004" class="node">
<title>Node4</title>
<g id="a_Node000004"><a xlink:href="classllvm_1_1AArch64TargetWinCOFFStreamer.html" target="_top" xlink:title=" ">
<polygon fill="white" stroke="#666666" points="552.75,-992.25 364.25,-992.25 364.25,-973 552.75,-973 552.75,-992.25"/>
<text xml:space="preserve" text-anchor="middle" x="458.5" y="-978.75" font-family="Helvetica,sans-Serif" font-size="10.00">llvm::AArch64TargetWinCOFFStreamer</text>
</a>
</g>
</g>
<!-- Node2&#45;&gt;Node4 -->
<g id="edge3_Node000002_Node000004" class="edge">
<title>Node2&#45;&gt;Node4</title>
<g id="a_edge3_Node000002_Node000004"><a xlink:title=" ">
<path fill="none" stroke="#63b8ff" d="M327.26,-982.62C339.24,-982.62 351.63,-982.62 363.8,-982.62"/>
<polygon fill="#63b8ff" stroke="#63b8ff" points="327.45,-979.13 317.45,-982.63 327.45,-986.13 327.45,-979.13"/>
</a>
</g>
</g>
<!-- Node6 -->
<g id="Node000006" class="node">
<title>Node6</title>
<g id="a_Node000006"><a xlink:href="classllvm_1_1AMDGPUTargetAsmStreamer.html" target="_top" xlink:title=" ">
<polygon fill="white" stroke="#666666" points="544.12,-955.25 372.88,-955.25 372.88,-936 544.12,-936 544.12,-955.25"/>
<text xml:space="preserve" text-anchor="middle" x="458.5" y="-941.75" font-family="Helvetica,sans-Serif" font-size="10.00">llvm::AMDGPUTargetAsmStreamer</text>
</a>
</g>
</g>
<!-- Node5&#45;&gt;Node6 -->
<g id="edge5_Node000005_Node000006" class="edge">
<title>Node5&#45;&gt;Node6</title>
<g id="a_edge5_Node000005_Node000006"><a xlink:title=" ">
<path fill="none" stroke="#63b8ff" d="M313.8,-920.68C341.45,-925.48 372.91,-930.94 399.33,-935.53"/>
<polygon fill="#63b8ff" stroke="#63b8ff" points="314.55,-917.26 304.1,-918.99 313.36,-924.15 314.55,-917.26"/>
</a>
</g>
</g>
<!-- Node7 -->
<g id="Node000007" class="node">
<title>Node7</title>
<g id="a_Node000007"><a xlink:href="classllvm_1_1AMDGPUTargetELFStreamer.html" target="_top" xlink:title=" ">
<polygon fill="white" stroke="#666666" points="543,-918.25 374,-918.25 374,-899 543,-899 543,-918.25"/>
<text xml:space="preserve" text-anchor="middle" x="458.5" y="-904.75" font-family="Helvetica,sans-Serif" font-size="10.00">llvm::AMDGPUTargetELFStreamer</text>
</a>
</g>
</g>
<!-- Node5&#45;&gt;Node7 -->
<g id="edge6_Node000005_Node000007" class="edge">
<title>Node5&#45;&gt;Node7</title>
<g id="a_edge6_Node000005_Node000007"><a xlink:title=" ">
<path fill="none" stroke="#63b8ff" d="M330.52,-908.62C344.78,-908.62 359.55,-908.62 373.75,-908.62"/>
<polygon fill="#63b8ff" stroke="#63b8ff" points="330.73,-905.13 320.73,-908.63 330.73,-912.13 330.73,-905.13"/>
</a>
</g>
</g>
<!-- Node11 -->
<g id="Node000011" class="node">
<title>Node11</title>
<g id="a_Node000011"><a xlink:href="classllvm_1_1AVRELFStreamer.html" target="_top" xlink:title="A target streamer for an AVR ELF object file.">
<polygon fill="white" stroke="#666666" points="517.12,-881.25 399.88,-881.25 399.88,-862 517.12,-862 517.12,-881.25"/>
<text xml:space="preserve" text-anchor="middle" x="458.5" y="-867.75" font-family="Helvetica,sans-Serif" font-size="10.00">llvm::AVRELFStreamer</text>
</a>
</g>
</g>
<!-- Node10&#45;&gt;Node11 -->
<g id="edge10_Node000010_Node000011" class="edge">
<title>Node10&#45;&gt;Node11</title>
<g id="a_edge10_Node000010_Node000011"><a xlink:title=" ">
<path fill="none" stroke="#63b8ff" d="M317.15,-803.92C321.01,-805.59 324.74,-807.48 328.25,-809.62 349.81,-822.79 342.55,-840.68 364.25,-853.62 374.87,-859.96 387.27,-864.13 399.5,-866.86"/>
<polygon fill="#63b8ff" stroke="#63b8ff" points="318.69,-800.76 308.1,-800.54 316.24,-807.32 318.69,-800.76"/>
</a>
</g>
</g>
<!-- Node12 -->
<g id="Node000012" class="node">
<title>Node12</title>
<g id="a_Node000012"><a xlink:href="classllvm_1_1AVRTargetAsmStreamer.html" target="_top" xlink:title="A target streamer for textual AVR assembly code.">
<polygon fill="white" stroke="#666666" points="531.75,-844.25 385.25,-844.25 385.25,-825 531.75,-825 531.75,-844.25"/>
<text xml:space="preserve" text-anchor="middle" x="458.5" y="-830.75" font-family="Helvetica,sans-Serif" font-size="10.00">llvm::AVRTargetAsmStreamer</text>
</a>
</g>
</g>
<!-- Node10&#45;&gt;Node12 -->
<g id="edge11_Node000010_Node000012" class="edge">
<title>Node10&#45;&gt;Node12</title>
<g id="a_edge11_Node000010_Node000012"><a xlink:title=" ">
<path fill="none" stroke="#63b8ff" d="M303.05,-804.04C322.51,-808.11 344.3,-812.62 364.25,-816.62 377.34,-819.25 391.49,-822.02 404.71,-824.58"/>
<polygon fill="#63b8ff" stroke="#63b8ff" points="303.87,-800.64 293.37,-802.01 302.44,-807.49 303.87,-800.64"/>
</a>
</g>
</g>
<!-- Node14 -->
<g id="Node000014" class="node">
<title>Node14</title>
<g id="a_Node000014"><a xlink:href="classllvm_1_1CSKYTargetAsmStreamer.html" target="_top" xlink:title=" ">
<polygon fill="white" stroke="#666666" points="535.88,-807.25 381.12,-807.25 381.12,-788 535.88,-788 535.88,-807.25"/>
<text xml:space="preserve" text-anchor="middle" x="458.5" y="-793.75" font-family="Helvetica,sans-Serif" font-size="10.00">llvm::CSKYTargetAsmStreamer</text>
</a>
</g>
</g>
<!-- Node13&#45;&gt;Node14 -->
<g id="edge13_Node000013_Node000014" class="edge">
<title>Node13&#45;&gt;Node14</title>
<g id="a_edge13_Node000013_Node000014"><a xlink:title=" ">
<path fill="none" stroke="#63b8ff" d="M303.05,-767.04C322.51,-771.11 344.3,-775.62 364.25,-779.62 377.34,-782.25 391.49,-785.02 404.71,-787.58"/>
<polygon fill="#63b8ff" stroke="#63b8ff" points="303.87,-763.64 293.37,-765.01 302.44,-770.49 303.87,-763.64"/>
</a>
</g>
</g>
<!-- Node15 -->
<g id="Node000015" class="node">
<title>Node15</title>
<g id="a_Node000015"><a xlink:href="classllvm_1_1CSKYTargetELFStreamer.html" target="_top" xlink:title=" ">
<polygon fill="white" stroke="#666666" points="534.75,-770.25 382.25,-770.25 382.25,-751 534.75,-751 534.75,-770.25"/>
<text xml:space="preserve" text-anchor="middle" x="458.5" y="-756.75" font-family="Helvetica,sans-Serif" font-size="10.00">llvm::CSKYTargetELFStreamer</text>
</a>
</g>
</g>
<!-- Node13&#45;&gt;Node15 -->
<g id="edge14_Node000013_Node000015" class="edge">
<title>Node13&#45;&gt;Node15</title>
<g id="a_edge14_Node000013_Node000015"><a xlink:title=" ">
<path fill="none" stroke="#63b8ff" d="M322.2,-756.82C341.63,-757.36 362.45,-757.95 381.78,-758.49"/>
<polygon fill="#63b8ff" stroke="#63b8ff" points="322.54,-753.32 312.45,-756.54 322.34,-760.32 322.54,-753.32"/>
</a>
</g>
</g>
<!-- Node18 -->
<g id="Node000018" class="node">
<title>Node18</title>
<g id="a_Node000018"><a xlink:href="classllvm_1_1LoongArchTargetAsmStreamer.html" target="_top" xlink:title=" ">
<polygon fill="white" stroke="#666666" points="525.38,-732.88 391.62,-732.88 391.62,-702.38 525.38,-702.38 525.38,-732.88"/>
<text xml:space="preserve" text-anchor="start" x="399.62" y="-719.38" font-family="Helvetica,sans-Serif" font-size="10.00">llvm::LoongArchTargetAsm</text>
<text xml:space="preserve" text-anchor="middle" x="458.5" y="-708.12" font-family="Helvetica,sans-Serif" font-size="10.00">Streamer</text>
</a>
</g>
</g>
<!-- Node17&#45;&gt;Node18 -->
<g id="edge17_Node000017_Node000018" class="edge">
<title>Node17&#45;&gt;Node18</title>
<g id="a_edge17_Node000017_Node000018"><a xlink:title=" ">
<path fill="none" stroke="#63b8ff" d="M305.53,-686.96C332.36,-692.38 363.91,-698.74 391.29,-704.27"/>
<polygon fill="#63b8ff" stroke="#63b8ff" points="306.32,-683.55 295.83,-685.01 304.94,-690.41 306.32,-683.55"/>
</a>
</g>
</g>
<!-- Node19 -->
<g id="Node000019" class="node">
<title>Node19</title>
<g id="a_Node000019"><a xlink:href="classllvm_1_1LoongArchTargetELFStreamer.html" target="_top" xlink:title=" ">
<polygon fill="white" stroke="#666666" points="544.12,-684.25 372.88,-684.25 372.88,-665 544.12,-665 544.12,-684.25"/>
<text xml:space="preserve" text-anchor="middle" x="458.5" y="-670.75" font-family="Helvetica,sans-Serif" font-size="10.00">llvm::LoongArchTargetELFStreamer</text>
</a>
</g>
</g>
<!-- Node17&#45;&gt;Node19 -->
<g id="edge18_Node000017_Node000019" class="edge">
<title>Node17&#45;&gt;Node19</title>
<g id="a_edge18_Node000017_Node000019"><a xlink:title=" ">
<path fill="none" stroke="#63b8ff" d="M331.62,-674.62C345.09,-674.62 359,-674.62 372.43,-674.62"/>
<polygon fill="#63b8ff" stroke="#63b8ff" points="331.93,-671.13 321.93,-674.63 331.93,-678.13 331.93,-671.13"/>
</a>
</g>
</g>
<!-- Node22 -->
<g id="Node000022" class="node">
<title>Node22</title>
<g id="a_Node000022"><a xlink:href="classllvm_1_1MipsTargetAsmStreamer.html" target="_top" xlink:title=" ">
<polygon fill="white" stroke="#666666" points="532.5,-647.25 384.5,-647.25 384.5,-628 532.5,-628 532.5,-647.25"/>
<text xml:space="preserve" text-anchor="middle" x="458.5" y="-633.75" font-family="Helvetica,sans-Serif" font-size="10.00">llvm::MipsTargetAsmStreamer</text>
</a>
</g>
</g>
<!-- Node21&#45;&gt;Node22 -->
<g id="edge21_Node000021_Node000022" class="edge">
<title>Node21&#45;&gt;Node22</title>
<g id="a_edge21_Node000021_Node000022"><a xlink:title=" ">
<path fill="none" stroke="#63b8ff" d="M313.8,-612.68C341.45,-617.48 372.91,-622.94 399.33,-627.53"/>
<polygon fill="#63b8ff" stroke="#63b8ff" points="314.55,-609.26 304.1,-610.99 313.36,-616.15 314.55,-609.26"/>
</a>
</g>
</g>
<!-- Node23 -->
<g id="Node000023" class="node">
<title>Node23</title>
<g id="a_Node000023"><a xlink:href="classllvm_1_1MipsTargetELFStreamer.html" target="_top" xlink:title=" ">
<polygon fill="white" stroke="#666666" points="531.38,-610.25 385.62,-610.25 385.62,-591 531.38,-591 531.38,-610.25"/>
<text xml:space="preserve" text-anchor="middle" x="458.5" y="-596.75" font-family="Helvetica,sans-Serif" font-size="10.00">llvm::MipsTargetELFStreamer</text>
</a>
</g>
</g>
<!-- Node21&#45;&gt;Node23 -->
<g id="edge22_Node000021_Node000023" class="edge">
<title>Node21&#45;&gt;Node23</title>
<g id="a_edge22_Node000021_Node000023"><a xlink:title=" ">
<path fill="none" stroke="#63b8ff" d="M319.13,-600.62C340.64,-600.62 364.06,-600.62 385.4,-600.62"/>
<polygon fill="#63b8ff" stroke="#63b8ff" points="319.26,-597.13 309.26,-600.63 319.26,-604.13 319.26,-597.13"/>
</a>
</g>
</g>
<!-- Node25 -->
<g id="Node000025" class="node">
<title>Node25</title>
<g id="a_Node000025"><a xlink:href="classllvm_1_1NVPTXAsmTargetStreamer.html" target="_top" xlink:title=" ">
<polygon fill="white" stroke="#666666" points="538.88,-573.25 378.12,-573.25 378.12,-554 538.88,-554 538.88,-573.25"/>
<text xml:space="preserve" text-anchor="middle" x="458.5" y="-559.75" font-family="Helvetica,sans-Serif" font-size="10.00">llvm::NVPTXAsmTargetStreamer</text>
</a>
</g>
</g>
<!-- Node24&#45;&gt;Node25 -->
<g id="edge24_Node000024_Node000025" class="edge">
<title>Node24&#45;&gt;Node25</title>
<g id="a_edge24_Node000024_Node000025"><a xlink:title=" ">
<path fill="none" stroke="#63b8ff" d="M325.05,-563.62C342.3,-563.62 360.52,-563.62 377.75,-563.62"/>
<polygon fill="#63b8ff" stroke="#63b8ff" points="325.38,-560.13 315.38,-563.63 325.38,-567.13 325.38,-560.13"/>
</a>
</g>
</g>
<!-- Node28 -->
<g id="Node000028" class="node">
<title>Node28</title>
<g id="a_Node000028"><a xlink:href="classllvm_1_1RISCVTargetAsmStreamer.html" target="_top" xlink:title=" ">
<polygon fill="white" stroke="#666666" points="537.75,-536.25 379.25,-536.25 379.25,-517 537.75,-517 537.75,-536.25"/>
<text xml:space="preserve" text-anchor="middle" x="458.5" y="-522.75" font-family="Helvetica,sans-Serif" font-size="10.00">llvm::RISCVTargetAsmStreamer</text>
</a>
</g>
</g>
<!-- Node27&#45;&gt;Node28 -->
<g id="edge27_Node000027_Node000028" class="edge">
<title>Node27&#45;&gt;Node28</title>
<g id="a_edge27_Node000027_Node000028"><a xlink:title=" ">
<path fill="none" stroke="#63b8ff" d="M313.8,-501.68C341.45,-506.48 372.91,-511.94 399.33,-516.53"/>
<polygon fill="#63b8ff" stroke="#63b8ff" points="314.55,-498.26 304.1,-499.99 313.36,-505.15 314.55,-498.26"/>
</a>
</g>
</g>
<!-- Node29 -->
<g id="Node000029" class="node">
<title>Node29</title>
<g id="a_Node000029"><a xlink:href="classllvm_1_1RISCVTargetELFStreamer.html" target="_top" xlink:title=" ">
<polygon fill="white" stroke="#666666" points="536.62,-499.25 380.38,-499.25 380.38,-480 536.62,-480 536.62,-499.25"/>
<text xml:space="preserve" text-anchor="middle" x="458.5" y="-485.75" font-family="Helvetica,sans-Serif" font-size="10.00">llvm::RISCVTargetELFStreamer</text>
</a>
</g>
</g>
<!-- Node27&#45;&gt;Node29 -->
<g id="edge28_Node000027_Node000029" class="edge">
<title>Node27&#45;&gt;Node29</title>
<g id="a_edge28_Node000027_Node000029"><a xlink:title=" ">
<path fill="none" stroke="#63b8ff" d="M324.47,-489.62C342.7,-489.62 362.03,-489.62 380.14,-489.62"/>
<polygon fill="#63b8ff" stroke="#63b8ff" points="324.5,-486.13 314.5,-489.63 324.5,-493.13 324.5,-486.13"/>
</a>
</g>
</g>
<!-- Node32 -->
<g id="Node000032" class="node">
<title>Node32</title>
<g id="a_Node000032"><a xlink:href="classllvm_1_1SparcTargetAsmStreamer.html" target="_top" xlink:title=" ">
<polygon fill="white" stroke="#666666" points="534.75,-462.25 382.25,-462.25 382.25,-443 534.75,-443 534.75,-462.25"/>
<text xml:space="preserve" text-anchor="middle" x="458.5" y="-448.75" font-family="Helvetica,sans-Serif" font-size="10.00">llvm::SparcTargetAsmStreamer</text>
</a>
</g>
</g>
<!-- Node31&#45;&gt;Node32 -->
<g id="edge31_Node000031_Node000032" class="edge">
<title>Node31&#45;&gt;Node32</title>
<g id="a_edge31_Node000031_Node000032"><a xlink:title=" ">
<path fill="none" stroke="#63b8ff" d="M313.8,-427.68C341.45,-432.48 372.91,-437.94 399.33,-442.53"/>
<polygon fill="#63b8ff" stroke="#63b8ff" points="314.55,-424.26 304.1,-425.99 313.36,-431.15 314.55,-424.26"/>
</a>
</g>
</g>
<!-- Node33 -->
<g id="Node000033" class="node">
<title>Node33</title>
<g id="a_Node000033"><a xlink:href="classllvm_1_1SparcTargetELFStreamer.html" target="_top" xlink:title=" ">
<polygon fill="white" stroke="#666666" points="533.62,-425.25 383.38,-425.25 383.38,-406 533.62,-406 533.62,-425.25"/>
<text xml:space="preserve" text-anchor="middle" x="458.5" y="-411.75" font-family="Helvetica,sans-Serif" font-size="10.00">llvm::SparcTargetELFStreamer</text>
</a>
</g>
</g>
<!-- Node31&#45;&gt;Node33 -->
<g id="edge32_Node000031_Node000033" class="edge">
<title>Node31&#45;&gt;Node33</title>
<g id="a_edge32_Node000031_Node000033"><a xlink:title=" ">
<path fill="none" stroke="#63b8ff" d="M321.09,-415.62C341.22,-415.62 362.89,-415.62 382.91,-415.62"/>
<polygon fill="#63b8ff" stroke="#63b8ff" points="321.28,-412.13 311.28,-415.63 321.28,-419.13 321.28,-412.13"/>
</a>
</g>
</g>
<!-- Node35 -->
<g id="Node000035" class="node">
<title>Node35</title>
<g id="a_Node000035"><a xlink:href="classllvm_1_1SystemZTargetELFStreamer.html" target="_top" xlink:title=" ">
<polygon fill="white" stroke="#666666" points="540.75,-388.25 376.25,-388.25 376.25,-369 540.75,-369 540.75,-388.25"/>
<text xml:space="preserve" text-anchor="middle" x="458.5" y="-374.75" font-family="Helvetica,sans-Serif" font-size="10.00">llvm::SystemZTargetELFStreamer</text>
</a>
</g>
</g>
<!-- Node34&#45;&gt;Node35 -->
<g id="edge34_Node000034_Node000035" class="edge">
<title>Node34&#45;&gt;Node35</title>
<g id="a_edge34_Node000034_Node000035"><a xlink:title=" ">
<path fill="none" stroke="#63b8ff" d="M313.8,-353.68C341.45,-358.48 372.91,-363.94 399.33,-368.53"/>
<polygon fill="#63b8ff" stroke="#63b8ff" points="314.55,-350.26 304.1,-351.99 313.36,-357.15 314.55,-350.26"/>
</a>
</g>
</g>
<!-- Node36 -->
<g id="Node000036" class="node">
<title>Node36</title>
<g id="a_Node000036"><a xlink:href="classllvm_1_1SystemZTargetGNUStreamer.html" target="_top" xlink:title=" ">
<polygon fill="white" stroke="#666666" points="543,-351.25 374,-351.25 374,-332 543,-332 543,-351.25"/>
<text xml:space="preserve" text-anchor="middle" x="458.5" y="-337.75" font-family="Helvetica,sans-Serif" font-size="10.00">llvm::SystemZTargetGNUStreamer</text>
</a>
</g>
</g>
<!-- Node34&#45;&gt;Node36 -->
<g id="edge35_Node000034_Node000036" class="edge">
<title>Node34&#45;&gt;Node36</title>
<g id="a_edge35_Node000034_Node000036"><a xlink:title=" ">
<path fill="none" stroke="#63b8ff" d="M328.38,-341.62C343.29,-341.62 358.81,-341.62 373.71,-341.62"/>
<polygon fill="#63b8ff" stroke="#63b8ff" points="328.64,-338.13 318.64,-341.63 328.64,-345.13 328.64,-338.13"/>
</a>
</g>
</g>
<!-- Node37 -->
<g id="Node000037" class="node">
<title>Node37</title>
<g id="a_Node000037"><a xlink:href="classllvm_1_1SystemZTargetGOFFStreamer.html" target="_top" xlink:title=" ">
<polygon fill="white" stroke="#666666" points="545.25,-314.25 371.75,-314.25 371.75,-295 545.25,-295 545.25,-314.25"/>
<text xml:space="preserve" text-anchor="middle" x="458.5" y="-300.75" font-family="Helvetica,sans-Serif" font-size="10.00">llvm::SystemZTargetGOFFStreamer</text>
</a>
</g>
</g>
<!-- Node34&#45;&gt;Node37 -->
<g id="edge36_Node000034_Node000037" class="edge">
<title>Node34&#45;&gt;Node37</title>
<g id="a_edge36_Node000034_Node000037"><a xlink:title=" ">
<path fill="none" stroke="#63b8ff" d="M313.8,-329.57C341.45,-324.77 372.91,-319.31 399.33,-314.72"/>
<polygon fill="#63b8ff" stroke="#63b8ff" points="313.36,-326.1 304.1,-331.26 314.55,-332.99 313.36,-326.1"/>
</a>
</g>
</g>
<!-- Node38 -->
<g id="Node000038" class="node">
<title>Node38</title>
<g id="a_Node000038"><a xlink:href="classllvm_1_1SystemZTargetHLASMStreamer.html" target="_top" xlink:title=" ">
<polygon fill="white" stroke="#666666" points="549,-277.25 368,-277.25 368,-258 549,-258 549,-277.25"/>
<text xml:space="preserve" text-anchor="middle" x="458.5" y="-263.75" font-family="Helvetica,sans-Serif" font-size="10.00">llvm::SystemZTargetHLASMStreamer</text>
</a>
</g>
</g>
<!-- Node34&#45;&gt;Node38 -->
<g id="edge37_Node000034_Node000038" class="edge">
<title>Node34&#45;&gt;Node38</title>
<g id="a_edge37_Node000034_Node000038"><a xlink:title=" ">
<path fill="none" stroke="#63b8ff" d="M272.14,-326.25C295.94,-313.67 331.47,-296.26 364.25,-285.62 373.82,-282.52 384.12,-279.87 394.26,-277.64"/>
<polygon fill="#63b8ff" stroke="#63b8ff" points="270.57,-323.12 263.42,-330.94 273.89,-329.29 270.57,-323.12"/>
</a>
</g>
</g>
<!-- Node40 -->
<g id="Node000040" class="node">
<title>Node40</title>
<g id="a_Node000040"><a xlink:href="classllvm_1_1VETargetAsmStreamer.html" target="_top" xlink:title=" ">
<polygon fill="white" stroke="#666666" points="528.75,-240.25 388.25,-240.25 388.25,-221 528.75,-221 528.75,-240.25"/>
<text xml:space="preserve" text-anchor="middle" x="458.5" y="-226.75" font-family="Helvetica,sans-Serif" font-size="10.00">llvm::VETargetAsmStreamer</text>
</a>
</g>
</g>
<!-- Node39&#45;&gt;Node40 -->
<g id="edge39_Node000039_Node000040" class="edge">
<title>Node39&#45;&gt;Node40</title>
<g id="a_edge39_Node000039_Node000040"><a xlink:title=" ">
<path fill="none" stroke="#63b8ff" d="M315.02,-230.62C338.46,-230.62 364.53,-230.62 387.89,-230.62"/>
<polygon fill="#63b8ff" stroke="#63b8ff" points="315.26,-227.13 305.26,-230.63 315.26,-234.13 315.26,-227.13"/>
</a>
</g>
</g>
<!-- Node41 -->
<g id="Node000041" class="node">
<title>Node41</title>
<g id="a_Node000041"><a xlink:href="classllvm_1_1VETargetELFStreamer.html" target="_top" xlink:title=" ">
<polygon fill="white" stroke="#666666" points="527.62,-203.25 389.38,-203.25 389.38,-184 527.62,-184 527.62,-203.25"/>
<text xml:space="preserve" text-anchor="middle" x="458.5" y="-189.75" font-family="Helvetica,sans-Serif" font-size="10.00">llvm::VETargetELFStreamer</text>
</a>
</g>
</g>
<!-- Node39&#45;&gt;Node41 -->
<g id="edge40_Node000039_Node000041" class="edge">
<title>Node39&#45;&gt;Node41</title>
<g id="a_edge40_Node000039_Node000041"><a xlink:title=" ">
<path fill="none" stroke="#63b8ff" d="M313.8,-218.57C341.45,-213.77 372.91,-208.31 399.33,-203.72"/>
<polygon fill="#63b8ff" stroke="#63b8ff" points="313.36,-215.1 304.1,-220.26 314.55,-221.99 313.36,-215.1"/>
</a>
</g>
</g>
<!-- Node43 -->
<g id="Node000043" class="node">
<title>Node43</title>
<g id="a_Node000043"><a xlink:href="classllvm_1_1WebAssemblyTargetAsmStreamer.html" target="_top" xlink:title="This part is for ascii assembly output.">
<polygon fill="white" stroke="#666666" points="533.62,-165.88 383.38,-165.88 383.38,-135.38 533.62,-135.38 533.62,-165.88"/>
<text xml:space="preserve" text-anchor="start" x="391.38" y="-152.38" font-family="Helvetica,sans-Serif" font-size="10.00">llvm::WebAssemblyTargetAsm</text>
<text xml:space="preserve" text-anchor="middle" x="458.5" y="-141.12" font-family="Helvetica,sans-Serif" font-size="10.00">Streamer</text>
</a>
</g>
</g>
<!-- Node42&#45;&gt;Node43 -->
<g id="edge42_Node000042_Node000043" class="edge">
<title>Node42&#45;&gt;Node43</title>
<g id="a_edge42_Node000042_Node000043"><a xlink:title=" ">
<path fill="none" stroke="#63b8ff" d="M339.69,-164.44C354.28,-162.73 369.15,-160.99 383.2,-159.34"/>
<polygon fill="#63b8ff" stroke="#63b8ff" points="339.63,-160.93 330.11,-165.57 340.45,-167.88 339.63,-160.93"/>
</a>
</g>
</g>
<!-- Node44 -->
<g id="Node000044" class="node">
<title>Node44</title>
<g id="a_Node000044"><a xlink:href="classllvm_1_1WebAssemblyTargetNullStreamer.html" target="_top" xlink:title="This part is for null output.">
<polygon fill="white" stroke="#666666" points="532.12,-116.88 384.88,-116.88 384.88,-86.38 532.12,-86.38 532.12,-116.88"/>
<text xml:space="preserve" text-anchor="start" x="392.88" y="-103.38" font-family="Helvetica,sans-Serif" font-size="10.00">llvm::WebAssemblyTargetNull</text>
<text xml:space="preserve" text-anchor="middle" x="458.5" y="-92.12" font-family="Helvetica,sans-Serif" font-size="10.00">Streamer</text>
</a>
</g>
</g>
<!-- Node42&#45;&gt;Node44 -->
<g id="edge43_Node000042_Node000044" class="edge">
<title>Node42&#45;&gt;Node44</title>
<g id="a_edge43_Node000042_Node000044"><a xlink:title=" ">
<path fill="none" stroke="#63b8ff" d="M318.61,-161.86C321.92,-160.58 325.15,-159.17 328.25,-157.62 347.16,-148.23 345.58,-136.5 364.25,-126.62 371.07,-123.02 378.44,-119.9 385.96,-117.22"/>
<polygon fill="#63b8ff" stroke="#63b8ff" points="317.57,-158.52 309.26,-165.09 319.86,-165.14 317.57,-158.52"/>
</a>
</g>
</g>
<!-- Node45 -->
<g id="Node000045" class="node">
<title>Node45</title>
<g id="a_Node000045"><a xlink:href="classllvm_1_1WebAssemblyTargetWasmStreamer.html" target="_top" xlink:title="This part is for Wasm object output.">
<polygon fill="white" stroke="#666666" points="537.38,-67.88 379.62,-67.88 379.62,-37.38 537.38,-37.38 537.38,-67.88"/>
<text xml:space="preserve" text-anchor="start" x="387.62" y="-54.38" font-family="Helvetica,sans-Serif" font-size="10.00">llvm::WebAssemblyTargetWasm</text>
<text xml:space="preserve" text-anchor="middle" x="458.5" y="-43.12" font-family="Helvetica,sans-Serif" font-size="10.00">Streamer</text>
</a>
</g>
</g>
<!-- Node42&#45;&gt;Node45 -->
<g id="edge44_Node000042_Node000045" class="edge">
<title>Node42&#45;&gt;Node45</title>
<g id="a_edge44_Node000042_Node000045"><a xlink:title=" ">
<path fill="none" stroke="#63b8ff" d="M325.22,-159.91C326.25,-159.18 327.27,-158.42 328.25,-157.62 358.58,-133.12 334.55,-102.89 364.25,-77.62 368.85,-73.72 373.99,-70.41 379.45,-67.62"/>
<polygon fill="#63b8ff" stroke="#63b8ff" points="323.51,-156.86 316.63,-164.91 327.03,-162.91 323.51,-156.86"/>
</a>
</g>
</g>
<!-- Node49 -->
<g id="Node000049" class="node">
<title>Node49</title>
<g id="a_Node000049"><a xlink:href="classllvm_1_1XtensaTargetAsmStreamer.html" target="_top" xlink:title=" ">
<polygon fill="white" stroke="#666666" points="537.38,-19.25 379.62,-19.25 379.62,0 537.38,0 537.38,-19.25"/>
<text xml:space="preserve" text-anchor="middle" x="458.5" y="-5.75" font-family="Helvetica,sans-Serif" font-size="10.00">llvm::XtensaTargetAsmStreamer</text>
</a>
</g>
</g>
<!-- Node48&#45;&gt;Node49 -->
<g id="edge48_Node000048_Node000049" class="edge">
<title>Node48&#45;&gt;Node49</title>
<g id="a_edge48_Node000048_Node000049"><a xlink:title=" ">
<path fill="none" stroke="#63b8ff" d="M323.84,-21.54C341.99,-19.92 361.27,-18.2 379.37,-16.59"/>
<polygon fill="#63b8ff" stroke="#63b8ff" points="323.55,-18.05 313.9,-22.43 324.17,-25.02 323.55,-18.05"/>
</a>
</g>
</g>
</g>
</svg>
