<?xml version="1.0" encoding="UTF-8" standalone="no"?>
<!DOCTYPE svg PUBLIC "-//W3C//DTD SVG 1.1//EN"
 "http://www.w3.org/Graphics/SVG/1.1/DTD/svg11.dtd">
<!-- Generated by graphviz version 13.1.2 (20250808.2320)
 -->
<!-- Title: llvm::DILocalVariable Pages: 1 -->
<svg width="116pt" height="248pt"
 viewBox="0.00 0.00 116.00 248.00" xmlns="http://www.w3.org/2000/svg" xmlns:xlink="http://www.w3.org/1999/xlink">
<g id="graph0" class="graph" transform="scale(1 1) rotate(0) translate(4 244.25)">
<title>llvm::DILocalVariable</title>
<!-- Node1 -->
<g id="Node000001" class="node">
<title>Node1</title>
<g id="a_Node000001"><a xlink:title="Local variable.">
<polygon fill="#999999" stroke="#666666" points="108.25,-19.25 0,-19.25 0,0 108.25,0 108.25,-19.25"/>
<text xml:space="preserve" text-anchor="middle" x="54.12" y="-5.75" font-family="Helvetica,sans-Serif" font-size="10.00">llvm::DILocalVariable</text>
</a>
</g>
</g>
<!-- Node2 -->
<g id="Node000002" class="node">
<title>Node2</title>
<g id="a_Node000002"><a xlink:href="classllvm_1_1DIVariable.html" target="_top" xlink:title="Base class for variables.">
<polygon fill="white" stroke="#666666" points="96.62,-74.5 11.62,-74.5 11.62,-55.25 96.62,-55.25 96.62,-74.5"/>
<text xml:space="preserve" text-anchor="middle" x="54.12" y="-61" font-family="Helvetica,sans-Serif" font-size="10.00">llvm::DIVariable</text>
</a>
</g>
</g>
<!-- Node2&#45;&gt;Node1 -->
<g id="edge1_Node000001_Node000002" class="edge">
<title>Node2&#45;&gt;Node1</title>
<g id="a_edge1_Node000001_Node000002"><a xlink:title=" ">
<path fill="none" stroke="#63b8ff" d="M54.12,-43.63C54.12,-35.34 54.12,-26.17 54.12,-19.61"/>
<polygon fill="#63b8ff" stroke="#63b8ff" points="50.63,-43.57 54.13,-53.57 57.63,-43.57 50.63,-43.57"/>
</a>
</g>
</g>
<!-- Node3 -->
<g id="Node000003" class="node">
<title>Node3</title>
<g id="a_Node000003"><a xlink:href="classllvm_1_1DINode.html" target="_top" xlink:title="Tagged DWARF&#45;like metadata node.">
<polygon fill="white" stroke="#666666" points="91,-129.75 17.25,-129.75 17.25,-110.5 91,-110.5 91,-129.75"/>
<text xml:space="preserve" text-anchor="middle" x="54.12" y="-116.25" font-family="Helvetica,sans-Serif" font-size="10.00">llvm::DINode</text>
</a>
</g>
</g>
<!-- Node3&#45;&gt;Node2 -->
<g id="edge2_Node000002_Node000003" class="edge">
<title>Node3&#45;&gt;Node2</title>
<g id="a_edge2_Node000002_Node000003"><a xlink:title=" ">
<path fill="none" stroke="#63b8ff" d="M54.12,-98.88C54.12,-90.59 54.12,-81.42 54.12,-74.86"/>
<polygon fill="#63b8ff" stroke="#63b8ff" points="50.63,-98.82 54.13,-108.82 57.63,-98.82 50.63,-98.82"/>
</a>
</g>
</g>
<!-- Node4 -->
<g id="Node000004" class="node">
<title>Node4</title>
<g id="a_Node000004"><a xlink:href="classllvm_1_1MDNode.html" target="_top" xlink:title="Metadata node.">
<polygon fill="white" stroke="#666666" points="93.62,-185 14.62,-185 14.62,-165.75 93.62,-165.75 93.62,-185"/>
<text xml:space="preserve" text-anchor="middle" x="54.12" y="-171.5" font-family="Helvetica,sans-Serif" font-size="10.00">llvm::MDNode</text>
</a>
</g>
</g>
<!-- Node4&#45;&gt;Node3 -->
<g id="edge3_Node000003_Node000004" class="edge">
<title>Node4&#45;&gt;Node3</title>
<g id="a_edge3_Node000003_Node000004"><a xlink:title=" ">
<path fill="none" stroke="#63b8ff" d="M54.12,-154.13C54.12,-145.84 54.12,-136.67 54.12,-130.11"/>
<polygon fill="#63b8ff" stroke="#63b8ff" points="50.63,-154.07 54.13,-164.07 57.63,-154.07 50.63,-154.07"/>
</a>
</g>
</g>
<!-- Node5 -->
<g id="Node000005" class="node">
<title>Node5</title>
<g id="a_Node000005"><a xlink:href="classllvm_1_1Metadata.html" target="_top" xlink:title="Root of the metadata hierarchy.">
<polygon fill="white" stroke="#666666" points="94.38,-240.25 13.88,-240.25 13.88,-221 94.38,-221 94.38,-240.25"/>
<text xml:space="preserve" text-anchor="middle" x="54.12" y="-226.75" font-family="Helvetica,sans-Serif" font-size="10.00">llvm::Metadata</text>
</a>
</g>
</g>
<!-- Node5&#45;&gt;Node4 -->
<g id="edge4_Node000004_Node000005" class="edge">
<title>Node5&#45;&gt;Node4</title>
<g id="a_edge4_Node000004_Node000005"><a xlink:title=" ">
<path fill="none" stroke="#63b8ff" d="M54.12,-209.38C54.12,-201.09 54.12,-191.92 54.12,-185.36"/>
<polygon fill="#63b8ff" stroke="#63b8ff" points="50.63,-209.32 54.13,-219.32 57.63,-209.32 50.63,-209.32"/>
</a>
</g>
</g>
</g>
</svg>
