<?xml version="1.0" encoding="UTF-8" standalone="no"?>
<!DOCTYPE svg PUBLIC "-//W3C//DTD SVG 1.1//EN"
 "http://www.w3.org/Graphics/SVG/1.1/DTD/svg11.dtd">
<!-- Generated by graphviz version 13.1.2 (20250808.2320)
 -->
<!-- Title: llvm::PhysicalRegisterUsageAnalysis Pages: 1 -->
<svg width="1039pt" height="90pt"
 viewBox="0.00 0.00 1039.00 90.00" xmlns="http://www.w3.org/2000/svg" xmlns:xlink="http://www.w3.org/1999/xlink">
<g id="graph0" class="graph" transform="scale(1 1) rotate(0) translate(4 85.5)">
<title>llvm::PhysicalRegisterUsageAnalysis</title>
<!-- Node1 -->
<g id="Node000001" class="node">
<title>Node1</title>
<g id="a_Node000001"><a xlink:title=" ">
<polygon fill="#999999" stroke="#666666" points="1031,-54.5 888.25,-54.5 888.25,-24 1031,-24 1031,-54.5"/>
<text xml:space="preserve" text-anchor="start" x="896.25" y="-41" font-family="Helvetica,sans-Serif" font-size="10.00">llvm::PhysicalRegisterUsage</text>
<text xml:space="preserve" text-anchor="middle" x="959.62" y="-29.75" font-family="Helvetica,sans-Serif" font-size="10.00">Analysis</text>
</a>
</g>
</g>
<!-- Node2 -->
<g id="Node000002" class="node">
<title>Node2</title>
<g id="a_Node000002"><a xlink:href="structllvm_1_1AnalysisInfoMixin.html" target="_top" xlink:title=" ">
<polygon fill="white" stroke="#666666" points="851.25,-54.5 677,-54.5 677,-24 851.25,-24 851.25,-54.5"/>
<text xml:space="preserve" text-anchor="start" x="685" y="-41" font-family="Helvetica,sans-Serif" font-size="10.00">llvm::AnalysisInfoMixin</text>
<text xml:space="preserve" text-anchor="middle" x="764.12" y="-29.75" font-family="Helvetica,sans-Serif" font-size="10.00">&lt; PhysicalRegisterUsageAnalysis &gt;</text>
</a>
</g>
</g>
<!-- Node2&#45;&gt;Node1 -->
<g id="edge1_Node000001_Node000002" class="edge">
<title>Node2&#45;&gt;Node1</title>
<g id="a_edge1_Node000001_Node000002"><a xlink:title=" ">
<path fill="none" stroke="#63b8ff" d="M863.05,-39.25C871.39,-39.25 879.72,-39.25 887.79,-39.25"/>
<polygon fill="#63b8ff" stroke="#63b8ff" points="863.2,-35.75 853.2,-39.25 863.2,-42.75 863.2,-35.75"/>
</a>
</g>
</g>
<!-- Node3 -->
<g id="Node000003" class="node">
<title>Node3</title>
<g id="a_Node000003"><a xlink:href="structllvm_1_1PassInfoMixin.html" target="_top" xlink:title=" ">
<polygon fill="white" stroke="#666666" points="476.75,-79.5 302.5,-79.5 302.5,-49 476.75,-49 476.75,-79.5"/>
<text xml:space="preserve" text-anchor="start" x="310.5" y="-66" font-family="Helvetica,sans-Serif" font-size="10.00">llvm::PassInfoMixin</text>
<text xml:space="preserve" text-anchor="middle" x="389.62" y="-54.75" font-family="Helvetica,sans-Serif" font-size="10.00">&lt; PhysicalRegisterUsageAnalysis &gt;</text>
</a>
</g>
</g>
<!-- Node3&#45;&gt;Node2 -->
<g id="edge2_Node000002_Node000003" class="edge">
<title>Node3&#45;&gt;Node2</title>
<g id="a_edge2_Node000002_Node000003"><a xlink:title=" ">
<path fill="none" stroke="#63b8ff" d="M488.48,-57.68C546.85,-53.76 620.3,-48.84 676.55,-45.06"/>
<polygon fill="#63b8ff" stroke="#63b8ff" points="488.27,-54.19 478.53,-58.35 488.74,-61.17 488.27,-54.19"/>
</a>
</g>
</g>
<!-- Node4 -->
<g id="Node000004" class="node">
<title>Node4</title>
<g id="a_Node000004"><a xlink:href="structllvm_1_1PassInfoMixin.html" target="_top" xlink:title="A CRTP mix&#45;in to automatically provide informational APIs needed for passes.">
<polygon fill="white" stroke="#666666" points="102.25,-79.5 0,-79.5 0,-49 102.25,-49 102.25,-79.5"/>
<text xml:space="preserve" text-anchor="start" x="8" y="-66" font-family="Helvetica,sans-Serif" font-size="10.00">llvm::PassInfoMixin</text>
<text xml:space="preserve" text-anchor="middle" x="51.12" y="-54.75" font-family="Helvetica,sans-Serif" font-size="10.00">&lt; DerivedT &gt;</text>
</a>
</g>
</g>
<!-- Node4&#45;&gt;Node3 -->
<g id="edge3_Node000003_Node000004" class="edge">
<title>Node4&#45;&gt;Node3</title>
<g id="a_edge3_Node000003_Node000004"><a xlink:title=" ">
<path fill="none" stroke="orange" stroke-dasharray="5,2" d="M113.73,-64.25C166.57,-64.25 243.27,-64.25 302.24,-64.25"/>
<polygon fill="orange" stroke="orange" points="114.02,-60.75 104.02,-64.25 114.02,-67.75 114.02,-60.75"/>
</a>
</g>
<text xml:space="preserve" text-anchor="start" x="123.25" y="-69" font-family="Helvetica,sans-Serif" font-size="10.00" fill="grey">&lt; PhysicalRegisterUsageAnalysis &gt;</text>
</g>
<!-- Node5 -->
<g id="Node000005" class="node">
<title>Node5</title>
<g id="a_Node000005"><a xlink:href="structllvm_1_1AnalysisInfoMixin.html" target="_top" xlink:title="A CRTP mix&#45;in that provides informational APIs needed for analysis passes.">
<polygon fill="white" stroke="#666666" points="448.25,-30.5 331,-30.5 331,0 448.25,0 448.25,-30.5"/>
<text xml:space="preserve" text-anchor="start" x="339" y="-17" font-family="Helvetica,sans-Serif" font-size="10.00">llvm::AnalysisInfoMixin</text>
<text xml:space="preserve" text-anchor="middle" x="389.62" y="-5.75" font-family="Helvetica,sans-Serif" font-size="10.00">&lt; DerivedT &gt;</text>
</a>
</g>
</g>
<!-- Node5&#45;&gt;Node2 -->
<g id="edge4_Node000002_Node000005" class="edge">
<title>Node5&#45;&gt;Node2</title>
<g id="a_edge4_Node000002_Node000005"><a xlink:title=" ">
<path fill="none" stroke="orange" stroke-dasharray="5,2" d="M459.75,-17.39C513.99,-19.35 591.38,-22.75 659,-28 664.71,-28.44 670.59,-28.95 676.52,-29.49"/>
<polygon fill="orange" stroke="orange" points="460.17,-13.9 450.05,-17.05 459.92,-20.9 460.17,-13.9"/>
</a>
</g>
<text xml:space="preserve" text-anchor="start" x="497.75" y="-32.75" font-family="Helvetica,sans-Serif" font-size="10.00" fill="grey">&lt; PhysicalRegisterUsageAnalysis &gt;</text>
</g>
<!-- Node6 -->
<g id="Node000006" class="node">
<title>Node6</title>
<g id="a_Node000006"><a xlink:href="structllvm_1_1PassInfoMixin.html" target="_top" xlink:title="A CRTP mix&#45;in to automatically provide informational APIs needed for passes.">
<polygon fill="white" stroke="#666666" points="102.25,-30.5 0,-30.5 0,0 102.25,0 102.25,-30.5"/>
<text xml:space="preserve" text-anchor="start" x="8" y="-17" font-family="Helvetica,sans-Serif" font-size="10.00">llvm::PassInfoMixin</text>
<text xml:space="preserve" text-anchor="middle" x="51.12" y="-5.75" font-family="Helvetica,sans-Serif" font-size="10.00">&lt; DerivedT &gt;</text>
</a>
</g>
</g>
<!-- Node6&#45;&gt;Node5 -->
<g id="edge5_Node000005_Node000006" class="edge">
<title>Node6&#45;&gt;Node5</title>
<g id="a_edge5_Node000005_Node000006"><a xlink:title=" ">
<path fill="none" stroke="#63b8ff" d="M113.65,-15.25C175.46,-15.25 269.99,-15.25 330.55,-15.25"/>
<polygon fill="#63b8ff" stroke="#63b8ff" points="114.02,-11.75 104.02,-15.25 114.02,-18.75 114.02,-11.75"/>
</a>
</g>
</g>
</g>
</svg>
