<?xml version="1.0" encoding="UTF-8" standalone="no"?>
<!DOCTYPE svg PUBLIC "-//W3C//DTD SVG 1.1//EN"
 "http://www.w3.org/Graphics/SVG/1.1/DTD/svg11.dtd">
<!-- Generated by graphviz version 13.1.2 (20250808.2320)
 -->
<!-- Title: llvm::GISelWorkList&lt; N &gt; Pages: 1 -->
<svg width="339pt" height="211pt"
 viewBox="0.00 0.00 339.00 211.00" xmlns="http://www.w3.org/2000/svg" xmlns:xlink="http://www.w3.org/1999/xlink">
<g id="graph0" class="graph" transform="scale(1 1) rotate(0) translate(4 206.88)">
<title>llvm::GISelWorkList&lt; N &gt;</title>
<!-- Node1 -->
<g id="Node000001" class="node">
<title>Node1</title>
<g id="a_Node000001"><a xlink:title=" ">
<polygon fill="#999999" stroke="#666666" points="128.5,-111.25 0,-111.25 0,-92 128.5,-92 128.5,-111.25"/>
<text xml:space="preserve" text-anchor="middle" x="64.25" y="-97.75" font-family="Helvetica,sans-Serif" font-size="10.00">llvm::GISelWorkList&lt; N &gt;</text>
</a>
</g>
</g>
<!-- Node2 -->
<g id="Node000002" class="node">
<title>Node2</title>
<g id="a_Node000002"><a xlink:href="classllvm_1_1GISelWorkList.html" target="_top" xlink:title=" ">
<polygon fill="white" stroke="#666666" points="318.88,-202.88 215.88,-202.88 215.88,-172.38 318.88,-172.38 318.88,-202.88"/>
<text xml:space="preserve" text-anchor="start" x="223.88" y="-189.38" font-family="Helvetica,sans-Serif" font-size="10.00">llvm::GISelWorkList</text>
<text xml:space="preserve" text-anchor="middle" x="267.38" y="-178.12" font-family="Helvetica,sans-Serif" font-size="10.00">&lt; 512 &gt;</text>
</a>
</g>
</g>
<!-- Node1&#45;&gt;Node2 -->
<g id="edge1_Node000001_Node000002" class="edge">
<title>Node1&#45;&gt;Node2</title>
<g id="a_edge1_Node000001_Node000002"><a xlink:title=" ">
<path fill="none" stroke="orange" stroke-dasharray="5,2" d="M88.46,-118.17C104.25,-128.84 125.92,-142.39 146.5,-151.62 168.41,-161.45 193.74,-169.5 215.45,-175.48"/>
<polygon fill="orange" stroke="orange" points="90.48,-115.3 80.26,-112.51 86.5,-121.07 90.48,-115.3"/>
</a>
</g>
<text xml:space="preserve" text-anchor="start" x="149.5" y="-171.07" font-family="Helvetica,sans-Serif" font-size="10.00" fill="grey">&lt; 512 &gt;</text>
</g>
<!-- Node3 -->
<g id="Node000003" class="node">
<title>Node3</title>
<g id="a_Node000003"><a xlink:href="classllvm_1_1GISelWorkList.html" target="_top" xlink:title=" ">
<polygon fill="white" stroke="#666666" points="330.5,-154.25 204.25,-154.25 204.25,-135 330.5,-135 330.5,-154.25"/>
<text xml:space="preserve" text-anchor="middle" x="267.38" y="-140.75" font-family="Helvetica,sans-Serif" font-size="10.00">llvm::GISelWorkList&lt; 4 &gt;</text>
</a>
</g>
</g>
<!-- Node1&#45;&gt;Node3 -->
<g id="edge2_Node000001_Node000003" class="edge">
<title>Node1&#45;&gt;Node3</title>
<g id="a_edge2_Node000001_Node000003"><a xlink:title=" ">
<path fill="none" stroke="orange" stroke-dasharray="5,2" d="M113.04,-114.58C124,-117.39 135.62,-120.22 146.5,-122.62 166.03,-126.93 187.47,-131.06 206.76,-134.55"/>
<polygon fill="orange" stroke="orange" points="113.95,-111.2 103.39,-112.08 112.19,-117.98 113.95,-111.2"/>
</a>
</g>
<text xml:space="preserve" text-anchor="start" x="154.75" y="-135.42" font-family="Helvetica,sans-Serif" font-size="10.00" fill="grey">&lt; 4 &gt;</text>
</g>
<!-- Node4 -->
<g id="Node000004" class="node">
<title>Node4</title>
<g id="a_Node000004"><a xlink:href="classllvm_1_1GISelWorkList.html" target="_top" xlink:title=" ">
<polygon fill="white" stroke="#666666" points="318.88,-116.88 215.88,-116.88 215.88,-86.38 318.88,-86.38 318.88,-116.88"/>
<text xml:space="preserve" text-anchor="start" x="223.88" y="-103.38" font-family="Helvetica,sans-Serif" font-size="10.00">llvm::GISelWorkList</text>
<text xml:space="preserve" text-anchor="middle" x="267.38" y="-92.12" font-family="Helvetica,sans-Serif" font-size="10.00">&lt; 256 &gt;</text>
</a>
</g>
</g>
<!-- Node1&#45;&gt;Node4 -->
<g id="edge3_Node000001_Node000004" class="edge">
<title>Node1&#45;&gt;Node4</title>
<g id="a_edge3_Node000001_Node000004"><a xlink:title=" ">
<path fill="none" stroke="orange" stroke-dasharray="5,2" d="M140.24,-101.62C165.35,-101.62 192.74,-101.62 215.56,-101.62"/>
<polygon fill="orange" stroke="orange" points="140.4,-98.13 130.4,-101.63 140.4,-105.13 140.4,-98.13"/>
</a>
</g>
<text xml:space="preserve" text-anchor="start" x="149.5" y="-106.38" font-family="Helvetica,sans-Serif" font-size="10.00" fill="grey">&lt; 256 &gt;</text>
</g>
<!-- Node5 -->
<g id="Node000005" class="node">
<title>Node5</title>
<g id="a_Node000005"><a xlink:href="classllvm_1_1GISelWorkList.html" target="_top" xlink:title=" ">
<polygon fill="white" stroke="#666666" points="318.88,-67.88 215.88,-67.88 215.88,-37.38 318.88,-37.38 318.88,-67.88"/>
<text xml:space="preserve" text-anchor="start" x="223.88" y="-54.38" font-family="Helvetica,sans-Serif" font-size="10.00">llvm::GISelWorkList</text>
<text xml:space="preserve" text-anchor="middle" x="267.38" y="-43.12" font-family="Helvetica,sans-Serif" font-size="10.00">&lt; 128 &gt;</text>
</a>
</g>
</g>
<!-- Node1&#45;&gt;Node5 -->
<g id="edge4_Node000001_Node000005" class="edge">
<title>Node1&#45;&gt;Node5</title>
<g id="a_edge4_Node000001_Node000005"><a xlink:title=" ">
<path fill="none" stroke="orange" stroke-dasharray="5,2" d="M113.76,-88.7C124.52,-85.9 135.89,-82.99 146.5,-80.38 169.11,-74.8 194.2,-68.95 215.55,-64.05"/>
<polygon fill="orange" stroke="orange" points="113.07,-85.26 104.28,-91.18 114.84,-92.03 113.07,-85.26"/>
</a>
</g>
<text xml:space="preserve" text-anchor="start" x="149.5" y="-85.12" font-family="Helvetica,sans-Serif" font-size="10.00" fill="grey">&lt; 128 &gt;</text>
</g>
<!-- Node6 -->
<g id="Node000006" class="node">
<title>Node6</title>
<g id="a_Node000006"><a xlink:href="classllvm_1_1GISelWorkList.html" target="_top" xlink:title=" ">
<polygon fill="white" stroke="#666666" points="330.5,-19.25 204.25,-19.25 204.25,0 330.5,0 330.5,-19.25"/>
<text xml:space="preserve" text-anchor="middle" x="267.38" y="-5.75" font-family="Helvetica,sans-Serif" font-size="10.00">llvm::GISelWorkList&lt; 8 &gt;</text>
</a>
</g>
</g>
<!-- Node1&#45;&gt;Node6 -->
<g id="edge5_Node000001_Node000006" class="edge">
<title>Node1&#45;&gt;Node6</title>
<g id="a_edge5_Node000001_Node000006"><a xlink:title=" ">
<path fill="none" stroke="orange" stroke-dasharray="5,2" d="M87.79,-85.15C103.66,-74.06 125.7,-59.63 146.5,-49.38 170.96,-37.31 178.37,-37.23 204.25,-28.62 213.35,-25.6 223.25,-22.49 232.43,-19.68"/>
<polygon fill="orange" stroke="orange" points="86.13,-82.04 80.01,-90.69 90.19,-87.74 86.13,-82.04"/>
</a>
</g>
<text xml:space="preserve" text-anchor="start" x="154.75" y="-54.12" font-family="Helvetica,sans-Serif" font-size="10.00" fill="grey">&lt; 8 &gt;</text>
</g>
</g>
</svg>
