<?xml version="1.0" encoding="UTF-8" standalone="no"?>
<!DOCTYPE svg PUBLIC "-//W3C//DTD SVG 1.1//EN"
 "http://www.w3.org/Graphics/SVG/1.1/DTD/svg11.dtd">
<!-- Generated by graphviz version 13.1.2 (20250808.2320)
 -->
<!-- Title: llvm::NewGVNPass Pages: 1 -->
<svg width="149pt" height="179pt"
 viewBox="0.00 0.00 149.00 179.00" xmlns="http://www.w3.org/2000/svg" xmlns:xlink="http://www.w3.org/1999/xlink">
<g id="graph0" class="graph" transform="scale(1 1) rotate(0) translate(4 174.5)">
<title>llvm::NewGVNPass</title>
<!-- Node1 -->
<g id="Node000001" class="node">
<title>Node1</title>
<g id="a_Node000001"><a xlink:title=" ">
<polygon fill="#999999" stroke="#666666" points="104.5,-19.25 0,-19.25 0,0 104.5,0 104.5,-19.25"/>
<text xml:space="preserve" text-anchor="middle" x="52.25" y="-5.75" font-family="Helvetica,sans-Serif" font-size="10.00">llvm::NewGVNPass</text>
</a>
</g>
</g>
<!-- Node2 -->
<g id="Node000002" class="node">
<title>Node2</title>
<g id="a_Node000002"><a xlink:href="structllvm_1_1PassInfoMixin.html" target="_top" xlink:title=" ">
<polygon fill="white" stroke="#666666" points="103.38,-86.75 1.12,-86.75 1.12,-56.25 103.38,-56.25 103.38,-86.75"/>
<text xml:space="preserve" text-anchor="start" x="9.12" y="-73.25" font-family="Helvetica,sans-Serif" font-size="10.00">llvm::PassInfoMixin</text>
<text xml:space="preserve" text-anchor="middle" x="52.25" y="-62" font-family="Helvetica,sans-Serif" font-size="10.00">&lt; NewGVNPass &gt;</text>
</a>
</g>
</g>
<!-- Node2&#45;&gt;Node1 -->
<g id="edge1_Node000001_Node000002" class="edge">
<title>Node2&#45;&gt;Node1</title>
<g id="a_edge1_Node000001_Node000002"><a xlink:title=" ">
<path fill="none" stroke="#63b8ff" d="M52.25,-44.77C52.25,-35.79 52.25,-26.29 52.25,-19.6"/>
<polygon fill="#63b8ff" stroke="#63b8ff" points="48.75,-44.49 52.25,-54.49 55.75,-44.49 48.75,-44.49"/>
</a>
</g>
</g>
<!-- Node3 -->
<g id="Node000003" class="node">
<title>Node3</title>
<g id="a_Node000003"><a xlink:href="structllvm_1_1PassInfoMixin.html" target="_top" xlink:title="A CRTP mix&#45;in to automatically provide informational APIs needed for passes.">
<polygon fill="white" stroke="#666666" points="103.38,-170.5 1.12,-170.5 1.12,-140 103.38,-140 103.38,-170.5"/>
<text xml:space="preserve" text-anchor="start" x="9.12" y="-157" font-family="Helvetica,sans-Serif" font-size="10.00">llvm::PassInfoMixin</text>
<text xml:space="preserve" text-anchor="middle" x="52.25" y="-145.75" font-family="Helvetica,sans-Serif" font-size="10.00">&lt; DerivedT &gt;</text>
</a>
</g>
</g>
<!-- Node3&#45;&gt;Node2 -->
<g id="edge2_Node000002_Node000003" class="edge">
<title>Node3&#45;&gt;Node2</title>
<g id="a_edge2_Node000002_Node000003"><a xlink:title=" ">
<path fill="none" stroke="orange" stroke-dasharray="5,2" d="M52.25,-128.47C52.25,-114.78 52.25,-98.46 52.25,-86.99"/>
<polygon fill="orange" stroke="orange" points="48.75,-128.12 52.25,-138.12 55.75,-128.12 48.75,-128.12"/>
</a>
</g>
<text xml:space="preserve" text-anchor="start" x="55.25" y="-109.5" font-family="Helvetica,sans-Serif" font-size="10.00" fill="grey">&lt; NewGVNPass &gt;</text>
</g>
</g>
</svg>
