<?xml version="1.0" encoding="UTF-8" standalone="no"?>
<!DOCTYPE svg PUBLIC "-//W3C//DTD SVG 1.1//EN"
 "http://www.w3.org/Graphics/SVG/1.1/DTD/svg11.dtd">
<!-- Generated by graphviz version 13.1.2 (20250808.2320)
 -->
<!-- Title: llvm::filter_iterator_base&lt; WrappedIteratorT, PredicateT, IterTag &gt; Pages: 1 -->
<svg width="1764pt" height="608pt"
 viewBox="0.00 0.00 1764.00 608.00" xmlns="http://www.w3.org/2000/svg" xmlns:xlink="http://www.w3.org/1999/xlink">
<g id="graph0" class="graph" transform="scale(1 1) rotate(0) translate(4 603.94)">
<title>llvm::filter_iterator_base&lt; WrappedIteratorT, PredicateT, IterTag &gt;</title>
<!-- Node1 -->
<g id="Node000001" class="node">
<title>Node1</title>
<g id="a_Node000001"><a xlink:title="An iterator adaptor that filters the elements of given inner iterators.">
<polygon fill="#999999" stroke="#666666" points="935.25,-332.38 807.5,-332.38 807.5,-290.62 935.25,-290.62 935.25,-332.38"/>
<text xml:space="preserve" text-anchor="start" x="815.5" y="-318.88" font-family="Helvetica,sans-Serif" font-size="10.00">llvm::filter_iterator</text>
<text xml:space="preserve" text-anchor="start" x="815.5" y="-307.62" font-family="Helvetica,sans-Serif" font-size="10.00">_base&lt; WrappedIteratorT,</text>
<text xml:space="preserve" text-anchor="middle" x="871.38" y="-296.38" font-family="Helvetica,sans-Serif" font-size="10.00"> PredicateT, IterTag &gt;</text>
</a>
</g>
</g>
<!-- Node6 -->
<g id="Node000006" class="node">
<title>Node6</title>
<g id="a_Node000006"><a xlink:href="classllvm_1_1filter__iterator__impl.html" target="_top" xlink:title=" ">
<polygon fill="white" stroke="#666666" points="1755.75,-510.62 1581.5,-510.62 1581.5,-446.38 1755.75,-446.38 1755.75,-510.62"/>
<text xml:space="preserve" text-anchor="start" x="1589.5" y="-497.12" font-family="Helvetica,sans-Serif" font-size="10.00">llvm::filter_iterator</text>
<text xml:space="preserve" text-anchor="start" x="1589.5" y="-485.88" font-family="Helvetica,sans-Serif" font-size="10.00">_impl&lt; WrappedIteratorT,</text>
<text xml:space="preserve" text-anchor="start" x="1589.5" y="-474.62" font-family="Helvetica,sans-Serif" font-size="10.00"> PredicateT, typename detail</text>
<text xml:space="preserve" text-anchor="start" x="1589.5" y="-463.38" font-family="Helvetica,sans-Serif" font-size="10.00">::fwd_or_bidi_tag&lt; WrappedIteratorT</text>
<text xml:space="preserve" text-anchor="middle" x="1668.62" y="-452.12" font-family="Helvetica,sans-Serif" font-size="10.00"> &gt;::type &gt;</text>
</a>
</g>
</g>
<!-- Node1&#45;&gt;Node6 -->
<g id="edge5_Node000001_Node000006" class="edge">
<title>Node1&#45;&gt;Node6</title>
<g id="a_edge5_Node000001_Node000006"><a xlink:title=" ">
<path fill="none" stroke="#63b8ff" d="M894.03,-341.88C908.84,-360.73 929.96,-384.2 953.25,-399.5 1138.7,-521.3 1205.98,-526.54 1424.75,-563.5 1485.55,-573.77 1510.67,-595.31 1563.5,-563.5 1578.15,-554.68 1569.7,-541.88 1581.5,-529.5 1587.98,-522.71 1595.55,-516.51 1603.47,-510.96"/>
<polygon fill="#63b8ff" stroke="#63b8ff" points="896.86,-339.81 888.01,-333.98 891.29,-344.05 896.86,-339.81"/>
</a>
</g>
</g>
<!-- Node7 -->
<g id="Node000007" class="node">
<title>Node7</title>
<g id="a_Node000007"><a xlink:href="classllvm_1_1filter__iterator__impl.html" target="_top" xlink:title=" ">
<polygon fill="white" stroke="#666666" points="1739.62,-373.38 1597.62,-373.38 1597.62,-331.62 1739.62,-331.62 1739.62,-373.38"/>
<text xml:space="preserve" text-anchor="start" x="1605.62" y="-359.88" font-family="Helvetica,sans-Serif" font-size="10.00">llvm::filter_iterator</text>
<text xml:space="preserve" text-anchor="start" x="1605.62" y="-348.62" font-family="Helvetica,sans-Serif" font-size="10.00">_impl&lt; WrappedSuccIterator,</text>
<text xml:space="preserve" text-anchor="middle" x="1668.62" y="-337.38" font-family="Helvetica,sans-Serif" font-size="10.00"> LoopBodyFilter &gt;</text>
</a>
</g>
</g>
<!-- Node1&#45;&gt;Node7 -->
<g id="edge6_Node000001_Node000007" class="edge">
<title>Node1&#45;&gt;Node7</title>
<g id="a_edge6_Node000001_Node000007"><a xlink:title=" ">
<path fill="none" stroke="#63b8ff" d="M909.11,-339.03C922.45,-347.94 938,-357.15 953.25,-363.5 1151.38,-445.93 1211.42,-444.25 1424.75,-467.5 1486.05,-474.18 1509.84,-497.88 1563.5,-467.5 1577.03,-459.84 1571.89,-449.72 1581.5,-437.5 1600.07,-413.88 1624.76,-390.13 1642.95,-373.76"/>
<polygon fill="#63b8ff" stroke="#63b8ff" points="911.3,-336.28 901.08,-333.49 907.33,-342.05 911.3,-336.28"/>
</a>
</g>
</g>
<!-- Node8 -->
<g id="Node000008" class="node">
<title>Node8</title>
<g id="a_Node000008"><a xlink:href="classllvm_1_1filter__iterator__impl.html" target="_top" xlink:title=" ">
<polygon fill="white" stroke="#666666" points="1738.5,-591 1598.75,-591 1598.75,-538 1738.5,-538 1738.5,-591"/>
<text xml:space="preserve" text-anchor="start" x="1606.75" y="-577.5" font-family="Helvetica,sans-Serif" font-size="10.00">llvm::filter_iterator</text>
<text xml:space="preserve" text-anchor="start" x="1606.75" y="-566.25" font-family="Helvetica,sans-Serif" font-size="10.00">_impl&lt; const_target_iterator,</text>
<text xml:space="preserve" text-anchor="start" x="1606.75" y="-555" font-family="Helvetica,sans-Serif" font-size="10.00"> std::function&lt; bool(const</text>
<text xml:space="preserve" text-anchor="middle" x="1668.62" y="-543.75" font-family="Helvetica,sans-Serif" font-size="10.00"> Target &amp;)&gt; &gt;</text>
</a>
</g>
</g>
<!-- Node1&#45;&gt;Node8 -->
<g id="edge7_Node000001_Node000008" class="edge">
<title>Node1&#45;&gt;Node8</title>
<g id="a_edge7_Node000001_Node000008"><a xlink:title=" ">
<path fill="none" stroke="#63b8ff" d="M884.72,-342.94C897.9,-373.17 921.3,-418.56 953.25,-448.5 1002.86,-494.97 1026.06,-493.73 1089.75,-517.5 1289.04,-591.87 1351.84,-606.63 1563.5,-585.5 1574.88,-584.36 1586.85,-582.55 1598.46,-580.44"/>
<polygon fill="#63b8ff" stroke="#63b8ff" points="888.04,-341.79 880.92,-333.94 881.59,-344.51 888.04,-341.79"/>
</a>
</g>
</g>
<!-- Node9 -->
<g id="Node000009" class="node">
<title>Node9</title>
<g id="a_Node000009"><a xlink:href="classllvm_1_1filter__iterator__impl.html" target="_top" xlink:title=" ">
<polygon fill="white" stroke="#666666" points="1741.88,-273 1595.38,-273 1595.38,-220 1741.88,-220 1741.88,-273"/>
<text xml:space="preserve" text-anchor="start" x="1603.38" y="-259.5" font-family="Helvetica,sans-Serif" font-size="10.00">llvm::filter_iterator</text>
<text xml:space="preserve" text-anchor="start" x="1603.38" y="-248.25" font-family="Helvetica,sans-Serif" font-size="10.00">_impl&lt; const_symbol_iterator,</text>
<text xml:space="preserve" text-anchor="start" x="1603.38" y="-237" font-family="Helvetica,sans-Serif" font-size="10.00"> std::function&lt; bool(const</text>
<text xml:space="preserve" text-anchor="middle" x="1668.62" y="-225.75" font-family="Helvetica,sans-Serif" font-size="10.00"> Symbol *)&gt; &gt;</text>
</a>
</g>
</g>
<!-- Node1&#45;&gt;Node9 -->
<g id="edge8_Node000001_Node000009" class="edge">
<title>Node1&#45;&gt;Node9</title>
<g id="a_edge8_Node000001_Node000009"><a xlink:title=" ">
<path fill="none" stroke="#63b8ff" d="M946.7,-291.85C1052.12,-265.1 1251.53,-218.58 1424.75,-201.5 1486.12,-195.45 1503.11,-189.01 1563.5,-201.5 1581.44,-205.21 1600.08,-212.16 1616.55,-219.51"/>
<polygon fill="#63b8ff" stroke="#63b8ff" points="945.85,-288.46 937.02,-294.32 947.58,-295.24 945.85,-288.46"/>
</a>
</g>
</g>
<!-- Node10 -->
<g id="Node000010" class="node">
<title>Node10</title>
<g id="a_Node000010"><a xlink:href="classllvm_1_1filter__iterator__impl.html" target="_top" xlink:title=" ">
<polygon fill="white" stroke="#666666" points="1739.62,-142.38 1597.62,-142.38 1597.62,-100.62 1739.62,-100.62 1739.62,-142.38"/>
<text xml:space="preserve" text-anchor="start" x="1605.62" y="-128.88" font-family="Helvetica,sans-Serif" font-size="10.00">llvm::filter_iterator</text>
<text xml:space="preserve" text-anchor="start" x="1605.62" y="-117.62" font-family="Helvetica,sans-Serif" font-size="10.00">_impl&lt; WrappedSuccIterator,</text>
<text xml:space="preserve" text-anchor="middle" x="1668.62" y="-106.38" font-family="Helvetica,sans-Serif" font-size="10.00"> bool(*)(const NodeRef &amp;)&gt;</text>
</a>
</g>
</g>
<!-- Node1&#45;&gt;Node10 -->
<g id="edge9_Node000001_Node000010" class="edge">
<title>Node1&#45;&gt;Node10</title>
<g id="a_edge9_Node000001_Node000010"><a xlink:title=" ">
<path fill="none" stroke="#63b8ff" d="M910.07,-283.81C923.28,-274.92 938.51,-265.56 953.25,-258.5 1151.92,-163.28 1207.14,-139.92 1424.75,-105.5 1482.45,-96.37 1548.66,-101.77 1597.37,-108.67"/>
<polygon fill="#63b8ff" stroke="#63b8ff" points="908.35,-280.74 902.09,-289.3 912.31,-286.51 908.35,-280.74"/>
</a>
</g>
</g>
<!-- Node11 -->
<g id="Node000011" class="node">
<title>Node11</title>
<g id="a_Node000011"><a xlink:href="classllvm_1_1filter__iterator__base.html" target="_top" xlink:title=" ">
<polygon fill="white" stroke="#666666" points="1222.62,-338 1094.88,-338 1094.88,-285 1222.62,-285 1222.62,-338"/>
<text xml:space="preserve" text-anchor="start" x="1102.88" y="-324.5" font-family="Helvetica,sans-Serif" font-size="10.00">llvm::filter_iterator</text>
<text xml:space="preserve" text-anchor="start" x="1102.88" y="-313.25" font-family="Helvetica,sans-Serif" font-size="10.00">_base&lt; WrappedIteratorT,</text>
<text xml:space="preserve" text-anchor="start" x="1102.88" y="-302" font-family="Helvetica,sans-Serif" font-size="10.00"> PredicateT, std::forward</text>
<text xml:space="preserve" text-anchor="middle" x="1158.75" y="-290.75" font-family="Helvetica,sans-Serif" font-size="10.00">_iterator_tag &gt;</text>
</a>
</g>
</g>
<!-- Node1&#45;&gt;Node11 -->
<g id="edge10_Node000001_Node000011" class="edge">
<title>Node1&#45;&gt;Node11</title>
<g id="a_edge10_Node000001_Node000011"><a xlink:title=" ">
<path fill="none" stroke="orange" stroke-dasharray="5,2" d="M947.09,-311.5C992.95,-311.5 1051.04,-311.5 1094.59,-311.5"/>
<polygon fill="orange" stroke="orange" points="947.22,-308 937.22,-311.5 947.22,-315 947.22,-308"/>
</a>
</g>
<text xml:space="preserve" text-anchor="start" x="956.25" y="-346.75" font-family="Helvetica,sans-Serif" font-size="10.00" fill="grey">&lt; WrappedIteratorT,</text>
<text xml:space="preserve" text-anchor="start" x="956.25" y="-331.5" font-family="Helvetica,sans-Serif" font-size="10.00" fill="grey">   PredicateT, std::forward</text>
<text xml:space="preserve" text-anchor="start" x="956.25" y="-316.25" font-family="Helvetica,sans-Serif" font-size="10.00" fill="grey">  _iterator_tag &gt;</text>
</g>
<!-- Node14 -->
<g id="Node000014" class="node">
<title>Node14</title>
<g id="a_Node000014"><a xlink:href="classllvm_1_1filter__iterator__base.html" target="_top" xlink:title=" ">
<polygon fill="white" stroke="#666666" points="1406.75,-53 1264.75,-53 1264.75,0 1406.75,0 1406.75,-53"/>
<text xml:space="preserve" text-anchor="start" x="1272.75" y="-39.5" font-family="Helvetica,sans-Serif" font-size="10.00">llvm::filter_iterator</text>
<text xml:space="preserve" text-anchor="start" x="1272.75" y="-28.25" font-family="Helvetica,sans-Serif" font-size="10.00">_base&lt; WrappedIteratorT,</text>
<text xml:space="preserve" text-anchor="start" x="1272.75" y="-17" font-family="Helvetica,sans-Serif" font-size="10.00"> PredicateT, std::bidirectional</text>
<text xml:space="preserve" text-anchor="middle" x="1335.75" y="-5.75" font-family="Helvetica,sans-Serif" font-size="10.00">_iterator_tag &gt;</text>
</a>
</g>
</g>
<!-- Node1&#45;&gt;Node14 -->
<g id="edge18_Node000001_Node000014" class="edge">
<title>Node1&#45;&gt;Node14</title>
<g id="a_edge18_Node000001_Node000014"><a xlink:title=" ">
<path fill="none" stroke="orange" stroke-dasharray="5,2" d="M874.82,-278.8C880.28,-228.77 897.76,-133.2 953.25,-77.5 1034.25,3.8 1178.28,-1.03 1264.31,-13.02"/>
<polygon fill="orange" stroke="orange" points="871.34,-278.39 873.85,-288.69 878.31,-279.08 871.34,-278.39"/>
</a>
</g>
<text xml:space="preserve" text-anchor="start" x="1092.75" y="-48.04" font-family="Helvetica,sans-Serif" font-size="10.00" fill="grey">&lt; WrappedIteratorT,</text>
<text xml:space="preserve" text-anchor="start" x="1092.75" y="-32.79" font-family="Helvetica,sans-Serif" font-size="10.00" fill="grey">   PredicateT, std::bidirectional</text>
<text xml:space="preserve" text-anchor="start" x="1092.75" y="-17.54" font-family="Helvetica,sans-Serif" font-size="10.00" fill="grey">  _iterator_tag &gt;</text>
</g>
<!-- Node2 -->
<g id="Node000002" class="node">
<title>Node2</title>
<g id="a_Node000002"><a xlink:href="classllvm_1_1iterator__adaptor__base.html" target="_top" xlink:title=" ">
<polygon fill="white" stroke="#666666" points="770.5,-360.5 598.5,-360.5 598.5,-262.5 770.5,-262.5 770.5,-360.5"/>
<text xml:space="preserve" text-anchor="start" x="606.5" y="-347" font-family="Helvetica,sans-Serif" font-size="10.00">llvm::iterator_adaptor</text>
<text xml:space="preserve" text-anchor="start" x="606.5" y="-335.75" font-family="Helvetica,sans-Serif" font-size="10.00">_base&lt; filter_iterator</text>
<text xml:space="preserve" text-anchor="start" x="606.5" y="-324.5" font-family="Helvetica,sans-Serif" font-size="10.00">_base&lt; WrappedIteratorT,</text>
<text xml:space="preserve" text-anchor="start" x="606.5" y="-313.25" font-family="Helvetica,sans-Serif" font-size="10.00"> PredicateT, IterTag &gt;,</text>
<text xml:space="preserve" text-anchor="start" x="606.5" y="-302" font-family="Helvetica,sans-Serif" font-size="10.00"> WrappedIteratorT, std::common</text>
<text xml:space="preserve" text-anchor="start" x="606.5" y="-290.75" font-family="Helvetica,sans-Serif" font-size="10.00">_type_t&lt; IterTag, std::iterator</text>
<text xml:space="preserve" text-anchor="start" x="606.5" y="-279.5" font-family="Helvetica,sans-Serif" font-size="10.00">_traits&lt; WrappedIteratorT &gt;::iterator</text>
<text xml:space="preserve" text-anchor="middle" x="684.5" y="-268.25" font-family="Helvetica,sans-Serif" font-size="10.00">_category &gt; &gt;</text>
</a>
</g>
</g>
<!-- Node2&#45;&gt;Node1 -->
<g id="edge1_Node000001_Node000002" class="edge">
<title>Node2&#45;&gt;Node1</title>
<g id="a_edge1_Node000001_Node000002"><a xlink:title=" ">
<path fill="none" stroke="#63b8ff" d="M782.37,-311.5C790.77,-311.5 799.13,-311.5 807.15,-311.5"/>
<polygon fill="#63b8ff" stroke="#63b8ff" points="782.42,-308 772.42,-311.5 782.42,-315 782.42,-308"/>
</a>
</g>
</g>
<!-- Node3 -->
<g id="Node000003" class="node">
<title>Node3</title>
<g id="a_Node000003"><a xlink:href="classllvm_1_1iterator__facade__base.html" target="_top" xlink:title="CRTP base class which implements the entire standard iterator facade in terms of a minimal subset of ...">
<polygon fill="white" stroke="#666666" points="378,-393 212,-393 212,-340 378,-340 378,-393"/>
<text xml:space="preserve" text-anchor="start" x="220" y="-379.5" font-family="Helvetica,sans-Serif" font-size="10.00">llvm::iterator_facade</text>
<text xml:space="preserve" text-anchor="start" x="220" y="-368.25" font-family="Helvetica,sans-Serif" font-size="10.00">_base&lt; DerivedT, IteratorCategory</text>
<text xml:space="preserve" text-anchor="start" x="220" y="-357" font-family="Helvetica,sans-Serif" font-size="10.00">T, T, DifferenceTypeT, PointerT,</text>
<text xml:space="preserve" text-anchor="middle" x="295" y="-345.75" font-family="Helvetica,sans-Serif" font-size="10.00"> ReferenceT &gt;</text>
</a>
</g>
</g>
<!-- Node3&#45;&gt;Node2 -->
<g id="edge2_Node000002_Node000003" class="edge">
<title>Node3&#45;&gt;Node2</title>
<g id="a_edge2_Node000002_Node000003"><a xlink:title=" ">
<path fill="none" stroke="#63b8ff" d="M389.81,-369.59C445.77,-369.53 517.88,-366.11 580.5,-352.5 586.33,-351.23 592.26,-349.67 598.18,-347.91"/>
<polygon fill="#63b8ff" stroke="#63b8ff" points="390.01,-366.09 380,-369.56 389.99,-373.09 390.01,-366.09"/>
</a>
</g>
</g>
<!-- Node4 -->
<g id="Node000004" class="node">
<title>Node4</title>
<g id="a_Node000004"><a xlink:href="classllvm_1_1iterator__adaptor__base.html" target="_top" xlink:title="CRTP base class for adapting an iterator to a different type.">
<polygon fill="white" stroke="#666666" points="387,-284 203,-284 203,-231 387,-231 387,-284"/>
<text xml:space="preserve" text-anchor="start" x="211" y="-270.5" font-family="Helvetica,sans-Serif" font-size="10.00">llvm::iterator_adaptor</text>
<text xml:space="preserve" text-anchor="start" x="211" y="-259.25" font-family="Helvetica,sans-Serif" font-size="10.00">_base&lt; DerivedT, WrappedIterator</text>
<text xml:space="preserve" text-anchor="start" x="211" y="-248" font-family="Helvetica,sans-Serif" font-size="10.00">T, IteratorCategoryT, T, DifferenceType</text>
<text xml:space="preserve" text-anchor="middle" x="295" y="-236.75" font-family="Helvetica,sans-Serif" font-size="10.00">T, PointerT, ReferenceT &gt;</text>
</a>
</g>
</g>
<!-- Node4&#45;&gt;Node2 -->
<g id="edge3_Node000002_Node000004" class="edge">
<title>Node4&#45;&gt;Node2</title>
<g id="a_edge3_Node000002_Node000004"><a xlink:title=" ">
<path fill="none" stroke="orange" stroke-dasharray="5,2" d="M398.78,-246.68C453.48,-243.75 521.46,-244.66 580.5,-259 586.35,-260.42 592.25,-262.23 598.09,-264.32"/>
<polygon fill="orange" stroke="orange" points="398.6,-243.18 388.82,-247.27 399.01,-250.17 398.6,-243.18"/>
</a>
</g>
<text xml:space="preserve" text-anchor="start" x="408" y="-340" font-family="Helvetica,sans-Serif" font-size="10.00" fill="grey">&lt; filter_iterator_base</text>
<text xml:space="preserve" text-anchor="start" x="408" y="-324.75" font-family="Helvetica,sans-Serif" font-size="10.00" fill="grey">  &lt; WrappedIteratorT, Predicate</text>
<text xml:space="preserve" text-anchor="start" x="408" y="-309.5" font-family="Helvetica,sans-Serif" font-size="10.00" fill="grey">  T, IterTag &gt;, WrappedIteratorT,</text>
<text xml:space="preserve" text-anchor="start" x="408" y="-294.25" font-family="Helvetica,sans-Serif" font-size="10.00" fill="grey">   std::common_type_t&lt; IterTag,</text>
<text xml:space="preserve" text-anchor="start" x="408" y="-279" font-family="Helvetica,sans-Serif" font-size="10.00" fill="grey">   std::iterator_traits&lt; WrappedIteratorT</text>
<text xml:space="preserve" text-anchor="start" x="408" y="-263.75" font-family="Helvetica,sans-Serif" font-size="10.00" fill="grey">   &gt;::iterator_category &gt; &gt;</text>
</g>
<!-- Node5 -->
<g id="Node000005" class="node">
<title>Node5</title>
<g id="a_Node000005"><a xlink:href="classllvm_1_1iterator__facade__base.html" target="_top" xlink:title="CRTP base class which implements the entire standard iterator facade in terms of a minimal subset of ...">
<polygon fill="white" stroke="#666666" points="166,-284 0,-284 0,-231 166,-231 166,-284"/>
<text xml:space="preserve" text-anchor="start" x="8" y="-270.5" font-family="Helvetica,sans-Serif" font-size="10.00">llvm::iterator_facade</text>
<text xml:space="preserve" text-anchor="start" x="8" y="-259.25" font-family="Helvetica,sans-Serif" font-size="10.00">_base&lt; DerivedT, IteratorCategory</text>
<text xml:space="preserve" text-anchor="start" x="8" y="-248" font-family="Helvetica,sans-Serif" font-size="10.00">T, T, DifferenceTypeT, PointerT,</text>
<text xml:space="preserve" text-anchor="middle" x="83" y="-236.75" font-family="Helvetica,sans-Serif" font-size="10.00"> ReferenceT &gt;</text>
</a>
</g>
</g>
<!-- Node5&#45;&gt;Node4 -->
<g id="edge4_Node000004_Node000005" class="edge">
<title>Node5&#45;&gt;Node4</title>
<g id="a_edge4_Node000004_Node000005"><a xlink:title=" ">
<path fill="none" stroke="#63b8ff" d="M177.7,-257.5C186.05,-257.5 194.49,-257.5 202.82,-257.5"/>
<polygon fill="#63b8ff" stroke="#63b8ff" points="177.91,-254 167.91,-257.5 177.91,-261 177.91,-254"/>
</a>
</g>
</g>
<!-- Node12 -->
<g id="Node000012" class="node">
<title>Node12</title>
<g id="a_Node000012"><a xlink:href="classllvm_1_1filter__iterator__impl.html" target="_top" xlink:title="Specialization of filter_iterator_base for forward iteration only.">
<polygon fill="white" stroke="#666666" points="1398.12,-332.38 1273.38,-332.38 1273.38,-290.62 1398.12,-290.62 1398.12,-332.38"/>
<text xml:space="preserve" text-anchor="start" x="1281.38" y="-318.88" font-family="Helvetica,sans-Serif" font-size="10.00">llvm::filter_iterator</text>
<text xml:space="preserve" text-anchor="start" x="1281.38" y="-307.62" font-family="Helvetica,sans-Serif" font-size="10.00">_impl&lt; WrappedIteratorT,</text>
<text xml:space="preserve" text-anchor="middle" x="1335.75" y="-296.38" font-family="Helvetica,sans-Serif" font-size="10.00"> PredicateT, IterTag &gt;</text>
</a>
</g>
</g>
<!-- Node11&#45;&gt;Node12 -->
<g id="edge11_Node000011_Node000012" class="edge">
<title>Node11&#45;&gt;Node12</title>
<g id="a_edge11_Node000011_Node000012"><a xlink:title=" ">
<path fill="none" stroke="#63b8ff" d="M1234.2,-311.5C1247.18,-311.5 1260.55,-311.5 1273.13,-311.5"/>
<polygon fill="#63b8ff" stroke="#63b8ff" points="1234.44,-308 1224.44,-311.5 1234.44,-315 1234.44,-308"/>
</a>
</g>
</g>
<!-- Node12&#45;&gt;Node6 -->
<g id="edge12_Node000012_Node000006" class="edge">
<title>Node12&#45;&gt;Node6</title>
<g id="a_edge12_Node000012_Node000006"><a xlink:title=" ">
<path fill="none" stroke="orange" stroke-dasharray="5,2" d="M1368.87,-339.66C1384.88,-352.71 1405,-367.67 1424.75,-378.5 1482.36,-410.08 1502.89,-404.15 1563.5,-429.5 1575.67,-434.59 1588.48,-440.31 1600.8,-446"/>
<polygon fill="orange" stroke="orange" points="1371.52,-337.31 1361.59,-333.62 1367.05,-342.7 1371.52,-337.31"/>
</a>
</g>
<text xml:space="preserve" text-anchor="start" x="1427.75" y="-480" font-family="Helvetica,sans-Serif" font-size="10.00" fill="grey">&lt; WrappedIteratorT,</text>
<text xml:space="preserve" text-anchor="start" x="1427.75" y="-464.75" font-family="Helvetica,sans-Serif" font-size="10.00" fill="grey">   PredicateT, typename</text>
<text xml:space="preserve" text-anchor="start" x="1427.75" y="-449.5" font-family="Helvetica,sans-Serif" font-size="10.00" fill="grey">   detail::fwd_or_bidi_tag</text>
<text xml:space="preserve" text-anchor="start" x="1427.75" y="-434.25" font-family="Helvetica,sans-Serif" font-size="10.00" fill="grey">  &lt; WrappedIteratorT &gt;::type &gt;</text>
</g>
<!-- Node12&#45;&gt;Node7 -->
<g id="edge13_Node000012_Node000007" class="edge">
<title>Node12&#45;&gt;Node7</title>
<g id="a_edge13_Node000012_Node000007"><a xlink:title=" ">
<path fill="none" stroke="orange" stroke-dasharray="5,2" d="M1409.52,-323.35C1414.67,-324.11 1419.79,-324.83 1424.75,-325.5 1482.77,-333.34 1548.81,-340.57 1597.37,-345.57"/>
<polygon fill="orange" stroke="orange" points="1410.14,-319.9 1399.74,-321.88 1409.11,-326.83 1410.14,-319.9"/>
</a>
</g>
<text xml:space="preserve" text-anchor="start" x="1442.75" y="-361.95" font-family="Helvetica,sans-Serif" font-size="10.00" fill="grey">&lt; WrappedSuccIterator,</text>
<text xml:space="preserve" text-anchor="start" x="1442.75" y="-346.7" font-family="Helvetica,sans-Serif" font-size="10.00" fill="grey">   LoopBodyFilter &gt;</text>
</g>
<!-- Node12&#45;&gt;Node8 -->
<g id="edge14_Node000012_Node000008" class="edge">
<title>Node12&#45;&gt;Node8</title>
<g id="a_edge14_Node000012_Node000008"><a xlink:title=" ">
<path fill="none" stroke="orange" stroke-dasharray="5,2" d="M1343.98,-343.96C1354.68,-384.55 1378.66,-453.43 1424.75,-492.5 1473.64,-533.95 1545.59,-551.54 1598.49,-559.01"/>
<polygon fill="orange" stroke="orange" points="1347.38,-343.14 1341.55,-334.3 1340.59,-344.85 1347.38,-343.14"/>
</a>
</g>
<text xml:space="preserve" text-anchor="start" x="1435.62" y="-587.44" font-family="Helvetica,sans-Serif" font-size="10.00" fill="grey">&lt; const_target_iterator,</text>
<text xml:space="preserve" text-anchor="start" x="1435.62" y="-572.19" font-family="Helvetica,sans-Serif" font-size="10.00" fill="grey">   std::function&lt; bool(const</text>
<text xml:space="preserve" text-anchor="start" x="1435.62" y="-556.94" font-family="Helvetica,sans-Serif" font-size="10.00" fill="grey">   Target &amp;)&gt; &gt;</text>
</g>
<!-- Node12&#45;&gt;Node9 -->
<g id="edge15_Node000012_Node000009" class="edge">
<title>Node12&#45;&gt;Node9</title>
<g id="a_edge15_Node000012_Node000009"><a xlink:title=" ">
<path fill="none" stroke="orange" stroke-dasharray="5,2" d="M1389.85,-285.77C1401.16,-281.13 1413.18,-276.81 1424.75,-273.75 1455.87,-265.52 1535.44,-257.47 1595.08,-252.28"/>
<polygon fill="orange" stroke="orange" points="1388.49,-282.54 1380.66,-289.68 1391.24,-288.98 1388.49,-282.54"/>
</a>
</g>
<text xml:space="preserve" text-anchor="start" x="1435.62" y="-309" font-family="Helvetica,sans-Serif" font-size="10.00" fill="grey">&lt; const_symbol_iterator,</text>
<text xml:space="preserve" text-anchor="start" x="1435.62" y="-293.75" font-family="Helvetica,sans-Serif" font-size="10.00" fill="grey">   std::function&lt; bool(const</text>
<text xml:space="preserve" text-anchor="start" x="1435.62" y="-278.5" font-family="Helvetica,sans-Serif" font-size="10.00" fill="grey">   Symbol *)&gt; &gt;</text>
</g>
<!-- Node12&#45;&gt;Node10 -->
<g id="edge16_Node000012_Node000010" class="edge">
<title>Node12&#45;&gt;Node10</title>
<g id="a_edge16_Node000012_Node000010"><a xlink:title=" ">
<path fill="none" stroke="orange" stroke-dasharray="5,2" d="M1358.46,-281.62C1374.64,-261.31 1398.43,-235.27 1424.75,-219 1479.61,-185.08 1503.89,-201.12 1563.5,-176.5 1586.74,-166.9 1611.69,-153.83 1631.33,-142.84"/>
<polygon fill="orange" stroke="orange" points="1355.86,-279.25 1352.5,-289.3 1361.39,-283.54 1355.86,-279.25"/>
</a>
</g>
<text xml:space="preserve" text-anchor="start" x="1431.88" y="-239" font-family="Helvetica,sans-Serif" font-size="10.00" fill="grey">&lt; WrappedSuccIterator,</text>
<text xml:space="preserve" text-anchor="start" x="1431.88" y="-223.75" font-family="Helvetica,sans-Serif" font-size="10.00" fill="grey">   bool(*)(const NodeRef &amp;)&gt;</text>
</g>
<!-- Node13 -->
<g id="Node000013" class="node">
<title>Node13</title>
<g id="a_Node000013"><a xlink:href="classllvm_1_1filter__iterator__impl_3_01WrappedIteratorT_00_01PredicateT_00_01std_1_1bidirectional__iterator__tag_01_4.html" target="_top" xlink:title="Specialization of filter_iterator_base for bidirectional iteration.">
<polygon fill="white" stroke="#666666" points="1739.62,-53 1597.62,-53 1597.62,0 1739.62,0 1739.62,-53"/>
<text xml:space="preserve" text-anchor="start" x="1605.62" y="-39.5" font-family="Helvetica,sans-Serif" font-size="10.00">llvm::filter_iterator</text>
<text xml:space="preserve" text-anchor="start" x="1605.62" y="-28.25" font-family="Helvetica,sans-Serif" font-size="10.00">_impl&lt; WrappedIteratorT,</text>
<text xml:space="preserve" text-anchor="start" x="1605.62" y="-17" font-family="Helvetica,sans-Serif" font-size="10.00"> PredicateT, std::bidirectional</text>
<text xml:space="preserve" text-anchor="middle" x="1668.62" y="-5.75" font-family="Helvetica,sans-Serif" font-size="10.00">_iterator_tag &gt;</text>
</a>
</g>
</g>
<!-- Node12&#45;&gt;Node13 -->
<g id="edge17_Node000012_Node000013" class="edge">
<title>Node12&#45;&gt;Node13</title>
<g id="a_edge17_Node000012_Node000013"><a xlink:title=" ">
<path fill="none" stroke="orange" stroke-dasharray="5,2" d="M1344.15,-279.31C1355.14,-238.27 1379.5,-167.54 1424.75,-124.75 1472.67,-79.44 1544.23,-53.93 1597.27,-40.34"/>
<polygon fill="orange" stroke="orange" points="1340.8,-278.27 1341.72,-288.83 1347.59,-280.01 1340.8,-278.27"/>
</a>
</g>
<text xml:space="preserve" text-anchor="start" x="1428.12" y="-160" font-family="Helvetica,sans-Serif" font-size="10.00" fill="grey">&lt; WrappedIteratorT,</text>
<text xml:space="preserve" text-anchor="start" x="1428.12" y="-144.75" font-family="Helvetica,sans-Serif" font-size="10.00" fill="grey">   PredicateT, std::bidirectional</text>
<text xml:space="preserve" text-anchor="start" x="1428.12" y="-129.5" font-family="Helvetica,sans-Serif" font-size="10.00" fill="grey">  _iterator_tag &gt;</text>
</g>
<!-- Node14&#45;&gt;Node13 -->
<g id="edge19_Node000014_Node000013" class="edge">
<title>Node14&#45;&gt;Node13</title>
<g id="a_edge19_Node000014_Node000013"><a xlink:title=" ">
<path fill="none" stroke="#63b8ff" d="M1418.37,-20.59C1473.26,-19.39 1544.89,-19.48 1597.27,-20.86"/>
<polygon fill="#63b8ff" stroke="#63b8ff" points="1418.35,-17.09 1408.43,-20.83 1418.51,-24.09 1418.35,-17.09"/>
</a>
</g>
</g>
<!-- Node14&#45;&gt;Node13 -->
<g id="edge20_Node000014_Node000013" class="edge">
<title>Node14&#45;&gt;Node13</title>
<g id="a_edge20_Node000014_Node000013"><a xlink:title=" ">
<path fill="none" stroke="#63b8ff" d="M1418.37,-32.41C1473.26,-33.61 1544.89,-33.52 1597.27,-32.14"/>
<polygon fill="#63b8ff" stroke="#63b8ff" points="1418.51,-28.91 1408.43,-32.17 1418.35,-35.91 1418.51,-28.91"/>
</a>
</g>
</g>
</g>
</svg>
