<?xml version="1.0" encoding="UTF-8" standalone="no"?>
<!DOCTYPE svg PUBLIC "-//W3C//DTD SVG 1.1//EN"
 "http://www.w3.org/Graphics/SVG/1.1/DTD/svg11.dtd">
<!-- Generated by graphviz version 13.1.2 (20250808.2320)
 -->
<!-- Title: llvm::TargetLoweringObjectFileELF Pages: 1 -->
<svg width="888pt" height="545pt"
 viewBox="0.00 0.00 888.00 545.00" xmlns="http://www.w3.org/2000/svg" xmlns:xlink="http://www.w3.org/1999/xlink">
<g id="graph0" class="graph" transform="scale(1 1) rotate(0) translate(4 541.25)">
<title>llvm::TargetLoweringObjectFileELF</title>
<!-- Node1 -->
<g id="Node000001" class="node">
<title>Node1</title>
<g id="a_Node000001"><a xlink:title=" ">
<polygon fill="#999999" stroke="#666666" points="473.25,-283.88 338.75,-283.88 338.75,-253.38 473.25,-253.38 473.25,-283.88"/>
<text xml:space="preserve" text-anchor="start" x="346.75" y="-270.38" font-family="Helvetica,sans-Serif" font-size="10.00">llvm::TargetLoweringObject</text>
<text xml:space="preserve" text-anchor="middle" x="406" y="-259.12" font-family="Helvetica,sans-Serif" font-size="10.00">FileELF</text>
</a>
</g>
</g>
<!-- Node4 -->
<g id="Node000004" class="node">
<title>Node4</title>
<g id="a_Node000004"><a xlink:href="classllvm_1_1AArch64__ELFTargetObjectFile.html" target="_top" xlink:title="This implementation is used for AArch64 ELF targets (Linux in particular).">
<polygon fill="white" stroke="#666666" points="681.25,-537.25 509.25,-537.25 509.25,-518 681.25,-518 681.25,-537.25"/>
<text xml:space="preserve" text-anchor="middle" x="595.25" y="-523.75" font-family="Helvetica,sans-Serif" font-size="10.00">llvm::AArch64_ELFTargetObjectFile</text>
</a>
</g>
</g>
<!-- Node1&#45;&gt;Node4 -->
<g id="edge3_Node000001_Node000004" class="edge">
<title>Node1&#45;&gt;Node4</title>
<g id="a_edge3_Node000001_Node000004"><a xlink:title=" ">
<path fill="none" stroke="#63b8ff" d="M410.27,-295.39C417.91,-345.62 441.68,-453.96 509.25,-509.62 513.09,-512.79 517.36,-515.44 521.87,-517.65"/>
<polygon fill="#63b8ff" stroke="#63b8ff" points="413.77,-295.13 408.91,-285.71 406.84,-296.1 413.77,-295.13"/>
</a>
</g>
</g>
<!-- Node5 -->
<g id="Node000005" class="node">
<title>Node5</title>
<g id="a_Node000005"><a xlink:href="classllvm_1_1AMDGPUTargetObjectFile.html" target="_top" xlink:title=" ">
<polygon fill="white" stroke="#666666" points="673,-500.25 517.5,-500.25 517.5,-481 673,-481 673,-500.25"/>
<text xml:space="preserve" text-anchor="middle" x="595.25" y="-486.75" font-family="Helvetica,sans-Serif" font-size="10.00">llvm::AMDGPUTargetObjectFile</text>
</a>
</g>
</g>
<!-- Node1&#45;&gt;Node5 -->
<g id="edge4_Node000001_Node000005" class="edge">
<title>Node1&#45;&gt;Node5</title>
<g id="a_edge4_Node000001_Node000005"><a xlink:title=" ">
<path fill="none" stroke="#63b8ff" d="M412.52,-295.32C423.12,-339.5 450.65,-427.39 509.25,-472.62 513.31,-475.76 517.79,-478.38 522.51,-480.56"/>
<polygon fill="#63b8ff" stroke="#63b8ff" points="415.99,-294.79 410.36,-285.82 409.17,-296.35 415.99,-294.79"/>
</a>
</g>
</g>
<!-- Node6 -->
<g id="Node000006" class="node">
<title>Node6</title>
<g id="a_Node000006"><a xlink:href="classllvm_1_1ARMElfTargetObjectFile.html" target="_top" xlink:title=" ">
<polygon fill="white" stroke="#666666" points="668.12,-463.25 522.38,-463.25 522.38,-444 668.12,-444 668.12,-463.25"/>
<text xml:space="preserve" text-anchor="middle" x="595.25" y="-449.75" font-family="Helvetica,sans-Serif" font-size="10.00">llvm::ARMElfTargetObjectFile</text>
</a>
</g>
</g>
<!-- Node1&#45;&gt;Node6 -->
<g id="edge5_Node000001_Node000006" class="edge">
<title>Node1&#45;&gt;Node6</title>
<g id="a_edge5_Node000001_Node000006"><a xlink:title=" ">
<path fill="none" stroke="#63b8ff" d="M415.49,-294.77C429.06,-332.18 459.3,-400.34 509.25,-435.62 513.69,-438.76 518.55,-441.37 523.65,-443.53"/>
<polygon fill="#63b8ff" stroke="#63b8ff" points="418.91,-293.94 412.31,-285.65 412.3,-296.25 418.91,-293.94"/>
</a>
</g>
</g>
<!-- Node7 -->
<g id="Node000007" class="node">
<title>Node7</title>
<g id="a_Node000007"><a xlink:href="classllvm_1_1AVRTargetObjectFile.html" target="_top" xlink:title="Lowering for an AVR ELF32 object file.">
<polygon fill="white" stroke="#666666" points="660.62,-426.25 529.88,-426.25 529.88,-407 660.62,-407 660.62,-426.25"/>
<text xml:space="preserve" text-anchor="middle" x="595.25" y="-412.75" font-family="Helvetica,sans-Serif" font-size="10.00">llvm::AVRTargetObjectFile</text>
</a>
</g>
</g>
<!-- Node1&#45;&gt;Node7 -->
<g id="edge6_Node000001_Node000007" class="edge">
<title>Node1&#45;&gt;Node7</title>
<g id="a_edge6_Node000001_Node000007"><a xlink:title=" ">
<path fill="none" stroke="#63b8ff" d="M420.06,-294.47C436.6,-324.42 467.99,-372.96 509.25,-398.62 515.53,-402.53 522.51,-405.6 529.71,-408.01"/>
<polygon fill="#63b8ff" stroke="#63b8ff" points="423.16,-292.85 415.36,-285.68 416.99,-296.15 423.16,-292.85"/>
</a>
</g>
</g>
<!-- Node8 -->
<g id="Node000008" class="node">
<title>Node8</title>
<g id="a_Node000008"><a xlink:href="classllvm_1_1CSKYELFTargetObjectFile.html" target="_top" xlink:title=" ">
<polygon fill="white" stroke="#666666" points="673.75,-389.25 516.75,-389.25 516.75,-370 673.75,-370 673.75,-389.25"/>
<text xml:space="preserve" text-anchor="middle" x="595.25" y="-375.75" font-family="Helvetica,sans-Serif" font-size="10.00">llvm::CSKYELFTargetObjectFile</text>
</a>
</g>
</g>
<!-- Node1&#45;&gt;Node8 -->
<g id="edge7_Node000001_Node000008" class="edge">
<title>Node1&#45;&gt;Node8</title>
<g id="a_edge7_Node000001_Node000008"><a xlink:title=" ">
<path fill="none" stroke="#63b8ff" d="M426.78,-292.76C445.69,-314.2 476.17,-344.68 509.25,-361.62 515.43,-364.79 522.13,-367.4 528.96,-369.55"/>
<polygon fill="#63b8ff" stroke="#63b8ff" points="429.57,-290.64 420.39,-285.34 424.26,-295.21 429.57,-290.64"/>
</a>
</g>
</g>
<!-- Node9 -->
<g id="Node000009" class="node">
<title>Node9</title>
<g id="a_Node000009"><a xlink:href="classllvm_1_1HexagonTargetObjectFile.html" target="_top" xlink:title=" ">
<polygon fill="white" stroke="#666666" points="670.38,-352.25 520.12,-352.25 520.12,-333 670.38,-333 670.38,-352.25"/>
<text xml:space="preserve" text-anchor="middle" x="595.25" y="-338.75" font-family="Helvetica,sans-Serif" font-size="10.00">llvm::HexagonTargetObjectFile</text>
</a>
</g>
</g>
<!-- Node1&#45;&gt;Node9 -->
<g id="edge8_Node000001_Node000009" class="edge">
<title>Node1&#45;&gt;Node9</title>
<g id="a_edge8_Node000001_Node000009"><a xlink:title=" ">
<path fill="none" stroke="#63b8ff" d="M440.42,-290.18C459.84,-301.87 485.17,-315.7 509.25,-324.62 517.6,-327.72 526.61,-330.34 535.54,-332.55"/>
<polygon fill="#63b8ff" stroke="#63b8ff" points="442.48,-287.34 432.13,-285.1 438.82,-293.31 442.48,-287.34"/>
</a>
</g>
</g>
<!-- Node10 -->
<g id="Node000010" class="node">
<title>Node10</title>
<g id="a_Node000010"><a xlink:href="classllvm_1_1LanaiTargetObjectFile.html" target="_top" xlink:title=" ">
<polygon fill="white" stroke="#666666" points="662.5,-315.25 528,-315.25 528,-296 662.5,-296 662.5,-315.25"/>
<text xml:space="preserve" text-anchor="middle" x="595.25" y="-301.75" font-family="Helvetica,sans-Serif" font-size="10.00">llvm::LanaiTargetObjectFile</text>
</a>
</g>
</g>
<!-- Node1&#45;&gt;Node10 -->
<g id="edge9_Node000001_Node000010" class="edge">
<title>Node1&#45;&gt;Node10</title>
<g id="a_edge9_Node000001_Node000010"><a xlink:title=" ">
<path fill="none" stroke="#63b8ff" d="M484.71,-283.98C504.46,-287.88 525.19,-291.98 543.23,-295.54"/>
<polygon fill="#63b8ff" stroke="#63b8ff" points="485.52,-280.57 475.03,-282.07 484.16,-287.44 485.52,-280.57"/>
</a>
</g>
</g>
<!-- Node11 -->
<g id="Node000011" class="node">
<title>Node11</title>
<g id="a_Node000011"><a xlink:href="classllvm_1_1M68kELFTargetObjectFile.html" target="_top" xlink:title=" ">
<polygon fill="white" stroke="#666666" points="671.88,-278.25 518.62,-278.25 518.62,-259 671.88,-259 671.88,-278.25"/>
<text xml:space="preserve" text-anchor="middle" x="595.25" y="-264.75" font-family="Helvetica,sans-Serif" font-size="10.00">llvm::M68kELFTargetObjectFile</text>
</a>
</g>
</g>
<!-- Node1&#45;&gt;Node11 -->
<g id="edge10_Node000001_Node000011" class="edge">
<title>Node1&#45;&gt;Node11</title>
<g id="a_edge10_Node000001_Node000011"><a xlink:title=" ">
<path fill="none" stroke="#63b8ff" d="M484.93,-268.62C495.98,-268.62 507.33,-268.62 518.35,-268.62"/>
<polygon fill="#63b8ff" stroke="#63b8ff" points="485.06,-265.13 475.06,-268.63 485.06,-272.13 485.06,-265.13"/>
</a>
</g>
</g>
<!-- Node12 -->
<g id="Node000012" class="node">
<title>Node12</title>
<g id="a_Node000012"><a xlink:href="classllvm_1_1MipsTargetObjectFile.html" target="_top" xlink:title=" ">
<polygon fill="white" stroke="#666666" points="661.38,-241.25 529.12,-241.25 529.12,-222 661.38,-222 661.38,-241.25"/>
<text xml:space="preserve" text-anchor="middle" x="595.25" y="-227.75" font-family="Helvetica,sans-Serif" font-size="10.00">llvm::MipsTargetObjectFile</text>
</a>
</g>
</g>
<!-- Node1&#45;&gt;Node12 -->
<g id="edge11_Node000001_Node000012" class="edge">
<title>Node1&#45;&gt;Node12</title>
<g id="a_edge11_Node000001_Node000012"><a xlink:title=" ">
<path fill="none" stroke="#63b8ff" d="M484.71,-253.27C504.46,-249.37 525.19,-245.27 543.23,-241.71"/>
<polygon fill="#63b8ff" stroke="#63b8ff" points="484.16,-249.81 475.03,-255.18 485.52,-256.68 484.16,-249.81"/>
</a>
</g>
</g>
<!-- Node13 -->
<g id="Node000013" class="node">
<title>Node13</title>
<g id="a_Node000013"><a xlink:href="classllvm_1_1PPC64LinuxTargetObjectFile.html" target="_top" xlink:title="PPC64LinuxTargetObjectFile &#45; This implementation is used for 64&#45;bit PowerPC Linux.">
<polygon fill="white" stroke="#666666" points="678.25,-204.25 512.25,-204.25 512.25,-185 678.25,-185 678.25,-204.25"/>
<text xml:space="preserve" text-anchor="middle" x="595.25" y="-190.75" font-family="Helvetica,sans-Serif" font-size="10.00">llvm::PPC64LinuxTargetObjectFile</text>
</a>
</g>
</g>
<!-- Node1&#45;&gt;Node13 -->
<g id="edge12_Node000001_Node000013" class="edge">
<title>Node1&#45;&gt;Node13</title>
<g id="a_edge12_Node000001_Node000013"><a xlink:title=" ">
<path fill="none" stroke="#63b8ff" d="M440.42,-247.07C459.84,-235.38 485.17,-221.55 509.25,-212.62 517.6,-209.53 526.61,-206.91 535.54,-204.7"/>
<polygon fill="#63b8ff" stroke="#63b8ff" points="438.82,-243.94 432.13,-252.15 442.48,-249.91 438.82,-243.94"/>
</a>
</g>
</g>
<!-- Node14 -->
<g id="Node000014" class="node">
<title>Node14</title>
<g id="a_Node000014"><a xlink:href="classllvm_1_1RISCVELFTargetObjectFile.html" target="_top" xlink:title="This implementation is used for RISC&#45;V ELF targets.">
<polygon fill="white" stroke="#666666" points="675.62,-167.25 514.88,-167.25 514.88,-148 675.62,-148 675.62,-167.25"/>
<text xml:space="preserve" text-anchor="middle" x="595.25" y="-153.75" font-family="Helvetica,sans-Serif" font-size="10.00">llvm::RISCVELFTargetObjectFile</text>
</a>
</g>
</g>
<!-- Node1&#45;&gt;Node14 -->
<g id="edge13_Node000001_Node000014" class="edge">
<title>Node1&#45;&gt;Node14</title>
<g id="a_edge13_Node000001_Node000014"><a xlink:title=" ">
<path fill="none" stroke="#63b8ff" d="M426.78,-244.49C445.69,-223.05 476.17,-192.57 509.25,-175.62 515.43,-172.46 522.13,-169.85 528.96,-167.7"/>
<polygon fill="#63b8ff" stroke="#63b8ff" points="424.26,-242.04 420.39,-251.91 429.57,-246.61 424.26,-242.04"/>
</a>
</g>
</g>
<!-- Node15 -->
<g id="Node000015" class="node">
<title>Node15</title>
<g id="a_Node000015"><a xlink:href="classllvm_1_1SparcELFTargetObjectFile.html" target="_top" xlink:title=" ">
<polygon fill="white" stroke="#666666" points="672.62,-130.25 517.88,-130.25 517.88,-111 672.62,-111 672.62,-130.25"/>
<text xml:space="preserve" text-anchor="middle" x="595.25" y="-116.75" font-family="Helvetica,sans-Serif" font-size="10.00">llvm::SparcELFTargetObjectFile</text>
</a>
</g>
</g>
<!-- Node1&#45;&gt;Node15 -->
<g id="edge14_Node000001_Node000015" class="edge">
<title>Node1&#45;&gt;Node15</title>
<g id="a_edge14_Node000001_Node000015"><a xlink:title=" ">
<path fill="none" stroke="#63b8ff" d="M420.06,-242.78C436.6,-212.83 467.99,-164.29 509.25,-138.62 514.37,-135.44 519.97,-132.81 525.77,-130.64"/>
<polygon fill="#63b8ff" stroke="#63b8ff" points="416.99,-241.1 415.36,-251.57 423.16,-244.4 416.99,-241.1"/>
</a>
</g>
</g>
<!-- Node16 -->
<g id="Node000016" class="node">
<title>Node16</title>
<g id="a_Node000016"><a xlink:href="classllvm_1_1SystemZELFTargetObjectFile.html" target="_top" xlink:title="This implementation is used for SystemZ ELF targets.">
<polygon fill="white" stroke="#666666" points="679.75,-93.25 510.75,-93.25 510.75,-74 679.75,-74 679.75,-93.25"/>
<text xml:space="preserve" text-anchor="middle" x="595.25" y="-79.75" font-family="Helvetica,sans-Serif" font-size="10.00">llvm::SystemZELFTargetObjectFile</text>
</a>
</g>
</g>
<!-- Node1&#45;&gt;Node16 -->
<g id="edge15_Node000001_Node000016" class="edge">
<title>Node1&#45;&gt;Node16</title>
<g id="a_edge15_Node000001_Node000016"><a xlink:title=" ">
<path fill="none" stroke="#63b8ff" d="M415.49,-242.48C429.06,-205.07 459.3,-136.91 509.25,-101.62 513.69,-98.49 518.55,-95.88 523.65,-93.72"/>
<polygon fill="#63b8ff" stroke="#63b8ff" points="412.3,-241 412.31,-251.6 418.91,-243.31 412.3,-241"/>
</a>
</g>
</g>
<!-- Node17 -->
<g id="Node000017" class="node">
<title>Node17</title>
<g id="a_Node000017"><a xlink:href="classllvm_1_1X86ELFTargetObjectFile.html" target="_top" xlink:title="This implementation is used for X86 ELF targets that don&#39;t have a further specialization (and as a ba...">
<polygon fill="white" stroke="#666666" points="668.5,-56.25 522,-56.25 522,-37 668.5,-37 668.5,-56.25"/>
<text xml:space="preserve" text-anchor="middle" x="595.25" y="-42.75" font-family="Helvetica,sans-Serif" font-size="10.00">llvm::X86ELFTargetObjectFile</text>
</a>
</g>
</g>
<!-- Node1&#45;&gt;Node17 -->
<g id="edge16_Node000001_Node000017" class="edge">
<title>Node1&#45;&gt;Node17</title>
<g id="a_edge16_Node000001_Node000017"><a xlink:title=" ">
<path fill="none" stroke="#63b8ff" d="M412.52,-241.93C423.12,-197.75 450.65,-109.86 509.25,-64.62 513.31,-61.49 517.79,-58.87 522.51,-56.69"/>
<polygon fill="#63b8ff" stroke="#63b8ff" points="409.17,-240.9 410.36,-251.43 415.99,-242.46 409.17,-240.9"/>
</a>
</g>
</g>
<!-- Node19 -->
<g id="Node000019" class="node">
<title>Node19</title>
<g id="a_Node000019"><a xlink:href="classllvm_1_1XCoreTargetObjectFile.html" target="_top" xlink:title=" ">
<polygon fill="white" stroke="#666666" points="664.75,-19.25 525.75,-19.25 525.75,0 664.75,0 664.75,-19.25"/>
<text xml:space="preserve" text-anchor="middle" x="595.25" y="-5.75" font-family="Helvetica,sans-Serif" font-size="10.00">llvm::XCoreTargetObjectFile</text>
</a>
</g>
</g>
<!-- Node1&#45;&gt;Node19 -->
<g id="edge18_Node000001_Node000019" class="edge">
<title>Node1&#45;&gt;Node19</title>
<g id="a_edge18_Node000001_Node000019"><a xlink:title=" ">
<path fill="none" stroke="#63b8ff" d="M410.27,-241.86C417.91,-191.63 441.68,-83.29 509.25,-27.62 514.14,-23.6 519.71,-20.41 525.61,-17.89"/>
<polygon fill="#63b8ff" stroke="#63b8ff" points="406.84,-241.15 408.91,-251.54 413.77,-242.12 406.84,-241.15"/>
</a>
</g>
</g>
<!-- Node2 -->
<g id="Node000002" class="node">
<title>Node2</title>
<g id="a_Node000002"><a xlink:href="classllvm_1_1TargetLoweringObjectFile.html" target="_top" xlink:title=" ">
<polygon fill="white" stroke="#666666" points="302.75,-278.25 152.5,-278.25 152.5,-259 302.75,-259 302.75,-278.25"/>
<text xml:space="preserve" text-anchor="middle" x="227.62" y="-264.75" font-family="Helvetica,sans-Serif" font-size="10.00">llvm::TargetLoweringObjectFile</text>
</a>
</g>
</g>
<!-- Node2&#45;&gt;Node1 -->
<g id="edge1_Node000001_Node000002" class="edge">
<title>Node2&#45;&gt;Node1</title>
<g id="a_edge1_Node000001_Node000002"><a xlink:title=" ">
<path fill="none" stroke="#63b8ff" d="M314.44,-268.62C322.45,-268.62 330.48,-268.62 338.28,-268.62"/>
<polygon fill="#63b8ff" stroke="#63b8ff" points="314.68,-265.13 304.68,-268.63 314.68,-272.13 314.68,-265.13"/>
</a>
</g>
</g>
<!-- Node3 -->
<g id="Node000003" class="node">
<title>Node3</title>
<g id="a_Node000003"><a xlink:href="classllvm_1_1MCObjectFileInfo.html" target="_top" xlink:title=" ">
<polygon fill="white" stroke="#666666" points="116.5,-278.25 0,-278.25 0,-259 116.5,-259 116.5,-278.25"/>
<text xml:space="preserve" text-anchor="middle" x="58.25" y="-264.75" font-family="Helvetica,sans-Serif" font-size="10.00">llvm::MCObjectFileInfo</text>
</a>
</g>
</g>
<!-- Node3&#45;&gt;Node2 -->
<g id="edge2_Node000002_Node000003" class="edge">
<title>Node3&#45;&gt;Node2</title>
<g id="a_edge2_Node000002_Node000003"><a xlink:title=" ">
<path fill="none" stroke="#63b8ff" d="M128.22,-268.62C136.09,-268.62 144.13,-268.62 152.07,-268.62"/>
<polygon fill="#63b8ff" stroke="#63b8ff" points="128.36,-265.13 118.36,-268.63 128.36,-272.13 128.36,-265.13"/>
</a>
</g>
</g>
<!-- Node18 -->
<g id="Node000018" class="node">
<title>Node18</title>
<g id="a_Node000018"><a xlink:href="classllvm_1_1X86__64ELFTargetObjectFile.html" target="_top" xlink:title="This implementation is used for X86_64 ELF targets, and defers to X86ELFTargetObjectFile for commonal...">
<polygon fill="white" stroke="#666666" points="879.5,-56.25 717.25,-56.25 717.25,-37 879.5,-37 879.5,-56.25"/>
<text xml:space="preserve" text-anchor="middle" x="798.38" y="-42.75" font-family="Helvetica,sans-Serif" font-size="10.00">llvm::X86_64ELFTargetObjectFile</text>
</a>
</g>
</g>
<!-- Node17&#45;&gt;Node18 -->
<g id="edge17_Node000017_Node000018" class="edge">
<title>Node17&#45;&gt;Node18</title>
<g id="a_edge17_Node000017_Node000018"><a xlink:title=" ">
<path fill="none" stroke="#63b8ff" d="M680.37,-46.62C692.51,-46.62 704.98,-46.62 717.04,-46.62"/>
<polygon fill="#63b8ff" stroke="#63b8ff" points="680.37,-43.13 670.37,-46.63 680.37,-50.13 680.37,-43.13"/>
</a>
</g>
</g>
</g>
</svg>
