<?xml version="1.0" encoding="UTF-8" standalone="no"?>
<!DOCTYPE svg PUBLIC "-//W3C//DTD SVG 1.1//EN"
 "http://www.w3.org/Graphics/SVG/1.1/DTD/svg11.dtd">
<!-- Generated by graphviz version 13.1.2 (20250808.2320)
 -->
<!-- Title: llvm::UniqueVector&lt; T &gt; Pages: 1 -->
<svg width="429pt" height="189pt"
 viewBox="0.00 0.00 429.00 189.00" xmlns="http://www.w3.org/2000/svg" xmlns:xlink="http://www.w3.org/1999/xlink">
<g id="graph0" class="graph" transform="scale(1 1) rotate(0) translate(4 184.5)">
<title>llvm::UniqueVector&lt; T &gt;</title>
<!-- Node1 -->
<g id="Node000001" class="node">
<title>Node1</title>
<g id="a_Node000001"><a xlink:title="UniqueVector &#45; This class produces a sequential ID number (base 1) for each unique entry that is adde...">
<polygon fill="#999999" stroke="#666666" points="123.25,-101.88 0,-101.88 0,-82.62 123.25,-82.62 123.25,-101.88"/>
<text xml:space="preserve" text-anchor="middle" x="61.62" y="-88.38" font-family="Helvetica,sans-Serif" font-size="10.00">llvm::UniqueVector&lt; T &gt;</text>
</a>
</g>
</g>
<!-- Node2 -->
<g id="Node000002" class="node">
<title>Node2</title>
<g id="a_Node000002"><a xlink:href="classllvm_1_1UniqueVector.html" target="_top" xlink:title=" ">
<polygon fill="white" stroke="#666666" points="395,-180.5 295.75,-180.5 295.75,-150 395,-150 395,-180.5"/>
<text xml:space="preserve" text-anchor="start" x="303.75" y="-167" font-family="Helvetica,sans-Serif" font-size="10.00">llvm::UniqueVector</text>
<text xml:space="preserve" text-anchor="middle" x="345.38" y="-155.75" font-family="Helvetica,sans-Serif" font-size="10.00">&lt; std::string &gt;</text>
</a>
</g>
</g>
<!-- Node1&#45;&gt;Node2 -->
<g id="edge1_Node000001_Node000002" class="edge">
<title>Node1&#45;&gt;Node2</title>
<g id="a_edge1_Node000001_Node000002"><a xlink:title=" ">
<path fill="none" stroke="orange" stroke-dasharray="5,2" d="M90.46,-107.56C105.18,-115.08 123.78,-123.7 141.25,-129.25 192.62,-145.57 253.79,-155.14 295.49,-160.26"/>
<polygon fill="orange" stroke="orange" points="92.32,-104.58 81.84,-103.04 89.07,-110.78 92.32,-104.58"/>
</a>
</g>
<text xml:space="preserve" text-anchor="start" x="166" y="-158.67" font-family="Helvetica,sans-Serif" font-size="10.00" fill="grey">&lt; std::string &gt;</text>
</g>
<!-- Node3 -->
<g id="Node000003" class="node">
<title>Node3</title>
<g id="a_Node000003"><a xlink:href="classllvm_1_1UniqueVector.html" target="_top" xlink:title=" ">
<polygon fill="white" stroke="#666666" points="396.5,-131.5 294.25,-131.5 294.25,-101 396.5,-101 396.5,-131.5"/>
<text xml:space="preserve" text-anchor="start" x="302.25" y="-118" font-family="Helvetica,sans-Serif" font-size="10.00">llvm::UniqueVector</text>
<text xml:space="preserve" text-anchor="middle" x="345.38" y="-106.75" font-family="Helvetica,sans-Serif" font-size="10.00">&lt; const Comdat * &gt;</text>
</a>
</g>
</g>
<!-- Node1&#45;&gt;Node3 -->
<g id="edge2_Node000001_Node000003" class="edge">
<title>Node1&#45;&gt;Node3</title>
<g id="a_edge2_Node000001_Node000003"><a xlink:title=" ">
<path fill="none" stroke="orange" stroke-dasharray="5,2" d="M134.77,-98.4C184.64,-102.64 249.72,-108.19 294.04,-111.96"/>
<polygon fill="orange" stroke="orange" points="135.18,-94.92 124.92,-97.56 134.59,-101.89 135.18,-94.92"/>
</a>
</g>
<text xml:space="preserve" text-anchor="start" x="153.62" y="-112.55" font-family="Helvetica,sans-Serif" font-size="10.00" fill="grey">&lt; const Comdat * &gt;</text>
</g>
<!-- Node4 -->
<g id="Node000004" class="node">
<title>Node4</title>
<g id="a_Node000004"><a xlink:href="classllvm_1_1UniqueVector.html" target="_top" xlink:title=" ">
<polygon fill="white" stroke="#666666" points="405.88,-82.5 284.88,-82.5 284.88,-52 405.88,-52 405.88,-82.5"/>
<text xml:space="preserve" text-anchor="start" x="292.88" y="-69" font-family="Helvetica,sans-Serif" font-size="10.00">llvm::UniqueVector</text>
<text xml:space="preserve" text-anchor="middle" x="345.38" y="-57.75" font-family="Helvetica,sans-Serif" font-size="10.00">&lt; llvm::DebugVariable &gt;</text>
</a>
</g>
</g>
<!-- Node1&#45;&gt;Node4 -->
<g id="edge3_Node000001_Node000004" class="edge">
<title>Node1&#45;&gt;Node4</title>
<g id="a_edge3_Node000001_Node000004"><a xlink:title=" ">
<path fill="none" stroke="orange" stroke-dasharray="5,2" d="M123.97,-80.36C129.79,-79.47 135.62,-78.66 141.25,-78 189.3,-72.4 244.1,-69.71 284.66,-68.43"/>
<polygon fill="orange" stroke="orange" points="123.62,-76.87 114.31,-81.93 124.74,-83.78 123.62,-76.87"/>
</a>
</g>
<text xml:space="preserve" text-anchor="start" x="144.25" y="-82.75" font-family="Helvetica,sans-Serif" font-size="10.00" fill="grey">&lt; llvm::DebugVariable &gt;</text>
</g>
<!-- Node5 -->
<g id="Node000005" class="node">
<title>Node5</title>
<g id="a_Node000005"><a xlink:href="classllvm_1_1UniqueVector.html" target="_top" xlink:title=" ">
<polygon fill="white" stroke="#666666" points="420.5,-30.5 270.25,-30.5 270.25,0 420.5,0 420.5,-30.5"/>
<text xml:space="preserve" text-anchor="start" x="278.25" y="-17" font-family="Helvetica,sans-Serif" font-size="10.00">llvm::UniqueVector</text>
<text xml:space="preserve" text-anchor="middle" x="345.38" y="-5.75" font-family="Helvetica,sans-Serif" font-size="10.00">&lt; LiveDebugValues::SpillLoc &gt;</text>
</a>
</g>
</g>
<!-- Node1&#45;&gt;Node5 -->
<g id="edge4_Node000001_Node000005" class="edge">
<title>Node1&#45;&gt;Node5</title>
<g id="a_edge4_Node000001_Node000005"><a xlink:title=" ">
<path fill="none" stroke="orange" stroke-dasharray="5,2" d="M79.85,-74.57C94.69,-60.57 117.43,-41.9 141.25,-32.75 181.89,-17.13 230.37,-12.48 269.77,-11.87"/>
<polygon fill="orange" stroke="orange" points="77.47,-72 72.78,-81.5 82.37,-77 77.47,-72"/>
</a>
</g>
<text xml:space="preserve" text-anchor="start" x="151.38" y="-52.75" font-family="Helvetica,sans-Serif" font-size="10.00" fill="grey">&lt; LiveDebugValues::</text>
<text xml:space="preserve" text-anchor="start" x="151.38" y="-37.5" font-family="Helvetica,sans-Serif" font-size="10.00" fill="grey">  SpillLoc &gt;</text>
</g>
</g>
</svg>
