<?xml version="1.0" encoding="UTF-8" standalone="no"?>
<!DOCTYPE svg PUBLIC "-//W3C//DTD SVG 1.1//EN"
 "http://www.w3.org/Graphics/SVG/1.1/DTD/svg11.dtd">
<!-- Generated by graphviz version 13.1.2 (20250808.2320)
 -->
<!-- Title: llvm::DWARFUnitVector Pages: 1 -->
<svg width="1797pt" height="227pt"
 viewBox="0.00 0.00 1797.00 227.00" xmlns="http://www.w3.org/2000/svg" xmlns:xlink="http://www.w3.org/1999/xlink">
<g id="graph0" class="graph" transform="scale(1 1) rotate(0) translate(4 222.5)">
<title>llvm::DWARFUnitVector</title>
<!-- Node1 -->
<g id="Node000001" class="node">
<title>Node1</title>
<g id="a_Node000001"><a xlink:title="Describe a collection of units.">
<polygon fill="#999999" stroke="#666666" points="1788.75,-111.88 1665.5,-111.88 1665.5,-92.62 1788.75,-92.62 1788.75,-111.88"/>
<text xml:space="preserve" text-anchor="middle" x="1727.12" y="-98.38" font-family="Helvetica,sans-Serif" font-size="10.00">llvm::DWARFUnitVector</text>
</a>
</g>
</g>
<!-- Node2 -->
<g id="Node000002" class="node">
<title>Node2</title>
<g id="a_Node000002"><a xlink:href="classllvm_1_1SmallVector.html" target="_top" xlink:title=" ">
<polygon fill="white" stroke="#666666" points="1628.5,-123.12 1481.25,-123.12 1481.25,-81.38 1628.5,-81.38 1628.5,-123.12"/>
<text xml:space="preserve" text-anchor="start" x="1489.25" y="-109.62" font-family="Helvetica,sans-Serif" font-size="10.00">llvm::SmallVector&lt;</text>
<text xml:space="preserve" text-anchor="start" x="1489.25" y="-98.38" font-family="Helvetica,sans-Serif" font-size="10.00"> std::unique_ptr&lt; DWARFUnit</text>
<text xml:space="preserve" text-anchor="middle" x="1554.88" y="-87.12" font-family="Helvetica,sans-Serif" font-size="10.00"> &gt;, 1 &gt;</text>
</a>
</g>
</g>
<!-- Node2&#45;&gt;Node1 -->
<g id="edge1_Node000001_Node000002" class="edge">
<title>Node2&#45;&gt;Node1</title>
<g id="a_edge1_Node000001_Node000002"><a xlink:title=" ">
<path fill="none" stroke="#63b8ff" d="M1640.08,-102.25C1648.55,-102.25 1657.03,-102.25 1665.19,-102.25"/>
<polygon fill="#63b8ff" stroke="#63b8ff" points="1640.08,-98.75 1630.08,-102.25 1640.08,-105.75 1640.08,-98.75"/>
</a>
</g>
</g>
<!-- Node3 -->
<g id="Node000003" class="node">
<title>Node3</title>
<g id="a_Node000003"><a xlink:href="classllvm_1_1SmallVectorImpl.html" target="_top" xlink:title=" ">
<polygon fill="white" stroke="#666666" points="1339.5,-172.5 1168.25,-172.5 1168.25,-142 1339.5,-142 1339.5,-172.5"/>
<text xml:space="preserve" text-anchor="start" x="1176.25" y="-159" font-family="Helvetica,sans-Serif" font-size="10.00">llvm::SmallVectorImpl</text>
<text xml:space="preserve" text-anchor="middle" x="1253.88" y="-147.75" font-family="Helvetica,sans-Serif" font-size="10.00">&lt; std::unique_ptr&lt; DWARFUnit &gt; &gt;</text>
</a>
</g>
</g>
<!-- Node3&#45;&gt;Node2 -->
<g id="edge2_Node000002_Node000003" class="edge">
<title>Node3&#45;&gt;Node2</title>
<g id="a_edge2_Node000002_Node000003"><a xlink:title=" ">
<path fill="none" stroke="#63b8ff" d="M1350.9,-139.59C1393.09,-131.83 1441.82,-122.86 1480.96,-115.66"/>
<polygon fill="#63b8ff" stroke="#63b8ff" points="1350.45,-136.11 1341.25,-141.36 1351.71,-143 1350.45,-136.11"/>
</a>
</g>
</g>
<!-- Node4 -->
<g id="Node000004" class="node">
<title>Node4</title>
<g id="a_Node000004"><a xlink:href="classllvm_1_1SmallVectorTemplateBase.html" target="_top" xlink:title="SmallVectorTemplateBase&lt;TriviallyCopyable = false&gt; &#45; This is where we put method implementations that...">
<polygon fill="white" stroke="#666666" points="870.25,-218.5 737.25,-218.5 737.25,-188 870.25,-188 870.25,-218.5"/>
<text xml:space="preserve" text-anchor="start" x="745.25" y="-205" font-family="Helvetica,sans-Serif" font-size="10.00">llvm::SmallVectorTemplate</text>
<text xml:space="preserve" text-anchor="middle" x="803.75" y="-193.75" font-family="Helvetica,sans-Serif" font-size="10.00">Base&lt; T, bool &gt;</text>
</a>
</g>
</g>
<!-- Node4&#45;&gt;Node3 -->
<g id="edge3_Node000003_Node000004" class="edge">
<title>Node4&#45;&gt;Node3</title>
<g id="a_edge3_Node000003_Node000004"><a xlink:title=" ">
<path fill="none" stroke="#63b8ff" d="M881.73,-206.31C950.78,-207.68 1054.61,-206.36 1143.5,-191.25 1166.44,-187.35 1191.25,-179.91 1211.44,-172.99"/>
<polygon fill="#63b8ff" stroke="#63b8ff" points="882.12,-202.82 872.04,-206.09 881.96,-209.81 882.12,-202.82"/>
</a>
</g>
</g>
<!-- Node5 -->
<g id="Node000005" class="node">
<title>Node5</title>
<g id="a_Node000005"><a xlink:href="classllvm_1_1SmallVectorTemplateCommon.html" target="_top" xlink:title="This is the part of SmallVectorTemplateBase which does not depend on whether the type T is a POD.">
<polygon fill="white" stroke="#666666" points="549.25,-194.5 416.25,-194.5 416.25,-164 549.25,-164 549.25,-194.5"/>
<text xml:space="preserve" text-anchor="start" x="424.25" y="-181" font-family="Helvetica,sans-Serif" font-size="10.00">llvm::SmallVectorTemplate</text>
<text xml:space="preserve" text-anchor="middle" x="482.75" y="-169.75" font-family="Helvetica,sans-Serif" font-size="10.00">Common&lt; T, typename &gt;</text>
</a>
</g>
</g>
<!-- Node5&#45;&gt;Node4 -->
<g id="edge4_Node000004_Node000005" class="edge">
<title>Node5&#45;&gt;Node4</title>
<g id="a_edge4_Node000004_Node000005"><a xlink:title=" ">
<path fill="none" stroke="#63b8ff" d="M560.67,-185.04C614.49,-189.09 685.63,-194.44 736.85,-198.29"/>
<polygon fill="#63b8ff" stroke="#63b8ff" points="561.2,-181.57 550.97,-184.31 560.68,-188.55 561.2,-181.57"/>
</a>
</g>
</g>
<!-- Node9 -->
<g id="Node000009" class="node">
<title>Node9</title>
<g id="a_Node000009"><a xlink:href="classllvm_1_1SmallVectorTemplateBase.html" target="_top" xlink:title="SmallVectorTemplateBase&lt;TriviallyCopyable = false&gt; &#45; This is where we put method implementations that...">
<polygon fill="white" stroke="#666666" points="719.25,-172.5 586.25,-172.5 586.25,-142 719.25,-142 719.25,-172.5"/>
<text xml:space="preserve" text-anchor="start" x="594.25" y="-159" font-family="Helvetica,sans-Serif" font-size="10.00">llvm::SmallVectorTemplate</text>
<text xml:space="preserve" text-anchor="middle" x="652.75" y="-147.75" font-family="Helvetica,sans-Serif" font-size="10.00">Base&lt; T, bool &gt;</text>
</a>
</g>
</g>
<!-- Node5&#45;&gt;Node9 -->
<g id="edge9_Node000009_Node000005" class="edge">
<title>Node5&#45;&gt;Node9</title>
<g id="a_edge9_Node000009_Node000005"><a xlink:title=" ">
<path fill="none" stroke="#63b8ff" d="M560.99,-169.14C569.36,-168.04 577.81,-166.93 586.02,-165.86"/>
<polygon fill="#63b8ff" stroke="#63b8ff" points="560.63,-165.65 551.17,-170.42 561.54,-172.59 560.63,-165.65"/>
</a>
</g>
</g>
<!-- Node6 -->
<g id="Node000006" class="node">
<title>Node6</title>
<g id="a_Node000006"><a xlink:href="classllvm_1_1SmallVectorBase.html" target="_top" xlink:title=" ">
<polygon fill="white" stroke="#666666" points="379.25,-200.12 260.5,-200.12 260.5,-158.38 379.25,-158.38 379.25,-200.12"/>
<text xml:space="preserve" text-anchor="start" x="268.5" y="-186.62" font-family="Helvetica,sans-Serif" font-size="10.00">llvm::SmallVectorBase</text>
<text xml:space="preserve" text-anchor="start" x="268.5" y="-175.38" font-family="Helvetica,sans-Serif" font-size="10.00">&lt; SmallVectorSizeType</text>
<text xml:space="preserve" text-anchor="middle" x="319.88" y="-164.12" font-family="Helvetica,sans-Serif" font-size="10.00">&lt; T &gt; &gt;</text>
</a>
</g>
</g>
<!-- Node6&#45;&gt;Node5 -->
<g id="edge5_Node000005_Node000006" class="edge">
<title>Node6&#45;&gt;Node5</title>
<g id="a_edge5_Node000005_Node000006"><a xlink:title=" ">
<path fill="none" stroke="#63b8ff" d="M390.69,-179.25C399.07,-179.25 407.59,-179.25 415.91,-179.25"/>
<polygon fill="#63b8ff" stroke="#63b8ff" points="390.92,-175.75 380.92,-179.25 390.92,-182.75 390.92,-175.75"/>
</a>
</g>
</g>
<!-- Node7 -->
<g id="Node000007" class="node">
<title>Node7</title>
<g id="a_Node000007"><a xlink:href="classllvm_1_1SmallVectorBase.html" target="_top" xlink:title="This is all the stuff common to all SmallVectors.">
<polygon fill="white" stroke="#666666" points="115.75,-194.5 0,-194.5 0,-164 115.75,-164 115.75,-194.5"/>
<text xml:space="preserve" text-anchor="start" x="8" y="-181" font-family="Helvetica,sans-Serif" font-size="10.00">llvm::SmallVectorBase</text>
<text xml:space="preserve" text-anchor="middle" x="57.88" y="-169.75" font-family="Helvetica,sans-Serif" font-size="10.00">&lt; Size_T &gt;</text>
</a>
</g>
</g>
<!-- Node7&#45;&gt;Node6 -->
<g id="edge6_Node000006_Node000007" class="edge">
<title>Node7&#45;&gt;Node6</title>
<g id="a_edge6_Node000006_Node000007"><a xlink:title=" ">
<path fill="none" stroke="orange" stroke-dasharray="5,2" d="M127.28,-179.25C168.6,-179.25 220.71,-179.25 260.15,-179.25"/>
<polygon fill="orange" stroke="orange" points="127.45,-175.75 117.45,-179.25 127.45,-182.75 127.45,-175.75"/>
</a>
</g>
<text xml:space="preserve" text-anchor="start" x="136.75" y="-199.25" font-family="Helvetica,sans-Serif" font-size="10.00" fill="grey">&lt; SmallVectorSizeType</text>
<text xml:space="preserve" text-anchor="start" x="136.75" y="-184" font-family="Helvetica,sans-Serif" font-size="10.00" fill="grey">  &lt; T &gt; &gt;</text>
</g>
<!-- Node8 -->
<g id="Node000008" class="node">
<title>Node8</title>
<g id="a_Node000008"><a xlink:href="classllvm_1_1SmallVectorImpl.html" target="_top" xlink:title="This class consists of common code factored out of the SmallVector class to reduce code duplication b...">
<polygon fill="white" stroke="#666666" points="1024.25,-166.88 888.25,-166.88 888.25,-147.62 1024.25,-147.62 1024.25,-166.88"/>
<text xml:space="preserve" text-anchor="middle" x="956.25" y="-153.38" font-family="Helvetica,sans-Serif" font-size="10.00">llvm::SmallVectorImpl&lt; T &gt;</text>
</a>
</g>
</g>
<!-- Node8&#45;&gt;Node3 -->
<g id="edge7_Node000003_Node000008" class="edge">
<title>Node8&#45;&gt;Node3</title>
<g id="a_edge7_Node000003_Node000008"><a xlink:title=" ">
<path fill="none" stroke="orange" stroke-dasharray="5,2" d="M1036.19,-157.25C1076.86,-157.25 1126.48,-157.25 1167.97,-157.25"/>
<polygon fill="orange" stroke="orange" points="1036.22,-153.75 1026.22,-157.25 1036.22,-160.75 1036.22,-153.75"/>
</a>
</g>
<text xml:space="preserve" text-anchor="start" x="1052" y="-177.25" font-family="Helvetica,sans-Serif" font-size="10.00" fill="grey">&lt; std::unique_ptr&lt;</text>
<text xml:space="preserve" text-anchor="start" x="1052" y="-162" font-family="Helvetica,sans-Serif" font-size="10.00" fill="grey">   DWARFUnit &gt; &gt;</text>
</g>
<!-- Node9&#45;&gt;Node8 -->
<g id="edge8_Node000008_Node000009" class="edge">
<title>Node9&#45;&gt;Node8</title>
<g id="a_edge8_Node000008_Node000009"><a xlink:title=" ">
<path fill="none" stroke="#63b8ff" d="M730.92,-157.25C779.38,-157.25 841.28,-157.25 887.77,-157.25"/>
<polygon fill="#63b8ff" stroke="#63b8ff" points="731.06,-153.75 721.06,-157.25 731.06,-160.75 731.06,-153.75"/>
</a>
</g>
</g>
<!-- Node13 -->
<g id="Node000013" class="node">
<title>Node13</title>
<g id="a_Node000013"><a xlink:href="classllvm_1_1SmallVectorImpl.html" target="_top" xlink:title="This class consists of common code factored out of the SmallVector class to reduce code duplication b...">
<polygon fill="white" stroke="#666666" points="1024.25,-67.88 888.25,-67.88 888.25,-48.62 1024.25,-48.62 1024.25,-67.88"/>
<text xml:space="preserve" text-anchor="middle" x="956.25" y="-54.38" font-family="Helvetica,sans-Serif" font-size="10.00">llvm::SmallVectorImpl&lt; T &gt;</text>
</a>
</g>
</g>
<!-- Node9&#45;&gt;Node13 -->
<g id="edge14_Node000013_Node000009" class="edge">
<title>Node9&#45;&gt;Node13</title>
<g id="a_edge14_Node000013_Node000009"><a xlink:title=" ">
<path fill="none" stroke="#63b8ff" d="M708.24,-137.76C755.6,-121.03 826.16,-96.63 888.25,-77.25 897.94,-74.22 908.49,-71.14 918.29,-68.36"/>
<polygon fill="#63b8ff" stroke="#63b8ff" points="707.29,-134.38 699.04,-141.01 709.63,-140.98 707.29,-134.38"/>
</a>
</g>
</g>
<!-- Node10 -->
<g id="Node000010" class="node">
<title>Node10</title>
<g id="a_Node000010"><a xlink:href="structllvm_1_1SmallVectorStorage.html" target="_top" xlink:title=" ">
<polygon fill="white" stroke="#666666" points="1346.25,-117.5 1161.5,-117.5 1161.5,-87 1346.25,-87 1346.25,-117.5"/>
<text xml:space="preserve" text-anchor="start" x="1169.5" y="-104" font-family="Helvetica,sans-Serif" font-size="10.00">llvm::SmallVectorStorage</text>
<text xml:space="preserve" text-anchor="middle" x="1253.88" y="-92.75" font-family="Helvetica,sans-Serif" font-size="10.00">&lt; std::unique_ptr&lt; DWARFUnit &gt;, N &gt;</text>
</a>
</g>
</g>
<!-- Node10&#45;&gt;Node2 -->
<g id="edge10_Node000002_Node000010" class="edge">
<title>Node10&#45;&gt;Node2</title>
<g id="a_edge10_Node000002_Node000010"><a xlink:title=" ">
<path fill="none" stroke="#8b1a1a" d="M1357.88,-102.25C1398.34,-102.25 1443.83,-102.25 1480.8,-102.25"/>
<polygon fill="#8b1a1a" stroke="#8b1a1a" points="1358.13,-98.75 1348.13,-102.25 1358.13,-105.75 1358.13,-98.75"/>
</a>
</g>
</g>
<!-- Node11 -->
<g id="Node000011" class="node">
<title>Node11</title>
<g id="a_Node000011"><a xlink:href="structllvm_1_1SmallVectorStorage.html" target="_top" xlink:title="Storage for the SmallVector elements.">
<polygon fill="white" stroke="#666666" points="1019.75,-116.5 892.75,-116.5 892.75,-86 1019.75,-86 1019.75,-116.5"/>
<text xml:space="preserve" text-anchor="start" x="900.75" y="-103" font-family="Helvetica,sans-Serif" font-size="10.00">llvm::SmallVectorStorage</text>
<text xml:space="preserve" text-anchor="middle" x="956.25" y="-91.75" font-family="Helvetica,sans-Serif" font-size="10.00">&lt; T, N &gt;</text>
</a>
</g>
</g>
<!-- Node11&#45;&gt;Node10 -->
<g id="edge11_Node000010_Node000011" class="edge">
<title>Node11&#45;&gt;Node10</title>
<g id="a_edge11_Node000010_Node000011"><a xlink:title=" ">
<path fill="none" stroke="orange" stroke-dasharray="5,2" d="M1031.31,-101.5C1070.65,-101.63 1119.36,-101.8 1161.08,-101.94"/>
<polygon fill="orange" stroke="orange" points="1031.47,-98 1021.46,-101.47 1031.45,-105 1031.47,-98"/>
</a>
</g>
<text xml:space="preserve" text-anchor="start" x="1045.25" y="-121.87" font-family="Helvetica,sans-Serif" font-size="10.00" fill="grey">&lt; std::unique_ptr&lt;</text>
<text xml:space="preserve" text-anchor="start" x="1045.25" y="-106.62" font-family="Helvetica,sans-Serif" font-size="10.00" fill="grey">   DWARFUnit &gt;, N &gt;</text>
</g>
<!-- Node12 -->
<g id="Node000012" class="node">
<title>Node12</title>
<g id="a_Node000012"><a xlink:href="classllvm_1_1SmallVector.html" target="_top" xlink:title="This is a &#39;vector&#39; (really, a variable&#45;sized array), optimized for the case when the array is small.">
<polygon fill="white" stroke="#666666" points="1303.5,-68.5 1204.25,-68.5 1204.25,-38 1303.5,-38 1303.5,-68.5"/>
<text xml:space="preserve" text-anchor="start" x="1212.25" y="-55" font-family="Helvetica,sans-Serif" font-size="10.00">llvm::SmallVector&lt;</text>
<text xml:space="preserve" text-anchor="middle" x="1253.88" y="-43.75" font-family="Helvetica,sans-Serif" font-size="10.00"> T, N &gt;</text>
</a>
</g>
</g>
<!-- Node12&#45;&gt;Node2 -->
<g id="edge12_Node000002_Node000012" class="edge">
<title>Node12&#45;&gt;Node2</title>
<g id="a_edge12_Node000002_Node000012"><a xlink:title=" ">
<path fill="none" stroke="orange" stroke-dasharray="5,2" d="M1315.34,-51.77C1357.32,-51.97 1414.29,-54.73 1463.25,-65.75 1478.64,-69.21 1494.81,-74.98 1509.16,-80.91"/>
<polygon fill="orange" stroke="orange" points="1315.43,-48.27 1305.43,-51.77 1315.43,-55.27 1315.43,-48.27"/>
</a>
</g>
<text xml:space="preserve" text-anchor="start" x="1367.25" y="-85.75" font-family="Helvetica,sans-Serif" font-size="10.00" fill="grey">&lt; std::unique_ptr&lt;</text>
<text xml:space="preserve" text-anchor="start" x="1367.25" y="-70.5" font-family="Helvetica,sans-Serif" font-size="10.00" fill="grey">   DWARFUnit &gt;, 1 &gt;</text>
</g>
<!-- Node13&#45;&gt;Node12 -->
<g id="edge13_Node000012_Node000013" class="edge">
<title>Node13&#45;&gt;Node12</title>
<g id="a_edge13_Node000012_Node000013"><a xlink:title=" ">
<path fill="none" stroke="#63b8ff" d="M1036.2,-56.91C1089.64,-56.01 1158.55,-54.85 1204.14,-54.07"/>
<polygon fill="#63b8ff" stroke="#63b8ff" points="1036.15,-53.41 1026.22,-57.08 1036.27,-60.41 1036.15,-53.41"/>
</a>
</g>
</g>
<!-- Node14 -->
<g id="Node000014" class="node">
<title>Node14</title>
<g id="a_Node000014"><a xlink:href="structllvm_1_1SmallVectorStorage.html" target="_top" xlink:title="Storage for the SmallVector elements.">
<polygon fill="white" stroke="#666666" points="1019.75,-30.5 892.75,-30.5 892.75,0 1019.75,0 1019.75,-30.5"/>
<text xml:space="preserve" text-anchor="start" x="900.75" y="-17" font-family="Helvetica,sans-Serif" font-size="10.00">llvm::SmallVectorStorage</text>
<text xml:space="preserve" text-anchor="middle" x="956.25" y="-5.75" font-family="Helvetica,sans-Serif" font-size="10.00">&lt; T, N &gt;</text>
</a>
</g>
</g>
<!-- Node14&#45;&gt;Node12 -->
<g id="edge15_Node000012_Node000014" class="edge">
<title>Node14&#45;&gt;Node12</title>
<g id="a_edge15_Node000012_Node000014"><a xlink:title=" ">
<path fill="none" stroke="#8b1a1a" d="M1031.18,-24.75C1085.18,-31.69 1156.9,-40.91 1203.93,-46.96"/>
<polygon fill="#8b1a1a" stroke="#8b1a1a" points="1031.81,-21.31 1021.45,-23.5 1030.92,-28.25 1031.81,-21.31"/>
</a>
</g>
</g>
</g>
</svg>
