<?xml version="1.0" encoding="UTF-8" standalone="no"?>
<!DOCTYPE svg PUBLIC "-//W3C//DTD SVG 1.1//EN"
 "http://www.w3.org/Graphics/SVG/1.1/DTD/svg11.dtd">
<!-- Generated by graphviz version 13.1.2 (20250808.2320)
 -->
<!-- Title: llvm::sandboxir::ConstantTokenNone Pages: 1 -->
<svg width="136pt" height="204pt"
 viewBox="0.00 0.00 136.00 204.00" xmlns="http://www.w3.org/2000/svg" xmlns:xlink="http://www.w3.org/1999/xlink">
<g id="graph0" class="graph" transform="scale(1 1) rotate(0) translate(4 200.25)">
<title>llvm::sandboxir::ConstantTokenNone</title>
<!-- Node1 -->
<g id="Node000001" class="node">
<title>Node1</title>
<g id="a_Node000001"><a xlink:title=" ">
<polygon fill="#999999" stroke="#666666" points="127.75,-30.5 0,-30.5 0,0 127.75,0 127.75,-30.5"/>
<text xml:space="preserve" text-anchor="start" x="8" y="-17" font-family="Helvetica,sans-Serif" font-size="10.00">llvm::sandboxir::Constant</text>
<text xml:space="preserve" text-anchor="middle" x="63.88" y="-5.75" font-family="Helvetica,sans-Serif" font-size="10.00">TokenNone</text>
</a>
</g>
</g>
<!-- Node2 -->
<g id="Node000002" class="node">
<title>Node2</title>
<g id="a_Node000002"><a xlink:href="classllvm_1_1sandboxir_1_1Constant.html" target="_top" xlink:title=" ">
<polygon fill="white" stroke="#666666" points="127.75,-85.75 0,-85.75 0,-66.5 127.75,-66.5 127.75,-85.75"/>
<text xml:space="preserve" text-anchor="middle" x="63.88" y="-72.25" font-family="Helvetica,sans-Serif" font-size="10.00">llvm::sandboxir::Constant</text>
</a>
</g>
</g>
<!-- Node2&#45;&gt;Node1 -->
<g id="edge1_Node000001_Node000002" class="edge">
<title>Node2&#45;&gt;Node1</title>
<g id="a_edge1_Node000001_Node000002"><a xlink:title=" ">
<path fill="none" stroke="#63b8ff" d="M63.88,-54.92C63.88,-46.99 63.88,-38.06 63.88,-30.78"/>
<polygon fill="#63b8ff" stroke="#63b8ff" points="60.38,-54.67 63.88,-64.67 67.38,-54.67 60.38,-54.67"/>
</a>
</g>
</g>
<!-- Node3 -->
<g id="Node000003" class="node">
<title>Node3</title>
<g id="a_Node000003"><a xlink:href="classllvm_1_1sandboxir_1_1User.html" target="_top" xlink:title="A sandboxir::User has operands.">
<polygon fill="white" stroke="#666666" points="118.38,-141 9.38,-141 9.38,-121.75 118.38,-121.75 118.38,-141"/>
<text xml:space="preserve" text-anchor="middle" x="63.88" y="-127.5" font-family="Helvetica,sans-Serif" font-size="10.00">llvm::sandboxir::User</text>
</a>
</g>
</g>
<!-- Node3&#45;&gt;Node2 -->
<g id="edge2_Node000002_Node000003" class="edge">
<title>Node3&#45;&gt;Node2</title>
<g id="a_edge2_Node000002_Node000003"><a xlink:title=" ">
<path fill="none" stroke="#63b8ff" d="M63.88,-110.13C63.88,-101.84 63.88,-92.67 63.88,-86.11"/>
<polygon fill="#63b8ff" stroke="#63b8ff" points="60.38,-110.07 63.88,-120.07 67.38,-110.07 60.38,-110.07"/>
</a>
</g>
</g>
<!-- Node4 -->
<g id="Node000004" class="node">
<title>Node4</title>
<g id="a_Node000004"><a xlink:href="classllvm_1_1sandboxir_1_1Value.html" target="_top" xlink:title="A SandboxIR Value has users. This is the base class.">
<polygon fill="white" stroke="#666666" points="119.88,-196.25 7.88,-196.25 7.88,-177 119.88,-177 119.88,-196.25"/>
<text xml:space="preserve" text-anchor="middle" x="63.88" y="-182.75" font-family="Helvetica,sans-Serif" font-size="10.00">llvm::sandboxir::Value</text>
</a>
</g>
</g>
<!-- Node4&#45;&gt;Node3 -->
<g id="edge3_Node000003_Node000004" class="edge">
<title>Node4&#45;&gt;Node3</title>
<g id="a_edge3_Node000003_Node000004"><a xlink:title=" ">
<path fill="none" stroke="#63b8ff" d="M63.88,-165.38C63.88,-157.09 63.88,-147.92 63.88,-141.36"/>
<polygon fill="#63b8ff" stroke="#63b8ff" points="60.38,-165.32 63.88,-175.32 67.38,-165.32 60.38,-165.32"/>
</a>
</g>
</g>
</g>
</svg>
