<?xml version="1.0" encoding="UTF-8" standalone="no"?>
<!DOCTYPE svg PUBLIC "-//W3C//DTD SVG 1.1//EN"
 "http://www.w3.org/Graphics/SVG/1.1/DTD/svg11.dtd">
<!-- Generated by graphviz version 13.1.2 (20250808.2320)
 -->
<!-- Title: llvm::objcopy::elf::OwningBinary&lt; T &gt; Pages: 1 -->
<svg width="548pt" height="88pt"
 viewBox="0.00 0.00 548.00 88.00" xmlns="http://www.w3.org/2000/svg" xmlns:xlink="http://www.w3.org/1999/xlink">
<g id="graph0" class="graph" transform="scale(1 1) rotate(0) translate(4 83.5)">
<title>llvm::objcopy::elf::OwningBinary&lt; T &gt;</title>
<!-- Node1 -->
<g id="Node000001" class="node">
<title>Node1</title>
<g id="a_Node000001"><a xlink:title=" ">
<polygon fill="#999999" stroke="#666666" points="106.75,-50.5 0,-50.5 0,-20 106.75,-20 106.75,-50.5"/>
<text xml:space="preserve" text-anchor="start" x="8" y="-37" font-family="Helvetica,sans-Serif" font-size="10.00">llvm::objcopy::elf</text>
<text xml:space="preserve" text-anchor="middle" x="53.38" y="-25.75" font-family="Helvetica,sans-Serif" font-size="10.00">::OwningBinary&lt; T &gt;</text>
</a>
</g>
</g>
<!-- Node2 -->
<g id="Node000002" class="node">
<title>Node2</title>
<g id="a_Node000002"><a xlink:href="classllvm_1_1object_1_1OwningBinary.html" target="_top" xlink:title=" ">
<polygon fill="white" stroke="#666666" points="383.75,-79.5 250.75,-79.5 250.75,-49 383.75,-49 383.75,-79.5"/>
<text xml:space="preserve" text-anchor="start" x="258.75" y="-66" font-family="Helvetica,sans-Serif" font-size="10.00">llvm::object::OwningBinary</text>
<text xml:space="preserve" text-anchor="middle" x="317.25" y="-54.75" font-family="Helvetica,sans-Serif" font-size="10.00">&lt; OffloadBinary &gt;</text>
</a>
</g>
</g>
<!-- Node1&#45;&gt;Node2 -->
<g id="edge1_Node000001_Node000002" class="edge">
<title>Node1&#45;&gt;Node2</title>
<g id="a_edge1_Node000001_Node000002"><a xlink:title=" ">
<path fill="none" stroke="orange" stroke-dasharray="5,2" d="M118.32,-42.33C158.49,-46.78 210.16,-52.5 250.64,-56.98"/>
<polygon fill="orange" stroke="orange" points="118.88,-38.87 108.56,-41.25 118.11,-45.83 118.88,-38.87"/>
</a>
</g>
<text xml:space="preserve" text-anchor="start" x="140.12" y="-59.62" font-family="Helvetica,sans-Serif" font-size="10.00" fill="grey">&lt; OffloadBinary &gt;</text>
</g>
<!-- Node4 -->
<g id="Node000004" class="node">
<title>Node4</title>
<g id="a_Node000004"><a xlink:href="classllvm_1_1object_1_1OwningBinary.html" target="_top" xlink:title=" ">
<polygon fill="white" stroke="#666666" points="383.75,-30.5 250.75,-30.5 250.75,0 383.75,0 383.75,-30.5"/>
<text xml:space="preserve" text-anchor="start" x="258.75" y="-17" font-family="Helvetica,sans-Serif" font-size="10.00">llvm::object::OwningBinary</text>
<text xml:space="preserve" text-anchor="middle" x="317.25" y="-5.75" font-family="Helvetica,sans-Serif" font-size="10.00">&lt; llvm::object::Binary &gt;</text>
</a>
</g>
</g>
<!-- Node1&#45;&gt;Node4 -->
<g id="edge3_Node000001_Node000004" class="edge">
<title>Node1&#45;&gt;Node4</title>
<g id="a_edge3_Node000001_Node000004"><a xlink:title=" ">
<path fill="none" stroke="orange" stroke-dasharray="5,2" d="M118.52,-20.83C120.62,-20.52 122.7,-20.25 124.75,-20 166.36,-15.02 213.4,-13.79 250.44,-13.83"/>
<polygon fill="orange" stroke="orange" points="118.02,-17.36 108.72,-22.43 119.15,-24.27 118.02,-17.36"/>
</a>
</g>
<text xml:space="preserve" text-anchor="start" x="127.75" y="-24.75" font-family="Helvetica,sans-Serif" font-size="10.00" fill="grey">&lt; llvm::object::Binary &gt;</text>
</g>
<!-- Node3 -->
<g id="Node000003" class="node">
<title>Node3</title>
<g id="a_Node000003"><a xlink:href="classllvm_1_1object_1_1OffloadFile.html" target="_top" xlink:title="A class to contain the binary information for a single OffloadBinary that owns its memory.">
<polygon fill="white" stroke="#666666" points="540.25,-73.88 420.75,-73.88 420.75,-54.62 540.25,-54.62 540.25,-73.88"/>
<text xml:space="preserve" text-anchor="middle" x="480.5" y="-60.38" font-family="Helvetica,sans-Serif" font-size="10.00">llvm::object::OffloadFile</text>
</a>
</g>
</g>
<!-- Node2&#45;&gt;Node3 -->
<g id="edge2_Node000002_Node000003" class="edge">
<title>Node2&#45;&gt;Node3</title>
<g id="a_edge2_Node000002_Node000003"><a xlink:title=" ">
<path fill="none" stroke="#63b8ff" d="M395.3,-64.25C403.76,-64.25 412.27,-64.25 420.46,-64.25"/>
<polygon fill="#63b8ff" stroke="#63b8ff" points="395.35,-60.75 385.35,-64.25 395.35,-67.75 395.35,-60.75"/>
</a>
</g>
</g>
</g>
</svg>
