<?xml version="1.0" encoding="UTF-8" standalone="no"?>
<!DOCTYPE svg PUBLIC "-//W3C//DTD SVG 1.1//EN"
 "http://www.w3.org/Graphics/SVG/1.1/DTD/svg11.dtd">
<!-- Generated by graphviz version 13.1.2 (20250808.2320)
 -->
<!-- Title: llvm::MemTransferBase&lt; BaseCL &gt; Pages: 1 -->
<svg width="501pt" height="291pt"
 viewBox="0.00 0.00 501.00 291.00" xmlns="http://www.w3.org/2000/svg" xmlns:xlink="http://www.w3.org/1999/xlink">
<g id="graph0" class="graph" transform="scale(1 1) rotate(0) translate(4 287)">
<title>llvm::MemTransferBase&lt; BaseCL &gt;</title>
<!-- Node1 -->
<g id="Node000001" class="node">
<title>Node1</title>
<g id="a_Node000001"><a xlink:title="Common base class for all memory transfer intrinsics.">
<polygon fill="#999999" stroke="#666666" points="318.88,-226.75 198.62,-226.75 198.62,-196.25 318.88,-196.25 318.88,-226.75"/>
<text xml:space="preserve" text-anchor="start" x="206.62" y="-213.25" font-family="Helvetica,sans-Serif" font-size="10.00">llvm::MemTransferBase</text>
<text xml:space="preserve" text-anchor="middle" x="258.75" y="-202" font-family="Helvetica,sans-Serif" font-size="10.00">&lt; BaseCL &gt;</text>
</a>
</g>
</g>
<!-- Node3 -->
<g id="Node000003" class="node">
<title>Node3</title>
<g id="a_Node000003"><a xlink:href="classllvm_1_1MemTransferBase.html" target="_top" xlink:title=" ">
<polygon fill="white" stroke="#666666" points="249.88,-143 129.62,-143 129.62,-112.5 249.88,-112.5 249.88,-143"/>
<text xml:space="preserve" text-anchor="start" x="137.62" y="-129.5" font-family="Helvetica,sans-Serif" font-size="10.00">llvm::MemTransferBase</text>
<text xml:space="preserve" text-anchor="middle" x="189.75" y="-118.25" font-family="Helvetica,sans-Serif" font-size="10.00">&lt; AnyMemIntrinsic &gt;</text>
</a>
</g>
</g>
<!-- Node1&#45;&gt;Node3 -->
<g id="edge2_Node000001_Node000003" class="edge">
<title>Node1&#45;&gt;Node3</title>
<g id="a_edge2_Node000001_Node000003"><a xlink:title=" ">
<path fill="none" stroke="orange" stroke-dasharray="5,2" d="M215.16,-189.27C211,-186 207.16,-182.33 204,-178.25 196.22,-168.21 192.69,-154.08 191.08,-143.48"/>
<polygon fill="orange" stroke="orange" points="213.18,-192.15 223.4,-194.94 217.15,-186.39 213.18,-192.15"/>
</a>
</g>
<text xml:space="preserve" text-anchor="start" x="207" y="-165.75" font-family="Helvetica,sans-Serif" font-size="10.00" fill="grey">&lt; AnyMemIntrinsic &gt;</text>
</g>
<!-- Node7 -->
<g id="Node000007" class="node">
<title>Node7</title>
<g id="a_Node000007"><a xlink:href="classllvm_1_1MemTransferBase.html" target="_top" xlink:title=" ">
<polygon fill="white" stroke="#666666" points="387.88,-143 267.62,-143 267.62,-112.5 387.88,-112.5 387.88,-143"/>
<text xml:space="preserve" text-anchor="start" x="275.62" y="-129.5" font-family="Helvetica,sans-Serif" font-size="10.00">llvm::MemTransferBase</text>
<text xml:space="preserve" text-anchor="middle" x="327.75" y="-118.25" font-family="Helvetica,sans-Serif" font-size="10.00">&lt; MemIntrinsic &gt;</text>
</a>
</g>
</g>
<!-- Node1&#45;&gt;Node7 -->
<g id="edge6_Node000001_Node000007" class="edge">
<title>Node1&#45;&gt;Node7</title>
<g id="a_edge6_Node000001_Node000007"><a xlink:title=" ">
<path fill="none" stroke="orange" stroke-dasharray="5,2" d="M290.15,-188.79C293.94,-185.49 297.59,-181.94 300.75,-178.25 309.79,-167.69 317.11,-153.61 321.83,-143.17"/>
<polygon fill="orange" stroke="orange" points="287.96,-186.05 282.35,-195.04 292.34,-191.51 287.96,-186.05"/>
</a>
</g>
<text xml:space="preserve" text-anchor="start" x="315.23" y="-165.75" font-family="Helvetica,sans-Serif" font-size="10.00" fill="grey">&lt; MemIntrinsic &gt;</text>
</g>
<!-- Node2 -->
<g id="Node000002" class="node">
<title>Node2</title>
<g id="a_Node000002"><a xlink:href="classBaseCL.html" target="_top" xlink:title=" ">
<polygon fill="white" stroke="#666666" points="284.38,-283 233.12,-283 233.12,-263.75 284.38,-263.75 284.38,-283"/>
<text xml:space="preserve" text-anchor="middle" x="258.75" y="-269.5" font-family="Helvetica,sans-Serif" font-size="10.00">BaseCL</text>
</a>
</g>
</g>
<!-- Node2&#45;&gt;Node1 -->
<g id="edge1_Node000001_Node000002" class="edge">
<title>Node2&#45;&gt;Node1</title>
<g id="a_edge1_Node000001_Node000002"><a xlink:title=" ">
<path fill="none" stroke="#63b8ff" d="M258.75,-251.94C258.75,-243.68 258.75,-234.34 258.75,-226.82"/>
<polygon fill="#63b8ff" stroke="#63b8ff" points="255.25,-251.77 258.75,-261.77 262.25,-251.77 255.25,-251.77"/>
</a>
</g>
</g>
<!-- Node4 -->
<g id="Node000004" class="node">
<title>Node4</title>
<g id="a_Node000004"><a xlink:href="classllvm_1_1AnyMemTransferInst.html" target="_top" xlink:title=" ">
<polygon fill="white" stroke="#666666" points="253.5,-75.5 122,-75.5 122,-56.25 253.5,-56.25 253.5,-75.5"/>
<text xml:space="preserve" text-anchor="middle" x="187.75" y="-62" font-family="Helvetica,sans-Serif" font-size="10.00">llvm::AnyMemTransferInst</text>
</a>
</g>
</g>
<!-- Node3&#45;&gt;Node4 -->
<g id="edge3_Node000003_Node000004" class="edge">
<title>Node3&#45;&gt;Node4</title>
<g id="a_edge3_Node000003_Node000004"><a xlink:title=" ">
<path fill="none" stroke="#63b8ff" d="M188.89,-101.02C188.59,-92.04 188.27,-82.54 188.05,-75.85"/>
<polygon fill="#63b8ff" stroke="#63b8ff" points="185.38,-100.87 189.22,-110.74 192.38,-100.63 185.38,-100.87"/>
</a>
</g>
</g>
<!-- Node5 -->
<g id="Node000005" class="node">
<title>Node5</title>
<g id="a_Node000005"><a xlink:href="classllvm_1_1AnyMemCpyInst.html" target="_top" xlink:title="This class represents any memcpy intrinsic i.e.">
<polygon fill="white" stroke="#666666" points="113.5,-19.25 0,-19.25 0,0 113.5,0 113.5,-19.25"/>
<text xml:space="preserve" text-anchor="middle" x="56.75" y="-5.75" font-family="Helvetica,sans-Serif" font-size="10.00">llvm::AnyMemCpyInst</text>
</a>
</g>
</g>
<!-- Node4&#45;&gt;Node5 -->
<g id="edge4_Node000004_Node000005" class="edge">
<title>Node4&#45;&gt;Node5</title>
<g id="a_edge4_Node000004_Node000005"><a xlink:title=" ">
<path fill="none" stroke="#63b8ff" d="M155.49,-51.52C131.62,-41.63 99.74,-28.43 78.75,-19.73"/>
<polygon fill="#63b8ff" stroke="#63b8ff" points="153.85,-54.62 164.43,-55.22 156.53,-48.16 153.85,-54.62"/>
</a>
</g>
</g>
<!-- Node6 -->
<g id="Node000006" class="node">
<title>Node6</title>
<g id="a_Node000006"><a xlink:href="classllvm_1_1AnyMemMoveInst.html" target="_top" xlink:title="This class represents any memmove intrinsic i.e.">
<polygon fill="white" stroke="#666666" points="251.5,-19.25 132,-19.25 132,0 251.5,0 251.5,-19.25"/>
<text xml:space="preserve" text-anchor="middle" x="191.75" y="-5.75" font-family="Helvetica,sans-Serif" font-size="10.00">llvm::AnyMemMoveInst</text>
</a>
</g>
</g>
<!-- Node4&#45;&gt;Node6 -->
<g id="edge5_Node000004_Node000006" class="edge">
<title>Node4&#45;&gt;Node6</title>
<g id="a_edge5_Node000004_Node000006"><a xlink:title=" ">
<path fill="none" stroke="#63b8ff" d="M189.24,-44.69C189.88,-35.98 190.6,-26.24 191.1,-19.42"/>
<polygon fill="#63b8ff" stroke="#63b8ff" points="185.77,-44.18 188.52,-54.41 192.75,-44.69 185.77,-44.18"/>
</a>
</g>
</g>
<!-- Node8 -->
<g id="Node000008" class="node">
<title>Node8</title>
<g id="a_Node000008"><a xlink:href="classllvm_1_1MemTransferInst.html" target="_top" xlink:title="This class wraps the llvm.memcpy/memmove intrinsics.">
<polygon fill="white" stroke="#666666" points="385.88,-75.5 271.62,-75.5 271.62,-56.25 385.88,-56.25 385.88,-75.5"/>
<text xml:space="preserve" text-anchor="middle" x="328.75" y="-62" font-family="Helvetica,sans-Serif" font-size="10.00">llvm::MemTransferInst</text>
</a>
</g>
</g>
<!-- Node7&#45;&gt;Node8 -->
<g id="edge7_Node000007_Node000008" class="edge">
<title>Node7&#45;&gt;Node8</title>
<g id="a_edge7_Node000007_Node000008"><a xlink:title=" ">
<path fill="none" stroke="#63b8ff" d="M328.18,-101.02C328.33,-92.04 328.49,-82.54 328.6,-75.85"/>
<polygon fill="#63b8ff" stroke="#63b8ff" points="324.68,-100.69 328.02,-110.74 331.68,-100.8 324.68,-100.69"/>
</a>
</g>
</g>
<!-- Node9 -->
<g id="Node000009" class="node">
<title>Node9</title>
<g id="a_Node000009"><a xlink:href="classllvm_1_1MemCpyInst.html" target="_top" xlink:title="This class wraps the llvm.memcpy intrinsic.">
<polygon fill="white" stroke="#666666" points="372.88,-19.25 276.62,-19.25 276.62,0 372.88,0 372.88,-19.25"/>
<text xml:space="preserve" text-anchor="middle" x="324.75" y="-5.75" font-family="Helvetica,sans-Serif" font-size="10.00">llvm::MemCpyInst</text>
</a>
</g>
</g>
<!-- Node8&#45;&gt;Node9 -->
<g id="edge8_Node000008_Node000009" class="edge">
<title>Node8&#45;&gt;Node9</title>
<g id="a_edge8_Node000008_Node000009"><a xlink:title=" ">
<path fill="none" stroke="#63b8ff" d="M327.26,-44.69C326.62,-35.98 325.9,-26.24 325.4,-19.42"/>
<polygon fill="#63b8ff" stroke="#63b8ff" points="323.75,-44.69 327.98,-54.41 330.73,-44.18 323.75,-44.69"/>
</a>
</g>
</g>
<!-- Node10 -->
<g id="Node000010" class="node">
<title>Node10</title>
<g id="a_Node000010"><a xlink:href="classllvm_1_1MemMoveInst.html" target="_top" xlink:title="This class wraps the llvm.memmove intrinsic.">
<polygon fill="white" stroke="#666666" points="492.88,-19.25 390.62,-19.25 390.62,0 492.88,0 492.88,-19.25"/>
<text xml:space="preserve" text-anchor="middle" x="441.75" y="-5.75" font-family="Helvetica,sans-Serif" font-size="10.00">llvm::MemMoveInst</text>
</a>
</g>
</g>
<!-- Node8&#45;&gt;Node10 -->
<g id="edge9_Node000008_Node000010" class="edge">
<title>Node8&#45;&gt;Node10</title>
<g id="a_edge9_Node000008_Node000010"><a xlink:title=" ">
<path fill="none" stroke="#63b8ff" d="M357.98,-50.84C378.4,-41.04 405.07,-28.23 422.77,-19.73"/>
<polygon fill="#63b8ff" stroke="#63b8ff" points="356.53,-47.66 349.03,-55.14 359.56,-53.97 356.53,-47.66"/>
</a>
</g>
</g>
</g>
</svg>
