<?xml version="1.0" encoding="UTF-8" standalone="no"?>
<!DOCTYPE svg PUBLIC "-//W3C//DTD SVG 1.1//EN"
 "http://www.w3.org/Graphics/SVG/1.1/DTD/svg11.dtd">
<!-- Generated by graphviz version 13.1.2 (20250808.2320)
 -->
<!-- Title: llvm::detail::TypeSwitchBase&lt; DerivedT, T &gt; Pages: 1 -->
<svg width="777pt" height="158pt"
 viewBox="0.00 0.00 777.00 158.00" xmlns="http://www.w3.org/2000/svg" xmlns:xlink="http://www.w3.org/1999/xlink">
<g id="graph0" class="graph" transform="scale(1 1) rotate(0) translate(4 153.73)">
<title>llvm::detail::TypeSwitchBase&lt; DerivedT, T &gt;</title>
<!-- Node1 -->
<g id="Node000001" class="node">
<title>Node1</title>
<g id="a_Node000001"><a xlink:title=" ">
<polygon fill="#999999" stroke="#666666" points="120.25,-112.5 0,-112.5 0,-82 120.25,-82 120.25,-112.5"/>
<text xml:space="preserve" text-anchor="start" x="8" y="-99" font-family="Helvetica,sans-Serif" font-size="10.00">llvm::detail::TypeSwitch</text>
<text xml:space="preserve" text-anchor="middle" x="60.12" y="-87.75" font-family="Helvetica,sans-Serif" font-size="10.00">Base&lt; DerivedT, T &gt;</text>
</a>
</g>
</g>
<!-- Node2 -->
<g id="Node000002" class="node">
<title>Node2</title>
<g id="a_Node000002"><a xlink:href="classllvm_1_1detail_1_1TypeSwitchBase.html" target="_top" xlink:title=" ">
<polygon fill="white" stroke="#666666" points="428.75,-148.12 276.25,-148.12 276.25,-106.38 428.75,-106.38 428.75,-148.12"/>
<text xml:space="preserve" text-anchor="start" x="284.25" y="-134.62" font-family="Helvetica,sans-Serif" font-size="10.00">llvm::detail::TypeSwitch</text>
<text xml:space="preserve" text-anchor="start" x="284.25" y="-123.38" font-family="Helvetica,sans-Serif" font-size="10.00">Base&lt; TypeSwitch&lt; T, ResultT</text>
<text xml:space="preserve" text-anchor="middle" x="352.5" y="-112.12" font-family="Helvetica,sans-Serif" font-size="10.00"> &gt;, T &gt;</text>
</a>
</g>
</g>
<!-- Node1&#45;&gt;Node2 -->
<g id="edge1_Node000001_Node000002" class="edge">
<title>Node1&#45;&gt;Node2</title>
<g id="a_edge1_Node000001_Node000002"><a xlink:title=" ">
<path fill="none" stroke="orange" stroke-dasharray="5,2" d="M131.68,-104.57C133.9,-104.8 136.09,-105.03 138.25,-105.25 183.97,-109.98 235.21,-115.27 276,-119.47"/>
<polygon fill="orange" stroke="orange" points="132.31,-101.12 122,-103.57 131.59,-108.08 132.31,-101.12"/>
</a>
</g>
<text xml:space="preserve" text-anchor="start" x="141.25" y="-137.23" font-family="Helvetica,sans-Serif" font-size="10.00" fill="grey">&lt; TypeSwitch&lt; T, ResultT</text>
<text xml:space="preserve" text-anchor="start" x="141.25" y="-121.98" font-family="Helvetica,sans-Serif" font-size="10.00" fill="grey">   &gt;, T &gt;</text>
</g>
<!-- Node3 -->
<g id="Node000003" class="node">
<title>Node3</title>
<g id="a_Node000003"><a xlink:href="classllvm_1_1detail_1_1TypeSwitchBase.html" target="_top" xlink:title=" ">
<polygon fill="white" stroke="#666666" points="420.5,-88.12 284.5,-88.12 284.5,-46.38 420.5,-46.38 420.5,-88.12"/>
<text xml:space="preserve" text-anchor="start" x="292.5" y="-74.62" font-family="Helvetica,sans-Serif" font-size="10.00">llvm::detail::TypeSwitch</text>
<text xml:space="preserve" text-anchor="start" x="292.5" y="-63.38" font-family="Helvetica,sans-Serif" font-size="10.00">Base&lt; TypeSwitch&lt; T, void</text>
<text xml:space="preserve" text-anchor="middle" x="352.5" y="-52.12" font-family="Helvetica,sans-Serif" font-size="10.00"> &gt;, T &gt;</text>
</a>
</g>
</g>
<!-- Node1&#45;&gt;Node3 -->
<g id="edge2_Node000001_Node000003" class="edge">
<title>Node1&#45;&gt;Node3</title>
<g id="a_edge2_Node000001_Node000003"><a xlink:title=" ">
<path fill="none" stroke="orange" stroke-dasharray="5,2" d="M106.19,-77.64C116.53,-73.97 127.62,-70.69 138.25,-68.75 186.51,-59.94 241.94,-59.85 284.19,-61.81"/>
<polygon fill="orange" stroke="orange" points="105.28,-74.24 97.14,-81.02 107.74,-80.8 105.28,-74.24"/>
</a>
</g>
<text xml:space="preserve" text-anchor="start" x="149.5" y="-88.75" font-family="Helvetica,sans-Serif" font-size="10.00" fill="grey">&lt; TypeSwitch&lt; T, void</text>
<text xml:space="preserve" text-anchor="start" x="149.5" y="-73.5" font-family="Helvetica,sans-Serif" font-size="10.00" fill="grey">   &gt;, T &gt;</text>
</g>
<!-- Node4 -->
<g id="Node000004" class="node">
<title>Node4</title>
<g id="a_Node000004"><a xlink:href="classllvm_1_1TypeSwitch_3_01T_00_01void_01_4.html" target="_top" xlink:title="Specialization of TypeSwitch for void returning callables.">
<polygon fill="white" stroke="#666666" points="769.25,-82.5 661.75,-82.5 661.75,-52 769.25,-52 769.25,-82.5"/>
<text xml:space="preserve" text-anchor="start" x="669.75" y="-69" font-family="Helvetica,sans-Serif" font-size="10.00">llvm::TypeSwitch&lt; T,</text>
<text xml:space="preserve" text-anchor="middle" x="715.5" y="-57.75" font-family="Helvetica,sans-Serif" font-size="10.00"> void &gt;</text>
</a>
</g>
</g>
<!-- Node3&#45;&gt;Node4 -->
<g id="edge3_Node000003_Node000004" class="edge">
<title>Node3&#45;&gt;Node4</title>
<g id="a_edge3_Node000003_Node000004"><a xlink:title=" ">
<path fill="none" stroke="#63b8ff" d="M432.29,-61.56C501.74,-59.93 601.02,-60.18 661.43,-62.3"/>
<polygon fill="#63b8ff" stroke="#63b8ff" points="432.4,-58.06 422.49,-61.81 432.58,-65.05 432.4,-58.06"/>
</a>
</g>
</g>
<!-- Node3&#45;&gt;Node4 -->
<g id="edge6_Node000003_Node000004" class="edge">
<title>Node3&#45;&gt;Node4</title>
<g id="a_edge6_Node000003_Node000004"><a xlink:title=" ">
<path fill="none" stroke="#63b8ff" d="M432.29,-72.94C501.74,-74.57 601.02,-74.32 661.43,-72.2"/>
<polygon fill="#63b8ff" stroke="#63b8ff" points="432.58,-69.45 422.49,-72.69 432.4,-76.44 432.58,-69.45"/>
</a>
</g>
</g>
<!-- Node5 -->
<g id="Node000005" class="node">
<title>Node5</title>
<g id="a_Node000005"><a xlink:href="classllvm_1_1TypeSwitch.html" target="_top" xlink:title="This class implements a switch&#45;like dispatch statement for a value of &#39;T&#39; using dyn_cast functionalit...">
<polygon fill="white" stroke="#666666" points="573.25,-30.5 465.75,-30.5 465.75,0 573.25,0 573.25,-30.5"/>
<text xml:space="preserve" text-anchor="start" x="473.75" y="-17" font-family="Helvetica,sans-Serif" font-size="10.00">llvm::TypeSwitch&lt; T,</text>
<text xml:space="preserve" text-anchor="middle" x="519.5" y="-5.75" font-family="Helvetica,sans-Serif" font-size="10.00"> ResultT &gt;</text>
</a>
</g>
</g>
<!-- Node3&#45;&gt;Node5 -->
<g id="edge4_Node000003_Node000005" class="edge">
<title>Node3&#45;&gt;Node5</title>
<g id="a_edge4_Node000003_Node000005"><a xlink:title=" ">
<path fill="none" stroke="#63b8ff" d="M431.24,-42.75C443.97,-38.74 456.85,-34.68 468.66,-30.96"/>
<polygon fill="#63b8ff" stroke="#63b8ff" points="430.54,-39.3 422.06,-45.64 432.64,-45.98 430.54,-39.3"/>
</a>
</g>
</g>
<!-- Node5&#45;&gt;Node4 -->
<g id="edge5_Node000005_Node000004" class="edge">
<title>Node5&#45;&gt;Node4</title>
<g id="a_edge5_Node000005_Node000004"><a xlink:title=" ">
<path fill="none" stroke="orange" stroke-dasharray="5,2" d="M585.05,-16.27C604.28,-17.94 625.16,-21.12 643.75,-27 661.27,-32.54 679.24,-42.83 692.68,-51.62"/>
<polygon fill="orange" stroke="orange" points="585.39,-12.79 575.16,-15.55 584.88,-19.77 585.39,-12.79"/>
</a>
</g>
<text xml:space="preserve" text-anchor="start" x="594.25" y="-31.75" font-family="Helvetica,sans-Serif" font-size="10.00" fill="grey">&lt; T, void &gt;</text>
</g>
</g>
</svg>
