<?xml version="1.0" encoding="UTF-8" standalone="no"?>
<!DOCTYPE svg PUBLIC "-//W3C//DTD SVG 1.1//EN"
 "http://www.w3.org/Graphics/SVG/1.1/DTD/svg11.dtd">
<!-- Generated by graphviz version 13.1.2 (20250808.2320)
 -->
<!-- Title: llvm::VPIRMetadata Pages: 1 -->
<svg width="486pt" height="304pt"
 viewBox="0.00 0.00 486.00 304.00" xmlns="http://www.w3.org/2000/svg" xmlns:xlink="http://www.w3.org/1999/xlink">
<g id="graph0" class="graph" transform="scale(1 1) rotate(0) translate(4 300.25)">
<title>llvm::VPIRMetadata</title>
<!-- Node1 -->
<g id="Node000001" class="node">
<title>Node1</title>
<g id="a_Node000001"><a xlink:title="Helper to manage IR metadata for recipes.">
<polygon fill="#999999" stroke="#666666" points="104.5,-148.25 0,-148.25 0,-129 104.5,-129 104.5,-148.25"/>
<text xml:space="preserve" text-anchor="middle" x="52.25" y="-134.75" font-family="Helvetica,sans-Serif" font-size="10.00">llvm::VPIRMetadata</text>
</a>
</g>
</g>
<!-- Node2 -->
<g id="Node000002" class="node">
<title>Node2</title>
<g id="a_Node000002"><a xlink:href="classllvm_1_1VPInstruction.html" target="_top" xlink:title="This is a concrete Recipe that models a single VPlan&#45;level instruction.">
<polygon fill="white" stroke="#666666" points="263.75,-278.25 164.5,-278.25 164.5,-259 263.75,-259 263.75,-278.25"/>
<text xml:space="preserve" text-anchor="middle" x="214.12" y="-264.75" font-family="Helvetica,sans-Serif" font-size="10.00">llvm::VPInstruction</text>
</a>
</g>
</g>
<!-- Node1&#45;&gt;Node2 -->
<g id="edge1_Node000001_Node000002" class="edge">
<title>Node1&#45;&gt;Node2</title>
<g id="a_edge1_Node000001_Node000002"><a xlink:title=" ">
<path fill="none" stroke="#63b8ff" d="M63.25,-158.45C77.08,-183.81 104.49,-227.24 140.5,-250.62 147.69,-255.29 156,-258.75 164.37,-261.31"/>
<polygon fill="#63b8ff" stroke="#63b8ff" points="66.47,-157.06 58.72,-149.84 60.28,-160.32 66.47,-157.06"/>
</a>
</g>
</g>
<!-- Node5 -->
<g id="Node000005" class="node">
<title>Node5</title>
<g id="a_Node000005"><a xlink:href="classllvm_1_1VPReplicateRecipe.html" target="_top" xlink:title="VPReplicateRecipe replicates a given instruction producing multiple scalar copies of the original sca...">
<polygon fill="white" stroke="#666666" points="276.88,-241.25 151.38,-241.25 151.38,-222 276.88,-222 276.88,-241.25"/>
<text xml:space="preserve" text-anchor="middle" x="214.12" y="-227.75" font-family="Helvetica,sans-Serif" font-size="10.00">llvm::VPReplicateRecipe</text>
</a>
</g>
</g>
<!-- Node1&#45;&gt;Node5 -->
<g id="edge4_Node000001_Node000005" class="edge">
<title>Node1&#45;&gt;Node5</title>
<g id="a_edge4_Node000001_Node000005"><a xlink:title=" ">
<path fill="none" stroke="#63b8ff" d="M69.37,-156.69C85.66,-173.85 112.39,-199.11 140.5,-213.62 146.62,-216.78 153.32,-219.4 160.09,-221.58"/>
<polygon fill="#63b8ff" stroke="#63b8ff" points="72.23,-154.64 62.88,-149.67 67.1,-159.39 72.23,-154.64"/>
</a>
</g>
</g>
<!-- Node6 -->
<g id="Node000006" class="node">
<title>Node6</title>
<g id="a_Node000006"><a xlink:href="classllvm_1_1VPWidenCallRecipe.html" target="_top" xlink:title="A recipe for widening Call instructions using library calls.">
<polygon fill="white" stroke="#666666" points="278.75,-204.25 149.5,-204.25 149.5,-185 278.75,-185 278.75,-204.25"/>
<text xml:space="preserve" text-anchor="middle" x="214.12" y="-190.75" font-family="Helvetica,sans-Serif" font-size="10.00">llvm::VPWidenCallRecipe</text>
</a>
</g>
</g>
<!-- Node1&#45;&gt;Node6 -->
<g id="edge5_Node000001_Node000006" class="edge">
<title>Node1&#45;&gt;Node6</title>
<g id="a_edge5_Node000001_Node000006"><a xlink:title=" ">
<path fill="none" stroke="#63b8ff" d="M83.83,-153.45C100.34,-161.07 121.25,-170.1 140.5,-176.62 149.11,-179.54 158.44,-182.21 167.46,-184.55"/>
<polygon fill="#63b8ff" stroke="#63b8ff" points="85.58,-150.4 75.04,-149.32 82.61,-156.74 85.58,-150.4"/>
</a>
</g>
</g>
<!-- Node7 -->
<g id="Node000007" class="node">
<title>Node7</title>
<g id="a_Node000007"><a xlink:href="classllvm_1_1VPWidenCastRecipe.html" target="_top" xlink:title="VPWidenCastRecipe is a recipe to create vector cast instructions.">
<polygon fill="white" stroke="#666666" points="280.62,-167.25 147.62,-167.25 147.62,-148 280.62,-148 280.62,-167.25"/>
<text xml:space="preserve" text-anchor="middle" x="214.12" y="-153.75" font-family="Helvetica,sans-Serif" font-size="10.00">llvm::VPWidenCastRecipe</text>
</a>
</g>
</g>
<!-- Node1&#45;&gt;Node7 -->
<g id="edge6_Node000001_Node000007" class="edge">
<title>Node1&#45;&gt;Node7</title>
<g id="a_edge6_Node000001_Node000007"><a xlink:title=" ">
<path fill="none" stroke="#63b8ff" d="M116.04,-146.09C126.25,-147.3 136.85,-148.56 147.14,-149.78"/>
<polygon fill="#63b8ff" stroke="#63b8ff" points="116.56,-142.62 106.22,-144.92 115.74,-149.58 116.56,-142.62"/>
</a>
</g>
</g>
<!-- Node8 -->
<g id="Node000008" class="node">
<title>Node8</title>
<g id="a_Node000008"><a xlink:href="classllvm_1_1VPWidenIntrinsicRecipe.html" target="_top" xlink:title="A recipe for widening vector intrinsics.">
<polygon fill="white" stroke="#666666" points="287.38,-130.25 140.88,-130.25 140.88,-111 287.38,-111 287.38,-130.25"/>
<text xml:space="preserve" text-anchor="middle" x="214.12" y="-116.75" font-family="Helvetica,sans-Serif" font-size="10.00">llvm::VPWidenIntrinsicRecipe</text>
</a>
</g>
</g>
<!-- Node1&#45;&gt;Node8 -->
<g id="edge7_Node000001_Node000008" class="edge">
<title>Node1&#45;&gt;Node8</title>
<g id="a_edge7_Node000001_Node000008"><a xlink:title=" ">
<path fill="none" stroke="#63b8ff" d="M115.92,-131.57C123.98,-130.66 132.29,-129.73 140.5,-128.8"/>
<polygon fill="#63b8ff" stroke="#63b8ff" points="115.77,-128.06 106.22,-132.66 116.55,-135.02 115.77,-128.06"/>
</a>
</g>
</g>
<!-- Node9 -->
<g id="Node000009" class="node">
<title>Node9</title>
<g id="a_Node000009"><a xlink:href="classllvm_1_1VPWidenMemoryRecipe.html" target="_top" xlink:title="A common base class for widening memory operations.">
<polygon fill="white" stroke="#666666" points="287.75,-93.25 140.5,-93.25 140.5,-74 287.75,-74 287.75,-93.25"/>
<text xml:space="preserve" text-anchor="middle" x="214.12" y="-79.75" font-family="Helvetica,sans-Serif" font-size="10.00">llvm::VPWidenMemoryRecipe</text>
</a>
</g>
</g>
<!-- Node1&#45;&gt;Node9 -->
<g id="edge8_Node000001_Node000009" class="edge">
<title>Node1&#45;&gt;Node9</title>
<g id="a_edge8_Node000001_Node000009"><a xlink:title=" ">
<path fill="none" stroke="#63b8ff" d="M84.53,-123.94C100.95,-116.59 121.55,-107.95 140.5,-101.62 149.25,-98.71 158.73,-96.02 167.87,-93.67"/>
<polygon fill="#63b8ff" stroke="#63b8ff" points="83.44,-120.59 75.78,-127.91 86.33,-126.97 83.44,-120.59"/>
</a>
</g>
</g>
<!-- Node14 -->
<g id="Node000014" class="node">
<title>Node14</title>
<g id="a_Node000014"><a xlink:href="classllvm_1_1VPWidenRecipe.html" target="_top" xlink:title="VPWidenRecipe is a recipe for producing a widened instruction using the opcode and operands of the re...">
<polygon fill="white" stroke="#666666" points="270.12,-56.25 158.12,-56.25 158.12,-37 270.12,-37 270.12,-56.25"/>
<text xml:space="preserve" text-anchor="middle" x="214.12" y="-42.75" font-family="Helvetica,sans-Serif" font-size="10.00">llvm::VPWidenRecipe</text>
</a>
</g>
</g>
<!-- Node1&#45;&gt;Node14 -->
<g id="edge13_Node000001_Node000014" class="edge">
<title>Node1&#45;&gt;Node14</title>
<g id="a_edge13_Node000001_Node000014"><a xlink:title=" ">
<path fill="none" stroke="#63b8ff" d="M69.68,-120.53C86.03,-103.62 112.65,-78.88 140.5,-64.62 146.63,-61.49 153.33,-58.88 160.11,-56.71"/>
<polygon fill="#63b8ff" stroke="#63b8ff" points="67.46,-117.79 63.15,-127.47 72.55,-122.59 67.46,-117.79"/>
</a>
</g>
</g>
<!-- Node15 -->
<g id="Node000015" class="node">
<title>Node15</title>
<g id="a_Node000015"><a xlink:href="structllvm_1_1VPWidenSelectRecipe.html" target="_top" xlink:title="A recipe for widening select instructions.">
<polygon fill="white" stroke="#666666" points="284,-19.25 144.25,-19.25 144.25,0 284,0 284,-19.25"/>
<text xml:space="preserve" text-anchor="middle" x="214.12" y="-5.75" font-family="Helvetica,sans-Serif" font-size="10.00">llvm::VPWidenSelectRecipe</text>
</a>
</g>
</g>
<!-- Node1&#45;&gt;Node15 -->
<g id="edge14_Node000001_Node000015" class="edge">
<title>Node1&#45;&gt;Node15</title>
<g id="a_edge14_Node000001_Node000015"><a xlink:title=" ">
<path fill="none" stroke="#63b8ff" d="M63.5,-118.6C77.45,-93.41 104.81,-50.69 140.5,-27.62 145.41,-24.45 150.84,-21.84 156.45,-19.69"/>
<polygon fill="#63b8ff" stroke="#63b8ff" points="60.55,-116.7 58.92,-127.17 66.72,-120 60.55,-116.7"/>
</a>
</g>
</g>
<!-- Node3 -->
<g id="Node000003" class="node">
<title>Node3</title>
<g id="a_Node000003"><a xlink:href="classllvm_1_1VPInstructionWithType.html" target="_top" xlink:title="A specialization of VPInstruction augmenting it with a dedicated result type, to be used when the opc...">
<polygon fill="white" stroke="#666666" points="471,-296.25 330.5,-296.25 330.5,-277 471,-277 471,-296.25"/>
<text xml:space="preserve" text-anchor="middle" x="400.75" y="-282.75" font-family="Helvetica,sans-Serif" font-size="10.00">llvm::VPInstructionWithType</text>
</a>
</g>
</g>
<!-- Node2&#45;&gt;Node3 -->
<g id="edge2_Node000002_Node000003" class="edge">
<title>Node2&#45;&gt;Node3</title>
<g id="a_edge2_Node000002_Node000003"><a xlink:title=" ">
<path fill="none" stroke="#63b8ff" d="M275.32,-274.49C292.79,-276.2 312.02,-278.07 330.02,-279.83"/>
<polygon fill="#63b8ff" stroke="#63b8ff" points="275.92,-271.04 265.62,-273.55 275.24,-278 275.92,-271.04"/>
</a>
</g>
</g>
<!-- Node4 -->
<g id="Node000004" class="node">
<title>Node4</title>
<g id="a_Node000004"><a xlink:href="structllvm_1_1VPPhi.html" target="_top" xlink:title=" ">
<polygon fill="white" stroke="#666666" points="434.62,-259.25 366.88,-259.25 366.88,-240 434.62,-240 434.62,-259.25"/>
<text xml:space="preserve" text-anchor="middle" x="400.75" y="-245.75" font-family="Helvetica,sans-Serif" font-size="10.00">llvm::VPPhi</text>
</a>
</g>
</g>
<!-- Node2&#45;&gt;Node4 -->
<g id="edge3_Node000002_Node000004" class="edge">
<title>Node2&#45;&gt;Node4</title>
<g id="a_edge3_Node000002_Node000004"><a xlink:title=" ">
<path fill="none" stroke="#63b8ff" d="M275.44,-262.42C305.73,-259.3 341.28,-255.64 366.58,-253.04"/>
<polygon fill="#63b8ff" stroke="#63b8ff" points="275.21,-258.92 265.62,-263.43 275.93,-265.89 275.21,-258.92"/>
</a>
</g>
</g>
<!-- Node10 -->
<g id="Node000010" class="node">
<title>Node10</title>
<g id="a_Node000010"><a xlink:href="structllvm_1_1VPWidenLoadEVLRecipe.html" target="_top" xlink:title="A recipe for widening load operations with vector&#45;predication intrinsics, using the address to load f...">
<polygon fill="white" stroke="#666666" points="476.62,-149.25 324.88,-149.25 324.88,-130 476.62,-130 476.62,-149.25"/>
<text xml:space="preserve" text-anchor="middle" x="400.75" y="-135.75" font-family="Helvetica,sans-Serif" font-size="10.00">llvm::VPWidenLoadEVLRecipe</text>
</a>
</g>
</g>
<!-- Node9&#45;&gt;Node10 -->
<g id="edge9_Node000009_Node000010" class="edge">
<title>Node9&#45;&gt;Node10</title>
<g id="a_edge9_Node000009_Node000010"><a xlink:title=" ">
<path fill="none" stroke="#63b8ff" d="M274.2,-96.86C278.83,-98.32 283.4,-99.91 287.75,-101.62 304.78,-108.33 306.68,-115.01 323.75,-121.62 331.59,-124.66 340.09,-127.29 348.47,-129.52"/>
<polygon fill="#63b8ff" stroke="#63b8ff" points="275.38,-93.56 264.8,-94.1 273.41,-100.28 275.38,-93.56"/>
</a>
</g>
</g>
<!-- Node11 -->
<g id="Node000011" class="node">
<title>Node11</title>
<g id="a_Node000011"><a xlink:href="structllvm_1_1VPWidenLoadRecipe.html" target="_top" xlink:title="A recipe for widening load operations, using the address to load from and an optional mask.">
<polygon fill="white" stroke="#666666" points="467.25,-112.25 334.25,-112.25 334.25,-93 467.25,-93 467.25,-112.25"/>
<text xml:space="preserve" text-anchor="middle" x="400.75" y="-98.75" font-family="Helvetica,sans-Serif" font-size="10.00">llvm::VPWidenLoadRecipe</text>
</a>
</g>
</g>
<!-- Node9&#45;&gt;Node11 -->
<g id="edge10_Node000009_Node000011" class="edge">
<title>Node9&#45;&gt;Node11</title>
<g id="a_edge10_Node000009_Node000011"><a xlink:title=" ">
<path fill="none" stroke="#63b8ff" d="M299.54,-92.31C311.07,-93.5 322.77,-94.7 333.9,-95.85"/>
<polygon fill="#63b8ff" stroke="#63b8ff" points="299.91,-88.83 289.6,-91.29 299.19,-95.79 299.91,-88.83"/>
</a>
</g>
</g>
<!-- Node12 -->
<g id="Node000012" class="node">
<title>Node12</title>
<g id="a_Node000012"><a xlink:href="structllvm_1_1VPWidenStoreEVLRecipe.html" target="_top" xlink:title="A recipe for widening store operations with vector&#45;predication intrinsics, using the value to store,...">
<polygon fill="white" stroke="#666666" points="477.75,-75.25 323.75,-75.25 323.75,-56 477.75,-56 477.75,-75.25"/>
<text xml:space="preserve" text-anchor="middle" x="400.75" y="-61.75" font-family="Helvetica,sans-Serif" font-size="10.00">llvm::VPWidenStoreEVLRecipe</text>
</a>
</g>
</g>
<!-- Node9&#45;&gt;Node12 -->
<g id="edge11_Node000009_Node000012" class="edge">
<title>Node9&#45;&gt;Node12</title>
<g id="a_edge11_Node000009_Node000012"><a xlink:title=" ">
<path fill="none" stroke="#63b8ff" d="M299.34,-75.41C307.35,-74.63 315.44,-73.84 323.37,-73.07"/>
<polygon fill="#63b8ff" stroke="#63b8ff" points="299.21,-71.91 289.6,-76.36 299.89,-78.88 299.21,-71.91"/>
</a>
</g>
</g>
<!-- Node13 -->
<g id="Node000013" class="node">
<title>Node13</title>
<g id="a_Node000013"><a xlink:href="structllvm_1_1VPWidenStoreRecipe.html" target="_top" xlink:title="A recipe for widening store operations, using the stored value, the address to store to and an option...">
<polygon fill="white" stroke="#666666" points="468.38,-38.25 333.12,-38.25 333.12,-19 468.38,-19 468.38,-38.25"/>
<text xml:space="preserve" text-anchor="middle" x="400.75" y="-24.75" font-family="Helvetica,sans-Serif" font-size="10.00">llvm::VPWidenStoreRecipe</text>
</a>
</g>
</g>
<!-- Node9&#45;&gt;Node13 -->
<g id="edge12_Node000009_Node000013" class="edge">
<title>Node9&#45;&gt;Node13</title>
<g id="a_edge12_Node000009_Node000013"><a xlink:title=" ">
<path fill="none" stroke="#63b8ff" d="M273.95,-70.35C278.66,-68.89 283.31,-67.32 287.75,-65.62 304.65,-59.18 306.81,-52.98 323.75,-46.62 331.87,-43.58 340.69,-40.93 349.34,-38.67"/>
<polygon fill="#63b8ff" stroke="#63b8ff" points="273,-66.98 264.36,-73.12 274.94,-73.71 273,-66.98"/>
</a>
</g>
</g>
</g>
</svg>
