<?xml version="1.0" encoding="UTF-8" standalone="no"?>
<!DOCTYPE svg PUBLIC "-//W3C//DTD SVG 1.1//EN"
 "http://www.w3.org/Graphics/SVG/1.1/DTD/svg11.dtd">
<!-- Generated by graphviz version 13.1.2 (20250808.2320)
 -->
<!-- Title: llvm::MipsSEDAGToDAGISelLegacy Pages: 1 -->
<svg width="172pt" height="315pt"
 viewBox="0.00 0.00 172.00 315.00" xmlns="http://www.w3.org/2000/svg" xmlns:xlink="http://www.w3.org/1999/xlink">
<g id="graph0" class="graph" transform="scale(1 1) rotate(0) translate(4 310.75)">
<title>llvm::MipsSEDAGToDAGISelLegacy</title>
<!-- Node1 -->
<g id="Node000001" class="node">
<title>Node1</title>
<g id="a_Node000001"><a xlink:title=" ">
<polygon fill="#999999" stroke="#666666" points="154.75,-30.5 9,-30.5 9,0 154.75,0 154.75,-30.5"/>
<text xml:space="preserve" text-anchor="start" x="17" y="-17" font-family="Helvetica,sans-Serif" font-size="10.00">llvm::MipsSEDAGToDAGISel</text>
<text xml:space="preserve" text-anchor="middle" x="81.88" y="-5.75" font-family="Helvetica,sans-Serif" font-size="10.00">Legacy</text>
</a>
</g>
</g>
<!-- Node2 -->
<g id="Node000002" class="node">
<title>Node2</title>
<g id="a_Node000002"><a xlink:href="classllvm_1_1MipsDAGToDAGISelLegacy.html" target="_top" xlink:title=" ">
<polygon fill="white" stroke="#666666" points="163.75,-85.75 0,-85.75 0,-66.5 163.75,-66.5 163.75,-85.75"/>
<text xml:space="preserve" text-anchor="middle" x="81.88" y="-72.25" font-family="Helvetica,sans-Serif" font-size="10.00">llvm::MipsDAGToDAGISelLegacy</text>
</a>
</g>
</g>
<!-- Node2&#45;&gt;Node1 -->
<g id="edge1_Node000001_Node000002" class="edge">
<title>Node2&#45;&gt;Node1</title>
<g id="a_edge1_Node000001_Node000002"><a xlink:title=" ">
<path fill="none" stroke="#63b8ff" d="M81.88,-54.92C81.88,-46.99 81.88,-38.06 81.88,-30.78"/>
<polygon fill="#63b8ff" stroke="#63b8ff" points="78.38,-54.67 81.88,-64.67 85.38,-54.67 78.38,-54.67"/>
</a>
</g>
</g>
<!-- Node3 -->
<g id="Node000003" class="node">
<title>Node3</title>
<g id="a_Node000003"><a xlink:href="classllvm_1_1SelectionDAGISelLegacy.html" target="_top" xlink:title=" ">
<polygon fill="white" stroke="#666666" points="157.38,-141 6.38,-141 6.38,-121.75 157.38,-121.75 157.38,-141"/>
<text xml:space="preserve" text-anchor="middle" x="81.88" y="-127.5" font-family="Helvetica,sans-Serif" font-size="10.00">llvm::SelectionDAGISelLegacy</text>
</a>
</g>
</g>
<!-- Node3&#45;&gt;Node2 -->
<g id="edge2_Node000002_Node000003" class="edge">
<title>Node3&#45;&gt;Node2</title>
<g id="a_edge2_Node000002_Node000003"><a xlink:title=" ">
<path fill="none" stroke="#63b8ff" d="M81.88,-110.13C81.88,-101.84 81.88,-92.67 81.88,-86.11"/>
<polygon fill="#63b8ff" stroke="#63b8ff" points="78.38,-110.07 81.88,-120.07 85.38,-110.07 78.38,-110.07"/>
</a>
</g>
</g>
<!-- Node4 -->
<g id="Node000004" class="node">
<title>Node4</title>
<g id="a_Node000004"><a xlink:href="classllvm_1_1MachineFunctionPass.html" target="_top" xlink:title="MachineFunctionPass &#45; This class adapts the FunctionPass interface to allow convenient creation of pa...">
<polygon fill="white" stroke="#666666" points="150.25,-196.25 13.5,-196.25 13.5,-177 150.25,-177 150.25,-196.25"/>
<text xml:space="preserve" text-anchor="middle" x="81.88" y="-182.75" font-family="Helvetica,sans-Serif" font-size="10.00">llvm::MachineFunctionPass</text>
</a>
</g>
</g>
<!-- Node4&#45;&gt;Node3 -->
<g id="edge3_Node000003_Node000004" class="edge">
<title>Node4&#45;&gt;Node3</title>
<g id="a_edge3_Node000003_Node000004"><a xlink:title=" ">
<path fill="none" stroke="#63b8ff" d="M81.88,-165.38C81.88,-157.09 81.88,-147.92 81.88,-141.36"/>
<polygon fill="#63b8ff" stroke="#63b8ff" points="78.38,-165.32 81.88,-175.32 85.38,-165.32 78.38,-165.32"/>
</a>
</g>
</g>
<!-- Node5 -->
<g id="Node000005" class="node">
<title>Node5</title>
<g id="a_Node000005"><a xlink:href="classllvm_1_1FunctionPass.html" target="_top" xlink:title="FunctionPass class &#45; This class is used to implement most global optimizations.">
<polygon fill="white" stroke="#666666" points="131.88,-251.5 31.88,-251.5 31.88,-232.25 131.88,-232.25 131.88,-251.5"/>
<text xml:space="preserve" text-anchor="middle" x="81.88" y="-238" font-family="Helvetica,sans-Serif" font-size="10.00">llvm::FunctionPass</text>
</a>
</g>
</g>
<!-- Node5&#45;&gt;Node4 -->
<g id="edge4_Node000004_Node000005" class="edge">
<title>Node5&#45;&gt;Node4</title>
<g id="a_edge4_Node000004_Node000005"><a xlink:title=" ">
<path fill="none" stroke="#63b8ff" d="M81.88,-220.63C81.88,-212.34 81.88,-203.17 81.88,-196.61"/>
<polygon fill="#63b8ff" stroke="#63b8ff" points="78.38,-220.57 81.88,-230.57 85.38,-220.57 78.38,-220.57"/>
</a>
</g>
</g>
<!-- Node6 -->
<g id="Node000006" class="node">
<title>Node6</title>
<g id="a_Node000006"><a xlink:href="classllvm_1_1Pass.html" target="_top" xlink:title="Pass interface &#45; Implemented by all &#39;passes&#39;.">
<polygon fill="white" stroke="#666666" points="113.12,-306.75 50.62,-306.75 50.62,-287.5 113.12,-287.5 113.12,-306.75"/>
<text xml:space="preserve" text-anchor="middle" x="81.88" y="-293.25" font-family="Helvetica,sans-Serif" font-size="10.00">llvm::Pass</text>
</a>
</g>
</g>
<!-- Node6&#45;&gt;Node5 -->
<g id="edge5_Node000005_Node000006" class="edge">
<title>Node6&#45;&gt;Node5</title>
<g id="a_edge5_Node000005_Node000006"><a xlink:title=" ">
<path fill="none" stroke="#63b8ff" d="M81.88,-275.88C81.88,-267.59 81.88,-258.42 81.88,-251.86"/>
<polygon fill="#63b8ff" stroke="#63b8ff" points="78.38,-275.82 81.88,-285.82 85.38,-275.82 78.38,-275.82"/>
</a>
</g>
</g>
</g>
</svg>
