<?xml version="1.0" encoding="UTF-8" standalone="no"?>
<!DOCTYPE svg PUBLIC "-//W3C//DTD SVG 1.1//EN"
 "http://www.w3.org/Graphics/SVG/1.1/DTD/svg11.dtd">
<!-- Generated by graphviz version 13.1.2 (20250808.2320)
 -->
<!-- Title: llvm::VPBasicBlock Pages: 1 -->
<svg width="122pt" height="138pt"
 viewBox="0.00 0.00 122.00 138.00" xmlns="http://www.w3.org/2000/svg" xmlns:xlink="http://www.w3.org/1999/xlink">
<g id="graph0" class="graph" transform="scale(1 1) rotate(0) translate(4 133.75)">
<title>llvm::VPBasicBlock</title>
<!-- Node1 -->
<g id="Node000001" class="node">
<title>Node1</title>
<g id="a_Node000001"><a xlink:title="VPBasicBlock serves as the leaf of the Hierarchical Control&#45;Flow Graph.">
<polygon fill="#999999" stroke="#666666" points="108.25,-74.5 5.25,-74.5 5.25,-55.25 108.25,-55.25 108.25,-74.5"/>
<text xml:space="preserve" text-anchor="middle" x="56.75" y="-61" font-family="Helvetica,sans-Serif" font-size="10.00">llvm::VPBasicBlock</text>
</a>
</g>
</g>
<!-- Node3 -->
<g id="Node000003" class="node">
<title>Node3</title>
<g id="a_Node000003"><a xlink:href="classllvm_1_1VPIRBasicBlock.html" target="_top" xlink:title="A special type of VPBasicBlock that wraps an existing IR basic block.">
<polygon fill="white" stroke="#666666" points="113.5,-19.25 0,-19.25 0,0 113.5,0 113.5,-19.25"/>
<text xml:space="preserve" text-anchor="middle" x="56.75" y="-5.75" font-family="Helvetica,sans-Serif" font-size="10.00">llvm::VPIRBasicBlock</text>
</a>
</g>
</g>
<!-- Node1&#45;&gt;Node3 -->
<g id="edge2_Node000001_Node000003" class="edge">
<title>Node1&#45;&gt;Node3</title>
<g id="a_edge2_Node000001_Node000003"><a xlink:title=" ">
<path fill="none" stroke="#63b8ff" d="M56.75,-43.63C56.75,-35.34 56.75,-26.17 56.75,-19.61"/>
<polygon fill="#63b8ff" stroke="#63b8ff" points="53.25,-43.57 56.75,-53.57 60.25,-43.57 53.25,-43.57"/>
</a>
</g>
</g>
<!-- Node2 -->
<g id="Node000002" class="node">
<title>Node2</title>
<g id="a_Node000002"><a xlink:href="classllvm_1_1VPBlockBase.html" target="_top" xlink:title="VPBlockBase is the building block of the Hierarchical Control&#45;Flow Graph.">
<polygon fill="white" stroke="#666666" points="107.12,-129.75 6.38,-129.75 6.38,-110.5 107.12,-110.5 107.12,-129.75"/>
<text xml:space="preserve" text-anchor="middle" x="56.75" y="-116.25" font-family="Helvetica,sans-Serif" font-size="10.00">llvm::VPBlockBase</text>
</a>
</g>
</g>
<!-- Node2&#45;&gt;Node1 -->
<g id="edge1_Node000001_Node000002" class="edge">
<title>Node2&#45;&gt;Node1</title>
<g id="a_edge1_Node000001_Node000002"><a xlink:title=" ">
<path fill="none" stroke="#63b8ff" d="M56.75,-98.88C56.75,-90.59 56.75,-81.42 56.75,-74.86"/>
<polygon fill="#63b8ff" stroke="#63b8ff" points="53.25,-98.82 56.75,-108.82 60.25,-98.82 53.25,-98.82"/>
</a>
</g>
</g>
</g>
</svg>
