<?xml version="1.0" encoding="UTF-8" standalone="no"?>
<!DOCTYPE svg PUBLIC "-//W3C//DTD SVG 1.1//EN"
 "http://www.w3.org/Graphics/SVG/1.1/DTD/svg11.dtd">
<!-- Generated by graphviz version 13.1.2 (20250808.2320)
 -->
<!-- Title: llvm::PPC64LinuxTargetObjectFile Pages: 1 -->
<svg width="174pt" height="204pt"
 viewBox="0.00 0.00 174.00 204.00" xmlns="http://www.w3.org/2000/svg" xmlns:xlink="http://www.w3.org/1999/xlink">
<g id="graph0" class="graph" transform="scale(1 1) rotate(0) translate(4 200.25)">
<title>llvm::PPC64LinuxTargetObjectFile</title>
<!-- Node1 -->
<g id="Node000001" class="node">
<title>Node1</title>
<g id="a_Node000001"><a xlink:title="PPC64LinuxTargetObjectFile &#45; This implementation is used for 64&#45;bit PowerPC Linux.">
<polygon fill="#999999" stroke="#666666" points="166,-19.25 0,-19.25 0,0 166,0 166,-19.25"/>
<text xml:space="preserve" text-anchor="middle" x="83" y="-5.75" font-family="Helvetica,sans-Serif" font-size="10.00">llvm::PPC64LinuxTargetObjectFile</text>
</a>
</g>
</g>
<!-- Node2 -->
<g id="Node000002" class="node">
<title>Node2</title>
<g id="a_Node000002"><a xlink:href="classllvm_1_1TargetLoweringObjectFileELF.html" target="_top" xlink:title=" ">
<polygon fill="white" stroke="#666666" points="150.25,-85.75 15.75,-85.75 15.75,-55.25 150.25,-55.25 150.25,-85.75"/>
<text xml:space="preserve" text-anchor="start" x="23.75" y="-72.25" font-family="Helvetica,sans-Serif" font-size="10.00">llvm::TargetLoweringObject</text>
<text xml:space="preserve" text-anchor="middle" x="83" y="-61" font-family="Helvetica,sans-Serif" font-size="10.00">FileELF</text>
</a>
</g>
</g>
<!-- Node2&#45;&gt;Node1 -->
<g id="edge1_Node000001_Node000002" class="edge">
<title>Node2&#45;&gt;Node1</title>
<g id="a_edge1_Node000001_Node000002"><a xlink:title=" ">
<path fill="none" stroke="#63b8ff" d="M83,-43.48C83,-34.98 83,-26.09 83,-19.7"/>
<polygon fill="#63b8ff" stroke="#63b8ff" points="79.5,-43.43 83,-53.43 86.5,-43.43 79.5,-43.43"/>
</a>
</g>
</g>
<!-- Node3 -->
<g id="Node000003" class="node">
<title>Node3</title>
<g id="a_Node000003"><a xlink:href="classllvm_1_1TargetLoweringObjectFile.html" target="_top" xlink:title=" ">
<polygon fill="white" stroke="#666666" points="158.12,-141 7.88,-141 7.88,-121.75 158.12,-121.75 158.12,-141"/>
<text xml:space="preserve" text-anchor="middle" x="83" y="-127.5" font-family="Helvetica,sans-Serif" font-size="10.00">llvm::TargetLoweringObjectFile</text>
</a>
</g>
</g>
<!-- Node3&#45;&gt;Node2 -->
<g id="edge2_Node000002_Node000003" class="edge">
<title>Node3&#45;&gt;Node2</title>
<g id="a_edge2_Node000002_Node000003"><a xlink:title=" ">
<path fill="none" stroke="#63b8ff" d="M83,-110.17C83,-102.24 83,-93.31 83,-86.03"/>
<polygon fill="#63b8ff" stroke="#63b8ff" points="79.5,-109.92 83,-119.92 86.5,-109.92 79.5,-109.92"/>
</a>
</g>
</g>
<!-- Node4 -->
<g id="Node000004" class="node">
<title>Node4</title>
<g id="a_Node000004"><a xlink:href="classllvm_1_1MCObjectFileInfo.html" target="_top" xlink:title=" ">
<polygon fill="white" stroke="#666666" points="141.25,-196.25 24.75,-196.25 24.75,-177 141.25,-177 141.25,-196.25"/>
<text xml:space="preserve" text-anchor="middle" x="83" y="-182.75" font-family="Helvetica,sans-Serif" font-size="10.00">llvm::MCObjectFileInfo</text>
</a>
</g>
</g>
<!-- Node4&#45;&gt;Node3 -->
<g id="edge3_Node000003_Node000004" class="edge">
<title>Node4&#45;&gt;Node3</title>
<g id="a_edge3_Node000003_Node000004"><a xlink:title=" ">
<path fill="none" stroke="#63b8ff" d="M83,-165.38C83,-157.09 83,-147.92 83,-141.36"/>
<polygon fill="#63b8ff" stroke="#63b8ff" points="79.5,-165.32 83,-175.32 86.5,-165.32 79.5,-165.32"/>
</a>
</g>
</g>
</g>
</svg>
