<?xml version="1.0" encoding="UTF-8" standalone="no"?>
<!DOCTYPE svg PUBLIC "-//W3C//DTD SVG 1.1//EN"
 "http://www.w3.org/Graphics/SVG/1.1/DTD/svg11.dtd">
<!-- Generated by graphviz version 13.1.2 (20250808.2320)
 -->
<!-- Title: llvm::orc::ObjectTransformLayer Pages: 1 -->
<svg width="283pt" height="273pt"
 viewBox="0.00 0.00 283.00 273.00" xmlns="http://www.w3.org/2000/svg" xmlns:xlink="http://www.w3.org/1999/xlink">
<g id="graph0" class="graph" transform="scale(1 1) rotate(0) translate(4 268.5)">
<title>llvm::orc::ObjectTransformLayer</title>
<!-- Node1 -->
<g id="Node000001" class="node">
<title>Node1</title>
<g id="a_Node000001"><a xlink:title=" ">
<polygon fill="#999999" stroke="#666666" points="162.38,-30.5 30.12,-30.5 30.12,0 162.38,0 162.38,-30.5"/>
<text xml:space="preserve" text-anchor="start" x="38.12" y="-17" font-family="Helvetica,sans-Serif" font-size="10.00">llvm::orc::ObjectTransform</text>
<text xml:space="preserve" text-anchor="middle" x="96.25" y="-5.75" font-family="Helvetica,sans-Serif" font-size="10.00">Layer</text>
</a>
</g>
</g>
<!-- Node2 -->
<g id="Node000002" class="node">
<title>Node2</title>
<g id="a_Node000002"><a xlink:href="classllvm_1_1RTTIExtends.html" target="_top" xlink:title=" ">
<polygon fill="white" stroke="#666666" points="155.25,-109.25 37.25,-109.25 37.25,-67.5 155.25,-67.5 155.25,-109.25"/>
<text xml:space="preserve" text-anchor="start" x="45.25" y="-95.75" font-family="Helvetica,sans-Serif" font-size="10.00">llvm::RTTIExtends&lt;</text>
<text xml:space="preserve" text-anchor="start" x="45.25" y="-84.5" font-family="Helvetica,sans-Serif" font-size="10.00"> ObjectTransformLayer,</text>
<text xml:space="preserve" text-anchor="middle" x="96.25" y="-73.25" font-family="Helvetica,sans-Serif" font-size="10.00"> ObjectLayer &gt;</text>
</a>
</g>
</g>
<!-- Node2&#45;&gt;Node1 -->
<g id="edge1_Node000001_Node000002" class="edge">
<title>Node2&#45;&gt;Node1</title>
<g id="a_edge1_Node000001_Node000002"><a xlink:title=" ">
<path fill="none" stroke="#63b8ff" d="M96.25,-55.95C96.25,-47.11 96.25,-37.92 96.25,-30.62"/>
<polygon fill="#63b8ff" stroke="#63b8ff" points="92.75,-55.67 96.25,-65.67 99.75,-55.67 92.75,-55.67"/>
</a>
</g>
</g>
<!-- Node3 -->
<g id="Node000003" class="node">
<title>Node3</title>
<g id="a_Node000003"><a xlink:title=" ">
<polygon fill="white" stroke="#666666" points="68.5,-202.62 0,-202.62 0,-183.38 68.5,-183.38 68.5,-202.62"/>
<text xml:space="preserve" text-anchor="middle" x="34.25" y="-189.12" font-family="Helvetica,sans-Serif" font-size="10.00">ObjectLayer</text>
</a>
</g>
</g>
<!-- Node3&#45;&gt;Node2 -->
<g id="edge2_Node000002_Node000003" class="edge">
<title>Node3&#45;&gt;Node2</title>
<g id="a_edge2_Node000002_Node000003"><a xlink:title=" ">
<path fill="none" stroke="#63b8ff" d="M45.59,-173.22C56.5,-155.17 72.93,-127.97 84.1,-109.48"/>
<polygon fill="#63b8ff" stroke="#63b8ff" points="42.71,-171.23 40.53,-181.6 48.7,-174.85 42.71,-171.23"/>
</a>
</g>
</g>
<!-- Node4 -->
<g id="Node000004" class="node">
<title>Node4</title>
<g id="a_Node000004"><a xlink:title=" ">
<polygon fill="white" stroke="#666666" points="137.88,-264.5 74.62,-264.5 74.62,-245.25 137.88,-245.25 137.88,-264.5"/>
<text xml:space="preserve" text-anchor="middle" x="106.25" y="-251" font-family="Helvetica,sans-Serif" font-size="10.00">ParentTs...</text>
</a>
</g>
</g>
<!-- Node4&#45;&gt;Node2 -->
<g id="edge3_Node000002_Node000004" class="edge">
<title>Node4&#45;&gt;Node2</title>
<g id="a_edge3_Node000002_Node000004"><a xlink:title=" ">
<path fill="none" stroke="#63b8ff" d="M105.03,-233.82C103.11,-202.29 99.42,-141.46 97.49,-109.74"/>
<polygon fill="#63b8ff" stroke="#63b8ff" points="101.52,-233.75 105.62,-243.52 108.51,-233.33 101.52,-233.75"/>
</a>
</g>
</g>
<!-- Node5 -->
<g id="Node000005" class="node">
<title>Node5</title>
<g id="a_Node000005"><a xlink:href="classllvm_1_1RTTIExtends.html" target="_top" xlink:title="Inheritance utility for extensible RTTI.">
<polygon fill="white" stroke="#666666" points="258.5,-208.25 124,-208.25 124,-177.75 258.5,-177.75 258.5,-208.25"/>
<text xml:space="preserve" text-anchor="start" x="132" y="-194.75" font-family="Helvetica,sans-Serif" font-size="10.00">llvm::RTTIExtends&lt;</text>
<text xml:space="preserve" text-anchor="middle" x="191.25" y="-183.5" font-family="Helvetica,sans-Serif" font-size="10.00"> ThisT, ParentT, ParentTs &gt;</text>
</a>
</g>
</g>
<!-- Node4&#45;&gt;Node5 -->
<g id="edge6_Node000005_Node000004" class="edge">
<title>Node4&#45;&gt;Node5</title>
<g id="a_edge6_Node000005_Node000004"><a xlink:title=" ">
<path fill="none" stroke="#63b8ff" d="M128.37,-238.3C141.41,-229.11 157.82,-217.55 170.6,-208.55"/>
<polygon fill="#63b8ff" stroke="#63b8ff" points="126.56,-235.29 120.4,-243.91 130.59,-241.01 126.56,-235.29"/>
</a>
</g>
</g>
<!-- Node5&#45;&gt;Node2 -->
<g id="edge4_Node000002_Node000005" class="edge">
<title>Node5&#45;&gt;Node2</title>
<g id="a_edge4_Node000002_Node000005"><a xlink:title=" ">
<path fill="none" stroke="orange" stroke-dasharray="5,2" d="M170.1,-169.15C153.62,-151.35 130.94,-126.85 115.08,-109.71"/>
<polygon fill="orange" stroke="orange" points="167.25,-171.22 176.61,-176.19 172.39,-166.47 167.25,-171.22"/>
</a>
</g>
<text xml:space="preserve" text-anchor="start" x="163.52" y="-147.25" font-family="Helvetica,sans-Serif" font-size="10.00" fill="grey">&lt; ObjectTransformLayer,</text>
<text xml:space="preserve" text-anchor="start" x="163.52" y="-132" font-family="Helvetica,sans-Serif" font-size="10.00" fill="grey">   ObjectLayer &gt;</text>
</g>
<!-- Node6 -->
<g id="Node000006" class="node">
<title>Node6</title>
<g id="a_Node000006"><a xlink:href="classParentT.html" target="_top" xlink:title=" ">
<polygon fill="white" stroke="#666666" points="216.5,-264.5 166,-264.5 166,-245.25 216.5,-245.25 216.5,-264.5"/>
<text xml:space="preserve" text-anchor="middle" x="191.25" y="-251" font-family="Helvetica,sans-Serif" font-size="10.00">ParentT</text>
</a>
</g>
</g>
<!-- Node6&#45;&gt;Node5 -->
<g id="edge5_Node000005_Node000006" class="edge">
<title>Node6&#45;&gt;Node5</title>
<g id="a_edge5_Node000005_Node000006"><a xlink:title=" ">
<path fill="none" stroke="#63b8ff" d="M191.25,-233.44C191.25,-225.18 191.25,-215.84 191.25,-208.32"/>
<polygon fill="#63b8ff" stroke="#63b8ff" points="187.75,-233.27 191.25,-243.27 194.75,-233.27 187.75,-233.27"/>
</a>
</g>
</g>
</g>
</svg>
