<?xml version="1.0" encoding="UTF-8" standalone="no"?>
<!DOCTYPE svg PUBLIC "-//W3C//DTD SVG 1.1//EN"
 "http://www.w3.org/Graphics/SVG/1.1/DTD/svg11.dtd">
<!-- Generated by graphviz version 13.1.2 (20250808.2320)
 -->
<!-- Title: llvm::DominanceFrontierAnalysis Pages: 1 -->
<svg width="975pt" height="90pt"
 viewBox="0.00 0.00 975.00 90.00" xmlns="http://www.w3.org/2000/svg" xmlns:xlink="http://www.w3.org/1999/xlink">
<g id="graph0" class="graph" transform="scale(1 1) rotate(0) translate(4 85.5)">
<title>llvm::DominanceFrontierAnalysis</title>
<!-- Node1 -->
<g id="Node000001" class="node">
<title>Node1</title>
<g id="a_Node000001"><a xlink:title="Analysis pass which computes a DominanceFrontier.">
<polygon fill="#999999" stroke="#666666" points="967.25,-48.88 807.25,-48.88 807.25,-29.62 967.25,-29.62 967.25,-48.88"/>
<text xml:space="preserve" text-anchor="middle" x="887.25" y="-35.38" font-family="Helvetica,sans-Serif" font-size="10.00">llvm::DominanceFrontierAnalysis</text>
</a>
</g>
</g>
<!-- Node2 -->
<g id="Node000002" class="node">
<title>Node2</title>
<g id="a_Node000002"><a xlink:href="structllvm_1_1AnalysisInfoMixin.html" target="_top" xlink:title=" ">
<polygon fill="white" stroke="#666666" points="770.25,-54.5 616.25,-54.5 616.25,-24 770.25,-24 770.25,-54.5"/>
<text xml:space="preserve" text-anchor="start" x="624.25" y="-41" font-family="Helvetica,sans-Serif" font-size="10.00">llvm::AnalysisInfoMixin</text>
<text xml:space="preserve" text-anchor="middle" x="693.25" y="-29.75" font-family="Helvetica,sans-Serif" font-size="10.00">&lt; DominanceFrontierAnalysis &gt;</text>
</a>
</g>
</g>
<!-- Node2&#45;&gt;Node1 -->
<g id="edge1_Node000001_Node000002" class="edge">
<title>Node2&#45;&gt;Node1</title>
<g id="a_edge1_Node000001_Node000002"><a xlink:title=" ">
<path fill="none" stroke="#63b8ff" d="M781.96,-39.25C790.29,-39.25 798.69,-39.25 806.93,-39.25"/>
<polygon fill="#63b8ff" stroke="#63b8ff" points="782.2,-35.75 772.2,-39.25 782.2,-42.75 782.2,-35.75"/>
</a>
</g>
</g>
<!-- Node3 -->
<g id="Node000003" class="node">
<title>Node3</title>
<g id="a_Node000003"><a xlink:href="structllvm_1_1PassInfoMixin.html" target="_top" xlink:title=" ">
<polygon fill="white" stroke="#666666" points="436.25,-79.5 282.25,-79.5 282.25,-49 436.25,-49 436.25,-79.5"/>
<text xml:space="preserve" text-anchor="start" x="290.25" y="-66" font-family="Helvetica,sans-Serif" font-size="10.00">llvm::PassInfoMixin</text>
<text xml:space="preserve" text-anchor="middle" x="359.25" y="-54.75" font-family="Helvetica,sans-Serif" font-size="10.00">&lt; DominanceFrontierAnalysis &gt;</text>
</a>
</g>
</g>
<!-- Node3&#45;&gt;Node2 -->
<g id="edge2_Node000002_Node000003" class="edge">
<title>Node3&#45;&gt;Node2</title>
<g id="a_edge2_Node000002_Node000003"><a xlink:title=" ">
<path fill="none" stroke="#63b8ff" d="M447.69,-57.67C499.95,-53.73 565.7,-48.78 615.86,-45"/>
<polygon fill="#63b8ff" stroke="#63b8ff" points="447.64,-54.16 437.93,-58.4 448.16,-61.14 447.64,-54.16"/>
</a>
</g>
</g>
<!-- Node4 -->
<g id="Node000004" class="node">
<title>Node4</title>
<g id="a_Node000004"><a xlink:href="structllvm_1_1PassInfoMixin.html" target="_top" xlink:title="A CRTP mix&#45;in to automatically provide informational APIs needed for passes.">
<polygon fill="white" stroke="#666666" points="102.25,-79.5 0,-79.5 0,-49 102.25,-49 102.25,-79.5"/>
<text xml:space="preserve" text-anchor="start" x="8" y="-66" font-family="Helvetica,sans-Serif" font-size="10.00">llvm::PassInfoMixin</text>
<text xml:space="preserve" text-anchor="middle" x="51.12" y="-54.75" font-family="Helvetica,sans-Serif" font-size="10.00">&lt; DerivedT &gt;</text>
</a>
</g>
</g>
<!-- Node4&#45;&gt;Node3 -->
<g id="edge3_Node000003_Node000004" class="edge">
<title>Node4&#45;&gt;Node3</title>
<g id="a_edge3_Node000003_Node000004"><a xlink:title=" ">
<path fill="none" stroke="orange" stroke-dasharray="5,2" d="M113.93,-64.25C162.36,-64.25 229.97,-64.25 281.8,-64.25"/>
<polygon fill="orange" stroke="orange" points="114.19,-60.75 104.19,-64.25 114.19,-67.75 114.19,-60.75"/>
</a>
</g>
<text xml:space="preserve" text-anchor="start" x="123.25" y="-69" font-family="Helvetica,sans-Serif" font-size="10.00" fill="grey">&lt; DominanceFrontierAnalysis &gt;</text>
</g>
<!-- Node5 -->
<g id="Node000005" class="node">
<title>Node5</title>
<g id="a_Node000005"><a xlink:href="structllvm_1_1AnalysisInfoMixin.html" target="_top" xlink:title="A CRTP mix&#45;in that provides informational APIs needed for analysis passes.">
<polygon fill="white" stroke="#666666" points="417.88,-30.5 300.62,-30.5 300.62,0 417.88,0 417.88,-30.5"/>
<text xml:space="preserve" text-anchor="start" x="308.62" y="-17" font-family="Helvetica,sans-Serif" font-size="10.00">llvm::AnalysisInfoMixin</text>
<text xml:space="preserve" text-anchor="middle" x="359.25" y="-5.75" font-family="Helvetica,sans-Serif" font-size="10.00">&lt; DerivedT &gt;</text>
</a>
</g>
</g>
<!-- Node5&#45;&gt;Node2 -->
<g id="edge4_Node000002_Node000005" class="edge">
<title>Node5&#45;&gt;Node2</title>
<g id="a_edge4_Node000002_Node000005"><a xlink:title=" ">
<path fill="none" stroke="orange" stroke-dasharray="5,2" d="M429.43,-17.76C476.97,-19.77 541.5,-23.09 598.25,-28 603.98,-28.5 609.9,-29.07 615.85,-29.68"/>
<polygon fill="orange" stroke="orange" points="429.68,-14.26 419.55,-17.35 429.39,-21.26 429.68,-14.26"/>
</a>
</g>
<text xml:space="preserve" text-anchor="start" x="457.25" y="-32.75" font-family="Helvetica,sans-Serif" font-size="10.00" fill="grey">&lt; DominanceFrontierAnalysis &gt;</text>
</g>
<!-- Node6 -->
<g id="Node000006" class="node">
<title>Node6</title>
<g id="a_Node000006"><a xlink:href="structllvm_1_1PassInfoMixin.html" target="_top" xlink:title="A CRTP mix&#45;in to automatically provide informational APIs needed for passes.">
<polygon fill="white" stroke="#666666" points="102.25,-30.5 0,-30.5 0,0 102.25,0 102.25,-30.5"/>
<text xml:space="preserve" text-anchor="start" x="8" y="-17" font-family="Helvetica,sans-Serif" font-size="10.00">llvm::PassInfoMixin</text>
<text xml:space="preserve" text-anchor="middle" x="51.12" y="-5.75" font-family="Helvetica,sans-Serif" font-size="10.00">&lt; DerivedT &gt;</text>
</a>
</g>
</g>
<!-- Node6&#45;&gt;Node5 -->
<g id="edge5_Node000005_Node000006" class="edge">
<title>Node6&#45;&gt;Node5</title>
<g id="a_edge5_Node000005_Node000006"><a xlink:title=" ">
<path fill="none" stroke="#63b8ff" d="M113.91,-15.25C168.34,-15.25 247.05,-15.25 300.31,-15.25"/>
<polygon fill="#63b8ff" stroke="#63b8ff" points="114.19,-11.75 104.19,-15.25 114.19,-18.75 114.19,-11.75"/>
</a>
</g>
</g>
</g>
</svg>
