<?xml version="1.0" encoding="UTF-8" standalone="no"?>
<!DOCTYPE svg PUBLIC "-//W3C//DTD SVG 1.1//EN"
 "http://www.w3.org/Graphics/SVG/1.1/DTD/svg11.dtd">
<!-- Generated by graphviz version 13.1.2 (20250808.2320)
 -->
<!-- Title: llvm::orc::shared::detail::WrapperFunctionHandlerHelper&lt; WrapperFunctionImplT, ResultSerializer, SPSTagTs &gt; Pages: 1 -->
<svg width="735pt" height="280pt"
 viewBox="0.00 0.00 735.00 280.00" xmlns="http://www.w3.org/2000/svg" xmlns:xlink="http://www.w3.org/1999/xlink">
<g id="graph0" class="graph" transform="scale(1 1) rotate(0) translate(4 276.19)">
<title>llvm::orc::shared::detail::WrapperFunctionHandlerHelper&lt; WrapperFunctionImplT, ResultSerializer, SPSTagTs &gt;</title>
<!-- Node1 -->
<g id="Node000001" class="node">
<title>Node1</title>
<g id="a_Node000001"><a xlink:title=" ">
<polygon fill="#999999" stroke="#666666" points="153.25,-144 0,-144 0,-91 153.25,-91 153.25,-144"/>
<text xml:space="preserve" text-anchor="start" x="8" y="-130.5" font-family="Helvetica,sans-Serif" font-size="10.00">llvm::orc::shared::</text>
<text xml:space="preserve" text-anchor="start" x="8" y="-119.25" font-family="Helvetica,sans-Serif" font-size="10.00">detail::WrapperFunctionHandler</text>
<text xml:space="preserve" text-anchor="start" x="8" y="-108" font-family="Helvetica,sans-Serif" font-size="10.00">Helper&lt; WrapperFunctionImplT,</text>
<text xml:space="preserve" text-anchor="middle" x="76.62" y="-96.75" font-family="Helvetica,sans-Serif" font-size="10.00"> ResultSerializer, SPSTagTs &gt;</text>
</a>
</g>
</g>
<!-- Node2 -->
<g id="Node000002" class="node">
<title>Node2</title>
<g id="a_Node000002"><a xlink:href="classllvm_1_1orc_1_1shared_1_1detail_1_1WrapperFunctionHandlerHelper_3_01RetT_07_5_08_07ArgTs_8_c21b2933515a513181e2be47352c875d.html" target="_top" xlink:title=" ">
<polygon fill="white" stroke="#666666" points="712,-236 555,-236 555,-183 712,-183 712,-236"/>
<text xml:space="preserve" text-anchor="start" x="563" y="-222.5" font-family="Helvetica,sans-Serif" font-size="10.00">llvm::orc::shared::</text>
<text xml:space="preserve" text-anchor="start" x="563" y="-211.25" font-family="Helvetica,sans-Serif" font-size="10.00">detail::WrapperFunctionHandler</text>
<text xml:space="preserve" text-anchor="start" x="563" y="-200" font-family="Helvetica,sans-Serif" font-size="10.00">Helper&lt; RetT(*)(ArgTs...),</text>
<text xml:space="preserve" text-anchor="middle" x="633.5" y="-188.75" font-family="Helvetica,sans-Serif" font-size="10.00"> ResultSerializer, SPSTagTs... &gt;</text>
</a>
</g>
</g>
<!-- Node1&#45;&gt;Node2 -->
<g id="edge1_Node000001_Node000002" class="edge">
<title>Node1&#45;&gt;Node2</title>
<g id="a_edge1_Node000001_Node000002"><a xlink:title=" ">
<path fill="none" stroke="orange" stroke-dasharray="5,2" d="M116.4,-151.42C132.36,-163.55 151.68,-176.04 171.25,-183.5 298.85,-232.13 460.73,-227.58 554.86,-219.07"/>
<polygon fill="orange" stroke="orange" points="118.64,-148.73 108.61,-145.3 114.31,-154.23 118.64,-148.73"/>
</a>
</g>
<text xml:space="preserve" text-anchor="start" x="365.25" y="-259.69" font-family="Helvetica,sans-Serif" font-size="10.00" fill="grey">&lt; RetT(*)(ArgTs...)</text>
<text xml:space="preserve" text-anchor="start" x="365.25" y="-244.44" font-family="Helvetica,sans-Serif" font-size="10.00" fill="grey">  , ResultSerializer,</text>
<text xml:space="preserve" text-anchor="start" x="365.25" y="-229.19" font-family="Helvetica,sans-Serif" font-size="10.00" fill="grey">   SPSTagTs... &gt;</text>
</g>
<!-- Node3 -->
<g id="Node000003" class="node">
<title>Node3</title>
<g id="a_Node000003"><a xlink:href="classllvm_1_1orc_1_1shared_1_1detail_1_1WrapperFunctionHandlerHelper_3_01RetT_07ArgTs_8_8_8_08_0e12912da8e50f06e0b98329255e1e0d9.html" target="_top" xlink:title=" ">
<polygon fill="white" stroke="#666666" points="503,-190 310.75,-190 310.75,-137 503,-137 503,-190"/>
<text xml:space="preserve" text-anchor="start" x="318.75" y="-176.5" font-family="Helvetica,sans-Serif" font-size="10.00">llvm::orc::shared::</text>
<text xml:space="preserve" text-anchor="start" x="318.75" y="-165.25" font-family="Helvetica,sans-Serif" font-size="10.00">detail::WrapperFunctionHandler</text>
<text xml:space="preserve" text-anchor="start" x="318.75" y="-154" font-family="Helvetica,sans-Serif" font-size="10.00">Helper&lt; RetT(ArgTs...), ResultSerializer,</text>
<text xml:space="preserve" text-anchor="middle" x="406.88" y="-142.75" font-family="Helvetica,sans-Serif" font-size="10.00"> SPSTagTs... &gt;</text>
</a>
</g>
</g>
<!-- Node1&#45;&gt;Node3 -->
<g id="edge2_Node000001_Node000003" class="edge">
<title>Node1&#45;&gt;Node3</title>
<g id="a_edge2_Node000001_Node000003"><a xlink:title=" ">
<path fill="none" stroke="orange" stroke-dasharray="5,2" d="M164.54,-129.68C209.49,-135.98 264.43,-143.68 310.54,-150.14"/>
<polygon fill="orange" stroke="orange" points="165.23,-126.24 154.84,-128.32 164.26,-133.18 165.23,-126.24"/>
</a>
</g>
<text xml:space="preserve" text-anchor="start" x="174.25" y="-167.31" font-family="Helvetica,sans-Serif" font-size="10.00" fill="grey">&lt; RetT(ArgTs...), Result</text>
<text xml:space="preserve" text-anchor="start" x="174.25" y="-152.06" font-family="Helvetica,sans-Serif" font-size="10.00" fill="grey">  Serializer, SPSTagTs... &gt;</text>
</g>
<!-- Node4 -->
<g id="Node000004" class="node">
<title>Node4</title>
<g id="a_Node000004"><a xlink:href="classllvm_1_1orc_1_1shared_1_1detail_1_1WrapperFunctionHandlerHelper_3_01RetT_07ClassT_1_1_5_08_eb80b899f2d9fa1cf65e081ab15ea82d.html" target="_top" xlink:title=" ">
<polygon fill="white" stroke="#666666" points="727,-156 540,-156 540,-103 727,-103 727,-156"/>
<text xml:space="preserve" text-anchor="start" x="548" y="-142.5" font-family="Helvetica,sans-Serif" font-size="10.00">llvm::orc::shared::</text>
<text xml:space="preserve" text-anchor="start" x="548" y="-131.25" font-family="Helvetica,sans-Serif" font-size="10.00">detail::WrapperFunctionHandler</text>
<text xml:space="preserve" text-anchor="start" x="548" y="-120" font-family="Helvetica,sans-Serif" font-size="10.00">Helper&lt; RetT(ClassT::*)(ArgTs...)</text>
<text xml:space="preserve" text-anchor="middle" x="633.5" y="-108.75" font-family="Helvetica,sans-Serif" font-size="10.00"> const, ResultSerializer, SPSTagTs... &gt;</text>
</a>
</g>
</g>
<!-- Node1&#45;&gt;Node4 -->
<g id="edge6_Node000001_Node000004" class="edge">
<title>Node1&#45;&gt;Node4</title>
<g id="a_edge6_Node000001_Node000004"><a xlink:title=" ">
<path fill="none" stroke="orange" stroke-dasharray="5,2" d="M164.57,-96.59C250.99,-78.94 387.02,-59.64 503,-80.75 527.11,-85.14 552.56,-93.77 574.46,-102.56"/>
<polygon fill="orange" stroke="orange" points="164.05,-93.12 154.98,-98.59 165.48,-99.98 164.05,-93.12"/>
</a>
</g>
<text xml:space="preserve" text-anchor="start" x="348.75" y="-116" font-family="Helvetica,sans-Serif" font-size="10.00" fill="grey">&lt; RetT(ClassT::*)(ArgTs...)</text>
<text xml:space="preserve" text-anchor="start" x="348.75" y="-100.75" font-family="Helvetica,sans-Serif" font-size="10.00" fill="grey">   const, ResultSerializer,</text>
<text xml:space="preserve" text-anchor="start" x="348.75" y="-85.5" font-family="Helvetica,sans-Serif" font-size="10.00" fill="grey">   SPSTagTs... &gt;</text>
</g>
<!-- Node5 -->
<g id="Node000005" class="node">
<title>Node5</title>
<g id="a_Node000005"><a xlink:href="classllvm_1_1orc_1_1shared_1_1detail_1_1WrapperFunctionHandlerHelper_3_01RetT_07ClassT_1_1_5_08_cf32a35d90a29aa3d78c4400422ddcd9.html" target="_top" xlink:title=" ">
<polygon fill="white" stroke="#666666" points="713.88,-53 553.12,-53 553.12,0 713.88,0 713.88,-53"/>
<text xml:space="preserve" text-anchor="start" x="561.12" y="-39.5" font-family="Helvetica,sans-Serif" font-size="10.00">llvm::orc::shared::</text>
<text xml:space="preserve" text-anchor="start" x="561.12" y="-28.25" font-family="Helvetica,sans-Serif" font-size="10.00">detail::WrapperFunctionHandler</text>
<text xml:space="preserve" text-anchor="start" x="561.12" y="-17" font-family="Helvetica,sans-Serif" font-size="10.00">Helper&lt; RetT(ClassT::*)(ArgTs...)</text>
<text xml:space="preserve" text-anchor="middle" x="633.5" y="-5.75" font-family="Helvetica,sans-Serif" font-size="10.00">, ResultSerializer, SPSTagTs... &gt;</text>
</a>
</g>
</g>
<!-- Node1&#45;&gt;Node5 -->
<g id="edge7_Node000001_Node000005" class="edge">
<title>Node1&#45;&gt;Node5</title>
<g id="a_edge7_Node000001_Node000005"><a xlink:title=" ">
<path fill="none" stroke="orange" stroke-dasharray="5,2" d="M139.63,-85.73C150.05,-80.96 160.85,-76.36 171.25,-72.5 231.44,-50.16 247.22,-44.25 310.75,-35 392.59,-23.09 487.34,-22.11 552.72,-23.4"/>
<polygon fill="orange" stroke="orange" points="138.32,-82.47 130.74,-89.88 141.28,-88.82 138.32,-82.47"/>
</a>
</g>
<text xml:space="preserve" text-anchor="start" x="331.88" y="-55" font-family="Helvetica,sans-Serif" font-size="10.00" fill="grey">&lt; RetT(ClassT::*)(ArgTs...)</text>
<text xml:space="preserve" text-anchor="start" x="331.88" y="-39.75" font-family="Helvetica,sans-Serif" font-size="10.00" fill="grey">  , ResultSerializer, SPSTagTs... &gt;</text>
</g>
<!-- Node3&#45;&gt;Node2 -->
<g id="edge3_Node000003_Node000002" class="edge">
<title>Node3&#45;&gt;Node2</title>
<g id="a_edge3_Node000003_Node000002"><a xlink:title=" ">
<path fill="none" stroke="#63b8ff" d="M514.73,-185.38C528.19,-188.14 541.75,-190.92 554.64,-193.56"/>
<polygon fill="#63b8ff" stroke="#63b8ff" points="515.44,-181.96 504.94,-183.38 514.04,-188.81 515.44,-181.96"/>
</a>
</g>
</g>
<!-- Node3&#45;&gt;Node4 -->
<g id="edge4_Node000003_Node000004" class="edge">
<title>Node3&#45;&gt;Node4</title>
<g id="a_edge4_Node000003_Node000004"><a xlink:title=" ">
<path fill="none" stroke="#63b8ff" d="M514.72,-147.33C523,-146.07 531.32,-144.81 539.5,-143.58"/>
<polygon fill="#63b8ff" stroke="#63b8ff" points="514.32,-143.85 504.96,-148.81 515.37,-150.77 514.32,-143.85"/>
</a>
</g>
</g>
<!-- Node3&#45;&gt;Node5 -->
<g id="edge5_Node000003_Node000005" class="edge">
<title>Node3&#45;&gt;Node5</title>
<g id="a_edge5_Node000003_Node000005"><a xlink:title=" ">
<path fill="none" stroke="#63b8ff" d="M488.02,-131.66C493.16,-129.05 498.2,-126.32 503,-123.5 521.01,-112.91 523.36,-107.13 540,-94.5 558.1,-80.76 578.42,-65.77 595.4,-53.37"/>
<polygon fill="#63b8ff" stroke="#63b8ff" points="486.84,-128.34 479.39,-135.87 489.91,-134.63 486.84,-128.34"/>
</a>
</g>
</g>
</g>
</svg>
