<?xml version="1.0" encoding="UTF-8" standalone="no"?>
<!DOCTYPE svg PUBLIC "-//W3C//DTD SVG 1.1//EN"
 "http://www.w3.org/Graphics/SVG/1.1/DTD/svg11.dtd">
<!-- Generated by graphviz version 13.1.2 (20250808.2320)
 -->
<!-- Title: llvm::MipsTargetStreamer Pages: 1 -->
<svg width="320pt" height="138pt"
 viewBox="0.00 0.00 320.00 138.00" xmlns="http://www.w3.org/2000/svg" xmlns:xlink="http://www.w3.org/1999/xlink">
<g id="graph0" class="graph" transform="scale(1 1) rotate(0) translate(4 133.75)">
<title>llvm::MipsTargetStreamer</title>
<!-- Node1 -->
<g id="Node000001" class="node">
<title>Node1</title>
<g id="a_Node000001"><a xlink:title=" ">
<polygon fill="#999999" stroke="#666666" points="219.88,-74.5 92.12,-74.5 92.12,-55.25 219.88,-55.25 219.88,-74.5"/>
<text xml:space="preserve" text-anchor="middle" x="156" y="-61" font-family="Helvetica,sans-Serif" font-size="10.00">llvm::MipsTargetStreamer</text>
</a>
</g>
</g>
<!-- Node3 -->
<g id="Node000003" class="node">
<title>Node3</title>
<g id="a_Node000003"><a xlink:href="classllvm_1_1MipsTargetAsmStreamer.html" target="_top" xlink:title=" ">
<polygon fill="white" stroke="#666666" points="148,-19.25 0,-19.25 0,0 148,0 148,-19.25"/>
<text xml:space="preserve" text-anchor="middle" x="74" y="-5.75" font-family="Helvetica,sans-Serif" font-size="10.00">llvm::MipsTargetAsmStreamer</text>
</a>
</g>
</g>
<!-- Node1&#45;&gt;Node3 -->
<g id="edge2_Node000001_Node000003" class="edge">
<title>Node1&#45;&gt;Node3</title>
<g id="a_edge2_Node000001_Node000003"><a xlink:title=" ">
<path fill="none" stroke="#63b8ff" d="M132.79,-48.8C118.35,-39.42 100.25,-27.67 87.98,-19.7"/>
<polygon fill="#63b8ff" stroke="#63b8ff" points="130.53,-51.51 140.82,-54.02 134.34,-45.64 130.53,-51.51"/>
</a>
</g>
</g>
<!-- Node4 -->
<g id="Node000004" class="node">
<title>Node4</title>
<g id="a_Node000004"><a xlink:href="classllvm_1_1MipsTargetELFStreamer.html" target="_top" xlink:title=" ">
<polygon fill="white" stroke="#666666" points="311.88,-19.25 166.12,-19.25 166.12,0 311.88,0 311.88,-19.25"/>
<text xml:space="preserve" text-anchor="middle" x="239" y="-5.75" font-family="Helvetica,sans-Serif" font-size="10.00">llvm::MipsTargetELFStreamer</text>
</a>
</g>
</g>
<!-- Node1&#45;&gt;Node4 -->
<g id="edge3_Node000001_Node000004" class="edge">
<title>Node1&#45;&gt;Node4</title>
<g id="a_edge3_Node000001_Node000004"><a xlink:title=" ">
<path fill="none" stroke="#63b8ff" d="M179.49,-48.8C194.11,-39.42 212.43,-27.67 224.85,-19.7"/>
<polygon fill="#63b8ff" stroke="#63b8ff" points="177.88,-45.68 171.35,-54.02 181.66,-51.57 177.88,-45.68"/>
</a>
</g>
</g>
<!-- Node2 -->
<g id="Node000002" class="node">
<title>Node2</title>
<g id="a_Node000002"><a xlink:href="classllvm_1_1MCTargetStreamer.html" target="_top" xlink:title="Target specific streamer interface.">
<polygon fill="white" stroke="#666666" points="217.25,-129.75 94.75,-129.75 94.75,-110.5 217.25,-110.5 217.25,-129.75"/>
<text xml:space="preserve" text-anchor="middle" x="156" y="-116.25" font-family="Helvetica,sans-Serif" font-size="10.00">llvm::MCTargetStreamer</text>
</a>
</g>
</g>
<!-- Node2&#45;&gt;Node1 -->
<g id="edge1_Node000001_Node000002" class="edge">
<title>Node2&#45;&gt;Node1</title>
<g id="a_edge1_Node000001_Node000002"><a xlink:title=" ">
<path fill="none" stroke="#63b8ff" d="M156,-98.88C156,-90.59 156,-81.42 156,-74.86"/>
<polygon fill="#63b8ff" stroke="#63b8ff" points="152.5,-98.82 156,-108.82 159.5,-98.82 152.5,-98.82"/>
</a>
</g>
</g>
</g>
</svg>
