<?xml version="1.0" encoding="UTF-8" standalone="no"?>
<!DOCTYPE svg PUBLIC "-//W3C//DTD SVG 1.1//EN"
 "http://www.w3.org/Graphics/SVG/1.1/DTD/svg11.dtd">
<!-- Generated by graphviz version 13.1.2 (20250808.2320)
 -->
<!-- Title: llvm::orc::GenericNamedTask Pages: 1 -->
<svg width="247pt" height="318pt"
 viewBox="0.00 0.00 247.00 318.00" xmlns="http://www.w3.org/2000/svg" xmlns:xlink="http://www.w3.org/1999/xlink">
<g id="graph0" class="graph" transform="scale(1 1) rotate(0) translate(4 313.5)">
<title>llvm::orc::GenericNamedTask</title>
<!-- Node1 -->
<g id="Node000001" class="node">
<title>Node1</title>
<g id="a_Node000001"><a xlink:title="Base class for generic tasks.">
<polygon fill="#999999" stroke="#666666" points="145.75,-86.75 0,-86.75 0,-67.5 145.75,-67.5 145.75,-86.75"/>
<text xml:space="preserve" text-anchor="middle" x="72.88" y="-73.25" font-family="Helvetica,sans-Serif" font-size="10.00">llvm::orc::GenericNamedTask</text>
</a>
</g>
</g>
<!-- Node7 -->
<g id="Node000007" class="node">
<title>Node7</title>
<g id="a_Node000007"><a xlink:href="classllvm_1_1orc_1_1GenericNamedTaskImpl.html" target="_top" xlink:title="Generic task implementation.">
<polygon fill="white" stroke="#666666" points="145.75,-30.5 0,-30.5 0,0 145.75,0 145.75,-30.5"/>
<text xml:space="preserve" text-anchor="start" x="8" y="-17" font-family="Helvetica,sans-Serif" font-size="10.00">llvm::orc::GenericNamedTask</text>
<text xml:space="preserve" text-anchor="middle" x="72.88" y="-5.75" font-family="Helvetica,sans-Serif" font-size="10.00">Impl&lt; FnT &gt;</text>
</a>
</g>
</g>
<!-- Node1&#45;&gt;Node7 -->
<g id="edge7_Node000001_Node000007" class="edge">
<title>Node1&#45;&gt;Node7</title>
<g id="a_edge7_Node000001_Node000007"><a xlink:title=" ">
<path fill="none" stroke="#63b8ff" d="M72.88,-55.69C72.88,-47.43 72.88,-38.09 72.88,-30.57"/>
<polygon fill="#63b8ff" stroke="#63b8ff" points="69.38,-55.52 72.88,-65.52 76.38,-55.52 69.38,-55.52"/>
</a>
</g>
</g>
<!-- Node2 -->
<g id="Node000002" class="node">
<title>Node2</title>
<g id="a_Node000002"><a xlink:href="classllvm_1_1RTTIExtends.html" target="_top" xlink:title=" ">
<polygon fill="white" stroke="#666666" points="143.5,-154.25 2.25,-154.25 2.25,-123.75 143.5,-123.75 143.5,-154.25"/>
<text xml:space="preserve" text-anchor="start" x="10.25" y="-140.75" font-family="Helvetica,sans-Serif" font-size="10.00">llvm::RTTIExtends&lt;</text>
<text xml:space="preserve" text-anchor="middle" x="72.88" y="-129.5" font-family="Helvetica,sans-Serif" font-size="10.00"> GenericNamedTask, Task &gt;</text>
</a>
</g>
</g>
<!-- Node2&#45;&gt;Node1 -->
<g id="edge1_Node000001_Node000002" class="edge">
<title>Node2&#45;&gt;Node1</title>
<g id="a_edge1_Node000001_Node000002"><a xlink:title=" ">
<path fill="none" stroke="#63b8ff" d="M72.88,-112.27C72.88,-103.29 72.88,-93.79 72.88,-87.1"/>
<polygon fill="#63b8ff" stroke="#63b8ff" points="69.38,-111.99 72.88,-121.99 76.38,-111.99 69.38,-111.99"/>
</a>
</g>
</g>
<!-- Node3 -->
<g id="Node000003" class="node">
<title>Node3</title>
<g id="a_Node000003"><a xlink:title=" ">
<polygon fill="white" stroke="#666666" points="44.38,-247.62 7.38,-247.62 7.38,-228.38 44.38,-228.38 44.38,-247.62"/>
<text xml:space="preserve" text-anchor="middle" x="25.88" y="-234.12" font-family="Helvetica,sans-Serif" font-size="10.00">Task</text>
</a>
</g>
</g>
<!-- Node3&#45;&gt;Node2 -->
<g id="edge2_Node000002_Node000003" class="edge">
<title>Node3&#45;&gt;Node2</title>
<g id="a_edge2_Node000002_Node000003"><a xlink:title=" ">
<path fill="none" stroke="#63b8ff" d="M35.16,-217.84C44.17,-199.23 57.66,-171.4 65.83,-154.55"/>
<polygon fill="#63b8ff" stroke="#63b8ff" points="32.08,-216.16 30.87,-226.69 38.38,-219.21 32.08,-216.16"/>
</a>
</g>
</g>
<!-- Node4 -->
<g id="Node000004" class="node">
<title>Node4</title>
<g id="a_Node000004"><a xlink:title=" ">
<polygon fill="white" stroke="#666666" points="114.5,-309.5 51.25,-309.5 51.25,-290.25 114.5,-290.25 114.5,-309.5"/>
<text xml:space="preserve" text-anchor="middle" x="82.88" y="-296" font-family="Helvetica,sans-Serif" font-size="10.00">ParentTs...</text>
</a>
</g>
</g>
<!-- Node4&#45;&gt;Node2 -->
<g id="edge3_Node000002_Node000004" class="edge">
<title>Node4&#45;&gt;Node2</title>
<g id="a_edge3_Node000002_Node000004"><a xlink:title=" ">
<path fill="none" stroke="#63b8ff" d="M81.61,-278.72C79.56,-246.25 75.59,-183.13 73.79,-154.61"/>
<polygon fill="#63b8ff" stroke="#63b8ff" points="78.09,-278.61 82.21,-288.37 85.08,-278.17 78.09,-278.61"/>
</a>
</g>
</g>
<!-- Node5 -->
<g id="Node000005" class="node">
<title>Node5</title>
<g id="a_Node000005"><a xlink:href="classllvm_1_1RTTIExtends.html" target="_top" xlink:title="Inheritance utility for extensible RTTI.">
<polygon fill="white" stroke="#666666" points="235.12,-253.25 100.62,-253.25 100.62,-222.75 235.12,-222.75 235.12,-253.25"/>
<text xml:space="preserve" text-anchor="start" x="108.62" y="-239.75" font-family="Helvetica,sans-Serif" font-size="10.00">llvm::RTTIExtends&lt;</text>
<text xml:space="preserve" text-anchor="middle" x="167.88" y="-228.5" font-family="Helvetica,sans-Serif" font-size="10.00"> ThisT, ParentT, ParentTs &gt;</text>
</a>
</g>
</g>
<!-- Node4&#45;&gt;Node5 -->
<g id="edge6_Node000005_Node000004" class="edge">
<title>Node4&#45;&gt;Node5</title>
<g id="a_edge6_Node000005_Node000004"><a xlink:title=" ">
<path fill="none" stroke="#63b8ff" d="M104.99,-283.3C118.04,-274.11 134.44,-262.55 147.22,-253.55"/>
<polygon fill="#63b8ff" stroke="#63b8ff" points="103.18,-280.29 97.02,-288.91 107.21,-286.01 103.18,-280.29"/>
</a>
</g>
</g>
<!-- Node5&#45;&gt;Node2 -->
<g id="edge4_Node000002_Node000005" class="edge">
<title>Node5&#45;&gt;Node2</title>
<g id="a_edge4_Node000002_Node000005"><a xlink:title=" ">
<path fill="none" stroke="orange" stroke-dasharray="5,2" d="M145.44,-214.1C127.39,-195.66 102.56,-170.31 87.13,-154.55"/>
<polygon fill="orange" stroke="orange" points="142.89,-216.49 152.39,-221.19 147.89,-211.59 142.89,-216.49"/>
</a>
</g>
<text xml:space="preserve" text-anchor="start" x="137.44" y="-192.25" font-family="Helvetica,sans-Serif" font-size="10.00" fill="grey">&lt; GenericNamedTask,</text>
<text xml:space="preserve" text-anchor="start" x="137.44" y="-177" font-family="Helvetica,sans-Serif" font-size="10.00" fill="grey">   Task &gt;</text>
</g>
<!-- Node6 -->
<g id="Node000006" class="node">
<title>Node6</title>
<g id="a_Node000006"><a xlink:href="classParentT.html" target="_top" xlink:title=" ">
<polygon fill="white" stroke="#666666" points="193.12,-309.5 142.62,-309.5 142.62,-290.25 193.12,-290.25 193.12,-309.5"/>
<text xml:space="preserve" text-anchor="middle" x="167.88" y="-296" font-family="Helvetica,sans-Serif" font-size="10.00">ParentT</text>
</a>
</g>
</g>
<!-- Node6&#45;&gt;Node5 -->
<g id="edge5_Node000005_Node000006" class="edge">
<title>Node6&#45;&gt;Node5</title>
<g id="a_edge5_Node000005_Node000006"><a xlink:title=" ">
<path fill="none" stroke="#63b8ff" d="M167.88,-278.44C167.88,-270.18 167.88,-260.84 167.88,-253.32"/>
<polygon fill="#63b8ff" stroke="#63b8ff" points="164.38,-278.27 167.88,-288.27 171.38,-278.27 164.38,-278.27"/>
</a>
</g>
</g>
</g>
</svg>
