<?xml version="1.0" encoding="UTF-8" standalone="no"?>
<!DOCTYPE svg PUBLIC "-//W3C//DTD SVG 1.1//EN"
 "http://www.w3.org/Graphics/SVG/1.1/DTD/svg11.dtd">
<!-- Generated by graphviz version 13.1.2 (20250808.2320)
 -->
<!-- Title: llvm::DXILResourceTypeAnalysis Pages: 1 -->
<svg width="990pt" height="90pt"
 viewBox="0.00 0.00 990.00 90.00" xmlns="http://www.w3.org/2000/svg" xmlns:xlink="http://www.w3.org/1999/xlink">
<g id="graph0" class="graph" transform="scale(1 1) rotate(0) translate(4 85.5)">
<title>llvm::DXILResourceTypeAnalysis</title>
<!-- Node1 -->
<g id="Node000001" class="node">
<title>Node1</title>
<g id="a_Node000001"><a xlink:title=" ">
<polygon fill="#999999" stroke="#666666" points="982.25,-48.88 819.25,-48.88 819.25,-29.62 982.25,-29.62 982.25,-48.88"/>
<text xml:space="preserve" text-anchor="middle" x="900.75" y="-35.38" font-family="Helvetica,sans-Serif" font-size="10.00">llvm::DXILResourceTypeAnalysis</text>
</a>
</g>
</g>
<!-- Node2 -->
<g id="Node000002" class="node">
<title>Node2</title>
<g id="a_Node000002"><a xlink:href="structllvm_1_1AnalysisInfoMixin.html" target="_top" xlink:title=" ">
<polygon fill="white" stroke="#666666" points="782.25,-54.5 625.25,-54.5 625.25,-24 782.25,-24 782.25,-54.5"/>
<text xml:space="preserve" text-anchor="start" x="633.25" y="-41" font-family="Helvetica,sans-Serif" font-size="10.00">llvm::AnalysisInfoMixin</text>
<text xml:space="preserve" text-anchor="middle" x="703.75" y="-29.75" font-family="Helvetica,sans-Serif" font-size="10.00">&lt; DXILResourceTypeAnalysis &gt;</text>
</a>
</g>
</g>
<!-- Node2&#45;&gt;Node1 -->
<g id="edge1_Node000001_Node000002" class="edge">
<title>Node2&#45;&gt;Node1</title>
<g id="a_edge1_Node000001_Node000002"><a xlink:title=" ">
<path fill="none" stroke="#63b8ff" d="M793.89,-39.25C802.19,-39.25 810.56,-39.25 818.77,-39.25"/>
<polygon fill="#63b8ff" stroke="#63b8ff" points="794.17,-35.75 784.17,-39.25 794.17,-42.75 794.17,-35.75"/>
</a>
</g>
</g>
<!-- Node3 -->
<g id="Node000003" class="node">
<title>Node3</title>
<g id="a_Node000003"><a xlink:href="structllvm_1_1PassInfoMixin.html" target="_top" xlink:title=" ">
<polygon fill="white" stroke="#666666" points="442.25,-79.5 285.25,-79.5 285.25,-49 442.25,-49 442.25,-79.5"/>
<text xml:space="preserve" text-anchor="start" x="293.25" y="-66" font-family="Helvetica,sans-Serif" font-size="10.00">llvm::PassInfoMixin</text>
<text xml:space="preserve" text-anchor="middle" x="363.75" y="-54.75" font-family="Helvetica,sans-Serif" font-size="10.00">&lt; DXILResourceTypeAnalysis &gt;</text>
</a>
</g>
</g>
<!-- Node3&#45;&gt;Node2 -->
<g id="edge2_Node000002_Node000003" class="edge">
<title>Node3&#45;&gt;Node2</title>
<g id="a_edge2_Node000002_Node000003"><a xlink:title=" ">
<path fill="none" stroke="#63b8ff" d="M454.18,-57.64C507.27,-53.71 573.95,-48.78 624.88,-45.01"/>
<polygon fill="#63b8ff" stroke="#63b8ff" points="453.94,-54.14 444.23,-58.37 454.46,-61.12 453.94,-54.14"/>
</a>
</g>
</g>
<!-- Node4 -->
<g id="Node000004" class="node">
<title>Node4</title>
<g id="a_Node000004"><a xlink:href="structllvm_1_1PassInfoMixin.html" target="_top" xlink:title="A CRTP mix&#45;in to automatically provide informational APIs needed for passes.">
<polygon fill="white" stroke="#666666" points="102.25,-79.5 0,-79.5 0,-49 102.25,-49 102.25,-79.5"/>
<text xml:space="preserve" text-anchor="start" x="8" y="-66" font-family="Helvetica,sans-Serif" font-size="10.00">llvm::PassInfoMixin</text>
<text xml:space="preserve" text-anchor="middle" x="51.12" y="-54.75" font-family="Helvetica,sans-Serif" font-size="10.00">&lt; DerivedT &gt;</text>
</a>
</g>
</g>
<!-- Node4&#45;&gt;Node3 -->
<g id="edge3_Node000003_Node000004" class="edge">
<title>Node4&#45;&gt;Node3</title>
<g id="a_edge3_Node000003_Node000004"><a xlink:title=" ">
<path fill="none" stroke="orange" stroke-dasharray="5,2" d="M114.13,-64.25C163.2,-64.25 232.02,-64.25 284.82,-64.25"/>
<polygon fill="orange" stroke="orange" points="114.24,-60.75 104.24,-64.25 114.24,-67.75 114.24,-60.75"/>
</a>
</g>
<text xml:space="preserve" text-anchor="start" x="123.25" y="-69" font-family="Helvetica,sans-Serif" font-size="10.00" fill="grey">&lt; DXILResourceTypeAnalysis &gt;</text>
</g>
<!-- Node5 -->
<g id="Node000005" class="node">
<title>Node5</title>
<g id="a_Node000005"><a xlink:href="structllvm_1_1AnalysisInfoMixin.html" target="_top" xlink:title="A CRTP mix&#45;in that provides informational APIs needed for analysis passes.">
<polygon fill="white" stroke="#666666" points="422.38,-30.5 305.12,-30.5 305.12,0 422.38,0 422.38,-30.5"/>
<text xml:space="preserve" text-anchor="start" x="313.12" y="-17" font-family="Helvetica,sans-Serif" font-size="10.00">llvm::AnalysisInfoMixin</text>
<text xml:space="preserve" text-anchor="middle" x="363.75" y="-5.75" font-family="Helvetica,sans-Serif" font-size="10.00">&lt; DerivedT &gt;</text>
</a>
</g>
</g>
<!-- Node5&#45;&gt;Node2 -->
<g id="edge4_Node000002_Node000005" class="edge">
<title>Node5&#45;&gt;Node2</title>
<g id="a_edge4_Node000002_Node000005"><a xlink:title=" ">
<path fill="none" stroke="orange" stroke-dasharray="5,2" d="M433.96,-17.7C482.51,-19.71 548.92,-23.04 607.25,-28 612.99,-28.49 618.92,-29.05 624.87,-29.65"/>
<polygon fill="orange" stroke="orange" points="434.28,-14.21 424.15,-17.3 434,-21.2 434.28,-14.21"/>
</a>
</g>
<text xml:space="preserve" text-anchor="start" x="463.25" y="-32.75" font-family="Helvetica,sans-Serif" font-size="10.00" fill="grey">&lt; DXILResourceTypeAnalysis &gt;</text>
</g>
<!-- Node6 -->
<g id="Node000006" class="node">
<title>Node6</title>
<g id="a_Node000006"><a xlink:href="structllvm_1_1PassInfoMixin.html" target="_top" xlink:title="A CRTP mix&#45;in to automatically provide informational APIs needed for passes.">
<polygon fill="white" stroke="#666666" points="102.25,-30.5 0,-30.5 0,0 102.25,0 102.25,-30.5"/>
<text xml:space="preserve" text-anchor="start" x="8" y="-17" font-family="Helvetica,sans-Serif" font-size="10.00">llvm::PassInfoMixin</text>
<text xml:space="preserve" text-anchor="middle" x="51.12" y="-5.75" font-family="Helvetica,sans-Serif" font-size="10.00">&lt; DerivedT &gt;</text>
</a>
</g>
</g>
<!-- Node6&#45;&gt;Node5 -->
<g id="edge5_Node000005_Node000006" class="edge">
<title>Node6&#45;&gt;Node5</title>
<g id="a_edge5_Node000005_Node000006"><a xlink:title=" ">
<path fill="none" stroke="#63b8ff" d="M114.17,-15.25C169.71,-15.25 250.51,-15.25 304.77,-15.25"/>
<polygon fill="#63b8ff" stroke="#63b8ff" points="114.24,-11.75 104.24,-15.25 114.24,-18.75 114.24,-11.75"/>
</a>
</g>
</g>
</g>
</svg>
