<?xml version="1.0" encoding="UTF-8" standalone="no"?>
<!DOCTYPE svg PUBLIC "-//W3C//DTD SVG 1.1//EN"
 "http://www.w3.org/Graphics/SVG/1.1/DTD/svg11.dtd">
<!-- Generated by graphviz version 13.1.2 (20250808.2320)
 -->
<!-- Title: llvm::PossiblyExactOperator Pages: 1 -->
<svg width="758pt" height="110pt"
 viewBox="0.00 0.00 758.00 110.00" xmlns="http://www.w3.org/2000/svg" xmlns:xlink="http://www.w3.org/1999/xlink">
<g id="graph0" class="graph" transform="scale(1 1) rotate(0) translate(4 105.75)">
<title>llvm::PossiblyExactOperator</title>
<!-- Node1 -->
<g id="Node000001" class="node">
<title>Node1</title>
<g id="a_Node000001"><a xlink:title="A udiv, sdiv, lshr, or ashr instruction, which can be marked as &quot;exact&quot;, indicating that no bits are ...">
<polygon fill="#999999" stroke="#666666" points="451,-60.5 310.5,-60.5 310.5,-41.25 451,-41.25 451,-60.5"/>
<text xml:space="preserve" text-anchor="middle" x="380.75" y="-47" font-family="Helvetica,sans-Serif" font-size="10.00">llvm::PossiblyExactOperator</text>
</a>
</g>
</g>
<!-- Node5 -->
<g id="Node000005" class="node">
<title>Node5</title>
<g id="a_Node000005"><a xlink:href="classllvm_1_1ConcreteOperator.html" target="_top" xlink:title=" ">
<polygon fill="white" stroke="#666666" points="614.75,-101.75 487,-101.75 487,-60 614.75,-60 614.75,-101.75"/>
<text xml:space="preserve" text-anchor="start" x="495" y="-88.25" font-family="Helvetica,sans-Serif" font-size="10.00">llvm::ConcreteOperator</text>
<text xml:space="preserve" text-anchor="start" x="495" y="-77" font-family="Helvetica,sans-Serif" font-size="10.00">&lt; PossiblyExactOperator,</text>
<text xml:space="preserve" text-anchor="middle" x="550.88" y="-65.75" font-family="Helvetica,sans-Serif" font-size="10.00"> Instruction::AShr &gt;</text>
</a>
</g>
</g>
<!-- Node1&#45;&gt;Node5 -->
<g id="edge4_Node000001_Node000005" class="edge">
<title>Node1&#45;&gt;Node5</title>
<g id="a_edge4_Node000001_Node000005"><a xlink:title=" ">
<path fill="none" stroke="#63b8ff" d="M449.34,-62.93C461.65,-65.13 474.45,-67.42 486.62,-69.59"/>
<polygon fill="#63b8ff" stroke="#63b8ff" points="450.15,-59.53 439.69,-61.21 448.92,-66.42 450.15,-59.53"/>
</a>
</g>
</g>
<!-- Node7 -->
<g id="Node000007" class="node">
<title>Node7</title>
<g id="a_Node000007"><a xlink:href="classllvm_1_1ConcreteOperator.html" target="_top" xlink:title=" ">
<polygon fill="white" stroke="#666666" points="614.75,-41.75 487,-41.75 487,0 614.75,0 614.75,-41.75"/>
<text xml:space="preserve" text-anchor="start" x="495" y="-28.25" font-family="Helvetica,sans-Serif" font-size="10.00">llvm::ConcreteOperator</text>
<text xml:space="preserve" text-anchor="start" x="495" y="-17" font-family="Helvetica,sans-Serif" font-size="10.00">&lt; PossiblyExactOperator,</text>
<text xml:space="preserve" text-anchor="middle" x="550.88" y="-5.75" font-family="Helvetica,sans-Serif" font-size="10.00"> Instruction::LShr &gt;</text>
</a>
</g>
</g>
<!-- Node1&#45;&gt;Node7 -->
<g id="edge6_Node000001_Node000007" class="edge">
<title>Node1&#45;&gt;Node7</title>
<g id="a_edge6_Node000001_Node000007"><a xlink:title=" ">
<path fill="none" stroke="#63b8ff" d="M449.34,-38.82C461.65,-36.62 474.45,-34.33 486.62,-32.16"/>
<polygon fill="#63b8ff" stroke="#63b8ff" points="448.92,-35.33 439.69,-40.54 450.15,-42.22 448.92,-35.33"/>
</a>
</g>
</g>
<!-- Node2 -->
<g id="Node000002" class="node">
<title>Node2</title>
<g id="a_Node000002"><a xlink:href="classllvm_1_1Operator.html" target="_top" xlink:title="This is a utility class that provides an abstraction for the common functionality between Instruction...">
<polygon fill="white" stroke="#666666" points="274.5,-60.5 197,-60.5 197,-41.25 274.5,-41.25 274.5,-60.5"/>
<text xml:space="preserve" text-anchor="middle" x="235.75" y="-47" font-family="Helvetica,sans-Serif" font-size="10.00">llvm::Operator</text>
</a>
</g>
</g>
<!-- Node2&#45;&gt;Node1 -->
<g id="edge1_Node000001_Node000002" class="edge">
<title>Node2&#45;&gt;Node1</title>
<g id="a_edge1_Node000001_Node000002"><a xlink:title=" ">
<path fill="none" stroke="#63b8ff" d="M286.11,-50.88C293.86,-50.88 301.99,-50.88 310.09,-50.88"/>
<polygon fill="#63b8ff" stroke="#63b8ff" points="286.21,-47.38 276.21,-50.88 286.21,-54.38 286.21,-47.38"/>
</a>
</g>
</g>
<!-- Node3 -->
<g id="Node000003" class="node">
<title>Node3</title>
<g id="a_Node000003"><a xlink:href="classllvm_1_1User.html" target="_top" xlink:title=" ">
<polygon fill="white" stroke="#666666" points="161,-60.5 100,-60.5 100,-41.25 161,-41.25 161,-60.5"/>
<text xml:space="preserve" text-anchor="middle" x="130.5" y="-47" font-family="Helvetica,sans-Serif" font-size="10.00">llvm::User</text>
</a>
</g>
</g>
<!-- Node3&#45;&gt;Node2 -->
<g id="edge2_Node000002_Node000003" class="edge">
<title>Node3&#45;&gt;Node2</title>
<g id="a_edge2_Node000002_Node000003"><a xlink:title=" ">
<path fill="none" stroke="#63b8ff" d="M172.7,-50.88C180.68,-50.88 188.99,-50.88 196.86,-50.88"/>
<polygon fill="#63b8ff" stroke="#63b8ff" points="172.88,-47.38 162.88,-50.88 172.88,-54.38 172.88,-47.38"/>
</a>
</g>
</g>
<!-- Node4 -->
<g id="Node000004" class="node">
<title>Node4</title>
<g id="a_Node000004"><a xlink:href="classllvm_1_1Value.html" target="_top" xlink:title="LLVM Value Representation.">
<polygon fill="white" stroke="#666666" points="64,-60.5 0,-60.5 0,-41.25 64,-41.25 64,-60.5"/>
<text xml:space="preserve" text-anchor="middle" x="32" y="-47" font-family="Helvetica,sans-Serif" font-size="10.00">llvm::Value</text>
</a>
</g>
</g>
<!-- Node4&#45;&gt;Node3 -->
<g id="edge3_Node000003_Node000004" class="edge">
<title>Node4&#45;&gt;Node3</title>
<g id="a_edge3_Node000003_Node000004"><a xlink:title=" ">
<path fill="none" stroke="#63b8ff" d="M75.57,-50.88C83.68,-50.88 92.02,-50.88 99.64,-50.88"/>
<polygon fill="#63b8ff" stroke="#63b8ff" points="75.84,-47.38 65.84,-50.88 75.84,-54.38 75.84,-47.38"/>
</a>
</g>
</g>
<!-- Node6 -->
<g id="Node000006" class="node">
<title>Node6</title>
<g id="a_Node000006"><a xlink:href="classllvm_1_1AShrOperator.html" target="_top" xlink:title=" ">
<polygon fill="white" stroke="#666666" points="750,-90.5 650.75,-90.5 650.75,-71.25 750,-71.25 750,-90.5"/>
<text xml:space="preserve" text-anchor="middle" x="700.38" y="-77" font-family="Helvetica,sans-Serif" font-size="10.00">llvm::AShrOperator</text>
</a>
</g>
</g>
<!-- Node5&#45;&gt;Node6 -->
<g id="edge5_Node000005_Node000006" class="edge">
<title>Node5&#45;&gt;Node6</title>
<g id="a_edge5_Node000005_Node000006"><a xlink:title=" ">
<path fill="none" stroke="#63b8ff" d="M626.37,-80.88C634.54,-80.88 642.69,-80.88 650.43,-80.88"/>
<polygon fill="#63b8ff" stroke="#63b8ff" points="626.37,-77.38 616.37,-80.88 626.37,-84.38 626.37,-77.38"/>
</a>
</g>
</g>
<!-- Node8 -->
<g id="Node000008" class="node">
<title>Node8</title>
<g id="a_Node000008"><a xlink:href="classllvm_1_1LShrOperator.html" target="_top" xlink:title=" ">
<polygon fill="white" stroke="#666666" points="749.25,-30.5 651.5,-30.5 651.5,-11.25 749.25,-11.25 749.25,-30.5"/>
<text xml:space="preserve" text-anchor="middle" x="700.38" y="-17" font-family="Helvetica,sans-Serif" font-size="10.00">llvm::LShrOperator</text>
</a>
</g>
</g>
<!-- Node7&#45;&gt;Node8 -->
<g id="edge7_Node000007_Node000008" class="edge">
<title>Node7&#45;&gt;Node8</title>
<g id="a_edge7_Node000007_Node000008"><a xlink:title=" ">
<path fill="none" stroke="#63b8ff" d="M626.09,-20.88C634.67,-20.88 643.24,-20.88 651.33,-20.88"/>
<polygon fill="#63b8ff" stroke="#63b8ff" points="626.37,-17.38 616.37,-20.88 626.37,-24.38 626.37,-17.38"/>
</a>
</g>
</g>
</g>
</svg>
