<?xml version="1.0" encoding="UTF-8" standalone="no"?>
<!DOCTYPE svg PUBLIC "-//W3C//DTD SVG 1.1//EN"
 "http://www.w3.org/Graphics/SVG/1.1/DTD/svg11.dtd">
<!-- Generated by graphviz version 13.1.2 (20250808.2320)
 -->
<!-- Title: llvm::GCNMaxILPSchedStrategy Pages: 1 -->
<svg width="169pt" height="248pt"
 viewBox="0.00 0.00 169.00 248.00" xmlns="http://www.w3.org/2000/svg" xmlns:xlink="http://www.w3.org/1999/xlink">
<g id="graph0" class="graph" transform="scale(1 1) rotate(0) translate(4 244.25)">
<title>llvm::GCNMaxILPSchedStrategy</title>
<!-- Node1 -->
<g id="Node000001" class="node">
<title>Node1</title>
<g id="a_Node000001"><a xlink:title="The goal of this scheduling strategy is to maximize ILP for a single wave (i.e.">
<polygon fill="#999999" stroke="#666666" points="160.75,-19.25 0,-19.25 0,0 160.75,0 160.75,-19.25"/>
<text xml:space="preserve" text-anchor="middle" x="80.38" y="-5.75" font-family="Helvetica,sans-Serif" font-size="10.00">llvm::GCNMaxILPSchedStrategy</text>
</a>
</g>
</g>
<!-- Node2 -->
<g id="Node000002" class="node">
<title>Node2</title>
<g id="a_Node000002"><a xlink:href="classllvm_1_1GCNSchedStrategy.html" target="_top" xlink:title="This is a minimal scheduler strategy.">
<polygon fill="white" stroke="#666666" points="143.88,-74.5 16.87,-74.5 16.87,-55.25 143.88,-55.25 143.88,-74.5"/>
<text xml:space="preserve" text-anchor="middle" x="80.38" y="-61" font-family="Helvetica,sans-Serif" font-size="10.00">llvm::GCNSchedStrategy</text>
</a>
</g>
</g>
<!-- Node2&#45;&gt;Node1 -->
<g id="edge1_Node000001_Node000002" class="edge">
<title>Node2&#45;&gt;Node1</title>
<g id="a_edge1_Node000001_Node000002"><a xlink:title=" ">
<path fill="none" stroke="#63b8ff" d="M80.38,-43.63C80.38,-35.34 80.38,-26.17 80.38,-19.61"/>
<polygon fill="#63b8ff" stroke="#63b8ff" points="76.88,-43.57 80.38,-53.57 83.88,-43.57 76.88,-43.57"/>
</a>
</g>
</g>
<!-- Node3 -->
<g id="Node000003" class="node">
<title>Node3</title>
<g id="a_Node000003"><a xlink:href="classllvm_1_1GenericScheduler.html" target="_top" xlink:title="GenericScheduler shrinks the unscheduled zone using heuristics to balance the schedule.">
<polygon fill="white" stroke="#666666" points="139,-129.75 21.75,-129.75 21.75,-110.5 139,-110.5 139,-129.75"/>
<text xml:space="preserve" text-anchor="middle" x="80.38" y="-116.25" font-family="Helvetica,sans-Serif" font-size="10.00">llvm::GenericScheduler</text>
</a>
</g>
</g>
<!-- Node3&#45;&gt;Node2 -->
<g id="edge2_Node000002_Node000003" class="edge">
<title>Node3&#45;&gt;Node2</title>
<g id="a_edge2_Node000002_Node000003"><a xlink:title=" ">
<path fill="none" stroke="#63b8ff" d="M80.38,-98.88C80.38,-90.59 80.38,-81.42 80.38,-74.86"/>
<polygon fill="#63b8ff" stroke="#63b8ff" points="76.88,-98.82 80.38,-108.82 83.88,-98.82 76.88,-98.82"/>
</a>
</g>
</g>
<!-- Node4 -->
<g id="Node000004" class="node">
<title>Node4</title>
<g id="a_Node000004"><a xlink:href="classllvm_1_1GenericSchedulerBase.html" target="_top" xlink:title="Base class for GenericScheduler.">
<polygon fill="white" stroke="#666666" points="150.25,-185 10.5,-185 10.5,-165.75 150.25,-165.75 150.25,-185"/>
<text xml:space="preserve" text-anchor="middle" x="80.38" y="-171.5" font-family="Helvetica,sans-Serif" font-size="10.00">llvm::GenericSchedulerBase</text>
</a>
</g>
</g>
<!-- Node4&#45;&gt;Node3 -->
<g id="edge3_Node000003_Node000004" class="edge">
<title>Node4&#45;&gt;Node3</title>
<g id="a_edge3_Node000003_Node000004"><a xlink:title=" ">
<path fill="none" stroke="#63b8ff" d="M80.38,-154.13C80.38,-145.84 80.38,-136.67 80.38,-130.11"/>
<polygon fill="#63b8ff" stroke="#63b8ff" points="76.88,-154.07 80.38,-164.07 83.88,-154.07 76.88,-154.07"/>
</a>
</g>
</g>
<!-- Node5 -->
<g id="Node000005" class="node">
<title>Node5</title>
<g id="a_Node000005"><a xlink:href="classllvm_1_1MachineSchedStrategy.html" target="_top" xlink:title="MachineSchedStrategy &#45; Interface to the scheduling algorithm used by ScheduleDAGMI.">
<polygon fill="white" stroke="#666666" points="151,-240.25 9.75,-240.25 9.75,-221 151,-221 151,-240.25"/>
<text xml:space="preserve" text-anchor="middle" x="80.38" y="-226.75" font-family="Helvetica,sans-Serif" font-size="10.00">llvm::MachineSchedStrategy</text>
</a>
</g>
</g>
<!-- Node5&#45;&gt;Node4 -->
<g id="edge4_Node000004_Node000005" class="edge">
<title>Node5&#45;&gt;Node4</title>
<g id="a_edge4_Node000004_Node000005"><a xlink:title=" ">
<path fill="none" stroke="#63b8ff" d="M80.38,-209.38C80.38,-201.09 80.38,-191.92 80.38,-185.36"/>
<polygon fill="#63b8ff" stroke="#63b8ff" points="76.88,-209.32 80.38,-219.32 83.88,-209.32 76.88,-209.32"/>
</a>
</g>
</g>
</g>
</svg>
