<?xml version="1.0" encoding="UTF-8" standalone="no"?>
<!DOCTYPE svg PUBLIC "-//W3C//DTD SVG 1.1//EN"
 "http://www.w3.org/Graphics/SVG/1.1/DTD/svg11.dtd">
<!-- Generated by graphviz version 13.1.2 (20250808.2320)
 -->
<!-- Title: llvm::FormalArgHandler Pages: 1 -->
<svg width="167pt" height="216pt"
 viewBox="0.00 0.00 167.00 216.00" xmlns="http://www.w3.org/2000/svg" xmlns:xlink="http://www.w3.org/1999/xlink">
<g id="graph0" class="graph" transform="scale(1 1) rotate(0) translate(4 211.5)">
<title>llvm::FormalArgHandler</title>
<!-- Node1 -->
<g id="Node000001" class="node">
<title>Node1</title>
<g id="a_Node000001"><a xlink:title=" ">
<polygon fill="#999999" stroke="#666666" points="138.62,-19.25 19.88,-19.25 19.88,0 138.62,0 138.62,-19.25"/>
<text xml:space="preserve" text-anchor="middle" x="79.25" y="-5.75" font-family="Helvetica,sans-Serif" font-size="10.00">llvm::FormalArgHandler</text>
</a>
</g>
</g>
<!-- Node2 -->
<g id="Node000002" class="node">
<title>Node2</title>
<g id="a_Node000002"><a xlink:href="classllvm_1_1PPCIncomingValueHandler.html" target="_top" xlink:title=" ">
<polygon fill="white" stroke="#666666" points="158.5,-74.5 0,-74.5 0,-55.25 158.5,-55.25 158.5,-74.5"/>
<text xml:space="preserve" text-anchor="middle" x="79.25" y="-61" font-family="Helvetica,sans-Serif" font-size="10.00">llvm::PPCIncomingValueHandler</text>
</a>
</g>
</g>
<!-- Node2&#45;&gt;Node1 -->
<g id="edge1_Node000001_Node000002" class="edge">
<title>Node2&#45;&gt;Node1</title>
<g id="a_edge1_Node000001_Node000002"><a xlink:title=" ">
<path fill="none" stroke="#63b8ff" d="M79.25,-43.63C79.25,-35.34 79.25,-26.17 79.25,-19.61"/>
<polygon fill="#63b8ff" stroke="#63b8ff" points="75.75,-43.57 79.25,-53.57 82.75,-43.57 75.75,-43.57"/>
</a>
</g>
</g>
<!-- Node3 -->
<g id="Node000003" class="node">
<title>Node3</title>
<g id="a_Node000003"><a xlink:href="structllvm_1_1CallLowering_1_1IncomingValueHandler.html" target="_top" xlink:title="Base class for ValueHandlers used for arguments coming into the current function, or for return value...">
<polygon fill="white" stroke="#666666" points="139,-141 19.5,-141 19.5,-110.5 139,-110.5 139,-141"/>
<text xml:space="preserve" text-anchor="start" x="27.5" y="-127.5" font-family="Helvetica,sans-Serif" font-size="10.00">llvm::CallLowering</text>
<text xml:space="preserve" text-anchor="middle" x="79.25" y="-116.25" font-family="Helvetica,sans-Serif" font-size="10.00">::IncomingValueHandler</text>
</a>
</g>
</g>
<!-- Node3&#45;&gt;Node2 -->
<g id="edge2_Node000002_Node000003" class="edge">
<title>Node3&#45;&gt;Node2</title>
<g id="a_edge2_Node000002_Node000003"><a xlink:title=" ">
<path fill="none" stroke="#63b8ff" d="M79.25,-98.73C79.25,-90.23 79.25,-81.34 79.25,-74.95"/>
<polygon fill="#63b8ff" stroke="#63b8ff" points="75.75,-98.68 79.25,-108.68 82.75,-98.68 75.75,-98.68"/>
</a>
</g>
</g>
<!-- Node4 -->
<g id="Node000004" class="node">
<title>Node4</title>
<g id="a_Node000004"><a xlink:href="structllvm_1_1CallLowering_1_1ValueHandler.html" target="_top" xlink:title=" ">
<polygon fill="white" stroke="#666666" points="127.38,-207.5 31.12,-207.5 31.12,-177 127.38,-177 127.38,-207.5"/>
<text xml:space="preserve" text-anchor="start" x="39.12" y="-194" font-family="Helvetica,sans-Serif" font-size="10.00">llvm::CallLowering</text>
<text xml:space="preserve" text-anchor="middle" x="79.25" y="-182.75" font-family="Helvetica,sans-Serif" font-size="10.00">::ValueHandler</text>
</a>
</g>
</g>
<!-- Node4&#45;&gt;Node3 -->
<g id="edge3_Node000003_Node000004" class="edge">
<title>Node4&#45;&gt;Node3</title>
<g id="a_edge3_Node000003_Node000004"><a xlink:title=" ">
<path fill="none" stroke="#63b8ff" d="M79.25,-165.31C79.25,-157.14 79.25,-148.41 79.25,-141.33"/>
<polygon fill="#63b8ff" stroke="#63b8ff" points="75.75,-165.1 79.25,-175.1 82.75,-165.1 75.75,-165.1"/>
</a>
</g>
</g>
</g>
</svg>
