<?xml version="1.0" encoding="UTF-8" standalone="no"?>
<!DOCTYPE svg PUBLIC "-//W3C//DTD SVG 1.1//EN"
 "http://www.w3.org/Graphics/SVG/1.1/DTD/svg11.dtd">
<!-- Generated by graphviz version 13.1.2 (20250808.2320)
 -->
<!-- Title: llvm::MCDisassembler Pages: 1 -->
<svg width="304pt" height="138pt"
 viewBox="0.00 0.00 304.00 138.00" xmlns="http://www.w3.org/2000/svg" xmlns:xlink="http://www.w3.org/1999/xlink">
<g id="graph0" class="graph" transform="scale(1 1) rotate(0) translate(4 134.25)">
<title>llvm::MCDisassembler</title>
<!-- Node1 -->
<g id="Node000001" class="node">
<title>Node1</title>
<g id="a_Node000001"><a xlink:title="Superclass for all disassemblers.">
<polygon fill="#999999" stroke="#666666" points="115.75,-74.25 0,-74.25 0,-55 115.75,-55 115.75,-74.25"/>
<text xml:space="preserve" text-anchor="middle" x="57.88" y="-60.75" font-family="Helvetica,sans-Serif" font-size="10.00">llvm::MCDisassembler</text>
</a>
</g>
</g>
<!-- Node2 -->
<g id="Node000002" class="node">
<title>Node2</title>
<g id="a_Node000002"><a xlink:href="structM68kDisassembler.html" target="_top" xlink:title="A disassembler class for M68k.">
<polygon fill="white" stroke="#666666" points="273.88,-130.25 173.88,-130.25 173.88,-111 273.88,-111 273.88,-130.25"/>
<text xml:space="preserve" text-anchor="middle" x="223.88" y="-116.75" font-family="Helvetica,sans-Serif" font-size="10.00">M68kDisassembler</text>
</a>
</g>
</g>
<!-- Node1&#45;&gt;Node2 -->
<g id="edge1_Node000001_Node000002" class="edge">
<title>Node1&#45;&gt;Node2</title>
<g id="a_edge1_Node000001_Node000002"><a xlink:title=" ">
<path fill="none" stroke="#63b8ff" d="M91.38,-79.24C109.02,-86.83 131.33,-95.9 151.75,-102.62 160.46,-105.49 169.9,-108.17 178.96,-110.54"/>
<polygon fill="#63b8ff" stroke="#63b8ff" points="93.02,-76.13 82.45,-75.34 90.22,-82.55 93.02,-76.13"/>
</a>
</g>
</g>
<!-- Node3 -->
<g id="Node000003" class="node">
<title>Node3</title>
<g id="a_Node000003"><a xlink:href="classllvm_1_1AArch64Disassembler.html" target="_top" xlink:title=" ">
<polygon fill="white" stroke="#666666" points="292.62,-93.25 155.12,-93.25 155.12,-74 292.62,-74 292.62,-93.25"/>
<text xml:space="preserve" text-anchor="middle" x="223.88" y="-79.75" font-family="Helvetica,sans-Serif" font-size="10.00">llvm::AArch64Disassembler</text>
</a>
</g>
</g>
<!-- Node1&#45;&gt;Node3 -->
<g id="edge2_Node000001_Node000003" class="edge">
<title>Node1&#45;&gt;Node3</title>
<g id="a_edge2_Node000001_Node000003"><a xlink:title=" ">
<path fill="none" stroke="#63b8ff" d="M127.53,-72.58C136.56,-73.63 145.82,-74.7 154.85,-75.74"/>
<polygon fill="#63b8ff" stroke="#63b8ff" points="128.07,-69.12 117.74,-71.44 127.27,-76.07 128.07,-69.12"/>
</a>
</g>
</g>
<!-- Node4 -->
<g id="Node000004" class="node">
<title>Node4</title>
<g id="a_Node000004"><a xlink:href="classllvm_1_1AMDGPUDisassembler.html" target="_top" xlink:title=" ">
<polygon fill="white" stroke="#666666" points="296,-56.25 151.75,-56.25 151.75,-37 296,-37 296,-56.25"/>
<text xml:space="preserve" text-anchor="middle" x="223.88" y="-42.75" font-family="Helvetica,sans-Serif" font-size="10.00">llvm::AMDGPUDisassembler</text>
</a>
</g>
</g>
<!-- Node1&#45;&gt;Node4 -->
<g id="edge3_Node000001_Node000004" class="edge">
<title>Node1&#45;&gt;Node4</title>
<g id="a_edge3_Node000001_Node000004"><a xlink:title=" ">
<path fill="none" stroke="#63b8ff" d="M127.61,-57.08C135.48,-56.22 143.51,-55.34 151.42,-54.47"/>
<polygon fill="#63b8ff" stroke="#63b8ff" points="127.3,-53.59 117.74,-58.16 128.06,-60.55 127.3,-53.59"/>
</a>
</g>
</g>
<!-- Node5 -->
<g id="Node000005" class="node">
<title>Node5</title>
<g id="a_Node000005"><a xlink:href="classllvm_1_1LanaiDisassembler.html" target="_top" xlink:title=" ">
<polygon fill="white" stroke="#666666" points="285.5,-19.25 162.25,-19.25 162.25,0 285.5,0 285.5,-19.25"/>
<text xml:space="preserve" text-anchor="middle" x="223.88" y="-5.75" font-family="Helvetica,sans-Serif" font-size="10.00">llvm::LanaiDisassembler</text>
</a>
</g>
</g>
<!-- Node1&#45;&gt;Node5 -->
<g id="edge4_Node000001_Node000005" class="edge">
<title>Node1&#45;&gt;Node5</title>
<g id="a_edge4_Node000001_Node000005"><a xlink:title=" ">
<path fill="none" stroke="#63b8ff" d="M91.78,-50.29C109.37,-42.94 131.51,-34.19 151.75,-27.62 160.6,-24.76 170.18,-22.06 179.36,-19.67"/>
<polygon fill="#63b8ff" stroke="#63b8ff" points="90.71,-46.94 82.86,-54.07 93.44,-53.39 90.71,-46.94"/>
</a>
</g>
</g>
</g>
</svg>
