<?xml version="1.0" encoding="UTF-8" standalone="no"?>
<!DOCTYPE svg PUBLIC "-//W3C//DTD SVG 1.1//EN"
 "http://www.w3.org/Graphics/SVG/1.1/DTD/svg11.dtd">
<!-- Generated by graphviz version 13.1.2 (20250808.2320)
 -->
<!-- Title: llvm::PBQP::Matrix Pages: 1 -->
<svg width="199pt" height="179pt"
 viewBox="0.00 0.00 199.00 179.00" xmlns="http://www.w3.org/2000/svg" xmlns:xlink="http://www.w3.org/1999/xlink">
<g id="graph0" class="graph" transform="scale(1 1) rotate(0) translate(4 174.5)">
<title>llvm::PBQP::Matrix</title>
<!-- Node1 -->
<g id="Node000001" class="node">
<title>Node1</title>
<g id="a_Node000001"><a xlink:title="PBQP Matrix class.">
<polygon fill="#999999" stroke="#666666" points="119.62,-170.5 18.88,-170.5 18.88,-151.25 119.62,-151.25 119.62,-170.5"/>
<text xml:space="preserve" text-anchor="middle" x="69.25" y="-157" font-family="Helvetica,sans-Serif" font-size="10.00">llvm::PBQP::Matrix</text>
</a>
</g>
</g>
<!-- Node2 -->
<g id="Node000002" class="node">
<title>Node2</title>
<g id="a_Node000002"><a xlink:href="classllvm_1_1PBQP_1_1MDMatrix.html" target="_top" xlink:title=" ">
<polygon fill="white" stroke="#666666" points="116.5,-30.5 0,-30.5 0,0 116.5,0 116.5,-30.5"/>
<text xml:space="preserve" text-anchor="start" x="8" y="-17" font-family="Helvetica,sans-Serif" font-size="10.00">llvm::PBQP::MDMatrix</text>
<text xml:space="preserve" text-anchor="middle" x="58.25" y="-5.75" font-family="Helvetica,sans-Serif" font-size="10.00">&lt; MatrixMetadata &gt;</text>
</a>
</g>
</g>
<!-- Node1&#45;&gt;Node2 -->
<g id="edge1_Node000001_Node000002" class="edge">
<title>Node1&#45;&gt;Node2</title>
<g id="a_edge1_Node000001_Node000002"><a xlink:title=" ">
<path fill="none" stroke="#63b8ff" d="M65.08,-139.75C63.61,-131.83 62.11,-122.65 61.25,-114.25 58.23,-84.79 57.93,-50.1 58.05,-30.9"/>
<polygon fill="#63b8ff" stroke="#63b8ff" points="61.61,-140.22 66.98,-149.35 68.48,-138.87 61.61,-140.22"/>
</a>
</g>
</g>
<!-- Node3 -->
<g id="Node000003" class="node">
<title>Node3</title>
<g id="a_Node000003"><a xlink:href="classllvm_1_1PBQP_1_1MDMatrix.html" target="_top" xlink:title=" ">
<polygon fill="white" stroke="#666666" points="186.5,-114.25 70,-114.25 70,-83.75 186.5,-83.75 186.5,-114.25"/>
<text xml:space="preserve" text-anchor="start" x="78" y="-100.75" font-family="Helvetica,sans-Serif" font-size="10.00">llvm::PBQP::MDMatrix</text>
<text xml:space="preserve" text-anchor="middle" x="128.25" y="-89.5" font-family="Helvetica,sans-Serif" font-size="10.00">&lt; Metadata &gt;</text>
</a>
</g>
</g>
<!-- Node1&#45;&gt;Node3 -->
<g id="edge2_Node000001_Node000003" class="edge">
<title>Node1&#45;&gt;Node3</title>
<g id="a_edge2_Node000001_Node000003"><a xlink:title=" ">
<path fill="none" stroke="#63b8ff" d="M86.28,-142.59C95.11,-133.63 105.78,-122.81 114.14,-114.32"/>
<polygon fill="#63b8ff" stroke="#63b8ff" points="83.8,-140.12 79.27,-149.7 88.79,-145.04 83.8,-140.12"/>
</a>
</g>
</g>
<!-- Node3&#45;&gt;Node2 -->
<g id="edge3_Node000003_Node000002" class="edge">
<title>Node3&#45;&gt;Node2</title>
<g id="a_edge3_Node000003_Node000002"><a xlink:title=" ">
<path fill="none" stroke="orange" stroke-dasharray="5,2" d="M108.28,-74.68C96.16,-60.53 81.08,-42.91 70.66,-30.74"/>
<polygon fill="orange" stroke="orange" points="105.59,-76.92 114.75,-82.24 110.91,-72.36 105.59,-76.92"/>
</a>
</g>
<text xml:space="preserve" text-anchor="start" x="102.52" y="-53.25" font-family="Helvetica,sans-Serif" font-size="10.00" fill="grey">&lt; MatrixMetadata &gt;</text>
</g>
</g>
</svg>
