<?xml version="1.0" encoding="UTF-8" standalone="no"?>
<!DOCTYPE svg PUBLIC "-//W3C//DTD SVG 1.1//EN"
 "http://www.w3.org/Graphics/SVG/1.1/DTD/svg11.dtd">
<!-- Generated by graphviz version 13.1.2 (20250808.2320)
 -->
<!-- Title: llvm::sandboxir::ExtractValueInst Pages: 1 -->
<svg width="299pt" height="415pt"
 viewBox="0.00 0.00 299.00 415.00" xmlns="http://www.w3.org/2000/svg" xmlns:xlink="http://www.w3.org/1999/xlink">
<g id="graph0" class="graph" transform="scale(1 1) rotate(0) translate(4 410.75)">
<title>llvm::sandboxir::ExtractValueInst</title>
<!-- Node1 -->
<g id="Node000001" class="node">
<title>Node1</title>
<g id="a_Node000001"><a xlink:title=" ">
<polygon fill="#999999" stroke="#666666" points="152.5,-30.5 33,-30.5 33,0 152.5,0 152.5,-30.5"/>
<text xml:space="preserve" text-anchor="start" x="41" y="-17" font-family="Helvetica,sans-Serif" font-size="10.00">llvm::sandboxir::Extract</text>
<text xml:space="preserve" text-anchor="middle" x="92.75" y="-5.75" font-family="Helvetica,sans-Serif" font-size="10.00">ValueInst</text>
</a>
</g>
</g>
<!-- Node2 -->
<g id="Node000002" class="node">
<title>Node2</title>
<g id="a_Node000002"><a xlink:href="classllvm_1_1sandboxir_1_1UnaryInstruction.html" target="_top" xlink:title="An abstract class, parent of unary instructions.">
<polygon fill="white" stroke="#666666" points="172.75,-86.75 12.75,-86.75 12.75,-67.5 172.75,-67.5 172.75,-86.75"/>
<text xml:space="preserve" text-anchor="middle" x="92.75" y="-73.25" font-family="Helvetica,sans-Serif" font-size="10.00">llvm::sandboxir::UnaryInstruction</text>
</a>
</g>
</g>
<!-- Node2&#45;&gt;Node1 -->
<g id="edge1_Node000001_Node000002" class="edge">
<title>Node2&#45;&gt;Node1</title>
<g id="a_edge1_Node000001_Node000002"><a xlink:title=" ">
<path fill="none" stroke="#63b8ff" d="M92.75,-55.69C92.75,-47.43 92.75,-38.09 92.75,-30.57"/>
<polygon fill="#63b8ff" stroke="#63b8ff" points="89.25,-55.52 92.75,-65.52 96.25,-55.52 89.25,-55.52"/>
</a>
</g>
</g>
<!-- Node3 -->
<g id="Node000003" class="node">
<title>Node3</title>
<g id="a_Node000003"><a xlink:href="classllvm_1_1sandboxir_1_1SingleLLVMInstructionImpl.html" target="_top" xlink:title=" ">
<polygon fill="white" stroke="#666666" points="185.5,-154.25 0,-154.25 0,-123.75 185.5,-123.75 185.5,-154.25"/>
<text xml:space="preserve" text-anchor="start" x="8" y="-140.75" font-family="Helvetica,sans-Serif" font-size="10.00">llvm::sandboxir::SingleLLVMInstruction</text>
<text xml:space="preserve" text-anchor="middle" x="92.75" y="-129.5" font-family="Helvetica,sans-Serif" font-size="10.00">Impl&lt; llvm::UnaryInstruction &gt;</text>
</a>
</g>
</g>
<!-- Node3&#45;&gt;Node2 -->
<g id="edge2_Node000002_Node000003" class="edge">
<title>Node3&#45;&gt;Node2</title>
<g id="a_edge2_Node000002_Node000003"><a xlink:title=" ">
<path fill="none" stroke="#63b8ff" d="M92.75,-112.27C92.75,-103.29 92.75,-93.79 92.75,-87.1"/>
<polygon fill="#63b8ff" stroke="#63b8ff" points="89.25,-111.99 92.75,-121.99 96.25,-111.99 89.25,-111.99"/>
</a>
</g>
</g>
<!-- Node4 -->
<g id="Node000004" class="node">
<title>Node4</title>
<g id="a_Node000004"><a xlink:href="classllvm_1_1sandboxir_1_1Instruction.html" target="_top" xlink:title="A sandboxir::User with operands, opcode and linked with previous/next instructions in an instruction ...">
<polygon fill="white" stroke="#666666" points="155.62,-294.25 21.88,-294.25 21.88,-275 155.62,-275 155.62,-294.25"/>
<text xml:space="preserve" text-anchor="middle" x="88.75" y="-280.75" font-family="Helvetica,sans-Serif" font-size="10.00">llvm::sandboxir::Instruction</text>
</a>
</g>
</g>
<!-- Node4&#45;&gt;Node3 -->
<g id="edge3_Node000003_Node000004" class="edge">
<title>Node4&#45;&gt;Node3</title>
<g id="a_edge3_Node000003_Node000004"><a xlink:title=" ">
<path fill="none" stroke="#63b8ff" d="M89.32,-263.34C90.14,-233.87 91.64,-179.96 92.35,-154.3"/>
<polygon fill="#63b8ff" stroke="#63b8ff" points="85.82,-263.03 89.04,-273.13 92.82,-263.23 85.82,-263.03"/>
</a>
</g>
</g>
<!-- Node7 -->
<g id="Node000007" class="node">
<title>Node7</title>
<g id="a_Node000007"><a xlink:href="classllvm_1_1sandboxir_1_1SingleLLVMInstructionImpl.html" target="_top" xlink:title="Instructions that contain a single LLVM Instruction can inherit from this.">
<polygon fill="white" stroke="#666666" points="290.5,-238 105,-238 105,-207.5 290.5,-207.5 290.5,-238"/>
<text xml:space="preserve" text-anchor="start" x="113" y="-224.5" font-family="Helvetica,sans-Serif" font-size="10.00">llvm::sandboxir::SingleLLVMInstruction</text>
<text xml:space="preserve" text-anchor="middle" x="197.75" y="-213.25" font-family="Helvetica,sans-Serif" font-size="10.00">Impl&lt; LLVMT &gt;</text>
</a>
</g>
</g>
<!-- Node4&#45;&gt;Node7 -->
<g id="edge7_Node000007_Node000004" class="edge">
<title>Node4&#45;&gt;Node7</title>
<g id="a_edge7_Node000007_Node000004"><a xlink:title=" ">
<path fill="none" stroke="#63b8ff" d="M115.16,-269.12C132.18,-259.77 154.23,-247.65 171.27,-238.3"/>
<polygon fill="#63b8ff" stroke="#63b8ff" points="113.71,-265.92 106.63,-273.8 117.08,-272.06 113.71,-265.92"/>
</a>
</g>
</g>
<!-- Node5 -->
<g id="Node000005" class="node">
<title>Node5</title>
<g id="a_Node000005"><a xlink:href="classllvm_1_1sandboxir_1_1User.html" target="_top" xlink:title="A sandboxir::User has operands.">
<polygon fill="white" stroke="#666666" points="143.25,-350.5 34.25,-350.5 34.25,-331.25 143.25,-331.25 143.25,-350.5"/>
<text xml:space="preserve" text-anchor="middle" x="88.75" y="-337" font-family="Helvetica,sans-Serif" font-size="10.00">llvm::sandboxir::User</text>
</a>
</g>
</g>
<!-- Node5&#45;&gt;Node4 -->
<g id="edge4_Node000004_Node000005" class="edge">
<title>Node5&#45;&gt;Node4</title>
<g id="a_edge4_Node000004_Node000005"><a xlink:title=" ">
<path fill="none" stroke="#63b8ff" d="M88.75,-319.69C88.75,-310.98 88.75,-301.24 88.75,-294.42"/>
<polygon fill="#63b8ff" stroke="#63b8ff" points="85.25,-319.4 88.75,-329.4 92.25,-319.4 85.25,-319.4"/>
</a>
</g>
</g>
<!-- Node6 -->
<g id="Node000006" class="node">
<title>Node6</title>
<g id="a_Node000006"><a xlink:href="classllvm_1_1sandboxir_1_1Value.html" target="_top" xlink:title="A SandboxIR Value has users. This is the base class.">
<polygon fill="white" stroke="#666666" points="144.75,-406.75 32.75,-406.75 32.75,-387.5 144.75,-387.5 144.75,-406.75"/>
<text xml:space="preserve" text-anchor="middle" x="88.75" y="-393.25" font-family="Helvetica,sans-Serif" font-size="10.00">llvm::sandboxir::Value</text>
</a>
</g>
</g>
<!-- Node6&#45;&gt;Node5 -->
<g id="edge5_Node000005_Node000006" class="edge">
<title>Node6&#45;&gt;Node5</title>
<g id="a_edge5_Node000005_Node000006"><a xlink:title=" ">
<path fill="none" stroke="#63b8ff" d="M88.75,-375.94C88.75,-367.23 88.75,-357.49 88.75,-350.67"/>
<polygon fill="#63b8ff" stroke="#63b8ff" points="85.25,-375.65 88.75,-385.65 92.25,-375.65 85.25,-375.65"/>
</a>
</g>
</g>
<!-- Node7&#45;&gt;Node3 -->
<g id="edge6_Node000003_Node000007" class="edge">
<title>Node7&#45;&gt;Node3</title>
<g id="a_edge6_Node000003_Node000007"><a xlink:title=" ">
<path fill="none" stroke="orange" stroke-dasharray="5,2" d="M170.11,-200.23C151.57,-185.8 127.66,-167.18 111.36,-154.49"/>
<polygon fill="orange" stroke="orange" points="167.74,-202.82 177.78,-206.2 172.04,-197.3 167.74,-202.82"/>
</a>
</g>
<text xml:space="preserve" text-anchor="start" x="157.65" y="-177" font-family="Helvetica,sans-Serif" font-size="10.00" fill="grey">&lt; llvm::UnaryInstruction &gt;</text>
</g>
</g>
</svg>
