<?xml version="1.0" encoding="UTF-8" standalone="no"?>
<!DOCTYPE svg PUBLIC "-//W3C//DTD SVG 1.1//EN"
 "http://www.w3.org/Graphics/SVG/1.1/DTD/svg11.dtd">
<!-- Generated by graphviz version 13.1.2 (20250808.2320)
 -->
<!-- Title: llvm::objcarc::PtrState Pages: 1 -->
<svg width="292pt" height="94pt"
 viewBox="0.00 0.00 292.00 94.00" xmlns="http://www.w3.org/2000/svg" xmlns:xlink="http://www.w3.org/1999/xlink">
<g id="graph0" class="graph" transform="scale(1 1) rotate(0) translate(4 89.75)">
<title>llvm::objcarc::PtrState</title>
<!-- Node1 -->
<g id="Node000001" class="node">
<title>Node1</title>
<g id="a_Node000001"><a xlink:title="This class summarizes several per&#45;pointer runtime properties which are propagated through the flow gr...">
<polygon fill="#999999" stroke="#666666" points="199,-85.75 85.5,-85.75 85.5,-66.5 199,-66.5 199,-85.75"/>
<text xml:space="preserve" text-anchor="middle" x="142.25" y="-72.25" font-family="Helvetica,sans-Serif" font-size="10.00">llvm::objcarc::PtrState</text>
</a>
</g>
</g>
<!-- Node2 -->
<g id="Node000002" class="node">
<title>Node2</title>
<g id="a_Node000002"><a xlink:href="structllvm_1_1objcarc_1_1BottomUpPtrState.html" target="_top" xlink:title=" ">
<polygon fill="white" stroke="#666666" points="134.5,-30.5 0,-30.5 0,0 134.5,0 134.5,-30.5"/>
<text xml:space="preserve" text-anchor="start" x="8" y="-17" font-family="Helvetica,sans-Serif" font-size="10.00">llvm::objcarc::BottomUpPtr</text>
<text xml:space="preserve" text-anchor="middle" x="67.25" y="-5.75" font-family="Helvetica,sans-Serif" font-size="10.00">State</text>
</a>
</g>
</g>
<!-- Node1&#45;&gt;Node2 -->
<g id="edge1_Node000001_Node000002" class="edge">
<title>Node1&#45;&gt;Node2</title>
<g id="a_edge1_Node000001_Node000002"><a xlink:title=" ">
<path fill="none" stroke="#63b8ff" d="M122.12,-59.32C110.81,-50.45 96.8,-39.44 85.76,-30.78"/>
<polygon fill="#63b8ff" stroke="#63b8ff" points="119.64,-61.83 129.67,-65.25 123.96,-56.32 119.64,-61.83"/>
</a>
</g>
</g>
<!-- Node3 -->
<g id="Node000003" class="node">
<title>Node3</title>
<g id="a_Node000003"><a xlink:href="structllvm_1_1objcarc_1_1TopDownPtrState.html" target="_top" xlink:title=" ">
<polygon fill="white" stroke="#666666" points="284,-30.5 152.5,-30.5 152.5,0 284,0 284,-30.5"/>
<text xml:space="preserve" text-anchor="start" x="160.5" y="-17" font-family="Helvetica,sans-Serif" font-size="10.00">llvm::objcarc::TopDownPtr</text>
<text xml:space="preserve" text-anchor="middle" x="218.25" y="-5.75" font-family="Helvetica,sans-Serif" font-size="10.00">State</text>
</a>
</g>
</g>
<!-- Node1&#45;&gt;Node3 -->
<g id="edge2_Node000001_Node000003" class="edge">
<title>Node1&#45;&gt;Node3</title>
<g id="a_edge2_Node000001_Node000003"><a xlink:title=" ">
<path fill="none" stroke="#63b8ff" d="M162.65,-59.32C174.11,-50.45 188.31,-39.44 199.49,-30.78"/>
<polygon fill="#63b8ff" stroke="#63b8ff" points="160.75,-56.37 154.99,-65.26 165.04,-61.9 160.75,-56.37"/>
</a>
</g>
</g>
</g>
</svg>
