<?xml version="1.0" encoding="UTF-8" standalone="no"?>
<!DOCTYPE svg PUBLIC "-//W3C//DTD SVG 1.1//EN"
 "http://www.w3.org/Graphics/SVG/1.1/DTD/svg11.dtd">
<!-- Generated by graphviz version 13.1.2 (20250808.2320)
 -->
<!-- Title: llvm::HexagonConvergingVLIWScheduler Pages: 1 -->
<svg width="205pt" height="138pt"
 viewBox="0.00 0.00 205.00 138.00" xmlns="http://www.w3.org/2000/svg" xmlns:xlink="http://www.w3.org/1999/xlink">
<g id="graph0" class="graph" transform="scale(1 1) rotate(0) translate(4 133.75)">
<title>llvm::HexagonConvergingVLIWScheduler</title>
<!-- Node1 -->
<g id="Node000001" class="node">
<title>Node1</title>
<g id="a_Node000001"><a xlink:title=" ">
<polygon fill="#999999" stroke="#666666" points="196.75,-19.25 0,-19.25 0,0 196.75,0 196.75,-19.25"/>
<text xml:space="preserve" text-anchor="middle" x="98.38" y="-5.75" font-family="Helvetica,sans-Serif" font-size="10.00">llvm::HexagonConvergingVLIWScheduler</text>
</a>
</g>
</g>
<!-- Node2 -->
<g id="Node000002" class="node">
<title>Node2</title>
<g id="a_Node000002"><a xlink:href="classllvm_1_1ConvergingVLIWScheduler.html" target="_top" xlink:title=" ">
<polygon fill="white" stroke="#666666" points="177.25,-74.5 19.5,-74.5 19.5,-55.25 177.25,-55.25 177.25,-74.5"/>
<text xml:space="preserve" text-anchor="middle" x="98.38" y="-61" font-family="Helvetica,sans-Serif" font-size="10.00">llvm::ConvergingVLIWScheduler</text>
</a>
</g>
</g>
<!-- Node2&#45;&gt;Node1 -->
<g id="edge1_Node000001_Node000002" class="edge">
<title>Node2&#45;&gt;Node1</title>
<g id="a_edge1_Node000001_Node000002"><a xlink:title=" ">
<path fill="none" stroke="#63b8ff" d="M98.38,-43.63C98.38,-35.34 98.38,-26.17 98.38,-19.61"/>
<polygon fill="#63b8ff" stroke="#63b8ff" points="94.88,-43.57 98.38,-53.57 101.88,-43.57 94.88,-43.57"/>
</a>
</g>
</g>
<!-- Node3 -->
<g id="Node000003" class="node">
<title>Node3</title>
<g id="a_Node000003"><a xlink:href="classllvm_1_1MachineSchedStrategy.html" target="_top" xlink:title="MachineSchedStrategy &#45; Interface to the scheduling algorithm used by ScheduleDAGMI.">
<polygon fill="white" stroke="#666666" points="169,-129.75 27.75,-129.75 27.75,-110.5 169,-110.5 169,-129.75"/>
<text xml:space="preserve" text-anchor="middle" x="98.38" y="-116.25" font-family="Helvetica,sans-Serif" font-size="10.00">llvm::MachineSchedStrategy</text>
</a>
</g>
</g>
<!-- Node3&#45;&gt;Node2 -->
<g id="edge2_Node000002_Node000003" class="edge">
<title>Node3&#45;&gt;Node2</title>
<g id="a_edge2_Node000002_Node000003"><a xlink:title=" ">
<path fill="none" stroke="#63b8ff" d="M98.38,-98.88C98.38,-90.59 98.38,-81.42 98.38,-74.86"/>
<polygon fill="#63b8ff" stroke="#63b8ff" points="94.88,-98.82 98.38,-108.82 101.88,-98.82 94.88,-98.82"/>
</a>
</g>
</g>
</g>
</svg>
