<?xml version="1.0" encoding="UTF-8" standalone="no"?>
<!DOCTYPE svg PUBLIC "-//W3C//DTD SVG 1.1//EN"
 "http://www.w3.org/Graphics/SVG/1.1/DTD/svg11.dtd">
<!-- Generated by graphviz version 13.1.2 (20250808.2320)
 -->
<!-- Title: llvm::raw_pwrite_stream Pages: 1 -->
<svg width="454pt" height="260pt"
 viewBox="0.00 0.00 454.00 260.00" xmlns="http://www.w3.org/2000/svg" xmlns:xlink="http://www.w3.org/1999/xlink">
<g id="graph0" class="graph" transform="scale(1 1) rotate(0) translate(4 255.5)">
<title>llvm::raw_pwrite_stream</title>
<!-- Node1 -->
<g id="Node000001" class="node">
<title>Node1</title>
<g id="a_Node000001"><a xlink:title="An abstract base class for streams implementations that also support a pwrite operation.">
<polygon fill="#999999" stroke="#666666" points="255,-196.25 132.5,-196.25 132.5,-177 255,-177 255,-196.25"/>
<text xml:space="preserve" text-anchor="middle" x="193.75" y="-182.75" font-family="Helvetica,sans-Serif" font-size="10.00">llvm::raw_pwrite_stream</text>
</a>
</g>
</g>
<!-- Node3 -->
<g id="Node000003" class="node">
<title>Node3</title>
<g id="a_Node000003"><a xlink:href="classllvm_1_1raw__fd__ostream.html" target="_top" xlink:title="A raw_ostream that writes to a file descriptor.">
<polygon fill="white" stroke="#666666" points="117.62,-141 7.88,-141 7.88,-121.75 117.62,-121.75 117.62,-141"/>
<text xml:space="preserve" text-anchor="middle" x="62.75" y="-127.5" font-family="Helvetica,sans-Serif" font-size="10.00">llvm::raw_fd_ostream</text>
</a>
</g>
</g>
<!-- Node1&#45;&gt;Node3 -->
<g id="edge2_Node000001_Node000003" class="edge">
<title>Node1&#45;&gt;Node3</title>
<g id="a_edge2_Node000001_Node000003"><a xlink:title=" ">
<path fill="none" stroke="#63b8ff" d="M160.93,-172.28C137.25,-162.66 105.91,-149.92 85.08,-141.45"/>
<polygon fill="#63b8ff" stroke="#63b8ff" points="159.54,-175.5 170.13,-176.02 162.18,-169.01 159.54,-175.5"/>
</a>
</g>
</g>
<!-- Node6 -->
<g id="Node000006" class="node">
<title>Node6</title>
<g id="a_Node000006"><a xlink:href="classllvm_1_1raw__null__ostream.html" target="_top" xlink:title="A raw_ostream that discards all output.">
<polygon fill="white" stroke="#666666" points="252,-141 135.5,-141 135.5,-121.75 252,-121.75 252,-141"/>
<text xml:space="preserve" text-anchor="middle" x="193.75" y="-127.5" font-family="Helvetica,sans-Serif" font-size="10.00">llvm::raw_null_ostream</text>
</a>
</g>
</g>
<!-- Node1&#45;&gt;Node6 -->
<g id="edge5_Node000001_Node000006" class="edge">
<title>Node1&#45;&gt;Node6</title>
<g id="a_edge5_Node000001_Node000006"><a xlink:title=" ">
<path fill="none" stroke="#63b8ff" d="M193.75,-165.38C193.75,-157.09 193.75,-147.92 193.75,-141.36"/>
<polygon fill="#63b8ff" stroke="#63b8ff" points="190.25,-165.32 193.75,-175.32 197.25,-165.32 190.25,-165.32"/>
</a>
</g>
</g>
<!-- Node7 -->
<g id="Node000007" class="node">
<title>Node7</title>
<g id="a_Node000007"><a xlink:href="classllvm_1_1raw__svector__ostream.html" target="_top" xlink:title="A raw_ostream that writes to an SmallVector or SmallString.">
<polygon fill="white" stroke="#666666" points="403.62,-141 269.88,-141 269.88,-121.75 403.62,-121.75 403.62,-141"/>
<text xml:space="preserve" text-anchor="middle" x="336.75" y="-127.5" font-family="Helvetica,sans-Serif" font-size="10.00">llvm::raw_svector_ostream</text>
</a>
</g>
</g>
<!-- Node1&#45;&gt;Node7 -->
<g id="edge6_Node000001_Node000007" class="edge">
<title>Node1&#45;&gt;Node7</title>
<g id="a_edge6_Node000001_Node000007"><a xlink:title=" ">
<path fill="none" stroke="#63b8ff" d="M228.53,-172.67C254.5,-163 289.32,-150.04 312.37,-141.45"/>
<polygon fill="#63b8ff" stroke="#63b8ff" points="227.58,-169.29 219.43,-176.06 230.02,-175.85 227.58,-169.29"/>
</a>
</g>
</g>
<!-- Node2 -->
<g id="Node000002" class="node">
<title>Node2</title>
<g id="a_Node000002"><a xlink:href="classllvm_1_1raw__ostream.html" target="_top" xlink:title="This class implements an extremely fast bulk output stream that can only output to a stream.">
<polygon fill="white" stroke="#666666" points="241.88,-251.5 145.62,-251.5 145.62,-232.25 241.88,-232.25 241.88,-251.5"/>
<text xml:space="preserve" text-anchor="middle" x="193.75" y="-238" font-family="Helvetica,sans-Serif" font-size="10.00">llvm::raw_ostream</text>
</a>
</g>
</g>
<!-- Node2&#45;&gt;Node1 -->
<g id="edge1_Node000001_Node000002" class="edge">
<title>Node2&#45;&gt;Node1</title>
<g id="a_edge1_Node000001_Node000002"><a xlink:title=" ">
<path fill="none" stroke="#63b8ff" d="M193.75,-220.63C193.75,-212.34 193.75,-203.17 193.75,-196.61"/>
<polygon fill="#63b8ff" stroke="#63b8ff" points="190.25,-220.57 193.75,-230.57 197.25,-220.57 190.25,-220.57"/>
</a>
</g>
</g>
<!-- Node4 -->
<g id="Node000004" class="node">
<title>Node4</title>
<g id="a_Node000004"><a xlink:href="classllvm_1_1raw__fd__stream.html" target="_top" xlink:title="A raw_ostream of a file for reading/writing/seeking.">
<polygon fill="white" stroke="#666666" points="115,-80.12 10.5,-80.12 10.5,-60.88 115,-60.88 115,-80.12"/>
<text xml:space="preserve" text-anchor="middle" x="62.75" y="-66.62" font-family="Helvetica,sans-Serif" font-size="10.00">llvm::raw_fd_stream</text>
</a>
</g>
</g>
<!-- Node3&#45;&gt;Node4 -->
<g id="edge3_Node000003_Node000004" class="edge">
<title>Node3&#45;&gt;Node4</title>
<g id="a_edge3_Node000003_Node000004"><a xlink:title=" ">
<path fill="none" stroke="#63b8ff" d="M62.75,-109.95C62.75,-99.92 62.75,-88.33 62.75,-80.53"/>
<polygon fill="#63b8ff" stroke="#63b8ff" points="59.25,-109.92 62.75,-119.92 66.25,-109.92 59.25,-109.92"/>
</a>
</g>
</g>
<!-- Node5 -->
<g id="Node000005" class="node">
<title>Node5</title>
<g id="a_Node000005"><a xlink:href="classllvm_1_1raw__socket__stream.html" target="_top" xlink:title=" ">
<polygon fill="white" stroke="#666666" points="125.5,-19.25 0,-19.25 0,0 125.5,0 125.5,-19.25"/>
<text xml:space="preserve" text-anchor="middle" x="62.75" y="-5.75" font-family="Helvetica,sans-Serif" font-size="10.00">llvm::raw_socket_stream</text>
</a>
</g>
</g>
<!-- Node4&#45;&gt;Node5 -->
<g id="edge4_Node000004_Node000005" class="edge">
<title>Node4&#45;&gt;Node5</title>
<g id="a_edge4_Node000004_Node000005"><a xlink:title=" ">
<path fill="none" stroke="#63b8ff" d="M62.75,-49.07C62.75,-39.04 62.75,-27.46 62.75,-19.65"/>
<polygon fill="#63b8ff" stroke="#63b8ff" points="59.25,-49.04 62.75,-59.04 66.25,-49.04 59.25,-49.04"/>
</a>
</g>
</g>
<!-- Node8 -->
<g id="Node000008" class="node">
<title>Node8</title>
<g id="a_Node000008"><a xlink:href="classllvm_1_1buffer__ostream.html" target="_top" xlink:title=" ">
<polygon fill="white" stroke="#666666" points="329.38,-80.12 224.12,-80.12 224.12,-60.88 329.38,-60.88 329.38,-80.12"/>
<text xml:space="preserve" text-anchor="middle" x="276.75" y="-66.62" font-family="Helvetica,sans-Serif" font-size="10.00">llvm::buffer_ostream</text>
</a>
</g>
</g>
<!-- Node7&#45;&gt;Node8 -->
<g id="edge7_Node000007_Node000008" class="edge">
<title>Node7&#45;&gt;Node8</title>
<g id="a_edge7_Node000007_Node000008"><a xlink:title=" ">
<path fill="none" stroke="#63b8ff" d="M319.6,-113.55C308.65,-102.8 294.88,-89.29 285.95,-80.53"/>
<polygon fill="#63b8ff" stroke="#63b8ff" points="316.97,-115.87 326.56,-120.37 321.87,-110.87 316.97,-115.87"/>
</a>
</g>
</g>
<!-- Node9 -->
<g id="Node000009" class="node">
<title>Node9</title>
<g id="a_Node000009"><a xlink:href="classllvm_1_1buffer__unique__ostream.html" target="_top" xlink:title=" ">
<polygon fill="white" stroke="#666666" points="446,-85.75 347.5,-85.75 347.5,-55.25 446,-55.25 446,-85.75"/>
<text xml:space="preserve" text-anchor="start" x="355.5" y="-72.25" font-family="Helvetica,sans-Serif" font-size="10.00">llvm::buffer_unique</text>
<text xml:space="preserve" text-anchor="middle" x="396.75" y="-61" font-family="Helvetica,sans-Serif" font-size="10.00">_ostream</text>
</a>
</g>
</g>
<!-- Node7&#45;&gt;Node9 -->
<g id="edge8_Node000007_Node000009" class="edge">
<title>Node7&#45;&gt;Node9</title>
<g id="a_edge8_Node000007_Node000009"><a xlink:title=" ">
<path fill="none" stroke="#63b8ff" d="M353.95,-113.5C362.79,-104.82 373.47,-94.35 381.94,-86.03"/>
<polygon fill="#63b8ff" stroke="#63b8ff" points="351.63,-110.87 346.94,-120.37 356.53,-115.87 351.63,-110.87"/>
</a>
</g>
</g>
</g>
</svg>
