<?xml version="1.0" encoding="UTF-8" standalone="no"?>
<!DOCTYPE svg PUBLIC "-//W3C//DTD SVG 1.1//EN"
 "http://www.w3.org/Graphics/SVG/1.1/DTD/svg11.dtd">
<!-- Generated by graphviz version 13.1.2 (20250808.2320)
 -->
<!-- Title: llvm::Constant Pages: 1 -->
<svg width="820pt" height="730pt"
 viewBox="0.00 0.00 820.00 730.00" xmlns="http://www.w3.org/2000/svg" xmlns:xlink="http://www.w3.org/1999/xlink">
<g id="graph0" class="graph" transform="scale(1 1) rotate(0) translate(4 726.25)">
<title>llvm::Constant</title>
<!-- Node1 -->
<g id="Node000001" class="node">
<title>Node1</title>
<g id="a_Node000001"><a xlink:title="This is an important base class in LLVM.">
<polygon fill="#999999" stroke="#666666" points="276.75,-222.25 197,-222.25 197,-203 276.75,-203 276.75,-222.25"/>
<text xml:space="preserve" text-anchor="middle" x="236.88" y="-208.75" font-family="Helvetica,sans-Serif" font-size="10.00">llvm::Constant</text>
</a>
</g>
</g>
<!-- Node4 -->
<g id="Node000004" class="node">
<title>Node4</title>
<g id="a_Node000004"><a xlink:href="classllvm_1_1BlockAddress.html" target="_top" xlink:title="The address of a basic block.">
<polygon fill="white" stroke="#666666" points="428.5,-685.25 327.75,-685.25 327.75,-666 428.5,-666 428.5,-685.25"/>
<text xml:space="preserve" text-anchor="middle" x="378.12" y="-671.75" font-family="Helvetica,sans-Serif" font-size="10.00">llvm::BlockAddress</text>
</a>
</g>
</g>
<!-- Node1&#45;&gt;Node4 -->
<g id="edge3_Node000001_Node000004" class="edge">
<title>Node1&#45;&gt;Node4</title>
<g id="a_edge3_Node000001_Node000004"><a xlink:title=" ">
<path fill="none" stroke="#63b8ff" d="M238.53,-234.03C241.4,-313.99 255.44,-593.89 312.75,-657.62 316.79,-662.11 321.84,-665.52 327.33,-668.1"/>
<polygon fill="#63b8ff" stroke="#63b8ff" points="242.03,-233.99 238.2,-224.12 235.03,-234.23 242.03,-233.99"/>
</a>
</g>
</g>
<!-- Node5 -->
<g id="Node000005" class="node">
<title>Node5</title>
<g id="a_Node000005"><a xlink:href="classllvm_1_1ConstantAggregate.html" target="_top" xlink:title="Base class for aggregate constants (with operands).">
<polygon fill="white" stroke="#666666" points="440.12,-648.25 316.12,-648.25 316.12,-629 440.12,-629 440.12,-648.25"/>
<text xml:space="preserve" text-anchor="middle" x="378.12" y="-634.75" font-family="Helvetica,sans-Serif" font-size="10.00">llvm::ConstantAggregate</text>
</a>
</g>
</g>
<!-- Node1&#45;&gt;Node5 -->
<g id="edge4_Node000001_Node000005" class="edge">
<title>Node1&#45;&gt;Node5</title>
<g id="a_edge4_Node000001_Node000005"><a xlink:title=" ">
<path fill="none" stroke="#63b8ff" d="M243.26,-233.71C254.78,-278.22 283.18,-384.93 312.75,-472.62 332.99,-532.67 362.1,-603 372.89,-628.63"/>
<polygon fill="#63b8ff" stroke="#63b8ff" points="246.67,-232.92 240.79,-224.11 239.89,-234.66 246.67,-232.92"/>
</a>
</g>
</g>
<!-- Node9 -->
<g id="Node000009" class="node">
<title>Node9</title>
<g id="a_Node000009"><a xlink:href="classllvm_1_1ConstantData.html" target="_top" xlink:title="Base class for constants with no operands.">
<polygon fill="white" stroke="#666666" points="428.5,-463.25 327.75,-463.25 327.75,-444 428.5,-444 428.5,-463.25"/>
<text xml:space="preserve" text-anchor="middle" x="378.12" y="-449.75" font-family="Helvetica,sans-Serif" font-size="10.00">llvm::ConstantData</text>
</a>
</g>
</g>
<!-- Node1&#45;&gt;Node9 -->
<g id="edge8_Node000001_Node000009" class="edge">
<title>Node1&#45;&gt;Node9</title>
<g id="a_edge8_Node000001_Node000009"><a xlink:title=" ">
<path fill="none" stroke="#63b8ff" d="M249.3,-232.4C277.6,-281.38 350.2,-407.02 371.29,-443.53"/>
<polygon fill="#63b8ff" stroke="#63b8ff" points="252.47,-230.89 244.44,-223.98 246.41,-234.39 252.47,-230.89"/>
</a>
</g>
</g>
<!-- Node21 -->
<g id="Node000021" class="node">
<title>Node21</title>
<g id="a_Node000021"><a xlink:href="classllvm_1_1ConstantExpr.html" target="_top" xlink:title="A constant value that is initialized with an expression using other constant values.">
<polygon fill="white" stroke="#666666" points="428.12,-241.25 328.12,-241.25 328.12,-222 428.12,-222 428.12,-241.25"/>
<text xml:space="preserve" text-anchor="middle" x="378.12" y="-227.75" font-family="Helvetica,sans-Serif" font-size="10.00">llvm::ConstantExpr</text>
</a>
</g>
</g>
<!-- Node1&#45;&gt;Node21 -->
<g id="edge20_Node000001_Node000021" class="edge">
<title>Node1&#45;&gt;Node21</title>
<g id="a_edge20_Node000001_Node000021"><a xlink:title=" ">
<path fill="none" stroke="#63b8ff" d="M288.1,-219.48C301.03,-221.24 314.94,-223.14 327.83,-224.9"/>
<polygon fill="#63b8ff" stroke="#63b8ff" points="288.92,-216.06 278.53,-218.17 287.97,-222.99 288.92,-216.06"/>
</a>
</g>
</g>
<!-- Node28 -->
<g id="Node000028" class="node">
<title>Node28</title>
<g id="a_Node000028"><a xlink:href="classllvm_1_1ConstantPtrAuth.html" target="_top" xlink:title="A signed pointer, in the ptrauth sense.">
<polygon fill="white" stroke="#666666" points="434.5,-204.25 321.75,-204.25 321.75,-185 434.5,-185 434.5,-204.25"/>
<text xml:space="preserve" text-anchor="middle" x="378.12" y="-190.75" font-family="Helvetica,sans-Serif" font-size="10.00">llvm::ConstantPtrAuth</text>
</a>
</g>
</g>
<!-- Node1&#45;&gt;Node28 -->
<g id="edge27_Node000001_Node000028" class="edge">
<title>Node1&#45;&gt;Node28</title>
<g id="a_edge27_Node000001_Node000028"><a xlink:title=" ">
<path fill="none" stroke="#63b8ff" d="M288.36,-206.1C299.09,-204.71 310.47,-203.24 321.38,-201.83"/>
<polygon fill="#63b8ff" stroke="#63b8ff" points="288,-202.62 278.54,-207.37 288.9,-209.56 288,-202.62"/>
</a>
</g>
</g>
<!-- Node29 -->
<g id="Node000029" class="node">
<title>Node29</title>
<g id="a_Node000029"><a xlink:href="classllvm_1_1DSOLocalEquivalent.html" target="_top" xlink:title="Wrapper for a function that represents a value that functionally represents the original function.">
<polygon fill="white" stroke="#666666" points="443.5,-167.25 312.75,-167.25 312.75,-148 443.5,-148 443.5,-167.25"/>
<text xml:space="preserve" text-anchor="middle" x="378.12" y="-153.75" font-family="Helvetica,sans-Serif" font-size="10.00">llvm::DSOLocalEquivalent</text>
</a>
</g>
</g>
<!-- Node1&#45;&gt;Node29 -->
<g id="edge28_Node000001_Node000029" class="edge">
<title>Node1&#45;&gt;Node29</title>
<g id="a_edge28_Node000001_Node000029"><a xlink:title=" ">
<path fill="none" stroke="#63b8ff" d="M265.78,-197.29C279.63,-190.08 296.78,-181.74 312.75,-175.62 320.34,-172.72 328.59,-170.06 336.57,-167.72"/>
<polygon fill="#63b8ff" stroke="#63b8ff" points="264.44,-194.04 257.25,-201.81 267.72,-200.22 264.44,-194.04"/>
</a>
</g>
</g>
<!-- Node30 -->
<g id="Node000030" class="node">
<title>Node30</title>
<g id="a_Node000030"><a xlink:href="classllvm_1_1GlobalValue.html" target="_top" xlink:title=" ">
<polygon fill="white" stroke="#666666" points="424,-111.25 332.25,-111.25 332.25,-92 424,-92 424,-111.25"/>
<text xml:space="preserve" text-anchor="middle" x="378.12" y="-97.75" font-family="Helvetica,sans-Serif" font-size="10.00">llvm::GlobalValue</text>
</a>
</g>
</g>
<!-- Node1&#45;&gt;Node30 -->
<g id="edge29_Node000001_Node000030" class="edge">
<title>Node1&#45;&gt;Node30</title>
<g id="a_edge29_Node000001_Node000030"><a xlink:title=" ">
<path fill="none" stroke="#63b8ff" d="M253.92,-194.28C268.35,-178.43 290.62,-155.47 312.75,-138.62 326.5,-128.16 343.49,-118.52 356.56,-111.7"/>
<polygon fill="#63b8ff" stroke="#63b8ff" points="251.46,-191.79 247.4,-201.57 256.68,-196.45 251.46,-191.79"/>
</a>
</g>
</g>
<!-- Node36 -->
<g id="Node000036" class="node">
<title>Node36</title>
<g id="a_Node000036"><a xlink:href="classllvm_1_1NoCFIValue.html" target="_top" xlink:title="Wrapper for a value that won&#39;t be replaced with a CFI jump table pointer in LowerTypeTestsModule.">
<polygon fill="white" stroke="#666666" points="424.75,-74.25 331.5,-74.25 331.5,-55 424.75,-55 424.75,-74.25"/>
<text xml:space="preserve" text-anchor="middle" x="378.12" y="-60.75" font-family="Helvetica,sans-Serif" font-size="10.00">llvm::NoCFIValue</text>
</a>
</g>
</g>
<!-- Node1&#45;&gt;Node36 -->
<g id="edge35_Node000001_Node000036" class="edge">
<title>Node1&#45;&gt;Node36</title>
<g id="a_edge35_Node000001_Node000036"><a xlink:title=" ">
<path fill="none" stroke="#63b8ff" d="M244.21,-191.94C254.12,-163.1 276.04,-111.15 312.75,-82.62 318.16,-78.42 324.49,-75.2 331.04,-72.74"/>
<polygon fill="#63b8ff" stroke="#63b8ff" points="240.93,-190.72 241.16,-201.31 247.59,-192.88 240.93,-190.72"/>
</a>
</g>
</g>
<!-- Node2 -->
<g id="Node000002" class="node">
<title>Node2</title>
<g id="a_Node000002"><a xlink:href="classllvm_1_1User.html" target="_top" xlink:title=" ">
<polygon fill="white" stroke="#666666" points="161,-222.25 100,-222.25 100,-203 161,-203 161,-222.25"/>
<text xml:space="preserve" text-anchor="middle" x="130.5" y="-208.75" font-family="Helvetica,sans-Serif" font-size="10.00">llvm::User</text>
</a>
</g>
</g>
<!-- Node2&#45;&gt;Node1 -->
<g id="edge1_Node000001_Node000002" class="edge">
<title>Node2&#45;&gt;Node1</title>
<g id="a_edge1_Node000001_Node000002"><a xlink:title=" ">
<path fill="none" stroke="#63b8ff" d="M172.91,-212.62C180.72,-212.62 188.87,-212.62 196.61,-212.62"/>
<polygon fill="#63b8ff" stroke="#63b8ff" points="172.92,-209.13 162.92,-212.63 172.92,-216.13 172.92,-209.13"/>
</a>
</g>
</g>
<!-- Node3 -->
<g id="Node000003" class="node">
<title>Node3</title>
<g id="a_Node000003"><a xlink:href="classllvm_1_1Value.html" target="_top" xlink:title="LLVM Value Representation.">
<polygon fill="white" stroke="#666666" points="64,-222.25 0,-222.25 0,-203 64,-203 64,-222.25"/>
<text xml:space="preserve" text-anchor="middle" x="32" y="-208.75" font-family="Helvetica,sans-Serif" font-size="10.00">llvm::Value</text>
</a>
</g>
</g>
<!-- Node3&#45;&gt;Node2 -->
<g id="edge2_Node000002_Node000003" class="edge">
<title>Node3&#45;&gt;Node2</title>
<g id="a_edge2_Node000002_Node000003"><a xlink:title=" ">
<path fill="none" stroke="#63b8ff" d="M75.57,-212.62C83.68,-212.62 92.02,-212.62 99.64,-212.62"/>
<polygon fill="#63b8ff" stroke="#63b8ff" points="75.84,-209.13 65.84,-212.63 75.84,-216.13 75.84,-209.13"/>
</a>
</g>
</g>
<!-- Node6 -->
<g id="Node000006" class="node">
<title>Node6</title>
<g id="a_Node000006"><a xlink:href="classllvm_1_1ConstantArray.html" target="_top" xlink:title="ConstantArray &#45; Constant Array Declarations.">
<polygon fill="white" stroke="#666666" points="614.75,-722.25 511.75,-722.25 511.75,-703 614.75,-703 614.75,-722.25"/>
<text xml:space="preserve" text-anchor="middle" x="563.25" y="-708.75" font-family="Helvetica,sans-Serif" font-size="10.00">llvm::ConstantArray</text>
</a>
</g>
</g>
<!-- Node5&#45;&gt;Node6 -->
<g id="edge5_Node000005_Node000006" class="edge">
<title>Node5&#45;&gt;Node6</title>
<g id="a_edge5_Node000005_Node000006"><a xlink:title=" ">
<path fill="none" stroke="#63b8ff" d="M436.83,-653.02C439.12,-654.13 441.36,-655.33 443.5,-656.62 463.42,-668.64 459.23,-683.2 479.5,-694.62 489.23,-700.11 500.48,-703.93 511.49,-706.58"/>
<polygon fill="#63b8ff" stroke="#63b8ff" points="438.4,-649.88 427.82,-649.23 435.68,-656.33 438.4,-649.88"/>
</a>
</g>
</g>
<!-- Node7 -->
<g id="Node000007" class="node">
<title>Node7</title>
<g id="a_Node000007"><a xlink:href="classllvm_1_1ConstantStruct.html" target="_top" xlink:title=" ">
<polygon fill="white" stroke="#666666" points="616.25,-685.25 510.25,-685.25 510.25,-666 616.25,-666 616.25,-685.25"/>
<text xml:space="preserve" text-anchor="middle" x="563.25" y="-671.75" font-family="Helvetica,sans-Serif" font-size="10.00">llvm::ConstantStruct</text>
</a>
</g>
</g>
<!-- Node5&#45;&gt;Node7 -->
<g id="edge6_Node000005_Node000007" class="edge">
<title>Node5&#45;&gt;Node7</title>
<g id="a_edge6_Node000005_Node000007"><a xlink:title=" ">
<path fill="none" stroke="#63b8ff" d="M440.37,-651C463.73,-655.72 490.07,-661.04 512.27,-665.53"/>
<polygon fill="#63b8ff" stroke="#63b8ff" points="441.14,-647.59 430.65,-649.04 439.76,-654.45 441.14,-647.59"/>
</a>
</g>
</g>
<!-- Node8 -->
<g id="Node000008" class="node">
<title>Node8</title>
<g id="a_Node000008"><a xlink:href="classllvm_1_1ConstantVector.html" target="_top" xlink:title="Constant Vector Declarations.">
<polygon fill="white" stroke="#666666" points="617.38,-648.25 509.12,-648.25 509.12,-629 617.38,-629 617.38,-648.25"/>
<text xml:space="preserve" text-anchor="middle" x="563.25" y="-634.75" font-family="Helvetica,sans-Serif" font-size="10.00">llvm::ConstantVector</text>
</a>
</g>
</g>
<!-- Node5&#45;&gt;Node8 -->
<g id="edge7_Node000005_Node000008" class="edge">
<title>Node5&#45;&gt;Node8</title>
<g id="a_edge7_Node000005_Node000008"><a xlink:title=" ">
<path fill="none" stroke="#63b8ff" d="M451.96,-638.62C470.97,-638.62 491.1,-638.62 508.9,-638.62"/>
<polygon fill="#63b8ff" stroke="#63b8ff" points="452.13,-635.13 442.13,-638.63 452.13,-642.13 452.13,-635.13"/>
</a>
</g>
</g>
<!-- Node10 -->
<g id="Node000010" class="node">
<title>Node10</title>
<g id="a_Node000010"><a xlink:href="classllvm_1_1ConstantAggregateZero.html" target="_top" xlink:title="All zero aggregate value.">
<polygon fill="white" stroke="#666666" points="635,-611.25 491.5,-611.25 491.5,-592 635,-592 635,-611.25"/>
<text xml:space="preserve" text-anchor="middle" x="563.25" y="-597.75" font-family="Helvetica,sans-Serif" font-size="10.00">llvm::ConstantAggregateZero</text>
</a>
</g>
</g>
<!-- Node9&#45;&gt;Node10 -->
<g id="edge9_Node000009_Node000010" class="edge">
<title>Node9&#45;&gt;Node10</title>
<g id="a_edge9_Node000009_Node000010"><a xlink:title=" ">
<path fill="none" stroke="#63b8ff" d="M388.92,-473.9C404.08,-503.02 436.09,-556.19 479.5,-583.62 484.47,-586.77 489.91,-589.37 495.55,-591.52"/>
<polygon fill="#63b8ff" stroke="#63b8ff" points="392.08,-472.4 384.46,-465.04 385.83,-475.55 392.08,-472.4"/>
</a>
</g>
</g>
<!-- Node11 -->
<g id="Node000011" class="node">
<title>Node11</title>
<g id="a_Node000011"><a xlink:href="classllvm_1_1ConstantDataSequential.html" target="_top" xlink:title="ConstantDataSequential &#45; A vector or array constant whose element type is a simple 1/2/4/8&#45;byte integ...">
<polygon fill="white" stroke="#666666" points="636.5,-574.25 490,-574.25 490,-555 636.5,-555 636.5,-574.25"/>
<text xml:space="preserve" text-anchor="middle" x="563.25" y="-560.75" font-family="Helvetica,sans-Serif" font-size="10.00">llvm::ConstantDataSequential</text>
</a>
</g>
</g>
<!-- Node9&#45;&gt;Node11 -->
<g id="edge10_Node000009_Node000011" class="edge">
<title>Node9&#45;&gt;Node11</title>
<g id="a_edge10_Node000009_Node000011"><a xlink:title=" ">
<path fill="none" stroke="#63b8ff" d="M393.93,-472.41C411.85,-493.79 444.06,-528.14 479.5,-546.62 485.63,-549.82 492.29,-552.45 499.09,-554.61"/>
<polygon fill="#63b8ff" stroke="#63b8ff" points="396.74,-470.3 387.7,-464.77 391.31,-474.73 396.74,-470.3"/>
</a>
</g>
</g>
<!-- Node14 -->
<g id="Node000014" class="node">
<title>Node14</title>
<g id="a_Node000014"><a xlink:href="classllvm_1_1ConstantFP.html" target="_top" xlink:title="ConstantFP &#45; Floating Point Values [float, double].">
<polygon fill="white" stroke="#666666" points="609.5,-537.25 517,-537.25 517,-518 609.5,-518 609.5,-537.25"/>
<text xml:space="preserve" text-anchor="middle" x="563.25" y="-523.75" font-family="Helvetica,sans-Serif" font-size="10.00">llvm::ConstantFP</text>
</a>
</g>
</g>
<!-- Node9&#45;&gt;Node14 -->
<g id="edge13_Node000009_Node000014" class="edge">
<title>Node9&#45;&gt;Node14</title>
<g id="a_edge13_Node000009_Node000014"><a xlink:title=" ">
<path fill="none" stroke="#63b8ff" d="M403.17,-469.71C422.91,-482.25 452,-499.23 479.5,-509.62 491.33,-514.1 504.55,-517.6 516.89,-520.27"/>
<polygon fill="#63b8ff" stroke="#63b8ff" points="405.32,-466.94 395.02,-464.44 401.52,-472.81 405.32,-466.94"/>
</a>
</g>
</g>
<!-- Node15 -->
<g id="Node000015" class="node">
<title>Node15</title>
<g id="a_Node000015"><a xlink:href="classllvm_1_1ConstantInt.html" target="_top" xlink:title="This is the shared class of boolean and integer constants.">
<polygon fill="white" stroke="#666666" points="608.75,-500.25 517.75,-500.25 517.75,-481 608.75,-481 608.75,-500.25"/>
<text xml:space="preserve" text-anchor="middle" x="563.25" y="-486.75" font-family="Helvetica,sans-Serif" font-size="10.00">llvm::ConstantInt</text>
</a>
</g>
</g>
<!-- Node9&#45;&gt;Node15 -->
<g id="edge14_Node000009_Node000015" class="edge">
<title>Node9&#45;&gt;Node15</title>
<g id="a_edge14_Node000009_Node000015"><a xlink:title=" ">
<path fill="none" stroke="#63b8ff" d="M439.67,-465.86C465.02,-470.98 493.96,-476.83 517.35,-481.55"/>
<polygon fill="#63b8ff" stroke="#63b8ff" points="440.66,-462.49 430.16,-463.94 439.27,-469.35 440.66,-462.49"/>
</a>
</g>
</g>
<!-- Node16 -->
<g id="Node000016" class="node">
<title>Node16</title>
<g id="a_Node000016"><a xlink:href="classllvm_1_1ConstantPointerNull.html" target="_top" xlink:title="A constant pointer value that points to null.">
<polygon fill="white" stroke="#666666" points="627.12,-463.25 499.38,-463.25 499.38,-444 627.12,-444 627.12,-463.25"/>
<text xml:space="preserve" text-anchor="middle" x="563.25" y="-449.75" font-family="Helvetica,sans-Serif" font-size="10.00">llvm::ConstantPointerNull</text>
</a>
</g>
</g>
<!-- Node9&#45;&gt;Node16 -->
<g id="edge15_Node000009_Node000016" class="edge">
<title>Node9&#45;&gt;Node16</title>
<g id="a_edge15_Node000009_Node000016"><a xlink:title=" ">
<path fill="none" stroke="#63b8ff" d="M439.93,-453.62C458.97,-453.62 480.01,-453.62 499.19,-453.62"/>
<polygon fill="#63b8ff" stroke="#63b8ff" points="440.19,-450.13 430.19,-453.63 440.19,-457.13 440.19,-450.13"/>
</a>
</g>
</g>
<!-- Node17 -->
<g id="Node000017" class="node">
<title>Node17</title>
<g id="a_Node000017"><a xlink:href="classllvm_1_1ConstantTargetNone.html" target="_top" xlink:title="A constant target extension type default initializer.">
<polygon fill="white" stroke="#666666" points="628.25,-426.25 498.25,-426.25 498.25,-407 628.25,-407 628.25,-426.25"/>
<text xml:space="preserve" text-anchor="middle" x="563.25" y="-412.75" font-family="Helvetica,sans-Serif" font-size="10.00">llvm::ConstantTargetNone</text>
</a>
</g>
</g>
<!-- Node9&#45;&gt;Node17 -->
<g id="edge16_Node000009_Node000017" class="edge">
<title>Node9&#45;&gt;Node17</title>
<g id="a_edge16_Node000009_Node000017"><a xlink:title=" ">
<path fill="none" stroke="#63b8ff" d="M439.94,-441.34C463.44,-436.59 489.99,-431.23 512.34,-426.71"/>
<polygon fill="#63b8ff" stroke="#63b8ff" points="439.27,-437.9 430.16,-443.31 440.66,-444.76 439.27,-437.9"/>
</a>
</g>
</g>
<!-- Node18 -->
<g id="Node000018" class="node">
<title>Node18</title>
<g id="a_Node000018"><a xlink:href="classllvm_1_1ConstantTokenNone.html" target="_top" xlink:title="A constant token which is empty.">
<polygon fill="white" stroke="#666666" points="627.88,-389.25 498.62,-389.25 498.62,-370 627.88,-370 627.88,-389.25"/>
<text xml:space="preserve" text-anchor="middle" x="563.25" y="-375.75" font-family="Helvetica,sans-Serif" font-size="10.00">llvm::ConstantTokenNone</text>
</a>
</g>
</g>
<!-- Node9&#45;&gt;Node18 -->
<g id="edge17_Node000009_Node000018" class="edge">
<title>Node9&#45;&gt;Node18</title>
<g id="a_edge17_Node000009_Node000018"><a xlink:title=" ">
<path fill="none" stroke="#63b8ff" d="M403.17,-437.54C422.91,-425 452,-408.02 479.5,-397.62 487.61,-394.56 496.38,-391.95 505.07,-389.75"/>
<polygon fill="#63b8ff" stroke="#63b8ff" points="401.52,-434.44 395.02,-442.81 405.32,-440.31 401.52,-434.44"/>
</a>
</g>
</g>
<!-- Node19 -->
<g id="Node000019" class="node">
<title>Node19</title>
<g id="a_Node000019"><a xlink:href="classllvm_1_1UndefValue.html" target="_top" xlink:title="&#39;undef&#39; values are things that do not have specified contents.">
<polygon fill="white" stroke="#666666" points="608.38,-352.25 518.12,-352.25 518.12,-333 608.38,-333 608.38,-352.25"/>
<text xml:space="preserve" text-anchor="middle" x="563.25" y="-338.75" font-family="Helvetica,sans-Serif" font-size="10.00">llvm::UndefValue</text>
</a>
</g>
</g>
<!-- Node9&#45;&gt;Node19 -->
<g id="edge18_Node000009_Node000019" class="edge">
<title>Node9&#45;&gt;Node19</title>
<g id="a_edge18_Node000009_Node000019"><a xlink:title=" ">
<path fill="none" stroke="#63b8ff" d="M393.93,-434.84C411.85,-413.46 444.06,-379.11 479.5,-360.62 491.23,-354.51 504.94,-350.46 517.79,-347.8"/>
<polygon fill="#63b8ff" stroke="#63b8ff" points="391.31,-432.52 387.7,-442.48 396.74,-436.95 391.31,-432.52"/>
</a>
</g>
</g>
<!-- Node12 -->
<g id="Node000012" class="node">
<title>Node12</title>
<g id="a_Node000012"><a xlink:href="classllvm_1_1ConstantDataArray.html" target="_top" xlink:title="An array constant whose element type is a simple 1/2/4/8&#45;byte integer or float/double,...">
<polygon fill="white" stroke="#666666" points="809.62,-592.25 685.62,-592.25 685.62,-573 809.62,-573 809.62,-592.25"/>
<text xml:space="preserve" text-anchor="middle" x="747.62" y="-578.75" font-family="Helvetica,sans-Serif" font-size="10.00">llvm::ConstantDataArray</text>
</a>
</g>
</g>
<!-- Node11&#45;&gt;Node12 -->
<g id="edge11_Node000011_Node000012" class="edge">
<title>Node11&#45;&gt;Node12</title>
<g id="a_edge11_Node000011_Node000012"><a xlink:title=" ">
<path fill="none" stroke="#63b8ff" d="M648.2,-572.91C660.65,-574.14 673.27,-575.38 685.14,-576.56"/>
<polygon fill="#63b8ff" stroke="#63b8ff" points="648.66,-569.44 638.36,-571.94 647.97,-576.4 648.66,-569.44"/>
</a>
</g>
</g>
<!-- Node13 -->
<g id="Node000013" class="node">
<title>Node13</title>
<g id="a_Node000013"><a xlink:href="classllvm_1_1ConstantDataVector.html" target="_top" xlink:title="A vector constant whose element type is a simple 1/2/4/8&#45;byte integer or float/double,...">
<polygon fill="white" stroke="#666666" points="812.25,-555.25 683,-555.25 683,-536 812.25,-536 812.25,-555.25"/>
<text xml:space="preserve" text-anchor="middle" x="747.62" y="-541.75" font-family="Helvetica,sans-Serif" font-size="10.00">llvm::ConstantDataVector</text>
</a>
</g>
</g>
<!-- Node11&#45;&gt;Node13 -->
<g id="edge12_Node000011_Node000013" class="edge">
<title>Node11&#45;&gt;Node13</title>
<g id="a_edge12_Node000011_Node000013"><a xlink:title=" ">
<path fill="none" stroke="#63b8ff" d="M648.28,-555.87C659.79,-554.67 671.45,-553.46 682.53,-552.3"/>
<polygon fill="#63b8ff" stroke="#63b8ff" points="647.94,-552.39 638.36,-556.9 648.67,-559.35 647.94,-552.39"/>
</a>
</g>
</g>
<!-- Node20 -->
<g id="Node000020" class="node">
<title>Node20</title>
<g id="a_Node000020"><a xlink:href="classllvm_1_1PoisonValue.html" target="_top" xlink:title="In order to facilitate speculative execution, many instructions do not invoke immediate undefined beh...">
<polygon fill="white" stroke="#666666" points="794.62,-352.25 700.62,-352.25 700.62,-333 794.62,-333 794.62,-352.25"/>
<text xml:space="preserve" text-anchor="middle" x="747.62" y="-338.75" font-family="Helvetica,sans-Serif" font-size="10.00">llvm::PoisonValue</text>
</a>
</g>
</g>
<!-- Node19&#45;&gt;Node20 -->
<g id="edge19_Node000019_Node000020" class="edge">
<title>Node19&#45;&gt;Node20</title>
<g id="a_edge19_Node000019_Node000020"><a xlink:title=" ">
<path fill="none" stroke="#63b8ff" d="M620.29,-342.62C645.92,-342.62 675.92,-342.62 700.25,-342.62"/>
<polygon fill="#63b8ff" stroke="#63b8ff" points="620.38,-339.13 610.38,-342.63 620.38,-346.13 620.38,-339.13"/>
</a>
</g>
</g>
<!-- Node22 -->
<g id="Node000022" class="node">
<title>Node22</title>
<g id="a_Node000022"><a xlink:href="classllvm_1_1BinaryConstantExpr.html" target="_top" xlink:title="BinaryConstantExpr &#45; This class is private to Constants.cpp, and is used behind the scenes to impleme...">
<polygon fill="white" stroke="#666666" points="627.12,-315.25 499.38,-315.25 499.38,-296 627.12,-296 627.12,-315.25"/>
<text xml:space="preserve" text-anchor="middle" x="563.25" y="-301.75" font-family="Helvetica,sans-Serif" font-size="10.00">llvm::BinaryConstantExpr</text>
</a>
</g>
</g>
<!-- Node21&#45;&gt;Node22 -->
<g id="edge21_Node000021_Node000022" class="edge">
<title>Node21&#45;&gt;Node22</title>
<g id="a_edge21_Node000021_Node000022"><a xlink:title=" ">
<path fill="none" stroke="#63b8ff" d="M403.17,-247.71C422.91,-260.25 452,-277.23 479.5,-287.62 487.61,-290.69 496.38,-293.3 505.07,-295.5"/>
<polygon fill="#63b8ff" stroke="#63b8ff" points="405.32,-244.94 395.02,-242.44 401.52,-250.81 405.32,-244.94"/>
</a>
</g>
</g>
<!-- Node23 -->
<g id="Node000023" class="node">
<title>Node23</title>
<g id="a_Node000023"><a xlink:href="classllvm_1_1CastConstantExpr.html" target="_top" xlink:title="CastConstantExpr &#45; This class is private to Constants.cpp, and is used behind the scenes to implement...">
<polygon fill="white" stroke="#666666" points="623.75,-278.25 502.75,-278.25 502.75,-259 623.75,-259 623.75,-278.25"/>
<text xml:space="preserve" text-anchor="middle" x="563.25" y="-264.75" font-family="Helvetica,sans-Serif" font-size="10.00">llvm::CastConstantExpr</text>
</a>
</g>
</g>
<!-- Node21&#45;&gt;Node23 -->
<g id="edge22_Node000021_Node000023" class="edge">
<title>Node21&#45;&gt;Node23</title>
<g id="a_edge22_Node000021_Node000023"><a xlink:title=" ">
<path fill="none" stroke="#63b8ff" d="M439.19,-243.76C462.89,-248.55 489.8,-253.99 512.4,-258.55"/>
<polygon fill="#63b8ff" stroke="#63b8ff" points="440.18,-240.39 429.68,-241.84 438.79,-247.25 440.18,-240.39"/>
</a>
</g>
</g>
<!-- Node24 -->
<g id="Node000024" class="node">
<title>Node24</title>
<g id="a_Node000024"><a xlink:href="classllvm_1_1ExtractElementConstantExpr.html" target="_top" xlink:title="ExtractElementConstantExpr &#45; This class is private to Constants.cpp, and is used behind the scenes to...">
<polygon fill="white" stroke="#666666" points="647,-241.25 479.5,-241.25 479.5,-222 647,-222 647,-241.25"/>
<text xml:space="preserve" text-anchor="middle" x="563.25" y="-227.75" font-family="Helvetica,sans-Serif" font-size="10.00">llvm::ExtractElementConstantExpr</text>
</a>
</g>
</g>
<!-- Node21&#45;&gt;Node24 -->
<g id="edge23_Node000021_Node000024" class="edge">
<title>Node21&#45;&gt;Node24</title>
<g id="a_edge23_Node000021_Node000024"><a xlink:title=" ">
<path fill="none" stroke="#63b8ff" d="M439.54,-231.62C452.21,-231.62 465.77,-231.62 479.1,-231.62"/>
<polygon fill="#63b8ff" stroke="#63b8ff" points="439.71,-228.13 429.71,-231.63 439.71,-235.13 439.71,-228.13"/>
</a>
</g>
</g>
<!-- Node25 -->
<g id="Node000025" class="node">
<title>Node25</title>
<g id="a_Node000025"><a xlink:href="classllvm_1_1GetElementPtrConstantExpr.html" target="_top" xlink:title="GetElementPtrConstantExpr &#45; This class is private to Constants.cpp, and is used behind the scenes to ...">
<polygon fill="white" stroke="#666666" points="645.5,-204.25 481,-204.25 481,-185 645.5,-185 645.5,-204.25"/>
<text xml:space="preserve" text-anchor="middle" x="563.25" y="-190.75" font-family="Helvetica,sans-Serif" font-size="10.00">llvm::GetElementPtrConstantExpr</text>
</a>
</g>
</g>
<!-- Node21&#45;&gt;Node25 -->
<g id="edge24_Node000021_Node000025" class="edge">
<title>Node21&#45;&gt;Node25</title>
<g id="a_edge24_Node000021_Node000025"><a xlink:title=" ">
<path fill="none" stroke="#63b8ff" d="M439.19,-219.49C462.89,-214.7 489.8,-209.26 512.4,-204.7"/>
<polygon fill="#63b8ff" stroke="#63b8ff" points="438.79,-216 429.68,-221.41 440.18,-222.86 438.79,-216"/>
</a>
</g>
</g>
<!-- Node26 -->
<g id="Node000026" class="node">
<title>Node26</title>
<g id="a_Node000026"><a xlink:href="classllvm_1_1InsertElementConstantExpr.html" target="_top" xlink:title="InsertElementConstantExpr &#45; This class is private to Constants.cpp, and is used behind the scenes to ...">
<polygon fill="white" stroke="#666666" points="643.62,-167.25 482.88,-167.25 482.88,-148 643.62,-148 643.62,-167.25"/>
<text xml:space="preserve" text-anchor="middle" x="563.25" y="-153.75" font-family="Helvetica,sans-Serif" font-size="10.00">llvm::InsertElementConstantExpr</text>
</a>
</g>
</g>
<!-- Node21&#45;&gt;Node26 -->
<g id="edge25_Node000021_Node000026" class="edge">
<title>Node21&#45;&gt;Node26</title>
<g id="a_edge25_Node000021_Node000026"><a xlink:title=" ">
<path fill="none" stroke="#63b8ff" d="M436.83,-217.23C439.12,-216.12 441.36,-214.92 443.5,-213.62 463.42,-201.61 459.23,-187.05 479.5,-175.62 485.14,-172.45 491.28,-169.83 497.59,-167.68"/>
<polygon fill="#63b8ff" stroke="#63b8ff" points="435.68,-213.92 427.82,-221.02 438.4,-220.37 435.68,-213.92"/>
</a>
</g>
</g>
<!-- Node27 -->
<g id="Node000027" class="node">
<title>Node27</title>
<g id="a_Node000027"><a xlink:href="classllvm_1_1ShuffleVectorConstantExpr.html" target="_top" xlink:title="ShuffleVectorConstantExpr &#45; This class is private to Constants.cpp, and is used behind the scenes to ...">
<polygon fill="white" stroke="#666666" points="642.88,-130.25 483.62,-130.25 483.62,-111 642.88,-111 642.88,-130.25"/>
<text xml:space="preserve" text-anchor="middle" x="563.25" y="-116.75" font-family="Helvetica,sans-Serif" font-size="10.00">llvm::ShuffleVectorConstantExpr</text>
</a>
</g>
</g>
<!-- Node21&#45;&gt;Node27 -->
<g id="edge26_Node000021_Node000027" class="edge">
<title>Node21&#45;&gt;Node27</title>
<g id="a_edge26_Node000021_Node000027"><a xlink:title=" ">
<path fill="none" stroke="#63b8ff" d="M438.22,-217.5C440.06,-216.31 441.83,-215.02 443.5,-213.62 471.83,-189.86 450.49,-161.55 479.5,-138.62 483.54,-135.43 488.02,-132.78 492.74,-130.57"/>
<polygon fill="#63b8ff" stroke="#63b8ff" points="437,-214.19 429.79,-221.95 440.27,-220.38 437,-214.19"/>
</a>
</g>
</g>
<!-- Node31 -->
<g id="Node000031" class="node">
<title>Node31</title>
<g id="a_Node000031"><a xlink:href="classllvm_1_1GlobalAlias.html" target="_top" xlink:title=" ">
<polygon fill="white" stroke="#666666" points="608,-93.25 518.5,-93.25 518.5,-74 608,-74 608,-93.25"/>
<text xml:space="preserve" text-anchor="middle" x="563.25" y="-79.75" font-family="Helvetica,sans-Serif" font-size="10.00">llvm::GlobalAlias</text>
</a>
</g>
</g>
<!-- Node30&#45;&gt;Node31 -->
<g id="edge30_Node000030_Node000031" class="edge">
<title>Node30&#45;&gt;Node31</title>
<g id="a_edge30_Node000030_Node000031"><a xlink:title=" ">
<path fill="none" stroke="#63b8ff" d="M435.82,-96.05C462.33,-93.45 493.42,-90.39 518.14,-87.96"/>
<polygon fill="#63b8ff" stroke="#63b8ff" points="435.51,-92.57 425.9,-97.03 436.19,-99.53 435.51,-92.57"/>
</a>
</g>
</g>
<!-- Node32 -->
<g id="Node000032" class="node">
<title>Node32</title>
<g id="a_Node000032"><a xlink:href="classllvm_1_1GlobalObject.html" target="_top" xlink:title=" ">
<polygon fill="white" stroke="#666666" points="611.38,-56.25 515.12,-56.25 515.12,-37 611.38,-37 611.38,-56.25"/>
<text xml:space="preserve" text-anchor="middle" x="563.25" y="-42.75" font-family="Helvetica,sans-Serif" font-size="10.00">llvm::GlobalObject</text>
</a>
</g>
</g>
<!-- Node30&#45;&gt;Node32 -->
<g id="edge31_Node000030_Node000032" class="edge">
<title>Node30&#45;&gt;Node32</title>
<g id="a_edge31_Node000030_Node000032"><a xlink:title=" ">
<path fill="none" stroke="#63b8ff" d="M430.84,-88.22C435.16,-86.78 439.43,-85.25 443.5,-83.62 460.31,-76.93 462.5,-70.83 479.5,-64.62 490.69,-60.54 503.08,-57.24 514.79,-54.64"/>
<polygon fill="#63b8ff" stroke="#63b8ff" points="430.03,-84.81 421.53,-91.13 432.12,-91.49 430.03,-84.81"/>
</a>
</g>
</g>
<!-- Node33 -->
<g id="Node000033" class="node">
<title>Node33</title>
<g id="a_Node000033"><a xlink:href="classllvm_1_1Function.html" target="_top" xlink:title=" ">
<polygon fill="white" stroke="#666666" points="786.38,-93.25 708.88,-93.25 708.88,-74 786.38,-74 786.38,-93.25"/>
<text xml:space="preserve" text-anchor="middle" x="747.62" y="-79.75" font-family="Helvetica,sans-Serif" font-size="10.00">llvm::Function</text>
</a>
</g>
</g>
<!-- Node32&#45;&gt;Node33 -->
<g id="edge32_Node000032_Node000033" class="edge">
<title>Node32&#45;&gt;Node33</title>
<g id="a_edge32_Node000032_Node000033"><a xlink:title=" ">
<path fill="none" stroke="#63b8ff" d="M622.62,-58.47C650.77,-64.18 683.74,-70.87 708.61,-75.91"/>
<polygon fill="#63b8ff" stroke="#63b8ff" points="623.67,-55.11 613.17,-56.55 622.28,-61.97 623.67,-55.11"/>
</a>
</g>
</g>
<!-- Node34 -->
<g id="Node000034" class="node">
<title>Node34</title>
<g id="a_Node000034"><a xlink:href="classllvm_1_1GlobalIFunc.html" target="_top" xlink:title=" ">
<polygon fill="white" stroke="#666666" points="793.88,-56.25 701.38,-56.25 701.38,-37 793.88,-37 793.88,-56.25"/>
<text xml:space="preserve" text-anchor="middle" x="747.62" y="-42.75" font-family="Helvetica,sans-Serif" font-size="10.00">llvm::GlobalIFunc</text>
</a>
</g>
</g>
<!-- Node32&#45;&gt;Node34 -->
<g id="edge33_Node000032_Node000034" class="edge">
<title>Node32&#45;&gt;Node34</title>
<g id="a_edge33_Node000032_Node000034"><a xlink:title=" ">
<path fill="none" stroke="#63b8ff" d="M623,-46.62C648.28,-46.62 677.38,-46.62 700.99,-46.62"/>
<polygon fill="#63b8ff" stroke="#63b8ff" points="623.2,-43.13 613.2,-46.63 623.2,-50.13 623.2,-43.13"/>
</a>
</g>
</g>
<!-- Node35 -->
<g id="Node000035" class="node">
<title>Node35</title>
<g id="a_Node000035"><a xlink:href="classllvm_1_1GlobalVariable.html" target="_top" xlink:title=" ">
<polygon fill="white" stroke="#666666" points="798.75,-19.25 696.5,-19.25 696.5,0 798.75,0 798.75,-19.25"/>
<text xml:space="preserve" text-anchor="middle" x="747.62" y="-5.75" font-family="Helvetica,sans-Serif" font-size="10.00">llvm::GlobalVariable</text>
</a>
</g>
</g>
<!-- Node32&#45;&gt;Node35 -->
<g id="edge34_Node000032_Node000035" class="edge">
<title>Node32&#45;&gt;Node35</title>
<g id="a_edge34_Node000032_Node000035"><a xlink:title=" ">
<path fill="none" stroke="#63b8ff" d="M622.75,-34.76C646.63,-29.91 673.97,-24.37 696.87,-19.72"/>
<polygon fill="#63b8ff" stroke="#63b8ff" points="622.28,-31.28 613.17,-36.7 623.67,-38.14 622.28,-31.28"/>
</a>
</g>
</g>
</g>
</svg>
