<?xml version="1.0" encoding="UTF-8" standalone="no"?>
<!DOCTYPE svg PUBLIC "-//W3C//DTD SVG 1.1//EN"
 "http://www.w3.org/Graphics/SVG/1.1/DTD/svg11.dtd">
<!-- Generated by graphviz version 13.1.2 (20250808.2320)
 -->
<!-- Title: llvm::MachineLoopPrinterPass Pages: 1 -->
<svg width="215pt" height="179pt"
 viewBox="0.00 0.00 215.00 179.00" xmlns="http://www.w3.org/2000/svg" xmlns:xlink="http://www.w3.org/1999/xlink">
<g id="graph0" class="graph" transform="scale(1 1) rotate(0) translate(4 174.5)">
<title>llvm::MachineLoopPrinterPass</title>
<!-- Node1 -->
<g id="Node000001" class="node">
<title>Node1</title>
<g id="a_Node000001"><a xlink:title="Printer pass for the LoopAnalysis results.">
<polygon fill="#999999" stroke="#666666" points="148.75,-19.25 0,-19.25 0,0 148.75,0 148.75,-19.25"/>
<text xml:space="preserve" text-anchor="middle" x="74.38" y="-5.75" font-family="Helvetica,sans-Serif" font-size="10.00">llvm::MachineLoopPrinterPass</text>
</a>
</g>
</g>
<!-- Node2 -->
<g id="Node000002" class="node">
<title>Node2</title>
<g id="a_Node000002"><a xlink:href="structllvm_1_1PassInfoMixin.html" target="_top" xlink:title=" ">
<polygon fill="white" stroke="#666666" points="145.75,-86.75 3,-86.75 3,-56.25 145.75,-56.25 145.75,-86.75"/>
<text xml:space="preserve" text-anchor="start" x="11" y="-73.25" font-family="Helvetica,sans-Serif" font-size="10.00">llvm::PassInfoMixin</text>
<text xml:space="preserve" text-anchor="middle" x="74.38" y="-62" font-family="Helvetica,sans-Serif" font-size="10.00">&lt; MachineLoopPrinterPass &gt;</text>
</a>
</g>
</g>
<!-- Node2&#45;&gt;Node1 -->
<g id="edge1_Node000001_Node000002" class="edge">
<title>Node2&#45;&gt;Node1</title>
<g id="a_edge1_Node000001_Node000002"><a xlink:title=" ">
<path fill="none" stroke="#63b8ff" d="M74.38,-44.77C74.38,-35.79 74.38,-26.29 74.38,-19.6"/>
<polygon fill="#63b8ff" stroke="#63b8ff" points="70.88,-44.49 74.38,-54.49 77.88,-44.49 70.88,-44.49"/>
</a>
</g>
</g>
<!-- Node3 -->
<g id="Node000003" class="node">
<title>Node3</title>
<g id="a_Node000003"><a xlink:href="structllvm_1_1PassInfoMixin.html" target="_top" xlink:title="A CRTP mix&#45;in to automatically provide informational APIs needed for passes.">
<polygon fill="white" stroke="#666666" points="125.5,-170.5 23.25,-170.5 23.25,-140 125.5,-140 125.5,-170.5"/>
<text xml:space="preserve" text-anchor="start" x="31.25" y="-157" font-family="Helvetica,sans-Serif" font-size="10.00">llvm::PassInfoMixin</text>
<text xml:space="preserve" text-anchor="middle" x="74.38" y="-145.75" font-family="Helvetica,sans-Serif" font-size="10.00">&lt; DerivedT &gt;</text>
</a>
</g>
</g>
<!-- Node3&#45;&gt;Node2 -->
<g id="edge2_Node000002_Node000003" class="edge">
<title>Node3&#45;&gt;Node2</title>
<g id="a_edge2_Node000002_Node000003"><a xlink:title=" ">
<path fill="none" stroke="orange" stroke-dasharray="5,2" d="M74.38,-128.47C74.38,-114.78 74.38,-98.46 74.38,-86.99"/>
<polygon fill="orange" stroke="orange" points="70.88,-128.12 74.38,-138.12 77.88,-128.12 70.88,-128.12"/>
</a>
</g>
<text xml:space="preserve" text-anchor="start" x="77.38" y="-109.5" font-family="Helvetica,sans-Serif" font-size="10.00" fill="grey">&lt; MachineLoopPrinterPass &gt;</text>
</g>
</g>
</svg>
