<?xml version="1.0" encoding="UTF-8" standalone="no"?>
<!DOCTYPE svg PUBLIC "-//W3C//DTD SVG 1.1//EN"
 "http://www.w3.org/Graphics/SVG/1.1/DTD/svg11.dtd">
<!-- Generated by graphviz version 13.1.2 (20250808.2320)
 -->
<!-- Title: llvm::FunctionAnalysisManagerMachineFunctionProxy Pages: 1 -->
<svg width="975pt" height="110pt"
 viewBox="0.00 0.00 975.00 110.00" xmlns="http://www.w3.org/2000/svg" xmlns:xlink="http://www.w3.org/1999/xlink">
<g id="graph0" class="graph" transform="scale(1 1) rotate(0) translate(4 105.75)">
<title>llvm::FunctionAnalysisManagerMachineFunctionProxy</title>
<!-- Node1 -->
<g id="Node000001" class="node">
<title>Node1</title>
<g id="a_Node000001"><a xlink:title=" ">
<polygon fill="#999999" stroke="#666666" points="967.25,-57.5 814.75,-57.5 814.75,-27 967.25,-27 967.25,-57.5"/>
<text xml:space="preserve" text-anchor="start" x="822.75" y="-44" font-family="Helvetica,sans-Serif" font-size="10.00">llvm::FunctionAnalysisManager</text>
<text xml:space="preserve" text-anchor="middle" x="891" y="-32.75" font-family="Helvetica,sans-Serif" font-size="10.00">MachineFunctionProxy</text>
</a>
</g>
</g>
<!-- Node2 -->
<g id="Node000002" class="node">
<title>Node2</title>
<g id="a_Node000002"><a xlink:href="structllvm_1_1AnalysisInfoMixin.html" target="_top" xlink:title=" ">
<polygon fill="white" stroke="#666666" points="777.75,-63.12 603.5,-63.12 603.5,-21.38 777.75,-21.38 777.75,-63.12"/>
<text xml:space="preserve" text-anchor="start" x="611.5" y="-49.62" font-family="Helvetica,sans-Serif" font-size="10.00">llvm::AnalysisInfoMixin</text>
<text xml:space="preserve" text-anchor="start" x="611.5" y="-38.38" font-family="Helvetica,sans-Serif" font-size="10.00">&lt; FunctionAnalysisManagerMachine</text>
<text xml:space="preserve" text-anchor="middle" x="690.62" y="-27.12" font-family="Helvetica,sans-Serif" font-size="10.00">FunctionProxy &gt;</text>
</a>
</g>
</g>
<!-- Node2&#45;&gt;Node1 -->
<g id="edge1_Node000001_Node000002" class="edge">
<title>Node2&#45;&gt;Node1</title>
<g id="a_edge1_Node000001_Node000002"><a xlink:title=" ">
<path fill="none" stroke="#63b8ff" d="M789.47,-42.25C797.85,-42.25 806.25,-42.25 814.43,-42.25"/>
<polygon fill="#63b8ff" stroke="#63b8ff" points="789.57,-38.75 779.57,-42.25 789.57,-45.75 789.57,-38.75"/>
</a>
</g>
</g>
<!-- Node3 -->
<g id="Node000003" class="node">
<title>Node3</title>
<g id="a_Node000003"><a xlink:href="structllvm_1_1PassInfoMixin.html" target="_top" xlink:title=" ">
<polygon fill="white" stroke="#666666" points="440,-90.12 265.75,-90.12 265.75,-48.38 440,-48.38 440,-90.12"/>
<text xml:space="preserve" text-anchor="start" x="273.75" y="-76.62" font-family="Helvetica,sans-Serif" font-size="10.00">llvm::PassInfoMixin</text>
<text xml:space="preserve" text-anchor="start" x="273.75" y="-65.38" font-family="Helvetica,sans-Serif" font-size="10.00">&lt; FunctionAnalysisManagerMachine</text>
<text xml:space="preserve" text-anchor="middle" x="352.88" y="-54.12" font-family="Helvetica,sans-Serif" font-size="10.00">FunctionProxy &gt;</text>
</a>
</g>
</g>
<!-- Node3&#45;&gt;Node2 -->
<g id="edge2_Node000002_Node000003" class="edge">
<title>Node3&#45;&gt;Node2</title>
<g id="a_edge2_Node000002_Node000003"><a xlink:title=" ">
<path fill="none" stroke="#63b8ff" d="M451.73,-63.28C493.04,-60.56 541.64,-57.08 585.5,-53.25 591.2,-52.75 597.08,-52.21 603,-51.64"/>
<polygon fill="#63b8ff" stroke="#63b8ff" points="451.54,-59.78 441.79,-63.93 452,-66.77 451.54,-59.78"/>
</a>
</g>
</g>
<!-- Node4 -->
<g id="Node000004" class="node">
<title>Node4</title>
<g id="a_Node000004"><a xlink:href="structllvm_1_1PassInfoMixin.html" target="_top" xlink:title="A CRTP mix&#45;in to automatically provide informational APIs needed for passes.">
<polygon fill="white" stroke="#666666" points="102.25,-84.5 0,-84.5 0,-54 102.25,-54 102.25,-84.5"/>
<text xml:space="preserve" text-anchor="start" x="8" y="-71" font-family="Helvetica,sans-Serif" font-size="10.00">llvm::PassInfoMixin</text>
<text xml:space="preserve" text-anchor="middle" x="51.12" y="-59.75" font-family="Helvetica,sans-Serif" font-size="10.00">&lt; DerivedT &gt;</text>
</a>
</g>
</g>
<!-- Node4&#45;&gt;Node3 -->
<g id="edge3_Node000003_Node000004" class="edge">
<title>Node4&#45;&gt;Node3</title>
<g id="a_edge3_Node000003_Node000004"><a xlink:title=" ">
<path fill="none" stroke="orange" stroke-dasharray="5,2" d="M113.96,-69.25C157.68,-69.25 216.88,-69.25 265.29,-69.25"/>
<polygon fill="orange" stroke="orange" points="114.15,-65.75 104.15,-69.25 114.15,-72.75 114.15,-65.75"/>
</a>
</g>
<text xml:space="preserve" text-anchor="start" x="123.25" y="-89.25" font-family="Helvetica,sans-Serif" font-size="10.00" fill="grey">&lt; FunctionAnalysisManager</text>
<text xml:space="preserve" text-anchor="start" x="123.25" y="-74" font-family="Helvetica,sans-Serif" font-size="10.00" fill="grey">  MachineFunctionProxy &gt;</text>
</g>
<!-- Node5 -->
<g id="Node000005" class="node">
<title>Node5</title>
<g id="a_Node000005"><a xlink:href="structllvm_1_1AnalysisInfoMixin.html" target="_top" xlink:title="A CRTP mix&#45;in that provides informational APIs needed for analysis passes.">
<polygon fill="white" stroke="#666666" points="411.5,-30.5 294.25,-30.5 294.25,0 411.5,0 411.5,-30.5"/>
<text xml:space="preserve" text-anchor="start" x="302.25" y="-17" font-family="Helvetica,sans-Serif" font-size="10.00">llvm::AnalysisInfoMixin</text>
<text xml:space="preserve" text-anchor="middle" x="352.88" y="-5.75" font-family="Helvetica,sans-Serif" font-size="10.00">&lt; DerivedT &gt;</text>
</a>
</g>
</g>
<!-- Node5&#45;&gt;Node2 -->
<g id="edge4_Node000002_Node000005" class="edge">
<title>Node5&#45;&gt;Node2</title>
<g id="a_edge4_Node000002_Node000005"><a xlink:title=" ">
<path fill="none" stroke="orange" stroke-dasharray="5,2" d="M423.09,-11.49C469.27,-10.02 531.23,-10.02 585.5,-16.75 593.72,-17.77 602.23,-19.2 610.68,-20.88"/>
<polygon fill="orange" stroke="orange" points="423.09,-7.99 413.22,-11.84 423.34,-14.99 423.09,-7.99"/>
</a>
</g>
<text xml:space="preserve" text-anchor="start" x="461" y="-36.75" font-family="Helvetica,sans-Serif" font-size="10.00" fill="grey">&lt; FunctionAnalysisManager</text>
<text xml:space="preserve" text-anchor="start" x="461" y="-21.5" font-family="Helvetica,sans-Serif" font-size="10.00" fill="grey">  MachineFunctionProxy &gt;</text>
</g>
<!-- Node6 -->
<g id="Node000006" class="node">
<title>Node6</title>
<g id="a_Node000006"><a xlink:href="structllvm_1_1PassInfoMixin.html" target="_top" xlink:title="A CRTP mix&#45;in to automatically provide informational APIs needed for passes.">
<polygon fill="white" stroke="#666666" points="102.25,-30.5 0,-30.5 0,0 102.25,0 102.25,-30.5"/>
<text xml:space="preserve" text-anchor="start" x="8" y="-17" font-family="Helvetica,sans-Serif" font-size="10.00">llvm::PassInfoMixin</text>
<text xml:space="preserve" text-anchor="middle" x="51.12" y="-5.75" font-family="Helvetica,sans-Serif" font-size="10.00">&lt; DerivedT &gt;</text>
</a>
</g>
</g>
<!-- Node6&#45;&gt;Node5 -->
<g id="edge5_Node000005_Node000006" class="edge">
<title>Node6&#45;&gt;Node5</title>
<g id="a_edge5_Node000005_Node000006"><a xlink:title=" ">
<path fill="none" stroke="#63b8ff" d="M113.88,-15.25C166.74,-15.25 242.26,-15.25 293.97,-15.25"/>
<polygon fill="#63b8ff" stroke="#63b8ff" points="114.15,-11.75 104.15,-15.25 114.15,-18.75 114.15,-11.75"/>
</a>
</g>
</g>
</g>
</svg>
