<?xml version="1.0" encoding="UTF-8" standalone="no"?>
<!DOCTYPE svg PUBLIC "-//W3C//DTD SVG 1.1//EN"
 "http://www.w3.org/Graphics/SVG/1.1/DTD/svg11.dtd">
<!-- Generated by graphviz version 13.1.2 (20250808.2320)
 -->
<!-- Title: llvm::fallible_iterator&lt; Underlying &gt; Pages: 1 -->
<svg width="373pt" height="88pt"
 viewBox="0.00 0.00 373.00 88.00" xmlns="http://www.w3.org/2000/svg" xmlns:xlink="http://www.w3.org/1999/xlink">
<g id="graph0" class="graph" transform="scale(1 1) rotate(0) translate(4 83.5)">
<title>llvm::fallible_iterator&lt; Underlying &gt;</title>
<!-- Node1 -->
<g id="Node000001" class="node">
<title>Node1</title>
<g id="a_Node000001"><a xlink:title="A wrapper class for fallible iterators.">
<polygon fill="#999999" stroke="#666666" points="103,-54.5 0,-54.5 0,-24 103,-24 103,-54.5"/>
<text xml:space="preserve" text-anchor="start" x="8" y="-41" font-family="Helvetica,sans-Serif" font-size="10.00">llvm::fallible_iterator</text>
<text xml:space="preserve" text-anchor="middle" x="51.5" y="-29.75" font-family="Helvetica,sans-Serif" font-size="10.00">&lt; Underlying &gt;</text>
</a>
</g>
</g>
<!-- Node2 -->
<g id="Node000002" class="node">
<title>Node2</title>
<g id="a_Node000002"><a xlink:href="classllvm_1_1fallible__iterator.html" target="_top" xlink:title=" ">
<polygon fill="white" stroke="#666666" points="365,-79.5 247,-79.5 247,-49 365,-49 365,-79.5"/>
<text xml:space="preserve" text-anchor="start" x="255" y="-66" font-family="Helvetica,sans-Serif" font-size="10.00">llvm::fallible_iterator</text>
<text xml:space="preserve" text-anchor="middle" x="306" y="-54.75" font-family="Helvetica,sans-Serif" font-size="10.00">&lt; ChildFallibleIterator &gt;</text>
</a>
</g>
</g>
<!-- Node1&#45;&gt;Node2 -->
<g id="edge1_Node000001_Node000002" class="edge">
<title>Node1&#45;&gt;Node2</title>
<g id="a_edge1_Node000001_Node000002"><a xlink:title=" ">
<path fill="none" stroke="orange" stroke-dasharray="5,2" d="M114.6,-45.4C154.96,-49.39 207.22,-54.57 246.77,-58.49"/>
<polygon fill="orange" stroke="orange" points="115.1,-41.93 104.8,-44.43 114.41,-48.9 115.1,-41.93"/>
</a>
</g>
<text xml:space="preserve" text-anchor="start" x="124" y="-60.91" font-family="Helvetica,sans-Serif" font-size="10.00" fill="grey">&lt; ChildFallibleIterator &gt;</text>
</g>
<!-- Node3 -->
<g id="Node000003" class="node">
<title>Node3</title>
<g id="a_Node000003"><a xlink:href="classllvm_1_1fallible__iterator.html" target="_top" xlink:title=" ">
<polygon fill="white" stroke="#666666" points="361.25,-30.5 250.75,-30.5 250.75,0 361.25,0 361.25,-30.5"/>
<text xml:space="preserve" text-anchor="start" x="258.75" y="-17" font-family="Helvetica,sans-Serif" font-size="10.00">llvm::fallible_iterator</text>
<text xml:space="preserve" text-anchor="middle" x="306" y="-5.75" font-family="Helvetica,sans-Serif" font-size="10.00">&lt; Memory64Iterator &gt;</text>
</a>
</g>
</g>
<!-- Node1&#45;&gt;Node3 -->
<g id="edge2_Node000001_Node000003" class="edge">
<title>Node1&#45;&gt;Node3</title>
<g id="a_edge2_Node000001_Node000003"><a xlink:title=" ">
<path fill="none" stroke="orange" stroke-dasharray="5,2" d="M114.41,-25.93C116.63,-25.59 118.83,-25.28 121,-25 164.3,-19.38 213.74,-16.98 250.46,-15.97"/>
<polygon fill="orange" stroke="orange" points="114.01,-22.45 104.72,-27.55 115.16,-29.35 114.01,-22.45"/>
</a>
</g>
<text xml:space="preserve" text-anchor="start" x="127.75" y="-29.75" font-family="Helvetica,sans-Serif" font-size="10.00" fill="grey">&lt; Memory64Iterator &gt;</text>
</g>
</g>
</svg>
