<?xml version="1.0" encoding="UTF-8" standalone="no"?>
<!DOCTYPE svg PUBLIC "-//W3C//DTD SVG 1.1//EN"
 "http://www.w3.org/Graphics/SVG/1.1/DTD/svg11.dtd">
<!-- Generated by graphviz version 13.1.2 (20250808.2320)
 -->
<!-- Title: llvm::IntrusiveRefCntPtr&lt; T &gt; Pages: 1 -->
<svg width="504pt" height="330pt"
 viewBox="0.00 0.00 504.00 330.00" xmlns="http://www.w3.org/2000/svg" xmlns:xlink="http://www.w3.org/1999/xlink">
<g id="graph0" class="graph" transform="scale(1 1) rotate(0) translate(4 325.66)">
<title>llvm::IntrusiveRefCntPtr&lt; T &gt;</title>
<!-- Node1 -->
<g id="Node000001" class="node">
<title>Node1</title>
<g id="a_Node000001"><a xlink:title="A smart pointer to a reference&#45;counted object that inherits from RefCountedBase or ThreadSafeRefCount...">
<polygon fill="#999999" stroke="#666666" points="145.75,-184.88 0,-184.88 0,-165.62 145.75,-165.62 145.75,-184.88"/>
<text xml:space="preserve" text-anchor="middle" x="72.88" y="-171.38" font-family="Helvetica,sans-Serif" font-size="10.00">llvm::IntrusiveRefCntPtr&lt; T &gt;</text>
</a>
</g>
</g>
<!-- Node2 -->
<g id="Node000002" class="node">
<title>Node2</title>
<g id="a_Node000002"><a xlink:href="classllvm_1_1IntrusiveRefCntPtr.html" target="_top" xlink:title=" ">
<polygon fill="white" stroke="#666666" points="468.88,-319.5 347.12,-319.5 347.12,-289 468.88,-289 468.88,-319.5"/>
<text xml:space="preserve" text-anchor="start" x="355.12" y="-306" font-family="Helvetica,sans-Serif" font-size="10.00">llvm::IntrusiveRefCntPtr</text>
<text xml:space="preserve" text-anchor="middle" x="408" y="-294.75" font-family="Helvetica,sans-Serif" font-size="10.00">&lt; ResourceTracker &gt;</text>
</a>
</g>
</g>
<!-- Node1&#45;&gt;Node2 -->
<g id="edge1_Node000001_Node000002" class="edge">
<title>Node1&#45;&gt;Node2</title>
<g id="a_edge1_Node000001_Node000002"><a xlink:title=" ">
<path fill="none" stroke="orange" stroke-dasharray="5,2" d="M86.09,-194.54C101.33,-216.81 129.6,-252.65 163.75,-270.25 220.98,-299.75 295.33,-306.28 346.69,-306.67"/>
<polygon fill="orange" stroke="orange" points="89.12,-192.78 80.69,-186.36 83.28,-196.63 89.12,-192.78"/>
</a>
</g>
<text xml:space="preserve" text-anchor="start" x="186.62" y="-309.16" font-family="Helvetica,sans-Serif" font-size="10.00" fill="grey">&lt; ResourceTracker &gt;</text>
</g>
<!-- Node3 -->
<g id="Node000003" class="node">
<title>Node3</title>
<g id="a_Node000003"><a xlink:href="classllvm_1_1IntrusiveRefCntPtr.html" target="_top" xlink:title=" ">
<polygon fill="white" stroke="#666666" points="468.88,-270.5 347.12,-270.5 347.12,-240 468.88,-240 468.88,-270.5"/>
<text xml:space="preserve" text-anchor="start" x="355.12" y="-257" font-family="Helvetica,sans-Serif" font-size="10.00">llvm::IntrusiveRefCntPtr</text>
<text xml:space="preserve" text-anchor="middle" x="408" y="-245.75" font-family="Helvetica,sans-Serif" font-size="10.00">&lt; JITDylib &gt;</text>
</a>
</g>
</g>
<!-- Node1&#45;&gt;Node3 -->
<g id="edge2_Node000001_Node000003" class="edge">
<title>Node1&#45;&gt;Node3</title>
<g id="a_edge2_Node000001_Node000003"><a xlink:title=" ">
<path fill="none" stroke="orange" stroke-dasharray="5,2" d="M98.51,-191.13C116.02,-201.65 140.47,-214.83 163.75,-222.25 224.26,-241.52 296.73,-249.54 346.75,-252.87"/>
<polygon fill="orange" stroke="orange" points="100.7,-188.37 90.35,-186.1 97.03,-194.32 100.7,-188.37"/>
</a>
</g>
<text xml:space="preserve" text-anchor="start" x="205.75" y="-253.61" font-family="Helvetica,sans-Serif" font-size="10.00" fill="grey">&lt; JITDylib &gt;</text>
</g>
<!-- Node4 -->
<g id="Node000004" class="node">
<title>Node4</title>
<g id="a_Node000004"><a xlink:href="classllvm_1_1IntrusiveRefCntPtr.html" target="_top" xlink:title=" ">
<polygon fill="white" stroke="#666666" points="471.5,-221.5 344.5,-221.5 344.5,-191 471.5,-191 471.5,-221.5"/>
<text xml:space="preserve" text-anchor="start" x="352.5" y="-208" font-family="Helvetica,sans-Serif" font-size="10.00">llvm::IntrusiveRefCntPtr</text>
<text xml:space="preserve" text-anchor="middle" x="408" y="-196.75" font-family="Helvetica,sans-Serif" font-size="10.00">&lt; llvm::vfs::FileSystem &gt;</text>
</a>
</g>
</g>
<!-- Node1&#45;&gt;Node4 -->
<g id="edge3_Node000001_Node000004" class="edge">
<title>Node1&#45;&gt;Node4</title>
<g id="a_edge3_Node000001_Node000004"><a xlink:title=" ">
<path fill="none" stroke="orange" stroke-dasharray="5,2" d="M145.36,-186.95C151.57,-187.79 157.77,-188.58 163.75,-189.25 224.85,-196.13 294.93,-200.68 344.12,-203.32"/>
<polygon fill="orange" stroke="orange" points="146.1,-183.52 135.71,-185.58 145.12,-190.45 146.1,-183.52"/>
</a>
</g>
<text xml:space="preserve" text-anchor="start" x="177.62" y="-205.62" font-family="Helvetica,sans-Serif" font-size="10.00" fill="grey">&lt; llvm::vfs::FileSystem &gt;</text>
</g>
<!-- Node5 -->
<g id="Node000005" class="node">
<title>Node5</title>
<g id="a_Node000005"><a xlink:href="classllvm_1_1IntrusiveRefCntPtr.html" target="_top" xlink:title=" ">
<polygon fill="white" stroke="#666666" points="495.12,-161.12 320.88,-161.12 320.88,-119.38 495.12,-119.38 495.12,-161.12"/>
<text xml:space="preserve" text-anchor="start" x="328.88" y="-147.62" font-family="Helvetica,sans-Serif" font-size="10.00">llvm::IntrusiveRefCntPtr</text>
<text xml:space="preserve" text-anchor="start" x="328.88" y="-136.38" font-family="Helvetica,sans-Serif" font-size="10.00">&lt; llvm::ImutAVLTree&lt; ImutKeyValue</text>
<text xml:space="preserve" text-anchor="middle" x="408" y="-125.12" font-family="Helvetica,sans-Serif" font-size="10.00">Info&lt; KeyT, ValT &gt; &gt; &gt;</text>
</a>
</g>
</g>
<!-- Node1&#45;&gt;Node5 -->
<g id="edge4_Node000001_Node000005" class="edge">
<title>Node1&#45;&gt;Node5</title>
<g id="a_edge4_Node000001_Node000005"><a xlink:title=" ">
<path fill="none" stroke="orange" stroke-dasharray="5,2" d="M101.75,-160.14C119.05,-151.64 142.04,-141.87 163.75,-137.5 215.09,-127.16 273.76,-127.48 320.62,-130.56"/>
<polygon fill="orange" stroke="orange" points="100.46,-156.87 93.13,-164.53 103.63,-163.11 100.46,-156.87"/>
</a>
</g>
<text xml:space="preserve" text-anchor="start" x="184" y="-172.75" font-family="Helvetica,sans-Serif" font-size="10.00" fill="grey">&lt; llvm::ImutAVLTree</text>
<text xml:space="preserve" text-anchor="start" x="184" y="-157.5" font-family="Helvetica,sans-Serif" font-size="10.00" fill="grey">  &lt; ImutKeyValueInfo&lt;</text>
<text xml:space="preserve" text-anchor="start" x="184" y="-142.25" font-family="Helvetica,sans-Serif" font-size="10.00" fill="grey">   KeyT, ValT &gt; &gt; &gt;</text>
</g>
<!-- Node6 -->
<g id="Node000006" class="node">
<title>Node6</title>
<g id="a_Node000006"><a xlink:href="classllvm_1_1IntrusiveRefCntPtr.html" target="_top" xlink:title=" ">
<polygon fill="white" stroke="#666666" points="495.5,-90.12 320.5,-90.12 320.5,-48.38 495.5,-48.38 495.5,-90.12"/>
<text xml:space="preserve" text-anchor="start" x="328.5" y="-76.62" font-family="Helvetica,sans-Serif" font-size="10.00">llvm::IntrusiveRefCntPtr</text>
<text xml:space="preserve" text-anchor="start" x="328.5" y="-65.38" font-family="Helvetica,sans-Serif" font-size="10.00">&lt; llvm::ImutAVLTree&lt; ImutContainer</text>
<text xml:space="preserve" text-anchor="middle" x="408" y="-54.12" font-family="Helvetica,sans-Serif" font-size="10.00">Info&lt; ValT &gt; &gt; &gt;</text>
</a>
</g>
</g>
<!-- Node1&#45;&gt;Node6 -->
<g id="edge5_Node000001_Node000006" class="edge">
<title>Node1&#45;&gt;Node6</title>
<g id="a_edge5_Node000001_Node000006"><a xlink:title=" ">
<path fill="none" stroke="orange" stroke-dasharray="5,2" d="M84.93,-155.59C99.5,-131.88 127.59,-93.13 163.75,-76.5 212.21,-54.21 272.03,-52.14 320.23,-55.77"/>
<polygon fill="orange" stroke="orange" points="82.04,-153.6 79.97,-163.99 88.07,-157.16 82.04,-153.6"/>
</a>
</g>
<text xml:space="preserve" text-anchor="start" x="186.62" y="-111.75" font-family="Helvetica,sans-Serif" font-size="10.00" fill="grey">&lt; llvm::ImutAVLTree</text>
<text xml:space="preserve" text-anchor="start" x="186.62" y="-96.5" font-family="Helvetica,sans-Serif" font-size="10.00" fill="grey">  &lt; ImutContainerInfo</text>
<text xml:space="preserve" text-anchor="start" x="186.62" y="-81.25" font-family="Helvetica,sans-Serif" font-size="10.00" fill="grey">  &lt; ValT &gt; &gt; &gt;</text>
</g>
<!-- Node7 -->
<g id="Node000007" class="node">
<title>Node7</title>
<g id="a_Node000007"><a xlink:href="classllvm_1_1IntrusiveRefCntPtr.html" target="_top" xlink:title=" ">
<polygon fill="white" stroke="#666666" points="482.38,-30.5 333.62,-30.5 333.62,0 482.38,0 482.38,-30.5"/>
<text xml:space="preserve" text-anchor="start" x="341.62" y="-17" font-family="Helvetica,sans-Serif" font-size="10.00">llvm::IntrusiveRefCntPtr</text>
<text xml:space="preserve" text-anchor="middle" x="408" y="-5.75" font-family="Helvetica,sans-Serif" font-size="10.00">&lt; llvm::RopeRefCountString &gt;</text>
</a>
</g>
</g>
<!-- Node1&#45;&gt;Node7 -->
<g id="edge6_Node000001_Node000007" class="edge">
<title>Node1&#45;&gt;Node7</title>
<g id="a_edge6_Node000001_Node000007"><a xlink:title=" ">
<path fill="none" stroke="orange" stroke-dasharray="5,2" d="M80.18,-154.61C91.26,-122.33 117.54,-60.7 163.75,-33 214.41,-2.63 282.09,-0.08 333.2,-4.06"/>
<polygon fill="orange" stroke="orange" points="76.9,-153.39 77.14,-163.98 83.56,-155.55 76.9,-153.39"/>
</a>
</g>
<text xml:space="preserve" text-anchor="start" x="166.75" y="-37.75" font-family="Helvetica,sans-Serif" font-size="10.00" fill="grey">&lt; llvm::RopeRefCountString &gt;</text>
</g>
</g>
</svg>
