<?xml version="1.0" encoding="UTF-8" standalone="no"?>
<!DOCTYPE svg PUBLIC "-//W3C//DTD SVG 1.1//EN"
 "http://www.w3.org/Graphics/SVG/1.1/DTD/svg11.dtd">
<!-- Generated by graphviz version 13.1.2 (20250808.2320)
 -->
<!-- Title: llvm::LoopInfoWrapperPass Pages: 1 -->
<svg width="144pt" height="138pt"
 viewBox="0.00 0.00 144.00 138.00" xmlns="http://www.w3.org/2000/svg" xmlns:xlink="http://www.w3.org/1999/xlink">
<g id="graph0" class="graph" transform="scale(1 1) rotate(0) translate(4 133.75)">
<title>llvm::LoopInfoWrapperPass</title>
<!-- Node1 -->
<g id="Node000001" class="node">
<title>Node1</title>
<g id="a_Node000001"><a xlink:title="The legacy pass manager&#39;s analysis pass to compute loop information.">
<polygon fill="#999999" stroke="#666666" points="136,-19.25 0,-19.25 0,0 136,0 136,-19.25"/>
<text xml:space="preserve" text-anchor="middle" x="68" y="-5.75" font-family="Helvetica,sans-Serif" font-size="10.00">llvm::LoopInfoWrapperPass</text>
</a>
</g>
</g>
<!-- Node2 -->
<g id="Node000002" class="node">
<title>Node2</title>
<g id="a_Node000002"><a xlink:href="classllvm_1_1FunctionPass.html" target="_top" xlink:title="FunctionPass class &#45; This class is used to implement most global optimizations.">
<polygon fill="white" stroke="#666666" points="118,-74.5 18,-74.5 18,-55.25 118,-55.25 118,-74.5"/>
<text xml:space="preserve" text-anchor="middle" x="68" y="-61" font-family="Helvetica,sans-Serif" font-size="10.00">llvm::FunctionPass</text>
</a>
</g>
</g>
<!-- Node2&#45;&gt;Node1 -->
<g id="edge1_Node000001_Node000002" class="edge">
<title>Node2&#45;&gt;Node1</title>
<g id="a_edge1_Node000001_Node000002"><a xlink:title=" ">
<path fill="none" stroke="#63b8ff" d="M68,-43.63C68,-35.34 68,-26.17 68,-19.61"/>
<polygon fill="#63b8ff" stroke="#63b8ff" points="64.5,-43.57 68,-53.57 71.5,-43.57 64.5,-43.57"/>
</a>
</g>
</g>
<!-- Node3 -->
<g id="Node000003" class="node">
<title>Node3</title>
<g id="a_Node000003"><a xlink:href="classllvm_1_1Pass.html" target="_top" xlink:title="Pass interface &#45; Implemented by all &#39;passes&#39;.">
<polygon fill="white" stroke="#666666" points="99.25,-129.75 36.75,-129.75 36.75,-110.5 99.25,-110.5 99.25,-129.75"/>
<text xml:space="preserve" text-anchor="middle" x="68" y="-116.25" font-family="Helvetica,sans-Serif" font-size="10.00">llvm::Pass</text>
</a>
</g>
</g>
<!-- Node3&#45;&gt;Node2 -->
<g id="edge2_Node000002_Node000003" class="edge">
<title>Node3&#45;&gt;Node2</title>
<g id="a_edge2_Node000002_Node000003"><a xlink:title=" ">
<path fill="none" stroke="#63b8ff" d="M68,-98.88C68,-90.59 68,-81.42 68,-74.86"/>
<polygon fill="#63b8ff" stroke="#63b8ff" points="64.5,-98.82 68,-108.82 71.5,-98.82 64.5,-98.82"/>
</a>
</g>
</g>
</g>
</svg>
