<?xml version="1.0" encoding="UTF-8" standalone="no"?>
<!DOCTYPE svg PUBLIC "-//W3C//DTD SVG 1.1//EN"
 "http://www.w3.org/Graphics/SVG/1.1/DTD/svg11.dtd">
<!-- Generated by graphviz version 13.1.2 (20250808.2320)
 -->
<!-- Title: llvm::DomTreeUpdater Pages: 1 -->
<svg width="246pt" height="205pt"
 viewBox="0.00 0.00 246.00 205.00" xmlns="http://www.w3.org/2000/svg" xmlns:xlink="http://www.w3.org/1999/xlink">
<g id="graph0" class="graph" transform="scale(1 1) rotate(0) translate(4 201)">
<title>llvm::DomTreeUpdater</title>
<!-- Node1 -->
<g id="Node000001" class="node">
<title>Node1</title>
<g id="a_Node000001"><a xlink:title=" ">
<polygon fill="#999999" stroke="#666666" points="155.5,-19.25 40.5,-19.25 40.5,0 155.5,0 155.5,-19.25"/>
<text xml:space="preserve" text-anchor="middle" x="98" y="-5.75" font-family="Helvetica,sans-Serif" font-size="10.00">llvm::DomTreeUpdater</text>
</a>
</g>
</g>
<!-- Node2 -->
<g id="Node000002" class="node">
<title>Node2</title>
<g id="a_Node000002"><a xlink:href="classllvm_1_1GenericDomTreeUpdater.html" target="_top" xlink:title=" ">
<polygon fill="white" stroke="#666666" points="184.38,-98 11.62,-98 11.62,-56.25 184.38,-56.25 184.38,-98"/>
<text xml:space="preserve" text-anchor="start" x="19.62" y="-84.5" font-family="Helvetica,sans-Serif" font-size="10.00">llvm::GenericDomTreeUpdater</text>
<text xml:space="preserve" text-anchor="start" x="19.62" y="-73.25" font-family="Helvetica,sans-Serif" font-size="10.00">&lt; DomTreeUpdater, DominatorTree,</text>
<text xml:space="preserve" text-anchor="middle" x="98" y="-62" font-family="Helvetica,sans-Serif" font-size="10.00"> PostDominatorTree &gt;</text>
</a>
</g>
</g>
<!-- Node2&#45;&gt;Node1 -->
<g id="edge1_Node000001_Node000002" class="edge">
<title>Node2&#45;&gt;Node1</title>
<g id="a_edge1_Node000001_Node000002"><a xlink:title=" ">
<path fill="none" stroke="#63b8ff" d="M98,-44.43C98,-35.27 98,-26 98,-19.49"/>
<polygon fill="#63b8ff" stroke="#63b8ff" points="94.5,-44.25 98,-54.25 101.5,-44.25 94.5,-44.25"/>
</a>
</g>
</g>
<!-- Node3 -->
<g id="Node000003" class="node">
<title>Node3</title>
<g id="a_Node000003"><a xlink:href="classllvm_1_1GenericDomTreeUpdater.html" target="_top" xlink:title=" ">
<polygon fill="white" stroke="#666666" points="196,-197 0,-197 0,-166.5 196,-166.5 196,-197"/>
<text xml:space="preserve" text-anchor="start" x="8" y="-183.5" font-family="Helvetica,sans-Serif" font-size="10.00">llvm::GenericDomTreeUpdater</text>
<text xml:space="preserve" text-anchor="middle" x="98" y="-172.25" font-family="Helvetica,sans-Serif" font-size="10.00">&lt; DerivedT, DomTreeT, PostDomTreeT &gt;</text>
</a>
</g>
</g>
<!-- Node3&#45;&gt;Node2 -->
<g id="edge2_Node000002_Node000003" class="edge">
<title>Node3&#45;&gt;Node2</title>
<g id="a_edge2_Node000002_Node000003"><a xlink:title=" ">
<path fill="none" stroke="orange" stroke-dasharray="5,2" d="M98,-154.68C98,-137.23 98,-114.58 98,-98.46"/>
<polygon fill="orange" stroke="orange" points="94.5,-154.53 98,-164.53 101.5,-154.53 94.5,-154.53"/>
</a>
</g>
<text xml:space="preserve" text-anchor="start" x="101" y="-136" font-family="Helvetica,sans-Serif" font-size="10.00" fill="grey">&lt; DomTreeUpdater, Dominator</text>
<text xml:space="preserve" text-anchor="start" x="101" y="-120.75" font-family="Helvetica,sans-Serif" font-size="10.00" fill="grey">  Tree, PostDominatorTree &gt;</text>
</g>
</g>
</svg>
