<?xml version="1.0" encoding="UTF-8" standalone="no"?>
<!DOCTYPE svg PUBLIC "-//W3C//DTD SVG 1.1//EN"
 "http://www.w3.org/Graphics/SVG/1.1/DTD/svg11.dtd">
<!-- Generated by graphviz version 13.1.2 (20250808.2320)
 -->
<!-- Title: llvm::VPDef Pages: 1 -->
<svg width="1008pt" height="686pt"
 viewBox="0.00 0.00 1008.00 686.00" xmlns="http://www.w3.org/2000/svg" xmlns:xlink="http://www.w3.org/1999/xlink">
<g id="graph0" class="graph" transform="scale(1 1) rotate(0) translate(4 682.25)">
<title>llvm::VPDef</title>
<!-- Node1 -->
<g id="Node000001" class="node">
<title>Node1</title>
<g id="a_Node000001"><a xlink:title="This class augments a recipe with a set of VPValues defined by the recipe.">
<polygon fill="#999999" stroke="#666666" points="69.25,-548.25 0,-548.25 0,-529 69.25,-529 69.25,-548.25"/>
<text xml:space="preserve" text-anchor="middle" x="34.62" y="-534.75" font-family="Helvetica,sans-Serif" font-size="10.00">llvm::VPDef</text>
</a>
</g>
</g>
<!-- Node2 -->
<g id="Node000002" class="node">
<title>Node2</title>
<g id="a_Node000002"><a xlink:href="classllvm_1_1VPRecipeBase.html" target="_top" xlink:title="VPRecipeBase is a base class modeling a sequence of one or more output IR instructions.">
<polygon fill="white" stroke="#666666" points="212,-548.25 105.25,-548.25 105.25,-529 212,-529 212,-548.25"/>
<text xml:space="preserve" text-anchor="middle" x="158.62" y="-534.75" font-family="Helvetica,sans-Serif" font-size="10.00">llvm::VPRecipeBase</text>
</a>
</g>
</g>
<!-- Node1&#45;&gt;Node2 -->
<g id="edge1_Node000001_Node000002" class="edge">
<title>Node1&#45;&gt;Node2</title>
<g id="a_edge1_Node000001_Node000002"><a xlink:title=" ">
<path fill="none" stroke="#63b8ff" d="M81.12,-538.62C88.93,-538.62 97.11,-538.62 105.09,-538.62"/>
<polygon fill="#63b8ff" stroke="#63b8ff" points="81.12,-535.13 71.12,-538.63 81.12,-542.13 81.12,-535.13"/>
</a>
</g>
</g>
<!-- Node3 -->
<g id="Node000003" class="node">
<title>Node3</title>
<g id="a_Node000003"><a xlink:href="classllvm_1_1VPBranchOnMaskRecipe.html" target="_top" xlink:title="A recipe for generating conditional branches on the bits of a mask.">
<polygon fill="white" stroke="#666666" points="399.75,-641.25 248,-641.25 248,-622 399.75,-622 399.75,-641.25"/>
<text xml:space="preserve" text-anchor="middle" x="323.88" y="-627.75" font-family="Helvetica,sans-Serif" font-size="10.00">llvm::VPBranchOnMaskRecipe</text>
</a>
</g>
</g>
<!-- Node2&#45;&gt;Node3 -->
<g id="edge2_Node000002_Node000003" class="edge">
<title>Node2&#45;&gt;Node3</title>
<g id="a_edge2_Node000002_Node000003"><a xlink:title=" ">
<path fill="none" stroke="#63b8ff" d="M175.98,-556.73C192.5,-573.91 219.58,-599.2 248,-613.62 254.2,-616.77 260.97,-619.38 267.82,-621.55"/>
<polygon fill="#63b8ff" stroke="#63b8ff" points="178.77,-554.59 169.38,-549.69 173.66,-559.38 178.77,-554.59"/>
</a>
</g>
</g>
<!-- Node4 -->
<g id="Node000004" class="node">
<title>Node4</title>
<g id="a_Node000004"><a xlink:href="classllvm_1_1VPHistogramRecipe.html" target="_top" xlink:title="A recipe representing a sequence of load &#45;&gt; update &#45;&gt; store as part of a histogram operation.">
<polygon fill="white" stroke="#666666" points="388.5,-604.25 259.25,-604.25 259.25,-585 388.5,-585 388.5,-604.25"/>
<text xml:space="preserve" text-anchor="middle" x="323.88" y="-590.75" font-family="Helvetica,sans-Serif" font-size="10.00">llvm::VPHistogramRecipe</text>
</a>
</g>
</g>
<!-- Node2&#45;&gt;Node4 -->
<g id="edge3_Node000002_Node000004" class="edge">
<title>Node2&#45;&gt;Node4</title>
<g id="a_edge3_Node000002_Node000004"><a xlink:title=" ">
<path fill="none" stroke="#63b8ff" d="M190.6,-553.48C207.33,-561.11 228.5,-570.14 248,-576.62 256.75,-579.54 266.23,-582.18 275.4,-584.5"/>
<polygon fill="#63b8ff" stroke="#63b8ff" points="192.22,-550.38 181.68,-549.35 189.28,-556.73 192.22,-550.38"/>
</a>
</g>
</g>
<!-- Node5 -->
<g id="Node000005" class="node">
<title>Node5</title>
<g id="a_Node000005"><a xlink:href="classllvm_1_1VPIRInstruction.html" target="_top" xlink:title="A recipe to wrap on original IR instruction not to be modified during execution, except for PHIs.">
<polygon fill="white" stroke="#666666" points="378.75,-567.25 269,-567.25 269,-548 378.75,-548 378.75,-567.25"/>
<text xml:space="preserve" text-anchor="middle" x="323.88" y="-553.75" font-family="Helvetica,sans-Serif" font-size="10.00">llvm::VPIRInstruction</text>
</a>
</g>
</g>
<!-- Node2&#45;&gt;Node5 -->
<g id="edge4_Node000002_Node000005" class="edge">
<title>Node2&#45;&gt;Node5</title>
<g id="a_edge4_Node000002_Node000005"><a xlink:title=" ">
<path fill="none" stroke="#63b8ff" d="M223.43,-546.05C238.41,-547.79 254.23,-549.64 268.74,-551.32"/>
<polygon fill="#63b8ff" stroke="#63b8ff" points="224.02,-542.6 213.68,-544.92 223.21,-549.55 224.02,-542.6"/>
</a>
</g>
</g>
<!-- Node7 -->
<g id="Node000007" class="node">
<title>Node7</title>
<g id="a_Node000007"><a xlink:href="classllvm_1_1VPInterleaveRecipe.html" target="_top" xlink:title="VPInterleaveRecipe is a recipe for transforming an interleave group of load or stores into one wide l...">
<polygon fill="white" stroke="#666666" points="387.38,-530.25 260.38,-530.25 260.38,-511 387.38,-511 387.38,-530.25"/>
<text xml:space="preserve" text-anchor="middle" x="323.88" y="-516.75" font-family="Helvetica,sans-Serif" font-size="10.00">llvm::VPInterleaveRecipe</text>
</a>
</g>
</g>
<!-- Node2&#45;&gt;Node7 -->
<g id="edge6_Node000002_Node000007" class="edge">
<title>Node2&#45;&gt;Node7</title>
<g id="a_edge6_Node000002_Node000007"><a xlink:title=" ">
<path fill="none" stroke="#63b8ff" d="M223.52,-531.58C235.57,-530.25 248.15,-528.86 260.16,-527.54"/>
<polygon fill="#63b8ff" stroke="#63b8ff" points="223.24,-528.09 213.68,-532.66 224,-535.05 223.24,-528.09"/>
</a>
</g>
</g>
<!-- Node8 -->
<g id="Node000008" class="node">
<title>Node8</title>
<g id="a_Node000008"><a xlink:href="classllvm_1_1VPSingleDefRecipe.html" target="_top" xlink:title="VPSingleDef is a base class for recipes for modeling a sequence of one or more output IR that define ...">
<polygon fill="white" stroke="#666666" points="387.38,-493.25 260.38,-493.25 260.38,-474 387.38,-474 387.38,-493.25"/>
<text xml:space="preserve" text-anchor="middle" x="323.88" y="-479.75" font-family="Helvetica,sans-Serif" font-size="10.00">llvm::VPSingleDefRecipe</text>
</a>
</g>
</g>
<!-- Node2&#45;&gt;Node8 -->
<g id="edge7_Node000002_Node000008" class="edge">
<title>Node2&#45;&gt;Node8</title>
<g id="a_edge7_Node000002_Node000008"><a xlink:title=" ">
<path fill="none" stroke="#63b8ff" d="M191.31,-523.9C207.94,-516.55 228.81,-507.9 248,-501.62 256.89,-498.71 266.52,-496.05 275.82,-493.71"/>
<polygon fill="#63b8ff" stroke="#63b8ff" points="190.12,-520.6 182.43,-527.89 192.98,-526.99 190.12,-520.6"/>
</a>
</g>
</g>
<!-- Node42 -->
<g id="Node000042" class="node">
<title>Node42</title>
<g id="a_Node000042"><a xlink:href="classllvm_1_1VPWidenMemoryRecipe.html" target="_top" xlink:title="A common base class for widening memory operations.">
<polygon fill="white" stroke="#666666" points="397.5,-157.25 250.25,-157.25 250.25,-138 397.5,-138 397.5,-157.25"/>
<text xml:space="preserve" text-anchor="middle" x="323.88" y="-143.75" font-family="Helvetica,sans-Serif" font-size="10.00">llvm::VPWidenMemoryRecipe</text>
</a>
</g>
</g>
<!-- Node2&#45;&gt;Node42 -->
<g id="edge41_Node000002_Node000042" class="edge">
<title>Node2&#45;&gt;Node42</title>
<g id="a_edge41_Node000002_Node000042"><a xlink:title=" ">
<path fill="none" stroke="#63b8ff" d="M168.14,-518.24C197.96,-446.8 297.12,-209.32 318.7,-157.62"/>
<polygon fill="#63b8ff" stroke="#63b8ff" points="165.03,-516.59 164.41,-527.17 171.49,-519.29 165.03,-516.59"/>
</a>
</g>
</g>
<!-- Node6 -->
<g id="Node000006" class="node">
<title>Node6</title>
<g id="a_Node000006"><a xlink:href="structllvm_1_1VPIRPhi.html" target="_top" xlink:title="An overlay for VPIRInstructions wrapping PHI nodes enabling convenient use cast/dyn_cast/isa and exec...">
<polygon fill="white" stroke="#666666" points="557.5,-678.25 479.25,-678.25 479.25,-659 557.5,-659 557.5,-678.25"/>
<text xml:space="preserve" text-anchor="middle" x="518.38" y="-664.75" font-family="Helvetica,sans-Serif" font-size="10.00">llvm::VPIRPhi</text>
</a>
</g>
</g>
<!-- Node5&#45;&gt;Node6 -->
<g id="edge5_Node000005_Node000006" class="edge">
<title>Node5&#45;&gt;Node6</title>
<g id="a_edge5_Node000005_Node000006"><a xlink:title=" ">
<path fill="none" stroke="#63b8ff" d="M389.65,-569.07C393.23,-570.94 396.64,-573.11 399.75,-575.62 428.51,-598.86 406.77,-627.66 435.75,-650.62 447.92,-660.27 464.18,-665 478.98,-667.23"/>
<polygon fill="#63b8ff" stroke="#63b8ff" points="391.09,-565.88 380.53,-565.13 388.32,-572.3 391.09,-565.88"/>
</a>
</g>
</g>
<!-- Node9 -->
<g id="Node000009" class="node">
<title>Node9</title>
<g id="a_Node000009"><a xlink:href="classllvm_1_1VPBlendRecipe.html" target="_top" xlink:title="A recipe for vectorizing a phi&#45;node as a sequence of mask&#45;based select instructions.">
<polygon fill="white" stroke="#666666" points="572.88,-641.25 463.88,-641.25 463.88,-622 572.88,-622 572.88,-641.25"/>
<text xml:space="preserve" text-anchor="middle" x="518.38" y="-627.75" font-family="Helvetica,sans-Serif" font-size="10.00">llvm::VPBlendRecipe</text>
</a>
</g>
</g>
<!-- Node8&#45;&gt;Node9 -->
<g id="edge8_Node000008_Node000009" class="edge">
<title>Node8&#45;&gt;Node9</title>
<g id="a_edge8_Node000008_Node000009"><a xlink:title=" ">
<path fill="none" stroke="#63b8ff" d="M396.94,-499.21C397.9,-499.98 398.84,-500.78 399.75,-501.62 438.08,-537.18 397.08,-578.43 435.75,-613.62 443.48,-620.66 453.31,-625.16 463.46,-628"/>
<polygon fill="#63b8ff" stroke="#63b8ff" points="399.14,-496.46 388.82,-494.03 395.37,-502.36 399.14,-496.46"/>
</a>
</g>
</g>
<!-- Node10 -->
<g id="Node000010" class="node">
<title>Node10</title>
<g id="a_Node000010"><a xlink:href="classllvm_1_1VPDerivedIVRecipe.html" target="_top" xlink:title="A recipe for converting the input value IV value to the corresponding value of an IV with different s...">
<polygon fill="white" stroke="#666666" points="582.25,-604.25 454.5,-604.25 454.5,-585 582.25,-585 582.25,-604.25"/>
<text xml:space="preserve" text-anchor="middle" x="518.38" y="-590.75" font-family="Helvetica,sans-Serif" font-size="10.00">llvm::VPDerivedIVRecipe</text>
</a>
</g>
</g>
<!-- Node8&#45;&gt;Node10 -->
<g id="edge9_Node000008_Node000010" class="edge">
<title>Node8&#45;&gt;Node10</title>
<g id="a_edge9_Node000008_Node000010"><a xlink:title=" ">
<path fill="none" stroke="#63b8ff" d="M396.31,-499.06C397.49,-499.87 398.64,-500.73 399.75,-501.62 428.51,-524.86 406.77,-553.66 435.75,-576.62 441.21,-580.95 447.49,-584.29 454.09,-586.85"/>
<polygon fill="#63b8ff" stroke="#63b8ff" points="398.44,-496.24 388.01,-494.35 394.98,-502.33 398.44,-496.24"/>
</a>
</g>
</g>
<!-- Node11 -->
<g id="Node000011" class="node">
<title>Node11</title>
<g id="a_Node000011"><a xlink:href="classllvm_1_1VPExpandSCEVRecipe.html" target="_top" xlink:title="Recipe to expand a SCEV expression.">
<polygon fill="white" stroke="#666666" points="590.88,-567.25 445.88,-567.25 445.88,-548 590.88,-548 590.88,-567.25"/>
<text xml:space="preserve" text-anchor="middle" x="518.38" y="-553.75" font-family="Helvetica,sans-Serif" font-size="10.00">llvm::VPExpandSCEVRecipe</text>
</a>
</g>
</g>
<!-- Node8&#45;&gt;Node11 -->
<g id="edge10_Node000008_Node000011" class="edge">
<title>Node8&#45;&gt;Node11</title>
<g id="a_edge10_Node000008_Node000011"><a xlink:title=" ">
<path fill="none" stroke="#63b8ff" d="M392.88,-498.06C395.24,-499.16 397.54,-500.35 399.75,-501.62 419.89,-513.27 415.5,-528.17 435.75,-539.62 441.31,-542.77 447.37,-545.36 453.59,-547.5"/>
<polygon fill="#63b8ff" stroke="#63b8ff" points="394.21,-494.82 383.63,-494.31 391.58,-501.31 394.21,-494.82"/>
</a>
</g>
</g>
<!-- Node12 -->
<g id="Node000012" class="node">
<title>Node12</title>
<g id="a_Node000012"><a xlink:href="classllvm_1_1VPExpressionRecipe.html" target="_top" xlink:title="A recipe to combine multiple recipes into a single &#39;expression&#39; recipe, which should be considered a ...">
<polygon fill="white" stroke="#666666" points="584.88,-530.25 451.88,-530.25 451.88,-511 584.88,-511 584.88,-530.25"/>
<text xml:space="preserve" text-anchor="middle" x="518.38" y="-516.75" font-family="Helvetica,sans-Serif" font-size="10.00">llvm::VPExpressionRecipe</text>
</a>
</g>
</g>
<!-- Node8&#45;&gt;Node12 -->
<g id="edge11_Node000008_Node000012" class="edge">
<title>Node8&#45;&gt;Node12</title>
<g id="a_edge11_Node000008_Node000012"><a xlink:title=" ">
<path fill="none" stroke="#63b8ff" d="M388.58,-495.87C413.31,-500.62 441.29,-506 464.84,-510.53"/>
<polygon fill="#63b8ff" stroke="#63b8ff" points="389.44,-492.47 378.96,-494.02 388.12,-499.35 389.44,-492.47"/>
</a>
</g>
</g>
<!-- Node13 -->
<g id="Node000013" class="node">
<title>Node13</title>
<g id="a_Node000013"><a xlink:href="classllvm_1_1VPHeaderPHIRecipe.html" target="_top" xlink:title="A pure virtual base class for all recipes modeling header phis, including phis for first order recurr...">
<polygon fill="white" stroke="#666666" points="584.88,-493.25 451.88,-493.25 451.88,-474 584.88,-474 584.88,-493.25"/>
<text xml:space="preserve" text-anchor="middle" x="518.38" y="-479.75" font-family="Helvetica,sans-Serif" font-size="10.00">llvm::VPHeaderPHIRecipe</text>
</a>
</g>
</g>
<!-- Node8&#45;&gt;Node13 -->
<g id="edge12_Node000008_Node000013" class="edge">
<title>Node8&#45;&gt;Node13</title>
<g id="a_edge12_Node000008_Node000013"><a xlink:title=" ">
<path fill="none" stroke="#63b8ff" d="M398.84,-483.62C416.14,-483.62 434.46,-483.62 451.39,-483.62"/>
<polygon fill="#63b8ff" stroke="#63b8ff" points="399.15,-480.13 389.15,-483.63 399.15,-487.13 399.15,-480.13"/>
</a>
</g>
</g>
<!-- Node22 -->
<g id="Node000022" class="node">
<title>Node22</title>
<g id="a_Node000022"><a xlink:href="classllvm_1_1VPPredInstPHIRecipe.html" target="_top" xlink:title="VPPredInstPHIRecipe is a recipe for generating the phi nodes needed when control converges back from ...">
<polygon fill="white" stroke="#666666" points="587.5,-456.25 449.25,-456.25 449.25,-437 587.5,-437 587.5,-456.25"/>
<text xml:space="preserve" text-anchor="middle" x="518.38" y="-442.75" font-family="Helvetica,sans-Serif" font-size="10.00">llvm::VPPredInstPHIRecipe</text>
</a>
</g>
</g>
<!-- Node8&#45;&gt;Node22 -->
<g id="edge21_Node000008_Node000022" class="edge">
<title>Node8&#45;&gt;Node22</title>
<g id="a_edge21_Node000008_Node000022"><a xlink:title=" ">
<path fill="none" stroke="#63b8ff" d="M388.58,-471.38C413.31,-466.63 441.29,-461.25 464.84,-456.72"/>
<polygon fill="#63b8ff" stroke="#63b8ff" points="388.12,-467.9 378.96,-473.23 389.44,-474.78 388.12,-467.9"/>
</a>
</g>
</g>
<!-- Node23 -->
<g id="Node000023" class="node">
<title>Node23</title>
<g id="a_Node000023"><a xlink:href="structllvm_1_1VPRecipeWithIRFlags.html" target="_top" xlink:title="A pure&#45;virtual common base class for recipes defining a single VPValue and using IR flags.">
<polygon fill="white" stroke="#666666" points="587.88,-305.25 448.88,-305.25 448.88,-286 587.88,-286 587.88,-305.25"/>
<text xml:space="preserve" text-anchor="middle" x="518.38" y="-291.75" font-family="Helvetica,sans-Serif" font-size="10.00">llvm::VPRecipeWithIRFlags</text>
</a>
</g>
</g>
<!-- Node8&#45;&gt;Node23 -->
<g id="edge22_Node000008_Node000023" class="edge">
<title>Node8&#45;&gt;Node23</title>
<g id="a_edge22_Node000008_Node000023"><a xlink:title=" ">
<path fill="none" stroke="#63b8ff" d="M343.33,-465.6C383.3,-426.56 476.78,-335.27 507.44,-305.33"/>
<polygon fill="#63b8ff" stroke="#63b8ff" points="341.02,-462.97 336.31,-472.46 345.91,-467.98 341.02,-462.97"/>
</a>
</g>
</g>
<!-- Node40 -->
<g id="Node000040" class="node">
<title>Node40</title>
<g id="a_Node000040"><a xlink:href="classllvm_1_1VPWidenCanonicalIVRecipe.html" target="_top" xlink:title="A Recipe for widening the canonical induction variable of the vector loop.">
<polygon fill="white" stroke="#666666" points="601,-268.25 435.75,-268.25 435.75,-249 601,-249 601,-268.25"/>
<text xml:space="preserve" text-anchor="middle" x="518.38" y="-254.75" font-family="Helvetica,sans-Serif" font-size="10.00">llvm::VPWidenCanonicalIVRecipe</text>
</a>
</g>
</g>
<!-- Node8&#45;&gt;Node40 -->
<g id="edge39_Node000008_Node000040" class="edge">
<title>Node8&#45;&gt;Node40</title>
<g id="a_edge39_Node000008_Node000040"><a xlink:title=" ">
<path fill="none" stroke="#63b8ff" d="M329.76,-462.9C340.84,-420.74 371.99,-324.9 435.75,-276.62 439.92,-273.47 444.52,-270.85 449.37,-268.67"/>
<polygon fill="#63b8ff" stroke="#63b8ff" points="326.4,-461.92 327.37,-472.47 333.19,-463.61 326.4,-461.92"/>
</a>
</g>
</g>
<!-- Node41 -->
<g id="Node000041" class="node">
<title>Node41</title>
<g id="a_Node000041"><a xlink:href="classllvm_1_1VPWidenPHIRecipe.html" target="_top" xlink:title="A recipe for widened phis.">
<polygon fill="white" stroke="#666666" points="583,-231.25 453.75,-231.25 453.75,-212 583,-212 583,-231.25"/>
<text xml:space="preserve" text-anchor="middle" x="518.38" y="-217.75" font-family="Helvetica,sans-Serif" font-size="10.00">llvm::VPWidenPHIRecipe</text>
</a>
</g>
</g>
<!-- Node8&#45;&gt;Node41 -->
<g id="edge40_Node000008_Node000041" class="edge">
<title>Node8&#45;&gt;Node41</title>
<g id="a_edge40_Node000008_Node000041"><a xlink:title=" ">
<path fill="none" stroke="#63b8ff" d="M328.07,-462.22C336.4,-414.35 363.37,-298.23 435.75,-239.62 441.05,-235.33 447.16,-232.01 453.59,-229.45"/>
<polygon fill="#63b8ff" stroke="#63b8ff" points="324.62,-461.65 326.47,-472.08 331.53,-462.77 324.62,-461.65"/>
</a>
</g>
</g>
<!-- Node14 -->
<g id="Node000014" class="node">
<title>Node14</title>
<g id="a_Node000014"><a xlink:href="classllvm_1_1VPActiveLaneMaskPHIRecipe.html" target="_top" xlink:title="A recipe for generating the active lane mask for the vector loop that is used to predicate the vector...">
<polygon fill="white" stroke="#666666" points="809.75,-672.25 637,-672.25 637,-653 809.75,-653 809.75,-672.25"/>
<text xml:space="preserve" text-anchor="middle" x="723.38" y="-658.75" font-family="Helvetica,sans-Serif" font-size="10.00">llvm::VPActiveLaneMaskPHIRecipe</text>
</a>
</g>
</g>
<!-- Node13&#45;&gt;Node14 -->
<g id="edge13_Node000013_Node000014" class="edge">
<title>Node13&#45;&gt;Node14</title>
<g id="a_edge13_Node000013_Node000014"><a xlink:title=" ">
<path fill="none" stroke="#63b8ff" d="M595.03,-496.68C597.14,-498.18 599.14,-499.82 601,-501.62 648.02,-547.28 589.77,-599.19 637,-644.62 640.28,-647.78 643.96,-650.43 647.9,-652.67"/>
<polygon fill="#63b8ff" stroke="#63b8ff" points="596.91,-493.72 586.48,-491.81 593.44,-499.81 596.91,-493.72"/>
</a>
</g>
</g>
<!-- Node15 -->
<g id="Node000015" class="node">
<title>Node15</title>
<g id="a_Node000015"><a xlink:href="classllvm_1_1VPCanonicalIVPHIRecipe.html" target="_top" xlink:title="Canonical scalar induction phi of the vector loop.">
<polygon fill="white" stroke="#666666" points="800.75,-635.25 646,-635.25 646,-616 800.75,-616 800.75,-635.25"/>
<text xml:space="preserve" text-anchor="middle" x="723.38" y="-621.75" font-family="Helvetica,sans-Serif" font-size="10.00">llvm::VPCanonicalIVPHIRecipe</text>
</a>
</g>
</g>
<!-- Node13&#45;&gt;Node15 -->
<g id="edge14_Node000013_Node000015" class="edge">
<title>Node13&#45;&gt;Node15</title>
<g id="a_edge14_Node000013_Node000015"><a xlink:title=" ">
<path fill="none" stroke="#63b8ff" d="M594.99,-496.98C597.1,-498.39 599.11,-499.93 601,-501.62 638.07,-534.81 599.78,-574.61 637,-607.62 640.51,-610.74 644.43,-613.37 648.59,-615.57"/>
<polygon fill="#63b8ff" stroke="#63b8ff" points="596.99,-494.08 586.54,-492.35 593.63,-500.23 596.99,-494.08"/>
</a>
</g>
</g>
<!-- Node16 -->
<g id="Node000016" class="node">
<title>Node16</title>
<g id="a_Node000016"><a xlink:href="classllvm_1_1VPEVLBasedIVPHIRecipe.html" target="_top" xlink:title="A recipe for generating the phi node for the current index of elements, adjusted in accordance with E...">
<polygon fill="white" stroke="#666666" points="802.25,-598.25 644.5,-598.25 644.5,-579 802.25,-579 802.25,-598.25"/>
<text xml:space="preserve" text-anchor="middle" x="723.38" y="-584.75" font-family="Helvetica,sans-Serif" font-size="10.00">llvm::VPEVLBasedIVPHIRecipe</text>
</a>
</g>
</g>
<!-- Node13&#45;&gt;Node16 -->
<g id="edge15_Node000013_Node000016" class="edge">
<title>Node13&#45;&gt;Node16</title>
<g id="a_edge15_Node000013_Node000016"><a xlink:title=" ">
<path fill="none" stroke="#63b8ff" d="M595.45,-497.86C597.37,-499.02 599.22,-500.27 601,-501.62 628.21,-522.33 609.81,-548.89 637,-569.62 641.71,-573.22 646.97,-576.15 652.49,-578.55"/>
<polygon fill="#63b8ff" stroke="#63b8ff" points="597.23,-494.83 586.72,-493.45 594.07,-501.08 597.23,-494.83"/>
</a>
</g>
</g>
<!-- Node17 -->
<g id="Node000017" class="node">
<title>Node17</title>
<g id="a_Node000017"><a xlink:href="structllvm_1_1VPFirstOrderRecurrencePHIRecipe.html" target="_top" xlink:title="A recipe for handling first&#45;order recurrence phis.">
<polygon fill="white" stroke="#666666" points="797,-560.88 649.75,-560.88 649.75,-530.38 797,-530.38 797,-560.88"/>
<text xml:space="preserve" text-anchor="start" x="657.75" y="-547.38" font-family="Helvetica,sans-Serif" font-size="10.00">llvm::VPFirstOrderRecurrence</text>
<text xml:space="preserve" text-anchor="middle" x="723.38" y="-536.12" font-family="Helvetica,sans-Serif" font-size="10.00">PHIRecipe</text>
</a>
</g>
</g>
<!-- Node13&#45;&gt;Node17 -->
<g id="edge16_Node000013_Node000017" class="edge">
<title>Node13&#45;&gt;Node17</title>
<g id="a_edge16_Node000013_Node000017"><a xlink:title=" ">
<path fill="none" stroke="#63b8ff" d="M586.36,-496.73C591.36,-498.21 596.29,-499.84 601,-501.62 618.12,-508.11 620.08,-514.66 637,-521.62 644.4,-524.67 652.32,-527.47 660.24,-530"/>
<polygon fill="#63b8ff" stroke="#63b8ff" points="587.36,-493.37 576.79,-494.1 585.51,-500.12 587.36,-493.37"/>
</a>
</g>
</g>
<!-- Node18 -->
<g id="Node000018" class="node">
<title>Node18</title>
<g id="a_Node000018"><a xlink:href="classllvm_1_1VPReductionPHIRecipe.html" target="_top" xlink:title="A recipe for handling reduction phis.">
<polygon fill="white" stroke="#666666" points="796.25,-512.25 650.5,-512.25 650.5,-493 796.25,-493 796.25,-512.25"/>
<text xml:space="preserve" text-anchor="middle" x="723.38" y="-498.75" font-family="Helvetica,sans-Serif" font-size="10.00">llvm::VPReductionPHIRecipe</text>
</a>
</g>
</g>
<!-- Node13&#45;&gt;Node18 -->
<g id="edge17_Node000013_Node000018" class="edge">
<title>Node13&#45;&gt;Node18</title>
<g id="a_edge17_Node000013_Node000018"><a xlink:title=" ">
<path fill="none" stroke="#63b8ff" d="M596.65,-490.86C614.21,-492.5 632.79,-494.24 650.13,-495.86"/>
<polygon fill="#63b8ff" stroke="#63b8ff" points="597.07,-487.38 586.79,-489.93 596.42,-494.35 597.07,-487.38"/>
</a>
</g>
</g>
<!-- Node19 -->
<g id="Node000019" class="node">
<title>Node19</title>
<g id="a_Node000019"><a xlink:href="classllvm_1_1VPWidenInductionRecipe.html" target="_top" xlink:title="Base class for widened induction (VPWidenIntOrFpInductionRecipe and VPWidenPointerInductionRecipe),...">
<polygon fill="white" stroke="#666666" points="799.25,-475.25 647.5,-475.25 647.5,-456 799.25,-456 799.25,-475.25"/>
<text xml:space="preserve" text-anchor="middle" x="723.38" y="-461.75" font-family="Helvetica,sans-Serif" font-size="10.00">llvm::VPWidenInductionRecipe</text>
</a>
</g>
</g>
<!-- Node13&#45;&gt;Node19 -->
<g id="edge18_Node000013_Node000019" class="edge">
<title>Node13&#45;&gt;Node19</title>
<g id="a_edge18_Node000013_Node000019"><a xlink:title=" ">
<path fill="none" stroke="#63b8ff" d="M596.61,-476.78C613.23,-475.3 630.76,-473.75 647.29,-472.28"/>
<polygon fill="#63b8ff" stroke="#63b8ff" points="596.44,-473.28 586.79,-477.65 597.06,-480.25 596.44,-473.28"/>
</a>
</g>
</g>
<!-- Node20 -->
<g id="Node000020" class="node">
<title>Node20</title>
<g id="a_Node000020"><a xlink:href="classllvm_1_1VPWidenIntOrFpInductionRecipe.html" target="_top" xlink:title="A recipe for handling phi nodes of integer and floating&#45;point inductions, producing their vector valu...">
<polygon fill="white" stroke="#666666" points="999.75,-553.88 845.75,-553.88 845.75,-523.38 999.75,-523.38 999.75,-553.88"/>
<text xml:space="preserve" text-anchor="start" x="853.75" y="-540.38" font-family="Helvetica,sans-Serif" font-size="10.00">llvm::VPWidenIntOrFpInduction</text>
<text xml:space="preserve" text-anchor="middle" x="922.75" y="-529.12" font-family="Helvetica,sans-Serif" font-size="10.00">Recipe</text>
</a>
</g>
</g>
<!-- Node19&#45;&gt;Node20 -->
<g id="edge19_Node000019_Node000020" class="edge">
<title>Node19&#45;&gt;Node20</title>
<g id="a_edge19_Node000019_Node000020"><a xlink:title=" ">
<path fill="none" stroke="#63b8ff" d="M799.58,-479.27C803.07,-480.59 806.48,-482.04 809.75,-483.62 828.49,-492.71 827.54,-503.53 845.75,-513.62 852.07,-517.13 858.95,-520.24 865.92,-522.97"/>
<polygon fill="#63b8ff" stroke="#63b8ff" points="800.94,-476.04 790.35,-476.17 798.71,-482.67 800.94,-476.04"/>
</a>
</g>
</g>
<!-- Node21 -->
<g id="Node000021" class="node">
<title>Node21</title>
<g id="a_Node000021"><a xlink:href="classllvm_1_1VPWidenPointerInductionRecipe.html" target="_top" xlink:title=" ">
<polygon fill="white" stroke="#666666" points="998.62,-504.88 846.88,-504.88 846.88,-474.38 998.62,-474.38 998.62,-504.88"/>
<text xml:space="preserve" text-anchor="start" x="854.88" y="-491.38" font-family="Helvetica,sans-Serif" font-size="10.00">llvm::VPWidenPointerInduction</text>
<text xml:space="preserve" text-anchor="middle" x="922.75" y="-480.12" font-family="Helvetica,sans-Serif" font-size="10.00">Recipe</text>
</a>
</g>
</g>
<!-- Node19&#45;&gt;Node21 -->
<g id="edge20_Node000019_Node000021" class="edge">
<title>Node19&#45;&gt;Node21</title>
<g id="a_edge20_Node000019_Node000021"><a xlink:title=" ">
<path fill="none" stroke="#63b8ff" d="M810.84,-476.14C822.7,-477.58 834.81,-479.05 846.45,-480.47"/>
<polygon fill="#63b8ff" stroke="#63b8ff" points="811.41,-472.68 801.06,-474.95 810.56,-479.63 811.41,-472.68"/>
</a>
</g>
</g>
<!-- Node24 -->
<g id="Node000024" class="node">
<title>Node24</title>
<g id="a_Node000024"><a xlink:href="classllvm_1_1VPInstruction.html" target="_top" xlink:title="This is a concrete Recipe that models a single VPlan&#45;level instruction.">
<polygon fill="white" stroke="#666666" points="773,-438.25 673.75,-438.25 673.75,-419 773,-419 773,-438.25"/>
<text xml:space="preserve" text-anchor="middle" x="723.38" y="-424.75" font-family="Helvetica,sans-Serif" font-size="10.00">llvm::VPInstruction</text>
</a>
</g>
</g>
<!-- Node23&#45;&gt;Node24 -->
<g id="edge23_Node000023_Node000024" class="edge">
<title>Node23&#45;&gt;Node24</title>
<g id="a_edge23_Node000023_Node000024"><a xlink:title=" ">
<path fill="none" stroke="#63b8ff" d="M533.18,-314.72C553.06,-340.71 592.31,-386.73 637,-410.62 648.09,-416.55 660.96,-420.53 673.29,-423.2"/>
<polygon fill="#63b8ff" stroke="#63b8ff" points="536.01,-312.66 527.23,-306.73 530.4,-316.84 536.01,-312.66"/>
</a>
</g>
</g>
<!-- Node27 -->
<g id="Node000027" class="node">
<title>Node27</title>
<g id="a_Node000027"><a xlink:href="classllvm_1_1VPReductionRecipe.html" target="_top" xlink:title="A recipe to represent inloop reduction operations, performing a reduction on a vector operand into a ...">
<polygon fill="white" stroke="#666666" points="787.62,-401.25 659.12,-401.25 659.12,-382 787.62,-382 787.62,-401.25"/>
<text xml:space="preserve" text-anchor="middle" x="723.38" y="-387.75" font-family="Helvetica,sans-Serif" font-size="10.00">llvm::VPReductionRecipe</text>
</a>
</g>
</g>
<!-- Node23&#45;&gt;Node27 -->
<g id="edge26_Node000023_Node000027" class="edge">
<title>Node23&#45;&gt;Node27</title>
<g id="a_edge26_Node000023_Node000027"><a xlink:title=" ">
<path fill="none" stroke="#63b8ff" d="M540.12,-312.95C562.6,-330.83 600.19,-358.2 637,-373.62 644.54,-376.79 652.71,-379.41 660.89,-381.59"/>
<polygon fill="#63b8ff" stroke="#63b8ff" points="542.34,-310.24 532.37,-306.66 537.93,-315.68 542.34,-310.24"/>
</a>
</g>
</g>
<!-- Node30 -->
<g id="Node000030" class="node">
<title>Node30</title>
<g id="a_Node000030"><a xlink:href="classllvm_1_1VPReplicateRecipe.html" target="_top" xlink:title="VPReplicateRecipe replicates a given instruction producing multiple scalar copies of the original sca...">
<polygon fill="white" stroke="#666666" points="786.12,-364.25 660.62,-364.25 660.62,-345 786.12,-345 786.12,-364.25"/>
<text xml:space="preserve" text-anchor="middle" x="723.38" y="-350.75" font-family="Helvetica,sans-Serif" font-size="10.00">llvm::VPReplicateRecipe</text>
</a>
</g>
</g>
<!-- Node23&#45;&gt;Node30 -->
<g id="edge29_Node000023_Node000030" class="edge">
<title>Node23&#45;&gt;Node30</title>
<g id="a_edge29_Node000023_Node000030"><a xlink:title=" ">
<path fill="none" stroke="#63b8ff" d="M555.9,-309.71C578.93,-318.25 609.43,-328.95 637,-336.62 647.36,-339.51 658.54,-342.18 669.29,-344.53"/>
<polygon fill="#63b8ff" stroke="#63b8ff" points="557.24,-306.48 546.65,-306.24 554.79,-313.03 557.24,-306.48"/>
</a>
</g>
</g>
<!-- Node31 -->
<g id="Node000031" class="node">
<title>Node31</title>
<g id="a_Node000031"><a xlink:href="classllvm_1_1VPScalarIVStepsRecipe.html" target="_top" xlink:title="A recipe for handling phi nodes of integer and floating&#45;point inductions, producing their scalar valu...">
<polygon fill="white" stroke="#666666" points="797,-327.25 649.75,-327.25 649.75,-308 797,-308 797,-327.25"/>
<text xml:space="preserve" text-anchor="middle" x="723.38" y="-313.75" font-family="Helvetica,sans-Serif" font-size="10.00">llvm::VPScalarIVStepsRecipe</text>
</a>
</g>
</g>
<!-- Node23&#45;&gt;Node31 -->
<g id="edge30_Node000023_Node000031" class="edge">
<title>Node23&#45;&gt;Node31</title>
<g id="a_edge30_Node000023_Node000031"><a xlink:title=" ">
<path fill="none" stroke="#63b8ff" d="M599.4,-304.3C615.95,-306.09 633.28,-307.97 649.55,-309.73"/>
<polygon fill="#63b8ff" stroke="#63b8ff" points="599.93,-300.83 589.61,-303.24 599.17,-307.79 599.93,-300.83"/>
</a>
</g>
</g>
<!-- Node32 -->
<g id="Node000032" class="node">
<title>Node32</title>
<g id="a_Node000032"><a xlink:href="classllvm_1_1VPVectorEndPointerRecipe.html" target="_top" xlink:title="A recipe to compute a pointer to the last element of each part of a widened memory access for widened...">
<polygon fill="white" stroke="#666666" points="788.38,-289.88 658.38,-289.88 658.38,-259.38 788.38,-259.38 788.38,-289.88"/>
<text xml:space="preserve" text-anchor="start" x="666.38" y="-276.38" font-family="Helvetica,sans-Serif" font-size="10.00">llvm::VPVectorEndPointer</text>
<text xml:space="preserve" text-anchor="middle" x="723.38" y="-265.12" font-family="Helvetica,sans-Serif" font-size="10.00">Recipe</text>
</a>
</g>
</g>
<!-- Node23&#45;&gt;Node32 -->
<g id="edge31_Node000023_Node000032" class="edge">
<title>Node23&#45;&gt;Node32</title>
<g id="a_edge31_Node000023_Node000032"><a xlink:title=" ">
<path fill="none" stroke="#63b8ff" d="M599.43,-287.34C618.92,-285.33 639.52,-283.2 658.17,-281.27"/>
<polygon fill="#63b8ff" stroke="#63b8ff" points="599.19,-283.85 589.61,-288.36 599.91,-290.81 599.19,-283.85"/>
</a>
</g>
</g>
<!-- Node33 -->
<g id="Node000033" class="node">
<title>Node33</title>
<g id="a_Node000033"><a xlink:href="classllvm_1_1VPVectorPointerRecipe.html" target="_top" xlink:title="A recipe to compute the pointers for widened memory accesses of IndexTy.">
<polygon fill="white" stroke="#666666" points="795.12,-241.25 651.62,-241.25 651.62,-222 795.12,-222 795.12,-241.25"/>
<text xml:space="preserve" text-anchor="middle" x="723.38" y="-227.75" font-family="Helvetica,sans-Serif" font-size="10.00">llvm::VPVectorPointerRecipe</text>
</a>
</g>
</g>
<!-- Node23&#45;&gt;Node33 -->
<g id="edge32_Node000023_Node000033" class="edge">
<title>Node23&#45;&gt;Node33</title>
<g id="a_edge32_Node000023_Node000033"><a xlink:title=" ">
<path fill="none" stroke="#63b8ff" d="M590,-282.08C593.77,-280.73 597.46,-279.25 601,-277.62 619.18,-269.28 618.83,-258.98 637,-250.62 644.86,-247.01 653.46,-244.06 662.07,-241.66"/>
<polygon fill="#63b8ff" stroke="#63b8ff" points="589.09,-278.69 580.64,-285.08 591.23,-285.36 589.09,-278.69"/>
</a>
</g>
</g>
<!-- Node34 -->
<g id="Node000034" class="node">
<title>Node34</title>
<g id="a_Node000034"><a xlink:href="classllvm_1_1VPWidenCallRecipe.html" target="_top" xlink:title="A recipe for widening Call instructions using library calls.">
<polygon fill="white" stroke="#666666" points="788,-204.25 658.75,-204.25 658.75,-185 788,-185 788,-204.25"/>
<text xml:space="preserve" text-anchor="middle" x="723.38" y="-190.75" font-family="Helvetica,sans-Serif" font-size="10.00">llvm::VPWidenCallRecipe</text>
</a>
</g>
</g>
<!-- Node23&#45;&gt;Node34 -->
<g id="edge33_Node000023_Node000034" class="edge">
<title>Node23&#45;&gt;Node34</title>
<g id="a_edge33_Node000023_Node000034"><a xlink:title=" ">
<path fill="none" stroke="#63b8ff" d="M597.37,-280.14C598.61,-279.34 599.82,-278.5 601,-277.62 627.47,-257.88 610.44,-232.25 637,-212.62 643.46,-207.85 650.9,-204.29 658.64,-201.63"/>
<polygon fill="#63b8ff" stroke="#63b8ff" points="595.83,-276.99 588.67,-284.8 599.14,-283.16 595.83,-276.99"/>
</a>
</g>
</g>
<!-- Node35 -->
<g id="Node000035" class="node">
<title>Node35</title>
<g id="a_Node000035"><a xlink:href="classllvm_1_1VPWidenCastRecipe.html" target="_top" xlink:title="VPWidenCastRecipe is a recipe to create vector cast instructions.">
<polygon fill="white" stroke="#666666" points="789.88,-167.25 656.88,-167.25 656.88,-148 789.88,-148 789.88,-167.25"/>
<text xml:space="preserve" text-anchor="middle" x="723.38" y="-153.75" font-family="Helvetica,sans-Serif" font-size="10.00">llvm::VPWidenCastRecipe</text>
</a>
</g>
</g>
<!-- Node23&#45;&gt;Node35 -->
<g id="edge34_Node000023_Node000035" class="edge">
<title>Node23&#45;&gt;Node35</title>
<g id="a_edge34_Node000023_Node000035"><a xlink:title=" ">
<path fill="none" stroke="#63b8ff" d="M598.06,-280.04C599.07,-279.27 600.05,-278.47 601,-277.62 637.01,-245.77 600.85,-207.31 637,-175.62 642.7,-170.63 649.42,-166.9 656.56,-164.14"/>
<polygon fill="#63b8ff" stroke="#63b8ff" points="596.28,-277.03 589.62,-285.27 599.97,-282.98 596.28,-277.03"/>
</a>
</g>
</g>
<!-- Node36 -->
<g id="Node000036" class="node">
<title>Node36</title>
<g id="a_Node000036"><a xlink:href="classllvm_1_1VPWidenGEPRecipe.html" target="_top" xlink:title="A recipe for handling GEP instructions.">
<polygon fill="white" stroke="#666666" points="789.88,-130.25 656.88,-130.25 656.88,-111 789.88,-111 789.88,-130.25"/>
<text xml:space="preserve" text-anchor="middle" x="723.38" y="-116.75" font-family="Helvetica,sans-Serif" font-size="10.00">llvm::VPWidenGEPRecipe</text>
</a>
</g>
</g>
<!-- Node23&#45;&gt;Node36 -->
<g id="edge35_Node000023_Node000036" class="edge">
<title>Node23&#45;&gt;Node36</title>
<g id="a_edge35_Node000023_Node000036"><a xlink:title=" ">
<path fill="none" stroke="#63b8ff" d="M597.7,-280.53C598.84,-279.61 599.94,-278.64 601,-277.62 646.94,-233.33 590.86,-182.71 637,-138.62 642.59,-133.29 649.33,-129.36 656.56,-126.5"/>
<polygon fill="#63b8ff" stroke="#63b8ff" points="596.04,-277.43 589.55,-285.8 599.85,-283.31 596.04,-277.43"/>
</a>
</g>
</g>
<!-- Node37 -->
<g id="Node000037" class="node">
<title>Node37</title>
<g id="a_Node000037"><a xlink:href="classllvm_1_1VPWidenIntrinsicRecipe.html" target="_top" xlink:title="A recipe for widening vector intrinsics.">
<polygon fill="white" stroke="#666666" points="796.62,-93.25 650.12,-93.25 650.12,-74 796.62,-74 796.62,-93.25"/>
<text xml:space="preserve" text-anchor="middle" x="723.38" y="-79.75" font-family="Helvetica,sans-Serif" font-size="10.00">llvm::VPWidenIntrinsicRecipe</text>
</a>
</g>
</g>
<!-- Node23&#45;&gt;Node37 -->
<g id="edge36_Node000023_Node000037" class="edge">
<title>Node23&#45;&gt;Node37</title>
<g id="a_edge36_Node000023_Node000037"><a xlink:title=" ">
<path fill="none" stroke="#63b8ff" d="M597.68,-280.68C598.83,-279.72 599.94,-278.7 601,-277.62 657.02,-220.74 580.71,-158.25 637,-101.62 640.74,-97.86 645.05,-94.8 649.71,-92.3"/>
<polygon fill="#63b8ff" stroke="#63b8ff" points="595.76,-277.76 589.37,-286.21 599.63,-283.59 595.76,-277.76"/>
</a>
</g>
</g>
<!-- Node38 -->
<g id="Node000038" class="node">
<title>Node38</title>
<g id="a_Node000038"><a xlink:href="classllvm_1_1VPWidenRecipe.html" target="_top" xlink:title="VPWidenRecipe is a recipe for producing a widened instruction using the opcode and operands of the re...">
<polygon fill="white" stroke="#666666" points="779.38,-56.25 667.38,-56.25 667.38,-37 779.38,-37 779.38,-56.25"/>
<text xml:space="preserve" text-anchor="middle" x="723.38" y="-42.75" font-family="Helvetica,sans-Serif" font-size="10.00">llvm::VPWidenRecipe</text>
</a>
</g>
</g>
<!-- Node23&#45;&gt;Node38 -->
<g id="edge37_Node000023_Node000038" class="edge">
<title>Node23&#45;&gt;Node38</title>
<g id="a_edge37_Node000023_Node000038"><a xlink:title=" ">
<path fill="none" stroke="#63b8ff" d="M597.73,-280.73C598.87,-279.75 599.96,-278.72 601,-277.62 667.18,-208.07 570.49,-133.87 637,-64.62 644.97,-56.32 655.74,-51.36 666.93,-48.49"/>
<polygon fill="#63b8ff" stroke="#63b8ff" points="595.8,-277.81 589.5,-286.33 599.74,-283.6 595.8,-277.81"/>
</a>
</g>
</g>
<!-- Node39 -->
<g id="Node000039" class="node">
<title>Node39</title>
<g id="a_Node000039"><a xlink:href="structllvm_1_1VPWidenSelectRecipe.html" target="_top" xlink:title="A recipe for widening select instructions.">
<polygon fill="white" stroke="#666666" points="793.25,-19.25 653.5,-19.25 653.5,0 793.25,0 793.25,-19.25"/>
<text xml:space="preserve" text-anchor="middle" x="723.38" y="-5.75" font-family="Helvetica,sans-Serif" font-size="10.00">llvm::VPWidenSelectRecipe</text>
</a>
</g>
</g>
<!-- Node23&#45;&gt;Node39 -->
<g id="edge38_Node000023_Node000039" class="edge">
<title>Node23&#45;&gt;Node39</title>
<g id="a_edge38_Node000023_Node000039"><a xlink:title=" ">
<path fill="none" stroke="#63b8ff" d="M597.77,-280.77C598.89,-279.78 599.97,-278.73 601,-277.62 677.39,-195.36 560.23,-109.53 637,-27.62 641.56,-22.76 647.07,-19.04 653.08,-16.21"/>
<polygon fill="#63b8ff" stroke="#63b8ff" points="595.83,-277.85 589.6,-286.42 599.82,-283.61 595.83,-277.85"/>
</a>
</g>
</g>
<!-- Node25 -->
<g id="Node000025" class="node">
<title>Node25</title>
<g id="a_Node000025"><a xlink:href="classllvm_1_1VPInstructionWithType.html" target="_top" xlink:title="A specialization of VPInstruction augmenting it with a dedicated result type, to be used when the opc...">
<polygon fill="white" stroke="#666666" points="993,-456.25 852.5,-456.25 852.5,-437 993,-437 993,-456.25"/>
<text xml:space="preserve" text-anchor="middle" x="922.75" y="-442.75" font-family="Helvetica,sans-Serif" font-size="10.00">llvm::VPInstructionWithType</text>
</a>
</g>
</g>
<!-- Node24&#45;&gt;Node25 -->
<g id="edge24_Node000024_Node000025" class="edge">
<title>Node24&#45;&gt;Node25</title>
<g id="a_edge24_Node000024_Node000025"><a xlink:title=" ">
<path fill="none" stroke="#63b8ff" d="M784.6,-434.12C805.91,-436.06 830.06,-438.26 852.08,-440.27"/>
<polygon fill="#63b8ff" stroke="#63b8ff" points="785.2,-430.66 774.93,-433.24 784.57,-437.63 785.2,-430.66"/>
</a>
</g>
</g>
<!-- Node26 -->
<g id="Node000026" class="node">
<title>Node26</title>
<g id="a_Node000026"><a xlink:href="structllvm_1_1VPPhi.html" target="_top" xlink:title=" ">
<polygon fill="white" stroke="#666666" points="956.62,-419.25 888.88,-419.25 888.88,-400 956.62,-400 956.62,-419.25"/>
<text xml:space="preserve" text-anchor="middle" x="922.75" y="-405.75" font-family="Helvetica,sans-Serif" font-size="10.00">llvm::VPPhi</text>
</a>
</g>
</g>
<!-- Node24&#45;&gt;Node26 -->
<g id="edge25_Node000024_Node000026" class="edge">
<title>Node24&#45;&gt;Node26</title>
<g id="a_edge25_Node000024_Node000026"><a xlink:title=" ">
<path fill="none" stroke="#63b8ff" d="M784.68,-422.82C818.78,-419.54 860.13,-415.56 888.44,-412.83"/>
<polygon fill="#63b8ff" stroke="#63b8ff" points="784.54,-419.32 774.92,-423.76 785.21,-426.28 784.54,-419.32"/>
</a>
</g>
</g>
<!-- Node28 -->
<g id="Node000028" class="node">
<title>Node28</title>
<g id="a_Node000028"><a xlink:href="classllvm_1_1VPPartialReductionRecipe.html" target="_top" xlink:title="A recipe for forming partial reductions.">
<polygon fill="white" stroke="#666666" points="985.5,-381.88 860,-381.88 860,-351.38 985.5,-351.38 985.5,-381.88"/>
<text xml:space="preserve" text-anchor="start" x="868" y="-368.38" font-family="Helvetica,sans-Serif" font-size="10.00">llvm::VPPartialReduction</text>
<text xml:space="preserve" text-anchor="middle" x="922.75" y="-357.12" font-family="Helvetica,sans-Serif" font-size="10.00">Recipe</text>
</a>
</g>
</g>
<!-- Node27&#45;&gt;Node28 -->
<g id="edge27_Node000027_Node000028" class="edge">
<title>Node27&#45;&gt;Node28</title>
<g id="a_edge27_Node000027_Node000028"><a xlink:title=" ">
<path fill="none" stroke="#63b8ff" d="M799.16,-382.15C819.12,-379.62 840.48,-376.92 859.68,-374.49"/>
<polygon fill="#63b8ff" stroke="#63b8ff" points="798.89,-378.66 789.41,-383.39 799.77,-385.6 798.89,-378.66"/>
</a>
</g>
</g>
<!-- Node29 -->
<g id="Node000029" class="node">
<title>Node29</title>
<g id="a_Node000029"><a xlink:href="classllvm_1_1VPReductionEVLRecipe.html" target="_top" xlink:title="A recipe to represent inloop reduction operations with vector&#45;predication intrinsics,...">
<polygon fill="white" stroke="#666666" points="996.38,-333.25 849.12,-333.25 849.12,-314 996.38,-314 996.38,-333.25"/>
<text xml:space="preserve" text-anchor="middle" x="922.75" y="-319.75" font-family="Helvetica,sans-Serif" font-size="10.00">llvm::VPReductionEVLRecipe</text>
</a>
</g>
</g>
<!-- Node27&#45;&gt;Node29 -->
<g id="edge28_Node000027_Node000029" class="edge">
<title>Node27&#45;&gt;Node29</title>
<g id="a_edge28_Node000027_Node000029"><a xlink:title=" ">
<path fill="none" stroke="#63b8ff" d="M798.83,-378.34C802.59,-376.92 806.25,-375.36 809.75,-373.62 828.68,-364.26 827,-352.34 845.75,-342.62 852.75,-339 860.49,-336.04 868.26,-333.63"/>
<polygon fill="#63b8ff" stroke="#63b8ff" points="797.87,-374.97 789.5,-381.46 800.09,-381.61 797.87,-374.97"/>
</a>
</g>
</g>
<!-- Node43 -->
<g id="Node000043" class="node">
<title>Node43</title>
<g id="a_Node000043"><a xlink:href="structllvm_1_1VPWidenLoadEVLRecipe.html" target="_top" xlink:title="A recipe for widening load operations with vector&#45;predication intrinsics, using the address to load f...">
<polygon fill="white" stroke="#666666" points="594.25,-194.25 442.5,-194.25 442.5,-175 594.25,-175 594.25,-194.25"/>
<text xml:space="preserve" text-anchor="middle" x="518.38" y="-180.75" font-family="Helvetica,sans-Serif" font-size="10.00">llvm::VPWidenLoadEVLRecipe</text>
</a>
</g>
</g>
<!-- Node42&#45;&gt;Node43 -->
<g id="edge42_Node000042_Node000043" class="edge">
<title>Node42&#45;&gt;Node43</title>
<g id="a_edge42_Node000042_Node000043"><a xlink:title=" ">
<path fill="none" stroke="#63b8ff" d="M388.58,-159.87C413.31,-164.62 441.29,-170 464.84,-174.53"/>
<polygon fill="#63b8ff" stroke="#63b8ff" points="389.44,-156.47 378.96,-158.02 388.12,-163.35 389.44,-156.47"/>
</a>
</g>
</g>
<!-- Node44 -->
<g id="Node000044" class="node">
<title>Node44</title>
<g id="a_Node000044"><a xlink:href="structllvm_1_1VPWidenLoadRecipe.html" target="_top" xlink:title="A recipe for widening load operations, using the address to load from and an optional mask.">
<polygon fill="white" stroke="#666666" points="584.88,-157.25 451.88,-157.25 451.88,-138 584.88,-138 584.88,-157.25"/>
<text xml:space="preserve" text-anchor="middle" x="518.38" y="-143.75" font-family="Helvetica,sans-Serif" font-size="10.00">llvm::VPWidenLoadRecipe</text>
</a>
</g>
</g>
<!-- Node42&#45;&gt;Node44 -->
<g id="edge43_Node000042_Node000044" class="edge">
<title>Node42&#45;&gt;Node44</title>
<g id="a_edge43_Node000042_Node000044"><a xlink:title=" ">
<path fill="none" stroke="#63b8ff" d="M409.22,-147.62C423.43,-147.62 437.99,-147.62 451.64,-147.62"/>
<polygon fill="#63b8ff" stroke="#63b8ff" points="409.44,-144.13 399.44,-147.63 409.44,-151.13 409.44,-144.13"/>
</a>
</g>
</g>
<!-- Node45 -->
<g id="Node000045" class="node">
<title>Node45</title>
<g id="a_Node000045"><a xlink:href="structllvm_1_1VPWidenStoreEVLRecipe.html" target="_top" xlink:title="A recipe for widening store operations with vector&#45;predication intrinsics, using the value to store,...">
<polygon fill="white" stroke="#666666" points="595.38,-120.25 441.38,-120.25 441.38,-101 595.38,-101 595.38,-120.25"/>
<text xml:space="preserve" text-anchor="middle" x="518.38" y="-106.75" font-family="Helvetica,sans-Serif" font-size="10.00">llvm::VPWidenStoreEVLRecipe</text>
</a>
</g>
</g>
<!-- Node42&#45;&gt;Node45 -->
<g id="edge44_Node000042_Node000045" class="edge">
<title>Node42&#45;&gt;Node45</title>
<g id="a_edge44_Node000042_Node000045"><a xlink:title=" ">
<path fill="none" stroke="#63b8ff" d="M388.58,-135.38C413.31,-130.63 441.29,-125.25 464.84,-120.72"/>
<polygon fill="#63b8ff" stroke="#63b8ff" points="388.12,-131.9 378.96,-137.23 389.44,-138.78 388.12,-131.9"/>
</a>
</g>
</g>
<!-- Node46 -->
<g id="Node000046" class="node">
<title>Node46</title>
<g id="a_Node000046"><a xlink:href="structllvm_1_1VPWidenStoreRecipe.html" target="_top" xlink:title="A recipe for widening store operations, using the stored value, the address to store to and an option...">
<polygon fill="white" stroke="#666666" points="586,-83.25 450.75,-83.25 450.75,-64 586,-64 586,-83.25"/>
<text xml:space="preserve" text-anchor="middle" x="518.38" y="-69.75" font-family="Helvetica,sans-Serif" font-size="10.00">llvm::VPWidenStoreRecipe</text>
</a>
</g>
</g>
<!-- Node42&#45;&gt;Node46 -->
<g id="edge45_Node000042_Node000046" class="edge">
<title>Node42&#45;&gt;Node46</title>
<g id="a_edge45_Node000042_Node000046"><a xlink:title=" ">
<path fill="none" stroke="#63b8ff" d="M351.46,-131.81C373.41,-119.34 405.72,-102.33 435.75,-91.62 444.36,-88.56 453.68,-85.91 462.83,-83.66"/>
<polygon fill="#63b8ff" stroke="#63b8ff" points="349.79,-128.73 342.88,-136.76 353.29,-134.79 349.79,-128.73"/>
</a>
</g>
</g>
</g>
</svg>
