<?xml version="1.0" encoding="UTF-8" standalone="no"?>
<!DOCTYPE svg PUBLIC "-//W3C//DTD SVG 1.1//EN"
 "http://www.w3.org/Graphics/SVG/1.1/DTD/svg11.dtd">
<!-- Generated by graphviz version 13.1.2 (20250808.2320)
 -->
<!-- Title: llvm::DWARFAcceleratorTable::Entry Pages: 1 -->
<svg width="300pt" height="105pt"
 viewBox="0.00 0.00 300.00 105.00" xmlns="http://www.w3.org/2000/svg" xmlns:xlink="http://www.w3.org/1999/xlink">
<g id="graph0" class="graph" transform="scale(1 1) rotate(0) translate(4 101)">
<title>llvm::DWARFAcceleratorTable::Entry</title>
<!-- Node1 -->
<g id="Node000001" class="node">
<title>Node1</title>
<g id="a_Node000001"><a xlink:title="An abstract class representing a single entry in the accelerator tables.">
<polygon fill="#999999" stroke="#666666" points="220.5,-97 71,-97 71,-66.5 220.5,-66.5 220.5,-97"/>
<text xml:space="preserve" text-anchor="start" x="79" y="-83.5" font-family="Helvetica,sans-Serif" font-size="10.00">llvm::DWARFAcceleratorTable</text>
<text xml:space="preserve" text-anchor="middle" x="145.75" y="-72.25" font-family="Helvetica,sans-Serif" font-size="10.00">::Entry</text>
</a>
</g>
</g>
<!-- Node2 -->
<g id="Node000002" class="node">
<title>Node2</title>
<g id="a_Node000002"><a xlink:href="classllvm_1_1AppleAcceleratorTable_1_1Entry.html" target="_top" xlink:title="Apple&#45;specific implementation of an Accelerator Entry.">
<polygon fill="white" stroke="#666666" points="137.5,-30.5 0,-30.5 0,0 137.5,0 137.5,-30.5"/>
<text xml:space="preserve" text-anchor="start" x="8" y="-17" font-family="Helvetica,sans-Serif" font-size="10.00">llvm::AppleAcceleratorTable</text>
<text xml:space="preserve" text-anchor="middle" x="68.75" y="-5.75" font-family="Helvetica,sans-Serif" font-size="10.00">::Entry</text>
</a>
</g>
</g>
<!-- Node1&#45;&gt;Node2 -->
<g id="edge1_Node000001_Node000002" class="edge">
<title>Node1&#45;&gt;Node2</title>
<g id="a_edge1_Node000001_Node000002"><a xlink:title=" ">
<path fill="none" stroke="#63b8ff" d="M119.48,-58.74C108.47,-49.53 95.99,-39.06 86.15,-30.83"/>
<polygon fill="#63b8ff" stroke="#63b8ff" points="117.2,-61.4 127.12,-65.14 121.7,-56.04 117.2,-61.4"/>
</a>
</g>
</g>
<!-- Node3 -->
<g id="Node000003" class="node">
<title>Node3</title>
<g id="a_Node000003"><a xlink:href="classllvm_1_1DWARFDebugNames_1_1Entry.html" target="_top" xlink:title="DWARF v5&#45;specific implementation of an Accelerator Entry.">
<polygon fill="white" stroke="#666666" points="292.12,-30.5 155.38,-30.5 155.38,0 292.12,0 292.12,-30.5"/>
<text xml:space="preserve" text-anchor="start" x="163.38" y="-17" font-family="Helvetica,sans-Serif" font-size="10.00">llvm::DWARFDebugNames</text>
<text xml:space="preserve" text-anchor="middle" x="223.75" y="-5.75" font-family="Helvetica,sans-Serif" font-size="10.00">::Entry</text>
</a>
</g>
</g>
<!-- Node1&#45;&gt;Node3 -->
<g id="edge2_Node000001_Node000003" class="edge">
<title>Node1&#45;&gt;Node3</title>
<g id="a_edge2_Node000001_Node000003"><a xlink:title=" ">
<path fill="none" stroke="#63b8ff" d="M172.03,-59.02C183.26,-49.73 196.06,-39.15 206.12,-30.83"/>
<polygon fill="#63b8ff" stroke="#63b8ff" points="170.09,-56.08 164.62,-65.15 174.55,-61.47 170.09,-56.08"/>
</a>
</g>
</g>
</g>
</svg>
