<?xml version="1.0" encoding="UTF-8" standalone="no"?>
<!DOCTYPE svg PUBLIC "-//W3C//DTD SVG 1.1//EN"
 "http://www.w3.org/Graphics/SVG/1.1/DTD/svg11.dtd">
<!-- Generated by graphviz version 13.1.2 (20250808.2320)
 -->
<!-- Title: llvm::RuntimeDyldMachO Pages: 1 -->
<svg width="1073pt" height="260pt"
 viewBox="0.00 0.00 1073.00 260.00" xmlns="http://www.w3.org/2000/svg" xmlns:xlink="http://www.w3.org/1999/xlink">
<g id="graph0" class="graph" transform="scale(1 1) rotate(0) translate(4 255.52)">
<title>llvm::RuntimeDyldMachO</title>
<!-- Node1 -->
<g id="Node000001" class="node">
<title>Node1</title>
<g id="a_Node000001"><a xlink:title=" ">
<polygon fill="#999999" stroke="#666666" points="281.25,-135.89 152.75,-135.89 152.75,-116.64 281.25,-116.64 281.25,-135.89"/>
<text xml:space="preserve" text-anchor="middle" x="217" y="-122.39" font-family="Helvetica,sans-Serif" font-size="10.00">llvm::RuntimeDyldMachO</text>
</a>
</g>
</g>
<!-- Node3 -->
<g id="Node000003" class="node">
<title>Node3</title>
<g id="a_Node000003"><a xlink:href="classllvm_1_1RuntimeDyldMachOCRTPBase.html" target="_top" xlink:title=" ">
<polygon fill="white" stroke="#666666" points="861.75,-172.52 683,-172.52 683,-142.02 861.75,-142.02 861.75,-172.52"/>
<text xml:space="preserve" text-anchor="start" x="691" y="-159.02" font-family="Helvetica,sans-Serif" font-size="10.00">llvm::RuntimeDyldMachOCRTPBase</text>
<text xml:space="preserve" text-anchor="middle" x="772.38" y="-147.77" font-family="Helvetica,sans-Serif" font-size="10.00">&lt; RuntimeDyldMachOARM &gt;</text>
</a>
</g>
</g>
<!-- Node1&#45;&gt;Node3 -->
<g id="edge2_Node000001_Node000003" class="edge">
<title>Node1&#45;&gt;Node3</title>
<g id="a_edge2_Node000001_Node000003"><a xlink:title=" ">
<path fill="none" stroke="#63b8ff" d="M250.96,-140.62C325.2,-171.06 511.04,-236.76 665,-204.27 693.45,-198.26 723.55,-184.14 744.44,-172.93"/>
<polygon fill="#63b8ff" stroke="#63b8ff" points="252.41,-137.43 241.83,-136.81 249.71,-143.89 252.41,-137.43"/>
</a>
</g>
</g>
<!-- Node5 -->
<g id="Node000005" class="node">
<title>Node5</title>
<g id="a_Node000005"><a xlink:href="classllvm_1_1RuntimeDyldMachOCRTPBase.html" target="_top" xlink:title=" ">
<polygon fill="white" stroke="#666666" points="861.75,-251.52 683,-251.52 683,-221.02 861.75,-221.02 861.75,-251.52"/>
<text xml:space="preserve" text-anchor="start" x="691" y="-238.02" font-family="Helvetica,sans-Serif" font-size="10.00">llvm::RuntimeDyldMachOCRTPBase</text>
<text xml:space="preserve" text-anchor="middle" x="772.38" y="-226.77" font-family="Helvetica,sans-Serif" font-size="10.00">&lt; RuntimeDyldMachOAArch64 &gt;</text>
</a>
</g>
</g>
<!-- Node1&#45;&gt;Node5 -->
<g id="edge4_Node000001_Node000005" class="edge">
<title>Node1&#45;&gt;Node5</title>
<g id="a_edge4_Node000001_Node000005"><a xlink:title=" ">
<path fill="none" stroke="#63b8ff" d="M235.52,-144.11C254.21,-161.92 285.56,-188.43 318.25,-201.27 437.95,-248.29 588.92,-249.62 682.82,-244.38"/>
<polygon fill="#63b8ff" stroke="#63b8ff" points="238.08,-141.73 228.49,-137.23 233.18,-146.73 238.08,-141.73"/>
</a>
</g>
</g>
<!-- Node7 -->
<g id="Node000007" class="node">
<title>Node7</title>
<g id="a_Node000007"><a xlink:href="classllvm_1_1RuntimeDyldMachOCRTPBase.html" target="_top" xlink:title=" ">
<polygon fill="white" stroke="#666666" points="861.75,-35.52 683,-35.52 683,-5.02 861.75,-5.02 861.75,-35.52"/>
<text xml:space="preserve" text-anchor="start" x="691" y="-22.02" font-family="Helvetica,sans-Serif" font-size="10.00">llvm::RuntimeDyldMachOCRTPBase</text>
<text xml:space="preserve" text-anchor="middle" x="772.38" y="-10.77" font-family="Helvetica,sans-Serif" font-size="10.00">&lt; RuntimeDyldMachOI386 &gt;</text>
</a>
</g>
</g>
<!-- Node1&#45;&gt;Node7 -->
<g id="edge6_Node000001_Node000007" class="edge">
<title>Node1&#45;&gt;Node7</title>
<g id="a_edge6_Node000001_Node000007"><a xlink:title=" ">
<path fill="none" stroke="#63b8ff" d="M232.57,-107.65C250.25,-86.66 282.22,-53.59 318.25,-39.27 437.51,8.14 588.61,2.88 682.64,-7.2"/>
<polygon fill="#63b8ff" stroke="#63b8ff" points="230.05,-105.2 226.44,-115.16 235.47,-109.62 230.05,-105.2"/>
</a>
</g>
</g>
<!-- Node9 -->
<g id="Node000009" class="node">
<title>Node9</title>
<g id="a_Node000009"><a xlink:href="classllvm_1_1RuntimeDyldMachOCRTPBase.html" target="_top" xlink:title=" ">
<polygon fill="white" stroke="#666666" points="861.75,-110.52 683,-110.52 683,-80.02 861.75,-80.02 861.75,-110.52"/>
<text xml:space="preserve" text-anchor="start" x="691" y="-97.02" font-family="Helvetica,sans-Serif" font-size="10.00">llvm::RuntimeDyldMachOCRTPBase</text>
<text xml:space="preserve" text-anchor="middle" x="772.38" y="-85.77" font-family="Helvetica,sans-Serif" font-size="10.00">&lt; RuntimeDyldMachOX86_64 &gt;</text>
</a>
</g>
</g>
<!-- Node1&#45;&gt;Node9 -->
<g id="edge8_Node000001_Node000009" class="edge">
<title>Node1&#45;&gt;Node9</title>
<g id="a_edge8_Node000001_Node000009"><a xlink:title=" ">
<path fill="none" stroke="#63b8ff" d="M250.97,-111.7C325.23,-80.81 511.11,-14.15 665,-47.27 693.92,-53.49 724.45,-68.23 745.35,-79.74"/>
<polygon fill="#63b8ff" stroke="#63b8ff" points="249.68,-108.45 241.83,-115.57 252.41,-114.9 249.68,-108.45"/>
</a>
</g>
</g>
<!-- Node11 -->
<g id="Node000011" class="node">
<title>Node11</title>
<g id="a_Node000011"><a xlink:href="classllvm_1_1RuntimeDyldMachOCRTPBase.html" target="_top" xlink:title="RuntimeDyldMachOTarget &#45; Templated base class for generic MachO linker algorithms and data structures...">
<polygon fill="white" stroke="#666666" points="497,-141.52 318.25,-141.52 318.25,-111.02 497,-111.02 497,-141.52"/>
<text xml:space="preserve" text-anchor="start" x="326.25" y="-128.02" font-family="Helvetica,sans-Serif" font-size="10.00">llvm::RuntimeDyldMachOCRTPBase</text>
<text xml:space="preserve" text-anchor="middle" x="407.62" y="-116.77" font-family="Helvetica,sans-Serif" font-size="10.00">&lt; Impl &gt;</text>
</a>
</g>
</g>
<!-- Node1&#45;&gt;Node11 -->
<g id="edge10_Node000001_Node000011" class="edge">
<title>Node1&#45;&gt;Node11</title>
<g id="a_edge10_Node000001_Node000011"><a xlink:title=" ">
<path fill="none" stroke="#63b8ff" d="M292.99,-126.27C301.16,-126.27 309.53,-126.27 317.85,-126.27"/>
<polygon fill="#63b8ff" stroke="#63b8ff" points="293.11,-122.77 283.11,-126.27 293.11,-129.77 293.11,-122.77"/>
</a>
</g>
</g>
<!-- Node2 -->
<g id="Node000002" class="node">
<title>Node2</title>
<g id="a_Node000002"><a xlink:href="classllvm_1_1RuntimeDyldImpl.html" target="_top" xlink:title=" ">
<polygon fill="white" stroke="#666666" points="115.75,-135.89 0,-135.89 0,-116.64 115.75,-116.64 115.75,-135.89"/>
<text xml:space="preserve" text-anchor="middle" x="57.88" y="-122.39" font-family="Helvetica,sans-Serif" font-size="10.00">llvm::RuntimeDyldImpl</text>
</a>
</g>
</g>
<!-- Node2&#45;&gt;Node1 -->
<g id="edge1_Node000001_Node000002" class="edge">
<title>Node2&#45;&gt;Node1</title>
<g id="a_edge1_Node000001_Node000002"><a xlink:title=" ">
<path fill="none" stroke="#63b8ff" d="M127.32,-126.27C135.69,-126.27 144.21,-126.27 152.5,-126.27"/>
<polygon fill="#63b8ff" stroke="#63b8ff" points="127.56,-122.77 117.56,-126.27 127.56,-129.77 127.56,-122.77"/>
</a>
</g>
</g>
<!-- Node4 -->
<g id="Node000004" class="node">
<title>Node4</title>
<g id="a_Node000004"><a xlink:href="classllvm_1_1RuntimeDyldMachOARM.html" target="_top" xlink:title=" ">
<polygon fill="white" stroke="#666666" points="1057.25,-166.89 906.25,-166.89 906.25,-147.64 1057.25,-147.64 1057.25,-166.89"/>
<text xml:space="preserve" text-anchor="middle" x="981.75" y="-153.39" font-family="Helvetica,sans-Serif" font-size="10.00">llvm::RuntimeDyldMachOARM</text>
</a>
</g>
</g>
<!-- Node3&#45;&gt;Node4 -->
<g id="edge3_Node000003_Node000004" class="edge">
<title>Node3&#45;&gt;Node4</title>
<g id="a_edge3_Node000003_Node000004"><a xlink:title=" ">
<path fill="none" stroke="#63b8ff" d="M873.51,-157.27C884.37,-157.27 895.29,-157.27 905.78,-157.27"/>
<polygon fill="#63b8ff" stroke="#63b8ff" points="873.74,-153.77 863.74,-157.27 873.74,-160.77 873.74,-153.77"/>
</a>
</g>
</g>
<!-- Node6 -->
<g id="Node000006" class="node">
<title>Node6</title>
<g id="a_Node000006"><a xlink:href="classllvm_1_1RuntimeDyldMachOAArch64.html" target="_top" xlink:title=" ">
<polygon fill="white" stroke="#666666" points="1064.75,-245.89 898.75,-245.89 898.75,-226.64 1064.75,-226.64 1064.75,-245.89"/>
<text xml:space="preserve" text-anchor="middle" x="981.75" y="-232.39" font-family="Helvetica,sans-Serif" font-size="10.00">llvm::RuntimeDyldMachOAArch64</text>
</a>
</g>
</g>
<!-- Node5&#45;&gt;Node6 -->
<g id="edge5_Node000005_Node000006" class="edge">
<title>Node5&#45;&gt;Node6</title>
<g id="a_edge5_Node000005_Node000006"><a xlink:title=" ">
<path fill="none" stroke="#63b8ff" d="M873.52,-236.27C881.83,-236.27 890.17,-236.27 898.32,-236.27"/>
<polygon fill="#63b8ff" stroke="#63b8ff" points="873.74,-232.77 863.74,-236.27 873.74,-239.77 873.74,-232.77"/>
</a>
</g>
</g>
<!-- Node8 -->
<g id="Node000008" class="node">
<title>Node8</title>
<g id="a_Node000008"><a xlink:href="classllvm_1_1RuntimeDyldMachOI386.html" target="_top" xlink:title=" ">
<polygon fill="white" stroke="#666666" points="1055.38,-29.89 908.12,-29.89 908.12,-10.64 1055.38,-10.64 1055.38,-29.89"/>
<text xml:space="preserve" text-anchor="middle" x="981.75" y="-16.39" font-family="Helvetica,sans-Serif" font-size="10.00">llvm::RuntimeDyldMachOI386</text>
</a>
</g>
</g>
<!-- Node7&#45;&gt;Node8 -->
<g id="edge7_Node000007_Node000008" class="edge">
<title>Node7&#45;&gt;Node8</title>
<g id="a_edge7_Node000007_Node000008"><a xlink:title=" ">
<path fill="none" stroke="#63b8ff" d="M873.66,-20.27C885.14,-20.27 896.67,-20.27 907.7,-20.27"/>
<polygon fill="#63b8ff" stroke="#63b8ff" points="873.74,-16.77 863.74,-20.27 873.74,-23.77 873.74,-16.77"/>
</a>
</g>
</g>
<!-- Node10 -->
<g id="Node000010" class="node">
<title>Node10</title>
<g id="a_Node000010"><a xlink:href="classllvm_1_1RuntimeDyldMachOX86__64.html" target="_top" xlink:title=" ">
<polygon fill="white" stroke="#666666" points="1062.5,-104.89 901,-104.89 901,-85.64 1062.5,-85.64 1062.5,-104.89"/>
<text xml:space="preserve" text-anchor="middle" x="981.75" y="-91.39" font-family="Helvetica,sans-Serif" font-size="10.00">llvm::RuntimeDyldMachOX86_64</text>
</a>
</g>
</g>
<!-- Node9&#45;&gt;Node10 -->
<g id="edge9_Node000009_Node000010" class="edge">
<title>Node9&#45;&gt;Node10</title>
<g id="a_edge9_Node000009_Node000010"><a xlink:title=" ">
<path fill="none" stroke="#63b8ff" d="M873.64,-95.27C882.69,-95.27 891.76,-95.27 900.6,-95.27"/>
<polygon fill="#63b8ff" stroke="#63b8ff" points="873.74,-91.77 863.74,-95.27 873.74,-98.77 873.74,-91.77"/>
</a>
</g>
</g>
<!-- Node11&#45;&gt;Node3 -->
<g id="edge11_Node000011_Node000003" class="edge">
<title>Node11&#45;&gt;Node3</title>
<g id="a_edge11_Node000011_Node000003"><a xlink:title=" ">
<path fill="none" stroke="orange" stroke-dasharray="5,2" d="M508.55,-134C555.97,-137.76 613.42,-142.44 665,-147.02 670.73,-147.52 676.63,-148.06 682.58,-148.61"/>
<polygon fill="orange" stroke="orange" points="509.1,-130.53 498.85,-133.23 508.55,-137.51 509.1,-130.53"/>
</a>
</g>
<text xml:space="preserve" text-anchor="start" x="525.5" y="-151.77" font-family="Helvetica,sans-Serif" font-size="10.00" fill="grey">&lt; RuntimeDyldMachOARM &gt;</text>
</g>
<!-- Node11&#45;&gt;Node5 -->
<g id="edge12_Node000011_Node000005" class="edge">
<title>Node11&#45;&gt;Node5</title>
<g id="a_edge12_Node000011_Node000005"><a xlink:title=" ">
<path fill="none" stroke="orange" stroke-dasharray="5,2" d="M460.96,-145.77C478.1,-151.94 497.28,-158.62 515,-164.27 581.52,-185.46 658.76,-206.7 710.94,-220.56"/>
<polygon fill="orange" stroke="orange" points="462.6,-142.65 452.01,-142.53 460.22,-149.23 462.6,-142.65"/>
</a>
</g>
<text xml:space="preserve" text-anchor="start" x="518" y="-211.68" font-family="Helvetica,sans-Serif" font-size="10.00" fill="grey">&lt; RuntimeDyldMachOAArch64 &gt;</text>
</g>
<!-- Node11&#45;&gt;Node7 -->
<g id="edge13_Node000011_Node000007" class="edge">
<title>Node11&#45;&gt;Node7</title>
<g id="a_edge13_Node000011_Node000007"><a xlink:title=" ">
<path fill="none" stroke="orange" stroke-dasharray="5,2" d="M452.05,-105.82C471.08,-97.38 493.86,-87.96 515,-81.02 572.25,-62.21 638.48,-46.67 689.28,-36.01"/>
<polygon fill="orange" stroke="orange" points="450.67,-102.6 442.99,-109.9 453.54,-108.99 450.67,-102.6"/>
</a>
</g>
<text xml:space="preserve" text-anchor="start" x="527.38" y="-85.77" font-family="Helvetica,sans-Serif" font-size="10.00" fill="grey">&lt; RuntimeDyldMachOI386 &gt;</text>
</g>
<!-- Node11&#45;&gt;Node9 -->
<g id="edge14_Node000011_Node000009" class="edge">
<title>Node11&#45;&gt;Node9</title>
<g id="a_edge14_Node000011_Node000009"><a xlink:title=" ">
<path fill="none" stroke="orange" stroke-dasharray="5,2" d="M508.75,-114.62C510.85,-114.41 512.94,-114.21 515,-114.02 570.65,-108.78 633.22,-104.18 682.61,-100.84"/>
<polygon fill="orange" stroke="orange" points="508.51,-111.12 498.91,-115.61 509.21,-118.09 508.51,-111.12"/>
</a>
</g>
<text xml:space="preserve" text-anchor="start" x="520.25" y="-118.77" font-family="Helvetica,sans-Serif" font-size="10.00" fill="grey">&lt; RuntimeDyldMachOX86_64 &gt;</text>
</g>
</g>
</svg>
