<?xml version="1.0" encoding="UTF-8" standalone="no"?>
<!DOCTYPE svg PUBLIC "-//W3C//DTD SVG 1.1//EN"
 "http://www.w3.org/Graphics/SVG/1.1/DTD/svg11.dtd">
<!-- Generated by graphviz version 13.1.2 (20250808.2320)
 -->
<!-- Title: llvm::SCEVTruncateExpr Pages: 1 -->
<svg width="149pt" height="248pt"
 viewBox="0.00 0.00 149.00 248.00" xmlns="http://www.w3.org/2000/svg" xmlns:xlink="http://www.w3.org/1999/xlink">
<g id="graph0" class="graph" transform="scale(1 1) rotate(0) translate(4 244.25)">
<title>llvm::SCEVTruncateExpr</title>
<!-- Node1 -->
<g id="Node000001" class="node">
<title>Node1</title>
<g id="a_Node000001"><a xlink:title="This class represents a truncation of an integer value to a smaller integer value.">
<polygon fill="#999999" stroke="#666666" points="133.75,-19.25 7.5,-19.25 7.5,0 133.75,0 133.75,-19.25"/>
<text xml:space="preserve" text-anchor="middle" x="70.62" y="-5.75" font-family="Helvetica,sans-Serif" font-size="10.00">llvm::SCEVTruncateExpr</text>
</a>
</g>
</g>
<!-- Node2 -->
<g id="Node000002" class="node">
<title>Node2</title>
<g id="a_Node000002"><a xlink:href="classllvm_1_1SCEVIntegralCastExpr.html" target="_top" xlink:title="This is the base class for unary integral cast operator classes.">
<polygon fill="white" stroke="#666666" points="141.25,-74.5 0,-74.5 0,-55.25 141.25,-55.25 141.25,-74.5"/>
<text xml:space="preserve" text-anchor="middle" x="70.62" y="-61" font-family="Helvetica,sans-Serif" font-size="10.00">llvm::SCEVIntegralCastExpr</text>
</a>
</g>
</g>
<!-- Node2&#45;&gt;Node1 -->
<g id="edge1_Node000001_Node000002" class="edge">
<title>Node2&#45;&gt;Node1</title>
<g id="a_edge1_Node000001_Node000002"><a xlink:title=" ">
<path fill="none" stroke="#63b8ff" d="M70.62,-43.63C70.62,-35.34 70.62,-26.17 70.62,-19.61"/>
<polygon fill="#63b8ff" stroke="#63b8ff" points="67.13,-43.57 70.63,-53.57 74.13,-43.57 67.13,-43.57"/>
</a>
</g>
</g>
<!-- Node3 -->
<g id="Node000003" class="node">
<title>Node3</title>
<g id="a_Node000003"><a xlink:href="classllvm_1_1SCEVCastExpr.html" target="_top" xlink:title="This is the base class for unary cast operator classes.">
<polygon fill="white" stroke="#666666" points="125.12,-129.75 16.12,-129.75 16.12,-110.5 125.12,-110.5 125.12,-129.75"/>
<text xml:space="preserve" text-anchor="middle" x="70.62" y="-116.25" font-family="Helvetica,sans-Serif" font-size="10.00">llvm::SCEVCastExpr</text>
</a>
</g>
</g>
<!-- Node3&#45;&gt;Node2 -->
<g id="edge2_Node000002_Node000003" class="edge">
<title>Node3&#45;&gt;Node2</title>
<g id="a_edge2_Node000002_Node000003"><a xlink:title=" ">
<path fill="none" stroke="#63b8ff" d="M70.62,-98.88C70.62,-90.59 70.62,-81.42 70.62,-74.86"/>
<polygon fill="#63b8ff" stroke="#63b8ff" points="67.13,-98.82 70.63,-108.82 74.13,-98.82 67.13,-98.82"/>
</a>
</g>
</g>
<!-- Node4 -->
<g id="Node000004" class="node">
<title>Node4</title>
<g id="a_Node000004"><a xlink:href="classllvm_1_1SCEV.html" target="_top" xlink:title="This class represents an analyzed expression in the program.">
<polygon fill="white" stroke="#666666" points="104.5,-185 36.75,-185 36.75,-165.75 104.5,-165.75 104.5,-185"/>
<text xml:space="preserve" text-anchor="middle" x="70.62" y="-171.5" font-family="Helvetica,sans-Serif" font-size="10.00">llvm::SCEV</text>
</a>
</g>
</g>
<!-- Node4&#45;&gt;Node3 -->
<g id="edge3_Node000003_Node000004" class="edge">
<title>Node4&#45;&gt;Node3</title>
<g id="a_edge3_Node000003_Node000004"><a xlink:title=" ">
<path fill="none" stroke="#63b8ff" d="M70.62,-154.13C70.62,-145.84 70.62,-136.67 70.62,-130.11"/>
<polygon fill="#63b8ff" stroke="#63b8ff" points="67.13,-154.07 70.63,-164.07 74.13,-154.07 67.13,-154.07"/>
</a>
</g>
</g>
<!-- Node5 -->
<g id="Node000005" class="node">
<title>Node5</title>
<g id="a_Node000005"><a xlink:href="classllvm_1_1FoldingSetBase_1_1Node.html" target="_top" xlink:title="Node &#45; This class is used to maintain the singly linked bucket list in a folding set.">
<polygon fill="white" stroke="#666666" points="113.5,-240.25 27.75,-240.25 27.75,-221 113.5,-221 113.5,-240.25"/>
<text xml:space="preserve" text-anchor="middle" x="70.62" y="-226.75" font-family="Helvetica,sans-Serif" font-size="10.00">FoldingSetNode</text>
</a>
</g>
</g>
<!-- Node5&#45;&gt;Node4 -->
<g id="edge4_Node000004_Node000005" class="edge">
<title>Node5&#45;&gt;Node4</title>
<g id="a_edge4_Node000004_Node000005"><a xlink:title=" ">
<path fill="none" stroke="#63b8ff" d="M70.62,-209.38C70.62,-201.09 70.62,-191.92 70.62,-185.36"/>
<polygon fill="#63b8ff" stroke="#63b8ff" points="67.13,-209.32 70.63,-219.32 74.13,-209.32 67.13,-209.32"/>
</a>
</g>
</g>
</g>
</svg>
