<?xml version="1.0" encoding="UTF-8" standalone="no"?>
<!DOCTYPE svg PUBLIC "-//W3C//DTD SVG 1.1//EN"
 "http://www.w3.org/Graphics/SVG/1.1/DTD/svg11.dtd">
<!-- Generated by graphviz version 13.1.2 (20250808.2320)
 -->
<!-- Title: llvm::const_set_bits_iterator_impl&lt; BitVectorT &gt; Pages: 1 -->
<svg width="430pt" height="88pt"
 viewBox="0.00 0.00 430.00 88.00" xmlns="http://www.w3.org/2000/svg" xmlns:xlink="http://www.w3.org/1999/xlink">
<g id="graph0" class="graph" transform="scale(1 1) rotate(0) translate(4 83.5)">
<title>llvm::const_set_bits_iterator_impl&lt; BitVectorT &gt;</title>
<!-- Node1 -->
<g id="Node000001" class="node">
<title>Node1</title>
<g id="a_Node000001"><a xlink:title="ForwardIterator for the bits that are set.">
<polygon fill="#999999" stroke="#666666" points="139,-54.5 0,-54.5 0,-24 139,-24 139,-54.5"/>
<text xml:space="preserve" text-anchor="start" x="8" y="-41" font-family="Helvetica,sans-Serif" font-size="10.00">llvm::const_set_bits</text>
<text xml:space="preserve" text-anchor="middle" x="69.5" y="-29.75" font-family="Helvetica,sans-Serif" font-size="10.00">_iterator_impl&lt; BitVectorT &gt;</text>
</a>
</g>
</g>
<!-- Node2 -->
<g id="Node000002" class="node">
<title>Node2</title>
<g id="a_Node000002"><a xlink:href="classllvm_1_1const__set__bits__iterator__impl.html" target="_top" xlink:title=" ">
<polygon fill="white" stroke="#666666" points="409.62,-79.5 276.62,-79.5 276.62,-49 409.62,-49 409.62,-79.5"/>
<text xml:space="preserve" text-anchor="start" x="284.62" y="-66" font-family="Helvetica,sans-Serif" font-size="10.00">llvm::const_set_bits</text>
<text xml:space="preserve" text-anchor="middle" x="343.12" y="-54.75" font-family="Helvetica,sans-Serif" font-size="10.00">_iterator_impl&lt; BitVector &gt;</text>
</a>
</g>
</g>
<!-- Node1&#45;&gt;Node2 -->
<g id="edge1_Node000001_Node000002" class="edge">
<title>Node1&#45;&gt;Node2</title>
<g id="a_edge1_Node000001_Node000002"><a xlink:title=" ">
<path fill="none" stroke="orange" stroke-dasharray="5,2" d="M150.75,-46.64C190.84,-50.33 238.73,-54.73 276.58,-58.22"/>
<polygon fill="orange" stroke="orange" points="151.18,-43.16 140.9,-45.73 150.54,-50.13 151.18,-43.16"/>
</a>
</g>
<text xml:space="preserve" text-anchor="start" x="172.38" y="-59.47" font-family="Helvetica,sans-Serif" font-size="10.00" fill="grey">&lt; BitVector &gt;</text>
</g>
<!-- Node3 -->
<g id="Node000003" class="node">
<title>Node3</title>
<g id="a_Node000003"><a xlink:href="classllvm_1_1const__set__bits__iterator__impl.html" target="_top" xlink:title=" ">
<polygon fill="white" stroke="#666666" points="422,-30.5 264.25,-30.5 264.25,0 422,0 422,-30.5"/>
<text xml:space="preserve" text-anchor="start" x="272.25" y="-17" font-family="Helvetica,sans-Serif" font-size="10.00">llvm::const_set_bits</text>
<text xml:space="preserve" text-anchor="middle" x="343.12" y="-5.75" font-family="Helvetica,sans-Serif" font-size="10.00">_iterator_impl&lt; SmallBitVector &gt;</text>
</a>
</g>
</g>
<!-- Node1&#45;&gt;Node3 -->
<g id="edge2_Node000001_Node000003" class="edge">
<title>Node1&#45;&gt;Node3</title>
<g id="a_edge2_Node000001_Node000003"><a xlink:title=" ">
<path fill="none" stroke="orange" stroke-dasharray="5,2" d="M150.73,-25.72C152.84,-25.46 154.93,-25.22 157,-25 192.04,-21.2 230.97,-18.87 264.06,-17.44"/>
<polygon fill="orange" stroke="orange" points="150.3,-22.25 140.84,-27.01 151.21,-29.19 150.3,-22.25"/>
</a>
</g>
<text xml:space="preserve" text-anchor="start" x="160" y="-29.75" font-family="Helvetica,sans-Serif" font-size="10.00" fill="grey">&lt; SmallBitVector &gt;</text>
</g>
</g>
</svg>
