<?xml version="1.0" encoding="UTF-8" standalone="no"?>
<!DOCTYPE svg PUBLIC "-//W3C//DTD SVG 1.1//EN"
 "http://www.w3.org/Graphics/SVG/1.1/DTD/svg11.dtd">
<!-- Generated by graphviz version 13.1.2 (20250808.2320)
 -->
<!-- Title: llvm::ErrorList Pages: 1 -->
<svg width="204pt" height="224pt"
 viewBox="0.00 0.00 204.00 224.00" xmlns="http://www.w3.org/2000/svg" xmlns:xlink="http://www.w3.org/1999/xlink">
<g id="graph0" class="graph" transform="scale(1 1) rotate(0) translate(4 219.5)">
<title>llvm::ErrorList</title>
<!-- Node1 -->
<g id="Node000001" class="node">
<title>Node1</title>
<g id="a_Node000001"><a xlink:title="Special ErrorInfo subclass representing a list of ErrorInfos.">
<polygon fill="#999999" stroke="#666666" points="104.5,-19.25 27.75,-19.25 27.75,0 104.5,0 104.5,-19.25"/>
<text xml:space="preserve" text-anchor="middle" x="66.12" y="-5.75" font-family="Helvetica,sans-Serif" font-size="10.00">llvm::ErrorList</text>
</a>
</g>
</g>
<!-- Node2 -->
<g id="Node000002" class="node">
<title>Node2</title>
<g id="a_Node000002"><a xlink:href="classllvm_1_1ErrorInfo.html" target="_top" xlink:title=" ">
<polygon fill="white" stroke="#666666" points="132.25,-75.5 0,-75.5 0,-56.25 132.25,-56.25 132.25,-75.5"/>
<text xml:space="preserve" text-anchor="middle" x="66.12" y="-62" font-family="Helvetica,sans-Serif" font-size="10.00">llvm::ErrorInfo&lt; ErrorList &gt;</text>
</a>
</g>
</g>
<!-- Node2&#45;&gt;Node1 -->
<g id="edge1_Node000001_Node000002" class="edge">
<title>Node2&#45;&gt;Node1</title>
<g id="a_edge1_Node000001_Node000002"><a xlink:title=" ">
<path fill="none" stroke="#63b8ff" d="M66.12,-44.69C66.12,-35.98 66.12,-26.24 66.12,-19.42"/>
<polygon fill="#63b8ff" stroke="#63b8ff" points="62.63,-44.4 66.13,-54.4 69.63,-44.4 62.63,-44.4"/>
</a>
</g>
</g>
<!-- Node3 -->
<g id="Node000003" class="node">
<title>Node3</title>
<g id="a_Node000003"><a xlink:href="classllvm_1_1ErrorInfoBase.html" target="_top" xlink:title="Base class for error info classes.">
<polygon fill="white" stroke="#666666" points="112.12,-215.5 12.12,-215.5 12.12,-196.25 112.12,-196.25 112.12,-215.5"/>
<text xml:space="preserve" text-anchor="middle" x="62.12" y="-202" font-family="Helvetica,sans-Serif" font-size="10.00">llvm::ErrorInfoBase</text>
</a>
</g>
</g>
<!-- Node3&#45;&gt;Node2 -->
<g id="edge2_Node000002_Node000003" class="edge">
<title>Node3&#45;&gt;Node2</title>
<g id="a_edge2_Node000002_Node000003"><a xlink:title=" ">
<path fill="none" stroke="#63b8ff" d="M62.72,-184.49C63.6,-153.94 65.24,-97.56 65.87,-75.78"/>
<polygon fill="#63b8ff" stroke="#63b8ff" points="59.22,-184.21 62.43,-194.31 66.22,-184.41 59.22,-184.21"/>
</a>
</g>
</g>
<!-- Node4 -->
<g id="Node000004" class="node">
<title>Node4</title>
<g id="a_Node000004"><a xlink:href="classllvm_1_1ErrorInfo.html" target="_top" xlink:title="Base class for user error types.">
<polygon fill="white" stroke="#666666" points="196.12,-159.25 78.12,-159.25 78.12,-128.75 196.12,-128.75 196.12,-159.25"/>
<text xml:space="preserve" text-anchor="start" x="86.12" y="-145.75" font-family="Helvetica,sans-Serif" font-size="10.00">llvm::ErrorInfo&lt; ThisErr</text>
<text xml:space="preserve" text-anchor="middle" x="137.12" y="-134.5" font-family="Helvetica,sans-Serif" font-size="10.00">T, ParentErrT &gt;</text>
</a>
</g>
</g>
<!-- Node3&#45;&gt;Node4 -->
<g id="edge4_Node000004_Node000003" class="edge">
<title>Node3&#45;&gt;Node4</title>
<g id="a_edge4_Node000004_Node000003"><a xlink:title=" ">
<path fill="none" stroke="#63b8ff" d="M82.32,-188.75C93.72,-179.65 107.84,-168.38 118.9,-159.55"/>
<polygon fill="#63b8ff" stroke="#63b8ff" points="80.33,-185.86 74.7,-194.84 84.7,-191.33 80.33,-185.86"/>
</a>
</g>
</g>
<!-- Node4&#45;&gt;Node2 -->
<g id="edge3_Node000002_Node000004" class="edge">
<title>Node4&#45;&gt;Node2</title>
<g id="a_edge3_Node000002_Node000004"><a xlink:title=" ">
<path fill="none" stroke="orange" stroke-dasharray="5,2" d="M115.74,-120.07C101.85,-105.17 84.51,-86.59 74.44,-75.79"/>
<polygon fill="orange" stroke="orange" points="113.02,-122.29 122.4,-127.22 118.14,-117.52 113.02,-122.29"/>
</a>
</g>
<text xml:space="preserve" text-anchor="start" x="108.88" y="-98.25" font-family="Helvetica,sans-Serif" font-size="10.00" fill="grey">&lt; ErrorList &gt;</text>
</g>
</g>
</svg>
