<?xml version="1.0" encoding="UTF-8" standalone="no"?>
<!DOCTYPE svg PUBLIC "-//W3C//DTD SVG 1.1//EN"
 "http://www.w3.org/Graphics/SVG/1.1/DTD/svg11.dtd">
<!-- Generated by graphviz version 13.1.2 (20250808.2320)
 -->
<!-- Title: llvm::orc::OrcMips32_Base Pages: 1 -->
<svg width="262pt" height="83pt"
 viewBox="0.00 0.00 262.00 83.00" xmlns="http://www.w3.org/2000/svg" xmlns:xlink="http://www.w3.org/1999/xlink">
<g id="graph0" class="graph" transform="scale(1 1) rotate(0) translate(4 78.5)">
<title>llvm::orc::OrcMips32_Base</title>
<!-- Node1 -->
<g id="Node000001" class="node">
<title>Node1</title>
<g id="a_Node000001"><a xlink:title=" ">
<polygon fill="#999999" stroke="#666666" points="194.62,-74.5 60.12,-74.5 60.12,-55.25 194.62,-55.25 194.62,-74.5"/>
<text xml:space="preserve" text-anchor="middle" x="127.38" y="-61" font-family="Helvetica,sans-Serif" font-size="10.00">llvm::orc::OrcMips32_Base</text>
</a>
</g>
</g>
<!-- Node2 -->
<g id="Node000002" class="node">
<title>Node2</title>
<g id="a_Node000002"><a xlink:href="classllvm_1_1orc_1_1OrcMips32Be.html" target="_top" xlink:title=" ">
<polygon fill="white" stroke="#666666" points="118.75,-19.25 0,-19.25 0,0 118.75,0 118.75,-19.25"/>
<text xml:space="preserve" text-anchor="middle" x="59.38" y="-5.75" font-family="Helvetica,sans-Serif" font-size="10.00">llvm::orc::OrcMips32Be</text>
</a>
</g>
</g>
<!-- Node1&#45;&gt;Node2 -->
<g id="edge1_Node000001_Node000002" class="edge">
<title>Node1&#45;&gt;Node2</title>
<g id="a_edge1_Node000001_Node000002"><a xlink:title=" ">
<path fill="none" stroke="#63b8ff" d="M107.03,-47.94C95.15,-38.64 80.61,-27.26 70.74,-19.52"/>
<polygon fill="#63b8ff" stroke="#63b8ff" points="104.62,-50.5 114.65,-53.91 108.93,-44.99 104.62,-50.5"/>
</a>
</g>
</g>
<!-- Node3 -->
<g id="Node000003" class="node">
<title>Node3</title>
<g id="a_Node000003"><a xlink:href="classllvm_1_1orc_1_1OrcMips32Le.html" target="_top" xlink:title=" ">
<polygon fill="white" stroke="#666666" points="254,-19.25 136.75,-19.25 136.75,0 254,0 254,-19.25"/>
<text xml:space="preserve" text-anchor="middle" x="195.38" y="-5.75" font-family="Helvetica,sans-Serif" font-size="10.00">llvm::orc::OrcMips32Le</text>
</a>
</g>
</g>
<!-- Node1&#45;&gt;Node3 -->
<g id="edge2_Node000001_Node000003" class="edge">
<title>Node1&#45;&gt;Node3</title>
<g id="a_edge2_Node000001_Node000003"><a xlink:title=" ">
<path fill="none" stroke="#63b8ff" d="M147.72,-47.94C159.6,-38.64 174.14,-27.26 184.01,-19.52"/>
<polygon fill="#63b8ff" stroke="#63b8ff" points="145.82,-44.99 140.1,-53.91 150.13,-50.5 145.82,-44.99"/>
</a>
</g>
</g>
</g>
</svg>
