<?xml version="1.0" encoding="UTF-8" standalone="no"?>
<!DOCTYPE svg PUBLIC "-//W3C//DTD SVG 1.1//EN"
 "http://www.w3.org/Graphics/SVG/1.1/DTD/svg11.dtd">
<!-- Generated by graphviz version 13.1.2 (20250808.2320)
 -->
<!-- Title: llvm::cl::opt&lt; DataType, ExternalStorage, ParserClass &gt; Pages: 1 -->
<svg width="901pt" height="90pt"
 viewBox="0.00 0.00 901.00 90.00" xmlns="http://www.w3.org/2000/svg" xmlns:xlink="http://www.w3.org/1999/xlink">
<g id="graph0" class="graph" transform="scale(1 1) rotate(0) translate(4 86.12)">
<title>llvm::cl::opt&lt; DataType, ExternalStorage, ParserClass &gt;</title>
<!-- Node1 -->
<g id="Node000001" class="node">
<title>Node1</title>
<g id="a_Node000001"><a xlink:title=" ">
<polygon fill="#999999" stroke="#666666" points="664,-60.12 506.25,-60.12 506.25,-29.62 664,-29.62 664,-60.12"/>
<text xml:space="preserve" text-anchor="start" x="514.25" y="-46.62" font-family="Helvetica,sans-Serif" font-size="10.00">llvm::cl::opt&lt; DataType,</text>
<text xml:space="preserve" text-anchor="middle" x="585.12" y="-35.38" font-family="Helvetica,sans-Serif" font-size="10.00"> ExternalStorage, ParserClass &gt;</text>
</a>
</g>
</g>
<!-- Node5 -->
<g id="Node000005" class="node">
<title>Node5</title>
<g id="a_Node000005"><a xlink:href="classllvm_1_1cl_1_1opt.html" target="_top" xlink:title=" ">
<polygon fill="white" stroke="#666666" points="886.25,-82.12 796.75,-82.12 796.75,-51.62 886.25,-51.62 886.25,-82.12"/>
<text xml:space="preserve" text-anchor="start" x="804.75" y="-68.62" font-family="Helvetica,sans-Serif" font-size="10.00">llvm::cl::opt&lt; std</text>
<text xml:space="preserve" text-anchor="middle" x="841.5" y="-57.38" font-family="Helvetica,sans-Serif" font-size="10.00">::string, true &gt;</text>
</a>
</g>
</g>
<!-- Node1&#45;&gt;Node5 -->
<g id="edge4_Node000001_Node000005" class="edge">
<title>Node1&#45;&gt;Node5</title>
<g id="a_edge4_Node000001_Node000005"><a xlink:title=" ">
<path fill="none" stroke="orange" stroke-dasharray="5,2" d="M675.54,-52.61C716.43,-56.15 763.06,-60.18 796.28,-63.05"/>
<polygon fill="orange" stroke="orange" points="675.95,-49.13 665.68,-51.76 675.34,-56.1 675.95,-49.13"/>
</a>
</g>
<text xml:space="preserve" text-anchor="start" x="685" y="-65.12" font-family="Helvetica,sans-Serif" font-size="10.00" fill="grey">&lt; std::string, true &gt;</text>
</g>
<!-- Node6 -->
<g id="Node000006" class="node">
<title>Node6</title>
<g id="a_Node000006"><a xlink:href="classllvm_1_1cl_1_1opt.html" target="_top" xlink:title=" ">
<polygon fill="white" stroke="#666666" points="893,-33.5 790,-33.5 790,-14.25 893,-14.25 893,-33.5"/>
<text xml:space="preserve" text-anchor="middle" x="841.5" y="-20" font-family="Helvetica,sans-Serif" font-size="10.00">llvm::cl::opt&lt; bool &gt;</text>
</a>
</g>
</g>
<!-- Node1&#45;&gt;Node6 -->
<g id="edge5_Node000001_Node000006" class="edge">
<title>Node1&#45;&gt;Node6</title>
<g id="a_edge5_Node000001_Node000006"><a xlink:title=" ">
<path fill="none" stroke="orange" stroke-dasharray="5,2" d="M675.77,-28.31C677.87,-28.06 679.94,-27.83 682,-27.62 717.87,-24 758.54,-23.1 789.7,-23.09"/>
<polygon fill="orange" stroke="orange" points="675.44,-24.82 665.97,-29.57 676.34,-31.76 675.44,-24.82"/>
</a>
</g>
<text xml:space="preserve" text-anchor="start" x="709" y="-32.38" font-family="Helvetica,sans-Serif" font-size="10.00" fill="grey">&lt; bool &gt;</text>
</g>
<!-- Node2 -->
<g id="Node000002" class="node">
<title>Node2</title>
<g id="a_Node000002"><a xlink:href="classllvm_1_1cl_1_1Option.html" target="_top" xlink:title=" ">
<polygon fill="white" stroke="#666666" points="441.5,-79.5 359.5,-79.5 359.5,-60.25 441.5,-60.25 441.5,-79.5"/>
<text xml:space="preserve" text-anchor="middle" x="400.5" y="-66" font-family="Helvetica,sans-Serif" font-size="10.00">llvm::cl::Option</text>
</a>
</g>
</g>
<!-- Node2&#45;&gt;Node1 -->
<g id="edge1_Node000001_Node000002" class="edge">
<title>Node2&#45;&gt;Node1</title>
<g id="a_edge1_Node000001_Node000002"><a xlink:title=" ">
<path fill="none" stroke="#63b8ff" d="M452.63,-62.88C469.15,-60.61 487.86,-58.05 505.88,-55.59"/>
<polygon fill="#63b8ff" stroke="#63b8ff" points="452.51,-59.36 443.08,-64.18 453.46,-66.29 452.51,-59.36"/>
</a>
</g>
</g>
<!-- Node3 -->
<g id="Node000003" class="node">
<title>Node3</title>
<g id="a_Node000003"><a xlink:href="classllvm_1_1cl_1_1opt__storage.html" target="_top" xlink:title=" ">
<polygon fill="white" stroke="#666666" points="469.25,-41.75 331.75,-41.75 331.75,0 469.25,0 469.25,-41.75"/>
<text xml:space="preserve" text-anchor="start" x="339.75" y="-28.25" font-family="Helvetica,sans-Serif" font-size="10.00">llvm::cl::opt_storage</text>
<text xml:space="preserve" text-anchor="start" x="339.75" y="-17" font-family="Helvetica,sans-Serif" font-size="10.00">&lt; DataType, false, std</text>
<text xml:space="preserve" text-anchor="middle" x="400.5" y="-5.75" font-family="Helvetica,sans-Serif" font-size="10.00">::is_class_v&lt; DataType &gt; &gt;</text>
</a>
</g>
</g>
<!-- Node3&#45;&gt;Node1 -->
<g id="edge2_Node000001_Node000003" class="edge">
<title>Node3&#45;&gt;Node1</title>
<g id="a_edge2_Node000001_Node000003"><a xlink:title=" ">
<path fill="none" stroke="#63b8ff" d="M480.76,-31.29C489.1,-32.39 497.58,-33.5 505.91,-34.6"/>
<polygon fill="#63b8ff" stroke="#63b8ff" points="481.37,-27.84 471,-30.01 480.46,-34.78 481.37,-27.84"/>
</a>
</g>
</g>
<!-- Node4 -->
<g id="Node000004" class="node">
<title>Node4</title>
<g id="a_Node000004"><a xlink:href="classllvm_1_1cl_1_1opt__storage.html" target="_top" xlink:title=" ">
<polygon fill="white" stroke="#666666" points="145.75,-41.75 0,-41.75 0,0 145.75,0 145.75,-41.75"/>
<text xml:space="preserve" text-anchor="start" x="8" y="-28.25" font-family="Helvetica,sans-Serif" font-size="10.00">llvm::cl::opt_storage</text>
<text xml:space="preserve" text-anchor="start" x="8" y="-17" font-family="Helvetica,sans-Serif" font-size="10.00">&lt; DataType, ExternalStorage,</text>
<text xml:space="preserve" text-anchor="middle" x="72.88" y="-5.75" font-family="Helvetica,sans-Serif" font-size="10.00"> isClass &gt;</text>
</a>
</g>
</g>
<!-- Node4&#45;&gt;Node3 -->
<g id="edge3_Node000003_Node000004" class="edge">
<title>Node4&#45;&gt;Node3</title>
<g id="a_edge3_Node000003_Node000004"><a xlink:title=" ">
<path fill="none" stroke="orange" stroke-dasharray="5,2" d="M157.41,-20.88C211.37,-20.88 280.7,-20.88 331.33,-20.88"/>
<polygon fill="orange" stroke="orange" points="157.66,-17.38 147.66,-20.88 157.66,-24.38 157.66,-17.38"/>
</a>
</g>
<text xml:space="preserve" text-anchor="start" x="166.75" y="-40.88" font-family="Helvetica,sans-Serif" font-size="10.00" fill="grey">&lt; DataType, false,</text>
<text xml:space="preserve" text-anchor="start" x="166.75" y="-25.62" font-family="Helvetica,sans-Serif" font-size="10.00" fill="grey">   std::is_class_v&lt; DataType &gt; &gt;</text>
</g>
</g>
</svg>
