<?xml version="1.0" encoding="UTF-8" standalone="no"?>
<!DOCTYPE svg PUBLIC "-//W3C//DTD SVG 1.1//EN"
 "http://www.w3.org/Graphics/SVG/1.1/DTD/svg11.dtd">
<!-- Generated by graphviz version 13.1.2 (20250808.2320)
 -->
<!-- Title: llvm::CallbackVH Pages: 1 -->
<svg width="434pt" height="211pt"
 viewBox="0.00 0.00 434.00 211.00" xmlns="http://www.w3.org/2000/svg" xmlns:xlink="http://www.w3.org/1999/xlink">
<g id="graph0" class="graph" transform="scale(1 1) rotate(0) translate(4 206.88)">
<title>llvm::CallbackVH</title>
<!-- Node1 -->
<g id="Node000001" class="node">
<title>Node1</title>
<g id="a_Node000001"><a xlink:title="Value handle with callbacks on RAUW and destruction.">
<polygon fill="#999999" stroke="#666666" points="245.75,-116.88 153.25,-116.88 153.25,-97.62 245.75,-97.62 245.75,-116.88"/>
<text xml:space="preserve" text-anchor="middle" x="199.5" y="-103.38" font-family="Helvetica,sans-Serif" font-size="10.00">llvm::CallbackVH</text>
</a>
</g>
</g>
<!-- Node3 -->
<g id="Node000003" class="node">
<title>Node3</title>
<g id="a_Node000003"><a xlink:href="classllvm_1_1IVStrideUse.html" target="_top" xlink:title="IVStrideUse &#45; Keep track of one use of a strided induction variable.">
<polygon fill="white" stroke="#666666" points="400.5,-202.88 307.25,-202.88 307.25,-183.62 400.5,-183.62 400.5,-202.88"/>
<text xml:space="preserve" text-anchor="middle" x="353.88" y="-189.38" font-family="Helvetica,sans-Serif" font-size="10.00">llvm::IVStrideUse</text>
</a>
</g>
</g>
<!-- Node1&#45;&gt;Node3 -->
<g id="edge2_Node000001_Node000003" class="edge">
<title>Node1&#45;&gt;Node3</title>
<g id="a_edge2_Node000001_Node000003"><a xlink:title=" ">
<path fill="none" stroke="#63b8ff" d="M217.56,-125.1C232.98,-140.26 257.02,-161.52 281.75,-174.25 289.59,-178.29 298.37,-181.53 307.02,-184.11"/>
<polygon fill="#63b8ff" stroke="#63b8ff" points="220.11,-122.71 210.59,-118.07 215.14,-127.63 220.11,-122.71"/>
</a>
</g>
</g>
<!-- Node4 -->
<g id="Node000004" class="node">
<title>Node4</title>
<g id="a_Node000004"><a xlink:href="structllvm_1_1PreservedCFGCheckerInstrumentation_1_1BBGuard.html" target="_top" xlink:title=" ">
<polygon fill="white" stroke="#666666" points="424.88,-165.5 282.88,-165.5 282.88,-135 424.88,-135 424.88,-165.5"/>
<text xml:space="preserve" text-anchor="start" x="290.88" y="-152" font-family="Helvetica,sans-Serif" font-size="10.00">llvm::PreservedCFGChecker</text>
<text xml:space="preserve" text-anchor="middle" x="353.88" y="-140.75" font-family="Helvetica,sans-Serif" font-size="10.00">Instrumentation::BBGuard</text>
</a>
</g>
</g>
<!-- Node1&#45;&gt;Node4 -->
<g id="edge3_Node000001_Node000004" class="edge">
<title>Node1&#45;&gt;Node4</title>
<g id="a_edge3_Node000001_Node000004"><a xlink:title=" ">
<path fill="none" stroke="#63b8ff" d="M247.29,-120.45C263.02,-124.89 280.74,-129.89 297.1,-134.51"/>
<polygon fill="#63b8ff" stroke="#63b8ff" points="248.26,-117.09 237.68,-117.74 246.36,-123.83 248.26,-117.09"/>
</a>
</g>
</g>
<!-- Node5 -->
<g id="Node000005" class="node">
<title>Node5</title>
<g id="a_Node000005"><a xlink:href="classllvm_1_1SCEVUnknown.html" target="_top" xlink:title="This means that we are dealing with an entirely unknown SCEV value, and only represent it as its LLVM...">
<polygon fill="white" stroke="#666666" points="408.38,-116.88 299.38,-116.88 299.38,-97.62 408.38,-97.62 408.38,-116.88"/>
<text xml:space="preserve" text-anchor="middle" x="353.88" y="-103.38" font-family="Helvetica,sans-Serif" font-size="10.00">llvm::SCEVUnknown</text>
</a>
</g>
</g>
<!-- Node1&#45;&gt;Node5 -->
<g id="edge4_Node000001_Node000005" class="edge">
<title>Node1&#45;&gt;Node5</title>
<g id="a_edge4_Node000001_Node000005"><a xlink:title=" ">
<path fill="none" stroke="#8b1a1a" d="M257.44,-107.25C271.1,-107.25 285.64,-107.25 299.14,-107.25"/>
<polygon fill="#8b1a1a" stroke="#8b1a1a" points="257.73,-103.75 247.73,-107.25 257.73,-110.75 257.73,-103.75"/>
</a>
</g>
</g>
<!-- Node6 -->
<g id="Node000006" class="node">
<title>Node6</title>
<g id="a_Node000006"><a xlink:href="classllvm_1_1ValueMapCallbackVH.html" target="_top" xlink:title=" ">
<polygon fill="white" stroke="#666666" points="421.5,-79.5 286.25,-79.5 286.25,-49 421.5,-49 421.5,-79.5"/>
<text xml:space="preserve" text-anchor="start" x="294.25" y="-66" font-family="Helvetica,sans-Serif" font-size="10.00">llvm::ValueMapCallbackVH</text>
<text xml:space="preserve" text-anchor="middle" x="353.88" y="-54.75" font-family="Helvetica,sans-Serif" font-size="10.00">&lt; KeyT, ValueT, Config &gt;</text>
</a>
</g>
</g>
<!-- Node1&#45;&gt;Node6 -->
<g id="edge5_Node000001_Node000006" class="edge">
<title>Node1&#45;&gt;Node6</title>
<g id="a_edge5_Node000001_Node000006"><a xlink:title=" ">
<path fill="none" stroke="#63b8ff" d="M247.29,-94.05C263.02,-89.61 280.74,-84.61 297.1,-79.99"/>
<polygon fill="#63b8ff" stroke="#63b8ff" points="246.36,-90.67 237.68,-96.76 248.26,-97.41 246.36,-90.67"/>
</a>
</g>
</g>
<!-- Node7 -->
<g id="Node000007" class="node">
<title>Node7</title>
<g id="a_Node000007"><a xlink:href="classllvm_1_1bfi__detail_1_1BFICallbackVH_3_01BasicBlock_00_01BFIImplT_01_4.html" target="_top" xlink:title=" ">
<polygon fill="white" stroke="#666666" points="426,-30.5 281.75,-30.5 281.75,0 426,0 426,-30.5"/>
<text xml:space="preserve" text-anchor="start" x="289.75" y="-17" font-family="Helvetica,sans-Serif" font-size="10.00">llvm::bfi_detail::BFICallback</text>
<text xml:space="preserve" text-anchor="middle" x="353.88" y="-5.75" font-family="Helvetica,sans-Serif" font-size="10.00">VH&lt; BasicBlock, BFIImplT &gt;</text>
</a>
</g>
</g>
<!-- Node1&#45;&gt;Node7 -->
<g id="edge6_Node000001_Node000007" class="edge">
<title>Node1&#45;&gt;Node7</title>
<g id="a_edge6_Node000001_Node000007"><a xlink:title=" ">
<path fill="none" stroke="#63b8ff" d="M218.32,-89.37C233.93,-74.54 257.79,-53.77 281.75,-40.25 287.91,-36.78 294.63,-33.66 301.41,-30.89"/>
<polygon fill="#63b8ff" stroke="#63b8ff" points="215.97,-86.78 211.24,-96.26 220.85,-91.8 215.97,-86.78"/>
</a>
</g>
</g>
<!-- Node2 -->
<g id="Node000002" class="node">
<title>Node2</title>
<g id="a_Node000002"><a xlink:href="classllvm_1_1ValueHandleBase.html" target="_top" xlink:title="This is the common base class of value handles.">
<polygon fill="white" stroke="#666666" points="117.25,-116.88 0,-116.88 0,-97.62 117.25,-97.62 117.25,-116.88"/>
<text xml:space="preserve" text-anchor="middle" x="58.62" y="-103.38" font-family="Helvetica,sans-Serif" font-size="10.00">llvm::ValueHandleBase</text>
</a>
</g>
</g>
<!-- Node2&#45;&gt;Node1 -->
<g id="edge1_Node000001_Node000002" class="edge">
<title>Node2&#45;&gt;Node1</title>
<g id="a_edge1_Node000001_Node000002"><a xlink:title=" ">
<path fill="none" stroke="#63b8ff" d="M129.09,-107.25C137.17,-107.25 145.25,-107.25 152.89,-107.25"/>
<polygon fill="#63b8ff" stroke="#63b8ff" points="129.23,-103.75 119.23,-107.25 129.23,-110.75 129.23,-103.75"/>
</a>
</g>
</g>
</g>
</svg>
