<?xml version="1.0" encoding="UTF-8" standalone="no"?>
<!DOCTYPE svg PUBLIC "-//W3C//DTD SVG 1.1//EN"
 "http://www.w3.org/Graphics/SVG/1.1/DTD/svg11.dtd">
<!-- Generated by graphviz version 13.1.2 (20250808.2320)
 -->
<!-- Title: llvm::ARMBaseTargetMachine Pages: 1 -->
<svg width="304pt" height="193pt"
 viewBox="0.00 0.00 304.00 193.00" xmlns="http://www.w3.org/2000/svg" xmlns:xlink="http://www.w3.org/1999/xlink">
<g id="graph0" class="graph" transform="scale(1 1) rotate(0) translate(4 189)">
<title>llvm::ARMBaseTargetMachine</title>
<!-- Node1 -->
<g id="Node000001" class="node">
<title>Node1</title>
<g id="a_Node000001"><a xlink:title=" ">
<polygon fill="#999999" stroke="#666666" points="222.25,-74.5 73.5,-74.5 73.5,-55.25 222.25,-55.25 222.25,-74.5"/>
<text xml:space="preserve" text-anchor="middle" x="147.88" y="-61" font-family="Helvetica,sans-Serif" font-size="10.00">llvm::ARMBaseTargetMachine</text>
</a>
</g>
</g>
<!-- Node4 -->
<g id="Node000004" class="node">
<title>Node4</title>
<g id="a_Node000004"><a xlink:href="classllvm_1_1ARMBETargetMachine.html" target="_top" xlink:title="ARM/Thumb big endian target machine.">
<polygon fill="white" stroke="#666666" points="139.75,-19.25 0,-19.25 0,0 139.75,0 139.75,-19.25"/>
<text xml:space="preserve" text-anchor="middle" x="69.88" y="-5.75" font-family="Helvetica,sans-Serif" font-size="10.00">llvm::ARMBETargetMachine</text>
</a>
</g>
</g>
<!-- Node1&#45;&gt;Node4 -->
<g id="edge3_Node000001_Node000004" class="edge">
<title>Node1&#45;&gt;Node4</title>
<g id="a_edge3_Node000001_Node000004"><a xlink:title=" ">
<path fill="none" stroke="#63b8ff" d="M125.4,-48.53C111.73,-39.2 94.73,-27.6 83.17,-19.7"/>
<polygon fill="#63b8ff" stroke="#63b8ff" points="123.16,-51.24 133.39,-53.99 127.11,-45.46 123.16,-51.24"/>
</a>
</g>
</g>
<!-- Node5 -->
<g id="Node000005" class="node">
<title>Node5</title>
<g id="a_Node000005"><a xlink:href="classllvm_1_1ARMLETargetMachine.html" target="_top" xlink:title="ARM/Thumb little endian target machine.">
<polygon fill="white" stroke="#666666" points="296,-19.25 157.75,-19.25 157.75,0 296,0 296,-19.25"/>
<text xml:space="preserve" text-anchor="middle" x="226.88" y="-5.75" font-family="Helvetica,sans-Serif" font-size="10.00">llvm::ARMLETargetMachine</text>
</a>
</g>
</g>
<!-- Node1&#45;&gt;Node5 -->
<g id="edge4_Node000001_Node000005" class="edge">
<title>Node1&#45;&gt;Node5</title>
<g id="a_edge4_Node000001_Node000005"><a xlink:title=" ">
<path fill="none" stroke="#63b8ff" d="M170.64,-48.53C184.48,-39.2 201.7,-27.6 213.41,-19.7"/>
<polygon fill="#63b8ff" stroke="#63b8ff" points="168.87,-45.5 162.53,-54 172.78,-51.31 168.87,-45.5"/>
</a>
</g>
</g>
<!-- Node2 -->
<g id="Node000002" class="node">
<title>Node2</title>
<g id="a_Node000002"><a xlink:href="classllvm_1_1CodeGenTargetMachineImpl.html" target="_top" xlink:title="implements a set of functionality in the TargetMachine class for targets that make use of the indepen...">
<polygon fill="white" stroke="#666666" points="229.75,-129.75 66,-129.75 66,-110.5 229.75,-110.5 229.75,-129.75"/>
<text xml:space="preserve" text-anchor="middle" x="147.88" y="-116.25" font-family="Helvetica,sans-Serif" font-size="10.00">llvm::CodeGenTargetMachineImpl</text>
</a>
</g>
</g>
<!-- Node2&#45;&gt;Node1 -->
<g id="edge1_Node000001_Node000002" class="edge">
<title>Node2&#45;&gt;Node1</title>
<g id="a_edge1_Node000001_Node000002"><a xlink:title=" ">
<path fill="none" stroke="#63b8ff" d="M147.88,-98.88C147.88,-90.59 147.88,-81.42 147.88,-74.86"/>
<polygon fill="#63b8ff" stroke="#63b8ff" points="144.38,-98.82 147.88,-108.82 151.38,-98.82 144.38,-98.82"/>
</a>
</g>
</g>
<!-- Node3 -->
<g id="Node000003" class="node">
<title>Node3</title>
<g id="a_Node000003"><a xlink:href="classllvm_1_1TargetMachine.html" target="_top" xlink:title="Primary interface to the complete machine description for the target machine.">
<polygon fill="white" stroke="#666666" points="199.75,-185 96,-185 96,-165.75 199.75,-165.75 199.75,-185"/>
<text xml:space="preserve" text-anchor="middle" x="147.88" y="-171.5" font-family="Helvetica,sans-Serif" font-size="10.00">llvm::TargetMachine</text>
</a>
</g>
</g>
<!-- Node3&#45;&gt;Node2 -->
<g id="edge2_Node000002_Node000003" class="edge">
<title>Node3&#45;&gt;Node2</title>
<g id="a_edge2_Node000002_Node000003"><a xlink:title=" ">
<path fill="none" stroke="#63b8ff" d="M147.88,-154.13C147.88,-145.84 147.88,-136.67 147.88,-130.11"/>
<polygon fill="#63b8ff" stroke="#63b8ff" points="144.38,-154.07 147.88,-164.07 151.38,-154.07 144.38,-154.07"/>
</a>
</g>
</g>
</g>
</svg>
