<?xml version="1.0" encoding="UTF-8" standalone="no"?>
<!DOCTYPE svg PUBLIC "-//W3C//DTD SVG 1.1//EN"
 "http://www.w3.org/Graphics/SVG/1.1/DTD/svg11.dtd">
<!-- Generated by graphviz version 13.1.2 (20250808.2320)
 -->
<!-- Title: llvm::MachineLoopAnalysis Pages: 1 -->
<svg width="304pt" height="262pt"
 viewBox="0.00 0.00 304.00 262.00" xmlns="http://www.w3.org/2000/svg" xmlns:xlink="http://www.w3.org/1999/xlink">
<g id="graph0" class="graph" transform="scale(1 1) rotate(0) translate(4 258.25)">
<title>llvm::MachineLoopAnalysis</title>
<!-- Node1 -->
<g id="Node000001" class="node">
<title>Node1</title>
<g id="a_Node000001"><a xlink:title="Analysis pass that exposes the MachineLoopInfo for a machine function.">
<polygon fill="#999999" stroke="#666666" points="202.25,-19.25 67,-19.25 67,0 202.25,0 202.25,-19.25"/>
<text xml:space="preserve" text-anchor="middle" x="134.62" y="-5.75" font-family="Helvetica,sans-Serif" font-size="10.00">llvm::MachineLoopAnalysis</text>
</a>
</g>
</g>
<!-- Node2 -->
<g id="Node000002" class="node">
<title>Node2</title>
<g id="a_Node000002"><a xlink:href="structllvm_1_1AnalysisInfoMixin.html" target="_top" xlink:title=" ">
<polygon fill="white" stroke="#666666" points="199.25,-86.75 70,-86.75 70,-56.25 199.25,-56.25 199.25,-86.75"/>
<text xml:space="preserve" text-anchor="start" x="78" y="-73.25" font-family="Helvetica,sans-Serif" font-size="10.00">llvm::AnalysisInfoMixin</text>
<text xml:space="preserve" text-anchor="middle" x="134.62" y="-62" font-family="Helvetica,sans-Serif" font-size="10.00">&lt; MachineLoopAnalysis &gt;</text>
</a>
</g>
</g>
<!-- Node2&#45;&gt;Node1 -->
<g id="edge1_Node000001_Node000002" class="edge">
<title>Node2&#45;&gt;Node1</title>
<g id="a_edge1_Node000001_Node000002"><a xlink:title=" ">
<path fill="none" stroke="#63b8ff" d="M134.62,-44.77C134.62,-35.79 134.62,-26.29 134.62,-19.6"/>
<polygon fill="#63b8ff" stroke="#63b8ff" points="131.13,-44.49 134.63,-54.49 138.13,-44.49 131.13,-44.49"/>
</a>
</g>
</g>
<!-- Node3 -->
<g id="Node000003" class="node">
<title>Node3</title>
<g id="a_Node000003"><a xlink:href="structllvm_1_1PassInfoMixin.html" target="_top" xlink:title=" ">
<polygon fill="white" stroke="#666666" points="129.25,-170.5 0,-170.5 0,-140 129.25,-140 129.25,-170.5"/>
<text xml:space="preserve" text-anchor="start" x="8" y="-157" font-family="Helvetica,sans-Serif" font-size="10.00">llvm::PassInfoMixin</text>
<text xml:space="preserve" text-anchor="middle" x="64.62" y="-145.75" font-family="Helvetica,sans-Serif" font-size="10.00">&lt; MachineLoopAnalysis &gt;</text>
</a>
</g>
</g>
<!-- Node3&#45;&gt;Node2 -->
<g id="edge2_Node000002_Node000003" class="edge">
<title>Node3&#45;&gt;Node2</title>
<g id="a_edge2_Node000002_Node000003"><a xlink:title=" ">
<path fill="none" stroke="#63b8ff" d="M84.6,-130.93C96.71,-116.78 111.8,-99.16 122.22,-86.99"/>
<polygon fill="#63b8ff" stroke="#63b8ff" points="81.97,-128.61 78.12,-138.49 87.29,-133.17 81.97,-128.61"/>
</a>
</g>
</g>
<!-- Node4 -->
<g id="Node000004" class="node">
<title>Node4</title>
<g id="a_Node000004"><a xlink:href="structllvm_1_1PassInfoMixin.html" target="_top" xlink:title="A CRTP mix&#45;in to automatically provide informational APIs needed for passes.">
<polygon fill="white" stroke="#666666" points="115.75,-254.25 13.5,-254.25 13.5,-223.75 115.75,-223.75 115.75,-254.25"/>
<text xml:space="preserve" text-anchor="start" x="21.5" y="-240.75" font-family="Helvetica,sans-Serif" font-size="10.00">llvm::PassInfoMixin</text>
<text xml:space="preserve" text-anchor="middle" x="64.62" y="-229.5" font-family="Helvetica,sans-Serif" font-size="10.00">&lt; DerivedT &gt;</text>
</a>
</g>
</g>
<!-- Node4&#45;&gt;Node3 -->
<g id="edge3_Node000003_Node000004" class="edge">
<title>Node4&#45;&gt;Node3</title>
<g id="a_edge3_Node000003_Node000004"><a xlink:title=" ">
<path fill="none" stroke="orange" stroke-dasharray="5,2" d="M64.62,-212.22C64.62,-198.53 64.62,-182.21 64.62,-170.74"/>
<polygon fill="orange" stroke="orange" points="61.13,-211.87 64.63,-221.87 68.13,-211.87 61.13,-211.87"/>
</a>
</g>
<text xml:space="preserve" text-anchor="start" x="67.62" y="-193.25" font-family="Helvetica,sans-Serif" font-size="10.00" fill="grey">&lt; MachineLoopAnalysis &gt;</text>
</g>
<!-- Node5 -->
<g id="Node000005" class="node">
<title>Node5</title>
<g id="a_Node000005"><a xlink:href="structllvm_1_1AnalysisInfoMixin.html" target="_top" xlink:title="A CRTP mix&#45;in that provides informational APIs needed for analysis passes.">
<polygon fill="white" stroke="#666666" points="264.25,-170.5 147,-170.5 147,-140 264.25,-140 264.25,-170.5"/>
<text xml:space="preserve" text-anchor="start" x="155" y="-157" font-family="Helvetica,sans-Serif" font-size="10.00">llvm::AnalysisInfoMixin</text>
<text xml:space="preserve" text-anchor="middle" x="205.62" y="-145.75" font-family="Helvetica,sans-Serif" font-size="10.00">&lt; DerivedT &gt;</text>
</a>
</g>
</g>
<!-- Node5&#45;&gt;Node2 -->
<g id="edge4_Node000002_Node000005" class="edge">
<title>Node5&#45;&gt;Node2</title>
<g id="a_edge4_Node000002_Node000005"><a xlink:title=" ">
<path fill="none" stroke="orange" stroke-dasharray="5,2" d="M185.72,-131.33C173.37,-117.11 157.88,-99.27 147.21,-86.99"/>
<polygon fill="orange" stroke="orange" points="182.74,-133.24 191.94,-138.49 188.02,-128.65 182.74,-133.24"/>
</a>
</g>
<text xml:space="preserve" text-anchor="start" x="179.48" y="-109.5" font-family="Helvetica,sans-Serif" font-size="10.00" fill="grey">&lt; MachineLoopAnalysis &gt;</text>
</g>
<!-- Node6 -->
<g id="Node000006" class="node">
<title>Node6</title>
<g id="a_Node000006"><a xlink:href="structllvm_1_1PassInfoMixin.html" target="_top" xlink:title="A CRTP mix&#45;in to automatically provide informational APIs needed for passes.">
<polygon fill="white" stroke="#666666" points="256.75,-254.25 154.5,-254.25 154.5,-223.75 256.75,-223.75 256.75,-254.25"/>
<text xml:space="preserve" text-anchor="start" x="162.5" y="-240.75" font-family="Helvetica,sans-Serif" font-size="10.00">llvm::PassInfoMixin</text>
<text xml:space="preserve" text-anchor="middle" x="205.62" y="-229.5" font-family="Helvetica,sans-Serif" font-size="10.00">&lt; DerivedT &gt;</text>
</a>
</g>
</g>
<!-- Node6&#45;&gt;Node5 -->
<g id="edge5_Node000005_Node000006" class="edge">
<title>Node6&#45;&gt;Node5</title>
<g id="a_edge5_Node000005_Node000006"><a xlink:title=" ">
<path fill="none" stroke="#63b8ff" d="M205.62,-212.22C205.62,-198.53 205.62,-182.21 205.62,-170.74"/>
<polygon fill="#63b8ff" stroke="#63b8ff" points="202.13,-211.87 205.63,-221.87 209.13,-211.87 202.13,-211.87"/>
</a>
</g>
</g>
</g>
</svg>
