<?xml version="1.0" encoding="UTF-8" standalone="no"?>
<!DOCTYPE svg PUBLIC "-//W3C//DTD SVG 1.1//EN"
 "http://www.w3.org/Graphics/SVG/1.1/DTD/svg11.dtd">
<!-- Generated by graphviz version 13.1.2 (20250808.2320)
 -->
<!-- Title: llvm::ExecutionEngine Pages: 1 -->
<svg width="180pt" height="83pt"
 viewBox="0.00 0.00 180.00 83.00" xmlns="http://www.w3.org/2000/svg" xmlns:xlink="http://www.w3.org/1999/xlink">
<g id="graph0" class="graph" transform="scale(1 1) rotate(0) translate(4 78.5)">
<title>llvm::ExecutionEngine</title>
<!-- Node1 -->
<g id="Node000001" class="node">
<title>Node1</title>
<g id="a_Node000001"><a xlink:title="Abstract interface for implementation execution of LLVM modules, designed to support both interpreter...">
<polygon fill="#999999" stroke="#666666" points="145.88,-74.5 32.38,-74.5 32.38,-55.25 145.88,-55.25 145.88,-74.5"/>
<text xml:space="preserve" text-anchor="middle" x="89.12" y="-61" font-family="Helvetica,sans-Serif" font-size="10.00">llvm::ExecutionEngine</text>
</a>
</g>
</g>
<!-- Node2 -->
<g id="Node000002" class="node">
<title>Node2</title>
<g id="a_Node000002"><a xlink:href="classllvm_1_1Interpreter.html" target="_top" xlink:title=" ">
<polygon fill="white" stroke="#666666" points="84.25,-19.25 0,-19.25 0,0 84.25,0 84.25,-19.25"/>
<text xml:space="preserve" text-anchor="middle" x="42.12" y="-5.75" font-family="Helvetica,sans-Serif" font-size="10.00">llvm::Interpreter</text>
</a>
</g>
</g>
<!-- Node1&#45;&gt;Node2 -->
<g id="edge1_Node000001_Node000002" class="edge">
<title>Node1&#45;&gt;Node2</title>
<g id="a_edge1_Node000001_Node000002"><a xlink:title=" ">
<path fill="none" stroke="#63b8ff" d="M73.8,-46.51C65.87,-37.53 56.53,-26.95 50.05,-19.61"/>
<polygon fill="#63b8ff" stroke="#63b8ff" points="71.12,-48.77 80.36,-53.95 76.37,-44.13 71.12,-48.77"/>
</a>
</g>
</g>
<!-- Node3 -->
<g id="Node000003" class="node">
<title>Node3</title>
<g id="a_Node000003"><a xlink:href="classllvm_1_1MCJIT.html" target="_top" xlink:title=" ">
<polygon fill="white" stroke="#666666" points="172.12,-19.25 102.12,-19.25 102.12,0 172.12,0 172.12,-19.25"/>
<text xml:space="preserve" text-anchor="middle" x="137.12" y="-5.75" font-family="Helvetica,sans-Serif" font-size="10.00">llvm::MCJIT</text>
</a>
</g>
</g>
<!-- Node1&#45;&gt;Node3 -->
<g id="edge2_Node000001_Node000003" class="edge">
<title>Node1&#45;&gt;Node3</title>
<g id="a_edge2_Node000001_Node000003"><a xlink:title=" ">
<path fill="none" stroke="#63b8ff" d="M104.52,-46.79C112.67,-37.75 122.34,-27.02 129.03,-19.61"/>
<polygon fill="#63b8ff" stroke="#63b8ff" points="102.16,-44.19 98.06,-53.96 107.36,-48.87 102.16,-44.19"/>
</a>
</g>
</g>
</g>
</svg>
