<?xml version="1.0" encoding="UTF-8" standalone="no"?>
<!DOCTYPE svg PUBLIC "-//W3C//DTD SVG 1.1//EN"
 "http://www.w3.org/Graphics/SVG/1.1/DTD/svg11.dtd">
<!-- Generated by graphviz version 13.1.2 (20250808.2320)
 -->
<!-- Title: llvm::BinOpInit Pages: 1 -->
<svg width="185pt" height="193pt"
 viewBox="0.00 0.00 185.00 193.00" xmlns="http://www.w3.org/2000/svg" xmlns:xlink="http://www.w3.org/1999/xlink">
<g id="graph0" class="graph" transform="scale(1 1) rotate(0) translate(4 189)">
<title>llvm::BinOpInit</title>
<!-- Node1 -->
<g id="Node000001" class="node">
<title>Node1</title>
<g id="a_Node000001"><a xlink:title="!op (X, Y) &#45; Combine two inits.">
<polygon fill="#999999" stroke="#666666" points="127.12,-19.25 46.62,-19.25 46.62,0 127.12,0 127.12,-19.25"/>
<text xml:space="preserve" text-anchor="middle" x="86.88" y="-5.75" font-family="Helvetica,sans-Serif" font-size="10.00">llvm::BinOpInit</text>
</a>
</g>
</g>
<!-- Node2 -->
<g id="Node000002" class="node">
<title>Node2</title>
<g id="a_Node000002"><a xlink:href="classllvm_1_1OpInit.html" target="_top" xlink:title="Base class for operators.">
<polygon fill="white" stroke="#666666" points="73,-74.5 6.75,-74.5 6.75,-55.25 73,-55.25 73,-74.5"/>
<text xml:space="preserve" text-anchor="middle" x="39.88" y="-61" font-family="Helvetica,sans-Serif" font-size="10.00">llvm::OpInit</text>
</a>
</g>
</g>
<!-- Node2&#45;&gt;Node1 -->
<g id="edge1_Node000001_Node000002" class="edge">
<title>Node2&#45;&gt;Node1</title>
<g id="a_edge1_Node000001_Node000002"><a xlink:title=" ">
<path fill="none" stroke="#63b8ff" d="M55.2,-46.51C63.13,-37.53 72.47,-26.95 78.95,-19.61"/>
<polygon fill="#63b8ff" stroke="#63b8ff" points="52.63,-44.13 48.64,-53.95 57.88,-48.77 52.63,-44.13"/>
</a>
</g>
</g>
<!-- Node3 -->
<g id="Node000003" class="node">
<title>Node3</title>
<g id="a_Node000003"><a xlink:href="classllvm_1_1TypedInit.html" target="_top" xlink:title="This is the common superclass of types that have a specific, explicit type, stored in ValueTy.">
<polygon fill="white" stroke="#666666" points="79.75,-129.75 0,-129.75 0,-110.5 79.75,-110.5 79.75,-129.75"/>
<text xml:space="preserve" text-anchor="middle" x="39.88" y="-116.25" font-family="Helvetica,sans-Serif" font-size="10.00">llvm::TypedInit</text>
</a>
</g>
</g>
<!-- Node3&#45;&gt;Node2 -->
<g id="edge2_Node000002_Node000003" class="edge">
<title>Node3&#45;&gt;Node2</title>
<g id="a_edge2_Node000002_Node000003"><a xlink:title=" ">
<path fill="none" stroke="#63b8ff" d="M39.88,-98.88C39.88,-90.59 39.88,-81.42 39.88,-74.86"/>
<polygon fill="#63b8ff" stroke="#63b8ff" points="36.38,-98.82 39.88,-108.82 43.38,-98.82 36.38,-98.82"/>
</a>
</g>
</g>
<!-- Node4 -->
<g id="Node000004" class="node">
<title>Node4</title>
<g id="a_Node000004"><a xlink:href="classllvm_1_1Init.html" target="_top" xlink:title=" ">
<polygon fill="white" stroke="#666666" points="66.62,-185 13.12,-185 13.12,-165.75 66.62,-165.75 66.62,-185"/>
<text xml:space="preserve" text-anchor="middle" x="39.88" y="-171.5" font-family="Helvetica,sans-Serif" font-size="10.00">llvm::Init</text>
</a>
</g>
</g>
<!-- Node4&#45;&gt;Node3 -->
<g id="edge3_Node000003_Node000004" class="edge">
<title>Node4&#45;&gt;Node3</title>
<g id="a_edge3_Node000003_Node000004"><a xlink:title=" ">
<path fill="none" stroke="#63b8ff" d="M39.88,-154.13C39.88,-145.84 39.88,-136.67 39.88,-130.11"/>
<polygon fill="#63b8ff" stroke="#63b8ff" points="36.38,-154.07 39.88,-164.07 43.38,-154.07 36.38,-154.07"/>
</a>
</g>
</g>
<!-- Node5 -->
<g id="Node000005" class="node">
<title>Node5</title>
<g id="a_Node000005"><a xlink:href="classllvm_1_1FoldingSetBase_1_1Node.html" target="_top" xlink:title="Node &#45; This class is used to maintain the singly linked bucket list in a folding set.">
<polygon fill="white" stroke="#666666" points="176.75,-74.5 91,-74.5 91,-55.25 176.75,-55.25 176.75,-74.5"/>
<text xml:space="preserve" text-anchor="middle" x="133.88" y="-61" font-family="Helvetica,sans-Serif" font-size="10.00">FoldingSetNode</text>
</a>
</g>
</g>
<!-- Node5&#45;&gt;Node1 -->
<g id="edge4_Node000001_Node000005" class="edge">
<title>Node5&#45;&gt;Node1</title>
<g id="a_edge4_Node000001_Node000005"><a xlink:title=" ">
<path fill="none" stroke="#63b8ff" d="M118.55,-46.51C110.62,-37.53 101.28,-26.95 94.8,-19.61"/>
<polygon fill="#63b8ff" stroke="#63b8ff" points="115.87,-48.77 125.11,-53.95 121.12,-44.13 115.87,-48.77"/>
</a>
</g>
</g>
</g>
</svg>
