<?xml version="1.0" encoding="UTF-8" standalone="no"?>
<!DOCTYPE svg PUBLIC "-//W3C//DTD SVG 1.1//EN"
 "http://www.w3.org/Graphics/SVG/1.1/DTD/svg11.dtd">
<!-- Generated by graphviz version 13.1.2 (20250808.2320)
 -->
<!-- Title: llvm::iplist&lt; T, Options &gt; Pages: 1 -->
<svg width="2075pt" height="603pt"
 viewBox="0.00 0.00 2075.00 603.00" xmlns="http://www.w3.org/2000/svg" xmlns:xlink="http://www.w3.org/1999/xlink">
<g id="graph0" class="graph" transform="scale(1 1) rotate(0) translate(4 598.75)">
<title>llvm::iplist&lt; T, Options &gt;</title>
<!-- Node1 -->
<g id="Node000001" class="node">
<title>Node1</title>
<g id="a_Node000001"><a xlink:title="An intrusive list with ownership and callbacks specified/controlled by ilist_traits,...">
<polygon fill="#999999" stroke="#666666" points="1425,-221.81 1302.5,-221.81 1302.5,-202.56 1425,-202.56 1425,-221.81"/>
<text xml:space="preserve" text-anchor="middle" x="1363.75" y="-208.31" font-family="Helvetica,sans-Serif" font-size="10.00">llvm::iplist&lt; T, Options &gt;</text>
</a>
</g>
</g>
<!-- Node24 -->
<g id="Node000024" class="node">
<title>Node24</title>
<g id="a_Node000024"><a xlink:href="classllvm_1_1iplist.html" target="_top" xlink:title=" ">
<polygon fill="white" stroke="#666666" points="1751.5,-292.81 1620,-292.81 1620,-273.56 1751.5,-273.56 1751.5,-292.81"/>
<text xml:space="preserve" text-anchor="middle" x="1685.75" y="-279.31" font-family="Helvetica,sans-Serif" font-size="10.00">llvm::iplist&lt; T, Options... &gt;</text>
</a>
</g>
</g>
<!-- Node1&#45;&gt;Node24 -->
<g id="edge28_Node000001_Node000024" class="edge">
<title>Node1&#45;&gt;Node24</title>
<g id="a_edge28_Node000001_Node000024"><a xlink:title=" ">
<path fill="none" stroke="orange" stroke-dasharray="5,2" d="M1385.47,-228.97C1400.49,-240.15 1421.82,-254.05 1443,-261.19 1500.61,-280.61 1570.05,-285.13 1619.7,-285.37"/>
<polygon fill="orange" stroke="orange" points="1387.82,-226.37 1377.77,-223.04 1383.55,-231.91 1387.82,-226.37"/>
</a>
</g>
<text xml:space="preserve" text-anchor="start" x="1483.5" y="-289.49" font-family="Helvetica,sans-Serif" font-size="10.00" fill="grey">&lt; T, Options... &gt;</text>
</g>
<!-- Node37 -->
<g id="Node000037" class="node">
<title>Node37</title>
<g id="a_Node000037"><a xlink:href="classllvm_1_1iplist.html" target="_top" xlink:title=" ">
<polygon fill="white" stroke="#666666" points="1756,-233.06 1615.5,-233.06 1615.5,-191.31 1756,-191.31 1756,-233.06"/>
<text xml:space="preserve" text-anchor="start" x="1623.5" y="-219.56" font-family="Helvetica,sans-Serif" font-size="10.00">llvm::iplist&lt; MemoryAccess,</text>
<text xml:space="preserve" text-anchor="start" x="1623.5" y="-208.31" font-family="Helvetica,sans-Serif" font-size="10.00"> ilist_tag&lt; MSSAHelpers</text>
<text xml:space="preserve" text-anchor="middle" x="1685.75" y="-197.06" font-family="Helvetica,sans-Serif" font-size="10.00">::AllAccessTag &gt; &gt;</text>
</a>
</g>
</g>
<!-- Node1&#45;&gt;Node37 -->
<g id="edge41_Node000001_Node000037" class="edge">
<title>Node1&#45;&gt;Node37</title>
<g id="a_edge41_Node000001_Node000037"><a xlink:title=" ">
<path fill="none" stroke="orange" stroke-dasharray="5,2" d="M1436.74,-212.19C1490.13,-212.19 1562.48,-212.19 1615.25,-212.19"/>
<polygon fill="orange" stroke="orange" points="1436.83,-208.69 1426.83,-212.19 1436.83,-215.69 1436.83,-208.69"/>
</a>
</g>
<text xml:space="preserve" text-anchor="start" x="1446" y="-247.44" font-family="Helvetica,sans-Serif" font-size="10.00" fill="grey">&lt; MemoryAccess, ilist</text>
<text xml:space="preserve" text-anchor="start" x="1446" y="-232.19" font-family="Helvetica,sans-Serif" font-size="10.00" fill="grey">  _tag&lt; MSSAHelpers::AllAccess</text>
<text xml:space="preserve" text-anchor="start" x="1446" y="-216.94" font-family="Helvetica,sans-Serif" font-size="10.00" fill="grey">  Tag &gt; &gt;</text>
</g>
<!-- Node38 -->
<g id="Node000038" class="node">
<title>Node38</title>
<g id="a_Node000038"><a xlink:href="classllvm_1_1iplist.html" target="_top" xlink:title=" ">
<polygon fill="white" stroke="#666666" points="1758.25,-172.81 1613.25,-172.81 1613.25,-153.56 1758.25,-153.56 1758.25,-172.81"/>
<text xml:space="preserve" text-anchor="middle" x="1685.75" y="-159.31" font-family="Helvetica,sans-Serif" font-size="10.00">llvm::iplist&lt; VPRecipeBase &gt;</text>
</a>
</g>
</g>
<!-- Node1&#45;&gt;Node38 -->
<g id="edge42_Node000001_Node000038" class="edge">
<title>Node1&#45;&gt;Node38</title>
<g id="a_edge42_Node000001_Node000038"><a xlink:title=" ">
<path fill="none" stroke="orange" stroke-dasharray="5,2" d="M1408.45,-199.07C1419.64,-196.06 1431.7,-193.11 1443,-190.94 1499.63,-180.06 1564.6,-172.9 1612.92,-168.58"/>
<polygon fill="orange" stroke="orange" points="1407.78,-195.63 1399.08,-201.67 1409.65,-202.37 1407.78,-195.63"/>
</a>
</g>
<text xml:space="preserve" text-anchor="start" x="1476.75" y="-195.69" font-family="Helvetica,sans-Serif" font-size="10.00" fill="grey">&lt; VPRecipeBase &gt;</text>
</g>
<!-- Node2 -->
<g id="Node000002" class="node">
<title>Node2</title>
<g id="a_Node000002"><a xlink:href="classllvm_1_1iplist__impl.html" target="_top" xlink:title=" ">
<polygon fill="white" stroke="#666666" points="1265.5,-233.06 1135.5,-233.06 1135.5,-191.31 1265.5,-191.31 1265.5,-233.06"/>
<text xml:space="preserve" text-anchor="start" x="1143.5" y="-219.56" font-family="Helvetica,sans-Serif" font-size="10.00">llvm::iplist_impl&lt;</text>
<text xml:space="preserve" text-anchor="start" x="1143.5" y="-208.31" font-family="Helvetica,sans-Serif" font-size="10.00"> simple_ilist&lt; T, Options...</text>
<text xml:space="preserve" text-anchor="middle" x="1200.5" y="-197.06" font-family="Helvetica,sans-Serif" font-size="10.00"> &gt;, ilist_traits&lt; T &gt; &gt;</text>
</a>
</g>
</g>
<!-- Node2&#45;&gt;Node1 -->
<g id="edge1_Node000001_Node000002" class="edge">
<title>Node2&#45;&gt;Node1</title>
<g id="a_edge1_Node000001_Node000002"><a xlink:title=" ">
<path fill="none" stroke="#63b8ff" d="M1277.09,-212.19C1285.5,-212.19 1293.99,-212.19 1302.19,-212.19"/>
<polygon fill="#63b8ff" stroke="#63b8ff" points="1277.21,-208.69 1267.21,-212.19 1277.21,-215.69 1277.21,-208.69"/>
</a>
</g>
</g>
<!-- Node3 -->
<g id="Node000003" class="node">
<title>Node3</title>
<g id="a_Node000003"><a xlink:href="structllvm_1_1ilist__traits.html" target="_top" xlink:title=" ">
<polygon fill="white" stroke="#666666" points="1003.5,-307.81 897.5,-307.81 897.5,-288.56 1003.5,-288.56 1003.5,-307.81"/>
<text xml:space="preserve" text-anchor="middle" x="950.5" y="-294.31" font-family="Helvetica,sans-Serif" font-size="10.00">llvm::ilist_traits&lt; T &gt;</text>
</a>
</g>
</g>
<!-- Node3&#45;&gt;Node2 -->
<g id="edge2_Node000002_Node000003" class="edge">
<title>Node3&#45;&gt;Node2</title>
<g id="a_edge2_Node000002_Node000003"><a xlink:title=" ">
<path fill="none" stroke="#63b8ff" d="M991.23,-284.41C1030.78,-270.7 1092.04,-249.46 1137.89,-233.55"/>
<polygon fill="#63b8ff" stroke="#63b8ff" points="990.17,-281.08 981.86,-287.66 992.46,-287.69 990.17,-281.08"/>
</a>
</g>
</g>
<!-- Node4 -->
<g id="Node000004" class="node">
<title>Node4</title>
<g id="a_Node000004"><a xlink:href="structllvm_1_1ilist__node__traits.html" target="_top" xlink:title=" ">
<polygon fill="white" stroke="#666666" points="776,-384.81 643.75,-384.81 643.75,-365.56 776,-365.56 776,-384.81"/>
<text xml:space="preserve" text-anchor="middle" x="709.88" y="-371.31" font-family="Helvetica,sans-Serif" font-size="10.00">llvm::ilist_node_traits&lt; T &gt;</text>
</a>
</g>
</g>
<!-- Node4&#45;&gt;Node3 -->
<g id="edge3_Node000003_Node000004" class="edge">
<title>Node4&#45;&gt;Node3</title>
<g id="a_edge3_Node000003_Node000004"><a xlink:title=" ">
<path fill="none" stroke="#63b8ff" d="M752.87,-361.64C800.17,-346.38 875.95,-321.92 918.3,-308.26"/>
<polygon fill="#63b8ff" stroke="#63b8ff" points="751.95,-358.26 743.51,-364.66 754.1,-364.92 751.95,-358.26"/>
</a>
</g>
</g>
<!-- Node5 -->
<g id="Node000005" class="node">
<title>Node5</title>
<g id="a_Node000005"><a xlink:href="structllvm_1_1ilist__alloc__traits.html" target="_top" xlink:title=" ">
<polygon fill="white" stroke="#666666" points="572.88,-451.81 441.38,-451.81 441.38,-432.56 572.88,-432.56 572.88,-451.81"/>
<text xml:space="preserve" text-anchor="middle" x="507.12" y="-438.31" font-family="Helvetica,sans-Serif" font-size="10.00">llvm::ilist_alloc_traits&lt; T &gt;</text>
</a>
</g>
</g>
<!-- Node5&#45;&gt;Node4 -->
<g id="edge4_Node000004_Node000005" class="edge">
<title>Node5&#45;&gt;Node4</title>
<g id="a_edge4_Node000004_Node000005"><a xlink:title=" ">
<path fill="none" stroke="#63b8ff" d="M551.26,-428.74C560.04,-425.95 569.2,-423.01 577.75,-420.19 613.07,-408.55 653.52,-394.57 680.04,-385.31"/>
<polygon fill="#63b8ff" stroke="#63b8ff" points="550.34,-425.36 541.86,-431.71 552.45,-432.04 550.34,-425.36"/>
</a>
</g>
</g>
<!-- Node6 -->
<g id="Node000006" class="node">
<title>Node6</title>
<g id="a_Node000006"><a xlink:href="structllvm_1_1ilist__alloc__traits.html" target="_top" xlink:title="Use delete by default for iplist and ilist.">
<polygon fill="white" stroke="#666666" points="245.62,-460.44 138.12,-460.44 138.12,-429.94 245.62,-429.94 245.62,-460.44"/>
<text xml:space="preserve" text-anchor="start" x="146.12" y="-446.94" font-family="Helvetica,sans-Serif" font-size="10.00">llvm::ilist_alloc_traits</text>
<text xml:space="preserve" text-anchor="middle" x="191.88" y="-435.69" font-family="Helvetica,sans-Serif" font-size="10.00">&lt; NodeTy &gt;</text>
</a>
</g>
</g>
<!-- Node6&#45;&gt;Node5 -->
<g id="edge5_Node000005_Node000006" class="edge">
<title>Node6&#45;&gt;Node5</title>
<g id="a_edge5_Node000005_Node000006"><a xlink:title=" ">
<path fill="none" stroke="orange" stroke-dasharray="5,2" d="M257.45,-444.57C311.14,-444.06 387.2,-443.33 441.04,-442.81"/>
<polygon fill="orange" stroke="orange" points="257.49,-441.07 247.53,-444.67 257.56,-448.07 257.49,-441.07"/>
</a>
</g>
<text xml:space="preserve" text-anchor="start" x="337.88" y="-449.05" font-family="Helvetica,sans-Serif" font-size="10.00" fill="grey">&lt; T &gt;</text>
</g>
<!-- Node7 -->
<g id="Node000007" class="node">
<title>Node7</title>
<g id="a_Node000007"><a xlink:href="structllvm_1_1ilist__callback__traits.html" target="_top" xlink:title=" ">
<polygon fill="white" stroke="#666666" points="555.25,-411.44 459,-411.44 459,-380.94 555.25,-380.94 555.25,-411.44"/>
<text xml:space="preserve" text-anchor="start" x="467" y="-397.94" font-family="Helvetica,sans-Serif" font-size="10.00">llvm::ilist_callback</text>
<text xml:space="preserve" text-anchor="middle" x="507.12" y="-386.69" font-family="Helvetica,sans-Serif" font-size="10.00">_traits&lt; T &gt;</text>
</a>
</g>
</g>
<!-- Node7&#45;&gt;Node4 -->
<g id="edge6_Node000004_Node000007" class="edge">
<title>Node7&#45;&gt;Node4</title>
<g id="a_edge6_Node000004_Node000007"><a xlink:title=" ">
<path fill="none" stroke="#63b8ff" d="M567.12,-390.02C591.08,-387.51 618.84,-384.61 643.42,-382.04"/>
<polygon fill="#63b8ff" stroke="#63b8ff" points="566.79,-386.53 557.21,-391.06 567.52,-393.5 566.79,-386.53"/>
</a>
</g>
</g>
<!-- Node8 -->
<g id="Node000008" class="node">
<title>Node8</title>
<g id="a_Node000008"><a xlink:href="structllvm_1_1ilist__callback__traits.html" target="_top" xlink:title="Callbacks do nothing by default in iplist and ilist.">
<polygon fill="white" stroke="#666666" points="240,-411.44 143.75,-411.44 143.75,-380.94 240,-380.94 240,-411.44"/>
<text xml:space="preserve" text-anchor="start" x="151.75" y="-397.94" font-family="Helvetica,sans-Serif" font-size="10.00">llvm::ilist_callback</text>
<text xml:space="preserve" text-anchor="middle" x="191.88" y="-386.69" font-family="Helvetica,sans-Serif" font-size="10.00">_traits&lt; NodeTy &gt;</text>
</a>
</g>
</g>
<!-- Node8&#45;&gt;Node7 -->
<g id="edge7_Node000007_Node000008" class="edge">
<title>Node8&#45;&gt;Node7</title>
<g id="a_edge7_Node000007_Node000008"><a xlink:title=" ">
<path fill="none" stroke="orange" stroke-dasharray="5,2" d="M251.61,-396.19C311.47,-396.19 403.17,-396.19 458.62,-396.19"/>
<polygon fill="orange" stroke="orange" points="251.96,-392.69 241.96,-396.19 251.96,-399.69 251.96,-392.69"/>
</a>
</g>
<text xml:space="preserve" text-anchor="start" x="337.88" y="-400.94" font-family="Helvetica,sans-Serif" font-size="10.00" fill="grey">&lt; T &gt;</text>
</g>
<!-- Node9 -->
<g id="Node000009" class="node">
<title>Node9</title>
<g id="a_Node000009"><a xlink:href="structllvm_1_1ilist__node__traits.html" target="_top" xlink:title="A fragment for template traits for intrusive list that provides default node related operations.">
<polygon fill="white" stroke="#666666" points="561.25,-362.44 453,-362.44 453,-331.94 561.25,-331.94 561.25,-362.44"/>
<text xml:space="preserve" text-anchor="start" x="461" y="-348.94" font-family="Helvetica,sans-Serif" font-size="10.00">llvm::ilist_node_traits</text>
<text xml:space="preserve" text-anchor="middle" x="507.12" y="-337.69" font-family="Helvetica,sans-Serif" font-size="10.00">&lt; NodeTy &gt;</text>
</a>
</g>
</g>
<!-- Node9&#45;&gt;Node4 -->
<g id="edge8_Node000004_Node000009" class="edge">
<title>Node9&#45;&gt;Node4</title>
<g id="a_edge8_Node000004_Node000009"><a xlink:title=" ">
<path fill="none" stroke="orange" stroke-dasharray="5,2" d="M572.81,-355.69C590.02,-358 608.6,-360.53 625.75,-362.94 631.53,-363.75 637.53,-364.61 643.54,-365.48"/>
<polygon fill="orange" stroke="orange" points="573.6,-352.27 563.22,-354.42 572.67,-359.21 573.6,-352.27"/>
</a>
</g>
<text xml:space="preserve" text-anchor="start" x="598.75" y="-367.69" font-family="Helvetica,sans-Serif" font-size="10.00" fill="grey">&lt; T &gt;</text>
</g>
<!-- Node10 -->
<g id="Node000010" class="node">
<title>Node10</title>
<g id="a_Node000010"><a xlink:href="structllvm_1_1ilist__alloc__traits.html" target="_top" xlink:title="Use delete by default for iplist and ilist.">
<polygon fill="white" stroke="#666666" points="245.62,-360.44 138.12,-360.44 138.12,-329.94 245.62,-329.94 245.62,-360.44"/>
<text xml:space="preserve" text-anchor="start" x="146.12" y="-346.94" font-family="Helvetica,sans-Serif" font-size="10.00">llvm::ilist_alloc_traits</text>
<text xml:space="preserve" text-anchor="middle" x="191.88" y="-335.69" font-family="Helvetica,sans-Serif" font-size="10.00">&lt; NodeTy &gt;</text>
</a>
</g>
</g>
<!-- Node10&#45;&gt;Node9 -->
<g id="edge9_Node000009_Node000010" class="edge">
<title>Node10&#45;&gt;Node9</title>
<g id="a_edge9_Node000009_Node000010"><a xlink:title=" ">
<path fill="none" stroke="#63b8ff" d="M257.07,-348.44C265.21,-348.75 273.42,-349.01 281.25,-349.19 342.23,-350.57 357.5,-349.89 418.5,-349.19 429.61,-349.06 441.51,-348.85 452.84,-348.6"/>
<polygon fill="#63b8ff" stroke="#63b8ff" points="257.32,-344.94 247.18,-348.03 257.03,-351.94 257.32,-344.94"/>
</a>
</g>
</g>
<!-- Node13 -->
<g id="Node000013" class="node">
<title>Node13</title>
<g id="a_Node000013"><a xlink:href="structllvm_1_1ilist__node__traits.html" target="_top" xlink:title="A fragment for template traits for intrusive list that provides default node related operations.">
<polygon fill="white" stroke="#666666" points="561.25,-313.44 453,-313.44 453,-282.94 561.25,-282.94 561.25,-313.44"/>
<text xml:space="preserve" text-anchor="start" x="461" y="-299.94" font-family="Helvetica,sans-Serif" font-size="10.00">llvm::ilist_node_traits</text>
<text xml:space="preserve" text-anchor="middle" x="507.12" y="-288.69" font-family="Helvetica,sans-Serif" font-size="10.00">&lt; NodeTy &gt;</text>
</a>
</g>
</g>
<!-- Node10&#45;&gt;Node13 -->
<g id="edge13_Node000013_Node000010" class="edge">
<title>Node10&#45;&gt;Node13</title>
<g id="a_edge13_Node000013_Node000010"><a xlink:title=" ">
<path fill="none" stroke="#63b8ff" d="M257.19,-335.54C314.91,-326.88 398.63,-314.32 452.73,-306.2"/>
<polygon fill="#63b8ff" stroke="#63b8ff" points="256.88,-332.05 247.51,-336.99 257.92,-338.97 256.88,-332.05"/>
</a>
</g>
</g>
<!-- Node11 -->
<g id="Node000011" class="node">
<title>Node11</title>
<g id="a_Node000011"><a xlink:href="structllvm_1_1ilist__callback__traits.html" target="_top" xlink:title="Callbacks do nothing by default in iplist and ilist.">
<polygon fill="white" stroke="#666666" points="240,-307.44 143.75,-307.44 143.75,-276.94 240,-276.94 240,-307.44"/>
<text xml:space="preserve" text-anchor="start" x="151.75" y="-293.94" font-family="Helvetica,sans-Serif" font-size="10.00">llvm::ilist_callback</text>
<text xml:space="preserve" text-anchor="middle" x="191.88" y="-282.69" font-family="Helvetica,sans-Serif" font-size="10.00">_traits&lt; NodeTy &gt;</text>
</a>
</g>
</g>
<!-- Node11&#45;&gt;Node9 -->
<g id="edge10_Node000009_Node000011" class="edge">
<title>Node11&#45;&gt;Node9</title>
<g id="a_edge10_Node000009_Node000011"><a xlink:title=" ">
<path fill="none" stroke="#63b8ff" d="M251.58,-302.5C309.32,-312.64 396.7,-327.98 452.58,-337.79"/>
<polygon fill="#63b8ff" stroke="#63b8ff" points="252.4,-299.09 241.94,-300.8 251.19,-305.98 252.4,-299.09"/>
</a>
</g>
</g>
<!-- Node11&#45;&gt;Node13 -->
<g id="edge14_Node000013_Node000011" class="edge">
<title>Node11&#45;&gt;Node13</title>
<g id="a_edge14_Node000013_Node000011"><a xlink:title=" ">
<path fill="none" stroke="#63b8ff" d="M251.95,-293.32C309.68,-294.43 396.81,-296.1 452.58,-297.16"/>
<polygon fill="#63b8ff" stroke="#63b8ff" points="252.03,-289.82 241.96,-293.13 251.9,-296.82 252.03,-289.82"/>
</a>
</g>
</g>
<!-- Node12 -->
<g id="Node000012" class="node">
<title>Node12</title>
<g id="a_Node000012"><a xlink:href="structllvm_1_1ilist__traits.html" target="_top" xlink:title="Template traits for intrusive list.">
<polygon fill="white" stroke="#666666" points="750.88,-313.44 668.88,-313.44 668.88,-282.94 750.88,-282.94 750.88,-313.44"/>
<text xml:space="preserve" text-anchor="start" x="676.88" y="-299.94" font-family="Helvetica,sans-Serif" font-size="10.00">llvm::ilist_traits</text>
<text xml:space="preserve" text-anchor="middle" x="709.88" y="-288.69" font-family="Helvetica,sans-Serif" font-size="10.00">&lt; NodeTy &gt;</text>
</a>
</g>
</g>
<!-- Node12&#45;&gt;Node3 -->
<g id="edge11_Node000003_Node000012" class="edge">
<title>Node12&#45;&gt;Node3</title>
<g id="a_edge11_Node000003_Node000012"><a xlink:title=" ">
<path fill="none" stroke="orange" stroke-dasharray="5,2" d="M762.67,-298.19C802.46,-298.19 857.18,-298.19 897.11,-298.19"/>
<polygon fill="orange" stroke="orange" points="762.87,-294.69 752.87,-298.19 762.87,-301.69 762.87,-294.69"/>
</a>
</g>
<text xml:space="preserve" text-anchor="start" x="820.62" y="-302.94" font-family="Helvetica,sans-Serif" font-size="10.00" fill="grey">&lt; T &gt;</text>
</g>
<!-- Node13&#45;&gt;Node12 -->
<g id="edge12_Node000012_Node000013" class="edge">
<title>Node13&#45;&gt;Node12</title>
<g id="a_edge12_Node000012_Node000013"><a xlink:title=" ">
<path fill="none" stroke="#63b8ff" d="M572.97,-298.19C604.4,-298.19 641.16,-298.19 668.52,-298.19"/>
<polygon fill="#63b8ff" stroke="#63b8ff" points="573.17,-294.69 563.17,-298.19 573.17,-301.69 573.17,-294.69"/>
</a>
</g>
</g>
<!-- Node14 -->
<g id="Node000014" class="node">
<title>Node14</title>
<g id="a_Node000014"><a xlink:href="classllvm_1_1simple__ilist.html" target="_top" xlink:title=" ">
<polygon fill="white" stroke="#666666" points="994.88,-227.44 906.12,-227.44 906.12,-196.94 994.88,-196.94 994.88,-227.44"/>
<text xml:space="preserve" text-anchor="start" x="914.12" y="-213.94" font-family="Helvetica,sans-Serif" font-size="10.00">llvm::simple_ilist</text>
<text xml:space="preserve" text-anchor="middle" x="950.5" y="-202.69" font-family="Helvetica,sans-Serif" font-size="10.00">&lt; T, Options... &gt;</text>
</a>
</g>
</g>
<!-- Node14&#45;&gt;Node2 -->
<g id="edge15_Node000002_Node000014" class="edge">
<title>Node14&#45;&gt;Node2</title>
<g id="a_edge15_Node000002_Node000014"><a xlink:title=" ">
<path fill="none" stroke="#8b1a1a" d="M1006.64,-212.19C1044.66,-212.19 1095.35,-212.19 1135.21,-212.19"/>
<polygon fill="#8b1a1a" stroke="#8b1a1a" points="1006.78,-208.69 996.78,-212.19 1006.78,-215.69 1006.78,-208.69"/>
</a>
</g>
</g>
<!-- Node15 -->
<g id="Node000015" class="node">
<title>Node15</title>
<g id="a_Node000015"><a xlink:href="classllvm_1_1ilist__base.html" target="_top" xlink:title=" ">
<polygon fill="white" stroke="#666666" points="577.75,-261.06 436.5,-261.06 436.5,-219.31 577.75,-219.31 577.75,-261.06"/>
<text xml:space="preserve" text-anchor="start" x="444.5" y="-247.56" font-family="Helvetica,sans-Serif" font-size="10.00">ilist_detail::compute</text>
<text xml:space="preserve" text-anchor="start" x="444.5" y="-236.31" font-family="Helvetica,sans-Serif" font-size="10.00">_node_options&lt; T, Options...</text>
<text xml:space="preserve" text-anchor="middle" x="507.12" y="-225.06" font-family="Helvetica,sans-Serif" font-size="10.00"> &gt;::type::list_base_type</text>
</a>
</g>
</g>
<!-- Node15&#45;&gt;Node14 -->
<g id="edge16_Node000014_Node000015" class="edge">
<title>Node15&#45;&gt;Node14</title>
<g id="a_edge16_Node000014_Node000015"><a xlink:title=" ">
<path fill="none" stroke="#8b1a1a" d="M589.25,-244.5C663.17,-247.04 775.14,-247.41 871.25,-233.19 882.66,-231.5 894.79,-228.74 906.01,-225.77"/>
<polygon fill="#8b1a1a" stroke="#8b1a1a" points="589.81,-241.02 579.69,-244.15 589.55,-248.02 589.81,-241.02"/>
</a>
</g>
</g>
<!-- Node20 -->
<g id="Node000020" class="node">
<title>Node20</title>
<g id="a_Node000020"><a xlink:href="classllvm_1_1simple__ilist.html" target="_top" xlink:title="A simple intrusive list implementation.">
<polygon fill="white" stroke="#666666" points="754.25,-227.44 665.5,-227.44 665.5,-196.94 754.25,-196.94 754.25,-227.44"/>
<text xml:space="preserve" text-anchor="start" x="673.5" y="-213.94" font-family="Helvetica,sans-Serif" font-size="10.00">llvm::simple_ilist</text>
<text xml:space="preserve" text-anchor="middle" x="709.88" y="-202.69" font-family="Helvetica,sans-Serif" font-size="10.00">&lt; T, Options &gt;</text>
</a>
</g>
</g>
<!-- Node15&#45;&gt;Node20 -->
<g id="edge23_Node000020_Node000015" class="edge">
<title>Node15&#45;&gt;Node20</title>
<g id="a_edge23_Node000020_Node000015"><a xlink:title=" ">
<path fill="none" stroke="#8b1a1a" d="M589.42,-228.85C615.34,-225.24 643.01,-221.38 665.19,-218.28"/>
<polygon fill="#8b1a1a" stroke="#8b1a1a" points="588.98,-225.38 579.55,-230.23 589.94,-232.31 588.98,-225.38"/>
</a>
</g>
</g>
<!-- Node16 -->
<g id="Node000016" class="node">
<title>Node16</title>
<g id="a_Node000016"><a xlink:href="classllvm_1_1ilist__base.html" target="_top" xlink:title="Implementations of list algorithms using ilist_node_base.">
<polygon fill="white" stroke="#666666" points="263.25,-255.44 120.5,-255.44 120.5,-224.94 263.25,-224.94 263.25,-255.44"/>
<text xml:space="preserve" text-anchor="start" x="128.5" y="-241.94" font-family="Helvetica,sans-Serif" font-size="10.00">llvm::ilist_base&lt; Enable</text>
<text xml:space="preserve" text-anchor="middle" x="191.88" y="-230.69" font-family="Helvetica,sans-Serif" font-size="10.00">SentinelTracking, ParentTy &gt;</text>
</a>
</g>
</g>
<!-- Node16&#45;&gt;Node15 -->
<g id="edge17_Node000015_Node000016" class="edge">
<title>Node16&#45;&gt;Node15</title>
<g id="a_edge17_Node000015_Node000016"><a xlink:title=" ">
<path fill="none" stroke="orange" stroke-dasharray="5,2" d="M275.02,-240.19C325.14,-240.19 388.53,-240.19 436.23,-240.19"/>
<polygon fill="orange" stroke="orange" points="275.08,-236.69 265.08,-240.19 275.08,-243.69 275.08,-236.69"/>
</a>
</g>
<text xml:space="preserve" text-anchor="start" x="290.25" y="-260.19" font-family="Helvetica,sans-Serif" font-size="10.00" fill="grey">&lt; enable_sentinel_tracking,</text>
<text xml:space="preserve" text-anchor="start" x="290.25" y="-244.94" font-family="Helvetica,sans-Serif" font-size="10.00" fill="grey">   parent_ty &gt;</text>
</g>
<!-- Node17 -->
<g id="Node000017" class="node">
<title>Node17</title>
<g id="a_Node000017"><a xlink:href="structllvm_1_1ilist__detail_1_1SpecificNodeAccess.html" target="_top" xlink:title=" ">
<polygon fill="white" stroke="#666666" points="577.75,-201.31 436.5,-201.31 436.5,-137.06 577.75,-137.06 577.75,-201.31"/>
<text xml:space="preserve" text-anchor="start" x="444.5" y="-187.81" font-family="Helvetica,sans-Serif" font-size="10.00">llvm::ilist_detail</text>
<text xml:space="preserve" text-anchor="start" x="444.5" y="-176.56" font-family="Helvetica,sans-Serif" font-size="10.00">::SpecificNodeAccess</text>
<text xml:space="preserve" text-anchor="start" x="444.5" y="-165.31" font-family="Helvetica,sans-Serif" font-size="10.00">&lt; ilist_detail::compute</text>
<text xml:space="preserve" text-anchor="start" x="444.5" y="-154.06" font-family="Helvetica,sans-Serif" font-size="10.00">_node_options&lt; T, Options...</text>
<text xml:space="preserve" text-anchor="middle" x="507.12" y="-142.81" font-family="Helvetica,sans-Serif" font-size="10.00"> &gt;::type &gt;</text>
</a>
</g>
</g>
<!-- Node17&#45;&gt;Node14 -->
<g id="edge18_Node000014_Node000017" class="edge">
<title>Node17&#45;&gt;Node14</title>
<g id="a_edge18_Node000014_Node000017"><a xlink:title=" ">
<path fill="none" stroke="#8b1a1a" d="M589.58,-173.55C642.73,-176.75 713.58,-181.67 776,-188.19 820.31,-192.82 870.72,-200.01 905.74,-205.31"/>
<polygon fill="#8b1a1a" stroke="#8b1a1a" points="589.88,-170.06 579.69,-172.97 589.46,-177.05 589.88,-170.06"/>
</a>
</g>
</g>
<!-- Node17&#45;&gt;Node20 -->
<g id="edge24_Node000020_Node000017" class="edge">
<title>Node17&#45;&gt;Node20</title>
<g id="a_edge24_Node000020_Node000017"><a xlink:title=" ">
<path fill="none" stroke="#8b1a1a" d="M589.07,-186.53C615.09,-192.1 642.91,-198.06 665.19,-202.83"/>
<polygon fill="#8b1a1a" stroke="#8b1a1a" points="590.05,-183.16 579.54,-184.49 588.58,-190 590.05,-183.16"/>
</a>
</g>
</g>
<!-- Node18 -->
<g id="Node000018" class="node">
<title>Node18</title>
<g id="a_Node000018"><a xlink:href="structllvm_1_1ilist__detail_1_1NodeAccess.html" target="_top" xlink:title="An access class for ilist_node private API.">
<polygon fill="white" stroke="#666666" points="83.5,-173.44 0,-173.44 0,-142.94 83.5,-142.94 83.5,-173.44"/>
<text xml:space="preserve" text-anchor="start" x="8" y="-159.94" font-family="Helvetica,sans-Serif" font-size="10.00">llvm::ilist_detail</text>
<text xml:space="preserve" text-anchor="middle" x="41.75" y="-148.69" font-family="Helvetica,sans-Serif" font-size="10.00">::NodeAccess</text>
</a>
</g>
</g>
<!-- Node18&#45;&gt;Node17 -->
<g id="edge19_Node000017_Node000018" class="edge">
<title>Node18&#45;&gt;Node17</title>
<g id="a_edge19_Node000017_Node000018"><a xlink:title=" ">
<path fill="none" stroke="#63b8ff" d="M95.08,-161.3C143.38,-164 217.13,-167.71 281.25,-169.19 333.16,-170.39 391.83,-170.34 436.22,-170.02"/>
<polygon fill="#63b8ff" stroke="#63b8ff" points="95.36,-157.81 85.18,-160.74 94.96,-164.8 95.36,-157.81"/>
</a>
</g>
</g>
<!-- Node19 -->
<g id="Node000019" class="node">
<title>Node19</title>
<g id="a_Node000019"><a xlink:href="structllvm_1_1ilist__detail_1_1SpecificNodeAccess.html" target="_top" xlink:title=" ">
<polygon fill="white" stroke="#666666" points="248.62,-148.06 135.12,-148.06 135.12,-106.31 248.62,-106.31 248.62,-148.06"/>
<text xml:space="preserve" text-anchor="start" x="143.12" y="-134.56" font-family="Helvetica,sans-Serif" font-size="10.00">llvm::ilist_detail</text>
<text xml:space="preserve" text-anchor="start" x="143.12" y="-123.31" font-family="Helvetica,sans-Serif" font-size="10.00">::SpecificNodeAccess</text>
<text xml:space="preserve" text-anchor="middle" x="191.88" y="-112.06" font-family="Helvetica,sans-Serif" font-size="10.00">&lt; OptionsT &gt;</text>
</a>
</g>
</g>
<!-- Node18&#45;&gt;Node19 -->
<g id="edge21_Node000019_Node000018" class="edge">
<title>Node18&#45;&gt;Node19</title>
<g id="a_edge21_Node000019_Node000018"><a xlink:title=" ">
<path fill="none" stroke="#63b8ff" d="M94.73,-147.31C107.73,-144.59 121.72,-141.66 134.89,-138.91"/>
<polygon fill="#63b8ff" stroke="#63b8ff" points="94.17,-143.85 85.1,-149.33 95.6,-150.7 94.17,-143.85"/>
</a>
</g>
</g>
<!-- Node19&#45;&gt;Node17 -->
<g id="edge20_Node000017_Node000019" class="edge">
<title>Node19&#45;&gt;Node17</title>
<g id="a_edge20_Node000017_Node000019"><a xlink:title=" ">
<path fill="none" stroke="orange" stroke-dasharray="5,2" d="M260.19,-116.01C305.61,-110.76 366.52,-108.2 418.5,-121.44 431.43,-124.73 444.51,-130.37 456.47,-136.63"/>
<polygon fill="orange" stroke="orange" points="259.99,-112.51 250.49,-117.21 260.85,-119.46 259.99,-112.51"/>
</a>
</g>
<text xml:space="preserve" text-anchor="start" x="284.25" y="-156.69" font-family="Helvetica,sans-Serif" font-size="10.00" fill="grey">&lt; ilist_detail::compute</text>
<text xml:space="preserve" text-anchor="start" x="284.25" y="-141.44" font-family="Helvetica,sans-Serif" font-size="10.00" fill="grey">  _node_options&lt; T, Options...</text>
<text xml:space="preserve" text-anchor="start" x="284.25" y="-126.19" font-family="Helvetica,sans-Serif" font-size="10.00" fill="grey">   &gt;::type &gt;</text>
</g>
<!-- Node20&#45;&gt;Node14 -->
<g id="edge22_Node000014_Node000020" class="edge">
<title>Node20&#45;&gt;Node14</title>
<g id="a_edge22_Node000014_Node000020"><a xlink:title=" ">
<path fill="none" stroke="orange" stroke-dasharray="5,2" d="M765.94,-212.19C808.52,-212.19 866.66,-212.19 906.01,-212.19"/>
<polygon fill="orange" stroke="orange" points="766.16,-208.69 756.16,-212.19 766.16,-215.69 766.16,-208.69"/>
</a>
</g>
<text xml:space="preserve" text-anchor="start" x="797" y="-216.94" font-family="Helvetica,sans-Serif" font-size="10.00" fill="grey">&lt; T, Options... &gt;</text>
</g>
<!-- Node21 -->
<g id="Node000021" class="node">
<title>Node21</title>
<g id="a_Node000021"><a xlink:href="classllvm_1_1iplist__impl.html" target="_top" xlink:title="A wrapper around an intrusive list with callbacks and non&#45;intrusive ownership.">
<polygon fill="white" stroke="#666666" points="1011.75,-146.44 889.25,-146.44 889.25,-115.94 1011.75,-115.94 1011.75,-146.44"/>
<text xml:space="preserve" text-anchor="start" x="897.25" y="-132.94" font-family="Helvetica,sans-Serif" font-size="10.00">llvm::iplist_impl&lt;</text>
<text xml:space="preserve" text-anchor="middle" x="950.5" y="-121.69" font-family="Helvetica,sans-Serif" font-size="10.00"> IntrusiveListT, TraitsT &gt;</text>
</a>
</g>
</g>
<!-- Node21&#45;&gt;Node2 -->
<g id="edge25_Node000002_Node000021" class="edge">
<title>Node21&#45;&gt;Node2</title>
<g id="a_edge25_Node000002_Node000021"><a xlink:title=" ">
<path fill="none" stroke="orange" stroke-dasharray="5,2" d="M1023.36,-137.67C1053.19,-141.93 1087.73,-148.94 1117.5,-160.44 1136.81,-167.9 1156.5,-180.14 1171.74,-190.84"/>
<polygon fill="orange" stroke="orange" points="1024.05,-134.23 1013.67,-136.37 1023.12,-141.17 1024.05,-134.23"/>
</a>
</g>
<text xml:space="preserve" text-anchor="start" x="1032.75" y="-195.69" font-family="Helvetica,sans-Serif" font-size="10.00" fill="grey">&lt; simple_ilist&lt; T,</text>
<text xml:space="preserve" text-anchor="start" x="1032.75" y="-180.44" font-family="Helvetica,sans-Serif" font-size="10.00" fill="grey">   Options... &gt;, ilist</text>
<text xml:space="preserve" text-anchor="start" x="1032.75" y="-165.19" font-family="Helvetica,sans-Serif" font-size="10.00" fill="grey">  _traits&lt; T &gt; &gt;</text>
</g>
<!-- Node22 -->
<g id="Node000022" class="node">
<title>Node22</title>
<g id="a_Node000022"><a xlink:href="classTraitsT.html" target="_top" xlink:title=" ">
<polygon fill="white" stroke="#666666" points="733.25,-140.81 686.5,-140.81 686.5,-121.56 733.25,-121.56 733.25,-140.81"/>
<text xml:space="preserve" text-anchor="middle" x="709.88" y="-127.31" font-family="Helvetica,sans-Serif" font-size="10.00">TraitsT</text>
</a>
</g>
</g>
<!-- Node22&#45;&gt;Node21 -->
<g id="edge26_Node000021_Node000022" class="edge">
<title>Node22&#45;&gt;Node21</title>
<g id="a_edge26_Node000021_Node000022"><a xlink:title=" ">
<path fill="none" stroke="#63b8ff" d="M744.59,-131.19C782.01,-131.19 843.15,-131.19 888.92,-131.19"/>
<polygon fill="#63b8ff" stroke="#63b8ff" points="744.84,-127.69 734.84,-131.19 744.84,-134.69 744.84,-127.69"/>
</a>
</g>
</g>
<!-- Node23 -->
<g id="Node000023" class="node">
<title>Node23</title>
<g id="a_Node000023"><a xlink:href="classIntrusiveListT.html" target="_top" xlink:title=" ">
<polygon fill="white" stroke="#666666" points="747.5,-103.81 672.25,-103.81 672.25,-84.56 747.5,-84.56 747.5,-103.81"/>
<text xml:space="preserve" text-anchor="middle" x="709.88" y="-90.31" font-family="Helvetica,sans-Serif" font-size="10.00">IntrusiveListT</text>
</a>
</g>
</g>
<!-- Node23&#45;&gt;Node21 -->
<g id="edge27_Node000021_Node000023" class="edge">
<title>Node23&#45;&gt;Node21</title>
<g id="a_edge27_Node000021_Node000023"><a xlink:title=" ">
<path fill="none" stroke="#8b1a1a" d="M759.04,-101.66C796.55,-107.47 848.84,-115.58 889.15,-121.83"/>
<polygon fill="#8b1a1a" stroke="#8b1a1a" points="759.81,-98.24 749.39,-100.16 758.74,-105.15 759.81,-98.24"/>
</a>
</g>
</g>
<!-- Node25 -->
<g id="Node000025" class="node">
<title>Node25</title>
<g id="a_Node000025"><a xlink:href="classllvm_1_1iplist.html" target="_top" xlink:title=" ">
<polygon fill="white" stroke="#666666" points="2059.62,-574.81 1935.62,-574.81 1935.62,-555.56 2059.62,-555.56 2059.62,-574.81"/>
<text xml:space="preserve" text-anchor="middle" x="1997.62" y="-561.31" font-family="Helvetica,sans-Serif" font-size="10.00">llvm::iterator&lt; AliasSet &gt;</text>
</a>
</g>
</g>
<!-- Node24&#45;&gt;Node25 -->
<g id="edge29_Node000024_Node000025" class="edge">
<title>Node24&#45;&gt;Node25</title>
<g id="a_edge29_Node000024_Node000025"><a xlink:title=" ">
<path fill="none" stroke="orange" stroke-dasharray="5,2" d="M1686.91,-304.74C1688.58,-355.58 1700.48,-483.24 1776.25,-543.19 1821.78,-579.22 1890.27,-580.4 1938.8,-575.3"/>
<polygon fill="orange" stroke="orange" points="1690.41,-304.74 1686.71,-294.82 1683.42,-304.89 1690.41,-304.74"/>
</a>
</g>
<text xml:space="preserve" text-anchor="start" x="1798.38" y="-582.25" font-family="Helvetica,sans-Serif" font-size="10.00" fill="grey">&lt; AliasSet &gt;::iterator</text>
</g>
<!-- Node26 -->
<g id="Node000026" class="node">
<title>Node26</title>
<g id="a_Node000026"><a xlink:href="classllvm_1_1iplist.html" target="_top" xlink:title=" ">
<polygon fill="white" stroke="#666666" points="2047.25,-529.44 1948,-529.44 1948,-498.94 2047.25,-498.94 2047.25,-529.44"/>
<text xml:space="preserve" text-anchor="start" x="1956" y="-515.94" font-family="Helvetica,sans-Serif" font-size="10.00">llvm::const_iterator</text>
<text xml:space="preserve" text-anchor="middle" x="1997.62" y="-504.69" font-family="Helvetica,sans-Serif" font-size="10.00">&lt; AliasSet &gt;</text>
</a>
</g>
</g>
<!-- Node24&#45;&gt;Node26 -->
<g id="edge30_Node000024_Node000026" class="edge">
<title>Node24&#45;&gt;Node26</title>
<g id="a_edge30_Node000024_Node000026"><a xlink:title=" ">
<path fill="none" stroke="orange" stroke-dasharray="5,2" d="M1689.25,-304.14C1695.48,-346.28 1715.82,-441.11 1776.25,-486.19 1789.72,-496.24 1886.95,-505.58 1947.68,-510.52"/>
<polygon fill="orange" stroke="orange" points="1692.73,-303.81 1687.94,-294.37 1685.8,-304.74 1692.73,-303.81"/>
</a>
</g>
<text xml:space="preserve" text-anchor="start" x="1801.38" y="-526.93" font-family="Helvetica,sans-Serif" font-size="10.00" fill="grey">&lt; AliasSet &gt;::const</text>
<text xml:space="preserve" text-anchor="start" x="1801.38" y="-511.68" font-family="Helvetica,sans-Serif" font-size="10.00" fill="grey">  _iterator</text>
</g>
<!-- Node27 -->
<g id="Node000027" class="node">
<title>Node27</title>
<g id="a_Node000027"><a xlink:href="classllvm_1_1iplist.html" target="_top" xlink:title=" ">
<polygon fill="white" stroke="#666666" points="2054.75,-480.44 1940.5,-480.44 1940.5,-449.94 2054.75,-449.94 2054.75,-480.44"/>
<text xml:space="preserve" text-anchor="start" x="1948.5" y="-466.94" font-family="Helvetica,sans-Serif" font-size="10.00">llvm::iterator&lt; IVStride</text>
<text xml:space="preserve" text-anchor="middle" x="1997.62" y="-455.69" font-family="Helvetica,sans-Serif" font-size="10.00">Use &gt;</text>
</a>
</g>
</g>
<!-- Node24&#45;&gt;Node27 -->
<g id="edge31_Node000024_Node000027" class="edge">
<title>Node24&#45;&gt;Node27</title>
<g id="a_edge31_Node000024_Node000027"><a xlink:title=" ">
<path fill="none" stroke="orange" stroke-dasharray="5,2" d="M1691.77,-304.2C1701.43,-339.59 1726.24,-410.42 1776.25,-443.19 1802.34,-460.29 1883.88,-464.55 1940.1,-465.38"/>
<polygon fill="orange" stroke="orange" points="1695.22,-303.56 1689.34,-294.75 1688.44,-305.3 1695.22,-303.56"/>
</a>
</g>
<text xml:space="preserve" text-anchor="start" x="1789.75" y="-469.3" font-family="Helvetica,sans-Serif" font-size="10.00" fill="grey">&lt; IVStrideUse &gt;::iterator</text>
</g>
<!-- Node28 -->
<g id="Node000028" class="node">
<title>Node28</title>
<g id="a_Node000028"><a xlink:href="classllvm_1_1iplist.html" target="_top" xlink:title=" ">
<polygon fill="white" stroke="#666666" points="2047.25,-431.44 1948,-431.44 1948,-400.94 2047.25,-400.94 2047.25,-431.44"/>
<text xml:space="preserve" text-anchor="start" x="1956" y="-417.94" font-family="Helvetica,sans-Serif" font-size="10.00">llvm::const_iterator</text>
<text xml:space="preserve" text-anchor="middle" x="1997.62" y="-406.69" font-family="Helvetica,sans-Serif" font-size="10.00">&lt; IVStrideUse &gt;</text>
</a>
</g>
</g>
<!-- Node24&#45;&gt;Node28 -->
<g id="edge32_Node000024_Node000028" class="edge">
<title>Node24&#45;&gt;Node28</title>
<g id="a_edge32_Node000024_Node000028"><a xlink:title=" ">
<path fill="none" stroke="orange" stroke-dasharray="5,2" d="M1697.55,-302.9C1712.01,-327.19 1740.09,-367.64 1776.25,-387.19 1791,-395.16 1887.24,-405.67 1947.56,-411.6"/>
<polygon fill="orange" stroke="orange" points="1700.64,-301.26 1692.64,-294.32 1694.57,-304.74 1700.64,-301.26"/>
</a>
</g>
<text xml:space="preserve" text-anchor="start" x="1792.75" y="-427.45" font-family="Helvetica,sans-Serif" font-size="10.00" fill="grey">&lt; IVStrideUse &gt;::const</text>
<text xml:space="preserve" text-anchor="start" x="1792.75" y="-412.2" font-family="Helvetica,sans-Serif" font-size="10.00" fill="grey">  _iterator</text>
</g>
<!-- Node29 -->
<g id="Node000029" class="node">
<title>Node29</title>
<g id="a_Node000029"><a xlink:href="classllvm_1_1iplist.html" target="_top" xlink:title=" ">
<polygon fill="white" stroke="#666666" points="2066.75,-383.06 1928.5,-383.06 1928.5,-341.31 2066.75,-341.31 2066.75,-383.06"/>
<text xml:space="preserve" text-anchor="start" x="1936.5" y="-369.56" font-family="Helvetica,sans-Serif" font-size="10.00">llvm::iplist&lt; T, Options...</text>
<text xml:space="preserve" text-anchor="start" x="1936.5" y="-358.31" font-family="Helvetica,sans-Serif" font-size="10.00"> &gt;&lt; MachineInstr, ilist</text>
<text xml:space="preserve" text-anchor="middle" x="1997.62" y="-347.06" font-family="Helvetica,sans-Serif" font-size="10.00">_sentinel_tracking&lt; true &gt; &gt;</text>
</a>
</g>
</g>
<!-- Node24&#45;&gt;Node29 -->
<g id="edge33_Node000024_Node000029" class="edge">
<title>Node24&#45;&gt;Node29</title>
<g id="a_edge33_Node000024_Node000029"><a xlink:title=" ">
<path fill="none" stroke="orange" stroke-dasharray="5,2" d="M1716.12,-298.04C1733.28,-306.2 1755.57,-315.9 1776.25,-322.19 1826.1,-337.35 1884.14,-347.6 1928.14,-353.93"/>
<polygon fill="orange" stroke="orange" points="1718.05,-295.09 1707.52,-293.87 1714.99,-301.39 1718.05,-295.09"/>
</a>
</g>
<text xml:space="preserve" text-anchor="start" x="1779.25" y="-370.6" font-family="Helvetica,sans-Serif" font-size="10.00" fill="grey">&lt; MachineInstr, ilist</text>
<text xml:space="preserve" text-anchor="start" x="1779.25" y="-355.35" font-family="Helvetica,sans-Serif" font-size="10.00" fill="grey">  _sentinel_tracking&lt; true &gt; &gt;</text>
</g>
<!-- Node30 -->
<g id="Node000030" class="node">
<title>Node30</title>
<g id="a_Node000030"><a xlink:href="classllvm_1_1iplist.html" target="_top" xlink:title=" ">
<polygon fill="white" stroke="#666666" points="2062.25,-323.44 1933,-323.44 1933,-292.94 2062.25,-292.94 2062.25,-323.44"/>
<text xml:space="preserve" text-anchor="start" x="1941" y="-309.94" font-family="Helvetica,sans-Serif" font-size="10.00">llvm::iplist&lt; T, Options...</text>
<text xml:space="preserve" text-anchor="middle" x="1997.62" y="-298.69" font-family="Helvetica,sans-Serif" font-size="10.00"> &gt;&lt; MachineBasicBlock &gt;</text>
</a>
</g>
</g>
<!-- Node24&#45;&gt;Node30 -->
<g id="edge34_Node000024_Node000030" class="edge">
<title>Node24&#45;&gt;Node30</title>
<g id="a_edge34_Node000024_Node000030"><a xlink:title=" ">
<path fill="none" stroke="orange" stroke-dasharray="5,2" d="M1762.9,-289.33C1814.98,-293.54 1883.25,-299.04 1932.55,-303.02"/>
<polygon fill="orange" stroke="orange" points="1763.47,-285.87 1753.22,-288.55 1762.9,-292.85 1763.47,-285.87"/>
</a>
</g>
<text xml:space="preserve" text-anchor="start" x="1791.25" y="-305.55" font-family="Helvetica,sans-Serif" font-size="10.00" fill="grey">&lt; MachineBasicBlock &gt;</text>
</g>
<!-- Node31 -->
<g id="Node000031" class="node">
<title>Node31</title>
<g id="a_Node000031"><a xlink:href="classllvm_1_1iplist.html" target="_top" xlink:title=" ">
<polygon fill="white" stroke="#666666" points="2047.25,-274.44 1948,-274.44 1948,-243.94 2047.25,-243.94 2047.25,-274.44"/>
<text xml:space="preserve" text-anchor="start" x="1956" y="-260.94" font-family="Helvetica,sans-Serif" font-size="10.00">llvm::const_iterator</text>
<text xml:space="preserve" text-anchor="middle" x="1997.62" y="-249.69" font-family="Helvetica,sans-Serif" font-size="10.00">&lt; SDNode &gt;</text>
</a>
</g>
</g>
<!-- Node24&#45;&gt;Node31 -->
<g id="edge35_Node000024_Node000031" class="edge">
<title>Node24&#45;&gt;Node31</title>
<g id="a_edge35_Node000024_Node000031"><a xlink:title=" ">
<path fill="none" stroke="orange" stroke-dasharray="5,2" d="M1755.07,-271.49C1762.21,-270.52 1769.37,-269.64 1776.25,-268.94 1835.12,-262.97 1903.2,-260.66 1947.93,-259.76"/>
<polygon fill="orange" stroke="orange" points="1754.82,-267.99 1745.42,-272.88 1755.81,-274.92 1754.82,-267.99"/>
</a>
</g>
<text xml:space="preserve" text-anchor="start" x="1783" y="-273.69" font-family="Helvetica,sans-Serif" font-size="10.00" fill="grey">&lt; SDNode &gt;::const_iterator</text>
</g>
<!-- Node32 -->
<g id="Node000032" class="node">
<title>Node32</title>
<g id="a_Node000032"><a xlink:href="classllvm_1_1iplist.html" target="_top" xlink:title=" ">
<polygon fill="white" stroke="#666666" points="2060.38,-225.81 1934.88,-225.81 1934.88,-206.56 2060.38,-206.56 2060.38,-225.81"/>
<text xml:space="preserve" text-anchor="middle" x="1997.62" y="-212.31" font-family="Helvetica,sans-Serif" font-size="10.00">llvm::iterator&lt; SDNode &gt;</text>
</a>
</g>
</g>
<!-- Node24&#45;&gt;Node32 -->
<g id="edge36_Node000024_Node000032" class="edge">
<title>Node24&#45;&gt;Node32</title>
<g id="a_edge36_Node000024_Node000032"><a xlink:title=" ">
<path fill="none" stroke="orange" stroke-dasharray="5,2" d="M1713.15,-267.45C1730.48,-257.88 1753.99,-246.31 1776.25,-239.94 1828.41,-225.01 1889.97,-219.32 1934.75,-217.22"/>
<polygon fill="orange" stroke="orange" points="1711.5,-264.36 1704.53,-272.34 1714.96,-270.45 1711.5,-264.36"/>
</a>
</g>
<text xml:space="preserve" text-anchor="start" x="1797.62" y="-244.69" font-family="Helvetica,sans-Serif" font-size="10.00" fill="grey">&lt; SDNode &gt;::iterator</text>
</g>
<!-- Node33 -->
<g id="Node000033" class="node">
<title>Node33</title>
<g id="a_Node000033"><a xlink:href="classllvm_1_1iplist.html" target="_top" xlink:title=" ">
<polygon fill="white" stroke="#666666" points="2058.88,-188.44 1936.38,-188.44 1936.38,-157.94 2058.88,-157.94 2058.88,-188.44"/>
<text xml:space="preserve" text-anchor="start" x="1944.38" y="-174.94" font-family="Helvetica,sans-Serif" font-size="10.00">llvm::iplist&lt; T, Options...</text>
<text xml:space="preserve" text-anchor="middle" x="1997.62" y="-163.69" font-family="Helvetica,sans-Serif" font-size="10.00"> &gt;&lt; NamedMDNode &gt;</text>
</a>
</g>
</g>
<!-- Node24&#45;&gt;Node33 -->
<g id="edge37_Node000024_Node000033" class="edge">
<title>Node24&#45;&gt;Node33</title>
<g id="a_edge37_Node000024_Node000033"><a xlink:title=" ">
<path fill="none" stroke="orange" stroke-dasharray="5,2" d="M1723.27,-268.23C1735.66,-261.71 1748.76,-253.05 1758.25,-242.19 1772.22,-226.2 1759.32,-210.76 1776.25,-197.94 1821.67,-163.54 1888.23,-160.64 1936.31,-164.32"/>
<polygon fill="orange" stroke="orange" points="1721.92,-264.99 1714.47,-272.53 1724.99,-271.28 1721.92,-264.99"/>
</a>
</g>
<text xml:space="preserve" text-anchor="start" x="1799.12" y="-202.69" font-family="Helvetica,sans-Serif" font-size="10.00" fill="grey">&lt; NamedMDNode &gt;</text>
</g>
<!-- Node34 -->
<g id="Node000034" class="node">
<title>Node34</title>
<g id="a_Node000034"><a xlink:href="classllvm_1_1iplist.html" target="_top" xlink:title=" ">
<polygon fill="white" stroke="#666666" points="2058.88,-139.44 1936.38,-139.44 1936.38,-108.94 2058.88,-108.94 2058.88,-139.44"/>
<text xml:space="preserve" text-anchor="start" x="1944.38" y="-125.94" font-family="Helvetica,sans-Serif" font-size="10.00">llvm::iplist&lt; T, Options...</text>
<text xml:space="preserve" text-anchor="middle" x="1997.62" y="-114.69" font-family="Helvetica,sans-Serif" font-size="10.00"> &gt;&lt; llvm::AliasSet &gt;</text>
</a>
</g>
</g>
<!-- Node24&#45;&gt;Node34 -->
<g id="edge38_Node000024_Node000034" class="edge">
<title>Node24&#45;&gt;Node34</title>
<g id="a_edge38_Node000024_Node000034"><a xlink:title=" ">
<path fill="none" stroke="orange" stroke-dasharray="5,2" d="M1726.68,-268.15C1738.52,-261.84 1750.41,-253.32 1758.25,-242.19 1784.33,-205.19 1742.72,-172.35 1776.25,-141.94 1818.75,-103.38 1886.77,-103.81 1936.01,-110.83"/>
<polygon fill="orange" stroke="orange" points="1725.22,-264.97 1717.75,-272.48 1728.27,-271.27 1725.22,-264.97"/>
</a>
</g>
<text xml:space="preserve" text-anchor="start" x="1804" y="-146.69" font-family="Helvetica,sans-Serif" font-size="10.00" fill="grey">&lt; llvm::AliasSet &gt;</text>
</g>
<!-- Node35 -->
<g id="Node000035" class="node">
<title>Node35</title>
<g id="a_Node000035"><a xlink:href="classllvm_1_1iplist.html" target="_top" xlink:title=" ">
<polygon fill="white" stroke="#666666" points="2058.88,-90.44 1936.38,-90.44 1936.38,-59.94 2058.88,-59.94 2058.88,-90.44"/>
<text xml:space="preserve" text-anchor="start" x="1944.38" y="-76.94" font-family="Helvetica,sans-Serif" font-size="10.00">llvm::iplist&lt; T, Options...</text>
<text xml:space="preserve" text-anchor="middle" x="1997.62" y="-65.69" font-family="Helvetica,sans-Serif" font-size="10.00"> &gt;&lt; llvm::IVStrideUse &gt;</text>
</a>
</g>
</g>
<!-- Node24&#45;&gt;Node35 -->
<g id="edge39_Node000024_Node000035" class="edge">
<title>Node24&#45;&gt;Node35</title>
<g id="a_edge39_Node000024_Node000035"><a xlink:title=" ">
<path fill="none" stroke="orange" stroke-dasharray="5,2" d="M1727.68,-268.13C1739.35,-261.86 1750.88,-253.37 1758.25,-242.19 1777.48,-213 1750.73,-109.83 1776.25,-85.94 1818.9,-46.02 1888.94,-49.84 1938.6,-59.46"/>
<polygon fill="orange" stroke="orange" points="1726.31,-264.9 1718.85,-272.41 1729.37,-271.19 1726.31,-264.9"/>
</a>
</g>
<text xml:space="preserve" text-anchor="start" x="1795.75" y="-90.69" font-family="Helvetica,sans-Serif" font-size="10.00" fill="grey">&lt; llvm::IVStrideUse &gt;</text>
</g>
<!-- Node36 -->
<g id="Node000036" class="node">
<title>Node36</title>
<g id="a_Node000036"><a xlink:href="classllvm_1_1iplist.html" target="_top" xlink:title=" ">
<polygon fill="white" stroke="#666666" points="2058.88,-41.44 1936.38,-41.44 1936.38,-10.94 2058.88,-10.94 2058.88,-41.44"/>
<text xml:space="preserve" text-anchor="start" x="1944.38" y="-27.94" font-family="Helvetica,sans-Serif" font-size="10.00">llvm::iplist&lt; T, Options...</text>
<text xml:space="preserve" text-anchor="middle" x="1997.62" y="-16.69" font-family="Helvetica,sans-Serif" font-size="10.00"> &gt;&lt; llvm::SDNode &gt;</text>
</a>
</g>
</g>
<!-- Node24&#45;&gt;Node36 -->
<g id="edge40_Node000024_Node000036" class="edge">
<title>Node24&#45;&gt;Node36</title>
<g id="a_edge40_Node000024_Node000036"><a xlink:title=" ">
<path fill="none" stroke="orange" stroke-dasharray="5,2" d="M1727.87,-268.25C1739.56,-261.99 1751.05,-253.48 1758.25,-242.19 1783.47,-202.65 1742.12,-64.1 1776.25,-31.94 1821.09,10.32 1896.7,1.7 1946.63,-10.52"/>
<polygon fill="orange" stroke="orange" points="1726.51,-265.03 1719.02,-272.53 1729.55,-271.33 1726.51,-265.03"/>
</a>
</g>
<text xml:space="preserve" text-anchor="start" x="1803.62" y="-36.69" font-family="Helvetica,sans-Serif" font-size="10.00" fill="grey">&lt; llvm::SDNode &gt;</text>
</g>
</g>
</svg>
