<?xml version="1.0" encoding="UTF-8" standalone="no"?>
<!DOCTYPE svg PUBLIC "-//W3C//DTD SVG 1.1//EN"
 "http://www.w3.org/Graphics/SVG/1.1/DTD/svg11.dtd">
<!-- Generated by graphviz version 13.1.2 (20250808.2320)
 -->
<!-- Title: llvm::GCNTargetMachine Pages: 1 -->
<svg width="172pt" height="193pt"
 viewBox="0.00 0.00 172.00 193.00" xmlns="http://www.w3.org/2000/svg" xmlns:xlink="http://www.w3.org/1999/xlink">
<g id="graph0" class="graph" transform="scale(1 1) rotate(0) translate(4 189)">
<title>llvm::GCNTargetMachine</title>
<!-- Node1 -->
<g id="Node000001" class="node">
<title>Node1</title>
<g id="a_Node000001"><a xlink:title=" ">
<polygon fill="#999999" stroke="#666666" points="145,-19.25 18.75,-19.25 18.75,0 145,0 145,-19.25"/>
<text xml:space="preserve" text-anchor="middle" x="81.88" y="-5.75" font-family="Helvetica,sans-Serif" font-size="10.00">llvm::GCNTargetMachine</text>
</a>
</g>
</g>
<!-- Node2 -->
<g id="Node000002" class="node">
<title>Node2</title>
<g id="a_Node000002"><a xlink:href="classllvm_1_1AMDGPUTargetMachine.html" target="_top" xlink:title=" ">
<polygon fill="white" stroke="#666666" points="155.88,-74.5 7.88,-74.5 7.88,-55.25 155.88,-55.25 155.88,-74.5"/>
<text xml:space="preserve" text-anchor="middle" x="81.88" y="-61" font-family="Helvetica,sans-Serif" font-size="10.00">llvm::AMDGPUTargetMachine</text>
</a>
</g>
</g>
<!-- Node2&#45;&gt;Node1 -->
<g id="edge1_Node000001_Node000002" class="edge">
<title>Node2&#45;&gt;Node1</title>
<g id="a_edge1_Node000001_Node000002"><a xlink:title=" ">
<path fill="none" stroke="#63b8ff" d="M81.88,-43.63C81.88,-35.34 81.88,-26.17 81.88,-19.61"/>
<polygon fill="#63b8ff" stroke="#63b8ff" points="78.38,-43.57 81.88,-53.57 85.38,-43.57 78.38,-43.57"/>
</a>
</g>
</g>
<!-- Node3 -->
<g id="Node000003" class="node">
<title>Node3</title>
<g id="a_Node000003"><a xlink:href="classllvm_1_1CodeGenTargetMachineImpl.html" target="_top" xlink:title="implements a set of functionality in the TargetMachine class for targets that make use of the indepen...">
<polygon fill="white" stroke="#666666" points="163.75,-129.75 0,-129.75 0,-110.5 163.75,-110.5 163.75,-129.75"/>
<text xml:space="preserve" text-anchor="middle" x="81.88" y="-116.25" font-family="Helvetica,sans-Serif" font-size="10.00">llvm::CodeGenTargetMachineImpl</text>
</a>
</g>
</g>
<!-- Node3&#45;&gt;Node2 -->
<g id="edge2_Node000002_Node000003" class="edge">
<title>Node3&#45;&gt;Node2</title>
<g id="a_edge2_Node000002_Node000003"><a xlink:title=" ">
<path fill="none" stroke="#63b8ff" d="M81.88,-98.88C81.88,-90.59 81.88,-81.42 81.88,-74.86"/>
<polygon fill="#63b8ff" stroke="#63b8ff" points="78.38,-98.82 81.88,-108.82 85.38,-98.82 78.38,-98.82"/>
</a>
</g>
</g>
<!-- Node4 -->
<g id="Node000004" class="node">
<title>Node4</title>
<g id="a_Node000004"><a xlink:href="classllvm_1_1TargetMachine.html" target="_top" xlink:title="Primary interface to the complete machine description for the target machine.">
<polygon fill="white" stroke="#666666" points="133.75,-185 30,-185 30,-165.75 133.75,-165.75 133.75,-185"/>
<text xml:space="preserve" text-anchor="middle" x="81.88" y="-171.5" font-family="Helvetica,sans-Serif" font-size="10.00">llvm::TargetMachine</text>
</a>
</g>
</g>
<!-- Node4&#45;&gt;Node3 -->
<g id="edge3_Node000003_Node000004" class="edge">
<title>Node4&#45;&gt;Node3</title>
<g id="a_edge3_Node000003_Node000004"><a xlink:title=" ">
<path fill="none" stroke="#63b8ff" d="M81.88,-154.13C81.88,-145.84 81.88,-136.67 81.88,-130.11"/>
<polygon fill="#63b8ff" stroke="#63b8ff" points="78.38,-154.07 81.88,-164.07 85.38,-154.07 78.38,-154.07"/>
</a>
</g>
</g>
</g>
</svg>
