<?xml version="1.0" encoding="UTF-8" standalone="no"?>
<!DOCTYPE svg PUBLIC "-//W3C//DTD SVG 1.1//EN"
 "http://www.w3.org/Graphics/SVG/1.1/DTD/svg11.dtd">
<!-- Generated by graphviz version 13.1.2 (20250808.2320)
 -->
<!-- Title: llvm::StringMapEntryBase Pages: 1 -->
<svg width="913pt" height="569pt"
 viewBox="0.00 0.00 913.00 569.00" xmlns="http://www.w3.org/2000/svg" xmlns:xlink="http://www.w3.org/1999/xlink">
<g id="graph0" class="graph" transform="scale(1 1) rotate(0) translate(4 565.28)">
<title>llvm::StringMapEntryBase</title>
<!-- Node1 -->
<g id="Node000001" class="node">
<title>Node1</title>
<g id="a_Node000001"><a xlink:title="StringMapEntryBase &#45; Shared base class of StringMapEntry instances.">
<polygon fill="#999999" stroke="#666666" points="130,-97.88 0,-97.88 0,-78.62 130,-78.62 130,-97.88"/>
<text xml:space="preserve" text-anchor="middle" x="65" y="-84.38" font-family="Helvetica,sans-Serif" font-size="10.00">llvm::StringMapEntryBase</text>
</a>
</g>
</g>
<!-- Node2 -->
<g id="Node000002" class="node">
<title>Node2</title>
<g id="a_Node000002"><a xlink:href="classllvm_1_1StringMapEntryStorage.html" target="_top" xlink:title=" ">
<polygon fill="white" stroke="#666666" points="574.75,-498.5 433.5,-498.5 433.5,-468 574.75,-468 574.75,-498.5"/>
<text xml:space="preserve" text-anchor="start" x="441.5" y="-485" font-family="Helvetica,sans-Serif" font-size="10.00">llvm::StringMapEntryStorage</text>
<text xml:space="preserve" text-anchor="middle" x="504.12" y="-473.75" font-family="Helvetica,sans-Serif" font-size="10.00">&lt; uint32_t &gt;</text>
</a>
</g>
</g>
<!-- Node1&#45;&gt;Node2 -->
<g id="edge1_Node000001_Node000002" class="edge">
<title>Node1&#45;&gt;Node2</title>
<g id="a_edge1_Node000001_Node000002"><a xlink:title=" ">
<path fill="none" stroke="#63b8ff" d="M71.19,-109.16C90.27,-180.94 164.05,-417.62 326.25,-505.25 371.03,-529.45 431.3,-513.46 468.65,-498.95"/>
<polygon fill="#63b8ff" stroke="#63b8ff" points="74.6,-108.36 68.71,-99.55 67.82,-110.11 74.6,-108.36"/>
</a>
</g>
</g>
<!-- Node4 -->
<g id="Node000004" class="node">
<title>Node4</title>
<g id="a_Node000004"><a xlink:href="classllvm_1_1StringMapEntryStorage.html" target="_top" xlink:title=" ">
<polygon fill="white" stroke="#666666" points="574.75,-135.5 433.5,-135.5 433.5,-105 574.75,-105 574.75,-135.5"/>
<text xml:space="preserve" text-anchor="start" x="441.5" y="-122" font-family="Helvetica,sans-Serif" font-size="10.00">llvm::StringMapEntryStorage</text>
<text xml:space="preserve" text-anchor="middle" x="504.12" y="-110.75" font-family="Helvetica,sans-Serif" font-size="10.00">&lt; llvm::Comdat &gt;</text>
</a>
</g>
</g>
<!-- Node1&#45;&gt;Node4 -->
<g id="edge3_Node000001_Node000004" class="edge">
<title>Node1&#45;&gt;Node4</title>
<g id="a_edge3_Node000001_Node000004"><a xlink:title=" ">
<path fill="none" stroke="#63b8ff" d="M141.78,-94.76C143.88,-94.93 145.95,-95.09 148,-95.25 246.9,-102.95 361.38,-110.82 433.03,-115.62"/>
<polygon fill="#63b8ff" stroke="#63b8ff" points="142.21,-91.28 131.96,-93.97 141.64,-98.26 142.21,-91.28"/>
</a>
</g>
</g>
<!-- Node6 -->
<g id="Node000006" class="node">
<title>Node6</title>
<g id="a_Node000006"><a xlink:href="classllvm_1_1StringMapEntryStorage.html" target="_top" xlink:title=" ">
<polygon fill="white" stroke="#666666" points="574.75,-79.5 433.5,-79.5 433.5,-49 574.75,-49 574.75,-79.5"/>
<text xml:space="preserve" text-anchor="start" x="441.5" y="-66" font-family="Helvetica,sans-Serif" font-size="10.00">llvm::StringMapEntryStorage</text>
<text xml:space="preserve" text-anchor="middle" x="504.12" y="-54.75" font-family="Helvetica,sans-Serif" font-size="10.00">&lt; llvm::MDString &gt;</text>
</a>
</g>
</g>
<!-- Node1&#45;&gt;Node6 -->
<g id="edge5_Node000001_Node000006" class="edge">
<title>Node1&#45;&gt;Node6</title>
<g id="a_edge5_Node000001_Node000006"><a xlink:title=" ">
<path fill="none" stroke="#63b8ff" d="M141.83,-81.82C193.72,-77.64 264.1,-72.4 326.25,-69.25 361.53,-67.46 400.81,-66.27 433.37,-65.5"/>
<polygon fill="#63b8ff" stroke="#63b8ff" points="141.58,-78.33 131.9,-82.62 142.15,-85.3 141.58,-78.33"/>
</a>
</g>
</g>
<!-- Node8 -->
<g id="Node000008" class="node">
<title>Node8</title>
<g id="a_Node000008"><a xlink:href="classllvm_1_1StringMapEntryStorage_3_01std_1_1nullopt__t_01_4.html" target="_top" xlink:title=" ">
<polygon fill="white" stroke="#666666" points="574.75,-30.5 433.5,-30.5 433.5,0 574.75,0 574.75,-30.5"/>
<text xml:space="preserve" text-anchor="start" x="441.5" y="-17" font-family="Helvetica,sans-Serif" font-size="10.00">llvm::StringMapEntryStorage</text>
<text xml:space="preserve" text-anchor="middle" x="504.12" y="-5.75" font-family="Helvetica,sans-Serif" font-size="10.00">&lt; std::nullopt_t &gt;</text>
</a>
</g>
</g>
<!-- Node1&#45;&gt;Node8 -->
<g id="edge7_Node000001_Node000008" class="edge">
<title>Node1&#45;&gt;Node8</title>
<g id="a_edge7_Node000001_Node000008"><a xlink:title=" ">
<path fill="none" stroke="#63b8ff" d="M92.58,-74.57C112.89,-68.3 141.63,-61.93 167,-57.25 258.56,-40.35 364.91,-24.91 433.06,-17.66"/>
<polygon fill="#63b8ff" stroke="#63b8ff" points="91.48,-71.25 83.12,-77.75 93.71,-77.88 91.48,-71.25"/>
</a>
</g>
</g>
<!-- Node1&#45;&gt;Node8 -->
<g id="edge27_Node000001_Node000008" class="edge">
<title>Node1&#45;&gt;Node8</title>
<g id="a_edge27_Node000001_Node000008"><a xlink:title=" ">
<path fill="none" stroke="#63b8ff" d="M141.49,-80.2C150.08,-78.49 158.72,-76.78 167,-75.25 259.87,-58.11 367.95,-42.47 435.95,-30.96"/>
<polygon fill="#63b8ff" stroke="#63b8ff" points="140.87,-76.76 131.75,-82.15 142.24,-83.62 140.87,-76.76"/>
</a>
</g>
</g>
<!-- Node10 -->
<g id="Node000010" class="node">
<title>Node10</title>
<g id="a_Node000010"><a xlink:href="classllvm_1_1StringMapEntryStorage.html" target="_top" xlink:title="StringMapEntryStorage &#45; Holds the value in a StringMapEntry.">
<polygon fill="white" stroke="#666666" points="308.25,-253.5 167,-253.5 167,-223 308.25,-223 308.25,-253.5"/>
<text xml:space="preserve" text-anchor="start" x="175" y="-240" font-family="Helvetica,sans-Serif" font-size="10.00">llvm::StringMapEntryStorage</text>
<text xml:space="preserve" text-anchor="middle" x="237.62" y="-228.75" font-family="Helvetica,sans-Serif" font-size="10.00">&lt; ValueTy &gt;</text>
</a>
</g>
</g>
<!-- Node1&#45;&gt;Node10 -->
<g id="edge9_Node000001_Node000010" class="edge">
<title>Node1&#45;&gt;Node10</title>
<g id="a_edge9_Node000001_Node000010"><a xlink:title=" ">
<path fill="none" stroke="#63b8ff" d="M85.98,-105.81C119.54,-135.32 186.71,-194.37 218.78,-222.57"/>
<polygon fill="#63b8ff" stroke="#63b8ff" points="88.42,-103.3 78.6,-99.32 83.8,-108.56 88.42,-103.3"/>
</a>
</g>
</g>
<!-- Node3 -->
<g id="Node000003" class="node">
<title>Node3</title>
<g id="a_Node000003"><a xlink:href="classllvm_1_1StringMapEntry.html" target="_top" xlink:title=" ">
<polygon fill="white" stroke="#666666" points="871.62,-460.5 764.12,-460.5 764.12,-430 871.62,-430 871.62,-460.5"/>
<text xml:space="preserve" text-anchor="start" x="772.12" y="-447" font-family="Helvetica,sans-Serif" font-size="10.00">llvm::StringMapEntry</text>
<text xml:space="preserve" text-anchor="middle" x="817.88" y="-435.75" font-family="Helvetica,sans-Serif" font-size="10.00">&lt; uint32_t &gt;</text>
</a>
</g>
</g>
<!-- Node2&#45;&gt;Node3 -->
<g id="edge2_Node000002_Node000003" class="edge">
<title>Node2&#45;&gt;Node3</title>
<g id="a_edge2_Node000002_Node000003"><a xlink:title=" ">
<path fill="none" stroke="#63b8ff" d="M586.59,-497.58C625.73,-501.28 672.71,-500.99 712.75,-487.25 722.34,-483.96 721.8,-478 730.75,-473.25 741.03,-467.8 752.56,-463.16 763.76,-459.32"/>
<polygon fill="#63b8ff" stroke="#63b8ff" points="587.06,-494.11 576.75,-496.53 586.32,-501.07 587.06,-494.11"/>
</a>
</g>
</g>
<!-- Node5 -->
<g id="Node000005" class="node">
<title>Node5</title>
<g id="a_Node000005"><a xlink:href="classllvm_1_1StringMapEntry.html" target="_top" xlink:title=" ">
<polygon fill="white" stroke="#666666" points="871.62,-198.5 764.12,-198.5 764.12,-168 871.62,-168 871.62,-198.5"/>
<text xml:space="preserve" text-anchor="start" x="772.12" y="-185" font-family="Helvetica,sans-Serif" font-size="10.00">llvm::StringMapEntry</text>
<text xml:space="preserve" text-anchor="middle" x="817.88" y="-173.75" font-family="Helvetica,sans-Serif" font-size="10.00">&lt; llvm::Comdat &gt;</text>
</a>
</g>
</g>
<!-- Node4&#45;&gt;Node5 -->
<g id="edge4_Node000004_Node000005" class="edge">
<title>Node4&#45;&gt;Node5</title>
<g id="a_edge4_Node000004_Node000005"><a xlink:title=" ">
<path fill="none" stroke="#63b8ff" d="M573.97,-102.57C616.92,-95.53 671.65,-94.17 712.75,-119.25 727.68,-128.36 717.49,-142.84 730.75,-154.25 740.2,-162.38 752.02,-168.25 763.85,-172.49"/>
<polygon fill="#63b8ff" stroke="#63b8ff" points="573.47,-99.11 564.25,-104.32 574.71,-106 573.47,-99.11"/>
</a>
</g>
</g>
<!-- Node7 -->
<g id="Node000007" class="node">
<title>Node7</title>
<g id="a_Node000007"><a xlink:href="classllvm_1_1StringMapEntry.html" target="_top" xlink:title=" ">
<polygon fill="white" stroke="#666666" points="871.62,-145.5 764.12,-145.5 764.12,-115 871.62,-115 871.62,-145.5"/>
<text xml:space="preserve" text-anchor="start" x="772.12" y="-132" font-family="Helvetica,sans-Serif" font-size="10.00">llvm::StringMapEntry</text>
<text xml:space="preserve" text-anchor="middle" x="817.88" y="-120.75" font-family="Helvetica,sans-Serif" font-size="10.00">&lt; llvm::MDString &gt;</text>
</a>
</g>
</g>
<!-- Node6&#45;&gt;Node7 -->
<g id="edge6_Node000006_Node000007" class="edge">
<title>Node6&#45;&gt;Node7</title>
<g id="a_edge6_Node000006_Node000007"><a xlink:title=" ">
<path fill="none" stroke="#63b8ff" d="M584.03,-46.87C623.65,-41.51 671.81,-40.2 712.75,-54.25 722.34,-57.54 722.64,-62.18 730.75,-68.25 752.29,-84.37 777.27,-102.27 794.76,-114.67"/>
<polygon fill="#63b8ff" stroke="#63b8ff" points="583.71,-43.38 574.33,-48.31 584.73,-50.31 583.71,-43.38"/>
</a>
</g>
</g>
<!-- Node9 -->
<g id="Node000009" class="node">
<title>Node9</title>
<g id="a_Node000009"><a xlink:href="classllvm_1_1StringMapEntry.html" target="_top" xlink:title=" ">
<polygon fill="white" stroke="#666666" points="871.62,-59.5 764.12,-59.5 764.12,-29 871.62,-29 871.62,-59.5"/>
<text xml:space="preserve" text-anchor="start" x="772.12" y="-46" font-family="Helvetica,sans-Serif" font-size="10.00">llvm::StringMapEntry</text>
<text xml:space="preserve" text-anchor="middle" x="817.88" y="-34.75" font-family="Helvetica,sans-Serif" font-size="10.00">&lt; std::nullopt_t &gt;</text>
</a>
</g>
</g>
<!-- Node8&#45;&gt;Node9 -->
<g id="edge8_Node000008_Node000009" class="edge">
<title>Node8&#45;&gt;Node9</title>
<g id="a_edge8_Node000008_Node000009"><a xlink:title=" ">
<path fill="none" stroke="#63b8ff" d="M586.06,-19.28C624.5,-21.56 671.06,-24.85 712.75,-29.25 729.37,-31 747.41,-33.42 763.73,-35.8"/>
<polygon fill="#63b8ff" stroke="#63b8ff" points="586.62,-15.81 576.43,-18.72 586.21,-22.8 586.62,-15.81"/>
</a>
</g>
</g>
<!-- Node10&#45;&gt;Node2 -->
<g id="edge23_Node000010_Node000002" class="edge">
<title>Node10&#45;&gt;Node2</title>
<g id="a_edge23_Node000010_Node000002"><a xlink:title=" ">
<path fill="none" stroke="orange" stroke-dasharray="5,2" d="M241.56,-265.02C248.05,-310.62 268.03,-403.01 326.25,-450.25 355.96,-474.36 397.74,-482.95 433.23,-485.36"/>
<polygon fill="orange" stroke="orange" points="245.04,-264.69 240.28,-255.23 238.1,-265.59 245.04,-264.69"/>
</a>
</g>
<text xml:space="preserve" text-anchor="start" x="344.62" y="-488.38" font-family="Helvetica,sans-Serif" font-size="10.00" fill="grey">&lt; uint32_t &gt;</text>
</g>
<!-- Node10&#45;&gt;Node4 -->
<g id="edge24_Node000010_Node000004" class="edge">
<title>Node10&#45;&gt;Node4</title>
<g id="a_edge24_Node000010_Node000004"><a xlink:title=" ">
<path fill="none" stroke="orange" stroke-dasharray="5,2" d="M276.01,-217.11C291.26,-209.09 309.26,-200.37 326.25,-194 364.58,-179.63 377.61,-186.75 415.5,-171.25 438.63,-161.79 463.06,-147.13 480.23,-135.95"/>
<polygon fill="orange" stroke="orange" points="274.44,-213.98 267.28,-221.79 277.75,-220.15 274.44,-213.98"/>
</a>
</g>
<text xml:space="preserve" text-anchor="start" x="332.62" y="-198.75" font-family="Helvetica,sans-Serif" font-size="10.00" fill="grey">&lt; llvm::Comdat &gt;</text>
</g>
<!-- Node10&#45;&gt;Node6 -->
<g id="edge25_Node000010_Node000006" class="edge">
<title>Node10&#45;&gt;Node6</title>
<g id="a_edge25_Node000010_Node000006"><a xlink:title=" ">
<path fill="none" stroke="orange" stroke-dasharray="5,2" d="M258.61,-213.73C275.2,-194.53 300.22,-168.14 326.25,-150 362.03,-125.07 377.81,-131.18 415.5,-109.25 424.03,-104.29 424.98,-101.22 433.5,-96.25 443.61,-90.35 455,-84.73 465.59,-79.88"/>
<polygon fill="orange" stroke="orange" points="255.94,-211.46 252.15,-221.35 261.29,-215.98 255.94,-211.46"/>
</a>
</g>
<text xml:space="preserve" text-anchor="start" x="329.25" y="-154.75" font-family="Helvetica,sans-Serif" font-size="10.00" fill="grey">&lt; llvm::MDString &gt;</text>
</g>
<!-- Node10&#45;&gt;Node8 -->
<g id="edge26_Node000010_Node000008" class="edge">
<title>Node10&#45;&gt;Node8</title>
<g id="a_edge26_Node000010_Node000008"><a xlink:title=" ">
<path fill="none" stroke="orange" stroke-dasharray="5,2" d="M247.9,-212.41C260.85,-179.58 287.23,-122.98 326.25,-88 345.97,-70.32 409.78,-46.43 455.08,-30.93"/>
<polygon fill="orange" stroke="orange" points="244.71,-210.96 244.42,-221.55 251.25,-213.45 244.71,-210.96"/>
</a>
</g>
<text xml:space="preserve" text-anchor="start" x="333.75" y="-92.75" font-family="Helvetica,sans-Serif" font-size="10.00" fill="grey">&lt; std::nullopt_t &gt;</text>
</g>
<!-- Node11 -->
<g id="Node000011" class="node">
<title>Node11</title>
<g id="a_Node000011"><a xlink:href="classllvm_1_1StringMapEntry.html" target="_top" xlink:title=" ">
<polygon fill="white" stroke="#666666" points="871.62,-512.5 764.12,-512.5 764.12,-482 871.62,-482 871.62,-512.5"/>
<text xml:space="preserve" text-anchor="start" x="772.12" y="-499" font-family="Helvetica,sans-Serif" font-size="10.00">llvm::StringMapEntry</text>
<text xml:space="preserve" text-anchor="middle" x="817.88" y="-487.75" font-family="Helvetica,sans-Serif" font-size="10.00">&lt; RefCountType &gt;</text>
</a>
</g>
</g>
<!-- Node10&#45;&gt;Node11 -->
<g id="edge10_Node000010_Node000011" class="edge">
<title>Node10&#45;&gt;Node11</title>
<g id="a_edge10_Node000010_Node000011"><a xlink:title=" ">
<path fill="none" stroke="#63b8ff" d="M238.12,-265.08C238.72,-320.7 248.9,-448.12 326.25,-505.25 463.13,-606.35 685.11,-544.81 776.05,-512.88"/>
<polygon fill="#63b8ff" stroke="#63b8ff" points="241.62,-265.27 238.13,-255.27 234.62,-265.27 241.62,-265.27"/>
</a>
</g>
</g>
<!-- Node12 -->
<g id="Node000012" class="node">
<title>Node12</title>
<g id="a_Node000012"><a xlink:href="classllvm_1_1StringMapEntry.html" target="_top" xlink:title=" ">
<polygon fill="white" stroke="#666666" points="871.62,-405.5 764.12,-405.5 764.12,-375 871.62,-375 871.62,-405.5"/>
<text xml:space="preserve" text-anchor="start" x="772.12" y="-392" font-family="Helvetica,sans-Serif" font-size="10.00">llvm::StringMapEntry</text>
<text xml:space="preserve" text-anchor="middle" x="817.88" y="-380.75" font-family="Helvetica,sans-Serif" font-size="10.00">&lt; Value * &gt;</text>
</a>
</g>
</g>
<!-- Node10&#45;&gt;Node12 -->
<g id="edge11_Node000010_Node000012" class="edge">
<title>Node10&#45;&gt;Node12</title>
<g id="a_edge11_Node000010_Node000012"><a xlink:title=" ">
<path fill="none" stroke="#63b8ff" d="M264.43,-261.5C281.23,-275.88 304.07,-294.04 326.25,-307.25 437.08,-373.27 466.42,-396.15 592.75,-422.25 644.98,-433.04 660.01,-430.17 712.75,-422.25 734.07,-419.05 757.05,-412.35 775.98,-405.91"/>
<polygon fill="#63b8ff" stroke="#63b8ff" points="266.75,-258.88 256.9,-254.95 262.15,-264.16 266.75,-258.88"/>
</a>
</g>
</g>
<!-- Node13 -->
<g id="Node000013" class="node">
<title>Node13</title>
<g id="a_Node000013"><a xlink:href="classllvm_1_1StringMapEntry.html" target="_top" xlink:title=" ">
<polygon fill="white" stroke="#666666" points="882.88,-345.5 752.88,-345.5 752.88,-315 882.88,-315 882.88,-345.5"/>
<text xml:space="preserve" text-anchor="start" x="760.88" y="-332" font-family="Helvetica,sans-Serif" font-size="10.00">llvm::StringMapEntry</text>
<text xml:space="preserve" text-anchor="middle" x="817.88" y="-320.75" font-family="Helvetica,sans-Serif" font-size="10.00">&lt; MCSymbolTableValue &gt;</text>
</a>
</g>
</g>
<!-- Node10&#45;&gt;Node13 -->
<g id="edge12_Node000010_Node000013" class="edge">
<title>Node10&#45;&gt;Node13</title>
<g id="a_edge12_Node000010_Node000013"><a xlink:title=" ">
<path fill="none" stroke="#63b8ff" d="M283.28,-258.51C349.29,-287.24 477.55,-338.41 592.75,-357.25 645.38,-365.86 659.85,-364 712.75,-357.25 730.63,-354.97 749.82,-350.57 766.8,-345.98"/>
<polygon fill="#63b8ff" stroke="#63b8ff" points="284.8,-255.36 274.24,-254.54 281.99,-261.77 284.8,-255.36"/>
</a>
</g>
</g>
<!-- Node14 -->
<g id="Node000014" class="node">
<title>Node14</title>
<g id="a_Node000014"><a xlink:href="classllvm_1_1StringMapEntry.html" target="_top" xlink:title=" ">
<polygon fill="white" stroke="#666666" points="905,-254.5 730.75,-254.5 730.75,-224 905,-224 905,-254.5"/>
<text xml:space="preserve" text-anchor="start" x="738.75" y="-241" font-family="Helvetica,sans-Serif" font-size="10.00">llvm::StringMapEntry</text>
<text xml:space="preserve" text-anchor="middle" x="817.88" y="-229.75" font-family="Helvetica,sans-Serif" font-size="10.00">&lt; std::atomic&lt; TypeEntryBody * &gt; &gt;</text>
</a>
</g>
</g>
<!-- Node10&#45;&gt;Node14 -->
<g id="edge13_Node000010_Node000014" class="edge">
<title>Node10&#45;&gt;Node14</title>
<g id="a_edge13_Node000010_Node000014"><a xlink:title=" ">
<path fill="none" stroke="#63b8ff" d="M319.77,-224.97C391.36,-213.97 498.67,-199.2 592.75,-193.25 645.98,-189.88 662.3,-175.94 712.75,-193.25 722.34,-196.54 721.9,-202.32 730.75,-207.25 742.04,-213.54 754.8,-219.05 766.98,-223.65"/>
<polygon fill="#63b8ff" stroke="#63b8ff" points="319.43,-221.48 310.09,-226.47 320.5,-228.4 319.43,-221.48"/>
</a>
</g>
</g>
<!-- Node15 -->
<g id="Node000015" class="node">
<title>Node15</title>
<g id="a_Node000015"><a xlink:href="classllvm_1_1StringMapEntry.html" target="_top" xlink:title="StringMapEntry &#45; This is used to represent one value that is inserted into a StringMap.">
<polygon fill="white" stroke="#666666" points="557.88,-265.5 450.38,-265.5 450.38,-235 557.88,-235 557.88,-265.5"/>
<text xml:space="preserve" text-anchor="start" x="458.38" y="-252" font-family="Helvetica,sans-Serif" font-size="10.00">llvm::StringMapEntry</text>
<text xml:space="preserve" text-anchor="middle" x="504.12" y="-240.75" font-family="Helvetica,sans-Serif" font-size="10.00">&lt; ValueTy &gt;</text>
</a>
</g>
</g>
<!-- Node10&#45;&gt;Node15 -->
<g id="edge14_Node000010_Node000015" class="edge">
<title>Node10&#45;&gt;Node15</title>
<g id="a_edge14_Node000010_Node000015"><a xlink:title=" ">
<path fill="none" stroke="#63b8ff" d="M319.89,-241.94C362.24,-243.86 412.82,-246.15 450.11,-247.84"/>
<polygon fill="#63b8ff" stroke="#63b8ff" points="320.13,-238.44 309.98,-241.49 319.81,-245.44 320.13,-238.44"/>
</a>
</g>
</g>
<!-- Node15&#45;&gt;Node3 -->
<g id="edge20_Node000015_Node000003" class="edge">
<title>Node15&#45;&gt;Node3</title>
<g id="a_edge20_Node000015_Node000003"><a xlink:title=" ">
<path fill="none" stroke="orange" stroke-dasharray="5,2" d="M515.71,-276.42C529.18,-306.43 555.29,-354.97 592.75,-382.25 619.95,-402.06 706.58,-422.75 763.82,-434.8"/>
<polygon fill="orange" stroke="orange" points="518.95,-275.09 511.77,-267.3 512.53,-277.87 518.95,-275.09"/>
</a>
</g>
<text xml:space="preserve" text-anchor="start" x="626.5" y="-426.98" font-family="Helvetica,sans-Serif" font-size="10.00" fill="grey">&lt; uint32_t &gt;</text>
</g>
<!-- Node15&#45;&gt;Node5 -->
<g id="edge21_Node000015_Node000005" class="edge">
<title>Node15&#45;&gt;Node5</title>
<g id="a_edge21_Node000015_Node000005"><a xlink:title=" ">
<path fill="none" stroke="orange" stroke-dasharray="5,2" d="M556.32,-230.95C568.17,-226.94 580.8,-223.02 592.75,-220 650.48,-205.42 718.08,-195.25 763.83,-189.37"/>
<polygon fill="orange" stroke="orange" points="555.43,-227.55 547.13,-234.14 557.73,-234.16 555.43,-227.55"/>
</a>
</g>
<text xml:space="preserve" text-anchor="start" x="614.5" y="-224.75" font-family="Helvetica,sans-Serif" font-size="10.00" fill="grey">&lt; llvm::Comdat &gt;</text>
</g>
<!-- Node15&#45;&gt;Node7 -->
<g id="edge22_Node000015_Node000007" class="edge">
<title>Node15&#45;&gt;Node7</title>
<g id="a_edge22_Node000015_Node000007"><a xlink:title=" ">
<path fill="none" stroke="orange" stroke-dasharray="5,2" d="M526.85,-226.32C543.32,-209.67 567.4,-188.32 592.75,-176 647.4,-149.45 716.79,-138.3 763.77,-133.62"/>
<polygon fill="orange" stroke="orange" points="524.42,-223.81 520.01,-233.44 529.46,-228.66 524.42,-223.81"/>
</a>
</g>
<text xml:space="preserve" text-anchor="start" x="611.12" y="-180.75" font-family="Helvetica,sans-Serif" font-size="10.00" fill="grey">&lt; llvm::MDString &gt;</text>
</g>
<!-- Node15&#45;&gt;Node9 -->
<g id="edge15_Node000015_Node000009" class="edge">
<title>Node15&#45;&gt;Node9</title>
<g id="a_edge15_Node000015_Node000009"><a xlink:title=" ">
<path fill="none" stroke="orange" stroke-dasharray="5,2" d="M521.4,-225.43C546.05,-187.92 590.24,-120.91 592.75,-119 643.45,-80.3 715.25,-61.03 763.81,-51.87"/>
<polygon fill="orange" stroke="orange" points="518.7,-223.17 516.14,-233.45 524.55,-227.01 518.7,-223.17"/>
</a>
</g>
<text xml:space="preserve" text-anchor="start" x="615.62" y="-123.75" font-family="Helvetica,sans-Serif" font-size="10.00" fill="grey">&lt; std::nullopt_t &gt;</text>
</g>
<!-- Node15&#45;&gt;Node11 -->
<g id="edge16_Node000015_Node000011" class="edge">
<title>Node15&#45;&gt;Node11</title>
<g id="a_edge16_Node000015_Node000011"><a xlink:title=" ">
<path fill="none" stroke="orange" stroke-dasharray="5,2" d="M509.59,-277.02C518.05,-319.02 540.46,-400.05 592.75,-443.25 641.19,-483.27 714.51,-494.52 763.98,-497.23"/>
<polygon fill="orange" stroke="orange" points="513.05,-276.46 507.76,-267.28 506.17,-277.76 513.05,-276.46"/>
</a>
</g>
<text xml:space="preserve" text-anchor="start" x="612.25" y="-496.24" font-family="Helvetica,sans-Serif" font-size="10.00" fill="grey">&lt; RefCountType &gt;</text>
</g>
<!-- Node15&#45;&gt;Node12 -->
<g id="edge17_Node000015_Node000012" class="edge">
<title>Node15&#45;&gt;Node12</title>
<g id="a_edge17_Node000015_Node000012"><a xlink:title=" ">
<path fill="none" stroke="orange" stroke-dasharray="5,2" d="M530.32,-273.21C547.04,-287.47 570.01,-305.3 592.75,-317.25 647.99,-346.28 716.95,-366.63 763.68,-378.34"/>
<polygon fill="orange" stroke="orange" points="532.7,-270.64 522.86,-266.71 528.1,-275.92 532.7,-270.64"/>
</a>
</g>
<text xml:space="preserve" text-anchor="start" x="628.38" y="-368.75" font-family="Helvetica,sans-Serif" font-size="10.00" fill="grey">&lt; Value * &gt;</text>
</g>
<!-- Node15&#45;&gt;Node13 -->
<g id="edge18_Node000015_Node000013" class="edge">
<title>Node15&#45;&gt;Node13</title>
<g id="a_edge18_Node000015_Node000013"><a xlink:title=" ">
<path fill="none" stroke="orange" stroke-dasharray="5,2" d="M563.43,-269.21C573.17,-272.09 583.21,-274.88 592.75,-277.25 645.44,-290.32 659.96,-287.36 712.75,-300 730.32,-304.21 749.36,-309.51 766.29,-314.5"/>
<polygon fill="orange" stroke="orange" points="564.64,-265.92 554.05,-266.37 562.62,-272.62 564.64,-265.92"/>
</a>
</g>
<text xml:space="preserve" text-anchor="start" x="595.75" y="-304.75" font-family="Helvetica,sans-Serif" font-size="10.00" fill="grey">&lt; MCSymbolTableValue &gt;</text>
</g>
<!-- Node15&#45;&gt;Node14 -->
<g id="edge19_Node000015_Node000014" class="edge">
<title>Node15&#45;&gt;Node14</title>
<g id="a_edge19_Node000015_Node000014"><a xlink:title=" ">
<path fill="none" stroke="orange" stroke-dasharray="5,2" d="M569.37,-245.94C577.24,-245.49 585.18,-245.08 592.75,-244.75 638.15,-242.77 688.75,-241.45 730.37,-240.6"/>
<polygon fill="orange" stroke="orange" points="569.22,-242.44 559.44,-246.52 569.63,-249.43 569.22,-242.44"/>
</a>
</g>
<text xml:space="preserve" text-anchor="start" x="597.25" y="-264.75" font-family="Helvetica,sans-Serif" font-size="10.00" fill="grey">&lt; std::atomic&lt; TypeEntry</text>
<text xml:space="preserve" text-anchor="start" x="597.25" y="-249.5" font-family="Helvetica,sans-Serif" font-size="10.00" fill="grey">  Body * &gt; &gt;</text>
</g>
</g>
</svg>
