<?xml version="1.0" encoding="UTF-8" standalone="no"?>
<!DOCTYPE svg PUBLIC "-//W3C//DTD SVG 1.1//EN"
 "http://www.w3.org/Graphics/SVG/1.1/DTD/svg11.dtd">
<!-- Generated by graphviz version 13.1.2 (20250808.2320)
 -->
<!-- Title: llvm::coro::BaseABI Pages: 1 -->
<svg width="395pt" height="83pt"
 viewBox="0.00 0.00 395.00 83.00" xmlns="http://www.w3.org/2000/svg" xmlns:xlink="http://www.w3.org/1999/xlink">
<g id="graph0" class="graph" transform="scale(1 1) rotate(0) translate(4 78.5)">
<title>llvm::coro::BaseABI</title>
<!-- Node1 -->
<g id="Node000001" class="node">
<title>Node1</title>
<g id="a_Node000001"><a xlink:title=" ">
<polygon fill="#999999" stroke="#666666" points="254.88,-74.5 151.12,-74.5 151.12,-55.25 254.88,-55.25 254.88,-74.5"/>
<text xml:space="preserve" text-anchor="middle" x="203" y="-61" font-family="Helvetica,sans-Serif" font-size="10.00">llvm::coro::BaseABI</text>
</a>
</g>
</g>
<!-- Node2 -->
<g id="Node000002" class="node">
<title>Node2</title>
<g id="a_Node000002"><a xlink:href="classllvm_1_1coro_1_1AnyRetconABI.html" target="_top" xlink:title=" ">
<polygon fill="white" stroke="#666666" points="130,-19.25 0,-19.25 0,0 130,0 130,-19.25"/>
<text xml:space="preserve" text-anchor="middle" x="65" y="-5.75" font-family="Helvetica,sans-Serif" font-size="10.00">llvm::coro::AnyRetconABI</text>
</a>
</g>
</g>
<!-- Node1&#45;&gt;Node2 -->
<g id="edge1_Node000001_Node000002" class="edge">
<title>Node1&#45;&gt;Node2</title>
<g id="a_edge1_Node000001_Node000002"><a xlink:title=" ">
<path fill="none" stroke="#63b8ff" d="M169.1,-50.79C144.08,-41.14 110.67,-28.25 88.52,-19.7"/>
<polygon fill="#63b8ff" stroke="#63b8ff" points="167.59,-53.96 178.18,-54.3 170.11,-47.43 167.59,-53.96"/>
</a>
</g>
</g>
<!-- Node3 -->
<g id="Node000003" class="node">
<title>Node3</title>
<g id="a_Node000003"><a xlink:href="classllvm_1_1coro_1_1AsyncABI.html" target="_top" xlink:title=" ">
<polygon fill="white" stroke="#666666" points="257.5,-19.25 148.5,-19.25 148.5,0 257.5,0 257.5,-19.25"/>
<text xml:space="preserve" text-anchor="middle" x="203" y="-5.75" font-family="Helvetica,sans-Serif" font-size="10.00">llvm::coro::AsyncABI</text>
</a>
</g>
</g>
<!-- Node1&#45;&gt;Node3 -->
<g id="edge2_Node000001_Node000003" class="edge">
<title>Node1&#45;&gt;Node3</title>
<g id="a_edge2_Node000001_Node000003"><a xlink:title=" ">
<path fill="none" stroke="#63b8ff" d="M203,-43.63C203,-35.34 203,-26.17 203,-19.61"/>
<polygon fill="#63b8ff" stroke="#63b8ff" points="199.5,-43.57 203,-53.57 206.5,-43.57 199.5,-43.57"/>
</a>
</g>
</g>
<!-- Node4 -->
<g id="Node000004" class="node">
<title>Node4</title>
<g id="a_Node000004"><a xlink:href="classllvm_1_1coro_1_1SwitchABI.html" target="_top" xlink:title=" ">
<polygon fill="white" stroke="#666666" points="386.62,-19.25 275.38,-19.25 275.38,0 386.62,0 386.62,-19.25"/>
<text xml:space="preserve" text-anchor="middle" x="331" y="-5.75" font-family="Helvetica,sans-Serif" font-size="10.00">llvm::coro::SwitchABI</text>
</a>
</g>
</g>
<!-- Node1&#45;&gt;Node4 -->
<g id="edge3_Node000001_Node000004" class="edge">
<title>Node1&#45;&gt;Node4</title>
<g id="a_edge3_Node000001_Node000004"><a xlink:title=" ">
<path fill="none" stroke="#63b8ff" d="M235.07,-50.53C258.21,-40.91 288.82,-28.17 309.18,-19.7"/>
<polygon fill="#63b8ff" stroke="#63b8ff" points="234,-47.19 226.11,-54.26 236.69,-53.65 234,-47.19"/>
</a>
</g>
</g>
</g>
</svg>
