<?xml version="1.0" encoding="UTF-8" standalone="no"?>
<!DOCTYPE svg PUBLIC "-//W3C//DTD SVG 1.1//EN"
 "http://www.w3.org/Graphics/SVG/1.1/DTD/svg11.dtd">
<!-- Generated by graphviz version 13.1.2 (20250808.2320)
 -->
<!-- Title: llvm::SPIRVConvergenceRegionAnalysisWrapperPass Pages: 1 -->
<svg width="167pt" height="149pt"
 viewBox="0.00 0.00 167.00 149.00" xmlns="http://www.w3.org/2000/svg" xmlns:xlink="http://www.w3.org/1999/xlink">
<g id="graph0" class="graph" transform="scale(1 1) rotate(0) translate(4 145)">
<title>llvm::SPIRVConvergenceRegionAnalysisWrapperPass</title>
<!-- Node1 -->
<g id="Node000001" class="node">
<title>Node1</title>
<g id="a_Node000001"><a xlink:title=" ">
<polygon fill="#999999" stroke="#666666" points="159.25,-30.5 0,-30.5 0,0 159.25,0 159.25,-30.5"/>
<text xml:space="preserve" text-anchor="start" x="8" y="-17" font-family="Helvetica,sans-Serif" font-size="10.00">llvm::SPIRVConvergenceRegion</text>
<text xml:space="preserve" text-anchor="middle" x="79.62" y="-5.75" font-family="Helvetica,sans-Serif" font-size="10.00">AnalysisWrapperPass</text>
</a>
</g>
</g>
<!-- Node2 -->
<g id="Node000002" class="node">
<title>Node2</title>
<g id="a_Node000002"><a xlink:href="classllvm_1_1FunctionPass.html" target="_top" xlink:title="FunctionPass class &#45; This class is used to implement most global optimizations.">
<polygon fill="white" stroke="#666666" points="129.62,-85.75 29.62,-85.75 29.62,-66.5 129.62,-66.5 129.62,-85.75"/>
<text xml:space="preserve" text-anchor="middle" x="79.62" y="-72.25" font-family="Helvetica,sans-Serif" font-size="10.00">llvm::FunctionPass</text>
</a>
</g>
</g>
<!-- Node2&#45;&gt;Node1 -->
<g id="edge1_Node000001_Node000002" class="edge">
<title>Node2&#45;&gt;Node1</title>
<g id="a_edge1_Node000001_Node000002"><a xlink:title=" ">
<path fill="none" stroke="#63b8ff" d="M79.62,-54.92C79.62,-46.99 79.62,-38.06 79.62,-30.78"/>
<polygon fill="#63b8ff" stroke="#63b8ff" points="76.13,-54.67 79.63,-64.67 83.13,-54.67 76.13,-54.67"/>
</a>
</g>
</g>
<!-- Node3 -->
<g id="Node000003" class="node">
<title>Node3</title>
<g id="a_Node000003"><a xlink:href="classllvm_1_1Pass.html" target="_top" xlink:title="Pass interface &#45; Implemented by all &#39;passes&#39;.">
<polygon fill="white" stroke="#666666" points="110.88,-141 48.38,-141 48.38,-121.75 110.88,-121.75 110.88,-141"/>
<text xml:space="preserve" text-anchor="middle" x="79.62" y="-127.5" font-family="Helvetica,sans-Serif" font-size="10.00">llvm::Pass</text>
</a>
</g>
</g>
<!-- Node3&#45;&gt;Node2 -->
<g id="edge2_Node000002_Node000003" class="edge">
<title>Node3&#45;&gt;Node2</title>
<g id="a_edge2_Node000002_Node000003"><a xlink:title=" ">
<path fill="none" stroke="#63b8ff" d="M79.62,-110.13C79.62,-101.84 79.62,-92.67 79.62,-86.11"/>
<polygon fill="#63b8ff" stroke="#63b8ff" points="76.13,-110.07 79.63,-120.07 83.13,-110.07 76.13,-110.07"/>
</a>
</g>
</g>
</g>
</svg>
