<?xml version="1.0" encoding="UTF-8" standalone="no"?>
<!DOCTYPE svg PUBLIC "-//W3C//DTD SVG 1.1//EN"
 "http://www.w3.org/Graphics/SVG/1.1/DTD/svg11.dtd">
<!-- Generated by graphviz version 13.1.2 (20250808.2320)
 -->
<!-- Title: llvm::MachineRegion Pages: 1 -->
<svg width="407pt" height="262pt"
 viewBox="0.00 0.00 407.00 262.00" xmlns="http://www.w3.org/2000/svg" xmlns:xlink="http://www.w3.org/1999/xlink">
<g id="graph0" class="graph" transform="scale(1 1) rotate(0) translate(4 258.25)">
<title>llvm::MachineRegion</title>
<!-- Node1 -->
<g id="Node000001" class="node">
<title>Node1</title>
<g id="a_Node000001"><a xlink:title=" ">
<polygon fill="#999999" stroke="#666666" points="228.62,-19.25 121.12,-19.25 121.12,0 228.62,0 228.62,-19.25"/>
<text xml:space="preserve" text-anchor="middle" x="174.88" y="-5.75" font-family="Helvetica,sans-Serif" font-size="10.00">llvm::MachineRegion</text>
</a>
</g>
</g>
<!-- Node2 -->
<g id="Node000002" class="node">
<title>Node2</title>
<g id="a_Node000002"><a xlink:href="classllvm_1_1RegionBase.html" target="_top" xlink:title=" ">
<polygon fill="white" stroke="#666666" points="245.88,-86.75 103.88,-86.75 103.88,-56.25 245.88,-56.25 245.88,-86.75"/>
<text xml:space="preserve" text-anchor="start" x="111.88" y="-73.25" font-family="Helvetica,sans-Serif" font-size="10.00">llvm::RegionBase&lt; Region</text>
<text xml:space="preserve" text-anchor="middle" x="174.88" y="-62" font-family="Helvetica,sans-Serif" font-size="10.00">Traits&lt; MachineFunction &gt; &gt;</text>
</a>
</g>
</g>
<!-- Node2&#45;&gt;Node1 -->
<g id="edge1_Node000001_Node000002" class="edge">
<title>Node2&#45;&gt;Node1</title>
<g id="a_edge1_Node000001_Node000002"><a xlink:title=" ">
<path fill="none" stroke="#63b8ff" d="M174.88,-44.77C174.88,-35.79 174.88,-26.29 174.88,-19.6"/>
<polygon fill="#63b8ff" stroke="#63b8ff" points="171.38,-44.49 174.88,-54.49 178.38,-44.49 171.38,-44.49"/>
</a>
</g>
</g>
<!-- Node3 -->
<g id="Node000003" class="node">
<title>Node3</title>
<g id="a_Node000003"><a xlink:href="classllvm_1_1RegionNodeBase.html" target="_top" xlink:title=" ">
<polygon fill="white" stroke="#666666" points="181.75,-170.5 0,-170.5 0,-140 181.75,-140 181.75,-170.5"/>
<text xml:space="preserve" text-anchor="start" x="8" y="-157" font-family="Helvetica,sans-Serif" font-size="10.00">llvm::RegionNodeBase</text>
<text xml:space="preserve" text-anchor="middle" x="90.88" y="-145.75" font-family="Helvetica,sans-Serif" font-size="10.00">&lt; RegionTraits&lt; MachineFunction &gt; &gt;</text>
</a>
</g>
</g>
<!-- Node3&#45;&gt;Node2 -->
<g id="edge2_Node000002_Node000003" class="edge">
<title>Node3&#45;&gt;Node2</title>
<g id="a_edge2_Node000002_Node000003"><a xlink:title=" ">
<path fill="none" stroke="#63b8ff" d="M114.01,-131.73C128.69,-117.45 147.25,-99.39 159.99,-86.99"/>
<polygon fill="#63b8ff" stroke="#63b8ff" points="111.7,-129.1 106.98,-138.58 116.58,-134.11 111.7,-129.1"/>
</a>
</g>
</g>
<!-- Node4 -->
<g id="Node000004" class="node">
<title>Node4</title>
<g id="a_Node000004"><a xlink:href="classllvm_1_1RegionNodeBase.html" target="_top" xlink:title="A RegionNode represents a subregion or a BasicBlock that is part of a Region.">
<polygon fill="white" stroke="#666666" points="140.12,-254.25 23.62,-254.25 23.62,-223.75 140.12,-223.75 140.12,-254.25"/>
<text xml:space="preserve" text-anchor="start" x="31.62" y="-240.75" font-family="Helvetica,sans-Serif" font-size="10.00">llvm::RegionNodeBase</text>
<text xml:space="preserve" text-anchor="middle" x="81.88" y="-229.5" font-family="Helvetica,sans-Serif" font-size="10.00">&lt; Tr &gt;</text>
</a>
</g>
</g>
<!-- Node4&#45;&gt;Node3 -->
<g id="edge3_Node000003_Node000004" class="edge">
<title>Node4&#45;&gt;Node3</title>
<g id="a_edge3_Node000003_Node000004"><a xlink:title=" ">
<path fill="none" stroke="orange" stroke-dasharray="5,2" d="M84.71,-212.22C86.22,-198.53 88.02,-182.21 89.28,-170.74"/>
<polygon fill="orange" stroke="orange" points="81.27,-211.56 83.65,-221.88 88.22,-212.32 81.27,-211.56"/>
</a>
</g>
<text xml:space="preserve" text-anchor="start" x="90.18" y="-193.25" font-family="Helvetica,sans-Serif" font-size="10.00" fill="grey">&lt; RegionTraits&lt; MachineFunction &gt; &gt;</text>
</g>
<!-- Node5 -->
<g id="Node000005" class="node">
<title>Node5</title>
<g id="a_Node000005"><a xlink:href="classllvm_1_1RegionBase.html" target="_top" xlink:title="A single entry single exit Region.">
<polygon fill="white" stroke="#666666" points="324,-164.88 203.75,-164.88 203.75,-145.62 324,-145.62 324,-164.88"/>
<text xml:space="preserve" text-anchor="middle" x="263.88" y="-151.38" font-family="Helvetica,sans-Serif" font-size="10.00">llvm::RegionBase&lt; Tr &gt;</text>
</a>
</g>
</g>
<!-- Node5&#45;&gt;Node2 -->
<g id="edge4_Node000002_Node000005" class="edge">
<title>Node5&#45;&gt;Node2</title>
<g id="a_edge4_Node000002_Node000005"><a xlink:title=" ">
<path fill="none" stroke="orange" stroke-dasharray="5,2" d="M245.89,-137.73C229.74,-122.9 206.26,-101.33 190.78,-87.11"/>
<polygon fill="orange" stroke="orange" points="243.16,-139.98 252.9,-144.17 247.9,-134.82 243.16,-139.98"/>
</a>
</g>
<text xml:space="preserve" text-anchor="start" x="230.35" y="-109.5" font-family="Helvetica,sans-Serif" font-size="10.00" fill="grey">&lt; RegionTraits&lt; MachineFunction &gt; &gt;</text>
</g>
<!-- Node6 -->
<g id="Node000006" class="node">
<title>Node6</title>
<g id="a_Node000006"><a xlink:href="classllvm_1_1RegionNodeBase.html" target="_top" xlink:title="A RegionNode represents a subregion or a BasicBlock that is part of a Region.">
<polygon fill="white" stroke="#666666" points="327.12,-254.25 210.62,-254.25 210.62,-223.75 327.12,-223.75 327.12,-254.25"/>
<text xml:space="preserve" text-anchor="start" x="218.62" y="-240.75" font-family="Helvetica,sans-Serif" font-size="10.00">llvm::RegionNodeBase</text>
<text xml:space="preserve" text-anchor="middle" x="268.88" y="-229.5" font-family="Helvetica,sans-Serif" font-size="10.00">&lt; Tr &gt;</text>
</a>
</g>
</g>
<!-- Node6&#45;&gt;Node5 -->
<g id="edge5_Node000005_Node000006" class="edge">
<title>Node6&#45;&gt;Node5</title>
<g id="a_edge5_Node000005_Node000006"><a xlink:title=" ">
<path fill="none" stroke="#63b8ff" d="M267.28,-212C266.3,-195.95 265.1,-176.35 264.42,-165.18"/>
<polygon fill="#63b8ff" stroke="#63b8ff" points="263.78,-212.11 267.89,-221.87 270.77,-211.68 263.78,-212.11"/>
</a>
</g>
</g>
</g>
</svg>
