<?xml version="1.0" encoding="UTF-8" standalone="no"?>
<!DOCTYPE svg PUBLIC "-//W3C//DTD SVG 1.1//EN"
 "http://www.w3.org/Graphics/SVG/1.1/DTD/svg11.dtd">
<!-- Generated by graphviz version 13.1.2 (20250808.2320)
 -->
<!-- Title: llvm::RTTIExtends&lt; ThisT, ParentT, ParentTs &gt; Pages: 1 -->
<svg width="1231pt" height="812pt"
 viewBox="0.00 0.00 1231.00 812.00" xmlns="http://www.w3.org/2000/svg" xmlns:xlink="http://www.w3.org/1999/xlink">
<g id="graph0" class="graph" transform="scale(1 1) rotate(0) translate(4 807.81)">
<title>llvm::RTTIExtends&lt; ThisT, ParentT, ParentTs &gt;</title>
<!-- Node1 -->
<g id="Node000001" class="node">
<title>Node1</title>
<g id="a_Node000001"><a xlink:title="Inheritance utility for extensible RTTI.">
<polygon fill="#999999" stroke="#666666" points="234.75,-397.64 100.25,-397.64 100.25,-367.14 234.75,-367.14 234.75,-397.64"/>
<text xml:space="preserve" text-anchor="start" x="108.25" y="-384.14" font-family="Helvetica,sans-Serif" font-size="10.00">llvm::RTTIExtends&lt;</text>
<text xml:space="preserve" text-anchor="middle" x="167.5" y="-372.89" font-family="Helvetica,sans-Serif" font-size="10.00"> ThisT, ParentT, ParentTs &gt;</text>
</a>
</g>
</g>
<!-- Node4 -->
<g id="Node000004" class="node">
<title>Node4</title>
<g id="a_Node000004"><a xlink:href="classllvm_1_1RTTIExtends.html" target="_top" xlink:title=" ">
<polygon fill="white" stroke="#666666" points="536.5,-779.26 432,-779.26 432,-737.51 536.5,-737.51 536.5,-779.26"/>
<text xml:space="preserve" text-anchor="start" x="440" y="-765.76" font-family="Helvetica,sans-Serif" font-size="10.00">llvm::RTTIExtends&lt;</text>
<text xml:space="preserve" text-anchor="start" x="440" y="-754.51" font-family="Helvetica,sans-Serif" font-size="10.00"> ObjectLinkingLayer,</text>
<text xml:space="preserve" text-anchor="middle" x="484.25" y="-743.26" font-family="Helvetica,sans-Serif" font-size="10.00"> ObjectLayer &gt;</text>
</a>
</g>
</g>
<!-- Node1&#45;&gt;Node4 -->
<g id="edge3_Node000001_Node000004" class="edge">
<title>Node1&#45;&gt;Node4</title>
<g id="a_edge3_Node000001_Node000004"><a xlink:title=" ">
<path fill="none" stroke="orange" stroke-dasharray="5,2" d="M171.04,-409.21C178.65,-483.48 203.83,-689.18 252.75,-732.39 301.35,-775.31 379.99,-774.53 431.66,-768.04"/>
<polygon fill="orange" stroke="orange" points="174.56,-409.19 170.08,-399.59 167.59,-409.89 174.56,-409.19"/>
</a>
</g>
<text xml:space="preserve" text-anchor="start" x="272.62" y="-791.31" font-family="Helvetica,sans-Serif" font-size="10.00" fill="grey">&lt; ObjectLinkingLayer,</text>
<text xml:space="preserve" text-anchor="start" x="272.62" y="-776.06" font-family="Helvetica,sans-Serif" font-size="10.00" fill="grey">   ObjectLayer &gt;</text>
</g>
<!-- Node6 -->
<g id="Node000006" class="node">
<title>Node6</title>
<g id="a_Node000006"><a xlink:href="classllvm_1_1RTTIExtends.html" target="_top" xlink:title=" ">
<polygon fill="white" stroke="#666666" points="543.25,-719.26 425.25,-719.26 425.25,-677.51 543.25,-677.51 543.25,-719.26"/>
<text xml:space="preserve" text-anchor="start" x="433.25" y="-705.76" font-family="Helvetica,sans-Serif" font-size="10.00">llvm::RTTIExtends&lt;</text>
<text xml:space="preserve" text-anchor="start" x="433.25" y="-694.51" font-family="Helvetica,sans-Serif" font-size="10.00"> ObjectTransformLayer,</text>
<text xml:space="preserve" text-anchor="middle" x="484.25" y="-683.26" font-family="Helvetica,sans-Serif" font-size="10.00"> ObjectLayer &gt;</text>
</a>
</g>
</g>
<!-- Node1&#45;&gt;Node6 -->
<g id="edge5_Node000001_Node000006" class="edge">
<title>Node1&#45;&gt;Node6</title>
<g id="a_edge5_Node000001_Node000006"><a xlink:title=" ">
<path fill="none" stroke="orange" stroke-dasharray="5,2" d="M172.5,-409.19C182.75,-474.11 212.07,-636.99 252.75,-671.39 277.94,-692.69 365.21,-697.79 424.84,-698.69"/>
<polygon fill="orange" stroke="orange" points="175.97,-408.76 170.99,-399.41 169.06,-409.83 175.97,-408.76"/>
</a>
</g>
<text xml:space="preserve" text-anchor="start" x="265.88" y="-717.37" font-family="Helvetica,sans-Serif" font-size="10.00" fill="grey">&lt; ObjectTransformLayer,</text>
<text xml:space="preserve" text-anchor="start" x="265.88" y="-702.12" font-family="Helvetica,sans-Serif" font-size="10.00" fill="grey">   ObjectLayer &gt;</text>
</g>
<!-- Node8 -->
<g id="Node000008" class="node">
<title>Node8</title>
<g id="a_Node000008"><a xlink:href="classllvm_1_1RTTIExtends.html" target="_top" xlink:title=" ">
<polygon fill="white" stroke="#666666" points="554.88,-659.64 413.62,-659.64 413.62,-629.14 554.88,-629.14 554.88,-659.64"/>
<text xml:space="preserve" text-anchor="start" x="421.62" y="-646.14" font-family="Helvetica,sans-Serif" font-size="10.00">llvm::RTTIExtends&lt;</text>
<text xml:space="preserve" text-anchor="middle" x="484.25" y="-634.89" font-family="Helvetica,sans-Serif" font-size="10.00"> GenericNamedTask, Task &gt;</text>
</a>
</g>
</g>
<!-- Node1&#45;&gt;Node8 -->
<g id="edge7_Node000001_Node000008" class="edge">
<title>Node1&#45;&gt;Node8</title>
<g id="a_edge7_Node000001_Node000008"><a xlink:title=" ">
<path fill="none" stroke="orange" stroke-dasharray="5,2" d="M169.79,-409.26C173.7,-458.15 189.44,-561.31 252.75,-612.39 265.17,-622.41 350.06,-632.25 413.24,-638.32"/>
<polygon fill="orange" stroke="orange" points="173.3,-409.31 169.13,-399.57 166.32,-409.78 173.3,-409.31"/>
</a>
</g>
<text xml:space="preserve" text-anchor="start" x="270.75" y="-655.18" font-family="Helvetica,sans-Serif" font-size="10.00" fill="grey">&lt; GenericNamedTask,</text>
<text xml:space="preserve" text-anchor="start" x="270.75" y="-639.93" font-family="Helvetica,sans-Serif" font-size="10.00" fill="grey">   Task &gt;</text>
</g>
<!-- Node11 -->
<g id="Node000011" class="node">
<title>Node11</title>
<g id="a_Node000011"><a xlink:href="classllvm_1_1RTTIExtends.html" target="_top" xlink:title=" ">
<polygon fill="white" stroke="#666666" points="536.5,-610.64 432,-610.64 432,-580.14 536.5,-580.14 536.5,-610.64"/>
<text xml:space="preserve" text-anchor="start" x="440" y="-597.14" font-family="Helvetica,sans-Serif" font-size="10.00">llvm::RTTIExtends&lt;</text>
<text xml:space="preserve" text-anchor="middle" x="484.25" y="-585.89" font-family="Helvetica,sans-Serif" font-size="10.00"> IdleTask, Task &gt;</text>
</a>
</g>
</g>
<!-- Node1&#45;&gt;Node11 -->
<g id="edge10_Node000001_Node000011" class="edge">
<title>Node1&#45;&gt;Node11</title>
<g id="a_edge10_Node000001_Node000011"><a xlink:title=" ">
<path fill="none" stroke="orange" stroke-dasharray="5,2" d="M172.64,-409.12C180.45,-449.81 201.47,-526.57 252.75,-564.39 280.29,-584.7 372.41,-591.7 431.52,-594.12"/>
<polygon fill="orange" stroke="orange" points="176.11,-408.68 170.92,-399.45 169.22,-409.91 176.11,-408.68"/>
</a>
</g>
<text xml:space="preserve" text-anchor="start" x="279" y="-596.14" font-family="Helvetica,sans-Serif" font-size="10.00" fill="grey">&lt; IdleTask, Task &gt;</text>
</g>
<!-- Node14 -->
<g id="Node000014" class="node">
<title>Node14</title>
<g id="a_Node000014"><a xlink:href="classllvm_1_1RTTIExtends.html" target="_top" xlink:title=" ">
<polygon fill="white" stroke="#666666" points="538,-561.64 430.5,-561.64 430.5,-531.14 538,-531.14 538,-561.64"/>
<text xml:space="preserve" text-anchor="start" x="438.5" y="-548.14" font-family="Helvetica,sans-Serif" font-size="10.00">llvm::RTTIExtends&lt;</text>
<text xml:space="preserve" text-anchor="middle" x="484.25" y="-536.89" font-family="Helvetica,sans-Serif" font-size="10.00"> LookupTask, Task &gt;</text>
</a>
</g>
</g>
<!-- Node1&#45;&gt;Node14 -->
<g id="edge13_Node000001_Node000014" class="edge">
<title>Node1&#45;&gt;Node14</title>
<g id="a_edge13_Node000001_Node000014"><a xlink:title=" ">
<path fill="none" stroke="orange" stroke-dasharray="5,2" d="M176.71,-408.68C188.18,-440.66 212.29,-493.57 252.75,-519.39 281.24,-537.57 371.36,-543.52 430.12,-545.46"/>
<polygon fill="orange" stroke="orange" points="180.07,-407.7 173.53,-399.36 173.44,-409.96 180.07,-407.7"/>
</a>
</g>
<text xml:space="preserve" text-anchor="start" x="271.12" y="-548.04" font-family="Helvetica,sans-Serif" font-size="10.00" fill="grey">&lt; LookupTask, Task &gt;</text>
</g>
<!-- Node16 -->
<g id="Node000016" class="node">
<title>Node16</title>
<g id="a_Node000016"><a xlink:href="classllvm_1_1RTTIExtends.html" target="_top" xlink:title=" ">
<polygon fill="white" stroke="#666666" points="537.25,-513.26 431.25,-513.26 431.25,-471.51 537.25,-471.51 537.25,-513.26"/>
<text xml:space="preserve" text-anchor="start" x="439.25" y="-499.76" font-family="Helvetica,sans-Serif" font-size="10.00">llvm::RTTIExtends&lt;</text>
<text xml:space="preserve" text-anchor="start" x="439.25" y="-488.51" font-family="Helvetica,sans-Serif" font-size="10.00"> MaterializationTask,</text>
<text xml:space="preserve" text-anchor="middle" x="484.25" y="-477.26" font-family="Helvetica,sans-Serif" font-size="10.00"> Task &gt;</text>
</a>
</g>
</g>
<!-- Node1&#45;&gt;Node16 -->
<g id="edge15_Node000001_Node000016" class="edge">
<title>Node1&#45;&gt;Node16</title>
<g id="a_edge15_Node000001_Node000016"><a xlink:title=" ">
<path fill="none" stroke="orange" stroke-dasharray="5,2" d="M188.78,-406.29C204.46,-423.12 227.68,-444.65 252.75,-456.39 283.52,-470.79 372.94,-481.78 430.93,-487.64"/>
<polygon fill="orange" stroke="orange" points="191.61,-404.2 182.31,-399.13 186.41,-408.9 191.61,-404.2"/>
</a>
</g>
<text xml:space="preserve" text-anchor="start" x="271.88" y="-502.63" font-family="Helvetica,sans-Serif" font-size="10.00" fill="grey">&lt; MaterializationTask,</text>
<text xml:space="preserve" text-anchor="start" x="271.88" y="-487.38" font-family="Helvetica,sans-Serif" font-size="10.00" fill="grey">   Task &gt;</text>
</g>
<!-- Node18 -->
<g id="Node000018" class="node">
<title>Node18</title>
<g id="a_Node000018"><a xlink:href="classllvm_1_1RTTIExtends.html" target="_top" xlink:title=" ">
<polygon fill="white" stroke="#666666" points="548.88,-453.64 419.62,-453.64 419.62,-423.14 548.88,-423.14 548.88,-453.64"/>
<text xml:space="preserve" text-anchor="start" x="427.62" y="-440.14" font-family="Helvetica,sans-Serif" font-size="10.00">llvm::RTTIExtends&lt;</text>
<text xml:space="preserve" text-anchor="middle" x="484.25" y="-428.89" font-family="Helvetica,sans-Serif" font-size="10.00"> ObjectLayer, RTTIRoot &gt;</text>
</a>
</g>
</g>
<!-- Node1&#45;&gt;Node18 -->
<g id="edge17_Node000001_Node000018" class="edge">
<title>Node1&#45;&gt;Node18</title>
<g id="a_edge17_Node000001_Node000018"><a xlink:title=" ">
<path fill="none" stroke="orange" stroke-dasharray="5,2" d="M211.5,-402.52C224.5,-407.84 238.98,-413.03 252.75,-416.39 308.01,-429.87 372.6,-435.17 419.33,-437.22"/>
<polygon fill="orange" stroke="orange" points="212.95,-399.33 202.38,-398.65 210.22,-405.77 212.95,-399.33"/>
</a>
</g>
<text xml:space="preserve" text-anchor="start" x="260.25" y="-439.86" font-family="Helvetica,sans-Serif" font-size="10.00" fill="grey">&lt; ObjectLayer, RTTIRoot &gt;</text>
</g>
<!-- Node21 -->
<g id="Node000021" class="node">
<title>Node21</title>
<g id="a_Node000021"><a xlink:href="classllvm_1_1RTTIExtends.html" target="_top" xlink:title=" ">
<polygon fill="white" stroke="#666666" points="553.38,-405.26 415.12,-405.26 415.12,-363.51 553.38,-363.51 553.38,-405.26"/>
<text xml:space="preserve" text-anchor="start" x="423.12" y="-391.76" font-family="Helvetica,sans-Serif" font-size="10.00">llvm::RTTIExtends&lt;</text>
<text xml:space="preserve" text-anchor="start" x="423.12" y="-380.51" font-family="Helvetica,sans-Serif" font-size="10.00"> RTDyldObjectLinkingLayer,</text>
<text xml:space="preserve" text-anchor="middle" x="484.25" y="-369.26" font-family="Helvetica,sans-Serif" font-size="10.00"> ObjectLayer &gt;</text>
</a>
</g>
</g>
<!-- Node1&#45;&gt;Node21 -->
<g id="edge20_Node000001_Node000021" class="edge">
<title>Node1&#45;&gt;Node21</title>
<g id="a_edge20_Node000001_Node000021"><a xlink:title=" ">
<path fill="none" stroke="orange" stroke-dasharray="5,2" d="M246.31,-382.88C297.98,-383.21 365.17,-383.64 414.8,-383.95"/>
<polygon fill="orange" stroke="orange" points="246.4,-379.38 236.38,-382.82 246.36,-386.38 246.4,-379.38"/>
</a>
</g>
<text xml:space="preserve" text-anchor="start" x="255.75" y="-403.74" font-family="Helvetica,sans-Serif" font-size="10.00" fill="grey">&lt; RTDyldObjectLinkingLayer,</text>
<text xml:space="preserve" text-anchor="start" x="255.75" y="-388.49" font-family="Helvetica,sans-Serif" font-size="10.00" fill="grey">   ObjectLayer &gt;</text>
</g>
<!-- Node23 -->
<g id="Node000023" class="node">
<title>Node23</title>
<g id="a_Node000023"><a xlink:href="classllvm_1_1RTTIExtends.html" target="_top" xlink:title=" ">
<polygon fill="white" stroke="#666666" points="536.5,-345.64 432,-345.64 432,-315.14 536.5,-315.14 536.5,-345.64"/>
<text xml:space="preserve" text-anchor="start" x="440" y="-332.14" font-family="Helvetica,sans-Serif" font-size="10.00">llvm::RTTIExtends&lt;</text>
<text xml:space="preserve" text-anchor="middle" x="484.25" y="-320.89" font-family="Helvetica,sans-Serif" font-size="10.00"> Task, RTTIRoot &gt;</text>
</a>
</g>
</g>
<!-- Node1&#45;&gt;Node23 -->
<g id="edge22_Node000001_Node000023" class="edge">
<title>Node1&#45;&gt;Node23</title>
<g id="a_edge22_Node000001_Node000023"><a xlink:title=" ">
<path fill="none" stroke="orange" stroke-dasharray="5,2" d="M241.93,-364.29C245.58,-363.53 249.2,-362.81 252.75,-362.14 313.88,-350.61 384.88,-341.46 431.75,-336"/>
<polygon fill="orange" stroke="orange" points="241.44,-360.81 232.4,-366.34 242.91,-367.65 241.44,-360.81"/>
</a>
</g>
<text xml:space="preserve" text-anchor="start" x="275.62" y="-366.89" font-family="Helvetica,sans-Serif" font-size="10.00" fill="grey">&lt; Task, RTTIRoot &gt;</text>
</g>
<!-- Node25 -->
<g id="Node000025" class="node">
<title>Node25</title>
<g id="a_Node000025"><a xlink:href="classllvm_1_1RTTIExtends.html" target="_top" xlink:title=" ">
<polygon fill="white" stroke="#666666" points="547.75,-296.64 420.75,-296.64 420.75,-266.14 547.75,-266.14 547.75,-296.64"/>
<text xml:space="preserve" text-anchor="start" x="428.75" y="-283.14" font-family="Helvetica,sans-Serif" font-size="10.00">llvm::RTTIExtends&lt;</text>
<text xml:space="preserve" text-anchor="middle" x="484.25" y="-271.89" font-family="Helvetica,sans-Serif" font-size="10.00"> FileSystem, RTTIRoot &gt;</text>
</a>
</g>
</g>
<!-- Node1&#45;&gt;Node25 -->
<g id="edge24_Node000001_Node000025" class="edge">
<title>Node1&#45;&gt;Node25</title>
<g id="a_edge24_Node000001_Node000025"><a xlink:title=" ">
<path fill="none" stroke="orange" stroke-dasharray="5,2" d="M193.75,-359.25C209.57,-346.04 231.03,-330.32 252.75,-321.14 306.62,-298.38 372.81,-288.65 420.43,-284.49"/>
<polygon fill="orange" stroke="orange" points="191.57,-356.51 186.27,-365.69 196.14,-361.82 191.57,-356.51"/>
</a>
</g>
<text xml:space="preserve" text-anchor="start" x="261.38" y="-325.89" font-family="Helvetica,sans-Serif" font-size="10.00" fill="grey">&lt; FileSystem, RTTIRoot &gt;</text>
</g>
<!-- Node27 -->
<g id="Node000027" class="node">
<title>Node27</title>
<g id="a_Node000027"><a xlink:href="classllvm_1_1RTTIExtends.html" target="_top" xlink:title=" ">
<polygon fill="white" stroke="#666666" points="1044.25,-260.26 923.25,-260.26 923.25,-218.51 1044.25,-218.51 1044.25,-260.26"/>
<text xml:space="preserve" text-anchor="start" x="931.25" y="-246.76" font-family="Helvetica,sans-Serif" font-size="10.00">llvm::RTTIExtends&lt;</text>
<text xml:space="preserve" text-anchor="start" x="931.25" y="-235.51" font-family="Helvetica,sans-Serif" font-size="10.00"> RedirectingFileSystem,</text>
<text xml:space="preserve" text-anchor="middle" x="983.75" y="-224.26" font-family="Helvetica,sans-Serif" font-size="10.00"> vfs::FileSystem &gt;</text>
</a>
</g>
</g>
<!-- Node1&#45;&gt;Node27 -->
<g id="edge35_Node000001_Node000027" class="edge">
<title>Node1&#45;&gt;Node27</title>
<g id="a_edge35_Node000001_Node000027"><a xlink:title=" ">
<path fill="none" stroke="orange" stroke-dasharray="5,2" d="M183.08,-357.19C197.68,-334.36 222.32,-301.73 252.75,-284.39 366.3,-219.66 769.33,-229.94 922.81,-236.44"/>
<polygon fill="orange" stroke="orange" points="180.16,-355.26 177.88,-365.61 186.11,-358.93 180.16,-355.26"/>
</a>
</g>
<text xml:space="preserve" text-anchor="start" x="584.5" y="-253.38" font-family="Helvetica,sans-Serif" font-size="10.00" fill="grey">&lt; RedirectingFileSystem,</text>
<text xml:space="preserve" text-anchor="start" x="584.5" y="-238.13" font-family="Helvetica,sans-Serif" font-size="10.00" fill="grey">   vfs::FileSystem &gt;</text>
</g>
<!-- Node30 -->
<g id="Node000030" class="node">
<title>Node30</title>
<g id="a_Node000030"><a xlink:href="classllvm_1_1RTTIExtends.html" target="_top" xlink:title=" ">
<polygon fill="white" stroke="#666666" points="541.75,-210.26 426.75,-210.26 426.75,-168.51 541.75,-168.51 541.75,-210.26"/>
<text xml:space="preserve" text-anchor="start" x="434.75" y="-196.76" font-family="Helvetica,sans-Serif" font-size="10.00">llvm::RTTIExtends&lt;</text>
<text xml:space="preserve" text-anchor="start" x="434.75" y="-185.51" font-family="Helvetica,sans-Serif" font-size="10.00"> InMemoryFileSystem,</text>
<text xml:space="preserve" text-anchor="middle" x="484.25" y="-174.26" font-family="Helvetica,sans-Serif" font-size="10.00"> FileSystem &gt;</text>
</a>
</g>
</g>
<!-- Node1&#45;&gt;Node30 -->
<g id="edge29_Node000001_Node000030" class="edge">
<title>Node1&#45;&gt;Node30</title>
<g id="a_edge29_Node000001_Node000030"><a xlink:title=" ">
<path fill="none" stroke="orange" stroke-dasharray="5,2" d="M171.39,-355.48C177.64,-312.34 196.7,-228.82 252.75,-191.89 280.24,-173.78 367.57,-177.91 426.49,-183.18"/>
<polygon fill="orange" stroke="orange" points="167.94,-354.88 170.12,-365.25 174.88,-355.78 167.94,-354.88"/>
</a>
</g>
<text xml:space="preserve" text-anchor="start" x="267.38" y="-211.89" font-family="Helvetica,sans-Serif" font-size="10.00" fill="grey">&lt; InMemoryFileSystem,</text>
<text xml:space="preserve" text-anchor="start" x="267.38" y="-196.64" font-family="Helvetica,sans-Serif" font-size="10.00" fill="grey">   FileSystem &gt;</text>
</g>
<!-- Node32 -->
<g id="Node000032" class="node">
<title>Node32</title>
<g id="a_Node000032"><a xlink:href="classllvm_1_1RTTIExtends.html" target="_top" xlink:title=" ">
<polygon fill="white" stroke="#666666" points="536.88,-150.26 431.62,-150.26 431.62,-108.51 536.88,-108.51 536.88,-150.26"/>
<text xml:space="preserve" text-anchor="start" x="439.62" y="-136.76" font-family="Helvetica,sans-Serif" font-size="10.00">llvm::RTTIExtends&lt;</text>
<text xml:space="preserve" text-anchor="start" x="439.62" y="-125.51" font-family="Helvetica,sans-Serif" font-size="10.00"> OverlayFileSystem,</text>
<text xml:space="preserve" text-anchor="middle" x="484.25" y="-114.26" font-family="Helvetica,sans-Serif" font-size="10.00"> FileSystem &gt;</text>
</a>
</g>
</g>
<!-- Node1&#45;&gt;Node32 -->
<g id="edge31_Node000001_Node000032" class="edge">
<title>Node1&#45;&gt;Node32</title>
<g id="a_edge31_Node000001_Node000032"><a xlink:title=" ">
<path fill="none" stroke="orange" stroke-dasharray="5,2" d="M168.89,-355.24C171.25,-303.91 184.44,-193.18 252.75,-141.89 279.87,-121.53 371.88,-122.62 431.13,-125.71"/>
<polygon fill="orange" stroke="orange" points="165.39,-355.03 168.55,-365.15 172.39,-355.27 165.39,-355.03"/>
</a>
</g>
<text xml:space="preserve" text-anchor="start" x="272.25" y="-161.89" font-family="Helvetica,sans-Serif" font-size="10.00" fill="grey">&lt; OverlayFileSystem,</text>
<text xml:space="preserve" text-anchor="start" x="272.25" y="-146.64" font-family="Helvetica,sans-Serif" font-size="10.00" fill="grey">   FileSystem &gt;</text>
</g>
<!-- Node34 -->
<g id="Node000034" class="node">
<title>Node34</title>
<g id="a_Node000034"><a xlink:href="classllvm_1_1RTTIExtends.html" target="_top" xlink:title=" ">
<polygon fill="white" stroke="#666666" points="563.5,-90.64 405,-90.64 405,-60.14 563.5,-60.14 563.5,-90.64"/>
<text xml:space="preserve" text-anchor="start" x="413" y="-77.14" font-family="Helvetica,sans-Serif" font-size="10.00">llvm::RTTIExtends&lt;</text>
<text xml:space="preserve" text-anchor="middle" x="484.25" y="-65.89" font-family="Helvetica,sans-Serif" font-size="10.00"> ProxyFileSystem, FileSystem &gt;</text>
</a>
</g>
</g>
<!-- Node1&#45;&gt;Node34 -->
<g id="edge33_Node000001_Node000034" class="edge">
<title>Node1&#45;&gt;Node34</title>
<g id="a_edge33_Node000001_Node000034"><a xlink:title=" ">
<path fill="none" stroke="orange" stroke-dasharray="5,2" d="M172.16,-355.79C181.81,-289.88 210.18,-121.83 252.75,-87.89 275.58,-69.68 347.13,-68.15 404.52,-70.22"/>
<polygon fill="orange" stroke="orange" points="168.74,-354.96 170.79,-365.36 175.67,-355.95 168.74,-354.96"/>
</a>
</g>
<text xml:space="preserve" text-anchor="start" x="276.38" y="-107.89" font-family="Helvetica,sans-Serif" font-size="10.00" fill="grey">&lt; ProxyFileSystem,</text>
<text xml:space="preserve" text-anchor="start" x="276.38" y="-92.64" font-family="Helvetica,sans-Serif" font-size="10.00" fill="grey">   FileSystem &gt;</text>
</g>
<!-- Node36 -->
<g id="Node000036" class="node">
<title>Node36</title>
<g id="a_Node000036"><a xlink:href="classllvm_1_1RTTIExtends.html" target="_top" xlink:title=" ">
<polygon fill="white" stroke="#666666" points="536.5,-42.26 432,-42.26 432,-0.51 536.5,-0.51 536.5,-42.26"/>
<text xml:space="preserve" text-anchor="start" x="440" y="-28.76" font-family="Helvetica,sans-Serif" font-size="10.00">llvm::RTTIExtends&lt;</text>
<text xml:space="preserve" text-anchor="start" x="440" y="-17.51" font-family="Helvetica,sans-Serif" font-size="10.00"> TracingFileSystem,</text>
<text xml:space="preserve" text-anchor="middle" x="484.25" y="-6.26" font-family="Helvetica,sans-Serif" font-size="10.00"> ProxyFileSystem &gt;</text>
</a>
</g>
</g>
<!-- Node1&#45;&gt;Node36 -->
<g id="edge36_Node000001_Node000036" class="edge">
<title>Node1&#45;&gt;Node36</title>
<g id="a_edge36_Node000001_Node000036"><a xlink:title=" ">
<path fill="none" stroke="orange" stroke-dasharray="5,2" d="M170.86,-355.95C178.08,-281.8 202.45,-74.58 252.75,-32.89 302.26,8.15 380.29,2.25 431.62,-7.86"/>
<polygon fill="orange" stroke="orange" points="167.41,-355.25 169.96,-365.54 174.38,-355.91 167.41,-355.25"/>
</a>
</g>
<text xml:space="preserve" text-anchor="start" x="273" y="-52.89" font-family="Helvetica,sans-Serif" font-size="10.00" fill="grey">&lt; TracingFileSystem,</text>
<text xml:space="preserve" text-anchor="start" x="273" y="-37.64" font-family="Helvetica,sans-Serif" font-size="10.00" fill="grey">   ProxyFileSystem &gt;</text>
</g>
<!-- Node2 -->
<g id="Node000002" class="node">
<title>Node2</title>
<g id="a_Node000002"><a xlink:href="classParentT.html" target="_top" xlink:title=" ">
<polygon fill="white" stroke="#666666" points="56.88,-411.01 6.38,-411.01 6.38,-391.76 56.88,-391.76 56.88,-411.01"/>
<text xml:space="preserve" text-anchor="middle" x="31.62" y="-397.51" font-family="Helvetica,sans-Serif" font-size="10.00">ParentT</text>
</a>
</g>
</g>
<!-- Node2&#45;&gt;Node1 -->
<g id="edge1_Node000001_Node000002" class="edge">
<title>Node2&#45;&gt;Node1</title>
<g id="a_edge1_Node000001_Node000002"><a xlink:title=" ">
<path fill="none" stroke="#63b8ff" d="M68.44,-396.31C78.19,-394.92 89.07,-393.38 99.95,-391.83"/>
<polygon fill="#63b8ff" stroke="#63b8ff" points="68.09,-392.82 58.68,-397.69 69.07,-399.75 68.09,-392.82"/>
</a>
</g>
</g>
<!-- Node3 -->
<g id="Node000003" class="node">
<title>Node3</title>
<g id="a_Node000003"><a xlink:title=" ">
<polygon fill="white" stroke="#666666" points="63.25,-374.01 0,-374.01 0,-354.76 63.25,-354.76 63.25,-374.01"/>
<text xml:space="preserve" text-anchor="middle" x="31.62" y="-360.51" font-family="Helvetica,sans-Serif" font-size="10.00">ParentTs...</text>
</a>
</g>
</g>
<!-- Node3&#45;&gt;Node1 -->
<g id="edge2_Node000001_Node000003" class="edge">
<title>Node3&#45;&gt;Node1</title>
<g id="a_edge2_Node000001_Node000003"><a xlink:title=" ">
<path fill="none" stroke="#63b8ff" d="M74.91,-370.07C82.89,-371.15 91.42,-372.29 99.93,-373.44"/>
<polygon fill="#63b8ff" stroke="#63b8ff" points="75.55,-366.63 65.18,-368.76 74.62,-373.57 75.55,-366.63"/>
</a>
</g>
</g>
<!-- Node5 -->
<g id="Node000005" class="node">
<title>Node5</title>
<g id="a_Node000005"><a xlink:href="classllvm_1_1orc_1_1ObjectLinkingLayer.html" target="_top" xlink:title="An ObjectLayer implementation built on JITLink.">
<polygon fill="white" stroke="#666666" points="852.12,-773.64 733.38,-773.64 733.38,-743.14 852.12,-743.14 852.12,-773.64"/>
<text xml:space="preserve" text-anchor="start" x="741.38" y="-760.14" font-family="Helvetica,sans-Serif" font-size="10.00">llvm::orc::ObjectLinking</text>
<text xml:space="preserve" text-anchor="middle" x="792.75" y="-748.89" font-family="Helvetica,sans-Serif" font-size="10.00">Layer</text>
</a>
</g>
</g>
<!-- Node4&#45;&gt;Node5 -->
<g id="edge4_Node000004_Node000005" class="edge">
<title>Node4&#45;&gt;Node5</title>
<g id="a_edge4_Node000004_Node000005"><a xlink:title=" ">
<path fill="none" stroke="#63b8ff" d="M548.1,-758.39C602.34,-758.39 680.09,-758.39 733.08,-758.39"/>
<polygon fill="#63b8ff" stroke="#63b8ff" points="548.41,-754.89 538.41,-758.39 548.41,-761.89 548.41,-754.89"/>
</a>
</g>
</g>
<!-- Node7 -->
<g id="Node000007" class="node">
<title>Node7</title>
<g id="a_Node000007"><a xlink:href="classllvm_1_1orc_1_1ObjectTransformLayer.html" target="_top" xlink:title=" ">
<polygon fill="white" stroke="#666666" points="858.88,-713.64 726.62,-713.64 726.62,-683.14 858.88,-683.14 858.88,-713.64"/>
<text xml:space="preserve" text-anchor="start" x="734.62" y="-700.14" font-family="Helvetica,sans-Serif" font-size="10.00">llvm::orc::ObjectTransform</text>
<text xml:space="preserve" text-anchor="middle" x="792.75" y="-688.89" font-family="Helvetica,sans-Serif" font-size="10.00">Layer</text>
</a>
</g>
</g>
<!-- Node6&#45;&gt;Node7 -->
<g id="edge6_Node000006_Node000007" class="edge">
<title>Node6&#45;&gt;Node7</title>
<g id="a_edge6_Node000006_Node000007"><a xlink:title=" ">
<path fill="none" stroke="#63b8ff" d="M554.95,-698.39C606.34,-698.39 675.77,-698.39 726.16,-698.39"/>
<polygon fill="#63b8ff" stroke="#63b8ff" points="555.14,-694.89 545.14,-698.39 555.14,-701.89 555.14,-694.89"/>
</a>
</g>
</g>
<!-- Node9 -->
<g id="Node000009" class="node">
<title>Node9</title>
<g id="a_Node000009"><a xlink:href="classllvm_1_1orc_1_1GenericNamedTask.html" target="_top" xlink:title="Base class for generic tasks.">
<polygon fill="white" stroke="#666666" points="865.62,-654.01 719.88,-654.01 719.88,-634.76 865.62,-634.76 865.62,-654.01"/>
<text xml:space="preserve" text-anchor="middle" x="792.75" y="-640.51" font-family="Helvetica,sans-Serif" font-size="10.00">llvm::orc::GenericNamedTask</text>
</a>
</g>
</g>
<!-- Node8&#45;&gt;Node9 -->
<g id="edge8_Node000008_Node000009" class="edge">
<title>Node8&#45;&gt;Node9</title>
<g id="a_edge8_Node000008_Node000009"><a xlink:title=" ">
<path fill="none" stroke="#63b8ff" d="M566.68,-644.39C614.19,-644.39 673.6,-644.39 719.45,-644.39"/>
<polygon fill="#63b8ff" stroke="#63b8ff" points="566.7,-640.89 556.7,-644.39 566.7,-647.89 566.7,-640.89"/>
</a>
</g>
</g>
<!-- Node10 -->
<g id="Node000010" class="node">
<title>Node10</title>
<g id="a_Node000010"><a xlink:href="classllvm_1_1orc_1_1GenericNamedTaskImpl.html" target="_top" xlink:title="Generic task implementation.">
<polygon fill="white" stroke="#666666" points="1056.62,-659.64 910.88,-659.64 910.88,-629.14 1056.62,-629.14 1056.62,-659.64"/>
<text xml:space="preserve" text-anchor="start" x="918.88" y="-646.14" font-family="Helvetica,sans-Serif" font-size="10.00">llvm::orc::GenericNamedTask</text>
<text xml:space="preserve" text-anchor="middle" x="983.75" y="-634.89" font-family="Helvetica,sans-Serif" font-size="10.00">Impl&lt; FnT &gt;</text>
</a>
</g>
</g>
<!-- Node9&#45;&gt;Node10 -->
<g id="edge9_Node000009_Node000010" class="edge">
<title>Node9&#45;&gt;Node10</title>
<g id="a_edge9_Node000009_Node000010"><a xlink:title=" ">
<path fill="none" stroke="#63b8ff" d="M877.42,-644.39C888.46,-644.39 899.7,-644.39 910.53,-644.39"/>
<polygon fill="#63b8ff" stroke="#63b8ff" points="877.53,-640.89 867.53,-644.39 877.53,-647.89 877.53,-640.89"/>
</a>
</g>
</g>
<!-- Node12 -->
<g id="Node000012" class="node">
<title>Node12</title>
<g id="a_Node000012"><a xlink:href="classllvm_1_1orc_1_1IdleTask.html" target="_top" xlink:title="IdleTask can be used as the basis for low&#45;priority tasks, e.g.">
<polygon fill="white" stroke="#666666" points="840.88,-605.01 744.62,-605.01 744.62,-585.76 840.88,-585.76 840.88,-605.01"/>
<text xml:space="preserve" text-anchor="middle" x="792.75" y="-591.51" font-family="Helvetica,sans-Serif" font-size="10.00">llvm::orc::IdleTask</text>
</a>
</g>
</g>
<!-- Node11&#45;&gt;Node12 -->
<g id="edge11_Node000011_Node000012" class="edge">
<title>Node11&#45;&gt;Node12</title>
<g id="a_edge11_Node000011_Node000012"><a xlink:title=" ">
<path fill="none" stroke="#63b8ff" d="M548.17,-595.39C606.43,-595.39 691.77,-595.39 744.43,-595.39"/>
<polygon fill="#63b8ff" stroke="#63b8ff" points="548.41,-591.89 538.41,-595.39 548.41,-598.89 548.41,-591.89"/>
</a>
</g>
</g>
<!-- Node13 -->
<g id="Node000013" class="node">
<title>Node13</title>
<g id="a_Node000013"><a xlink:href="classllvm_1_1orc_1_1SimpleLazyReexportsSpeculator_1_1SpeculateTask.html" target="_top" xlink:title=" ">
<polygon fill="white" stroke="#666666" points="1061.5,-610.64 906,-610.64 906,-580.14 1061.5,-580.14 1061.5,-610.64"/>
<text xml:space="preserve" text-anchor="start" x="914" y="-597.14" font-family="Helvetica,sans-Serif" font-size="10.00">llvm::orc::SimpleLazyReexports</text>
<text xml:space="preserve" text-anchor="middle" x="983.75" y="-585.89" font-family="Helvetica,sans-Serif" font-size="10.00">Speculator::SpeculateTask</text>
</a>
</g>
</g>
<!-- Node12&#45;&gt;Node13 -->
<g id="edge12_Node000012_Node000013" class="edge">
<title>Node12&#45;&gt;Node13</title>
<g id="a_edge12_Node000012_Node000013"><a xlink:title=" ">
<path fill="none" stroke="#63b8ff" d="M852.32,-595.39C869.19,-595.39 887.85,-595.39 905.67,-595.39"/>
<polygon fill="#63b8ff" stroke="#63b8ff" points="852.47,-591.89 842.47,-595.39 852.47,-598.89 852.47,-591.89"/>
</a>
</g>
</g>
<!-- Node15 -->
<g id="Node000015" class="node">
<title>Node15</title>
<g id="a_Node000015"><a xlink:href="classllvm_1_1orc_1_1LookupTask.html" target="_top" xlink:title="Lookups are usually run on the current thread, but in some cases they may be run as tasks,...">
<polygon fill="white" stroke="#666666" points="848.75,-556.01 736.75,-556.01 736.75,-536.76 848.75,-536.76 848.75,-556.01"/>
<text xml:space="preserve" text-anchor="middle" x="792.75" y="-542.51" font-family="Helvetica,sans-Serif" font-size="10.00">llvm::orc::LookupTask</text>
</a>
</g>
</g>
<!-- Node14&#45;&gt;Node15 -->
<g id="edge14_Node000014_Node000015" class="edge">
<title>Node14&#45;&gt;Node15</title>
<g id="a_edge14_Node000014_Node000015"><a xlink:title=" ">
<path fill="none" stroke="#63b8ff" d="M549.71,-546.39C604.97,-546.39 683.75,-546.39 736.26,-546.39"/>
<polygon fill="#63b8ff" stroke="#63b8ff" points="549.8,-542.89 539.8,-546.39 549.8,-549.89 549.8,-542.89"/>
</a>
</g>
</g>
<!-- Node17 -->
<g id="Node000017" class="node">
<title>Node17</title>
<g id="a_Node000017"><a xlink:href="classllvm_1_1orc_1_1MaterializationTask.html" target="_top" xlink:title="A materialization task.">
<polygon fill="white" stroke="#666666" points="864.5,-502.01 721,-502.01 721,-482.76 864.5,-482.76 864.5,-502.01"/>
<text xml:space="preserve" text-anchor="middle" x="792.75" y="-488.51" font-family="Helvetica,sans-Serif" font-size="10.00">llvm::orc::MaterializationTask</text>
</a>
</g>
</g>
<!-- Node16&#45;&gt;Node17 -->
<g id="edge16_Node000016_Node000017" class="edge">
<title>Node16&#45;&gt;Node17</title>
<g id="a_edge16_Node000016_Node000017"><a xlink:title=" ">
<path fill="none" stroke="#63b8ff" d="M548.92,-492.39C599,-492.39 668.76,-492.39 720.67,-492.39"/>
<polygon fill="#63b8ff" stroke="#63b8ff" points="549.1,-488.89 539.1,-492.39 549.1,-495.89 549.1,-488.89"/>
</a>
</g>
</g>
<!-- Node19 -->
<g id="Node000019" class="node">
<title>Node19</title>
<g id="a_Node000019"><a xlink:href="classllvm_1_1orc_1_1ObjectLayer.html" target="_top" xlink:title="Interface for Layers that accept object files.">
<polygon fill="white" stroke="#666666" points="848.75,-448.01 736.75,-448.01 736.75,-428.76 848.75,-428.76 848.75,-448.01"/>
<text xml:space="preserve" text-anchor="middle" x="792.75" y="-434.51" font-family="Helvetica,sans-Serif" font-size="10.00">llvm::orc::ObjectLayer</text>
</a>
</g>
</g>
<!-- Node18&#45;&gt;Node19 -->
<g id="edge18_Node000018_Node000019" class="edge">
<title>Node18&#45;&gt;Node19</title>
<g id="a_edge18_Node000018_Node000019"><a xlink:title=" ">
<path fill="none" stroke="#63b8ff" d="M560.46,-438.39C614.89,-438.39 687.24,-438.39 736.43,-438.39"/>
<polygon fill="#63b8ff" stroke="#63b8ff" points="560.64,-434.89 550.64,-438.39 560.64,-441.89 560.64,-434.89"/>
</a>
</g>
</g>
<!-- Node20 -->
<g id="Node000020" class="node">
<title>Node20</title>
<g id="a_Node000020"><a xlink:href="classllvm_1_1orc_1_1LazyObjectLinkingLayer.html" target="_top" xlink:title="LazyObjectLinkingLayer is an adapter for ObjectLinkingLayer that builds lazy reexports for all functi...">
<polygon fill="white" stroke="#666666" points="1053.62,-453.64 913.88,-453.64 913.88,-423.14 1053.62,-423.14 1053.62,-453.64"/>
<text xml:space="preserve" text-anchor="start" x="921.88" y="-440.14" font-family="Helvetica,sans-Serif" font-size="10.00">llvm::orc::LazyObjectLinking</text>
<text xml:space="preserve" text-anchor="middle" x="983.75" y="-428.89" font-family="Helvetica,sans-Serif" font-size="10.00">Layer</text>
</a>
</g>
</g>
<!-- Node19&#45;&gt;Node20 -->
<g id="edge19_Node000019_Node000020" class="edge">
<title>Node19&#45;&gt;Node20</title>
<g id="a_edge19_Node000019_Node000020"><a xlink:title=" ">
<path fill="none" stroke="#63b8ff" d="M860.29,-438.39C877.55,-438.39 896.17,-438.39 913.55,-438.39"/>
<polygon fill="#63b8ff" stroke="#63b8ff" points="860.69,-434.89 850.69,-438.39 860.69,-441.89 860.69,-434.89"/>
</a>
</g>
</g>
<!-- Node22 -->
<g id="Node000022" class="node">
<title>Node22</title>
<g id="a_Node000022"><a xlink:href="classllvm_1_1orc_1_1RTDyldObjectLinkingLayer.html" target="_top" xlink:title=" ">
<polygon fill="white" stroke="#666666" points="869,-399.64 716.5,-399.64 716.5,-369.14 869,-369.14 869,-399.64"/>
<text xml:space="preserve" text-anchor="start" x="724.5" y="-386.14" font-family="Helvetica,sans-Serif" font-size="10.00">llvm::orc::RTDyldObjectLinking</text>
<text xml:space="preserve" text-anchor="middle" x="792.75" y="-374.89" font-family="Helvetica,sans-Serif" font-size="10.00">Layer</text>
</a>
</g>
</g>
<!-- Node21&#45;&gt;Node22 -->
<g id="edge21_Node000021_Node000022" class="edge">
<title>Node21&#45;&gt;Node22</title>
<g id="a_edge21_Node000021_Node000022"><a xlink:title=" ">
<path fill="none" stroke="#63b8ff" d="M564.93,-384.39C611.56,-384.39 670.1,-384.39 716.03,-384.39"/>
<polygon fill="#63b8ff" stroke="#63b8ff" points="565.17,-380.89 555.17,-384.39 565.17,-387.89 565.17,-380.89"/>
</a>
</g>
</g>
<!-- Node24 -->
<g id="Node000024" class="node">
<title>Node24</title>
<g id="a_Node000024"><a xlink:href="classllvm_1_1orc_1_1Task.html" target="_top" xlink:title="Represents an abstract task for ORC to run.">
<polygon fill="white" stroke="#666666" points="833,-340.01 752.5,-340.01 752.5,-320.76 833,-320.76 833,-340.01"/>
<text xml:space="preserve" text-anchor="middle" x="792.75" y="-326.51" font-family="Helvetica,sans-Serif" font-size="10.00">llvm::orc::Task</text>
</a>
</g>
</g>
<!-- Node23&#45;&gt;Node24 -->
<g id="edge23_Node000023_Node000024" class="edge">
<title>Node23&#45;&gt;Node24</title>
<g id="a_edge23_Node000023_Node000024"><a xlink:title=" ">
<path fill="none" stroke="#63b8ff" d="M548.34,-330.39C609.52,-330.39 700.45,-330.39 752.1,-330.39"/>
<polygon fill="#63b8ff" stroke="#63b8ff" points="548.41,-326.89 538.41,-330.39 548.41,-333.89 548.41,-326.89"/>
</a>
</g>
</g>
<!-- Node26 -->
<g id="Node000026" class="node">
<title>Node26</title>
<g id="a_Node000026"><a xlink:href="classllvm_1_1vfs_1_1FileSystem.html" target="_top" xlink:title="The virtual file system interface.">
<polygon fill="white" stroke="#666666" points="847.25,-296.01 738.25,-296.01 738.25,-276.76 847.25,-276.76 847.25,-296.01"/>
<text xml:space="preserve" text-anchor="middle" x="792.75" y="-282.51" font-family="Helvetica,sans-Serif" font-size="10.00">llvm::vfs::FileSystem</text>
</a>
</g>
</g>
<!-- Node25&#45;&gt;Node26 -->
<g id="edge25_Node000025_Node000026" class="edge">
<title>Node25&#45;&gt;Node26</title>
<g id="a_edge25_Node000025_Node000026"><a xlink:title=" ">
<path fill="none" stroke="#63b8ff" d="M559.46,-282.6C614.5,-283.5 688.27,-284.7 737.78,-285.51"/>
<polygon fill="#63b8ff" stroke="#63b8ff" points="559.58,-279.1 549.53,-282.44 559.47,-286.1 559.58,-279.1"/>
</a>
</g>
</g>
<!-- Node26&#45;&gt;Node27 -->
<g id="edge26_Node000026_Node000027" class="edge">
<title>Node26&#45;&gt;Node27</title>
<g id="a_edge26_Node000026_Node000027"><a xlink:title=" ">
<path fill="none" stroke="#63b8ff" d="M845.3,-273.57C869.28,-267.6 897.95,-260.48 922.89,-254.28"/>
<polygon fill="#63b8ff" stroke="#63b8ff" points="844.62,-270.13 835.76,-275.94 846.31,-276.92 844.62,-270.13"/>
</a>
</g>
</g>
<!-- Node29 -->
<g id="Node000029" class="node">
<title>Node29</title>
<g id="a_Node000029"><a xlink:href="classllvm_1_1FileCollectorFileSystem.html" target="_top" xlink:title=" ">
<polygon fill="white" stroke="#666666" points="1055.88,-298.01 911.62,-298.01 911.62,-278.76 1055.88,-278.76 1055.88,-298.01"/>
<text xml:space="preserve" text-anchor="middle" x="983.75" y="-284.51" font-family="Helvetica,sans-Serif" font-size="10.00">llvm::FileCollectorFileSystem</text>
</a>
</g>
</g>
<!-- Node26&#45;&gt;Node29 -->
<g id="edge28_Node000026_Node000029" class="edge">
<title>Node26&#45;&gt;Node29</title>
<g id="a_edge28_Node000026_Node000029"><a xlink:title=" ">
<path fill="none" stroke="#63b8ff" d="M859.04,-287.08C875.85,-287.26 894.02,-287.45 911.13,-287.63"/>
<polygon fill="#63b8ff" stroke="#63b8ff" points="859.21,-283.58 849.17,-286.97 859.13,-290.58 859.21,-283.58"/>
</a>
</g>
</g>
<!-- Node28 -->
<g id="Node000028" class="node">
<title>Node28</title>
<g id="a_Node000028"><a xlink:href="classllvm_1_1vfs_1_1RedirectingFileSystem.html" target="_top" xlink:title="A virtual file system parsed from a YAML file.">
<polygon fill="white" stroke="#666666" points="1223.25,-254.64 1098.5,-254.64 1098.5,-224.14 1223.25,-224.14 1223.25,-254.64"/>
<text xml:space="preserve" text-anchor="start" x="1106.5" y="-241.14" font-family="Helvetica,sans-Serif" font-size="10.00">llvm::vfs::RedirectingFile</text>
<text xml:space="preserve" text-anchor="middle" x="1160.88" y="-229.89" font-family="Helvetica,sans-Serif" font-size="10.00">System</text>
</a>
</g>
</g>
<!-- Node27&#45;&gt;Node28 -->
<g id="edge27_Node000027_Node000028" class="edge">
<title>Node27&#45;&gt;Node28</title>
<g id="a_edge27_Node000027_Node000028"><a xlink:title=" ">
<path fill="none" stroke="#63b8ff" d="M1055.69,-239.39C1069.8,-239.39 1084.51,-239.39 1098.28,-239.39"/>
<polygon fill="#63b8ff" stroke="#63b8ff" points="1056.04,-235.89 1046.04,-239.39 1056.04,-242.89 1056.04,-235.89"/>
</a>
</g>
</g>
<!-- Node31 -->
<g id="Node000031" class="node">
<title>Node31</title>
<g id="a_Node000031"><a xlink:href="classllvm_1_1vfs_1_1InMemoryFileSystem.html" target="_top" xlink:title="An in&#45;memory file system.">
<polygon fill="white" stroke="#666666" points="869,-199.01 716.5,-199.01 716.5,-179.76 869,-179.76 869,-199.01"/>
<text xml:space="preserve" text-anchor="middle" x="792.75" y="-185.51" font-family="Helvetica,sans-Serif" font-size="10.00">llvm::vfs::InMemoryFileSystem</text>
</a>
</g>
</g>
<!-- Node30&#45;&gt;Node31 -->
<g id="edge30_Node000030_Node000031" class="edge">
<title>Node30&#45;&gt;Node31</title>
<g id="a_edge30_Node000030_Node000031"><a xlink:title=" ">
<path fill="none" stroke="#63b8ff" d="M553.44,-189.39C601.63,-189.39 666.25,-189.39 716.04,-189.39"/>
<polygon fill="#63b8ff" stroke="#63b8ff" points="553.7,-185.89 543.7,-189.39 553.7,-192.89 553.7,-185.89"/>
</a>
</g>
</g>
<!-- Node33 -->
<g id="Node000033" class="node">
<title>Node33</title>
<g id="a_Node000033"><a xlink:href="classllvm_1_1vfs_1_1OverlayFileSystem.html" target="_top" xlink:title="A file system that allows overlaying one AbstractFileSystem on top of another.">
<polygon fill="white" stroke="#666666" points="864.12,-139.01 721.38,-139.01 721.38,-119.76 864.12,-119.76 864.12,-139.01"/>
<text xml:space="preserve" text-anchor="middle" x="792.75" y="-125.51" font-family="Helvetica,sans-Serif" font-size="10.00">llvm::vfs::OverlayFileSystem</text>
</a>
</g>
</g>
<!-- Node32&#45;&gt;Node33 -->
<g id="edge32_Node000032_Node000033" class="edge">
<title>Node32&#45;&gt;Node33</title>
<g id="a_edge32_Node000032_Node000033"><a xlink:title=" ">
<path fill="none" stroke="#63b8ff" d="M548.6,-129.39C598.84,-129.39 669.02,-129.39 721.07,-129.39"/>
<polygon fill="#63b8ff" stroke="#63b8ff" points="548.76,-125.89 538.76,-129.39 548.76,-132.89 548.76,-125.89"/>
</a>
</g>
</g>
<!-- Node35 -->
<g id="Node000035" class="node">
<title>Node35</title>
<g id="a_Node000035"><a xlink:href="classllvm_1_1vfs_1_1ProxyFileSystem.html" target="_top" xlink:title="By default, this delegates all calls to the underlying file system.">
<polygon fill="white" stroke="#666666" points="860,-85.01 725.5,-85.01 725.5,-65.76 860,-65.76 860,-85.01"/>
<text xml:space="preserve" text-anchor="middle" x="792.75" y="-71.51" font-family="Helvetica,sans-Serif" font-size="10.00">llvm::vfs::ProxyFileSystem</text>
</a>
</g>
</g>
<!-- Node34&#45;&gt;Node35 -->
<g id="edge34_Node000034_Node000035" class="edge">
<title>Node34&#45;&gt;Node35</title>
<g id="a_edge34_Node000034_Node000035"><a xlink:title=" ">
<path fill="none" stroke="#63b8ff" d="M575.12,-75.39C623.11,-75.39 681.17,-75.39 725.1,-75.39"/>
<polygon fill="#63b8ff" stroke="#63b8ff" points="575.3,-71.89 565.3,-75.39 575.3,-78.89 575.3,-71.89"/>
</a>
</g>
</g>
<!-- Node37 -->
<g id="Node000037" class="node">
<title>Node37</title>
<g id="a_Node000037"><a xlink:href="classllvm_1_1vfs_1_1TracingFileSystem.html" target="_top" xlink:title="File system that tracks the number of calls to the underlying file system.">
<polygon fill="white" stroke="#666666" points="863.38,-31.01 722.12,-31.01 722.12,-11.76 863.38,-11.76 863.38,-31.01"/>
<text xml:space="preserve" text-anchor="middle" x="792.75" y="-17.51" font-family="Helvetica,sans-Serif" font-size="10.00">llvm::vfs::TracingFileSystem</text>
</a>
</g>
</g>
<!-- Node36&#45;&gt;Node37 -->
<g id="edge37_Node000036_Node000037" class="edge">
<title>Node36&#45;&gt;Node37</title>
<g id="a_edge37_Node000036_Node000037"><a xlink:title=" ">
<path fill="none" stroke="#63b8ff" d="M548.31,-21.39C598.79,-21.39 669.54,-21.39 721.76,-21.39"/>
<polygon fill="#63b8ff" stroke="#63b8ff" points="548.41,-17.89 538.41,-21.39 548.41,-24.89 548.41,-17.89"/>
</a>
</g>
</g>
</g>
</svg>
