<?xml version="1.0" encoding="UTF-8" standalone="no"?>
<!DOCTYPE svg PUBLIC "-//W3C//DTD SVG 1.1//EN"
 "http://www.w3.org/Graphics/SVG/1.1/DTD/svg11.dtd">
<!-- Generated by graphviz version 13.1.2 (20250808.2320)
 -->
<!-- Title: llvm::cl::generic_parser_base Pages: 1 -->
<svg width="823pt" height="1161pt"
 viewBox="0.00 0.00 823.00 1161.00" xmlns="http://www.w3.org/2000/svg" xmlns:xlink="http://www.w3.org/1999/xlink">
<g id="graph0" class="graph" transform="scale(1 1) rotate(0) translate(4 1156.51)">
<title>llvm::cl::generic_parser_base</title>
<!-- Node1 -->
<g id="Node000001" class="node">
<title>Node1</title>
<g id="a_Node000001"><a xlink:title=" ">
<polygon fill="#999999" stroke="#666666" points="143.5,-554.7 0,-554.7 0,-535.45 143.5,-535.45 143.5,-554.7"/>
<text xml:space="preserve" text-anchor="middle" x="71.75" y="-541.2" font-family="Helvetica,sans-Serif" font-size="10.00">llvm::cl::generic_parser_base</text>
</a>
</g>
</g>
<!-- Node2 -->
<g id="Node000002" class="node">
<title>Node2</title>
<g id="a_Node000002"><a xlink:href="classllvm_1_1cl_1_1parser.html" target="_top" xlink:title=" ">
<polygon fill="white" stroke="#666666" points="605.5,-543.33 492,-543.33 492,-512.83 605.5,-512.83 605.5,-543.33"/>
<text xml:space="preserve" text-anchor="start" x="500" y="-529.83" font-family="Helvetica,sans-Serif" font-size="10.00">llvm::cl::parser&lt; const</text>
<text xml:space="preserve" text-anchor="middle" x="548.75" y="-518.58" font-family="Helvetica,sans-Serif" font-size="10.00"> PassInfo * &gt;</text>
</a>
</g>
</g>
<!-- Node1&#45;&gt;Node2 -->
<g id="edge1_Node000001_Node000002" class="edge">
<title>Node1&#45;&gt;Node2</title>
<g id="a_edge1_Node000001_Node000002"><a xlink:title=" ">
<path fill="none" stroke="#63b8ff" d="M96.46,-529.05C113.8,-518.01 138.25,-503.81 161.5,-495.08 287.47,-447.77 335.24,-412.91 462,-458.08 492.23,-468.85 519.51,-495.36 534.83,-512.49"/>
<polygon fill="#63b8ff" stroke="#63b8ff" points="94.88,-525.9 88.41,-534.29 98.7,-531.77 94.88,-525.9"/>
</a>
</g>
</g>
<!-- Node4 -->
<g id="Node000004" class="node">
<title>Node4</title>
<g id="a_Node000004"><a xlink:href="classllvm_1_1cl_1_1parser.html" target="_top" xlink:title=" ">
<polygon fill="white" stroke="#666666" points="613.38,-723.33 484.12,-723.33 484.12,-692.83 613.38,-692.83 613.38,-723.33"/>
<text xml:space="preserve" text-anchor="start" x="492.12" y="-709.83" font-family="Helvetica,sans-Serif" font-size="10.00">llvm::cl::parser&lt; RegAlloc</text>
<text xml:space="preserve" text-anchor="middle" x="548.75" y="-698.58" font-family="Helvetica,sans-Serif" font-size="10.00">Type &gt;</text>
</a>
</g>
</g>
<!-- Node1&#45;&gt;Node4 -->
<g id="edge3_Node000001_Node000004" class="edge">
<title>Node1&#45;&gt;Node4</title>
<g id="a_edge3_Node000001_Node000004"><a xlink:title=" ">
<path fill="none" stroke="#63b8ff" d="M85.83,-564.21C104.55,-590.59 141.11,-638.57 180.5,-671.08 242.98,-722.64 260.68,-740.39 339,-761.08 391.85,-775.04 412.86,-785.02 462,-761.08 473.67,-755.39 469.76,-746.06 480,-738.08 487.1,-732.55 495.39,-727.79 503.68,-723.81"/>
<polygon fill="#63b8ff" stroke="#63b8ff" points="88.81,-562.37 80.22,-556.17 83.08,-566.37 88.81,-562.37"/>
</a>
</g>
</g>
<!-- Node6 -->
<g id="Node000006" class="node">
<title>Node6</title>
<g id="a_Node000006"><a xlink:href="classllvm_1_1cl_1_1parser.html" target="_top" xlink:title=" ">
<polygon fill="white" stroke="#666666" points="616.38,-1142.33 481.12,-1142.33 481.12,-1111.83 616.38,-1111.83 616.38,-1142.33"/>
<text xml:space="preserve" text-anchor="start" x="489.12" y="-1128.83" font-family="Helvetica,sans-Serif" font-size="10.00">llvm::cl::parser&lt; Registry</text>
<text xml:space="preserve" text-anchor="middle" x="548.75" y="-1117.58" font-family="Helvetica,sans-Serif" font-size="10.00">Class::FunctionPassCtor &gt;</text>
</a>
</g>
</g>
<!-- Node1&#45;&gt;Node6 -->
<g id="edge5_Node000001_Node000006" class="edge">
<title>Node1&#45;&gt;Node6</title>
<g id="a_edge5_Node000001_Node000006"><a xlink:title=" ">
<path fill="none" stroke="#63b8ff" d="M74.66,-566.26C82.89,-653.34 117.74,-982.94 180.5,-1063.08 250.13,-1151.99 395.47,-1149.43 480.96,-1138.78"/>
<polygon fill="#63b8ff" stroke="#63b8ff" points="78.15,-565.97 73.74,-556.34 71.18,-566.62 78.15,-565.97"/>
</a>
</g>
</g>
<!-- Node8 -->
<g id="Node000008" class="node">
<title>Node8</title>
<g id="a_Node000008"><a xlink:href="classllvm_1_1cl_1_1parser.html" target="_top" xlink:title=" ">
<polygon fill="white" stroke="#666666" points="610.75,-671.95 486.75,-671.95 486.75,-630.2 610.75,-630.2 610.75,-671.95"/>
<text xml:space="preserve" text-anchor="start" x="494.75" y="-658.45" font-family="Helvetica,sans-Serif" font-size="10.00">llvm::cl::parser&lt; std</text>
<text xml:space="preserve" text-anchor="start" x="494.75" y="-647.2" font-family="Helvetica,sans-Serif" font-size="10.00">::set&lt; SPIRV::Extension</text>
<text xml:space="preserve" text-anchor="middle" x="548.75" y="-635.95" font-family="Helvetica,sans-Serif" font-size="10.00">::Extension &gt; &gt;</text>
</a>
</g>
</g>
<!-- Node1&#45;&gt;Node8 -->
<g id="edge7_Node000001_Node000008" class="edge">
<title>Node1&#45;&gt;Node8</title>
<g id="a_edge7_Node000001_Node000008"><a xlink:title=" ">
<path fill="none" stroke="#63b8ff" d="M93.95,-562.3C136.95,-596 238.9,-669.67 339,-696.08 391.86,-710.02 409.68,-711.92 462,-696.08 471.2,-693.29 471.66,-688.86 480,-684.08 486.92,-680.11 494.39,-676.16 501.76,-672.44"/>
<polygon fill="#63b8ff" stroke="#63b8ff" points="96.19,-559.62 86.18,-556.14 91.84,-565.1 96.19,-559.62"/>
</a>
</g>
</g>
<!-- Node10 -->
<g id="Node000010" class="node">
<title>Node10</title>
<g id="a_Node000010"><a xlink:href="classllvm_1_1cl_1_1parser.html" target="_top" xlink:title=" ">
<polygon fill="white" stroke="#666666" points="607.38,-1077.33 490.12,-1077.33 490.12,-1046.83 607.38,-1046.83 607.38,-1077.33"/>
<text xml:space="preserve" text-anchor="start" x="498.12" y="-1063.83" font-family="Helvetica,sans-Serif" font-size="10.00">llvm::cl::parser&lt; std</text>
<text xml:space="preserve" text-anchor="middle" x="548.75" y="-1052.58" font-family="Helvetica,sans-Serif" font-size="10.00">::optional&lt; uint64_t &gt; &gt;</text>
</a>
</g>
</g>
<!-- Node1&#45;&gt;Node10 -->
<g id="edge9_Node000001_Node000010" class="edge">
<title>Node1&#45;&gt;Node10</title>
<g id="a_edge9_Node000001_Node000010"><a xlink:title=" ">
<path fill="none" stroke="#63b8ff" d="M73.3,-566.41C75.93,-633.57 91.27,-844.63 180.5,-987.08 229.02,-1064.53 253.01,-1087.14 339,-1118.08 390.44,-1136.58 410.6,-1136.69 462,-1118.08 471.79,-1114.53 471.52,-1109.13 480,-1103.08 492.65,-1094.06 507.33,-1085.01 519.79,-1077.72"/>
<polygon fill="#63b8ff" stroke="#63b8ff" points="76.8,-566.35 72.97,-556.47 69.8,-566.58 76.8,-566.35"/>
</a>
</g>
</g>
<!-- Node12 -->
<g id="Node000012" class="node">
<title>Node12</title>
<g id="a_Node000012"><a xlink:href="classllvm_1_1cl_1_1parser_3_01bool_01_4.html" target="_top" xlink:title=" ">
<polygon fill="white" stroke="#666666" points="607,-766.7 490.5,-766.7 490.5,-747.45 607,-747.45 607,-766.7"/>
<text xml:space="preserve" text-anchor="middle" x="548.75" y="-753.2" font-family="Helvetica,sans-Serif" font-size="10.00">llvm::cl::parser&lt; bool &gt;</text>
</a>
</g>
</g>
<!-- Node1&#45;&gt;Node12 -->
<g id="edge11_Node000001_Node000012" class="edge">
<title>Node1&#45;&gt;Node12</title>
<g id="a_edge11_Node000001_Node000012"><a xlink:title=" ">
<path fill="none" stroke="#63b8ff" d="M80.93,-565.42C96.18,-601.43 131.87,-677.28 180.5,-727.08 238.53,-786.5 259.16,-803.19 339,-826.08 391.55,-841.14 412.33,-848.92 462,-826.08 473.17,-820.94 470.92,-813.36 480,-805.08 496.19,-790.32 517.04,-776.16 531.31,-767.1"/>
<polygon fill="#63b8ff" stroke="#63b8ff" points="84.18,-564.14 77.13,-556.23 77.71,-566.81 84.18,-564.14"/>
</a>
</g>
</g>
<!-- Node13 -->
<g id="Node000013" class="node">
<title>Node13</title>
<g id="a_Node000013"><a xlink:href="classllvm_1_1cl_1_1parser_3_01boolOrDefault_01_4.html" target="_top" xlink:title=" ">
<polygon fill="white" stroke="#666666" points="607.75,-899.33 489.75,-899.33 489.75,-868.83 607.75,-868.83 607.75,-899.33"/>
<text xml:space="preserve" text-anchor="start" x="497.75" y="-885.83" font-family="Helvetica,sans-Serif" font-size="10.00">llvm::cl::parser&lt; boolOr</text>
<text xml:space="preserve" text-anchor="middle" x="548.75" y="-874.58" font-family="Helvetica,sans-Serif" font-size="10.00">Default &gt;</text>
</a>
</g>
</g>
<!-- Node1&#45;&gt;Node13 -->
<g id="edge12_Node000001_Node000013" class="edge">
<title>Node1&#45;&gt;Node13</title>
<g id="a_edge12_Node000001_Node000013"><a xlink:title=" ">
<path fill="none" stroke="#63b8ff" d="M75.52,-566.48C83.34,-619.72 109.8,-760.39 180.5,-851.08 232.45,-917.72 258.09,-931.71 339,-956.08 391.34,-971.84 411.49,-977 462,-956.08 472.45,-951.75 471.56,-945.62 480,-938.08 495.14,-924.55 513.16,-910.27 526.8,-899.8"/>
<polygon fill="#63b8ff" stroke="#63b8ff" points="79,-566.09 74.16,-556.67 72.06,-567.05 79,-566.09"/>
</a>
</g>
</g>
<!-- Node14 -->
<g id="Node000014" class="node">
<title>Node14</title>
<g id="a_Node000014"><a xlink:href="classllvm_1_1cl_1_1parser_3_01char_01_4.html" target="_top" xlink:title=" ">
<polygon fill="white" stroke="#666666" points="607.38,-966.7 490.12,-966.7 490.12,-947.45 607.38,-947.45 607.38,-966.7"/>
<text xml:space="preserve" text-anchor="middle" x="548.75" y="-953.2" font-family="Helvetica,sans-Serif" font-size="10.00">llvm::cl::parser&lt; char &gt;</text>
</a>
</g>
</g>
<!-- Node1&#45;&gt;Node14 -->
<g id="edge13_Node000001_Node000014" class="edge">
<title>Node1&#45;&gt;Node14</title>
<g id="a_edge13_Node000001_Node000014"><a xlink:title=" ">
<path fill="none" stroke="#63b8ff" d="M74.36,-566.51C79.8,-626.58 101.77,-799.77 180.5,-915.08 230.63,-988.49 254.84,-1008.44 339,-1037.08 390.75,-1054.69 411.14,-1057.12 462,-1037.08 498.18,-1022.82 528.11,-985.31 540.97,-967.18"/>
<polygon fill="#63b8ff" stroke="#63b8ff" points="77.86,-566.36 73.54,-556.68 70.89,-566.94 77.86,-566.36"/>
</a>
</g>
</g>
<!-- Node15 -->
<g id="Node000015" class="node">
<title>Node15</title>
<g id="a_Node000015"><a xlink:href="classllvm_1_1cl_1_1parser_3_01double_01_4.html" target="_top" xlink:title=" ">
<polygon fill="white" stroke="#666666" points="612.25,-161.7 485.25,-161.7 485.25,-142.45 612.25,-142.45 612.25,-161.7"/>
<text xml:space="preserve" text-anchor="middle" x="548.75" y="-148.2" font-family="Helvetica,sans-Serif" font-size="10.00">llvm::cl::parser&lt; double &gt;</text>
</a>
</g>
</g>
<!-- Node1&#45;&gt;Node15 -->
<g id="edge14_Node000001_Node000015" class="edge">
<title>Node1&#45;&gt;Node15</title>
<g id="a_edge14_Node000001_Node000015"><a xlink:title=" ">
<path fill="none" stroke="#63b8ff" d="M72.2,-523.91C71.79,-461.04 79.49,-273.66 180.5,-175.08 271.82,-85.95 444.22,-121.91 515.58,-142.01"/>
<polygon fill="#63b8ff" stroke="#63b8ff" points="68.7,-523.6 72.35,-533.55 75.7,-523.49 68.7,-523.6"/>
</a>
</g>
</g>
<!-- Node16 -->
<g id="Node000016" class="node">
<title>Node16</title>
<g id="a_Node000016"><a xlink:href="classllvm_1_1cl_1_1parser_3_01float_01_4.html" target="_top" xlink:title=" ">
<polygon fill="white" stroke="#666666" points="607.38,-63.7 490.12,-63.7 490.12,-44.45 607.38,-44.45 607.38,-63.7"/>
<text xml:space="preserve" text-anchor="middle" x="548.75" y="-50.2" font-family="Helvetica,sans-Serif" font-size="10.00">llvm::cl::parser&lt; float &gt;</text>
</a>
</g>
</g>
<!-- Node1&#45;&gt;Node16 -->
<g id="edge15_Node000001_Node000016" class="edge">
<title>Node1&#45;&gt;Node16</title>
<g id="a_edge15_Node000001_Node000016"><a xlink:title=" ">
<path fill="none" stroke="#63b8ff" d="M73.89,-523.98C79.06,-436.66 103.6,-105.23 180.5,-43.08 283.44,40.11 460.78,-18.78 524.28,-44.09"/>
<polygon fill="#63b8ff" stroke="#63b8ff" points="70.4,-523.54 73.33,-533.72 77.39,-523.93 70.4,-523.54"/>
</a>
</g>
</g>
<!-- Node17 -->
<g id="Node000017" class="node">
<title>Node17</title>
<g id="a_Node000017"><a xlink:href="classllvm_1_1cl_1_1parser_3_01int_01_4.html" target="_top" xlink:title=" ">
<polygon fill="white" stroke="#666666" points="603.25,-239.7 494.25,-239.7 494.25,-220.45 603.25,-220.45 603.25,-239.7"/>
<text xml:space="preserve" text-anchor="middle" x="548.75" y="-226.2" font-family="Helvetica,sans-Serif" font-size="10.00">llvm::cl::parser&lt; int &gt;</text>
</a>
</g>
</g>
<!-- Node1&#45;&gt;Node17 -->
<g id="edge16_Node000001_Node000017" class="edge">
<title>Node1&#45;&gt;Node17</title>
<g id="a_edge16_Node000001_Node000017"><a xlink:title=" ">
<path fill="none" stroke="#63b8ff" d="M73.97,-523.7C78.28,-468.9 97.4,-322.23 180.5,-244.08 272.85,-157.23 337.25,-175.56 462,-198.08 485.14,-202.26 510.19,-212.3 527.2,-220.03"/>
<polygon fill="#63b8ff" stroke="#63b8ff" points="70.49,-523.3 73.3,-533.52 77.48,-523.78 70.49,-523.3"/>
</a>
</g>
</g>
<!-- Node18 -->
<g id="Node000018" class="node">
<title>Node18</title>
<g id="a_Node000018"><a xlink:href="classllvm_1_1cl_1_1parser_3_01long_01_4.html" target="_top" xlink:title=" ">
<polygon fill="white" stroke="#666666" points="607,-301.7 490.5,-301.7 490.5,-282.45 607,-282.45 607,-301.7"/>
<text xml:space="preserve" text-anchor="middle" x="548.75" y="-288.2" font-family="Helvetica,sans-Serif" font-size="10.00">llvm::cl::parser&lt; long &gt;</text>
</a>
</g>
</g>
<!-- Node1&#45;&gt;Node18 -->
<g id="edge17_Node000001_Node000018" class="edge">
<title>Node1&#45;&gt;Node18</title>
<g id="a_edge17_Node000001_Node000018"><a xlink:title=" ">
<path fill="none" stroke="#63b8ff" d="M76.67,-524.05C86.17,-478.91 114.67,-372.14 180.5,-314.08 275.85,-229.97 336.54,-242.44 462,-263.08 483.86,-266.68 507.66,-275.11 524.62,-281.96"/>
<polygon fill="#63b8ff" stroke="#63b8ff" points="73.29,-523.08 74.77,-533.57 80.16,-524.44 73.29,-523.08"/>
</a>
</g>
</g>
<!-- Node19 -->
<g id="Node000019" class="node">
<title>Node19</title>
<g id="a_Node000019"><a xlink:href="classllvm_1_1cl_1_1parser_3_01long_01long_01_4.html" target="_top" xlink:title=" ">
<polygon fill="white" stroke="#666666" points="602.5,-120.33 495,-120.33 495,-89.83 602.5,-89.83 602.5,-120.33"/>
<text xml:space="preserve" text-anchor="start" x="503" y="-106.83" font-family="Helvetica,sans-Serif" font-size="10.00">llvm::cl::parser&lt; long</text>
<text xml:space="preserve" text-anchor="middle" x="548.75" y="-95.58" font-family="Helvetica,sans-Serif" font-size="10.00"> long &gt;</text>
</a>
</g>
</g>
<!-- Node1&#45;&gt;Node19 -->
<g id="edge18_Node000001_Node000019" class="edge">
<title>Node1&#45;&gt;Node19</title>
<g id="a_edge18_Node000001_Node000019"><a xlink:title=" ">
<path fill="none" stroke="#63b8ff" d="M75.29,-523.84C85.02,-445.73 122.37,-175.75 180.5,-115.08 268.25,-23.49 337.78,-42.42 462,-68.08 472.64,-70.28 495.63,-80.31 515.14,-89.38"/>
<polygon fill="#63b8ff" stroke="#63b8ff" points="71.84,-523.18 74.1,-533.53 78.79,-524.03 71.84,-523.18"/>
</a>
</g>
</g>
<!-- Node20 -->
<g id="Node000020" class="node">
<title>Node20</title>
<g id="a_Node000020"><a xlink:href="classllvm_1_1cl_1_1parser_3_01std_1_1string_01_4.html" target="_top" xlink:title=" ">
<polygon fill="white" stroke="#666666" points="600.25,-594.33 497.25,-594.33 497.25,-563.83 600.25,-563.83 600.25,-594.33"/>
<text xml:space="preserve" text-anchor="start" x="505.25" y="-580.83" font-family="Helvetica,sans-Serif" font-size="10.00">llvm::cl::parser&lt; std</text>
<text xml:space="preserve" text-anchor="middle" x="548.75" y="-569.58" font-family="Helvetica,sans-Serif" font-size="10.00">::string &gt;</text>
</a>
</g>
</g>
<!-- Node1&#45;&gt;Node20 -->
<g id="edge19_Node000001_Node000020" class="edge">
<title>Node1&#45;&gt;Node20</title>
<g id="a_edge19_Node000001_Node000020"><a xlink:title=" ">
<path fill="none" stroke="#63b8ff" d="M116.86,-532.09C191.46,-512.6 345.77,-483.08 462,-533.08 472.69,-537.68 470.37,-545.55 480,-552.08 486.29,-556.34 493.35,-560.09 500.48,-563.33"/>
<polygon fill="#63b8ff" stroke="#63b8ff" points="116.23,-528.64 107.48,-534.61 118.04,-535.4 116.23,-528.64"/>
</a>
</g>
</g>
<!-- Node21 -->
<g id="Node000021" class="node">
<title>Node21</title>
<g id="a_Node000021"><a xlink:href="classllvm_1_1cl_1_1parser_3_01unsigned_01_4.html" target="_top" xlink:title=" ">
<polygon fill="white" stroke="#666666" points="617.5,-833.7 480,-833.7 480,-814.45 617.5,-814.45 617.5,-833.7"/>
<text xml:space="preserve" text-anchor="middle" x="548.75" y="-820.2" font-family="Helvetica,sans-Serif" font-size="10.00">llvm::cl::parser&lt; unsigned &gt;</text>
</a>
</g>
</g>
<!-- Node1&#45;&gt;Node21 -->
<g id="edge20_Node000001_Node000021" class="edge">
<title>Node1&#45;&gt;Node21</title>
<g id="a_edge20_Node000001_Node000021"><a xlink:title=" ">
<path fill="none" stroke="#63b8ff" d="M77.65,-565.9C89.07,-610.83 121.11,-718.42 180.5,-788.08 235,-852.01 258.45,-867.21 339,-891.08 391.41,-906.61 414.62,-918.35 462,-891.08 475.81,-883.13 468.52,-871.13 480,-860.08 491.7,-848.81 507.64,-840.1 521.12,-834.08"/>
<polygon fill="#63b8ff" stroke="#63b8ff" points="81.11,-565.32 75.33,-556.44 74.31,-566.99 81.11,-565.32"/>
</a>
</g>
</g>
<!-- Node22 -->
<g id="Node000022" class="node">
<title>Node22</title>
<g id="a_Node000022"><a xlink:href="classllvm_1_1cl_1_1parser_3_01unsigned_01long_01_4.html" target="_top" xlink:title=" ">
<polygon fill="white" stroke="#666666" points="613,-361.33 484.5,-361.33 484.5,-330.83 613,-330.83 613,-361.33"/>
<text xml:space="preserve" text-anchor="start" x="492.5" y="-347.83" font-family="Helvetica,sans-Serif" font-size="10.00">llvm::cl::parser&lt; unsigned</text>
<text xml:space="preserve" text-anchor="middle" x="548.75" y="-336.58" font-family="Helvetica,sans-Serif" font-size="10.00"> long &gt;</text>
</a>
</g>
</g>
<!-- Node1&#45;&gt;Node22 -->
<g id="edge21_Node000001_Node000022" class="edge">
<title>Node1&#45;&gt;Node22</title>
<g id="a_edge21_Node000001_Node000022"><a xlink:title=" ">
<path fill="none" stroke="#63b8ff" d="M80.39,-524.54C94.6,-489.15 128.46,-416.65 180.5,-377.08 281.58,-300.21 335.69,-314.96 462,-328.08 469.26,-328.83 476.82,-329.94 484.3,-331.23"/>
<polygon fill="#63b8ff" stroke="#63b8ff" points="77.23,-523.02 76.87,-533.61 83.75,-525.55 77.23,-523.02"/>
</a>
</g>
</g>
<!-- Node23 -->
<g id="Node000023" class="node">
<title>Node23</title>
<g id="a_Node000023"><a xlink:href="classllvm_1_1cl_1_1parser_3_01unsigned_01long_01long_01_4.html" target="_top" xlink:title=" ">
<polygon fill="white" stroke="#666666" points="613,-443.33 484.5,-443.33 484.5,-412.83 613,-412.83 613,-443.33"/>
<text xml:space="preserve" text-anchor="start" x="492.5" y="-429.83" font-family="Helvetica,sans-Serif" font-size="10.00">llvm::cl::parser&lt; unsigned</text>
<text xml:space="preserve" text-anchor="middle" x="548.75" y="-418.58" font-family="Helvetica,sans-Serif" font-size="10.00"> long long &gt;</text>
</a>
</g>
</g>
<!-- Node1&#45;&gt;Node23 -->
<g id="edge22_Node000001_Node000023" class="edge">
<title>Node1&#45;&gt;Node23</title>
<g id="a_edge22_Node000001_Node000023"><a xlink:title=" ">
<path fill="none" stroke="#63b8ff" d="M86.24,-526.25C104.73,-501.81 140.3,-459.53 180.5,-436.08 289.82,-372.31 337.81,-368.71 462,-393.08 481.25,-396.86 501.63,-404.98 517.69,-412.45"/>
<polygon fill="#63b8ff" stroke="#63b8ff" points="83.62,-523.9 80.49,-534.02 89.25,-528.06 83.62,-523.9"/>
</a>
</g>
</g>
<!-- Node24 -->
<g id="Node000024" class="node">
<title>Node24</title>
<g id="a_Node000024"><a xlink:href="classllvm_1_1cl_1_1parser.html" target="_top" xlink:title=" ">
<polygon fill="white" stroke="#666666" points="321,-582.7 180.5,-582.7 180.5,-563.45 321,-563.45 321,-582.7"/>
<text xml:space="preserve" text-anchor="middle" x="250.75" y="-569.2" font-family="Helvetica,sans-Serif" font-size="10.00">llvm::cl::parser&lt; DataType &gt;</text>
</a>
</g>
</g>
<!-- Node1&#45;&gt;Node24 -->
<g id="edge23_Node000001_Node000024" class="edge">
<title>Node1&#45;&gt;Node24</title>
<g id="a_edge23_Node000001_Node000024"><a xlink:title=" ">
<path fill="none" stroke="#63b8ff" d="M147.71,-556.94C160.43,-558.95 173.54,-561.02 185.94,-562.99"/>
<polygon fill="#63b8ff" stroke="#63b8ff" points="148.57,-553.53 138.15,-555.42 147.48,-560.44 148.57,-553.53"/>
</a>
</g>
</g>
<!-- Node3 -->
<g id="Node000003" class="node">
<title>Node3</title>
<g id="a_Node000003"><a xlink:href="classllvm_1_1PassNameParser.html" target="_top" xlink:title=" ">
<polygon fill="white" stroke="#666666" points="793.5,-537.7 676.25,-537.7 676.25,-518.45 793.5,-518.45 793.5,-537.7"/>
<text xml:space="preserve" text-anchor="middle" x="734.88" y="-524.2" font-family="Helvetica,sans-Serif" font-size="10.00">llvm::PassNameParser</text>
</a>
</g>
</g>
<!-- Node2&#45;&gt;Node3 -->
<g id="edge2_Node000002_Node000003" class="edge">
<title>Node2&#45;&gt;Node3</title>
<g id="a_edge2_Node000002_Node000003"><a xlink:title=" ">
<path fill="none" stroke="#63b8ff" d="M617.43,-528.08C636.68,-528.08 657.46,-528.08 676.07,-528.08"/>
<polygon fill="#63b8ff" stroke="#63b8ff" points="617.51,-524.58 607.51,-528.08 617.51,-531.58 617.51,-524.58"/>
</a>
</g>
</g>
<!-- Node5 -->
<g id="Node000005" class="node">
<title>Node5</title>
<g id="a_Node000005"><a xlink:href="classllvm_1_1RegAllocTypeParser.html" target="_top" xlink:title=" ">
<polygon fill="white" stroke="#666666" points="799.5,-717.7 670.25,-717.7 670.25,-698.45 799.5,-698.45 799.5,-717.7"/>
<text xml:space="preserve" text-anchor="middle" x="734.88" y="-704.2" font-family="Helvetica,sans-Serif" font-size="10.00">llvm::RegAllocTypeParser</text>
</a>
</g>
</g>
<!-- Node4&#45;&gt;Node5 -->
<g id="edge4_Node000004_Node000005" class="edge">
<title>Node4&#45;&gt;Node5</title>
<g id="a_edge4_Node000004_Node000005"><a xlink:title=" ">
<path fill="none" stroke="#63b8ff" d="M624.88,-708.08C639.78,-708.08 655.3,-708.08 669.8,-708.08"/>
<polygon fill="#63b8ff" stroke="#63b8ff" points="625.14,-704.58 615.14,-708.08 625.14,-711.58 625.14,-704.58"/>
</a>
</g>
</g>
<!-- Node7 -->
<g id="Node000007" class="node">
<title>Node7</title>
<g id="a_Node000007"><a xlink:href="classllvm_1_1RegisterPassParser.html" target="_top" xlink:title="RegisterPassParser class &#45; Handle the addition of new machine passes.">
<polygon fill="white" stroke="#666666" points="798.75,-1142.33 671,-1142.33 671,-1111.83 798.75,-1111.83 798.75,-1142.33"/>
<text xml:space="preserve" text-anchor="start" x="679" y="-1128.83" font-family="Helvetica,sans-Serif" font-size="10.00">llvm::RegisterPassParser</text>
<text xml:space="preserve" text-anchor="middle" x="734.88" y="-1117.58" font-family="Helvetica,sans-Serif" font-size="10.00">&lt; RegistryClass &gt;</text>
</a>
</g>
</g>
<!-- Node6&#45;&gt;Node7 -->
<g id="edge6_Node000006_Node000007" class="edge">
<title>Node6&#45;&gt;Node7</title>
<g id="a_edge6_Node000006_Node000007"><a xlink:title=" ">
<path fill="none" stroke="#63b8ff" d="M628.02,-1127.08C642.23,-1127.08 656.9,-1127.08 670.61,-1127.08"/>
<polygon fill="#63b8ff" stroke="#63b8ff" points="628.26,-1123.58 618.26,-1127.08 628.26,-1130.58 628.26,-1123.58"/>
</a>
</g>
</g>
<!-- Node9 -->
<g id="Node000009" class="node">
<title>Node9</title>
<g id="a_Node000009"><a xlink:href="structllvm_1_1SPIRVExtensionsParser.html" target="_top" xlink:title="Command line parser for toggling SPIR&#45;V extensions.">
<polygon fill="white" stroke="#666666" points="808.88,-660.7 660.88,-660.7 660.88,-641.45 808.88,-641.45 808.88,-660.7"/>
<text xml:space="preserve" text-anchor="middle" x="734.88" y="-647.2" font-family="Helvetica,sans-Serif" font-size="10.00">llvm::SPIRVExtensionsParser</text>
</a>
</g>
</g>
<!-- Node8&#45;&gt;Node9 -->
<g id="edge8_Node000008_Node000009" class="edge">
<title>Node8&#45;&gt;Node9</title>
<g id="a_edge8_Node000008_Node000009"><a xlink:title=" ">
<path fill="none" stroke="#63b8ff" d="M622.44,-651.08C635.02,-651.08 648.1,-651.08 660.69,-651.08"/>
<polygon fill="#63b8ff" stroke="#63b8ff" points="622.57,-647.58 612.57,-651.08 622.57,-654.58 622.57,-647.58"/>
</a>
</g>
</g>
<!-- Node11 -->
<g id="Node000011" class="node">
<title>Node11</title>
<g id="a_Node000011"><a xlink:href="classllvm_1_1remarks_1_1HotnessThresholdParser.html" target="_top" xlink:title=" ">
<polygon fill="white" stroke="#666666" points="815.25,-1077.33 654.5,-1077.33 654.5,-1046.83 815.25,-1046.83 815.25,-1077.33"/>
<text xml:space="preserve" text-anchor="start" x="662.5" y="-1063.83" font-family="Helvetica,sans-Serif" font-size="10.00">llvm::remarks::HotnessThreshold</text>
<text xml:space="preserve" text-anchor="middle" x="734.88" y="-1052.58" font-family="Helvetica,sans-Serif" font-size="10.00">Parser</text>
</a>
</g>
</g>
<!-- Node10&#45;&gt;Node11 -->
<g id="edge10_Node000010_Node000011" class="edge">
<title>Node10&#45;&gt;Node11</title>
<g id="a_edge10_Node000010_Node000011"><a xlink:title=" ">
<path fill="none" stroke="#63b8ff" d="M619.05,-1062.08C630.54,-1062.08 642.54,-1062.08 654.26,-1062.08"/>
<polygon fill="#63b8ff" stroke="#63b8ff" points="619.27,-1058.58 609.27,-1062.08 619.27,-1065.58 619.27,-1058.58"/>
</a>
</g>
</g>
<!-- Node24&#45;&gt;Node2 -->
<g id="edge24_Node000024_Node000002" class="edge">
<title>Node24&#45;&gt;Node2</title>
<g id="a_edge24_Node000024_Node000002"><a xlink:title=" ">
<path fill="none" stroke="orange" stroke-dasharray="5,2" d="M304.77,-560.54C316.03,-558.12 327.88,-555.74 339,-553.83 390.47,-545 449.57,-538 491.72,-533.54"/>
<polygon fill="orange" stroke="orange" points="304.24,-557.08 295.23,-562.64 305.75,-563.91 304.24,-557.08"/>
</a>
</g>
<text xml:space="preserve" text-anchor="start" x="355.12" y="-558.58" font-family="Helvetica,sans-Serif" font-size="10.00" fill="grey">&lt; const PassInfo * &gt;</text>
</g>
<!-- Node24&#45;&gt;Node4 -->
<g id="edge25_Node000024_Node000004" class="edge">
<title>Node24&#45;&gt;Node4</title>
<g id="a_edge25_Node000024_Node000004"><a xlink:title=" ">
<path fill="none" stroke="orange" stroke-dasharray="5,2" d="M266.45,-591.91C282.33,-610.94 309.35,-639.79 339,-656.08 384.01,-680.8 440.89,-693.97 483.91,-700.86"/>
<polygon fill="orange" stroke="orange" points="269.18,-589.72 260.17,-584.15 263.74,-594.12 269.18,-589.72"/>
</a>
</g>
<text xml:space="preserve" text-anchor="start" x="361.12" y="-701.23" font-family="Helvetica,sans-Serif" font-size="10.00" fill="grey">&lt; RegAllocType &gt;</text>
</g>
<!-- Node24&#45;&gt;Node6 -->
<g id="edge26_Node000024_Node000006" class="edge">
<title>Node24&#45;&gt;Node6</title>
<g id="a_edge26_Node000024_Node000006"><a xlink:title=" ">
<path fill="none" stroke="orange" stroke-dasharray="5,2" d="M252.69,-594.63C256.84,-679.67 276.13,-990.79 339,-1062.08 374.4,-1102.22 434.13,-1117.86 480.65,-1123.81"/>
<polygon fill="orange" stroke="orange" points="256.19,-594.53 252.23,-584.7 249.2,-594.85 256.19,-594.53"/>
</a>
</g>
<text xml:space="preserve" text-anchor="start" x="343.12" y="-1140.01" font-family="Helvetica,sans-Serif" font-size="10.00" fill="grey">&lt; RegistryClass::Function</text>
<text xml:space="preserve" text-anchor="start" x="343.12" y="-1124.76" font-family="Helvetica,sans-Serif" font-size="10.00" fill="grey">  PassCtor &gt;</text>
</g>
<!-- Node24&#45;&gt;Node8 -->
<g id="edge27_Node000024_Node000008" class="edge">
<title>Node24&#45;&gt;Node8</title>
<g id="a_edge27_Node000024_Node000008"><a xlink:title=" ">
<path fill="none" stroke="orange" stroke-dasharray="5,2" d="M295.47,-586.3C309.33,-590.3 324.76,-594.57 339,-598.08 393.21,-611.44 408.01,-609.37 462,-623.58 470.01,-625.69 478.38,-628.1 486.62,-630.61"/>
<polygon fill="orange" stroke="orange" points="296.77,-583.03 286.19,-583.59 294.81,-589.75 296.77,-583.03"/>
</a>
</g>
<text xml:space="preserve" text-anchor="start" x="342" y="-643.58" font-family="Helvetica,sans-Serif" font-size="10.00" fill="grey">&lt; std::set&lt; SPIRV::</text>
<text xml:space="preserve" text-anchor="start" x="342" y="-628.33" font-family="Helvetica,sans-Serif" font-size="10.00" fill="grey">  Extension::Extension &gt; &gt;</text>
</g>
<!-- Node24&#45;&gt;Node10 -->
<g id="edge28_Node000024_Node000010" class="edge">
<title>Node24&#45;&gt;Node10</title>
<g id="a_edge28_Node000024_Node000010"><a xlink:title=" ">
<path fill="none" stroke="orange" stroke-dasharray="5,2" d="M253.71,-594.31C261,-669.01 288.73,-918.42 339,-978.08 341.89,-981.51 447.89,-1023.18 507.7,-1046.51"/>
<polygon fill="orange" stroke="orange" points="257.23,-594.3 252.79,-584.68 250.26,-594.96 257.23,-594.3"/>
</a>
</g>
<text xml:space="preserve" text-anchor="start" x="351.75" y="-1046.75" font-family="Helvetica,sans-Serif" font-size="10.00" fill="grey">&lt; std::optional&lt; uint64</text>
<text xml:space="preserve" text-anchor="start" x="351.75" y="-1031.5" font-family="Helvetica,sans-Serif" font-size="10.00" fill="grey">  _t &gt; &gt;</text>
</g>
<!-- Node24&#45;&gt;Node12 -->
<g id="edge29_Node000024_Node000012" class="edge">
<title>Node24&#45;&gt;Node12</title>
<g id="a_edge29_Node000024_Node000012"><a xlink:title=" ">
<path fill="none" stroke="orange" stroke-dasharray="5,2" d="M258.12,-593.96C269.07,-626.13 294.7,-687.32 339,-718.08 383.37,-748.88 445.32,-757.2 490.2,-758.68"/>
<polygon fill="orange" stroke="orange" points="261.5,-593.05 255.09,-584.61 254.84,-595.2 261.5,-593.05"/>
</a>
</g>
<text xml:space="preserve" text-anchor="start" x="382.5" y="-761.12" font-family="Helvetica,sans-Serif" font-size="10.00" fill="grey">&lt; bool &gt;</text>
</g>
<!-- Node24&#45;&gt;Node13 -->
<g id="edge30_Node000024_Node000013" class="edge">
<title>Node24&#45;&gt;Node13</title>
<g id="a_edge30_Node000024_Node000013"><a xlink:title=" ">
<path fill="none" stroke="orange" stroke-dasharray="5,2" d="M251.75,-594.36C252.99,-645.79 263.75,-777.5 339,-844.08 379.9,-880.27 443.28,-887.98 489.48,-888.05"/>
<polygon fill="orange" stroke="orange" points="255.26,-594.57 251.63,-584.61 248.26,-594.66 255.26,-594.57"/>
</a>
</g>
<text xml:space="preserve" text-anchor="start" x="361.5" y="-891.62" font-family="Helvetica,sans-Serif" font-size="10.00" fill="grey">&lt; boolOrDefault &gt;</text>
</g>
<!-- Node24&#45;&gt;Node14 -->
<g id="edge31_Node000024_Node000014" class="edge">
<title>Node24&#45;&gt;Node14</title>
<g id="a_edge31_Node000024_Node000014"><a xlink:title=" ">
<path fill="none" stroke="orange" stroke-dasharray="5,2" d="M254.4,-594.23C263.14,-660.66 293.14,-863.32 339,-908.08 378.69,-946.82 442.9,-957.07 489.63,-958.86"/>
<polygon fill="orange" stroke="orange" points="257.92,-594.14 253.17,-584.67 250.97,-595.03 257.92,-594.14"/>
</a>
</g>
<text xml:space="preserve" text-anchor="start" x="382.12" y="-961.18" font-family="Helvetica,sans-Serif" font-size="10.00" fill="grey">&lt; char &gt;</text>
</g>
<!-- Node24&#45;&gt;Node15 -->
<g id="edge32_Node000024_Node000015" class="edge">
<title>Node24&#45;&gt;Node15</title>
<g id="a_edge32_Node000024_Node000015"><a xlink:title=" ">
<path fill="none" stroke="orange" stroke-dasharray="5,2" d="M254.43,-551.75C263.35,-483.8 294.07,-273.99 339,-224.83 361.53,-200.18 449.87,-175.43 504.15,-162.1"/>
<polygon fill="orange" stroke="orange" points="250.97,-551.17 253.17,-561.54 257.91,-552.06 250.97,-551.17"/>
</a>
</g>
<text xml:space="preserve" text-anchor="start" x="377.25" y="-229.58" font-family="Helvetica,sans-Serif" font-size="10.00" fill="grey">&lt; double &gt;</text>
</g>
<!-- Node24&#45;&gt;Node16 -->
<g id="edge33_Node000024_Node000016" class="edge">
<title>Node24&#45;&gt;Node16</title>
<g id="a_edge33_Node000024_Node000016"><a xlink:title=" ">
<path fill="none" stroke="orange" stroke-dasharray="5,2" d="M252.53,-551.74C256.07,-467.58 273.35,-160.01 339,-93.83 377.97,-54.54 442.94,-47.65 490.06,-48.67"/>
<polygon fill="orange" stroke="orange" points="249.04,-551.43 252.14,-561.56 256.04,-551.7 249.04,-551.43"/>
</a>
</g>
<text xml:space="preserve" text-anchor="start" x="382.12" y="-98.58" font-family="Helvetica,sans-Serif" font-size="10.00" fill="grey">&lt; float &gt;</text>
</g>
<!-- Node24&#45;&gt;Node17 -->
<g id="edge34_Node000024_Node000017" class="edge">
<title>Node24&#45;&gt;Node17</title>
<g id="a_edge34_Node000024_Node000017"><a xlink:title=" ">
<path fill="none" stroke="orange" stroke-dasharray="5,2" d="M251.71,-551.8C252.82,-499.13 263.24,-361.58 339,-287.83 360.96,-266.45 439.58,-248.89 493.81,-238.94"/>
<polygon fill="orange" stroke="orange" points="248.22,-551.47 251.61,-561.5 255.22,-551.54 248.22,-551.47"/>
</a>
</g>
<text xml:space="preserve" text-anchor="start" x="386.25" y="-292.58" font-family="Helvetica,sans-Serif" font-size="10.00" fill="grey">&lt; int &gt;</text>
</g>
<!-- Node24&#45;&gt;Node18 -->
<g id="edge35_Node000024_Node000018" class="edge">
<title>Node24&#45;&gt;Node18</title>
<g id="a_edge35_Node000024_Node000018"><a xlink:title=" ">
<path fill="none" stroke="orange" stroke-dasharray="5,2" d="M253.78,-552.06C259.18,-507.87 277.98,-404.89 339,-349.83 361.2,-329.8 436.35,-312.38 490.11,-302.04"/>
<polygon fill="orange" stroke="orange" points="250.32,-551.5 252.7,-561.82 257.28,-552.26 250.32,-551.5"/>
</a>
</g>
<text xml:space="preserve" text-anchor="start" x="382.5" y="-354.58" font-family="Helvetica,sans-Serif" font-size="10.00" fill="grey">&lt; long &gt;</text>
</g>
<!-- Node24&#45;&gt;Node19 -->
<g id="edge36_Node000024_Node000019" class="edge">
<title>Node24&#45;&gt;Node19</title>
<g id="a_edge36_Node000024_Node000019"><a xlink:title=" ">
<path fill="none" stroke="orange" stroke-dasharray="5,2" d="M253.15,-552.19C258.71,-475.37 281.81,-209.95 339,-151.83 360.36,-130.12 440.02,-117.04 494.52,-110.44"/>
<polygon fill="orange" stroke="orange" points="249.69,-551.47 252.48,-561.69 256.67,-551.96 249.69,-551.47"/>
</a>
</g>
<text xml:space="preserve" text-anchor="start" x="372" y="-156.58" font-family="Helvetica,sans-Serif" font-size="10.00" fill="grey">&lt; long long &gt;</text>
</g>
<!-- Node24&#45;&gt;Node20 -->
<g id="edge37_Node000024_Node000020" class="edge">
<title>Node24&#45;&gt;Node20</title>
<g id="a_edge37_Node000024_Node000020"><a xlink:title=" ">
<path fill="none" stroke="orange" stroke-dasharray="5,2" d="M332.45,-574.71C384.89,-575.78 451.66,-577.13 496.83,-578.05"/>
<polygon fill="orange" stroke="orange" points="332.73,-571.22 322.66,-574.52 332.59,-578.22 332.73,-571.22"/>
</a>
</g>
<text xml:space="preserve" text-anchor="start" x="369.75" y="-582.06" font-family="Helvetica,sans-Serif" font-size="10.00" fill="grey">&lt; std::string &gt;</text>
</g>
<!-- Node24&#45;&gt;Node21 -->
<g id="edge38_Node000024_Node000021" class="edge">
<title>Node24&#45;&gt;Node21</title>
<g id="a_edge38_Node000024_Node000021"><a xlink:title=" ">
<path fill="none" stroke="orange" stroke-dasharray="5,2" d="M254.38,-594.35C260.75,-636.33 281,-729.95 339,-778.08 378.13,-810.55 435.16,-821.44 479.73,-824.55"/>
<polygon fill="orange" stroke="orange" points="257.87,-594.01 253.03,-584.58 250.93,-594.97 257.87,-594.01"/>
</a>
</g>
<text xml:space="preserve" text-anchor="start" x="372" y="-827.49" font-family="Helvetica,sans-Serif" font-size="10.00" fill="grey">&lt; unsigned &gt;</text>
</g>
<!-- Node24&#45;&gt;Node22 -->
<g id="edge39_Node000024_Node000022" class="edge">
<title>Node24&#45;&gt;Node22</title>
<g id="a_edge39_Node000024_Node000022"><a xlink:title=" ">
<path fill="none" stroke="orange" stroke-dasharray="5,2" d="M260.34,-552.86C273.48,-524.07 301.08,-471.18 339,-438.83 383.2,-401.12 445.17,-376.2 490.11,-361.77"/>
<polygon fill="orange" stroke="orange" points="257.19,-551.32 256.36,-561.88 263.6,-554.15 257.19,-551.32"/>
</a>
</g>
<text xml:space="preserve" text-anchor="start" x="361.5" y="-443.58" font-family="Helvetica,sans-Serif" font-size="10.00" fill="grey">&lt; unsigned long &gt;</text>
</g>
<!-- Node24&#45;&gt;Node23 -->
<g id="edge40_Node000024_Node000023" class="edge">
<title>Node24&#45;&gt;Node23</title>
<g id="a_edge40_Node000024_Node000023"><a xlink:title=" ">
<path fill="none" stroke="orange" stroke-dasharray="5,2" d="M274.39,-556.57C291.61,-544.43 316.14,-528 339,-515.83 394,-486.54 460.92,-459.88 503.91,-443.82"/>
<polygon fill="orange" stroke="orange" points="272.51,-553.61 266.41,-562.27 276.58,-559.31 272.51,-553.61"/>
</a>
</g>
<text xml:space="preserve" text-anchor="start" x="351" y="-520.58" font-family="Helvetica,sans-Serif" font-size="10.00" fill="grey">&lt; unsigned long long &gt;</text>
</g>
</g>
</svg>
