<?xml version="1.0" encoding="UTF-8" standalone="no"?>
<!DOCTYPE svg PUBLIC "-//W3C//DTD SVG 1.1//EN"
 "http://www.w3.org/Graphics/SVG/1.1/DTD/svg11.dtd">
<!-- Generated by graphviz version 13.1.2 (20250808.2320)
 -->
<!-- Title: llvm::DiagnosticInfoIROptimization Pages: 1 -->
<svg width="1050pt" height="174pt"
 viewBox="0.00 0.00 1050.00 174.00" xmlns="http://www.w3.org/2000/svg" xmlns:xlink="http://www.w3.org/1999/xlink">
<g id="graph0" class="graph" transform="scale(1 1) rotate(0) translate(4 169.5)">
<title>llvm::DiagnosticInfoIROptimization</title>
<!-- Node1 -->
<g id="Node000001" class="node">
<title>Node1</title>
<g id="a_Node000001"><a xlink:title="Common features for diagnostics dealing with optimization remarks that are used by IR passes.">
<polygon fill="#999999" stroke="#666666" points="682.75,-94.88 514.5,-94.88 514.5,-75.62 682.75,-75.62 682.75,-94.88"/>
<text xml:space="preserve" text-anchor="middle" x="598.62" y="-81.38" font-family="Helvetica,sans-Serif" font-size="10.00">llvm::DiagnosticInfoIROptimization</text>
</a>
</g>
</g>
<!-- Node5 -->
<g id="Node000005" class="node">
<title>Node5</title>
<g id="a_Node000005"><a xlink:href="classllvm_1_1DiagnosticInfoOptimizationFailure.html" target="_top" xlink:title="Diagnostic information for optimization failures.">
<polygon fill="white" stroke="#666666" points="876.5,-165.5 718.75,-165.5 718.75,-135 876.5,-135 876.5,-165.5"/>
<text xml:space="preserve" text-anchor="start" x="726.75" y="-152" font-family="Helvetica,sans-Serif" font-size="10.00">llvm::DiagnosticInfoOptimization</text>
<text xml:space="preserve" text-anchor="middle" x="797.62" y="-140.75" font-family="Helvetica,sans-Serif" font-size="10.00">Failure</text>
</a>
</g>
</g>
<!-- Node1&#45;&gt;Node5 -->
<g id="edge4_Node000001_Node000005" class="edge">
<title>Node1&#45;&gt;Node5</title>
<g id="a_edge4_Node000001_Node000005"><a xlink:title=" ">
<path fill="none" stroke="#63b8ff" d="M638.73,-99.07C661.93,-107.18 691.94,-117.51 718.75,-126.25 727.22,-129.01 736.24,-131.87 745.03,-134.61"/>
<polygon fill="#63b8ff" stroke="#63b8ff" points="639.96,-95.79 629.37,-95.79 637.65,-102.4 639.96,-95.79"/>
</a>
</g>
</g>
<!-- Node6 -->
<g id="Node000006" class="node">
<title>Node6</title>
<g id="a_Node000006"><a xlink:href="classllvm_1_1OptimizationRemark.html" target="_top" xlink:title="Diagnostic information for applied optimization remarks.">
<polygon fill="white" stroke="#666666" points="862.25,-116.88 733,-116.88 733,-97.62 862.25,-97.62 862.25,-116.88"/>
<text xml:space="preserve" text-anchor="middle" x="797.62" y="-103.38" font-family="Helvetica,sans-Serif" font-size="10.00">llvm::OptimizationRemark</text>
</a>
</g>
</g>
<!-- Node1&#45;&gt;Node6 -->
<g id="edge5_Node000001_Node000006" class="edge">
<title>Node1&#45;&gt;Node6</title>
<g id="a_edge5_Node000001_Node000006"><a xlink:title=" ">
<path fill="none" stroke="#63b8ff" d="M694.5,-95.85C707.44,-97.29 720.46,-98.74 732.68,-100.11"/>
<polygon fill="#63b8ff" stroke="#63b8ff" points="695,-92.38 684.67,-94.75 694.22,-99.34 695,-92.38"/>
</a>
</g>
</g>
<!-- Node7 -->
<g id="Node000007" class="node">
<title>Node7</title>
<g id="a_Node000007"><a xlink:href="classllvm_1_1OptimizationRemarkAnalysis.html" target="_top" xlink:title="Diagnostic information for optimization analysis remarks.">
<polygon fill="white" stroke="#666666" points="862.25,-79.5 733,-79.5 733,-49 862.25,-49 862.25,-79.5"/>
<text xml:space="preserve" text-anchor="start" x="741" y="-66" font-family="Helvetica,sans-Serif" font-size="10.00">llvm::OptimizationRemark</text>
<text xml:space="preserve" text-anchor="middle" x="797.62" y="-54.75" font-family="Helvetica,sans-Serif" font-size="10.00">Analysis</text>
</a>
</g>
</g>
<!-- Node1&#45;&gt;Node7 -->
<g id="edge6_Node000001_Node000007" class="edge">
<title>Node1&#45;&gt;Node7</title>
<g id="a_edge6_Node000001_Node000007"><a xlink:title=" ">
<path fill="none" stroke="#63b8ff" d="M694.5,-75.14C707.44,-73.76 720.46,-72.37 732.68,-71.07"/>
<polygon fill="#63b8ff" stroke="#63b8ff" points="694.25,-71.64 684.68,-76.18 694.99,-78.6 694.25,-71.64"/>
</a>
</g>
</g>
<!-- Node10 -->
<g id="Node000010" class="node">
<title>Node10</title>
<g id="a_Node000010"><a xlink:href="classllvm_1_1OptimizationRemarkMissed.html" target="_top" xlink:title="Diagnostic information for missed&#45;optimization remarks.">
<polygon fill="white" stroke="#666666" points="862.25,-30.5 733,-30.5 733,0 862.25,0 862.25,-30.5"/>
<text xml:space="preserve" text-anchor="start" x="741" y="-17" font-family="Helvetica,sans-Serif" font-size="10.00">llvm::OptimizationRemark</text>
<text xml:space="preserve" text-anchor="middle" x="797.62" y="-5.75" font-family="Helvetica,sans-Serif" font-size="10.00">Missed</text>
</a>
</g>
</g>
<!-- Node1&#45;&gt;Node10 -->
<g id="edge9_Node000001_Node000010" class="edge">
<title>Node1&#45;&gt;Node10</title>
<g id="a_edge9_Node000001_Node000010"><a xlink:title=" ">
<path fill="none" stroke="#63b8ff" d="M635.59,-71.12C659.14,-62.01 690.64,-50.06 718.75,-40.25 727.73,-37.11 737.35,-33.91 746.65,-30.88"/>
<polygon fill="#63b8ff" stroke="#63b8ff" points="634.51,-67.79 626.46,-74.67 637.05,-74.31 634.51,-67.79"/>
</a>
</g>
</g>
<!-- Node2 -->
<g id="Node000002" class="node">
<title>Node2</title>
<g id="a_Node000002"><a xlink:href="classllvm_1_1DiagnosticInfoOptimizationBase.html" target="_top" xlink:title="Common features for diagnostics dealing with optimization remarks that are used by both IR and MIR pa...">
<polygon fill="white" stroke="#666666" points="478.5,-94.88 298.25,-94.88 298.25,-75.62 478.5,-75.62 478.5,-94.88"/>
<text xml:space="preserve" text-anchor="middle" x="388.38" y="-81.38" font-family="Helvetica,sans-Serif" font-size="10.00">llvm::DiagnosticInfoOptimizationBase</text>
</a>
</g>
</g>
<!-- Node2&#45;&gt;Node1 -->
<g id="edge1_Node000001_Node000002" class="edge">
<title>Node2&#45;&gt;Node1</title>
<g id="a_edge1_Node000001_Node000002"><a xlink:title=" ">
<path fill="none" stroke="#63b8ff" d="M490.19,-85.25C498.2,-85.25 506.23,-85.25 514.1,-85.25"/>
<polygon fill="#63b8ff" stroke="#63b8ff" points="490.41,-81.75 480.41,-85.25 490.41,-88.75 490.41,-81.75"/>
</a>
</g>
</g>
<!-- Node3 -->
<g id="Node000003" class="node">
<title>Node3</title>
<g id="a_Node000003"><a xlink:href="classllvm_1_1DiagnosticInfoWithLocationBase.html" target="_top" xlink:title="Common features for diagnostics with an associated location.">
<polygon fill="white" stroke="#666666" points="262.25,-100.5 139,-100.5 139,-70 262.25,-70 262.25,-100.5"/>
<text xml:space="preserve" text-anchor="start" x="147" y="-87" font-family="Helvetica,sans-Serif" font-size="10.00">llvm::DiagnosticInfoWith</text>
<text xml:space="preserve" text-anchor="middle" x="200.62" y="-75.75" font-family="Helvetica,sans-Serif" font-size="10.00">LocationBase</text>
</a>
</g>
</g>
<!-- Node3&#45;&gt;Node2 -->
<g id="edge2_Node000002_Node000003" class="edge">
<title>Node3&#45;&gt;Node2</title>
<g id="a_edge2_Node000002_Node000003"><a xlink:title=" ">
<path fill="none" stroke="#63b8ff" d="M274.04,-85.25C281.9,-85.25 289.97,-85.25 298,-85.25"/>
<polygon fill="#63b8ff" stroke="#63b8ff" points="274.22,-81.75 264.22,-85.25 274.22,-88.75 274.22,-81.75"/>
</a>
</g>
</g>
<!-- Node4 -->
<g id="Node000004" class="node">
<title>Node4</title>
<g id="a_Node000004"><a xlink:href="classllvm_1_1DiagnosticInfo.html" target="_top" xlink:title="This is the base abstract class for diagnostic reporting in the backend.">
<polygon fill="white" stroke="#666666" points="103,-94.88 0,-94.88 0,-75.62 103,-75.62 103,-94.88"/>
<text xml:space="preserve" text-anchor="middle" x="51.5" y="-81.38" font-family="Helvetica,sans-Serif" font-size="10.00">llvm::DiagnosticInfo</text>
</a>
</g>
</g>
<!-- Node4&#45;&gt;Node3 -->
<g id="edge3_Node000003_Node000004" class="edge">
<title>Node4&#45;&gt;Node3</title>
<g id="a_edge3_Node000003_Node000004"><a xlink:title=" ">
<path fill="none" stroke="#63b8ff" d="M114.65,-85.25C122.62,-85.25 130.79,-85.25 138.74,-85.25"/>
<polygon fill="#63b8ff" stroke="#63b8ff" points="114.65,-81.75 104.65,-85.25 114.65,-88.75 114.65,-81.75"/>
</a>
</g>
</g>
<!-- Node8 -->
<g id="Node000008" class="node">
<title>Node8</title>
<g id="a_Node000008"><a xlink:href="classllvm_1_1OptimizationRemarkAnalysisAliasing.html" target="_top" xlink:title="Diagnostic information for optimization analysis remarks related to pointer aliasing.">
<polygon fill="white" stroke="#666666" points="1041.75,-103.5 912.5,-103.5 912.5,-73 1041.75,-73 1041.75,-103.5"/>
<text xml:space="preserve" text-anchor="start" x="920.5" y="-90" font-family="Helvetica,sans-Serif" font-size="10.00">llvm::OptimizationRemark</text>
<text xml:space="preserve" text-anchor="middle" x="977.12" y="-78.75" font-family="Helvetica,sans-Serif" font-size="10.00">AnalysisAliasing</text>
</a>
</g>
</g>
<!-- Node7&#45;&gt;Node8 -->
<g id="edge7_Node000007_Node000008" class="edge">
<title>Node7&#45;&gt;Node8</title>
<g id="a_edge7_Node000007_Node000008"><a xlink:title=" ">
<path fill="none" stroke="#63b8ff" d="M873.79,-74.41C886.55,-76.14 899.7,-77.92 912.14,-79.6"/>
<polygon fill="#63b8ff" stroke="#63b8ff" points="874.59,-70.99 864.21,-73.12 873.65,-77.93 874.59,-70.99"/>
</a>
</g>
</g>
<!-- Node9 -->
<g id="Node000009" class="node">
<title>Node9</title>
<g id="a_Node000009"><a xlink:href="classllvm_1_1OptimizationRemarkAnalysisFPCommute.html" target="_top" xlink:title="Diagnostic information for optimization analysis remarks related to floating&#45;point non&#45;commutativity.">
<polygon fill="white" stroke="#666666" points="1041.75,-54.5 912.5,-54.5 912.5,-24 1041.75,-24 1041.75,-54.5"/>
<text xml:space="preserve" text-anchor="start" x="920.5" y="-41" font-family="Helvetica,sans-Serif" font-size="10.00">llvm::OptimizationRemark</text>
<text xml:space="preserve" text-anchor="middle" x="977.12" y="-29.75" font-family="Helvetica,sans-Serif" font-size="10.00">AnalysisFPCommute</text>
</a>
</g>
</g>
<!-- Node7&#45;&gt;Node9 -->
<g id="edge8_Node000007_Node000009" class="edge">
<title>Node7&#45;&gt;Node9</title>
<g id="a_edge8_Node000007_Node000009"><a xlink:title=" ">
<path fill="none" stroke="#63b8ff" d="M873.79,-53.66C886.55,-51.87 899.7,-50.01 912.14,-48.26"/>
<polygon fill="#63b8ff" stroke="#63b8ff" points="873.62,-50.15 864.21,-55.01 874.6,-57.08 873.62,-50.15"/>
</a>
</g>
</g>
</g>
</svg>
