<?xml version="1.0" encoding="UTF-8" standalone="no"?>
<!DOCTYPE svg PUBLIC "-//W3C//DTD SVG 1.1//EN"
 "http://www.w3.org/Graphics/SVG/1.1/DTD/svg11.dtd">
<!-- Generated by graphviz version 13.1.2 (20250808.2320)
 -->
<!-- Title: llvm::logicalview::LVScopeTemplatePack Pages: 1 -->
<svg width="125pt" height="238pt"
 viewBox="0.00 0.00 125.00 238.00" xmlns="http://www.w3.org/2000/svg" xmlns:xlink="http://www.w3.org/1999/xlink">
<g id="graph0" class="graph" transform="scale(1 1) rotate(0) translate(4 234)">
<title>llvm::logicalview::LVScopeTemplatePack</title>
<!-- Node1 -->
<g id="Node000001" class="node">
<title>Node1</title>
<g id="a_Node000001"><a xlink:title=" ">
<polygon fill="#999999" stroke="#666666" points="117.25,-30.5 0,-30.5 0,0 117.25,0 117.25,-30.5"/>
<text xml:space="preserve" text-anchor="start" x="8" y="-17" font-family="Helvetica,sans-Serif" font-size="10.00">llvm::logicalview::</text>
<text xml:space="preserve" text-anchor="middle" x="58.62" y="-5.75" font-family="Helvetica,sans-Serif" font-size="10.00">LVScopeTemplatePack</text>
</a>
</g>
</g>
<!-- Node2 -->
<g id="Node000002" class="node">
<title>Node2</title>
<g id="a_Node000002"><a xlink:href="classllvm_1_1logicalview_1_1LVScope.html" target="_top" xlink:title=" ">
<polygon fill="white" stroke="#666666" points="105.62,-97 11.62,-97 11.62,-66.5 105.62,-66.5 105.62,-97"/>
<text xml:space="preserve" text-anchor="start" x="19.62" y="-83.5" font-family="Helvetica,sans-Serif" font-size="10.00">llvm::logicalview::</text>
<text xml:space="preserve" text-anchor="middle" x="58.62" y="-72.25" font-family="Helvetica,sans-Serif" font-size="10.00">LVScope</text>
</a>
</g>
</g>
<!-- Node2&#45;&gt;Node1 -->
<g id="edge1_Node000001_Node000002" class="edge">
<title>Node2&#45;&gt;Node1</title>
<g id="a_edge1_Node000001_Node000002"><a xlink:title=" ">
<path fill="none" stroke="#63b8ff" d="M58.62,-54.81C58.62,-46.64 58.62,-37.91 58.62,-30.83"/>
<polygon fill="#63b8ff" stroke="#63b8ff" points="55.13,-54.6 58.63,-64.6 62.13,-54.6 55.13,-54.6"/>
</a>
</g>
</g>
<!-- Node3 -->
<g id="Node000003" class="node">
<title>Node3</title>
<g id="a_Node000003"><a xlink:href="classllvm_1_1logicalview_1_1LVElement.html" target="_top" xlink:title=" ">
<polygon fill="white" stroke="#666666" points="105.62,-163.5 11.62,-163.5 11.62,-133 105.62,-133 105.62,-163.5"/>
<text xml:space="preserve" text-anchor="start" x="19.62" y="-150" font-family="Helvetica,sans-Serif" font-size="10.00">llvm::logicalview::</text>
<text xml:space="preserve" text-anchor="middle" x="58.62" y="-138.75" font-family="Helvetica,sans-Serif" font-size="10.00">LVElement</text>
</a>
</g>
</g>
<!-- Node3&#45;&gt;Node2 -->
<g id="edge2_Node000002_Node000003" class="edge">
<title>Node3&#45;&gt;Node2</title>
<g id="a_edge2_Node000002_Node000003"><a xlink:title=" ">
<path fill="none" stroke="#63b8ff" d="M58.62,-121.31C58.62,-113.14 58.62,-104.41 58.62,-97.33"/>
<polygon fill="#63b8ff" stroke="#63b8ff" points="55.13,-121.1 58.63,-131.1 62.13,-121.1 55.13,-121.1"/>
</a>
</g>
</g>
<!-- Node4 -->
<g id="Node000004" class="node">
<title>Node4</title>
<g id="a_Node000004"><a xlink:href="classllvm_1_1logicalview_1_1LVObject.html" target="_top" xlink:title=" ">
<polygon fill="white" stroke="#666666" points="105.62,-230 11.62,-230 11.62,-199.5 105.62,-199.5 105.62,-230"/>
<text xml:space="preserve" text-anchor="start" x="19.62" y="-216.5" font-family="Helvetica,sans-Serif" font-size="10.00">llvm::logicalview::</text>
<text xml:space="preserve" text-anchor="middle" x="58.62" y="-205.25" font-family="Helvetica,sans-Serif" font-size="10.00">LVObject</text>
</a>
</g>
</g>
<!-- Node4&#45;&gt;Node3 -->
<g id="edge3_Node000003_Node000004" class="edge">
<title>Node4&#45;&gt;Node3</title>
<g id="a_edge3_Node000003_Node000004"><a xlink:title=" ">
<path fill="none" stroke="#63b8ff" d="M58.62,-187.81C58.62,-179.64 58.62,-170.91 58.62,-163.83"/>
<polygon fill="#63b8ff" stroke="#63b8ff" points="55.13,-187.6 58.63,-197.6 62.13,-187.6 55.13,-187.6"/>
</a>
</g>
</g>
</g>
</svg>
