<?xml version="1.0" encoding="UTF-8" standalone="no"?>
<!DOCTYPE svg PUBLIC "-//W3C//DTD SVG 1.1//EN"
 "http://www.w3.org/Graphics/SVG/1.1/DTD/svg11.dtd">
<!-- Generated by graphviz version 13.1.2 (20250808.2320)
 -->
<!-- Title: llvm::cl::opt_storage&lt; DataType, ExternalStorage, isClass &gt; Pages: 1 -->
<svg width="1057pt" height="294pt"
 viewBox="0.00 0.00 1057.00 294.00" xmlns="http://www.w3.org/2000/svg" xmlns:xlink="http://www.w3.org/1999/xlink">
<g id="graph0" class="graph" transform="scale(1 1) rotate(0) translate(4 289.74)">
<title>llvm::cl::opt_storage&lt; DataType, ExternalStorage, isClass &gt;</title>
<!-- Node1 -->
<g id="Node000001" class="node">
<title>Node1</title>
<g id="a_Node000001"><a xlink:title=" ">
<polygon fill="#999999" stroke="#666666" points="145.75,-148.12 0,-148.12 0,-106.38 145.75,-106.38 145.75,-148.12"/>
<text xml:space="preserve" text-anchor="start" x="8" y="-134.62" font-family="Helvetica,sans-Serif" font-size="10.00">llvm::cl::opt_storage</text>
<text xml:space="preserve" text-anchor="start" x="8" y="-123.38" font-family="Helvetica,sans-Serif" font-size="10.00">&lt; DataType, ExternalStorage,</text>
<text xml:space="preserve" text-anchor="middle" x="72.88" y="-112.12" font-family="Helvetica,sans-Serif" font-size="10.00"> isClass &gt;</text>
</a>
</g>
</g>
<!-- Node2 -->
<g id="Node000002" class="node">
<title>Node2</title>
<g id="a_Node000002"><a xlink:href="classllvm_1_1cl_1_1opt__storage.html" target="_top" xlink:title=" ">
<polygon fill="white" stroke="#666666" points="470.75,-204.12 333.25,-204.12 333.25,-162.38 470.75,-162.38 470.75,-204.12"/>
<text xml:space="preserve" text-anchor="start" x="341.25" y="-190.62" font-family="Helvetica,sans-Serif" font-size="10.00">llvm::cl::opt_storage</text>
<text xml:space="preserve" text-anchor="start" x="341.25" y="-179.38" font-family="Helvetica,sans-Serif" font-size="10.00">&lt; DataType, false, std</text>
<text xml:space="preserve" text-anchor="middle" x="402" y="-168.12" font-family="Helvetica,sans-Serif" font-size="10.00">::is_class_v&lt; DataType &gt; &gt;</text>
</a>
</g>
</g>
<!-- Node1&#45;&gt;Node2 -->
<g id="edge1_Node000001_Node000002" class="edge">
<title>Node1&#45;&gt;Node2</title>
<g id="a_edge1_Node000001_Node000002"><a xlink:title=" ">
<path fill="none" stroke="orange" stroke-dasharray="5,2" d="M133.64,-152.4C143.56,-155.83 153.84,-158.96 163.75,-161.25 219.87,-174.22 285.14,-179.59 332.99,-181.79"/>
<polygon fill="orange" stroke="orange" points="135.07,-149.19 124.47,-149.09 132.69,-155.78 135.07,-149.19"/>
</a>
</g>
<text xml:space="preserve" text-anchor="start" x="167.5" y="-200.53" font-family="Helvetica,sans-Serif" font-size="10.00" fill="grey">&lt; DataType, false,</text>
<text xml:space="preserve" text-anchor="start" x="167.5" y="-185.28" font-family="Helvetica,sans-Serif" font-size="10.00" fill="grey">   std::is_class_v&lt; DataType &gt; &gt;</text>
</g>
<!-- Node6 -->
<g id="Node000006" class="node">
<title>Node6</title>
<g id="a_Node000006"><a xlink:href="classllvm_1_1cl_1_1opt__storage.html" target="_top" xlink:title=" ">
<polygon fill="white" stroke="#666666" points="644.25,-259.12 488.75,-259.12 488.75,-217.38 644.25,-217.38 644.25,-259.12"/>
<text xml:space="preserve" text-anchor="start" x="496.75" y="-245.62" font-family="Helvetica,sans-Serif" font-size="10.00">llvm::cl::opt_storage</text>
<text xml:space="preserve" text-anchor="start" x="496.75" y="-234.38" font-family="Helvetica,sans-Serif" font-size="10.00">&lt; std::string, ExternalStorage,</text>
<text xml:space="preserve" text-anchor="middle" x="566.5" y="-223.12" font-family="Helvetica,sans-Serif" font-size="10.00"> std::is_class_v&lt; std::string &gt; &gt;</text>
</a>
</g>
</g>
<!-- Node1&#45;&gt;Node6 -->
<g id="edge5_Node000001_Node000006" class="edge">
<title>Node1&#45;&gt;Node6</title>
<g id="a_edge5_Node000001_Node000006"><a xlink:title=" ">
<path fill="none" stroke="orange" stroke-dasharray="5,2" d="M94.65,-157.59C110.81,-178.43 135.24,-204.55 163.75,-217.25 268.7,-264.01 404.66,-259.35 488.44,-250.04"/>
<polygon fill="orange" stroke="orange" points="97.52,-155.58 88.73,-149.67 91.91,-159.77 97.52,-155.58"/>
</a>
</g>
<text xml:space="preserve" text-anchor="start" x="166.75" y="-273.24" font-family="Helvetica,sans-Serif" font-size="10.00" fill="grey">&lt; std::string, ExternalStorage,</text>
<text xml:space="preserve" text-anchor="start" x="166.75" y="-257.99" font-family="Helvetica,sans-Serif" font-size="10.00" fill="grey">   std::is_class_v&lt; std::string &gt; &gt;</text>
</g>
<!-- Node7 -->
<g id="Node000007" class="node">
<title>Node7</title>
<g id="a_Node000007"><a xlink:href="classllvm_1_1cl_1_1opt__storage.html" target="_top" xlink:title=" ">
<polygon fill="white" stroke="#666666" points="618.75,-151.12 514.25,-151.12 514.25,-109.38 618.75,-109.38 618.75,-151.12"/>
<text xml:space="preserve" text-anchor="start" x="522.25" y="-137.62" font-family="Helvetica,sans-Serif" font-size="10.00">llvm::cl::opt_storage</text>
<text xml:space="preserve" text-anchor="start" x="522.25" y="-126.38" font-family="Helvetica,sans-Serif" font-size="10.00">&lt; bool, false, std::is</text>
<text xml:space="preserve" text-anchor="middle" x="566.5" y="-115.12" font-family="Helvetica,sans-Serif" font-size="10.00">_class_v&lt; bool &gt; &gt;</text>
</a>
</g>
</g>
<!-- Node1&#45;&gt;Node7 -->
<g id="edge7_Node000001_Node000007" class="edge">
<title>Node1&#45;&gt;Node7</title>
<g id="a_edge7_Node000001_Node000007"><a xlink:title=" ">
<path fill="none" stroke="orange" stroke-dasharray="5,2" d="M157.45,-124.85C159.57,-124.81 161.67,-124.78 163.75,-124.75 289.47,-123 437.32,-126.44 513.81,-128.63"/>
<polygon fill="orange" stroke="orange" points="157.43,-121.35 147.5,-125.04 157.56,-128.35 157.43,-121.35"/>
</a>
</g>
<text xml:space="preserve" text-anchor="start" x="187.75" y="-144.75" font-family="Helvetica,sans-Serif" font-size="10.00" fill="grey">&lt; bool, false, std</text>
<text xml:space="preserve" text-anchor="start" x="187.75" y="-129.5" font-family="Helvetica,sans-Serif" font-size="10.00" fill="grey">  ::is_class_v&lt; bool &gt; &gt;</text>
</g>
<!-- Node8 -->
<g id="Node000008" class="node">
<title>Node8</title>
<g id="a_Node000008"><a xlink:href="classllvm_1_1cl_1_1opt__storage_3_01DataType_00_01false_00_01false_01_4.html" target="_top" xlink:title=" ">
<polygon fill="white" stroke="#666666" points="467,-86.5 337,-86.5 337,-56 467,-56 467,-86.5"/>
<text xml:space="preserve" text-anchor="start" x="345" y="-73" font-family="Helvetica,sans-Serif" font-size="10.00">llvm::cl::opt_storage</text>
<text xml:space="preserve" text-anchor="middle" x="402" y="-61.75" font-family="Helvetica,sans-Serif" font-size="10.00">&lt; DataType, false, false &gt;</text>
</a>
</g>
</g>
<!-- Node1&#45;&gt;Node8 -->
<g id="edge9_Node000001_Node000008" class="edge">
<title>Node1&#45;&gt;Node8</title>
<g id="a_edge9_Node000001_Node000008"><a xlink:title=" ">
<path fill="none" stroke="orange" stroke-dasharray="5,2" d="M109.68,-99.42C125.37,-88.91 144.56,-78.18 163.75,-72.75 220.53,-56.69 288.05,-58.13 336.51,-62.52"/>
<polygon fill="orange" stroke="orange" points="107.84,-96.44 101.63,-105.03 111.84,-102.18 107.84,-96.44"/>
</a>
</g>
<text xml:space="preserve" text-anchor="start" x="199" y="-92.75" font-family="Helvetica,sans-Serif" font-size="10.00" fill="grey">&lt; DataType, false,</text>
<text xml:space="preserve" text-anchor="start" x="199" y="-77.5" font-family="Helvetica,sans-Serif" font-size="10.00" fill="grey">   false &gt;</text>
</g>
<!-- Node9 -->
<g id="Node000009" class="node">
<title>Node9</title>
<g id="a_Node000009"><a xlink:href="classllvm_1_1cl_1_1opt__storage_3_01DataType_00_01false_00_01true_01_4.html" target="_top" xlink:title=" ">
<polygon fill="white" stroke="#666666" points="464.75,-30.5 339.25,-30.5 339.25,0 464.75,0 464.75,-30.5"/>
<text xml:space="preserve" text-anchor="start" x="347.25" y="-17" font-family="Helvetica,sans-Serif" font-size="10.00">llvm::cl::opt_storage</text>
<text xml:space="preserve" text-anchor="middle" x="402" y="-5.75" font-family="Helvetica,sans-Serif" font-size="10.00">&lt; DataType, false, true &gt;</text>
</a>
</g>
</g>
<!-- Node1&#45;&gt;Node9 -->
<g id="edge10_Node000001_Node000009" class="edge">
<title>Node1&#45;&gt;Node9</title>
<g id="a_edge10_Node000001_Node000009"><a xlink:title=" ">
<path fill="none" stroke="orange" stroke-dasharray="5,2" d="M90.6,-96.45C105.98,-71.58 131.3,-38.27 163.75,-22.75 218.59,3.47 288.99,1.97 338.82,-4.02"/>
<polygon fill="orange" stroke="orange" points="87.69,-94.49 85.58,-104.88 93.7,-98.07 87.69,-94.49"/>
</a>
</g>
<text xml:space="preserve" text-anchor="start" x="199" y="-42.75" font-family="Helvetica,sans-Serif" font-size="10.00" fill="grey">&lt; DataType, false,</text>
<text xml:space="preserve" text-anchor="start" x="199" y="-27.5" font-family="Helvetica,sans-Serif" font-size="10.00" fill="grey">   true &gt;</text>
</g>
<!-- Node3 -->
<g id="Node000003" class="node">
<title>Node3</title>
<g id="a_Node000003"><a xlink:href="classllvm_1_1cl_1_1opt.html" target="_top" xlink:title=" ">
<polygon fill="white" stroke="#666666" points="820,-198.5 662.25,-198.5 662.25,-168 820,-168 820,-198.5"/>
<text xml:space="preserve" text-anchor="start" x="670.25" y="-185" font-family="Helvetica,sans-Serif" font-size="10.00">llvm::cl::opt&lt; DataType,</text>
<text xml:space="preserve" text-anchor="middle" x="741.12" y="-173.75" font-family="Helvetica,sans-Serif" font-size="10.00"> ExternalStorage, ParserClass &gt;</text>
</a>
</g>
</g>
<!-- Node2&#45;&gt;Node3 -->
<g id="edge2_Node000002_Node000003" class="edge">
<title>Node2&#45;&gt;Node3</title>
<g id="a_edge2_Node000002_Node000003"><a xlink:title=" ">
<path fill="none" stroke="#63b8ff" d="M482.51,-183.25C536.69,-183.25 608.08,-183.25 661.97,-183.25"/>
<polygon fill="#63b8ff" stroke="#63b8ff" points="482.74,-179.75 472.74,-183.25 482.74,-186.75 482.74,-179.75"/>
</a>
</g>
</g>
<!-- Node4 -->
<g id="Node000004" class="node">
<title>Node4</title>
<g id="a_Node000004"><a xlink:href="classllvm_1_1cl_1_1opt.html" target="_top" xlink:title=" ">
<polygon fill="white" stroke="#666666" points="1042.25,-230.5 952.75,-230.5 952.75,-200 1042.25,-200 1042.25,-230.5"/>
<text xml:space="preserve" text-anchor="start" x="960.75" y="-217" font-family="Helvetica,sans-Serif" font-size="10.00">llvm::cl::opt&lt; std</text>
<text xml:space="preserve" text-anchor="middle" x="997.5" y="-205.75" font-family="Helvetica,sans-Serif" font-size="10.00">::string, true &gt;</text>
</a>
</g>
</g>
<!-- Node3&#45;&gt;Node4 -->
<g id="edge3_Node000003_Node000004" class="edge">
<title>Node3&#45;&gt;Node4</title>
<g id="a_edge3_Node000003_Node000004"><a xlink:title=" ">
<path fill="none" stroke="orange" stroke-dasharray="5,2" d="M831.54,-194.5C872.43,-199.64 919.06,-205.51 952.28,-209.69"/>
<polygon fill="orange" stroke="orange" points="832.03,-191.03 821.68,-193.26 831.16,-197.98 832.03,-191.03"/>
</a>
</g>
<text xml:space="preserve" text-anchor="start" x="841" y="-210.54" font-family="Helvetica,sans-Serif" font-size="10.00" fill="grey">&lt; std::string, true &gt;</text>
</g>
<!-- Node5 -->
<g id="Node000005" class="node">
<title>Node5</title>
<g id="a_Node000005"><a xlink:href="classllvm_1_1cl_1_1opt.html" target="_top" xlink:title=" ">
<polygon fill="white" stroke="#666666" points="1049,-166.88 946,-166.88 946,-147.62 1049,-147.62 1049,-166.88"/>
<text xml:space="preserve" text-anchor="middle" x="997.5" y="-153.38" font-family="Helvetica,sans-Serif" font-size="10.00">llvm::cl::opt&lt; bool &gt;</text>
</a>
</g>
</g>
<!-- Node3&#45;&gt;Node5 -->
<g id="edge4_Node000003_Node000005" class="edge">
<title>Node3&#45;&gt;Node5</title>
<g id="a_edge4_Node000003_Node000005"><a xlink:title=" ">
<path fill="none" stroke="orange" stroke-dasharray="5,2" d="M831.42,-167.8C833.63,-167.52 835.83,-167.25 838,-167 873.88,-162.87 914.54,-160.41 945.7,-159"/>
<polygon fill="orange" stroke="orange" points="831.19,-164.3 821.75,-169.1 832.13,-171.23 831.19,-164.3"/>
</a>
</g>
<text xml:space="preserve" text-anchor="start" x="865" y="-171.75" font-family="Helvetica,sans-Serif" font-size="10.00" fill="grey">&lt; bool &gt;</text>
</g>
<!-- Node6&#45;&gt;Node4 -->
<g id="edge6_Node000006_Node000004" class="edge">
<title>Node6&#45;&gt;Node4</title>
<g id="a_edge6_Node000006_Node000004"><a xlink:title=" ">
<path fill="none" stroke="#63b8ff" d="M656.06,-237.08C729.12,-235.56 835.44,-232.11 928,-224.25 935.89,-223.58 944.26,-222.66 952.35,-221.66"/>
<polygon fill="#63b8ff" stroke="#63b8ff" points="656.07,-233.57 646.14,-237.27 656.21,-240.57 656.07,-233.57"/>
</a>
</g>
</g>
<!-- Node7&#45;&gt;Node5 -->
<g id="edge8_Node000007_Node000005" class="edge">
<title>Node7&#45;&gt;Node5</title>
<g id="a_edge8_Node000007_Node000005"><a xlink:title=" ">
<path fill="none" stroke="#63b8ff" d="M630.6,-134.22C716.06,-139.6 866.91,-149.09 945.57,-154.04"/>
<polygon fill="#63b8ff" stroke="#63b8ff" points="630.96,-130.74 620.76,-133.6 630.52,-137.72 630.96,-130.74"/>
</a>
</g>
</g>
</g>
</svg>
