<?xml version="1.0" encoding="UTF-8" standalone="no"?>
<!DOCTYPE svg PUBLIC "-//W3C//DTD SVG 1.1//EN"
 "http://www.w3.org/Graphics/SVG/1.1/DTD/svg11.dtd">
<!-- Generated by graphviz version 13.1.2 (20250808.2320)
 -->
<!-- Title: llvm::MCXCOFFStreamer Pages: 1 -->
<svg width="143pt" height="193pt"
 viewBox="0.00 0.00 143.00 193.00" xmlns="http://www.w3.org/2000/svg" xmlns:xlink="http://www.w3.org/1999/xlink">
<g id="graph0" class="graph" transform="scale(1 1) rotate(0) translate(4 189)">
<title>llvm::MCXCOFFStreamer</title>
<!-- Node1 -->
<g id="Node000001" class="node">
<title>Node1</title>
<g id="a_Node000001"><a xlink:title=" ">
<polygon fill="#999999" stroke="#666666" points="131.88,-74.5 2.62,-74.5 2.62,-55.25 131.88,-55.25 131.88,-74.5"/>
<text xml:space="preserve" text-anchor="middle" x="67.25" y="-61" font-family="Helvetica,sans-Serif" font-size="10.00">llvm::MCXCOFFStreamer</text>
</a>
</g>
</g>
<!-- Node4 -->
<g id="Node000004" class="node">
<title>Node4</title>
<g id="a_Node000004"><a xlink:href="classllvm_1_1PPCXCOFFStreamer.html" target="_top" xlink:title=" ">
<polygon fill="white" stroke="#666666" points="134.5,-19.25 0,-19.25 0,0 134.5,0 134.5,-19.25"/>
<text xml:space="preserve" text-anchor="middle" x="67.25" y="-5.75" font-family="Helvetica,sans-Serif" font-size="10.00">llvm::PPCXCOFFStreamer</text>
</a>
</g>
</g>
<!-- Node1&#45;&gt;Node4 -->
<g id="edge3_Node000001_Node000004" class="edge">
<title>Node1&#45;&gt;Node4</title>
<g id="a_edge3_Node000001_Node000004"><a xlink:title=" ">
<path fill="none" stroke="#63b8ff" d="M67.25,-43.63C67.25,-35.34 67.25,-26.17 67.25,-19.61"/>
<polygon fill="#63b8ff" stroke="#63b8ff" points="63.75,-43.57 67.25,-53.57 70.75,-43.57 63.75,-43.57"/>
</a>
</g>
</g>
<!-- Node2 -->
<g id="Node000002" class="node">
<title>Node2</title>
<g id="a_Node000002"><a xlink:href="classllvm_1_1MCObjectStreamer.html" target="_top" xlink:title="Streaming object file generation interface.">
<polygon fill="white" stroke="#666666" points="129.25,-129.75 5.25,-129.75 5.25,-110.5 129.25,-110.5 129.25,-129.75"/>
<text xml:space="preserve" text-anchor="middle" x="67.25" y="-116.25" font-family="Helvetica,sans-Serif" font-size="10.00">llvm::MCObjectStreamer</text>
</a>
</g>
</g>
<!-- Node2&#45;&gt;Node1 -->
<g id="edge1_Node000001_Node000002" class="edge">
<title>Node2&#45;&gt;Node1</title>
<g id="a_edge1_Node000001_Node000002"><a xlink:title=" ">
<path fill="none" stroke="#63b8ff" d="M67.25,-98.88C67.25,-90.59 67.25,-81.42 67.25,-74.86"/>
<polygon fill="#63b8ff" stroke="#63b8ff" points="63.75,-98.82 67.25,-108.82 70.75,-98.82 63.75,-98.82"/>
</a>
</g>
</g>
<!-- Node3 -->
<g id="Node000003" class="node">
<title>Node3</title>
<g id="a_Node000003"><a xlink:href="classllvm_1_1MCStreamer.html" target="_top" xlink:title="Streaming machine code generation interface.">
<polygon fill="white" stroke="#666666" points="115,-185 19.5,-185 19.5,-165.75 115,-165.75 115,-185"/>
<text xml:space="preserve" text-anchor="middle" x="67.25" y="-171.5" font-family="Helvetica,sans-Serif" font-size="10.00">llvm::MCStreamer</text>
</a>
</g>
</g>
<!-- Node3&#45;&gt;Node2 -->
<g id="edge2_Node000002_Node000003" class="edge">
<title>Node3&#45;&gt;Node2</title>
<g id="a_edge2_Node000002_Node000003"><a xlink:title=" ">
<path fill="none" stroke="#63b8ff" d="M67.25,-154.13C67.25,-145.84 67.25,-136.67 67.25,-130.11"/>
<polygon fill="#63b8ff" stroke="#63b8ff" points="63.75,-154.07 67.25,-164.07 70.75,-154.07 63.75,-154.07"/>
</a>
</g>
</g>
</g>
</svg>
