<?xml version="1.0" encoding="UTF-8" standalone="no"?>
<!DOCTYPE svg PUBLIC "-//W3C//DTD SVG 1.1//EN"
 "http://www.w3.org/Graphics/SVG/1.1/DTD/svg11.dtd">
<!-- Generated by graphviz version 13.1.2 (20250808.2320)
 -->
<!-- Title: llvm::NVPTXExternalAAWrapper Pages: 1 -->
<svg width="167pt" height="248pt"
 viewBox="0.00 0.00 167.00 248.00" xmlns="http://www.w3.org/2000/svg" xmlns:xlink="http://www.w3.org/1999/xlink">
<g id="graph0" class="graph" transform="scale(1 1) rotate(0) translate(4 244.25)">
<title>llvm::NVPTXExternalAAWrapper</title>
<!-- Node1 -->
<g id="Node000001" class="node">
<title>Node1</title>
<g id="a_Node000001"><a xlink:title=" ">
<polygon fill="#999999" stroke="#666666" points="159.25,-19.25 0,-19.25 0,0 159.25,0 159.25,-19.25"/>
<text xml:space="preserve" text-anchor="middle" x="79.62" y="-5.75" font-family="Helvetica,sans-Serif" font-size="10.00">llvm::NVPTXExternalAAWrapper</text>
</a>
</g>
</g>
<!-- Node2 -->
<g id="Node000002" class="node">
<title>Node2</title>
<g id="a_Node000002"><a xlink:href="structllvm_1_1ExternalAAWrapperPass.html" target="_top" xlink:title="A wrapper pass for external alias analyses.">
<polygon fill="white" stroke="#666666" points="153.62,-74.5 5.62,-74.5 5.62,-55.25 153.62,-55.25 153.62,-74.5"/>
<text xml:space="preserve" text-anchor="middle" x="79.62" y="-61" font-family="Helvetica,sans-Serif" font-size="10.00">llvm::ExternalAAWrapperPass</text>
</a>
</g>
</g>
<!-- Node2&#45;&gt;Node1 -->
<g id="edge1_Node000001_Node000002" class="edge">
<title>Node2&#45;&gt;Node1</title>
<g id="a_edge1_Node000001_Node000002"><a xlink:title=" ">
<path fill="none" stroke="#63b8ff" d="M79.62,-43.63C79.62,-35.34 79.62,-26.17 79.62,-19.61"/>
<polygon fill="#63b8ff" stroke="#63b8ff" points="76.13,-43.57 79.63,-53.57 83.13,-43.57 76.13,-43.57"/>
</a>
</g>
</g>
<!-- Node3 -->
<g id="Node000003" class="node">
<title>Node3</title>
<g id="a_Node000003"><a xlink:href="classllvm_1_1ImmutablePass.html" target="_top" xlink:title="ImmutablePass class &#45; This class is used to provide information that does not need to be run.">
<polygon fill="white" stroke="#666666" points="133.75,-129.75 25.5,-129.75 25.5,-110.5 133.75,-110.5 133.75,-129.75"/>
<text xml:space="preserve" text-anchor="middle" x="79.62" y="-116.25" font-family="Helvetica,sans-Serif" font-size="10.00">llvm::ImmutablePass</text>
</a>
</g>
</g>
<!-- Node3&#45;&gt;Node2 -->
<g id="edge2_Node000002_Node000003" class="edge">
<title>Node3&#45;&gt;Node2</title>
<g id="a_edge2_Node000002_Node000003"><a xlink:title=" ">
<path fill="none" stroke="#63b8ff" d="M79.62,-98.88C79.62,-90.59 79.62,-81.42 79.62,-74.86"/>
<polygon fill="#63b8ff" stroke="#63b8ff" points="76.13,-98.82 79.63,-108.82 83.13,-98.82 76.13,-98.82"/>
</a>
</g>
</g>
<!-- Node4 -->
<g id="Node000004" class="node">
<title>Node4</title>
<g id="a_Node000004"><a xlink:href="classllvm_1_1ModulePass.html" target="_top" xlink:title="ModulePass class &#45; This class is used to implement unstructured interprocedural optimizations and ana...">
<polygon fill="white" stroke="#666666" points="126.62,-185 32.62,-185 32.62,-165.75 126.62,-165.75 126.62,-185"/>
<text xml:space="preserve" text-anchor="middle" x="79.62" y="-171.5" font-family="Helvetica,sans-Serif" font-size="10.00">llvm::ModulePass</text>
</a>
</g>
</g>
<!-- Node4&#45;&gt;Node3 -->
<g id="edge3_Node000003_Node000004" class="edge">
<title>Node4&#45;&gt;Node3</title>
<g id="a_edge3_Node000003_Node000004"><a xlink:title=" ">
<path fill="none" stroke="#63b8ff" d="M79.62,-154.13C79.62,-145.84 79.62,-136.67 79.62,-130.11"/>
<polygon fill="#63b8ff" stroke="#63b8ff" points="76.13,-154.07 79.63,-164.07 83.13,-154.07 76.13,-154.07"/>
</a>
</g>
</g>
<!-- Node5 -->
<g id="Node000005" class="node">
<title>Node5</title>
<g id="a_Node000005"><a xlink:href="classllvm_1_1Pass.html" target="_top" xlink:title="Pass interface &#45; Implemented by all &#39;passes&#39;.">
<polygon fill="white" stroke="#666666" points="110.88,-240.25 48.38,-240.25 48.38,-221 110.88,-221 110.88,-240.25"/>
<text xml:space="preserve" text-anchor="middle" x="79.62" y="-226.75" font-family="Helvetica,sans-Serif" font-size="10.00">llvm::Pass</text>
</a>
</g>
</g>
<!-- Node5&#45;&gt;Node4 -->
<g id="edge4_Node000004_Node000005" class="edge">
<title>Node5&#45;&gt;Node4</title>
<g id="a_edge4_Node000004_Node000005"><a xlink:title=" ">
<path fill="none" stroke="#63b8ff" d="M79.62,-209.38C79.62,-201.09 79.62,-191.92 79.62,-185.36"/>
<polygon fill="#63b8ff" stroke="#63b8ff" points="76.13,-209.32 79.63,-219.32 83.13,-209.32 76.13,-209.32"/>
</a>
</g>
</g>
</g>
</svg>
