<?xml version="1.0" encoding="UTF-8" standalone="no"?>
<!DOCTYPE svg PUBLIC "-//W3C//DTD SVG 1.1//EN"
 "http://www.w3.org/Graphics/SVG/1.1/DTD/svg11.dtd">
<!-- Generated by graphviz version 13.1.2 (20250808.2320)
 -->
<!-- Title: llvm::MachineBasicBlock Pages: 1 -->
<svg width="2769pt" height="753pt"
 viewBox="0.00 0.00 2769.00 753.00" xmlns="http://www.w3.org/2000/svg" xmlns:xlink="http://www.w3.org/1999/xlink">
<g id="graph0" class="graph" transform="scale(1 1) rotate(0) translate(4 748.64)">
<title>llvm::MachineBasicBlock</title>
<!-- Node1 -->
<g id="Node000001" class="node">
<title>Node1</title>
<g id="a_Node000001"><a xlink:title=" ">
<polygon fill="#999999" stroke="#666666" points="2760.5,-324.62 2634.25,-324.62 2634.25,-305.38 2760.5,-305.38 2760.5,-324.62"/>
<text xml:space="preserve" text-anchor="middle" x="2697.38" y="-311.12" font-family="Helvetica,sans-Serif" font-size="10.00">llvm::MachineBasicBlock</text>
</a>
</g>
</g>
<!-- Node2 -->
<g id="Node000002" class="node">
<title>Node2</title>
<g id="a_Node000002"><a xlink:href="classllvm_1_1ilist__node__with__parent.html" target="_top" xlink:title=" ">
<polygon fill="white" stroke="#666666" points="2597.25,-335.88 2450.75,-335.88 2450.75,-294.12 2597.25,-294.12 2597.25,-335.88"/>
<text xml:space="preserve" text-anchor="start" x="2458.75" y="-322.38" font-family="Helvetica,sans-Serif" font-size="10.00">llvm::ilist_node_with</text>
<text xml:space="preserve" text-anchor="start" x="2458.75" y="-311.12" font-family="Helvetica,sans-Serif" font-size="10.00">_parent&lt; MachineBasicBlock,</text>
<text xml:space="preserve" text-anchor="middle" x="2524" y="-299.88" font-family="Helvetica,sans-Serif" font-size="10.00"> MachineFunction &gt;</text>
</a>
</g>
</g>
<!-- Node2&#45;&gt;Node1 -->
<g id="edge1_Node000001_Node000002" class="edge">
<title>Node2&#45;&gt;Node1</title>
<g id="a_edge1_Node000001_Node000002"><a xlink:title=" ">
<path fill="none" stroke="#63b8ff" d="M2609.04,-315C2617.4,-315 2625.79,-315 2633.88,-315"/>
<polygon fill="#63b8ff" stroke="#63b8ff" points="2609.19,-311.5 2599.19,-315 2609.19,-318.5 2609.19,-311.5"/>
</a>
</g>
</g>
<!-- Node3 -->
<g id="Node000003" class="node">
<title>Node3</title>
<g id="a_Node000003"><a xlink:href="classllvm_1_1ilist__node.html" target="_top" xlink:title=" ">
<polygon fill="white" stroke="#666666" points="2136,-354.25 2009,-354.25 2009,-323.75 2136,-323.75 2136,-354.25"/>
<text xml:space="preserve" text-anchor="start" x="2017" y="-340.75" font-family="Helvetica,sans-Serif" font-size="10.00">llvm::ilist_node&lt; Machine</text>
<text xml:space="preserve" text-anchor="middle" x="2072.5" y="-329.5" font-family="Helvetica,sans-Serif" font-size="10.00">BasicBlock, Options... &gt;</text>
</a>
</g>
</g>
<!-- Node3&#45;&gt;Node2 -->
<g id="edge2_Node000002_Node000003" class="edge">
<title>Node3&#45;&gt;Node2</title>
<g id="a_edge2_Node000002_Node000003"><a xlink:title=" ">
<path fill="none" stroke="#63b8ff" d="M2147.51,-337.66C2220.2,-335.98 2334.23,-332.37 2432.75,-325 2438.57,-324.56 2444.59,-324.05 2450.63,-323.48"/>
<polygon fill="#63b8ff" stroke="#63b8ff" points="2147.64,-334.15 2137.72,-337.88 2147.79,-341.15 2147.64,-334.15"/>
</a>
</g>
</g>
<!-- Node4 -->
<g id="Node000004" class="node">
<title>Node4</title>
<g id="a_Node000004"><a xlink:href="classllvm_1_1ilist__node__impl.html" target="_top" xlink:title=" ">
<polygon fill="white" stroke="#666666" points="1732.5,-440.5 1555.25,-440.5 1555.25,-387.5 1732.5,-387.5 1732.5,-440.5"/>
<text xml:space="preserve" text-anchor="start" x="1563.25" y="-427" font-family="Helvetica,sans-Serif" font-size="10.00">llvm::ilist_node_impl</text>
<text xml:space="preserve" text-anchor="start" x="1563.25" y="-415.75" font-family="Helvetica,sans-Serif" font-size="10.00">&lt; ilist_detail::compute</text>
<text xml:space="preserve" text-anchor="start" x="1563.25" y="-404.5" font-family="Helvetica,sans-Serif" font-size="10.00">_node_options&lt; MachineBasicBlock,</text>
<text xml:space="preserve" text-anchor="middle" x="1643.88" y="-393.25" font-family="Helvetica,sans-Serif" font-size="10.00"> Options... &gt;::type &gt;</text>
</a>
</g>
</g>
<!-- Node4&#45;&gt;Node3 -->
<g id="edge3_Node000003_Node000004" class="edge">
<title>Node4&#45;&gt;Node3</title>
<g id="a_edge3_Node000003_Node000004"><a xlink:title=" ">
<path fill="none" stroke="#63b8ff" d="M1744.36,-409.65C1814.3,-404.8 1909.54,-394.56 1991,-373 2007.72,-368.57 2025.51,-361.35 2040.11,-354.69"/>
<polygon fill="#63b8ff" stroke="#63b8ff" points="1744.18,-406.15 1734.43,-410.31 1744.64,-413.14 1744.18,-406.15"/>
</a>
</g>
</g>
<!-- Node5 -->
<g id="Node000005" class="node">
<title>Node5</title>
<g id="a_Node000005"><a xlink:href="classllvm_1_1ilist__node__base.html" target="_top" xlink:title=" ">
<polygon fill="white" stroke="#666666" points="1346,-386.5 1196.5,-386.5 1196.5,-333.5 1346,-333.5 1346,-386.5"/>
<text xml:space="preserve" text-anchor="start" x="1204.5" y="-373" font-family="Helvetica,sans-Serif" font-size="10.00">ilist_detail::compute</text>
<text xml:space="preserve" text-anchor="start" x="1204.5" y="-361.75" font-family="Helvetica,sans-Serif" font-size="10.00">_node_options&lt; MachineBasic</text>
<text xml:space="preserve" text-anchor="start" x="1204.5" y="-350.5" font-family="Helvetica,sans-Serif" font-size="10.00">Block, Options... &gt;::type</text>
<text xml:space="preserve" text-anchor="middle" x="1271.25" y="-339.25" font-family="Helvetica,sans-Serif" font-size="10.00">::node_base_type</text>
</a>
</g>
</g>
<!-- Node5&#45;&gt;Node4 -->
<g id="edge4_Node000004_Node000005" class="edge">
<title>Node5&#45;&gt;Node4</title>
<g id="a_edge4_Node000004_Node000005"><a xlink:title=" ">
<path fill="none" stroke="#8b1a1a" d="M1357.42,-378.85C1359.63,-379.25 1361.83,-379.63 1364,-380 1427.6,-390.78 1499.91,-399.5 1554.96,-405.41"/>
<polygon fill="#8b1a1a" stroke="#8b1a1a" points="1358.21,-375.44 1347.73,-377.03 1356.92,-382.32 1358.21,-375.44"/>
</a>
</g>
</g>
<!-- Node6 -->
<g id="Node000006" class="node">
<title>Node6</title>
<g id="a_Node000006"><a xlink:href="classllvm_1_1ilist__detail_1_1node__base__prevnext.html" target="_top" xlink:title=" ">
<polygon fill="white" stroke="#666666" points="983.25,-276.88 794.75,-276.88 794.75,-235.12 983.25,-235.12 983.25,-276.88"/>
<text xml:space="preserve" text-anchor="start" x="802.75" y="-263.38" font-family="Helvetica,sans-Serif" font-size="10.00">llvm::ilist_detail</text>
<text xml:space="preserve" text-anchor="start" x="802.75" y="-252.12" font-family="Helvetica,sans-Serif" font-size="10.00">::node_base_prevnext</text>
<text xml:space="preserve" text-anchor="middle" x="889" y="-240.88" font-family="Helvetica,sans-Serif" font-size="10.00">&lt; NodeBase, EnableSentinelTracking &gt;</text>
</a>
</g>
</g>
<!-- Node6&#45;&gt;Node5 -->
<g id="edge5_Node000005_Node000006" class="edge">
<title>Node6&#45;&gt;Node5</title>
<g id="a_edge5_Node000005_Node000006"><a xlink:title=" ">
<path fill="none" stroke="#63b8ff" d="M951.68,-282.89C963.05,-289.66 974.18,-297.7 983.25,-307 995.46,-319.53 986.63,-332.39 1001.25,-342 1058.56,-379.65 1138.37,-380.11 1196.16,-373.6"/>
<polygon fill="#63b8ff" stroke="#63b8ff" points="953.42,-279.85 942.99,-278.01 949.99,-285.95 953.42,-279.85"/>
</a>
</g>
</g>
<!-- Node19 -->
<g id="Node000019" class="node">
<title>Node19</title>
<g id="a_Node000019"><a xlink:href="classllvm_1_1ilist__node__base.html" target="_top" xlink:title=" ">
<polygon fill="white" stroke="#666666" points="1341.88,-290.88 1200.62,-290.88 1200.62,-249.12 1341.88,-249.12 1341.88,-290.88"/>
<text xml:space="preserve" text-anchor="start" x="1208.62" y="-277.38" font-family="Helvetica,sans-Serif" font-size="10.00">ilist_detail::compute</text>
<text xml:space="preserve" text-anchor="start" x="1208.62" y="-266.12" font-family="Helvetica,sans-Serif" font-size="10.00">_node_options&lt; T, Options...</text>
<text xml:space="preserve" text-anchor="middle" x="1271.25" y="-254.88" font-family="Helvetica,sans-Serif" font-size="10.00"> &gt;::type::node_base_type</text>
</a>
</g>
</g>
<!-- Node6&#45;&gt;Node19 -->
<g id="edge20_Node000019_Node000006" class="edge">
<title>Node6&#45;&gt;Node19</title>
<g id="a_edge20_Node000019_Node000006"><a xlink:title=" ">
<path fill="none" stroke="#63b8ff" d="M994.68,-259.85C1060.09,-262.26 1142.53,-265.3 1200.13,-267.42"/>
<polygon fill="#63b8ff" stroke="#63b8ff" points="995.14,-256.37 985.02,-259.5 994.88,-263.36 995.14,-256.37"/>
</a>
</g>
</g>
<!-- Node24 -->
<g id="Node000024" class="node">
<title>Node24</title>
<g id="a_Node000024"><a xlink:href="classllvm_1_1ilist__node__base.html" target="_top" xlink:title=" ">
<polygon fill="white" stroke="#666666" points="1333.25,-198.5 1209.25,-198.5 1209.25,-145.5 1333.25,-145.5 1333.25,-198.5"/>
<text xml:space="preserve" text-anchor="start" x="1217.25" y="-185" font-family="Helvetica,sans-Serif" font-size="10.00">ilist_detail::compute</text>
<text xml:space="preserve" text-anchor="start" x="1217.25" y="-173.75" font-family="Helvetica,sans-Serif" font-size="10.00">_node_options&lt; NodeTy,</text>
<text xml:space="preserve" text-anchor="start" x="1217.25" y="-162.5" font-family="Helvetica,sans-Serif" font-size="10.00"> Options... &gt;::type::node</text>
<text xml:space="preserve" text-anchor="middle" x="1271.25" y="-151.25" font-family="Helvetica,sans-Serif" font-size="10.00">_base_type</text>
</a>
</g>
</g>
<!-- Node6&#45;&gt;Node24 -->
<g id="edge30_Node000024_Node000006" class="edge">
<title>Node6&#45;&gt;Node24</title>
<g id="a_edge30_Node000024_Node000006"><a xlink:title=" ">
<path fill="none" stroke="#63b8ff" d="M979.85,-228.66C981.01,-227.8 982.14,-226.91 983.25,-226 996.12,-215.35 987.23,-202.08 1001.25,-193 1063.18,-152.9 1150.73,-154.19 1208.93,-161.12"/>
<polygon fill="#63b8ff" stroke="#63b8ff" points="978.25,-225.53 971.79,-233.92 982.08,-231.39 978.25,-225.53"/>
</a>
</g>
</g>
<!-- Node7 -->
<g id="Node000007" class="node">
<title>Node7</title>
<g id="a_Node000007"><a xlink:href="classllvm_1_1ilist__detail_1_1node__base__parent.html" target="_top" xlink:title=" ">
<polygon fill="white" stroke="#666666" points="942.75,-357.88 835.25,-357.88 835.25,-316.12 942.75,-316.12 942.75,-357.88"/>
<text xml:space="preserve" text-anchor="start" x="843.25" y="-344.38" font-family="Helvetica,sans-Serif" font-size="10.00">llvm::ilist_detail</text>
<text xml:space="preserve" text-anchor="start" x="843.25" y="-333.12" font-family="Helvetica,sans-Serif" font-size="10.00">::node_base_parent&lt;</text>
<text xml:space="preserve" text-anchor="middle" x="889" y="-321.88" font-family="Helvetica,sans-Serif" font-size="10.00"> ParentTy &gt;</text>
</a>
</g>
</g>
<!-- Node7&#45;&gt;Node5 -->
<g id="edge6_Node000005_Node000007" class="edge">
<title>Node7&#45;&gt;Node5</title>
<g id="a_edge6_Node000005_Node000007"><a xlink:title=" ">
<path fill="none" stroke="#63b8ff" d="M953.91,-351.54C964.28,-355.55 974.47,-360.61 983.25,-367 994.32,-375.06 989.06,-385.76 1001.25,-392 1065.71,-425.02 1149.96,-406.73 1206.87,-386.92"/>
<polygon fill="#63b8ff" stroke="#63b8ff" points="955.13,-348.26 944.53,-348.24 952.8,-354.86 955.13,-348.26"/>
</a>
</g>
</g>
<!-- Node7&#45;&gt;Node19 -->
<g id="edge21_Node000019_Node000007" class="edge">
<title>Node7&#45;&gt;Node19</title>
<g id="a_edge21_Node000019_Node000007"><a xlink:title=" ">
<path fill="none" stroke="#63b8ff" d="M954.12,-354.09C1014.71,-366.78 1106.76,-376.95 1178.5,-345 1189.42,-340.13 1187.66,-333.06 1196.5,-325 1209.72,-312.95 1225.49,-300.91 1239.04,-291.19"/>
<polygon fill="#63b8ff" stroke="#63b8ff" points="955.18,-350.73 944.66,-352.02 953.69,-357.57 955.18,-350.73"/>
</a>
</g>
</g>
<!-- Node7&#45;&gt;Node24 -->
<g id="edge31_Node000024_Node000007" class="edge">
<title>Node7&#45;&gt;Node24</title>
<g id="a_edge31_Node000024_Node000007"><a xlink:title=" ">
<path fill="none" stroke="#63b8ff" d="M943.03,-310.97C961.14,-302.93 981.76,-294.71 1001.25,-289 1077.86,-266.58 1108.45,-298.28 1178.5,-260 1188.99,-254.27 1188.09,-248.51 1196.5,-240 1210.33,-226 1226.32,-211.11 1239.87,-198.84"/>
<polygon fill="#63b8ff" stroke="#63b8ff" points="941.72,-307.72 934.06,-315.04 944.61,-314.1 941.72,-307.72"/>
</a>
</g>
</g>
<!-- Node8 -->
<g id="Node000008" class="node">
<title>Node8</title>
<g id="a_Node000008"><a xlink:href="classllvm_1_1ilist__node__base.html" target="_top" xlink:title="Base class for ilist nodes.">
<polygon fill="white" stroke="#666666" points="954.38,-216.88 823.62,-216.88 823.62,-175.12 954.38,-175.12 954.38,-216.88"/>
<text xml:space="preserve" text-anchor="start" x="831.62" y="-203.38" font-family="Helvetica,sans-Serif" font-size="10.00">llvm::ilist_node_base</text>
<text xml:space="preserve" text-anchor="start" x="831.62" y="-192.12" font-family="Helvetica,sans-Serif" font-size="10.00">&lt; EnableSentinelTracking,</text>
<text xml:space="preserve" text-anchor="middle" x="889" y="-180.88" font-family="Helvetica,sans-Serif" font-size="10.00"> ParentTy &gt;</text>
</a>
</g>
</g>
<!-- Node8&#45;&gt;Node5 -->
<g id="edge7_Node000005_Node000008" class="edge">
<title>Node8&#45;&gt;Node5</title>
<g id="a_edge7_Node000005_Node000008"><a xlink:title=" ">
<path fill="none" stroke="orange" stroke-dasharray="5,2" d="M965.07,-214.22C971.59,-217.52 977.78,-221.41 983.25,-226 996.35,-236.98 987.82,-249.41 1001.25,-260 1065.12,-310.35 1103.39,-274.31 1178.5,-305.5 1196.47,-312.96 1215.13,-323.47 1230.89,-333.27"/>
<polygon fill="orange" stroke="orange" points="966.54,-211.05 955.98,-210.14 963.67,-217.43 966.54,-211.05"/>
</a>
</g>
<text xml:space="preserve" text-anchor="start" x="1030.25" y="-325.5" font-family="Helvetica,sans-Serif" font-size="10.00" fill="grey">&lt; enable_sentinel_tracking,</text>
<text xml:space="preserve" text-anchor="start" x="1030.25" y="-310.25" font-family="Helvetica,sans-Serif" font-size="10.00" fill="grey">   parent_ty &gt;</text>
</g>
<!-- Node8&#45;&gt;Node19 -->
<g id="edge22_Node000019_Node000008" class="edge">
<title>Node8&#45;&gt;Node19</title>
<g id="a_edge22_Node000019_Node000008"><a xlink:title=" ">
<path fill="none" stroke="orange" stroke-dasharray="5,2" d="M966.06,-195.57C1025.09,-197.06 1108.39,-203.18 1178.5,-223.5 1198.4,-229.27 1219.1,-239.35 1235.79,-248.66"/>
<polygon fill="orange" stroke="orange" points="966.18,-192.07 956.11,-195.36 966.03,-199.07 966.18,-192.07"/>
</a>
</g>
<text xml:space="preserve" text-anchor="start" x="1030.25" y="-243.5" font-family="Helvetica,sans-Serif" font-size="10.00" fill="grey">&lt; enable_sentinel_tracking,</text>
<text xml:space="preserve" text-anchor="start" x="1030.25" y="-228.25" font-family="Helvetica,sans-Serif" font-size="10.00" fill="grey">   parent_ty &gt;</text>
</g>
<!-- Node8&#45;&gt;Node24 -->
<g id="edge32_Node000024_Node000008" class="edge">
<title>Node8&#45;&gt;Node24</title>
<g id="a_edge32_Node000024_Node000008"><a xlink:title=" ">
<path fill="none" stroke="orange" stroke-dasharray="5,2" d="M964.59,-174.29C971.34,-170.52 977.71,-166.13 983.25,-161 997.12,-148.18 985.31,-132.64 1001.25,-122.5 1034.48,-101.35 1140.31,-112.86 1178.5,-122.5 1196.75,-127.11 1215.31,-136.14 1230.93,-145.25"/>
<polygon fill="orange" stroke="orange" points="963.2,-171.07 955.84,-178.69 966.35,-177.32 963.2,-171.07"/>
</a>
</g>
<text xml:space="preserve" text-anchor="start" x="1030.25" y="-142.5" font-family="Helvetica,sans-Serif" font-size="10.00" fill="grey">&lt; enable_sentinel_tracking,</text>
<text xml:space="preserve" text-anchor="start" x="1030.25" y="-127.25" font-family="Helvetica,sans-Serif" font-size="10.00" fill="grey">   parent_ty &gt;</text>
</g>
<!-- Node9 -->
<g id="Node000009" class="node">
<title>Node9</title>
<g id="a_Node000009"><a xlink:href="classllvm_1_1ilist__detail_1_1node__base__prevnext.html" target="_top" xlink:title=" ">
<polygon fill="white" stroke="#666666" points="584,-169.12 405.25,-169.12 405.25,-104.88 584,-104.88 584,-169.12"/>
<text xml:space="preserve" text-anchor="start" x="413.25" y="-155.62" font-family="Helvetica,sans-Serif" font-size="10.00">llvm::ilist_detail</text>
<text xml:space="preserve" text-anchor="start" x="413.25" y="-144.38" font-family="Helvetica,sans-Serif" font-size="10.00">::node_base_prevnext</text>
<text xml:space="preserve" text-anchor="start" x="413.25" y="-133.12" font-family="Helvetica,sans-Serif" font-size="10.00">&lt; ilist_node_base&lt; EnableSentinel</text>
<text xml:space="preserve" text-anchor="start" x="413.25" y="-121.88" font-family="Helvetica,sans-Serif" font-size="10.00">Tracking, ParentTy &gt;, EnableSentinel</text>
<text xml:space="preserve" text-anchor="middle" x="494.62" y="-110.62" font-family="Helvetica,sans-Serif" font-size="10.00">Tracking &gt;</text>
</a>
</g>
</g>
<!-- Node9&#45;&gt;Node8 -->
<g id="edge8_Node000008_Node000009" class="edge">
<title>Node9&#45;&gt;Node8</title>
<g id="a_edge8_Node000008_Node000009"><a xlink:title=" ">
<path fill="none" stroke="#63b8ff" d="M595.76,-119.26C650.25,-113.21 718.27,-111.54 776.75,-128 809,-137.08 841.14,-158.38 862.53,-174.75"/>
<polygon fill="#63b8ff" stroke="#63b8ff" points="595.36,-115.79 585.85,-120.44 596.19,-122.74 595.36,-115.79"/>
</a>
</g>
</g>
<!-- Node10 -->
<g id="Node000010" class="node">
<title>Node10</title>
<g id="a_Node000010"><a xlink:href="classllvm_1_1ilist__detail_1_1node__base__prevnext.html" target="_top" xlink:title=" ">
<polygon fill="white" stroke="#666666" points="188.5,-157.88 0,-157.88 0,-116.12 188.5,-116.12 188.5,-157.88"/>
<text xml:space="preserve" text-anchor="start" x="8" y="-144.38" font-family="Helvetica,sans-Serif" font-size="10.00">llvm::ilist_detail</text>
<text xml:space="preserve" text-anchor="start" x="8" y="-133.12" font-family="Helvetica,sans-Serif" font-size="10.00">::node_base_prevnext</text>
<text xml:space="preserve" text-anchor="middle" x="94.25" y="-121.88" font-family="Helvetica,sans-Serif" font-size="10.00">&lt; NodeBase, EnableSentinelTracking &gt;</text>
</a>
</g>
</g>
<!-- Node10&#45;&gt;Node9 -->
<g id="edge9_Node000009_Node000010" class="edge">
<title>Node10&#45;&gt;Node9</title>
<g id="a_edge9_Node000009_Node000010"><a xlink:title=" ">
<path fill="none" stroke="orange" stroke-dasharray="5,2" d="M200.2,-137C263.96,-137 344.47,-137 405.02,-137"/>
<polygon fill="orange" stroke="orange" points="200.42,-133.5 190.42,-137 200.42,-140.5 200.42,-133.5"/>
</a>
</g>
<text xml:space="preserve" text-anchor="start" x="209.5" y="-172.25" font-family="Helvetica,sans-Serif" font-size="10.00" fill="grey">&lt; ilist_node_base&lt;</text>
<text xml:space="preserve" text-anchor="start" x="209.5" y="-157" font-family="Helvetica,sans-Serif" font-size="10.00" fill="grey">   EnableSentinelTracking,</text>
<text xml:space="preserve" text-anchor="start" x="209.5" y="-141.75" font-family="Helvetica,sans-Serif" font-size="10.00" fill="grey">   ParentTy &gt;, EnableSentinelTracking &gt;</text>
</g>
<!-- Node11 -->
<g id="Node000011" class="node">
<title>Node11</title>
<g id="a_Node000011"><a xlink:href="classllvm_1_1ilist__detail_1_1node__base__parent.html" target="_top" xlink:title=" ">
<polygon fill="white" stroke="#666666" points="548.38,-86.88 440.88,-86.88 440.88,-45.12 548.38,-45.12 548.38,-86.88"/>
<text xml:space="preserve" text-anchor="start" x="448.88" y="-73.38" font-family="Helvetica,sans-Serif" font-size="10.00">llvm::ilist_detail</text>
<text xml:space="preserve" text-anchor="start" x="448.88" y="-62.12" font-family="Helvetica,sans-Serif" font-size="10.00">::node_base_parent&lt;</text>
<text xml:space="preserve" text-anchor="middle" x="494.62" y="-50.88" font-family="Helvetica,sans-Serif" font-size="10.00"> ParentTy &gt;</text>
</a>
</g>
</g>
<!-- Node11&#45;&gt;Node8 -->
<g id="edge10_Node000008_Node000011" class="edge">
<title>Node11&#45;&gt;Node8</title>
<g id="a_edge10_Node000008_Node000011"><a xlink:title=" ">
<path fill="none" stroke="#63b8ff" d="M560.12,-67.41C618.77,-70.72 706.6,-80.88 776.75,-111 812.04,-126.15 846.15,-154.98 867.09,-174.83"/>
<polygon fill="#63b8ff" stroke="#63b8ff" points="560.47,-63.92 550.31,-66.91 560.12,-70.91 560.47,-63.92"/>
</a>
</g>
</g>
<!-- Node12 -->
<g id="Node000012" class="node">
<title>Node12</title>
<g id="a_Node000012"><a xlink:href="classllvm_1_1ilist__detail_1_1node__parent__access.html" target="_top" xlink:title=" ">
<polygon fill="white" stroke="#666666" points="1178.5,-660 1001.25,-660 1001.25,-562 1178.5,-562 1178.5,-660"/>
<text xml:space="preserve" text-anchor="start" x="1009.25" y="-646.5" font-family="Helvetica,sans-Serif" font-size="10.00">llvm::ilist_detail</text>
<text xml:space="preserve" text-anchor="start" x="1009.25" y="-635.25" font-family="Helvetica,sans-Serif" font-size="10.00">::node_parent_access</text>
<text xml:space="preserve" text-anchor="start" x="1009.25" y="-624" font-family="Helvetica,sans-Serif" font-size="10.00">&lt; ilist_node_impl&lt; ilist</text>
<text xml:space="preserve" text-anchor="start" x="1009.25" y="-612.75" font-family="Helvetica,sans-Serif" font-size="10.00">_detail::compute_node_options</text>
<text xml:space="preserve" text-anchor="start" x="1009.25" y="-601.5" font-family="Helvetica,sans-Serif" font-size="10.00">&lt; MachineBasicBlock, Options...</text>
<text xml:space="preserve" text-anchor="start" x="1009.25" y="-590.25" font-family="Helvetica,sans-Serif" font-size="10.00"> &gt;::type &gt;, ilist_detail::compute</text>
<text xml:space="preserve" text-anchor="start" x="1009.25" y="-579" font-family="Helvetica,sans-Serif" font-size="10.00">_node_options&lt; MachineBasicBlock,</text>
<text xml:space="preserve" text-anchor="middle" x="1089.88" y="-567.75" font-family="Helvetica,sans-Serif" font-size="10.00"> Options... &gt;::type::parent_ty &gt;</text>
</a>
</g>
</g>
<!-- Node12&#45;&gt;Node4 -->
<g id="edge11_Node000004_Node000012" class="edge">
<title>Node12&#45;&gt;Node4</title>
<g id="a_edge11_Node000004_Node000012"><a xlink:title=" ">
<path fill="none" stroke="#63b8ff" d="M1189.99,-608.31C1284.45,-601.99 1428.05,-582.36 1537.25,-523 1573.83,-503.12 1605.49,-466.26 1624.37,-440.95"/>
<polygon fill="#63b8ff" stroke="#63b8ff" points="1189.99,-604.8 1180.23,-608.92 1190.43,-611.79 1189.99,-604.8"/>
</a>
</g>
</g>
<!-- Node13 -->
<g id="Node000013" class="node">
<title>Node13</title>
<g id="a_Node000013"><a xlink:href="classllvm_1_1ilist__detail_1_1node__parent__access.html" target="_top" xlink:title="Mixin base class that is used to add getParent() and setParent(ParentTy*) methods to ilist_node_impl ...">
<polygon fill="white" stroke="#666666" points="550.62,-473.88 438.62,-473.88 438.62,-432.12 550.62,-432.12 550.62,-473.88"/>
<text xml:space="preserve" text-anchor="start" x="446.62" y="-460.38" font-family="Helvetica,sans-Serif" font-size="10.00">llvm::ilist_detail</text>
<text xml:space="preserve" text-anchor="start" x="446.62" y="-449.12" font-family="Helvetica,sans-Serif" font-size="10.00">::node_parent_access</text>
<text xml:space="preserve" text-anchor="middle" x="494.62" y="-437.88" font-family="Helvetica,sans-Serif" font-size="10.00">&lt; NodeTy, ParentTy &gt;</text>
</a>
</g>
</g>
<!-- Node13&#45;&gt;Node12 -->
<g id="edge12_Node000012_Node000013" class="edge">
<title>Node13&#45;&gt;Node12</title>
<g id="a_edge12_Node000012_Node000013"><a xlink:title=" ">
<path fill="none" stroke="orange" stroke-dasharray="5,2" d="M509.97,-484.2C526.85,-516.86 558.25,-566.44 602,-589 728.53,-654.25 899.05,-643.23 1001.08,-628.02"/>
<polygon fill="orange" stroke="orange" points="513.27,-482.99 505.67,-475.61 507.01,-486.12 513.27,-482.99"/>
</a>
</g>
<text xml:space="preserve" text-anchor="start" x="605.75" y="-732.14" font-family="Helvetica,sans-Serif" font-size="10.00" fill="grey">&lt; ilist_node_impl&lt;</text>
<text xml:space="preserve" text-anchor="start" x="605.75" y="-716.89" font-family="Helvetica,sans-Serif" font-size="10.00" fill="grey">   ilist_detail::compute</text>
<text xml:space="preserve" text-anchor="start" x="605.75" y="-701.64" font-family="Helvetica,sans-Serif" font-size="10.00" fill="grey">  _node_options&lt; MachineBasicBlock,</text>
<text xml:space="preserve" text-anchor="start" x="605.75" y="-686.39" font-family="Helvetica,sans-Serif" font-size="10.00" fill="grey">   Options... &gt;::type &gt;, ilist</text>
<text xml:space="preserve" text-anchor="start" x="605.75" y="-671.14" font-family="Helvetica,sans-Serif" font-size="10.00" fill="grey">  _detail::compute_node_options</text>
<text xml:space="preserve" text-anchor="start" x="605.75" y="-655.89" font-family="Helvetica,sans-Serif" font-size="10.00" fill="grey">  &lt; MachineBasicBlock, Options...</text>
<text xml:space="preserve" text-anchor="start" x="605.75" y="-640.64" font-family="Helvetica,sans-Serif" font-size="10.00" fill="grey">   &gt;::type::parent_ty &gt;</text>
</g>
<!-- Node16 -->
<g id="Node000016" class="node">
<title>Node16</title>
<g id="a_Node000016"><a xlink:href="classllvm_1_1ilist__detail_1_1node__parent__access.html" target="_top" xlink:title=" ">
<polygon fill="white" stroke="#666666" points="958.12,-428.5 819.88,-428.5 819.88,-375.5 958.12,-375.5 958.12,-428.5"/>
<text xml:space="preserve" text-anchor="start" x="827.88" y="-415" font-family="Helvetica,sans-Serif" font-size="10.00">llvm::ilist_detail</text>
<text xml:space="preserve" text-anchor="start" x="827.88" y="-403.75" font-family="Helvetica,sans-Serif" font-size="10.00">::node_parent_access</text>
<text xml:space="preserve" text-anchor="start" x="827.88" y="-392.5" font-family="Helvetica,sans-Serif" font-size="10.00">&lt; ilist_node_impl&lt; OptionsT</text>
<text xml:space="preserve" text-anchor="middle" x="889" y="-381.25" font-family="Helvetica,sans-Serif" font-size="10.00"> &gt;, OptionsT::parent_ty &gt;</text>
</a>
</g>
</g>
<!-- Node13&#45;&gt;Node16 -->
<g id="edge16_Node000016_Node000013" class="edge">
<title>Node13&#45;&gt;Node16</title>
<g id="a_edge16_Node000016_Node000013"><a xlink:title=" ">
<path fill="none" stroke="orange" stroke-dasharray="5,2" d="M561.86,-433.06C575.06,-429.66 588.89,-426.51 602,-424.25 675.74,-411.53 761.44,-406.08 819.66,-403.74"/>
<polygon fill="orange" stroke="orange" points="561.18,-429.62 552.41,-435.57 562.97,-436.38 561.18,-429.62"/>
</a>
</g>
<text xml:space="preserve" text-anchor="start" x="637.62" y="-459.5" font-family="Helvetica,sans-Serif" font-size="10.00" fill="grey">&lt; ilist_node_impl&lt;</text>
<text xml:space="preserve" text-anchor="start" x="637.62" y="-444.25" font-family="Helvetica,sans-Serif" font-size="10.00" fill="grey">   OptionsT &gt;, OptionsT</text>
<text xml:space="preserve" text-anchor="start" x="637.62" y="-429" font-family="Helvetica,sans-Serif" font-size="10.00" fill="grey">  ::parent_ty &gt;</text>
</g>
<!-- Node20 -->
<g id="Node000020" class="node">
<title>Node20</title>
<g id="a_Node000020"><a xlink:href="classllvm_1_1ilist__detail_1_1node__parent__access.html" target="_top" xlink:title=" ">
<polygon fill="white" stroke="#666666" points="1170.62,-557.38 1009.12,-557.38 1009.12,-470.62 1170.62,-470.62 1170.62,-557.38"/>
<text xml:space="preserve" text-anchor="start" x="1017.12" y="-543.88" font-family="Helvetica,sans-Serif" font-size="10.00">llvm::ilist_detail</text>
<text xml:space="preserve" text-anchor="start" x="1017.12" y="-532.62" font-family="Helvetica,sans-Serif" font-size="10.00">::node_parent_access</text>
<text xml:space="preserve" text-anchor="start" x="1017.12" y="-521.38" font-family="Helvetica,sans-Serif" font-size="10.00">&lt; ilist_node_impl&lt; ilist</text>
<text xml:space="preserve" text-anchor="start" x="1017.12" y="-510.12" font-family="Helvetica,sans-Serif" font-size="10.00">_detail::compute_node_options</text>
<text xml:space="preserve" text-anchor="start" x="1017.12" y="-498.88" font-family="Helvetica,sans-Serif" font-size="10.00">&lt; T, Options... &gt;::type &gt;, ilist</text>
<text xml:space="preserve" text-anchor="start" x="1017.12" y="-487.62" font-family="Helvetica,sans-Serif" font-size="10.00">_detail::compute_node_options&lt;</text>
<text xml:space="preserve" text-anchor="middle" x="1089.88" y="-476.38" font-family="Helvetica,sans-Serif" font-size="10.00"> T, Options... &gt;::type::parent_ty &gt;</text>
</a>
</g>
</g>
<!-- Node13&#45;&gt;Node20 -->
<g id="edge24_Node000020_Node000013" class="edge">
<title>Node13&#45;&gt;Node20</title>
<g id="a_edge24_Node000020_Node000013"><a xlink:title=" ">
<path fill="none" stroke="orange" stroke-dasharray="5,2" d="M561.92,-465.8C575.16,-468.08 589,-470.28 602,-472 744.78,-490.87 912.28,-503.18 1008.94,-509.34"/>
<polygon fill="orange" stroke="orange" points="562.91,-462.42 552.45,-464.13 561.69,-469.31 562.91,-462.42"/>
</a>
</g>
<text xml:space="preserve" text-anchor="start" x="605" y="-572.02" font-family="Helvetica,sans-Serif" font-size="10.00" fill="grey">&lt; ilist_node_impl&lt;</text>
<text xml:space="preserve" text-anchor="start" x="605" y="-556.77" font-family="Helvetica,sans-Serif" font-size="10.00" fill="grey">   ilist_detail::compute</text>
<text xml:space="preserve" text-anchor="start" x="605" y="-541.52" font-family="Helvetica,sans-Serif" font-size="10.00" fill="grey">  _node_options&lt; T, Options...</text>
<text xml:space="preserve" text-anchor="start" x="605" y="-526.27" font-family="Helvetica,sans-Serif" font-size="10.00" fill="grey">   &gt;::type &gt;, ilist_detail::</text>
<text xml:space="preserve" text-anchor="start" x="605" y="-511.02" font-family="Helvetica,sans-Serif" font-size="10.00" fill="grey">  compute_node_options&lt; T, Options...</text>
<text xml:space="preserve" text-anchor="start" x="605" y="-495.77" font-family="Helvetica,sans-Serif" font-size="10.00" fill="grey">   &gt;::type::parent_ty &gt;</text>
</g>
<!-- Node25 -->
<g id="Node000025" class="node">
<title>Node25</title>
<g id="a_Node000025"><a xlink:href="classllvm_1_1ilist__detail_1_1node__parent__access.html" target="_top" xlink:title=" ">
<polygon fill="white" stroke="#666666" points="1166.12,-98 1013.62,-98 1013.62,0 1166.12,0 1166.12,-98"/>
<text xml:space="preserve" text-anchor="start" x="1021.62" y="-84.5" font-family="Helvetica,sans-Serif" font-size="10.00">llvm::ilist_detail</text>
<text xml:space="preserve" text-anchor="start" x="1021.62" y="-73.25" font-family="Helvetica,sans-Serif" font-size="10.00">::node_parent_access</text>
<text xml:space="preserve" text-anchor="start" x="1021.62" y="-62" font-family="Helvetica,sans-Serif" font-size="10.00">&lt; ilist_node_impl&lt; ilist</text>
<text xml:space="preserve" text-anchor="start" x="1021.62" y="-50.75" font-family="Helvetica,sans-Serif" font-size="10.00">_detail::compute_node_options</text>
<text xml:space="preserve" text-anchor="start" x="1021.62" y="-39.5" font-family="Helvetica,sans-Serif" font-size="10.00">&lt; NodeTy, Options... &gt;::type</text>
<text xml:space="preserve" text-anchor="start" x="1021.62" y="-28.25" font-family="Helvetica,sans-Serif" font-size="10.00"> &gt;, ilist_detail::compute_node</text>
<text xml:space="preserve" text-anchor="start" x="1021.62" y="-17" font-family="Helvetica,sans-Serif" font-size="10.00">_options&lt; NodeTy, Options... &gt;</text>
<text xml:space="preserve" text-anchor="middle" x="1089.88" y="-5.75" font-family="Helvetica,sans-Serif" font-size="10.00">::type::parent_ty &gt;</text>
</a>
</g>
</g>
<!-- Node13&#45;&gt;Node25 -->
<g id="edge34_Node000025_Node000013" class="edge">
<title>Node13&#45;&gt;Node25</title>
<g id="a_edge34_Node000025_Node000013"><a xlink:title=" ">
<path fill="none" stroke="orange" stroke-dasharray="5,2" d="M511.5,-421.74C529.96,-387.46 562.95,-332.14 602,-293.25 720.93,-174.79 909,-103.18 1013.16,-70.4"/>
<polygon fill="orange" stroke="orange" points="508.54,-419.86 506.95,-430.33 514.72,-423.13 508.54,-419.86"/>
</a>
</g>
<text xml:space="preserve" text-anchor="start" x="622.62" y="-389.5" font-family="Helvetica,sans-Serif" font-size="10.00" fill="grey">&lt; ilist_node_impl&lt;</text>
<text xml:space="preserve" text-anchor="start" x="622.62" y="-374.25" font-family="Helvetica,sans-Serif" font-size="10.00" fill="grey">   ilist_detail::compute</text>
<text xml:space="preserve" text-anchor="start" x="622.62" y="-359" font-family="Helvetica,sans-Serif" font-size="10.00" fill="grey">  _node_options&lt; NodeTy,</text>
<text xml:space="preserve" text-anchor="start" x="622.62" y="-343.75" font-family="Helvetica,sans-Serif" font-size="10.00" fill="grey">   Options... &gt;::type &gt;,</text>
<text xml:space="preserve" text-anchor="start" x="622.62" y="-328.5" font-family="Helvetica,sans-Serif" font-size="10.00" fill="grey">   ilist_detail::compute_node</text>
<text xml:space="preserve" text-anchor="start" x="622.62" y="-313.25" font-family="Helvetica,sans-Serif" font-size="10.00" fill="grey">  _options&lt; NodeTy, Options...</text>
<text xml:space="preserve" text-anchor="start" x="622.62" y="-298" font-family="Helvetica,sans-Serif" font-size="10.00" fill="grey">   &gt;::type::parent_ty &gt;</text>
</g>
<!-- Node14 -->
<g id="Node000014" class="node">
<title>Node14</title>
<g id="a_Node000014"><a xlink:href="classllvm_1_1ilist__node__impl.html" target="_top" xlink:title="Implementation for an ilist node.">
<polygon fill="white" stroke="#666666" points="1323.5,-442.25 1219,-442.25 1219,-411.75 1323.5,-411.75 1323.5,-442.25"/>
<text xml:space="preserve" text-anchor="start" x="1227" y="-428.75" font-family="Helvetica,sans-Serif" font-size="10.00">llvm::ilist_node_impl</text>
<text xml:space="preserve" text-anchor="middle" x="1271.25" y="-417.5" font-family="Helvetica,sans-Serif" font-size="10.00">&lt; OptionsT &gt;</text>
</a>
</g>
</g>
<!-- Node14&#45;&gt;Node4 -->
<g id="edge13_Node000004_Node000014" class="edge">
<title>Node14&#45;&gt;Node4</title>
<g id="a_edge13_Node000004_Node000014"><a xlink:title=" ">
<path fill="none" stroke="orange" stroke-dasharray="5,2" d="M1335.06,-424.8C1395.51,-422.68 1487.44,-419.45 1555.11,-417.08"/>
<polygon fill="orange" stroke="orange" points="1335.17,-421.29 1325.3,-425.14 1335.41,-428.29 1335.17,-421.29"/>
</a>
</g>
<text xml:space="preserve" text-anchor="start" x="1367" y="-458.76" font-family="Helvetica,sans-Serif" font-size="10.00" fill="grey">&lt; ilist_detail::compute</text>
<text xml:space="preserve" text-anchor="start" x="1367" y="-443.51" font-family="Helvetica,sans-Serif" font-size="10.00" fill="grey">  _node_options&lt; MachineBasicBlock,</text>
<text xml:space="preserve" text-anchor="start" x="1367" y="-428.26" font-family="Helvetica,sans-Serif" font-size="10.00" fill="grey">   Options... &gt;::type &gt;</text>
</g>
<!-- Node18 -->
<g id="Node000018" class="node">
<title>Node18</title>
<g id="a_Node000018"><a xlink:href="classllvm_1_1ilist__node__impl.html" target="_top" xlink:title=" ">
<polygon fill="white" stroke="#666666" points="1714.5,-357.5 1573.25,-357.5 1573.25,-304.5 1714.5,-304.5 1714.5,-357.5"/>
<text xml:space="preserve" text-anchor="start" x="1581.25" y="-344" font-family="Helvetica,sans-Serif" font-size="10.00">llvm::ilist_node_impl</text>
<text xml:space="preserve" text-anchor="start" x="1581.25" y="-332.75" font-family="Helvetica,sans-Serif" font-size="10.00">&lt; ilist_detail::compute</text>
<text xml:space="preserve" text-anchor="start" x="1581.25" y="-321.5" font-family="Helvetica,sans-Serif" font-size="10.00">_node_options&lt; T, Options...</text>
<text xml:space="preserve" text-anchor="middle" x="1643.88" y="-310.25" font-family="Helvetica,sans-Serif" font-size="10.00"> &gt;::type &gt;</text>
</a>
</g>
</g>
<!-- Node14&#45;&gt;Node18 -->
<g id="edge25_Node000018_Node000014" class="edge">
<title>Node14&#45;&gt;Node18</title>
<g id="a_edge25_Node000018_Node000014"><a xlink:title=" ">
<path fill="none" stroke="orange" stroke-dasharray="5,2" d="M1331.65,-406.1C1336.77,-403.12 1341.64,-399.76 1346,-396 1357.7,-385.9 1351.04,-374.67 1364,-366.25 1426.2,-325.83 1512.85,-320.99 1572.99,-323.72"/>
<polygon fill="orange" stroke="orange" points="1330.15,-402.93 1322.93,-410.68 1333.41,-409.13 1330.15,-402.93"/>
</a>
</g>
<text xml:space="preserve" text-anchor="start" x="1385" y="-401.5" font-family="Helvetica,sans-Serif" font-size="10.00" fill="grey">&lt; ilist_detail::compute</text>
<text xml:space="preserve" text-anchor="start" x="1385" y="-386.25" font-family="Helvetica,sans-Serif" font-size="10.00" fill="grey">  _node_options&lt; T, Options...</text>
<text xml:space="preserve" text-anchor="start" x="1385" y="-371" font-family="Helvetica,sans-Serif" font-size="10.00" fill="grey">   &gt;::type &gt;</text>
</g>
<!-- Node23 -->
<g id="Node000023" class="node">
<title>Node23</title>
<g id="a_Node000023"><a xlink:href="classllvm_1_1ilist__node__impl.html" target="_top" xlink:title=" ">
<polygon fill="white" stroke="#666666" points="1705.88,-213.5 1581.88,-213.5 1581.88,-160.5 1705.88,-160.5 1705.88,-213.5"/>
<text xml:space="preserve" text-anchor="start" x="1589.88" y="-200" font-family="Helvetica,sans-Serif" font-size="10.00">llvm::ilist_node_impl</text>
<text xml:space="preserve" text-anchor="start" x="1589.88" y="-188.75" font-family="Helvetica,sans-Serif" font-size="10.00">&lt; ilist_detail::compute</text>
<text xml:space="preserve" text-anchor="start" x="1589.88" y="-177.5" font-family="Helvetica,sans-Serif" font-size="10.00">_node_options&lt; NodeTy,</text>
<text xml:space="preserve" text-anchor="middle" x="1643.88" y="-166.25" font-family="Helvetica,sans-Serif" font-size="10.00"> Options... &gt;::type &gt;</text>
</a>
</g>
</g>
<!-- Node14&#45;&gt;Node23 -->
<g id="edge35_Node000023_Node000014" class="edge">
<title>Node14&#45;&gt;Node23</title>
<g id="a_edge35_Node000023_Node000014"><a xlink:title=" ">
<path fill="none" stroke="orange" stroke-dasharray="5,2" d="M1333.41,-407.77C1338.17,-404.44 1342.48,-400.55 1346,-396 1380.26,-351.68 1327.47,-313.72 1364,-271.25 1418.09,-208.37 1517.33,-191.48 1581.67,-187.46"/>
<polygon fill="orange" stroke="orange" points="1331.91,-404.59 1325.11,-412.71 1335.49,-410.6 1331.91,-404.59"/>
</a>
</g>
<text xml:space="preserve" text-anchor="start" x="1393.62" y="-306.5" font-family="Helvetica,sans-Serif" font-size="10.00" fill="grey">&lt; ilist_detail::compute</text>
<text xml:space="preserve" text-anchor="start" x="1393.62" y="-291.25" font-family="Helvetica,sans-Serif" font-size="10.00" fill="grey">  _node_options&lt; NodeTy,</text>
<text xml:space="preserve" text-anchor="start" x="1393.62" y="-276" font-family="Helvetica,sans-Serif" font-size="10.00" fill="grey">   Options... &gt;::type &gt;</text>
</g>
<!-- Node15 -->
<g id="Node000015" class="node">
<title>Node15</title>
<g id="a_Node000015"><a xlink:title=" ">
<polygon fill="white" stroke="#666666" points="954.75,-465.62 823.25,-465.62 823.25,-446.38 954.75,-446.38 954.75,-465.62"/>
<text xml:space="preserve" text-anchor="middle" x="889" y="-452.12" font-family="Helvetica,sans-Serif" font-size="10.00">OptionsT::node_base_type</text>
</a>
</g>
</g>
<!-- Node15&#45;&gt;Node14 -->
<g id="edge14_Node000014_Node000015" class="edge">
<title>Node15&#45;&gt;Node14</title>
<g id="a_edge14_Node000014_Node000015"><a xlink:title=" ">
<path fill="none" stroke="#8b1a1a" d="M966.33,-450.18C1024.48,-445.75 1106.54,-439.49 1178.5,-434 1191.56,-433 1205.67,-431.93 1218.81,-430.92"/>
<polygon fill="#8b1a1a" stroke="#8b1a1a" points="966.24,-446.68 956.53,-450.93 966.77,-453.66 966.24,-446.68"/>
</a>
</g>
</g>
<!-- Node16&#45;&gt;Node14 -->
<g id="edge15_Node000014_Node000016" class="edge">
<title>Node16&#45;&gt;Node14</title>
<g id="a_edge15_Node000014_Node000016"><a xlink:title=" ">
<path fill="none" stroke="#63b8ff" d="M969.84,-412.03C980.39,-413.15 991.07,-414.18 1001.25,-415 1076.74,-421.09 1164.41,-424.28 1218.61,-425.8"/>
<polygon fill="#63b8ff" stroke="#63b8ff" points="970.29,-408.56 959.97,-410.95 969.53,-415.52 970.29,-408.56"/>
</a>
</g>
</g>
<!-- Node17 -->
<g id="Node000017" class="node">
<title>Node17</title>
<g id="a_Node000017"><a xlink:href="classllvm_1_1ilist__node.html" target="_top" xlink:title=" ">
<polygon fill="white" stroke="#666666" points="1867.25,-346.25 1769.5,-346.25 1769.5,-315.75 1867.25,-315.75 1867.25,-346.25"/>
<text xml:space="preserve" text-anchor="start" x="1777.5" y="-332.75" font-family="Helvetica,sans-Serif" font-size="10.00">llvm::ilist_node&lt; T,</text>
<text xml:space="preserve" text-anchor="middle" x="1818.38" y="-321.5" font-family="Helvetica,sans-Serif" font-size="10.00"> Options &gt;</text>
</a>
</g>
</g>
<!-- Node17&#45;&gt;Node3 -->
<g id="edge17_Node000003_Node000017" class="edge">
<title>Node17&#45;&gt;Node3</title>
<g id="a_edge17_Node000003_Node000017"><a xlink:title=" ">
<path fill="none" stroke="orange" stroke-dasharray="5,2" d="M1879.12,-332.9C1918.11,-334.13 1968.93,-335.75 2008.54,-337"/>
<polygon fill="orange" stroke="orange" points="1879.31,-329.4 1869.2,-332.58 1879.09,-336.4 1879.31,-329.4"/>
</a>
</g>
<text xml:space="preserve" text-anchor="start" x="1889" y="-356.41" font-family="Helvetica,sans-Serif" font-size="10.00" fill="grey">&lt; MachineBasicBlock,</text>
<text xml:space="preserve" text-anchor="start" x="1889" y="-341.16" font-family="Helvetica,sans-Serif" font-size="10.00" fill="grey">   Options... &gt;</text>
</g>
<!-- Node22 -->
<g id="Node000022" class="node">
<title>Node22</title>
<g id="a_Node000022"><a xlink:href="classllvm_1_1ilist__node.html" target="_top" xlink:title=" ">
<polygon fill="white" stroke="#666666" points="2135.62,-305.25 2009.38,-305.25 2009.38,-274.75 2135.62,-274.75 2135.62,-305.25"/>
<text xml:space="preserve" text-anchor="start" x="2017.38" y="-291.75" font-family="Helvetica,sans-Serif" font-size="10.00">llvm::ilist_node&lt; NodeTy,</text>
<text xml:space="preserve" text-anchor="middle" x="2072.5" y="-280.5" font-family="Helvetica,sans-Serif" font-size="10.00"> Options... &gt;</text>
</a>
</g>
</g>
<!-- Node17&#45;&gt;Node22 -->
<g id="edge36_Node000022_Node000017" class="edge">
<title>Node17&#45;&gt;Node22</title>
<g id="a_edge36_Node000022_Node000017"><a xlink:title=" ">
<path fill="none" stroke="orange" stroke-dasharray="5,2" d="M1878.73,-313.16C1880.93,-312.66 1883.1,-312.19 1885.25,-311.75 1926.09,-303.46 1972.65,-298.02 2009,-294.66"/>
<polygon fill="orange" stroke="orange" points="1878.05,-309.72 1869.18,-315.51 1879.73,-316.52 1878.05,-309.72"/>
</a>
</g>
<text xml:space="preserve" text-anchor="start" x="1888.25" y="-316.5" font-family="Helvetica,sans-Serif" font-size="10.00" fill="grey">&lt; NodeTy, Options... &gt;</text>
</g>
<!-- Node18&#45;&gt;Node17 -->
<g id="edge18_Node000017_Node000018" class="edge">
<title>Node18&#45;&gt;Node17</title>
<g id="a_edge18_Node000017_Node000018"><a xlink:title=" ">
<path fill="none" stroke="#63b8ff" d="M1725.81,-331C1740.63,-331 1755.67,-331 1769.16,-331"/>
<polygon fill="#63b8ff" stroke="#63b8ff" points="1726.05,-327.5 1716.05,-331 1726.05,-334.5 1726.05,-327.5"/>
</a>
</g>
</g>
<!-- Node19&#45;&gt;Node18 -->
<g id="edge19_Node000018_Node000019" class="edge">
<title>Node19&#45;&gt;Node18</title>
<g id="a_edge19_Node000018_Node000019"><a xlink:title=" ">
<path fill="none" stroke="#8b1a1a" d="M1353.45,-280.68C1406,-287.91 1475.82,-298.09 1537.25,-309 1548.78,-311.05 1560.97,-313.41 1572.82,-315.8"/>
<polygon fill="#8b1a1a" stroke="#8b1a1a" points="1354.06,-277.23 1343.68,-279.35 1353.11,-284.17 1354.06,-277.23"/>
</a>
</g>
</g>
<!-- Node20&#45;&gt;Node18 -->
<g id="edge23_Node000018_Node000020" class="edge">
<title>Node20&#45;&gt;Node18</title>
<g id="a_edge23_Node000018_Node000020"><a xlink:title=" ">
<path fill="none" stroke="#63b8ff" d="M1182.37,-535.13C1282.56,-552.39 1441.65,-561.64 1537.25,-475 1569.42,-445.85 1529.76,-414.14 1555.25,-379 1561.26,-370.72 1569.15,-363.7 1577.74,-357.81"/>
<polygon fill="#63b8ff" stroke="#63b8ff" points="1183.01,-531.69 1172.55,-533.37 1181.78,-538.58 1183.01,-531.69"/>
</a>
</g>
</g>
<!-- Node21 -->
<g id="Node000021" class="node">
<title>Node21</title>
<g id="a_Node000021"><a xlink:href="classllvm_1_1ilist__node__with__parent.html" target="_top" xlink:title="An ilist node that can access its parent list.">
<polygon fill="white" stroke="#666666" points="2310.5,-310.88 2173,-310.88 2173,-269.12 2310.5,-269.12 2310.5,-310.88"/>
<text xml:space="preserve" text-anchor="start" x="2181" y="-297.38" font-family="Helvetica,sans-Serif" font-size="10.00">llvm::ilist_node_with</text>
<text xml:space="preserve" text-anchor="start" x="2181" y="-286.12" font-family="Helvetica,sans-Serif" font-size="10.00">_parent&lt; NodeTy, ParentTy,</text>
<text xml:space="preserve" text-anchor="middle" x="2241.75" y="-274.88" font-family="Helvetica,sans-Serif" font-size="10.00"> Options &gt;</text>
</a>
</g>
</g>
<!-- Node21&#45;&gt;Node2 -->
<g id="edge26_Node000002_Node000021" class="edge">
<title>Node21&#45;&gt;Node2</title>
<g id="a_edge26_Node000002_Node000021"><a xlink:title=" ">
<path fill="none" stroke="orange" stroke-dasharray="5,2" d="M2322.07,-286.97C2356.25,-286.71 2396.6,-287.82 2432.75,-292.5 2438.52,-293.25 2444.44,-294.23 2450.38,-295.36"/>
<polygon fill="orange" stroke="orange" points="2322.2,-283.47 2312.24,-287.09 2322.28,-290.47 2322.2,-283.47"/>
</a>
</g>
<text xml:space="preserve" text-anchor="start" x="2331.5" y="-312.5" font-family="Helvetica,sans-Serif" font-size="10.00" fill="grey">&lt; MachineBasicBlock,</text>
<text xml:space="preserve" text-anchor="start" x="2331.5" y="-297.25" font-family="Helvetica,sans-Serif" font-size="10.00" fill="grey">   MachineFunction &gt;</text>
</g>
<!-- Node22&#45;&gt;Node21 -->
<g id="edge27_Node000021_Node000022" class="edge">
<title>Node22&#45;&gt;Node21</title>
<g id="a_edge27_Node000021_Node000022"><a xlink:title=" ">
<path fill="none" stroke="#63b8ff" d="M2147.16,-290C2155.59,-290 2164.16,-290 2172.52,-290"/>
<polygon fill="#63b8ff" stroke="#63b8ff" points="2147.29,-286.5 2137.29,-290 2147.29,-293.5 2147.29,-286.5"/>
</a>
</g>
</g>
<!-- Node23&#45;&gt;Node22 -->
<g id="edge28_Node000022_Node000023" class="edge">
<title>Node23&#45;&gt;Node22</title>
<g id="a_edge28_Node000022_Node000023"><a xlink:title=" ">
<path fill="none" stroke="#63b8ff" d="M1716.97,-204.41C1798.93,-224.19 1931.4,-256.18 2009.1,-274.94"/>
<polygon fill="#63b8ff" stroke="#63b8ff" points="1718.01,-201.06 1707.47,-202.11 1716.37,-207.86 1718.01,-201.06"/>
</a>
</g>
</g>
<!-- Node24&#45;&gt;Node23 -->
<g id="edge29_Node000023_Node000024" class="edge">
<title>Node24&#45;&gt;Node23</title>
<g id="a_edge29_Node000023_Node000024"><a xlink:title=" ">
<path fill="none" stroke="#8b1a1a" d="M1344.65,-174.93C1413.69,-177.72 1516.5,-181.89 1581.58,-184.52"/>
<polygon fill="#8b1a1a" stroke="#8b1a1a" points="1345.1,-171.45 1334.96,-174.54 1344.81,-178.44 1345.1,-171.45"/>
</a>
</g>
</g>
<!-- Node25&#45;&gt;Node23 -->
<g id="edge33_Node000023_Node000025" class="edge">
<title>Node25&#45;&gt;Node23</title>
<g id="a_edge33_Node000023_Node000025"><a xlink:title=" ">
<path fill="none" stroke="#63b8ff" d="M1177.43,-70.64C1289.9,-98.76 1483.48,-147.15 1581.77,-171.72"/>
<polygon fill="#63b8ff" stroke="#63b8ff" points="1178.49,-67.3 1167.94,-68.27 1176.79,-74.09 1178.49,-67.3"/>
</a>
</g>
</g>
</g>
</svg>
