<?xml version="1.0" encoding="UTF-8" standalone="no"?>
<!DOCTYPE svg PUBLIC "-//W3C//DTD SVG 1.1//EN"
 "http://www.w3.org/Graphics/SVG/1.1/DTD/svg11.dtd">
<!-- Generated by graphviz version 13.1.2 (20250808.2320)
 -->
<!-- Title: llvm::DbgEntity Pages: 1 -->
<svg width="200pt" height="83pt"
 viewBox="0.00 0.00 200.00 83.00" xmlns="http://www.w3.org/2000/svg" xmlns:xlink="http://www.w3.org/1999/xlink">
<g id="graph0" class="graph" transform="scale(1 1) rotate(0) translate(4 78.5)">
<title>llvm::DbgEntity</title>
<!-- Node1 -->
<g id="Node000001" class="node">
<title>Node1</title>
<g id="a_Node000001"><a xlink:title="This class is defined as the common parent of DbgVariable and DbgLabel such that it could levarage po...">
<polygon fill="#999999" stroke="#666666" points="134.38,-74.5 50.88,-74.5 50.88,-55.25 134.38,-55.25 134.38,-74.5"/>
<text xml:space="preserve" text-anchor="middle" x="92.62" y="-61" font-family="Helvetica,sans-Serif" font-size="10.00">llvm::DbgEntity</text>
</a>
</g>
</g>
<!-- Node2 -->
<g id="Node000002" class="node">
<title>Node2</title>
<g id="a_Node000002"><a xlink:href="classllvm_1_1DbgLabel.html" target="_top" xlink:title="This class is used to track label information.">
<polygon fill="white" stroke="#666666" points="81.25,-19.25 0,-19.25 0,0 81.25,0 81.25,-19.25"/>
<text xml:space="preserve" text-anchor="middle" x="40.62" y="-5.75" font-family="Helvetica,sans-Serif" font-size="10.00">llvm::DbgLabel</text>
</a>
</g>
</g>
<!-- Node1&#45;&gt;Node2 -->
<g id="edge1_Node000001_Node000002" class="edge">
<title>Node1&#45;&gt;Node2</title>
<g id="a_edge1_Node000001_Node000002"><a xlink:title=" ">
<path fill="none" stroke="#63b8ff" d="M76.22,-47.07C67.33,-37.98 56.71,-27.1 49.4,-19.61"/>
<polygon fill="#63b8ff" stroke="#63b8ff" points="73.49,-49.29 82.98,-54 78.5,-44.4 73.49,-49.29"/>
</a>
</g>
</g>
<!-- Node3 -->
<g id="Node000003" class="node">
<title>Node3</title>
<g id="a_Node000003"><a xlink:href="classllvm_1_1DbgVariable.html" target="_top" xlink:title="This class is used to track local variable information.">
<polygon fill="white" stroke="#666666" points="191.88,-19.25 99.38,-19.25 99.38,0 191.88,0 191.88,-19.25"/>
<text xml:space="preserve" text-anchor="middle" x="145.62" y="-5.75" font-family="Helvetica,sans-Serif" font-size="10.00">llvm::DbgVariable</text>
</a>
</g>
</g>
<!-- Node1&#45;&gt;Node3 -->
<g id="edge2_Node000001_Node000003" class="edge">
<title>Node1&#45;&gt;Node3</title>
<g id="a_edge2_Node000001_Node000003"><a xlink:title=" ">
<path fill="none" stroke="#63b8ff" d="M109.35,-47.07C118.4,-37.98 129.23,-27.1 136.68,-19.61"/>
<polygon fill="#63b8ff" stroke="#63b8ff" points="107.02,-44.45 102.44,-54.01 111.98,-49.39 107.02,-44.45"/>
</a>
</g>
</g>
</g>
</svg>
