<?xml version="1.0" encoding="UTF-8" standalone="no"?>
<!DOCTYPE svg PUBLIC "-//W3C//DTD SVG 1.1//EN"
 "http://www.w3.org/Graphics/SVG/1.1/DTD/svg11.dtd">
<!-- Generated by graphviz version 13.1.2 (20250808.2320)
 -->
<!-- Title: llvm::BumpPtrAllocatorImpl&lt; AllocatorT, SlabSize, SizeThreshold, GrowthDelay &gt; Pages: 1 -->
<svg width="1638pt" height="168pt"
 viewBox="0.00 0.00 1638.00 168.00" xmlns="http://www.w3.org/2000/svg" xmlns:xlink="http://www.w3.org/1999/xlink">
<g id="graph0" class="graph" transform="scale(1 1) rotate(0) translate(4 164.12)">
<title>llvm::BumpPtrAllocatorImpl&lt; AllocatorT, SlabSize, SizeThreshold, GrowthDelay &gt;</title>
<!-- Node1 -->
<g id="Node000001" class="node">
<title>Node1</title>
<g id="a_Node000001"><a xlink:title="Allocate memory in an ever growing pool, as if by bump&#45;pointer.">
<polygon fill="#999999" stroke="#666666" points="1100.5,-100.12 947.25,-100.12 947.25,-58.38 1100.5,-58.38 1100.5,-100.12"/>
<text xml:space="preserve" text-anchor="start" x="955.25" y="-86.62" font-family="Helvetica,sans-Serif" font-size="10.00">llvm::BumpPtrAllocatorImpl</text>
<text xml:space="preserve" text-anchor="start" x="955.25" y="-75.38" font-family="Helvetica,sans-Serif" font-size="10.00">&lt; AllocatorT, SlabSize,</text>
<text xml:space="preserve" text-anchor="middle" x="1023.88" y="-64.12" font-family="Helvetica,sans-Serif" font-size="10.00"> SizeThreshold, GrowthDelay &gt;</text>
</a>
</g>
</g>
<!-- Node9 -->
<g id="Node000009" class="node">
<title>Node9</title>
<g id="a_Node000009"><a xlink:href="classllvm_1_1AllocatorList.html" target="_top" xlink:title=" ">
<polygon fill="white" stroke="#666666" points="1357.62,-149.5 1236.62,-149.5 1236.62,-119 1357.62,-119 1357.62,-149.5"/>
<text xml:space="preserve" text-anchor="start" x="1244.62" y="-136" font-family="Helvetica,sans-Serif" font-size="10.00">llvm::AllocatorList</text>
<text xml:space="preserve" text-anchor="middle" x="1297.12" y="-124.75" font-family="Helvetica,sans-Serif" font-size="10.00">&lt; T, BumpPtrAllocator &gt;</text>
</a>
</g>
</g>
<!-- Node1&#45;&gt;Node9 -->
<g id="edge9_Node000001_Node000009" class="edge">
<title>Node1&#45;&gt;Node9</title>
<g id="a_edge9_Node000001_Node000009"><a xlink:title=" ">
<path fill="none" stroke="#8b1a1a" d="M1112.03,-96.92C1152.54,-105.14 1199.7,-114.7 1236.14,-122.09"/>
<polygon fill="#8b1a1a" stroke="#8b1a1a" points="1112.77,-93.5 1102.28,-94.94 1111.38,-100.36 1112.77,-93.5"/>
</a>
</g>
</g>
<!-- Node11 -->
<g id="Node000011" class="node">
<title>Node11</title>
<g id="a_Node000011"><a xlink:href="classllvm_1_1detail_1_1AllocatorHolder.html" target="_top" xlink:title=" ">
<polygon fill="white" stroke="#666666" points="1373.75,-94.5 1220.5,-94.5 1220.5,-64 1373.75,-64 1373.75,-94.5"/>
<text xml:space="preserve" text-anchor="start" x="1228.5" y="-81" font-family="Helvetica,sans-Serif" font-size="10.00">llvm::detail::AllocatorHolder</text>
<text xml:space="preserve" text-anchor="middle" x="1297.12" y="-69.75" font-family="Helvetica,sans-Serif" font-size="10.00">&lt; llvm::BumpPtrAllocatorImpl &gt;</text>
</a>
</g>
</g>
<!-- Node1&#45;&gt;Node11 -->
<g id="edge11_Node000001_Node000011" class="edge">
<title>Node1&#45;&gt;Node11</title>
<g id="a_edge11_Node000001_Node000011"><a xlink:title=" ">
<path fill="none" stroke="#8b1a1a" d="M1111.92,-79.25C1146.78,-79.25 1186.57,-79.25 1220.22,-79.25"/>
<polygon fill="#8b1a1a" stroke="#8b1a1a" points="1112.31,-75.75 1102.31,-79.25 1112.31,-82.75 1112.31,-75.75"/>
</a>
</g>
</g>
<!-- Node14 -->
<g id="Node000014" class="node">
<title>Node14</title>
<g id="a_Node000014"><a xlink:href="classllvm_1_1BumpPtrAllocatorImpl.html" target="_top" xlink:title=" ">
<polygon fill="white" stroke="#666666" points="1364.75,-45.5 1229.5,-45.5 1229.5,-15 1364.75,-15 1364.75,-45.5"/>
<text xml:space="preserve" text-anchor="start" x="1237.5" y="-32" font-family="Helvetica,sans-Serif" font-size="10.00">llvm::BumpPtrAllocatorImpl</text>
<text xml:space="preserve" text-anchor="middle" x="1297.12" y="-20.75" font-family="Helvetica,sans-Serif" font-size="10.00">&lt; MallocAllocator, 65536 &gt;</text>
</a>
</g>
</g>
<!-- Node1&#45;&gt;Node14 -->
<g id="edge14_Node000001_Node000014" class="edge">
<title>Node1&#45;&gt;Node14</title>
<g id="a_edge14_Node000001_Node000014"><a xlink:title=" ">
<path fill="none" stroke="orange" stroke-dasharray="5,2" d="M1081.85,-53.91C1093.76,-49.5 1106.38,-45.47 1118.5,-42.75 1154.54,-34.65 1195.64,-31.39 1229.22,-30.22"/>
<polygon fill="orange" stroke="orange" points="1080.64,-50.62 1072.57,-57.48 1083.16,-57.15 1080.64,-50.62"/>
</a>
</g>
<text xml:space="preserve" text-anchor="start" x="1121.5" y="-62.75" font-family="Helvetica,sans-Serif" font-size="10.00" fill="grey">&lt; MallocAllocator,</text>
<text xml:space="preserve" text-anchor="start" x="1121.5" y="-47.5" font-family="Helvetica,sans-Serif" font-size="10.00" fill="grey">   65536 &gt;</text>
</g>
<!-- Node2 -->
<g id="Node000002" class="node">
<title>Node2</title>
<g id="a_Node000002"><a xlink:href="classllvm_1_1AllocatorBase.html" target="_top" xlink:title=" ">
<polygon fill="white" stroke="#666666" points="493.5,-127.75 372.5,-127.75 372.5,-74.75 493.5,-74.75 493.5,-127.75"/>
<text xml:space="preserve" text-anchor="start" x="380.5" y="-114.25" font-family="Helvetica,sans-Serif" font-size="10.00">llvm::AllocatorBase</text>
<text xml:space="preserve" text-anchor="start" x="380.5" y="-103" font-family="Helvetica,sans-Serif" font-size="10.00">&lt; BumpPtrAllocatorImpl</text>
<text xml:space="preserve" text-anchor="start" x="380.5" y="-91.75" font-family="Helvetica,sans-Serif" font-size="10.00">&lt; MallocAllocator, 4096,</text>
<text xml:space="preserve" text-anchor="middle" x="433" y="-80.5" font-family="Helvetica,sans-Serif" font-size="10.00"> 4096, 128 &gt; &gt;</text>
</a>
</g>
</g>
<!-- Node2&#45;&gt;Node1 -->
<g id="edge1_Node000001_Node000002" class="edge">
<title>Node2&#45;&gt;Node1</title>
<g id="a_edge1_Node000001_Node000002"><a xlink:title=" ">
<path fill="none" stroke="#63b8ff" d="M505.45,-98.58C617.22,-94.4 832.48,-86.36 946.95,-82.09"/>
<polygon fill="#63b8ff" stroke="#63b8ff" points="505.35,-95.08 495.49,-98.95 505.61,-102.08 505.35,-95.08"/>
</a>
</g>
</g>
<!-- Node3 -->
<g id="Node000003" class="node">
<title>Node3</title>
<g id="a_Node000003"><a xlink:href="classllvm_1_1AllocatorBase.html" target="_top" xlink:title="CRTP base class providing obvious overloads for the core Allocate() methods of LLVM&#45;style allocators.">
<polygon fill="white" stroke="#666666" points="100.75,-95.5 0,-95.5 0,-65 100.75,-65 100.75,-95.5"/>
<text xml:space="preserve" text-anchor="start" x="8" y="-82" font-family="Helvetica,sans-Serif" font-size="10.00">llvm::AllocatorBase</text>
<text xml:space="preserve" text-anchor="middle" x="50.38" y="-70.75" font-family="Helvetica,sans-Serif" font-size="10.00">&lt; DerivedT &gt;</text>
</a>
</g>
</g>
<!-- Node3&#45;&gt;Node2 -->
<g id="edge2_Node000002_Node000003" class="edge">
<title>Node3&#45;&gt;Node2</title>
<g id="a_edge2_Node000002_Node000003"><a xlink:title=" ">
<path fill="none" stroke="orange" stroke-dasharray="5,2" d="M112.62,-83.63C184.06,-87.57 301.39,-94.04 372.2,-97.95"/>
<polygon fill="orange" stroke="orange" points="112.82,-80.14 102.65,-83.08 112.44,-87.12 112.82,-80.14"/>
</a>
</g>
<text xml:space="preserve" text-anchor="start" x="121.75" y="-125.55" font-family="Helvetica,sans-Serif" font-size="10.00" fill="grey">&lt; BumpPtrAllocatorImpl</text>
<text xml:space="preserve" text-anchor="start" x="121.75" y="-110.3" font-family="Helvetica,sans-Serif" font-size="10.00" fill="grey">  &lt; MallocAllocator, 4096,</text>
<text xml:space="preserve" text-anchor="start" x="121.75" y="-95.05" font-family="Helvetica,sans-Serif" font-size="10.00" fill="grey">   4096, 128 &gt; &gt;</text>
</g>
<!-- Node6 -->
<g id="Node000006" class="node">
<title>Node6</title>
<g id="a_Node000006"><a xlink:href="classllvm_1_1AllocatorBase.html" target="_top" xlink:title=" ">
<polygon fill="white" stroke="#666666" points="354.5,-73.5 253.75,-73.5 253.75,-43 354.5,-43 354.5,-73.5"/>
<text xml:space="preserve" text-anchor="start" x="261.75" y="-60" font-family="Helvetica,sans-Serif" font-size="10.00">llvm::AllocatorBase</text>
<text xml:space="preserve" text-anchor="middle" x="304.12" y="-48.75" font-family="Helvetica,sans-Serif" font-size="10.00">&lt; MallocAllocator &gt;</text>
</a>
</g>
</g>
<!-- Node3&#45;&gt;Node6 -->
<g id="edge6_Node000006_Node000003" class="edge">
<title>Node3&#45;&gt;Node6</title>
<g id="a_edge6_Node000006_Node000003"><a xlink:title=" ">
<path fill="none" stroke="orange" stroke-dasharray="5,2" d="M112.2,-63.06C114.4,-62.67 116.59,-62.31 118.75,-62 164.07,-55.5 216.29,-55.09 253.56,-56"/>
<polygon fill="orange" stroke="orange" points="111.71,-59.59 102.61,-65.02 113.11,-66.45 111.71,-59.59"/>
</a>
</g>
<text xml:space="preserve" text-anchor="start" x="134.88" y="-66.75" font-family="Helvetica,sans-Serif" font-size="10.00" fill="grey">&lt; MallocAllocator &gt;</text>
</g>
<!-- Node4 -->
<g id="Node000004" class="node">
<title>Node4</title>
<g id="a_Node000004"><a xlink:href="classllvm_1_1detail_1_1AllocatorHolder.html" target="_top" xlink:title=" ">
<polygon fill="white" stroke="#666666" points="910.25,-73.5 774.25,-73.5 774.25,-43 910.25,-43 910.25,-73.5"/>
<text xml:space="preserve" text-anchor="start" x="782.25" y="-60" font-family="Helvetica,sans-Serif" font-size="10.00">llvm::detail::AllocatorHolder</text>
<text xml:space="preserve" text-anchor="middle" x="842.25" y="-48.75" font-family="Helvetica,sans-Serif" font-size="10.00">&lt; MallocAllocator &gt;</text>
</a>
</g>
</g>
<!-- Node4&#45;&gt;Node1 -->
<g id="edge3_Node000001_Node000004" class="edge">
<title>Node4&#45;&gt;Node1</title>
<g id="a_edge3_Node000001_Node000004"><a xlink:title=" ">
<path fill="none" stroke="#8b1a1a" d="M921.89,-67.44C930.21,-68.42 938.66,-69.4 946.96,-70.37"/>
<polygon fill="#8b1a1a" stroke="#8b1a1a" points="922.49,-63.99 912.15,-66.31 921.68,-70.94 922.49,-63.99"/>
</a>
</g>
</g>
<!-- Node5 -->
<g id="Node000005" class="node">
<title>Node5</title>
<g id="a_Node000005"><a xlink:href="classllvm_1_1MallocAllocator.html" target="_top" xlink:title=" ">
<polygon fill="white" stroke="#666666" points="632.88,-67.88 526.12,-67.88 526.12,-48.62 632.88,-48.62 632.88,-67.88"/>
<text xml:space="preserve" text-anchor="middle" x="579.5" y="-54.38" font-family="Helvetica,sans-Serif" font-size="10.00">llvm::MallocAllocator</text>
</a>
</g>
</g>
<!-- Node5&#45;&gt;Node4 -->
<g id="edge4_Node000004_Node000005" class="edge">
<title>Node5&#45;&gt;Node4</title>
<g id="a_edge4_Node000004_Node000005"><a xlink:title=" ">
<path fill="none" stroke="#8b1a1a" d="M644.58,-58.25C683.93,-58.25 734.26,-58.25 774.16,-58.25"/>
<polygon fill="#8b1a1a" stroke="#8b1a1a" points="644.78,-54.75 634.78,-58.25 644.78,-61.75 644.78,-54.75"/>
</a>
</g>
</g>
<!-- Node6&#45;&gt;Node5 -->
<g id="edge5_Node000005_Node000006" class="edge">
<title>Node6&#45;&gt;Node5</title>
<g id="a_edge5_Node000005_Node000006"><a xlink:title=" ">
<path fill="none" stroke="#63b8ff" d="M366.41,-58.25C414.31,-58.25 480.19,-58.25 525.76,-58.25"/>
<polygon fill="#63b8ff" stroke="#63b8ff" points="366.46,-54.75 356.46,-58.25 366.46,-61.75 366.46,-54.75"/>
</a>
</g>
</g>
<!-- Node7 -->
<g id="Node000007" class="node">
<title>Node7</title>
<g id="a_Node000007"><a xlink:href="classllvm_1_1detail_1_1AllocatorHolder.html" target="_top" xlink:title=" ">
<polygon fill="white" stroke="#666666" points="647.5,-30.5 511.5,-30.5 511.5,0 647.5,0 647.5,-30.5"/>
<text xml:space="preserve" text-anchor="start" x="519.5" y="-17" font-family="Helvetica,sans-Serif" font-size="10.00">llvm::detail::AllocatorHolder</text>
<text xml:space="preserve" text-anchor="middle" x="579.5" y="-5.75" font-family="Helvetica,sans-Serif" font-size="10.00">&lt; Alloc &gt;</text>
</a>
</g>
</g>
<!-- Node7&#45;&gt;Node4 -->
<g id="edge7_Node000004_Node000007" class="edge">
<title>Node7&#45;&gt;Node4</title>
<g id="a_edge7_Node000004_Node000007"><a xlink:title=" ">
<path fill="none" stroke="orange" stroke-dasharray="5,2" d="M659.39,-22.94C689.79,-26.44 724.76,-31.14 756.25,-37 764.77,-38.59 773.72,-40.52 782.47,-42.57"/>
<polygon fill="orange" stroke="orange" points="659.81,-19.47 649.48,-21.82 659.03,-26.42 659.81,-19.47"/>
</a>
</g>
<text xml:space="preserve" text-anchor="start" x="668.5" y="-41.75" font-family="Helvetica,sans-Serif" font-size="10.00" fill="grey">&lt; MallocAllocator &gt;</text>
</g>
<!-- Node8 -->
<g id="Node000008" class="node">
<title>Node8</title>
<g id="a_Node000008"><a xlink:title=" ">
<polygon fill="white" stroke="#666666" points="323,-24.88 285.25,-24.88 285.25,-5.63 323,-5.63 323,-24.88"/>
<text xml:space="preserve" text-anchor="middle" x="304.12" y="-11.38" font-family="Helvetica,sans-Serif" font-size="10.00">Alloc</text>
</a>
</g>
</g>
<!-- Node8&#45;&gt;Node7 -->
<g id="edge8_Node000007_Node000008" class="edge">
<title>Node8&#45;&gt;Node7</title>
<g id="a_edge8_Node000007_Node000008"><a xlink:title=" ">
<path fill="none" stroke="#8b1a1a" d="M334.81,-15.25C376.77,-15.25 454.6,-15.25 511.04,-15.25"/>
<polygon fill="#8b1a1a" stroke="#8b1a1a" points="335,-11.75 325,-15.25 335,-18.75 335,-11.75"/>
</a>
</g>
</g>
<!-- Node10 -->
<g id="Node000010" class="node">
<title>Node10</title>
<g id="a_Node000010"><a xlink:href="classllvm_1_1AllocatorList.html" target="_top" xlink:title=" ">
<polygon fill="white" stroke="#666666" points="1600.88,-160.12 1488.88,-160.12 1488.88,-118.38 1600.88,-118.38 1600.88,-160.12"/>
<text xml:space="preserve" text-anchor="start" x="1496.88" y="-146.62" font-family="Helvetica,sans-Serif" font-size="10.00">llvm::AllocatorList</text>
<text xml:space="preserve" text-anchor="start" x="1496.88" y="-135.38" font-family="Helvetica,sans-Serif" font-size="10.00">&lt; T, BumpPtrAllocator</text>
<text xml:space="preserve" text-anchor="middle" x="1544.88" y="-124.12" font-family="Helvetica,sans-Serif" font-size="10.00"> &gt;&lt; Token &gt;</text>
</a>
</g>
</g>
<!-- Node9&#45;&gt;Node10 -->
<g id="edge10_Node000009_Node000010" class="edge">
<title>Node9&#45;&gt;Node10</title>
<g id="a_edge10_Node000009_Node000010"><a xlink:title=" ">
<path fill="none" stroke="orange" stroke-dasharray="5,2" d="M1369.41,-135.7C1407.32,-136.47 1453.23,-137.41 1488.44,-138.12"/>
<polygon fill="orange" stroke="orange" points="1369.51,-132.2 1359.44,-135.5 1369.37,-139.2 1369.51,-132.2"/>
</a>
</g>
<text xml:space="preserve" text-anchor="start" x="1394.75" y="-141.8" font-family="Helvetica,sans-Serif" font-size="10.00" fill="grey">&lt; Token &gt;</text>
</g>
<!-- Node12 -->
<g id="Node000012" class="node">
<title>Node12</title>
<g id="a_Node000012"><a xlink:href="classllvm_1_1StringMap.html" target="_top" xlink:title=" ">
<polygon fill="white" stroke="#666666" points="1629.75,-100.12 1460,-100.12 1460,-58.38 1629.75,-58.38 1629.75,-100.12"/>
<text xml:space="preserve" text-anchor="start" x="1468" y="-86.62" font-family="Helvetica,sans-Serif" font-size="10.00">llvm::StringMap&lt; llvm</text>
<text xml:space="preserve" text-anchor="start" x="1468" y="-75.38" font-family="Helvetica,sans-Serif" font-size="10.00">::MDString, llvm::BumpPtrAllocator</text>
<text xml:space="preserve" text-anchor="middle" x="1544.88" y="-64.12" font-family="Helvetica,sans-Serif" font-size="10.00">Impl &gt;</text>
</a>
</g>
</g>
<!-- Node11&#45;&gt;Node12 -->
<g id="edge12_Node000011_Node000012" class="edge">
<title>Node11&#45;&gt;Node12</title>
<g id="a_edge12_Node000011_Node000012"><a xlink:title=" ">
<path fill="none" stroke="#8b1a1a" d="M1385.48,-79.25C1409.58,-79.25 1435.68,-79.25 1459.6,-79.25"/>
<polygon fill="#8b1a1a" stroke="#8b1a1a" points="1385.71,-75.75 1375.71,-79.25 1385.71,-82.75 1385.71,-75.75"/>
</a>
</g>
</g>
<!-- Node13 -->
<g id="Node000013" class="node">
<title>Node13</title>
<g id="a_Node000013"><a xlink:href="classllvm_1_1StringMap.html" target="_top" xlink:title=" ">
<polygon fill="white" stroke="#666666" points="1618.5,-40.5 1471.25,-40.5 1471.25,-10 1618.5,-10 1618.5,-40.5"/>
<text xml:space="preserve" text-anchor="start" x="1479.25" y="-27" font-family="Helvetica,sans-Serif" font-size="10.00">llvm::StringMap&lt; unsigned,</text>
<text xml:space="preserve" text-anchor="middle" x="1544.88" y="-15.75" font-family="Helvetica,sans-Serif" font-size="10.00"> llvm::BumpPtrAllocatorImpl &gt;</text>
</a>
</g>
</g>
<!-- Node11&#45;&gt;Node13 -->
<g id="edge13_Node000011_Node000013" class="edge">
<title>Node11&#45;&gt;Node13</title>
<g id="a_edge13_Node000011_Node000013"><a xlink:title=" ">
<path fill="none" stroke="#8b1a1a" d="M1380.72,-61.1C1410.41,-54.58 1443.62,-47.28 1472.29,-40.98"/>
<polygon fill="#8b1a1a" stroke="#8b1a1a" points="1380.03,-57.67 1371.01,-63.23 1381.53,-64.51 1380.03,-57.67"/>
</a>
</g>
</g>
</g>
</svg>
