<?xml version="1.0" encoding="UTF-8" standalone="no"?>
<!DOCTYPE svg PUBLIC "-//W3C//DTD SVG 1.1//EN"
 "http://www.w3.org/Graphics/SVG/1.1/DTD/svg11.dtd">
<!-- Generated by graphviz version 13.1.2 (20250808.2320)
 -->
<!-- Title: llvm::ScopedHashTable&lt; K, V, KInfo, AllocatorTy &gt; Pages: 1 -->
<svg width="995pt" height="554pt"
 viewBox="0.00 0.00 995.00 554.00" xmlns="http://www.w3.org/2000/svg" xmlns:xlink="http://www.w3.org/1999/xlink">
<g id="graph0" class="graph" transform="scale(1 1) rotate(0) translate(4 549.73)">
<title>llvm::ScopedHashTable&lt; K, V, KInfo, AllocatorTy &gt;</title>
<!-- Node1 -->
<g id="Node000001" class="node">
<title>Node1</title>
<g id="a_Node000001"><a xlink:title=" ">
<polygon fill="#999999" stroke="#666666" points="627,-254.45 491.75,-254.45 491.75,-223.95 627,-223.95 627,-254.45"/>
<text xml:space="preserve" text-anchor="start" x="499.75" y="-240.95" font-family="Helvetica,sans-Serif" font-size="10.00">llvm::ScopedHashTable</text>
<text xml:space="preserve" text-anchor="middle" x="559.38" y="-229.7" font-family="Helvetica,sans-Serif" font-size="10.00">&lt; K, V, KInfo, AllocatorTy &gt;</text>
</a>
</g>
</g>
<!-- Node6 -->
<g id="Node000006" class="node">
<title>Node6</title>
<g id="a_Node000006"><a xlink:href="classllvm_1_1ScopedHashTable.html" target="_top" xlink:title=" ">
<polygon fill="white" stroke="#666666" points="977.88,-508.7 831.38,-508.7 831.38,-455.7 977.88,-455.7 977.88,-508.7"/>
<text xml:space="preserve" text-anchor="start" x="839.38" y="-495.2" font-family="Helvetica,sans-Serif" font-size="10.00">llvm::ScopedHashTable</text>
<text xml:space="preserve" text-anchor="start" x="839.38" y="-483.95" font-family="Helvetica,sans-Serif" font-size="10.00">&lt; MachineInstr *, unsigned,</text>
<text xml:space="preserve" text-anchor="start" x="839.38" y="-472.7" font-family="Helvetica,sans-Serif" font-size="10.00"> MachineInstrExpressionTrait,</text>
<text xml:space="preserve" text-anchor="middle" x="904.62" y="-461.45" font-family="Helvetica,sans-Serif" font-size="10.00"> AllocatorTy &gt;</text>
</a>
</g>
</g>
<!-- Node1&#45;&gt;Node6 -->
<g id="edge5_Node000001_Node000006" class="edge">
<title>Node1&#45;&gt;Node6</title>
<g id="a_edge5_Node000001_Node000006"><a xlink:title=" ">
<path fill="none" stroke="orange" stroke-dasharray="5,2" d="M561.88,-266.02C566.15,-313.83 582.48,-413.17 645,-460.2 697.75,-499.89 774.83,-501.36 831.11,-495.36"/>
<polygon fill="orange" stroke="orange" points="565.39,-265.99 561.14,-256.28 558.41,-266.52 565.39,-265.99"/>
</a>
</g>
<text xml:space="preserve" text-anchor="start" x="656.62" y="-533.23" font-family="Helvetica,sans-Serif" font-size="10.00" fill="grey">&lt; MachineInstr *, unsigned,</text>
<text xml:space="preserve" text-anchor="start" x="656.62" y="-517.98" font-family="Helvetica,sans-Serif" font-size="10.00" fill="grey">   MachineInstrExpressionTrait,</text>
<text xml:space="preserve" text-anchor="start" x="656.62" y="-502.73" font-family="Helvetica,sans-Serif" font-size="10.00" fill="grey">   AllocatorTy &gt;</text>
</g>
<!-- Node7 -->
<g id="Node000007" class="node">
<title>Node7</title>
<g id="a_Node000007"><a xlink:href="classllvm_1_1ScopedHashTable.html" target="_top" xlink:title=" ">
<polygon fill="white" stroke="#666666" points="982.38,-437.7 826.88,-437.7 826.88,-384.7 982.38,-384.7 982.38,-437.7"/>
<text xml:space="preserve" text-anchor="start" x="834.88" y="-424.2" font-family="Helvetica,sans-Serif" font-size="10.00">llvm::ScopedHashTable</text>
<text xml:space="preserve" text-anchor="start" x="834.88" y="-412.95" font-family="Helvetica,sans-Serif" font-size="10.00">&lt; SimpleValue, Value</text>
<text xml:space="preserve" text-anchor="start" x="834.88" y="-401.7" font-family="Helvetica,sans-Serif" font-size="10.00"> *, DenseMapInfo&lt; SimpleValue</text>
<text xml:space="preserve" text-anchor="middle" x="904.62" y="-390.45" font-family="Helvetica,sans-Serif" font-size="10.00"> &gt;, AllocatorTy &gt;</text>
</a>
</g>
</g>
<!-- Node1&#45;&gt;Node7 -->
<g id="edge6_Node000001_Node000007" class="edge">
<title>Node1&#45;&gt;Node7</title>
<g id="a_edge6_Node000001_Node000007"><a xlink:title=" ">
<path fill="none" stroke="orange" stroke-dasharray="5,2" d="M567.29,-265.66C577.81,-300.08 601.37,-359.12 645,-387.2 674.1,-405.94 761.29,-410.83 826.44,-411.75"/>
<polygon fill="orange" stroke="orange" points="570.66,-264.7 564.52,-256.06 563.93,-266.64 570.66,-264.7"/>
</a>
</g>
<text xml:space="preserve" text-anchor="start" x="652.12" y="-446.4" font-family="Helvetica,sans-Serif" font-size="10.00" fill="grey">&lt; SimpleValue, Value</text>
<text xml:space="preserve" text-anchor="start" x="652.12" y="-431.15" font-family="Helvetica,sans-Serif" font-size="10.00" fill="grey">   *, DenseMapInfo&lt; SimpleValue</text>
<text xml:space="preserve" text-anchor="start" x="652.12" y="-415.9" font-family="Helvetica,sans-Serif" font-size="10.00" fill="grey">   &gt;, AllocatorTy &gt;</text>
</g>
<!-- Node8 -->
<g id="Node000008" class="node">
<title>Node8</title>
<g id="a_Node000008"><a xlink:href="classllvm_1_1ScopedHashTable.html" target="_top" xlink:title=" ">
<polygon fill="white" stroke="#666666" points="965.88,-366.7 843.38,-366.7 843.38,-313.7 965.88,-313.7 965.88,-366.7"/>
<text xml:space="preserve" text-anchor="start" x="851.38" y="-353.2" font-family="Helvetica,sans-Serif" font-size="10.00">llvm::ScopedHashTable</text>
<text xml:space="preserve" text-anchor="start" x="851.38" y="-341.95" font-family="Helvetica,sans-Serif" font-size="10.00">&lt; Value *, LoadValue,</text>
<text xml:space="preserve" text-anchor="start" x="851.38" y="-330.7" font-family="Helvetica,sans-Serif" font-size="10.00"> DenseMapInfo&lt; Value *</text>
<text xml:space="preserve" text-anchor="middle" x="904.62" y="-319.45" font-family="Helvetica,sans-Serif" font-size="10.00"> &gt;, LoadMapAllocator &gt;</text>
</a>
</g>
</g>
<!-- Node1&#45;&gt;Node8 -->
<g id="edge7_Node000001_Node000008" class="edge">
<title>Node1&#45;&gt;Node8</title>
<g id="a_edge7_Node000001_Node000008"><a xlink:title=" ">
<path fill="none" stroke="orange" stroke-dasharray="5,2" d="M580.67,-263.13C596.39,-279.9 619.69,-301.21 645,-312.2 679.38,-327.14 777.92,-334.48 842.95,-337.79"/>
<polygon fill="orange" stroke="orange" points="583.5,-261.04 574.19,-255.98 578.31,-265.74 583.5,-261.04"/>
</a>
</g>
<text xml:space="preserve" text-anchor="start" x="667.5" y="-370.57" font-family="Helvetica,sans-Serif" font-size="10.00" fill="grey">&lt; Value *, LoadValue,</text>
<text xml:space="preserve" text-anchor="start" x="667.5" y="-355.32" font-family="Helvetica,sans-Serif" font-size="10.00" fill="grey">   DenseMapInfo&lt; Value</text>
<text xml:space="preserve" text-anchor="start" x="667.5" y="-340.07" font-family="Helvetica,sans-Serif" font-size="10.00" fill="grey">   * &gt;, LoadMapAllocator &gt;</text>
</g>
<!-- Node9 -->
<g id="Node000009" class="node">
<title>Node9</title>
<g id="a_Node000009"><a xlink:href="classllvm_1_1ScopedHashTable.html" target="_top" xlink:title=" ">
<polygon fill="white" stroke="#666666" points="986.5,-295.7 822.75,-295.7 822.75,-242.7 986.5,-242.7 986.5,-295.7"/>
<text xml:space="preserve" text-anchor="start" x="830.75" y="-282.2" font-family="Helvetica,sans-Serif" font-size="10.00">llvm::ScopedHashTable</text>
<text xml:space="preserve" text-anchor="start" x="830.75" y="-270.95" font-family="Helvetica,sans-Serif" font-size="10.00">&lt; MemoryLocation, unsigned,</text>
<text xml:space="preserve" text-anchor="start" x="830.75" y="-259.7" font-family="Helvetica,sans-Serif" font-size="10.00"> DenseMapInfo&lt; MemoryLocation</text>
<text xml:space="preserve" text-anchor="middle" x="904.62" y="-248.45" font-family="Helvetica,sans-Serif" font-size="10.00"> &gt;, InvariantMapAllocator &gt;</text>
</a>
</g>
</g>
<!-- Node1&#45;&gt;Node9 -->
<g id="edge8_Node000001_Node000009" class="edge">
<title>Node1&#45;&gt;Node9</title>
<g id="a_edge8_Node000001_Node000009"><a xlink:title=" ">
<path fill="none" stroke="orange" stroke-dasharray="5,2" d="M638.74,-246.64C640.85,-246.83 642.94,-247.02 645,-247.2 704.36,-252.53 771.41,-258.23 822.36,-262.49"/>
<polygon fill="orange" stroke="orange" points="639.14,-243.16 628.86,-245.73 638.5,-250.13 639.14,-243.16"/>
</a>
</g>
<text xml:space="preserve" text-anchor="start" x="648" y="-295.76" font-family="Helvetica,sans-Serif" font-size="10.00" fill="grey">&lt; MemoryLocation, unsigned,</text>
<text xml:space="preserve" text-anchor="start" x="648" y="-280.51" font-family="Helvetica,sans-Serif" font-size="10.00" fill="grey">   DenseMapInfo&lt; MemoryLocation</text>
<text xml:space="preserve" text-anchor="start" x="648" y="-265.26" font-family="Helvetica,sans-Serif" font-size="10.00" fill="grey">   &gt;, InvariantMapAllocator &gt;</text>
</g>
<!-- Node10 -->
<g id="Node000010" class="node">
<title>Node10</title>
<g id="a_Node000010"><a xlink:href="classllvm_1_1ScopedHashTable.html" target="_top" xlink:title=" ">
<polygon fill="white" stroke="#666666" points="974.88,-225.08 834.38,-225.08 834.38,-183.33 974.88,-183.33 974.88,-225.08"/>
<text xml:space="preserve" text-anchor="start" x="842.38" y="-211.58" font-family="Helvetica,sans-Serif" font-size="10.00">llvm::ScopedHashTable</text>
<text xml:space="preserve" text-anchor="start" x="842.38" y="-200.33" font-family="Helvetica,sans-Serif" font-size="10.00">&lt; CallValue, std::pair</text>
<text xml:space="preserve" text-anchor="middle" x="904.62" y="-189.08" font-family="Helvetica,sans-Serif" font-size="10.00">&lt; Instruction *, unsigned &gt; &gt;</text>
</a>
</g>
</g>
<!-- Node1&#45;&gt;Node10 -->
<g id="edge9_Node000001_Node000010" class="edge">
<title>Node1&#45;&gt;Node10</title>
<g id="a_edge9_Node000001_Node000010"><a xlink:title=" ">
<path fill="none" stroke="orange" stroke-dasharray="5,2" d="M609.6,-219.87C621.05,-216.15 633.32,-212.77 645,-210.7 708.25,-199.52 781.53,-198.81 833.91,-200.35"/>
<polygon fill="orange" stroke="orange" points="608.69,-216.48 600.35,-223.02 610.95,-223.11 608.69,-216.48"/>
</a>
</g>
<text xml:space="preserve" text-anchor="start" x="659.62" y="-230.7" font-family="Helvetica,sans-Serif" font-size="10.00" fill="grey">&lt; CallValue, std::pair</text>
<text xml:space="preserve" text-anchor="start" x="659.62" y="-215.45" font-family="Helvetica,sans-Serif" font-size="10.00" fill="grey">  &lt; Instruction *, unsigned &gt; &gt;</text>
</g>
<!-- Node11 -->
<g id="Node000011" class="node">
<title>Node11</title>
<g id="a_Node000011"><a xlink:href="classllvm_1_1ScopedHashTable.html" target="_top" xlink:title=" ">
<polygon fill="white" stroke="#666666" points="973,-165.7 836.25,-165.7 836.25,-112.7 973,-112.7 973,-165.7"/>
<text xml:space="preserve" text-anchor="start" x="844.25" y="-152.2" font-family="Helvetica,sans-Serif" font-size="10.00">llvm::ScopedHashTable</text>
<text xml:space="preserve" text-anchor="start" x="844.25" y="-140.95" font-family="Helvetica,sans-Serif" font-size="10.00">&lt; GEPValue, Value *,</text>
<text xml:space="preserve" text-anchor="start" x="844.25" y="-129.7" font-family="Helvetica,sans-Serif" font-size="10.00"> DenseMapInfo&lt; GEPValue</text>
<text xml:space="preserve" text-anchor="middle" x="904.62" y="-118.45" font-family="Helvetica,sans-Serif" font-size="10.00"> &gt;, GEPMapAllocatorTy &gt;</text>
</a>
</g>
</g>
<!-- Node1&#45;&gt;Node11 -->
<g id="edge10_Node000001_Node000011" class="edge">
<title>Node1&#45;&gt;Node11</title>
<g id="a_edge10_Node000001_Node000011"><a xlink:title=" ">
<path fill="none" stroke="orange" stroke-dasharray="5,2" d="M575.69,-213.88C590.43,-192.14 614.88,-162.2 645,-148.45 705.19,-120.99 781.7,-122.06 835.85,-127.93"/>
<polygon fill="orange" stroke="orange" points="572.78,-211.94 570.27,-222.23 578.65,-215.75 572.78,-211.94"/>
</a>
</g>
<text xml:space="preserve" text-anchor="start" x="661.5" y="-183.7" font-family="Helvetica,sans-Serif" font-size="10.00" fill="grey">&lt; GEPValue, Value *,</text>
<text xml:space="preserve" text-anchor="start" x="661.5" y="-168.45" font-family="Helvetica,sans-Serif" font-size="10.00" fill="grey">   DenseMapInfo&lt; GEPValue</text>
<text xml:space="preserve" text-anchor="start" x="661.5" y="-153.2" font-family="Helvetica,sans-Serif" font-size="10.00" fill="grey">   &gt;, GEPMapAllocatorTy &gt;</text>
</g>
<!-- Node12 -->
<g id="Node000012" class="node">
<title>Node12</title>
<g id="a_Node000012"><a xlink:href="classllvm_1_1ScopedHashTable.html" target="_top" xlink:title=" ">
<polygon fill="white" stroke="#666666" points="976.38,-94.45 832.88,-94.45 832.88,-63.95 976.38,-63.95 976.38,-94.45"/>
<text xml:space="preserve" text-anchor="start" x="840.88" y="-80.95" font-family="Helvetica,sans-Serif" font-size="10.00">llvm::ScopedHashTable</text>
<text xml:space="preserve" text-anchor="middle" x="904.62" y="-69.7" font-family="Helvetica,sans-Serif" font-size="10.00">&lt; constSCEV *, LoadValue &gt;</text>
</a>
</g>
</g>
<!-- Node1&#45;&gt;Node12 -->
<g id="edge11_Node000001_Node000012" class="edge">
<title>Node1&#45;&gt;Node12</title>
<g id="a_edge11_Node000001_Node000012"><a xlink:title=" ">
<path fill="none" stroke="orange" stroke-dasharray="5,2" d="M568.59,-212.89C580.09,-180.91 604.28,-128.11 645,-102.95 701.01,-68.36 777.25,-65.5 832.43,-69.43"/>
<polygon fill="orange" stroke="orange" points="565.33,-211.62 565.41,-222.21 571.95,-213.88 565.33,-211.62"/>
</a>
</g>
<text xml:space="preserve" text-anchor="start" x="661.12" y="-107.7" font-family="Helvetica,sans-Serif" font-size="10.00" fill="grey">&lt; constSCEV *, LoadValue &gt;</text>
</g>
<!-- Node13 -->
<g id="Node000013" class="node">
<title>Node13</title>
<g id="a_Node000013"><a xlink:href="classllvm_1_1ScopedHashTable.html" target="_top" xlink:title=" ">
<polygon fill="white" stroke="#666666" points="965.88,-45.08 843.38,-45.08 843.38,-3.33 965.88,-3.33 965.88,-45.08"/>
<text xml:space="preserve" text-anchor="start" x="851.38" y="-31.58" font-family="Helvetica,sans-Serif" font-size="10.00">llvm::ScopedHashTable</text>
<text xml:space="preserve" text-anchor="start" x="851.38" y="-20.33" font-family="Helvetica,sans-Serif" font-size="10.00">&lt; K, V, DenseMapInfo</text>
<text xml:space="preserve" text-anchor="middle" x="904.62" y="-9.08" font-family="Helvetica,sans-Serif" font-size="10.00">&lt; K &gt;, MallocAllocator &gt;</text>
</a>
</g>
</g>
<!-- Node1&#45;&gt;Node13 -->
<g id="edge12_Node000001_Node000013" class="edge">
<title>Node1&#45;&gt;Node13</title>
<g id="a_edge12_Node000001_Node000013"><a xlink:title=" ">
<path fill="none" stroke="orange" stroke-dasharray="5,2" d="M562.37,-212.06C567.39,-165.99 584.82,-73.43 645,-31.7 702.77,8.35 786.56,2.24 842.97,-8.57"/>
<polygon fill="orange" stroke="orange" points="558.89,-211.69 561.43,-221.98 565.86,-212.36 558.89,-211.69"/>
</a>
</g>
<text xml:space="preserve" text-anchor="start" x="668.62" y="-51.7" font-family="Helvetica,sans-Serif" font-size="10.00" fill="grey">&lt; K, V, DenseMapInfo</text>
<text xml:space="preserve" text-anchor="start" x="668.62" y="-36.45" font-family="Helvetica,sans-Serif" font-size="10.00" fill="grey">  &lt; K &gt;, MallocAllocator &gt;</text>
</g>
<!-- Node2 -->
<g id="Node000002" class="node">
<title>Node2</title>
<g id="a_Node000002"><a xlink:href="classllvm_1_1detail_1_1AllocatorHolder.html" target="_top" xlink:title=" ">
<polygon fill="white" stroke="#666666" points="454.75,-254.45 318.75,-254.45 318.75,-223.95 454.75,-223.95 454.75,-254.45"/>
<text xml:space="preserve" text-anchor="start" x="326.75" y="-240.95" font-family="Helvetica,sans-Serif" font-size="10.00">llvm::detail::AllocatorHolder</text>
<text xml:space="preserve" text-anchor="middle" x="386.75" y="-229.7" font-family="Helvetica,sans-Serif" font-size="10.00">&lt; AllocatorTy &gt;</text>
</a>
</g>
</g>
<!-- Node2&#45;&gt;Node1 -->
<g id="edge1_Node000001_Node000002" class="edge">
<title>Node2&#45;&gt;Node1</title>
<g id="a_edge1_Node000001_Node000002"><a xlink:title=" ">
<path fill="none" stroke="#8b1a1a" d="M466.48,-239.2C474.82,-239.2 483.24,-239.2 491.43,-239.2"/>
<polygon fill="#8b1a1a" stroke="#8b1a1a" points="466.7,-235.7 456.7,-239.2 466.7,-242.7 466.7,-235.7"/>
</a>
</g>
</g>
<!-- Node3 -->
<g id="Node000003" class="node">
<title>Node3</title>
<g id="a_Node000003"><a xlink:title=" ">
<polygon fill="white" stroke="#666666" points="175.12,-269.83 110.38,-269.83 110.38,-250.58 175.12,-250.58 175.12,-269.83"/>
<text xml:space="preserve" text-anchor="middle" x="142.75" y="-256.33" font-family="Helvetica,sans-Serif" font-size="10.00">AllocatorTy</text>
</a>
</g>
</g>
<!-- Node3&#45;&gt;Node2 -->
<g id="edge2_Node000002_Node000003" class="edge">
<title>Node3&#45;&gt;Node2</title>
<g id="a_edge2_Node000002_Node000003"><a xlink:title=" ">
<path fill="none" stroke="#8b1a1a" d="M186.62,-256.48C223.14,-253.32 276.23,-248.71 318.41,-245.05"/>
<polygon fill="#8b1a1a" stroke="#8b1a1a" points="186.56,-252.98 176.9,-257.33 187.16,-259.95 186.56,-252.98"/>
</a>
</g>
</g>
<!-- Node4 -->
<g id="Node000004" class="node">
<title>Node4</title>
<g id="a_Node000004"><a xlink:href="classllvm_1_1detail_1_1AllocatorHolder.html" target="_top" xlink:title=" ">
<polygon fill="white" stroke="#666666" points="210.75,-232.45 74.75,-232.45 74.75,-201.95 210.75,-201.95 210.75,-232.45"/>
<text xml:space="preserve" text-anchor="start" x="82.75" y="-218.95" font-family="Helvetica,sans-Serif" font-size="10.00">llvm::detail::AllocatorHolder</text>
<text xml:space="preserve" text-anchor="middle" x="142.75" y="-207.7" font-family="Helvetica,sans-Serif" font-size="10.00">&lt; Alloc &gt;</text>
</a>
</g>
</g>
<!-- Node4&#45;&gt;Node2 -->
<g id="edge3_Node000002_Node000004" class="edge">
<title>Node4&#45;&gt;Node2</title>
<g id="a_edge3_Node000002_Node000004"><a xlink:title=" ">
<path fill="none" stroke="orange" stroke-dasharray="5,2" d="M222.43,-219.29C247.51,-220.43 275.34,-222.21 300.75,-224.95 306.55,-225.58 312.56,-226.35 318.57,-227.2"/>
<polygon fill="orange" stroke="orange" points="222.77,-215.8 212.63,-218.87 222.47,-222.79 222.77,-215.8"/>
</a>
</g>
<text xml:space="preserve" text-anchor="start" x="231.75" y="-229.7" font-family="Helvetica,sans-Serif" font-size="10.00" fill="grey">&lt; AllocatorTy &gt;</text>
</g>
<!-- Node5 -->
<g id="Node000005" class="node">
<title>Node5</title>
<g id="a_Node000005"><a xlink:title=" ">
<polygon fill="white" stroke="#666666" points="37.75,-226.83 0,-226.83 0,-207.58 37.75,-207.58 37.75,-226.83"/>
<text xml:space="preserve" text-anchor="middle" x="18.88" y="-213.33" font-family="Helvetica,sans-Serif" font-size="10.00">Alloc</text>
</a>
</g>
</g>
<!-- Node5&#45;&gt;Node4 -->
<g id="edge4_Node000004_Node000005" class="edge">
<title>Node5&#45;&gt;Node4</title>
<g id="a_edge4_Node000004_Node000005"><a xlink:title=" ">
<path fill="none" stroke="#8b1a1a" d="M49.56,-217.2C57.15,-217.2 65.62,-217.2 74.26,-217.2"/>
<polygon fill="#8b1a1a" stroke="#8b1a1a" points="49.63,-213.7 39.63,-217.2 49.63,-220.7 49.63,-213.7"/>
</a>
</g>
</g>
</g>
</svg>
