<?xml version="1.0" encoding="UTF-8" standalone="no"?>
<!DOCTYPE svg PUBLIC "-//W3C//DTD SVG 1.1//EN"
 "http://www.w3.org/Graphics/SVG/1.1/DTD/svg11.dtd">
<!-- Generated by graphviz version 13.1.2 (20250808.2320)
 -->
<!-- Title: llvm::XtensaConstantPoolValue Pages: 1 -->
<svg width="498pt" height="174pt"
 viewBox="0.00 0.00 498.00 174.00" xmlns="http://www.w3.org/2000/svg" xmlns:xlink="http://www.w3.org/1999/xlink">
<g id="graph0" class="graph" transform="scale(1 1) rotate(0) translate(4 169.5)">
<title>llvm::XtensaConstantPoolValue</title>
<!-- Node1 -->
<g id="Node000001" class="node">
<title>Node1</title>
<g id="a_Node000001"><a xlink:title="XtensaConstantPoolValue &#45; Xtensa specific constantpool value.">
<polygon fill="#999999" stroke="#666666" points="302,-94.5 172,-94.5 172,-64 302,-64 302,-94.5"/>
<text xml:space="preserve" text-anchor="start" x="180" y="-81" font-family="Helvetica,sans-Serif" font-size="10.00">llvm::XtensaConstantPool</text>
<text xml:space="preserve" text-anchor="middle" x="237" y="-69.75" font-family="Helvetica,sans-Serif" font-size="10.00">Value</text>
</a>
</g>
</g>
<!-- Node3 -->
<g id="Node000003" class="node">
<title>Node3</title>
<g id="a_Node000003"><a xlink:href="classllvm_1_1XtensaConstantPoolConstant.html" target="_top" xlink:title="XtensaConstantPoolConstant &#45; Xtensa&#45;specific constant pool values for Constants (for example BlockAdd...">
<polygon fill="white" stroke="#666666" points="478.88,-165.5 348.88,-165.5 348.88,-135 478.88,-135 478.88,-165.5"/>
<text xml:space="preserve" text-anchor="start" x="356.88" y="-152" font-family="Helvetica,sans-Serif" font-size="10.00">llvm::XtensaConstantPool</text>
<text xml:space="preserve" text-anchor="middle" x="413.88" y="-140.75" font-family="Helvetica,sans-Serif" font-size="10.00">Constant</text>
</a>
</g>
</g>
<!-- Node1&#45;&gt;Node3 -->
<g id="edge2_Node000001_Node000003" class="edge">
<title>Node1&#45;&gt;Node3</title>
<g id="a_edge2_Node000001_Node000003"><a xlink:title=" ">
<path fill="none" stroke="#63b8ff" d="M279.64,-99.64C297.43,-108.02 318.54,-117.55 338,-125.25 346.16,-128.48 354.91,-131.65 363.46,-134.6"/>
<polygon fill="#63b8ff" stroke="#63b8ff" points="281.49,-96.64 270.96,-95.51 278.49,-102.96 281.49,-96.64"/>
</a>
</g>
</g>
<!-- Node4 -->
<g id="Node000004" class="node">
<title>Node4</title>
<g id="a_Node000004"><a xlink:href="classllvm_1_1XtensaConstantPoolJumpTable.html" target="_top" xlink:title="XtensaConstantPoolJumpTable &#45; Xtensa&#45;specific constantpool values for Jump Table symbols.">
<polygon fill="white" stroke="#666666" points="478.88,-116.5 348.88,-116.5 348.88,-86 478.88,-86 478.88,-116.5"/>
<text xml:space="preserve" text-anchor="start" x="356.88" y="-103" font-family="Helvetica,sans-Serif" font-size="10.00">llvm::XtensaConstantPool</text>
<text xml:space="preserve" text-anchor="middle" x="413.88" y="-91.75" font-family="Helvetica,sans-Serif" font-size="10.00">JumpTable</text>
</a>
</g>
</g>
<!-- Node1&#45;&gt;Node4 -->
<g id="edge3_Node000001_Node000004" class="edge">
<title>Node1&#45;&gt;Node4</title>
<g id="a_edge3_Node000001_Node000004"><a xlink:title=" ">
<path fill="none" stroke="#63b8ff" d="M313.25,-88.72C324.98,-90.19 337.01,-91.71 348.47,-93.15"/>
<polygon fill="#63b8ff" stroke="#63b8ff" points="313.98,-85.28 303.63,-87.51 313.11,-92.23 313.98,-85.28"/>
</a>
</g>
</g>
<!-- Node5 -->
<g id="Node000005" class="node">
<title>Node5</title>
<g id="a_Node000005"><a xlink:href="classllvm_1_1XtensaConstantPoolMBB.html" target="_top" xlink:title="XtensaConstantPoolMBB &#45; Xtensa&#45;specific constantpool value of a machine basic block.">
<polygon fill="white" stroke="#666666" points="489.75,-67.88 338,-67.88 338,-48.62 489.75,-48.62 489.75,-67.88"/>
<text xml:space="preserve" text-anchor="middle" x="413.88" y="-54.38" font-family="Helvetica,sans-Serif" font-size="10.00">llvm::XtensaConstantPoolMBB</text>
</a>
</g>
</g>
<!-- Node1&#45;&gt;Node5 -->
<g id="edge4_Node000001_Node000005" class="edge">
<title>Node1&#45;&gt;Node5</title>
<g id="a_edge4_Node000001_Node000005"><a xlink:title=" ">
<path fill="none" stroke="#63b8ff" d="M313.42,-70.19C321.5,-69.22 329.72,-68.24 337.79,-67.27"/>
<polygon fill="#63b8ff" stroke="#63b8ff" points="313.14,-66.7 303.63,-71.37 313.97,-73.65 313.14,-66.7"/>
</a>
</g>
</g>
<!-- Node6 -->
<g id="Node000006" class="node">
<title>Node6</title>
<g id="a_Node000006"><a xlink:href="classllvm_1_1XtensaConstantPoolSymbol.html" target="_top" xlink:title="XtensaConstantPoolSymbol &#45; Xtensa&#45;specific constantpool values for external symbols.">
<polygon fill="white" stroke="#666666" points="478.88,-30.5 348.88,-30.5 348.88,0 478.88,0 478.88,-30.5"/>
<text xml:space="preserve" text-anchor="start" x="356.88" y="-17" font-family="Helvetica,sans-Serif" font-size="10.00">llvm::XtensaConstantPool</text>
<text xml:space="preserve" text-anchor="middle" x="413.88" y="-5.75" font-family="Helvetica,sans-Serif" font-size="10.00">Symbol</text>
</a>
</g>
</g>
<!-- Node1&#45;&gt;Node6 -->
<g id="edge5_Node000001_Node000006" class="edge">
<title>Node1&#45;&gt;Node6</title>
<g id="a_edge5_Node000001_Node000006"><a xlink:title=" ">
<path fill="none" stroke="#63b8ff" d="M285.75,-59.36C302.21,-52.71 320.82,-45.43 338,-39.25 345.84,-36.43 354.19,-33.59 362.37,-30.9"/>
<polygon fill="#63b8ff" stroke="#63b8ff" points="284.62,-56.04 276.68,-63.05 287.26,-62.52 284.62,-56.04"/>
</a>
</g>
</g>
<!-- Node2 -->
<g id="Node000002" class="node">
<title>Node2</title>
<g id="a_Node000002"><a xlink:href="classllvm_1_1MachineConstantPoolValue.html" target="_top" xlink:title="Abstract base class for all machine specific constantpool value subclasses.">
<polygon fill="white" stroke="#666666" points="136,-94.5 0,-94.5 0,-64 136,-64 136,-94.5"/>
<text xml:space="preserve" text-anchor="start" x="8" y="-81" font-family="Helvetica,sans-Serif" font-size="10.00">llvm::MachineConstantPool</text>
<text xml:space="preserve" text-anchor="middle" x="68" y="-69.75" font-family="Helvetica,sans-Serif" font-size="10.00">Value</text>
</a>
</g>
</g>
<!-- Node2&#45;&gt;Node1 -->
<g id="edge1_Node000001_Node000002" class="edge">
<title>Node2&#45;&gt;Node1</title>
<g id="a_edge1_Node000001_Node000002"><a xlink:title=" ">
<path fill="none" stroke="#63b8ff" d="M147.96,-79.25C155.86,-79.25 163.82,-79.25 171.55,-79.25"/>
<polygon fill="#63b8ff" stroke="#63b8ff" points="147.96,-75.75 137.96,-79.25 147.96,-82.75 147.96,-75.75"/>
</a>
</g>
</g>
</g>
</svg>
