<?xml version="1.0" encoding="UTF-8" standalone="no"?>
<!DOCTYPE svg PUBLIC "-//W3C//DTD SVG 1.1//EN"
 "http://www.w3.org/Graphics/SVG/1.1/DTD/svg11.dtd">
<!-- Generated by graphviz version 13.1.2 (20250808.2320)
 -->
<!-- Title: llvm::GenericSchedulerBase Pages: 1 -->
<svg width="891pt" height="193pt"
 viewBox="0.00 0.00 891.00 193.00" xmlns="http://www.w3.org/2000/svg" xmlns:xlink="http://www.w3.org/1999/xlink">
<g id="graph0" class="graph" transform="scale(1 1) rotate(0) translate(4 189.25)">
<title>llvm::GenericSchedulerBase</title>
<!-- Node1 -->
<g id="Node000001" class="node">
<title>Node1</title>
<g id="a_Node000001"><a xlink:title="Base class for GenericScheduler.">
<polygon fill="#999999" stroke="#666666" points="317,-83.25 177.25,-83.25 177.25,-64 317,-64 317,-83.25"/>
<text xml:space="preserve" text-anchor="middle" x="247.12" y="-69.75" font-family="Helvetica,sans-Serif" font-size="10.00">llvm::GenericSchedulerBase</text>
</a>
</g>
</g>
<!-- Node3 -->
<g id="Node000003" class="node">
<title>Node3</title>
<g id="a_Node000003"><a xlink:href="classllvm_1_1GenericScheduler.html" target="_top" xlink:title="GenericScheduler shrinks the unscheduled zone using heuristics to balance the schedule.">
<polygon fill="white" stroke="#666666" points="480.38,-105.25 363.12,-105.25 363.12,-86 480.38,-86 480.38,-105.25"/>
<text xml:space="preserve" text-anchor="middle" x="421.75" y="-91.75" font-family="Helvetica,sans-Serif" font-size="10.00">llvm::GenericScheduler</text>
</a>
</g>
</g>
<!-- Node1&#45;&gt;Node3 -->
<g id="edge2_Node000001_Node000003" class="edge">
<title>Node1&#45;&gt;Node3</title>
<g id="a_edge2_Node000001_Node000003"><a xlink:title=" ">
<path fill="none" stroke="#63b8ff" d="M328.42,-83.86C340.04,-85.34 351.81,-86.84 362.88,-88.25"/>
<polygon fill="#63b8ff" stroke="#63b8ff" points="329.21,-80.43 318.84,-82.64 328.32,-87.37 329.21,-80.43"/>
</a>
</g>
</g>
<!-- Node9 -->
<g id="Node000009" class="node">
<title>Node9</title>
<g id="a_Node000009"><a xlink:href="classllvm_1_1PostGenericScheduler.html" target="_top" xlink:title="PostGenericScheduler &#45; Interface to the scheduling algorithm used by ScheduleDAGMI.">
<polygon fill="white" stroke="#666666" points="490.5,-62.25 353,-62.25 353,-43 490.5,-43 490.5,-62.25"/>
<text xml:space="preserve" text-anchor="middle" x="421.75" y="-48.75" font-family="Helvetica,sans-Serif" font-size="10.00">llvm::PostGenericScheduler</text>
</a>
</g>
</g>
<!-- Node1&#45;&gt;Node9 -->
<g id="edge8_Node000001_Node000009" class="edge">
<title>Node1&#45;&gt;Node9</title>
<g id="a_edge8_Node000001_Node000009"><a xlink:title=" ">
<path fill="none" stroke="#63b8ff" d="M328.62,-63.83C336.66,-62.86 344.75,-61.87 352.64,-60.91"/>
<polygon fill="#63b8ff" stroke="#63b8ff" points="328.35,-60.34 318.85,-65.02 329.2,-67.29 328.35,-60.34"/>
</a>
</g>
</g>
<!-- Node2 -->
<g id="Node000002" class="node">
<title>Node2</title>
<g id="a_Node000002"><a xlink:href="classllvm_1_1MachineSchedStrategy.html" target="_top" xlink:title="MachineSchedStrategy &#45; Interface to the scheduling algorithm used by ScheduleDAGMI.">
<polygon fill="white" stroke="#666666" points="141.25,-83.25 0,-83.25 0,-64 141.25,-64 141.25,-83.25"/>
<text xml:space="preserve" text-anchor="middle" x="70.62" y="-69.75" font-family="Helvetica,sans-Serif" font-size="10.00">llvm::MachineSchedStrategy</text>
</a>
</g>
</g>
<!-- Node2&#45;&gt;Node1 -->
<g id="edge1_Node000001_Node000002" class="edge">
<title>Node2&#45;&gt;Node1</title>
<g id="a_edge1_Node000001_Node000002"><a xlink:title=" ">
<path fill="none" stroke="#63b8ff" d="M152.91,-73.62C160.96,-73.62 169.08,-73.62 176.99,-73.62"/>
<polygon fill="#63b8ff" stroke="#63b8ff" points="153.11,-70.13 143.11,-73.63 153.11,-77.13 153.11,-70.13"/>
</a>
</g>
</g>
<!-- Node4 -->
<g id="Node000004" class="node">
<title>Node4</title>
<g id="a_Node000004"><a xlink:href="classllvm_1_1GCNSchedStrategy.html" target="_top" xlink:title="This is a minimal scheduler strategy.">
<polygon fill="white" stroke="#666666" points="670,-142.25 543,-142.25 543,-123 670,-123 670,-142.25"/>
<text xml:space="preserve" text-anchor="middle" x="606.5" y="-128.75" font-family="Helvetica,sans-Serif" font-size="10.00">llvm::GCNSchedStrategy</text>
</a>
</g>
</g>
<!-- Node3&#45;&gt;Node4 -->
<g id="edge3_Node000003_Node000004" class="edge">
<title>Node3&#45;&gt;Node4</title>
<g id="a_edge3_Node000003_Node000004"><a xlink:title=" ">
<path fill="none" stroke="#63b8ff" d="M483.87,-108C507.19,-112.72 533.47,-118.04 555.62,-122.53"/>
<polygon fill="#63b8ff" stroke="#63b8ff" points="484.67,-104.59 474.17,-106.04 483.28,-111.45 484.67,-104.59"/>
</a>
</g>
</g>
<!-- Node8 -->
<g id="Node000008" class="node">
<title>Node8</title>
<g id="a_Node000008"><a xlink:href="classllvm_1_1PPCPreRASchedStrategy.html" target="_top" xlink:title="A MachineSchedStrategy implementation for PowerPC pre RA scheduling.">
<polygon fill="white" stroke="#666666" points="683.88,-105.25 529.12,-105.25 529.12,-86 683.88,-86 683.88,-105.25"/>
<text xml:space="preserve" text-anchor="middle" x="606.5" y="-91.75" font-family="Helvetica,sans-Serif" font-size="10.00">llvm::PPCPreRASchedStrategy</text>
</a>
</g>
</g>
<!-- Node3&#45;&gt;Node8 -->
<g id="edge7_Node000003_Node000008" class="edge">
<title>Node3&#45;&gt;Node8</title>
<g id="a_edge7_Node000003_Node000008"><a xlink:title=" ">
<path fill="none" stroke="#63b8ff" d="M492.13,-95.62C504.13,-95.62 516.67,-95.62 528.85,-95.62"/>
<polygon fill="#63b8ff" stroke="#63b8ff" points="492.34,-92.13 482.34,-95.63 492.34,-99.13 492.34,-92.13"/>
</a>
</g>
</g>
<!-- Node5 -->
<g id="Node000005" class="node">
<title>Node5</title>
<g id="a_Node000005"><a xlink:href="classllvm_1_1GCNMaxILPSchedStrategy.html" target="_top" xlink:title="The goal of this scheduling strategy is to maximize ILP for a single wave (i.e.">
<polygon fill="white" stroke="#666666" points="883.25,-185.25 722.5,-185.25 722.5,-166 883.25,-166 883.25,-185.25"/>
<text xml:space="preserve" text-anchor="middle" x="802.88" y="-171.75" font-family="Helvetica,sans-Serif" font-size="10.00">llvm::GCNMaxILPSchedStrategy</text>
</a>
</g>
</g>
<!-- Node4&#45;&gt;Node5 -->
<g id="edge4_Node000004_Node000005" class="edge">
<title>Node4&#45;&gt;Node5</title>
<g id="a_edge4_Node000004_Node000005"><a xlink:title=" ">
<path fill="none" stroke="#63b8ff" d="M663.99,-145.12C693.32,-151.61 728.68,-159.43 756.25,-165.53"/>
<polygon fill="#63b8ff" stroke="#63b8ff" points="665.07,-141.78 654.55,-143.03 663.56,-148.61 665.07,-141.78"/>
</a>
</g>
</g>
<!-- Node6 -->
<g id="Node000006" class="node">
<title>Node6</title>
<g id="a_Node000006"><a xlink:href="classllvm_1_1GCNMaxMemoryClauseSchedStrategy.html" target="_top" xlink:title="The goal of this scheduling strategy is to maximize memory clause for a single wave.">
<polygon fill="white" stroke="#666666" points="876.5,-147.88 729.25,-147.88 729.25,-117.38 876.5,-117.38 876.5,-147.88"/>
<text xml:space="preserve" text-anchor="start" x="737.25" y="-134.38" font-family="Helvetica,sans-Serif" font-size="10.00">llvm::GCNMaxMemoryClause</text>
<text xml:space="preserve" text-anchor="middle" x="802.88" y="-123.12" font-family="Helvetica,sans-Serif" font-size="10.00">SchedStrategy</text>
</a>
</g>
</g>
<!-- Node4&#45;&gt;Node6 -->
<g id="edge5_Node000004_Node000006" class="edge">
<title>Node4&#45;&gt;Node6</title>
<g id="a_edge5_Node000004_Node000006"><a xlink:title=" ">
<path fill="none" stroke="#63b8ff" d="M681.45,-132.62C696.96,-132.62 713.3,-132.62 728.77,-132.62"/>
<polygon fill="#63b8ff" stroke="#63b8ff" points="681.85,-129.13 671.85,-132.63 681.85,-136.13 681.85,-129.13"/>
</a>
</g>
</g>
<!-- Node7 -->
<g id="Node000007" class="node">
<title>Node7</title>
<g id="a_Node000007"><a xlink:href="classllvm_1_1GCNMaxOccupancySchedStrategy.html" target="_top" xlink:title="The goal of this scheduling strategy is to maximize kernel occupancy (i.e.">
<polygon fill="white" stroke="#666666" points="882.12,-98.88 723.62,-98.88 723.62,-68.38 882.12,-68.38 882.12,-98.88"/>
<text xml:space="preserve" text-anchor="start" x="731.62" y="-85.38" font-family="Helvetica,sans-Serif" font-size="10.00">llvm::GCNMaxOccupancySched</text>
<text xml:space="preserve" text-anchor="middle" x="802.88" y="-74.12" font-family="Helvetica,sans-Serif" font-size="10.00">Strategy</text>
</a>
</g>
</g>
<!-- Node4&#45;&gt;Node7 -->
<g id="edge6_Node000004_Node000007" class="edge">
<title>Node4&#45;&gt;Node7</title>
<g id="a_edge6_Node000004_Node000007"><a xlink:title=" ">
<path fill="none" stroke="#63b8ff" d="M664.06,-120.02C671.62,-118.25 679.25,-116.42 686.5,-114.62 705.62,-109.88 726.44,-104.39 745.06,-99.35"/>
<polygon fill="#63b8ff" stroke="#63b8ff" points="663.53,-116.54 654.58,-122.21 665.11,-123.36 663.53,-116.54"/>
</a>
</g>
</g>
<!-- Node10 -->
<g id="Node000010" class="node">
<title>Node10</title>
<g id="a_Node000010"><a xlink:href="classllvm_1_1AArch64PostRASchedStrategy.html" target="_top" xlink:title="A MachineSchedStrategy implementation for AArch64 post RA scheduling.">
<polygon fill="white" stroke="#666666" points="676.38,-67.88 536.62,-67.88 536.62,-37.38 676.38,-37.38 676.38,-67.88"/>
<text xml:space="preserve" text-anchor="start" x="544.62" y="-54.38" font-family="Helvetica,sans-Serif" font-size="10.00">llvm::AArch64PostRASched</text>
<text xml:space="preserve" text-anchor="middle" x="606.5" y="-43.12" font-family="Helvetica,sans-Serif" font-size="10.00">Strategy</text>
</a>
</g>
</g>
<!-- Node9&#45;&gt;Node10 -->
<g id="edge9_Node000009_Node000010" class="edge">
<title>Node9&#45;&gt;Node10</title>
<g id="a_edge9_Node000009_Node000010"><a xlink:title=" ">
<path fill="none" stroke="#63b8ff" d="M502.05,-52.62C513.41,-52.62 525.03,-52.62 536.17,-52.62"/>
<polygon fill="#63b8ff" stroke="#63b8ff" points="502.31,-49.13 492.31,-52.63 502.31,-56.13 502.31,-49.13"/>
</a>
</g>
</g>
<!-- Node11 -->
<g id="Node000011" class="node">
<title>Node11</title>
<g id="a_Node000011"><a xlink:href="classllvm_1_1PPCPostRASchedStrategy.html" target="_top" xlink:title="A MachineSchedStrategy implementation for PowerPC post RA scheduling.">
<polygon fill="white" stroke="#666666" points="686.5,-19.25 526.5,-19.25 526.5,0 686.5,0 686.5,-19.25"/>
<text xml:space="preserve" text-anchor="middle" x="606.5" y="-5.75" font-family="Helvetica,sans-Serif" font-size="10.00">llvm::PPCPostRASchedStrategy</text>
</a>
</g>
</g>
<!-- Node9&#45;&gt;Node11 -->
<g id="edge10_Node000009_Node000011" class="edge">
<title>Node9&#45;&gt;Node11</title>
<g id="a_edge10_Node000009_Node000011"><a xlink:title=" ">
<path fill="none" stroke="#63b8ff" d="M476.59,-39.96C504.02,-33.5 536.91,-25.76 562.61,-19.72"/>
<polygon fill="#63b8ff" stroke="#63b8ff" points="476,-36.5 467.07,-42.2 477.61,-43.31 476,-36.5"/>
</a>
</g>
</g>
</g>
</svg>
