<?xml version="1.0" encoding="UTF-8" standalone="no"?>
<!DOCTYPE svg PUBLIC "-//W3C//DTD SVG 1.1//EN"
 "http://www.w3.org/Graphics/SVG/1.1/DTD/svg11.dtd">
<!-- Generated by graphviz version 13.1.2 (20250808.2320)
 -->
<!-- Title: llvm::OptimizationRemarkAnalysis Pages: 1 -->
<svg width="1021pt" height="88pt"
 viewBox="0.00 0.00 1021.00 88.00" xmlns="http://www.w3.org/2000/svg" xmlns:xlink="http://www.w3.org/1999/xlink">
<g id="graph0" class="graph" transform="scale(1 1) rotate(0) translate(4 83.5)">
<title>llvm::OptimizationRemarkAnalysis</title>
<!-- Node1 -->
<g id="Node000001" class="node">
<title>Node1</title>
<g id="a_Node000001"><a xlink:title="Diagnostic information for optimization analysis remarks.">
<polygon fill="#999999" stroke="#666666" points="848,-54.5 718.75,-54.5 718.75,-24 848,-24 848,-54.5"/>
<text xml:space="preserve" text-anchor="start" x="726.75" y="-41" font-family="Helvetica,sans-Serif" font-size="10.00">llvm::OptimizationRemark</text>
<text xml:space="preserve" text-anchor="middle" x="783.38" y="-29.75" font-family="Helvetica,sans-Serif" font-size="10.00">Analysis</text>
</a>
</g>
</g>
<!-- Node6 -->
<g id="Node000006" class="node">
<title>Node6</title>
<g id="a_Node000006"><a xlink:href="classllvm_1_1OptimizationRemarkAnalysisAliasing.html" target="_top" xlink:title="Diagnostic information for optimization analysis remarks related to pointer aliasing.">
<polygon fill="white" stroke="#666666" points="1013.25,-79.5 884,-79.5 884,-49 1013.25,-49 1013.25,-79.5"/>
<text xml:space="preserve" text-anchor="start" x="892" y="-66" font-family="Helvetica,sans-Serif" font-size="10.00">llvm::OptimizationRemark</text>
<text xml:space="preserve" text-anchor="middle" x="948.62" y="-54.75" font-family="Helvetica,sans-Serif" font-size="10.00">AnalysisAliasing</text>
</a>
</g>
</g>
<!-- Node1&#45;&gt;Node6 -->
<g id="edge5_Node000001_Node000006" class="edge">
<title>Node1&#45;&gt;Node6</title>
<g id="a_edge5_Node000001_Node000006"><a xlink:title=" ">
<path fill="none" stroke="#63b8ff" d="M859.71,-50.79C867.75,-52.02 875.87,-53.26 883.76,-54.47"/>
<polygon fill="#63b8ff" stroke="#63b8ff" points="860.34,-47.34 849.92,-49.29 859.28,-54.26 860.34,-47.34"/>
</a>
</g>
</g>
<!-- Node7 -->
<g id="Node000007" class="node">
<title>Node7</title>
<g id="a_Node000007"><a xlink:href="classllvm_1_1OptimizationRemarkAnalysisFPCommute.html" target="_top" xlink:title="Diagnostic information for optimization analysis remarks related to floating&#45;point non&#45;commutativity.">
<polygon fill="white" stroke="#666666" points="1013.25,-30.5 884,-30.5 884,0 1013.25,0 1013.25,-30.5"/>
<text xml:space="preserve" text-anchor="start" x="892" y="-17" font-family="Helvetica,sans-Serif" font-size="10.00">llvm::OptimizationRemark</text>
<text xml:space="preserve" text-anchor="middle" x="948.62" y="-5.75" font-family="Helvetica,sans-Serif" font-size="10.00">AnalysisFPCommute</text>
</a>
</g>
</g>
<!-- Node1&#45;&gt;Node7 -->
<g id="edge6_Node000001_Node000007" class="edge">
<title>Node1&#45;&gt;Node7</title>
<g id="a_edge6_Node000001_Node000007"><a xlink:title=" ">
<path fill="none" stroke="#63b8ff" d="M859.71,-28.18C867.75,-26.99 875.87,-25.8 883.76,-24.64"/>
<polygon fill="#63b8ff" stroke="#63b8ff" points="859.31,-24.7 849.92,-29.61 860.33,-31.62 859.31,-24.7"/>
</a>
</g>
</g>
<!-- Node2 -->
<g id="Node000002" class="node">
<title>Node2</title>
<g id="a_Node000002"><a xlink:href="classllvm_1_1DiagnosticInfoIROptimization.html" target="_top" xlink:title="Common features for diagnostics dealing with optimization remarks that are used by IR passes.">
<polygon fill="white" stroke="#666666" points="682.75,-48.88 514.5,-48.88 514.5,-29.62 682.75,-29.62 682.75,-48.88"/>
<text xml:space="preserve" text-anchor="middle" x="598.62" y="-35.38" font-family="Helvetica,sans-Serif" font-size="10.00">llvm::DiagnosticInfoIROptimization</text>
</a>
</g>
</g>
<!-- Node2&#45;&gt;Node1 -->
<g id="edge1_Node000001_Node000002" class="edge">
<title>Node2&#45;&gt;Node1</title>
<g id="a_edge1_Node000001_Node000002"><a xlink:title=" ">
<path fill="none" stroke="#63b8ff" d="M694.65,-39.25C702.72,-39.25 710.75,-39.25 718.49,-39.25"/>
<polygon fill="#63b8ff" stroke="#63b8ff" points="694.76,-35.75 684.76,-39.25 694.76,-42.75 694.76,-35.75"/>
</a>
</g>
</g>
<!-- Node3 -->
<g id="Node000003" class="node">
<title>Node3</title>
<g id="a_Node000003"><a xlink:href="classllvm_1_1DiagnosticInfoOptimizationBase.html" target="_top" xlink:title="Common features for diagnostics dealing with optimization remarks that are used by both IR and MIR pa...">
<polygon fill="white" stroke="#666666" points="478.5,-48.88 298.25,-48.88 298.25,-29.62 478.5,-29.62 478.5,-48.88"/>
<text xml:space="preserve" text-anchor="middle" x="388.38" y="-35.38" font-family="Helvetica,sans-Serif" font-size="10.00">llvm::DiagnosticInfoOptimizationBase</text>
</a>
</g>
</g>
<!-- Node3&#45;&gt;Node2 -->
<g id="edge2_Node000002_Node000003" class="edge">
<title>Node3&#45;&gt;Node2</title>
<g id="a_edge2_Node000002_Node000003"><a xlink:title=" ">
<path fill="none" stroke="#63b8ff" d="M490.19,-39.25C498.2,-39.25 506.23,-39.25 514.1,-39.25"/>
<polygon fill="#63b8ff" stroke="#63b8ff" points="490.41,-35.75 480.41,-39.25 490.41,-42.75 490.41,-35.75"/>
</a>
</g>
</g>
<!-- Node4 -->
<g id="Node000004" class="node">
<title>Node4</title>
<g id="a_Node000004"><a xlink:href="classllvm_1_1DiagnosticInfoWithLocationBase.html" target="_top" xlink:title="Common features for diagnostics with an associated location.">
<polygon fill="white" stroke="#666666" points="262.25,-54.5 139,-54.5 139,-24 262.25,-24 262.25,-54.5"/>
<text xml:space="preserve" text-anchor="start" x="147" y="-41" font-family="Helvetica,sans-Serif" font-size="10.00">llvm::DiagnosticInfoWith</text>
<text xml:space="preserve" text-anchor="middle" x="200.62" y="-29.75" font-family="Helvetica,sans-Serif" font-size="10.00">LocationBase</text>
</a>
</g>
</g>
<!-- Node4&#45;&gt;Node3 -->
<g id="edge3_Node000003_Node000004" class="edge">
<title>Node4&#45;&gt;Node3</title>
<g id="a_edge3_Node000003_Node000004"><a xlink:title=" ">
<path fill="none" stroke="#63b8ff" d="M274.04,-39.25C281.9,-39.25 289.97,-39.25 298,-39.25"/>
<polygon fill="#63b8ff" stroke="#63b8ff" points="274.22,-35.75 264.22,-39.25 274.22,-42.75 274.22,-35.75"/>
</a>
</g>
</g>
<!-- Node5 -->
<g id="Node000005" class="node">
<title>Node5</title>
<g id="a_Node000005"><a xlink:href="classllvm_1_1DiagnosticInfo.html" target="_top" xlink:title="This is the base abstract class for diagnostic reporting in the backend.">
<polygon fill="white" stroke="#666666" points="103,-48.88 0,-48.88 0,-29.62 103,-29.62 103,-48.88"/>
<text xml:space="preserve" text-anchor="middle" x="51.5" y="-35.38" font-family="Helvetica,sans-Serif" font-size="10.00">llvm::DiagnosticInfo</text>
</a>
</g>
</g>
<!-- Node5&#45;&gt;Node4 -->
<g id="edge4_Node000004_Node000005" class="edge">
<title>Node5&#45;&gt;Node4</title>
<g id="a_edge4_Node000004_Node000005"><a xlink:title=" ">
<path fill="none" stroke="#63b8ff" d="M114.65,-39.25C122.62,-39.25 130.79,-39.25 138.74,-39.25"/>
<polygon fill="#63b8ff" stroke="#63b8ff" points="114.65,-35.75 104.65,-39.25 114.65,-42.75 114.65,-35.75"/>
</a>
</g>
</g>
</g>
</svg>
