<?xml version="1.0" encoding="UTF-8" standalone="no"?>
<!DOCTYPE svg PUBLIC "-//W3C//DTD SVG 1.1//EN"
 "http://www.w3.org/Graphics/SVG/1.1/DTD/svg11.dtd">
<!-- Generated by graphviz version 13.1.2 (20250808.2320)
 -->
<!-- Title: llvm::IntervalMap&lt; KeyT, ValT, N, Traits &gt; Pages: 1 -->
<svg width="473pt" height="668pt"
 viewBox="0.00 0.00 473.00 668.00" xmlns="http://www.w3.org/2000/svg" xmlns:xlink="http://www.w3.org/1999/xlink">
<g id="graph0" class="graph" transform="scale(1 1) rotate(0) translate(4 664.13)">
<title>llvm::IntervalMap&lt; KeyT, ValT, N, Traits &gt;</title>
<!-- Node1 -->
<g id="Node000001" class="node">
<title>Node1</title>
<g id="a_Node000001"><a xlink:title=" ">
<polygon fill="#999999" stroke="#666666" points="118,-333.28 0,-333.28 0,-302.78 118,-302.78 118,-333.28"/>
<text xml:space="preserve" text-anchor="start" x="8" y="-319.78" font-family="Helvetica,sans-Serif" font-size="10.00">llvm::IntervalMap&lt;</text>
<text xml:space="preserve" text-anchor="middle" x="59" y="-308.53" font-family="Helvetica,sans-Serif" font-size="10.00"> KeyT, ValT, N, Traits &gt;</text>
</a>
</g>
</g>
<!-- Node2 -->
<g id="Node000002" class="node">
<title>Node2</title>
<g id="a_Node000002"><a xlink:href="classllvm_1_1IntervalMap.html" target="_top" xlink:title=" ">
<polygon fill="white" stroke="#666666" points="431.75,-642.28 334.75,-642.28 334.75,-611.78 431.75,-611.78 431.75,-642.28"/>
<text xml:space="preserve" text-anchor="start" x="342.75" y="-628.78" font-family="Helvetica,sans-Serif" font-size="10.00">llvm::IntervalMap&lt;</text>
<text xml:space="preserve" text-anchor="middle" x="383.25" y="-617.53" font-family="Helvetica,sans-Serif" font-size="10.00"> IndexT, char &gt;</text>
</a>
</g>
</g>
<!-- Node1&#45;&gt;Node2 -->
<g id="edge1_Node000001_Node000002" class="edge">
<title>Node1&#45;&gt;Node2</title>
<g id="a_edge1_Node000001_Node000002"><a xlink:title=" ">
<path fill="none" stroke="orange" stroke-dasharray="5,2" d="M63.2,-344.58C71.52,-408.89 96.02,-570.21 136,-604.03 191.07,-650.62 279.91,-645.96 334.48,-637.26"/>
<polygon fill="orange" stroke="orange" points="66.7,-344.4 61.98,-334.92 59.76,-345.28 66.7,-344.4"/>
</a>
</g>
<text xml:space="preserve" text-anchor="start" x="174.25" y="-647.63" font-family="Helvetica,sans-Serif" font-size="10.00" fill="grey">&lt; IndexT, char &gt;</text>
</g>
<!-- Node3 -->
<g id="Node000003" class="node">
<title>Node3</title>
<g id="a_Node000003"><a xlink:href="classllvm_1_1IntervalMap.html" target="_top" xlink:title=" ">
<polygon fill="white" stroke="#666666" points="462.88,-586.28 303.62,-586.28 303.62,-555.78 462.88,-555.78 462.88,-586.28"/>
<text xml:space="preserve" text-anchor="start" x="311.62" y="-572.78" font-family="Helvetica,sans-Serif" font-size="10.00">llvm::IntervalMap&lt;</text>
<text xml:space="preserve" text-anchor="middle" x="383.25" y="-561.53" font-family="Helvetica,sans-Serif" font-size="10.00"> SlotIndex, const LiveInterval * &gt;</text>
</a>
</g>
</g>
<!-- Node1&#45;&gt;Node3 -->
<g id="edge2_Node000001_Node000003" class="edge">
<title>Node1&#45;&gt;Node3</title>
<g id="a_edge2_Node000001_Node000003"><a xlink:title=" ">
<path fill="none" stroke="orange" stroke-dasharray="5,2" d="M59.98,-344.87C61.54,-394.17 72.6,-498.69 136,-549.03 149.01,-559.36 236.27,-565.24 303.26,-568.27"/>
<polygon fill="orange" stroke="orange" points="63.48,-345.03 59.79,-335.1 56.48,-345.17 63.48,-345.03"/>
</a>
</g>
<text xml:space="preserve" text-anchor="start" x="169.75" y="-587.2" font-family="Helvetica,sans-Serif" font-size="10.00" fill="grey">&lt; SlotIndex, const</text>
<text xml:space="preserve" text-anchor="start" x="169.75" y="-571.95" font-family="Helvetica,sans-Serif" font-size="10.00" fill="grey">   LiveInterval * &gt;</text>
</g>
<!-- Node4 -->
<g id="Node000004" class="node">
<title>Node4</title>
<g id="a_Node000004"><a xlink:href="classllvm_1_1IntervalMap.html" target="_top" xlink:title=" ">
<polygon fill="white" stroke="#666666" points="452.75,-536.53 313.75,-536.53 313.75,-483.53 452.75,-483.53 452.75,-536.53"/>
<text xml:space="preserve" text-anchor="start" x="321.75" y="-523.03" font-family="Helvetica,sans-Serif" font-size="10.00">llvm::IntervalMap&lt;</text>
<text xml:space="preserve" text-anchor="start" x="321.75" y="-511.78" font-family="Helvetica,sans-Serif" font-size="10.00"> uint64_t, uint16_t,</text>
<text xml:space="preserve" text-anchor="start" x="321.75" y="-500.53" font-family="Helvetica,sans-Serif" font-size="10.00"> 8, IntervalMapHalfOpenInfo</text>
<text xml:space="preserve" text-anchor="middle" x="383.25" y="-489.28" font-family="Helvetica,sans-Serif" font-size="10.00">&lt; uint64_t &gt; &gt;</text>
</a>
</g>
</g>
<!-- Node1&#45;&gt;Node4 -->
<g id="edge3_Node000001_Node000004" class="edge">
<title>Node1&#45;&gt;Node4</title>
<g id="a_edge3_Node000001_Node000004"><a xlink:title=" ">
<path fill="none" stroke="orange" stroke-dasharray="5,2" d="M64.88,-344.63C72.95,-380.48 92.71,-443.43 136,-475.03 150.17,-485.37 245.57,-496.69 313.37,-503.57"/>
<polygon fill="orange" stroke="orange" points="68.35,-344.15 62.88,-335.08 61.5,-345.59 68.35,-344.15"/>
</a>
</g>
<text xml:space="preserve" text-anchor="start" x="148" y="-535.46" font-family="Helvetica,sans-Serif" font-size="10.00" fill="grey">&lt; uint64_t, uint16</text>
<text xml:space="preserve" text-anchor="start" x="148" y="-520.21" font-family="Helvetica,sans-Serif" font-size="10.00" fill="grey">  _t, 8, IntervalMapHalfOpen</text>
<text xml:space="preserve" text-anchor="start" x="148" y="-504.96" font-family="Helvetica,sans-Serif" font-size="10.00" fill="grey">  Info&lt; uint64_t &gt; &gt;</text>
</g>
<!-- Node5 -->
<g id="Node000005" class="node">
<title>Node5</title>
<g id="a_Node000005"><a xlink:href="classllvm_1_1IntervalMap.html" target="_top" xlink:title=" ">
<polygon fill="white" stroke="#666666" points="438.5,-465.28 328,-465.28 328,-434.78 438.5,-434.78 438.5,-465.28"/>
<text xml:space="preserve" text-anchor="start" x="336" y="-451.78" font-family="Helvetica,sans-Serif" font-size="10.00">llvm::IntervalMap&lt;</text>
<text xml:space="preserve" text-anchor="middle" x="383.25" y="-440.53" font-family="Helvetica,sans-Serif" font-size="10.00"> ExecutorAddr, bool &gt;</text>
</a>
</g>
</g>
<!-- Node1&#45;&gt;Node5 -->
<g id="edge4_Node000001_Node000005" class="edge">
<title>Node1&#45;&gt;Node5</title>
<g id="a_edge4_Node000001_Node000005"><a xlink:title=" ">
<path fill="none" stroke="orange" stroke-dasharray="5,2" d="M68.77,-344.37C79.67,-372.5 101.21,-415.76 136,-436.03 167.35,-454.31 265.14,-454.52 327.65,-452.58"/>
<polygon fill="orange" stroke="orange" points="72.11,-343.31 65.38,-335.12 65.54,-345.72 72.11,-343.31"/>
</a>
</g>
<text xml:space="preserve" text-anchor="start" x="159.62" y="-458.13" font-family="Helvetica,sans-Serif" font-size="10.00" fill="grey">&lt; ExecutorAddr, bool &gt;</text>
</g>
<!-- Node6 -->
<g id="Node000006" class="node">
<title>Node6</title>
<g id="a_Node000006"><a xlink:href="classllvm_1_1IntervalMap.html" target="_top" xlink:title=" ">
<polygon fill="white" stroke="#666666" points="451.62,-415.53 314.88,-415.53 314.88,-362.53 451.62,-362.53 451.62,-415.53"/>
<text xml:space="preserve" text-anchor="start" x="322.88" y="-402.03" font-family="Helvetica,sans-Serif" font-size="10.00">llvm::IntervalMap&lt;</text>
<text xml:space="preserve" text-anchor="start" x="322.88" y="-390.78" font-family="Helvetica,sans-Serif" font-size="10.00"> uint32_t, const RangeInfo</text>
<text xml:space="preserve" text-anchor="start" x="322.88" y="-379.53" font-family="Helvetica,sans-Serif" font-size="10.00"> *, 16, llvm::IntervalMapInfo</text>
<text xml:space="preserve" text-anchor="middle" x="383.25" y="-368.28" font-family="Helvetica,sans-Serif" font-size="10.00">&lt; uint32_t &gt; &gt;</text>
</a>
</g>
</g>
<!-- Node1&#45;&gt;Node6 -->
<g id="edge5_Node000001_Node000006" class="edge">
<title>Node1&#45;&gt;Node6</title>
<g id="a_edge5_Node000001_Node000006"><a xlink:title=" ">
<path fill="none" stroke="orange" stroke-dasharray="5,2" d="M87.52,-340.4C101.26,-350.32 118.63,-361.06 136,-367.03 167.87,-377.98 253.26,-383.77 314.55,-386.62"/>
<polygon fill="orange" stroke="orange" points="89.95,-337.85 79.85,-334.65 85.75,-343.45 89.95,-337.85"/>
</a>
</g>
<text xml:space="preserve" text-anchor="start" x="146.5" y="-419.97" font-family="Helvetica,sans-Serif" font-size="10.00" fill="grey">&lt; uint32_t, const RangeInfo</text>
<text xml:space="preserve" text-anchor="start" x="146.5" y="-404.72" font-family="Helvetica,sans-Serif" font-size="10.00" fill="grey">   *, 16, llvm::IntervalMapInfo</text>
<text xml:space="preserve" text-anchor="start" x="146.5" y="-389.47" font-family="Helvetica,sans-Serif" font-size="10.00" fill="grey">  &lt; uint32_t &gt; &gt;</text>
</g>
<!-- Node7 -->
<g id="Node000007" class="node">
<title>Node7</title>
<g id="a_Node000007"><a xlink:href="classllvm_1_1IntervalMap.html" target="_top" xlink:title=" ">
<polygon fill="white" stroke="#666666" points="452.75,-344.53 313.75,-344.53 313.75,-291.53 452.75,-291.53 452.75,-344.53"/>
<text xml:space="preserve" text-anchor="start" x="321.75" y="-331.03" font-family="Helvetica,sans-Serif" font-size="10.00">llvm::IntervalMap&lt;</text>
<text xml:space="preserve" text-anchor="start" x="321.75" y="-319.78" font-family="Helvetica,sans-Serif" font-size="10.00"> uint64_t, uint64_t,</text>
<text xml:space="preserve" text-anchor="start" x="321.75" y="-308.53" font-family="Helvetica,sans-Serif" font-size="10.00"> 4, IntervalMapHalfOpenInfo</text>
<text xml:space="preserve" text-anchor="middle" x="383.25" y="-297.28" font-family="Helvetica,sans-Serif" font-size="10.00">&lt; uint64_t &gt; &gt;</text>
</a>
</g>
</g>
<!-- Node1&#45;&gt;Node7 -->
<g id="edge6_Node000001_Node000007" class="edge">
<title>Node1&#45;&gt;Node7</title>
<g id="a_edge6_Node000001_Node000007"><a xlink:title=" ">
<path fill="none" stroke="orange" stroke-dasharray="5,2" d="M129.63,-318.03C184.03,-318.03 259.23,-318.03 313.42,-318.03"/>
<polygon fill="orange" stroke="orange" points="129.87,-314.53 119.87,-318.03 129.87,-321.53 129.87,-314.53"/>
</a>
</g>
<text xml:space="preserve" text-anchor="start" x="148" y="-353.28" font-family="Helvetica,sans-Serif" font-size="10.00" fill="grey">&lt; uint64_t, uint64</text>
<text xml:space="preserve" text-anchor="start" x="148" y="-338.03" font-family="Helvetica,sans-Serif" font-size="10.00" fill="grey">  _t, 4, IntervalMapHalfOpen</text>
<text xml:space="preserve" text-anchor="start" x="148" y="-322.78" font-family="Helvetica,sans-Serif" font-size="10.00" fill="grey">  Info&lt; uint64_t &gt; &gt;</text>
</g>
<!-- Node8 -->
<g id="Node000008" class="node">
<title>Node8</title>
<g id="a_Node000008"><a xlink:href="classllvm_1_1IntervalMap.html" target="_top" xlink:title=" ">
<polygon fill="white" stroke="#666666" points="431.75,-273.28 334.75,-273.28 334.75,-242.78 431.75,-242.78 431.75,-273.28"/>
<text xml:space="preserve" text-anchor="start" x="342.75" y="-259.78" font-family="Helvetica,sans-Serif" font-size="10.00">llvm::IntervalMap&lt;</text>
<text xml:space="preserve" text-anchor="middle" x="383.25" y="-248.53" font-family="Helvetica,sans-Serif" font-size="10.00"> unsigned, bool &gt;</text>
</a>
</g>
</g>
<!-- Node1&#45;&gt;Node8 -->
<g id="edge7_Node000001_Node000008" class="edge">
<title>Node1&#45;&gt;Node8</title>
<g id="a_edge7_Node000001_Node000008"><a xlink:title=" ">
<path fill="none" stroke="orange" stroke-dasharray="5,2" d="M123.83,-299.61C127.93,-298.6 132.02,-297.65 136,-296.78 204.29,-281.91 284.42,-270.38 334.28,-263.9"/>
<polygon fill="orange" stroke="orange" points="123.25,-296.14 114.42,-302 124.98,-302.93 123.25,-296.14"/>
</a>
</g>
<text xml:space="preserve" text-anchor="start" x="169.38" y="-301.53" font-family="Helvetica,sans-Serif" font-size="10.00" fill="grey">&lt; unsigned, bool &gt;</text>
</g>
<!-- Node9 -->
<g id="Node000009" class="node">
<title>Node9</title>
<g id="a_Node000009"><a xlink:href="classllvm_1_1IntervalMap.html" target="_top" xlink:title=" ">
<polygon fill="white" stroke="#666666" points="459.12,-225.16 307.38,-225.16 307.38,-160.91 459.12,-160.91 459.12,-225.16"/>
<text xml:space="preserve" text-anchor="start" x="315.38" y="-211.66" font-family="Helvetica,sans-Serif" font-size="10.00">llvm::IntervalMap&lt;</text>
<text xml:space="preserve" text-anchor="start" x="315.38" y="-200.41" font-family="Helvetica,sans-Serif" font-size="10.00"> OffsetInBitsTy, BaseAddress,</text>
<text xml:space="preserve" text-anchor="start" x="315.38" y="-189.16" font-family="Helvetica,sans-Serif" font-size="10.00"> IntervalMapImpl::NodeSizer</text>
<text xml:space="preserve" text-anchor="start" x="315.38" y="-177.91" font-family="Helvetica,sans-Serif" font-size="10.00">&lt; OffsetInBitsTy, BaseAddress</text>
<text xml:space="preserve" text-anchor="middle" x="383.25" y="-166.66" font-family="Helvetica,sans-Serif" font-size="10.00"> &gt;::LeafSize, FragTraits &gt;</text>
</a>
</g>
</g>
<!-- Node1&#45;&gt;Node9 -->
<g id="edge8_Node000001_Node000009" class="edge">
<title>Node1&#45;&gt;Node9</title>
<g id="a_edge8_Node000001_Node000009"><a xlink:title=" ">
<path fill="none" stroke="orange" stroke-dasharray="5,2" d="M69.3,-291.68C80.49,-264.41 102.1,-223.16 136,-204.03 187.71,-174.85 255.71,-174.07 307.14,-179.48"/>
<polygon fill="orange" stroke="orange" points="66.04,-290.41 65.69,-301 72.57,-292.94 66.04,-290.41"/>
</a>
</g>
<text xml:space="preserve" text-anchor="start" x="139" y="-254.53" font-family="Helvetica,sans-Serif" font-size="10.00" fill="grey">&lt; OffsetInBitsTy, BaseAddress,</text>
<text xml:space="preserve" text-anchor="start" x="139" y="-239.28" font-family="Helvetica,sans-Serif" font-size="10.00" fill="grey">   IntervalMapImpl::NodeSizer</text>
<text xml:space="preserve" text-anchor="start" x="139" y="-224.03" font-family="Helvetica,sans-Serif" font-size="10.00" fill="grey">  &lt; OffsetInBitsTy, BaseAddress</text>
<text xml:space="preserve" text-anchor="start" x="139" y="-208.78" font-family="Helvetica,sans-Serif" font-size="10.00" fill="grey">   &gt;::LeafSize, FragTraits &gt;</text>
</g>
<!-- Node10 -->
<g id="Node000010" class="node">
<title>Node10</title>
<g id="a_Node000010"><a xlink:href="classllvm_1_1IntervalMap.html" target="_top" xlink:title=" ">
<polygon fill="white" stroke="#666666" points="464.75,-143.28 301.75,-143.28 301.75,-112.78 464.75,-112.78 464.75,-143.28"/>
<text xml:space="preserve" text-anchor="start" x="309.75" y="-129.78" font-family="Helvetica,sans-Serif" font-size="10.00">llvm::IntervalMap&lt;</text>
<text xml:space="preserve" text-anchor="middle" x="383.25" y="-118.53" font-family="Helvetica,sans-Serif" font-size="10.00"> SlotIndex, DbgVariableValue, 4 &gt;</text>
</a>
</g>
</g>
<!-- Node1&#45;&gt;Node10 -->
<g id="edge9_Node000001_Node000010" class="edge">
<title>Node1&#45;&gt;Node10</title>
<g id="a_edge9_Node000001_Node000010"><a xlink:title=" ">
<path fill="none" stroke="orange" stroke-dasharray="5,2" d="M62.82,-290.96C68.62,-250.54 85.9,-175.44 136,-140.53 185.17,-106.27 254.21,-105.75 306.68,-112.3"/>
<polygon fill="orange" stroke="orange" points="59.35,-290.44 61.55,-300.8 66.3,-291.33 59.35,-290.44"/>
</a>
</g>
<text xml:space="preserve" text-anchor="start" x="155.5" y="-160.53" font-family="Helvetica,sans-Serif" font-size="10.00" fill="grey">&lt; SlotIndex, DbgVariable</text>
<text xml:space="preserve" text-anchor="start" x="155.5" y="-145.28" font-family="Helvetica,sans-Serif" font-size="10.00" fill="grey">  Value, 4 &gt;</text>
</g>
<!-- Node11 -->
<g id="Node000011" class="node">
<title>Node11</title>
<g id="a_Node000011"><a xlink:href="classllvm_1_1IntervalMap.html" target="_top" xlink:title=" ">
<polygon fill="white" stroke="#666666" points="440.38,-94.28 326.12,-94.28 326.12,-63.78 440.38,-63.78 440.38,-94.28"/>
<text xml:space="preserve" text-anchor="start" x="334.12" y="-80.78" font-family="Helvetica,sans-Serif" font-size="10.00">llvm::IntervalMap&lt;</text>
<text xml:space="preserve" text-anchor="middle" x="383.25" y="-69.53" font-family="Helvetica,sans-Serif" font-size="10.00"> SlotIndex, unsigned &gt;</text>
</a>
</g>
</g>
<!-- Node1&#45;&gt;Node11 -->
<g id="edge10_Node000001_Node000011" class="edge">
<title>Node1&#45;&gt;Node11</title>
<g id="a_edge10_Node000001_Node000011"><a xlink:title=" ">
<path fill="none" stroke="orange" stroke-dasharray="5,2" d="M59.76,-290.96C60.95,-241.28 71.44,-136.23 136,-87.78 164.83,-66.15 262.39,-69.2 325.71,-73.82"/>
<polygon fill="orange" stroke="orange" points="56.26,-290.77 59.64,-300.81 63.26,-290.85 56.26,-290.77"/>
</a>
</g>
<text xml:space="preserve" text-anchor="start" x="157.75" y="-92.53" font-family="Helvetica,sans-Serif" font-size="10.00" fill="grey">&lt; SlotIndex, unsigned &gt;</text>
</g>
<!-- Node12 -->
<g id="Node000012" class="node">
<title>Node12</title>
<g id="a_Node000012"><a xlink:href="classllvm_1_1IntervalMap.html" target="_top" xlink:title=" ">
<polygon fill="white" stroke="#666666" points="445.25,-44.91 321.25,-44.91 321.25,-3.16 445.25,-3.16 445.25,-44.91"/>
<text xml:space="preserve" text-anchor="start" x="329.25" y="-31.41" font-family="Helvetica,sans-Serif" font-size="10.00">llvm::IntervalMap&lt;</text>
<text xml:space="preserve" text-anchor="start" x="329.25" y="-20.16" font-family="Helvetica,sans-Serif" font-size="10.00"> llvm::orc::ExecutorAddr,</text>
<text xml:space="preserve" text-anchor="middle" x="383.25" y="-8.91" font-family="Helvetica,sans-Serif" font-size="10.00"> bool &gt;</text>
</a>
</g>
</g>
<!-- Node1&#45;&gt;Node12 -->
<g id="edge11_Node000001_Node000012" class="edge">
<title>Node1&#45;&gt;Node12</title>
<g id="a_edge11_Node000001_Node000012"><a xlink:title=" ">
<path fill="none" stroke="orange" stroke-dasharray="5,2" d="M63.11,-291.48C71.22,-227.2 95.29,-66.06 136,-33.53 187.56,7.66 266.39,2.67 320.9,-7.82"/>
<polygon fill="orange" stroke="orange" points="59.67,-290.79 61.92,-301.14 66.61,-291.64 59.67,-290.79"/>
</a>
</g>
<text xml:space="preserve" text-anchor="start" x="152.88" y="-53.53" font-family="Helvetica,sans-Serif" font-size="10.00" fill="grey">&lt; llvm::orc::ExecutorAddr,</text>
<text xml:space="preserve" text-anchor="start" x="152.88" y="-38.28" font-family="Helvetica,sans-Serif" font-size="10.00" fill="grey">   bool &gt;</text>
</g>
</g>
</svg>
