<?xml version="1.0" encoding="UTF-8" standalone="no"?>
<!DOCTYPE svg PUBLIC "-//W3C//DTD SVG 1.1//EN"
 "http://www.w3.org/Graphics/SVG/1.1/DTD/svg11.dtd">
<!-- Generated by graphviz version 13.1.2 (20250808.2320)
 -->
<!-- Title: llvm::SSAUpdaterTraits&lt; T &gt; Pages: 1 -->
<svg width="429pt" height="186pt"
 viewBox="0.00 0.00 429.00 186.00" xmlns="http://www.w3.org/2000/svg" xmlns:xlink="http://www.w3.org/1999/xlink">
<g id="graph0" class="graph" transform="scale(1 1) rotate(0) translate(4 181.5)">
<title>llvm::SSAUpdaterTraits&lt; T &gt;</title>
<!-- Node1 -->
<g id="Node000001" class="node">
<title>Node1</title>
<g id="a_Node000001"><a xlink:title=" ">
<polygon fill="#999999" stroke="#666666" points="143.5,-97.88 0,-97.88 0,-78.62 143.5,-78.62 143.5,-97.88"/>
<text xml:space="preserve" text-anchor="middle" x="71.75" y="-84.38" font-family="Helvetica,sans-Serif" font-size="10.00">llvm::SSAUpdaterTraits&lt; T &gt;</text>
</a>
</g>
</g>
<!-- Node2 -->
<g id="Node000002" class="node">
<title>Node2</title>
<g id="a_Node000002"><a xlink:href="classllvm_1_1SSAUpdaterTraits.html" target="_top" xlink:title=" ">
<polygon fill="white" stroke="#666666" points="417.5,-177.5 298,-177.5 298,-147 417.5,-147 417.5,-177.5"/>
<text xml:space="preserve" text-anchor="start" x="306" y="-164" font-family="Helvetica,sans-Serif" font-size="10.00">llvm::SSAUpdaterTraits</text>
<text xml:space="preserve" text-anchor="middle" x="357.75" y="-152.75" font-family="Helvetica,sans-Serif" font-size="10.00">&lt; UpdaterT &gt;</text>
</a>
</g>
</g>
<!-- Node1&#45;&gt;Node2 -->
<g id="edge1_Node000001_Node000002" class="edge">
<title>Node1&#45;&gt;Node2</title>
<g id="a_edge1_Node000001_Node000002"><a xlink:title=" ">
<path fill="none" stroke="orange" stroke-dasharray="5,2" d="M101.86,-103.13C118.87,-111.29 140.97,-121 161.5,-127.25 206.3,-140.9 258.61,-149.92 297.8,-155.39"/>
<polygon fill="orange" stroke="orange" points="103.86,-100.22 93.34,-98.96 100.78,-106.5 103.86,-100.22"/>
</a>
</g>
<text xml:space="preserve" text-anchor="start" x="190" y="-157" font-family="Helvetica,sans-Serif" font-size="10.00" fill="grey">&lt; UpdaterT &gt;</text>
</g>
<!-- Node3 -->
<g id="Node000003" class="node">
<title>Node3</title>
<g id="a_Node000003"><a xlink:href="classllvm_1_1SSAUpdaterTraits_3_01LDVSSAUpdater_01_4.html" target="_top" xlink:title="Template specialization to give SSAUpdater access to CFG and value information.">
<polygon fill="white" stroke="#666666" points="417.5,-128.5 298,-128.5 298,-98 417.5,-98 417.5,-128.5"/>
<text xml:space="preserve" text-anchor="start" x="306" y="-115" font-family="Helvetica,sans-Serif" font-size="10.00">llvm::SSAUpdaterTraits</text>
<text xml:space="preserve" text-anchor="middle" x="357.75" y="-103.75" font-family="Helvetica,sans-Serif" font-size="10.00">&lt; LDVSSAUpdater &gt;</text>
</a>
</g>
</g>
<!-- Node1&#45;&gt;Node3 -->
<g id="edge2_Node000001_Node000003" class="edge">
<title>Node1&#45;&gt;Node3</title>
<g id="a_edge2_Node000001_Node000003"><a xlink:title=" ">
<path fill="none" stroke="orange" stroke-dasharray="5,2" d="M155.06,-95.5C200.71,-99.51 256.43,-104.42 297.72,-108.05"/>
<polygon fill="orange" stroke="orange" points="155.46,-92.02 145.19,-94.63 154.84,-98.99 155.46,-92.02"/>
</a>
</g>
<text xml:space="preserve" text-anchor="start" x="173.12" y="-110.61" font-family="Helvetica,sans-Serif" font-size="10.00" fill="grey">&lt; LDVSSAUpdater &gt;</text>
</g>
<!-- Node4 -->
<g id="Node000004" class="node">
<title>Node4</title>
<g id="a_Node000004"><a xlink:href="classllvm_1_1SSAUpdaterTraits_3_01MachineSSAUpdater_01_4.html" target="_top" xlink:title="SSAUpdaterTraits&lt;MachineSSAUpdater&gt; &#45; Traits for the SSAUpdaterImpl template, specialized for Machine...">
<polygon fill="white" stroke="#666666" points="420.5,-79.5 295,-79.5 295,-49 420.5,-49 420.5,-79.5"/>
<text xml:space="preserve" text-anchor="start" x="303" y="-66" font-family="Helvetica,sans-Serif" font-size="10.00">llvm::SSAUpdaterTraits</text>
<text xml:space="preserve" text-anchor="middle" x="357.75" y="-54.75" font-family="Helvetica,sans-Serif" font-size="10.00">&lt; MachineSSAUpdater &gt;</text>
</a>
</g>
</g>
<!-- Node1&#45;&gt;Node4 -->
<g id="edge3_Node000001_Node000004" class="edge">
<title>Node1&#45;&gt;Node4</title>
<g id="a_edge3_Node000001_Node000004"><a xlink:title=" ">
<path fill="none" stroke="orange" stroke-dasharray="5,2" d="M140.82,-76.55C147.79,-75.58 154.78,-74.71 161.5,-74 205.89,-69.34 256.19,-66.9 294.62,-65.62"/>
<polygon fill="orange" stroke="orange" points="140.81,-73.01 131.42,-77.91 141.81,-79.94 140.81,-73.01"/>
</a>
</g>
<text xml:space="preserve" text-anchor="start" x="164.5" y="-78.75" font-family="Helvetica,sans-Serif" font-size="10.00" fill="grey">&lt; MachineSSAUpdater &gt;</text>
</g>
<!-- Node5 -->
<g id="Node000005" class="node">
<title>Node5</title>
<g id="a_Node000005"><a xlink:href="classllvm_1_1SSAUpdaterTraits_3_01SSAUpdater_01_4.html" target="_top" xlink:title=" ">
<polygon fill="white" stroke="#666666" points="417.5,-30.5 298,-30.5 298,0 417.5,0 417.5,-30.5"/>
<text xml:space="preserve" text-anchor="start" x="306" y="-17" font-family="Helvetica,sans-Serif" font-size="10.00">llvm::SSAUpdaterTraits</text>
<text xml:space="preserve" text-anchor="middle" x="357.75" y="-5.75" font-family="Helvetica,sans-Serif" font-size="10.00">&lt; SSAUpdater &gt;</text>
</a>
</g>
</g>
<!-- Node1&#45;&gt;Node5 -->
<g id="edge4_Node000001_Node000005" class="edge">
<title>Node1&#45;&gt;Node5</title>
<g id="a_edge4_Node000001_Node000005"><a xlink:title=" ">
<path fill="none" stroke="orange" stroke-dasharray="5,2" d="M99.33,-72.66C116.52,-63.25 139.68,-51.8 161.5,-45 206.02,-31.12 258.34,-23.59 297.61,-19.58"/>
<polygon fill="orange" stroke="orange" points="97.79,-69.51 90.78,-77.46 101.21,-75.62 97.79,-69.51"/>
</a>
</g>
<text xml:space="preserve" text-anchor="start" x="182.88" y="-49.75" font-family="Helvetica,sans-Serif" font-size="10.00" fill="grey">&lt; SSAUpdater &gt;</text>
</g>
</g>
</svg>
