<?xml version="1.0" encoding="UTF-8" standalone="no"?>
<!DOCTYPE svg PUBLIC "-//W3C//DTD SVG 1.1//EN"
 "http://www.w3.org/Graphics/SVG/1.1/DTD/svg11.dtd">
<!-- Generated by graphviz version 13.1.2 (20250808.2320)
 -->
<!-- Title: llvm::cl::parser&lt; int &gt; Pages: 1 -->
<svg width="711pt" height="123pt"
 viewBox="0.00 0.00 711.00 123.00" xmlns="http://www.w3.org/2000/svg" xmlns:xlink="http://www.w3.org/1999/xlink">
<g id="graph0" class="graph" transform="scale(1 1) rotate(0) translate(4 119.13)">
<title>llvm::cl::parser&lt; int &gt;</title>
<!-- Node1 -->
<g id="Node000001" class="node">
<title>Node1</title>
<g id="a_Node000001"><a xlink:title=" ">
<polygon fill="#999999" stroke="#666666" points="703.25,-94.88 594.25,-94.88 594.25,-75.62 703.25,-75.62 703.25,-94.88"/>
<text xml:space="preserve" text-anchor="middle" x="648.75" y="-81.38" font-family="Helvetica,sans-Serif" font-size="10.00">llvm::cl::parser&lt; int &gt;</text>
</a>
</g>
</g>
<!-- Node2 -->
<g id="Node000002" class="node">
<title>Node2</title>
<g id="a_Node000002"><a xlink:href="classllvm_1_1cl_1_1generic__parser__base.html" target="_top" xlink:title=" ">
<polygon fill="white" stroke="#666666" points="312.75,-111.88 169.25,-111.88 169.25,-92.62 312.75,-92.62 312.75,-111.88"/>
<text xml:space="preserve" text-anchor="middle" x="241" y="-98.38" font-family="Helvetica,sans-Serif" font-size="10.00">llvm::cl::generic_parser_base</text>
</a>
</g>
</g>
<!-- Node2&#45;&gt;Node1 -->
<g id="edge1_Node000001_Node000002" class="edge">
<title>Node2&#45;&gt;Node1</title>
<g id="a_edge1_Node000001_Node000002"><a xlink:title=" ">
<path fill="none" stroke="#63b8ff" d="M324.67,-110.51C392.62,-115.56 491.19,-118.89 576.25,-106.25 590.97,-104.06 606.89,-99.6 619.97,-95.35"/>
<polygon fill="#63b8ff" stroke="#63b8ff" points="324.94,-107.02 314.7,-109.74 324.4,-114 324.94,-107.02"/>
</a>
</g>
</g>
<!-- Node6 -->
<g id="Node000006" class="node">
<title>Node6</title>
<g id="a_Node000006"><a xlink:href="classllvm_1_1cl_1_1parser.html" target="_top" xlink:title=" ">
<polygon fill="white" stroke="#666666" points="523.75,-94.88 383.25,-94.88 383.25,-75.62 523.75,-75.62 523.75,-94.88"/>
<text xml:space="preserve" text-anchor="middle" x="453.5" y="-81.38" font-family="Helvetica,sans-Serif" font-size="10.00">llvm::cl::parser&lt; DataType &gt;</text>
</a>
</g>
</g>
<!-- Node2&#45;&gt;Node6 -->
<g id="edge7_Node000006_Node000002" class="edge">
<title>Node2&#45;&gt;Node6</title>
<g id="a_edge7_Node000006_Node000002"><a xlink:title=" ">
<path fill="none" stroke="#63b8ff" d="M324.24,-95.61C343.64,-94.04 364.13,-92.39 382.91,-90.87"/>
<polygon fill="#63b8ff" stroke="#63b8ff" points="324.17,-92.1 314.48,-96.4 324.73,-99.08 324.17,-92.1"/>
</a>
</g>
</g>
<!-- Node3 -->
<g id="Node000003" class="node">
<title>Node3</title>
<g id="a_Node000003"><a xlink:href="classllvm_1_1cl_1_1basic__parser.html" target="_top" xlink:title=" ">
<polygon fill="white" stroke="#666666" points="508,-57.5 399,-57.5 399,-27 508,-27 508,-57.5"/>
<text xml:space="preserve" text-anchor="start" x="407" y="-44" font-family="Helvetica,sans-Serif" font-size="10.00">llvm::cl::basic_parser</text>
<text xml:space="preserve" text-anchor="middle" x="453.5" y="-32.75" font-family="Helvetica,sans-Serif" font-size="10.00">&lt; int &gt;</text>
</a>
</g>
</g>
<!-- Node3&#45;&gt;Node1 -->
<g id="edge2_Node000001_Node000003" class="edge">
<title>Node3&#45;&gt;Node1</title>
<g id="a_edge2_Node000001_Node000003"><a xlink:title=" ">
<path fill="none" stroke="#63b8ff" d="M519.35,-56.68C546.6,-62.74 577.64,-69.65 602.38,-75.15"/>
<polygon fill="#63b8ff" stroke="#63b8ff" points="520.33,-53.31 509.81,-54.56 518.81,-60.15 520.33,-53.31"/>
</a>
</g>
</g>
<!-- Node4 -->
<g id="Node000004" class="node">
<title>Node4</title>
<g id="a_Node000004"><a xlink:href="classllvm_1_1cl_1_1basic__parser__impl.html" target="_top" xlink:title=" ">
<polygon fill="white" stroke="#666666" points="132.25,-45.88 0,-45.88 0,-26.62 132.25,-26.62 132.25,-45.88"/>
<text xml:space="preserve" text-anchor="middle" x="66.12" y="-32.38" font-family="Helvetica,sans-Serif" font-size="10.00">llvm::cl::basic_parser_impl</text>
</a>
</g>
</g>
<!-- Node4&#45;&gt;Node3 -->
<g id="edge3_Node000003_Node000004" class="edge">
<title>Node4&#45;&gt;Node3</title>
<g id="a_edge3_Node000003_Node000004"><a xlink:title=" ">
<path fill="none" stroke="#63b8ff" d="M143.95,-40.02C146.07,-40.1 148.17,-40.18 150.25,-40.25 245.76,-43.61 269.68,-45.35 365.25,-44.25 376.01,-44.13 387.51,-43.92 398.51,-43.68"/>
<polygon fill="#63b8ff" stroke="#63b8ff" points="144.11,-36.52 133.97,-39.62 143.82,-43.52 144.11,-36.52"/>
</a>
</g>
</g>
<!-- Node5 -->
<g id="Node000005" class="node">
<title>Node5</title>
<g id="a_Node000005"><a xlink:href="classllvm_1_1cl_1_1basic__parser.html" target="_top" xlink:title=" ">
<polygon fill="white" stroke="#666666" points="295.5,-30.5 186.5,-30.5 186.5,0 295.5,0 295.5,-30.5"/>
<text xml:space="preserve" text-anchor="start" x="194.5" y="-17" font-family="Helvetica,sans-Serif" font-size="10.00">llvm::cl::basic_parser</text>
<text xml:space="preserve" text-anchor="middle" x="241" y="-5.75" font-family="Helvetica,sans-Serif" font-size="10.00">&lt; DataType &gt;</text>
</a>
</g>
</g>
<!-- Node4&#45;&gt;Node5 -->
<g id="edge5_Node000005_Node000004" class="edge">
<title>Node4&#45;&gt;Node5</title>
<g id="a_edge5_Node000005_Node000004"><a xlink:title=" ">
<path fill="none" stroke="#63b8ff" d="M143.81,-26.93C158.07,-25.2 172.7,-23.43 186.1,-21.8"/>
<polygon fill="#63b8ff" stroke="#63b8ff" points="143.49,-23.45 133.98,-28.13 144.33,-30.4 143.49,-23.45"/>
</a>
</g>
</g>
<!-- Node5&#45;&gt;Node3 -->
<g id="edge4_Node000003_Node000005" class="edge">
<title>Node5&#45;&gt;Node3</title>
<g id="a_edge4_Node000003_Node000005"><a xlink:title=" ">
<path fill="none" stroke="orange" stroke-dasharray="5,2" d="M307.23,-20.51C325.99,-22.28 346.46,-24.47 365.25,-27 376.07,-28.46 387.6,-30.28 398.61,-32.15"/>
<polygon fill="orange" stroke="orange" points="307.58,-17.03 297.3,-19.6 306.94,-24 307.58,-17.03"/>
</a>
</g>
<text xml:space="preserve" text-anchor="start" x="333.75" y="-31.75" font-family="Helvetica,sans-Serif" font-size="10.00" fill="grey">&lt; int &gt;</text>
</g>
<!-- Node6&#45;&gt;Node1 -->
<g id="edge6_Node000001_Node000006" class="edge">
<title>Node6&#45;&gt;Node1</title>
<g id="a_edge6_Node000001_Node000006"><a xlink:title=" ">
<path fill="none" stroke="orange" stroke-dasharray="5,2" d="M535.49,-85.25C555.24,-85.25 575.89,-85.25 594.01,-85.25"/>
<polygon fill="orange" stroke="orange" points="535.51,-81.75 525.51,-85.25 535.51,-88.75 535.51,-81.75"/>
</a>
</g>
<text xml:space="preserve" text-anchor="start" x="544.75" y="-90" font-family="Helvetica,sans-Serif" font-size="10.00" fill="grey">&lt; int &gt;</text>
</g>
</g>
</svg>
