<?xml version="1.0" encoding="UTF-8" standalone="no"?>
<!DOCTYPE svg PUBLIC "-//W3C//DTD SVG 1.1//EN"
 "http://www.w3.org/Graphics/SVG/1.1/DTD/svg11.dtd">
<!-- Generated by graphviz version 13.1.2 (20250808.2320)
 -->
<!-- Title: llvm::dxil::ShaderFlagsAnalysisWrapper Pages: 1 -->
<svg width="161pt" height="149pt"
 viewBox="0.00 0.00 161.00 149.00" xmlns="http://www.w3.org/2000/svg" xmlns:xlink="http://www.w3.org/1999/xlink">
<g id="graph0" class="graph" transform="scale(1 1) rotate(0) translate(4 145)">
<title>llvm::dxil::ShaderFlagsAnalysisWrapper</title>
<!-- Node1 -->
<g id="Node000001" class="node">
<title>Node1</title>
<g id="a_Node000001"><a xlink:title="Wrapper pass for the legacy pass manager.">
<polygon fill="#999999" stroke="#666666" points="153.25,-30.5 0,-30.5 0,0 153.25,0 153.25,-30.5"/>
<text xml:space="preserve" text-anchor="start" x="8" y="-17" font-family="Helvetica,sans-Serif" font-size="10.00">llvm::dxil::ShaderFlagsAnalysis</text>
<text xml:space="preserve" text-anchor="middle" x="76.62" y="-5.75" font-family="Helvetica,sans-Serif" font-size="10.00">Wrapper</text>
</a>
</g>
</g>
<!-- Node2 -->
<g id="Node000002" class="node">
<title>Node2</title>
<g id="a_Node000002"><a xlink:href="classllvm_1_1ModulePass.html" target="_top" xlink:title="ModulePass class &#45; This class is used to implement unstructured interprocedural optimizations and ana...">
<polygon fill="white" stroke="#666666" points="123.62,-85.75 29.62,-85.75 29.62,-66.5 123.62,-66.5 123.62,-85.75"/>
<text xml:space="preserve" text-anchor="middle" x="76.62" y="-72.25" font-family="Helvetica,sans-Serif" font-size="10.00">llvm::ModulePass</text>
</a>
</g>
</g>
<!-- Node2&#45;&gt;Node1 -->
<g id="edge1_Node000001_Node000002" class="edge">
<title>Node2&#45;&gt;Node1</title>
<g id="a_edge1_Node000001_Node000002"><a xlink:title=" ">
<path fill="none" stroke="#63b8ff" d="M76.62,-54.92C76.62,-46.99 76.62,-38.06 76.62,-30.78"/>
<polygon fill="#63b8ff" stroke="#63b8ff" points="73.13,-54.67 76.63,-64.67 80.13,-54.67 73.13,-54.67"/>
</a>
</g>
</g>
<!-- Node3 -->
<g id="Node000003" class="node">
<title>Node3</title>
<g id="a_Node000003"><a xlink:href="classllvm_1_1Pass.html" target="_top" xlink:title="Pass interface &#45; Implemented by all &#39;passes&#39;.">
<polygon fill="white" stroke="#666666" points="107.88,-141 45.38,-141 45.38,-121.75 107.88,-121.75 107.88,-141"/>
<text xml:space="preserve" text-anchor="middle" x="76.62" y="-127.5" font-family="Helvetica,sans-Serif" font-size="10.00">llvm::Pass</text>
</a>
</g>
</g>
<!-- Node3&#45;&gt;Node2 -->
<g id="edge2_Node000002_Node000003" class="edge">
<title>Node3&#45;&gt;Node2</title>
<g id="a_edge2_Node000002_Node000003"><a xlink:title=" ">
<path fill="none" stroke="#63b8ff" d="M76.62,-110.13C76.62,-101.84 76.62,-92.67 76.62,-86.11"/>
<polygon fill="#63b8ff" stroke="#63b8ff" points="73.13,-110.07 76.63,-120.07 80.13,-110.07 73.13,-110.07"/>
</a>
</g>
</g>
</g>
</svg>
