<?xml version="1.0" encoding="UTF-8" standalone="no"?>
<!DOCTYPE svg PUBLIC "-//W3C//DTD SVG 1.1//EN"
 "http://www.w3.org/Graphics/SVG/1.1/DTD/svg11.dtd">
<!-- Generated by graphviz version 13.1.2 (20250808.2320)
 -->
<!-- Title: llvm::objcopy::elf::Binary Pages: 1 -->
<svg width="1072pt" height="293pt"
 viewBox="0.00 0.00 1072.00 293.00" xmlns="http://www.w3.org/2000/svg" xmlns:xlink="http://www.w3.org/1999/xlink">
<g id="graph0" class="graph" transform="scale(1 1) rotate(0) translate(4 288.88)">
<title>llvm::objcopy::elf::Binary</title>
<!-- Node1 -->
<g id="Node000001" class="node">
<title>Node1</title>
<g id="a_Node000001"><a xlink:title=" ">
<polygon fill="#999999" stroke="#666666" points="90.25,-135.88 0,-135.88 0,-105.38 90.25,-105.38 90.25,-135.88"/>
<text xml:space="preserve" text-anchor="start" x="8" y="-122.38" font-family="Helvetica,sans-Serif" font-size="10.00">llvm::objcopy::elf</text>
<text xml:space="preserve" text-anchor="middle" x="45.12" y="-111.12" font-family="Helvetica,sans-Serif" font-size="10.00">::Binary</text>
</a>
</g>
</g>
<!-- Node2 -->
<g id="Node000002" class="node">
<title>Node2</title>
<g id="a_Node000002"><a xlink:href="classllvm_1_1object_1_1Archive.html" target="_top" xlink:title=" ">
<polygon fill="white" stroke="#666666" points="257.25,-253.25 152,-253.25 152,-234 257.25,-234 257.25,-253.25"/>
<text xml:space="preserve" text-anchor="middle" x="204.62" y="-239.75" font-family="Helvetica,sans-Serif" font-size="10.00">llvm::object::Archive</text>
</a>
</g>
</g>
<!-- Node1&#45;&gt;Node2 -->
<g id="edge1_Node000001_Node000002" class="edge">
<title>Node1&#45;&gt;Node2</title>
<g id="a_edge1_Node000001_Node000002"><a xlink:title=" ">
<path fill="none" stroke="#63b8ff" d="M59.44,-146.16C73.22,-170.07 96.97,-204.96 127.25,-224.62 134.58,-229.39 143.02,-232.96 151.56,-235.63"/>
<polygon fill="#63b8ff" stroke="#63b8ff" points="62.64,-144.72 54.72,-137.68 56.52,-148.12 62.64,-144.72"/>
</a>
</g>
</g>
<!-- Node4 -->
<g id="Node000004" class="node">
<title>Node4</title>
<g id="a_Node000004"><a xlink:href="classllvm_1_1object_1_1MachOUniversalBinary.html" target="_top" xlink:title=" ">
<polygon fill="white" stroke="#666666" points="277.12,-215.88 132.12,-215.88 132.12,-185.38 277.12,-185.38 277.12,-215.88"/>
<text xml:space="preserve" text-anchor="start" x="140.12" y="-202.38" font-family="Helvetica,sans-Serif" font-size="10.00">llvm::object::MachOUniversal</text>
<text xml:space="preserve" text-anchor="middle" x="204.62" y="-191.12" font-family="Helvetica,sans-Serif" font-size="10.00">Binary</text>
</a>
</g>
</g>
<!-- Node1&#45;&gt;Node4 -->
<g id="edge3_Node000001_Node000004" class="edge">
<title>Node1&#45;&gt;Node4</title>
<g id="a_edge3_Node000001_Node000004"><a xlink:title=" ">
<path fill="none" stroke="#63b8ff" d="M73.91,-142.91C89.01,-154.19 108.4,-167.42 127.25,-176.62 133.49,-179.67 140.21,-182.45 146.98,-184.94"/>
<polygon fill="#63b8ff" stroke="#63b8ff" points="76.38,-140.39 66.31,-137.1 72.13,-145.95 76.38,-140.39"/>
</a>
</g>
</g>
<!-- Node5 -->
<g id="Node000005" class="node">
<title>Node5</title>
<g id="a_Node000005"><a xlink:href="classllvm_1_1object_1_1MinidumpFile.html" target="_top" xlink:title="A class providing access to the contents of a minidump file.">
<polygon fill="white" stroke="#666666" points="269.62,-167.25 139.62,-167.25 139.62,-148 269.62,-148 269.62,-167.25"/>
<text xml:space="preserve" text-anchor="middle" x="204.62" y="-153.75" font-family="Helvetica,sans-Serif" font-size="10.00">llvm::object::MinidumpFile</text>
</a>
</g>
</g>
<!-- Node1&#45;&gt;Node5 -->
<g id="edge4_Node000001_Node000005" class="edge">
<title>Node1&#45;&gt;Node5</title>
<g id="a_edge4_Node000001_Node000005"><a xlink:title=" ">
<path fill="none" stroke="#63b8ff" d="M101.57,-133.65C121,-138.22 142.51,-143.27 160.75,-147.55"/>
<polygon fill="#63b8ff" stroke="#63b8ff" points="102.43,-130.26 91.89,-131.38 100.82,-137.07 102.43,-130.26"/>
</a>
</g>
</g>
<!-- Node6 -->
<g id="Node000006" class="node">
<title>Node6</title>
<g id="a_Node000006"><a xlink:href="classllvm_1_1object_1_1OffloadBinary.html" target="_top" xlink:title="A simple binary serialization of an offloading file.">
<polygon fill="white" stroke="#666666" points="270.38,-130.25 138.88,-130.25 138.88,-111 270.38,-111 270.38,-130.25"/>
<text xml:space="preserve" text-anchor="middle" x="204.62" y="-116.75" font-family="Helvetica,sans-Serif" font-size="10.00">llvm::object::OffloadBinary</text>
</a>
</g>
</g>
<!-- Node1&#45;&gt;Node6 -->
<g id="edge5_Node000001_Node000006" class="edge">
<title>Node1&#45;&gt;Node6</title>
<g id="a_edge5_Node000001_Node000006"><a xlink:title=" ">
<path fill="none" stroke="#63b8ff" d="M101.58,-120.62C113.52,-120.62 126.24,-120.62 138.5,-120.62"/>
<polygon fill="#63b8ff" stroke="#63b8ff" points="101.93,-117.13 91.93,-120.63 101.93,-124.13 101.93,-117.13"/>
</a>
</g>
</g>
<!-- Node7 -->
<g id="Node000007" class="node">
<title>Node7</title>
<g id="a_Node000007"><a xlink:href="classllvm_1_1object_1_1SymbolicFile.html" target="_top" xlink:title=" ">
<polygon fill="white" stroke="#666666" points="268.88,-93.25 140.38,-93.25 140.38,-74 268.88,-74 268.88,-93.25"/>
<text xml:space="preserve" text-anchor="middle" x="204.62" y="-79.75" font-family="Helvetica,sans-Serif" font-size="10.00">llvm::object::SymbolicFile</text>
</a>
</g>
</g>
<!-- Node1&#45;&gt;Node7 -->
<g id="edge6_Node000001_Node000007" class="edge">
<title>Node1&#45;&gt;Node7</title>
<g id="a_edge6_Node000001_Node000007"><a xlink:title=" ">
<path fill="none" stroke="#63b8ff" d="M101.57,-107.6C121,-103.03 142.51,-97.98 160.75,-93.7"/>
<polygon fill="#63b8ff" stroke="#63b8ff" points="100.82,-104.18 91.89,-109.87 102.43,-110.99 100.82,-104.18"/>
</a>
</g>
</g>
<!-- Node23 -->
<g id="Node000023" class="node">
<title>Node23</title>
<g id="a_Node000023"><a xlink:href="classllvm_1_1object_1_1TapiUniversal.html" target="_top" xlink:title=" ">
<polygon fill="white" stroke="#666666" points="270.38,-56.25 138.88,-56.25 138.88,-37 270.38,-37 270.38,-56.25"/>
<text xml:space="preserve" text-anchor="middle" x="204.62" y="-42.75" font-family="Helvetica,sans-Serif" font-size="10.00">llvm::object::TapiUniversal</text>
</a>
</g>
</g>
<!-- Node1&#45;&gt;Node23 -->
<g id="edge26_Node000001_Node000023" class="edge">
<title>Node1&#45;&gt;Node23</title>
<g id="a_edge26_Node000001_Node000023"><a xlink:title=" ">
<path fill="none" stroke="#63b8ff" d="M73.34,-98.01C88.41,-86.51 107.95,-73.19 127.25,-64.62 134.22,-61.53 141.8,-58.93 149.38,-56.75"/>
<polygon fill="#63b8ff" stroke="#63b8ff" points="71.48,-95.02 65.77,-103.94 75.8,-100.53 71.48,-95.02"/>
</a>
</g>
</g>
<!-- Node24 -->
<g id="Node000024" class="node">
<title>Node24</title>
<g id="a_Node000024"><a xlink:href="classllvm_1_1object_1_1WindowsResource.html" target="_top" xlink:title=" ">
<polygon fill="white" stroke="#666666" points="282,-19.25 127.25,-19.25 127.25,0 282,0 282,-19.25"/>
<text xml:space="preserve" text-anchor="middle" x="204.62" y="-5.75" font-family="Helvetica,sans-Serif" font-size="10.00">llvm::object::WindowsResource</text>
</a>
</g>
</g>
<!-- Node1&#45;&gt;Node24 -->
<g id="edge27_Node000001_Node000024" class="edge">
<title>Node1&#45;&gt;Node24</title>
<g id="a_edge27_Node000001_Node000024"><a xlink:title=" ">
<path fill="none" stroke="#63b8ff" d="M61.38,-95.71C75.74,-74.38 99.21,-44.53 127.25,-27.62 132.5,-24.46 138.26,-21.85 144.2,-19.7"/>
<polygon fill="#63b8ff" stroke="#63b8ff" points="58.6,-93.56 56.08,-103.85 64.47,-97.38 58.6,-93.56"/>
</a>
</g>
</g>
<!-- Node3 -->
<g id="Node000003" class="node">
<title>Node3</title>
<g id="a_Node000003"><a xlink:href="classllvm_1_1object_1_1BigArchive.html" target="_top" xlink:title=" ">
<polygon fill="white" stroke="#666666" points="450.12,-253.25 330.62,-253.25 330.62,-234 450.12,-234 450.12,-253.25"/>
<text xml:space="preserve" text-anchor="middle" x="390.38" y="-239.75" font-family="Helvetica,sans-Serif" font-size="10.00">llvm::object::BigArchive</text>
</a>
</g>
</g>
<!-- Node2&#45;&gt;Node3 -->
<g id="edge2_Node000002_Node000003" class="edge">
<title>Node2&#45;&gt;Node3</title>
<g id="a_edge2_Node000002_Node000003"><a xlink:title=" ">
<path fill="none" stroke="#63b8ff" d="M268.78,-243.62C288.72,-243.62 310.67,-243.62 330.32,-243.62"/>
<polygon fill="#63b8ff" stroke="#63b8ff" points="268.81,-240.13 258.81,-243.63 268.81,-247.13 268.81,-240.13"/>
</a>
</g>
</g>
<!-- Node8 -->
<g id="Node000008" class="node">
<title>Node8</title>
<g id="a_Node000008"><a xlink:href="classllvm_1_1object_1_1COFFImportFile.html" target="_top" xlink:title=" ">
<polygon fill="white" stroke="#666666" points="461.75,-40.25 319,-40.25 319,-21 461.75,-21 461.75,-40.25"/>
<text xml:space="preserve" text-anchor="middle" x="390.38" y="-26.75" font-family="Helvetica,sans-Serif" font-size="10.00">llvm::object::COFFImportFile</text>
</a>
</g>
</g>
<!-- Node7&#45;&gt;Node8 -->
<g id="edge7_Node000007_Node000008" class="edge">
<title>Node7&#45;&gt;Node8</title>
<g id="a_edge7_Node000007_Node000008"><a xlink:title=" ">
<path fill="none" stroke="#63b8ff" d="M265.64,-70.68C271.22,-69.12 276.74,-67.43 282,-65.62 299.11,-59.74 301.94,-54.67 319,-48.62 327.32,-45.68 336.35,-42.99 345.09,-40.65"/>
<polygon fill="#63b8ff" stroke="#63b8ff" points="265.16,-67.19 256.39,-73.14 266.96,-73.96 265.16,-67.19"/>
</a>
</g>
</g>
<!-- Node9 -->
<g id="Node000009" class="node">
<title>Node9</title>
<g id="a_Node000009"><a xlink:href="classllvm_1_1object_1_1IRObjectFile.html" target="_top" xlink:title=" ">
<polygon fill="white" stroke="#666666" points="453.88,-151.25 326.88,-151.25 326.88,-132 453.88,-132 453.88,-151.25"/>
<text xml:space="preserve" text-anchor="middle" x="390.38" y="-137.75" font-family="Helvetica,sans-Serif" font-size="10.00">llvm::object::IRObjectFile</text>
</a>
</g>
</g>
<!-- Node7&#45;&gt;Node9 -->
<g id="edge8_Node000007_Node000009" class="edge">
<title>Node7&#45;&gt;Node9</title>
<g id="a_edge8_Node000007_Node000009"><a xlink:title=" ">
<path fill="none" stroke="#63b8ff" d="M268.73,-96.87C273.27,-98.32 277.74,-99.9 282,-101.62 299.74,-108.79 301.33,-116.29 319,-123.62 326.34,-126.67 334.33,-129.31 342.2,-131.55"/>
<polygon fill="#63b8ff" stroke="#63b8ff" points="270.09,-93.63 259.51,-94.16 268.11,-100.34 270.09,-93.63"/>
</a>
</g>
</g>
<!-- Node10 -->
<g id="Node000010" class="node">
<title>Node10</title>
<g id="a_Node000010"><a xlink:href="classllvm_1_1object_1_1ObjectFile.html" target="_top" xlink:title="This class is the base class for all object file types.">
<polygon fill="white" stroke="#666666" points="448.62,-114.25 332.12,-114.25 332.12,-95 448.62,-95 448.62,-114.25"/>
<text xml:space="preserve" text-anchor="middle" x="390.38" y="-100.75" font-family="Helvetica,sans-Serif" font-size="10.00">llvm::object::ObjectFile</text>
</a>
</g>
</g>
<!-- Node7&#45;&gt;Node10 -->
<g id="edge9_Node000007_Node000010" class="edge">
<title>Node7&#45;&gt;Node10</title>
<g id="a_edge9_Node000007_Node000010"><a xlink:title=" ">
<path fill="none" stroke="#63b8ff" d="M280.25,-92.15C297.42,-94.12 315.41,-96.17 331.73,-98.04"/>
<polygon fill="#63b8ff" stroke="#63b8ff" points="280.96,-88.71 270.62,-91.05 280.16,-95.67 280.96,-88.71"/>
</a>
</g>
</g>
<!-- Node22 -->
<g id="Node000022" class="node">
<title>Node22</title>
<g id="a_Node000022"><a xlink:href="classllvm_1_1object_1_1TapiFile.html" target="_top" xlink:title=" ">
<polygon fill="white" stroke="#666666" points="443.38,-77.25 337.38,-77.25 337.38,-58 443.38,-58 443.38,-77.25"/>
<text xml:space="preserve" text-anchor="middle" x="390.38" y="-63.75" font-family="Helvetica,sans-Serif" font-size="10.00">llvm::object::TapiFile</text>
</a>
</g>
</g>
<!-- Node7&#45;&gt;Node22 -->
<g id="edge25_Node000007_Node000022" class="edge">
<title>Node7&#45;&gt;Node22</title>
<g id="a_edge25_Node000007_Node000022"><a xlink:title=" ">
<path fill="none" stroke="#63b8ff" d="M280.48,-77.11C299.5,-75.45 319.53,-73.71 337.14,-72.17"/>
<polygon fill="#63b8ff" stroke="#63b8ff" points="280.29,-73.61 270.63,-77.96 280.89,-80.58 280.29,-73.61"/>
</a>
</g>
</g>
<!-- Node11 -->
<g id="Node000011" class="node">
<title>Node11</title>
<g id="a_Node000011"><a xlink:href="classllvm_1_1object_1_1COFFObjectFile.html" target="_top" xlink:title=" ">
<polygon fill="white" stroke="#666666" points="649,-206.25 505.5,-206.25 505.5,-187 649,-187 649,-206.25"/>
<text xml:space="preserve" text-anchor="middle" x="577.25" y="-192.75" font-family="Helvetica,sans-Serif" font-size="10.00">llvm::object::COFFObjectFile</text>
</a>
</g>
</g>
<!-- Node10&#45;&gt;Node11 -->
<g id="edge10_Node000010_Node000011" class="edge">
<title>Node10&#45;&gt;Node11</title>
<g id="a_edge10_Node000010_Node000011"><a xlink:title=" ">
<path fill="none" stroke="#63b8ff" d="M457.47,-119.83C458.94,-120.71 460.37,-121.64 461.75,-122.62 486.05,-139.93 474.26,-161.6 498.75,-178.62 503.29,-181.78 508.3,-184.39 513.52,-186.54"/>
<polygon fill="#63b8ff" stroke="#63b8ff" points="459.15,-116.76 448.64,-115.42 456.02,-123.02 459.15,-116.76"/>
</a>
</g>
</g>
<!-- Node12 -->
<g id="Node000012" class="node">
<title>Node12</title>
<g id="a_Node000012"><a xlink:href="classllvm_1_1object_1_1ELFObjectFileBase.html" target="_top" xlink:title=" ">
<polygon fill="white" stroke="#666666" points="655.75,-169.25 498.75,-169.25 498.75,-150 655.75,-150 655.75,-169.25"/>
<text xml:space="preserve" text-anchor="middle" x="577.25" y="-155.75" font-family="Helvetica,sans-Serif" font-size="10.00">llvm::object::ELFObjectFileBase</text>
</a>
</g>
</g>
<!-- Node10&#45;&gt;Node12 -->
<g id="edge11_Node000010_Node000012" class="edge">
<title>Node10&#45;&gt;Node12</title>
<g id="a_edge11_Node000010_Node000012"><a xlink:title=" ">
<path fill="none" stroke="#63b8ff" d="M447.93,-117.89C452.65,-119.36 457.31,-120.94 461.75,-122.62 479.04,-129.18 481.39,-135.26 498.75,-141.62 507.05,-144.67 516.04,-147.31 524.87,-149.57"/>
<polygon fill="#63b8ff" stroke="#63b8ff" points="448.93,-114.54 438.35,-115.1 446.96,-121.26 448.93,-114.54"/>
</a>
</g>
</g>
<!-- Node18 -->
<g id="Node000018" class="node">
<title>Node18</title>
<g id="a_Node000018"><a xlink:href="classllvm_1_1object_1_1GOFFObjectFile.html" target="_top" xlink:title=" ">
<polygon fill="white" stroke="#666666" points="649,-132.25 505.5,-132.25 505.5,-113 649,-113 649,-132.25"/>
<text xml:space="preserve" text-anchor="middle" x="577.25" y="-118.75" font-family="Helvetica,sans-Serif" font-size="10.00">llvm::object::GOFFObjectFile</text>
</a>
</g>
</g>
<!-- Node10&#45;&gt;Node18 -->
<g id="edge21_Node000010_Node000018" class="edge">
<title>Node10&#45;&gt;Node18</title>
<g id="a_edge21_Node000010_Node000018"><a xlink:title=" ">
<path fill="none" stroke="#63b8ff" d="M460.18,-111.32C474.91,-112.76 490.49,-114.28 505.3,-115.72"/>
<polygon fill="#63b8ff" stroke="#63b8ff" points="460.91,-107.88 450.62,-110.39 460.23,-114.85 460.91,-107.88"/>
</a>
</g>
</g>
<!-- Node19 -->
<g id="Node000019" class="node">
<title>Node19</title>
<g id="a_Node000019"><a xlink:href="classllvm_1_1object_1_1MachOObjectFile.html" target="_top" xlink:title=" ">
<polygon fill="white" stroke="#666666" points="651.25,-95.25 503.25,-95.25 503.25,-76 651.25,-76 651.25,-95.25"/>
<text xml:space="preserve" text-anchor="middle" x="577.25" y="-81.75" font-family="Helvetica,sans-Serif" font-size="10.00">llvm::object::MachOObjectFile</text>
</a>
</g>
</g>
<!-- Node10&#45;&gt;Node19 -->
<g id="edge22_Node000010_Node000019" class="edge">
<title>Node10&#45;&gt;Node19</title>
<g id="a_edge22_Node000010_Node000019"><a xlink:title=" ">
<path fill="none" stroke="#63b8ff" d="M460.54,-97.52C474.39,-96.09 488.98,-94.59 502.97,-93.16"/>
<polygon fill="#63b8ff" stroke="#63b8ff" points="460.21,-94.03 450.62,-98.54 460.92,-101 460.21,-94.03"/>
</a>
</g>
</g>
<!-- Node20 -->
<g id="Node000020" class="node">
<title>Node20</title>
<g id="a_Node000020"><a xlink:href="classllvm_1_1object_1_1WasmObjectFile.html" target="_top" xlink:title=" ">
<polygon fill="white" stroke="#666666" points="649.38,-58.25 505.12,-58.25 505.12,-39 649.38,-39 649.38,-58.25"/>
<text xml:space="preserve" text-anchor="middle" x="577.25" y="-44.75" font-family="Helvetica,sans-Serif" font-size="10.00">llvm::object::WasmObjectFile</text>
</a>
</g>
</g>
<!-- Node10&#45;&gt;Node20 -->
<g id="edge23_Node000010_Node000020" class="edge">
<title>Node10&#45;&gt;Node20</title>
<g id="a_edge23_Node000010_Node000020"><a xlink:title=" ">
<path fill="none" stroke="#63b8ff" d="M448.39,-91.33C452.95,-89.87 457.46,-88.31 461.75,-86.62 479.16,-79.81 481.27,-73.24 498.75,-66.62 506.76,-63.59 515.43,-60.97 523.98,-58.75"/>
<polygon fill="#63b8ff" stroke="#63b8ff" points="447.73,-87.87 439.15,-94.07 449.73,-94.58 447.73,-87.87"/>
</a>
</g>
</g>
<!-- Node21 -->
<g id="Node000021" class="node">
<title>Node21</title>
<g id="a_Node000021"><a xlink:href="classllvm_1_1object_1_1XCOFFObjectFile.html" target="_top" xlink:title=" ">
<polygon fill="white" stroke="#666666" points="652.38,-21.25 502.12,-21.25 502.12,-2 652.38,-2 652.38,-21.25"/>
<text xml:space="preserve" text-anchor="middle" x="577.25" y="-7.75" font-family="Helvetica,sans-Serif" font-size="10.00">llvm::object::XCOFFObjectFile</text>
</a>
</g>
</g>
<!-- Node10&#45;&gt;Node21 -->
<g id="edge24_Node000010_Node000021" class="edge">
<title>Node10&#45;&gt;Node21</title>
<g id="a_edge24_Node000010_Node000021"><a xlink:title=" ">
<path fill="none" stroke="#63b8ff" d="M457.48,-89.43C458.95,-88.55 460.37,-87.61 461.75,-86.62 486.28,-69.01 474.02,-46.97 498.75,-29.62 503.27,-26.45 508.28,-23.83 513.5,-21.67"/>
<polygon fill="#63b8ff" stroke="#63b8ff" points="456.02,-86.25 448.66,-93.87 459.17,-92.5 456.02,-86.25"/>
</a>
</g>
</g>
<!-- Node13 -->
<g id="Node000013" class="node">
<title>Node13</title>
<g id="a_Node000013"><a xlink:href="classllvm_1_1object_1_1ELFObjectFile.html" target="_top" xlink:title=" ">
<polygon fill="white" stroke="#666666" points="1063.75,-205.88 929.25,-205.88 929.25,-175.38 1063.75,-175.38 1063.75,-205.88"/>
<text xml:space="preserve" text-anchor="start" x="937.25" y="-192.38" font-family="Helvetica,sans-Serif" font-size="10.00">llvm::object::ELFObjectFile</text>
<text xml:space="preserve" text-anchor="middle" x="996.5" y="-181.12" font-family="Helvetica,sans-Serif" font-size="10.00">&lt; ELF32LE &gt;</text>
</a>
</g>
</g>
<!-- Node12&#45;&gt;Node13 -->
<g id="edge12_Node000012_Node000013" class="edge">
<title>Node12&#45;&gt;Node13</title>
<g id="a_edge12_Node000012_Node000013"><a xlink:title=" ">
<path fill="none" stroke="#63b8ff" d="M635.15,-172.3C642.11,-174.01 649.11,-175.8 655.75,-177.62 740.95,-200.97 757.94,-224.13 845.25,-237.62 874.24,-242.1 882.86,-245.01 911.25,-237.62 934.59,-231.55 958.33,-217.44 974.64,-206.26"/>
<polygon fill="#63b8ff" stroke="#63b8ff" points="636.31,-168.98 625.77,-170.05 634.67,-175.79 636.31,-168.98"/>
</a>
</g>
</g>
<!-- Node14 -->
<g id="Node000014" class="node">
<title>Node14</title>
<g id="a_Node000014"><a xlink:href="classllvm_1_1object_1_1ELFObjectFile.html" target="_top" xlink:title=" ">
<polygon fill="white" stroke="#666666" points="1063.75,-284.88 929.25,-284.88 929.25,-254.38 1063.75,-254.38 1063.75,-284.88"/>
<text xml:space="preserve" text-anchor="start" x="937.25" y="-271.38" font-family="Helvetica,sans-Serif" font-size="10.00">llvm::object::ELFObjectFile</text>
<text xml:space="preserve" text-anchor="middle" x="996.5" y="-260.12" font-family="Helvetica,sans-Serif" font-size="10.00">&lt; ELF64LE &gt;</text>
</a>
</g>
</g>
<!-- Node12&#45;&gt;Node14 -->
<g id="edge13_Node000012_Node000014" class="edge">
<title>Node12&#45;&gt;Node14</title>
<g id="a_edge13_Node000012_Node000014"><a xlink:title=" ">
<path fill="none" stroke="#63b8ff" d="M649.93,-174.25C651.93,-175.3 653.88,-176.42 655.75,-177.62 678.41,-192.19 669.76,-211.6 692.75,-225.62 764.73,-269.54 863.86,-275.91 928.79,-274.41"/>
<polygon fill="#63b8ff" stroke="#63b8ff" points="651.49,-171.11 640.93,-170.22 648.63,-177.5 651.49,-171.11"/>
</a>
</g>
</g>
<!-- Node15 -->
<g id="Node000015" class="node">
<title>Node15</title>
<g id="a_Node000015"><a xlink:href="classllvm_1_1object_1_1ELFObjectFile.html" target="_top" xlink:title=" ">
<polygon fill="white" stroke="#666666" points="1063.75,-68.88 929.25,-68.88 929.25,-38.38 1063.75,-38.38 1063.75,-68.88"/>
<text xml:space="preserve" text-anchor="start" x="937.25" y="-55.38" font-family="Helvetica,sans-Serif" font-size="10.00">llvm::object::ELFObjectFile</text>
<text xml:space="preserve" text-anchor="middle" x="996.5" y="-44.12" font-family="Helvetica,sans-Serif" font-size="10.00">&lt; ELF32BE &gt;</text>
</a>
</g>
</g>
<!-- Node12&#45;&gt;Node15 -->
<g id="edge14_Node000012_Node000015" class="edge">
<title>Node12&#45;&gt;Node15</title>
<g id="a_edge14_Node000012_Node000015"><a xlink:title=" ">
<path fill="none" stroke="#63b8ff" d="M652.1,-144.15C653.35,-143.35 654.57,-142.51 655.75,-141.62 682.4,-121.75 664.67,-94.41 692.75,-76.62 763.67,-31.71 863.51,-33.78 928.85,-41.75"/>
<polygon fill="#63b8ff" stroke="#63b8ff" points="650.5,-141.03 643.32,-148.81 653.79,-147.21 650.5,-141.03"/>
</a>
</g>
</g>
<!-- Node16 -->
<g id="Node000016" class="node">
<title>Node16</title>
<g id="a_Node000016"><a xlink:href="classllvm_1_1object_1_1ELFObjectFile.html" target="_top" xlink:title=" ">
<polygon fill="white" stroke="#666666" points="1063.75,-143.88 929.25,-143.88 929.25,-113.38 1063.75,-113.38 1063.75,-143.88"/>
<text xml:space="preserve" text-anchor="start" x="937.25" y="-130.38" font-family="Helvetica,sans-Serif" font-size="10.00">llvm::object::ELFObjectFile</text>
<text xml:space="preserve" text-anchor="middle" x="996.5" y="-119.12" font-family="Helvetica,sans-Serif" font-size="10.00">&lt; ELF64BE &gt;</text>
</a>
</g>
</g>
<!-- Node12&#45;&gt;Node16 -->
<g id="edge15_Node000012_Node000016" class="edge">
<title>Node12&#45;&gt;Node16</title>
<g id="a_edge15_Node000012_Node000016"><a xlink:title=" ">
<path fill="none" stroke="#63b8ff" d="M634.84,-146.89C641.9,-145.18 649,-143.4 655.75,-141.62 768.16,-111.99 798.22,-58.45 911.25,-85.62 933.28,-90.92 956.04,-103 972.35,-113.02"/>
<polygon fill="#63b8ff" stroke="#63b8ff" points="634.24,-143.44 625.32,-149.16 635.86,-150.25 634.24,-143.44"/>
</a>
</g>
</g>
<!-- Node17 -->
<g id="Node000017" class="node">
<title>Node17</title>
<g id="a_Node000017"><a xlink:href="classllvm_1_1object_1_1ELFObjectFile.html" target="_top" xlink:title=" ">
<polygon fill="white" stroke="#666666" points="827.25,-174.88 692.75,-174.88 692.75,-144.38 827.25,-144.38 827.25,-174.88"/>
<text xml:space="preserve" text-anchor="start" x="700.75" y="-161.38" font-family="Helvetica,sans-Serif" font-size="10.00">llvm::object::ELFObjectFile</text>
<text xml:space="preserve" text-anchor="middle" x="760" y="-150.12" font-family="Helvetica,sans-Serif" font-size="10.00">&lt; ELFT &gt;</text>
</a>
</g>
</g>
<!-- Node12&#45;&gt;Node17 -->
<g id="edge16_Node000012_Node000017" class="edge">
<title>Node12&#45;&gt;Node17</title>
<g id="a_edge16_Node000012_Node000017"><a xlink:title=" ">
<path fill="none" stroke="#63b8ff" d="M667.56,-159.62C675.91,-159.62 684.27,-159.62 692.35,-159.62"/>
<polygon fill="#63b8ff" stroke="#63b8ff" points="667.73,-156.13 657.73,-159.63 667.73,-163.13 667.73,-156.13"/>
</a>
</g>
</g>
<!-- Node17&#45;&gt;Node13 -->
<g id="edge17_Node000017_Node000013" class="edge">
<title>Node17&#45;&gt;Node13</title>
<g id="a_edge17_Node000017_Node000013"><a xlink:title=" ">
<path fill="none" stroke="orange" stroke-dasharray="5,2" d="M838.94,-169.93C868.03,-173.77 900.77,-178.1 928.76,-181.8"/>
<polygon fill="orange" stroke="orange" points="839.44,-166.46 829.07,-168.62 838.53,-173.4 839.44,-166.46"/>
</a>
</g>
<text xml:space="preserve" text-anchor="start" x="849" y="-183.56" font-family="Helvetica,sans-Serif" font-size="10.00" fill="grey">&lt; ELF32LE &gt;</text>
</g>
<!-- Node17&#45;&gt;Node14 -->
<g id="edge18_Node000017_Node000014" class="edge">
<title>Node17&#45;&gt;Node14</title>
<g id="a_edge18_Node000017_Node000014"><a xlink:title=" ">
<path fill="none" stroke="orange" stroke-dasharray="5,2" d="M804.27,-179.92C849.88,-201.32 920.74,-234.56 962.19,-254"/>
<polygon fill="orange" stroke="orange" points="806.01,-176.87 795.47,-175.79 803.04,-183.21 806.01,-176.87"/>
</a>
</g>
<text xml:space="preserve" text-anchor="start" x="849" y="-232.46" font-family="Helvetica,sans-Serif" font-size="10.00" fill="grey">&lt; ELF64LE &gt;</text>
</g>
<!-- Node17&#45;&gt;Node15 -->
<g id="edge19_Node000017_Node000015" class="edge">
<title>Node17&#45;&gt;Node15</title>
<g id="a_edge19_Node000017_Node000015"><a xlink:title=" ">
<path fill="none" stroke="orange" stroke-dasharray="5,2" d="M803.59,-138.94C816.89,-132.57 831.64,-125.6 845.25,-119.38 883.7,-101.78 928.1,-82.48 958.61,-69.36"/>
<polygon fill="orange" stroke="orange" points="802.15,-135.75 794.65,-143.24 805.18,-142.06 802.15,-135.75"/>
</a>
</g>
<text xml:space="preserve" text-anchor="start" x="848.25" y="-124.12" font-family="Helvetica,sans-Serif" font-size="10.00" fill="grey">&lt; ELF32BE &gt;</text>
</g>
<!-- Node17&#45;&gt;Node16 -->
<g id="edge20_Node000017_Node000016" class="edge">
<title>Node17&#45;&gt;Node16</title>
<g id="a_edge20_Node000017_Node000016"><a xlink:title=" ">
<path fill="none" stroke="orange" stroke-dasharray="5,2" d="M838.94,-149.32C868.03,-145.48 900.77,-141.15 928.76,-137.45"/>
<polygon fill="orange" stroke="orange" points="838.53,-145.85 829.07,-150.63 839.44,-152.79 838.53,-145.85"/>
</a>
</g>
<text xml:space="preserve" text-anchor="start" x="848.25" y="-152.56" font-family="Helvetica,sans-Serif" font-size="10.00" fill="grey">&lt; ELF64BE &gt;</text>
</g>
</g>
</svg>
