<?xml version="1.0" encoding="UTF-8" standalone="no"?>
<!DOCTYPE svg PUBLIC "-//W3C//DTD SVG 1.1//EN"
 "http://www.w3.org/Graphics/SVG/1.1/DTD/svg11.dtd">
<!-- Generated by graphviz version 13.1.2 (20250808.2320)
 -->
<!-- Title: llvm::jitlink::JITLinkerBase Pages: 1 -->
<svg width="832pt" height="520pt"
 viewBox="0.00 0.00 832.00 520.00" xmlns="http://www.w3.org/2000/svg" xmlns:xlink="http://www.w3.org/1999/xlink">
<g id="graph0" class="graph" transform="scale(1 1) rotate(0) translate(4 516.37)">
<title>llvm::jitlink::JITLinkerBase</title>
<!-- Node1 -->
<g id="Node000001" class="node">
<title>Node1</title>
<g id="a_Node000001"><a xlink:title="Base class for a JIT linker.">
<polygon fill="#999999" stroke="#666666" points="131.5,-265.36 0,-265.36 0,-246.11 131.5,-246.11 131.5,-265.36"/>
<text xml:space="preserve" text-anchor="middle" x="65.75" y="-251.86" font-family="Helvetica,sans-Serif" font-size="10.00">llvm::jitlink::JITLinkerBase</text>
</a>
</g>
</g>
<!-- Node2 -->
<g id="Node000002" class="node">
<title>Node2</title>
<g id="a_Node000002"><a xlink:href="classllvm_1_1jitlink_1_1JITLinker.html" target="_top" xlink:title=" ">
<polygon fill="white" stroke="#666666" points="639.25,-490.99 446.25,-490.99 446.25,-460.49 639.25,-460.49 639.25,-490.99"/>
<text xml:space="preserve" text-anchor="start" x="454.25" y="-477.49" font-family="Helvetica,sans-Serif" font-size="10.00">llvm::jitlink::JITLinker</text>
<text xml:space="preserve" text-anchor="middle" x="542.75" y="-466.24" font-family="Helvetica,sans-Serif" font-size="10.00">&lt; ELFJITLinker_ppc64&lt; Endianness &gt; &gt;</text>
</a>
</g>
</g>
<!-- Node1&#45;&gt;Node2 -->
<g id="edge1_Node000001_Node000002" class="edge">
<title>Node1&#45;&gt;Node2</title>
<g id="a_edge1_Node000001_Node000002"><a xlink:title=" ">
<path fill="none" stroke="#63b8ff" d="M72.7,-276.26C84.77,-314.59 115.58,-397.6 168.5,-446.74 255.05,-527.09 310.96,-516.49 428.25,-502.74 447.66,-500.46 468.57,-496.06 487.08,-491.47"/>
<polygon fill="#63b8ff" stroke="#63b8ff" points="76.12,-275.49 69.87,-266.93 69.42,-277.52 76.12,-275.49"/>
</a>
</g>
</g>
<!-- Node4 -->
<g id="Node000004" class="node">
<title>Node4</title>
<g id="a_Node000004"><a xlink:href="classllvm_1_1jitlink_1_1JITLinker.html" target="_top" xlink:title=" ">
<polygon fill="white" stroke="#666666" points="612.62,-439.99 472.88,-439.99 472.88,-409.49 612.62,-409.49 612.62,-439.99"/>
<text xml:space="preserve" text-anchor="start" x="480.88" y="-426.49" font-family="Helvetica,sans-Serif" font-size="10.00">llvm::jitlink::JITLinker</text>
<text xml:space="preserve" text-anchor="middle" x="542.75" y="-415.24" font-family="Helvetica,sans-Serif" font-size="10.00">&lt; XCOFFJITLinker_ppc64 &gt;</text>
</a>
</g>
</g>
<!-- Node1&#45;&gt;Node4 -->
<g id="edge3_Node000001_Node000004" class="edge">
<title>Node1&#45;&gt;Node4</title>
<g id="a_edge3_Node000001_Node000004"><a xlink:title=" ">
<path fill="none" stroke="#63b8ff" d="M78.12,-275.37C107.01,-322.84 188.55,-442.68 295.5,-479.74 351.25,-499.05 376.46,-508.01 428.25,-479.74 441.23,-472.65 434.36,-460.54 446.25,-451.74 454.14,-445.89 463.25,-441.31 472.65,-437.72"/>
<polygon fill="#63b8ff" stroke="#63b8ff" points="81.24,-273.76 73.12,-266.96 75.23,-277.35 81.24,-273.76"/>
</a>
</g>
</g>
<!-- Node6 -->
<g id="Node000006" class="node">
<title>Node6</title>
<g id="a_Node000006"><a xlink:href="classllvm_1_1jitlink_1_1JITLinker.html" target="_top" xlink:title=" ">
<polygon fill="white" stroke="#666666" points="608.88,-387.99 476.62,-387.99 476.62,-357.49 608.88,-357.49 608.88,-387.99"/>
<text xml:space="preserve" text-anchor="start" x="484.62" y="-374.49" font-family="Helvetica,sans-Serif" font-size="10.00">llvm::jitlink::JITLinker</text>
<text xml:space="preserve" text-anchor="middle" x="542.75" y="-363.24" font-family="Helvetica,sans-Serif" font-size="10.00">&lt; ELFJITLinker_aarch32 &gt;</text>
</a>
</g>
</g>
<!-- Node1&#45;&gt;Node6 -->
<g id="edge5_Node000001_Node000006" class="edge">
<title>Node1&#45;&gt;Node6</title>
<g id="a_edge5_Node000001_Node000006"><a xlink:title=" ">
<path fill="none" stroke="#63b8ff" d="M85.26,-273.01C121.91,-305.81 207.76,-375.87 295.5,-398.74 361.85,-416.02 441.11,-401.68 491.44,-388.4"/>
<polygon fill="#63b8ff" stroke="#63b8ff" points="87.91,-270.68 78.15,-266.54 83.2,-275.86 87.91,-270.68"/>
</a>
</g>
</g>
<!-- Node8 -->
<g id="Node000008" class="node">
<title>Node8</title>
<g id="a_Node000008"><a xlink:href="classllvm_1_1jitlink_1_1JITLinker.html" target="_top" xlink:title=" ">
<polygon fill="white" stroke="#666666" points="602.12,-331.99 483.38,-331.99 483.38,-301.49 602.12,-301.49 602.12,-331.99"/>
<text xml:space="preserve" text-anchor="start" x="491.38" y="-318.49" font-family="Helvetica,sans-Serif" font-size="10.00">llvm::jitlink::JITLinker</text>
<text xml:space="preserve" text-anchor="middle" x="542.75" y="-307.24" font-family="Helvetica,sans-Serif" font-size="10.00">&lt; ELFJITLinker_riscv &gt;</text>
</a>
</g>
</g>
<!-- Node1&#45;&gt;Node8 -->
<g id="edge7_Node000001_Node000008" class="edge">
<title>Node1&#45;&gt;Node8</title>
<g id="a_edge7_Node000001_Node000008"><a xlink:title=" ">
<path fill="none" stroke="#63b8ff" d="M98.68,-270.38C142.12,-289.43 222.77,-321.68 295.5,-333.74 353.71,-343.39 369.41,-338.12 428.25,-333.74 446.13,-332.4 465.47,-329.91 483.03,-327.23"/>
<polygon fill="#63b8ff" stroke="#63b8ff" points="100.15,-267.21 89.59,-266.35 97.31,-273.61 100.15,-267.21"/>
</a>
</g>
</g>
<!-- Node10 -->
<g id="Node000010" class="node">
<title>Node10</title>
<g id="a_Node000010"><a xlink:href="classllvm_1_1jitlink_1_1JITLinker.html" target="_top" xlink:title=" ">
<polygon fill="white" stroke="#666666" points="599.5,-196.99 486,-196.99 486,-166.49 599.5,-166.49 599.5,-196.99"/>
<text xml:space="preserve" text-anchor="start" x="494" y="-183.49" font-family="Helvetica,sans-Serif" font-size="10.00">llvm::jitlink::JITLinker</text>
<text xml:space="preserve" text-anchor="middle" x="542.75" y="-172.24" font-family="Helvetica,sans-Serif" font-size="10.00">&lt; ELFJITLinker_x86 &gt;</text>
</a>
</g>
</g>
<!-- Node1&#45;&gt;Node10 -->
<g id="edge9_Node000001_Node000010" class="edge">
<title>Node1&#45;&gt;Node10</title>
<g id="a_edge9_Node000001_Node000010"><a xlink:title=" ">
<path fill="none" stroke="#63b8ff" d="M85.83,-238.27C122.84,-205.86 208.41,-137.98 295.5,-118.74 353.11,-106.01 376.46,-90.46 428.25,-118.74 441.23,-125.82 434.7,-137.49 446.25,-146.74 457.69,-155.9 471.75,-162.8 485.53,-167.94"/>
<polygon fill="#63b8ff" stroke="#63b8ff" points="83.77,-235.42 78.63,-244.68 88.42,-240.64 83.77,-235.42"/>
</a>
</g>
</g>
<!-- Node12 -->
<g id="Node000012" class="node">
<title>Node12</title>
<g id="a_Node000012"><a xlink:href="classllvm_1_1jitlink_1_1JITLinker.html" target="_top" xlink:title=" ">
<polygon fill="white" stroke="#666666" points="607.38,-248.99 478.12,-248.99 478.12,-218.49 607.38,-218.49 607.38,-248.99"/>
<text xml:space="preserve" text-anchor="start" x="486.12" y="-235.49" font-family="Helvetica,sans-Serif" font-size="10.00">llvm::jitlink::JITLinker</text>
<text xml:space="preserve" text-anchor="middle" x="542.75" y="-224.24" font-family="Helvetica,sans-Serif" font-size="10.00">&lt; ELFJITLinker_x86_64 &gt;</text>
</a>
</g>
</g>
<!-- Node1&#45;&gt;Node12 -->
<g id="edge11_Node000001_Node000012" class="edge">
<title>Node1&#45;&gt;Node12</title>
<g id="a_edge11_Node000001_Node000012"><a xlink:title=" ">
<path fill="none" stroke="#63b8ff" d="M98.68,-241.09C142.12,-222.04 222.77,-189.79 295.5,-177.74 353.71,-168.08 376.46,-149.46 428.25,-177.74 441.23,-184.82 434.4,-196.87 446.25,-205.74 455.66,-212.77 466.81,-218.05 478.11,-222"/>
<polygon fill="#63b8ff" stroke="#63b8ff" points="97.31,-237.87 89.59,-245.12 100.15,-244.26 97.31,-237.87"/>
</a>
</g>
</g>
<!-- Node14 -->
<g id="Node000014" class="node">
<title>Node14</title>
<g id="a_Node000014"><a xlink:href="classllvm_1_1jitlink_1_1JITLinker.html" target="_top" xlink:title=" ">
<polygon fill="white" stroke="#666666" points="611.88,-137.99 473.62,-137.99 473.62,-107.49 611.88,-107.49 611.88,-137.99"/>
<text xml:space="preserve" text-anchor="start" x="481.62" y="-124.49" font-family="Helvetica,sans-Serif" font-size="10.00">llvm::jitlink::JITLinker</text>
<text xml:space="preserve" text-anchor="middle" x="542.75" y="-113.24" font-family="Helvetica,sans-Serif" font-size="10.00">&lt; MachOJITLinker_arm64 &gt;</text>
</a>
</g>
</g>
<!-- Node1&#45;&gt;Node14 -->
<g id="edge13_Node000001_Node000014" class="edge">
<title>Node1&#45;&gt;Node14</title>
<g id="a_edge13_Node000001_Node000014"><a xlink:title=" ">
<path fill="none" stroke="#63b8ff" d="M78.05,-235.83C94.91,-207.41 128.95,-154.78 168.5,-119.74 217.23,-76.56 232.6,-63.53 295.5,-46.74 352.5,-31.52 371.8,-29.58 428.25,-46.74 448.33,-52.84 494.9,-86.83 521.73,-107.23"/>
<polygon fill="#63b8ff" stroke="#63b8ff" points="75.03,-234.05 73.03,-244.46 81.08,-237.57 75.03,-234.05"/>
</a>
</g>
</g>
<!-- Node16 -->
<g id="Node000016" class="node">
<title>Node16</title>
<g id="a_Node000016"><a xlink:href="classllvm_1_1jitlink_1_1JITLinker.html" target="_top" xlink:title=" ">
<polygon fill="white" stroke="#666666" points="614.12,-45.99 471.38,-45.99 471.38,-15.49 614.12,-15.49 614.12,-45.99"/>
<text xml:space="preserve" text-anchor="start" x="479.38" y="-32.49" font-family="Helvetica,sans-Serif" font-size="10.00">llvm::jitlink::JITLinker</text>
<text xml:space="preserve" text-anchor="middle" x="542.75" y="-21.24" font-family="Helvetica,sans-Serif" font-size="10.00">&lt; MachOJITLinker_x86_64 &gt;</text>
</a>
</g>
</g>
<!-- Node1&#45;&gt;Node16 -->
<g id="edge15_Node000001_Node000016" class="edge">
<title>Node1&#45;&gt;Node16</title>
<g id="a_edge15_Node000001_Node000016"><a xlink:title=" ">
<path fill="none" stroke="#63b8ff" d="M70.4,-234.66C79.03,-191.84 104.9,-94.85 168.5,-48.74 260.54,18 401.49,1.8 481.24,-15.06"/>
<polygon fill="#63b8ff" stroke="#63b8ff" points="66.98,-233.91 68.58,-244.39 73.86,-235.2 66.98,-233.91"/>
</a>
</g>
</g>
<!-- Node18 -->
<g id="Node000018" class="node">
<title>Node18</title>
<g id="a_Node000018"><a xlink:href="classllvm_1_1jitlink_1_1JITLinker.html" target="_top" xlink:title=" ">
<polygon fill="white" stroke="#666666" points="277.5,-270.99 168.5,-270.99 168.5,-240.49 277.5,-240.49 277.5,-270.99"/>
<text xml:space="preserve" text-anchor="start" x="176.5" y="-257.49" font-family="Helvetica,sans-Serif" font-size="10.00">llvm::jitlink::JITLinker</text>
<text xml:space="preserve" text-anchor="middle" x="223" y="-246.24" font-family="Helvetica,sans-Serif" font-size="10.00">&lt; LinkerImpl &gt;</text>
</a>
</g>
</g>
<!-- Node1&#45;&gt;Node18 -->
<g id="edge17_Node000001_Node000018" class="edge">
<title>Node1&#45;&gt;Node18</title>
<g id="a_edge17_Node000001_Node000018"><a xlink:title=" ">
<path fill="none" stroke="#63b8ff" d="M143.15,-255.74C151.59,-255.74 160.05,-255.74 168.13,-255.74"/>
<polygon fill="#63b8ff" stroke="#63b8ff" points="143.2,-252.24 133.2,-255.74 143.2,-259.24 143.2,-252.24"/>
</a>
</g>
</g>
<!-- Node3 -->
<g id="Node000003" class="node">
<title>Node3</title>
<g id="a_Node000003"><a xlink:href="classllvm_1_1jitlink_1_1ELFJITLinker__ppc64.html" target="_top" xlink:title=" ">
<polygon fill="white" stroke="#666666" points="813.75,-490.99 686.75,-490.99 686.75,-460.49 813.75,-460.49 813.75,-490.99"/>
<text xml:space="preserve" text-anchor="start" x="694.75" y="-477.49" font-family="Helvetica,sans-Serif" font-size="10.00">llvm::jitlink::ELFJITLinker</text>
<text xml:space="preserve" text-anchor="middle" x="750.25" y="-466.24" font-family="Helvetica,sans-Serif" font-size="10.00">_ppc64&lt; Endianness &gt;</text>
</a>
</g>
</g>
<!-- Node2&#45;&gt;Node3 -->
<g id="edge2_Node000002_Node000003" class="edge">
<title>Node2&#45;&gt;Node3</title>
<g id="a_edge2_Node000002_Node000003"><a xlink:title=" ">
<path fill="none" stroke="#63b8ff" d="M650.78,-475.74C662.97,-475.74 675.09,-475.74 686.43,-475.74"/>
<polygon fill="#63b8ff" stroke="#63b8ff" points="651.09,-472.24 641.09,-475.74 651.09,-479.24 651.09,-472.24"/>
</a>
</g>
</g>
<!-- Node5 -->
<g id="Node000005" class="node">
<title>Node5</title>
<g id="a_Node000005"><a xlink:href="classllvm_1_1jitlink_1_1XCOFFJITLinker__ppc64.html" target="_top" xlink:title=" ">
<polygon fill="white" stroke="#666666" points="821.62,-439.99 678.88,-439.99 678.88,-409.49 821.62,-409.49 821.62,-439.99"/>
<text xml:space="preserve" text-anchor="start" x="686.88" y="-426.49" font-family="Helvetica,sans-Serif" font-size="10.00">llvm::jitlink::XCOFFJITLinker</text>
<text xml:space="preserve" text-anchor="middle" x="750.25" y="-415.24" font-family="Helvetica,sans-Serif" font-size="10.00">_ppc64</text>
</a>
</g>
</g>
<!-- Node4&#45;&gt;Node5 -->
<g id="edge4_Node000004_Node000005" class="edge">
<title>Node4&#45;&gt;Node5</title>
<g id="a_edge4_Node000004_Node000005"><a xlink:title=" ">
<path fill="none" stroke="#63b8ff" d="M624.33,-424.74C642.22,-424.74 661.05,-424.74 678.51,-424.74"/>
<polygon fill="#63b8ff" stroke="#63b8ff" points="624.55,-421.24 614.55,-424.74 624.55,-428.24 624.55,-421.24"/>
</a>
</g>
</g>
<!-- Node7 -->
<g id="Node000007" class="node">
<title>Node7</title>
<g id="a_Node000007"><a xlink:href="classllvm_1_1jitlink_1_1ELFJITLinker__aarch32.html" target="_top" xlink:title=" ">
<polygon fill="white" stroke="#666666" points="813.75,-387.99 686.75,-387.99 686.75,-357.49 813.75,-357.49 813.75,-387.99"/>
<text xml:space="preserve" text-anchor="start" x="694.75" y="-374.49" font-family="Helvetica,sans-Serif" font-size="10.00">llvm::jitlink::ELFJITLinker</text>
<text xml:space="preserve" text-anchor="middle" x="750.25" y="-363.24" font-family="Helvetica,sans-Serif" font-size="10.00">_aarch32</text>
</a>
</g>
</g>
<!-- Node6&#45;&gt;Node7 -->
<g id="edge6_Node000006_Node000007" class="edge">
<title>Node6&#45;&gt;Node7</title>
<g id="a_edge6_Node000006_Node000007"><a xlink:title=" ">
<path fill="none" stroke="#63b8ff" d="M620.82,-372.74C642.44,-372.74 665.69,-372.74 686.39,-372.74"/>
<polygon fill="#63b8ff" stroke="#63b8ff" points="620.85,-369.24 610.85,-372.74 620.85,-376.24 620.85,-369.24"/>
</a>
</g>
</g>
<!-- Node9 -->
<g id="Node000009" class="node">
<title>Node9</title>
<g id="a_Node000009"><a xlink:href="classllvm_1_1jitlink_1_1ELFJITLinker__riscv.html" target="_top" xlink:title=" ">
<polygon fill="white" stroke="#666666" points="813.75,-331.99 686.75,-331.99 686.75,-301.49 813.75,-301.49 813.75,-331.99"/>
<text xml:space="preserve" text-anchor="start" x="694.75" y="-318.49" font-family="Helvetica,sans-Serif" font-size="10.00">llvm::jitlink::ELFJITLinker</text>
<text xml:space="preserve" text-anchor="middle" x="750.25" y="-307.24" font-family="Helvetica,sans-Serif" font-size="10.00">_riscv</text>
</a>
</g>
</g>
<!-- Node8&#45;&gt;Node9 -->
<g id="edge8_Node000008_Node000009" class="edge">
<title>Node8&#45;&gt;Node9</title>
<g id="a_edge8_Node000008_Node000009"><a xlink:title=" ">
<path fill="none" stroke="#63b8ff" d="M613.73,-316.74C637.36,-316.74 663.58,-316.74 686.61,-316.74"/>
<polygon fill="#63b8ff" stroke="#63b8ff" points="613.88,-313.24 603.88,-316.74 613.88,-320.24 613.88,-313.24"/>
</a>
</g>
</g>
<!-- Node11 -->
<g id="Node000011" class="node">
<title>Node11</title>
<g id="a_Node000011"><a xlink:href="classllvm_1_1jitlink_1_1ELFJITLinker__x86.html" target="_top" xlink:title=" ">
<polygon fill="white" stroke="#666666" points="824.25,-191.36 676.25,-191.36 676.25,-172.11 824.25,-172.11 824.25,-191.36"/>
<text xml:space="preserve" text-anchor="middle" x="750.25" y="-177.86" font-family="Helvetica,sans-Serif" font-size="10.00">llvm::jitlink::ELFJITLinker_x86</text>
</a>
</g>
</g>
<!-- Node10&#45;&gt;Node11 -->
<g id="edge10_Node000010_Node000011" class="edge">
<title>Node10&#45;&gt;Node11</title>
<g id="a_edge10_Node000010_Node000011"><a xlink:title=" ">
<path fill="none" stroke="#63b8ff" d="M611.15,-181.74C631.85,-181.74 654.72,-181.74 675.8,-181.74"/>
<polygon fill="#63b8ff" stroke="#63b8ff" points="611.42,-178.24 601.42,-181.74 611.42,-185.24 611.42,-178.24"/>
</a>
</g>
</g>
<!-- Node13 -->
<g id="Node000013" class="node">
<title>Node13</title>
<g id="a_Node000013"><a xlink:href="classllvm_1_1jitlink_1_1ELFJITLinker__x86__64.html" target="_top" xlink:title=" ">
<polygon fill="white" stroke="#666666" points="813.75,-248.99 686.75,-248.99 686.75,-218.49 813.75,-218.49 813.75,-248.99"/>
<text xml:space="preserve" text-anchor="start" x="694.75" y="-235.49" font-family="Helvetica,sans-Serif" font-size="10.00">llvm::jitlink::ELFJITLinker</text>
<text xml:space="preserve" text-anchor="middle" x="750.25" y="-224.24" font-family="Helvetica,sans-Serif" font-size="10.00">_x86_64</text>
</a>
</g>
</g>
<!-- Node12&#45;&gt;Node13 -->
<g id="edge12_Node000012_Node000013" class="edge">
<title>Node12&#45;&gt;Node13</title>
<g id="a_edge12_Node000012_Node000013"><a xlink:title=" ">
<path fill="none" stroke="#63b8ff" d="M619.04,-233.74C641.19,-233.74 665.17,-233.74 686.45,-233.74"/>
<polygon fill="#63b8ff" stroke="#63b8ff" points="619.16,-230.24 609.16,-233.74 619.16,-237.24 619.16,-230.24"/>
</a>
</g>
</g>
<!-- Node15 -->
<g id="Node000015" class="node">
<title>Node15</title>
<g id="a_Node000015"><a xlink:href="classllvm_1_1jitlink_1_1MachOJITLinker__arm64.html" target="_top" xlink:title=" ">
<polygon fill="white" stroke="#666666" points="820.5,-137.99 680,-137.99 680,-107.49 820.5,-107.49 820.5,-137.99"/>
<text xml:space="preserve" text-anchor="start" x="688" y="-124.49" font-family="Helvetica,sans-Serif" font-size="10.00">llvm::jitlink::MachOJITLinker</text>
<text xml:space="preserve" text-anchor="middle" x="750.25" y="-113.24" font-family="Helvetica,sans-Serif" font-size="10.00">_arm64</text>
</a>
</g>
</g>
<!-- Node14&#45;&gt;Node15 -->
<g id="edge14_Node000014_Node000015" class="edge">
<title>Node14&#45;&gt;Node15</title>
<g id="a_edge14_Node000014_Node000015"><a xlink:title=" ">
<path fill="none" stroke="#63b8ff" d="M623.56,-122.74C642.09,-122.74 661.67,-122.74 679.72,-122.74"/>
<polygon fill="#63b8ff" stroke="#63b8ff" points="623.69,-119.24 613.69,-122.74 623.69,-126.24 623.69,-119.24"/>
</a>
</g>
</g>
<!-- Node17 -->
<g id="Node000017" class="node">
<title>Node17</title>
<g id="a_Node000017"><a xlink:href="classllvm_1_1jitlink_1_1MachOJITLinker__x86__64.html" target="_top" xlink:title=" ">
<polygon fill="white" stroke="#666666" points="820.5,-45.99 680,-45.99 680,-15.49 820.5,-15.49 820.5,-45.99"/>
<text xml:space="preserve" text-anchor="start" x="688" y="-32.49" font-family="Helvetica,sans-Serif" font-size="10.00">llvm::jitlink::MachOJITLinker</text>
<text xml:space="preserve" text-anchor="middle" x="750.25" y="-21.24" font-family="Helvetica,sans-Serif" font-size="10.00">_x86_64</text>
</a>
</g>
</g>
<!-- Node16&#45;&gt;Node17 -->
<g id="edge16_Node000016_Node000017" class="edge">
<title>Node16&#45;&gt;Node17</title>
<g id="a_edge16_Node000016_Node000017"><a xlink:title=" ">
<path fill="none" stroke="#63b8ff" d="M625.78,-30.74C643.67,-30.74 662.44,-30.74 679.79,-30.74"/>
<polygon fill="#63b8ff" stroke="#63b8ff" points="625.99,-27.24 615.98,-30.74 625.98,-34.24 625.99,-27.24"/>
</a>
</g>
</g>
<!-- Node18&#45;&gt;Node2 -->
<g id="edge18_Node000018_Node000002" class="edge">
<title>Node18&#45;&gt;Node2</title>
<g id="a_edge18_Node000018_Node000002"><a xlink:title=" ">
<path fill="none" stroke="orange" stroke-dasharray="5,2" d="M227.79,-282.26C234.55,-319.32 252.26,-386.05 295.5,-421.74 337.27,-456.21 396.2,-469.97 445.94,-474.99"/>
<polygon fill="orange" stroke="orange" points="231.32,-282.13 226.22,-272.84 224.42,-283.28 231.32,-282.13"/>
</a>
</g>
<text xml:space="preserve" text-anchor="start" x="312.38" y="-492.54" font-family="Helvetica,sans-Serif" font-size="10.00" fill="grey">&lt; ELFJITLinker_ppc64</text>
<text xml:space="preserve" text-anchor="start" x="312.38" y="-477.29" font-family="Helvetica,sans-Serif" font-size="10.00" fill="grey">  &lt; Endianness &gt; &gt;</text>
</g>
<!-- Node18&#45;&gt;Node4 -->
<g id="edge19_Node000018_Node000004" class="edge">
<title>Node18&#45;&gt;Node4</title>
<g id="a_edge19_Node000018_Node000004"><a xlink:title=" ">
<path fill="none" stroke="orange" stroke-dasharray="5,2" d="M235.43,-281.55C247.18,-305.12 267.68,-339.17 295.5,-358.74 323.92,-378.72 410.1,-399.02 472.5,-411.73"/>
<polygon fill="orange" stroke="orange" points="238.63,-280.13 231.17,-272.61 232.31,-283.14 238.63,-280.13"/>
</a>
</g>
<text xml:space="preserve" text-anchor="start" x="300" y="-405.65" font-family="Helvetica,sans-Serif" font-size="10.00" fill="grey">&lt; XCOFFJITLinker_ppc64 &gt;</text>
</g>
<!-- Node18&#45;&gt;Node6 -->
<g id="edge20_Node000018_Node000006" class="edge">
<title>Node18&#45;&gt;Node6</title>
<g id="a_edge20_Node000018_Node000006"><a xlink:title=" ">
<path fill="none" stroke="orange" stroke-dasharray="5,2" d="M260.37,-276.67C271.45,-282.61 283.8,-288.8 295.5,-293.74 357.85,-320.06 432.16,-342.78 482.72,-357"/>
<polygon fill="orange" stroke="orange" points="262.39,-273.79 251.94,-272.06 259.03,-279.93 262.39,-273.79"/>
</a>
</g>
<text xml:space="preserve" text-anchor="start" x="303.75" y="-345.61" font-family="Helvetica,sans-Serif" font-size="10.00" fill="grey">&lt; ELFJITLinker_aarch32 &gt;</text>
</g>
<!-- Node18&#45;&gt;Node8 -->
<g id="edge21_Node000018_Node000008" class="edge">
<title>Node18&#45;&gt;Node8</title>
<g id="a_edge21_Node000018_Node000008"><a xlink:title=" ">
<path fill="none" stroke="orange" stroke-dasharray="5,2" d="M289.21,-258.38C329.64,-260.99 382.42,-266.19 428.25,-276.49 454.36,-282.35 482.74,-292.41 504.58,-301.01"/>
<polygon fill="orange" stroke="orange" points="289.59,-254.89 279.4,-257.78 289.17,-261.88 289.59,-254.89"/>
</a>
</g>
<text xml:space="preserve" text-anchor="start" x="310.5" y="-281.24" font-family="Helvetica,sans-Serif" font-size="10.00" fill="grey">&lt; ELFJITLinker_riscv &gt;</text>
</g>
<!-- Node18&#45;&gt;Node10 -->
<g id="edge22_Node000018_Node000010" class="edge">
<title>Node18&#45;&gt;Node10</title>
<g id="a_edge22_Node000018_Node000010"><a xlink:title=" ">
<path fill="none" stroke="orange" stroke-dasharray="5,2" d="M250.8,-233.04C263.54,-223.52 279.46,-213.32 295.5,-207.49 357.91,-184.78 434.68,-180.1 485.75,-179.96"/>
<polygon fill="orange" stroke="orange" points="248.66,-230.27 242.93,-239.18 252.96,-235.79 248.66,-230.27"/>
</a>
</g>
<text xml:space="preserve" text-anchor="start" x="313.12" y="-212.24" font-family="Helvetica,sans-Serif" font-size="10.00" fill="grey">&lt; ELFJITLinker_x86 &gt;</text>
</g>
<!-- Node18&#45;&gt;Node12 -->
<g id="edge23_Node000018_Node000012" class="edge">
<title>Node18&#45;&gt;Node12</title>
<g id="a_edge23_Node000018_Node000012"><a xlink:title=" ">
<path fill="none" stroke="orange" stroke-dasharray="5,2" d="M287.5,-237.76C290.19,-237.28 292.87,-236.85 295.5,-236.49 356.91,-228.01 427.76,-228.26 477.65,-230.06"/>
<polygon fill="orange" stroke="orange" points="286.99,-234.3 277.89,-239.72 288.38,-241.15 286.99,-234.3"/>
</a>
</g>
<text xml:space="preserve" text-anchor="start" x="305.25" y="-241.24" font-family="Helvetica,sans-Serif" font-size="10.00" fill="grey">&lt; ELFJITLinker_x86_64 &gt;</text>
</g>
<!-- Node18&#45;&gt;Node14 -->
<g id="edge24_Node000018_Node000014" class="edge">
<title>Node18&#45;&gt;Node14</title>
<g id="a_edge24_Node000018_Node000014"><a xlink:title=" ">
<path fill="none" stroke="orange" stroke-dasharray="5,2" d="M236.04,-230.14C247.9,-207.92 268.21,-176.83 295.5,-160.49 349.31,-128.27 421.16,-120.44 473.36,-119.7"/>
<polygon fill="orange" stroke="orange" points="233,-228.38 231.58,-238.88 239.24,-231.56 233,-228.38"/>
</a>
</g>
<text xml:space="preserve" text-anchor="start" x="300.75" y="-165.24" font-family="Helvetica,sans-Serif" font-size="10.00" fill="grey">&lt; MachOJITLinker_arm64 &gt;</text>
</g>
<!-- Node18&#45;&gt;Node16 -->
<g id="edge25_Node000018_Node000016" class="edge">
<title>Node18&#45;&gt;Node16</title>
<g id="a_edge25_Node000018_Node000016"><a xlink:title=" ">
<path fill="none" stroke="orange" stroke-dasharray="5,2" d="M229.24,-228.94C237.39,-194.44 256.4,-134.98 295.5,-101.49 344.57,-59.46 417.23,-42.34 470.92,-35.4"/>
<polygon fill="orange" stroke="orange" points="225.86,-228.02 227.12,-238.54 232.7,-229.52 225.86,-228.02"/>
</a>
</g>
<text xml:space="preserve" text-anchor="start" x="298.5" y="-106.24" font-family="Helvetica,sans-Serif" font-size="10.00" fill="grey">&lt; MachOJITLinker_x86_64 &gt;</text>
</g>
</g>
</svg>
