<?xml version="1.0" encoding="UTF-8" standalone="no"?>
<!DOCTYPE svg PUBLIC "-//W3C//DTD SVG 1.1//EN"
 "http://www.w3.org/Graphics/SVG/1.1/DTD/svg11.dtd">
<!-- Generated by graphviz version 13.1.2 (20250808.2320)
 -->
<!-- Title: llvm::SmallPtrSetIterator&lt; PtrTy &gt; Pages: 1 -->
<svg width="287pt" height="190pt"
 viewBox="0.00 0.00 287.00 190.00" xmlns="http://www.w3.org/2000/svg" xmlns:xlink="http://www.w3.org/1999/xlink">
<g id="graph0" class="graph" transform="scale(1 1) rotate(0) translate(4 185.75)">
<title>llvm::SmallPtrSetIterator&lt; PtrTy &gt;</title>
<!-- Node1 -->
<g id="Node000001" class="node">
<title>Node1</title>
<g id="a_Node000001"><a xlink:title="SmallPtrSetIterator &#45; This implements a const_iterator for SmallPtrSet.">
<polygon fill="#999999" stroke="#666666" points="206.62,-114.25 83.38,-114.25 83.38,-83.75 206.62,-83.75 206.62,-114.25"/>
<text xml:space="preserve" text-anchor="start" x="91.38" y="-100.75" font-family="Helvetica,sans-Serif" font-size="10.00">llvm::SmallPtrSetIterator</text>
<text xml:space="preserve" text-anchor="middle" x="145" y="-89.5" font-family="Helvetica,sans-Serif" font-size="10.00">&lt; PtrTy &gt;</text>
</a>
</g>
</g>
<!-- Node4 -->
<g id="Node000004" class="node">
<title>Node4</title>
<g id="a_Node000004"><a xlink:href="classllvm_1_1SmallPtrSetIterator.html" target="_top" xlink:title=" ">
<polygon fill="white" stroke="#666666" points="136.62,-30.5 13.38,-30.5 13.38,0 136.62,0 136.62,-30.5"/>
<text xml:space="preserve" text-anchor="start" x="21.38" y="-17" font-family="Helvetica,sans-Serif" font-size="10.00">llvm::SmallPtrSetIterator</text>
<text xml:space="preserve" text-anchor="middle" x="75" y="-5.75" font-family="Helvetica,sans-Serif" font-size="10.00">&lt; PtrType &gt;</text>
</a>
</g>
</g>
<!-- Node1&#45;&gt;Node4 -->
<g id="edge3_Node000001_Node000004" class="edge">
<title>Node1&#45;&gt;Node4</title>
<g id="a_edge3_Node000001_Node000004"><a xlink:title=" ">
<path fill="none" stroke="orange" stroke-dasharray="5,2" d="M125.03,-74.68C112.91,-60.53 97.83,-42.91 87.41,-30.74"/>
<polygon fill="orange" stroke="orange" points="122.34,-76.92 131.5,-82.24 127.66,-72.36 122.34,-76.92"/>
</a>
</g>
<text xml:space="preserve" text-anchor="start" x="119.27" y="-53.25" font-family="Helvetica,sans-Serif" font-size="10.00" fill="grey">&lt; PtrType &gt;</text>
</g>
<!-- Node5 -->
<g id="Node000005" class="node">
<title>Node5</title>
<g id="a_Node000005"><a xlink:href="classllvm_1_1SmallPtrSetIterator.html" target="_top" xlink:title=" ">
<polygon fill="white" stroke="#666666" points="277.62,-30.5 154.38,-30.5 154.38,0 277.62,0 277.62,-30.5"/>
<text xml:space="preserve" text-anchor="start" x="162.38" y="-17" font-family="Helvetica,sans-Serif" font-size="10.00">llvm::SmallPtrSetIterator</text>
<text xml:space="preserve" text-anchor="middle" x="216" y="-5.75" font-family="Helvetica,sans-Serif" font-size="10.00">&lt; MachineInstr * &gt;</text>
</a>
</g>
</g>
<!-- Node1&#45;&gt;Node5 -->
<g id="edge4_Node000001_Node000005" class="edge">
<title>Node1&#45;&gt;Node5</title>
<g id="a_edge4_Node000001_Node000005"><a xlink:title=" ">
<path fill="none" stroke="orange" stroke-dasharray="5,2" d="M169,-75.34C172.1,-72.18 175.18,-68.93 178,-65.75 187.92,-54.57 198.19,-41.06 205.55,-30.98"/>
<polygon fill="orange" stroke="orange" points="166.63,-72.76 161.98,-82.28 171.55,-77.74 166.63,-72.76"/>
</a>
</g>
<text xml:space="preserve" text-anchor="start" x="195.23" y="-53.25" font-family="Helvetica,sans-Serif" font-size="10.00" fill="grey">&lt; MachineInstr * &gt;</text>
</g>
<!-- Node2 -->
<g id="Node000002" class="node">
<title>Node2</title>
<g id="a_Node000002"><a xlink:href="classllvm_1_1SmallPtrSetIteratorImpl.html" target="_top" xlink:title="SmallPtrSetIteratorImpl &#45; This is the common base class shared between all instances of SmallPtrSetIt...">
<polygon fill="white" stroke="#666666" points="142,-176.12 0,-176.12 0,-156.88 142,-156.88 142,-176.12"/>
<text xml:space="preserve" text-anchor="middle" x="71" y="-162.62" font-family="Helvetica,sans-Serif" font-size="10.00">llvm::SmallPtrSetIteratorImpl</text>
</a>
</g>
</g>
<!-- Node2&#45;&gt;Node1 -->
<g id="edge1_Node000001_Node000002" class="edge">
<title>Node2&#45;&gt;Node1</title>
<g id="a_edge1_Node000001_Node000002"><a xlink:title=" ">
<path fill="none" stroke="#63b8ff" d="M89.65,-148.99C101.63,-138.39 117.03,-124.76 128.54,-114.57"/>
<polygon fill="#63b8ff" stroke="#63b8ff" points="87.59,-146.14 82.42,-155.39 92.23,-151.38 87.59,-146.14"/>
</a>
</g>
</g>
<!-- Node3 -->
<g id="Node000003" class="node">
<title>Node3</title>
<g id="a_Node000003"><a xlink:href="classllvm_1_1DebugEpochBase_1_1HandleBase.html" target="_top" xlink:title=" ">
<polygon fill="white" stroke="#666666" points="278.38,-181.75 159.62,-181.75 159.62,-151.25 278.38,-151.25 278.38,-181.75"/>
<text xml:space="preserve" text-anchor="start" x="167.62" y="-168.25" font-family="Helvetica,sans-Serif" font-size="10.00">llvm::DebugEpochBase</text>
<text xml:space="preserve" text-anchor="middle" x="219" y="-157" font-family="Helvetica,sans-Serif" font-size="10.00">::HandleBase</text>
</a>
</g>
</g>
<!-- Node3&#45;&gt;Node1 -->
<g id="edge2_Node000001_Node000003" class="edge">
<title>Node3&#45;&gt;Node1</title>
<g id="a_edge2_Node000001_Node000003"><a xlink:title=" ">
<path fill="none" stroke="#8b1a1a" d="M194.05,-143.42C183.37,-133.96 171.19,-123.18 161.63,-114.72"/>
<polygon fill="#8b1a1a" stroke="#8b1a1a" points="191.64,-145.95 201.44,-149.96 196.28,-140.71 191.64,-145.95"/>
</a>
</g>
</g>
</g>
</svg>
