<?xml version="1.0" encoding="UTF-8" standalone="no"?>
<!DOCTYPE svg PUBLIC "-//W3C//DTD SVG 1.1//EN"
 "http://www.w3.org/Graphics/SVG/1.1/DTD/svg11.dtd">
<!-- Generated by graphviz version 13.1.2 (20250808.2320)
 -->
<!-- Title: llvm::AMDGPUTargetMachine Pages: 1 -->
<svg width="280pt" height="193pt"
 viewBox="0.00 0.00 280.00 193.00" xmlns="http://www.w3.org/2000/svg" xmlns:xlink="http://www.w3.org/1999/xlink">
<g id="graph0" class="graph" transform="scale(1 1) rotate(0) translate(4 189)">
<title>llvm::AMDGPUTargetMachine</title>
<!-- Node1 -->
<g id="Node000001" class="node">
<title>Node1</title>
<g id="a_Node000001"><a xlink:title=" ">
<polygon fill="#999999" stroke="#666666" points="209.12,-74.5 61.12,-74.5 61.12,-55.25 209.12,-55.25 209.12,-74.5"/>
<text xml:space="preserve" text-anchor="middle" x="135.12" y="-61" font-family="Helvetica,sans-Serif" font-size="10.00">llvm::AMDGPUTargetMachine</text>
</a>
</g>
</g>
<!-- Node4 -->
<g id="Node000004" class="node">
<title>Node4</title>
<g id="a_Node000004"><a xlink:href="classllvm_1_1GCNTargetMachine.html" target="_top" xlink:title=" ">
<polygon fill="white" stroke="#666666" points="126.25,-19.25 0,-19.25 0,0 126.25,0 126.25,-19.25"/>
<text xml:space="preserve" text-anchor="middle" x="63.12" y="-5.75" font-family="Helvetica,sans-Serif" font-size="10.00">llvm::GCNTargetMachine</text>
</a>
</g>
</g>
<!-- Node1&#45;&gt;Node4 -->
<g id="edge3_Node000001_Node000004" class="edge">
<title>Node1&#45;&gt;Node4</title>
<g id="a_edge3_Node000001_Node000004"><a xlink:title=" ">
<path fill="none" stroke="#63b8ff" d="M113.95,-48.22C101.31,-38.87 85.72,-27.33 75.16,-19.52"/>
<polygon fill="#63b8ff" stroke="#63b8ff" points="111.57,-50.81 121.69,-53.94 115.74,-45.18 111.57,-50.81"/>
</a>
</g>
</g>
<!-- Node5 -->
<g id="Node000005" class="node">
<title>Node5</title>
<g id="a_Node000005"><a xlink:href="classllvm_1_1R600TargetMachine.html" target="_top" xlink:title=" ">
<polygon fill="white" stroke="#666666" points="271.62,-19.25 144.62,-19.25 144.62,0 271.62,0 271.62,-19.25"/>
<text xml:space="preserve" text-anchor="middle" x="208.12" y="-5.75" font-family="Helvetica,sans-Serif" font-size="10.00">llvm::R600TargetMachine</text>
</a>
</g>
</g>
<!-- Node1&#45;&gt;Node5 -->
<g id="edge4_Node000001_Node000005" class="edge">
<title>Node1&#45;&gt;Node5</title>
<g id="a_edge4_Node000001_Node000005"><a xlink:title=" ">
<path fill="none" stroke="#63b8ff" d="M156.59,-48.22C169.41,-38.87 185.22,-27.33 195.92,-19.52"/>
<polygon fill="#63b8ff" stroke="#63b8ff" points="154.75,-45.23 148.73,-53.95 158.87,-50.88 154.75,-45.23"/>
</a>
</g>
</g>
<!-- Node2 -->
<g id="Node000002" class="node">
<title>Node2</title>
<g id="a_Node000002"><a xlink:href="classllvm_1_1CodeGenTargetMachineImpl.html" target="_top" xlink:title="implements a set of functionality in the TargetMachine class for targets that make use of the indepen...">
<polygon fill="white" stroke="#666666" points="217,-129.75 53.25,-129.75 53.25,-110.5 217,-110.5 217,-129.75"/>
<text xml:space="preserve" text-anchor="middle" x="135.12" y="-116.25" font-family="Helvetica,sans-Serif" font-size="10.00">llvm::CodeGenTargetMachineImpl</text>
</a>
</g>
</g>
<!-- Node2&#45;&gt;Node1 -->
<g id="edge1_Node000001_Node000002" class="edge">
<title>Node2&#45;&gt;Node1</title>
<g id="a_edge1_Node000001_Node000002"><a xlink:title=" ">
<path fill="none" stroke="#63b8ff" d="M135.12,-98.88C135.12,-90.59 135.12,-81.42 135.12,-74.86"/>
<polygon fill="#63b8ff" stroke="#63b8ff" points="131.63,-98.82 135.13,-108.82 138.63,-98.82 131.63,-98.82"/>
</a>
</g>
</g>
<!-- Node3 -->
<g id="Node000003" class="node">
<title>Node3</title>
<g id="a_Node000003"><a xlink:href="classllvm_1_1TargetMachine.html" target="_top" xlink:title="Primary interface to the complete machine description for the target machine.">
<polygon fill="white" stroke="#666666" points="187,-185 83.25,-185 83.25,-165.75 187,-165.75 187,-185"/>
<text xml:space="preserve" text-anchor="middle" x="135.12" y="-171.5" font-family="Helvetica,sans-Serif" font-size="10.00">llvm::TargetMachine</text>
</a>
</g>
</g>
<!-- Node3&#45;&gt;Node2 -->
<g id="edge2_Node000002_Node000003" class="edge">
<title>Node3&#45;&gt;Node2</title>
<g id="a_edge2_Node000002_Node000003"><a xlink:title=" ">
<path fill="none" stroke="#63b8ff" d="M135.12,-154.13C135.12,-145.84 135.12,-136.67 135.12,-130.11"/>
<polygon fill="#63b8ff" stroke="#63b8ff" points="131.63,-154.07 135.13,-164.07 138.63,-154.07 131.63,-154.07"/>
</a>
</g>
</g>
</g>
</svg>
