<?xml version="1.0" encoding="UTF-8" standalone="no"?>
<!DOCTYPE svg PUBLIC "-//W3C//DTD SVG 1.1//EN"
 "http://www.w3.org/Graphics/SVG/1.1/DTD/svg11.dtd">
<!-- Generated by graphviz version 13.1.2 (20250808.2320)
 -->
<!-- Title: llvm::MCObjectTargetWriter Pages: 1 -->
<svg width="504pt" height="370pt"
 viewBox="0.00 0.00 504.00 370.00" xmlns="http://www.w3.org/2000/svg" xmlns:xlink="http://www.w3.org/1999/xlink">
<g id="graph0" class="graph" transform="scale(1 1) rotate(0) translate(4 365.5)">
<title>llvm::MCObjectTargetWriter</title>
<!-- Node1 -->
<g id="Node000001" class="node">
<title>Node1</title>
<g id="a_Node000001"><a xlink:title="Base class for classes that define behaviour that is specific to both the target and the object forma...">
<polygon fill="#999999" stroke="#666666" points="136.75,-195.88 0,-195.88 0,-176.62 136.75,-176.62 136.75,-195.88"/>
<text xml:space="preserve" text-anchor="middle" x="68.38" y="-182.38" font-family="Helvetica,sans-Serif" font-size="10.00">llvm::MCObjectTargetWriter</text>
</a>
</g>
</g>
<!-- Node2 -->
<g id="Node000002" class="node">
<title>Node2</title>
<g id="a_Node000002"><a xlink:href="classllvm_1_1MCDXContainerTargetWriter.html" target="_top" xlink:title=" ">
<polygon fill="white" stroke="#666666" points="320,-361.5 181,-361.5 181,-331 320,-331 320,-361.5"/>
<text xml:space="preserve" text-anchor="start" x="189" y="-348" font-family="Helvetica,sans-Serif" font-size="10.00">llvm::MCDXContainerTarget</text>
<text xml:space="preserve" text-anchor="middle" x="250.5" y="-336.75" font-family="Helvetica,sans-Serif" font-size="10.00">Writer</text>
</a>
</g>
</g>
<!-- Node1&#45;&gt;Node2 -->
<g id="edge1_Node000001_Node000002" class="edge">
<title>Node1&#45;&gt;Node2</title>
<g id="a_edge1_Node000001_Node000002"><a xlink:title=" ">
<path fill="none" stroke="#63b8ff" d="M79.28,-206.11C95.04,-235.72 128.62,-291.28 172.75,-322.25 177.32,-325.46 182.34,-328.25 187.55,-330.68"/>
<polygon fill="#63b8ff" stroke="#63b8ff" points="82.52,-204.76 74.82,-197.48 76.3,-207.97 82.52,-204.76"/>
</a>
</g>
</g>
<!-- Node3 -->
<g id="Node000003" class="node">
<title>Node3</title>
<g id="a_Node000003"><a xlink:href="classllvm_1_1MCELFObjectTargetWriter.html" target="_top" xlink:title=" ">
<polygon fill="white" stroke="#666666" points="327.88,-312.88 173.12,-312.88 173.12,-293.62 327.88,-293.62 327.88,-312.88"/>
<text xml:space="preserve" text-anchor="middle" x="250.5" y="-299.38" font-family="Helvetica,sans-Serif" font-size="10.00">llvm::MCELFObjectTargetWriter</text>
</a>
</g>
</g>
<!-- Node1&#45;&gt;Node3 -->
<g id="edge2_Node000001_Node000003" class="edge">
<title>Node1&#45;&gt;Node3</title>
<g id="a_edge2_Node000001_Node000003"><a xlink:title=" ">
<path fill="none" stroke="#63b8ff" d="M84.09,-205.22C102.44,-227.53 135.9,-264.09 172.75,-284.25 179.37,-287.87 186.69,-290.82 194.1,-293.21"/>
<polygon fill="#63b8ff" stroke="#63b8ff" points="86.91,-203.14 77.93,-197.53 81.45,-207.52 86.91,-203.14"/>
</a>
</g>
</g>
<!-- Node5 -->
<g id="Node000005" class="node">
<title>Node5</title>
<g id="a_Node000005"><a xlink:href="classllvm_1_1MCGOFFObjectTargetWriter.html" target="_top" xlink:title=" ">
<polygon fill="white" stroke="#666666" points="319.62,-275.5 181.38,-275.5 181.38,-245 319.62,-245 319.62,-275.5"/>
<text xml:space="preserve" text-anchor="start" x="189.38" y="-262" font-family="Helvetica,sans-Serif" font-size="10.00">llvm::MCGOFFObjectTarget</text>
<text xml:space="preserve" text-anchor="middle" x="250.5" y="-250.75" font-family="Helvetica,sans-Serif" font-size="10.00">Writer</text>
</a>
</g>
</g>
<!-- Node1&#45;&gt;Node5 -->
<g id="edge4_Node000001_Node000005" class="edge">
<title>Node1&#45;&gt;Node5</title>
<g id="a_edge4_Node000001_Node000005"><a xlink:title=" ">
<path fill="none" stroke="#63b8ff" d="M98.71,-201.39C119.17,-211.64 147.25,-225.1 172.75,-235.25 180.95,-238.51 189.77,-241.69 198.39,-244.61"/>
<polygon fill="#63b8ff" stroke="#63b8ff" points="100.34,-198.29 89.83,-196.9 97.18,-204.53 100.34,-198.29"/>
</a>
</g>
</g>
<!-- Node6 -->
<g id="Node000006" class="node">
<title>Node6</title>
<g id="a_Node000006"><a xlink:href="classllvm_1_1MCMachObjectTargetWriter.html" target="_top" xlink:title=" ">
<polygon fill="white" stroke="#666666" points="318.12,-226.5 182.88,-226.5 182.88,-196 318.12,-196 318.12,-226.5"/>
<text xml:space="preserve" text-anchor="start" x="190.88" y="-213" font-family="Helvetica,sans-Serif" font-size="10.00">llvm::MCMachObjectTarget</text>
<text xml:space="preserve" text-anchor="middle" x="250.5" y="-201.75" font-family="Helvetica,sans-Serif" font-size="10.00">Writer</text>
</a>
</g>
</g>
<!-- Node1&#45;&gt;Node6 -->
<g id="edge5_Node000001_Node000006" class="edge">
<title>Node1&#45;&gt;Node6</title>
<g id="a_edge5_Node000001_Node000006"><a xlink:title=" ">
<path fill="none" stroke="#63b8ff" d="M148.49,-197.23C159.88,-198.81 171.5,-200.42 182.62,-201.97"/>
<polygon fill="#63b8ff" stroke="#63b8ff" points="149.1,-193.78 138.72,-195.87 148.14,-200.72 149.1,-193.78"/>
</a>
</g>
</g>
<!-- Node7 -->
<g id="Node000007" class="node">
<title>Node7</title>
<g id="a_Node000007"><a xlink:href="classllvm_1_1MCSPIRVObjectTargetWriter.html" target="_top" xlink:title=" ">
<polygon fill="white" stroke="#666666" points="321.5,-177.5 179.5,-177.5 179.5,-147 321.5,-147 321.5,-177.5"/>
<text xml:space="preserve" text-anchor="start" x="187.5" y="-164" font-family="Helvetica,sans-Serif" font-size="10.00">llvm::MCSPIRVObjectTarget</text>
<text xml:space="preserve" text-anchor="middle" x="250.5" y="-152.75" font-family="Helvetica,sans-Serif" font-size="10.00">Writer</text>
</a>
</g>
</g>
<!-- Node1&#45;&gt;Node7 -->
<g id="edge6_Node000001_Node000007" class="edge">
<title>Node1&#45;&gt;Node7</title>
<g id="a_edge6_Node000001_Node000007"><a xlink:title=" ">
<path fill="none" stroke="#63b8ff" d="M148.56,-175.7C158.7,-174.35 169.03,-172.97 179.02,-171.64"/>
<polygon fill="#63b8ff" stroke="#63b8ff" points="148.17,-172.22 138.72,-177.01 149.09,-179.16 148.17,-172.22"/>
</a>
</g>
</g>
<!-- Node8 -->
<g id="Node000008" class="node">
<title>Node8</title>
<g id="a_Node000008"><a xlink:href="classllvm_1_1MCWasmObjectTargetWriter.html" target="_top" xlink:title=" ">
<polygon fill="white" stroke="#666666" points="320,-128.5 181,-128.5 181,-98 320,-98 320,-128.5"/>
<text xml:space="preserve" text-anchor="start" x="189" y="-115" font-family="Helvetica,sans-Serif" font-size="10.00">llvm::MCWasmObjectTarget</text>
<text xml:space="preserve" text-anchor="middle" x="250.5" y="-103.75" font-family="Helvetica,sans-Serif" font-size="10.00">Writer</text>
</a>
</g>
</g>
<!-- Node1&#45;&gt;Node8 -->
<g id="edge7_Node000001_Node000008" class="edge">
<title>Node1&#45;&gt;Node8</title>
<g id="a_edge7_Node000001_Node000008"><a xlink:title=" ">
<path fill="none" stroke="#63b8ff" d="M99.5,-171.09C119.91,-161.12 147.62,-148.14 172.75,-138.25 180.97,-135.02 189.79,-131.86 198.42,-128.94"/>
<polygon fill="#63b8ff" stroke="#63b8ff" points="98.05,-167.91 90.63,-175.47 101.14,-174.19 98.05,-167.91"/>
</a>
</g>
</g>
<!-- Node9 -->
<g id="Node000009" class="node">
<title>Node9</title>
<g id="a_Node000009"><a xlink:href="classllvm_1_1MCWinCOFFObjectTargetWriter.html" target="_top" xlink:title=" ">
<polygon fill="white" stroke="#666666" points="328.25,-79.5 172.75,-79.5 172.75,-49 328.25,-49 328.25,-79.5"/>
<text xml:space="preserve" text-anchor="start" x="180.75" y="-66" font-family="Helvetica,sans-Serif" font-size="10.00">llvm::MCWinCOFFObjectTarget</text>
<text xml:space="preserve" text-anchor="middle" x="250.5" y="-54.75" font-family="Helvetica,sans-Serif" font-size="10.00">Writer</text>
</a>
</g>
</g>
<!-- Node1&#45;&gt;Node9 -->
<g id="edge8_Node000001_Node000009" class="edge">
<title>Node1&#45;&gt;Node9</title>
<g id="a_edge8_Node000001_Node000009"><a xlink:title=" ">
<path fill="none" stroke="#63b8ff" d="M84.68,-167.59C103.37,-145.91 136.96,-110.43 172.75,-89.25 178.66,-85.75 185.12,-82.68 191.7,-79.99"/>
<polygon fill="#63b8ff" stroke="#63b8ff" points="82.15,-165.16 78.37,-175.06 87.5,-169.67 82.15,-165.16"/>
</a>
</g>
</g>
<!-- Node10 -->
<g id="Node000010" class="node">
<title>Node10</title>
<g id="a_Node000010"><a xlink:href="classllvm_1_1MCXCOFFObjectTargetWriter.html" target="_top" xlink:title=" ">
<polygon fill="white" stroke="#666666" points="323,-30.5 178,-30.5 178,0 323,0 323,-30.5"/>
<text xml:space="preserve" text-anchor="start" x="186" y="-17" font-family="Helvetica,sans-Serif" font-size="10.00">llvm::MCXCOFFObjectTarget</text>
<text xml:space="preserve" text-anchor="middle" x="250.5" y="-5.75" font-family="Helvetica,sans-Serif" font-size="10.00">Writer</text>
</a>
</g>
</g>
<!-- Node1&#45;&gt;Node10 -->
<g id="edge9_Node000001_Node000010" class="edge">
<title>Node1&#45;&gt;Node10</title>
<g id="a_edge9_Node000001_Node000010"><a xlink:title=" ">
<path fill="none" stroke="#63b8ff" d="M78.3,-166.33C93.33,-134.97 126.65,-74.2 172.75,-40.25 177.6,-36.68 182.99,-33.6 188.6,-30.95"/>
<polygon fill="#63b8ff" stroke="#63b8ff" points="75.28,-164.53 74.24,-175.07 81.62,-167.48 75.28,-164.53"/>
</a>
</g>
</g>
<!-- Node4 -->
<g id="Node000004" class="node">
<title>Node4</title>
<g id="a_Node000004"><a xlink:href="classllvm_1_1AVRELFObjectWriter.html" target="_top" xlink:title="Writes AVR machine code into an ELF32 object file.">
<polygon fill="white" stroke="#666666" points="495.75,-312.88 364.25,-312.88 364.25,-293.62 495.75,-293.62 495.75,-312.88"/>
<text xml:space="preserve" text-anchor="middle" x="430" y="-299.38" font-family="Helvetica,sans-Serif" font-size="10.00">llvm::AVRELFObjectWriter</text>
</a>
</g>
</g>
<!-- Node3&#45;&gt;Node4 -->
<g id="edge3_Node000003_Node000004" class="edge">
<title>Node3&#45;&gt;Node4</title>
<g id="a_edge3_Node000003_Node000004"><a xlink:title=" ">
<path fill="none" stroke="#63b8ff" d="M339.82,-303.25C347.97,-303.25 356.13,-303.25 364.02,-303.25"/>
<polygon fill="#63b8ff" stroke="#63b8ff" points="339.84,-299.75 329.84,-303.25 339.84,-306.75 339.84,-299.75"/>
</a>
</g>
</g>
</g>
</svg>
