<?xml version="1.0" encoding="UTF-8" standalone="no"?>
<!DOCTYPE svg PUBLIC "-//W3C//DTD SVG 1.1//EN"
 "http://www.w3.org/Graphics/SVG/1.1/DTD/svg11.dtd">
<!-- Generated by graphviz version 13.1.2 (20250808.2320)
 -->
<!-- Title: llvm::DXILForwardHandleAccesses Pages: 1 -->
<svg width="250pt" height="179pt"
 viewBox="0.00 0.00 250.00 179.00" xmlns="http://www.w3.org/2000/svg" xmlns:xlink="http://www.w3.org/1999/xlink">
<g id="graph0" class="graph" transform="scale(1 1) rotate(0) translate(4 174.5)">
<title>llvm::DXILForwardHandleAccesses</title>
<!-- Node1 -->
<g id="Node000001" class="node">
<title>Node1</title>
<g id="a_Node000001"><a xlink:title=" ">
<polygon fill="#999999" stroke="#666666" points="172,-19.25 0,-19.25 0,0 172,0 172,-19.25"/>
<text xml:space="preserve" text-anchor="middle" x="86" y="-5.75" font-family="Helvetica,sans-Serif" font-size="10.00">llvm::DXILForwardHandleAccesses</text>
</a>
</g>
</g>
<!-- Node2 -->
<g id="Node000002" class="node">
<title>Node2</title>
<g id="a_Node000002"><a xlink:href="structllvm_1_1PassInfoMixin.html" target="_top" xlink:title=" ">
<polygon fill="white" stroke="#666666" points="169,-86.75 3,-86.75 3,-56.25 169,-56.25 169,-86.75"/>
<text xml:space="preserve" text-anchor="start" x="11" y="-73.25" font-family="Helvetica,sans-Serif" font-size="10.00">llvm::PassInfoMixin</text>
<text xml:space="preserve" text-anchor="middle" x="86" y="-62" font-family="Helvetica,sans-Serif" font-size="10.00">&lt; DXILForwardHandleAccesses &gt;</text>
</a>
</g>
</g>
<!-- Node2&#45;&gt;Node1 -->
<g id="edge1_Node000001_Node000002" class="edge">
<title>Node2&#45;&gt;Node1</title>
<g id="a_edge1_Node000001_Node000002"><a xlink:title=" ">
<path fill="none" stroke="#63b8ff" d="M86,-44.77C86,-35.79 86,-26.29 86,-19.6"/>
<polygon fill="#63b8ff" stroke="#63b8ff" points="82.5,-44.49 86,-54.49 89.5,-44.49 82.5,-44.49"/>
</a>
</g>
</g>
<!-- Node3 -->
<g id="Node000003" class="node">
<title>Node3</title>
<g id="a_Node000003"><a xlink:href="structllvm_1_1PassInfoMixin.html" target="_top" xlink:title="A CRTP mix&#45;in to automatically provide informational APIs needed for passes.">
<polygon fill="white" stroke="#666666" points="137.12,-170.5 34.88,-170.5 34.88,-140 137.12,-140 137.12,-170.5"/>
<text xml:space="preserve" text-anchor="start" x="42.88" y="-157" font-family="Helvetica,sans-Serif" font-size="10.00">llvm::PassInfoMixin</text>
<text xml:space="preserve" text-anchor="middle" x="86" y="-145.75" font-family="Helvetica,sans-Serif" font-size="10.00">&lt; DerivedT &gt;</text>
</a>
</g>
</g>
<!-- Node3&#45;&gt;Node2 -->
<g id="edge2_Node000002_Node000003" class="edge">
<title>Node3&#45;&gt;Node2</title>
<g id="a_edge2_Node000002_Node000003"><a xlink:title=" ">
<path fill="none" stroke="orange" stroke-dasharray="5,2" d="M86,-128.47C86,-114.78 86,-98.46 86,-86.99"/>
<polygon fill="orange" stroke="orange" points="82.5,-128.12 86,-138.12 89.5,-128.12 82.5,-128.12"/>
</a>
</g>
<text xml:space="preserve" text-anchor="start" x="89" y="-109.5" font-family="Helvetica,sans-Serif" font-size="10.00" fill="grey">&lt; DXILForwardHandleAccesses &gt;</text>
</g>
</g>
</svg>
