<?xml version="1.0" encoding="UTF-8" standalone="no"?>
<!DOCTYPE svg PUBLIC "-//W3C//DTD SVG 1.1//EN"
 "http://www.w3.org/Graphics/SVG/1.1/DTD/svg11.dtd">
<!-- Generated by graphviz version 13.1.2 (20250808.2320)
 -->
<!-- Title: llvm::object::Binary Pages: 1 -->
<svg width="1082pt" height="293pt"
 viewBox="0.00 0.00 1082.00 293.00" xmlns="http://www.w3.org/2000/svg" xmlns:xlink="http://www.w3.org/1999/xlink">
<g id="graph0" class="graph" transform="scale(1 1) rotate(0) translate(4 288.88)">
<title>llvm::object::Binary</title>
<!-- Node1 -->
<g id="Node000001" class="node">
<title>Node1</title>
<g id="a_Node000001"><a xlink:title=" ">
<polygon fill="#999999" stroke="#666666" points="100,-130.25 0,-130.25 0,-111 100,-111 100,-130.25"/>
<text xml:space="preserve" text-anchor="middle" x="50" y="-116.75" font-family="Helvetica,sans-Serif" font-size="10.00">llvm::object::Binary</text>
</a>
</g>
</g>
<!-- Node2 -->
<g id="Node000002" class="node">
<title>Node2</title>
<g id="a_Node000002"><a xlink:href="classllvm_1_1object_1_1Archive.html" target="_top" xlink:title=" ">
<polygon fill="white" stroke="#666666" points="267,-253.25 161.75,-253.25 161.75,-234 267,-234 267,-253.25"/>
<text xml:space="preserve" text-anchor="middle" x="214.38" y="-239.75" font-family="Helvetica,sans-Serif" font-size="10.00">llvm::object::Archive</text>
</a>
</g>
</g>
<!-- Node1&#45;&gt;Node2 -->
<g id="edge1_Node000001_Node000002" class="edge">
<title>Node1&#45;&gt;Node2</title>
<g id="a_edge1_Node000001_Node000002"><a xlink:title=" ">
<path fill="none" stroke="#63b8ff" d="M61.97,-140.42C76.16,-164.12 103.13,-203.3 137,-224.62 144.4,-229.28 152.87,-232.8 161.42,-235.46"/>
<polygon fill="#63b8ff" stroke="#63b8ff" points="65.17,-138.95 57.13,-132.04 59.11,-142.45 65.17,-138.95"/>
</a>
</g>
</g>
<!-- Node4 -->
<g id="Node000004" class="node">
<title>Node4</title>
<g id="a_Node000004"><a xlink:href="classllvm_1_1object_1_1MachOUniversalBinary.html" target="_top" xlink:title=" ">
<polygon fill="white" stroke="#666666" points="286.88,-215.88 141.88,-215.88 141.88,-185.38 286.88,-185.38 286.88,-215.88"/>
<text xml:space="preserve" text-anchor="start" x="149.88" y="-202.38" font-family="Helvetica,sans-Serif" font-size="10.00">llvm::object::MachOUniversal</text>
<text xml:space="preserve" text-anchor="middle" x="214.38" y="-191.12" font-family="Helvetica,sans-Serif" font-size="10.00">Binary</text>
</a>
</g>
</g>
<!-- Node1&#45;&gt;Node4 -->
<g id="edge3_Node000001_Node000004" class="edge">
<title>Node1&#45;&gt;Node4</title>
<g id="a_edge3_Node000001_Node000004"><a xlink:title=" ">
<path fill="none" stroke="#63b8ff" d="M73.03,-137.39C89.84,-149.57 113.97,-165.76 137,-176.62 143.41,-179.65 150.3,-182.42 157.22,-184.92"/>
<polygon fill="#63b8ff" stroke="#63b8ff" points="75.38,-134.77 65.25,-131.65 71.22,-140.4 75.38,-134.77"/>
</a>
</g>
</g>
<!-- Node5 -->
<g id="Node000005" class="node">
<title>Node5</title>
<g id="a_Node000005"><a xlink:href="classllvm_1_1object_1_1MinidumpFile.html" target="_top" xlink:title="A class providing access to the contents of a minidump file.">
<polygon fill="white" stroke="#666666" points="279.38,-167.25 149.38,-167.25 149.38,-148 279.38,-148 279.38,-167.25"/>
<text xml:space="preserve" text-anchor="middle" x="214.38" y="-153.75" font-family="Helvetica,sans-Serif" font-size="10.00">llvm::object::MinidumpFile</text>
</a>
</g>
</g>
<!-- Node1&#45;&gt;Node5 -->
<g id="edge4_Node000001_Node000005" class="edge">
<title>Node1&#45;&gt;Node5</title>
<g id="a_edge4_Node000001_Node000005"><a xlink:title=" ">
<path fill="none" stroke="#63b8ff" d="M106.43,-133.26C126.87,-137.91 149.73,-143.12 169.06,-147.53"/>
<polygon fill="#63b8ff" stroke="#63b8ff" points="107.37,-129.88 96.85,-131.07 105.82,-136.71 107.37,-129.88"/>
</a>
</g>
</g>
<!-- Node6 -->
<g id="Node000006" class="node">
<title>Node6</title>
<g id="a_Node000006"><a xlink:href="classllvm_1_1object_1_1OffloadBinary.html" target="_top" xlink:title="A simple binary serialization of an offloading file.">
<polygon fill="white" stroke="#666666" points="280.12,-130.25 148.62,-130.25 148.62,-111 280.12,-111 280.12,-130.25"/>
<text xml:space="preserve" text-anchor="middle" x="214.38" y="-116.75" font-family="Helvetica,sans-Serif" font-size="10.00">llvm::object::OffloadBinary</text>
</a>
</g>
</g>
<!-- Node1&#45;&gt;Node6 -->
<g id="edge5_Node000001_Node000006" class="edge">
<title>Node1&#45;&gt;Node6</title>
<g id="a_edge5_Node000001_Node000006"><a xlink:title=" ">
<path fill="none" stroke="#63b8ff" d="M111.42,-120.62C123.41,-120.62 136.05,-120.62 148.19,-120.62"/>
<polygon fill="#63b8ff" stroke="#63b8ff" points="111.67,-117.13 101.67,-120.63 111.67,-124.13 111.67,-117.13"/>
</a>
</g>
</g>
<!-- Node7 -->
<g id="Node000007" class="node">
<title>Node7</title>
<g id="a_Node000007"><a xlink:href="classllvm_1_1object_1_1SymbolicFile.html" target="_top" xlink:title=" ">
<polygon fill="white" stroke="#666666" points="278.62,-93.25 150.12,-93.25 150.12,-74 278.62,-74 278.62,-93.25"/>
<text xml:space="preserve" text-anchor="middle" x="214.38" y="-79.75" font-family="Helvetica,sans-Serif" font-size="10.00">llvm::object::SymbolicFile</text>
</a>
</g>
</g>
<!-- Node1&#45;&gt;Node7 -->
<g id="edge6_Node000001_Node000007" class="edge">
<title>Node1&#45;&gt;Node7</title>
<g id="a_edge6_Node000001_Node000007"><a xlink:title=" ">
<path fill="none" stroke="#63b8ff" d="M106.43,-107.99C126.87,-103.34 149.73,-98.13 169.06,-93.72"/>
<polygon fill="#63b8ff" stroke="#63b8ff" points="105.82,-104.54 96.85,-110.18 107.37,-111.37 105.82,-104.54"/>
</a>
</g>
</g>
<!-- Node23 -->
<g id="Node000023" class="node">
<title>Node23</title>
<g id="a_Node000023"><a xlink:href="classllvm_1_1object_1_1TapiUniversal.html" target="_top" xlink:title=" ">
<polygon fill="white" stroke="#666666" points="280.12,-56.25 148.62,-56.25 148.62,-37 280.12,-37 280.12,-56.25"/>
<text xml:space="preserve" text-anchor="middle" x="214.38" y="-42.75" font-family="Helvetica,sans-Serif" font-size="10.00">llvm::object::TapiUniversal</text>
</a>
</g>
</g>
<!-- Node1&#45;&gt;Node23 -->
<g id="edge26_Node000001_Node000023" class="edge">
<title>Node1&#45;&gt;Node23</title>
<g id="a_edge26_Node000001_Node000023"><a xlink:title=" ">
<path fill="none" stroke="#63b8ff" d="M72.22,-103.8C88.94,-91.32 113.31,-74.76 137,-64.62 144.26,-61.52 152.16,-58.89 160.02,-56.69"/>
<polygon fill="#63b8ff" stroke="#63b8ff" points="70.34,-100.83 64.52,-109.69 74.59,-106.39 70.34,-100.83"/>
</a>
</g>
</g>
<!-- Node24 -->
<g id="Node000024" class="node">
<title>Node24</title>
<g id="a_Node000024"><a xlink:href="classllvm_1_1object_1_1WindowsResource.html" target="_top" xlink:title=" ">
<polygon fill="white" stroke="#666666" points="291.75,-19.25 137,-19.25 137,0 291.75,0 291.75,-19.25"/>
<text xml:space="preserve" text-anchor="middle" x="214.38" y="-5.75" font-family="Helvetica,sans-Serif" font-size="10.00">llvm::object::WindowsResource</text>
</a>
</g>
</g>
<!-- Node1&#45;&gt;Node24 -->
<g id="edge27_Node000001_Node000024" class="edge">
<title>Node1&#45;&gt;Node24</title>
<g id="a_edge27_Node000001_Node000024"><a xlink:title=" ">
<path fill="none" stroke="#63b8ff" d="M63.53,-101.32C78.43,-79.95 105.33,-46.1 137,-27.62 142.41,-24.47 148.35,-21.86 154.44,-19.72"/>
<polygon fill="#63b8ff" stroke="#63b8ff" points="60.75,-99.18 58.05,-109.43 66.55,-103.1 60.75,-99.18"/>
</a>
</g>
</g>
<!-- Node3 -->
<g id="Node000003" class="node">
<title>Node3</title>
<g id="a_Node000003"><a xlink:href="classllvm_1_1object_1_1BigArchive.html" target="_top" xlink:title=" ">
<polygon fill="white" stroke="#666666" points="459.88,-253.25 340.38,-253.25 340.38,-234 459.88,-234 459.88,-253.25"/>
<text xml:space="preserve" text-anchor="middle" x="400.12" y="-239.75" font-family="Helvetica,sans-Serif" font-size="10.00">llvm::object::BigArchive</text>
</a>
</g>
</g>
<!-- Node2&#45;&gt;Node3 -->
<g id="edge2_Node000002_Node000003" class="edge">
<title>Node2&#45;&gt;Node3</title>
<g id="a_edge2_Node000002_Node000003"><a xlink:title=" ">
<path fill="none" stroke="#63b8ff" d="M278.53,-243.62C298.47,-243.62 320.42,-243.62 340.07,-243.62"/>
<polygon fill="#63b8ff" stroke="#63b8ff" points="278.56,-240.13 268.56,-243.63 278.56,-247.13 278.56,-240.13"/>
</a>
</g>
</g>
<!-- Node8 -->
<g id="Node000008" class="node">
<title>Node8</title>
<g id="a_Node000008"><a xlink:href="classllvm_1_1object_1_1COFFImportFile.html" target="_top" xlink:title=" ">
<polygon fill="white" stroke="#666666" points="471.5,-40.25 328.75,-40.25 328.75,-21 471.5,-21 471.5,-40.25"/>
<text xml:space="preserve" text-anchor="middle" x="400.12" y="-26.75" font-family="Helvetica,sans-Serif" font-size="10.00">llvm::object::COFFImportFile</text>
</a>
</g>
</g>
<!-- Node7&#45;&gt;Node8 -->
<g id="edge7_Node000007_Node000008" class="edge">
<title>Node7&#45;&gt;Node8</title>
<g id="a_edge7_Node000007_Node000008"><a xlink:title=" ">
<path fill="none" stroke="#63b8ff" d="M275.39,-70.68C280.97,-69.12 286.49,-67.43 291.75,-65.62 308.86,-59.74 311.69,-54.67 328.75,-48.62 337.07,-45.68 346.1,-42.99 354.84,-40.65"/>
<polygon fill="#63b8ff" stroke="#63b8ff" points="274.91,-67.19 266.14,-73.14 276.71,-73.96 274.91,-67.19"/>
</a>
</g>
</g>
<!-- Node9 -->
<g id="Node000009" class="node">
<title>Node9</title>
<g id="a_Node000009"><a xlink:href="classllvm_1_1object_1_1IRObjectFile.html" target="_top" xlink:title=" ">
<polygon fill="white" stroke="#666666" points="463.62,-151.25 336.62,-151.25 336.62,-132 463.62,-132 463.62,-151.25"/>
<text xml:space="preserve" text-anchor="middle" x="400.12" y="-137.75" font-family="Helvetica,sans-Serif" font-size="10.00">llvm::object::IRObjectFile</text>
</a>
</g>
</g>
<!-- Node7&#45;&gt;Node9 -->
<g id="edge8_Node000007_Node000009" class="edge">
<title>Node7&#45;&gt;Node9</title>
<g id="a_edge8_Node000007_Node000009"><a xlink:title=" ">
<path fill="none" stroke="#63b8ff" d="M278.48,-96.87C283.02,-98.32 287.49,-99.9 291.75,-101.62 309.49,-108.79 311.08,-116.29 328.75,-123.62 336.09,-126.67 344.08,-129.31 351.95,-131.55"/>
<polygon fill="#63b8ff" stroke="#63b8ff" points="279.84,-93.63 269.26,-94.16 277.86,-100.34 279.84,-93.63"/>
</a>
</g>
</g>
<!-- Node10 -->
<g id="Node000010" class="node">
<title>Node10</title>
<g id="a_Node000010"><a xlink:href="classllvm_1_1object_1_1ObjectFile.html" target="_top" xlink:title="This class is the base class for all object file types.">
<polygon fill="white" stroke="#666666" points="458.38,-114.25 341.88,-114.25 341.88,-95 458.38,-95 458.38,-114.25"/>
<text xml:space="preserve" text-anchor="middle" x="400.12" y="-100.75" font-family="Helvetica,sans-Serif" font-size="10.00">llvm::object::ObjectFile</text>
</a>
</g>
</g>
<!-- Node7&#45;&gt;Node10 -->
<g id="edge9_Node000007_Node000010" class="edge">
<title>Node7&#45;&gt;Node10</title>
<g id="a_edge9_Node000007_Node000010"><a xlink:title=" ">
<path fill="none" stroke="#63b8ff" d="M290,-92.15C307.17,-94.12 325.16,-96.17 341.48,-98.04"/>
<polygon fill="#63b8ff" stroke="#63b8ff" points="290.71,-88.71 280.37,-91.05 289.91,-95.67 290.71,-88.71"/>
</a>
</g>
</g>
<!-- Node22 -->
<g id="Node000022" class="node">
<title>Node22</title>
<g id="a_Node000022"><a xlink:href="classllvm_1_1object_1_1TapiFile.html" target="_top" xlink:title=" ">
<polygon fill="white" stroke="#666666" points="453.12,-77.25 347.12,-77.25 347.12,-58 453.12,-58 453.12,-77.25"/>
<text xml:space="preserve" text-anchor="middle" x="400.12" y="-63.75" font-family="Helvetica,sans-Serif" font-size="10.00">llvm::object::TapiFile</text>
</a>
</g>
</g>
<!-- Node7&#45;&gt;Node22 -->
<g id="edge25_Node000007_Node000022" class="edge">
<title>Node7&#45;&gt;Node22</title>
<g id="a_edge25_Node000007_Node000022"><a xlink:title=" ">
<path fill="none" stroke="#63b8ff" d="M290.23,-77.11C309.25,-75.45 329.28,-73.71 346.89,-72.17"/>
<polygon fill="#63b8ff" stroke="#63b8ff" points="290.04,-73.61 280.38,-77.96 290.64,-80.58 290.04,-73.61"/>
</a>
</g>
</g>
<!-- Node11 -->
<g id="Node000011" class="node">
<title>Node11</title>
<g id="a_Node000011"><a xlink:href="classllvm_1_1object_1_1COFFObjectFile.html" target="_top" xlink:title=" ">
<polygon fill="white" stroke="#666666" points="658.75,-206.25 515.25,-206.25 515.25,-187 658.75,-187 658.75,-206.25"/>
<text xml:space="preserve" text-anchor="middle" x="587" y="-192.75" font-family="Helvetica,sans-Serif" font-size="10.00">llvm::object::COFFObjectFile</text>
</a>
</g>
</g>
<!-- Node10&#45;&gt;Node11 -->
<g id="edge10_Node000010_Node000011" class="edge">
<title>Node10&#45;&gt;Node11</title>
<g id="a_edge10_Node000010_Node000011"><a xlink:title=" ">
<path fill="none" stroke="#63b8ff" d="M467.22,-119.83C468.69,-120.71 470.12,-121.64 471.5,-122.62 495.8,-139.93 484.01,-161.6 508.5,-178.62 513.04,-181.78 518.05,-184.39 523.27,-186.54"/>
<polygon fill="#63b8ff" stroke="#63b8ff" points="468.9,-116.76 458.39,-115.42 465.77,-123.02 468.9,-116.76"/>
</a>
</g>
</g>
<!-- Node12 -->
<g id="Node000012" class="node">
<title>Node12</title>
<g id="a_Node000012"><a xlink:href="classllvm_1_1object_1_1ELFObjectFileBase.html" target="_top" xlink:title=" ">
<polygon fill="white" stroke="#666666" points="665.5,-169.25 508.5,-169.25 508.5,-150 665.5,-150 665.5,-169.25"/>
<text xml:space="preserve" text-anchor="middle" x="587" y="-155.75" font-family="Helvetica,sans-Serif" font-size="10.00">llvm::object::ELFObjectFileBase</text>
</a>
</g>
</g>
<!-- Node10&#45;&gt;Node12 -->
<g id="edge11_Node000010_Node000012" class="edge">
<title>Node10&#45;&gt;Node12</title>
<g id="a_edge11_Node000010_Node000012"><a xlink:title=" ">
<path fill="none" stroke="#63b8ff" d="M457.68,-117.89C462.4,-119.36 467.06,-120.94 471.5,-122.62 488.79,-129.18 491.14,-135.26 508.5,-141.62 516.8,-144.67 525.79,-147.31 534.62,-149.57"/>
<polygon fill="#63b8ff" stroke="#63b8ff" points="458.68,-114.54 448.1,-115.1 456.71,-121.26 458.68,-114.54"/>
</a>
</g>
</g>
<!-- Node18 -->
<g id="Node000018" class="node">
<title>Node18</title>
<g id="a_Node000018"><a xlink:href="classllvm_1_1object_1_1GOFFObjectFile.html" target="_top" xlink:title=" ">
<polygon fill="white" stroke="#666666" points="658.75,-132.25 515.25,-132.25 515.25,-113 658.75,-113 658.75,-132.25"/>
<text xml:space="preserve" text-anchor="middle" x="587" y="-118.75" font-family="Helvetica,sans-Serif" font-size="10.00">llvm::object::GOFFObjectFile</text>
</a>
</g>
</g>
<!-- Node10&#45;&gt;Node18 -->
<g id="edge21_Node000010_Node000018" class="edge">
<title>Node10&#45;&gt;Node18</title>
<g id="a_edge21_Node000010_Node000018"><a xlink:title=" ">
<path fill="none" stroke="#63b8ff" d="M469.93,-111.32C484.66,-112.76 500.24,-114.28 515.05,-115.72"/>
<polygon fill="#63b8ff" stroke="#63b8ff" points="470.66,-107.88 460.37,-110.39 469.98,-114.85 470.66,-107.88"/>
</a>
</g>
</g>
<!-- Node19 -->
<g id="Node000019" class="node">
<title>Node19</title>
<g id="a_Node000019"><a xlink:href="classllvm_1_1object_1_1MachOObjectFile.html" target="_top" xlink:title=" ">
<polygon fill="white" stroke="#666666" points="661,-95.25 513,-95.25 513,-76 661,-76 661,-95.25"/>
<text xml:space="preserve" text-anchor="middle" x="587" y="-81.75" font-family="Helvetica,sans-Serif" font-size="10.00">llvm::object::MachOObjectFile</text>
</a>
</g>
</g>
<!-- Node10&#45;&gt;Node19 -->
<g id="edge22_Node000010_Node000019" class="edge">
<title>Node10&#45;&gt;Node19</title>
<g id="a_edge22_Node000010_Node000019"><a xlink:title=" ">
<path fill="none" stroke="#63b8ff" d="M470.29,-97.52C484.14,-96.09 498.73,-94.59 512.72,-93.16"/>
<polygon fill="#63b8ff" stroke="#63b8ff" points="469.96,-94.03 460.37,-98.54 470.67,-101 469.96,-94.03"/>
</a>
</g>
</g>
<!-- Node20 -->
<g id="Node000020" class="node">
<title>Node20</title>
<g id="a_Node000020"><a xlink:href="classllvm_1_1object_1_1WasmObjectFile.html" target="_top" xlink:title=" ">
<polygon fill="white" stroke="#666666" points="659.12,-58.25 514.88,-58.25 514.88,-39 659.12,-39 659.12,-58.25"/>
<text xml:space="preserve" text-anchor="middle" x="587" y="-44.75" font-family="Helvetica,sans-Serif" font-size="10.00">llvm::object::WasmObjectFile</text>
</a>
</g>
</g>
<!-- Node10&#45;&gt;Node20 -->
<g id="edge23_Node000010_Node000020" class="edge">
<title>Node10&#45;&gt;Node20</title>
<g id="a_edge23_Node000010_Node000020"><a xlink:title=" ">
<path fill="none" stroke="#63b8ff" d="M458.14,-91.33C462.7,-89.87 467.21,-88.31 471.5,-86.62 488.91,-79.81 491.02,-73.24 508.5,-66.62 516.51,-63.59 525.18,-60.97 533.73,-58.75"/>
<polygon fill="#63b8ff" stroke="#63b8ff" points="457.48,-87.87 448.9,-94.07 459.48,-94.58 457.48,-87.87"/>
</a>
</g>
</g>
<!-- Node21 -->
<g id="Node000021" class="node">
<title>Node21</title>
<g id="a_Node000021"><a xlink:href="classllvm_1_1object_1_1XCOFFObjectFile.html" target="_top" xlink:title=" ">
<polygon fill="white" stroke="#666666" points="662.12,-21.25 511.88,-21.25 511.88,-2 662.12,-2 662.12,-21.25"/>
<text xml:space="preserve" text-anchor="middle" x="587" y="-7.75" font-family="Helvetica,sans-Serif" font-size="10.00">llvm::object::XCOFFObjectFile</text>
</a>
</g>
</g>
<!-- Node10&#45;&gt;Node21 -->
<g id="edge24_Node000010_Node000021" class="edge">
<title>Node10&#45;&gt;Node21</title>
<g id="a_edge24_Node000010_Node000021"><a xlink:title=" ">
<path fill="none" stroke="#63b8ff" d="M467.23,-89.43C468.7,-88.55 470.12,-87.61 471.5,-86.62 496.03,-69.01 483.77,-46.97 508.5,-29.62 513.02,-26.45 518.03,-23.83 523.25,-21.67"/>
<polygon fill="#63b8ff" stroke="#63b8ff" points="465.77,-86.25 458.41,-93.87 468.92,-92.5 465.77,-86.25"/>
</a>
</g>
</g>
<!-- Node13 -->
<g id="Node000013" class="node">
<title>Node13</title>
<g id="a_Node000013"><a xlink:href="classllvm_1_1object_1_1ELFObjectFile.html" target="_top" xlink:title=" ">
<polygon fill="white" stroke="#666666" points="1073.5,-205.88 939,-205.88 939,-175.38 1073.5,-175.38 1073.5,-205.88"/>
<text xml:space="preserve" text-anchor="start" x="947" y="-192.38" font-family="Helvetica,sans-Serif" font-size="10.00">llvm::object::ELFObjectFile</text>
<text xml:space="preserve" text-anchor="middle" x="1006.25" y="-181.12" font-family="Helvetica,sans-Serif" font-size="10.00">&lt; ELF32LE &gt;</text>
</a>
</g>
</g>
<!-- Node12&#45;&gt;Node13 -->
<g id="edge12_Node000012_Node000013" class="edge">
<title>Node12&#45;&gt;Node13</title>
<g id="a_edge12_Node000012_Node000013"><a xlink:title=" ">
<path fill="none" stroke="#63b8ff" d="M644.9,-172.3C651.86,-174.01 658.86,-175.8 665.5,-177.62 750.7,-200.97 767.69,-224.13 855,-237.62 883.99,-242.1 892.61,-245.01 921,-237.62 944.34,-231.55 968.08,-217.44 984.39,-206.26"/>
<polygon fill="#63b8ff" stroke="#63b8ff" points="646.06,-168.98 635.52,-170.05 644.42,-175.79 646.06,-168.98"/>
</a>
</g>
</g>
<!-- Node14 -->
<g id="Node000014" class="node">
<title>Node14</title>
<g id="a_Node000014"><a xlink:href="classllvm_1_1object_1_1ELFObjectFile.html" target="_top" xlink:title=" ">
<polygon fill="white" stroke="#666666" points="1073.5,-284.88 939,-284.88 939,-254.38 1073.5,-254.38 1073.5,-284.88"/>
<text xml:space="preserve" text-anchor="start" x="947" y="-271.38" font-family="Helvetica,sans-Serif" font-size="10.00">llvm::object::ELFObjectFile</text>
<text xml:space="preserve" text-anchor="middle" x="1006.25" y="-260.12" font-family="Helvetica,sans-Serif" font-size="10.00">&lt; ELF64LE &gt;</text>
</a>
</g>
</g>
<!-- Node12&#45;&gt;Node14 -->
<g id="edge13_Node000012_Node000014" class="edge">
<title>Node12&#45;&gt;Node14</title>
<g id="a_edge13_Node000012_Node000014"><a xlink:title=" ">
<path fill="none" stroke="#63b8ff" d="M659.68,-174.25C661.68,-175.3 663.63,-176.42 665.5,-177.62 688.16,-192.19 679.51,-211.6 702.5,-225.62 774.48,-269.54 873.61,-275.91 938.54,-274.41"/>
<polygon fill="#63b8ff" stroke="#63b8ff" points="661.24,-171.11 650.68,-170.22 658.38,-177.5 661.24,-171.11"/>
</a>
</g>
</g>
<!-- Node15 -->
<g id="Node000015" class="node">
<title>Node15</title>
<g id="a_Node000015"><a xlink:href="classllvm_1_1object_1_1ELFObjectFile.html" target="_top" xlink:title=" ">
<polygon fill="white" stroke="#666666" points="1073.5,-68.88 939,-68.88 939,-38.38 1073.5,-38.38 1073.5,-68.88"/>
<text xml:space="preserve" text-anchor="start" x="947" y="-55.38" font-family="Helvetica,sans-Serif" font-size="10.00">llvm::object::ELFObjectFile</text>
<text xml:space="preserve" text-anchor="middle" x="1006.25" y="-44.12" font-family="Helvetica,sans-Serif" font-size="10.00">&lt; ELF32BE &gt;</text>
</a>
</g>
</g>
<!-- Node12&#45;&gt;Node15 -->
<g id="edge14_Node000012_Node000015" class="edge">
<title>Node12&#45;&gt;Node15</title>
<g id="a_edge14_Node000012_Node000015"><a xlink:title=" ">
<path fill="none" stroke="#63b8ff" d="M661.85,-144.15C663.1,-143.35 664.32,-142.51 665.5,-141.62 692.15,-121.75 674.42,-94.41 702.5,-76.62 773.42,-31.71 873.26,-33.78 938.6,-41.75"/>
<polygon fill="#63b8ff" stroke="#63b8ff" points="660.25,-141.03 653.07,-148.81 663.54,-147.21 660.25,-141.03"/>
</a>
</g>
</g>
<!-- Node16 -->
<g id="Node000016" class="node">
<title>Node16</title>
<g id="a_Node000016"><a xlink:href="classllvm_1_1object_1_1ELFObjectFile.html" target="_top" xlink:title=" ">
<polygon fill="white" stroke="#666666" points="1073.5,-143.88 939,-143.88 939,-113.38 1073.5,-113.38 1073.5,-143.88"/>
<text xml:space="preserve" text-anchor="start" x="947" y="-130.38" font-family="Helvetica,sans-Serif" font-size="10.00">llvm::object::ELFObjectFile</text>
<text xml:space="preserve" text-anchor="middle" x="1006.25" y="-119.12" font-family="Helvetica,sans-Serif" font-size="10.00">&lt; ELF64BE &gt;</text>
</a>
</g>
</g>
<!-- Node12&#45;&gt;Node16 -->
<g id="edge15_Node000012_Node000016" class="edge">
<title>Node12&#45;&gt;Node16</title>
<g id="a_edge15_Node000012_Node000016"><a xlink:title=" ">
<path fill="none" stroke="#63b8ff" d="M644.59,-146.89C651.65,-145.18 658.75,-143.4 665.5,-141.62 777.91,-111.99 807.97,-58.45 921,-85.62 943.03,-90.92 965.79,-103 982.1,-113.02"/>
<polygon fill="#63b8ff" stroke="#63b8ff" points="643.99,-143.44 635.07,-149.16 645.61,-150.25 643.99,-143.44"/>
</a>
</g>
</g>
<!-- Node17 -->
<g id="Node000017" class="node">
<title>Node17</title>
<g id="a_Node000017"><a xlink:href="classllvm_1_1object_1_1ELFObjectFile.html" target="_top" xlink:title=" ">
<polygon fill="white" stroke="#666666" points="837,-174.88 702.5,-174.88 702.5,-144.38 837,-144.38 837,-174.88"/>
<text xml:space="preserve" text-anchor="start" x="710.5" y="-161.38" font-family="Helvetica,sans-Serif" font-size="10.00">llvm::object::ELFObjectFile</text>
<text xml:space="preserve" text-anchor="middle" x="769.75" y="-150.12" font-family="Helvetica,sans-Serif" font-size="10.00">&lt; ELFT &gt;</text>
</a>
</g>
</g>
<!-- Node12&#45;&gt;Node17 -->
<g id="edge16_Node000012_Node000017" class="edge">
<title>Node12&#45;&gt;Node17</title>
<g id="a_edge16_Node000012_Node000017"><a xlink:title=" ">
<path fill="none" stroke="#63b8ff" d="M677.31,-159.62C685.66,-159.62 694.02,-159.62 702.1,-159.62"/>
<polygon fill="#63b8ff" stroke="#63b8ff" points="677.48,-156.13 667.48,-159.63 677.48,-163.13 677.48,-156.13"/>
</a>
</g>
</g>
<!-- Node17&#45;&gt;Node13 -->
<g id="edge17_Node000017_Node000013" class="edge">
<title>Node17&#45;&gt;Node13</title>
<g id="a_edge17_Node000017_Node000013"><a xlink:title=" ">
<path fill="none" stroke="orange" stroke-dasharray="5,2" d="M848.69,-169.93C877.78,-173.77 910.52,-178.1 938.51,-181.8"/>
<polygon fill="orange" stroke="orange" points="849.19,-166.46 838.82,-168.62 848.28,-173.4 849.19,-166.46"/>
</a>
</g>
<text xml:space="preserve" text-anchor="start" x="858.75" y="-183.56" font-family="Helvetica,sans-Serif" font-size="10.00" fill="grey">&lt; ELF32LE &gt;</text>
</g>
<!-- Node17&#45;&gt;Node14 -->
<g id="edge18_Node000017_Node000014" class="edge">
<title>Node17&#45;&gt;Node14</title>
<g id="a_edge18_Node000017_Node000014"><a xlink:title=" ">
<path fill="none" stroke="orange" stroke-dasharray="5,2" d="M814.02,-179.92C859.63,-201.32 930.49,-234.56 971.94,-254"/>
<polygon fill="orange" stroke="orange" points="815.76,-176.87 805.22,-175.79 812.79,-183.21 815.76,-176.87"/>
</a>
</g>
<text xml:space="preserve" text-anchor="start" x="858.75" y="-232.46" font-family="Helvetica,sans-Serif" font-size="10.00" fill="grey">&lt; ELF64LE &gt;</text>
</g>
<!-- Node17&#45;&gt;Node15 -->
<g id="edge19_Node000017_Node000015" class="edge">
<title>Node17&#45;&gt;Node15</title>
<g id="a_edge19_Node000017_Node000015"><a xlink:title=" ">
<path fill="none" stroke="orange" stroke-dasharray="5,2" d="M813.34,-138.94C826.64,-132.57 841.39,-125.6 855,-119.38 893.45,-101.78 937.85,-82.48 968.36,-69.36"/>
<polygon fill="orange" stroke="orange" points="811.9,-135.75 804.4,-143.24 814.93,-142.06 811.9,-135.75"/>
</a>
</g>
<text xml:space="preserve" text-anchor="start" x="858" y="-124.12" font-family="Helvetica,sans-Serif" font-size="10.00" fill="grey">&lt; ELF32BE &gt;</text>
</g>
<!-- Node17&#45;&gt;Node16 -->
<g id="edge20_Node000017_Node000016" class="edge">
<title>Node17&#45;&gt;Node16</title>
<g id="a_edge20_Node000017_Node000016"><a xlink:title=" ">
<path fill="none" stroke="orange" stroke-dasharray="5,2" d="M848.69,-149.32C877.78,-145.48 910.52,-141.15 938.51,-137.45"/>
<polygon fill="orange" stroke="orange" points="848.28,-145.85 838.82,-150.63 849.19,-152.79 848.28,-145.85"/>
</a>
</g>
<text xml:space="preserve" text-anchor="start" x="858" y="-152.56" font-family="Helvetica,sans-Serif" font-size="10.00" fill="grey">&lt; ELF64BE &gt;</text>
</g>
</g>
</svg>
