<?xml version="1.0" encoding="UTF-8" standalone="no"?>
<!DOCTYPE svg PUBLIC "-//W3C//DTD SVG 1.1//EN"
 "http://www.w3.org/Graphics/SVG/1.1/DTD/svg11.dtd">
<!-- Generated by graphviz version 13.1.2 (20250808.2320)
 -->
<!-- Title: llvm::OptimizationRemarkEmitterAnalysis Pages: 1 -->
<svg width="958pt" height="110pt"
 viewBox="0.00 0.00 958.00 110.00" xmlns="http://www.w3.org/2000/svg" xmlns:xlink="http://www.w3.org/1999/xlink">
<g id="graph0" class="graph" transform="scale(1 1) rotate(0) translate(4 105.75)">
<title>llvm::OptimizationRemarkEmitterAnalysis</title>
<!-- Node1 -->
<g id="Node000001" class="node">
<title>Node1</title>
<g id="a_Node000001"><a xlink:title=" ">
<polygon fill="#999999" stroke="#666666" points="950,-57.5 820.75,-57.5 820.75,-27 950,-27 950,-57.5"/>
<text xml:space="preserve" text-anchor="start" x="828.75" y="-44" font-family="Helvetica,sans-Serif" font-size="10.00">llvm::OptimizationRemark</text>
<text xml:space="preserve" text-anchor="middle" x="885.38" y="-32.75" font-family="Helvetica,sans-Serif" font-size="10.00">EmitterAnalysis</text>
</a>
</g>
</g>
<!-- Node2 -->
<g id="Node000002" class="node">
<title>Node2</title>
<g id="a_Node000002"><a xlink:href="structllvm_1_1AnalysisInfoMixin.html" target="_top" xlink:title=" ">
<polygon fill="white" stroke="#666666" points="783.75,-57.5 591.5,-57.5 591.5,-27 783.75,-27 783.75,-57.5"/>
<text xml:space="preserve" text-anchor="start" x="599.5" y="-44" font-family="Helvetica,sans-Serif" font-size="10.00">llvm::AnalysisInfoMixin</text>
<text xml:space="preserve" text-anchor="middle" x="687.62" y="-32.75" font-family="Helvetica,sans-Serif" font-size="10.00">&lt; OptimizationRemarkEmitterAnalysis &gt;</text>
</a>
</g>
</g>
<!-- Node2&#45;&gt;Node1 -->
<g id="edge1_Node000001_Node000002" class="edge">
<title>Node2&#45;&gt;Node1</title>
<g id="a_edge1_Node000001_Node000002"><a xlink:title=" ">
<path fill="none" stroke="#63b8ff" d="M795.66,-42.25C804.04,-42.25 812.32,-42.25 820.27,-42.25"/>
<polygon fill="#63b8ff" stroke="#63b8ff" points="795.72,-38.75 785.72,-42.25 795.72,-45.75 795.72,-38.75"/>
</a>
</g>
</g>
<!-- Node3 -->
<g id="Node000003" class="node">
<title>Node3</title>
<g id="a_Node000003"><a xlink:href="structllvm_1_1PassInfoMixin.html" target="_top" xlink:title=" ">
<polygon fill="white" stroke="#666666" points="419.75,-90.12 274,-90.12 274,-48.38 419.75,-48.38 419.75,-90.12"/>
<text xml:space="preserve" text-anchor="start" x="282" y="-76.62" font-family="Helvetica,sans-Serif" font-size="10.00">llvm::PassInfoMixin</text>
<text xml:space="preserve" text-anchor="start" x="282" y="-65.38" font-family="Helvetica,sans-Serif" font-size="10.00">&lt; OptimizationRemarkEmitter</text>
<text xml:space="preserve" text-anchor="middle" x="346.88" y="-54.12" font-family="Helvetica,sans-Serif" font-size="10.00">Analysis &gt;</text>
</a>
</g>
</g>
<!-- Node3&#45;&gt;Node2 -->
<g id="edge2_Node000002_Node000003" class="edge">
<title>Node3&#45;&gt;Node2</title>
<g id="a_edge2_Node000002_Node000003"><a xlink:title=" ">
<path fill="none" stroke="#63b8ff" d="M431.49,-63.84C474.03,-60.96 526.54,-57.2 573.5,-53.25 579.3,-52.76 585.27,-52.24 591.28,-51.7"/>
<polygon fill="#63b8ff" stroke="#63b8ff" points="431.31,-60.35 421.57,-64.51 431.78,-67.33 431.31,-60.35"/>
</a>
</g>
</g>
<!-- Node4 -->
<g id="Node000004" class="node">
<title>Node4</title>
<g id="a_Node000004"><a xlink:href="structllvm_1_1PassInfoMixin.html" target="_top" xlink:title="A CRTP mix&#45;in to automatically provide informational APIs needed for passes.">
<polygon fill="white" stroke="#666666" points="102.25,-84.5 0,-84.5 0,-54 102.25,-54 102.25,-84.5"/>
<text xml:space="preserve" text-anchor="start" x="8" y="-71" font-family="Helvetica,sans-Serif" font-size="10.00">llvm::PassInfoMixin</text>
<text xml:space="preserve" text-anchor="middle" x="51.12" y="-59.75" font-family="Helvetica,sans-Serif" font-size="10.00">&lt; DerivedT &gt;</text>
</a>
</g>
</g>
<!-- Node4&#45;&gt;Node3 -->
<g id="edge3_Node000003_Node000004" class="edge">
<title>Node4&#45;&gt;Node3</title>
<g id="a_edge3_Node000003_Node000004"><a xlink:title=" ">
<path fill="none" stroke="orange" stroke-dasharray="5,2" d="M114.07,-69.25C160.65,-69.25 224.58,-69.25 273.51,-69.25"/>
<polygon fill="orange" stroke="orange" points="114.14,-65.75 104.14,-69.25 114.14,-72.75 114.14,-65.75"/>
</a>
</g>
<text xml:space="preserve" text-anchor="start" x="123.25" y="-89.25" font-family="Helvetica,sans-Serif" font-size="10.00" fill="grey">&lt; OptimizationRemarkEmitter</text>
<text xml:space="preserve" text-anchor="start" x="123.25" y="-74" font-family="Helvetica,sans-Serif" font-size="10.00" fill="grey">  Analysis &gt;</text>
</g>
<!-- Node5 -->
<g id="Node000005" class="node">
<title>Node5</title>
<g id="a_Node000005"><a xlink:href="structllvm_1_1AnalysisInfoMixin.html" target="_top" xlink:title="A CRTP mix&#45;in that provides informational APIs needed for analysis passes.">
<polygon fill="white" stroke="#666666" points="405.5,-30.5 288.25,-30.5 288.25,0 405.5,0 405.5,-30.5"/>
<text xml:space="preserve" text-anchor="start" x="296.25" y="-17" font-family="Helvetica,sans-Serif" font-size="10.00">llvm::AnalysisInfoMixin</text>
<text xml:space="preserve" text-anchor="middle" x="346.88" y="-5.75" font-family="Helvetica,sans-Serif" font-size="10.00">&lt; DerivedT &gt;</text>
</a>
</g>
</g>
<!-- Node5&#45;&gt;Node2 -->
<g id="edge4_Node000002_Node000005" class="edge">
<title>Node5&#45;&gt;Node2</title>
<g id="a_edge4_Node000002_Node000005"><a xlink:title=" ">
<path fill="none" stroke="orange" stroke-dasharray="5,2" d="M416.92,-11.88C461.7,-10.64 521.23,-10.76 573.5,-16.75 591.4,-18.8 610.61,-22.54 628.03,-26.53"/>
<polygon fill="orange" stroke="orange" points="416.98,-8.38 407.09,-12.19 417.19,-15.37 416.98,-8.38"/>
</a>
</g>
<text xml:space="preserve" text-anchor="start" x="440.75" y="-36.75" font-family="Helvetica,sans-Serif" font-size="10.00" fill="grey">&lt; OptimizationRemarkEmitter</text>
<text xml:space="preserve" text-anchor="start" x="440.75" y="-21.5" font-family="Helvetica,sans-Serif" font-size="10.00" fill="grey">  Analysis &gt;</text>
</g>
<!-- Node6 -->
<g id="Node000006" class="node">
<title>Node6</title>
<g id="a_Node000006"><a xlink:href="structllvm_1_1PassInfoMixin.html" target="_top" xlink:title="A CRTP mix&#45;in to automatically provide informational APIs needed for passes.">
<polygon fill="white" stroke="#666666" points="102.25,-30.5 0,-30.5 0,0 102.25,0 102.25,-30.5"/>
<text xml:space="preserve" text-anchor="start" x="8" y="-17" font-family="Helvetica,sans-Serif" font-size="10.00">llvm::PassInfoMixin</text>
<text xml:space="preserve" text-anchor="middle" x="51.12" y="-5.75" font-family="Helvetica,sans-Serif" font-size="10.00">&lt; DerivedT &gt;</text>
</a>
</g>
</g>
<!-- Node6&#45;&gt;Node5 -->
<g id="edge5_Node000005_Node000006" class="edge">
<title>Node6&#45;&gt;Node5</title>
<g id="a_edge5_Node000005_Node000006"><a xlink:title=" ">
<path fill="none" stroke="#63b8ff" d="M113.89,-15.25C165.23,-15.25 237.75,-15.25 287.98,-15.25"/>
<polygon fill="#63b8ff" stroke="#63b8ff" points="114.14,-11.75 104.14,-15.25 114.14,-18.75 114.14,-11.75"/>
</a>
</g>
</g>
</g>
</svg>
