<?xml version="1.0" encoding="UTF-8" standalone="no"?>
<!DOCTYPE svg PUBLIC "-//W3C//DTD SVG 1.1//EN"
 "http://www.w3.org/Graphics/SVG/1.1/DTD/svg11.dtd">
<!-- Generated by graphviz version 13.1.2 (20250808.2320)
 -->
<!-- Title: llvm::SIMachineFunctionInfo Pages: 1 -->
<svg width="314pt" height="149pt"
 viewBox="0.00 0.00 314.00 149.00" xmlns="http://www.w3.org/2000/svg" xmlns:xlink="http://www.w3.org/1999/xlink">
<g id="graph0" class="graph" transform="scale(1 1) rotate(0) translate(4 145)">
<title>llvm::SIMachineFunctionInfo</title>
<!-- Node1 -->
<g id="Node000001" class="node">
<title>Node1</title>
<g id="a_Node000001"><a xlink:title="This class keeps track of the SPI_SP_INPUT_ADDR config register, which tells the hardware which inter...">
<polygon fill="#999999" stroke="#666666" points="230.5,-19.25 90,-19.25 90,0 230.5,0 230.5,-19.25"/>
<text xml:space="preserve" text-anchor="middle" x="160.25" y="-5.75" font-family="Helvetica,sans-Serif" font-size="10.00">llvm::SIMachineFunctionInfo</text>
</a>
</g>
</g>
<!-- Node2 -->
<g id="Node000002" class="node">
<title>Node2</title>
<g id="a_Node000002"><a xlink:href="classllvm_1_1AMDGPUMachineFunction.html" target="_top" xlink:title=" ">
<polygon fill="white" stroke="#666666" points="158.5,-80.12 0,-80.12 0,-60.88 158.5,-60.88 158.5,-80.12"/>
<text xml:space="preserve" text-anchor="middle" x="79.25" y="-66.62" font-family="Helvetica,sans-Serif" font-size="10.00">llvm::AMDGPUMachineFunction</text>
</a>
</g>
</g>
<!-- Node2&#45;&gt;Node1 -->
<g id="edge1_Node000001_Node000002" class="edge">
<title>Node2&#45;&gt;Node1</title>
<g id="a_edge1_Node000001_Node000002"><a xlink:title=" ">
<path fill="none" stroke="#63b8ff" d="M100.66,-53.94C115.7,-43.01 135.3,-28.76 147.83,-19.65"/>
<polygon fill="#63b8ff" stroke="#63b8ff" points="98.81,-50.96 92.78,-59.67 102.92,-56.62 98.81,-50.96"/>
</a>
</g>
</g>
<!-- Node3 -->
<g id="Node000003" class="node">
<title>Node3</title>
<g id="a_Node000003"><a xlink:href="structllvm_1_1MachineFunctionInfo.html" target="_top" xlink:title="MachineFunctionInfo &#45; This class can be derived from and used by targets to hold private target&#45;speci...">
<polygon fill="white" stroke="#666666" points="144.62,-141 13.88,-141 13.88,-121.75 144.62,-121.75 144.62,-141"/>
<text xml:space="preserve" text-anchor="middle" x="79.25" y="-127.5" font-family="Helvetica,sans-Serif" font-size="10.00">llvm::MachineFunctionInfo</text>
</a>
</g>
</g>
<!-- Node3&#45;&gt;Node2 -->
<g id="edge2_Node000002_Node000003" class="edge">
<title>Node3&#45;&gt;Node2</title>
<g id="a_edge2_Node000002_Node000003"><a xlink:title=" ">
<path fill="none" stroke="#63b8ff" d="M79.25,-109.95C79.25,-99.92 79.25,-88.33 79.25,-80.53"/>
<polygon fill="#63b8ff" stroke="#63b8ff" points="75.75,-109.92 79.25,-119.92 82.75,-109.92 75.75,-109.92"/>
</a>
</g>
</g>
<!-- Node4 -->
<g id="Node000004" class="node">
<title>Node4</title>
<g id="a_Node000004"><a xlink:href="classllvm_1_1MachineRegisterInfo_1_1Delegate.html" target="_top" xlink:title=" ">
<polygon fill="white" stroke="#666666" points="306.25,-85.75 176.25,-85.75 176.25,-55.25 306.25,-55.25 306.25,-85.75"/>
<text xml:space="preserve" text-anchor="start" x="184.25" y="-72.25" font-family="Helvetica,sans-Serif" font-size="10.00">llvm::MachineRegisterInfo</text>
<text xml:space="preserve" text-anchor="middle" x="241.25" y="-61" font-family="Helvetica,sans-Serif" font-size="10.00">::Delegate</text>
</a>
</g>
</g>
<!-- Node4&#45;&gt;Node1 -->
<g id="edge3_Node000001_Node000004" class="edge">
<title>Node4&#45;&gt;Node1</title>
<g id="a_edge3_Node000001_Node000004"><a xlink:title=" ">
<path fill="none" stroke="#8b1a1a" d="M212.22,-48.4C198.67,-38.55 183.24,-27.33 172.74,-19.7"/>
<polygon fill="#8b1a1a" stroke="#8b1a1a" points="209.86,-51.01 220,-54.06 213.97,-45.35 209.86,-51.01"/>
</a>
</g>
</g>
</g>
</svg>
