<?xml version="1.0" encoding="UTF-8" standalone="no"?>
<!DOCTYPE svg PUBLIC "-//W3C//DTD SVG 1.1//EN"
 "http://www.w3.org/Graphics/SVG/1.1/DTD/svg11.dtd">
<!-- Generated by graphviz version 13.1.2 (20250808.2320)
 -->
<!-- Title: llvm::AntiDepBreaker Pages: 1 -->
<svg width="324pt" height="83pt"
 viewBox="0.00 0.00 324.00 83.00" xmlns="http://www.w3.org/2000/svg" xmlns:xlink="http://www.w3.org/1999/xlink">
<g id="graph0" class="graph" transform="scale(1 1) rotate(0) translate(4 78.5)">
<title>llvm::AntiDepBreaker</title>
<!-- Node1 -->
<g id="Node000001" class="node">
<title>Node1</title>
<g id="a_Node000001"><a xlink:title="This class works in conjunction with the post&#45;RA scheduler to rename registers to break register anti...">
<polygon fill="#999999" stroke="#666666" points="216.38,-74.5 107.38,-74.5 107.38,-55.25 216.38,-55.25 216.38,-74.5"/>
<text xml:space="preserve" text-anchor="middle" x="161.88" y="-61" font-family="Helvetica,sans-Serif" font-size="10.00">llvm::AntiDepBreaker</text>
</a>
</g>
</g>
<!-- Node2 -->
<g id="Node000002" class="node">
<title>Node2</title>
<g id="a_Node000002"><a xlink:href="classllvm_1_1AggressiveAntiDepBreaker.html" target="_top" xlink:title=" ">
<polygon fill="white" stroke="#666666" points="157.75,-19.25 0,-19.25 0,0 157.75,0 157.75,-19.25"/>
<text xml:space="preserve" text-anchor="middle" x="78.88" y="-5.75" font-family="Helvetica,sans-Serif" font-size="10.00">llvm::AggressiveAntiDepBreaker</text>
</a>
</g>
</g>
<!-- Node1&#45;&gt;Node2 -->
<g id="edge1_Node000001_Node000002" class="edge">
<title>Node1&#45;&gt;Node2</title>
<g id="a_edge1_Node000001_Node000002"><a xlink:title=" ">
<path fill="none" stroke="#63b8ff" d="M138.38,-48.8C123.76,-39.42 105.45,-27.67 93.02,-19.7"/>
<polygon fill="#63b8ff" stroke="#63b8ff" points="136.21,-51.57 146.52,-54.02 139.99,-45.68 136.21,-51.57"/>
</a>
</g>
</g>
<!-- Node3 -->
<g id="Node000003" class="node">
<title>Node3</title>
<g id="a_Node000003"><a xlink:href="classllvm_1_1CriticalAntiDepBreaker.html" target="_top" xlink:title=" ">
<polygon fill="white" stroke="#666666" points="315.75,-19.25 176,-19.25 176,0 315.75,0 315.75,-19.25"/>
<text xml:space="preserve" text-anchor="middle" x="245.88" y="-5.75" font-family="Helvetica,sans-Serif" font-size="10.00">llvm::CriticalAntiDepBreaker</text>
</a>
</g>
</g>
<!-- Node1&#45;&gt;Node3 -->
<g id="edge2_Node000001_Node000003" class="edge">
<title>Node1&#45;&gt;Node3</title>
<g id="a_edge2_Node000001_Node000003"><a xlink:title=" ">
<path fill="none" stroke="#63b8ff" d="M185.65,-48.8C200.44,-39.42 218.98,-27.67 231.56,-19.7"/>
<polygon fill="#63b8ff" stroke="#63b8ff" points="183.97,-45.72 177.4,-54.03 187.72,-51.63 183.97,-45.72"/>
</a>
</g>
</g>
</g>
</svg>
