<?xml version="1.0" encoding="UTF-8" standalone="no"?>
<!DOCTYPE svg PUBLIC "-//W3C//DTD SVG 1.1//EN"
 "http://www.w3.org/Graphics/SVG/1.1/DTD/svg11.dtd">
<!-- Generated by graphviz version 13.1.2 (20250808.2320)
 -->
<!-- Title: llvm::orc::LLJITBuilderSetters&lt; JITType, SetterImpl, State &gt; Pages: 1 -->
<svg width="1042pt" height="170pt"
 viewBox="0.00 0.00 1042.00 170.00" xmlns="http://www.w3.org/2000/svg" xmlns:xlink="http://www.w3.org/1999/xlink">
<g id="graph0" class="graph" transform="scale(1 1) rotate(0) translate(4 165.75)">
<title>llvm::orc::LLJITBuilderSetters&lt; JITType, SetterImpl, State &gt;</title>
<!-- Node1 -->
<g id="Node000001" class="node">
<title>Node1</title>
<g id="a_Node000001"><a xlink:title=" ">
<polygon fill="#999999" stroke="#666666" points="149.5,-96.12 0,-96.12 0,-65.62 149.5,-65.62 149.5,-96.12"/>
<text xml:space="preserve" text-anchor="start" x="8" y="-82.62" font-family="Helvetica,sans-Serif" font-size="10.00">llvm::orc::LLJITBuilderSetters</text>
<text xml:space="preserve" text-anchor="middle" x="74.75" y="-71.38" font-family="Helvetica,sans-Serif" font-size="10.00">&lt; JITType, SetterImpl, State &gt;</text>
</a>
</g>
</g>
<!-- Node2 -->
<g id="Node000002" class="node">
<title>Node2</title>
<g id="a_Node000002"><a xlink:href="classllvm_1_1orc_1_1LLLazyJITBuilderSetters.html" target="_top" xlink:title=" ">
<polygon fill="white" stroke="#666666" points="486.12,-101.75 340.38,-101.75 340.38,-60 486.12,-60 486.12,-101.75"/>
<text xml:space="preserve" text-anchor="start" x="348.38" y="-88.25" font-family="Helvetica,sans-Serif" font-size="10.00">llvm::orc::LLLazyJITBuilder</text>
<text xml:space="preserve" text-anchor="start" x="348.38" y="-77" font-family="Helvetica,sans-Serif" font-size="10.00">Setters&lt; JITType, SetterImpl,</text>
<text xml:space="preserve" text-anchor="middle" x="413.25" y="-65.75" font-family="Helvetica,sans-Serif" font-size="10.00"> State &gt;</text>
</a>
</g>
</g>
<!-- Node1&#45;&gt;Node2 -->
<g id="edge1_Node000001_Node000002" class="edge">
<title>Node1&#45;&gt;Node2</title>
<g id="a_edge1_Node000001_Node000002"><a xlink:title=" ">
<path fill="none" stroke="#63b8ff" d="M160.79,-80.88C216.11,-80.88 287.46,-80.88 340.02,-80.88"/>
<polygon fill="#63b8ff" stroke="#63b8ff" points="161.11,-77.38 151.11,-80.88 161.11,-84.38 161.11,-77.38"/>
</a>
</g>
</g>
<!-- Node5 -->
<g id="Node000005" class="node">
<title>Node5</title>
<g id="a_Node000005"><a xlink:href="classllvm_1_1orc_1_1LLJITBuilderSetters.html" target="_top" xlink:title=" ">
<polygon fill="white" stroke="#666666" points="497.75,-41.75 328.75,-41.75 328.75,0 497.75,0 497.75,-41.75"/>
<text xml:space="preserve" text-anchor="start" x="336.75" y="-28.25" font-family="Helvetica,sans-Serif" font-size="10.00">llvm::orc::LLJITBuilderSetters</text>
<text xml:space="preserve" text-anchor="start" x="336.75" y="-17" font-family="Helvetica,sans-Serif" font-size="10.00">&lt; LLJIT, LLJITBuilder, LLJITBuilder</text>
<text xml:space="preserve" text-anchor="middle" x="413.25" y="-5.75" font-family="Helvetica,sans-Serif" font-size="10.00">State &gt;</text>
</a>
</g>
</g>
<!-- Node1&#45;&gt;Node5 -->
<g id="edge4_Node000001_Node000005" class="edge">
<title>Node1&#45;&gt;Node5</title>
<g id="a_edge4_Node000001_Node000005"><a xlink:title=" ">
<path fill="none" stroke="orange" stroke-dasharray="5,2" d="M119.09,-60.72C134.12,-54.52 151.28,-48.3 167.5,-44.38 220.09,-31.66 280.6,-25.78 328.3,-23.08"/>
<polygon fill="orange" stroke="orange" points="117.79,-57.47 109.96,-64.6 120.53,-63.91 117.79,-57.47"/>
</a>
</g>
<text xml:space="preserve" text-anchor="start" x="191.12" y="-64.38" font-family="Helvetica,sans-Serif" font-size="10.00" fill="grey">&lt; LLJIT, LLJITBuilder,</text>
<text xml:space="preserve" text-anchor="start" x="191.12" y="-49.12" font-family="Helvetica,sans-Serif" font-size="10.00" fill="grey">   LLJITBuilderState &gt;</text>
</g>
<!-- Node7 -->
<g id="Node000007" class="node">
<title>Node7</title>
<g id="a_Node000007"><a xlink:href="classllvm_1_1orc_1_1LLJITBuilderSetters.html" target="_top" xlink:title=" ">
<polygon fill="white" stroke="#666666" points="489.88,-161.75 336.62,-161.75 336.62,-120 489.88,-120 489.88,-161.75"/>
<text xml:space="preserve" text-anchor="start" x="344.62" y="-148.25" font-family="Helvetica,sans-Serif" font-size="10.00">llvm::orc::LLJITBuilderSetters</text>
<text xml:space="preserve" text-anchor="start" x="344.62" y="-137" font-family="Helvetica,sans-Serif" font-size="10.00">&lt; LLLazyJIT, LLLazyJITBuilder,</text>
<text xml:space="preserve" text-anchor="middle" x="413.25" y="-125.75" font-family="Helvetica,sans-Serif" font-size="10.00"> LLLazyJITBuilderState &gt;</text>
</a>
</g>
</g>
<!-- Node1&#45;&gt;Node7 -->
<g id="edge6_Node000001_Node000007" class="edge">
<title>Node1&#45;&gt;Node7</title>
<g id="a_edge6_Node000001_Node000007"><a xlink:title=" ">
<path fill="none" stroke="orange" stroke-dasharray="5,2" d="M160.87,-96.05C214.86,-105.68 284.11,-118.03 336.24,-127.32"/>
<polygon fill="orange" stroke="orange" points="161.55,-92.62 151.09,-94.31 160.32,-99.51 161.55,-92.62"/>
</a>
</g>
<text xml:space="preserve" text-anchor="start" x="170.5" y="-141.47" font-family="Helvetica,sans-Serif" font-size="10.00" fill="grey">&lt; LLLazyJIT, LLLazyJITBuilder,</text>
<text xml:space="preserve" text-anchor="start" x="170.5" y="-126.22" font-family="Helvetica,sans-Serif" font-size="10.00" fill="grey">   LLLazyJITBuilderState &gt;</text>
</g>
<!-- Node3 -->
<g id="Node000003" class="node">
<title>Node3</title>
<g id="a_Node000003"><a xlink:href="classllvm_1_1orc_1_1LLLazyJITBuilderSetters.html" target="_top" xlink:title=" ">
<polygon fill="white" stroke="#666666" points="861.75,-128.75 677,-128.75 677,-87 861.75,-87 861.75,-128.75"/>
<text xml:space="preserve" text-anchor="start" x="685" y="-115.25" font-family="Helvetica,sans-Serif" font-size="10.00">llvm::orc::LLLazyJITBuilder</text>
<text xml:space="preserve" text-anchor="start" x="685" y="-104" font-family="Helvetica,sans-Serif" font-size="10.00">Setters&lt; LLLazyJIT, LLLazyJITBuilder,</text>
<text xml:space="preserve" text-anchor="middle" x="769.38" y="-92.75" font-family="Helvetica,sans-Serif" font-size="10.00"> LLLazyJITBuilderState &gt;</text>
</a>
</g>
</g>
<!-- Node2&#45;&gt;Node3 -->
<g id="edge2_Node000002_Node000003" class="edge">
<title>Node2&#45;&gt;Node3</title>
<g id="a_edge2_Node000002_Node000003"><a xlink:title=" ">
<path fill="none" stroke="orange" stroke-dasharray="5,2" d="M497.85,-82.25C545.22,-83.58 605.52,-86.21 659,-91.38 664.73,-91.93 670.63,-92.58 676.56,-93.3"/>
<polygon fill="orange" stroke="orange" points="498.01,-78.75 487.92,-81.99 497.83,-85.75 498.01,-78.75"/>
</a>
</g>
<text xml:space="preserve" text-anchor="start" x="518.75" y="-111.38" font-family="Helvetica,sans-Serif" font-size="10.00" fill="grey">&lt; LLLazyJIT, LLLazyJITBuilder,</text>
<text xml:space="preserve" text-anchor="start" x="518.75" y="-96.12" font-family="Helvetica,sans-Serif" font-size="10.00" fill="grey">   LLLazyJITBuilderState &gt;</text>
</g>
<!-- Node4 -->
<g id="Node000004" class="node">
<title>Node4</title>
<g id="a_Node000004"><a xlink:href="classllvm_1_1orc_1_1LLLazyJITBuilder.html" target="_top" xlink:title="Constructs LLLazyJIT instances.">
<polygon fill="white" stroke="#666666" points="1034,-117.5 898.75,-117.5 898.75,-98.25 1034,-98.25 1034,-117.5"/>
<text xml:space="preserve" text-anchor="middle" x="966.38" y="-104" font-family="Helvetica,sans-Serif" font-size="10.00">llvm::orc::LLLazyJITBuilder</text>
</a>
</g>
</g>
<!-- Node3&#45;&gt;Node4 -->
<g id="edge3_Node000003_Node000004" class="edge">
<title>Node3&#45;&gt;Node4</title>
<g id="a_edge3_Node000003_Node000004"><a xlink:title=" ">
<path fill="none" stroke="#63b8ff" d="M873.66,-107.88C882.08,-107.88 890.44,-107.88 898.5,-107.88"/>
<polygon fill="#63b8ff" stroke="#63b8ff" points="873.68,-104.38 863.68,-107.88 873.68,-111.38 873.68,-104.38"/>
</a>
</g>
</g>
<!-- Node6 -->
<g id="Node000006" class="node">
<title>Node6</title>
<g id="a_Node000006"><a xlink:href="classllvm_1_1orc_1_1LLJITBuilder.html" target="_top" xlink:title="Constructs LLJIT instances.">
<polygon fill="white" stroke="#666666" points="826.5,-30.5 712.25,-30.5 712.25,-11.25 826.5,-11.25 826.5,-30.5"/>
<text xml:space="preserve" text-anchor="middle" x="769.38" y="-17" font-family="Helvetica,sans-Serif" font-size="10.00">llvm::orc::LLJITBuilder</text>
</a>
</g>
</g>
<!-- Node5&#45;&gt;Node6 -->
<g id="edge5_Node000005_Node000006" class="edge">
<title>Node5&#45;&gt;Node6</title>
<g id="a_edge5_Node000005_Node000006"><a xlink:title=" ">
<path fill="none" stroke="#63b8ff" d="M509.6,-20.88C574.23,-20.88 657.47,-20.88 711.84,-20.88"/>
<polygon fill="#63b8ff" stroke="#63b8ff" points="509.69,-17.38 499.69,-20.88 509.69,-24.38 509.69,-17.38"/>
</a>
</g>
</g>
<!-- Node7&#45;&gt;Node3 -->
<g id="edge7_Node000007_Node000003" class="edge">
<title>Node7&#45;&gt;Node3</title>
<g id="a_edge7_Node000007_Node000003"><a xlink:title=" ">
<path fill="none" stroke="#63b8ff" d="M501.5,-136.43C548.28,-133.64 606.87,-129.49 659,-123.88 664.72,-123.26 670.61,-122.57 676.54,-121.83"/>
<polygon fill="#63b8ff" stroke="#63b8ff" points="501.47,-132.92 491.69,-137 501.88,-139.91 501.47,-132.92"/>
</a>
</g>
</g>
</g>
</svg>
