<?xml version="1.0" encoding="UTF-8" standalone="no"?>
<!DOCTYPE svg PUBLIC "-//W3C//DTD SVG 1.1//EN"
 "http://www.w3.org/Graphics/SVG/1.1/DTD/svg11.dtd">
<!-- Generated by graphviz version 13.1.2 (20250808.2320)
 -->
<!-- Title: llvm::TypedInit Pages: 1 -->
<svg width="466pt" height="656pt"
 viewBox="0.00 0.00 466.00 656.00" xmlns="http://www.w3.org/2000/svg" xmlns:xlink="http://www.w3.org/1999/xlink">
<g id="graph0" class="graph" transform="scale(1 1) rotate(0) translate(4 652.25)">
<title>llvm::TypedInit</title>
<!-- Node1 -->
<g id="Node000001" class="node">
<title>Node1</title>
<g id="a_Node000001"><a xlink:title="This is the common superclass of types that have a specific, explicit type, stored in ValueTy.">
<polygon fill="#999999" stroke="#666666" points="169.25,-333.25 89.5,-333.25 89.5,-314 169.25,-314 169.25,-333.25"/>
<text xml:space="preserve" text-anchor="middle" x="129.38" y="-319.75" font-family="Helvetica,sans-Serif" font-size="10.00">llvm::TypedInit</text>
</a>
</g>
</g>
<!-- Node3 -->
<g id="Node000003" class="node">
<title>Node3</title>
<g id="a_Node000003"><a xlink:href="classllvm_1_1AnonymousNameInit.html" target="_top" xlink:title="&quot;anonymous_n&quot; &#45; Represent an anonymous record name">
<polygon fill="white" stroke="#666666" points="336.75,-648.25 205.25,-648.25 205.25,-629 336.75,-629 336.75,-648.25"/>
<text xml:space="preserve" text-anchor="middle" x="271" y="-634.75" font-family="Helvetica,sans-Serif" font-size="10.00">llvm::AnonymousNameInit</text>
</a>
</g>
</g>
<!-- Node1&#45;&gt;Node3 -->
<g id="edge2_Node000001_Node000003" class="edge">
<title>Node1&#45;&gt;Node3</title>
<g id="a_edge2_Node000001_Node000003"><a xlink:title=" ">
<path fill="none" stroke="#63b8ff" d="M132.92,-344.62C140.72,-405.54 166.15,-580.57 205.25,-620.62 208.35,-623.8 211.95,-626.43 215.84,-628.6"/>
<polygon fill="#63b8ff" stroke="#63b8ff" points="136.43,-344.43 131.71,-334.94 129.48,-345.3 136.43,-344.43"/>
</a>
</g>
</g>
<!-- Node4 -->
<g id="Node000004" class="node">
<title>Node4</title>
<g id="a_Node000004"><a xlink:href="classllvm_1_1BitInit.html" target="_top" xlink:title="&#39;true&#39;/&#39;false&#39; &#45; Represent a concrete initializer for a bit.">
<polygon fill="white" stroke="#666666" points="303.75,-611.25 238.25,-611.25 238.25,-592 303.75,-592 303.75,-611.25"/>
<text xml:space="preserve" text-anchor="middle" x="271" y="-597.75" font-family="Helvetica,sans-Serif" font-size="10.00">llvm::BitInit</text>
</a>
</g>
</g>
<!-- Node1&#45;&gt;Node4 -->
<g id="edge3_Node000001_Node000004" class="edge">
<title>Node1&#45;&gt;Node4</title>
<g id="a_edge3_Node000001_Node000004"><a xlink:title=" ">
<path fill="none" stroke="#63b8ff" d="M129.97,-344.91C130.23,-394.19 138.01,-517.01 205.25,-583.62 213.95,-592.25 226.41,-596.83 238.08,-599.23"/>
<polygon fill="#63b8ff" stroke="#63b8ff" points="133.47,-345.08 130.03,-335.06 126.47,-345.04 133.47,-345.08"/>
</a>
</g>
</g>
<!-- Node5 -->
<g id="Node000005" class="node">
<title>Node5</title>
<g id="a_Node000005"><a xlink:href="classllvm_1_1BitsInit.html" target="_top" xlink:title="&#39;{ a, b, c }&#39; &#45; Represents an initializer for a BitsRecTy value.">
<polygon fill="white" stroke="#666666" points="306.38,-574.25 235.62,-574.25 235.62,-555 306.38,-555 306.38,-574.25"/>
<text xml:space="preserve" text-anchor="middle" x="271" y="-560.75" font-family="Helvetica,sans-Serif" font-size="10.00">llvm::BitsInit</text>
</a>
</g>
</g>
<!-- Node1&#45;&gt;Node5 -->
<g id="edge4_Node000001_Node000005" class="edge">
<title>Node1&#45;&gt;Node5</title>
<g id="a_edge4_Node000001_Node000005"><a xlink:title=" ">
<path fill="none" stroke="#63b8ff" d="M131.17,-344.82C133.99,-388.96 146.86,-491.23 205.25,-546.62 213.38,-554.33 224.51,-558.79 235.26,-561.35"/>
<polygon fill="#63b8ff" stroke="#63b8ff" points="134.66,-344.65 130.66,-334.84 127.67,-345.01 134.66,-344.65"/>
</a>
</g>
</g>
<!-- Node6 -->
<g id="Node000006" class="node">
<title>Node6</title>
<g id="a_Node000006"><a xlink:href="classllvm_1_1CondOpInit.html" target="_top" xlink:title="!cond(condition_1: value1, ... , condition_n: value) Selects the first value for which condition is t...">
<polygon fill="white" stroke="#666666" points="315.75,-537.25 226.25,-537.25 226.25,-518 315.75,-518 315.75,-537.25"/>
<text xml:space="preserve" text-anchor="middle" x="271" y="-523.75" font-family="Helvetica,sans-Serif" font-size="10.00">llvm::CondOpInit</text>
</a>
</g>
</g>
<!-- Node1&#45;&gt;Node6 -->
<g id="edge5_Node000001_Node000006" class="edge">
<title>Node1&#45;&gt;Node6</title>
<g id="a_edge5_Node000001_Node000006"><a xlink:title=" ">
<path fill="none" stroke="#63b8ff" d="M132.79,-344.72C138.34,-383.27 155.59,-465.22 205.25,-509.62 211.08,-514.84 218.29,-518.55 225.76,-521.2"/>
<polygon fill="#63b8ff" stroke="#63b8ff" points="136.27,-344.39 131.52,-334.92 129.33,-345.29 136.27,-344.39"/>
</a>
</g>
</g>
<!-- Node7 -->
<g id="Node000007" class="node">
<title>Node7</title>
<g id="a_Node000007"><a xlink:href="classllvm_1_1DagInit.html" target="_top" xlink:title="(v a, b) &#45; Represent a DAG tree value.">
<polygon fill="white" stroke="#666666" points="306.75,-500.25 235.25,-500.25 235.25,-481 306.75,-481 306.75,-500.25"/>
<text xml:space="preserve" text-anchor="middle" x="271" y="-486.75" font-family="Helvetica,sans-Serif" font-size="10.00">llvm::DagInit</text>
</a>
</g>
</g>
<!-- Node1&#45;&gt;Node7 -->
<g id="edge6_Node000001_Node000007" class="edge">
<title>Node1&#45;&gt;Node7</title>
<g id="a_edge6_Node000001_Node000007"><a xlink:title=" ">
<path fill="none" stroke="#63b8ff" d="M135.11,-344.56C143.53,-376.92 164.2,-438.88 205.25,-472.62 213.63,-479.52 224.47,-483.78 234.87,-486.41"/>
<polygon fill="#63b8ff" stroke="#63b8ff" points="138.6,-344.08 132.83,-335.2 131.79,-345.74 138.6,-344.08"/>
</a>
</g>
</g>
<!-- Node8 -->
<g id="Node000008" class="node">
<title>Node8</title>
<g id="a_Node000008"><a xlink:href="classllvm_1_1DefInit.html" target="_top" xlink:title="AL &#45; Represent a reference to a &#39;def&#39; in the description.">
<polygon fill="white" stroke="#666666" points="305.62,-463.25 236.38,-463.25 236.38,-444 305.62,-444 305.62,-463.25"/>
<text xml:space="preserve" text-anchor="middle" x="271" y="-449.75" font-family="Helvetica,sans-Serif" font-size="10.00">llvm::DefInit</text>
</a>
</g>
</g>
<!-- Node1&#45;&gt;Node8 -->
<g id="edge7_Node000001_Node000008" class="edge">
<title>Node1&#45;&gt;Node8</title>
<g id="a_edge7_Node000001_Node000008"><a xlink:title=" ">
<path fill="none" stroke="#63b8ff" d="M138.61,-343.98C149.89,-369.27 172.53,-411.95 205.25,-435.62 214.23,-442.12 225.46,-446.28 236.04,-448.93"/>
<polygon fill="#63b8ff" stroke="#63b8ff" points="141.85,-342.64 134.71,-334.81 135.41,-345.39 141.85,-342.64"/>
</a>
</g>
</g>
<!-- Node9 -->
<g id="Node000009" class="node">
<title>Node9</title>
<g id="a_Node000009"><a xlink:href="classllvm_1_1ExistsOpInit.html" target="_top" xlink:title="!exists&lt;type&gt;(expr) &#45; Dynamically determine if a record of type named expr exists.">
<polygon fill="white" stroke="#666666" points="318,-426.25 224,-426.25 224,-407 318,-407 318,-426.25"/>
<text xml:space="preserve" text-anchor="middle" x="271" y="-412.75" font-family="Helvetica,sans-Serif" font-size="10.00">llvm::ExistsOpInit</text>
</a>
</g>
</g>
<!-- Node1&#45;&gt;Node9 -->
<g id="edge8_Node000001_Node000009" class="edge">
<title>Node1&#45;&gt;Node9</title>
<g id="a_edge8_Node000001_Node000009"><a xlink:title=" ">
<path fill="none" stroke="#63b8ff" d="M144.52,-342.56C158.23,-359.63 180.55,-384.2 205.25,-398.62 210.89,-401.92 217.16,-404.64 223.52,-406.87"/>
<polygon fill="#63b8ff" stroke="#63b8ff" points="147.31,-340.45 138.41,-334.7 141.78,-344.75 147.31,-340.45"/>
</a>
</g>
</g>
<!-- Node10 -->
<g id="Node000010" class="node">
<title>Node10</title>
<g id="a_Node000010"><a xlink:href="classllvm_1_1FieldInit.html" target="_top" xlink:title="X.Y &#45; Represent a reference to a subfield of a variable.">
<polygon fill="white" stroke="#666666" points="308.25,-389.25 233.75,-389.25 233.75,-370 308.25,-370 308.25,-389.25"/>
<text xml:space="preserve" text-anchor="middle" x="271" y="-375.75" font-family="Helvetica,sans-Serif" font-size="10.00">llvm::FieldInit</text>
</a>
</g>
</g>
<!-- Node1&#45;&gt;Node10 -->
<g id="edge9_Node000001_Node000010" class="edge">
<title>Node1&#45;&gt;Node10</title>
<g id="a_edge9_Node000001_Node000010"><a xlink:title=" ">
<path fill="none" stroke="#63b8ff" d="M157.67,-339.13C171.61,-346.62 189.01,-355.32 205.25,-361.62 214.17,-365.09 224.02,-368.18 233.28,-370.78"/>
<polygon fill="#63b8ff" stroke="#63b8ff" points="159.55,-336.17 149.1,-334.43 156.19,-342.31 159.55,-336.17"/>
</a>
</g>
</g>
<!-- Node11 -->
<g id="Node000011" class="node">
<title>Node11</title>
<g id="a_Node000011"><a xlink:href="classllvm_1_1FoldOpInit.html" target="_top" xlink:title="!foldl (a, b, expr, start, lst) &#45; Fold over a list.">
<polygon fill="white" stroke="#666666" points="313.5,-352.25 228.5,-352.25 228.5,-333 313.5,-333 313.5,-352.25"/>
<text xml:space="preserve" text-anchor="middle" x="271" y="-338.75" font-family="Helvetica,sans-Serif" font-size="10.00">llvm::FoldOpInit</text>
</a>
</g>
</g>
<!-- Node1&#45;&gt;Node11 -->
<g id="edge10_Node000001_Node000011" class="edge">
<title>Node1&#45;&gt;Node11</title>
<g id="a_edge10_Node000001_Node000011"><a xlink:title=" ">
<path fill="none" stroke="#63b8ff" d="M180.67,-330.47C196.22,-332.59 213.18,-334.89 228.1,-336.92"/>
<polygon fill="#63b8ff" stroke="#63b8ff" points="181.52,-327.05 171.14,-329.17 180.58,-333.99 181.52,-327.05"/>
</a>
</g>
</g>
<!-- Node12 -->
<g id="Node000012" class="node">
<title>Node12</title>
<g id="a_Node000012"><a xlink:href="classllvm_1_1InstancesOpInit.html" target="_top" xlink:title="!instances&lt;type&gt;([regex]) &#45; Produces a list of records whose type is type.">
<polygon fill="white" stroke="#666666" points="325.5,-315.25 216.5,-315.25 216.5,-296 325.5,-296 325.5,-315.25"/>
<text xml:space="preserve" text-anchor="middle" x="271" y="-301.75" font-family="Helvetica,sans-Serif" font-size="10.00">llvm::InstancesOpInit</text>
</a>
</g>
</g>
<!-- Node1&#45;&gt;Node12 -->
<g id="edge11_Node000001_Node000012" class="edge">
<title>Node1&#45;&gt;Node12</title>
<g id="a_edge11_Node000001_Node000012"><a xlink:title=" ">
<path fill="none" stroke="#63b8ff" d="M180.82,-317.12C192.31,-315.64 204.56,-314.06 216.19,-312.56"/>
<polygon fill="#63b8ff" stroke="#63b8ff" points="180.61,-313.62 171.14,-318.37 181.51,-320.56 180.61,-313.62"/>
</a>
</g>
</g>
<!-- Node13 -->
<g id="Node000013" class="node">
<title>Node13</title>
<g id="a_Node000013"><a xlink:href="classllvm_1_1IntInit.html" target="_top" xlink:title="&#39;7&#39; &#45; Represent an initialization by a literal integer value.">
<polygon fill="white" stroke="#666666" points="303.38,-278.25 238.62,-278.25 238.62,-259 303.38,-259 303.38,-278.25"/>
<text xml:space="preserve" text-anchor="middle" x="271" y="-264.75" font-family="Helvetica,sans-Serif" font-size="10.00">llvm::IntInit</text>
</a>
</g>
</g>
<!-- Node1&#45;&gt;Node13 -->
<g id="edge12_Node000001_Node000013" class="edge">
<title>Node1&#45;&gt;Node13</title>
<g id="a_edge12_Node000001_Node000013"><a xlink:title=" ">
<path fill="none" stroke="#63b8ff" d="M158.28,-308.27C172.13,-301.06 189.28,-292.73 205.25,-286.62 215.82,-282.58 227.68,-279.02 238.33,-276.15"/>
<polygon fill="#63b8ff" stroke="#63b8ff" points="156.93,-305.03 149.74,-312.81 160.22,-311.21 156.93,-305.03"/>
</a>
</g>
</g>
<!-- Node14 -->
<g id="Node000014" class="node">
<title>Node14</title>
<g id="a_Node000014"><a xlink:href="classllvm_1_1IsAOpInit.html" target="_top" xlink:title="!isa&lt;type&gt;(expr) &#45; Dynamically determine the type of an expression.">
<polygon fill="white" stroke="#666666" points="311.62,-241.25 230.38,-241.25 230.38,-222 311.62,-222 311.62,-241.25"/>
<text xml:space="preserve" text-anchor="middle" x="271" y="-227.75" font-family="Helvetica,sans-Serif" font-size="10.00">llvm::IsAOpInit</text>
</a>
</g>
</g>
<!-- Node1&#45;&gt;Node14 -->
<g id="edge13_Node000001_Node000014" class="edge">
<title>Node1&#45;&gt;Node14</title>
<g id="a_edge13_Node000001_Node000014"><a xlink:title=" ">
<path fill="none" stroke="#63b8ff" d="M144.79,-304.68C158.56,-287.85 180.8,-263.8 205.25,-249.62 212.82,-245.24 221.51,-241.87 230.02,-239.31"/>
<polygon fill="#63b8ff" stroke="#63b8ff" points="142.11,-302.42 138.65,-312.43 147.6,-306.77 142.11,-302.42"/>
</a>
</g>
</g>
<!-- Node15 -->
<g id="Node000015" class="node">
<title>Node15</title>
<g id="a_Node000015"><a xlink:href="classllvm_1_1ListInit.html" target="_top" xlink:title="[AL, AH, CL] &#45; Represent a list of defs">
<polygon fill="white" stroke="#666666" points="305.62,-204.25 236.38,-204.25 236.38,-185 305.62,-185 305.62,-204.25"/>
<text xml:space="preserve" text-anchor="middle" x="271" y="-190.75" font-family="Helvetica,sans-Serif" font-size="10.00">llvm::ListInit</text>
</a>
</g>
</g>
<!-- Node1&#45;&gt;Node15 -->
<g id="edge14_Node000001_Node000015" class="edge">
<title>Node1&#45;&gt;Node15</title>
<g id="a_edge14_Node000001_Node000015"><a xlink:title=" ">
<path fill="none" stroke="#63b8ff" d="M138.83,-303.07C150.22,-277.97 172.85,-235.97 205.25,-212.62 214.24,-206.15 225.48,-202 236.05,-199.34"/>
<polygon fill="#63b8ff" stroke="#63b8ff" points="135.64,-301.63 134.88,-312.2 142.06,-304.41 135.64,-301.63"/>
</a>
</g>
</g>
<!-- Node16 -->
<g id="Node000016" class="node">
<title>Node16</title>
<g id="a_Node000016"><a xlink:href="classllvm_1_1OpInit.html" target="_top" xlink:title="Base class for operators.">
<polygon fill="white" stroke="#666666" points="304.12,-167.25 237.88,-167.25 237.88,-148 304.12,-148 304.12,-167.25"/>
<text xml:space="preserve" text-anchor="middle" x="271" y="-153.75" font-family="Helvetica,sans-Serif" font-size="10.00">llvm::OpInit</text>
</a>
</g>
</g>
<!-- Node1&#45;&gt;Node16 -->
<g id="edge15_Node000001_Node000016" class="edge">
<title>Node1&#45;&gt;Node16</title>
<g id="a_edge15_Node000001_Node000016"><a xlink:title=" ">
<path fill="none" stroke="#63b8ff" d="M135.15,-302.83C143.62,-270.68 164.38,-209.14 205.25,-175.62 214.36,-168.15 226.36,-163.78 237.56,-161.21"/>
<polygon fill="#63b8ff" stroke="#63b8ff" points="131.86,-301.57 132.85,-312.12 138.65,-303.25 131.86,-301.57"/>
</a>
</g>
</g>
<!-- Node20 -->
<g id="Node000020" class="node">
<title>Node20</title>
<g id="a_Node000020"><a xlink:href="classllvm_1_1StringInit.html" target="_top" xlink:title="&quot;foo&quot; &#45; Represent an initialization by a string value.">
<polygon fill="white" stroke="#666666" points="310.5,-130.25 231.5,-130.25 231.5,-111 310.5,-111 310.5,-130.25"/>
<text xml:space="preserve" text-anchor="middle" x="271" y="-116.75" font-family="Helvetica,sans-Serif" font-size="10.00">llvm::StringInit</text>
</a>
</g>
</g>
<!-- Node1&#45;&gt;Node20 -->
<g id="edge19_Node000001_Node000020" class="edge">
<title>Node1&#45;&gt;Node20</title>
<g id="a_edge19_Node000001_Node000020"><a xlink:title=" ">
<path fill="none" stroke="#63b8ff" d="M132.82,-302.65C138.43,-264.3 155.78,-182.78 205.25,-138.62 212.47,-132.18 221.82,-128.02 231.15,-125.34"/>
<polygon fill="#63b8ff" stroke="#63b8ff" points="129.38,-302.01 131.54,-312.38 136.32,-302.92 129.38,-302.01"/>
</a>
</g>
</g>
<!-- Node21 -->
<g id="Node000021" class="node">
<title>Node21</title>
<g id="a_Node000021"><a xlink:href="classllvm_1_1VarBitInit.html" target="_top" xlink:title="Opcode{0} &#45; Represent access to one bit of a variable or field.">
<polygon fill="white" stroke="#666666" points="310.88,-93.25 231.12,-93.25 231.12,-74 310.88,-74 310.88,-93.25"/>
<text xml:space="preserve" text-anchor="middle" x="271" y="-79.75" font-family="Helvetica,sans-Serif" font-size="10.00">llvm::VarBitInit</text>
</a>
</g>
</g>
<!-- Node1&#45;&gt;Node21 -->
<g id="edge20_Node000001_Node000021" class="edge">
<title>Node1&#45;&gt;Node21</title>
<g id="a_edge20_Node000001_Node000021"><a xlink:title=" ">
<path fill="none" stroke="#63b8ff" d="M131.2,-302.52C134.09,-258.57 147.05,-156.75 205.25,-101.62 212.28,-94.97 221.56,-90.73 230.89,-88.05"/>
<polygon fill="#63b8ff" stroke="#63b8ff" points="127.71,-302.28 130.68,-312.45 134.7,-302.65 127.71,-302.28"/>
</a>
</g>
</g>
<!-- Node22 -->
<g id="Node000022" class="node">
<title>Node22</title>
<g id="a_Node000022"><a xlink:href="classllvm_1_1VarDefInit.html" target="_top" xlink:title="classname&lt;targs...&gt; &#45; Represent an uninstantiated anonymous class instantiation.">
<polygon fill="white" stroke="#666666" points="312.75,-56.25 229.25,-56.25 229.25,-37 312.75,-37 312.75,-56.25"/>
<text xml:space="preserve" text-anchor="middle" x="271" y="-42.75" font-family="Helvetica,sans-Serif" font-size="10.00">llvm::VarDefInit</text>
</a>
</g>
</g>
<!-- Node1&#45;&gt;Node22 -->
<g id="edge21_Node000001_Node000022" class="edge">
<title>Node1&#45;&gt;Node22</title>
<g id="a_edge21_Node000001_Node000022"><a xlink:title=" ">
<path fill="none" stroke="#63b8ff" d="M130,-302.42C130.32,-253.33 138.22,-130.97 205.25,-64.62 211.72,-58.22 220.26,-54.05 229,-51.34"/>
<polygon fill="#63b8ff" stroke="#63b8ff" points="126.5,-302.24 130.05,-312.23 133.5,-302.21 126.5,-302.24"/>
</a>
</g>
</g>
<!-- Node23 -->
<g id="Node000023" class="node">
<title>Node23</title>
<g id="a_Node000023"><a xlink:href="classllvm_1_1VarInit.html" target="_top" xlink:title="&#39;Opcode&#39; &#45; Represent a reference to an entire variable object.">
<polygon fill="white" stroke="#666666" points="304.88,-19.25 237.12,-19.25 237.12,0 304.88,0 304.88,-19.25"/>
<text xml:space="preserve" text-anchor="middle" x="271" y="-5.75" font-family="Helvetica,sans-Serif" font-size="10.00">llvm::VarInit</text>
</a>
</g>
</g>
<!-- Node1&#45;&gt;Node23 -->
<g id="edge22_Node000001_Node000023" class="edge">
<title>Node1&#45;&gt;Node23</title>
<g id="a_edge22_Node000001_Node000023"><a xlink:title=" ">
<path fill="none" stroke="#63b8ff" d="M132.98,-302.3C140.87,-241.21 166.35,-67.45 205.25,-27.62 213.57,-19.11 225.53,-14.53 236.92,-12.09"/>
<polygon fill="#63b8ff" stroke="#63b8ff" points="129.54,-301.67 131.76,-312.03 136.48,-302.55 129.54,-301.67"/>
</a>
</g>
</g>
<!-- Node2 -->
<g id="Node000002" class="node">
<title>Node2</title>
<g id="a_Node000002"><a xlink:href="classllvm_1_1Init.html" target="_top" xlink:title=" ">
<polygon fill="white" stroke="#666666" points="53.5,-333.25 0,-333.25 0,-314 53.5,-314 53.5,-333.25"/>
<text xml:space="preserve" text-anchor="middle" x="26.75" y="-319.75" font-family="Helvetica,sans-Serif" font-size="10.00">llvm::Init</text>
</a>
</g>
</g>
<!-- Node2&#45;&gt;Node1 -->
<g id="edge1_Node000001_Node000002" class="edge">
<title>Node2&#45;&gt;Node1</title>
<g id="a_edge1_Node000001_Node000002"><a xlink:title=" ">
<path fill="none" stroke="#63b8ff" d="M65.27,-323.62C73.03,-323.62 81.23,-323.62 89.05,-323.62"/>
<polygon fill="#63b8ff" stroke="#63b8ff" points="65.44,-320.13 55.44,-323.63 65.44,-327.13 65.44,-320.13"/>
</a>
</g>
</g>
<!-- Node17 -->
<g id="Node000017" class="node">
<title>Node17</title>
<g id="a_Node000017"><a xlink:href="classllvm_1_1BinOpInit.html" target="_top" xlink:title="!op (X, Y) &#45; Combine two inits.">
<polygon fill="white" stroke="#666666" points="455.5,-204.25 375,-204.25 375,-185 455.5,-185 455.5,-204.25"/>
<text xml:space="preserve" text-anchor="middle" x="415.25" y="-190.75" font-family="Helvetica,sans-Serif" font-size="10.00">llvm::BinOpInit</text>
</a>
</g>
</g>
<!-- Node16&#45;&gt;Node17 -->
<g id="edge16_Node000016_Node000017" class="edge">
<title>Node16&#45;&gt;Node17</title>
<g id="a_edge16_Node000016_Node000017"><a xlink:title=" ">
<path fill="none" stroke="#63b8ff" d="M315.17,-168.85C334.39,-173.85 356.85,-179.7 375.52,-184.55"/>
<polygon fill="#63b8ff" stroke="#63b8ff" points="316.3,-165.53 305.74,-166.4 314.54,-172.31 316.3,-165.53"/>
</a>
</g>
</g>
<!-- Node18 -->
<g id="Node000018" class="node">
<title>Node18</title>
<g id="a_Node000018"><a xlink:href="classllvm_1_1TernOpInit.html" target="_top" xlink:title="!op (X, Y, Z) &#45; Combine two inits.">
<polygon fill="white" stroke="#666666" points="457.75,-167.25 372.75,-167.25 372.75,-148 457.75,-148 457.75,-167.25"/>
<text xml:space="preserve" text-anchor="middle" x="415.25" y="-153.75" font-family="Helvetica,sans-Serif" font-size="10.00">llvm::TernOpInit</text>
</a>
</g>
</g>
<!-- Node16&#45;&gt;Node18 -->
<g id="edge17_Node000016_Node000018" class="edge">
<title>Node16&#45;&gt;Node18</title>
<g id="a_edge17_Node000016_Node000018"><a xlink:title=" ">
<path fill="none" stroke="#63b8ff" d="M315.67,-157.62C333.71,-157.62 354.53,-157.62 372.37,-157.62"/>
<polygon fill="#63b8ff" stroke="#63b8ff" points="315.79,-154.13 305.79,-157.63 315.79,-161.13 315.79,-154.13"/>
</a>
</g>
</g>
<!-- Node19 -->
<g id="Node000019" class="node">
<title>Node19</title>
<g id="a_Node000019"><a xlink:href="classllvm_1_1UnOpInit.html" target="_top" xlink:title="!op (X) &#45; Transform an init.">
<polygon fill="white" stroke="#666666" points="454.75,-130.25 375.75,-130.25 375.75,-111 454.75,-111 454.75,-130.25"/>
<text xml:space="preserve" text-anchor="middle" x="415.25" y="-116.75" font-family="Helvetica,sans-Serif" font-size="10.00">llvm::UnOpInit</text>
</a>
</g>
</g>
<!-- Node16&#45;&gt;Node19 -->
<g id="edge18_Node000016_Node000019" class="edge">
<title>Node16&#45;&gt;Node19</title>
<g id="a_edge18_Node000016_Node000019"><a xlink:title=" ">
<path fill="none" stroke="#63b8ff" d="M315.17,-146.4C334.39,-141.4 356.85,-135.55 375.52,-130.7"/>
<polygon fill="#63b8ff" stroke="#63b8ff" points="314.54,-142.94 305.74,-148.85 316.3,-149.72 314.54,-142.94"/>
</a>
</g>
</g>
</g>
</svg>
