<?xml version="1.0" encoding="UTF-8" standalone="no"?>
<!DOCTYPE svg PUBLIC "-//W3C//DTD SVG 1.1//EN"
 "http://www.w3.org/Graphics/SVG/1.1/DTD/svg11.dtd">
<!-- Generated by graphviz version 13.1.2 (20250808.2320)
 -->
<!-- Title: llvm::ArgumentInit Pages: 1 -->
<svg width="166pt" height="83pt"
 viewBox="0.00 0.00 166.00 83.00" xmlns="http://www.w3.org/2000/svg" xmlns:xlink="http://www.w3.org/1999/xlink">
<g id="graph0" class="graph" transform="scale(1 1) rotate(0) translate(4 78.5)">
<title>llvm::ArgumentInit</title>
<!-- Node1 -->
<g id="Node000001" class="node">
<title>Node1</title>
<g id="a_Node000001"><a xlink:title=" ">
<polygon fill="#999999" stroke="#666666" points="118.5,-19.25 23,-19.25 23,0 118.5,0 118.5,-19.25"/>
<text xml:space="preserve" text-anchor="middle" x="70.75" y="-5.75" font-family="Helvetica,sans-Serif" font-size="10.00">llvm::ArgumentInit</text>
</a>
</g>
</g>
<!-- Node2 -->
<g id="Node000002" class="node">
<title>Node2</title>
<g id="a_Node000002"><a xlink:href="classllvm_1_1Init.html" target="_top" xlink:title=" ">
<polygon fill="white" stroke="#666666" points="53.5,-74.5 0,-74.5 0,-55.25 53.5,-55.25 53.5,-74.5"/>
<text xml:space="preserve" text-anchor="middle" x="26.75" y="-61" font-family="Helvetica,sans-Serif" font-size="10.00">llvm::Init</text>
</a>
</g>
</g>
<!-- Node2&#45;&gt;Node1 -->
<g id="edge1_Node000001_Node000002" class="edge">
<title>Node2&#45;&gt;Node1</title>
<g id="a_edge1_Node000001_Node000002"><a xlink:title=" ">
<path fill="none" stroke="#63b8ff" d="M41.33,-46.22C48.7,-37.31 57.33,-26.87 63.33,-19.61"/>
<polygon fill="#63b8ff" stroke="#63b8ff" points="38.65,-43.98 34.98,-53.92 44.05,-48.44 38.65,-43.98"/>
</a>
</g>
</g>
<!-- Node3 -->
<g id="Node000003" class="node">
<title>Node3</title>
<g id="a_Node000003"><a xlink:href="classllvm_1_1FoldingSetBase_1_1Node.html" target="_top" xlink:title="Node &#45; This class is used to maintain the singly linked bucket list in a folding set.">
<polygon fill="white" stroke="#666666" points="157.62,-74.5 71.88,-74.5 71.88,-55.25 157.62,-55.25 157.62,-74.5"/>
<text xml:space="preserve" text-anchor="middle" x="114.75" y="-61" font-family="Helvetica,sans-Serif" font-size="10.00">FoldingSetNode</text>
</a>
</g>
</g>
<!-- Node3&#45;&gt;Node1 -->
<g id="edge2_Node000001_Node000003" class="edge">
<title>Node3&#45;&gt;Node1</title>
<g id="a_edge2_Node000001_Node000003"><a xlink:title=" ">
<path fill="none" stroke="#63b8ff" d="M100.17,-46.22C92.8,-37.31 84.17,-26.87 78.17,-19.61"/>
<polygon fill="#63b8ff" stroke="#63b8ff" points="97.45,-48.44 106.52,-53.92 102.85,-43.98 97.45,-48.44"/>
</a>
</g>
</g>
</g>
</svg>
