<?xml version="1.0" encoding="UTF-8" standalone="no"?>
<!DOCTYPE svg PUBLIC "-//W3C//DTD SVG 1.1//EN"
 "http://www.w3.org/Graphics/SVG/1.1/DTD/svg11.dtd">
<!-- Generated by graphviz version 13.1.2 (20250808.2320)
 -->
<!-- Title: lib/ExecutionEngine Pages: 1 -->
<svg width="820pt" height="150pt"
 viewBox="0.00 0.00 820.00 150.00" xmlns="http://www.w3.org/2000/svg" xmlns:xlink="http://www.w3.org/1999/xlink">
<g id="graph0" class="graph" transform="scale(1 1) rotate(0) translate(4 145.75)">
<title>lib/ExecutionEngine</title>
<g id="clust1" class="cluster">
<title>clusterdir_97aefd0d527b934f1d99a682da8fe6a9</title>
<g id="a_clust1"><a xlink:href="dir_97aefd0d527b934f1d99a682da8fe6a9.html" target="_top" xlink:title="lib">
<polygon fill="#edf0f7" stroke="#404040" stroke-dasharray="5,2" points="8,-8 8,-133.75 758,-133.75 758,-8 8,-8"/>
<text xml:space="preserve" text-anchor="middle" x="383" y="-120.25" font-family="Helvetica,sans-Serif" font-size="10.00">lib</text>
</a>
</g>
</g>
<g id="clust2" class="cluster">
<title>clusterdir_9ff4c6dc1720636682ab045c894e9bc5</title>
<g id="a_clust2"><a xlink:href="dir_9ff4c6dc1720636682ab045c894e9bc5.html" target="_top">
<polygon fill="#edf0f7" stroke="#404040" stroke-width="2" points="16,-16 16,-106.5 750,-106.5 750,-16 16,-16"/>
</a>
</g>
</g>
<!-- dir_9ff4c6dc1720636682ab045c894e9bc5 -->
<g id="node1" class="node">
<title>dir_9ff4c6dc1720636682ab045c894e9bc5</title>
<text xml:space="preserve" text-anchor="middle" x="167" y="-85" font-family="Helvetica,sans-Serif" font-size="10.00">ExecutionEngine</text>
</g>
<!-- dir_d44c64559bbebec7f509842c48db8b23 -->
<g id="node11" class="node">
<title>dir_d44c64559bbebec7f509842c48db8b23</title>
<g id="a_node11"><a xlink:href="dir_d44c64559bbebec7f509842c48db8b23.html" target="_top" xlink:title="include">
<polygon fill="#edf0f7" stroke="red" points="812.38,-43.25 765.62,-43.25 765.62,-24 812.38,-24 812.38,-43.25"/>
<text xml:space="preserve" text-anchor="middle" x="789" y="-29.75" font-family="Helvetica,sans-Serif" font-size="10.00">include</text>
</a>
</g>
</g>
<!-- dir_9ff4c6dc1720636682ab045c894e9bc5&#45;&gt;dir_d44c64559bbebec7f509842c48db8b23 -->
<g id="edge1" class="edge">
<title>dir_9ff4c6dc1720636682ab045c894e9bc5&#45;&gt;dir_d44c64559bbebec7f509842c48db8b23</title>
<g id="a_edge1"><a xlink:href="dir_000123_000149.html" target="_top">
<path fill="none" stroke="#63b8ff" d="M211.75,-80.41C214.87,-79.98 217.98,-79.59 221,-79.25 456.92,-52.5 519.4,-79.79 754,-43.25 754.12,-43.23 754.23,-43.21 754.35,-43.2"/>
<polygon fill="#63b8ff" stroke="#63b8ff" points="754.76,-46.68 763.91,-41.33 753.42,-39.81 754.76,-46.68"/>
</a>
</g>
<g id="a_edge1&#45;headlabel"><a xlink:href="dir_000123_000149.html" target="_top" xlink:title="783">
<text xml:space="preserve" text-anchor="middle" x="753.27" y="-45.99" font-family="Helvetica,sans-Serif" font-size="10.00" fill="#63b8ff">783</text>
</a>
</g>
</g>
<!-- dir_c18cbdaf4e06e8755d3483d62aecc1ae -->
<g id="node2" class="node">
<title>dir_c18cbdaf4e06e8755d3483d62aecc1ae</title>
<g id="a_node2"><a xlink:href="dir_c18cbdaf4e06e8755d3483d62aecc1ae.html" target="_top" xlink:title="IntelJITEvents">
<polygon fill="#a2b4d6" stroke="#404040" points="103.88,-98.5 24.12,-98.5 24.12,-79.25 103.88,-79.25 103.88,-98.5"/>
<text xml:space="preserve" text-anchor="middle" x="64" y="-85" font-family="Helvetica,sans-Serif" font-size="10.00">IntelJITEvents</text>
</a>
</g>
</g>
<!-- dir_4a5904c8d158b5c0ddd1bc63e0f1f5c6 -->
<g id="node3" class="node">
<title>dir_4a5904c8d158b5c0ddd1bc63e0f1f5c6</title>
<g id="a_node3"><a xlink:href="dir_4a5904c8d158b5c0ddd1bc63e0f1f5c6.html" target="_top" xlink:title="IntelJITProfiling">
<polygon fill="#a2b4d6" stroke="#404040" points="108.12,-43.25 23.88,-43.25 23.88,-24 108.12,-24 108.12,-43.25"/>
<text xml:space="preserve" text-anchor="middle" x="66" y="-29.75" font-family="Helvetica,sans-Serif" font-size="10.00">IntelJITProfiling</text>
</a>
</g>
</g>
<!-- dir_c18cbdaf4e06e8755d3483d62aecc1ae&#45;&gt;dir_4a5904c8d158b5c0ddd1bc63e0f1f5c6 -->
<g id="edge2" class="edge">
<title>dir_c18cbdaf4e06e8755d3483d62aecc1ae&#45;&gt;dir_4a5904c8d158b5c0ddd1bc63e0f1f5c6</title>
<g id="a_edge2"><a xlink:href="dir_000154_000155.html" target="_top">
<path fill="none" stroke="#63b8ff" d="M64.33,-79.08C64.58,-72.49 64.93,-63.21 65.24,-54.82"/>
<polygon fill="#63b8ff" stroke="#63b8ff" points="68.73,-55.25 65.61,-45.12 61.73,-54.98 68.73,-55.25"/>
</a>
</g>
<g id="a_edge2&#45;headlabel"><a xlink:href="dir_000154_000155.html" target="_top" xlink:title="1">
<text xml:space="preserve" text-anchor="middle" x="71.49" y="-53.56" font-family="Helvetica,sans-Serif" font-size="10.00" fill="#63b8ff">1</text>
</a>
</g>
</g>
<!-- dir_c18cbdaf4e06e8755d3483d62aecc1ae&#45;&gt;dir_d44c64559bbebec7f509842c48db8b23 -->
<g id="edge3" class="edge">
<title>dir_c18cbdaf4e06e8755d3483d62aecc1ae&#45;&gt;dir_d44c64559bbebec7f509842c48db8b23</title>
<g id="a_edge3"><a xlink:href="dir_000154_000149.html" target="_top">
<path fill="none" stroke="#63b8ff" d="M104.32,-80.39C107.25,-79.96 110.17,-79.58 113,-79.25 396.45,-46.46 471.82,-85.57 754,-43.25 754.12,-43.23 754.23,-43.21 754.35,-43.2"/>
<polygon fill="#63b8ff" stroke="#63b8ff" points="754.75,-46.68 763.91,-41.36 753.43,-39.81 754.75,-46.68"/>
</a>
</g>
<g id="a_edge3&#45;headlabel"><a xlink:href="dir_000154_000149.html" target="_top" xlink:title="16">
<text xml:space="preserve" text-anchor="middle" x="753.24" y="-45.99" font-family="Helvetica,sans-Serif" font-size="10.00" fill="#63b8ff">16</text>
</a>
</g>
</g>
<!-- dir_88ae9da9d919ad872cc2fab341cfed84 -->
<g id="node4" class="node">
<title>dir_88ae9da9d919ad872cc2fab341cfed84</title>
<g id="a_node4"><a xlink:href="dir_88ae9da9d919ad872cc2fab341cfed84.html" target="_top" xlink:title="Interpreter">
<polygon fill="#a2b4d6" stroke="#404040" points="290.12,-98.5 229.88,-98.5 229.88,-79.25 290.12,-79.25 290.12,-98.5"/>
<text xml:space="preserve" text-anchor="middle" x="260" y="-85" font-family="Helvetica,sans-Serif" font-size="10.00">Interpreter</text>
</a>
</g>
</g>
<!-- dir_88ae9da9d919ad872cc2fab341cfed84&#45;&gt;dir_d44c64559bbebec7f509842c48db8b23 -->
<g id="edge4" class="edge">
<title>dir_88ae9da9d919ad872cc2fab341cfed84&#45;&gt;dir_d44c64559bbebec7f509842c48db8b23</title>
<g id="a_edge4"><a xlink:href="dir_000158_000149.html" target="_top">
<path fill="none" stroke="#63b8ff" d="M290.58,-80.69C293.42,-80.15 296.26,-79.66 299,-79.25 499.63,-49.28 553.75,-75.63 754,-43.25 754.12,-43.23 754.23,-43.21 754.35,-43.19"/>
<polygon fill="#63b8ff" stroke="#63b8ff" points="754.78,-46.68 763.9,-41.29 753.41,-39.81 754.78,-46.68"/>
</a>
</g>
<g id="a_edge4&#45;headlabel"><a xlink:href="dir_000158_000149.html" target="_top" xlink:title="35">
<text xml:space="preserve" text-anchor="middle" x="753.29" y="-45.99" font-family="Helvetica,sans-Serif" font-size="10.00" fill="#63b8ff">35</text>
</a>
</g>
</g>
<!-- dir_c0daa9c1887f9b9c5a8c0de610c5601a -->
<g id="node5" class="node">
<title>dir_c0daa9c1887f9b9c5a8c0de610c5601a</title>
<g id="a_node5"><a xlink:href="dir_c0daa9c1887f9b9c5a8c0de610c5601a.html" target="_top" xlink:title="JITLink">
<polygon fill="#a2b4d6" stroke="#404040" points="356.12,-98.5 307.88,-98.5 307.88,-79.25 356.12,-79.25 356.12,-98.5"/>
<text xml:space="preserve" text-anchor="middle" x="332" y="-85" font-family="Helvetica,sans-Serif" font-size="10.00">JITLink</text>
</a>
</g>
</g>
<!-- dir_c0daa9c1887f9b9c5a8c0de610c5601a&#45;&gt;dir_d44c64559bbebec7f509842c48db8b23 -->
<g id="edge5" class="edge">
<title>dir_c0daa9c1887f9b9c5a8c0de610c5601a&#45;&gt;dir_d44c64559bbebec7f509842c48db8b23</title>
<g id="a_edge5"><a xlink:href="dir_000168_000149.html" target="_top">
<path fill="none" stroke="#63b8ff" d="M356.41,-81.02C359.29,-80.35 362.2,-79.74 365,-79.25 536.01,-49.2 582.79,-72.1 754,-43.25 754.12,-43.23 754.23,-43.21 754.35,-43.19"/>
<polygon fill="#63b8ff" stroke="#63b8ff" points="754.79,-46.67 763.89,-41.25 753.4,-39.81 754.79,-46.67"/>
</a>
</g>
<g id="a_edge5&#45;headlabel"><a xlink:href="dir_000168_000149.html" target="_top" xlink:title="180">
<text xml:space="preserve" text-anchor="middle" x="753.31" y="-45.99" font-family="Helvetica,sans-Serif" font-size="10.00" fill="#63b8ff">180</text>
</a>
</g>
</g>
<!-- dir_f6bf5a9059ffffaa95dc7b2d70a6f1d4 -->
<g id="node6" class="node">
<title>dir_f6bf5a9059ffffaa95dc7b2d70a6f1d4</title>
<g id="a_node6"><a xlink:href="dir_f6bf5a9059ffffaa95dc7b2d70a6f1d4.html" target="_top" xlink:title="MCJIT">
<polygon fill="#a2b4d6" stroke="#404040" points="420,-98.5 374,-98.5 374,-79.25 420,-79.25 420,-98.5"/>
<text xml:space="preserve" text-anchor="middle" x="397" y="-85" font-family="Helvetica,sans-Serif" font-size="10.00">MCJIT</text>
</a>
</g>
</g>
<!-- dir_f6bf5a9059ffffaa95dc7b2d70a6f1d4&#45;&gt;dir_d44c64559bbebec7f509842c48db8b23 -->
<g id="edge6" class="edge">
<title>dir_f6bf5a9059ffffaa95dc7b2d70a6f1d4&#45;&gt;dir_d44c64559bbebec7f509842c48db8b23</title>
<g id="a_edge6"><a xlink:href="dir_000202_000149.html" target="_top">
<path fill="none" stroke="#63b8ff" d="M420.32,-81.15C423.23,-80.44 426.17,-79.78 429,-79.25 571.8,-52.26 610.92,-68.69 754,-43.25 754.12,-43.23 754.23,-43.21 754.35,-43.19"/>
<polygon fill="#63b8ff" stroke="#63b8ff" points="754.81,-46.67 763.89,-41.2 753.38,-39.81 754.81,-46.67"/>
</a>
</g>
<g id="a_edge6&#45;headlabel"><a xlink:href="dir_000202_000149.html" target="_top" xlink:title="23">
<text xml:space="preserve" text-anchor="middle" x="753.35" y="-46" font-family="Helvetica,sans-Serif" font-size="10.00" fill="#63b8ff">23</text>
</a>
</g>
</g>
<!-- dir_8535d753063d2d6243d40ee90c09f36a -->
<g id="node7" class="node">
<title>dir_8535d753063d2d6243d40ee90c09f36a</title>
<g id="a_node7"><a xlink:href="dir_8535d753063d2d6243d40ee90c09f36a.html" target="_top" xlink:title="OProfileJIT">
<polygon fill="#a2b4d6" stroke="#404040" points="503.75,-98.5 438.25,-98.5 438.25,-79.25 503.75,-79.25 503.75,-98.5"/>
<text xml:space="preserve" text-anchor="middle" x="471" y="-85" font-family="Helvetica,sans-Serif" font-size="10.00">OProfileJIT</text>
</a>
</g>
</g>
<!-- dir_8535d753063d2d6243d40ee90c09f36a&#45;&gt;dir_d44c64559bbebec7f509842c48db8b23 -->
<g id="edge7" class="edge">
<title>dir_8535d753063d2d6243d40ee90c09f36a&#45;&gt;dir_d44c64559bbebec7f509842c48db8b23</title>
<g id="a_edge7"><a xlink:href="dir_000252_000149.html" target="_top">
<path fill="none" stroke="#63b8ff" d="M503.98,-80.93C507.03,-80.34 510.07,-79.77 513,-79.25 619.64,-60.35 647.75,-64.23 754,-43.25 754.12,-43.23 754.23,-43.2 754.35,-43.18"/>
<polygon fill="#63b8ff" stroke="#63b8ff" points="754.85,-46.65 763.87,-41.1 753.35,-39.82 754.85,-46.65"/>
</a>
</g>
<g id="a_edge7&#45;headlabel"><a xlink:href="dir_000252_000149.html" target="_top" xlink:title="19">
<text xml:space="preserve" text-anchor="middle" x="753.42" y="-46" font-family="Helvetica,sans-Serif" font-size="10.00" fill="#63b8ff">19</text>
</a>
</g>
</g>
<!-- dir_5e11c450ca4c873ca81149e572d5ac9a -->
<g id="node8" class="node">
<title>dir_5e11c450ca4c873ca81149e572d5ac9a</title>
<g id="a_node8"><a xlink:href="dir_5e11c450ca4c873ca81149e572d5ac9a.html" target="_top" xlink:title="Orc">
<polygon fill="#a2b4d6" stroke="#404040" points="553.88,-98.5 522.12,-98.5 522.12,-79.25 553.88,-79.25 553.88,-98.5"/>
<text xml:space="preserve" text-anchor="middle" x="538" y="-85" font-family="Helvetica,sans-Serif" font-size="10.00">Orc</text>
</a>
</g>
</g>
<!-- dir_5e11c450ca4c873ca81149e572d5ac9a&#45;&gt;dir_d44c64559bbebec7f509842c48db8b23 -->
<g id="edge8" class="edge">
<title>dir_5e11c450ca4c873ca81149e572d5ac9a&#45;&gt;dir_d44c64559bbebec7f509842c48db8b23</title>
<g id="a_edge8"><a xlink:href="dir_000256_000149.html" target="_top">
<path fill="none" stroke="#63b8ff" d="M554.3,-81.87C557.18,-80.92 560.16,-80 563,-79.25 646.5,-57.1 669.59,-61.59 754,-43.25 754.11,-43.23 754.23,-43.2 754.34,-43.17"/>
<polygon fill="#63b8ff" stroke="#63b8ff" points="754.88,-46.64 763.84,-40.99 753.31,-39.82 754.88,-46.64"/>
</a>
</g>
<g id="a_edge8&#45;headlabel"><a xlink:href="dir_000256_000149.html" target="_top" xlink:title="375">
<text xml:space="preserve" text-anchor="middle" x="753.49" y="-46" font-family="Helvetica,sans-Serif" font-size="10.00" fill="#63b8ff">375</text>
</a>
</g>
</g>
<!-- dir_b8c315def5dadaa4e5a90d89aa927992 -->
<g id="node9" class="node">
<title>dir_b8c315def5dadaa4e5a90d89aa927992</title>
<g id="a_node9"><a xlink:href="dir_b8c315def5dadaa4e5a90d89aa927992.html" target="_top" xlink:title="PerfJITEvents">
<polygon fill="#a2b4d6" stroke="#404040" points="650.5,-98.5 571.5,-98.5 571.5,-79.25 650.5,-79.25 650.5,-98.5"/>
<text xml:space="preserve" text-anchor="middle" x="611" y="-85" font-family="Helvetica,sans-Serif" font-size="10.00">PerfJITEvents</text>
</a>
</g>
</g>
<!-- dir_b8c315def5dadaa4e5a90d89aa927992&#45;&gt;dir_d44c64559bbebec7f509842c48db8b23 -->
<g id="edge9" class="edge">
<title>dir_b8c315def5dadaa4e5a90d89aa927992&#45;&gt;dir_d44c64559bbebec7f509842c48db8b23</title>
<g id="a_edge9"><a xlink:href="dir_000266_000149.html" target="_top">
<path fill="none" stroke="#63b8ff" d="M641.2,-78.84C672.52,-69.47 721.42,-54.84 754.31,-45"/>
<polygon fill="#63b8ff" stroke="#63b8ff" points="755.19,-48.39 763.77,-42.17 753.19,-41.69 755.19,-48.39"/>
</a>
</g>
<g id="a_edge9&#45;headlabel"><a xlink:href="dir_000266_000149.html" target="_top" xlink:title="14">
<text xml:space="preserve" text-anchor="middle" x="754.01" y="-47.83" font-family="Helvetica,sans-Serif" font-size="10.00" fill="#63b8ff">14</text>
</a>
</g>
</g>
<!-- dir_9dfae4a6f191195de651c80c4758b76b -->
<g id="node10" class="node">
<title>dir_9dfae4a6f191195de651c80c4758b76b</title>
<g id="a_node10"><a xlink:href="dir_9dfae4a6f191195de651c80c4758b76b.html" target="_top" xlink:title="RuntimeDyld">
<polygon fill="#a2b4d6" stroke="#404040" points="741.5,-98.5 668.5,-98.5 668.5,-79.25 741.5,-79.25 741.5,-98.5"/>
<text xml:space="preserve" text-anchor="middle" x="705" y="-85" font-family="Helvetica,sans-Serif" font-size="10.00">RuntimeDyld</text>
</a>
</g>
</g>
<!-- dir_9dfae4a6f191195de651c80c4758b76b&#45;&gt;dir_d44c64559bbebec7f509842c48db8b23 -->
<g id="edge10" class="edge">
<title>dir_9dfae4a6f191195de651c80c4758b76b&#45;&gt;dir_d44c64559bbebec7f509842c48db8b23</title>
<g id="a_edge10"><a xlink:href="dir_000278_000149.html" target="_top">
<path fill="none" stroke="#63b8ff" d="M719.25,-78.84C731.8,-70.89 750.33,-59.14 765.14,-49.75"/>
<polygon fill="#63b8ff" stroke="#63b8ff" points="766.83,-52.82 773.4,-44.51 763.08,-46.91 766.83,-52.82"/>
</a>
</g>
<g id="a_edge10&#45;headlabel"><a xlink:href="dir_000278_000149.html" target="_top" xlink:title="73">
<text xml:space="preserve" text-anchor="middle" x="766.59" y="-52.46" font-family="Helvetica,sans-Serif" font-size="10.00" fill="#63b8ff">73</text>
</a>
</g>
</g>
</g>
</svg>
