<?xml version="1.0" encoding="UTF-8" standalone="no"?>
<!DOCTYPE svg PUBLIC "-//W3C//DTD SVG 1.1//EN"
 "http://www.w3.org/Graphics/SVG/1.1/DTD/svg11.dtd">
<!-- Generated by graphviz version 13.1.2 (20250808.2320)
 -->
<!-- Title: lib/Target/XCore Pages: 1 -->
<svg width="252pt" height="236pt"
 viewBox="0.00 0.00 252.00 236.00" xmlns="http://www.w3.org/2000/svg" xmlns:xlink="http://www.w3.org/1999/xlink">
<g id="graph0" class="graph" transform="scale(1 1) rotate(0) translate(4 232.25)">
<title>lib/Target/XCore</title>
<g id="clust1" class="cluster">
<title>clusterdir_794e483eb1cc7921d35fd149d9cc325b</title>
<g id="a_clust1"><a xlink:href="dir_794e483eb1cc7921d35fd149d9cc325b.html" target="_top" xlink:title="Target">
<polygon fill="#edf0f7" stroke="#7f7f7f" stroke-dasharray="5,2" points="8,-39.25 8,-220.25 236,-220.25 236,-39.25 8,-39.25"/>
<text xml:space="preserve" text-anchor="middle" x="122" y="-206.75" font-family="Helvetica,sans-Serif" font-size="10.00">Target</text>
</a>
</g>
</g>
<g id="clust2" class="cluster">
<title>clusterdir_2cd3e302ff40176d32d343dab65cf022</title>
<g id="a_clust2"><a xlink:href="dir_2cd3e302ff40176d32d343dab65cf022.html" target="_top">
<polygon fill="#edf0f7" stroke="#404040" stroke-width="2" points="16,-47.25 16,-193 228,-193 228,-47.25 16,-47.25"/>
</a>
</g>
</g>
<!-- dir_2cd3e302ff40176d32d343dab65cf022 -->
<g id="node1" class="node">
<title>dir_2cd3e302ff40176d32d343dab65cf022</title>
<text xml:space="preserve" text-anchor="middle" x="179" y="-171.5" font-family="Helvetica,sans-Serif" font-size="10.00">XCore</text>
</g>
<!-- dir_5f942f75351e32524c738034b56fe0d9 -->
<g id="node3" class="node">
<title>dir_5f942f75351e32524c738034b56fe0d9</title>
<g id="a_node3"><a xlink:href="dir_5f942f75351e32524c738034b56fe0d9.html" target="_top" xlink:title="MCTargetDesc">
<polygon fill="#a2b4d6" stroke="#404040" points="220,-129.75 138,-129.75 138,-110.5 220,-110.5 220,-129.75"/>
<text xml:space="preserve" text-anchor="middle" x="179" y="-116.25" font-family="Helvetica,sans-Serif" font-size="10.00">MCTargetDesc</text>
</a>
</g>
</g>
<!-- dir_2cd3e302ff40176d32d343dab65cf022&#45;&gt;dir_5f942f75351e32524c738034b56fe0d9 -->
<g id="edge1" class="edge">
<title>dir_2cd3e302ff40176d32d343dab65cf022&#45;&gt;dir_5f942f75351e32524c738034b56fe0d9</title>
<g id="a_edge1"><a xlink:href="dir_000374_000228.html" target="_top">
<path fill="none" stroke="#63b8ff" d="M179,-166.05C179,-159.45 179,-149.94 179,-141.36"/>
<polygon fill="#63b8ff" stroke="#63b8ff" points="182.5,-141.43 179,-131.43 175.5,-141.43 182.5,-141.43"/>
</a>
</g>
<g id="a_edge1&#45;headlabel"><a xlink:href="dir_000374_000228.html" target="_top" xlink:title="3">
<text xml:space="preserve" text-anchor="middle" x="185.34" y="-139.64" font-family="Helvetica,sans-Serif" font-size="10.00" fill="#63b8ff">3</text>
</a>
</g>
</g>
<!-- dir_ef8e40a2b84cac54c5cfb4fbfec515a1 -->
<g id="node4" class="node">
<title>dir_ef8e40a2b84cac54c5cfb4fbfec515a1</title>
<g id="a_node4"><a xlink:href="dir_ef8e40a2b84cac54c5cfb4fbfec515a1.html" target="_top" xlink:title="TargetInfo">
<polygon fill="#a2b4d6" stroke="#404040" points="111.75,-74.5 52.25,-74.5 52.25,-55.25 111.75,-55.25 111.75,-74.5"/>
<text xml:space="preserve" text-anchor="middle" x="82" y="-61" font-family="Helvetica,sans-Serif" font-size="10.00">TargetInfo</text>
</a>
</g>
</g>
<!-- dir_2cd3e302ff40176d32d343dab65cf022&#45;&gt;dir_ef8e40a2b84cac54c5cfb4fbfec515a1 -->
<g id="edge3" class="edge">
<title>dir_2cd3e302ff40176d32d343dab65cf022&#45;&gt;dir_ef8e40a2b84cac54c5cfb4fbfec515a1</title>
<g id="a_edge3"><a xlink:href="dir_000374_000329.html" target="_top">
<path fill="none" stroke="#63b8ff" d="M157.21,-174.96C124.46,-174.51 63.34,-168.2 35,-129.75 22.87,-113.29 40.63,-94.43 57.68,-81.5"/>
<polygon fill="#63b8ff" stroke="#63b8ff" points="59.52,-84.49 65.65,-75.85 55.47,-78.78 59.52,-84.49"/>
</a>
</g>
<g id="a_edge3&#45;headlabel"><a xlink:href="dir_000374_000329.html" target="_top" xlink:title="4">
<text xml:space="preserve" text-anchor="middle" x="59.46" y="-84.13" font-family="Helvetica,sans-Serif" font-size="10.00" fill="#63b8ff">4</text>
</a>
</g>
</g>
<!-- dir_d44c64559bbebec7f509842c48db8b23 -->
<g id="node5" class="node">
<title>dir_d44c64559bbebec7f509842c48db8b23</title>
<g id="a_node5"><a xlink:href="dir_d44c64559bbebec7f509842c48db8b23.html" target="_top" xlink:title="include">
<polygon fill="#edf0f7" stroke="red" points="182.38,-19.25 135.62,-19.25 135.62,0 182.38,0 182.38,-19.25"/>
<text xml:space="preserve" text-anchor="middle" x="159" y="-5.75" font-family="Helvetica,sans-Serif" font-size="10.00">include</text>
</a>
</g>
</g>
<!-- dir_2cd3e302ff40176d32d343dab65cf022&#45;&gt;dir_d44c64559bbebec7f509842c48db8b23 -->
<g id="edge2" class="edge">
<title>dir_2cd3e302ff40176d32d343dab65cf022&#45;&gt;dir_d44c64559bbebec7f509842c48db8b23</title>
<g id="a_edge2"><a xlink:href="dir_000374_000149.html" target="_top">
<path fill="none" stroke="#63b8ff" d="M193.95,-165.95C205.93,-158.26 221.87,-145.68 229,-129.75 232.5,-121.94 231.5,-118.68 229,-110.5 219,-77.76 193.71,-46.54 176.43,-27.97"/>
<polygon fill="#63b8ff" stroke="#63b8ff" points="178.98,-25.57 169.52,-20.79 173.93,-30.43 178.98,-25.57"/>
</a>
</g>
<g id="a_edge2&#45;headlabel"><a xlink:href="dir_000374_000149.html" target="_top" xlink:title="167">
<text xml:space="preserve" text-anchor="middle" x="182.47" y="-21.23" font-family="Helvetica,sans-Serif" font-size="10.00" fill="#63b8ff">167</text>
</a>
</g>
</g>
<!-- dir_329b1f44483e84c0ccdf16f1ed3a1950 -->
<g id="node2" class="node">
<title>dir_329b1f44483e84c0ccdf16f1ed3a1950</title>
<g id="a_node2"><a xlink:href="dir_329b1f44483e84c0ccdf16f1ed3a1950.html" target="_top" xlink:title="Disassembler">
<polygon fill="#a2b4d6" stroke="#404040" points="120,-129.75 44,-129.75 44,-110.5 120,-110.5 120,-129.75"/>
<text xml:space="preserve" text-anchor="middle" x="82" y="-116.25" font-family="Helvetica,sans-Serif" font-size="10.00">Disassembler</text>
</a>
</g>
</g>
<!-- dir_329b1f44483e84c0ccdf16f1ed3a1950&#45;&gt;dir_ef8e40a2b84cac54c5cfb4fbfec515a1 -->
<g id="edge5" class="edge">
<title>dir_329b1f44483e84c0ccdf16f1ed3a1950&#45;&gt;dir_ef8e40a2b84cac54c5cfb4fbfec515a1</title>
<g id="a_edge5"><a xlink:href="dir_000106_000329.html" target="_top">
<path fill="none" stroke="#63b8ff" d="M82,-110.33C82,-103.82 82,-94.67 82,-86.37"/>
<polygon fill="#63b8ff" stroke="#63b8ff" points="85.5,-86.37 82,-76.37 78.5,-86.37 85.5,-86.37"/>
</a>
</g>
<g id="a_edge5&#45;headlabel"><a xlink:href="dir_000106_000329.html" target="_top" xlink:title="1">
<text xml:space="preserve" text-anchor="middle" x="88.34" y="-84.58" font-family="Helvetica,sans-Serif" font-size="10.00" fill="#63b8ff">1</text>
</a>
</g>
</g>
<!-- dir_329b1f44483e84c0ccdf16f1ed3a1950&#45;&gt;dir_d44c64559bbebec7f509842c48db8b23 -->
<g id="edge4" class="edge">
<title>dir_329b1f44483e84c0ccdf16f1ed3a1950&#45;&gt;dir_d44c64559bbebec7f509842c48db8b23</title>
<g id="a_edge4"><a xlink:href="dir_000106_000149.html" target="_top">
<path fill="none" stroke="#63b8ff" d="M90.57,-110.3C98.84,-101.57 111.46,-87.66 121,-74.5 131.43,-60.12 141.63,-42.73 148.83,-29.73"/>
<polygon fill="#63b8ff" stroke="#63b8ff" points="151.9,-31.41 153.6,-20.95 145.75,-28.07 151.9,-31.41"/>
</a>
</g>
<g id="a_edge4&#45;headlabel"><a xlink:href="dir_000106_000149.html" target="_top" xlink:title="7">
<text xml:space="preserve" text-anchor="middle" x="153.41" y="-30.72" font-family="Helvetica,sans-Serif" font-size="10.00" fill="#63b8ff">7</text>
</a>
</g>
</g>
<!-- dir_5f942f75351e32524c738034b56fe0d9&#45;&gt;dir_ef8e40a2b84cac54c5cfb4fbfec515a1 -->
<g id="edge7" class="edge">
<title>dir_5f942f75351e32524c738034b56fe0d9&#45;&gt;dir_ef8e40a2b84cac54c5cfb4fbfec515a1</title>
<g id="a_edge7"><a xlink:href="dir_000228_000329.html" target="_top">
<path fill="none" stroke="#63b8ff" d="M162.55,-110.09C147.77,-101.98 125.82,-89.93 108.57,-80.46"/>
<polygon fill="#63b8ff" stroke="#63b8ff" points="110.31,-77.43 99.86,-75.68 106.94,-83.56 110.31,-77.43"/>
</a>
</g>
<g id="a_edge7&#45;headlabel"><a xlink:href="dir_000228_000329.html" target="_top" xlink:title="1">
<text xml:space="preserve" text-anchor="middle" x="113.5" y="-72.06" font-family="Helvetica,sans-Serif" font-size="10.00" fill="#63b8ff">1</text>
</a>
</g>
</g>
<!-- dir_5f942f75351e32524c738034b56fe0d9&#45;&gt;dir_d44c64559bbebec7f509842c48db8b23 -->
<g id="edge6" class="edge">
<title>dir_5f942f75351e32524c738034b56fe0d9&#45;&gt;dir_d44c64559bbebec7f509842c48db8b23</title>
<g id="a_edge6"><a xlink:href="dir_000228_000149.html" target="_top">
<path fill="none" stroke="#63b8ff" d="M177.36,-110.25C174.18,-93 167.1,-54.58 162.72,-30.81"/>
<polygon fill="#63b8ff" stroke="#63b8ff" points="166.19,-30.31 160.93,-21.12 159.3,-31.58 166.19,-30.31"/>
</a>
</g>
<g id="a_edge6&#45;headlabel"><a xlink:href="dir_000228_000149.html" target="_top" xlink:title="21">
<text xml:space="preserve" text-anchor="middle" x="169.36" y="-27.97" font-family="Helvetica,sans-Serif" font-size="10.00" fill="#63b8ff">21</text>
</a>
</g>
</g>
<!-- dir_ef8e40a2b84cac54c5cfb4fbfec515a1&#45;&gt;dir_d44c64559bbebec7f509842c48db8b23 -->
<g id="edge8" class="edge">
<title>dir_ef8e40a2b84cac54c5cfb4fbfec515a1&#45;&gt;dir_d44c64559bbebec7f509842c48db8b23</title>
<g id="a_edge8"><a xlink:href="dir_000329_000149.html" target="_top">
<path fill="none" stroke="#63b8ff" d="M95.06,-54.84C106.46,-46.96 123.23,-35.36 136.74,-26.02"/>
<polygon fill="#63b8ff" stroke="#63b8ff" points="138.4,-29.13 144.63,-20.56 134.41,-23.37 138.4,-29.13"/>
</a>
</g>
<g id="a_edge8&#45;headlabel"><a xlink:href="dir_000329_000149.html" target="_top" xlink:title="2">
<text xml:space="preserve" text-anchor="middle" x="138.3" y="-28.77" font-family="Helvetica,sans-Serif" font-size="10.00" fill="#63b8ff">2</text>
</a>
</g>
</g>
</g>
</svg>
