<?xml version="1.0" encoding="UTF-8" standalone="no"?>
<!DOCTYPE svg PUBLIC "-//W3C//DTD SVG 1.1//EN"
 "http://www.w3.org/Graphics/SVG/1.1/DTD/svg11.dtd">
<!-- Generated by graphviz version 13.1.2 (20250808.2320)
 -->
<!-- Title: include/llvm/Frontend Pages: 1 -->
<svg width="893pt" height="197pt"
 viewBox="0.00 0.00 893.00 197.00" xmlns="http://www.w3.org/2000/svg" xmlns:xlink="http://www.w3.org/1999/xlink">
<g id="graph0" class="graph" transform="scale(1 1) rotate(0) translate(4 193)">
<title>include/llvm/Frontend</title>
<g id="clust1" class="cluster">
<title>clusterdir_dcde91663b8816e1e2311938ccd8f690</title>
<g id="a_clust1"><a xlink:href="dir_dcde91663b8816e1e2311938ccd8f690.html" target="_top" xlink:title="llvm">
<polygon fill="#edf0f7" stroke="#7f7f7f" stroke-dasharray="5,2" points="8,-8 8,-181 877,-181 877,-8 8,-8"/>
<text xml:space="preserve" text-anchor="middle" x="442.5" y="-167.5" font-family="Helvetica,sans-Serif" font-size="10.00">llvm</text>
</a>
</g>
</g>
<g id="clust2" class="cluster">
<title>clusterdir_8b88ca948c2776c050dedd5dc7d3a9c7</title>
<g id="a_clust2"><a xlink:href="dir_8b88ca948c2776c050dedd5dc7d3a9c7.html" target="_top">
<polygon fill="#edf0f7" stroke="#404040" stroke-width="2" points="212,-63.25 212,-153.75 687,-153.75 687,-63.25 212,-63.25"/>
</a>
</g>
</g>
<!-- dir_32453792af2ba70c54e3ccae3a790d1b -->
<g id="node1" class="node">
<title>dir_32453792af2ba70c54e3ccae3a790d1b</title>
<g id="a_node1"><a xlink:href="dir_32453792af2ba70c54e3ccae3a790d1b.html" target="_top" xlink:title="ADT">
<polygon fill="#a2b4d6" stroke="#404040" points="204.12,-90.5 167.88,-90.5 167.88,-71.25 204.12,-71.25 204.12,-90.5"/>
<text xml:space="preserve" text-anchor="middle" x="186" y="-77" font-family="Helvetica,sans-Serif" font-size="10.00">ADT</text>
</a>
</g>
</g>
<!-- dir_b404620133d8508a838af4d853306b62 -->
<g id="node2" class="node">
<title>dir_b404620133d8508a838af4d853306b62</title>
<g id="a_node2"><a xlink:href="dir_b404620133d8508a838af4d853306b62.html" target="_top" xlink:title="TargetParser">
<polygon fill="#a2b4d6" stroke="#404040" points="868.75,-90.5 797.25,-90.5 797.25,-71.25 868.75,-71.25 868.75,-90.5"/>
<text xml:space="preserve" text-anchor="middle" x="833" y="-77" font-family="Helvetica,sans-Serif" font-size="10.00">TargetParser</text>
</a>
</g>
</g>
<!-- dir_ae1e398ac700924fa434b51c248a5531 -->
<g id="node3" class="node">
<title>dir_ae1e398ac700924fa434b51c248a5531</title>
<g id="a_node3"><a xlink:href="dir_ae1e398ac700924fa434b51c248a5531.html" target="_top" xlink:title="Support">
<polygon fill="#a2b4d6" stroke="red" points="208.88,-35.25 159.12,-35.25 159.12,-16 208.88,-16 208.88,-35.25"/>
<text xml:space="preserve" text-anchor="middle" x="184" y="-21.75" font-family="Helvetica,sans-Serif" font-size="10.00">Support</text>
</a>
</g>
</g>
<!-- dir_c3e93f23a4a31c717998b98ce143b7c0 -->
<g id="node4" class="node">
<title>dir_c3e93f23a4a31c717998b98ce143b7c0</title>
<g id="a_node4"><a xlink:href="dir_c3e93f23a4a31c717998b98ce143b7c0.html" target="_top" xlink:title="IR">
<polygon fill="#a2b4d6" stroke="#404040" points="731.4,-35.25 702.6,-35.25 702.6,-16 731.4,-16 731.4,-35.25"/>
<text xml:space="preserve" text-anchor="middle" x="717" y="-21.75" font-family="Helvetica,sans-Serif" font-size="10.00">IR</text>
</a>
</g>
</g>
<!-- dir_76bc56fc1555430657f301d4de3959f5 -->
<g id="node5" class="node">
<title>dir_76bc56fc1555430657f301d4de3959f5</title>
<g id="a_node5"><a xlink:href="dir_76bc56fc1555430657f301d4de3959f5.html" target="_top" xlink:title="BinaryFormat">
<polygon fill="#a2b4d6" stroke="#404040" points="150.25,-90.5 75.75,-90.5 75.75,-71.25 150.25,-71.25 150.25,-90.5"/>
<text xml:space="preserve" text-anchor="middle" x="113" y="-77" font-family="Helvetica,sans-Serif" font-size="10.00">BinaryFormat</text>
</a>
</g>
</g>
<!-- dir_b21276aa901501839874154d4047f901 -->
<g id="node6" class="node">
<title>dir_b21276aa901501839874154d4047f901</title>
<g id="a_node6"><a xlink:href="dir_b21276aa901501839874154d4047f901.html" target="_top" xlink:title="Object">
<polygon fill="#a2b4d6" stroke="#404040" points="739.25,-90.5 694.75,-90.5 694.75,-71.25 739.25,-71.25 739.25,-90.5"/>
<text xml:space="preserve" text-anchor="middle" x="717" y="-77" font-family="Helvetica,sans-Serif" font-size="10.00">Object</text>
</a>
</g>
</g>
<!-- dir_8b88ca948c2776c050dedd5dc7d3a9c7 -->
<g id="node7" class="node">
<title>dir_8b88ca948c2776c050dedd5dc7d3a9c7</title>
<text xml:space="preserve" text-anchor="middle" x="247" y="-132.25" font-family="Helvetica,sans-Serif" font-size="10.00">Frontend</text>
</g>
<!-- dir_e07c0664e2cdede4f669831d54dd23df -->
<g id="node8" class="node">
<title>dir_e07c0664e2cdede4f669831d54dd23df</title>
<g id="a_node8"><a xlink:href="dir_e07c0664e2cdede4f669831d54dd23df.html" target="_top" xlink:title="Atomic">
<polygon fill="#a2b4d6" stroke="#404040" points="657.38,-90.5 610.62,-90.5 610.62,-71.25 657.38,-71.25 657.38,-90.5"/>
<text xml:space="preserve" text-anchor="middle" x="634" y="-77" font-family="Helvetica,sans-Serif" font-size="10.00">Atomic</text>
</a>
</g>
</g>
<!-- dir_e07c0664e2cdede4f669831d54dd23df&#45;&gt;dir_ae1e398ac700924fa434b51c248a5531 -->
<g id="edge1" class="edge">
<title>dir_e07c0664e2cdede4f669831d54dd23df&#45;&gt;dir_ae1e398ac700924fa434b51c248a5531</title>
<g id="a_edge1"><a xlink:href="dir_000036_000293.html" target="_top">
<path fill="none" stroke="#63b8ff" d="M621.96,-70.8C617.49,-67.89 612.23,-64.98 607,-63.25 535.65,-39.67 309.66,-30.42 220.59,-27.63"/>
<polygon fill="#63b8ff" stroke="#63b8ff" points="220.82,-24.13 210.72,-27.33 220.61,-31.13 220.82,-24.13"/>
</a>
</g>
<g id="a_edge1&#45;headlabel"><a xlink:href="dir_000036_000293.html" target="_top" xlink:title="1">
<text xml:space="preserve" text-anchor="middle" x="222.99" y="-17.48" font-family="Helvetica,sans-Serif" font-size="10.00" fill="#63b8ff">1</text>
</a>
</g>
</g>
<!-- dir_e07c0664e2cdede4f669831d54dd23df&#45;&gt;dir_c3e93f23a4a31c717998b98ce143b7c0 -->
<g id="edge2" class="edge">
<title>dir_e07c0664e2cdede4f669831d54dd23df&#45;&gt;dir_c3e93f23a4a31c717998b98ce143b7c0</title>
<g id="a_edge2"><a xlink:href="dir_000036_000161.html" target="_top">
<path fill="none" stroke="#63b8ff" d="M648.08,-70.84C660.48,-62.89 678.79,-51.14 693.43,-41.75"/>
<polygon fill="#63b8ff" stroke="#63b8ff" points="695.05,-44.87 701.58,-36.52 691.27,-38.97 695.05,-44.87"/>
</a>
</g>
<g id="a_edge2&#45;headlabel"><a xlink:href="dir_000036_000161.html" target="_top" xlink:title="2">
<text xml:space="preserve" text-anchor="middle" x="694.83" y="-44.5" font-family="Helvetica,sans-Serif" font-size="10.00" fill="#63b8ff">2</text>
</a>
</g>
</g>
<!-- dir_1314a51098bca7f4ee7b04da21c424b4 -->
<g id="node9" class="node">
<title>dir_1314a51098bca7f4ee7b04da21c424b4</title>
<g id="a_node9"><a xlink:href="dir_1314a51098bca7f4ee7b04da21c424b4.html" target="_top" xlink:title="Debug">
<polygon fill="#a2b4d6" stroke="#404040" points="336.25,-145.75 291.75,-145.75 291.75,-126.5 336.25,-126.5 336.25,-145.75"/>
<text xml:space="preserve" text-anchor="middle" x="314" y="-132.25" font-family="Helvetica,sans-Serif" font-size="10.00">Debug</text>
</a>
</g>
</g>
<!-- dir_24be37e623de8368c81f3b5159c227f8 -->
<g id="node10" class="node">
<title>dir_24be37e623de8368c81f3b5159c227f8</title>
<g id="a_node10"><a xlink:href="dir_24be37e623de8368c81f3b5159c227f8.html" target="_top" xlink:title="Directive">
<polygon fill="#a2b4d6" stroke="#404040" points="469.5,-145.75 414.5,-145.75 414.5,-126.5 469.5,-126.5 469.5,-145.75"/>
<text xml:space="preserve" text-anchor="middle" x="442" y="-132.25" font-family="Helvetica,sans-Serif" font-size="10.00">Directive</text>
</a>
</g>
</g>
<!-- dir_24be37e623de8368c81f3b5159c227f8&#45;&gt;dir_32453792af2ba70c54e3ccae3a790d1b -->
<g id="edge3" class="edge">
<title>dir_24be37e623de8368c81f3b5159c227f8&#45;&gt;dir_32453792af2ba70c54e3ccae3a790d1b</title>
<g id="a_edge3"><a xlink:href="dir_000082_000001.html" target="_top">
<path fill="none" stroke="#63b8ff" d="M414.15,-128.48C411.07,-127.79 407.97,-127.12 405,-126.5 321.43,-109.13 295.7,-114.37 214.84,-92.29"/>
<polygon fill="#63b8ff" stroke="#63b8ff" points="216.19,-89.03 205.61,-89.71 214.3,-95.77 216.19,-89.03"/>
</a>
</g>
<g id="a_edge3&#45;headlabel"><a xlink:href="dir_000082_000001.html" target="_top" xlink:title="2">
<text xml:space="preserve" text-anchor="middle" x="218.95" y="-82.98" font-family="Helvetica,sans-Serif" font-size="10.00" fill="#63b8ff">2</text>
</a>
</g>
</g>
<!-- dir_24be37e623de8368c81f3b5159c227f8&#45;&gt;dir_ae1e398ac700924fa434b51c248a5531 -->
<g id="edge4" class="edge">
<title>dir_24be37e623de8368c81f3b5159c227f8&#45;&gt;dir_ae1e398ac700924fa434b51c248a5531</title>
<g id="a_edge4"><a xlink:href="dir_000082_000293.html" target="_top">
<path fill="none" stroke="#63b8ff" d="M414.2,-128.24C411.1,-127.6 407.99,-127 405,-126.5 327.22,-113.52 104.85,-149.02 52,-90.5 21.35,-56.57 98.68,-38.81 147.56,-31.23"/>
<polygon fill="#63b8ff" stroke="#63b8ff" points="147.81,-34.73 157.2,-29.82 146.8,-27.8 147.81,-34.73"/>
</a>
</g>
<g id="a_edge4&#45;headlabel"><a xlink:href="dir_000082_000293.html" target="_top" xlink:title="1">
<text xml:space="preserve" text-anchor="middle" x="146.16" y="-33.97" font-family="Helvetica,sans-Serif" font-size="10.00" fill="#63b8ff">1</text>
</a>
</g>
</g>
<!-- dir_3ed93ff5f0bd2cebfe38b2524dcf07eb -->
<g id="node11" class="node">
<title>dir_3ed93ff5f0bd2cebfe38b2524dcf07eb</title>
<g id="a_node11"><a xlink:href="dir_3ed93ff5f0bd2cebfe38b2524dcf07eb.html" target="_top" xlink:title="Driver">
<polygon fill="#a2b4d6" stroke="#404040" points="396.12,-145.75 353.88,-145.75 353.88,-126.5 396.12,-126.5 396.12,-145.75"/>
<text xml:space="preserve" text-anchor="middle" x="375" y="-132.25" font-family="Helvetica,sans-Serif" font-size="10.00">Driver</text>
</a>
</g>
</g>
<!-- dir_3ed93ff5f0bd2cebfe38b2524dcf07eb&#45;&gt;dir_ae1e398ac700924fa434b51c248a5531 -->
<g id="edge5" class="edge">
<title>dir_3ed93ff5f0bd2cebfe38b2524dcf07eb&#45;&gt;dir_ae1e398ac700924fa434b51c248a5531</title>
<g id="a_edge5"><a xlink:href="dir_000109_000293.html" target="_top">
<path fill="none" stroke="#63b8ff" d="M353.47,-128.48C350.64,-127.74 347.76,-127.05 345,-126.5 276.34,-112.78 78.59,-142.76 32,-90.5 -3.3,-50.91 92.16,-35.16 147.56,-29.49"/>
<polygon fill="#63b8ff" stroke="#63b8ff" points="147.59,-33 157.21,-28.57 146.92,-26.03 147.59,-33"/>
</a>
</g>
<g id="a_edge5&#45;headlabel"><a xlink:href="dir_000109_000293.html" target="_top" xlink:title="1">
<text xml:space="preserve" text-anchor="middle" x="145.79" y="-32.15" font-family="Helvetica,sans-Serif" font-size="10.00" fill="#63b8ff">1</text>
</a>
</g>
</g>
<!-- dir_58b8e227fb587dcfd8d87ed95c9804cd -->
<g id="node12" class="node">
<title>dir_58b8e227fb587dcfd8d87ed95c9804cd</title>
<g id="a_node12"><a xlink:href="dir_58b8e227fb587dcfd8d87ed95c9804cd.html" target="_top" xlink:title="HLSL">
<polygon fill="#a2b4d6" stroke="#404040" points="528.38,-145.75 487.62,-145.75 487.62,-126.5 528.38,-126.5 528.38,-145.75"/>
<text xml:space="preserve" text-anchor="middle" x="508" y="-132.25" font-family="Helvetica,sans-Serif" font-size="10.00">HLSL</text>
</a>
</g>
</g>
<!-- dir_58b8e227fb587dcfd8d87ed95c9804cd&#45;&gt;dir_32453792af2ba70c54e3ccae3a790d1b -->
<g id="edge6" class="edge">
<title>dir_58b8e227fb587dcfd8d87ed95c9804cd&#45;&gt;dir_32453792af2ba70c54e3ccae3a790d1b</title>
<g id="a_edge6"><a xlink:href="dir_000147_000001.html" target="_top">
<path fill="none" stroke="#63b8ff" d="M487.19,-128.51C484.45,-127.77 481.67,-127.07 479,-126.5 363.89,-101.9 327.88,-119.7 215.72,-92.32"/>
<polygon fill="#63b8ff" stroke="#63b8ff" points="216.64,-88.95 206.09,-89.9 214.93,-95.73 216.64,-88.95"/>
</a>
</g>
<g id="a_edge6&#45;headlabel"><a xlink:href="dir_000147_000001.html" target="_top" xlink:title="2">
<text xml:space="preserve" text-anchor="middle" x="219.35" y="-82.83" font-family="Helvetica,sans-Serif" font-size="10.00" fill="#63b8ff">2</text>
</a>
</g>
</g>
<!-- dir_58b8e227fb587dcfd8d87ed95c9804cd&#45;&gt;dir_ae1e398ac700924fa434b51c248a5531 -->
<g id="edge8" class="edge">
<title>dir_58b8e227fb587dcfd8d87ed95c9804cd&#45;&gt;dir_ae1e398ac700924fa434b51c248a5531</title>
<g id="a_edge8"><a xlink:href="dir_000147_000293.html" target="_top">
<path fill="none" stroke="#63b8ff" d="M487.22,-128.4C484.47,-127.67 481.68,-127.01 479,-126.5 433.86,-117.91 98.05,-124.38 67,-90.5 58.82,-81.57 59.83,-73.01 67,-63.25 85.33,-38.3 120.61,-29.88 147.66,-27.26"/>
<polygon fill="#63b8ff" stroke="#63b8ff" points="147.81,-30.76 157.53,-26.55 147.31,-23.77 147.81,-30.76"/>
</a>
</g>
<g id="a_edge8&#45;headlabel"><a xlink:href="dir_000147_000293.html" target="_top" xlink:title="5">
<text xml:space="preserve" text-anchor="middle" x="145.93" y="-29.86" font-family="Helvetica,sans-Serif" font-size="10.00" fill="#63b8ff">5</text>
</a>
</g>
</g>
<!-- dir_58b8e227fb587dcfd8d87ed95c9804cd&#45;&gt;dir_c3e93f23a4a31c717998b98ce143b7c0 -->
<g id="edge9" class="edge">
<title>dir_58b8e227fb587dcfd8d87ed95c9804cd&#45;&gt;dir_c3e93f23a4a31c717998b98ce143b7c0</title>
<g id="a_edge9"><a xlink:href="dir_000147_000161.html" target="_top">
<path fill="none" stroke="#63b8ff" d="M528.65,-129.17C531.78,-128.27 534.98,-127.36 538,-126.5 594.84,-110.34 617.42,-124.16 666,-90.5 678.35,-81.94 676.7,-75.05 686,-63.25 691.01,-56.9 696.68,-50.09 701.79,-44.09"/>
<polygon fill="#63b8ff" stroke="#63b8ff" points="704.32,-46.52 708.19,-36.66 699.01,-41.95 704.32,-46.52"/>
</a>
</g>
<g id="a_edge9&#45;headlabel"><a xlink:href="dir_000147_000161.html" target="_top" xlink:title="2">
<text xml:space="preserve" text-anchor="middle" x="705.11" y="-46.07" font-family="Helvetica,sans-Serif" font-size="10.00" fill="#63b8ff">2</text>
</a>
</g>
</g>
<!-- dir_58b8e227fb587dcfd8d87ed95c9804cd&#45;&gt;dir_76bc56fc1555430657f301d4de3959f5 -->
<g id="edge7" class="edge">
<title>dir_58b8e227fb587dcfd8d87ed95c9804cd&#45;&gt;dir_76bc56fc1555430657f301d4de3959f5</title>
<g id="a_edge7"><a xlink:href="dir_000147_000039.html" target="_top">
<path fill="none" stroke="#63b8ff" d="M487.2,-128.46C484.46,-127.72 481.68,-127.04 479,-126.5 342.31,-98.71 302.55,-111.03 161.82,-90.81"/>
<polygon fill="#63b8ff" stroke="#63b8ff" points="162.52,-87.37 152.11,-89.38 161.5,-94.3 162.52,-87.37"/>
</a>
</g>
<g id="a_edge7&#45;headlabel"><a xlink:href="dir_000147_000039.html" target="_top" xlink:title="1">
<text xml:space="preserve" text-anchor="middle" x="164.99" y="-80.99" font-family="Helvetica,sans-Serif" font-size="10.00" fill="#63b8ff">1</text>
</a>
</g>
</g>
<!-- dir_8ad3a6252d704b771eb5ea0b780a78e4 -->
<g id="node13" class="node">
<title>dir_8ad3a6252d704b771eb5ea0b780a78e4</title>
<g id="a_node13"><a xlink:href="dir_8ad3a6252d704b771eb5ea0b780a78e4.html" target="_top" xlink:title="Offloading">
<polygon fill="#a2b4d6" stroke="#404040" points="607.12,-145.75 546.88,-145.75 546.88,-126.5 607.12,-126.5 607.12,-145.75"/>
<text xml:space="preserve" text-anchor="middle" x="577" y="-132.25" font-family="Helvetica,sans-Serif" font-size="10.00">Offloading</text>
</a>
</g>
</g>
<!-- dir_8ad3a6252d704b771eb5ea0b780a78e4&#45;&gt;dir_32453792af2ba70c54e3ccae3a790d1b -->
<g id="edge10" class="edge">
<title>dir_8ad3a6252d704b771eb5ea0b780a78e4&#45;&gt;dir_32453792af2ba70c54e3ccae3a790d1b</title>
<g id="a_edge10"><a xlink:href="dir_000247_000001.html" target="_top">
<path fill="none" stroke="#63b8ff" d="M546.49,-128.21C543.29,-127.58 540.09,-127 537,-126.5 395.49,-103.56 352.98,-124.53 215.55,-92.2"/>
<polygon fill="#63b8ff" stroke="#63b8ff" points="216.63,-88.86 206.09,-89.91 214.99,-95.66 216.63,-88.86"/>
</a>
</g>
<g id="a_edge10&#45;headlabel"><a xlink:href="dir_000247_000001.html" target="_top" xlink:title="3">
<text xml:space="preserve" text-anchor="middle" x="219.32" y="-82.71" font-family="Helvetica,sans-Serif" font-size="10.00" fill="#63b8ff">3</text>
</a>
</g>
</g>
<!-- dir_8ad3a6252d704b771eb5ea0b780a78e4&#45;&gt;dir_ae1e398ac700924fa434b51c248a5531 -->
<g id="edge11" class="edge">
<title>dir_8ad3a6252d704b771eb5ea0b780a78e4&#45;&gt;dir_ae1e398ac700924fa434b51c248a5531</title>
<g id="a_edge11"><a xlink:href="dir_000247_000293.html" target="_top">
<path fill="none" stroke="#63b8ff" d="M546.49,-126.7C474.96,-106.95 296.71,-57.74 220.02,-36.57"/>
<polygon fill="#63b8ff" stroke="#63b8ff" points="221.07,-33.23 210.5,-33.94 219.21,-39.98 221.07,-33.23"/>
</a>
</g>
<g id="a_edge11&#45;headlabel"><a xlink:href="dir_000247_000293.html" target="_top" xlink:title="4">
<text xml:space="preserve" text-anchor="middle" x="223.83" y="-27.17" font-family="Helvetica,sans-Serif" font-size="10.00" fill="#63b8ff">4</text>
</a>
</g>
</g>
<!-- dir_8ad3a6252d704b771eb5ea0b780a78e4&#45;&gt;dir_c3e93f23a4a31c717998b98ce143b7c0 -->
<g id="edge13" class="edge">
<title>dir_8ad3a6252d704b771eb5ea0b780a78e4&#45;&gt;dir_c3e93f23a4a31c717998b98ce143b7c0</title>
<g id="a_edge13"><a xlink:href="dir_000247_000161.html" target="_top">
<path fill="none" stroke="#63b8ff" d="M607.39,-128.21C655.35,-117.14 743.64,-96.15 748,-90.5 759.13,-76.1 747.11,-57.06 734.94,-43.52"/>
<polygon fill="#63b8ff" stroke="#63b8ff" points="737.7,-41.34 728.22,-36.61 732.68,-46.22 737.7,-41.34"/>
</a>
</g>
<g id="a_edge13&#45;headlabel"><a xlink:href="dir_000247_000161.html" target="_top" xlink:title="2">
<text xml:space="preserve" text-anchor="middle" x="741.18" y="-36.98" font-family="Helvetica,sans-Serif" font-size="10.00" fill="#63b8ff">2</text>
</a>
</g>
</g>
<!-- dir_8ad3a6252d704b771eb5ea0b780a78e4&#45;&gt;dir_b21276aa901501839874154d4047f901 -->
<g id="edge12" class="edge">
<title>dir_8ad3a6252d704b771eb5ea0b780a78e4&#45;&gt;dir_b21276aa901501839874154d4047f901</title>
<g id="a_edge12"><a xlink:href="dir_000247_000243.html" target="_top">
<path fill="none" stroke="#63b8ff" d="M600.75,-126.09C623.58,-117.41 658.3,-104.2 683.85,-94.48"/>
<polygon fill="#63b8ff" stroke="#63b8ff" points="685.01,-97.79 693.11,-90.96 682.52,-91.25 685.01,-97.79"/>
</a>
</g>
<g id="a_edge12&#45;headlabel"><a xlink:href="dir_000247_000243.html" target="_top" xlink:title="1">
<text xml:space="preserve" text-anchor="middle" x="684.07" y="-97.31" font-family="Helvetica,sans-Serif" font-size="10.00" fill="#63b8ff">1</text>
</a>
</g>
</g>
<!-- dir_8fc939330e6243356cb2f924c96e8aa9 -->
<g id="node14" class="node">
<title>dir_8fc939330e6243356cb2f924c96e8aa9</title>
<g id="a_node14"><a xlink:href="dir_8fc939330e6243356cb2f924c96e8aa9.html" target="_top" xlink:title="OpenMP">
<polygon fill="#a2b4d6" stroke="#404040" points="679.12,-145.75 624.88,-145.75 624.88,-126.5 679.12,-126.5 679.12,-145.75"/>
<text xml:space="preserve" text-anchor="middle" x="652" y="-132.25" font-family="Helvetica,sans-Serif" font-size="10.00">OpenMP</text>
</a>
</g>
</g>
<!-- dir_8fc939330e6243356cb2f924c96e8aa9&#45;&gt;dir_32453792af2ba70c54e3ccae3a790d1b -->
<g id="edge14" class="edge">
<title>dir_8fc939330e6243356cb2f924c96e8aa9&#45;&gt;dir_32453792af2ba70c54e3ccae3a790d1b</title>
<g id="a_edge14"><a xlink:href="dir_000250_000001.html" target="_top">
<path fill="none" stroke="#63b8ff" d="M624.57,-128.11C621.69,-127.51 618.79,-126.95 616,-126.5 440.11,-97.83 387.41,-130.71 215.81,-92.17"/>
<polygon fill="#63b8ff" stroke="#63b8ff" points="216.61,-88.76 206.08,-89.93 215.04,-95.58 216.61,-88.76"/>
</a>
</g>
<g id="a_edge14&#45;headlabel"><a xlink:href="dir_000250_000001.html" target="_top" xlink:title="22">
<text xml:space="preserve" text-anchor="middle" x="219.28" y="-82.58" font-family="Helvetica,sans-Serif" font-size="10.00" fill="#63b8ff">22</text>
</a>
</g>
</g>
<!-- dir_8fc939330e6243356cb2f924c96e8aa9&#45;&gt;dir_b404620133d8508a838af4d853306b62 -->
<g id="edge16" class="edge">
<title>dir_8fc939330e6243356cb2f924c96e8aa9&#45;&gt;dir_b404620133d8508a838af4d853306b62</title>
<g id="a_edge16"><a xlink:href="dir_000250_000331.html" target="_top">
<path fill="none" stroke="#63b8ff" d="M679.49,-127.04C709.3,-118.27 757.2,-104.17 791.57,-94.06"/>
<polygon fill="#63b8ff" stroke="#63b8ff" points="792.16,-97.54 800.76,-91.36 790.18,-90.82 792.16,-97.54"/>
</a>
</g>
<g id="a_edge16&#45;headlabel"><a xlink:href="dir_000250_000331.html" target="_top" xlink:title="1">
<text xml:space="preserve" text-anchor="middle" x="790.96" y="-96.98" font-family="Helvetica,sans-Serif" font-size="10.00" fill="#63b8ff">1</text>
</a>
</g>
</g>
<!-- dir_8fc939330e6243356cb2f924c96e8aa9&#45;&gt;dir_ae1e398ac700924fa434b51c248a5531 -->
<g id="edge15" class="edge">
<title>dir_8fc939330e6243356cb2f924c96e8aa9&#45;&gt;dir_ae1e398ac700924fa434b51c248a5531</title>
<g id="a_edge15"><a xlink:href="dir_000250_000293.html" target="_top">
<path fill="none" stroke="#63b8ff" d="M624.7,-127.72C574.21,-114.13 462.75,-84.66 368,-63.25 316.97,-51.72 257.54,-40.24 220.34,-33.29"/>
<polygon fill="#63b8ff" stroke="#63b8ff" points="221.05,-29.86 210.57,-31.47 219.77,-36.74 221.05,-29.86"/>
</a>
</g>
<g id="a_edge15&#45;headlabel"><a xlink:href="dir_000250_000293.html" target="_top" xlink:title="8">
<text xml:space="preserve" text-anchor="middle" x="223.61" y="-23.57" font-family="Helvetica,sans-Serif" font-size="10.00" fill="#63b8ff">8</text>
</a>
</g>
</g>
<!-- dir_8fc939330e6243356cb2f924c96e8aa9&#45;&gt;dir_c3e93f23a4a31c717998b98ce143b7c0 -->
<g id="edge17" class="edge">
<title>dir_8fc939330e6243356cb2f924c96e8aa9&#45;&gt;dir_c3e93f23a4a31c717998b98ce143b7c0</title>
<g id="a_edge17"><a xlink:href="dir_000250_000161.html" target="_top">
<path fill="none" stroke="#63b8ff" d="M679.27,-132.62C705.69,-128.58 744.39,-118.03 763,-90.5 769.78,-80.47 768.26,-74.16 763,-63.25 758.35,-53.6 749.78,-45.71 741.29,-39.75"/>
<polygon fill="#63b8ff" stroke="#63b8ff" points="743.21,-36.82 732.88,-34.47 739.48,-42.75 743.21,-36.82"/>
</a>
</g>
<g id="a_edge17&#45;headlabel"><a xlink:href="dir_000250_000161.html" target="_top" xlink:title="4">
<text xml:space="preserve" text-anchor="middle" x="746.48" y="-31.65" font-family="Helvetica,sans-Serif" font-size="10.00" fill="#63b8ff">4</text>
</a>
</g>
</g>
<!-- dir_8fc939330e6243356cb2f924c96e8aa9&#45;&gt;dir_e07c0664e2cdede4f669831d54dd23df -->
<g id="edge18" class="edge">
<title>dir_8fc939330e6243356cb2f924c96e8aa9&#45;&gt;dir_e07c0664e2cdede4f669831d54dd23df</title>
<g id="a_edge18"><a xlink:href="dir_000250_000036.html" target="_top">
<path fill="none" stroke="#63b8ff" d="M649.03,-126.33C646.75,-119.59 643.51,-110.02 640.63,-101.49"/>
<polygon fill="#63b8ff" stroke="#63b8ff" points="644.04,-100.65 637.52,-92.29 637.41,-102.89 644.04,-100.65"/>
</a>
</g>
<g id="a_edge18&#45;headlabel"><a xlink:href="dir_000250_000036.html" target="_top" xlink:title="1">
<text xml:space="preserve" text-anchor="middle" x="647.4" y="-97.83" font-family="Helvetica,sans-Serif" font-size="10.00" fill="#63b8ff">1</text>
</a>
</g>
</g>
</g>
</svg>
