<?xml version="1.0" encoding="UTF-8" standalone="no"?>
<!DOCTYPE svg PUBLIC "-//W3C//DTD SVG 1.1//EN"
 "http://www.w3.org/Graphics/SVG/1.1/DTD/svg11.dtd">
<!-- Generated by graphviz version 13.1.2 (20250808.2320)
 -->
<!-- Title: lib/Target/RISCV Pages: 1 -->
<svg width="388pt" height="292pt"
 viewBox="0.00 0.00 388.00 292.00" xmlns="http://www.w3.org/2000/svg" xmlns:xlink="http://www.w3.org/1999/xlink">
<g id="graph0" class="graph" transform="scale(1 1) rotate(0) translate(4 287.5)">
<title>lib/Target/RISCV</title>
<g id="clust1" class="cluster">
<title>clusterdir_794e483eb1cc7921d35fd149d9cc325b</title>
<g id="a_clust1"><a xlink:href="dir_794e483eb1cc7921d35fd149d9cc325b.html" target="_top" xlink:title="Target">
<polygon fill="#edf0f7" stroke="#7f7f7f" stroke-dasharray="5,2" points="8,-39.25 8,-275.5 353,-275.5 353,-39.25 8,-39.25"/>
<text xml:space="preserve" text-anchor="middle" x="180.5" y="-262" font-family="Helvetica,sans-Serif" font-size="10.00">Target</text>
</a>
</g>
</g>
<g id="clust2" class="cluster">
<title>clusterdir_fc62c913e8b7bfce256a9466d87d79c7</title>
<g id="a_clust2"><a xlink:href="dir_fc62c913e8b7bfce256a9466d87d79c7.html" target="_top">
<polygon fill="#edf0f7" stroke="#404040" stroke-width="2" points="16,-47.25 16,-248.25 345,-248.25 345,-47.25 16,-47.25"/>
</a>
</g>
</g>
<!-- dir_fc62c913e8b7bfce256a9466d87d79c7 -->
<g id="node1" class="node">
<title>dir_fc62c913e8b7bfce256a9466d87d79c7</title>
<text xml:space="preserve" text-anchor="middle" x="248" y="-226.75" font-family="Helvetica,sans-Serif" font-size="10.00">RISCV</text>
</g>
<!-- dir_606f15b1d66f9713a685f9d2a106de66 -->
<g id="node4" class="node">
<title>dir_606f15b1d66f9713a685f9d2a106de66</title>
<g id="a_node4"><a xlink:href="dir_606f15b1d66f9713a685f9d2a106de66.html" target="_top" xlink:title="GISel">
<polygon fill="#a2b4d6" stroke="#404040" points="337.38,-185 296.62,-185 296.62,-165.75 337.38,-165.75 337.38,-185"/>
<text xml:space="preserve" text-anchor="middle" x="317" y="-171.5" font-family="Helvetica,sans-Serif" font-size="10.00">GISel</text>
</a>
</g>
</g>
<!-- dir_fc62c913e8b7bfce256a9466d87d79c7&#45;&gt;dir_606f15b1d66f9713a685f9d2a106de66 -->
<g id="edge2" class="edge">
<title>dir_fc62c913e8b7bfce256a9466d87d79c7&#45;&gt;dir_606f15b1d66f9713a685f9d2a106de66</title>
<g id="a_edge2"><a xlink:href="dir_000276_000136.html" target="_top">
<path fill="none" stroke="#63b8ff" d="M259.09,-221.07C269.07,-213.37 283.99,-201.85 296.2,-192.43"/>
<polygon fill="#63b8ff" stroke="#63b8ff" points="298.27,-195.25 304.05,-186.37 294,-189.71 298.27,-195.25"/>
</a>
</g>
<g id="a_edge2&#45;headlabel"><a xlink:href="dir_000276_000136.html" target="_top" xlink:title="3">
<text xml:space="preserve" text-anchor="middle" x="298.36" y="-194.89" font-family="Helvetica,sans-Serif" font-size="10.00" fill="#63b8ff">3</text>
</a>
</g>
</g>
<!-- dir_72076151150f9c89e8fe93bb4df5dbe1 -->
<g id="node6" class="node">
<title>dir_72076151150f9c89e8fe93bb4df5dbe1</title>
<g id="a_node6"><a xlink:href="dir_72076151150f9c89e8fe93bb4df5dbe1.html" target="_top" xlink:title="MCTargetDesc">
<polygon fill="#a2b4d6" stroke="#404040" points="170,-129.75 88,-129.75 88,-110.5 170,-110.5 170,-129.75"/>
<text xml:space="preserve" text-anchor="middle" x="129" y="-116.25" font-family="Helvetica,sans-Serif" font-size="10.00">MCTargetDesc</text>
</a>
</g>
</g>
<!-- dir_fc62c913e8b7bfce256a9466d87d79c7&#45;&gt;dir_72076151150f9c89e8fe93bb4df5dbe1 -->
<g id="edge3" class="edge">
<title>dir_fc62c913e8b7bfce256a9466d87d79c7&#45;&gt;dir_72076151150f9c89e8fe93bb4df5dbe1</title>
<g id="a_edge3"><a xlink:href="dir_000276_000221.html" target="_top">
<path fill="none" stroke="#63b8ff" d="M237.01,-221C225.93,-212.2 208.45,-198.03 194,-185 189.15,-180.63 163.55,-155.36 145.96,-137.94"/>
<polygon fill="#63b8ff" stroke="#63b8ff" points="148.74,-135.77 139.17,-131.22 143.81,-140.74 148.74,-135.77"/>
</a>
</g>
<g id="a_edge3&#45;headlabel"><a xlink:href="dir_000276_000221.html" target="_top" xlink:title="36">
<text xml:space="preserve" text-anchor="middle" x="152.22" y="-131.34" font-family="Helvetica,sans-Serif" font-size="10.00" fill="#63b8ff">36</text>
</a>
</g>
</g>
<!-- dir_04c42cdfbc306d281ff52dd260421e86 -->
<g id="node7" class="node">
<title>dir_04c42cdfbc306d281ff52dd260421e86</title>
<g id="a_node7"><a xlink:href="dir_04c42cdfbc306d281ff52dd260421e86.html" target="_top" xlink:title="TargetInfo">
<polygon fill="#a2b4d6" stroke="#404040" points="112.75,-74.5 53.25,-74.5 53.25,-55.25 112.75,-55.25 112.75,-74.5"/>
<text xml:space="preserve" text-anchor="middle" x="83" y="-61" font-family="Helvetica,sans-Serif" font-size="10.00">TargetInfo</text>
</a>
</g>
</g>
<!-- dir_fc62c913e8b7bfce256a9466d87d79c7&#45;&gt;dir_04c42cdfbc306d281ff52dd260421e86 -->
<g id="edge1" class="edge">
<title>dir_fc62c913e8b7bfce256a9466d87d79c7&#45;&gt;dir_04c42cdfbc306d281ff52dd260421e86</title>
<g id="a_edge1"><a xlink:href="dir_000276_000322.html" target="_top">
<path fill="none" stroke="#63b8ff" d="M224.55,-228.31C174.26,-224.96 58.7,-214.18 35,-185 9.71,-153.86 43.67,-107.66 66.1,-82.94"/>
<polygon fill="#63b8ff" stroke="#63b8ff" points="68.35,-85.65 72.66,-75.97 63.26,-80.85 68.35,-85.65"/>
</a>
</g>
<g id="a_edge1&#45;headlabel"><a xlink:href="dir_000276_000322.html" target="_top" xlink:title="6">
<text xml:space="preserve" text-anchor="middle" x="68.99" y="-85.24" font-family="Helvetica,sans-Serif" font-size="10.00" fill="#63b8ff">6</text>
</a>
</g>
</g>
<!-- dir_d44c64559bbebec7f509842c48db8b23 -->
<g id="node8" class="node">
<title>dir_d44c64559bbebec7f509842c48db8b23</title>
<g id="a_node8"><a xlink:href="dir_d44c64559bbebec7f509842c48db8b23.html" target="_top" xlink:title="include">
<polygon fill="#edf0f7" stroke="red" points="279.38,-19.25 232.62,-19.25 232.62,0 279.38,0 279.38,-19.25"/>
<text xml:space="preserve" text-anchor="middle" x="256" y="-5.75" font-family="Helvetica,sans-Serif" font-size="10.00">include</text>
</a>
</g>
</g>
<!-- dir_fc62c913e8b7bfce256a9466d87d79c7&#45;&gt;dir_d44c64559bbebec7f509842c48db8b23 -->
<g id="edge4" class="edge">
<title>dir_fc62c913e8b7bfce256a9466d87d79c7&#45;&gt;dir_d44c64559bbebec7f509842c48db8b23</title>
<g id="a_edge4"><a xlink:href="dir_000276_000149.html" target="_top">
<path fill="none" stroke="#63b8ff" d="M271.74,-226.21C295.15,-221.44 329.71,-210.31 346,-185 370.42,-147.04 422.45,-180.86 308,-39.25 303.08,-33.16 296.51,-28.17 289.69,-24.16"/>
<polygon fill="#63b8ff" stroke="#63b8ff" points="291.53,-21.17 281.04,-19.66 288.3,-27.38 291.53,-21.17"/>
</a>
</g>
<g id="a_edge4&#45;headlabel"><a xlink:href="dir_000276_000149.html" target="_top" xlink:title="514">
<text xml:space="preserve" text-anchor="middle" x="294.68" y="-15.73" font-family="Helvetica,sans-Serif" font-size="10.00" fill="#63b8ff">514</text>
</a>
</g>
</g>
<!-- dir_55e3427c7de2a85179d7ce9c74029903 -->
<g id="node2" class="node">
<title>dir_55e3427c7de2a85179d7ce9c74029903</title>
<g id="a_node2"><a xlink:href="dir_55e3427c7de2a85179d7ce9c74029903.html" target="_top" xlink:title="AsmParser">
<polygon fill="#a2b4d6" stroke="#404040" points="165.38,-185 100.62,-185 100.62,-165.75 165.38,-165.75 165.38,-185"/>
<text xml:space="preserve" text-anchor="middle" x="133" y="-171.5" font-family="Helvetica,sans-Serif" font-size="10.00">AsmParser</text>
</a>
</g>
</g>
<!-- dir_55e3427c7de2a85179d7ce9c74029903&#45;&gt;dir_72076151150f9c89e8fe93bb4df5dbe1 -->
<g id="edge6" class="edge">
<title>dir_55e3427c7de2a85179d7ce9c74029903&#45;&gt;dir_72076151150f9c89e8fe93bb4df5dbe1</title>
<g id="a_edge6"><a xlink:href="dir_000028_000221.html" target="_top">
<path fill="none" stroke="#63b8ff" d="M132.34,-165.58C131.84,-158.99 131.15,-149.71 130.52,-141.32"/>
<polygon fill="#63b8ff" stroke="#63b8ff" points="134.03,-141.33 129.79,-131.62 127.05,-141.85 134.03,-141.33"/>
</a>
</g>
<g id="a_edge6&#45;headlabel"><a xlink:href="dir_000028_000221.html" target="_top" xlink:title="7">
<text xml:space="preserve" text-anchor="middle" x="137.01" y="-139.32" font-family="Helvetica,sans-Serif" font-size="10.00" fill="#63b8ff">7</text>
</a>
</g>
</g>
<!-- dir_55e3427c7de2a85179d7ce9c74029903&#45;&gt;dir_04c42cdfbc306d281ff52dd260421e86 -->
<g id="edge5" class="edge">
<title>dir_55e3427c7de2a85179d7ce9c74029903&#45;&gt;dir_04c42cdfbc306d281ff52dd260421e86</title>
<g id="a_edge5"><a xlink:href="dir_000028_000322.html" target="_top">
<path fill="none" stroke="#63b8ff" d="M115.32,-165.32C102.61,-157.73 86.46,-145.59 79,-129.75 72.54,-116.04 74.1,-98.8 76.97,-85.69"/>
<polygon fill="#63b8ff" stroke="#63b8ff" points="80.33,-86.66 79.51,-76.1 73.57,-84.87 80.33,-86.66"/>
</a>
</g>
<g id="a_edge5&#45;headlabel"><a xlink:href="dir_000028_000322.html" target="_top" xlink:title="1">
<text xml:space="preserve" text-anchor="middle" x="82.54" y="-85.53" font-family="Helvetica,sans-Serif" font-size="10.00" fill="#63b8ff">1</text>
</a>
</g>
</g>
<!-- dir_55e3427c7de2a85179d7ce9c74029903&#45;&gt;dir_d44c64559bbebec7f509842c48db8b23 -->
<g id="edge7" class="edge">
<title>dir_55e3427c7de2a85179d7ce9c74029903&#45;&gt;dir_d44c64559bbebec7f509842c48db8b23</title>
<g id="a_edge7"><a xlink:href="dir_000028_000149.html" target="_top">
<path fill="none" stroke="#63b8ff" d="M165.42,-167.9C187.48,-161.8 215.55,-150.39 232,-129.75 254.84,-101.1 257.74,-56.5 257.24,-30.78"/>
<polygon fill="#63b8ff" stroke="#63b8ff" points="260.74,-30.88 256.84,-21.03 253.75,-31.17 260.74,-30.88"/>
</a>
</g>
<g id="a_edge7&#45;headlabel"><a xlink:href="dir_000028_000149.html" target="_top" xlink:title="26">
<text xml:space="preserve" text-anchor="middle" x="263.67" y="-28.97" font-family="Helvetica,sans-Serif" font-size="10.00" fill="#63b8ff">26</text>
</a>
</g>
</g>
<!-- dir_cf44463199b27892dde3423ece3eca95 -->
<g id="node3" class="node">
<title>dir_cf44463199b27892dde3423ece3eca95</title>
<g id="a_node3"><a xlink:href="dir_cf44463199b27892dde3423ece3eca95.html" target="_top" xlink:title="Disassembler">
<polygon fill="#a2b4d6" stroke="#404040" points="279,-185 203,-185 203,-165.75 279,-165.75 279,-185"/>
<text xml:space="preserve" text-anchor="middle" x="241" y="-171.5" font-family="Helvetica,sans-Serif" font-size="10.00">Disassembler</text>
</a>
</g>
</g>
<!-- dir_cf44463199b27892dde3423ece3eca95&#45;&gt;dir_72076151150f9c89e8fe93bb4df5dbe1 -->
<g id="edge9" class="edge">
<title>dir_cf44463199b27892dde3423ece3eca95&#45;&gt;dir_72076151150f9c89e8fe93bb4df5dbe1</title>
<g id="a_edge9"><a xlink:href="dir_000100_000221.html" target="_top">
<path fill="none" stroke="#63b8ff" d="M222,-165.34C204.54,-157.04 178.4,-144.61 158.28,-135.04"/>
<polygon fill="#63b8ff" stroke="#63b8ff" points="159.99,-131.99 149.46,-130.85 156.99,-138.31 159.99,-131.99"/>
</a>
</g>
<g id="a_edge9&#45;headlabel"><a xlink:href="dir_000100_000221.html" target="_top" xlink:title="2">
<text xml:space="preserve" text-anchor="middle" x="163.09" y="-126.44" font-family="Helvetica,sans-Serif" font-size="10.00" fill="#63b8ff">2</text>
</a>
</g>
</g>
<!-- dir_cf44463199b27892dde3423ece3eca95&#45;&gt;dir_04c42cdfbc306d281ff52dd260421e86 -->
<g id="edge8" class="edge">
<title>dir_cf44463199b27892dde3423ece3eca95&#45;&gt;dir_04c42cdfbc306d281ff52dd260421e86</title>
<g id="a_edge8"><a xlink:href="dir_000100_000322.html" target="_top">
<path fill="none" stroke="#63b8ff" d="M234.2,-165.53C223.59,-152.2 201.93,-126.79 179,-110.5 160.71,-97.51 138.04,-86.76 119.33,-79.07"/>
<polygon fill="#63b8ff" stroke="#63b8ff" points="120.82,-75.9 110.23,-75.46 118.24,-82.4 120.82,-75.9"/>
</a>
</g>
<g id="a_edge8&#45;headlabel"><a xlink:href="dir_000100_000322.html" target="_top" xlink:title="1">
<text xml:space="preserve" text-anchor="middle" x="123.8" y="-70.15" font-family="Helvetica,sans-Serif" font-size="10.00" fill="#63b8ff">1</text>
</a>
</g>
</g>
<!-- dir_cf44463199b27892dde3423ece3eca95&#45;&gt;dir_d44c64559bbebec7f509842c48db8b23 -->
<g id="edge10" class="edge">
<title>dir_cf44463199b27892dde3423ece3eca95&#45;&gt;dir_d44c64559bbebec7f509842c48db8b23</title>
<g id="a_edge10"><a xlink:href="dir_000100_000149.html" target="_top">
<path fill="none" stroke="#63b8ff" d="M249.22,-165.26C256.28,-156.77 265.96,-143.39 270,-129.75 281.43,-91.19 279.07,-78.44 270,-39.25 269.23,-35.92 268.01,-32.52 266.61,-29.29"/>
<polygon fill="#63b8ff" stroke="#63b8ff" points="269.85,-27.94 262.2,-20.61 263.61,-31.11 269.85,-27.94"/>
</a>
</g>
<g id="a_edge10&#45;headlabel"><a xlink:href="dir_000100_000149.html" target="_top" xlink:title="10">
<text xml:space="preserve" text-anchor="middle" x="273.32" y="-24.63" font-family="Helvetica,sans-Serif" font-size="10.00" fill="#63b8ff">10</text>
</a>
</g>
</g>
<!-- dir_606f15b1d66f9713a685f9d2a106de66&#45;&gt;dir_72076151150f9c89e8fe93bb4df5dbe1 -->
<g id="edge11" class="edge">
<title>dir_606f15b1d66f9713a685f9d2a106de66&#45;&gt;dir_72076151150f9c89e8fe93bb4df5dbe1</title>
<g id="a_edge11"><a xlink:href="dir_000136_000221.html" target="_top">
<path fill="none" stroke="#63b8ff" d="M296.42,-168.21C293.59,-167.38 290.72,-166.54 288,-165.75 249.07,-154.5 204.66,-142.07 172.69,-133.19"/>
<polygon fill="#63b8ff" stroke="#63b8ff" points="173.96,-129.91 163.39,-130.61 172.09,-136.66 173.96,-129.91"/>
</a>
</g>
<g id="a_edge11&#45;headlabel"><a xlink:href="dir_000136_000221.html" target="_top" xlink:title="3">
<text xml:space="preserve" text-anchor="middle" x="176.72" y="-123.86" font-family="Helvetica,sans-Serif" font-size="10.00" fill="#63b8ff">3</text>
</a>
</g>
</g>
<!-- dir_606f15b1d66f9713a685f9d2a106de66&#45;&gt;dir_d44c64559bbebec7f509842c48db8b23 -->
<g id="edge12" class="edge">
<title>dir_606f15b1d66f9713a685f9d2a106de66&#45;&gt;dir_d44c64559bbebec7f509842c48db8b23</title>
<g id="a_edge12"><a xlink:href="dir_000136_000149.html" target="_top">
<path fill="none" stroke="#63b8ff" d="M316.83,-165.51C316.02,-142.91 311.56,-81.96 287,-39.25 284.49,-34.89 281.1,-30.81 277.48,-27.18"/>
<polygon fill="#63b8ff" stroke="#63b8ff" points="279.86,-24.61 270.06,-20.58 275.21,-29.84 279.86,-24.61"/>
</a>
</g>
<g id="a_edge12&#45;headlabel"><a xlink:href="dir_000136_000149.html" target="_top" xlink:title="67">
<text xml:space="preserve" text-anchor="middle" x="283.3" y="-19.99" font-family="Helvetica,sans-Serif" font-size="10.00" fill="#63b8ff">67</text>
</a>
</g>
</g>
<!-- dir_5befd611e705f91941cb778df283c98a -->
<g id="node5" class="node">
<title>dir_5befd611e705f91941cb778df283c98a</title>
<g id="a_node5"><a xlink:href="dir_5befd611e705f91941cb778df283c98a.html" target="_top" xlink:title="MCA">
<polygon fill="#a2b4d6" stroke="#404040" points="82.25,-185 43.75,-185 43.75,-165.75 82.25,-165.75 82.25,-185"/>
<text xml:space="preserve" text-anchor="middle" x="63" y="-171.5" font-family="Helvetica,sans-Serif" font-size="10.00">MCA</text>
</a>
</g>
</g>
<!-- dir_5befd611e705f91941cb778df283c98a&#45;&gt;dir_72076151150f9c89e8fe93bb4df5dbe1 -->
<g id="edge14" class="edge">
<title>dir_5befd611e705f91941cb778df283c98a&#45;&gt;dir_72076151150f9c89e8fe93bb4df5dbe1</title>
<g id="a_edge14"><a xlink:href="dir_000198_000221.html" target="_top">
<path fill="none" stroke="#63b8ff" d="M74.2,-165.34C83.74,-157.65 97.67,-146.4 109.11,-137.18"/>
<polygon fill="#63b8ff" stroke="#63b8ff" points="111.21,-139.98 116.79,-130.98 106.81,-134.53 111.21,-139.98"/>
</a>
</g>
<g id="a_edge14&#45;headlabel"><a xlink:href="dir_000198_000221.html" target="_top" xlink:title="1">
<text xml:space="preserve" text-anchor="middle" x="111.37" y="-139.62" font-family="Helvetica,sans-Serif" font-size="10.00" fill="#63b8ff">1</text>
</a>
</g>
</g>
<!-- dir_5befd611e705f91941cb778df283c98a&#45;&gt;dir_04c42cdfbc306d281ff52dd260421e86 -->
<g id="edge13" class="edge">
<title>dir_5befd611e705f91941cb778df283c98a&#45;&gt;dir_04c42cdfbc306d281ff52dd260421e86</title>
<g id="a_edge13"><a xlink:href="dir_000198_000322.html" target="_top">
<path fill="none" stroke="#63b8ff" d="M62.08,-165.58C61.02,-153.15 59.9,-129.81 64,-110.5 65.86,-101.76 69.44,-92.59 73,-84.86"/>
<polygon fill="#63b8ff" stroke="#63b8ff" points="76.02,-86.64 77.32,-76.12 69.75,-83.53 76.02,-86.64"/>
</a>
</g>
<g id="a_edge13&#45;headlabel"><a xlink:href="dir_000198_000322.html" target="_top" xlink:title="1">
<text xml:space="preserve" text-anchor="middle" x="77.64" y="-85.89" font-family="Helvetica,sans-Serif" font-size="10.00" fill="#63b8ff">1</text>
</a>
</g>
</g>
<!-- dir_5befd611e705f91941cb778df283c98a&#45;&gt;dir_d44c64559bbebec7f509842c48db8b23 -->
<g id="edge15" class="edge">
<title>dir_5befd611e705f91941cb778df283c98a&#45;&gt;dir_d44c64559bbebec7f509842c48db8b23</title>
<g id="a_edge15"><a xlink:href="dir_000198_000149.html" target="_top">
<path fill="none" stroke="#63b8ff" d="M82.65,-168.45C111.56,-159.46 163.76,-142.13 179,-129.75 212.82,-102.29 236.67,-55.89 248.18,-29.85"/>
<polygon fill="#63b8ff" stroke="#63b8ff" points="251.31,-31.42 252,-20.85 244.87,-28.68 251.31,-31.42"/>
</a>
</g>
<g id="a_edge15&#45;headlabel"><a xlink:href="dir_000198_000149.html" target="_top" xlink:title="8">
<text xml:space="preserve" text-anchor="middle" x="253.11" y="-30.57" font-family="Helvetica,sans-Serif" font-size="10.00" fill="#63b8ff">8</text>
</a>
</g>
</g>
<!-- dir_72076151150f9c89e8fe93bb4df5dbe1&#45;&gt;dir_04c42cdfbc306d281ff52dd260421e86 -->
<g id="edge16" class="edge">
<title>dir_72076151150f9c89e8fe93bb4df5dbe1&#45;&gt;dir_04c42cdfbc306d281ff52dd260421e86</title>
<g id="a_edge16"><a xlink:href="dir_000221_000322.html" target="_top">
<path fill="none" stroke="#63b8ff" d="M121.4,-110.33C115.12,-103.05 105.99,-92.48 98.2,-83.48"/>
<polygon fill="#63b8ff" stroke="#63b8ff" points="100.94,-81.28 91.75,-76 95.64,-85.86 100.94,-81.28"/>
</a>
</g>
<g id="a_edge16&#45;headlabel"><a xlink:href="dir_000221_000322.html" target="_top" xlink:title="1">
<text xml:space="preserve" text-anchor="middle" x="104.45" y="-77.13" font-family="Helvetica,sans-Serif" font-size="10.00" fill="#63b8ff">1</text>
</a>
</g>
</g>
<!-- dir_72076151150f9c89e8fe93bb4df5dbe1&#45;&gt;dir_d44c64559bbebec7f509842c48db8b23 -->
<g id="edge17" class="edge">
<title>dir_72076151150f9c89e8fe93bb4df5dbe1&#45;&gt;dir_d44c64559bbebec7f509842c48db8b23</title>
<g id="a_edge17"><a xlink:href="dir_000221_000149.html" target="_top">
<path fill="none" stroke="#63b8ff" d="M135.89,-110.11C148.25,-94.33 175.6,-61.29 204,-39.25 210.83,-33.95 218.76,-29.05 226.35,-24.86"/>
<polygon fill="#63b8ff" stroke="#63b8ff" points="227.77,-28.06 235,-20.31 224.52,-21.87 227.77,-28.06"/>
</a>
</g>
<g id="a_edge17&#45;headlabel"><a xlink:href="dir_000221_000149.html" target="_top" xlink:title="122">
<text xml:space="preserve" text-anchor="middle" x="227.25" y="-27.67" font-family="Helvetica,sans-Serif" font-size="10.00" fill="#63b8ff">122</text>
</a>
</g>
</g>
<!-- dir_04c42cdfbc306d281ff52dd260421e86&#45;&gt;dir_d44c64559bbebec7f509842c48db8b23 -->
<g id="edge18" class="edge">
<title>dir_04c42cdfbc306d281ff52dd260421e86&#45;&gt;dir_d44c64559bbebec7f509842c48db8b23</title>
<g id="a_edge18"><a xlink:href="dir_000322_000149.html" target="_top">
<path fill="none" stroke="#63b8ff" d="M107.49,-54.81C120.86,-49.97 137.76,-44.04 153,-39.25 175.5,-32.18 201.04,-25.07 221.05,-19.71"/>
<polygon fill="#63b8ff" stroke="#63b8ff" points="221.91,-23.11 230.68,-17.16 220.11,-16.34 221.91,-23.11"/>
</a>
</g>
<g id="a_edge18&#45;headlabel"><a xlink:href="dir_000322_000149.html" target="_top" xlink:title="2">
<text xml:space="preserve" text-anchor="middle" x="220.63" y="-22.51" font-family="Helvetica,sans-Serif" font-size="10.00" fill="#63b8ff">2</text>
</a>
</g>
</g>
</g>
</svg>
