<?xml version="1.0" encoding="UTF-8" standalone="no"?>
<!DOCTYPE svg PUBLIC "-//W3C//DTD SVG 1.1//EN"
 "http://www.w3.org/Graphics/SVG/1.1/DTD/svg11.dtd">
<!-- Generated by graphviz version 13.1.2 (20250808.2320)
 -->
<!-- Title: Graphical Class Hierarchy Pages: 1 -->
<svg width="318pt" height="64pt"
 viewBox="0.00 0.00 318.00 64.00" xmlns="http://www.w3.org/2000/svg" xmlns:xlink="http://www.w3.org/1999/xlink">
<g id="graph0" class="graph" transform="scale(1 1) rotate(0) translate(4 60.25)">
<title>Graphical Class Hierarchy</title>
<!-- Node0 -->
<g id="Node000000" class="node">
<title>Node0</title>
<g id="a_Node000000"><a xlink:href="classllvm_1_1DwarfExpression.html" target="_top" xlink:title="Base class containing the logic for constructing DWARF expressions independently of whether they are ...">
<polygon fill="white" stroke="#666666" points="115,-37.25 0,-37.25 0,-18 115,-18 115,-37.25"/>
<text xml:space="preserve" text-anchor="middle" x="57.5" y="-23.75" font-family="Helvetica,sans-Serif" font-size="10.00">llvm::DwarfExpression</text>
</a>
</g>
</g>
<!-- Node1 -->
<g id="Node000001" class="node">
<title>Node1</title>
<g id="a_Node000001"><a xlink:href="classllvm_1_1DIEDwarfExpression.html" target="_top" xlink:title="DwarfExpression implementation for singular DW_AT_location.">
<polygon fill="white" stroke="#666666" points="296.75,-56.25 164.5,-56.25 164.5,-37 296.75,-37 296.75,-56.25"/>
<text xml:space="preserve" text-anchor="middle" x="230.62" y="-42.75" font-family="Helvetica,sans-Serif" font-size="10.00">llvm::DIEDwarfExpression</text>
</a>
</g>
</g>
<!-- Node0&#45;&gt;Node1 -->
<g id="edge3327_Node000000_Node000001" class="edge">
<title>Node0&#45;&gt;Node1</title>
<g id="a_edge3327_Node000000_Node000001"><a xlink:title=" ">
<path fill="none" stroke="#63b8ff" d="M126.62,-35.19C138.94,-36.56 151.77,-37.98 164.01,-39.34"/>
<polygon fill="#63b8ff" stroke="#63b8ff" points="127.31,-31.74 116.99,-34.12 126.54,-38.7 127.31,-31.74"/>
</a>
</g>
</g>
<!-- Node2 -->
<g id="Node000002" class="node">
<title>Node2</title>
<g id="a_Node000002"><a xlink:href="classllvm_1_1DebugLocDwarfExpression.html" target="_top" xlink:title="DwarfExpression implementation for .debug_loc entries.">
<polygon fill="white" stroke="#666666" points="310.25,-19.25 151,-19.25 151,0 310.25,0 310.25,-19.25"/>
<text xml:space="preserve" text-anchor="middle" x="230.62" y="-5.75" font-family="Helvetica,sans-Serif" font-size="10.00">llvm::DebugLocDwarfExpression</text>
</a>
</g>
</g>
<!-- Node0&#45;&gt;Node2 -->
<g id="edge3328_Node000000_Node000002" class="edge">
<title>Node0&#45;&gt;Node2</title>
<g id="a_edge3328_Node000000_Node000002"><a xlink:title=" ">
<path fill="none" stroke="#63b8ff" d="M126.79,-20.44C134.63,-19.62 142.68,-18.77 150.64,-17.93"/>
<polygon fill="#63b8ff" stroke="#63b8ff" points="126.57,-16.95 116.99,-21.47 127.3,-23.91 126.57,-16.95"/>
</a>
</g>
</g>
</g>
</svg>
