<?xml version="1.0" encoding="UTF-8" standalone="no"?>
<!DOCTYPE svg PUBLIC "-//W3C//DTD SVG 1.1//EN"
 "http://www.w3.org/Graphics/SVG/1.1/DTD/svg11.dtd">
<!-- Generated by graphviz version 13.1.2 (20250808.2320)
 -->
<!-- Title: Graphical Class Hierarchy Pages: 1 -->
<svg width="780pt" height="93pt"
 viewBox="0.00 0.00 780.00 93.00" xmlns="http://www.w3.org/2000/svg" xmlns:xlink="http://www.w3.org/1999/xlink">
<g id="graph0" class="graph" transform="scale(1 1) rotate(0) translate(4 89.12)">
<title>Graphical Class Hierarchy</title>
<!-- Node0 -->
<g id="Node000000" class="node">
<title>Node0</title>
<g id="a_Node000000"><a xlink:href="classllvm_1_1SmallVectorBase.html" target="_top" xlink:title=" ">
<polygon fill="white" stroke="#666666" points="118.75,-85.12 0,-85.12 0,-43.38 118.75,-43.38 118.75,-85.12"/>
<text xml:space="preserve" text-anchor="start" x="8" y="-71.62" font-family="Helvetica,sans-Serif" font-size="10.00">llvm::SmallVectorBase</text>
<text xml:space="preserve" text-anchor="start" x="8" y="-60.38" font-family="Helvetica,sans-Serif" font-size="10.00">&lt; SmallVectorSizeType</text>
<text xml:space="preserve" text-anchor="middle" x="59.38" y="-49.12" font-family="Helvetica,sans-Serif" font-size="10.00">&lt; const uint32_t * &gt; &gt;</text>
</a>
</g>
</g>
<!-- Node1 -->
<g id="Node000001" class="node">
<title>Node1</title>
<g id="a_Node000001"><a xlink:href="classllvm_1_1SmallVectorTemplateCommon.html" target="_top" xlink:title=" ">
<polygon fill="white" stroke="#666666" points="296.75,-79.5 154.75,-79.5 154.75,-49 296.75,-49 296.75,-79.5"/>
<text xml:space="preserve" text-anchor="start" x="162.75" y="-66" font-family="Helvetica,sans-Serif" font-size="10.00">llvm::SmallVectorTemplate</text>
<text xml:space="preserve" text-anchor="middle" x="225.75" y="-54.75" font-family="Helvetica,sans-Serif" font-size="10.00">Common&lt; const uint32_t * &gt;</text>
</a>
</g>
</g>
<!-- Node0&#45;&gt;Node1 -->
<g id="edge7951_Node000000_Node000001" class="edge">
<title>Node0&#45;&gt;Node1</title>
<g id="a_edge7951_Node000000_Node000001"><a xlink:title=" ">
<path fill="none" stroke="#63b8ff" d="M130.05,-64.25C138.12,-64.25 146.35,-64.25 154.42,-64.25"/>
<polygon fill="#63b8ff" stroke="#63b8ff" points="130.3,-60.75 120.3,-64.25 130.3,-67.75 130.3,-60.75"/>
</a>
</g>
</g>
<!-- Node2 -->
<g id="Node000002" class="node">
<title>Node2</title>
<g id="a_Node000002"><a xlink:href="classllvm_1_1SmallVectorTemplateBase.html" target="_top" xlink:title=" ">
<polygon fill="white" stroke="#666666" points="465.75,-79.5 332.75,-79.5 332.75,-49 465.75,-49 465.75,-79.5"/>
<text xml:space="preserve" text-anchor="start" x="340.75" y="-66" font-family="Helvetica,sans-Serif" font-size="10.00">llvm::SmallVectorTemplate</text>
<text xml:space="preserve" text-anchor="middle" x="399.25" y="-54.75" font-family="Helvetica,sans-Serif" font-size="10.00">Base&lt; const uint32_t * &gt;</text>
</a>
</g>
</g>
<!-- Node1&#45;&gt;Node2 -->
<g id="edge7952_Node000001_Node000002" class="edge">
<title>Node1&#45;&gt;Node2</title>
<g id="a_edge7952_Node000001_Node000002"><a xlink:title=" ">
<path fill="none" stroke="#63b8ff" d="M308.29,-64.25C316.32,-64.25 324.4,-64.25 332.25,-64.25"/>
<polygon fill="#63b8ff" stroke="#63b8ff" points="308.51,-60.75 298.51,-64.25 308.51,-67.75 308.51,-60.75"/>
</a>
</g>
</g>
<!-- Node3 -->
<g id="Node000003" class="node">
<title>Node3</title>
<g id="a_Node000003"><a xlink:href="classllvm_1_1SmallVectorImpl.html" target="_top" xlink:title=" ">
<polygon fill="white" stroke="#666666" points="621.25,-79.5 509.25,-79.5 509.25,-49 621.25,-49 621.25,-79.5"/>
<text xml:space="preserve" text-anchor="start" x="517.25" y="-66" font-family="Helvetica,sans-Serif" font-size="10.00">llvm::SmallVectorImpl</text>
<text xml:space="preserve" text-anchor="middle" x="565.25" y="-54.75" font-family="Helvetica,sans-Serif" font-size="10.00">&lt; const uint32_t * &gt;</text>
</a>
</g>
</g>
<!-- Node2&#45;&gt;Node3 -->
<g id="edge7953_Node000002_Node000003" class="edge">
<title>Node2&#45;&gt;Node3</title>
<g id="a_edge7953_Node000002_Node000003"><a xlink:title=" ">
<path fill="none" stroke="#63b8ff" d="M477.41,-64.25C487.99,-64.25 498.67,-64.25 508.75,-64.25"/>
<polygon fill="#63b8ff" stroke="#63b8ff" points="477.52,-60.75 467.52,-64.25 477.52,-67.75 477.52,-60.75"/>
</a>
</g>
</g>
<!-- Node4 -->
<g id="Node000004" class="node">
<title>Node4</title>
<g id="a_Node000004"><a xlink:href="classllvm_1_1SmallVector.html" target="_top" xlink:title=" ">
<polygon fill="white" stroke="#666666" points="772.25,-79.5 664.75,-79.5 664.75,-49 772.25,-49 772.25,-79.5"/>
<text xml:space="preserve" text-anchor="start" x="672.75" y="-66" font-family="Helvetica,sans-Serif" font-size="10.00">llvm::SmallVector&lt;</text>
<text xml:space="preserve" text-anchor="middle" x="718.5" y="-54.75" font-family="Helvetica,sans-Serif" font-size="10.00"> const uint32_t *, 4 &gt;</text>
</a>
</g>
</g>
<!-- Node3&#45;&gt;Node4 -->
<g id="edge7954_Node000003_Node000004" class="edge">
<title>Node3&#45;&gt;Node4</title>
<g id="a_edge7954_Node000003_Node000004"><a xlink:title=" ">
<path fill="none" stroke="#63b8ff" d="M632.97,-64.25C643.46,-64.25 654.18,-64.25 664.31,-64.25"/>
<polygon fill="#63b8ff" stroke="#63b8ff" points="633.22,-60.75 623.22,-64.25 633.22,-67.75 633.22,-60.75"/>
</a>
</g>
</g>
<!-- Node6 -->
<g id="Node000006" class="node">
<title>Node6</title>
<g id="a_Node000006"><a xlink:href="classllvm_1_1SmallVector.html" target="_top" xlink:title=" ">
<polygon fill="white" stroke="#666666" points="772.25,-30.5 664.75,-30.5 664.75,0 772.25,0 772.25,-30.5"/>
<text xml:space="preserve" text-anchor="start" x="672.75" y="-17" font-family="Helvetica,sans-Serif" font-size="10.00">llvm::SmallVector&lt;</text>
<text xml:space="preserve" text-anchor="middle" x="718.5" y="-5.75" font-family="Helvetica,sans-Serif" font-size="10.00"> const uint32_t *, 8 &gt;</text>
</a>
</g>
</g>
<!-- Node3&#45;&gt;Node6 -->
<g id="edge7955_Node000003_Node000006" class="edge">
<title>Node3&#45;&gt;Node6</title>
<g id="a_edge7955_Node000003_Node000006"><a xlink:title=" ">
<path fill="none" stroke="#63b8ff" d="M625.35,-45.1C639.77,-40.43 655.04,-35.49 668.91,-30.99"/>
<polygon fill="#63b8ff" stroke="#63b8ff" points="624.4,-41.73 615.96,-48.14 626.55,-48.39 624.4,-41.73"/>
</a>
</g>
</g>
<!-- Node5 -->
<g id="Node000005" class="node">
<title>Node5</title>
<g id="a_Node000005"><a xlink:href="structllvm_1_1SmallVectorStorage.html" target="_top" xlink:title=" ">
<polygon fill="white" stroke="#666666" points="628.75,-30.5 501.75,-30.5 501.75,0 628.75,0 628.75,-30.5"/>
<text xml:space="preserve" text-anchor="start" x="509.75" y="-17" font-family="Helvetica,sans-Serif" font-size="10.00">llvm::SmallVectorStorage</text>
<text xml:space="preserve" text-anchor="middle" x="565.25" y="-5.75" font-family="Helvetica,sans-Serif" font-size="10.00">&lt; const uint32_t *, N &gt;</text>
</a>
</g>
</g>
<!-- Node5&#45;&gt;Node4 -->
<g id="edge7956_Node000005_Node000004" class="edge">
<title>Node5&#45;&gt;Node4</title>
<g id="a_edge7956_Node000005_Node000004"><a xlink:title=" ">
<path fill="none" stroke="#8b1a1a" d="M625.35,-34.4C639.77,-39.07 655.04,-44.01 668.91,-48.51"/>
<polygon fill="#8b1a1a" stroke="#8b1a1a" points="626.55,-31.11 615.96,-31.36 624.4,-37.77 626.55,-31.11"/>
</a>
</g>
</g>
<!-- Node5&#45;&gt;Node6 -->
<g id="edge7957_Node000005_Node000006" class="edge">
<title>Node5&#45;&gt;Node6</title>
<g id="a_edge7957_Node000005_Node000006"><a xlink:title=" ">
<path fill="none" stroke="#8b1a1a" d="M640.56,-15.25C648.72,-15.25 656.9,-15.25 664.71,-15.25"/>
<polygon fill="#8b1a1a" stroke="#8b1a1a" points="640.59,-11.75 630.59,-15.25 640.59,-18.75 640.59,-11.75"/>
</a>
</g>
</g>
</g>
</svg>
