<?xml version="1.0" encoding="UTF-8" standalone="no"?>
<!DOCTYPE svg PUBLIC "-//W3C//DTD SVG 1.1//EN"
 "http://www.w3.org/Graphics/SVG/1.1/DTD/svg11.dtd">
<!-- Generated by graphviz version 13.1.2 (20250808.2320)
 -->
<!-- Title: Graphical Class Hierarchy Pages: 1 -->
<svg width="354pt" height="76pt"
 viewBox="0.00 0.00 354.00 76.00" xmlns="http://www.w3.org/2000/svg" xmlns:xlink="http://www.w3.org/1999/xlink">
<g id="graph0" class="graph" transform="scale(1 1) rotate(0) translate(4 71.88)">
<title>Graphical Class Hierarchy</title>
<!-- Node0 -->
<g id="Node000000" class="node">
<title>Node0</title>
<g id="a_Node000000"><a xlink:href="classllvm_1_1pdb_1_1IPDBEnumChildren.html" target="_top" xlink:title=" ">
<polygon fill="white" stroke="#666666" points="147.25,-51.5 0,-51.5 0,-21 147.25,-21 147.25,-51.5"/>
<text xml:space="preserve" text-anchor="start" x="8" y="-38" font-family="Helvetica,sans-Serif" font-size="10.00">llvm::pdb::IPDBEnumChildren</text>
<text xml:space="preserve" text-anchor="middle" x="73.62" y="-26.75" font-family="Helvetica,sans-Serif" font-size="10.00">&lt; IPDBLineNumber &gt;</text>
</a>
</g>
</g>
<!-- Node1 -->
<g id="Node000001" class="node">
<title>Node1</title>
<g id="a_Node000001"><a xlink:href="classllvm_1_1pdb_1_1DIAEnumLineNumbers.html" target="_top" xlink:title=" ">
<polygon fill="white" stroke="#666666" points="345.5,-67.88 183.25,-67.88 183.25,-48.62 345.5,-48.62 345.5,-67.88"/>
<text xml:space="preserve" text-anchor="middle" x="264.38" y="-54.38" font-family="Helvetica,sans-Serif" font-size="10.00">llvm::pdb::DIAEnumLineNumbers</text>
</a>
</g>
</g>
<!-- Node0&#45;&gt;Node1 -->
<g id="edge5951_Node000000_Node000001" class="edge">
<title>Node0&#45;&gt;Node1</title>
<g id="a_edge5951_Node000000_Node000001"><a xlink:title=" ">
<path fill="none" stroke="#63b8ff" d="M158.78,-46.06C166.75,-46.99 174.82,-47.93 182.76,-48.85"/>
<polygon fill="#63b8ff" stroke="#63b8ff" points="159.44,-42.61 149.1,-44.93 158.63,-49.57 159.44,-42.61"/>
</a>
</g>
</g>
<!-- Node2 -->
<g id="Node000002" class="node">
<title>Node2</title>
<g id="a_Node000002"><a xlink:href="classllvm_1_1pdb_1_1NativeEnumLineNumbers.html" target="_top" xlink:title=" ">
<polygon fill="white" stroke="#666666" points="331.25,-30.5 197.5,-30.5 197.5,0 331.25,0 331.25,-30.5"/>
<text xml:space="preserve" text-anchor="start" x="205.5" y="-17" font-family="Helvetica,sans-Serif" font-size="10.00">llvm::pdb::NativeEnumLine</text>
<text xml:space="preserve" text-anchor="middle" x="264.38" y="-5.75" font-family="Helvetica,sans-Serif" font-size="10.00">Numbers</text>
</a>
</g>
</g>
<!-- Node0&#45;&gt;Node2 -->
<g id="edge5952_Node000000_Node000002" class="edge">
<title>Node0&#45;&gt;Node2</title>
<g id="a_edge5952_Node000000_Node000002"><a xlink:title=" ">
<path fill="none" stroke="#63b8ff" d="M158.78,-26.89C171.61,-25.46 184.7,-24 197.07,-22.63"/>
<polygon fill="#63b8ff" stroke="#63b8ff" points="158.66,-23.38 149.1,-27.96 159.43,-30.34 158.66,-23.38"/>
</a>
</g>
</g>
</g>
</svg>
