<?xml version="1.0" encoding="UTF-8" standalone="no"?>
<!DOCTYPE svg PUBLIC "-//W3C//DTD SVG 1.1//EN"
 "http://www.w3.org/Graphics/SVG/1.1/DTD/svg11.dtd">
<!-- Generated by graphviz version 13.1.2 (20250808.2320)
 -->
<!-- Title: Graphical Class Hierarchy Pages: 1 -->
<svg width="771pt" height="93pt"
 viewBox="0.00 0.00 771.00 93.00" xmlns="http://www.w3.org/2000/svg" xmlns:xlink="http://www.w3.org/1999/xlink">
<g id="graph0" class="graph" transform="scale(1 1) rotate(0) translate(4 89.12)">
<title>Graphical Class Hierarchy</title>
<!-- Node0 -->
<g id="Node000000" class="node">
<title>Node0</title>
<g id="a_Node000000"><a xlink:href="classllvm_1_1SmallVectorBase.html" target="_top" xlink:title=" ">
<polygon fill="white" stroke="#666666" points="118.75,-85.12 0,-85.12 0,-43.38 118.75,-43.38 118.75,-85.12"/>
<text xml:space="preserve" text-anchor="start" x="8" y="-71.62" font-family="Helvetica,sans-Serif" font-size="10.00">llvm::SmallVectorBase</text>
<text xml:space="preserve" text-anchor="start" x="8" y="-60.38" font-family="Helvetica,sans-Serif" font-size="10.00">&lt; SmallVectorSizeType</text>
<text xml:space="preserve" text-anchor="middle" x="59.38" y="-49.12" font-family="Helvetica,sans-Serif" font-size="10.00">&lt; llvm::MCFixup &gt; &gt;</text>
</a>
</g>
</g>
<!-- Node1 -->
<g id="Node000001" class="node">
<title>Node1</title>
<g id="a_Node000001"><a xlink:href="classllvm_1_1SmallVectorTemplateCommon.html" target="_top" xlink:title=" ">
<polygon fill="white" stroke="#666666" points="292.25,-79.5 154.75,-79.5 154.75,-49 292.25,-49 292.25,-79.5"/>
<text xml:space="preserve" text-anchor="start" x="162.75" y="-66" font-family="Helvetica,sans-Serif" font-size="10.00">llvm::SmallVectorTemplate</text>
<text xml:space="preserve" text-anchor="middle" x="223.5" y="-54.75" font-family="Helvetica,sans-Serif" font-size="10.00">Common&lt; llvm::MCFixup &gt;</text>
</a>
</g>
</g>
<!-- Node0&#45;&gt;Node1 -->
<g id="edge8752_Node000000_Node000001" class="edge">
<title>Node0&#45;&gt;Node1</title>
<g id="a_edge8752_Node000000_Node000001"><a xlink:title=" ">
<path fill="none" stroke="#63b8ff" d="M130.14,-64.25C138.19,-64.25 146.38,-64.25 154.41,-64.25"/>
<polygon fill="#63b8ff" stroke="#63b8ff" points="130.42,-60.75 120.42,-64.25 130.42,-67.75 130.42,-60.75"/>
</a>
</g>
</g>
<!-- Node2 -->
<g id="Node000002" class="node">
<title>Node2</title>
<g id="a_Node000002"><a xlink:href="classllvm_1_1SmallVectorTemplateBase.html" target="_top" xlink:title=" ">
<polygon fill="white" stroke="#666666" points="461.25,-79.5 328.25,-79.5 328.25,-49 461.25,-49 461.25,-79.5"/>
<text xml:space="preserve" text-anchor="start" x="336.25" y="-66" font-family="Helvetica,sans-Serif" font-size="10.00">llvm::SmallVectorTemplate</text>
<text xml:space="preserve" text-anchor="middle" x="394.75" y="-54.75" font-family="Helvetica,sans-Serif" font-size="10.00">Base&lt; llvm::MCFixup &gt;</text>
</a>
</g>
</g>
<!-- Node1&#45;&gt;Node2 -->
<g id="edge8753_Node000001_Node000002" class="edge">
<title>Node1&#45;&gt;Node2</title>
<g id="a_edge8753_Node000001_Node000002"><a xlink:title=" ">
<path fill="none" stroke="#63b8ff" d="M303.69,-64.25C311.76,-64.25 319.89,-64.25 327.8,-64.25"/>
<polygon fill="#63b8ff" stroke="#63b8ff" points="303.88,-60.75 293.88,-64.25 303.88,-67.75 303.88,-60.75"/>
</a>
</g>
</g>
<!-- Node3 -->
<g id="Node000003" class="node">
<title>Node3</title>
<g id="a_Node000003"><a xlink:href="classllvm_1_1SmallVectorImpl.html" target="_top" xlink:title=" ">
<polygon fill="white" stroke="#666666" points="616.75,-79.5 504.75,-79.5 504.75,-49 616.75,-49 616.75,-79.5"/>
<text xml:space="preserve" text-anchor="start" x="512.75" y="-66" font-family="Helvetica,sans-Serif" font-size="10.00">llvm::SmallVectorImpl</text>
<text xml:space="preserve" text-anchor="middle" x="560.75" y="-54.75" font-family="Helvetica,sans-Serif" font-size="10.00">&lt; llvm::MCFixup &gt;</text>
</a>
</g>
</g>
<!-- Node2&#45;&gt;Node3 -->
<g id="edge8754_Node000002_Node000003" class="edge">
<title>Node2&#45;&gt;Node3</title>
<g id="a_edge8754_Node000002_Node000003"><a xlink:title=" ">
<path fill="none" stroke="#63b8ff" d="M472.91,-64.25C483.49,-64.25 494.17,-64.25 504.25,-64.25"/>
<polygon fill="#63b8ff" stroke="#63b8ff" points="473.02,-60.75 463.02,-64.25 473.02,-67.75 473.02,-60.75"/>
</a>
</g>
</g>
<!-- Node4 -->
<g id="Node000004" class="node">
<title>Node4</title>
<g id="a_Node000004"><a xlink:href="classllvm_1_1SmallVector.html" target="_top" xlink:title=" ">
<polygon fill="white" stroke="#666666" points="763.25,-54.5 660.25,-54.5 660.25,-24 763.25,-24 763.25,-54.5"/>
<text xml:space="preserve" text-anchor="start" x="668.25" y="-41" font-family="Helvetica,sans-Serif" font-size="10.00">llvm::SmallVector&lt;</text>
<text xml:space="preserve" text-anchor="middle" x="711.75" y="-29.75" font-family="Helvetica,sans-Serif" font-size="10.00"> llvm::MCFixup, 0 &gt;</text>
</a>
</g>
</g>
<!-- Node3&#45;&gt;Node4 -->
<g id="edge8755_Node000003_Node000004" class="edge">
<title>Node3&#45;&gt;Node4</title>
<g id="a_edge8755_Node000003_Node000004"><a xlink:title=" ">
<path fill="none" stroke="#63b8ff" d="M628.27,-53.09C638.97,-51.29 649.89,-49.46 660.14,-47.74"/>
<polygon fill="#63b8ff" stroke="#63b8ff" points="628.01,-49.58 618.72,-54.69 629.17,-56.49 628.01,-49.58"/>
</a>
</g>
</g>
<!-- Node5 -->
<g id="Node000005" class="node">
<title>Node5</title>
<g id="a_Node000005"><a xlink:href="structllvm_1_1SmallVectorStorage.html" target="_top" xlink:title=" ">
<polygon fill="white" stroke="#666666" points="624.25,-30.5 497.25,-30.5 497.25,0 624.25,0 624.25,-30.5"/>
<text xml:space="preserve" text-anchor="start" x="505.25" y="-17" font-family="Helvetica,sans-Serif" font-size="10.00">llvm::SmallVectorStorage</text>
<text xml:space="preserve" text-anchor="middle" x="560.75" y="-5.75" font-family="Helvetica,sans-Serif" font-size="10.00">&lt; llvm::MCFixup, N &gt;</text>
</a>
</g>
</g>
<!-- Node5&#45;&gt;Node4 -->
<g id="edge8756_Node000005_Node000004" class="edge">
<title>Node5&#45;&gt;Node4</title>
<g id="a_edge8756_Node000005_Node000004"><a xlink:title=" ">
<path fill="none" stroke="#8b1a1a" d="M635.62,-27.15C643.81,-28.47 652,-29.79 659.81,-31.04"/>
<polygon fill="#8b1a1a" stroke="#8b1a1a" points="636.43,-23.73 626,-25.6 635.32,-30.65 636.43,-23.73"/>
</a>
</g>
</g>
</g>
</svg>
