<?xml version="1.0" encoding="UTF-8" standalone="no"?>
<!DOCTYPE svg PUBLIC "-//W3C//DTD SVG 1.1//EN"
 "http://www.w3.org/Graphics/SVG/1.1/DTD/svg11.dtd">
<!-- Generated by graphviz version 13.1.2 (20250808.2320)
 -->
<!-- Title: Graphical Class Hierarchy Pages: 1 -->
<svg width="404pt" height="125pt"
 viewBox="0.00 0.00 404.00 125.00" xmlns="http://www.w3.org/2000/svg" xmlns:xlink="http://www.w3.org/1999/xlink">
<g id="graph0" class="graph" transform="scale(1 1) rotate(0) translate(4 120.5)">
<title>Graphical Class Hierarchy</title>
<!-- Node0 -->
<g id="Node000000" class="node">
<title>Node0</title>
<g id="a_Node000000"><a xlink:href="classllvm_1_1orc_1_1DylibManager.html" target="_top" xlink:title=" ">
<polygon fill="white" stroke="#666666" points="152.88,-67.88 33.38,-67.88 33.38,-48.62 152.88,-48.62 152.88,-67.88"/>
<text xml:space="preserve" text-anchor="middle" x="93.12" y="-54.38" font-family="Helvetica,sans-Serif" font-size="10.00">llvm::orc::DylibManager</text>
</a>
</g>
</g>
<!-- Node1 -->
<g id="Node000001" class="node">
<title>Node1</title>
<g id="a_Node000001"><a xlink:href="classllvm_1_1orc_1_1SelfExecutorProcessControl.html" target="_top" xlink:title="A ExecutorProcessControl implementation targeting the current process.">
<polygon fill="white" stroke="#666666" points="384.88,-116.5 233.12,-116.5 233.12,-86 384.88,-86 384.88,-116.5"/>
<text xml:space="preserve" text-anchor="start" x="241.12" y="-103" font-family="Helvetica,sans-Serif" font-size="10.00">llvm::orc::SelfExecutorProcess</text>
<text xml:space="preserve" text-anchor="middle" x="309" y="-91.75" font-family="Helvetica,sans-Serif" font-size="10.00">Control</text>
</a>
</g>
</g>
<!-- Node0&#45;&gt;Node1 -->
<g id="edge5075_Node000000_Node000001" class="edge">
<title>Node0&#45;&gt;Node1</title>
<g id="a_edge5075_Node000000_Node000001"><a xlink:title=" ">
<path fill="none" stroke="#8b1a1a" d="M155.45,-70.58C179.63,-75.44 207.65,-81.07 233.02,-86.18"/>
<polygon fill="#8b1a1a" stroke="#8b1a1a" points="156.25,-67.17 145.75,-68.63 154.87,-74.03 156.25,-67.17"/>
</a>
</g>
</g>
<!-- Node3 -->
<g id="Node000003" class="node">
<title>Node3</title>
<g id="a_Node000003"><a xlink:href="classllvm_1_1orc_1_1SimpleRemoteEPC.html" target="_top" xlink:title=" ">
<polygon fill="white" stroke="#666666" points="381.5,-67.88 236.5,-67.88 236.5,-48.62 381.5,-48.62 381.5,-67.88"/>
<text xml:space="preserve" text-anchor="middle" x="309" y="-54.38" font-family="Helvetica,sans-Serif" font-size="10.00">llvm::orc::SimpleRemoteEPC</text>
</a>
</g>
</g>
<!-- Node0&#45;&gt;Node3 -->
<g id="edge5076_Node000000_Node000003" class="edge">
<title>Node0&#45;&gt;Node3</title>
<g id="a_edge5076_Node000000_Node000003"><a xlink:title=" ">
<path fill="none" stroke="#8b1a1a" d="M164.55,-58.25C187.56,-58.25 213.14,-58.25 236.24,-58.25"/>
<polygon fill="#8b1a1a" stroke="#8b1a1a" points="164.65,-54.75 154.65,-58.25 164.65,-61.75 164.65,-54.75"/>
</a>
</g>
</g>
<!-- Node2 -->
<g id="Node000002" class="node">
<title>Node2</title>
<g id="a_Node000002"><a xlink:href="classllvm_1_1orc_1_1ExecutorProcessControl.html" target="_top" xlink:title="ExecutorProcessControl supports interaction with a JIT target process.">
<polygon fill="white" stroke="#666666" points="160.38,-116.5 25.88,-116.5 25.88,-86 160.38,-86 160.38,-116.5"/>
<text xml:space="preserve" text-anchor="start" x="33.88" y="-103" font-family="Helvetica,sans-Serif" font-size="10.00">llvm::orc::ExecutorProcess</text>
<text xml:space="preserve" text-anchor="middle" x="93.12" y="-91.75" font-family="Helvetica,sans-Serif" font-size="10.00">Control</text>
</a>
</g>
</g>
<!-- Node2&#45;&gt;Node1 -->
<g id="edge5077_Node000002_Node000001" class="edge">
<title>Node2&#45;&gt;Node1</title>
<g id="a_edge5077_Node000002_Node000001"><a xlink:title=" ">
<path fill="none" stroke="#63b8ff" d="M172.12,-101.25C191.97,-101.25 213.26,-101.25 232.96,-101.25"/>
<polygon fill="#63b8ff" stroke="#63b8ff" points="172.14,-97.75 162.14,-101.25 172.14,-104.75 172.14,-97.75"/>
</a>
</g>
</g>
<!-- Node2&#45;&gt;Node3 -->
<g id="edge5078_Node000002_Node000003" class="edge">
<title>Node2&#45;&gt;Node3</title>
<g id="a_edge5078_Node000002_Node000003"><a xlink:title=" ">
<path fill="none" stroke="#63b8ff" d="M171.86,-85.62C200.54,-79.85 232.26,-73.48 257.86,-68.33"/>
<polygon fill="#63b8ff" stroke="#63b8ff" points="171.22,-82.18 162.11,-87.58 172.6,-89.04 171.22,-82.18"/>
</a>
</g>
</g>
<!-- Node4 -->
<g id="Node000004" class="node">
<title>Node4</title>
<g id="a_Node000004"><a xlink:href="classllvm_1_1orc_1_1SimpleRemoteEPCTransportClient.html" target="_top" xlink:title=" ">
<polygon fill="white" stroke="#666666" points="186.25,-30.5 0,-30.5 0,0 186.25,0 186.25,-30.5"/>
<text xml:space="preserve" text-anchor="start" x="8" y="-17" font-family="Helvetica,sans-Serif" font-size="10.00">llvm::orc::SimpleRemoteEPCTransport</text>
<text xml:space="preserve" text-anchor="middle" x="93.12" y="-5.75" font-family="Helvetica,sans-Serif" font-size="10.00">Client</text>
</a>
</g>
</g>
<!-- Node4&#45;&gt;Node3 -->
<g id="edge5079_Node000004_Node000003" class="edge">
<title>Node4&#45;&gt;Node3</title>
<g id="a_edge5079_Node000004_Node000003"><a xlink:title=" ">
<path fill="none" stroke="#63b8ff" d="M183.4,-33.2C208.78,-38.3 235.52,-43.68 257.7,-48.14"/>
<polygon fill="#63b8ff" stroke="#63b8ff" points="184.22,-29.79 173.73,-31.25 182.84,-36.66 184.22,-29.79"/>
</a>
</g>
</g>
<!-- Node5 -->
<g id="Node000005" class="node">
<title>Node5</title>
<g id="a_Node000005"><a xlink:href="classllvm_1_1orc_1_1SimpleRemoteEPCServer.html" target="_top" xlink:title="A simple EPC server implementation.">
<polygon fill="white" stroke="#666666" points="395.75,-24.88 222.25,-24.88 222.25,-5.63 395.75,-5.63 395.75,-24.88"/>
<text xml:space="preserve" text-anchor="middle" x="309" y="-11.38" font-family="Helvetica,sans-Serif" font-size="10.00">llvm::orc::SimpleRemoteEPCServer</text>
</a>
</g>
</g>
<!-- Node4&#45;&gt;Node5 -->
<g id="edge5080_Node000004_Node000005" class="edge">
<title>Node4&#45;&gt;Node5</title>
<g id="a_edge5080_Node000004_Node000005"><a xlink:title=" ">
<path fill="none" stroke="#63b8ff" d="M198.03,-15.25C206.07,-15.25 214.13,-15.25 222.04,-15.25"/>
<polygon fill="#63b8ff" stroke="#63b8ff" points="198.2,-11.75 188.2,-15.25 198.2,-18.75 198.2,-11.75"/>
</a>
</g>
</g>
</g>
</svg>
