<?xml version="1.0" encoding="UTF-8" standalone="no"?>
<!DOCTYPE svg PUBLIC "-//W3C//DTD SVG 1.1//EN"
 "http://www.w3.org/Graphics/SVG/1.1/DTD/svg11.dtd">
<!-- Generated by graphviz version 13.1.2 (20250808.2320)
 -->
<!-- Title: Graphical Class Hierarchy Pages: 1 -->
<svg width="834pt" height="115pt"
 viewBox="0.00 0.00 834.00 115.00" xmlns="http://www.w3.org/2000/svg" xmlns:xlink="http://www.w3.org/1999/xlink">
<g id="graph0" class="graph" transform="scale(1 1) rotate(0) translate(4 111.38)">
<title>Graphical Class Hierarchy</title>
<!-- Node0 -->
<g id="Node000000" class="node">
<title>Node0</title>
<g id="a_Node000000"><a xlink:href="classllvm_1_1SmallVectorBase.html" target="_top" xlink:title=" ">
<polygon fill="white" stroke="#666666" points="139,-107.38 0,-107.38 0,-54.38 139,-54.38 139,-107.38"/>
<text xml:space="preserve" text-anchor="start" x="8" y="-93.88" font-family="Helvetica,sans-Serif" font-size="10.00">llvm::SmallVectorBase</text>
<text xml:space="preserve" text-anchor="start" x="8" y="-82.62" font-family="Helvetica,sans-Serif" font-size="10.00">&lt; SmallVectorSizeType</text>
<text xml:space="preserve" text-anchor="start" x="8" y="-71.38" font-family="Helvetica,sans-Serif" font-size="10.00">&lt; std::pair&lt; llvm::Instruction</text>
<text xml:space="preserve" text-anchor="middle" x="69.5" y="-60.12" font-family="Helvetica,sans-Serif" font-size="10.00"> *, unsigned &gt; &gt; &gt;</text>
</a>
</g>
</g>
<!-- Node1 -->
<g id="Node000001" class="node">
<title>Node1</title>
<g id="a_Node000001"><a xlink:href="classllvm_1_1SmallVectorTemplateCommon.html" target="_top" xlink:title=" ">
<polygon fill="white" stroke="#666666" points="312.5,-101.75 175,-101.75 175,-60 312.5,-60 312.5,-101.75"/>
<text xml:space="preserve" text-anchor="start" x="183" y="-88.25" font-family="Helvetica,sans-Serif" font-size="10.00">llvm::SmallVectorTemplate</text>
<text xml:space="preserve" text-anchor="start" x="183" y="-77" font-family="Helvetica,sans-Serif" font-size="10.00">Common&lt; std::pair&lt; llvm</text>
<text xml:space="preserve" text-anchor="middle" x="243.75" y="-65.75" font-family="Helvetica,sans-Serif" font-size="10.00">::Instruction *, unsigned &gt; &gt;</text>
</a>
</g>
</g>
<!-- Node0&#45;&gt;Node1 -->
<g id="edge9693_Node000000_Node000001" class="edge">
<title>Node0&#45;&gt;Node1</title>
<g id="a_edge9693_Node000000_Node000001"><a xlink:title=" ">
<path fill="none" stroke="#63b8ff" d="M150.45,-80.88C158.56,-80.88 166.73,-80.88 174.69,-80.88"/>
<polygon fill="#63b8ff" stroke="#63b8ff" points="150.59,-77.38 140.59,-80.88 150.59,-84.38 150.59,-77.38"/>
</a>
</g>
</g>
<!-- Node2 -->
<g id="Node000002" class="node">
<title>Node2</title>
<g id="a_Node000002"><a xlink:href="classllvm_1_1SmallVectorTemplateBase.html" target="_top" xlink:title=" ">
<polygon fill="white" stroke="#666666" points="481.5,-101.75 348.5,-101.75 348.5,-60 481.5,-60 481.5,-101.75"/>
<text xml:space="preserve" text-anchor="start" x="356.5" y="-88.25" font-family="Helvetica,sans-Serif" font-size="10.00">llvm::SmallVectorTemplate</text>
<text xml:space="preserve" text-anchor="start" x="356.5" y="-77" font-family="Helvetica,sans-Serif" font-size="10.00">Base&lt; std::pair&lt; llvm::</text>
<text xml:space="preserve" text-anchor="middle" x="415" y="-65.75" font-family="Helvetica,sans-Serif" font-size="10.00">Instruction *, unsigned &gt; &gt;</text>
</a>
</g>
</g>
<!-- Node1&#45;&gt;Node2 -->
<g id="edge9694_Node000001_Node000002" class="edge">
<title>Node1&#45;&gt;Node2</title>
<g id="a_edge9694_Node000001_Node000002"><a xlink:title=" ">
<path fill="none" stroke="#63b8ff" d="M323.94,-80.88C332.01,-80.88 340.14,-80.88 348.05,-80.88"/>
<polygon fill="#63b8ff" stroke="#63b8ff" points="324.13,-77.38 314.13,-80.88 324.13,-84.38 324.13,-77.38"/>
</a>
</g>
</g>
<!-- Node3 -->
<g id="Node000003" class="node">
<title>Node3</title>
<g id="a_Node000003"><a xlink:href="classllvm_1_1SmallVectorImpl.html" target="_top" xlink:title=" ">
<polygon fill="white" stroke="#666666" points="656.5,-101.75 517.5,-101.75 517.5,-60 656.5,-60 656.5,-101.75"/>
<text xml:space="preserve" text-anchor="start" x="525.5" y="-88.25" font-family="Helvetica,sans-Serif" font-size="10.00">llvm::SmallVectorImpl</text>
<text xml:space="preserve" text-anchor="start" x="525.5" y="-77" font-family="Helvetica,sans-Serif" font-size="10.00">&lt; std::pair&lt; llvm::Instruction</text>
<text xml:space="preserve" text-anchor="middle" x="587" y="-65.75" font-family="Helvetica,sans-Serif" font-size="10.00"> *, unsigned &gt; &gt;</text>
</a>
</g>
</g>
<!-- Node2&#45;&gt;Node3 -->
<g id="edge9695_Node000002_Node000003" class="edge">
<title>Node2&#45;&gt;Node3</title>
<g id="a_edge9695_Node000002_Node000003"><a xlink:title=" ">
<path fill="none" stroke="#63b8ff" d="M492.98,-80.88C501.01,-80.88 509.14,-80.88 517.07,-80.88"/>
<polygon fill="#63b8ff" stroke="#63b8ff" points="493.24,-77.38 483.24,-80.88 493.24,-84.38 493.24,-77.38"/>
</a>
</g>
</g>
<!-- Node4 -->
<g id="Node000004" class="node">
<title>Node4</title>
<g id="a_Node000004"><a xlink:href="classllvm_1_1SmallVector.html" target="_top" xlink:title=" ">
<polygon fill="white" stroke="#666666" points="825.5,-71.75 692.5,-71.75 692.5,-30 825.5,-30 825.5,-71.75"/>
<text xml:space="preserve" text-anchor="start" x="700.5" y="-58.25" font-family="Helvetica,sans-Serif" font-size="10.00">llvm::SmallVector&lt;</text>
<text xml:space="preserve" text-anchor="start" x="700.5" y="-47" font-family="Helvetica,sans-Serif" font-size="10.00"> std::pair&lt; llvm::Instruction</text>
<text xml:space="preserve" text-anchor="middle" x="759" y="-35.75" font-family="Helvetica,sans-Serif" font-size="10.00"> *, unsigned &gt;, 4 &gt;</text>
</a>
</g>
</g>
<!-- Node3&#45;&gt;Node4 -->
<g id="edge9696_Node000003_Node000004" class="edge">
<title>Node3&#45;&gt;Node4</title>
<g id="a_edge9696_Node000003_Node000004"><a xlink:title=" ">
<path fill="none" stroke="#63b8ff" d="M667.72,-66.81C675.89,-65.36 684.13,-63.91 692.12,-62.5"/>
<polygon fill="#63b8ff" stroke="#63b8ff" points="667.39,-63.31 658.15,-68.5 668.6,-70.21 667.39,-63.31"/>
</a>
</g>
</g>
<!-- Node5 -->
<g id="Node000005" class="node">
<title>Node5</title>
<g id="a_Node000005"><a xlink:href="structllvm_1_1SmallVectorStorage.html" target="_top" xlink:title=" ">
<polygon fill="white" stroke="#666666" points="656.5,-41.75 517.5,-41.75 517.5,0 656.5,0 656.5,-41.75"/>
<text xml:space="preserve" text-anchor="start" x="525.5" y="-28.25" font-family="Helvetica,sans-Serif" font-size="10.00">llvm::SmallVectorStorage</text>
<text xml:space="preserve" text-anchor="start" x="525.5" y="-17" font-family="Helvetica,sans-Serif" font-size="10.00">&lt; std::pair&lt; llvm::Instruction</text>
<text xml:space="preserve" text-anchor="middle" x="587" y="-5.75" font-family="Helvetica,sans-Serif" font-size="10.00"> *, unsigned &gt;, N &gt;</text>
</a>
</g>
</g>
<!-- Node5&#45;&gt;Node4 -->
<g id="edge9697_Node000005_Node000004" class="edge">
<title>Node5&#45;&gt;Node4</title>
<g id="a_edge9697_Node000005_Node000004"><a xlink:title=" ">
<path fill="none" stroke="#8b1a1a" d="M667.72,-34.94C675.89,-36.39 684.13,-37.84 692.12,-39.25"/>
<polygon fill="#8b1a1a" stroke="#8b1a1a" points="668.6,-31.54 658.15,-33.25 667.39,-38.44 668.6,-31.54"/>
</a>
</g>
</g>
</g>
</svg>
