<?xml version="1.0" encoding="UTF-8" standalone="no"?>
<!DOCTYPE svg PUBLIC "-//W3C//DTD SVG 1.1//EN"
 "http://www.w3.org/Graphics/SVG/1.1/DTD/svg11.dtd">
<!-- Generated by graphviz version 13.1.2 (20250808.2320)
 -->
<!-- Title: Graphical Class Hierarchy Pages: 1 -->
<svg width="963pt" height="93pt"
 viewBox="0.00 0.00 963.00 93.00" xmlns="http://www.w3.org/2000/svg" xmlns:xlink="http://www.w3.org/1999/xlink">
<g id="graph0" class="graph" transform="scale(1 1) rotate(0) translate(4 89.12)">
<title>Graphical Class Hierarchy</title>
<!-- Node0 -->
<g id="Node000000" class="node">
<title>Node0</title>
<g id="a_Node000000"><a xlink:href="classllvm_1_1SmallVectorBase.html" target="_top" xlink:title=" ">
<polygon fill="white" stroke="#666666" points="160,-85.12 0,-85.12 0,-43.38 160,-43.38 160,-85.12"/>
<text xml:space="preserve" text-anchor="start" x="8" y="-71.62" font-family="Helvetica,sans-Serif" font-size="10.00">llvm::SmallVectorBase</text>
<text xml:space="preserve" text-anchor="start" x="8" y="-60.38" font-family="Helvetica,sans-Serif" font-size="10.00">&lt; SmallVectorSizeType</text>
<text xml:space="preserve" text-anchor="middle" x="80" y="-49.12" font-family="Helvetica,sans-Serif" font-size="10.00">&lt; llvm::InstructionBuildSteps &gt; &gt;</text>
</a>
</g>
</g>
<!-- Node1 -->
<g id="Node000001" class="node">
<title>Node1</title>
<g id="a_Node000001"><a xlink:href="classllvm_1_1SmallVectorTemplateCommon.html" target="_top" xlink:title=" ">
<polygon fill="white" stroke="#666666" points="352.25,-85.12 196,-85.12 196,-43.38 352.25,-43.38 352.25,-85.12"/>
<text xml:space="preserve" text-anchor="start" x="204" y="-71.62" font-family="Helvetica,sans-Serif" font-size="10.00">llvm::SmallVectorTemplate</text>
<text xml:space="preserve" text-anchor="start" x="204" y="-60.38" font-family="Helvetica,sans-Serif" font-size="10.00">Common&lt; llvm::InstructionBuild</text>
<text xml:space="preserve" text-anchor="middle" x="274.12" y="-49.12" font-family="Helvetica,sans-Serif" font-size="10.00">Steps &gt;</text>
</a>
</g>
</g>
<!-- Node0&#45;&gt;Node1 -->
<g id="edge8562_Node000000_Node000001" class="edge">
<title>Node0&#45;&gt;Node1</title>
<g id="a_edge8562_Node000000_Node000001"><a xlink:title=" ">
<path fill="none" stroke="#63b8ff" d="M171.56,-64.25C179.6,-64.25 187.69,-64.25 195.6,-64.25"/>
<polygon fill="#63b8ff" stroke="#63b8ff" points="171.77,-60.75 161.77,-64.25 171.77,-67.75 171.77,-60.75"/>
</a>
</g>
</g>
<!-- Node2 -->
<g id="Node000002" class="node">
<title>Node2</title>
<g id="a_Node000002"><a xlink:href="classllvm_1_1SmallVectorTemplateBase.html" target="_top" xlink:title=" ">
<polygon fill="white" stroke="#666666" points="561.75,-79.5 388.25,-79.5 388.25,-49 561.75,-49 561.75,-79.5"/>
<text xml:space="preserve" text-anchor="start" x="396.25" y="-66" font-family="Helvetica,sans-Serif" font-size="10.00">llvm::SmallVectorTemplate</text>
<text xml:space="preserve" text-anchor="middle" x="475" y="-54.75" font-family="Helvetica,sans-Serif" font-size="10.00">Base&lt; llvm::InstructionBuildSteps &gt;</text>
</a>
</g>
</g>
<!-- Node1&#45;&gt;Node2 -->
<g id="edge8563_Node000001_Node000002" class="edge">
<title>Node1&#45;&gt;Node2</title>
<g id="a_edge8563_Node000001_Node000002"><a xlink:title=" ">
<path fill="none" stroke="#63b8ff" d="M364.08,-64.25C371.98,-64.25 379.97,-64.25 387.85,-64.25"/>
<polygon fill="#63b8ff" stroke="#63b8ff" points="364.1,-60.75 354.1,-64.25 364.1,-67.75 364.1,-60.75"/>
</a>
</g>
</g>
<!-- Node3 -->
<g id="Node000003" class="node">
<title>Node3</title>
<g id="a_Node000003"><a xlink:href="classllvm_1_1SmallVectorImpl.html" target="_top" xlink:title=" ">
<polygon fill="white" stroke="#666666" points="755.5,-79.5 604.5,-79.5 604.5,-49 755.5,-49 755.5,-79.5"/>
<text xml:space="preserve" text-anchor="start" x="612.5" y="-66" font-family="Helvetica,sans-Serif" font-size="10.00">llvm::SmallVectorImpl</text>
<text xml:space="preserve" text-anchor="middle" x="680" y="-54.75" font-family="Helvetica,sans-Serif" font-size="10.00">&lt; llvm::InstructionBuildSteps &gt;</text>
</a>
</g>
</g>
<!-- Node2&#45;&gt;Node3 -->
<g id="edge8564_Node000002_Node000003" class="edge">
<title>Node2&#45;&gt;Node3</title>
<g id="a_edge8564_Node000002_Node000003"><a xlink:title=" ">
<path fill="none" stroke="#63b8ff" d="M573.59,-64.25C583.82,-64.25 594.1,-64.25 604.02,-64.25"/>
<polygon fill="#63b8ff" stroke="#63b8ff" points="573.6,-60.75 563.6,-64.25 573.6,-67.75 573.6,-60.75"/>
</a>
</g>
</g>
<!-- Node4 -->
<g id="Node000004" class="node">
<title>Node4</title>
<g id="a_Node000004"><a xlink:href="classllvm_1_1SmallVector.html" target="_top" xlink:title=" ">
<polygon fill="white" stroke="#666666" points="954.5,-54.5 798.25,-54.5 798.25,-24 954.5,-24 954.5,-54.5"/>
<text xml:space="preserve" text-anchor="start" x="806.25" y="-41" font-family="Helvetica,sans-Serif" font-size="10.00">llvm::SmallVector&lt;</text>
<text xml:space="preserve" text-anchor="middle" x="876.38" y="-29.75" font-family="Helvetica,sans-Serif" font-size="10.00"> llvm::InstructionBuildSteps, 2 &gt;</text>
</a>
</g>
</g>
<!-- Node3&#45;&gt;Node4 -->
<g id="edge8565_Node000003_Node000004" class="edge">
<title>Node3&#45;&gt;Node4</title>
<g id="a_edge8565_Node000003_Node000004"><a xlink:title=" ">
<path fill="none" stroke="#63b8ff" d="M766.98,-53.19C777.29,-51.86 787.78,-50.52 797.97,-49.21"/>
<polygon fill="#63b8ff" stroke="#63b8ff" points="766.85,-49.68 757.37,-54.43 767.74,-56.62 766.85,-49.68"/>
</a>
</g>
</g>
<!-- Node5 -->
<g id="Node000005" class="node">
<title>Node5</title>
<g id="a_Node000005"><a xlink:href="structllvm_1_1SmallVectorStorage.html" target="_top" xlink:title=" ">
<polygon fill="white" stroke="#666666" points="762.25,-30.5 597.75,-30.5 597.75,0 762.25,0 762.25,-30.5"/>
<text xml:space="preserve" text-anchor="start" x="605.75" y="-17" font-family="Helvetica,sans-Serif" font-size="10.00">llvm::SmallVectorStorage</text>
<text xml:space="preserve" text-anchor="middle" x="680" y="-5.75" font-family="Helvetica,sans-Serif" font-size="10.00">&lt; llvm::InstructionBuildSteps, N &gt;</text>
</a>
</g>
</g>
<!-- Node5&#45;&gt;Node4 -->
<g id="edge8566_Node000005_Node000004" class="edge">
<title>Node5&#45;&gt;Node4</title>
<g id="a_edge8566_Node000005_Node000004"><a xlink:title=" ">
<path fill="none" stroke="#8b1a1a" d="M773.94,-26.73C782.01,-27.72 790.11,-28.72 798.03,-29.7"/>
<polygon fill="#8b1a1a" stroke="#8b1a1a" points="774.44,-23.26 764.09,-25.51 773.59,-30.21 774.44,-23.26"/>
</a>
</g>
</g>
</g>
</svg>
