<?xml version="1.0" encoding="UTF-8" standalone="no"?>
<!DOCTYPE svg PUBLIC "-//W3C//DTD SVG 1.1//EN"
 "http://www.w3.org/Graphics/SVG/1.1/DTD/svg11.dtd">
<!-- Generated by graphviz version 13.1.2 (20250808.2320)
 -->
<!-- Title: Graphical Class Hierarchy Pages: 1 -->
<svg width="487pt" height="262pt"
 viewBox="0.00 0.00 487.00 262.00" xmlns="http://www.w3.org/2000/svg" xmlns:xlink="http://www.w3.org/1999/xlink">
<g id="graph0" class="graph" transform="scale(1 1) rotate(0) translate(4 258.38)">
<title>Graphical Class Hierarchy</title>
<!-- Node0 -->
<g id="Node000000" class="node">
<title>Node0</title>
<g id="a_Node000000"><a xlink:title=" ">
<polygon fill="#e0e0e0" stroke="#999999" points="102.25,-142.12 0,-142.12 0,-122.88 102.25,-122.88 102.25,-142.12"/>
<text xml:space="preserve" text-anchor="middle" x="51.12" y="-128.62" font-family="Helvetica,sans-Serif" font-size="10.00">std::unordered_map</text>
</a>
</g>
</g>
<!-- Node1 -->
<g id="Node000001" class="node">
<title>Node1</title>
<g id="a_Node000001"><a xlink:href="classllvm_1_1sampleprof_1_1HashKeyMap.html" target="_top" xlink:title=" ">
<polygon fill="white" stroke="#666666" points="315.5,-254.38 138.25,-254.38 138.25,-212.62 315.5,-212.62 315.5,-254.38"/>
<text xml:space="preserve" text-anchor="start" x="146.25" y="-240.88" font-family="Helvetica,sans-Serif" font-size="10.00">llvm::sampleprof::HashKey</text>
<text xml:space="preserve" text-anchor="start" x="146.25" y="-229.62" font-family="Helvetica,sans-Serif" font-size="10.00">Map&lt; std::unordered_map,</text>
<text xml:space="preserve" text-anchor="middle" x="226.88" y="-218.38" font-family="Helvetica,sans-Serif" font-size="10.00"> SampleContext, FunctionSamples &gt;</text>
</a>
</g>
</g>
<!-- Node0&#45;&gt;Node1 -->
<g id="edge11117_Node000000_Node000001" class="edge">
<title>Node0&#45;&gt;Node1</title>
<g id="a_edge11117_Node000000_Node000001"><a xlink:title=" ">
<path fill="none" stroke="#63b8ff" d="M69.63,-150.6C86.05,-166.69 111.96,-189.86 138.25,-204.5 143.29,-207.31 148.65,-209.9 154.13,-212.28"/>
<polygon fill="#63b8ff" stroke="#63b8ff" points="72.15,-148.17 62.61,-143.56 67.19,-153.12 72.15,-148.17"/>
</a>
</g>
</g>
<!-- Node3 -->
<g id="Node000003" class="node">
<title>Node3</title>
<g id="a_Node000003"><a xlink:href="classllvm_1_1sampleprof_1_1HashKeyMap.html" target="_top" xlink:title=" ">
<polygon fill="white" stroke="#666666" points="299.75,-195 154,-195 154,-142 299.75,-142 299.75,-195"/>
<text xml:space="preserve" text-anchor="start" x="162" y="-181.5" font-family="Helvetica,sans-Serif" font-size="10.00">llvm::sampleprof::HashKey</text>
<text xml:space="preserve" text-anchor="start" x="162" y="-170.25" font-family="Helvetica,sans-Serif" font-size="10.00">Map&lt; std::unordered_map,</text>
<text xml:space="preserve" text-anchor="start" x="162" y="-159" font-family="Helvetica,sans-Serif" font-size="10.00"> llvm::sampleprof::FunctionId,</text>
<text xml:space="preserve" text-anchor="middle" x="226.88" y="-147.75" font-family="Helvetica,sans-Serif" font-size="10.00"> ContextSamplesTy &gt;</text>
</a>
</g>
</g>
<!-- Node0&#45;&gt;Node3 -->
<g id="edge11119_Node000000_Node000003" class="edge">
<title>Node0&#45;&gt;Node3</title>
<g id="a_edge11119_Node000000_Node000003"><a xlink:title=" ">
<path fill="none" stroke="#63b8ff" d="M112.01,-144.91C125.44,-147.69 139.83,-150.67 153.71,-153.55"/>
<polygon fill="#63b8ff" stroke="#63b8ff" points="112.97,-141.53 102.47,-142.93 111.55,-148.39 112.97,-141.53"/>
</a>
</g>
</g>
<!-- Node4 -->
<g id="Node000004" class="node">
<title>Node4</title>
<g id="a_Node000004"><a xlink:href="classllvm_1_1sampleprof_1_1HashKeyMap.html" target="_top" xlink:title=" ">
<polygon fill="white" stroke="#666666" points="302.75,-124 151,-124 151,-71 302.75,-71 302.75,-124"/>
<text xml:space="preserve" text-anchor="start" x="159" y="-110.5" font-family="Helvetica,sans-Serif" font-size="10.00">llvm::sampleprof::HashKey</text>
<text xml:space="preserve" text-anchor="start" x="159" y="-99.25" font-family="Helvetica,sans-Serif" font-size="10.00">Map&lt; std::unordered_map,</text>
<text xml:space="preserve" text-anchor="start" x="159" y="-88" font-family="Helvetica,sans-Serif" font-size="10.00"> llvm::sampleprof::FunctionId,</text>
<text xml:space="preserve" text-anchor="middle" x="226.88" y="-76.75" font-family="Helvetica,sans-Serif" font-size="10.00"> llvm::sampleprof::FunctionId &gt;</text>
</a>
</g>
</g>
<!-- Node0&#45;&gt;Node4 -->
<g id="edge11120_Node000000_Node000004" class="edge">
<title>Node0&#45;&gt;Node4</title>
<g id="a_edge11120_Node000000_Node000004"><a xlink:title=" ">
<path fill="none" stroke="#63b8ff" d="M113.59,-120.12C125.53,-117.71 138.18,-115.17 150.51,-112.68"/>
<polygon fill="#63b8ff" stroke="#63b8ff" points="112.98,-116.67 103.86,-122.08 114.36,-123.53 112.98,-116.67"/>
</a>
</g>
</g>
<!-- Node5 -->
<g id="Node000005" class="node">
<title>Node5</title>
<g id="a_Node000005"><a xlink:href="classllvm_1_1sampleprof_1_1HashKeyMap.html" target="_top" xlink:title=" ">
<polygon fill="white" stroke="#666666" points="299.75,-53 154,-53 154,0 299.75,0 299.75,-53"/>
<text xml:space="preserve" text-anchor="start" x="162" y="-39.5" font-family="Helvetica,sans-Serif" font-size="10.00">llvm::sampleprof::HashKey</text>
<text xml:space="preserve" text-anchor="start" x="162" y="-28.25" font-family="Helvetica,sans-Serif" font-size="10.00">Map&lt; std::unordered_map,</text>
<text xml:space="preserve" text-anchor="start" x="162" y="-17" font-family="Helvetica,sans-Serif" font-size="10.00"> llvm::sampleprof::FunctionId,</text>
<text xml:space="preserve" text-anchor="middle" x="226.88" y="-5.75" font-family="Helvetica,sans-Serif" font-size="10.00"> llvm::Function * &gt;</text>
</a>
</g>
</g>
<!-- Node0&#45;&gt;Node5 -->
<g id="edge11121_Node000000_Node000005" class="edge">
<title>Node0&#45;&gt;Node5</title>
<g id="a_edge11121_Node000000_Node000005"><a xlink:title=" ">
<path fill="none" stroke="#63b8ff" d="M70.52,-114.85C87.19,-99.54 112.95,-77.53 138.25,-62.5 143.62,-59.31 149.33,-56.27 155.16,-53.41"/>
<polygon fill="#63b8ff" stroke="#63b8ff" points="68.27,-112.16 63.36,-121.55 73.05,-117.27 68.27,-112.16"/>
</a>
</g>
</g>
<!-- Node2 -->
<g id="Node000002" class="node">
<title>Node2</title>
<g id="a_Node000002"><a xlink:href="classllvm_1_1sampleprof_1_1SampleProfileMap.html" target="_top" xlink:title="This class provides operator overloads to the map container using MD5 as the key type,...">
<polygon fill="white" stroke="#666666" points="478.5,-248.75 351.5,-248.75 351.5,-218.25 478.5,-218.25 478.5,-248.75"/>
<text xml:space="preserve" text-anchor="start" x="359.5" y="-235.25" font-family="Helvetica,sans-Serif" font-size="10.00">llvm::sampleprof::Sample</text>
<text xml:space="preserve" text-anchor="middle" x="415" y="-224" font-family="Helvetica,sans-Serif" font-size="10.00">ProfileMap</text>
</a>
</g>
</g>
<!-- Node1&#45;&gt;Node2 -->
<g id="edge11118_Node000001_Node000002" class="edge">
<title>Node1&#45;&gt;Node2</title>
<g id="a_edge11118_Node000001_Node000002"><a xlink:title=" ">
<path fill="none" stroke="#63b8ff" d="M327.26,-233.5C335.37,-233.5 343.43,-233.5 351.17,-233.5"/>
<polygon fill="#63b8ff" stroke="#63b8ff" points="327.27,-230 317.27,-233.5 327.27,-237 327.27,-230"/>
</a>
</g>
</g>
</g>
</svg>
