<?xml version="1.0" encoding="UTF-8" standalone="no"?>
<!DOCTYPE svg PUBLIC "-//W3C//DTD SVG 1.1//EN"
 "http://www.w3.org/Graphics/SVG/1.1/DTD/svg11.dtd">
<!-- Generated by graphviz version 13.1.2 (20250808.2320)
 -->
<!-- Title: Graphical Class Hierarchy Pages: 1 -->
<svg width="822pt" height="115pt"
 viewBox="0.00 0.00 822.00 115.00" xmlns="http://www.w3.org/2000/svg" xmlns:xlink="http://www.w3.org/1999/xlink">
<g id="graph0" class="graph" transform="scale(1 1) rotate(0) translate(4 111.38)">
<title>Graphical Class Hierarchy</title>
<!-- Node0 -->
<g id="Node000000" class="node">
<title>Node0</title>
<g id="a_Node000000"><a xlink:href="classllvm_1_1SmallVectorBase.html" target="_top" xlink:title=" ">
<polygon fill="white" stroke="#666666" points="121.75,-107.38 0,-107.38 0,-54.38 121.75,-54.38 121.75,-107.38"/>
<text xml:space="preserve" text-anchor="start" x="8" y="-93.88" font-family="Helvetica,sans-Serif" font-size="10.00">llvm::SmallVectorBase</text>
<text xml:space="preserve" text-anchor="start" x="8" y="-82.62" font-family="Helvetica,sans-Serif" font-size="10.00">&lt; SmallVectorSizeType</text>
<text xml:space="preserve" text-anchor="start" x="8" y="-71.38" font-family="Helvetica,sans-Serif" font-size="10.00">&lt; SPIRV::InstructionSet</text>
<text xml:space="preserve" text-anchor="middle" x="60.88" y="-60.12" font-family="Helvetica,sans-Serif" font-size="10.00">::InstructionSet &gt; &gt;</text>
</a>
</g>
</g>
<!-- Node1 -->
<g id="Node000001" class="node">
<title>Node1</title>
<g id="a_Node000001"><a xlink:href="classllvm_1_1SmallVectorTemplateCommon.html" target="_top" xlink:title=" ">
<polygon fill="white" stroke="#666666" points="319.25,-101.75 157.75,-101.75 157.75,-60 319.25,-60 319.25,-101.75"/>
<text xml:space="preserve" text-anchor="start" x="165.75" y="-88.25" font-family="Helvetica,sans-Serif" font-size="10.00">llvm::SmallVectorTemplate</text>
<text xml:space="preserve" text-anchor="start" x="165.75" y="-77" font-family="Helvetica,sans-Serif" font-size="10.00">Common&lt; SPIRV::InstructionSet</text>
<text xml:space="preserve" text-anchor="middle" x="238.5" y="-65.75" font-family="Helvetica,sans-Serif" font-size="10.00">::InstructionSet &gt;</text>
</a>
</g>
</g>
<!-- Node0&#45;&gt;Node1 -->
<g id="edge9454_Node000000_Node000001" class="edge">
<title>Node0&#45;&gt;Node1</title>
<g id="a_edge9454_Node000000_Node000001"><a xlink:title=" ">
<path fill="none" stroke="#63b8ff" d="M133.27,-80.88C141.19,-80.88 149.3,-80.88 157.32,-80.88"/>
<polygon fill="#63b8ff" stroke="#63b8ff" points="133.34,-77.38 123.34,-80.88 133.34,-84.38 133.34,-77.38"/>
</a>
</g>
</g>
<!-- Node2 -->
<g id="Node000002" class="node">
<title>Node2</title>
<g id="a_Node000002"><a xlink:href="classllvm_1_1SmallVectorTemplateBase.html" target="_top" xlink:title=" ">
<polygon fill="white" stroke="#666666" points="499.5,-101.75 355.25,-101.75 355.25,-60 499.5,-60 499.5,-101.75"/>
<text xml:space="preserve" text-anchor="start" x="363.25" y="-88.25" font-family="Helvetica,sans-Serif" font-size="10.00">llvm::SmallVectorTemplate</text>
<text xml:space="preserve" text-anchor="start" x="363.25" y="-77" font-family="Helvetica,sans-Serif" font-size="10.00">Base&lt; SPIRV::InstructionSet</text>
<text xml:space="preserve" text-anchor="middle" x="427.38" y="-65.75" font-family="Helvetica,sans-Serif" font-size="10.00">::InstructionSet &gt;</text>
</a>
</g>
</g>
<!-- Node1&#45;&gt;Node2 -->
<g id="edge9455_Node000001_Node000002" class="edge">
<title>Node1&#45;&gt;Node2</title>
<g id="a_edge9455_Node000001_Node000002"><a xlink:title=" ">
<path fill="none" stroke="#63b8ff" d="M330.96,-80.88C339.04,-80.88 347.15,-80.88 355.03,-80.88"/>
<polygon fill="#63b8ff" stroke="#63b8ff" points="331.08,-77.38 321.08,-80.88 331.08,-84.38 331.08,-77.38"/>
</a>
</g>
</g>
<!-- Node3 -->
<g id="Node000003" class="node">
<title>Node3</title>
<g id="a_Node000003"><a xlink:href="classllvm_1_1SmallVectorImpl.html" target="_top" xlink:title=" ">
<polygon fill="white" stroke="#666666" points="659.88,-101.75 538.12,-101.75 538.12,-60 659.88,-60 659.88,-101.75"/>
<text xml:space="preserve" text-anchor="start" x="546.12" y="-88.25" font-family="Helvetica,sans-Serif" font-size="10.00">llvm::SmallVectorImpl</text>
<text xml:space="preserve" text-anchor="start" x="546.12" y="-77" font-family="Helvetica,sans-Serif" font-size="10.00">&lt; SPIRV::InstructionSet</text>
<text xml:space="preserve" text-anchor="middle" x="599" y="-65.75" font-family="Helvetica,sans-Serif" font-size="10.00">::InstructionSet &gt;</text>
</a>
</g>
</g>
<!-- Node2&#45;&gt;Node3 -->
<g id="edge9456_Node000002_Node000003" class="edge">
<title>Node2&#45;&gt;Node3</title>
<g id="a_edge9456_Node000002_Node000003"><a xlink:title=" ">
<path fill="none" stroke="#63b8ff" d="M511.1,-80.88C520.05,-80.88 529.03,-80.88 537.64,-80.88"/>
<polygon fill="#63b8ff" stroke="#63b8ff" points="511.33,-77.38 501.33,-80.88 511.33,-84.38 511.33,-77.38"/>
</a>
</g>
</g>
<!-- Node4 -->
<g id="Node000004" class="node">
<title>Node4</title>
<g id="a_Node000004"><a xlink:href="classllvm_1_1SmallVector.html" target="_top" xlink:title=" ">
<polygon fill="white" stroke="#666666" points="814.25,-71.75 698.5,-71.75 698.5,-30 814.25,-30 814.25,-71.75"/>
<text xml:space="preserve" text-anchor="start" x="706.5" y="-58.25" font-family="Helvetica,sans-Serif" font-size="10.00">llvm::SmallVector&lt;</text>
<text xml:space="preserve" text-anchor="start" x="706.5" y="-47" font-family="Helvetica,sans-Serif" font-size="10.00"> SPIRV::InstructionSet</text>
<text xml:space="preserve" text-anchor="middle" x="756.38" y="-35.75" font-family="Helvetica,sans-Serif" font-size="10.00">::InstructionSet, N &gt;</text>
</a>
</g>
</g>
<!-- Node3&#45;&gt;Node4 -->
<g id="edge9457_Node000003_Node000004" class="edge">
<title>Node3&#45;&gt;Node4</title>
<g id="a_edge9457_Node000003_Node000004"><a xlink:title=" ">
<path fill="none" stroke="#63b8ff" d="M671.31,-67.11C680.26,-65.38 689.32,-63.63 698.01,-61.95"/>
<polygon fill="#63b8ff" stroke="#63b8ff" points="670.71,-63.66 661.56,-68.99 672.04,-70.53 670.71,-63.66"/>
</a>
</g>
</g>
<!-- Node5 -->
<g id="Node000005" class="node">
<title>Node5</title>
<g id="a_Node000005"><a xlink:href="structllvm_1_1SmallVectorStorage.html" target="_top" xlink:title=" ">
<polygon fill="white" stroke="#666666" points="662.5,-41.75 535.5,-41.75 535.5,0 662.5,0 662.5,-41.75"/>
<text xml:space="preserve" text-anchor="start" x="543.5" y="-28.25" font-family="Helvetica,sans-Serif" font-size="10.00">llvm::SmallVectorStorage</text>
<text xml:space="preserve" text-anchor="start" x="543.5" y="-17" font-family="Helvetica,sans-Serif" font-size="10.00">&lt; SPIRV::InstructionSet</text>
<text xml:space="preserve" text-anchor="middle" x="599" y="-5.75" font-family="Helvetica,sans-Serif" font-size="10.00">::InstructionSet, N &gt;</text>
</a>
</g>
</g>
<!-- Node5&#45;&gt;Node4 -->
<g id="edge9458_Node000005_Node000004" class="edge">
<title>Node5&#45;&gt;Node4</title>
<g id="a_edge9458_Node000005_Node000004"><a xlink:title=" ">
<path fill="none" stroke="#8b1a1a" d="M673.91,-35.15C682.14,-36.74 690.43,-38.34 698.41,-39.88"/>
<polygon fill="#8b1a1a" stroke="#8b1a1a" points="674.72,-31.74 664.24,-33.28 673.39,-38.61 674.72,-31.74"/>
</a>
</g>
</g>
</g>
</svg>
