<?xml version="1.0" encoding="UTF-8" standalone="no"?>
<!DOCTYPE svg PUBLIC "-//W3C//DTD SVG 1.1//EN"
 "http://www.w3.org/Graphics/SVG/1.1/DTD/svg11.dtd">
<!-- Generated by graphviz version 13.1.2 (20250808.2320)
 -->
<!-- Title: Graphical Class Hierarchy Pages: 1 -->
<svg width="675pt" height="872pt"
 viewBox="0.00 0.00 675.00 872.00" xmlns="http://www.w3.org/2000/svg" xmlns:xlink="http://www.w3.org/1999/xlink">
<g id="graph0" class="graph" transform="scale(1 1) rotate(0) translate(4 867.5)">
<title>Graphical Class Hierarchy</title>
<!-- Node0 -->
<g id="Node000000" class="node">
<title>Node0</title>
<g id="a_Node000000"><a xlink:href="classllvm_1_1logicalview_1_1LVObject.html" target="_top" xlink:title=" ">
<polygon fill="white" stroke="#666666" points="94,-226.5 0,-226.5 0,-196 94,-196 94,-226.5"/>
<text xml:space="preserve" text-anchor="start" x="8" y="-213" font-family="Helvetica,sans-Serif" font-size="10.00">llvm::logicalview::</text>
<text xml:space="preserve" text-anchor="middle" x="47" y="-201.75" font-family="Helvetica,sans-Serif" font-size="10.00">LVObject</text>
</a>
</g>
</g>
<!-- Node1 -->
<g id="Node000001" class="node">
<title>Node1</title>
<g id="a_Node000001"><a xlink:href="classllvm_1_1logicalview_1_1LVElement.html" target="_top" xlink:title=" ">
<polygon fill="white" stroke="#666666" points="224,-348.5 130,-348.5 130,-318 224,-318 224,-348.5"/>
<text xml:space="preserve" text-anchor="start" x="138" y="-335" font-family="Helvetica,sans-Serif" font-size="10.00">llvm::logicalview::</text>
<text xml:space="preserve" text-anchor="middle" x="177" y="-323.75" font-family="Helvetica,sans-Serif" font-size="10.00">LVElement</text>
</a>
</g>
</g>
<!-- Node0&#45;&gt;Node1 -->
<g id="edge4208_Node000000_Node000001" class="edge">
<title>Node0&#45;&gt;Node1</title>
<g id="a_edge4208_Node000000_Node000001"><a xlink:title=" ">
<path fill="none" stroke="#63b8ff" d="M72.58,-234.68C98.17,-259.07 137.54,-296.6 159.59,-317.61"/>
<polygon fill="#63b8ff" stroke="#63b8ff" points="75.22,-232.36 65.57,-227.99 70.39,-237.43 75.22,-232.36"/>
</a>
</g>
</g>
<!-- Node26 -->
<g id="Node000026" class="node">
<title>Node26</title>
<g id="a_Node000026"><a xlink:href="classllvm_1_1logicalview_1_1LVLocation.html" target="_top" xlink:title=" ">
<polygon fill="white" stroke="#666666" points="224,-226.5 130,-226.5 130,-196 224,-196 224,-226.5"/>
<text xml:space="preserve" text-anchor="start" x="138" y="-213" font-family="Helvetica,sans-Serif" font-size="10.00">llvm::logicalview::</text>
<text xml:space="preserve" text-anchor="middle" x="177" y="-201.75" font-family="Helvetica,sans-Serif" font-size="10.00">LVLocation</text>
</a>
</g>
</g>
<!-- Node0&#45;&gt;Node26 -->
<g id="edge4233_Node000000_Node000026" class="edge">
<title>Node0&#45;&gt;Node26</title>
<g id="a_edge4233_Node000000_Node000026"><a xlink:title=" ">
<path fill="none" stroke="#63b8ff" d="M105.56,-211.25C113.7,-211.25 121.97,-211.25 129.86,-211.25"/>
<polygon fill="#63b8ff" stroke="#63b8ff" points="105.72,-207.75 95.72,-211.25 105.72,-214.75 105.72,-207.75"/>
</a>
</g>
</g>
<!-- Node28 -->
<g id="Node000028" class="node">
<title>Node28</title>
<g id="a_Node000028"><a xlink:href="classllvm_1_1logicalview_1_1LVRange.html" target="_top" xlink:title=" ">
<polygon fill="white" stroke="#666666" points="224,-177.5 130,-177.5 130,-147 224,-147 224,-177.5"/>
<text xml:space="preserve" text-anchor="start" x="138" y="-164" font-family="Helvetica,sans-Serif" font-size="10.00">llvm::logicalview::</text>
<text xml:space="preserve" text-anchor="middle" x="177" y="-152.75" font-family="Helvetica,sans-Serif" font-size="10.00">LVRange</text>
</a>
</g>
</g>
<!-- Node0&#45;&gt;Node28 -->
<g id="edge4235_Node000000_Node000028" class="edge">
<title>Node0&#45;&gt;Node28</title>
<g id="a_edge4235_Node000000_Node000028"><a xlink:title=" ">
<path fill="none" stroke="#63b8ff" d="M99.51,-191.53C111.35,-187 123.78,-182.24 135.1,-177.91"/>
<polygon fill="#63b8ff" stroke="#63b8ff" points="98.35,-188.23 90.27,-195.07 100.86,-194.76 98.35,-188.23"/>
</a>
</g>
</g>
<!-- Node2 -->
<g id="Node000002" class="node">
<title>Node2</title>
<g id="a_Node000002"><a xlink:href="classllvm_1_1logicalview_1_1LVLine.html" target="_top" xlink:title=" ">
<polygon fill="white" stroke="#666666" points="355.5,-814.5 261.5,-814.5 261.5,-784 355.5,-784 355.5,-814.5"/>
<text xml:space="preserve" text-anchor="start" x="269.5" y="-801" font-family="Helvetica,sans-Serif" font-size="10.00">llvm::logicalview::</text>
<text xml:space="preserve" text-anchor="middle" x="308.5" y="-789.75" font-family="Helvetica,sans-Serif" font-size="10.00">LVLine</text>
</a>
</g>
</g>
<!-- Node1&#45;&gt;Node2 -->
<g id="edge4209_Node000001_Node000002" class="edge">
<title>Node1&#45;&gt;Node2</title>
<g id="a_edge4209_Node000001_Node000002"><a xlink:title=" ">
<path fill="none" stroke="#63b8ff" d="M185.33,-359.61C209.2,-445.54 284.32,-715.85 303.18,-783.69"/>
<polygon fill="#63b8ff" stroke="#63b8ff" points="188.76,-358.91 182.71,-350.21 182.02,-360.78 188.76,-358.91"/>
</a>
</g>
</g>
<!-- Node5 -->
<g id="Node000005" class="node">
<title>Node5</title>
<g id="a_Node000005"><a xlink:href="classllvm_1_1logicalview_1_1LVScope.html" target="_top" xlink:title=" ">
<polygon fill="white" stroke="#666666" points="355.5,-495.5 261.5,-495.5 261.5,-465 355.5,-465 355.5,-495.5"/>
<text xml:space="preserve" text-anchor="start" x="269.5" y="-482" font-family="Helvetica,sans-Serif" font-size="10.00">llvm::logicalview::</text>
<text xml:space="preserve" text-anchor="middle" x="308.5" y="-470.75" font-family="Helvetica,sans-Serif" font-size="10.00">LVScope</text>
</a>
</g>
</g>
<!-- Node1&#45;&gt;Node5 -->
<g id="edge4212_Node000001_Node000005" class="edge">
<title>Node1&#45;&gt;Node5</title>
<g id="a_edge4212_Node000001_Node000005"><a xlink:title=" ">
<path fill="none" stroke="#63b8ff" d="M199.2,-357.31C225.93,-387.65 271.12,-438.96 293.74,-464.63"/>
<polygon fill="#63b8ff" stroke="#63b8ff" points="202.1,-355.31 192.86,-350.12 196.84,-359.93 202.1,-355.31"/>
</a>
</g>
</g>
<!-- Node19 -->
<g id="Node000019" class="node">
<title>Node19</title>
<g id="a_Node000019"><a xlink:href="classllvm_1_1logicalview_1_1LVSymbol.html" target="_top" xlink:title=" ">
<polygon fill="white" stroke="#666666" points="355.5,-348.5 261.5,-348.5 261.5,-318 355.5,-318 355.5,-348.5"/>
<text xml:space="preserve" text-anchor="start" x="269.5" y="-335" font-family="Helvetica,sans-Serif" font-size="10.00">llvm::logicalview::</text>
<text xml:space="preserve" text-anchor="middle" x="308.5" y="-323.75" font-family="Helvetica,sans-Serif" font-size="10.00">LVSymbol</text>
</a>
</g>
</g>
<!-- Node1&#45;&gt;Node19 -->
<g id="edge4226_Node000001_Node000019" class="edge">
<title>Node1&#45;&gt;Node19</title>
<g id="a_edge4226_Node000001_Node000019"><a xlink:title=" ">
<path fill="none" stroke="#63b8ff" d="M235.75,-333.25C244.2,-333.25 252.82,-333.25 261,-333.25"/>
<polygon fill="#63b8ff" stroke="#63b8ff" points="235.9,-329.75 225.9,-333.25 235.9,-336.75 235.9,-329.75"/>
</a>
</g>
</g>
<!-- Node20 -->
<g id="Node000020" class="node">
<title>Node20</title>
<g id="a_Node000020"><a xlink:href="classllvm_1_1logicalview_1_1LVType.html" target="_top" xlink:title=" ">
<polygon fill="white" stroke="#666666" points="355.5,-177.5 261.5,-177.5 261.5,-147 355.5,-147 355.5,-177.5"/>
<text xml:space="preserve" text-anchor="start" x="269.5" y="-164" font-family="Helvetica,sans-Serif" font-size="10.00">llvm::logicalview::</text>
<text xml:space="preserve" text-anchor="middle" x="308.5" y="-152.75" font-family="Helvetica,sans-Serif" font-size="10.00">LVType</text>
</a>
</g>
</g>
<!-- Node1&#45;&gt;Node20 -->
<g id="edge4227_Node000001_Node000020" class="edge">
<title>Node1&#45;&gt;Node20</title>
<g id="a_edge4227_Node000001_Node000020"><a xlink:title=" ">
<path fill="none" stroke="#63b8ff" d="M196.4,-308.95C223.5,-273.16 273.36,-207.33 295.9,-177.57"/>
<polygon fill="#63b8ff" stroke="#63b8ff" points="193.88,-306.48 190.63,-316.57 199.46,-310.71 193.88,-306.48"/>
</a>
</g>
</g>
<!-- Node3 -->
<g id="Node000003" class="node">
<title>Node3</title>
<g id="a_Node000003"><a xlink:href="classllvm_1_1logicalview_1_1LVLineAssembler.html" target="_top" xlink:title=" ">
<polygon fill="white" stroke="#666666" points="498.62,-863.5 404.62,-863.5 404.62,-833 498.62,-833 498.62,-863.5"/>
<text xml:space="preserve" text-anchor="start" x="412.62" y="-850" font-family="Helvetica,sans-Serif" font-size="10.00">llvm::logicalview::</text>
<text xml:space="preserve" text-anchor="middle" x="451.62" y="-838.75" font-family="Helvetica,sans-Serif" font-size="10.00">LVLineAssembler</text>
</a>
</g>
</g>
<!-- Node2&#45;&gt;Node3 -->
<g id="edge4210_Node000002_Node000003" class="edge">
<title>Node2&#45;&gt;Node3</title>
<g id="a_edge4210_Node000002_Node000003"><a xlink:title=" ">
<path fill="none" stroke="#63b8ff" d="M365.09,-818.55C378.5,-823.21 392.67,-828.13 405.53,-832.59"/>
<polygon fill="#63b8ff" stroke="#63b8ff" points="366.57,-815.36 355.97,-815.39 364.27,-821.97 366.57,-815.36"/>
</a>
</g>
</g>
<!-- Node4 -->
<g id="Node000004" class="node">
<title>Node4</title>
<g id="a_Node000004"><a xlink:href="classllvm_1_1logicalview_1_1LVLineDebug.html" target="_top" xlink:title=" ">
<polygon fill="white" stroke="#666666" points="498.62,-814.5 404.62,-814.5 404.62,-784 498.62,-784 498.62,-814.5"/>
<text xml:space="preserve" text-anchor="start" x="412.62" y="-801" font-family="Helvetica,sans-Serif" font-size="10.00">llvm::logicalview::</text>
<text xml:space="preserve" text-anchor="middle" x="451.62" y="-789.75" font-family="Helvetica,sans-Serif" font-size="10.00">LVLineDebug</text>
</a>
</g>
</g>
<!-- Node2&#45;&gt;Node4 -->
<g id="edge4211_Node000002_Node000004" class="edge">
<title>Node2&#45;&gt;Node4</title>
<g id="a_edge4211_Node000002_Node000004"><a xlink:title=" ">
<path fill="none" stroke="#63b8ff" d="M366.93,-799.25C379.36,-799.25 392.37,-799.25 404.31,-799.25"/>
<polygon fill="#63b8ff" stroke="#63b8ff" points="367.22,-795.75 357.22,-799.25 367.22,-802.75 367.22,-795.75"/>
</a>
</g>
</g>
<!-- Node6 -->
<g id="Node000006" class="node">
<title>Node6</title>
<g id="a_Node000006"><a xlink:href="classllvm_1_1logicalview_1_1LVScopeAggregate.html" target="_top" xlink:title=" ">
<polygon fill="white" stroke="#666666" points="501.25,-765.5 402,-765.5 402,-735 501.25,-735 501.25,-765.5"/>
<text xml:space="preserve" text-anchor="start" x="410" y="-752" font-family="Helvetica,sans-Serif" font-size="10.00">llvm::logicalview::</text>
<text xml:space="preserve" text-anchor="middle" x="451.62" y="-740.75" font-family="Helvetica,sans-Serif" font-size="10.00">LVScopeAggregate</text>
</a>
</g>
</g>
<!-- Node5&#45;&gt;Node6 -->
<g id="edge4213_Node000005_Node000006" class="edge">
<title>Node5&#45;&gt;Node6</title>
<g id="a_edge4213_Node000005_Node000006"><a xlink:title=" ">
<path fill="none" stroke="#63b8ff" d="M311.64,-507.19C316.92,-556.51 334.72,-662.06 393,-725.25 396.33,-728.86 400.26,-731.97 404.5,-734.65"/>
<polygon fill="#63b8ff" stroke="#63b8ff" points="315.14,-507.04 310.69,-497.42 308.17,-507.72 315.14,-507.04"/>
</a>
</g>
</g>
<!-- Node7 -->
<g id="Node000007" class="node">
<title>Node7</title>
<g id="a_Node000007"><a xlink:href="classllvm_1_1logicalview_1_1LVScopeAlias.html" target="_top" xlink:title=" ">
<polygon fill="white" stroke="#666666" points="498.62,-716.5 404.62,-716.5 404.62,-686 498.62,-686 498.62,-716.5"/>
<text xml:space="preserve" text-anchor="start" x="412.62" y="-703" font-family="Helvetica,sans-Serif" font-size="10.00">llvm::logicalview::</text>
<text xml:space="preserve" text-anchor="middle" x="451.62" y="-691.75" font-family="Helvetica,sans-Serif" font-size="10.00">LVScopeAlias</text>
</a>
</g>
</g>
<!-- Node5&#45;&gt;Node7 -->
<g id="edge4214_Node000005_Node000007" class="edge">
<title>Node5&#45;&gt;Node7</title>
<g id="a_edge4214_Node000005_Node000007"><a xlink:title=" ">
<path fill="none" stroke="#63b8ff" d="M314.3,-506.99C323.03,-548.36 345.19,-628.13 393,-676.25 396.54,-679.81 400.66,-682.9 405.05,-685.57"/>
<polygon fill="#63b8ff" stroke="#63b8ff" points="317.78,-506.54 312.4,-497.41 310.92,-507.9 317.78,-506.54"/>
</a>
</g>
</g>
<!-- Node8 -->
<g id="Node000008" class="node">
<title>Node8</title>
<g id="a_Node000008"><a xlink:href="classllvm_1_1logicalview_1_1LVScopeArray.html" target="_top" xlink:title=" ">
<polygon fill="white" stroke="#666666" points="498.62,-667.5 404.62,-667.5 404.62,-637 498.62,-637 498.62,-667.5"/>
<text xml:space="preserve" text-anchor="start" x="412.62" y="-654" font-family="Helvetica,sans-Serif" font-size="10.00">llvm::logicalview::</text>
<text xml:space="preserve" text-anchor="middle" x="451.62" y="-642.75" font-family="Helvetica,sans-Serif" font-size="10.00">LVScopeArray</text>
</a>
</g>
</g>
<!-- Node5&#45;&gt;Node8 -->
<g id="edge4215_Node000005_Node000008" class="edge">
<title>Node5&#45;&gt;Node8</title>
<g id="a_edge4215_Node000005_Node000008"><a xlink:title=" ">
<path fill="none" stroke="#63b8ff" d="M318.46,-506.51C330.69,-538.82 355.46,-593.54 393,-627.25 396.98,-630.82 401.54,-633.94 406.32,-636.65"/>
<polygon fill="#63b8ff" stroke="#63b8ff" points="321.75,-505.32 315.04,-497.12 315.18,-507.72 321.75,-505.32"/>
</a>
</g>
</g>
<!-- Node9 -->
<g id="Node000009" class="node">
<title>Node9</title>
<g id="a_Node000009"><a xlink:href="classllvm_1_1logicalview_1_1LVScopeCompileUnit.html" target="_top" xlink:title=" ">
<polygon fill="white" stroke="#666666" points="506.12,-618.5 397.12,-618.5 397.12,-588 506.12,-588 506.12,-618.5"/>
<text xml:space="preserve" text-anchor="start" x="405.12" y="-605" font-family="Helvetica,sans-Serif" font-size="10.00">llvm::logicalview::</text>
<text xml:space="preserve" text-anchor="middle" x="451.62" y="-593.75" font-family="Helvetica,sans-Serif" font-size="10.00">LVScopeCompileUnit</text>
</a>
</g>
</g>
<!-- Node5&#45;&gt;Node9 -->
<g id="edge4216_Node000005_Node000009" class="edge">
<title>Node5&#45;&gt;Node9</title>
<g id="a_edge4216_Node000005_Node000009"><a xlink:title=" ">
<path fill="none" stroke="#63b8ff" d="M325.68,-504.99C340.9,-526.67 365.42,-557.84 393,-578.25 397.65,-581.69 402.84,-584.78 408.15,-587.51"/>
<polygon fill="#63b8ff" stroke="#63b8ff" points="328.76,-503.29 320.22,-497.01 322.98,-507.24 328.76,-503.29"/>
</a>
</g>
</g>
<!-- Node10 -->
<g id="Node000010" class="node">
<title>Node10</title>
<g id="a_Node000010"><a xlink:href="classllvm_1_1logicalview_1_1LVScopeEnumeration.html" target="_top" xlink:title=" ">
<polygon fill="white" stroke="#666666" points="506.5,-569.5 396.75,-569.5 396.75,-539 506.5,-539 506.5,-569.5"/>
<text xml:space="preserve" text-anchor="start" x="404.75" y="-556" font-family="Helvetica,sans-Serif" font-size="10.00">llvm::logicalview::</text>
<text xml:space="preserve" text-anchor="middle" x="451.62" y="-544.75" font-family="Helvetica,sans-Serif" font-size="10.00">LVScopeEnumeration</text>
</a>
</g>
</g>
<!-- Node5&#45;&gt;Node10 -->
<g id="edge4217_Node000005_Node000010" class="edge">
<title>Node5&#45;&gt;Node10</title>
<g id="a_edge4217_Node000005_Node000010"><a xlink:title=" ">
<path fill="none" stroke="#63b8ff" d="M344.04,-501.79C358.88,-510.71 376.56,-520.9 393,-529.25 399.32,-532.46 406.15,-535.65 412.81,-538.63"/>
<polygon fill="#63b8ff" stroke="#63b8ff" points="345.93,-498.84 335.56,-496.64 342.29,-504.82 345.93,-498.84"/>
</a>
</g>
</g>
<!-- Node11 -->
<g id="Node000011" class="node">
<title>Node11</title>
<g id="a_Node000011"><a xlink:href="classllvm_1_1logicalview_1_1LVScopeFormalPack.html" target="_top" xlink:title=" ">
<polygon fill="white" stroke="#666666" points="505.38,-520.5 397.88,-520.5 397.88,-490 505.38,-490 505.38,-520.5"/>
<text xml:space="preserve" text-anchor="start" x="405.88" y="-507" font-family="Helvetica,sans-Serif" font-size="10.00">llvm::logicalview::</text>
<text xml:space="preserve" text-anchor="middle" x="451.62" y="-495.75" font-family="Helvetica,sans-Serif" font-size="10.00">LVScopeFormalPack</text>
</a>
</g>
</g>
<!-- Node5&#45;&gt;Node11 -->
<g id="edge4218_Node000005_Node000011" class="edge">
<title>Node5&#45;&gt;Node11</title>
<g id="a_edge4218_Node000005_Node000011"><a xlink:title=" ">
<path fill="none" stroke="#63b8ff" d="M366.91,-490.42C377.01,-492.21 387.48,-494.06 397.45,-495.83"/>
<polygon fill="#63b8ff" stroke="#63b8ff" points="367.66,-487 357.2,-488.7 366.44,-493.89 367.66,-487"/>
</a>
</g>
</g>
<!-- Node12 -->
<g id="Node000012" class="node">
<title>Node12</title>
<g id="a_Node000012"><a xlink:href="classllvm_1_1logicalview_1_1LVScopeFunction.html" target="_top" xlink:title=" ">
<polygon fill="white" stroke="#666666" points="498.62,-471.5 404.62,-471.5 404.62,-441 498.62,-441 498.62,-471.5"/>
<text xml:space="preserve" text-anchor="start" x="412.62" y="-458" font-family="Helvetica,sans-Serif" font-size="10.00">llvm::logicalview::</text>
<text xml:space="preserve" text-anchor="middle" x="451.62" y="-446.75" font-family="Helvetica,sans-Serif" font-size="10.00">LVScopeFunction</text>
</a>
</g>
</g>
<!-- Node5&#45;&gt;Node12 -->
<g id="edge4219_Node000005_Node000012" class="edge">
<title>Node5&#45;&gt;Node12</title>
<g id="a_edge4219_Node000005_Node000012"><a xlink:title=" ">
<path fill="none" stroke="#63b8ff" d="M366.93,-470.48C379.36,-468.37 392.37,-466.16 404.31,-464.13"/>
<polygon fill="#63b8ff" stroke="#63b8ff" points="366.47,-467.01 357.2,-472.14 367.65,-473.91 366.47,-467.01"/>
</a>
</g>
</g>
<!-- Node15 -->
<g id="Node000015" class="node">
<title>Node15</title>
<g id="a_Node000015"><a xlink:href="classllvm_1_1logicalview_1_1LVScopeModule.html" target="_top" xlink:title=" ">
<polygon fill="white" stroke="#666666" points="498.62,-422.5 404.62,-422.5 404.62,-392 498.62,-392 498.62,-422.5"/>
<text xml:space="preserve" text-anchor="start" x="412.62" y="-409" font-family="Helvetica,sans-Serif" font-size="10.00">llvm::logicalview::</text>
<text xml:space="preserve" text-anchor="middle" x="451.62" y="-397.75" font-family="Helvetica,sans-Serif" font-size="10.00">LVScopeModule</text>
</a>
</g>
</g>
<!-- Node5&#45;&gt;Node15 -->
<g id="edge4222_Node000005_Node000015" class="edge">
<title>Node5&#45;&gt;Node15</title>
<g id="a_edge4222_Node000005_Node000015"><a xlink:title=" ">
<path fill="none" stroke="#63b8ff" d="M344.75,-458.81C359.46,-450.18 376.85,-440.36 393,-432.25 399.33,-429.07 406.17,-425.89 412.84,-422.92"/>
<polygon fill="#63b8ff" stroke="#63b8ff" points="343.16,-455.69 336.34,-463.8 346.73,-461.71 343.16,-455.69"/>
</a>
</g>
</g>
<!-- Node16 -->
<g id="Node000016" class="node">
<title>Node16</title>
<g id="a_Node000016"><a xlink:href="classllvm_1_1logicalview_1_1LVScopeNamespace.html" target="_top" xlink:title=" ">
<polygon fill="white" stroke="#666666" points="505.38,-373.5 397.88,-373.5 397.88,-343 505.38,-343 505.38,-373.5"/>
<text xml:space="preserve" text-anchor="start" x="405.88" y="-360" font-family="Helvetica,sans-Serif" font-size="10.00">llvm::logicalview::</text>
<text xml:space="preserve" text-anchor="middle" x="451.62" y="-348.75" font-family="Helvetica,sans-Serif" font-size="10.00">LVScopeNamespace</text>
</a>
</g>
</g>
<!-- Node5&#45;&gt;Node16 -->
<g id="edge4223_Node000005_Node000016" class="edge">
<title>Node5&#45;&gt;Node16</title>
<g id="a_edge4223_Node000005_Node000016"><a xlink:title=" ">
<path fill="none" stroke="#63b8ff" d="M326.2,-455.12C341.49,-433.69 365.81,-403.27 393,-383.25 397.74,-379.76 403.05,-376.63 408.47,-373.86"/>
<polygon fill="#63b8ff" stroke="#63b8ff" points="323.34,-453.1 320.5,-463.3 329.09,-457.09 323.34,-453.1"/>
</a>
</g>
</g>
<!-- Node17 -->
<g id="Node000017" class="node">
<title>Node17</title>
<g id="a_Node000017"><a xlink:href="classllvm_1_1logicalview_1_1LVScopeRoot.html" target="_top" xlink:title=" ">
<polygon fill="white" stroke="#666666" points="498.62,-324.5 404.62,-324.5 404.62,-294 498.62,-294 498.62,-324.5"/>
<text xml:space="preserve" text-anchor="start" x="412.62" y="-311" font-family="Helvetica,sans-Serif" font-size="10.00">llvm::logicalview::</text>
<text xml:space="preserve" text-anchor="middle" x="451.62" y="-299.75" font-family="Helvetica,sans-Serif" font-size="10.00">LVScopeRoot</text>
</a>
</g>
</g>
<!-- Node5&#45;&gt;Node17 -->
<g id="edge4224_Node000005_Node000017" class="edge">
<title>Node5&#45;&gt;Node17</title>
<g id="a_edge4224_Node000005_Node000017"><a xlink:title=" ">
<path fill="none" stroke="#63b8ff" d="M318.51,-454.17C330.78,-422.07 355.61,-367.73 393,-334.25 396.98,-330.69 401.55,-327.57 406.33,-324.86"/>
<polygon fill="#63b8ff" stroke="#63b8ff" points="315.25,-452.89 315.08,-463.49 321.82,-455.31 315.25,-452.89"/>
</a>
</g>
</g>
<!-- Node18 -->
<g id="Node000018" class="node">
<title>Node18</title>
<g id="a_Node000018"><a xlink:href="classllvm_1_1logicalview_1_1LVScopeTemplatePack.html" target="_top" xlink:title=" ">
<polygon fill="white" stroke="#666666" points="510.25,-275.5 393,-275.5 393,-245 510.25,-245 510.25,-275.5"/>
<text xml:space="preserve" text-anchor="start" x="401" y="-262" font-family="Helvetica,sans-Serif" font-size="10.00">llvm::logicalview::</text>
<text xml:space="preserve" text-anchor="middle" x="451.62" y="-250.75" font-family="Helvetica,sans-Serif" font-size="10.00">LVScopeTemplatePack</text>
</a>
</g>
</g>
<!-- Node5&#45;&gt;Node18 -->
<g id="edge4225_Node000005_Node000018" class="edge">
<title>Node5&#45;&gt;Node18</title>
<g id="a_edge4225_Node000005_Node000018"><a xlink:title=" ">
<path fill="none" stroke="#63b8ff" d="M319.5,-453.98C338.79,-403.76 380.38,-297.93 393,-285.25 396.54,-281.69 400.67,-278.61 405.06,-275.94"/>
<polygon fill="#63b8ff" stroke="#63b8ff" points="316.26,-452.64 315.96,-463.23 322.8,-455.14 316.26,-452.64"/>
</a>
</g>
</g>
<!-- Node13 -->
<g id="Node000013" class="node">
<title>Node13</title>
<g id="a_Node000013"><a xlink:href="classllvm_1_1logicalview_1_1LVScopeFunctionInlined.html" target="_top" xlink:title=" ">
<polygon fill="white" stroke="#666666" points="667.25,-495.5 546.25,-495.5 546.25,-465 667.25,-465 667.25,-495.5"/>
<text xml:space="preserve" text-anchor="start" x="554.25" y="-482" font-family="Helvetica,sans-Serif" font-size="10.00">llvm::logicalview::</text>
<text xml:space="preserve" text-anchor="middle" x="606.75" y="-470.75" font-family="Helvetica,sans-Serif" font-size="10.00">LVScopeFunctionInlined</text>
</a>
</g>
</g>
<!-- Node12&#45;&gt;Node13 -->
<g id="edge4220_Node000012_Node000013" class="edge">
<title>Node12&#45;&gt;Node13</title>
<g id="a_edge4220_Node000012_Node000013"><a xlink:title=" ">
<path fill="none" stroke="#63b8ff" d="M510,-465.24C521.74,-467.08 534.13,-469.02 545.95,-470.88"/>
<polygon fill="#63b8ff" stroke="#63b8ff" points="510.9,-461.84 500.48,-463.75 509.82,-468.76 510.9,-461.84"/>
</a>
</g>
</g>
<!-- Node14 -->
<g id="Node000014" class="node">
<title>Node14</title>
<g id="a_Node000014"><a xlink:href="classllvm_1_1logicalview_1_1LVScopeFunctionType.html" target="_top" xlink:title=" ">
<polygon fill="white" stroke="#666666" points="663.5,-446.5 550,-446.5 550,-416 663.5,-416 663.5,-446.5"/>
<text xml:space="preserve" text-anchor="start" x="558" y="-433" font-family="Helvetica,sans-Serif" font-size="10.00">llvm::logicalview::</text>
<text xml:space="preserve" text-anchor="middle" x="606.75" y="-421.75" font-family="Helvetica,sans-Serif" font-size="10.00">LVScopeFunctionType</text>
</a>
</g>
</g>
<!-- Node12&#45;&gt;Node14 -->
<g id="edge4221_Node000012_Node000014" class="edge">
<title>Node12&#45;&gt;Node14</title>
<g id="a_edge4221_Node000012_Node000014"><a xlink:title=" ">
<path fill="none" stroke="#63b8ff" d="M510.09,-446.87C523.01,-444.76 536.69,-442.52 549.55,-440.42"/>
<polygon fill="#63b8ff" stroke="#63b8ff" points="509.78,-443.37 500.48,-448.44 510.91,-450.28 509.78,-443.37"/>
</a>
</g>
</g>
<!-- Node21 -->
<g id="Node000021" class="node">
<title>Node21</title>
<g id="a_Node000021"><a xlink:href="classllvm_1_1logicalview_1_1LVTypeDefinition.html" target="_top" xlink:title=" ">
<polygon fill="white" stroke="#666666" points="498.62,-226.5 404.62,-226.5 404.62,-196 498.62,-196 498.62,-226.5"/>
<text xml:space="preserve" text-anchor="start" x="412.62" y="-213" font-family="Helvetica,sans-Serif" font-size="10.00">llvm::logicalview::</text>
<text xml:space="preserve" text-anchor="middle" x="451.62" y="-201.75" font-family="Helvetica,sans-Serif" font-size="10.00">LVTypeDefinition</text>
</a>
</g>
</g>
<!-- Node20&#45;&gt;Node21 -->
<g id="edge4228_Node000020_Node000021" class="edge">
<title>Node20&#45;&gt;Node21</title>
<g id="a_edge4228_Node000020_Node000021"><a xlink:title=" ">
<path fill="none" stroke="#63b8ff" d="M365.09,-181.55C378.5,-186.21 392.67,-191.13 405.53,-195.59"/>
<polygon fill="#63b8ff" stroke="#63b8ff" points="366.57,-178.36 355.97,-178.39 364.27,-184.97 366.57,-178.36"/>
</a>
</g>
</g>
<!-- Node22 -->
<g id="Node000022" class="node">
<title>Node22</title>
<g id="a_Node000022"><a xlink:href="classllvm_1_1logicalview_1_1LVTypeEnumerator.html" target="_top" xlink:title=" ">
<polygon fill="white" stroke="#666666" points="500.88,-177.5 402.38,-177.5 402.38,-147 500.88,-147 500.88,-177.5"/>
<text xml:space="preserve" text-anchor="start" x="410.38" y="-164" font-family="Helvetica,sans-Serif" font-size="10.00">llvm::logicalview::</text>
<text xml:space="preserve" text-anchor="middle" x="451.62" y="-152.75" font-family="Helvetica,sans-Serif" font-size="10.00">LVTypeEnumerator</text>
</a>
</g>
</g>
<!-- Node20&#45;&gt;Node22 -->
<g id="edge4229_Node000020_Node000022" class="edge">
<title>Node20&#45;&gt;Node22</title>
<g id="a_edge4229_Node000020_Node000022"><a xlink:title=" ">
<path fill="none" stroke="#63b8ff" d="M367.06,-162.25C378.62,-162.25 390.66,-162.25 401.88,-162.25"/>
<polygon fill="#63b8ff" stroke="#63b8ff" points="367.22,-158.75 357.22,-162.25 367.22,-165.75 367.22,-158.75"/>
</a>
</g>
</g>
<!-- Node23 -->
<g id="Node000023" class="node">
<title>Node23</title>
<g id="a_Node000023"><a xlink:href="classllvm_1_1logicalview_1_1LVTypeImport.html" target="_top" xlink:title=" ">
<polygon fill="white" stroke="#666666" points="498.62,-128.5 404.62,-128.5 404.62,-98 498.62,-98 498.62,-128.5"/>
<text xml:space="preserve" text-anchor="start" x="412.62" y="-115" font-family="Helvetica,sans-Serif" font-size="10.00">llvm::logicalview::</text>
<text xml:space="preserve" text-anchor="middle" x="451.62" y="-103.75" font-family="Helvetica,sans-Serif" font-size="10.00">LVTypeImport</text>
</a>
</g>
</g>
<!-- Node20&#45;&gt;Node23 -->
<g id="edge4230_Node000020_Node000023" class="edge">
<title>Node20&#45;&gt;Node23</title>
<g id="a_edge4230_Node000020_Node000023"><a xlink:title=" ">
<path fill="none" stroke="#63b8ff" d="M365.09,-142.95C378.5,-138.29 392.67,-133.37 405.53,-128.91"/>
<polygon fill="#63b8ff" stroke="#63b8ff" points="364.27,-139.53 355.97,-146.11 366.57,-146.14 364.27,-139.53"/>
</a>
</g>
</g>
<!-- Node24 -->
<g id="Node000024" class="node">
<title>Node24</title>
<g id="a_Node000024"><a xlink:href="classllvm_1_1logicalview_1_1LVTypeParam.html" target="_top" xlink:title=" ">
<polygon fill="white" stroke="#666666" points="498.62,-79.5 404.62,-79.5 404.62,-49 498.62,-49 498.62,-79.5"/>
<text xml:space="preserve" text-anchor="start" x="412.62" y="-66" font-family="Helvetica,sans-Serif" font-size="10.00">llvm::logicalview::</text>
<text xml:space="preserve" text-anchor="middle" x="451.62" y="-54.75" font-family="Helvetica,sans-Serif" font-size="10.00">LVTypeParam</text>
</a>
</g>
</g>
<!-- Node20&#45;&gt;Node24 -->
<g id="edge4231_Node000020_Node000024" class="edge">
<title>Node20&#45;&gt;Node24</title>
<g id="a_edge4231_Node000020_Node000024"><a xlink:title=" ">
<path fill="none" stroke="#63b8ff" d="M353.13,-140.34C354.47,-139.34 355.76,-138.31 357,-137.25 377.29,-119.95 372.07,-105.77 393,-89.25 397.45,-85.74 402.47,-82.62 407.65,-79.88"/>
<polygon fill="#63b8ff" stroke="#63b8ff" points="351.53,-137.2 345.16,-145.67 355.42,-143.02 351.53,-137.2"/>
</a>
</g>
</g>
<!-- Node25 -->
<g id="Node000025" class="node">
<title>Node25</title>
<g id="a_Node000025"><a xlink:href="classllvm_1_1logicalview_1_1LVTypeSubrange.html" target="_top" xlink:title=" ">
<polygon fill="white" stroke="#666666" points="498.62,-30.5 404.62,-30.5 404.62,0 498.62,0 498.62,-30.5"/>
<text xml:space="preserve" text-anchor="start" x="412.62" y="-17" font-family="Helvetica,sans-Serif" font-size="10.00">llvm::logicalview::</text>
<text xml:space="preserve" text-anchor="middle" x="451.62" y="-5.75" font-family="Helvetica,sans-Serif" font-size="10.00">LVTypeSubrange</text>
</a>
</g>
</g>
<!-- Node20&#45;&gt;Node25 -->
<g id="edge4232_Node000020_Node000025" class="edge">
<title>Node20&#45;&gt;Node25</title>
<g id="a_edge4232_Node000020_Node000025"><a xlink:title=" ">
<path fill="none" stroke="#63b8ff" d="M354.9,-139.49C355.63,-138.76 356.33,-138.02 357,-137.25 387.35,-102.7 361.37,-73.63 393,-40.25 396.38,-36.69 400.34,-33.61 404.59,-30.94"/>
<polygon fill="#63b8ff" stroke="#63b8ff" points="352.98,-136.53 347.47,-145.58 357.42,-141.95 352.98,-136.53"/>
</a>
</g>
</g>
<!-- Node27 -->
<g id="Node000027" class="node">
<title>Node27</title>
<g id="a_Node000027"><a xlink:href="classllvm_1_1logicalview_1_1LVLocationSymbol.html" target="_top" xlink:title=" ">
<polygon fill="white" stroke="#666666" points="357,-128.5 260,-128.5 260,-98 357,-98 357,-128.5"/>
<text xml:space="preserve" text-anchor="start" x="268" y="-115" font-family="Helvetica,sans-Serif" font-size="10.00">llvm::logicalview::</text>
<text xml:space="preserve" text-anchor="middle" x="308.5" y="-103.75" font-family="Helvetica,sans-Serif" font-size="10.00">LVLocationSymbol</text>
</a>
</g>
</g>
<!-- Node26&#45;&gt;Node27 -->
<g id="edge4234_Node000026_Node000027" class="edge">
<title>Node26&#45;&gt;Node27</title>
<g id="a_edge4234_Node000026_Node000027"><a xlink:title=" ">
<path fill="none" stroke="#63b8ff" d="M220.11,-189.4C221.45,-188.38 222.75,-187.33 224,-186.25 244.18,-168.82 239.71,-155.55 260,-138.25 263.97,-134.86 268.48,-131.76 273.1,-128.99"/>
<polygon fill="#63b8ff" stroke="#63b8ff" points="218.39,-186.34 212.08,-194.85 222.32,-192.13 218.39,-186.34"/>
</a>
</g>
</g>
</g>
</svg>
