<?xml version="1.0" encoding="UTF-8" standalone="no"?>
<!DOCTYPE svg PUBLIC "-//W3C//DTD SVG 1.1//EN"
 "http://www.w3.org/Graphics/SVG/1.1/DTD/svg11.dtd">
<!-- Generated by graphviz version 13.1.2 (20250808.2320)
 -->
<!-- Title: Graphical Class Hierarchy Pages: 1 -->
<svg width="801pt" height="115pt"
 viewBox="0.00 0.00 801.00 115.00" xmlns="http://www.w3.org/2000/svg" xmlns:xlink="http://www.w3.org/1999/xlink">
<g id="graph0" class="graph" transform="scale(1 1) rotate(0) translate(4 111.38)">
<title>Graphical Class Hierarchy</title>
<!-- Node0 -->
<g id="Node000000" class="node">
<title>Node0</title>
<g id="a_Node000000"><a xlink:href="classllvm_1_1SmallVectorBase.html" target="_top" xlink:title=" ">
<polygon fill="white" stroke="#666666" points="136,-107.38 0,-107.38 0,-54.38 136,-54.38 136,-107.38"/>
<text xml:space="preserve" text-anchor="start" x="8" y="-93.88" font-family="Helvetica,sans-Serif" font-size="10.00">llvm::SmallVectorBase</text>
<text xml:space="preserve" text-anchor="start" x="8" y="-82.62" font-family="Helvetica,sans-Serif" font-size="10.00">&lt; SmallVectorSizeType</text>
<text xml:space="preserve" text-anchor="start" x="8" y="-71.38" font-family="Helvetica,sans-Serif" font-size="10.00">&lt; llvm::SmallVector&lt; Entry,</text>
<text xml:space="preserve" text-anchor="middle" x="68" y="-60.12" font-family="Helvetica,sans-Serif" font-size="10.00"> 8 &gt; &gt; &gt;</text>
</a>
</g>
</g>
<!-- Node1 -->
<g id="Node000001" class="node">
<title>Node1</title>
<g id="a_Node000001"><a xlink:href="classllvm_1_1SmallVectorTemplateCommon.html" target="_top" xlink:title=" ">
<polygon fill="white" stroke="#666666" points="314,-101.75 172,-101.75 172,-60 314,-60 314,-101.75"/>
<text xml:space="preserve" text-anchor="start" x="180" y="-88.25" font-family="Helvetica,sans-Serif" font-size="10.00">llvm::SmallVectorTemplate</text>
<text xml:space="preserve" text-anchor="start" x="180" y="-77" font-family="Helvetica,sans-Serif" font-size="10.00">Common&lt; llvm::SmallVector</text>
<text xml:space="preserve" text-anchor="middle" x="243" y="-65.75" font-family="Helvetica,sans-Serif" font-size="10.00">&lt; Entry, 8 &gt; &gt;</text>
</a>
</g>
</g>
<!-- Node0&#45;&gt;Node1 -->
<g id="edge9005_Node000000_Node000001" class="edge">
<title>Node0&#45;&gt;Node1</title>
<g id="a_edge9005_Node000000_Node000001"><a xlink:title=" ">
<path fill="none" stroke="#63b8ff" d="M147.62,-80.88C155.64,-80.88 163.74,-80.88 171.66,-80.88"/>
<polygon fill="#63b8ff" stroke="#63b8ff" points="147.9,-77.38 137.9,-80.88 147.9,-84.38 147.9,-77.38"/>
</a>
</g>
</g>
<!-- Node2 -->
<g id="Node000002" class="node">
<title>Node2</title>
<g id="a_Node000002"><a xlink:href="classllvm_1_1SmallVectorTemplateBase.html" target="_top" xlink:title=" ">
<polygon fill="white" stroke="#666666" points="483,-101.75 350,-101.75 350,-60 483,-60 483,-101.75"/>
<text xml:space="preserve" text-anchor="start" x="358" y="-88.25" font-family="Helvetica,sans-Serif" font-size="10.00">llvm::SmallVectorTemplate</text>
<text xml:space="preserve" text-anchor="start" x="358" y="-77" font-family="Helvetica,sans-Serif" font-size="10.00">Base&lt; llvm::SmallVector</text>
<text xml:space="preserve" text-anchor="middle" x="416.5" y="-65.75" font-family="Helvetica,sans-Serif" font-size="10.00">&lt; Entry, 8 &gt; &gt;</text>
</a>
</g>
</g>
<!-- Node1&#45;&gt;Node2 -->
<g id="edge9006_Node000001_Node000002" class="edge">
<title>Node1&#45;&gt;Node2</title>
<g id="a_edge9006_Node000001_Node000002"><a xlink:title=" ">
<path fill="none" stroke="#63b8ff" d="M325.54,-80.88C333.57,-80.88 341.65,-80.88 349.5,-80.88"/>
<polygon fill="#63b8ff" stroke="#63b8ff" points="325.76,-77.38 315.76,-80.88 325.76,-84.38 325.76,-77.38"/>
</a>
</g>
</g>
<!-- Node3 -->
<g id="Node000003" class="node">
<title>Node3</title>
<g id="a_Node000003"><a xlink:href="classllvm_1_1SmallVectorImpl.html" target="_top" xlink:title=" ">
<polygon fill="white" stroke="#666666" points="643,-101.75 531,-101.75 531,-60 643,-60 643,-101.75"/>
<text xml:space="preserve" text-anchor="start" x="539" y="-88.25" font-family="Helvetica,sans-Serif" font-size="10.00">llvm::SmallVectorImpl</text>
<text xml:space="preserve" text-anchor="start" x="539" y="-77" font-family="Helvetica,sans-Serif" font-size="10.00">&lt; llvm::SmallVector&lt;</text>
<text xml:space="preserve" text-anchor="middle" x="587" y="-65.75" font-family="Helvetica,sans-Serif" font-size="10.00"> Entry, 8 &gt; &gt;</text>
</a>
</g>
</g>
<!-- Node2&#45;&gt;Node3 -->
<g id="edge9007_Node000002_Node000003" class="edge">
<title>Node2&#45;&gt;Node3</title>
<g id="a_edge9007_Node000002_Node000003"><a xlink:title=" ">
<path fill="none" stroke="#63b8ff" d="M494.29,-80.88C506.55,-80.88 519.02,-80.88 530.65,-80.88"/>
<polygon fill="#63b8ff" stroke="#63b8ff" points="494.64,-77.38 484.64,-80.88 494.64,-84.38 494.64,-77.38"/>
</a>
</g>
</g>
<!-- Node4 -->
<g id="Node000004" class="node">
<title>Node4</title>
<g id="a_Node000004"><a xlink:href="classllvm_1_1SmallVector.html" target="_top" xlink:title=" ">
<polygon fill="white" stroke="#666666" points="793.25,-71.75 691,-71.75 691,-30 793.25,-30 793.25,-71.75"/>
<text xml:space="preserve" text-anchor="start" x="699" y="-58.25" font-family="Helvetica,sans-Serif" font-size="10.00">llvm::SmallVector&lt;</text>
<text xml:space="preserve" text-anchor="start" x="699" y="-47" font-family="Helvetica,sans-Serif" font-size="10.00"> llvm::SmallVector&lt;</text>
<text xml:space="preserve" text-anchor="middle" x="742.12" y="-35.75" font-family="Helvetica,sans-Serif" font-size="10.00"> Entry, 8 &gt;, 4 &gt;</text>
</a>
</g>
</g>
<!-- Node3&#45;&gt;Node4 -->
<g id="edge9008_Node000003_Node000004" class="edge">
<title>Node3&#45;&gt;Node4</title>
<g id="a_edge9008_Node000003_Node000004"><a xlink:title=" ">
<path fill="none" stroke="#63b8ff" d="M654.29,-67.89C666.43,-65.51 678.92,-63.06 690.51,-60.79"/>
<polygon fill="#63b8ff" stroke="#63b8ff" points="653.91,-64.4 644.77,-69.75 655.25,-71.27 653.91,-64.4"/>
</a>
</g>
</g>
<!-- Node5 -->
<g id="Node000005" class="node">
<title>Node5</title>
<g id="a_Node000005"><a xlink:href="structllvm_1_1SmallVectorStorage.html" target="_top" xlink:title=" ">
<polygon fill="white" stroke="#666666" points="655,-41.75 519,-41.75 519,0 655,0 655,-41.75"/>
<text xml:space="preserve" text-anchor="start" x="527" y="-28.25" font-family="Helvetica,sans-Serif" font-size="10.00">llvm::SmallVectorStorage</text>
<text xml:space="preserve" text-anchor="start" x="527" y="-17" font-family="Helvetica,sans-Serif" font-size="10.00">&lt; llvm::SmallVector&lt; Entry,</text>
<text xml:space="preserve" text-anchor="middle" x="587" y="-5.75" font-family="Helvetica,sans-Serif" font-size="10.00"> 8 &gt;, N &gt;</text>
</a>
</g>
</g>
<!-- Node5&#45;&gt;Node4 -->
<g id="edge9009_Node000005_Node000004" class="edge">
<title>Node5&#45;&gt;Node4</title>
<g id="a_edge9009_Node000005_Node000004"><a xlink:title=" ">
<path fill="none" stroke="#8b1a1a" d="M666.37,-36.23C674.6,-37.84 682.8,-39.45 690.59,-40.97"/>
<polygon fill="#8b1a1a" stroke="#8b1a1a" points="667.13,-32.81 656.65,-34.32 665.79,-39.68 667.13,-32.81"/>
</a>
</g>
</g>
</g>
</svg>
