<?xml version="1.0" encoding="UTF-8" standalone="no"?>
<!DOCTYPE svg PUBLIC "-//W3C//DTD SVG 1.1//EN"
 "http://www.w3.org/Graphics/SVG/1.1/DTD/svg11.dtd">
<!-- Generated by graphviz version 13.1.2 (20250808.2320)
 -->
<!-- Title: Graphical Class Hierarchy Pages: 1 -->
<svg width="283pt" height="76pt"
 viewBox="0.00 0.00 283.00 76.00" xmlns="http://www.w3.org/2000/svg" xmlns:xlink="http://www.w3.org/1999/xlink">
<g id="graph0" class="graph" transform="scale(1 1) rotate(0) translate(4 71.88)">
<title>Graphical Class Hierarchy</title>
<!-- Node0 -->
<g id="Node000000" class="node">
<title>Node0</title>
<g id="a_Node000000"><a xlink:href="classllvm_1_1jitlink_1_1JITLinkDylib.html" target="_top" xlink:title=" ">
<polygon fill="white" stroke="#666666" points="133,-67.88 9.75,-67.88 9.75,-48.62 133,-48.62 133,-67.88"/>
<text xml:space="preserve" text-anchor="middle" x="71.38" y="-54.38" font-family="Helvetica,sans-Serif" font-size="10.00">llvm::jitlink::JITLinkDylib</text>
</a>
</g>
</g>
<!-- Node1 -->
<g id="Node000001" class="node">
<title>Node1</title>
<g id="a_Node000001"><a xlink:href="classllvm_1_1orc_1_1JITDylib.html" target="_top" xlink:title="Represents a JIT&#39;d dynamic library.">
<polygon fill="white" stroke="#666666" points="275,-45.88 178.75,-45.88 178.75,-26.62 275,-26.62 275,-45.88"/>
<text xml:space="preserve" text-anchor="middle" x="226.88" y="-32.38" font-family="Helvetica,sans-Serif" font-size="10.00">llvm::orc::JITDylib</text>
</a>
</g>
</g>
<!-- Node0&#45;&gt;Node1 -->
<g id="edge4140_Node000000_Node000001" class="edge">
<title>Node0&#45;&gt;Node1</title>
<g id="a_edge4140_Node000000_Node000001"><a xlink:title=" ">
<path fill="none" stroke="#63b8ff" d="M144.53,-47.91C156.13,-46.25 167.88,-44.56 178.7,-43.01"/>
<polygon fill="#63b8ff" stroke="#63b8ff" points="144.38,-44.39 134.98,-49.28 145.38,-51.32 144.38,-44.39"/>
</a>
</g>
</g>
<!-- Node2 -->
<g id="Node000002" class="node">
<title>Node2</title>
<g id="a_Node000002"><a xlink:href="classllvm_1_1ThreadSafeRefCountedBase.html" target="_top" xlink:title=" ">
<polygon fill="white" stroke="#666666" points="142.75,-30.5 0,-30.5 0,0 142.75,0 142.75,-30.5"/>
<text xml:space="preserve" text-anchor="start" x="8" y="-17" font-family="Helvetica,sans-Serif" font-size="10.00">llvm::ThreadSafeRefCounted</text>
<text xml:space="preserve" text-anchor="middle" x="71.38" y="-5.75" font-family="Helvetica,sans-Serif" font-size="10.00">Base&lt; JITDylib &gt;</text>
</a>
</g>
</g>
<!-- Node2&#45;&gt;Node1 -->
<g id="edge4141_Node000002_Node000001" class="edge">
<title>Node2&#45;&gt;Node1</title>
<g id="a_edge4141_Node000002_Node000001"><a xlink:title=" ">
<path fill="none" stroke="#63b8ff" d="M154.24,-26.45C162.59,-27.59 170.86,-28.72 178.66,-29.79"/>
<polygon fill="#63b8ff" stroke="#63b8ff" points="154.72,-22.98 144.33,-25.09 153.77,-29.92 154.72,-22.98"/>
</a>
</g>
</g>
</g>
</svg>
