<?xml version="1.0" encoding="UTF-8" standalone="no"?>
<!DOCTYPE svg PUBLIC "-//W3C//DTD SVG 1.1//EN"
 "http://www.w3.org/Graphics/SVG/1.1/DTD/svg11.dtd">
<!-- Generated by graphviz version 13.1.2 (20250808.2320)
 -->
<!-- Title: Graphical Class Hierarchy Pages: 1 -->
<svg width="318pt" height="76pt"
 viewBox="0.00 0.00 318.00 76.00" xmlns="http://www.w3.org/2000/svg" xmlns:xlink="http://www.w3.org/1999/xlink">
<g id="graph0" class="graph" transform="scale(1 1) rotate(0) translate(4 71.88)">
<title>Graphical Class Hierarchy</title>
<!-- Node0 -->
<g id="Node000000" class="node">
<title>Node0</title>
<g id="a_Node000000"><a xlink:href="classllvm_1_1orc_1_1OrcX86__64__Base.html" target="_top" xlink:title="X86_64 code that&#39;s common to all ABIs.">
<polygon fill="white" stroke="#666666" points="136,-45.88 0,-45.88 0,-26.62 136,-26.62 136,-45.88"/>
<text xml:space="preserve" text-anchor="middle" x="68" y="-32.38" font-family="Helvetica,sans-Serif" font-size="10.00">llvm::orc::OrcX86_64_Base</text>
</a>
</g>
</g>
<!-- Node1 -->
<g id="Node000001" class="node">
<title>Node1</title>
<g id="a_Node000001"><a xlink:href="classllvm_1_1orc_1_1OrcX86__64__SysV.html" target="_top" xlink:title="X86_64 support for SysV ABI (Linux, MacOSX).">
<polygon fill="white" stroke="#666666" points="309.5,-67.88 172,-67.88 172,-48.62 309.5,-48.62 309.5,-67.88"/>
<text xml:space="preserve" text-anchor="middle" x="240.75" y="-54.38" font-family="Helvetica,sans-Serif" font-size="10.00">llvm::orc::OrcX86_64_SysV</text>
</a>
</g>
</g>
<!-- Node0&#45;&gt;Node1 -->
<g id="edge5143_Node000000_Node000001" class="edge">
<title>Node0&#45;&gt;Node1</title>
<g id="a_edge5143_Node000000_Node000001"><a xlink:title=" ">
<path fill="none" stroke="#63b8ff" d="M147.7,-46.39C155.7,-47.42 163.77,-48.46 171.64,-49.47"/>
<polygon fill="#63b8ff" stroke="#63b8ff" points="148.35,-42.95 137.99,-45.14 147.46,-49.89 148.35,-42.95"/>
</a>
</g>
</g>
<!-- Node2 -->
<g id="Node000002" class="node">
<title>Node2</title>
<g id="a_Node000002"><a xlink:href="classllvm_1_1orc_1_1OrcX86__64__Win32.html" target="_top" xlink:title="X86_64 support for Win32.">
<polygon fill="white" stroke="#666666" points="294.88,-30.5 186.62,-30.5 186.62,0 294.88,0 294.88,-30.5"/>
<text xml:space="preserve" text-anchor="start" x="194.62" y="-17" font-family="Helvetica,sans-Serif" font-size="10.00">llvm::orc::OrcX86_64</text>
<text xml:space="preserve" text-anchor="middle" x="240.75" y="-5.75" font-family="Helvetica,sans-Serif" font-size="10.00">_Win32</text>
</a>
</g>
</g>
<!-- Node0&#45;&gt;Node2 -->
<g id="edge5144_Node000000_Node000002" class="edge">
<title>Node0&#45;&gt;Node2</title>
<g id="a_edge5144_Node000000_Node000002"><a xlink:title=" ">
<path fill="none" stroke="#63b8ff" d="M147.81,-26.56C160.8,-24.96 173.99,-23.34 186.17,-21.84"/>
<polygon fill="#63b8ff" stroke="#63b8ff" points="147.49,-23.07 137.99,-27.77 148.34,-30.02 147.49,-23.07"/>
</a>
</g>
</g>
</g>
</svg>
