<?xml version="1.0" encoding="UTF-8" standalone="no"?>
<!DOCTYPE svg PUBLIC "-//W3C//DTD SVG 1.1//EN"
 "http://www.w3.org/Graphics/SVG/1.1/DTD/svg11.dtd">
<!-- Generated by graphviz version 13.1.2 (20250808.2320)
 -->
<!-- Title: Graphical Class Hierarchy Pages: 1 -->
<svg width="813pt" height="138pt"
 viewBox="0.00 0.00 813.00 138.00" xmlns="http://www.w3.org/2000/svg" xmlns:xlink="http://www.w3.org/1999/xlink">
<g id="graph0" class="graph" transform="scale(1 1) rotate(0) translate(4 133.62)">
<title>Graphical Class Hierarchy</title>
<!-- Node0 -->
<g id="Node000000" class="node">
<title>Node0</title>
<g id="a_Node000000"><a xlink:href="classllvm_1_1SmallVectorBase.html" target="_top" xlink:title=" ">
<polygon fill="white" stroke="#666666" points="118.75,-129.62 0,-129.62 0,-76.62 118.75,-76.62 118.75,-129.62"/>
<text xml:space="preserve" text-anchor="start" x="8" y="-116.12" font-family="Helvetica,sans-Serif" font-size="10.00">llvm::SmallVectorBase</text>
<text xml:space="preserve" text-anchor="start" x="8" y="-104.88" font-family="Helvetica,sans-Serif" font-size="10.00">&lt; SmallVectorSizeType</text>
<text xml:space="preserve" text-anchor="start" x="8" y="-93.62" font-family="Helvetica,sans-Serif" font-size="10.00">&lt; std::optional&lt; llvm</text>
<text xml:space="preserve" text-anchor="middle" x="59.38" y="-82.38" font-family="Helvetica,sans-Serif" font-size="10.00">::MCInst &gt; &gt; &gt;</text>
</a>
</g>
</g>
<!-- Node1 -->
<g id="Node000001" class="node">
<title>Node1</title>
<g id="a_Node000001"><a xlink:href="classllvm_1_1SmallVectorTemplateCommon.html" target="_top" xlink:title=" ">
<polygon fill="white" stroke="#666666" points="287.75,-124 154.75,-124 154.75,-82.25 287.75,-82.25 287.75,-124"/>
<text xml:space="preserve" text-anchor="start" x="162.75" y="-110.5" font-family="Helvetica,sans-Serif" font-size="10.00">llvm::SmallVectorTemplate</text>
<text xml:space="preserve" text-anchor="start" x="162.75" y="-99.25" font-family="Helvetica,sans-Serif" font-size="10.00">Common&lt; std::optional&lt;</text>
<text xml:space="preserve" text-anchor="middle" x="221.25" y="-88" font-family="Helvetica,sans-Serif" font-size="10.00"> llvm::MCInst &gt; &gt;</text>
</a>
</g>
</g>
<!-- Node0&#45;&gt;Node1 -->
<g id="edge9574_Node000000_Node000001" class="edge">
<title>Node0&#45;&gt;Node1</title>
<g id="a_edge9574_Node000000_Node000001"><a xlink:title=" ">
<path fill="none" stroke="#63b8ff" d="M130.48,-103.12C138.41,-103.12 146.47,-103.12 154.34,-103.12"/>
<polygon fill="#63b8ff" stroke="#63b8ff" points="130.51,-99.63 120.51,-103.13 130.51,-106.63 130.51,-99.63"/>
</a>
</g>
</g>
<!-- Node2 -->
<g id="Node000002" class="node">
<title>Node2</title>
<g id="a_Node000002"><a xlink:href="classllvm_1_1SmallVectorTemplateBase.html" target="_top" xlink:title=" ">
<polygon fill="white" stroke="#666666" points="456.75,-124 323.75,-124 323.75,-82.25 456.75,-82.25 456.75,-124"/>
<text xml:space="preserve" text-anchor="start" x="331.75" y="-110.5" font-family="Helvetica,sans-Serif" font-size="10.00">llvm::SmallVectorTemplate</text>
<text xml:space="preserve" text-anchor="start" x="331.75" y="-99.25" font-family="Helvetica,sans-Serif" font-size="10.00">Base&lt; std::optional&lt; llvm</text>
<text xml:space="preserve" text-anchor="middle" x="390.25" y="-88" font-family="Helvetica,sans-Serif" font-size="10.00">::MCInst &gt; &gt;</text>
</a>
</g>
</g>
<!-- Node1&#45;&gt;Node2 -->
<g id="edge9575_Node000001_Node000002" class="edge">
<title>Node1&#45;&gt;Node2</title>
<g id="a_edge9575_Node000001_Node000002"><a xlink:title=" ">
<path fill="none" stroke="#63b8ff" d="M299.13,-103.12C307.23,-103.12 315.41,-103.12 323.37,-103.12"/>
<polygon fill="#63b8ff" stroke="#63b8ff" points="299.29,-99.63 289.29,-103.13 299.29,-106.63 299.29,-99.63"/>
</a>
</g>
</g>
<!-- Node3 -->
<g id="Node000003" class="node">
<title>Node3</title>
<g id="a_Node000003"><a xlink:href="classllvm_1_1SmallVectorImpl.html" target="_top" xlink:title=" ">
<polygon fill="white" stroke="#666666" points="637.38,-124 525.38,-124 525.38,-82.25 637.38,-82.25 637.38,-124"/>
<text xml:space="preserve" text-anchor="start" x="533.38" y="-110.5" font-family="Helvetica,sans-Serif" font-size="10.00">llvm::SmallVectorImpl</text>
<text xml:space="preserve" text-anchor="start" x="533.38" y="-99.25" font-family="Helvetica,sans-Serif" font-size="10.00">&lt; std::optional&lt; llvm</text>
<text xml:space="preserve" text-anchor="middle" x="581.38" y="-88" font-family="Helvetica,sans-Serif" font-size="10.00">::MCInst &gt; &gt;</text>
</a>
</g>
</g>
<!-- Node2&#45;&gt;Node3 -->
<g id="edge9576_Node000002_Node000003" class="edge">
<title>Node2&#45;&gt;Node3</title>
<g id="a_edge9576_Node000002_Node000003"><a xlink:title=" ">
<path fill="none" stroke="#63b8ff" d="M468.48,-103.12C487.44,-103.12 507.38,-103.12 525.08,-103.12"/>
<polygon fill="#63b8ff" stroke="#63b8ff" points="468.64,-99.63 458.64,-103.13 468.64,-106.63 468.64,-99.63"/>
</a>
</g>
</g>
<!-- Node4 -->
<g id="Node000004" class="node">
<title>Node4</title>
<g id="a_Node000004"><a xlink:href="classllvm_1_1SmallVector.html" target="_top" xlink:title=" ">
<polygon fill="white" stroke="#666666" points="805.25,-88 706,-88 706,-46.25 805.25,-46.25 805.25,-88"/>
<text xml:space="preserve" text-anchor="start" x="714" y="-74.5" font-family="Helvetica,sans-Serif" font-size="10.00">llvm::SmallVector&lt;</text>
<text xml:space="preserve" text-anchor="start" x="714" y="-63.25" font-family="Helvetica,sans-Serif" font-size="10.00"> std::optional&lt; llvm</text>
<text xml:space="preserve" text-anchor="middle" x="755.62" y="-52" font-family="Helvetica,sans-Serif" font-size="10.00">::MCInst &gt; &gt;</text>
</a>
</g>
</g>
<!-- Node3&#45;&gt;Node4 -->
<g id="edge9577_Node000003_Node000004" class="edge">
<title>Node3&#45;&gt;Node4</title>
<g id="a_edge9577_Node000003_Node000004"><a xlink:title=" ">
<path fill="none" stroke="#63b8ff" d="M649.05,-89.19C667.9,-85.25 688.07,-81.03 705.67,-77.36"/>
<polygon fill="#63b8ff" stroke="#63b8ff" points="648.38,-85.75 639.31,-91.23 649.81,-92.61 648.38,-85.75"/>
</a>
</g>
</g>
<!-- Node5 -->
<g id="Node000005" class="node">
<title>Node5</title>
<g id="a_Node000005"><a xlink:title=" ">
<polygon fill="#e0e0e0" stroke="#999999" points="670,-64.25 492.75,-64.25 492.75,0 670,0 670,-64.25"/>
<text xml:space="preserve" text-anchor="start" x="500.75" y="-50.75" font-family="Helvetica,sans-Serif" font-size="10.00">SmallVectorStorage</text>
<text xml:space="preserve" text-anchor="start" x="500.75" y="-39.5" font-family="Helvetica,sans-Serif" font-size="10.00">&lt; std::optional&lt; llvm</text>
<text xml:space="preserve" text-anchor="start" x="500.75" y="-28.25" font-family="Helvetica,sans-Serif" font-size="10.00">::MCInst &gt;, CalculateSmallVector</text>
<text xml:space="preserve" text-anchor="start" x="500.75" y="-17" font-family="Helvetica,sans-Serif" font-size="10.00">DefaultInlinedElements&lt; std</text>
<text xml:space="preserve" text-anchor="middle" x="581.38" y="-5.75" font-family="Helvetica,sans-Serif" font-size="10.00">::optional&lt; llvm::MCInst &gt; &gt;::value &gt;</text>
</a>
</g>
</g>
<!-- Node5&#45;&gt;Node4 -->
<g id="edge9578_Node000005_Node000004" class="edge">
<title>Node5&#45;&gt;Node4</title>
<g id="a_edge9578_Node000005_Node000004"><a xlink:title=" ">
<path fill="none" stroke="#8b1a1a" d="M681.44,-52.26C689.9,-53.97 698.18,-55.65 705.95,-57.23"/>
<polygon fill="#8b1a1a" stroke="#8b1a1a" points="682.25,-48.85 671.75,-50.29 680.85,-55.71 682.25,-48.85"/>
</a>
</g>
</g>
</g>
</svg>
