<?xml version="1.0" encoding="UTF-8" standalone="no"?>
<!DOCTYPE svg PUBLIC "-//W3C//DTD SVG 1.1//EN"
 "http://www.w3.org/Graphics/SVG/1.1/DTD/svg11.dtd">
<!-- Generated by graphviz version 13.1.2 (20250808.2320)
 -->
<!-- Title: Graphical Class Hierarchy Pages: 1 -->
<svg width="339pt" height="88pt"
 viewBox="0.00 0.00 339.00 88.00" xmlns="http://www.w3.org/2000/svg" xmlns:xlink="http://www.w3.org/1999/xlink">
<g id="graph0" class="graph" transform="scale(1 1) rotate(0) translate(4 83.5)">
<title>Graphical Class Hierarchy</title>
<!-- Node0 -->
<g id="Node000000" class="node">
<title>Node0</title>
<g id="a_Node000000"><a xlink:href="classllvm_1_1codeview_1_1SymbolVisitorDelegate.html" target="_top" xlink:title=" ">
<polygon fill="white" stroke="#666666" points="148,-54.5 0,-54.5 0,-24 148,-24 148,-54.5"/>
<text xml:space="preserve" text-anchor="start" x="8" y="-41" font-family="Helvetica,sans-Serif" font-size="10.00">llvm::codeview::SymbolVisitor</text>
<text xml:space="preserve" text-anchor="middle" x="74" y="-29.75" font-family="Helvetica,sans-Serif" font-size="10.00">Delegate</text>
</a>
</g>
</g>
<!-- Node1 -->
<g id="Node000001" class="node">
<title>Node1</title>
<g id="a_Node000001"><a xlink:href="classllvm_1_1codeview_1_1SymbolDumpDelegate.html" target="_top" xlink:title=" ">
<polygon fill="white" stroke="#666666" points="330.5,-79.5 184,-79.5 184,-49 330.5,-49 330.5,-79.5"/>
<text xml:space="preserve" text-anchor="start" x="192" y="-66" font-family="Helvetica,sans-Serif" font-size="10.00">llvm::codeview::SymbolDump</text>
<text xml:space="preserve" text-anchor="middle" x="257.25" y="-54.75" font-family="Helvetica,sans-Serif" font-size="10.00">Delegate</text>
</a>
</g>
</g>
<!-- Node0&#45;&gt;Node1 -->
<g id="edge1088_Node000000_Node000001" class="edge">
<title>Node0&#45;&gt;Node1</title>
<g id="a_edge1088_Node000000_Node000001"><a xlink:title=" ">
<path fill="none" stroke="#63b8ff" d="M159.68,-50.93C167.66,-52.03 175.71,-53.14 183.57,-54.22"/>
<polygon fill="#63b8ff" stroke="#63b8ff" points="160.34,-47.49 149.96,-49.59 159.39,-54.42 160.34,-47.49"/>
</a>
</g>
</g>
<!-- Node2 -->
<g id="Node000002" class="node">
<title>Node2</title>
<g id="a_Node000002"><a xlink:href="classllvm_1_1logicalview_1_1LVSymbolVisitorDelegate.html" target="_top" xlink:title=" ">
<polygon fill="white" stroke="#666666" points="320.75,-30.5 193.75,-30.5 193.75,0 320.75,0 320.75,-30.5"/>
<text xml:space="preserve" text-anchor="start" x="201.75" y="-17" font-family="Helvetica,sans-Serif" font-size="10.00">llvm::logicalview::</text>
<text xml:space="preserve" text-anchor="middle" x="257.25" y="-5.75" font-family="Helvetica,sans-Serif" font-size="10.00">LVSymbolVisitorDelegate</text>
</a>
</g>
</g>
<!-- Node0&#45;&gt;Node2 -->
<g id="edge1089_Node000000_Node000002" class="edge">
<title>Node0&#45;&gt;Node2</title>
<g id="a_edge1089_Node000000_Node000002"><a xlink:title=" ">
<path fill="none" stroke="#63b8ff" d="M159.74,-28.03C171.09,-26.53 182.56,-25.01 193.44,-23.57"/>
<polygon fill="#63b8ff" stroke="#63b8ff" points="159.41,-24.54 149.96,-29.32 160.33,-31.48 159.41,-24.54"/>
</a>
</g>
</g>
</g>
</svg>
