<?xml version="1.0" encoding="UTF-8" standalone="no"?>
<!DOCTYPE svg PUBLIC "-//W3C//DTD SVG 1.1//EN"
 "http://www.w3.org/Graphics/SVG/1.1/DTD/svg11.dtd">
<!-- Generated by graphviz version 13.1.2 (20250808.2320)
 -->
<!-- Title: Graphical Class Hierarchy Pages: 1 -->
<svg width="329pt" height="76pt"
 viewBox="0.00 0.00 329.00 76.00" xmlns="http://www.w3.org/2000/svg" xmlns:xlink="http://www.w3.org/1999/xlink">
<g id="graph0" class="graph" transform="scale(1 1) rotate(0) translate(4 71.88)">
<title>Graphical Class Hierarchy</title>
<!-- Node0 -->
<g id="Node000000" class="node">
<title>Node0</title>
<g id="a_Node000000"><a xlink:href="classllvm_1_1orc_1_1MemoryMapper.html" target="_top" xlink:title="Manages mapping, content transfer and protections for JIT memory.">
<polygon fill="white" stroke="#666666" points="127,-40.25 0,-40.25 0,-21 127,-21 127,-40.25"/>
<text xml:space="preserve" text-anchor="middle" x="63.5" y="-26.75" font-family="Helvetica,sans-Serif" font-size="10.00">llvm::orc::MemoryMapper</text>
</a>
</g>
</g>
<!-- Node1 -->
<g id="Node000001" class="node">
<title>Node1</title>
<g id="a_Node000001"><a xlink:href="classllvm_1_1orc_1_1InProcessMemoryMapper.html" target="_top" xlink:title=" ">
<polygon fill="white" stroke="#666666" points="311.38,-67.88 172.38,-67.88 172.38,-37.38 311.38,-37.38 311.38,-67.88"/>
<text xml:space="preserve" text-anchor="start" x="180.38" y="-54.38" font-family="Helvetica,sans-Serif" font-size="10.00">llvm::orc::InProcessMemory</text>
<text xml:space="preserve" text-anchor="middle" x="241.88" y="-43.12" font-family="Helvetica,sans-Serif" font-size="10.00">Mapper</text>
</a>
</g>
</g>
<!-- Node0&#45;&gt;Node1 -->
<g id="edge5139_Node000000_Node000001" class="edge">
<title>Node0&#45;&gt;Node1</title>
<g id="a_edge5139_Node000000_Node000001"><a xlink:title=" ">
<path fill="none" stroke="#63b8ff" d="M138.26,-39.83C149.47,-41.22 161,-42.66 172.11,-44.05"/>
<polygon fill="#63b8ff" stroke="#63b8ff" points="139.04,-36.4 128.68,-38.63 138.17,-43.34 139.04,-36.4"/>
</a>
</g>
</g>
<!-- Node2 -->
<g id="Node000002" class="node">
<title>Node2</title>
<g id="a_Node000002"><a xlink:href="classllvm_1_1orc_1_1SharedMemoryMapper.html" target="_top" xlink:title=" ">
<polygon fill="white" stroke="#666666" points="320.75,-19.25 163,-19.25 163,0 320.75,0 320.75,-19.25"/>
<text xml:space="preserve" text-anchor="middle" x="241.88" y="-5.75" font-family="Helvetica,sans-Serif" font-size="10.00">llvm::orc::SharedMemoryMapper</text>
</a>
</g>
</g>
<!-- Node0&#45;&gt;Node2 -->
<g id="edge5140_Node000000_Node000002" class="edge">
<title>Node0&#45;&gt;Node2</title>
<g id="a_edge5140_Node000000_Node000002"><a xlink:title=" ">
<path fill="none" stroke="#63b8ff" d="M138.38,-21.83C146.4,-20.87 154.59,-19.9 162.66,-18.94"/>
<polygon fill="#63b8ff" stroke="#63b8ff" points="138.2,-18.33 128.68,-22.98 139.03,-25.28 138.2,-18.33"/>
</a>
</g>
</g>
</g>
</svg>
