<?xml version="1.0" encoding="UTF-8" standalone="no"?>
<!DOCTYPE svg PUBLIC "-//W3C//DTD SVG 1.1//EN"
 "http://www.w3.org/Graphics/SVG/1.1/DTD/svg11.dtd">
<!-- Generated by graphviz version 13.1.2 (20250808.2320)
 -->
<!-- Title: Graphical Class Hierarchy Pages: 1 -->
<svg width="948pt" height="93pt"
 viewBox="0.00 0.00 948.00 93.00" xmlns="http://www.w3.org/2000/svg" xmlns:xlink="http://www.w3.org/1999/xlink">
<g id="graph0" class="graph" transform="scale(1 1) rotate(0) translate(4 89.12)">
<title>Graphical Class Hierarchy</title>
<!-- Node0 -->
<g id="Node000000" class="node">
<title>Node0</title>
<g id="a_Node000000"><a xlink:href="classllvm_1_1SmallVectorBase.html" target="_top" xlink:title=" ">
<polygon fill="white" stroke="#666666" points="172,-85.12 0,-85.12 0,-43.38 172,-43.38 172,-85.12"/>
<text xml:space="preserve" text-anchor="start" x="8" y="-71.62" font-family="Helvetica,sans-Serif" font-size="10.00">llvm::SmallVectorBase</text>
<text xml:space="preserve" text-anchor="start" x="8" y="-60.38" font-family="Helvetica,sans-Serif" font-size="10.00">&lt; SmallVectorSizeType</text>
<text xml:space="preserve" text-anchor="middle" x="86" y="-49.12" font-family="Helvetica,sans-Serif" font-size="10.00">&lt; SPIRV::Extension::Extension &gt; &gt;</text>
</a>
</g>
</g>
<!-- Node1 -->
<g id="Node000001" class="node">
<title>Node1</title>
<g id="a_Node000001"><a xlink:href="classllvm_1_1SmallVectorTemplateCommon.html" target="_top" xlink:title=" ">
<polygon fill="white" stroke="#666666" points="352.25,-85.12 208,-85.12 208,-43.38 352.25,-43.38 352.25,-85.12"/>
<text xml:space="preserve" text-anchor="start" x="216" y="-71.62" font-family="Helvetica,sans-Serif" font-size="10.00">llvm::SmallVectorTemplate</text>
<text xml:space="preserve" text-anchor="start" x="216" y="-60.38" font-family="Helvetica,sans-Serif" font-size="10.00">Common&lt; SPIRV::Extension</text>
<text xml:space="preserve" text-anchor="middle" x="280.12" y="-49.12" font-family="Helvetica,sans-Serif" font-size="10.00">::Extension &gt;</text>
</a>
</g>
</g>
<!-- Node0&#45;&gt;Node1 -->
<g id="edge9447_Node000000_Node000001" class="edge">
<title>Node0&#45;&gt;Node1</title>
<g id="a_edge9447_Node000000_Node000001"><a xlink:title=" ">
<path fill="none" stroke="#63b8ff" d="M183.79,-64.25C191.88,-64.25 199.95,-64.25 207.79,-64.25"/>
<polygon fill="#63b8ff" stroke="#63b8ff" points="183.9,-60.75 173.9,-64.25 183.9,-67.75 183.9,-60.75"/>
</a>
</g>
</g>
<!-- Node2 -->
<g id="Node000002" class="node">
<title>Node2</title>
<g id="a_Node000002"><a xlink:href="classllvm_1_1SmallVectorTemplateBase.html" target="_top" xlink:title=" ">
<polygon fill="white" stroke="#666666" points="521.25,-85.12 388.25,-85.12 388.25,-43.38 521.25,-43.38 521.25,-85.12"/>
<text xml:space="preserve" text-anchor="start" x="396.25" y="-71.62" font-family="Helvetica,sans-Serif" font-size="10.00">llvm::SmallVectorTemplate</text>
<text xml:space="preserve" text-anchor="start" x="396.25" y="-60.38" font-family="Helvetica,sans-Serif" font-size="10.00">Base&lt; SPIRV::Extension</text>
<text xml:space="preserve" text-anchor="middle" x="454.75" y="-49.12" font-family="Helvetica,sans-Serif" font-size="10.00">::Extension &gt;</text>
</a>
</g>
</g>
<!-- Node1&#45;&gt;Node2 -->
<g id="edge9448_Node000001_Node000002" class="edge">
<title>Node1&#45;&gt;Node2</title>
<g id="a_edge9448_Node000001_Node000002"><a xlink:title=" ">
<path fill="none" stroke="#63b8ff" d="M363.76,-64.25C371.88,-64.25 380.05,-64.25 387.97,-64.25"/>
<polygon fill="#63b8ff" stroke="#63b8ff" points="363.85,-60.75 353.85,-64.25 363.85,-67.75 363.85,-60.75"/>
</a>
</g>
</g>
<!-- Node3 -->
<g id="Node000003" class="node">
<title>Node3</title>
<g id="a_Node000003"><a xlink:href="classllvm_1_1SmallVectorImpl.html" target="_top" xlink:title=" ">
<polygon fill="white" stroke="#666666" points="727,-79.5 564,-79.5 564,-49 727,-49 727,-79.5"/>
<text xml:space="preserve" text-anchor="start" x="572" y="-66" font-family="Helvetica,sans-Serif" font-size="10.00">llvm::SmallVectorImpl</text>
<text xml:space="preserve" text-anchor="middle" x="645.5" y="-54.75" font-family="Helvetica,sans-Serif" font-size="10.00">&lt; SPIRV::Extension::Extension &gt;</text>
</a>
</g>
</g>
<!-- Node2&#45;&gt;Node3 -->
<g id="edge9449_Node000002_Node000003" class="edge">
<title>Node2&#45;&gt;Node3</title>
<g id="a_edge9449_Node000002_Node000003"><a xlink:title=" ">
<path fill="none" stroke="#63b8ff" d="M532.84,-64.25C543.02,-64.25 553.47,-64.25 563.7,-64.25"/>
<polygon fill="#63b8ff" stroke="#63b8ff" points="533.01,-60.75 523.01,-64.25 533.01,-67.75 533.01,-60.75"/>
</a>
</g>
</g>
<!-- Node4 -->
<g id="Node000004" class="node">
<title>Node4</title>
<g id="a_Node000004"><a xlink:href="classllvm_1_1SmallVector.html" target="_top" xlink:title=" ">
<polygon fill="white" stroke="#666666" points="939.12,-79.5 770.88,-79.5 770.88,-49 939.12,-49 939.12,-79.5"/>
<text xml:space="preserve" text-anchor="start" x="778.88" y="-66" font-family="Helvetica,sans-Serif" font-size="10.00">llvm::SmallVector&lt;</text>
<text xml:space="preserve" text-anchor="middle" x="855" y="-54.75" font-family="Helvetica,sans-Serif" font-size="10.00"> SPIRV::Extension::Extension, 8 &gt;</text>
</a>
</g>
</g>
<!-- Node3&#45;&gt;Node4 -->
<g id="edge9450_Node000003_Node000004" class="edge">
<title>Node3&#45;&gt;Node4</title>
<g id="a_edge9450_Node000003_Node000004"><a xlink:title=" ">
<path fill="none" stroke="#63b8ff" d="M738.76,-64.25C749.38,-64.25 760.17,-64.25 770.66,-64.25"/>
<polygon fill="#63b8ff" stroke="#63b8ff" points="738.83,-60.75 728.83,-64.25 738.83,-67.75 738.83,-60.75"/>
</a>
</g>
</g>
<!-- Node6 -->
<g id="Node000006" class="node">
<title>Node6</title>
<g id="a_Node000006"><a xlink:href="classllvm_1_1SmallVector.html" target="_top" xlink:title=" ">
<polygon fill="white" stroke="#666666" points="940.25,-30.5 769.75,-30.5 769.75,0 940.25,0 940.25,-30.5"/>
<text xml:space="preserve" text-anchor="start" x="777.75" y="-17" font-family="Helvetica,sans-Serif" font-size="10.00">llvm::SmallVector&lt;</text>
<text xml:space="preserve" text-anchor="middle" x="855" y="-5.75" font-family="Helvetica,sans-Serif" font-size="10.00"> SPIRV::Extension::Extension, N &gt;</text>
</a>
</g>
</g>
<!-- Node3&#45;&gt;Node6 -->
<g id="edge9451_Node000003_Node000006" class="edge">
<title>Node3&#45;&gt;Node6</title>
<g id="a_edge9451_Node000003_Node000006"><a xlink:title=" ">
<path fill="none" stroke="#63b8ff" d="M724.09,-45.93C744.95,-41 767.31,-35.72 787.51,-30.95"/>
<polygon fill="#63b8ff" stroke="#63b8ff" points="723.41,-42.49 714.48,-48.2 725.02,-49.3 723.41,-42.49"/>
</a>
</g>
</g>
<!-- Node5 -->
<g id="Node000005" class="node">
<title>Node5</title>
<g id="a_Node000005"><a xlink:href="structllvm_1_1SmallVectorStorage.html" target="_top" xlink:title=" ">
<polygon fill="white" stroke="#666666" points="733.75,-30.5 557.25,-30.5 557.25,0 733.75,0 733.75,-30.5"/>
<text xml:space="preserve" text-anchor="start" x="565.25" y="-17" font-family="Helvetica,sans-Serif" font-size="10.00">llvm::SmallVectorStorage</text>
<text xml:space="preserve" text-anchor="middle" x="645.5" y="-5.75" font-family="Helvetica,sans-Serif" font-size="10.00">&lt; SPIRV::Extension::Extension, N &gt;</text>
</a>
</g>
</g>
<!-- Node5&#45;&gt;Node4 -->
<g id="edge9452_Node000005_Node000004" class="edge">
<title>Node5&#45;&gt;Node4</title>
<g id="a_edge9452_Node000005_Node000004"><a xlink:title=" ">
<path fill="none" stroke="#8b1a1a" d="M724.09,-33.57C744.95,-38.5 767.31,-43.78 787.51,-48.55"/>
<polygon fill="#8b1a1a" stroke="#8b1a1a" points="725.02,-30.2 714.48,-31.3 723.41,-37.01 725.02,-30.2"/>
</a>
</g>
</g>
<!-- Node5&#45;&gt;Node6 -->
<g id="edge9453_Node000005_Node000006" class="edge">
<title>Node5&#45;&gt;Node6</title>
<g id="a_edge9453_Node000005_Node000006"><a xlink:title=" ">
<path fill="none" stroke="#8b1a1a" d="M745.7,-15.25C753.58,-15.25 761.49,-15.25 769.26,-15.25"/>
<polygon fill="#8b1a1a" stroke="#8b1a1a" points="745.71,-11.75 735.71,-15.25 745.71,-18.75 745.71,-11.75"/>
</a>
</g>
</g>
</g>
</svg>
