<?xml version="1.0" encoding="UTF-8" standalone="no"?>
<!DOCTYPE svg PUBLIC "-//W3C//DTD SVG 1.1//EN"
 "http://www.w3.org/Graphics/SVG/1.1/DTD/svg11.dtd">
<!-- Generated by graphviz version 13.1.2 (20250808.2320)
 -->
<!-- Title: Graphical Class Hierarchy Pages: 1 -->
<svg width="255pt" height="212pt"
 viewBox="0.00 0.00 255.00 212.00" xmlns="http://www.w3.org/2000/svg" xmlns:xlink="http://www.w3.org/1999/xlink">
<g id="graph0" class="graph" transform="scale(1 1) rotate(0) translate(4 208.25)">
<title>Graphical Class Hierarchy</title>
<!-- Node0 -->
<g id="Node000000" class="node">
<title>Node0</title>
<g id="a_Node000000"><a xlink:href="classllvm_1_1MCSymbol.html" target="_top" xlink:title="MCSymbol &#45; Instances of this class represent a symbol name in the MC file, and MCSymbols are created ...">
<polygon fill="white" stroke="#666666" points="88.75,-111.25 0,-111.25 0,-92 88.75,-92 88.75,-111.25"/>
<text xml:space="preserve" text-anchor="middle" x="44.38" y="-97.75" font-family="Helvetica,sans-Serif" font-size="10.00">llvm::MCSymbol</text>
</a>
</g>
</g>
<!-- Node1 -->
<g id="Node000001" class="node">
<title>Node1</title>
<g id="a_Node000001"><a xlink:href="classllvm_1_1MCSymbolCOFF.html" target="_top" xlink:title=" ">
<polygon fill="white" stroke="#666666" points="243.88,-204.25 128.12,-204.25 128.12,-185 243.88,-185 243.88,-204.25"/>
<text xml:space="preserve" text-anchor="middle" x="186" y="-190.75" font-family="Helvetica,sans-Serif" font-size="10.00">llvm::MCSymbolCOFF</text>
</a>
</g>
</g>
<!-- Node0&#45;&gt;Node1 -->
<g id="edge4770_Node000000_Node000001" class="edge">
<title>Node0&#45;&gt;Node1</title>
<g id="a_edge4770_Node000000_Node000001"><a xlink:title=" ">
<path fill="none" stroke="#63b8ff" d="M60.5,-120.22C75.24,-137.19 99.12,-161.83 124.75,-176.62 130.14,-179.74 136.11,-182.36 142.15,-184.55"/>
<polygon fill="#63b8ff" stroke="#63b8ff" points="63.4,-118.23 54.27,-112.84 58.05,-122.74 63.4,-118.23"/>
</a>
</g>
</g>
<!-- Node2 -->
<g id="Node000002" class="node">
<title>Node2</title>
<g id="a_Node000002"><a xlink:href="classllvm_1_1MCSymbolELF.html" target="_top" xlink:title=" ">
<polygon fill="white" stroke="#666666" points="239.38,-167.25 132.62,-167.25 132.62,-148 239.38,-148 239.38,-167.25"/>
<text xml:space="preserve" text-anchor="middle" x="186" y="-153.75" font-family="Helvetica,sans-Serif" font-size="10.00">llvm::MCSymbolELF</text>
</a>
</g>
</g>
<!-- Node0&#45;&gt;Node2 -->
<g id="edge4771_Node000000_Node000002" class="edge">
<title>Node0&#45;&gt;Node2</title>
<g id="a_edge4771_Node000000_Node000002"><a xlink:title=" ">
<path fill="none" stroke="#63b8ff" d="M74.33,-116.83C89.17,-124.28 107.66,-133.03 124.75,-139.62 132.18,-142.49 140.28,-145.19 148.05,-147.58"/>
<polygon fill="#63b8ff" stroke="#63b8ff" points="76.1,-113.8 65.6,-112.38 72.92,-120.04 76.1,-113.8"/>
</a>
</g>
</g>
<!-- Node3 -->
<g id="Node000003" class="node">
<title>Node3</title>
<g id="a_Node000003"><a xlink:href="classllvm_1_1MCSymbolGOFF.html" target="_top" xlink:title=" ">
<polygon fill="white" stroke="#666666" points="243.88,-130.25 128.12,-130.25 128.12,-111 243.88,-111 243.88,-130.25"/>
<text xml:space="preserve" text-anchor="middle" x="186" y="-116.75" font-family="Helvetica,sans-Serif" font-size="10.00">llvm::MCSymbolGOFF</text>
</a>
</g>
</g>
<!-- Node0&#45;&gt;Node3 -->
<g id="edge4772_Node000000_Node000003" class="edge">
<title>Node0&#45;&gt;Node3</title>
<g id="a_edge4772_Node000000_Node000003"><a xlink:title=" ">
<path fill="none" stroke="#63b8ff" d="M100.35,-109.11C109.36,-110.33 118.71,-111.6 127.78,-112.84"/>
<polygon fill="#63b8ff" stroke="#63b8ff" points="101.05,-105.67 90.67,-107.79 100.11,-112.61 101.05,-105.67"/>
</a>
</g>
</g>
<!-- Node4 -->
<g id="Node000004" class="node">
<title>Node4</title>
<g id="a_Node000004"><a xlink:href="classllvm_1_1MCSymbolMachO.html" target="_top" xlink:title=" ">
<polygon fill="white" stroke="#666666" points="246.12,-93.25 125.88,-93.25 125.88,-74 246.12,-74 246.12,-93.25"/>
<text xml:space="preserve" text-anchor="middle" x="186" y="-79.75" font-family="Helvetica,sans-Serif" font-size="10.00">llvm::MCSymbolMachO</text>
</a>
</g>
</g>
<!-- Node0&#45;&gt;Node4 -->
<g id="edge4773_Node000000_Node000004" class="edge">
<title>Node0&#45;&gt;Node4</title>
<g id="a_edge4773_Node000000_Node000004"><a xlink:title=" ">
<path fill="none" stroke="#63b8ff" d="M100.53,-94.52C108.73,-93.46 117.21,-92.36 125.5,-91.3"/>
<polygon fill="#63b8ff" stroke="#63b8ff" points="100.14,-91.04 90.67,-95.79 101.04,-97.98 100.14,-91.04"/>
</a>
</g>
</g>
<!-- Node5 -->
<g id="Node000005" class="node">
<title>Node5</title>
<g id="a_Node000005"><a xlink:href="classllvm_1_1MCSymbolWasm.html" target="_top" xlink:title=" ">
<polygon fill="white" stroke="#666666" points="244.25,-56.25 127.75,-56.25 127.75,-37 244.25,-37 244.25,-56.25"/>
<text xml:space="preserve" text-anchor="middle" x="186" y="-42.75" font-family="Helvetica,sans-Serif" font-size="10.00">llvm::MCSymbolWasm</text>
</a>
</g>
</g>
<!-- Node0&#45;&gt;Node5 -->
<g id="edge4774_Node000000_Node000005" class="edge">
<title>Node0&#45;&gt;Node5</title>
<g id="a_edge4774_Node000000_Node000005"><a xlink:title=" ">
<path fill="none" stroke="#63b8ff" d="M74.98,-86.57C89.72,-79.4 107.94,-71.02 124.75,-64.62 132.2,-61.79 140.3,-59.11 148.07,-56.73"/>
<polygon fill="#63b8ff" stroke="#63b8ff" points="73.7,-83.3 66.29,-90.86 76.8,-89.57 73.7,-83.3"/>
</a>
</g>
</g>
<!-- Node6 -->
<g id="Node000006" class="node">
<title>Node6</title>
<g id="a_Node000006"><a xlink:href="classllvm_1_1MCSymbolXCOFF.html" target="_top" xlink:title=" ">
<polygon fill="white" stroke="#666666" points="247.25,-19.25 124.75,-19.25 124.75,0 247.25,0 247.25,-19.25"/>
<text xml:space="preserve" text-anchor="middle" x="186" y="-5.75" font-family="Helvetica,sans-Serif" font-size="10.00">llvm::MCSymbolXCOFF</text>
</a>
</g>
</g>
<!-- Node0&#45;&gt;Node6 -->
<g id="edge4775_Node000000_Node000006" class="edge">
<title>Node0&#45;&gt;Node6</title>
<g id="a_edge4775_Node000000_Node000006"><a xlink:title=" ">
<path fill="none" stroke="#63b8ff" d="M60.55,-83.29C75.32,-66.55 99.23,-42.25 124.75,-27.62 130.15,-24.53 136.13,-21.92 142.17,-19.74"/>
<polygon fill="#63b8ff" stroke="#63b8ff" points="58.17,-80.69 54.31,-90.56 63.48,-85.25 58.17,-80.69"/>
</a>
</g>
</g>
</g>
</svg>
