<?xml version="1.0" encoding="UTF-8" standalone="no"?>
<!DOCTYPE svg PUBLIC "-//W3C//DTD SVG 1.1//EN"
 "http://www.w3.org/Graphics/SVG/1.1/DTD/svg11.dtd">
<!-- Generated by graphviz version 13.1.2 (20250808.2320)
 -->
<!-- Title: Graphical Class Hierarchy Pages: 1 -->
<svg width="342pt" height="76pt"
 viewBox="0.00 0.00 342.00 76.00" xmlns="http://www.w3.org/2000/svg" xmlns:xlink="http://www.w3.org/1999/xlink">
<g id="graph0" class="graph" transform="scale(1 1) rotate(0) translate(4 71.88)">
<title>Graphical Class Hierarchy</title>
<!-- Node0 -->
<g id="Node000000" class="node">
<title>Node0</title>
<g id="a_Node000000"><a xlink:href="classllvm_1_1mca_1_1InstrPostProcess.html" target="_top" xlink:title="Class which can be overriden by targets to modify the mca::Instruction objects before the pipeline st...">
<polygon fill="white" stroke="#666666" points="140.5,-40.25 0,-40.25 0,-21 140.5,-21 140.5,-40.25"/>
<text xml:space="preserve" text-anchor="middle" x="70.25" y="-26.75" font-family="Helvetica,sans-Serif" font-size="10.00">llvm::mca::InstrPostProcess</text>
</a>
</g>
</g>
<!-- Node1 -->
<g id="Node000001" class="node">
<title>Node1</title>
<g id="a_Node000001"><a xlink:href="classllvm_1_1mca_1_1AMDGPUInstrPostProcess.html" target="_top" xlink:title=" ">
<polygon fill="white" stroke="#666666" points="329.75,-67.88 181,-67.88 181,-37.38 329.75,-37.38 329.75,-67.88"/>
<text xml:space="preserve" text-anchor="start" x="189" y="-54.38" font-family="Helvetica,sans-Serif" font-size="10.00">llvm::mca::AMDGPUInstrPost</text>
<text xml:space="preserve" text-anchor="middle" x="255.38" y="-43.12" font-family="Helvetica,sans-Serif" font-size="10.00">Process</text>
</a>
</g>
</g>
<!-- Node0&#45;&gt;Node1 -->
<g id="edge4571_Node000000_Node000001" class="edge">
<title>Node0&#45;&gt;Node1</title>
<g id="a_edge4571_Node000000_Node000001"><a xlink:title=" ">
<path fill="none" stroke="#63b8ff" d="M151.88,-40.31C161.45,-41.46 171.19,-42.63 180.66,-43.77"/>
<polygon fill="#63b8ff" stroke="#63b8ff" points="152.59,-36.87 142.25,-39.15 151.76,-43.82 152.59,-36.87"/>
</a>
</g>
</g>
<!-- Node2 -->
<g id="Node000002" class="node">
<title>Node2</title>
<g id="a_Node000002"><a xlink:href="classllvm_1_1mca_1_1X86InstrPostProcess.html" target="_top" xlink:title=" ">
<polygon fill="white" stroke="#666666" points="334.25,-19.25 176.5,-19.25 176.5,0 334.25,0 334.25,-19.25"/>
<text xml:space="preserve" text-anchor="middle" x="255.38" y="-5.75" font-family="Helvetica,sans-Serif" font-size="10.00">llvm::mca::X86InstrPostProcess</text>
</a>
</g>
</g>
<!-- Node0&#45;&gt;Node2 -->
<g id="edge4572_Node000000_Node000002" class="edge">
<title>Node0&#45;&gt;Node2</title>
<g id="a_edge4572_Node000000_Node000002"><a xlink:title=" ">
<path fill="none" stroke="#63b8ff" d="M151.95,-21.37C159.95,-20.45 168.07,-19.52 176.04,-18.61"/>
<polygon fill="#63b8ff" stroke="#63b8ff" points="151.78,-17.87 142.25,-22.48 152.58,-24.82 151.78,-17.87"/>
</a>
</g>
</g>
</g>
</svg>
