<?xml version="1.0" encoding="UTF-8" standalone="no"?>
<!DOCTYPE svg PUBLIC "-//W3C//DTD SVG 1.1//EN"
 "http://www.w3.org/Graphics/SVG/1.1/DTD/svg11.dtd">
<!-- Generated by graphviz version 13.1.2 (20250808.2320)
 -->
<!-- Title: Graphical Class Hierarchy Pages: 1 -->
<svg width="873pt" height="98pt"
 viewBox="0.00 0.00 873.00 98.00" xmlns="http://www.w3.org/2000/svg" xmlns:xlink="http://www.w3.org/1999/xlink">
<g id="graph0" class="graph" transform="scale(1 1) rotate(0) translate(4 94.12)">
<title>Graphical Class Hierarchy</title>
<!-- Node0 -->
<g id="Node000000" class="node">
<title>Node0</title>
<g id="a_Node000000"><a xlink:href="classllvm_1_1SmallVectorBase.html" target="_top" xlink:title=" ">
<polygon fill="white" stroke="#666666" points="172,-90.12 0,-90.12 0,-48.38 172,-48.38 172,-90.12"/>
<text xml:space="preserve" text-anchor="start" x="8" y="-76.62" font-family="Helvetica,sans-Serif" font-size="10.00">llvm::SmallVectorBase</text>
<text xml:space="preserve" text-anchor="start" x="8" y="-65.38" font-family="Helvetica,sans-Serif" font-size="10.00">&lt; SmallVectorSizeType</text>
<text xml:space="preserve" text-anchor="middle" x="86" y="-54.12" font-family="Helvetica,sans-Serif" font-size="10.00">&lt; llvm::cfg::Update&lt; NodePtr &gt; &gt; &gt;</text>
</a>
</g>
</g>
<!-- Node1 -->
<g id="Node000001" class="node">
<title>Node1</title>
<g id="a_Node000001"><a xlink:href="classllvm_1_1SmallVectorTemplateCommon.html" target="_top" xlink:title=" ">
<polygon fill="white" stroke="#666666" points="347.75,-90.12 208,-90.12 208,-48.38 347.75,-48.38 347.75,-90.12"/>
<text xml:space="preserve" text-anchor="start" x="216" y="-76.62" font-family="Helvetica,sans-Serif" font-size="10.00">llvm::SmallVectorTemplate</text>
<text xml:space="preserve" text-anchor="start" x="216" y="-65.38" font-family="Helvetica,sans-Serif" font-size="10.00">Common&lt; llvm::cfg::Update</text>
<text xml:space="preserve" text-anchor="middle" x="277.88" y="-54.12" font-family="Helvetica,sans-Serif" font-size="10.00">&lt; NodePtr &gt; &gt;</text>
</a>
</g>
</g>
<!-- Node0&#45;&gt;Node1 -->
<g id="edge8239_Node000000_Node000001" class="edge">
<title>Node0&#45;&gt;Node1</title>
<g id="a_edge8239_Node000000_Node000001"><a xlink:title=" ">
<path fill="none" stroke="#63b8ff" d="M183.88,-69.25C191.94,-69.25 199.99,-69.25 207.78,-69.25"/>
<polygon fill="#63b8ff" stroke="#63b8ff" points="184.01,-65.75 174.01,-69.25 184.01,-72.75 184.01,-65.75"/>
</a>
</g>
</g>
<!-- Node2 -->
<g id="Node000002" class="node">
<title>Node2</title>
<g id="a_Node000002"><a xlink:href="classllvm_1_1SmallVectorTemplateBase.html" target="_top" xlink:title=" ">
<polygon fill="white" stroke="#666666" points="516.75,-90.12 383.75,-90.12 383.75,-48.38 516.75,-48.38 516.75,-90.12"/>
<text xml:space="preserve" text-anchor="start" x="391.75" y="-76.62" font-family="Helvetica,sans-Serif" font-size="10.00">llvm::SmallVectorTemplate</text>
<text xml:space="preserve" text-anchor="start" x="391.75" y="-65.38" font-family="Helvetica,sans-Serif" font-size="10.00">Base&lt; llvm::cfg::Update</text>
<text xml:space="preserve" text-anchor="middle" x="450.25" y="-54.12" font-family="Helvetica,sans-Serif" font-size="10.00">&lt; NodePtr &gt; &gt;</text>
</a>
</g>
</g>
<!-- Node1&#45;&gt;Node2 -->
<g id="edge8240_Node000001_Node000002" class="edge">
<title>Node1&#45;&gt;Node2</title>
<g id="a_edge8240_Node000001_Node000002"><a xlink:title=" ">
<path fill="none" stroke="#63b8ff" d="M359.42,-69.25C367.43,-69.25 375.49,-69.25 383.32,-69.25"/>
<polygon fill="#63b8ff" stroke="#63b8ff" points="359.69,-65.75 349.69,-69.25 359.69,-72.75 359.69,-65.75"/>
</a>
</g>
</g>
<!-- Node3 -->
<g id="Node000003" class="node">
<title>Node3</title>
<g id="a_Node000003"><a xlink:href="classllvm_1_1SmallVectorImpl.html" target="_top" xlink:title=" ">
<polygon fill="white" stroke="#666666" points="697,-90.12 585,-90.12 585,-48.38 697,-48.38 697,-90.12"/>
<text xml:space="preserve" text-anchor="start" x="593" y="-76.62" font-family="Helvetica,sans-Serif" font-size="10.00">llvm::SmallVectorImpl</text>
<text xml:space="preserve" text-anchor="start" x="593" y="-65.38" font-family="Helvetica,sans-Serif" font-size="10.00">&lt; llvm::cfg::Update&lt;</text>
<text xml:space="preserve" text-anchor="middle" x="641" y="-54.12" font-family="Helvetica,sans-Serif" font-size="10.00"> NodePtr &gt; &gt;</text>
</a>
</g>
</g>
<!-- Node2&#45;&gt;Node3 -->
<g id="edge8241_Node000002_Node000003" class="edge">
<title>Node2&#45;&gt;Node3</title>
<g id="a_edge8241_Node000002_Node000003"><a xlink:title=" ">
<path fill="none" stroke="#63b8ff" d="M528.27,-69.25C547.1,-69.25 566.9,-69.25 584.5,-69.25"/>
<polygon fill="#63b8ff" stroke="#63b8ff" points="528.51,-65.75 518.51,-69.25 528.51,-72.75 528.51,-65.75"/>
</a>
</g>
</g>
<!-- Node4 -->
<g id="Node000004" class="node">
<title>Node4</title>
<g id="a_Node000004"><a xlink:href="classllvm_1_1SmallVector.html" target="_top" xlink:title=" ">
<polygon fill="white" stroke="#666666" points="865.25,-63.12 765.25,-63.12 765.25,-21.38 865.25,-21.38 865.25,-63.12"/>
<text xml:space="preserve" text-anchor="start" x="773.25" y="-49.62" font-family="Helvetica,sans-Serif" font-size="10.00">llvm::SmallVector&lt;</text>
<text xml:space="preserve" text-anchor="start" x="773.25" y="-38.38" font-family="Helvetica,sans-Serif" font-size="10.00"> llvm::cfg::Update&lt;</text>
<text xml:space="preserve" text-anchor="middle" x="815.25" y="-27.12" font-family="Helvetica,sans-Serif" font-size="10.00"> NodePtr &gt;, 4 &gt;</text>
</a>
</g>
</g>
<!-- Node3&#45;&gt;Node4 -->
<g id="edge8242_Node000003_Node000004" class="edge">
<title>Node3&#45;&gt;Node4</title>
<g id="a_edge8242_Node000003_Node000004"><a xlink:title=" ">
<path fill="none" stroke="#63b8ff" d="M708.62,-58.81C727.39,-55.87 747.46,-52.72 765.01,-49.97"/>
<polygon fill="#63b8ff" stroke="#63b8ff" points="708.28,-55.32 698.94,-60.32 709.37,-62.23 708.28,-55.32"/>
</a>
</g>
</g>
<!-- Node5 -->
<g id="Node000005" class="node">
<title>Node5</title>
<g id="a_Node000005"><a xlink:href="structllvm_1_1SmallVectorStorage.html" target="_top" xlink:title=" ">
<polygon fill="white" stroke="#666666" points="729.25,-30.5 552.75,-30.5 552.75,0 729.25,0 729.25,-30.5"/>
<text xml:space="preserve" text-anchor="start" x="560.75" y="-17" font-family="Helvetica,sans-Serif" font-size="10.00">llvm::SmallVectorStorage</text>
<text xml:space="preserve" text-anchor="middle" x="641" y="-5.75" font-family="Helvetica,sans-Serif" font-size="10.00">&lt; llvm::cfg::Update&lt; NodePtr &gt;, N &gt;</text>
</a>
</g>
</g>
<!-- Node5&#45;&gt;Node4 -->
<g id="edge8243_Node000005_Node000004" class="edge">
<title>Node5&#45;&gt;Node4</title>
<g id="a_edge8243_Node000005_Node000004"><a xlink:title=" ">
<path fill="none" stroke="#8b1a1a" d="M740.97,-30.76C749.23,-32.06 757.33,-33.33 764.96,-34.52"/>
<polygon fill="#8b1a1a" stroke="#8b1a1a" points="741.56,-27.31 731.13,-29.22 740.47,-34.23 741.56,-27.31"/>
</a>
</g>
</g>
</g>
</svg>
