<?xml version="1.0" encoding="UTF-8" standalone="no"?>
<!DOCTYPE svg PUBLIC "-//W3C//DTD SVG 1.1//EN"
 "http://www.w3.org/Graphics/SVG/1.1/DTD/svg11.dtd">
<!-- Generated by graphviz version 13.1.2 (20250808.2320)
 -->
<!-- Title: Graphical Class Hierarchy Pages: 1 -->
<svg width="284pt" height="137pt"
 viewBox="0.00 0.00 284.00 137.00" xmlns="http://www.w3.org/2000/svg" xmlns:xlink="http://www.w3.org/1999/xlink">
<g id="graph0" class="graph" transform="scale(1 1) rotate(0) translate(4 132.5)">
<title>Graphical Class Hierarchy</title>
<!-- Node0 -->
<g id="Node000000" class="node">
<title>Node0</title>
<g id="a_Node000000"><a xlink:href="classllvm_1_1IDFCalculatorBase.html" target="_top" xlink:title=" ">
<polygon fill="white" stroke="#666666" points="139,-79.5 0,-79.5 0,-49 139,-49 139,-79.5"/>
<text xml:space="preserve" text-anchor="start" x="8" y="-66" font-family="Helvetica,sans-Serif" font-size="10.00">llvm::IDFCalculatorBase</text>
<text xml:space="preserve" text-anchor="middle" x="69.5" y="-54.75" font-family="Helvetica,sans-Serif" font-size="10.00">&lt; BasicBlock, IsPostDom &gt;</text>
</a>
</g>
</g>
<!-- Node1 -->
<g id="Node000001" class="node">
<title>Node1</title>
<g id="a_Node000001"><a xlink:href="classllvm_1_1IDFCalculator.html" target="_top" xlink:title=" ">
<polygon fill="white" stroke="#666666" points="275.75,-128.5 175,-128.5 175,-98 275.75,-98 275.75,-128.5"/>
<text xml:space="preserve" text-anchor="start" x="183" y="-115" font-family="Helvetica,sans-Serif" font-size="10.00">llvm::IDFCalculator</text>
<text xml:space="preserve" text-anchor="middle" x="225.38" y="-103.75" font-family="Helvetica,sans-Serif" font-size="10.00">&lt; false &gt;</text>
</a>
</g>
</g>
<!-- Node0&#45;&gt;Node1 -->
<g id="edge3657_Node000000_Node000001" class="edge">
<title>Node0&#45;&gt;Node1</title>
<g id="a_edge3657_Node000000_Node000001"><a xlink:title=" ">
<path fill="none" stroke="#63b8ff" d="M130.19,-83.26C144.99,-87.97 160.69,-92.97 174.94,-97.51"/>
<polygon fill="#63b8ff" stroke="#63b8ff" points="131.64,-80.05 121.05,-80.35 129.52,-86.72 131.64,-80.05"/>
</a>
</g>
</g>
<!-- Node2 -->
<g id="Node000002" class="node">
<title>Node2</title>
<g id="a_Node000002"><a xlink:href="classllvm_1_1IDFCalculator.html" target="_top" xlink:title=" ">
<polygon fill="white" stroke="#666666" points="275.75,-79.5 175,-79.5 175,-49 275.75,-49 275.75,-79.5"/>
<text xml:space="preserve" text-anchor="start" x="183" y="-66" font-family="Helvetica,sans-Serif" font-size="10.00">llvm::IDFCalculator</text>
<text xml:space="preserve" text-anchor="middle" x="225.38" y="-54.75" font-family="Helvetica,sans-Serif" font-size="10.00">&lt; true &gt;</text>
</a>
</g>
</g>
<!-- Node0&#45;&gt;Node2 -->
<g id="edge3658_Node000000_Node000002" class="edge">
<title>Node0&#45;&gt;Node2</title>
<g id="a_edge3658_Node000000_Node000002"><a xlink:title=" ">
<path fill="none" stroke="#63b8ff" d="M150.76,-64.25C158.84,-64.25 166.88,-64.25 174.5,-64.25"/>
<polygon fill="#63b8ff" stroke="#63b8ff" points="150.85,-60.75 140.85,-64.25 150.85,-67.75 150.85,-60.75"/>
</a>
</g>
</g>
<!-- Node3 -->
<g id="Node000003" class="node">
<title>Node3</title>
<g id="a_Node000003"><a xlink:href="classllvm_1_1IDFCalculator.html" target="_top" xlink:title=" ">
<polygon fill="white" stroke="#666666" points="275.75,-30.5 175,-30.5 175,0 275.75,0 275.75,-30.5"/>
<text xml:space="preserve" text-anchor="start" x="183" y="-17" font-family="Helvetica,sans-Serif" font-size="10.00">llvm::IDFCalculator</text>
<text xml:space="preserve" text-anchor="middle" x="225.38" y="-5.75" font-family="Helvetica,sans-Serif" font-size="10.00">&lt; IsPostDom &gt;</text>
</a>
</g>
</g>
<!-- Node0&#45;&gt;Node3 -->
<g id="edge3659_Node000000_Node000003" class="edge">
<title>Node0&#45;&gt;Node3</title>
<g id="a_edge3659_Node000000_Node000003"><a xlink:title=" ">
<path fill="none" stroke="#63b8ff" d="M130.19,-45.24C144.99,-40.53 160.69,-35.53 174.94,-30.99"/>
<polygon fill="#63b8ff" stroke="#63b8ff" points="129.52,-41.78 121.05,-48.15 131.64,-48.45 129.52,-41.78"/>
</a>
</g>
</g>
</g>
</svg>
