<?xml version="1.0" encoding="UTF-8" standalone="no"?>
<!DOCTYPE svg PUBLIC "-//W3C//DTD SVG 1.1//EN"
 "http://www.w3.org/Graphics/SVG/1.1/DTD/svg11.dtd">
<!-- Generated by graphviz version 13.1.2 (20250808.2320)
 -->
<!-- Title: Graphical Class Hierarchy Pages: 1 -->
<svg width="894pt" height="93pt"
 viewBox="0.00 0.00 894.00 93.00" xmlns="http://www.w3.org/2000/svg" xmlns:xlink="http://www.w3.org/1999/xlink">
<g id="graph0" class="graph" transform="scale(1 1) rotate(0) translate(4 89.12)">
<title>Graphical Class Hierarchy</title>
<!-- Node0 -->
<g id="Node000000" class="node">
<title>Node0</title>
<g id="a_Node000000"><a xlink:href="classllvm_1_1SmallVectorBase.html" target="_top" xlink:title=" ">
<polygon fill="white" stroke="#666666" points="158.5,-85.12 0,-85.12 0,-43.38 158.5,-43.38 158.5,-85.12"/>
<text xml:space="preserve" text-anchor="start" x="8" y="-71.62" font-family="Helvetica,sans-Serif" font-size="10.00">llvm::SmallVectorBase</text>
<text xml:space="preserve" text-anchor="start" x="8" y="-60.38" font-family="Helvetica,sans-Serif" font-size="10.00">&lt; SmallVectorSizeType</text>
<text xml:space="preserve" text-anchor="middle" x="79.25" y="-49.12" font-family="Helvetica,sans-Serif" font-size="10.00">&lt; llvm::cl::parser::OptionInfo &gt; &gt;</text>
</a>
</g>
</g>
<!-- Node1 -->
<g id="Node000001" class="node">
<title>Node1</title>
<g id="a_Node000001"><a xlink:href="classllvm_1_1SmallVectorTemplateCommon.html" target="_top" xlink:title=" ">
<polygon fill="white" stroke="#666666" points="327.5,-85.12 194.5,-85.12 194.5,-43.38 327.5,-43.38 327.5,-85.12"/>
<text xml:space="preserve" text-anchor="start" x="202.5" y="-71.62" font-family="Helvetica,sans-Serif" font-size="10.00">llvm::SmallVectorTemplate</text>
<text xml:space="preserve" text-anchor="start" x="202.5" y="-60.38" font-family="Helvetica,sans-Serif" font-size="10.00">Common&lt; llvm::cl::parser</text>
<text xml:space="preserve" text-anchor="middle" x="261" y="-49.12" font-family="Helvetica,sans-Serif" font-size="10.00">::OptionInfo &gt;</text>
</a>
</g>
</g>
<!-- Node0&#45;&gt;Node1 -->
<g id="edge8259_Node000000_Node000001" class="edge">
<title>Node0&#45;&gt;Node1</title>
<g id="a_edge8259_Node000000_Node000001"><a xlink:title=" ">
<path fill="none" stroke="#63b8ff" d="M170.23,-64.25C178.31,-64.25 186.4,-64.25 194.22,-64.25"/>
<polygon fill="#63b8ff" stroke="#63b8ff" points="170.34,-60.75 160.34,-64.25 170.34,-67.75 170.34,-60.75"/>
</a>
</g>
</g>
<!-- Node2 -->
<g id="Node000002" class="node">
<title>Node2</title>
<g id="a_Node000002"><a xlink:href="classllvm_1_1SmallVectorTemplateBase.html" target="_top" xlink:title=" ">
<polygon fill="white" stroke="#666666" points="496.5,-85.12 363.5,-85.12 363.5,-43.38 496.5,-43.38 496.5,-85.12"/>
<text xml:space="preserve" text-anchor="start" x="371.5" y="-71.62" font-family="Helvetica,sans-Serif" font-size="10.00">llvm::SmallVectorTemplate</text>
<text xml:space="preserve" text-anchor="start" x="371.5" y="-60.38" font-family="Helvetica,sans-Serif" font-size="10.00">Base&lt; llvm::cl::parser</text>
<text xml:space="preserve" text-anchor="middle" x="430" y="-49.12" font-family="Helvetica,sans-Serif" font-size="10.00">::OptionInfo &gt;</text>
</a>
</g>
</g>
<!-- Node1&#45;&gt;Node2 -->
<g id="edge8260_Node000001_Node000002" class="edge">
<title>Node1&#45;&gt;Node2</title>
<g id="a_edge8260_Node000001_Node000002"><a xlink:title=" ">
<path fill="none" stroke="#63b8ff" d="M338.88,-64.25C346.98,-64.25 355.16,-64.25 363.12,-64.25"/>
<polygon fill="#63b8ff" stroke="#63b8ff" points="339.04,-60.75 329.04,-64.25 339.04,-67.75 339.04,-60.75"/>
</a>
</g>
</g>
<!-- Node3 -->
<g id="Node000003" class="node">
<title>Node3</title>
<g id="a_Node000003"><a xlink:href="classllvm_1_1SmallVectorImpl.html" target="_top" xlink:title=" ">
<polygon fill="white" stroke="#666666" points="688.75,-79.5 539.25,-79.5 539.25,-49 688.75,-49 688.75,-79.5"/>
<text xml:space="preserve" text-anchor="start" x="547.25" y="-66" font-family="Helvetica,sans-Serif" font-size="10.00">llvm::SmallVectorImpl</text>
<text xml:space="preserve" text-anchor="middle" x="614" y="-54.75" font-family="Helvetica,sans-Serif" font-size="10.00">&lt; llvm::cl::parser::OptionInfo &gt;</text>
</a>
</g>
</g>
<!-- Node2&#45;&gt;Node3 -->
<g id="edge8261_Node000002_Node000003" class="edge">
<title>Node2&#45;&gt;Node3</title>
<g id="a_edge8261_Node000002_Node000003"><a xlink:title=" ">
<path fill="none" stroke="#63b8ff" d="M508.3,-64.25C518.45,-64.25 528.84,-64.25 538.94,-64.25"/>
<polygon fill="#63b8ff" stroke="#63b8ff" points="508.48,-60.75 498.48,-64.25 508.48,-67.75 508.48,-60.75"/>
</a>
</g>
</g>
<!-- Node4 -->
<g id="Node000004" class="node">
<title>Node4</title>
<g id="a_Node000004"><a xlink:href="classllvm_1_1SmallVector.html" target="_top" xlink:title=" ">
<polygon fill="white" stroke="#666666" points="886.25,-54.5 731.5,-54.5 731.5,-24 886.25,-24 886.25,-54.5"/>
<text xml:space="preserve" text-anchor="start" x="739.5" y="-41" font-family="Helvetica,sans-Serif" font-size="10.00">llvm::SmallVector&lt;</text>
<text xml:space="preserve" text-anchor="middle" x="808.88" y="-29.75" font-family="Helvetica,sans-Serif" font-size="10.00"> llvm::cl::parser::OptionInfo, 8 &gt;</text>
</a>
</g>
</g>
<!-- Node3&#45;&gt;Node4 -->
<g id="edge8262_Node000003_Node000004" class="edge">
<title>Node3&#45;&gt;Node4</title>
<g id="a_edge8262_Node000003_Node000004"><a xlink:title=" ">
<path fill="none" stroke="#63b8ff" d="M700.14,-53.21C710.47,-51.88 720.98,-50.51 731.18,-49.19"/>
<polygon fill="#63b8ff" stroke="#63b8ff" points="699.99,-49.7 690.52,-54.46 700.89,-56.65 699.99,-49.7"/>
</a>
</g>
</g>
<!-- Node5 -->
<g id="Node000005" class="node">
<title>Node5</title>
<g id="a_Node000005"><a xlink:href="structllvm_1_1SmallVectorStorage.html" target="_top" xlink:title=" ">
<polygon fill="white" stroke="#666666" points="695.5,-30.5 532.5,-30.5 532.5,0 695.5,0 695.5,-30.5"/>
<text xml:space="preserve" text-anchor="start" x="540.5" y="-17" font-family="Helvetica,sans-Serif" font-size="10.00">llvm::SmallVectorStorage</text>
<text xml:space="preserve" text-anchor="middle" x="614" y="-5.75" font-family="Helvetica,sans-Serif" font-size="10.00">&lt; llvm::cl::parser::OptionInfo, N &gt;</text>
</a>
</g>
</g>
<!-- Node5&#45;&gt;Node4 -->
<g id="edge8263_Node000005_Node000004" class="edge">
<title>Node5&#45;&gt;Node4</title>
<g id="a_edge8263_Node000005_Node000004"><a xlink:title=" ">
<path fill="none" stroke="#8b1a1a" d="M707.22,-26.73C715.23,-27.72 723.27,-28.72 731.13,-29.7"/>
<polygon fill="#8b1a1a" stroke="#8b1a1a" points="707.82,-23.27 697.46,-25.51 706.95,-30.22 707.82,-23.27"/>
</a>
</g>
</g>
</g>
</svg>
