<?xml version="1.0" encoding="UTF-8" standalone="no"?>
<!DOCTYPE svg PUBLIC "-//W3C//DTD SVG 1.1//EN"
 "http://www.w3.org/Graphics/SVG/1.1/DTD/svg11.dtd">
<!-- Generated by graphviz version 13.1.2 (20250808.2320)
 -->
<!-- Title: Graphical Class Hierarchy Pages: 1 -->
<svg width="793pt" height="115pt"
 viewBox="0.00 0.00 793.00 115.00" xmlns="http://www.w3.org/2000/svg" xmlns:xlink="http://www.w3.org/1999/xlink">
<g id="graph0" class="graph" transform="scale(1 1) rotate(0) translate(4 111.38)">
<title>Graphical Class Hierarchy</title>
<!-- Node0 -->
<g id="Node000000" class="node">
<title>Node0</title>
<g id="a_Node000000"><a xlink:href="classllvm_1_1SmallVectorBase.html" target="_top" xlink:title=" ">
<polygon fill="white" stroke="#666666" points="118.75,-107.38 0,-107.38 0,-54.38 118.75,-54.38 118.75,-107.38"/>
<text xml:space="preserve" text-anchor="start" x="8" y="-93.88" font-family="Helvetica,sans-Serif" font-size="10.00">llvm::SmallVectorBase</text>
<text xml:space="preserve" text-anchor="start" x="8" y="-82.62" font-family="Helvetica,sans-Serif" font-size="10.00">&lt; SmallVectorSizeType</text>
<text xml:space="preserve" text-anchor="start" x="8" y="-71.38" font-family="Helvetica,sans-Serif" font-size="10.00">&lt; std::pair&lt; uint8_t,</text>
<text xml:space="preserve" text-anchor="middle" x="59.38" y="-60.12" font-family="Helvetica,sans-Serif" font-size="10.00"> NVPTX::Scope &gt; &gt; &gt;</text>
</a>
</g>
</g>
<!-- Node1 -->
<g id="Node000001" class="node">
<title>Node1</title>
<g id="a_Node000001"><a xlink:href="classllvm_1_1SmallVectorTemplateCommon.html" target="_top" xlink:title=" ">
<polygon fill="white" stroke="#666666" points="287.75,-101.75 154.75,-101.75 154.75,-60 287.75,-60 287.75,-101.75"/>
<text xml:space="preserve" text-anchor="start" x="162.75" y="-88.25" font-family="Helvetica,sans-Serif" font-size="10.00">llvm::SmallVectorTemplate</text>
<text xml:space="preserve" text-anchor="start" x="162.75" y="-77" font-family="Helvetica,sans-Serif" font-size="10.00">Common&lt; std::pair&lt; uint8</text>
<text xml:space="preserve" text-anchor="middle" x="221.25" y="-65.75" font-family="Helvetica,sans-Serif" font-size="10.00">_t, NVPTX::Scope &gt; &gt;</text>
</a>
</g>
</g>
<!-- Node0&#45;&gt;Node1 -->
<g id="edge9928_Node000000_Node000001" class="edge">
<title>Node0&#45;&gt;Node1</title>
<g id="a_edge9928_Node000000_Node000001"><a xlink:title=" ">
<path fill="none" stroke="#63b8ff" d="M130.48,-80.88C138.41,-80.88 146.47,-80.88 154.34,-80.88"/>
<polygon fill="#63b8ff" stroke="#63b8ff" points="130.51,-77.38 120.51,-80.88 130.51,-84.38 130.51,-77.38"/>
</a>
</g>
</g>
<!-- Node2 -->
<g id="Node000002" class="node">
<title>Node2</title>
<g id="a_Node000002"><a xlink:href="classllvm_1_1SmallVectorTemplateBase.html" target="_top" xlink:title=" ">
<polygon fill="white" stroke="#666666" points="456.75,-101.75 323.75,-101.75 323.75,-60 456.75,-60 456.75,-101.75"/>
<text xml:space="preserve" text-anchor="start" x="331.75" y="-88.25" font-family="Helvetica,sans-Serif" font-size="10.00">llvm::SmallVectorTemplate</text>
<text xml:space="preserve" text-anchor="start" x="331.75" y="-77" font-family="Helvetica,sans-Serif" font-size="10.00">Base&lt; std::pair&lt; uint8</text>
<text xml:space="preserve" text-anchor="middle" x="390.25" y="-65.75" font-family="Helvetica,sans-Serif" font-size="10.00">_t, NVPTX::Scope &gt; &gt;</text>
</a>
</g>
</g>
<!-- Node1&#45;&gt;Node2 -->
<g id="edge9929_Node000001_Node000002" class="edge">
<title>Node1&#45;&gt;Node2</title>
<g id="a_edge9929_Node000001_Node000002"><a xlink:title=" ">
<path fill="none" stroke="#63b8ff" d="M299.13,-80.88C307.23,-80.88 315.41,-80.88 323.37,-80.88"/>
<polygon fill="#63b8ff" stroke="#63b8ff" points="299.29,-77.38 289.29,-80.88 299.29,-84.38 299.29,-77.38"/>
</a>
</g>
</g>
<!-- Node3 -->
<g id="Node000003" class="node">
<title>Node3</title>
<g id="a_Node000003"><a xlink:href="classllvm_1_1SmallVectorImpl.html" target="_top" xlink:title=" ">
<polygon fill="white" stroke="#666666" points="617.88,-101.75 505.88,-101.75 505.88,-60 617.88,-60 617.88,-101.75"/>
<text xml:space="preserve" text-anchor="start" x="513.88" y="-88.25" font-family="Helvetica,sans-Serif" font-size="10.00">llvm::SmallVectorImpl</text>
<text xml:space="preserve" text-anchor="start" x="513.88" y="-77" font-family="Helvetica,sans-Serif" font-size="10.00">&lt; std::pair&lt; uint8_t,</text>
<text xml:space="preserve" text-anchor="middle" x="561.88" y="-65.75" font-family="Helvetica,sans-Serif" font-size="10.00"> NVPTX::Scope &gt; &gt;</text>
</a>
</g>
</g>
<!-- Node2&#45;&gt;Node3 -->
<g id="edge9930_Node000002_Node000003" class="edge">
<title>Node2&#45;&gt;Node3</title>
<g id="a_edge9930_Node000002_Node000003"><a xlink:title=" ">
<path fill="none" stroke="#63b8ff" d="M468.23,-80.88C480.75,-80.88 493.51,-80.88 505.38,-80.88"/>
<polygon fill="#63b8ff" stroke="#63b8ff" points="468.35,-77.38 458.34,-80.88 468.34,-84.38 468.35,-77.38"/>
</a>
</g>
</g>
<!-- Node4 -->
<g id="Node000004" class="node">
<title>Node4</title>
<g id="a_Node000004"><a xlink:href="classllvm_1_1SmallVector.html" target="_top" xlink:title=" ">
<polygon fill="white" stroke="#666666" points="785,-71.75 667,-71.75 667,-30 785,-30 785,-71.75"/>
<text xml:space="preserve" text-anchor="start" x="675" y="-58.25" font-family="Helvetica,sans-Serif" font-size="10.00">llvm::SmallVector&lt;</text>
<text xml:space="preserve" text-anchor="start" x="675" y="-47" font-family="Helvetica,sans-Serif" font-size="10.00"> std::pair&lt; uint8_t,</text>
<text xml:space="preserve" text-anchor="middle" x="726" y="-35.75" font-family="Helvetica,sans-Serif" font-size="10.00"> NVPTX::Scope &gt;, N &gt;</text>
</a>
</g>
</g>
<!-- Node3&#45;&gt;Node4 -->
<g id="edge9931_Node000003_Node000004" class="edge">
<title>Node3&#45;&gt;Node4</title>
<g id="a_edge9931_Node000003_Node000004"><a xlink:title=" ">
<path fill="none" stroke="#63b8ff" d="M629.38,-68.57C641.72,-66.29 654.52,-63.92 666.59,-61.68"/>
<polygon fill="#63b8ff" stroke="#63b8ff" points="628.9,-65.1 619.7,-70.36 630.17,-71.98 628.9,-65.1"/>
</a>
</g>
</g>
<!-- Node5 -->
<g id="Node000005" class="node">
<title>Node5</title>
<g id="a_Node000005"><a xlink:href="structllvm_1_1SmallVectorStorage.html" target="_top" xlink:title=" ">
<polygon fill="white" stroke="#666666" points="631,-41.75 492.75,-41.75 492.75,0 631,0 631,-41.75"/>
<text xml:space="preserve" text-anchor="start" x="500.75" y="-28.25" font-family="Helvetica,sans-Serif" font-size="10.00">llvm::SmallVectorStorage</text>
<text xml:space="preserve" text-anchor="start" x="500.75" y="-17" font-family="Helvetica,sans-Serif" font-size="10.00">&lt; std::pair&lt; uint8_t, NVPTX</text>
<text xml:space="preserve" text-anchor="middle" x="561.88" y="-5.75" font-family="Helvetica,sans-Serif" font-size="10.00">::Scope &gt;, N &gt;</text>
</a>
</g>
</g>
<!-- Node5&#45;&gt;Node4 -->
<g id="edge9932_Node000005_Node000004" class="edge">
<title>Node5&#45;&gt;Node4</title>
<g id="a_edge9932_Node000005_Node000004"><a xlink:title=" ">
<path fill="none" stroke="#8b1a1a" d="M642.27,-35.57C650.45,-37.08 658.66,-38.6 666.55,-40.06"/>
<polygon fill="#8b1a1a" stroke="#8b1a1a" points="643.12,-32.16 632.65,-33.79 641.85,-39.05 643.12,-32.16"/>
</a>
</g>
</g>
</g>
</svg>
