<?xml version="1.0" encoding="UTF-8" standalone="no"?>
<!DOCTYPE svg PUBLIC "-//W3C//DTD SVG 1.1//EN"
 "http://www.w3.org/Graphics/SVG/1.1/DTD/svg11.dtd">
<!-- Generated by graphviz version 13.1.2 (20250808.2320)
 -->
<!-- Title: Graphical Class Hierarchy Pages: 1 -->
<svg width="271pt" height="508pt"
 viewBox="0.00 0.00 271.00 508.00" xmlns="http://www.w3.org/2000/svg" xmlns:xlink="http://www.w3.org/1999/xlink">
<g id="graph0" class="graph" transform="scale(1 1) rotate(0) translate(4 504.25)">
<title>Graphical Class Hierarchy</title>
<!-- Node0 -->
<g id="Node000000" class="node">
<title>Node0</title>
<g id="a_Node000000"><a xlink:href="classllvm_1_1BTFTypeBase.html" target="_top" xlink:title="The base class for BTF type generation.">
<polygon fill="white" stroke="#666666" points="102.25,-259.25 0,-259.25 0,-240 102.25,-240 102.25,-259.25"/>
<text xml:space="preserve" text-anchor="middle" x="51.12" y="-245.75" font-family="Helvetica,sans-Serif" font-size="10.00">llvm::BTFTypeBase</text>
</a>
</g>
</g>
<!-- Node1 -->
<g id="Node000001" class="node">
<title>Node1</title>
<g id="a_Node000001"><a xlink:href="classllvm_1_1BTFKindDataSec.html" target="_top" xlink:title="Handle data sections.">
<polygon fill="white" stroke="#666666" points="258.88,-500.25 142.38,-500.25 142.38,-481 258.88,-481 258.88,-500.25"/>
<text xml:space="preserve" text-anchor="middle" x="200.62" y="-486.75" font-family="Helvetica,sans-Serif" font-size="10.00">llvm::BTFKindDataSec</text>
</a>
</g>
</g>
<!-- Node0&#45;&gt;Node1 -->
<g id="edge861_Node000000_Node000001" class="edge">
<title>Node0&#45;&gt;Node1</title>
<g id="a_edge861_Node000000_Node000001"><a xlink:title=" ">
<path fill="none" stroke="#63b8ff" d="M54.11,-270.54C59.42,-314.53 77.93,-417.13 138.25,-472.62 141.68,-475.78 145.64,-478.39 149.86,-480.54"/>
<polygon fill="#63b8ff" stroke="#63b8ff" points="57.62,-270.4 53.06,-260.83 50.66,-271.15 57.62,-270.4"/>
</a>
</g>
</g>
<!-- Node2 -->
<g id="Node000002" class="node">
<title>Node2</title>
<g id="a_Node000002"><a xlink:href="classllvm_1_1BTFKindVar.html" target="_top" xlink:title="Handle variable instances.">
<polygon fill="white" stroke="#666666" points="246.88,-463.25 154.38,-463.25 154.38,-444 246.88,-444 246.88,-463.25"/>
<text xml:space="preserve" text-anchor="middle" x="200.62" y="-449.75" font-family="Helvetica,sans-Serif" font-size="10.00">llvm::BTFKindVar</text>
</a>
</g>
</g>
<!-- Node0&#45;&gt;Node2 -->
<g id="edge862_Node000000_Node000002" class="edge">
<title>Node0&#45;&gt;Node2</title>
<g id="a_edge862_Node000000_Node000002"><a xlink:title=" ">
<path fill="none" stroke="#63b8ff" d="M55.96,-270.71C64.07,-309.24 86.66,-391.17 138.25,-435.62 142.88,-439.61 148.35,-442.72 154.09,-445.13"/>
<polygon fill="#63b8ff" stroke="#63b8ff" points="59.39,-270.04 54.03,-260.9 52.52,-271.39 59.39,-270.04"/>
</a>
</g>
</g>
<!-- Node3 -->
<g id="Node000003" class="node">
<title>Node3</title>
<g id="a_Node000003"><a xlink:href="classllvm_1_1BTFTypeArray.html" target="_top" xlink:title="Handle array type.">
<polygon fill="white" stroke="#666666" points="252.12,-426.25 149.12,-426.25 149.12,-407 252.12,-407 252.12,-426.25"/>
<text xml:space="preserve" text-anchor="middle" x="200.62" y="-412.75" font-family="Helvetica,sans-Serif" font-size="10.00">llvm::BTFTypeArray</text>
</a>
</g>
</g>
<!-- Node0&#45;&gt;Node3 -->
<g id="edge863_Node000000_Node000003" class="edge">
<title>Node0&#45;&gt;Node3</title>
<g id="a_edge863_Node000000_Node000003"><a xlink:title=" ">
<path fill="none" stroke="#63b8ff" d="M58.55,-270.53C69.57,-302.85 95.13,-364.74 138.25,-398.62 142.27,-401.78 146.82,-404.38 151.59,-406.53"/>
<polygon fill="#63b8ff" stroke="#63b8ff" points="61.92,-269.58 55.51,-261.15 55.27,-271.74 61.92,-269.58"/>
</a>
</g>
</g>
<!-- Node4 -->
<g id="Node000004" class="node">
<title>Node4</title>
<g id="a_Node000004"><a xlink:href="classllvm_1_1BTFTypeDeclTag.html" target="_top" xlink:title="Handle decl tags.">
<polygon fill="white" stroke="#666666" points="258.5,-389.25 142.75,-389.25 142.75,-370 258.5,-370 258.5,-389.25"/>
<text xml:space="preserve" text-anchor="middle" x="200.62" y="-375.75" font-family="Helvetica,sans-Serif" font-size="10.00">llvm::BTFTypeDeclTag</text>
</a>
</g>
</g>
<!-- Node0&#45;&gt;Node4 -->
<g id="edge864_Node000000_Node000004" class="edge">
<title>Node0&#45;&gt;Node4</title>
<g id="a_edge864_Node000000_Node000004"><a xlink:title=" ">
<path fill="none" stroke="#63b8ff" d="M62.29,-269.6C76.1,-294.76 103.16,-337.61 138.25,-361.62 142.83,-364.76 147.96,-367.36 153.26,-369.51"/>
<polygon fill="#63b8ff" stroke="#63b8ff" points="65.53,-268.24 57.75,-261.05 59.35,-271.52 65.53,-268.24"/>
</a>
</g>
</g>
<!-- Node5 -->
<g id="Node000005" class="node">
<title>Node5</title>
<g id="a_Node000005"><a xlink:href="classllvm_1_1BTFTypeDerived.html" target="_top" xlink:title="Handle several derived types include pointer, const, volatile, typedef and restrict.">
<polygon fill="white" stroke="#666666" points="257.38,-352.25 143.88,-352.25 143.88,-333 257.38,-333 257.38,-352.25"/>
<text xml:space="preserve" text-anchor="middle" x="200.62" y="-338.75" font-family="Helvetica,sans-Serif" font-size="10.00">llvm::BTFTypeDerived</text>
</a>
</g>
</g>
<!-- Node0&#45;&gt;Node5 -->
<g id="edge865_Node000000_Node000005" class="edge">
<title>Node0&#45;&gt;Node5</title>
<g id="a_edge865_Node000000_Node000005"><a xlink:title=" ">
<path fill="none" stroke="#63b8ff" d="M68.39,-267.72C84.56,-284.68 110.85,-309.63 138.25,-324.62 143.9,-327.72 150.14,-330.33 156.41,-332.53"/>
<polygon fill="#63b8ff" stroke="#63b8ff" points="71.3,-265.72 61.93,-260.78 66.18,-270.48 71.3,-265.72"/>
</a>
</g>
</g>
<!-- Node6 -->
<g id="Node000006" class="node">
<title>Node6</title>
<g id="a_Node000006"><a xlink:href="classllvm_1_1BTFTypeEnum.html" target="_top" xlink:title="Handle enumerate type.">
<polygon fill="white" stroke="#666666" points="253.25,-315.25 148,-315.25 148,-296 253.25,-296 253.25,-315.25"/>
<text xml:space="preserve" text-anchor="middle" x="200.62" y="-301.75" font-family="Helvetica,sans-Serif" font-size="10.00">llvm::BTFTypeEnum</text>
</a>
</g>
</g>
<!-- Node0&#45;&gt;Node6 -->
<g id="edge866_Node000000_Node000006" class="edge">
<title>Node0&#45;&gt;Node6</title>
<g id="a_edge866_Node000000_Node000006"><a xlink:title=" ">
<path fill="none" stroke="#63b8ff" d="M82.73,-264.29C99.01,-271.8 119.49,-280.77 138.25,-287.62 145.97,-290.45 154.35,-293.14 162.37,-295.54"/>
<polygon fill="#63b8ff" stroke="#63b8ff" points="84.61,-261.31 74.07,-260.25 81.65,-267.65 84.61,-261.31"/>
</a>
</g>
</g>
<!-- Node7 -->
<g id="Node000007" class="node">
<title>Node7</title>
<g id="a_Node000007"><a xlink:href="classllvm_1_1BTFTypeEnum64.html" target="_top" xlink:title="Handle 64&#45;bit enumerate type.">
<polygon fill="white" stroke="#666666" points="258.5,-278.25 142.75,-278.25 142.75,-259 258.5,-259 258.5,-278.25"/>
<text xml:space="preserve" text-anchor="middle" x="200.62" y="-264.75" font-family="Helvetica,sans-Serif" font-size="10.00">llvm::BTFTypeEnum64</text>
</a>
</g>
</g>
<!-- Node0&#45;&gt;Node7 -->
<g id="edge867_Node000000_Node000007" class="edge">
<title>Node0&#45;&gt;Node7</title>
<g id="a_edge867_Node000000_Node000007"><a xlink:title=" ">
<path fill="none" stroke="#63b8ff" d="M113.84,-257.57C123.31,-258.79 133.04,-260.05 142.4,-261.25"/>
<polygon fill="#63b8ff" stroke="#63b8ff" points="114.34,-254.11 103.97,-256.3 113.45,-261.05 114.34,-254.11"/>
</a>
</g>
</g>
<!-- Node8 -->
<g id="Node000008" class="node">
<title>Node8</title>
<g id="a_Node000008"><a xlink:href="classllvm_1_1BTFTypeFloat.html" target="_top" xlink:title="Handle binary floating point type.">
<polygon fill="white" stroke="#666666" points="251.38,-241.25 149.88,-241.25 149.88,-222 251.38,-222 251.38,-241.25"/>
<text xml:space="preserve" text-anchor="middle" x="200.62" y="-227.75" font-family="Helvetica,sans-Serif" font-size="10.00">llvm::BTFTypeFloat</text>
</a>
</g>
</g>
<!-- Node0&#45;&gt;Node8 -->
<g id="edge868_Node000000_Node000008" class="edge">
<title>Node0&#45;&gt;Node8</title>
<g id="a_edge868_Node000000_Node000008"><a xlink:title=" ">
<path fill="none" stroke="#63b8ff" d="M113.73,-242.11C125.65,-240.65 138,-239.14 149.5,-237.74"/>
<polygon fill="#63b8ff" stroke="#63b8ff" points="113.48,-238.61 103.98,-243.3 114.33,-245.56 113.48,-238.61"/>
</a>
</g>
</g>
<!-- Node9 -->
<g id="Node000009" class="node">
<title>Node9</title>
<g id="a_Node000009"><a xlink:href="classllvm_1_1BTFTypeFunc.html" target="_top" xlink:title="Handle subprogram.">
<polygon fill="white" stroke="#666666" points="251.38,-204.25 149.88,-204.25 149.88,-185 251.38,-185 251.38,-204.25"/>
<text xml:space="preserve" text-anchor="middle" x="200.62" y="-190.75" font-family="Helvetica,sans-Serif" font-size="10.00">llvm::BTFTypeFunc</text>
</a>
</g>
</g>
<!-- Node0&#45;&gt;Node9 -->
<g id="edge869_Node000000_Node000009" class="edge">
<title>Node0&#45;&gt;Node9</title>
<g id="a_edge869_Node000000_Node000009"><a xlink:title=" ">
<path fill="none" stroke="#63b8ff" d="M83.89,-234.89C99.99,-227.7 119.96,-219.21 138.25,-212.62 146.09,-209.8 154.6,-207.09 162.72,-204.67"/>
<polygon fill="#63b8ff" stroke="#63b8ff" points="82.48,-231.69 74.81,-239 85.36,-238.07 82.48,-231.69"/>
</a>
</g>
</g>
<!-- Node10 -->
<g id="Node000010" class="node">
<title>Node10</title>
<g id="a_Node000010"><a xlink:href="classllvm_1_1BTFTypeFuncProto.html" target="_top" xlink:title="Handle function pointer.">
<polygon fill="white" stroke="#666666" points="263,-167.25 138.25,-167.25 138.25,-148 263,-148 263,-167.25"/>
<text xml:space="preserve" text-anchor="middle" x="200.62" y="-153.75" font-family="Helvetica,sans-Serif" font-size="10.00">llvm::BTFTypeFuncProto</text>
</a>
</g>
</g>
<!-- Node0&#45;&gt;Node10 -->
<g id="edge870_Node000000_Node000010" class="edge">
<title>Node0&#45;&gt;Node10</title>
<g id="a_edge870_Node000000_Node000010"><a xlink:title=" ">
<path fill="none" stroke="#63b8ff" d="M68.43,-231.78C84.64,-215.05 110.96,-190.45 138.25,-175.62 144.01,-172.5 150.37,-169.86 156.76,-167.64"/>
<polygon fill="#63b8ff" stroke="#63b8ff" points="66.3,-228.95 61.97,-238.62 71.38,-233.76 66.3,-228.95"/>
</a>
</g>
</g>
<!-- Node11 -->
<g id="Node000011" class="node">
<title>Node11</title>
<g id="a_Node000011"><a xlink:href="classllvm_1_1BTFTypeFwd.html" target="_top" xlink:title="Handle struct or union forward declaration.">
<polygon fill="white" stroke="#666666" points="249.88,-130.25 151.38,-130.25 151.38,-111 249.88,-111 249.88,-130.25"/>
<text xml:space="preserve" text-anchor="middle" x="200.62" y="-116.75" font-family="Helvetica,sans-Serif" font-size="10.00">llvm::BTFTypeFwd</text>
</a>
</g>
</g>
<!-- Node0&#45;&gt;Node11 -->
<g id="edge871_Node000000_Node000011" class="edge">
<title>Node0&#45;&gt;Node11</title>
<g id="a_edge871_Node000000_Node000011"><a xlink:title=" ">
<path fill="none" stroke="#63b8ff" d="M62.52,-229.49C76.44,-204.51 103.46,-162.33 138.25,-138.62 142.93,-135.44 148.18,-132.8 153.59,-130.63"/>
<polygon fill="#63b8ff" stroke="#63b8ff" points="59.44,-227.83 57.78,-238.3 65.6,-231.15 59.44,-227.83"/>
</a>
</g>
</g>
<!-- Node12 -->
<g id="Node000012" class="node">
<title>Node12</title>
<g id="a_Node000012"><a xlink:href="classllvm_1_1BTFTypeInt.html" target="_top" xlink:title="Handle int type.">
<polygon fill="white" stroke="#666666" points="246.12,-93.25 155.12,-93.25 155.12,-74 246.12,-74 246.12,-93.25"/>
<text xml:space="preserve" text-anchor="middle" x="200.62" y="-79.75" font-family="Helvetica,sans-Serif" font-size="10.00">llvm::BTFTypeInt</text>
</a>
</g>
</g>
<!-- Node0&#45;&gt;Node12 -->
<g id="edge872_Node000000_Node000012" class="edge">
<title>Node0&#45;&gt;Node12</title>
<g id="a_edge872_Node000000_Node000012"><a xlink:title=" ">
<path fill="none" stroke="#63b8ff" d="M58.59,-228.86C69.66,-196.76 95.29,-135.28 138.25,-101.62 143.15,-97.79 148.84,-94.77 154.74,-92.4"/>
<polygon fill="#63b8ff" stroke="#63b8ff" points="55.33,-227.57 55.53,-238.17 61.98,-229.76 55.33,-227.57"/>
</a>
</g>
</g>
<!-- Node13 -->
<g id="Node000013" class="node">
<title>Node13</title>
<g id="a_Node000013"><a xlink:href="classllvm_1_1BTFTypeStruct.html" target="_top" xlink:title="Handle struct/union type.">
<polygon fill="white" stroke="#666666" points="253.62,-56.25 147.62,-56.25 147.62,-37 253.62,-37 253.62,-56.25"/>
<text xml:space="preserve" text-anchor="middle" x="200.62" y="-42.75" font-family="Helvetica,sans-Serif" font-size="10.00">llvm::BTFTypeStruct</text>
</a>
</g>
</g>
<!-- Node0&#45;&gt;Node13 -->
<g id="edge873_Node000000_Node000013" class="edge">
<title>Node0&#45;&gt;Node13</title>
<g id="a_edge873_Node000000_Node000013"><a xlink:title=" ">
<path fill="none" stroke="#63b8ff" d="M55.99,-228.66C64.17,-190.32 86.84,-108.83 138.25,-64.62 141.95,-61.44 146.2,-58.82 150.69,-56.66"/>
<polygon fill="#63b8ff" stroke="#63b8ff" points="52.57,-227.91 54.05,-238.4 59.44,-229.28 52.57,-227.91"/>
</a>
</g>
</g>
<!-- Node14 -->
<g id="Node000014" class="node">
<title>Node14</title>
<g id="a_Node000014"><a xlink:href="classllvm_1_1BTFTypeTypeTag.html" target="_top" xlink:title=" ">
<polygon fill="white" stroke="#666666" points="258.88,-19.25 142.38,-19.25 142.38,0 258.88,0 258.88,-19.25"/>
<text xml:space="preserve" text-anchor="middle" x="200.62" y="-5.75" font-family="Helvetica,sans-Serif" font-size="10.00">llvm::BTFTypeTypeTag</text>
</a>
</g>
</g>
<!-- Node0&#45;&gt;Node14 -->
<g id="edge874_Node000000_Node000014" class="edge">
<title>Node0&#45;&gt;Node14</title>
<g id="a_edge874_Node000000_Node000014"><a xlink:title=" ">
<path fill="none" stroke="#63b8ff" d="M54.14,-228.8C59.51,-185 78.12,-82.86 138.25,-27.62 141.68,-24.47 145.64,-21.87 149.86,-19.72"/>
<polygon fill="#63b8ff" stroke="#63b8ff" points="50.69,-228.14 53.08,-238.46 57.65,-228.9 50.69,-228.14"/>
</a>
</g>
</g>
</g>
</svg>
