<?xml version="1.0" encoding="UTF-8" standalone="no"?>
<!DOCTYPE svg PUBLIC "-//W3C//DTD SVG 1.1//EN"
 "http://www.w3.org/Graphics/SVG/1.1/DTD/svg11.dtd">
<!-- Generated by graphviz version 13.1.2 (20250808.2320)
 -->
<!-- Title: Graphical Class Hierarchy Pages: 1 -->
<svg width="357pt" height="354pt"
 viewBox="0.00 0.00 357.00 354.00" xmlns="http://www.w3.org/2000/svg" xmlns:xlink="http://www.w3.org/1999/xlink">
<g id="graph0" class="graph" transform="scale(1 1) rotate(0) translate(4 350.12)">
<title>Graphical Class Hierarchy</title>
<!-- Node0 -->
<g id="Node000000" class="node">
<title>Node0</title>
<g id="a_Node000000"><a xlink:href="classllvm_1_1cl_1_1bits__storage_3_01DataType_00_01bool_01_4.html" target="_top" xlink:title=" ">
<polygon fill="white" stroke="#666666" points="131.12,-346.12 24.38,-346.12 24.38,-315.62 131.12,-315.62 131.12,-346.12"/>
<text xml:space="preserve" text-anchor="start" x="32.38" y="-332.62" font-family="Helvetica,sans-Serif" font-size="10.00">llvm::cl::bits_storage</text>
<text xml:space="preserve" text-anchor="middle" x="77.75" y="-321.38" font-family="Helvetica,sans-Serif" font-size="10.00">&lt; DataType, bool &gt;</text>
</a>
</g>
</g>
<!-- Node1 -->
<g id="Node000001" class="node">
<title>Node1</title>
<g id="a_Node000001"><a xlink:href="classllvm_1_1cl_1_1bits.html" target="_top" xlink:title=" ">
<polygon fill="white" stroke="#666666" points="332,-346.12 208.75,-346.12 208.75,-315.62 332,-315.62 332,-346.12"/>
<text xml:space="preserve" text-anchor="start" x="216.75" y="-332.62" font-family="Helvetica,sans-Serif" font-size="10.00">llvm::cl::bits&lt; DataType,</text>
<text xml:space="preserve" text-anchor="middle" x="270.38" y="-321.38" font-family="Helvetica,sans-Serif" font-size="10.00"> Storage, ParserClass &gt;</text>
</a>
</g>
</g>
<!-- Node0&#45;&gt;Node1 -->
<g id="edge988_Node000000_Node000001" class="edge">
<title>Node0&#45;&gt;Node1</title>
<g id="a_edge988_Node000000_Node000001"><a xlink:title=" ">
<path fill="none" stroke="#63b8ff" d="M143.05,-330.88C164.14,-330.88 187.5,-330.88 208.34,-330.88"/>
<polygon fill="#63b8ff" stroke="#63b8ff" points="143.11,-327.38 133.11,-330.88 143.11,-334.38 143.11,-327.38"/>
</a>
</g>
</g>
<!-- Node4 -->
<g id="Node000004" class="node">
<title>Node4</title>
<g id="a_Node000004"><a xlink:href="classllvm_1_1cl_1_1list__storage.html" target="_top" xlink:title=" ">
<polygon fill="white" stroke="#666666" points="148.38,-297.12 7.12,-297.12 7.12,-266.62 148.38,-266.62 148.38,-297.12"/>
<text xml:space="preserve" text-anchor="start" x="15.12" y="-283.62" font-family="Helvetica,sans-Serif" font-size="10.00">llvm::cl::list_storage</text>
<text xml:space="preserve" text-anchor="middle" x="77.75" y="-272.38" font-family="Helvetica,sans-Serif" font-size="10.00">&lt; DataType, StorageClass &gt;</text>
</a>
</g>
</g>
<!-- Node3 -->
<g id="Node000003" class="node">
<title>Node3</title>
<g id="a_Node000003"><a xlink:href="classllvm_1_1cl_1_1list.html" target="_top" xlink:title=" ">
<polygon fill="white" stroke="#666666" points="332.38,-297.12 208.38,-297.12 208.38,-266.62 332.38,-266.62 332.38,-297.12"/>
<text xml:space="preserve" text-anchor="start" x="216.38" y="-283.62" font-family="Helvetica,sans-Serif" font-size="10.00">llvm::cl::list&lt; std</text>
<text xml:space="preserve" text-anchor="middle" x="270.38" y="-272.38" font-family="Helvetica,sans-Serif" font-size="10.00">::string, DebugCounter &gt;</text>
</a>
</g>
</g>
<!-- Node4&#45;&gt;Node3 -->
<g id="edge989_Node000004_Node000003" class="edge">
<title>Node4&#45;&gt;Node3</title>
<g id="a_edge989_Node000004_Node000003"><a xlink:title=" ">
<path fill="none" stroke="#63b8ff" d="M159.72,-281.88C175.89,-281.88 192.61,-281.88 207.98,-281.88"/>
<polygon fill="#63b8ff" stroke="#63b8ff" points="160.16,-278.38 150.16,-281.88 160.16,-285.38 160.16,-278.38"/>
</a>
</g>
</g>
<!-- Node11 -->
<g id="Node000011" class="node">
<title>Node11</title>
<g id="a_Node000011"><a xlink:href="classllvm_1_1cl_1_1list__storage_3_01DataType_00_01bool_01_4.html" target="_top" xlink:title=" ">
<polygon fill="white" stroke="#666666" points="129.62,-248.12 25.88,-248.12 25.88,-217.62 129.62,-217.62 129.62,-248.12"/>
<text xml:space="preserve" text-anchor="start" x="33.88" y="-234.62" font-family="Helvetica,sans-Serif" font-size="10.00">llvm::cl::list_storage</text>
<text xml:space="preserve" text-anchor="middle" x="77.75" y="-223.38" font-family="Helvetica,sans-Serif" font-size="10.00">&lt; DataType, bool &gt;</text>
</a>
</g>
</g>
<!-- Node10 -->
<g id="Node000010" class="node">
<title>Node10</title>
<g id="a_Node000010"><a xlink:href="classllvm_1_1cl_1_1list.html" target="_top" xlink:title=" ">
<polygon fill="white" stroke="#666666" points="344,-248.12 196.75,-248.12 196.75,-217.62 344,-217.62 344,-248.12"/>
<text xml:space="preserve" text-anchor="start" x="204.75" y="-234.62" font-family="Helvetica,sans-Serif" font-size="10.00">llvm::cl::list&lt; DataType,</text>
<text xml:space="preserve" text-anchor="middle" x="270.38" y="-223.38" font-family="Helvetica,sans-Serif" font-size="10.00"> StorageClass, ParserClass &gt;</text>
</a>
</g>
</g>
<!-- Node11&#45;&gt;Node10 -->
<g id="edge990_Node000011_Node000010" class="edge">
<title>Node11&#45;&gt;Node10</title>
<g id="a_edge990_Node000011_Node000010"><a xlink:title=" ">
<path fill="none" stroke="#63b8ff" d="M141.39,-232.88C159,-232.88 178.31,-232.88 196.46,-232.88"/>
<polygon fill="#63b8ff" stroke="#63b8ff" points="141.6,-229.38 131.6,-232.88 141.6,-236.38 141.6,-229.38"/>
</a>
</g>
</g>
<!-- Node8 -->
<g id="Node000008" class="node">
<title>Node8</title>
<g id="a_Node000008"><a xlink:href="classllvm_1_1cl_1_1opt__storage.html" target="_top" xlink:title=" ">
<polygon fill="white" stroke="#666666" points="130,-161.75 25.5,-161.75 25.5,-120 130,-120 130,-161.75"/>
<text xml:space="preserve" text-anchor="start" x="33.5" y="-148.25" font-family="Helvetica,sans-Serif" font-size="10.00">llvm::cl::opt_storage</text>
<text xml:space="preserve" text-anchor="start" x="33.5" y="-137" font-family="Helvetica,sans-Serif" font-size="10.00">&lt; bool, false, std::is</text>
<text xml:space="preserve" text-anchor="middle" x="77.75" y="-125.75" font-family="Helvetica,sans-Serif" font-size="10.00">_class_v&lt; bool &gt; &gt;</text>
</a>
</g>
</g>
<!-- Node7 -->
<g id="Node000007" class="node">
<title>Node7</title>
<g id="a_Node000007"><a xlink:href="classllvm_1_1cl_1_1opt.html" target="_top" xlink:title=" ">
<polygon fill="white" stroke="#666666" points="321.88,-156.5 218.88,-156.5 218.88,-137.25 321.88,-137.25 321.88,-156.5"/>
<text xml:space="preserve" text-anchor="middle" x="270.38" y="-143" font-family="Helvetica,sans-Serif" font-size="10.00">llvm::cl::opt&lt; bool &gt;</text>
</a>
</g>
</g>
<!-- Node8&#45;&gt;Node7 -->
<g id="edge991_Node000008_Node000007" class="edge">
<title>Node8&#45;&gt;Node7</title>
<g id="a_edge991_Node000008_Node000007"><a xlink:title=" ">
<path fill="none" stroke="#63b8ff" d="M141.53,-142.85C166.46,-143.64 194.78,-144.53 218.41,-145.27"/>
<polygon fill="#63b8ff" stroke="#63b8ff" points="141.95,-139.36 131.85,-142.55 141.73,-146.36 141.95,-139.36"/>
</a>
</g>
</g>
<!-- Node13 -->
<g id="Node000013" class="node">
<title>Node13</title>
<g id="a_Node000013"><a xlink:href="classllvm_1_1cl_1_1opt__storage.html" target="_top" xlink:title=" ">
<polygon fill="white" stroke="#666666" points="146.5,-101.75 9,-101.75 9,-60 146.5,-60 146.5,-101.75"/>
<text xml:space="preserve" text-anchor="start" x="17" y="-88.25" font-family="Helvetica,sans-Serif" font-size="10.00">llvm::cl::opt_storage</text>
<text xml:space="preserve" text-anchor="start" x="17" y="-77" font-family="Helvetica,sans-Serif" font-size="10.00">&lt; DataType, false, std</text>
<text xml:space="preserve" text-anchor="middle" x="77.75" y="-65.75" font-family="Helvetica,sans-Serif" font-size="10.00">::is_class_v&lt; DataType &gt; &gt;</text>
</a>
</g>
</g>
<!-- Node12 -->
<g id="Node000012" class="node">
<title>Node12</title>
<g id="a_Node000012"><a xlink:href="classllvm_1_1cl_1_1opt.html" target="_top" xlink:title=" ">
<polygon fill="white" stroke="#666666" points="349.25,-104.12 191.5,-104.12 191.5,-73.62 349.25,-73.62 349.25,-104.12"/>
<text xml:space="preserve" text-anchor="start" x="199.5" y="-90.62" font-family="Helvetica,sans-Serif" font-size="10.00">llvm::cl::opt&lt; DataType,</text>
<text xml:space="preserve" text-anchor="middle" x="270.38" y="-79.38" font-family="Helvetica,sans-Serif" font-size="10.00"> ExternalStorage, ParserClass &gt;</text>
</a>
</g>
</g>
<!-- Node13&#45;&gt;Node12 -->
<g id="edge992_Node000013_Node000012" class="edge">
<title>Node13&#45;&gt;Node12</title>
<g id="a_edge992_Node000013_Node000012"><a xlink:title=" ">
<path fill="none" stroke="#63b8ff" d="M158.08,-84.2C169.07,-84.67 180.35,-85.14 191.32,-85.6"/>
<polygon fill="#63b8ff" stroke="#63b8ff" points="158.41,-80.72 148.27,-83.79 158.12,-87.71 158.41,-80.72"/>
</a>
</g>
</g>
<!-- Node6 -->
<g id="Node000006" class="node">
<title>Node6</title>
<g id="a_Node000006"><a xlink:href="classllvm_1_1cl_1_1opt__storage.html" target="_top" xlink:title=" ">
<polygon fill="white" stroke="#666666" points="155.5,-41.75 0,-41.75 0,0 155.5,0 155.5,-41.75"/>
<text xml:space="preserve" text-anchor="start" x="8" y="-28.25" font-family="Helvetica,sans-Serif" font-size="10.00">llvm::cl::opt_storage</text>
<text xml:space="preserve" text-anchor="start" x="8" y="-17" font-family="Helvetica,sans-Serif" font-size="10.00">&lt; std::string, ExternalStorage,</text>
<text xml:space="preserve" text-anchor="middle" x="77.75" y="-5.75" font-family="Helvetica,sans-Serif" font-size="10.00"> std::is_class_v&lt; std::string &gt; &gt;</text>
</a>
</g>
</g>
<!-- Node5 -->
<g id="Node000005" class="node">
<title>Node5</title>
<g id="a_Node000005"><a xlink:href="classllvm_1_1cl_1_1opt.html" target="_top" xlink:title=" ">
<polygon fill="white" stroke="#666666" points="315.12,-50.12 225.62,-50.12 225.62,-19.62 315.12,-19.62 315.12,-50.12"/>
<text xml:space="preserve" text-anchor="start" x="233.62" y="-36.62" font-family="Helvetica,sans-Serif" font-size="10.00">llvm::cl::opt&lt; std</text>
<text xml:space="preserve" text-anchor="middle" x="270.38" y="-25.38" font-family="Helvetica,sans-Serif" font-size="10.00">::string, true &gt;</text>
</a>
</g>
</g>
<!-- Node6&#45;&gt;Node5 -->
<g id="edge993_Node000006_Node000005" class="edge">
<title>Node6&#45;&gt;Node5</title>
<g id="a_edge993_Node000006_Node000005"><a xlink:title=" ">
<path fill="none" stroke="#63b8ff" d="M167.2,-27.37C187.36,-28.85 207.94,-30.36 225.29,-31.64"/>
<polygon fill="#63b8ff" stroke="#63b8ff" points="167.47,-23.88 157.24,-26.64 166.96,-30.86 167.47,-23.88"/>
</a>
</g>
</g>
<!-- Node2 -->
<g id="Node000002" class="node">
<title>Node2</title>
<g id="a_Node000002"><a xlink:href="classllvm_1_1cl_1_1Option.html" target="_top" xlink:title=" ">
<polygon fill="white" stroke="#666666" points="118.75,-199.5 36.75,-199.5 36.75,-180.25 118.75,-180.25 118.75,-199.5"/>
<text xml:space="preserve" text-anchor="middle" x="77.75" y="-186" font-family="Helvetica,sans-Serif" font-size="10.00">llvm::cl::Option</text>
</a>
</g>
</g>
<!-- Node2&#45;&gt;Node1 -->
<g id="edge998_Node000002_Node000001" class="edge">
<title>Node2&#45;&gt;Node1</title>
<g id="a_edge998_Node000002_Node000001"><a xlink:title=" ">
<path fill="none" stroke="#63b8ff" d="M129.9,-195.2C139.24,-198.1 148.29,-202.43 155.5,-208.88 189.8,-239.51 158.26,-274.09 191.5,-305.88 196.43,-310.59 202.24,-314.41 208.44,-317.51"/>
<polygon fill="#63b8ff" stroke="#63b8ff" points="130.92,-191.85 120.37,-192.78 129.21,-198.63 130.92,-191.85"/>
</a>
</g>
</g>
<!-- Node2&#45;&gt;Node3 -->
<g id="edge994_Node000002_Node000003" class="edge">
<title>Node2&#45;&gt;Node3</title>
<g id="a_edge994_Node000002_Node000003"><a xlink:title=" ">
<path fill="none" stroke="#63b8ff" d="M130.01,-197.37C138.97,-200.09 147.85,-203.81 155.5,-208.88 177.73,-223.6 169.78,-241.4 191.5,-256.88 196.59,-260.5 202.23,-263.62 208.08,-266.29"/>
<polygon fill="#63b8ff" stroke="#63b8ff" points="131.16,-194.05 120.6,-194.9 129.38,-200.82 131.16,-194.05"/>
</a>
</g>
</g>
<!-- Node2&#45;&gt;Node10 -->
<g id="edge999_Node000002_Node000010" class="edge">
<title>Node2&#45;&gt;Node10</title>
<g id="a_edge999_Node000002_Node000010"><a xlink:title=" ">
<path fill="none" stroke="#63b8ff" d="M130.3,-201.5C151.66,-206.32 176.77,-211.99 199.73,-217.16"/>
<polygon fill="#63b8ff" stroke="#63b8ff" points="131.18,-198.11 120.65,-199.33 129.64,-204.94 131.18,-198.11"/>
</a>
</g>
</g>
<!-- Node2&#45;&gt;Node7 -->
<g id="edge996_Node000002_Node000007" class="edge">
<title>Node2&#45;&gt;Node7</title>
<g id="a_edge996_Node000002_Node000007"><a xlink:title=" ">
<path fill="none" stroke="#63b8ff" d="M130.11,-178.29C159.63,-171.63 196.35,-163.35 224.67,-156.96"/>
<polygon fill="#63b8ff" stroke="#63b8ff" points="129.64,-174.81 120.65,-180.42 131.18,-181.64 129.64,-174.81"/>
</a>
</g>
</g>
<!-- Node2&#45;&gt;Node12 -->
<g id="edge1000_Node000002_Node000012" class="edge">
<title>Node2&#45;&gt;Node12</title>
<g id="a_edge1000_Node000002_Node000012"><a xlink:title=" ">
<path fill="none" stroke="#63b8ff" d="M129.79,-182.04C138.77,-179.35 147.72,-175.73 155.5,-170.88 176.64,-157.67 171.95,-143.33 191.5,-127.88 203.12,-118.68 217.26,-110.82 230.28,-104.6"/>
<polygon fill="#63b8ff" stroke="#63b8ff" points="129.16,-178.59 120.37,-184.51 130.93,-185.36 129.16,-178.59"/>
</a>
</g>
</g>
<!-- Node2&#45;&gt;Node5 -->
<g id="edge995_Node000002_Node000005" class="edge">
<title>Node2&#45;&gt;Node5</title>
<g id="a_edge995_Node000002_Node000005"><a xlink:title=" ">
<path fill="none" stroke="#63b8ff" d="M130.04,-184.71C139.37,-181.8 148.38,-177.42 155.5,-170.88 192.14,-137.22 157.03,-100.76 191.5,-64.88 200.63,-55.37 213.11,-48.83 225.41,-44.35"/>
<polygon fill="#63b8ff" stroke="#63b8ff" points="129.35,-181.27 120.52,-187.12 131.07,-188.06 129.35,-181.27"/>
</a>
</g>
</g>
<!-- Node9 -->
<g id="Node000009" class="node">
<title>Node9</title>
<g id="a_Node000009"><a xlink:href="classllvm_1_1cl_1_1alias.html" target="_top" xlink:title=" ">
<polygon fill="white" stroke="#666666" points="307.25,-199.5 233.5,-199.5 233.5,-180.25 307.25,-180.25 307.25,-199.5"/>
<text xml:space="preserve" text-anchor="middle" x="270.38" y="-186" font-family="Helvetica,sans-Serif" font-size="10.00">llvm::cl::alias</text>
</a>
</g>
</g>
<!-- Node2&#45;&gt;Node9 -->
<g id="edge997_Node000002_Node000009" class="edge">
<title>Node2&#45;&gt;Node9</title>
<g id="a_edge997_Node000002_Node000009"><a xlink:title=" ">
<path fill="none" stroke="#63b8ff" d="M130.29,-189.88C162.84,-189.88 204.09,-189.88 233.19,-189.88"/>
<polygon fill="#63b8ff" stroke="#63b8ff" points="130.69,-186.38 120.69,-189.88 130.69,-193.38 130.69,-186.38"/>
</a>
</g>
</g>
</g>
</svg>
