<?xml version="1.0" encoding="UTF-8" standalone="no"?>
<!DOCTYPE svg PUBLIC "-//W3C//DTD SVG 1.1//EN"
 "http://www.w3.org/Graphics/SVG/1.1/DTD/svg11.dtd">
<!-- Generated by graphviz version 13.1.2 (20250808.2320)
 -->
<!-- Title: Graphical Class Hierarchy Pages: 1 -->
<svg width="508pt" height="64pt"
 viewBox="0.00 0.00 508.00 64.00" xmlns="http://www.w3.org/2000/svg" xmlns:xlink="http://www.w3.org/1999/xlink">
<g id="graph0" class="graph" transform="scale(1 1) rotate(0) translate(4 60.25)">
<title>Graphical Class Hierarchy</title>
<!-- Node0 -->
<g id="Node000000" class="node">
<title>Node0</title>
<g id="a_Node000000"><a xlink:href="classllvm_1_1GIMatchTableExecutor.html" target="_top" xlink:title="Provides the logic to execute GlobalISel match tables, which are used by the instruction selector and...">
<polygon fill="white" stroke="#666666" points="139.75,-37.25 0,-37.25 0,-18 139.75,-18 139.75,-37.25"/>
<text xml:space="preserve" text-anchor="middle" x="69.88" y="-23.75" font-family="Helvetica,sans-Serif" font-size="10.00">llvm::GIMatchTableExecutor</text>
</a>
</g>
</g>
<!-- Node1 -->
<g id="Node000001" class="node">
<title>Node1</title>
<g id="a_Node000001"><a xlink:href="classllvm_1_1Combiner.html" target="_top" xlink:title="Combiner implementation.">
<polygon fill="white" stroke="#666666" points="277.62,-56.25 195.62,-56.25 195.62,-37 277.62,-37 277.62,-56.25"/>
<text xml:space="preserve" text-anchor="middle" x="236.62" y="-42.75" font-family="Helvetica,sans-Serif" font-size="10.00">llvm::Combiner</text>
</a>
</g>
</g>
<!-- Node0&#45;&gt;Node1 -->
<g id="edge3598_Node000000_Node000001" class="edge">
<title>Node0&#45;&gt;Node1</title>
<g id="a_edge3598_Node000000_Node000001"><a xlink:title=" ">
<path fill="none" stroke="#63b8ff" d="M150.93,-36.86C166.29,-38.63 181.76,-40.41 195.2,-41.96"/>
<polygon fill="#63b8ff" stroke="#63b8ff" points="151.63,-33.41 141.29,-35.75 150.83,-40.37 151.63,-33.41"/>
</a>
</g>
</g>
<!-- Node2 -->
<g id="Node000002" class="node">
<title>Node2</title>
<g id="a_Node000002"><a xlink:href="classllvm_1_1InstructionSelector.html" target="_top" xlink:title=" ">
<polygon fill="white" stroke="#666666" points="297.5,-19.25 175.75,-19.25 175.75,0 297.5,0 297.5,-19.25"/>
<text xml:space="preserve" text-anchor="middle" x="236.62" y="-5.75" font-family="Helvetica,sans-Serif" font-size="10.00">llvm::InstructionSelector</text>
</a>
</g>
</g>
<!-- Node0&#45;&gt;Node2 -->
<g id="edge3599_Node000000_Node000002" class="edge">
<title>Node0&#45;&gt;Node2</title>
<g id="a_edge3599_Node000000_Node000002"><a xlink:title=" ">
<path fill="none" stroke="#63b8ff" d="M151.23,-18.85C159.35,-17.96 167.51,-17.07 175.37,-16.21"/>
<polygon fill="#63b8ff" stroke="#63b8ff" points="150.85,-15.37 141.29,-19.93 151.61,-22.32 150.85,-15.37"/>
</a>
</g>
</g>
<!-- Node3 -->
<g id="Node000003" class="node">
<title>Node3</title>
<g id="a_Node000003"><a xlink:href="classllvm_1_1AMDGPUInstructionSelector.html" target="_top" xlink:title=" ">
<polygon fill="white" stroke="#666666" points="499.5,-19.25 333.5,-19.25 333.5,0 499.5,0 499.5,-19.25"/>
<text xml:space="preserve" text-anchor="middle" x="416.5" y="-5.75" font-family="Helvetica,sans-Serif" font-size="10.00">llvm::AMDGPUInstructionSelector</text>
</a>
</g>
</g>
<!-- Node2&#45;&gt;Node3 -->
<g id="edge3600_Node000002_Node000003" class="edge">
<title>Node2&#45;&gt;Node3</title>
<g id="a_edge3600_Node000002_Node000003"><a xlink:title=" ">
<path fill="none" stroke="#63b8ff" d="M309.25,-9.62C317.15,-9.62 325.24,-9.62 333.26,-9.62"/>
<polygon fill="#63b8ff" stroke="#63b8ff" points="309.36,-6.13 299.36,-9.63 309.36,-13.13 309.36,-6.13"/>
</a>
</g>
</g>
</g>
</svg>
