<?xml version="1.0" encoding="UTF-8" standalone="no"?>
<!DOCTYPE svg PUBLIC "-//W3C//DTD SVG 1.1//EN"
 "http://www.w3.org/Graphics/SVG/1.1/DTD/svg11.dtd">
<!-- Generated by graphviz version 13.1.2 (20250808.2320)
 -->
<!-- Title: Graphical Class Hierarchy Pages: 1 -->
<svg width="804pt" height="115pt"
 viewBox="0.00 0.00 804.00 115.00" xmlns="http://www.w3.org/2000/svg" xmlns:xlink="http://www.w3.org/1999/xlink">
<g id="graph0" class="graph" transform="scale(1 1) rotate(0) translate(4 111.38)">
<title>Graphical Class Hierarchy</title>
<!-- Node0 -->
<g id="Node000000" class="node">
<title>Node0</title>
<g id="a_Node000000"><a xlink:href="classllvm_1_1SmallVectorBase.html" target="_top" xlink:title=" ">
<polygon fill="white" stroke="#666666" points="128.5,-107.38 0,-107.38 0,-54.38 128.5,-54.38 128.5,-107.38"/>
<text xml:space="preserve" text-anchor="start" x="8" y="-93.88" font-family="Helvetica,sans-Serif" font-size="10.00">llvm::SmallVectorBase</text>
<text xml:space="preserve" text-anchor="start" x="8" y="-82.62" font-family="Helvetica,sans-Serif" font-size="10.00">&lt; SmallVectorSizeType</text>
<text xml:space="preserve" text-anchor="start" x="8" y="-71.38" font-family="Helvetica,sans-Serif" font-size="10.00">&lt; llvm::SmallPtrSet&lt; llvm</text>
<text xml:space="preserve" text-anchor="middle" x="64.25" y="-60.12" font-family="Helvetica,sans-Serif" font-size="10.00">::SUnit *, 4 &gt; &gt; &gt;</text>
</a>
</g>
</g>
<!-- Node1 -->
<g id="Node000001" class="node">
<title>Node1</title>
<g id="a_Node000001"><a xlink:href="classllvm_1_1SmallVectorTemplateCommon.html" target="_top" xlink:title=" ">
<polygon fill="white" stroke="#666666" points="305.75,-101.75 164.5,-101.75 164.5,-60 305.75,-60 305.75,-101.75"/>
<text xml:space="preserve" text-anchor="start" x="172.5" y="-88.25" font-family="Helvetica,sans-Serif" font-size="10.00">llvm::SmallVectorTemplate</text>
<text xml:space="preserve" text-anchor="start" x="172.5" y="-77" font-family="Helvetica,sans-Serif" font-size="10.00">Common&lt; llvm::SmallPtrSet</text>
<text xml:space="preserve" text-anchor="middle" x="235.12" y="-65.75" font-family="Helvetica,sans-Serif" font-size="10.00">&lt; llvm::SUnit *, 4 &gt; &gt;</text>
</a>
</g>
</g>
<!-- Node0&#45;&gt;Node1 -->
<g id="edge8980_Node000000_Node000001" class="edge">
<title>Node0&#45;&gt;Node1</title>
<g id="a_edge8980_Node000000_Node000001"><a xlink:title=" ">
<path fill="none" stroke="#63b8ff" d="M139.91,-80.88C147.98,-80.88 156.17,-80.88 164.18,-80.88"/>
<polygon fill="#63b8ff" stroke="#63b8ff" points="140.13,-77.38 130.13,-80.88 140.13,-84.38 140.13,-77.38"/>
</a>
</g>
</g>
<!-- Node2 -->
<g id="Node000002" class="node">
<title>Node2</title>
<g id="a_Node000002"><a xlink:href="classllvm_1_1SmallVectorTemplateBase.html" target="_top" xlink:title=" ">
<polygon fill="white" stroke="#666666" points="474.75,-101.75 341.75,-101.75 341.75,-60 474.75,-60 474.75,-101.75"/>
<text xml:space="preserve" text-anchor="start" x="349.75" y="-88.25" font-family="Helvetica,sans-Serif" font-size="10.00">llvm::SmallVectorTemplate</text>
<text xml:space="preserve" text-anchor="start" x="349.75" y="-77" font-family="Helvetica,sans-Serif" font-size="10.00">Base&lt; llvm::SmallPtrSet</text>
<text xml:space="preserve" text-anchor="middle" x="408.25" y="-65.75" font-family="Helvetica,sans-Serif" font-size="10.00">&lt; llvm::SUnit *, 4 &gt; &gt;</text>
</a>
</g>
</g>
<!-- Node1&#45;&gt;Node2 -->
<g id="edge8981_Node000001_Node000002" class="edge">
<title>Node1&#45;&gt;Node2</title>
<g id="a_edge8981_Node000001_Node000002"><a xlink:title=" ">
<path fill="none" stroke="#63b8ff" d="M317.49,-80.88C325.5,-80.88 333.57,-80.88 341.4,-80.88"/>
<polygon fill="#63b8ff" stroke="#63b8ff" points="317.74,-77.38 307.74,-80.88 317.74,-84.38 317.74,-77.38"/>
</a>
</g>
</g>
<!-- Node3 -->
<g id="Node000003" class="node">
<title>Node3</title>
<g id="a_Node000003"><a xlink:href="classllvm_1_1SmallVectorImpl.html" target="_top" xlink:title=" ">
<polygon fill="white" stroke="#666666" points="631,-101.75 519,-101.75 519,-60 631,-60 631,-101.75"/>
<text xml:space="preserve" text-anchor="start" x="527" y="-88.25" font-family="Helvetica,sans-Serif" font-size="10.00">llvm::SmallVectorImpl</text>
<text xml:space="preserve" text-anchor="start" x="527" y="-77" font-family="Helvetica,sans-Serif" font-size="10.00">&lt; llvm::SmallPtrSet&lt;</text>
<text xml:space="preserve" text-anchor="middle" x="575" y="-65.75" font-family="Helvetica,sans-Serif" font-size="10.00"> llvm::SUnit *, 4 &gt; &gt;</text>
</a>
</g>
</g>
<!-- Node2&#45;&gt;Node3 -->
<g id="edge8982_Node000002_Node000003" class="edge">
<title>Node2&#45;&gt;Node3</title>
<g id="a_edge8982_Node000002_Node000003"><a xlink:title=" ">
<path fill="none" stroke="#63b8ff" d="M486.19,-80.88C497.17,-80.88 508.27,-80.88 518.72,-80.88"/>
<polygon fill="#63b8ff" stroke="#63b8ff" points="486.35,-77.38 476.35,-80.88 486.35,-84.38 486.35,-77.38"/>
</a>
</g>
</g>
<!-- Node4 -->
<g id="Node000004" class="node">
<title>Node4</title>
<g id="a_Node000004"><a xlink:href="classllvm_1_1SmallVector.html" target="_top" xlink:title=" ">
<polygon fill="white" stroke="#666666" points="795.5,-71.75 675.25,-71.75 675.25,-30 795.5,-30 795.5,-71.75"/>
<text xml:space="preserve" text-anchor="start" x="683.25" y="-58.25" font-family="Helvetica,sans-Serif" font-size="10.00">llvm::SmallVector&lt;</text>
<text xml:space="preserve" text-anchor="start" x="683.25" y="-47" font-family="Helvetica,sans-Serif" font-size="10.00"> llvm::SmallPtrSet&lt;</text>
<text xml:space="preserve" text-anchor="middle" x="735.38" y="-35.75" font-family="Helvetica,sans-Serif" font-size="10.00"> llvm::SUnit *, 4 &gt;, 10 &gt;</text>
</a>
</g>
</g>
<!-- Node3&#45;&gt;Node4 -->
<g id="edge8983_Node000003_Node000004" class="edge">
<title>Node3&#45;&gt;Node4</title>
<g id="a_edge8983_Node000003_Node000004"><a xlink:title=" ">
<path fill="none" stroke="#63b8ff" d="M642.48,-68.28C653.26,-66.24 664.37,-64.14 674.97,-62.13"/>
<polygon fill="#63b8ff" stroke="#63b8ff" points="642.05,-64.8 632.88,-70.1 643.36,-71.68 642.05,-64.8"/>
</a>
</g>
</g>
<!-- Node5 -->
<g id="Node000005" class="node">
<title>Node5</title>
<g id="a_Node000005"><a xlink:href="structllvm_1_1SmallVectorStorage.html" target="_top" xlink:title=" ">
<polygon fill="white" stroke="#666666" points="639.25,-41.75 510.75,-41.75 510.75,0 639.25,0 639.25,-41.75"/>
<text xml:space="preserve" text-anchor="start" x="518.75" y="-28.25" font-family="Helvetica,sans-Serif" font-size="10.00">llvm::SmallVectorStorage</text>
<text xml:space="preserve" text-anchor="start" x="518.75" y="-17" font-family="Helvetica,sans-Serif" font-size="10.00">&lt; llvm::SmallPtrSet&lt; llvm</text>
<text xml:space="preserve" text-anchor="middle" x="575" y="-5.75" font-family="Helvetica,sans-Serif" font-size="10.00">::SUnit *, 4 &gt;, N &gt;</text>
</a>
</g>
</g>
<!-- Node5&#45;&gt;Node4 -->
<g id="edge8984_Node000005_Node000004" class="edge">
<title>Node5&#45;&gt;Node4</title>
<g id="a_edge8984_Node000005_Node000004"><a xlink:title=" ">
<path fill="none" stroke="#8b1a1a" d="M650.58,-35C658.76,-36.55 667.01,-38.11 674.97,-39.62"/>
<polygon fill="#8b1a1a" stroke="#8b1a1a" points="651.47,-31.61 640.99,-33.19 650.17,-38.49 651.47,-31.61"/>
</a>
</g>
</g>
</g>
</svg>
