<?xml version="1.0" encoding="UTF-8" standalone="no"?>
<!DOCTYPE svg PUBLIC "-//W3C//DTD SVG 1.1//EN"
 "http://www.w3.org/Graphics/SVG/1.1/DTD/svg11.dtd">
<!-- Generated by graphviz version 13.1.2 (20250808.2320)
 -->
<!-- Title: Graphical Class Hierarchy Pages: 1 -->
<svg width="899pt" height="93pt"
 viewBox="0.00 0.00 899.00 93.00" xmlns="http://www.w3.org/2000/svg" xmlns:xlink="http://www.w3.org/1999/xlink">
<g id="graph0" class="graph" transform="scale(1 1) rotate(0) translate(4 89.12)">
<title>Graphical Class Hierarchy</title>
<!-- Node0 -->
<g id="Node000000" class="node">
<title>Node0</title>
<g id="a_Node000000"><a xlink:href="classllvm_1_1SmallVectorBase.html" target="_top" xlink:title=" ">
<polygon fill="white" stroke="#666666" points="169.75,-85.12 0,-85.12 0,-43.38 169.75,-43.38 169.75,-85.12"/>
<text xml:space="preserve" text-anchor="start" x="8" y="-71.62" font-family="Helvetica,sans-Serif" font-size="10.00">llvm::SmallVectorBase</text>
<text xml:space="preserve" text-anchor="start" x="8" y="-60.38" font-family="Helvetica,sans-Serif" font-size="10.00">&lt; SmallVectorSizeType</text>
<text xml:space="preserve" text-anchor="middle" x="84.88" y="-49.12" font-family="Helvetica,sans-Serif" font-size="10.00">&lt; std::unique_ptr&lt; UserLabel &gt; &gt; &gt;</text>
</a>
</g>
</g>
<!-- Node1 -->
<g id="Node000001" class="node">
<title>Node1</title>
<g id="a_Node000001"><a xlink:href="classllvm_1_1SmallVectorTemplateCommon.html" target="_top" xlink:title=" ">
<polygon fill="white" stroke="#666666" points="338.75,-85.12 205.75,-85.12 205.75,-43.38 338.75,-43.38 338.75,-85.12"/>
<text xml:space="preserve" text-anchor="start" x="213.75" y="-71.62" font-family="Helvetica,sans-Serif" font-size="10.00">llvm::SmallVectorTemplate</text>
<text xml:space="preserve" text-anchor="start" x="213.75" y="-60.38" font-family="Helvetica,sans-Serif" font-size="10.00">Common&lt; std::unique_ptr</text>
<text xml:space="preserve" text-anchor="middle" x="272.25" y="-49.12" font-family="Helvetica,sans-Serif" font-size="10.00">&lt; UserLabel &gt; &gt;</text>
</a>
</g>
</g>
<!-- Node0&#45;&gt;Node1 -->
<g id="edge10162_Node000000_Node000001" class="edge">
<title>Node0&#45;&gt;Node1</title>
<g id="a_edge10162_Node000000_Node000001"><a xlink:title=" ">
<path fill="none" stroke="#63b8ff" d="M181.58,-64.25C189.67,-64.25 197.73,-64.25 205.5,-64.25"/>
<polygon fill="#63b8ff" stroke="#63b8ff" points="181.67,-60.75 171.67,-64.25 181.67,-67.75 181.67,-60.75"/>
</a>
</g>
</g>
<!-- Node2 -->
<g id="Node000002" class="node">
<title>Node2</title>
<g id="a_Node000002"><a xlink:href="classllvm_1_1SmallVectorTemplateBase.html" target="_top" xlink:title=" ">
<polygon fill="white" stroke="#666666" points="507.75,-85.12 374.75,-85.12 374.75,-43.38 507.75,-43.38 507.75,-85.12"/>
<text xml:space="preserve" text-anchor="start" x="382.75" y="-71.62" font-family="Helvetica,sans-Serif" font-size="10.00">llvm::SmallVectorTemplate</text>
<text xml:space="preserve" text-anchor="start" x="382.75" y="-60.38" font-family="Helvetica,sans-Serif" font-size="10.00">Base&lt; std::unique_ptr&lt;</text>
<text xml:space="preserve" text-anchor="middle" x="441.25" y="-49.12" font-family="Helvetica,sans-Serif" font-size="10.00"> UserLabel &gt; &gt;</text>
</a>
</g>
</g>
<!-- Node1&#45;&gt;Node2 -->
<g id="edge10163_Node000001_Node000002" class="edge">
<title>Node1&#45;&gt;Node2</title>
<g id="a_edge10163_Node000001_Node000002"><a xlink:title=" ">
<path fill="none" stroke="#63b8ff" d="M350.13,-64.25C358.23,-64.25 366.41,-64.25 374.37,-64.25"/>
<polygon fill="#63b8ff" stroke="#63b8ff" points="350.29,-60.75 340.29,-64.25 350.29,-67.75 350.29,-60.75"/>
</a>
</g>
</g>
<!-- Node3 -->
<g id="Node000003" class="node">
<title>Node3</title>
<g id="a_Node000003"><a xlink:href="classllvm_1_1SmallVectorImpl.html" target="_top" xlink:title=" ">
<polygon fill="white" stroke="#666666" points="711.25,-79.5 550.5,-79.5 550.5,-49 711.25,-49 711.25,-79.5"/>
<text xml:space="preserve" text-anchor="start" x="558.5" y="-66" font-family="Helvetica,sans-Serif" font-size="10.00">llvm::SmallVectorImpl</text>
<text xml:space="preserve" text-anchor="middle" x="630.88" y="-54.75" font-family="Helvetica,sans-Serif" font-size="10.00">&lt; std::unique_ptr&lt; UserLabel &gt; &gt;</text>
</a>
</g>
</g>
<!-- Node2&#45;&gt;Node3 -->
<g id="edge10164_Node000002_Node000003" class="edge">
<title>Node2&#45;&gt;Node3</title>
<g id="a_edge10164_Node000002_Node000003"><a xlink:title=" ">
<path fill="none" stroke="#63b8ff" d="M519.48,-64.25C529.65,-64.25 540.08,-64.25 550.29,-64.25"/>
<polygon fill="#63b8ff" stroke="#63b8ff" points="519.65,-60.75 509.65,-64.25 519.65,-67.75 519.65,-60.75"/>
</a>
</g>
</g>
<!-- Node4 -->
<g id="Node000004" class="node">
<title>Node4</title>
<g id="a_Node000004"><a xlink:href="classllvm_1_1SmallVector.html" target="_top" xlink:title=" ">
<polygon fill="white" stroke="#666666" points="890.75,-60.12 754,-60.12 754,-18.38 890.75,-18.38 890.75,-60.12"/>
<text xml:space="preserve" text-anchor="start" x="762" y="-46.62" font-family="Helvetica,sans-Serif" font-size="10.00">llvm::SmallVector&lt;</text>
<text xml:space="preserve" text-anchor="start" x="762" y="-35.38" font-family="Helvetica,sans-Serif" font-size="10.00"> std::unique_ptr&lt; UserLabel</text>
<text xml:space="preserve" text-anchor="middle" x="822.38" y="-24.12" font-family="Helvetica,sans-Serif" font-size="10.00"> &gt;, 2 &gt;</text>
</a>
</g>
</g>
<!-- Node3&#45;&gt;Node4 -->
<g id="edge10165_Node000003_Node000004" class="edge">
<title>Node3&#45;&gt;Node4</title>
<g id="a_edge10165_Node000003_Node000004"><a xlink:title=" ">
<path fill="none" stroke="#63b8ff" d="M722.88,-52.24C733.24,-50.88 743.66,-49.5 753.64,-48.19"/>
<polygon fill="#63b8ff" stroke="#63b8ff" points="722.65,-48.74 713.19,-53.52 723.56,-55.68 722.65,-48.74"/>
</a>
</g>
</g>
<!-- Node5 -->
<g id="Node000005" class="node">
<title>Node5</title>
<g id="a_Node000005"><a xlink:href="structllvm_1_1SmallVectorStorage.html" target="_top" xlink:title=" ">
<polygon fill="white" stroke="#666666" points="718,-30.5 543.75,-30.5 543.75,0 718,0 718,-30.5"/>
<text xml:space="preserve" text-anchor="start" x="551.75" y="-17" font-family="Helvetica,sans-Serif" font-size="10.00">llvm::SmallVectorStorage</text>
<text xml:space="preserve" text-anchor="middle" x="630.88" y="-5.75" font-family="Helvetica,sans-Serif" font-size="10.00">&lt; std::unique_ptr&lt; UserLabel &gt;, N &gt;</text>
</a>
</g>
</g>
<!-- Node5&#45;&gt;Node4 -->
<g id="edge10166_Node000005_Node000004" class="edge">
<title>Node5&#45;&gt;Node4</title>
<g id="a_edge10166_Node000005_Node000004"><a xlink:title=" ">
<path fill="none" stroke="#8b1a1a" d="M729.69,-27.64C737.74,-28.66 745.76,-29.67 753.52,-30.66"/>
<polygon fill="#8b1a1a" stroke="#8b1a1a" points="730.17,-24.17 719.81,-26.39 729.29,-31.12 730.17,-24.17"/>
</a>
</g>
</g>
</g>
</svg>
