<?xml version="1.0" encoding="UTF-8" standalone="no"?>
<!DOCTYPE svg PUBLIC "-//W3C//DTD SVG 1.1//EN"
 "http://www.w3.org/Graphics/SVG/1.1/DTD/svg11.dtd">
<!-- Generated by graphviz version 13.1.2 (20250808.2320)
 -->
<!-- Title: Graphical Class Hierarchy Pages: 1 -->
<svg width="704pt" height="602pt"
 viewBox="0.00 0.00 704.00 602.00" xmlns="http://www.w3.org/2000/svg" xmlns:xlink="http://www.w3.org/1999/xlink">
<g id="graph0" class="graph" transform="scale(1 1) rotate(0) translate(4 598)">
<title>Graphical Class Hierarchy</title>
<!-- Node0 -->
<g id="Node000000" class="node">
<title>Node0</title>
<g id="a_Node000000"><a xlink:href="structllvm_1_1CastIsPossible.html" target="_top" xlink:title="This struct provides a way to check if a given cast is possible.">
<polygon fill="white" stroke="#666666" points="331.62,-348.75 222.62,-348.75 222.62,-318.25 331.62,-318.25 331.62,-348.75"/>
<text xml:space="preserve" text-anchor="start" x="230.62" y="-335.25" font-family="Helvetica,sans-Serif" font-size="10.00">llvm::CastIsPossible</text>
<text xml:space="preserve" text-anchor="middle" x="277.12" y="-324" font-family="Helvetica,sans-Serif" font-size="10.00">&lt; To, From, Enable &gt;</text>
</a>
</g>
</g>
<!-- Node1 -->
<g id="Node000001" class="node">
<title>Node1</title>
<g id="a_Node000001"><a xlink:href="structllvm_1_1CastInfo.html" target="_top" xlink:title=" ">
<polygon fill="white" stroke="#666666" points="522,-348.75 422,-348.75 422,-318.25 522,-318.25 522,-348.75"/>
<text xml:space="preserve" text-anchor="start" x="430" y="-335.25" font-family="Helvetica,sans-Serif" font-size="10.00">llvm::CastInfo&lt; To,</text>
<text xml:space="preserve" text-anchor="middle" x="472" y="-324" font-family="Helvetica,sans-Serif" font-size="10.00"> From, Enable &gt;</text>
</a>
</g>
</g>
<!-- Node0&#45;&gt;Node1 -->
<g id="edge899_Node000000_Node000001" class="edge">
<title>Node0&#45;&gt;Node1</title>
<g id="a_edge899_Node000000_Node000001"><a xlink:title=" ">
<path fill="none" stroke="#63b8ff" d="M343.59,-333.5C369.13,-333.5 397.91,-333.5 421.65,-333.5"/>
<polygon fill="#63b8ff" stroke="#63b8ff" points="343.62,-330 333.62,-333.5 343.62,-337 343.62,-330"/>
</a>
</g>
</g>
<!-- Node2 -->
<g id="Node000002" class="node">
<title>Node2</title>
<g id="a_Node000002"><a xlink:href="structllvm_1_1CastInfo.html" target="_top" xlink:title=" ">
<polygon fill="white" stroke="#666666" points="522,-262.75 422,-262.75 422,-232.25 522,-232.25 522,-262.75"/>
<text xml:space="preserve" text-anchor="start" x="430" y="-249.25" font-family="Helvetica,sans-Serif" font-size="10.00">llvm::CastInfo&lt; To,</text>
<text xml:space="preserve" text-anchor="middle" x="472" y="-238" font-family="Helvetica,sans-Serif" font-size="10.00"> SimpleFrom &gt;</text>
</a>
</g>
</g>
<!-- Node0&#45;&gt;Node2 -->
<g id="edge900_Node000000_Node000002" class="edge">
<title>Node0&#45;&gt;Node2</title>
<g id="a_edge900_Node000000_Node000002"><a xlink:title=" ">
<path fill="none" stroke="#63b8ff" d="M323.34,-313.21C347.68,-302.31 378.22,-288.64 405.5,-276.5 415.27,-272.15 425.87,-267.45 435.64,-263.13"/>
<polygon fill="#63b8ff" stroke="#63b8ff" points="322.05,-309.96 314.36,-317.24 324.92,-316.34 322.05,-309.96"/>
</a>
</g>
</g>
<!-- Node3 -->
<g id="Node000003" class="node">
<title>Node3</title>
<g id="a_Node000003"><a xlink:href="structllvm_1_1CastInfo_3_01To_00_01From_00_01std_1_1enable__if__t_3_9is__simple__type_3_01From_01_4_1_1value_01_4_01_4.html" target="_top" xlink:title="This struct provides an overload for CastInfo where From has simplify_type defined.">
<polygon fill="white" stroke="#666666" points="537,-469 407,-469 407,-416 537,-416 537,-469"/>
<text xml:space="preserve" text-anchor="start" x="415" y="-455.5" font-family="Helvetica,sans-Serif" font-size="10.00">llvm::CastInfo&lt; To,</text>
<text xml:space="preserve" text-anchor="start" x="415" y="-444.25" font-family="Helvetica,sans-Serif" font-size="10.00"> From, std::enable_if</text>
<text xml:space="preserve" text-anchor="start" x="415" y="-433" font-family="Helvetica,sans-Serif" font-size="10.00">_t&lt;!is_simple_type&lt; From</text>
<text xml:space="preserve" text-anchor="middle" x="472" y="-421.75" font-family="Helvetica,sans-Serif" font-size="10.00"> &gt;::value &gt; &gt;</text>
</a>
</g>
</g>
<!-- Node0&#45;&gt;Node3 -->
<g id="edge901_Node000000_Node000003" class="edge">
<title>Node0&#45;&gt;Node3</title>
<g id="a_edge901_Node000000_Node000003"><a xlink:title=" ">
<path fill="none" stroke="#63b8ff" d="M314.82,-354.76C340.22,-369.42 374.83,-389.29 405.5,-406.5 410.82,-409.49 416.39,-412.59 421.95,-415.66"/>
<polygon fill="#63b8ff" stroke="#63b8ff" points="316.6,-351.75 306.19,-349.78 313.1,-357.81 316.6,-351.75"/>
</a>
</g>
</g>
<!-- Node4 -->
<g id="Node000004" class="node">
<title>Node4</title>
<g id="a_Node000004"><a xlink:href="structllvm_1_1CastInfo_3_01To_00_01PointerUnion_3_01PTs_8_8_8_01_4_01_4.html" target="_top" xlink:title=" ">
<polygon fill="white" stroke="#666666" points="535.88,-577.75 408.12,-577.75 408.12,-547.25 535.88,-547.25 535.88,-577.75"/>
<text xml:space="preserve" text-anchor="start" x="416.12" y="-564.25" font-family="Helvetica,sans-Serif" font-size="10.00">llvm::CastInfo&lt; To,</text>
<text xml:space="preserve" text-anchor="middle" x="472" y="-553" font-family="Helvetica,sans-Serif" font-size="10.00"> PointerUnion&lt; PTs... &gt; &gt;</text>
</a>
</g>
</g>
<!-- Node0&#45;&gt;Node4 -->
<g id="edge902_Node000000_Node000004" class="edge">
<title>Node0&#45;&gt;Node4</title>
<g id="a_edge902_Node000000_Node000004"><a xlink:title=" ">
<path fill="none" stroke="#63b8ff" d="M296.71,-357.76C315.81,-383.09 345.99,-424.23 369.5,-461.5 387.12,-489.43 382.11,-503.19 405.5,-526.5 413.59,-534.56 423.85,-541.33 433.85,-546.75"/>
<polygon fill="#63b8ff" stroke="#63b8ff" points="299.71,-355.93 290.88,-350.07 294.14,-360.16 299.71,-355.93"/>
</a>
</g>
</g>
<!-- Node6 -->
<g id="Node000006" class="node">
<title>Node6</title>
<g id="a_Node000006"><a xlink:href="structllvm_1_1CastInfo_3_01To_00_01const_01PointerUnion_3_01PTs_8_8_8_01_4_01_4.html" target="_top" xlink:title=" ">
<polygon fill="white" stroke="#666666" points="523.12,-214.38 420.88,-214.38 420.88,-172.62 523.12,-172.62 523.12,-214.38"/>
<text xml:space="preserve" text-anchor="start" x="428.88" y="-200.88" font-family="Helvetica,sans-Serif" font-size="10.00">llvm::CastInfo&lt; To,</text>
<text xml:space="preserve" text-anchor="start" x="428.88" y="-189.62" font-family="Helvetica,sans-Serif" font-size="10.00"> const PointerUnion</text>
<text xml:space="preserve" text-anchor="middle" x="472" y="-178.38" font-family="Helvetica,sans-Serif" font-size="10.00">&lt; PTs... &gt; &gt;</text>
</a>
</g>
</g>
<!-- Node0&#45;&gt;Node6 -->
<g id="edge903_Node000000_Node000006" class="edge">
<title>Node0&#45;&gt;Node6</title>
<g id="a_edge903_Node000000_Node000006"><a xlink:title=" ">
<path fill="none" stroke="#63b8ff" d="M300.97,-310.21C325.29,-286.29 365.69,-249.07 405.5,-223.5 410.24,-220.46 415.33,-217.56 420.51,-214.85"/>
<polygon fill="#63b8ff" stroke="#63b8ff" points="298.76,-307.47 294.13,-317 303.69,-312.43 298.76,-307.47"/>
</a>
</g>
</g>
<!-- Node8 -->
<g id="Node000008" class="node">
<title>Node8</title>
<g id="a_Node000008"><a xlink:href="structllvm_1_1CastInfo_3_01To_00_01std_1_1optional_3_01From_01_4_01_4.html" target="_top" xlink:title="Provide a CastInfo specialized for std::optional&lt;From&gt;.">
<polygon fill="white" stroke="#666666" points="696.25,-411.75 574.5,-411.75 574.5,-381.25 696.25,-381.25 696.25,-411.75"/>
<text xml:space="preserve" text-anchor="start" x="582.5" y="-398.25" font-family="Helvetica,sans-Serif" font-size="10.00">llvm::CastInfo&lt; To,</text>
<text xml:space="preserve" text-anchor="middle" x="635.38" y="-387" font-family="Helvetica,sans-Serif" font-size="10.00"> std::optional&lt; From &gt; &gt;</text>
</a>
</g>
</g>
<!-- Node0&#45;&gt;Node8 -->
<g id="edge904_Node000000_Node000008" class="edge">
<title>Node0&#45;&gt;Node8</title>
<g id="a_edge904_Node000000_Node000008"><a xlink:title=" ">
<path fill="none" stroke="#63b8ff" d="M332.9,-314.59C386.99,-299.07 471.15,-283.5 538.5,-309.5 575.61,-323.83 607.24,-359.93 623.22,-380.85"/>
<polygon fill="#63b8ff" stroke="#63b8ff" points="332.2,-311.15 323.61,-317.35 334.19,-317.85 332.2,-311.15"/>
</a>
</g>
</g>
<!-- Node11 -->
<g id="Node000011" class="node">
<title>Node11</title>
<g id="a_Node000011"><a xlink:href="structllvm_1_1CastInfo_3_01To_00_01std_1_1unique__ptr_3_01From_01_4_01_4.html" target="_top" xlink:title="Provide a CastInfo specialized for std::unique_ptr.">
<polygon fill="white" stroke="#666666" points="538.5,-153.75 405.5,-153.75 405.5,-123.25 538.5,-123.25 538.5,-153.75"/>
<text xml:space="preserve" text-anchor="start" x="413.5" y="-140.25" font-family="Helvetica,sans-Serif" font-size="10.00">llvm::CastInfo&lt; To,</text>
<text xml:space="preserve" text-anchor="middle" x="472" y="-129" font-family="Helvetica,sans-Serif" font-size="10.00"> std::unique_ptr&lt; From &gt; &gt;</text>
</a>
</g>
</g>
<!-- Node0&#45;&gt;Node11 -->
<g id="edge905_Node000000_Node000011" class="edge">
<title>Node0&#45;&gt;Node11</title>
<g id="a_edge905_Node000000_Node000011"><a xlink:title=" ">
<path fill="none" stroke="#63b8ff" d="M302.41,-309.8C321.95,-289.98 349.37,-260.38 369.5,-231.5 389.05,-203.45 379.89,-186.16 405.5,-163.5 409.51,-159.95 414.08,-156.88 418.89,-154.24"/>
<polygon fill="#63b8ff" stroke="#63b8ff" points="299.96,-307.3 295.38,-316.86 304.92,-312.25 299.96,-307.3"/>
</a>
</g>
</g>
<!-- Node17 -->
<g id="Node000017" class="node">
<title>Node17</title>
<g id="a_Node000017"><a xlink:href="structllvm_1_1CastInfo.html" target="_top" xlink:title="This struct provides a method for customizing the way a cast is performed.">
<polygon fill="white" stroke="#666666" points="522,-397.75 422,-397.75 422,-367.25 522,-367.25 522,-397.75"/>
<text xml:space="preserve" text-anchor="start" x="430" y="-384.25" font-family="Helvetica,sans-Serif" font-size="10.00">llvm::CastInfo&lt; To,</text>
<text xml:space="preserve" text-anchor="middle" x="472" y="-373" font-family="Helvetica,sans-Serif" font-size="10.00"> From, Enable &gt;</text>
</a>
</g>
</g>
<!-- Node0&#45;&gt;Node17 -->
<g id="edge906_Node000000_Node000017" class="edge">
<title>Node0&#45;&gt;Node17</title>
<g id="a_edge906_Node000000_Node000017"><a xlink:title=" ">
<path fill="none" stroke="#63b8ff" d="M343.24,-350.04C368.87,-356.55 397.81,-363.9 421.65,-369.96"/>
<polygon fill="#63b8ff" stroke="#63b8ff" points="344.13,-346.66 333.57,-347.59 342.41,-353.44 344.13,-346.66"/>
</a>
</g>
</g>
<!-- Node9 -->
<g id="Node000009" class="node">
<title>Node9</title>
<g id="a_Node000009"><a xlink:href="structllvm_1_1OptionalValueCast.html" target="_top" xlink:title="This cast trait provides std::optional&lt;T&gt; casting.">
<polygon fill="white" stroke="#666666" points="532.5,-517.75 411.5,-517.75 411.5,-487.25 532.5,-487.25 532.5,-517.75"/>
<text xml:space="preserve" text-anchor="start" x="419.5" y="-504.25" font-family="Helvetica,sans-Serif" font-size="10.00">llvm::OptionalValueCast</text>
<text xml:space="preserve" text-anchor="middle" x="472" y="-493" font-family="Helvetica,sans-Serif" font-size="10.00">&lt; To, From, Derived &gt;</text>
</a>
</g>
</g>
<!-- Node0&#45;&gt;Node9 -->
<g id="edge907_Node000000_Node000009" class="edge">
<title>Node0&#45;&gt;Node9</title>
<g id="a_edge907_Node000000_Node000009"><a xlink:title=" ">
<path fill="none" stroke="#63b8ff" d="M294.1,-358.37C315.77,-390.31 357.36,-445.52 405.5,-478.5 410.1,-481.65 415.16,-484.44 420.36,-486.9"/>
<polygon fill="#63b8ff" stroke="#63b8ff" points="297.07,-356.53 288.62,-350.14 291.24,-360.41 297.07,-356.53"/>
</a>
</g>
</g>
<!-- Node9&#45;&gt;Node8 -->
<g id="edge908_Node000009_Node000008" class="edge">
<title>Node9&#45;&gt;Node8</title>
<g id="a_edge908_Node000009_Node000008"><a xlink:title=" ">
<path fill="none" stroke="#63b8ff" d="M532.19,-481.96C534.35,-480.85 536.46,-479.69 538.5,-478.5 570.45,-459.81 602,-430.06 619.75,-412"/>
<polygon fill="#63b8ff" stroke="#63b8ff" points="530.76,-478.76 523.2,-486.19 533.74,-485.1 530.76,-478.76"/>
</a>
</g>
</g>
<!-- Node13 -->
<g id="Node000013" class="node">
<title>Node13</title>
<g id="a_Node000013"><a xlink:href="structllvm_1_1CastIsPossible.html" target="_top" xlink:title=" ">
<polygon fill="white" stroke="#666666" points="127.75,-150.75 21,-150.75 21,-120.25 127.75,-120.25 127.75,-150.75"/>
<text xml:space="preserve" text-anchor="start" x="29" y="-137.25" font-family="Helvetica,sans-Serif" font-size="10.00">llvm::CastIsPossible</text>
<text xml:space="preserve" text-anchor="middle" x="74.38" y="-126" font-family="Helvetica,sans-Serif" font-size="10.00">&lt; To, From * &gt;</text>
</a>
</g>
</g>
<!-- Node12 -->
<g id="Node000012" class="node">
<title>Node12</title>
<g id="a_Node000012"><a xlink:href="structllvm_1_1UniquePtrCast.html" target="_top" xlink:title="This cast trait provides std::unique_ptr casting.">
<polygon fill="white" stroke="#666666" points="333.5,-150.75 220.75,-150.75 220.75,-120.25 333.5,-120.25 333.5,-150.75"/>
<text xml:space="preserve" text-anchor="start" x="228.75" y="-137.25" font-family="Helvetica,sans-Serif" font-size="10.00">llvm::UniquePtrCast</text>
<text xml:space="preserve" text-anchor="middle" x="277.12" y="-126" font-family="Helvetica,sans-Serif" font-size="10.00">&lt; To, From, Derived &gt;</text>
</a>
</g>
</g>
<!-- Node13&#45;&gt;Node12 -->
<g id="edge909_Node000013_Node000012" class="edge">
<title>Node13&#45;&gt;Node12</title>
<g id="a_edge909_Node000013_Node000012"><a xlink:title=" ">
<path fill="none" stroke="#63b8ff" d="M139.43,-135.5C165.53,-135.5 195.42,-135.5 220.58,-135.5"/>
<polygon fill="#63b8ff" stroke="#63b8ff" points="139.63,-132 129.63,-135.5 139.63,-139 139.63,-132"/>
</a>
</g>
</g>
<!-- Node14 -->
<g id="Node000014" class="node">
<title>Node14</title>
<g id="a_Node000014"><a xlink:href="structllvm_1_1ValueFromPointerCast.html" target="_top" xlink:title="This cast trait provides casting for the specific case of casting to a value&#45;typed object from a poin...">
<polygon fill="white" stroke="#666666" points="346.25,-101.75 208,-101.75 208,-71.25 346.25,-71.25 346.25,-101.75"/>
<text xml:space="preserve" text-anchor="start" x="216" y="-88.25" font-family="Helvetica,sans-Serif" font-size="10.00">llvm::ValueFromPointerCast</text>
<text xml:space="preserve" text-anchor="middle" x="277.12" y="-77" font-family="Helvetica,sans-Serif" font-size="10.00">&lt; To, From, Derived &gt;</text>
</a>
</g>
</g>
<!-- Node13&#45;&gt;Node14 -->
<g id="edge911_Node000013_Node000014" class="edge">
<title>Node13&#45;&gt;Node14</title>
<g id="a_edge911_Node000013_Node000014"><a xlink:title=" ">
<path fill="none" stroke="#63b8ff" d="M139.25,-119.91C162.46,-114.24 188.68,-107.84 211.92,-102.17"/>
<polygon fill="#63b8ff" stroke="#63b8ff" points="138.47,-116.5 129.59,-122.27 140.13,-123.3 138.47,-116.5"/>
</a>
</g>
</g>
<!-- Node12&#45;&gt;Node11 -->
<g id="edge910_Node000012_Node000011" class="edge">
<title>Node12&#45;&gt;Node11</title>
<g id="a_edge910_Node000012_Node000011"><a xlink:title=" ">
<path fill="none" stroke="#63b8ff" d="M345.39,-136.55C364.75,-136.85 385.84,-137.18 405.11,-137.48"/>
<polygon fill="#63b8ff" stroke="#63b8ff" points="345.48,-133.05 335.43,-136.39 345.37,-140.05 345.48,-133.05"/>
</a>
</g>
</g>
<!-- Node7 -->
<g id="Node000007" class="node">
<title>Node7</title>
<g id="a_Node000007"><a xlink:href="structllvm_1_1ConstStrippingForwardingCast.html" target="_top" xlink:title=" ">
<polygon fill="white" stroke="#666666" points="369.5,-222 184.75,-222 184.75,-169 369.5,-169 369.5,-222"/>
<text xml:space="preserve" text-anchor="start" x="192.75" y="-208.5" font-family="Helvetica,sans-Serif" font-size="10.00">llvm::ConstStrippingForwarding</text>
<text xml:space="preserve" text-anchor="start" x="192.75" y="-197.25" font-family="Helvetica,sans-Serif" font-size="10.00">Cast&lt; To, const PointerUnion</text>
<text xml:space="preserve" text-anchor="start" x="192.75" y="-186" font-family="Helvetica,sans-Serif" font-size="10.00">&lt; PTs... &gt;, CastInfo&lt; To, PointerUnion</text>
<text xml:space="preserve" text-anchor="middle" x="277.12" y="-174.75" font-family="Helvetica,sans-Serif" font-size="10.00">&lt; PTs... &gt; &gt; &gt;</text>
</a>
</g>
</g>
<!-- Node7&#45;&gt;Node6 -->
<g id="edge912_Node000007_Node000006" class="edge">
<title>Node7&#45;&gt;Node6</title>
<g id="a_edge912_Node000007_Node000006"><a xlink:title=" ">
<path fill="none" stroke="#63b8ff" d="M381.25,-194.43C394.9,-194.29 408.38,-194.15 420.57,-194.02"/>
<polygon fill="#63b8ff" stroke="#63b8ff" points="381.24,-190.93 371.27,-194.53 381.31,-197.93 381.24,-190.93"/>
</a>
</g>
</g>
<!-- Node10 -->
<g id="Node000010" class="node">
<title>Node10</title>
<g id="a_Node000010"><a xlink:href="structllvm_1_1DefaultDoCastIfPossible.html" target="_top" xlink:title=" ">
<polygon fill="white" stroke="#666666" points="366.88,-523 187.38,-523 187.38,-470 366.88,-470 366.88,-523"/>
<text xml:space="preserve" text-anchor="start" x="195.38" y="-509.5" font-family="Helvetica,sans-Serif" font-size="10.00">llvm::DefaultDoCastIfPossible</text>
<text xml:space="preserve" text-anchor="start" x="195.38" y="-498.25" font-family="Helvetica,sans-Serif" font-size="10.00">&lt; std::optional&lt; To &gt;, From,</text>
<text xml:space="preserve" text-anchor="start" x="195.38" y="-487" font-family="Helvetica,sans-Serif" font-size="10.00"> detail::SelfType&lt; void, OptionalValue</text>
<text xml:space="preserve" text-anchor="middle" x="277.12" y="-475.75" font-family="Helvetica,sans-Serif" font-size="10.00">Cast&lt; To, From &gt; &gt; &gt;</text>
</a>
</g>
</g>
<!-- Node10&#45;&gt;Node9 -->
<g id="edge913_Node000010_Node000009" class="edge">
<title>Node10&#45;&gt;Node9</title>
<g id="a_edge913_Node000010_Node000009"><a xlink:title=" ">
<path fill="none" stroke="#63b8ff" d="M378.42,-499.62C389.62,-499.97 400.75,-500.31 411.21,-500.64"/>
<polygon fill="#63b8ff" stroke="#63b8ff" points="378.84,-496.13 368.74,-499.32 378.62,-503.13 378.84,-496.13"/>
</a>
</g>
</g>
<!-- Node15 -->
<g id="Node000015" class="node">
<title>Node15</title>
<g id="a_Node000015"><a xlink:href="structllvm_1_1DefaultDoCastIfPossible.html" target="_top" xlink:title=" ">
<polygon fill="white" stroke="#666666" points="148.75,-53 0,-53 0,0 148.75,0 148.75,-53"/>
<text xml:space="preserve" text-anchor="start" x="8" y="-39.5" font-family="Helvetica,sans-Serif" font-size="10.00">llvm::DefaultDoCastIfPossible</text>
<text xml:space="preserve" text-anchor="start" x="8" y="-28.25" font-family="Helvetica,sans-Serif" font-size="10.00">&lt; To, From *, detail::SelfType</text>
<text xml:space="preserve" text-anchor="start" x="8" y="-17" font-family="Helvetica,sans-Serif" font-size="10.00">&lt; void, ValueFromPointerCast</text>
<text xml:space="preserve" text-anchor="middle" x="74.38" y="-5.75" font-family="Helvetica,sans-Serif" font-size="10.00">&lt; To, From &gt; &gt; &gt;</text>
</a>
</g>
</g>
<!-- Node15&#45;&gt;Node14 -->
<g id="edge914_Node000015_Node000014" class="edge">
<title>Node15&#45;&gt;Node14</title>
<g id="a_edge914_Node000015_Node000014"><a xlink:title=" ">
<path fill="none" stroke="#63b8ff" d="M159.84,-51.74C181.45,-58.2 204.08,-64.97 223.57,-70.79"/>
<polygon fill="#63b8ff" stroke="#63b8ff" points="161.02,-48.44 150.44,-48.93 159.02,-55.15 161.02,-48.44"/>
</a>
</g>
</g>
<!-- Node5 -->
<g id="Node000005" class="node">
<title>Node5</title>
<g id="a_Node000005"><a xlink:href="structllvm_1_1DefaultDoCastIfPossible.html" target="_top" xlink:title=" ">
<polygon fill="white" stroke="#666666" points="352.25,-594 202,-594 202,-541 352.25,-541 352.25,-594"/>
<text xml:space="preserve" text-anchor="start" x="210" y="-580.5" font-family="Helvetica,sans-Serif" font-size="10.00">llvm::DefaultDoCastIfPossible</text>
<text xml:space="preserve" text-anchor="start" x="210" y="-569.25" font-family="Helvetica,sans-Serif" font-size="10.00">&lt; To, PointerUnion&lt; PTs...</text>
<text xml:space="preserve" text-anchor="start" x="210" y="-558" font-family="Helvetica,sans-Serif" font-size="10.00"> &gt;, CastInfo&lt; To, PointerUnion</text>
<text xml:space="preserve" text-anchor="middle" x="277.12" y="-546.75" font-family="Helvetica,sans-Serif" font-size="10.00">&lt; PTs... &gt; &gt; &gt;</text>
</a>
</g>
</g>
<!-- Node5&#45;&gt;Node4 -->
<g id="edge915_Node000005_Node000004" class="edge">
<title>Node5&#45;&gt;Node4</title>
<g id="a_edge915_Node000005_Node000004"><a xlink:title=" ">
<path fill="none" stroke="#63b8ff" d="M363.92,-565.28C378.71,-564.89 393.84,-564.5 407.9,-564.14"/>
<polygon fill="#63b8ff" stroke="#63b8ff" points="364.11,-561.77 354.21,-565.53 364.3,-568.77 364.11,-561.77"/>
</a>
</g>
</g>
<!-- Node16 -->
<g id="Node000016" class="node">
<title>Node16</title>
<g id="a_Node000016"><a xlink:href="structllvm_1_1NullableValueCastFailed.html" target="_top" xlink:title="All of these cast traits are meant to be implementations for useful casts that users may want to use ...">
<polygon fill="white" stroke="#666666" points="147.62,-101.75 1.12,-101.75 1.12,-71.25 147.62,-71.25 147.62,-101.75"/>
<text xml:space="preserve" text-anchor="start" x="9.12" y="-88.25" font-family="Helvetica,sans-Serif" font-size="10.00">llvm::NullableValueCastFailed</text>
<text xml:space="preserve" text-anchor="middle" x="74.38" y="-77" font-family="Helvetica,sans-Serif" font-size="10.00">&lt; To &gt;</text>
</a>
</g>
</g>
<!-- Node16&#45;&gt;Node14 -->
<g id="edge916_Node000016_Node000014" class="edge">
<title>Node16&#45;&gt;Node14</title>
<g id="a_edge916_Node000016_Node000014"><a xlink:title=" ">
<path fill="none" stroke="#63b8ff" d="M158.98,-86.5C175.23,-86.5 192.09,-86.5 207.77,-86.5"/>
<polygon fill="#63b8ff" stroke="#63b8ff" points="159.36,-83 149.36,-86.5 159.36,-90 159.36,-83"/>
</a>
</g>
</g>
</g>
</svg>
