<?xml version="1.0" encoding="UTF-8" standalone="no"?>
<!DOCTYPE svg PUBLIC "-//W3C//DTD SVG 1.1//EN"
 "http://www.w3.org/Graphics/SVG/1.1/DTD/svg11.dtd">
<!-- Generated by graphviz version 13.1.2 (20250808.2320)
 -->
<!-- Title: Graphical Class Hierarchy Pages: 1 -->
<svg width="565pt" height="76pt"
 viewBox="0.00 0.00 565.00 76.00" xmlns="http://www.w3.org/2000/svg" xmlns:xlink="http://www.w3.org/1999/xlink">
<g id="graph0" class="graph" transform="scale(1 1) rotate(0) translate(4 71.88)">
<title>Graphical Class Hierarchy</title>
<!-- Node0 -->
<g id="Node000000" class="node">
<title>Node0</title>
<g id="a_Node000000"><a xlink:href="structllvm_1_1PassInfoMixin.html" target="_top" xlink:title=" ">
<polygon fill="white" stroke="#666666" points="153.25,-45.88 0,-45.88 0,-15.37 153.25,-15.37 153.25,-45.88"/>
<text xml:space="preserve" text-anchor="start" x="8" y="-32.38" font-family="Helvetica,sans-Serif" font-size="10.00">llvm::PassInfoMixin</text>
<text xml:space="preserve" text-anchor="middle" x="76.62" y="-21.12" font-family="Helvetica,sans-Serif" font-size="10.00">&lt; MachineUniformityAnalysis &gt;</text>
</a>
</g>
</g>
<!-- Node1 -->
<g id="Node000001" class="node">
<title>Node1</title>
<g id="a_Node000001"><a xlink:href="structllvm_1_1AnalysisInfoMixin.html" target="_top" xlink:title=" ">
<polygon fill="white" stroke="#666666" points="352.25,-67.88 199,-67.88 199,-37.38 352.25,-37.38 352.25,-67.88"/>
<text xml:space="preserve" text-anchor="start" x="207" y="-54.38" font-family="Helvetica,sans-Serif" font-size="10.00">llvm::AnalysisInfoMixin</text>
<text xml:space="preserve" text-anchor="middle" x="275.62" y="-43.12" font-family="Helvetica,sans-Serif" font-size="10.00">&lt; MachineUniformityAnalysis &gt;</text>
</a>
</g>
</g>
<!-- Node0&#45;&gt;Node1 -->
<g id="edge5636_Node000000_Node000001" class="edge">
<title>Node0&#45;&gt;Node1</title>
<g id="a_edge5636_Node000000_Node000001"><a xlink:title=" ">
<path fill="none" stroke="#63b8ff" d="M164.76,-40.36C176.1,-41.62 187.64,-42.91 198.78,-44.16"/>
<polygon fill="#63b8ff" stroke="#63b8ff" points="165.34,-36.9 155.01,-39.27 164.56,-43.86 165.34,-36.9"/>
</a>
</g>
</g>
<!-- Node3 -->
<g id="Node000003" class="node">
<title>Node3</title>
<g id="a_Node000003"><a xlink:href="classllvm_1_1MachineUniformityPrinterPass.html" target="_top" xlink:title=" ">
<polygon fill="white" stroke="#666666" points="362,-19.25 189.25,-19.25 189.25,0 362,0 362,-19.25"/>
<text xml:space="preserve" text-anchor="middle" x="275.62" y="-5.75" font-family="Helvetica,sans-Serif" font-size="10.00">llvm::MachineUniformityPrinterPass</text>
</a>
</g>
</g>
<!-- Node0&#45;&gt;Node3 -->
<g id="edge5638_Node000000_Node000003" class="edge">
<title>Node0&#45;&gt;Node3</title>
<g id="a_edge5638_Node000000_Node000003"><a xlink:title=" ">
<path fill="none" stroke="#63b8ff" d="M164.77,-21.34C172.79,-20.48 180.92,-19.61 188.94,-18.76"/>
<polygon fill="#63b8ff" stroke="#63b8ff" points="164.59,-17.84 155.01,-22.38 165.33,-24.8 164.59,-17.84"/>
</a>
</g>
</g>
<!-- Node2 -->
<g id="Node000002" class="node">
<title>Node2</title>
<g id="a_Node000002"><a xlink:href="classllvm_1_1MachineUniformityAnalysis.html" target="_top" xlink:title=" ">
<polygon fill="white" stroke="#666666" points="557.25,-62.25 398,-62.25 398,-43 557.25,-43 557.25,-62.25"/>
<text xml:space="preserve" text-anchor="middle" x="477.62" y="-48.75" font-family="Helvetica,sans-Serif" font-size="10.00">llvm::MachineUniformityAnalysis</text>
</a>
</g>
</g>
<!-- Node1&#45;&gt;Node2 -->
<g id="edge5637_Node000001_Node000002" class="edge">
<title>Node1&#45;&gt;Node2</title>
<g id="a_edge5637_Node000001_Node000002"><a xlink:title=" ">
<path fill="none" stroke="#63b8ff" d="M363.75,-52.62C375.07,-52.62 386.61,-52.62 397.79,-52.62"/>
<polygon fill="#63b8ff" stroke="#63b8ff" points="364.04,-49.13 354.04,-52.63 364.04,-56.13 364.04,-49.13"/>
</a>
</g>
</g>
</g>
</svg>
