<?xml version="1.0" encoding="UTF-8" standalone="no"?>
<!DOCTYPE svg PUBLIC "-//W3C//DTD SVG 1.1//EN"
 "http://www.w3.org/Graphics/SVG/1.1/DTD/svg11.dtd">
<!-- Generated by graphviz version 13.1.2 (20250808.2320)
 -->
<!-- Title: Graphical Class Hierarchy Pages: 1 -->
<svg width="237pt" height="88pt"
 viewBox="0.00 0.00 237.00 88.00" xmlns="http://www.w3.org/2000/svg" xmlns:xlink="http://www.w3.org/1999/xlink">
<g id="graph0" class="graph" transform="scale(1 1) rotate(0) translate(4 83.5)">
<title>Graphical Class Hierarchy</title>
<!-- Node0 -->
<g id="Node000000" class="node">
<title>Node0</title>
<g id="a_Node000000"><a xlink:href="classllvm_1_1objcopy_1_1elf_1_1BasicELFBuilder.html" target="_top" xlink:title=" ">
<polygon fill="white" stroke="#666666" points="94.75,-54.5 0,-54.5 0,-24 94.75,-24 94.75,-54.5"/>
<text xml:space="preserve" text-anchor="start" x="8" y="-41" font-family="Helvetica,sans-Serif" font-size="10.00">llvm::objcopy::elf</text>
<text xml:space="preserve" text-anchor="middle" x="47.38" y="-29.75" font-family="Helvetica,sans-Serif" font-size="10.00">::BasicELFBuilder</text>
</a>
</g>
</g>
<!-- Node1 -->
<g id="Node000001" class="node">
<title>Node1</title>
<g id="a_Node000001"><a xlink:href="classllvm_1_1objcopy_1_1elf_1_1BinaryELFBuilder.html" target="_top" xlink:title=" ">
<polygon fill="white" stroke="#666666" points="228.5,-79.5 130.75,-79.5 130.75,-49 228.5,-49 228.5,-79.5"/>
<text xml:space="preserve" text-anchor="start" x="138.75" y="-66" font-family="Helvetica,sans-Serif" font-size="10.00">llvm::objcopy::elf</text>
<text xml:space="preserve" text-anchor="middle" x="179.62" y="-54.75" font-family="Helvetica,sans-Serif" font-size="10.00">::BinaryELFBuilder</text>
</a>
</g>
</g>
<!-- Node0&#45;&gt;Node1 -->
<g id="edge4945_Node000000_Node000001" class="edge">
<title>Node0&#45;&gt;Node1</title>
<g id="a_edge4945_Node000000_Node000001"><a xlink:title=" ">
<path fill="none" stroke="#63b8ff" d="M106.32,-50.37C114.41,-51.93 122.66,-53.51 130.54,-55.02"/>
<polygon fill="#63b8ff" stroke="#63b8ff" points="107,-46.94 96.52,-48.49 105.68,-53.81 107,-46.94"/>
</a>
</g>
</g>
<!-- Node2 -->
<g id="Node000002" class="node">
<title>Node2</title>
<g id="a_Node000002"><a xlink:href="classllvm_1_1objcopy_1_1elf_1_1IHexELFBuilder.html" target="_top" xlink:title=" ">
<polygon fill="white" stroke="#666666" points="225.12,-30.5 134.12,-30.5 134.12,0 225.12,0 225.12,-30.5"/>
<text xml:space="preserve" text-anchor="start" x="142.12" y="-17" font-family="Helvetica,sans-Serif" font-size="10.00">llvm::objcopy::elf</text>
<text xml:space="preserve" text-anchor="middle" x="179.62" y="-5.75" font-family="Helvetica,sans-Serif" font-size="10.00">::IHexELFBuilder</text>
</a>
</g>
</g>
<!-- Node0&#45;&gt;Node2 -->
<g id="edge4946_Node000000_Node000002" class="edge">
<title>Node0&#45;&gt;Node2</title>
<g id="a_edge4946_Node000000_Node000002"><a xlink:title=" ">
<path fill="none" stroke="#63b8ff" d="M106.25,-28.59C115.57,-26.87 125.09,-25.11 134.04,-23.47"/>
<polygon fill="#63b8ff" stroke="#63b8ff" points="105.72,-25.12 96.52,-30.38 106.99,-32.01 105.72,-25.12"/>
</a>
</g>
</g>
</g>
</svg>
