<?xml version="1.0" encoding="UTF-8" standalone="no"?>
<!DOCTYPE svg PUBLIC "-//W3C//DTD SVG 1.1//EN"
 "http://www.w3.org/Graphics/SVG/1.1/DTD/svg11.dtd">
<!-- Generated by graphviz version 13.1.2 (20250808.2320)
 -->
<!-- Title: Graphical Class Hierarchy Pages: 1 -->
<svg width="777pt" height="115pt"
 viewBox="0.00 0.00 777.00 115.00" xmlns="http://www.w3.org/2000/svg" xmlns:xlink="http://www.w3.org/1999/xlink">
<g id="graph0" class="graph" transform="scale(1 1) rotate(0) translate(4 111.38)">
<title>Graphical Class Hierarchy</title>
<!-- Node0 -->
<g id="Node000000" class="node">
<title>Node0</title>
<g id="a_Node000000"><a xlink:href="classllvm_1_1SmallVectorBase.html" target="_top" xlink:title=" ">
<polygon fill="white" stroke="#666666" points="118.75,-107.38 0,-107.38 0,-54.38 118.75,-54.38 118.75,-107.38"/>
<text xml:space="preserve" text-anchor="start" x="8" y="-93.88" font-family="Helvetica,sans-Serif" font-size="10.00">llvm::SmallVectorBase</text>
<text xml:space="preserve" text-anchor="start" x="8" y="-82.62" font-family="Helvetica,sans-Serif" font-size="10.00">&lt; SmallVectorSizeType</text>
<text xml:space="preserve" text-anchor="start" x="8" y="-71.38" font-family="Helvetica,sans-Serif" font-size="10.00">&lt; llvm::SplitAnalysis</text>
<text xml:space="preserve" text-anchor="middle" x="59.38" y="-60.12" font-family="Helvetica,sans-Serif" font-size="10.00">::BlockInfo &gt; &gt;</text>
</a>
</g>
</g>
<!-- Node1 -->
<g id="Node000001" class="node">
<title>Node1</title>
<g id="a_Node000001"><a xlink:href="classllvm_1_1SmallVectorTemplateCommon.html" target="_top" xlink:title=" ">
<polygon fill="white" stroke="#666666" points="300.5,-101.75 154.75,-101.75 154.75,-60 300.5,-60 300.5,-101.75"/>
<text xml:space="preserve" text-anchor="start" x="162.75" y="-88.25" font-family="Helvetica,sans-Serif" font-size="10.00">llvm::SmallVectorTemplate</text>
<text xml:space="preserve" text-anchor="start" x="162.75" y="-77" font-family="Helvetica,sans-Serif" font-size="10.00">Common&lt; llvm::SplitAnalysis</text>
<text xml:space="preserve" text-anchor="middle" x="227.62" y="-65.75" font-family="Helvetica,sans-Serif" font-size="10.00">::BlockInfo &gt;</text>
</a>
</g>
</g>
<!-- Node0&#45;&gt;Node1 -->
<g id="edge9077_Node000000_Node000001" class="edge">
<title>Node0&#45;&gt;Node1</title>
<g id="a_edge9077_Node000000_Node000001"><a xlink:title=" ">
<path fill="none" stroke="#63b8ff" d="M130.4,-80.88C138.29,-80.88 146.34,-80.88 154.26,-80.88"/>
<polygon fill="#63b8ff" stroke="#63b8ff" points="130.5,-77.38 120.5,-80.88 130.5,-84.38 130.5,-77.38"/>
</a>
</g>
</g>
<!-- Node2 -->
<g id="Node000002" class="node">
<title>Node2</title>
<g id="a_Node000002"><a xlink:href="classllvm_1_1SmallVectorTemplateBase.html" target="_top" xlink:title=" ">
<polygon fill="white" stroke="#666666" points="469.5,-101.75 336.5,-101.75 336.5,-60 469.5,-60 469.5,-101.75"/>
<text xml:space="preserve" text-anchor="start" x="344.5" y="-88.25" font-family="Helvetica,sans-Serif" font-size="10.00">llvm::SmallVectorTemplate</text>
<text xml:space="preserve" text-anchor="start" x="344.5" y="-77" font-family="Helvetica,sans-Serif" font-size="10.00">Base&lt; llvm::SplitAnalysis</text>
<text xml:space="preserve" text-anchor="middle" x="403" y="-65.75" font-family="Helvetica,sans-Serif" font-size="10.00">::BlockInfo &gt;</text>
</a>
</g>
</g>
<!-- Node1&#45;&gt;Node2 -->
<g id="edge9078_Node000001_Node000002" class="edge">
<title>Node1&#45;&gt;Node2</title>
<g id="a_edge9078_Node000001_Node000002"><a xlink:title=" ">
<path fill="none" stroke="#63b8ff" d="M312.23,-80.88C320.28,-80.88 328.37,-80.88 336.21,-80.88"/>
<polygon fill="#63b8ff" stroke="#63b8ff" points="312.41,-77.38 302.41,-80.88 312.41,-84.38 312.41,-77.38"/>
</a>
</g>
</g>
<!-- Node3 -->
<g id="Node000003" class="node">
<title>Node3</title>
<g id="a_Node000003"><a xlink:href="classllvm_1_1SmallVectorImpl.html" target="_top" xlink:title=" ">
<polygon fill="white" stroke="#666666" points="625,-101.75 513,-101.75 513,-60 625,-60 625,-101.75"/>
<text xml:space="preserve" text-anchor="start" x="521" y="-88.25" font-family="Helvetica,sans-Serif" font-size="10.00">llvm::SmallVectorImpl</text>
<text xml:space="preserve" text-anchor="start" x="521" y="-77" font-family="Helvetica,sans-Serif" font-size="10.00">&lt; llvm::SplitAnalysis</text>
<text xml:space="preserve" text-anchor="middle" x="569" y="-65.75" font-family="Helvetica,sans-Serif" font-size="10.00">::BlockInfo &gt;</text>
</a>
</g>
</g>
<!-- Node2&#45;&gt;Node3 -->
<g id="edge9079_Node000002_Node000003" class="edge">
<title>Node2&#45;&gt;Node3</title>
<g id="a_edge9079_Node000002_Node000003"><a xlink:title=" ">
<path fill="none" stroke="#63b8ff" d="M481.16,-80.88C491.74,-80.88 502.42,-80.88 512.5,-80.88"/>
<polygon fill="#63b8ff" stroke="#63b8ff" points="481.27,-77.38 471.27,-80.88 481.27,-84.38 481.27,-77.38"/>
</a>
</g>
</g>
<!-- Node4 -->
<g id="Node000004" class="node">
<title>Node4</title>
<g id="a_Node000004"><a xlink:href="classllvm_1_1SmallVector.html" target="_top" xlink:title=" ">
<polygon fill="white" stroke="#666666" points="768.5,-71.75 668.5,-71.75 668.5,-30 768.5,-30 768.5,-71.75"/>
<text xml:space="preserve" text-anchor="start" x="676.5" y="-58.25" font-family="Helvetica,sans-Serif" font-size="10.00">llvm::SmallVector&lt;</text>
<text xml:space="preserve" text-anchor="start" x="676.5" y="-47" font-family="Helvetica,sans-Serif" font-size="10.00"> llvm::SplitAnalysis</text>
<text xml:space="preserve" text-anchor="middle" x="718.5" y="-35.75" font-family="Helvetica,sans-Serif" font-size="10.00">::BlockInfo, 8 &gt;</text>
</a>
</g>
</g>
<!-- Node3&#45;&gt;Node4 -->
<g id="edge9080_Node000003_Node000004" class="edge">
<title>Node3&#45;&gt;Node4</title>
<g id="a_edge9080_Node000003_Node000004"><a xlink:title=" ">
<path fill="none" stroke="#63b8ff" d="M636.37,-67.38C647.06,-65.2 657.96,-62.98 668.16,-60.91"/>
<polygon fill="#63b8ff" stroke="#63b8ff" points="635.93,-63.89 626.83,-69.32 637.32,-70.75 635.93,-63.89"/>
</a>
</g>
</g>
<!-- Node5 -->
<g id="Node000005" class="node">
<title>Node5</title>
<g id="a_Node000005"><a xlink:href="structllvm_1_1SmallVectorStorage.html" target="_top" xlink:title=" ">
<polygon fill="white" stroke="#666666" points="632.5,-41.75 505.5,-41.75 505.5,0 632.5,0 632.5,-41.75"/>
<text xml:space="preserve" text-anchor="start" x="513.5" y="-28.25" font-family="Helvetica,sans-Serif" font-size="10.00">llvm::SmallVectorStorage</text>
<text xml:space="preserve" text-anchor="start" x="513.5" y="-17" font-family="Helvetica,sans-Serif" font-size="10.00">&lt; llvm::SplitAnalysis::</text>
<text xml:space="preserve" text-anchor="middle" x="569" y="-5.75" font-family="Helvetica,sans-Serif" font-size="10.00">BlockInfo, N &gt;</text>
</a>
</g>
</g>
<!-- Node5&#45;&gt;Node4 -->
<g id="edge9081_Node000005_Node000004" class="edge">
<title>Node5&#45;&gt;Node4</title>
<g id="a_edge9081_Node000005_Node000004"><a xlink:title=" ">
<path fill="none" stroke="#8b1a1a" d="M644.06,-35.94C652.22,-37.6 660.36,-39.25 668.11,-40.83"/>
<polygon fill="#8b1a1a" stroke="#8b1a1a" points="644.96,-32.55 634.46,-33.99 643.57,-39.41 644.96,-32.55"/>
</a>
</g>
</g>
</g>
</svg>
