<?xml version="1.0" encoding="UTF-8" standalone="no"?>
<!DOCTYPE svg PUBLIC "-//W3C//DTD SVG 1.1//EN"
 "http://www.w3.org/Graphics/SVG/1.1/DTD/svg11.dtd">
<!-- Generated by graphviz version 13.1.2 (20250808.2320)
 -->
<!-- Title: Graphical Class Hierarchy Pages: 1 -->
<svg width="312pt" height="76pt"
 viewBox="0.00 0.00 312.00 76.00" xmlns="http://www.w3.org/2000/svg" xmlns:xlink="http://www.w3.org/1999/xlink">
<g id="graph0" class="graph" transform="scale(1 1) rotate(0) translate(4 71.88)">
<title>Graphical Class Hierarchy</title>
<!-- Node0 -->
<g id="Node000000" class="node">
<title>Node0</title>
<g id="a_Node000000"><a xlink:href="structllvm_1_1yaml_1_1has__FlowTraits_3_01T_00_01true_01_4_1_1Fallback.html" target="_top" xlink:title=" ">
<polygon fill="white" stroke="#666666" points="133.75,-67.88 0,-67.88 0,-37.38 133.75,-37.38 133.75,-67.88"/>
<text xml:space="preserve" text-anchor="start" x="8" y="-54.38" font-family="Helvetica,sans-Serif" font-size="10.00">llvm::yaml::has_FlowTraits</text>
<text xml:space="preserve" text-anchor="middle" x="66.88" y="-43.12" font-family="Helvetica,sans-Serif" font-size="10.00">&lt; T, true &gt;::Fallback</text>
</a>
</g>
</g>
<!-- Node1 -->
<g id="Node000001" class="node">
<title>Node1</title>
<g id="a_Node000001"><a xlink:href="structllvm_1_1yaml_1_1has__FlowTraits_3_01T_00_01true_01_4_1_1Derived.html" target="_top" xlink:title=" ">
<polygon fill="white" stroke="#666666" points="303.5,-67.88 169.75,-67.88 169.75,-37.38 303.5,-37.38 303.5,-67.88"/>
<text xml:space="preserve" text-anchor="start" x="177.75" y="-54.38" font-family="Helvetica,sans-Serif" font-size="10.00">llvm::yaml::has_FlowTraits</text>
<text xml:space="preserve" text-anchor="middle" x="236.62" y="-43.12" font-family="Helvetica,sans-Serif" font-size="10.00">&lt; T, true &gt;::Derived</text>
</a>
</g>
</g>
<!-- Node0&#45;&gt;Node1 -->
<g id="edge10590_Node000000_Node000001" class="edge">
<title>Node0&#45;&gt;Node1</title>
<g id="a_edge10590_Node000000_Node000001"><a xlink:title=" ">
<path fill="none" stroke="#63b8ff" d="M145.65,-52.62C153.54,-52.62 161.5,-52.62 169.26,-52.62"/>
<polygon fill="#63b8ff" stroke="#63b8ff" points="145.69,-49.13 135.69,-52.63 145.69,-56.13 145.69,-49.13"/>
</a>
</g>
</g>
<!-- Node2 -->
<g id="Node000002" class="node">
<title>Node2</title>
<g id="a_Node000002"><a xlink:href="classT.html" target="_top" xlink:title=" ">
<polygon fill="white" stroke="#666666" points="81.28,-19.25 52.48,-19.25 52.48,0 81.28,0 81.28,-19.25"/>
<text xml:space="preserve" text-anchor="middle" x="66.88" y="-5.75" font-family="Helvetica,sans-Serif" font-size="10.00">T</text>
</a>
</g>
</g>
<!-- Node2&#45;&gt;Node1 -->
<g id="edge10592_Node000002_Node000001" class="edge">
<title>Node2&#45;&gt;Node1</title>
<g id="a_edge10592_Node000002_Node000001"><a xlink:title=" ">
<path fill="none" stroke="#63b8ff" d="M92.65,-15.98C114.13,-21.48 146.14,-29.69 174.42,-36.94"/>
<polygon fill="#63b8ff" stroke="#63b8ff" points="93.62,-12.61 83.07,-13.52 91.89,-19.39 93.62,-12.61"/>
</a>
</g>
</g>
<!-- Node3 -->
<g id="Node000003" class="node">
<title>Node3</title>
<g id="a_Node000003"><a xlink:href="classllvm_1_1StrongType.html" target="_top" xlink:title="Helper for making strong types.">
<polygon fill="white" stroke="#666666" points="299,-19.25 174.25,-19.25 174.25,0 299,0 299,-19.25"/>
<text xml:space="preserve" text-anchor="middle" x="236.62" y="-5.75" font-family="Helvetica,sans-Serif" font-size="10.00">llvm::StrongType&lt; T, S &gt;</text>
</a>
</g>
</g>
<!-- Node2&#45;&gt;Node3 -->
<g id="edge10591_Node000002_Node000003" class="edge">
<title>Node2&#45;&gt;Node3</title>
<g id="a_edge10591_Node000002_Node000003"><a xlink:title=" ">
<path fill="none" stroke="#63b8ff" d="M92.9,-9.62C114.28,-9.62 145.95,-9.62 174.03,-9.62"/>
<polygon fill="#63b8ff" stroke="#63b8ff" points="93.12,-6.13 83.12,-9.63 93.12,-13.13 93.12,-6.13"/>
</a>
</g>
</g>
</g>
</svg>
