<?xml version="1.0" encoding="UTF-8" standalone="no"?>
<!DOCTYPE svg PUBLIC "-//W3C//DTD SVG 1.1//EN"
 "http://www.w3.org/Graphics/SVG/1.1/DTD/svg11.dtd">
<!-- Generated by graphviz version 13.1.2 (20250808.2320)
 -->
<!-- Title: Graphical Class Hierarchy Pages: 1 -->
<svg width="487pt" height="199pt"
 viewBox="0.00 0.00 487.00 199.00" xmlns="http://www.w3.org/2000/svg" xmlns:xlink="http://www.w3.org/1999/xlink">
<g id="graph0" class="graph" transform="scale(1 1) rotate(0) translate(4 194.88)">
<title>Graphical Class Hierarchy</title>
<!-- Node0 -->
<g id="Node000000" class="node">
<title>Node0</title>
<g id="a_Node000000"><a xlink:href="classllvm_1_1BinaryStream.html" target="_top" xlink:title="An interface for accessing data in a stream&#45;like format, but which discourages copying.">
<polygon fill="white" stroke="#666666" points="99.25,-125.88 0,-125.88 0,-106.62 99.25,-106.62 99.25,-125.88"/>
<text xml:space="preserve" text-anchor="middle" x="49.62" y="-112.38" font-family="Helvetica,sans-Serif" font-size="10.00">llvm::BinaryStream</text>
</a>
</g>
</g>
<!-- Node1 -->
<g id="Node000001" class="node">
<title>Node1</title>
<g id="a_Node000001"><a xlink:href="classllvm_1_1BinaryByteStream.html" target="_top" xlink:title="An implementation of BinaryStream which holds its entire data set in a single contiguous buffer.">
<polygon fill="white" stroke="#666666" points="271.62,-190.88 152.12,-190.88 152.12,-171.62 271.62,-171.62 271.62,-190.88"/>
<text xml:space="preserve" text-anchor="middle" x="211.88" y="-177.38" font-family="Helvetica,sans-Serif" font-size="10.00">llvm::BinaryByteStream</text>
</a>
</g>
</g>
<!-- Node0&#45;&gt;Node1 -->
<g id="edge833_Node000000_Node000001" class="edge">
<title>Node0&#45;&gt;Node1</title>
<g id="a_edge833_Node000000_Node000001"><a xlink:title=" ">
<path fill="none" stroke="#63b8ff" d="M75.68,-132.05C92.12,-141.85 114.35,-154.1 135.25,-162.25 144.08,-165.69 153.73,-168.68 163.1,-171.19"/>
<polygon fill="#63b8ff" stroke="#63b8ff" points="77.92,-129.31 67.56,-127.11 74.28,-135.29 77.92,-129.31"/>
</a>
</g>
</g>
<!-- Node3 -->
<g id="Node000003" class="node">
<title>Node3</title>
<g id="a_Node000003"><a xlink:href="classllvm_1_1BinaryItemStream.html" target="_top" xlink:title="BinaryItemStream represents a sequence of objects stored in some kind of external container but for w...">
<polygon fill="white" stroke="#666666" points="271.25,-153.5 152.5,-153.5 152.5,-123 271.25,-123 271.25,-153.5"/>
<text xml:space="preserve" text-anchor="start" x="160.5" y="-140" font-family="Helvetica,sans-Serif" font-size="10.00">llvm::BinaryItemStream</text>
<text xml:space="preserve" text-anchor="middle" x="211.88" y="-128.75" font-family="Helvetica,sans-Serif" font-size="10.00">&lt; T, Traits &gt;</text>
</a>
</g>
</g>
<!-- Node0&#45;&gt;Node3 -->
<g id="edge835_Node000000_Node000003" class="edge">
<title>Node0&#45;&gt;Node3</title>
<g id="a_edge835_Node000000_Node000003"><a xlink:title=" ">
<path fill="none" stroke="#63b8ff" d="M110.71,-124.5C124.25,-126.36 138.59,-128.33 152.07,-130.18"/>
<polygon fill="#63b8ff" stroke="#63b8ff" points="111.46,-121.07 101.08,-123.18 110.51,-128 111.46,-121.07"/>
</a>
</g>
</g>
<!-- Node4 -->
<g id="Node000004" class="node">
<title>Node4</title>
<g id="a_Node000004"><a xlink:href="classllvm_1_1WritableBinaryStream.html" target="_top" xlink:title="A BinaryStream which can be read from as well as written to.">
<polygon fill="white" stroke="#666666" points="279.12,-104.88 144.62,-104.88 144.62,-85.62 279.12,-85.62 279.12,-104.88"/>
<text xml:space="preserve" text-anchor="middle" x="211.88" y="-91.38" font-family="Helvetica,sans-Serif" font-size="10.00">llvm::WritableBinaryStream</text>
</a>
</g>
</g>
<!-- Node0&#45;&gt;Node4 -->
<g id="edge836_Node000000_Node000004" class="edge">
<title>Node0&#45;&gt;Node4</title>
<g id="a_edge836_Node000000_Node000004"><a xlink:title=" ">
<path fill="none" stroke="#63b8ff" d="M110.73,-108.37C121.66,-106.94 133.12,-105.44 144.22,-103.98"/>
<polygon fill="#63b8ff" stroke="#63b8ff" points="110.54,-104.87 101.08,-109.64 111.45,-111.81 110.54,-104.87"/>
</a>
</g>
</g>
<!-- Node9 -->
<g id="Node000009" class="node">
<title>Node9</title>
<g id="a_Node000009"><a xlink:href="classllvm_1_1msf_1_1MappedBlockStream.html" target="_top" xlink:title="MappedBlockStream represents data stored in an MSF file into chunks of a particular size (called the ...">
<polygon fill="white" stroke="#666666" points="288.5,-67.88 135.25,-67.88 135.25,-48.62 288.5,-48.62 288.5,-67.88"/>
<text xml:space="preserve" text-anchor="middle" x="211.88" y="-54.38" font-family="Helvetica,sans-Serif" font-size="10.00">llvm::msf::MappedBlockStream</text>
</a>
</g>
</g>
<!-- Node0&#45;&gt;Node9 -->
<g id="edge841_Node000000_Node000009" class="edge">
<title>Node0&#45;&gt;Node9</title>
<g id="a_edge841_Node000000_Node000009"><a xlink:title=" ">
<path fill="none" stroke="#63b8ff" d="M78.86,-101.09C95.02,-92.88 115.88,-83.05 135.25,-76.25 143.78,-73.25 153.03,-70.59 162.03,-68.3"/>
<polygon fill="#63b8ff" stroke="#63b8ff" points="77.59,-97.81 70.32,-105.51 80.81,-104.02 77.59,-97.81"/>
</a>
</g>
</g>
<!-- Node2 -->
<g id="Node000002" class="node">
<title>Node2</title>
<g id="a_Node000002"><a xlink:href="classllvm_1_1MemoryBufferByteStream.html" target="_top" xlink:title="An implementation of BinaryStream whose data is backed by an llvm MemoryBuffer object.">
<polygon fill="white" stroke="#666666" points="478.12,-190.88 324.88,-190.88 324.88,-171.62 478.12,-171.62 478.12,-190.88"/>
<text xml:space="preserve" text-anchor="middle" x="401.5" y="-177.38" font-family="Helvetica,sans-Serif" font-size="10.00">llvm::MemoryBufferByteStream</text>
</a>
</g>
</g>
<!-- Node1&#45;&gt;Node2 -->
<g id="edge834_Node000001_Node000002" class="edge">
<title>Node1&#45;&gt;Node2</title>
<g id="a_edge834_Node000001_Node000002"><a xlink:title=" ">
<path fill="none" stroke="#63b8ff" d="M283.13,-181.25C296.62,-181.25 310.81,-181.25 324.47,-181.25"/>
<polygon fill="#63b8ff" stroke="#63b8ff" points="283.5,-177.75 273.5,-181.25 283.5,-184.75 283.5,-177.75"/>
</a>
</g>
</g>
<!-- Node5 -->
<g id="Node000005" class="node">
<title>Node5</title>
<g id="a_Node000005"><a xlink:href="classllvm_1_1AppendingBinaryByteStream.html" target="_top" xlink:title="An implementation of WritableBinaryStream which can write at its end causing the underlying data to g...">
<polygon fill="white" stroke="#666666" points="468.38,-153.5 334.62,-153.5 334.62,-123 468.38,-123 468.38,-153.5"/>
<text xml:space="preserve" text-anchor="start" x="342.62" y="-140" font-family="Helvetica,sans-Serif" font-size="10.00">llvm::AppendingBinaryByte</text>
<text xml:space="preserve" text-anchor="middle" x="401.5" y="-128.75" font-family="Helvetica,sans-Serif" font-size="10.00">Stream</text>
</a>
</g>
</g>
<!-- Node4&#45;&gt;Node5 -->
<g id="edge837_Node000004_Node000005" class="edge">
<title>Node4&#45;&gt;Node5</title>
<g id="a_edge837_Node000004_Node000005"><a xlink:title=" ">
<path fill="none" stroke="#63b8ff" d="M268.06,-107.9C288.84,-112.66 312.68,-118.12 334.36,-123.09"/>
<polygon fill="#63b8ff" stroke="#63b8ff" points="268.87,-104.49 258.34,-105.67 267.31,-111.32 268.87,-104.49"/>
</a>
</g>
</g>
<!-- Node6 -->
<g id="Node000006" class="node">
<title>Node6</title>
<g id="a_Node000006"><a xlink:href="classllvm_1_1FileBufferByteStream.html" target="_top" xlink:title="An implementation of WritableBinaryStream backed by an llvm FileOutputBuffer.">
<polygon fill="white" stroke="#666666" points="468.38,-104.88 334.62,-104.88 334.62,-85.62 468.38,-85.62 468.38,-104.88"/>
<text xml:space="preserve" text-anchor="middle" x="401.5" y="-91.38" font-family="Helvetica,sans-Serif" font-size="10.00">llvm::FileBufferByteStream</text>
</a>
</g>
</g>
<!-- Node4&#45;&gt;Node6 -->
<g id="edge838_Node000004_Node000006" class="edge">
<title>Node4&#45;&gt;Node6</title>
<g id="a_edge838_Node000004_Node000006"><a xlink:title=" ">
<path fill="none" stroke="#63b8ff" d="M290.98,-95.25C305.4,-95.25 320.33,-95.25 334.35,-95.25"/>
<polygon fill="#63b8ff" stroke="#63b8ff" points="291.07,-91.75 281.07,-95.25 291.07,-98.75 291.07,-91.75"/>
</a>
</g>
</g>
<!-- Node7 -->
<g id="Node000007" class="node">
<title>Node7</title>
<g id="a_Node000007"><a xlink:href="classllvm_1_1MutableBinaryByteStream.html" target="_top" xlink:title="An implementation of BinaryStream which holds its entire data set in a single contiguous buffer.">
<polygon fill="white" stroke="#666666" points="478.5,-67.88 324.5,-67.88 324.5,-48.62 478.5,-48.62 478.5,-67.88"/>
<text xml:space="preserve" text-anchor="middle" x="401.5" y="-54.38" font-family="Helvetica,sans-Serif" font-size="10.00">llvm::MutableBinaryByteStream</text>
</a>
</g>
</g>
<!-- Node4&#45;&gt;Node7 -->
<g id="edge839_Node000004_Node000007" class="edge">
<title>Node4&#45;&gt;Node7</title>
<g id="a_edge839_Node000004_Node000007"><a xlink:title=" ">
<path fill="none" stroke="#63b8ff" d="M275.3,-82.94C299.32,-78.2 326.45,-72.85 349.29,-68.35"/>
<polygon fill="#63b8ff" stroke="#63b8ff" points="274.76,-79.48 265.63,-84.85 276.12,-86.35 274.76,-79.48"/>
</a>
</g>
</g>
<!-- Node8 -->
<g id="Node000008" class="node">
<title>Node8</title>
<g id="a_Node000008"><a xlink:href="classllvm_1_1msf_1_1WritableMappedBlockStream.html" target="_top" xlink:title=" ">
<polygon fill="white" stroke="#666666" points="467.62,-30.5 335.38,-30.5 335.38,0 467.62,0 467.62,-30.5"/>
<text xml:space="preserve" text-anchor="start" x="343.38" y="-17" font-family="Helvetica,sans-Serif" font-size="10.00">llvm::msf::WritableMapped</text>
<text xml:space="preserve" text-anchor="middle" x="401.5" y="-5.75" font-family="Helvetica,sans-Serif" font-size="10.00">BlockStream</text>
</a>
</g>
</g>
<!-- Node4&#45;&gt;Node8 -->
<g id="edge840_Node000004_Node000008" class="edge">
<title>Node4&#45;&gt;Node8</title>
<g id="a_edge840_Node000004_Node000008"><a xlink:title=" ">
<path fill="none" stroke="#63b8ff" d="M281.29,-80.97C283.77,-79.82 286.18,-78.59 288.5,-77.25 308.65,-65.63 304.78,-51.59 324.5,-39.25 329.54,-36.09 335.04,-33.32 340.69,-30.89"/>
<polygon fill="#63b8ff" stroke="#63b8ff" points="280.18,-77.64 272.21,-84.62 282.79,-84.14 280.18,-77.64"/>
</a>
</g>
</g>
</g>
</svg>
