<?xml version="1.0" encoding="UTF-8" standalone="no"?>
<!DOCTYPE svg PUBLIC "-//W3C//DTD SVG 1.1//EN"
 "http://www.w3.org/Graphics/SVG/1.1/DTD/svg11.dtd">
<!-- Generated by graphviz version 13.1.2 (20250808.2320)
 -->
<!-- Title: Graphical Class Hierarchy Pages: 1 -->
<svg width="500pt" height="309pt"
 viewBox="0.00 0.00 500.00 309.00" xmlns="http://www.w3.org/2000/svg" xmlns:xlink="http://www.w3.org/1999/xlink">
<g id="graph0" class="graph" transform="scale(1 1) rotate(0) translate(4 304.5)">
<title>Graphical Class Hierarchy</title>
<!-- Node0 -->
<g id="Node000000" class="node">
<title>Node0</title>
<g id="a_Node000000"><a xlink:href="classllvm_1_1IRBuilderBase.html" target="_top" xlink:title="Common base class shared among various IRBuilders.">
<polygon fill="white" stroke="#666666" points="103,-165.88 0,-165.88 0,-146.62 103,-146.62 103,-165.88"/>
<text xml:space="preserve" text-anchor="middle" x="51.5" y="-152.38" font-family="Helvetica,sans-Serif" font-size="10.00">llvm::IRBuilderBase</text>
</a>
</g>
</g>
<!-- Node1 -->
<g id="Node000001" class="node">
<title>Node1</title>
<g id="a_Node000001"><a xlink:href="classllvm_1_1IRBuilder.html" target="_top" xlink:title=" ">
<polygon fill="white" stroke="#666666" points="296.38,-300.5 150.62,-300.5 150.62,-270 296.38,-270 296.38,-300.5"/>
<text xml:space="preserve" text-anchor="start" x="158.62" y="-287" font-family="Helvetica,sans-Serif" font-size="10.00">llvm::IRBuilder&lt; TargetFolder,</text>
<text xml:space="preserve" text-anchor="middle" x="223.5" y="-275.75" font-family="Helvetica,sans-Serif" font-size="10.00"> IRBuilderCallbackInserter &gt;</text>
</a>
</g>
</g>
<!-- Node0&#45;&gt;Node1 -->
<g id="edge3881_Node000000_Node000001" class="edge">
<title>Node0&#45;&gt;Node1</title>
<g id="a_edge3881_Node000000_Node000001"><a xlink:title=" ">
<path fill="none" stroke="#63b8ff" d="M63.65,-176.03C78.04,-199.76 105.27,-239.11 139,-261.25 143.79,-264.39 149,-267.13 154.4,-269.52"/>
<polygon fill="#63b8ff" stroke="#63b8ff" points="66.81,-174.5 58.73,-167.65 60.77,-178.04 66.81,-174.5"/>
</a>
</g>
</g>
<!-- Node2 -->
<g id="Node000002" class="node">
<title>Node2</title>
<g id="a_Node000002"><a xlink:href="classllvm_1_1IRBuilder.html" target="_top" xlink:title=" ">
<polygon fill="white" stroke="#666666" points="267.12,-251.88 179.88,-251.88 179.88,-232.62 267.12,-232.62 267.12,-251.88"/>
<text xml:space="preserve" text-anchor="middle" x="223.5" y="-238.38" font-family="Helvetica,sans-Serif" font-size="10.00">llvm::InsertPoint</text>
</a>
</g>
</g>
<!-- Node0&#45;&gt;Node2 -->
<g id="edge3882_Node000000_Node000002" class="edge">
<title>Node0&#45;&gt;Node2</title>
<g id="a_edge3882_Node000000_Node000002"><a xlink:title=" ">
<path fill="none" stroke="#63b8ff" d="M70.57,-174.12C87.05,-189.41 112.77,-210.86 139,-223.25 151.64,-229.22 166.25,-233.37 179.69,-236.23"/>
<polygon fill="#63b8ff" stroke="#63b8ff" points="73.17,-171.76 63.51,-167.39 68.34,-176.83 73.17,-171.76"/>
</a>
</g>
</g>
<!-- Node3 -->
<g id="Node000003" class="node">
<title>Node3</title>
<g id="a_Node000003"><a xlink:href="classllvm_1_1IRBuilder.html" target="_top" xlink:title=" ">
<polygon fill="white" stroke="#666666" points="308,-214.5 139,-214.5 139,-184 308,-184 308,-214.5"/>
<text xml:space="preserve" text-anchor="start" x="147" y="-201" font-family="Helvetica,sans-Serif" font-size="10.00">llvm::IRBuilder&lt; InstSimplify</text>
<text xml:space="preserve" text-anchor="middle" x="223.5" y="-189.75" font-family="Helvetica,sans-Serif" font-size="10.00">Folder, IRBuilderCallbackInserter &gt;</text>
</a>
</g>
</g>
<!-- Node0&#45;&gt;Node3 -->
<g id="edge3883_Node000000_Node000003" class="edge">
<title>Node0&#45;&gt;Node3</title>
<g id="a_edge3883_Node000000_Node000003"><a xlink:title=" ">
<path fill="none" stroke="#63b8ff" d="M103.42,-169.13C121.3,-173.65 141.58,-178.78 160.27,-183.51"/>
<polygon fill="#63b8ff" stroke="#63b8ff" points="104.38,-165.76 93.82,-166.7 102.66,-172.55 104.38,-165.76"/>
</a>
</g>
</g>
<!-- Node4 -->
<g id="Node000004" class="node">
<title>Node4</title>
<g id="a_Node000004"><a xlink:href="classllvm_1_1IRBuilder.html" target="_top" xlink:title=" ">
<polygon fill="white" stroke="#666666" points="299.75,-165.88 147.25,-165.88 147.25,-146.62 299.75,-146.62 299.75,-165.88"/>
<text xml:space="preserve" text-anchor="middle" x="223.5" y="-152.38" font-family="Helvetica,sans-Serif" font-size="10.00">llvm::IRBuilder&lt; TargetFolder &gt;</text>
</a>
</g>
</g>
<!-- Node0&#45;&gt;Node4 -->
<g id="edge3884_Node000000_Node000004" class="edge">
<title>Node0&#45;&gt;Node4</title>
<g id="a_edge3884_Node000000_Node000004"><a xlink:title=" ">
<path fill="none" stroke="#63b8ff" d="M114.32,-156.25C124.92,-156.25 136.05,-156.25 146.97,-156.25"/>
<polygon fill="#63b8ff" stroke="#63b8ff" points="114.56,-152.75 104.56,-156.25 114.56,-159.75 114.56,-152.75"/>
</a>
</g>
</g>
<!-- Node6 -->
<g id="Node000006" class="node">
<title>Node6</title>
<g id="a_Node000006"><a xlink:href="classllvm_1_1IRBuilder.html" target="_top" xlink:title=" ">
<polygon fill="white" stroke="#666666" points="277.25,-128.5 169.75,-128.5 169.75,-98 277.25,-98 277.25,-128.5"/>
<text xml:space="preserve" text-anchor="start" x="177.75" y="-115" font-family="Helvetica,sans-Serif" font-size="10.00">llvm::IRBuilder&lt; llvm</text>
<text xml:space="preserve" text-anchor="middle" x="223.5" y="-103.75" font-family="Helvetica,sans-Serif" font-size="10.00">::ConstantFolder &gt;</text>
</a>
</g>
</g>
<!-- Node0&#45;&gt;Node6 -->
<g id="edge3886_Node000000_Node000006" class="edge">
<title>Node0&#45;&gt;Node6</title>
<g id="a_edge3886_Node000000_Node000006"><a xlink:title=" ">
<path fill="none" stroke="#63b8ff" d="M103.25,-143.41C124.11,-138.14 148.27,-132.03 169.37,-126.69"/>
<polygon fill="#63b8ff" stroke="#63b8ff" points="102.66,-139.95 93.82,-145.8 104.38,-146.74 102.66,-139.95"/>
</a>
</g>
</g>
<!-- Node7 -->
<g id="Node000007" class="node">
<title>Node7</title>
<g id="a_Node000007"><a xlink:href="classllvm_1_1IRBuilder.html" target="_top" xlink:title=" ">
<polygon fill="white" stroke="#666666" points="277.25,-79.5 169.75,-79.5 169.75,-49 277.25,-49 277.25,-79.5"/>
<text xml:space="preserve" text-anchor="start" x="177.75" y="-66" font-family="Helvetica,sans-Serif" font-size="10.00">llvm::IRBuilder&lt; llvm</text>
<text xml:space="preserve" text-anchor="middle" x="223.5" y="-54.75" font-family="Helvetica,sans-Serif" font-size="10.00">::TargetFolder &gt;</text>
</a>
</g>
</g>
<!-- Node0&#45;&gt;Node7 -->
<g id="edge3887_Node000000_Node000007" class="edge">
<title>Node0&#45;&gt;Node7</title>
<g id="a_edge3887_Node000000_Node000007"><a xlink:title=" ">
<path fill="none" stroke="#63b8ff" d="M71.06,-138.56C87.69,-123.56 113.34,-102.44 139,-89.25 148.55,-84.34 159.23,-80.23 169.67,-76.85"/>
<polygon fill="#63b8ff" stroke="#63b8ff" points="68.89,-135.8 63.92,-145.15 73.64,-140.94 68.89,-135.8"/>
</a>
</g>
</g>
<!-- Node8 -->
<g id="Node000008" class="node">
<title>Node8</title>
<g id="a_Node000008"><a xlink:href="classllvm_1_1IRBuilder.html" target="_top" xlink:title="This provides a uniform API for creating instructions and inserting them into a basic block: either a...">
<polygon fill="white" stroke="#666666" points="288.12,-30.5 158.88,-30.5 158.88,0 288.12,0 288.12,-30.5"/>
<text xml:space="preserve" text-anchor="start" x="166.88" y="-17" font-family="Helvetica,sans-Serif" font-size="10.00">llvm::IRBuilder&lt; FolderTy,</text>
<text xml:space="preserve" text-anchor="middle" x="223.5" y="-5.75" font-family="Helvetica,sans-Serif" font-size="10.00"> InserterTy &gt;</text>
</a>
</g>
</g>
<!-- Node0&#45;&gt;Node8 -->
<g id="edge3888_Node000000_Node000008" class="edge">
<title>Node0&#45;&gt;Node8</title>
<g id="a_edge3888_Node000000_Node000008"><a xlink:title=" ">
<path fill="none" stroke="#63b8ff" d="M62.36,-135.98C76.03,-110 103.14,-65.34 139,-40.25 144.95,-36.09 151.61,-32.6 158.49,-29.7"/>
<polygon fill="#63b8ff" stroke="#63b8ff" points="59.29,-134.31 57.88,-144.81 65.53,-137.48 59.29,-134.31"/>
</a>
</g>
</g>
<!-- Node5 -->
<g id="Node000005" class="node">
<title>Node5</title>
<g id="a_Node000005"><a xlink:href="classBuilderTy.html" target="_top" xlink:title=" ">
<polygon fill="white" stroke="#666666" points="446.25,-165.88 389.75,-165.88 389.75,-146.62 446.25,-146.62 446.25,-165.88"/>
<text xml:space="preserve" text-anchor="middle" x="418" y="-152.38" font-family="Helvetica,sans-Serif" font-size="10.00">BuilderTy</text>
</a>
</g>
</g>
<!-- Node4&#45;&gt;Node5 -->
<g id="edge3885_Node000004_Node000005" class="edge">
<title>Node4&#45;&gt;Node5</title>
<g id="a_edge3885_Node000004_Node000005"><a xlink:title=" ">
<path fill="none" stroke="#63b8ff" d="M311.24,-156.25C339.61,-156.25 369.09,-156.25 389.7,-156.25"/>
<polygon fill="#63b8ff" stroke="#63b8ff" points="311.54,-152.75 301.54,-156.25 311.54,-159.75 311.54,-152.75"/>
</a>
</g>
</g>
<!-- Node9 -->
<g id="Node000009" class="node">
<title>Node9</title>
<g id="a_Node000009"><a xlink:href="structllvm_1_1InstrumentationIRBuilder.html" target="_top" xlink:title=" ">
<polygon fill="white" stroke="#666666" points="492,-24.88 344,-24.88 344,-5.63 492,-5.63 492,-24.88"/>
<text xml:space="preserve" text-anchor="middle" x="418" y="-11.38" font-family="Helvetica,sans-Serif" font-size="10.00">llvm::InstrumentationIRBuilder</text>
</a>
</g>
</g>
<!-- Node8&#45;&gt;Node9 -->
<g id="edge3889_Node000008_Node000009" class="edge">
<title>Node8&#45;&gt;Node9</title>
<g id="a_edge3889_Node000008_Node000009"><a xlink:title=" ">
<path fill="none" stroke="#63b8ff" d="M299.93,-15.25C314.27,-15.25 329.26,-15.25 343.53,-15.25"/>
<polygon fill="#63b8ff" stroke="#63b8ff" points="300.11,-11.75 290.11,-15.25 300.11,-18.75 300.11,-11.75"/>
</a>
</g>
</g>
</g>
</svg>
