<?xml version="1.0" encoding="UTF-8" standalone="no"?>
<!DOCTYPE svg PUBLIC "-//W3C//DTD SVG 1.1//EN"
 "http://www.w3.org/Graphics/SVG/1.1/DTD/svg11.dtd">
<!-- Generated by graphviz version 13.1.2 (20250808.2320)
 -->
<!-- Title: Graphical Class Hierarchy Pages: 1 -->
<svg width="573pt" height="410pt"
 viewBox="0.00 0.00 573.00 410.00" xmlns="http://www.w3.org/2000/svg" xmlns:xlink="http://www.w3.org/1999/xlink">
<g id="graph0" class="graph" transform="scale(1 1) rotate(0) translate(4 405.75)">
<title>Graphical Class Hierarchy</title>
<!-- Node0 -->
<g id="Node000000" class="node">
<title>Node0</title>
<g id="a_Node000000"><a xlink:href="structllvm_1_1BTF_1_1CommonType.html" target="_top" xlink:title="The BTF common type definition.">
<polygon fill="white" stroke="#666666" points="393.88,-212 268.38,-212 268.38,-192.75 393.88,-192.75 393.88,-212"/>
<text xml:space="preserve" text-anchor="middle" x="331.12" y="-198.5" font-family="Helvetica,sans-Serif" font-size="10.00">llvm::BTF::CommonType</text>
</a>
</g>
</g>
<!-- Node1 -->
<g id="Node000001" class="node">
<title>Node1</title>
<g id="a_Node000001"><a xlink:href="structllvm_1_1BTF_1_1ArrayType.html" target="_top" xlink:title=" ">
<polygon fill="white" stroke="#666666" points="558.38,-300 449.38,-300 449.38,-280.75 558.38,-280.75 558.38,-300"/>
<text xml:space="preserve" text-anchor="middle" x="503.88" y="-286.5" font-family="Helvetica,sans-Serif" font-size="10.00">llvm::BTF::ArrayType</text>
</a>
</g>
</g>
<!-- Node0&#45;&gt;Node1 -->
<g id="edge849_Node000000_Node000001" class="edge">
<title>Node0&#45;&gt;Node1</title>
<g id="a_edge849_Node000000_Node000001"><a xlink:title=" ">
<path fill="none" stroke="#63b8ff" d="M381.47,-216.03C390.14,-219.03 398.96,-222.5 407,-226.38 439.09,-241.85 472.9,-266.75 490.53,-280.48"/>
<polygon fill="#63b8ff" stroke="#63b8ff" points="382.66,-212.74 372.07,-212.94 380.47,-219.39 382.66,-212.74"/>
</a>
</g>
</g>
<!-- Node4 -->
<g id="Node000004" class="node">
<title>Node4</title>
<g id="a_Node000004"><a xlink:href="structllvm_1_1BTF_1_1Enum64Type.html" target="_top" xlink:title=" ">
<polygon fill="white" stroke="#666666" points="564.75,-236 443,-236 443,-216.75 564.75,-216.75 564.75,-236"/>
<text xml:space="preserve" text-anchor="middle" x="503.88" y="-222.5" font-family="Helvetica,sans-Serif" font-size="10.00">llvm::BTF::Enum64Type</text>
</a>
</g>
</g>
<!-- Node0&#45;&gt;Node4 -->
<g id="edge850_Node000000_Node000004" class="edge">
<title>Node0&#45;&gt;Node4</title>
<g id="a_edge850_Node000000_Node000004"><a xlink:title=" ">
<path fill="none" stroke="#63b8ff" d="M405.47,-212.68C417.83,-214.42 430.53,-216.21 442.51,-217.89"/>
<polygon fill="#63b8ff" stroke="#63b8ff" points="406.14,-209.24 395.75,-211.32 405.17,-216.18 406.14,-209.24"/>
</a>
</g>
</g>
<!-- Node7 -->
<g id="Node000007" class="node">
<title>Node7</title>
<g id="a_Node000007"><a xlink:href="structllvm_1_1BTF_1_1EnumType.html" target="_top" xlink:title=" ">
<polygon fill="white" stroke="#666666" points="559.5,-179 448.25,-179 448.25,-159.75 559.5,-159.75 559.5,-179"/>
<text xml:space="preserve" text-anchor="middle" x="503.88" y="-165.5" font-family="Helvetica,sans-Serif" font-size="10.00">llvm::BTF::EnumType</text>
</a>
</g>
</g>
<!-- Node0&#45;&gt;Node7 -->
<g id="edge851_Node000000_Node000007" class="edge">
<title>Node0&#45;&gt;Node7</title>
<g id="a_edge851_Node000000_Node000007"><a xlink:title=" ">
<path fill="none" stroke="#63b8ff" d="M395.41,-190.14C413.62,-186.62 433.28,-182.82 450.74,-179.45"/>
<polygon fill="#63b8ff" stroke="#63b8ff" points="394.92,-186.67 385.77,-192.01 396.25,-193.55 394.92,-186.67"/>
</a>
</g>
</g>
<!-- Node10 -->
<g id="Node000010" class="node">
<title>Node10</title>
<g id="a_Node000010"><a xlink:href="structllvm_1_1BTF_1_1StructType.html" target="_top" xlink:title=" ">
<polygon fill="white" stroke="#666666" points="559.88,-136 447.88,-136 447.88,-116.75 559.88,-116.75 559.88,-136"/>
<text xml:space="preserve" text-anchor="middle" x="503.88" y="-122.5" font-family="Helvetica,sans-Serif" font-size="10.00">llvm::BTF::StructType</text>
</a>
</g>
</g>
<!-- Node0&#45;&gt;Node10 -->
<g id="edge852_Node000000_Node000010" class="edge">
<title>Node0&#45;&gt;Node10</title>
<g id="a_edge852_Node000000_Node000010"><a xlink:title=" ">
<path fill="none" stroke="#63b8ff" d="M374.34,-188.52C385.2,-184.44 396.71,-179.64 407,-174.38 424.12,-165.62 425.98,-159.33 443,-150.38 452.91,-145.16 464.21,-140.35 474.31,-136.44"/>
<polygon fill="#63b8ff" stroke="#63b8ff" points="373.41,-185.14 365.2,-191.84 375.79,-191.72 373.41,-185.14"/>
</a>
</g>
</g>
<!-- Node3 -->
<g id="Node000003" class="node">
<title>Node3</title>
<g id="a_Node000003"><a xlink:href="classllvm_1_1trailing__objects__internal_1_1TrailingObjectsImpl.html" target="_top" xlink:title=" ">
<polygon fill="white" stroke="#666666" points="207.25,-401.75 12,-401.75 12,-315 207.25,-315 207.25,-401.75"/>
<text xml:space="preserve" text-anchor="start" x="20" y="-388.25" font-family="Helvetica,sans-Serif" font-size="10.00">llvm::trailing_objects</text>
<text xml:space="preserve" text-anchor="start" x="20" y="-377" font-family="Helvetica,sans-Serif" font-size="10.00">_internal::TrailingObjectsImpl</text>
<text xml:space="preserve" text-anchor="start" x="20" y="-365.75" font-family="Helvetica,sans-Serif" font-size="10.00">&lt; trailing_objects_internal</text>
<text xml:space="preserve" text-anchor="start" x="20" y="-354.5" font-family="Helvetica,sans-Serif" font-size="10.00">::AlignmentCalcHelper&lt; TrailingTys...</text>
<text xml:space="preserve" text-anchor="start" x="20" y="-343.25" font-family="Helvetica,sans-Serif" font-size="10.00"> &gt;::Alignment, ArrayType, TrailingObjects</text>
<text xml:space="preserve" text-anchor="start" x="20" y="-332" font-family="Helvetica,sans-Serif" font-size="10.00">&lt; ArrayType, TrailingTys... &gt;, ArrayType,</text>
<text xml:space="preserve" text-anchor="middle" x="109.62" y="-320.75" font-family="Helvetica,sans-Serif" font-size="10.00"> TrailingTys... &gt;</text>
</a>
</g>
</g>
<!-- Node2 -->
<g id="Node000002" class="node">
<title>Node2</title>
<g id="a_Node000002"><a xlink:href="classllvm_1_1TrailingObjects.html" target="_top" xlink:title=" ">
<polygon fill="white" stroke="#666666" points="393.88,-344.62 268.38,-344.62 268.38,-314.12 393.88,-314.12 393.88,-344.62"/>
<text xml:space="preserve" text-anchor="start" x="276.38" y="-331.12" font-family="Helvetica,sans-Serif" font-size="10.00">llvm::TrailingObjects</text>
<text xml:space="preserve" text-anchor="middle" x="331.12" y="-319.88" font-family="Helvetica,sans-Serif" font-size="10.00">&lt; ArrayType, BTFArray &gt;</text>
</a>
</g>
</g>
<!-- Node3&#45;&gt;Node2 -->
<g id="edge853_Node000003_Node000002" class="edge">
<title>Node3&#45;&gt;Node2</title>
<g id="a_edge853_Node000003_Node000002"><a xlink:title=" ">
<path fill="none" stroke="#8b1a1a" d="M218.66,-344.1C235.63,-341.86 252.65,-339.61 268.1,-337.57"/>
<polygon fill="#8b1a1a" stroke="#8b1a1a" points="218.5,-340.59 209.04,-345.37 219.41,-347.53 218.5,-340.59"/>
</a>
</g>
</g>
<!-- Node2&#45;&gt;Node1 -->
<g id="edge854_Node000002_Node000001" class="edge">
<title>Node2&#45;&gt;Node1</title>
<g id="a_edge854_Node000002_Node000001"><a xlink:title=" ">
<path fill="none" stroke="#8b1a1a" d="M405.42,-312.63C423.56,-308.49 442.45,-304.18 458.71,-300.46"/>
<polygon fill="#8b1a1a" stroke="#8b1a1a" points="404.7,-309.21 395.73,-314.85 406.26,-316.03 404.7,-309.21"/>
</a>
</g>
</g>
<!-- Node6 -->
<g id="Node000006" class="node">
<title>Node6</title>
<g id="a_Node000006"><a xlink:href="classllvm_1_1trailing__objects__internal_1_1TrailingObjectsImpl.html" target="_top" xlink:title=" ">
<polygon fill="white" stroke="#666666" points="219.25,-296.75 0,-296.75 0,-210 219.25,-210 219.25,-296.75"/>
<text xml:space="preserve" text-anchor="start" x="8" y="-283.25" font-family="Helvetica,sans-Serif" font-size="10.00">llvm::trailing_objects</text>
<text xml:space="preserve" text-anchor="start" x="8" y="-272" font-family="Helvetica,sans-Serif" font-size="10.00">_internal::TrailingObjectsImpl</text>
<text xml:space="preserve" text-anchor="start" x="8" y="-260.75" font-family="Helvetica,sans-Serif" font-size="10.00">&lt; trailing_objects_internal</text>
<text xml:space="preserve" text-anchor="start" x="8" y="-249.5" font-family="Helvetica,sans-Serif" font-size="10.00">::AlignmentCalcHelper&lt; TrailingTys...</text>
<text xml:space="preserve" text-anchor="start" x="8" y="-238.25" font-family="Helvetica,sans-Serif" font-size="10.00"> &gt;::Alignment, Enum64Type, TrailingObjects</text>
<text xml:space="preserve" text-anchor="start" x="8" y="-227" font-family="Helvetica,sans-Serif" font-size="10.00">&lt; Enum64Type, TrailingTys... &gt;, Enum64Type,</text>
<text xml:space="preserve" text-anchor="middle" x="109.62" y="-215.75" font-family="Helvetica,sans-Serif" font-size="10.00"> TrailingTys... &gt;</text>
</a>
</g>
</g>
<!-- Node5 -->
<g id="Node000005" class="node">
<title>Node5</title>
<g id="a_Node000005"><a xlink:href="classllvm_1_1TrailingObjects.html" target="_top" xlink:title=" ">
<polygon fill="white" stroke="#666666" points="407,-265.62 255.25,-265.62 255.25,-235.12 407,-235.12 407,-265.62"/>
<text xml:space="preserve" text-anchor="start" x="263.25" y="-252.12" font-family="Helvetica,sans-Serif" font-size="10.00">llvm::TrailingObjects</text>
<text xml:space="preserve" text-anchor="middle" x="331.12" y="-240.88" font-family="Helvetica,sans-Serif" font-size="10.00">&lt; Enum64Type, BTFEnum64 &gt;</text>
</a>
</g>
</g>
<!-- Node6&#45;&gt;Node5 -->
<g id="edge855_Node000006_Node000005" class="edge">
<title>Node6&#45;&gt;Node5</title>
<g id="a_edge855_Node000006_Node000005"><a xlink:title=" ">
<path fill="none" stroke="#8b1a1a" d="M231.19,-251.73C239.28,-251.62 247.28,-251.51 255.03,-251.4"/>
<polygon fill="#8b1a1a" stroke="#8b1a1a" points="231.2,-248.23 221.25,-251.86 231.29,-255.23 231.2,-248.23"/>
</a>
</g>
</g>
<!-- Node5&#45;&gt;Node4 -->
<g id="edge856_Node000005_Node000004" class="edge">
<title>Node5&#45;&gt;Node4</title>
<g id="a_edge856_Node000005_Node000004"><a xlink:title=" ">
<path fill="none" stroke="#8b1a1a" d="M418.24,-238.27C426.49,-237.11 434.73,-235.95 442.65,-234.84"/>
<polygon fill="#8b1a1a" stroke="#8b1a1a" points="417.93,-234.78 408.52,-239.64 418.91,-241.71 417.93,-234.78"/>
</a>
</g>
</g>
<!-- Node9 -->
<g id="Node000009" class="node">
<title>Node9</title>
<g id="a_Node000009"><a xlink:href="classllvm_1_1trailing__objects__internal_1_1TrailingObjectsImpl.html" target="_top" xlink:title=" ">
<polygon fill="white" stroke="#666666" points="208.75,-191.75 10.5,-191.75 10.5,-105 208.75,-105 208.75,-191.75"/>
<text xml:space="preserve" text-anchor="start" x="18.5" y="-178.25" font-family="Helvetica,sans-Serif" font-size="10.00">llvm::trailing_objects</text>
<text xml:space="preserve" text-anchor="start" x="18.5" y="-167" font-family="Helvetica,sans-Serif" font-size="10.00">_internal::TrailingObjectsImpl</text>
<text xml:space="preserve" text-anchor="start" x="18.5" y="-155.75" font-family="Helvetica,sans-Serif" font-size="10.00">&lt; trailing_objects_internal</text>
<text xml:space="preserve" text-anchor="start" x="18.5" y="-144.5" font-family="Helvetica,sans-Serif" font-size="10.00">::AlignmentCalcHelper&lt; TrailingTys...</text>
<text xml:space="preserve" text-anchor="start" x="18.5" y="-133.25" font-family="Helvetica,sans-Serif" font-size="10.00"> &gt;::Alignment, EnumType, TrailingObjects</text>
<text xml:space="preserve" text-anchor="start" x="18.5" y="-122" font-family="Helvetica,sans-Serif" font-size="10.00">&lt; EnumType, TrailingTys... &gt;, EnumType,</text>
<text xml:space="preserve" text-anchor="middle" x="109.62" y="-110.75" font-family="Helvetica,sans-Serif" font-size="10.00"> TrailingTys... &gt;</text>
</a>
</g>
</g>
<!-- Node8 -->
<g id="Node000008" class="node">
<title>Node8</title>
<g id="a_Node000008"><a xlink:href="classllvm_1_1TrailingObjects.html" target="_top" xlink:title=" ">
<polygon fill="white" stroke="#666666" points="396.5,-165.62 265.75,-165.62 265.75,-135.12 396.5,-135.12 396.5,-165.62"/>
<text xml:space="preserve" text-anchor="start" x="273.75" y="-152.12" font-family="Helvetica,sans-Serif" font-size="10.00">llvm::TrailingObjects</text>
<text xml:space="preserve" text-anchor="middle" x="331.12" y="-140.88" font-family="Helvetica,sans-Serif" font-size="10.00">&lt; EnumType, BTFEnum &gt;</text>
</a>
</g>
</g>
<!-- Node9&#45;&gt;Node8 -->
<g id="edge857_Node000009_Node000008" class="edge">
<title>Node9&#45;&gt;Node8</title>
<g id="a_edge857_Node000009_Node000008"><a xlink:title=" ">
<path fill="none" stroke="#8b1a1a" d="M220.33,-149.37C235.71,-149.51 251.1,-149.65 265.28,-149.78"/>
<polygon fill="#8b1a1a" stroke="#8b1a1a" points="220.68,-145.88 210.65,-149.29 220.62,-152.88 220.68,-145.88"/>
</a>
</g>
</g>
<!-- Node8&#45;&gt;Node7 -->
<g id="edge858_Node000008_Node000007" class="edge">
<title>Node8&#45;&gt;Node7</title>
<g id="a_edge858_Node000008_Node000007"><a xlink:title=" ">
<path fill="none" stroke="#8b1a1a" d="M407.91,-158.81C421.4,-160.31 435.22,-161.85 448,-163.27"/>
<polygon fill="#8b1a1a" stroke="#8b1a1a" points="408.51,-155.35 398.18,-157.73 407.73,-162.31 408.51,-155.35"/>
</a>
</g>
</g>
<!-- Node12 -->
<g id="Node000012" class="node">
<title>Node12</title>
<g id="a_Node000012"><a xlink:href="classllvm_1_1trailing__objects__internal_1_1TrailingObjectsImpl.html" target="_top" xlink:title=" ">
<polygon fill="white" stroke="#666666" points="209.5,-86.75 9.75,-86.75 9.75,0 209.5,0 209.5,-86.75"/>
<text xml:space="preserve" text-anchor="start" x="17.75" y="-73.25" font-family="Helvetica,sans-Serif" font-size="10.00">llvm::trailing_objects</text>
<text xml:space="preserve" text-anchor="start" x="17.75" y="-62" font-family="Helvetica,sans-Serif" font-size="10.00">_internal::TrailingObjectsImpl</text>
<text xml:space="preserve" text-anchor="start" x="17.75" y="-50.75" font-family="Helvetica,sans-Serif" font-size="10.00">&lt; trailing_objects_internal</text>
<text xml:space="preserve" text-anchor="start" x="17.75" y="-39.5" font-family="Helvetica,sans-Serif" font-size="10.00">::AlignmentCalcHelper&lt; TrailingTys...</text>
<text xml:space="preserve" text-anchor="start" x="17.75" y="-28.25" font-family="Helvetica,sans-Serif" font-size="10.00"> &gt;::Alignment, StructType, TrailingObjects</text>
<text xml:space="preserve" text-anchor="start" x="17.75" y="-17" font-family="Helvetica,sans-Serif" font-size="10.00">&lt; StructType, TrailingTys... &gt;, StructType,</text>
<text xml:space="preserve" text-anchor="middle" x="109.62" y="-5.75" font-family="Helvetica,sans-Serif" font-size="10.00"> TrailingTys... &gt;</text>
</a>
</g>
</g>
<!-- Node11 -->
<g id="Node000011" class="node">
<title>Node11</title>
<g id="a_Node000011"><a xlink:href="classllvm_1_1TrailingObjects.html" target="_top" xlink:title=" ">
<polygon fill="white" stroke="#666666" points="401.75,-88.62 260.5,-88.62 260.5,-58.12 401.75,-58.12 401.75,-88.62"/>
<text xml:space="preserve" text-anchor="start" x="268.5" y="-75.12" font-family="Helvetica,sans-Serif" font-size="10.00">llvm::TrailingObjects</text>
<text xml:space="preserve" text-anchor="middle" x="331.12" y="-63.88" font-family="Helvetica,sans-Serif" font-size="10.00">&lt; StructType, BTFMember &gt;</text>
</a>
</g>
</g>
<!-- Node12&#45;&gt;Node11 -->
<g id="edge859_Node000012_Node000011" class="edge">
<title>Node12&#45;&gt;Node11</title>
<g id="a_edge859_Node000012_Node000011"><a xlink:title=" ">
<path fill="none" stroke="#8b1a1a" d="M220.99,-58.46C234.36,-60.29 247.72,-62.11 260.27,-63.83"/>
<polygon fill="#8b1a1a" stroke="#8b1a1a" points="221.66,-55.02 211.28,-57.13 220.71,-61.95 221.66,-55.02"/>
</a>
</g>
</g>
<!-- Node11&#45;&gt;Node10 -->
<g id="edge860_Node000011_Node000010" class="edge">
<title>Node11&#45;&gt;Node10</title>
<g id="a_edge860_Node000011_Node000010"><a xlink:title=" ">
<path fill="none" stroke="#8b1a1a" d="M393.36,-92.38C419.39,-100.46 448.68,-109.55 470.41,-116.3"/>
<polygon fill="#8b1a1a" stroke="#8b1a1a" points="394.47,-89.06 383.88,-89.44 392.39,-95.75 394.47,-89.06"/>
</a>
</g>
</g>
</g>
</svg>
