<?xml version="1.0" encoding="UTF-8" standalone="no"?>
<!DOCTYPE svg PUBLIC "-//W3C//DTD SVG 1.1//EN"
 "http://www.w3.org/Graphics/SVG/1.1/DTD/svg11.dtd">
<!-- Generated by graphviz version 13.1.2 (20250808.2320)
 -->
<!-- Title: Graphical Class Hierarchy Pages: 1 -->
<svg width="939pt" height="115pt"
 viewBox="0.00 0.00 939.00 115.00" xmlns="http://www.w3.org/2000/svg" xmlns:xlink="http://www.w3.org/1999/xlink">
<g id="graph0" class="graph" transform="scale(1 1) rotate(0) translate(4 111.38)">
<title>Graphical Class Hierarchy</title>
<!-- Node0 -->
<g id="Node000000" class="node">
<title>Node0</title>
<g id="a_Node000000"><a xlink:href="classllvm_1_1SmallVectorBase.html" target="_top" xlink:title=" ">
<polygon fill="white" stroke="#666666" points="153.25,-107.38 0,-107.38 0,-54.38 153.25,-54.38 153.25,-107.38"/>
<text xml:space="preserve" text-anchor="start" x="8" y="-93.88" font-family="Helvetica,sans-Serif" font-size="10.00">llvm::SmallVectorBase</text>
<text xml:space="preserve" text-anchor="start" x="8" y="-82.62" font-family="Helvetica,sans-Serif" font-size="10.00">&lt; SmallVectorSizeType</text>
<text xml:space="preserve" text-anchor="start" x="8" y="-71.38" font-family="Helvetica,sans-Serif" font-size="10.00">&lt; llvm::objcopy::SectionPattern</text>
<text xml:space="preserve" text-anchor="middle" x="76.62" y="-60.12" font-family="Helvetica,sans-Serif" font-size="10.00">AddressUpdate &gt; &gt;</text>
</a>
</g>
</g>
<!-- Node1 -->
<g id="Node000001" class="node">
<title>Node1</title>
<g id="a_Node000001"><a xlink:href="classllvm_1_1SmallVectorTemplateCommon.html" target="_top" xlink:title=" ">
<polygon fill="white" stroke="#666666" points="346.25,-101.75 189.25,-101.75 189.25,-60 346.25,-60 346.25,-101.75"/>
<text xml:space="preserve" text-anchor="start" x="197.25" y="-88.25" font-family="Helvetica,sans-Serif" font-size="10.00">llvm::SmallVectorTemplate</text>
<text xml:space="preserve" text-anchor="start" x="197.25" y="-77" font-family="Helvetica,sans-Serif" font-size="10.00">Common&lt; llvm::objcopy::</text>
<text xml:space="preserve" text-anchor="middle" x="267.75" y="-65.75" font-family="Helvetica,sans-Serif" font-size="10.00">SectionPatternAddressUpdate &gt;</text>
</a>
</g>
</g>
<!-- Node0&#45;&gt;Node1 -->
<g id="edge8838_Node000000_Node000001" class="edge">
<title>Node0&#45;&gt;Node1</title>
<g id="a_edge8838_Node000000_Node000001"><a xlink:title=" ">
<path fill="none" stroke="#63b8ff" d="M164.97,-80.88C172.97,-80.88 181.04,-80.88 188.95,-80.88"/>
<polygon fill="#63b8ff" stroke="#63b8ff" points="165.25,-77.38 155.25,-80.88 165.25,-84.38 165.25,-77.38"/>
</a>
</g>
</g>
<!-- Node2 -->
<g id="Node000002" class="node">
<title>Node2</title>
<g id="a_Node000002"><a xlink:href="classllvm_1_1SmallVectorTemplateBase.html" target="_top" xlink:title=" ">
<polygon fill="white" stroke="#666666" points="558,-101.75 382.25,-101.75 382.25,-60 558,-60 558,-101.75"/>
<text xml:space="preserve" text-anchor="start" x="390.25" y="-88.25" font-family="Helvetica,sans-Serif" font-size="10.00">llvm::SmallVectorTemplate</text>
<text xml:space="preserve" text-anchor="start" x="390.25" y="-77" font-family="Helvetica,sans-Serif" font-size="10.00">Base&lt; llvm::objcopy::SectionPattern</text>
<text xml:space="preserve" text-anchor="middle" x="470.12" y="-65.75" font-family="Helvetica,sans-Serif" font-size="10.00">AddressUpdate &gt;</text>
</a>
</g>
</g>
<!-- Node1&#45;&gt;Node2 -->
<g id="edge8839_Node000001_Node000002" class="edge">
<title>Node1&#45;&gt;Node2</title>
<g id="a_edge8839_Node000001_Node000002"><a xlink:title=" ">
<path fill="none" stroke="#63b8ff" d="M357.99,-80.88C365.89,-80.88 373.88,-80.88 381.76,-80.88"/>
<polygon fill="#63b8ff" stroke="#63b8ff" points="358.02,-77.38 348.02,-80.88 358.02,-84.38 358.02,-77.38"/>
</a>
</g>
</g>
<!-- Node3 -->
<g id="Node000003" class="node">
<title>Node3</title>
<g id="a_Node000003"><a xlink:href="classllvm_1_1SmallVectorImpl.html" target="_top" xlink:title=" ">
<polygon fill="white" stroke="#666666" points="747.25,-101.75 594,-101.75 594,-60 747.25,-60 747.25,-101.75"/>
<text xml:space="preserve" text-anchor="start" x="602" y="-88.25" font-family="Helvetica,sans-Serif" font-size="10.00">llvm::SmallVectorImpl</text>
<text xml:space="preserve" text-anchor="start" x="602" y="-77" font-family="Helvetica,sans-Serif" font-size="10.00">&lt; llvm::objcopy::SectionPattern</text>
<text xml:space="preserve" text-anchor="middle" x="670.62" y="-65.75" font-family="Helvetica,sans-Serif" font-size="10.00">AddressUpdate &gt;</text>
</a>
</g>
</g>
<!-- Node2&#45;&gt;Node3 -->
<g id="edge8840_Node000002_Node000003" class="edge">
<title>Node2&#45;&gt;Node3</title>
<g id="a_edge8840_Node000002_Node000003"><a xlink:title=" ">
<path fill="none" stroke="#63b8ff" d="M569.82,-80.88C577.86,-80.88 585.91,-80.88 593.74,-80.88"/>
<polygon fill="#63b8ff" stroke="#63b8ff" points="569.99,-77.38 559.99,-80.88 569.99,-84.38 569.99,-77.38"/>
</a>
</g>
</g>
<!-- Node4 -->
<g id="Node000004" class="node">
<title>Node4</title>
<g id="a_Node000004"><a xlink:href="classllvm_1_1SmallVector.html" target="_top" xlink:title=" ">
<polygon fill="white" stroke="#666666" points="930.5,-71.75 783.25,-71.75 783.25,-30 930.5,-30 930.5,-71.75"/>
<text xml:space="preserve" text-anchor="start" x="791.25" y="-58.25" font-family="Helvetica,sans-Serif" font-size="10.00">llvm::SmallVector&lt;</text>
<text xml:space="preserve" text-anchor="start" x="791.25" y="-47" font-family="Helvetica,sans-Serif" font-size="10.00"> llvm::objcopy::SectionPattern</text>
<text xml:space="preserve" text-anchor="middle" x="856.88" y="-35.75" font-family="Helvetica,sans-Serif" font-size="10.00">AddressUpdate, 0 &gt;</text>
</a>
</g>
</g>
<!-- Node3&#45;&gt;Node4 -->
<g id="edge8841_Node000003_Node000004" class="edge">
<title>Node3&#45;&gt;Node4</title>
<g id="a_edge8841_Node000003_Node000004"><a xlink:title=" ">
<path fill="none" stroke="#63b8ff" d="M758.95,-66.66C767.01,-65.34 775.11,-64.03 783.01,-62.74"/>
<polygon fill="#63b8ff" stroke="#63b8ff" points="758.43,-63.19 749.12,-68.26 759.56,-70.1 758.43,-63.19"/>
</a>
</g>
</g>
<!-- Node5 -->
<g id="Node000005" class="node">
<title>Node5</title>
<g id="a_Node000005"><a xlink:href="structllvm_1_1SmallVectorStorage.html" target="_top" xlink:title=" ">
<polygon fill="white" stroke="#666666" points="747.25,-41.75 594,-41.75 594,0 747.25,0 747.25,-41.75"/>
<text xml:space="preserve" text-anchor="start" x="602" y="-28.25" font-family="Helvetica,sans-Serif" font-size="10.00">llvm::SmallVectorStorage</text>
<text xml:space="preserve" text-anchor="start" x="602" y="-17" font-family="Helvetica,sans-Serif" font-size="10.00">&lt; llvm::objcopy::SectionPattern</text>
<text xml:space="preserve" text-anchor="middle" x="670.62" y="-5.75" font-family="Helvetica,sans-Serif" font-size="10.00">AddressUpdate, N &gt;</text>
</a>
</g>
</g>
<!-- Node5&#45;&gt;Node4 -->
<g id="edge8842_Node000005_Node000004" class="edge">
<title>Node5&#45;&gt;Node4</title>
<g id="a_edge8842_Node000005_Node000004"><a xlink:title=" ">
<path fill="none" stroke="#8b1a1a" d="M758.95,-35.09C767.01,-36.41 775.11,-37.72 783.01,-39.01"/>
<polygon fill="#8b1a1a" stroke="#8b1a1a" points="759.56,-31.65 749.12,-33.49 758.43,-38.56 759.56,-31.65"/>
</a>
</g>
</g>
</g>
</svg>
