<?xml version="1.0" encoding="UTF-8" standalone="no"?>
<!DOCTYPE svg PUBLIC "-//W3C//DTD SVG 1.1//EN"
 "http://www.w3.org/Graphics/SVG/1.1/DTD/svg11.dtd">
<!-- Generated by graphviz version 13.1.2 (20250808.2320)
 -->
<!-- Title: Graphical Class Hierarchy Pages: 1 -->
<svg width="834pt" height="204pt"
 viewBox="0.00 0.00 834.00 204.00" xmlns="http://www.w3.org/2000/svg" xmlns:xlink="http://www.w3.org/1999/xlink">
<g id="graph0" class="graph" transform="scale(1 1) rotate(0) translate(4 199.62)">
<title>Graphical Class Hierarchy</title>
<!-- Node0 -->
<g id="Node000000" class="node">
<title>Node0</title>
<g id="a_Node000000"><a xlink:href="classllvm_1_1SmallVectorBase.html" target="_top" xlink:title=" ">
<polygon fill="white" stroke="#666666" points="118.75,-141.25 0,-141.25 0,-88.25 118.75,-88.25 118.75,-141.25"/>
<text xml:space="preserve" text-anchor="start" x="8" y="-127.75" font-family="Helvetica,sans-Serif" font-size="10.00">llvm::SmallVectorBase</text>
<text xml:space="preserve" text-anchor="start" x="8" y="-116.5" font-family="Helvetica,sans-Serif" font-size="10.00">&lt; SmallVectorSizeType</text>
<text xml:space="preserve" text-anchor="start" x="8" y="-105.25" font-family="Helvetica,sans-Serif" font-size="10.00">&lt; std::unique_ptr&lt; llvm</text>
<text xml:space="preserve" text-anchor="middle" x="59.38" y="-94" font-family="Helvetica,sans-Serif" font-size="10.00">::MemoryBuffer &gt; &gt; &gt;</text>
</a>
</g>
</g>
<!-- Node1 -->
<g id="Node000001" class="node">
<title>Node1</title>
<g id="a_Node000001"><a xlink:href="classllvm_1_1SmallVectorTemplateCommon.html" target="_top" xlink:title=" ">
<polygon fill="white" stroke="#666666" points="287.75,-135.62 154.75,-135.62 154.75,-93.88 287.75,-93.88 287.75,-135.62"/>
<text xml:space="preserve" text-anchor="start" x="162.75" y="-122.12" font-family="Helvetica,sans-Serif" font-size="10.00">llvm::SmallVectorTemplate</text>
<text xml:space="preserve" text-anchor="start" x="162.75" y="-110.88" font-family="Helvetica,sans-Serif" font-size="10.00">Common&lt; std::unique_ptr</text>
<text xml:space="preserve" text-anchor="middle" x="221.25" y="-99.62" font-family="Helvetica,sans-Serif" font-size="10.00">&lt; llvm::MemoryBuffer &gt; &gt;</text>
</a>
</g>
</g>
<!-- Node0&#45;&gt;Node1 -->
<g id="edge10095_Node000000_Node000001" class="edge">
<title>Node0&#45;&gt;Node1</title>
<g id="a_edge10095_Node000000_Node000001"><a xlink:title=" ">
<path fill="none" stroke="#63b8ff" d="M130.48,-114.75C138.41,-114.75 146.47,-114.75 154.34,-114.75"/>
<polygon fill="#63b8ff" stroke="#63b8ff" points="130.51,-111.25 120.51,-114.75 130.51,-118.25 130.51,-111.25"/>
</a>
</g>
</g>
<!-- Node2 -->
<g id="Node000002" class="node">
<title>Node2</title>
<g id="a_Node000002"><a xlink:href="classllvm_1_1SmallVectorTemplateBase.html" target="_top" xlink:title=" ">
<polygon fill="white" stroke="#666666" points="456.75,-135.62 323.75,-135.62 323.75,-93.88 456.75,-93.88 456.75,-135.62"/>
<text xml:space="preserve" text-anchor="start" x="331.75" y="-122.12" font-family="Helvetica,sans-Serif" font-size="10.00">llvm::SmallVectorTemplate</text>
<text xml:space="preserve" text-anchor="start" x="331.75" y="-110.88" font-family="Helvetica,sans-Serif" font-size="10.00">Base&lt; std::unique_ptr&lt;</text>
<text xml:space="preserve" text-anchor="middle" x="390.25" y="-99.62" font-family="Helvetica,sans-Serif" font-size="10.00"> llvm::MemoryBuffer &gt; &gt;</text>
</a>
</g>
</g>
<!-- Node1&#45;&gt;Node2 -->
<g id="edge10096_Node000001_Node000002" class="edge">
<title>Node1&#45;&gt;Node2</title>
<g id="a_edge10096_Node000001_Node000002"><a xlink:title=" ">
<path fill="none" stroke="#63b8ff" d="M299.13,-114.75C307.23,-114.75 315.41,-114.75 323.37,-114.75"/>
<polygon fill="#63b8ff" stroke="#63b8ff" points="299.29,-111.25 289.29,-114.75 299.29,-118.25 299.29,-111.25"/>
</a>
</g>
</g>
<!-- Node3 -->
<g id="Node000003" class="node">
<title>Node3</title>
<g id="a_Node000003"><a xlink:href="classllvm_1_1SmallVectorImpl.html" target="_top" xlink:title=" ">
<polygon fill="white" stroke="#666666" points="643,-135.62 526.5,-135.62 526.5,-93.88 643,-93.88 643,-135.62"/>
<text xml:space="preserve" text-anchor="start" x="534.5" y="-122.12" font-family="Helvetica,sans-Serif" font-size="10.00">llvm::SmallVectorImpl</text>
<text xml:space="preserve" text-anchor="start" x="534.5" y="-110.88" font-family="Helvetica,sans-Serif" font-size="10.00">&lt; std::unique_ptr&lt; llvm</text>
<text xml:space="preserve" text-anchor="middle" x="584.75" y="-99.62" font-family="Helvetica,sans-Serif" font-size="10.00">::MemoryBuffer &gt; &gt;</text>
</a>
</g>
</g>
<!-- Node2&#45;&gt;Node3 -->
<g id="edge10097_Node000002_Node000003" class="edge">
<title>Node2&#45;&gt;Node3</title>
<g id="a_edge10097_Node000002_Node000003"><a xlink:title=" ">
<path fill="none" stroke="#63b8ff" d="M468.71,-114.75C487.91,-114.75 508.16,-114.75 526.22,-114.75"/>
<polygon fill="#63b8ff" stroke="#63b8ff" points="468.74,-111.25 458.74,-114.75 468.74,-118.25 468.74,-111.25"/>
</a>
</g>
</g>
<!-- Node4 -->
<g id="Node000004" class="node">
<title>Node4</title>
<g id="a_Node000004"><a xlink:href="classllvm_1_1SmallVector.html" target="_top" xlink:title=" ">
<polygon fill="white" stroke="#666666" points="825.5,-165.62 712.75,-165.62 712.75,-123.88 825.5,-123.88 825.5,-165.62"/>
<text xml:space="preserve" text-anchor="start" x="720.75" y="-152.12" font-family="Helvetica,sans-Serif" font-size="10.00">llvm::SmallVector&lt;</text>
<text xml:space="preserve" text-anchor="start" x="720.75" y="-140.88" font-family="Helvetica,sans-Serif" font-size="10.00"> std::unique_ptr&lt; llvm</text>
<text xml:space="preserve" text-anchor="middle" x="769.12" y="-129.62" font-family="Helvetica,sans-Serif" font-size="10.00">::MemoryBuffer &gt;, 2 &gt;</text>
</a>
</g>
</g>
<!-- Node3&#45;&gt;Node4 -->
<g id="edge10098_Node000003_Node000004" class="edge">
<title>Node3&#45;&gt;Node4</title>
<g id="a_edge10098_Node000003_Node000004"><a xlink:title=" ">
<path fill="none" stroke="#63b8ff" d="M654.78,-126.1C673.8,-129.23 694.19,-132.59 712.35,-135.58"/>
<polygon fill="#63b8ff" stroke="#63b8ff" points="655.38,-122.66 644.95,-124.49 654.25,-129.56 655.38,-122.66"/>
</a>
</g>
</g>
<!-- Node6 -->
<g id="Node000006" class="node">
<title>Node6</title>
<g id="a_Node000006"><a xlink:href="classllvm_1_1SmallVector.html" target="_top" xlink:title=" ">
<polygon fill="white" stroke="#666666" points="824.38,-97.62 713.88,-97.62 713.88,-55.88 824.38,-55.88 824.38,-97.62"/>
<text xml:space="preserve" text-anchor="start" x="721.88" y="-84.12" font-family="Helvetica,sans-Serif" font-size="10.00">llvm::SmallVector&lt;</text>
<text xml:space="preserve" text-anchor="start" x="721.88" y="-72.88" font-family="Helvetica,sans-Serif" font-size="10.00"> std::unique_ptr&lt; llvm</text>
<text xml:space="preserve" text-anchor="middle" x="769.12" y="-61.62" font-family="Helvetica,sans-Serif" font-size="10.00">::MemoryBuffer &gt; &gt;</text>
</a>
</g>
</g>
<!-- Node3&#45;&gt;Node6 -->
<g id="edge10099_Node000003_Node000006" class="edge">
<title>Node3&#45;&gt;Node6</title>
<g id="a_edge10099_Node000003_Node000006"><a xlink:title=" ">
<path fill="none" stroke="#63b8ff" d="M654.72,-100.38C674.19,-96.32 695.1,-91.97 713.59,-88.11"/>
<polygon fill="#63b8ff" stroke="#63b8ff" points="654.01,-96.95 644.94,-102.42 655.44,-103.8 654.01,-96.95"/>
</a>
</g>
</g>
<!-- Node7 -->
<g id="Node000007" class="node">
<title>Node7</title>
<g id="a_Node000007"><a xlink:title=" ">
<polygon fill="#e0e0e0" stroke="#999999" points="676.75,-75.5 492.75,-75.5 492.75,0 676.75,0 676.75,-75.5"/>
<text xml:space="preserve" text-anchor="start" x="500.75" y="-62" font-family="Helvetica,sans-Serif" font-size="10.00">SmallVectorStorage</text>
<text xml:space="preserve" text-anchor="start" x="500.75" y="-50.75" font-family="Helvetica,sans-Serif" font-size="10.00">&lt; std::unique_ptr&lt; llvm</text>
<text xml:space="preserve" text-anchor="start" x="500.75" y="-39.5" font-family="Helvetica,sans-Serif" font-size="10.00">::MemoryBuffer &gt;, CalculateSmall</text>
<text xml:space="preserve" text-anchor="start" x="500.75" y="-28.25" font-family="Helvetica,sans-Serif" font-size="10.00">VectorDefaultInlinedElements</text>
<text xml:space="preserve" text-anchor="start" x="500.75" y="-17" font-family="Helvetica,sans-Serif" font-size="10.00">&lt; std::unique_ptr&lt; llvm::MemoryBuffer</text>
<text xml:space="preserve" text-anchor="middle" x="584.75" y="-5.75" font-family="Helvetica,sans-Serif" font-size="10.00"> &gt; &gt;::value &gt;</text>
</a>
</g>
</g>
<!-- Node7&#45;&gt;Node6 -->
<g id="edge10100_Node000007_Node000006" class="edge">
<title>Node7&#45;&gt;Node6</title>
<g id="a_edge10100_Node000007_Node000006"><a xlink:title=" ">
<path fill="none" stroke="#8b1a1a" d="M688.26,-59.67C696.95,-61.53 705.5,-63.36 713.59,-65.09"/>
<polygon fill="#8b1a1a" stroke="#8b1a1a" points="689.2,-56.29 678.68,-57.62 687.73,-63.14 689.2,-56.29"/>
</a>
</g>
</g>
<!-- Node5 -->
<g id="Node000005" class="node">
<title>Node5</title>
<g id="a_Node000005"><a xlink:href="structllvm_1_1SmallVectorStorage.html" target="_top" xlink:title=" ">
<polygon fill="white" stroke="#666666" points="648.25,-195.62 521.25,-195.62 521.25,-153.88 648.25,-153.88 648.25,-195.62"/>
<text xml:space="preserve" text-anchor="start" x="529.25" y="-182.12" font-family="Helvetica,sans-Serif" font-size="10.00">llvm::SmallVectorStorage</text>
<text xml:space="preserve" text-anchor="start" x="529.25" y="-170.88" font-family="Helvetica,sans-Serif" font-size="10.00">&lt; std::unique_ptr&lt; llvm</text>
<text xml:space="preserve" text-anchor="middle" x="584.75" y="-159.62" font-family="Helvetica,sans-Serif" font-size="10.00">::MemoryBuffer &gt;, N &gt;</text>
</a>
</g>
</g>
<!-- Node5&#45;&gt;Node4 -->
<g id="edge10101_Node000005_Node000004" class="edge">
<title>Node5&#45;&gt;Node4</title>
<g id="a_edge10101_Node000005_Node000004"><a xlink:title=" ">
<path fill="none" stroke="#8b1a1a" d="M659.86,-162.56C677.36,-159.68 695.73,-156.66 712.27,-153.94"/>
<polygon fill="#8b1a1a" stroke="#8b1a1a" points="659.31,-159.1 650.01,-164.18 660.44,-166.01 659.31,-159.1"/>
</a>
</g>
</g>
</g>
</svg>
