<?xml version="1.0" encoding="UTF-8" standalone="no"?>
<!DOCTYPE svg PUBLIC "-//W3C//DTD SVG 1.1//EN"
 "http://www.w3.org/Graphics/SVG/1.1/DTD/svg11.dtd">
<!-- Generated by graphviz version 13.1.2 (20250808.2320)
 -->
<!-- Title: Graphical Class Hierarchy Pages: 1 -->
<svg width="994pt" height="110pt"
 viewBox="0.00 0.00 994.00 110.00" xmlns="http://www.w3.org/2000/svg" xmlns:xlink="http://www.w3.org/1999/xlink">
<g id="graph0" class="graph" transform="scale(1 1) rotate(0) translate(4 105.75)">
<title>Graphical Class Hierarchy</title>
<!-- Node0 -->
<g id="Node000000" class="node">
<title>Node0</title>
<g id="a_Node000000"><a xlink:href="classllvm_1_1SmallVectorBase.html" target="_top" xlink:title=" ">
<polygon fill="white" stroke="#666666" points="171.25,-98.75 0,-98.75 0,-57 171.25,-57 171.25,-98.75"/>
<text xml:space="preserve" text-anchor="start" x="8" y="-85.25" font-family="Helvetica,sans-Serif" font-size="10.00">llvm::SmallVectorBase</text>
<text xml:space="preserve" text-anchor="start" x="8" y="-74" font-family="Helvetica,sans-Serif" font-size="10.00">&lt; SmallVectorSizeType</text>
<text xml:space="preserve" text-anchor="middle" x="85.62" y="-62.75" font-family="Helvetica,sans-Serif" font-size="10.00">&lt; const llvm::GCRelocateInst * &gt; &gt;</text>
</a>
</g>
</g>
<!-- Node1 -->
<g id="Node000001" class="node">
<title>Node1</title>
<g id="a_Node000001"><a xlink:href="classllvm_1_1SmallVectorTemplateCommon.html" target="_top" xlink:title=" ">
<polygon fill="white" stroke="#666666" points="377,-98.75 207.25,-98.75 207.25,-57 377,-57 377,-98.75"/>
<text xml:space="preserve" text-anchor="start" x="215.25" y="-85.25" font-family="Helvetica,sans-Serif" font-size="10.00">llvm::SmallVectorTemplate</text>
<text xml:space="preserve" text-anchor="start" x="215.25" y="-74" font-family="Helvetica,sans-Serif" font-size="10.00">Common&lt; const llvm::GCRelocate</text>
<text xml:space="preserve" text-anchor="middle" x="292.12" y="-62.75" font-family="Helvetica,sans-Serif" font-size="10.00">Inst * &gt;</text>
</a>
</g>
</g>
<!-- Node0&#45;&gt;Node1 -->
<g id="edge7875_Node000000_Node000001" class="edge">
<title>Node0&#45;&gt;Node1</title>
<g id="a_edge7875_Node000000_Node000001"><a xlink:title=" ">
<path fill="none" stroke="#63b8ff" d="M182.83,-77.88C190.82,-77.88 198.87,-77.88 206.77,-77.88"/>
<polygon fill="#63b8ff" stroke="#63b8ff" points="183.09,-74.38 173.09,-77.88 183.09,-81.38 183.09,-74.38"/>
</a>
</g>
</g>
<!-- Node2 -->
<g id="Node000002" class="node">
<title>Node2</title>
<g id="a_Node000002"><a xlink:href="classllvm_1_1SmallVectorTemplateBase.html" target="_top" xlink:title=" ">
<polygon fill="white" stroke="#666666" points="597.75,-93.12 413,-93.12 413,-62.62 597.75,-62.62 597.75,-93.12"/>
<text xml:space="preserve" text-anchor="start" x="421" y="-79.62" font-family="Helvetica,sans-Serif" font-size="10.00">llvm::SmallVectorTemplate</text>
<text xml:space="preserve" text-anchor="middle" x="505.38" y="-68.38" font-family="Helvetica,sans-Serif" font-size="10.00">Base&lt; const llvm::GCRelocateInst * &gt;</text>
</a>
</g>
</g>
<!-- Node1&#45;&gt;Node2 -->
<g id="edge7876_Node000001_Node000002" class="edge">
<title>Node1&#45;&gt;Node2</title>
<g id="a_edge7876_Node000001_Node000002"><a xlink:title=" ">
<path fill="none" stroke="#63b8ff" d="M388.48,-77.88C396.5,-77.88 404.59,-77.88 412.58,-77.88"/>
<polygon fill="#63b8ff" stroke="#63b8ff" points="388.74,-74.38 378.74,-77.88 388.74,-81.38 388.74,-74.38"/>
</a>
</g>
</g>
<!-- Node3 -->
<g id="Node000003" class="node">
<title>Node3</title>
<g id="a_Node000003"><a xlink:href="classllvm_1_1SmallVectorImpl.html" target="_top" xlink:title=" ">
<polygon fill="white" stroke="#666666" points="802.75,-93.12 640.5,-93.12 640.5,-62.62 802.75,-62.62 802.75,-93.12"/>
<text xml:space="preserve" text-anchor="start" x="648.5" y="-79.62" font-family="Helvetica,sans-Serif" font-size="10.00">llvm::SmallVectorImpl</text>
<text xml:space="preserve" text-anchor="middle" x="721.62" y="-68.38" font-family="Helvetica,sans-Serif" font-size="10.00">&lt; const llvm::GCRelocateInst * &gt;</text>
</a>
</g>
</g>
<!-- Node2&#45;&gt;Node3 -->
<g id="edge7877_Node000002_Node000003" class="edge">
<title>Node2&#45;&gt;Node3</title>
<g id="a_edge7877_Node000002_Node000003"><a xlink:title=" ">
<path fill="none" stroke="#63b8ff" d="M609.36,-77.88C619.7,-77.88 630.1,-77.88 640.17,-77.88"/>
<polygon fill="#63b8ff" stroke="#63b8ff" points="609.68,-74.38 599.68,-77.88 609.68,-81.38 609.68,-74.38"/>
</a>
</g>
</g>
<!-- Node4 -->
<g id="Node000004" class="node">
<title>Node4</title>
<g id="a_Node000004"><a xlink:href="classllvm_1_1SmallVector.html" target="_top" xlink:title=" ">
<polygon fill="white" stroke="#666666" points="986,-101.75 845.5,-101.75 845.5,-60 986,-60 986,-101.75"/>
<text xml:space="preserve" text-anchor="start" x="853.5" y="-88.25" font-family="Helvetica,sans-Serif" font-size="10.00">llvm::SmallVector&lt;</text>
<text xml:space="preserve" text-anchor="start" x="853.5" y="-77" font-family="Helvetica,sans-Serif" font-size="10.00"> const llvm::GCRelocateInst</text>
<text xml:space="preserve" text-anchor="middle" x="915.75" y="-65.75" font-family="Helvetica,sans-Serif" font-size="10.00"> *, 16 &gt;</text>
</a>
</g>
</g>
<!-- Node3&#45;&gt;Node4 -->
<g id="edge7878_Node000003_Node000004" class="edge">
<title>Node3&#45;&gt;Node4</title>
<g id="a_edge7878_Node000003_Node000004"><a xlink:title=" ">
<path fill="none" stroke="#63b8ff" d="M814.21,-79.31C824.59,-79.47 835.05,-79.63 845.08,-79.79"/>
<polygon fill="#63b8ff" stroke="#63b8ff" points="814.56,-75.81 804.5,-79.15 814.45,-82.81 814.56,-75.81"/>
</a>
</g>
</g>
<!-- Node6 -->
<g id="Node000006" class="node">
<title>Node6</title>
<g id="a_Node000006"><a xlink:href="classllvm_1_1SmallVector.html" target="_top" xlink:title=" ">
<polygon fill="white" stroke="#666666" points="986,-41.75 845.5,-41.75 845.5,0 986,0 986,-41.75"/>
<text xml:space="preserve" text-anchor="start" x="853.5" y="-28.25" font-family="Helvetica,sans-Serif" font-size="10.00">llvm::SmallVector&lt;</text>
<text xml:space="preserve" text-anchor="start" x="853.5" y="-17" font-family="Helvetica,sans-Serif" font-size="10.00"> const llvm::GCRelocateInst</text>
<text xml:space="preserve" text-anchor="middle" x="915.75" y="-5.75" font-family="Helvetica,sans-Serif" font-size="10.00"> *, 10 &gt;</text>
</a>
</g>
</g>
<!-- Node3&#45;&gt;Node6 -->
<g id="edge7879_Node000003_Node000006" class="edge">
<title>Node3&#45;&gt;Node6</title>
<g id="a_edge7879_Node000003_Node000006"><a xlink:title=" ">
<path fill="none" stroke="#63b8ff" d="M786.51,-58.92C805.39,-53.32 826.14,-47.16 845.35,-41.46"/>
<polygon fill="#63b8ff" stroke="#63b8ff" points="785.68,-55.52 777.08,-61.72 787.67,-62.23 785.68,-55.52"/>
</a>
</g>
</g>
<!-- Node5 -->
<g id="Node000005" class="node">
<title>Node5</title>
<g id="a_Node000005"><a xlink:href="structllvm_1_1SmallVectorStorage.html" target="_top" xlink:title=" ">
<polygon fill="white" stroke="#666666" points="809.5,-41.12 633.75,-41.12 633.75,-10.62 809.5,-10.62 809.5,-41.12"/>
<text xml:space="preserve" text-anchor="start" x="641.75" y="-27.62" font-family="Helvetica,sans-Serif" font-size="10.00">llvm::SmallVectorStorage</text>
<text xml:space="preserve" text-anchor="middle" x="721.62" y="-16.38" font-family="Helvetica,sans-Serif" font-size="10.00">&lt; const llvm::GCRelocateInst *, N &gt;</text>
</a>
</g>
</g>
<!-- Node5&#45;&gt;Node4 -->
<g id="edge7880_Node000005_Node000004" class="edge">
<title>Node5&#45;&gt;Node4</title>
<g id="a_edge7880_Node000005_Node000004"><a xlink:title=" ">
<path fill="none" stroke="#8b1a1a" d="M788.29,-44.67C806.62,-49.92 826.58,-55.64 845.13,-60.94"/>
<polygon fill="#8b1a1a" stroke="#8b1a1a" points="789.46,-41.37 778.88,-41.98 787.53,-48.1 789.46,-41.37"/>
</a>
</g>
</g>
<!-- Node5&#45;&gt;Node6 -->
<g id="edge7881_Node000005_Node000006" class="edge">
<title>Node5&#45;&gt;Node6</title>
<g id="a_edge7881_Node000005_Node000006"><a xlink:title=" ">
<path fill="none" stroke="#8b1a1a" d="M821.34,-23.31C829.38,-23.1 837.4,-22.89 845.17,-22.69"/>
<polygon fill="#8b1a1a" stroke="#8b1a1a" points="821.39,-19.8 811.49,-23.56 821.57,-26.8 821.39,-19.8"/>
</a>
</g>
</g>
</g>
</svg>
