<?xml version="1.0" encoding="UTF-8" standalone="no"?>
<!DOCTYPE svg PUBLIC "-//W3C//DTD SVG 1.1//EN"
 "http://www.w3.org/Graphics/SVG/1.1/DTD/svg11.dtd">
<!-- Generated by graphviz version 13.1.2 (20250808.2320)
 -->
<!-- Title: Graphical Class Hierarchy Pages: 1 -->
<svg width="915pt" height="115pt"
 viewBox="0.00 0.00 915.00 115.00" xmlns="http://www.w3.org/2000/svg" xmlns:xlink="http://www.w3.org/1999/xlink">
<g id="graph0" class="graph" transform="scale(1 1) rotate(0) translate(4 111.38)">
<title>Graphical Class Hierarchy</title>
<!-- Node0 -->
<g id="Node000000" class="node">
<title>Node0</title>
<g id="a_Node000000"><a xlink:href="classllvm_1_1SmallVectorBase.html" target="_top" xlink:title=" ">
<polygon fill="white" stroke="#666666" points="136.75,-107.38 0,-107.38 0,-54.38 136.75,-54.38 136.75,-107.38"/>
<text xml:space="preserve" text-anchor="start" x="8" y="-93.88" font-family="Helvetica,sans-Serif" font-size="10.00">llvm::SmallVectorBase</text>
<text xml:space="preserve" text-anchor="start" x="8" y="-82.62" font-family="Helvetica,sans-Serif" font-size="10.00">&lt; SmallVectorSizeType</text>
<text xml:space="preserve" text-anchor="start" x="8" y="-71.38" font-family="Helvetica,sans-Serif" font-size="10.00">&lt; llvm::detail::PtrUseVisitor</text>
<text xml:space="preserve" text-anchor="middle" x="68.38" y="-60.12" font-family="Helvetica,sans-Serif" font-size="10.00">Base::UseToVisit &gt; &gt;</text>
</a>
</g>
</g>
<!-- Node1 -->
<g id="Node000001" class="node">
<title>Node1</title>
<g id="a_Node000001"><a xlink:href="classllvm_1_1SmallVectorTemplateCommon.html" target="_top" xlink:title=" ">
<polygon fill="white" stroke="#666666" points="349.25,-101.75 172.75,-101.75 172.75,-60 349.25,-60 349.25,-101.75"/>
<text xml:space="preserve" text-anchor="start" x="180.75" y="-88.25" font-family="Helvetica,sans-Serif" font-size="10.00">llvm::SmallVectorTemplate</text>
<text xml:space="preserve" text-anchor="start" x="180.75" y="-77" font-family="Helvetica,sans-Serif" font-size="10.00">Common&lt; llvm::detail::PtrUseVisitor</text>
<text xml:space="preserve" text-anchor="middle" x="261" y="-65.75" font-family="Helvetica,sans-Serif" font-size="10.00">Base::UseToVisit &gt;</text>
</a>
</g>
</g>
<!-- Node0&#45;&gt;Node1 -->
<g id="edge8395_Node000000_Node000001" class="edge">
<title>Node0&#45;&gt;Node1</title>
<g id="a_edge8395_Node000000_Node000001"><a xlink:title=" ">
<path fill="none" stroke="#63b8ff" d="M148.55,-80.88C156.45,-80.88 164.5,-80.88 172.47,-80.88"/>
<polygon fill="#63b8ff" stroke="#63b8ff" points="148.63,-77.38 138.63,-80.88 148.63,-84.38 148.63,-77.38"/>
</a>
</g>
</g>
<!-- Node2 -->
<g id="Node000002" class="node">
<title>Node2</title>
<g id="a_Node000002"><a xlink:href="classllvm_1_1SmallVectorTemplateBase.html" target="_top" xlink:title=" ">
<polygon fill="white" stroke="#666666" points="544.5,-101.75 385.25,-101.75 385.25,-60 544.5,-60 544.5,-101.75"/>
<text xml:space="preserve" text-anchor="start" x="393.25" y="-88.25" font-family="Helvetica,sans-Serif" font-size="10.00">llvm::SmallVectorTemplate</text>
<text xml:space="preserve" text-anchor="start" x="393.25" y="-77" font-family="Helvetica,sans-Serif" font-size="10.00">Base&lt; llvm::detail::PtrUseVisitor</text>
<text xml:space="preserve" text-anchor="middle" x="464.88" y="-65.75" font-family="Helvetica,sans-Serif" font-size="10.00">Base::UseToVisit &gt;</text>
</a>
</g>
</g>
<!-- Node1&#45;&gt;Node2 -->
<g id="edge8396_Node000001_Node000002" class="edge">
<title>Node1&#45;&gt;Node2</title>
<g id="a_edge8396_Node000001_Node000002"><a xlink:title=" ">
<path fill="none" stroke="#63b8ff" d="M360.97,-80.88C368.98,-80.88 377.01,-80.88 384.86,-80.88"/>
<polygon fill="#63b8ff" stroke="#63b8ff" points="361.18,-77.38 351.18,-80.88 361.18,-84.38 361.18,-77.38"/>
</a>
</g>
</g>
<!-- Node3 -->
<g id="Node000003" class="node">
<title>Node3</title>
<g id="a_Node000003"><a xlink:href="classllvm_1_1SmallVectorImpl.html" target="_top" xlink:title=" ">
<polygon fill="white" stroke="#666666" points="728.5,-101.75 591.75,-101.75 591.75,-60 728.5,-60 728.5,-101.75"/>
<text xml:space="preserve" text-anchor="start" x="599.75" y="-88.25" font-family="Helvetica,sans-Serif" font-size="10.00">llvm::SmallVectorImpl</text>
<text xml:space="preserve" text-anchor="start" x="599.75" y="-77" font-family="Helvetica,sans-Serif" font-size="10.00">&lt; llvm::detail::PtrUseVisitor</text>
<text xml:space="preserve" text-anchor="middle" x="660.12" y="-65.75" font-family="Helvetica,sans-Serif" font-size="10.00">Base::UseToVisit &gt;</text>
</a>
</g>
</g>
<!-- Node2&#45;&gt;Node3 -->
<g id="edge8397_Node000002_Node000003" class="edge">
<title>Node2&#45;&gt;Node3</title>
<g id="a_edge8397_Node000002_Node000003"><a xlink:title=" ">
<path fill="none" stroke="#63b8ff" d="M556.07,-80.88C567.93,-80.88 579.92,-80.88 591.32,-80.88"/>
<polygon fill="#63b8ff" stroke="#63b8ff" points="556.27,-77.38 546.27,-80.88 556.27,-84.38 556.27,-77.38"/>
</a>
</g>
</g>
<!-- Node4 -->
<g id="Node000004" class="node">
<title>Node4</title>
<g id="a_Node000004"><a xlink:href="classllvm_1_1SmallVector.html" target="_top" xlink:title=" ">
<polygon fill="white" stroke="#666666" points="906.5,-71.75 775.75,-71.75 775.75,-30 906.5,-30 906.5,-71.75"/>
<text xml:space="preserve" text-anchor="start" x="783.75" y="-58.25" font-family="Helvetica,sans-Serif" font-size="10.00">llvm::SmallVector&lt;</text>
<text xml:space="preserve" text-anchor="start" x="783.75" y="-47" font-family="Helvetica,sans-Serif" font-size="10.00"> llvm::detail::PtrUseVisitor</text>
<text xml:space="preserve" text-anchor="middle" x="841.12" y="-35.75" font-family="Helvetica,sans-Serif" font-size="10.00">Base::UseToVisit, 8 &gt;</text>
</a>
</g>
</g>
<!-- Node3&#45;&gt;Node4 -->
<g id="edge8398_Node000003_Node000004" class="edge">
<title>Node3&#45;&gt;Node4</title>
<g id="a_edge8398_Node000003_Node000004"><a xlink:title=" ">
<path fill="none" stroke="#63b8ff" d="M740.01,-67.65C751.8,-65.68 763.85,-63.66 775.32,-61.74"/>
<polygon fill="#63b8ff" stroke="#63b8ff" points="739.57,-64.18 730.29,-69.28 740.73,-71.08 739.57,-64.18"/>
</a>
</g>
</g>
<!-- Node5 -->
<g id="Node000005" class="node">
<title>Node5</title>
<g id="a_Node000005"><a xlink:href="structllvm_1_1SmallVectorStorage.html" target="_top" xlink:title=" ">
<polygon fill="white" stroke="#666666" points="739.75,-41.75 580.5,-41.75 580.5,0 739.75,0 739.75,-41.75"/>
<text xml:space="preserve" text-anchor="start" x="588.5" y="-28.25" font-family="Helvetica,sans-Serif" font-size="10.00">llvm::SmallVectorStorage</text>
<text xml:space="preserve" text-anchor="start" x="588.5" y="-17" font-family="Helvetica,sans-Serif" font-size="10.00">&lt; llvm::detail::PtrUseVisitorBase</text>
<text xml:space="preserve" text-anchor="middle" x="660.12" y="-5.75" font-family="Helvetica,sans-Serif" font-size="10.00">::UseToVisit, N &gt;</text>
</a>
</g>
</g>
<!-- Node5&#45;&gt;Node4 -->
<g id="edge8399_Node000005_Node000004" class="edge">
<title>Node5&#45;&gt;Node4</title>
<g id="a_edge8399_Node000005_Node000004"><a xlink:title=" ">
<path fill="none" stroke="#8b1a1a" d="M751.27,-35.98C759.43,-37.35 767.59,-38.72 775.46,-40.04"/>
<polygon fill="#8b1a1a" stroke="#8b1a1a" points="752.09,-32.57 741.65,-34.37 750.93,-39.48 752.09,-32.57"/>
</a>
</g>
</g>
</g>
</svg>
