<?xml version="1.0" encoding="UTF-8" standalone="no"?>
<!DOCTYPE svg PUBLIC "-//W3C//DTD SVG 1.1//EN"
 "http://www.w3.org/Graphics/SVG/1.1/DTD/svg11.dtd">
<!-- Generated by graphviz version 13.1.2 (20250808.2320)
 -->
<!-- Title: Graphical Class Hierarchy Pages: 1 -->
<svg width="297pt" height="64pt"
 viewBox="0.00 0.00 297.00 64.00" xmlns="http://www.w3.org/2000/svg" xmlns:xlink="http://www.w3.org/1999/xlink">
<g id="graph0" class="graph" transform="scale(1 1) rotate(0) translate(4 60.25)">
<title>Graphical Class Hierarchy</title>
<!-- Node0 -->
<g id="Node000000" class="node">
<title>Node0</title>
<g id="a_Node000000"><a xlink:href="classllvm_1_1orc_1_1OrcMips32__Base.html" target="_top" xlink:title=" ">
<polygon fill="white" stroke="#666666" points="134.5,-37.25 0,-37.25 0,-18 134.5,-18 134.5,-37.25"/>
<text xml:space="preserve" text-anchor="middle" x="67.25" y="-23.75" font-family="Helvetica,sans-Serif" font-size="10.00">llvm::orc::OrcMips32_Base</text>
</a>
</g>
</g>
<!-- Node1 -->
<g id="Node000001" class="node">
<title>Node1</title>
<g id="a_Node000001"><a xlink:href="classllvm_1_1orc_1_1OrcMips32Be.html" target="_top" xlink:title=" ">
<polygon fill="white" stroke="#666666" points="289.25,-56.25 170.5,-56.25 170.5,-37 289.25,-37 289.25,-56.25"/>
<text xml:space="preserve" text-anchor="middle" x="229.88" y="-42.75" font-family="Helvetica,sans-Serif" font-size="10.00">llvm::orc::OrcMips32Be</text>
</a>
</g>
</g>
<!-- Node0&#45;&gt;Node1 -->
<g id="edge5141_Node000000_Node000001" class="edge">
<title>Node0&#45;&gt;Node1</title>
<g id="a_edge5141_Node000000_Node000001"><a xlink:title=" ">
<path fill="none" stroke="#63b8ff" d="M146.24,-36.85C154.25,-37.8 162.29,-38.75 170.04,-39.67"/>
<polygon fill="#63b8ff" stroke="#63b8ff" points="146.82,-33.39 136.48,-35.7 146,-40.35 146.82,-33.39"/>
</a>
</g>
</g>
<!-- Node2 -->
<g id="Node000002" class="node">
<title>Node2</title>
<g id="a_Node000002"><a xlink:href="classllvm_1_1orc_1_1OrcMips32Le.html" target="_top" xlink:title=" ">
<polygon fill="white" stroke="#666666" points="288.5,-19.25 171.25,-19.25 171.25,0 288.5,0 288.5,-19.25"/>
<text xml:space="preserve" text-anchor="middle" x="229.88" y="-5.75" font-family="Helvetica,sans-Serif" font-size="10.00">llvm::orc::OrcMips32Le</text>
</a>
</g>
</g>
<!-- Node0&#45;&gt;Node2 -->
<g id="edge5142_Node000000_Node000002" class="edge">
<title>Node0&#45;&gt;Node2</title>
<g id="a_edge5142_Node000000_Node000002"><a xlink:title=" ">
<path fill="none" stroke="#63b8ff" d="M146.21,-18.89C154.49,-17.96 162.81,-17.03 170.8,-16.13"/>
<polygon fill="#63b8ff" stroke="#63b8ff" points="146.03,-15.39 136.48,-19.98 146.81,-22.34 146.03,-15.39"/>
</a>
</g>
</g>
</g>
</svg>
