<?xml version="1.0" encoding="UTF-8" standalone="no"?>
<!DOCTYPE svg PUBLIC "-//W3C//DTD SVG 1.1//EN"
 "http://www.w3.org/Graphics/SVG/1.1/DTD/svg11.dtd">
<!-- Generated by graphviz version 13.1.2 (20250808.2320)
 -->
<!-- Title: Graphical Class Hierarchy Pages: 1 -->
<svg width="792pt" height="93pt"
 viewBox="0.00 0.00 792.00 93.00" xmlns="http://www.w3.org/2000/svg" xmlns:xlink="http://www.w3.org/1999/xlink">
<g id="graph0" class="graph" transform="scale(1 1) rotate(0) translate(4 89.12)">
<title>Graphical Class Hierarchy</title>
<!-- Node0 -->
<g id="Node000000" class="node">
<title>Node0</title>
<g id="a_Node000000"><a xlink:href="classllvm_1_1SmallVectorBase.html" target="_top" xlink:title=" ">
<polygon fill="white" stroke="#666666" points="118.75,-85.12 0,-85.12 0,-43.38 118.75,-43.38 118.75,-85.12"/>
<text xml:space="preserve" text-anchor="start" x="8" y="-71.62" font-family="Helvetica,sans-Serif" font-size="10.00">llvm::SmallVectorBase</text>
<text xml:space="preserve" text-anchor="start" x="8" y="-60.38" font-family="Helvetica,sans-Serif" font-size="10.00">&lt; SmallVectorSizeType</text>
<text xml:space="preserve" text-anchor="middle" x="59.38" y="-49.12" font-family="Helvetica,sans-Serif" font-size="10.00">&lt; LoopTripCountTy &gt; &gt;</text>
</a>
</g>
</g>
<!-- Node1 -->
<g id="Node000001" class="node">
<title>Node1</title>
<g id="a_Node000001"><a xlink:href="classllvm_1_1SmallVectorTemplateCommon.html" target="_top" xlink:title=" ">
<polygon fill="white" stroke="#666666" points="302.75,-79.5 154.75,-79.5 154.75,-49 302.75,-49 302.75,-79.5"/>
<text xml:space="preserve" text-anchor="start" x="162.75" y="-66" font-family="Helvetica,sans-Serif" font-size="10.00">llvm::SmallVectorTemplate</text>
<text xml:space="preserve" text-anchor="middle" x="228.75" y="-54.75" font-family="Helvetica,sans-Serif" font-size="10.00">Common&lt; LoopTripCountTy &gt;</text>
</a>
</g>
</g>
<!-- Node0&#45;&gt;Node1 -->
<g id="edge9266_Node000000_Node000001" class="edge">
<title>Node0&#45;&gt;Node1</title>
<g id="a_edge9266_Node000000_Node000001"><a xlink:title=" ">
<path fill="none" stroke="#63b8ff" d="M130.43,-64.25C138.39,-64.25 146.52,-64.25 154.53,-64.25"/>
<polygon fill="#63b8ff" stroke="#63b8ff" points="130.43,-60.75 120.43,-64.25 130.43,-67.75 130.43,-60.75"/>
</a>
</g>
</g>
<!-- Node2 -->
<g id="Node000002" class="node">
<title>Node2</title>
<g id="a_Node000002"><a xlink:href="classllvm_1_1SmallVectorTemplateBase.html" target="_top" xlink:title=" ">
<polygon fill="white" stroke="#666666" points="471.75,-79.5 338.75,-79.5 338.75,-49 471.75,-49 471.75,-79.5"/>
<text xml:space="preserve" text-anchor="start" x="346.75" y="-66" font-family="Helvetica,sans-Serif" font-size="10.00">llvm::SmallVectorTemplate</text>
<text xml:space="preserve" text-anchor="middle" x="405.25" y="-54.75" font-family="Helvetica,sans-Serif" font-size="10.00">Base&lt; LoopTripCountTy &gt;</text>
</a>
</g>
</g>
<!-- Node1&#45;&gt;Node2 -->
<g id="edge9267_Node000001_Node000002" class="edge">
<title>Node1&#45;&gt;Node2</title>
<g id="a_edge9267_Node000001_Node000002"><a xlink:title=" ">
<path fill="none" stroke="#63b8ff" d="M314.51,-64.25C322.51,-64.25 330.54,-64.25 338.32,-64.25"/>
<polygon fill="#63b8ff" stroke="#63b8ff" points="314.76,-60.75 304.76,-64.25 314.76,-67.75 314.76,-60.75"/>
</a>
</g>
</g>
<!-- Node3 -->
<g id="Node000003" class="node">
<title>Node3</title>
<g id="a_Node000003"><a xlink:href="classllvm_1_1SmallVectorImpl.html" target="_top" xlink:title=" ">
<polygon fill="white" stroke="#666666" points="627.25,-79.5 515.25,-79.5 515.25,-49 627.25,-49 627.25,-79.5"/>
<text xml:space="preserve" text-anchor="start" x="523.25" y="-66" font-family="Helvetica,sans-Serif" font-size="10.00">llvm::SmallVectorImpl</text>
<text xml:space="preserve" text-anchor="middle" x="571.25" y="-54.75" font-family="Helvetica,sans-Serif" font-size="10.00">&lt; LoopTripCountTy &gt;</text>
</a>
</g>
</g>
<!-- Node2&#45;&gt;Node3 -->
<g id="edge9268_Node000002_Node000003" class="edge">
<title>Node2&#45;&gt;Node3</title>
<g id="a_edge9268_Node000002_Node000003"><a xlink:title=" ">
<path fill="none" stroke="#63b8ff" d="M483.41,-64.25C493.99,-64.25 504.67,-64.25 514.75,-64.25"/>
<polygon fill="#63b8ff" stroke="#63b8ff" points="483.52,-60.75 473.52,-64.25 483.52,-67.75 483.52,-60.75"/>
</a>
</g>
</g>
<!-- Node4 -->
<g id="Node000004" class="node">
<title>Node4</title>
<g id="a_Node000004"><a xlink:href="classllvm_1_1SmallVector.html" target="_top" xlink:title=" ">
<polygon fill="white" stroke="#666666" points="783.5,-54.5 670.75,-54.5 670.75,-24 783.5,-24 783.5,-54.5"/>
<text xml:space="preserve" text-anchor="start" x="678.75" y="-41" font-family="Helvetica,sans-Serif" font-size="10.00">llvm::SmallVector&lt;</text>
<text xml:space="preserve" text-anchor="middle" x="727.12" y="-29.75" font-family="Helvetica,sans-Serif" font-size="10.00"> LoopTripCountTy, 3 &gt;</text>
</a>
</g>
</g>
<!-- Node3&#45;&gt;Node4 -->
<g id="edge9269_Node000003_Node000004" class="edge">
<title>Node3&#45;&gt;Node4</title>
<g id="a_edge9269_Node000003_Node000004"><a xlink:title=" ">
<path fill="none" stroke="#63b8ff" d="M638.68,-53.46C649.24,-51.74 660.07,-49.98 670.36,-48.31"/>
<polygon fill="#63b8ff" stroke="#63b8ff" points="638.17,-49.99 628.86,-55.05 639.29,-56.9 638.17,-49.99"/>
</a>
</g>
</g>
<!-- Node5 -->
<g id="Node000005" class="node">
<title>Node5</title>
<g id="a_Node000005"><a xlink:href="structllvm_1_1SmallVectorStorage.html" target="_top" xlink:title=" ">
<polygon fill="white" stroke="#666666" points="634.75,-30.5 507.75,-30.5 507.75,0 634.75,0 634.75,-30.5"/>
<text xml:space="preserve" text-anchor="start" x="515.75" y="-17" font-family="Helvetica,sans-Serif" font-size="10.00">llvm::SmallVectorStorage</text>
<text xml:space="preserve" text-anchor="middle" x="571.25" y="-5.75" font-family="Helvetica,sans-Serif" font-size="10.00">&lt; LoopTripCountTy, N &gt;</text>
</a>
</g>
</g>
<!-- Node5&#45;&gt;Node4 -->
<g id="edge9270_Node000005_Node000004" class="edge">
<title>Node5&#45;&gt;Node4</title>
<g id="a_edge9270_Node000005_Node000004"><a xlink:title=" ">
<path fill="none" stroke="#8b1a1a" d="M646.02,-26.76C654.26,-28.04 662.55,-29.33 670.52,-30.58"/>
<polygon fill="#8b1a1a" stroke="#8b1a1a" points="646.75,-23.33 636.33,-25.24 645.67,-30.24 646.75,-23.33"/>
</a>
</g>
</g>
</g>
</svg>
