<?xml version="1.0" encoding="UTF-8" standalone="no"?>
<!DOCTYPE svg PUBLIC "-//W3C//DTD SVG 1.1//EN"
 "http://www.w3.org/Graphics/SVG/1.1/DTD/svg11.dtd">
<!-- Generated by graphviz version 13.1.2 (20250808.2320)
 -->
<!-- Title: Graphical Class Hierarchy Pages: 1 -->
<svg width="779pt" height="93pt"
 viewBox="0.00 0.00 779.00 93.00" xmlns="http://www.w3.org/2000/svg" xmlns:xlink="http://www.w3.org/1999/xlink">
<g id="graph0" class="graph" transform="scale(1 1) rotate(0) translate(4 89.12)">
<title>Graphical Class Hierarchy</title>
<!-- Node0 -->
<g id="Node000000" class="node">
<title>Node0</title>
<g id="a_Node000000"><a xlink:href="classllvm_1_1SmallVectorBase.html" target="_top" xlink:title=" ">
<polygon fill="white" stroke="#666666" points="118.75,-85.12 0,-85.12 0,-43.38 118.75,-43.38 118.75,-85.12"/>
<text xml:space="preserve" text-anchor="start" x="8" y="-71.62" font-family="Helvetica,sans-Serif" font-size="10.00">llvm::SmallVectorBase</text>
<text xml:space="preserve" text-anchor="start" x="8" y="-60.38" font-family="Helvetica,sans-Serif" font-size="10.00">&lt; SmallVectorSizeType</text>
<text xml:space="preserve" text-anchor="middle" x="59.38" y="-49.12" font-family="Helvetica,sans-Serif" font-size="10.00">&lt; NodeTy * &gt; &gt;</text>
</a>
</g>
</g>
<!-- Node1 -->
<g id="Node000001" class="node">
<title>Node1</title>
<g id="a_Node000001"><a xlink:href="classllvm_1_1SmallVectorTemplateCommon.html" target="_top" xlink:title=" ">
<polygon fill="white" stroke="#666666" points="287.75,-79.5 154.75,-79.5 154.75,-49 287.75,-49 287.75,-79.5"/>
<text xml:space="preserve" text-anchor="start" x="162.75" y="-66" font-family="Helvetica,sans-Serif" font-size="10.00">llvm::SmallVectorTemplate</text>
<text xml:space="preserve" text-anchor="middle" x="221.25" y="-54.75" font-family="Helvetica,sans-Serif" font-size="10.00">Common&lt; NodeTy * &gt;</text>
</a>
</g>
</g>
<!-- Node0&#45;&gt;Node1 -->
<g id="edge9300_Node000000_Node000001" class="edge">
<title>Node0&#45;&gt;Node1</title>
<g id="a_edge9300_Node000000_Node000001"><a xlink:title=" ">
<path fill="none" stroke="#63b8ff" d="M130.48,-64.25C138.41,-64.25 146.47,-64.25 154.34,-64.25"/>
<polygon fill="#63b8ff" stroke="#63b8ff" points="130.51,-60.75 120.51,-64.25 130.51,-67.75 130.51,-60.75"/>
</a>
</g>
</g>
<!-- Node2 -->
<g id="Node000002" class="node">
<title>Node2</title>
<g id="a_Node000002"><a xlink:href="classllvm_1_1SmallVectorTemplateBase.html" target="_top" xlink:title=" ">
<polygon fill="white" stroke="#666666" points="456.75,-79.5 323.75,-79.5 323.75,-49 456.75,-49 456.75,-79.5"/>
<text xml:space="preserve" text-anchor="start" x="331.75" y="-66" font-family="Helvetica,sans-Serif" font-size="10.00">llvm::SmallVectorTemplate</text>
<text xml:space="preserve" text-anchor="middle" x="390.25" y="-54.75" font-family="Helvetica,sans-Serif" font-size="10.00">Base&lt; NodeTy * &gt;</text>
</a>
</g>
</g>
<!-- Node1&#45;&gt;Node2 -->
<g id="edge9301_Node000001_Node000002" class="edge">
<title>Node1&#45;&gt;Node2</title>
<g id="a_edge9301_Node000001_Node000002"><a xlink:title=" ">
<path fill="none" stroke="#63b8ff" d="M299.13,-64.25C307.23,-64.25 315.41,-64.25 323.37,-64.25"/>
<polygon fill="#63b8ff" stroke="#63b8ff" points="299.29,-60.75 289.29,-64.25 299.29,-67.75 299.29,-60.75"/>
</a>
</g>
</g>
<!-- Node3 -->
<g id="Node000003" class="node">
<title>Node3</title>
<g id="a_Node000003"><a xlink:href="classllvm_1_1SmallVectorImpl.html" target="_top" xlink:title=" ">
<polygon fill="white" stroke="#666666" points="612.25,-79.5 500.25,-79.5 500.25,-49 612.25,-49 612.25,-79.5"/>
<text xml:space="preserve" text-anchor="start" x="508.25" y="-66" font-family="Helvetica,sans-Serif" font-size="10.00">llvm::SmallVectorImpl</text>
<text xml:space="preserve" text-anchor="middle" x="556.25" y="-54.75" font-family="Helvetica,sans-Serif" font-size="10.00">&lt; NodeTy * &gt;</text>
</a>
</g>
</g>
<!-- Node2&#45;&gt;Node3 -->
<g id="edge9302_Node000002_Node000003" class="edge">
<title>Node2&#45;&gt;Node3</title>
<g id="a_edge9302_Node000002_Node000003"><a xlink:title=" ">
<path fill="none" stroke="#63b8ff" d="M468.41,-64.25C478.99,-64.25 489.67,-64.25 499.75,-64.25"/>
<polygon fill="#63b8ff" stroke="#63b8ff" points="468.52,-60.75 458.52,-64.25 468.52,-67.75 468.52,-60.75"/>
</a>
</g>
</g>
<!-- Node4 -->
<g id="Node000004" class="node">
<title>Node4</title>
<g id="a_Node000004"><a xlink:href="classllvm_1_1SmallVector.html" target="_top" xlink:title=" ">
<polygon fill="white" stroke="#666666" points="770.75,-60.12 655.75,-60.12 655.75,-18.38 770.75,-18.38 770.75,-60.12"/>
<text xml:space="preserve" text-anchor="start" x="663.75" y="-46.62" font-family="Helvetica,sans-Serif" font-size="10.00">llvm::SmallVector&lt;</text>
<text xml:space="preserve" text-anchor="start" x="663.75" y="-35.38" font-family="Helvetica,sans-Serif" font-size="10.00"> NodeTy *, IsPostDom</text>
<text xml:space="preserve" text-anchor="middle" x="713.25" y="-24.12" font-family="Helvetica,sans-Serif" font-size="10.00"> ? 4 :1 &gt;</text>
</a>
</g>
</g>
<!-- Node3&#45;&gt;Node4 -->
<g id="edge9303_Node000003_Node000004" class="edge">
<title>Node3&#45;&gt;Node4</title>
<g id="a_edge9303_Node000003_Node000004"><a xlink:title=" ">
<path fill="none" stroke="#63b8ff" d="M623.69,-53.53C634.28,-51.83 645.16,-50.07 655.51,-48.4"/>
<polygon fill="#63b8ff" stroke="#63b8ff" points="623.14,-50.08 613.83,-55.12 624.26,-56.99 623.14,-50.08"/>
</a>
</g>
</g>
<!-- Node5 -->
<g id="Node000005" class="node">
<title>Node5</title>
<g id="a_Node000005"><a xlink:href="structllvm_1_1SmallVectorStorage.html" target="_top" xlink:title=" ">
<polygon fill="white" stroke="#666666" points="619.75,-30.5 492.75,-30.5 492.75,0 619.75,0 619.75,-30.5"/>
<text xml:space="preserve" text-anchor="start" x="500.75" y="-17" font-family="Helvetica,sans-Serif" font-size="10.00">llvm::SmallVectorStorage</text>
<text xml:space="preserve" text-anchor="middle" x="556.25" y="-5.75" font-family="Helvetica,sans-Serif" font-size="10.00">&lt; NodeTy *, N &gt;</text>
</a>
</g>
</g>
<!-- Node5&#45;&gt;Node4 -->
<g id="edge9304_Node000005_Node000004" class="edge">
<title>Node5&#45;&gt;Node4</title>
<g id="a_edge9304_Node000005_Node000004"><a xlink:title=" ">
<path fill="none" stroke="#8b1a1a" d="M630.98,-26.67C639.19,-27.94 647.47,-29.22 655.42,-30.45"/>
<polygon fill="#8b1a1a" stroke="#8b1a1a" points="631.76,-23.25 621.34,-25.17 630.69,-30.16 631.76,-23.25"/>
</a>
</g>
</g>
</g>
</svg>
