<?xml version="1.0" encoding="UTF-8" standalone="no"?>
<!DOCTYPE svg PUBLIC "-//W3C//DTD SVG 1.1//EN"
 "http://www.w3.org/Graphics/SVG/1.1/DTD/svg11.dtd">
<!-- Generated by graphviz version 13.1.2 (20250808.2320)
 -->
<!-- Title: Graphical Class Hierarchy Pages: 1 -->
<svg width="1034pt" height="93pt"
 viewBox="0.00 0.00 1034.00 93.00" xmlns="http://www.w3.org/2000/svg" xmlns:xlink="http://www.w3.org/1999/xlink">
<g id="graph0" class="graph" transform="scale(1 1) rotate(0) translate(4 89.12)">
<title>Graphical Class Hierarchy</title>
<!-- Node0 -->
<g id="Node000000" class="node">
<title>Node0</title>
<g id="a_Node000000"><a xlink:href="classllvm_1_1SmallVectorBase.html" target="_top" xlink:title=" ">
<polygon fill="white" stroke="#666666" points="175.75,-85.12 0,-85.12 0,-43.38 175.75,-43.38 175.75,-85.12"/>
<text xml:space="preserve" text-anchor="start" x="8" y="-71.62" font-family="Helvetica,sans-Serif" font-size="10.00">llvm::SmallVectorBase</text>
<text xml:space="preserve" text-anchor="start" x="8" y="-60.38" font-family="Helvetica,sans-Serif" font-size="10.00">&lt; SmallVectorSizeType</text>
<text xml:space="preserve" text-anchor="middle" x="87.88" y="-49.12" font-family="Helvetica,sans-Serif" font-size="10.00">&lt; llvm::BuildAttributeSubSection &gt; &gt;</text>
</a>
</g>
</g>
<!-- Node1 -->
<g id="Node000001" class="node">
<title>Node1</title>
<g id="a_Node000001"><a xlink:href="classllvm_1_1SmallVectorTemplateCommon.html" target="_top" xlink:title=" ">
<polygon fill="white" stroke="#666666" points="376.25,-85.12 211.75,-85.12 211.75,-43.38 376.25,-43.38 376.25,-85.12"/>
<text xml:space="preserve" text-anchor="start" x="219.75" y="-71.62" font-family="Helvetica,sans-Serif" font-size="10.00">llvm::SmallVectorTemplate</text>
<text xml:space="preserve" text-anchor="start" x="219.75" y="-60.38" font-family="Helvetica,sans-Serif" font-size="10.00">Common&lt; llvm::BuildAttributeSub</text>
<text xml:space="preserve" text-anchor="middle" x="294" y="-49.12" font-family="Helvetica,sans-Serif" font-size="10.00">Section &gt;</text>
</a>
</g>
</g>
<!-- Node0&#45;&gt;Node1 -->
<g id="edge8214_Node000000_Node000001" class="edge">
<title>Node0&#45;&gt;Node1</title>
<g id="a_edge8214_Node000000_Node000001"><a xlink:title=" ">
<path fill="none" stroke="#63b8ff" d="M187.34,-64.25C195.37,-64.25 203.42,-64.25 211.31,-64.25"/>
<polygon fill="#63b8ff" stroke="#63b8ff" points="187.55,-60.75 177.55,-64.25 187.55,-67.75 187.55,-60.75"/>
</a>
</g>
</g>
<!-- Node2 -->
<g id="Node000002" class="node">
<title>Node2</title>
<g id="a_Node000002"><a xlink:href="classllvm_1_1SmallVectorTemplateBase.html" target="_top" xlink:title=" ">
<polygon fill="white" stroke="#666666" points="601.5,-79.5 412.25,-79.5 412.25,-49 601.5,-49 601.5,-79.5"/>
<text xml:space="preserve" text-anchor="start" x="420.25" y="-66" font-family="Helvetica,sans-Serif" font-size="10.00">llvm::SmallVectorTemplate</text>
<text xml:space="preserve" text-anchor="middle" x="506.88" y="-54.75" font-family="Helvetica,sans-Serif" font-size="10.00">Base&lt; llvm::BuildAttributeSubSection &gt;</text>
</a>
</g>
</g>
<!-- Node1&#45;&gt;Node2 -->
<g id="edge8215_Node000001_Node000002" class="edge">
<title>Node1&#45;&gt;Node2</title>
<g id="a_edge8215_Node000001_Node000002"><a xlink:title=" ">
<path fill="none" stroke="#63b8ff" d="M387.77,-64.25C395.79,-64.25 403.9,-64.25 411.92,-64.25"/>
<polygon fill="#63b8ff" stroke="#63b8ff" points="388.04,-60.75 378.04,-64.25 388.04,-67.75 388.04,-60.75"/>
</a>
</g>
</g>
<!-- Node3 -->
<g id="Node000003" class="node">
<title>Node3</title>
<g id="a_Node000003"><a xlink:href="classllvm_1_1SmallVectorImpl.html" target="_top" xlink:title=" ">
<polygon fill="white" stroke="#666666" points="811,-79.5 644.25,-79.5 644.25,-49 811,-49 811,-79.5"/>
<text xml:space="preserve" text-anchor="start" x="652.25" y="-66" font-family="Helvetica,sans-Serif" font-size="10.00">llvm::SmallVectorImpl</text>
<text xml:space="preserve" text-anchor="middle" x="727.62" y="-54.75" font-family="Helvetica,sans-Serif" font-size="10.00">&lt; llvm::BuildAttributeSubSection &gt;</text>
</a>
</g>
</g>
<!-- Node2&#45;&gt;Node3 -->
<g id="edge8216_Node000002_Node000003" class="edge">
<title>Node2&#45;&gt;Node3</title>
<g id="a_edge8216_Node000002_Node000003"><a xlink:title=" ">
<path fill="none" stroke="#63b8ff" d="M613.13,-64.25C623.51,-64.25 633.93,-64.25 644.03,-64.25"/>
<polygon fill="#63b8ff" stroke="#63b8ff" points="613.43,-60.75 603.43,-64.25 613.43,-67.75 613.43,-60.75"/>
</a>
</g>
</g>
<!-- Node4 -->
<g id="Node000004" class="node">
<title>Node4</title>
<g id="a_Node000004"><a xlink:href="classllvm_1_1SmallVector.html" target="_top" xlink:title=" ">
<polygon fill="white" stroke="#666666" points="1025.75,-54.5 853.75,-54.5 853.75,-24 1025.75,-24 1025.75,-54.5"/>
<text xml:space="preserve" text-anchor="start" x="861.75" y="-41" font-family="Helvetica,sans-Serif" font-size="10.00">llvm::SmallVector&lt;</text>
<text xml:space="preserve" text-anchor="middle" x="939.75" y="-29.75" font-family="Helvetica,sans-Serif" font-size="10.00"> llvm::BuildAttributeSubSection, 8 &gt;</text>
</a>
</g>
</g>
<!-- Node3&#45;&gt;Node4 -->
<g id="edge8217_Node000003_Node000004" class="edge">
<title>Node3&#45;&gt;Node4</title>
<g id="a_edge8217_Node000003_Node000004"><a xlink:title=" ">
<path fill="none" stroke="#63b8ff" d="M822.78,-53.05C832.95,-51.84 843.26,-50.61 853.32,-49.41"/>
<polygon fill="#63b8ff" stroke="#63b8ff" points="822.39,-49.57 812.87,-54.23 823.22,-56.52 822.39,-49.57"/>
</a>
</g>
</g>
<!-- Node5 -->
<g id="Node000005" class="node">
<title>Node5</title>
<g id="a_Node000005"><a xlink:href="structllvm_1_1SmallVectorStorage.html" target="_top" xlink:title=" ">
<polygon fill="white" stroke="#666666" points="817.75,-30.5 637.5,-30.5 637.5,0 817.75,0 817.75,-30.5"/>
<text xml:space="preserve" text-anchor="start" x="645.5" y="-17" font-family="Helvetica,sans-Serif" font-size="10.00">llvm::SmallVectorStorage</text>
<text xml:space="preserve" text-anchor="middle" x="727.62" y="-5.75" font-family="Helvetica,sans-Serif" font-size="10.00">&lt; llvm::BuildAttributeSubSection, N &gt;</text>
</a>
</g>
</g>
<!-- Node5&#45;&gt;Node4 -->
<g id="edge8218_Node000005_Node000004" class="edge">
<title>Node5&#45;&gt;Node4</title>
<g id="a_edge8218_Node000005_Node000004"><a xlink:title=" ">
<path fill="none" stroke="#8b1a1a" d="M829.37,-26.76C837.42,-27.68 845.5,-28.6 853.42,-29.5"/>
<polygon fill="#8b1a1a" stroke="#8b1a1a" points="829.88,-23.29 819.55,-25.63 829.08,-30.25 829.88,-23.29"/>
</a>
</g>
</g>
</g>
</svg>
