<?xml version="1.0" encoding="UTF-8" standalone="no"?>
<!DOCTYPE svg PUBLIC "-//W3C//DTD SVG 1.1//EN"
 "http://www.w3.org/Graphics/SVG/1.1/DTD/svg11.dtd">
<!-- Generated by graphviz version 13.1.2 (20250808.2320)
 -->
<!-- Title: Graphical Class Hierarchy Pages: 1 -->
<svg width="883pt" height="93pt"
 viewBox="0.00 0.00 883.00 93.00" xmlns="http://www.w3.org/2000/svg" xmlns:xlink="http://www.w3.org/1999/xlink">
<g id="graph0" class="graph" transform="scale(1 1) rotate(0) translate(4 89.12)">
<title>Graphical Class Hierarchy</title>
<!-- Node0 -->
<g id="Node000000" class="node">
<title>Node0</title>
<g id="a_Node000000"><a xlink:href="classllvm_1_1SmallVectorBase.html" target="_top" xlink:title=" ">
<polygon fill="white" stroke="#666666" points="137.5,-85.12 0,-85.12 0,-43.38 137.5,-43.38 137.5,-85.12"/>
<text xml:space="preserve" text-anchor="start" x="8" y="-71.62" font-family="Helvetica,sans-Serif" font-size="10.00">llvm::SmallVectorBase</text>
<text xml:space="preserve" text-anchor="start" x="8" y="-60.38" font-family="Helvetica,sans-Serif" font-size="10.00">&lt; SmallVectorSizeType</text>
<text xml:space="preserve" text-anchor="middle" x="68.75" y="-49.12" font-family="Helvetica,sans-Serif" font-size="10.00">&lt; AAQueryInfo::LocPair &gt; &gt;</text>
</a>
</g>
</g>
<!-- Node1 -->
<g id="Node000001" class="node">
<title>Node1</title>
<g id="a_Node000001"><a xlink:href="classllvm_1_1SmallVectorTemplateCommon.html" target="_top" xlink:title=" ">
<polygon fill="white" stroke="#666666" points="341.75,-79.5 173.5,-79.5 173.5,-49 341.75,-49 341.75,-79.5"/>
<text xml:space="preserve" text-anchor="start" x="181.5" y="-66" font-family="Helvetica,sans-Serif" font-size="10.00">llvm::SmallVectorTemplate</text>
<text xml:space="preserve" text-anchor="middle" x="257.62" y="-54.75" font-family="Helvetica,sans-Serif" font-size="10.00">Common&lt; AAQueryInfo::LocPair &gt;</text>
</a>
</g>
</g>
<!-- Node0&#45;&gt;Node1 -->
<g id="edge6496_Node000000_Node000001" class="edge">
<title>Node0&#45;&gt;Node1</title>
<g id="a_edge6496_Node000000_Node000001"><a xlink:title=" ">
<path fill="none" stroke="#63b8ff" d="M149.2,-64.25C157.1,-64.25 165.14,-64.25 173.08,-64.25"/>
<polygon fill="#63b8ff" stroke="#63b8ff" points="149.26,-60.75 139.26,-64.25 149.26,-67.75 149.26,-60.75"/>
</a>
</g>
</g>
<!-- Node2 -->
<g id="Node000002" class="node">
<title>Node2</title>
<g id="a_Node000002"><a xlink:href="classllvm_1_1SmallVectorTemplateBase.html" target="_top" xlink:title=" ">
<polygon fill="white" stroke="#666666" points="528.75,-79.5 377.75,-79.5 377.75,-49 528.75,-49 528.75,-79.5"/>
<text xml:space="preserve" text-anchor="start" x="385.75" y="-66" font-family="Helvetica,sans-Serif" font-size="10.00">llvm::SmallVectorTemplate</text>
<text xml:space="preserve" text-anchor="middle" x="453.25" y="-54.75" font-family="Helvetica,sans-Serif" font-size="10.00">Base&lt; AAQueryInfo::LocPair &gt;</text>
</a>
</g>
</g>
<!-- Node1&#45;&gt;Node2 -->
<g id="edge6497_Node000001_Node000002" class="edge">
<title>Node1&#45;&gt;Node2</title>
<g id="a_edge6497_Node000001_Node000002"><a xlink:title=" ">
<path fill="none" stroke="#63b8ff" d="M353.51,-64.25C361.58,-64.25 369.67,-64.25 377.54,-64.25"/>
<polygon fill="#63b8ff" stroke="#63b8ff" points="353.66,-60.75 343.66,-64.25 353.66,-67.75 353.66,-60.75"/>
</a>
</g>
</g>
<!-- Node3 -->
<g id="Node000003" class="node">
<title>Node3</title>
<g id="a_Node000003"><a xlink:href="classllvm_1_1SmallVectorImpl.html" target="_top" xlink:title=" ">
<polygon fill="white" stroke="#666666" points="699.62,-79.5 571.12,-79.5 571.12,-49 699.62,-49 699.62,-79.5"/>
<text xml:space="preserve" text-anchor="start" x="579.12" y="-66" font-family="Helvetica,sans-Serif" font-size="10.00">llvm::SmallVectorImpl</text>
<text xml:space="preserve" text-anchor="middle" x="635.38" y="-54.75" font-family="Helvetica,sans-Serif" font-size="10.00">&lt; AAQueryInfo::LocPair &gt;</text>
</a>
</g>
</g>
<!-- Node2&#45;&gt;Node3 -->
<g id="edge6498_Node000002_Node000003" class="edge">
<title>Node2&#45;&gt;Node3</title>
<g id="a_edge6498_Node000002_Node000003"><a xlink:title=" ">
<path fill="none" stroke="#63b8ff" d="M540.5,-64.25C550.66,-64.25 560.89,-64.25 570.67,-64.25"/>
<polygon fill="#63b8ff" stroke="#63b8ff" points="540.59,-60.75 530.59,-64.25 540.59,-67.75 540.59,-60.75"/>
</a>
</g>
</g>
<!-- Node4 -->
<g id="Node000004" class="node">
<title>Node4</title>
<g id="a_Node000004"><a xlink:href="classllvm_1_1SmallVector.html" target="_top" xlink:title=" ">
<polygon fill="white" stroke="#666666" points="875,-54.5 742,-54.5 742,-24 875,-24 875,-54.5"/>
<text xml:space="preserve" text-anchor="start" x="750" y="-41" font-family="Helvetica,sans-Serif" font-size="10.00">llvm::SmallVector&lt;</text>
<text xml:space="preserve" text-anchor="middle" x="808.5" y="-29.75" font-family="Helvetica,sans-Serif" font-size="10.00"> AAQueryInfo::LocPair, 4 &gt;</text>
</a>
</g>
</g>
<!-- Node3&#45;&gt;Node4 -->
<g id="edge6499_Node000003_Node000004" class="edge">
<title>Node3&#45;&gt;Node4</title>
<g id="a_edge6499_Node000003_Node000004"><a xlink:title=" ">
<path fill="none" stroke="#63b8ff" d="M711.39,-53.29C721.49,-51.81 731.8,-50.31 741.72,-48.86"/>
<polygon fill="#63b8ff" stroke="#63b8ff" points="710.98,-49.81 701.59,-54.72 711.99,-56.74 710.98,-49.81"/>
</a>
</g>
</g>
<!-- Node5 -->
<g id="Node000005" class="node">
<title>Node5</title>
<g id="a_Node000005"><a xlink:href="structllvm_1_1SmallVectorStorage.html" target="_top" xlink:title=" ">
<polygon fill="white" stroke="#666666" points="706,-30.5 564.75,-30.5 564.75,0 706,0 706,-30.5"/>
<text xml:space="preserve" text-anchor="start" x="572.75" y="-17" font-family="Helvetica,sans-Serif" font-size="10.00">llvm::SmallVectorStorage</text>
<text xml:space="preserve" text-anchor="middle" x="635.38" y="-5.75" font-family="Helvetica,sans-Serif" font-size="10.00">&lt; AAQueryInfo::LocPair, N &gt;</text>
</a>
</g>
</g>
<!-- Node5&#45;&gt;Node4 -->
<g id="edge6500_Node000005_Node000004" class="edge">
<title>Node5&#45;&gt;Node4</title>
<g id="a_edge6500_Node000005_Node000004"><a xlink:title=" ">
<path fill="none" stroke="#8b1a1a" d="M717.74,-26.66C725.75,-27.79 733.82,-28.92 741.65,-30.01"/>
<polygon fill="#8b1a1a" stroke="#8b1a1a" points="718.36,-23.21 707.97,-25.29 717.39,-30.15 718.36,-23.21"/>
</a>
</g>
</g>
</g>
</svg>
