<?xml version="1.0" encoding="UTF-8" standalone="no"?>
<!DOCTYPE svg PUBLIC "-//W3C//DTD SVG 1.1//EN"
 "http://www.w3.org/Graphics/SVG/1.1/DTD/svg11.dtd">
<!-- Generated by graphviz version 13.1.2 (20250808.2320)
 -->
<!-- Title: Graphical Class Hierarchy Pages: 1 -->
<svg width="1057pt" height="93pt"
 viewBox="0.00 0.00 1057.00 93.00" xmlns="http://www.w3.org/2000/svg" xmlns:xlink="http://www.w3.org/1999/xlink">
<g id="graph0" class="graph" transform="scale(1 1) rotate(0) translate(4 89.12)">
<title>Graphical Class Hierarchy</title>
<!-- Node0 -->
<g id="Node000000" class="node">
<title>Node0</title>
<g id="a_Node000000"><a xlink:href="classllvm_1_1SmallVectorBase.html" target="_top" xlink:title=" ">
<polygon fill="white" stroke="#666666" points="172,-85.12 0,-85.12 0,-43.38 172,-43.38 172,-85.12"/>
<text xml:space="preserve" text-anchor="start" x="8" y="-71.62" font-family="Helvetica,sans-Serif" font-size="10.00">llvm::SmallVectorBase</text>
<text xml:space="preserve" text-anchor="start" x="8" y="-60.38" font-family="Helvetica,sans-Serif" font-size="10.00">&lt; SmallVectorSizeType</text>
<text xml:space="preserve" text-anchor="middle" x="86" y="-49.12" font-family="Helvetica,sans-Serif" font-size="10.00">&lt; RegBankLLTMappingApplyID &gt; &gt;</text>
</a>
</g>
</g>
<!-- Node1 -->
<g id="Node000001" class="node">
<title>Node1</title>
<g id="a_Node000001"><a xlink:href="classllvm_1_1SmallVectorTemplateCommon.html" target="_top" xlink:title=" ">
<polygon fill="white" stroke="#666666" points="410.75,-79.5 208,-79.5 208,-49 410.75,-49 410.75,-79.5"/>
<text xml:space="preserve" text-anchor="start" x="216" y="-66" font-family="Helvetica,sans-Serif" font-size="10.00">llvm::SmallVectorTemplate</text>
<text xml:space="preserve" text-anchor="middle" x="309.38" y="-54.75" font-family="Helvetica,sans-Serif" font-size="10.00">Common&lt; RegBankLLTMappingApplyID &gt;</text>
</a>
</g>
</g>
<!-- Node0&#45;&gt;Node1 -->
<g id="edge9338_Node000000_Node000001" class="edge">
<title>Node0&#45;&gt;Node1</title>
<g id="a_edge9338_Node000000_Node000001"><a xlink:title=" ">
<path fill="none" stroke="#63b8ff" d="M183.77,-64.25C191.68,-64.25 199.68,-64.25 207.62,-64.25"/>
<polygon fill="#63b8ff" stroke="#63b8ff" points="183.79,-60.75 173.79,-64.25 183.79,-67.75 183.79,-60.75"/>
</a>
</g>
</g>
<!-- Node2 -->
<g id="Node000002" class="node">
<title>Node2</title>
<g id="a_Node000002"><a xlink:href="classllvm_1_1SmallVectorTemplateBase.html" target="_top" xlink:title=" ">
<polygon fill="white" stroke="#666666" points="632.25,-79.5 446.75,-79.5 446.75,-49 632.25,-49 632.25,-79.5"/>
<text xml:space="preserve" text-anchor="start" x="454.75" y="-66" font-family="Helvetica,sans-Serif" font-size="10.00">llvm::SmallVectorTemplate</text>
<text xml:space="preserve" text-anchor="middle" x="539.5" y="-54.75" font-family="Helvetica,sans-Serif" font-size="10.00">Base&lt; RegBankLLTMappingApplyID &gt;</text>
</a>
</g>
</g>
<!-- Node1&#45;&gt;Node2 -->
<g id="edge9339_Node000001_Node000002" class="edge">
<title>Node1&#45;&gt;Node2</title>
<g id="a_edge9339_Node000001_Node000002"><a xlink:title=" ">
<path fill="none" stroke="#63b8ff" d="M422.38,-64.25C430.38,-64.25 438.39,-64.25 446.26,-64.25"/>
<polygon fill="#63b8ff" stroke="#63b8ff" points="422.61,-60.75 412.61,-64.25 422.61,-67.75 422.61,-60.75"/>
</a>
</g>
</g>
<!-- Node3 -->
<g id="Node000003" class="node">
<title>Node3</title>
<g id="a_Node000003"><a xlink:href="classllvm_1_1SmallVectorImpl.html" target="_top" xlink:title=" ">
<polygon fill="white" stroke="#666666" points="838,-79.5 675,-79.5 675,-49 838,-49 838,-79.5"/>
<text xml:space="preserve" text-anchor="start" x="683" y="-66" font-family="Helvetica,sans-Serif" font-size="10.00">llvm::SmallVectorImpl</text>
<text xml:space="preserve" text-anchor="middle" x="756.5" y="-54.75" font-family="Helvetica,sans-Serif" font-size="10.00">&lt; RegBankLLTMappingApplyID &gt;</text>
</a>
</g>
</g>
<!-- Node2&#45;&gt;Node3 -->
<g id="edge9340_Node000002_Node000003" class="edge">
<title>Node2&#45;&gt;Node3</title>
<g id="a_edge9340_Node000002_Node000003"><a xlink:title=" ">
<path fill="none" stroke="#63b8ff" d="M643.84,-64.25C654.23,-64.25 664.66,-64.25 674.76,-64.25"/>
<polygon fill="#63b8ff" stroke="#63b8ff" points="644.13,-60.75 634.13,-64.25 644.13,-67.75 644.13,-60.75"/>
</a>
</g>
</g>
<!-- Node4 -->
<g id="Node000004" class="node">
<title>Node4</title>
<g id="a_Node000004"><a xlink:href="classllvm_1_1SmallVector.html" target="_top" xlink:title=" ">
<polygon fill="white" stroke="#666666" points="1049,-79.5 880.75,-79.5 880.75,-49 1049,-49 1049,-79.5"/>
<text xml:space="preserve" text-anchor="start" x="888.75" y="-66" font-family="Helvetica,sans-Serif" font-size="10.00">llvm::SmallVector&lt;</text>
<text xml:space="preserve" text-anchor="middle" x="964.88" y="-54.75" font-family="Helvetica,sans-Serif" font-size="10.00"> RegBankLLTMappingApplyID, 2 &gt;</text>
</a>
</g>
</g>
<!-- Node3&#45;&gt;Node4 -->
<g id="edge9341_Node000003_Node000004" class="edge">
<title>Node3&#45;&gt;Node4</title>
<g id="a_edge9341_Node000003_Node000004"><a xlink:title=" ">
<path fill="none" stroke="#63b8ff" d="M849.88,-64.25C860.05,-64.25 870.36,-64.25 880.42,-64.25"/>
<polygon fill="#63b8ff" stroke="#63b8ff" points="849.99,-60.75 839.99,-64.25 849.99,-67.75 849.99,-60.75"/>
</a>
</g>
</g>
<!-- Node6 -->
<g id="Node000006" class="node">
<title>Node6</title>
<g id="a_Node000006"><a xlink:href="classllvm_1_1SmallVector.html" target="_top" xlink:title=" ">
<polygon fill="white" stroke="#666666" points="1049,-30.5 880.75,-30.5 880.75,0 1049,0 1049,-30.5"/>
<text xml:space="preserve" text-anchor="start" x="888.75" y="-17" font-family="Helvetica,sans-Serif" font-size="10.00">llvm::SmallVector&lt;</text>
<text xml:space="preserve" text-anchor="middle" x="964.88" y="-5.75" font-family="Helvetica,sans-Serif" font-size="10.00"> RegBankLLTMappingApplyID, 4 &gt;</text>
</a>
</g>
</g>
<!-- Node3&#45;&gt;Node6 -->
<g id="edge9342_Node000003_Node000006" class="edge">
<title>Node3&#45;&gt;Node6</title>
<g id="a_edge9342_Node000003_Node000006"><a xlink:title=" ">
<path fill="none" stroke="#63b8ff" d="M834.67,-45.93C855.41,-41 877.66,-35.72 897.75,-30.95"/>
<polygon fill="#63b8ff" stroke="#63b8ff" points="834.04,-42.48 825.12,-48.19 835.66,-49.29 834.04,-42.48"/>
</a>
</g>
</g>
<!-- Node5 -->
<g id="Node000005" class="node">
<title>Node5</title>
<g id="a_Node000005"><a xlink:href="structllvm_1_1SmallVectorStorage.html" target="_top" xlink:title=" ">
<polygon fill="white" stroke="#666666" points="844.75,-30.5 668.25,-30.5 668.25,0 844.75,0 844.75,-30.5"/>
<text xml:space="preserve" text-anchor="start" x="676.25" y="-17" font-family="Helvetica,sans-Serif" font-size="10.00">llvm::SmallVectorStorage</text>
<text xml:space="preserve" text-anchor="middle" x="756.5" y="-5.75" font-family="Helvetica,sans-Serif" font-size="10.00">&lt; RegBankLLTMappingApplyID, N &gt;</text>
</a>
</g>
</g>
<!-- Node5&#45;&gt;Node4 -->
<g id="edge9343_Node000005_Node000004" class="edge">
<title>Node5&#45;&gt;Node4</title>
<g id="a_edge9343_Node000005_Node000004"><a xlink:title=" ">
<path fill="none" stroke="#8b1a1a" d="M834.67,-33.57C855.41,-38.5 877.66,-43.78 897.75,-48.55"/>
<polygon fill="#8b1a1a" stroke="#8b1a1a" points="835.66,-30.21 825.12,-31.31 834.04,-37.02 835.66,-30.21"/>
</a>
</g>
</g>
<!-- Node5&#45;&gt;Node6 -->
<g id="edge9344_Node000005_Node000006" class="edge">
<title>Node5&#45;&gt;Node6</title>
<g id="a_edge9344_Node000005_Node000006"><a xlink:title=" ">
<path fill="none" stroke="#8b1a1a" d="M856.38,-15.25C864.45,-15.25 872.55,-15.25 880.49,-15.25"/>
<polygon fill="#8b1a1a" stroke="#8b1a1a" points="856.54,-11.75 846.54,-15.25 856.54,-18.75 856.54,-11.75"/>
</a>
</g>
</g>
</g>
</svg>
