<?xml version="1.0" encoding="UTF-8" standalone="no"?>
<!DOCTYPE svg PUBLIC "-//W3C//DTD SVG 1.1//EN"
 "http://www.w3.org/Graphics/SVG/1.1/DTD/svg11.dtd">
<!-- Generated by graphviz version 13.1.2 (20250808.2320)
 -->
<!-- Title: Graphical Class Hierarchy Pages: 1 -->
<svg width="1002pt" height="115pt"
 viewBox="0.00 0.00 1002.00 115.00" xmlns="http://www.w3.org/2000/svg" xmlns:xlink="http://www.w3.org/1999/xlink">
<g id="graph0" class="graph" transform="scale(1 1) rotate(0) translate(4 111.38)">
<title>Graphical Class Hierarchy</title>
<!-- Node0 -->
<g id="Node000000" class="node">
<title>Node0</title>
<g id="a_Node000000"><a xlink:href="classllvm_1_1SmallVectorBase.html" target="_top" xlink:title=" ">
<polygon fill="white" stroke="#666666" points="178,-107.38 0,-107.38 0,-54.38 178,-54.38 178,-107.38"/>
<text xml:space="preserve" text-anchor="start" x="8" y="-93.88" font-family="Helvetica,sans-Serif" font-size="10.00">llvm::SmallVectorBase</text>
<text xml:space="preserve" text-anchor="start" x="8" y="-82.62" font-family="Helvetica,sans-Serif" font-size="10.00">&lt; SmallVectorSizeType</text>
<text xml:space="preserve" text-anchor="start" x="8" y="-71.38" font-family="Helvetica,sans-Serif" font-size="10.00">&lt; llvm::unique_function</text>
<text xml:space="preserve" text-anchor="middle" x="89" y="-60.12" font-family="Helvetica,sans-Serif" font-size="10.00">&lt; BeforeNonSkippedPassFunc &gt; &gt; &gt;</text>
</a>
</g>
</g>
<!-- Node1 -->
<g id="Node000001" class="node">
<title>Node1</title>
<g id="a_Node000001"><a xlink:href="classllvm_1_1SmallVectorTemplateCommon.html" target="_top" xlink:title=" ">
<polygon fill="white" stroke="#666666" points="383,-101.75 214,-101.75 214,-60 383,-60 383,-101.75"/>
<text xml:space="preserve" text-anchor="start" x="222" y="-88.25" font-family="Helvetica,sans-Serif" font-size="10.00">llvm::SmallVectorTemplate</text>
<text xml:space="preserve" text-anchor="start" x="222" y="-77" font-family="Helvetica,sans-Serif" font-size="10.00">Common&lt; llvm::unique_function</text>
<text xml:space="preserve" text-anchor="middle" x="298.5" y="-65.75" font-family="Helvetica,sans-Serif" font-size="10.00">&lt; BeforeNonSkippedPassFunc &gt; &gt;</text>
</a>
</g>
</g>
<!-- Node0&#45;&gt;Node1 -->
<g id="edge9147_Node000000_Node000001" class="edge">
<title>Node0&#45;&gt;Node1</title>
<g id="a_edge9147_Node000000_Node000001"><a xlink:title=" ">
<path fill="none" stroke="#63b8ff" d="M189.6,-80.88C197.62,-80.88 205.67,-80.88 213.57,-80.88"/>
<polygon fill="#63b8ff" stroke="#63b8ff" points="189.81,-77.38 179.81,-80.88 189.81,-84.38 189.81,-77.38"/>
</a>
</g>
</g>
<!-- Node2 -->
<g id="Node000002" class="node">
<title>Node2</title>
<g id="a_Node000002"><a xlink:href="classllvm_1_1SmallVectorTemplateBase.html" target="_top" xlink:title=" ">
<polygon fill="white" stroke="#666666" points="588,-101.75 419,-101.75 419,-60 588,-60 588,-101.75"/>
<text xml:space="preserve" text-anchor="start" x="427" y="-88.25" font-family="Helvetica,sans-Serif" font-size="10.00">llvm::SmallVectorTemplate</text>
<text xml:space="preserve" text-anchor="start" x="427" y="-77" font-family="Helvetica,sans-Serif" font-size="10.00">Base&lt; llvm::unique_function</text>
<text xml:space="preserve" text-anchor="middle" x="503.5" y="-65.75" font-family="Helvetica,sans-Serif" font-size="10.00">&lt; BeforeNonSkippedPassFunc &gt; &gt;</text>
</a>
</g>
</g>
<!-- Node1&#45;&gt;Node2 -->
<g id="edge9148_Node000001_Node000002" class="edge">
<title>Node1&#45;&gt;Node2</title>
<g id="a_edge9148_Node000001_Node000002"><a xlink:title=" ">
<path fill="none" stroke="#63b8ff" d="M394.55,-80.88C402.59,-80.88 410.68,-80.88 418.62,-80.88"/>
<polygon fill="#63b8ff" stroke="#63b8ff" points="394.75,-77.38 384.75,-80.88 394.75,-84.38 394.75,-77.38"/>
</a>
</g>
</g>
<!-- Node3 -->
<g id="Node000003" class="node">
<title>Node3</title>
<g id="a_Node000003"><a xlink:href="classllvm_1_1SmallVectorImpl.html" target="_top" xlink:title=" ">
<polygon fill="white" stroke="#666666" points="799.75,-101.75 630.75,-101.75 630.75,-60 799.75,-60 799.75,-101.75"/>
<text xml:space="preserve" text-anchor="start" x="638.75" y="-88.25" font-family="Helvetica,sans-Serif" font-size="10.00">llvm::SmallVectorImpl</text>
<text xml:space="preserve" text-anchor="start" x="638.75" y="-77" font-family="Helvetica,sans-Serif" font-size="10.00">&lt; llvm::unique_function</text>
<text xml:space="preserve" text-anchor="middle" x="715.25" y="-65.75" font-family="Helvetica,sans-Serif" font-size="10.00">&lt; BeforeNonSkippedPassFunc &gt; &gt;</text>
</a>
</g>
</g>
<!-- Node2&#45;&gt;Node3 -->
<g id="edge9149_Node000002_Node000003" class="edge">
<title>Node2&#45;&gt;Node3</title>
<g id="a_edge9149_Node000002_Node000003"><a xlink:title=" ">
<path fill="none" stroke="#63b8ff" d="M599.49,-80.88C609.86,-80.88 620.36,-80.88 630.58,-80.88"/>
<polygon fill="#63b8ff" stroke="#63b8ff" points="599.82,-77.38 589.82,-80.88 599.82,-84.38 599.82,-77.38"/>
</a>
</g>
</g>
<!-- Node4 -->
<g id="Node000004" class="node">
<title>Node4</title>
<g id="a_Node000004"><a xlink:href="classllvm_1_1SmallVector.html" target="_top" xlink:title=" ">
<polygon fill="white" stroke="#666666" points="993.5,-77.38 842.5,-77.38 842.5,-24.38 993.5,-24.38 993.5,-77.38"/>
<text xml:space="preserve" text-anchor="start" x="850.5" y="-63.88" font-family="Helvetica,sans-Serif" font-size="10.00">llvm::SmallVector&lt;</text>
<text xml:space="preserve" text-anchor="start" x="850.5" y="-52.62" font-family="Helvetica,sans-Serif" font-size="10.00"> llvm::unique_function</text>
<text xml:space="preserve" text-anchor="start" x="850.5" y="-41.38" font-family="Helvetica,sans-Serif" font-size="10.00">&lt; BeforeNonSkippedPassFunc</text>
<text xml:space="preserve" text-anchor="middle" x="918" y="-30.12" font-family="Helvetica,sans-Serif" font-size="10.00"> &gt;, 4 &gt;</text>
</a>
</g>
</g>
<!-- Node3&#45;&gt;Node4 -->
<g id="edge9150_Node000003_Node000004" class="edge">
<title>Node3&#45;&gt;Node4</title>
<g id="a_edge9150_Node000003_Node000004"><a xlink:title=" ">
<path fill="none" stroke="#63b8ff" d="M811.42,-66.65C821.79,-65.1 832.24,-63.54 842.31,-62.04"/>
<polygon fill="#63b8ff" stroke="#63b8ff" points="811.09,-63.16 801.72,-68.1 812.13,-70.09 811.09,-63.16"/>
</a>
</g>
</g>
<!-- Node5 -->
<g id="Node000005" class="node">
<title>Node5</title>
<g id="a_Node000005"><a xlink:href="structllvm_1_1SmallVectorStorage.html" target="_top" xlink:title=" ">
<polygon fill="white" stroke="#666666" points="806.5,-41.75 624,-41.75 624,0 806.5,0 806.5,-41.75"/>
<text xml:space="preserve" text-anchor="start" x="632" y="-28.25" font-family="Helvetica,sans-Serif" font-size="10.00">llvm::SmallVectorStorage</text>
<text xml:space="preserve" text-anchor="start" x="632" y="-17" font-family="Helvetica,sans-Serif" font-size="10.00">&lt; llvm::unique_function</text>
<text xml:space="preserve" text-anchor="middle" x="715.25" y="-5.75" font-family="Helvetica,sans-Serif" font-size="10.00">&lt; BeforeNonSkippedPassFunc &gt;, N &gt;</text>
</a>
</g>
</g>
<!-- Node5&#45;&gt;Node4 -->
<g id="edge9151_Node000005_Node000004" class="edge">
<title>Node5&#45;&gt;Node4</title>
<g id="a_edge9151_Node000005_Node000004"><a xlink:title=" ">
<path fill="none" stroke="#8b1a1a" d="M818.25,-36.12C826.26,-37.32 834.26,-38.51 842.04,-39.67"/>
<polygon fill="#8b1a1a" stroke="#8b1a1a" points="818.84,-32.67 808.43,-34.65 817.8,-39.59 818.84,-32.67"/>
</a>
</g>
</g>
</g>
</svg>
