<?xml version="1.0" encoding="UTF-8" standalone="no"?>
<!DOCTYPE svg PUBLIC "-//W3C//DTD SVG 1.1//EN"
 "http://www.w3.org/Graphics/SVG/1.1/DTD/svg11.dtd">
<!-- Generated by graphviz version 13.1.2 (20250808.2320)
 -->
<!-- Title: Graphical Class Hierarchy Pages: 1 -->
<svg width="810pt" height="137pt"
 viewBox="0.00 0.00 810.00 137.00" xmlns="http://www.w3.org/2000/svg" xmlns:xlink="http://www.w3.org/1999/xlink">
<g id="graph0" class="graph" transform="scale(1 1) rotate(0) translate(4 132.5)">
<title>Graphical Class Hierarchy</title>
<!-- Node0 -->
<g id="Node000000" class="node">
<title>Node0</title>
<g id="a_Node000000"><a xlink:href="classllvm_1_1SmallVectorBase.html" target="_top" xlink:title=" ">
<polygon fill="white" stroke="#666666" points="122.5,-109.12 0,-109.12 0,-67.38 122.5,-67.38 122.5,-109.12"/>
<text xml:space="preserve" text-anchor="start" x="8" y="-95.62" font-family="Helvetica,sans-Serif" font-size="10.00">llvm::SmallVectorBase</text>
<text xml:space="preserve" text-anchor="start" x="8" y="-84.38" font-family="Helvetica,sans-Serif" font-size="10.00">&lt; SmallVectorSizeType</text>
<text xml:space="preserve" text-anchor="middle" x="61.25" y="-73.12" font-family="Helvetica,sans-Serif" font-size="10.00">&lt; llvm::MCSymbol * &gt; &gt;</text>
</a>
</g>
</g>
<!-- Node1 -->
<g id="Node000001" class="node">
<title>Node1</title>
<g id="a_Node000001"><a xlink:href="classllvm_1_1SmallVectorTemplateCommon.html" target="_top" xlink:title=" ">
<polygon fill="white" stroke="#666666" points="311.75,-103.5 158.5,-103.5 158.5,-73 311.75,-73 311.75,-103.5"/>
<text xml:space="preserve" text-anchor="start" x="166.5" y="-90" font-family="Helvetica,sans-Serif" font-size="10.00">llvm::SmallVectorTemplate</text>
<text xml:space="preserve" text-anchor="middle" x="235.12" y="-78.75" font-family="Helvetica,sans-Serif" font-size="10.00">Common&lt; llvm::MCSymbol * &gt;</text>
</a>
</g>
</g>
<!-- Node0&#45;&gt;Node1 -->
<g id="edge8779_Node000000_Node000001" class="edge">
<title>Node0&#45;&gt;Node1</title>
<g id="a_edge8779_Node000000_Node000001"><a xlink:title=" ">
<path fill="none" stroke="#63b8ff" d="M134.25,-88.25C142.14,-88.25 150.18,-88.25 158.11,-88.25"/>
<polygon fill="#63b8ff" stroke="#63b8ff" points="134.36,-84.75 124.36,-88.25 134.36,-91.75 134.36,-84.75"/>
</a>
</g>
</g>
<!-- Node2 -->
<g id="Node000002" class="node">
<title>Node2</title>
<g id="a_Node000002"><a xlink:href="classllvm_1_1SmallVectorTemplateBase.html" target="_top" xlink:title=" ">
<polygon fill="white" stroke="#666666" points="483.75,-103.5 347.75,-103.5 347.75,-73 483.75,-73 483.75,-103.5"/>
<text xml:space="preserve" text-anchor="start" x="355.75" y="-90" font-family="Helvetica,sans-Serif" font-size="10.00">llvm::SmallVectorTemplate</text>
<text xml:space="preserve" text-anchor="middle" x="415.75" y="-78.75" font-family="Helvetica,sans-Serif" font-size="10.00">Base&lt; llvm::MCSymbol * &gt;</text>
</a>
</g>
</g>
<!-- Node1&#45;&gt;Node2 -->
<g id="edge8780_Node000001_Node000002" class="edge">
<title>Node1&#45;&gt;Node2</title>
<g id="a_edge8780_Node000001_Node000002"><a xlink:title=" ">
<path fill="none" stroke="#63b8ff" d="M323.43,-88.25C331.45,-88.25 339.48,-88.25 347.28,-88.25"/>
<polygon fill="#63b8ff" stroke="#63b8ff" points="323.65,-84.75 313.65,-88.25 323.65,-91.75 323.65,-84.75"/>
</a>
</g>
</g>
<!-- Node3 -->
<g id="Node000003" class="node">
<title>Node3</title>
<g id="a_Node000003"><a xlink:href="classllvm_1_1SmallVectorImpl.html" target="_top" xlink:title=" ">
<polygon fill="white" stroke="#666666" points="640,-103.5 526.5,-103.5 526.5,-73 640,-73 640,-103.5"/>
<text xml:space="preserve" text-anchor="start" x="534.5" y="-90" font-family="Helvetica,sans-Serif" font-size="10.00">llvm::SmallVectorImpl</text>
<text xml:space="preserve" text-anchor="middle" x="583.25" y="-78.75" font-family="Helvetica,sans-Serif" font-size="10.00">&lt; llvm::MCSymbol * &gt;</text>
</a>
</g>
</g>
<!-- Node2&#45;&gt;Node3 -->
<g id="edge8781_Node000002_Node000003" class="edge">
<title>Node2&#45;&gt;Node3</title>
<g id="a_edge8781_Node000002_Node000003"><a xlink:title=" ">
<path fill="none" stroke="#63b8ff" d="M495.29,-88.25C505.69,-88.25 516.18,-88.25 526.1,-88.25"/>
<polygon fill="#63b8ff" stroke="#63b8ff" points="495.58,-84.75 485.58,-88.25 495.58,-91.75 495.58,-84.75"/>
</a>
</g>
</g>
<!-- Node4 -->
<g id="Node000004" class="node">
<title>Node4</title>
<g id="a_Node000004"><a xlink:href="classllvm_1_1SmallVector.html" target="_top" xlink:title=" ">
<polygon fill="white" stroke="#666666" points="801.5,-128.5 682.75,-128.5 682.75,-98 801.5,-98 801.5,-128.5"/>
<text xml:space="preserve" text-anchor="start" x="690.75" y="-115" font-family="Helvetica,sans-Serif" font-size="10.00">llvm::SmallVector&lt;</text>
<text xml:space="preserve" text-anchor="middle" x="742.12" y="-103.75" font-family="Helvetica,sans-Serif" font-size="10.00"> llvm::MCSymbol *, 1 &gt;</text>
</a>
</g>
</g>
<!-- Node3&#45;&gt;Node4 -->
<g id="edge8782_Node000003_Node000004" class="edge">
<title>Node3&#45;&gt;Node4</title>
<g id="a_edge8782_Node000003_Node000004"><a xlink:title=" ">
<path fill="none" stroke="#63b8ff" d="M651.8,-99.02C661.99,-100.64 672.43,-102.3 682.41,-103.89"/>
<polygon fill="#63b8ff" stroke="#63b8ff" points="652.36,-95.56 641.94,-97.44 651.26,-102.47 652.36,-95.56"/>
</a>
</g>
</g>
<!-- Node6 -->
<g id="Node000006" class="node">
<title>Node6</title>
<g id="a_Node000006"><a xlink:href="classllvm_1_1SmallVector.html" target="_top" xlink:title=" ">
<polygon fill="white" stroke="#666666" points="801.5,-79.5 682.75,-79.5 682.75,-49 801.5,-49 801.5,-79.5"/>
<text xml:space="preserve" text-anchor="start" x="690.75" y="-66" font-family="Helvetica,sans-Serif" font-size="10.00">llvm::SmallVector&lt;</text>
<text xml:space="preserve" text-anchor="middle" x="742.12" y="-54.75" font-family="Helvetica,sans-Serif" font-size="10.00"> llvm::MCSymbol *, 3 &gt;</text>
</a>
</g>
</g>
<!-- Node3&#45;&gt;Node6 -->
<g id="edge8783_Node000003_Node000006" class="edge">
<title>Node3&#45;&gt;Node6</title>
<g id="a_edge8783_Node000003_Node000006"><a xlink:title=" ">
<path fill="none" stroke="#63b8ff" d="M651.8,-77.92C661.99,-76.36 672.43,-74.76 682.41,-73.23"/>
<polygon fill="#63b8ff" stroke="#63b8ff" points="651.29,-74.45 641.94,-79.42 652.35,-81.37 651.29,-74.45"/>
</a>
</g>
</g>
<!-- Node7 -->
<g id="Node000007" class="node">
<title>Node7</title>
<g id="a_Node000007"><a xlink:href="classllvm_1_1SmallVector.html" target="_top" xlink:title=" ">
<polygon fill="white" stroke="#666666" points="801.5,-30.5 682.75,-30.5 682.75,0 801.5,0 801.5,-30.5"/>
<text xml:space="preserve" text-anchor="start" x="690.75" y="-17" font-family="Helvetica,sans-Serif" font-size="10.00">llvm::SmallVector&lt;</text>
<text xml:space="preserve" text-anchor="middle" x="742.12" y="-5.75" font-family="Helvetica,sans-Serif" font-size="10.00"> llvm::MCSymbol *, 4 &gt;</text>
</a>
</g>
</g>
<!-- Node3&#45;&gt;Node7 -->
<g id="edge8784_Node000003_Node000007" class="edge">
<title>Node3&#45;&gt;Node7</title>
<g id="a_edge8784_Node000003_Node000007"><a xlink:title=" ">
<path fill="none" stroke="#63b8ff" d="M637.23,-67.88C640.48,-66.37 643.68,-64.83 646.75,-63.25 663.64,-54.57 665.97,-49.13 682.75,-40.25 688.89,-37 695.54,-33.84 702.08,-30.92"/>
<polygon fill="#63b8ff" stroke="#63b8ff" points="635.88,-64.65 628.14,-71.89 638.7,-71.05 635.88,-64.65"/>
</a>
</g>
</g>
<!-- Node5 -->
<g id="Node000005" class="node">
<title>Node5</title>
<g id="a_Node000005"><a xlink:href="structllvm_1_1SmallVectorStorage.html" target="_top" xlink:title=" ">
<polygon fill="white" stroke="#666666" points="646.75,-54.5 519.75,-54.5 519.75,-24 646.75,-24 646.75,-54.5"/>
<text xml:space="preserve" text-anchor="start" x="527.75" y="-41" font-family="Helvetica,sans-Serif" font-size="10.00">llvm::SmallVectorStorage</text>
<text xml:space="preserve" text-anchor="middle" x="583.25" y="-29.75" font-family="Helvetica,sans-Serif" font-size="10.00">&lt; llvm::MCSymbol *, N &gt;</text>
</a>
</g>
</g>
<!-- Node5&#45;&gt;Node4 -->
<g id="edge8785_Node000005_Node000004" class="edge">
<title>Node5&#45;&gt;Node4</title>
<g id="a_edge8785_Node000005_Node000004"><a xlink:title=" ">
<path fill="none" stroke="#8b1a1a" d="M637.27,-59.55C640.51,-61.07 643.69,-62.64 646.75,-64.25 663.77,-73.2 665.84,-79.09 682.75,-88.25 688.76,-91.5 695.28,-94.65 701.72,-97.55"/>
<polygon fill="#8b1a1a" stroke="#8b1a1a" points="638.75,-56.38 628.2,-55.51 635.9,-62.78 638.75,-56.38"/>
</a>
</g>
</g>
<!-- Node5&#45;&gt;Node6 -->
<g id="edge8786_Node000005_Node000006" class="edge">
<title>Node5&#45;&gt;Node6</title>
<g id="a_edge8786_Node000005_Node000006"><a xlink:title=" ">
<path fill="none" stroke="#8b1a1a" d="M658.4,-51.07C666.41,-52.34 674.48,-53.63 682.28,-54.87"/>
<polygon fill="#8b1a1a" stroke="#8b1a1a" points="659.07,-47.63 648.65,-49.51 657.97,-54.54 659.07,-47.63"/>
</a>
</g>
</g>
<!-- Node5&#45;&gt;Node7 -->
<g id="edge8787_Node000005_Node000007" class="edge">
<title>Node5&#45;&gt;Node7</title>
<g id="a_edge8787_Node000005_Node000007"><a xlink:title=" ">
<path fill="none" stroke="#8b1a1a" d="M658.4,-27.91C666.41,-26.68 674.48,-25.45 682.28,-24.25"/>
<polygon fill="#8b1a1a" stroke="#8b1a1a" points="658,-24.43 648.65,-29.4 659.06,-31.35 658,-24.43"/>
</a>
</g>
</g>
</g>
</svg>
