<?xml version="1.0" encoding="UTF-8" standalone="no"?>
<!DOCTYPE svg PUBLIC "-//W3C//DTD SVG 1.1//EN"
 "http://www.w3.org/Graphics/SVG/1.1/DTD/svg11.dtd">
<!-- Generated by graphviz version 13.1.2 (20250808.2320)
 -->
<!-- Title: Graphical Class Hierarchy Pages: 1 -->
<svg width="293pt" height="186pt"
 viewBox="0.00 0.00 293.00 186.00" xmlns="http://www.w3.org/2000/svg" xmlns:xlink="http://www.w3.org/1999/xlink">
<g id="graph0" class="graph" transform="scale(1 1) rotate(0) translate(4 181.5)">
<title>Graphical Class Hierarchy</title>
<!-- Node0 -->
<g id="Node000000" class="node">
<title>Node0</title>
<g id="a_Node000000"><a xlink:href="classllvm_1_1jitlink_1_1TableManager.html" target="_top" xlink:title=" ">
<polygon fill="white" stroke="#666666" points="129.25,-103.5 0,-103.5 0,-73 129.25,-73 129.25,-103.5"/>
<text xml:space="preserve" text-anchor="start" x="8" y="-90" font-family="Helvetica,sans-Serif" font-size="10.00">llvm::jitlink::TableManager</text>
<text xml:space="preserve" text-anchor="middle" x="64.62" y="-78.75" font-family="Helvetica,sans-Serif" font-size="10.00">&lt; GOTTableManager &gt;</text>
</a>
</g>
</g>
<!-- Node1 -->
<g id="Node000001" class="node">
<title>Node1</title>
<g id="a_Node000001"><a xlink:href="classllvm_1_1jitlink_1_1aarch64_1_1GOTTableManager.html" target="_top" xlink:title="Global Offset Table Builder.">
<polygon fill="white" stroke="#666666" points="276.88,-177.5 173.12,-177.5 173.12,-147 276.88,-147 276.88,-177.5"/>
<text xml:space="preserve" text-anchor="start" x="181.12" y="-164" font-family="Helvetica,sans-Serif" font-size="10.00">llvm::jitlink::aarch64</text>
<text xml:space="preserve" text-anchor="middle" x="225" y="-152.75" font-family="Helvetica,sans-Serif" font-size="10.00">::GOTTableManager</text>
</a>
</g>
</g>
<!-- Node0&#45;&gt;Node1 -->
<g id="edge4166_Node000000_Node000001" class="edge">
<title>Node0&#45;&gt;Node1</title>
<g id="a_edge4166_Node000000_Node000001"><a xlink:title=" ">
<path fill="none" stroke="#63b8ff" d="M106.5,-108.98C124.42,-117.91 145.77,-128.32 165.25,-137.25 172,-140.34 179.24,-143.53 186.26,-146.55"/>
<polygon fill="#63b8ff" stroke="#63b8ff" points="108.24,-105.94 97.73,-104.6 105.11,-112.2 108.24,-105.94"/>
</a>
</g>
</g>
<!-- Node2 -->
<g id="Node000002" class="node">
<title>Node2</title>
<g id="a_Node000002"><a xlink:href="classllvm_1_1jitlink_1_1loongarch_1_1GOTTableManager.html" target="_top" xlink:title="Global Offset Table Builder.">
<polygon fill="white" stroke="#666666" points="280.25,-128.5 169.75,-128.5 169.75,-98 280.25,-98 280.25,-128.5"/>
<text xml:space="preserve" text-anchor="start" x="177.75" y="-115" font-family="Helvetica,sans-Serif" font-size="10.00">llvm::jitlink::loongarch</text>
<text xml:space="preserve" text-anchor="middle" x="225" y="-103.75" font-family="Helvetica,sans-Serif" font-size="10.00">::GOTTableManager</text>
</a>
</g>
</g>
<!-- Node0&#45;&gt;Node2 -->
<g id="edge4167_Node000000_Node000002" class="edge">
<title>Node0&#45;&gt;Node2</title>
<g id="a_edge4167_Node000000_Node000002"><a xlink:title=" ">
<path fill="none" stroke="#63b8ff" d="M140.85,-100.12C150.5,-101.65 160.23,-103.18 169.46,-104.64"/>
<polygon fill="#63b8ff" stroke="#63b8ff" points="141.5,-96.68 131.08,-98.58 140.41,-103.6 141.5,-96.68"/>
</a>
</g>
</g>
<!-- Node3 -->
<g id="Node000003" class="node">
<title>Node3</title>
<g id="a_Node000003"><a xlink:href="classllvm_1_1jitlink_1_1x86_1_1GOTTableManager.html" target="_top" xlink:title="Global Offset Table Builder.">
<polygon fill="white" stroke="#666666" points="276.88,-79.5 173.12,-79.5 173.12,-49 276.88,-49 276.88,-79.5"/>
<text xml:space="preserve" text-anchor="start" x="181.12" y="-66" font-family="Helvetica,sans-Serif" font-size="10.00">llvm::jitlink::x86</text>
<text xml:space="preserve" text-anchor="middle" x="225" y="-54.75" font-family="Helvetica,sans-Serif" font-size="10.00">::GOTTableManager</text>
</a>
</g>
</g>
<!-- Node0&#45;&gt;Node3 -->
<g id="edge4168_Node000000_Node000003" class="edge">
<title>Node0&#45;&gt;Node3</title>
<g id="a_edge4168_Node000000_Node000003"><a xlink:title=" ">
<path fill="none" stroke="#63b8ff" d="M140.85,-76.85C151.72,-75.2 162.69,-73.54 172.94,-71.99"/>
<polygon fill="#63b8ff" stroke="#63b8ff" points="140.44,-73.37 131.08,-78.33 141.49,-80.29 140.44,-73.37"/>
</a>
</g>
</g>
<!-- Node4 -->
<g id="Node000004" class="node">
<title>Node4</title>
<g id="a_Node000004"><a xlink:href="classllvm_1_1jitlink_1_1x86__64_1_1GOTTableManager.html" target="_top" xlink:title="Global Offset Table Builder.">
<polygon fill="white" stroke="#666666" points="284.75,-30.5 165.25,-30.5 165.25,0 284.75,0 284.75,-30.5"/>
<text xml:space="preserve" text-anchor="start" x="173.25" y="-17" font-family="Helvetica,sans-Serif" font-size="10.00">llvm::jitlink::x86</text>
<text xml:space="preserve" text-anchor="middle" x="225" y="-5.75" font-family="Helvetica,sans-Serif" font-size="10.00">_64::GOTTableManager</text>
</a>
</g>
</g>
<!-- Node0&#45;&gt;Node4 -->
<g id="edge4169_Node000000_Node000004" class="edge">
<title>Node0&#45;&gt;Node4</title>
<g id="a_edge4169_Node000000_Node000004"><a xlink:title=" ">
<path fill="none" stroke="#63b8ff" d="M107.35,-67.61C125.11,-58.97 146.1,-48.93 165.25,-40.25 172.01,-37.18 179.26,-34.01 186.28,-30.99"/>
<polygon fill="#63b8ff" stroke="#63b8ff" points="106.11,-64.32 98.66,-71.86 109.18,-70.61 106.11,-64.32"/>
</a>
</g>
</g>
</g>
</svg>
