<?xml version="1.0" encoding="UTF-8" standalone="no"?>
<!DOCTYPE svg PUBLIC "-//W3C//DTD SVG 1.1//EN"
 "http://www.w3.org/Graphics/SVG/1.1/DTD/svg11.dtd">
<!-- Generated by graphviz version 13.1.2 (20250808.2320)
 -->
<!-- Title: Graphical Class Hierarchy Pages: 1 -->
<svg width="831pt" height="93pt"
 viewBox="0.00 0.00 831.00 93.00" xmlns="http://www.w3.org/2000/svg" xmlns:xlink="http://www.w3.org/1999/xlink">
<g id="graph0" class="graph" transform="scale(1 1) rotate(0) translate(4 89.12)">
<title>Graphical Class Hierarchy</title>
<!-- Node0 -->
<g id="Node000000" class="node">
<title>Node0</title>
<g id="a_Node000000"><a xlink:href="classllvm_1_1SmallVectorBase.html" target="_top" xlink:title=" ">
<polygon fill="white" stroke="#666666" points="132.25,-85.12 0,-85.12 0,-43.38 132.25,-43.38 132.25,-85.12"/>
<text xml:space="preserve" text-anchor="start" x="8" y="-71.62" font-family="Helvetica,sans-Serif" font-size="10.00">llvm::SmallVectorBase</text>
<text xml:space="preserve" text-anchor="start" x="8" y="-60.38" font-family="Helvetica,sans-Serif" font-size="10.00">&lt; SmallVectorSizeType</text>
<text xml:space="preserve" text-anchor="middle" x="66.12" y="-49.12" font-family="Helvetica,sans-Serif" font-size="10.00">&lt; llvm::LexicalScope * &gt; &gt;</text>
</a>
</g>
</g>
<!-- Node1 -->
<g id="Node000001" class="node">
<title>Node1</title>
<g id="a_Node000001"><a xlink:href="classllvm_1_1SmallVectorTemplateCommon.html" target="_top" xlink:title=" ">
<polygon fill="white" stroke="#666666" points="331.25,-79.5 168.25,-79.5 168.25,-49 331.25,-49 331.25,-79.5"/>
<text xml:space="preserve" text-anchor="start" x="176.25" y="-66" font-family="Helvetica,sans-Serif" font-size="10.00">llvm::SmallVectorTemplate</text>
<text xml:space="preserve" text-anchor="middle" x="249.75" y="-54.75" font-family="Helvetica,sans-Serif" font-size="10.00">Common&lt; llvm::LexicalScope * &gt;</text>
</a>
</g>
</g>
<!-- Node0&#45;&gt;Node1 -->
<g id="edge8628_Node000000_Node000001" class="edge">
<title>Node0&#45;&gt;Node1</title>
<g id="a_edge8628_Node000000_Node000001"><a xlink:title=" ">
<path fill="none" stroke="#63b8ff" d="M144.06,-64.25C151.9,-64.25 159.88,-64.25 167.76,-64.25"/>
<polygon fill="#63b8ff" stroke="#63b8ff" points="144.21,-60.75 134.21,-64.25 144.21,-67.75 144.21,-60.75"/>
</a>
</g>
</g>
<!-- Node2 -->
<g id="Node000002" class="node">
<title>Node2</title>
<g id="a_Node000002"><a xlink:href="classllvm_1_1SmallVectorTemplateBase.html" target="_top" xlink:title=" ">
<polygon fill="white" stroke="#666666" points="513,-79.5 367.25,-79.5 367.25,-49 513,-49 513,-79.5"/>
<text xml:space="preserve" text-anchor="start" x="375.25" y="-66" font-family="Helvetica,sans-Serif" font-size="10.00">llvm::SmallVectorTemplate</text>
<text xml:space="preserve" text-anchor="middle" x="440.12" y="-54.75" font-family="Helvetica,sans-Serif" font-size="10.00">Base&lt; llvm::LexicalScope * &gt;</text>
</a>
</g>
</g>
<!-- Node1&#45;&gt;Node2 -->
<g id="edge8629_Node000001_Node000002" class="edge">
<title>Node1&#45;&gt;Node2</title>
<g id="a_edge8629_Node000001_Node000002"><a xlink:title=" ">
<path fill="none" stroke="#63b8ff" d="M343,-64.25C351,-64.25 359.02,-64.25 366.82,-64.25"/>
<polygon fill="#63b8ff" stroke="#63b8ff" points="343.24,-60.75 333.24,-64.25 343.24,-67.75 343.24,-60.75"/>
</a>
</g>
</g>
<!-- Node3 -->
<g id="Node000003" class="node">
<title>Node3</title>
<g id="a_Node000003"><a xlink:href="classllvm_1_1SmallVectorImpl.html" target="_top" xlink:title=" ">
<polygon fill="white" stroke="#666666" points="679,-79.5 555.75,-79.5 555.75,-49 679,-49 679,-79.5"/>
<text xml:space="preserve" text-anchor="start" x="563.75" y="-66" font-family="Helvetica,sans-Serif" font-size="10.00">llvm::SmallVectorImpl</text>
<text xml:space="preserve" text-anchor="middle" x="617.38" y="-54.75" font-family="Helvetica,sans-Serif" font-size="10.00">&lt; llvm::LexicalScope * &gt;</text>
</a>
</g>
</g>
<!-- Node2&#45;&gt;Node3 -->
<g id="edge8630_Node000002_Node000003" class="edge">
<title>Node2&#45;&gt;Node3</title>
<g id="a_edge8630_Node000002_Node000003"><a xlink:title=" ">
<path fill="none" stroke="#63b8ff" d="M524.62,-64.25C535,-64.25 545.46,-64.25 555.41,-64.25"/>
<polygon fill="#63b8ff" stroke="#63b8ff" points="524.93,-60.75 514.93,-64.25 524.93,-67.75 524.93,-60.75"/>
</a>
</g>
</g>
<!-- Node4 -->
<g id="Node000004" class="node">
<title>Node4</title>
<g id="a_Node000004"><a xlink:href="classllvm_1_1SmallVector.html" target="_top" xlink:title=" ">
<polygon fill="white" stroke="#666666" points="823.25,-60.12 721.75,-60.12 721.75,-18.38 823.25,-18.38 823.25,-60.12"/>
<text xml:space="preserve" text-anchor="start" x="729.75" y="-46.62" font-family="Helvetica,sans-Serif" font-size="10.00">llvm::SmallVector&lt;</text>
<text xml:space="preserve" text-anchor="start" x="729.75" y="-35.38" font-family="Helvetica,sans-Serif" font-size="10.00"> llvm::LexicalScope</text>
<text xml:space="preserve" text-anchor="middle" x="772.5" y="-24.12" font-family="Helvetica,sans-Serif" font-size="10.00"> *, 4 &gt;</text>
</a>
</g>
</g>
<!-- Node3&#45;&gt;Node4 -->
<g id="edge8631_Node000003_Node000004" class="edge">
<title>Node3&#45;&gt;Node4</title>
<g id="a_edge8631_Node000003_Node000004"><a xlink:title=" ">
<path fill="none" stroke="#63b8ff" d="M690.62,-52.46C701.09,-50.75 711.67,-49.02 721.57,-47.4"/>
<polygon fill="#63b8ff" stroke="#63b8ff" points="690.13,-48.99 680.83,-54.05 691.26,-55.9 690.13,-48.99"/>
</a>
</g>
</g>
<!-- Node5 -->
<g id="Node000005" class="node">
<title>Node5</title>
<g id="a_Node000005"><a xlink:href="structllvm_1_1SmallVectorStorage.html" target="_top" xlink:title=" ">
<polygon fill="white" stroke="#666666" points="685.75,-30.5 549,-30.5 549,0 685.75,0 685.75,-30.5"/>
<text xml:space="preserve" text-anchor="start" x="557" y="-17" font-family="Helvetica,sans-Serif" font-size="10.00">llvm::SmallVectorStorage</text>
<text xml:space="preserve" text-anchor="middle" x="617.38" y="-5.75" font-family="Helvetica,sans-Serif" font-size="10.00">&lt; llvm::LexicalScope *, N &gt;</text>
</a>
</g>
</g>
<!-- Node5&#45;&gt;Node4 -->
<g id="edge8632_Node000005_Node000004" class="edge">
<title>Node5&#45;&gt;Node4</title>
<g id="a_edge8632_Node000005_Node000004"><a xlink:title=" ">
<path fill="none" stroke="#8b1a1a" d="M697.15,-27.6C705.35,-28.88 713.51,-30.16 721.27,-31.38"/>
<polygon fill="#8b1a1a" stroke="#8b1a1a" points="697.9,-24.17 687.48,-26.08 696.82,-31.09 697.9,-24.17"/>
</a>
</g>
</g>
</g>
</svg>
