<?xml version="1.0" encoding="UTF-8" standalone="no"?>
<!DOCTYPE svg PUBLIC "-//W3C//DTD SVG 1.1//EN"
 "http://www.w3.org/Graphics/SVG/1.1/DTD/svg11.dtd">
<!-- Generated by graphviz version 13.1.2 (20250808.2320)
 -->
<!-- Title: Graphical Class Hierarchy Pages: 1 -->
<svg width="974pt" height="93pt"
 viewBox="0.00 0.00 974.00 93.00" xmlns="http://www.w3.org/2000/svg" xmlns:xlink="http://www.w3.org/1999/xlink">
<g id="graph0" class="graph" transform="scale(1 1) rotate(0) translate(4 89.12)">
<title>Graphical Class Hierarchy</title>
<!-- Node0 -->
<g id="Node000000" class="node">
<title>Node0</title>
<g id="a_Node000000"><a xlink:href="classllvm_1_1SmallVectorBase.html" target="_top" xlink:title=" ">
<polygon fill="white" stroke="#666666" points="160.75,-85.12 0,-85.12 0,-43.38 160.75,-43.38 160.75,-85.12"/>
<text xml:space="preserve" text-anchor="start" x="8" y="-71.62" font-family="Helvetica,sans-Serif" font-size="10.00">llvm::SmallVectorBase</text>
<text xml:space="preserve" text-anchor="start" x="8" y="-60.38" font-family="Helvetica,sans-Serif" font-size="10.00">&lt; SmallVectorSizeType</text>
<text xml:space="preserve" text-anchor="middle" x="80.38" y="-49.12" font-family="Helvetica,sans-Serif" font-size="10.00">&lt; llvm::DbgVariableIntrinsic * &gt; &gt;</text>
</a>
</g>
</g>
<!-- Node1 -->
<g id="Node000001" class="node">
<title>Node1</title>
<g id="a_Node000001"><a xlink:href="classllvm_1_1SmallVectorTemplateCommon.html" target="_top" xlink:title=" ">
<polygon fill="white" stroke="#666666" points="388.25,-79.5 196.75,-79.5 196.75,-49 388.25,-49 388.25,-79.5"/>
<text xml:space="preserve" text-anchor="start" x="204.75" y="-66" font-family="Helvetica,sans-Serif" font-size="10.00">llvm::SmallVectorTemplate</text>
<text xml:space="preserve" text-anchor="middle" x="292.5" y="-54.75" font-family="Helvetica,sans-Serif" font-size="10.00">Common&lt; llvm::DbgVariableIntrinsic * &gt;</text>
</a>
</g>
</g>
<!-- Node0&#45;&gt;Node1 -->
<g id="edge8340_Node000000_Node000001" class="edge">
<title>Node0&#45;&gt;Node1</title>
<g id="a_edge8340_Node000000_Node000001"><a xlink:title=" ">
<path fill="none" stroke="#63b8ff" d="M172.55,-64.25C180.41,-64.25 188.39,-64.25 196.29,-64.25"/>
<polygon fill="#63b8ff" stroke="#63b8ff" points="172.63,-60.75 162.63,-64.25 172.63,-67.75 172.63,-60.75"/>
</a>
</g>
</g>
<!-- Node2 -->
<g id="Node000002" class="node">
<title>Node2</title>
<g id="a_Node000002"><a xlink:href="classllvm_1_1SmallVectorTemplateBase.html" target="_top" xlink:title=" ">
<polygon fill="white" stroke="#666666" points="598.5,-79.5 424.25,-79.5 424.25,-49 598.5,-49 598.5,-79.5"/>
<text xml:space="preserve" text-anchor="start" x="432.25" y="-66" font-family="Helvetica,sans-Serif" font-size="10.00">llvm::SmallVectorTemplate</text>
<text xml:space="preserve" text-anchor="middle" x="511.38" y="-54.75" font-family="Helvetica,sans-Serif" font-size="10.00">Base&lt; llvm::DbgVariableIntrinsic * &gt;</text>
</a>
</g>
</g>
<!-- Node1&#45;&gt;Node2 -->
<g id="edge8341_Node000001_Node000002" class="edge">
<title>Node1&#45;&gt;Node2</title>
<g id="a_edge8341_Node000001_Node000002"><a xlink:title=" ">
<path fill="none" stroke="#63b8ff" d="M399.94,-64.25C407.96,-64.25 415.99,-64.25 423.87,-64.25"/>
<polygon fill="#63b8ff" stroke="#63b8ff" points="400.14,-60.75 390.14,-64.25 400.14,-67.75 400.14,-60.75"/>
</a>
</g>
</g>
<!-- Node3 -->
<g id="Node000003" class="node">
<title>Node3</title>
<g id="a_Node000003"><a xlink:href="classllvm_1_1SmallVectorImpl.html" target="_top" xlink:title=" ">
<polygon fill="white" stroke="#666666" points="793,-79.5 641.25,-79.5 641.25,-49 793,-49 793,-79.5"/>
<text xml:space="preserve" text-anchor="start" x="649.25" y="-66" font-family="Helvetica,sans-Serif" font-size="10.00">llvm::SmallVectorImpl</text>
<text xml:space="preserve" text-anchor="middle" x="717.12" y="-54.75" font-family="Helvetica,sans-Serif" font-size="10.00">&lt; llvm::DbgVariableIntrinsic * &gt;</text>
</a>
</g>
</g>
<!-- Node2&#45;&gt;Node3 -->
<g id="edge8342_Node000002_Node000003" class="edge">
<title>Node2&#45;&gt;Node3</title>
<g id="a_edge8342_Node000002_Node000003"><a xlink:title=" ">
<path fill="none" stroke="#63b8ff" d="M610,-64.25C620.37,-64.25 630.8,-64.25 640.86,-64.25"/>
<polygon fill="#63b8ff" stroke="#63b8ff" points="610.3,-60.75 600.3,-64.25 610.3,-67.75 610.3,-60.75"/>
</a>
</g>
</g>
<!-- Node4 -->
<g id="Node000004" class="node">
<title>Node4</title>
<g id="a_Node000004"><a xlink:href="classllvm_1_1SmallVector.html" target="_top" xlink:title=" ">
<polygon fill="white" stroke="#666666" points="965.75,-60.12 835.75,-60.12 835.75,-18.38 965.75,-18.38 965.75,-60.12"/>
<text xml:space="preserve" text-anchor="start" x="843.75" y="-46.62" font-family="Helvetica,sans-Serif" font-size="10.00">llvm::SmallVector&lt;</text>
<text xml:space="preserve" text-anchor="start" x="843.75" y="-35.38" font-family="Helvetica,sans-Serif" font-size="10.00"> llvm::DbgVariableIntrinsic</text>
<text xml:space="preserve" text-anchor="middle" x="900.75" y="-24.12" font-family="Helvetica,sans-Serif" font-size="10.00"> *, 2 &gt;</text>
</a>
</g>
</g>
<!-- Node3&#45;&gt;Node4 -->
<g id="edge8343_Node000003_Node000004" class="edge">
<title>Node3&#45;&gt;Node4</title>
<g id="a_edge8343_Node000003_Node000004"><a xlink:title=" ">
<path fill="none" stroke="#63b8ff" d="M804.51,-52.36C814.89,-50.93 825.34,-49.49 835.33,-48.12"/>
<polygon fill="#63b8ff" stroke="#63b8ff" points="804.24,-48.86 794.81,-53.69 805.19,-55.8 804.24,-48.86"/>
</a>
</g>
</g>
<!-- Node5 -->
<g id="Node000005" class="node">
<title>Node5</title>
<g id="a_Node000005"><a xlink:href="structllvm_1_1SmallVectorStorage.html" target="_top" xlink:title=" ">
<polygon fill="white" stroke="#666666" points="799.75,-30.5 634.5,-30.5 634.5,0 799.75,0 799.75,-30.5"/>
<text xml:space="preserve" text-anchor="start" x="642.5" y="-17" font-family="Helvetica,sans-Serif" font-size="10.00">llvm::SmallVectorStorage</text>
<text xml:space="preserve" text-anchor="middle" x="717.12" y="-5.75" font-family="Helvetica,sans-Serif" font-size="10.00">&lt; llvm::DbgVariableIntrinsic *, N &gt;</text>
</a>
</g>
</g>
<!-- Node5&#45;&gt;Node4 -->
<g id="edge8344_Node000005_Node000004" class="edge">
<title>Node5&#45;&gt;Node4</title>
<g id="a_edge8344_Node000005_Node000004"><a xlink:title=" ">
<path fill="none" stroke="#8b1a1a" d="M811.31,-27.56C819.48,-28.64 827.63,-29.72 835.49,-30.76"/>
<polygon fill="#8b1a1a" stroke="#8b1a1a" points="812.04,-24.13 801.67,-26.29 811.13,-31.07 812.04,-24.13"/>
</a>
</g>
</g>
</g>
</svg>
