<?xml version="1.0" encoding="UTF-8" standalone="no"?>
<!DOCTYPE svg PUBLIC "-//W3C//DTD SVG 1.1//EN"
 "http://www.w3.org/Graphics/SVG/1.1/DTD/svg11.dtd">
<!-- Generated by graphviz version 13.1.2 (20250808.2320)
 -->
<!-- Title: Graphical Class Hierarchy Pages: 1 -->
<svg width="882pt" height="93pt"
 viewBox="0.00 0.00 882.00 93.00" xmlns="http://www.w3.org/2000/svg" xmlns:xlink="http://www.w3.org/1999/xlink">
<g id="graph0" class="graph" transform="scale(1 1) rotate(0) translate(4 89.12)">
<title>Graphical Class Hierarchy</title>
<!-- Node0 -->
<g id="Node000000" class="node">
<title>Node0</title>
<g id="a_Node000000"><a xlink:href="classllvm_1_1SmallVectorBase.html" target="_top" xlink:title=" ">
<polygon fill="white" stroke="#666666" points="136,-85.12 0,-85.12 0,-43.38 136,-43.38 136,-85.12"/>
<text xml:space="preserve" text-anchor="start" x="8" y="-71.62" font-family="Helvetica,sans-Serif" font-size="10.00">llvm::SmallVectorBase</text>
<text xml:space="preserve" text-anchor="start" x="8" y="-60.38" font-family="Helvetica,sans-Serif" font-size="10.00">&lt; SmallVectorSizeType</text>
<text xml:space="preserve" text-anchor="middle" x="68" y="-49.12" font-family="Helvetica,sans-Serif" font-size="10.00">&lt; llvm::DIEAbbrevData &gt; &gt;</text>
</a>
</g>
</g>
<!-- Node1 -->
<g id="Node000001" class="node">
<title>Node1</title>
<g id="a_Node000001"><a xlink:href="classllvm_1_1SmallVectorTemplateCommon.html" target="_top" xlink:title=" ">
<polygon fill="white" stroke="#666666" points="338.75,-79.5 172,-79.5 172,-49 338.75,-49 338.75,-79.5"/>
<text xml:space="preserve" text-anchor="start" x="180" y="-66" font-family="Helvetica,sans-Serif" font-size="10.00">llvm::SmallVectorTemplate</text>
<text xml:space="preserve" text-anchor="middle" x="255.38" y="-54.75" font-family="Helvetica,sans-Serif" font-size="10.00">Common&lt; llvm::DIEAbbrevData &gt;</text>
</a>
</g>
</g>
<!-- Node0&#45;&gt;Node1 -->
<g id="edge8410_Node000000_Node000001" class="edge">
<title>Node0&#45;&gt;Node1</title>
<g id="a_edge8410_Node000000_Node000001"><a xlink:title=" ">
<path fill="none" stroke="#63b8ff" d="M147.91,-64.25C155.82,-64.25 163.87,-64.25 171.82,-64.25"/>
<polygon fill="#63b8ff" stroke="#63b8ff" points="147.96,-60.75 137.96,-64.25 147.96,-67.75 147.96,-60.75"/>
</a>
</g>
</g>
<!-- Node2 -->
<g id="Node000002" class="node">
<title>Node2</title>
<g id="a_Node000002"><a xlink:href="classllvm_1_1SmallVectorTemplateBase.html" target="_top" xlink:title=" ">
<polygon fill="white" stroke="#666666" points="524.25,-79.5 374.75,-79.5 374.75,-49 524.25,-49 524.25,-79.5"/>
<text xml:space="preserve" text-anchor="start" x="382.75" y="-66" font-family="Helvetica,sans-Serif" font-size="10.00">llvm::SmallVectorTemplate</text>
<text xml:space="preserve" text-anchor="middle" x="449.5" y="-54.75" font-family="Helvetica,sans-Serif" font-size="10.00">Base&lt; llvm::DIEAbbrevData &gt;</text>
</a>
</g>
</g>
<!-- Node1&#45;&gt;Node2 -->
<g id="edge8411_Node000001_Node000002" class="edge">
<title>Node1&#45;&gt;Node2</title>
<g id="a_edge8411_Node000001_Node000002"><a xlink:title=" ">
<path fill="none" stroke="#63b8ff" d="M350.53,-64.25C358.53,-64.25 366.56,-64.25 374.37,-64.25"/>
<polygon fill="#63b8ff" stroke="#63b8ff" points="350.76,-60.75 340.76,-64.25 350.76,-67.75 350.76,-60.75"/>
</a>
</g>
</g>
<!-- Node3 -->
<g id="Node000003" class="node">
<title>Node3</title>
<g id="a_Node000003"><a xlink:href="classllvm_1_1SmallVectorImpl.html" target="_top" xlink:title=" ">
<polygon fill="white" stroke="#666666" points="694,-79.5 567,-79.5 567,-49 694,-49 694,-79.5"/>
<text xml:space="preserve" text-anchor="start" x="575" y="-66" font-family="Helvetica,sans-Serif" font-size="10.00">llvm::SmallVectorImpl</text>
<text xml:space="preserve" text-anchor="middle" x="630.5" y="-54.75" font-family="Helvetica,sans-Serif" font-size="10.00">&lt; llvm::DIEAbbrevData &gt;</text>
</a>
</g>
</g>
<!-- Node2&#45;&gt;Node3 -->
<g id="edge8412_Node000002_Node000003" class="edge">
<title>Node2&#45;&gt;Node3</title>
<g id="a_edge8412_Node000002_Node000003"><a xlink:title=" ">
<path fill="none" stroke="#63b8ff" d="M535.79,-64.25C546.16,-64.25 556.61,-64.25 566.57,-64.25"/>
<polygon fill="#63b8ff" stroke="#63b8ff" points="536.11,-60.75 526.11,-64.25 536.11,-67.75 536.11,-60.75"/>
</a>
</g>
</g>
<!-- Node4 -->
<g id="Node000004" class="node">
<title>Node4</title>
<g id="a_Node000004"><a xlink:href="classllvm_1_1SmallVector.html" target="_top" xlink:title=" ">
<polygon fill="white" stroke="#666666" points="874.25,-54.5 736.75,-54.5 736.75,-24 874.25,-24 874.25,-54.5"/>
<text xml:space="preserve" text-anchor="start" x="744.75" y="-41" font-family="Helvetica,sans-Serif" font-size="10.00">llvm::SmallVector&lt;</text>
<text xml:space="preserve" text-anchor="middle" x="805.5" y="-29.75" font-family="Helvetica,sans-Serif" font-size="10.00"> llvm::DIEAbbrevData, 12 &gt;</text>
</a>
</g>
</g>
<!-- Node3&#45;&gt;Node4 -->
<g id="edge8413_Node000003_Node000004" class="edge">
<title>Node3&#45;&gt;Node4</title>
<g id="a_edge8413_Node000003_Node000004"><a xlink:title=" ">
<path fill="none" stroke="#63b8ff" d="M705.78,-53.52C715.93,-52.05 726.31,-50.55 736.35,-49.1"/>
<polygon fill="#63b8ff" stroke="#63b8ff" points="705.34,-50.04 695.94,-54.94 706.34,-56.97 705.34,-50.04"/>
</a>
</g>
</g>
<!-- Node5 -->
<g id="Node000005" class="node">
<title>Node5</title>
<g id="a_Node000005"><a xlink:href="structllvm_1_1SmallVectorStorage.html" target="_top" xlink:title=" ">
<polygon fill="white" stroke="#666666" points="700.75,-30.5 560.25,-30.5 560.25,0 700.75,0 700.75,-30.5"/>
<text xml:space="preserve" text-anchor="start" x="568.25" y="-17" font-family="Helvetica,sans-Serif" font-size="10.00">llvm::SmallVectorStorage</text>
<text xml:space="preserve" text-anchor="middle" x="630.5" y="-5.75" font-family="Helvetica,sans-Serif" font-size="10.00">&lt; llvm::DIEAbbrevData, N &gt;</text>
</a>
</g>
</g>
<!-- Node5&#45;&gt;Node4 -->
<g id="edge8414_Node000005_Node000004" class="edge">
<title>Node5&#45;&gt;Node4</title>
<g id="a_edge8414_Node000005_Node000004"><a xlink:title=" ">
<path fill="none" stroke="#8b1a1a" d="M712.27,-26.45C720.38,-27.58 728.56,-28.72 736.52,-29.82"/>
<polygon fill="#8b1a1a" stroke="#8b1a1a" points="712.75,-22.99 702.37,-25.08 711.79,-29.92 712.75,-22.99"/>
</a>
</g>
</g>
</g>
</svg>
