<?xml version="1.0" encoding="UTF-8" standalone="no"?>
<!DOCTYPE svg PUBLIC "-//W3C//DTD SVG 1.1//EN"
 "http://www.w3.org/Graphics/SVG/1.1/DTD/svg11.dtd">
<!-- Generated by graphviz version 13.1.2 (20250808.2320)
 -->
<!-- Title: Graphical Class Hierarchy Pages: 1 -->
<svg width="528pt" height="39pt"
 viewBox="0.00 0.00 528.00 39.00" xmlns="http://www.w3.org/2000/svg" xmlns:xlink="http://www.w3.org/1999/xlink">
<g id="graph0" class="graph" transform="scale(1 1) rotate(0) translate(4 34.5)">
<title>Graphical Class Hierarchy</title>
<!-- Node0 -->
<g id="Node000000" class="node">
<title>Node0</title>
<g id="a_Node000000"><a xlink:href="structllvm_1_1PassInfoMixin.html" target="_top" xlink:title=" ">
<polygon fill="white" stroke="#666666" points="147.25,-30.5 0,-30.5 0,0 147.25,0 147.25,-30.5"/>
<text xml:space="preserve" text-anchor="start" x="8" y="-17" font-family="Helvetica,sans-Serif" font-size="10.00">llvm::PassInfoMixin</text>
<text xml:space="preserve" text-anchor="middle" x="73.62" y="-5.75" font-family="Helvetica,sans-Serif" font-size="10.00">&lt; EphemeralValuesAnalysis &gt;</text>
</a>
</g>
</g>
<!-- Node1 -->
<g id="Node000001" class="node">
<title>Node1</title>
<g id="a_Node000001"><a xlink:href="structllvm_1_1AnalysisInfoMixin.html" target="_top" xlink:title=" ">
<polygon fill="white" stroke="#666666" points="330.5,-30.5 183.25,-30.5 183.25,0 330.5,0 330.5,-30.5"/>
<text xml:space="preserve" text-anchor="start" x="191.25" y="-17" font-family="Helvetica,sans-Serif" font-size="10.00">llvm::AnalysisInfoMixin</text>
<text xml:space="preserve" text-anchor="middle" x="256.88" y="-5.75" font-family="Helvetica,sans-Serif" font-size="10.00">&lt; EphemeralValuesAnalysis &gt;</text>
</a>
</g>
</g>
<!-- Node0&#45;&gt;Node1 -->
<g id="edge5409_Node000000_Node000001" class="edge">
<title>Node0&#45;&gt;Node1</title>
<g id="a_edge5409_Node000000_Node000001"><a xlink:title=" ">
<path fill="none" stroke="#63b8ff" d="M158.81,-15.25C166.82,-15.25 174.9,-15.25 182.79,-15.25"/>
<polygon fill="#63b8ff" stroke="#63b8ff" points="159.08,-11.75 149.08,-15.25 159.08,-18.75 159.08,-11.75"/>
</a>
</g>
</g>
<!-- Node2 -->
<g id="Node000002" class="node">
<title>Node2</title>
<g id="a_Node000002"><a xlink:href="classllvm_1_1EphemeralValuesAnalysis.html" target="_top" xlink:title=" ">
<polygon fill="white" stroke="#666666" points="519.75,-24.88 366.5,-24.88 366.5,-5.63 519.75,-5.63 519.75,-24.88"/>
<text xml:space="preserve" text-anchor="middle" x="443.12" y="-11.38" font-family="Helvetica,sans-Serif" font-size="10.00">llvm::EphemeralValuesAnalysis</text>
</a>
</g>
</g>
<!-- Node1&#45;&gt;Node2 -->
<g id="edge5410_Node000001_Node000002" class="edge">
<title>Node1&#45;&gt;Node2</title>
<g id="a_edge5410_Node000001_Node000002"><a xlink:title=" ">
<path fill="none" stroke="#63b8ff" d="M342.44,-15.25C350.33,-15.25 358.3,-15.25 366.11,-15.25"/>
<polygon fill="#63b8ff" stroke="#63b8ff" points="342.47,-11.75 332.47,-15.25 342.47,-18.75 342.47,-11.75"/>
</a>
</g>
</g>
</g>
</svg>
