<?xml version="1.0" encoding="UTF-8" standalone="no"?>
<!DOCTYPE svg PUBLIC "-//W3C//DTD SVG 1.1//EN"
 "http://www.w3.org/Graphics/SVG/1.1/DTD/svg11.dtd">
<!-- Generated by graphviz version 13.1.2 (20250808.2320)
 -->
<!-- Title: Graphical Class Hierarchy Pages: 1 -->
<svg width="913pt" height="132pt"
 viewBox="0.00 0.00 913.00 132.00" xmlns="http://www.w3.org/2000/svg" xmlns:xlink="http://www.w3.org/1999/xlink">
<g id="graph0" class="graph" transform="scale(1 1) rotate(0) translate(4 128)">
<title>Graphical Class Hierarchy</title>
<!-- Node0 -->
<g id="Node000000" class="node">
<title>Node0</title>
<g id="a_Node000000"><a xlink:href="classllvm_1_1SmallVectorBase.html" target="_top" xlink:title=" ">
<polygon fill="white" stroke="#666666" points="185.5,-124 0,-124 0,-82.25 185.5,-82.25 185.5,-124"/>
<text xml:space="preserve" text-anchor="start" x="8" y="-110.5" font-family="Helvetica,sans-Serif" font-size="10.00">llvm::SmallVectorBase</text>
<text xml:space="preserve" text-anchor="start" x="8" y="-99.25" font-family="Helvetica,sans-Serif" font-size="10.00">&lt; SmallVectorSizeType</text>
<text xml:space="preserve" text-anchor="middle" x="92.75" y="-88" font-family="Helvetica,sans-Serif" font-size="10.00">&lt; std::unique_ptr&lt; FunctionPass &gt; &gt; &gt;</text>
</a>
</g>
</g>
<!-- Node1 -->
<g id="Node000001" class="node">
<title>Node1</title>
<g id="a_Node000001"><a xlink:href="classllvm_1_1SmallVectorTemplateCommon.html" target="_top" xlink:title=" ">
<polygon fill="white" stroke="#666666" points="354.5,-124 221.5,-124 221.5,-82.25 354.5,-82.25 354.5,-124"/>
<text xml:space="preserve" text-anchor="start" x="229.5" y="-110.5" font-family="Helvetica,sans-Serif" font-size="10.00">llvm::SmallVectorTemplate</text>
<text xml:space="preserve" text-anchor="start" x="229.5" y="-99.25" font-family="Helvetica,sans-Serif" font-size="10.00">Common&lt; std::unique_ptr</text>
<text xml:space="preserve" text-anchor="middle" x="288" y="-88" font-family="Helvetica,sans-Serif" font-size="10.00">&lt; FunctionPass &gt; &gt;</text>
</a>
</g>
</g>
<!-- Node0&#45;&gt;Node1 -->
<g id="edge10013_Node000000_Node000001" class="edge">
<title>Node0&#45;&gt;Node1</title>
<g id="a_edge10013_Node000000_Node000001"><a xlink:title=" ">
<path fill="none" stroke="#63b8ff" d="M197.34,-103.12C205.46,-103.12 213.51,-103.12 221.26,-103.12"/>
<polygon fill="#63b8ff" stroke="#63b8ff" points="197.36,-99.63 187.36,-103.13 197.36,-106.63 197.36,-99.63"/>
</a>
</g>
</g>
<!-- Node2 -->
<g id="Node000002" class="node">
<title>Node2</title>
<g id="a_Node000002"><a xlink:href="classllvm_1_1SmallVectorTemplateBase.html" target="_top" xlink:title=" ">
<polygon fill="white" stroke="#666666" points="523.5,-124 390.5,-124 390.5,-82.25 523.5,-82.25 523.5,-124"/>
<text xml:space="preserve" text-anchor="start" x="398.5" y="-110.5" font-family="Helvetica,sans-Serif" font-size="10.00">llvm::SmallVectorTemplate</text>
<text xml:space="preserve" text-anchor="start" x="398.5" y="-99.25" font-family="Helvetica,sans-Serif" font-size="10.00">Base&lt; std::unique_ptr&lt;</text>
<text xml:space="preserve" text-anchor="middle" x="457" y="-88" font-family="Helvetica,sans-Serif" font-size="10.00"> FunctionPass &gt; &gt;</text>
</a>
</g>
</g>
<!-- Node1&#45;&gt;Node2 -->
<g id="edge10014_Node000001_Node000002" class="edge">
<title>Node1&#45;&gt;Node2</title>
<g id="a_edge10014_Node000001_Node000002"><a xlink:title=" ">
<path fill="none" stroke="#63b8ff" d="M365.88,-103.12C373.98,-103.12 382.16,-103.12 390.12,-103.12"/>
<polygon fill="#63b8ff" stroke="#63b8ff" points="366.04,-99.63 356.04,-103.13 366.04,-106.63 366.04,-99.63"/>
</a>
</g>
</g>
<!-- Node3 -->
<g id="Node000003" class="node">
<title>Node3</title>
<g id="a_Node000003"><a xlink:href="classllvm_1_1SmallVectorImpl.html" target="_top" xlink:title=" ">
<polygon fill="white" stroke="#666666" points="717.25,-124 581.25,-124 581.25,-82.25 717.25,-82.25 717.25,-124"/>
<text xml:space="preserve" text-anchor="start" x="589.25" y="-110.5" font-family="Helvetica,sans-Serif" font-size="10.00">llvm::SmallVectorImpl</text>
<text xml:space="preserve" text-anchor="start" x="589.25" y="-99.25" font-family="Helvetica,sans-Serif" font-size="10.00">&lt; std::unique_ptr&lt; Function</text>
<text xml:space="preserve" text-anchor="middle" x="649.25" y="-88" font-family="Helvetica,sans-Serif" font-size="10.00">Pass &gt; &gt;</text>
</a>
</g>
</g>
<!-- Node2&#45;&gt;Node3 -->
<g id="edge10015_Node000002_Node000003" class="edge">
<title>Node2&#45;&gt;Node3</title>
<g id="a_edge10015_Node000002_Node000003"><a xlink:title=" ">
<path fill="none" stroke="#63b8ff" d="M535.17,-103.12C550.32,-103.12 566.1,-103.12 580.89,-103.12"/>
<polygon fill="#63b8ff" stroke="#63b8ff" points="535.25,-99.63 525.25,-103.13 535.25,-106.63 535.25,-99.63"/>
</a>
</g>
</g>
<!-- Node4 -->
<g id="Node000004" class="node">
<title>Node4</title>
<g id="a_Node000004"><a xlink:href="classllvm_1_1SmallVector.html" target="_top" xlink:title=" ">
<polygon fill="white" stroke="#666666" points="905,-88 775,-88 775,-46.25 905,-46.25 905,-88"/>
<text xml:space="preserve" text-anchor="start" x="783" y="-74.5" font-family="Helvetica,sans-Serif" font-size="10.00">llvm::SmallVector&lt;</text>
<text xml:space="preserve" text-anchor="start" x="783" y="-63.25" font-family="Helvetica,sans-Serif" font-size="10.00"> std::unique_ptr&lt; Function</text>
<text xml:space="preserve" text-anchor="middle" x="840" y="-52" font-family="Helvetica,sans-Serif" font-size="10.00">Pass &gt; &gt;</text>
</a>
</g>
</g>
<!-- Node3&#45;&gt;Node4 -->
<g id="edge10016_Node000003_Node000004" class="edge">
<title>Node3&#45;&gt;Node4</title>
<g id="a_edge10016_Node000003_Node000004"><a xlink:title=" ">
<path fill="none" stroke="#63b8ff" d="M728.6,-88.18C743.89,-85.27 759.75,-82.24 774.53,-79.42"/>
<polygon fill="#63b8ff" stroke="#63b8ff" points="728.25,-84.69 719.08,-90 729.56,-91.56 728.25,-84.69"/>
</a>
</g>
</g>
<!-- Node5 -->
<g id="Node000005" class="node">
<title>Node5</title>
<g id="a_Node000005"><a xlink:title=" ">
<polygon fill="#e0e0e0" stroke="#999999" points="739,-64.25 559.5,-64.25 559.5,0 739,0 739,-64.25"/>
<text xml:space="preserve" text-anchor="start" x="567.5" y="-50.75" font-family="Helvetica,sans-Serif" font-size="10.00">SmallVectorStorage</text>
<text xml:space="preserve" text-anchor="start" x="567.5" y="-39.5" font-family="Helvetica,sans-Serif" font-size="10.00">&lt; std::unique_ptr&lt; Function</text>
<text xml:space="preserve" text-anchor="start" x="567.5" y="-28.25" font-family="Helvetica,sans-Serif" font-size="10.00">Pass &gt;, CalculateSmallVectorDefault</text>
<text xml:space="preserve" text-anchor="start" x="567.5" y="-17" font-family="Helvetica,sans-Serif" font-size="10.00">InlinedElements&lt; std::unique_ptr</text>
<text xml:space="preserve" text-anchor="middle" x="649.25" y="-5.75" font-family="Helvetica,sans-Serif" font-size="10.00">&lt; FunctionPass &gt; &gt;::value &gt;</text>
</a>
</g>
</g>
<!-- Node5&#45;&gt;Node4 -->
<g id="edge10017_Node000005_Node000004" class="edge">
<title>Node5&#45;&gt;Node4</title>
<g id="a_edge10017_Node000005_Node000004"><a xlink:title=" ">
<path fill="none" stroke="#8b1a1a" d="M750.57,-50.73C758.77,-52.25 766.91,-53.76 774.74,-55.21"/>
<polygon fill="#8b1a1a" stroke="#8b1a1a" points="751.33,-47.31 740.86,-48.93 750.06,-54.19 751.33,-47.31"/>
</a>
</g>
</g>
</g>
</svg>
