<?xml version="1.0" encoding="UTF-8" standalone="no"?>
<!DOCTYPE svg PUBLIC "-//W3C//DTD SVG 1.1//EN"
 "http://www.w3.org/Graphics/SVG/1.1/DTD/svg11.dtd">
<!-- Generated by graphviz version 13.1.2 (20250808.2320)
 -->
<!-- Title: llvm::WasmYAML::ProducersSection Pages: 1 -->
<svg width="175pt" height="149pt"
 viewBox="0.00 0.00 175.00 149.00" xmlns="http://www.w3.org/2000/svg" xmlns:xlink="http://www.w3.org/1999/xlink">
<g id="graph0" class="graph" transform="scale(1 1) rotate(0) translate(4 145)">
<title>llvm::WasmYAML::ProducersSection</title>
<!-- Node1 -->
<g id="Node000001" class="node">
<title>Node1</title>
<g id="a_Node000001"><a xlink:title=" ">
<polygon fill="#999999" stroke="#666666" points="155.12,-30.5 11.62,-30.5 11.62,0 155.12,0 155.12,-30.5"/>
<text xml:space="preserve" text-anchor="start" x="19.62" y="-17" font-family="Helvetica,sans-Serif" font-size="10.00">llvm::WasmYAML::Producers</text>
<text xml:space="preserve" text-anchor="middle" x="83.38" y="-5.75" font-family="Helvetica,sans-Serif" font-size="10.00">Section</text>
</a>
</g>
</g>
<!-- Node2 -->
<g id="Node000002" class="node">
<title>Node2</title>
<g id="a_Node000002"><a xlink:href="structllvm_1_1WasmYAML_1_1CustomSection.html" target="_top" xlink:title=" ">
<polygon fill="white" stroke="#666666" points="166.75,-85.75 0,-85.75 0,-66.5 166.75,-66.5 166.75,-85.75"/>
<text xml:space="preserve" text-anchor="middle" x="83.38" y="-72.25" font-family="Helvetica,sans-Serif" font-size="10.00">llvm::WasmYAML::CustomSection</text>
</a>
</g>
</g>
<!-- Node2&#45;&gt;Node1 -->
<g id="edge1_Node000001_Node000002" class="edge">
<title>Node2&#45;&gt;Node1</title>
<g id="a_edge1_Node000001_Node000002"><a xlink:title=" ">
<path fill="none" stroke="#63b8ff" d="M83.38,-54.92C83.38,-46.99 83.38,-38.06 83.38,-30.78"/>
<polygon fill="#63b8ff" stroke="#63b8ff" points="79.88,-54.67 83.38,-64.67 86.88,-54.67 79.88,-54.67"/>
</a>
</g>
</g>
<!-- Node3 -->
<g id="Node000003" class="node">
<title>Node3</title>
<g id="a_Node000003"><a xlink:href="structllvm_1_1WasmYAML_1_1Section.html" target="_top" xlink:title=" ">
<polygon fill="white" stroke="#666666" points="149.5,-141 17.25,-141 17.25,-121.75 149.5,-121.75 149.5,-141"/>
<text xml:space="preserve" text-anchor="middle" x="83.38" y="-127.5" font-family="Helvetica,sans-Serif" font-size="10.00">llvm::WasmYAML::Section</text>
</a>
</g>
</g>
<!-- Node3&#45;&gt;Node2 -->
<g id="edge2_Node000002_Node000003" class="edge">
<title>Node3&#45;&gt;Node2</title>
<g id="a_edge2_Node000002_Node000003"><a xlink:title=" ">
<path fill="none" stroke="#63b8ff" d="M83.38,-110.13C83.38,-101.84 83.38,-92.67 83.38,-86.11"/>
<polygon fill="#63b8ff" stroke="#63b8ff" points="79.88,-110.07 83.38,-120.07 86.88,-110.07 79.88,-110.07"/>
</a>
</g>
</g>
</g>
</svg>
