<?xml version="1.0" encoding="UTF-8" standalone="no"?>
<!DOCTYPE svg PUBLIC "-//W3C//DTD SVG 1.1//EN"
 "http://www.w3.org/Graphics/SVG/1.1/DTD/svg11.dtd">
<!-- Generated by graphviz version 13.1.2 (20250808.2320)
 -->
<!-- Title: llvm::ilist_detail::check_options&lt;&gt; Pages: 1 -->
<svg width="238pt" height="122pt"
 viewBox="0.00 0.00 238.00 122.00" xmlns="http://www.w3.org/2000/svg" xmlns:xlink="http://www.w3.org/1999/xlink">
<g id="graph0" class="graph" transform="scale(1 1) rotate(0) translate(4 118.25)">
<title>llvm::ilist_detail::check_options&lt;&gt;</title>
<!-- Node1 -->
<g id="Node000001" class="node">
<title>Node1</title>
<g id="a_Node000001"><a xlink:title=" ">
<polygon fill="#999999" stroke="#666666" points="148.5,-30.5 51.5,-30.5 51.5,0 148.5,0 148.5,-30.5"/>
<text xml:space="preserve" text-anchor="start" x="59.5" y="-17" font-family="Helvetica,sans-Serif" font-size="10.00">llvm::ilist_detail</text>
<text xml:space="preserve" text-anchor="middle" x="100" y="-5.75" font-family="Helvetica,sans-Serif" font-size="10.00">::check_options&lt;&gt;</text>
</a>
</g>
</g>
<!-- Node2 -->
<g id="Node000002" class="node">
<title>Node2</title>
<g id="a_Node000002"><a xlink:title=" ">
<polygon fill="white" stroke="#666666" points="76,-108.62 0,-108.62 0,-89.38 76,-89.38 76,-108.62"/>
<text xml:space="preserve" text-anchor="middle" x="38" y="-95.12" font-family="Helvetica,sans-Serif" font-size="10.00">std::true_type</text>
</a>
</g>
</g>
<!-- Node2&#45;&gt;Node1 -->
<g id="edge1_Node000001_Node000002" class="edge">
<title>Node2&#45;&gt;Node1</title>
<g id="a_edge1_Node000001_Node000002"><a xlink:title=" ">
<path fill="none" stroke="#63b8ff" d="M51.8,-79.81C62.98,-65.06 78.54,-44.55 88.92,-30.86"/>
<polygon fill="#63b8ff" stroke="#63b8ff" points="49.04,-77.65 45.79,-87.73 54.62,-81.88 49.04,-77.65"/>
</a>
</g>
</g>
<!-- Node3 -->
<g id="Node000003" class="node">
<title>Node3</title>
<g id="a_Node000003"><a xlink:href="structllvm_1_1ilist__detail_1_1check__options.html" target="_top" xlink:title="Check whether options are valid.">
<polygon fill="white" stroke="#666666" points="230.38,-114.25 93.62,-114.25 93.62,-83.75 230.38,-83.75 230.38,-114.25"/>
<text xml:space="preserve" text-anchor="start" x="101.62" y="-100.75" font-family="Helvetica,sans-Serif" font-size="10.00">llvm::ilist_detail</text>
<text xml:space="preserve" text-anchor="middle" x="162" y="-89.5" font-family="Helvetica,sans-Serif" font-size="10.00">::check_options&lt; Options &gt;</text>
</a>
</g>
</g>
<!-- Node3&#45;&gt;Node1 -->
<g id="edge2_Node000001_Node000003" class="edge">
<title>Node3&#45;&gt;Node1</title>
<g id="a_edge2_Node000001_Node000003"><a xlink:title=" ">
<path fill="none" stroke="orange" stroke-dasharray="5,2" d="M144,-74.27C133.32,-60.19 120.13,-42.79 110.99,-30.74"/>
<polygon fill="orange" stroke="orange" points="141.17,-76.33 150,-82.18 146.75,-72.1 141.17,-76.33"/>
</a>
</g>
<text xml:space="preserve" text-anchor="start" x="139.55" y="-53.25" font-family="Helvetica,sans-Serif" font-size="10.00" fill="grey">&lt;&gt;</text>
</g>
</g>
</svg>
