<?xml version="1.0" encoding="UTF-8" standalone="no"?>
<!DOCTYPE svg PUBLIC "-//W3C//DTD SVG 1.1//EN"
 "http://www.w3.org/Graphics/SVG/1.1/DTD/svg11.dtd">
<!-- Generated by graphviz version 13.1.2 (20250808.2320)
 -->
<!-- Title: llvm::IRSimilarity::IRInstructionData Pages: 1 -->
<svg width="2247pt" height="544pt"
 viewBox="0.00 0.00 2247.00 544.00" xmlns="http://www.w3.org/2000/svg" xmlns:xlink="http://www.w3.org/1999/xlink">
<g id="graph0" class="graph" transform="scale(1 1) rotate(0) translate(4 539.67)">
<title>llvm::IRSimilarity::IRInstructionData</title>
<!-- Node1 -->
<g id="Node000001" class="node">
<title>Node1</title>
<g id="a_Node000001"><a xlink:title="This provides the utilities for hashing an Instruction to an unsigned integer.">
<polygon fill="#999999" stroke="#666666" points="2238.5,-185.17 2139.25,-185.17 2139.25,-154.67 2238.5,-154.67 2238.5,-185.17"/>
<text xml:space="preserve" text-anchor="start" x="2147.25" y="-171.67" font-family="Helvetica,sans-Serif" font-size="10.00">llvm::IRSimilarity</text>
<text xml:space="preserve" text-anchor="middle" x="2188.88" y="-160.42" font-family="Helvetica,sans-Serif" font-size="10.00">::IRInstructionData</text>
</a>
</g>
</g>
<!-- Node2 -->
<g id="Node000002" class="node">
<title>Node2</title>
<g id="a_Node000002"><a xlink:href="classllvm_1_1ilist__node.html" target="_top" xlink:title=" ">
<polygon fill="white" stroke="#666666" points="2102.25,-190.8 1955.75,-190.8 1955.75,-149.05 2102.25,-149.05 2102.25,-190.8"/>
<text xml:space="preserve" text-anchor="start" x="1963.75" y="-177.3" font-family="Helvetica,sans-Serif" font-size="10.00">llvm::ilist_node&lt; IRInstruction</text>
<text xml:space="preserve" text-anchor="start" x="1963.75" y="-166.05" font-family="Helvetica,sans-Serif" font-size="10.00">Data, ilist_sentinel_tracking</text>
<text xml:space="preserve" text-anchor="middle" x="2029" y="-154.8" font-family="Helvetica,sans-Serif" font-size="10.00">&lt; true &gt; &gt;</text>
</a>
</g>
</g>
<!-- Node2&#45;&gt;Node1 -->
<g id="edge1_Node000001_Node000002" class="edge">
<title>Node2&#45;&gt;Node1</title>
<g id="a_edge1_Node000001_Node000002"><a xlink:title=" ">
<path fill="none" stroke="#63b8ff" d="M2113.76,-169.92C2122.33,-169.92 2130.84,-169.92 2138.86,-169.92"/>
<polygon fill="#63b8ff" stroke="#63b8ff" points="2113.98,-166.42 2103.98,-169.92 2113.98,-173.42 2113.98,-166.42"/>
</a>
</g>
</g>
<!-- Node3 -->
<g id="Node000003" class="node">
<title>Node3</title>
<g id="a_Node000003"><a xlink:href="classllvm_1_1ilist__node__impl.html" target="_top" xlink:title=" ">
<polygon fill="white" stroke="#666666" points="1676.25,-166.42 1508,-166.42 1508,-113.42 1676.25,-113.42 1676.25,-166.42"/>
<text xml:space="preserve" text-anchor="start" x="1516" y="-152.92" font-family="Helvetica,sans-Serif" font-size="10.00">llvm::ilist_node_impl</text>
<text xml:space="preserve" text-anchor="start" x="1516" y="-141.67" font-family="Helvetica,sans-Serif" font-size="10.00">&lt; ilist_detail::compute</text>
<text xml:space="preserve" text-anchor="start" x="1516" y="-130.42" font-family="Helvetica,sans-Serif" font-size="10.00">_node_options&lt; IRInstructionData,</text>
<text xml:space="preserve" text-anchor="middle" x="1592.12" y="-119.17" font-family="Helvetica,sans-Serif" font-size="10.00"> Options... &gt;::type &gt;</text>
</a>
</g>
</g>
<!-- Node3&#45;&gt;Node2 -->
<g id="edge2_Node000002_Node000003" class="edge">
<title>Node3&#45;&gt;Node2</title>
<g id="a_edge2_Node000002_Node000003"><a xlink:title=" ">
<path fill="none" stroke="#63b8ff" d="M1687.84,-146.46C1768.31,-152.01 1882.13,-159.86 1955.51,-164.92"/>
<polygon fill="#63b8ff" stroke="#63b8ff" points="1688.44,-142.99 1678.23,-145.79 1687.96,-149.97 1688.44,-142.99"/>
</a>
</g>
</g>
<!-- Node4 -->
<g id="Node000004" class="node">
<title>Node4</title>
<g id="a_Node000004"><a xlink:href="classllvm_1_1ilist__node__base.html" target="_top" xlink:title=" ">
<polygon fill="white" stroke="#666666" points="1331.75,-223.42 1187.5,-223.42 1187.5,-170.42 1331.75,-170.42 1331.75,-223.42"/>
<text xml:space="preserve" text-anchor="start" x="1195.5" y="-209.92" font-family="Helvetica,sans-Serif" font-size="10.00">ilist_detail::compute</text>
<text xml:space="preserve" text-anchor="start" x="1195.5" y="-198.67" font-family="Helvetica,sans-Serif" font-size="10.00">_node_options&lt; IRInstruction</text>
<text xml:space="preserve" text-anchor="start" x="1195.5" y="-187.42" font-family="Helvetica,sans-Serif" font-size="10.00">Data, Options... &gt;::type</text>
<text xml:space="preserve" text-anchor="middle" x="1259.62" y="-176.17" font-family="Helvetica,sans-Serif" font-size="10.00">::node_base_type</text>
</a>
</g>
</g>
<!-- Node4&#45;&gt;Node3 -->
<g id="edge3_Node000003_Node000004" class="edge">
<title>Node4&#45;&gt;Node3</title>
<g id="a_edge3_Node000003_Node000004"><a xlink:title=" ">
<path fill="none" stroke="#8b1a1a" d="M1343.12,-226.75C1389.73,-238.18 1447.07,-242.68 1490,-214.92 1506.37,-204.34 1494.05,-188.54 1508,-174.92 1511.03,-171.97 1514.34,-169.25 1517.84,-166.75"/>
<polygon fill="#8b1a1a" stroke="#8b1a1a" points="1344.16,-223.4 1333.6,-224.26 1342.39,-230.17 1344.16,-223.4"/>
</a>
</g>
</g>
<!-- Node5 -->
<g id="Node000005" class="node">
<title>Node5</title>
<g id="a_Node000005"><a xlink:href="classllvm_1_1ilist__detail_1_1node__base__prevnext.html" target="_top" xlink:title=" ">
<polygon fill="white" stroke="#666666" points="983.25,-280.8 794.75,-280.8 794.75,-239.05 983.25,-239.05 983.25,-280.8"/>
<text xml:space="preserve" text-anchor="start" x="802.75" y="-267.3" font-family="Helvetica,sans-Serif" font-size="10.00">llvm::ilist_detail</text>
<text xml:space="preserve" text-anchor="start" x="802.75" y="-256.05" font-family="Helvetica,sans-Serif" font-size="10.00">::node_base_prevnext</text>
<text xml:space="preserve" text-anchor="middle" x="889" y="-244.8" font-family="Helvetica,sans-Serif" font-size="10.00">&lt; NodeBase, EnableSentinelTracking &gt;</text>
</a>
</g>
</g>
<!-- Node5&#45;&gt;Node4 -->
<g id="edge4_Node000004_Node000005" class="edge">
<title>Node5&#45;&gt;Node4</title>
<g id="a_edge4_Node000004_Node000005"><a xlink:title=" ">
<path fill="none" stroke="#63b8ff" d="M994.8,-242.01C1056.3,-231.5 1132.4,-218.49 1187.04,-209.15"/>
<polygon fill="#63b8ff" stroke="#63b8ff" points="994.26,-238.55 984.99,-243.69 995.43,-245.45 994.26,-238.55"/>
</a>
</g>
</g>
<!-- Node18 -->
<g id="Node000018" class="node">
<title>Node18</title>
<g id="a_Node000018"><a xlink:href="classllvm_1_1ilist__node__base.html" target="_top" xlink:title=" ">
<polygon fill="white" stroke="#666666" points="1330.25,-282.8 1189,-282.8 1189,-241.05 1330.25,-241.05 1330.25,-282.8"/>
<text xml:space="preserve" text-anchor="start" x="1197" y="-269.3" font-family="Helvetica,sans-Serif" font-size="10.00">ilist_detail::compute</text>
<text xml:space="preserve" text-anchor="start" x="1197" y="-258.05" font-family="Helvetica,sans-Serif" font-size="10.00">_node_options&lt; T, Options...</text>
<text xml:space="preserve" text-anchor="middle" x="1259.62" y="-246.8" font-family="Helvetica,sans-Serif" font-size="10.00"> &gt;::type::node_base_type</text>
</a>
</g>
</g>
<!-- Node5&#45;&gt;Node18 -->
<g id="edge19_Node000018_Node000005" class="edge">
<title>Node5&#45;&gt;Node18</title>
<g id="a_edge19_Node000018_Node000005"><a xlink:title=" ">
<path fill="none" stroke="#63b8ff" d="M994.9,-260.49C1056.93,-260.83 1133.79,-261.24 1188.51,-261.54"/>
<polygon fill="#63b8ff" stroke="#63b8ff" points="995.03,-256.99 985.01,-260.44 994.99,-263.99 995.03,-256.99"/>
</a>
</g>
</g>
<!-- Node6 -->
<g id="Node000006" class="node">
<title>Node6</title>
<g id="a_Node000006"><a xlink:href="classllvm_1_1ilist__detail_1_1node__base__parent.html" target="_top" xlink:title=" ">
<polygon fill="white" stroke="#666666" points="942.75,-220.8 835.25,-220.8 835.25,-179.05 942.75,-179.05 942.75,-220.8"/>
<text xml:space="preserve" text-anchor="start" x="843.25" y="-207.3" font-family="Helvetica,sans-Serif" font-size="10.00">llvm::ilist_detail</text>
<text xml:space="preserve" text-anchor="start" x="843.25" y="-196.05" font-family="Helvetica,sans-Serif" font-size="10.00">::node_base_parent&lt;</text>
<text xml:space="preserve" text-anchor="middle" x="889" y="-184.8" font-family="Helvetica,sans-Serif" font-size="10.00"> ParentTy &gt;</text>
</a>
</g>
</g>
<!-- Node6&#45;&gt;Node4 -->
<g id="edge5_Node000004_Node000006" class="edge">
<title>Node6&#45;&gt;Node4</title>
<g id="a_edge5_Node000004_Node000006"><a xlink:title=" ">
<path fill="none" stroke="#63b8ff" d="M954.63,-195.84C969.91,-195.04 986.15,-194.33 1001.25,-193.92 1076,-191.91 1094.73,-192.66 1169.5,-193.92 1175.23,-194.02 1181.16,-194.15 1187.12,-194.3"/>
<polygon fill="#63b8ff" stroke="#63b8ff" points="954.48,-192.35 944.68,-196.39 954.86,-199.34 954.48,-192.35"/>
</a>
</g>
</g>
<!-- Node6&#45;&gt;Node18 -->
<g id="edge20_Node000018_Node000006" class="edge">
<title>Node6&#45;&gt;Node18</title>
<g id="a_edge20_Node000018_Node000006"><a xlink:title=" ">
<path fill="none" stroke="#63b8ff" d="M954.21,-210.72C1019.76,-221.75 1121.2,-238.81 1188.74,-250.17"/>
<polygon fill="#63b8ff" stroke="#63b8ff" points="955.14,-207.33 944.7,-209.12 953.98,-214.23 955.14,-207.33"/>
</a>
</g>
</g>
<!-- Node7 -->
<g id="Node000007" class="node">
<title>Node7</title>
<g id="a_Node000007"><a xlink:href="classllvm_1_1ilist__node__base.html" target="_top" xlink:title="Base class for ilist nodes.">
<polygon fill="white" stroke="#666666" points="954.38,-350.8 823.62,-350.8 823.62,-309.05 954.38,-309.05 954.38,-350.8"/>
<text xml:space="preserve" text-anchor="start" x="831.62" y="-337.3" font-family="Helvetica,sans-Serif" font-size="10.00">llvm::ilist_node_base</text>
<text xml:space="preserve" text-anchor="start" x="831.62" y="-326.05" font-family="Helvetica,sans-Serif" font-size="10.00">&lt; EnableSentinelTracking,</text>
<text xml:space="preserve" text-anchor="middle" x="889" y="-314.8" font-family="Helvetica,sans-Serif" font-size="10.00"> ParentTy &gt;</text>
</a>
</g>
</g>
<!-- Node7&#45;&gt;Node4 -->
<g id="edge6_Node000004_Node000007" class="edge">
<title>Node7&#45;&gt;Node4</title>
<g id="a_edge6_Node000004_Node000007"><a xlink:title=" ">
<path fill="none" stroke="orange" stroke-dasharray="5,2" d="M950.19,-304.29C966.6,-297.73 984.48,-290.97 1001.25,-285.42 1074.68,-261.12 1097.14,-268.25 1169.5,-240.92 1177.87,-237.76 1179.49,-235.9 1187.5,-231.92 1192.8,-229.29 1198.33,-226.56 1203.86,-223.83"/>
<polygon fill="orange" stroke="orange" points="949,-301 941.04,-307.99 951.63,-307.49 949,-301"/>
</a>
</g>
<text xml:space="preserve" text-anchor="start" x="1025.75" y="-305.42" font-family="Helvetica,sans-Serif" font-size="10.00" fill="grey">&lt; enable_sentinel_tracking,</text>
<text xml:space="preserve" text-anchor="start" x="1025.75" y="-290.17" font-family="Helvetica,sans-Serif" font-size="10.00" fill="grey">   parent_ty &gt;</text>
</g>
<!-- Node7&#45;&gt;Node18 -->
<g id="edge21_Node000018_Node000007" class="edge">
<title>Node7&#45;&gt;Node18</title>
<g id="a_edge21_Node000018_Node000007"><a xlink:title=" ">
<path fill="none" stroke="orange" stroke-dasharray="5,2" d="M966.15,-332.47C1035.72,-333.94 1133.1,-333.6 1169.5,-321.92 1194.19,-314 1218.34,-296.99 1235.26,-283.1"/>
<polygon fill="orange" stroke="orange" points="966.4,-328.97 956.32,-332.24 966.24,-335.97 966.4,-328.97"/>
</a>
</g>
<text xml:space="preserve" text-anchor="start" x="1025.75" y="-353.08" font-family="Helvetica,sans-Serif" font-size="10.00" fill="grey">&lt; enable_sentinel_tracking,</text>
<text xml:space="preserve" text-anchor="start" x="1025.75" y="-337.83" font-family="Helvetica,sans-Serif" font-size="10.00" fill="grey">   parent_ty &gt;</text>
</g>
<!-- Node8 -->
<g id="Node000008" class="node">
<title>Node8</title>
<g id="a_Node000008"><a xlink:href="classllvm_1_1ilist__detail_1_1node__base__prevnext.html" target="_top" xlink:title=" ">
<polygon fill="white" stroke="#666666" points="584,-520.05 405.25,-520.05 405.25,-455.8 584,-455.8 584,-520.05"/>
<text xml:space="preserve" text-anchor="start" x="413.25" y="-506.55" font-family="Helvetica,sans-Serif" font-size="10.00">llvm::ilist_detail</text>
<text xml:space="preserve" text-anchor="start" x="413.25" y="-495.3" font-family="Helvetica,sans-Serif" font-size="10.00">::node_base_prevnext</text>
<text xml:space="preserve" text-anchor="start" x="413.25" y="-484.05" font-family="Helvetica,sans-Serif" font-size="10.00">&lt; ilist_node_base&lt; EnableSentinel</text>
<text xml:space="preserve" text-anchor="start" x="413.25" y="-472.8" font-family="Helvetica,sans-Serif" font-size="10.00">Tracking, ParentTy &gt;, EnableSentinel</text>
<text xml:space="preserve" text-anchor="middle" x="494.62" y="-461.55" font-family="Helvetica,sans-Serif" font-size="10.00">Tracking &gt;</text>
</a>
</g>
</g>
<!-- Node8&#45;&gt;Node7 -->
<g id="edge7_Node000007_Node000008" class="edge">
<title>Node8&#45;&gt;Node7</title>
<g id="a_edge7_Node000007_Node000008"><a xlink:title=" ">
<path fill="none" stroke="#63b8ff" d="M595.62,-502.71C651.87,-506.34 721.64,-502.71 776.75,-473.92 828.41,-446.93 863.39,-384.05 878.9,-351.03"/>
<polygon fill="#63b8ff" stroke="#63b8ff" points="595.94,-499.22 585.71,-501.97 595.42,-506.2 595.94,-499.22"/>
</a>
</g>
</g>
<!-- Node9 -->
<g id="Node000009" class="node">
<title>Node9</title>
<g id="a_Node000009"><a xlink:href="classllvm_1_1ilist__detail_1_1node__base__prevnext.html" target="_top" xlink:title=" ">
<polygon fill="white" stroke="#666666" points="188.5,-508.8 0,-508.8 0,-467.05 188.5,-467.05 188.5,-508.8"/>
<text xml:space="preserve" text-anchor="start" x="8" y="-495.3" font-family="Helvetica,sans-Serif" font-size="10.00">llvm::ilist_detail</text>
<text xml:space="preserve" text-anchor="start" x="8" y="-484.05" font-family="Helvetica,sans-Serif" font-size="10.00">::node_base_prevnext</text>
<text xml:space="preserve" text-anchor="middle" x="94.25" y="-472.8" font-family="Helvetica,sans-Serif" font-size="10.00">&lt; NodeBase, EnableSentinelTracking &gt;</text>
</a>
</g>
</g>
<!-- Node9&#45;&gt;Node8 -->
<g id="edge8_Node000008_Node000009" class="edge">
<title>Node9&#45;&gt;Node8</title>
<g id="a_edge8_Node000008_Node000009"><a xlink:title=" ">
<path fill="none" stroke="orange" stroke-dasharray="5,2" d="M200.2,-487.92C263.96,-487.92 344.47,-487.92 405.02,-487.92"/>
<polygon fill="orange" stroke="orange" points="200.42,-484.42 190.42,-487.92 200.42,-491.42 200.42,-484.42"/>
</a>
</g>
<text xml:space="preserve" text-anchor="start" x="209.5" y="-523.17" font-family="Helvetica,sans-Serif" font-size="10.00" fill="grey">&lt; ilist_node_base&lt;</text>
<text xml:space="preserve" text-anchor="start" x="209.5" y="-507.92" font-family="Helvetica,sans-Serif" font-size="10.00" fill="grey">   EnableSentinelTracking,</text>
<text xml:space="preserve" text-anchor="start" x="209.5" y="-492.67" font-family="Helvetica,sans-Serif" font-size="10.00" fill="grey">   ParentTy &gt;, EnableSentinelTracking &gt;</text>
</g>
<!-- Node10 -->
<g id="Node000010" class="node">
<title>Node10</title>
<g id="a_Node000010"><a xlink:href="classllvm_1_1ilist__detail_1_1node__base__parent.html" target="_top" xlink:title=" ">
<polygon fill="white" stroke="#666666" points="548.38,-350.8 440.88,-350.8 440.88,-309.05 548.38,-309.05 548.38,-350.8"/>
<text xml:space="preserve" text-anchor="start" x="448.88" y="-337.3" font-family="Helvetica,sans-Serif" font-size="10.00">llvm::ilist_detail</text>
<text xml:space="preserve" text-anchor="start" x="448.88" y="-326.05" font-family="Helvetica,sans-Serif" font-size="10.00">::node_base_parent&lt;</text>
<text xml:space="preserve" text-anchor="middle" x="494.62" y="-314.8" font-family="Helvetica,sans-Serif" font-size="10.00"> ParentTy &gt;</text>
</a>
</g>
</g>
<!-- Node10&#45;&gt;Node7 -->
<g id="edge9_Node000007_Node000010" class="edge">
<title>Node10&#45;&gt;Node7</title>
<g id="a_edge9_Node000007_Node000010"><a xlink:title=" ">
<path fill="none" stroke="#63b8ff" d="M559.81,-329.92C632.5,-329.92 750.29,-329.92 823.23,-329.92"/>
<polygon fill="#63b8ff" stroke="#63b8ff" points="560.06,-326.42 550.06,-329.92 560.06,-333.42 560.06,-326.42"/>
</a>
</g>
</g>
<!-- Node11 -->
<g id="Node000011" class="node">
<title>Node11</title>
<g id="a_Node000011"><a xlink:href="classllvm_1_1ilist__detail_1_1node__parent__access.html" target="_top" xlink:title=" ">
<polygon fill="white" stroke="#666666" points="1169.5,-98.92 1001.25,-98.92 1001.25,-0.92 1169.5,-0.92 1169.5,-98.92"/>
<text xml:space="preserve" text-anchor="start" x="1009.25" y="-85.42" font-family="Helvetica,sans-Serif" font-size="10.00">llvm::ilist_detail</text>
<text xml:space="preserve" text-anchor="start" x="1009.25" y="-74.17" font-family="Helvetica,sans-Serif" font-size="10.00">::node_parent_access</text>
<text xml:space="preserve" text-anchor="start" x="1009.25" y="-62.92" font-family="Helvetica,sans-Serif" font-size="10.00">&lt; ilist_node_impl&lt; ilist</text>
<text xml:space="preserve" text-anchor="start" x="1009.25" y="-51.67" font-family="Helvetica,sans-Serif" font-size="10.00">_detail::compute_node_options</text>
<text xml:space="preserve" text-anchor="start" x="1009.25" y="-40.42" font-family="Helvetica,sans-Serif" font-size="10.00">&lt; IRInstructionData, Options...</text>
<text xml:space="preserve" text-anchor="start" x="1009.25" y="-29.17" font-family="Helvetica,sans-Serif" font-size="10.00"> &gt;::type &gt;, ilist_detail::compute</text>
<text xml:space="preserve" text-anchor="start" x="1009.25" y="-17.92" font-family="Helvetica,sans-Serif" font-size="10.00">_node_options&lt; IRInstructionData,</text>
<text xml:space="preserve" text-anchor="middle" x="1085.38" y="-6.67" font-family="Helvetica,sans-Serif" font-size="10.00"> Options... &gt;::type::parent_ty &gt;</text>
</a>
</g>
</g>
<!-- Node11&#45;&gt;Node3 -->
<g id="edge10_Node000003_Node000011" class="edge">
<title>Node11&#45;&gt;Node3</title>
<g id="a_edge10_Node000003_Node000011"><a xlink:title=" ">
<path fill="none" stroke="#63b8ff" d="M1181.3,-46.82C1264.45,-46.69 1387.66,-52.84 1490,-83.92 1511.7,-90.51 1533.94,-102.2 1552.03,-113.19"/>
<polygon fill="#63b8ff" stroke="#63b8ff" points="1181.33,-43.31 1171.35,-46.87 1181.37,-50.31 1181.33,-43.31"/>
</a>
</g>
</g>
<!-- Node12 -->
<g id="Node000012" class="node">
<title>Node12</title>
<g id="a_Node000012"><a xlink:href="classllvm_1_1ilist__detail_1_1node__parent__access.html" target="_top" xlink:title="Mixin base class that is used to add getParent() and setParent(ParentTy*) methods to ilist_node_impl ...">
<polygon fill="white" stroke="#666666" points="550.62,-194.8 438.62,-194.8 438.62,-153.05 550.62,-153.05 550.62,-194.8"/>
<text xml:space="preserve" text-anchor="start" x="446.62" y="-181.3" font-family="Helvetica,sans-Serif" font-size="10.00">llvm::ilist_detail</text>
<text xml:space="preserve" text-anchor="start" x="446.62" y="-170.05" font-family="Helvetica,sans-Serif" font-size="10.00">::node_parent_access</text>
<text xml:space="preserve" text-anchor="middle" x="494.62" y="-158.8" font-family="Helvetica,sans-Serif" font-size="10.00">&lt; NodeTy, ParentTy &gt;</text>
</a>
</g>
</g>
<!-- Node12&#45;&gt;Node11 -->
<g id="edge11_Node000011_Node000012" class="edge">
<title>Node12&#45;&gt;Node11</title>
<g id="a_edge11_Node000011_Node000012"><a xlink:title=" ">
<path fill="none" stroke="orange" stroke-dasharray="5,2" d="M509.85,-142.62C526.64,-109.93 557.95,-60.52 602,-39.17 730.15,22.93 900.82,-2.19 1001.02,-26.07"/>
<polygon fill="orange" stroke="orange" points="506.89,-140.71 505.59,-151.23 513.16,-143.82 506.89,-140.71"/>
</a>
</g>
<text xml:space="preserve" text-anchor="start" x="618.88" y="-135.42" font-family="Helvetica,sans-Serif" font-size="10.00" fill="grey">&lt; ilist_node_impl&lt;</text>
<text xml:space="preserve" text-anchor="start" x="618.88" y="-120.17" font-family="Helvetica,sans-Serif" font-size="10.00" fill="grey">   ilist_detail::compute</text>
<text xml:space="preserve" text-anchor="start" x="618.88" y="-104.92" font-family="Helvetica,sans-Serif" font-size="10.00" fill="grey">  _node_options&lt; IRInstruction</text>
<text xml:space="preserve" text-anchor="start" x="618.88" y="-89.67" font-family="Helvetica,sans-Serif" font-size="10.00" fill="grey">  Data, Options... &gt;::type &gt;</text>
<text xml:space="preserve" text-anchor="start" x="618.88" y="-74.42" font-family="Helvetica,sans-Serif" font-size="10.00" fill="grey">  , ilist_detail::compute_node</text>
<text xml:space="preserve" text-anchor="start" x="618.88" y="-59.17" font-family="Helvetica,sans-Serif" font-size="10.00" fill="grey">  _options&lt; IRInstructionData,</text>
<text xml:space="preserve" text-anchor="start" x="618.88" y="-43.92" font-family="Helvetica,sans-Serif" font-size="10.00" fill="grey">   Options... &gt;::type::parent_ty &gt;</text>
</g>
<!-- Node15 -->
<g id="Node000015" class="node">
<title>Node15</title>
<g id="a_Node000015"><a xlink:href="classllvm_1_1ilist__detail_1_1node__parent__access.html" target="_top" xlink:title=" ">
<polygon fill="white" stroke="#666666" points="958.12,-123.42 819.88,-123.42 819.88,-70.42 958.12,-70.42 958.12,-123.42"/>
<text xml:space="preserve" text-anchor="start" x="827.88" y="-109.92" font-family="Helvetica,sans-Serif" font-size="10.00">llvm::ilist_detail</text>
<text xml:space="preserve" text-anchor="start" x="827.88" y="-98.67" font-family="Helvetica,sans-Serif" font-size="10.00">::node_parent_access</text>
<text xml:space="preserve" text-anchor="start" x="827.88" y="-87.42" font-family="Helvetica,sans-Serif" font-size="10.00">&lt; ilist_node_impl&lt; OptionsT</text>
<text xml:space="preserve" text-anchor="middle" x="889" y="-76.17" font-family="Helvetica,sans-Serif" font-size="10.00"> &gt;, OptionsT::parent_ty &gt;</text>
</a>
</g>
</g>
<!-- Node12&#45;&gt;Node15 -->
<g id="edge15_Node000015_Node000012" class="edge">
<title>Node12&#45;&gt;Node15</title>
<g id="a_edge15_Node000015_Node000012"><a xlink:title=" ">
<path fill="none" stroke="orange" stroke-dasharray="5,2" d="M562.21,-182.14C621.59,-186.44 709.3,-185.17 776.75,-151.92 787.48,-146.63 784.87,-138.66 794.75,-131.92 802.46,-126.66 811.07,-122.06 819.86,-118.08"/>
<polygon fill="orange" stroke="orange" points="562.85,-178.68 552.6,-181.36 562.29,-185.66 562.85,-178.68"/>
</a>
</g>
<text xml:space="preserve" text-anchor="start" x="637.62" y="-219.15" font-family="Helvetica,sans-Serif" font-size="10.00" fill="grey">&lt; ilist_node_impl&lt;</text>
<text xml:space="preserve" text-anchor="start" x="637.62" y="-203.9" font-family="Helvetica,sans-Serif" font-size="10.00" fill="grey">   OptionsT &gt;, OptionsT</text>
<text xml:space="preserve" text-anchor="start" x="637.62" y="-188.65" font-family="Helvetica,sans-Serif" font-size="10.00" fill="grey">  ::parent_ty &gt;</text>
</g>
<!-- Node19 -->
<g id="Node000019" class="node">
<title>Node19</title>
<g id="a_Node000019"><a xlink:href="classllvm_1_1ilist__detail_1_1node__parent__access.html" target="_top" xlink:title=" ">
<polygon fill="white" stroke="#666666" points="1166.12,-468.3 1004.62,-468.3 1004.62,-381.55 1166.12,-381.55 1166.12,-468.3"/>
<text xml:space="preserve" text-anchor="start" x="1012.62" y="-454.8" font-family="Helvetica,sans-Serif" font-size="10.00">llvm::ilist_detail</text>
<text xml:space="preserve" text-anchor="start" x="1012.62" y="-443.55" font-family="Helvetica,sans-Serif" font-size="10.00">::node_parent_access</text>
<text xml:space="preserve" text-anchor="start" x="1012.62" y="-432.3" font-family="Helvetica,sans-Serif" font-size="10.00">&lt; ilist_node_impl&lt; ilist</text>
<text xml:space="preserve" text-anchor="start" x="1012.62" y="-421.05" font-family="Helvetica,sans-Serif" font-size="10.00">_detail::compute_node_options</text>
<text xml:space="preserve" text-anchor="start" x="1012.62" y="-409.8" font-family="Helvetica,sans-Serif" font-size="10.00">&lt; T, Options... &gt;::type &gt;, ilist</text>
<text xml:space="preserve" text-anchor="start" x="1012.62" y="-398.55" font-family="Helvetica,sans-Serif" font-size="10.00">_detail::compute_node_options&lt;</text>
<text xml:space="preserve" text-anchor="middle" x="1085.38" y="-387.3" font-family="Helvetica,sans-Serif" font-size="10.00"> T, Options... &gt;::type::parent_ty &gt;</text>
</a>
</g>
</g>
<!-- Node12&#45;&gt;Node19 -->
<g id="edge23_Node000019_Node000012" class="edge">
<title>Node12&#45;&gt;Node19</title>
<g id="a_edge23_Node000019_Node000012"><a xlink:title=" ">
<path fill="none" stroke="orange" stroke-dasharray="5,2" d="M531.63,-201.96C585.73,-242.74 692.57,-318.09 794.75,-359.92 862.71,-387.74 944.75,-404.73 1004.14,-414.33"/>
<polygon fill="orange" stroke="orange" points="534.07,-199.42 523.98,-196.16 529.83,-205 534.07,-199.42"/>
</a>
</g>
<text xml:space="preserve" text-anchor="start" x="605" y="-432.94" font-family="Helvetica,sans-Serif" font-size="10.00" fill="grey">&lt; ilist_node_impl&lt;</text>
<text xml:space="preserve" text-anchor="start" x="605" y="-417.69" font-family="Helvetica,sans-Serif" font-size="10.00" fill="grey">   ilist_detail::compute</text>
<text xml:space="preserve" text-anchor="start" x="605" y="-402.44" font-family="Helvetica,sans-Serif" font-size="10.00" fill="grey">  _node_options&lt; T, Options...</text>
<text xml:space="preserve" text-anchor="start" x="605" y="-387.19" font-family="Helvetica,sans-Serif" font-size="10.00" fill="grey">   &gt;::type &gt;, ilist_detail::</text>
<text xml:space="preserve" text-anchor="start" x="605" y="-371.94" font-family="Helvetica,sans-Serif" font-size="10.00" fill="grey">  compute_node_options&lt; T, Options...</text>
<text xml:space="preserve" text-anchor="start" x="605" y="-356.69" font-family="Helvetica,sans-Serif" font-size="10.00" fill="grey">   &gt;::type::parent_ty &gt;</text>
</g>
<!-- Node13 -->
<g id="Node000013" class="node">
<title>Node13</title>
<g id="a_Node000013"><a xlink:href="classllvm_1_1ilist__node__impl.html" target="_top" xlink:title="Implementation for an ilist node.">
<polygon fill="white" stroke="#666666" points="1311.88,-143.17 1207.38,-143.17 1207.38,-112.67 1311.88,-112.67 1311.88,-143.17"/>
<text xml:space="preserve" text-anchor="start" x="1215.38" y="-129.67" font-family="Helvetica,sans-Serif" font-size="10.00">llvm::ilist_node_impl</text>
<text xml:space="preserve" text-anchor="middle" x="1259.62" y="-118.42" font-family="Helvetica,sans-Serif" font-size="10.00">&lt; OptionsT &gt;</text>
</a>
</g>
</g>
<!-- Node13&#45;&gt;Node3 -->
<g id="edge12_Node000003_Node000013" class="edge">
<title>Node13&#45;&gt;Node3</title>
<g id="a_edge12_Node000003_Node000013"><a xlink:title=" ">
<path fill="none" stroke="orange" stroke-dasharray="5,2" d="M1306.46,-108.22C1320.13,-103.27 1335.32,-98.66 1349.75,-96.17 1411.17,-85.56 1428.96,-83.53 1490,-96.17 1506.86,-99.66 1524.36,-106.11 1539.97,-112.99"/>
<polygon fill="orange" stroke="orange" points="1305.4,-104.88 1297.28,-111.69 1307.87,-111.43 1305.4,-104.88"/>
</a>
</g>
<text xml:space="preserve" text-anchor="start" x="1352.75" y="-131.42" font-family="Helvetica,sans-Serif" font-size="10.00" fill="grey">&lt; ilist_detail::compute</text>
<text xml:space="preserve" text-anchor="start" x="1352.75" y="-116.17" font-family="Helvetica,sans-Serif" font-size="10.00" fill="grey">  _node_options&lt; IRInstruction</text>
<text xml:space="preserve" text-anchor="start" x="1352.75" y="-100.92" font-family="Helvetica,sans-Serif" font-size="10.00" fill="grey">  Data, Options... &gt;::type &gt;</text>
</g>
<!-- Node17 -->
<g id="Node000017" class="node">
<title>Node17</title>
<g id="a_Node000017"><a xlink:href="classllvm_1_1ilist__node__impl.html" target="_top" xlink:title=" ">
<polygon fill="white" stroke="#666666" points="1662.75,-237.42 1521.5,-237.42 1521.5,-184.42 1662.75,-184.42 1662.75,-237.42"/>
<text xml:space="preserve" text-anchor="start" x="1529.5" y="-223.92" font-family="Helvetica,sans-Serif" font-size="10.00">llvm::ilist_node_impl</text>
<text xml:space="preserve" text-anchor="start" x="1529.5" y="-212.67" font-family="Helvetica,sans-Serif" font-size="10.00">&lt; ilist_detail::compute</text>
<text xml:space="preserve" text-anchor="start" x="1529.5" y="-201.42" font-family="Helvetica,sans-Serif" font-size="10.00">_node_options&lt; T, Options...</text>
<text xml:space="preserve" text-anchor="middle" x="1592.12" y="-190.17" font-family="Helvetica,sans-Serif" font-size="10.00"> &gt;::type &gt;</text>
</a>
</g>
</g>
<!-- Node13&#45;&gt;Node17 -->
<g id="edge24_Node000017_Node000013" class="edge">
<title>Node13&#45;&gt;Node17</title>
<g id="a_edge24_Node000017_Node000013"><a xlink:title=" ">
<path fill="none" stroke="orange" stroke-dasharray="5,2" d="M1323.18,-143.63C1379.62,-157.8 1462.52,-178.62 1521.14,-193.34"/>
<polygon fill="orange" stroke="orange" points="1324.28,-140.3 1313.73,-141.26 1322.58,-147.09 1324.28,-140.3"/>
</a>
</g>
<text xml:space="preserve" text-anchor="start" x="1354.25" y="-219.32" font-family="Helvetica,sans-Serif" font-size="10.00" fill="grey">&lt; ilist_detail::compute</text>
<text xml:space="preserve" text-anchor="start" x="1354.25" y="-204.07" font-family="Helvetica,sans-Serif" font-size="10.00" fill="grey">  _node_options&lt; T, Options...</text>
<text xml:space="preserve" text-anchor="start" x="1354.25" y="-188.82" font-family="Helvetica,sans-Serif" font-size="10.00" fill="grey">   &gt;::type &gt;</text>
</g>
<!-- Node14 -->
<g id="Node000014" class="node">
<title>Node14</title>
<g id="a_Node000014"><a xlink:title=" ">
<polygon fill="white" stroke="#666666" points="954.75,-160.55 823.25,-160.55 823.25,-141.3 954.75,-141.3 954.75,-160.55"/>
<text xml:space="preserve" text-anchor="middle" x="889" y="-147.05" font-family="Helvetica,sans-Serif" font-size="10.00">OptionsT::node_base_type</text>
</a>
</g>
</g>
<!-- Node14&#45;&gt;Node13 -->
<g id="edge13_Node000013_Node000014" class="edge">
<title>Node14&#45;&gt;Node13</title>
<g id="a_edge13_Node000013_Node000014"><a xlink:title=" ">
<path fill="none" stroke="#8b1a1a" d="M966.52,-146.4C1022.7,-143.05 1100.85,-138.32 1169.5,-133.92 1181.73,-133.14 1194.89,-132.27 1207.26,-131.44"/>
<polygon fill="#8b1a1a" stroke="#8b1a1a" points="966.52,-142.89 956.75,-146.98 966.94,-149.88 966.52,-142.89"/>
</a>
</g>
</g>
<!-- Node15&#45;&gt;Node13 -->
<g id="edge14_Node000013_Node000015" class="edge">
<title>Node15&#45;&gt;Node13</title>
<g id="a_edge14_Node000013_Node000015"><a xlink:title=" ">
<path fill="none" stroke="#63b8ff" d="M969.74,-103.63C1041.74,-109.68 1145.55,-118.41 1207.15,-123.59"/>
<polygon fill="#63b8ff" stroke="#63b8ff" points="970.24,-100.16 959.98,-102.81 969.65,-107.13 970.24,-100.16"/>
</a>
</g>
</g>
<!-- Node16 -->
<g id="Node000016" class="node">
<title>Node16</title>
<g id="a_Node000016"><a xlink:href="classllvm_1_1ilist__node.html" target="_top" xlink:title=" ">
<polygon fill="white" stroke="#666666" points="1811,-219.17 1713.25,-219.17 1713.25,-188.67 1811,-188.67 1811,-219.17"/>
<text xml:space="preserve" text-anchor="start" x="1721.25" y="-205.67" font-family="Helvetica,sans-Serif" font-size="10.00">llvm::ilist_node&lt; T,</text>
<text xml:space="preserve" text-anchor="middle" x="1762.12" y="-194.42" font-family="Helvetica,sans-Serif" font-size="10.00"> Options &gt;</text>
</a>
</g>
</g>
<!-- Node16&#45;&gt;Node2 -->
<g id="edge16_Node000002_Node000016" class="edge">
<title>Node16&#45;&gt;Node2</title>
<g id="a_edge16_Node000002_Node000016"><a xlink:title=" ">
<path fill="none" stroke="orange" stroke-dasharray="5,2" d="M1822.64,-196.28C1861.92,-191.24 1913.62,-184.6 1955.32,-179.25"/>
<polygon fill="orange" stroke="orange" points="1822.37,-192.79 1812.9,-197.53 1823.26,-199.73 1822.37,-192.79"/>
</a>
</g>
<text xml:space="preserve" text-anchor="start" x="1832" y="-230.05" font-family="Helvetica,sans-Serif" font-size="10.00" fill="grey">&lt; IRInstructionData,</text>
<text xml:space="preserve" text-anchor="start" x="1832" y="-214.8" font-family="Helvetica,sans-Serif" font-size="10.00" fill="grey">   ilist_sentinel_tracking</text>
<text xml:space="preserve" text-anchor="start" x="1832" y="-199.55" font-family="Helvetica,sans-Serif" font-size="10.00" fill="grey">  &lt; true &gt; &gt;</text>
</g>
<!-- Node17&#45;&gt;Node16 -->
<g id="edge17_Node000016_Node000017" class="edge">
<title>Node17&#45;&gt;Node16</title>
<g id="a_edge17_Node000016_Node000017"><a xlink:title=" ">
<path fill="none" stroke="#63b8ff" d="M1674.4,-207.53C1687.53,-206.99 1700.75,-206.44 1712.77,-205.94"/>
<polygon fill="#63b8ff" stroke="#63b8ff" points="1674.27,-204.04 1664.42,-207.95 1674.56,-211.03 1674.27,-204.04"/>
</a>
</g>
</g>
<!-- Node18&#45;&gt;Node17 -->
<g id="edge18_Node000017_Node000018" class="edge">
<title>Node18&#45;&gt;Node17</title>
<g id="a_edge18_Node000017_Node000018"><a xlink:title=" ">
<path fill="none" stroke="#8b1a1a" d="M1341.96,-259.61C1386.09,-257.25 1441.4,-252.5 1490,-242.92 1500.21,-240.91 1510.84,-238.23 1521.2,-235.27"/>
<polygon fill="#8b1a1a" stroke="#8b1a1a" points="1342.02,-256.11 1332.21,-260.1 1342.37,-263.1 1342.02,-256.11"/>
</a>
</g>
</g>
<!-- Node19&#45;&gt;Node17 -->
<g id="edge22_Node000017_Node000019" class="edge">
<title>Node19&#45;&gt;Node17</title>
<g id="a_edge22_Node000017_Node000019"><a xlink:title=" ">
<path fill="none" stroke="#63b8ff" d="M1177,-392.35C1259.62,-361.86 1384.51,-313.8 1490,-264.92 1507.7,-256.72 1526.66,-246.88 1543.34,-237.87"/>
<polygon fill="#63b8ff" stroke="#63b8ff" points="1175.98,-388.99 1167.8,-395.73 1178.4,-395.56 1175.98,-388.99"/>
</a>
</g>
</g>
</g>
</svg>
