<?xml version="1.0" encoding="UTF-8" standalone="no"?>
<!DOCTYPE svg PUBLIC "-//W3C//DTD SVG 1.1//EN"
 "http://www.w3.org/Graphics/SVG/1.1/DTD/svg11.dtd">
<!-- Generated by graphviz version 13.1.2 (20250808.2320)
 -->
<!-- Title: llvm::FirstIndexOfType&lt; T, Us &gt; Pages: 1 -->
<svg width="256pt" height="122pt"
 viewBox="0.00 0.00 256.00 122.00" xmlns="http://www.w3.org/2000/svg" xmlns:xlink="http://www.w3.org/1999/xlink">
<g id="graph0" class="graph" transform="scale(1 1) rotate(0) translate(4 118.25)">
<title>llvm::FirstIndexOfType&lt; T, Us &gt;</title>
<!-- Node1 -->
<g id="Node000001" class="node">
<title>Node1</title>
<g id="a_Node000001"><a xlink:title="Find the first index where a type appears in a list of types.">
<polygon fill="#999999" stroke="#666666" points="181,-114.25 66,-114.25 66,-83.75 181,-83.75 181,-114.25"/>
<text xml:space="preserve" text-anchor="start" x="74" y="-100.75" font-family="Helvetica,sans-Serif" font-size="10.00">llvm::FirstIndexOfType</text>
<text xml:space="preserve" text-anchor="middle" x="123.5" y="-89.5" font-family="Helvetica,sans-Serif" font-size="10.00">&lt; T, Us &gt;</text>
</a>
</g>
</g>
<!-- Node2 -->
<g id="Node000002" class="node">
<title>Node2</title>
<g id="a_Node000002"><a xlink:href="structllvm_1_1FirstIndexOfType_3_01T_00_01T_00_01Us_8_8_8_01_4.html" target="_top" xlink:title=" ">
<polygon fill="white" stroke="#666666" points="115,-30.5 0,-30.5 0,0 115,0 115,-30.5"/>
<text xml:space="preserve" text-anchor="start" x="8" y="-17" font-family="Helvetica,sans-Serif" font-size="10.00">llvm::FirstIndexOfType</text>
<text xml:space="preserve" text-anchor="middle" x="57.5" y="-5.75" font-family="Helvetica,sans-Serif" font-size="10.00">&lt; T, T, Us... &gt;</text>
</a>
</g>
</g>
<!-- Node1&#45;&gt;Node2 -->
<g id="edge1_Node000001_Node000002" class="edge">
<title>Node1&#45;&gt;Node2</title>
<g id="a_edge1_Node000001_Node000002"><a xlink:title=" ">
<path fill="none" stroke="orange" stroke-dasharray="5,2" d="M104.67,-74.68C93.24,-60.53 79.02,-42.91 69.2,-30.74"/>
<polygon fill="orange" stroke="orange" points="101.74,-76.62 110.75,-82.21 107.19,-72.23 101.74,-76.62"/>
</a>
</g>
<text xml:space="preserve" text-anchor="start" x="99.41" y="-53.25" font-family="Helvetica,sans-Serif" font-size="10.00" fill="grey">&lt; T, T, Us... &gt;</text>
</g>
<!-- Node3 -->
<g id="Node000003" class="node">
<title>Node3</title>
<g id="a_Node000003"><a xlink:href="structllvm_1_1FirstIndexOfType_3_01T_00_01U_00_01Us_8_8_8_01_4.html" target="_top" xlink:title=" ">
<polygon fill="white" stroke="#666666" points="248,-30.5 133,-30.5 133,0 248,0 248,-30.5"/>
<text xml:space="preserve" text-anchor="start" x="141" y="-17" font-family="Helvetica,sans-Serif" font-size="10.00">llvm::FirstIndexOfType</text>
<text xml:space="preserve" text-anchor="middle" x="190.5" y="-5.75" font-family="Helvetica,sans-Serif" font-size="10.00">&lt; T, U, Us... &gt;</text>
</a>
</g>
</g>
<!-- Node1&#45;&gt;Node3 -->
<g id="edge2_Node000001_Node000003" class="edge">
<title>Node1&#45;&gt;Node3</title>
<g id="a_edge2_Node000001_Node000003"><a xlink:title=" ">
<path fill="none" stroke="orange" stroke-dasharray="5,2" d="M156.58,-76.68C160.54,-73.31 164.31,-69.65 167.5,-65.75 176.03,-55.34 182.17,-41.25 185.95,-30.76"/>
<polygon fill="orange" stroke="orange" points="154.68,-73.72 148.93,-82.62 158.98,-79.25 154.68,-73.72"/>
</a>
</g>
<text xml:space="preserve" text-anchor="start" x="180.92" y="-53.25" font-family="Helvetica,sans-Serif" font-size="10.00" fill="grey">&lt; T, U, Us... &gt;</text>
</g>
</g>
</svg>
