<?xml version="1.0" encoding="UTF-8" standalone="no"?>
<!DOCTYPE svg PUBLIC "-//W3C//DTD SVG 1.1//EN"
 "http://www.w3.org/Graphics/SVG/1.1/DTD/svg11.dtd">
<!-- Generated by graphviz version 13.1.2 (20250808.2320)
 -->
<!-- Title: llvm::AMDGPU::EncodingField&lt; HighBit, LowBit, D &gt; Pages: 1 -->
<svg width="571pt" height="186pt"
 viewBox="0.00 0.00 571.00 186.00" xmlns="http://www.w3.org/2000/svg" xmlns:xlink="http://www.w3.org/1999/xlink">
<g id="graph0" class="graph" transform="scale(1 1) rotate(0) translate(4 181.5)">
<title>llvm::AMDGPU::EncodingField&lt; HighBit, LowBit, D &gt;</title>
<!-- Node1 -->
<g id="Node000001" class="node">
<title>Node1</title>
<g id="a_Node000001"><a xlink:title=" ">
<polygon fill="#999999" stroke="#666666" points="151.75,-103.5 0,-103.5 0,-73 151.75,-73 151.75,-103.5"/>
<text xml:space="preserve" text-anchor="start" x="8" y="-90" font-family="Helvetica,sans-Serif" font-size="10.00">llvm::AMDGPU::EncodingField</text>
<text xml:space="preserve" text-anchor="middle" x="75.88" y="-78.75" font-family="Helvetica,sans-Serif" font-size="10.00">&lt; HighBit, LowBit, D &gt;</text>
</a>
</g>
</g>
<!-- Node2 -->
<g id="Node000002" class="node">
<title>Node2</title>
<g id="a_Node000002"><a xlink:href="structllvm_1_1AMDGPU_1_1EncodingField.html" target="_top" xlink:title=" ">
<polygon fill="white" stroke="#666666" points="407,-177.5 255.25,-177.5 255.25,-147 407,-147 407,-177.5"/>
<text xml:space="preserve" text-anchor="start" x="263.25" y="-164" font-family="Helvetica,sans-Serif" font-size="10.00">llvm::AMDGPU::EncodingField</text>
<text xml:space="preserve" text-anchor="middle" x="331.12" y="-152.75" font-family="Helvetica,sans-Serif" font-size="10.00">&lt; Bit, Bit, D &gt;</text>
</a>
</g>
</g>
<!-- Node1&#45;&gt;Node2 -->
<g id="edge1_Node000001_Node000002" class="edge">
<title>Node1&#45;&gt;Node2</title>
<g id="a_edge1_Node000001_Node000002"><a xlink:title=" ">
<path fill="none" stroke="orange" stroke-dasharray="5,2" d="M122.98,-108.23C137.75,-114.19 154.29,-120.42 169.75,-125.25 197.16,-133.82 227.76,-141.36 254.83,-147.36"/>
<polygon fill="orange" stroke="orange" points="124.56,-105.09 113.98,-104.53 121.9,-111.57 124.56,-105.09"/>
</a>
</g>
<text xml:space="preserve" text-anchor="start" x="172.75" y="-147.62" font-family="Helvetica,sans-Serif" font-size="10.00" fill="grey">&lt; Bit, Bit, D &gt;</text>
</g>
<!-- Node3 -->
<g id="Node000003" class="node">
<title>Node3</title>
<g id="a_Node000003"><a xlink:href="structllvm_1_1AMDGPU_1_1EncodingField.html" target="_top" xlink:title=" ">
<polygon fill="white" stroke="#666666" points="407,-128.5 255.25,-128.5 255.25,-98 407,-98 407,-128.5"/>
<text xml:space="preserve" text-anchor="start" x="263.25" y="-115" font-family="Helvetica,sans-Serif" font-size="10.00">llvm::AMDGPU::EncodingField</text>
<text xml:space="preserve" text-anchor="middle" x="331.12" y="-103.75" font-family="Helvetica,sans-Serif" font-size="10.00">&lt; 5, 0 &gt;</text>
</a>
</g>
</g>
<!-- Node1&#45;&gt;Node3 -->
<g id="edge2_Node000001_Node000003" class="edge">
<title>Node1&#45;&gt;Node3</title>
<g id="a_edge2_Node000001_Node000003"><a xlink:title=" ">
<path fill="none" stroke="orange" stroke-dasharray="5,2" d="M163.42,-96.79C193.21,-99.73 226.32,-103 255.12,-105.85"/>
<polygon fill="orange" stroke="orange" points="163.97,-93.33 153.68,-95.83 163.29,-100.3 163.97,-93.33"/>
</a>
</g>
<text xml:space="preserve" text-anchor="start" x="186.25" y="-108.47" font-family="Helvetica,sans-Serif" font-size="10.00" fill="grey">&lt; 5, 0 &gt;</text>
</g>
<!-- Node4 -->
<g id="Node000004" class="node">
<title>Node4</title>
<g id="a_Node000004"><a xlink:href="structllvm_1_1AMDGPU_1_1EncodingField.html" target="_top" xlink:title=" ">
<polygon fill="white" stroke="#666666" points="407,-79.5 255.25,-79.5 255.25,-49 407,-49 407,-79.5"/>
<text xml:space="preserve" text-anchor="start" x="263.25" y="-66" font-family="Helvetica,sans-Serif" font-size="10.00">llvm::AMDGPU::EncodingField</text>
<text xml:space="preserve" text-anchor="middle" x="331.12" y="-54.75" font-family="Helvetica,sans-Serif" font-size="10.00">&lt; 10, 6 &gt;</text>
</a>
</g>
</g>
<!-- Node1&#45;&gt;Node4 -->
<g id="edge3_Node000001_Node000004" class="edge">
<title>Node1&#45;&gt;Node4</title>
<g id="a_edge3_Node000001_Node000004"><a xlink:title=" ">
<path fill="none" stroke="orange" stroke-dasharray="5,2" d="M163.48,-74.7C165.59,-74.46 167.68,-74.22 169.75,-74 197.49,-71.04 228.02,-68.9 254.94,-67.4"/>
<polygon fill="orange" stroke="orange" points="163.07,-71.23 153.57,-75.93 163.93,-78.17 163.07,-71.23"/>
</a>
</g>
<text xml:space="preserve" text-anchor="start" x="183.62" y="-78.75" font-family="Helvetica,sans-Serif" font-size="10.00" fill="grey">&lt; 10, 6 &gt;</text>
</g>
<!-- Node5 -->
<g id="Node000005" class="node">
<title>Node5</title>
<g id="a_Node000005"><a xlink:href="structllvm_1_1AMDGPU_1_1EncodingField.html" target="_top" xlink:title=" ">
<polygon fill="white" stroke="#666666" points="407,-30.5 255.25,-30.5 255.25,0 407,0 407,-30.5"/>
<text xml:space="preserve" text-anchor="start" x="263.25" y="-17" font-family="Helvetica,sans-Serif" font-size="10.00">llvm::AMDGPU::EncodingField</text>
<text xml:space="preserve" text-anchor="middle" x="331.12" y="-5.75" font-family="Helvetica,sans-Serif" font-size="10.00">&lt; 15, 11, 32 &gt;</text>
</a>
</g>
</g>
<!-- Node1&#45;&gt;Node5 -->
<g id="edge4_Node000001_Node000005" class="edge">
<title>Node1&#45;&gt;Node5</title>
<g id="a_edge4_Node000001_Node000005"><a xlink:title=" ">
<path fill="none" stroke="orange" stroke-dasharray="5,2" d="M117.64,-67.79C133.59,-60.41 152.23,-52.55 169.75,-47 197.08,-38.34 227.81,-31.58 255,-26.55"/>
<polygon fill="orange" stroke="orange" points="116.5,-64.46 108.95,-71.89 119.49,-70.78 116.5,-64.46"/>
</a>
</g>
<text xml:space="preserve" text-anchor="start" x="172.75" y="-51.75" font-family="Helvetica,sans-Serif" font-size="10.00" fill="grey">&lt; 15, 11, 32 &gt;</text>
</g>
<!-- Node6 -->
<g id="Node000006" class="node">
<title>Node6</title>
<g id="a_Node000006"><a xlink:href="structllvm_1_1AMDGPU_1_1Hwreg_1_1HwregSize.html" target="_top" xlink:title=" ">
<polygon fill="white" stroke="#666666" points="562.75,-30.5 444,-30.5 444,0 562.75,0 562.75,-30.5"/>
<text xml:space="preserve" text-anchor="start" x="452" y="-17" font-family="Helvetica,sans-Serif" font-size="10.00">llvm::AMDGPU::Hwreg</text>
<text xml:space="preserve" text-anchor="middle" x="503.38" y="-5.75" font-family="Helvetica,sans-Serif" font-size="10.00">::HwregSize</text>
</a>
</g>
</g>
<!-- Node5&#45;&gt;Node6 -->
<g id="edge5_Node000005_Node000006" class="edge">
<title>Node5&#45;&gt;Node6</title>
<g id="a_edge5_Node000005_Node000006"><a xlink:title=" ">
<path fill="none" stroke="#63b8ff" d="M418.79,-15.25C427.23,-15.25 435.65,-15.25 443.71,-15.25"/>
<polygon fill="#63b8ff" stroke="#63b8ff" points="418.81,-11.75 408.81,-15.25 418.81,-18.75 418.81,-11.75"/>
</a>
</g>
</g>
</g>
</svg>
