<?xml version="1.0" encoding="UTF-8" standalone="no"?>
<!DOCTYPE svg PUBLIC "-//W3C//DTD SVG 1.1//EN"
 "http://www.w3.org/Graphics/SVG/1.1/DTD/svg11.dtd">
<!-- Generated by graphviz version 13.1.2 (20250808.2320)
 -->
<!-- Title: llvm::MachineSchedContext Pages: 1 -->
<svg width="473pt" height="88pt"
 viewBox="0.00 0.00 473.00 88.00" xmlns="http://www.w3.org/2000/svg" xmlns:xlink="http://www.w3.org/1999/xlink">
<g id="graph0" class="graph" transform="scale(1 1) rotate(0) translate(4 83.5)">
<title>llvm::MachineSchedContext</title>
<!-- Node1 -->
<g id="Node000001" class="node">
<title>Node1</title>
<g id="a_Node000001"><a xlink:title="MachineSchedContext provides enough context from the MachineScheduler pass for the target to instanti...">
<polygon fill="#999999" stroke="#666666" points="139,-48.88 0,-48.88 0,-29.62 139,-29.62 139,-48.88"/>
<text xml:space="preserve" text-anchor="middle" x="69.5" y="-35.38" font-family="Helvetica,sans-Serif" font-size="10.00">llvm::MachineSchedContext</text>
</a>
</g>
</g>
<!-- Node2 -->
<g id="Node000002" class="node">
<title>Node2</title>
<g id="a_Node000002"><a xlink:href="classllvm_1_1impl__detail_1_1MachineSchedulerBase.html" target="_top" xlink:title="Base class for the machine scheduler classes.">
<polygon fill="white" stroke="#666666" points="293.75,-54.5 175,-54.5 175,-24 293.75,-24 293.75,-54.5"/>
<text xml:space="preserve" text-anchor="start" x="183" y="-41" font-family="Helvetica,sans-Serif" font-size="10.00">llvm::impl_detail::</text>
<text xml:space="preserve" text-anchor="middle" x="234.38" y="-29.75" font-family="Helvetica,sans-Serif" font-size="10.00">MachineSchedulerBase</text>
</a>
</g>
</g>
<!-- Node1&#45;&gt;Node2 -->
<g id="edge1_Node000001_Node000002" class="edge">
<title>Node1&#45;&gt;Node2</title>
<g id="a_edge1_Node000001_Node000002"><a xlink:title=" ">
<path fill="none" stroke="#63b8ff" d="M150.54,-39.25C158.67,-39.25 166.81,-39.25 174.65,-39.25"/>
<polygon fill="#63b8ff" stroke="#63b8ff" points="150.62,-35.75 140.62,-39.25 150.62,-42.75 150.62,-35.75"/>
</a>
</g>
</g>
<!-- Node3 -->
<g id="Node000003" class="node">
<title>Node3</title>
<g id="a_Node000003"><a xlink:href="classllvm_1_1impl__detail_1_1MachineSchedulerImpl.html" target="_top" xlink:title="Impl class for MachineScheduler.">
<polygon fill="white" stroke="#666666" points="454.88,-79.5 339.88,-79.5 339.88,-49 454.88,-49 454.88,-79.5"/>
<text xml:space="preserve" text-anchor="start" x="347.88" y="-66" font-family="Helvetica,sans-Serif" font-size="10.00">llvm::impl_detail::</text>
<text xml:space="preserve" text-anchor="middle" x="397.38" y="-54.75" font-family="Helvetica,sans-Serif" font-size="10.00">MachineSchedulerImpl</text>
</a>
</g>
</g>
<!-- Node2&#45;&gt;Node3 -->
<g id="edge2_Node000002_Node000003" class="edge">
<title>Node2&#45;&gt;Node3</title>
<g id="a_edge2_Node000002_Node000003"><a xlink:title=" ">
<path fill="none" stroke="#63b8ff" d="M305.25,-50.1C316.67,-51.87 328.39,-53.69 339.45,-55.41"/>
<polygon fill="#63b8ff" stroke="#63b8ff" points="305.87,-46.65 295.45,-48.58 304.8,-53.57 305.87,-46.65"/>
</a>
</g>
</g>
<!-- Node4 -->
<g id="Node000004" class="node">
<title>Node4</title>
<g id="a_Node000004"><a xlink:href="classllvm_1_1impl__detail_1_1PostMachineSchedulerImpl.html" target="_top" xlink:title="Impl class for PostMachineScheduler.">
<polygon fill="white" stroke="#666666" points="465,-30.5 329.75,-30.5 329.75,0 465,0 465,-30.5"/>
<text xml:space="preserve" text-anchor="start" x="337.75" y="-17" font-family="Helvetica,sans-Serif" font-size="10.00">llvm::impl_detail::</text>
<text xml:space="preserve" text-anchor="middle" x="397.38" y="-5.75" font-family="Helvetica,sans-Serif" font-size="10.00">PostMachineSchedulerImpl</text>
</a>
</g>
</g>
<!-- Node2&#45;&gt;Node4 -->
<g id="edge3_Node000002_Node000004" class="edge">
<title>Node2&#45;&gt;Node4</title>
<g id="a_edge3_Node000002_Node000004"><a xlink:title=" ">
<path fill="none" stroke="#63b8ff" d="M305.18,-28.84C313.21,-27.65 321.39,-26.43 329.38,-25.24"/>
<polygon fill="#63b8ff" stroke="#63b8ff" points="304.83,-25.36 295.45,-30.29 305.86,-32.28 304.83,-25.36"/>
</a>
</g>
</g>
</g>
</svg>
