<?xml version="1.0" encoding="UTF-8" standalone="no"?>
<!DOCTYPE svg PUBLIC "-//W3C//DTD SVG 1.1//EN"
 "http://www.w3.org/Graphics/SVG/1.1/DTD/svg11.dtd">
<!-- Generated by graphviz version 13.1.2 (20250808.2320)
 -->
<!-- Title: llvm::GraphTraits&lt; ArgumentGraph * &gt; Pages: 1 -->
<svg width="282pt" height="190pt"
 viewBox="0.00 0.00 282.00 190.00" xmlns="http://www.w3.org/2000/svg" xmlns:xlink="http://www.w3.org/1999/xlink">
<g id="graph0" class="graph" transform="scale(1 1) rotate(0) translate(4 185.75)">
<title>llvm::GraphTraits&lt; ArgumentGraph * &gt;</title>
<!-- Node1 -->
<g id="Node000001" class="node">
<title>Node1</title>
<g id="a_Node000001"><a xlink:title=" ">
<polygon fill="#999999" stroke="#666666" points="134.62,-30.5 32.38,-30.5 32.38,0 134.62,0 134.62,-30.5"/>
<text xml:space="preserve" text-anchor="start" x="40.38" y="-17" font-family="Helvetica,sans-Serif" font-size="10.00">llvm::GraphTraits&lt;</text>
<text xml:space="preserve" text-anchor="middle" x="83.5" y="-5.75" font-family="Helvetica,sans-Serif" font-size="10.00"> ArgumentGraph * &gt;</text>
</a>
</g>
</g>
<!-- Node2 -->
<g id="Node000002" class="node">
<title>Node2</title>
<g id="a_Node000002"><a xlink:href="structllvm_1_1GraphTraits_3_01ArgumentGraphNode_01_5_01_4.html" target="_top" xlink:title=" ">
<polygon fill="white" stroke="#666666" points="274.25,-98 148.75,-98 148.75,-67.5 274.25,-67.5 274.25,-98"/>
<text xml:space="preserve" text-anchor="start" x="156.75" y="-84.5" font-family="Helvetica,sans-Serif" font-size="10.00">llvm::GraphTraits&lt;</text>
<text xml:space="preserve" text-anchor="middle" x="211.5" y="-73.25" font-family="Helvetica,sans-Serif" font-size="10.00"> ArgumentGraphNode * &gt;</text>
</a>
</g>
</g>
<!-- Node2&#45;&gt;Node1 -->
<g id="edge1_Node000001_Node000002" class="edge">
<title>Node2&#45;&gt;Node1</title>
<g id="a_edge1_Node000001_Node000002"><a xlink:title=" ">
<path fill="none" stroke="#63b8ff" d="M172.68,-61.88C153.18,-51.91 129.98,-40.03 112.13,-30.9"/>
<polygon fill="#63b8ff" stroke="#63b8ff" points="170.93,-64.92 181.43,-66.36 174.12,-58.69 170.93,-64.92"/>
</a>
</g>
</g>
<!-- Node3 -->
<g id="Node000003" class="node">
<title>Node3</title>
<g id="a_Node000003"><a xlink:href="structllvm_1_1GraphTraits.html" target="_top" xlink:title=" ">
<polygon fill="white" stroke="#666666" points="97,-181.75 0,-181.75 0,-151.25 97,-151.25 97,-181.75"/>
<text xml:space="preserve" text-anchor="start" x="8" y="-168.25" font-family="Helvetica,sans-Serif" font-size="10.00">llvm::GraphTraits&lt;</text>
<text xml:space="preserve" text-anchor="middle" x="48.5" y="-157" font-family="Helvetica,sans-Serif" font-size="10.00"> GraphType &gt;</text>
</a>
</g>
</g>
<!-- Node3&#45;&gt;Node1 -->
<g id="edge3_Node000001_Node000003" class="edge">
<title>Node3&#45;&gt;Node1</title>
<g id="a_edge3_Node000001_Node000003"><a xlink:title=" ">
<path fill="none" stroke="orange" stroke-dasharray="5,2" d="M41.01,-139.93C36.4,-119.69 32.81,-91.01 41.25,-67.5 46.39,-53.17 57.47,-40 66.99,-30.59"/>
<polygon fill="orange" stroke="orange" points="37.61,-140.76 43.47,-149.58 44.39,-139.03 37.61,-140.76"/>
</a>
</g>
<text xml:space="preserve" text-anchor="start" x="44.25" y="-78.88" font-family="Helvetica,sans-Serif" font-size="10.00" fill="grey">&lt; ArgumentGraph * &gt;</text>
</g>
<!-- Node3&#45;&gt;Node2 -->
<g id="edge2_Node000002_Node000003" class="edge">
<title>Node3&#45;&gt;Node2</title>
<g id="a_edge2_Node000002_Node000003"><a xlink:title=" ">
<path fill="none" stroke="orange" stroke-dasharray="5,2" d="M87.88,-145.75C116.99,-131.15 155.99,-111.59 182.34,-98.38"/>
<polygon fill="orange" stroke="orange" points="86.36,-142.59 78.99,-150.21 89.5,-148.85 86.36,-142.59"/>
</a>
</g>
<text xml:space="preserve" text-anchor="start" x="147.6" y="-120.75" font-family="Helvetica,sans-Serif" font-size="10.00" fill="grey">&lt; ArgumentGraphNode * &gt;</text>
</g>
</g>
</svg>
