<?xml version="1.0" encoding="UTF-8" standalone="no"?>
<!DOCTYPE svg PUBLIC "-//W3C//DTD SVG 1.1//EN"
 "http://www.w3.org/Graphics/SVG/1.1/DTD/svg11.dtd">
<!-- Generated by graphviz version 13.1.2 (20250808.2320)
 -->
<!-- Title: llvm::FirstIndexOfType&lt; T, T, Us... &gt; Pages: 1 -->
<svg width="250pt" height="122pt"
 viewBox="0.00 0.00 250.00 122.00" xmlns="http://www.w3.org/2000/svg" xmlns:xlink="http://www.w3.org/1999/xlink">
<g id="graph0" class="graph" transform="scale(1 1) rotate(0) translate(4 118.25)">
<title>llvm::FirstIndexOfType&lt; T, T, Us... &gt;</title>
<!-- Node1 -->
<g id="Node000001" class="node">
<title>Node1</title>
<g id="a_Node000001"><a xlink:title=" ">
<polygon fill="#999999" stroke="#666666" points="177.38,-30.5 62.38,-30.5 62.38,0 177.38,0 177.38,-30.5"/>
<text xml:space="preserve" text-anchor="start" x="70.38" y="-17" font-family="Helvetica,sans-Serif" font-size="10.00">llvm::FirstIndexOfType</text>
<text xml:space="preserve" text-anchor="middle" x="119.88" y="-5.75" font-family="Helvetica,sans-Serif" font-size="10.00">&lt; T, T, Us... &gt;</text>
</a>
</g>
</g>
<!-- Node2 -->
<g id="Node000002" class="node">
<title>Node2</title>
<g id="a_Node000002"><a xlink:title=" ">
<polygon fill="white" stroke="#666666" points="109.75,-114.25 0,-114.25 0,-83.75 109.75,-83.75 109.75,-114.25"/>
<text xml:space="preserve" text-anchor="start" x="8" y="-100.75" font-family="Helvetica,sans-Serif" font-size="10.00">std::integral_constant</text>
<text xml:space="preserve" text-anchor="middle" x="54.88" y="-89.5" font-family="Helvetica,sans-Serif" font-size="10.00">&lt; size_t, 0 &gt;</text>
</a>
</g>
</g>
<!-- Node2&#45;&gt;Node1 -->
<g id="edge1_Node000001_Node000002" class="edge">
<title>Node2&#45;&gt;Node1</title>
<g id="a_edge1_Node000001_Node000002"><a xlink:title=" ">
<path fill="none" stroke="#63b8ff" d="M73.42,-74.68C84.67,-60.53 98.68,-42.91 108.35,-30.74"/>
<polygon fill="#63b8ff" stroke="#63b8ff" points="70.92,-72.19 67.44,-82.2 76.4,-76.55 70.92,-72.19"/>
</a>
</g>
</g>
<!-- Node3 -->
<g id="Node000003" class="node">
<title>Node3</title>
<g id="a_Node000003"><a xlink:href="structllvm_1_1FirstIndexOfType.html" target="_top" xlink:title="Find the first index where a type appears in a list of types.">
<polygon fill="white" stroke="#666666" points="242.38,-114.25 127.38,-114.25 127.38,-83.75 242.38,-83.75 242.38,-114.25"/>
<text xml:space="preserve" text-anchor="start" x="135.38" y="-100.75" font-family="Helvetica,sans-Serif" font-size="10.00">llvm::FirstIndexOfType</text>
<text xml:space="preserve" text-anchor="middle" x="184.88" y="-89.5" font-family="Helvetica,sans-Serif" font-size="10.00">&lt; T, Us &gt;</text>
</a>
</g>
</g>
<!-- Node3&#45;&gt;Node1 -->
<g id="edge2_Node000001_Node000003" class="edge">
<title>Node3&#45;&gt;Node1</title>
<g id="a_edge2_Node000001_Node000003"><a xlink:title=" ">
<path fill="none" stroke="orange" stroke-dasharray="5,2" d="M166.33,-74.68C155.08,-60.53 141.07,-42.91 131.4,-30.74"/>
<polygon fill="orange" stroke="orange" points="163.35,-76.55 172.31,-82.2 168.83,-72.19 163.35,-76.55"/>
</a>
</g>
<text xml:space="preserve" text-anchor="start" x="161.2" y="-53.25" font-family="Helvetica,sans-Serif" font-size="10.00" fill="grey">&lt; T, T, Us... &gt;</text>
</g>
</g>
</svg>
