<?xml version="1.0" encoding="UTF-8" standalone="no"?>
<!DOCTYPE svg PUBLIC "-//W3C//DTD SVG 1.1//EN"
 "http://www.w3.org/Graphics/SVG/1.1/DTD/svg11.dtd">
<!-- Generated by graphviz version 13.1.2 (20250808.2320)
 -->
<!-- Title: llvm::GraphTraits&lt; const MachineFunction * &gt; Pages: 1 -->
<svg width="339pt" height="190pt"
 viewBox="0.00 0.00 339.00 190.00" xmlns="http://www.w3.org/2000/svg" xmlns:xlink="http://www.w3.org/1999/xlink">
<g id="graph0" class="graph" transform="scale(1 1) rotate(0) translate(4 185.75)">
<title>llvm::GraphTraits&lt; const MachineFunction * &gt;</title>
<!-- Node1 -->
<g id="Node000001" class="node">
<title>Node1</title>
<g id="a_Node000001"><a xlink:title=" ">
<polygon fill="#999999" stroke="#666666" points="162.5,-30.5 26.5,-30.5 26.5,0 162.5,0 162.5,-30.5"/>
<text xml:space="preserve" text-anchor="start" x="34.5" y="-17" font-family="Helvetica,sans-Serif" font-size="10.00">llvm::GraphTraits&lt;</text>
<text xml:space="preserve" text-anchor="middle" x="94.5" y="-5.75" font-family="Helvetica,sans-Serif" font-size="10.00"> const MachineFunction * &gt;</text>
</a>
</g>
</g>
<!-- Node2 -->
<g id="Node000002" class="node">
<title>Node2</title>
<g id="a_Node000002"><a xlink:href="structllvm_1_1GraphTraits_3_01const_01MachineBasicBlock_01_5_01_4.html" target="_top" xlink:title=" ">
<polygon fill="white" stroke="#666666" points="330.5,-98 182.5,-98 182.5,-67.5 330.5,-67.5 330.5,-98"/>
<text xml:space="preserve" text-anchor="start" x="190.5" y="-84.5" font-family="Helvetica,sans-Serif" font-size="10.00">llvm::GraphTraits&lt;</text>
<text xml:space="preserve" text-anchor="middle" x="256.5" y="-73.25" font-family="Helvetica,sans-Serif" font-size="10.00"> const MachineBasicBlock * &gt;</text>
</a>
</g>
</g>
<!-- Node2&#45;&gt;Node1 -->
<g id="edge1_Node000001_Node000002" class="edge">
<title>Node2&#45;&gt;Node1</title>
<g id="a_edge1_Node000001_Node000002"><a xlink:title=" ">
<path fill="none" stroke="#63b8ff" d="M209.74,-62.84C184.59,-52.68 154.05,-40.33 130.73,-30.9"/>
<polygon fill="#63b8ff" stroke="#63b8ff" points="208.16,-65.98 218.74,-66.48 210.78,-59.49 208.16,-65.98"/>
</a>
</g>
</g>
<!-- Node3 -->
<g id="Node000003" class="node">
<title>Node3</title>
<g id="a_Node000003"><a xlink:href="structllvm_1_1GraphTraits.html" target="_top" xlink:title=" ">
<polygon fill="white" stroke="#666666" points="97,-181.75 0,-181.75 0,-151.25 97,-151.25 97,-181.75"/>
<text xml:space="preserve" text-anchor="start" x="8" y="-168.25" font-family="Helvetica,sans-Serif" font-size="10.00">llvm::GraphTraits&lt;</text>
<text xml:space="preserve" text-anchor="middle" x="48.5" y="-157" font-family="Helvetica,sans-Serif" font-size="10.00"> GraphType &gt;</text>
</a>
</g>
</g>
<!-- Node3&#45;&gt;Node1 -->
<g id="edge3_Node000001_Node000003" class="edge">
<title>Node3&#45;&gt;Node1</title>
<g id="a_edge3_Node000001_Node000003"><a xlink:title=" ">
<path fill="none" stroke="orange" stroke-dasharray="5,2" d="M40.46,-139.94C35.48,-119.52 31.7,-90.6 41.5,-67.5 47.8,-52.65 60.73,-40.01 72.25,-30.99"/>
<polygon fill="orange" stroke="orange" points="37.04,-140.68 43.04,-149.41 43.79,-138.84 37.04,-140.68"/>
</a>
</g>
<text xml:space="preserve" text-anchor="start" x="44.5" y="-78.88" font-family="Helvetica,sans-Serif" font-size="10.00" fill="grey">&lt; const MachineFunction * &gt;</text>
</g>
<!-- Node3&#45;&gt;Node2 -->
<g id="edge2_Node000002_Node000003" class="edge">
<title>Node3&#45;&gt;Node2</title>
<g id="a_edge2_Node000002_Node000003"><a xlink:title=" ">
<path fill="none" stroke="orange" stroke-dasharray="5,2" d="M96.32,-146.7C133.71,-132.01 184.92,-111.88 219.29,-98.38"/>
<polygon fill="orange" stroke="orange" points="95.12,-143.42 87.09,-150.33 97.68,-149.93 95.12,-143.42"/>
</a>
</g>
<text xml:space="preserve" text-anchor="start" x="174.13" y="-120.75" font-family="Helvetica,sans-Serif" font-size="10.00" fill="grey">&lt; const MachineBasicBlock * &gt;</text>
</g>
</g>
</svg>
