<?xml version="1.0" encoding="UTF-8" standalone="no"?>
<!DOCTYPE svg PUBLIC "-//W3C//DTD SVG 1.1//EN"
 "http://www.w3.org/Graphics/SVG/1.1/DTD/svg11.dtd">
<!-- Generated by graphviz version 13.1.2 (20250808.2320)
 -->
<!-- Title: llvm::rdf::CodeNode Pages: 1 -->
<svg width="410pt" height="193pt"
 viewBox="0.00 0.00 410.00 193.00" xmlns="http://www.w3.org/2000/svg" xmlns:xlink="http://www.w3.org/1999/xlink">
<g id="graph0" class="graph" transform="scale(1 1) rotate(0) translate(4 189)">
<title>llvm::rdf::CodeNode</title>
<!-- Node1 -->
<g id="Node000001" class="node">
<title>Node1</title>
<g id="a_Node000001"><a xlink:title=" ">
<polygon fill="#999999" stroke="#666666" points="226.5,-129.75 122.75,-129.75 122.75,-110.5 226.5,-110.5 226.5,-129.75"/>
<text xml:space="preserve" text-anchor="middle" x="174.62" y="-116.25" font-family="Helvetica,sans-Serif" font-size="10.00">llvm::rdf::CodeNode</text>
</a>
</g>
</g>
<!-- Node3 -->
<g id="Node000003" class="node">
<title>Node3</title>
<g id="a_Node000003"><a xlink:href="structllvm_1_1rdf_1_1BlockNode.html" target="_top" xlink:title=" ">
<polygon fill="white" stroke="#666666" points="105.25,-74.5 0,-74.5 0,-55.25 105.25,-55.25 105.25,-74.5"/>
<text xml:space="preserve" text-anchor="middle" x="52.62" y="-61" font-family="Helvetica,sans-Serif" font-size="10.00">llvm::rdf::BlockNode</text>
</a>
</g>
</g>
<!-- Node1&#45;&gt;Node3 -->
<g id="edge2_Node000001_Node000003" class="edge">
<title>Node1&#45;&gt;Node3</title>
<g id="a_edge2_Node000001_Node000003"><a xlink:title=" ">
<path fill="none" stroke="#63b8ff" d="M143.46,-105.52C121.48,-95.93 92.65,-83.34 73.42,-74.95"/>
<polygon fill="#63b8ff" stroke="#63b8ff" points="141.98,-108.69 152.54,-109.49 144.78,-102.28 141.98,-108.69"/>
</a>
</g>
</g>
<!-- Node4 -->
<g id="Node000004" class="node">
<title>Node4</title>
<g id="a_Node000004"><a xlink:href="structllvm_1_1rdf_1_1FuncNode.html" target="_top" xlink:title=" ">
<polygon fill="white" stroke="#666666" points="225.75,-74.5 123.5,-74.5 123.5,-55.25 225.75,-55.25 225.75,-74.5"/>
<text xml:space="preserve" text-anchor="middle" x="174.62" y="-61" font-family="Helvetica,sans-Serif" font-size="10.00">llvm::rdf::FuncNode</text>
</a>
</g>
</g>
<!-- Node1&#45;&gt;Node4 -->
<g id="edge3_Node000001_Node000004" class="edge">
<title>Node1&#45;&gt;Node4</title>
<g id="a_edge3_Node000001_Node000004"><a xlink:title=" ">
<path fill="none" stroke="#63b8ff" d="M174.62,-98.88C174.62,-90.59 174.62,-81.42 174.62,-74.86"/>
<polygon fill="#63b8ff" stroke="#63b8ff" points="171.13,-98.82 174.63,-108.82 178.13,-98.82 171.13,-98.82"/>
</a>
</g>
</g>
<!-- Node5 -->
<g id="Node000005" class="node">
<title>Node5</title>
<g id="a_Node000005"><a xlink:href="structllvm_1_1rdf_1_1InstrNode.html" target="_top" xlink:title=" ">
<polygon fill="white" stroke="#666666" points="343.62,-74.5 243.62,-74.5 243.62,-55.25 343.62,-55.25 343.62,-74.5"/>
<text xml:space="preserve" text-anchor="middle" x="293.62" y="-61" font-family="Helvetica,sans-Serif" font-size="10.00">llvm::rdf::InstrNode</text>
</a>
</g>
</g>
<!-- Node1&#45;&gt;Node5 -->
<g id="edge4_Node000001_Node000005" class="edge">
<title>Node1&#45;&gt;Node5</title>
<g id="a_edge4_Node000001_Node000005"><a xlink:title=" ">
<path fill="none" stroke="#63b8ff" d="M205.03,-105.52C226.46,-95.93 254.59,-83.34 273.34,-74.95"/>
<polygon fill="#63b8ff" stroke="#63b8ff" points="203.89,-102.19 196.19,-109.47 206.75,-108.58 203.89,-102.19"/>
</a>
</g>
</g>
<!-- Node2 -->
<g id="Node000002" class="node">
<title>Node2</title>
<g id="a_Node000002"><a xlink:href="structllvm_1_1rdf_1_1NodeBase.html" target="_top" xlink:title=" ">
<polygon fill="white" stroke="#666666" points="226.12,-185 123.12,-185 123.12,-165.75 226.12,-165.75 226.12,-185"/>
<text xml:space="preserve" text-anchor="middle" x="174.62" y="-171.5" font-family="Helvetica,sans-Serif" font-size="10.00">llvm::rdf::NodeBase</text>
</a>
</g>
</g>
<!-- Node2&#45;&gt;Node1 -->
<g id="edge1_Node000001_Node000002" class="edge">
<title>Node2&#45;&gt;Node1</title>
<g id="a_edge1_Node000001_Node000002"><a xlink:title=" ">
<path fill="none" stroke="#63b8ff" d="M174.62,-154.13C174.62,-145.84 174.62,-136.67 174.62,-130.11"/>
<polygon fill="#63b8ff" stroke="#63b8ff" points="171.13,-154.07 174.63,-164.07 178.13,-154.07 171.13,-154.07"/>
</a>
</g>
</g>
<!-- Node6 -->
<g id="Node000006" class="node">
<title>Node6</title>
<g id="a_Node000006"><a xlink:href="structllvm_1_1rdf_1_1PhiNode.html" target="_top" xlink:title=" ">
<polygon fill="white" stroke="#666666" points="283,-19.25 188.25,-19.25 188.25,0 283,0 283,-19.25"/>
<text xml:space="preserve" text-anchor="middle" x="235.62" y="-5.75" font-family="Helvetica,sans-Serif" font-size="10.00">llvm::rdf::PhiNode</text>
</a>
</g>
</g>
<!-- Node5&#45;&gt;Node6 -->
<g id="edge5_Node000005_Node000006" class="edge">
<title>Node5&#45;&gt;Node6</title>
<g id="a_edge5_Node000005_Node000006"><a xlink:title=" ">
<path fill="none" stroke="#63b8ff" d="M275.36,-47.11C265.41,-37.97 253.49,-27.03 245.32,-19.52"/>
<polygon fill="#63b8ff" stroke="#63b8ff" points="272.94,-49.63 282.67,-53.82 277.67,-44.48 272.94,-49.63"/>
</a>
</g>
</g>
<!-- Node7 -->
<g id="Node000007" class="node">
<title>Node7</title>
<g id="a_Node000007"><a xlink:href="structllvm_1_1rdf_1_1StmtNode.html" target="_top" xlink:title=" ">
<polygon fill="white" stroke="#666666" points="402.38,-19.25 300.88,-19.25 300.88,0 402.38,0 402.38,-19.25"/>
<text xml:space="preserve" text-anchor="middle" x="351.62" y="-5.75" font-family="Helvetica,sans-Serif" font-size="10.00">llvm::rdf::StmtNode</text>
</a>
</g>
</g>
<!-- Node5&#45;&gt;Node7 -->
<g id="edge6_Node000005_Node000007" class="edge">
<title>Node5&#45;&gt;Node7</title>
<g id="a_edge6_Node000005_Node000007"><a xlink:title=" ">
<path fill="none" stroke="#63b8ff" d="M311.89,-47.11C321.84,-37.97 333.76,-27.03 341.93,-19.52"/>
<polygon fill="#63b8ff" stroke="#63b8ff" points="309.58,-44.48 304.58,-53.82 314.31,-49.63 309.58,-44.48"/>
</a>
</g>
</g>
</g>
</svg>
