<?xml version="1.0" encoding="UTF-8" standalone="no"?>
<!DOCTYPE svg PUBLIC "-//W3C//DTD SVG 1.1//EN"
 "http://www.w3.org/Graphics/SVG/1.1/DTD/svg11.dtd">
<!-- Generated by graphviz version 13.1.2 (20250808.2320)
 -->
<!-- Title: llvm::object::Elf_Sym_Base&lt; ELFT &gt; Pages: 1 -->
<svg width="721pt" height="181pt"
 viewBox="0.00 0.00 721.00 181.00" xmlns="http://www.w3.org/2000/svg" xmlns:xlink="http://www.w3.org/1999/xlink">
<g id="graph0" class="graph" transform="scale(1 1) rotate(0) translate(4 176.66)">
<title>llvm::object::Elf_Sym_Base&lt; ELFT &gt;</title>
<!-- Node1 -->
<g id="Node000001" class="node">
<title>Node1</title>
<g id="a_Node000001"><a xlink:title=" ">
<polygon fill="#999999" stroke="#666666" points="109.75,-123.12 0,-123.12 0,-92.62 109.75,-92.62 109.75,-123.12"/>
<text xml:space="preserve" text-anchor="start" x="8" y="-109.62" font-family="Helvetica,sans-Serif" font-size="10.00">llvm::object::Elf_Sym</text>
<text xml:space="preserve" text-anchor="middle" x="54.88" y="-98.38" font-family="Helvetica,sans-Serif" font-size="10.00">_Base&lt; ELFT &gt;</text>
</a>
</g>
</g>
<!-- Node2 -->
<g id="Node000002" class="node">
<title>Node2</title>
<g id="a_Node000002"><a xlink:href="structllvm_1_1object_1_1Elf__Sym__Impl.html" target="_top" xlink:title=" ">
<polygon fill="white" stroke="#666666" points="712.5,-172.12 566,-172.12 566,-141.62 712.5,-141.62 712.5,-172.12"/>
<text xml:space="preserve" text-anchor="start" x="574" y="-158.62" font-family="Helvetica,sans-Serif" font-size="10.00">llvm::object::Elf_Sym</text>
<text xml:space="preserve" text-anchor="middle" x="639.25" y="-147.38" font-family="Helvetica,sans-Serif" font-size="10.00">_Impl&lt; ELFType&lt; E, Is64 &gt; &gt;</text>
</a>
</g>
</g>
<!-- Node1&#45;&gt;Node2 -->
<g id="edge1_Node000001_Node000002" class="edge">
<title>Node1&#45;&gt;Node2</title>
<g id="a_edge1_Node000001_Node000002"><a xlink:title=" ">
<path fill="none" stroke="#63b8ff" d="M100.88,-127.8C109.67,-131.19 118.91,-134.4 127.75,-136.88 308.01,-187.25 360.98,-171.12 548,-163.88 553.81,-163.65 559.83,-163.34 565.87,-162.98"/>
<polygon fill="#63b8ff" stroke="#63b8ff" points="102.42,-124.65 91.83,-124.19 99.82,-131.15 102.42,-124.65"/>
</a>
</g>
</g>
<!-- Node3 -->
<g id="Node000003" class="node">
<title>Node3</title>
<g id="a_Node000003"><a xlink:href="structllvm_1_1object_1_1Elf__Sym__Impl.html" target="_top" xlink:title=" ">
<polygon fill="white" stroke="#666666" points="395,-150.12 285.25,-150.12 285.25,-119.62 395,-119.62 395,-150.12"/>
<text xml:space="preserve" text-anchor="start" x="293.25" y="-136.62" font-family="Helvetica,sans-Serif" font-size="10.00">llvm::object::Elf_Sym</text>
<text xml:space="preserve" text-anchor="middle" x="340.12" y="-125.38" font-family="Helvetica,sans-Serif" font-size="10.00">_Impl&lt; ELFT &gt;</text>
</a>
</g>
</g>
<!-- Node1&#45;&gt;Node3 -->
<g id="edge2_Node000001_Node000003" class="edge">
<title>Node1&#45;&gt;Node3</title>
<g id="a_edge2_Node000001_Node000003"><a xlink:title=" ">
<path fill="none" stroke="#63b8ff" d="M121.18,-117.13C123.39,-117.39 125.59,-117.64 127.75,-117.88 181.18,-123.74 242.42,-128.44 285.18,-131.4"/>
<polygon fill="#63b8ff" stroke="#63b8ff" points="121.85,-113.68 111.49,-115.93 120.99,-120.63 121.85,-113.68"/>
</a>
</g>
</g>
<!-- Node4 -->
<g id="Node000004" class="node">
<title>Node4</title>
<g id="a_Node000004"><a xlink:href="structllvm_1_1object_1_1Elf__Sym__Base_3_01ELFType_3_01Endianness_00_01false_01_4_01_4.html" target="_top" xlink:title=" ">
<polygon fill="white" stroke="#666666" points="417.5,-101.75 262.75,-101.75 262.75,-60 417.5,-60 417.5,-101.75"/>
<text xml:space="preserve" text-anchor="start" x="270.75" y="-88.25" font-family="Helvetica,sans-Serif" font-size="10.00">llvm::object::Elf_Sym</text>
<text xml:space="preserve" text-anchor="start" x="270.75" y="-77" font-family="Helvetica,sans-Serif" font-size="10.00">_Base&lt; ELFType&lt; Endianness,</text>
<text xml:space="preserve" text-anchor="middle" x="340.12" y="-65.75" font-family="Helvetica,sans-Serif" font-size="10.00"> false &gt; &gt;</text>
</a>
</g>
</g>
<!-- Node1&#45;&gt;Node4 -->
<g id="edge4_Node000001_Node000004" class="edge">
<title>Node1&#45;&gt;Node4</title>
<g id="a_edge4_Node000001_Node000004"><a xlink:title=" ">
<path fill="none" stroke="orange" stroke-dasharray="5,2" d="M101.57,-88.33C110.12,-85.45 119.1,-82.93 127.75,-81.38 172,-73.42 222.3,-72.97 262.73,-74.65"/>
<polygon fill="orange" stroke="orange" points="100.66,-84.94 92.44,-91.61 103.03,-91.52 100.66,-84.94"/>
</a>
</g>
<text xml:space="preserve" text-anchor="start" x="130.75" y="-101.38" font-family="Helvetica,sans-Serif" font-size="10.00" fill="grey">&lt; ELFType&lt; Endianness,</text>
<text xml:space="preserve" text-anchor="start" x="130.75" y="-86.12" font-family="Helvetica,sans-Serif" font-size="10.00" fill="grey">   false &gt; &gt;</text>
</g>
<!-- Node5 -->
<g id="Node000005" class="node">
<title>Node5</title>
<g id="a_Node000005"><a xlink:href="structllvm_1_1object_1_1Elf__Sym__Base_3_01ELFType_3_01Endianness_00_01true_01_4_01_4.html" target="_top" xlink:title=" ">
<polygon fill="white" stroke="#666666" points="417.5,-41.75 262.75,-41.75 262.75,0 417.5,0 417.5,-41.75"/>
<text xml:space="preserve" text-anchor="start" x="270.75" y="-28.25" font-family="Helvetica,sans-Serif" font-size="10.00">llvm::object::Elf_Sym</text>
<text xml:space="preserve" text-anchor="start" x="270.75" y="-17" font-family="Helvetica,sans-Serif" font-size="10.00">_Base&lt; ELFType&lt; Endianness,</text>
<text xml:space="preserve" text-anchor="middle" x="340.12" y="-5.75" font-family="Helvetica,sans-Serif" font-size="10.00"> true &gt; &gt;</text>
</a>
</g>
</g>
<!-- Node1&#45;&gt;Node5 -->
<g id="edge5_Node000001_Node000005" class="edge">
<title>Node1&#45;&gt;Node5</title>
<g id="a_edge5_Node000001_Node000005"><a xlink:title=" ">
<path fill="none" stroke="orange" stroke-dasharray="5,2" d="M73.4,-83.38C86.41,-67.29 105.67,-47.42 127.75,-37.38 169.63,-18.33 221.01,-13.95 262.62,-14.45"/>
<polygon fill="orange" stroke="orange" points="70.76,-81.07 67.41,-91.12 76.3,-85.35 70.76,-81.07"/>
</a>
</g>
<text xml:space="preserve" text-anchor="start" x="130.75" y="-57.38" font-family="Helvetica,sans-Serif" font-size="10.00" fill="grey">&lt; ELFType&lt; Endianness,</text>
<text xml:space="preserve" text-anchor="start" x="130.75" y="-42.12" font-family="Helvetica,sans-Serif" font-size="10.00" fill="grey">   true &gt; &gt;</text>
</g>
<!-- Node3&#45;&gt;Node2 -->
<g id="edge3_Node000003_Node000002" class="edge">
<title>Node3&#45;&gt;Node2</title>
<g id="a_edge3_Node000003_Node000002"><a xlink:title=" ">
<path fill="none" stroke="orange" stroke-dasharray="5,2" d="M406.6,-137.65C447.33,-139.61 500.76,-142.6 548,-146.62 553.81,-147.12 559.83,-147.69 565.87,-148.29"/>
<polygon fill="orange" stroke="orange" points="406.86,-134.16 396.71,-137.18 406.53,-141.15 406.86,-134.16"/>
</a>
</g>
<text xml:space="preserve" text-anchor="start" x="438.5" y="-151.38" font-family="Helvetica,sans-Serif" font-size="10.00" fill="grey">&lt; ELFType&lt; E, Is64 &gt; &gt;</text>
</g>
</g>
</svg>
