<?xml version="1.0" encoding="UTF-8" standalone="no"?>
<!DOCTYPE svg PUBLIC "-//W3C//DTD SVG 1.1//EN"
 "http://www.w3.org/Graphics/SVG/1.1/DTD/svg11.dtd">
<!-- Generated by graphviz version 13.1.2 (20250808.2320)
 -->
<!-- Title: llvm::isa_impl_cl&lt; To, From &gt; Pages: 1 -->
<svg width="384pt" height="296pt"
 viewBox="0.00 0.00 384.00 296.00" xmlns="http://www.w3.org/2000/svg" xmlns:xlink="http://www.w3.org/1999/xlink">
<g id="graph0" class="graph" transform="scale(1 1) rotate(0) translate(4 292.16)">
<title>llvm::isa_impl_cl&lt; To, From &gt;</title>
<!-- Node1 -->
<g id="Node000001" class="node">
<title>Node1</title>
<g id="a_Node000001"><a xlink:title=" ">
<polygon fill="#999999" stroke="#666666" points="94.75,-164.12 0,-164.12 0,-133.62 94.75,-133.62 94.75,-164.12"/>
<text xml:space="preserve" text-anchor="start" x="8" y="-150.62" font-family="Helvetica,sans-Serif" font-size="10.00">llvm::isa_impl_cl&lt;</text>
<text xml:space="preserve" text-anchor="middle" x="47.38" y="-139.38" font-family="Helvetica,sans-Serif" font-size="10.00"> To, From &gt;</text>
</a>
</g>
</g>
<!-- Node2 -->
<g id="Node000002" class="node">
<title>Node2</title>
<g id="a_Node000002"><a xlink:href="structllvm_1_1isa__impl__cl_3_01To_00_01From_01_5_01_4.html" target="_top" xlink:title=" ">
<polygon fill="white" stroke="#666666" points="361.25,-287.12 266.5,-287.12 266.5,-256.62 361.25,-256.62 361.25,-287.12"/>
<text xml:space="preserve" text-anchor="start" x="274.5" y="-273.62" font-family="Helvetica,sans-Serif" font-size="10.00">llvm::isa_impl_cl&lt;</text>
<text xml:space="preserve" text-anchor="middle" x="313.88" y="-262.38" font-family="Helvetica,sans-Serif" font-size="10.00"> To, From * &gt;</text>
</a>
</g>
</g>
<!-- Node1&#45;&gt;Node2 -->
<g id="edge1_Node000001_Node000002" class="edge">
<title>Node1&#45;&gt;Node2</title>
<g id="a_edge1_Node000001_Node000002"><a xlink:title=" ">
<path fill="none" stroke="orange" stroke-dasharray="5,2" d="M60.39,-174.29C71.22,-194.29 89.07,-221.17 112.75,-235.88 159.38,-264.84 223.2,-271.9 266.12,-272.98"/>
<polygon fill="orange" stroke="orange" points="63.62,-172.92 55.93,-165.63 57.4,-176.12 63.62,-172.92"/>
</a>
</g>
<text xml:space="preserve" text-anchor="start" x="141.25" y="-275.66" font-family="Helvetica,sans-Serif" font-size="10.00" fill="grey">&lt; To, From * &gt;</text>
</g>
<!-- Node3 -->
<g id="Node000003" class="node">
<title>Node3</title>
<g id="a_Node000003"><a xlink:href="structllvm_1_1isa__impl__cl_3_01To_00_01From_01_5const_01_4.html" target="_top" xlink:title=" ">
<polygon fill="white" stroke="#666666" points="362.75,-238.12 265,-238.12 265,-207.62 362.75,-207.62 362.75,-238.12"/>
<text xml:space="preserve" text-anchor="start" x="273" y="-224.62" font-family="Helvetica,sans-Serif" font-size="10.00">llvm::isa_impl_cl&lt;</text>
<text xml:space="preserve" text-anchor="middle" x="313.88" y="-213.38" font-family="Helvetica,sans-Serif" font-size="10.00"> To, From *const &gt;</text>
</a>
</g>
</g>
<!-- Node1&#45;&gt;Node3 -->
<g id="edge2_Node000001_Node000003" class="edge">
<title>Node1&#45;&gt;Node3</title>
<g id="a_edge2_Node000001_Node000003"><a xlink:title=" ">
<path fill="none" stroke="orange" stroke-dasharray="5,2" d="M79.92,-170.51C90.03,-176.61 101.53,-182.71 112.75,-186.88 162.72,-205.43 223.37,-214.62 264.71,-219.04"/>
<polygon fill="orange" stroke="orange" points="81.94,-167.65 71.61,-165.29 78.22,-173.58 81.94,-167.65"/>
</a>
</g>
<text xml:space="preserve" text-anchor="start" x="129.25" y="-219.43" font-family="Helvetica,sans-Serif" font-size="10.00" fill="grey">&lt; To, From *const &gt;</text>
</g>
<!-- Node4 -->
<g id="Node000004" class="node">
<title>Node4</title>
<g id="a_Node000004"><a xlink:href="structllvm_1_1isa__impl__cl_3_01To_00_01const_01From_01_5_01_4.html" target="_top" xlink:title=" ">
<polygon fill="white" stroke="#666666" points="364.25,-189.12 263.5,-189.12 263.5,-158.62 364.25,-158.62 364.25,-189.12"/>
<text xml:space="preserve" text-anchor="start" x="271.5" y="-175.62" font-family="Helvetica,sans-Serif" font-size="10.00">llvm::isa_impl_cl&lt;</text>
<text xml:space="preserve" text-anchor="middle" x="313.88" y="-164.38" font-family="Helvetica,sans-Serif" font-size="10.00"> To, const From * &gt;</text>
</a>
</g>
</g>
<!-- Node1&#45;&gt;Node4 -->
<g id="edge3_Node000001_Node000004" class="edge">
<title>Node1&#45;&gt;Node4</title>
<g id="a_edge3_Node000001_Node000004"><a xlink:title=" ">
<path fill="none" stroke="orange" stroke-dasharray="5,2" d="M106.25,-154.35C153.13,-158.78 218.49,-164.95 263.07,-169.17"/>
<polygon fill="orange" stroke="orange" points="106.85,-150.89 96.56,-153.43 106.19,-157.85 106.85,-150.89"/>
</a>
</g>
<text xml:space="preserve" text-anchor="start" x="127.75" y="-170.54" font-family="Helvetica,sans-Serif" font-size="10.00" fill="grey">&lt; To, const From * &gt;</text>
</g>
<!-- Node5 -->
<g id="Node000005" class="node">
<title>Node5</title>
<g id="a_Node000005"><a xlink:href="structllvm_1_1isa__impl__cl_3_01To_00_01const_01From_01_5const_01_4.html" target="_top" xlink:title=" ">
<polygon fill="white" stroke="#666666" points="376.25,-140.12 251.5,-140.12 251.5,-109.62 376.25,-109.62 376.25,-140.12"/>
<text xml:space="preserve" text-anchor="start" x="259.5" y="-126.62" font-family="Helvetica,sans-Serif" font-size="10.00">llvm::isa_impl_cl&lt;</text>
<text xml:space="preserve" text-anchor="middle" x="313.88" y="-115.38" font-family="Helvetica,sans-Serif" font-size="10.00"> To, const From *const &gt;</text>
</a>
</g>
</g>
<!-- Node1&#45;&gt;Node5 -->
<g id="edge4_Node000001_Node000005" class="edge">
<title>Node1&#45;&gt;Node5</title>
<g id="a_edge4_Node000001_Node000005"><a xlink:title=" ">
<path fill="none" stroke="orange" stroke-dasharray="5,2" d="M106.15,-135.6C108.38,-135.24 110.58,-134.92 112.75,-134.62 158.95,-128.43 211.61,-126.05 251.32,-125.19"/>
<polygon fill="orange" stroke="orange" points="105.69,-132.13 96.46,-137.32 106.92,-139.02 105.69,-132.13"/>
</a>
</g>
<text xml:space="preserve" text-anchor="start" x="115.75" y="-139.38" font-family="Helvetica,sans-Serif" font-size="10.00" fill="grey">&lt; To, const From *const &gt;</text>
</g>
<!-- Node6 -->
<g id="Node000006" class="node">
<title>Node6</title>
<g id="a_Node000006"><a xlink:href="structllvm_1_1isa__impl__cl_3_01To_00_01const_01From_01_4.html" target="_top" xlink:title=" ">
<polygon fill="white" stroke="#666666" points="361.25,-91.12 266.5,-91.12 266.5,-60.62 361.25,-60.62 361.25,-91.12"/>
<text xml:space="preserve" text-anchor="start" x="274.5" y="-77.62" font-family="Helvetica,sans-Serif" font-size="10.00">llvm::isa_impl_cl&lt;</text>
<text xml:space="preserve" text-anchor="middle" x="313.88" y="-66.38" font-family="Helvetica,sans-Serif" font-size="10.00"> To, const From &gt;</text>
</a>
</g>
</g>
<!-- Node1&#45;&gt;Node6 -->
<g id="edge5_Node000001_Node000006" class="edge">
<title>Node1&#45;&gt;Node6</title>
<g id="a_edge5_Node000001_Node000006"><a xlink:title=" ">
<path fill="none" stroke="orange" stroke-dasharray="5,2" d="M75.24,-126.3C86.23,-118.21 99.46,-109.82 112.75,-104.62 162.77,-85.08 224.49,-78.63 266.05,-76.6"/>
<polygon fill="orange" stroke="orange" points="73.21,-123.45 67.42,-132.32 77.48,-128.99 73.21,-123.45"/>
</a>
</g>
<text xml:space="preserve" text-anchor="start" x="131.12" y="-109.38" font-family="Helvetica,sans-Serif" font-size="10.00" fill="grey">&lt; To, const From &gt;</text>
</g>
<!-- Node7 -->
<g id="Node000007" class="node">
<title>Node7</title>
<g id="a_Node000007"><a xlink:href="structllvm_1_1isa__impl__cl_3_01To_00_01const_01std_1_1unique__ptr_3_01From_01_4_01_4.html" target="_top" xlink:title=" ">
<polygon fill="white" stroke="#666666" points="369.12,-41.75 258.62,-41.75 258.62,0 369.12,0 369.12,-41.75"/>
<text xml:space="preserve" text-anchor="start" x="266.62" y="-28.25" font-family="Helvetica,sans-Serif" font-size="10.00">llvm::isa_impl_cl&lt;</text>
<text xml:space="preserve" text-anchor="start" x="266.62" y="-17" font-family="Helvetica,sans-Serif" font-size="10.00"> To, const std::unique</text>
<text xml:space="preserve" text-anchor="middle" x="313.88" y="-5.75" font-family="Helvetica,sans-Serif" font-size="10.00">_ptr&lt; From &gt; &gt;</text>
</a>
</g>
</g>
<!-- Node1&#45;&gt;Node7 -->
<g id="edge6_Node000001_Node000007" class="edge">
<title>Node1&#45;&gt;Node7</title>
<g id="a_edge6_Node000001_Node000007"><a xlink:title=" ">
<path fill="none" stroke="orange" stroke-dasharray="5,2" d="M56.52,-122.81C65.83,-97.7 83.67,-60.89 112.75,-42.38 156.08,-14.78 215.63,-11.79 258.49,-14.24"/>
<polygon fill="orange" stroke="orange" points="53.31,-121.38 53.33,-131.98 59.92,-123.68 53.31,-121.38"/>
</a>
</g>
<text xml:space="preserve" text-anchor="start" x="122.88" y="-62.38" font-family="Helvetica,sans-Serif" font-size="10.00" fill="grey">&lt; To, const std::unique</text>
<text xml:space="preserve" text-anchor="start" x="122.88" y="-47.12" font-family="Helvetica,sans-Serif" font-size="10.00" fill="grey">  _ptr&lt; From &gt; &gt;</text>
</g>
</g>
</svg>
