<?xml version="1.0" encoding="UTF-8" standalone="no"?>
<!DOCTYPE svg PUBLIC "-//W3C//DTD SVG 1.1//EN"
 "http://www.w3.org/Graphics/SVG/1.1/DTD/svg11.dtd">
<!-- Generated by graphviz version 13.1.2 (20250808.2320)
 -->
<!-- Title: llvm::AAUnderlyingObjects Pages: 1 -->
<svg width="232pt" height="216pt"
 viewBox="0.00 0.00 232.00 216.00" xmlns="http://www.w3.org/2000/svg" xmlns:xlink="http://www.w3.org/1999/xlink">
<g id="graph0" class="graph" transform="scale(1 1) rotate(0) translate(4 211.5)">
<title>llvm::AAUnderlyingObjects</title>
<!-- Node1 -->
<g id="Node000001" class="node">
<title>Node1</title>
<g id="a_Node000001"><a xlink:title="An abstract attribute for getting all assumption underlying objects.">
<polygon fill="#999999" stroke="#666666" points="169.75,-97 36,-97 36,-77.75 169.75,-77.75 169.75,-97"/>
<text xml:space="preserve" text-anchor="middle" x="102.88" y="-83.5" font-family="Helvetica,sans-Serif" font-size="10.00">llvm::AAUnderlyingObjects</text>
</a>
</g>
</g>
<!-- Node5 -->
<g id="Node000005" class="node">
<title>Node5</title>
<g id="a_Node000005"><a xlink:href="structllvm_1_1StateWrapper.html" target="_top" xlink:title=" ">
<polygon fill="white" stroke="#666666" points="177.25,-41.75 28.5,-41.75 28.5,0 177.25,0 177.25,-41.75"/>
<text xml:space="preserve" text-anchor="start" x="36.5" y="-28.25" font-family="Helvetica,sans-Serif" font-size="10.00">llvm::StateWrapper</text>
<text xml:space="preserve" text-anchor="start" x="36.5" y="-17" font-family="Helvetica,sans-Serif" font-size="10.00">&lt; BooleanState, AAUnderlying</text>
<text xml:space="preserve" text-anchor="middle" x="102.88" y="-5.75" font-family="Helvetica,sans-Serif" font-size="10.00">Objects &gt;</text>
</a>
</g>
</g>
<!-- Node1&#45;&gt;Node5 -->
<g id="edge4_Node000001_Node000005" class="edge">
<title>Node1&#45;&gt;Node5</title>
<g id="a_edge4_Node000001_Node000005"><a xlink:title=" ">
<path fill="none" stroke="#63b8ff" d="M102.88,-65.95C102.88,-58.36 102.88,-49.76 102.88,-42.18"/>
<polygon fill="#63b8ff" stroke="#63b8ff" points="99.38,-65.89 102.88,-75.89 106.38,-65.89 99.38,-65.89"/>
</a>
</g>
</g>
<!-- Node2 -->
<g id="Node000002" class="node">
<title>Node2</title>
<g id="a_Node000002"><a xlink:href="structllvm_1_1AbstractAttribute.html" target="_top" xlink:title="Base struct for all &quot;concrete attribute&quot; deductions.">
<polygon fill="white" stroke="#666666" points="159.62,-152.25 46.12,-152.25 46.12,-133 159.62,-133 159.62,-152.25"/>
<text xml:space="preserve" text-anchor="middle" x="102.88" y="-138.75" font-family="Helvetica,sans-Serif" font-size="10.00">llvm::AbstractAttribute</text>
</a>
</g>
</g>
<!-- Node2&#45;&gt;Node1 -->
<g id="edge1_Node000001_Node000002" class="edge">
<title>Node2&#45;&gt;Node1</title>
<g id="a_edge1_Node000001_Node000002"><a xlink:title=" ">
<path fill="none" stroke="#63b8ff" d="M102.88,-121.38C102.88,-113.09 102.88,-103.92 102.88,-97.36"/>
<polygon fill="#63b8ff" stroke="#63b8ff" points="99.38,-121.32 102.88,-131.32 106.38,-121.32 99.38,-121.32"/>
</a>
</g>
</g>
<!-- Node3 -->
<g id="Node000003" class="node">
<title>Node3</title>
<g id="a_Node000003"><a xlink:href="structllvm_1_1IRPosition.html" target="_top" xlink:title="Helper to describe and deal with positions in the LLVM&#45;IR.">
<polygon fill="white" stroke="#666666" points="85.75,-207.5 0,-207.5 0,-188.25 85.75,-188.25 85.75,-207.5"/>
<text xml:space="preserve" text-anchor="middle" x="42.88" y="-194" font-family="Helvetica,sans-Serif" font-size="10.00">llvm::IRPosition</text>
</a>
</g>
</g>
<!-- Node3&#45;&gt;Node2 -->
<g id="edge2_Node000002_Node000003" class="edge">
<title>Node3&#45;&gt;Node2</title>
<g id="a_edge2_Node000002_Node000003"><a xlink:title=" ">
<path fill="none" stroke="#63b8ff" d="M61.45,-180.39C71.81,-171.19 84.31,-160.1 92.85,-152.52"/>
<polygon fill="#63b8ff" stroke="#63b8ff" points="59.34,-177.58 54.19,-186.84 63.99,-182.82 59.34,-177.58"/>
</a>
</g>
</g>
<!-- Node4 -->
<g id="Node000004" class="node">
<title>Node4</title>
<g id="a_Node000004"><a xlink:href="structllvm_1_1AADepGraphNode.html" target="_top" xlink:title="}">
<polygon fill="white" stroke="#666666" points="224.38,-207.5 103.38,-207.5 103.38,-188.25 224.38,-188.25 224.38,-207.5"/>
<text xml:space="preserve" text-anchor="middle" x="163.88" y="-194" font-family="Helvetica,sans-Serif" font-size="10.00">llvm::AADepGraphNode</text>
</a>
</g>
</g>
<!-- Node4&#45;&gt;Node2 -->
<g id="edge3_Node000002_Node000004" class="edge">
<title>Node4&#45;&gt;Node2</title>
<g id="a_edge3_Node000002_Node000004"><a xlink:title=" ">
<path fill="none" stroke="#63b8ff" d="M144.99,-180.39C134.45,-171.19 121.75,-160.1 113.07,-152.52"/>
<polygon fill="#63b8ff" stroke="#63b8ff" points="142.55,-182.91 152.39,-186.85 147.16,-177.63 142.55,-182.91"/>
</a>
</g>
</g>
</g>
</svg>
