<?xml version="1.0" encoding="UTF-8" standalone="no"?>
<!DOCTYPE svg PUBLIC "-//W3C//DTD SVG 1.1//EN"
 "http://www.w3.org/Graphics/SVG/1.1/DTD/svg11.dtd">
<!-- Generated by graphviz version 13.1.2 (20250808.2320)
 -->
<!-- Title: llvm::WasmYAML::Section Pages: 1 -->
<svg width="544pt" height="569pt"
 viewBox="0.00 0.00 544.00 569.00" xmlns="http://www.w3.org/2000/svg" xmlns:xlink="http://www.w3.org/1999/xlink">
<g id="graph0" class="graph" transform="scale(1 1) rotate(0) translate(4 565.25)">
<title>llvm::WasmYAML::Section</title>
<!-- Node1 -->
<g id="Node000001" class="node">
<title>Node1</title>
<g id="a_Node000001"><a xlink:title=" ">
<polygon fill="#999999" stroke="#666666" points="132.25,-262.25 0,-262.25 0,-243 132.25,-243 132.25,-262.25"/>
<text xml:space="preserve" text-anchor="middle" x="66.12" y="-248.75" font-family="Helvetica,sans-Serif" font-size="10.00">llvm::WasmYAML::Section</text>
</a>
</g>
</g>
<!-- Node2 -->
<g id="Node000002" class="node">
<title>Node2</title>
<g id="a_Node000002"><a xlink:href="structllvm_1_1WasmYAML_1_1CodeSection.html" target="_top" xlink:title=" ">
<polygon fill="white" stroke="#666666" points="329.75,-524.25 174.25,-524.25 174.25,-505 329.75,-505 329.75,-524.25"/>
<text xml:space="preserve" text-anchor="middle" x="252" y="-510.75" font-family="Helvetica,sans-Serif" font-size="10.00">llvm::WasmYAML::CodeSection</text>
</a>
</g>
</g>
<!-- Node1&#45;&gt;Node2 -->
<g id="edge1_Node000001_Node000002" class="edge">
<title>Node1&#45;&gt;Node2</title>
<g id="a_edge1_Node000001_Node000002"><a xlink:title=" ">
<path fill="none" stroke="#63b8ff" d="M69.41,-274C75.71,-321.8 97.82,-437.78 168.25,-496.62 171.97,-499.74 176.11,-502.34 180.5,-504.53"/>
<polygon fill="#63b8ff" stroke="#63b8ff" points="72.89,-273.68 68.23,-264.17 65.94,-274.51 72.89,-273.68"/>
</a>
</g>
</g>
<!-- Node3 -->
<g id="Node000003" class="node">
<title>Node3</title>
<g id="a_Node000003"><a xlink:href="structllvm_1_1WasmYAML_1_1CustomSection.html" target="_top" xlink:title=" ">
<polygon fill="white" stroke="#666666" points="335.38,-487.25 168.62,-487.25 168.62,-468 335.38,-468 335.38,-487.25"/>
<text xml:space="preserve" text-anchor="middle" x="252" y="-473.75" font-family="Helvetica,sans-Serif" font-size="10.00">llvm::WasmYAML::CustomSection</text>
</a>
</g>
</g>
<!-- Node1&#45;&gt;Node3 -->
<g id="edge2_Node000001_Node000003" class="edge">
<title>Node1&#45;&gt;Node3</title>
<g id="a_edge2_Node000001_Node000003"><a xlink:title=" ">
<path fill="none" stroke="#63b8ff" d="M71.2,-273.75C80.48,-315.85 107.28,-410.31 168.25,-458.62 172.76,-462.2 177.81,-465.12 183.14,-467.51"/>
<polygon fill="#63b8ff" stroke="#63b8ff" points="74.68,-273.25 69.22,-264.17 67.82,-274.68 74.68,-273.25"/>
</a>
</g>
</g>
<!-- Node9 -->
<g id="Node000009" class="node">
<title>Node9</title>
<g id="a_Node000009"><a xlink:href="structllvm_1_1WasmYAML_1_1DataCountSection.html" target="_top" xlink:title=" ">
<polygon fill="white" stroke="#666666" points="325.25,-449.88 178.75,-449.88 178.75,-419.38 325.25,-419.38 325.25,-449.88"/>
<text xml:space="preserve" text-anchor="start" x="186.75" y="-436.38" font-family="Helvetica,sans-Serif" font-size="10.00">llvm::WasmYAML::DataCount</text>
<text xml:space="preserve" text-anchor="middle" x="252" y="-425.12" font-family="Helvetica,sans-Serif" font-size="10.00">Section</text>
</a>
</g>
</g>
<!-- Node1&#45;&gt;Node9 -->
<g id="edge8_Node000001_Node000009" class="edge">
<title>Node1&#45;&gt;Node9</title>
<g id="a_edge8_Node000001_Node000009"><a xlink:title=" ">
<path fill="none" stroke="#63b8ff" d="M74.58,-272.95C88.01,-306.69 119.48,-374.17 168.25,-410.62 172.56,-413.85 177.3,-416.64 182.26,-419.06"/>
<polygon fill="#63b8ff" stroke="#63b8ff" points="77.98,-272.02 71.13,-263.94 71.44,-274.53 77.98,-272.02"/>
</a>
</g>
</g>
<!-- Node10 -->
<g id="Node000010" class="node">
<title>Node10</title>
<g id="a_Node000010"><a xlink:href="structllvm_1_1WasmYAML_1_1DataSection.html" target="_top" xlink:title=" ">
<polygon fill="white" stroke="#666666" points="328.62,-401.25 175.38,-401.25 175.38,-382 328.62,-382 328.62,-401.25"/>
<text xml:space="preserve" text-anchor="middle" x="252" y="-387.75" font-family="Helvetica,sans-Serif" font-size="10.00">llvm::WasmYAML::DataSection</text>
</a>
</g>
</g>
<!-- Node1&#45;&gt;Node10 -->
<g id="edge9_Node000001_Node000010" class="edge">
<title>Node1&#45;&gt;Node10</title>
<g id="a_edge9_Node000001_Node000010"><a xlink:title=" ">
<path fill="none" stroke="#63b8ff" d="M78.08,-272.66C94.13,-300 126.67,-348.45 168.25,-373.62 173.53,-376.82 179.31,-379.46 185.27,-381.62"/>
<polygon fill="#63b8ff" stroke="#63b8ff" points="81.14,-270.96 73.16,-264 75.06,-274.42 81.14,-270.96"/>
</a>
</g>
</g>
<!-- Node11 -->
<g id="Node000011" class="node">
<title>Node11</title>
<g id="a_Node000011"><a xlink:href="structllvm_1_1WasmYAML_1_1ElemSection.html" target="_top" xlink:title=" ">
<polygon fill="white" stroke="#666666" points="329.38,-364.25 174.62,-364.25 174.62,-345 329.38,-345 329.38,-364.25"/>
<text xml:space="preserve" text-anchor="middle" x="252" y="-350.75" font-family="Helvetica,sans-Serif" font-size="10.00">llvm::WasmYAML::ElemSection</text>
</a>
</g>
</g>
<!-- Node1&#45;&gt;Node11 -->
<g id="edge10_Node000001_Node000011" class="edge">
<title>Node1&#45;&gt;Node11</title>
<g id="a_edge10_Node000001_Node000011"><a xlink:title=" ">
<path fill="none" stroke="#63b8ff" d="M83.88,-271.01C102.56,-290.35 134.6,-320.22 168.25,-336.62 174.73,-339.78 181.75,-342.39 188.89,-344.54"/>
<polygon fill="#63b8ff" stroke="#63b8ff" points="86.49,-268.69 77.09,-263.81 81.4,-273.49 86.49,-268.69"/>
</a>
</g>
</g>
<!-- Node12 -->
<g id="Node000012" class="node">
<title>Node12</title>
<g id="a_Node000012"><a xlink:href="structllvm_1_1WasmYAML_1_1ExportSection.html" target="_top" xlink:title=" ">
<polygon fill="white" stroke="#666666" points="332.38,-327.25 171.62,-327.25 171.62,-308 332.38,-308 332.38,-327.25"/>
<text xml:space="preserve" text-anchor="middle" x="252" y="-313.75" font-family="Helvetica,sans-Serif" font-size="10.00">llvm::WasmYAML::ExportSection</text>
</a>
</g>
</g>
<!-- Node1&#45;&gt;Node12 -->
<g id="edge11_Node000001_Node000012" class="edge">
<title>Node1&#45;&gt;Node12</title>
<g id="a_edge11_Node000001_Node000012"><a xlink:title=" ">
<path fill="none" stroke="#63b8ff" d="M96.27,-267.78C116.14,-277.63 143.28,-290.17 168.25,-298.62 178.3,-302.03 189.25,-305.02 199.79,-307.56"/>
<polygon fill="#63b8ff" stroke="#63b8ff" points="97.9,-264.68 87.4,-263.31 94.75,-270.93 97.9,-264.68"/>
</a>
</g>
</g>
<!-- Node13 -->
<g id="Node000013" class="node">
<title>Node13</title>
<g id="a_Node000013"><a xlink:href="structllvm_1_1WasmYAML_1_1FunctionSection.html" target="_top" xlink:title=" ">
<polygon fill="white" stroke="#666666" points="320.38,-289.88 183.62,-289.88 183.62,-259.38 320.38,-259.38 320.38,-289.88"/>
<text xml:space="preserve" text-anchor="start" x="191.62" y="-276.38" font-family="Helvetica,sans-Serif" font-size="10.00">llvm::WasmYAML::Function</text>
<text xml:space="preserve" text-anchor="middle" x="252" y="-265.12" font-family="Helvetica,sans-Serif" font-size="10.00">Section</text>
</a>
</g>
</g>
<!-- Node1&#45;&gt;Node13 -->
<g id="edge12_Node000001_Node000013" class="edge">
<title>Node1&#45;&gt;Node13</title>
<g id="a_edge12_Node000001_Node000013"><a xlink:title=" ">
<path fill="none" stroke="#63b8ff" d="M144.04,-261.83C157.05,-263.38 170.49,-264.99 183.25,-266.52"/>
<polygon fill="#63b8ff" stroke="#63b8ff" points="144.58,-258.37 134.23,-260.65 143.75,-265.32 144.58,-258.37"/>
</a>
</g>
</g>
<!-- Node14 -->
<g id="Node000014" class="node">
<title>Node14</title>
<g id="a_Node000014"><a xlink:href="structllvm_1_1WasmYAML_1_1GlobalSection.html" target="_top" xlink:title=" ">
<polygon fill="white" stroke="#666666" points="332,-241.25 172,-241.25 172,-222 332,-222 332,-241.25"/>
<text xml:space="preserve" text-anchor="middle" x="252" y="-227.75" font-family="Helvetica,sans-Serif" font-size="10.00">llvm::WasmYAML::GlobalSection</text>
</a>
</g>
</g>
<!-- Node1&#45;&gt;Node14 -->
<g id="edge13_Node000001_Node000014" class="edge">
<title>Node1&#45;&gt;Node14</title>
<g id="a_edge13_Node000001_Node000014"><a xlink:title=" ">
<path fill="none" stroke="#63b8ff" d="M144.1,-243.83C153.18,-242.8 162.46,-241.74 171.58,-240.7"/>
<polygon fill="#63b8ff" stroke="#63b8ff" points="143.77,-240.35 134.23,-244.96 144.57,-247.3 143.77,-240.35"/>
</a>
</g>
</g>
<!-- Node15 -->
<g id="Node000015" class="node">
<title>Node15</title>
<g id="a_Node000015"><a xlink:href="structllvm_1_1WasmYAML_1_1ImportSection.html" target="_top" xlink:title=" ">
<polygon fill="white" stroke="#666666" points="332,-204.25 172,-204.25 172,-185 332,-185 332,-204.25"/>
<text xml:space="preserve" text-anchor="middle" x="252" y="-190.75" font-family="Helvetica,sans-Serif" font-size="10.00">llvm::WasmYAML::ImportSection</text>
</a>
</g>
</g>
<!-- Node1&#45;&gt;Node15 -->
<g id="edge14_Node000001_Node000015" class="edge">
<title>Node1&#45;&gt;Node15</title>
<g id="a_edge14_Node000001_Node000015"><a xlink:title=" ">
<path fill="none" stroke="#63b8ff" d="M99.74,-238.16C119.32,-229.87 144.89,-219.73 168.25,-212.62 177.96,-209.67 188.44,-207 198.58,-204.68"/>
<polygon fill="#63b8ff" stroke="#63b8ff" points="98.44,-234.91 90.64,-242.07 101.21,-241.34 98.44,-234.91"/>
</a>
</g>
</g>
<!-- Node16 -->
<g id="Node000016" class="node">
<title>Node16</title>
<g id="a_Node000016"><a xlink:href="structllvm_1_1WasmYAML_1_1MemorySection.html" target="_top" xlink:title=" ">
<polygon fill="white" stroke="#666666" points="335.75,-167.25 168.25,-167.25 168.25,-148 335.75,-148 335.75,-167.25"/>
<text xml:space="preserve" text-anchor="middle" x="252" y="-153.75" font-family="Helvetica,sans-Serif" font-size="10.00">llvm::WasmYAML::MemorySection</text>
</a>
</g>
</g>
<!-- Node1&#45;&gt;Node16 -->
<g id="edge15_Node000001_Node000016" class="edge">
<title>Node1&#45;&gt;Node16</title>
<g id="a_edge15_Node000001_Node000016"><a xlink:title=" ">
<path fill="none" stroke="#63b8ff" d="M85.35,-234.74C104.43,-217.03 136.05,-190.49 168.25,-175.62 175.06,-172.48 182.44,-169.88 189.89,-167.72"/>
<polygon fill="#63b8ff" stroke="#63b8ff" points="82.98,-232.16 78.14,-241.59 87.8,-237.24 82.98,-232.16"/>
</a>
</g>
</g>
<!-- Node17 -->
<g id="Node000017" class="node">
<title>Node17</title>
<g id="a_Node000017"><a xlink:href="structllvm_1_1WasmYAML_1_1StartSection.html" target="_top" xlink:title=" ">
<polygon fill="white" stroke="#666666" points="328.62,-130.25 175.38,-130.25 175.38,-111 328.62,-111 328.62,-130.25"/>
<text xml:space="preserve" text-anchor="middle" x="252" y="-116.75" font-family="Helvetica,sans-Serif" font-size="10.00">llvm::WasmYAML::StartSection</text>
</a>
</g>
</g>
<!-- Node1&#45;&gt;Node17 -->
<g id="edge16_Node000001_Node000017" class="edge">
<title>Node1&#45;&gt;Node17</title>
<g id="a_edge16_Node000001_Node000017"><a xlink:title=" ">
<path fill="none" stroke="#63b8ff" d="M78.62,-233.37C95.09,-207.55 127.92,-162.24 168.25,-138.62 173.71,-135.43 179.66,-132.8 185.8,-130.64"/>
<polygon fill="#63b8ff" stroke="#63b8ff" points="75.85,-231.19 73.56,-241.53 81.81,-234.87 75.85,-231.19"/>
</a>
</g>
</g>
<!-- Node18 -->
<g id="Node000018" class="node">
<title>Node18</title>
<g id="a_Node000018"><a xlink:href="structllvm_1_1WasmYAML_1_1TableSection.html" target="_top" xlink:title=" ">
<polygon fill="white" stroke="#666666" points="329.75,-93.25 174.25,-93.25 174.25,-74 329.75,-74 329.75,-93.25"/>
<text xml:space="preserve" text-anchor="middle" x="252" y="-79.75" font-family="Helvetica,sans-Serif" font-size="10.00">llvm::WasmYAML::TableSection</text>
</a>
</g>
</g>
<!-- Node1&#45;&gt;Node18 -->
<g id="edge17_Node000001_Node000018" class="edge">
<title>Node1&#45;&gt;Node18</title>
<g id="a_edge17_Node000001_Node000018"><a xlink:title=" ">
<path fill="none" stroke="#63b8ff" d="M74.95,-231.93C88.59,-198.87 119.93,-134.5 168.25,-101.62 172.87,-98.48 177.94,-95.88 183.23,-93.72"/>
<polygon fill="#63b8ff" stroke="#63b8ff" points="71.72,-230.59 71.29,-241.18 78.23,-233.17 71.72,-230.59"/>
</a>
</g>
</g>
<!-- Node19 -->
<g id="Node000019" class="node">
<title>Node19</title>
<g id="a_Node000019"><a xlink:href="structllvm_1_1WasmYAML_1_1TagSection.html" target="_top" xlink:title=" ">
<polygon fill="white" stroke="#666666" points="326,-56.25 178,-56.25 178,-37 326,-37 326,-56.25"/>
<text xml:space="preserve" text-anchor="middle" x="252" y="-42.75" font-family="Helvetica,sans-Serif" font-size="10.00">llvm::WasmYAML::TagSection</text>
</a>
</g>
</g>
<!-- Node1&#45;&gt;Node19 -->
<g id="edge18_Node000001_Node000019" class="edge">
<title>Node1&#45;&gt;Node19</title>
<g id="a_edge18_Node000001_Node000019"><a xlink:title=" ">
<path fill="none" stroke="#63b8ff" d="M72.24,-231.4C82.89,-191.96 111.36,-107.49 168.25,-64.62 172.48,-61.44 177.15,-58.79 182.06,-56.6"/>
<polygon fill="#63b8ff" stroke="#63b8ff" points="68.86,-230.49 69.77,-241.05 75.64,-232.23 68.86,-230.49"/>
</a>
</g>
</g>
<!-- Node20 -->
<g id="Node000020" class="node">
<title>Node20</title>
<g id="a_Node000020"><a xlink:href="structllvm_1_1WasmYAML_1_1TypeSection.html" target="_top" xlink:title=" ">
<polygon fill="white" stroke="#666666" points="328.62,-19.25 175.38,-19.25 175.38,0 328.62,0 328.62,-19.25"/>
<text xml:space="preserve" text-anchor="middle" x="252" y="-5.75" font-family="Helvetica,sans-Serif" font-size="10.00">llvm::WasmYAML::TypeSection</text>
</a>
</g>
</g>
<!-- Node1&#45;&gt;Node20 -->
<g id="edge19_Node000001_Node000020" class="edge">
<title>Node1&#45;&gt;Node20</title>
<g id="a_edge19_Node000001_Node000020"><a xlink:title=" ">
<path fill="none" stroke="#63b8ff" d="M70.21,-231.38C77.93,-186.34 102.41,-81.01 168.25,-27.62 172.13,-24.48 176.44,-21.85 181,-19.65"/>
<polygon fill="#63b8ff" stroke="#63b8ff" points="66.78,-230.71 68.66,-241.13 73.69,-231.8 66.78,-230.71"/>
</a>
</g>
</g>
<!-- Node4 -->
<g id="Node000004" class="node">
<title>Node4</title>
<g id="a_Node000004"><a xlink:href="structllvm_1_1WasmYAML_1_1DylinkSection.html" target="_top" xlink:title=" ">
<polygon fill="white" stroke="#666666" points="534,-561.25 374,-561.25 374,-542 534,-542 534,-561.25"/>
<text xml:space="preserve" text-anchor="middle" x="454" y="-547.75" font-family="Helvetica,sans-Serif" font-size="10.00">llvm::WasmYAML::DylinkSection</text>
</a>
</g>
</g>
<!-- Node3&#45;&gt;Node4 -->
<g id="edge3_Node000003_Node000004" class="edge">
<title>Node3&#45;&gt;Node4</title>
<g id="a_edge3_Node000003_Node000004"><a xlink:title=" ">
<path fill="none" stroke="#63b8ff" d="M328.37,-491.9C330.9,-493.04 333.37,-494.28 335.75,-495.62 356.02,-507.05 351.51,-522.16 371.75,-533.62 377.41,-536.83 383.59,-539.46 389.93,-541.63"/>
<polygon fill="#63b8ff" stroke="#63b8ff" points="329.66,-488.64 319.07,-488.23 327.09,-495.15 329.66,-488.64"/>
</a>
</g>
</g>
<!-- Node5 -->
<g id="Node000005" class="node">
<title>Node5</title>
<g id="a_Node000005"><a xlink:href="structllvm_1_1WasmYAML_1_1LinkingSection.html" target="_top" xlink:title=" ">
<polygon fill="white" stroke="#666666" points="535.5,-524.25 372.5,-524.25 372.5,-505 535.5,-505 535.5,-524.25"/>
<text xml:space="preserve" text-anchor="middle" x="454" y="-510.75" font-family="Helvetica,sans-Serif" font-size="10.00">llvm::WasmYAML::LinkingSection</text>
</a>
</g>
</g>
<!-- Node3&#45;&gt;Node5 -->
<g id="edge4_Node000003_Node000005" class="edge">
<title>Node3&#45;&gt;Node5</title>
<g id="a_edge4_Node000003_Node000005"><a xlink:title=" ">
<path fill="none" stroke="#63b8ff" d="M318.84,-489.81C344.62,-494.57 373.84,-499.98 398.42,-504.53"/>
<polygon fill="#63b8ff" stroke="#63b8ff" points="319.61,-486.39 309.14,-488.01 318.34,-493.27 319.61,-486.39"/>
</a>
</g>
</g>
<!-- Node6 -->
<g id="Node000006" class="node">
<title>Node6</title>
<g id="a_Node000006"><a xlink:href="structllvm_1_1WasmYAML_1_1NameSection.html" target="_top" xlink:title=" ">
<polygon fill="white" stroke="#666666" points="533.25,-487.25 374.75,-487.25 374.75,-468 533.25,-468 533.25,-487.25"/>
<text xml:space="preserve" text-anchor="middle" x="454" y="-473.75" font-family="Helvetica,sans-Serif" font-size="10.00">llvm::WasmYAML::NameSection</text>
</a>
</g>
</g>
<!-- Node3&#45;&gt;Node6 -->
<g id="edge5_Node000003_Node000006" class="edge">
<title>Node3&#45;&gt;Node6</title>
<g id="a_edge5_Node000003_Node000006"><a xlink:title=" ">
<path fill="none" stroke="#63b8ff" d="M347.26,-477.62C356.36,-477.62 365.52,-477.62 374.45,-477.62"/>
<polygon fill="#63b8ff" stroke="#63b8ff" points="347.3,-474.13 337.3,-477.63 347.3,-481.13 347.3,-474.13"/>
</a>
</g>
</g>
<!-- Node7 -->
<g id="Node000007" class="node">
<title>Node7</title>
<g id="a_Node000007"><a xlink:href="structllvm_1_1WasmYAML_1_1ProducersSection.html" target="_top" xlink:title=" ">
<polygon fill="white" stroke="#666666" points="525.75,-449.88 382.25,-449.88 382.25,-419.38 525.75,-419.38 525.75,-449.88"/>
<text xml:space="preserve" text-anchor="start" x="390.25" y="-436.38" font-family="Helvetica,sans-Serif" font-size="10.00">llvm::WasmYAML::Producers</text>
<text xml:space="preserve" text-anchor="middle" x="454" y="-425.12" font-family="Helvetica,sans-Serif" font-size="10.00">Section</text>
</a>
</g>
</g>
<!-- Node3&#45;&gt;Node7 -->
<g id="edge6_Node000003_Node000007" class="edge">
<title>Node3&#45;&gt;Node7</title>
<g id="a_edge6_Node000003_Node000007"><a xlink:title=" ">
<path fill="none" stroke="#63b8ff" d="M310.85,-465.19C333.11,-460.4 358.77,-454.88 382.11,-449.87"/>
<polygon fill="#63b8ff" stroke="#63b8ff" points="310.41,-461.7 301.37,-467.23 311.88,-468.55 310.41,-461.7"/>
</a>
</g>
</g>
<!-- Node8 -->
<g id="Node000008" class="node">
<title>Node8</title>
<g id="a_Node000008"><a xlink:href="structllvm_1_1WasmYAML_1_1TargetFeaturesSection.html" target="_top" xlink:title=" ">
<polygon fill="white" stroke="#666666" points="536.25,-400.88 371.75,-400.88 371.75,-370.38 536.25,-370.38 536.25,-400.88"/>
<text xml:space="preserve" text-anchor="start" x="379.75" y="-387.38" font-family="Helvetica,sans-Serif" font-size="10.00">llvm::WasmYAML::TargetFeatures</text>
<text xml:space="preserve" text-anchor="middle" x="454" y="-376.12" font-family="Helvetica,sans-Serif" font-size="10.00">Section</text>
</a>
</g>
</g>
<!-- Node3&#45;&gt;Node8 -->
<g id="edge7_Node000003_Node000008" class="edge">
<title>Node3&#45;&gt;Node8</title>
<g id="a_edge7_Node000003_Node000008"><a xlink:title=" ">
<path fill="none" stroke="#63b8ff" d="M328.14,-462.99C330.77,-461.66 333.32,-460.21 335.75,-458.62 358.11,-444.09 349.94,-425.96 371.75,-410.62 376.82,-407.06 382.41,-403.99 388.22,-401.35"/>
<polygon fill="#63b8ff" stroke="#63b8ff" points="326.81,-459.75 319.03,-466.95 329.6,-466.17 326.81,-459.75"/>
</a>
</g>
</g>
</g>
</svg>
