<?xml version="1.0" encoding="UTF-8" standalone="no"?>
<!DOCTYPE svg PUBLIC "-//W3C//DTD SVG 1.1//EN"
 "http://www.w3.org/Graphics/SVG/1.1/DTD/svg11.dtd">
<!-- Generated by graphviz version 13.1.2 (20250808.2320)
 -->
<!-- Title: llvm::GraphTraits&lt; Inverse&lt; const MachineFunction * &gt; &gt; Pages: 1 -->
<svg width="633pt" height="110pt"
 viewBox="0.00 0.00 633.00 110.00" xmlns="http://www.w3.org/2000/svg" xmlns:xlink="http://www.w3.org/1999/xlink">
<g id="graph0" class="graph" transform="scale(1 1) rotate(0) translate(4 106.26)">
<title>llvm::GraphTraits&lt; Inverse&lt; const MachineFunction * &gt; &gt;</title>
<!-- Node1 -->
<g id="Node000001" class="node">
<title>Node1</title>
<g id="a_Node000001"><a xlink:title=" ">
<polygon fill="#999999" stroke="#666666" points="625,-64.12 438.75,-64.12 438.75,-33.62 625,-33.62 625,-64.12"/>
<text xml:space="preserve" text-anchor="start" x="446.75" y="-50.62" font-family="Helvetica,sans-Serif" font-size="10.00">llvm::GraphTraits&lt;</text>
<text xml:space="preserve" text-anchor="middle" x="531.88" y="-39.38" font-family="Helvetica,sans-Serif" font-size="10.00"> Inverse&lt; const MachineFunction * &gt; &gt;</text>
</a>
</g>
</g>
<!-- Node2 -->
<g id="Node000002" class="node">
<title>Node2</title>
<g id="a_Node000002"><a xlink:href="structllvm_1_1GraphTraits_3_01Inverse_3_01const_01MachineBasicBlock_01_5_01_4_01_4.html" target="_top" xlink:title=" ">
<polygon fill="white" stroke="#666666" points="401.75,-41.75 253,-41.75 253,0 401.75,0 401.75,-41.75"/>
<text xml:space="preserve" text-anchor="start" x="261" y="-28.25" font-family="Helvetica,sans-Serif" font-size="10.00">llvm::GraphTraits&lt;</text>
<text xml:space="preserve" text-anchor="start" x="261" y="-17" font-family="Helvetica,sans-Serif" font-size="10.00"> Inverse&lt; const MachineBasic</text>
<text xml:space="preserve" text-anchor="middle" x="327.38" y="-5.75" font-family="Helvetica,sans-Serif" font-size="10.00">Block * &gt; &gt;</text>
</a>
</g>
</g>
<!-- Node2&#45;&gt;Node1 -->
<g id="edge1_Node000001_Node000002" class="edge">
<title>Node2&#45;&gt;Node1</title>
<g id="a_edge1_Node000001_Node000002"><a xlink:title=" ">
<path fill="none" stroke="#63b8ff" d="M413.33,-32.62C421.68,-33.78 430.18,-34.95 438.6,-36.12"/>
<polygon fill="#63b8ff" stroke="#63b8ff" points="413.94,-29.17 403.55,-31.27 412.98,-36.11 413.94,-29.17"/>
</a>
</g>
</g>
<!-- Node3 -->
<g id="Node000003" class="node">
<title>Node3</title>
<g id="a_Node000003"><a xlink:href="structllvm_1_1GraphTraits.html" target="_top" xlink:title=" ">
<polygon fill="white" stroke="#666666" points="97,-65.12 0,-65.12 0,-34.62 97,-34.62 97,-65.12"/>
<text xml:space="preserve" text-anchor="start" x="8" y="-51.62" font-family="Helvetica,sans-Serif" font-size="10.00">llvm::GraphTraits&lt;</text>
<text xml:space="preserve" text-anchor="middle" x="48.5" y="-40.38" font-family="Helvetica,sans-Serif" font-size="10.00"> GraphType &gt;</text>
</a>
</g>
</g>
<!-- Node3&#45;&gt;Node1 -->
<g id="edge3_Node000001_Node000003" class="edge">
<title>Node3&#45;&gt;Node1</title>
<g id="a_edge3_Node000001_Node000003"><a xlink:title=" ">
<path fill="none" stroke="orange" stroke-dasharray="5,2" d="M108.41,-63.07C110.63,-63.38 112.83,-63.65 115,-63.88 225.82,-75.59 354.08,-67.74 438.53,-59.65"/>
<polygon fill="orange" stroke="orange" points="109.17,-59.65 98.74,-61.53 108.07,-66.56 109.17,-59.65"/>
</a>
</g>
<text xml:space="preserve" text-anchor="start" x="270.38" y="-89.76" font-family="Helvetica,sans-Serif" font-size="10.00" fill="grey">&lt; Inverse&lt; const Machine</text>
<text xml:space="preserve" text-anchor="start" x="270.38" y="-74.51" font-family="Helvetica,sans-Serif" font-size="10.00" fill="grey">  Function * &gt; &gt;</text>
</g>
<!-- Node3&#45;&gt;Node2 -->
<g id="edge2_Node000002_Node000003" class="edge">
<title>Node3&#45;&gt;Node2</title>
<g id="a_edge2_Node000002_Node000003"><a xlink:title=" ">
<path fill="none" stroke="orange" stroke-dasharray="5,2" d="M108.36,-32.58C110.6,-32.14 112.81,-31.73 115,-31.38 160.32,-23.95 211.78,-21.27 252.58,-20.47"/>
<polygon fill="orange" stroke="orange" points="107.63,-29.16 98.63,-34.74 109.15,-35.99 107.63,-29.16"/>
</a>
</g>
<text xml:space="preserve" text-anchor="start" x="118" y="-51.38" font-family="Helvetica,sans-Serif" font-size="10.00" fill="grey">&lt; Inverse&lt; const Machine</text>
<text xml:space="preserve" text-anchor="start" x="118" y="-36.12" font-family="Helvetica,sans-Serif" font-size="10.00" fill="grey">  BasicBlock * &gt; &gt;</text>
</g>
</g>
</svg>
