<?xml version="1.0" encoding="UTF-8" standalone="no"?>
<!DOCTYPE svg PUBLIC "-//W3C//DTD SVG 1.1//EN"
 "http://www.w3.org/Graphics/SVG/1.1/DTD/svg11.dtd">
<!-- Generated by graphviz version 13.1.2 (20250808.2320)
 -->
<!-- Title: llvm::TypesAreDistinct&lt;&gt; Pages: 1 -->
<svg width="494pt" height="103pt"
 viewBox="0.00 0.00 494.00 103.00" xmlns="http://www.w3.org/2000/svg" xmlns:xlink="http://www.w3.org/1999/xlink">
<g id="graph0" class="graph" transform="scale(1 1) rotate(0) translate(4 98.5)">
<title>llvm::TypesAreDistinct&lt;&gt;</title>
<!-- Node1 -->
<g id="Node000001" class="node">
<title>Node1</title>
<g id="a_Node000001"><a xlink:title=" ">
<polygon fill="#999999" stroke="#666666" points="486.25,-62.25 359.25,-62.25 359.25,-43 486.25,-43 486.25,-62.25"/>
<text xml:space="preserve" text-anchor="middle" x="422.75" y="-48.75" font-family="Helvetica,sans-Serif" font-size="10.00">llvm::TypesAreDistinct&lt;&gt;</text>
</a>
</g>
</g>
<!-- Node2 -->
<g id="Node000002" class="node">
<title>Node2</title>
<g id="a_Node000002"><a xlink:title=" ">
<polygon fill="white" stroke="#666666" points="153.25,-94.5 0,-94.5 0,-52.75 153.25,-52.75 153.25,-94.5"/>
<text xml:space="preserve" text-anchor="start" x="8" y="-81" font-family="Helvetica,sans-Serif" font-size="10.00">std::integral_constant</text>
<text xml:space="preserve" text-anchor="start" x="8" y="-69.75" font-family="Helvetica,sans-Serif" font-size="10.00">&lt; bool, detail::TypesAreDistinct</text>
<text xml:space="preserve" text-anchor="middle" x="76.62" y="-58.5" font-family="Helvetica,sans-Serif" font-size="10.00">&lt; Ts... &gt;::value &gt;</text>
</a>
</g>
</g>
<!-- Node2&#45;&gt;Node1 -->
<g id="edge1_Node000001_Node000002" class="edge">
<title>Node2&#45;&gt;Node1</title>
<g id="a_edge1_Node000001_Node000002"><a xlink:title=" ">
<path fill="none" stroke="#63b8ff" d="M164.93,-80.96C216.57,-83.49 283.05,-83.56 341.25,-73.62 356.91,-70.95 373.98,-66.7 388.35,-62.72"/>
<polygon fill="#63b8ff" stroke="#63b8ff" points="165.16,-77.47 154.99,-80.43 164.79,-84.46 165.16,-77.47"/>
</a>
</g>
</g>
<!-- Node4 -->
<g id="Node000004" class="node">
<title>Node4</title>
<g id="a_Node000004"><a xlink:href="structllvm_1_1TypesAreDistinct.html" target="_top" xlink:title="Determine if all types in Ts are distinct.">
<polygon fill="white" stroke="#666666" points="305.25,-67.88 190.25,-67.88 190.25,-37.38 305.25,-37.38 305.25,-67.88"/>
<text xml:space="preserve" text-anchor="start" x="198.25" y="-54.38" font-family="Helvetica,sans-Serif" font-size="10.00">llvm::TypesAreDistinct</text>
<text xml:space="preserve" text-anchor="middle" x="247.75" y="-43.12" font-family="Helvetica,sans-Serif" font-size="10.00">&lt; Ts &gt;</text>
</a>
</g>
</g>
<!-- Node2&#45;&gt;Node4 -->
<g id="edge4_Node000004_Node000002" class="edge">
<title>Node2&#45;&gt;Node4</title>
<g id="a_edge4_Node000004_Node000002"><a xlink:title=" ">
<path fill="none" stroke="#63b8ff" d="M164.58,-62.83C173.18,-61.76 181.75,-60.7 189.93,-59.68"/>
<polygon fill="#63b8ff" stroke="#63b8ff" points="164.28,-59.34 154.79,-64.04 165.14,-66.29 164.28,-59.34"/>
</a>
</g>
</g>
<!-- Node3 -->
<g id="Node000003" class="node">
<title>Node3</title>
<g id="a_Node000003"><a xlink:title=" ">
<polygon fill="white" stroke="#666666" points="285.75,-19.25 209.75,-19.25 209.75,0 285.75,0 285.75,-19.25"/>
<text xml:space="preserve" text-anchor="middle" x="247.75" y="-5.75" font-family="Helvetica,sans-Serif" font-size="10.00">std::true_type</text>
</a>
</g>
</g>
<!-- Node3&#45;&gt;Node1 -->
<g id="edge2_Node000001_Node000003" class="edge">
<title>Node3&#45;&gt;Node1</title>
<g id="a_edge2_Node000001_Node000003"><a xlink:title=" ">
<path fill="none" stroke="#63b8ff" d="M296.81,-21.57C323.31,-28.16 355.84,-36.24 381.07,-42.51"/>
<polygon fill="#63b8ff" stroke="#63b8ff" points="297.88,-18.23 287.33,-19.21 296.19,-25.02 297.88,-18.23"/>
</a>
</g>
</g>
<!-- Node4&#45;&gt;Node1 -->
<g id="edge3_Node000001_Node000004" class="edge">
<title>Node4&#45;&gt;Node1</title>
<g id="a_edge3_Node000001_Node000004"><a xlink:title=" ">
<path fill="none" stroke="orange" stroke-dasharray="5,2" d="M316.87,-52.62C330.76,-52.62 345.31,-52.62 358.99,-52.62"/>
<polygon fill="orange" stroke="orange" points="316.91,-49.13 306.91,-52.63 316.91,-56.13 316.91,-49.13"/>
</a>
</g>
<text xml:space="preserve" text-anchor="start" x="326.25" y="-57.38" font-family="Helvetica,sans-Serif" font-size="10.00" fill="grey">&lt;&gt;</text>
</g>
</g>
</svg>
