<?xml version="1.0" encoding="UTF-8" standalone="no"?>
<!DOCTYPE svg PUBLIC "-//W3C//DTD SVG 1.1//EN"
 "http://www.w3.org/Graphics/SVG/1.1/DTD/svg11.dtd">
<!-- Generated by graphviz version 13.1.2 (20250808.2320)
 -->
<!-- Title: llvm::GraphTraits&lt; CallGraphDOTInfo * &gt; Pages: 1 -->
<svg width="299pt" height="190pt"
 viewBox="0.00 0.00 299.00 190.00" xmlns="http://www.w3.org/2000/svg" xmlns:xlink="http://www.w3.org/1999/xlink">
<g id="graph0" class="graph" transform="scale(1 1) rotate(0) translate(4 185.75)">
<title>llvm::GraphTraits&lt; CallGraphDOTInfo * &gt;</title>
<!-- Node1 -->
<g id="Node000001" class="node">
<title>Node1</title>
<g id="a_Node000001"><a xlink:title=" ">
<polygon fill="#999999" stroke="#666666" points="144.38,-30.5 28.62,-30.5 28.62,0 144.38,0 144.38,-30.5"/>
<text xml:space="preserve" text-anchor="start" x="36.62" y="-17" font-family="Helvetica,sans-Serif" font-size="10.00">llvm::GraphTraits&lt;</text>
<text xml:space="preserve" text-anchor="middle" x="86.5" y="-5.75" font-family="Helvetica,sans-Serif" font-size="10.00"> CallGraphDOTInfo * &gt;</text>
</a>
</g>
</g>
<!-- Node2 -->
<g id="Node000002" class="node">
<title>Node2</title>
<g id="a_Node000002"><a xlink:href="structllvm_1_1GraphTraits_3_01const_01CallGraphNode_01_5_01_4.html" target="_top" xlink:title=" ">
<polygon fill="white" stroke="#666666" points="290.75,-98 162.25,-98 162.25,-67.5 290.75,-67.5 290.75,-98"/>
<text xml:space="preserve" text-anchor="start" x="170.25" y="-84.5" font-family="Helvetica,sans-Serif" font-size="10.00">llvm::GraphTraits&lt;</text>
<text xml:space="preserve" text-anchor="middle" x="226.5" y="-73.25" font-family="Helvetica,sans-Serif" font-size="10.00"> const CallGraphNode * &gt;</text>
</a>
</g>
</g>
<!-- Node2&#45;&gt;Node1 -->
<g id="edge1_Node000001_Node000002" class="edge">
<title>Node2&#45;&gt;Node1</title>
<g id="a_edge1_Node000001_Node000002"><a xlink:title=" ">
<path fill="none" stroke="#63b8ff" d="M184.92,-62.3C163.42,-52.24 137.61,-40.16 117.81,-30.9"/>
<polygon fill="#63b8ff" stroke="#63b8ff" points="183.17,-65.34 193.71,-66.41 186.14,-59 183.17,-65.34"/>
</a>
</g>
</g>
<!-- Node3 -->
<g id="Node000003" class="node">
<title>Node3</title>
<g id="a_Node000003"><a xlink:href="structllvm_1_1GraphTraits.html" target="_top" xlink:title=" ">
<polygon fill="white" stroke="#666666" points="97,-181.75 0,-181.75 0,-151.25 97,-151.25 97,-181.75"/>
<text xml:space="preserve" text-anchor="start" x="8" y="-168.25" font-family="Helvetica,sans-Serif" font-size="10.00">llvm::GraphTraits&lt;</text>
<text xml:space="preserve" text-anchor="middle" x="48.5" y="-157" font-family="Helvetica,sans-Serif" font-size="10.00"> GraphType &gt;</text>
</a>
</g>
</g>
<!-- Node3&#45;&gt;Node1 -->
<g id="edge3_Node000001_Node000003" class="edge">
<title>Node3&#45;&gt;Node1</title>
<g id="a_edge3_Node000001_Node000003"><a xlink:title=" ">
<path fill="none" stroke="orange" stroke-dasharray="5,2" d="M41.03,-139.86C36.45,-119.58 32.98,-90.88 41.75,-67.5 47.14,-53.12 58.6,-40.13 68.57,-30.83"/>
<polygon fill="orange" stroke="orange" points="37.63,-140.7 43.47,-149.54 44.42,-138.98 37.63,-140.7"/>
</a>
</g>
<text xml:space="preserve" text-anchor="start" x="44.75" y="-78.88" font-family="Helvetica,sans-Serif" font-size="10.00" fill="grey">&lt; CallGraphDOTInfo * &gt;</text>
</g>
<!-- Node3&#45;&gt;Node2 -->
<g id="edge2_Node000002_Node000003" class="edge">
<title>Node3&#45;&gt;Node2</title>
<g id="a_edge2_Node000002_Node000003"><a xlink:title=" ">
<path fill="none" stroke="orange" stroke-dasharray="5,2" d="M90.67,-146.13C122.54,-131.49 165.63,-111.71 194.65,-98.38"/>
<polygon fill="orange" stroke="orange" points="89.32,-142.9 81.7,-150.25 92.25,-149.26 89.32,-142.9"/>
</a>
</g>
<text xml:space="preserve" text-anchor="start" x="156.44" y="-120.75" font-family="Helvetica,sans-Serif" font-size="10.00" fill="grey">&lt; const CallGraphNode * &gt;</text>
</g>
</g>
</svg>
