<?xml version="1.0" encoding="UTF-8" standalone="no"?>
<!DOCTYPE svg PUBLIC "-//W3C//DTD SVG 1.1//EN"
 "http://www.w3.org/Graphics/SVG/1.1/DTD/svg11.dtd">
<!-- Generated by graphviz version 13.1.2 (20250808.2320)
 -->
<!-- Title: llvm::BooleanState Pages: 1 -->
<svg width="1225pt" height="1218pt"
 viewBox="0.00 0.00 1225.00 1218.00" xmlns="http://www.w3.org/2000/svg" xmlns:xlink="http://www.w3.org/1999/xlink">
<g id="graph0" class="graph" transform="scale(1 1) rotate(0) translate(4 1214.12)">
<title>llvm::BooleanState</title>
<!-- Node1 -->
<g id="Node000001" class="node">
<title>Node1</title>
<g id="a_Node000001"><a xlink:title="Simple wrapper for a single bit (boolean) state.">
<polygon fill="#999999" stroke="#666666" points="631.5,-402.25 533,-402.25 533,-383 631.5,-383 631.5,-402.25"/>
<text xml:space="preserve" text-anchor="middle" x="582.25" y="-388.75" font-family="Helvetica,sans-Serif" font-size="10.00">llvm::BooleanState</text>
</a>
</g>
</g>
<!-- Node5 -->
<g id="Node000005" class="node">
<title>Node5</title>
<g id="a_Node000005"><a xlink:href="structllvm_1_1StateWrapper.html" target="_top" xlink:title=" ">
<polygon fill="white" stroke="#666666" points="839.75,-449.88 668.5,-449.88 668.5,-419.38 839.75,-419.38 839.75,-449.88"/>
<text xml:space="preserve" text-anchor="start" x="676.5" y="-436.38" font-family="Helvetica,sans-Serif" font-size="10.00">llvm::StateWrapper</text>
<text xml:space="preserve" text-anchor="middle" x="754.12" y="-425.12" font-family="Helvetica,sans-Serif" font-size="10.00">&lt; BooleanState, AbstractAttribute &gt;</text>
</a>
</g>
</g>
<!-- Node1&#45;&gt;Node5 -->
<g id="edge5_Node000001_Node000005" class="edge">
<title>Node1&#45;&gt;Node5</title>
<g id="a_edge5_Node000001_Node000005"><a xlink:title=" ">
<path fill="none" stroke="#63b8ff" d="M634.91,-405.4C652.13,-409.66 671.52,-414.45 689.55,-418.91"/>
<polygon fill="#63b8ff" stroke="#63b8ff" points="635.96,-402.05 625.41,-403.05 634.28,-408.85 635.96,-402.05"/>
</a>
</g>
</g>
<!-- Node40 -->
<g id="Node000040" class="node">
<title>Node40</title>
<g id="a_Node000040"><a xlink:href="structllvm_1_1StateWrapper.html" target="_top" xlink:title=" ">
<polygon fill="white" stroke="#666666" points="828.5,-401.5 679.75,-401.5 679.75,-359.75 828.5,-359.75 828.5,-401.5"/>
<text xml:space="preserve" text-anchor="start" x="687.75" y="-388" font-family="Helvetica,sans-Serif" font-size="10.00">llvm::StateWrapper</text>
<text xml:space="preserve" text-anchor="start" x="687.75" y="-376.75" font-family="Helvetica,sans-Serif" font-size="10.00">&lt; BooleanState, AAUnderlying</text>
<text xml:space="preserve" text-anchor="middle" x="754.12" y="-365.5" font-family="Helvetica,sans-Serif" font-size="10.00">Objects &gt;</text>
</a>
</g>
</g>
<!-- Node1&#45;&gt;Node40 -->
<g id="edge40_Node000001_Node000040" class="edge">
<title>Node1&#45;&gt;Node40</title>
<g id="a_edge40_Node000001_Node000040"><a xlink:title=" ">
<path fill="none" stroke="#63b8ff" d="M643.34,-388.38C655.01,-387.56 667.36,-386.68 679.42,-385.83"/>
<polygon fill="#63b8ff" stroke="#63b8ff" points="643.17,-384.88 633.44,-389.08 643.66,-391.87 643.17,-384.88"/>
</a>
</g>
</g>
<!-- Node2 -->
<g id="Node000002" class="node">
<title>Node2</title>
<g id="a_Node000002"><a xlink:href="structllvm_1_1IntegerStateBase.html" target="_top" xlink:title=" ">
<polygon fill="white" stroke="#666666" points="496,-407.88 380.25,-407.88 380.25,-377.38 496,-377.38 496,-407.88"/>
<text xml:space="preserve" text-anchor="start" x="388.25" y="-394.38" font-family="Helvetica,sans-Serif" font-size="10.00">llvm::IntegerStateBase</text>
<text xml:space="preserve" text-anchor="middle" x="438.12" y="-383.12" font-family="Helvetica,sans-Serif" font-size="10.00">&lt; bool, true, false &gt;</text>
</a>
</g>
</g>
<!-- Node2&#45;&gt;Node1 -->
<g id="edge1_Node000001_Node000002" class="edge">
<title>Node2&#45;&gt;Node1</title>
<g id="a_edge1_Node000001_Node000002"><a xlink:title=" ">
<path fill="none" stroke="#63b8ff" d="M507.38,-392.62C516.02,-392.62 524.7,-392.62 532.93,-392.62"/>
<polygon fill="#63b8ff" stroke="#63b8ff" points="507.63,-389.13 497.63,-392.63 507.63,-396.13 507.63,-389.13"/>
</a>
</g>
</g>
<!-- Node3 -->
<g id="Node000003" class="node">
<title>Node3</title>
<g id="a_Node000003"><a xlink:href="structllvm_1_1AbstractState.html" target="_top" xlink:title="An interface to query the internal state of an abstract attribute.">
<polygon fill="white" stroke="#666666" points="100,-397.25 0,-397.25 0,-378 100,-378 100,-397.25"/>
<text xml:space="preserve" text-anchor="middle" x="50" y="-383.75" font-family="Helvetica,sans-Serif" font-size="10.00">llvm::AbstractState</text>
</a>
</g>
</g>
<!-- Node3&#45;&gt;Node2 -->
<g id="edge2_Node000002_Node000003" class="edge">
<title>Node3&#45;&gt;Node2</title>
<g id="a_edge2_Node000002_Node000003"><a xlink:title=" ">
<path fill="none" stroke="#63b8ff" d="M111.59,-392.47C174.32,-396.84 275.15,-402.11 362.25,-398.62 367.98,-398.4 373.96,-398.07 379.92,-397.68"/>
<polygon fill="#63b8ff" stroke="#63b8ff" points="112.06,-388.99 101.84,-391.77 111.56,-395.97 112.06,-388.99"/>
</a>
</g>
</g>
<!-- Node4 -->
<g id="Node000004" class="node">
<title>Node4</title>
<g id="a_Node000004"><a xlink:href="structllvm_1_1IntegerStateBase.html" target="_top" xlink:title="Simple state with integers encoding.">
<polygon fill="white" stroke="#666666" points="252.75,-384.5 137,-384.5 137,-342.75 252.75,-342.75 252.75,-384.5"/>
<text xml:space="preserve" text-anchor="start" x="145" y="-371" font-family="Helvetica,sans-Serif" font-size="10.00">llvm::IntegerStateBase</text>
<text xml:space="preserve" text-anchor="start" x="145" y="-359.75" font-family="Helvetica,sans-Serif" font-size="10.00">&lt; base_ty, BestState,</text>
<text xml:space="preserve" text-anchor="middle" x="194.88" y="-348.5" font-family="Helvetica,sans-Serif" font-size="10.00"> WorstState &gt;</text>
</a>
</g>
</g>
<!-- Node3&#45;&gt;Node4 -->
<g id="edge4_Node000004_Node000003" class="edge">
<title>Node3&#45;&gt;Node4</title>
<g id="a_edge4_Node000004_Node000003"><a xlink:title=" ">
<path fill="none" stroke="#63b8ff" d="M111.44,-377.47C119.83,-376.06 128.42,-374.62 136.75,-373.22"/>
<polygon fill="#63b8ff" stroke="#63b8ff" points="110.94,-374.01 101.66,-379.11 112.1,-380.91 110.94,-374.01"/>
</a>
</g>
</g>
<!-- Node4&#45;&gt;Node2 -->
<g id="edge3_Node000002_Node000004" class="edge">
<title>Node4&#45;&gt;Node2</title>
<g id="a_edge3_Node000002_Node000004"><a xlink:title=" ">
<path fill="none" stroke="orange" stroke-dasharray="5,2" d="M264.17,-370.24C294.28,-373.34 330.06,-377.24 362.25,-381.38 367.99,-382.11 373.96,-382.93 379.93,-383.77"/>
<polygon fill="orange" stroke="orange" points="264.74,-366.78 254.43,-369.25 264.03,-373.75 264.74,-366.78"/>
</a>
</g>
<text xml:space="preserve" text-anchor="start" x="273.75" y="-386.12" font-family="Helvetica,sans-Serif" font-size="10.00" fill="grey">&lt; bool, true, false &gt;</text>
</g>
<!-- Node6 -->
<g id="Node000006" class="node">
<title>Node6</title>
<g id="a_Node000006"><a xlink:href="structllvm_1_1IRAttribute.html" target="_top" xlink:title=" ">
<polygon fill="white" stroke="#666666" points="1066,-1210.12 876.75,-1210.12 876.75,-1157.12 1066,-1157.12 1066,-1210.12"/>
<text xml:space="preserve" text-anchor="start" x="884.75" y="-1196.62" font-family="Helvetica,sans-Serif" font-size="10.00">llvm::IRAttribute&lt;</text>
<text xml:space="preserve" text-anchor="start" x="884.75" y="-1185.38" font-family="Helvetica,sans-Serif" font-size="10.00"> Attribute::MustProgress,</text>
<text xml:space="preserve" text-anchor="start" x="884.75" y="-1174.12" font-family="Helvetica,sans-Serif" font-size="10.00"> StateWrapper&lt; BooleanState,</text>
<text xml:space="preserve" text-anchor="middle" x="971.38" y="-1162.88" font-family="Helvetica,sans-Serif" font-size="10.00"> AbstractAttribute &gt;, AAMustProgress &gt;</text>
</a>
</g>
</g>
<!-- Node5&#45;&gt;Node6 -->
<g id="edge6_Node000005_Node000006" class="edge">
<title>Node5&#45;&gt;Node6</title>
<g id="a_edge6_Node000005_Node000006"><a xlink:title=" ">
<path fill="none" stroke="#63b8ff" d="M758.93,-461.43C771.41,-548.55 812.9,-831.45 857.75,-1063.62 865.09,-1101.63 851.33,-1119.43 876.75,-1148.62 879.37,-1151.63 882.28,-1154.39 885.4,-1156.9"/>
<polygon fill="#63b8ff" stroke="#63b8ff" points="762.42,-461.15 757.55,-451.74 755.49,-462.14 762.42,-461.15"/>
</a>
</g>
</g>
<!-- Node8 -->
<g id="Node000008" class="node">
<title>Node8</title>
<g id="a_Node000008"><a xlink:href="structllvm_1_1IRAttribute.html" target="_top" xlink:title=" ">
<polygon fill="white" stroke="#666666" points="1052.88,-1139.12 889.88,-1139.12 889.88,-1086.12 1052.88,-1086.12 1052.88,-1139.12"/>
<text xml:space="preserve" text-anchor="start" x="897.88" y="-1125.62" font-family="Helvetica,sans-Serif" font-size="10.00">llvm::IRAttribute&lt;</text>
<text xml:space="preserve" text-anchor="start" x="897.88" y="-1114.38" font-family="Helvetica,sans-Serif" font-size="10.00"> Attribute::NoAlias,</text>
<text xml:space="preserve" text-anchor="start" x="897.88" y="-1103.12" font-family="Helvetica,sans-Serif" font-size="10.00"> StateWrapper&lt; BooleanState,</text>
<text xml:space="preserve" text-anchor="middle" x="971.38" y="-1091.88" font-family="Helvetica,sans-Serif" font-size="10.00"> AbstractAttribute &gt;, AANoAlias &gt;</text>
</a>
</g>
</g>
<!-- Node5&#45;&gt;Node8 -->
<g id="edge8_Node000005_Node000008" class="edge">
<title>Node5&#45;&gt;Node8</title>
<g id="a_edge8_Node000005_Node000008"><a xlink:title=" ">
<path fill="none" stroke="#63b8ff" d="M756.66,-461.39C763.44,-570.81 794.13,-982.75 876.75,-1077.62 880.51,-1081.94 884.86,-1085.73 889.58,-1089.05"/>
<polygon fill="#63b8ff" stroke="#63b8ff" points="760.16,-461.41 756.07,-451.64 753.18,-461.83 760.16,-461.41"/>
</a>
</g>
</g>
<!-- Node10 -->
<g id="Node000010" class="node">
<title>Node10</title>
<g id="a_Node000010"><a xlink:href="structllvm_1_1IRAttribute.html" target="_top" xlink:title=" ">
<polygon fill="white" stroke="#666666" points="1051.75,-1068.12 891,-1068.12 891,-1015.12 1051.75,-1015.12 1051.75,-1068.12"/>
<text xml:space="preserve" text-anchor="start" x="899" y="-1054.62" font-family="Helvetica,sans-Serif" font-size="10.00">llvm::IRAttribute&lt;</text>
<text xml:space="preserve" text-anchor="start" x="899" y="-1043.38" font-family="Helvetica,sans-Serif" font-size="10.00"> Attribute::NoFree,</text>
<text xml:space="preserve" text-anchor="start" x="899" y="-1032.12" font-family="Helvetica,sans-Serif" font-size="10.00"> StateWrapper&lt; BooleanState,</text>
<text xml:space="preserve" text-anchor="middle" x="971.38" y="-1020.88" font-family="Helvetica,sans-Serif" font-size="10.00"> AbstractAttribute &gt;, AANoFree &gt;</text>
</a>
</g>
</g>
<!-- Node5&#45;&gt;Node10 -->
<g id="edge10_Node000005_Node000010" class="edge">
<title>Node5&#45;&gt;Node10</title>
<g id="a_edge10_Node000005_Node000010"><a xlink:title=" ">
<path fill="none" stroke="#63b8ff" d="M757.43,-461.6C766.63,-563.4 803.81,-922.66 876.75,-1006.62 880.85,-1011.34 885.64,-1015.42 890.86,-1018.96"/>
<polygon fill="#63b8ff" stroke="#63b8ff" points="760.93,-461.41 756.56,-451.76 753.95,-462.03 760.93,-461.41"/>
</a>
</g>
</g>
<!-- Node12 -->
<g id="Node000012" class="node">
<title>Node12</title>
<g id="a_Node000012"><a xlink:href="structllvm_1_1IRAttribute.html" target="_top" xlink:title=" ">
<polygon fill="white" stroke="#666666" points="1060.38,-997.12 882.38,-997.12 882.38,-944.12 1060.38,-944.12 1060.38,-997.12"/>
<text xml:space="preserve" text-anchor="start" x="890.38" y="-983.62" font-family="Helvetica,sans-Serif" font-size="10.00">llvm::IRAttribute&lt;</text>
<text xml:space="preserve" text-anchor="start" x="890.38" y="-972.38" font-family="Helvetica,sans-Serif" font-size="10.00"> Attribute::NoRecurse,</text>
<text xml:space="preserve" text-anchor="start" x="890.38" y="-961.12" font-family="Helvetica,sans-Serif" font-size="10.00"> StateWrapper&lt; BooleanState,</text>
<text xml:space="preserve" text-anchor="middle" x="971.38" y="-949.88" font-family="Helvetica,sans-Serif" font-size="10.00"> AbstractAttribute &gt;, AANoRecurse &gt;</text>
</a>
</g>
</g>
<!-- Node5&#45;&gt;Node12 -->
<g id="edge12_Node000005_Node000012" class="edge">
<title>Node5&#45;&gt;Node12</title>
<g id="a_edge12_Node000005_Node000012"><a xlink:title=" ">
<path fill="none" stroke="#63b8ff" d="M758.28,-461.2C769.82,-554.17 812.38,-863.05 876.75,-935.62 879.4,-938.61 882.33,-941.34 885.46,-943.84"/>
<polygon fill="#63b8ff" stroke="#63b8ff" points="761.79,-461.03 757.1,-451.53 754.84,-461.88 761.79,-461.03"/>
</a>
</g>
</g>
<!-- Node14 -->
<g id="Node000014" class="node">
<title>Node14</title>
<g id="a_Node000014"><a xlink:href="structllvm_1_1IRAttribute.html" target="_top" xlink:title=" ">
<polygon fill="white" stroke="#666666" points="1056.62,-926.12 886.12,-926.12 886.12,-873.12 1056.62,-873.12 1056.62,-926.12"/>
<text xml:space="preserve" text-anchor="start" x="894.12" y="-912.62" font-family="Helvetica,sans-Serif" font-size="10.00">llvm::IRAttribute&lt;</text>
<text xml:space="preserve" text-anchor="start" x="894.12" y="-901.38" font-family="Helvetica,sans-Serif" font-size="10.00"> Attribute::NoReturn,</text>
<text xml:space="preserve" text-anchor="start" x="894.12" y="-890.12" font-family="Helvetica,sans-Serif" font-size="10.00"> StateWrapper&lt; BooleanState,</text>
<text xml:space="preserve" text-anchor="middle" x="971.38" y="-878.88" font-family="Helvetica,sans-Serif" font-size="10.00"> AbstractAttribute &gt;, AANoReturn &gt;</text>
</a>
</g>
</g>
<!-- Node5&#45;&gt;Node14 -->
<g id="edge14_Node000005_Node000014" class="edge">
<title>Node5&#45;&gt;Node14</title>
<g id="a_edge14_Node000005_Node000014"><a xlink:title=" ">
<path fill="none" stroke="#63b8ff" d="M754.82,-461.36C755.42,-535.44 767.21,-745.71 876.75,-864.62 879.57,-867.69 882.69,-870.48 886.02,-873.04"/>
<polygon fill="#63b8ff" stroke="#63b8ff" points="758.32,-461.81 754.81,-451.81 751.32,-461.81 758.32,-461.81"/>
</a>
</g>
</g>
<!-- Node16 -->
<g id="Node000016" class="node">
<title>Node16</title>
<g id="a_Node000016"><a xlink:href="structllvm_1_1IRAttribute.html" target="_top" xlink:title=" ">
<polygon fill="white" stroke="#666666" points="1053.25,-855.12 889.5,-855.12 889.5,-802.12 1053.25,-802.12 1053.25,-855.12"/>
<text xml:space="preserve" text-anchor="start" x="897.5" y="-841.62" font-family="Helvetica,sans-Serif" font-size="10.00">llvm::IRAttribute&lt;</text>
<text xml:space="preserve" text-anchor="start" x="897.5" y="-830.38" font-family="Helvetica,sans-Serif" font-size="10.00"> Attribute::NoSync,</text>
<text xml:space="preserve" text-anchor="start" x="897.5" y="-819.12" font-family="Helvetica,sans-Serif" font-size="10.00"> StateWrapper&lt; BooleanState,</text>
<text xml:space="preserve" text-anchor="middle" x="971.38" y="-807.88" font-family="Helvetica,sans-Serif" font-size="10.00"> AbstractAttribute &gt;, AANoSync &gt;</text>
</a>
</g>
</g>
<!-- Node5&#45;&gt;Node16 -->
<g id="edge16_Node000005_Node000016" class="edge">
<title>Node5&#45;&gt;Node16</title>
<g id="a_edge16_Node000005_Node000016"><a xlink:title=" ">
<path fill="none" stroke="#63b8ff" d="M756.62,-461.7C761.69,-527.52 783.59,-697.52 876.75,-793.62 880.49,-797.49 884.7,-800.93 889.21,-803.99"/>
<polygon fill="#63b8ff" stroke="#63b8ff" points="760.12,-461.57 755.94,-451.83 753.14,-462.05 760.12,-461.57"/>
</a>
</g>
</g>
<!-- Node18 -->
<g id="Node000018" class="node">
<title>Node18</title>
<g id="a_Node000018"><a xlink:href="structllvm_1_1IRAttribute.html" target="_top" xlink:title=" ">
<polygon fill="white" stroke="#666666" points="1055.12,-784.12 887.62,-784.12 887.62,-731.12 1055.12,-731.12 1055.12,-784.12"/>
<text xml:space="preserve" text-anchor="start" x="895.62" y="-770.62" font-family="Helvetica,sans-Serif" font-size="10.00">llvm::IRAttribute&lt;</text>
<text xml:space="preserve" text-anchor="start" x="895.62" y="-759.38" font-family="Helvetica,sans-Serif" font-size="10.00"> Attribute::NoUndef,</text>
<text xml:space="preserve" text-anchor="start" x="895.62" y="-748.12" font-family="Helvetica,sans-Serif" font-size="10.00"> StateWrapper&lt; BooleanState,</text>
<text xml:space="preserve" text-anchor="middle" x="971.38" y="-736.88" font-family="Helvetica,sans-Serif" font-size="10.00"> AbstractAttribute &gt;, AANoUndef &gt;</text>
</a>
</g>
</g>
<!-- Node5&#45;&gt;Node18 -->
<g id="edge18_Node000005_Node000018" class="edge">
<title>Node5&#45;&gt;Node18</title>
<g id="a_edge18_Node000005_Node000018"><a xlink:title=" ">
<path fill="none" stroke="#63b8ff" d="M759.15,-461.24C769,-517.29 799.38,-648.43 876.75,-722.62 880.01,-725.75 883.57,-728.6 887.34,-731.2"/>
<polygon fill="#63b8ff" stroke="#63b8ff" points="762.65,-460.95 757.56,-451.66 755.75,-462.1 762.65,-460.95"/>
</a>
</g>
</g>
<!-- Node20 -->
<g id="Node000020" class="node">
<title>Node20</title>
<g id="a_Node000020"><a xlink:href="structllvm_1_1IRAttribute.html" target="_top" xlink:title=" ">
<polygon fill="white" stroke="#666666" points="1058.5,-713.12 884.25,-713.12 884.25,-660.12 1058.5,-660.12 1058.5,-713.12"/>
<text xml:space="preserve" text-anchor="start" x="892.25" y="-699.62" font-family="Helvetica,sans-Serif" font-size="10.00">llvm::IRAttribute&lt;</text>
<text xml:space="preserve" text-anchor="start" x="892.25" y="-688.38" font-family="Helvetica,sans-Serif" font-size="10.00"> Attribute::NoUnwind,</text>
<text xml:space="preserve" text-anchor="start" x="892.25" y="-677.12" font-family="Helvetica,sans-Serif" font-size="10.00"> StateWrapper&lt; BooleanState,</text>
<text xml:space="preserve" text-anchor="middle" x="971.38" y="-665.88" font-family="Helvetica,sans-Serif" font-size="10.00"> AbstractAttribute &gt;, AANoUnwind &gt;</text>
</a>
</g>
</g>
<!-- Node5&#45;&gt;Node20 -->
<g id="edge20_Node000005_Node000020" class="edge">
<title>Node5&#45;&gt;Node20</title>
<g id="a_edge20_Node000005_Node000020"><a xlink:title=" ">
<path fill="none" stroke="#63b8ff" d="M763.22,-461.1C778.34,-506.34 815.06,-598.72 876.75,-651.62 880.17,-654.56 883.87,-657.26 887.74,-659.75"/>
<polygon fill="#63b8ff" stroke="#63b8ff" points="766.56,-460.04 760.15,-451.61 759.9,-462.2 766.56,-460.04"/>
</a>
</g>
</g>
<!-- Node22 -->
<g id="Node000022" class="node">
<title>Node22</title>
<g id="a_Node000022"><a xlink:href="structllvm_1_1IRAttribute.html" target="_top" xlink:title=" ">
<polygon fill="white" stroke="#666666" points="1053.25,-642.12 889.5,-642.12 889.5,-589.12 1053.25,-589.12 1053.25,-642.12"/>
<text xml:space="preserve" text-anchor="start" x="897.5" y="-628.62" font-family="Helvetica,sans-Serif" font-size="10.00">llvm::IRAttribute&lt;</text>
<text xml:space="preserve" text-anchor="start" x="897.5" y="-617.38" font-family="Helvetica,sans-Serif" font-size="10.00"> Attribute::NonNull,</text>
<text xml:space="preserve" text-anchor="start" x="897.5" y="-606.12" font-family="Helvetica,sans-Serif" font-size="10.00"> StateWrapper&lt; BooleanState,</text>
<text xml:space="preserve" text-anchor="middle" x="971.38" y="-594.88" font-family="Helvetica,sans-Serif" font-size="10.00"> AbstractAttribute &gt;, AANonNull &gt;</text>
</a>
</g>
</g>
<!-- Node5&#45;&gt;Node22 -->
<g id="edge22_Node000005_Node000022" class="edge">
<title>Node5&#45;&gt;Node22</title>
<g id="a_edge22_Node000005_Node000022"><a xlink:title=" ">
<path fill="none" stroke="#63b8ff" d="M770.1,-459.66C790.5,-491.8 829.89,-547.38 876.75,-580.62 880.85,-583.54 885.23,-586.24 889.76,-588.74"/>
<polygon fill="#63b8ff" stroke="#63b8ff" points="773.21,-458.04 764.96,-451.39 767.27,-461.73 773.21,-458.04"/>
</a>
</g>
</g>
<!-- Node24 -->
<g id="Node000024" class="node">
<title>Node24</title>
<g id="a_Node000024"><a xlink:href="structllvm_1_1IRAttribute.html" target="_top" xlink:title=" ">
<polygon fill="white" stroke="#666666" points="1058.12,-571.12 884.62,-571.12 884.62,-518.12 1058.12,-518.12 1058.12,-571.12"/>
<text xml:space="preserve" text-anchor="start" x="892.62" y="-557.62" font-family="Helvetica,sans-Serif" font-size="10.00">llvm::IRAttribute&lt;</text>
<text xml:space="preserve" text-anchor="start" x="892.62" y="-546.38" font-family="Helvetica,sans-Serif" font-size="10.00"> Attribute::WillReturn,</text>
<text xml:space="preserve" text-anchor="start" x="892.62" y="-535.12" font-family="Helvetica,sans-Serif" font-size="10.00"> StateWrapper&lt; BooleanState,</text>
<text xml:space="preserve" text-anchor="middle" x="971.38" y="-523.88" font-family="Helvetica,sans-Serif" font-size="10.00"> AbstractAttribute &gt;, AAWillReturn &gt;</text>
</a>
</g>
</g>
<!-- Node5&#45;&gt;Node24 -->
<g id="edge24_Node000005_Node000024" class="edge">
<title>Node5&#45;&gt;Node24</title>
<g id="a_edge24_Node000005_Node000024"><a xlink:title=" ">
<path fill="none" stroke="#63b8ff" d="M786.54,-456.36C810.55,-472.38 844.83,-494 876.75,-509.62 882.52,-512.45 888.57,-515.19 894.71,-517.8"/>
<polygon fill="#63b8ff" stroke="#63b8ff" points="788.74,-453.62 778.49,-450.94 784.83,-459.43 788.74,-453.62"/>
</a>
</g>
</g>
<!-- Node26 -->
<g id="Node000026" class="node">
<title>Node26</title>
<g id="a_Node000026"><a xlink:href="structllvm_1_1AAAddressSpace.html" target="_top" xlink:title="An abstract interface for address space information.">
<polygon fill="white" stroke="#666666" points="1030,-500.25 912.75,-500.25 912.75,-481 1030,-481 1030,-500.25"/>
<text xml:space="preserve" text-anchor="middle" x="971.38" y="-486.75" font-family="Helvetica,sans-Serif" font-size="10.00">llvm::AAAddressSpace</text>
</a>
</g>
</g>
<!-- Node5&#45;&gt;Node26 -->
<g id="edge26_Node000005_Node000026" class="edge">
<title>Node5&#45;&gt;Node26</title>
<g id="a_edge26_Node000005_Node000026"><a xlink:title=" ">
<path fill="none" stroke="#63b8ff" d="M811.66,-453.74C832.03,-460.25 855.29,-467.23 876.75,-472.62 888.31,-475.53 900.77,-478.23 912.71,-480.6"/>
<polygon fill="#63b8ff" stroke="#63b8ff" points="813.01,-450.5 802.42,-450.76 810.86,-457.17 813.01,-450.5"/>
</a>
</g>
</g>
<!-- Node27 -->
<g id="Node000027" class="node">
<title>Node27</title>
<g id="a_Node000027"><a xlink:href="structllvm_1_1AAAllocationInfo.html" target="_top" xlink:title=" ">
<polygon fill="white" stroke="#666666" points="1027.75,-463.25 915,-463.25 915,-444 1027.75,-444 1027.75,-463.25"/>
<text xml:space="preserve" text-anchor="middle" x="971.38" y="-449.75" font-family="Helvetica,sans-Serif" font-size="10.00">llvm::AAAllocationInfo</text>
</a>
</g>
</g>
<!-- Node5&#45;&gt;Node27 -->
<g id="edge27_Node000005_Node000027" class="edge">
<title>Node5&#45;&gt;Node27</title>
<g id="a_edge27_Node000005_Node000027"><a xlink:title=" ">
<path fill="none" stroke="#63b8ff" d="M851.44,-443.13C873.08,-445.04 895.33,-447 914.65,-448.71"/>
<polygon fill="#63b8ff" stroke="#63b8ff" points="851.97,-439.66 841.71,-442.27 851.36,-446.63 851.97,-439.66"/>
</a>
</g>
</g>
<!-- Node28 -->
<g id="Node000028" class="node">
<title>Node28</title>
<g id="a_Node000028"><a xlink:href="structllvm_1_1AACallEdges.html" target="_top" xlink:title="An abstract state for querying live call edges.">
<polygon fill="white" stroke="#666666" points="1020.62,-426.25 922.12,-426.25 922.12,-407 1020.62,-407 1020.62,-426.25"/>
<text xml:space="preserve" text-anchor="middle" x="971.38" y="-412.75" font-family="Helvetica,sans-Serif" font-size="10.00">llvm::AACallEdges</text>
</a>
</g>
</g>
<!-- Node5&#45;&gt;Node28 -->
<g id="edge28_Node000005_Node000028" class="edge">
<title>Node5&#45;&gt;Node28</title>
<g id="a_edge28_Node000005_Node000028"><a xlink:title=" ">
<path fill="none" stroke="#63b8ff" d="M851.67,-426.55C875.98,-424.52 901.05,-422.42 921.85,-420.68"/>
<polygon fill="#63b8ff" stroke="#63b8ff" points="851.38,-423.06 841.71,-427.38 851.96,-430.04 851.38,-423.06"/>
</a>
</g>
</g>
<!-- Node29 -->
<g id="Node000029" class="node">
<title>Node29</title>
<g id="a_Node000029"><a xlink:href="structllvm_1_1AAExecutionDomain.html" target="_top" xlink:title=" ">
<polygon fill="white" stroke="#666666" points="1036.75,-389.25 906,-389.25 906,-370 1036.75,-370 1036.75,-389.25"/>
<text xml:space="preserve" text-anchor="middle" x="971.38" y="-375.75" font-family="Helvetica,sans-Serif" font-size="10.00">llvm::AAExecutionDomain</text>
</a>
</g>
</g>
<!-- Node5&#45;&gt;Node29 -->
<g id="edge29_Node000005_Node000029" class="edge">
<title>Node5&#45;&gt;Node29</title>
<g id="a_edge29_Node000005_Node000029"><a xlink:title=" ">
<path fill="none" stroke="#63b8ff" d="M823.05,-415.76C828.72,-414.06 834.34,-412.34 839.75,-410.62 856.36,-405.36 859.92,-402.17 876.75,-397.62 887.62,-394.69 899.31,-392.04 910.64,-389.74"/>
<polygon fill="#63b8ff" stroke="#63b8ff" points="822.22,-412.35 813.62,-418.54 824.2,-419.07 822.22,-412.35"/>
</a>
</g>
</g>
<!-- Node30 -->
<g id="Node000030" class="node">
<title>Node30</title>
<g id="a_Node000030"><a xlink:href="structllvm_1_1AAGlobalValueInfo.html" target="_top" xlink:title="An abstract interface for llvm::GlobalValue information interference.">
<polygon fill="white" stroke="#666666" points="1032.25,-352.25 910.5,-352.25 910.5,-333 1032.25,-333 1032.25,-352.25"/>
<text xml:space="preserve" text-anchor="middle" x="971.38" y="-338.75" font-family="Helvetica,sans-Serif" font-size="10.00">llvm::AAGlobalValueInfo</text>
</a>
</g>
</g>
<!-- Node5&#45;&gt;Node30 -->
<g id="edge30_Node000005_Node000030" class="edge">
<title>Node5&#45;&gt;Node30</title>
<g id="a_edge30_Node000005_Node000030"><a xlink:title=" ">
<path fill="none" stroke="#63b8ff" d="M834.82,-413.79C836.5,-412.78 838.15,-411.73 839.75,-410.62 862.49,-394.9 853.35,-375.35 876.75,-360.62 886.84,-354.28 898.65,-350.07 910.43,-347.31"/>
<polygon fill="#63b8ff" stroke="#63b8ff" points="833.34,-410.61 826.1,-418.34 836.58,-416.82 833.34,-410.61"/>
</a>
</g>
</g>
<!-- Node31 -->
<g id="Node000031" class="node">
<title>Node31</title>
<g id="a_Node000031"><a xlink:href="structllvm_1_1AAHeapToStack.html" target="_top" xlink:title=" ">
<polygon fill="white" stroke="#666666" points="1027.75,-315.25 915,-315.25 915,-296 1027.75,-296 1027.75,-315.25"/>
<text xml:space="preserve" text-anchor="middle" x="971.38" y="-301.75" font-family="Helvetica,sans-Serif" font-size="10.00">llvm::AAHeapToStack</text>
</a>
</g>
</g>
<!-- Node5&#45;&gt;Node31 -->
<g id="edge31_Node000005_Node000031" class="edge">
<title>Node5&#45;&gt;Node31</title>
<g id="a_edge31_Node000005_Node000031"><a xlink:title=" ">
<path fill="none" stroke="#63b8ff" d="M836.93,-412.97C837.89,-412.21 838.83,-411.43 839.75,-410.62 871.27,-382.84 844.06,-350.02 876.75,-323.62 887.44,-314.99 901.04,-310.07 914.54,-307.35"/>
<polygon fill="#63b8ff" stroke="#63b8ff" points="835.36,-409.81 828.96,-418.24 839.23,-415.64 835.36,-409.81"/>
</a>
</g>
</g>
<!-- Node32 -->
<g id="Node000032" class="node">
<title>Node32</title>
<g id="a_Node000032"><a xlink:href="structllvm_1_1AAIndirectCallInfo.html" target="_top" xlink:title="An abstract interface for indirect call information interference.">
<polygon fill="white" stroke="#666666" points="1031.12,-278.25 911.62,-278.25 911.62,-259 1031.12,-259 1031.12,-278.25"/>
<text xml:space="preserve" text-anchor="middle" x="971.38" y="-264.75" font-family="Helvetica,sans-Serif" font-size="10.00">llvm::AAIndirectCallInfo</text>
</a>
</g>
</g>
<!-- Node5&#45;&gt;Node32 -->
<g id="edge32_Node000005_Node000032" class="edge">
<title>Node5&#45;&gt;Node32</title>
<g id="a_edge32_Node000005_Node000032"><a xlink:title=" ">
<path fill="none" stroke="#63b8ff" d="M837.87,-412.39C838.51,-411.82 839.14,-411.23 839.75,-410.62 860.22,-390.43 855.43,-305.92 876.75,-286.62 886.32,-277.96 898.76,-272.91 911.41,-270.07"/>
<polygon fill="#63b8ff" stroke="#63b8ff" points="836.06,-409.38 830.12,-418.16 840.24,-414.99 836.06,-409.38"/>
</a>
</g>
</g>
<!-- Node33 -->
<g id="Node000033" class="node">
<title>Node33</title>
<g id="a_Node000033"><a xlink:href="structllvm_1_1AAInstanceInfo.html" target="_top" xlink:title="An abstract interface to track if a value leaves it&#39;s defining function instance.">
<polygon fill="white" stroke="#666666" points="1025.12,-241.25 917.62,-241.25 917.62,-222 1025.12,-222 1025.12,-241.25"/>
<text xml:space="preserve" text-anchor="middle" x="971.38" y="-227.75" font-family="Helvetica,sans-Serif" font-size="10.00">llvm::AAInstanceInfo</text>
</a>
</g>
</g>
<!-- Node5&#45;&gt;Node33 -->
<g id="edge33_Node000005_Node000033" class="edge">
<title>Node5&#45;&gt;Node33</title>
<g id="a_edge33_Node000005_Node000033"><a xlink:title=" ">
<path fill="none" stroke="#63b8ff" d="M838.29,-412.1C838.79,-411.62 839.27,-411.13 839.75,-410.62 865.05,-384.02 850.33,-275.11 876.75,-249.62 887.59,-239.17 902.55,-233.87 917.34,-231.39"/>
<polygon fill="#63b8ff" stroke="#63b8ff" points="836.38,-409.15 830.73,-418.11 840.73,-414.63 836.38,-409.15"/>
</a>
</g>
</g>
<!-- Node34 -->
<g id="Node000034" class="node">
<title>Node34</title>
<g id="a_Node000034"><a xlink:href="structllvm_1_1AAInterFnReachability.html" target="_top" xlink:title="An abstract Attribute for computing reachability between functions.">
<polygon fill="white" stroke="#666666" points="1040.5,-204.25 902.25,-204.25 902.25,-185 1040.5,-185 1040.5,-204.25"/>
<text xml:space="preserve" text-anchor="middle" x="971.38" y="-190.75" font-family="Helvetica,sans-Serif" font-size="10.00">llvm::AAInterFnReachability</text>
</a>
</g>
</g>
<!-- Node5&#45;&gt;Node34 -->
<g id="edge34_Node000005_Node000034" class="edge">
<title>Node5&#45;&gt;Node34</title>
<g id="a_edge34_Node000005_Node000034"><a xlink:title=" ">
<path fill="none" stroke="#63b8ff" d="M838.65,-411.79C839.02,-411.41 839.39,-411.02 839.75,-410.62 869.92,-377.56 845.18,-244.36 876.75,-212.62 883.75,-205.58 892.62,-200.86 902.09,-197.74"/>
<polygon fill="#63b8ff" stroke="#63b8ff" points="836.68,-408.88 831.24,-417.97 841.16,-414.26 836.68,-408.88"/>
</a>
</g>
</g>
<!-- Node35 -->
<g id="Node000035" class="node">
<title>Node35</title>
<g id="a_Node000035"><a xlink:href="structllvm_1_1AAIntraFnReachability.html" target="_top" xlink:title="An abstract interface to determine reachability of point A to B.">
<polygon fill="white" stroke="#666666" points="1040.5,-167.25 902.25,-167.25 902.25,-148 1040.5,-148 1040.5,-167.25"/>
<text xml:space="preserve" text-anchor="middle" x="971.38" y="-153.75" font-family="Helvetica,sans-Serif" font-size="10.00">llvm::AAIntraFnReachability</text>
</a>
</g>
</g>
<!-- Node5&#45;&gt;Node35 -->
<g id="edge35_Node000005_Node000035" class="edge">
<title>Node5&#45;&gt;Node35</title>
<g id="a_edge35_Node000005_Node000035"><a xlink:title=" ">
<path fill="none" stroke="#63b8ff" d="M838.67,-411.81C839.04,-411.42 839.4,-411.03 839.75,-410.62 874.6,-370.88 839.78,-213.41 876.75,-175.62 883.7,-168.53 892.53,-163.77 901.98,-160.64"/>
<polygon fill="#63b8ff" stroke="#63b8ff" points="836.68,-408.91 831.37,-418.09 841.24,-414.22 836.68,-408.91"/>
</a>
</g>
</g>
<!-- Node36 -->
<g id="Node000036" class="node">
<title>Node36</title>
<g id="a_Node000036"><a xlink:href="structllvm_1_1AANoAliasAddrSpace.html" target="_top" xlink:title="An abstract interface for potential address space information.">
<polygon fill="white" stroke="#666666" points="1039.38,-130.25 903.38,-130.25 903.38,-111 1039.38,-111 1039.38,-130.25"/>
<text xml:space="preserve" text-anchor="middle" x="971.38" y="-116.75" font-family="Helvetica,sans-Serif" font-size="10.00">llvm::AANoAliasAddrSpace</text>
</a>
</g>
</g>
<!-- Node5&#45;&gt;Node36 -->
<g id="edge36_Node000005_Node000036" class="edge">
<title>Node5&#45;&gt;Node36</title>
<g id="a_edge36_Node000005_Node000036"><a xlink:title=" ">
<path fill="none" stroke="#63b8ff" d="M839.25,-411.21C839.42,-411.02 839.58,-410.82 839.75,-410.62 878.99,-363.92 833.58,-181.73 876.75,-138.62 884.01,-131.37 893.25,-126.58 903.08,-123.48"/>
<polygon fill="#63b8ff" stroke="#63b8ff" points="836.91,-408.61 831.88,-417.93 841.63,-413.78 836.91,-408.61"/>
</a>
</g>
</g>
<!-- Node37 -->
<g id="Node000037" class="node">
<title>Node37</title>
<g id="a_Node000037"><a xlink:href="structllvm_1_1AANonConvergent.html" target="_top" xlink:title="An abstract Attribute for determining the necessity of the convergent attribute.">
<polygon fill="white" stroke="#666666" points="1032.25,-93.25 910.5,-93.25 910.5,-74 1032.25,-74 1032.25,-93.25"/>
<text xml:space="preserve" text-anchor="middle" x="971.38" y="-79.75" font-family="Helvetica,sans-Serif" font-size="10.00">llvm::AANonConvergent</text>
</a>
</g>
</g>
<!-- Node5&#45;&gt;Node37 -->
<g id="edge37_Node000005_Node000037" class="edge">
<title>Node5&#45;&gt;Node37</title>
<g id="a_edge37_Node000005_Node000037"><a xlink:title=" ">
<path fill="none" stroke="#63b8ff" d="M839.26,-411.22C839.42,-411.02 839.59,-410.82 839.75,-410.62 855.66,-391.24 853.97,-210.42 857.75,-185.62 863.51,-147.78 849.25,-128.25 876.75,-101.62 885.79,-92.88 897.71,-87.73 910.01,-84.83"/>
<polygon fill="#63b8ff" stroke="#63b8ff" points="836.9,-408.62 831.96,-417.99 841.67,-413.76 836.9,-408.62"/>
</a>
</g>
</g>
<!-- Node38 -->
<g id="Node000038" class="node">
<title>Node38</title>
<g id="a_Node000038"><a xlink:href="structllvm_1_1AAPrivatizablePtr.html" target="_top" xlink:title="An abstract interface for privatizability.">
<polygon fill="white" stroke="#666666" points="1030,-56.25 912.75,-56.25 912.75,-37 1030,-37 1030,-56.25"/>
<text xml:space="preserve" text-anchor="middle" x="971.38" y="-42.75" font-family="Helvetica,sans-Serif" font-size="10.00">llvm::AAPrivatizablePtr</text>
</a>
</g>
</g>
<!-- Node5&#45;&gt;Node38 -->
<g id="edge38_Node000005_Node000038" class="edge">
<title>Node5&#45;&gt;Node38</title>
<g id="a_edge38_Node000005_Node000038"><a xlink:title=" ">
<path fill="none" stroke="#63b8ff" d="M839.26,-411.22C839.42,-411.02 839.59,-410.82 839.75,-410.62 856.39,-390.26 854.51,-200.72 857.75,-174.62 863.87,-125.39 842,-100.04 876.75,-64.62 886.26,-54.94 899.28,-49.61 912.59,-46.84"/>
<polygon fill="#63b8ff" stroke="#63b8ff" points="836.9,-408.63 831.97,-418 841.67,-413.75 836.9,-408.63"/>
</a>
</g>
</g>
<!-- Node39 -->
<g id="Node000039" class="node">
<title>Node39</title>
<g id="a_Node000039"><a xlink:href="structllvm_1_1AAUndefinedBehavior.html" target="_top" xlink:title="An abstract attribute for undefined behavior.">
<polygon fill="white" stroke="#666666" points="1039.38,-19.25 903.38,-19.25 903.38,0 1039.38,0 1039.38,-19.25"/>
<text xml:space="preserve" text-anchor="middle" x="971.38" y="-5.75" font-family="Helvetica,sans-Serif" font-size="10.00">llvm::AAUndefinedBehavior</text>
</a>
</g>
</g>
<!-- Node5&#45;&gt;Node39 -->
<g id="edge39_Node000005_Node000039" class="edge">
<title>Node5&#45;&gt;Node39</title>
<g id="a_edge39_Node000005_Node000039"><a xlink:title=" ">
<path fill="none" stroke="#63b8ff" d="M839.26,-411.22C839.43,-411.03 839.59,-410.83 839.75,-410.62 862.01,-382.83 851.57,-125.7 857.75,-90.62 862.83,-61.82 855.03,-47.21 876.75,-27.62 884.25,-20.86 893.49,-16.3 903.21,-13.27"/>
<polygon fill="#63b8ff" stroke="#63b8ff" points="836.9,-408.64 832.04,-418.06 841.71,-413.73 836.9,-408.64"/>
</a>
</g>
</g>
<!-- Node7 -->
<g id="Node000007" class="node">
<title>Node7</title>
<g id="a_Node000007"><a xlink:href="structllvm_1_1AAMustProgress.html" target="_top" xlink:title="An abstract interface for all nonnull attributes.">
<polygon fill="white" stroke="#666666" points="1217.25,-1193.25 1103,-1193.25 1103,-1174 1217.25,-1174 1217.25,-1193.25"/>
<text xml:space="preserve" text-anchor="middle" x="1160.12" y="-1179.75" font-family="Helvetica,sans-Serif" font-size="10.00">llvm::AAMustProgress</text>
</a>
</g>
</g>
<!-- Node6&#45;&gt;Node7 -->
<g id="edge7_Node000006_Node000007" class="edge">
<title>Node6&#45;&gt;Node7</title>
<g id="a_edge7_Node000006_Node000007"><a xlink:title=" ">
<path fill="none" stroke="#63b8ff" d="M1077.64,-1183.62C1086.23,-1183.62 1094.69,-1183.62 1102.7,-1183.62"/>
<polygon fill="#63b8ff" stroke="#63b8ff" points="1077.81,-1180.13 1067.81,-1183.63 1077.81,-1187.13 1077.81,-1180.13"/>
</a>
</g>
</g>
<!-- Node9 -->
<g id="Node000009" class="node">
<title>Node9</title>
<g id="a_Node000009"><a xlink:href="structllvm_1_1AANoAlias.html" target="_top" xlink:title="An abstract interface for all noalias attributes.">
<polygon fill="white" stroke="#666666" points="1204.12,-1122.25 1116.12,-1122.25 1116.12,-1103 1204.12,-1103 1204.12,-1122.25"/>
<text xml:space="preserve" text-anchor="middle" x="1160.12" y="-1108.75" font-family="Helvetica,sans-Serif" font-size="10.00">llvm::AANoAlias</text>
</a>
</g>
</g>
<!-- Node8&#45;&gt;Node9 -->
<g id="edge9_Node000008_Node000009" class="edge">
<title>Node8&#45;&gt;Node9</title>
<g id="a_edge9_Node000008_Node000009"><a xlink:title=" ">
<path fill="none" stroke="#63b8ff" d="M1064.59,-1112.62C1082.45,-1112.62 1100.36,-1112.62 1115.71,-1112.62"/>
<polygon fill="#63b8ff" stroke="#63b8ff" points="1064.71,-1109.13 1054.71,-1112.63 1064.71,-1116.13 1064.71,-1109.13"/>
</a>
</g>
</g>
<!-- Node11 -->
<g id="Node000011" class="node">
<title>Node11</title>
<g id="a_Node000011"><a xlink:href="structllvm_1_1AANoFree.html" target="_top" xlink:title="An AbstractAttribute for nofree.">
<polygon fill="white" stroke="#666666" points="1203,-1051.25 1117.25,-1051.25 1117.25,-1032 1203,-1032 1203,-1051.25"/>
<text xml:space="preserve" text-anchor="middle" x="1160.12" y="-1037.75" font-family="Helvetica,sans-Serif" font-size="10.00">llvm::AANoFree</text>
</a>
</g>
</g>
<!-- Node10&#45;&gt;Node11 -->
<g id="edge11_Node000010_Node000011" class="edge">
<title>Node10&#45;&gt;Node11</title>
<g id="a_edge11_Node000010_Node000011"><a xlink:title=" ">
<path fill="none" stroke="#63b8ff" d="M1063.42,-1041.62C1082.15,-1041.62 1101.01,-1041.62 1116.98,-1041.62"/>
<polygon fill="#63b8ff" stroke="#63b8ff" points="1063.63,-1038.13 1053.63,-1041.63 1063.63,-1045.13 1063.63,-1038.13"/>
</a>
</g>
</g>
<!-- Node13 -->
<g id="Node000013" class="node">
<title>Node13</title>
<g id="a_Node000013"><a xlink:href="structllvm_1_1AANoRecurse.html" target="_top" xlink:title="An abstract attribute for norecurse.">
<polygon fill="white" stroke="#666666" points="1211.62,-980.25 1108.62,-980.25 1108.62,-961 1211.62,-961 1211.62,-980.25"/>
<text xml:space="preserve" text-anchor="middle" x="1160.12" y="-966.75" font-family="Helvetica,sans-Serif" font-size="10.00">llvm::AANoRecurse</text>
</a>
</g>
</g>
<!-- Node12&#45;&gt;Node13 -->
<g id="edge13_Node000012_Node000013" class="edge">
<title>Node12&#45;&gt;Node13</title>
<g id="a_edge13_Node000012_Node000013"><a xlink:title=" ">
<path fill="none" stroke="#63b8ff" d="M1072.3,-970.62C1084.78,-970.62 1097.1,-970.62 1108.36,-970.62"/>
<polygon fill="#63b8ff" stroke="#63b8ff" points="1072.34,-967.13 1062.34,-970.63 1072.34,-974.13 1072.34,-967.13"/>
</a>
</g>
</g>
<!-- Node15 -->
<g id="Node000015" class="node">
<title>Node15</title>
<g id="a_Node000015"><a xlink:href="structllvm_1_1AANoReturn.html" target="_top" xlink:title="An AbstractAttribute for noreturn.">
<polygon fill="white" stroke="#666666" points="1207.88,-909.25 1112.38,-909.25 1112.38,-890 1207.88,-890 1207.88,-909.25"/>
<text xml:space="preserve" text-anchor="middle" x="1160.12" y="-895.75" font-family="Helvetica,sans-Serif" font-size="10.00">llvm::AANoReturn</text>
</a>
</g>
</g>
<!-- Node14&#45;&gt;Node15 -->
<g id="edge15_Node000014_Node000015" class="edge">
<title>Node14&#45;&gt;Node15</title>
<g id="a_edge15_Node000014_Node000015"><a xlink:title=" ">
<path fill="none" stroke="#63b8ff" d="M1068.12,-899.62C1083.4,-899.62 1098.59,-899.62 1112.06,-899.62"/>
<polygon fill="#63b8ff" stroke="#63b8ff" points="1068.52,-896.13 1058.52,-899.63 1068.52,-903.13 1068.52,-896.13"/>
</a>
</g>
</g>
<!-- Node17 -->
<g id="Node000017" class="node">
<title>Node17</title>
<g id="a_Node000017"><a xlink:href="structllvm_1_1AANoSync.html" target="_top" xlink:title=" ">
<polygon fill="white" stroke="#666666" points="1204.5,-838.25 1115.75,-838.25 1115.75,-819 1204.5,-819 1204.5,-838.25"/>
<text xml:space="preserve" text-anchor="middle" x="1160.12" y="-824.75" font-family="Helvetica,sans-Serif" font-size="10.00">llvm::AANoSync</text>
</a>
</g>
</g>
<!-- Node16&#45;&gt;Node17 -->
<g id="edge17_Node000016_Node000017" class="edge">
<title>Node16&#45;&gt;Node17</title>
<g id="a_edge17_Node000016_Node000017"><a xlink:title=" ">
<path fill="none" stroke="#63b8ff" d="M1065.24,-828.62C1082.79,-828.62 1100.36,-828.62 1115.47,-828.62"/>
<polygon fill="#63b8ff" stroke="#63b8ff" points="1065.26,-825.13 1055.26,-828.63 1065.26,-832.13 1065.26,-825.13"/>
</a>
</g>
</g>
<!-- Node19 -->
<g id="Node000019" class="node">
<title>Node19</title>
<g id="a_Node000019"><a xlink:href="structllvm_1_1AANoUndef.html" target="_top" xlink:title="An abstract interface for all noundef attributes.">
<polygon fill="white" stroke="#666666" points="1206.38,-767.25 1113.88,-767.25 1113.88,-748 1206.38,-748 1206.38,-767.25"/>
<text xml:space="preserve" text-anchor="middle" x="1160.12" y="-753.75" font-family="Helvetica,sans-Serif" font-size="10.00">llvm::AANoUndef</text>
</a>
</g>
</g>
<!-- Node18&#45;&gt;Node19 -->
<g id="edge19_Node000018_Node000019" class="edge">
<title>Node18&#45;&gt;Node19</title>
<g id="a_edge19_Node000018_Node000019"><a xlink:title=" ">
<path fill="none" stroke="#63b8ff" d="M1066.65,-757.62C1082.96,-757.62 1099.24,-757.62 1113.49,-757.62"/>
<polygon fill="#63b8ff" stroke="#63b8ff" points="1066.89,-754.13 1056.89,-757.63 1066.89,-761.13 1066.89,-754.13"/>
</a>
</g>
</g>
<!-- Node21 -->
<g id="Node000021" class="node">
<title>Node21</title>
<g id="a_Node000021"><a xlink:href="structllvm_1_1AANoUnwind.html" target="_top" xlink:title=" ">
<polygon fill="white" stroke="#666666" points="1209.75,-696.25 1110.5,-696.25 1110.5,-677 1209.75,-677 1209.75,-696.25"/>
<text xml:space="preserve" text-anchor="middle" x="1160.12" y="-682.75" font-family="Helvetica,sans-Serif" font-size="10.00">llvm::AANoUnwind</text>
</a>
</g>
</g>
<!-- Node20&#45;&gt;Node21 -->
<g id="edge21_Node000020_Node000021" class="edge">
<title>Node20&#45;&gt;Node21</title>
<g id="a_edge21_Node000020_Node000021"><a xlink:title=" ">
<path fill="none" stroke="#63b8ff" d="M1070.05,-686.62C1083.92,-686.62 1097.66,-686.62 1110.05,-686.62"/>
<polygon fill="#63b8ff" stroke="#63b8ff" points="1070.43,-683.13 1060.43,-686.63 1070.43,-690.13 1070.43,-683.13"/>
</a>
</g>
</g>
<!-- Node23 -->
<g id="Node000023" class="node">
<title>Node23</title>
<g id="a_Node000023"><a xlink:href="structllvm_1_1AANonNull.html" target="_top" xlink:title="An abstract interface for all nonnull attributes.">
<polygon fill="white" stroke="#666666" points="1204.5,-625.25 1115.75,-625.25 1115.75,-606 1204.5,-606 1204.5,-625.25"/>
<text xml:space="preserve" text-anchor="middle" x="1160.12" y="-611.75" font-family="Helvetica,sans-Serif" font-size="10.00">llvm::AANonNull</text>
</a>
</g>
</g>
<!-- Node22&#45;&gt;Node23 -->
<g id="edge23_Node000022_Node000023" class="edge">
<title>Node22&#45;&gt;Node23</title>
<g id="a_edge23_Node000022_Node000023"><a xlink:title=" ">
<path fill="none" stroke="#63b8ff" d="M1065.24,-615.62C1082.79,-615.62 1100.36,-615.62 1115.47,-615.62"/>
<polygon fill="#63b8ff" stroke="#63b8ff" points="1065.26,-612.13 1055.26,-615.63 1065.26,-619.13 1065.26,-612.13"/>
</a>
</g>
</g>
<!-- Node25 -->
<g id="Node000025" class="node">
<title>Node25</title>
<g id="a_Node000025"><a xlink:href="structllvm_1_1AAWillReturn.html" target="_top" xlink:title="An abstract attribute for willreturn.">
<polygon fill="white" stroke="#666666" points="1209.38,-554.25 1110.88,-554.25 1110.88,-535 1209.38,-535 1209.38,-554.25"/>
<text xml:space="preserve" text-anchor="middle" x="1160.12" y="-540.75" font-family="Helvetica,sans-Serif" font-size="10.00">llvm::AAWillReturn</text>
</a>
</g>
</g>
<!-- Node24&#45;&gt;Node25 -->
<g id="edge25_Node000024_Node000025" class="edge">
<title>Node24&#45;&gt;Node25</title>
<g id="a_edge25_Node000024_Node000025"><a xlink:title=" ">
<path fill="none" stroke="#63b8ff" d="M1069.72,-544.62C1083.88,-544.62 1097.91,-544.62 1110.51,-544.62"/>
<polygon fill="#63b8ff" stroke="#63b8ff" points="1069.88,-541.13 1059.88,-544.63 1069.88,-548.13 1069.88,-541.13"/>
</a>
</g>
</g>
</g>
</svg>
