<?xml version="1.0" encoding="UTF-8" standalone="no"?>
<!DOCTYPE svg PUBLIC "-//W3C//DTD SVG 1.1//EN"
 "http://www.w3.org/Graphics/SVG/1.1/DTD/svg11.dtd">
<!-- Generated by graphviz version 13.1.2 (20250808.2320)
 -->
<!-- Title: llvm::SuffixTreeNode Pages: 1 -->
<svg width="294pt" height="83pt"
 viewBox="0.00 0.00 294.00 83.00" xmlns="http://www.w3.org/2000/svg" xmlns:xlink="http://www.w3.org/1999/xlink">
<g id="graph0" class="graph" transform="scale(1 1) rotate(0) translate(4 78.5)">
<title>llvm::SuffixTreeNode</title>
<!-- Node1 -->
<g id="Node000001" class="node">
<title>Node1</title>
<g id="a_Node000001"><a xlink:title="A node in a suffix tree which represents a substring or suffix.">
<polygon fill="#999999" stroke="#666666" points="200.38,-74.5 92.12,-74.5 92.12,-55.25 200.38,-55.25 200.38,-74.5"/>
<text xml:space="preserve" text-anchor="middle" x="146.25" y="-61" font-family="Helvetica,sans-Serif" font-size="10.00">llvm::SuffixTreeNode</text>
</a>
</g>
</g>
<!-- Node2 -->
<g id="Node000002" class="node">
<title>Node2</title>
<g id="a_Node000002"><a xlink:href="structllvm_1_1SuffixTreeInternalNode.html" target="_top" xlink:title=" ">
<polygon fill="white" stroke="#666666" points="140.5,-19.25 0,-19.25 0,0 140.5,0 140.5,-19.25"/>
<text xml:space="preserve" text-anchor="middle" x="70.25" y="-5.75" font-family="Helvetica,sans-Serif" font-size="10.00">llvm::SuffixTreeInternalNode</text>
</a>
</g>
</g>
<!-- Node1&#45;&gt;Node2 -->
<g id="edge1_Node000001_Node000002" class="edge">
<title>Node1&#45;&gt;Node2</title>
<g id="a_edge1_Node000001_Node000002"><a xlink:title=" ">
<path fill="none" stroke="#63b8ff" d="M123.96,-48.26C110.71,-38.97 94.36,-27.52 83.21,-19.7"/>
<polygon fill="#63b8ff" stroke="#63b8ff" points="121.92,-51.1 132.12,-53.97 125.94,-45.37 121.92,-51.1"/>
</a>
</g>
</g>
<!-- Node3 -->
<g id="Node000003" class="node">
<title>Node3</title>
<g id="a_Node000003"><a xlink:href="structllvm_1_1SuffixTreeLeafNode.html" target="_top" xlink:title=" ">
<polygon fill="white" stroke="#666666" points="285.75,-19.25 158.75,-19.25 158.75,0 285.75,0 285.75,-19.25"/>
<text xml:space="preserve" text-anchor="middle" x="222.25" y="-5.75" font-family="Helvetica,sans-Serif" font-size="10.00">llvm::SuffixTreeLeafNode</text>
</a>
</g>
</g>
<!-- Node1&#45;&gt;Node3 -->
<g id="edge2_Node000001_Node000003" class="edge">
<title>Node1&#45;&gt;Node3</title>
<g id="a_edge2_Node000001_Node000003"><a xlink:title=" ">
<path fill="none" stroke="#63b8ff" d="M168.54,-48.26C181.79,-38.97 198.14,-27.52 209.29,-19.7"/>
<polygon fill="#63b8ff" stroke="#63b8ff" points="166.56,-45.37 160.38,-53.97 170.58,-51.1 166.56,-45.37"/>
</a>
</g>
</g>
</g>
</svg>
