<?xml version="1.0" encoding="UTF-8" standalone="no"?>
<!DOCTYPE svg PUBLIC "-//W3C//DTD SVG 1.1//EN"
 "http://www.w3.org/Graphics/SVG/1.1/DTD/svg11.dtd">
<!-- Generated by graphviz version 13.1.2 (20250808.2320)
 -->
<!-- Title: llvm::detail::PointerSumTypeHelper&lt; TagT, MemberTs &gt;::Checker&lt; MemberT &gt; Pages: 1 -->
<svg width="453pt" height="88pt"
 viewBox="0.00 0.00 453.00 88.00" xmlns="http://www.w3.org/2000/svg" xmlns:xlink="http://www.w3.org/1999/xlink">
<g id="graph0" class="graph" transform="scale(1 1) rotate(0) translate(4 83.5)">
<title>llvm::detail::PointerSumTypeHelper&lt; TagT, MemberTs &gt;::Checker&lt; MemberT &gt;</title>
<!-- Node1 -->
<g id="Node000001" class="node">
<title>Node1</title>
<g id="a_Node000001"><a xlink:title=" ">
<polygon fill="#999999" stroke="#666666" points="445.25,-65.75 299.5,-65.75 299.5,-24 445.25,-24 445.25,-65.75"/>
<text xml:space="preserve" text-anchor="start" x="307.5" y="-52.25" font-family="Helvetica,sans-Serif" font-size="10.00">llvm::detail::PointerSum</text>
<text xml:space="preserve" text-anchor="start" x="307.5" y="-41" font-family="Helvetica,sans-Serif" font-size="10.00">TypeHelper&lt; TagT, MemberTs</text>
<text xml:space="preserve" text-anchor="middle" x="372.38" y="-29.75" font-family="Helvetica,sans-Serif" font-size="10.00"> &gt;::Checker&lt; MemberT &gt;</text>
</a>
</g>
</g>
<!-- Node2 -->
<g id="Node000002" class="node">
<title>Node2</title>
<g id="a_Node000002"><a xlink:title=" ">
<polygon fill="white" stroke="#666666" points="137.12,-79.5 61.12,-79.5 61.12,-60.25 137.12,-60.25 137.12,-79.5"/>
<text xml:space="preserve" text-anchor="middle" x="99.12" y="-66" font-family="Helvetica,sans-Serif" font-size="10.00">std::true_type</text>
</a>
</g>
</g>
<!-- Node2&#45;&gt;Node1 -->
<g id="edge1_Node000001_Node000002" class="edge">
<title>Node2&#45;&gt;Node1</title>
<g id="a_edge1_Node000001_Node000002"><a xlink:title=" ">
<path fill="none" stroke="#63b8ff" d="M148.66,-66.72C185.22,-64.2 236.55,-60.36 281.5,-55.88 287.29,-55.3 293.28,-54.66 299.3,-53.98"/>
<polygon fill="#63b8ff" stroke="#63b8ff" points="148.59,-63.22 138.85,-67.39 149.06,-70.2 148.59,-63.22"/>
</a>
</g>
</g>
<!-- Node3 -->
<g id="Node000003" class="node">
<title>Node3</title>
<g id="a_Node000003"><a xlink:href="structllvm_1_1detail_1_1PointerSumTypeHelper_1_1Checker.html" target="_top" xlink:title=" ">
<polygon fill="white" stroke="#666666" points="198.25,-41.75 0,-41.75 0,0 198.25,0 198.25,-41.75"/>
<text xml:space="preserve" text-anchor="start" x="8" y="-28.25" font-family="Helvetica,sans-Serif" font-size="10.00">llvm::detail::PointerSum</text>
<text xml:space="preserve" text-anchor="start" x="8" y="-17" font-family="Helvetica,sans-Serif" font-size="10.00">TypeHelper&lt; TagT, MemberTs</text>
<text xml:space="preserve" text-anchor="middle" x="99.12" y="-5.75" font-family="Helvetica,sans-Serif" font-size="10.00"> &gt;::Checker&lt; MemberT, InnerMemberTs &gt;</text>
</a>
</g>
</g>
<!-- Node3&#45;&gt;Node1 -->
<g id="edge2_Node000001_Node000003" class="edge">
<title>Node3&#45;&gt;Node1</title>
<g id="a_edge2_Node000001_Node000003"><a xlink:title=" ">
<path fill="none" stroke="orange" stroke-dasharray="5,2" d="M209.88,-30.59C240.02,-33.25 271.91,-36.07 299.33,-38.5"/>
<polygon fill="orange" stroke="orange" points="210.21,-27.1 199.94,-29.71 209.6,-34.07 210.21,-27.1"/>
</a>
</g>
<text xml:space="preserve" text-anchor="start" x="219.25" y="-41.18" font-family="Helvetica,sans-Serif" font-size="10.00" fill="grey">&lt; MemberT &gt;</text>
</g>
</g>
</svg>
