<?xml version="1.0" encoding="UTF-8" standalone="no"?>
<!DOCTYPE svg PUBLIC "-//W3C//DTD SVG 1.1//EN"
 "http://www.w3.org/Graphics/SVG/1.1/DTD/svg11.dtd">
<!-- Generated by graphviz version 13.1.2 (20250808.2320)
 -->
<!-- Title: llvm::object::XCOFFRelocation32 Pages: 1 -->
<svg width="213pt" height="179pt"
 viewBox="0.00 0.00 213.00 179.00" xmlns="http://www.w3.org/2000/svg" xmlns:xlink="http://www.w3.org/1999/xlink">
<g id="graph0" class="graph" transform="scale(1 1) rotate(0) translate(4 174.5)">
<title>llvm::object::XCOFFRelocation32</title>
<!-- Node1 -->
<g id="Node000001" class="node">
<title>Node1</title>
<g id="a_Node000001"><a xlink:title=" ">
<polygon fill="#999999" stroke="#666666" points="163,-19.25 0,-19.25 0,0 163,0 163,-19.25"/>
<text xml:space="preserve" text-anchor="middle" x="81.5" y="-5.75" font-family="Helvetica,sans-Serif" font-size="10.00">llvm::object::XCOFFRelocation32</text>
</a>
</g>
</g>
<!-- Node2 -->
<g id="Node000002" class="node">
<title>Node2</title>
<g id="a_Node000002"><a xlink:href="structllvm_1_1object_1_1XCOFFRelocation.html" target="_top" xlink:title=" ">
<polygon fill="white" stroke="#666666" points="157.75,-86.75 5.25,-86.75 5.25,-56.25 157.75,-56.25 157.75,-86.75"/>
<text xml:space="preserve" text-anchor="start" x="13.25" y="-73.25" font-family="Helvetica,sans-Serif" font-size="10.00">llvm::object::XCOFFRelocation</text>
<text xml:space="preserve" text-anchor="middle" x="81.5" y="-62" font-family="Helvetica,sans-Serif" font-size="10.00">&lt; llvm::support::ubig32_t &gt;</text>
</a>
</g>
</g>
<!-- Node2&#45;&gt;Node1 -->
<g id="edge1_Node000001_Node000002" class="edge">
<title>Node2&#45;&gt;Node1</title>
<g id="a_edge1_Node000001_Node000002"><a xlink:title=" ">
<path fill="none" stroke="#63b8ff" d="M81.5,-44.77C81.5,-35.79 81.5,-26.29 81.5,-19.6"/>
<polygon fill="#63b8ff" stroke="#63b8ff" points="78,-44.49 81.5,-54.49 85,-44.49 78,-44.49"/>
</a>
</g>
</g>
<!-- Node3 -->
<g id="Node000003" class="node">
<title>Node3</title>
<g id="a_Node000003"><a xlink:href="structllvm_1_1object_1_1XCOFFRelocation.html" target="_top" xlink:title=" ">
<polygon fill="white" stroke="#666666" points="157.75,-170.5 5.25,-170.5 5.25,-140 157.75,-140 157.75,-170.5"/>
<text xml:space="preserve" text-anchor="start" x="13.25" y="-157" font-family="Helvetica,sans-Serif" font-size="10.00">llvm::object::XCOFFRelocation</text>
<text xml:space="preserve" text-anchor="middle" x="81.5" y="-145.75" font-family="Helvetica,sans-Serif" font-size="10.00">&lt; AddressType &gt;</text>
</a>
</g>
</g>
<!-- Node3&#45;&gt;Node2 -->
<g id="edge2_Node000002_Node000003" class="edge">
<title>Node3&#45;&gt;Node2</title>
<g id="a_edge2_Node000002_Node000003"><a xlink:title=" ">
<path fill="none" stroke="orange" stroke-dasharray="5,2" d="M81.5,-128.47C81.5,-114.78 81.5,-98.46 81.5,-86.99"/>
<polygon fill="orange" stroke="orange" points="78,-128.12 81.5,-138.12 85,-128.12 78,-128.12"/>
</a>
</g>
<text xml:space="preserve" text-anchor="start" x="84.5" y="-109.5" font-family="Helvetica,sans-Serif" font-size="10.00" fill="grey">&lt; llvm::support::ubig32_t &gt;</text>
</g>
</g>
</svg>
