<?xml version="1.0" encoding="UTF-8" standalone="no"?>
<!DOCTYPE svg PUBLIC "-//W3C//DTD SVG 1.1//EN"
 "http://www.w3.org/Graphics/SVG/1.1/DTD/svg11.dtd">
<!-- Generated by graphviz version 13.1.2 (20250808.2320)
 -->
<!-- Title: llvm::AAPotentialValues Pages: 1 -->
<svg width="1056pt" height="225pt"
 viewBox="0.00 0.00 1056.00 225.00" xmlns="http://www.w3.org/2000/svg" xmlns:xlink="http://www.w3.org/1999/xlink">
<g id="graph0" class="graph" transform="scale(1 1) rotate(0) translate(4 221.25)">
<title>llvm::AAPotentialValues</title>
<!-- Node1 -->
<g id="Node000001" class="node">
<title>Node1</title>
<g id="a_Node000001"><a xlink:title=" ">
<polygon fill="#999999" stroke="#666666" points="1048,-123.25 927,-123.25 927,-104 1048,-104 1048,-123.25"/>
<text xml:space="preserve" text-anchor="middle" x="987.5" y="-109.75" font-family="Helvetica,sans-Serif" font-size="10.00">llvm::AAPotentialValues</text>
</a>
</g>
</g>
<!-- Node2 -->
<g id="Node000002" class="node">
<title>Node2</title>
<g id="a_Node000002"><a xlink:href="structllvm_1_1StateWrapper.html" target="_top" xlink:title=" ">
<polygon fill="white" stroke="#666666" points="890,-134.5 746.5,-134.5 746.5,-92.75 890,-92.75 890,-134.5"/>
<text xml:space="preserve" text-anchor="start" x="754.5" y="-121" font-family="Helvetica,sans-Serif" font-size="10.00">llvm::StateWrapper</text>
<text xml:space="preserve" text-anchor="start" x="754.5" y="-109.75" font-family="Helvetica,sans-Serif" font-size="10.00">&lt; PotentialLLVMValuesState,</text>
<text xml:space="preserve" text-anchor="middle" x="818.25" y="-98.5" font-family="Helvetica,sans-Serif" font-size="10.00"> AbstractAttribute &gt;</text>
</a>
</g>
</g>
<!-- Node2&#45;&gt;Node1 -->
<g id="edge1_Node000001_Node000002" class="edge">
<title>Node2&#45;&gt;Node1</title>
<g id="a_edge1_Node000001_Node000002"><a xlink:title=" ">
<path fill="none" stroke="#63b8ff" d="M901.61,-113.62C910.02,-113.62 918.44,-113.62 926.55,-113.62"/>
<polygon fill="#63b8ff" stroke="#63b8ff" points="901.69,-110.13 891.69,-113.63 901.69,-117.13 901.69,-110.13"/>
</a>
</g>
</g>
<!-- Node3 -->
<g id="Node000003" class="node">
<title>Node3</title>
<g id="a_Node000003"><a xlink:href="structllvm_1_1AbstractAttribute.html" target="_top" xlink:title="Base struct for all &quot;concrete attribute&quot; deductions.">
<polygon fill="white" stroke="#666666" points="567.62,-180.25 454.12,-180.25 454.12,-161 567.62,-161 567.62,-180.25"/>
<text xml:space="preserve" text-anchor="middle" x="510.88" y="-166.75" font-family="Helvetica,sans-Serif" font-size="10.00">llvm::AbstractAttribute</text>
</a>
</g>
</g>
<!-- Node3&#45;&gt;Node2 -->
<g id="edge2_Node000002_Node000003" class="edge">
<title>Node3&#45;&gt;Node2</title>
<g id="a_edge2_Node000002_Node000003"><a xlink:title=" ">
<path fill="none" stroke="#63b8ff" d="M577.38,-158.4C627.07,-149.12 695.29,-136.39 746.28,-126.87"/>
<polygon fill="#63b8ff" stroke="#63b8ff" points="576.79,-154.95 567.61,-160.22 578.08,-161.83 576.79,-154.95"/>
</a>
</g>
</g>
<!-- Node4 -->
<g id="Node000004" class="node">
<title>Node4</title>
<g id="a_Node000004"><a xlink:href="structllvm_1_1IRPosition.html" target="_top" xlink:title="Helper to describe and deal with positions in the LLVM&#45;IR.">
<polygon fill="white" stroke="#666666" points="245.25,-217.25 159.5,-217.25 159.5,-198 245.25,-198 245.25,-217.25"/>
<text xml:space="preserve" text-anchor="middle" x="202.38" y="-203.75" font-family="Helvetica,sans-Serif" font-size="10.00">llvm::IRPosition</text>
</a>
</g>
</g>
<!-- Node4&#45;&gt;Node3 -->
<g id="edge3_Node000003_Node000004" class="edge">
<title>Node4&#45;&gt;Node3</title>
<g id="a_edge3_Node000003_Node000004"><a xlink:title=" ">
<path fill="none" stroke="#63b8ff" d="M256.79,-203.1C302.12,-199.02 368.82,-192.48 426.75,-184.62 435.6,-183.43 444.95,-182 454.06,-180.53"/>
<polygon fill="#63b8ff" stroke="#63b8ff" points="256.62,-199.6 246.97,-203.97 257.24,-206.57 256.62,-199.6"/>
</a>
</g>
</g>
<!-- Node5 -->
<g id="Node000005" class="node">
<title>Node5</title>
<g id="a_Node000005"><a xlink:href="structllvm_1_1AADepGraphNode.html" target="_top" xlink:title="}">
<polygon fill="white" stroke="#666666" points="262.88,-180.25 141.88,-180.25 141.88,-161 262.88,-161 262.88,-180.25"/>
<text xml:space="preserve" text-anchor="middle" x="202.38" y="-166.75" font-family="Helvetica,sans-Serif" font-size="10.00">llvm::AADepGraphNode</text>
</a>
</g>
</g>
<!-- Node5&#45;&gt;Node3 -->
<g id="edge4_Node000003_Node000005" class="edge">
<title>Node5&#45;&gt;Node3</title>
<g id="a_edge4_Node000003_Node000005"><a xlink:title=" ">
<path fill="none" stroke="#63b8ff" d="M274.53,-170.62C329.11,-170.62 403.41,-170.62 453.82,-170.62"/>
<polygon fill="#63b8ff" stroke="#63b8ff" points="274.71,-167.13 264.71,-170.63 274.71,-174.13 274.71,-167.13"/>
</a>
</g>
</g>
<!-- Node6 -->
<g id="Node000006" class="node">
<title>Node6</title>
<g id="a_Node000006"><a xlink:href="structllvm_1_1PotentialValuesState.html" target="_top" xlink:title=" ">
<polygon fill="white" stroke="#666666" points="576.62,-123.25 445.12,-123.25 445.12,-104 576.62,-104 576.62,-123.25"/>
<text xml:space="preserve" text-anchor="middle" x="510.88" y="-109.75" font-family="Helvetica,sans-Serif" font-size="10.00">PotentialLLVMValuesState</text>
</a>
</g>
</g>
<!-- Node6&#45;&gt;Node2 -->
<g id="edge5_Node000002_Node000006" class="edge">
<title>Node6&#45;&gt;Node2</title>
<g id="a_edge5_Node000002_Node000006"><a xlink:title=" ">
<path fill="none" stroke="#63b8ff" d="M588.36,-113.62C636.72,-113.62 698.78,-113.62 746.08,-113.62"/>
<polygon fill="#63b8ff" stroke="#63b8ff" points="588.52,-110.13 578.52,-113.63 588.52,-117.13 588.52,-110.13"/>
</a>
</g>
</g>
<!-- Node7 -->
<g id="Node000007" class="node">
<title>Node7</title>
<g id="a_Node000007"><a xlink:href="structllvm_1_1AbstractState.html" target="_top" xlink:title="An interface to query the internal state of an abstract attribute.">
<polygon fill="white" stroke="#666666" points="100,-120.25 0,-120.25 0,-101 100,-101 100,-120.25"/>
<text xml:space="preserve" text-anchor="middle" x="50" y="-106.75" font-family="Helvetica,sans-Serif" font-size="10.00">llvm::AbstractState</text>
</a>
</g>
</g>
<!-- Node7&#45;&gt;Node6 -->
<g id="edge6_Node000006_Node000007" class="edge">
<title>Node7&#45;&gt;Node6</title>
<g id="a_edge6_Node000006_Node000007"><a xlink:title=" ">
<path fill="none" stroke="#63b8ff" d="M111.75,-115.31C113.86,-115.42 115.95,-115.53 118,-115.62 255.08,-121.96 289.58,-122.75 426.75,-118.62 432.67,-118.45 438.83,-118.2 445,-117.9"/>
<polygon fill="#63b8ff" stroke="#63b8ff" points="112.08,-111.82 101.89,-114.72 111.66,-118.81 112.08,-111.82"/>
</a>
</g>
</g>
<!-- Node8 -->
<g id="Node000008" class="node">
<title>Node8</title>
<g id="a_Node000008"><a xlink:href="structllvm_1_1PotentialValuesState.html" target="_top" xlink:title="A class for a set state.">
<polygon fill="white" stroke="#666666" points="267.75,-104.88 137,-104.88 137,-74.38 267.75,-74.38 267.75,-104.88"/>
<text xml:space="preserve" text-anchor="start" x="145" y="-91.38" font-family="Helvetica,sans-Serif" font-size="10.00">llvm::PotentialValuesState</text>
<text xml:space="preserve" text-anchor="middle" x="202.38" y="-80.12" font-family="Helvetica,sans-Serif" font-size="10.00">&lt; MemberTy &gt;</text>
</a>
</g>
</g>
<!-- Node7&#45;&gt;Node8 -->
<g id="edge8_Node000008_Node000007" class="edge">
<title>Node7&#45;&gt;Node8</title>
<g id="a_edge8_Node000008_Node000007"><a xlink:title=" ">
<path fill="none" stroke="#63b8ff" d="M111.4,-102.19C119.72,-101.03 128.3,-99.83 136.7,-98.66"/>
<polygon fill="#63b8ff" stroke="#63b8ff" points="111.16,-98.69 101.74,-103.54 112.13,-105.62 111.16,-98.69"/>
</a>
</g>
</g>
<!-- Node8&#45;&gt;Node6 -->
<g id="edge7_Node000006_Node000008" class="edge">
<title>Node8&#45;&gt;Node6</title>
<g id="a_edge7_Node000006_Node000008"><a xlink:title=" ">
<path fill="none" stroke="orange" stroke-dasharray="5,2" d="M279.18,-81.9C322.64,-79.09 378.07,-78.28 426.75,-86.12 447.46,-89.46 470,-97.19 486.37,-103.61"/>
<polygon fill="orange" stroke="orange" points="279.07,-78.39 269.34,-82.58 279.56,-85.38 279.07,-78.39"/>
</a>
</g>
<text xml:space="preserve" text-anchor="start" x="288.75" y="-106.12" font-family="Helvetica,sans-Serif" font-size="10.00" fill="grey">&lt; std::pair&lt; AA::ValueAnd</text>
<text xml:space="preserve" text-anchor="start" x="288.75" y="-90.88" font-family="Helvetica,sans-Serif" font-size="10.00" fill="grey">  Context, AA::ValueScope &gt; &gt;</text>
</g>
<!-- Node9 -->
<g id="Node000009" class="node">
<title>Node9</title>
<g id="a_Node000009"><a xlink:href="structllvm_1_1StateWrapper.html" target="_top" xlink:title="Helper to tie a abstract state implementation to an abstract attribute.">
<polygon fill="white" stroke="#666666" points="577,-61.88 444.75,-61.88 444.75,-31.38 577,-31.38 577,-61.88"/>
<text xml:space="preserve" text-anchor="start" x="452.75" y="-48.38" font-family="Helvetica,sans-Serif" font-size="10.00">llvm::StateWrapper</text>
<text xml:space="preserve" text-anchor="middle" x="510.88" y="-37.12" font-family="Helvetica,sans-Serif" font-size="10.00">&lt; StateTy, BaseType, Ts &gt;</text>
</a>
</g>
</g>
<!-- Node9&#45;&gt;Node2 -->
<g id="edge9_Node000002_Node000009" class="edge">
<title>Node9&#45;&gt;Node2</title>
<g id="a_edge9_Node000002_Node000009"><a xlink:title=" ">
<path fill="none" stroke="orange" stroke-dasharray="5,2" d="M588.43,-52.69C630.32,-57.18 682.84,-64.73 728.5,-77.12 742.81,-81.01 757.9,-86.6 771.49,-92.25"/>
<polygon fill="orange" stroke="orange" points="589,-49.23 578.69,-51.68 588.28,-56.19 589,-49.23"/>
</a>
</g>
<text xml:space="preserve" text-anchor="start" x="598" y="-97.12" font-family="Helvetica,sans-Serif" font-size="10.00" fill="grey">&lt; PotentialLLVMValuesState,</text>
<text xml:space="preserve" text-anchor="start" x="598" y="-81.88" font-family="Helvetica,sans-Serif" font-size="10.00" fill="grey">   AbstractAttribute &gt;</text>
</g>
<!-- Node10 -->
<g id="Node000010" class="node">
<title>Node10</title>
<g id="a_Node000010"><a xlink:href="classBaseType.html" target="_top" xlink:title=" ">
<polygon fill="white" stroke="#666666" points="232.12,-56.25 172.62,-56.25 172.62,-37 232.12,-37 232.12,-56.25"/>
<text xml:space="preserve" text-anchor="middle" x="202.38" y="-42.75" font-family="Helvetica,sans-Serif" font-size="10.00">BaseType</text>
</a>
</g>
</g>
<!-- Node10&#45;&gt;Node9 -->
<g id="edge10_Node000009_Node000010" class="edge">
<title>Node10&#45;&gt;Node9</title>
<g id="a_edge10_Node000009_Node000010"><a xlink:title=" ">
<path fill="none" stroke="#63b8ff" d="M243.71,-46.62C294.82,-46.62 383.56,-46.62 444.42,-46.62"/>
<polygon fill="#63b8ff" stroke="#63b8ff" points="244,-43.13 234,-46.63 244,-50.13 244,-43.13"/>
</a>
</g>
</g>
<!-- Node11 -->
<g id="Node000011" class="node">
<title>Node11</title>
<g id="a_Node000011"><a xlink:href="classStateTy.html" target="_top" xlink:title=" ">
<polygon fill="white" stroke="#666666" points="227.25,-19.25 177.5,-19.25 177.5,0 227.25,0 227.25,-19.25"/>
<text xml:space="preserve" text-anchor="middle" x="202.38" y="-5.75" font-family="Helvetica,sans-Serif" font-size="10.00">StateTy</text>
</a>
</g>
</g>
<!-- Node11&#45;&gt;Node9 -->
<g id="edge11_Node000009_Node000011" class="edge">
<title>Node11&#45;&gt;Node9</title>
<g id="a_edge11_Node000009_Node000011"><a xlink:title=" ">
<path fill="none" stroke="#63b8ff" d="M238.9,-13.91C289.08,-19.97 381.6,-31.14 444.42,-38.72"/>
<polygon fill="#63b8ff" stroke="#63b8ff" points="239.53,-10.46 229.18,-12.74 238.69,-17.41 239.53,-10.46"/>
</a>
</g>
</g>
</g>
</svg>
