<?xml version="1.0" encoding="UTF-8" standalone="no"?>
<!DOCTYPE svg PUBLIC "-//W3C//DTD SVG 1.1//EN"
 "http://www.w3.org/Graphics/SVG/1.1/DTD/svg11.dtd">
<!-- Generated by graphviz version 13.1.2 (20250808.2320)
 -->
<!-- Title: llvm::detail::zip_first&lt; Iters &gt; Pages: 1 -->
<svg width="740pt" height="113pt"
 viewBox="0.00 0.00 740.00 113.00" xmlns="http://www.w3.org/2000/svg" xmlns:xlink="http://www.w3.org/1999/xlink">
<g id="graph0" class="graph" transform="scale(1 1) rotate(0) translate(4 108.75)">
<title>llvm::detail::zip_first&lt; Iters &gt;</title>
<!-- Node1 -->
<g id="Node000001" class="node">
<title>Node1</title>
<g id="a_Node000001"><a xlink:title=" ">
<polygon fill="#999999" stroke="#666666" points="732,-67.12 628.25,-67.12 628.25,-36.62 732,-36.62 732,-67.12"/>
<text xml:space="preserve" text-anchor="start" x="636.25" y="-53.62" font-family="Helvetica,sans-Serif" font-size="10.00">llvm::detail::zip_first</text>
<text xml:space="preserve" text-anchor="middle" x="680.12" y="-42.38" font-family="Helvetica,sans-Serif" font-size="10.00">&lt; Iters &gt;</text>
</a>
</g>
</g>
<!-- Node2 -->
<g id="Node000002" class="node">
<title>Node2</title>
<g id="a_Node000002"><a xlink:href="structllvm_1_1detail_1_1zip__common.html" target="_top" xlink:title=" ">
<polygon fill="white" stroke="#666666" points="591.25,-78.38 466.5,-78.38 466.5,-25.38 591.25,-25.38 591.25,-78.38"/>
<text xml:space="preserve" text-anchor="start" x="474.5" y="-64.88" font-family="Helvetica,sans-Serif" font-size="10.00">llvm::detail::zip_common</text>
<text xml:space="preserve" text-anchor="start" x="474.5" y="-53.62" font-family="Helvetica,sans-Serif" font-size="10.00">&lt; zip_first&lt; Iters... &gt;</text>
<text xml:space="preserve" text-anchor="start" x="474.5" y="-42.38" font-family="Helvetica,sans-Serif" font-size="10.00">, ZipTupleType&lt; Iters...</text>
<text xml:space="preserve" text-anchor="middle" x="528.88" y="-31.12" font-family="Helvetica,sans-Serif" font-size="10.00"> &gt;::type, Iters... &gt;</text>
</a>
</g>
</g>
<!-- Node2&#45;&gt;Node1 -->
<g id="edge1_Node000001_Node000002" class="edge">
<title>Node2&#45;&gt;Node1</title>
<g id="a_edge1_Node000001_Node000002"><a xlink:title=" ">
<path fill="none" stroke="#63b8ff" d="M602.69,-51.88C611.3,-51.88 619.93,-51.88 628.14,-51.88"/>
<polygon fill="#63b8ff" stroke="#63b8ff" points="602.96,-48.38 592.96,-51.88 602.96,-55.38 602.96,-48.38"/>
</a>
</g>
</g>
<!-- Node3 -->
<g id="Node000003" class="node">
<title>Node3</title>
<g id="a_Node000003"><a xlink:href="classllvm_1_1iterator__facade__base.html" target="_top" xlink:title="CRTP base class which implements the entire standard iterator facade in terms of a minimal subset of ...">
<polygon fill="white" stroke="#666666" points="293.62,-104.75 162.88,-104.75 162.88,-63 293.62,-63 293.62,-104.75"/>
<text xml:space="preserve" text-anchor="start" x="170.88" y="-91.25" font-family="Helvetica,sans-Serif" font-size="10.00">zip_traits&lt; zip_first</text>
<text xml:space="preserve" text-anchor="start" x="170.88" y="-80" font-family="Helvetica,sans-Serif" font-size="10.00">&lt; Iters... &gt;, ZipTupleType</text>
<text xml:space="preserve" text-anchor="middle" x="228.25" y="-68.75" font-family="Helvetica,sans-Serif" font-size="10.00">&lt; Iters... &gt;::type, Iters... &gt;</text>
</a>
</g>
</g>
<!-- Node3&#45;&gt;Node2 -->
<g id="edge2_Node000002_Node000003" class="edge">
<title>Node3&#45;&gt;Node2</title>
<g id="a_edge2_Node000002_Node000003"><a xlink:title=" ">
<path fill="none" stroke="#63b8ff" d="M305.16,-82C347.51,-80.21 401.13,-76.71 448.5,-69.88 454.23,-69.05 460.17,-68.02 466.09,-66.89"/>
<polygon fill="#63b8ff" stroke="#63b8ff" points="305.17,-78.5 295.32,-82.39 305.45,-85.49 305.17,-78.5"/>
</a>
</g>
</g>
<!-- Node4 -->
<g id="Node000004" class="node">
<title>Node4</title>
<g id="a_Node000004"><a xlink:href="structllvm_1_1detail_1_1zip__common.html" target="_top" xlink:title=" ">
<polygon fill="white" stroke="#666666" points="307.5,-41.75 149,-41.75 149,0 307.5,0 307.5,-41.75"/>
<text xml:space="preserve" text-anchor="start" x="157" y="-28.25" font-family="Helvetica,sans-Serif" font-size="10.00">llvm::detail::zip_common</text>
<text xml:space="preserve" text-anchor="start" x="157" y="-17" font-family="Helvetica,sans-Serif" font-size="10.00">&lt; ZipType, ReferenceTupleType,</text>
<text xml:space="preserve" text-anchor="middle" x="228.25" y="-5.75" font-family="Helvetica,sans-Serif" font-size="10.00"> Iters &gt;</text>
</a>
</g>
</g>
<!-- Node4&#45;&gt;Node2 -->
<g id="edge3_Node000002_Node000004" class="edge">
<title>Node4&#45;&gt;Node2</title>
<g id="a_edge3_Node000002_Node000004"><a xlink:title=" ">
<path fill="none" stroke="orange" stroke-dasharray="5,2" d="M319.08,-14.3C359.01,-13.19 406.42,-14.37 448.5,-22.12 454.29,-23.19 460.21,-24.65 466.07,-26.35"/>
<polygon fill="orange" stroke="orange" points="319.14,-10.79 309.27,-14.63 319.38,-17.79 319.14,-10.79"/>
</a>
</g>
<text xml:space="preserve" text-anchor="start" x="328.5" y="-57.38" font-family="Helvetica,sans-Serif" font-size="10.00" fill="grey">&lt; zip_first&lt; Iters...</text>
<text xml:space="preserve" text-anchor="start" x="328.5" y="-42.12" font-family="Helvetica,sans-Serif" font-size="10.00" fill="grey">   &gt;, ZipTupleType&lt; Iters...</text>
<text xml:space="preserve" text-anchor="start" x="328.5" y="-26.88" font-family="Helvetica,sans-Serif" font-size="10.00" fill="grey">   &gt;::type, Iters... &gt;</text>
</g>
<!-- Node5 -->
<g id="Node000005" class="node">
<title>Node5</title>
<g id="a_Node000005"><a xlink:href="classllvm_1_1iterator__facade__base.html" target="_top" xlink:title="CRTP base class which implements the entire standard iterator facade in terms of a minimal subset of ...">
<polygon fill="white" stroke="#666666" points="112,-41.75 0,-41.75 0,0 112,0 112,-41.75"/>
<text xml:space="preserve" text-anchor="start" x="8" y="-28.25" font-family="Helvetica,sans-Serif" font-size="10.00">zip_traits&lt; ZipType,</text>
<text xml:space="preserve" text-anchor="start" x="8" y="-17" font-family="Helvetica,sans-Serif" font-size="10.00"> ReferenceTupleType,</text>
<text xml:space="preserve" text-anchor="middle" x="56" y="-5.75" font-family="Helvetica,sans-Serif" font-size="10.00"> Iters... &gt;</text>
</a>
</g>
</g>
<!-- Node5&#45;&gt;Node4 -->
<g id="edge4_Node000004_Node000005" class="edge">
<title>Node5&#45;&gt;Node4</title>
<g id="a_edge4_Node000004_Node000005"><a xlink:title=" ">
<path fill="none" stroke="#63b8ff" d="M123.7,-20.88C131.92,-20.88 140.38,-20.88 148.75,-20.88"/>
<polygon fill="#63b8ff" stroke="#63b8ff" points="123.79,-17.38 113.79,-20.88 123.79,-24.38 123.79,-17.38"/>
</a>
</g>
</g>
</g>
</svg>
