<?xml version="1.0" encoding="UTF-8" standalone="no"?>
<!DOCTYPE svg PUBLIC "-//W3C//DTD SVG 1.1//EN"
 "http://www.w3.org/Graphics/SVG/1.1/DTD/svg11.dtd">
<!-- Generated by graphviz version 13.1.2 (20250808.2320)
 -->
<!-- Title: llvm::function_traits&lt; ReturnType(&amp;)(Args...), false &gt; Pages: 1 -->
<svg width="548pt" height="96pt"
 viewBox="0.00 0.00 548.00 96.00" xmlns="http://www.w3.org/2000/svg" xmlns:xlink="http://www.w3.org/1999/xlink">
<g id="graph0" class="graph" transform="scale(1 1) rotate(0) translate(4 92.08)">
<title>llvm::function_traits&lt; ReturnType(&amp;)(Args...), false &gt;</title>
<!-- Node1 -->
<g id="Node000001" class="node">
<title>Node1</title>
<g id="a_Node000001"><a xlink:title="Overload for non&#45;class function type references.">
<polygon fill="#999999" stroke="#666666" points="540.25,-61.12 417,-61.12 417,-19.38 540.25,-19.38 540.25,-61.12"/>
<text xml:space="preserve" text-anchor="start" x="425" y="-47.62" font-family="Helvetica,sans-Serif" font-size="10.00">llvm::function_traits</text>
<text xml:space="preserve" text-anchor="start" x="425" y="-36.38" font-family="Helvetica,sans-Serif" font-size="10.00">&lt; ReturnType(&amp;)(Args...)</text>
<text xml:space="preserve" text-anchor="middle" x="478.62" y="-25.12" font-family="Helvetica,sans-Serif" font-size="10.00">, false &gt;</text>
</a>
</g>
</g>
<!-- Node2 -->
<g id="Node000002" class="node">
<title>Node2</title>
<g id="a_Node000002"><a xlink:href="structllvm_1_1function__traits.html" target="_top" xlink:title=" ">
<polygon fill="white" stroke="#666666" points="380,-30.5 253.75,-30.5 253.75,0 380,0 380,-30.5"/>
<text xml:space="preserve" text-anchor="start" x="261.75" y="-17" font-family="Helvetica,sans-Serif" font-size="10.00">llvm::function_traits</text>
<text xml:space="preserve" text-anchor="middle" x="316.88" y="-5.75" font-family="Helvetica,sans-Serif" font-size="10.00">&lt; ReturnType(*)(Args...)&gt;</text>
</a>
</g>
</g>
<!-- Node2&#45;&gt;Node1 -->
<g id="edge1_Node000001_Node000002" class="edge">
<title>Node2&#45;&gt;Node1</title>
<g id="a_edge1_Node000001_Node000002"><a xlink:title=" ">
<path fill="none" stroke="#63b8ff" d="M391.19,-26.72C399.7,-28.05 408.31,-29.4 416.62,-30.7"/>
<polygon fill="#63b8ff" stroke="#63b8ff" points="392.01,-23.31 381.59,-25.22 390.93,-30.23 392.01,-23.31"/>
</a>
</g>
</g>
<!-- Node3 -->
<g id="Node000003" class="node">
<title>Node3</title>
<g id="a_Node000003"><a xlink:href="structllvm_1_1function__traits.html" target="_top" xlink:title="This class provides various trait information about a callable object.">
<polygon fill="white" stroke="#666666" points="101.5,-56.5 0,-56.5 0,-26 101.5,-26 101.5,-56.5"/>
<text xml:space="preserve" text-anchor="start" x="8" y="-43" font-family="Helvetica,sans-Serif" font-size="10.00">llvm::function_traits</text>
<text xml:space="preserve" text-anchor="middle" x="50.75" y="-31.75" font-family="Helvetica,sans-Serif" font-size="10.00">&lt; T, isClass &gt;</text>
</a>
</g>
</g>
<!-- Node3&#45;&gt;Node1 -->
<g id="edge3_Node000001_Node000003" class="edge">
<title>Node3&#45;&gt;Node1</title>
<g id="a_edge3_Node000001_Node000003"><a xlink:title=" ">
<path fill="none" stroke="orange" stroke-dasharray="5,2" d="M113.27,-51.68C115.37,-51.89 117.45,-52.08 119.5,-52.25 223.67,-60.65 345.35,-52.86 416.69,-46.51"/>
<polygon fill="orange" stroke="orange" points="113.8,-48.21 103.46,-50.5 112.97,-55.17 113.8,-48.21"/>
</a>
</g>
<text xml:space="preserve" text-anchor="start" x="263.25" y="-75.58" font-family="Helvetica,sans-Serif" font-size="10.00" fill="grey">&lt; ReturnType(&amp;)(Args...)</text>
<text xml:space="preserve" text-anchor="start" x="263.25" y="-60.33" font-family="Helvetica,sans-Serif" font-size="10.00" fill="grey">  , false &gt;</text>
</g>
<!-- Node3&#45;&gt;Node2 -->
<g id="edge2_Node000002_Node000003" class="edge">
<title>Node3&#45;&gt;Node2</title>
<g id="a_edge2_Node000002_Node000003"><a xlink:title=" ">
<path fill="none" stroke="orange" stroke-dasharray="5,2" d="M112.98,-35.22C155.18,-31.07 211.07,-25.57 253.51,-21.39"/>
<polygon fill="orange" stroke="orange" points="112.86,-31.72 103.25,-36.18 113.54,-38.68 112.86,-31.72"/>
</a>
</g>
<text xml:space="preserve" text-anchor="start" x="122.5" y="-39.03" font-family="Helvetica,sans-Serif" font-size="10.00" fill="grey">&lt; ReturnType(*)(Args...)&gt;</text>
</g>
</g>
</svg>
