<?xml version="1.0" encoding="UTF-8" standalone="no"?>
<!DOCTYPE svg PUBLIC "-//W3C//DTD SVG 1.1//EN"
 "http://www.w3.org/Graphics/SVG/1.1/DTD/svg11.dtd">
<!-- Generated by graphviz version 13.1.2 (20250808.2320)
 -->
<!-- Title: llvm::CodeViewYAML::detail::LeafRecordImpl&lt; FieldListRecord &gt; Pages: 1 -->
<svg width="562pt" height="96pt"
 viewBox="0.00 0.00 562.00 96.00" xmlns="http://www.w3.org/2000/svg" xmlns:xlink="http://www.w3.org/1999/xlink">
<g id="graph0" class="graph" transform="scale(1 1) rotate(0) translate(4 92.12)">
<title>llvm::CodeViewYAML::detail::LeafRecordImpl&lt; FieldListRecord &gt;</title>
<!-- Node1 -->
<g id="Node000001" class="node">
<title>Node1</title>
<g id="a_Node000001"><a xlink:title=" ">
<polygon fill="#999999" stroke="#666666" points="553.75,-88.12 433.5,-88.12 433.5,-46.38 553.75,-46.38 553.75,-88.12"/>
<text xml:space="preserve" text-anchor="start" x="441.5" y="-74.62" font-family="Helvetica,sans-Serif" font-size="10.00">llvm::CodeViewYAML</text>
<text xml:space="preserve" text-anchor="start" x="441.5" y="-63.38" font-family="Helvetica,sans-Serif" font-size="10.00">::detail::LeafRecordImpl</text>
<text xml:space="preserve" text-anchor="middle" x="493.62" y="-52.12" font-family="Helvetica,sans-Serif" font-size="10.00">&lt; FieldListRecord &gt;</text>
</a>
</g>
</g>
<!-- Node2 -->
<g id="Node000002" class="node">
<title>Node2</title>
<g id="a_Node000002"><a xlink:href="structllvm_1_1CodeViewYAML_1_1detail_1_1LeafRecordBase.html" target="_top" xlink:title=" ">
<polygon fill="white" stroke="#666666" points="124,-82.5 0,-82.5 0,-52 124,-52 124,-82.5"/>
<text xml:space="preserve" text-anchor="start" x="8" y="-69" font-family="Helvetica,sans-Serif" font-size="10.00">llvm::CodeViewYAML</text>
<text xml:space="preserve" text-anchor="middle" x="62" y="-57.75" font-family="Helvetica,sans-Serif" font-size="10.00">::detail::LeafRecordBase</text>
</a>
</g>
</g>
<!-- Node2&#45;&gt;Node1 -->
<g id="edge1_Node000001_Node000002" class="edge">
<title>Node2&#45;&gt;Node1</title>
<g id="a_edge1_Node000001_Node000002"><a xlink:title=" ">
<path fill="none" stroke="#63b8ff" d="M135.55,-62.04C219.27,-59.87 355.36,-59.99 433.12,-62.41"/>
<polygon fill="#63b8ff" stroke="#63b8ff" points="135.51,-58.54 125.61,-62.32 135.71,-65.54 135.51,-58.54"/>
</a>
</g>
</g>
<!-- Node2&#45;&gt;Node1 -->
<g id="edge2_Node000001_Node000002" class="edge">
<title>Node2&#45;&gt;Node1</title>
<g id="a_edge2_Node000001_Node000002"><a xlink:title=" ">
<path fill="none" stroke="#63b8ff" d="M135.55,-72.46C219.27,-74.63 355.36,-74.51 433.12,-72.09"/>
<polygon fill="#63b8ff" stroke="#63b8ff" points="135.71,-68.96 125.61,-72.18 135.51,-75.96 135.71,-68.96"/>
</a>
</g>
</g>
<!-- Node3 -->
<g id="Node000003" class="node">
<title>Node3</title>
<g id="a_Node000003"><a xlink:href="structllvm_1_1CodeViewYAML_1_1detail_1_1LeafRecordImpl.html" target="_top" xlink:title=" ">
<polygon fill="white" stroke="#666666" points="305.25,-30.5 161,-30.5 161,0 305.25,0 305.25,-30.5"/>
<text xml:space="preserve" text-anchor="start" x="169" y="-17" font-family="Helvetica,sans-Serif" font-size="10.00">llvm::CodeViewYAML</text>
<text xml:space="preserve" text-anchor="middle" x="233.12" y="-5.75" font-family="Helvetica,sans-Serif" font-size="10.00">::detail::LeafRecordImpl&lt; T &gt;</text>
</a>
</g>
</g>
<!-- Node2&#45;&gt;Node3 -->
<g id="edge4_Node000003_Node000002" class="edge">
<title>Node2&#45;&gt;Node3</title>
<g id="a_edge4_Node000003_Node000002"><a xlink:title=" ">
<path fill="none" stroke="#63b8ff" d="M125.13,-48.15C143.54,-42.49 163.48,-36.36 181.1,-30.94"/>
<polygon fill="#63b8ff" stroke="#63b8ff" points="124.18,-44.78 115.65,-51.06 126.24,-51.47 124.18,-44.78"/>
</a>
</g>
</g>
<!-- Node3&#45;&gt;Node1 -->
<g id="edge3_Node000001_Node000003" class="edge">
<title>Node3&#45;&gt;Node1</title>
<g id="a_edge3_Node000001_Node000003"><a xlink:title=" ">
<path fill="none" stroke="orange" stroke-dasharray="5,2" d="M316.82,-13.41C348.2,-14.58 383.97,-18.18 415.5,-27 430.63,-31.23 446.19,-38.67 459.34,-46.01"/>
<polygon fill="orange" stroke="orange" points="317.07,-9.92 306.98,-13.13 316.87,-16.92 317.07,-9.92"/>
</a>
</g>
<text xml:space="preserve" text-anchor="start" x="326.25" y="-31.75" font-family="Helvetica,sans-Serif" font-size="10.00" fill="grey">&lt; FieldListRecord &gt;</text>
</g>
</g>
</svg>
