<?xml version="1.0" encoding="UTF-8" standalone="no"?>
<!DOCTYPE svg PUBLIC "-//W3C//DTD SVG 1.1//EN"
 "http://www.w3.org/Graphics/SVG/1.1/DTD/svg11.dtd">
<!-- Generated by graphviz version 13.1.2 (20250808.2320)
 -->
<!-- Title: llvm::CallLowering::ValueAssigner Pages: 1 -->
<svg width="264pt" height="88pt"
 viewBox="0.00 0.00 264.00 88.00" xmlns="http://www.w3.org/2000/svg" xmlns:xlink="http://www.w3.org/1999/xlink">
<g id="graph0" class="graph" transform="scale(1 1) rotate(0) translate(4 83.5)">
<title>llvm::CallLowering::ValueAssigner</title>
<!-- Node1 -->
<g id="Node000001" class="node">
<title>Node1</title>
<g id="a_Node000001"><a xlink:title="Argument handling is mostly uniform between the four places that make these decisions: function forma...">
<polygon fill="#999999" stroke="#666666" points="96.25,-54.5 0,-54.5 0,-24 96.25,-24 96.25,-54.5"/>
<text xml:space="preserve" text-anchor="start" x="8" y="-41" font-family="Helvetica,sans-Serif" font-size="10.00">llvm::CallLowering</text>
<text xml:space="preserve" text-anchor="middle" x="48.12" y="-29.75" font-family="Helvetica,sans-Serif" font-size="10.00">::ValueAssigner</text>
</a>
</g>
</g>
<!-- Node2 -->
<g id="Node000002" class="node">
<title>Node2</title>
<g id="a_Node000002"><a xlink:href="structllvm_1_1CallLowering_1_1IncomingValueAssigner.html" target="_top" xlink:title=" ">
<polygon fill="white" stroke="#666666" points="256.25,-79.5 132.25,-79.5 132.25,-49 256.25,-49 256.25,-79.5"/>
<text xml:space="preserve" text-anchor="start" x="140.25" y="-66" font-family="Helvetica,sans-Serif" font-size="10.00">llvm::CallLowering</text>
<text xml:space="preserve" text-anchor="middle" x="194.25" y="-54.75" font-family="Helvetica,sans-Serif" font-size="10.00">::IncomingValueAssigner</text>
</a>
</g>
</g>
<!-- Node1&#45;&gt;Node2 -->
<g id="edge1_Node000001_Node000002" class="edge">
<title>Node1&#45;&gt;Node2</title>
<g id="a_edge1_Node000001_Node000002"><a xlink:title=" ">
<path fill="none" stroke="#63b8ff" d="M108.02,-49.47C115.87,-50.83 123.94,-52.23 131.83,-53.6"/>
<polygon fill="#63b8ff" stroke="#63b8ff" points="108.66,-46.02 98.21,-47.76 107.46,-52.92 108.66,-46.02"/>
</a>
</g>
</g>
<!-- Node3 -->
<g id="Node000003" class="node">
<title>Node3</title>
<g id="a_Node000003"><a xlink:href="structllvm_1_1CallLowering_1_1OutgoingValueAssigner.html" target="_top" xlink:title=" ">
<polygon fill="white" stroke="#666666" points="255.88,-30.5 132.62,-30.5 132.62,0 255.88,0 255.88,-30.5"/>
<text xml:space="preserve" text-anchor="start" x="140.62" y="-17" font-family="Helvetica,sans-Serif" font-size="10.00">llvm::CallLowering</text>
<text xml:space="preserve" text-anchor="middle" x="194.25" y="-5.75" font-family="Helvetica,sans-Serif" font-size="10.00">::OutgoingValueAssigner</text>
</a>
</g>
</g>
<!-- Node1&#45;&gt;Node3 -->
<g id="edge2_Node000001_Node000003" class="edge">
<title>Node1&#45;&gt;Node3</title>
<g id="a_edge2_Node000001_Node000003"><a xlink:title=" ">
<path fill="none" stroke="#63b8ff" d="M107.91,-29.46C115.97,-28.12 124.25,-26.74 132.34,-25.39"/>
<polygon fill="#63b8ff" stroke="#63b8ff" points="107.5,-25.98 98.21,-31.08 108.65,-32.89 107.5,-25.98"/>
</a>
</g>
</g>
</g>
</svg>
