<?xml version="1.0" encoding="UTF-8" standalone="no"?>
<!DOCTYPE svg PUBLIC "-//W3C//DTD SVG 1.1//EN"
 "http://www.w3.org/Graphics/SVG/1.1/DTD/svg11.dtd">
<!-- Generated by graphviz version 13.1.2 (20250808.2320)
 -->
<!-- Title: llvm::IRSimilarity::IRInstructionDataTraits Pages: 1 -->
<svg width="178pt" height="190pt"
 viewBox="0.00 0.00 178.00 190.00" xmlns="http://www.w3.org/2000/svg" xmlns:xlink="http://www.w3.org/1999/xlink">
<g id="graph0" class="graph" transform="scale(1 1) rotate(0) translate(4 185.75)">
<title>llvm::IRSimilarity::IRInstructionDataTraits</title>
<!-- Node1 -->
<g id="Node000001" class="node">
<title>Node1</title>
<g id="a_Node000001"><a xlink:title=" ">
<polygon fill="#999999" stroke="#666666" points="124,-30.5 0,-30.5 0,0 124,0 124,-30.5"/>
<text xml:space="preserve" text-anchor="start" x="8" y="-17" font-family="Helvetica,sans-Serif" font-size="10.00">llvm::IRSimilarity</text>
<text xml:space="preserve" text-anchor="middle" x="62" y="-5.75" font-family="Helvetica,sans-Serif" font-size="10.00">::IRInstructionDataTraits</text>
</a>
</g>
</g>
<!-- Node2 -->
<g id="Node000002" class="node">
<title>Node2</title>
<g id="a_Node000002"><a xlink:href="structllvm_1_1DenseMapInfo.html" target="_top" xlink:title=" ">
<polygon fill="white" stroke="#666666" points="121,-98 3,-98 3,-67.5 121,-67.5 121,-98"/>
<text xml:space="preserve" text-anchor="start" x="11" y="-84.5" font-family="Helvetica,sans-Serif" font-size="10.00">llvm::DenseMapInfo</text>
<text xml:space="preserve" text-anchor="middle" x="62" y="-73.25" font-family="Helvetica,sans-Serif" font-size="10.00">&lt; IRInstructionData * &gt;</text>
</a>
</g>
</g>
<!-- Node2&#45;&gt;Node1 -->
<g id="edge1_Node000001_Node000002" class="edge">
<title>Node2&#45;&gt;Node1</title>
<g id="a_edge1_Node000001_Node000002"><a xlink:title=" ">
<path fill="none" stroke="#63b8ff" d="M62,-55.84C62,-47.3 62,-38.12 62,-30.75"/>
<polygon fill="#63b8ff" stroke="#63b8ff" points="58.5,-55.7 62,-65.7 65.5,-55.7 58.5,-55.7"/>
</a>
</g>
</g>
<!-- Node3 -->
<g id="Node000003" class="node">
<title>Node3</title>
<g id="a_Node000003"><a xlink:href="structllvm_1_1DenseMapInfo.html" target="_top" xlink:title="An information struct used to provide DenseMap with the various necessary components for a given valu...">
<polygon fill="white" stroke="#666666" points="113.88,-181.75 10.12,-181.75 10.12,-151.25 113.88,-151.25 113.88,-181.75"/>
<text xml:space="preserve" text-anchor="start" x="18.12" y="-168.25" font-family="Helvetica,sans-Serif" font-size="10.00">llvm::DenseMapInfo</text>
<text xml:space="preserve" text-anchor="middle" x="62" y="-157" font-family="Helvetica,sans-Serif" font-size="10.00">&lt; T, Enable &gt;</text>
</a>
</g>
</g>
<!-- Node3&#45;&gt;Node2 -->
<g id="edge2_Node000002_Node000003" class="edge">
<title>Node3&#45;&gt;Node2</title>
<g id="a_edge2_Node000002_Node000003"><a xlink:title=" ">
<path fill="none" stroke="orange" stroke-dasharray="5,2" d="M62,-139.72C62,-126.03 62,-109.71 62,-98.24"/>
<polygon fill="orange" stroke="orange" points="58.5,-139.37 62,-149.37 65.5,-139.37 58.5,-139.37"/>
</a>
</g>
<text xml:space="preserve" text-anchor="start" x="65" y="-120.75" font-family="Helvetica,sans-Serif" font-size="10.00" fill="grey">&lt; IRInstructionData * &gt;</text>
</g>
</g>
</svg>
