<?xml version="1.0" encoding="UTF-8" standalone="no"?>
<!DOCTYPE svg PUBLIC "-//W3C//DTD SVG 1.1//EN"
 "http://www.w3.org/Graphics/SVG/1.1/DTD/svg11.dtd">
<!-- Generated by graphviz version 13.1.2 (20250808.2320)
 -->
<!-- Title: llvm::irsymtab::Symbol Pages: 1 -->
<svg width="236pt" height="94pt"
 viewBox="0.00 0.00 236.00 94.00" xmlns="http://www.w3.org/2000/svg" xmlns:xlink="http://www.w3.org/1999/xlink">
<g id="graph0" class="graph" transform="scale(1 1) rotate(0) translate(4 89.75)">
<title>llvm::irsymtab::Symbol</title>
<!-- Node1 -->
<g id="Node000001" class="node">
<title>Node1</title>
<g id="a_Node000001"><a xlink:title="This represents a symbol that has been read from a storage::Symbol and possibly a storage::Uncommon.">
<polygon fill="#999999" stroke="#666666" points="176.75,-85.75 60.25,-85.75 60.25,-66.5 176.75,-66.5 176.75,-85.75"/>
<text xml:space="preserve" text-anchor="middle" x="118.5" y="-72.25" font-family="Helvetica,sans-Serif" font-size="10.00">llvm::irsymtab::Symbol</text>
</a>
</g>
</g>
<!-- Node2 -->
<g id="Node000002" class="node">
<title>Node2</title>
<g id="a_Node000002"><a xlink:href="classllvm_1_1irsymtab_1_1Reader_1_1SymbolRef.html" target="_top" xlink:title="Ephemeral symbols produced by Reader::symbols() and Reader::module_symbols().">
<polygon fill="white" stroke="#666666" points="115,-30.5 0,-30.5 0,0 115,0 115,-30.5"/>
<text xml:space="preserve" text-anchor="start" x="8" y="-17" font-family="Helvetica,sans-Serif" font-size="10.00">llvm::irsymtab::Reader</text>
<text xml:space="preserve" text-anchor="middle" x="57.5" y="-5.75" font-family="Helvetica,sans-Serif" font-size="10.00">::SymbolRef</text>
</a>
</g>
</g>
<!-- Node1&#45;&gt;Node2 -->
<g id="edge1_Node000001_Node000002" class="edge">
<title>Node1&#45;&gt;Node2</title>
<g id="a_edge1_Node000001_Node000002"><a xlink:title=" ">
<path fill="none" stroke="#63b8ff" d="M101.01,-58.25C92.02,-49.57 81.17,-39.1 72.56,-30.78"/>
<polygon fill="#63b8ff" stroke="#63b8ff" points="98.52,-60.71 108.15,-65.13 103.38,-55.67 98.52,-60.71"/>
</a>
</g>
</g>
<!-- Node3 -->
<g id="Node000003" class="node">
<title>Node3</title>
<g id="a_Node000003"><a xlink:href="structllvm_1_1lto_1_1InputFile_1_1Symbol.html" target="_top" xlink:title="The purpose of this struct is to only expose the symbol information that an LTO client should need in...">
<polygon fill="white" stroke="#666666" points="227.5,-30.5 133.5,-30.5 133.5,0 227.5,0 227.5,-30.5"/>
<text xml:space="preserve" text-anchor="start" x="141.5" y="-17" font-family="Helvetica,sans-Serif" font-size="10.00">llvm::lto::InputFile</text>
<text xml:space="preserve" text-anchor="middle" x="180.5" y="-5.75" font-family="Helvetica,sans-Serif" font-size="10.00">::Symbol</text>
</a>
</g>
</g>
<!-- Node1&#45;&gt;Node3 -->
<g id="edge2_Node000001_Node000003" class="edge">
<title>Node1&#45;&gt;Node3</title>
<g id="a_edge2_Node000001_Node000003"><a xlink:title=" ">
<path fill="none" stroke="#63b8ff" d="M135.99,-58.52C145.18,-49.79 156.35,-39.18 165.2,-30.78"/>
<polygon fill="#63b8ff" stroke="#63b8ff" points="133.86,-55.72 129.01,-65.14 138.68,-60.79 133.86,-55.72"/>
</a>
</g>
</g>
</g>
</svg>
