<?xml version="1.0" encoding="UTF-8" standalone="no"?>
<!DOCTYPE svg PUBLIC "-//W3C//DTD SVG 1.1//EN"
 "http://www.w3.org/Graphics/SVG/1.1/DTD/svg11.dtd">
<!-- Generated by graphviz version 13.1.2 (20250808.2320)
 -->
<!-- Title: llvm::GraphTraits&lt; DataDependenceGraph * &gt; Pages: 1 -->
<svg width="288pt" height="190pt"
 viewBox="0.00 0.00 288.00 190.00" xmlns="http://www.w3.org/2000/svg" xmlns:xlink="http://www.w3.org/1999/xlink">
<g id="graph0" class="graph" transform="scale(1 1) rotate(0) translate(4 185.75)">
<title>llvm::GraphTraits&lt; DataDependenceGraph * &gt;</title>
<!-- Node1 -->
<g id="Node000001" class="node">
<title>Node1</title>
<g id="a_Node000001"><a xlink:title=" ">
<polygon fill="#999999" stroke="#666666" points="156.88,-30.5 20.12,-30.5 20.12,0 156.88,0 156.88,-30.5"/>
<text xml:space="preserve" text-anchor="start" x="28.12" y="-17" font-family="Helvetica,sans-Serif" font-size="10.00">llvm::GraphTraits&lt;</text>
<text xml:space="preserve" text-anchor="middle" x="88.5" y="-5.75" font-family="Helvetica,sans-Serif" font-size="10.00"> DataDependenceGraph * &gt;</text>
</a>
</g>
</g>
<!-- Node2 -->
<g id="Node000002" class="node">
<title>Node2</title>
<g id="a_Node000002"><a xlink:href="structllvm_1_1GraphTraits_3_01DDGNode_01_5_01_4.html" target="_top" xlink:title="non&#45;const versions of the grapth trait specializations for DDG">
<polygon fill="white" stroke="#666666" points="280,-98 183,-98 183,-67.5 280,-67.5 280,-98"/>
<text xml:space="preserve" text-anchor="start" x="191" y="-84.5" font-family="Helvetica,sans-Serif" font-size="10.00">llvm::GraphTraits&lt;</text>
<text xml:space="preserve" text-anchor="middle" x="231.5" y="-73.25" font-family="Helvetica,sans-Serif" font-size="10.00"> DDGNode * &gt;</text>
</a>
</g>
</g>
<!-- Node2&#45;&gt;Node1 -->
<g id="edge1_Node000001_Node000002" class="edge">
<title>Node2&#45;&gt;Node1</title>
<g id="a_edge1_Node000001_Node000002"><a xlink:title=" ">
<path fill="none" stroke="#63b8ff" d="M189.03,-62.3C167.06,-52.24 140.7,-40.16 120.48,-30.9"/>
<polygon fill="#63b8ff" stroke="#63b8ff" points="187.48,-65.44 198.03,-66.42 190.4,-59.07 187.48,-65.44"/>
</a>
</g>
</g>
<!-- Node3 -->
<g id="Node000003" class="node">
<title>Node3</title>
<g id="a_Node000003"><a xlink:href="structllvm_1_1GraphTraits.html" target="_top" xlink:title=" ">
<polygon fill="white" stroke="#666666" points="97,-181.75 0,-181.75 0,-151.25 97,-151.25 97,-181.75"/>
<text xml:space="preserve" text-anchor="start" x="8" y="-168.25" font-family="Helvetica,sans-Serif" font-size="10.00">llvm::GraphTraits&lt;</text>
<text xml:space="preserve" text-anchor="middle" x="48.5" y="-157" font-family="Helvetica,sans-Serif" font-size="10.00"> GraphType &gt;</text>
</a>
</g>
</g>
<!-- Node3&#45;&gt;Node1 -->
<g id="edge3_Node000001_Node000003" class="edge">
<title>Node3&#45;&gt;Node1</title>
<g id="a_edge3_Node000001_Node000003"><a xlink:title=" ">
<path fill="none" stroke="orange" stroke-dasharray="5,2" d="M40.96,-140.09C36.27,-119.77 32.68,-90.9 41.75,-67.5 47.41,-52.9 59.38,-39.91 69.78,-30.67"/>
<polygon fill="orange" stroke="orange" points="37.5,-140.69 43.38,-149.5 44.27,-138.95 37.5,-140.69"/>
</a>
</g>
<text xml:space="preserve" text-anchor="start" x="44.75" y="-78.88" font-family="Helvetica,sans-Serif" font-size="10.00" fill="grey">&lt; DataDependenceGraph * &gt;</text>
</g>
<!-- Node3&#45;&gt;Node2 -->
<g id="edge2_Node000002_Node000003" class="edge">
<title>Node3&#45;&gt;Node2</title>
<g id="a_edge2_Node000002_Node000003"><a xlink:title=" ">
<path fill="none" stroke="orange" stroke-dasharray="5,2" d="M91.42,-146.32C124.24,-131.67 168.79,-111.77 198.76,-98.38"/>
<polygon fill="orange" stroke="orange" points="90.3,-142.99 82.6,-150.27 93.16,-149.38 90.3,-142.99"/>
</a>
</g>
<text xml:space="preserve" text-anchor="start" x="159.39" y="-120.75" font-family="Helvetica,sans-Serif" font-size="10.00" fill="grey">&lt; DDGNode * &gt;</text>
</g>
</g>
</svg>
