<?xml version="1.0" encoding="UTF-8" standalone="no"?>
<!DOCTYPE svg PUBLIC "-//W3C//DTD SVG 1.1//EN"
 "http://www.w3.org/Graphics/SVG/1.1/DTD/svg11.dtd">
<!-- Generated by graphviz version 13.1.2 (20250808.2320)
 -->
<!-- Title: llvm::object::ViewArray&lt; T &gt; Pages: 1 -->
<svg width="522pt" height="464pt"
 viewBox="0.00 0.00 522.00 464.00" xmlns="http://www.w3.org/2000/svg" xmlns:xlink="http://www.w3.org/1999/xlink">
<g id="graph0" class="graph" transform="scale(1 1) rotate(0) translate(4 460.05)">
<title>llvm::object::ViewArray&lt; T &gt;</title>
<!-- Node1 -->
<g id="Node000001" class="node">
<title>Node1</title>
<g id="a_Node000001"><a xlink:title=" ">
<polygon fill="#999999" stroke="#666666" points="141.25,-228.2 0,-228.2 0,-208.95 141.25,-208.95 141.25,-228.2"/>
<text xml:space="preserve" text-anchor="middle" x="70.62" y="-214.7" font-family="Helvetica,sans-Serif" font-size="10.00">llvm::object::ViewArray&lt; T &gt;</text>
</a>
</g>
</g>
<!-- Node2 -->
<g id="Node000002" class="node">
<title>Node2</title>
<g id="a_Node000002"><a xlink:href="structllvm_1_1object_1_1ViewArray.html" target="_top" xlink:title=" ">
<polygon fill="white" stroke="#666666" points="489.12,-424.82 357.62,-424.82 357.62,-394.32 489.12,-394.32 489.12,-424.82"/>
<text xml:space="preserve" text-anchor="start" x="365.62" y="-411.32" font-family="Helvetica,sans-Serif" font-size="10.00">llvm::object::iterator</text>
<text xml:space="preserve" text-anchor="middle" x="423.38" y="-400.07" font-family="Helvetica,sans-Serif" font-size="10.00">&lt; RootParameterHeader &gt;</text>
</a>
</g>
</g>
<!-- Node1&#45;&gt;Node2 -->
<g id="edge1_Node000001_Node000002" class="edge">
<title>Node1&#45;&gt;Node2</title>
<g id="a_edge1_Node000001_Node000002"><a xlink:title=" ">
<path fill="none" stroke="orange" stroke-dasharray="5,2" d="M75.61,-239.26C83.93,-276.15 106.87,-352.66 159.25,-387.57 217.61,-426.47 300.2,-426.74 357.21,-420.65"/>
<polygon fill="orange" stroke="orange" points="79.12,-238.94 73.64,-229.87 72.27,-240.38 79.12,-238.94"/>
</a>
</g>
<text xml:space="preserve" text-anchor="start" x="162.25" y="-443.55" font-family="Helvetica,sans-Serif" font-size="10.00" fill="grey">&lt; dxbc::RTS0::v1::RootParameter</text>
<text xml:space="preserve" text-anchor="start" x="162.25" y="-428.3" font-family="Helvetica,sans-Serif" font-size="10.00" fill="grey">  Header &gt;::iterator</text>
</g>
<!-- Node3 -->
<g id="Node000003" class="node">
<title>Node3</title>
<g id="a_Node000003"><a xlink:href="structllvm_1_1object_1_1ViewArray.html" target="_top" xlink:title=" ">
<polygon fill="white" stroke="#666666" points="474.5,-368.82 372.25,-368.82 372.25,-338.32 474.5,-338.32 474.5,-368.82"/>
<text xml:space="preserve" text-anchor="start" x="380.25" y="-355.32" font-family="Helvetica,sans-Serif" font-size="10.00">llvm::object::iterator</text>
<text xml:space="preserve" text-anchor="middle" x="423.38" y="-344.07" font-family="Helvetica,sans-Serif" font-size="10.00">&lt; StaticSampler &gt;</text>
</a>
</g>
</g>
<!-- Node1&#45;&gt;Node3 -->
<g id="edge2_Node000001_Node000003" class="edge">
<title>Node1&#45;&gt;Node3</title>
<g id="a_edge2_Node000001_Node000003"><a xlink:title=" ">
<path fill="none" stroke="orange" stroke-dasharray="5,2" d="M80.73,-238.73C93.87,-265.2 120.88,-310.74 159.25,-331.57 194.75,-350.85 306.09,-354.01 372.02,-354.11"/>
<polygon fill="orange" stroke="orange" points="84.05,-237.58 76.6,-230.05 77.73,-240.58 84.05,-237.58"/>
</a>
</g>
<text xml:space="preserve" text-anchor="start" x="182.5" y="-373.07" font-family="Helvetica,sans-Serif" font-size="10.00" fill="grey">&lt; dxbc::RTS0::v1::Static</text>
<text xml:space="preserve" text-anchor="start" x="182.5" y="-357.82" font-family="Helvetica,sans-Serif" font-size="10.00" fill="grey">  Sampler &gt;::iterator</text>
</g>
<!-- Node4 -->
<g id="Node000004" class="node">
<title>Node4</title>
<g id="a_Node000004"><a xlink:href="structllvm_1_1object_1_1ViewArray.html" target="_top" xlink:title=" ">
<polygon fill="white" stroke="#666666" points="501.12,-319.45 345.62,-319.45 345.62,-277.7 501.12,-277.7 501.12,-319.45"/>
<text xml:space="preserve" text-anchor="start" x="353.62" y="-305.95" font-family="Helvetica,sans-Serif" font-size="10.00">llvm::object::ViewArray</text>
<text xml:space="preserve" text-anchor="start" x="353.62" y="-294.7" font-family="Helvetica,sans-Serif" font-size="10.00">&lt; dxbc::PSV::v2::ResourceBind</text>
<text xml:space="preserve" text-anchor="middle" x="423.38" y="-283.45" font-family="Helvetica,sans-Serif" font-size="10.00">Info &gt;</text>
</a>
</g>
</g>
<!-- Node1&#45;&gt;Node4 -->
<g id="edge3_Node000001_Node000004" class="edge">
<title>Node1&#45;&gt;Node4</title>
<g id="a_edge3_Node000001_Node000004"><a xlink:title=" ">
<path fill="none" stroke="orange" stroke-dasharray="5,2" d="M92.75,-235.44C109.69,-247.97 134.62,-264.26 159.25,-272.57 219.6,-292.93 291.83,-298.86 345.33,-300.02"/>
<polygon fill="orange" stroke="orange" points="95.05,-232.78 84.97,-229.5 90.8,-238.35 95.05,-232.78"/>
</a>
</g>
<text xml:space="preserve" text-anchor="start" x="177.25" y="-318.8" font-family="Helvetica,sans-Serif" font-size="10.00" fill="grey">&lt; dxbc::PSV::v2::Resource</text>
<text xml:space="preserve" text-anchor="start" x="177.25" y="-303.55" font-family="Helvetica,sans-Serif" font-size="10.00" fill="grey">  BindInfo &gt;</text>
</g>
<!-- Node5 -->
<g id="Node000005" class="node">
<title>Node5</title>
<g id="a_Node000005"><a xlink:href="structllvm_1_1object_1_1ViewArray.html" target="_top" xlink:title=" ">
<polygon fill="white" stroke="#666666" points="513.5,-259.82 333.25,-259.82 333.25,-229.32 513.5,-229.32 513.5,-259.82"/>
<text xml:space="preserve" text-anchor="start" x="341.25" y="-246.32" font-family="Helvetica,sans-Serif" font-size="10.00">llvm::object::ViewArray</text>
<text xml:space="preserve" text-anchor="middle" x="423.38" y="-235.07" font-family="Helvetica,sans-Serif" font-size="10.00">&lt; dxbc::PSV::v0::SignatureElement &gt;</text>
</a>
</g>
</g>
<!-- Node1&#45;&gt;Node5 -->
<g id="edge4_Node000001_Node000005" class="edge">
<title>Node1&#45;&gt;Node5</title>
<g id="a_edge4_Node000001_Node000005"><a xlink:title=" ">
<path fill="none" stroke="orange" stroke-dasharray="5,2" d="M152.57,-224.57C206.43,-228.57 277.23,-233.81 332.79,-237.93"/>
<polygon fill="orange" stroke="orange" points="153.08,-221.1 142.85,-223.85 152.56,-228.08 153.08,-221.1"/>
</a>
</g>
<text xml:space="preserve" text-anchor="start" x="177.62" y="-256.16" font-family="Helvetica,sans-Serif" font-size="10.00" fill="grey">&lt; dxbc::PSV::v0::Signature</text>
<text xml:space="preserve" text-anchor="start" x="177.62" y="-240.91" font-family="Helvetica,sans-Serif" font-size="10.00" fill="grey">  Element &gt;</text>
</g>
<!-- Node6 -->
<g id="Node000006" class="node">
<title>Node6</title>
<g id="a_Node000006"><a xlink:href="structllvm_1_1object_1_1ViewArray.html" target="_top" xlink:title=" ">
<polygon fill="white" stroke="#666666" points="482,-210.82 364.75,-210.82 364.75,-180.32 482,-180.32 482,-210.82"/>
<text xml:space="preserve" text-anchor="start" x="372.75" y="-197.32" font-family="Helvetica,sans-Serif" font-size="10.00">llvm::object::ViewArray</text>
<text xml:space="preserve" text-anchor="middle" x="423.38" y="-186.07" font-family="Helvetica,sans-Serif" font-size="10.00">&lt; uint32_t &gt;</text>
</a>
</g>
</g>
<!-- Node1&#45;&gt;Node6 -->
<g id="edge5_Node000001_Node000006" class="edge">
<title>Node1&#45;&gt;Node6</title>
<g id="a_edge5_Node000001_Node000006"><a xlink:title=" ">
<path fill="none" stroke="orange" stroke-dasharray="5,2" d="M129.31,-206.54C139.26,-204.85 149.52,-203.34 159.25,-202.32 229.58,-194.95 311.03,-194.02 364.46,-194.44"/>
<polygon fill="orange" stroke="orange" points="128.98,-203.05 119.76,-208.25 130.21,-209.94 128.98,-203.05"/>
</a>
</g>
<text xml:space="preserve" text-anchor="start" x="211" y="-207.07" font-family="Helvetica,sans-Serif" font-size="10.00" fill="grey">&lt; uint32_t &gt;</text>
</g>
<!-- Node7 -->
<g id="Node000007" class="node">
<title>Node7</title>
<g id="a_Node000007"><a xlink:href="structllvm_1_1object_1_1ViewArray.html" target="_top" xlink:title=" ">
<polygon fill="white" stroke="#666666" points="487.62,-162.45 359.12,-162.45 359.12,-120.7 487.62,-120.7 487.62,-162.45"/>
<text xml:space="preserve" text-anchor="start" x="367.12" y="-148.95" font-family="Helvetica,sans-Serif" font-size="10.00">llvm::object::ViewArray</text>
<text xml:space="preserve" text-anchor="start" x="367.12" y="-137.7" font-family="Helvetica,sans-Serif" font-size="10.00">&lt; llvm::dxbc::RTS0::v1</text>
<text xml:space="preserve" text-anchor="middle" x="423.38" y="-126.45" font-family="Helvetica,sans-Serif" font-size="10.00">::RootParameterHeader &gt;</text>
</a>
</g>
</g>
<!-- Node1&#45;&gt;Node7 -->
<g id="edge6_Node000001_Node000007" class="edge">
<title>Node1&#45;&gt;Node7</title>
<g id="a_edge6_Node000001_Node000007"><a xlink:title=" ">
<path fill="none" stroke="orange" stroke-dasharray="5,2" d="M90.15,-201.25C106.83,-186.84 132.72,-167.26 159.25,-158.07 224.56,-135.45 304.37,-133.78 358.85,-136.21"/>
<polygon fill="orange" stroke="orange" points="88.15,-198.34 83.02,-207.62 92.81,-203.57 88.15,-198.34"/>
</a>
</g>
<text xml:space="preserve" text-anchor="start" x="169.75" y="-178.07" font-family="Helvetica,sans-Serif" font-size="10.00" fill="grey">&lt; llvm::dxbc::RTS0</text>
<text xml:space="preserve" text-anchor="start" x="169.75" y="-162.82" font-family="Helvetica,sans-Serif" font-size="10.00" fill="grey">  ::v1::RootParameterHeader &gt;</text>
</g>
<!-- Node8 -->
<g id="Node000008" class="node">
<title>Node8</title>
<g id="a_Node000008"><a xlink:href="structllvm_1_1object_1_1ViewArray.html" target="_top" xlink:title=" ">
<polygon fill="white" stroke="#666666" points="482.38,-102.45 364.38,-102.45 364.38,-60.7 482.38,-60.7 482.38,-102.45"/>
<text xml:space="preserve" text-anchor="start" x="372.38" y="-88.95" font-family="Helvetica,sans-Serif" font-size="10.00">llvm::object::ViewArray</text>
<text xml:space="preserve" text-anchor="start" x="372.38" y="-77.7" font-family="Helvetica,sans-Serif" font-size="10.00">&lt; llvm::dxbc::RTS0::v1</text>
<text xml:space="preserve" text-anchor="middle" x="423.38" y="-66.45" font-family="Helvetica,sans-Serif" font-size="10.00">::StaticSampler &gt;</text>
</a>
</g>
</g>
<!-- Node1&#45;&gt;Node8 -->
<g id="edge7_Node000001_Node000008" class="edge">
<title>Node1&#45;&gt;Node8</title>
<g id="a_edge7_Node000001_Node000008"><a xlink:title=" ">
<path fill="none" stroke="orange" stroke-dasharray="5,2" d="M79.97,-198.02C92.54,-170.07 119.2,-121.07 159.25,-99.07 222.65,-64.25 308.02,-65.75 364.09,-71.99"/>
<polygon fill="orange" stroke="orange" points="76.77,-196.6 76.05,-207.17 83.21,-199.36 76.77,-196.6"/>
</a>
</g>
<text xml:space="preserve" text-anchor="start" x="187.75" y="-119.07" font-family="Helvetica,sans-Serif" font-size="10.00" fill="grey">&lt; llvm::dxbc::RTS0</text>
<text xml:space="preserve" text-anchor="start" x="187.75" y="-103.82" font-family="Helvetica,sans-Serif" font-size="10.00" fill="grey">  ::v1::StaticSampler &gt;</text>
</g>
<!-- Node9 -->
<g id="Node000009" class="node">
<title>Node9</title>
<g id="a_Node000009"><a xlink:href="structllvm_1_1object_1_1ViewArray.html" target="_top" xlink:title=" ">
<polygon fill="white" stroke="#666666" points="500.38,-42.45 346.38,-42.45 346.38,-0.7 500.38,-0.7 500.38,-42.45"/>
<text xml:space="preserve" text-anchor="start" x="354.38" y="-28.95" font-family="Helvetica,sans-Serif" font-size="10.00">llvm::object::ViewArray</text>
<text xml:space="preserve" text-anchor="start" x="354.38" y="-17.7" font-family="Helvetica,sans-Serif" font-size="10.00">&lt; llvm::dxbc::ProgramSignature</text>
<text xml:space="preserve" text-anchor="middle" x="423.38" y="-6.45" font-family="Helvetica,sans-Serif" font-size="10.00">Element &gt;</text>
</a>
</g>
</g>
<!-- Node1&#45;&gt;Node9 -->
<g id="edge8_Node000001_Node000009" class="edge">
<title>Node1&#45;&gt;Node9</title>
<g id="a_edge8_Node000001_Node000009"><a xlink:title=" ">
<path fill="none" stroke="orange" stroke-dasharray="5,2" d="M74.47,-197.25C81.11,-156.95 101.68,-70.26 159.25,-32.07 213.82,4.13 289.71,3.1 345.97,-4.82"/>
<polygon fill="orange" stroke="orange" points="71.02,-196.67 73,-207.08 77.94,-197.71 71.02,-196.67"/>
</a>
</g>
<text xml:space="preserve" text-anchor="start" x="168.25" y="-52.07" font-family="Helvetica,sans-Serif" font-size="10.00" fill="grey">&lt; llvm::dxbc::ProgramSignature</text>
<text xml:space="preserve" text-anchor="start" x="168.25" y="-36.82" font-family="Helvetica,sans-Serif" font-size="10.00" fill="grey">  Element &gt;</text>
</g>
</g>
</svg>
