<?xml version="1.0" encoding="UTF-8" standalone="no"?>
<!DOCTYPE svg PUBLIC "-//W3C//DTD SVG 1.1//EN"
 "http://www.w3.org/Graphics/SVG/1.1/DTD/svg11.dtd">
<!-- Generated by graphviz version 13.1.2 (20250808.2320)
 -->
<!-- Title: llvm::yaml::CustomMappingTraits&lt; T &gt; Pages: 1 -->
<svg width="549pt" height="451pt"
 viewBox="0.00 0.00 549.00 451.00" xmlns="http://www.w3.org/2000/svg" xmlns:xlink="http://www.w3.org/1999/xlink">
<g id="graph0" class="graph" transform="scale(1 1) rotate(0) translate(4 447.41)">
<title>llvm::yaml::CustomMappingTraits&lt; T &gt;</title>
<!-- Node1 -->
<g id="Node000001" class="node">
<title>Node1</title>
<g id="a_Node000001"><a xlink:title="This class should be specialized by any type that needs to be converted to/from a YAML mapping in the...">
<polygon fill="#999999" stroke="#666666" points="138.25,-259.13 0,-259.13 0,-228.63 138.25,-228.63 138.25,-259.13"/>
<text xml:space="preserve" text-anchor="start" x="8" y="-245.63" font-family="Helvetica,sans-Serif" font-size="10.00">llvm::yaml::CustomMapping</text>
<text xml:space="preserve" text-anchor="middle" x="69.12" y="-234.38" font-family="Helvetica,sans-Serif" font-size="10.00">Traits&lt; T &gt;</text>
</a>
</g>
</g>
<!-- Node2 -->
<g id="Node000002" class="node">
<title>Node2</title>
<g id="a_Node000002"><a xlink:href="structllvm_1_1yaml_1_1CustomMappingTraits_3_01BBNumberMap_01_4.html" target="_top" xlink:title=" ">
<polygon fill="white" stroke="#666666" points="517.62,-427.13 379.38,-427.13 379.38,-396.63 517.62,-396.63 517.62,-427.13"/>
<text xml:space="preserve" text-anchor="start" x="387.38" y="-413.63" font-family="Helvetica,sans-Serif" font-size="10.00">llvm::yaml::CustomMapping</text>
<text xml:space="preserve" text-anchor="middle" x="448.5" y="-402.38" font-family="Helvetica,sans-Serif" font-size="10.00">Traits&lt; BBNumberMap &gt;</text>
</a>
</g>
</g>
<!-- Node1&#45;&gt;Node2 -->
<g id="edge1_Node000001_Node000002" class="edge">
<title>Node1&#45;&gt;Node2</title>
<g id="a_edge1_Node000001_Node000002"><a xlink:title=" ">
<path fill="none" stroke="orange" stroke-dasharray="5,2" d="M77.65,-270.24C88.78,-303.91 113.12,-361.02 156.25,-387.88 223.22,-429.59 316.29,-429.48 379.05,-422.97"/>
<polygon fill="orange" stroke="orange" points="81.03,-269.34 74.7,-260.84 74.35,-271.43 81.03,-269.34"/>
</a>
</g>
<text xml:space="preserve" text-anchor="start" x="204.62" y="-430.91" font-family="Helvetica,sans-Serif" font-size="10.00" fill="grey">&lt; BBNumberMap &gt;</text>
</g>
<!-- Node3 -->
<g id="Node000003" class="node">
<title>Node3</title>
<g id="a_Node000003"><a xlink:href="structllvm_1_1yaml_1_1CustomMappingTraits_3_01GlobalValueSummaryMapTy_01_4.html" target="_top" xlink:title=" ">
<polygon fill="white" stroke="#666666" points="539.38,-378.13 357.62,-378.13 357.62,-347.63 539.38,-347.63 539.38,-378.13"/>
<text xml:space="preserve" text-anchor="start" x="365.62" y="-364.63" font-family="Helvetica,sans-Serif" font-size="10.00">llvm::yaml::CustomMapping</text>
<text xml:space="preserve" text-anchor="middle" x="448.5" y="-353.38" font-family="Helvetica,sans-Serif" font-size="10.00">Traits&lt; GlobalValueSummaryMapTy &gt;</text>
</a>
</g>
</g>
<!-- Node1&#45;&gt;Node3 -->
<g id="edge2_Node000001_Node000003" class="edge">
<title>Node1&#45;&gt;Node3</title>
<g id="a_edge2_Node000001_Node000003"><a xlink:title=" ">
<path fill="none" stroke="orange" stroke-dasharray="5,2" d="M87.73,-268.71C103.31,-288.58 127.93,-315.29 156.25,-328.88 218.9,-358.95 297.54,-366.62 357.31,-367.23"/>
<polygon fill="orange" stroke="orange" points="90.57,-266.66 81.74,-260.8 84.99,-270.88 90.57,-266.66"/>
</a>
</g>
<text xml:space="preserve" text-anchor="start" x="176.5" y="-371.29" font-family="Helvetica,sans-Serif" font-size="10.00" fill="grey">&lt; GlobalValueSummaryMapTy &gt;</text>
</g>
<!-- Node4 -->
<g id="Node000004" class="node">
<title>Node4</title>
<g id="a_Node000004"><a xlink:href="structllvm_1_1yaml_1_1CustomMappingTraits_3_01IdHashNodeStableMapTy_01_4.html" target="_top" xlink:title=" ">
<polygon fill="white" stroke="#666666" points="533.75,-329.13 363.25,-329.13 363.25,-298.63 533.75,-298.63 533.75,-329.13"/>
<text xml:space="preserve" text-anchor="start" x="371.25" y="-315.63" font-family="Helvetica,sans-Serif" font-size="10.00">llvm::yaml::CustomMapping</text>
<text xml:space="preserve" text-anchor="middle" x="448.5" y="-304.38" font-family="Helvetica,sans-Serif" font-size="10.00">Traits&lt; IdHashNodeStableMapTy &gt;</text>
</a>
</g>
</g>
<!-- Node1&#45;&gt;Node4 -->
<g id="edge3_Node000001_Node000004" class="edge">
<title>Node1&#45;&gt;Node4</title>
<g id="a_edge3_Node000001_Node000004"><a xlink:title=" ">
<path fill="none" stroke="orange" stroke-dasharray="5,2" d="M111.87,-264.1C125.71,-270.04 141.38,-275.99 156.25,-279.88 224.46,-297.74 304.11,-306.23 362.86,-310.26"/>
<polygon fill="orange" stroke="orange" points="113.64,-261.05 103.08,-260.2 110.8,-267.45 113.64,-261.05"/>
</a>
</g>
<text xml:space="preserve" text-anchor="start" x="182.12" y="-312.88" font-family="Helvetica,sans-Serif" font-size="10.00" fill="grey">&lt; IdHashNodeStableMapTy &gt;</text>
</g>
<!-- Node5 -->
<g id="Node000005" class="node">
<title>Node5</title>
<g id="a_Node000005"><a xlink:href="structllvm_1_1yaml_1_1CustomMappingTraits_3_01MapDocNode_01_4.html" target="_top" xlink:title="YAMLIO for MapDocNode.">
<polygon fill="white" stroke="#666666" points="517.62,-280.13 379.38,-280.13 379.38,-249.63 517.62,-249.63 517.62,-280.13"/>
<text xml:space="preserve" text-anchor="start" x="387.38" y="-266.63" font-family="Helvetica,sans-Serif" font-size="10.00">llvm::yaml::CustomMapping</text>
<text xml:space="preserve" text-anchor="middle" x="448.5" y="-255.38" font-family="Helvetica,sans-Serif" font-size="10.00">Traits&lt; MapDocNode &gt;</text>
</a>
</g>
</g>
<!-- Node1&#45;&gt;Node5 -->
<g id="edge4_Node000001_Node000005" class="edge">
<title>Node1&#45;&gt;Node5</title>
<g id="a_edge4_Node000001_Node000005"><a xlink:title=" ">
<path fill="none" stroke="orange" stroke-dasharray="5,2" d="M149.54,-248.3C217.53,-252.09 314.4,-257.48 379.03,-261.07"/>
<polygon fill="orange" stroke="orange" points="150.16,-244.83 139.98,-247.77 149.77,-251.82 150.16,-244.83"/>
</a>
</g>
<text xml:space="preserve" text-anchor="start" x="208" y="-263.43" font-family="Helvetica,sans-Serif" font-size="10.00" fill="grey">&lt; MapDocNode &gt;</text>
</g>
<!-- Node6 -->
<g id="Node000006" class="node">
<title>Node6</title>
<g id="a_Node000006"><a xlink:href="structllvm_1_1yaml_1_1CustomMappingTraits_3_01TypeIdSummaryMapTy_01_4.html" target="_top" xlink:title=" ">
<polygon fill="white" stroke="#666666" points="528.12,-231.13 368.88,-231.13 368.88,-200.63 528.12,-200.63 528.12,-231.13"/>
<text xml:space="preserve" text-anchor="start" x="376.88" y="-217.63" font-family="Helvetica,sans-Serif" font-size="10.00">llvm::yaml::CustomMapping</text>
<text xml:space="preserve" text-anchor="middle" x="448.5" y="-206.38" font-family="Helvetica,sans-Serif" font-size="10.00">Traits&lt; TypeIdSummaryMapTy &gt;</text>
</a>
</g>
</g>
<!-- Node1&#45;&gt;Node6 -->
<g id="edge5_Node000001_Node000006" class="edge">
<title>Node1&#45;&gt;Node6</title>
<g id="a_edge5_Node000001_Node000006"><a xlink:title=" ">
<path fill="none" stroke="orange" stroke-dasharray="5,2" d="M149.99,-228.4C152.1,-228.12 154.19,-227.87 156.25,-227.63 227.77,-219.49 309.74,-216.77 368.46,-215.96"/>
<polygon fill="orange" stroke="orange" points="149.52,-224.93 140.12,-229.81 150.52,-231.86 149.52,-224.93"/>
</a>
</g>
<text xml:space="preserve" text-anchor="start" x="187.75" y="-232.38" font-family="Helvetica,sans-Serif" font-size="10.00" fill="grey">&lt; TypeIdSummaryMapTy &gt;</text>
</g>
<!-- Node7 -->
<g id="Node000007" class="node">
<title>Node7</title>
<g id="a_Node000007"><a xlink:href="structllvm_1_1yaml_1_1CustomMappingTraits_3_01memprof_1_1PortableMemInfoBlock_01_4.html" target="_top" xlink:title=" ">
<polygon fill="white" stroke="#666666" points="532.62,-182.76 364.38,-182.76 364.38,-141.01 532.62,-141.01 532.62,-182.76"/>
<text xml:space="preserve" text-anchor="start" x="372.38" y="-169.26" font-family="Helvetica,sans-Serif" font-size="10.00">llvm::yaml::CustomMapping</text>
<text xml:space="preserve" text-anchor="start" x="372.38" y="-158.01" font-family="Helvetica,sans-Serif" font-size="10.00">Traits&lt; memprof::PortableMemInfo</text>
<text xml:space="preserve" text-anchor="middle" x="448.5" y="-146.76" font-family="Helvetica,sans-Serif" font-size="10.00">Block &gt;</text>
</a>
</g>
</g>
<!-- Node1&#45;&gt;Node7 -->
<g id="edge6_Node000001_Node000007" class="edge">
<title>Node1&#45;&gt;Node7</title>
<g id="a_edge6_Node000001_Node000007"><a xlink:title=" ">
<path fill="none" stroke="orange" stroke-dasharray="5,2" d="M93.56,-220.76C109.74,-206.37 132.54,-189.02 156.25,-180.38 223.14,-156.02 304.33,-152.82 363.98,-154.9"/>
<polygon fill="orange" stroke="orange" points="91.39,-218 86.41,-227.34 96.14,-223.15 91.39,-218"/>
</a>
</g>
<text xml:space="preserve" text-anchor="start" x="183.25" y="-200.38" font-family="Helvetica,sans-Serif" font-size="10.00" fill="grey">&lt; memprof::PortableMemInfo</text>
<text xml:space="preserve" text-anchor="start" x="183.25" y="-185.13" font-family="Helvetica,sans-Serif" font-size="10.00" fill="grey">  Block &gt;</text>
</g>
<!-- Node8 -->
<g id="Node000008" class="node">
<title>Node8</title>
<g id="a_Node000008"><a xlink:href="structllvm_1_1yaml_1_1CustomMappingTraits_3_01std_1_1map_3_01std_1_1vector_3_01uint64__t_01_4_00fcc0a2f9789ca5b5afc34e1c0d191005.html" target="_top" xlink:title=" ">
<polygon fill="white" stroke="#666666" points="531.5,-120.38 365.5,-120.38 365.5,-67.38 531.5,-67.38 531.5,-120.38"/>
<text xml:space="preserve" text-anchor="start" x="373.5" y="-106.88" font-family="Helvetica,sans-Serif" font-size="10.00">llvm::yaml::CustomMapping</text>
<text xml:space="preserve" text-anchor="start" x="373.5" y="-95.63" font-family="Helvetica,sans-Serif" font-size="10.00">Traits&lt; std::map&lt; std::</text>
<text xml:space="preserve" text-anchor="start" x="373.5" y="-84.38" font-family="Helvetica,sans-Serif" font-size="10.00">vector&lt; uint64_t &gt;, WholeProgram</text>
<text xml:space="preserve" text-anchor="middle" x="448.5" y="-73.13" font-family="Helvetica,sans-Serif" font-size="10.00">DevirtResolution::ByArg &gt; &gt;</text>
</a>
</g>
</g>
<!-- Node1&#45;&gt;Node8 -->
<g id="edge7_Node000001_Node000008" class="edge">
<title>Node1&#45;&gt;Node8</title>
<g id="a_edge7_Node000001_Node000008"><a xlink:title=" ">
<path fill="none" stroke="orange" stroke-dasharray="5,2" d="M77.56,-217.57C88.59,-184.03 112.82,-127.38 156.25,-102.13 219.22,-65.53 303.51,-67.49 365.2,-76.22"/>
<polygon fill="orange" stroke="orange" points="74.27,-216.35 74.65,-226.94 80.96,-218.43 74.27,-216.35"/>
</a>
</g>
<text xml:space="preserve" text-anchor="start" x="169.38" y="-137.38" font-family="Helvetica,sans-Serif" font-size="10.00" fill="grey">&lt; std::map&lt; std::vector</text>
<text xml:space="preserve" text-anchor="start" x="169.38" y="-122.13" font-family="Helvetica,sans-Serif" font-size="10.00" fill="grey">  &lt; uint64_t &gt;, WholeProgramDevirt</text>
<text xml:space="preserve" text-anchor="start" x="169.38" y="-106.88" font-family="Helvetica,sans-Serif" font-size="10.00" fill="grey">  Resolution::ByArg &gt; &gt;</text>
</g>
<!-- Node9 -->
<g id="Node000009" class="node">
<title>Node9</title>
<g id="a_Node000009"><a xlink:href="structllvm_1_1yaml_1_1CustomMappingTraits_3_01std_1_1map_3_01uint64__t_00_01WholeProgramDevirtResolution_01_4_01_4.html" target="_top" xlink:title=" ">
<polygon fill="white" stroke="#666666" points="541.25,-49.76 355.75,-49.76 355.75,-8.01 541.25,-8.01 541.25,-49.76"/>
<text xml:space="preserve" text-anchor="start" x="363.75" y="-36.26" font-family="Helvetica,sans-Serif" font-size="10.00">llvm::yaml::CustomMapping</text>
<text xml:space="preserve" text-anchor="start" x="363.75" y="-25.01" font-family="Helvetica,sans-Serif" font-size="10.00">Traits&lt; std::map&lt; uint64</text>
<text xml:space="preserve" text-anchor="middle" x="448.5" y="-13.76" font-family="Helvetica,sans-Serif" font-size="10.00">_t, WholeProgramDevirtResolution &gt; &gt;</text>
</a>
</g>
</g>
<!-- Node1&#45;&gt;Node9 -->
<g id="edge8_Node000001_Node000009" class="edge">
<title>Node1&#45;&gt;Node9</title>
<g id="a_edge8_Node000001_Node000009"><a xlink:title=" ">
<path fill="none" stroke="orange" stroke-dasharray="5,2" d="M72.12,-217.04C77.17,-170.64 94.87,-76.36 156.25,-34.38 216.36,6.73 301,3.33 363.56,-7.51"/>
<polygon fill="orange" stroke="orange" points="68.66,-216.47 71.19,-226.76 75.63,-217.14 68.66,-216.47"/>
</a>
</g>
<text xml:space="preserve" text-anchor="start" x="159.25" y="-54.38" font-family="Helvetica,sans-Serif" font-size="10.00" fill="grey">&lt; std::map&lt; uint64</text>
<text xml:space="preserve" text-anchor="start" x="159.25" y="-39.13" font-family="Helvetica,sans-Serif" font-size="10.00" fill="grey">  _t, WholeProgramDevirtResolution &gt; &gt;</text>
</g>
</g>
</svg>
