<?xml version="1.0" encoding="UTF-8" standalone="no"?>
<!DOCTYPE svg PUBLIC "-//W3C//DTD SVG 1.1//EN"
 "http://www.w3.org/Graphics/SVG/1.1/DTD/svg11.dtd">
<!-- Generated by graphviz version 13.1.2 (20250808.2320)
 -->
<!-- Title: llvm::ms_demangle::FunctionSignatureNode Pages: 1 -->
<svg width="138pt" height="227pt"
 viewBox="0.00 0.00 138.00 227.00" xmlns="http://www.w3.org/2000/svg" xmlns:xlink="http://www.w3.org/1999/xlink">
<g id="graph0" class="graph" transform="scale(1 1) rotate(0) translate(4 222.75)">
<title>llvm::ms_demangle::FunctionSignatureNode</title>
<!-- Node1 -->
<g id="Node000001" class="node">
<title>Node1</title>
<g id="a_Node000001"><a xlink:title=" ">
<polygon fill="#999999" stroke="#666666" points="124,-97 6,-97 6,-66.5 124,-66.5 124,-97"/>
<text xml:space="preserve" text-anchor="start" x="14" y="-83.5" font-family="Helvetica,sans-Serif" font-size="10.00">llvm::ms_demangle::</text>
<text xml:space="preserve" text-anchor="middle" x="65" y="-72.25" font-family="Helvetica,sans-Serif" font-size="10.00">FunctionSignatureNode</text>
</a>
</g>
</g>
<!-- Node4 -->
<g id="Node000004" class="node">
<title>Node4</title>
<g id="a_Node000004"><a xlink:href="structllvm_1_1ms__demangle_1_1ThunkSignatureNode.html" target="_top" xlink:title=" ">
<polygon fill="white" stroke="#666666" points="118.75,-30.5 11.25,-30.5 11.25,0 118.75,0 118.75,-30.5"/>
<text xml:space="preserve" text-anchor="start" x="19.25" y="-17" font-family="Helvetica,sans-Serif" font-size="10.00">llvm::ms_demangle::</text>
<text xml:space="preserve" text-anchor="middle" x="65" y="-5.75" font-family="Helvetica,sans-Serif" font-size="10.00">ThunkSignatureNode</text>
</a>
</g>
</g>
<!-- Node1&#45;&gt;Node4 -->
<g id="edge3_Node000001_Node000004" class="edge">
<title>Node1&#45;&gt;Node4</title>
<g id="a_edge3_Node000001_Node000004"><a xlink:title=" ">
<path fill="none" stroke="#63b8ff" d="M65,-54.81C65,-46.64 65,-37.91 65,-30.83"/>
<polygon fill="#63b8ff" stroke="#63b8ff" points="61.5,-54.6 65,-64.6 68.5,-54.6 61.5,-54.6"/>
</a>
</g>
</g>
<!-- Node2 -->
<g id="Node000002" class="node">
<title>Node2</title>
<g id="a_Node000002"><a xlink:href="structllvm_1_1ms__demangle_1_1TypeNode.html" target="_top" xlink:title=" ">
<polygon fill="white" stroke="#666666" points="118.38,-163.5 11.63,-163.5 11.63,-133 118.38,-133 118.38,-163.5"/>
<text xml:space="preserve" text-anchor="start" x="19.62" y="-150" font-family="Helvetica,sans-Serif" font-size="10.00">llvm::ms_demangle::</text>
<text xml:space="preserve" text-anchor="middle" x="65" y="-138.75" font-family="Helvetica,sans-Serif" font-size="10.00">TypeNode</text>
</a>
</g>
</g>
<!-- Node2&#45;&gt;Node1 -->
<g id="edge1_Node000001_Node000002" class="edge">
<title>Node2&#45;&gt;Node1</title>
<g id="a_edge1_Node000001_Node000002"><a xlink:title=" ">
<path fill="none" stroke="#63b8ff" d="M65,-121.31C65,-113.14 65,-104.41 65,-97.33"/>
<polygon fill="#63b8ff" stroke="#63b8ff" points="61.5,-121.1 65,-131.1 68.5,-121.1 61.5,-121.1"/>
</a>
</g>
</g>
<!-- Node3 -->
<g id="Node000003" class="node">
<title>Node3</title>
<g id="a_Node000003"><a xlink:href="structllvm_1_1ms__demangle_1_1Node.html" target="_top" xlink:title=" ">
<polygon fill="white" stroke="#666666" points="130,-218.75 0,-218.75 0,-199.5 130,-199.5 130,-218.75"/>
<text xml:space="preserve" text-anchor="middle" x="65" y="-205.25" font-family="Helvetica,sans-Serif" font-size="10.00">llvm::ms_demangle::Node</text>
</a>
</g>
</g>
<!-- Node3&#45;&gt;Node2 -->
<g id="edge2_Node000002_Node000003" class="edge">
<title>Node3&#45;&gt;Node2</title>
<g id="a_edge2_Node000002_Node000003"><a xlink:title=" ">
<path fill="none" stroke="#63b8ff" d="M65,-187.92C65,-179.99 65,-171.06 65,-163.78"/>
<polygon fill="#63b8ff" stroke="#63b8ff" points="61.5,-187.67 65,-197.67 68.5,-187.67 61.5,-187.67"/>
</a>
</g>
</g>
</g>
</svg>
