<?xml version="1.0" encoding="UTF-8" standalone="no"?>
<!DOCTYPE svg PUBLIC "-//W3C//DTD SVG 1.1//EN"
 "http://www.w3.org/Graphics/SVG/1.1/DTD/svg11.dtd">
<!-- Generated by graphviz version 13.1.2 (20250808.2320)
 -->
<!-- Title: llvm::ImutContainerInfo&lt; T * &gt; Pages: 1 -->
<svg width="541pt" height="101pt"
 viewBox="0.00 0.00 541.00 101.00" xmlns="http://www.w3.org/2000/svg" xmlns:xlink="http://www.w3.org/1999/xlink">
<g id="graph0" class="graph" transform="scale(1 1) rotate(0) translate(4 96.88)">
<title>llvm::ImutContainerInfo&lt; T * &gt;</title>
<!-- Node1 -->
<g id="Node000001" class="node">
<title>Node1</title>
<g id="a_Node000001"><a xlink:title="ImutContainerInfo &#45; Specialization for pointer values to treat pointers as references to unique objec...">
<polygon fill="#999999" stroke="#666666" points="533.25,-73.5 415.25,-73.5 415.25,-43 533.25,-43 533.25,-73.5"/>
<text xml:space="preserve" text-anchor="start" x="423.25" y="-60" font-family="Helvetica,sans-Serif" font-size="10.00">llvm::ImutContainerInfo</text>
<text xml:space="preserve" text-anchor="middle" x="474.25" y="-48.75" font-family="Helvetica,sans-Serif" font-size="10.00">&lt; T * &gt;</text>
</a>
</g>
</g>
<!-- Node2 -->
<g id="Node000002" class="node">
<title>Node2</title>
<g id="a_Node000002"><a xlink:href="structllvm_1_1ImutProfileInfo.html" target="_top" xlink:title="Generic profile template.">
<polygon fill="white" stroke="#666666" points="127.75,-92.88 0,-92.88 0,-73.62 127.75,-73.62 127.75,-92.88"/>
<text xml:space="preserve" text-anchor="middle" x="63.88" y="-79.38" font-family="Helvetica,sans-Serif" font-size="10.00">llvm::ImutProfileInfo&lt; T &gt;</text>
</a>
</g>
</g>
<!-- Node2&#45;&gt;Node1 -->
<g id="edge1_Node000001_Node000002" class="edge">
<title>Node2&#45;&gt;Node1</title>
<g id="a_edge1_Node000001_Node000002"><a xlink:title=" ">
<path fill="none" stroke="#63b8ff" d="M139.42,-87.84C207.06,-90.71 309.36,-91.8 397.25,-79.25 405.79,-78.03 414.73,-76.14 423.35,-73.98"/>
<polygon fill="#63b8ff" stroke="#63b8ff" points="139.7,-84.35 129.55,-87.4 139.38,-91.34 139.7,-84.35"/>
</a>
</g>
</g>
<!-- Node5 -->
<g id="Node000005" class="node">
<title>Node5</title>
<g id="a_Node000005"><a xlink:href="structllvm_1_1ImutContainerInfo.html" target="_top" xlink:title="ImutContainerInfo &#45; Generic definition of comparison operations for elements of immutable containers ...">
<polygon fill="white" stroke="#666666" points="342.5,-67.88 200.5,-67.88 200.5,-48.62 342.5,-48.62 342.5,-67.88"/>
<text xml:space="preserve" text-anchor="middle" x="271.5" y="-54.38" font-family="Helvetica,sans-Serif" font-size="10.00">llvm::ImutContainerInfo&lt; T &gt;</text>
</a>
</g>
</g>
<!-- Node2&#45;&gt;Node5 -->
<g id="edge5_Node000005_Node000002" class="edge">
<title>Node2&#45;&gt;Node5</title>
<g id="a_edge5_Node000005_Node000002"><a xlink:title=" ">
<path fill="none" stroke="#63b8ff" d="M139.4,-74.19C159.23,-71.78 180.58,-69.18 200.17,-66.8"/>
<polygon fill="#63b8ff" stroke="#63b8ff" points="139.25,-70.68 129.75,-75.36 140.1,-77.63 139.25,-70.68"/>
</a>
</g>
</g>
<!-- Node3 -->
<g id="Node000003" class="node">
<title>Node3</title>
<g id="a_Node000003"><a xlink:href="structllvm_1_1ImutProfileInfo_3_01T_01_5_01_4.html" target="_top" xlink:title="Generic profile trait for pointer types.">
<polygon fill="white" stroke="#666666" points="323.38,-30.5 219.62,-30.5 219.62,0 323.38,0 323.38,-30.5"/>
<text xml:space="preserve" text-anchor="start" x="227.62" y="-17" font-family="Helvetica,sans-Serif" font-size="10.00">llvm::ImutProfileInfo</text>
<text xml:space="preserve" text-anchor="middle" x="271.5" y="-5.75" font-family="Helvetica,sans-Serif" font-size="10.00">&lt; T * &gt;</text>
</a>
</g>
</g>
<!-- Node3&#45;&gt;Node1 -->
<g id="edge2_Node000001_Node000003" class="edge">
<title>Node3&#45;&gt;Node1</title>
<g id="a_edge2_Node000001_Node000003"><a xlink:title=" ">
<path fill="none" stroke="#63b8ff" d="M334.77,-28.59C360.38,-34.07 389.89,-40.39 415.07,-45.79"/>
<polygon fill="#63b8ff" stroke="#63b8ff" points="335.67,-25.2 325.16,-26.53 334.2,-32.05 335.67,-25.2"/>
</a>
</g>
</g>
<!-- Node4 -->
<g id="Node000004" class="node">
<title>Node4</title>
<g id="a_Node000004"><a xlink:href="structllvm_1_1ImutProfileInfo.html" target="_top" xlink:title="Generic profile template.">
<polygon fill="white" stroke="#666666" points="127.75,-24.88 0,-24.88 0,-5.63 127.75,-5.63 127.75,-24.88"/>
<text xml:space="preserve" text-anchor="middle" x="63.88" y="-11.38" font-family="Helvetica,sans-Serif" font-size="10.00">llvm::ImutProfileInfo&lt; T &gt;</text>
</a>
</g>
</g>
<!-- Node4&#45;&gt;Node3 -->
<g id="edge3_Node000003_Node000004" class="edge">
<title>Node4&#45;&gt;Node3</title>
<g id="a_edge3_Node000003_Node000004"><a xlink:title=" ">
<path fill="none" stroke="orange" stroke-dasharray="5,2" d="M139.43,-15.25C165.98,-15.25 195.25,-15.25 219.38,-15.25"/>
<polygon fill="orange" stroke="orange" points="139.76,-11.75 129.76,-15.25 139.76,-18.75 139.76,-11.75"/>
</a>
</g>
<text xml:space="preserve" text-anchor="start" x="148.75" y="-20" font-family="Helvetica,sans-Serif" font-size="10.00" fill="grey">&lt; T * &gt;</text>
</g>
<!-- Node5&#45;&gt;Node1 -->
<g id="edge4_Node000001_Node000005" class="edge">
<title>Node5&#45;&gt;Node1</title>
<g id="a_edge4_Node000001_Node000005"><a xlink:title=" ">
<path fill="none" stroke="orange" stroke-dasharray="5,2" d="M354.45,-58.25C374.7,-58.25 396,-58.25 414.87,-58.25"/>
<polygon fill="orange" stroke="orange" points="354.51,-54.75 344.51,-58.25 354.51,-61.75 354.51,-54.75"/>
</a>
</g>
<text xml:space="preserve" text-anchor="start" x="363.5" y="-63" font-family="Helvetica,sans-Serif" font-size="10.00" fill="grey">&lt; T * &gt;</text>
</g>
</g>
</svg>
