<?xml version="1.0" encoding="UTF-8" standalone="no"?>
<!DOCTYPE svg PUBLIC "-//W3C//DTD SVG 1.1//EN"
 "http://www.w3.org/Graphics/SVG/1.1/DTD/svg11.dtd">
<!-- Generated by graphviz version 13.1.2 (20250808.2320)
 -->
<!-- Title: llvm::GraphTraits&lt; GenericCycle&lt; BlockT &gt; * &gt; Pages: 1 -->
<svg width="751pt" height="131pt"
 viewBox="0.00 0.00 751.00 131.00" xmlns="http://www.w3.org/2000/svg" xmlns:xlink="http://www.w3.org/1999/xlink">
<g id="graph0" class="graph" transform="scale(1 1) rotate(0) translate(4 127)">
<title>llvm::GraphTraits&lt; GenericCycle&lt; BlockT &gt; * &gt;</title>
<!-- Node1 -->
<g id="Node000001" class="node">
<title>Node1</title>
<g id="a_Node000001"><a xlink:title=" ">
<polygon fill="#999999" stroke="#666666" points="743.25,-54.5 600.5,-54.5 600.5,-24 743.25,-24 743.25,-54.5"/>
<text xml:space="preserve" text-anchor="start" x="608.5" y="-41" font-family="Helvetica,sans-Serif" font-size="10.00">llvm::GraphTraits&lt;</text>
<text xml:space="preserve" text-anchor="middle" x="671.88" y="-29.75" font-family="Helvetica,sans-Serif" font-size="10.00"> GenericCycle&lt; BlockT &gt; * &gt;</text>
</a>
</g>
</g>
<!-- Node2 -->
<g id="Node000002" class="node">
<title>Node2</title>
<g id="a_Node000002"><a xlink:href="structllvm_1_1CycleGraphTraits.html" target="_top" xlink:title=" ">
<polygon fill="white" stroke="#666666" points="450.5,-101.75 313.75,-101.75 313.75,-48.75 450.5,-48.75 450.5,-101.75"/>
<text xml:space="preserve" text-anchor="start" x="321.75" y="-88.25" font-family="Helvetica,sans-Serif" font-size="10.00">llvm::CycleGraphTraits</text>
<text xml:space="preserve" text-anchor="start" x="321.75" y="-77" font-family="Helvetica,sans-Serif" font-size="10.00">&lt; GenericCycle&lt; BlockT</text>
<text xml:space="preserve" text-anchor="start" x="321.75" y="-65.75" font-family="Helvetica,sans-Serif" font-size="10.00"> &gt; *, GenericCycle&lt; BlockT</text>
<text xml:space="preserve" text-anchor="middle" x="382.12" y="-54.5" font-family="Helvetica,sans-Serif" font-size="10.00"> &gt;::const_child_iterator &gt;</text>
</a>
</g>
</g>
<!-- Node2&#45;&gt;Node1 -->
<g id="edge1_Node000001_Node000002" class="edge">
<title>Node2&#45;&gt;Node1</title>
<g id="a_edge1_Node000001_Node000002"><a xlink:title=" ">
<path fill="none" stroke="#63b8ff" d="M461.8,-68.8C498.55,-65.42 542.85,-60.82 582.5,-55.25 588.21,-54.45 594.12,-53.54 600.05,-52.58"/>
<polygon fill="#63b8ff" stroke="#63b8ff" points="461.8,-65.29 452.16,-69.68 462.44,-72.26 461.8,-65.29"/>
</a>
</g>
</g>
<!-- Node3 -->
<g id="Node000003" class="node">
<title>Node3</title>
<g id="a_Node000003"><a xlink:href="structllvm_1_1CycleGraphTraits.html" target="_top" xlink:title="GraphTraits for iterating over a sub&#45;tree of the CycleT tree.">
<polygon fill="white" stroke="#666666" points="145,-90.5 0,-90.5 0,-60 145,-60 145,-90.5"/>
<text xml:space="preserve" text-anchor="start" x="8" y="-77" font-family="Helvetica,sans-Serif" font-size="10.00">llvm::CycleGraphTraits</text>
<text xml:space="preserve" text-anchor="middle" x="72.5" y="-65.75" font-family="Helvetica,sans-Serif" font-size="10.00">&lt; CycleRefT, ChildIteratorT &gt;</text>
</a>
</g>
</g>
<!-- Node3&#45;&gt;Node2 -->
<g id="edge2_Node000002_Node000003" class="edge">
<title>Node3&#45;&gt;Node2</title>
<g id="a_edge2_Node000002_Node000003"><a xlink:title=" ">
<path fill="none" stroke="orange" stroke-dasharray="5,2" d="M156.5,-75.25C205.7,-75.25 267.27,-75.25 313.5,-75.25"/>
<polygon fill="orange" stroke="orange" points="156.75,-71.75 146.75,-75.25 156.75,-78.75 156.75,-71.75"/>
</a>
</g>
<text xml:space="preserve" text-anchor="start" x="166" y="-110.5" font-family="Helvetica,sans-Serif" font-size="10.00" fill="grey">&lt; GenericCycle&lt; BlockT</text>
<text xml:space="preserve" text-anchor="start" x="166" y="-95.25" font-family="Helvetica,sans-Serif" font-size="10.00" fill="grey">   &gt; *, GenericCycle&lt; BlockT</text>
<text xml:space="preserve" text-anchor="start" x="166" y="-80" font-family="Helvetica,sans-Serif" font-size="10.00" fill="grey">   &gt;::const_child_iterator &gt;</text>
</g>
<!-- Node4 -->
<g id="Node000004" class="node">
<title>Node4</title>
<g id="a_Node000004"><a xlink:href="structllvm_1_1GraphTraits.html" target="_top" xlink:title=" ">
<polygon fill="white" stroke="#666666" points="430.62,-30.5 333.62,-30.5 333.62,0 430.62,0 430.62,-30.5"/>
<text xml:space="preserve" text-anchor="start" x="341.62" y="-17" font-family="Helvetica,sans-Serif" font-size="10.00">llvm::GraphTraits&lt;</text>
<text xml:space="preserve" text-anchor="middle" x="382.12" y="-5.75" font-family="Helvetica,sans-Serif" font-size="10.00"> GraphType &gt;</text>
</a>
</g>
</g>
<!-- Node4&#45;&gt;Node1 -->
<g id="edge3_Node000001_Node000004" class="edge">
<title>Node4&#45;&gt;Node1</title>
<g id="a_edge3_Node000001_Node000004"><a xlink:title=" ">
<path fill="none" stroke="orange" stroke-dasharray="5,2" d="M442.16,-15.2C481.93,-15.72 535.5,-17.51 582.5,-22.75 588.24,-23.39 594.17,-24.19 600.11,-25.09"/>
<polygon fill="orange" stroke="orange" points="442.36,-11.7 432.32,-15.1 442.28,-18.7 442.36,-11.7"/>
</a>
</g>
<text xml:space="preserve" text-anchor="start" x="471.5" y="-42.75" font-family="Helvetica,sans-Serif" font-size="10.00" fill="grey">&lt; GenericCycle&lt; BlockT</text>
<text xml:space="preserve" text-anchor="start" x="471.5" y="-27.5" font-family="Helvetica,sans-Serif" font-size="10.00" fill="grey">   &gt; * &gt;</text>
</g>
</g>
</svg>
