<?xml version="1.0" encoding="UTF-8" standalone="no"?>
<!DOCTYPE svg PUBLIC "-//W3C//DTD SVG 1.1//EN"
 "http://www.w3.org/Graphics/SVG/1.1/DTD/svg11.dtd">
<!-- Generated by graphviz version 13.1.2 (20250808.2320)
 -->
<!-- Title: llvm::AAAlign Pages: 1 -->
<svg width="1616pt" height="272pt"
 viewBox="0.00 0.00 1616.00 272.00" xmlns="http://www.w3.org/2000/svg" xmlns:xlink="http://www.w3.org/1999/xlink">
<g id="graph0" class="graph" transform="scale(1 1) rotate(0) translate(4 268.12)">
<title>llvm::AAAlign</title>
<!-- Node1 -->
<g id="Node000001" class="node">
<title>Node1</title>
<g id="a_Node000001"><a xlink:title="An abstract interface for all align attributes.">
<polygon fill="#999999" stroke="#666666" points="1608.25,-55.88 1533,-55.88 1533,-36.62 1608.25,-36.62 1608.25,-55.88"/>
<text xml:space="preserve" text-anchor="middle" x="1570.62" y="-42.38" font-family="Helvetica,sans-Serif" font-size="10.00">llvm::AAAlign</text>
</a>
</g>
</g>
<!-- Node2 -->
<g id="Node000002" class="node">
<title>Node2</title>
<g id="a_Node000002"><a xlink:href="structllvm_1_1IRAttribute.html" target="_top" xlink:title=" ">
<polygon fill="white" stroke="#666666" points="1496,-78.38 1329.25,-78.38 1329.25,-14.12 1496,-14.12 1496,-78.38"/>
<text xml:space="preserve" text-anchor="start" x="1337.25" y="-64.88" font-family="Helvetica,sans-Serif" font-size="10.00">llvm::IRAttribute&lt;</text>
<text xml:space="preserve" text-anchor="start" x="1337.25" y="-53.62" font-family="Helvetica,sans-Serif" font-size="10.00"> Attribute::Alignment,</text>
<text xml:space="preserve" text-anchor="start" x="1337.25" y="-42.38" font-family="Helvetica,sans-Serif" font-size="10.00"> StateWrapper&lt; AAAlignmentState</text>
<text xml:space="preserve" text-anchor="start" x="1337.25" y="-31.12" font-family="Helvetica,sans-Serif" font-size="10.00">Type, AbstractAttribute &gt;,</text>
<text xml:space="preserve" text-anchor="middle" x="1412.62" y="-19.88" font-family="Helvetica,sans-Serif" font-size="10.00"> AAAlign &gt;</text>
</a>
</g>
</g>
<!-- Node2&#45;&gt;Node1 -->
<g id="edge1_Node000001_Node000002" class="edge">
<title>Node2&#45;&gt;Node1</title>
<g id="a_edge1_Node000001_Node000002"><a xlink:title=" ">
<path fill="none" stroke="#63b8ff" d="M1507.57,-46.25C1516.46,-46.25 1525.06,-46.25 1532.88,-46.25"/>
<polygon fill="#63b8ff" stroke="#63b8ff" points="1507.71,-42.75 1497.71,-46.25 1507.71,-49.75 1507.71,-42.75"/>
</a>
</g>
</g>
<!-- Node3 -->
<g id="Node000003" class="node">
<title>Node3</title>
<g id="a_Node000003"><a xlink:href="structllvm_1_1StateWrapper.html" target="_top" xlink:title=" ">
<polygon fill="white" stroke="#666666" points="1275.12,-138.12 1146.62,-138.12 1146.62,-96.38 1275.12,-96.38 1275.12,-138.12"/>
<text xml:space="preserve" text-anchor="start" x="1154.62" y="-124.62" font-family="Helvetica,sans-Serif" font-size="10.00">llvm::StateWrapper</text>
<text xml:space="preserve" text-anchor="start" x="1154.62" y="-113.38" font-family="Helvetica,sans-Serif" font-size="10.00">&lt; AAAlignmentStateType,</text>
<text xml:space="preserve" text-anchor="middle" x="1210.88" y="-102.12" font-family="Helvetica,sans-Serif" font-size="10.00"> AbstractAttribute &gt;</text>
</a>
</g>
</g>
<!-- Node3&#45;&gt;Node2 -->
<g id="edge2_Node000002_Node000003" class="edge">
<title>Node3&#45;&gt;Node2</title>
<g id="a_edge2_Node000002_Node000003"><a xlink:title=" ">
<path fill="none" stroke="#63b8ff" d="M1282.52,-92.14C1297.51,-86.81 1313.45,-81.15 1328.84,-75.68"/>
<polygon fill="#63b8ff" stroke="#63b8ff" points="1281.48,-88.79 1273.23,-95.44 1283.83,-95.39 1281.48,-88.79"/>
</a>
</g>
</g>
<!-- Node4 -->
<g id="Node000004" class="node">
<title>Node4</title>
<g id="a_Node000004"><a xlink:href="structllvm_1_1AbstractAttribute.html" target="_top" xlink:title="Base struct for all &quot;concrete attribute&quot; deductions.">
<polygon fill="white" stroke="#666666" points="955.62,-126.88 842.12,-126.88 842.12,-107.62 955.62,-107.62 955.62,-126.88"/>
<text xml:space="preserve" text-anchor="middle" x="898.88" y="-113.38" font-family="Helvetica,sans-Serif" font-size="10.00">llvm::AbstractAttribute</text>
</a>
</g>
</g>
<!-- Node4&#45;&gt;Node3 -->
<g id="edge3_Node000003_Node000004" class="edge">
<title>Node4&#45;&gt;Node3</title>
<g id="a_edge3_Node000003_Node000004"><a xlink:title=" ">
<path fill="none" stroke="#63b8ff" d="M967.36,-117.25C1020.48,-117.25 1094,-117.25 1146.13,-117.25"/>
<polygon fill="#63b8ff" stroke="#63b8ff" points="967.53,-113.75 957.53,-117.25 967.53,-120.75 967.53,-113.75"/>
</a>
</g>
</g>
<!-- Node5 -->
<g id="Node000005" class="node">
<title>Node5</title>
<g id="a_Node000005"><a xlink:href="structllvm_1_1IRPosition.html" target="_top" xlink:title="Helper to describe and deal with positions in the LLVM&#45;IR.">
<polygon fill="white" stroke="#666666" points="660.62,-148.88 574.88,-148.88 574.88,-129.62 660.62,-129.62 660.62,-148.88"/>
<text xml:space="preserve" text-anchor="middle" x="617.75" y="-135.38" font-family="Helvetica,sans-Serif" font-size="10.00">llvm::IRPosition</text>
</a>
</g>
</g>
<!-- Node5&#45;&gt;Node4 -->
<g id="edge4_Node000004_Node000005" class="edge">
<title>Node5&#45;&gt;Node4</title>
<g id="a_edge4_Node000004_Node000005"><a xlink:title=" ">
<path fill="none" stroke="#63b8ff" d="M672.06,-135.05C720.65,-131.22 792.19,-125.58 841.67,-121.68"/>
<polygon fill="#63b8ff" stroke="#63b8ff" points="672.04,-131.54 662.35,-135.81 672.59,-138.52 672.04,-131.54"/>
</a>
</g>
</g>
<!-- Node6 -->
<g id="Node000006" class="node">
<title>Node6</title>
<g id="a_Node000006"><a xlink:href="structllvm_1_1AADepGraphNode.html" target="_top" xlink:title="}">
<polygon fill="white" stroke="#666666" points="678.25,-111.88 557.25,-111.88 557.25,-92.62 678.25,-92.62 678.25,-111.88"/>
<text xml:space="preserve" text-anchor="middle" x="617.75" y="-98.38" font-family="Helvetica,sans-Serif" font-size="10.00">llvm::AADepGraphNode</text>
</a>
</g>
</g>
<!-- Node6&#45;&gt;Node4 -->
<g id="edge5_Node000004_Node000006" class="edge">
<title>Node6&#45;&gt;Node4</title>
<g id="a_edge5_Node000004_Node000006"><a xlink:title=" ">
<path fill="none" stroke="#63b8ff" d="M690,-106.08C737.18,-108.61 798.2,-111.89 841.9,-114.24"/>
<polygon fill="#63b8ff" stroke="#63b8ff" points="690.31,-102.59 680.14,-105.55 689.94,-109.58 690.31,-102.59"/>
</a>
</g>
</g>
<!-- Node7 -->
<g id="Node000007" class="node">
<title>Node7</title>
<g id="a_Node000007"><a xlink:href="structllvm_1_1IncIntegerState.html" target="_top" xlink:title=" ">
<polygon fill="white" stroke="#666666" points="957.5,-197.88 840.25,-197.88 840.25,-178.62 957.5,-178.62 957.5,-197.88"/>
<text xml:space="preserve" text-anchor="middle" x="898.88" y="-184.38" font-family="Helvetica,sans-Serif" font-size="10.00">AAAlignmentStateType</text>
</a>
</g>
</g>
<!-- Node7&#45;&gt;Node3 -->
<g id="edge6_Node000003_Node000007" class="edge">
<title>Node7&#45;&gt;Node3</title>
<g id="a_edge6_Node000003_Node000007"><a xlink:title=" ">
<path fill="none" stroke="#63b8ff" d="M954.96,-175.63C1008.58,-163.35 1089.98,-144.71 1146.31,-131.81"/>
<polygon fill="#63b8ff" stroke="#63b8ff" points="954.4,-172.17 945.44,-177.81 955.97,-178.99 954.4,-172.17"/>
</a>
</g>
</g>
<!-- Node8 -->
<g id="Node000008" class="node">
<title>Node8</title>
<g id="a_Node000008"><a xlink:href="structllvm_1_1IntegerStateBase.html" target="_top" xlink:title="Simple state with integers encoding.">
<polygon fill="white" stroke="#666666" points="386.5,-264.12 270.75,-264.12 270.75,-222.38 386.5,-222.38 386.5,-264.12"/>
<text xml:space="preserve" text-anchor="start" x="278.75" y="-250.62" font-family="Helvetica,sans-Serif" font-size="10.00">llvm::IntegerStateBase</text>
<text xml:space="preserve" text-anchor="start" x="278.75" y="-239.38" font-family="Helvetica,sans-Serif" font-size="10.00">&lt; base_ty, BestState,</text>
<text xml:space="preserve" text-anchor="middle" x="328.62" y="-228.12" font-family="Helvetica,sans-Serif" font-size="10.00"> WorstState &gt;</text>
</a>
</g>
</g>
<!-- Node8&#45;&gt;Node7 -->
<g id="edge7_Node000007_Node000008" class="edge">
<title>Node8&#45;&gt;Node7</title>
<g id="a_edge7_Node000007_Node000008"><a xlink:title=" ">
<path fill="none" stroke="#63b8ff" d="M398.4,-248.81C493.4,-254.67 669.54,-258.93 814.75,-225.25 838.76,-219.68 864.37,-207.16 880.72,-198.23"/>
<polygon fill="#63b8ff" stroke="#63b8ff" points="398.65,-245.32 388.45,-248.17 398.2,-252.3 398.65,-245.32"/>
</a>
</g>
</g>
<!-- Node9 -->
<g id="Node000009" class="node">
<title>Node9</title>
<g id="a_Node000009"><a xlink:href="structllvm_1_1AbstractState.html" target="_top" xlink:title="An interface to query the internal state of an abstract attribute.">
<polygon fill="white" stroke="#666666" points="100,-203.88 0,-203.88 0,-184.62 100,-184.62 100,-203.88"/>
<text xml:space="preserve" text-anchor="middle" x="50" y="-190.38" font-family="Helvetica,sans-Serif" font-size="10.00">llvm::AbstractState</text>
</a>
</g>
</g>
<!-- Node9&#45;&gt;Node8 -->
<g id="edge8_Node000008_Node000009" class="edge">
<title>Node9&#45;&gt;Node8</title>
<g id="a_edge8_Node000008_Node000009"><a xlink:title=" ">
<path fill="none" stroke="#63b8ff" d="M85.67,-208.44C101.13,-214.23 119.73,-220.43 137,-224.25 181.17,-234.01 232.21,-238.76 270.35,-241.07"/>
<polygon fill="#63b8ff" stroke="#63b8ff" points="87.02,-205.22 76.43,-204.89 84.51,-211.75 87.02,-205.22"/>
</a>
</g>
</g>
<!-- Node11 -->
<g id="Node000011" class="node">
<title>Node11</title>
<g id="a_Node000011"><a xlink:href="structllvm_1_1IntegerStateBase.html" target="_top" xlink:title=" ">
<polygon fill="white" stroke="#666666" points="520.25,-206.12 404.5,-206.12 404.5,-164.38 520.25,-164.38 520.25,-206.12"/>
<text xml:space="preserve" text-anchor="start" x="412.5" y="-192.62" font-family="Helvetica,sans-Serif" font-size="10.00">llvm::IntegerStateBase</text>
<text xml:space="preserve" text-anchor="start" x="412.5" y="-181.38" font-family="Helvetica,sans-Serif" font-size="10.00">&lt; uint32_t, ~uint32_t</text>
<text xml:space="preserve" text-anchor="middle" x="462.38" y="-170.12" font-family="Helvetica,sans-Serif" font-size="10.00">(0), 0 &gt;</text>
</a>
</g>
</g>
<!-- Node9&#45;&gt;Node11 -->
<g id="edge11_Node000011_Node000009" class="edge">
<title>Node9&#45;&gt;Node11</title>
<g id="a_edge11_Node000011_Node000009"><a xlink:title=" ">
<path fill="none" stroke="#63b8ff" d="M83.4,-180.05C99.23,-173.87 118.76,-167.34 137,-164.25 229.64,-148.56 338.99,-162.16 404.12,-173.59"/>
<polygon fill="#63b8ff" stroke="#63b8ff" points="82.44,-176.66 74.49,-183.66 85.07,-183.15 82.44,-176.66"/>
</a>
</g>
</g>
<!-- Node12 -->
<g id="Node000012" class="node">
<title>Node12</title>
<g id="a_Node000012"><a xlink:href="structllvm_1_1IntegerStateBase.html" target="_top" xlink:title="Simple state with integers encoding.">
<polygon fill="white" stroke="#666666" points="252.75,-215.12 137,-215.12 137,-173.38 252.75,-173.38 252.75,-215.12"/>
<text xml:space="preserve" text-anchor="start" x="145" y="-201.62" font-family="Helvetica,sans-Serif" font-size="10.00">llvm::IntegerStateBase</text>
<text xml:space="preserve" text-anchor="start" x="145" y="-190.38" font-family="Helvetica,sans-Serif" font-size="10.00">&lt; base_ty, BestState,</text>
<text xml:space="preserve" text-anchor="middle" x="194.88" y="-179.12" font-family="Helvetica,sans-Serif" font-size="10.00"> WorstState &gt;</text>
</a>
</g>
</g>
<!-- Node9&#45;&gt;Node12 -->
<g id="edge13_Node000012_Node000009" class="edge">
<title>Node9&#45;&gt;Node12</title>
<g id="a_edge13_Node000012_Node000009"><a xlink:title=" ">
<path fill="none" stroke="#63b8ff" d="M111.44,-194.25C119.83,-194.25 128.42,-194.25 136.75,-194.25"/>
<polygon fill="#63b8ff" stroke="#63b8ff" points="111.68,-190.75 101.68,-194.25 111.68,-197.75 111.68,-190.75"/>
</a>
</g>
</g>
<!-- Node10 -->
<g id="Node000010" class="node">
<title>Node10</title>
<g id="a_Node000010"><a xlink:href="structllvm_1_1IncIntegerState.html" target="_top" xlink:title="Specialization of the integer state for an increasing value, hence ~0u is the best state and 0 the wo...">
<polygon fill="white" stroke="#666666" points="673,-209.12 562.5,-209.12 562.5,-167.38 673,-167.38 673,-209.12"/>
<text xml:space="preserve" text-anchor="start" x="570.5" y="-195.62" font-family="Helvetica,sans-Serif" font-size="10.00">llvm::IncIntegerState</text>
<text xml:space="preserve" text-anchor="start" x="570.5" y="-184.38" font-family="Helvetica,sans-Serif" font-size="10.00">&lt; base_ty, BestState,</text>
<text xml:space="preserve" text-anchor="middle" x="617.75" y="-173.12" font-family="Helvetica,sans-Serif" font-size="10.00"> WorstState &gt;</text>
</a>
</g>
</g>
<!-- Node10&#45;&gt;Node7 -->
<g id="edge9_Node000007_Node000010" class="edge">
<title>Node10&#45;&gt;Node7</title>
<g id="a_edge9_Node000007_Node000010"><a xlink:title=" ">
<path fill="none" stroke="orange" stroke-dasharray="5,2" d="M684.58,-188.25C731.82,-188.25 794.89,-188.25 840.17,-188.25"/>
<polygon fill="orange" stroke="orange" points="684.74,-184.75 674.74,-188.25 684.74,-191.75 684.74,-184.75"/>
</a>
</g>
<text xml:space="preserve" text-anchor="start" x="699.25" y="-208.25" font-family="Helvetica,sans-Serif" font-size="10.00" fill="grey">&lt; uint64_t, Value::</text>
<text xml:space="preserve" text-anchor="start" x="699.25" y="-193" font-family="Helvetica,sans-Serif" font-size="10.00" fill="grey">  MaximumAlignment, 1 &gt;</text>
</g>
<!-- Node11&#45;&gt;Node10 -->
<g id="edge10_Node000010_Node000011" class="edge">
<title>Node11&#45;&gt;Node10</title>
<g id="a_edge10_Node000010_Node000011"><a xlink:title=" ">
<path fill="none" stroke="#63b8ff" d="M531.82,-186.59C541.97,-186.79 552.32,-186.99 562.14,-187.18"/>
<polygon fill="#63b8ff" stroke="#63b8ff" points="532.07,-183.09 522,-186.4 531.93,-190.09 532.07,-183.09"/>
</a>
</g>
</g>
<!-- Node12&#45;&gt;Node11 -->
<g id="edge12_Node000011_Node000012" class="edge">
<title>Node12&#45;&gt;Node11</title>
<g id="a_edge12_Node000011_Node000012"><a xlink:title=" ">
<path fill="none" stroke="orange" stroke-dasharray="5,2" d="M264.16,-181.42C266.38,-181.17 268.58,-180.94 270.75,-180.75 315.43,-176.75 366.21,-178.25 404.13,-180.54"/>
<polygon fill="orange" stroke="orange" points="263.93,-177.92 254.47,-182.68 264.83,-184.86 263.93,-177.92"/>
</a>
</g>
<text xml:space="preserve" text-anchor="start" x="287.75" y="-200.75" font-family="Helvetica,sans-Serif" font-size="10.00" fill="grey">&lt; uint32_t, ~uint32</text>
<text xml:space="preserve" text-anchor="start" x="287.75" y="-185.5" font-family="Helvetica,sans-Serif" font-size="10.00" fill="grey">  _t(0), 0 &gt;</text>
</g>
<!-- Node13 -->
<g id="Node000013" class="node">
<title>Node13</title>
<g id="a_Node000013"><a xlink:href="structllvm_1_1StateWrapper.html" target="_top" xlink:title="Helper to tie a abstract state implementation to an abstract attribute.">
<polygon fill="white" stroke="#666666" points="965,-80.5 832.75,-80.5 832.75,-50 965,-50 965,-80.5"/>
<text xml:space="preserve" text-anchor="start" x="840.75" y="-67" font-family="Helvetica,sans-Serif" font-size="10.00">llvm::StateWrapper</text>
<text xml:space="preserve" text-anchor="middle" x="898.88" y="-55.75" font-family="Helvetica,sans-Serif" font-size="10.00">&lt; StateTy, BaseType, Ts &gt;</text>
</a>
</g>
</g>
<!-- Node13&#45;&gt;Node3 -->
<g id="edge14_Node000003_Node000013" class="edge">
<title>Node13&#45;&gt;Node3</title>
<g id="a_edge14_Node000003_Node000013"><a xlink:title=" ">
<path fill="none" stroke="orange" stroke-dasharray="5,2" d="M976.8,-65.68C1017.28,-67.21 1067.5,-71.18 1111.5,-80.75 1127.88,-84.31 1145.19,-90.03 1160.65,-95.89"/>
<polygon fill="orange" stroke="orange" points="977.01,-62.19 966.9,-65.36 976.78,-69.18 977.01,-62.19"/>
</a>
</g>
<text xml:space="preserve" text-anchor="start" x="991" y="-100.75" font-family="Helvetica,sans-Serif" font-size="10.00" fill="grey">&lt; AAAlignmentStateType,</text>
<text xml:space="preserve" text-anchor="start" x="991" y="-85.5" font-family="Helvetica,sans-Serif" font-size="10.00" fill="grey">   AbstractAttribute &gt;</text>
</g>
<!-- Node14 -->
<g id="Node000014" class="node">
<title>Node14</title>
<g id="a_Node000014"><a xlink:href="classBaseType.html" target="_top" xlink:title=" ">
<polygon fill="white" stroke="#666666" points="647.5,-31.88 588,-31.88 588,-12.62 647.5,-12.62 647.5,-31.88"/>
<text xml:space="preserve" text-anchor="middle" x="617.75" y="-18.38" font-family="Helvetica,sans-Serif" font-size="10.00">BaseType</text>
</a>
</g>
</g>
<!-- Node14&#45;&gt;Node13 -->
<g id="edge15_Node000013_Node000014" class="edge">
<title>Node14&#45;&gt;Node13</title>
<g id="a_edge15_Node000013_Node000014"><a xlink:title=" ">
<path fill="none" stroke="#63b8ff" d="M658.97,-28.45C704.28,-35.43 778.59,-46.87 832.32,-55.15"/>
<polygon fill="#63b8ff" stroke="#63b8ff" points="659.74,-25.02 649.33,-26.96 658.68,-31.94 659.74,-25.02"/>
</a>
</g>
</g>
<!-- Node16 -->
<g id="Node000016" class="node">
<title>Node16</title>
<g id="a_Node000016"><a xlink:href="structllvm_1_1IRAttribute.html" target="_top" xlink:title="Helper class that provides common functionality to manifest IR attributes.">
<polygon fill="white" stroke="#666666" points="1111.5,-30.5 983,-30.5 983,0 1111.5,0 1111.5,-30.5"/>
<text xml:space="preserve" text-anchor="start" x="991" y="-17" font-family="Helvetica,sans-Serif" font-size="10.00">llvm::IRAttribute&lt;</text>
<text xml:space="preserve" text-anchor="middle" x="1047.25" y="-5.75" font-family="Helvetica,sans-Serif" font-size="10.00"> AK, BaseType, AAType &gt;</text>
</a>
</g>
</g>
<!-- Node14&#45;&gt;Node16 -->
<g id="edge18_Node000016_Node000014" class="edge">
<title>Node14&#45;&gt;Node16</title>
<g id="a_edge18_Node000016_Node000014"><a xlink:title=" ">
<path fill="none" stroke="#63b8ff" d="M659,-21.59C733.52,-20.37 893.51,-17.75 982.76,-16.29"/>
<polygon fill="#63b8ff" stroke="#63b8ff" points="659.25,-18.09 649.31,-21.75 659.37,-25.09 659.25,-18.09"/>
</a>
</g>
</g>
<!-- Node15 -->
<g id="Node000015" class="node">
<title>Node15</title>
<g id="a_Node000015"><a xlink:href="classStateTy.html" target="_top" xlink:title=" ">
<polygon fill="white" stroke="#666666" points="642.62,-74.88 592.88,-74.88 592.88,-55.62 642.62,-55.62 642.62,-74.88"/>
<text xml:space="preserve" text-anchor="middle" x="617.75" y="-61.38" font-family="Helvetica,sans-Serif" font-size="10.00">StateTy</text>
</a>
</g>
</g>
<!-- Node15&#45;&gt;Node13 -->
<g id="edge16_Node000013_Node000015" class="edge">
<title>Node15&#45;&gt;Node13</title>
<g id="a_edge16_Node000013_Node000015"><a xlink:title=" ">
<path fill="none" stroke="#63b8ff" d="M654.47,-65.25C699.21,-65.25 776.74,-65.25 832.28,-65.25"/>
<polygon fill="#63b8ff" stroke="#63b8ff" points="654.55,-61.75 644.55,-65.25 654.55,-68.75 654.55,-61.75"/>
</a>
</g>
</g>
<!-- Node16&#45;&gt;Node2 -->
<g id="edge17_Node000002_Node000016" class="edge">
<title>Node16&#45;&gt;Node2</title>
<g id="a_edge17_Node000002_Node000016"><a xlink:title=" ">
<path fill="none" stroke="orange" stroke-dasharray="5,2" d="M1123.2,-15.2C1171.58,-15.86 1235.79,-18.04 1292.25,-24.25 1304.19,-25.56 1316.73,-27.38 1329.01,-29.42"/>
<polygon fill="orange" stroke="orange" points="1123.44,-11.7 1113.4,-15.09 1123.36,-18.7 1123.44,-11.7"/>
</a>
</g>
<text xml:space="preserve" text-anchor="start" x="1132.5" y="-74.75" font-family="Helvetica,sans-Serif" font-size="10.00" fill="grey">&lt; Attribute::Alignment,</text>
<text xml:space="preserve" text-anchor="start" x="1132.5" y="-59.5" font-family="Helvetica,sans-Serif" font-size="10.00" fill="grey">   StateWrapper&lt; AAAlignmentState</text>
<text xml:space="preserve" text-anchor="start" x="1132.5" y="-44.25" font-family="Helvetica,sans-Serif" font-size="10.00" fill="grey">  Type, AbstractAttribute &gt;,</text>
<text xml:space="preserve" text-anchor="start" x="1132.5" y="-29" font-family="Helvetica,sans-Serif" font-size="10.00" fill="grey">   AAAlign &gt;</text>
</g>
</g>
</svg>
