<?xml version="1.0" encoding="UTF-8" standalone="no"?>
<!DOCTYPE svg PUBLIC "-//W3C//DTD SVG 1.1//EN"
 "http://www.w3.org/Graphics/SVG/1.1/DTD/svg11.dtd">
<!-- Generated by graphviz version 13.1.2 (20250808.2320)
 -->
<!-- Title: llvm::SysAliasReg Pages: 1 -->
<svg width="256pt" height="138pt"
 viewBox="0.00 0.00 256.00 138.00" xmlns="http://www.w3.org/2000/svg" xmlns:xlink="http://www.w3.org/1999/xlink">
<g id="graph0" class="graph" transform="scale(1 1) rotate(0) translate(4 133.75)">
<title>llvm::SysAliasReg</title>
<!-- Node1 -->
<g id="Node000001" class="node">
<title>Node1</title>
<g id="a_Node000001"><a xlink:title=" ">
<polygon fill="#999999" stroke="#666666" points="166.75,-74.5 69.75,-74.5 69.75,-55.25 166.75,-55.25 166.75,-74.5"/>
<text xml:space="preserve" text-anchor="middle" x="118.25" y="-61" font-family="Helvetica,sans-Serif" font-size="10.00">llvm::SysAliasReg</text>
</a>
</g>
</g>
<!-- Node3 -->
<g id="Node000003" class="node">
<title>Node3</title>
<g id="a_Node000003"><a xlink:href="structllvm_1_1AArch64IC_1_1IC.html" target="_top" xlink:title=" ">
<polygon fill="white" stroke="#666666" points="104.5,-19.25 0,-19.25 0,0 104.5,0 104.5,-19.25"/>
<text xml:space="preserve" text-anchor="middle" x="52.25" y="-5.75" font-family="Helvetica,sans-Serif" font-size="10.00">llvm::AArch64IC::IC</text>
</a>
</g>
</g>
<!-- Node1&#45;&gt;Node3 -->
<g id="edge2_Node000001_Node000003" class="edge">
<title>Node1&#45;&gt;Node3</title>
<g id="a_edge2_Node000001_Node000003"><a xlink:title=" ">
<path fill="none" stroke="#63b8ff" d="M98.16,-47.66C86.7,-38.42 72.77,-27.18 63.28,-19.52"/>
<polygon fill="#63b8ff" stroke="#63b8ff" points="95.9,-50.34 105.88,-53.89 100.29,-44.89 95.9,-50.34"/>
</a>
</g>
</g>
<!-- Node4 -->
<g id="Node000004" class="node">
<title>Node4</title>
<g id="a_Node000004"><a xlink:href="structllvm_1_1AArch64TLBI_1_1TLBI.html" target="_top" xlink:title=" ">
<polygon fill="white" stroke="#666666" points="248,-19.25 122.5,-19.25 122.5,0 248,0 248,-19.25"/>
<text xml:space="preserve" text-anchor="middle" x="185.25" y="-5.75" font-family="Helvetica,sans-Serif" font-size="10.00">llvm::AArch64TLBI::TLBI</text>
</a>
</g>
</g>
<!-- Node1&#45;&gt;Node4 -->
<g id="edge3_Node000001_Node000004" class="edge">
<title>Node1&#45;&gt;Node4</title>
<g id="a_edge3_Node000001_Node000004"><a xlink:title=" ">
<path fill="none" stroke="#63b8ff" d="M138.3,-47.94C150,-38.64 164.32,-27.26 174.05,-19.52"/>
<polygon fill="#63b8ff" stroke="#63b8ff" points="136.45,-44.94 130.8,-53.9 140.81,-50.42 136.45,-44.94"/>
</a>
</g>
</g>
<!-- Node2 -->
<g id="Node000002" class="node">
<title>Node2</title>
<g id="a_Node000002"><a xlink:href="structllvm_1_1SysAlias.html" target="_top" xlink:title=" ">
<polygon fill="white" stroke="#666666" points="157.75,-129.75 78.75,-129.75 78.75,-110.5 157.75,-110.5 157.75,-129.75"/>
<text xml:space="preserve" text-anchor="middle" x="118.25" y="-116.25" font-family="Helvetica,sans-Serif" font-size="10.00">llvm::SysAlias</text>
</a>
</g>
</g>
<!-- Node2&#45;&gt;Node1 -->
<g id="edge1_Node000001_Node000002" class="edge">
<title>Node2&#45;&gt;Node1</title>
<g id="a_edge1_Node000001_Node000002"><a xlink:title=" ">
<path fill="none" stroke="#63b8ff" d="M118.25,-98.88C118.25,-90.59 118.25,-81.42 118.25,-74.86"/>
<polygon fill="#63b8ff" stroke="#63b8ff" points="114.75,-98.82 118.25,-108.82 121.75,-98.82 114.75,-98.82"/>
</a>
</g>
</g>
</g>
</svg>
