<?xml version="1.0" encoding="UTF-8" standalone="no"?>
<!DOCTYPE svg PUBLIC "-//W3C//DTD SVG 1.1//EN"
 "http://www.w3.org/Graphics/SVG/1.1/DTD/svg11.dtd">
<!-- Generated by graphviz version 13.1.2 (20250808.2320)
 -->
<!-- Title: llvm::VariadicOperandTraits&lt; SubClass &gt; Pages: 1 -->
<svg width="683pt" height="491pt"
 viewBox="0.00 0.00 683.00 491.00" xmlns="http://www.w3.org/2000/svg" xmlns:xlink="http://www.w3.org/1999/xlink">
<g id="graph0" class="graph" transform="scale(1 1) rotate(0) translate(4 487.38)">
<title>llvm::VariadicOperandTraits&lt; SubClass &gt;</title>
<!-- Node1 -->
<g id="Node000001" class="node">
<title>Node1</title>
<g id="a_Node000001"><a xlink:title="VariadicOperandTraits &#45; determine the allocation regime of the Use array when it is a prefix to the U...">
<polygon fill="#999999" stroke="#666666" points="136,-249.38 0,-249.38 0,-218.88 136,-218.88 136,-249.38"/>
<text xml:space="preserve" text-anchor="start" x="8" y="-235.88" font-family="Helvetica,sans-Serif" font-size="10.00">llvm::VariadicOperandTraits</text>
<text xml:space="preserve" text-anchor="middle" x="68" y="-224.63" font-family="Helvetica,sans-Serif" font-size="10.00">&lt; SubClass &gt;</text>
</a>
</g>
</g>
<!-- Node2 -->
<g id="Node000002" class="node">
<title>Node2</title>
<g id="a_Node000002"><a xlink:href="structllvm_1_1VariadicOperandTraits.html" target="_top" xlink:title=" ">
<polygon fill="white" stroke="#666666" points="467.75,-472.38 331.75,-472.38 331.75,-441.88 467.75,-441.88 467.75,-472.38"/>
<text xml:space="preserve" text-anchor="start" x="339.75" y="-458.88" font-family="Helvetica,sans-Serif" font-size="10.00">llvm::VariadicOperandTraits</text>
<text xml:space="preserve" text-anchor="middle" x="399.75" y="-447.63" font-family="Helvetica,sans-Serif" font-size="10.00">&lt; BranchInst &gt;</text>
</a>
</g>
</g>
<!-- Node1&#45;&gt;Node2 -->
<g id="edge1_Node000001_Node000002" class="edge">
<title>Node1&#45;&gt;Node2</title>
<g id="a_edge1_Node000001_Node000002"><a xlink:title=" ">
<path fill="none" stroke="orange" stroke-dasharray="5,2" d="M72.49,-260.84C79.57,-303.38 99.86,-385.82 154,-426.13 204.67,-463.86 278.2,-468.4 331.43,-465.48"/>
<polygon fill="orange" stroke="orange" points="75.99,-260.58 71.02,-251.23 69.07,-261.64 75.99,-260.58"/>
</a>
</g>
<text xml:space="preserve" text-anchor="start" x="195.62" y="-470.88" font-family="Helvetica,sans-Serif" font-size="10.00" fill="grey">&lt; BranchInst &gt;</text>
</g>
<!-- Node4 -->
<g id="Node000004" class="node">
<title>Node4</title>
<g id="a_Node000004"><a xlink:href="structllvm_1_1VariadicOperandTraits.html" target="_top" xlink:title=" ">
<polygon fill="white" stroke="#666666" points="467.75,-423.38 331.75,-423.38 331.75,-392.88 467.75,-392.88 467.75,-423.38"/>
<text xml:space="preserve" text-anchor="start" x="339.75" y="-409.88" font-family="Helvetica,sans-Serif" font-size="10.00">llvm::VariadicOperandTraits</text>
<text xml:space="preserve" text-anchor="middle" x="399.75" y="-398.63" font-family="Helvetica,sans-Serif" font-size="10.00">&lt; CallBase &gt;</text>
</a>
</g>
</g>
<!-- Node1&#45;&gt;Node4 -->
<g id="edge3_Node000001_Node000004" class="edge">
<title>Node1&#45;&gt;Node4</title>
<g id="a_edge3_Node000001_Node000004"><a xlink:title=" ">
<path fill="none" stroke="orange" stroke-dasharray="5,2" d="M76.42,-260.43C87.39,-294.06 111.4,-351.27 154,-379.13 182.33,-397.67 269.16,-404.37 331.34,-406.78"/>
<polygon fill="orange" stroke="orange" points="79.81,-259.57 73.51,-251.05 73.13,-261.64 79.81,-259.57"/>
</a>
</g>
<text xml:space="preserve" text-anchor="start" x="199.38" y="-410.03" font-family="Helvetica,sans-Serif" font-size="10.00" fill="grey">&lt; CallBase &gt;</text>
</g>
<!-- Node6 -->
<g id="Node000006" class="node">
<title>Node6</title>
<g id="a_Node000006"><a xlink:href="structllvm_1_1VariadicOperandTraits.html" target="_top" xlink:title=" ">
<polygon fill="white" stroke="#666666" points="467.75,-374.38 331.75,-374.38 331.75,-343.88 467.75,-343.88 467.75,-374.38"/>
<text xml:space="preserve" text-anchor="start" x="339.75" y="-360.88" font-family="Helvetica,sans-Serif" font-size="10.00">llvm::VariadicOperandTraits</text>
<text xml:space="preserve" text-anchor="middle" x="399.75" y="-349.63" font-family="Helvetica,sans-Serif" font-size="10.00">&lt; CleanupReturnInst &gt;</text>
</a>
</g>
</g>
<!-- Node1&#45;&gt;Node6 -->
<g id="edge5_Node000001_Node000006" class="edge">
<title>Node1&#45;&gt;Node6</title>
<g id="a_edge5_Node000001_Node000006"><a xlink:title=" ">
<path fill="none" stroke="orange" stroke-dasharray="5,2" d="M85.42,-258.9C100.62,-279.66 125.16,-308.22 154,-323.13 209.13,-351.64 280,-359.43 331.28,-360.82"/>
<polygon fill="orange" stroke="orange" points="88.43,-257.1 79.8,-250.95 82.71,-261.14 88.43,-257.1"/>
</a>
</g>
<text xml:space="preserve" text-anchor="start" x="178.38" y="-364.05" font-family="Helvetica,sans-Serif" font-size="10.00" fill="grey">&lt; CleanupReturnInst &gt;</text>
</g>
<!-- Node8 -->
<g id="Node000008" class="node">
<title>Node8</title>
<g id="a_Node000008"><a xlink:href="structllvm_1_1VariadicOperandTraits.html" target="_top" xlink:title=" ">
<polygon fill="white" stroke="#666666" points="467.75,-325.38 331.75,-325.38 331.75,-294.88 467.75,-294.88 467.75,-325.38"/>
<text xml:space="preserve" text-anchor="start" x="339.75" y="-311.88" font-family="Helvetica,sans-Serif" font-size="10.00">llvm::VariadicOperandTraits</text>
<text xml:space="preserve" text-anchor="middle" x="399.75" y="-300.63" font-family="Helvetica,sans-Serif" font-size="10.00">&lt; ConstantAggregate &gt;</text>
</a>
</g>
</g>
<!-- Node1&#45;&gt;Node8 -->
<g id="edge7_Node000001_Node000008" class="edge">
<title>Node1&#45;&gt;Node8</title>
<g id="a_edge7_Node000001_Node000008"><a xlink:title=" ">
<path fill="none" stroke="orange" stroke-dasharray="5,2" d="M106.9,-254.89C121.28,-261.97 138.04,-269.32 154,-274.13 212.49,-291.77 281.55,-300.93 331.37,-305.58"/>
<polygon fill="orange" stroke="orange" points="108.74,-251.9 98.24,-250.5 105.58,-258.14 108.74,-251.9"/>
</a>
</g>
<text xml:space="preserve" text-anchor="start" x="177.25" y="-306.8" font-family="Helvetica,sans-Serif" font-size="10.00" fill="grey">&lt; ConstantAggregate &gt;</text>
</g>
<!-- Node10 -->
<g id="Node000010" class="node">
<title>Node10</title>
<g id="a_Node000010"><a xlink:href="structllvm_1_1VariadicOperandTraits.html" target="_top" xlink:title=" ">
<polygon fill="white" stroke="#666666" points="467.75,-276.38 331.75,-276.38 331.75,-245.88 467.75,-245.88 467.75,-276.38"/>
<text xml:space="preserve" text-anchor="start" x="339.75" y="-262.88" font-family="Helvetica,sans-Serif" font-size="10.00">llvm::VariadicOperandTraits</text>
<text xml:space="preserve" text-anchor="middle" x="399.75" y="-251.63" font-family="Helvetica,sans-Serif" font-size="10.00">&lt; ConstantExpr &gt;</text>
</a>
</g>
</g>
<!-- Node1&#45;&gt;Node10 -->
<g id="edge9_Node000001_Node000010" class="edge">
<title>Node1&#45;&gt;Node10</title>
<g id="a_edge9_Node000001_Node000010"><a xlink:title=" ">
<path fill="none" stroke="orange" stroke-dasharray="5,2" d="M147.43,-240.55C203.47,-245.14 278.09,-251.25 331.43,-255.62"/>
<polygon fill="orange" stroke="orange" points="147.89,-237.08 137.64,-239.75 147.32,-244.06 147.89,-237.08"/>
</a>
</g>
<text xml:space="preserve" text-anchor="start" x="189.25" y="-257.9" font-family="Helvetica,sans-Serif" font-size="10.00" fill="grey">&lt; ConstantExpr &gt;</text>
</g>
<!-- Node12 -->
<g id="Node000012" class="node">
<title>Node12</title>
<g id="a_Node000012"><a xlink:href="structllvm_1_1VariadicOperandTraits.html" target="_top" xlink:title=" ">
<polygon fill="white" stroke="#666666" points="467.75,-227.38 331.75,-227.38 331.75,-196.88 467.75,-196.88 467.75,-227.38"/>
<text xml:space="preserve" text-anchor="start" x="339.75" y="-213.88" font-family="Helvetica,sans-Serif" font-size="10.00">llvm::VariadicOperandTraits</text>
<text xml:space="preserve" text-anchor="middle" x="399.75" y="-202.63" font-family="Helvetica,sans-Serif" font-size="10.00">&lt; FuncletPadInst &gt;</text>
</a>
</g>
</g>
<!-- Node1&#45;&gt;Node12 -->
<g id="edge11_Node000001_Node000012" class="edge">
<title>Node1&#45;&gt;Node12</title>
<g id="a_edge11_Node000001_Node000012"><a xlink:title=" ">
<path fill="none" stroke="orange" stroke-dasharray="5,2" d="M147.38,-219.62C149.61,-219.36 151.82,-219.11 154,-218.88 213.73,-212.74 282.05,-211.32 331.31,-211.28"/>
<polygon fill="orange" stroke="orange" points="147.09,-216.13 137.65,-220.93 148.02,-223.07 147.09,-216.13"/>
</a>
</g>
<text xml:space="preserve" text-anchor="start" x="186.25" y="-223.63" font-family="Helvetica,sans-Serif" font-size="10.00" fill="grey">&lt; FuncletPadInst &gt;</text>
</g>
<!-- Node14 -->
<g id="Node000014" class="node">
<title>Node14</title>
<g id="a_Node000014"><a xlink:href="structllvm_1_1VariadicOperandTraits.html" target="_top" xlink:title=" ">
<polygon fill="white" stroke="#666666" points="467.75,-178.38 331.75,-178.38 331.75,-147.88 467.75,-147.88 467.75,-178.38"/>
<text xml:space="preserve" text-anchor="start" x="339.75" y="-164.88" font-family="Helvetica,sans-Serif" font-size="10.00">llvm::VariadicOperandTraits</text>
<text xml:space="preserve" text-anchor="middle" x="399.75" y="-153.63" font-family="Helvetica,sans-Serif" font-size="10.00">&lt; GEPOperator &gt;</text>
</a>
</g>
</g>
<!-- Node1&#45;&gt;Node14 -->
<g id="edge13_Node000001_Node000014" class="edge">
<title>Node1&#45;&gt;Node14</title>
<g id="a_edge13_Node000001_Node000014"><a xlink:title=" ">
<path fill="none" stroke="orange" stroke-dasharray="5,2" d="M103.11,-212.67C118.17,-204.19 136.41,-195.22 154,-189.88 212.29,-172.21 281.52,-165.92 331.45,-163.82"/>
<polygon fill="orange" stroke="orange" points="101.44,-209.59 94.56,-217.65 104.96,-215.64 101.44,-209.59"/>
</a>
</g>
<text xml:space="preserve" text-anchor="start" x="190" y="-194.63" font-family="Helvetica,sans-Serif" font-size="10.00" fill="grey">&lt; GEPOperator &gt;</text>
</g>
<!-- Node16 -->
<g id="Node000016" class="node">
<title>Node16</title>
<g id="a_Node000016"><a xlink:href="structllvm_1_1VariadicOperandTraits.html" target="_top" xlink:title=" ">
<polygon fill="white" stroke="#666666" points="479,-129.38 320.5,-129.38 320.5,-98.88 479,-98.88 479,-129.38"/>
<text xml:space="preserve" text-anchor="start" x="328.5" y="-115.88" font-family="Helvetica,sans-Serif" font-size="10.00">llvm::VariadicOperandTraits</text>
<text xml:space="preserve" text-anchor="middle" x="399.75" y="-104.63" font-family="Helvetica,sans-Serif" font-size="10.00">&lt; GetElementPtrConstantExpr &gt;</text>
</a>
</g>
</g>
<!-- Node1&#45;&gt;Node16 -->
<g id="edge15_Node000001_Node000016" class="edge">
<title>Node1&#45;&gt;Node16</title>
<g id="a_edge15_Node000001_Node000016"><a xlink:title=" ">
<path fill="none" stroke="orange" stroke-dasharray="5,2" d="M85.33,-209.14C100.46,-188.23 124.98,-159.53 154,-144.88 205.33,-118.98 270.13,-111.79 320.16,-110.81"/>
<polygon fill="orange" stroke="orange" points="82.58,-206.96 79.73,-217.16 88.32,-210.96 82.58,-206.96"/>
</a>
</g>
<text xml:space="preserve" text-anchor="start" x="157" y="-149.63" font-family="Helvetica,sans-Serif" font-size="10.00" fill="grey">&lt; GetElementPtrConstantExpr &gt;</text>
</g>
<!-- Node18 -->
<g id="Node000018" class="node">
<title>Node18</title>
<g id="a_Node000018"><a xlink:href="structllvm_1_1VariadicOperandTraits.html" target="_top" xlink:title=" ">
<polygon fill="white" stroke="#666666" points="467.75,-80.38 331.75,-80.38 331.75,-49.88 467.75,-49.88 467.75,-80.38"/>
<text xml:space="preserve" text-anchor="start" x="339.75" y="-66.88" font-family="Helvetica,sans-Serif" font-size="10.00">llvm::VariadicOperandTraits</text>
<text xml:space="preserve" text-anchor="middle" x="399.75" y="-55.63" font-family="Helvetica,sans-Serif" font-size="10.00">&lt; GetElementPtrInst &gt;</text>
</a>
</g>
</g>
<!-- Node1&#45;&gt;Node18 -->
<g id="edge17_Node000001_Node000018" class="edge">
<title>Node1&#45;&gt;Node18</title>
<g id="a_edge17_Node000001_Node000018"><a xlink:title=" ">
<path fill="none" stroke="orange" stroke-dasharray="5,2" d="M76.38,-207.86C87.33,-174.28 111.3,-117.22 154,-89.88 206.6,-56.2 278.98,-52.92 331.37,-56.31"/>
<polygon fill="orange" stroke="orange" points="73.1,-206.64 73.49,-217.22 79.79,-208.7 73.1,-206.64"/>
</a>
</g>
<text xml:space="preserve" text-anchor="start" x="178.75" y="-94.63" font-family="Helvetica,sans-Serif" font-size="10.00" fill="grey">&lt; GetElementPtrInst &gt;</text>
</g>
<!-- Node20 -->
<g id="Node000020" class="node">
<title>Node20</title>
<g id="a_Node000020"><a xlink:href="structllvm_1_1VariadicOperandTraits.html" target="_top" xlink:title=" ">
<polygon fill="white" stroke="#666666" points="467.75,-31.38 331.75,-31.38 331.75,-0.88 467.75,-0.88 467.75,-31.38"/>
<text xml:space="preserve" text-anchor="start" x="339.75" y="-17.88" font-family="Helvetica,sans-Serif" font-size="10.00">llvm::VariadicOperandTraits</text>
<text xml:space="preserve" text-anchor="middle" x="399.75" y="-6.63" font-family="Helvetica,sans-Serif" font-size="10.00">&lt; ReturnInst &gt;</text>
</a>
</g>
</g>
<!-- Node1&#45;&gt;Node20 -->
<g id="edge19_Node000001_Node000020" class="edge">
<title>Node1&#45;&gt;Node20</title>
<g id="a_edge19_Node000001_Node000020"><a xlink:title=" ">
<path fill="none" stroke="orange" stroke-dasharray="5,2" d="M71.68,-207.23C77.69,-162.81 96.58,-74.95 154,-33.88 205.02,2.61 278.33,3 331.4,-3.26"/>
<polygon fill="orange" stroke="orange" points="68.23,-206.68 70.49,-217.03 75.17,-207.53 68.23,-206.68"/>
</a>
</g>
<text xml:space="preserve" text-anchor="start" x="196.38" y="-38.63" font-family="Helvetica,sans-Serif" font-size="10.00" fill="grey">&lt; ReturnInst &gt;</text>
</g>
<!-- Node3 -->
<g id="Node000003" class="node">
<title>Node3</title>
<g id="a_Node000003"><a xlink:href="structllvm_1_1OperandTraits_3_01BranchInst_01_4.html" target="_top" xlink:title=" ">
<polygon fill="white" stroke="#666666" points="646,-472.38 544.5,-472.38 544.5,-441.88 646,-441.88 646,-472.38"/>
<text xml:space="preserve" text-anchor="start" x="552.5" y="-458.88" font-family="Helvetica,sans-Serif" font-size="10.00">llvm::OperandTraits</text>
<text xml:space="preserve" text-anchor="middle" x="595.25" y="-447.63" font-family="Helvetica,sans-Serif" font-size="10.00">&lt; BranchInst &gt;</text>
</a>
</g>
</g>
<!-- Node2&#45;&gt;Node3 -->
<g id="edge2_Node000002_Node000003" class="edge">
<title>Node2&#45;&gt;Node3</title>
<g id="a_edge2_Node000002_Node000003"><a xlink:title=" ">
<path fill="none" stroke="#63b8ff" d="M479.44,-457.13C501.3,-457.13 524.43,-457.13 544.16,-457.13"/>
<polygon fill="#63b8ff" stroke="#63b8ff" points="479.67,-453.63 469.67,-457.13 479.67,-460.63 479.67,-453.63"/>
</a>
</g>
</g>
<!-- Node5 -->
<g id="Node000005" class="node">
<title>Node5</title>
<g id="a_Node000005"><a xlink:href="structllvm_1_1OperandTraits_3_01CallBase_01_4.html" target="_top" xlink:title=" ">
<polygon fill="white" stroke="#666666" points="646,-423.38 544.5,-423.38 544.5,-392.88 646,-392.88 646,-423.38"/>
<text xml:space="preserve" text-anchor="start" x="552.5" y="-409.88" font-family="Helvetica,sans-Serif" font-size="10.00">llvm::OperandTraits</text>
<text xml:space="preserve" text-anchor="middle" x="595.25" y="-398.63" font-family="Helvetica,sans-Serif" font-size="10.00">&lt; CallBase &gt;</text>
</a>
</g>
</g>
<!-- Node4&#45;&gt;Node5 -->
<g id="edge4_Node000004_Node000005" class="edge">
<title>Node4&#45;&gt;Node5</title>
<g id="a_edge4_Node000004_Node000005"><a xlink:title=" ">
<path fill="none" stroke="#63b8ff" d="M479.44,-408.13C501.3,-408.13 524.43,-408.13 544.16,-408.13"/>
<polygon fill="#63b8ff" stroke="#63b8ff" points="479.67,-404.63 469.67,-408.13 479.67,-411.63 479.67,-404.63"/>
</a>
</g>
</g>
<!-- Node7 -->
<g id="Node000007" class="node">
<title>Node7</title>
<g id="a_Node000007"><a xlink:href="structllvm_1_1OperandTraits_3_01CleanupReturnInst_01_4.html" target="_top" xlink:title=" ">
<polygon fill="white" stroke="#666666" points="653.12,-374.38 537.38,-374.38 537.38,-343.88 653.12,-343.88 653.12,-374.38"/>
<text xml:space="preserve" text-anchor="start" x="545.38" y="-360.88" font-family="Helvetica,sans-Serif" font-size="10.00">llvm::OperandTraits</text>
<text xml:space="preserve" text-anchor="middle" x="595.25" y="-349.63" font-family="Helvetica,sans-Serif" font-size="10.00">&lt; CleanupReturnInst &gt;</text>
</a>
</g>
</g>
<!-- Node6&#45;&gt;Node7 -->
<g id="edge6_Node000006_Node000007" class="edge">
<title>Node6&#45;&gt;Node7</title>
<g id="a_edge6_Node000006_Node000007"><a xlink:title=" ">
<path fill="none" stroke="#63b8ff" d="M479.65,-359.13C498.87,-359.13 519.06,-359.13 537.04,-359.13"/>
<polygon fill="#63b8ff" stroke="#63b8ff" points="479.67,-355.63 469.67,-359.13 479.67,-362.63 479.67,-355.63"/>
</a>
</g>
</g>
<!-- Node9 -->
<g id="Node000009" class="node">
<title>Node9</title>
<g id="a_Node000009"><a xlink:href="structllvm_1_1OperandTraits_3_01ConstantAggregate_01_4.html" target="_top" xlink:title=" ">
<polygon fill="white" stroke="#666666" points="654.25,-325.38 536.25,-325.38 536.25,-294.88 654.25,-294.88 654.25,-325.38"/>
<text xml:space="preserve" text-anchor="start" x="544.25" y="-311.88" font-family="Helvetica,sans-Serif" font-size="10.00">llvm::OperandTraits</text>
<text xml:space="preserve" text-anchor="middle" x="595.25" y="-300.63" font-family="Helvetica,sans-Serif" font-size="10.00">&lt; ConstantAggregate &gt;</text>
</a>
</g>
</g>
<!-- Node8&#45;&gt;Node9 -->
<g id="edge8_Node000008_Node000009" class="edge">
<title>Node8&#45;&gt;Node9</title>
<g id="a_edge8_Node000008_Node000009"><a xlink:title=" ">
<path fill="none" stroke="#63b8ff" d="M479.42,-310.13C498.26,-310.13 518.04,-310.13 535.78,-310.13"/>
<polygon fill="#63b8ff" stroke="#63b8ff" points="479.67,-306.63 469.67,-310.13 479.67,-313.63 479.67,-306.63"/>
</a>
</g>
</g>
<!-- Node11 -->
<g id="Node000011" class="node">
<title>Node11</title>
<g id="a_Node000011"><a xlink:href="structllvm_1_1OperandTraits_3_01ConstantExpr_01_4.html" target="_top" xlink:title=" ">
<polygon fill="white" stroke="#666666" points="646,-276.38 544.5,-276.38 544.5,-245.88 646,-245.88 646,-276.38"/>
<text xml:space="preserve" text-anchor="start" x="552.5" y="-262.88" font-family="Helvetica,sans-Serif" font-size="10.00">llvm::OperandTraits</text>
<text xml:space="preserve" text-anchor="middle" x="595.25" y="-251.63" font-family="Helvetica,sans-Serif" font-size="10.00">&lt; ConstantExpr &gt;</text>
</a>
</g>
</g>
<!-- Node10&#45;&gt;Node11 -->
<g id="edge10_Node000010_Node000011" class="edge">
<title>Node10&#45;&gt;Node11</title>
<g id="a_edge10_Node000010_Node000011"><a xlink:title=" ">
<path fill="none" stroke="#63b8ff" d="M479.44,-261.13C501.3,-261.13 524.43,-261.13 544.16,-261.13"/>
<polygon fill="#63b8ff" stroke="#63b8ff" points="479.67,-257.63 469.67,-261.13 479.67,-264.63 479.67,-257.63"/>
</a>
</g>
</g>
<!-- Node13 -->
<g id="Node000013" class="node">
<title>Node13</title>
<g id="a_Node000013"><a xlink:href="structllvm_1_1OperandTraits_3_01FuncletPadInst_01_4.html" target="_top" xlink:title=" ">
<polygon fill="white" stroke="#666666" points="646,-227.38 544.5,-227.38 544.5,-196.88 646,-196.88 646,-227.38"/>
<text xml:space="preserve" text-anchor="start" x="552.5" y="-213.88" font-family="Helvetica,sans-Serif" font-size="10.00">llvm::OperandTraits</text>
<text xml:space="preserve" text-anchor="middle" x="595.25" y="-202.63" font-family="Helvetica,sans-Serif" font-size="10.00">&lt; FuncletPadInst &gt;</text>
</a>
</g>
</g>
<!-- Node12&#45;&gt;Node13 -->
<g id="edge12_Node000012_Node000013" class="edge">
<title>Node12&#45;&gt;Node13</title>
<g id="a_edge12_Node000012_Node000013"><a xlink:title=" ">
<path fill="none" stroke="#63b8ff" d="M479.44,-212.13C501.3,-212.13 524.43,-212.13 544.16,-212.13"/>
<polygon fill="#63b8ff" stroke="#63b8ff" points="479.67,-208.63 469.67,-212.13 479.67,-215.63 479.67,-208.63"/>
</a>
</g>
</g>
<!-- Node15 -->
<g id="Node000015" class="node">
<title>Node15</title>
<g id="a_Node000015"><a xlink:href="structllvm_1_1OperandTraits_3_01GEPOperator_01_4.html" target="_top" xlink:title=" ">
<polygon fill="white" stroke="#666666" points="646,-178.38 544.5,-178.38 544.5,-147.88 646,-147.88 646,-178.38"/>
<text xml:space="preserve" text-anchor="start" x="552.5" y="-164.88" font-family="Helvetica,sans-Serif" font-size="10.00">llvm::OperandTraits</text>
<text xml:space="preserve" text-anchor="middle" x="595.25" y="-153.63" font-family="Helvetica,sans-Serif" font-size="10.00">&lt; GEPOperator &gt;</text>
</a>
</g>
</g>
<!-- Node14&#45;&gt;Node15 -->
<g id="edge14_Node000014_Node000015" class="edge">
<title>Node14&#45;&gt;Node15</title>
<g id="a_edge14_Node000014_Node000015"><a xlink:title=" ">
<path fill="none" stroke="#63b8ff" d="M479.44,-163.13C501.3,-163.13 524.43,-163.13 544.16,-163.13"/>
<polygon fill="#63b8ff" stroke="#63b8ff" points="479.67,-159.63 469.67,-163.13 479.67,-166.63 479.67,-159.63"/>
</a>
</g>
</g>
<!-- Node17 -->
<g id="Node000017" class="node">
<title>Node17</title>
<g id="a_Node000017"><a xlink:href="structllvm_1_1OperandTraits_3_01GetElementPtrConstantExpr_01_4.html" target="_top" xlink:title=" ">
<polygon fill="white" stroke="#666666" points="674.5,-129.38 516,-129.38 516,-98.88 674.5,-98.88 674.5,-129.38"/>
<text xml:space="preserve" text-anchor="start" x="524" y="-115.88" font-family="Helvetica,sans-Serif" font-size="10.00">llvm::OperandTraits</text>
<text xml:space="preserve" text-anchor="middle" x="595.25" y="-104.63" font-family="Helvetica,sans-Serif" font-size="10.00">&lt; GetElementPtrConstantExpr &gt;</text>
</a>
</g>
</g>
<!-- Node16&#45;&gt;Node17 -->
<g id="edge16_Node000016_Node000017" class="edge">
<title>Node16&#45;&gt;Node17</title>
<g id="a_edge16_Node000016_Node000017"><a xlink:title=" ">
<path fill="none" stroke="#63b8ff" d="M490.72,-114.13C499.04,-114.13 507.42,-114.13 515.62,-114.13"/>
<polygon fill="#63b8ff" stroke="#63b8ff" points="490.97,-110.63 480.97,-114.13 490.97,-117.63 490.97,-110.63"/>
</a>
</g>
</g>
<!-- Node19 -->
<g id="Node000019" class="node">
<title>Node19</title>
<g id="a_Node000019"><a xlink:href="structllvm_1_1OperandTraits_3_01GetElementPtrInst_01_4.html" target="_top" xlink:title=" ">
<polygon fill="white" stroke="#666666" points="652.75,-80.38 537.75,-80.38 537.75,-49.88 652.75,-49.88 652.75,-80.38"/>
<text xml:space="preserve" text-anchor="start" x="545.75" y="-66.88" font-family="Helvetica,sans-Serif" font-size="10.00">llvm::OperandTraits</text>
<text xml:space="preserve" text-anchor="middle" x="595.25" y="-55.63" font-family="Helvetica,sans-Serif" font-size="10.00">&lt; GetElementPtrInst &gt;</text>
</a>
</g>
</g>
<!-- Node18&#45;&gt;Node19 -->
<g id="edge18_Node000018_Node000019" class="edge">
<title>Node18&#45;&gt;Node19</title>
<g id="a_edge18_Node000018_Node000019"><a xlink:title=" ">
<path fill="none" stroke="#63b8ff" d="M479.43,-65.13C498.83,-65.13 519.22,-65.13 537.36,-65.13"/>
<polygon fill="#63b8ff" stroke="#63b8ff" points="479.67,-61.63 469.67,-65.13 479.67,-68.63 479.67,-61.63"/>
</a>
</g>
</g>
<!-- Node21 -->
<g id="Node000021" class="node">
<title>Node21</title>
<g id="a_Node000021"><a xlink:href="structllvm_1_1OperandTraits_3_01ReturnInst_01_4.html" target="_top" xlink:title=" ">
<polygon fill="white" stroke="#666666" points="646,-31.38 544.5,-31.38 544.5,-0.88 646,-0.88 646,-31.38"/>
<text xml:space="preserve" text-anchor="start" x="552.5" y="-17.88" font-family="Helvetica,sans-Serif" font-size="10.00">llvm::OperandTraits</text>
<text xml:space="preserve" text-anchor="middle" x="595.25" y="-6.63" font-family="Helvetica,sans-Serif" font-size="10.00">&lt; ReturnInst &gt;</text>
</a>
</g>
</g>
<!-- Node20&#45;&gt;Node21 -->
<g id="edge20_Node000020_Node000021" class="edge">
<title>Node20&#45;&gt;Node21</title>
<g id="a_edge20_Node000020_Node000021"><a xlink:title=" ">
<path fill="none" stroke="#63b8ff" d="M479.44,-16.13C501.3,-16.13 524.43,-16.13 544.16,-16.13"/>
<polygon fill="#63b8ff" stroke="#63b8ff" points="479.67,-12.63 469.67,-16.13 479.67,-19.63 479.67,-12.63"/>
</a>
</g>
</g>
</g>
</svg>
