<?xml version="1.0" encoding="UTF-8" standalone="no"?>
<!DOCTYPE svg PUBLIC "-//W3C//DTD SVG 1.1//EN"
 "http://www.w3.org/Graphics/SVG/1.1/DTD/svg11.dtd">
<!-- Generated by graphviz version 13.1.2 (20250808.2320)
 -->
<!-- Title: llvm::GraphTraits&lt; MachineRegionInfo * &gt; Pages: 1 -->
<svg width="340pt" height="273pt"
 viewBox="0.00 0.00 340.00 273.00" xmlns="http://www.w3.org/2000/svg" xmlns:xlink="http://www.w3.org/1999/xlink">
<g id="graph0" class="graph" transform="scale(1 1) rotate(0) translate(4 268.5)">
<title>llvm::GraphTraits&lt; MachineRegionInfo * &gt;</title>
<!-- Node1 -->
<g id="Node000001" class="node">
<title>Node1</title>
<g id="a_Node000001"><a xlink:title=" ">
<polygon fill="#999999" stroke="#666666" points="151.88,-98 33.12,-98 33.12,-67.5 151.88,-67.5 151.88,-98"/>
<text xml:space="preserve" text-anchor="start" x="41.12" y="-84.5" font-family="Helvetica,sans-Serif" font-size="10.00">llvm::GraphTraits&lt;</text>
<text xml:space="preserve" text-anchor="middle" x="92.5" y="-73.25" font-family="Helvetica,sans-Serif" font-size="10.00"> MachineRegionInfo * &gt;</text>
</a>
</g>
</g>
<!-- Node4 -->
<g id="Node000004" class="node">
<title>Node4</title>
<g id="a_Node000004"><a xlink:href="structllvm_1_1GraphTraits_3_01MachineRegionInfoPass_01_5_01_4.html" target="_top" xlink:title=" ">
<polygon fill="white" stroke="#666666" points="163.12,-30.5 21.88,-30.5 21.88,0 163.12,0 163.12,-30.5"/>
<text xml:space="preserve" text-anchor="start" x="29.88" y="-17" font-family="Helvetica,sans-Serif" font-size="10.00">llvm::GraphTraits&lt;</text>
<text xml:space="preserve" text-anchor="middle" x="92.5" y="-5.75" font-family="Helvetica,sans-Serif" font-size="10.00"> MachineRegionInfoPass * &gt;</text>
</a>
</g>
</g>
<!-- Node1&#45;&gt;Node4 -->
<g id="edge4_Node000001_Node000004" class="edge">
<title>Node1&#45;&gt;Node4</title>
<g id="a_edge4_Node000001_Node000004"><a xlink:title=" ">
<path fill="none" stroke="#63b8ff" d="M92.5,-55.84C92.5,-47.3 92.5,-38.12 92.5,-30.75"/>
<polygon fill="#63b8ff" stroke="#63b8ff" points="89,-55.7 92.5,-65.7 96,-55.7 89,-55.7"/>
</a>
</g>
</g>
<!-- Node2 -->
<g id="Node000002" class="node">
<title>Node2</title>
<g id="a_Node000002"><a xlink:href="structllvm_1_1GraphTraits.html" target="_top" xlink:title=" ">
<polygon fill="white" stroke="#666666" points="331.5,-165.5 165.5,-165.5 165.5,-135 331.5,-135 331.5,-165.5"/>
<text xml:space="preserve" text-anchor="start" x="173.5" y="-152" font-family="Helvetica,sans-Serif" font-size="10.00">llvm::GraphTraits&lt;</text>
<text xml:space="preserve" text-anchor="middle" x="248.5" y="-140.75" font-family="Helvetica,sans-Serif" font-size="10.00"> FlatIt&lt; MachineRegionNode * &gt; &gt;</text>
</a>
</g>
</g>
<!-- Node2&#45;&gt;Node1 -->
<g id="edge1_Node000001_Node000002" class="edge">
<title>Node2&#45;&gt;Node1</title>
<g id="a_edge1_Node000001_Node000002"><a xlink:title=" ">
<path fill="none" stroke="#63b8ff" d="M203.14,-130.21C178.99,-120.07 149.75,-107.79 127.39,-98.4"/>
<polygon fill="#63b8ff" stroke="#63b8ff" points="201.52,-133.32 212.1,-133.96 204.23,-126.87 201.52,-133.32"/>
</a>
</g>
</g>
<!-- Node3 -->
<g id="Node000003" class="node">
<title>Node3</title>
<g id="a_Node000003"><a xlink:href="structllvm_1_1GraphTraits.html" target="_top" xlink:title=" ">
<polygon fill="white" stroke="#666666" points="97,-264.5 0,-264.5 0,-234 97,-234 97,-264.5"/>
<text xml:space="preserve" text-anchor="start" x="8" y="-251" font-family="Helvetica,sans-Serif" font-size="10.00">llvm::GraphTraits&lt;</text>
<text xml:space="preserve" text-anchor="middle" x="48.5" y="-239.75" font-family="Helvetica,sans-Serif" font-size="10.00"> GraphType &gt;</text>
</a>
</g>
</g>
<!-- Node3&#45;&gt;Node1 -->
<g id="edge3_Node000001_Node000003" class="edge">
<title>Node3&#45;&gt;Node1</title>
<g id="a_edge3_Node000001_Node000003"><a xlink:title=" ">
<path fill="none" stroke="orange" stroke-dasharray="5,2" d="M40.83,-222.78C35.1,-199.11 30.08,-163.36 41.75,-135 47.8,-120.29 60.34,-107.56 71.44,-98.47"/>
<polygon fill="orange" stroke="orange" points="37.38,-223.41 43.33,-232.18 44.14,-221.62 37.38,-223.41"/>
</a>
</g>
<text xml:space="preserve" text-anchor="start" x="44.75" y="-146.38" font-family="Helvetica,sans-Serif" font-size="10.00" fill="grey">&lt; MachineRegionInfo * &gt;</text>
</g>
<!-- Node3&#45;&gt;Node2 -->
<g id="edge2_Node000002_Node000003" class="edge">
<title>Node3&#45;&gt;Node2</title>
<g id="a_edge2_Node000002_Node000003"><a xlink:title=" ">
<path fill="none" stroke="orange" stroke-dasharray="5,2" d="M89.14,-228.54C127.37,-210 183.72,-182.67 218.17,-165.96"/>
<polygon fill="orange" stroke="orange" points="87.71,-225.34 80.24,-232.86 90.76,-231.64 87.71,-225.34"/>
</a>
</g>
<text xml:space="preserve" text-anchor="start" x="181.1" y="-203.5" font-family="Helvetica,sans-Serif" font-size="10.00" fill="grey">&lt; FlatIt&lt; MachineRegionNode</text>
<text xml:space="preserve" text-anchor="start" x="181.1" y="-188.25" font-family="Helvetica,sans-Serif" font-size="10.00" fill="grey">   * &gt; &gt;</text>
</g>
</g>
</svg>
