<?xml version="1.0" encoding="UTF-8" standalone="no"?>
<!DOCTYPE svg PUBLIC "-//W3C//DTD SVG 1.1//EN"
 "http://www.w3.org/Graphics/SVG/1.1/DTD/svg11.dtd">
<!-- Generated by graphviz version 13.1.2 (20250808.2320)
 -->
<!-- Title: llvm::GraphTraits&lt; const CallGraphNode * &gt; Pages: 1 -->
<svg width="254pt" height="190pt"
 viewBox="0.00 0.00 254.00 190.00" xmlns="http://www.w3.org/2000/svg" xmlns:xlink="http://www.w3.org/1999/xlink">
<g id="graph0" class="graph" transform="scale(1 1) rotate(0) translate(4 185.75)">
<title>llvm::GraphTraits&lt; const CallGraphNode * &gt;</title>
<!-- Node1 -->
<g id="Node000001" class="node">
<title>Node1</title>
<g id="a_Node000001"><a xlink:title=" ">
<polygon fill="#999999" stroke="#666666" points="186.12,-98 57.62,-98 57.62,-67.5 186.12,-67.5 186.12,-98"/>
<text xml:space="preserve" text-anchor="start" x="65.62" y="-84.5" font-family="Helvetica,sans-Serif" font-size="10.00">llvm::GraphTraits&lt;</text>
<text xml:space="preserve" text-anchor="middle" x="121.88" y="-73.25" font-family="Helvetica,sans-Serif" font-size="10.00"> const CallGraphNode * &gt;</text>
</a>
</g>
</g>
<!-- Node3 -->
<g id="Node000003" class="node">
<title>Node3</title>
<g id="a_Node000003"><a xlink:href="structllvm_1_1GraphTraits_3_01CallGraphDOTInfo_01_5_01_4.html" target="_top" xlink:title=" ">
<polygon fill="white" stroke="#666666" points="115.75,-30.5 0,-30.5 0,0 115.75,0 115.75,-30.5"/>
<text xml:space="preserve" text-anchor="start" x="8" y="-17" font-family="Helvetica,sans-Serif" font-size="10.00">llvm::GraphTraits&lt;</text>
<text xml:space="preserve" text-anchor="middle" x="57.88" y="-5.75" font-family="Helvetica,sans-Serif" font-size="10.00"> CallGraphDOTInfo * &gt;</text>
</a>
</g>
</g>
<!-- Node1&#45;&gt;Node3 -->
<g id="edge2_Node000001_Node000003" class="edge">
<title>Node1&#45;&gt;Node3</title>
<g id="a_edge2_Node000001_Node000003"><a xlink:title=" ">
<path fill="none" stroke="#63b8ff" d="M99.68,-59.04C90.51,-49.65 80.15,-39.05 72.04,-30.75"/>
<polygon fill="#63b8ff" stroke="#63b8ff" points="97.12,-61.42 106.61,-66.13 102.13,-56.53 97.12,-61.42"/>
</a>
</g>
</g>
<!-- Node4 -->
<g id="Node000004" class="node">
<title>Node4</title>
<g id="a_Node000004"><a xlink:href="structllvm_1_1GraphTraits_3_01const_01CallGraph_01_5_01_4.html" target="_top" xlink:title=" ">
<polygon fill="white" stroke="#666666" points="239.5,-30.5 134.25,-30.5 134.25,0 239.5,0 239.5,-30.5"/>
<text xml:space="preserve" text-anchor="start" x="142.25" y="-17" font-family="Helvetica,sans-Serif" font-size="10.00">llvm::GraphTraits&lt;</text>
<text xml:space="preserve" text-anchor="middle" x="186.88" y="-5.75" font-family="Helvetica,sans-Serif" font-size="10.00"> const CallGraph * &gt;</text>
</a>
</g>
</g>
<!-- Node1&#45;&gt;Node4 -->
<g id="edge3_Node000001_Node000004" class="edge">
<title>Node1&#45;&gt;Node4</title>
<g id="a_edge3_Node000001_Node000004"><a xlink:title=" ">
<path fill="none" stroke="#63b8ff" d="M144.13,-59.32C153.51,-49.87 164.17,-39.13 172.49,-30.75"/>
<polygon fill="#63b8ff" stroke="#63b8ff" points="141.93,-56.58 137.37,-66.14 146.9,-61.51 141.93,-56.58"/>
</a>
</g>
</g>
<!-- Node2 -->
<g id="Node000002" class="node">
<title>Node2</title>
<g id="a_Node000002"><a xlink:href="structllvm_1_1GraphTraits.html" target="_top" xlink:title=" ">
<polygon fill="white" stroke="#666666" points="170.38,-181.75 73.38,-181.75 73.38,-151.25 170.38,-151.25 170.38,-181.75"/>
<text xml:space="preserve" text-anchor="start" x="81.38" y="-168.25" font-family="Helvetica,sans-Serif" font-size="10.00">llvm::GraphTraits&lt;</text>
<text xml:space="preserve" text-anchor="middle" x="121.88" y="-157" font-family="Helvetica,sans-Serif" font-size="10.00"> GraphType &gt;</text>
</a>
</g>
</g>
<!-- Node2&#45;&gt;Node1 -->
<g id="edge1_Node000001_Node000002" class="edge">
<title>Node2&#45;&gt;Node1</title>
<g id="a_edge1_Node000001_Node000002"><a xlink:title=" ">
<path fill="none" stroke="orange" stroke-dasharray="5,2" d="M121.88,-139.72C121.88,-126.03 121.88,-109.71 121.88,-98.24"/>
<polygon fill="orange" stroke="orange" points="118.38,-139.37 121.88,-149.37 125.38,-139.37 118.38,-139.37"/>
</a>
</g>
<text xml:space="preserve" text-anchor="start" x="124.88" y="-120.75" font-family="Helvetica,sans-Serif" font-size="10.00" fill="grey">&lt; const CallGraphNode * &gt;</text>
</g>
</g>
</svg>
