<?xml version="1.0" encoding="UTF-8" standalone="no"?>
<!DOCTYPE svg PUBLIC "-//W3C//DTD SVG 1.1//EN"
 "http://www.w3.org/Graphics/SVG/1.1/DTD/svg11.dtd">
<!-- Generated by graphviz version 13.1.2 (20250808.2320)
 -->
<!-- Title: llvm::DOTGraphTraitsViewer&lt; AnalysisT, IsSimple, GraphT, AnalysisGraphTraitsT &gt; Pages: 1 -->
<svg width="793pt" height="237pt"
 viewBox="0.00 0.00 793.00 237.00" xmlns="http://www.w3.org/2000/svg" xmlns:xlink="http://www.w3.org/1999/xlink">
<g id="graph0" class="graph" transform="scale(1 1) rotate(0) translate(4 232.79)">
<title>llvm::DOTGraphTraitsViewer&lt; AnalysisT, IsSimple, GraphT, AnalysisGraphTraitsT &gt;</title>
<!-- Node1 -->
<g id="Node000001" class="node">
<title>Node1</title>
<g id="a_Node000001"><a xlink:title=" ">
<polygon fill="#999999" stroke="#666666" points="289.5,-130.75 139.25,-130.75 139.25,-89 289.5,-89 289.5,-130.75"/>
<text xml:space="preserve" text-anchor="start" x="147.25" y="-117.25" font-family="Helvetica,sans-Serif" font-size="10.00">llvm::DOTGraphTraitsViewer</text>
<text xml:space="preserve" text-anchor="start" x="147.25" y="-106" font-family="Helvetica,sans-Serif" font-size="10.00">&lt; AnalysisT, IsSimple, GraphT,</text>
<text xml:space="preserve" text-anchor="middle" x="214.38" y="-94.75" font-family="Helvetica,sans-Serif" font-size="10.00"> AnalysisGraphTraitsT &gt;</text>
</a>
</g>
</g>
<!-- Node3 -->
<g id="Node000003" class="node">
<title>Node3</title>
<g id="a_Node000003"><a xlink:href="structllvm_1_1DOTGraphTraitsViewer.html" target="_top" xlink:title=" ">
<polygon fill="white" stroke="#666666" points="611.88,-221.75 469.88,-221.75 469.88,-180 611.88,-180 611.88,-221.75"/>
<text xml:space="preserve" text-anchor="start" x="477.88" y="-208.25" font-family="Helvetica,sans-Serif" font-size="10.00">llvm::DOTGraphTraitsViewer</text>
<text xml:space="preserve" text-anchor="start" x="477.88" y="-197" font-family="Helvetica,sans-Serif" font-size="10.00">&lt; DominatorTreeAnalysis,</text>
<text xml:space="preserve" text-anchor="middle" x="540.88" y="-185.75" font-family="Helvetica,sans-Serif" font-size="10.00"> true &gt;</text>
</a>
</g>
</g>
<!-- Node1&#45;&gt;Node3 -->
<g id="edge2_Node000001_Node000003" class="edge">
<title>Node1&#45;&gt;Node3</title>
<g id="a_edge2_Node000001_Node000003"><a xlink:title=" ">
<path fill="none" stroke="orange" stroke-dasharray="5,2" d="M251.52,-137.61C267.8,-148.75 287.77,-160.64 307.5,-167.88 359.72,-187.02 422.32,-195.13 469.38,-198.53"/>
<polygon fill="orange" stroke="orange" points="253.82,-134.95 243.63,-132.05 249.79,-140.67 253.82,-134.95"/>
</a>
</g>
<text xml:space="preserve" text-anchor="start" x="320.62" y="-216.29" font-family="Helvetica,sans-Serif" font-size="10.00" fill="grey">&lt; DominatorTreeAnalysis,</text>
<text xml:space="preserve" text-anchor="start" x="320.62" y="-201.04" font-family="Helvetica,sans-Serif" font-size="10.00" fill="grey">   true &gt;</text>
</g>
<!-- Node5 -->
<g id="Node000005" class="node">
<title>Node5</title>
<g id="a_Node000005"><a xlink:href="structllvm_1_1DOTGraphTraitsViewer.html" target="_top" xlink:title=" ">
<polygon fill="white" stroke="#666666" points="611.88,-161.75 469.88,-161.75 469.88,-120 611.88,-120 611.88,-161.75"/>
<text xml:space="preserve" text-anchor="start" x="477.88" y="-148.25" font-family="Helvetica,sans-Serif" font-size="10.00">llvm::DOTGraphTraitsViewer</text>
<text xml:space="preserve" text-anchor="start" x="477.88" y="-137" font-family="Helvetica,sans-Serif" font-size="10.00">&lt; DominatorTreeAnalysis,</text>
<text xml:space="preserve" text-anchor="middle" x="540.88" y="-125.75" font-family="Helvetica,sans-Serif" font-size="10.00"> false &gt;</text>
</a>
</g>
</g>
<!-- Node1&#45;&gt;Node5 -->
<g id="edge4_Node000001_Node000005" class="edge">
<title>Node1&#45;&gt;Node5</title>
<g id="a_edge4_Node000001_Node000005"><a xlink:title=" ">
<path fill="none" stroke="orange" stroke-dasharray="5,2" d="M301.14,-118.07C353.63,-123.08 419.97,-129.42 469.39,-134.14"/>
<polygon fill="orange" stroke="orange" points="301.62,-114.6 291.33,-117.13 300.95,-121.57 301.62,-114.6"/>
</a>
</g>
<text xml:space="preserve" text-anchor="start" x="320.62" y="-151.71" font-family="Helvetica,sans-Serif" font-size="10.00" fill="grey">&lt; DominatorTreeAnalysis,</text>
<text xml:space="preserve" text-anchor="start" x="320.62" y="-136.46" font-family="Helvetica,sans-Serif" font-size="10.00" fill="grey">   false &gt;</text>
</g>
<!-- Node7 -->
<g id="Node000007" class="node">
<title>Node7</title>
<g id="a_Node000007"><a xlink:href="structllvm_1_1DOTGraphTraitsViewer.html" target="_top" xlink:title=" ">
<polygon fill="white" stroke="#666666" points="616,-101.75 465.75,-101.75 465.75,-60 616,-60 616,-101.75"/>
<text xml:space="preserve" text-anchor="start" x="473.75" y="-88.25" font-family="Helvetica,sans-Serif" font-size="10.00">llvm::DOTGraphTraitsViewer</text>
<text xml:space="preserve" text-anchor="start" x="473.75" y="-77" font-family="Helvetica,sans-Serif" font-size="10.00">&lt; PostDominatorTreeAnalysis,</text>
<text xml:space="preserve" text-anchor="middle" x="540.88" y="-65.75" font-family="Helvetica,sans-Serif" font-size="10.00"> true &gt;</text>
</a>
</g>
</g>
<!-- Node1&#45;&gt;Node7 -->
<g id="edge6_Node000001_Node000007" class="edge">
<title>Node1&#45;&gt;Node7</title>
<g id="a_edge6_Node000001_Node000007"><a xlink:title=" ">
<path fill="none" stroke="orange" stroke-dasharray="5,2" d="M300.52,-86.46C302.87,-86.06 305.2,-85.7 307.5,-85.38 359.94,-78 419.69,-77.01 465.47,-77.79"/>
<polygon fill="orange" stroke="orange" points="300.15,-82.97 290.96,-88.25 301.44,-89.85 300.15,-82.97"/>
</a>
</g>
<text xml:space="preserve" text-anchor="start" x="310.5" y="-105.38" font-family="Helvetica,sans-Serif" font-size="10.00" fill="grey">&lt; PostDominatorTreeAnalysis,</text>
<text xml:space="preserve" text-anchor="start" x="310.5" y="-90.12" font-family="Helvetica,sans-Serif" font-size="10.00" fill="grey">   true &gt;</text>
</g>
<!-- Node9 -->
<g id="Node000009" class="node">
<title>Node9</title>
<g id="a_Node000009"><a xlink:href="structllvm_1_1DOTGraphTraitsViewer.html" target="_top" xlink:title=" ">
<polygon fill="white" stroke="#666666" points="616,-41.75 465.75,-41.75 465.75,0 616,0 616,-41.75"/>
<text xml:space="preserve" text-anchor="start" x="473.75" y="-28.25" font-family="Helvetica,sans-Serif" font-size="10.00">llvm::DOTGraphTraitsViewer</text>
<text xml:space="preserve" text-anchor="start" x="473.75" y="-17" font-family="Helvetica,sans-Serif" font-size="10.00">&lt; PostDominatorTreeAnalysis,</text>
<text xml:space="preserve" text-anchor="middle" x="540.88" y="-5.75" font-family="Helvetica,sans-Serif" font-size="10.00"> false &gt;</text>
</a>
</g>
</g>
<!-- Node1&#45;&gt;Node9 -->
<g id="edge8_Node000001_Node000009" class="edge">
<title>Node1&#45;&gt;Node9</title>
<g id="a_edge8_Node000001_Node000009"><a xlink:title=" ">
<path fill="none" stroke="orange" stroke-dasharray="5,2" d="M245.04,-81.15C261.95,-66.6 284.34,-50.19 307.5,-41.38 357.84,-22.21 418.6,-17.43 465.36,-17.26"/>
<polygon fill="orange" stroke="orange" points="243.01,-78.27 237.85,-87.53 247.65,-83.51 243.01,-78.27"/>
</a>
</g>
<text xml:space="preserve" text-anchor="start" x="310.5" y="-61.38" font-family="Helvetica,sans-Serif" font-size="10.00" fill="grey">&lt; PostDominatorTreeAnalysis,</text>
<text xml:space="preserve" text-anchor="start" x="310.5" y="-46.12" font-family="Helvetica,sans-Serif" font-size="10.00" fill="grey">   false &gt;</text>
</g>
<!-- Node2 -->
<g id="Node000002" class="node">
<title>Node2</title>
<g id="a_Node000002"><a xlink:href="structllvm_1_1PassInfoMixin.html" target="_top" xlink:title="A CRTP mix&#45;in to automatically provide informational APIs needed for passes.">
<polygon fill="white" stroke="#666666" points="102.25,-125.12 0,-125.12 0,-94.62 102.25,-94.62 102.25,-125.12"/>
<text xml:space="preserve" text-anchor="start" x="8" y="-111.62" font-family="Helvetica,sans-Serif" font-size="10.00">llvm::PassInfoMixin</text>
<text xml:space="preserve" text-anchor="middle" x="51.12" y="-100.38" font-family="Helvetica,sans-Serif" font-size="10.00">&lt; DerivedT &gt;</text>
</a>
</g>
</g>
<!-- Node2&#45;&gt;Node1 -->
<g id="edge1_Node000001_Node000002" class="edge">
<title>Node2&#45;&gt;Node1</title>
<g id="a_edge1_Node000001_Node000002"><a xlink:title=" ">
<path fill="none" stroke="#63b8ff" d="M113.96,-109.88C122.08,-109.88 130.46,-109.88 138.76,-109.88"/>
<polygon fill="#63b8ff" stroke="#63b8ff" points="114.22,-106.38 104.22,-109.88 114.22,-113.38 114.22,-106.38"/>
</a>
</g>
</g>
<!-- Node4 -->
<g id="Node000004" class="node">
<title>Node4</title>
<g id="a_Node000004"><a xlink:href="structllvm_1_1DomOnlyViewer.html" target="_top" xlink:title=" ">
<polygon fill="white" stroke="#666666" points="774.38,-210.5 663.12,-210.5 663.12,-191.25 774.38,-191.25 774.38,-210.5"/>
<text xml:space="preserve" text-anchor="middle" x="718.75" y="-197" font-family="Helvetica,sans-Serif" font-size="10.00">llvm::DomOnlyViewer</text>
</a>
</g>
</g>
<!-- Node3&#45;&gt;Node4 -->
<g id="edge3_Node000003_Node000004" class="edge">
<title>Node3&#45;&gt;Node4</title>
<g id="a_edge3_Node000003_Node000004"><a xlink:title=" ">
<path fill="none" stroke="#63b8ff" d="M623.3,-200.88C636.66,-200.88 650.23,-200.88 662.76,-200.88"/>
<polygon fill="#63b8ff" stroke="#63b8ff" points="623.66,-197.38 613.66,-200.88 623.66,-204.38 623.66,-197.38"/>
</a>
</g>
</g>
<!-- Node6 -->
<g id="Node000006" class="node">
<title>Node6</title>
<g id="a_Node000006"><a xlink:href="structllvm_1_1DomViewer.html" target="_top" xlink:title=" ">
<polygon fill="white" stroke="#666666" points="764.25,-150.5 673.25,-150.5 673.25,-131.25 764.25,-131.25 764.25,-150.5"/>
<text xml:space="preserve" text-anchor="middle" x="718.75" y="-137" font-family="Helvetica,sans-Serif" font-size="10.00">llvm::DomViewer</text>
</a>
</g>
</g>
<!-- Node5&#45;&gt;Node6 -->
<g id="edge5_Node000005_Node000006" class="edge">
<title>Node5&#45;&gt;Node6</title>
<g id="a_edge5_Node000005_Node000006"><a xlink:title=" ">
<path fill="none" stroke="#63b8ff" d="M623.28,-140.88C640.35,-140.88 657.74,-140.88 672.88,-140.88"/>
<polygon fill="#63b8ff" stroke="#63b8ff" points="623.66,-137.38 613.66,-140.88 623.66,-144.38 623.66,-137.38"/>
</a>
</g>
</g>
<!-- Node8 -->
<g id="Node000008" class="node">
<title>Node8</title>
<g id="a_Node000008"><a xlink:href="structllvm_1_1PostDomOnlyViewer.html" target="_top" xlink:title=" ">
<polygon fill="white" stroke="#666666" points="784.5,-90.5 653,-90.5 653,-71.25 784.5,-71.25 784.5,-90.5"/>
<text xml:space="preserve" text-anchor="middle" x="718.75" y="-77" font-family="Helvetica,sans-Serif" font-size="10.00">llvm::PostDomOnlyViewer</text>
</a>
</g>
</g>
<!-- Node7&#45;&gt;Node8 -->
<g id="edge7_Node000007_Node000008" class="edge">
<title>Node7&#45;&gt;Node8</title>
<g id="a_edge7_Node000007_Node000008"><a xlink:title=" ">
<path fill="none" stroke="#63b8ff" d="M627.77,-80.88C636.09,-80.88 644.44,-80.88 652.51,-80.88"/>
<polygon fill="#63b8ff" stroke="#63b8ff" points="627.98,-77.38 617.98,-80.88 627.98,-84.38 627.98,-77.38"/>
</a>
</g>
</g>
<!-- Node10 -->
<g id="Node000010" class="node">
<title>Node10</title>
<g id="a_Node000010"><a xlink:href="structllvm_1_1PostDomViewer.html" target="_top" xlink:title=" ">
<polygon fill="white" stroke="#666666" points="774.38,-30.5 663.12,-30.5 663.12,-11.25 774.38,-11.25 774.38,-30.5"/>
<text xml:space="preserve" text-anchor="middle" x="718.75" y="-17" font-family="Helvetica,sans-Serif" font-size="10.00">llvm::PostDomViewer</text>
</a>
</g>
</g>
<!-- Node9&#45;&gt;Node10 -->
<g id="edge9_Node000009_Node000010" class="edge">
<title>Node9&#45;&gt;Node10</title>
<g id="a_edge9_Node000009_Node000010"><a xlink:title=" ">
<path fill="none" stroke="#63b8ff" d="M627.83,-20.88C639.72,-20.88 651.67,-20.88 662.79,-20.88"/>
<polygon fill="#63b8ff" stroke="#63b8ff" points="627.98,-17.38 617.98,-20.88 627.98,-24.38 627.98,-17.38"/>
</a>
</g>
</g>
</g>
</svg>
