<?xml version="1.0" encoding="UTF-8" standalone="no"?>
<!DOCTYPE svg PUBLIC "-//W3C//DTD SVG 1.1//EN"
 "http://www.w3.org/Graphics/SVG/1.1/DTD/svg11.dtd">
<!-- Generated by graphviz version 13.1.2 (20250808.2320)
 -->
<!-- Title: llvm::ConstantInfo&lt; ConstantClass &gt; Pages: 1 -->
<svg width="428pt" height="389pt"
 viewBox="0.00 0.00 428.00 389.00" xmlns="http://www.w3.org/2000/svg" xmlns:xlink="http://www.w3.org/1999/xlink">
<g id="graph0" class="graph" transform="scale(1 1) rotate(0) translate(4 384.86)">
<title>llvm::ConstantInfo&lt; ConstantClass &gt;</title>
<!-- Node1 -->
<g id="Node000001" class="node">
<title>Node1</title>
<g id="a_Node000001"><a xlink:title=" ">
<polygon fill="#999999" stroke="#666666" points="99.25,-201.5 0,-201.5 0,-171 99.25,-171 99.25,-201.5"/>
<text xml:space="preserve" text-anchor="start" x="8" y="-188" font-family="Helvetica,sans-Serif" font-size="10.00">llvm::ConstantInfo</text>
<text xml:space="preserve" text-anchor="middle" x="49.62" y="-176.75" font-family="Helvetica,sans-Serif" font-size="10.00">&lt; ConstantClass &gt;</text>
</a>
</g>
</g>
<!-- Node2 -->
<g id="Node000002" class="node">
<title>Node2</title>
<g id="a_Node000002"><a xlink:href="structllvm_1_1ConstantInfo.html" target="_top" xlink:title=" ">
<polygon fill="white" stroke="#666666" points="419.75,-361.88 271.75,-361.88 271.75,-342.62 419.75,-342.62 419.75,-361.88"/>
<text xml:space="preserve" text-anchor="middle" x="345.75" y="-348.38" font-family="Helvetica,sans-Serif" font-size="10.00">llvm::TypeClass&lt; InlineAsm &gt;</text>
</a>
</g>
</g>
<!-- Node1&#45;&gt;Node2 -->
<g id="edge1_Node000001_Node000002" class="edge">
<title>Node1&#45;&gt;Node2</title>
<g id="a_edge1_Node000001_Node000002"><a xlink:title=" ">
<path fill="none" stroke="orange" stroke-dasharray="5,2" d="M54.76,-212.76C61.49,-246.17 78.23,-302.57 117.25,-330.25 163.53,-363.08 229.1,-366.1 277.96,-362.36"/>
<polygon fill="orange" stroke="orange" points="58.23,-212.28 52.98,-203.08 51.34,-213.54 58.23,-212.28"/>
</a>
</g>
<text xml:space="preserve" text-anchor="start" x="128.5" y="-368.36" font-family="Helvetica,sans-Serif" font-size="10.00" fill="grey">&lt; InlineAsm &gt;::TypeClass</text>
</g>
<!-- Node3 -->
<g id="Node000003" class="node">
<title>Node3</title>
<g id="a_Node000003"><a xlink:href="structllvm_1_1ConstantInfo.html" target="_top" xlink:title=" ">
<polygon fill="white" stroke="#666666" points="413.38,-324.5 278.12,-324.5 278.12,-294 413.38,-294 413.38,-324.5"/>
<text xml:space="preserve" text-anchor="start" x="286.12" y="-311" font-family="Helvetica,sans-Serif" font-size="10.00">llvm::TypeClass&lt; Constant</text>
<text xml:space="preserve" text-anchor="middle" x="345.75" y="-299.75" font-family="Helvetica,sans-Serif" font-size="10.00">Expr &gt;</text>
</a>
</g>
</g>
<!-- Node1&#45;&gt;Node3 -->
<g id="edge2_Node000001_Node000003" class="edge">
<title>Node1&#45;&gt;Node3</title>
<g id="a_edge2_Node000001_Node000003"><a xlink:title=" ">
<path fill="none" stroke="orange" stroke-dasharray="5,2" d="M63.11,-212.13C74.34,-232.46 92.84,-259.69 117.25,-274.25 165.73,-303.16 229.97,-310.82 277.82,-311.88"/>
<polygon fill="orange" stroke="orange" points="66.22,-210.51 58.47,-203.29 60.02,-213.77 66.22,-210.51"/>
</a>
</g>
<text xml:space="preserve" text-anchor="start" x="120.25" y="-315.49" font-family="Helvetica,sans-Serif" font-size="10.00" fill="grey">&lt; ConstantExpr &gt;::TypeClass</text>
</g>
<!-- Node4 -->
<g id="Node000004" class="node">
<title>Node4</title>
<g id="a_Node000004"><a xlink:href="structllvm_1_1ConstantInfo_3_01ConstantArray_01_4.html" target="_top" xlink:title=" ">
<polygon fill="white" stroke="#666666" points="394.25,-275.5 297.25,-275.5 297.25,-245 394.25,-245 394.25,-275.5"/>
<text xml:space="preserve" text-anchor="start" x="305.25" y="-262" font-family="Helvetica,sans-Serif" font-size="10.00">llvm::ConstantInfo</text>
<text xml:space="preserve" text-anchor="middle" x="345.75" y="-250.75" font-family="Helvetica,sans-Serif" font-size="10.00">&lt; ConstantArray &gt;</text>
</a>
</g>
</g>
<!-- Node1&#45;&gt;Node4 -->
<g id="edge3_Node000001_Node000004" class="edge">
<title>Node1&#45;&gt;Node4</title>
<g id="a_edge3_Node000001_Node000004"><a xlink:title=" ">
<path fill="none" stroke="orange" stroke-dasharray="5,2" d="M82.98,-207.82C93.52,-213.98 105.54,-220.14 117.25,-224.25 177.05,-245.25 250.01,-254.04 296.91,-257.7"/>
<polygon fill="orange" stroke="orange" points="85.03,-204.97 74.67,-202.76 81.39,-210.95 85.03,-204.97"/>
</a>
</g>
<text xml:space="preserve" text-anchor="start" x="145" y="-257.81" font-family="Helvetica,sans-Serif" font-size="10.00" fill="grey">&lt; ConstantArray &gt;</text>
</g>
<!-- Node5 -->
<g id="Node000005" class="node">
<title>Node5</title>
<g id="a_Node000005"><a xlink:href="structllvm_1_1ConstantInfo_3_01ConstantExpr_01_4.html" target="_top" xlink:title=" ">
<polygon fill="white" stroke="#666666" points="393.88,-226.5 297.62,-226.5 297.62,-196 393.88,-196 393.88,-226.5"/>
<text xml:space="preserve" text-anchor="start" x="305.62" y="-213" font-family="Helvetica,sans-Serif" font-size="10.00">llvm::ConstantInfo</text>
<text xml:space="preserve" text-anchor="middle" x="345.75" y="-201.75" font-family="Helvetica,sans-Serif" font-size="10.00">&lt; ConstantExpr &gt;</text>
</a>
</g>
</g>
<!-- Node1&#45;&gt;Node5 -->
<g id="edge4_Node000001_Node000005" class="edge">
<title>Node1&#45;&gt;Node5</title>
<g id="a_edge4_Node000001_Node000005"><a xlink:title=" ">
<path fill="none" stroke="orange" stroke-dasharray="5,2" d="M110.88,-191.37C166.01,-196.06 246.48,-202.9 297.2,-207.21"/>
<polygon fill="orange" stroke="orange" points="111.29,-187.89 101.03,-190.53 110.7,-194.87 111.29,-187.89"/>
</a>
</g>
<text xml:space="preserve" text-anchor="start" x="146.5" y="-207.91" font-family="Helvetica,sans-Serif" font-size="10.00" fill="grey">&lt; ConstantExpr &gt;</text>
</g>
<!-- Node6 -->
<g id="Node000006" class="node">
<title>Node6</title>
<g id="a_Node000006"><a xlink:href="structllvm_1_1ConstantInfo_3_01ConstantPtrAuth_01_4.html" target="_top" xlink:title=" ">
<polygon fill="white" stroke="#666666" points="399.12,-177.5 292.38,-177.5 292.38,-147 399.12,-147 399.12,-177.5"/>
<text xml:space="preserve" text-anchor="start" x="300.38" y="-164" font-family="Helvetica,sans-Serif" font-size="10.00">llvm::ConstantInfo</text>
<text xml:space="preserve" text-anchor="middle" x="345.75" y="-152.75" font-family="Helvetica,sans-Serif" font-size="10.00">&lt; ConstantPtrAuth &gt;</text>
</a>
</g>
</g>
<!-- Node1&#45;&gt;Node6 -->
<g id="edge5_Node000001_Node000006" class="edge">
<title>Node1&#45;&gt;Node6</title>
<g id="a_edge5_Node000001_Node000006"><a xlink:title=" ">
<path fill="none" stroke="orange" stroke-dasharray="5,2" d="M110.7,-172.92C112.9,-172.58 115.09,-172.27 117.25,-172 176.86,-164.4 245.88,-162.39 292.13,-162.01"/>
<polygon fill="orange" stroke="orange" points="110.35,-169.43 101.08,-174.55 111.52,-176.33 110.35,-169.43"/>
</a>
</g>
<text xml:space="preserve" text-anchor="start" x="140.12" y="-176.75" font-family="Helvetica,sans-Serif" font-size="10.00" fill="grey">&lt; ConstantPtrAuth &gt;</text>
</g>
<!-- Node7 -->
<g id="Node000007" class="node">
<title>Node7</title>
<g id="a_Node000007"><a xlink:href="structllvm_1_1ConstantInfo_3_01ConstantStruct_01_4.html" target="_top" xlink:title=" ">
<polygon fill="white" stroke="#666666" points="395.75,-128.5 295.75,-128.5 295.75,-98 395.75,-98 395.75,-128.5"/>
<text xml:space="preserve" text-anchor="start" x="303.75" y="-115" font-family="Helvetica,sans-Serif" font-size="10.00">llvm::ConstantInfo</text>
<text xml:space="preserve" text-anchor="middle" x="345.75" y="-103.75" font-family="Helvetica,sans-Serif" font-size="10.00">&lt; ConstantStruct &gt;</text>
</a>
</g>
</g>
<!-- Node1&#45;&gt;Node7 -->
<g id="edge6_Node000001_Node000007" class="edge">
<title>Node1&#45;&gt;Node7</title>
<g id="a_edge6_Node000001_Node000007"><a xlink:title=" ">
<path fill="none" stroke="orange" stroke-dasharray="5,2" d="M77.57,-163.64C89.09,-155.16 103.14,-146.3 117.25,-141 175.92,-118.98 248.51,-113.55 295.69,-112.63"/>
<polygon fill="orange" stroke="orange" points="75.52,-160.8 69.73,-169.67 79.79,-166.35 75.52,-160.8"/>
</a>
</g>
<text xml:space="preserve" text-anchor="start" x="143.5" y="-145.75" font-family="Helvetica,sans-Serif" font-size="10.00" fill="grey">&lt; ConstantStruct &gt;</text>
</g>
<!-- Node8 -->
<g id="Node000008" class="node">
<title>Node8</title>
<g id="a_Node000008"><a xlink:href="structllvm_1_1ConstantInfo_3_01ConstantVector_01_4.html" target="_top" xlink:title=" ">
<polygon fill="white" stroke="#666666" points="396.88,-79.5 294.62,-79.5 294.62,-49 396.88,-49 396.88,-79.5"/>
<text xml:space="preserve" text-anchor="start" x="302.62" y="-66" font-family="Helvetica,sans-Serif" font-size="10.00">llvm::ConstantInfo</text>
<text xml:space="preserve" text-anchor="middle" x="345.75" y="-54.75" font-family="Helvetica,sans-Serif" font-size="10.00">&lt; ConstantVector &gt;</text>
</a>
</g>
</g>
<!-- Node1&#45;&gt;Node8 -->
<g id="edge7_Node000001_Node000008" class="edge">
<title>Node1&#45;&gt;Node8</title>
<g id="a_edge7_Node000001_Node000008"><a xlink:title=" ">
<path fill="none" stroke="orange" stroke-dasharray="5,2" d="M61.85,-160.68C72.74,-139.12 91.41,-109.41 117.25,-94 171.48,-61.67 245.76,-57.97 294.48,-59.84"/>
<polygon fill="orange" stroke="orange" points="58.82,-158.9 57.65,-169.43 65.13,-161.92 58.82,-158.9"/>
</a>
</g>
<text xml:space="preserve" text-anchor="start" x="142.38" y="-98.75" font-family="Helvetica,sans-Serif" font-size="10.00" fill="grey">&lt; ConstantVector &gt;</text>
</g>
<!-- Node9 -->
<g id="Node000009" class="node">
<title>Node9</title>
<g id="a_Node000009"><a xlink:href="structllvm_1_1ConstantInfo_3_01InlineAsm_01_4.html" target="_top" xlink:title=" ">
<polygon fill="white" stroke="#666666" points="393.88,-30.5 297.62,-30.5 297.62,0 393.88,0 393.88,-30.5"/>
<text xml:space="preserve" text-anchor="start" x="305.62" y="-17" font-family="Helvetica,sans-Serif" font-size="10.00">llvm::ConstantInfo</text>
<text xml:space="preserve" text-anchor="middle" x="345.75" y="-5.75" font-family="Helvetica,sans-Serif" font-size="10.00">&lt; InlineAsm &gt;</text>
</a>
</g>
</g>
<!-- Node1&#45;&gt;Node9 -->
<g id="edge8_Node000001_Node000009" class="edge">
<title>Node1&#45;&gt;Node9</title>
<g id="a_edge8_Node000001_Node000009"><a xlink:title=" ">
<path fill="none" stroke="orange" stroke-dasharray="5,2" d="M54.52,-159.65C61.02,-125.61 77.56,-67.64 117.25,-39 169.74,-1.13 247.62,-1.86 297.28,-7.38"/>
<polygon fill="orange" stroke="orange" points="51.14,-158.66 52.87,-169.11 58.03,-159.86 51.14,-158.66"/>
</a>
</g>
<text xml:space="preserve" text-anchor="start" x="154.75" y="-43.75" font-family="Helvetica,sans-Serif" font-size="10.00" fill="grey">&lt; InlineAsm &gt;</text>
</g>
</g>
</svg>
