<?xml version="1.0" encoding="UTF-8" standalone="no"?>
<!DOCTYPE svg PUBLIC "-//W3C//DTD SVG 1.1//EN"
 "http://www.w3.org/Graphics/SVG/1.1/DTD/svg11.dtd">
<!-- Generated by graphviz version 13.1.2 (20250808.2320)
 -->
<!-- Title: llvm::LLVM_BITMASK_LARGEST_ENUMERATOR) &gt;=0 &gt; &gt;&lt; E &gt; Pages: 1 -->
<svg width="330pt" height="220pt"
 viewBox="0.00 0.00 330.00 220.00" xmlns="http://www.w3.org/2000/svg" xmlns:xlink="http://www.w3.org/1999/xlink">
<g id="graph0" class="graph" transform="scale(1 1) rotate(0) translate(4 216.25)">
<title>llvm::LLVM_BITMASK_LARGEST_ENUMERATOR) &gt;=0 &gt; &gt;&lt; E &gt;</title>
<!-- Node1 -->
<g id="Node000001" class="node">
<title>Node1</title>
<g id="a_Node000001"><a xlink:title=" ">
<polygon fill="#999999" stroke="#666666" points="160.88,-41.75 13.62,-41.75 13.62,0 160.88,0 160.88,-41.75"/>
<text xml:space="preserve" text-anchor="start" x="21.62" y="-28.25" font-family="Helvetica,sans-Serif" font-size="10.00">llvm::LLVM_BITMASK</text>
<text xml:space="preserve" text-anchor="start" x="21.62" y="-17" font-family="Helvetica,sans-Serif" font-size="10.00">_LARGEST_ENUMERATOR)</text>
<text xml:space="preserve" text-anchor="middle" x="87.25" y="-5.75" font-family="Helvetica,sans-Serif" font-size="10.00"> &gt;=0 &gt; &gt;&lt; E &gt;</text>
</a>
</g>
</g>
<!-- Node2 -->
<g id="Node000002" class="node">
<title>Node2</title>
<g id="a_Node000002"><a xlink:title=" ">
<polygon fill="white" stroke="#666666" points="80.5,-212.25 0,-212.25 0,-193 80.5,-193 80.5,-212.25"/>
<text xml:space="preserve" text-anchor="middle" x="40.25" y="-198.75" font-family="Helvetica,sans-Serif" font-size="10.00">std::false_type</text>
</a>
</g>
</g>
<!-- Node2&#45;&gt;Node1 -->
<g id="edge1_Node000001_Node000002" class="edge">
<title>Node2&#45;&gt;Node1</title>
<g id="a_edge1_Node000001_Node000002"><a xlink:title=" ">
<path fill="none" stroke="#63b8ff" d="M40.6,-181.27C41.23,-165.79 42.9,-144.08 47.25,-125.5 54.29,-95.46 68.15,-62.49 77.56,-41.99"/>
<polygon fill="#63b8ff" stroke="#63b8ff" points="37.1,-180.98 40.32,-191.08 44.1,-181.18 37.1,-180.98"/>
</a>
</g>
</g>
<!-- Node4 -->
<g id="Node000004" class="node">
<title>Node4</title>
<g id="a_Node000004"><a xlink:href="structllvm_1_1is__bitmask__enum.html" target="_top" xlink:title="Traits class to determine whether an enum has a LLVM_BITMASK_LARGEST_ENUMERATOR enumerator.">
<polygon fill="white" stroke="#666666" points="172.5,-156 56,-156 56,-125.5 172.5,-125.5 172.5,-156"/>
<text xml:space="preserve" text-anchor="start" x="64" y="-142.5" font-family="Helvetica,sans-Serif" font-size="10.00">llvm::is_bitmask_enum</text>
<text xml:space="preserve" text-anchor="middle" x="114.25" y="-131.25" font-family="Helvetica,sans-Serif" font-size="10.00">&lt; E, Enable &gt;</text>
</a>
</g>
</g>
<!-- Node2&#45;&gt;Node4 -->
<g id="edge4_Node000004_Node000002" class="edge">
<title>Node2&#45;&gt;Node4</title>
<g id="a_edge4_Node000004_Node000002"><a xlink:title=" ">
<path fill="none" stroke="#63b8ff" d="M60.18,-185.5C71.42,-176.4 85.36,-165.13 96.27,-156.3"/>
<polygon fill="#63b8ff" stroke="#63b8ff" points="58.24,-182.57 52.67,-191.58 62.64,-188.01 58.24,-182.57"/>
</a>
</g>
</g>
<!-- Node3 -->
<g id="Node000003" class="node">
<title>Node3</title>
<g id="a_Node000003"><a xlink:title=" ">
<polygon fill="white" stroke="#666666" points="322.25,-150.38 246.25,-150.38 246.25,-131.12 322.25,-131.12 322.25,-150.38"/>
<text xml:space="preserve" text-anchor="middle" x="284.25" y="-136.88" font-family="Helvetica,sans-Serif" font-size="10.00">std::true_type</text>
</a>
</g>
</g>
<!-- Node3&#45;&gt;Node1 -->
<g id="edge2_Node000001_Node000003" class="edge">
<title>Node3&#45;&gt;Node1</title>
<g id="a_edge2_Node000001_Node000003"><a xlink:title=" ">
<path fill="none" stroke="#63b8ff" d="M286.55,-119.35C287.37,-101.27 285.41,-75.38 270.25,-59.75 255.01,-44.03 204.95,-34.35 161.03,-28.72"/>
<polygon fill="#63b8ff" stroke="#63b8ff" points="283.07,-118.88 285.75,-129.13 290.05,-119.44 283.07,-118.88"/>
</a>
</g>
</g>
<!-- Node4&#45;&gt;Node1 -->
<g id="edge3_Node000001_Node000004" class="edge">
<title>Node4&#45;&gt;Node1</title>
<g id="a_edge3_Node000001_Node000004"><a xlink:title=" ">
<path fill="none" stroke="orange" stroke-dasharray="5,2" d="M92.87,-116.02C91.22,-113.29 89.8,-110.42 88.75,-107.5 81.09,-86.08 82.05,-59.68 84.06,-41.9"/>
<polygon fill="orange" stroke="orange" points="89.96,-117.96 98.64,-124.04 95.64,-113.88 89.96,-117.96"/>
</a>
</g>
<text xml:space="preserve" text-anchor="start" x="91.75" y="-95" font-family="Helvetica,sans-Serif" font-size="10.00" fill="grey">&lt; E, std::enable_if</text>
<text xml:space="preserve" text-anchor="start" x="91.75" y="-79.75" font-family="Helvetica,sans-Serif" font-size="10.00" fill="grey">  _t&lt; sizeof(E::LLVM_BITMASK</text>
<text xml:space="preserve" text-anchor="start" x="91.75" y="-64.5" font-family="Helvetica,sans-Serif" font-size="10.00" fill="grey">  _LARGEST_ENUMERATOR) &gt;=0 &gt; &gt;</text>
</g>
</g>
</svg>
