<?xml version="1.0" encoding="UTF-8" standalone="no"?>
<!DOCTYPE svg PUBLIC "-//W3C//DTD SVG 1.1//EN"
 "http://www.w3.org/Graphics/SVG/1.1/DTD/svg11.dtd">
<!-- Generated by graphviz version 13.1.2 (20250808.2320)
 -->
<!-- Title: llvm::yaml::has_FlowTraits&lt; T, true &gt;::Derived Pages: 1 -->
<svg width="192pt" height="105pt"
 viewBox="0.00 0.00 192.00 105.00" xmlns="http://www.w3.org/2000/svg" xmlns:xlink="http://www.w3.org/1999/xlink">
<g id="graph0" class="graph" transform="scale(1 1) rotate(0) translate(4 101)">
<title>llvm::yaml::has_FlowTraits&lt; T, true &gt;::Derived</title>
<!-- Node1 -->
<g id="Node000001" class="node">
<title>Node1</title>
<g id="a_Node000001"><a xlink:title=" ">
<polygon fill="#999999" stroke="#666666" points="133.75,-30.5 0,-30.5 0,0 133.75,0 133.75,-30.5"/>
<text xml:space="preserve" text-anchor="start" x="8" y="-17" font-family="Helvetica,sans-Serif" font-size="10.00">llvm::yaml::has_FlowTraits</text>
<text xml:space="preserve" text-anchor="middle" x="66.88" y="-5.75" font-family="Helvetica,sans-Serif" font-size="10.00">&lt; T, true &gt;::Derived</text>
</a>
</g>
</g>
<!-- Node2 -->
<g id="Node000002" class="node">
<title>Node2</title>
<g id="a_Node000002"><a xlink:href="classT.html" target="_top" xlink:title=" ">
<polygon fill="white" stroke="#666666" points="32.27,-91.38 3.47,-91.38 3.47,-72.12 32.27,-72.12 32.27,-91.38"/>
<text xml:space="preserve" text-anchor="middle" x="17.88" y="-77.88" font-family="Helvetica,sans-Serif" font-size="10.00">T</text>
</a>
</g>
</g>
<!-- Node2&#45;&gt;Node1 -->
<g id="edge1_Node000001_Node000002" class="edge">
<title>Node2&#45;&gt;Node1</title>
<g id="a_edge1_Node000001_Node000002"><a xlink:title=" ">
<path fill="none" stroke="#63b8ff" d="M31.65,-62.62C39.34,-52.49 48.8,-40.04 55.98,-30.59"/>
<polygon fill="#63b8ff" stroke="#63b8ff" points="28.87,-60.5 25.6,-70.58 34.44,-64.73 28.87,-60.5"/>
</a>
</g>
</g>
<!-- Node3 -->
<g id="Node000003" class="node">
<title>Node3</title>
<g id="a_Node000003"><a xlink:href="structllvm_1_1yaml_1_1has__FlowTraits_3_01T_00_01true_01_4_1_1Fallback.html" target="_top" xlink:title=" ">
<polygon fill="white" stroke="#666666" points="183.75,-97 50,-97 50,-66.5 183.75,-66.5 183.75,-97"/>
<text xml:space="preserve" text-anchor="start" x="58" y="-83.5" font-family="Helvetica,sans-Serif" font-size="10.00">llvm::yaml::has_FlowTraits</text>
<text xml:space="preserve" text-anchor="middle" x="116.88" y="-72.25" font-family="Helvetica,sans-Serif" font-size="10.00">&lt; T, true &gt;::Fallback</text>
</a>
</g>
</g>
<!-- Node3&#45;&gt;Node1 -->
<g id="edge2_Node000001_Node000003" class="edge">
<title>Node3&#45;&gt;Node1</title>
<g id="a_edge2_Node000001_Node000003"><a xlink:title=" ">
<path fill="none" stroke="#63b8ff" d="M98.52,-57.07C91.7,-48.28 84.18,-38.57 78.18,-30.83"/>
<polygon fill="#63b8ff" stroke="#63b8ff" points="95.71,-59.16 104.6,-64.92 101.24,-54.87 95.71,-59.16"/>
</a>
</g>
</g>
</g>
</svg>
