<?xml version="1.0" encoding="UTF-8" standalone="no"?>
<!DOCTYPE svg PUBLIC "-//W3C//DTD SVG 1.1//EN"
 "http://www.w3.org/Graphics/SVG/1.1/DTD/svg11.dtd">
<!-- Generated by graphviz version 13.1.2 (20250808.2320)
 -->
<!-- Title: llvm::ilist_detail::extract_sentinel_tracking&lt;&gt; Pages: 1 -->
<svg width="549pt" height="125pt"
 viewBox="0.00 0.00 549.00 125.00" xmlns="http://www.w3.org/2000/svg" xmlns:xlink="http://www.w3.org/1999/xlink">
<g id="graph0" class="graph" transform="scale(1 1) rotate(0) translate(4 120.5)">
<title>llvm::ilist_detail::extract_sentinel_tracking&lt;&gt;</title>
<!-- Node1 -->
<g id="Node000001" class="node">
<title>Node1</title>
<g id="a_Node000001"><a xlink:title=" ">
<polygon fill="#999999" stroke="#666666" points="540.75,-85.12 398,-85.12 398,-54.62 540.75,-54.62 540.75,-85.12"/>
<text xml:space="preserve" text-anchor="start" x="406" y="-71.62" font-family="Helvetica,sans-Serif" font-size="10.00">llvm::ilist_detail</text>
<text xml:space="preserve" text-anchor="middle" x="469.38" y="-60.38" font-family="Helvetica,sans-Serif" font-size="10.00">::extract_sentinel_tracking&lt;&gt;</text>
</a>
</g>
</g>
<!-- Node2 -->
<g id="Node000002" class="node">
<title>Node2</title>
<g id="a_Node000002"><a xlink:title=" ">
<polygon fill="white" stroke="#666666" points="318.88,-116.5 238.38,-116.5 238.38,-97.25 318.88,-97.25 318.88,-116.5"/>
<text xml:space="preserve" text-anchor="middle" x="278.62" y="-103" font-family="Helvetica,sans-Serif" font-size="10.00">std::false_type</text>
</a>
</g>
</g>
<!-- Node2&#45;&gt;Node1 -->
<g id="edge1_Node000001_Node000002" class="edge">
<title>Node2&#45;&gt;Node1</title>
<g id="a_edge1_Node000001_Node000002"><a xlink:title=" ">
<path fill="none" stroke="#63b8ff" d="M330.27,-96.95C350.95,-92.89 375.21,-88.14 397.59,-83.75"/>
<polygon fill="#63b8ff" stroke="#63b8ff" points="329.82,-93.47 320.68,-98.83 331.16,-100.34 329.82,-93.47"/>
</a>
</g>
</g>
<!-- Node3 -->
<g id="Node000003" class="node">
<title>Node3</title>
<g id="a_Node000003"><a xlink:href="structllvm_1_1ilist__detail_1_1explicitness.html" target="_top" xlink:title=" ">
<polygon fill="white" stroke="#666666" points="308.38,-79.5 248.88,-79.5 248.88,-60.25 308.38,-60.25 308.38,-79.5"/>
<text xml:space="preserve" text-anchor="middle" x="278.62" y="-66" font-family="Helvetica,sans-Serif" font-size="10.00">is_implicit</text>
</a>
</g>
</g>
<!-- Node3&#45;&gt;Node1 -->
<g id="edge2_Node000001_Node000003" class="edge">
<title>Node3&#45;&gt;Node1</title>
<g id="a_edge2_Node000001_Node000003"><a xlink:title=" ">
<path fill="none" stroke="#63b8ff" d="M319.91,-69.88C342.53,-69.88 371.4,-69.88 397.66,-69.88"/>
<polygon fill="#63b8ff" stroke="#63b8ff" points="320.22,-66.38 310.22,-69.88 320.22,-73.38 320.22,-66.38"/>
</a>
</g>
</g>
<!-- Node4 -->
<g id="Node000004" class="node">
<title>Node4</title>
<g id="a_Node000004"><a xlink:href="structllvm_1_1ilist__detail_1_1explicitness.html" target="_top" xlink:title="Helper trait for recording whether an option is specified explicitly.">
<polygon fill="white" stroke="#666666" points="132.25,-85.12 0,-85.12 0,-54.62 132.25,-54.62 132.25,-85.12"/>
<text xml:space="preserve" text-anchor="start" x="8" y="-71.62" font-family="Helvetica,sans-Serif" font-size="10.00">llvm::ilist_detail</text>
<text xml:space="preserve" text-anchor="middle" x="66.12" y="-60.38" font-family="Helvetica,sans-Serif" font-size="10.00">::explicitness&lt; IsExplicit &gt;</text>
</a>
</g>
</g>
<!-- Node4&#45;&gt;Node3 -->
<g id="edge3_Node000003_Node000004" class="edge">
<title>Node4&#45;&gt;Node3</title>
<g id="a_edge3_Node000003_Node000004"><a xlink:title=" ">
<path fill="none" stroke="orange" stroke-dasharray="5,2" d="M143.71,-69.88C180.16,-69.88 221.58,-69.88 248.58,-69.88"/>
<polygon fill="orange" stroke="orange" points="144.09,-66.38 134.09,-69.88 144.09,-73.38 144.09,-66.38"/>
</a>
</g>
<text xml:space="preserve" text-anchor="start" x="153.25" y="-74.62" font-family="Helvetica,sans-Serif" font-size="10.00" fill="grey">&lt; false &gt;</text>
</g>
<!-- Node5 -->
<g id="Node000005" class="node">
<title>Node5</title>
<g id="a_Node000005"><a xlink:href="structllvm_1_1ilist__detail_1_1extract__sentinel__tracking.html" target="_top" xlink:title="Extract sentinel tracking option.">
<polygon fill="white" stroke="#666666" points="344,-41.75 213.25,-41.75 213.25,0 344,0 344,-41.75"/>
<text xml:space="preserve" text-anchor="start" x="221.25" y="-28.25" font-family="Helvetica,sans-Serif" font-size="10.00">llvm::ilist_detail</text>
<text xml:space="preserve" text-anchor="start" x="221.25" y="-17" font-family="Helvetica,sans-Serif" font-size="10.00">::extract_sentinel_tracking</text>
<text xml:space="preserve" text-anchor="middle" x="278.62" y="-5.75" font-family="Helvetica,sans-Serif" font-size="10.00">&lt; Options &gt;</text>
</a>
</g>
</g>
<!-- Node5&#45;&gt;Node1 -->
<g id="edge4_Node000001_Node000005" class="edge">
<title>Node5&#45;&gt;Node1</title>
<g id="a_edge4_Node000001_Node000005"><a xlink:title=" ">
<path fill="none" stroke="orange" stroke-dasharray="5,2" d="M355.1,-40.47C372.65,-45.02 391.1,-49.81 407.9,-54.17"/>
<polygon fill="orange" stroke="orange" points="356.34,-37.17 345.78,-38.05 354.58,-43.95 356.34,-37.17"/>
</a>
</g>
<text xml:space="preserve" text-anchor="start" x="365" y="-51.59" font-family="Helvetica,sans-Serif" font-size="10.00" fill="grey">&lt;&gt;</text>
</g>
</g>
</svg>
