<?xml version="1.0" encoding="UTF-8" standalone="no"?>
<!DOCTYPE svg PUBLIC "-//W3C//DTD SVG 1.1//EN"
 "http://www.w3.org/Graphics/SVG/1.1/DTD/svg11.dtd">
<!-- Generated by graphviz version 13.1.2 (20250808.2320)
 -->
<!-- Title: llvm::MachineInstrBundleIteratorHelper&lt; false &gt; Pages: 1 -->
<svg width="808pt" height="338pt"
 viewBox="0.00 0.00 808.00 338.00" xmlns="http://www.w3.org/2000/svg" xmlns:xlink="http://www.w3.org/1999/xlink">
<g id="graph0" class="graph" transform="scale(1 1) rotate(0) translate(4 333.5)">
<title>llvm::MachineInstrBundleIteratorHelper&lt; false &gt;</title>
<!-- Node1 -->
<g id="Node000001" class="node">
<title>Node1</title>
<g id="a_Node000001"><a xlink:title=" ">
<polygon fill="#999999" stroke="#666666" points="345.5,-171.5 219.25,-171.5 219.25,-141 345.5,-141 345.5,-171.5"/>
<text xml:space="preserve" text-anchor="start" x="227.25" y="-158" font-family="Helvetica,sans-Serif" font-size="10.00">llvm::MachineInstrBundle</text>
<text xml:space="preserve" text-anchor="middle" x="282.38" y="-146.75" font-family="Helvetica,sans-Serif" font-size="10.00">IteratorHelper&lt; false &gt;</text>
</a>
</g>
</g>
<!-- Node3 -->
<g id="Node000003" class="node">
<title>Node3</title>
<g id="a_Node000003"><a xlink:href="classllvm_1_1MachineInstrBundleIterator.html" target="_top" xlink:title=" ">
<polygon fill="white" stroke="#666666" points="789.12,-329.5 662.88,-329.5 662.88,-299 789.12,-299 789.12,-329.5"/>
<text xml:space="preserve" text-anchor="start" x="670.88" y="-316" font-family="Helvetica,sans-Serif" font-size="10.00">llvm::MachineInstrBundle</text>
<text xml:space="preserve" text-anchor="middle" x="726" y="-304.75" font-family="Helvetica,sans-Serif" font-size="10.00">Iterator&lt; MachineInstr &gt;</text>
</a>
</g>
</g>
<!-- Node1&#45;&gt;Node3 -->
<g id="edge2_Node000001_Node000003" class="edge">
<title>Node1&#45;&gt;Node3</title>
<g id="a_edge2_Node000001_Node000003"><a xlink:title=" ">
<path fill="none" stroke="#8b1a1a" d="M309.12,-179.18C351.13,-214.94 438.62,-282.64 526.75,-309.25 570.75,-322.54 622.77,-323.32 662.49,-321.04"/>
<polygon fill="#8b1a1a" stroke="#8b1a1a" points="311.63,-176.72 301.77,-172.84 307.06,-182.02 311.63,-176.72"/>
</a>
</g>
</g>
<!-- Node4 -->
<g id="Node000004" class="node">
<title>Node4</title>
<g id="a_Node000004"><a xlink:href="classllvm_1_1MachineInstrBundleIterator.html" target="_top" xlink:title=" ">
<polygon fill="white" stroke="#666666" points="800,-30.5 652,-30.5 652,0 800,0 800,-30.5"/>
<text xml:space="preserve" text-anchor="start" x="660" y="-17" font-family="Helvetica,sans-Serif" font-size="10.00">llvm::MachineInstrBundle</text>
<text xml:space="preserve" text-anchor="middle" x="726" y="-5.75" font-family="Helvetica,sans-Serif" font-size="10.00">Iterator&lt; const MachineInstr &gt;</text>
</a>
</g>
</g>
<!-- Node1&#45;&gt;Node4 -->
<g id="edge3_Node000001_Node000004" class="edge">
<title>Node1&#45;&gt;Node4</title>
<g id="a_edge3_Node000001_Node000004"><a xlink:title=" ">
<path fill="none" stroke="#8b1a1a" d="M311.75,-133.75C355.1,-100.94 441.78,-41.35 526.75,-18.25 567.11,-7.28 613.81,-6.04 651.75,-7.78"/>
<polygon fill="#8b1a1a" stroke="#8b1a1a" points="309.68,-130.93 303.88,-139.79 313.94,-136.48 309.68,-130.93"/>
</a>
</g>
</g>
<!-- Node5 -->
<g id="Node000005" class="node">
<title>Node5</title>
<g id="a_Node000005"><a xlink:href="classllvm_1_1MachineInstrBundleIterator.html" target="_top" xlink:title="MachineBasicBlock iterator that automatically skips over MIs that are inside bundles (i....">
<polygon fill="white" stroke="#666666" points="508.75,-171.5 382.5,-171.5 382.5,-141 508.75,-141 508.75,-171.5"/>
<text xml:space="preserve" text-anchor="start" x="390.5" y="-158" font-family="Helvetica,sans-Serif" font-size="10.00">llvm::MachineInstrBundle</text>
<text xml:space="preserve" text-anchor="middle" x="445.62" y="-146.75" font-family="Helvetica,sans-Serif" font-size="10.00">Iterator&lt; Ty, IsReverse &gt;</text>
</a>
</g>
</g>
<!-- Node1&#45;&gt;Node5 -->
<g id="edge4_Node000001_Node000005" class="edge">
<title>Node1&#45;&gt;Node5</title>
<g id="a_edge4_Node000001_Node000005"><a xlink:title=" ">
<path fill="none" stroke="#8b1a1a" d="M357.07,-156.25C365.46,-156.25 373.95,-156.25 382.18,-156.25"/>
<polygon fill="#8b1a1a" stroke="#8b1a1a" points="357.23,-152.75 347.23,-156.25 357.23,-159.75 357.23,-152.75"/>
</a>
</g>
</g>
<!-- Node2 -->
<g id="Node000002" class="node">
<title>Node2</title>
<g id="a_Node000002"><a xlink:href="structllvm_1_1MachineInstrBundleIteratorHelper.html" target="_top" xlink:title=" ">
<polygon fill="white" stroke="#666666" points="138.25,-171.5 0,-171.5 0,-141 138.25,-141 138.25,-171.5"/>
<text xml:space="preserve" text-anchor="start" x="8" y="-158" font-family="Helvetica,sans-Serif" font-size="10.00">llvm::MachineInstrBundle</text>
<text xml:space="preserve" text-anchor="middle" x="69.12" y="-146.75" font-family="Helvetica,sans-Serif" font-size="10.00">IteratorHelper&lt; IsReverse &gt;</text>
</a>
</g>
</g>
<!-- Node2&#45;&gt;Node1 -->
<g id="edge1_Node000001_Node000002" class="edge">
<title>Node2&#45;&gt;Node1</title>
<g id="a_edge1_Node000001_Node000002"><a xlink:title=" ">
<path fill="none" stroke="orange" stroke-dasharray="5,2" d="M150.08,-156.25C172.84,-156.25 197.29,-156.25 218.85,-156.25"/>
<polygon fill="orange" stroke="orange" points="150.23,-152.75 140.23,-156.25 150.23,-159.75 150.23,-152.75"/>
</a>
</g>
<text xml:space="preserve" text-anchor="start" x="159.25" y="-161" font-family="Helvetica,sans-Serif" font-size="10.00" fill="grey">&lt; false &gt;</text>
</g>
<!-- Node5&#45;&gt;Node3 -->
<g id="edge5_Node000005_Node000003" class="edge">
<title>Node5&#45;&gt;Node3</title>
<g id="a_edge5_Node000005_Node000003"><a xlink:title=" ">
<path fill="none" stroke="orange" stroke-dasharray="5,2" d="M457.96,-182.17C470.79,-208.34 494.22,-247.87 526.75,-269.25 567.47,-296.02 586.49,-281.16 634,-292 643.2,-294.1 652.9,-296.39 662.4,-298.68"/>
<polygon fill="orange" stroke="orange" points="461.18,-180.8 453.76,-173.23 454.85,-183.77 461.18,-180.8"/>
</a>
</g>
<text xml:space="preserve" text-anchor="start" x="543.25" y="-296.75" font-family="Helvetica,sans-Serif" font-size="10.00" fill="grey">&lt; MachineInstr &gt;</text>
</g>
<!-- Node5&#45;&gt;Node4 -->
<g id="edge6_Node000005_Node000004" class="edge">
<title>Node5&#45;&gt;Node4</title>
<g id="a_edge6_Node000005_Node000004"><a xlink:title=" ">
<path fill="none" stroke="orange" stroke-dasharray="5,2" d="M458.9,-130.77C472.12,-106.23 495.53,-70.11 526.75,-51 564.04,-28.18 612.18,-19.12 651.68,-15.82"/>
<polygon fill="orange" stroke="orange" points="455.89,-128.97 454.41,-139.46 462.11,-132.19 455.89,-128.97"/>
</a>
</g>
<text xml:space="preserve" text-anchor="start" x="529.75" y="-55.75" font-family="Helvetica,sans-Serif" font-size="10.00" fill="grey">&lt; const MachineInstr &gt;</text>
</g>
<!-- Node6 -->
<g id="Node000006" class="node">
<title>Node6</title>
<g id="a_Node000006"><a xlink:href="classllvm_1_1MachineInstrBundleIterator.html" target="_top" xlink:title=" ">
<polygon fill="white" stroke="#666666" points="789.12,-150.12 662.88,-150.12 662.88,-108.38 789.12,-108.38 789.12,-150.12"/>
<text xml:space="preserve" text-anchor="start" x="670.88" y="-136.62" font-family="Helvetica,sans-Serif" font-size="10.00">llvm::MachineInstrBundle</text>
<text xml:space="preserve" text-anchor="start" x="670.88" y="-125.38" font-family="Helvetica,sans-Serif" font-size="10.00">Iterator&lt; MachineInstr,</text>
<text xml:space="preserve" text-anchor="middle" x="726" y="-114.12" font-family="Helvetica,sans-Serif" font-size="10.00"> true &gt;</text>
</a>
</g>
</g>
<!-- Node5&#45;&gt;Node6 -->
<g id="edge7_Node000005_Node000006" class="edge">
<title>Node5&#45;&gt;Node6</title>
<g id="a_edge7_Node000005_Node000006"><a xlink:title=" ">
<path fill="none" stroke="orange" stroke-dasharray="5,2" d="M520.19,-141.87C522.4,-141.56 524.59,-141.27 526.75,-141 572.09,-135.37 623.6,-132.42 662.75,-130.88"/>
<polygon fill="orange" stroke="orange" points="519.91,-138.37 510.55,-143.34 520.96,-145.29 519.91,-138.37"/>
</a>
</g>
<text xml:space="preserve" text-anchor="start" x="532.38" y="-145.75" font-family="Helvetica,sans-Serif" font-size="10.00" fill="grey">&lt; MachineInstr, true &gt;</text>
</g>
<!-- Node7 -->
<g id="Node000007" class="node">
<title>Node7</title>
<g id="a_Node000007"><a xlink:href="classllvm_1_1MachineInstrBundleIterator.html" target="_top" xlink:title=" ">
<polygon fill="white" stroke="#666666" points="796.62,-90.12 655.38,-90.12 655.38,-48.38 796.62,-48.38 796.62,-90.12"/>
<text xml:space="preserve" text-anchor="start" x="663.38" y="-76.62" font-family="Helvetica,sans-Serif" font-size="10.00">llvm::MachineInstrBundle</text>
<text xml:space="preserve" text-anchor="start" x="663.38" y="-65.38" font-family="Helvetica,sans-Serif" font-size="10.00">Iterator&lt; const MachineInstr,</text>
<text xml:space="preserve" text-anchor="middle" x="726" y="-54.12" font-family="Helvetica,sans-Serif" font-size="10.00"> true &gt;</text>
</a>
</g>
</g>
<!-- Node5&#45;&gt;Node7 -->
<g id="edge8_Node000005_Node000007" class="edge">
<title>Node5&#45;&gt;Node7</title>
<g id="a_edge8_Node000005_Node000007"><a xlink:title=" ">
<path fill="none" stroke="orange" stroke-dasharray="5,2" d="M470.09,-133.34C485.07,-120.12 505.59,-104.44 526.75,-95.75 567.38,-79.06 616.27,-72.39 655.32,-69.92"/>
<polygon fill="orange" stroke="orange" points="468.1,-130.42 463.07,-139.75 472.81,-135.6 468.1,-130.42"/>
</a>
</g>
<text xml:space="preserve" text-anchor="start" x="533.12" y="-115.75" font-family="Helvetica,sans-Serif" font-size="10.00" fill="grey">&lt; const MachineInstr,</text>
<text xml:space="preserve" text-anchor="start" x="533.12" y="-100.5" font-family="Helvetica,sans-Serif" font-size="10.00" fill="grey">   true &gt;</text>
</g>
<!-- Node8 -->
<g id="Node000008" class="node">
<title>Node8</title>
<g id="a_Node000008"><a xlink:href="classllvm_1_1MachineInstrBundleIterator.html" target="_top" xlink:title=" ">
<polygon fill="white" stroke="#666666" points="796.62,-269.75 655.38,-269.75 655.38,-216.75 796.62,-216.75 796.62,-269.75"/>
<text xml:space="preserve" text-anchor="start" x="663.38" y="-256.25" font-family="Helvetica,sans-Serif" font-size="10.00">llvm::MachineInstrBundle</text>
<text xml:space="preserve" text-anchor="start" x="663.38" y="-245" font-family="Helvetica,sans-Serif" font-size="10.00">Iterator&lt; typename nonconst</text>
<text xml:space="preserve" text-anchor="start" x="663.38" y="-233.75" font-family="Helvetica,sans-Serif" font-size="10.00">_instr_iterator::value_type,</text>
<text xml:space="preserve" text-anchor="middle" x="726" y="-222.5" font-family="Helvetica,sans-Serif" font-size="10.00"> IsReverse &gt;</text>
</a>
</g>
</g>
<!-- Node5&#45;&gt;Node8 -->
<g id="edge9_Node000005_Node000008" class="edge">
<title>Node5&#45;&gt;Node8</title>
<g id="a_edge9_Node000005_Node000008"><a xlink:title=" ">
<path fill="none" stroke="orange" stroke-dasharray="5,2" d="M484.91,-176.97C497.93,-183.45 512.74,-190.21 526.75,-195.25 529.92,-196.39 599.21,-213.1 654.99,-226.48"/>
<polygon fill="orange" stroke="orange" points="486.75,-173.98 476.25,-172.56 483.58,-180.21 486.75,-173.98"/>
</a>
</g>
<text xml:space="preserve" text-anchor="start" x="533.12" y="-256.63" font-family="Helvetica,sans-Serif" font-size="10.00" fill="grey">&lt; typename nonconst</text>
<text xml:space="preserve" text-anchor="start" x="533.12" y="-241.38" font-family="Helvetica,sans-Serif" font-size="10.00" fill="grey">  _instr_iterator::value</text>
<text xml:space="preserve" text-anchor="start" x="533.12" y="-226.13" font-family="Helvetica,sans-Serif" font-size="10.00" fill="grey">  _type, IsReverse &gt;</text>
</g>
<!-- Node9 -->
<g id="Node000009" class="node">
<title>Node9</title>
<g id="a_Node000009"><a xlink:href="classllvm_1_1MachineInstrBundleIterator.html" target="_top" xlink:title=" ">
<polygon fill="white" stroke="#666666" points="790.25,-198.5 661.75,-198.5 661.75,-168 790.25,-168 790.25,-198.5"/>
<text xml:space="preserve" text-anchor="start" x="669.75" y="-185" font-family="Helvetica,sans-Serif" font-size="10.00">llvm::MachineInstrBundle</text>
<text xml:space="preserve" text-anchor="middle" x="726" y="-173.75" font-family="Helvetica,sans-Serif" font-size="10.00">Iterator&lt; Ty, !IsReverse &gt;</text>
</a>
</g>
</g>
<!-- Node5&#45;&gt;Node9 -->
<g id="edge10_Node000005_Node000009" class="edge">
<title>Node5&#45;&gt;Node9</title>
<g id="a_edge10_Node000005_Node000009"><a xlink:title=" ">
<path fill="none" stroke="orange" stroke-dasharray="5,2" d="M520.28,-163.39C564.16,-167.65 619.3,-173 661.29,-177.07"/>
<polygon fill="orange" stroke="orange" points="520.9,-159.94 510.6,-162.46 520.22,-166.9 520.9,-159.94"/>
</a>
</g>
<text xml:space="preserve" text-anchor="start" x="539.5" y="-178.5" font-family="Helvetica,sans-Serif" font-size="10.00" fill="grey">&lt; Ty, !IsReverse &gt;</text>
</g>
</g>
</svg>
