<?xml version="1.0" encoding="UTF-8" standalone="no"?>
<!DOCTYPE svg PUBLIC "-//W3C//DTD SVG 1.1//EN"
 "http://www.w3.org/Graphics/SVG/1.1/DTD/svg11.dtd">
<!-- Generated by graphviz version 13.1.2 (20250808.2320)
 -->
<!-- Title: llvm::AMDGPUUseNativeCallsPass Pages: 1 -->
<svg width="255pt" height="179pt"
 viewBox="0.00 0.00 255.00 179.00" xmlns="http://www.w3.org/2000/svg" xmlns:xlink="http://www.w3.org/1999/xlink">
<g id="graph0" class="graph" transform="scale(1 1) rotate(0) translate(4 174.5)">
<title>llvm::AMDGPUUseNativeCallsPass</title>
<!-- Node1 -->
<g id="Node000001" class="node">
<title>Node1</title>
<g id="a_Node000001"><a xlink:title=" ">
<polygon fill="#999999" stroke="#666666" points="175.75,-19.25 0,-19.25 0,0 175.75,0 175.75,-19.25"/>
<text xml:space="preserve" text-anchor="middle" x="87.88" y="-5.75" font-family="Helvetica,sans-Serif" font-size="10.00">llvm::AMDGPUUseNativeCallsPass</text>
</a>
</g>
</g>
<!-- Node2 -->
<g id="Node000002" class="node">
<title>Node2</title>
<g id="a_Node000002"><a xlink:href="structllvm_1_1PassInfoMixin.html" target="_top" xlink:title=" ">
<polygon fill="white" stroke="#666666" points="172.38,-86.75 3.38,-86.75 3.38,-56.25 172.38,-56.25 172.38,-86.75"/>
<text xml:space="preserve" text-anchor="start" x="11.38" y="-73.25" font-family="Helvetica,sans-Serif" font-size="10.00">llvm::PassInfoMixin</text>
<text xml:space="preserve" text-anchor="middle" x="87.88" y="-62" font-family="Helvetica,sans-Serif" font-size="10.00">&lt; AMDGPUUseNativeCallsPass &gt;</text>
</a>
</g>
</g>
<!-- Node2&#45;&gt;Node1 -->
<g id="edge1_Node000001_Node000002" class="edge">
<title>Node2&#45;&gt;Node1</title>
<g id="a_edge1_Node000001_Node000002"><a xlink:title=" ">
<path fill="none" stroke="#63b8ff" d="M87.88,-44.77C87.88,-35.79 87.88,-26.29 87.88,-19.6"/>
<polygon fill="#63b8ff" stroke="#63b8ff" points="84.38,-44.49 87.88,-54.49 91.38,-44.49 84.38,-44.49"/>
</a>
</g>
</g>
<!-- Node3 -->
<g id="Node000003" class="node">
<title>Node3</title>
<g id="a_Node000003"><a xlink:href="structllvm_1_1PassInfoMixin.html" target="_top" xlink:title="A CRTP mix&#45;in to automatically provide informational APIs needed for passes.">
<polygon fill="white" stroke="#666666" points="139,-170.5 36.75,-170.5 36.75,-140 139,-140 139,-170.5"/>
<text xml:space="preserve" text-anchor="start" x="44.75" y="-157" font-family="Helvetica,sans-Serif" font-size="10.00">llvm::PassInfoMixin</text>
<text xml:space="preserve" text-anchor="middle" x="87.88" y="-145.75" font-family="Helvetica,sans-Serif" font-size="10.00">&lt; DerivedT &gt;</text>
</a>
</g>
</g>
<!-- Node3&#45;&gt;Node2 -->
<g id="edge2_Node000002_Node000003" class="edge">
<title>Node3&#45;&gt;Node2</title>
<g id="a_edge2_Node000002_Node000003"><a xlink:title=" ">
<path fill="none" stroke="orange" stroke-dasharray="5,2" d="M87.88,-128.47C87.88,-114.78 87.88,-98.46 87.88,-86.99"/>
<polygon fill="orange" stroke="orange" points="84.38,-128.12 87.88,-138.12 91.38,-128.12 84.38,-128.12"/>
</a>
</g>
<text xml:space="preserve" text-anchor="start" x="90.88" y="-109.5" font-family="Helvetica,sans-Serif" font-size="10.00" fill="grey">&lt; AMDGPUUseNativeCallsPass &gt;</text>
</g>
</g>
</svg>
