<?xml version="1.0" encoding="UTF-8" standalone="no"?>
<!DOCTYPE svg PUBLIC "-//W3C//DTD SVG 1.1//EN"
 "http://www.w3.org/Graphics/SVG/1.1/DTD/svg11.dtd">
<!-- Generated by graphviz version 13.1.2 (20250808.2320)
 -->
<!-- Title: llvm::GraphTraits&lt; const VPDomTreeNode * &gt; Pages: 1 -->
<svg width="786pt" height="125pt"
 viewBox="0.00 0.00 786.00 125.00" xmlns="http://www.w3.org/2000/svg" xmlns:xlink="http://www.w3.org/1999/xlink">
<g id="graph0" class="graph" transform="scale(1 1) rotate(0) translate(4 121)">
<title>llvm::GraphTraits&lt; const VPDomTreeNode * &gt;</title>
<!-- Node1 -->
<g id="Node000001" class="node">
<title>Node1</title>
<g id="a_Node000001"><a xlink:title=" ">
<polygon fill="#999999" stroke="#666666" points="777.75,-46.5 638.75,-46.5 638.75,-16 777.75,-16 777.75,-46.5"/>
<text xml:space="preserve" text-anchor="start" x="646.75" y="-33" font-family="Helvetica,sans-Serif" font-size="10.00">llvm::GraphTraits&lt;</text>
<text xml:space="preserve" text-anchor="middle" x="708.25" y="-21.75" font-family="Helvetica,sans-Serif" font-size="10.00"> const VPDomTreeNode * &gt;</text>
</a>
</g>
</g>
<!-- Node2 -->
<g id="Node000002" class="node">
<title>Node2</title>
<g id="a_Node000002"><a xlink:href="structllvm_1_1DomTreeGraphTraitsBase.html" target="_top" xlink:title=" ">
<polygon fill="white" stroke="#666666" points="467.75,-90.12 297.25,-90.12 297.25,-48.38 467.75,-48.38 467.75,-90.12"/>
<text xml:space="preserve" text-anchor="start" x="305.25" y="-76.62" font-family="Helvetica,sans-Serif" font-size="10.00">llvm::DomTreeGraphTraits</text>
<text xml:space="preserve" text-anchor="start" x="305.25" y="-65.38" font-family="Helvetica,sans-Serif" font-size="10.00">Base&lt; const VPDomTreeNode,</text>
<text xml:space="preserve" text-anchor="middle" x="382.5" y="-54.12" font-family="Helvetica,sans-Serif" font-size="10.00"> VPDomTreeNode::const_iterator &gt;</text>
</a>
</g>
</g>
<!-- Node2&#45;&gt;Node1 -->
<g id="edge1_Node000001_Node000002" class="edge">
<title>Node2&#45;&gt;Node1</title>
<g id="a_edge1_Node000001_Node000002"><a xlink:title=" ">
<path fill="none" stroke="#63b8ff" d="M479.53,-60.1C522.74,-55.74 574.36,-50.18 620.75,-44.25 626.47,-43.52 632.4,-42.72 638.35,-41.88"/>
<polygon fill="#63b8ff" stroke="#63b8ff" points="479.26,-56.61 469.66,-61.09 479.96,-63.58 479.26,-56.61"/>
</a>
</g>
</g>
<!-- Node3 -->
<g id="Node000003" class="node">
<title>Node3</title>
<g id="a_Node000003"><a xlink:href="structllvm_1_1DomTreeGraphTraitsBase.html" target="_top" xlink:title=" ">
<polygon fill="white" stroke="#666666" points="139,-84.5 0,-84.5 0,-54 139,-54 139,-84.5"/>
<text xml:space="preserve" text-anchor="start" x="8" y="-71" font-family="Helvetica,sans-Serif" font-size="10.00">llvm::DomTreeGraphTraits</text>
<text xml:space="preserve" text-anchor="middle" x="69.5" y="-59.75" font-family="Helvetica,sans-Serif" font-size="10.00">Base&lt; Node, ChildIterator &gt;</text>
</a>
</g>
</g>
<!-- Node3&#45;&gt;Node2 -->
<g id="edge2_Node000002_Node000003" class="edge">
<title>Node3&#45;&gt;Node2</title>
<g id="a_edge2_Node000002_Node000003"><a xlink:title=" ">
<path fill="none" stroke="orange" stroke-dasharray="5,2" d="M150.59,-69.25C195.46,-69.25 251.38,-69.25 296.96,-69.25"/>
<polygon fill="orange" stroke="orange" points="150.65,-65.75 140.65,-69.25 150.65,-72.75 150.65,-65.75"/>
</a>
</g>
<text xml:space="preserve" text-anchor="start" x="160" y="-104.5" font-family="Helvetica,sans-Serif" font-size="10.00" fill="grey">&lt; const VPDomTreeNode,</text>
<text xml:space="preserve" text-anchor="start" x="160" y="-89.25" font-family="Helvetica,sans-Serif" font-size="10.00" fill="grey">   VPDomTreeNode::const</text>
<text xml:space="preserve" text-anchor="start" x="160" y="-74" font-family="Helvetica,sans-Serif" font-size="10.00" fill="grey">  _iterator &gt;</text>
</g>
<!-- Node4 -->
<g id="Node000004" class="node">
<title>Node4</title>
<g id="a_Node000004"><a xlink:href="structllvm_1_1GraphTraits.html" target="_top" xlink:title=" ">
<polygon fill="white" stroke="#666666" points="431,-30.5 334,-30.5 334,0 431,0 431,-30.5"/>
<text xml:space="preserve" text-anchor="start" x="342" y="-17" font-family="Helvetica,sans-Serif" font-size="10.00">llvm::GraphTraits&lt;</text>
<text xml:space="preserve" text-anchor="middle" x="382.5" y="-5.75" font-family="Helvetica,sans-Serif" font-size="10.00"> GraphType &gt;</text>
</a>
</g>
</g>
<!-- Node4&#45;&gt;Node1 -->
<g id="edge3_Node000001_Node000004" class="edge">
<title>Node4&#45;&gt;Node1</title>
<g id="a_edge3_Node000001_Node000004"><a xlink:title=" ">
<path fill="none" stroke="orange" stroke-dasharray="5,2" d="M442.62,-18.17C497.81,-20.9 580.18,-24.97 638.34,-27.84"/>
<polygon fill="orange" stroke="orange" points="442.94,-14.68 432.78,-17.69 442.6,-21.68 442.94,-14.68"/>
</a>
</g>
<text xml:space="preserve" text-anchor="start" x="488.75" y="-31.71" font-family="Helvetica,sans-Serif" font-size="10.00" fill="grey">&lt; const VPDomTreeNode * &gt;</text>
</g>
</g>
</svg>
