<?xml version="1.0" encoding="UTF-8" standalone="no"?>
<!DOCTYPE svg PUBLIC "-//W3C//DTD SVG 1.1//EN"
 "http://www.w3.org/Graphics/SVG/1.1/DTD/svg11.dtd">
<!-- Generated by graphviz version 13.1.2 (20250808.2320)
 -->
<!-- Title: llvm::yaml::IsResizableBase&lt; T, B &gt; Pages: 1 -->
<svg width="1110pt" height="500pt"
 viewBox="0.00 0.00 1110.00 500.00" xmlns="http://www.w3.org/2000/svg" xmlns:xlink="http://www.w3.org/1999/xlink">
<g id="graph0" class="graph" transform="scale(1 1) rotate(0) translate(4 496.25)">
<title>llvm::yaml::IsResizableBase&lt; T, B &gt;</title>
<!-- Node1 -->
<g id="Node000001" class="node">
<title>Node1</title>
<g id="a_Node000001"><a xlink:title=" ">
<polygon fill="#999999" stroke="#666666" points="141.25,-157.38 0,-157.38 0,-126.88 141.25,-126.88 141.25,-157.38"/>
<text xml:space="preserve" text-anchor="start" x="8" y="-143.88" font-family="Helvetica,sans-Serif" font-size="10.00">llvm::yaml::IsResizableBase</text>
<text xml:space="preserve" text-anchor="middle" x="70.62" y="-132.62" font-family="Helvetica,sans-Serif" font-size="10.00">&lt; T, B &gt;</text>
</a>
</g>
</g>
<!-- Node2 -->
<g id="Node000002" class="node">
<title>Node2</title>
<g id="a_Node000002"><a xlink:href="structllvm_1_1yaml_1_1IsResizableBase.html" target="_top" xlink:title=" ">
<polygon fill="white" stroke="#666666" points="419,-186.38 269.5,-186.38 269.5,-155.88 419,-155.88 419,-186.38"/>
<text xml:space="preserve" text-anchor="start" x="277.5" y="-172.88" font-family="Helvetica,sans-Serif" font-size="10.00">llvm::yaml::IsResizableBase</text>
<text xml:space="preserve" text-anchor="middle" x="344.25" y="-161.62" font-family="Helvetica,sans-Serif" font-size="10.00">&lt; T, IsResizable&lt; T &gt;::value &gt;</text>
</a>
</g>
</g>
<!-- Node1&#45;&gt;Node2 -->
<g id="edge1_Node000001_Node000002" class="edge">
<title>Node1&#45;&gt;Node2</title>
<g id="a_edge1_Node000001_Node000002"><a xlink:title=" ">
<path fill="none" stroke="orange" stroke-dasharray="5,2" d="M152.82,-150.79C189.78,-154.74 233.21,-159.38 269.26,-163.23"/>
<polygon fill="orange" stroke="orange" points="153.4,-147.34 143.08,-149.75 152.65,-154.3 153.4,-147.34"/>
</a>
</g>
<text xml:space="preserve" text-anchor="start" x="162.25" y="-180.92" font-family="Helvetica,sans-Serif" font-size="10.00" fill="grey">&lt; T, IsResizable&lt; T</text>
<text xml:space="preserve" text-anchor="start" x="162.25" y="-165.67" font-family="Helvetica,sans-Serif" font-size="10.00" fill="grey">   &gt;::value &gt;</text>
</g>
<!-- Node14 -->
<g id="Node000014" class="node">
<title>Node14</title>
<g id="a_Node000014"><a xlink:href="structllvm_1_1yaml_1_1IsResizableBase_3_01T_00_01false_01_4.html" target="_top" xlink:title=" ">
<polygon fill="white" stroke="#666666" points="414.88,-137.38 273.62,-137.38 273.62,-106.88 414.88,-106.88 414.88,-137.38"/>
<text xml:space="preserve" text-anchor="start" x="281.62" y="-123.88" font-family="Helvetica,sans-Serif" font-size="10.00">llvm::yaml::IsResizableBase</text>
<text xml:space="preserve" text-anchor="middle" x="344.25" y="-112.62" font-family="Helvetica,sans-Serif" font-size="10.00">&lt; T, false &gt;</text>
</a>
</g>
</g>
<!-- Node1&#45;&gt;Node14 -->
<g id="edge18_Node000001_Node000014" class="edge">
<title>Node1&#45;&gt;Node14</title>
<g id="a_edge18_Node000001_Node000014"><a xlink:title=" ">
<path fill="none" stroke="orange" stroke-dasharray="5,2" d="M152.61,-127.59C154.84,-127.33 157.06,-127.09 159.25,-126.88 196.77,-123.15 238.8,-121.85 273.2,-121.53"/>
<polygon fill="orange" stroke="orange" points="152.3,-124.1 142.83,-128.85 153.19,-131.05 152.3,-124.1"/>
</a>
</g>
<text xml:space="preserve" text-anchor="start" x="180.62" y="-131.62" font-family="Helvetica,sans-Serif" font-size="10.00" fill="grey">&lt; T, false &gt;</text>
</g>
<!-- Node3 -->
<g id="Node000003" class="node">
<title>Node3</title>
<g id="a_Node000003"><a xlink:href="structllvm_1_1yaml_1_1SequenceTraitsImpl.html" target="_top" xlink:title=" ">
<polygon fill="white" stroke="#666666" points="911.75,-359.62 767.5,-359.62 767.5,-306.62 911.75,-306.62 911.75,-359.62"/>
<text xml:space="preserve" text-anchor="start" x="775.5" y="-346.12" font-family="Helvetica,sans-Serif" font-size="10.00">llvm::yaml::SequenceTraits</text>
<text xml:space="preserve" text-anchor="start" x="775.5" y="-334.88" font-family="Helvetica,sans-Serif" font-size="10.00">Impl&lt; MutableArrayRef&lt;</text>
<text xml:space="preserve" text-anchor="start" x="775.5" y="-323.62" font-family="Helvetica,sans-Serif" font-size="10.00"> T &gt;, SequenceElementTraits</text>
<text xml:space="preserve" text-anchor="middle" x="839.62" y="-312.38" font-family="Helvetica,sans-Serif" font-size="10.00">&lt; T &gt;::flow &gt;</text>
</a>
</g>
</g>
<!-- Node2&#45;&gt;Node3 -->
<g id="edge2_Node000002_Node000003" class="edge">
<title>Node2&#45;&gt;Node3</title>
<g id="a_edge2_Node000002_Node000003"><a xlink:title=" ">
<path fill="none" stroke="#63b8ff" d="M359.68,-196.36C394.09,-253.61 487.25,-392.39 609.25,-444.12 666.64,-468.46 693.29,-471.08 749.5,-444.12 754.31,-441.82 793.1,-392.22 817.9,-360.11"/>
<polygon fill="#63b8ff" stroke="#63b8ff" points="362.82,-194.79 354.72,-187.96 356.79,-198.35 362.82,-194.79"/>
</a>
</g>
</g>
<!-- Node5 -->
<g id="Node000005" class="node">
<title>Node5</title>
<g id="a_Node000005"><a xlink:href="structllvm_1_1yaml_1_1SequenceTraitsImpl.html" target="_top" xlink:title=" ">
<polygon fill="white" stroke="#666666" points="907.25,-486.62 772,-486.62 772,-433.62 907.25,-433.62 907.25,-486.62"/>
<text xml:space="preserve" text-anchor="start" x="780" y="-473.12" font-family="Helvetica,sans-Serif" font-size="10.00">llvm::yaml::SequenceTraits</text>
<text xml:space="preserve" text-anchor="start" x="780" y="-461.88" font-family="Helvetica,sans-Serif" font-size="10.00">Impl&lt; SmallVector&lt; T, N</text>
<text xml:space="preserve" text-anchor="start" x="780" y="-450.62" font-family="Helvetica,sans-Serif" font-size="10.00"> &gt;, SequenceElementTraits</text>
<text xml:space="preserve" text-anchor="middle" x="839.62" y="-439.38" font-family="Helvetica,sans-Serif" font-size="10.00">&lt; T &gt;::flow &gt;</text>
</a>
</g>
</g>
<!-- Node2&#45;&gt;Node5 -->
<g id="edge4_Node000002_Node000005" class="edge">
<title>Node2&#45;&gt;Node5</title>
<g id="a_edge4_Node000002_Node000005"><a xlink:title=" ">
<path fill="none" stroke="#63b8ff" d="M352.21,-197.89C365.35,-243.72 397.85,-337.82 456,-395.12 551.74,-489.48 615.22,-474.14 749.5,-468.12 756.64,-467.81 764.09,-467.34 771.51,-466.8"/>
<polygon fill="#63b8ff" stroke="#63b8ff" points="355.59,-196.98 349.55,-188.28 348.84,-198.85 355.59,-196.98"/>
</a>
</g>
</g>
<!-- Node7 -->
<g id="Node000007" class="node">
<title>Node7</title>
<g id="a_Node000007"><a xlink:href="structllvm_1_1yaml_1_1SequenceTraitsImpl.html" target="_top" xlink:title=" ">
<polygon fill="white" stroke="#666666" points="911.75,-171.62 767.5,-171.62 767.5,-118.62 911.75,-118.62 911.75,-171.62"/>
<text xml:space="preserve" text-anchor="start" x="775.5" y="-158.12" font-family="Helvetica,sans-Serif" font-size="10.00">llvm::yaml::SequenceTraits</text>
<text xml:space="preserve" text-anchor="start" x="775.5" y="-146.88" font-family="Helvetica,sans-Serif" font-size="10.00">Impl&lt; SmallVectorImpl&lt;</text>
<text xml:space="preserve" text-anchor="start" x="775.5" y="-135.62" font-family="Helvetica,sans-Serif" font-size="10.00"> T &gt;, SequenceElementTraits</text>
<text xml:space="preserve" text-anchor="middle" x="839.62" y="-124.38" font-family="Helvetica,sans-Serif" font-size="10.00">&lt; T &gt;::flow &gt;</text>
</a>
</g>
</g>
<!-- Node2&#45;&gt;Node7 -->
<g id="edge6_Node000002_Node000007" class="edge">
<title>Node2&#45;&gt;Node7</title>
<g id="a_edge6_Node000002_Node000007"><a xlink:title=" ">
<path fill="none" stroke="#63b8ff" d="M406.73,-151.45C410.92,-149.75 415.05,-147.97 419,-146.12 427.49,-142.15 428.61,-139.31 437,-135.12 510.67,-98.42 528.4,-82.51 609.25,-67.12 670.49,-55.48 691.15,-45.2 749.5,-67.12 776.64,-77.32 800.92,-99.95 817.26,-118.22"/>
<polygon fill="#63b8ff" stroke="#63b8ff" points="405.7,-148.1 397.63,-154.96 408.22,-154.63 405.7,-148.1"/>
</a>
</g>
</g>
<!-- Node9 -->
<g id="Node000009" class="node">
<title>Node9</title>
<g id="a_Node000009"><a xlink:href="structllvm_1_1yaml_1_1SequenceTraitsImpl.html" target="_top" xlink:title=" ">
<polygon fill="white" stroke="#666666" points="907.25,-58.62 772,-58.62 772,-5.62 907.25,-5.62 907.25,-58.62"/>
<text xml:space="preserve" text-anchor="start" x="780" y="-45.12" font-family="Helvetica,sans-Serif" font-size="10.00">llvm::yaml::SequenceTraits</text>
<text xml:space="preserve" text-anchor="start" x="780" y="-33.88" font-family="Helvetica,sans-Serif" font-size="10.00">Impl&lt; std::array&lt; T, N</text>
<text xml:space="preserve" text-anchor="start" x="780" y="-22.62" font-family="Helvetica,sans-Serif" font-size="10.00"> &gt;, SequenceElementTraits</text>
<text xml:space="preserve" text-anchor="middle" x="839.62" y="-11.38" font-family="Helvetica,sans-Serif" font-size="10.00">&lt; T &gt;::flow &gt;</text>
</a>
</g>
</g>
<!-- Node2&#45;&gt;Node9 -->
<g id="edge8_Node000002_Node000009" class="edge">
<title>Node2&#45;&gt;Node9</title>
<g id="a_edge8_Node000002_Node000009"><a xlink:title=" ">
<path fill="none" stroke="#63b8ff" d="M415.07,-149.36C416.43,-148.33 417.74,-147.25 419,-146.12 447.9,-120.28 424.48,-89.7 456,-67.12 549.13,-0.41 689.52,-7.46 771.84,-19.32"/>
<polygon fill="#63b8ff" stroke="#63b8ff" points="413.35,-146.3 406.83,-154.65 417.13,-152.19 413.35,-146.3"/>
</a>
</g>
</g>
<!-- Node11 -->
<g id="Node000011" class="node">
<title>Node11</title>
<g id="a_Node000011"><a xlink:href="structllvm_1_1yaml_1_1SequenceTraitsImpl.html" target="_top" xlink:title=" ">
<polygon fill="white" stroke="#666666" points="907.25,-269.62 772,-269.62 772,-216.62 907.25,-216.62 907.25,-269.62"/>
<text xml:space="preserve" text-anchor="start" x="780" y="-256.12" font-family="Helvetica,sans-Serif" font-size="10.00">llvm::yaml::SequenceTraits</text>
<text xml:space="preserve" text-anchor="start" x="780" y="-244.88" font-family="Helvetica,sans-Serif" font-size="10.00">Impl&lt; std::vector&lt; T &gt;,</text>
<text xml:space="preserve" text-anchor="start" x="780" y="-233.62" font-family="Helvetica,sans-Serif" font-size="10.00"> SequenceElementTraits&lt;</text>
<text xml:space="preserve" text-anchor="middle" x="839.62" y="-222.38" font-family="Helvetica,sans-Serif" font-size="10.00"> T &gt;::flow &gt;</text>
</a>
</g>
</g>
<!-- Node2&#45;&gt;Node11 -->
<g id="edge10_Node000002_Node000011" class="edge">
<title>Node2&#45;&gt;Node11</title>
<g id="a_edge10_Node000002_Node000011"><a xlink:title=" ">
<path fill="none" stroke="#63b8ff" d="M430.74,-161.5C532.02,-151.46 694,-140.14 749.5,-163.12 759.95,-167.45 759.23,-173.4 767.5,-181.12 780.19,-192.98 794.57,-205.64 807.06,-216.42"/>
<polygon fill="#63b8ff" stroke="#63b8ff" points="430.42,-158.01 420.82,-162.5 431.12,-164.98 430.42,-158.01"/>
</a>
</g>
</g>
<!-- Node13 -->
<g id="Node000013" class="node">
<title>Node13</title>
<g id="a_Node000013"><a xlink:href="structllvm_1_1yaml_1_1SequenceTraitsImpl.html" target="_top" xlink:title=" ">
<polygon fill="white" stroke="#666666" points="591.25,-248.38 456,-248.38 456,-217.88 591.25,-217.88 591.25,-248.38"/>
<text xml:space="preserve" text-anchor="start" x="464" y="-234.88" font-family="Helvetica,sans-Serif" font-size="10.00">llvm::yaml::SequenceTraits</text>
<text xml:space="preserve" text-anchor="middle" x="523.62" y="-223.62" font-family="Helvetica,sans-Serif" font-size="10.00">Impl&lt; T, Flow &gt;</text>
</a>
</g>
</g>
<!-- Node2&#45;&gt;Node13 -->
<g id="edge12_Node000002_Node000013" class="edge">
<title>Node2&#45;&gt;Node13</title>
<g id="a_edge12_Node000002_Node000013"><a xlink:title=" ">
<path fill="none" stroke="#63b8ff" d="M400.69,-190.5C425.43,-199.15 454.19,-209.21 477.57,-217.38"/>
<polygon fill="#63b8ff" stroke="#63b8ff" points="402.03,-187.27 391.44,-187.27 399.72,-193.87 402.03,-187.27"/>
</a>
</g>
</g>
<!-- Node4 -->
<g id="Node000004" class="node">
<title>Node4</title>
<g id="a_Node000004"><a xlink:href="structllvm_1_1yaml_1_1SequenceTraits_3_01MutableArrayRef_3_01T_01_4_00_01std_1_1enable__if__t_3_f24f6ce66c4f90d891f7dfa4954ed77a.html" target="_top" xlink:title=" ">
<polygon fill="white" stroke="#666666" points="1102,-365.25 948.75,-365.25 948.75,-301 1102,-301 1102,-365.25"/>
<text xml:space="preserve" text-anchor="start" x="956.75" y="-351.75" font-family="Helvetica,sans-Serif" font-size="10.00">llvm::yaml::SequenceTraits</text>
<text xml:space="preserve" text-anchor="start" x="956.75" y="-340.5" font-family="Helvetica,sans-Serif" font-size="10.00">&lt; MutableArrayRef&lt; T &gt;,</text>
<text xml:space="preserve" text-anchor="start" x="956.75" y="-329.25" font-family="Helvetica,sans-Serif" font-size="10.00"> std::enable_if_t&lt; CheckIsBool</text>
<text xml:space="preserve" text-anchor="start" x="956.75" y="-318" font-family="Helvetica,sans-Serif" font-size="10.00">&lt; SequenceElementTraits&lt; T &gt;</text>
<text xml:space="preserve" text-anchor="middle" x="1025.38" y="-306.75" font-family="Helvetica,sans-Serif" font-size="10.00">::flow &gt;::value &gt; &gt;</text>
</a>
</g>
</g>
<!-- Node3&#45;&gt;Node4 -->
<g id="edge3_Node000003_Node000004" class="edge">
<title>Node3&#45;&gt;Node4</title>
<g id="a_edge3_Node000003_Node000004"><a xlink:title=" ">
<path fill="none" stroke="#63b8ff" d="M923.46,-333.12C931.78,-333.12 940.2,-333.12 948.45,-333.12"/>
<polygon fill="#63b8ff" stroke="#63b8ff" points="923.71,-329.63 913.71,-333.13 923.71,-336.63 923.71,-329.63"/>
</a>
</g>
</g>
<!-- Node6 -->
<g id="Node000006" class="node">
<title>Node6</title>
<g id="a_Node000006"><a xlink:href="structllvm_1_1yaml_1_1SequenceTraits_3_01SmallVector_3_01T_00_01N_01_4_00_01std_1_1enable__if__t65a53480aa6bccfa704c6a284d9ba40f.html" target="_top" xlink:title=" ">
<polygon fill="white" stroke="#666666" points="1097.5,-492.25 953.25,-492.25 953.25,-428 1097.5,-428 1097.5,-492.25"/>
<text xml:space="preserve" text-anchor="start" x="961.25" y="-478.75" font-family="Helvetica,sans-Serif" font-size="10.00">llvm::yaml::SequenceTraits</text>
<text xml:space="preserve" text-anchor="start" x="961.25" y="-467.5" font-family="Helvetica,sans-Serif" font-size="10.00">&lt; SmallVector&lt; T, N &gt;, std</text>
<text xml:space="preserve" text-anchor="start" x="961.25" y="-456.25" font-family="Helvetica,sans-Serif" font-size="10.00">::enable_if_t&lt; CheckIsBool</text>
<text xml:space="preserve" text-anchor="start" x="961.25" y="-445" font-family="Helvetica,sans-Serif" font-size="10.00">&lt; SequenceElementTraits&lt; T</text>
<text xml:space="preserve" text-anchor="middle" x="1025.38" y="-433.75" font-family="Helvetica,sans-Serif" font-size="10.00"> &gt;::flow &gt;::value &gt; &gt;</text>
</a>
</g>
</g>
<!-- Node5&#45;&gt;Node6 -->
<g id="edge5_Node000005_Node000006" class="edge">
<title>Node5&#45;&gt;Node6</title>
<g id="a_edge5_Node000005_Node000006"><a xlink:title=" ">
<path fill="none" stroke="#63b8ff" d="M919.23,-460.12C930.38,-460.12 941.8,-460.12 952.8,-460.12"/>
<polygon fill="#63b8ff" stroke="#63b8ff" points="919.26,-456.63 909.26,-460.13 919.26,-463.63 919.26,-456.63"/>
</a>
</g>
</g>
<!-- Node8 -->
<g id="Node000008" class="node">
<title>Node8</title>
<g id="a_Node000008"><a xlink:href="structllvm_1_1yaml_1_1SequenceTraits_3_01SmallVectorImpl_3_01T_01_4_00_01std_1_1enable__if__t_3_9d8bfbb4232e976c6d29df942be31c8d.html" target="_top" xlink:title=" ">
<polygon fill="white" stroke="#666666" points="1102,-177.25 948.75,-177.25 948.75,-113 1102,-113 1102,-177.25"/>
<text xml:space="preserve" text-anchor="start" x="956.75" y="-163.75" font-family="Helvetica,sans-Serif" font-size="10.00">llvm::yaml::SequenceTraits</text>
<text xml:space="preserve" text-anchor="start" x="956.75" y="-152.5" font-family="Helvetica,sans-Serif" font-size="10.00">&lt; SmallVectorImpl&lt; T &gt;,</text>
<text xml:space="preserve" text-anchor="start" x="956.75" y="-141.25" font-family="Helvetica,sans-Serif" font-size="10.00"> std::enable_if_t&lt; CheckIsBool</text>
<text xml:space="preserve" text-anchor="start" x="956.75" y="-130" font-family="Helvetica,sans-Serif" font-size="10.00">&lt; SequenceElementTraits&lt; T &gt;</text>
<text xml:space="preserve" text-anchor="middle" x="1025.38" y="-118.75" font-family="Helvetica,sans-Serif" font-size="10.00">::flow &gt;::value &gt; &gt;</text>
</a>
</g>
</g>
<!-- Node7&#45;&gt;Node8 -->
<g id="edge7_Node000007_Node000008" class="edge">
<title>Node7&#45;&gt;Node8</title>
<g id="a_edge7_Node000007_Node000008"><a xlink:title=" ">
<path fill="none" stroke="#63b8ff" d="M923.46,-145.12C931.78,-145.12 940.2,-145.12 948.45,-145.12"/>
<polygon fill="#63b8ff" stroke="#63b8ff" points="923.71,-141.63 913.71,-145.13 923.71,-148.63 923.71,-141.63"/>
</a>
</g>
</g>
<!-- Node10 -->
<g id="Node000010" class="node">
<title>Node10</title>
<g id="a_Node000010"><a xlink:href="structllvm_1_1yaml_1_1SequenceTraits_3_01std_1_1array_3_01T_00_01N_01_4_00_01std_1_1enable__if__66a25bd20f0b903b2fbac5ef674ca369.html" target="_top" xlink:title=" ">
<polygon fill="white" stroke="#666666" points="1097.5,-64.25 953.25,-64.25 953.25,0 1097.5,0 1097.5,-64.25"/>
<text xml:space="preserve" text-anchor="start" x="961.25" y="-50.75" font-family="Helvetica,sans-Serif" font-size="10.00">llvm::yaml::SequenceTraits</text>
<text xml:space="preserve" text-anchor="start" x="961.25" y="-39.5" font-family="Helvetica,sans-Serif" font-size="10.00">&lt; std::array&lt; T, N &gt;, std</text>
<text xml:space="preserve" text-anchor="start" x="961.25" y="-28.25" font-family="Helvetica,sans-Serif" font-size="10.00">::enable_if_t&lt; CheckIsBool</text>
<text xml:space="preserve" text-anchor="start" x="961.25" y="-17" font-family="Helvetica,sans-Serif" font-size="10.00">&lt; SequenceElementTraits&lt; T</text>
<text xml:space="preserve" text-anchor="middle" x="1025.38" y="-5.75" font-family="Helvetica,sans-Serif" font-size="10.00"> &gt;::flow &gt;::value &gt; &gt;</text>
</a>
</g>
</g>
<!-- Node9&#45;&gt;Node10 -->
<g id="edge9_Node000009_Node000010" class="edge">
<title>Node9&#45;&gt;Node10</title>
<g id="a_edge9_Node000009_Node000010"><a xlink:title=" ">
<path fill="none" stroke="#63b8ff" d="M919.23,-32.12C930.38,-32.12 941.8,-32.12 952.8,-32.12"/>
<polygon fill="#63b8ff" stroke="#63b8ff" points="919.26,-28.63 909.26,-32.13 919.26,-35.63 919.26,-28.63"/>
</a>
</g>
</g>
<!-- Node12 -->
<g id="Node000012" class="node">
<title>Node12</title>
<g id="a_Node000012"><a xlink:href="structllvm_1_1yaml_1_1SequenceTraits_3_01std_1_1vector_3_01T_01_4_00_01std_1_1enable__if__t_3_014585d5c478c9232d1bcf184342d5b87f.html" target="_top" xlink:title=" ">
<polygon fill="white" stroke="#666666" points="1097.5,-275.25 953.25,-275.25 953.25,-211 1097.5,-211 1097.5,-275.25"/>
<text xml:space="preserve" text-anchor="start" x="961.25" y="-261.75" font-family="Helvetica,sans-Serif" font-size="10.00">llvm::yaml::SequenceTraits</text>
<text xml:space="preserve" text-anchor="start" x="961.25" y="-250.5" font-family="Helvetica,sans-Serif" font-size="10.00">&lt; std::vector&lt; T &gt;, std</text>
<text xml:space="preserve" text-anchor="start" x="961.25" y="-239.25" font-family="Helvetica,sans-Serif" font-size="10.00">::enable_if_t&lt; CheckIsBool</text>
<text xml:space="preserve" text-anchor="start" x="961.25" y="-228" font-family="Helvetica,sans-Serif" font-size="10.00">&lt; SequenceElementTraits&lt; T</text>
<text xml:space="preserve" text-anchor="middle" x="1025.38" y="-216.75" font-family="Helvetica,sans-Serif" font-size="10.00"> &gt;::flow &gt;::value &gt; &gt;</text>
</a>
</g>
</g>
<!-- Node11&#45;&gt;Node12 -->
<g id="edge11_Node000011_Node000012" class="edge">
<title>Node11&#45;&gt;Node12</title>
<g id="a_edge11_Node000011_Node000012"><a xlink:title=" ">
<path fill="none" stroke="#63b8ff" d="M919.23,-243.12C930.38,-243.12 941.8,-243.12 952.8,-243.12"/>
<polygon fill="#63b8ff" stroke="#63b8ff" points="919.26,-239.63 909.26,-243.13 919.26,-246.63 919.26,-239.63"/>
</a>
</g>
</g>
<!-- Node13&#45;&gt;Node3 -->
<g id="edge13_Node000013_Node000003" class="edge">
<title>Node13&#45;&gt;Node3</title>
<g id="a_edge13_Node000013_Node000003"><a xlink:title=" ">
<path fill="none" stroke="orange" stroke-dasharray="5,2" d="M550.78,-255.83C566.67,-268.43 587.95,-283.3 609.25,-292.12 637.19,-303.7 710.72,-315.74 767.07,-323.75"/>
<polygon fill="orange" stroke="orange" points="553.22,-253.3 543.26,-249.69 548.79,-258.72 553.22,-253.3"/>
</a>
</g>
<text xml:space="preserve" text-anchor="start" x="612.25" y="-356.23" font-family="Helvetica,sans-Serif" font-size="10.00" fill="grey">&lt; MutableArrayRef&lt;</text>
<text xml:space="preserve" text-anchor="start" x="612.25" y="-340.98" font-family="Helvetica,sans-Serif" font-size="10.00" fill="grey">   T &gt;, SequenceElementTraits</text>
<text xml:space="preserve" text-anchor="start" x="612.25" y="-325.73" font-family="Helvetica,sans-Serif" font-size="10.00" fill="grey">  &lt; T &gt;::flow &gt;</text>
</g>
<!-- Node13&#45;&gt;Node5 -->
<g id="edge14_Node000013_Node000005" class="edge">
<title>Node13&#45;&gt;Node5</title>
<g id="a_edge14_Node000013_Node000005"><a xlink:title=" ">
<path fill="none" stroke="orange" stroke-dasharray="5,2" d="M534.08,-258.89C546.72,-290.01 571.94,-342.03 609.25,-373.12 634.61,-394.26 713.34,-421.69 771.53,-440.05"/>
<polygon fill="orange" stroke="orange" points="537.45,-257.9 530.55,-249.86 530.93,-260.45 537.45,-257.9"/>
</a>
</g>
<text xml:space="preserve" text-anchor="start" x="616.75" y="-467.03" font-family="Helvetica,sans-Serif" font-size="10.00" fill="grey">&lt; SmallVector&lt; T, N</text>
<text xml:space="preserve" text-anchor="start" x="616.75" y="-451.78" font-family="Helvetica,sans-Serif" font-size="10.00" fill="grey">   &gt;, SequenceElementTraits</text>
<text xml:space="preserve" text-anchor="start" x="616.75" y="-436.53" font-family="Helvetica,sans-Serif" font-size="10.00" fill="grey">  &lt; T &gt;::flow &gt;</text>
</g>
<!-- Node13&#45;&gt;Node7 -->
<g id="edge15_Node000013_Node000007" class="edge">
<title>Node13&#45;&gt;Node7</title>
<g id="a_edge15_Node000013_Node000007"><a xlink:title=" ">
<path fill="none" stroke="orange" stroke-dasharray="5,2" d="M556.08,-211.44C571.48,-201.77 590.67,-191.07 609.25,-184.38 660.37,-165.94 721.09,-156.05 767.21,-150.8"/>
<polygon fill="orange" stroke="orange" points="554.32,-208.41 547.82,-216.77 558.12,-214.29 554.32,-208.41"/>
</a>
</g>
<text xml:space="preserve" text-anchor="start" x="612.25" y="-219.62" font-family="Helvetica,sans-Serif" font-size="10.00" fill="grey">&lt; SmallVectorImpl&lt;</text>
<text xml:space="preserve" text-anchor="start" x="612.25" y="-204.38" font-family="Helvetica,sans-Serif" font-size="10.00" fill="grey">   T &gt;, SequenceElementTraits</text>
<text xml:space="preserve" text-anchor="start" x="612.25" y="-189.12" font-family="Helvetica,sans-Serif" font-size="10.00" fill="grey">  &lt; T &gt;::flow &gt;</text>
</g>
<!-- Node13&#45;&gt;Node9 -->
<g id="edge16_Node000013_Node000009" class="edge">
<title>Node13&#45;&gt;Node9</title>
<g id="a_edge16_Node000013_Node000009"><a xlink:title=" ">
<path fill="none" stroke="orange" stroke-dasharray="5,2" d="M534.72,-207.13C547.6,-177.3 572.69,-128.97 609.25,-101.38 656.65,-65.6 722.51,-48.19 771.5,-39.79"/>
<polygon fill="orange" stroke="orange" points="531.56,-205.6 530.96,-216.18 538.03,-208.28 531.56,-205.6"/>
</a>
</g>
<text xml:space="preserve" text-anchor="start" x="616.75" y="-136.62" font-family="Helvetica,sans-Serif" font-size="10.00" fill="grey">&lt; std::array&lt; T, N</text>
<text xml:space="preserve" text-anchor="start" x="616.75" y="-121.38" font-family="Helvetica,sans-Serif" font-size="10.00" fill="grey">   &gt;, SequenceElementTraits</text>
<text xml:space="preserve" text-anchor="start" x="616.75" y="-106.12" font-family="Helvetica,sans-Serif" font-size="10.00" fill="grey">  &lt; T &gt;::flow &gt;</text>
</g>
<!-- Node13&#45;&gt;Node11 -->
<g id="edge17_Node000013_Node000011" class="edge">
<title>Node13&#45;&gt;Node11</title>
<g id="a_edge17_Node000013_Node000011"><a xlink:title=" ">
<path fill="none" stroke="orange" stroke-dasharray="5,2" d="M603.1,-235.62C655.03,-237.28 722.38,-239.42 771.75,-241"/>
<polygon fill="orange" stroke="orange" points="603.22,-232.13 593.11,-235.31 603,-239.12 603.22,-232.13"/>
</a>
</g>
<text xml:space="preserve" text-anchor="start" x="622.75" y="-275.42" font-family="Helvetica,sans-Serif" font-size="10.00" fill="grey">&lt; std::vector&lt; T &gt;,</text>
<text xml:space="preserve" text-anchor="start" x="622.75" y="-260.17" font-family="Helvetica,sans-Serif" font-size="10.00" fill="grey">   SequenceElementTraits</text>
<text xml:space="preserve" text-anchor="start" x="622.75" y="-244.92" font-family="Helvetica,sans-Serif" font-size="10.00" fill="grey">  &lt; T &gt;::flow &gt;</text>
</g>
</g>
</svg>
