<?xml version="1.0" encoding="UTF-8" standalone="no"?>
<!DOCTYPE svg PUBLIC "-//W3C//DTD SVG 1.1//EN"
 "http://www.w3.org/Graphics/SVG/1.1/DTD/svg11.dtd">
<!-- Generated by graphviz version 13.1.2 (20250808.2320)
 -->
<!-- Title: llvm::yaml::SequenceTraits&lt; SmallVector&lt; T, N &gt;, std::enable_if_t&lt; CheckIsBool&lt; SequenceElementTraits&lt; T &gt;::flow &gt;::value &gt; &gt; Pages: 1 -->
<svg width="1248pt" height="179pt"
 viewBox="0.00 0.00 1248.00 179.00" xmlns="http://www.w3.org/2000/svg" xmlns:xlink="http://www.w3.org/1999/xlink">
<g id="graph0" class="graph" transform="scale(1 1) rotate(0) translate(4 174.75)">
<title>llvm::yaml::SequenceTraits&lt; SmallVector&lt; T, N &gt;, std::enable_if_t&lt; CheckIsBool&lt; SequenceElementTraits&lt; T &gt;::flow &gt;::value &gt; &gt;</title>
<!-- Node1 -->
<g id="Node000001" class="node">
<title>Node1</title>
<g id="a_Node000001"><a xlink:title=" ">
<polygon fill="#999999" stroke="#666666" points="1239.75,-86.38 1095.5,-86.38 1095.5,-22.12 1239.75,-22.12 1239.75,-86.38"/>
<text xml:space="preserve" text-anchor="start" x="1103.5" y="-72.88" font-family="Helvetica,sans-Serif" font-size="10.00">llvm::yaml::SequenceTraits</text>
<text xml:space="preserve" text-anchor="start" x="1103.5" y="-61.62" font-family="Helvetica,sans-Serif" font-size="10.00">&lt; SmallVector&lt; T, N &gt;, std</text>
<text xml:space="preserve" text-anchor="start" x="1103.5" y="-50.38" font-family="Helvetica,sans-Serif" font-size="10.00">::enable_if_t&lt; CheckIsBool</text>
<text xml:space="preserve" text-anchor="start" x="1103.5" y="-39.12" font-family="Helvetica,sans-Serif" font-size="10.00">&lt; SequenceElementTraits&lt; T</text>
<text xml:space="preserve" text-anchor="middle" x="1167.62" y="-27.88" font-family="Helvetica,sans-Serif" font-size="10.00"> &gt;::flow &gt;::value &gt; &gt;</text>
</a>
</g>
</g>
<!-- Node2 -->
<g id="Node000002" class="node">
<title>Node2</title>
<g id="a_Node000002"><a xlink:href="structllvm_1_1yaml_1_1SequenceTraitsImpl.html" target="_top" xlink:title=" ">
<polygon fill="white" stroke="#666666" points="893.75,-119.75 758.5,-119.75 758.5,-66.75 893.75,-66.75 893.75,-119.75"/>
<text xml:space="preserve" text-anchor="start" x="766.5" y="-106.25" font-family="Helvetica,sans-Serif" font-size="10.00">llvm::yaml::SequenceTraits</text>
<text xml:space="preserve" text-anchor="start" x="766.5" y="-95" font-family="Helvetica,sans-Serif" font-size="10.00">Impl&lt; SmallVector&lt; T, N</text>
<text xml:space="preserve" text-anchor="start" x="766.5" y="-83.75" font-family="Helvetica,sans-Serif" font-size="10.00"> &gt;, SequenceElementTraits</text>
<text xml:space="preserve" text-anchor="middle" x="826.12" y="-72.5" font-family="Helvetica,sans-Serif" font-size="10.00">&lt; T &gt;::flow &gt;</text>
</a>
</g>
</g>
<!-- Node2&#45;&gt;Node1 -->
<g id="edge1_Node000001_Node000002" class="edge">
<title>Node2&#45;&gt;Node1</title>
<g id="a_edge1_Node000001_Node000002"><a xlink:title=" ">
<path fill="none" stroke="#63b8ff" d="M905.54,-93.23C955.13,-92.14 1020.42,-88.73 1077.5,-79.25 1083.37,-78.28 1089.4,-77.06 1095.42,-75.69"/>
<polygon fill="#63b8ff" stroke="#63b8ff" points="905.69,-89.73 895.76,-93.42 905.82,-96.73 905.69,-89.73"/>
</a>
</g>
</g>
<!-- Node3 -->
<g id="Node000003" class="node">
<title>Node3</title>
<g id="a_Node000003"><a xlink:href="structllvm_1_1yaml_1_1IsFlowSequenceBase.html" target="_top" xlink:title=" ">
<polygon fill="white" stroke="#666666" points="414.12,-96.5 274.38,-96.5 274.38,-66 414.12,-66 414.12,-96.5"/>
<text xml:space="preserve" text-anchor="start" x="282.38" y="-83" font-family="Helvetica,sans-Serif" font-size="10.00">llvm::yaml::IsFlowSequence</text>
<text xml:space="preserve" text-anchor="middle" x="344.25" y="-71.75" font-family="Helvetica,sans-Serif" font-size="10.00">Base&lt; Flow &gt;</text>
</a>
</g>
</g>
<!-- Node3&#45;&gt;Node2 -->
<g id="edge2_Node000002_Node000003" class="edge">
<title>Node3&#45;&gt;Node2</title>
<g id="a_edge2_Node000002_Node000003"><a xlink:title=" ">
<path fill="none" stroke="#63b8ff" d="M425.78,-79.63C435.95,-79.47 446.22,-79.34 456,-79.25 516.11,-78.71 531.17,-77.45 591.25,-79.25 647.56,-80.93 711.4,-84.89 758.13,-88.17"/>
<polygon fill="#63b8ff" stroke="#63b8ff" points="425.82,-76.12 415.88,-79.78 425.94,-83.12 425.82,-76.12"/>
</a>
</g>
</g>
<!-- Node7 -->
<g id="Node000007" class="node">
<title>Node7</title>
<g id="a_Node000007"><a xlink:href="structllvm_1_1yaml_1_1SequenceTraitsImpl.html" target="_top" xlink:title=" ">
<polygon fill="white" stroke="#666666" points="591.25,-118.5 456,-118.5 456,-88 591.25,-88 591.25,-118.5"/>
<text xml:space="preserve" text-anchor="start" x="464" y="-105" font-family="Helvetica,sans-Serif" font-size="10.00">llvm::yaml::SequenceTraits</text>
<text xml:space="preserve" text-anchor="middle" x="523.62" y="-93.75" font-family="Helvetica,sans-Serif" font-size="10.00">Impl&lt; T, Flow &gt;</text>
</a>
</g>
</g>
<!-- Node3&#45;&gt;Node7 -->
<g id="edge7_Node000007_Node000003" class="edge">
<title>Node3&#45;&gt;Node7</title>
<g id="a_edge7_Node000007_Node000003"><a xlink:title=" ">
<path fill="none" stroke="#63b8ff" d="M425.78,-91.24C435.77,-92.48 445.9,-93.73 455.66,-94.94"/>
<polygon fill="#63b8ff" stroke="#63b8ff" points="426.45,-87.79 416.09,-90.04 425.59,-94.74 426.45,-87.79"/>
</a>
</g>
</g>
<!-- Node4 -->
<g id="Node000004" class="node">
<title>Node4</title>
<g id="a_Node000004"><a xlink:href="structllvm_1_1yaml_1_1IsFlowSequenceBase.html" target="_top" xlink:title=" ">
<polygon fill="white" stroke="#666666" points="140.5,-96.5 0.75,-96.5 0.75,-66 140.5,-66 140.5,-96.5"/>
<text xml:space="preserve" text-anchor="start" x="8.75" y="-83" font-family="Helvetica,sans-Serif" font-size="10.00">llvm::yaml::IsFlowSequence</text>
<text xml:space="preserve" text-anchor="middle" x="70.62" y="-71.75" font-family="Helvetica,sans-Serif" font-size="10.00">Base&lt; B &gt;</text>
</a>
</g>
</g>
<!-- Node4&#45;&gt;Node3 -->
<g id="edge3_Node000003_Node000004" class="edge">
<title>Node4&#45;&gt;Node3</title>
<g id="a_edge3_Node000003_Node000004"><a xlink:title=" ">
<path fill="none" stroke="orange" stroke-dasharray="5,2" d="M152.13,-81.25C190.91,-81.25 236.96,-81.25 274.13,-81.25"/>
<polygon fill="orange" stroke="orange" points="152.38,-77.75 142.38,-81.25 152.38,-84.75 152.38,-77.75"/>
</a>
</g>
<text xml:space="preserve" text-anchor="start" x="185.88" y="-86" font-family="Helvetica,sans-Serif" font-size="10.00" fill="grey">&lt; Flow &gt;</text>
</g>
<!-- Node5 -->
<g id="Node000005" class="node">
<title>Node5</title>
<g id="a_Node000005"><a xlink:href="structllvm_1_1yaml_1_1IsResizableBase.html" target="_top" xlink:title=" ">
<polygon fill="white" stroke="#666666" points="419,-153.5 269.5,-153.5 269.5,-123 419,-123 419,-153.5"/>
<text xml:space="preserve" text-anchor="start" x="277.5" y="-140" font-family="Helvetica,sans-Serif" font-size="10.00">llvm::yaml::IsResizableBase</text>
<text xml:space="preserve" text-anchor="middle" x="344.25" y="-128.75" font-family="Helvetica,sans-Serif" font-size="10.00">&lt; T, IsResizable&lt; T &gt;::value &gt;</text>
</a>
</g>
</g>
<!-- Node5&#45;&gt;Node2 -->
<g id="edge4_Node000002_Node000005" class="edge">
<title>Node5&#45;&gt;Node2</title>
<g id="a_edge4_Node000002_Node000005"><a xlink:title=" ">
<path fill="none" stroke="#63b8ff" d="M430.38,-152.15C511.57,-162.38 636.54,-170.18 740.5,-142.25 757.22,-137.76 774.06,-129.07 788.25,-120.24"/>
<polygon fill="#63b8ff" stroke="#63b8ff" points="431.09,-148.71 420.72,-150.89 430.18,-155.65 431.09,-148.71"/>
</a>
</g>
</g>
<!-- Node5&#45;&gt;Node7 -->
<g id="edge8_Node000007_Node000005" class="edge">
<title>Node5&#45;&gt;Node7</title>
<g id="a_edge8_Node000007_Node000005"><a xlink:title=" ">
<path fill="none" stroke="#63b8ff" d="M430.74,-121.38C439.06,-119.74 447.41,-118.09 455.51,-116.49"/>
<polygon fill="#63b8ff" stroke="#63b8ff" points="430.06,-117.95 420.93,-123.32 431.42,-124.81 430.06,-117.95"/>
</a>
</g>
</g>
<!-- Node6 -->
<g id="Node000006" class="node">
<title>Node6</title>
<g id="a_Node000006"><a xlink:href="structllvm_1_1yaml_1_1IsResizableBase.html" target="_top" xlink:title=" ">
<polygon fill="white" stroke="#666666" points="141.25,-153.5 0,-153.5 0,-123 141.25,-123 141.25,-153.5"/>
<text xml:space="preserve" text-anchor="start" x="8" y="-140" font-family="Helvetica,sans-Serif" font-size="10.00">llvm::yaml::IsResizableBase</text>
<text xml:space="preserve" text-anchor="middle" x="70.62" y="-128.75" font-family="Helvetica,sans-Serif" font-size="10.00">&lt; T, B &gt;</text>
</a>
</g>
</g>
<!-- Node6&#45;&gt;Node5 -->
<g id="edge5_Node000005_Node000006" class="edge">
<title>Node6&#45;&gt;Node5</title>
<g id="a_edge5_Node000005_Node000006"><a xlink:title=" ">
<path fill="none" stroke="orange" stroke-dasharray="5,2" d="M152.82,-138.25C189.78,-138.25 233.21,-138.25 269.26,-138.25"/>
<polygon fill="orange" stroke="orange" points="153.09,-134.75 143.09,-138.25 153.09,-141.75 153.09,-134.75"/>
</a>
</g>
<text xml:space="preserve" text-anchor="start" x="162.25" y="-158.25" font-family="Helvetica,sans-Serif" font-size="10.00" fill="grey">&lt; T, IsResizable&lt; T</text>
<text xml:space="preserve" text-anchor="start" x="162.25" y="-143" font-family="Helvetica,sans-Serif" font-size="10.00" fill="grey">   &gt;::value &gt;</text>
</g>
<!-- Node7&#45;&gt;Node2 -->
<g id="edge6_Node000002_Node000007" class="edge">
<title>Node7&#45;&gt;Node2</title>
<g id="a_edge6_Node000002_Node000007"><a xlink:title=" ">
<path fill="none" stroke="orange" stroke-dasharray="5,2" d="M602.98,-94.88C605.09,-94.74 607.18,-94.61 609.25,-94.5 659.21,-91.78 715.77,-91.56 758.46,-91.97"/>
<polygon fill="orange" stroke="orange" points="602.78,-91.38 593.07,-95.61 603.3,-98.36 602.78,-91.38"/>
</a>
</g>
<text xml:space="preserve" text-anchor="start" x="612.25" y="-129.75" font-family="Helvetica,sans-Serif" font-size="10.00" fill="grey">&lt; SmallVector&lt; T, N</text>
<text xml:space="preserve" text-anchor="start" x="612.25" y="-114.5" font-family="Helvetica,sans-Serif" font-size="10.00" fill="grey">   &gt;, SequenceElementTraits</text>
<text xml:space="preserve" text-anchor="start" x="612.25" y="-99.25" font-family="Helvetica,sans-Serif" font-size="10.00" fill="grey">  &lt; T &gt;::flow &gt;</text>
</g>
<!-- Node8 -->
<g id="Node000008" class="node">
<title>Node8</title>
<g id="a_Node000008"><a xlink:href="structllvm_1_1yaml_1_1SequenceTraits.html" target="_top" xlink:title="This class should be specialized by any type that needs to be converted to/from a YAML sequence.">
<polygon fill="white" stroke="#666666" points="893.75,-30.5 758.5,-30.5 758.5,0 893.75,0 893.75,-30.5"/>
<text xml:space="preserve" text-anchor="start" x="766.5" y="-17" font-family="Helvetica,sans-Serif" font-size="10.00">llvm::yaml::SequenceTraits</text>
<text xml:space="preserve" text-anchor="middle" x="826.12" y="-5.75" font-family="Helvetica,sans-Serif" font-size="10.00">&lt; T, EnableIf &gt;</text>
</a>
</g>
</g>
<!-- Node8&#45;&gt;Node1 -->
<g id="edge9_Node000001_Node000008" class="edge">
<title>Node8&#45;&gt;Node1</title>
<g id="a_edge9_Node000001_Node000008"><a xlink:title=" ">
<path fill="none" stroke="orange" stroke-dasharray="5,2" d="M905.5,-5.13C955.35,-0.93 1020.93,0.41 1077.5,-12.25 1087.18,-14.42 1097.05,-17.76 1106.53,-21.63"/>
<polygon fill="orange" stroke="orange" points="905.3,-1.63 895.66,-6.02 905.93,-8.6 905.3,-1.63"/>
</a>
</g>
<text xml:space="preserve" text-anchor="start" x="914.75" y="-62.75" font-family="Helvetica,sans-Serif" font-size="10.00" fill="grey">&lt; SmallVector&lt; T, N</text>
<text xml:space="preserve" text-anchor="start" x="914.75" y="-47.5" font-family="Helvetica,sans-Serif" font-size="10.00" fill="grey">   &gt;, std::enable_if_t</text>
<text xml:space="preserve" text-anchor="start" x="914.75" y="-32.25" font-family="Helvetica,sans-Serif" font-size="10.00" fill="grey">  &lt; CheckIsBool&lt; SequenceElement</text>
<text xml:space="preserve" text-anchor="start" x="914.75" y="-17" font-family="Helvetica,sans-Serif" font-size="10.00" fill="grey">  Traits&lt; T &gt;::flow &gt;::value &gt; &gt;</text>
</g>
</g>
</svg>
