<?xml version="1.0" encoding="UTF-8" standalone="no"?>
<!DOCTYPE svg PUBLIC "-//W3C//DTD SVG 1.1//EN"
 "http://www.w3.org/Graphics/SVG/1.1/DTD/svg11.dtd">
<!-- Generated by graphviz version 13.1.2 (20250808.2320)
 -->
<!-- Title: llvm::jitlink::CompactUnwindTraits&lt; CRTPImpl, PtrSize &gt; Pages: 1 -->
<svg width="626pt" height="112pt"
 viewBox="0.00 0.00 626.00 112.00" xmlns="http://www.w3.org/2000/svg" xmlns:xlink="http://www.w3.org/1999/xlink">
<g id="graph0" class="graph" transform="scale(1 1) rotate(0) translate(4 107.67)">
<title>llvm::jitlink::CompactUnwindTraits&lt; CRTPImpl, PtrSize &gt;</title>
<!-- Node1 -->
<g id="Node000001" class="node">
<title>Node1</title>
<g id="a_Node000001"><a xlink:title="CRTP base for compact unwind traits classes.">
<polygon fill="#999999" stroke="#666666" points="143.5,-66.12 0,-66.12 0,-35.62 143.5,-35.62 143.5,-66.12"/>
<text xml:space="preserve" text-anchor="start" x="8" y="-52.62" font-family="Helvetica,sans-Serif" font-size="10.00">llvm::jitlink::CompactUnwind</text>
<text xml:space="preserve" text-anchor="middle" x="71.75" y="-41.38" font-family="Helvetica,sans-Serif" font-size="10.00">Traits&lt; CRTPImpl, PtrSize &gt;</text>
</a>
</g>
</g>
<!-- Node2 -->
<g id="Node000002" class="node">
<title>Node2</title>
<g id="a_Node000002"><a xlink:href="structllvm_1_1jitlink_1_1CompactUnwindTraits.html" target="_top" xlink:title=" ">
<polygon fill="white" stroke="#666666" points="439.25,-101.75 292,-101.75 292,-60 439.25,-60 439.25,-101.75"/>
<text xml:space="preserve" text-anchor="start" x="300" y="-88.25" font-family="Helvetica,sans-Serif" font-size="10.00">llvm::jitlink::CompactUnwind</text>
<text xml:space="preserve" text-anchor="start" x="300" y="-77" font-family="Helvetica,sans-Serif" font-size="10.00">Traits&lt; CompactUnwindTraits</text>
<text xml:space="preserve" text-anchor="middle" x="365.62" y="-65.75" font-family="Helvetica,sans-Serif" font-size="10.00">_MachO_arm64, 8 &gt;</text>
</a>
</g>
</g>
<!-- Node1&#45;&gt;Node2 -->
<g id="edge1_Node000001_Node000002" class="edge">
<title>Node1&#45;&gt;Node2</title>
<g id="a_edge1_Node000001_Node000002"><a xlink:title=" ">
<path fill="none" stroke="orange" stroke-dasharray="5,2" d="M155.07,-59.34C198.07,-63.76 250.23,-69.12 291.75,-73.38"/>
<polygon fill="orange" stroke="orange" points="155.59,-55.87 145.28,-58.33 154.87,-62.83 155.59,-55.87"/>
</a>
</g>
<text xml:space="preserve" text-anchor="start" x="164.5" y="-91.17" font-family="Helvetica,sans-Serif" font-size="10.00" fill="grey">&lt; CompactUnwindTraits</text>
<text xml:space="preserve" text-anchor="start" x="164.5" y="-75.92" font-family="Helvetica,sans-Serif" font-size="10.00" fill="grey">  _MachO_arm64, 8 &gt;</text>
</g>
<!-- Node4 -->
<g id="Node000004" class="node">
<title>Node4</title>
<g id="a_Node000004"><a xlink:href="structllvm_1_1jitlink_1_1CompactUnwindTraits.html" target="_top" xlink:title=" ">
<polygon fill="white" stroke="#666666" points="439.25,-41.75 292,-41.75 292,0 439.25,0 439.25,-41.75"/>
<text xml:space="preserve" text-anchor="start" x="300" y="-28.25" font-family="Helvetica,sans-Serif" font-size="10.00">llvm::jitlink::CompactUnwind</text>
<text xml:space="preserve" text-anchor="start" x="300" y="-17" font-family="Helvetica,sans-Serif" font-size="10.00">Traits&lt; CompactUnwindTraits</text>
<text xml:space="preserve" text-anchor="middle" x="365.62" y="-5.75" font-family="Helvetica,sans-Serif" font-size="10.00">_MachO_x86_64, 8 &gt;</text>
</a>
</g>
</g>
<!-- Node1&#45;&gt;Node4 -->
<g id="edge3_Node000001_Node000004" class="edge">
<title>Node1&#45;&gt;Node4</title>
<g id="a_edge3_Node000001_Node000004"><a xlink:title=" ">
<path fill="none" stroke="orange" stroke-dasharray="5,2" d="M127.37,-32.03C138.53,-28.9 150.3,-26.11 161.5,-24.38 204.37,-17.73 252.94,-16.67 291.83,-17.35"/>
<polygon fill="orange" stroke="orange" points="126.5,-28.64 117.9,-34.82 128.48,-35.35 126.5,-28.64"/>
</a>
</g>
<text xml:space="preserve" text-anchor="start" x="164.5" y="-44.38" font-family="Helvetica,sans-Serif" font-size="10.00" fill="grey">&lt; CompactUnwindTraits</text>
<text xml:space="preserve" text-anchor="start" x="164.5" y="-29.12" font-family="Helvetica,sans-Serif" font-size="10.00" fill="grey">  _MachO_x86_64, 8 &gt;</text>
</g>
<!-- Node3 -->
<g id="Node000003" class="node">
<title>Node3</title>
<g id="a_Node000003"><a xlink:href="structllvm_1_1jitlink_1_1CompactUnwindTraits__MachO__arm64.html" target="_top" xlink:title=" ">
<polygon fill="white" stroke="#666666" points="617.5,-96.12 476.25,-96.12 476.25,-65.62 617.5,-65.62 617.5,-96.12"/>
<text xml:space="preserve" text-anchor="start" x="484.25" y="-82.62" font-family="Helvetica,sans-Serif" font-size="10.00">llvm::jitlink::CompactUnwind</text>
<text xml:space="preserve" text-anchor="middle" x="546.88" y="-71.38" font-family="Helvetica,sans-Serif" font-size="10.00">Traits_MachO_arm64</text>
</a>
</g>
</g>
<!-- Node2&#45;&gt;Node3 -->
<g id="edge2_Node000002_Node000003" class="edge">
<title>Node2&#45;&gt;Node3</title>
<g id="a_edge2_Node000002_Node000003"><a xlink:title=" ">
<path fill="none" stroke="#63b8ff" d="M450.89,-80.88C459.28,-80.88 467.72,-80.88 475.93,-80.88"/>
<polygon fill="#63b8ff" stroke="#63b8ff" points="451.05,-77.38 441.05,-80.88 451.05,-84.38 451.05,-77.38"/>
</a>
</g>
</g>
<!-- Node5 -->
<g id="Node000005" class="node">
<title>Node5</title>
<g id="a_Node000005"><a xlink:href="structllvm_1_1jitlink_1_1CompactUnwindTraits__MachO__x86__64.html" target="_top" xlink:title=" ">
<polygon fill="white" stroke="#666666" points="617.5,-36.12 476.25,-36.12 476.25,-5.62 617.5,-5.62 617.5,-36.12"/>
<text xml:space="preserve" text-anchor="start" x="484.25" y="-22.62" font-family="Helvetica,sans-Serif" font-size="10.00">llvm::jitlink::CompactUnwind</text>
<text xml:space="preserve" text-anchor="middle" x="546.88" y="-11.38" font-family="Helvetica,sans-Serif" font-size="10.00">Traits_MachO_x86_64</text>
</a>
</g>
</g>
<!-- Node4&#45;&gt;Node5 -->
<g id="edge4_Node000004_Node000005" class="edge">
<title>Node4&#45;&gt;Node5</title>
<g id="a_edge4_Node000004_Node000005"><a xlink:title=" ">
<path fill="none" stroke="#63b8ff" d="M450.89,-20.88C459.28,-20.88 467.72,-20.88 475.93,-20.88"/>
<polygon fill="#63b8ff" stroke="#63b8ff" points="451.05,-17.38 441.05,-20.88 451.05,-24.38 451.05,-17.38"/>
</a>
</g>
</g>
</g>
</svg>
