<?xml version="1.0" encoding="UTF-8" standalone="no"?>
<!DOCTYPE svg PUBLIC "-//W3C//DTD SVG 1.1//EN"
 "http://www.w3.org/Graphics/SVG/1.1/DTD/svg11.dtd">
<!-- Generated by graphviz version 14.1.3 (20260303.0454)
 -->
<!-- Title: llvm::AllocatorList&lt; T, AllocatorT &gt; Pages: 1 -->
<svg width="672pt" height="110pt"
 viewBox="0.00 0.00 672.00 110.00" xmlns="http://www.w3.org/2000/svg" xmlns:xlink="http://www.w3.org/1999/xlink">
<g id="graph0" class="graph" transform="scale(1 1) rotate(0) translate(4 105.75)">
<title>llvm::AllocatorList&lt; T, AllocatorT &gt;</title>
<!-- Node1 -->
<g id="Node000001" class="node">
<title>Node1</title>
<g id="a_Node000001"><a xlink:title="A linked&#45;list with a custom, local allocator.">
<polygon fill="#999999" stroke="#666666" points="191.25,-66.12 97.25,-66.12 97.25,-35.62 191.25,-35.62 191.25,-66.12"/>
<text xml:space="preserve" text-anchor="start" x="105.25" y="-52.62" font-family="Helvetica,sans-Serif" font-size="10.00">llvm::AllocatorList</text>
<text xml:space="preserve" text-anchor="middle" x="144.25" y="-41.38" font-family="Helvetica,sans-Serif" font-size="10.00">&lt; T, AllocatorT &gt;</text>
</a>
</g>
</g>
<!-- Node3 -->
<g id="Node000003" class="node">
<title>Node3</title>
<g id="a_Node000003"><a xlink:href="classllvm_1_1AllocatorList.html" target="_top" xlink:title=" ">
<polygon fill="white" stroke="#666666" points="459.25,-66.12 338.25,-66.12 338.25,-35.62 459.25,-35.62 459.25,-66.12"/>
<text xml:space="preserve" text-anchor="start" x="346.25" y="-52.62" font-family="Helvetica,sans-Serif" font-size="10.00">llvm::AllocatorList</text>
<text xml:space="preserve" text-anchor="middle" x="398.75" y="-41.38" font-family="Helvetica,sans-Serif" font-size="10.00">&lt; T, BumpPtrAllocator &gt;</text>
</a>
</g>
</g>
<!-- Node1&#45;&gt;Node3 -->
<g id="edge2_Node000001_Node000003" class="edge">
<title>Node1&#45;&gt;Node3</title>
<g id="a_edge2_Node000001_Node000003"><a xlink:title=" ">
<path fill="none" stroke="orange" stroke-dasharray="5,2" d="M202.83,-50.88C243.2,-50.88 297.03,-50.88 337.9,-50.88"/>
<polygon fill="orange" stroke="orange" points="203.08,-47.38 193.08,-50.88 203.08,-54.38 203.08,-47.38"/>
</a>
</g>
<text xml:space="preserve" text-anchor="start" x="212.25" y="-56.88" font-family="Helvetica,sans-Serif" font-size="10.00" fill="grey">&lt; T, BumpPtrAllocator &gt;</text>
</g>
<!-- Node2 -->
<g id="Node000002" class="node">
<title>Node2</title>
<g id="a_Node000002"><a xlink:title=" ">
<polygon fill="white" stroke="#666666" points="60.25,-60.5 0,-60.5 0,-41.25 60.25,-41.25 60.25,-60.5"/>
<text xml:space="preserve" text-anchor="middle" x="30.12" y="-47" font-family="Helvetica,sans-Serif" font-size="10.00">AllocatorT</text>
</a>
</g>
</g>
<!-- Node2&#45;&gt;Node1 -->
<g id="edge1_Node000001_Node000002" class="edge">
<title>Node2&#45;&gt;Node1</title>
<g id="a_edge1_Node000001_Node000002"><a xlink:title=" ">
<path fill="none" stroke="#8b1a1a" d="M72.07,-50.88C80.2,-50.88 88.78,-50.88 97.07,-50.88"/>
<polygon fill="#8b1a1a" stroke="#8b1a1a" points="72.1,-47.38 62.1,-50.88 72.1,-54.38 72.1,-47.38"/>
</a>
</g>
</g>
<!-- Node4 -->
<g id="Node000004" class="node">
<title>Node4</title>
<g id="a_Node000004"><a xlink:href="classllvm_1_1AllocatorList.html" target="_top" xlink:title=" ">
<polygon fill="white" stroke="#666666" points="663.5,-101.75 551.5,-101.75 551.5,-60 663.5,-60 663.5,-101.75"/>
<text xml:space="preserve" text-anchor="start" x="559.5" y="-88.25" font-family="Helvetica,sans-Serif" font-size="10.00">llvm::AllocatorList</text>
<text xml:space="preserve" text-anchor="start" x="559.5" y="-77" font-family="Helvetica,sans-Serif" font-size="10.00">&lt; T, BumpPtrAllocator</text>
<text xml:space="preserve" text-anchor="middle" x="607.5" y="-65.75" font-family="Helvetica,sans-Serif" font-size="10.00"> &gt;&lt; Addend &gt;</text>
</a>
</g>
</g>
<!-- Node3&#45;&gt;Node4 -->
<g id="edge3_Node000003_Node000004" class="edge">
<title>Node3&#45;&gt;Node4</title>
<g id="a_edge3_Node000003_Node000004"><a xlink:title=" ">
<path fill="none" stroke="orange" stroke-dasharray="5,2" d="M470.61,-61.16C496.92,-64.97 526.35,-69.25 551.08,-72.83"/>
<polygon fill="orange" stroke="orange" points="471.45,-57.74 461.05,-59.77 470.44,-64.67 471.45,-57.74"/>
</a>
</g>
<text xml:space="preserve" text-anchor="start" x="480.25" y="-75.44" font-family="Helvetica,sans-Serif" font-size="10.00" fill="grey">&lt; Addend &gt;</text>
</g>
<!-- Node5 -->
<g id="Node000005" class="node">
<title>Node5</title>
<g id="a_Node000005"><a xlink:href="classllvm_1_1AllocatorList.html" target="_top" xlink:title=" ">
<polygon fill="white" stroke="#666666" points="663.5,-41.75 551.5,-41.75 551.5,0 663.5,0 663.5,-41.75"/>
<text xml:space="preserve" text-anchor="start" x="559.5" y="-28.25" font-family="Helvetica,sans-Serif" font-size="10.00">llvm::AllocatorList</text>
<text xml:space="preserve" text-anchor="start" x="559.5" y="-17" font-family="Helvetica,sans-Serif" font-size="10.00">&lt; T, BumpPtrAllocator</text>
<text xml:space="preserve" text-anchor="middle" x="607.5" y="-5.75" font-family="Helvetica,sans-Serif" font-size="10.00"> &gt;&lt; Token &gt;</text>
</a>
</g>
</g>
<!-- Node3&#45;&gt;Node5 -->
<g id="edge4_Node000003_Node000005" class="edge">
<title>Node3&#45;&gt;Node5</title>
<g id="a_edge4_Node000003_Node000005"><a xlink:title=" ">
<path fill="none" stroke="orange" stroke-dasharray="5,2" d="M470.61,-40.59C496.92,-36.78 526.35,-32.5 551.08,-28.92"/>
<polygon fill="orange" stroke="orange" points="470.44,-37.08 461.05,-41.98 471.45,-44.01 470.44,-37.08"/>
</a>
</g>
<text xml:space="preserve" text-anchor="start" x="483.25" y="-45.44" font-family="Helvetica,sans-Serif" font-size="10.00" fill="grey">&lt; Token &gt;</text>
</g>
</g>
</svg>
