<?xml version="1.0" encoding="UTF-8" standalone="no"?>
<!DOCTYPE svg PUBLIC "-//W3C//DTD SVG 1.1//EN"
 "http://www.w3.org/Graphics/SVG/1.1/DTD/svg11.dtd">
<!-- Generated by graphviz version 14.1.3 (20260303.0454)
 -->
<!-- Title: llvm::RegionBase&lt; Tr &gt; Pages: 1 -->
<svg width="776pt" height="88pt"
 viewBox="0.00 0.00 776.00 88.00" xmlns="http://www.w3.org/2000/svg" xmlns:xlink="http://www.w3.org/1999/xlink">
<g id="graph0" class="graph" transform="scale(1 1) rotate(0) translate(4 83.5)">
<title>llvm::RegionBase&lt; Tr &gt;</title>
<!-- Node1 -->
<g id="Node000001" class="node">
<title>Node1</title>
<g id="a_Node000001"><a xlink:title="A single entry single exit Region.">
<polygon fill="#999999" stroke="#666666" points="273.75,-48.88 153.5,-48.88 153.5,-29.62 273.75,-29.62 273.75,-48.88"/>
<text xml:space="preserve" text-anchor="middle" x="213.62" y="-35.38" font-family="Helvetica,sans-Serif" font-size="10.00">llvm::RegionBase&lt; Tr &gt;</text>
</a>
</g>
</g>
<!-- Node3 -->
<g id="Node000003" class="node">
<title>Node3</title>
<g id="a_Node000003"><a xlink:href="classllvm_1_1RegionBase.html" target="_top" xlink:title=" ">
<polygon fill="white" stroke="#666666" points="623.5,-79.5 481.5,-79.5 481.5,-49 623.5,-49 623.5,-79.5"/>
<text xml:space="preserve" text-anchor="start" x="489.5" y="-66" font-family="Helvetica,sans-Serif" font-size="10.00">llvm::RegionBase&lt; Region</text>
<text xml:space="preserve" text-anchor="middle" x="552.5" y="-54.75" font-family="Helvetica,sans-Serif" font-size="10.00">Traits&lt; MachineFunction &gt; &gt;</text>
</a>
</g>
</g>
<!-- Node1&#45;&gt;Node3 -->
<g id="edge2_Node000001_Node000003" class="edge">
<title>Node1&#45;&gt;Node3</title>
<g id="a_edge2_Node000001_Node000003"><a xlink:title=" ">
<path fill="none" stroke="orange" stroke-dasharray="5,2" d="M285.27,-44.49C342.87,-48.77 423.8,-54.77 481.28,-59.04"/>
<polygon fill="orange" stroke="orange" points="285.82,-41.02 275.59,-43.77 285.3,-48 285.82,-41.02"/>
</a>
</g>
<text xml:space="preserve" text-anchor="start" x="294.75" y="-63.55" font-family="Helvetica,sans-Serif" font-size="10.00" fill="grey">&lt; RegionTraits&lt; MachineFunction &gt; &gt;</text>
</g>
<!-- Node5 -->
<g id="Node000005" class="node">
<title>Node5</title>
<g id="a_Node000005"><a xlink:href="classllvm_1_1RegionBase.html" target="_top" xlink:title=" ">
<polygon fill="white" stroke="#666666" points="619,-30.5 486,-30.5 486,0 619,0 619,-30.5"/>
<text xml:space="preserve" text-anchor="start" x="494" y="-17" font-family="Helvetica,sans-Serif" font-size="10.00">llvm::RegionBase&lt; Region</text>
<text xml:space="preserve" text-anchor="middle" x="552.5" y="-5.75" font-family="Helvetica,sans-Serif" font-size="10.00">Traits&lt; Function &gt; &gt;</text>
</a>
</g>
</g>
<!-- Node1&#45;&gt;Node5 -->
<g id="edge4_Node000001_Node000005" class="edge">
<title>Node1&#45;&gt;Node5</title>
<g id="a_edge4_Node000001_Node000005"><a xlink:title=" ">
<path fill="none" stroke="orange" stroke-dasharray="5,2" d="M263.82,-26.76C273.05,-24.84 282.65,-23.13 291.75,-22 357.34,-13.89 432.92,-12.85 485.58,-13.45"/>
<polygon fill="orange" stroke="orange" points="263.31,-23.28 254.29,-28.85 264.81,-30.12 263.31,-23.28"/>
</a>
</g>
<text xml:space="preserve" text-anchor="start" x="313.12" y="-28" font-family="Helvetica,sans-Serif" font-size="10.00" fill="grey">&lt; RegionTraits&lt; Function &gt; &gt;</text>
</g>
<!-- Node2 -->
<g id="Node000002" class="node">
<title>Node2</title>
<g id="a_Node000002"><a xlink:href="classllvm_1_1RegionNodeBase.html" target="_top" xlink:title="A RegionNode represents a subregion or a BasicBlock that is part of a Region.">
<polygon fill="white" stroke="#666666" points="116.5,-54.5 0,-54.5 0,-24 116.5,-24 116.5,-54.5"/>
<text xml:space="preserve" text-anchor="start" x="8" y="-41" font-family="Helvetica,sans-Serif" font-size="10.00">llvm::RegionNodeBase</text>
<text xml:space="preserve" text-anchor="middle" x="58.25" y="-29.75" font-family="Helvetica,sans-Serif" font-size="10.00">&lt; Tr &gt;</text>
</a>
</g>
</g>
<!-- Node2&#45;&gt;Node1 -->
<g id="edge1_Node000001_Node000002" class="edge">
<title>Node2&#45;&gt;Node1</title>
<g id="a_edge1_Node000001_Node000002"><a xlink:title=" ">
<path fill="none" stroke="#63b8ff" d="M128.11,-39.25C136.49,-39.25 144.99,-39.25 153.22,-39.25"/>
<polygon fill="#63b8ff" stroke="#63b8ff" points="128.31,-35.75 118.31,-39.25 128.31,-42.75 128.31,-35.75"/>
</a>
</g>
</g>
<!-- Node4 -->
<g id="Node000004" class="node">
<title>Node4</title>
<g id="a_Node000004"><a xlink:href="classllvm_1_1MachineRegion.html" target="_top" xlink:title=" ">
<polygon fill="white" stroke="#666666" points="768,-73.88 660.5,-73.88 660.5,-54.62 768,-54.62 768,-73.88"/>
<text xml:space="preserve" text-anchor="middle" x="714.25" y="-60.38" font-family="Helvetica,sans-Serif" font-size="10.00">llvm::MachineRegion</text>
</a>
</g>
</g>
<!-- Node3&#45;&gt;Node4 -->
<g id="edge3_Node000003_Node000004" class="edge">
<title>Node3&#45;&gt;Node4</title>
<g id="a_edge3_Node000003_Node000004"><a xlink:title=" ">
<path fill="none" stroke="#63b8ff" d="M634.81,-64.25C643.38,-64.25 651.92,-64.25 660.05,-64.25"/>
<polygon fill="#63b8ff" stroke="#63b8ff" points="635.08,-60.75 625.08,-64.25 635.08,-67.75 635.08,-60.75"/>
</a>
</g>
</g>
<!-- Node6 -->
<g id="Node000006" class="node">
<title>Node6</title>
<g id="a_Node000006"><a xlink:href="classllvm_1_1Region.html" target="_top" xlink:title=" ">
<polygon fill="white" stroke="#666666" points="749.62,-24.88 678.88,-24.88 678.88,-5.62 749.62,-5.62 749.62,-24.88"/>
<text xml:space="preserve" text-anchor="middle" x="714.25" y="-11.38" font-family="Helvetica,sans-Serif" font-size="10.00">llvm::Region</text>
</a>
</g>
</g>
<!-- Node5&#45;&gt;Node6 -->
<g id="edge5_Node000005_Node000006" class="edge">
<title>Node5&#45;&gt;Node6</title>
<g id="a_edge5_Node000005_Node000006"><a xlink:title=" ">
<path fill="none" stroke="#63b8ff" d="M630.9,-15.25C647.61,-15.25 664.45,-15.25 678.52,-15.25"/>
<polygon fill="#63b8ff" stroke="#63b8ff" points="630.91,-11.75 620.91,-15.25 630.91,-18.75 630.91,-11.75"/>
</a>
</g>
</g>
</g>
</svg>
