<?xml version="1.0" encoding="UTF-8" standalone="no"?>
<!DOCTYPE svg PUBLIC "-//W3C//DTD SVG 1.1//EN"
 "http://www.w3.org/Graphics/SVG/1.1/DTD/svg11.dtd">
<!-- Generated by graphviz version 14.1.3 (20260303.0454)
 -->
<!-- Title: llvm::raw_ostream Pages: 1 -->
<svg width="1125pt" height="518pt"
 viewBox="0.00 0.00 1125.00 518.00" xmlns="http://www.w3.org/2000/svg" xmlns:xlink="http://www.w3.org/1999/xlink">
<g id="graph0" class="graph" transform="scale(1 1) rotate(0) translate(4 513.5)">
<title>llvm::raw_ostream</title>
<!-- Node1 -->
<g id="Node000001" class="node">
<title>Node1</title>
<g id="a_Node000001"><a xlink:title="This class implements an extremely fast bulk output stream that can only output to a stream.">
<polygon fill="#999999" stroke="#666666" points="96.25,-297.88 0,-297.88 0,-278.62 96.25,-278.62 96.25,-297.88"/>
<text xml:space="preserve" text-anchor="middle" x="48.12" y="-284.38" font-family="Helvetica,sans-Serif" font-size="10.00">llvm::raw_ostream</text>
</a>
</g>
</g>
<!-- Node2 -->
<g id="Node000002" class="node">
<title>Node2</title>
<g id="a_Node000002"><a xlink:href="classllvm_1_1circular__raw__ostream.html" target="_top" xlink:title="circular_raw_ostream &#45; A raw_ostream which can save its data to a circular buffer,...">
<polygon fill="white" stroke="#666666" points="256.5,-509.5 164,-509.5 164,-479 256.5,-479 256.5,-509.5"/>
<text xml:space="preserve" text-anchor="start" x="172" y="-496" font-family="Helvetica,sans-Serif" font-size="10.00">llvm::circular_raw</text>
<text xml:space="preserve" text-anchor="middle" x="210.25" y="-484.75" font-family="Helvetica,sans-Serif" font-size="10.00">_ostream</text>
</a>
</g>
</g>
<!-- Node1&#45;&gt;Node2 -->
<g id="edge1_Node000001_Node000002" class="edge">
<title>Node1&#45;&gt;Node2</title>
<g id="a_edge1_Node000001_Node000002"><a xlink:title=" ">
<path fill="none" stroke="#63b8ff" d="M53.14,-309.14C61.43,-346.6 83.93,-425.4 133.25,-469.25 141.87,-476.91 152.88,-482.23 163.84,-485.92"/>
<polygon fill="#63b8ff" stroke="#63b8ff" points="56.63,-308.69 51.17,-299.61 49.77,-310.11 56.63,-308.69"/>
</a>
</g>
</g>
<!-- Node3 -->
<g id="Node000003" class="node">
<title>Node3</title>
<g id="a_Node000003"><a xlink:href="classllvm_1_1formatted__raw__ostream.html" target="_top" xlink:title="formatted_raw_ostream &#45; A raw_ostream that wraps another one and keeps track of line and column posit...">
<polygon fill="white" stroke="#666666" points="261.38,-460.5 159.12,-460.5 159.12,-430 261.38,-430 261.38,-460.5"/>
<text xml:space="preserve" text-anchor="start" x="167.12" y="-447" font-family="Helvetica,sans-Serif" font-size="10.00">llvm::formatted_raw</text>
<text xml:space="preserve" text-anchor="middle" x="210.25" y="-435.75" font-family="Helvetica,sans-Serif" font-size="10.00">_ostream</text>
</a>
</g>
</g>
<!-- Node1&#45;&gt;Node3 -->
<g id="edge2_Node000001_Node000003" class="edge">
<title>Node1&#45;&gt;Node3</title>
<g id="a_edge2_Node000001_Node000003"><a xlink:title=" ">
<path fill="none" stroke="#63b8ff" d="M56.8,-308.86C68.73,-338.1 94.44,-391.36 133.25,-421.25 140.81,-427.08 149.82,-431.5 158.94,-434.87"/>
<polygon fill="#63b8ff" stroke="#63b8ff" points="60.12,-307.72 53.21,-299.68 53.6,-310.27 60.12,-307.72"/>
</a>
</g>
</g>
<!-- Node4 -->
<g id="Node000004" class="node">
<title>Node4</title>
<g id="a_Node000004"><a xlink:href="classllvm_1_1impl_1_1RAIINewLineStream.html" target="_top" xlink:title="A raw_ostream that prints a newline on destruction, useful for LDBG().">
<polygon fill="white" stroke="#666666" points="287.25,-411.88 133.25,-411.88 133.25,-392.62 287.25,-392.62 287.25,-411.88"/>
<text xml:space="preserve" text-anchor="middle" x="210.25" y="-398.38" font-family="Helvetica,sans-Serif" font-size="10.00">llvm::impl::RAIINewLineStream</text>
</a>
</g>
</g>
<!-- Node1&#45;&gt;Node4 -->
<g id="edge3_Node000001_Node000004" class="edge">
<title>Node1&#45;&gt;Node4</title>
<g id="a_edge3_Node000001_Node000004"><a xlink:title=" ">
<path fill="none" stroke="#63b8ff" d="M61.23,-307.9C75.67,-329.67 101.85,-364.19 133.25,-383.25 139.18,-386.85 145.76,-389.77 152.5,-392.14"/>
<polygon fill="#63b8ff" stroke="#63b8ff" points="64.27,-306.17 55.93,-299.64 58.38,-309.95 64.27,-306.17"/>
</a>
</g>
</g>
<!-- Node5 -->
<g id="Node000005" class="node">
<title>Node5</title>
<g id="a_Node000005"><a xlink:href="classllvm_1_1impl_1_1raw__ldbg__ostream.html" target="_top" xlink:title="A raw_ostream that tracks \n and print the prefix after each newline.">
<polygon fill="white" stroke="#666666" points="261.75,-374.5 158.75,-374.5 158.75,-344 261.75,-344 261.75,-374.5"/>
<text xml:space="preserve" text-anchor="start" x="166.75" y="-361" font-family="Helvetica,sans-Serif" font-size="10.00">llvm::impl::raw_ldbg</text>
<text xml:space="preserve" text-anchor="middle" x="210.25" y="-349.75" font-family="Helvetica,sans-Serif" font-size="10.00">_ostream</text>
</a>
</g>
</g>
<!-- Node1&#45;&gt;Node5 -->
<g id="edge4_Node000001_Node000005" class="edge">
<title>Node1&#45;&gt;Node5</title>
<g id="a_edge4_Node000001_Node000005"><a xlink:title=" ">
<path fill="none" stroke="#63b8ff" d="M75.31,-304.18C91.6,-313.69 113.21,-325.56 133.25,-334.25 141.28,-337.73 149.96,-341.01 158.48,-343.98"/>
<polygon fill="#63b8ff" stroke="#63b8ff" points="77.12,-301.19 66.74,-299.11 73.56,-307.21 77.12,-301.19"/>
</a>
</g>
</g>
<!-- Node6 -->
<g id="Node000006" class="node">
<title>Node6</title>
<g id="a_Node000006"><a xlink:href="classllvm_1_1mustache_1_1MustacheOutputStream.html" target="_top" xlink:title=" ">
<polygon fill="white" stroke="#666666" points="276,-325.5 144.5,-325.5 144.5,-295 276,-295 276,-325.5"/>
<text xml:space="preserve" text-anchor="start" x="152.5" y="-312" font-family="Helvetica,sans-Serif" font-size="10.00">llvm::mustache::Mustache</text>
<text xml:space="preserve" text-anchor="middle" x="210.25" y="-300.75" font-family="Helvetica,sans-Serif" font-size="10.00">OutputStream</text>
</a>
</g>
</g>
<!-- Node1&#45;&gt;Node6 -->
<g id="edge5_Node000001_Node000006" class="edge">
<title>Node1&#45;&gt;Node6</title>
<g id="a_edge5_Node000001_Node000006"><a xlink:title=" ">
<path fill="none" stroke="#63b8ff" d="M107.8,-296.31C119.59,-297.93 132.04,-299.64 144.04,-301.29"/>
<polygon fill="#63b8ff" stroke="#63b8ff" points="108.62,-292.89 98.23,-295 107.66,-299.83 108.62,-292.89"/>
</a>
</g>
</g>
<!-- Node10 -->
<g id="Node000010" class="node">
<title>Node10</title>
<g id="a_Node000010"><a xlink:href="classllvm_1_1raw__os__ostream.html" target="_top" xlink:title="raw_os_ostream &#45; A raw_ostream that writes to an std::ostream.">
<polygon fill="white" stroke="#666666" points="266.25,-276.88 154.25,-276.88 154.25,-257.62 266.25,-257.62 266.25,-276.88"/>
<text xml:space="preserve" text-anchor="middle" x="210.25" y="-263.38" font-family="Helvetica,sans-Serif" font-size="10.00">llvm::raw_os_ostream</text>
</a>
</g>
</g>
<!-- Node1&#45;&gt;Node10 -->
<g id="edge9_Node000001_Node000010" class="edge">
<title>Node1&#45;&gt;Node10</title>
<g id="a_edge9_Node000001_Node000010"><a xlink:title=" ">
<path fill="none" stroke="#63b8ff" d="M107.98,-280.53C123,-278.56 139.1,-276.45 153.94,-274.5"/>
<polygon fill="#63b8ff" stroke="#63b8ff" points="107.69,-277.04 98.23,-281.81 108.61,-283.98 107.69,-277.04"/>
</a>
</g>
</g>
<!-- Node11 -->
<g id="Node000011" class="node">
<title>Node11</title>
<g id="a_Node000011"><a xlink:href="classllvm_1_1raw__ostream__proxy__adaptor.html" target="_top" xlink:title="Adaptor to create a stream class that proxies another raw_ostream.">
<polygon fill="white" stroke="#666666" points="277.88,-239.5 142.62,-239.5 142.62,-209 277.88,-209 277.88,-239.5"/>
<text xml:space="preserve" text-anchor="start" x="150.62" y="-226" font-family="Helvetica,sans-Serif" font-size="10.00">llvm::raw_ostream_proxy</text>
<text xml:space="preserve" text-anchor="middle" x="210.25" y="-214.75" font-family="Helvetica,sans-Serif" font-size="10.00">_adaptor&lt; RawOstreamT &gt;</text>
</a>
</g>
</g>
<!-- Node1&#45;&gt;Node11 -->
<g id="edge10_Node000001_Node000011" class="edge">
<title>Node1&#45;&gt;Node11</title>
<g id="a_edge10_Node000001_Node000011"><a xlink:title=" ">
<path fill="none" stroke="#63b8ff" d="M78.01,-273.3C94.04,-265.31 114.49,-255.63 133.25,-248.25 140.59,-245.36 148.43,-242.57 156.18,-239.98"/>
<polygon fill="#63b8ff" stroke="#63b8ff" points="76.87,-269.95 69.52,-277.58 80.03,-276.2 76.87,-269.95"/>
</a>
</g>
</g>
<!-- Node18 -->
<g id="Node000018" class="node">
<title>Node18</title>
<g id="a_Node000018"><a xlink:href="classllvm_1_1raw__pwrite__stream.html" target="_top" xlink:title="An abstract base class for streams implementations that also support a pwrite operation.">
<polygon fill="white" stroke="#666666" points="271.5,-148.88 149,-148.88 149,-129.62 271.5,-129.62 271.5,-148.88"/>
<text xml:space="preserve" text-anchor="middle" x="210.25" y="-135.38" font-family="Helvetica,sans-Serif" font-size="10.00">llvm::raw_pwrite_stream</text>
</a>
</g>
</g>
<!-- Node1&#45;&gt;Node18 -->
<g id="edge17_Node000001_Node000018" class="edge">
<title>Node1&#45;&gt;Node18</title>
<g id="a_edge17_Node000001_Node000018"><a xlink:title=" ">
<path fill="none" stroke="#63b8ff" d="M65.46,-269.79C81.95,-251.5 108.44,-223 133.25,-200.25 154.07,-181.15 180.07,-161.01 195.63,-149.32"/>
<polygon fill="#63b8ff" stroke="#63b8ff" points="62.88,-267.42 58.83,-277.21 68.1,-272.09 62.88,-267.42"/>
</a>
</g>
</g>
<!-- Node27 -->
<g id="Node000027" class="node">
<title>Node27</title>
<g id="a_Node000027"><a xlink:href="classllvm_1_1raw__sha1__ostream.html" target="_top" xlink:title="A raw_ostream that hash the content using the sha1 algorithm.">
<polygon fill="white" stroke="#666666" points="271.5,-111.88 149,-111.88 149,-92.62 271.5,-92.62 271.5,-111.88"/>
<text xml:space="preserve" text-anchor="middle" x="210.25" y="-98.38" font-family="Helvetica,sans-Serif" font-size="10.00">llvm::raw_sha1_ostream</text>
</a>
</g>
</g>
<!-- Node1&#45;&gt;Node27 -->
<g id="edge27_Node000001_Node000027" class="edge">
<title>Node1&#45;&gt;Node27</title>
<g id="a_edge27_Node000001_Node000027"><a xlink:title=" ">
<path fill="none" stroke="#63b8ff" d="M53.5,-267.47C62.16,-231.65 84.98,-158.46 133.25,-120.25 137.93,-116.55 143.24,-113.59 148.84,-111.22"/>
<polygon fill="#63b8ff" stroke="#63b8ff" points="50.14,-266.46 51.34,-276.99 56.96,-268.01 50.14,-266.46"/>
</a>
</g>
</g>
<!-- Node28 -->
<g id="Node000028" class="node">
<title>Node28</title>
<g id="a_Node000028"><a xlink:href="classllvm_1_1raw__string__ostream.html" target="_top" xlink:title="A raw_ostream that writes to an std::string.">
<polygon fill="white" stroke="#666666" points="273,-74.88 147.5,-74.88 147.5,-55.62 273,-55.62 273,-74.88"/>
<text xml:space="preserve" text-anchor="middle" x="210.25" y="-61.38" font-family="Helvetica,sans-Serif" font-size="10.00">llvm::raw_string_ostream</text>
</a>
</g>
</g>
<!-- Node1&#45;&gt;Node28 -->
<g id="edge28_Node000001_Node000028" class="edge">
<title>Node1&#45;&gt;Node28</title>
<g id="a_edge28_Node000001_Node000028"><a xlink:title=" ">
<path fill="none" stroke="#63b8ff" d="M51.48,-267.08C57.29,-225.27 76.26,-131.94 133.25,-83.25 137.37,-79.73 142.06,-76.87 147.04,-74.54"/>
<polygon fill="#63b8ff" stroke="#63b8ff" points="48.03,-266.43 50.26,-276.79 54.98,-267.31 48.03,-266.43"/>
</a>
</g>
</g>
<!-- Node7 -->
<g id="Node000007" class="node">
<title>Node7</title>
<g id="a_Node000007"><a xlink:href="classllvm_1_1mustache_1_1AddIndentationStringStream.html" target="_top" xlink:title=" ">
<polygon fill="white" stroke="#666666" points="588.25,-423.5 434.25,-423.5 434.25,-393 588.25,-393 588.25,-423.5"/>
<text xml:space="preserve" text-anchor="start" x="442.25" y="-410" font-family="Helvetica,sans-Serif" font-size="10.00">llvm::mustache::AddIndentation</text>
<text xml:space="preserve" text-anchor="middle" x="511.25" y="-398.75" font-family="Helvetica,sans-Serif" font-size="10.00">StringStream</text>
</a>
</g>
</g>
<!-- Node6&#45;&gt;Node7 -->
<g id="edge6_Node000006_Node000007" class="edge">
<title>Node6&#45;&gt;Node7</title>
<g id="a_edge6_Node000006_Node000007"><a xlink:title=" ">
<path fill="none" stroke="#63b8ff" d="M277.14,-330.33C280.61,-331.88 284,-333.52 287.25,-335.25 296.2,-340.01 296.22,-344.65 305.25,-349.25 345.69,-369.82 394.36,-384.22 434.14,-393.63"/>
<polygon fill="#63b8ff" stroke="#63b8ff" points="278.55,-327.12 267.97,-326.53 275.87,-333.59 278.55,-327.12"/>
</a>
</g>
</g>
<!-- Node8 -->
<g id="Node000008" class="node">
<title>Node8</title>
<g id="a_Node000008"><a xlink:href="classllvm_1_1mustache_1_1EscapeStringStream.html" target="_top" xlink:title=" ">
<polygon fill="white" stroke="#666666" points="584.88,-374.5 437.62,-374.5 437.62,-344 584.88,-344 584.88,-374.5"/>
<text xml:space="preserve" text-anchor="start" x="445.62" y="-361" font-family="Helvetica,sans-Serif" font-size="10.00">llvm::mustache::EscapeString</text>
<text xml:space="preserve" text-anchor="middle" x="511.25" y="-349.75" font-family="Helvetica,sans-Serif" font-size="10.00">Stream</text>
</a>
</g>
</g>
<!-- Node6&#45;&gt;Node8 -->
<g id="edge7_Node000006_Node000008" class="edge">
<title>Node6&#45;&gt;Node8</title>
<g id="a_edge7_Node000006_Node000008"><a xlink:title=" ">
<path fill="none" stroke="#63b8ff" d="M287.61,-322.76C333.62,-330.3 391.89,-339.85 437.27,-347.29"/>
<polygon fill="#63b8ff" stroke="#63b8ff" points="288.43,-319.35 277.99,-321.19 287.29,-326.26 288.43,-319.35"/>
</a>
</g>
</g>
<!-- Node9 -->
<g id="Node000009" class="node">
<title>Node9</title>
<g id="a_Node000009"><a xlink:href="classllvm_1_1mustache_1_1RawMustacheOutputStream.html" target="_top" xlink:title=" ">
<polygon fill="white" stroke="#666666" points="587.12,-325.5 435.38,-325.5 435.38,-295 587.12,-295 587.12,-325.5"/>
<text xml:space="preserve" text-anchor="start" x="443.38" y="-312" font-family="Helvetica,sans-Serif" font-size="10.00">llvm::mustache::RawMustache</text>
<text xml:space="preserve" text-anchor="middle" x="511.25" y="-300.75" font-family="Helvetica,sans-Serif" font-size="10.00">OutputStream</text>
</a>
</g>
</g>
<!-- Node6&#45;&gt;Node9 -->
<g id="edge8_Node000006_Node000009" class="edge">
<title>Node6&#45;&gt;Node9</title>
<g id="a_edge8_Node000006_Node000009"><a xlink:title=" ">
<path fill="none" stroke="#63b8ff" d="M287.74,-310.25C333,-310.25 390.1,-310.25 435.13,-310.25"/>
<polygon fill="#63b8ff" stroke="#63b8ff" points="288.01,-306.75 278.01,-310.25 288.01,-313.75 288.01,-306.75"/>
</a>
</g>
</g>
<!-- Node12 -->
<g id="Node000012" class="node">
<title>Node12</title>
<g id="a_Node000012"><a xlink:href="classllvm_1_1raw__ostream__proxy.html" target="_top" xlink:title="Non&#45;owning proxy for a raw_ostream.">
<polygon fill="white" stroke="#666666" points="580,-276.88 442.5,-276.88 442.5,-257.62 580,-257.62 580,-276.88"/>
<text xml:space="preserve" text-anchor="middle" x="511.25" y="-263.38" font-family="Helvetica,sans-Serif" font-size="10.00">llvm::raw_ostream_proxy&lt;&gt;</text>
</a>
</g>
</g>
<!-- Node11&#45;&gt;Node12 -->
<g id="edge11_Node000011_Node000012" class="edge">
<title>Node11&#45;&gt;Node12</title>
<g id="a_edge11_Node000011_Node000012"><a xlink:title=" ">
<path fill="none" stroke="#63b8ff" d="M288.31,-242.2C294.03,-243.31 299.72,-244.34 305.25,-245.25 350.63,-252.73 402.11,-258.24 442.12,-261.88"/>
<polygon fill="#63b8ff" stroke="#63b8ff" points="289.29,-238.83 278.8,-240.29 287.91,-245.69 289.29,-238.83"/>
</a>
</g>
</g>
<!-- Node13 -->
<g id="Node000013" class="node">
<title>Node13</title>
<g id="a_Node000013"><a xlink:href="classllvm_1_1raw__ostream__proxy__adaptor.html" target="_top" xlink:title=" ">
<polygon fill="white" stroke="#666666" points="589.75,-239.5 432.75,-239.5 432.75,-209 589.75,-209 589.75,-239.5"/>
<text xml:space="preserve" text-anchor="start" x="440.75" y="-226" font-family="Helvetica,sans-Serif" font-size="10.00">llvm::raw_ostream_proxy</text>
<text xml:space="preserve" text-anchor="middle" x="511.25" y="-214.75" font-family="Helvetica,sans-Serif" font-size="10.00">_adaptor&lt; RawPwriteStreamT &gt;</text>
</a>
</g>
</g>
<!-- Node11&#45;&gt;Node13 -->
<g id="edge12_Node000011_Node000013" class="edge">
<title>Node11&#45;&gt;Node13</title>
<g id="a_edge12_Node000011_Node000013"><a xlink:title=" ">
<path fill="none" stroke="orange" stroke-dasharray="5,2" d="M289.58,-224.25C333.59,-224.25 388.32,-224.25 432.27,-224.25"/>
<polygon fill="orange" stroke="orange" points="289.87,-220.75 279.86,-224.25 289.86,-227.75 289.87,-220.75"/>
</a>
</g>
<text xml:space="preserve" text-anchor="start" x="308.25" y="-230.25" font-family="Helvetica,sans-Serif" font-size="10.00" fill="grey">&lt; RawPwriteStreamT &gt;</text>
</g>
<!-- Node14 -->
<g id="Node000014" class="node">
<title>Node14</title>
<g id="a_Node000014"><a xlink:href="classllvm_1_1raw__ostream__proxy__adaptor.html" target="_top" xlink:title=" ">
<polygon fill="white" stroke="#666666" points="588.25,-190.5 434.25,-190.5 434.25,-160 588.25,-160 588.25,-190.5"/>
<text xml:space="preserve" text-anchor="start" x="442.25" y="-177" font-family="Helvetica,sans-Serif" font-size="10.00">llvm::raw_ostream_proxy</text>
<text xml:space="preserve" text-anchor="middle" x="511.25" y="-165.75" font-family="Helvetica,sans-Serif" font-size="10.00">_adaptor&lt; raw_pwrite_stream &gt;</text>
</a>
</g>
</g>
<!-- Node11&#45;&gt;Node14 -->
<g id="edge13_Node000011_Node000014" class="edge">
<title>Node11&#45;&gt;Node14</title>
<g id="a_edge13_Node000011_Node000014"><a xlink:title=" ">
<path fill="none" stroke="orange" stroke-dasharray="5,2" d="M288.33,-206.25C294.05,-205.09 299.73,-204 305.25,-203 347.66,-195.35 395.36,-188.77 434.06,-183.95"/>
<polygon fill="orange" stroke="orange" points="287.91,-202.77 278.83,-208.23 289.33,-209.62 287.91,-202.77"/>
</a>
</g>
<text xml:space="preserve" text-anchor="start" x="309.75" y="-209" font-family="Helvetica,sans-Serif" font-size="10.00" fill="grey">&lt; raw_pwrite_stream &gt;</text>
</g>
<!-- Node15 -->
<g id="Node000015" class="node">
<title>Node15</title>
<g id="a_Node000015"><a xlink:href="classllvm_1_1raw__pwrite__stream__proxy__adaptor.html" target="_top" xlink:title="Adaptor for creating a stream that proxies a raw_pwrite_stream.">
<polygon fill="white" stroke="#666666" points="813,-190.5 626.75,-190.5 626.75,-160 813,-160 813,-190.5"/>
<text xml:space="preserve" text-anchor="start" x="634.75" y="-177" font-family="Helvetica,sans-Serif" font-size="10.00">llvm::raw_pwrite_stream</text>
<text xml:space="preserve" text-anchor="middle" x="719.88" y="-165.75" font-family="Helvetica,sans-Serif" font-size="10.00">_proxy_adaptor&lt; RawPwriteStreamT &gt;</text>
</a>
</g>
</g>
<!-- Node14&#45;&gt;Node15 -->
<g id="edge14_Node000014_Node000015" class="edge">
<title>Node14&#45;&gt;Node15</title>
<g id="a_edge14_Node000014_Node000015"><a xlink:title=" ">
<path fill="none" stroke="#63b8ff" d="M599.98,-175.25C608.71,-175.25 617.6,-175.25 626.38,-175.25"/>
<polygon fill="#63b8ff" stroke="#63b8ff" points="600.12,-171.75 590.12,-175.25 600.12,-178.75 600.12,-171.75"/>
</a>
</g>
</g>
<!-- Node16 -->
<g id="Node000016" class="node">
<title>Node16</title>
<g id="a_Node000016"><a xlink:href="classllvm_1_1raw__pwrite__stream__proxy.html" target="_top" xlink:title="Non&#45;owning proxy for a raw_pwrite_stream.">
<polygon fill="white" stroke="#666666" points="974,-190.5 851.5,-190.5 851.5,-160 974,-160 974,-190.5"/>
<text xml:space="preserve" text-anchor="start" x="859.5" y="-177" font-family="Helvetica,sans-Serif" font-size="10.00">llvm::raw_pwrite_stream</text>
<text xml:space="preserve" text-anchor="middle" x="912.75" y="-165.75" font-family="Helvetica,sans-Serif" font-size="10.00">_proxy&lt;&gt;</text>
</a>
</g>
</g>
<!-- Node15&#45;&gt;Node16 -->
<g id="edge15_Node000015_Node000016" class="edge">
<title>Node15&#45;&gt;Node16</title>
<g id="a_edge15_Node000015_Node000016"><a xlink:title=" ">
<path fill="none" stroke="#63b8ff" d="M824.67,-175.25C833.68,-175.25 842.59,-175.25 851.07,-175.25"/>
<polygon fill="#63b8ff" stroke="#63b8ff" points="824.75,-171.75 814.75,-175.25 824.75,-178.75 824.75,-171.75"/>
</a>
</g>
</g>
<!-- Node17 -->
<g id="Node000017" class="node">
<title>Node17</title>
<g id="a_Node000017"><a xlink:href="classOutputFile_1_1TrackedProxy.html" target="_top" xlink:title=" ">
<polygon fill="white" stroke="#666666" points="1117,-190.5 1012.5,-190.5 1012.5,-160 1117,-160 1117,-190.5"/>
<text xml:space="preserve" text-anchor="start" x="1020.5" y="-177" font-family="Helvetica,sans-Serif" font-size="10.00">llvm::vfs::OutputFile</text>
<text xml:space="preserve" text-anchor="middle" x="1064.75" y="-165.75" font-family="Helvetica,sans-Serif" font-size="10.00">::TrackedProxy</text>
</a>
</g>
</g>
<!-- Node16&#45;&gt;Node17 -->
<g id="edge16_Node000016_Node000017" class="edge">
<title>Node16&#45;&gt;Node17</title>
<g id="a_edge16_Node000016_Node000017"><a xlink:title=" ">
<path fill="none" stroke="#63b8ff" d="M985.59,-175.25C994.54,-175.25 1003.54,-175.25 1012.1,-175.25"/>
<polygon fill="#63b8ff" stroke="#63b8ff" points="985.84,-171.75 975.84,-175.25 985.84,-178.75 985.84,-171.75"/>
</a>
</g>
</g>
<!-- Node18&#45;&gt;Node14 -->
<g id="edge18_Node000018_Node000014" class="edge">
<title>Node18&#45;&gt;Node14</title>
<g id="a_edge18_Node000018_Node000014"><a xlink:title=" ">
<path fill="none" stroke="#63b8ff" d="M283.03,-147.89C328.58,-153.38 387.46,-160.47 433.87,-166.05"/>
<polygon fill="#63b8ff" stroke="#63b8ff" points="283.61,-144.44 273.26,-146.72 282.77,-151.39 283.61,-144.44"/>
</a>
</g>
</g>
<!-- Node19 -->
<g id="Node000019" class="node">
<title>Node19</title>
<g id="a_Node000019"><a xlink:href="classllvm_1_1raw__fd__ostream.html" target="_top" xlink:title="A raw_ostream that writes to a file descriptor.">
<polygon fill="white" stroke="#666666" points="566.12,-141.88 456.38,-141.88 456.38,-122.62 566.12,-122.62 566.12,-141.88"/>
<text xml:space="preserve" text-anchor="middle" x="511.25" y="-128.38" font-family="Helvetica,sans-Serif" font-size="10.00">llvm::raw_fd_ostream</text>
</a>
</g>
</g>
<!-- Node18&#45;&gt;Node19 -->
<g id="edge19_Node000018_Node000019" class="edge">
<title>Node18&#45;&gt;Node19</title>
<g id="a_edge19_Node000018_Node000019"><a xlink:title=" ">
<path fill="none" stroke="#63b8ff" d="M283.18,-137.57C336.46,-136.32 407.94,-134.65 456.36,-133.51"/>
<polygon fill="#63b8ff" stroke="#63b8ff" points="283.19,-134.06 273.27,-137.8 283.35,-141.06 283.19,-134.06"/>
</a>
</g>
</g>
<!-- Node22 -->
<g id="Node000022" class="node">
<title>Node22</title>
<g id="a_Node000022"><a xlink:href="classllvm_1_1raw__null__ostream.html" target="_top" xlink:title="A raw_ostream that discards all output.">
<polygon fill="white" stroke="#666666" points="569.5,-104.88 453,-104.88 453,-85.62 569.5,-85.62 569.5,-104.88"/>
<text xml:space="preserve" text-anchor="middle" x="511.25" y="-91.38" font-family="Helvetica,sans-Serif" font-size="10.00">llvm::raw_null_ostream</text>
</a>
</g>
</g>
<!-- Node18&#45;&gt;Node22 -->
<g id="edge22_Node000018_Node000022" class="edge">
<title>Node18&#45;&gt;Node22</title>
<g id="a_edge22_Node000018_Node000022"><a xlink:title=" ">
<path fill="none" stroke="#63b8ff" d="M282.9,-128.71C334.86,-121.06 404.23,-110.85 452.62,-103.73"/>
<polygon fill="#63b8ff" stroke="#63b8ff" points="282.64,-125.21 273.25,-130.13 283.66,-132.13 282.64,-125.21"/>
</a>
</g>
</g>
<!-- Node23 -->
<g id="Node000023" class="node">
<title>Node23</title>
<g id="a_Node000023"><a xlink:href="classllvm_1_1raw__svector__ostream.html" target="_top" xlink:title="A raw_ostream that writes to an SmallVector or SmallString.">
<polygon fill="white" stroke="#666666" points="578.12,-67.88 444.38,-67.88 444.38,-48.62 578.12,-48.62 578.12,-67.88"/>
<text xml:space="preserve" text-anchor="middle" x="511.25" y="-54.38" font-family="Helvetica,sans-Serif" font-size="10.00">llvm::raw_svector_ostream</text>
</a>
</g>
</g>
<!-- Node18&#45;&gt;Node23 -->
<g id="edge23_Node000018_Node000023" class="edge">
<title>Node18&#45;&gt;Node23</title>
<g id="a_edge23_Node000018_Node000023"><a xlink:title=" ">
<path fill="none" stroke="#63b8ff" d="M278.29,-125.38C281.37,-124.12 284.37,-122.75 287.25,-121.25 296.75,-116.31 295.74,-110.15 305.25,-105.25 348.58,-82.91 402.46,-71.09 444.11,-64.89"/>
<polygon fill="#63b8ff" stroke="#63b8ff" points="277.24,-122.04 269.02,-128.73 279.62,-128.62 277.24,-122.04"/>
</a>
</g>
</g>
<!-- Node26 -->
<g id="Node000026" class="node">
<title>Node26</title>
<g id="a_Node000026"><a xlink:href="classllvm_1_1vfs_1_1HashingStream.html" target="_top" xlink:title="raw_pwrite_stream that writes to a hasher.">
<polygon fill="white" stroke="#666666" points="574.75,-30.5 447.75,-30.5 447.75,0 574.75,0 574.75,-30.5"/>
<text xml:space="preserve" text-anchor="start" x="455.75" y="-17" font-family="Helvetica,sans-Serif" font-size="10.00">llvm::vfs::HashingStream</text>
<text xml:space="preserve" text-anchor="middle" x="511.25" y="-5.75" font-family="Helvetica,sans-Serif" font-size="10.00">&lt; HasherT &gt;</text>
</a>
</g>
</g>
<!-- Node18&#45;&gt;Node26 -->
<g id="edge26_Node000018_Node000026" class="edge">
<title>Node18&#45;&gt;Node26</title>
<g id="a_edge26_Node000018_Node000026"><a xlink:title=" ">
<path fill="none" stroke="#63b8ff" d="M281.89,-125.53C283.77,-124.22 285.57,-122.8 287.25,-121.25 306.18,-103.84 286.42,-83.77 305.25,-66.25 343.52,-30.66 402.7,-18.89 447.66,-15.45"/>
<polygon fill="#63b8ff" stroke="#63b8ff" points="280.21,-122.46 273.2,-130.4 283.63,-128.57 280.21,-122.46"/>
</a>
</g>
</g>
<!-- Node20 -->
<g id="Node000020" class="node">
<title>Node20</title>
<g id="a_Node000020"><a xlink:href="classllvm_1_1raw__fd__stream.html" target="_top" xlink:title="A raw_ostream of a file for reading/writing/seeking.">
<polygon fill="white" stroke="#666666" points="772.12,-141.88 667.62,-141.88 667.62,-122.62 772.12,-122.62 772.12,-141.88"/>
<text xml:space="preserve" text-anchor="middle" x="719.88" y="-128.38" font-family="Helvetica,sans-Serif" font-size="10.00">llvm::raw_fd_stream</text>
</a>
</g>
</g>
<!-- Node19&#45;&gt;Node20 -->
<g id="edge20_Node000019_Node000020" class="edge">
<title>Node19&#45;&gt;Node20</title>
<g id="a_edge20_Node000019_Node000020"><a xlink:title=" ">
<path fill="none" stroke="#63b8ff" d="M577.8,-132.25C606.77,-132.25 640.32,-132.25 667.44,-132.25"/>
<polygon fill="#63b8ff" stroke="#63b8ff" points="578.05,-128.75 568.05,-132.25 578.05,-135.75 578.05,-128.75"/>
</a>
</g>
</g>
<!-- Node21 -->
<g id="Node000021" class="node">
<title>Node21</title>
<g id="a_Node000021"><a xlink:href="classllvm_1_1raw__socket__stream.html" target="_top" xlink:title=" ">
<polygon fill="white" stroke="#666666" points="975.5,-141.88 850,-141.88 850,-122.62 975.5,-122.62 975.5,-141.88"/>
<text xml:space="preserve" text-anchor="middle" x="912.75" y="-128.38" font-family="Helvetica,sans-Serif" font-size="10.00">llvm::raw_socket_stream</text>
</a>
</g>
</g>
<!-- Node20&#45;&gt;Node21 -->
<g id="edge21_Node000020_Node000021" class="edge">
<title>Node20&#45;&gt;Node21</title>
<g id="a_edge21_Node000020_Node000021"><a xlink:title=" ">
<path fill="none" stroke="#63b8ff" d="M783.96,-132.25C805.04,-132.25 828.51,-132.25 849.52,-132.25"/>
<polygon fill="#63b8ff" stroke="#63b8ff" points="784.04,-128.75 774.04,-132.25 784.04,-135.75 784.04,-128.75"/>
</a>
</g>
</g>
<!-- Node24 -->
<g id="Node000024" class="node">
<title>Node24</title>
<g id="a_Node000024"><a xlink:href="classllvm_1_1buffer__ostream.html" target="_top" xlink:title=" ">
<polygon fill="white" stroke="#666666" points="772.5,-85.88 667.25,-85.88 667.25,-66.62 772.5,-66.62 772.5,-85.88"/>
<text xml:space="preserve" text-anchor="middle" x="719.88" y="-72.38" font-family="Helvetica,sans-Serif" font-size="10.00">llvm::buffer_ostream</text>
</a>
</g>
</g>
<!-- Node23&#45;&gt;Node24 -->
<g id="edge24_Node000023_Node000024" class="edge">
<title>Node23&#45;&gt;Node24</title>
<g id="a_edge24_Node000023_Node000024"><a xlink:title=" ">
<path fill="none" stroke="#63b8ff" d="M589.72,-65C615.43,-67.24 643.43,-69.68 666.76,-71.71"/>
<polygon fill="#63b8ff" stroke="#63b8ff" points="590.25,-61.53 579.99,-64.15 589.65,-68.51 590.25,-61.53"/>
</a>
</g>
</g>
<!-- Node25 -->
<g id="Node000025" class="node">
<title>Node25</title>
<g id="a_Node000025"><a xlink:href="classllvm_1_1buffer__unique__ostream.html" target="_top" xlink:title=" ">
<polygon fill="white" stroke="#666666" points="769.12,-48.5 670.62,-48.5 670.62,-18 769.12,-18 769.12,-48.5"/>
<text xml:space="preserve" text-anchor="start" x="678.62" y="-35" font-family="Helvetica,sans-Serif" font-size="10.00">llvm::buffer_unique</text>
<text xml:space="preserve" text-anchor="middle" x="719.88" y="-23.75" font-family="Helvetica,sans-Serif" font-size="10.00">_ostream</text>
</a>
</g>
</g>
<!-- Node23&#45;&gt;Node25 -->
<g id="edge25_Node000023_Node000025" class="edge">
<title>Node23&#45;&gt;Node25</title>
<g id="a_edge25_Node000023_Node000025"><a xlink:title=" ">
<path fill="none" stroke="#63b8ff" d="M589.88,-48.86C616.89,-45.59 646.4,-42.02 670.37,-39.12"/>
<polygon fill="#63b8ff" stroke="#63b8ff" points="589.49,-45.38 579.98,-50.05 590.33,-52.33 589.49,-45.38"/>
</a>
</g>
</g>
</g>
</svg>
