<?xml version="1.0" encoding="UTF-8" standalone="no"?>
<!DOCTYPE svg PUBLIC "-//W3C//DTD SVG 1.1//EN"
 "http://www.w3.org/Graphics/SVG/1.1/DTD/svg11.dtd">
<!-- Generated by graphviz version 14.1.3 (20260303.0454)
 -->
<!-- Title: llvm::SystemZCallingConventionRegisters Pages: 1 -->
<svg width="334pt" height="94pt"
 viewBox="0.00 0.00 334.00 94.00" xmlns="http://www.w3.org/2000/svg" xmlns:xlink="http://www.w3.org/1999/xlink">
<g id="graph0" class="graph" transform="scale(1 1) rotate(0) translate(4 89.75)">
<title>llvm::SystemZCallingConventionRegisters</title>
<!-- Node1 -->
<g id="Node000001" class="node">
<title>Node1</title>
<g id="a_Node000001"><a xlink:title="A SystemZ&#45;specific class detailing special use registers particular for calling conventions.">
<polygon fill="#999999" stroke="#666666" points="235.5,-85.75 76.25,-85.75 76.25,-55.25 235.5,-55.25 235.5,-85.75"/>
<text xml:space="preserve" text-anchor="start" x="84.25" y="-72.25" font-family="Helvetica,sans-Serif" font-size="10.00">llvm::SystemZCallingConvention</text>
<text xml:space="preserve" text-anchor="middle" x="155.88" y="-61" font-family="Helvetica,sans-Serif" font-size="10.00">Registers</text>
</a>
</g>
</g>
<!-- Node2 -->
<g id="Node000002" class="node">
<title>Node2</title>
<g id="a_Node000002"><a xlink:href="classllvm_1_1SystemZELFRegisters.html" target="_top" xlink:title="ELF calling convention specific use registers Particular when on zLinux in 64 bit mode.">
<polygon fill="white" stroke="#666666" points="139.75,-19.25 0,-19.25 0,0 139.75,0 139.75,-19.25"/>
<text xml:space="preserve" text-anchor="middle" x="69.88" y="-5.75" font-family="Helvetica,sans-Serif" font-size="10.00">llvm::SystemZELFRegisters</text>
</a>
</g>
</g>
<!-- Node1&#45;&gt;Node2 -->
<g id="edge1_Node000001_Node000002" class="edge">
<title>Node1&#45;&gt;Node2</title>
<g id="a_edge1_Node000001_Node000002"><a xlink:title=" ">
<path fill="none" stroke="#63b8ff" d="M125.47,-48.69C110.98,-38.76 94.39,-27.41 83.13,-19.7"/>
<polygon fill="#63b8ff" stroke="#63b8ff" points="123.14,-51.33 133.37,-54.09 127.09,-45.55 123.14,-51.33"/>
</a>
</g>
</g>
<!-- Node3 -->
<g id="Node000003" class="node">
<title>Node3</title>
<g id="a_Node000003"><a xlink:href="classllvm_1_1SystemZXPLINK64Registers.html" target="_top" xlink:title="XPLINK64 calling convention specific use registers Particular to z/OS when in 64 bit mode.">
<polygon fill="white" stroke="#666666" points="326,-19.25 157.75,-19.25 157.75,0 326,0 326,-19.25"/>
<text xml:space="preserve" text-anchor="middle" x="241.88" y="-5.75" font-family="Helvetica,sans-Serif" font-size="10.00">llvm::SystemZXPLINK64Registers</text>
</a>
</g>
</g>
<!-- Node1&#45;&gt;Node3 -->
<g id="edge2_Node000001_Node000003" class="edge">
<title>Node1&#45;&gt;Node3</title>
<g id="a_edge2_Node000001_Node000003"><a xlink:title=" ">
<path fill="none" stroke="#63b8ff" d="M186.28,-48.69C200.77,-38.76 217.36,-27.41 228.62,-19.7"/>
<polygon fill="#63b8ff" stroke="#63b8ff" points="184.66,-45.55 178.38,-54.09 188.61,-51.33 184.66,-45.55"/>
</a>
</g>
</g>
</g>
</svg>
