<?xml version="1.0" encoding="UTF-8" standalone="no"?>
<!DOCTYPE svg PUBLIC "-//W3C//DTD SVG 1.1//EN"
 "http://www.w3.org/Graphics/SVG/1.1/DTD/svg11.dtd">
<!-- Generated by graphviz version 14.1.3 (20260303.0454)
 -->
<!-- Title: llvm::DominatorTree Pages: 1 -->
<svg width="172pt" height="179pt"
 viewBox="0.00 0.00 172.00 179.00" xmlns="http://www.w3.org/2000/svg" xmlns:xlink="http://www.w3.org/1999/xlink">
<g id="graph0" class="graph" transform="scale(1 1) rotate(0) translate(4 174.5)">
<title>llvm::DominatorTree</title>
<!-- Node1 -->
<g id="Node000001" class="node">
<title>Node1</title>
<g id="a_Node000001"><a xlink:title="Concrete subclass of DominatorTreeBase that is used to compute a normal dominator tree.">
<polygon fill="#999999" stroke="#666666" points="115.75,-19.25 11.25,-19.25 11.25,0 115.75,0 115.75,-19.25"/>
<text xml:space="preserve" text-anchor="middle" x="63.5" y="-5.75" font-family="Helvetica,sans-Serif" font-size="10.00">llvm::DominatorTree</text>
</a>
</g>
</g>
<!-- Node2 -->
<g id="Node000002" class="node">
<title>Node2</title>
<g id="a_Node000002"><a xlink:href="classllvm_1_1DominatorTreeBase.html" target="_top" xlink:title=" ">
<polygon fill="white" stroke="#666666" points="127,-86.75 0,-86.75 0,-56.25 127,-56.25 127,-86.75"/>
<text xml:space="preserve" text-anchor="start" x="8" y="-73.25" font-family="Helvetica,sans-Serif" font-size="10.00">llvm::DominatorTreeBase</text>
<text xml:space="preserve" text-anchor="middle" x="63.5" y="-62" font-family="Helvetica,sans-Serif" font-size="10.00">&lt; BasicBlock, false &gt;</text>
</a>
</g>
</g>
<!-- Node2&#45;&gt;Node1 -->
<g id="edge1_Node000001_Node000002" class="edge">
<title>Node2&#45;&gt;Node1</title>
<g id="a_edge1_Node000001_Node000002"><a xlink:title=" ">
<path fill="none" stroke="#63b8ff" d="M63.5,-44.77C63.5,-35.79 63.5,-26.29 63.5,-19.6"/>
<polygon fill="#63b8ff" stroke="#63b8ff" points="60,-44.49 63.5,-54.49 67,-44.49 60,-44.49"/>
</a>
</g>
</g>
<!-- Node3 -->
<g id="Node000003" class="node">
<title>Node3</title>
<g id="a_Node000003"><a xlink:href="classllvm_1_1DominatorTreeBase.html" target="_top" xlink:title="Core dominator tree base class.">
<polygon fill="white" stroke="#666666" points="127,-170.5 0,-170.5 0,-140 127,-140 127,-170.5"/>
<text xml:space="preserve" text-anchor="start" x="8" y="-157" font-family="Helvetica,sans-Serif" font-size="10.00">llvm::DominatorTreeBase</text>
<text xml:space="preserve" text-anchor="middle" x="63.5" y="-145.75" font-family="Helvetica,sans-Serif" font-size="10.00">&lt; NodeT, IsPostDom &gt;</text>
</a>
</g>
</g>
<!-- Node3&#45;&gt;Node2 -->
<g id="edge2_Node000002_Node000003" class="edge">
<title>Node3&#45;&gt;Node2</title>
<g id="a_edge2_Node000002_Node000003"><a xlink:title=" ">
<path fill="none" stroke="orange" stroke-dasharray="5,2" d="M63.5,-128.47C63.5,-114.78 63.5,-98.46 63.5,-86.99"/>
<polygon fill="orange" stroke="orange" points="60,-128.12 63.5,-138.12 67,-128.12 60,-128.12"/>
</a>
</g>
<text xml:space="preserve" text-anchor="start" x="66.5" y="-110.75" font-family="Helvetica,sans-Serif" font-size="10.00" fill="grey">&lt; BasicBlock, false &gt;</text>
</g>
</g>
</svg>
