<?xml version="1.0" encoding="UTF-8" standalone="no"?>
<!DOCTYPE svg PUBLIC "-//W3C//DTD SVG 1.1//EN"
 "http://www.w3.org/Graphics/SVG/1.1/DTD/svg11.dtd">
<!-- Generated by graphviz version 14.1.3 (20260303.0454)
 -->
<!-- Title: llvm::TargetLoweringObjectFileWasm Pages: 1 -->
<svg width="182pt" height="204pt"
 viewBox="0.00 0.00 182.00 204.00" xmlns="http://www.w3.org/2000/svg" xmlns:xlink="http://www.w3.org/1999/xlink">
<g id="graph0" class="graph" transform="scale(1 1) rotate(0) translate(4 200.25)">
<title>llvm::TargetLoweringObjectFileWasm</title>
<!-- Node1 -->
<g id="Node000001" class="node">
<title>Node1</title>
<g id="a_Node000001"><a xlink:title=" ">
<polygon fill="#999999" stroke="#666666" points="154.38,-85.75 19.88,-85.75 19.88,-55.25 154.38,-55.25 154.38,-85.75"/>
<text xml:space="preserve" text-anchor="start" x="27.88" y="-72.25" font-family="Helvetica,sans-Serif" font-size="10.00">llvm::TargetLoweringObject</text>
<text xml:space="preserve" text-anchor="middle" x="87.12" y="-61" font-family="Helvetica,sans-Serif" font-size="10.00">FileWasm</text>
</a>
</g>
</g>
<!-- Node4 -->
<g id="Node000004" class="node">
<title>Node4</title>
<g id="a_Node000004"><a xlink:href="classllvm_1_1WebAssemblyTargetObjectFile.html" target="_top" xlink:title=" ">
<polygon fill="white" stroke="#666666" points="174.25,-19.25 0,-19.25 0,0 174.25,0 174.25,-19.25"/>
<text xml:space="preserve" text-anchor="middle" x="87.12" y="-5.75" font-family="Helvetica,sans-Serif" font-size="10.00">llvm::WebAssemblyTargetObjectFile</text>
</a>
</g>
</g>
<!-- Node1&#45;&gt;Node4 -->
<g id="edge3_Node000001_Node000004" class="edge">
<title>Node1&#45;&gt;Node4</title>
<g id="a_edge3_Node000001_Node000004"><a xlink:title=" ">
<path fill="none" stroke="#63b8ff" d="M87.12,-43.48C87.12,-34.98 87.12,-26.09 87.12,-19.7"/>
<polygon fill="#63b8ff" stroke="#63b8ff" points="83.63,-43.43 87.13,-53.43 90.63,-43.43 83.63,-43.43"/>
</a>
</g>
</g>
<!-- Node2 -->
<g id="Node000002" class="node">
<title>Node2</title>
<g id="a_Node000002"><a xlink:href="classllvm_1_1TargetLoweringObjectFile.html" target="_top" xlink:title=" ">
<polygon fill="white" stroke="#666666" points="162.25,-141 12,-141 12,-121.75 162.25,-121.75 162.25,-141"/>
<text xml:space="preserve" text-anchor="middle" x="87.12" y="-127.5" font-family="Helvetica,sans-Serif" font-size="10.00">llvm::TargetLoweringObjectFile</text>
</a>
</g>
</g>
<!-- Node2&#45;&gt;Node1 -->
<g id="edge1_Node000001_Node000002" class="edge">
<title>Node2&#45;&gt;Node1</title>
<g id="a_edge1_Node000001_Node000002"><a xlink:title=" ">
<path fill="none" stroke="#63b8ff" d="M87.12,-110.17C87.12,-102.24 87.12,-93.31 87.12,-86.03"/>
<polygon fill="#63b8ff" stroke="#63b8ff" points="83.63,-109.92 87.13,-119.92 90.63,-109.92 83.63,-109.92"/>
</a>
</g>
</g>
<!-- Node3 -->
<g id="Node000003" class="node">
<title>Node3</title>
<g id="a_Node000003"><a xlink:href="classllvm_1_1MCObjectFileInfo.html" target="_top" xlink:title=" ">
<polygon fill="white" stroke="#666666" points="145.38,-196.25 28.88,-196.25 28.88,-177 145.38,-177 145.38,-196.25"/>
<text xml:space="preserve" text-anchor="middle" x="87.12" y="-182.75" font-family="Helvetica,sans-Serif" font-size="10.00">llvm::MCObjectFileInfo</text>
</a>
</g>
</g>
<!-- Node3&#45;&gt;Node2 -->
<g id="edge2_Node000002_Node000003" class="edge">
<title>Node3&#45;&gt;Node2</title>
<g id="a_edge2_Node000002_Node000003"><a xlink:title=" ">
<path fill="none" stroke="#63b8ff" d="M87.12,-165.38C87.12,-157.09 87.12,-147.92 87.12,-141.36"/>
<polygon fill="#63b8ff" stroke="#63b8ff" points="83.63,-165.32 87.13,-175.32 90.63,-165.32 83.63,-165.32"/>
</a>
</g>
</g>
</g>
</svg>
