<?xml version="1.0" encoding="UTF-8" standalone="no"?>
<!DOCTYPE svg PUBLIC "-//W3C//DTD SVG 1.1//EN"
 "http://www.w3.org/Graphics/SVG/1.1/DTD/svg11.dtd">
<!-- Generated by graphviz version 14.1.3 (20260303.0454)
 -->
<!-- Title: llvm::DXILOpLowering Pages: 1 -->
<svg width="163pt" height="179pt"
 viewBox="0.00 0.00 163.00 179.00" xmlns="http://www.w3.org/2000/svg" xmlns:xlink="http://www.w3.org/1999/xlink">
<g id="graph0" class="graph" transform="scale(1 1) rotate(0) translate(4 174.5)">
<title>llvm::DXILOpLowering</title>
<!-- Node1 -->
<g id="Node000001" class="node">
<title>Node1</title>
<g id="a_Node000001"><a xlink:title=" ">
<polygon fill="#999999" stroke="#666666" points="114.25,-19.25 0,-19.25 0,0 114.25,0 114.25,-19.25"/>
<text xml:space="preserve" text-anchor="middle" x="57.13" y="-5.75" font-family="Helvetica,sans-Serif" font-size="10.00">llvm::DXILOpLowering</text>
</a>
</g>
</g>
<!-- Node2 -->
<g id="Node000002" class="node">
<title>Node2</title>
<g id="a_Node000002"><a xlink:href="structllvm_1_1PassInfoMixin.html" target="_top" xlink:title=" ">
<polygon fill="white" stroke="#666666" points="111.25,-86.75 3,-86.75 3,-56.25 111.25,-56.25 111.25,-86.75"/>
<text xml:space="preserve" text-anchor="start" x="11" y="-73.25" font-family="Helvetica,sans-Serif" font-size="10.00">llvm::PassInfoMixin</text>
<text xml:space="preserve" text-anchor="middle" x="57.13" y="-62" font-family="Helvetica,sans-Serif" font-size="10.00">&lt; DXILOpLowering &gt;</text>
</a>
</g>
</g>
<!-- Node2&#45;&gt;Node1 -->
<g id="edge1_Node000001_Node000002" class="edge">
<title>Node2&#45;&gt;Node1</title>
<g id="a_edge1_Node000001_Node000002"><a xlink:title=" ">
<path fill="none" stroke="#63b8ff" d="M57.13,-44.77C57.13,-35.79 57.13,-26.29 57.13,-19.6"/>
<polygon fill="#63b8ff" stroke="#63b8ff" points="53.63,-44.49 57.13,-54.49 60.63,-44.49 53.63,-44.49"/>
</a>
</g>
</g>
<!-- Node3 -->
<g id="Node000003" class="node">
<title>Node3</title>
<g id="a_Node000003"><a xlink:href="structllvm_1_1PassInfoMixin.html" target="_top" xlink:title="A CRTP mix&#45;in to automatically provide informational APIs needed for passes.">
<polygon fill="white" stroke="#666666" points="108.25,-170.5 6,-170.5 6,-140 108.25,-140 108.25,-170.5"/>
<text xml:space="preserve" text-anchor="start" x="14" y="-157" font-family="Helvetica,sans-Serif" font-size="10.00">llvm::PassInfoMixin</text>
<text xml:space="preserve" text-anchor="middle" x="57.13" y="-145.75" font-family="Helvetica,sans-Serif" font-size="10.00">&lt; DerivedT &gt;</text>
</a>
</g>
</g>
<!-- Node3&#45;&gt;Node2 -->
<g id="edge2_Node000002_Node000003" class="edge">
<title>Node3&#45;&gt;Node2</title>
<g id="a_edge2_Node000002_Node000003"><a xlink:title=" ">
<path fill="none" stroke="orange" stroke-dasharray="5,2" d="M57.13,-128.47C57.13,-114.78 57.13,-98.46 57.13,-86.99"/>
<polygon fill="orange" stroke="orange" points="53.63,-128.12 57.13,-138.12 60.63,-128.12 53.63,-128.12"/>
</a>
</g>
<text xml:space="preserve" text-anchor="start" x="60.12" y="-110.75" font-family="Helvetica,sans-Serif" font-size="10.00" fill="grey">&lt; DXILOpLowering &gt;</text>
</g>
</g>
</svg>
