<?xml version="1.0" encoding="UTF-8" standalone="no"?>
<!DOCTYPE svg PUBLIC "-//W3C//DTD SVG 1.1//EN"
 "http://www.w3.org/Graphics/SVG/1.1/DTD/svg11.dtd">
<!-- Generated by graphviz version 14.1.3 (20260303.0454)
 -->
<!-- Title: llvm::orc::LookupTask Pages: 1 -->
<svg width="236pt" height="235pt"
 viewBox="0.00 0.00 236.00 235.00" xmlns="http://www.w3.org/2000/svg" xmlns:xlink="http://www.w3.org/1999/xlink">
<g id="graph0" class="graph" transform="scale(1 1) rotate(0) translate(4 230.75)">
<title>llvm::orc::LookupTask</title>
<!-- Node1 -->
<g id="Node000001" class="node">
<title>Node1</title>
<g id="a_Node000001"><a xlink:title="Lookups are usually run on the current thread, but in some cases they may be run as tasks,...">
<polygon fill="#999999" stroke="#666666" points="121.5,-19.25 9.5,-19.25 9.5,0 121.5,0 121.5,-19.25"/>
<text xml:space="preserve" text-anchor="middle" x="65.5" y="-5.75" font-family="Helvetica,sans-Serif" font-size="10.00">llvm::orc::LookupTask</text>
</a>
</g>
</g>
<!-- Node2 -->
<g id="Node000002" class="node">
<title>Node2</title>
<g id="a_Node000002"><a xlink:href="classllvm_1_1RTTIExtends.html" target="_top" xlink:title=" ">
<polygon fill="white" stroke="#666666" points="119.25,-86.75 11.75,-86.75 11.75,-56.25 119.25,-56.25 119.25,-86.75"/>
<text xml:space="preserve" text-anchor="start" x="19.75" y="-73.25" font-family="Helvetica,sans-Serif" font-size="10.00">llvm::RTTIExtends&lt;</text>
<text xml:space="preserve" text-anchor="middle" x="65.5" y="-62" font-family="Helvetica,sans-Serif" font-size="10.00"> LookupTask, Task &gt;</text>
</a>
</g>
</g>
<!-- Node2&#45;&gt;Node1 -->
<g id="edge1_Node000001_Node000002" class="edge">
<title>Node2&#45;&gt;Node1</title>
<g id="a_edge1_Node000001_Node000002"><a xlink:title=" ">
<path fill="none" stroke="#63b8ff" d="M65.5,-44.77C65.5,-35.79 65.5,-26.29 65.5,-19.6"/>
<polygon fill="#63b8ff" stroke="#63b8ff" points="62,-44.49 65.5,-54.49 69,-44.49 62,-44.49"/>
</a>
</g>
</g>
<!-- Node3 -->
<g id="Node000003" class="node">
<title>Node3</title>
<g id="a_Node000003"><a xlink:title=" ">
<polygon fill="white" stroke="#666666" points="37,-164.88 0,-164.88 0,-145.62 37,-145.62 37,-164.88"/>
<text xml:space="preserve" text-anchor="middle" x="18.5" y="-151.38" font-family="Helvetica,sans-Serif" font-size="10.00">Task</text>
</a>
</g>
</g>
<!-- Node3&#45;&gt;Node2 -->
<g id="edge2_Node000002_Node000003" class="edge">
<title>Node3&#45;&gt;Node2</title>
<g id="a_edge2_Node000002_Node000003"><a xlink:title=" ">
<path fill="none" stroke="#63b8ff" d="M29.21,-135.63C37.66,-120.92 49.3,-100.67 57.1,-87.11"/>
<polygon fill="#63b8ff" stroke="#63b8ff" points="26.41,-133.46 24.46,-143.88 32.48,-136.95 26.41,-133.46"/>
</a>
</g>
</g>
<!-- Node4 -->
<g id="Node000004" class="node">
<title>Node4</title>
<g id="a_Node000004"><a xlink:title=" ">
<polygon fill="white" stroke="#666666" points="107.12,-226.75 43.88,-226.75 43.88,-207.5 107.12,-207.5 107.12,-226.75"/>
<text xml:space="preserve" text-anchor="middle" x="75.5" y="-213.25" font-family="Helvetica,sans-Serif" font-size="10.00">ParentTs...</text>
</a>
</g>
</g>
<!-- Node4&#45;&gt;Node2 -->
<g id="edge3_Node000002_Node000004" class="edge">
<title>Node4&#45;&gt;Node2</title>
<g id="a_edge3_Node000002_Node000004"><a xlink:title=" ">
<path fill="none" stroke="#63b8ff" d="M74.09,-195.84C72.04,-166.37 68.28,-112.46 66.5,-86.8"/>
<polygon fill="#63b8ff" stroke="#63b8ff" points="70.58,-195.9 74.77,-205.63 77.57,-195.41 70.58,-195.9"/>
</a>
</g>
</g>
<!-- Node5 -->
<g id="Node000005" class="node">
<title>Node5</title>
<g id="a_Node000005"><a xlink:href="classllvm_1_1RTTIExtends.html" target="_top" xlink:title="Inheritance utility for extensible RTTI.">
<polygon fill="white" stroke="#666666" points="227.75,-170.5 93.25,-170.5 93.25,-140 227.75,-140 227.75,-170.5"/>
<text xml:space="preserve" text-anchor="start" x="101.25" y="-157" font-family="Helvetica,sans-Serif" font-size="10.00">llvm::RTTIExtends&lt;</text>
<text xml:space="preserve" text-anchor="middle" x="160.5" y="-145.75" font-family="Helvetica,sans-Serif" font-size="10.00"> ThisT, ParentT, ParentTs &gt;</text>
</a>
</g>
</g>
<!-- Node4&#45;&gt;Node5 -->
<g id="edge6_Node000005_Node000004" class="edge">
<title>Node4&#45;&gt;Node5</title>
<g id="a_edge6_Node000005_Node000004"><a xlink:title=" ">
<path fill="none" stroke="#63b8ff" d="M97.62,-200.55C110.66,-191.36 127.07,-179.8 139.85,-170.8"/>
<polygon fill="#63b8ff" stroke="#63b8ff" points="95.81,-197.54 89.65,-206.16 99.84,-203.26 95.81,-197.54"/>
</a>
</g>
</g>
<!-- Node5&#45;&gt;Node2 -->
<g id="edge4_Node000002_Node000005" class="edge">
<title>Node5&#45;&gt;Node2</title>
<g id="a_edge4_Node000002_Node000005"><a xlink:title=" ">
<path fill="none" stroke="orange" stroke-dasharray="5,2" d="M134.8,-132.13C118.13,-117.79 96.88,-99.51 82.34,-86.99"/>
<polygon fill="orange" stroke="orange" points="132.51,-134.78 142.37,-138.65 137.07,-129.47 132.51,-134.78"/>
</a>
</g>
<text xml:space="preserve" text-anchor="start" x="124.51" y="-110.75" font-family="Helvetica,sans-Serif" font-size="10.00" fill="grey">&lt; LookupTask, Task &gt;</text>
</g>
<!-- Node6 -->
<g id="Node000006" class="node">
<title>Node6</title>
<g id="a_Node000006"><a xlink:href="classParentT.html" target="_top" xlink:title=" ">
<polygon fill="white" stroke="#666666" points="185.75,-226.75 135.25,-226.75 135.25,-207.5 185.75,-207.5 185.75,-226.75"/>
<text xml:space="preserve" text-anchor="middle" x="160.5" y="-213.25" font-family="Helvetica,sans-Serif" font-size="10.00">ParentT</text>
</a>
</g>
</g>
<!-- Node6&#45;&gt;Node5 -->
<g id="edge5_Node000005_Node000006" class="edge">
<title>Node6&#45;&gt;Node5</title>
<g id="a_edge5_Node000005_Node000006"><a xlink:title=" ">
<path fill="none" stroke="#63b8ff" d="M160.5,-195.69C160.5,-187.43 160.5,-178.09 160.5,-170.57"/>
<polygon fill="#63b8ff" stroke="#63b8ff" points="157,-195.52 160.5,-205.52 164,-195.52 157,-195.52"/>
</a>
</g>
</g>
</g>
</svg>
