<?xml version="1.0" encoding="UTF-8" standalone="no"?>
<!DOCTYPE svg PUBLIC "-//W3C//DTD SVG 1.1//EN"
 "http://www.w3.org/Graphics/SVG/1.1/DTD/svg11.dtd">
<!-- Generated by graphviz version 14.1.3 (20260303.0454)
 -->
<!-- Title: llvm::MachineRegisterInfo::Delegate Pages: 1 -->
<svg width="270pt" height="94pt"
 viewBox="0.00 0.00 270.00 94.00" xmlns="http://www.w3.org/2000/svg" xmlns:xlink="http://www.w3.org/1999/xlink">
<g id="graph0" class="graph" transform="scale(1 1) rotate(0) translate(4 89.75)">
<title>llvm::MachineRegisterInfo::Delegate</title>
<!-- Node1 -->
<g id="Node000001" class="node">
<title>Node1</title>
<g id="a_Node000001"><a xlink:title=" ">
<polygon fill="#999999" stroke="#666666" points="186.88,-85.75 56.88,-85.75 56.88,-55.25 186.88,-55.25 186.88,-85.75"/>
<text xml:space="preserve" text-anchor="start" x="64.88" y="-72.25" font-family="Helvetica,sans-Serif" font-size="10.00">llvm::MachineRegisterInfo</text>
<text xml:space="preserve" text-anchor="middle" x="121.88" y="-61" font-family="Helvetica,sans-Serif" font-size="10.00">::Delegate</text>
</a>
</g>
</g>
<!-- Node2 -->
<g id="Node000002" class="node">
<title>Node2</title>
<g id="a_Node000002"><a xlink:href="classllvm_1_1LiveRangeEdit.html" target="_top" xlink:title=" ">
<polygon fill="white" stroke="#666666" points="103.75,-19.25 0,-19.25 0,0 103.75,0 103.75,-19.25"/>
<text xml:space="preserve" text-anchor="middle" x="51.88" y="-5.75" font-family="Helvetica,sans-Serif" font-size="10.00">llvm::LiveRangeEdit</text>
</a>
</g>
</g>
<!-- Node1&#45;&gt;Node2 -->
<g id="edge1_Node000001_Node000002" class="edge">
<title>Node1&#45;&gt;Node2</title>
<g id="a_edge1_Node000001_Node000002"><a xlink:title=" ">
<path fill="none" stroke="#8b1a1a" d="M95.77,-47.55C84.31,-37.9 71.48,-27.11 62.67,-19.7"/>
<polygon fill="#8b1a1a" stroke="#8b1a1a" points="93.51,-50.21 103.41,-53.97 98.01,-44.86 93.51,-50.21"/>
</a>
</g>
</g>
<!-- Node3 -->
<g id="Node000003" class="node">
<title>Node3</title>
<g id="a_Node000003"><a xlink:href="classllvm_1_1SIMachineFunctionInfo.html" target="_top" xlink:title="This class keeps track of the SPI_SP_INPUT_ADDR config register, which tells the hardware which inter...">
<polygon fill="white" stroke="#666666" points="262.12,-19.25 121.62,-19.25 121.62,0 262.12,0 262.12,-19.25"/>
<text xml:space="preserve" text-anchor="middle" x="191.88" y="-5.75" font-family="Helvetica,sans-Serif" font-size="10.00">llvm::SIMachineFunctionInfo</text>
</a>
</g>
</g>
<!-- Node1&#45;&gt;Node3 -->
<g id="edge2_Node000001_Node000003" class="edge">
<title>Node1&#45;&gt;Node3</title>
<g id="a_edge2_Node000001_Node000003"><a xlink:title=" ">
<path fill="none" stroke="#8b1a1a" d="M147.98,-47.55C159.44,-37.9 172.27,-27.11 181.08,-19.7"/>
<polygon fill="#8b1a1a" stroke="#8b1a1a" points="145.74,-44.86 140.34,-53.97 150.24,-50.21 145.74,-44.86"/>
</a>
</g>
</g>
</g>
</svg>
