<?xml version="1.0" encoding="UTF-8" standalone="no"?>
<!DOCTYPE svg PUBLIC "-//W3C//DTD SVG 1.1//EN"
 "http://www.w3.org/Graphics/SVG/1.1/DTD/svg11.dtd">
<!-- Generated by graphviz version 14.1.3 (20260303.0454)
 -->
<!-- Title: llvm::RAGreedy Pages: 1 -->
<svg width="232pt" height="94pt"
 viewBox="0.00 0.00 232.00 94.00" xmlns="http://www.w3.org/2000/svg" xmlns:xlink="http://www.w3.org/1999/xlink">
<g id="graph0" class="graph" transform="scale(1 1) rotate(0) translate(4 89.75)">
<title>llvm::RAGreedy</title>
<!-- Node1 -->
<g id="Node000001" class="node">
<title>Node1</title>
<g id="a_Node000001"><a xlink:title=" ">
<polygon fill="#999999" stroke="#666666" points="154,-19.25 68.25,-19.25 68.25,0 154,0 154,-19.25"/>
<text xml:space="preserve" text-anchor="middle" x="111.12" y="-5.75" font-family="Helvetica,sans-Serif" font-size="10.00">llvm::RAGreedy</text>
</a>
</g>
</g>
<!-- Node2 -->
<g id="Node000002" class="node">
<title>Node2</title>
<g id="a_Node000002"><a xlink:href="classllvm_1_1RegAllocBase.html" target="_top" xlink:title="RegAllocBase provides the register allocation driver and interface that can be extended to add intere...">
<polygon fill="white" stroke="#666666" points="102.25,-80.12 0,-80.12 0,-60.88 102.25,-60.88 102.25,-80.12"/>
<text xml:space="preserve" text-anchor="middle" x="51.12" y="-66.62" font-family="Helvetica,sans-Serif" font-size="10.00">llvm::RegAllocBase</text>
</a>
</g>
</g>
<!-- Node2&#45;&gt;Node1 -->
<g id="edge1_Node000001_Node000002" class="edge">
<title>Node2&#45;&gt;Node1</title>
<g id="a_edge1_Node000001_Node000002"><a xlink:title=" ">
<path fill="none" stroke="#63b8ff" d="M68.27,-52.68C79.22,-41.93 93,-28.41 101.93,-19.65"/>
<polygon fill="#63b8ff" stroke="#63b8ff" points="66,-50 61.32,-59.5 70.91,-54.99 66,-50"/>
</a>
</g>
</g>
<!-- Node3 -->
<g id="Node000003" class="node">
<title>Node3</title>
<g id="a_Node000003"><a xlink:href="classllvm_1_1LiveRangeEdit_1_1Delegate.html" target="_top" xlink:title="Callback methods for LiveRangeEdit owners.">
<polygon fill="white" stroke="#666666" points="224,-85.75 120.25,-85.75 120.25,-55.25 224,-55.25 224,-85.75"/>
<text xml:space="preserve" text-anchor="start" x="128.25" y="-72.25" font-family="Helvetica,sans-Serif" font-size="10.00">llvm::LiveRangeEdit</text>
<text xml:space="preserve" text-anchor="middle" x="172.12" y="-61" font-family="Helvetica,sans-Serif" font-size="10.00">::Delegate</text>
</a>
</g>
</g>
<!-- Node3&#45;&gt;Node1 -->
<g id="edge2_Node000001_Node000003" class="edge">
<title>Node3&#45;&gt;Node1</title>
<g id="a_edge2_Node000001_Node000003"><a xlink:title=" ">
<path fill="none" stroke="#8b1a1a" d="M148.78,-46.97C138.95,-37.48 128.06,-26.97 120.53,-19.7"/>
<polygon fill="#8b1a1a" stroke="#8b1a1a" points="146.33,-49.47 155.96,-53.9 151.19,-44.43 146.33,-49.47"/>
</a>
</g>
</g>
</g>
</svg>
