<?xml version="1.0" encoding="UTF-8" standalone="no"?>
<!DOCTYPE svg PUBLIC "-//W3C//DTD SVG 1.1//EN"
 "http://www.w3.org/Graphics/SVG/1.1/DTD/svg11.dtd">
<!-- Generated by graphviz version 14.1.3 (20260303.0454)
 -->
<!-- Title: llvm::objcopy::elf::RelocSectionWithSymtabBase&lt; SymTabType &gt; Pages: 1 -->
<svg width="981pt" height="110pt"
 viewBox="0.00 0.00 981.00 110.00" xmlns="http://www.w3.org/2000/svg" xmlns:xlink="http://www.w3.org/1999/xlink">
<g id="graph0" class="graph" transform="scale(1 1) rotate(0) translate(4 105.75)">
<title>llvm::objcopy::elf::RelocSectionWithSymtabBase&lt; SymTabType &gt;</title>
<!-- Node1 -->
<g id="Node000001" class="node">
<title>Node1</title>
<g id="a_Node000001"><a xlink:title=" ">
<polygon fill="#999999" stroke="#666666" points="445.25,-71.75 288.25,-71.75 288.25,-30 445.25,-30 445.25,-71.75"/>
<text xml:space="preserve" text-anchor="start" x="296.25" y="-58.25" font-family="Helvetica,sans-Serif" font-size="10.00">llvm::objcopy::elf</text>
<text xml:space="preserve" text-anchor="start" x="296.25" y="-47" font-family="Helvetica,sans-Serif" font-size="10.00">::RelocSectionWithSymtabBase</text>
<text xml:space="preserve" text-anchor="middle" x="366.75" y="-35.75" font-family="Helvetica,sans-Serif" font-size="10.00">&lt; SymTabType &gt;</text>
</a>
</g>
</g>
<!-- Node4 -->
<g id="Node000004" class="node">
<title>Node4</title>
<g id="a_Node000004"><a xlink:href="classllvm_1_1objcopy_1_1elf_1_1RelocSectionWithSymtabBase.html" target="_top" xlink:title=" ">
<polygon fill="white" stroke="#666666" points="795.75,-101.75 633.5,-101.75 633.5,-60 795.75,-60 795.75,-101.75"/>
<text xml:space="preserve" text-anchor="start" x="641.5" y="-88.25" font-family="Helvetica,sans-Serif" font-size="10.00">llvm::objcopy::elf</text>
<text xml:space="preserve" text-anchor="start" x="641.5" y="-77" font-family="Helvetica,sans-Serif" font-size="10.00">::RelocSectionWithSymtabBase</text>
<text xml:space="preserve" text-anchor="middle" x="714.62" y="-65.75" font-family="Helvetica,sans-Serif" font-size="10.00">&lt; DynamicSymbolTableSection &gt;</text>
</a>
</g>
</g>
<!-- Node1&#45;&gt;Node4 -->
<g id="edge3_Node000001_Node000004" class="edge">
<title>Node1&#45;&gt;Node4</title>
<g id="a_edge3_Node000001_Node000004"><a xlink:title=" ">
<path fill="none" stroke="orange" stroke-dasharray="5,2" d="M456.77,-58.6C511.26,-63.32 580.43,-69.32 633.26,-73.9"/>
<polygon fill="orange" stroke="orange" points="457.14,-55.12 446.88,-57.74 456.54,-62.09 457.14,-55.12"/>
</a>
</g>
<text xml:space="preserve" text-anchor="start" x="466.25" y="-78.01" font-family="Helvetica,sans-Serif" font-size="10.00" fill="grey">&lt; DynamicSymbolTableSection &gt;</text>
</g>
<!-- Node6 -->
<g id="Node000006" class="node">
<title>Node6</title>
<g id="a_Node000006"><a xlink:href="classllvm_1_1objcopy_1_1elf_1_1RelocSectionWithSymtabBase.html" target="_top" xlink:title=" ">
<polygon fill="white" stroke="#666666" points="793.12,-41.75 636.12,-41.75 636.12,0 793.12,0 793.12,-41.75"/>
<text xml:space="preserve" text-anchor="start" x="644.12" y="-28.25" font-family="Helvetica,sans-Serif" font-size="10.00">llvm::objcopy::elf</text>
<text xml:space="preserve" text-anchor="start" x="644.12" y="-17" font-family="Helvetica,sans-Serif" font-size="10.00">::RelocSectionWithSymtabBase</text>
<text xml:space="preserve" text-anchor="middle" x="714.62" y="-5.75" font-family="Helvetica,sans-Serif" font-size="10.00">&lt; SymbolTableSection &gt;</text>
</a>
</g>
</g>
<!-- Node1&#45;&gt;Node6 -->
<g id="edge5_Node000001_Node000006" class="edge">
<title>Node1&#45;&gt;Node6</title>
<g id="a_edge5_Node000001_Node000006"><a xlink:title=" ">
<path fill="none" stroke="orange" stroke-dasharray="5,2" d="M457,-39.27C459.1,-39.04 461.19,-38.83 463.25,-38.62 520.92,-32.89 586.25,-28.32 635.71,-25.26"/>
<polygon fill="orange" stroke="orange" points="456.69,-35.78 447.13,-40.35 457.45,-42.74 456.69,-35.78"/>
</a>
</g>
<text xml:space="preserve" text-anchor="start" x="485.75" y="-44.62" font-family="Helvetica,sans-Serif" font-size="10.00" fill="grey">&lt; SymbolTableSection &gt;</text>
</g>
<!-- Node2 -->
<g id="Node000002" class="node">
<title>Node2</title>
<g id="a_Node000002"><a xlink:href="classllvm_1_1objcopy_1_1elf_1_1RelocationSectionBase.html" target="_top" xlink:title=" ">
<polygon fill="white" stroke="#666666" points="251.25,-66.12 127.25,-66.12 127.25,-35.62 251.25,-35.62 251.25,-66.12"/>
<text xml:space="preserve" text-anchor="start" x="135.25" y="-52.62" font-family="Helvetica,sans-Serif" font-size="10.00">llvm::objcopy::elf</text>
<text xml:space="preserve" text-anchor="middle" x="189.25" y="-41.38" font-family="Helvetica,sans-Serif" font-size="10.00">::RelocationSectionBase</text>
</a>
</g>
</g>
<!-- Node2&#45;&gt;Node1 -->
<g id="edge1_Node000001_Node000002" class="edge">
<title>Node2&#45;&gt;Node1</title>
<g id="a_edge1_Node000001_Node000002"><a xlink:title=" ">
<path fill="none" stroke="#63b8ff" d="M263.12,-50.88C271.35,-50.88 279.76,-50.88 288.05,-50.88"/>
<polygon fill="#63b8ff" stroke="#63b8ff" points="263.14,-47.38 253.14,-50.88 263.14,-54.38 263.14,-47.38"/>
</a>
</g>
</g>
<!-- Node3 -->
<g id="Node000003" class="node">
<title>Node3</title>
<g id="a_Node000003"><a xlink:href="classllvm_1_1objcopy_1_1elf_1_1SectionBase.html" target="_top" xlink:title=" ">
<polygon fill="white" stroke="#666666" points="90.25,-66.12 0,-66.12 0,-35.62 90.25,-35.62 90.25,-66.12"/>
<text xml:space="preserve" text-anchor="start" x="8" y="-52.62" font-family="Helvetica,sans-Serif" font-size="10.00">llvm::objcopy::elf</text>
<text xml:space="preserve" text-anchor="middle" x="45.12" y="-41.38" font-family="Helvetica,sans-Serif" font-size="10.00">::SectionBase</text>
</a>
</g>
</g>
<!-- Node3&#45;&gt;Node2 -->
<g id="edge2_Node000002_Node000003" class="edge">
<title>Node3&#45;&gt;Node2</title>
<g id="a_edge2_Node000002_Node000003"><a xlink:title=" ">
<path fill="none" stroke="#63b8ff" d="M102.02,-50.88C110.19,-50.88 118.63,-50.88 126.9,-50.88"/>
<polygon fill="#63b8ff" stroke="#63b8ff" points="102.22,-47.38 92.22,-50.88 102.22,-54.38 102.22,-47.38"/>
</a>
</g>
</g>
<!-- Node5 -->
<g id="Node000005" class="node">
<title>Node5</title>
<g id="a_Node000005"><a xlink:href="classllvm_1_1objcopy_1_1elf_1_1DynamicRelocationSection.html" target="_top" xlink:title=" ">
<polygon fill="white" stroke="#666666" points="973.25,-96.12 832.75,-96.12 832.75,-65.62 973.25,-65.62 973.25,-96.12"/>
<text xml:space="preserve" text-anchor="start" x="840.75" y="-82.62" font-family="Helvetica,sans-Serif" font-size="10.00">llvm::objcopy::elf</text>
<text xml:space="preserve" text-anchor="middle" x="903" y="-71.38" font-family="Helvetica,sans-Serif" font-size="10.00">::DynamicRelocationSection</text>
</a>
</g>
</g>
<!-- Node4&#45;&gt;Node5 -->
<g id="edge4_Node000004_Node000005" class="edge">
<title>Node4&#45;&gt;Node5</title>
<g id="a_edge4_Node000004_Node000005"><a xlink:title=" ">
<path fill="none" stroke="#63b8ff" d="M807.44,-80.88C815.84,-80.88 824.26,-80.88 832.41,-80.88"/>
<polygon fill="#63b8ff" stroke="#63b8ff" points="807.53,-77.38 797.53,-80.88 807.53,-84.38 807.53,-77.38"/>
</a>
</g>
</g>
<!-- Node7 -->
<g id="Node000007" class="node">
<title>Node7</title>
<g id="a_Node000007"><a xlink:href="classllvm_1_1objcopy_1_1elf_1_1RelocationSection.html" target="_top" xlink:title=" ">
<polygon fill="white" stroke="#666666" points="953.75,-36.12 852.25,-36.12 852.25,-5.62 953.75,-5.62 953.75,-36.12"/>
<text xml:space="preserve" text-anchor="start" x="860.25" y="-22.62" font-family="Helvetica,sans-Serif" font-size="10.00">llvm::objcopy::elf</text>
<text xml:space="preserve" text-anchor="middle" x="903" y="-11.38" font-family="Helvetica,sans-Serif" font-size="10.00">::RelocationSection</text>
</a>
</g>
</g>
<!-- Node6&#45;&gt;Node7 -->
<g id="edge6_Node000006_Node000007" class="edge">
<title>Node6&#45;&gt;Node7</title>
<g id="a_edge6_Node000006_Node000007"><a xlink:title=" ">
<path fill="none" stroke="#63b8ff" d="M804.77,-20.88C821,-20.88 837.39,-20.88 851.97,-20.88"/>
<polygon fill="#63b8ff" stroke="#63b8ff" points="805.1,-17.38 795.1,-20.88 805.1,-24.38 805.1,-17.38"/>
</a>
</g>
</g>
</g>
</svg>
