<?xml version="1.0" encoding="UTF-8" standalone="no"?>
<!DOCTYPE svg PUBLIC "-//W3C//DTD SVG 1.1//EN"
 "http://www.w3.org/Graphics/SVG/1.1/DTD/svg11.dtd">
<!-- Generated by graphviz version 14.1.3 (20260303.0454)
 -->
<!-- Title: llvm::DbgRecordParamRef&lt; T &gt; Pages: 1 -->
<svg width="452pt" height="137pt"
 viewBox="0.00 0.00 452.00 137.00" xmlns="http://www.w3.org/2000/svg" xmlns:xlink="http://www.w3.org/1999/xlink">
<g id="graph0" class="graph" transform="scale(1 1) rotate(0) translate(4 132.5)">
<title>llvm::DbgRecordParamRef&lt; T &gt;</title>
<!-- Node1 -->
<g id="Node000001" class="node">
<title>Node1</title>
<g id="a_Node000001"><a xlink:title="A typed tracking MDNode reference that does not require a definition for its parameter type.">
<polygon fill="#999999" stroke="#666666" points="157.75,-73.88 0,-73.88 0,-54.62 157.75,-54.62 157.75,-73.88"/>
<text xml:space="preserve" text-anchor="middle" x="78.88" y="-60.38" font-family="Helvetica,sans-Serif" font-size="10.00">llvm::DbgRecordParamRef&lt; T &gt;</text>
</a>
</g>
</g>
<!-- Node2 -->
<g id="Node000002" class="node">
<title>Node2</title>
<g id="a_Node000002"><a xlink:href="classllvm_1_1DbgRecordParamRef.html" target="_top" xlink:title=" ">
<polygon fill="white" stroke="#666666" points="443.75,-128.5 310,-128.5 310,-98 443.75,-98 443.75,-128.5"/>
<text xml:space="preserve" text-anchor="start" x="318" y="-115" font-family="Helvetica,sans-Serif" font-size="10.00">llvm::DbgRecordParamRef</text>
<text xml:space="preserve" text-anchor="middle" x="376.88" y="-103.75" font-family="Helvetica,sans-Serif" font-size="10.00">&lt; llvm::DILabel &gt;</text>
</a>
</g>
</g>
<!-- Node1&#45;&gt;Node2 -->
<g id="edge1_Node000001_Node000002" class="edge">
<title>Node1&#45;&gt;Node2</title>
<g id="a_edge1_Node000001_Node000002"><a xlink:title=" ">
<path fill="none" stroke="orange" stroke-dasharray="5,2" d="M133.86,-76.83C147.49,-79.8 162.12,-82.81 175.75,-85.25 220.3,-93.23 270.76,-100.28 309.88,-105.31"/>
<polygon fill="orange" stroke="orange" points="134.69,-73.43 124.17,-74.69 133.17,-80.27 134.69,-73.43"/>
</a>
</g>
<text xml:space="preserve" text-anchor="start" x="196" y="-108.63" font-family="Helvetica,sans-Serif" font-size="10.00" fill="grey">&lt; llvm::DILabel &gt;</text>
</g>
<!-- Node3 -->
<g id="Node000003" class="node">
<title>Node3</title>
<g id="a_Node000003"><a xlink:href="classllvm_1_1DbgRecordParamRef.html" target="_top" xlink:title=" ">
<polygon fill="white" stroke="#666666" points="443.75,-79.5 310,-79.5 310,-49 443.75,-49 443.75,-79.5"/>
<text xml:space="preserve" text-anchor="start" x="318" y="-66" font-family="Helvetica,sans-Serif" font-size="10.00">llvm::DbgRecordParamRef</text>
<text xml:space="preserve" text-anchor="middle" x="376.88" y="-54.75" font-family="Helvetica,sans-Serif" font-size="10.00">&lt; llvm::DILocalVariable &gt;</text>
</a>
</g>
</g>
<!-- Node1&#45;&gt;Node3 -->
<g id="edge2_Node000001_Node000003" class="edge">
<title>Node1&#45;&gt;Node3</title>
<g id="a_edge2_Node000001_Node000003"><a xlink:title=" ">
<path fill="none" stroke="orange" stroke-dasharray="5,2" d="M169.33,-64.25C214.53,-64.25 268.42,-64.25 309.82,-64.25"/>
<polygon fill="orange" stroke="orange" points="169.55,-60.75 159.55,-64.25 169.55,-67.75 169.55,-60.75"/>
</a>
</g>
<text xml:space="preserve" text-anchor="start" x="178.75" y="-70.25" font-family="Helvetica,sans-Serif" font-size="10.00" fill="grey">&lt; llvm::DILocalVariable &gt;</text>
</g>
<!-- Node4 -->
<g id="Node000004" class="node">
<title>Node4</title>
<g id="a_Node000004"><a xlink:href="classllvm_1_1DbgRecordParamRef.html" target="_top" xlink:title=" ">
<polygon fill="white" stroke="#666666" points="443.75,-30.5 310,-30.5 310,0 443.75,0 443.75,-30.5"/>
<text xml:space="preserve" text-anchor="start" x="318" y="-17" font-family="Helvetica,sans-Serif" font-size="10.00">llvm::DbgRecordParamRef</text>
<text xml:space="preserve" text-anchor="middle" x="376.88" y="-5.75" font-family="Helvetica,sans-Serif" font-size="10.00">&lt; llvm::DIExpression &gt;</text>
</a>
</g>
</g>
<!-- Node1&#45;&gt;Node4 -->
<g id="edge3_Node000001_Node000004" class="edge">
<title>Node1&#45;&gt;Node4</title>
<g id="a_edge3_Node000001_Node000004"><a xlink:title=" ">
<path fill="none" stroke="orange" stroke-dasharray="5,2" d="M132.65,-51.76C146.62,-48.67 161.72,-45.52 175.75,-43 220.28,-34.99 270.75,-28.01 309.87,-23.05"/>
<polygon fill="orange" stroke="orange" points="132.2,-48.27 123.21,-53.88 133.73,-55.1 132.2,-48.27"/>
</a>
</g>
<text xml:space="preserve" text-anchor="start" x="183.25" y="-49" font-family="Helvetica,sans-Serif" font-size="10.00" fill="grey">&lt; llvm::DIExpression &gt;</text>
</g>
</g>
</svg>
