<?xml version="1.0" encoding="UTF-8" standalone="no"?>
<!DOCTYPE svg PUBLIC "-//W3C//DTD SVG 1.1//EN"
 "http://www.w3.org/Graphics/SVG/1.1/DTD/svg11.dtd">
<!-- Generated by graphviz version 14.1.3 (20260303.0454)
 -->
<!-- Title: llvm::MachineBlockFrequencyAnalysis Pages: 1 -->
<svg width="1062pt" height="90pt"
 viewBox="0.00 0.00 1062.00 90.00" xmlns="http://www.w3.org/2000/svg" xmlns:xlink="http://www.w3.org/1999/xlink">
<g id="graph0" class="graph" transform="scale(1 1) rotate(0) translate(4 85.5)">
<title>llvm::MachineBlockFrequencyAnalysis</title>
<!-- Node1 -->
<g id="Node000001" class="node">
<title>Node1</title>
<g id="a_Node000001"><a xlink:title=" ">
<polygon fill="#999999" stroke="#666666" points="1053.5,-54.5 906.25,-54.5 906.25,-24 1053.5,-24 1053.5,-54.5"/>
<text xml:space="preserve" text-anchor="start" x="914.25" y="-41" font-family="Helvetica,sans-Serif" font-size="10.00">llvm::MachineBlockFrequency</text>
<text xml:space="preserve" text-anchor="middle" x="979.88" y="-29.75" font-family="Helvetica,sans-Serif" font-size="10.00">Analysis</text>
</a>
</g>
</g>
<!-- Node2 -->
<g id="Node000002" class="node">
<title>Node2</title>
<g id="a_Node000002"><a xlink:href="structllvm_1_1AnalysisInfoMixin.html" target="_top" xlink:title=" ">
<polygon fill="white" stroke="#666666" points="869.25,-54.5 690.5,-54.5 690.5,-24 869.25,-24 869.25,-54.5"/>
<text xml:space="preserve" text-anchor="start" x="698.5" y="-41" font-family="Helvetica,sans-Serif" font-size="10.00">llvm::AnalysisInfoMixin</text>
<text xml:space="preserve" text-anchor="middle" x="779.88" y="-29.75" font-family="Helvetica,sans-Serif" font-size="10.00">&lt; MachineBlockFrequencyAnalysis &gt;</text>
</a>
</g>
</g>
<!-- Node2&#45;&gt;Node1 -->
<g id="edge1_Node000001_Node000002" class="edge">
<title>Node2&#45;&gt;Node1</title>
<g id="a_edge1_Node000001_Node000002"><a xlink:title=" ">
<path fill="none" stroke="#63b8ff" d="M881.15,-39.25C889.53,-39.25 897.9,-39.25 906.01,-39.25"/>
<polygon fill="#63b8ff" stroke="#63b8ff" points="881.25,-35.75 871.25,-39.25 881.25,-42.75 881.25,-35.75"/>
</a>
</g>
</g>
<!-- Node3 -->
<g id="Node000003" class="node">
<title>Node3</title>
<g id="a_Node000003"><a xlink:href="structllvm_1_1PassInfoMixin.html" target="_top" xlink:title=" ">
<polygon fill="white" stroke="#666666" points="485.75,-79.5 307,-79.5 307,-49 485.75,-49 485.75,-79.5"/>
<text xml:space="preserve" text-anchor="start" x="315" y="-66" font-family="Helvetica,sans-Serif" font-size="10.00">llvm::PassInfoMixin</text>
<text xml:space="preserve" text-anchor="middle" x="396.38" y="-54.75" font-family="Helvetica,sans-Serif" font-size="10.00">&lt; MachineBlockFrequencyAnalysis &gt;</text>
</a>
</g>
</g>
<!-- Node3&#45;&gt;Node2 -->
<g id="edge2_Node000002_Node000003" class="edge">
<title>Node3&#45;&gt;Node2</title>
<g id="a_edge2_Node000002_Node000003"><a xlink:title=" ">
<path fill="none" stroke="#63b8ff" d="M497.22,-57.71C557.06,-53.79 632.48,-48.84 690.21,-45.06"/>
<polygon fill="#63b8ff" stroke="#63b8ff" points="497.12,-54.21 487.37,-58.35 497.58,-61.19 497.12,-54.21"/>
</a>
</g>
</g>
<!-- Node4 -->
<g id="Node000004" class="node">
<title>Node4</title>
<g id="a_Node000004"><a xlink:href="structllvm_1_1PassInfoMixin.html" target="_top" xlink:title="A CRTP mix&#45;in to automatically provide informational APIs needed for passes.">
<polygon fill="white" stroke="#666666" points="102.25,-79.5 0,-79.5 0,-49 102.25,-49 102.25,-79.5"/>
<text xml:space="preserve" text-anchor="start" x="8" y="-66" font-family="Helvetica,sans-Serif" font-size="10.00">llvm::PassInfoMixin</text>
<text xml:space="preserve" text-anchor="middle" x="51.12" y="-54.75" font-family="Helvetica,sans-Serif" font-size="10.00">&lt; DerivedT &gt;</text>
</a>
</g>
</g>
<!-- Node4&#45;&gt;Node3 -->
<g id="edge3_Node000003_Node000004" class="edge">
<title>Node4&#45;&gt;Node3</title>
<g id="a_edge3_Node000003_Node000004"><a xlink:title=" ">
<path fill="none" stroke="orange" stroke-dasharray="5,2" d="M113.82,-64.25C167.57,-64.25 246.17,-64.25 306.67,-64.25"/>
<polygon fill="orange" stroke="orange" points="113.92,-60.75 103.92,-64.25 113.92,-67.75 113.92,-60.75"/>
</a>
</g>
<text xml:space="preserve" text-anchor="start" x="123.25" y="-70.25" font-family="Helvetica,sans-Serif" font-size="10.00" fill="grey">&lt; MachineBlockFrequencyAnalysis &gt;</text>
</g>
<!-- Node5 -->
<g id="Node000005" class="node">
<title>Node5</title>
<g id="a_Node000005"><a xlink:href="structllvm_1_1AnalysisInfoMixin.html" target="_top" xlink:title="A CRTP mix&#45;in that provides informational APIs needed for analysis passes.">
<polygon fill="white" stroke="#666666" points="455,-30.5 337.75,-30.5 337.75,0 455,0 455,-30.5"/>
<text xml:space="preserve" text-anchor="start" x="345.75" y="-17" font-family="Helvetica,sans-Serif" font-size="10.00">llvm::AnalysisInfoMixin</text>
<text xml:space="preserve" text-anchor="middle" x="396.38" y="-5.75" font-family="Helvetica,sans-Serif" font-size="10.00">&lt; DerivedT &gt;</text>
</a>
</g>
</g>
<!-- Node5&#45;&gt;Node2 -->
<g id="edge4_Node000002_Node000005" class="edge">
<title>Node5&#45;&gt;Node2</title>
<g id="a_edge4_Node000002_Node000005"><a xlink:title=" ">
<path fill="none" stroke="orange" stroke-dasharray="5,2" d="M466.9,-17.34C522.57,-19.28 602.62,-22.69 672.5,-28 678.24,-28.44 684.15,-28.93 690.1,-29.47"/>
<polygon fill="orange" stroke="orange" points="467.03,-13.84 456.92,-17 466.79,-20.83 467.03,-13.84"/>
</a>
</g>
<text xml:space="preserve" text-anchor="start" x="506.75" y="-34" font-family="Helvetica,sans-Serif" font-size="10.00" fill="grey">&lt; MachineBlockFrequencyAnalysis &gt;</text>
</g>
<!-- Node6 -->
<g id="Node000006" class="node">
<title>Node6</title>
<g id="a_Node000006"><a xlink:href="structllvm_1_1PassInfoMixin.html" target="_top" xlink:title="A CRTP mix&#45;in to automatically provide informational APIs needed for passes.">
<polygon fill="white" stroke="#666666" points="102.25,-30.5 0,-30.5 0,0 102.25,0 102.25,-30.5"/>
<text xml:space="preserve" text-anchor="start" x="8" y="-17" font-family="Helvetica,sans-Serif" font-size="10.00">llvm::PassInfoMixin</text>
<text xml:space="preserve" text-anchor="middle" x="51.12" y="-5.75" font-family="Helvetica,sans-Serif" font-size="10.00">&lt; DerivedT &gt;</text>
</a>
</g>
</g>
<!-- Node6&#45;&gt;Node5 -->
<g id="edge5_Node000005_Node000006" class="edge">
<title>Node6&#45;&gt;Node5</title>
<g id="a_edge5_Node000005_Node000006"><a xlink:title=" ">
<path fill="none" stroke="#63b8ff" d="M113.84,-15.25C177.33,-15.25 275.45,-15.25 337.5,-15.25"/>
<polygon fill="#63b8ff" stroke="#63b8ff" points="113.92,-11.75 103.92,-15.25 113.92,-18.75 113.92,-11.75"/>
</a>
</g>
</g>
</g>
</svg>
