<?xml version="1.0" encoding="UTF-8" standalone="no"?>
<!DOCTYPE svg PUBLIC "-//W3C//DTD SVG 1.1//EN"
 "http://www.w3.org/Graphics/SVG/1.1/DTD/svg11.dtd">
<!-- Generated by graphviz version 14.1.3 (20260303.0454)
 -->
<!-- Title: llvm::sandboxir::CmpInst Pages: 1 -->
<svg width="346pt" height="404pt"
 viewBox="0.00 0.00 346.00 404.00" xmlns="http://www.w3.org/2000/svg" xmlns:xlink="http://www.w3.org/1999/xlink">
<g id="graph0" class="graph" transform="scale(1 1) rotate(0) translate(4 399.5)">
<title>llvm::sandboxir::CmpInst</title>
<!-- Node1 -->
<g id="Node000001" class="node">
<title>Node1</title>
<g id="a_Node000001"><a xlink:title=" ">
<polygon fill="#999999" stroke="#666666" points="202.5,-75.5 77,-75.5 77,-56.25 202.5,-56.25 202.5,-75.5"/>
<text xml:space="preserve" text-anchor="middle" x="139.75" y="-62" font-family="Helvetica,sans-Serif" font-size="10.00">llvm::sandboxir::CmpInst</text>
</a>
</g>
</g>
<!-- Node7 -->
<g id="Node000007" class="node">
<title>Node7</title>
<g id="a_Node000007"><a xlink:href="classllvm_1_1sandboxir_1_1FCmpInst.html" target="_top" xlink:title=" ">
<polygon fill="white" stroke="#666666" points="131.5,-19.25 0,-19.25 0,0 131.5,0 131.5,-19.25"/>
<text xml:space="preserve" text-anchor="middle" x="65.75" y="-5.75" font-family="Helvetica,sans-Serif" font-size="10.00">llvm::sandboxir::FCmpInst</text>
</a>
</g>
</g>
<!-- Node1&#45;&gt;Node7 -->
<g id="edge7_Node000001_Node000007" class="edge">
<title>Node1&#45;&gt;Node7</title>
<g id="a_edge7_Node000001_Node000007"><a xlink:title=" ">
<path fill="none" stroke="#63b8ff" d="M118.28,-49.13C105.18,-39.53 88.92,-27.61 77.99,-19.6"/>
<polygon fill="#63b8ff" stroke="#63b8ff" points="116.18,-51.93 126.31,-55.02 120.31,-46.29 116.18,-51.93"/>
</a>
</g>
</g>
<!-- Node8 -->
<g id="Node000008" class="node">
<title>Node8</title>
<g id="a_Node000008"><a xlink:href="classllvm_1_1sandboxir_1_1ICmpInst.html" target="_top" xlink:title=" ">
<polygon fill="white" stroke="#666666" points="278,-19.25 149.5,-19.25 149.5,0 278,0 278,-19.25"/>
<text xml:space="preserve" text-anchor="middle" x="213.75" y="-5.75" font-family="Helvetica,sans-Serif" font-size="10.00">llvm::sandboxir::ICmpInst</text>
</a>
</g>
</g>
<!-- Node1&#45;&gt;Node8 -->
<g id="edge8_Node000001_Node000008" class="edge">
<title>Node1&#45;&gt;Node8</title>
<g id="a_edge8_Node000001_Node000008"><a xlink:title=" ">
<path fill="none" stroke="#63b8ff" d="M161.22,-49.13C174.32,-39.53 190.58,-27.61 201.51,-19.6"/>
<polygon fill="#63b8ff" stroke="#63b8ff" points="159.19,-46.29 153.19,-55.02 163.32,-51.93 159.19,-46.29"/>
</a>
</g>
</g>
<!-- Node2 -->
<g id="Node000002" class="node">
<title>Node2</title>
<g id="a_Node000002"><a xlink:href="classllvm_1_1sandboxir_1_1SingleLLVMInstructionImpl.html" target="_top" xlink:title=" ">
<polygon fill="white" stroke="#666666" points="232.5,-143 47,-143 47,-112.5 232.5,-112.5 232.5,-143"/>
<text xml:space="preserve" text-anchor="start" x="55" y="-129.5" font-family="Helvetica,sans-Serif" font-size="10.00">llvm::sandboxir::SingleLLVMInstruction</text>
<text xml:space="preserve" text-anchor="middle" x="139.75" y="-118.25" font-family="Helvetica,sans-Serif" font-size="10.00">Impl&lt; llvm::CmpInst &gt;</text>
</a>
</g>
</g>
<!-- Node2&#45;&gt;Node1 -->
<g id="edge1_Node000001_Node000002" class="edge">
<title>Node2&#45;&gt;Node1</title>
<g id="a_edge1_Node000001_Node000002"><a xlink:title=" ">
<path fill="none" stroke="#63b8ff" d="M139.75,-101.02C139.75,-92.04 139.75,-82.54 139.75,-75.85"/>
<polygon fill="#63b8ff" stroke="#63b8ff" points="136.25,-100.74 139.75,-110.74 143.25,-100.74 136.25,-100.74"/>
</a>
</g>
</g>
<!-- Node3 -->
<g id="Node000003" class="node">
<title>Node3</title>
<g id="a_Node000003"><a xlink:href="classllvm_1_1sandboxir_1_1Instruction.html" target="_top" xlink:title="A sandboxir::User with operands, opcode and linked with previous/next instructions in an instruction ...">
<polygon fill="white" stroke="#666666" points="202.62,-283 68.88,-283 68.88,-263.75 202.62,-263.75 202.62,-283"/>
<text xml:space="preserve" text-anchor="middle" x="135.75" y="-269.5" font-family="Helvetica,sans-Serif" font-size="10.00">llvm::sandboxir::Instruction</text>
</a>
</g>
</g>
<!-- Node3&#45;&gt;Node2 -->
<g id="edge2_Node000002_Node000003" class="edge">
<title>Node3&#45;&gt;Node2</title>
<g id="a_edge2_Node000002_Node000003"><a xlink:title=" ">
<path fill="none" stroke="#63b8ff" d="M136.32,-252.09C137.14,-222.62 138.64,-168.71 139.35,-143.05"/>
<polygon fill="#63b8ff" stroke="#63b8ff" points="132.82,-251.78 136.04,-261.88 139.82,-251.98 132.82,-251.78"/>
</a>
</g>
</g>
<!-- Node6 -->
<g id="Node000006" class="node">
<title>Node6</title>
<g id="a_Node000006"><a xlink:href="classllvm_1_1sandboxir_1_1SingleLLVMInstructionImpl.html" target="_top" xlink:title="Instructions that contain a single LLVM Instruction can inherit from this.">
<polygon fill="white" stroke="#666666" points="337.5,-226.75 152,-226.75 152,-196.25 337.5,-196.25 337.5,-226.75"/>
<text xml:space="preserve" text-anchor="start" x="160" y="-213.25" font-family="Helvetica,sans-Serif" font-size="10.00">llvm::sandboxir::SingleLLVMInstruction</text>
<text xml:space="preserve" text-anchor="middle" x="244.75" y="-202" font-family="Helvetica,sans-Serif" font-size="10.00">Impl&lt; LLVMT &gt;</text>
</a>
</g>
</g>
<!-- Node3&#45;&gt;Node6 -->
<g id="edge6_Node000006_Node000003" class="edge">
<title>Node3&#45;&gt;Node6</title>
<g id="a_edge6_Node000006_Node000003"><a xlink:title=" ">
<path fill="none" stroke="#63b8ff" d="M162.16,-257.87C179.18,-248.52 201.23,-236.4 218.27,-227.05"/>
<polygon fill="#63b8ff" stroke="#63b8ff" points="160.71,-254.67 153.63,-262.55 164.08,-260.81 160.71,-254.67"/>
</a>
</g>
</g>
<!-- Node4 -->
<g id="Node000004" class="node">
<title>Node4</title>
<g id="a_Node000004"><a xlink:href="classllvm_1_1sandboxir_1_1User.html" target="_top" xlink:title="A sandboxir::User has operands.">
<polygon fill="white" stroke="#666666" points="190.25,-339.25 81.25,-339.25 81.25,-320 190.25,-320 190.25,-339.25"/>
<text xml:space="preserve" text-anchor="middle" x="135.75" y="-325.75" font-family="Helvetica,sans-Serif" font-size="10.00">llvm::sandboxir::User</text>
</a>
</g>
</g>
<!-- Node4&#45;&gt;Node3 -->
<g id="edge3_Node000003_Node000004" class="edge">
<title>Node4&#45;&gt;Node3</title>
<g id="a_edge3_Node000003_Node000004"><a xlink:title=" ">
<path fill="none" stroke="#63b8ff" d="M135.75,-308.44C135.75,-299.73 135.75,-289.99 135.75,-283.17"/>
<polygon fill="#63b8ff" stroke="#63b8ff" points="132.25,-308.15 135.75,-318.15 139.25,-308.15 132.25,-308.15"/>
</a>
</g>
</g>
<!-- Node5 -->
<g id="Node000005" class="node">
<title>Node5</title>
<g id="a_Node000005"><a xlink:href="classllvm_1_1sandboxir_1_1Value.html" target="_top" xlink:title="A SandboxIR Value has users. This is the base class.">
<polygon fill="white" stroke="#666666" points="191.75,-395.5 79.75,-395.5 79.75,-376.25 191.75,-376.25 191.75,-395.5"/>
<text xml:space="preserve" text-anchor="middle" x="135.75" y="-382" font-family="Helvetica,sans-Serif" font-size="10.00">llvm::sandboxir::Value</text>
</a>
</g>
</g>
<!-- Node5&#45;&gt;Node4 -->
<g id="edge4_Node000004_Node000005" class="edge">
<title>Node5&#45;&gt;Node4</title>
<g id="a_edge4_Node000004_Node000005"><a xlink:title=" ">
<path fill="none" stroke="#63b8ff" d="M135.75,-364.69C135.75,-355.98 135.75,-346.24 135.75,-339.42"/>
<polygon fill="#63b8ff" stroke="#63b8ff" points="132.25,-364.4 135.75,-374.4 139.25,-364.4 132.25,-364.4"/>
</a>
</g>
</g>
<!-- Node6&#45;&gt;Node2 -->
<g id="edge5_Node000002_Node000006" class="edge">
<title>Node6&#45;&gt;Node2</title>
<g id="a_edge5_Node000002_Node000006"><a xlink:title=" ">
<path fill="none" stroke="orange" stroke-dasharray="5,2" d="M217.11,-188.98C198.57,-174.55 174.66,-155.93 158.36,-143.24"/>
<polygon fill="orange" stroke="orange" points="214.74,-191.57 224.78,-194.95 219.04,-186.05 214.74,-191.57"/>
</a>
</g>
<text xml:space="preserve" text-anchor="start" x="204.65" y="-167" font-family="Helvetica,sans-Serif" font-size="10.00" fill="grey">&lt; llvm::CmpInst &gt;</text>
</g>
</g>
</svg>
