<?xml version="1.0" encoding="UTF-8" standalone="no"?>
<!DOCTYPE svg PUBLIC "-//W3C//DTD SVG 1.1//EN"
 "http://www.w3.org/Graphics/SVG/1.1/DTD/svg11.dtd">
<!-- Generated by graphviz version 14.1.3 (20260303.0454)
 -->
<!-- Title: llvm::GenericScheduler Pages: 1 -->
<svg width="876pt" height="156pt"
 viewBox="0.00 0.00 876.00 156.00" xmlns="http://www.w3.org/2000/svg" xmlns:xlink="http://www.w3.org/1999/xlink">
<g id="graph0" class="graph" transform="scale(1 1) rotate(0) translate(4 151.88)">
<title>llvm::GenericScheduler</title>
<!-- Node1 -->
<g id="Node000001" class="node">
<title>Node1</title>
<g id="a_Node000001"><a xlink:title="GenericScheduler shrinks the unscheduled zone using heuristics to balance the schedule.">
<polygon fill="#999999" stroke="#666666" points="470.25,-67.88 353,-67.88 353,-48.62 470.25,-48.62 470.25,-67.88"/>
<text xml:space="preserve" text-anchor="middle" x="411.62" y="-54.38" font-family="Helvetica,sans-Serif" font-size="10.00">llvm::GenericScheduler</text>
</a>
</g>
</g>
<!-- Node4 -->
<g id="Node000004" class="node">
<title>Node4</title>
<g id="a_Node000004"><a xlink:href="classllvm_1_1GCNSchedStrategy.html" target="_top" xlink:title="This is a minimal scheduler strategy.">
<polygon fill="white" stroke="#666666" points="652.38,-104.88 525.38,-104.88 525.38,-85.62 652.38,-85.62 652.38,-104.88"/>
<text xml:space="preserve" text-anchor="middle" x="588.88" y="-91.38" font-family="Helvetica,sans-Serif" font-size="10.00">llvm::GCNSchedStrategy</text>
</a>
</g>
</g>
<!-- Node1&#45;&gt;Node4 -->
<g id="edge3_Node000001_Node000004" class="edge">
<title>Node1&#45;&gt;Node4</title>
<g id="a_edge3_Node000001_Node000004"><a xlink:title=" ">
<path fill="none" stroke="#63b8ff" d="M471.54,-70.69C493.83,-75.39 518.9,-80.69 540.05,-85.15"/>
<polygon fill="#63b8ff" stroke="#63b8ff" points="472.5,-67.31 461.99,-68.67 471.06,-74.16 472.5,-67.31"/>
</a>
</g>
</g>
<!-- Node8 -->
<g id="Node000008" class="node">
<title>Node8</title>
<g id="a_Node000008"><a xlink:href="classllvm_1_1PPCPreRASchedStrategy.html" target="_top" xlink:title="A MachineSchedStrategy implementation for PowerPC pre RA scheduling.">
<polygon fill="white" stroke="#666666" points="666.25,-67.88 511.5,-67.88 511.5,-48.62 666.25,-48.62 666.25,-67.88"/>
<text xml:space="preserve" text-anchor="middle" x="588.88" y="-54.38" font-family="Helvetica,sans-Serif" font-size="10.00">llvm::PPCPreRASchedStrategy</text>
</a>
</g>
</g>
<!-- Node1&#45;&gt;Node8 -->
<g id="edge7_Node000001_Node000008" class="edge">
<title>Node1&#45;&gt;Node8</title>
<g id="a_edge7_Node000001_Node000008"><a xlink:title=" ">
<path fill="none" stroke="#63b8ff" d="M481.72,-58.25C491.44,-58.25 501.47,-58.25 511.31,-58.25"/>
<polygon fill="#63b8ff" stroke="#63b8ff" points="482.01,-54.75 472.01,-58.25 482.01,-61.75 482.01,-54.75"/>
</a>
</g>
</g>
<!-- Node9 -->
<g id="Node000009" class="node">
<title>Node9</title>
<g id="a_Node000009"><a xlink:href="classllvm_1_1RISCVPreRAMachineSchedStrategy.html" target="_top" xlink:title="A GenericScheduler implementation for RISCV pre RA scheduling.">
<polygon fill="white" stroke="#666666" points="671.5,-30.5 506.25,-30.5 506.25,0 671.5,0 671.5,-30.5"/>
<text xml:space="preserve" text-anchor="start" x="514.25" y="-17" font-family="Helvetica,sans-Serif" font-size="10.00">llvm::RISCVPreRAMachineSched</text>
<text xml:space="preserve" text-anchor="middle" x="588.88" y="-5.75" font-family="Helvetica,sans-Serif" font-size="10.00">Strategy</text>
</a>
</g>
</g>
<!-- Node1&#45;&gt;Node9 -->
<g id="edge8_Node000001_Node000009" class="edge">
<title>Node1&#45;&gt;Node9</title>
<g id="a_edge8_Node000001_Node000009"><a xlink:title=" ">
<path fill="none" stroke="#63b8ff" d="M464.86,-45.43C483.35,-40.9 504.36,-35.74 523.72,-30.99"/>
<polygon fill="#63b8ff" stroke="#63b8ff" points="464.06,-42.03 455.18,-47.81 465.73,-48.82 464.06,-42.03"/>
</a>
</g>
</g>
<!-- Node2 -->
<g id="Node000002" class="node">
<title>Node2</title>
<g id="a_Node000002"><a xlink:href="classllvm_1_1GenericSchedulerBase.html" target="_top" xlink:title="Base class for GenericScheduler.">
<polygon fill="white" stroke="#666666" points="317,-67.88 177.25,-67.88 177.25,-48.62 317,-48.62 317,-67.88"/>
<text xml:space="preserve" text-anchor="middle" x="247.12" y="-54.38" font-family="Helvetica,sans-Serif" font-size="10.00">llvm::GenericSchedulerBase</text>
</a>
</g>
</g>
<!-- Node2&#45;&gt;Node1 -->
<g id="edge1_Node000001_Node000002" class="edge">
<title>Node2&#45;&gt;Node1</title>
<g id="a_edge1_Node000001_Node000002"><a xlink:title=" ">
<path fill="none" stroke="#63b8ff" d="M328.5,-58.25C336.64,-58.25 344.79,-58.25 352.63,-58.25"/>
<polygon fill="#63b8ff" stroke="#63b8ff" points="328.55,-54.75 318.55,-58.25 328.55,-61.75 328.55,-54.75"/>
</a>
</g>
</g>
<!-- Node3 -->
<g id="Node000003" class="node">
<title>Node3</title>
<g id="a_Node000003"><a xlink:href="classllvm_1_1MachineSchedStrategy.html" target="_top" xlink:title="MachineSchedStrategy &#45; Interface to the scheduling algorithm used by ScheduleDAGMI.">
<polygon fill="white" stroke="#666666" points="141.25,-67.88 0,-67.88 0,-48.62 141.25,-48.62 141.25,-67.88"/>
<text xml:space="preserve" text-anchor="middle" x="70.62" y="-54.38" font-family="Helvetica,sans-Serif" font-size="10.00">llvm::MachineSchedStrategy</text>
</a>
</g>
</g>
<!-- Node3&#45;&gt;Node2 -->
<g id="edge2_Node000002_Node000003" class="edge">
<title>Node3&#45;&gt;Node2</title>
<g id="a_edge2_Node000002_Node000003"><a xlink:title=" ">
<path fill="none" stroke="#63b8ff" d="M152.91,-58.25C160.96,-58.25 169.08,-58.25 176.99,-58.25"/>
<polygon fill="#63b8ff" stroke="#63b8ff" points="153.11,-54.75 143.11,-58.25 153.11,-61.75 153.11,-54.75"/>
</a>
</g>
</g>
<!-- Node5 -->
<g id="Node000005" class="node">
<title>Node5</title>
<g id="a_Node000005"><a xlink:href="classllvm_1_1GCNMaxILPSchedStrategy.html" target="_top" xlink:title="The goal of this scheduling strategy is to maximize ILP for a single wave (i.e.">
<polygon fill="white" stroke="#666666" points="868.25,-147.88 707.5,-147.88 707.5,-128.62 868.25,-128.62 868.25,-147.88"/>
<text xml:space="preserve" text-anchor="middle" x="787.88" y="-134.38" font-family="Helvetica,sans-Serif" font-size="10.00">llvm::GCNMaxILPSchedStrategy</text>
</a>
</g>
</g>
<!-- Node4&#45;&gt;Node5 -->
<g id="edge4_Node000004_Node000005" class="edge">
<title>Node4&#45;&gt;Node5</title>
<g id="a_edge4_Node000004_Node000005"><a xlink:title=" ">
<path fill="none" stroke="#63b8ff" d="M647.13,-107.75C676.85,-114.23 712.69,-122.06 740.64,-128.16"/>
<polygon fill="#63b8ff" stroke="#63b8ff" points="648.06,-104.37 637.54,-105.65 646.57,-111.21 648.06,-104.37"/>
</a>
</g>
</g>
<!-- Node6 -->
<g id="Node000006" class="node">
<title>Node6</title>
<g id="a_Node000006"><a xlink:href="classllvm_1_1GCNMaxMemoryClauseSchedStrategy.html" target="_top" xlink:title="The goal of this scheduling strategy is to maximize memory clause for a single wave.">
<polygon fill="white" stroke="#666666" points="861.5,-110.5 714.25,-110.5 714.25,-80 861.5,-80 861.5,-110.5"/>
<text xml:space="preserve" text-anchor="start" x="722.25" y="-97" font-family="Helvetica,sans-Serif" font-size="10.00">llvm::GCNMaxMemoryClause</text>
<text xml:space="preserve" text-anchor="middle" x="787.88" y="-85.75" font-family="Helvetica,sans-Serif" font-size="10.00">SchedStrategy</text>
</a>
</g>
</g>
<!-- Node4&#45;&gt;Node6 -->
<g id="edge5_Node000004_Node000006" class="edge">
<title>Node4&#45;&gt;Node6</title>
<g id="a_edge5_Node000004_Node000006"><a xlink:title=" ">
<path fill="none" stroke="#63b8ff" d="M663.91,-95.25C680.29,-95.25 697.63,-95.25 713.96,-95.25"/>
<polygon fill="#63b8ff" stroke="#63b8ff" points="664.26,-91.75 654.26,-95.25 664.26,-98.75 664.26,-91.75"/>
</a>
</g>
</g>
<!-- Node7 -->
<g id="Node000007" class="node">
<title>Node7</title>
<g id="a_Node000007"><a xlink:href="classllvm_1_1GCNMaxOccupancySchedStrategy.html" target="_top" xlink:title="The goal of this scheduling strategy is to maximize kernel occupancy (i.e.">
<polygon fill="white" stroke="#666666" points="867.12,-61.5 708.62,-61.5 708.62,-31 867.12,-31 867.12,-61.5"/>
<text xml:space="preserve" text-anchor="start" x="716.62" y="-48" font-family="Helvetica,sans-Serif" font-size="10.00">llvm::GCNMaxOccupancySched</text>
<text xml:space="preserve" text-anchor="middle" x="787.88" y="-36.75" font-family="Helvetica,sans-Serif" font-size="10.00">Strategy</text>
</a>
</g>
</g>
<!-- Node4&#45;&gt;Node7 -->
<g id="edge6_Node000004_Node000007" class="edge">
<title>Node4&#45;&gt;Node7</title>
<g id="a_edge6_Node000004_Node000007"><a xlink:title=" ">
<path fill="none" stroke="#63b8ff" d="M648.62,-82.63C656.33,-80.88 664.11,-79.06 671.5,-77.25 690.74,-72.55 711.68,-67.04 730.38,-61.98"/>
<polygon fill="#63b8ff" stroke="#63b8ff" points="647.9,-79.2 638.91,-84.81 649.44,-86.03 647.9,-79.2"/>
</a>
</g>
</g>
</g>
</svg>
