<?xml version="1.0" encoding="UTF-8" standalone="no"?>
<!DOCTYPE svg PUBLIC "-//W3C//DTD SVG 1.1//EN"
 "http://www.w3.org/Graphics/SVG/1.1/DTD/svg11.dtd">
<!-- Generated by graphviz version 14.1.3 (20260303.0454)
 -->
<!-- Title: llvm::Bitset&lt; NumBits &gt; Pages: 1 -->
<svg width="356pt" height="179pt"
 viewBox="0.00 0.00 356.00 179.00" xmlns="http://www.w3.org/2000/svg" xmlns:xlink="http://www.w3.org/1999/xlink">
<g id="graph0" class="graph" transform="scale(1 1) rotate(0) translate(4 174.5)">
<title>llvm::Bitset&lt; NumBits &gt;</title>
<!-- Node1 -->
<g id="Node000001" class="node">
<title>Node1</title>
<g id="a_Node000001"><a xlink:title="This is a constexpr reimplementation of a subset of std::bitset.">
<polygon fill="#999999" stroke="#666666" points="205.12,-170.5 83.38,-170.5 83.38,-151.25 205.12,-151.25 205.12,-170.5"/>
<text xml:space="preserve" text-anchor="middle" x="144.25" y="-157" font-family="Helvetica,sans-Serif" font-size="10.00">llvm::Bitset&lt; NumBits &gt;</text>
</a>
</g>
</g>
<!-- Node2 -->
<g id="Node000002" class="node">
<title>Node2</title>
<g id="a_Node000002"><a xlink:href="classllvm_1_1Bitset.html" target="_top" xlink:title=" ">
<polygon fill="white" stroke="#666666" points="122.5,-98 0,-98 0,-67.5 122.5,-67.5 122.5,-98"/>
<text xml:space="preserve" text-anchor="start" x="8" y="-84.5" font-family="Helvetica,sans-Serif" font-size="10.00">llvm::Bitset&lt; AEK_NUM</text>
<text xml:space="preserve" text-anchor="middle" x="61.25" y="-73.25" font-family="Helvetica,sans-Serif" font-size="10.00">_EXTENSIONS &gt;</text>
</a>
</g>
</g>
<!-- Node1&#45;&gt;Node2 -->
<g id="edge1_Node000001_Node000002" class="edge">
<title>Node1&#45;&gt;Node2</title>
<g id="a_edge1_Node000001_Node000002"><a xlink:title=" ">
<path fill="none" stroke="orange" stroke-dasharray="5,2" d="M76.42,-145.63C71.18,-142.31 66.49,-138.24 62.75,-133.25 55.33,-123.34 55.78,-108.92 57.6,-98.19"/>
<polygon fill="orange" stroke="orange" points="74.52,-148.59 85.01,-150.12 77.77,-142.38 74.52,-148.59"/>
</a>
</g>
<text xml:space="preserve" text-anchor="start" x="65.75" y="-122" font-family="Helvetica,sans-Serif" font-size="10.00" fill="grey">&lt; AEK_NUM_EXTENSIONS &gt;</text>
</g>
<!-- Node3 -->
<g id="Node000003" class="node">
<title>Node3</title>
<g id="a_Node000003"><a xlink:href="classllvm_1_1Bitset.html" target="_top" xlink:title=" ">
<polygon fill="white" stroke="#666666" points="279.12,-98 175.38,-98 175.38,-67.5 279.12,-67.5 279.12,-98"/>
<text xml:space="preserve" text-anchor="start" x="183.38" y="-84.5" font-family="Helvetica,sans-Serif" font-size="10.00">llvm::Bitset&lt; RTLIB</text>
<text xml:space="preserve" text-anchor="middle" x="227.25" y="-73.25" font-family="Helvetica,sans-Serif" font-size="10.00">::NumLibcallImpls &gt;</text>
</a>
</g>
</g>
<!-- Node1&#45;&gt;Node3 -->
<g id="edge2_Node000001_Node000003" class="edge">
<title>Node1&#45;&gt;Node3</title>
<g id="a_edge2_Node000001_Node000003"><a xlink:title=" ">
<path fill="none" stroke="orange" stroke-dasharray="5,2" d="M187.18,-146.04C193.77,-142.6 200.09,-138.38 205.25,-133.25 214.86,-123.71 220.62,-109.24 223.82,-98.4"/>
<polygon fill="orange" stroke="orange" points="185.73,-142.85 178.1,-150.2 188.65,-149.22 185.73,-142.85"/>
</a>
</g>
<text xml:space="preserve" text-anchor="start" x="219.9" y="-122" font-family="Helvetica,sans-Serif" font-size="10.00" fill="grey">&lt; RTLIB::NumLibcallImpls &gt;</text>
</g>
<!-- Node4 -->
<g id="Node000004" class="node">
<title>Node4</title>
<g id="a_Node000004"><a xlink:href="classllvm_1_1RTLIB_1_1LibcallImplBitset.html" target="_top" xlink:title="Manage a bitset representing the list of available libcalls for a module.">
<polygon fill="white" stroke="#666666" points="287.75,-30.5 166.75,-30.5 166.75,0 287.75,0 287.75,-30.5"/>
<text xml:space="preserve" text-anchor="start" x="174.75" y="-17" font-family="Helvetica,sans-Serif" font-size="10.00">llvm::RTLIB::LibcallImpl</text>
<text xml:space="preserve" text-anchor="middle" x="227.25" y="-5.75" font-family="Helvetica,sans-Serif" font-size="10.00">Bitset</text>
</a>
</g>
</g>
<!-- Node3&#45;&gt;Node4 -->
<g id="edge3_Node000003_Node000004" class="edge">
<title>Node3&#45;&gt;Node4</title>
<g id="a_edge3_Node000003_Node000004"><a xlink:title=" ">
<path fill="none" stroke="#63b8ff" d="M227.25,-55.84C227.25,-47.3 227.25,-38.12 227.25,-30.75"/>
<polygon fill="#63b8ff" stroke="#63b8ff" points="223.75,-55.7 227.25,-65.7 230.75,-55.7 223.75,-55.7"/>
</a>
</g>
</g>
</g>
</svg>
