<?xml version="1.0" encoding="UTF-8" standalone="no"?>
<!DOCTYPE svg PUBLIC "-//W3C//DTD SVG 1.1//EN"
 "http://www.w3.org/Graphics/SVG/1.1/DTD/svg11.dtd">
<!-- Generated by graphviz version 14.1.3 (20260303.0454)
 -->
<!-- Title: llvm::sandboxir::UndefValue Pages: 1 -->
<svg width="150pt" height="248pt"
 viewBox="0.00 0.00 150.00 248.00" xmlns="http://www.w3.org/2000/svg" xmlns:xlink="http://www.w3.org/1999/xlink">
<g id="graph0" class="graph" transform="scale(1 1) rotate(0) translate(4 244.25)">
<title>llvm::sandboxir::UndefValue</title>
<!-- Node1 -->
<g id="Node000001" class="node">
<title>Node1</title>
<g id="a_Node000001"><a xlink:title=" ">
<polygon fill="#999999" stroke="#666666" points="140.12,-74.5 1.88,-74.5 1.88,-55.25 140.12,-55.25 140.12,-74.5"/>
<text xml:space="preserve" text-anchor="middle" x="71" y="-61" font-family="Helvetica,sans-Serif" font-size="10.00">llvm::sandboxir::UndefValue</text>
</a>
</g>
</g>
<!-- Node5 -->
<g id="Node000005" class="node">
<title>Node5</title>
<g id="a_Node000005"><a xlink:href="classllvm_1_1sandboxir_1_1PoisonValue.html" target="_top" xlink:title=" ">
<polygon fill="white" stroke="#666666" points="142,-19.25 0,-19.25 0,0 142,0 142,-19.25"/>
<text xml:space="preserve" text-anchor="middle" x="71" y="-5.75" font-family="Helvetica,sans-Serif" font-size="10.00">llvm::sandboxir::PoisonValue</text>
</a>
</g>
</g>
<!-- Node1&#45;&gt;Node5 -->
<g id="edge4_Node000001_Node000005" class="edge">
<title>Node1&#45;&gt;Node5</title>
<g id="a_edge4_Node000001_Node000005"><a xlink:title=" ">
<path fill="none" stroke="#63b8ff" d="M71,-43.63C71,-35.34 71,-26.17 71,-19.61"/>
<polygon fill="#63b8ff" stroke="#63b8ff" points="67.5,-43.57 71,-53.57 74.5,-43.57 67.5,-43.57"/>
</a>
</g>
</g>
<!-- Node2 -->
<g id="Node000002" class="node">
<title>Node2</title>
<g id="a_Node000002"><a xlink:href="classllvm_1_1sandboxir_1_1Constant.html" target="_top" xlink:title=" ">
<polygon fill="white" stroke="#666666" points="134.88,-129.75 7.12,-129.75 7.12,-110.5 134.88,-110.5 134.88,-129.75"/>
<text xml:space="preserve" text-anchor="middle" x="71" y="-116.25" font-family="Helvetica,sans-Serif" font-size="10.00">llvm::sandboxir::Constant</text>
</a>
</g>
</g>
<!-- Node2&#45;&gt;Node1 -->
<g id="edge1_Node000001_Node000002" class="edge">
<title>Node2&#45;&gt;Node1</title>
<g id="a_edge1_Node000001_Node000002"><a xlink:title=" ">
<path fill="none" stroke="#63b8ff" d="M71,-98.88C71,-90.59 71,-81.42 71,-74.86"/>
<polygon fill="#63b8ff" stroke="#63b8ff" points="67.5,-98.82 71,-108.82 74.5,-98.82 67.5,-98.82"/>
</a>
</g>
</g>
<!-- Node3 -->
<g id="Node000003" class="node">
<title>Node3</title>
<g id="a_Node000003"><a xlink:href="classllvm_1_1sandboxir_1_1User.html" target="_top" xlink:title="A sandboxir::User has operands.">
<polygon fill="white" stroke="#666666" points="125.5,-185 16.5,-185 16.5,-165.75 125.5,-165.75 125.5,-185"/>
<text xml:space="preserve" text-anchor="middle" x="71" y="-171.5" font-family="Helvetica,sans-Serif" font-size="10.00">llvm::sandboxir::User</text>
</a>
</g>
</g>
<!-- Node3&#45;&gt;Node2 -->
<g id="edge2_Node000002_Node000003" class="edge">
<title>Node3&#45;&gt;Node2</title>
<g id="a_edge2_Node000002_Node000003"><a xlink:title=" ">
<path fill="none" stroke="#63b8ff" d="M71,-154.13C71,-145.84 71,-136.67 71,-130.11"/>
<polygon fill="#63b8ff" stroke="#63b8ff" points="67.5,-154.07 71,-164.07 74.5,-154.07 67.5,-154.07"/>
</a>
</g>
</g>
<!-- Node4 -->
<g id="Node000004" class="node">
<title>Node4</title>
<g id="a_Node000004"><a xlink:href="classllvm_1_1sandboxir_1_1Value.html" target="_top" xlink:title="A SandboxIR Value has users. This is the base class.">
<polygon fill="white" stroke="#666666" points="127,-240.25 15,-240.25 15,-221 127,-221 127,-240.25"/>
<text xml:space="preserve" text-anchor="middle" x="71" y="-226.75" font-family="Helvetica,sans-Serif" font-size="10.00">llvm::sandboxir::Value</text>
</a>
</g>
</g>
<!-- Node4&#45;&gt;Node3 -->
<g id="edge3_Node000003_Node000004" class="edge">
<title>Node4&#45;&gt;Node3</title>
<g id="a_edge3_Node000003_Node000004"><a xlink:title=" ">
<path fill="none" stroke="#63b8ff" d="M71,-209.38C71,-201.09 71,-191.92 71,-185.36"/>
<polygon fill="#63b8ff" stroke="#63b8ff" points="67.5,-209.32 71,-219.32 74.5,-209.32 67.5,-209.32"/>
</a>
</g>
</g>
</g>
</svg>
