<?xml version="1.0" encoding="UTF-8" standalone="no"?>
<!DOCTYPE svg PUBLIC "-//W3C//DTD SVG 1.1//EN"
 "http://www.w3.org/Graphics/SVG/1.1/DTD/svg11.dtd">
<!-- Generated by graphviz version 14.1.3 (20260303.0454)
 -->
<!-- Title: llvm::LoongArchTargetStreamer Pages: 1 -->
<svg width="332pt" height="149pt"
 viewBox="0.00 0.00 332.00 149.00" xmlns="http://www.w3.org/2000/svg" xmlns:xlink="http://www.w3.org/1999/xlink">
<g id="graph0" class="graph" transform="scale(1 1) rotate(0) translate(4 145)">
<title>llvm::LoongArchTargetStreamer</title>
<!-- Node1 -->
<g id="Node000001" class="node">
<title>Node1</title>
<g id="a_Node000001"><a xlink:title=" ">
<polygon fill="#999999" stroke="#666666" points="228.5,-85.75 75.25,-85.75 75.25,-66.5 228.5,-66.5 228.5,-85.75"/>
<text xml:space="preserve" text-anchor="middle" x="151.88" y="-72.25" font-family="Helvetica,sans-Serif" font-size="10.00">llvm::LoongArchTargetStreamer</text>
</a>
</g>
</g>
<!-- Node3 -->
<g id="Node000003" class="node">
<title>Node3</title>
<g id="a_Node000003"><a xlink:href="classllvm_1_1LoongArchTargetAsmStreamer.html" target="_top" xlink:title=" ">
<polygon fill="white" stroke="#666666" points="133.75,-30.5 0,-30.5 0,0 133.75,0 133.75,-30.5"/>
<text xml:space="preserve" text-anchor="start" x="8" y="-17" font-family="Helvetica,sans-Serif" font-size="10.00">llvm::LoongArchTargetAsm</text>
<text xml:space="preserve" text-anchor="middle" x="66.88" y="-5.75" font-family="Helvetica,sans-Serif" font-size="10.00">Streamer</text>
</a>
</g>
</g>
<!-- Node1&#45;&gt;Node3 -->
<g id="edge2_Node000001_Node000003" class="edge">
<title>Node1&#45;&gt;Node3</title>
<g id="a_edge2_Node000001_Node000003"><a xlink:title=" ">
<path fill="none" stroke="#63b8ff" d="M129.83,-59.85C116.88,-50.89 100.61,-39.62 87.86,-30.78"/>
<polygon fill="#63b8ff" stroke="#63b8ff" points="127.51,-62.5 137.72,-65.32 131.49,-56.75 127.51,-62.5"/>
</a>
</g>
</g>
<!-- Node4 -->
<g id="Node000004" class="node">
<title>Node4</title>
<g id="a_Node000004"><a xlink:href="classllvm_1_1LoongArchTargetELFStreamer.html" target="_top" xlink:title=" ">
<polygon fill="white" stroke="#666666" points="323.5,-24.88 152.25,-24.88 152.25,-5.63 323.5,-5.63 323.5,-24.88"/>
<text xml:space="preserve" text-anchor="middle" x="237.88" y="-11.38" font-family="Helvetica,sans-Serif" font-size="10.00">llvm::LoongArchTargetELFStreamer</text>
</a>
</g>
</g>
<!-- Node1&#45;&gt;Node4 -->
<g id="edge3_Node000001_Node000004" class="edge">
<title>Node1&#45;&gt;Node4</title>
<g id="a_edge3_Node000001_Node000004"><a xlink:title=" ">
<path fill="none" stroke="#63b8ff" d="M174.15,-59.88C190.18,-48.9 211.26,-34.47 224.69,-25.28"/>
<polygon fill="#63b8ff" stroke="#63b8ff" points="172.46,-56.79 166.19,-65.33 176.41,-62.57 172.46,-56.79"/>
</a>
</g>
</g>
<!-- Node2 -->
<g id="Node000002" class="node">
<title>Node2</title>
<g id="a_Node000002"><a xlink:href="classllvm_1_1MCTargetStreamer.html" target="_top" xlink:title="Target specific streamer interface.">
<polygon fill="white" stroke="#666666" points="213.12,-141 90.62,-141 90.62,-121.75 213.12,-121.75 213.12,-141"/>
<text xml:space="preserve" text-anchor="middle" x="151.88" y="-127.5" font-family="Helvetica,sans-Serif" font-size="10.00">llvm::MCTargetStreamer</text>
</a>
</g>
</g>
<!-- Node2&#45;&gt;Node1 -->
<g id="edge1_Node000001_Node000002" class="edge">
<title>Node2&#45;&gt;Node1</title>
<g id="a_edge1_Node000001_Node000002"><a xlink:title=" ">
<path fill="none" stroke="#63b8ff" d="M151.88,-110.13C151.88,-101.84 151.88,-92.67 151.88,-86.11"/>
<polygon fill="#63b8ff" stroke="#63b8ff" points="148.38,-110.07 151.88,-120.07 155.38,-110.07 148.38,-110.07"/>
</a>
</g>
</g>
</g>
</svg>
