<?xml version="1.0" encoding="UTF-8" standalone="no"?>
<!DOCTYPE svg PUBLIC "-//W3C//DTD SVG 1.1//EN"
 "http://www.w3.org/Graphics/SVG/1.1/DTD/svg11.dtd">
<!-- Generated by graphviz version 14.1.3 (20260303.0454)
 -->
<!-- Title: llvm::Interpreter Pages: 1 -->
<svg width="253pt" height="179pt"
 viewBox="0.00 0.00 253.00 179.00" xmlns="http://www.w3.org/2000/svg" xmlns:xlink="http://www.w3.org/1999/xlink">
<g id="graph0" class="graph" transform="scale(1 1) rotate(0) translate(4 174.5)">
<title>llvm::Interpreter</title>
<!-- Node1 -->
<g id="Node000001" class="node">
<title>Node1</title>
<g id="a_Node000001"><a xlink:title=" ">
<polygon fill="#999999" stroke="#666666" points="110.88,-19.25 26.62,-19.25 26.62,0 110.88,0 110.88,-19.25"/>
<text xml:space="preserve" text-anchor="middle" x="68.75" y="-5.75" font-family="Helvetica,sans-Serif" font-size="10.00">llvm::Interpreter</text>
</a>
</g>
</g>
<!-- Node2 -->
<g id="Node000002" class="node">
<title>Node2</title>
<g id="a_Node000002"><a xlink:href="classllvm_1_1ExecutionEngine.html" target="_top" xlink:title="Abstract interface for implementation execution of LLVM modules, designed to support both interpreter...">
<polygon fill="white" stroke="#666666" points="113.5,-81.12 0,-81.12 0,-61.88 113.5,-61.88 113.5,-81.12"/>
<text xml:space="preserve" text-anchor="middle" x="56.75" y="-67.62" font-family="Helvetica,sans-Serif" font-size="10.00">llvm::ExecutionEngine</text>
</a>
</g>
</g>
<!-- Node2&#45;&gt;Node1 -->
<g id="edge1_Node000001_Node000002" class="edge">
<title>Node2&#45;&gt;Node1</title>
<g id="a_edge1_Node000001_Node000002"><a xlink:title=" ">
<path fill="none" stroke="#63b8ff" d="M60.81,-50.26C62.91,-39.77 65.37,-27.49 66.99,-19.41"/>
<polygon fill="#63b8ff" stroke="#63b8ff" points="57.4,-49.43 58.87,-59.92 64.27,-50.81 57.4,-49.43"/>
</a>
</g>
</g>
<!-- Node3 -->
<g id="Node000003" class="node">
<title>Node3</title>
<g id="a_Node000003"><a xlink:href="classllvm_1_1InstVisitor.html" target="_top" xlink:title=" ">
<polygon fill="white" stroke="#666666" points="221.88,-86.75 131.62,-86.75 131.62,-56.25 221.88,-56.25 221.88,-86.75"/>
<text xml:space="preserve" text-anchor="start" x="139.62" y="-73.25" font-family="Helvetica,sans-Serif" font-size="10.00">llvm::InstVisitor&lt;</text>
<text xml:space="preserve" text-anchor="middle" x="176.75" y="-62" font-family="Helvetica,sans-Serif" font-size="10.00"> Interpreter &gt;</text>
</a>
</g>
</g>
<!-- Node3&#45;&gt;Node1 -->
<g id="edge2_Node000001_Node000003" class="edge">
<title>Node3&#45;&gt;Node1</title>
<g id="a_edge2_Node000001_Node000003"><a xlink:title=" ">
<path fill="none" stroke="#63b8ff" d="M140.33,-50.31C121.63,-39.94 99.76,-27.82 85.17,-19.73"/>
<polygon fill="#63b8ff" stroke="#63b8ff" points="138.56,-53.33 149.01,-55.12 141.96,-47.21 138.56,-53.33"/>
</a>
</g>
</g>
<!-- Node4 -->
<g id="Node000004" class="node">
<title>Node4</title>
<g id="a_Node000004"><a xlink:href="classllvm_1_1InstVisitor.html" target="_top" xlink:title="Base class for instruction visitors.">
<polygon fill="white" stroke="#666666" points="228.25,-170.5 125.25,-170.5 125.25,-140 228.25,-140 228.25,-170.5"/>
<text xml:space="preserve" text-anchor="start" x="133.25" y="-157" font-family="Helvetica,sans-Serif" font-size="10.00">llvm::InstVisitor&lt;</text>
<text xml:space="preserve" text-anchor="middle" x="176.75" y="-145.75" font-family="Helvetica,sans-Serif" font-size="10.00"> SubClass, RetTy &gt;</text>
</a>
</g>
</g>
<!-- Node4&#45;&gt;Node3 -->
<g id="edge3_Node000003_Node000004" class="edge">
<title>Node4&#45;&gt;Node3</title>
<g id="a_edge3_Node000003_Node000004"><a xlink:title=" ">
<path fill="none" stroke="orange" stroke-dasharray="5,2" d="M176.75,-128.47C176.75,-114.78 176.75,-98.46 176.75,-86.99"/>
<polygon fill="orange" stroke="orange" points="173.25,-128.12 176.75,-138.12 180.25,-128.12 173.25,-128.12"/>
</a>
</g>
<text xml:space="preserve" text-anchor="start" x="179.75" y="-110.75" font-family="Helvetica,sans-Serif" font-size="10.00" fill="grey">&lt; Interpreter &gt;</text>
</g>
</g>
</svg>
