<?xml version="1.0" encoding="UTF-8" standalone="no"?>
<!DOCTYPE svg PUBLIC "-//W3C//DTD SVG 1.1//EN"
 "http://www.w3.org/Graphics/SVG/1.1/DTD/svg11.dtd">
<!-- Generated by graphviz version 14.1.3 (20260303.0454)
 -->
<!-- Title: llvm::NonRelocatableStringpool Pages: 1 -->
<svg width="366pt" height="88pt"
 viewBox="0.00 0.00 366.00 88.00" xmlns="http://www.w3.org/2000/svg" xmlns:xlink="http://www.w3.org/1999/xlink">
<g id="graph0" class="graph" transform="scale(1 1) rotate(0) translate(4 83.5)">
<title>llvm::NonRelocatableStringpool</title>
<!-- Node1 -->
<g id="Node000001" class="node">
<title>Node1</title>
<g id="a_Node000001"><a xlink:title="A string table that doesn&#39;t need relocations.">
<polygon fill="#999999" stroke="#666666" points="153.25,-48.88 0,-48.88 0,-29.62 153.25,-29.62 153.25,-48.88"/>
<text xml:space="preserve" text-anchor="middle" x="76.62" y="-35.38" font-family="Helvetica,sans-Serif" font-size="10.00">llvm::NonRelocatableStringpool</text>
</a>
</g>
</g>
<!-- Node2 -->
<g id="Node000002" class="node">
<title>Node2</title>
<g id="a_Node000002"><a xlink:href="classllvm_1_1StrongType.html" target="_top" xlink:title=" ">
<polygon fill="white" stroke="#666666" points="357.5,-79.5 189.25,-79.5 189.25,-49 357.5,-49 357.5,-79.5"/>
<text xml:space="preserve" text-anchor="start" x="197.25" y="-66" font-family="Helvetica,sans-Serif" font-size="10.00">llvm::StrongType&lt; NonRelocatable</text>
<text xml:space="preserve" text-anchor="middle" x="273.38" y="-54.75" font-family="Helvetica,sans-Serif" font-size="10.00">Stringpool, UniqueTag &gt;</text>
</a>
</g>
</g>
<!-- Node1&#45;&gt;Node2 -->
<g id="edge1_Node000001_Node000002" class="edge">
<title>Node1&#45;&gt;Node2</title>
<g id="a_edge1_Node000001_Node000002"><a xlink:title=" ">
<path fill="none" stroke="#63b8ff" d="M164.77,-50.44C172.83,-51.47 180.97,-52.52 188.99,-53.55"/>
<polygon fill="#63b8ff" stroke="#63b8ff" points="165.34,-46.98 154.98,-49.18 164.45,-53.92 165.34,-46.98"/>
</a>
</g>
</g>
<!-- Node3 -->
<g id="Node000003" class="node">
<title>Node3</title>
<g id="a_Node000003"><a xlink:href="classllvm_1_1StrongType.html" target="_top" xlink:title=" ">
<polygon fill="white" stroke="#666666" points="357.5,-30.5 189.25,-30.5 189.25,0 357.5,0 357.5,-30.5"/>
<text xml:space="preserve" text-anchor="start" x="197.25" y="-17" font-family="Helvetica,sans-Serif" font-size="10.00">llvm::StrongType&lt; NonRelocatable</text>
<text xml:space="preserve" text-anchor="middle" x="273.38" y="-5.75" font-family="Helvetica,sans-Serif" font-size="10.00">Stringpool, OffsetsTag &gt;</text>
</a>
</g>
</g>
<!-- Node1&#45;&gt;Node3 -->
<g id="edge2_Node000001_Node000003" class="edge">
<title>Node1&#45;&gt;Node3</title>
<g id="a_edge2_Node000001_Node000003"><a xlink:title=" ">
<path fill="none" stroke="#63b8ff" d="M164.77,-28.51C172.83,-27.52 180.97,-26.51 188.99,-25.53"/>
<polygon fill="#63b8ff" stroke="#63b8ff" points="164.48,-25.02 154.98,-29.72 165.33,-31.97 164.48,-25.02"/>
</a>
</g>
</g>
</g>
</svg>
