<?xml version="1.0" encoding="UTF-8" standalone="no"?>
<!DOCTYPE svg PUBLIC "-//W3C//DTD SVG 1.1//EN"
 "http://www.w3.org/Graphics/SVG/1.1/DTD/svg11.dtd">
<!-- Generated by graphviz version 14.1.3 (20260303.0454)
 -->
<!-- Title: llvm::DwarfExpression Pages: 1 -->
<svg width="318pt" height="83pt"
 viewBox="0.00 0.00 318.00 83.00" xmlns="http://www.w3.org/2000/svg" xmlns:xlink="http://www.w3.org/1999/xlink">
<g id="graph0" class="graph" transform="scale(1 1) rotate(0) translate(4 78.5)">
<title>llvm::DwarfExpression</title>
<!-- Node1 -->
<g id="Node000001" class="node">
<title>Node1</title>
<g id="a_Node000001"><a xlink:title="Base class containing the logic for constructing DWARF expressions independently of whether they are ...">
<polygon fill="#999999" stroke="#666666" points="205.62,-74.5 90.62,-74.5 90.62,-55.25 205.62,-55.25 205.62,-74.5"/>
<text xml:space="preserve" text-anchor="middle" x="148.12" y="-61" font-family="Helvetica,sans-Serif" font-size="10.00">llvm::DwarfExpression</text>
</a>
</g>
</g>
<!-- Node2 -->
<g id="Node000002" class="node">
<title>Node2</title>
<g id="a_Node000002"><a xlink:href="classllvm_1_1DIEDwarfExpression.html" target="_top" xlink:title="DwarfExpression implementation for singular DW_AT_location.">
<polygon fill="white" stroke="#666666" points="132.25,-19.25 0,-19.25 0,0 132.25,0 132.25,-19.25"/>
<text xml:space="preserve" text-anchor="middle" x="66.12" y="-5.75" font-family="Helvetica,sans-Serif" font-size="10.00">llvm::DIEDwarfExpression</text>
</a>
</g>
</g>
<!-- Node1&#45;&gt;Node2 -->
<g id="edge1_Node000001_Node000002" class="edge">
<title>Node1&#45;&gt;Node2</title>
<g id="a_edge1_Node000001_Node000002"><a xlink:title=" ">
<path fill="none" stroke="#63b8ff" d="M124.92,-48.8C110.47,-39.42 92.38,-27.67 80.1,-19.7"/>
<polygon fill="#63b8ff" stroke="#63b8ff" points="122.65,-51.51 132.95,-54.02 126.46,-45.64 122.65,-51.51"/>
</a>
</g>
</g>
<!-- Node3 -->
<g id="Node000003" class="node">
<title>Node3</title>
<g id="a_Node000003"><a xlink:href="classllvm_1_1DebugLocDwarfExpression.html" target="_top" xlink:title="DwarfExpression implementation for .debug_loc entries.">
<polygon fill="white" stroke="#666666" points="309.75,-19.25 150.5,-19.25 150.5,0 309.75,0 309.75,-19.25"/>
<text xml:space="preserve" text-anchor="middle" x="230.12" y="-5.75" font-family="Helvetica,sans-Serif" font-size="10.00">llvm::DebugLocDwarfExpression</text>
</a>
</g>
</g>
<!-- Node1&#45;&gt;Node3 -->
<g id="edge2_Node000001_Node000003" class="edge">
<title>Node1&#45;&gt;Node3</title>
<g id="a_edge2_Node000001_Node000003"><a xlink:title=" ">
<path fill="none" stroke="#63b8ff" d="M171.33,-48.8C185.78,-39.42 203.87,-27.67 216.15,-19.7"/>
<polygon fill="#63b8ff" stroke="#63b8ff" points="169.79,-45.64 163.3,-54.02 173.6,-51.51 169.79,-45.64"/>
</a>
</g>
</g>
</g>
</svg>
