<?xml version="1.0" encoding="UTF-8" standalone="no"?>
<!DOCTYPE svg PUBLIC "-//W3C//DTD SVG 1.1//EN"
 "http://www.w3.org/Graphics/SVG/1.1/DTD/svg11.dtd">
<!-- Generated by graphviz version 14.1.3 (20260303.0454)
 -->
<!-- Title: llvm::opt::OptTable Pages: 1 -->
<svg width="292pt" height="94pt"
 viewBox="0.00 0.00 292.00 94.00" xmlns="http://www.w3.org/2000/svg" xmlns:xlink="http://www.w3.org/1999/xlink">
<g id="graph0" class="graph" transform="scale(1 1) rotate(0) translate(4 89.75)">
<title>llvm::opt::OptTable</title>
<!-- Node1 -->
<g id="Node000001" class="node">
<title>Node1</title>
<g id="a_Node000001"><a xlink:title="Provide access to the Option info table.">
<polygon fill="#999999" stroke="#666666" points="190.38,-85.75 91.88,-85.75 91.88,-66.5 190.38,-66.5 190.38,-85.75"/>
<text xml:space="preserve" text-anchor="middle" x="141.12" y="-72.25" font-family="Helvetica,sans-Serif" font-size="10.00">llvm::opt::OptTable</text>
</a>
</g>
</g>
<!-- Node2 -->
<g id="Node000002" class="node">
<title>Node2</title>
<g id="a_Node000002"><a xlink:href="classllvm_1_1opt_1_1GenericOptTable.html" target="_top" xlink:title="Specialization of OptTable.">
<polygon fill="white" stroke="#666666" points="132.25,-24.88 0,-24.88 0,-5.63 132.25,-5.63 132.25,-24.88"/>
<text xml:space="preserve" text-anchor="middle" x="66.12" y="-11.38" font-family="Helvetica,sans-Serif" font-size="10.00">llvm::opt::GenericOptTable</text>
</a>
</g>
</g>
<!-- Node1&#45;&gt;Node2 -->
<g id="edge1_Node000001_Node000002" class="edge">
<title>Node1&#45;&gt;Node2</title>
<g id="a_edge1_Node000001_Node000002"><a xlink:title=" ">
<path fill="none" stroke="#63b8ff" d="M120.9,-59.25C107.03,-48.36 89.12,-34.3 77.62,-25.28"/>
<polygon fill="#63b8ff" stroke="#63b8ff" points="118.52,-61.83 128.54,-65.25 122.84,-56.32 118.52,-61.83"/>
</a>
</g>
</g>
<!-- Node3 -->
<g id="Node000003" class="node">
<title>Node3</title>
<g id="a_Node000003"><a xlink:href="classllvm_1_1opt_1_1PrecomputedOptTable.html" target="_top" xlink:title=" ">
<polygon fill="white" stroke="#666666" points="283.62,-30.5 150.62,-30.5 150.62,0 283.62,0 283.62,-30.5"/>
<text xml:space="preserve" text-anchor="start" x="158.62" y="-17" font-family="Helvetica,sans-Serif" font-size="10.00">llvm::opt::PrecomputedOpt</text>
<text xml:space="preserve" text-anchor="middle" x="217.12" y="-5.75" font-family="Helvetica,sans-Serif" font-size="10.00">Table</text>
</a>
</g>
</g>
<!-- Node1&#45;&gt;Node3 -->
<g id="edge2_Node000001_Node000003" class="edge">
<title>Node1&#45;&gt;Node3</title>
<g id="a_edge2_Node000001_Node000003"><a xlink:title=" ">
<path fill="none" stroke="#63b8ff" d="M161.52,-59.32C172.98,-50.45 187.18,-39.44 198.37,-30.78"/>
<polygon fill="#63b8ff" stroke="#63b8ff" points="159.63,-56.37 153.86,-65.26 163.91,-61.9 159.63,-56.37"/>
</a>
</g>
</g>
</g>
</svg>
