<?xml version="1.0" encoding="UTF-8" standalone="no"?>
<!DOCTYPE svg PUBLIC "-//W3C//DTD SVG 1.1//EN"
 "http://www.w3.org/Graphics/SVG/1.1/DTD/svg11.dtd">
<!-- Generated by graphviz version 14.1.3 (20260303.0454)
 -->
<!-- Title: llvm::objcopy::elf::ASCIIHexWriter Pages: 1 -->
<svg width="206pt" height="172pt"
 viewBox="0.00 0.00 206.00 172.00" xmlns="http://www.w3.org/2000/svg" xmlns:xlink="http://www.w3.org/1999/xlink">
<g id="graph0" class="graph" transform="scale(1 1) rotate(0) translate(4 167.5)">
<title>llvm::objcopy::elf::ASCIIHexWriter</title>
<!-- Node1 -->
<g id="Node000001" class="node">
<title>Node1</title>
<g id="a_Node000001"><a xlink:title=" ">
<polygon fill="#999999" stroke="#666666" points="145.38,-97 52.88,-97 52.88,-66.5 145.38,-66.5 145.38,-97"/>
<text xml:space="preserve" text-anchor="start" x="60.88" y="-83.5" font-family="Helvetica,sans-Serif" font-size="10.00">llvm::objcopy::elf</text>
<text xml:space="preserve" text-anchor="middle" x="99.12" y="-72.25" font-family="Helvetica,sans-Serif" font-size="10.00">::ASCIIHexWriter</text>
</a>
</g>
</g>
<!-- Node3 -->
<g id="Node000003" class="node">
<title>Node3</title>
<g id="a_Node000003"><a xlink:href="classllvm_1_1objcopy_1_1elf_1_1IHexWriter.html" target="_top" xlink:title=" ">
<polygon fill="white" stroke="#666666" points="90.25,-30.5 0,-30.5 0,0 90.25,0 90.25,-30.5"/>
<text xml:space="preserve" text-anchor="start" x="8" y="-17" font-family="Helvetica,sans-Serif" font-size="10.00">llvm::objcopy::elf</text>
<text xml:space="preserve" text-anchor="middle" x="45.12" y="-5.75" font-family="Helvetica,sans-Serif" font-size="10.00">::IHexWriter</text>
</a>
</g>
</g>
<!-- Node1&#45;&gt;Node3 -->
<g id="edge2_Node000001_Node000003" class="edge">
<title>Node1&#45;&gt;Node3</title>
<g id="a_edge2_Node000001_Node000003"><a xlink:title=" ">
<path fill="none" stroke="#63b8ff" d="M79.53,-57.35C72.11,-48.48 63.88,-38.65 57.33,-30.83"/>
<polygon fill="#63b8ff" stroke="#63b8ff" points="76.8,-59.53 85.9,-64.95 82.16,-55.04 76.8,-59.53"/>
</a>
</g>
</g>
<!-- Node4 -->
<g id="Node000004" class="node">
<title>Node4</title>
<g id="a_Node000004"><a xlink:href="classllvm_1_1objcopy_1_1elf_1_1SRECWriter.html" target="_top" xlink:title=" ">
<polygon fill="white" stroke="#666666" points="198.25,-30.5 108,-30.5 108,0 198.25,0 198.25,-30.5"/>
<text xml:space="preserve" text-anchor="start" x="116" y="-17" font-family="Helvetica,sans-Serif" font-size="10.00">llvm::objcopy::elf</text>
<text xml:space="preserve" text-anchor="middle" x="153.12" y="-5.75" font-family="Helvetica,sans-Serif" font-size="10.00">::SRECWriter</text>
</a>
</g>
</g>
<!-- Node1&#45;&gt;Node4 -->
<g id="edge3_Node000001_Node000004" class="edge">
<title>Node1&#45;&gt;Node4</title>
<g id="a_edge3_Node000001_Node000004"><a xlink:title=" ">
<path fill="none" stroke="#63b8ff" d="M118.72,-57.35C126.14,-48.48 134.37,-38.65 140.92,-30.83"/>
<polygon fill="#63b8ff" stroke="#63b8ff" points="116.09,-55.04 112.35,-64.95 121.45,-59.53 116.09,-55.04"/>
</a>
</g>
</g>
<!-- Node2 -->
<g id="Node000002" class="node">
<title>Node2</title>
<g id="a_Node000002"><a xlink:href="classllvm_1_1objcopy_1_1elf_1_1Writer.html" target="_top" xlink:title=" ">
<polygon fill="white" stroke="#666666" points="144.25,-163.5 54,-163.5 54,-133 144.25,-133 144.25,-163.5"/>
<text xml:space="preserve" text-anchor="start" x="62" y="-150" font-family="Helvetica,sans-Serif" font-size="10.00">llvm::objcopy::elf</text>
<text xml:space="preserve" text-anchor="middle" x="99.12" y="-138.75" font-family="Helvetica,sans-Serif" font-size="10.00">::Writer</text>
</a>
</g>
</g>
<!-- Node2&#45;&gt;Node1 -->
<g id="edge1_Node000001_Node000002" class="edge">
<title>Node2&#45;&gt;Node1</title>
<g id="a_edge1_Node000001_Node000002"><a xlink:title=" ">
<path fill="none" stroke="#63b8ff" d="M99.12,-121.31C99.12,-113.14 99.12,-104.41 99.12,-97.33"/>
<polygon fill="#63b8ff" stroke="#63b8ff" points="95.63,-121.1 99.13,-131.1 102.63,-121.1 95.63,-121.1"/>
</a>
</g>
</g>
</g>
</svg>
