<?xml version="1.0" encoding="UTF-8" standalone="no"?>
<!DOCTYPE svg PUBLIC "-//W3C//DTD SVG 1.1//EN"
 "http://www.w3.org/Graphics/SVG/1.1/DTD/svg11.dtd">
<!-- Generated by graphviz version 14.1.3 (20260303.0454)
 -->
<!-- Title: llvm::AMDGPUMachineFunction Pages: 1 -->
<svg width="320pt" height="138pt"
 viewBox="0.00 0.00 320.00 138.00" xmlns="http://www.w3.org/2000/svg" xmlns:xlink="http://www.w3.org/1999/xlink">
<g id="graph0" class="graph" transform="scale(1 1) rotate(0) translate(4 133.75)">
<title>llvm::AMDGPUMachineFunction</title>
<!-- Node1 -->
<g id="Node000001" class="node">
<title>Node1</title>
<g id="a_Node000001"><a xlink:title=" ">
<polygon fill="#999999" stroke="#666666" points="238.25,-74.5 79.75,-74.5 79.75,-55.25 238.25,-55.25 238.25,-74.5"/>
<text xml:space="preserve" text-anchor="middle" x="159" y="-61" font-family="Helvetica,sans-Serif" font-size="10.00">llvm::AMDGPUMachineFunction</text>
</a>
</g>
</g>
<!-- Node3 -->
<g id="Node000003" class="node">
<title>Node3</title>
<g id="a_Node000003"><a xlink:href="classllvm_1_1R600MachineFunctionInfo.html" target="_top" xlink:title=" ">
<polygon fill="white" stroke="#666666" points="154,-19.25 0,-19.25 0,0 154,0 154,-19.25"/>
<text xml:space="preserve" text-anchor="middle" x="77" y="-5.75" font-family="Helvetica,sans-Serif" font-size="10.00">llvm::R600MachineFunctionInfo</text>
</a>
</g>
</g>
<!-- Node1&#45;&gt;Node3 -->
<g id="edge2_Node000001_Node000003" class="edge">
<title>Node1&#45;&gt;Node3</title>
<g id="a_edge2_Node000001_Node000003"><a xlink:title=" ">
<path fill="none" stroke="#63b8ff" d="M135.79,-48.8C121.35,-39.42 103.25,-27.67 90.98,-19.7"/>
<polygon fill="#63b8ff" stroke="#63b8ff" points="133.53,-51.51 143.82,-54.02 137.34,-45.64 133.53,-51.51"/>
</a>
</g>
</g>
<!-- Node4 -->
<g id="Node000004" class="node">
<title>Node4</title>
<g id="a_Node000004"><a xlink:href="classllvm_1_1SIMachineFunctionInfo.html" target="_top" xlink:title="This class keeps track of the SPI_SP_INPUT_ADDR config register, which tells the hardware which inter...">
<polygon fill="white" stroke="#666666" points="312.25,-19.25 171.75,-19.25 171.75,0 312.25,0 312.25,-19.25"/>
<text xml:space="preserve" text-anchor="middle" x="242" y="-5.75" font-family="Helvetica,sans-Serif" font-size="10.00">llvm::SIMachineFunctionInfo</text>
</a>
</g>
</g>
<!-- Node1&#45;&gt;Node4 -->
<g id="edge3_Node000001_Node000004" class="edge">
<title>Node1&#45;&gt;Node4</title>
<g id="a_edge3_Node000001_Node000004"><a xlink:title=" ">
<path fill="none" stroke="#63b8ff" d="M182.49,-48.8C197.11,-39.42 215.43,-27.67 227.85,-19.7"/>
<polygon fill="#63b8ff" stroke="#63b8ff" points="180.88,-45.68 174.35,-54.02 184.66,-51.57 180.88,-45.68"/>
</a>
</g>
</g>
<!-- Node2 -->
<g id="Node000002" class="node">
<title>Node2</title>
<g id="a_Node000002"><a xlink:href="structllvm_1_1MachineFunctionInfo.html" target="_top" xlink:title="MachineFunctionInfo &#45; This class can be derived from and used by targets to hold private target&#45;speci...">
<polygon fill="white" stroke="#666666" points="224.38,-129.75 93.62,-129.75 93.62,-110.5 224.38,-110.5 224.38,-129.75"/>
<text xml:space="preserve" text-anchor="middle" x="159" y="-116.25" font-family="Helvetica,sans-Serif" font-size="10.00">llvm::MachineFunctionInfo</text>
</a>
</g>
</g>
<!-- Node2&#45;&gt;Node1 -->
<g id="edge1_Node000001_Node000002" class="edge">
<title>Node2&#45;&gt;Node1</title>
<g id="a_edge1_Node000001_Node000002"><a xlink:title=" ">
<path fill="none" stroke="#63b8ff" d="M159,-98.88C159,-90.59 159,-81.42 159,-74.86"/>
<polygon fill="#63b8ff" stroke="#63b8ff" points="155.5,-98.82 159,-108.82 162.5,-98.82 155.5,-98.82"/>
</a>
</g>
</g>
</g>
</svg>
