<?xml version="1.0" encoding="UTF-8" standalone="no"?>
<!DOCTYPE svg PUBLIC "-//W3C//DTD SVG 1.1//EN"
 "http://www.w3.org/Graphics/SVG/1.1/DTD/svg11.dtd">
<!-- Generated by graphviz version 14.1.3 (20260303.0454)
 -->
<!-- Title: llvm::logicalview::LVScopeAggregate Pages: 1 -->
<svg width="107pt" height="238pt"
 viewBox="0.00 0.00 107.00 238.00" xmlns="http://www.w3.org/2000/svg" xmlns:xlink="http://www.w3.org/1999/xlink">
<g id="graph0" class="graph" transform="scale(1 1) rotate(0) translate(4 234)">
<title>llvm::logicalview::LVScopeAggregate</title>
<!-- Node1 -->
<g id="Node000001" class="node">
<title>Node1</title>
<g id="a_Node000001"><a xlink:title=" ">
<polygon fill="#999999" stroke="#666666" points="99.25,-30.5 0,-30.5 0,0 99.25,0 99.25,-30.5"/>
<text xml:space="preserve" text-anchor="start" x="8" y="-17" font-family="Helvetica,sans-Serif" font-size="10.00">llvm::logicalview::</text>
<text xml:space="preserve" text-anchor="middle" x="49.62" y="-5.75" font-family="Helvetica,sans-Serif" font-size="10.00">LVScopeAggregate</text>
</a>
</g>
</g>
<!-- Node2 -->
<g id="Node000002" class="node">
<title>Node2</title>
<g id="a_Node000002"><a xlink:href="classllvm_1_1logicalview_1_1LVScope.html" target="_top" xlink:title=" ">
<polygon fill="white" stroke="#666666" points="96.62,-97 2.62,-97 2.62,-66.5 96.62,-66.5 96.62,-97"/>
<text xml:space="preserve" text-anchor="start" x="10.62" y="-83.5" font-family="Helvetica,sans-Serif" font-size="10.00">llvm::logicalview::</text>
<text xml:space="preserve" text-anchor="middle" x="49.62" y="-72.25" font-family="Helvetica,sans-Serif" font-size="10.00">LVScope</text>
</a>
</g>
</g>
<!-- Node2&#45;&gt;Node1 -->
<g id="edge1_Node000001_Node000002" class="edge">
<title>Node2&#45;&gt;Node1</title>
<g id="a_edge1_Node000001_Node000002"><a xlink:title=" ">
<path fill="none" stroke="#63b8ff" d="M49.62,-54.81C49.62,-46.64 49.62,-37.91 49.62,-30.83"/>
<polygon fill="#63b8ff" stroke="#63b8ff" points="46.13,-54.6 49.63,-64.6 53.13,-54.6 46.13,-54.6"/>
</a>
</g>
</g>
<!-- Node3 -->
<g id="Node000003" class="node">
<title>Node3</title>
<g id="a_Node000003"><a xlink:href="classllvm_1_1logicalview_1_1LVElement.html" target="_top" xlink:title=" ">
<polygon fill="white" stroke="#666666" points="96.62,-163.5 2.62,-163.5 2.62,-133 96.62,-133 96.62,-163.5"/>
<text xml:space="preserve" text-anchor="start" x="10.62" y="-150" font-family="Helvetica,sans-Serif" font-size="10.00">llvm::logicalview::</text>
<text xml:space="preserve" text-anchor="middle" x="49.62" y="-138.75" font-family="Helvetica,sans-Serif" font-size="10.00">LVElement</text>
</a>
</g>
</g>
<!-- Node3&#45;&gt;Node2 -->
<g id="edge2_Node000002_Node000003" class="edge">
<title>Node3&#45;&gt;Node2</title>
<g id="a_edge2_Node000002_Node000003"><a xlink:title=" ">
<path fill="none" stroke="#63b8ff" d="M49.62,-121.31C49.62,-113.14 49.62,-104.41 49.62,-97.33"/>
<polygon fill="#63b8ff" stroke="#63b8ff" points="46.13,-121.1 49.63,-131.1 53.13,-121.1 46.13,-121.1"/>
</a>
</g>
</g>
<!-- Node4 -->
<g id="Node000004" class="node">
<title>Node4</title>
<g id="a_Node000004"><a xlink:href="classllvm_1_1logicalview_1_1LVObject.html" target="_top" xlink:title=" ">
<polygon fill="white" stroke="#666666" points="96.62,-230 2.62,-230 2.62,-199.5 96.62,-199.5 96.62,-230"/>
<text xml:space="preserve" text-anchor="start" x="10.62" y="-216.5" font-family="Helvetica,sans-Serif" font-size="10.00">llvm::logicalview::</text>
<text xml:space="preserve" text-anchor="middle" x="49.62" y="-205.25" font-family="Helvetica,sans-Serif" font-size="10.00">LVObject</text>
</a>
</g>
</g>
<!-- Node4&#45;&gt;Node3 -->
<g id="edge3_Node000003_Node000004" class="edge">
<title>Node4&#45;&gt;Node3</title>
<g id="a_edge3_Node000003_Node000004"><a xlink:title=" ">
<path fill="none" stroke="#63b8ff" d="M49.62,-187.81C49.62,-179.64 49.62,-170.91 49.62,-163.83"/>
<polygon fill="#63b8ff" stroke="#63b8ff" points="46.13,-187.6 49.63,-197.6 53.13,-187.6 46.13,-187.6"/>
</a>
</g>
</g>
</g>
</svg>
