<?xml version="1.0" encoding="UTF-8" standalone="no"?>
<!DOCTYPE svg PUBLIC "-//W3C//DTD SVG 1.1//EN"
 "http://www.w3.org/Graphics/SVG/1.1/DTD/svg11.dtd">
<!-- Generated by graphviz version 14.1.3 (20260303.0454)
 -->
<!-- Title: llvm::RuntimeDyld::MemoryManager Pages: 1 -->
<svg width="318pt" height="216pt"
 viewBox="0.00 0.00 318.00 216.00" xmlns="http://www.w3.org/2000/svg" xmlns:xlink="http://www.w3.org/1999/xlink">
<g id="graph0" class="graph" transform="scale(1 1) rotate(0) translate(4 211.5)">
<title>llvm::RuntimeDyld::MemoryManager</title>
<!-- Node1 -->
<g id="Node000001" class="node">
<title>Node1</title>
<g id="a_Node000001"><a xlink:title="Memory Management.">
<polygon fill="#999999" stroke="#666666" points="205.75,-207.5 102.75,-207.5 102.75,-177 205.75,-177 205.75,-207.5"/>
<text xml:space="preserve" text-anchor="start" x="110.75" y="-194" font-family="Helvetica,sans-Serif" font-size="10.00">llvm::RuntimeDyld::</text>
<text xml:space="preserve" text-anchor="middle" x="154.25" y="-182.75" font-family="Helvetica,sans-Serif" font-size="10.00">MemoryManager</text>
</a>
</g>
</g>
<!-- Node2 -->
<g id="Node000002" class="node">
<title>Node2</title>
<g id="a_Node000002"><a xlink:href="classllvm_1_1MCJITMemoryManager.html" target="_top" xlink:title=" ">
<polygon fill="white" stroke="#666666" points="144.62,-135.38 1.88,-135.38 1.88,-116.12 144.62,-116.12 144.62,-135.38"/>
<text xml:space="preserve" text-anchor="middle" x="73.25" y="-121.88" font-family="Helvetica,sans-Serif" font-size="10.00">llvm::MCJITMemoryManager</text>
</a>
</g>
</g>
<!-- Node1&#45;&gt;Node2 -->
<g id="edge1_Node000001_Node000002" class="edge">
<title>Node1&#45;&gt;Node2</title>
<g id="a_edge1_Node000001_Node000002"><a xlink:title=" ">
<path fill="none" stroke="#63b8ff" d="M127.19,-169.7C112.57,-158.06 95.31,-144.32 84.33,-135.57"/>
<polygon fill="#63b8ff" stroke="#63b8ff" points="124.68,-172.18 134.69,-175.67 129.04,-166.7 124.68,-172.18"/>
</a>
</g>
</g>
<!-- Node5 -->
<g id="Node000005" class="node">
<title>Node5</title>
<g id="a_Node000005"><a xlink:href="classllvm_1_1orc_1_1EPCGenericRTDyldMemoryManager.html" target="_top" xlink:title="Remote&#45;mapped RuntimeDyld&#45;compatible memory manager.">
<polygon fill="white" stroke="#666666" points="310.25,-141 162.25,-141 162.25,-110.5 310.25,-110.5 310.25,-141"/>
<text xml:space="preserve" text-anchor="start" x="170.25" y="-127.5" font-family="Helvetica,sans-Serif" font-size="10.00">llvm::orc::EPCGenericRTDyld</text>
<text xml:space="preserve" text-anchor="middle" x="236.25" y="-116.25" font-family="Helvetica,sans-Serif" font-size="10.00">MemoryManager</text>
</a>
</g>
</g>
<!-- Node1&#45;&gt;Node5 -->
<g id="edge4_Node000001_Node000005" class="edge">
<title>Node1&#45;&gt;Node5</title>
<g id="a_edge4_Node000001_Node000005"><a xlink:title=" ">
<path fill="none" stroke="#63b8ff" d="M181.88,-169.52C193.68,-160.23 207.14,-149.65 217.72,-141.33"/>
<polygon fill="#63b8ff" stroke="#63b8ff" points="179.74,-166.74 174.05,-175.68 184.07,-172.25 179.74,-166.74"/>
</a>
</g>
</g>
<!-- Node3 -->
<g id="Node000003" class="node">
<title>Node3</title>
<g id="a_Node000003"><a xlink:href="classllvm_1_1RTDyldMemoryManager.html" target="_top" xlink:title=" ">
<polygon fill="white" stroke="#666666" points="146.5,-74.5 0,-74.5 0,-55.25 146.5,-55.25 146.5,-74.5"/>
<text xml:space="preserve" text-anchor="middle" x="73.25" y="-61" font-family="Helvetica,sans-Serif" font-size="10.00">llvm::RTDyldMemoryManager</text>
</a>
</g>
</g>
<!-- Node2&#45;&gt;Node3 -->
<g id="edge2_Node000002_Node000003" class="edge">
<title>Node2&#45;&gt;Node3</title>
<g id="a_edge2_Node000002_Node000003"><a xlink:title=" ">
<path fill="none" stroke="#63b8ff" d="M73.25,-104.32C73.25,-94.29 73.25,-82.71 73.25,-74.9"/>
<polygon fill="#63b8ff" stroke="#63b8ff" points="69.75,-104.29 73.25,-114.29 76.75,-104.29 69.75,-104.29"/>
</a>
</g>
</g>
<!-- Node4 -->
<g id="Node000004" class="node">
<title>Node4</title>
<g id="a_Node000004"><a xlink:href="classllvm_1_1SectionMemoryManager.html" target="_top" xlink:title="This is a simple memory manager which implements the methods called by the RuntimeDyld class to alloc...">
<polygon fill="white" stroke="#666666" points="146.12,-19.25 0.38,-19.25 0.38,0 146.12,0 146.12,-19.25"/>
<text xml:space="preserve" text-anchor="middle" x="73.25" y="-5.75" font-family="Helvetica,sans-Serif" font-size="10.00">llvm::SectionMemoryManager</text>
</a>
</g>
</g>
<!-- Node3&#45;&gt;Node4 -->
<g id="edge3_Node000003_Node000004" class="edge">
<title>Node3&#45;&gt;Node4</title>
<g id="a_edge3_Node000003_Node000004"><a xlink:title=" ">
<path fill="none" stroke="#63b8ff" d="M73.25,-43.63C73.25,-35.34 73.25,-26.17 73.25,-19.61"/>
<polygon fill="#63b8ff" stroke="#63b8ff" points="69.75,-43.57 73.25,-53.57 76.75,-43.57 69.75,-43.57"/>
</a>
</g>
</g>
</g>
</svg>
