<?xml version="1.0" encoding="UTF-8" standalone="no"?>
<!DOCTYPE svg PUBLIC "-//W3C//DTD SVG 1.1//EN"
 "http://www.w3.org/Graphics/SVG/1.1/DTD/svg11.dtd">
<!-- Generated by graphviz version 14.1.3 (20260303.0454)
 -->
<!-- Title: llvm::orc::LinkGraphLinkingLayer::Plugin Pages: 1 -->
<svg width="340pt" height="211pt"
 viewBox="0.00 0.00 340.00 211.00" xmlns="http://www.w3.org/2000/svg" xmlns:xlink="http://www.w3.org/1999/xlink">
<g id="graph0" class="graph" transform="scale(1 1) rotate(0) translate(4 206.88)">
<title>llvm::orc::LinkGraphLinkingLayer::Plugin</title>
<!-- Node1 -->
<g id="Node000001" class="node">
<title>Node1</title>
<g id="a_Node000001"><a xlink:title="Plugin instances can be added to the ObjectLinkingLayer to receive callbacks when code is loaded or e...">
<polygon fill="#999999" stroke="#666666" points="134.5,-116.88 0,-116.88 0,-86.38 134.5,-86.38 134.5,-116.88"/>
<text xml:space="preserve" text-anchor="start" x="8" y="-103.38" font-family="Helvetica,sans-Serif" font-size="10.00">llvm::orc::LinkGraphLinking</text>
<text xml:space="preserve" text-anchor="middle" x="67.25" y="-92.12" font-family="Helvetica,sans-Serif" font-size="10.00">Layer::Plugin</text>
</a>
</g>
</g>
<!-- Node2 -->
<g id="Node000002" class="node">
<title>Node2</title>
<g id="a_Node000002"><a xlink:href="classllvm_1_1orc_1_1EHFrameRegistrationPlugin.html" target="_top" xlink:title="Adds AllocationActions to register and deregister eh&#45;frame sections in the absence of native Platform...">
<polygon fill="white" stroke="#666666" points="328.25,-202.88 174.25,-202.88 174.25,-172.38 328.25,-172.38 328.25,-202.88"/>
<text xml:space="preserve" text-anchor="start" x="182.25" y="-189.38" font-family="Helvetica,sans-Serif" font-size="10.00">llvm::orc::EHFrameRegistration</text>
<text xml:space="preserve" text-anchor="middle" x="251.25" y="-178.12" font-family="Helvetica,sans-Serif" font-size="10.00">Plugin</text>
</a>
</g>
</g>
<!-- Node1&#45;&gt;Node2 -->
<g id="edge1_Node000001_Node000002" class="edge">
<title>Node1&#45;&gt;Node2</title>
<g id="a_edge1_Node000001_Node000002"><a xlink:title=" ">
<path fill="none" stroke="#63b8ff" d="M99.47,-123.41C119.16,-136.41 145.51,-152.51 170.5,-163.62 177.37,-166.68 184.74,-169.49 192.12,-172.02"/>
<polygon fill="#63b8ff" stroke="#63b8ff" points="101.61,-120.63 91.36,-117.96 97.71,-126.44 101.61,-120.63"/>
</a>
</g>
</g>
<!-- Node3 -->
<g id="Node000003" class="node">
<title>Node3</title>
<g id="a_Node000003"><a xlink:href="classllvm_1_1orc_1_1PerfSupportPlugin.html" target="_top" xlink:title="Log perf jitdump events for each object (see https://git.kernel.org/pub/scm/linux/kernel/git/torvalds...">
<polygon fill="white" stroke="#666666" points="320.38,-154.25 182.12,-154.25 182.12,-135 320.38,-135 320.38,-154.25"/>
<text xml:space="preserve" text-anchor="middle" x="251.25" y="-140.75" font-family="Helvetica,sans-Serif" font-size="10.00">llvm::orc::PerfSupportPlugin</text>
</a>
</g>
</g>
<!-- Node1&#45;&gt;Node3 -->
<g id="edge2_Node000001_Node000003" class="edge">
<title>Node1&#45;&gt;Node3</title>
<g id="a_edge2_Node000001_Node000003"><a xlink:title=" ">
<path fill="none" stroke="#63b8ff" d="M145.68,-119.92C166.84,-124.92 189,-130.15 207.44,-134.51"/>
<polygon fill="#63b8ff" stroke="#63b8ff" points="146.74,-116.57 136.2,-117.68 145.13,-123.39 146.74,-116.57"/>
</a>
</g>
</g>
<!-- Node4 -->
<g id="Node000004" class="node">
<title>Node4</title>
<g id="a_Node000004"><a xlink:href="classllvm_1_1orc_1_1SymbolTableDumpPlugin.html" target="_top" xlink:title="Dumps symbol tables from LinkGraphs to enable backtrace symbolication.">
<polygon fill="white" stroke="#666666" points="322.25,-116.88 180.25,-116.88 180.25,-86.38 322.25,-86.38 322.25,-116.88"/>
<text xml:space="preserve" text-anchor="start" x="188.25" y="-103.38" font-family="Helvetica,sans-Serif" font-size="10.00">llvm::orc::SymbolTableDump</text>
<text xml:space="preserve" text-anchor="middle" x="251.25" y="-92.12" font-family="Helvetica,sans-Serif" font-size="10.00">Plugin</text>
</a>
</g>
</g>
<!-- Node1&#45;&gt;Node4 -->
<g id="edge3_Node000001_Node000004" class="edge">
<title>Node1&#45;&gt;Node4</title>
<g id="a_edge3_Node000001_Node000004"><a xlink:title=" ">
<path fill="none" stroke="#63b8ff" d="M146.44,-101.62C157.54,-101.62 168.91,-101.62 179.85,-101.62"/>
<polygon fill="#63b8ff" stroke="#63b8ff" points="146.5,-98.13 136.5,-101.63 146.5,-105.13 146.5,-98.13"/>
</a>
</g>
</g>
<!-- Node5 -->
<g id="Node000005" class="node">
<title>Node5</title>
<g id="a_Node000005"><a xlink:href="classllvm_1_1orc_1_1UnwindInfoRegistrationPlugin.html" target="_top" xlink:title=" ">
<polygon fill="white" stroke="#666666" points="332,-67.88 170.5,-67.88 170.5,-37.38 332,-37.38 332,-67.88"/>
<text xml:space="preserve" text-anchor="start" x="178.5" y="-54.38" font-family="Helvetica,sans-Serif" font-size="10.00">llvm::orc::UnwindInfoRegistration</text>
<text xml:space="preserve" text-anchor="middle" x="251.25" y="-43.12" font-family="Helvetica,sans-Serif" font-size="10.00">Plugin</text>
</a>
</g>
</g>
<!-- Node1&#45;&gt;Node5 -->
<g id="edge4_Node000001_Node000005" class="edge">
<title>Node1&#45;&gt;Node5</title>
<g id="a_edge4_Node000001_Node000005"><a xlink:title=" ">
<path fill="none" stroke="#63b8ff" d="M137.57,-82.96C155.5,-78.13 174.63,-72.99 191.93,-68.33"/>
<polygon fill="#63b8ff" stroke="#63b8ff" points="136.79,-79.55 128.05,-85.53 138.61,-86.31 136.79,-79.55"/>
</a>
</g>
</g>
<!-- Node6 -->
<g id="Node000006" class="node">
<title>Node6</title>
<g id="a_Node000006"><a xlink:href="classllvm_1_1orc_1_1VTuneSupportPlugin.html" target="_top" xlink:title=" ">
<polygon fill="white" stroke="#666666" points="325.62,-19.25 176.88,-19.25 176.88,0 325.62,0 325.62,-19.25"/>
<text xml:space="preserve" text-anchor="middle" x="251.25" y="-5.75" font-family="Helvetica,sans-Serif" font-size="10.00">llvm::orc::VTuneSupportPlugin</text>
</a>
</g>
</g>
<!-- Node1&#45;&gt;Node6 -->
<g id="edge5_Node000001_Node000006" class="edge">
<title>Node1&#45;&gt;Node6</title>
<g id="a_edge5_Node000001_Node000006"><a xlink:title=" ">
<path fill="none" stroke="#63b8ff" d="M94.07,-78.87C113.75,-62.64 142.22,-41.49 170.5,-28.62 178.4,-25.03 187.07,-22.07 195.68,-19.64"/>
<polygon fill="#63b8ff" stroke="#63b8ff" points="91.96,-76.07 86.56,-85.18 96.47,-81.42 91.96,-76.07"/>
</a>
</g>
</g>
</g>
</svg>
