<?xml version="1.0" encoding="UTF-8" standalone="no"?>
<!DOCTYPE svg PUBLIC "-//W3C//DTD SVG 1.1//EN"
 "http://www.w3.org/Graphics/SVG/1.1/DTD/svg11.dtd">
<!-- Generated by graphviz version 14.1.3 (20260303.0454)
 -->
<!-- Title: llvm::orc::SimpleRemoteEPC Pages: 1 -->
<svg width="375pt" height="125pt"
 viewBox="0.00 0.00 375.00 125.00" xmlns="http://www.w3.org/2000/svg" xmlns:xlink="http://www.w3.org/1999/xlink">
<g id="graph0" class="graph" transform="scale(1 1) rotate(0) translate(4 120.88)">
<title>llvm::orc::SimpleRemoteEPC</title>
<!-- Node1 -->
<g id="Node000001" class="node">
<title>Node1</title>
<g id="a_Node000001"><a xlink:title=" ">
<polygon fill="#999999" stroke="#666666" points="367.25,-62.25 222.25,-62.25 222.25,-43 367.25,-43 367.25,-62.25"/>
<text xml:space="preserve" text-anchor="middle" x="294.75" y="-48.75" font-family="Helvetica,sans-Serif" font-size="10.00">llvm::orc::SimpleRemoteEPC</text>
</a>
</g>
</g>
<!-- Node2 -->
<g id="Node000002" class="node">
<title>Node2</title>
<g id="a_Node000002"><a xlink:href="classllvm_1_1orc_1_1ExecutorProcessControl.html" target="_top" xlink:title="ExecutorProcessControl supports interaction with a JIT target process.">
<polygon fill="white" stroke="#666666" points="160.38,-116.88 25.88,-116.88 25.88,-86.38 160.38,-86.38 160.38,-116.88"/>
<text xml:space="preserve" text-anchor="start" x="33.88" y="-103.38" font-family="Helvetica,sans-Serif" font-size="10.00">llvm::orc::ExecutorProcess</text>
<text xml:space="preserve" text-anchor="middle" x="93.12" y="-92.12" font-family="Helvetica,sans-Serif" font-size="10.00">Control</text>
</a>
</g>
</g>
<!-- Node2&#45;&gt;Node1 -->
<g id="edge1_Node000001_Node000002" class="edge">
<title>Node2&#45;&gt;Node1</title>
<g id="a_edge1_Node000001_Node000002"><a xlink:title=" ">
<path fill="none" stroke="#63b8ff" d="M169.21,-83.19C197.52,-76.24 228.67,-68.6 252.73,-62.69"/>
<polygon fill="#63b8ff" stroke="#63b8ff" points="168.46,-79.78 159.58,-85.56 170.13,-86.57 168.46,-79.78"/>
</a>
</g>
</g>
<!-- Node3 -->
<g id="Node000003" class="node">
<title>Node3</title>
<g id="a_Node000003"><a xlink:href="classllvm_1_1orc_1_1SimpleRemoteEPCTransportClient.html" target="_top" xlink:title=" ">
<polygon fill="white" stroke="#666666" points="186.25,-67.88 0,-67.88 0,-37.38 186.25,-37.38 186.25,-67.88"/>
<text xml:space="preserve" text-anchor="start" x="8" y="-54.38" font-family="Helvetica,sans-Serif" font-size="10.00">llvm::orc::SimpleRemoteEPCTransport</text>
<text xml:space="preserve" text-anchor="middle" x="93.12" y="-43.12" font-family="Helvetica,sans-Serif" font-size="10.00">Client</text>
</a>
</g>
</g>
<!-- Node3&#45;&gt;Node1 -->
<g id="edge2_Node000001_Node000003" class="edge">
<title>Node3&#45;&gt;Node1</title>
<g id="a_edge2_Node000001_Node000003"><a xlink:title=" ">
<path fill="none" stroke="#63b8ff" d="M198.02,-52.62C206.08,-52.62 214.1,-52.62 221.87,-52.62"/>
<polygon fill="#63b8ff" stroke="#63b8ff" points="198.15,-49.13 188.15,-52.63 198.15,-56.13 198.15,-49.13"/>
</a>
</g>
</g>
<!-- Node4 -->
<g id="Node000004" class="node">
<title>Node4</title>
<g id="a_Node000004"><a xlink:href="classllvm_1_1orc_1_1DylibManager.html" target="_top" xlink:title=" ">
<polygon fill="white" stroke="#666666" points="152.88,-19.25 33.38,-19.25 33.38,0 152.88,0 152.88,-19.25"/>
<text xml:space="preserve" text-anchor="middle" x="93.12" y="-5.75" font-family="Helvetica,sans-Serif" font-size="10.00">llvm::orc::DylibManager</text>
</a>
</g>
</g>
<!-- Node4&#45;&gt;Node1 -->
<g id="edge3_Node000001_Node000004" class="edge">
<title>Node4&#45;&gt;Node1</title>
<g id="a_edge3_Node000001_Node000004"><a xlink:title=" ">
<path fill="none" stroke="#8b1a1a" d="M155.03,-22.04C165.45,-24.21 176.17,-26.46 186.25,-28.62 207,-33.08 229.97,-38.19 249.33,-42.54"/>
<polygon fill="#8b1a1a" stroke="#8b1a1a" points="155.86,-18.64 145.36,-20.04 154.44,-25.49 155.86,-18.64"/>
</a>
</g>
</g>
</g>
</svg>
