<?xml version="1.0" encoding="UTF-8" standalone="no"?>
<!DOCTYPE svg PUBLIC "-//W3C//DTD SVG 1.1//EN"
 "http://www.w3.org/Graphics/SVG/1.1/DTD/svg11.dtd">
<!-- Generated by graphviz version 14.1.3 (20260303.0454)
 -->
<!-- Title: llvm::remarks::BitstreamBlockParserHelper&lt; Derived &gt; Pages: 1 -->
<svg width="820pt" height="110pt"
 viewBox="0.00 0.00 820.00 110.00" xmlns="http://www.w3.org/2000/svg" xmlns:xlink="http://www.w3.org/1999/xlink">
<g id="graph0" class="graph" transform="scale(1 1) rotate(0) translate(4 105.75)">
<title>llvm::remarks::BitstreamBlockParserHelper&lt; Derived &gt;</title>
<!-- Node1 -->
<g id="Node000001" class="node">
<title>Node1</title>
<g id="a_Node000001"><a xlink:title=" ">
<polygon fill="#999999" stroke="#666666" points="309.75,-66.12 160.25,-66.12 160.25,-35.62 309.75,-35.62 309.75,-66.12"/>
<text xml:space="preserve" text-anchor="start" x="168.25" y="-52.62" font-family="Helvetica,sans-Serif" font-size="10.00">llvm::remarks::Bitstream</text>
<text xml:space="preserve" text-anchor="middle" x="235" y="-41.38" font-family="Helvetica,sans-Serif" font-size="10.00">BlockParserHelper&lt; Derived &gt;</text>
</a>
</g>
</g>
<!-- Node3 -->
<g id="Node000003" class="node">
<title>Node3</title>
<g id="a_Node000003"><a xlink:href="classllvm_1_1remarks_1_1BitstreamBlockParserHelper.html" target="_top" xlink:title=" ">
<polygon fill="white" stroke="#666666" points="652,-101.75 503.25,-101.75 503.25,-60 652,-60 652,-101.75"/>
<text xml:space="preserve" text-anchor="start" x="511.25" y="-88.25" font-family="Helvetica,sans-Serif" font-size="10.00">llvm::remarks::Bitstream</text>
<text xml:space="preserve" text-anchor="start" x="511.25" y="-77" font-family="Helvetica,sans-Serif" font-size="10.00">BlockParserHelper&lt; Bitstream</text>
<text xml:space="preserve" text-anchor="middle" x="577.62" y="-65.75" font-family="Helvetica,sans-Serif" font-size="10.00">MetaParserHelper &gt;</text>
</a>
</g>
</g>
<!-- Node1&#45;&gt;Node3 -->
<g id="edge2_Node000001_Node000003" class="edge">
<title>Node1&#45;&gt;Node3</title>
<g id="a_edge2_Node000001_Node000003"><a xlink:title=" ">
<path fill="none" stroke="orange" stroke-dasharray="5,2" d="M321.22,-58.38C377.1,-63.3 449.44,-69.67 502.86,-74.38"/>
<polygon fill="orange" stroke="orange" points="321.69,-54.91 311.42,-57.52 321.07,-61.88 321.69,-54.91"/>
</a>
</g>
<text xml:space="preserve" text-anchor="start" x="337.12" y="-78.01" font-family="Helvetica,sans-Serif" font-size="10.00" fill="grey">&lt; BitstreamMetaParserHelper &gt;</text>
</g>
<!-- Node5 -->
<g id="Node000005" class="node">
<title>Node5</title>
<g id="a_Node000005"><a xlink:href="classllvm_1_1remarks_1_1BitstreamBlockParserHelper.html" target="_top" xlink:title=" ">
<polygon fill="white" stroke="#666666" points="652,-41.75 503.25,-41.75 503.25,0 652,0 652,-41.75"/>
<text xml:space="preserve" text-anchor="start" x="511.25" y="-28.25" font-family="Helvetica,sans-Serif" font-size="10.00">llvm::remarks::Bitstream</text>
<text xml:space="preserve" text-anchor="start" x="511.25" y="-17" font-family="Helvetica,sans-Serif" font-size="10.00">BlockParserHelper&lt; Bitstream</text>
<text xml:space="preserve" text-anchor="middle" x="577.62" y="-5.75" font-family="Helvetica,sans-Serif" font-size="10.00">RemarkParserHelper &gt;</text>
</a>
</g>
</g>
<!-- Node1&#45;&gt;Node5 -->
<g id="edge4_Node000001_Node000005" class="edge">
<title>Node1&#45;&gt;Node5</title>
<g id="a_edge4_Node000001_Node000005"><a xlink:title=" ">
<path fill="none" stroke="orange" stroke-dasharray="5,2" d="M321.48,-39.29C323.59,-39.06 325.68,-38.84 327.75,-38.62 386.57,-32.61 453.42,-27.96 503.02,-24.93"/>
<polygon fill="orange" stroke="orange" points="321.11,-35.81 311.57,-40.42 321.9,-42.76 321.11,-35.81"/>
</a>
</g>
<text xml:space="preserve" text-anchor="start" x="330.75" y="-44.62" font-family="Helvetica,sans-Serif" font-size="10.00" fill="grey">&lt; BitstreamRemarkParserHelper &gt;</text>
</g>
<!-- Node2 -->
<g id="Node000002" class="node">
<title>Node2</title>
<g id="a_Node000002"><a xlink:href="classllvm_1_1remarks_1_1BitstreamBlockParserHelperBase.html" target="_top" xlink:title=" ">
<polygon fill="white" stroke="#666666" points="123.25,-66.12 0,-66.12 0,-35.62 123.25,-35.62 123.25,-66.12"/>
<text xml:space="preserve" text-anchor="start" x="8" y="-52.62" font-family="Helvetica,sans-Serif" font-size="10.00">llvm::remarks::Bitstream</text>
<text xml:space="preserve" text-anchor="middle" x="61.62" y="-41.38" font-family="Helvetica,sans-Serif" font-size="10.00">BlockParserHelperBase</text>
</a>
</g>
</g>
<!-- Node2&#45;&gt;Node1 -->
<g id="edge1_Node000001_Node000002" class="edge">
<title>Node2&#45;&gt;Node1</title>
<g id="a_edge1_Node000001_Node000002"><a xlink:title=" ">
<path fill="none" stroke="#63b8ff" d="M134.98,-50.88C143.19,-50.88 151.56,-50.88 159.79,-50.88"/>
<polygon fill="#63b8ff" stroke="#63b8ff" points="135.04,-47.38 125.04,-50.88 135.04,-54.38 135.04,-47.38"/>
</a>
</g>
</g>
<!-- Node4 -->
<g id="Node000004" class="node">
<title>Node4</title>
<g id="a_Node000004"><a xlink:href="classllvm_1_1remarks_1_1BitstreamMetaParserHelper.html" target="_top" xlink:title="Helper to parse a META_BLOCK for a bitstream remark container.">
<polygon fill="white" stroke="#666666" points="812.25,-96.12 689,-96.12 689,-65.62 812.25,-65.62 812.25,-96.12"/>
<text xml:space="preserve" text-anchor="start" x="697" y="-82.62" font-family="Helvetica,sans-Serif" font-size="10.00">llvm::remarks::Bitstream</text>
<text xml:space="preserve" text-anchor="middle" x="750.62" y="-71.38" font-family="Helvetica,sans-Serif" font-size="10.00">MetaParserHelper</text>
</a>
</g>
</g>
<!-- Node3&#45;&gt;Node4 -->
<g id="edge3_Node000003_Node000004" class="edge">
<title>Node3&#45;&gt;Node4</title>
<g id="a_edge3_Node000003_Node000004"><a xlink:title=" ">
<path fill="none" stroke="#63b8ff" d="M663.57,-80.88C671.99,-80.88 680.41,-80.88 688.51,-80.88"/>
<polygon fill="#63b8ff" stroke="#63b8ff" points="663.65,-77.38 653.65,-80.88 663.65,-84.38 663.65,-77.38"/>
</a>
</g>
</g>
<!-- Node6 -->
<g id="Node000006" class="node">
<title>Node6</title>
<g id="a_Node000006"><a xlink:href="classllvm_1_1remarks_1_1BitstreamRemarkParserHelper.html" target="_top" xlink:title="Helper to parse a REMARK_BLOCK for a bitstream remark container.">
<polygon fill="white" stroke="#666666" points="812.25,-36.12 689,-36.12 689,-5.62 812.25,-5.62 812.25,-36.12"/>
<text xml:space="preserve" text-anchor="start" x="697" y="-22.62" font-family="Helvetica,sans-Serif" font-size="10.00">llvm::remarks::Bitstream</text>
<text xml:space="preserve" text-anchor="middle" x="750.62" y="-11.38" font-family="Helvetica,sans-Serif" font-size="10.00">RemarkParserHelper</text>
</a>
</g>
</g>
<!-- Node5&#45;&gt;Node6 -->
<g id="edge5_Node000005_Node000006" class="edge">
<title>Node5&#45;&gt;Node6</title>
<g id="a_edge5_Node000005_Node000006"><a xlink:title=" ">
<path fill="none" stroke="#63b8ff" d="M663.57,-20.88C671.99,-20.88 680.41,-20.88 688.51,-20.88"/>
<polygon fill="#63b8ff" stroke="#63b8ff" points="663.65,-17.38 653.65,-20.88 663.65,-24.38 663.65,-17.38"/>
</a>
</g>
</g>
</g>
</svg>
