<?xml version="1.0" encoding="UTF-8" standalone="no"?>
<!DOCTYPE svg PUBLIC "-//W3C//DTD SVG 1.1//EN"
 "http://www.w3.org/Graphics/SVG/1.1/DTD/svg11.dtd">
<!-- Generated by graphviz version 14.1.3 (20260303.0454)
 -->
<!-- Title: llvm::IntAttributeImpl Pages: 1 -->
<svg width="129pt" height="193pt"
 viewBox="0.00 0.00 129.00 193.00" xmlns="http://www.w3.org/2000/svg" xmlns:xlink="http://www.w3.org/1999/xlink">
<g id="graph0" class="graph" transform="scale(1 1) rotate(0) translate(4 189)">
<title>llvm::IntAttributeImpl</title>
<!-- Node1 -->
<g id="Node000001" class="node">
<title>Node1</title>
<g id="a_Node000001"><a xlink:title=" ">
<polygon fill="#999999" stroke="#666666" points="113.88,-19.25 7.13,-19.25 7.13,0 113.88,0 113.88,-19.25"/>
<text xml:space="preserve" text-anchor="middle" x="60.5" y="-5.75" font-family="Helvetica,sans-Serif" font-size="10.00">llvm::IntAttributeImpl</text>
</a>
</g>
</g>
<!-- Node2 -->
<g id="Node000002" class="node">
<title>Node2</title>
<g id="a_Node000002"><a xlink:href="classllvm_1_1EnumAttributeImpl.html" target="_top" xlink:title="A set of classes that contain the value of the attribute object.">
<polygon fill="white" stroke="#666666" points="121,-74.5 0,-74.5 0,-55.25 121,-55.25 121,-74.5"/>
<text xml:space="preserve" text-anchor="middle" x="60.5" y="-61" font-family="Helvetica,sans-Serif" font-size="10.00">llvm::EnumAttributeImpl</text>
</a>
</g>
</g>
<!-- Node2&#45;&gt;Node1 -->
<g id="edge1_Node000001_Node000002" class="edge">
<title>Node2&#45;&gt;Node1</title>
<g id="a_edge1_Node000001_Node000002"><a xlink:title=" ">
<path fill="none" stroke="#63b8ff" d="M60.5,-43.63C60.5,-35.34 60.5,-26.17 60.5,-19.61"/>
<polygon fill="#63b8ff" stroke="#63b8ff" points="57,-43.57 60.5,-53.57 64,-43.57 57,-43.57"/>
</a>
</g>
</g>
<!-- Node3 -->
<g id="Node000003" class="node">
<title>Node3</title>
<g id="a_Node000003"><a xlink:href="classllvm_1_1AttributeImpl.html" target="_top" xlink:title="This class represents a single, uniqued attribute.">
<polygon fill="white" stroke="#666666" points="108.25,-129.75 12.75,-129.75 12.75,-110.5 108.25,-110.5 108.25,-129.75"/>
<text xml:space="preserve" text-anchor="middle" x="60.5" y="-116.25" font-family="Helvetica,sans-Serif" font-size="10.00">llvm::AttributeImpl</text>
</a>
</g>
</g>
<!-- Node3&#45;&gt;Node2 -->
<g id="edge2_Node000002_Node000003" class="edge">
<title>Node3&#45;&gt;Node2</title>
<g id="a_edge2_Node000002_Node000003"><a xlink:title=" ">
<path fill="none" stroke="#63b8ff" d="M60.5,-98.88C60.5,-90.59 60.5,-81.42 60.5,-74.86"/>
<polygon fill="#63b8ff" stroke="#63b8ff" points="57,-98.82 60.5,-108.82 64,-98.82 57,-98.82"/>
</a>
</g>
</g>
<!-- Node4 -->
<g id="Node000004" class="node">
<title>Node4</title>
<g id="a_Node000004"><a xlink:href="classllvm_1_1FoldingSetBase_1_1Node.html" target="_top" xlink:title="Node &#45; This class is used to maintain the singly linked bucket list in a folding set.">
<polygon fill="white" stroke="#666666" points="103.38,-185 17.62,-185 17.62,-165.75 103.38,-165.75 103.38,-185"/>
<text xml:space="preserve" text-anchor="middle" x="60.5" y="-171.5" font-family="Helvetica,sans-Serif" font-size="10.00">FoldingSetNode</text>
</a>
</g>
</g>
<!-- Node4&#45;&gt;Node3 -->
<g id="edge3_Node000003_Node000004" class="edge">
<title>Node4&#45;&gt;Node3</title>
<g id="a_edge3_Node000003_Node000004"><a xlink:title=" ">
<path fill="none" stroke="#63b8ff" d="M60.5,-154.13C60.5,-145.84 60.5,-136.67 60.5,-130.11"/>
<polygon fill="#63b8ff" stroke="#63b8ff" points="57,-154.07 60.5,-164.07 64,-154.07 57,-154.07"/>
</a>
</g>
</g>
</g>
</svg>
