<?xml version="1.0" encoding="UTF-8" standalone="no"?>
<!DOCTYPE svg PUBLIC "-//W3C//DTD SVG 1.1//EN"
 "http://www.w3.org/Graphics/SVG/1.1/DTD/svg11.dtd">
<!-- Generated by graphviz version 14.1.3 (20260303.0454)
 -->
<!-- Title: llvm::sandboxir::RegionPassManager Pages: 1 -->
<svg width="812pt" height="76pt"
 viewBox="0.00 0.00 812.00 76.00" xmlns="http://www.w3.org/2000/svg" xmlns:xlink="http://www.w3.org/1999/xlink">
<g id="graph0" class="graph" transform="scale(1 1) rotate(0) translate(4 71.88)">
<title>llvm::sandboxir::RegionPassManager</title>
<!-- Node1 -->
<g id="Node000001" class="node">
<title>Node1</title>
<g id="a_Node000001"><a xlink:title=" ">
<polygon fill="#999999" stroke="#666666" points="804,-51.5 662.75,-51.5 662.75,-21 804,-21 804,-51.5"/>
<text xml:space="preserve" text-anchor="start" x="670.75" y="-38" font-family="Helvetica,sans-Serif" font-size="10.00">llvm::sandboxir::RegionPass</text>
<text xml:space="preserve" text-anchor="middle" x="733.38" y="-26.75" font-family="Helvetica,sans-Serif" font-size="10.00">Manager</text>
</a>
</g>
</g>
<!-- Node2 -->
<g id="Node000002" class="node">
<title>Node2</title>
<g id="a_Node000002"><a xlink:href="classllvm_1_1sandboxir_1_1PassManager.html" target="_top" xlink:title=" ">
<polygon fill="white" stroke="#666666" points="625.75,-51.5 477.75,-51.5 477.75,-21 625.75,-21 625.75,-51.5"/>
<text xml:space="preserve" text-anchor="start" x="485.75" y="-38" font-family="Helvetica,sans-Serif" font-size="10.00">llvm::sandboxir::PassManager</text>
<text xml:space="preserve" text-anchor="middle" x="551.75" y="-26.75" font-family="Helvetica,sans-Serif" font-size="10.00">&lt; RegionPass, RegionPass &gt;</text>
</a>
</g>
</g>
<!-- Node2&#45;&gt;Node1 -->
<g id="edge1_Node000001_Node000002" class="edge">
<title>Node2&#45;&gt;Node1</title>
<g id="a_edge1_Node000001_Node000002"><a xlink:title=" ">
<path fill="none" stroke="#63b8ff" d="M637.44,-36.25C645.82,-36.25 654.27,-36.25 662.48,-36.25"/>
<polygon fill="#63b8ff" stroke="#63b8ff" points="637.58,-32.75 627.58,-36.25 637.58,-39.75 637.58,-32.75"/>
</a>
</g>
</g>
<!-- Node3 -->
<g id="Node000003" class="node">
<title>Node3</title>
<g id="a_Node000003"><a xlink:href="classllvm_1_1sandboxir_1_1RegionPass.html" target="_top" xlink:title="A pass that runs on a sandbox::Region.">
<polygon fill="white" stroke="#666666" points="297,-67.88 155.75,-67.88 155.75,-48.62 297,-48.62 297,-67.88"/>
<text xml:space="preserve" text-anchor="middle" x="226.38" y="-54.38" font-family="Helvetica,sans-Serif" font-size="10.00">llvm::sandboxir::RegionPass</text>
</a>
</g>
</g>
<!-- Node3&#45;&gt;Node2 -->
<g id="edge2_Node000002_Node000003" class="edge">
<title>Node3&#45;&gt;Node2</title>
<g id="a_edge2_Node000002_Node000003"><a xlink:title=" ">
<path fill="none" stroke="#63b8ff" d="M308.32,-52.74C360.24,-49.21 427.1,-44.66 477.46,-41.24"/>
<polygon fill="#63b8ff" stroke="#63b8ff" points="308.39,-49.23 298.65,-53.4 308.87,-56.21 308.39,-49.23"/>
</a>
</g>
</g>
<!-- Node4 -->
<g id="Node000004" class="node">
<title>Node4</title>
<g id="a_Node000004"><a xlink:href="classllvm_1_1sandboxir_1_1Pass.html" target="_top" xlink:title="The base class of a Sandbox IR Pass.">
<polygon fill="white" stroke="#666666" points="110.5,-67.88 0,-67.88 0,-48.62 110.5,-48.62 110.5,-67.88"/>
<text xml:space="preserve" text-anchor="middle" x="55.25" y="-54.38" font-family="Helvetica,sans-Serif" font-size="10.00">llvm::sandboxir::Pass</text>
</a>
</g>
</g>
<!-- Node4&#45;&gt;Node3 -->
<g id="edge3_Node000003_Node000004" class="edge">
<title>Node4&#45;&gt;Node3</title>
<g id="a_edge3_Node000003_Node000004"><a xlink:title=" ">
<path fill="none" stroke="#63b8ff" d="M121.9,-58.25C132.84,-58.25 144.22,-58.25 155.27,-58.25"/>
<polygon fill="#63b8ff" stroke="#63b8ff" points="122.21,-54.75 112.21,-58.25 122.21,-61.75 122.21,-54.75"/>
</a>
</g>
</g>
<!-- Node5 -->
<g id="Node000005" class="node">
<title>Node5</title>
<g id="a_Node000005"><a xlink:href="classllvm_1_1sandboxir_1_1PassManager.html" target="_top" xlink:title="Base class.">
<polygon fill="white" stroke="#666666" points="305.25,-30.5 147.5,-30.5 147.5,0 305.25,0 305.25,-30.5"/>
<text xml:space="preserve" text-anchor="start" x="155.5" y="-17" font-family="Helvetica,sans-Serif" font-size="10.00">llvm::sandboxir::PassManager</text>
<text xml:space="preserve" text-anchor="middle" x="226.38" y="-5.75" font-family="Helvetica,sans-Serif" font-size="10.00">&lt; ParentPass, ContainedPass &gt;</text>
</a>
</g>
</g>
<!-- Node5&#45;&gt;Node2 -->
<g id="edge4_Node000002_Node000005" class="edge">
<title>Node5&#45;&gt;Node2</title>
<g id="a_edge4_Node000002_Node000005"><a xlink:title=" ">
<path fill="none" stroke="orange" stroke-dasharray="5,2" d="M317.09,-16.62C360.28,-17.79 412.76,-19.96 459.75,-24 465.47,-24.49 471.38,-25.09 477.31,-25.75"/>
<polygon fill="orange" stroke="orange" points="317.34,-13.12 307.26,-16.36 317.16,-20.12 317.34,-13.12"/>
</a>
</g>
<text xml:space="preserve" text-anchor="start" x="326.25" y="-30" font-family="Helvetica,sans-Serif" font-size="10.00" fill="grey">&lt; RegionPass, RegionPass &gt;</text>
</g>
<!-- Node6 -->
<g id="Node000006" class="node">
<title>Node6</title>
<g id="a_Node000006"><a xlink:href="classParentPass.html" target="_top" xlink:title=" ">
<polygon fill="white" stroke="#666666" points="88.75,-24.88 21.75,-24.88 21.75,-5.63 88.75,-5.63 88.75,-24.88"/>
<text xml:space="preserve" text-anchor="middle" x="55.25" y="-11.38" font-family="Helvetica,sans-Serif" font-size="10.00">ParentPass</text>
</a>
</g>
</g>
<!-- Node6&#45;&gt;Node5 -->
<g id="edge5_Node000005_Node000006" class="edge">
<title>Node6&#45;&gt;Node5</title>
<g id="a_edge5_Node000005_Node000006"><a xlink:title=" ">
<path fill="none" stroke="#63b8ff" d="M99.97,-15.25C114.45,-15.25 131.02,-15.25 147.28,-15.25"/>
<polygon fill="#63b8ff" stroke="#63b8ff" points="100.37,-11.75 90.37,-15.25 100.37,-18.75 100.37,-11.75"/>
</a>
</g>
</g>
</g>
</svg>
