<?xml version="1.0" encoding="UTF-8" standalone="no"?>
<!DOCTYPE svg PUBLIC "-//W3C//DTD SVG 1.1//EN"
 "http://www.w3.org/Graphics/SVG/1.1/DTD/svg11.dtd">
<!-- Generated by graphviz version 14.1.3 (20260303.0454)
 -->
<!-- Title: llvm::AccelTableBase Pages: 1 -->
<svg width="802pt" height="383pt"
 viewBox="0.00 0.00 802.00 383.00" xmlns="http://www.w3.org/2000/svg" xmlns:xlink="http://www.w3.org/1999/xlink">
<g id="graph0" class="graph" transform="scale(1 1) rotate(0) translate(4 378.66)">
<title>llvm::AccelTableBase</title>
<!-- Node1 -->
<g id="Node000001" class="node">
<title>Node1</title>
<g id="a_Node000001"><a xlink:title="A base class holding non&#45;template&#45;dependant functionality of the AccelTable class.">
<polygon fill="#999999" stroke="#666666" points="110.5,-162.04 0,-162.04 0,-142.79 110.5,-142.79 110.5,-162.04"/>
<text xml:space="preserve" text-anchor="middle" x="55.25" y="-148.54" font-family="Helvetica,sans-Serif" font-size="10.00">llvm::AccelTableBase</text>
</a>
</g>
</g>
<!-- Node2 -->
<g id="Node000002" class="node">
<title>Node2</title>
<g id="a_Node000002"><a xlink:href="classllvm_1_1AccelTable.html" target="_top" xlink:title=" ">
<polygon fill="white" stroke="#666666" points="610.38,-287.66 471.38,-287.66 471.38,-257.16 610.38,-257.16 610.38,-287.66"/>
<text xml:space="preserve" text-anchor="start" x="479.38" y="-274.16" font-family="Helvetica,sans-Serif" font-size="10.00">llvm::AccelTable&lt; DWARF5</text>
<text xml:space="preserve" text-anchor="middle" x="540.88" y="-262.91" font-family="Helvetica,sans-Serif" font-size="10.00">AccelTableData &gt;</text>
</a>
</g>
</g>
<!-- Node1&#45;&gt;Node2 -->
<g id="edge1_Node000001_Node000002" class="edge">
<title>Node1&#45;&gt;Node2</title>
<g id="a_edge1_Node000001_Node000002"><a xlink:title=" ">
<path fill="none" stroke="#63b8ff" d="M72.8,-170.36C109.19,-208.3 200.7,-295.78 298.5,-327.41 357.17,-346.39 377.44,-342.43 437.25,-327.41 467.44,-319.83 498.45,-301.47 518.36,-288.04"/>
<polygon fill="#63b8ff" stroke="#63b8ff" points="75.59,-168.21 66.18,-163.34 70.5,-173.01 75.59,-168.21"/>
</a>
</g>
</g>
<!-- Node4 -->
<g id="Node000004" class="node">
<title>Node4</title>
<g id="a_Node000004"><a xlink:href="classllvm_1_1AccelTable.html" target="_top" xlink:title=" ">
<polygon fill="white" stroke="#666666" points="616.75,-374.66 465,-374.66 465,-344.16 616.75,-344.16 616.75,-374.66"/>
<text xml:space="preserve" text-anchor="start" x="473" y="-361.16" font-family="Helvetica,sans-Serif" font-size="10.00">llvm::AccelTable&lt; llvm</text>
<text xml:space="preserve" text-anchor="middle" x="540.88" y="-349.91" font-family="Helvetica,sans-Serif" font-size="10.00">::AppleAccelTableOffsetData &gt;</text>
</a>
</g>
</g>
<!-- Node1&#45;&gt;Node4 -->
<g id="edge3_Node000001_Node000004" class="edge">
<title>Node1&#45;&gt;Node4</title>
<g id="a_edge3_Node000001_Node000004"><a xlink:title=" ">
<path fill="none" stroke="#63b8ff" d="M64.08,-172.53C76.98,-203.11 105.5,-261.23 147.5,-294.41 238.39,-366.21 378.64,-371.83 464.54,-367.16"/>
<polygon fill="#63b8ff" stroke="#63b8ff" points="67.49,-171.61 60.48,-163.67 61.01,-174.25 67.49,-171.61"/>
</a>
</g>
</g>
<!-- Node5 -->
<g id="Node000005" class="node">
<title>Node5</title>
<g id="a_Node000005"><a xlink:href="classllvm_1_1AccelTable.html" target="_top" xlink:title=" ">
<polygon fill="white" stroke="#666666" points="613.75,-103.66 468,-103.66 468,-73.16 613.75,-73.16 613.75,-103.66"/>
<text xml:space="preserve" text-anchor="start" x="476" y="-90.16" font-family="Helvetica,sans-Serif" font-size="10.00">llvm::AccelTable&lt; llvm</text>
<text xml:space="preserve" text-anchor="middle" x="540.88" y="-78.91" font-family="Helvetica,sans-Serif" font-size="10.00">::AppleAccelTableTypeData &gt;</text>
</a>
</g>
</g>
<!-- Node1&#45;&gt;Node5 -->
<g id="edge4_Node000001_Node000005" class="edge">
<title>Node1&#45;&gt;Node5</title>
<g id="a_edge4_Node000001_Node000005"><a xlink:title=" ">
<path fill="none" stroke="#63b8ff" d="M81.4,-136.43C124.05,-110.37 214.15,-59.82 298.5,-41.41 358.75,-28.27 379.27,-20.42 437.25,-41.41 447.04,-44.96 446.26,-51.16 455.25,-56.41 466.1,-62.74 478.44,-68.24 490.27,-72.81"/>
<polygon fill="#63b8ff" stroke="#63b8ff" points="79.8,-133.3 73.14,-141.54 83.48,-139.25 79.8,-133.3"/>
</a>
</g>
</g>
<!-- Node6 -->
<g id="Node000006" class="node">
<title>Node6</title>
<g id="a_Node000006"><a xlink:href="classllvm_1_1AccelTable.html" target="_top" xlink:title=" ">
<polygon fill="white" stroke="#666666" points="614.5,-47.29 467.25,-47.29 467.25,-5.54 614.5,-5.54 614.5,-47.29"/>
<text xml:space="preserve" text-anchor="start" x="475.25" y="-33.79" font-family="Helvetica,sans-Serif" font-size="10.00">llvm::AccelTable&lt; llvm</text>
<text xml:space="preserve" text-anchor="start" x="475.25" y="-22.54" font-family="Helvetica,sans-Serif" font-size="10.00">::AppleAccelTableStaticOffset</text>
<text xml:space="preserve" text-anchor="middle" x="540.88" y="-11.29" font-family="Helvetica,sans-Serif" font-size="10.00">Data &gt;</text>
</a>
</g>
</g>
<!-- Node1&#45;&gt;Node6 -->
<g id="edge5_Node000001_Node000006" class="edge">
<title>Node1&#45;&gt;Node6</title>
<g id="a_edge5_Node000001_Node000006"><a xlink:title=" ">
<path fill="none" stroke="#63b8ff" d="M66.61,-132.23C80.98,-106.56 109.53,-63.08 147.5,-42.41 247.5,12.02 384.01,2.24 466.84,-11.13"/>
<polygon fill="#63b8ff" stroke="#63b8ff" points="63.55,-130.53 61.9,-141 69.72,-133.85 63.55,-130.53"/>
</a>
</g>
</g>
<!-- Node7 -->
<g id="Node000007" class="node">
<title>Node7</title>
<g id="a_Node000007"><a xlink:href="classllvm_1_1AccelTable.html" target="_top" xlink:title=" ">
<polygon fill="white" stroke="#666666" points="626.5,-156.66 455.25,-156.66 455.25,-126.16 626.5,-126.16 626.5,-156.66"/>
<text xml:space="preserve" text-anchor="start" x="463.25" y="-143.16" font-family="Helvetica,sans-Serif" font-size="10.00">llvm::AccelTable&lt; llvm</text>
<text xml:space="preserve" text-anchor="middle" x="540.88" y="-131.91" font-family="Helvetica,sans-Serif" font-size="10.00">::AppleAccelTableStaticTypeData &gt;</text>
</a>
</g>
</g>
<!-- Node1&#45;&gt;Node7 -->
<g id="edge6_Node000001_Node000007" class="edge">
<title>Node1&#45;&gt;Node7</title>
<g id="a_edge6_Node000001_Node000007"><a xlink:title=" ">
<path fill="none" stroke="#63b8ff" d="M121.82,-140.47C197.77,-128.21 326.64,-112.26 437.25,-122.41 445.82,-123.2 454.74,-124.35 463.59,-125.7"/>
<polygon fill="#63b8ff" stroke="#63b8ff" points="121.34,-137 112.04,-142.08 122.48,-143.91 121.34,-137"/>
</a>
</g>
</g>
<!-- Node8 -->
<g id="Node000008" class="node">
<title>Node8</title>
<g id="a_Node000008"><a xlink:href="classllvm_1_1AccelTable.html" target="_top" xlink:title="This class holds an abstract representation of an Accelerator Table, consisting of a sequence of buck...">
<polygon fill="white" stroke="#666666" points="280.5,-196.04 147.5,-196.04 147.5,-176.79 280.5,-176.79 280.5,-196.04"/>
<text xml:space="preserve" text-anchor="middle" x="214" y="-182.54" font-family="Helvetica,sans-Serif" font-size="10.00">llvm::AccelTable&lt; DataT &gt;</text>
</a>
</g>
</g>
<!-- Node1&#45;&gt;Node8 -->
<g id="edge7_Node000001_Node000008" class="edge">
<title>Node1&#45;&gt;Node8</title>
<g id="a_edge7_Node000001_Node000008"><a xlink:title=" ">
<path fill="none" stroke="#63b8ff" d="M113.99,-164.94C131.31,-168.69 150.08,-172.77 166.57,-176.34"/>
<polygon fill="#63b8ff" stroke="#63b8ff" points="114.85,-161.54 104.33,-162.84 113.37,-168.38 114.85,-161.54"/>
</a>
</g>
</g>
<!-- Node3 -->
<g id="Node000003" class="node">
<title>Node3</title>
<g id="a_Node000003"><a xlink:href="classllvm_1_1DWARF5AccelTable.html" target="_top" xlink:title=" ">
<polygon fill="white" stroke="#666666" points="793.5,-282.04 663.5,-282.04 663.5,-262.79 793.5,-262.79 793.5,-282.04"/>
<text xml:space="preserve" text-anchor="middle" x="728.5" y="-268.54" font-family="Helvetica,sans-Serif" font-size="10.00">llvm::DWARF5AccelTable</text>
</a>
</g>
</g>
<!-- Node2&#45;&gt;Node3 -->
<g id="edge2_Node000002_Node000003" class="edge">
<title>Node2&#45;&gt;Node3</title>
<g id="a_edge2_Node000002_Node000003"><a xlink:title=" ">
<path fill="none" stroke="#63b8ff" d="M622.11,-272.41C635.8,-272.41 649.85,-272.41 663.06,-272.41"/>
<polygon fill="#63b8ff" stroke="#63b8ff" points="622.24,-268.91 612.24,-272.41 622.24,-275.91 622.24,-268.91"/>
</a>
</g>
</g>
<!-- Node8&#45;&gt;Node2 -->
<g id="edge8_Node000008_Node000002" class="edge">
<title>Node8&#45;&gt;Node2</title>
<g id="a_edge8_Node000008_Node000002"><a xlink:title=" ">
<path fill="none" stroke="orange" stroke-dasharray="5,2" d="M243.9,-201.57C259.69,-209.32 279.78,-218.38 298.5,-224.41 314.82,-229.67 405.55,-247.2 470.98,-259.55"/>
<polygon fill="orange" stroke="orange" points="245.6,-198.5 235.09,-197.14 242.45,-204.75 245.6,-198.5"/>
</a>
</g>
<text xml:space="preserve" text-anchor="start" x="303.38" y="-258.87" font-family="Helvetica,sans-Serif" font-size="10.00" fill="grey">&lt; DWARF5AccelTableData &gt;</text>
</g>
<!-- Node8&#45;&gt;Node4 -->
<g id="edge9_Node000008_Node000004" class="edge">
<title>Node8&#45;&gt;Node4</title>
<g id="a_edge9_Node000008_Node000004"><a xlink:title=" ">
<path fill="none" stroke="orange" stroke-dasharray="5,2" d="M229.41,-205.41C244.71,-224.43 270.51,-253.39 298.5,-271.41 330.66,-292.11 428.06,-324.57 488.85,-343.75"/>
<polygon fill="orange" stroke="orange" points="232.27,-203.39 223.34,-197.67 226.76,-207.7 232.27,-203.39"/>
</a>
</g>
<text xml:space="preserve" text-anchor="start" x="301.5" y="-348.25" font-family="Helvetica,sans-Serif" font-size="10.00" fill="grey">&lt; llvm::AppleAccelTableOffset</text>
<text xml:space="preserve" text-anchor="start" x="301.5" y="-333" font-family="Helvetica,sans-Serif" font-size="10.00" fill="grey">  Data &gt;</text>
</g>
<!-- Node8&#45;&gt;Node5 -->
<g id="edge10_Node000008_Node000005" class="edge">
<title>Node8&#45;&gt;Node5</title>
<g id="a_edge10_Node000008_Node000005"><a xlink:title=" ">
<path fill="none" stroke="orange" stroke-dasharray="5,2" d="M238.63,-170.32C254.84,-159.97 277.19,-146.98 298.5,-138.91 353.46,-118.12 418.87,-105.1 467.72,-97.51"/>
<polygon fill="orange" stroke="orange" points="237.11,-167.13 230.66,-175.54 240.95,-172.99 237.11,-167.13"/>
</a>
</g>
<text xml:space="preserve" text-anchor="start" x="304.5" y="-160.16" font-family="Helvetica,sans-Serif" font-size="10.00" fill="grey">&lt; llvm::AppleAccelTableType</text>
<text xml:space="preserve" text-anchor="start" x="304.5" y="-144.91" font-family="Helvetica,sans-Serif" font-size="10.00" fill="grey">  Data &gt;</text>
</g>
<!-- Node8&#45;&gt;Node6 -->
<g id="edge11_Node000008_Node000006" class="edge">
<title>Node8&#45;&gt;Node6</title>
<g id="a_edge11_Node000008_Node000006"><a xlink:title=" ">
<path fill="none" stroke="orange" stroke-dasharray="5,2" d="M223.18,-166.02C235.28,-138.67 260.68,-90.81 298.5,-66.91 348.7,-35.19 416.02,-26.03 466.81,-24.26"/>
<polygon fill="orange" stroke="orange" points="220.07,-164.38 219.4,-174.96 226.52,-167.11 220.07,-164.38"/>
</a>
</g>
<text xml:space="preserve" text-anchor="start" x="302.25" y="-88.16" font-family="Helvetica,sans-Serif" font-size="10.00" fill="grey">&lt; llvm::AppleAccelTableStatic</text>
<text xml:space="preserve" text-anchor="start" x="302.25" y="-72.91" font-family="Helvetica,sans-Serif" font-size="10.00" fill="grey">  OffsetData &gt;</text>
</g>
<!-- Node8&#45;&gt;Node7 -->
<g id="edge12_Node000008_Node000007" class="edge">
<title>Node8&#45;&gt;Node7</title>
<g id="a_edge12_Node000008_Node000007"><a xlink:title=" ">
<path fill="none" stroke="orange" stroke-dasharray="5,2" d="M291.96,-187.7C335.02,-187.15 389.49,-184.33 437.25,-175.41 458.84,-171.38 482.13,-163.93 501.06,-157.03"/>
<polygon fill="orange" stroke="orange" points="292.18,-184.19 282.21,-187.78 292.24,-191.19 292.18,-184.19"/>
</a>
</g>
<text xml:space="preserve" text-anchor="start" x="302.25" y="-208.81" font-family="Helvetica,sans-Serif" font-size="10.00" fill="grey">&lt; llvm::AppleAccelTableStatic</text>
<text xml:space="preserve" text-anchor="start" x="302.25" y="-193.56" font-family="Helvetica,sans-Serif" font-size="10.00" fill="grey">  TypeData &gt;</text>
</g>
</g>
</svg>
