<?xml version="1.0" encoding="UTF-8" standalone="no"?>
<!DOCTYPE svg PUBLIC "-//W3C//DTD SVG 1.1//EN"
 "http://www.w3.org/Graphics/SVG/1.1/DTD/svg11.dtd">
<!-- Generated by graphviz version 14.1.3 (20260303.0454)
 -->
<!-- Title: llvm::orc::JITDylib Pages: 1 -->
<svg width="292pt" height="179pt"
 viewBox="0.00 0.00 292.00 179.00" xmlns="http://www.w3.org/2000/svg" xmlns:xlink="http://www.w3.org/1999/xlink">
<g id="graph0" class="graph" transform="scale(1 1) rotate(0) translate(4 174.5)">
<title>llvm::orc::JITDylib</title>
<!-- Node1 -->
<g id="Node000001" class="node">
<title>Node1</title>
<g id="a_Node000001"><a xlink:title="Represents a JIT&#39;d dynamic library.">
<polygon fill="#999999" stroke="#666666" points="232.5,-19.25 136.25,-19.25 136.25,0 232.5,0 232.5,-19.25"/>
<text xml:space="preserve" text-anchor="middle" x="184.38" y="-5.75" font-family="Helvetica,sans-Serif" font-size="10.00">llvm::orc::JITDylib</text>
</a>
</g>
</g>
<!-- Node2 -->
<g id="Node000002" class="node">
<title>Node2</title>
<g id="a_Node000002"><a xlink:href="classllvm_1_1ThreadSafeRefCountedBase.html" target="_top" xlink:title=" ">
<polygon fill="white" stroke="#666666" points="142.75,-86.75 0,-86.75 0,-56.25 142.75,-56.25 142.75,-86.75"/>
<text xml:space="preserve" text-anchor="start" x="8" y="-73.25" font-family="Helvetica,sans-Serif" font-size="10.00">llvm::ThreadSafeRefCounted</text>
<text xml:space="preserve" text-anchor="middle" x="71.38" y="-62" font-family="Helvetica,sans-Serif" font-size="10.00">Base&lt; JITDylib &gt;</text>
</a>
</g>
</g>
<!-- Node2&#45;&gt;Node1 -->
<g id="edge1_Node000001_Node000002" class="edge">
<title>Node2&#45;&gt;Node1</title>
<g id="a_edge1_Node000001_Node000002"><a xlink:title=" ">
<path fill="none" stroke="#63b8ff" d="M108.94,-50.6C128.63,-40.16 151.79,-27.89 167.2,-19.73"/>
<polygon fill="#63b8ff" stroke="#63b8ff" points="107.55,-47.37 100.36,-55.14 110.83,-53.55 107.55,-47.37"/>
</a>
</g>
</g>
<!-- Node3 -->
<g id="Node000003" class="node">
<title>Node3</title>
<g id="a_Node000003"><a xlink:href="classllvm_1_1ThreadSafeRefCountedBase.html" target="_top" xlink:title="A thread&#45;safe version of RefCountedBase.">
<polygon fill="white" stroke="#666666" points="142.75,-170.5 0,-170.5 0,-140 142.75,-140 142.75,-170.5"/>
<text xml:space="preserve" text-anchor="start" x="8" y="-157" font-family="Helvetica,sans-Serif" font-size="10.00">llvm::ThreadSafeRefCounted</text>
<text xml:space="preserve" text-anchor="middle" x="71.38" y="-145.75" font-family="Helvetica,sans-Serif" font-size="10.00">Base&lt; Derived &gt;</text>
</a>
</g>
</g>
<!-- Node3&#45;&gt;Node2 -->
<g id="edge2_Node000002_Node000003" class="edge">
<title>Node3&#45;&gt;Node2</title>
<g id="a_edge2_Node000002_Node000003"><a xlink:title=" ">
<path fill="none" stroke="orange" stroke-dasharray="5,2" d="M71.38,-128.47C71.38,-114.78 71.38,-98.46 71.38,-86.99"/>
<polygon fill="orange" stroke="orange" points="67.88,-128.12 71.38,-138.12 74.88,-128.12 67.88,-128.12"/>
</a>
</g>
<text xml:space="preserve" text-anchor="start" x="74.38" y="-110.75" font-family="Helvetica,sans-Serif" font-size="10.00" fill="grey">&lt; JITDylib &gt;</text>
</g>
<!-- Node4 -->
<g id="Node000004" class="node">
<title>Node4</title>
<g id="a_Node000004"><a xlink:href="classllvm_1_1jitlink_1_1JITLinkDylib.html" target="_top" xlink:title=" ">
<polygon fill="white" stroke="#666666" points="284,-81.12 160.75,-81.12 160.75,-61.88 284,-61.88 284,-81.12"/>
<text xml:space="preserve" text-anchor="middle" x="222.38" y="-67.62" font-family="Helvetica,sans-Serif" font-size="10.00">llvm::jitlink::JITLinkDylib</text>
</a>
</g>
</g>
<!-- Node4&#45;&gt;Node1 -->
<g id="edge3_Node000001_Node000004" class="edge">
<title>Node4&#45;&gt;Node1</title>
<g id="a_edge3_Node000001_Node000004"><a xlink:title=" ">
<path fill="none" stroke="#63b8ff" d="M210.61,-51.96C203.73,-41.12 195.36,-27.93 189.95,-19.41"/>
<polygon fill="#63b8ff" stroke="#63b8ff" points="207.48,-53.56 215.79,-60.13 213.39,-49.81 207.48,-53.56"/>
</a>
</g>
</g>
</g>
</svg>
