<?xml version="1.0" encoding="UTF-8" standalone="no"?>
<!DOCTYPE svg PUBLIC "-//W3C//DTD SVG 1.1//EN"
 "http://www.w3.org/Graphics/SVG/1.1/DTD/svg11.dtd">
<!-- Generated by graphviz version 14.1.3 (20260303.0454)
 -->
<!-- Title: llvm::X86ELFTargetObjectFile Pages: 1 -->
<svg width="170pt" height="260pt"
 viewBox="0.00 0.00 170.00 260.00" xmlns="http://www.w3.org/2000/svg" xmlns:xlink="http://www.w3.org/1999/xlink">
<g id="graph0" class="graph" transform="scale(1 1) rotate(0) translate(4 255.5)">
<title>llvm::X86ELFTargetObjectFile</title>
<!-- Node1 -->
<g id="Node000001" class="node">
<title>Node1</title>
<g id="a_Node000001"><a xlink:title="This implementation is used for X86 ELF targets that don&#39;t have a further specialization (and as a ba...">
<polygon fill="#999999" stroke="#666666" points="154.38,-74.5 7.88,-74.5 7.88,-55.25 154.38,-55.25 154.38,-74.5"/>
<text xml:space="preserve" text-anchor="middle" x="81.12" y="-61" font-family="Helvetica,sans-Serif" font-size="10.00">llvm::X86ELFTargetObjectFile</text>
</a>
</g>
</g>
<!-- Node5 -->
<g id="Node000005" class="node">
<title>Node5</title>
<g id="a_Node000005"><a xlink:href="classllvm_1_1X86__64ELFTargetObjectFile.html" target="_top" xlink:title="This implementation is used for X86_64 ELF targets, and defers to X86ELFTargetObjectFile for commonal...">
<polygon fill="white" stroke="#666666" points="162.25,-19.25 0,-19.25 0,0 162.25,0 162.25,-19.25"/>
<text xml:space="preserve" text-anchor="middle" x="81.12" y="-5.75" font-family="Helvetica,sans-Serif" font-size="10.00">llvm::X86_64ELFTargetObjectFile</text>
</a>
</g>
</g>
<!-- Node1&#45;&gt;Node5 -->
<g id="edge4_Node000001_Node000005" class="edge">
<title>Node1&#45;&gt;Node5</title>
<g id="a_edge4_Node000001_Node000005"><a xlink:title=" ">
<path fill="none" stroke="#63b8ff" d="M81.12,-43.63C81.12,-35.34 81.12,-26.17 81.12,-19.61"/>
<polygon fill="#63b8ff" stroke="#63b8ff" points="77.63,-43.57 81.13,-53.57 84.63,-43.57 77.63,-43.57"/>
</a>
</g>
</g>
<!-- Node2 -->
<g id="Node000002" class="node">
<title>Node2</title>
<g id="a_Node000002"><a xlink:href="classllvm_1_1TargetLoweringObjectFileELF.html" target="_top" xlink:title=" ">
<polygon fill="white" stroke="#666666" points="148.38,-141 13.88,-141 13.88,-110.5 148.38,-110.5 148.38,-141"/>
<text xml:space="preserve" text-anchor="start" x="21.88" y="-127.5" font-family="Helvetica,sans-Serif" font-size="10.00">llvm::TargetLoweringObject</text>
<text xml:space="preserve" text-anchor="middle" x="81.12" y="-116.25" font-family="Helvetica,sans-Serif" font-size="10.00">FileELF</text>
</a>
</g>
</g>
<!-- Node2&#45;&gt;Node1 -->
<g id="edge1_Node000001_Node000002" class="edge">
<title>Node2&#45;&gt;Node1</title>
<g id="a_edge1_Node000001_Node000002"><a xlink:title=" ">
<path fill="none" stroke="#63b8ff" d="M81.12,-98.73C81.12,-90.23 81.12,-81.34 81.12,-74.95"/>
<polygon fill="#63b8ff" stroke="#63b8ff" points="77.63,-98.68 81.13,-108.68 84.63,-98.68 77.63,-98.68"/>
</a>
</g>
</g>
<!-- Node3 -->
<g id="Node000003" class="node">
<title>Node3</title>
<g id="a_Node000003"><a xlink:href="classllvm_1_1TargetLoweringObjectFile.html" target="_top" xlink:title=" ">
<polygon fill="white" stroke="#666666" points="156.25,-196.25 6,-196.25 6,-177 156.25,-177 156.25,-196.25"/>
<text xml:space="preserve" text-anchor="middle" x="81.12" y="-182.75" font-family="Helvetica,sans-Serif" font-size="10.00">llvm::TargetLoweringObjectFile</text>
</a>
</g>
</g>
<!-- Node3&#45;&gt;Node2 -->
<g id="edge2_Node000002_Node000003" class="edge">
<title>Node3&#45;&gt;Node2</title>
<g id="a_edge2_Node000002_Node000003"><a xlink:title=" ">
<path fill="none" stroke="#63b8ff" d="M81.12,-165.42C81.12,-157.49 81.12,-148.56 81.12,-141.28"/>
<polygon fill="#63b8ff" stroke="#63b8ff" points="77.63,-165.17 81.13,-175.17 84.63,-165.17 77.63,-165.17"/>
</a>
</g>
</g>
<!-- Node4 -->
<g id="Node000004" class="node">
<title>Node4</title>
<g id="a_Node000004"><a xlink:href="classllvm_1_1MCObjectFileInfo.html" target="_top" xlink:title=" ">
<polygon fill="white" stroke="#666666" points="139.38,-251.5 22.88,-251.5 22.88,-232.25 139.38,-232.25 139.38,-251.5"/>
<text xml:space="preserve" text-anchor="middle" x="81.12" y="-238" font-family="Helvetica,sans-Serif" font-size="10.00">llvm::MCObjectFileInfo</text>
</a>
</g>
</g>
<!-- Node4&#45;&gt;Node3 -->
<g id="edge3_Node000003_Node000004" class="edge">
<title>Node4&#45;&gt;Node3</title>
<g id="a_edge3_Node000003_Node000004"><a xlink:title=" ">
<path fill="none" stroke="#63b8ff" d="M81.12,-220.63C81.12,-212.34 81.12,-203.17 81.12,-196.61"/>
<polygon fill="#63b8ff" stroke="#63b8ff" points="77.63,-220.57 81.13,-230.57 84.63,-220.57 77.63,-220.57"/>
</a>
</g>
</g>
</g>
</svg>
