<?xml version="1.0" encoding="UTF-8" standalone="no"?>
<!DOCTYPE svg PUBLIC "-//W3C//DTD SVG 1.1//EN"
 "http://www.w3.org/Graphics/SVG/1.1/DTD/svg11.dtd">
<!-- Generated by graphviz version 14.1.3 (20260303.0454)
 -->
<!-- Title: llvm::ilist_detail::iterator_parent_access&lt; IteratorTy, ParentTy, IsConst &gt; Pages: 1 -->
<svg width="927pt" height="442pt"
 viewBox="0.00 0.00 927.00 442.00" xmlns="http://www.w3.org/2000/svg" xmlns:xlink="http://www.w3.org/1999/xlink">
<g id="graph0" class="graph" transform="scale(1 1) rotate(0) translate(4 438.2)">
<title>llvm::ilist_detail::iterator_parent_access&lt; IteratorTy, ParentTy, IsConst &gt;</title>
<!-- Node1 -->
<g id="Node000001" class="node">
<title>Node1</title>
<g id="a_Node000001"><a xlink:title="Mixin class used to add a getNodeParent() function to iterators iff the list uses ilist_parent,...">
<polygon fill="#999999" stroke="#666666" points="121,-207.38 0,-207.38 0,-154.38 121,-154.38 121,-207.38"/>
<text xml:space="preserve" text-anchor="start" x="8" y="-193.88" font-family="Helvetica,sans-Serif" font-size="10.00">llvm::ilist_detail</text>
<text xml:space="preserve" text-anchor="start" x="8" y="-182.62" font-family="Helvetica,sans-Serif" font-size="10.00">::iterator_parent_access</text>
<text xml:space="preserve" text-anchor="start" x="8" y="-171.38" font-family="Helvetica,sans-Serif" font-size="10.00">&lt; IteratorTy, ParentTy,</text>
<text xml:space="preserve" text-anchor="middle" x="60.5" y="-160.12" font-family="Helvetica,sans-Serif" font-size="10.00"> IsConst &gt;</text>
</a>
</g>
</g>
<!-- Node2 -->
<g id="Node000002" class="node">
<title>Node2</title>
<g id="a_Node000002"><a xlink:href="classllvm_1_1ilist__detail_1_1iterator__parent__access.html" target="_top" xlink:title=" ">
<polygon fill="white" stroke="#666666" points="469.25,-408 310,-408 310,-343.75 469.25,-343.75 469.25,-408"/>
<text xml:space="preserve" text-anchor="start" x="318" y="-394.5" font-family="Helvetica,sans-Serif" font-size="10.00">llvm::ilist_detail</text>
<text xml:space="preserve" text-anchor="start" x="318" y="-383.25" font-family="Helvetica,sans-Serif" font-size="10.00">::iterator_parent_access</text>
<text xml:space="preserve" text-anchor="start" x="318" y="-372" font-family="Helvetica,sans-Serif" font-size="10.00">&lt; ilist_iterator&lt; OptionsT,</text>
<text xml:space="preserve" text-anchor="start" x="318" y="-360.75" font-family="Helvetica,sans-Serif" font-size="10.00"> IsReverse, IsConst &gt;, OptionsT</text>
<text xml:space="preserve" text-anchor="middle" x="389.62" y="-349.5" font-family="Helvetica,sans-Serif" font-size="10.00">::parent_ty, IsConst &gt;</text>
</a>
</g>
</g>
<!-- Node1&#45;&gt;Node2 -->
<g id="edge1_Node000001_Node000002" class="edge">
<title>Node1&#45;&gt;Node2</title>
<g id="a_edge1_Node000001_Node000002"><a xlink:title=" ">
<path fill="none" stroke="orange" stroke-dasharray="5,2" d="M68.01,-218.91C76.86,-258.04 96.71,-317.43 139,-347.88 187.84,-383.04 256.56,-388.43 309.54,-385.92"/>
<polygon fill="orange" stroke="orange" points="71.45,-218.27 65.96,-209.2 64.6,-219.71 71.45,-218.27"/>
</a>
</g>
<text xml:space="preserve" text-anchor="start" x="142" y="-422.95" font-family="Helvetica,sans-Serif" font-size="10.00" fill="grey">&lt; ilist_iterator&lt; Options</text>
<text xml:space="preserve" text-anchor="start" x="142" y="-407.7" font-family="Helvetica,sans-Serif" font-size="10.00" fill="grey">  T, IsReverse, IsConst &gt;</text>
<text xml:space="preserve" text-anchor="start" x="142" y="-392.45" font-family="Helvetica,sans-Serif" font-size="10.00" fill="grey">  , OptionsT::parent_ty, IsConst &gt;</text>
</g>
<!-- Node5 -->
<g id="Node000005" class="node">
<title>Node5</title>
<g id="a_Node000005"><a xlink:href="classllvm_1_1ilist__detail_1_1iterator__parent__access.html" target="_top" xlink:title=" ">
<polygon fill="white" stroke="#666666" points="471.5,-326 307.75,-326 307.75,-261.75 471.5,-261.75 471.5,-326"/>
<text xml:space="preserve" text-anchor="start" x="315.75" y="-312.5" font-family="Helvetica,sans-Serif" font-size="10.00">llvm::ilist_detail</text>
<text xml:space="preserve" text-anchor="start" x="315.75" y="-301.25" font-family="Helvetica,sans-Serif" font-size="10.00">::iterator_parent_access</text>
<text xml:space="preserve" text-anchor="start" x="315.75" y="-290" font-family="Helvetica,sans-Serif" font-size="10.00">&lt; ilist_iterator_w_bits</text>
<text xml:space="preserve" text-anchor="start" x="315.75" y="-278.75" font-family="Helvetica,sans-Serif" font-size="10.00">&lt; OptionsT, IsReverse, IsConst</text>
<text xml:space="preserve" text-anchor="middle" x="389.62" y="-267.5" font-family="Helvetica,sans-Serif" font-size="10.00"> &gt;, OptionsT::parent_ty, IsConst &gt;</text>
</a>
</g>
</g>
<!-- Node1&#45;&gt;Node5 -->
<g id="edge5_Node000001_Node000005" class="edge">
<title>Node1&#45;&gt;Node5</title>
<g id="a_edge5_Node000001_Node000005"><a xlink:title=" ">
<path fill="none" stroke="orange" stroke-dasharray="5,2" d="M94.03,-215.17C106.96,-226.92 122.65,-239.06 139,-246.88 168.25,-260.85 246.21,-274.27 307.3,-283.17"/>
<polygon fill="orange" stroke="orange" points="96.73,-212.9 87.06,-208.59 91.93,-218 96.73,-212.9"/>
</a>
</g>
<text xml:space="preserve" text-anchor="start" x="149.5" y="-332.28" font-family="Helvetica,sans-Serif" font-size="10.00" fill="grey">&lt; ilist_iterator_w</text>
<text xml:space="preserve" text-anchor="start" x="149.5" y="-317.03" font-family="Helvetica,sans-Serif" font-size="10.00" fill="grey">  _bits&lt; OptionsT, IsReverse,</text>
<text xml:space="preserve" text-anchor="start" x="149.5" y="-301.78" font-family="Helvetica,sans-Serif" font-size="10.00" fill="grey">   IsConst &gt;, OptionsT::parent</text>
<text xml:space="preserve" text-anchor="start" x="149.5" y="-286.53" font-family="Helvetica,sans-Serif" font-size="10.00" fill="grey">  _ty, IsConst &gt;</text>
</g>
<!-- Node8 -->
<g id="Node000008" class="node">
<title>Node8</title>
<g id="a_Node000008"><a xlink:href="classllvm_1_1ilist__detail_1_1iterator__parent__access_3_01IteratorTy_00_01ParentTy_00_01false_01_4.html" target="_top" xlink:title=" ">
<polygon fill="white" stroke="#666666" points="450.12,-243.38 329.12,-243.38 329.12,-190.38 450.12,-190.38 450.12,-243.38"/>
<text xml:space="preserve" text-anchor="start" x="337.12" y="-229.88" font-family="Helvetica,sans-Serif" font-size="10.00">llvm::ilist_detail</text>
<text xml:space="preserve" text-anchor="start" x="337.12" y="-218.62" font-family="Helvetica,sans-Serif" font-size="10.00">::iterator_parent_access</text>
<text xml:space="preserve" text-anchor="start" x="337.12" y="-207.38" font-family="Helvetica,sans-Serif" font-size="10.00">&lt; IteratorTy, ParentTy,</text>
<text xml:space="preserve" text-anchor="middle" x="389.62" y="-196.12" font-family="Helvetica,sans-Serif" font-size="10.00"> false &gt;</text>
</a>
</g>
</g>
<!-- Node1&#45;&gt;Node8 -->
<g id="edge9_Node000001_Node000008" class="edge">
<title>Node1&#45;&gt;Node8</title>
<g id="a_edge9_Node000001_Node000008"><a xlink:title=" ">
<path fill="none" stroke="orange" stroke-dasharray="5,2" d="M132.79,-194.01C134.88,-194.31 136.95,-194.6 139,-194.88 203.57,-203.53 278.02,-209.59 328.69,-213.13"/>
<polygon fill="orange" stroke="orange" points="133.41,-190.56 122.99,-192.5 132.34,-197.48 133.41,-190.56"/>
</a>
</g>
<text xml:space="preserve" text-anchor="start" x="166" y="-231.28" font-family="Helvetica,sans-Serif" font-size="10.00" fill="grey">&lt; IteratorTy, ParentTy,</text>
<text xml:space="preserve" text-anchor="start" x="166" y="-216.03" font-family="Helvetica,sans-Serif" font-size="10.00" fill="grey">   false &gt;</text>
</g>
<!-- Node9 -->
<g id="Node000009" class="node">
<title>Node9</title>
<g id="a_Node000009"><a xlink:href="classllvm_1_1ilist__detail_1_1iterator__parent__access_3_01IteratorTy_00_01ParentTy_00_01true_01_4.html" target="_top" xlink:title=" ">
<polygon fill="white" stroke="#666666" points="450.12,-172.38 329.12,-172.38 329.12,-119.38 450.12,-119.38 450.12,-172.38"/>
<text xml:space="preserve" text-anchor="start" x="337.12" y="-158.88" font-family="Helvetica,sans-Serif" font-size="10.00">llvm::ilist_detail</text>
<text xml:space="preserve" text-anchor="start" x="337.12" y="-147.62" font-family="Helvetica,sans-Serif" font-size="10.00">::iterator_parent_access</text>
<text xml:space="preserve" text-anchor="start" x="337.12" y="-136.38" font-family="Helvetica,sans-Serif" font-size="10.00">&lt; IteratorTy, ParentTy,</text>
<text xml:space="preserve" text-anchor="middle" x="389.62" y="-125.12" font-family="Helvetica,sans-Serif" font-size="10.00"> true &gt;</text>
</a>
</g>
</g>
<!-- Node1&#45;&gt;Node9 -->
<g id="edge10_Node000001_Node000009" class="edge">
<title>Node1&#45;&gt;Node9</title>
<g id="a_edge10_Node000001_Node000009"><a xlink:title=" ">
<path fill="none" stroke="orange" stroke-dasharray="5,2" d="M132.46,-163.44C134.66,-163.06 136.85,-162.7 139,-162.38 203.42,-152.63 278.05,-148.64 328.81,-147.01"/>
<polygon fill="orange" stroke="orange" points="132.05,-159.95 122.87,-165.25 133.35,-166.83 132.05,-159.95"/>
</a>
</g>
<text xml:space="preserve" text-anchor="start" x="166" y="-183.62" font-family="Helvetica,sans-Serif" font-size="10.00" fill="grey">&lt; IteratorTy, ParentTy,</text>
<text xml:space="preserve" text-anchor="start" x="166" y="-168.38" font-family="Helvetica,sans-Serif" font-size="10.00" fill="grey">   true &gt;</text>
</g>
<!-- Node10 -->
<g id="Node000010" class="node">
<title>Node10</title>
<g id="a_Node000010"><a xlink:href="classllvm_1_1ilist__detail_1_1iterator__parent__access_3_01IteratorTy_00_01void_00_01false_01_4.html" target="_top" xlink:title=" ">
<polygon fill="white" stroke="#666666" points="452.38,-101.75 326.88,-101.75 326.88,-60 452.38,-60 452.38,-101.75"/>
<text xml:space="preserve" text-anchor="start" x="334.88" y="-88.25" font-family="Helvetica,sans-Serif" font-size="10.00">llvm::ilist_detail</text>
<text xml:space="preserve" text-anchor="start" x="334.88" y="-77" font-family="Helvetica,sans-Serif" font-size="10.00">::iterator_parent_access</text>
<text xml:space="preserve" text-anchor="middle" x="389.62" y="-65.75" font-family="Helvetica,sans-Serif" font-size="10.00">&lt; IteratorTy, void, false &gt;</text>
</a>
</g>
</g>
<!-- Node1&#45;&gt;Node10 -->
<g id="edge11_Node000001_Node000010" class="edge">
<title>Node1&#45;&gt;Node10</title>
<g id="a_edge11_Node000001_Node000010"><a xlink:title=" ">
<path fill="none" stroke="orange" stroke-dasharray="5,2" d="M91.97,-146.26C105.13,-133.51 121.52,-120.28 139,-112.38 198.7,-85.38 274.14,-79.2 326.38,-78.72"/>
<polygon fill="orange" stroke="orange" points="89.84,-143.44 85.28,-153 94.81,-148.37 89.84,-143.44"/>
</a>
</g>
<text xml:space="preserve" text-anchor="start" x="176.12" y="-133.62" font-family="Helvetica,sans-Serif" font-size="10.00" fill="grey">&lt; IteratorTy, void,</text>
<text xml:space="preserve" text-anchor="start" x="176.12" y="-118.38" font-family="Helvetica,sans-Serif" font-size="10.00" fill="grey">   false &gt;</text>
</g>
<!-- Node11 -->
<g id="Node000011" class="node">
<title>Node11</title>
<g id="a_Node000011"><a xlink:href="classllvm_1_1ilist__detail_1_1iterator__parent__access_3_01IteratorTy_00_01void_00_01true_01_4.html" target="_top" xlink:title=" ">
<polygon fill="white" stroke="#666666" points="450.12,-41.75 329.12,-41.75 329.12,0 450.12,0 450.12,-41.75"/>
<text xml:space="preserve" text-anchor="start" x="337.12" y="-28.25" font-family="Helvetica,sans-Serif" font-size="10.00">llvm::ilist_detail</text>
<text xml:space="preserve" text-anchor="start" x="337.12" y="-17" font-family="Helvetica,sans-Serif" font-size="10.00">::iterator_parent_access</text>
<text xml:space="preserve" text-anchor="middle" x="389.62" y="-5.75" font-family="Helvetica,sans-Serif" font-size="10.00">&lt; IteratorTy, void, true &gt;</text>
</a>
</g>
</g>
<!-- Node1&#45;&gt;Node11 -->
<g id="edge12_Node000001_Node000011" class="edge">
<title>Node1&#45;&gt;Node11</title>
<g id="a_edge12_Node000001_Node000011"><a xlink:title=" ">
<path fill="none" stroke="orange" stroke-dasharray="5,2" d="M71.95,-143.04C82.99,-110.78 103.8,-66.13 139,-43.38 195.46,-6.89 274.7,-6.25 328.65,-11.47"/>
<polygon fill="orange" stroke="orange" points="68.66,-141.84 68.91,-152.44 75.32,-144 68.66,-141.84"/>
</a>
</g>
<text xml:space="preserve" text-anchor="start" x="176.12" y="-64.62" font-family="Helvetica,sans-Serif" font-size="10.00" fill="grey">&lt; IteratorTy, void,</text>
<text xml:space="preserve" text-anchor="start" x="176.12" y="-49.38" font-family="Helvetica,sans-Serif" font-size="10.00" fill="grey">   true &gt;</text>
</g>
<!-- Node3 -->
<g id="Node000003" class="node">
<title>Node3</title>
<g id="a_Node000003"><a xlink:href="classllvm_1_1ilist__iterator.html" target="_top" xlink:title=" ">
<polygon fill="white" stroke="#666666" points="918.5,-387.12 778.75,-387.12 778.75,-356.62 918.5,-356.62 918.5,-387.12"/>
<text xml:space="preserve" text-anchor="start" x="786.75" y="-373.62" font-family="Helvetica,sans-Serif" font-size="10.00">llvm::ilist_iterator</text>
<text xml:space="preserve" text-anchor="middle" x="848.62" y="-362.38" font-family="Helvetica,sans-Serif" font-size="10.00">&lt; OptionsT, false, IsConst &gt;</text>
</a>
</g>
</g>
<!-- Node2&#45;&gt;Node3 -->
<g id="edge2_Node000002_Node000003" class="edge">
<title>Node2&#45;&gt;Node3</title>
<g id="a_edge2_Node000002_Node000003"><a xlink:title=" ">
<path fill="none" stroke="#63b8ff" d="M480.77,-393.37C556.04,-405.26 665.97,-416.28 760.75,-400.88 777.07,-398.22 794.47,-392.94 809.38,-387.6"/>
<polygon fill="#63b8ff" stroke="#63b8ff" points="481.38,-389.92 470.95,-391.78 480.26,-396.83 481.38,-389.92"/>
</a>
</g>
</g>
<!-- Node4 -->
<g id="Node000004" class="node">
<title>Node4</title>
<g id="a_Node000004"><a xlink:href="classllvm_1_1ilist__iterator.html" target="_top" xlink:title="Iterator for intrusive lists based on ilist_node.">
<polygon fill="white" stroke="#666666" points="642.62,-386.75 525.38,-386.75 525.38,-345 642.62,-345 642.62,-386.75"/>
<text xml:space="preserve" text-anchor="start" x="533.38" y="-373.25" font-family="Helvetica,sans-Serif" font-size="10.00">llvm::ilist_iterator</text>
<text xml:space="preserve" text-anchor="start" x="533.38" y="-362" font-family="Helvetica,sans-Serif" font-size="10.00">&lt; OptionsT, IsReverse,</text>
<text xml:space="preserve" text-anchor="middle" x="584" y="-350.75" font-family="Helvetica,sans-Serif" font-size="10.00"> IsConst &gt;</text>
</a>
</g>
</g>
<!-- Node2&#45;&gt;Node4 -->
<g id="edge3_Node000002_Node000004" class="edge">
<title>Node2&#45;&gt;Node4</title>
<g id="a_edge3_Node000002_Node000004"><a xlink:title=" ">
<path fill="none" stroke="#63b8ff" d="M481.09,-371.17C496.06,-370.39 511.22,-369.61 525.11,-368.88"/>
<polygon fill="#63b8ff" stroke="#63b8ff" points="481.02,-367.67 471.22,-371.69 481.38,-374.66 481.02,-367.67"/>
</a>
</g>
</g>
<!-- Node4&#45;&gt;Node3 -->
<g id="edge4_Node000004_Node000003" class="edge">
<title>Node4&#45;&gt;Node3</title>
<g id="a_edge4_Node000004_Node000003"><a xlink:title=" ">
<path fill="none" stroke="orange" stroke-dasharray="5,2" d="M653.96,-366.44C686.37,-366.81 725.55,-367.42 760.75,-368.38 766.48,-368.53 772.43,-368.72 778.4,-368.92"/>
<polygon fill="orange" stroke="orange" points="654.34,-362.95 644.31,-366.34 654.27,-369.94 654.34,-362.95"/>
</a>
</g>
<text xml:space="preserve" text-anchor="start" x="680.5" y="-389.62" font-family="Helvetica,sans-Serif" font-size="10.00" fill="grey">&lt; OptionsT, false,</text>
<text xml:space="preserve" text-anchor="start" x="680.5" y="-374.38" font-family="Helvetica,sans-Serif" font-size="10.00" fill="grey">   IsConst &gt;</text>
</g>
<!-- Node6 -->
<g id="Node000006" class="node">
<title>Node6</title>
<g id="a_Node000006"><a xlink:href="classllvm_1_1ilist__iterator__w__bits.html" target="_top" xlink:title=" ">
<polygon fill="white" stroke="#666666" points="912.12,-317.75 785.12,-317.75 785.12,-276 912.12,-276 912.12,-317.75"/>
<text xml:space="preserve" text-anchor="start" x="793.12" y="-304.25" font-family="Helvetica,sans-Serif" font-size="10.00">llvm::ilist_iterator</text>
<text xml:space="preserve" text-anchor="start" x="793.12" y="-293" font-family="Helvetica,sans-Serif" font-size="10.00">_w_bits&lt; OptionsT, false,</text>
<text xml:space="preserve" text-anchor="middle" x="848.62" y="-281.75" font-family="Helvetica,sans-Serif" font-size="10.00"> IsConst &gt;</text>
</a>
</g>
</g>
<!-- Node5&#45;&gt;Node6 -->
<g id="edge6_Node000005_Node000006" class="edge">
<title>Node5&#45;&gt;Node6</title>
<g id="a_edge6_Node000005_Node000006"><a xlink:title=" ">
<path fill="none" stroke="#63b8ff" d="M483.07,-294.48C572.87,-295.07 706.76,-295.95 784.82,-296.46"/>
<polygon fill="#63b8ff" stroke="#63b8ff" points="483.34,-290.98 473.31,-294.42 483.29,-297.98 483.34,-290.98"/>
</a>
</g>
</g>
<!-- Node7 -->
<g id="Node000007" class="node">
<title>Node7</title>
<g id="a_Node000007"><a xlink:href="classllvm_1_1ilist__iterator__w__bits.html" target="_top" xlink:title="Iterator for intrusive lists based on ilist_node.">
<polygon fill="white" stroke="#666666" points="659.5,-275.75 508.5,-275.75 508.5,-234 659.5,-234 659.5,-275.75"/>
<text xml:space="preserve" text-anchor="start" x="516.5" y="-262.25" font-family="Helvetica,sans-Serif" font-size="10.00">llvm::ilist_iterator</text>
<text xml:space="preserve" text-anchor="start" x="516.5" y="-251" font-family="Helvetica,sans-Serif" font-size="10.00">_w_bits&lt; OptionsT, IsReverse,</text>
<text xml:space="preserve" text-anchor="middle" x="584" y="-239.75" font-family="Helvetica,sans-Serif" font-size="10.00"> IsConst &gt;</text>
</a>
</g>
</g>
<!-- Node5&#45;&gt;Node7 -->
<g id="edge7_Node000005_Node000007" class="edge">
<title>Node5&#45;&gt;Node7</title>
<g id="a_edge7_Node000005_Node000007"><a xlink:title=" ">
<path fill="none" stroke="#63b8ff" d="M482.96,-275.16C491.39,-273.45 499.86,-271.73 508.1,-270.06"/>
<polygon fill="#63b8ff" stroke="#63b8ff" points="482.52,-271.67 473.41,-277.09 483.91,-278.53 482.52,-271.67"/>
</a>
</g>
</g>
<!-- Node7&#45;&gt;Node6 -->
<g id="edge8_Node000007_Node000006" class="edge">
<title>Node7&#45;&gt;Node6</title>
<g id="a_edge8_Node000007_Node000006"><a xlink:title=" ">
<path fill="none" stroke="orange" stroke-dasharray="5,2" d="M671.05,-249.08C699.86,-248.99 731.97,-250.92 760.75,-257.38 777.56,-261.14 795.05,-268.37 809.9,-275.62"/>
<polygon fill="orange" stroke="orange" points="671.23,-245.58 661.27,-249.2 671.32,-252.57 671.23,-245.58"/>
</a>
</g>
<text xml:space="preserve" text-anchor="start" x="680.5" y="-278.62" font-family="Helvetica,sans-Serif" font-size="10.00" fill="grey">&lt; OptionsT, false,</text>
<text xml:space="preserve" text-anchor="start" x="680.5" y="-263.38" font-family="Helvetica,sans-Serif" font-size="10.00" fill="grey">   IsConst &gt;</text>
</g>
</g>
</svg>
