<?xml version="1.0" encoding="UTF-8" standalone="no"?>
<!DOCTYPE svg PUBLIC "-//W3C//DTD SVG 1.1//EN"
 "http://www.w3.org/Graphics/SVG/1.1/DTD/svg11.dtd">
<!-- Generated by graphviz version 14.1.3 (20260303.0454)
 -->
<!-- Title: llvm::EnumAttributeImpl Pages: 1 -->
<svg width="598pt" height="138pt"
 viewBox="0.00 0.00 598.00 138.00" xmlns="http://www.w3.org/2000/svg" xmlns:xlink="http://www.w3.org/1999/xlink">
<g id="graph0" class="graph" transform="scale(1 1) rotate(0) translate(4 134.25)">
<title>llvm::EnumAttributeImpl</title>
<!-- Node1 -->
<g id="Node000001" class="node">
<title>Node1</title>
<g id="a_Node000001"><a xlink:title="A set of classes that contain the value of the attribute object.">
<polygon fill="#999999" stroke="#666666" points="374.25,-74.25 253.25,-74.25 253.25,-55 374.25,-55 374.25,-74.25"/>
<text xml:space="preserve" text-anchor="middle" x="313.75" y="-60.75" font-family="Helvetica,sans-Serif" font-size="10.00">llvm::EnumAttributeImpl</text>
</a>
</g>
</g>
<!-- Node4 -->
<g id="Node000004" class="node">
<title>Node4</title>
<g id="a_Node000004"><a xlink:href="classllvm_1_1ConstantRangeAttributeImpl.html" target="_top" xlink:title=" ">
<polygon fill="white" stroke="#666666" points="581.88,-130.25 418.12,-130.25 418.12,-111 581.88,-111 581.88,-130.25"/>
<text xml:space="preserve" text-anchor="middle" x="500" y="-116.75" font-family="Helvetica,sans-Serif" font-size="10.00">llvm::ConstantRangeAttributeImpl</text>
</a>
</g>
</g>
<!-- Node1&#45;&gt;Node4 -->
<g id="edge3_Node000001_Node000004" class="edge">
<title>Node1&#45;&gt;Node4</title>
<g id="a_edge3_Node000001_Node000004"><a xlink:title=" ">
<path fill="none" stroke="#63b8ff" d="M347.11,-79.17C365.37,-86.96 388.76,-96.23 410.25,-102.62 420.35,-105.63 431.24,-108.3 441.81,-110.59"/>
<polygon fill="#63b8ff" stroke="#63b8ff" points="348.69,-76.05 338.12,-75.28 345.91,-82.47 348.69,-76.05"/>
</a>
</g>
</g>
<!-- Node5 -->
<g id="Node000005" class="node">
<title>Node5</title>
<g id="a_Node000005"><a xlink:href="classllvm_1_1ConstantRangeListAttributeImpl.html" target="_top" xlink:title=" ">
<polygon fill="white" stroke="#666666" points="589.75,-93.25 410.25,-93.25 410.25,-74 589.75,-74 589.75,-93.25"/>
<text xml:space="preserve" text-anchor="middle" x="500" y="-79.75" font-family="Helvetica,sans-Serif" font-size="10.00">llvm::ConstantRangeListAttributeImpl</text>
</a>
</g>
</g>
<!-- Node1&#45;&gt;Node5 -->
<g id="edge4_Node000001_Node000005" class="edge">
<title>Node1&#45;&gt;Node5</title>
<g id="a_edge4_Node000001_Node000005"><a xlink:title=" ">
<path fill="none" stroke="#63b8ff" d="M385.95,-71.97C393.85,-72.78 401.96,-73.62 410.04,-74.45"/>
<polygon fill="#63b8ff" stroke="#63b8ff" points="386.38,-68.49 376.08,-70.95 385.66,-75.46 386.38,-68.49"/>
</a>
</g>
</g>
<!-- Node6 -->
<g id="Node000006" class="node">
<title>Node6</title>
<g id="a_Node000006"><a xlink:href="classllvm_1_1IntAttributeImpl.html" target="_top" xlink:title=" ">
<polygon fill="white" stroke="#666666" points="553.38,-56.25 446.62,-56.25 446.62,-37 553.38,-37 553.38,-56.25"/>
<text xml:space="preserve" text-anchor="middle" x="500" y="-42.75" font-family="Helvetica,sans-Serif" font-size="10.00">llvm::IntAttributeImpl</text>
</a>
</g>
</g>
<!-- Node1&#45;&gt;Node6 -->
<g id="edge5_Node000001_Node000006" class="edge">
<title>Node1&#45;&gt;Node6</title>
<g id="a_edge5_Node000001_Node000006"><a xlink:title=" ">
<path fill="none" stroke="#63b8ff" d="M385.89,-57.68C405.99,-55.71 427.5,-53.61 446.31,-51.77"/>
<polygon fill="#63b8ff" stroke="#63b8ff" points="385.69,-54.18 376.08,-58.63 386.37,-61.14 385.69,-54.18"/>
</a>
</g>
</g>
<!-- Node7 -->
<g id="Node000007" class="node">
<title>Node7</title>
<g id="a_Node000007"><a xlink:href="classllvm_1_1TypeAttributeImpl.html" target="_top" xlink:title=" ">
<polygon fill="white" stroke="#666666" points="558.25,-19.25 441.75,-19.25 441.75,0 558.25,0 558.25,-19.25"/>
<text xml:space="preserve" text-anchor="middle" x="500" y="-5.75" font-family="Helvetica,sans-Serif" font-size="10.00">llvm::TypeAttributeImpl</text>
</a>
</g>
</g>
<!-- Node1&#45;&gt;Node7 -->
<g id="edge6_Node000001_Node000007" class="edge">
<title>Node1&#45;&gt;Node7</title>
<g id="a_edge6_Node000001_Node000007"><a xlink:title=" ">
<path fill="none" stroke="#63b8ff" d="M348.13,-50.09C366.25,-42.61 389.19,-33.79 410.25,-27.62 420.36,-24.66 431.26,-22.02 441.84,-19.73"/>
<polygon fill="#63b8ff" stroke="#63b8ff" points="346.79,-46.86 338.92,-53.95 349.5,-53.31 346.79,-46.86"/>
</a>
</g>
</g>
<!-- Node2 -->
<g id="Node000002" class="node">
<title>Node2</title>
<g id="a_Node000002"><a xlink:href="classllvm_1_1AttributeImpl.html" target="_top" xlink:title="This class represents a single, uniqued attribute.">
<polygon fill="white" stroke="#666666" points="217.25,-74.25 121.75,-74.25 121.75,-55 217.25,-55 217.25,-74.25"/>
<text xml:space="preserve" text-anchor="middle" x="169.5" y="-60.75" font-family="Helvetica,sans-Serif" font-size="10.00">llvm::AttributeImpl</text>
</a>
</g>
</g>
<!-- Node2&#45;&gt;Node1 -->
<g id="edge1_Node000001_Node000002" class="edge">
<title>Node2&#45;&gt;Node1</title>
<g id="a_edge1_Node000001_Node000002"><a xlink:title=" ">
<path fill="none" stroke="#63b8ff" d="M228.88,-64.62C236.8,-64.62 244.94,-64.62 252.89,-64.62"/>
<polygon fill="#63b8ff" stroke="#63b8ff" points="228.99,-61.13 218.99,-64.63 228.99,-68.13 228.99,-61.13"/>
</a>
</g>
</g>
<!-- Node3 -->
<g id="Node000003" class="node">
<title>Node3</title>
<g id="a_Node000003"><a xlink:href="classllvm_1_1FoldingSetBase_1_1Node.html" target="_top" xlink:title="Node &#45; This class is used to maintain the singly linked bucket list in a folding set.">
<polygon fill="white" stroke="#666666" points="85.75,-74.25 0,-74.25 0,-55 85.75,-55 85.75,-74.25"/>
<text xml:space="preserve" text-anchor="middle" x="42.88" y="-60.75" font-family="Helvetica,sans-Serif" font-size="10.00">FoldingSetNode</text>
</a>
</g>
</g>
<!-- Node3&#45;&gt;Node2 -->
<g id="edge2_Node000002_Node000003" class="edge">
<title>Node3&#45;&gt;Node2</title>
<g id="a_edge2_Node000002_Node000003"><a xlink:title=" ">
<path fill="none" stroke="#63b8ff" d="M97.31,-64.62C105.41,-64.62 113.7,-64.62 121.64,-64.62"/>
<polygon fill="#63b8ff" stroke="#63b8ff" points="97.58,-61.13 87.58,-64.63 97.58,-68.13 97.58,-61.13"/>
</a>
</g>
</g>
</g>
</svg>
