<?xml version="1.0" encoding="UTF-8" standalone="no"?>
<!DOCTYPE svg PUBLIC "-//W3C//DTD SVG 1.1//EN"
 "http://www.w3.org/Graphics/SVG/1.1/DTD/svg11.dtd">
<!-- Generated by graphviz version 14.1.3 (20260303.0454)
 -->
<!-- Title: llvm::callable_detail::Callable&lt; T, bool &gt; Pages: 1 -->
<svg width="312pt" height="88pt"
 viewBox="0.00 0.00 312.00 88.00" xmlns="http://www.w3.org/2000/svg" xmlns:xlink="http://www.w3.org/1999/xlink">
<g id="graph0" class="graph" transform="scale(1 1) rotate(0) translate(4 83.5)">
<title>llvm::callable_detail::Callable&lt; T, bool &gt;</title>
<!-- Node1 -->
<g id="Node000001" class="node">
<title>Node1</title>
<g id="a_Node000001"><a xlink:title="Templated storage wrapper for a callable.">
<polygon fill="#999999" stroke="#666666" points="103.75,-54.5 0,-54.5 0,-24 103.75,-24 103.75,-54.5"/>
<text xml:space="preserve" text-anchor="start" x="8" y="-41" font-family="Helvetica,sans-Serif" font-size="10.00">llvm::callable_detail</text>
<text xml:space="preserve" text-anchor="middle" x="51.88" y="-29.75" font-family="Helvetica,sans-Serif" font-size="10.00">::Callable&lt; T, bool &gt;</text>
</a>
</g>
</g>
<!-- Node2 -->
<g id="Node000002" class="node">
<title>Node2</title>
<g id="a_Node000002"><a xlink:href="classllvm_1_1callable__detail_1_1Callable_3_01T_00_01true_01_4.html" target="_top" xlink:title=" ">
<polygon fill="white" stroke="#666666" points="300.88,-79.5 198.62,-79.5 198.62,-49 300.88,-49 300.88,-79.5"/>
<text xml:space="preserve" text-anchor="start" x="206.62" y="-66" font-family="Helvetica,sans-Serif" font-size="10.00">llvm::callable_detail</text>
<text xml:space="preserve" text-anchor="middle" x="249.75" y="-54.75" font-family="Helvetica,sans-Serif" font-size="10.00">::Callable&lt; T, true &gt;</text>
</a>
</g>
</g>
<!-- Node1&#45;&gt;Node2 -->
<g id="edge1_Node000001_Node000002" class="edge">
<title>Node1&#45;&gt;Node2</title>
<g id="a_edge1_Node000001_Node000002"><a xlink:title=" ">
<path fill="none" stroke="orange" stroke-dasharray="5,2" d="M115.27,-47.21C142.03,-50.63 172.88,-54.57 198.18,-57.8"/>
<polygon fill="orange" stroke="orange" points="115.95,-43.77 105.58,-45.98 115.06,-50.72 115.95,-43.77"/>
</a>
</g>
<text xml:space="preserve" text-anchor="start" x="127.38" y="-60.72" font-family="Helvetica,sans-Serif" font-size="10.00" fill="grey">&lt; T, true &gt;</text>
</g>
<!-- Node3 -->
<g id="Node000003" class="node">
<title>Node3</title>
<g id="a_Node000003"><a xlink:href="classllvm_1_1callable__detail_1_1Callable.html" target="_top" xlink:title=" ">
<polygon fill="white" stroke="#666666" points="303.5,-30.5 196,-30.5 196,0 303.5,0 303.5,-30.5"/>
<text xml:space="preserve" text-anchor="start" x="204" y="-17" font-family="Helvetica,sans-Serif" font-size="10.00">llvm::callable_detail</text>
<text xml:space="preserve" text-anchor="middle" x="249.75" y="-5.75" font-family="Helvetica,sans-Serif" font-size="10.00">::Callable&lt; FuncTy &gt;</text>
</a>
</g>
</g>
<!-- Node1&#45;&gt;Node3 -->
<g id="edge2_Node000001_Node000003" class="edge">
<title>Node1&#45;&gt;Node3</title>
<g id="a_edge2_Node000001_Node000003"><a xlink:title=" ">
<path fill="none" stroke="orange" stroke-dasharray="5,2" d="M115.13,-26C117.36,-25.64 119.57,-25.31 121.75,-25 145.95,-21.58 172.92,-19.3 195.76,-17.81"/>
<polygon fill="orange" stroke="orange" points="114.65,-22.53 105.39,-27.68 115.84,-29.43 114.65,-22.53"/>
</a>
</g>
<text xml:space="preserve" text-anchor="start" x="124.75" y="-31" font-family="Helvetica,sans-Serif" font-size="10.00" fill="grey">&lt; FuncTy &gt;</text>
</g>
</g>
</svg>
