<?xml version="1.0" encoding="UTF-8" standalone="no"?>
<!DOCTYPE svg PUBLIC "-//W3C//DTD SVG 1.1//EN"
 "http://www.w3.org/Graphics/SVG/1.1/DTD/svg11.dtd">
<!-- Generated by graphviz version 14.1.3 (20260303.0454)
 -->
<!-- Title: llvm::orc::RTDyldObjectLinkingLayer Pages: 1 -->
<svg width="742pt" height="119pt"
 viewBox="0.00 0.00 742.00 119.00" xmlns="http://www.w3.org/2000/svg" xmlns:xlink="http://www.w3.org/1999/xlink">
<g id="graph0" class="graph" transform="scale(1 1) rotate(0) translate(4 114.88)">
<title>llvm::orc::RTDyldObjectLinkingLayer</title>
<!-- Node1 -->
<g id="Node000001" class="node">
<title>Node1</title>
<g id="a_Node000001"><a xlink:title=" ">
<polygon fill="#999999" stroke="#666666" points="733.5,-41.5 581,-41.5 581,-11 733.5,-11 733.5,-41.5"/>
<text xml:space="preserve" text-anchor="start" x="589" y="-28" font-family="Helvetica,sans-Serif" font-size="10.00">llvm::orc::RTDyldObjectLinking</text>
<text xml:space="preserve" text-anchor="middle" x="657.25" y="-16.75" font-family="Helvetica,sans-Serif" font-size="10.00">Layer</text>
</a>
</g>
</g>
<!-- Node2 -->
<g id="Node000002" class="node">
<title>Node2</title>
<g id="a_Node000002"><a xlink:href="classllvm_1_1RTTIExtends.html" target="_top" xlink:title=" ">
<polygon fill="white" stroke="#666666" points="543.62,-84.12 405.38,-84.12 405.38,-42.38 543.62,-42.38 543.62,-84.12"/>
<text xml:space="preserve" text-anchor="start" x="413.38" y="-70.62" font-family="Helvetica,sans-Serif" font-size="10.00">llvm::RTTIExtends&lt;</text>
<text xml:space="preserve" text-anchor="start" x="413.38" y="-59.38" font-family="Helvetica,sans-Serif" font-size="10.00"> RTDyldObjectLinkingLayer,</text>
<text xml:space="preserve" text-anchor="middle" x="474.5" y="-48.12" font-family="Helvetica,sans-Serif" font-size="10.00"> ObjectLayer &gt;</text>
</a>
</g>
</g>
<!-- Node2&#45;&gt;Node1 -->
<g id="edge1_Node000001_Node000002" class="edge">
<title>Node2&#45;&gt;Node1</title>
<g id="a_edge1_Node000001_Node000002"><a xlink:title=" ">
<path fill="none" stroke="#63b8ff" d="M555.17,-46.94C563.68,-45.2 572.31,-43.43 580.76,-41.7"/>
<polygon fill="#63b8ff" stroke="#63b8ff" points="554.67,-43.47 545.57,-48.91 556.07,-50.33 554.67,-43.47"/>
</a>
</g>
</g>
<!-- Node3 -->
<g id="Node000003" class="node">
<title>Node3</title>
<g id="a_Node000003"><a xlink:title=" ">
<polygon fill="white" stroke="#666666" points="201.75,-110.88 133.25,-110.88 133.25,-91.62 201.75,-91.62 201.75,-110.88"/>
<text xml:space="preserve" text-anchor="middle" x="167.5" y="-97.38" font-family="Helvetica,sans-Serif" font-size="10.00">ObjectLayer</text>
</a>
</g>
</g>
<!-- Node3&#45;&gt;Node2 -->
<g id="edge2_Node000002_Node000003" class="edge">
<title>Node3&#45;&gt;Node2</title>
<g id="a_edge2_Node000002_Node000003"><a xlink:title=" ">
<path fill="none" stroke="#63b8ff" d="M213.1,-97.02C257.32,-92.68 326.95,-85.4 387,-77.25 392.88,-76.45 398.97,-75.57 405.08,-74.65"/>
<polygon fill="#63b8ff" stroke="#63b8ff" points="213,-93.52 203.39,-97.97 213.68,-100.48 213,-93.52"/>
</a>
</g>
</g>
<!-- Node4 -->
<g id="Node000004" class="node">
<title>Node4</title>
<g id="a_Node000004"><a xlink:title=" ">
<polygon fill="white" stroke="#666666" points="63.25,-65.88 0,-65.88 0,-46.62 63.25,-46.62 63.25,-65.88"/>
<text xml:space="preserve" text-anchor="middle" x="31.62" y="-52.38" font-family="Helvetica,sans-Serif" font-size="10.00">ParentTs...</text>
</a>
</g>
</g>
<!-- Node4&#45;&gt;Node2 -->
<g id="edge3_Node000002_Node000004" class="edge">
<title>Node4&#45;&gt;Node2</title>
<g id="a_edge3_Node000002_Node000004"><a xlink:title=" ">
<path fill="none" stroke="#63b8ff" d="M74.68,-56.92C150.99,-58.13 312.9,-60.7 405.23,-62.17"/>
<polygon fill="#63b8ff" stroke="#63b8ff" points="75.19,-53.43 65.14,-56.77 75.08,-60.42 75.19,-53.43"/>
</a>
</g>
</g>
<!-- Node5 -->
<g id="Node000005" class="node">
<title>Node5</title>
<g id="a_Node000005"><a xlink:href="classllvm_1_1RTTIExtends.html" target="_top" xlink:title="Inheritance utility for extensible RTTI.">
<polygon fill="white" stroke="#666666" points="234.75,-30.5 100.25,-30.5 100.25,0 234.75,0 234.75,-30.5"/>
<text xml:space="preserve" text-anchor="start" x="108.25" y="-17" font-family="Helvetica,sans-Serif" font-size="10.00">llvm::RTTIExtends&lt;</text>
<text xml:space="preserve" text-anchor="middle" x="167.5" y="-5.75" font-family="Helvetica,sans-Serif" font-size="10.00"> ThisT, ParentT, ParentTs &gt;</text>
</a>
</g>
</g>
<!-- Node4&#45;&gt;Node5 -->
<g id="edge6_Node000005_Node000004" class="edge">
<title>Node4&#45;&gt;Node5</title>
<g id="a_edge6_Node000005_Node000004"><a xlink:title=" ">
<path fill="none" stroke="#63b8ff" d="M74.56,-43.41C87.43,-39.47 101.74,-35.08 115.17,-30.97"/>
<polygon fill="#63b8ff" stroke="#63b8ff" points="73.66,-40.02 65.12,-46.3 75.71,-46.72 73.66,-40.02"/>
</a>
</g>
</g>
<!-- Node5&#45;&gt;Node2 -->
<g id="edge4_Node000002_Node000005" class="edge">
<title>Node5&#45;&gt;Node2</title>
<g id="a_edge4_Node000002_Node000005"><a xlink:title=" ">
<path fill="none" stroke="orange" stroke-dasharray="5,2" d="M246.14,-2.47C289.09,1.36 342.6,0.7 387,-16.75 397.1,-20.72 395.91,-27.33 405,-33.25 409.79,-36.37 414.95,-39.3 420.22,-42.02"/>
<polygon fill="orange" stroke="orange" points="246,1.03 236.4,-3.45 246.7,-5.93 246,1.03"/>
</a>
</g>
<text xml:space="preserve" text-anchor="start" x="255.75" y="-38" font-family="Helvetica,sans-Serif" font-size="10.00" fill="grey">&lt; RTDyldObjectLinkingLayer,</text>
<text xml:space="preserve" text-anchor="start" x="255.75" y="-22.75" font-family="Helvetica,sans-Serif" font-size="10.00" fill="grey">   ObjectLayer &gt;</text>
</g>
<!-- Node6 -->
<g id="Node000006" class="node">
<title>Node6</title>
<g id="a_Node000006"><a xlink:href="classParentT.html" target="_top" xlink:title=" ">
<polygon fill="white" stroke="#666666" points="56.88,-22.88 6.38,-22.88 6.38,-3.63 56.88,-3.63 56.88,-22.88"/>
<text xml:space="preserve" text-anchor="middle" x="31.62" y="-9.38" font-family="Helvetica,sans-Serif" font-size="10.00">ParentT</text>
</a>
</g>
</g>
<!-- Node6&#45;&gt;Node5 -->
<g id="edge5_Node000005_Node000006" class="edge">
<title>Node6&#45;&gt;Node5</title>
<g id="a_edge5_Node000005_Node000006"><a xlink:title=" ">
<path fill="none" stroke="#63b8ff" d="M68.44,-13.78C78.19,-13.93 89.07,-14.09 99.95,-14.26"/>
<polygon fill="#63b8ff" stroke="#63b8ff" points="68.74,-10.29 58.69,-13.64 68.64,-17.29 68.74,-10.29"/>
</a>
</g>
</g>
<!-- Node7 -->
<g id="Node000007" class="node">
<title>Node7</title>
<g id="a_Node000007"><a xlink:href="classllvm_1_1orc_1_1ResourceManager.html" target="_top" xlink:title="Listens for ResourceTracker operations.">
<polygon fill="white" stroke="#666666" points="544,-23.88 405,-23.88 405,-4.63 544,-4.63 544,-23.88"/>
<text xml:space="preserve" text-anchor="middle" x="474.5" y="-10.38" font-family="Helvetica,sans-Serif" font-size="10.00">llvm::orc::ResourceManager</text>
</a>
</g>
</g>
<!-- Node7&#45;&gt;Node1 -->
<g id="edge7_Node000001_Node000007" class="edge">
<title>Node7&#45;&gt;Node1</title>
<g id="a_edge7_Node000001_Node000007"><a xlink:title=" ">
<path fill="none" stroke="#8b1a1a" d="M555.61,-19.57C563.94,-20.12 572.38,-20.68 580.66,-21.23"/>
<polygon fill="#8b1a1a" stroke="#8b1a1a" points="556.07,-16.09 545.86,-18.92 555.61,-23.08 556.07,-16.09"/>
</a>
</g>
</g>
</g>
</svg>
