<?xml version="1.0" encoding="UTF-8" standalone="no"?>
<!DOCTYPE svg PUBLIC "-//W3C//DTD SVG 1.1//EN"
 "http://www.w3.org/Graphics/SVG/1.1/DTD/svg11.dtd">
<!-- Generated by graphviz version 14.1.3 (20260303.0454)
 -->
<!-- Title: llvm::df_iterator_storage&lt; SetType, External &gt; Pages: 1 -->
<svg width="1388pt" height="974pt"
 viewBox="0.00 0.00 1388.00 974.00" xmlns="http://www.w3.org/2000/svg" xmlns:xlink="http://www.w3.org/1999/xlink">
<g id="graph0" class="graph" transform="scale(1 1) rotate(0) translate(4 970.04)">
<title>llvm::df_iterator_storage&lt; SetType, External &gt;</title>
<!-- Node1 -->
<g id="Node000001" class="node">
<title>Node1</title>
<g id="a_Node000001"><a xlink:title=" ">
<polygon fill="#999999" stroke="#666666" points="121,-439.41 0,-439.41 0,-408.91 121,-408.91 121,-439.41"/>
<text xml:space="preserve" text-anchor="start" x="8" y="-425.91" font-family="Helvetica,sans-Serif" font-size="10.00">llvm::df_iterator_storage</text>
<text xml:space="preserve" text-anchor="middle" x="60.5" y="-414.66" font-family="Helvetica,sans-Serif" font-size="10.00">&lt; SetType, External &gt;</text>
</a>
</g>
</g>
<!-- Node2 -->
<g id="Node000002" class="node">
<title>Node2</title>
<g id="a_Node000002"><a xlink:href="classllvm_1_1df__iterator.html" target="_top" xlink:title=" ">
<polygon fill="white" stroke="#666666" points="831.38,-938.66 706.62,-938.66 706.62,-885.66 831.38,-885.66 831.38,-938.66"/>
<text xml:space="preserve" text-anchor="start" x="714.62" y="-925.16" font-family="Helvetica,sans-Serif" font-size="10.00">llvm::df_iterator&lt;</text>
<text xml:space="preserve" text-anchor="start" x="714.62" y="-913.91" font-family="Helvetica,sans-Serif" font-size="10.00"> std::conditional_t</text>
<text xml:space="preserve" text-anchor="start" x="714.62" y="-902.66" font-family="Helvetica,sans-Serif" font-size="10.00">&lt; IsConst, const BlockT,</text>
<text xml:space="preserve" text-anchor="middle" x="769" y="-891.41" font-family="Helvetica,sans-Serif" font-size="10.00"> BlockT &gt; * &gt;</text>
</a>
</g>
</g>
<!-- Node1&#45;&gt;Node2 -->
<g id="edge1_Node000001_Node000002" class="edge">
<title>Node1&#45;&gt;Node2</title>
<g id="a_edge1_Node000001_Node000002"><a xlink:title=" ">
<path fill="none" stroke="#63b8ff" d="M61.96,-450.9C64.16,-510.06 76.08,-654.56 139,-753.16 191.23,-835.01 224.06,-844.44 310.75,-888.16 452.31,-959.55 506.41,-962.56 663.5,-941.16 677.49,-939.26 692.25,-935.98 706.14,-932.3"/>
<polygon fill="#63b8ff" stroke="#63b8ff" points="65.47,-451.03 61.67,-441.14 58.47,-451.24 65.47,-451.03"/>
</a>
</g>
</g>
<!-- Node6 -->
<g id="Node000006" class="node">
<title>Node6</title>
<g id="a_Node000006"><a xlink:href="classllvm_1_1df__iterator.html" target="_top" xlink:title=" ">
<polygon fill="white" stroke="#666666" points="838.12,-399.29 699.88,-399.29 699.88,-335.04 838.12,-335.04 838.12,-399.29"/>
<text xml:space="preserve" text-anchor="start" x="707.88" y="-385.79" font-family="Helvetica,sans-Serif" font-size="10.00">llvm::df_iterator&lt;</text>
<text xml:space="preserve" text-anchor="start" x="707.88" y="-374.54" font-family="Helvetica,sans-Serif" font-size="10.00"> RegionNodeT *, df_iterator</text>
<text xml:space="preserve" text-anchor="start" x="707.88" y="-363.29" font-family="Helvetica,sans-Serif" font-size="10.00">_default_set&lt; RegionNodeT</text>
<text xml:space="preserve" text-anchor="start" x="707.88" y="-352.04" font-family="Helvetica,sans-Serif" font-size="10.00"> * &gt;, false, GraphTraits&lt;</text>
<text xml:space="preserve" text-anchor="middle" x="769" y="-340.79" font-family="Helvetica,sans-Serif" font-size="10.00"> RegionNodeT * &gt; &gt;</text>
</a>
</g>
</g>
<!-- Node1&#45;&gt;Node6 -->
<g id="edge7_Node000001_Node000006" class="edge">
<title>Node1&#45;&gt;Node6</title>
<g id="a_edge7_Node000001_Node000006"><a xlink:title=" ">
<path fill="none" stroke="#63b8ff" d="M93.14,-402.46C106.81,-393.75 123.26,-384.15 139,-377.16 293.64,-308.52 336.34,-292.64 503.75,-268.16 574,-257.89 602.89,-231.18 663.5,-268.16 678.43,-277.27 670.17,-289.83 681.5,-303.16 691.42,-314.84 703.86,-325.6 716.19,-334.83"/>
<polygon fill="#63b8ff" stroke="#63b8ff" points="91.47,-399.37 85,-407.76 95.29,-405.24 91.47,-399.37"/>
</a>
</g>
</g>
<!-- Node7 -->
<g id="Node000007" class="node">
<title>Node7</title>
<g id="a_Node000007"><a xlink:href="classllvm_1_1df__iterator.html" target="_top" xlink:title=" ">
<polygon fill="white" stroke="#666666" points="837.38,-714.91 700.62,-714.91 700.62,-639.41 837.38,-639.41 837.38,-714.91"/>
<text xml:space="preserve" text-anchor="start" x="708.62" y="-701.41" font-family="Helvetica,sans-Serif" font-size="10.00">llvm::df_iterator&lt;</text>
<text xml:space="preserve" text-anchor="start" x="708.62" y="-690.16" font-family="Helvetica,sans-Serif" font-size="10.00"> const RegionNodeT *,</text>
<text xml:space="preserve" text-anchor="start" x="708.62" y="-678.91" font-family="Helvetica,sans-Serif" font-size="10.00"> df_iterator_default</text>
<text xml:space="preserve" text-anchor="start" x="708.62" y="-667.66" font-family="Helvetica,sans-Serif" font-size="10.00">_set&lt; const RegionNodeT</text>
<text xml:space="preserve" text-anchor="start" x="708.62" y="-656.41" font-family="Helvetica,sans-Serif" font-size="10.00"> * &gt;, false, GraphTraits</text>
<text xml:space="preserve" text-anchor="middle" x="769" y="-645.16" font-family="Helvetica,sans-Serif" font-size="10.00">&lt; const RegionNodeT * &gt; &gt;</text>
</a>
</g>
</g>
<!-- Node1&#45;&gt;Node7 -->
<g id="edge8_Node000001_Node000007" class="edge">
<title>Node1&#45;&gt;Node7</title>
<g id="a_edge8_Node000001_Node000007"><a xlink:title=" ">
<path fill="none" stroke="#63b8ff" d="M85.88,-447.47C148.75,-505.76 324.08,-656.87 503.75,-709.16 571.92,-729.01 593.28,-719.67 663.5,-709.16 675.6,-707.35 688.24,-704.42 700.38,-701.05"/>
<polygon fill="#63b8ff" stroke="#63b8ff" points="88.57,-445.19 78.87,-440.92 83.79,-450.31 88.57,-445.19"/>
</a>
</g>
</g>
<!-- Node8 -->
<g id="Node000008" class="node">
<title>Node8</title>
<g id="a_Node000008"><a xlink:href="classllvm_1_1df__iterator.html" target="_top" xlink:title=" ">
<polygon fill="white" stroke="#666666" points="830.25,-864.29 707.75,-864.29 707.75,-800.04 830.25,-800.04 830.25,-864.29"/>
<text xml:space="preserve" text-anchor="start" x="715.75" y="-850.79" font-family="Helvetica,sans-Serif" font-size="10.00">llvm::df_iterator&lt;</text>
<text xml:space="preserve" text-anchor="start" x="715.75" y="-839.54" font-family="Helvetica,sans-Serif" font-size="10.00"> NodeRef, df_iterator</text>
<text xml:space="preserve" text-anchor="start" x="715.75" y="-828.29" font-family="Helvetica,sans-Serif" font-size="10.00">_default_set&lt; NodeRef</text>
<text xml:space="preserve" text-anchor="start" x="715.75" y="-817.04" font-family="Helvetica,sans-Serif" font-size="10.00"> &gt;, false, GraphTraits</text>
<text xml:space="preserve" text-anchor="middle" x="769" y="-805.79" font-family="Helvetica,sans-Serif" font-size="10.00">&lt; FlatIt&lt; NodeRef &gt; &gt; &gt;</text>
</a>
</g>
</g>
<!-- Node1&#45;&gt;Node8 -->
<g id="edge9_Node000001_Node000008" class="edge">
<title>Node1&#45;&gt;Node8</title>
<g id="a_edge9_Node000001_Node000008"><a xlink:title=" ">
<path fill="none" stroke="#63b8ff" d="M65.25,-450.95C72.71,-496.67 92.85,-591.13 139,-656.16 254.21,-818.52 313.04,-859.05 503.75,-916.16 571.76,-936.53 603.69,-954.43 663.5,-916.16 679.58,-905.87 668.32,-890.98 681.5,-877.16 688.98,-869.32 698.12,-862.59 707.63,-856.9"/>
<polygon fill="#63b8ff" stroke="#63b8ff" points="68.72,-450.51 63.73,-441.16 61.8,-451.58 68.72,-450.51"/>
</a>
</g>
</g>
<!-- Node9 -->
<g id="Node000009" class="node">
<title>Node9</title>
<g id="a_Node000009"><a xlink:href="classllvm_1_1df__iterator.html" target="_top" xlink:title=" ">
<polygon fill="white" stroke="#666666" points="832.12,-468.04 705.88,-468.04 705.88,-426.29 832.12,-426.29 832.12,-468.04"/>
<text xml:space="preserve" text-anchor="start" x="713.88" y="-454.54" font-family="Helvetica,sans-Serif" font-size="10.00">llvm::df_iterator&lt;</text>
<text xml:space="preserve" text-anchor="start" x="713.88" y="-443.29" font-family="Helvetica,sans-Serif" font-size="10.00"> Node *, df_iterator</text>
<text xml:space="preserve" text-anchor="middle" x="769" y="-432.04" font-family="Helvetica,sans-Serif" font-size="10.00">_default_set&lt; Node * &gt; &gt;</text>
</a>
</g>
</g>
<!-- Node1&#45;&gt;Node9 -->
<g id="edge10_Node000001_Node000009" class="edge">
<title>Node1&#45;&gt;Node9</title>
<g id="a_edge10_Node000001_Node000009"><a xlink:title=" ">
<path fill="none" stroke="#63b8ff" d="M132.09,-409.35C270.99,-381.71 574.1,-329.43 663.5,-379.16 676.76,-386.54 670.09,-398.17 681.5,-408.16 689.43,-415.11 698.8,-421.02 708.4,-425.98"/>
<polygon fill="#63b8ff" stroke="#63b8ff" points="131.77,-405.84 122.65,-411.24 133.15,-412.7 131.77,-405.84"/>
</a>
</g>
</g>
<!-- Node10 -->
<g id="Node000010" class="node">
<title>Node10</title>
<g id="a_Node000010"><a xlink:href="classllvm_1_1df__iterator.html" target="_top" xlink:title=" ">
<polygon fill="white" stroke="#666666" points="813.75,-776.41 724.25,-776.41 724.25,-745.91 813.75,-745.91 813.75,-776.41"/>
<text xml:space="preserve" text-anchor="start" x="732.25" y="-762.91" font-family="Helvetica,sans-Serif" font-size="10.00">llvm::df_iterator&lt;</text>
<text xml:space="preserve" text-anchor="middle" x="769" y="-751.66" font-family="Helvetica,sans-Serif" font-size="10.00"> NodeRef &gt;</text>
</a>
</g>
</g>
<!-- Node1&#45;&gt;Node10 -->
<g id="edge11_Node000001_Node000010" class="edge">
<title>Node1&#45;&gt;Node10</title>
<g id="a_edge11_Node000001_Node000010"><a xlink:title=" ">
<path fill="none" stroke="#63b8ff" d="M71.4,-450.26C83.83,-480.57 107.41,-530.94 139,-566.16 270.89,-713.23 315.27,-761 503.75,-820.16 571.49,-841.43 601.45,-854.68 663.5,-820.16 676.76,-812.79 669.65,-800.64 681.5,-791.16 693.79,-781.34 709.51,-774.62 724.17,-770.08"/>
<polygon fill="#63b8ff" stroke="#63b8ff" points="74.71,-449.09 67.75,-441.1 68.2,-451.68 74.71,-449.09"/>
</a>
</g>
</g>
<!-- Node11 -->
<g id="Node000011" class="node">
<title>Node11</title>
<g id="a_Node000011"><a xlink:href="classllvm_1_1df__iterator.html" target="_top" xlink:title=" ">
<polygon fill="white" stroke="#666666" points="485.75,-523.41 310.75,-523.41 310.75,-492.91 485.75,-492.91 485.75,-523.41"/>
<text xml:space="preserve" text-anchor="start" x="318.75" y="-509.91" font-family="Helvetica,sans-Serif" font-size="10.00">llvm::df_iterator&lt;</text>
<text xml:space="preserve" text-anchor="middle" x="398.25" y="-498.66" font-family="Helvetica,sans-Serif" font-size="10.00"> GraphT, SetType, ExtStorage, GT &gt;</text>
</a>
</g>
</g>
<!-- Node1&#45;&gt;Node11 -->
<g id="edge12_Node000001_Node000011" class="edge">
<title>Node1&#45;&gt;Node11</title>
<g id="a_edge12_Node000001_Node000011"><a xlink:title=" ">
<path fill="none" stroke="#63b8ff" d="M132.01,-441.8C191.85,-456.78 276.93,-478.06 334.46,-492.46"/>
<polygon fill="#63b8ff" stroke="#63b8ff" points="133.16,-438.48 122.61,-439.45 131.46,-445.27 133.16,-438.48"/>
</a>
</g>
</g>
<!-- Node19 -->
<g id="Node000019" class="node">
<title>Node19</title>
<g id="a_Node000019"><a xlink:href="classllvm_1_1df__iterator__storage.html" target="_top" xlink:title=" ">
<polygon fill="white" stroke="#666666" points="469.62,-181.66 326.88,-181.66 326.88,-128.66 469.62,-128.66 469.62,-181.66"/>
<text xml:space="preserve" text-anchor="start" x="334.88" y="-168.16" font-family="Helvetica,sans-Serif" font-size="10.00">llvm::df_iterator_storage</text>
<text xml:space="preserve" text-anchor="start" x="334.88" y="-156.91" font-family="Helvetica,sans-Serif" font-size="10.00">&lt; df_iterator_default_set</text>
<text xml:space="preserve" text-anchor="start" x="334.88" y="-145.66" font-family="Helvetica,sans-Serif" font-size="10.00">&lt; typename GraphTraits&lt; T</text>
<text xml:space="preserve" text-anchor="middle" x="398.25" y="-134.41" font-family="Helvetica,sans-Serif" font-size="10.00"> &gt;::NodeRef &gt;, ExtStorage &gt;</text>
</a>
</g>
</g>
<!-- Node1&#45;&gt;Node19 -->
<g id="edge27_Node000001_Node000019" class="edge">
<title>Node1&#45;&gt;Node19</title>
<g id="a_edge27_Node000001_Node000019"><a xlink:title=" ">
<path fill="none" stroke="orange" stroke-dasharray="5,2" d="M61.91,-397.2C64.23,-348.1 76.7,-244.42 139,-192.41 190.72,-149.23 269.53,-143.65 326.48,-146.56"/>
<polygon fill="orange" stroke="orange" points="58.42,-396.81 61.57,-406.92 65.42,-397.05 58.42,-396.81"/>
</a>
</g>
<text xml:space="preserve" text-anchor="start" x="142" y="-228.91" font-family="Helvetica,sans-Serif" font-size="10.00" fill="grey">&lt; df_iterator_default</text>
<text xml:space="preserve" text-anchor="start" x="142" y="-213.66" font-family="Helvetica,sans-Serif" font-size="10.00" fill="grey">  _set&lt; typename GraphTraits</text>
<text xml:space="preserve" text-anchor="start" x="142" y="-198.41" font-family="Helvetica,sans-Serif" font-size="10.00" fill="grey">  &lt; T &gt;::NodeRef &gt;, ExtStorage &gt;</text>
</g>
<!-- Node20 -->
<g id="Node000020" class="node">
<title>Node20</title>
<g id="a_Node000020"><a xlink:href="classllvm_1_1df__iterator__storage.html" target="_top" xlink:title=" ">
<polygon fill="white" stroke="#666666" points="479.75,-110.66 316.75,-110.66 316.75,-57.66 479.75,-57.66 479.75,-110.66"/>
<text xml:space="preserve" text-anchor="start" x="324.75" y="-97.16" font-family="Helvetica,sans-Serif" font-size="10.00">llvm::df_iterator_storage</text>
<text xml:space="preserve" text-anchor="start" x="324.75" y="-85.91" font-family="Helvetica,sans-Serif" font-size="10.00">&lt; df_iterator_default_set</text>
<text xml:space="preserve" text-anchor="start" x="324.75" y="-74.66" font-family="Helvetica,sans-Serif" font-size="10.00">&lt; typename GraphTraits&lt; GraphT</text>
<text xml:space="preserve" text-anchor="middle" x="398.25" y="-63.41" font-family="Helvetica,sans-Serif" font-size="10.00"> &gt;::NodeRef &gt;, false &gt;</text>
</a>
</g>
</g>
<!-- Node1&#45;&gt;Node20 -->
<g id="edge31_Node000001_Node000020" class="edge">
<title>Node1&#45;&gt;Node20</title>
<g id="a_edge31_Node000001_Node000020"><a xlink:title=" ">
<path fill="none" stroke="orange" stroke-dasharray="5,2" d="M63.72,-397.32C70.25,-325.76 91.94,-133.24 139,-94.41 187.54,-54.36 260.41,-55.12 316.38,-63.99"/>
<polygon fill="orange" stroke="orange" points="60.27,-396.69 62.87,-406.96 67.24,-397.31 60.27,-396.69"/>
</a>
</g>
<text xml:space="preserve" text-anchor="start" x="142.75" y="-130.91" font-family="Helvetica,sans-Serif" font-size="10.00" fill="grey">&lt; df_iterator_default</text>
<text xml:space="preserve" text-anchor="start" x="142.75" y="-115.66" font-family="Helvetica,sans-Serif" font-size="10.00" fill="grey">  _set&lt; typename GraphTraits</text>
<text xml:space="preserve" text-anchor="start" x="142.75" y="-100.41" font-family="Helvetica,sans-Serif" font-size="10.00" fill="grey">  &lt; GraphT &gt;::NodeRef &gt;, false &gt;</text>
</g>
<!-- Node21 -->
<g id="Node000021" class="node">
<title>Node21</title>
<g id="a_Node000021"><a xlink:href="classllvm_1_1df__iterator__storage_3_01SetType_00_01true_01_4.html" target="_top" xlink:title=" ">
<polygon fill="white" stroke="#666666" points="458.75,-39.41 337.75,-39.41 337.75,-8.91 458.75,-8.91 458.75,-39.41"/>
<text xml:space="preserve" text-anchor="start" x="345.75" y="-25.91" font-family="Helvetica,sans-Serif" font-size="10.00">llvm::df_iterator_storage</text>
<text xml:space="preserve" text-anchor="middle" x="398.25" y="-14.66" font-family="Helvetica,sans-Serif" font-size="10.00">&lt; SetType, true &gt;</text>
</a>
</g>
</g>
<!-- Node1&#45;&gt;Node21 -->
<g id="edge32_Node000001_Node000021" class="edge">
<title>Node1&#45;&gt;Node21</title>
<g id="a_edge32_Node000001_Node000021"><a xlink:title=" ">
<path fill="none" stroke="orange" stroke-dasharray="5,2" d="M62.77,-397.16C67.13,-317.34 84.37,-85.15 139,-37.91 193,8.78 279.54,2.78 337.37,-8.48"/>
<polygon fill="orange" stroke="orange" points="59.28,-396.93 62.26,-407.1 66.27,-397.29 59.28,-396.93"/>
</a>
</g>
<text xml:space="preserve" text-anchor="start" x="177.62" y="-43.91" font-family="Helvetica,sans-Serif" font-size="10.00" fill="grey">&lt; SetType, true &gt;</text>
</g>
<!-- Node3 -->
<g id="Node000003" class="node">
<title>Node3</title>
<g id="a_Node000003"><a xlink:href="classllvm_1_1RegionBase_1_1block__iterator__wrapper.html" target="_top" xlink:title=" ">
<polygon fill="white" stroke="#666666" points="1379.75,-966.04 1250.5,-966.04 1250.5,-924.29 1379.75,-924.29 1379.75,-966.04"/>
<text xml:space="preserve" text-anchor="start" x="1258.5" y="-952.54" font-family="Helvetica,sans-Serif" font-size="10.00">llvm::RegionBase&lt; Tr</text>
<text xml:space="preserve" text-anchor="start" x="1258.5" y="-941.29" font-family="Helvetica,sans-Serif" font-size="10.00"> &gt;::block_iterator_wrapper</text>
<text xml:space="preserve" text-anchor="middle" x="1315.12" y="-930.04" font-family="Helvetica,sans-Serif" font-size="10.00">&lt; false &gt;</text>
</a>
</g>
</g>
<!-- Node2&#45;&gt;Node3 -->
<g id="edge2_Node000002_Node000003" class="edge">
<title>Node2&#45;&gt;Node3</title>
<g id="a_edge2_Node000002_Node000003"><a xlink:title=" ">
<path fill="none" stroke="#63b8ff" d="M843.15,-922.25C853.67,-923.61 864.36,-924.96 874.5,-926.16 1013.05,-942.61 1048.02,-946.65 1187.5,-950.16 1207.49,-950.67 1212.51,-950.78 1232.5,-950.16 1238.32,-949.99 1244.37,-949.74 1250.42,-949.44"/>
<polygon fill="#63b8ff" stroke="#63b8ff" points="843.72,-918.79 833.35,-920.96 842.81,-925.73 843.72,-918.79"/>
</a>
</g>
</g>
<!-- Node4 -->
<g id="Node000004" class="node">
<title>Node4</title>
<g id="a_Node000004"><a xlink:href="classllvm_1_1RegionBase_1_1block__iterator__wrapper.html" target="_top" xlink:title=" ">
<polygon fill="white" stroke="#666666" points="1379.75,-900.04 1250.5,-900.04 1250.5,-858.29 1379.75,-858.29 1379.75,-900.04"/>
<text xml:space="preserve" text-anchor="start" x="1258.5" y="-886.54" font-family="Helvetica,sans-Serif" font-size="10.00">llvm::RegionBase&lt; Tr</text>
<text xml:space="preserve" text-anchor="start" x="1258.5" y="-875.29" font-family="Helvetica,sans-Serif" font-size="10.00"> &gt;::block_iterator_wrapper</text>
<text xml:space="preserve" text-anchor="middle" x="1315.12" y="-864.04" font-family="Helvetica,sans-Serif" font-size="10.00">&lt; true &gt;</text>
</a>
</g>
</g>
<!-- Node2&#45;&gt;Node4 -->
<g id="edge3_Node000002_Node000004" class="edge">
<title>Node2&#45;&gt;Node4</title>
<g id="a_edge3_Node000002_Node000004"><a xlink:title=" ">
<path fill="none" stroke="#63b8ff" d="M843.25,-901.6C895.02,-894.65 966.11,-886.13 1029,-882.16 1104.84,-877.39 1192.24,-877.26 1250.07,-877.92"/>
<polygon fill="#63b8ff" stroke="#63b8ff" points="842.79,-898.14 833.35,-902.95 843.73,-905.07 842.79,-898.14"/>
</a>
</g>
</g>
<!-- Node5 -->
<g id="Node000005" class="node">
<title>Node5</title>
<g id="a_Node000005"><a xlink:href="classllvm_1_1RegionBase_1_1block__iterator__wrapper.html" target="_top" xlink:title=" ">
<polygon fill="white" stroke="#666666" points="1163.88,-933.04 1034.62,-933.04 1034.62,-891.29 1163.88,-891.29 1163.88,-933.04"/>
<text xml:space="preserve" text-anchor="start" x="1042.62" y="-919.54" font-family="Helvetica,sans-Serif" font-size="10.00">llvm::RegionBase&lt; Tr</text>
<text xml:space="preserve" text-anchor="start" x="1042.62" y="-908.29" font-family="Helvetica,sans-Serif" font-size="10.00"> &gt;::block_iterator_wrapper</text>
<text xml:space="preserve" text-anchor="middle" x="1099.25" y="-897.04" font-family="Helvetica,sans-Serif" font-size="10.00">&lt; IsConst &gt;</text>
</a>
</g>
</g>
<!-- Node2&#45;&gt;Node5 -->
<g id="edge4_Node000002_Node000005" class="edge">
<title>Node2&#45;&gt;Node5</title>
<g id="a_edge4_Node000002_Node000005"><a xlink:title=" ">
<path fill="none" stroke="#63b8ff" d="M842.91,-912.16C900.25,-912.16 979.36,-912.16 1034.26,-912.16"/>
<polygon fill="#63b8ff" stroke="#63b8ff" points="843.25,-908.66 833.25,-912.16 843.25,-915.66 843.25,-908.66"/>
</a>
</g>
</g>
<!-- Node5&#45;&gt;Node3 -->
<g id="edge5_Node000005_Node000003" class="edge">
<title>Node5&#45;&gt;Node3</title>
<g id="a_edge5_Node000005_Node000003"><a xlink:title=" ">
<path fill="none" stroke="orange" stroke-dasharray="5,2" d="M1175.18,-923.73C1199.67,-927.5 1226.61,-931.66 1250.2,-935.3"/>
<polygon fill="orange" stroke="orange" points="1176.04,-920.32 1165.63,-922.25 1174.97,-927.23 1176.04,-920.32"/>
</a>
</g>
<text xml:space="preserve" text-anchor="start" x="1190.5" y="-937.62" font-family="Helvetica,sans-Serif" font-size="10.00" fill="grey">&lt; false &gt;</text>
</g>
<!-- Node5&#45;&gt;Node4 -->
<g id="edge6_Node000005_Node000004" class="edge">
<title>Node5&#45;&gt;Node4</title>
<g id="a_edge6_Node000005_Node000004"><a xlink:title=" ">
<path fill="none" stroke="orange" stroke-dasharray="5,2" d="M1175.18,-900.6C1199.67,-896.82 1226.61,-892.67 1250.2,-889.03"/>
<polygon fill="orange" stroke="orange" points="1174.97,-897.09 1165.63,-902.08 1176.04,-904.01 1174.97,-897.09"/>
</a>
</g>
<text xml:space="preserve" text-anchor="start" x="1192.75" y="-904.62" font-family="Helvetica,sans-Serif" font-size="10.00" fill="grey">&lt; true &gt;</text>
</g>
<!-- Node11&#45;&gt;Node2 -->
<g id="edge17_Node000011_Node000002" class="edge">
<title>Node11&#45;&gt;Node2</title>
<g id="a_edge17_Node000011_Node000002"><a xlink:title=" ">
<path fill="none" stroke="orange" stroke-dasharray="5,2" d="M399.25,-534.98C400.76,-598.61 413.77,-759.78 503.75,-845.16 532.63,-872.57 637.69,-892.89 706.32,-903.6"/>
<polygon fill="orange" stroke="orange" points="402.75,-535.06 399.1,-525.12 395.75,-535.17 402.75,-535.06"/>
</a>
</g>
<text xml:space="preserve" text-anchor="start" x="522.12" y="-932.16" font-family="Helvetica,sans-Serif" font-size="10.00" fill="grey">&lt; std::conditional</text>
<text xml:space="preserve" text-anchor="start" x="522.12" y="-916.91" font-family="Helvetica,sans-Serif" font-size="10.00" fill="grey">  _t&lt; IsConst, const BlockT,</text>
<text xml:space="preserve" text-anchor="start" x="522.12" y="-901.66" font-family="Helvetica,sans-Serif" font-size="10.00" fill="grey">   BlockT &gt; * &gt;</text>
</g>
<!-- Node11&#45;&gt;Node6 -->
<g id="edge18_Node000011_Node000006" class="edge">
<title>Node11&#45;&gt;Node6</title>
<g id="a_edge18_Node000011_Node000006"><a xlink:title=" ">
<path fill="none" stroke="orange" stroke-dasharray="5,2" d="M414.56,-482.94C432.35,-456.13 464.36,-414.93 503.75,-395.16 564.88,-364.49 643.83,-359.96 699.46,-361.57"/>
<polygon fill="orange" stroke="orange" points="411.74,-480.86 409.27,-491.16 417.62,-484.65 411.74,-480.86"/>
</a>
</g>
<text xml:space="preserve" text-anchor="start" x="506.75" y="-446.91" font-family="Helvetica,sans-Serif" font-size="10.00" fill="grey">&lt; RegionNodeT *, df</text>
<text xml:space="preserve" text-anchor="start" x="506.75" y="-431.66" font-family="Helvetica,sans-Serif" font-size="10.00" fill="grey">  _iterator_default_set</text>
<text xml:space="preserve" text-anchor="start" x="506.75" y="-416.41" font-family="Helvetica,sans-Serif" font-size="10.00" fill="grey">  &lt; RegionNodeT * &gt;, false,</text>
<text xml:space="preserve" text-anchor="start" x="506.75" y="-401.16" font-family="Helvetica,sans-Serif" font-size="10.00" fill="grey">   GraphTraits&lt; RegionNodeT * &gt; &gt;</text>
</g>
<!-- Node11&#45;&gt;Node7 -->
<g id="edge19_Node000011_Node000007" class="edge">
<title>Node11&#45;&gt;Node7</title>
<g id="a_edge19_Node000011_Node000007"><a xlink:title=" ">
<path fill="none" stroke="orange" stroke-dasharray="5,2" d="M438.9,-528.84C458.09,-538.2 481.7,-548.8 503.75,-556.16 572.67,-579.18 598.14,-559.17 663.5,-590.91 688.26,-602.94 712.21,-621.99 730.93,-639.13"/>
<polygon fill="orange" stroke="orange" points="440.6,-525.78 430.09,-524.47 437.49,-532.05 440.6,-525.78"/>
</a>
</g>
<text xml:space="preserve" text-anchor="start" x="520.25" y="-657.91" font-family="Helvetica,sans-Serif" font-size="10.00" fill="grey">&lt; const RegionNodeT</text>
<text xml:space="preserve" text-anchor="start" x="520.25" y="-642.66" font-family="Helvetica,sans-Serif" font-size="10.00" fill="grey">   *, df_iterator_default</text>
<text xml:space="preserve" text-anchor="start" x="520.25" y="-627.41" font-family="Helvetica,sans-Serif" font-size="10.00" fill="grey">  _set&lt; const RegionNodeT</text>
<text xml:space="preserve" text-anchor="start" x="520.25" y="-612.16" font-family="Helvetica,sans-Serif" font-size="10.00" fill="grey">   * &gt;, false, GraphTraits</text>
<text xml:space="preserve" text-anchor="start" x="520.25" y="-596.91" font-family="Helvetica,sans-Serif" font-size="10.00" fill="grey">  &lt; const RegionNodeT * &gt; &gt;</text>
</g>
<!-- Node11&#45;&gt;Node8 -->
<g id="edge20_Node000011_Node000008" class="edge">
<title>Node11&#45;&gt;Node8</title>
<g id="a_edge20_Node000011_Node000008"><a xlink:title=" ">
<path fill="none" stroke="orange" stroke-dasharray="5,2" d="M404.14,-534.77C414.21,-581.95 441.73,-680.34 503.75,-734.16 559.74,-782.76 594.36,-755.42 663.5,-782.16 677.94,-787.75 693.15,-794.5 707.36,-801.21"/>
<polygon fill="orange" stroke="orange" points="407.61,-534.27 402.2,-525.17 400.75,-535.66 407.61,-534.27"/>
</a>
</g>
<text xml:space="preserve" text-anchor="start" x="527.38" y="-833.91" font-family="Helvetica,sans-Serif" font-size="10.00" fill="grey">&lt; NodeRef, df_iterator</text>
<text xml:space="preserve" text-anchor="start" x="527.38" y="-818.66" font-family="Helvetica,sans-Serif" font-size="10.00" fill="grey">  _default_set&lt; NodeRef</text>
<text xml:space="preserve" text-anchor="start" x="527.38" y="-803.41" font-family="Helvetica,sans-Serif" font-size="10.00" fill="grey">   &gt;, false, GraphTraits</text>
<text xml:space="preserve" text-anchor="start" x="527.38" y="-788.16" font-family="Helvetica,sans-Serif" font-size="10.00" fill="grey">  &lt; FlatIt&lt; NodeRef &gt; &gt; &gt;</text>
</g>
<!-- Node11&#45;&gt;Node9 -->
<g id="edge21_Node000011_Node000009" class="edge">
<title>Node11&#45;&gt;Node9</title>
<g id="a_edge21_Node000011_Node000009"><a xlink:title=" ">
<path fill="none" stroke="orange" stroke-dasharray="5,2" d="M466.73,-489.72C478.99,-486.75 491.71,-483.92 503.75,-481.66 574.06,-468.51 592.6,-471.58 663.5,-462.16 677.13,-460.35 691.74,-458.32 705.59,-456.34"/>
<polygon fill="orange" stroke="orange" points="465.97,-486.3 457.1,-492.11 467.65,-493.1 465.97,-486.3"/>
</a>
</g>
<text xml:space="preserve" text-anchor="start" x="525.5" y="-502.91" font-family="Helvetica,sans-Serif" font-size="10.00" fill="grey">&lt; Node *, df_iterator</text>
<text xml:space="preserve" text-anchor="start" x="525.5" y="-487.66" font-family="Helvetica,sans-Serif" font-size="10.00" fill="grey">  _default_set&lt; Node * &gt; &gt;</text>
</g>
<!-- Node11&#45;&gt;Node10 -->
<g id="edge22_Node000011_Node000010" class="edge">
<title>Node11&#45;&gt;Node10</title>
<g id="a_edge22_Node000011_Node000010"><a xlink:title=" ">
<path fill="none" stroke="orange" stroke-dasharray="5,2" d="M409.28,-534.14C424.38,-569.83 456.34,-633.66 503.75,-669.16 563.07,-713.58 593.78,-691.82 663.5,-716.91 670.36,-719.38 704.21,-733.79 731.56,-745.5"/>
<polygon fill="orange" stroke="orange" points="412.57,-532.94 405.54,-525.01 406.09,-535.59 412.57,-532.94"/>
</a>
</g>
<text xml:space="preserve" text-anchor="start" x="555.12" y="-722.91" font-family="Helvetica,sans-Serif" font-size="10.00" fill="grey">&lt; NodeRef &gt;</text>
</g>
<!-- Node12 -->
<g id="Node000012" class="node">
<title>Node12</title>
<g id="a_Node000012"><a xlink:href="structllvm_1_1df__ext__iterator.html" target="_top" xlink:title=" ">
<polygon fill="white" stroke="#666666" points="820.12,-572.41 717.88,-572.41 717.88,-541.91 820.12,-541.91 820.12,-572.41"/>
<text xml:space="preserve" text-anchor="start" x="725.88" y="-558.91" font-family="Helvetica,sans-Serif" font-size="10.00">llvm::df_ext_iterator</text>
<text xml:space="preserve" text-anchor="middle" x="769" y="-547.66" font-family="Helvetica,sans-Serif" font-size="10.00">&lt; T, SetTy &gt;</text>
</a>
</g>
</g>
<!-- Node11&#45;&gt;Node12 -->
<g id="edge13_Node000011_Node000012" class="edge">
<title>Node11&#45;&gt;Node12</title>
<g id="a_edge13_Node000011_Node000012"><a xlink:title=" ">
<path fill="none" stroke="#63b8ff" d="M469.23,-526.37C480.71,-528.94 492.52,-531.32 503.75,-533.16 577.62,-545.29 664.18,-551.69 717.56,-554.75"/>
<polygon fill="#63b8ff" stroke="#63b8ff" points="470.36,-523.04 459.83,-524.21 468.79,-529.86 470.36,-523.04"/>
</a>
</g>
</g>
<!-- Node13 -->
<g id="Node000013" class="node">
<title>Node13</title>
<g id="a_Node000013"><a xlink:href="structllvm_1_1idf__iterator.html" target="_top" xlink:title=" ">
<polygon fill="white" stroke="#666666" points="824.62,-521.41 713.38,-521.41 713.38,-490.91 824.62,-490.91 824.62,-521.41"/>
<text xml:space="preserve" text-anchor="start" x="721.38" y="-507.91" font-family="Helvetica,sans-Serif" font-size="10.00">llvm::idf_iterator</text>
<text xml:space="preserve" text-anchor="middle" x="769" y="-496.66" font-family="Helvetica,sans-Serif" font-size="10.00">&lt; T, SetTy, External &gt;</text>
</a>
</g>
</g>
<!-- Node11&#45;&gt;Node13 -->
<g id="edge14_Node000011_Node000013" class="edge">
<title>Node11&#45;&gt;Node13</title>
<g id="a_edge14_Node000011_Node000013"><a xlink:title=" ">
<path fill="none" stroke="#63b8ff" d="M497.51,-517.84C499.61,-517.96 501.69,-518.06 503.75,-518.16 574.67,-521.55 592.62,-522.22 663.5,-518.16 679.64,-517.24 697.1,-515.52 713.05,-513.67"/>
<polygon fill="#63b8ff" stroke="#63b8ff" points="497.88,-514.35 487.67,-517.21 497.43,-521.34 497.88,-514.35"/>
</a>
</g>
</g>
<!-- Node16 -->
<g id="Node000016" class="node">
<title>Node16</title>
<g id="a_Node000016"><a xlink:href="classllvm_1_1df__iterator.html" target="_top" xlink:title=" ">
<polygon fill="white" stroke="#666666" points="839.25,-77.66 698.75,-77.66 698.75,-24.66 839.25,-24.66 839.25,-77.66"/>
<text xml:space="preserve" text-anchor="start" x="706.75" y="-64.16" font-family="Helvetica,sans-Serif" font-size="10.00">llvm::df_iterator&lt;</text>
<text xml:space="preserve" text-anchor="start" x="706.75" y="-52.91" font-family="Helvetica,sans-Serif" font-size="10.00"> T, df_iterator_default</text>
<text xml:space="preserve" text-anchor="start" x="706.75" y="-41.66" font-family="Helvetica,sans-Serif" font-size="10.00">_set&lt; typename GraphTraits</text>
<text xml:space="preserve" text-anchor="middle" x="769" y="-30.41" font-family="Helvetica,sans-Serif" font-size="10.00">&lt; T &gt;::NodeRef &gt;, true &gt;</text>
</a>
</g>
</g>
<!-- Node11&#45;&gt;Node16 -->
<g id="edge23_Node000011_Node000016" class="edge">
<title>Node11&#45;&gt;Node16</title>
<g id="a_edge23_Node000011_Node000016"><a xlink:title=" ">
<path fill="none" stroke="orange" stroke-dasharray="5,2" d="M407.13,-481.72C423.12,-427.52 460.07,-299.78 485.75,-191.16 495.11,-151.57 474.84,-130.04 503.75,-101.41 554.44,-51.23 638.72,-43.04 698.46,-44.6"/>
<polygon fill="orange" stroke="orange" points="403.87,-480.4 404.38,-490.98 410.58,-482.38 403.87,-480.4"/>
</a>
</g>
<text xml:space="preserve" text-anchor="start" x="518.38" y="-137.91" font-family="Helvetica,sans-Serif" font-size="10.00" fill="grey">&lt; T, df_iterator_default</text>
<text xml:space="preserve" text-anchor="start" x="518.38" y="-122.66" font-family="Helvetica,sans-Serif" font-size="10.00" fill="grey">  _set&lt; typename GraphTraits</text>
<text xml:space="preserve" text-anchor="start" x="518.38" y="-107.41" font-family="Helvetica,sans-Serif" font-size="10.00" fill="grey">  &lt; T &gt;::NodeRef &gt;, true &gt;</text>
</g>
<!-- Node17 -->
<g id="Node000017" class="node">
<title>Node17</title>
<g id="a_Node000017"><a xlink:href="classllvm_1_1df__iterator.html" target="_top" xlink:title=" ">
<polygon fill="white" stroke="#666666" points="856.5,-202.66 681.5,-202.66 681.5,-149.66 856.5,-149.66 856.5,-202.66"/>
<text xml:space="preserve" text-anchor="start" x="689.5" y="-189.16" font-family="Helvetica,sans-Serif" font-size="10.00">llvm::df_iterator&lt;</text>
<text xml:space="preserve" text-anchor="start" x="689.5" y="-177.91" font-family="Helvetica,sans-Serif" font-size="10.00"> Inverse&lt; T &gt;, df_iterator</text>
<text xml:space="preserve" text-anchor="start" x="689.5" y="-166.66" font-family="Helvetica,sans-Serif" font-size="10.00">_default_set&lt; typename GraphTraits</text>
<text xml:space="preserve" text-anchor="middle" x="769" y="-155.41" font-family="Helvetica,sans-Serif" font-size="10.00">&lt; T &gt;::NodeRef &gt;, External &gt;</text>
</a>
</g>
</g>
<!-- Node11&#45;&gt;Node17 -->
<g id="edge24_Node000011_Node000017" class="edge">
<title>Node11&#45;&gt;Node17</title>
<g id="a_edge24_Node000011_Node000017"><a xlink:title=" ">
<path fill="none" stroke="orange" stroke-dasharray="5,2" d="M398.69,-481.46C398.99,-418.34 409.56,-259.81 503.75,-188.16 553.46,-150.35 624.93,-149.33 681.01,-156.68"/>
<polygon fill="orange" stroke="orange" points="395.19,-481.27 398.74,-491.25 402.19,-481.23 395.19,-481.27"/>
</a>
</g>
<text xml:space="preserve" text-anchor="start" x="516.12" y="-239.91" font-family="Helvetica,sans-Serif" font-size="10.00" fill="grey">&lt; Inverse&lt; T &gt;, df</text>
<text xml:space="preserve" text-anchor="start" x="516.12" y="-224.66" font-family="Helvetica,sans-Serif" font-size="10.00" fill="grey">  _iterator_default_set</text>
<text xml:space="preserve" text-anchor="start" x="516.12" y="-209.41" font-family="Helvetica,sans-Serif" font-size="10.00" fill="grey">  &lt; typename GraphTraits</text>
<text xml:space="preserve" text-anchor="start" x="516.12" y="-194.16" font-family="Helvetica,sans-Serif" font-size="10.00" fill="grey">  &lt; T &gt;::NodeRef &gt;, External &gt;</text>
</g>
<!-- Node18 -->
<g id="Node000018" class="node">
<title>Node18</title>
<g id="a_Node000018"><a xlink:href="classllvm_1_1df__iterator.html" target="_top" xlink:title=" ">
<polygon fill="white" stroke="#666666" points="856.5,-293.66 681.5,-293.66 681.5,-240.66 856.5,-240.66 856.5,-293.66"/>
<text xml:space="preserve" text-anchor="start" x="689.5" y="-280.16" font-family="Helvetica,sans-Serif" font-size="10.00">llvm::df_iterator&lt;</text>
<text xml:space="preserve" text-anchor="start" x="689.5" y="-268.91" font-family="Helvetica,sans-Serif" font-size="10.00"> Inverse&lt; T &gt;, df_iterator</text>
<text xml:space="preserve" text-anchor="start" x="689.5" y="-257.66" font-family="Helvetica,sans-Serif" font-size="10.00">_default_set&lt; typename GraphTraits</text>
<text xml:space="preserve" text-anchor="middle" x="769" y="-246.41" font-family="Helvetica,sans-Serif" font-size="10.00">&lt; T &gt;::NodeRef &gt;, false &gt;</text>
</a>
</g>
</g>
<!-- Node11&#45;&gt;Node18 -->
<g id="edge26_Node000011_Node000018" class="edge">
<title>Node11&#45;&gt;Node18</title>
<g id="a_edge26_Node000011_Node000018"><a xlink:title=" ">
<path fill="none" stroke="orange" stroke-dasharray="5,2" d="M403.73,-481.42C413.11,-434.72 439.49,-339 503.75,-294.16 554.9,-258.47 625.76,-252.96 681.23,-255.7"/>
<polygon fill="orange" stroke="orange" points="400.35,-480.48 401.94,-490.95 407.23,-481.77 400.35,-480.48"/>
</a>
</g>
<text xml:space="preserve" text-anchor="start" x="523.62" y="-345.91" font-family="Helvetica,sans-Serif" font-size="10.00" fill="grey">&lt; Inverse&lt; T &gt;, df</text>
<text xml:space="preserve" text-anchor="start" x="523.62" y="-330.66" font-family="Helvetica,sans-Serif" font-size="10.00" fill="grey">  _iterator_default_set</text>
<text xml:space="preserve" text-anchor="start" x="523.62" y="-315.41" font-family="Helvetica,sans-Serif" font-size="10.00" fill="grey">  &lt; typename GraphTraits</text>
<text xml:space="preserve" text-anchor="start" x="523.62" y="-300.16" font-family="Helvetica,sans-Serif" font-size="10.00" fill="grey">  &lt; T &gt;::NodeRef &gt;, false &gt;</text>
</g>
<!-- Node14 -->
<g id="Node000014" class="node">
<title>Node14</title>
<g id="a_Node000014"><a xlink:href="structllvm_1_1idf__ext__iterator.html" target="_top" xlink:title=" ">
<polygon fill="white" stroke="#666666" points="1151.5,-521.41 1047,-521.41 1047,-490.91 1151.5,-490.91 1151.5,-521.41"/>
<text xml:space="preserve" text-anchor="start" x="1055" y="-507.91" font-family="Helvetica,sans-Serif" font-size="10.00">llvm::idf_ext_iterator</text>
<text xml:space="preserve" text-anchor="middle" x="1099.25" y="-496.66" font-family="Helvetica,sans-Serif" font-size="10.00">&lt; T, SetTy &gt;</text>
</a>
</g>
</g>
<!-- Node13&#45;&gt;Node14 -->
<g id="edge15_Node000013_Node000014" class="edge">
<title>Node13&#45;&gt;Node14</title>
<g id="a_edge15_Node000013_Node000014"><a xlink:title=" ">
<path fill="none" stroke="#63b8ff" d="M836.17,-506.16C898.25,-506.16 989.81,-506.16 1046.65,-506.16"/>
<polygon fill="#63b8ff" stroke="#63b8ff" points="836.46,-502.66 826.46,-506.16 836.46,-509.66 836.46,-502.66"/>
</a>
</g>
</g>
<!-- Node15 -->
<g id="Node000015" class="node">
<title>Node15</title>
<g id="a_Node000015"><a xlink:href="structllvm_1_1idf__iterator.html" target="_top" xlink:title=" ">
<polygon fill="white" stroke="#666666" points="1169.5,-336.66 1029,-336.66 1029,-283.66 1169.5,-283.66 1169.5,-336.66"/>
<text xml:space="preserve" text-anchor="start" x="1037" y="-323.16" font-family="Helvetica,sans-Serif" font-size="10.00">llvm::idf_iterator</text>
<text xml:space="preserve" text-anchor="start" x="1037" y="-311.91" font-family="Helvetica,sans-Serif" font-size="10.00">&lt; T, df_iterator_default</text>
<text xml:space="preserve" text-anchor="start" x="1037" y="-300.66" font-family="Helvetica,sans-Serif" font-size="10.00">_set&lt; typename GraphTraits</text>
<text xml:space="preserve" text-anchor="middle" x="1099.25" y="-289.41" font-family="Helvetica,sans-Serif" font-size="10.00">&lt; T &gt;::NodeRef &gt;, true &gt;</text>
</a>
</g>
</g>
<!-- Node13&#45;&gt;Node15 -->
<g id="edge16_Node000013_Node000015" class="edge">
<title>Node13&#45;&gt;Node15</title>
<g id="a_edge16_Node000013_Node000015"><a xlink:title=" ">
<path fill="none" stroke="orange" stroke-dasharray="5,2" d="M835.47,-488.82C842.88,-485.54 850.07,-481.68 856.5,-477.16 867.05,-469.75 864.95,-463.08 874.5,-454.41 927.72,-406.11 998.84,-363.26 1046.48,-337.07"/>
<polygon fill="orange" stroke="orange" points="834.27,-485.53 826.31,-492.52 836.89,-492.02 834.27,-485.53"/>
</a>
</g>
<text xml:space="preserve" text-anchor="start" x="877.5" y="-490.91" font-family="Helvetica,sans-Serif" font-size="10.00" fill="grey">&lt; T, df_iterator_default</text>
<text xml:space="preserve" text-anchor="start" x="877.5" y="-475.66" font-family="Helvetica,sans-Serif" font-size="10.00" fill="grey">  _set&lt; typename GraphTraits</text>
<text xml:space="preserve" text-anchor="start" x="877.5" y="-460.41" font-family="Helvetica,sans-Serif" font-size="10.00" fill="grey">  &lt; T &gt;::NodeRef &gt;, true &gt;</text>
</g>
<!-- Node17&#45;&gt;Node15 -->
<g id="edge25_Node000017_Node000015" class="edge">
<title>Node17&#45;&gt;Node15</title>
<g id="a_edge25_Node000017_Node000015"><a xlink:title=" ">
<path fill="none" stroke="#63b8ff" d="M846.67,-207.46C902.98,-230.45 978.71,-261.36 1032.32,-283.25"/>
<polygon fill="#63b8ff" stroke="#63b8ff" points="848.01,-204.23 837.43,-203.69 845.37,-210.71 848.01,-204.23"/>
</a>
</g>
</g>
<!-- Node19&#45;&gt;Node16 -->
<g id="edge28_Node000019_Node000016" class="edge">
<title>Node19&#45;&gt;Node16</title>
<g id="a_edge28_Node000019_Node000016"><a xlink:title=" ">
<path fill="none" stroke="#63b8ff" d="M478.82,-127.1C481.3,-124.95 483.63,-122.64 485.75,-120.16 508.6,-93.46 476.22,-65 503.75,-43.16 558.05,-0.09 640.23,-10.62 698.51,-26.49"/>
<polygon fill="#63b8ff" stroke="#63b8ff" points="476.98,-124.1 471.05,-132.88 481.16,-129.71 476.98,-124.1"/>
</a>
</g>
</g>
<!-- Node19&#45;&gt;Node17 -->
<g id="edge29_Node000019_Node000017" class="edge">
<title>Node19&#45;&gt;Node17</title>
<g id="a_edge29_Node000019_Node000017"><a xlink:title=" ">
<path fill="none" stroke="#63b8ff" d="M478.79,-126.77C481.26,-124.71 483.6,-122.52 485.75,-120.16 504.26,-99.94 481.72,-77.48 503.75,-61.16 532.28,-40.04 632.05,-44.69 663.5,-61.16 675.95,-67.69 672.57,-76.31 681.5,-87.16 699.57,-109.13 722,-132.1 739.49,-149.21"/>
<polygon fill="#63b8ff" stroke="#63b8ff" points="477.17,-123.62 471.12,-132.31 481.28,-129.29 477.17,-123.62"/>
</a>
</g>
</g>
<!-- Node19&#45;&gt;Node18 -->
<g id="edge30_Node000019_Node000018" class="edge">
<title>Node19&#45;&gt;Node18</title>
<g id="a_edge30_Node000019_Node000018"><a xlink:title=" ">
<path fill="none" stroke="#63b8ff" d="M481.39,-145.64C548.06,-139.72 635.44,-136.66 663.5,-157.16 684.27,-172.34 665.72,-191.85 681.5,-212.16 690.01,-223.13 701.37,-232.51 713.05,-240.27"/>
<polygon fill="#63b8ff" stroke="#63b8ff" points="481.18,-142.14 471.55,-146.55 481.83,-149.11 481.18,-142.14"/>
</a>
</g>
</g>
</g>
</svg>
