<?xml version="1.0" encoding="UTF-8" standalone="no"?>
<!DOCTYPE svg PUBLIC "-//W3C//DTD SVG 1.1//EN"
 "http://www.w3.org/Graphics/SVG/1.1/DTD/svg11.dtd">
<!-- Generated by graphviz version 14.1.3 (20260303.0454)
 -->
<!-- Title: llvm::object::SymbolicFile Pages: 1 -->
<svg width="1055pt" height="291pt"
 viewBox="0.00 0.00 1055.00 291.00" xmlns="http://www.w3.org/2000/svg" xmlns:xlink="http://www.w3.org/1999/xlink">
<g id="graph0" class="graph" transform="scale(1 1) rotate(0) translate(4 286.88)">
<title>llvm::object::SymbolicFile</title>
<!-- Node1 -->
<g id="Node000001" class="node">
<title>Node1</title>
<g id="a_Node000001"><a xlink:title=" ">
<polygon fill="#999999" stroke="#666666" points="265.5,-154.25 137,-154.25 137,-135 265.5,-135 265.5,-154.25"/>
<text xml:space="preserve" text-anchor="middle" x="201.25" y="-140.75" font-family="Helvetica,sans-Serif" font-size="10.00">llvm::object::SymbolicFile</text>
</a>
</g>
</g>
<!-- Node3 -->
<g id="Node000003" class="node">
<title>Node3</title>
<g id="a_Node000003"><a xlink:href="classllvm_1_1object_1_1COFFImportFile.html" target="_top" xlink:title=" ">
<polygon fill="white" stroke="#666666" points="445.25,-204.25 302.5,-204.25 302.5,-185 445.25,-185 445.25,-204.25"/>
<text xml:space="preserve" text-anchor="middle" x="373.88" y="-190.75" font-family="Helvetica,sans-Serif" font-size="10.00">llvm::object::COFFImportFile</text>
</a>
</g>
</g>
<!-- Node1&#45;&gt;Node3 -->
<g id="edge2_Node000001_Node000003" class="edge">
<title>Node1&#45;&gt;Node3</title>
<g id="a_edge2_Node000001_Node000003"><a xlink:title=" ">
<path fill="none" stroke="#63b8ff" d="M242.75,-158.15C260.94,-164.07 282.72,-170.94 302.5,-176.62 311.95,-179.34 322.18,-182.07 331.83,-184.56"/>
<polygon fill="#63b8ff" stroke="#63b8ff" points="243.97,-154.86 233.38,-155.08 241.79,-161.52 243.97,-154.86"/>
</a>
</g>
</g>
<!-- Node4 -->
<g id="Node000004" class="node">
<title>Node4</title>
<g id="a_Node000004"><a xlink:href="classllvm_1_1object_1_1IRObjectFile.html" target="_top" xlink:title=" ">
<polygon fill="white" stroke="#666666" points="437.38,-167.25 310.38,-167.25 310.38,-148 437.38,-148 437.38,-167.25"/>
<text xml:space="preserve" text-anchor="middle" x="373.88" y="-153.75" font-family="Helvetica,sans-Serif" font-size="10.00">llvm::object::IRObjectFile</text>
</a>
</g>
</g>
<!-- Node1&#45;&gt;Node4 -->
<g id="edge3_Node000001_Node000004" class="edge">
<title>Node1&#45;&gt;Node4</title>
<g id="a_edge3_Node000001_Node000004"><a xlink:title=" ">
<path fill="none" stroke="#63b8ff" d="M277.14,-150.33C288.16,-151.17 299.41,-152.03 310.14,-152.85"/>
<polygon fill="#63b8ff" stroke="#63b8ff" points="277.53,-146.85 267.29,-149.58 277,-153.83 277.53,-146.85"/>
</a>
</g>
</g>
<!-- Node5 -->
<g id="Node000005" class="node">
<title>Node5</title>
<g id="a_Node000005"><a xlink:href="classllvm_1_1object_1_1ObjectFile.html" target="_top" xlink:title="This class is the base class for all object file types.">
<polygon fill="white" stroke="#666666" points="432.12,-130.25 315.62,-130.25 315.62,-111 432.12,-111 432.12,-130.25"/>
<text xml:space="preserve" text-anchor="middle" x="373.88" y="-116.75" font-family="Helvetica,sans-Serif" font-size="10.00">llvm::object::ObjectFile</text>
</a>
</g>
</g>
<!-- Node1&#45;&gt;Node5 -->
<g id="edge4_Node000001_Node000005" class="edge">
<title>Node1&#45;&gt;Node5</title>
<g id="a_edge4_Node000001_Node000005"><a xlink:title=" ">
<path fill="none" stroke="#63b8ff" d="M276.94,-134.12C289.76,-132.32 302.91,-130.47 315.2,-128.74"/>
<polygon fill="#63b8ff" stroke="#63b8ff" points="276.7,-130.62 267.28,-135.48 277.67,-137.55 276.7,-130.62"/>
</a>
</g>
</g>
<!-- Node18 -->
<g id="Node000018" class="node">
<title>Node18</title>
<g id="a_Node000018"><a xlink:href="classllvm_1_1object_1_1TapiFile.html" target="_top" xlink:title=" ">
<polygon fill="white" stroke="#666666" points="426.88,-93.25 320.88,-93.25 320.88,-74 426.88,-74 426.88,-93.25"/>
<text xml:space="preserve" text-anchor="middle" x="373.88" y="-79.75" font-family="Helvetica,sans-Serif" font-size="10.00">llvm::object::TapiFile</text>
</a>
</g>
</g>
<!-- Node1&#45;&gt;Node18 -->
<g id="edge21_Node000001_Node000018" class="edge">
<title>Node1&#45;&gt;Node18</title>
<g id="a_edge21_Node000001_Node000018"><a xlink:title=" ">
<path fill="none" stroke="#63b8ff" d="M233.43,-129.77C252.98,-120.83 278.86,-109.66 302.5,-101.62 310.98,-98.74 320.17,-96.07 329.02,-93.72"/>
<polygon fill="#63b8ff" stroke="#63b8ff" points="231.98,-126.58 224.38,-133.97 234.92,-132.94 231.98,-126.58"/>
</a>
</g>
</g>
<!-- Node2 -->
<g id="Node000002" class="node">
<title>Node2</title>
<g id="a_Node000002"><a xlink:href="classllvm_1_1object_1_1Binary.html" target="_top" xlink:title=" ">
<polygon fill="white" stroke="#666666" points="100,-154.25 0,-154.25 0,-135 100,-135 100,-154.25"/>
<text xml:space="preserve" text-anchor="middle" x="50" y="-140.75" font-family="Helvetica,sans-Serif" font-size="10.00">llvm::object::Binary</text>
</a>
</g>
</g>
<!-- Node2&#45;&gt;Node1 -->
<g id="edge1_Node000001_Node000002" class="edge">
<title>Node2&#45;&gt;Node1</title>
<g id="a_edge1_Node000001_Node000002"><a xlink:title=" ">
<path fill="none" stroke="#63b8ff" d="M111.7,-144.62C119.92,-144.62 128.38,-144.62 136.65,-144.62"/>
<polygon fill="#63b8ff" stroke="#63b8ff" points="111.8,-141.13 101.8,-144.63 111.8,-148.13 111.8,-141.13"/>
</a>
</g>
</g>
<!-- Node6 -->
<g id="Node000006" class="node">
<title>Node6</title>
<g id="a_Node000006"><a xlink:href="classllvm_1_1object_1_1COFFObjectFile.html" target="_top" xlink:title=" ">
<polygon fill="white" stroke="#666666" points="632.5,-253.25 489,-253.25 489,-234 632.5,-234 632.5,-253.25"/>
<text xml:space="preserve" text-anchor="middle" x="560.75" y="-239.75" font-family="Helvetica,sans-Serif" font-size="10.00">llvm::object::COFFObjectFile</text>
</a>
</g>
</g>
<!-- Node5&#45;&gt;Node6 -->
<g id="edge5_Node000005_Node000006" class="edge">
<title>Node5&#45;&gt;Node6</title>
<g id="a_edge5_Node000005_Node000006"><a xlink:title=" ">
<path fill="none" stroke="#63b8ff" d="M442.28,-136.27C443.3,-137.02 444.29,-137.81 445.25,-138.62 476.87,-165.67 450.49,-197.74 482.25,-224.62 486.48,-228.21 491.28,-231.13 496.37,-233.52"/>
<polygon fill="#63b8ff" stroke="#63b8ff" points="444.13,-133.3 433.75,-131.21 440.56,-139.32 444.13,-133.3"/>
</a>
</g>
</g>
<!-- Node7 -->
<g id="Node000007" class="node">
<title>Node7</title>
<g id="a_Node000007"><a xlink:href="classllvm_1_1object_1_1DXContainerObjectFile.html" target="_top" xlink:title=" ">
<polygon fill="white" stroke="#666666" points="625,-215.88 496.5,-215.88 496.5,-185.38 625,-185.38 625,-215.88"/>
<text xml:space="preserve" text-anchor="start" x="504.5" y="-202.38" font-family="Helvetica,sans-Serif" font-size="10.00">llvm::object::DXContainer</text>
<text xml:space="preserve" text-anchor="middle" x="560.75" y="-191.12" font-family="Helvetica,sans-Serif" font-size="10.00">ObjectFile</text>
</a>
</g>
</g>
<!-- Node5&#45;&gt;Node7 -->
<g id="edge6_Node000005_Node000007" class="edge">
<title>Node5&#45;&gt;Node7</title>
<g id="a_edge6_Node000005_Node000007"><a xlink:title=" ">
<path fill="none" stroke="#63b8ff" d="M438.08,-134.91C440.55,-136.06 442.95,-137.29 445.25,-138.62 465.65,-150.43 462.15,-164.31 482.25,-176.62 487.41,-179.79 493.03,-182.57 498.8,-185"/>
<polygon fill="#63b8ff" stroke="#63b8ff" points="439.63,-131.76 429.05,-131.27 437.01,-138.26 439.63,-131.76"/>
</a>
</g>
</g>
<!-- Node8 -->
<g id="Node000008" class="node">
<title>Node8</title>
<g id="a_Node000008"><a xlink:href="classllvm_1_1object_1_1ELFObjectFileBase.html" target="_top" xlink:title=" ">
<polygon fill="white" stroke="#666666" points="639.25,-167.25 482.25,-167.25 482.25,-148 639.25,-148 639.25,-167.25"/>
<text xml:space="preserve" text-anchor="middle" x="560.75" y="-153.75" font-family="Helvetica,sans-Serif" font-size="10.00">llvm::object::ELFObjectFileBase</text>
</a>
</g>
</g>
<!-- Node5&#45;&gt;Node8 -->
<g id="edge7_Node000005_Node000008" class="edge">
<title>Node5&#45;&gt;Node8</title>
<g id="a_edge7_Node000005_Node000008"><a xlink:title=" ">
<path fill="none" stroke="#63b8ff" d="M436.38,-132.93C460.05,-137.67 486.78,-143.02 509.29,-147.53"/>
<polygon fill="#63b8ff" stroke="#63b8ff" points="437.37,-129.56 426.88,-131.03 436,-136.43 437.37,-129.56"/>
</a>
</g>
</g>
<!-- Node14 -->
<g id="Node000014" class="node">
<title>Node14</title>
<g id="a_Node000014"><a xlink:href="classllvm_1_1object_1_1GOFFObjectFile.html" target="_top" xlink:title=" ">
<polygon fill="white" stroke="#666666" points="632.5,-130.25 489,-130.25 489,-111 632.5,-111 632.5,-130.25"/>
<text xml:space="preserve" text-anchor="middle" x="560.75" y="-116.75" font-family="Helvetica,sans-Serif" font-size="10.00">llvm::object::GOFFObjectFile</text>
</a>
</g>
</g>
<!-- Node5&#45;&gt;Node14 -->
<g id="edge17_Node000005_Node000014" class="edge">
<title>Node5&#45;&gt;Node14</title>
<g id="a_edge17_Node000005_Node000014"><a xlink:title=" ">
<path fill="none" stroke="#63b8ff" d="M444.11,-120.62C458.71,-120.62 474.14,-120.62 488.8,-120.62"/>
<polygon fill="#63b8ff" stroke="#63b8ff" points="444.12,-117.13 434.12,-120.63 444.12,-124.13 444.12,-117.13"/>
</a>
</g>
</g>
<!-- Node15 -->
<g id="Node000015" class="node">
<title>Node15</title>
<g id="a_Node000015"><a xlink:href="classllvm_1_1object_1_1MachOObjectFile.html" target="_top" xlink:title=" ">
<polygon fill="white" stroke="#666666" points="634.75,-93.25 486.75,-93.25 486.75,-74 634.75,-74 634.75,-93.25"/>
<text xml:space="preserve" text-anchor="middle" x="560.75" y="-79.75" font-family="Helvetica,sans-Serif" font-size="10.00">llvm::object::MachOObjectFile</text>
</a>
</g>
</g>
<!-- Node5&#45;&gt;Node15 -->
<g id="edge18_Node000005_Node000015" class="edge">
<title>Node5&#45;&gt;Node15</title>
<g id="a_edge18_Node000005_Node000015"><a xlink:title=" ">
<path fill="none" stroke="#63b8ff" d="M436.38,-108.32C460.05,-103.58 486.78,-98.23 509.29,-93.72"/>
<polygon fill="#63b8ff" stroke="#63b8ff" points="436,-104.82 426.88,-110.22 437.37,-111.69 436,-104.82"/>
</a>
</g>
</g>
<!-- Node16 -->
<g id="Node000016" class="node">
<title>Node16</title>
<g id="a_Node000016"><a xlink:href="classllvm_1_1object_1_1WasmObjectFile.html" target="_top" xlink:title=" ">
<polygon fill="white" stroke="#666666" points="632.88,-56.25 488.62,-56.25 488.62,-37 632.88,-37 632.88,-56.25"/>
<text xml:space="preserve" text-anchor="middle" x="560.75" y="-42.75" font-family="Helvetica,sans-Serif" font-size="10.00">llvm::object::WasmObjectFile</text>
</a>
</g>
</g>
<!-- Node5&#45;&gt;Node16 -->
<g id="edge19_Node000005_Node000016" class="edge">
<title>Node5&#45;&gt;Node16</title>
<g id="a_edge19_Node000005_Node000016"><a xlink:title=" ">
<path fill="none" stroke="#63b8ff" d="M438.08,-106.34C440.55,-105.19 442.95,-103.96 445.25,-102.62 465.65,-90.82 461.72,-76.2 482.25,-64.62 487.9,-61.44 494.1,-58.81 500.43,-56.65"/>
<polygon fill="#63b8ff" stroke="#63b8ff" points="437.01,-102.99 429.05,-109.98 439.63,-109.49 437.01,-102.99"/>
</a>
</g>
</g>
<!-- Node17 -->
<g id="Node000017" class="node">
<title>Node17</title>
<g id="a_Node000017"><a xlink:href="classllvm_1_1object_1_1XCOFFObjectFile.html" target="_top" xlink:title=" ">
<polygon fill="white" stroke="#666666" points="635.88,-19.25 485.62,-19.25 485.62,0 635.88,0 635.88,-19.25"/>
<text xml:space="preserve" text-anchor="middle" x="560.75" y="-5.75" font-family="Helvetica,sans-Serif" font-size="10.00">llvm::object::XCOFFObjectFile</text>
</a>
</g>
</g>
<!-- Node5&#45;&gt;Node17 -->
<g id="edge20_Node000005_Node000017" class="edge">
<title>Node5&#45;&gt;Node17</title>
<g id="a_edge20_Node000005_Node000017"><a xlink:title=" ">
<path fill="none" stroke="#63b8ff" d="M442.22,-104.91C443.26,-104.18 444.27,-103.42 445.25,-102.62 474.12,-79.21 453.12,-50.72 482.25,-27.62 486.25,-24.45 490.72,-21.82 495.43,-19.63"/>
<polygon fill="#63b8ff" stroke="#63b8ff" points="440.53,-101.84 433.58,-109.84 444,-107.92 440.53,-101.84"/>
</a>
</g>
</g>
<!-- Node9 -->
<g id="Node000009" class="node">
<title>Node9</title>
<g id="a_Node000009"><a xlink:href="classllvm_1_1object_1_1ELFObjectFile.html" target="_top" xlink:title=" ">
<polygon fill="white" stroke="#666666" points="1047.25,-203.88 912.75,-203.88 912.75,-173.38 1047.25,-173.38 1047.25,-203.88"/>
<text xml:space="preserve" text-anchor="start" x="920.75" y="-190.38" font-family="Helvetica,sans-Serif" font-size="10.00">llvm::object::ELFObjectFile</text>
<text xml:space="preserve" text-anchor="middle" x="980" y="-179.12" font-family="Helvetica,sans-Serif" font-size="10.00">&lt; ELF32LE &gt;</text>
</a>
</g>
</g>
<!-- Node8&#45;&gt;Node9 -->
<g id="edge8_Node000008_Node000009" class="edge">
<title>Node8&#45;&gt;Node9</title>
<g id="a_edge8_Node000008_Node000009"><a xlink:title=" ">
<path fill="none" stroke="#63b8ff" d="M615.89,-170.45C623.75,-172.44 631.72,-174.53 639.25,-176.62 724.24,-200.25 741.54,-222.36 828.75,-235.62 857.75,-240.04 866.36,-243.01 894.75,-235.62 918.09,-229.55 941.83,-215.44 958.14,-204.26"/>
<polygon fill="#63b8ff" stroke="#63b8ff" points="616.93,-167.1 606.38,-168.08 615.24,-173.89 616.93,-167.1"/>
</a>
</g>
</g>
<!-- Node10 -->
<g id="Node000010" class="node">
<title>Node10</title>
<g id="a_Node000010"><a xlink:href="classllvm_1_1object_1_1ELFObjectFile.html" target="_top" xlink:title=" ">
<polygon fill="white" stroke="#666666" points="1047.25,-282.88 912.75,-282.88 912.75,-252.38 1047.25,-252.38 1047.25,-282.88"/>
<text xml:space="preserve" text-anchor="start" x="920.75" y="-269.38" font-family="Helvetica,sans-Serif" font-size="10.00">llvm::object::ELFObjectFile</text>
<text xml:space="preserve" text-anchor="middle" x="980" y="-258.12" font-family="Helvetica,sans-Serif" font-size="10.00">&lt; ELF64LE &gt;</text>
</a>
</g>
</g>
<!-- Node8&#45;&gt;Node10 -->
<g id="edge9_Node000008_Node000010" class="edge">
<title>Node8&#45;&gt;Node10</title>
<g id="a_edge9_Node000008_Node000010"><a xlink:title=" ">
<path fill="none" stroke="#63b8ff" d="M631.61,-172.25C634.25,-173.58 636.81,-175.04 639.25,-176.62 661.82,-191.32 653.21,-210.67 676.25,-224.62 748.33,-268.29 847.44,-274.34 912.33,-272.63"/>
<polygon fill="#63b8ff" stroke="#63b8ff" points="633.02,-169.05 622.45,-168.29 630.24,-175.47 633.02,-169.05"/>
</a>
</g>
</g>
<!-- Node11 -->
<g id="Node000011" class="node">
<title>Node11</title>
<g id="a_Node000011"><a xlink:href="classllvm_1_1object_1_1ELFObjectFile.html" target="_top" xlink:title=" ">
<polygon fill="white" stroke="#666666" points="1047.25,-66.88 912.75,-66.88 912.75,-36.38 1047.25,-36.38 1047.25,-66.88"/>
<text xml:space="preserve" text-anchor="start" x="920.75" y="-53.38" font-family="Helvetica,sans-Serif" font-size="10.00">llvm::object::ELFObjectFile</text>
<text xml:space="preserve" text-anchor="middle" x="980" y="-42.12" font-family="Helvetica,sans-Serif" font-size="10.00">&lt; ELF32BE &gt;</text>
</a>
</g>
</g>
<!-- Node8&#45;&gt;Node11 -->
<g id="edge10_Node000008_Node000011" class="edge">
<title>Node8&#45;&gt;Node11</title>
<g id="a_edge10_Node000008_Node000011"><a xlink:title=" ">
<path fill="none" stroke="#63b8ff" d="M635.6,-142.15C636.85,-141.35 638.07,-140.51 639.25,-139.62 665.9,-119.75 648.17,-92.41 676.25,-74.62 747.17,-29.71 847.01,-31.78 912.35,-39.75"/>
<polygon fill="#63b8ff" stroke="#63b8ff" points="634,-139.03 626.82,-146.81 637.29,-145.21 634,-139.03"/>
</a>
</g>
</g>
<!-- Node12 -->
<g id="Node000012" class="node">
<title>Node12</title>
<g id="a_Node000012"><a xlink:href="classllvm_1_1object_1_1ELFObjectFile.html" target="_top" xlink:title=" ">
<polygon fill="white" stroke="#666666" points="1047.25,-141.88 912.75,-141.88 912.75,-111.38 1047.25,-111.38 1047.25,-141.88"/>
<text xml:space="preserve" text-anchor="start" x="920.75" y="-128.38" font-family="Helvetica,sans-Serif" font-size="10.00">llvm::object::ELFObjectFile</text>
<text xml:space="preserve" text-anchor="middle" x="980" y="-117.12" font-family="Helvetica,sans-Serif" font-size="10.00">&lt; ELF64BE &gt;</text>
</a>
</g>
</g>
<!-- Node8&#45;&gt;Node12 -->
<g id="edge11_Node000008_Node000012" class="edge">
<title>Node8&#45;&gt;Node12</title>
<g id="a_edge11_Node000008_Node000012"><a xlink:title=" ">
<path fill="none" stroke="#63b8ff" d="M618.34,-144.89C625.4,-143.18 632.5,-141.4 639.25,-139.62 751.66,-109.99 781.72,-56.45 894.75,-83.62 916.78,-88.92 939.54,-101 955.85,-111.02"/>
<polygon fill="#63b8ff" stroke="#63b8ff" points="617.74,-141.44 608.82,-147.16 619.36,-148.25 617.74,-141.44"/>
</a>
</g>
</g>
<!-- Node13 -->
<g id="Node000013" class="node">
<title>Node13</title>
<g id="a_Node000013"><a xlink:href="classllvm_1_1object_1_1ELFObjectFile.html" target="_top" xlink:title=" ">
<polygon fill="white" stroke="#666666" points="810.75,-172.88 676.25,-172.88 676.25,-142.38 810.75,-142.38 810.75,-172.88"/>
<text xml:space="preserve" text-anchor="start" x="684.25" y="-159.38" font-family="Helvetica,sans-Serif" font-size="10.00">llvm::object::ELFObjectFile</text>
<text xml:space="preserve" text-anchor="middle" x="743.5" y="-148.12" font-family="Helvetica,sans-Serif" font-size="10.00">&lt; ELFT &gt;</text>
</a>
</g>
</g>
<!-- Node8&#45;&gt;Node13 -->
<g id="edge12_Node000008_Node000013" class="edge">
<title>Node8&#45;&gt;Node13</title>
<g id="a_edge12_Node000008_Node000013"><a xlink:title=" ">
<path fill="none" stroke="#63b8ff" d="M651.06,-157.62C659.41,-157.62 667.77,-157.62 675.85,-157.62"/>
<polygon fill="#63b8ff" stroke="#63b8ff" points="651.23,-154.13 641.23,-157.63 651.23,-161.13 651.23,-154.13"/>
</a>
</g>
</g>
<!-- Node13&#45;&gt;Node9 -->
<g id="edge13_Node000013_Node000009" class="edge">
<title>Node13&#45;&gt;Node9</title>
<g id="a_edge13_Node000013_Node000009"><a xlink:title=" ">
<path fill="none" stroke="orange" stroke-dasharray="5,2" d="M822.44,-167.93C851.53,-171.77 884.27,-176.1 912.26,-179.8"/>
<polygon fill="orange" stroke="orange" points="822.94,-164.46 812.57,-166.62 822.03,-171.4 822.94,-164.46"/>
</a>
</g>
<text xml:space="preserve" text-anchor="start" x="832.5" y="-182.81" font-family="Helvetica,sans-Serif" font-size="10.00" fill="grey">&lt; ELF32LE &gt;</text>
</g>
<!-- Node13&#45;&gt;Node10 -->
<g id="edge14_Node000013_Node000010" class="edge">
<title>Node13&#45;&gt;Node10</title>
<g id="a_edge14_Node000013_Node000010"><a xlink:title=" ">
<path fill="none" stroke="orange" stroke-dasharray="5,2" d="M787.77,-177.92C833.38,-199.32 904.24,-232.56 945.69,-252"/>
<polygon fill="orange" stroke="orange" points="789.51,-174.87 778.97,-173.79 786.54,-181.21 789.51,-174.87"/>
</a>
</g>
<text xml:space="preserve" text-anchor="start" x="832.5" y="-231.71" font-family="Helvetica,sans-Serif" font-size="10.00" fill="grey">&lt; ELF64LE &gt;</text>
</g>
<!-- Node13&#45;&gt;Node11 -->
<g id="edge15_Node000013_Node000011" class="edge">
<title>Node13&#45;&gt;Node11</title>
<g id="a_edge15_Node000013_Node000011"><a xlink:title=" ">
<path fill="none" stroke="orange" stroke-dasharray="5,2" d="M787.09,-136.94C800.39,-130.57 815.14,-123.6 828.75,-117.38 867.2,-99.78 911.6,-80.48 942.11,-67.36"/>
<polygon fill="orange" stroke="orange" points="785.65,-133.75 778.15,-141.24 788.68,-140.06 785.65,-133.75"/>
</a>
</g>
<text xml:space="preserve" text-anchor="start" x="831.75" y="-123.38" font-family="Helvetica,sans-Serif" font-size="10.00" fill="grey">&lt; ELF32BE &gt;</text>
</g>
<!-- Node13&#45;&gt;Node12 -->
<g id="edge16_Node000013_Node000012" class="edge">
<title>Node13&#45;&gt;Node12</title>
<g id="a_edge16_Node000013_Node000012"><a xlink:title=" ">
<path fill="none" stroke="orange" stroke-dasharray="5,2" d="M822.44,-147.32C851.53,-143.48 884.27,-139.15 912.26,-135.45"/>
<polygon fill="orange" stroke="orange" points="822.03,-143.85 812.57,-148.63 822.94,-150.79 822.03,-143.85"/>
</a>
</g>
<text xml:space="preserve" text-anchor="start" x="831.75" y="-151.81" font-family="Helvetica,sans-Serif" font-size="10.00" fill="grey">&lt; ELF64BE &gt;</text>
</g>
</g>
</svg>
