<?xml version="1.0" encoding="UTF-8" standalone="no"?>
<!DOCTYPE svg PUBLIC "-//W3C//DTD SVG 1.1//EN"
 "http://www.w3.org/Graphics/SVG/1.1/DTD/svg11.dtd">
<!-- Generated by graphviz version 14.1.3 (20260303.0454)
 -->
<!-- Title: llvm::jitlink::ELFJITLinker_ppc64&lt; Endianness &gt; Pages: 1 -->
<svg width="253pt" height="261pt"
 viewBox="0.00 0.00 253.00 261.00" xmlns="http://www.w3.org/2000/svg" xmlns:xlink="http://www.w3.org/1999/xlink">
<g id="graph0" class="graph" transform="scale(1 1) rotate(0) translate(4 257.25)">
<title>llvm::jitlink::ELFJITLinker_ppc64&lt; Endianness &gt;</title>
<!-- Node1 -->
<g id="Node000001" class="node">
<title>Node1</title>
<g id="a_Node000001"><a xlink:title=" ">
<polygon fill="#999999" stroke="#666666" points="160,-30.5 33,-30.5 33,0 160,0 160,-30.5"/>
<text xml:space="preserve" text-anchor="start" x="41" y="-17" font-family="Helvetica,sans-Serif" font-size="10.00">llvm::jitlink::ELFJITLinker</text>
<text xml:space="preserve" text-anchor="middle" x="96.5" y="-5.75" font-family="Helvetica,sans-Serif" font-size="10.00">_ppc64&lt; Endianness &gt;</text>
</a>
</g>
</g>
<!-- Node2 -->
<g id="Node000002" class="node">
<title>Node2</title>
<g id="a_Node000002"><a xlink:href="classllvm_1_1jitlink_1_1JITLinker.html" target="_top" xlink:title=" ">
<polygon fill="white" stroke="#666666" points="193,-98 0,-98 0,-67.5 193,-67.5 193,-98"/>
<text xml:space="preserve" text-anchor="start" x="8" y="-84.5" font-family="Helvetica,sans-Serif" font-size="10.00">llvm::jitlink::JITLinker</text>
<text xml:space="preserve" text-anchor="middle" x="96.5" y="-73.25" font-family="Helvetica,sans-Serif" font-size="10.00">&lt; ELFJITLinker_ppc64&lt; Endianness &gt; &gt;</text>
</a>
</g>
</g>
<!-- Node2&#45;&gt;Node1 -->
<g id="edge1_Node000001_Node000002" class="edge">
<title>Node2&#45;&gt;Node1</title>
<g id="a_edge1_Node000001_Node000002"><a xlink:title=" ">
<path fill="none" stroke="#63b8ff" d="M96.5,-55.84C96.5,-47.3 96.5,-38.12 96.5,-30.75"/>
<polygon fill="#63b8ff" stroke="#63b8ff" points="93,-55.7 96.5,-65.7 100,-55.7 93,-55.7"/>
</a>
</g>
</g>
<!-- Node3 -->
<g id="Node000003" class="node">
<title>Node3</title>
<g id="a_Node000003"><a xlink:href="classllvm_1_1jitlink_1_1JITLinkerBase.html" target="_top" xlink:title="Base class for a JIT linker.">
<polygon fill="white" stroke="#666666" points="158.25,-253.25 26.75,-253.25 26.75,-234 158.25,-234 158.25,-253.25"/>
<text xml:space="preserve" text-anchor="middle" x="92.5" y="-239.75" font-family="Helvetica,sans-Serif" font-size="10.00">llvm::jitlink::JITLinkerBase</text>
</a>
</g>
</g>
<!-- Node3&#45;&gt;Node2 -->
<g id="edge2_Node000002_Node000003" class="edge">
<title>Node3&#45;&gt;Node2</title>
<g id="a_edge2_Node000002_Node000003"><a xlink:title=" ">
<path fill="none" stroke="#63b8ff" d="M93.01,-222.47C93.82,-190 95.41,-126.88 96.13,-98.36"/>
<polygon fill="#63b8ff" stroke="#63b8ff" points="89.52,-222.03 92.76,-232.11 96.52,-222.21 89.52,-222.03"/>
</a>
</g>
</g>
<!-- Node4 -->
<g id="Node000004" class="node">
<title>Node4</title>
<g id="a_Node000004"><a xlink:href="classllvm_1_1jitlink_1_1JITLinker.html" target="_top" xlink:title=" ">
<polygon fill="white" stroke="#666666" points="218,-197 109,-197 109,-166.5 218,-166.5 218,-197"/>
<text xml:space="preserve" text-anchor="start" x="117" y="-183.5" font-family="Helvetica,sans-Serif" font-size="10.00">llvm::jitlink::JITLinker</text>
<text xml:space="preserve" text-anchor="middle" x="163.5" y="-172.25" font-family="Helvetica,sans-Serif" font-size="10.00">&lt; LinkerImpl &gt;</text>
</a>
</g>
</g>
<!-- Node3&#45;&gt;Node4 -->
<g id="edge4_Node000004_Node000003" class="edge">
<title>Node3&#45;&gt;Node4</title>
<g id="a_edge4_Node000004_Node000003"><a xlink:title=" ">
<path fill="none" stroke="#63b8ff" d="M111.94,-226.23C122.67,-217.18 135.89,-206.04 146.25,-197.3"/>
<polygon fill="#63b8ff" stroke="#63b8ff" points="109.83,-223.43 104.44,-232.56 114.34,-228.78 109.83,-223.43"/>
</a>
</g>
</g>
<!-- Node4&#45;&gt;Node2 -->
<g id="edge3_Node000002_Node000004" class="edge">
<title>Node4&#45;&gt;Node2</title>
<g id="a_edge3_Node000002_Node000004"><a xlink:title=" ">
<path fill="none" stroke="orange" stroke-dasharray="5,2" d="M146.81,-156.58C134.16,-138.27 117.19,-113.7 106.55,-98.3"/>
<polygon fill="orange" stroke="orange" points="143.9,-158.53 152.46,-164.77 149.66,-154.56 143.9,-158.53"/>
</a>
</g>
<text xml:space="preserve" text-anchor="start" x="142.92" y="-137.25" font-family="Helvetica,sans-Serif" font-size="10.00" fill="grey">&lt; ELFJITLinker_ppc64</text>
<text xml:space="preserve" text-anchor="start" x="142.92" y="-122" font-family="Helvetica,sans-Serif" font-size="10.00" fill="grey">  &lt; Endianness &gt; &gt;</text>
</g>
</g>
</svg>
