<?xml version="1.0" encoding="UTF-8" standalone="no"?>
<!DOCTYPE svg PUBLIC "-//W3C//DTD SVG 1.1//EN"
 "http://www.w3.org/Graphics/SVG/1.1/DTD/svg11.dtd">
<!-- Generated by graphviz version 14.1.3 (20260303.0454)
 -->
<!-- Title: llvm::mustache::AddIndentationStringStream Pages: 1 -->
<svg width="162pt" height="160pt"
 viewBox="0.00 0.00 162.00 160.00" xmlns="http://www.w3.org/2000/svg" xmlns:xlink="http://www.w3.org/1999/xlink">
<g id="graph0" class="graph" transform="scale(1 1) rotate(0) translate(4 156.25)">
<title>llvm::mustache::AddIndentationStringStream</title>
<!-- Node1 -->
<g id="Node000001" class="node">
<title>Node1</title>
<g id="a_Node000001"><a xlink:title=" ">
<polygon fill="#999999" stroke="#666666" points="154,-30.5 0,-30.5 0,0 154,0 154,-30.5"/>
<text xml:space="preserve" text-anchor="start" x="8" y="-17" font-family="Helvetica,sans-Serif" font-size="10.00">llvm::mustache::AddIndentation</text>
<text xml:space="preserve" text-anchor="middle" x="77" y="-5.75" font-family="Helvetica,sans-Serif" font-size="10.00">StringStream</text>
</a>
</g>
</g>
<!-- Node2 -->
<g id="Node000002" class="node">
<title>Node2</title>
<g id="a_Node000002"><a xlink:href="classllvm_1_1mustache_1_1MustacheOutputStream.html" target="_top" xlink:title=" ">
<polygon fill="white" stroke="#666666" points="142.75,-97 11.25,-97 11.25,-66.5 142.75,-66.5 142.75,-97"/>
<text xml:space="preserve" text-anchor="start" x="19.25" y="-83.5" font-family="Helvetica,sans-Serif" font-size="10.00">llvm::mustache::Mustache</text>
<text xml:space="preserve" text-anchor="middle" x="77" y="-72.25" font-family="Helvetica,sans-Serif" font-size="10.00">OutputStream</text>
</a>
</g>
</g>
<!-- Node2&#45;&gt;Node1 -->
<g id="edge1_Node000001_Node000002" class="edge">
<title>Node2&#45;&gt;Node1</title>
<g id="a_edge1_Node000001_Node000002"><a xlink:title=" ">
<path fill="none" stroke="#63b8ff" d="M77,-54.81C77,-46.64 77,-37.91 77,-30.83"/>
<polygon fill="#63b8ff" stroke="#63b8ff" points="73.5,-54.6 77,-64.6 80.5,-54.6 73.5,-54.6"/>
</a>
</g>
</g>
<!-- Node3 -->
<g id="Node000003" class="node">
<title>Node3</title>
<g id="a_Node000003"><a xlink:href="classllvm_1_1raw__ostream.html" target="_top" xlink:title="This class implements an extremely fast bulk output stream that can only output to a stream.">
<polygon fill="white" stroke="#666666" points="125.12,-152.25 28.88,-152.25 28.88,-133 125.12,-133 125.12,-152.25"/>
<text xml:space="preserve" text-anchor="middle" x="77" y="-138.75" font-family="Helvetica,sans-Serif" font-size="10.00">llvm::raw_ostream</text>
</a>
</g>
</g>
<!-- Node3&#45;&gt;Node2 -->
<g id="edge2_Node000002_Node000003" class="edge">
<title>Node3&#45;&gt;Node2</title>
<g id="a_edge2_Node000002_Node000003"><a xlink:title=" ">
<path fill="none" stroke="#63b8ff" d="M77,-121.42C77,-113.49 77,-104.56 77,-97.28"/>
<polygon fill="#63b8ff" stroke="#63b8ff" points="73.5,-121.17 77,-131.17 80.5,-121.17 73.5,-121.17"/>
</a>
</g>
</g>
</g>
</svg>
