<?xml version="1.0" encoding="UTF-8" standalone="no"?>
<!DOCTYPE svg PUBLIC "-//W3C//DTD SVG 1.1//EN"
 "http://www.w3.org/Graphics/SVG/1.1/DTD/svg11.dtd">
<!-- Generated by graphviz version 14.1.3 (20260303.0454)
 -->
<!-- Title: llvm::CSKYAttributeParser Pages: 1 -->
<svg width="150pt" height="138pt"
 viewBox="0.00 0.00 150.00 138.00" xmlns="http://www.w3.org/2000/svg" xmlns:xlink="http://www.w3.org/1999/xlink">
<g id="graph0" class="graph" transform="scale(1 1) rotate(0) translate(4 133.75)">
<title>llvm::CSKYAttributeParser</title>
<!-- Node1 -->
<g id="Node000001" class="node">
<title>Node1</title>
<g id="a_Node000001"><a xlink:title=" ">
<polygon fill="#999999" stroke="#666666" points="136.75,-19.25 5.25,-19.25 5.25,0 136.75,0 136.75,-19.25"/>
<text xml:space="preserve" text-anchor="middle" x="71" y="-5.75" font-family="Helvetica,sans-Serif" font-size="10.00">llvm::CSKYAttributeParser</text>
</a>
</g>
</g>
<!-- Node2 -->
<g id="Node000002" class="node">
<title>Node2</title>
<g id="a_Node000002"><a xlink:href="classllvm_1_1ELFCompactAttrParser.html" target="_top" xlink:title=" ">
<polygon fill="white" stroke="#666666" points="142,-74.5 0,-74.5 0,-55.25 142,-55.25 142,-74.5"/>
<text xml:space="preserve" text-anchor="middle" x="71" y="-61" font-family="Helvetica,sans-Serif" font-size="10.00">llvm::ELFCompactAttrParser</text>
</a>
</g>
</g>
<!-- Node2&#45;&gt;Node1 -->
<g id="edge1_Node000001_Node000002" class="edge">
<title>Node2&#45;&gt;Node1</title>
<g id="a_edge1_Node000001_Node000002"><a xlink:title=" ">
<path fill="none" stroke="#63b8ff" d="M71,-43.63C71,-35.34 71,-26.17 71,-19.61"/>
<polygon fill="#63b8ff" stroke="#63b8ff" points="67.5,-43.57 71,-53.57 74.5,-43.57 67.5,-43.57"/>
</a>
</g>
</g>
<!-- Node3 -->
<g id="Node000003" class="node">
<title>Node3</title>
<g id="a_Node000003"><a xlink:href="classllvm_1_1ELFAttributeParser.html" target="_top" xlink:title=" ">
<polygon fill="white" stroke="#666666" points="132.62,-129.75 9.38,-129.75 9.38,-110.5 132.62,-110.5 132.62,-129.75"/>
<text xml:space="preserve" text-anchor="middle" x="71" y="-116.25" font-family="Helvetica,sans-Serif" font-size="10.00">llvm::ELFAttributeParser</text>
</a>
</g>
</g>
<!-- Node3&#45;&gt;Node2 -->
<g id="edge2_Node000002_Node000003" class="edge">
<title>Node3&#45;&gt;Node2</title>
<g id="a_edge2_Node000002_Node000003"><a xlink:title=" ">
<path fill="none" stroke="#63b8ff" d="M71,-98.88C71,-90.59 71,-81.42 71,-74.86"/>
<polygon fill="#63b8ff" stroke="#63b8ff" points="67.5,-98.82 71,-108.82 74.5,-98.82 67.5,-98.82"/>
</a>
</g>
</g>
</g>
</svg>
