<?xml version="1.0" encoding="UTF-8" standalone="no"?>
<!DOCTYPE svg PUBLIC "-//W3C//DTD SVG 1.1//EN"
 "http://www.w3.org/Graphics/SVG/1.1/DTD/svg11.dtd">
<!-- Generated by graphviz version 14.1.3 (20260303.0454)
 -->
<!-- Title: llvm::RawInstrProfReader&lt; IntPtrT &gt; Pages: 1 -->
<svg width="284pt" height="179pt"
 viewBox="0.00 0.00 284.00 179.00" xmlns="http://www.w3.org/2000/svg" xmlns:xlink="http://www.w3.org/1999/xlink">
<g id="graph0" class="graph" transform="scale(1 1) rotate(0) translate(4 174.5)">
<title>llvm::RawInstrProfReader&lt; IntPtrT &gt;</title>
<!-- Node1 -->
<g id="Node000001" class="node">
<title>Node1</title>
<g id="a_Node000001"><a xlink:title="Reader for the raw instrprof binary format from runtime.">
<polygon fill="#999999" stroke="#666666" points="202.25,-114.25 73,-114.25 73,-83.75 202.25,-83.75 202.25,-114.25"/>
<text xml:space="preserve" text-anchor="start" x="81" y="-100.75" font-family="Helvetica,sans-Serif" font-size="10.00">llvm::RawInstrProfReader</text>
<text xml:space="preserve" text-anchor="middle" x="137.62" y="-89.5" font-family="Helvetica,sans-Serif" font-size="10.00">&lt; IntPtrT &gt;</text>
</a>
</g>
</g>
<!-- Node3 -->
<g id="Node000003" class="node">
<title>Node3</title>
<g id="a_Node000003"><a xlink:href="classllvm_1_1RawInstrProfReader.html" target="_top" xlink:title=" ">
<polygon fill="white" stroke="#666666" points="129.25,-30.5 0,-30.5 0,0 129.25,0 129.25,-30.5"/>
<text xml:space="preserve" text-anchor="start" x="8" y="-17" font-family="Helvetica,sans-Serif" font-size="10.00">llvm::RawInstrProfReader</text>
<text xml:space="preserve" text-anchor="middle" x="64.62" y="-5.75" font-family="Helvetica,sans-Serif" font-size="10.00">&lt; uint32_t &gt;</text>
</a>
</g>
</g>
<!-- Node1&#45;&gt;Node3 -->
<g id="edge2_Node000001_Node000003" class="edge">
<title>Node1&#45;&gt;Node3</title>
<g id="a_edge2_Node000001_Node000003"><a xlink:title=" ">
<path fill="none" stroke="orange" stroke-dasharray="5,2" d="M117.16,-75.08C104.46,-60.86 88.53,-43.02 77.56,-30.74"/>
<polygon fill="orange" stroke="orange" points="114.29,-77.13 123.57,-82.26 119.52,-72.47 114.29,-77.13"/>
</a>
</g>
<text xml:space="preserve" text-anchor="start" x="110.66" y="-54.5" font-family="Helvetica,sans-Serif" font-size="10.00" fill="grey">&lt; uint32_t &gt;</text>
</g>
<!-- Node4 -->
<g id="Node000004" class="node">
<title>Node4</title>
<g id="a_Node000004"><a xlink:href="classllvm_1_1RawInstrProfReader.html" target="_top" xlink:title=" ">
<polygon fill="white" stroke="#666666" points="276.25,-30.5 147,-30.5 147,0 276.25,0 276.25,-30.5"/>
<text xml:space="preserve" text-anchor="start" x="155" y="-17" font-family="Helvetica,sans-Serif" font-size="10.00">llvm::RawInstrProfReader</text>
<text xml:space="preserve" text-anchor="middle" x="211.62" y="-5.75" font-family="Helvetica,sans-Serif" font-size="10.00">&lt; uint64_t &gt;</text>
</a>
</g>
</g>
<!-- Node1&#45;&gt;Node4 -->
<g id="edge3_Node000001_Node000004" class="edge">
<title>Node1&#45;&gt;Node4</title>
<g id="a_edge3_Node000001_Node000004"><a xlink:title=" ">
<path fill="none" stroke="orange" stroke-dasharray="5,2" d="M161.05,-75.71C164.32,-72.42 167.6,-69.04 170.62,-65.75 181.06,-54.42 192.16,-40.92 200.17,-30.89"/>
<polygon fill="orange" stroke="orange" points="158.83,-72.99 154.15,-82.49 163.74,-77.98 158.83,-72.99"/>
</a>
</g>
<text xml:space="preserve" text-anchor="start" x="187.62" y="-54.5" font-family="Helvetica,sans-Serif" font-size="10.00" fill="grey">&lt; uint64_t &gt;</text>
</g>
<!-- Node2 -->
<g id="Node000002" class="node">
<title>Node2</title>
<g id="a_Node000002"><a xlink:href="classllvm_1_1InstrProfReader.html" target="_top" xlink:title="Base class and interface for reading profiling data of any known instrprof format.">
<polygon fill="white" stroke="#666666" points="192.12,-170.5 83.12,-170.5 83.12,-151.25 192.12,-151.25 192.12,-170.5"/>
<text xml:space="preserve" text-anchor="middle" x="137.62" y="-157" font-family="Helvetica,sans-Serif" font-size="10.00">llvm::InstrProfReader</text>
</a>
</g>
</g>
<!-- Node2&#45;&gt;Node1 -->
<g id="edge1_Node000001_Node000002" class="edge">
<title>Node2&#45;&gt;Node1</title>
<g id="a_edge1_Node000001_Node000002"><a xlink:title=" ">
<path fill="none" stroke="#63b8ff" d="M137.62,-139.44C137.62,-131.18 137.62,-121.84 137.62,-114.32"/>
<polygon fill="#63b8ff" stroke="#63b8ff" points="134.13,-139.27 137.63,-149.27 141.13,-139.27 134.13,-139.27"/>
</a>
</g>
</g>
</g>
</svg>
