<?xml version="1.0" encoding="UTF-8" standalone="no"?>
<!DOCTYPE svg PUBLIC "-//W3C//DTD SVG 1.1//EN"
 "http://www.w3.org/Graphics/SVG/1.1/DTD/svg11.dtd">
<!-- Generated by graphviz version 14.1.3 (20260303.0454)
 -->
<!-- Title: llvm::sandboxir::PassManager&lt; ParentPass, ContainedPass &gt; Pages: 1 -->
<svg width="781pt" height="97pt"
 viewBox="0.00 0.00 781.00 97.00" xmlns="http://www.w3.org/2000/svg" xmlns:xlink="http://www.w3.org/1999/xlink">
<g id="graph0" class="graph" transform="scale(1 1) rotate(0) translate(4 93.36)">
<title>llvm::sandboxir::PassManager&lt; ParentPass, ContainedPass &gt;</title>
<!-- Node1 -->
<g id="Node000001" class="node">
<title>Node1</title>
<g id="a_Node000001"><a xlink:title="Base class.">
<polygon fill="#999999" stroke="#666666" points="261.75,-54.5 104,-54.5 104,-24 261.75,-24 261.75,-54.5"/>
<text xml:space="preserve" text-anchor="start" x="112" y="-41" font-family="Helvetica,sans-Serif" font-size="10.00">llvm::sandboxir::PassManager</text>
<text xml:space="preserve" text-anchor="middle" x="182.88" y="-29.75" font-family="Helvetica,sans-Serif" font-size="10.00">&lt; ParentPass, ContainedPass &gt;</text>
</a>
</g>
</g>
<!-- Node3 -->
<g id="Node000003" class="node">
<title>Node3</title>
<g id="a_Node000003"><a xlink:href="classllvm_1_1sandboxir_1_1PassManager.html" target="_top" xlink:title=" ">
<polygon fill="white" stroke="#666666" points="594.25,-79.5 434.25,-79.5 434.25,-49 594.25,-49 594.25,-79.5"/>
<text xml:space="preserve" text-anchor="start" x="442.25" y="-66" font-family="Helvetica,sans-Serif" font-size="10.00">llvm::sandboxir::PassManager</text>
<text xml:space="preserve" text-anchor="middle" x="514.25" y="-54.75" font-family="Helvetica,sans-Serif" font-size="10.00">&lt; FunctionPass, FunctionPass &gt;</text>
</a>
</g>
</g>
<!-- Node1&#45;&gt;Node3 -->
<g id="edge2_Node000001_Node000003" class="edge">
<title>Node1&#45;&gt;Node3</title>
<g id="a_edge2_Node000001_Node000003"><a xlink:title=" ">
<path fill="none" stroke="orange" stroke-dasharray="5,2" d="M273.41,-46.05C323.5,-49.85 385.39,-54.55 433.75,-58.22"/>
<polygon fill="orange" stroke="orange" points="273.68,-42.56 263.44,-45.29 273.15,-49.54 273.68,-42.56"/>
</a>
</g>
<text xml:space="preserve" text-anchor="start" x="291.75" y="-78.11" font-family="Helvetica,sans-Serif" font-size="10.00" fill="grey">&lt; FunctionPass, Function</text>
<text xml:space="preserve" text-anchor="start" x="291.75" y="-62.86" font-family="Helvetica,sans-Serif" font-size="10.00" fill="grey">  Pass &gt;</text>
</g>
<!-- Node5 -->
<g id="Node000005" class="node">
<title>Node5</title>
<g id="a_Node000005"><a xlink:href="classllvm_1_1sandboxir_1_1PassManager.html" target="_top" xlink:title=" ">
<polygon fill="white" stroke="#666666" points="588.25,-30.5 440.25,-30.5 440.25,0 588.25,0 588.25,-30.5"/>
<text xml:space="preserve" text-anchor="start" x="448.25" y="-17" font-family="Helvetica,sans-Serif" font-size="10.00">llvm::sandboxir::PassManager</text>
<text xml:space="preserve" text-anchor="middle" x="514.25" y="-5.75" font-family="Helvetica,sans-Serif" font-size="10.00">&lt; RegionPass, RegionPass &gt;</text>
</a>
</g>
</g>
<!-- Node1&#45;&gt;Node5 -->
<g id="edge4_Node000001_Node000005" class="edge">
<title>Node1&#45;&gt;Node5</title>
<g id="a_edge4_Node000001_Node000005"><a xlink:title=" ">
<path fill="none" stroke="orange" stroke-dasharray="5,2" d="M273.52,-22.69C275.62,-22.45 277.69,-22.21 279.75,-22 333.2,-16.45 393.87,-14.84 439.97,-14.57"/>
<polygon fill="orange" stroke="orange" points="273.19,-19.21 263.72,-23.98 274.09,-26.15 273.19,-19.21"/>
</a>
</g>
<text xml:space="preserve" text-anchor="start" x="282.75" y="-28" font-family="Helvetica,sans-Serif" font-size="10.00" fill="grey">&lt; RegionPass, RegionPass &gt;</text>
</g>
<!-- Node2 -->
<g id="Node000002" class="node">
<title>Node2</title>
<g id="a_Node000002"><a xlink:href="classParentPass.html" target="_top" xlink:title=" ">
<polygon fill="white" stroke="#666666" points="67,-48.88 0,-48.88 0,-29.62 67,-29.62 67,-48.88"/>
<text xml:space="preserve" text-anchor="middle" x="33.5" y="-35.38" font-family="Helvetica,sans-Serif" font-size="10.00">ParentPass</text>
</a>
</g>
</g>
<!-- Node2&#45;&gt;Node1 -->
<g id="edge1_Node000001_Node000002" class="edge">
<title>Node2&#45;&gt;Node1</title>
<g id="a_edge1_Node000001_Node000002"><a xlink:title=" ">
<path fill="none" stroke="#63b8ff" d="M78.49,-39.25C86.5,-39.25 95.08,-39.25 103.74,-39.25"/>
<polygon fill="#63b8ff" stroke="#63b8ff" points="78.72,-35.75 68.72,-39.25 78.72,-42.75 78.72,-35.75"/>
</a>
</g>
</g>
<!-- Node4 -->
<g id="Node000004" class="node">
<title>Node4</title>
<g id="a_Node000004"><a xlink:href="classllvm_1_1sandboxir_1_1FunctionPassManager.html" target="_top" xlink:title=" ">
<polygon fill="white" stroke="#666666" points="764.62,-79.5 639.12,-79.5 639.12,-49 764.62,-49 764.62,-79.5"/>
<text xml:space="preserve" text-anchor="start" x="647.12" y="-66" font-family="Helvetica,sans-Serif" font-size="10.00">llvm::sandboxir::Function</text>
<text xml:space="preserve" text-anchor="middle" x="701.88" y="-54.75" font-family="Helvetica,sans-Serif" font-size="10.00">PassManager</text>
</a>
</g>
</g>
<!-- Node3&#45;&gt;Node4 -->
<g id="edge3_Node000003_Node000004" class="edge">
<title>Node3&#45;&gt;Node4</title>
<g id="a_edge3_Node000003_Node000004"><a xlink:title=" ">
<path fill="none" stroke="#63b8ff" d="M606.01,-64.25C617.08,-64.25 628.2,-64.25 638.72,-64.25"/>
<polygon fill="#63b8ff" stroke="#63b8ff" points="606.02,-60.75 596.02,-64.25 606.02,-67.75 606.02,-60.75"/>
</a>
</g>
</g>
<!-- Node6 -->
<g id="Node000006" class="node">
<title>Node6</title>
<g id="a_Node000006"><a xlink:href="classllvm_1_1sandboxir_1_1RegionPassManager.html" target="_top" xlink:title=" ">
<polygon fill="white" stroke="#666666" points="772.5,-30.5 631.25,-30.5 631.25,0 772.5,0 772.5,-30.5"/>
<text xml:space="preserve" text-anchor="start" x="639.25" y="-17" font-family="Helvetica,sans-Serif" font-size="10.00">llvm::sandboxir::RegionPass</text>
<text xml:space="preserve" text-anchor="middle" x="701.88" y="-5.75" font-family="Helvetica,sans-Serif" font-size="10.00">Manager</text>
</a>
</g>
</g>
<!-- Node5&#45;&gt;Node6 -->
<g id="edge5_Node000005_Node000006" class="edge">
<title>Node5&#45;&gt;Node6</title>
<g id="a_edge5_Node000005_Node000006"><a xlink:title=" ">
<path fill="none" stroke="#63b8ff" d="M600.11,-15.25C610.37,-15.25 620.76,-15.25 630.77,-15.25"/>
<polygon fill="#63b8ff" stroke="#63b8ff" points="600.13,-11.75 590.13,-15.25 600.13,-18.75 600.13,-11.75"/>
</a>
</g>
</g>
</g>
</svg>
