<?xml version="1.0" encoding="UTF-8" standalone="no"?>
<!DOCTYPE svg PUBLIC "-//W3C//DTD SVG 1.1//EN"
 "http://www.w3.org/Graphics/SVG/1.1/DTD/svg11.dtd">
<!-- Generated by graphviz version 14.1.3 (20260303.0454)
 -->
<!-- Title: llvm::DWARF5AccelTable Pages: 1 -->
<svg width="264pt" height="224pt"
 viewBox="0.00 0.00 264.00 224.00" xmlns="http://www.w3.org/2000/svg" xmlns:xlink="http://www.w3.org/1999/xlink">
<g id="graph0" class="graph" transform="scale(1 1) rotate(0) translate(4 219.5)">
<title>llvm::DWARF5AccelTable</title>
<!-- Node1 -->
<g id="Node000001" class="node">
<title>Node1</title>
<g id="a_Node000001"><a xlink:title=" ">
<polygon fill="#999999" stroke="#666666" points="134.5,-19.25 4.5,-19.25 4.5,0 134.5,0 134.5,-19.25"/>
<text xml:space="preserve" text-anchor="middle" x="69.5" y="-5.75" font-family="Helvetica,sans-Serif" font-size="10.00">llvm::DWARF5AccelTable</text>
</a>
</g>
</g>
<!-- Node2 -->
<g id="Node000002" class="node">
<title>Node2</title>
<g id="a_Node000002"><a xlink:href="classllvm_1_1AccelTable.html" target="_top" xlink:title=" ">
<polygon fill="white" stroke="#666666" points="139,-86.75 0,-86.75 0,-56.25 139,-56.25 139,-86.75"/>
<text xml:space="preserve" text-anchor="start" x="8" y="-73.25" font-family="Helvetica,sans-Serif" font-size="10.00">llvm::AccelTable&lt; DWARF5</text>
<text xml:space="preserve" text-anchor="middle" x="69.5" y="-62" font-family="Helvetica,sans-Serif" font-size="10.00">AccelTableData &gt;</text>
</a>
</g>
</g>
<!-- Node2&#45;&gt;Node1 -->
<g id="edge1_Node000001_Node000002" class="edge">
<title>Node2&#45;&gt;Node1</title>
<g id="a_edge1_Node000001_Node000002"><a xlink:title=" ">
<path fill="none" stroke="#63b8ff" d="M69.5,-44.77C69.5,-35.79 69.5,-26.29 69.5,-19.6"/>
<polygon fill="#63b8ff" stroke="#63b8ff" points="66,-44.49 69.5,-54.49 73,-44.49 66,-44.49"/>
</a>
</g>
</g>
<!-- Node3 -->
<g id="Node000003" class="node">
<title>Node3</title>
<g id="a_Node000003"><a xlink:href="classllvm_1_1AccelTableBase.html" target="_top" xlink:title="A base class holding non&#45;template&#45;dependant functionality of the AccelTable class.">
<polygon fill="white" stroke="#666666" points="120.75,-215.5 10.25,-215.5 10.25,-196.25 120.75,-196.25 120.75,-215.5"/>
<text xml:space="preserve" text-anchor="middle" x="65.5" y="-202" font-family="Helvetica,sans-Serif" font-size="10.00">llvm::AccelTableBase</text>
</a>
</g>
</g>
<!-- Node3&#45;&gt;Node2 -->
<g id="edge2_Node000002_Node000003" class="edge">
<title>Node3&#45;&gt;Node2</title>
<g id="a_edge2_Node000002_Node000003"><a xlink:title=" ">
<path fill="none" stroke="#63b8ff" d="M66.12,-184.31C66.94,-157.36 68.34,-110.75 69.06,-87.13"/>
<polygon fill="#63b8ff" stroke="#63b8ff" points="62.62,-184.16 65.82,-194.26 69.62,-184.37 62.62,-184.16"/>
</a>
</g>
</g>
<!-- Node4 -->
<g id="Node000004" class="node">
<title>Node4</title>
<g id="a_Node000004"><a xlink:href="classllvm_1_1AccelTable.html" target="_top" xlink:title="This class holds an abstract representation of an Accelerator Table, consisting of a sequence of buck...">
<polygon fill="white" stroke="#666666" points="215,-159.25 82,-159.25 82,-140 215,-140 215,-159.25"/>
<text xml:space="preserve" text-anchor="middle" x="148.5" y="-145.75" font-family="Helvetica,sans-Serif" font-size="10.00">llvm::AccelTable&lt; DataT &gt;</text>
</a>
</g>
</g>
<!-- Node3&#45;&gt;Node4 -->
<g id="edge4_Node000004_Node000003" class="edge">
<title>Node3&#45;&gt;Node4</title>
<g id="a_edge4_Node000004_Node000003"><a xlink:title=" ">
<path fill="none" stroke="#63b8ff" d="M88.73,-189.69C103.55,-180 122.27,-167.77 134.77,-159.6"/>
<polygon fill="#63b8ff" stroke="#63b8ff" points="86.93,-186.69 80.47,-195.09 90.76,-192.55 86.93,-186.69"/>
</a>
</g>
</g>
<!-- Node4&#45;&gt;Node2 -->
<g id="edge3_Node000002_Node000004" class="edge">
<title>Node4&#45;&gt;Node2</title>
<g id="a_edge3_Node000002_Node000004"><a xlink:title=" ">
<path fill="none" stroke="orange" stroke-dasharray="5,2" d="M130.86,-131.62C116.93,-118.21 97.72,-99.7 84.53,-86.98"/>
<polygon fill="orange" stroke="orange" points="128.41,-134.12 138.04,-138.54 133.27,-129.08 128.41,-134.12"/>
</a>
</g>
<text xml:space="preserve" text-anchor="start" x="123.69" y="-110.75" font-family="Helvetica,sans-Serif" font-size="10.00" fill="grey">&lt; DWARF5AccelTableData &gt;</text>
</g>
</g>
</svg>
