<?xml version="1.0" encoding="UTF-8" standalone="no"?>
<!DOCTYPE svg PUBLIC "-//W3C//DTD SVG 1.1//EN"
 "http://www.w3.org/Graphics/SVG/1.1/DTD/svg11.dtd">
<!-- Generated by graphviz version 14.1.3 (20260303.0454)
 -->
<!-- Title: llvm::iplist&lt; T, Options &gt; Pages: 1 -->
<svg width="2075pt" height="603pt"
 viewBox="0.00 0.00 2075.00 603.00" xmlns="http://www.w3.org/2000/svg" xmlns:xlink="http://www.w3.org/1999/xlink">
<g id="graph0" class="graph" transform="scale(1 1) rotate(0) translate(4 599.39)">
<title>llvm::iplist&lt; T, Options &gt;</title>
<!-- Node1 -->
<g id="Node000001" class="node">
<title>Node1</title>
<g id="a_Node000001"><a xlink:title="An intrusive list with ownership and callbacks specified/controlled by ilist_traits,...">
<polygon fill="#999999" stroke="#666666" points="1425,-198.46 1302.5,-198.46 1302.5,-179.21 1425,-179.21 1425,-198.46"/>
<text xml:space="preserve" text-anchor="middle" x="1363.75" y="-184.96" font-family="Helvetica,sans-Serif" font-size="10.00">llvm::iplist&lt; T, Options &gt;</text>
</a>
</g>
</g>
<!-- Node24 -->
<g id="Node000024" class="node">
<title>Node24</title>
<g id="a_Node000024"><a xlink:href="classllvm_1_1iplist.html" target="_top" xlink:title=" ">
<polygon fill="white" stroke="#666666" points="1751.5,-293.46 1620,-293.46 1620,-274.21 1751.5,-274.21 1751.5,-293.46"/>
<text xml:space="preserve" text-anchor="middle" x="1685.75" y="-279.96" font-family="Helvetica,sans-Serif" font-size="10.00">llvm::iplist&lt; T, Options... &gt;</text>
</a>
</g>
</g>
<!-- Node1&#45;&gt;Node24 -->
<g id="edge28_Node000001_Node000024" class="edge">
<title>Node1&#45;&gt;Node24</title>
<g id="a_edge28_Node000001_Node000024"><a xlink:title=" ">
<path fill="none" stroke="orange" stroke-dasharray="5,2" d="M1379.01,-207.25C1393.23,-224.11 1416.69,-248.15 1443,-259.83 1498.99,-284.69 1569.27,-289.07 1619.6,-288.2"/>
<polygon fill="orange" stroke="orange" points="1382.08,-205.48 1373.06,-199.92 1376.65,-209.89 1382.08,-205.48"/>
</a>
</g>
<text xml:space="preserve" text-anchor="start" x="1483.5" y="-294.17" font-family="Helvetica,sans-Serif" font-size="10.00" fill="grey">&lt; T, Options... &gt;</text>
</g>
<!-- Node37 -->
<g id="Node000037" class="node">
<title>Node37</title>
<g id="a_Node000037"><a xlink:href="classllvm_1_1iplist.html" target="_top" xlink:title=" ">
<polygon fill="white" stroke="#666666" points="1756,-237.71 1615.5,-237.71 1615.5,-195.96 1756,-195.96 1756,-237.71"/>
<text xml:space="preserve" text-anchor="start" x="1623.5" y="-224.21" font-family="Helvetica,sans-Serif" font-size="10.00">llvm::iplist&lt; MemoryAccess,</text>
<text xml:space="preserve" text-anchor="start" x="1623.5" y="-212.96" font-family="Helvetica,sans-Serif" font-size="10.00"> ilist_tag&lt; MSSAHelpers</text>
<text xml:space="preserve" text-anchor="middle" x="1685.75" y="-201.71" font-family="Helvetica,sans-Serif" font-size="10.00">::AllAccessTag &gt; &gt;</text>
</a>
</g>
</g>
<!-- Node1&#45;&gt;Node37 -->
<g id="edge41_Node000001_Node000037" class="edge">
<title>Node1&#45;&gt;Node37</title>
<g id="a_edge41_Node000001_Node000037"><a xlink:title=" ">
<path fill="none" stroke="orange" stroke-dasharray="5,2" d="M1436.74,-195.13C1490.13,-199.8 1562.48,-206.13 1615.25,-210.75"/>
<polygon fill="orange" stroke="orange" points="1437.09,-191.65 1426.82,-194.26 1436.48,-198.62 1437.09,-191.65"/>
</a>
</g>
<text xml:space="preserve" text-anchor="start" x="1446" y="-245.06" font-family="Helvetica,sans-Serif" font-size="10.00" fill="grey">&lt; MemoryAccess, ilist</text>
<text xml:space="preserve" text-anchor="start" x="1446" y="-229.81" font-family="Helvetica,sans-Serif" font-size="10.00" fill="grey">  _tag&lt; MSSAHelpers::AllAccess</text>
<text xml:space="preserve" text-anchor="start" x="1446" y="-214.56" font-family="Helvetica,sans-Serif" font-size="10.00" fill="grey">  Tag &gt; &gt;</text>
</g>
<!-- Node38 -->
<g id="Node000038" class="node">
<title>Node38</title>
<g id="a_Node000038"><a xlink:href="classllvm_1_1iplist.html" target="_top" xlink:title=" ">
<polygon fill="white" stroke="#666666" points="1745.88,-177.46 1625.62,-177.46 1625.62,-158.21 1745.88,-158.21 1745.88,-177.46"/>
<text xml:space="preserve" text-anchor="middle" x="1685.75" y="-163.96" font-family="Helvetica,sans-Serif" font-size="10.00">llvm::iplist&lt; ASTNode &gt;</text>
</a>
</g>
</g>
<!-- Node1&#45;&gt;Node38 -->
<g id="edge42_Node000001_Node000038" class="edge">
<title>Node1&#45;&gt;Node38</title>
<g id="a_edge42_Node000001_Node000038"><a xlink:title=" ">
<path fill="none" stroke="orange" stroke-dasharray="5,2" d="M1420.8,-176.73C1428.24,-175.47 1435.78,-174.37 1443,-173.58 1504.98,-166.85 1576.4,-166 1625.45,-166.46"/>
<polygon fill="orange" stroke="orange" points="1420.36,-173.25 1411.14,-178.47 1421.61,-180.14 1420.36,-173.25"/>
</a>
</g>
<text xml:space="preserve" text-anchor="start" x="1489.12" y="-179.58" font-family="Helvetica,sans-Serif" font-size="10.00" fill="grey">&lt; ASTNode &gt;</text>
</g>
<!-- Node39 -->
<g id="Node000039" class="node">
<title>Node39</title>
<g id="a_Node000039"><a xlink:href="classllvm_1_1iplist.html" target="_top" xlink:title=" ">
<polygon fill="white" stroke="#666666" points="1758.25,-138.46 1613.25,-138.46 1613.25,-119.21 1758.25,-119.21 1758.25,-138.46"/>
<text xml:space="preserve" text-anchor="middle" x="1685.75" y="-124.96" font-family="Helvetica,sans-Serif" font-size="10.00">llvm::iplist&lt; VPRecipeBase &gt;</text>
</a>
</g>
</g>
<!-- Node1&#45;&gt;Node39 -->
<g id="edge43_Node000001_Node000039" class="edge">
<title>Node1&#45;&gt;Node39</title>
<g id="a_edge43_Node000001_Node000039"><a xlink:title=" ">
<path fill="none" stroke="orange" stroke-dasharray="5,2" d="M1387.79,-172.58C1402.78,-162.91 1423.16,-151.44 1443,-145.58 1498.48,-129.2 1564.1,-125.59 1612.97,-125.75"/>
<polygon fill="orange" stroke="orange" points="1385.98,-169.58 1379.6,-178.04 1389.86,-175.4 1385.98,-169.58"/>
</a>
</g>
<text xml:space="preserve" text-anchor="start" x="1476.75" y="-151.58" font-family="Helvetica,sans-Serif" font-size="10.00" fill="grey">&lt; VPRecipeBase &gt;</text>
</g>
<!-- Node2 -->
<g id="Node000002" class="node">
<title>Node2</title>
<g id="a_Node000002"><a xlink:href="classllvm_1_1iplist__impl.html" target="_top" xlink:title=" ">
<polygon fill="white" stroke="#666666" points="1265.5,-209.71 1135.5,-209.71 1135.5,-167.96 1265.5,-167.96 1265.5,-209.71"/>
<text xml:space="preserve" text-anchor="start" x="1143.5" y="-196.21" font-family="Helvetica,sans-Serif" font-size="10.00">llvm::iplist_impl&lt;</text>
<text xml:space="preserve" text-anchor="start" x="1143.5" y="-184.96" font-family="Helvetica,sans-Serif" font-size="10.00"> simple_ilist&lt; T, Options...</text>
<text xml:space="preserve" text-anchor="middle" x="1200.5" y="-173.71" font-family="Helvetica,sans-Serif" font-size="10.00"> &gt;, ilist_traits&lt; T &gt; &gt;</text>
</a>
</g>
</g>
<!-- Node2&#45;&gt;Node1 -->
<g id="edge1_Node000001_Node000002" class="edge">
<title>Node2&#45;&gt;Node1</title>
<g id="a_edge1_Node000001_Node000002"><a xlink:title=" ">
<path fill="none" stroke="#63b8ff" d="M1277.09,-188.83C1285.5,-188.83 1293.99,-188.83 1302.19,-188.83"/>
<polygon fill="#63b8ff" stroke="#63b8ff" points="1277.21,-185.33 1267.21,-188.83 1277.21,-192.33 1277.21,-185.33"/>
</a>
</g>
</g>
<!-- Node3 -->
<g id="Node000003" class="node">
<title>Node3</title>
<g id="a_Node000003"><a xlink:href="structllvm_1_1ilist__traits.html" target="_top" xlink:title=" ">
<polygon fill="white" stroke="#666666" points="1003.5,-284.46 897.5,-284.46 897.5,-265.21 1003.5,-265.21 1003.5,-284.46"/>
<text xml:space="preserve" text-anchor="middle" x="950.5" y="-270.96" font-family="Helvetica,sans-Serif" font-size="10.00">llvm::ilist_traits&lt; T &gt;</text>
</a>
</g>
</g>
<!-- Node3&#45;&gt;Node2 -->
<g id="edge2_Node000002_Node000003" class="edge">
<title>Node3&#45;&gt;Node2</title>
<g id="a_edge2_Node000002_Node000003"><a xlink:title=" ">
<path fill="none" stroke="#63b8ff" d="M991.23,-261.05C1030.78,-247.34 1092.04,-226.1 1137.89,-210.19"/>
<polygon fill="#63b8ff" stroke="#63b8ff" points="990.17,-257.72 981.86,-264.3 992.46,-264.33 990.17,-257.72"/>
</a>
</g>
</g>
<!-- Node4 -->
<g id="Node000004" class="node">
<title>Node4</title>
<g id="a_Node000004"><a xlink:href="structllvm_1_1ilist__node__traits.html" target="_top" xlink:title=" ">
<polygon fill="white" stroke="#666666" points="776,-353.46 643.75,-353.46 643.75,-334.21 776,-334.21 776,-353.46"/>
<text xml:space="preserve" text-anchor="middle" x="709.88" y="-339.96" font-family="Helvetica,sans-Serif" font-size="10.00">llvm::ilist_node_traits&lt; T &gt;</text>
</a>
</g>
</g>
<!-- Node4&#45;&gt;Node3 -->
<g id="edge3_Node000003_Node000004" class="edge">
<title>Node4&#45;&gt;Node3</title>
<g id="a_edge3_Node000003_Node000004"><a xlink:title=" ">
<path fill="none" stroke="#63b8ff" d="M756.73,-330.57C802.91,-317.22 873.12,-296.92 914.84,-284.85"/>
<polygon fill="#63b8ff" stroke="#63b8ff" points="755.92,-327.16 747.28,-333.3 757.86,-333.89 755.92,-327.16"/>
</a>
</g>
</g>
<!-- Node5 -->
<g id="Node000005" class="node">
<title>Node5</title>
<g id="a_Node000005"><a xlink:href="structllvm_1_1ilist__alloc__traits.html" target="_top" xlink:title=" ">
<polygon fill="white" stroke="#666666" points="572.88,-428.46 441.38,-428.46 441.38,-409.21 572.88,-409.21 572.88,-428.46"/>
<text xml:space="preserve" text-anchor="middle" x="507.12" y="-414.96" font-family="Helvetica,sans-Serif" font-size="10.00">llvm::ilist_alloc_traits&lt; T &gt;</text>
</a>
</g>
</g>
<!-- Node5&#45;&gt;Node4 -->
<g id="edge4_Node000004_Node000005" class="edge">
<title>Node5&#45;&gt;Node4</title>
<g id="a_edge4_Node000004_Node000005"><a xlink:title=" ">
<path fill="none" stroke="#63b8ff" d="M552.7,-405.32C561.07,-402.62 569.7,-399.72 577.75,-396.83 616.11,-383.04 659.85,-364.85 685.87,-353.77"/>
<polygon fill="#63b8ff" stroke="#63b8ff" points="551.86,-401.91 543.39,-408.27 553.98,-408.58 551.86,-401.91"/>
</a>
</g>
</g>
<!-- Node6 -->
<g id="Node000006" class="node">
<title>Node6</title>
<g id="a_Node000006"><a xlink:href="structllvm_1_1ilist__alloc__traits.html" target="_top" xlink:title="Use delete by default for iplist and ilist.">
<polygon fill="white" stroke="#666666" points="245.62,-437.08 138.12,-437.08 138.12,-406.58 245.62,-406.58 245.62,-437.08"/>
<text xml:space="preserve" text-anchor="start" x="146.12" y="-423.58" font-family="Helvetica,sans-Serif" font-size="10.00">llvm::ilist_alloc_traits</text>
<text xml:space="preserve" text-anchor="middle" x="191.88" y="-412.33" font-family="Helvetica,sans-Serif" font-size="10.00">&lt; NodeTy &gt;</text>
</a>
</g>
</g>
<!-- Node6&#45;&gt;Node5 -->
<g id="edge5_Node000005_Node000006" class="edge">
<title>Node6&#45;&gt;Node5</title>
<g id="a_edge5_Node000005_Node000006"><a xlink:title=" ">
<path fill="none" stroke="orange" stroke-dasharray="5,2" d="M257.45,-421.21C311.14,-420.7 387.2,-419.97 441.04,-419.45"/>
<polygon fill="orange" stroke="orange" points="257.49,-417.71 247.53,-421.31 257.56,-424.71 257.49,-417.71"/>
</a>
</g>
<text xml:space="preserve" text-anchor="start" x="337.88" y="-426.95" font-family="Helvetica,sans-Serif" font-size="10.00" fill="grey">&lt; T &gt;</text>
</g>
<!-- Node7 -->
<g id="Node000007" class="node">
<title>Node7</title>
<g id="a_Node000007"><a xlink:href="structllvm_1_1ilist__callback__traits.html" target="_top" xlink:title=" ">
<polygon fill="white" stroke="#666666" points="555.25,-388.08 459,-388.08 459,-357.58 555.25,-357.58 555.25,-388.08"/>
<text xml:space="preserve" text-anchor="start" x="467" y="-374.58" font-family="Helvetica,sans-Serif" font-size="10.00">llvm::ilist_callback</text>
<text xml:space="preserve" text-anchor="middle" x="507.12" y="-363.33" font-family="Helvetica,sans-Serif" font-size="10.00">_traits&lt; T &gt;</text>
</a>
</g>
</g>
<!-- Node7&#45;&gt;Node4 -->
<g id="edge6_Node000004_Node000007" class="edge">
<title>Node7&#45;&gt;Node4</title>
<g id="a_edge6_Node000004_Node000007"><a xlink:title=" ">
<path fill="none" stroke="#63b8ff" d="M566.8,-364.36C590.82,-360.89 618.73,-356.85 643.42,-353.29"/>
<polygon fill="#63b8ff" stroke="#63b8ff" points="566.59,-360.85 557.2,-365.74 567.6,-367.78 566.59,-360.85"/>
</a>
</g>
</g>
<!-- Node8 -->
<g id="Node000008" class="node">
<title>Node8</title>
<g id="a_Node000008"><a xlink:href="structllvm_1_1ilist__callback__traits.html" target="_top" xlink:title="Callbacks do nothing by default in iplist and ilist.">
<polygon fill="white" stroke="#666666" points="240,-388.08 143.75,-388.08 143.75,-357.58 240,-357.58 240,-388.08"/>
<text xml:space="preserve" text-anchor="start" x="151.75" y="-374.58" font-family="Helvetica,sans-Serif" font-size="10.00">llvm::ilist_callback</text>
<text xml:space="preserve" text-anchor="middle" x="191.88" y="-363.33" font-family="Helvetica,sans-Serif" font-size="10.00">_traits&lt; NodeTy &gt;</text>
</a>
</g>
</g>
<!-- Node8&#45;&gt;Node7 -->
<g id="edge7_Node000007_Node000008" class="edge">
<title>Node8&#45;&gt;Node7</title>
<g id="a_edge7_Node000007_Node000008"><a xlink:title=" ">
<path fill="none" stroke="orange" stroke-dasharray="5,2" d="M251.61,-372.83C311.47,-372.83 403.17,-372.83 458.62,-372.83"/>
<polygon fill="orange" stroke="orange" points="251.96,-369.33 241.96,-372.83 251.96,-376.33 251.96,-369.33"/>
</a>
</g>
<text xml:space="preserve" text-anchor="start" x="337.88" y="-378.83" font-family="Helvetica,sans-Serif" font-size="10.00" fill="grey">&lt; T &gt;</text>
</g>
<!-- Node9 -->
<g id="Node000009" class="node">
<title>Node9</title>
<g id="a_Node000009"><a xlink:href="structllvm_1_1ilist__node__traits.html" target="_top" xlink:title="A fragment for template traits for intrusive list that provides default node related operations.">
<polygon fill="white" stroke="#666666" points="561.25,-339.08 453,-339.08 453,-308.58 561.25,-308.58 561.25,-339.08"/>
<text xml:space="preserve" text-anchor="start" x="461" y="-325.58" font-family="Helvetica,sans-Serif" font-size="10.00">llvm::ilist_node_traits</text>
<text xml:space="preserve" text-anchor="middle" x="507.12" y="-314.33" font-family="Helvetica,sans-Serif" font-size="10.00">&lt; NodeTy &gt;</text>
</a>
</g>
</g>
<!-- Node9&#45;&gt;Node4 -->
<g id="edge8_Node000004_Node000009" class="edge">
<title>Node9&#45;&gt;Node4</title>
<g id="a_edge8_Node000004_Node000009"><a xlink:title=" ">
<path fill="none" stroke="orange" stroke-dasharray="5,2" d="M572.83,-330.28C595.38,-332.52 620.69,-335.05 643.31,-337.3"/>
<polygon fill="orange" stroke="orange" points="573.46,-326.82 563.16,-329.31 572.77,-333.79 573.46,-326.82"/>
</a>
</g>
<text xml:space="preserve" text-anchor="start" x="598.75" y="-341.03" font-family="Helvetica,sans-Serif" font-size="10.00" fill="grey">&lt; T &gt;</text>
</g>
<!-- Node10 -->
<g id="Node000010" class="node">
<title>Node10</title>
<g id="a_Node000010"><a xlink:href="structllvm_1_1ilist__alloc__traits.html" target="_top" xlink:title="Use delete by default for iplist and ilist.">
<polygon fill="white" stroke="#666666" points="245.62,-337.08 138.12,-337.08 138.12,-306.58 245.62,-306.58 245.62,-337.08"/>
<text xml:space="preserve" text-anchor="start" x="146.12" y="-323.58" font-family="Helvetica,sans-Serif" font-size="10.00">llvm::ilist_alloc_traits</text>
<text xml:space="preserve" text-anchor="middle" x="191.88" y="-312.33" font-family="Helvetica,sans-Serif" font-size="10.00">&lt; NodeTy &gt;</text>
</a>
</g>
</g>
<!-- Node10&#45;&gt;Node9 -->
<g id="edge9_Node000009_Node000010" class="edge">
<title>Node10&#45;&gt;Node9</title>
<g id="a_edge9_Node000009_Node000010"><a xlink:title=" ">
<path fill="none" stroke="#63b8ff" d="M257.07,-325.08C265.21,-325.39 273.42,-325.65 281.25,-325.83 342.23,-327.21 357.5,-326.53 418.5,-325.83 429.61,-325.7 441.51,-325.49 452.84,-325.24"/>
<polygon fill="#63b8ff" stroke="#63b8ff" points="257.32,-321.59 247.18,-324.67 257.03,-328.58 257.32,-321.59"/>
</a>
</g>
</g>
<!-- Node13 -->
<g id="Node000013" class="node">
<title>Node13</title>
<g id="a_Node000013"><a xlink:href="structllvm_1_1ilist__node__traits.html" target="_top" xlink:title="A fragment for template traits for intrusive list that provides default node related operations.">
<polygon fill="white" stroke="#666666" points="561.25,-290.08 453,-290.08 453,-259.58 561.25,-259.58 561.25,-290.08"/>
<text xml:space="preserve" text-anchor="start" x="461" y="-276.58" font-family="Helvetica,sans-Serif" font-size="10.00">llvm::ilist_node_traits</text>
<text xml:space="preserve" text-anchor="middle" x="507.12" y="-265.33" font-family="Helvetica,sans-Serif" font-size="10.00">&lt; NodeTy &gt;</text>
</a>
</g>
</g>
<!-- Node10&#45;&gt;Node13 -->
<g id="edge13_Node000013_Node000010" class="edge">
<title>Node10&#45;&gt;Node13</title>
<g id="a_edge13_Node000013_Node000010"><a xlink:title=" ">
<path fill="none" stroke="#63b8ff" d="M257.19,-312.18C314.91,-303.52 398.63,-290.96 452.73,-282.84"/>
<polygon fill="#63b8ff" stroke="#63b8ff" points="256.88,-308.69 247.51,-313.63 257.92,-315.61 256.88,-308.69"/>
</a>
</g>
</g>
<!-- Node11 -->
<g id="Node000011" class="node">
<title>Node11</title>
<g id="a_Node000011"><a xlink:href="structllvm_1_1ilist__callback__traits.html" target="_top" xlink:title="Callbacks do nothing by default in iplist and ilist.">
<polygon fill="white" stroke="#666666" points="240,-284.08 143.75,-284.08 143.75,-253.58 240,-253.58 240,-284.08"/>
<text xml:space="preserve" text-anchor="start" x="151.75" y="-270.58" font-family="Helvetica,sans-Serif" font-size="10.00">llvm::ilist_callback</text>
<text xml:space="preserve" text-anchor="middle" x="191.88" y="-259.33" font-family="Helvetica,sans-Serif" font-size="10.00">_traits&lt; NodeTy &gt;</text>
</a>
</g>
</g>
<!-- Node11&#45;&gt;Node9 -->
<g id="edge10_Node000009_Node000011" class="edge">
<title>Node11&#45;&gt;Node9</title>
<g id="a_edge10_Node000009_Node000011"><a xlink:title=" ">
<path fill="none" stroke="#63b8ff" d="M251.58,-279.14C309.32,-289.28 396.7,-304.62 452.58,-314.43"/>
<polygon fill="#63b8ff" stroke="#63b8ff" points="252.4,-275.73 241.94,-277.45 251.19,-282.62 252.4,-275.73"/>
</a>
</g>
</g>
<!-- Node11&#45;&gt;Node13 -->
<g id="edge14_Node000013_Node000011" class="edge">
<title>Node11&#45;&gt;Node13</title>
<g id="a_edge14_Node000013_Node000011"><a xlink:title=" ">
<path fill="none" stroke="#63b8ff" d="M251.95,-269.96C309.68,-271.07 396.81,-272.74 452.58,-273.81"/>
<polygon fill="#63b8ff" stroke="#63b8ff" points="252.03,-266.46 241.96,-269.77 251.9,-273.46 252.03,-266.46"/>
</a>
</g>
</g>
<!-- Node12 -->
<g id="Node000012" class="node">
<title>Node12</title>
<g id="a_Node000012"><a xlink:href="structllvm_1_1ilist__traits.html" target="_top" xlink:title="Template traits for intrusive list.">
<polygon fill="white" stroke="#666666" points="750.88,-290.08 668.88,-290.08 668.88,-259.58 750.88,-259.58 750.88,-290.08"/>
<text xml:space="preserve" text-anchor="start" x="676.88" y="-276.58" font-family="Helvetica,sans-Serif" font-size="10.00">llvm::ilist_traits</text>
<text xml:space="preserve" text-anchor="middle" x="709.88" y="-265.33" font-family="Helvetica,sans-Serif" font-size="10.00">&lt; NodeTy &gt;</text>
</a>
</g>
</g>
<!-- Node12&#45;&gt;Node3 -->
<g id="edge11_Node000003_Node000012" class="edge">
<title>Node12&#45;&gt;Node3</title>
<g id="a_edge11_Node000003_Node000012"><a xlink:title=" ">
<path fill="none" stroke="orange" stroke-dasharray="5,2" d="M762.67,-274.83C802.46,-274.83 857.18,-274.83 897.11,-274.83"/>
<polygon fill="orange" stroke="orange" points="762.87,-271.33 752.87,-274.83 762.87,-278.33 762.87,-271.33"/>
</a>
</g>
<text xml:space="preserve" text-anchor="start" x="820.62" y="-280.83" font-family="Helvetica,sans-Serif" font-size="10.00" fill="grey">&lt; T &gt;</text>
</g>
<!-- Node13&#45;&gt;Node12 -->
<g id="edge12_Node000012_Node000013" class="edge">
<title>Node13&#45;&gt;Node12</title>
<g id="a_edge12_Node000012_Node000013"><a xlink:title=" ">
<path fill="none" stroke="#63b8ff" d="M572.97,-274.83C604.4,-274.83 641.16,-274.83 668.52,-274.83"/>
<polygon fill="#63b8ff" stroke="#63b8ff" points="573.17,-271.33 563.17,-274.83 573.17,-278.33 573.17,-271.33"/>
</a>
</g>
</g>
<!-- Node14 -->
<g id="Node000014" class="node">
<title>Node14</title>
<g id="a_Node000014"><a xlink:href="classllvm_1_1simple__ilist.html" target="_top" xlink:title=" ">
<polygon fill="white" stroke="#666666" points="994.88,-204.08 906.12,-204.08 906.12,-173.58 994.88,-173.58 994.88,-204.08"/>
<text xml:space="preserve" text-anchor="start" x="914.12" y="-190.58" font-family="Helvetica,sans-Serif" font-size="10.00">llvm::simple_ilist</text>
<text xml:space="preserve" text-anchor="middle" x="950.5" y="-179.33" font-family="Helvetica,sans-Serif" font-size="10.00">&lt; T, Options... &gt;</text>
</a>
</g>
</g>
<!-- Node14&#45;&gt;Node2 -->
<g id="edge15_Node000002_Node000014" class="edge">
<title>Node14&#45;&gt;Node2</title>
<g id="a_edge15_Node000002_Node000014"><a xlink:title=" ">
<path fill="none" stroke="#8b1a1a" d="M1006.64,-188.83C1044.66,-188.83 1095.35,-188.83 1135.21,-188.83"/>
<polygon fill="#8b1a1a" stroke="#8b1a1a" points="1006.78,-185.33 996.78,-188.83 1006.78,-192.33 1006.78,-185.33"/>
</a>
</g>
</g>
<!-- Node15 -->
<g id="Node000015" class="node">
<title>Node15</title>
<g id="a_Node000015"><a xlink:href="classllvm_1_1ilist__base.html" target="_top" xlink:title=" ">
<polygon fill="white" stroke="#666666" points="577.75,-237.71 436.5,-237.71 436.5,-195.96 577.75,-195.96 577.75,-237.71"/>
<text xml:space="preserve" text-anchor="start" x="444.5" y="-224.21" font-family="Helvetica,sans-Serif" font-size="10.00">ilist_detail::compute</text>
<text xml:space="preserve" text-anchor="start" x="444.5" y="-212.96" font-family="Helvetica,sans-Serif" font-size="10.00">_node_options&lt; T, Options...</text>
<text xml:space="preserve" text-anchor="middle" x="507.12" y="-201.71" font-family="Helvetica,sans-Serif" font-size="10.00"> &gt;::type::list_base_type</text>
</a>
</g>
</g>
<!-- Node15&#45;&gt;Node14 -->
<g id="edge16_Node000014_Node000015" class="edge">
<title>Node15&#45;&gt;Node14</title>
<g id="a_edge16_Node000014_Node000015"><a xlink:title=" ">
<path fill="none" stroke="#8b1a1a" d="M589.25,-221.15C663.17,-223.69 775.14,-224.05 871.25,-209.83 882.66,-208.14 894.79,-205.38 906.01,-202.41"/>
<polygon fill="#8b1a1a" stroke="#8b1a1a" points="589.81,-217.66 579.69,-220.79 589.55,-224.66 589.81,-217.66"/>
</a>
</g>
</g>
<!-- Node20 -->
<g id="Node000020" class="node">
<title>Node20</title>
<g id="a_Node000020"><a xlink:href="classllvm_1_1simple__ilist.html" target="_top" xlink:title="A simple intrusive list implementation.">
<polygon fill="white" stroke="#666666" points="754.25,-204.08 665.5,-204.08 665.5,-173.58 754.25,-173.58 754.25,-204.08"/>
<text xml:space="preserve" text-anchor="start" x="673.5" y="-190.58" font-family="Helvetica,sans-Serif" font-size="10.00">llvm::simple_ilist</text>
<text xml:space="preserve" text-anchor="middle" x="709.88" y="-179.33" font-family="Helvetica,sans-Serif" font-size="10.00">&lt; T, Options &gt;</text>
</a>
</g>
</g>
<!-- Node15&#45;&gt;Node20 -->
<g id="edge23_Node000020_Node000015" class="edge">
<title>Node15&#45;&gt;Node20</title>
<g id="a_edge23_Node000020_Node000015"><a xlink:title=" ">
<path fill="none" stroke="#8b1a1a" d="M589.42,-205.49C615.34,-201.88 643.01,-198.02 665.19,-194.92"/>
<polygon fill="#8b1a1a" stroke="#8b1a1a" points="588.98,-202.02 579.55,-206.87 589.94,-208.95 588.98,-202.02"/>
</a>
</g>
</g>
<!-- Node16 -->
<g id="Node000016" class="node">
<title>Node16</title>
<g id="a_Node000016"><a xlink:href="classllvm_1_1ilist__base.html" target="_top" xlink:title="Implementations of list algorithms using ilist_node_base.">
<polygon fill="white" stroke="#666666" points="263.25,-232.08 120.5,-232.08 120.5,-201.58 263.25,-201.58 263.25,-232.08"/>
<text xml:space="preserve" text-anchor="start" x="128.5" y="-218.58" font-family="Helvetica,sans-Serif" font-size="10.00">llvm::ilist_base&lt; Enable</text>
<text xml:space="preserve" text-anchor="middle" x="191.88" y="-207.33" font-family="Helvetica,sans-Serif" font-size="10.00">SentinelTracking, ParentTy &gt;</text>
</a>
</g>
</g>
<!-- Node16&#45;&gt;Node15 -->
<g id="edge17_Node000015_Node000016" class="edge">
<title>Node16&#45;&gt;Node15</title>
<g id="a_edge17_Node000015_Node000016"><a xlink:title=" ">
<path fill="none" stroke="orange" stroke-dasharray="5,2" d="M275.02,-216.83C325.14,-216.83 388.53,-216.83 436.23,-216.83"/>
<polygon fill="orange" stroke="orange" points="275.08,-213.33 265.08,-216.83 275.08,-220.33 275.08,-213.33"/>
</a>
</g>
<text xml:space="preserve" text-anchor="start" x="290.25" y="-238.08" font-family="Helvetica,sans-Serif" font-size="10.00" fill="grey">&lt; enable_sentinel_tracking,</text>
<text xml:space="preserve" text-anchor="start" x="290.25" y="-222.83" font-family="Helvetica,sans-Serif" font-size="10.00" fill="grey">   parent_ty &gt;</text>
</g>
<!-- Node17 -->
<g id="Node000017" class="node">
<title>Node17</title>
<g id="a_Node000017"><a xlink:href="structllvm_1_1ilist__detail_1_1SpecificNodeAccess.html" target="_top" xlink:title=" ">
<polygon fill="white" stroke="#666666" points="577.75,-177.96 436.5,-177.96 436.5,-113.71 577.75,-113.71 577.75,-177.96"/>
<text xml:space="preserve" text-anchor="start" x="444.5" y="-164.46" font-family="Helvetica,sans-Serif" font-size="10.00">llvm::ilist_detail</text>
<text xml:space="preserve" text-anchor="start" x="444.5" y="-153.21" font-family="Helvetica,sans-Serif" font-size="10.00">::SpecificNodeAccess</text>
<text xml:space="preserve" text-anchor="start" x="444.5" y="-141.96" font-family="Helvetica,sans-Serif" font-size="10.00">&lt; ilist_detail::compute</text>
<text xml:space="preserve" text-anchor="start" x="444.5" y="-130.71" font-family="Helvetica,sans-Serif" font-size="10.00">_node_options&lt; T, Options...</text>
<text xml:space="preserve" text-anchor="middle" x="507.12" y="-119.46" font-family="Helvetica,sans-Serif" font-size="10.00"> &gt;::type &gt;</text>
</a>
</g>
</g>
<!-- Node17&#45;&gt;Node14 -->
<g id="edge18_Node000014_Node000017" class="edge">
<title>Node17&#45;&gt;Node14</title>
<g id="a_edge18_Node000014_Node000017"><a xlink:title=" ">
<path fill="none" stroke="#8b1a1a" d="M589.58,-150.2C642.73,-153.39 713.58,-158.31 776,-164.83 820.31,-169.46 870.72,-176.65 905.74,-181.96"/>
<polygon fill="#8b1a1a" stroke="#8b1a1a" points="589.88,-146.71 579.69,-149.61 589.46,-153.69 589.88,-146.71"/>
</a>
</g>
</g>
<!-- Node17&#45;&gt;Node20 -->
<g id="edge24_Node000020_Node000017" class="edge">
<title>Node17&#45;&gt;Node20</title>
<g id="a_edge24_Node000020_Node000017"><a xlink:title=" ">
<path fill="none" stroke="#8b1a1a" d="M589.07,-163.17C615.09,-168.74 642.91,-174.7 665.19,-179.47"/>
<polygon fill="#8b1a1a" stroke="#8b1a1a" points="590.05,-159.8 579.54,-161.13 588.58,-166.64 590.05,-159.8"/>
</a>
</g>
</g>
<!-- Node18 -->
<g id="Node000018" class="node">
<title>Node18</title>
<g id="a_Node000018"><a xlink:href="structllvm_1_1ilist__detail_1_1NodeAccess.html" target="_top" xlink:title="An access class for ilist_node private API.">
<polygon fill="white" stroke="#666666" points="83.5,-150.08 0,-150.08 0,-119.58 83.5,-119.58 83.5,-150.08"/>
<text xml:space="preserve" text-anchor="start" x="8" y="-136.58" font-family="Helvetica,sans-Serif" font-size="10.00">llvm::ilist_detail</text>
<text xml:space="preserve" text-anchor="middle" x="41.75" y="-125.33" font-family="Helvetica,sans-Serif" font-size="10.00">::NodeAccess</text>
</a>
</g>
</g>
<!-- Node18&#45;&gt;Node17 -->
<g id="edge19_Node000017_Node000018" class="edge">
<title>Node18&#45;&gt;Node17</title>
<g id="a_edge19_Node000017_Node000018"><a xlink:title=" ">
<path fill="none" stroke="#63b8ff" d="M95.08,-137.94C143.38,-140.64 217.13,-144.35 281.25,-145.83 333.16,-147.03 391.83,-146.98 436.22,-146.66"/>
<polygon fill="#63b8ff" stroke="#63b8ff" points="95.36,-134.45 85.18,-137.38 94.96,-141.44 95.36,-134.45"/>
</a>
</g>
</g>
<!-- Node19 -->
<g id="Node000019" class="node">
<title>Node19</title>
<g id="a_Node000019"><a xlink:href="structllvm_1_1ilist__detail_1_1SpecificNodeAccess.html" target="_top" xlink:title=" ">
<polygon fill="white" stroke="#666666" points="248.62,-124.71 135.12,-124.71 135.12,-82.96 248.62,-82.96 248.62,-124.71"/>
<text xml:space="preserve" text-anchor="start" x="143.12" y="-111.21" font-family="Helvetica,sans-Serif" font-size="10.00">llvm::ilist_detail</text>
<text xml:space="preserve" text-anchor="start" x="143.12" y="-99.96" font-family="Helvetica,sans-Serif" font-size="10.00">::SpecificNodeAccess</text>
<text xml:space="preserve" text-anchor="middle" x="191.88" y="-88.71" font-family="Helvetica,sans-Serif" font-size="10.00">&lt; OptionsT &gt;</text>
</a>
</g>
</g>
<!-- Node18&#45;&gt;Node19 -->
<g id="edge21_Node000019_Node000018" class="edge">
<title>Node18&#45;&gt;Node19</title>
<g id="a_edge21_Node000019_Node000018"><a xlink:title=" ">
<path fill="none" stroke="#63b8ff" d="M94.73,-123.95C107.73,-121.23 121.72,-118.31 134.89,-115.55"/>
<polygon fill="#63b8ff" stroke="#63b8ff" points="94.17,-120.49 85.1,-125.97 95.6,-127.35 94.17,-120.49"/>
</a>
</g>
</g>
<!-- Node19&#45;&gt;Node17 -->
<g id="edge20_Node000017_Node000019" class="edge">
<title>Node19&#45;&gt;Node17</title>
<g id="a_edge20_Node000017_Node000019"><a xlink:title=" ">
<path fill="none" stroke="orange" stroke-dasharray="5,2" d="M260.19,-92.66C305.61,-87.4 366.52,-84.84 418.5,-98.08 431.43,-101.38 444.51,-107.01 456.47,-113.27"/>
<polygon fill="orange" stroke="orange" points="259.99,-89.15 250.49,-93.86 260.85,-96.1 259.99,-89.15"/>
</a>
</g>
<text xml:space="preserve" text-anchor="start" x="284.25" y="-134.58" font-family="Helvetica,sans-Serif" font-size="10.00" fill="grey">&lt; ilist_detail::compute</text>
<text xml:space="preserve" text-anchor="start" x="284.25" y="-119.33" font-family="Helvetica,sans-Serif" font-size="10.00" fill="grey">  _node_options&lt; T, Options...</text>
<text xml:space="preserve" text-anchor="start" x="284.25" y="-104.08" font-family="Helvetica,sans-Serif" font-size="10.00" fill="grey">   &gt;::type &gt;</text>
</g>
<!-- Node20&#45;&gt;Node14 -->
<g id="edge22_Node000014_Node000020" class="edge">
<title>Node20&#45;&gt;Node14</title>
<g id="a_edge22_Node000014_Node000020"><a xlink:title=" ">
<path fill="none" stroke="orange" stroke-dasharray="5,2" d="M765.94,-188.83C808.52,-188.83 866.66,-188.83 906.01,-188.83"/>
<polygon fill="orange" stroke="orange" points="766.16,-185.33 756.16,-188.83 766.16,-192.33 766.16,-185.33"/>
</a>
</g>
<text xml:space="preserve" text-anchor="start" x="797" y="-194.83" font-family="Helvetica,sans-Serif" font-size="10.00" fill="grey">&lt; T, Options... &gt;</text>
</g>
<!-- Node21 -->
<g id="Node000021" class="node">
<title>Node21</title>
<g id="a_Node000021"><a xlink:href="classllvm_1_1iplist__impl.html" target="_top" xlink:title="A wrapper around an intrusive list with callbacks and non&#45;intrusive ownership.">
<polygon fill="white" stroke="#666666" points="1011.75,-123.08 889.25,-123.08 889.25,-92.58 1011.75,-92.58 1011.75,-123.08"/>
<text xml:space="preserve" text-anchor="start" x="897.25" y="-109.58" font-family="Helvetica,sans-Serif" font-size="10.00">llvm::iplist_impl&lt;</text>
<text xml:space="preserve" text-anchor="middle" x="950.5" y="-98.33" font-family="Helvetica,sans-Serif" font-size="10.00"> IntrusiveListT, TraitsT &gt;</text>
</a>
</g>
</g>
<!-- Node21&#45;&gt;Node2 -->
<g id="edge25_Node000002_Node000021" class="edge">
<title>Node21&#45;&gt;Node2</title>
<g id="a_edge25_Node000002_Node000021"><a xlink:title=" ">
<path fill="none" stroke="orange" stroke-dasharray="5,2" d="M1023.36,-114.31C1053.19,-118.57 1087.73,-125.58 1117.5,-137.08 1136.81,-144.54 1156.5,-156.78 1171.74,-167.48"/>
<polygon fill="orange" stroke="orange" points="1024.05,-110.87 1013.67,-113.01 1023.12,-117.81 1024.05,-110.87"/>
</a>
</g>
<text xml:space="preserve" text-anchor="start" x="1032.75" y="-173.58" font-family="Helvetica,sans-Serif" font-size="10.00" fill="grey">&lt; simple_ilist&lt; T,</text>
<text xml:space="preserve" text-anchor="start" x="1032.75" y="-158.33" font-family="Helvetica,sans-Serif" font-size="10.00" fill="grey">   Options... &gt;, ilist</text>
<text xml:space="preserve" text-anchor="start" x="1032.75" y="-143.08" font-family="Helvetica,sans-Serif" font-size="10.00" fill="grey">  _traits&lt; T &gt; &gt;</text>
</g>
<!-- Node22 -->
<g id="Node000022" class="node">
<title>Node22</title>
<g id="a_Node000022"><a xlink:href="classTraitsT.html" target="_top" xlink:title=" ">
<polygon fill="white" stroke="#666666" points="733.25,-117.46 686.5,-117.46 686.5,-98.21 733.25,-98.21 733.25,-117.46"/>
<text xml:space="preserve" text-anchor="middle" x="709.88" y="-103.96" font-family="Helvetica,sans-Serif" font-size="10.00">TraitsT</text>
</a>
</g>
</g>
<!-- Node22&#45;&gt;Node21 -->
<g id="edge26_Node000021_Node000022" class="edge">
<title>Node22&#45;&gt;Node21</title>
<g id="a_edge26_Node000021_Node000022"><a xlink:title=" ">
<path fill="none" stroke="#63b8ff" d="M744.59,-107.83C782.01,-107.83 843.15,-107.83 888.92,-107.83"/>
<polygon fill="#63b8ff" stroke="#63b8ff" points="744.84,-104.33 734.84,-107.83 744.84,-111.33 744.84,-104.33"/>
</a>
</g>
</g>
<!-- Node23 -->
<g id="Node000023" class="node">
<title>Node23</title>
<g id="a_Node000023"><a xlink:href="classIntrusiveListT.html" target="_top" xlink:title=" ">
<polygon fill="white" stroke="#666666" points="747.5,-80.46 672.25,-80.46 672.25,-61.21 747.5,-61.21 747.5,-80.46"/>
<text xml:space="preserve" text-anchor="middle" x="709.88" y="-66.96" font-family="Helvetica,sans-Serif" font-size="10.00">IntrusiveListT</text>
</a>
</g>
</g>
<!-- Node23&#45;&gt;Node21 -->
<g id="edge27_Node000021_Node000023" class="edge">
<title>Node23&#45;&gt;Node21</title>
<g id="a_edge27_Node000021_Node000023"><a xlink:title=" ">
<path fill="none" stroke="#8b1a1a" d="M759.04,-78.3C796.55,-84.12 848.84,-92.22 889.15,-98.47"/>
<polygon fill="#8b1a1a" stroke="#8b1a1a" points="759.81,-74.88 749.39,-76.8 758.74,-81.8 759.81,-74.88"/>
</a>
</g>
</g>
<!-- Node25 -->
<g id="Node000025" class="node">
<title>Node25</title>
<g id="a_Node000025"><a xlink:href="classllvm_1_1iplist.html" target="_top" xlink:title=" ">
<polygon fill="white" stroke="#666666" points="2059.62,-575.46 1935.62,-575.46 1935.62,-556.21 2059.62,-556.21 2059.62,-575.46"/>
<text xml:space="preserve" text-anchor="middle" x="1997.62" y="-561.96" font-family="Helvetica,sans-Serif" font-size="10.00">llvm::iterator&lt; AliasSet &gt;</text>
</a>
</g>
</g>
<!-- Node24&#45;&gt;Node25 -->
<g id="edge29_Node000024_Node000025" class="edge">
<title>Node24&#45;&gt;Node25</title>
<g id="a_edge29_Node000024_Node000025"><a xlink:title=" ">
<path fill="none" stroke="orange" stroke-dasharray="5,2" d="M1686.91,-305.38C1688.58,-356.22 1700.48,-483.88 1776.25,-543.83 1821.78,-579.86 1890.27,-581.04 1938.8,-575.95"/>
<polygon fill="orange" stroke="orange" points="1690.41,-305.38 1686.71,-295.46 1683.42,-305.53 1690.41,-305.38"/>
</a>
</g>
<text xml:space="preserve" text-anchor="start" x="1798.38" y="-584.14" font-family="Helvetica,sans-Serif" font-size="10.00" fill="grey">&lt; AliasSet &gt;::iterator</text>
</g>
<!-- Node26 -->
<g id="Node000026" class="node">
<title>Node26</title>
<g id="a_Node000026"><a xlink:href="classllvm_1_1iplist.html" target="_top" xlink:title=" ">
<polygon fill="white" stroke="#666666" points="2047.25,-530.08 1948,-530.08 1948,-499.58 2047.25,-499.58 2047.25,-530.08"/>
<text xml:space="preserve" text-anchor="start" x="1956" y="-516.58" font-family="Helvetica,sans-Serif" font-size="10.00">llvm::const_iterator</text>
<text xml:space="preserve" text-anchor="middle" x="1997.62" y="-505.33" font-family="Helvetica,sans-Serif" font-size="10.00">&lt; AliasSet &gt;</text>
</a>
</g>
</g>
<!-- Node24&#45;&gt;Node26 -->
<g id="edge30_Node000024_Node000026" class="edge">
<title>Node24&#45;&gt;Node26</title>
<g id="a_edge30_Node000024_Node000026"><a xlink:title=" ">
<path fill="none" stroke="orange" stroke-dasharray="5,2" d="M1689.25,-304.78C1695.48,-346.92 1715.82,-441.75 1776.25,-486.83 1789.72,-496.88 1886.95,-506.22 1947.68,-511.16"/>
<polygon fill="orange" stroke="orange" points="1692.73,-304.45 1687.94,-295.01 1685.8,-305.38 1692.73,-304.45"/>
</a>
</g>
<text xml:space="preserve" text-anchor="start" x="1801.38" y="-528.82" font-family="Helvetica,sans-Serif" font-size="10.00" fill="grey">&lt; AliasSet &gt;::const</text>
<text xml:space="preserve" text-anchor="start" x="1801.38" y="-513.57" font-family="Helvetica,sans-Serif" font-size="10.00" fill="grey">  _iterator</text>
</g>
<!-- Node27 -->
<g id="Node000027" class="node">
<title>Node27</title>
<g id="a_Node000027"><a xlink:href="classllvm_1_1iplist.html" target="_top" xlink:title=" ">
<polygon fill="white" stroke="#666666" points="2054.75,-481.08 1940.5,-481.08 1940.5,-450.58 2054.75,-450.58 2054.75,-481.08"/>
<text xml:space="preserve" text-anchor="start" x="1948.5" y="-467.58" font-family="Helvetica,sans-Serif" font-size="10.00">llvm::iterator&lt; IVStride</text>
<text xml:space="preserve" text-anchor="middle" x="1997.62" y="-456.33" font-family="Helvetica,sans-Serif" font-size="10.00">Use &gt;</text>
</a>
</g>
</g>
<!-- Node24&#45;&gt;Node27 -->
<g id="edge31_Node000024_Node000027" class="edge">
<title>Node24&#45;&gt;Node27</title>
<g id="a_edge31_Node000024_Node000027"><a xlink:title=" ">
<path fill="none" stroke="orange" stroke-dasharray="5,2" d="M1691.77,-304.84C1701.43,-340.23 1726.24,-411.06 1776.25,-443.83 1802.34,-460.93 1883.88,-465.19 1940.1,-466.02"/>
<polygon fill="orange" stroke="orange" points="1695.22,-304.21 1689.34,-295.39 1688.44,-305.95 1695.22,-304.21"/>
</a>
</g>
<text xml:space="preserve" text-anchor="start" x="1789.75" y="-471.19" font-family="Helvetica,sans-Serif" font-size="10.00" fill="grey">&lt; IVStrideUse &gt;::iterator</text>
</g>
<!-- Node28 -->
<g id="Node000028" class="node">
<title>Node28</title>
<g id="a_Node000028"><a xlink:href="classllvm_1_1iplist.html" target="_top" xlink:title=" ">
<polygon fill="white" stroke="#666666" points="2047.25,-432.08 1948,-432.08 1948,-401.58 2047.25,-401.58 2047.25,-432.08"/>
<text xml:space="preserve" text-anchor="start" x="1956" y="-418.58" font-family="Helvetica,sans-Serif" font-size="10.00">llvm::const_iterator</text>
<text xml:space="preserve" text-anchor="middle" x="1997.62" y="-407.33" font-family="Helvetica,sans-Serif" font-size="10.00">&lt; IVStrideUse &gt;</text>
</a>
</g>
</g>
<!-- Node24&#45;&gt;Node28 -->
<g id="edge32_Node000024_Node000028" class="edge">
<title>Node24&#45;&gt;Node28</title>
<g id="a_edge32_Node000024_Node000028"><a xlink:title=" ">
<path fill="none" stroke="orange" stroke-dasharray="5,2" d="M1697.55,-303.54C1712.01,-327.83 1740.09,-368.29 1776.25,-387.83 1791,-395.8 1887.24,-406.31 1947.56,-412.24"/>
<polygon fill="orange" stroke="orange" points="1700.64,-301.9 1692.64,-294.96 1694.57,-305.38 1700.64,-301.9"/>
</a>
</g>
<text xml:space="preserve" text-anchor="start" x="1792.75" y="-429.34" font-family="Helvetica,sans-Serif" font-size="10.00" fill="grey">&lt; IVStrideUse &gt;::const</text>
<text xml:space="preserve" text-anchor="start" x="1792.75" y="-414.09" font-family="Helvetica,sans-Serif" font-size="10.00" fill="grey">  _iterator</text>
</g>
<!-- Node29 -->
<g id="Node000029" class="node">
<title>Node29</title>
<g id="a_Node000029"><a xlink:href="classllvm_1_1iplist.html" target="_top" xlink:title=" ">
<polygon fill="white" stroke="#666666" points="2066.75,-383.71 1928.5,-383.71 1928.5,-341.96 2066.75,-341.96 2066.75,-383.71"/>
<text xml:space="preserve" text-anchor="start" x="1936.5" y="-370.21" font-family="Helvetica,sans-Serif" font-size="10.00">llvm::iplist&lt; T, Options...</text>
<text xml:space="preserve" text-anchor="start" x="1936.5" y="-358.96" font-family="Helvetica,sans-Serif" font-size="10.00"> &gt;&lt; MachineInstr, ilist</text>
<text xml:space="preserve" text-anchor="middle" x="1997.62" y="-347.71" font-family="Helvetica,sans-Serif" font-size="10.00">_sentinel_tracking&lt; true &gt; &gt;</text>
</a>
</g>
</g>
<!-- Node24&#45;&gt;Node29 -->
<g id="edge33_Node000024_Node000029" class="edge">
<title>Node24&#45;&gt;Node29</title>
<g id="a_edge33_Node000024_Node000029"><a xlink:title=" ">
<path fill="none" stroke="orange" stroke-dasharray="5,2" d="M1716.12,-298.69C1733.28,-306.84 1755.57,-316.54 1776.25,-322.83 1826.1,-337.99 1884.14,-348.24 1928.14,-354.57"/>
<polygon fill="orange" stroke="orange" points="1718.05,-295.73 1707.52,-294.52 1714.99,-302.03 1718.05,-295.73"/>
</a>
</g>
<text xml:space="preserve" text-anchor="start" x="1779.25" y="-372.49" font-family="Helvetica,sans-Serif" font-size="10.00" fill="grey">&lt; MachineInstr, ilist</text>
<text xml:space="preserve" text-anchor="start" x="1779.25" y="-357.24" font-family="Helvetica,sans-Serif" font-size="10.00" fill="grey">  _sentinel_tracking&lt; true &gt; &gt;</text>
</g>
<!-- Node30 -->
<g id="Node000030" class="node">
<title>Node30</title>
<g id="a_Node000030"><a xlink:href="classllvm_1_1iplist.html" target="_top" xlink:title=" ">
<polygon fill="white" stroke="#666666" points="2062.25,-324.08 1933,-324.08 1933,-293.58 2062.25,-293.58 2062.25,-324.08"/>
<text xml:space="preserve" text-anchor="start" x="1941" y="-310.58" font-family="Helvetica,sans-Serif" font-size="10.00">llvm::iplist&lt; T, Options...</text>
<text xml:space="preserve" text-anchor="middle" x="1997.62" y="-299.33" font-family="Helvetica,sans-Serif" font-size="10.00"> &gt;&lt; MachineBasicBlock &gt;</text>
</a>
</g>
</g>
<!-- Node24&#45;&gt;Node30 -->
<g id="edge34_Node000024_Node000030" class="edge">
<title>Node24&#45;&gt;Node30</title>
<g id="a_edge34_Node000024_Node000030"><a xlink:title=" ">
<path fill="none" stroke="orange" stroke-dasharray="5,2" d="M1762.9,-289.98C1814.98,-294.18 1883.25,-299.68 1932.55,-303.66"/>
<polygon fill="orange" stroke="orange" points="1763.47,-286.51 1753.22,-289.19 1762.9,-293.49 1763.47,-286.51"/>
</a>
</g>
<text xml:space="preserve" text-anchor="start" x="1791.25" y="-307.44" font-family="Helvetica,sans-Serif" font-size="10.00" fill="grey">&lt; MachineBasicBlock &gt;</text>
</g>
<!-- Node31 -->
<g id="Node000031" class="node">
<title>Node31</title>
<g id="a_Node000031"><a xlink:href="classllvm_1_1iplist.html" target="_top" xlink:title=" ">
<polygon fill="white" stroke="#666666" points="2047.25,-275.08 1948,-275.08 1948,-244.58 2047.25,-244.58 2047.25,-275.08"/>
<text xml:space="preserve" text-anchor="start" x="1956" y="-261.58" font-family="Helvetica,sans-Serif" font-size="10.00">llvm::const_iterator</text>
<text xml:space="preserve" text-anchor="middle" x="1997.62" y="-250.33" font-family="Helvetica,sans-Serif" font-size="10.00">&lt; SDNode &gt;</text>
</a>
</g>
</g>
<!-- Node24&#45;&gt;Node31 -->
<g id="edge35_Node000024_Node000031" class="edge">
<title>Node24&#45;&gt;Node31</title>
<g id="a_edge35_Node000024_Node000031"><a xlink:title=" ">
<path fill="none" stroke="orange" stroke-dasharray="5,2" d="M1755.07,-272.13C1762.21,-271.16 1769.37,-270.28 1776.25,-269.58 1835.12,-263.61 1903.2,-261.3 1947.93,-260.4"/>
<polygon fill="orange" stroke="orange" points="1754.82,-268.64 1745.42,-273.52 1755.81,-275.56 1754.82,-268.64"/>
</a>
</g>
<text xml:space="preserve" text-anchor="start" x="1783" y="-275.58" font-family="Helvetica,sans-Serif" font-size="10.00" fill="grey">&lt; SDNode &gt;::const_iterator</text>
</g>
<!-- Node32 -->
<g id="Node000032" class="node">
<title>Node32</title>
<g id="a_Node000032"><a xlink:href="classllvm_1_1iplist.html" target="_top" xlink:title=" ">
<polygon fill="white" stroke="#666666" points="2060.38,-226.46 1934.88,-226.46 1934.88,-207.21 2060.38,-207.21 2060.38,-226.46"/>
<text xml:space="preserve" text-anchor="middle" x="1997.62" y="-212.96" font-family="Helvetica,sans-Serif" font-size="10.00">llvm::iterator&lt; SDNode &gt;</text>
</a>
</g>
</g>
<!-- Node24&#45;&gt;Node32 -->
<g id="edge36_Node000024_Node000032" class="edge">
<title>Node24&#45;&gt;Node32</title>
<g id="a_edge36_Node000024_Node000032"><a xlink:title=" ">
<path fill="none" stroke="orange" stroke-dasharray="5,2" d="M1715.66,-268.53C1736.95,-257.52 1764.19,-244.03 1776.25,-240.58 1828.41,-225.65 1889.97,-219.96 1934.75,-217.87"/>
<polygon fill="orange" stroke="orange" points="1714.08,-265.41 1706.83,-273.13 1717.32,-271.61 1714.08,-265.41"/>
</a>
</g>
<text xml:space="preserve" text-anchor="start" x="1797.62" y="-246.58" font-family="Helvetica,sans-Serif" font-size="10.00" fill="grey">&lt; SDNode &gt;::iterator</text>
</g>
<!-- Node33 -->
<g id="Node000033" class="node">
<title>Node33</title>
<g id="a_Node000033"><a xlink:href="classllvm_1_1iplist.html" target="_top" xlink:title=" ">
<polygon fill="white" stroke="#666666" points="2058.88,-189.08 1936.38,-189.08 1936.38,-158.58 2058.88,-158.58 2058.88,-189.08"/>
<text xml:space="preserve" text-anchor="start" x="1944.38" y="-175.58" font-family="Helvetica,sans-Serif" font-size="10.00">llvm::iplist&lt; T, Options...</text>
<text xml:space="preserve" text-anchor="middle" x="1997.62" y="-164.33" font-family="Helvetica,sans-Serif" font-size="10.00"> &gt;&lt; NamedMDNode &gt;</text>
</a>
</g>
</g>
<!-- Node24&#45;&gt;Node33 -->
<g id="edge37_Node000024_Node000033" class="edge">
<title>Node24&#45;&gt;Node33</title>
<g id="a_edge37_Node000024_Node000033"><a xlink:title=" ">
<path fill="none" stroke="orange" stroke-dasharray="5,2" d="M1727.93,-268.96C1738.93,-263.39 1750.03,-256.11 1758.25,-246.83 1773.43,-229.7 1758.21,-212.66 1776.25,-198.58 1821.17,-163.52 1887.8,-160.73 1936.03,-164.61"/>
<polygon fill="orange" stroke="orange" points="1726.49,-265.77 1718.88,-273.14 1729.42,-272.12 1726.49,-265.77"/>
</a>
</g>
<text xml:space="preserve" text-anchor="start" x="1799.12" y="-204.58" font-family="Helvetica,sans-Serif" font-size="10.00" fill="grey">&lt; NamedMDNode &gt;</text>
</g>
<!-- Node34 -->
<g id="Node000034" class="node">
<title>Node34</title>
<g id="a_Node000034"><a xlink:href="classllvm_1_1iplist.html" target="_top" xlink:title=" ">
<polygon fill="white" stroke="#666666" points="2058.88,-140.08 1936.38,-140.08 1936.38,-109.58 2058.88,-109.58 2058.88,-140.08"/>
<text xml:space="preserve" text-anchor="start" x="1944.38" y="-126.58" font-family="Helvetica,sans-Serif" font-size="10.00">llvm::iplist&lt; T, Options...</text>
<text xml:space="preserve" text-anchor="middle" x="1997.62" y="-115.33" font-family="Helvetica,sans-Serif" font-size="10.00"> &gt;&lt; llvm::AliasSet &gt;</text>
</a>
</g>
</g>
<!-- Node24&#45;&gt;Node34 -->
<g id="edge38_Node000024_Node000034" class="edge">
<title>Node24&#45;&gt;Node34</title>
<g id="a_edge38_Node000024_Node000034"><a xlink:title=" ">
<path fill="none" stroke="orange" stroke-dasharray="5,2" d="M1731.1,-268.86C1741.42,-263.42 1751.38,-256.22 1758.25,-246.83 1786.26,-208.52 1741.16,-173.53 1776.25,-141.58 1818.66,-102.96 1886.7,-103.73 1935.96,-111.06"/>
<polygon fill="orange" stroke="orange" points="1729.69,-265.65 1722.14,-273.08 1732.68,-271.98 1729.69,-265.65"/>
</a>
</g>
<text xml:space="preserve" text-anchor="start" x="1804" y="-147.58" font-family="Helvetica,sans-Serif" font-size="10.00" fill="grey">&lt; llvm::AliasSet &gt;</text>
</g>
<!-- Node35 -->
<g id="Node000035" class="node">
<title>Node35</title>
<g id="a_Node000035"><a xlink:href="classllvm_1_1iplist.html" target="_top" xlink:title=" ">
<polygon fill="white" stroke="#666666" points="2058.88,-91.08 1936.38,-91.08 1936.38,-60.58 2058.88,-60.58 2058.88,-91.08"/>
<text xml:space="preserve" text-anchor="start" x="1944.38" y="-77.58" font-family="Helvetica,sans-Serif" font-size="10.00">llvm::iplist&lt; T, Options...</text>
<text xml:space="preserve" text-anchor="middle" x="1997.62" y="-66.33" font-family="Helvetica,sans-Serif" font-size="10.00"> &gt;&lt; llvm::IVStrideUse &gt;</text>
</a>
</g>
</g>
<!-- Node24&#45;&gt;Node35 -->
<g id="edge39_Node000024_Node000035" class="edge">
<title>Node24&#45;&gt;Node35</title>
<g id="a_edge39_Node000024_Node000035"><a xlink:title=" ">
<path fill="none" stroke="orange" stroke-dasharray="5,2" d="M1731.76,-268.98C1741.97,-263.55 1751.72,-256.33 1758.25,-246.83 1778.67,-217.12 1749.92,-110.21 1776.25,-85.58 1819.47,-45.17 1890.79,-49.98 1940.55,-60.15"/>
<polygon fill="orange" stroke="orange" points="1730.41,-265.74 1722.86,-273.17 1733.4,-272.07 1730.41,-265.74"/>
</a>
</g>
<text xml:space="preserve" text-anchor="start" x="1795.75" y="-91.58" font-family="Helvetica,sans-Serif" font-size="10.00" fill="grey">&lt; llvm::IVStrideUse &gt;</text>
</g>
<!-- Node36 -->
<g id="Node000036" class="node">
<title>Node36</title>
<g id="a_Node000036"><a xlink:href="classllvm_1_1iplist.html" target="_top" xlink:title=" ">
<polygon fill="white" stroke="#666666" points="2058.88,-42.08 1936.38,-42.08 1936.38,-11.58 2058.88,-11.58 2058.88,-42.08"/>
<text xml:space="preserve" text-anchor="start" x="1944.38" y="-28.58" font-family="Helvetica,sans-Serif" font-size="10.00">llvm::iplist&lt; T, Options...</text>
<text xml:space="preserve" text-anchor="middle" x="1997.62" y="-17.33" font-family="Helvetica,sans-Serif" font-size="10.00"> &gt;&lt; llvm::SDNode &gt;</text>
</a>
</g>
</g>
<!-- Node24&#45;&gt;Node36 -->
<g id="edge40_Node000024_Node000036" class="edge">
<title>Node24&#45;&gt;Node36</title>
<g id="a_edge40_Node000024_Node000036"><a xlink:title=" ">
<path fill="none" stroke="orange" stroke-dasharray="5,2" d="M1732.22,-268.95C1742.33,-263.54 1751.91,-256.34 1758.25,-246.83 1784.89,-206.9 1741.27,-64.46 1776.25,-31.58 1821.42,10.88 1897.67,1.5 1947.58,-11.11"/>
<polygon fill="orange" stroke="orange" points="1730.94,-265.68 1723.41,-273.13 1733.94,-272.01 1730.94,-265.68"/>
</a>
</g>
<text xml:space="preserve" text-anchor="start" x="1803.62" y="-37.58" font-family="Helvetica,sans-Serif" font-size="10.00" fill="grey">&lt; llvm::SDNode &gt;</text>
</g>
</g>
</svg>
