<?xml version="1.0" encoding="UTF-8" standalone="no"?>
<!DOCTYPE svg PUBLIC "-//W3C//DTD SVG 1.1//EN"
 "http://www.w3.org/Graphics/SVG/1.1/DTD/svg11.dtd">
<!-- Generated by graphviz version 14.1.3 (20260303.0454)
 -->
<!-- Title: llvm::Expected&lt; T &gt; Pages: 1 -->
<svg width="476pt" height="571pt"
 viewBox="0.00 0.00 476.00 571.00" xmlns="http://www.w3.org/2000/svg" xmlns:xlink="http://www.w3.org/1999/xlink">
<g id="graph0" class="graph" transform="scale(1 1) rotate(0) translate(4 567.33)">
<title>llvm::Expected&lt; T &gt;</title>
<!-- Node1 -->
<g id="Node000001" class="node">
<title>Node1</title>
<g id="a_Node000001"><a xlink:title="Tagged union holding either a T or a Error.">
<polygon fill="#999999" stroke="#666666" points="105.25,-268.94 0,-268.94 0,-249.69 105.25,-249.69 105.25,-268.94"/>
<text xml:space="preserve" text-anchor="middle" x="52.62" y="-255.44" font-family="Helvetica,sans-Serif" font-size="10.00">llvm::Expected&lt; T &gt;</text>
</a>
</g>
</g>
<!-- Node2 -->
<g id="Node000002" class="node">
<title>Node2</title>
<g id="a_Node000002"><a xlink:href="classllvm_1_1MSVCPExpected.html" target="_top" xlink:title=" ">
<polygon fill="white" stroke="#666666" points="459.5,-549.94 318.25,-549.94 318.25,-530.69 459.5,-530.69 459.5,-549.94"/>
<text xml:space="preserve" text-anchor="middle" x="388.88" y="-536.44" font-family="Helvetica,sans-Serif" font-size="10.00">llvm::MSVCPExpected&lt; T &gt;</text>
</a>
</g>
</g>
<!-- Node1&#45;&gt;Node2 -->
<g id="edge1_Node000001_Node000002" class="edge">
<title>Node1&#45;&gt;Node2</title>
<g id="a_edge1_Node000001_Node000002"><a xlink:title=" ">
<path fill="none" stroke="#63b8ff" d="M55.97,-280.34C62.82,-337.55 84.78,-493.84 123.25,-525.31 188.42,-578.64 295.64,-563.39 351.49,-550.36"/>
<polygon fill="#63b8ff" stroke="#63b8ff" points="59.48,-280.19 54.85,-270.66 52.53,-281 59.48,-280.19"/>
</a>
</g>
</g>
<!-- Node3 -->
<g id="Node000003" class="node">
<title>Node3</title>
<g id="a_Node000003"><a xlink:href="classllvm_1_1Expected.html" target="_top" xlink:title=" ">
<polygon fill="white" stroke="#666666" points="462.88,-507.56 314.88,-507.56 314.88,-477.06 462.88,-477.06 462.88,-507.56"/>
<text xml:space="preserve" text-anchor="start" x="322.88" y="-494.06" font-family="Helvetica,sans-Serif" font-size="10.00">llvm::Expected&lt; std</text>
<text xml:space="preserve" text-anchor="middle" x="388.88" y="-482.81" font-family="Helvetica,sans-Serif" font-size="10.00">::unique_ptr&lt; InFlightAlloc &gt; &gt;</text>
</a>
</g>
</g>
<!-- Node1&#45;&gt;Node3 -->
<g id="edge2_Node000001_Node000003" class="edge">
<title>Node1&#45;&gt;Node3</title>
<g id="a_edge2_Node000001_Node000003"><a xlink:title=" ">
<path fill="none" stroke="orange" stroke-dasharray="5,2" d="M53.57,-280.71C54.73,-324.17 64.13,-422.6 123.25,-469.31 138.02,-480.98 241.56,-487.12 314.65,-490.04"/>
<polygon fill="orange" stroke="orange" points="57.07,-280.79 53.44,-270.84 50.07,-280.88 57.07,-280.79"/>
</a>
</g>
<text xml:space="preserve" text-anchor="start" x="167.12" y="-510.08" font-family="Helvetica,sans-Serif" font-size="10.00" fill="grey">&lt; std::unique_ptr&lt;</text>
<text xml:space="preserve" text-anchor="start" x="167.12" y="-494.83" font-family="Helvetica,sans-Serif" font-size="10.00" fill="grey">   InFlightAlloc &gt; &gt;</text>
</g>
<!-- Node4 -->
<g id="Node000004" class="node">
<title>Node4</title>
<g id="a_Node000004"><a xlink:href="classllvm_1_1Expected.html" target="_top" xlink:title=" ">
<polygon fill="white" stroke="#666666" points="456.5,-447.81 321.25,-447.81 321.25,-394.81 456.5,-394.81 456.5,-447.81"/>
<text xml:space="preserve" text-anchor="start" x="329.25" y="-434.31" font-family="Helvetica,sans-Serif" font-size="10.00">llvm::Expected&lt; std</text>
<text xml:space="preserve" text-anchor="start" x="329.25" y="-423.06" font-family="Helvetica,sans-Serif" font-size="10.00">::unique_ptr&lt; jitlink</text>
<text xml:space="preserve" text-anchor="start" x="329.25" y="-411.81" font-family="Helvetica,sans-Serif" font-size="10.00">::JITLinkMemoryManager</text>
<text xml:space="preserve" text-anchor="middle" x="388.88" y="-400.56" font-family="Helvetica,sans-Serif" font-size="10.00"> &gt; &gt;(SimpleRemoteEPC &amp;)</text>
</a>
</g>
</g>
<!-- Node1&#45;&gt;Node4 -->
<g id="edge3_Node000001_Node000004" class="edge">
<title>Node1&#45;&gt;Node4</title>
<g id="a_edge3_Node000001_Node000004"><a xlink:title=" ">
<path fill="none" stroke="orange" stroke-dasharray="5,2" d="M57.38,-280.3C64.28,-312.04 82.2,-371.46 123.25,-399.31 139.25,-410.17 247.91,-416.24 320.92,-419.14"/>
<polygon fill="orange" stroke="orange" points="60.87,-279.88 55.49,-270.76 54,-281.25 60.87,-279.88"/>
</a>
</g>
<text xml:space="preserve" text-anchor="start" x="136.38" y="-454.17" font-family="Helvetica,sans-Serif" font-size="10.00" fill="grey">&lt; std::unique_ptr&lt;</text>
<text xml:space="preserve" text-anchor="start" x="136.38" y="-438.92" font-family="Helvetica,sans-Serif" font-size="10.00" fill="grey">   jitlink::JITLinkMemoryManager</text>
<text xml:space="preserve" text-anchor="start" x="136.38" y="-423.67" font-family="Helvetica,sans-Serif" font-size="10.00" fill="grey">   &gt; &gt;( SimpleRemoteEPC &amp;)</text>
</g>
<!-- Node5 -->
<g id="Node000005" class="node">
<title>Node5</title>
<g id="a_Node000005"><a xlink:href="classllvm_1_1Expected.html" target="_top" xlink:title=" ">
<polygon fill="white" stroke="#666666" points="461,-371.19 316.75,-371.19 316.75,-329.44 461,-329.44 461,-371.19"/>
<text xml:space="preserve" text-anchor="start" x="324.75" y="-357.69" font-family="Helvetica,sans-Serif" font-size="10.00">llvm::Expected&lt; std</text>
<text xml:space="preserve" text-anchor="start" x="324.75" y="-346.44" font-family="Helvetica,sans-Serif" font-size="10.00">::unique_ptr&lt; MemoryAccess</text>
<text xml:space="preserve" text-anchor="middle" x="388.88" y="-335.19" font-family="Helvetica,sans-Serif" font-size="10.00"> &gt; &gt;(SimpleRemoteEPC &amp;)</text>
</a>
</g>
</g>
<!-- Node1&#45;&gt;Node5 -->
<g id="edge4_Node000001_Node000005" class="edge">
<title>Node1&#45;&gt;Node5</title>
<g id="a_edge4_Node000001_Node000005"><a xlink:title=" ">
<path fill="none" stroke="orange" stroke-dasharray="5,2" d="M66.63,-278.21C79.08,-294.59 99.44,-317.34 123.25,-328.31 156.43,-343.61 249.96,-348.4 316.4,-349.83"/>
<polygon fill="orange" stroke="orange" points="69.54,-276.26 60.84,-270.22 63.88,-280.37 69.54,-276.26"/>
</a>
</g>
<text xml:space="preserve" text-anchor="start" x="126.25" y="-385.6" font-family="Helvetica,sans-Serif" font-size="10.00" fill="grey">&lt; std::unique_ptr&lt;</text>
<text xml:space="preserve" text-anchor="start" x="126.25" y="-370.35" font-family="Helvetica,sans-Serif" font-size="10.00" fill="grey">   MemoryAccess &gt; &gt;(SimpleRemote</text>
<text xml:space="preserve" text-anchor="start" x="126.25" y="-355.1" font-family="Helvetica,sans-Serif" font-size="10.00" fill="grey">  EPC &amp;)</text>
</g>
<!-- Node6 -->
<g id="Node000006" class="node">
<title>Node6</title>
<g id="a_Node000006"><a xlink:href="classllvm_1_1Expected.html" target="_top" xlink:title=" ">
<polygon fill="white" stroke="#666666" points="458.75,-309.19 319,-309.19 319,-267.44 458.75,-267.44 458.75,-309.19"/>
<text xml:space="preserve" text-anchor="start" x="327" y="-295.69" font-family="Helvetica,sans-Serif" font-size="10.00">llvm::Expected&lt; std</text>
<text xml:space="preserve" text-anchor="start" x="327" y="-284.44" font-family="Helvetica,sans-Serif" font-size="10.00">::vector&lt; std::optional</text>
<text xml:space="preserve" text-anchor="middle" x="388.88" y="-273.19" font-family="Helvetica,sans-Serif" font-size="10.00">&lt; ExecutorSymbolDef &gt; &gt; &gt;</text>
</a>
</g>
</g>
<!-- Node1&#45;&gt;Node6 -->
<g id="edge5_Node000001_Node000006" class="edge">
<title>Node1&#45;&gt;Node6</title>
<g id="a_edge5_Node000001_Node000006"><a xlink:title=" ">
<path fill="none" stroke="orange" stroke-dasharray="5,2" d="M116.63,-264.78C174.24,-269.78 259.3,-277.16 318.76,-282.32"/>
<polygon fill="orange" stroke="orange" points="117.26,-261.32 106.99,-263.94 116.65,-268.3 117.26,-261.32"/>
</a>
</g>
<text xml:space="preserve" text-anchor="start" x="144.25" y="-316.25" font-family="Helvetica,sans-Serif" font-size="10.00" fill="grey">&lt; std::vector&lt; std</text>
<text xml:space="preserve" text-anchor="start" x="144.25" y="-301" font-family="Helvetica,sans-Serif" font-size="10.00" fill="grey">  ::optional&lt; ExecutorSymbol</text>
<text xml:space="preserve" text-anchor="start" x="144.25" y="-285.75" font-family="Helvetica,sans-Serif" font-size="10.00" fill="grey">  Def &gt; &gt; &gt;</text>
</g>
<!-- Node7 -->
<g id="Node000007" class="node">
<title>Node7</title>
<g id="a_Node000007"><a xlink:href="classllvm_1_1Expected.html" target="_top" xlink:title=" ">
<polygon fill="white" stroke="#666666" points="467.38,-248.94 310.38,-248.94 310.38,-229.69 467.38,-229.69 467.38,-248.94"/>
<text xml:space="preserve" text-anchor="middle" x="388.88" y="-235.44" font-family="Helvetica,sans-Serif" font-size="10.00">llvm::Expected&lt; InsertPointTy &gt;</text>
</a>
</g>
</g>
<!-- Node1&#45;&gt;Node7 -->
<g id="edge6_Node000001_Node000007" class="edge">
<title>Node1&#45;&gt;Node7</title>
<g id="a_edge6_Node000001_Node000007"><a xlink:title=" ">
<path fill="none" stroke="orange" stroke-dasharray="5,2" d="M94.45,-246.07C103.82,-243.59 113.8,-241.36 123.25,-240.06 185.61,-231.51 257.01,-231.9 309.92,-234.11"/>
<polygon fill="orange" stroke="orange" points="93.54,-242.69 84.87,-248.78 95.45,-249.43 93.54,-242.69"/>
</a>
</g>
<text xml:space="preserve" text-anchor="start" x="169.75" y="-246.06" font-family="Helvetica,sans-Serif" font-size="10.00" fill="grey">&lt; InsertPointTy &gt;</text>
</g>
<!-- Node8 -->
<g id="Node000008" class="node">
<title>Node8</title>
<g id="a_Node000008"><a xlink:href="classllvm_1_1Expected.html" target="_top" xlink:title=" ">
<polygon fill="white" stroke="#666666" points="454.25,-211.56 323.5,-211.56 323.5,-181.06 454.25,-181.06 454.25,-211.56"/>
<text xml:space="preserve" text-anchor="start" x="331.5" y="-198.06" font-family="Helvetica,sans-Serif" font-size="10.00">llvm::Expected&lt; MapInfos</text>
<text xml:space="preserve" text-anchor="middle" x="388.88" y="-186.81" font-family="Helvetica,sans-Serif" font-size="10.00">Ty &amp; &gt;</text>
</a>
</g>
</g>
<!-- Node1&#45;&gt;Node8 -->
<g id="edge7_Node000001_Node000008" class="edge">
<title>Node1&#45;&gt;Node8</title>
<g id="a_edge7_Node000001_Node000008"><a xlink:title=" ">
<path fill="none" stroke="orange" stroke-dasharray="5,2" d="M72.48,-241.92C85.65,-230.93 104.22,-217.6 123.25,-211.06 188.64,-188.61 268.42,-187.43 323.19,-190.29"/>
<polygon fill="orange" stroke="orange" points="70.29,-239.18 65.05,-248.39 74.89,-244.46 70.29,-239.18"/>
</a>
</g>
<text xml:space="preserve" text-anchor="start" x="168.25" y="-217.06" font-family="Helvetica,sans-Serif" font-size="10.00" fill="grey">&lt; MapInfosTy &amp; &gt;</text>
</g>
<!-- Node9 -->
<g id="Node000009" class="node">
<title>Node9</title>
<g id="a_Node000009"><a xlink:href="classllvm_1_1Expected.html" target="_top" xlink:title=" ">
<polygon fill="white" stroke="#666666" points="467.75,-158.56 310,-158.56 310,-128.06 467.75,-128.06 467.75,-158.56"/>
<text xml:space="preserve" text-anchor="start" x="318" y="-145.06" font-family="Helvetica,sans-Serif" font-size="10.00">llvm::Expected&lt; JITLinkMemory</text>
<text xml:space="preserve" text-anchor="middle" x="388.88" y="-133.81" font-family="Helvetica,sans-Serif" font-size="10.00">Manager::FinalizedAlloc &gt;</text>
</a>
</g>
</g>
<!-- Node1&#45;&gt;Node9 -->
<g id="edge8_Node000001_Node000009" class="edge">
<title>Node1&#45;&gt;Node9</title>
<g id="a_edge8_Node000001_Node000009"><a xlink:title=" ">
<path fill="none" stroke="orange" stroke-dasharray="5,2" d="M60.4,-238.76C69.95,-213.46 90.04,-171.56 123.25,-152.81 179.6,-121.01 253.98,-121.31 309.53,-128.02"/>
<polygon fill="orange" stroke="orange" points="57.18,-237.35 57.14,-247.95 63.78,-239.69 57.18,-237.35"/>
</a>
</g>
<text xml:space="preserve" text-anchor="start" x="150.62" y="-174.06" font-family="Helvetica,sans-Serif" font-size="10.00" fill="grey">&lt; JITLinkMemoryManager</text>
<text xml:space="preserve" text-anchor="start" x="150.62" y="-158.81" font-family="Helvetica,sans-Serif" font-size="10.00" fill="grey">  ::FinalizedAlloc &gt;</text>
</g>
<!-- Node10 -->
<g id="Node000010" class="node">
<title>Node10</title>
<g id="a_Node000010"><a xlink:href="classllvm_1_1Expected.html" target="_top" xlink:title=" ">
<polygon fill="white" stroke="#666666" points="447.12,-93.19 330.62,-93.19 330.62,-51.44 447.12,-51.44 447.12,-93.19"/>
<text xml:space="preserve" text-anchor="start" x="338.62" y="-79.69" font-family="Helvetica,sans-Serif" font-size="10.00">llvm::Expected&lt; APInt</text>
<text xml:space="preserve" text-anchor="start" x="338.62" y="-68.44" font-family="Helvetica,sans-Serif" font-size="10.00"> &gt;(*)(const APInt &amp;,</text>
<text xml:space="preserve" text-anchor="middle" x="388.88" y="-57.19" font-family="Helvetica,sans-Serif" font-size="10.00"> const APInt &amp;, bool &amp;)</text>
</a>
</g>
</g>
<!-- Node1&#45;&gt;Node10 -->
<g id="edge9_Node000001_Node000010" class="edge">
<title>Node1&#45;&gt;Node10</title>
<g id="a_edge9_Node000001_Node000010"><a xlink:title=" ">
<path fill="none" stroke="orange" stroke-dasharray="5,2" d="M54.23,-237.94C56.68,-197.56 68.39,-110.7 123.25,-72.56 155.5,-50.14 262.74,-57.56 330.39,-64.96"/>
<polygon fill="orange" stroke="orange" points="50.74,-237.64 53.79,-247.78 57.74,-237.95 50.74,-237.64"/>
</a>
</g>
<text xml:space="preserve" text-anchor="start" x="157.75" y="-109.06" font-family="Helvetica,sans-Serif" font-size="10.00" fill="grey">&lt; APInt &gt;(*)(const</text>
<text xml:space="preserve" text-anchor="start" x="157.75" y="-93.81" font-family="Helvetica,sans-Serif" font-size="10.00" fill="grey">   APInt &amp;, const APInt</text>
<text xml:space="preserve" text-anchor="start" x="157.75" y="-78.56" font-family="Helvetica,sans-Serif" font-size="10.00" fill="grey">   &amp;, bool &amp;)</text>
</g>
<!-- Node11 -->
<g id="Node000011" class="node">
<title>Node11</title>
<g id="a_Node000011"><a xlink:href="classllvm_1_1Expected.html" target="_top" xlink:title=" ">
<polygon fill="white" stroke="#666666" points="450.5,-32.94 327.25,-32.94 327.25,-13.69 450.5,-13.69 450.5,-32.94"/>
<text xml:space="preserve" text-anchor="middle" x="388.88" y="-19.44" font-family="Helvetica,sans-Serif" font-size="10.00">llvm::Expected&lt; APInt &gt;</text>
</a>
</g>
</g>
<!-- Node1&#45;&gt;Node11 -->
<g id="edge10_Node000001_Node000011" class="edge">
<title>Node1&#45;&gt;Node11</title>
<g id="a_edge10_Node000001_Node000011"><a xlink:title=" ">
<path fill="none" stroke="orange" stroke-dasharray="5,2" d="M52.94,-238.28C52.73,-192.8 59.39,-85.45 123.25,-36.06 189.83,15.43 296.45,-0.18 351.84,-13.27"/>
<polygon fill="orange" stroke="orange" points="49.43,-238.15 53.12,-248.08 56.43,-238.02 49.43,-238.15"/>
</a>
</g>
<text xml:space="preserve" text-anchor="start" x="186.62" y="-42.06" font-family="Helvetica,sans-Serif" font-size="10.00" fill="grey">&lt; APInt &gt;</text>
</g>
</g>
</svg>
