<?xml version="1.0" encoding="UTF-8" standalone="no"?>
<!DOCTYPE svg PUBLIC "-//W3C//DTD SVG 1.1//EN"
 "http://www.w3.org/Graphics/SVG/1.1/DTD/svg11.dtd">
<!-- Generated by graphviz version 14.1.3 (20260303.0454)
 -->
<!-- Title: llvm::SymbolTableList&lt; T, Args &gt; Pages: 1 -->
<svg width="1902pt" height="378pt"
 viewBox="0.00 0.00 1902.00 378.00" xmlns="http://www.w3.org/2000/svg" xmlns:xlink="http://www.w3.org/1999/xlink">
<g id="graph0" class="graph" transform="scale(1 1) rotate(0) translate(4 374.31)">
<title>llvm::SymbolTableList&lt; T, Args &gt;</title>
<!-- Node1 -->
<g id="Node000001" class="node">
<title>Node1</title>
<g id="a_Node000001"><a xlink:title="List that automatically updates parent links and symbol tables.">
<polygon fill="#999999" stroke="#666666" points="1561,-177.5 1449,-177.5 1449,-147 1561,-147 1561,-177.5"/>
<text xml:space="preserve" text-anchor="start" x="1457" y="-164" font-family="Helvetica,sans-Serif" font-size="10.00">llvm::SymbolTableList</text>
<text xml:space="preserve" text-anchor="middle" x="1505" y="-152.75" font-family="Helvetica,sans-Serif" font-size="10.00">&lt; T, Args &gt;</text>
</a>
</g>
</g>
<!-- Node18 -->
<g id="Node000018" class="node">
<title>Node18</title>
<g id="a_Node000018"><a xlink:href="classllvm_1_1SymbolTableList.html" target="_top" xlink:title=" ">
<polygon fill="white" stroke="#666666" points="1893.5,-346.75 1747.75,-346.75 1747.75,-293.75 1893.5,-293.75 1893.5,-346.75"/>
<text xml:space="preserve" text-anchor="start" x="1755.75" y="-333.25" font-family="Helvetica,sans-Serif" font-size="10.00">llvm::SymbolTableList</text>
<text xml:space="preserve" text-anchor="start" x="1755.75" y="-322" font-family="Helvetica,sans-Serif" font-size="10.00">&lt; Instruction, ilist</text>
<text xml:space="preserve" text-anchor="start" x="1755.75" y="-310.75" font-family="Helvetica,sans-Serif" font-size="10.00">_iterator_bits&lt; true &gt;</text>
<text xml:space="preserve" text-anchor="middle" x="1820.62" y="-299.5" font-family="Helvetica,sans-Serif" font-size="10.00">, ilist_parent&lt; BasicBlock &gt; &gt;</text>
</a>
</g>
</g>
<!-- Node1&#45;&gt;Node18 -->
<g id="edge21_Node000001_Node000018" class="edge">
<title>Node1&#45;&gt;Node18</title>
<g id="a_edge21_Node000001_Node000018"><a xlink:title=" ">
<path fill="none" stroke="orange" stroke-dasharray="5,2" d="M1514.87,-188.68C1525.55,-216.2 1546.26,-258.3 1579,-280.25 1628.5,-313.45 1696.31,-322.23 1747.33,-323.41"/>
<polygon fill="orange" stroke="orange" points="1518.16,-187.48 1511.42,-179.3 1511.59,-189.89 1518.16,-187.48"/>
</a>
</g>
<text xml:space="preserve" text-anchor="start" x="1582" y="-359.06" font-family="Helvetica,sans-Serif" font-size="10.00" fill="grey">&lt; Instruction, ilist</text>
<text xml:space="preserve" text-anchor="start" x="1582" y="-343.81" font-family="Helvetica,sans-Serif" font-size="10.00" fill="grey">  _iterator_bits&lt; true</text>
<text xml:space="preserve" text-anchor="start" x="1582" y="-328.56" font-family="Helvetica,sans-Serif" font-size="10.00" fill="grey">   &gt;, ilist_parent&lt; BasicBlock &gt; &gt;</text>
</g>
<!-- Node19 -->
<g id="Node000019" class="node">
<title>Node19</title>
<g id="a_Node000019"><a xlink:href="classllvm_1_1SymbolTableList.html" target="_top" xlink:title=" ">
<polygon fill="white" stroke="#666666" points="1876.62,-275.5 1764.62,-275.5 1764.62,-245 1876.62,-245 1876.62,-275.5"/>
<text xml:space="preserve" text-anchor="start" x="1772.62" y="-262" font-family="Helvetica,sans-Serif" font-size="10.00">llvm::SymbolTableList</text>
<text xml:space="preserve" text-anchor="middle" x="1820.62" y="-250.75" font-family="Helvetica,sans-Serif" font-size="10.00">&lt; BasicBlock &gt;</text>
</a>
</g>
</g>
<!-- Node1&#45;&gt;Node19 -->
<g id="edge22_Node000001_Node000019" class="edge">
<title>Node1&#45;&gt;Node19</title>
<g id="a_edge22_Node000001_Node000019"><a xlink:title=" ">
<path fill="none" stroke="orange" stroke-dasharray="5,2" d="M1526.74,-185.92C1540.21,-199.69 1558.95,-216.1 1579,-225.25 1638.52,-252.42 1714.18,-259.52 1764.61,-260.89"/>
<polygon fill="orange" stroke="orange" points="1529.51,-183.75 1520.11,-178.87 1524.41,-188.55 1529.51,-183.75"/>
</a>
</g>
<text xml:space="preserve" text-anchor="start" x="1620.62" y="-264.71" font-family="Helvetica,sans-Serif" font-size="10.00" fill="grey">&lt; BasicBlock &gt;</text>
</g>
<!-- Node20 -->
<g id="Node000020" class="node">
<title>Node20</title>
<g id="a_Node000020"><a xlink:href="classllvm_1_1SymbolTableList.html" target="_top" xlink:title=" ">
<polygon fill="white" stroke="#666666" points="1876.62,-226.5 1764.62,-226.5 1764.62,-196 1876.62,-196 1876.62,-226.5"/>
<text xml:space="preserve" text-anchor="start" x="1772.62" y="-213" font-family="Helvetica,sans-Serif" font-size="10.00">llvm::SymbolTableList</text>
<text xml:space="preserve" text-anchor="middle" x="1820.62" y="-201.75" font-family="Helvetica,sans-Serif" font-size="10.00">&lt; GlobalVariable &gt;</text>
</a>
</g>
</g>
<!-- Node1&#45;&gt;Node20 -->
<g id="edge23_Node000001_Node000020" class="edge">
<title>Node1&#45;&gt;Node20</title>
<g id="a_edge23_Node000001_Node000020"><a xlink:title=" ">
<path fill="none" stroke="orange" stroke-dasharray="5,2" d="M1567.4,-180.69C1571.31,-181.62 1575.2,-182.49 1579,-183.25 1641.88,-195.86 1715.24,-203.39 1764.27,-207.41"/>
<polygon fill="orange" stroke="orange" points="1568.41,-177.34 1557.86,-178.28 1566.7,-184.12 1568.41,-177.34"/>
</a>
</g>
<text xml:space="preserve" text-anchor="start" x="1614.25" y="-210.1" font-family="Helvetica,sans-Serif" font-size="10.00" fill="grey">&lt; GlobalVariable &gt;</text>
</g>
<!-- Node21 -->
<g id="Node000021" class="node">
<title>Node21</title>
<g id="a_Node000021"><a xlink:href="classllvm_1_1SymbolTableList.html" target="_top" xlink:title=" ">
<polygon fill="white" stroke="#666666" points="1876.62,-177.5 1764.62,-177.5 1764.62,-147 1876.62,-147 1876.62,-177.5"/>
<text xml:space="preserve" text-anchor="start" x="1772.62" y="-164" font-family="Helvetica,sans-Serif" font-size="10.00">llvm::SymbolTableList</text>
<text xml:space="preserve" text-anchor="middle" x="1820.62" y="-152.75" font-family="Helvetica,sans-Serif" font-size="10.00">&lt; Function &gt;</text>
</a>
</g>
</g>
<!-- Node1&#45;&gt;Node21 -->
<g id="edge24_Node000001_Node000021" class="edge">
<title>Node1&#45;&gt;Node21</title>
<g id="a_edge24_Node000001_Node000021"><a xlink:title=" ">
<path fill="none" stroke="orange" stroke-dasharray="5,2" d="M1572.77,-162.25C1629.8,-162.25 1710.85,-162.25 1764.3,-162.25"/>
<polygon fill="orange" stroke="orange" points="1572.86,-158.75 1562.86,-162.25 1572.86,-165.75 1572.86,-158.75"/>
</a>
</g>
<text xml:space="preserve" text-anchor="start" x="1626.62" y="-168.25" font-family="Helvetica,sans-Serif" font-size="10.00" fill="grey">&lt; Function &gt;</text>
</g>
<!-- Node22 -->
<g id="Node000022" class="node">
<title>Node22</title>
<g id="a_Node000022"><a xlink:href="classllvm_1_1SymbolTableList.html" target="_top" xlink:title=" ">
<polygon fill="white" stroke="#666666" points="1876.62,-128.5 1764.62,-128.5 1764.62,-98 1876.62,-98 1876.62,-128.5"/>
<text xml:space="preserve" text-anchor="start" x="1772.62" y="-115" font-family="Helvetica,sans-Serif" font-size="10.00">llvm::SymbolTableList</text>
<text xml:space="preserve" text-anchor="middle" x="1820.62" y="-103.75" font-family="Helvetica,sans-Serif" font-size="10.00">&lt; GlobalAlias &gt;</text>
</a>
</g>
</g>
<!-- Node1&#45;&gt;Node22 -->
<g id="edge25_Node000001_Node000022" class="edge">
<title>Node1&#45;&gt;Node22</title>
<g id="a_edge25_Node000001_Node000022"><a xlink:title=" ">
<path fill="none" stroke="orange" stroke-dasharray="5,2" d="M1566.62,-143.77C1570.79,-142.75 1574.94,-141.82 1579,-141 1641.86,-128.32 1715.22,-120.9 1764.26,-116.97"/>
<polygon fill="orange" stroke="orange" points="1565.87,-140.34 1557.06,-146.22 1567.62,-147.12 1565.87,-140.34"/>
</a>
</g>
<text xml:space="preserve" text-anchor="start" x="1620.62" y="-147" font-family="Helvetica,sans-Serif" font-size="10.00" fill="grey">&lt; GlobalAlias &gt;</text>
</g>
<!-- Node23 -->
<g id="Node000023" class="node">
<title>Node23</title>
<g id="a_Node000023"><a xlink:href="classllvm_1_1SymbolTableList.html" target="_top" xlink:title=" ">
<polygon fill="white" stroke="#666666" points="1876.62,-79.5 1764.62,-79.5 1764.62,-49 1876.62,-49 1876.62,-79.5"/>
<text xml:space="preserve" text-anchor="start" x="1772.62" y="-66" font-family="Helvetica,sans-Serif" font-size="10.00">llvm::SymbolTableList</text>
<text xml:space="preserve" text-anchor="middle" x="1820.62" y="-54.75" font-family="Helvetica,sans-Serif" font-size="10.00">&lt; GlobalIFunc &gt;</text>
</a>
</g>
</g>
<!-- Node1&#45;&gt;Node23 -->
<g id="edge26_Node000001_Node000023" class="edge">
<title>Node1&#45;&gt;Node23</title>
<g id="a_edge26_Node000001_Node000023"><a xlink:title=" ">
<path fill="none" stroke="orange" stroke-dasharray="5,2" d="M1526.72,-138.48C1540.18,-124.65 1558.92,-108.18 1579,-99 1638.5,-71.8 1714.16,-64.8 1764.6,-63.51"/>
<polygon fill="orange" stroke="orange" points="1524.37,-135.87 1520.09,-145.56 1529.48,-140.65 1524.37,-135.87"/>
</a>
</g>
<text xml:space="preserve" text-anchor="start" x="1619.12" y="-105" font-family="Helvetica,sans-Serif" font-size="10.00" fill="grey">&lt; GlobalIFunc &gt;</text>
</g>
<!-- Node24 -->
<g id="Node000024" class="node">
<title>Node24</title>
<g id="a_Node000024"><a xlink:href="classllvm_1_1SymbolTableList.html" target="_top" xlink:title=" ">
<polygon fill="white" stroke="#666666" points="1888.25,-30.5 1753,-30.5 1753,0 1888.25,0 1888.25,-30.5"/>
<text xml:space="preserve" text-anchor="start" x="1761" y="-17" font-family="Helvetica,sans-Serif" font-size="10.00">llvm::SymbolTableList</text>
<text xml:space="preserve" text-anchor="middle" x="1820.62" y="-5.75" font-family="Helvetica,sans-Serif" font-size="10.00">&lt; ValueSubClass, Args... &gt;</text>
</a>
</g>
</g>
<!-- Node1&#45;&gt;Node24 -->
<g id="edge27_Node000001_Node000024" class="edge">
<title>Node1&#45;&gt;Node24</title>
<g id="a_edge27_Node000001_Node000024"><a xlink:title=" ">
<path fill="none" stroke="orange" stroke-dasharray="5,2" d="M1514.35,-136.29C1524.76,-108.48 1545.4,-65.46 1579,-44 1630.59,-11.05 1701.27,-6.27 1752.67,-8.28"/>
<polygon fill="orange" stroke="orange" points="1511.17,-134.8 1511.13,-145.39 1517.77,-137.13 1511.17,-134.8"/>
</a>
</g>
<text xml:space="preserve" text-anchor="start" x="1594.75" y="-50" font-family="Helvetica,sans-Serif" font-size="10.00" fill="grey">&lt; ValueSubClass, Args... &gt;</text>
</g>
<!-- Node2 -->
<g id="Node000002" class="node">
<title>Node2</title>
<g id="a_Node000002"><a xlink:href="classllvm_1_1iplist__impl.html" target="_top" xlink:title=" ">
<polygon fill="white" stroke="#666666" points="1412,-188.75 1284.25,-188.75 1284.25,-135.75 1412,-135.75 1412,-188.75"/>
<text xml:space="preserve" text-anchor="start" x="1292.25" y="-175.25" font-family="Helvetica,sans-Serif" font-size="10.00">llvm::iplist_impl&lt;</text>
<text xml:space="preserve" text-anchor="start" x="1292.25" y="-164" font-family="Helvetica,sans-Serif" font-size="10.00"> simple_ilist&lt; T, Args...</text>
<text xml:space="preserve" text-anchor="start" x="1292.25" y="-152.75" font-family="Helvetica,sans-Serif" font-size="10.00"> &gt;, SymbolTableListTraits</text>
<text xml:space="preserve" text-anchor="middle" x="1348.12" y="-141.5" font-family="Helvetica,sans-Serif" font-size="10.00">&lt; T, Args... &gt; &gt;</text>
</a>
</g>
</g>
<!-- Node2&#45;&gt;Node1 -->
<g id="edge1_Node000001_Node000002" class="edge">
<title>Node2&#45;&gt;Node1</title>
<g id="a_edge1_Node000001_Node000002"><a xlink:title=" ">
<path fill="none" stroke="#63b8ff" d="M1423.53,-162.25C1431.95,-162.25 1440.41,-162.25 1448.52,-162.25"/>
<polygon fill="#63b8ff" stroke="#63b8ff" points="1423.63,-158.75 1413.63,-162.25 1423.63,-165.75 1423.63,-158.75"/>
</a>
</g>
</g>
<!-- Node3 -->
<g id="Node000003" class="node">
<title>Node3</title>
<g id="a_Node000003"><a xlink:href="classllvm_1_1SymbolTableListTraits.html" target="_top" xlink:title=" ">
<polygon fill="white" stroke="#666666" points="1117.75,-279.5 981,-279.5 981,-249 1117.75,-249 1117.75,-279.5"/>
<text xml:space="preserve" text-anchor="start" x="989" y="-266" font-family="Helvetica,sans-Serif" font-size="10.00">llvm::SymbolTableListTraits</text>
<text xml:space="preserve" text-anchor="middle" x="1049.38" y="-254.75" font-family="Helvetica,sans-Serif" font-size="10.00">&lt; T, Args... &gt;</text>
</a>
</g>
</g>
<!-- Node3&#45;&gt;Node2 -->
<g id="edge2_Node000002_Node000003" class="edge">
<title>Node3&#45;&gt;Node2</title>
<g id="a_edge2_Node000002_Node000003"><a xlink:title=" ">
<path fill="none" stroke="#63b8ff" d="M1106.83,-244.85C1157.4,-227.46 1231.48,-202 1284,-183.95"/>
<polygon fill="#63b8ff" stroke="#63b8ff" points="1105.84,-241.48 1097.52,-248.04 1108.12,-248.1 1105.84,-241.48"/>
</a>
</g>
</g>
<!-- Node4 -->
<g id="Node000004" class="node">
<title>Node4</title>
<g id="a_Node000004"><a xlink:href="structllvm_1_1ilist__alloc__traits.html" target="_top" xlink:title=" ">
<polygon fill="white" stroke="#666666" points="727.25,-316.88 595.75,-316.88 595.75,-297.62 727.25,-297.62 727.25,-316.88"/>
<text xml:space="preserve" text-anchor="middle" x="661.5" y="-303.38" font-family="Helvetica,sans-Serif" font-size="10.00">llvm::ilist_alloc_traits&lt; T &gt;</text>
</a>
</g>
</g>
<!-- Node4&#45;&gt;Node3 -->
<g id="edge3_Node000003_Node000004" class="edge">
<title>Node4&#45;&gt;Node3</title>
<g id="a_edge3_Node000003_Node000004"><a xlink:title=" ">
<path fill="none" stroke="#63b8ff" d="M739.08,-305.19C800.05,-302.7 887.4,-297.23 963,-285.25 971.89,-283.84 981.22,-281.97 990.32,-279.91"/>
<polygon fill="#63b8ff" stroke="#63b8ff" points="739,-301.69 729.15,-305.58 739.28,-308.69 739,-301.69"/>
</a>
</g>
</g>
<!-- Node5 -->
<g id="Node000005" class="node">
<title>Node5</title>
<g id="a_Node000005"><a xlink:href="structllvm_1_1ilist__alloc__traits.html" target="_top" xlink:title="Use delete by default for iplist and ilist.">
<polygon fill="white" stroke="#666666" points="245.62,-307.5 138.12,-307.5 138.12,-277 245.62,-277 245.62,-307.5"/>
<text xml:space="preserve" text-anchor="start" x="146.12" y="-294" font-family="Helvetica,sans-Serif" font-size="10.00">llvm::ilist_alloc_traits</text>
<text xml:space="preserve" text-anchor="middle" x="191.88" y="-282.75" font-family="Helvetica,sans-Serif" font-size="10.00">&lt; NodeTy &gt;</text>
</a>
</g>
</g>
<!-- Node5&#45;&gt;Node4 -->
<g id="edge4_Node000004_Node000005" class="edge">
<title>Node5&#45;&gt;Node4</title>
<g id="a_edge4_Node000004_Node000005"><a xlink:title=" ">
<path fill="none" stroke="orange" stroke-dasharray="5,2" d="M257.35,-294.32C346.37,-297.17 506.04,-302.3 595.39,-305.16"/>
<polygon fill="orange" stroke="orange" points="257.68,-290.83 247.58,-294 257.46,-297.82 257.68,-290.83"/>
</a>
</g>
<text xml:space="preserve" text-anchor="start" x="337.88" y="-305.43" font-family="Helvetica,sans-Serif" font-size="10.00" fill="grey">&lt; T &gt;</text>
</g>
<!-- Node7 -->
<g id="Node000007" class="node">
<title>Node7</title>
<g id="a_Node000007"><a xlink:href="structllvm_1_1ilist__alloc__traits.html" target="_top" xlink:title=" ">
<polygon fill="white" stroke="#666666" points="560.88,-279.5 453.38,-279.5 453.38,-249 560.88,-249 560.88,-279.5"/>
<text xml:space="preserve" text-anchor="start" x="461.38" y="-266" font-family="Helvetica,sans-Serif" font-size="10.00">llvm::ilist_alloc_traits</text>
<text xml:space="preserve" text-anchor="middle" x="507.12" y="-254.75" font-family="Helvetica,sans-Serif" font-size="10.00">&lt; ValueSubClass &gt;</text>
</a>
</g>
</g>
<!-- Node5&#45;&gt;Node7 -->
<g id="edge7_Node000007_Node000005" class="edge">
<title>Node5&#45;&gt;Node7</title>
<g id="a_edge7_Node000007_Node000005"><a xlink:title=" ">
<path fill="none" stroke="orange" stroke-dasharray="5,2" d="M252.51,-273.71C262.04,-271.38 271.85,-269.35 281.25,-268 339.61,-259.64 407.36,-259.84 453.12,-261.41"/>
<polygon fill="orange" stroke="orange" points="251.77,-270.29 242.96,-276.18 253.52,-277.07 251.77,-270.29"/>
</a>
</g>
<text xml:space="preserve" text-anchor="start" x="307.5" y="-274" font-family="Helvetica,sans-Serif" font-size="10.00" fill="grey">&lt; ValueSubClass &gt;</text>
</g>
<!-- Node6 -->
<g id="Node000006" class="node">
<title>Node6</title>
<g id="a_Node000006"><a xlink:href="classllvm_1_1SymbolTableListTraits.html" target="_top" xlink:title=" ">
<polygon fill="white" stroke="#666666" points="882,-279.5 745.25,-279.5 745.25,-249 882,-249 882,-279.5"/>
<text xml:space="preserve" text-anchor="start" x="753.25" y="-266" font-family="Helvetica,sans-Serif" font-size="10.00">llvm::SymbolTableListTraits</text>
<text xml:space="preserve" text-anchor="middle" x="813.62" y="-254.75" font-family="Helvetica,sans-Serif" font-size="10.00">&lt; ValueSubClass, Args &gt;</text>
</a>
</g>
</g>
<!-- Node6&#45;&gt;Node3 -->
<g id="edge5_Node000003_Node000006" class="edge">
<title>Node6&#45;&gt;Node3</title>
<g id="a_edge5_Node000003_Node000006"><a xlink:title=" ">
<path fill="none" stroke="orange" stroke-dasharray="5,2" d="M893.68,-264.25C921.87,-264.25 953.35,-264.25 980.51,-264.25"/>
<polygon fill="orange" stroke="orange" points="893.75,-260.75 883.75,-264.25 893.75,-267.75 893.75,-260.75"/>
</a>
</g>
<text xml:space="preserve" text-anchor="start" x="903" y="-270.25" font-family="Helvetica,sans-Serif" font-size="10.00" fill="grey">&lt; T, Args... &gt;</text>
</g>
<!-- Node7&#45;&gt;Node6 -->
<g id="edge6_Node000006_Node000007" class="edge">
<title>Node7&#45;&gt;Node6</title>
<g id="a_edge6_Node000006_Node000007"><a xlink:title=" ">
<path fill="none" stroke="#63b8ff" d="M572.62,-264.25C623.27,-264.25 693.58,-264.25 745.01,-264.25"/>
<polygon fill="#63b8ff" stroke="#63b8ff" points="572.68,-260.75 562.68,-264.25 572.68,-267.75 572.68,-260.75"/>
</a>
</g>
</g>
<!-- Node8 -->
<g id="Node000008" class="node">
<title>Node8</title>
<g id="a_Node000008"><a xlink:href="classllvm_1_1simple__ilist.html" target="_top" xlink:title=" ">
<polygon fill="white" stroke="#666666" points="1093.75,-177.5 1005,-177.5 1005,-147 1093.75,-147 1093.75,-177.5"/>
<text xml:space="preserve" text-anchor="start" x="1013" y="-164" font-family="Helvetica,sans-Serif" font-size="10.00">llvm::simple_ilist</text>
<text xml:space="preserve" text-anchor="middle" x="1049.38" y="-152.75" font-family="Helvetica,sans-Serif" font-size="10.00">&lt; T, Args... &gt;</text>
</a>
</g>
</g>
<!-- Node8&#45;&gt;Node2 -->
<g id="edge8_Node000002_Node000008" class="edge">
<title>Node8&#45;&gt;Node2</title>
<g id="a_edge8_Node000002_Node000008"><a xlink:title=" ">
<path fill="none" stroke="#8b1a1a" d="M1105.52,-162.25C1156.1,-162.25 1230.99,-162.25 1283.96,-162.25"/>
<polygon fill="#8b1a1a" stroke="#8b1a1a" points="1105.68,-158.75 1095.68,-162.25 1105.67,-165.75 1105.68,-158.75"/>
</a>
</g>
</g>
<!-- Node9 -->
<g id="Node000009" class="node">
<title>Node9</title>
<g id="a_Node000009"><a xlink:href="classllvm_1_1ilist__base.html" target="_top" xlink:title=" ">
<polygon fill="white" stroke="#666666" points="577.75,-140.12 436.5,-140.12 436.5,-98.38 577.75,-98.38 577.75,-140.12"/>
<text xml:space="preserve" text-anchor="start" x="444.5" y="-126.62" font-family="Helvetica,sans-Serif" font-size="10.00">ilist_detail::compute</text>
<text xml:space="preserve" text-anchor="start" x="444.5" y="-115.38" font-family="Helvetica,sans-Serif" font-size="10.00">_node_options&lt; T, Options...</text>
<text xml:space="preserve" text-anchor="middle" x="507.12" y="-104.12" font-family="Helvetica,sans-Serif" font-size="10.00"> &gt;::type::list_base_type</text>
</a>
</g>
</g>
<!-- Node9&#45;&gt;Node8 -->
<g id="edge9_Node000008_Node000009" class="edge">
<title>Node9&#45;&gt;Node8</title>
<g id="a_edge9_Node000008_Node000009"><a xlink:title=" ">
<path fill="none" stroke="#8b1a1a" d="M589.56,-121.22C665.41,-123.57 781.55,-128.47 882,-138.25 923.83,-142.32 971.24,-149.41 1004.72,-154.83"/>
<polygon fill="#8b1a1a" stroke="#8b1a1a" points="589.82,-117.73 579.72,-120.92 589.61,-124.72 589.82,-117.73"/>
</a>
</g>
</g>
<!-- Node14 -->
<g id="Node000014" class="node">
<title>Node14</title>
<g id="a_Node000014"><a xlink:href="classllvm_1_1simple__ilist.html" target="_top" xlink:title="A simple intrusive list implementation.">
<polygon fill="white" stroke="#666666" points="858,-177.5 769.25,-177.5 769.25,-147 858,-147 858,-177.5"/>
<text xml:space="preserve" text-anchor="start" x="777.25" y="-164" font-family="Helvetica,sans-Serif" font-size="10.00">llvm::simple_ilist</text>
<text xml:space="preserve" text-anchor="middle" x="813.62" y="-152.75" font-family="Helvetica,sans-Serif" font-size="10.00">&lt; T, Options &gt;</text>
</a>
</g>
</g>
<!-- Node9&#45;&gt;Node14 -->
<g id="edge16_Node000014_Node000009" class="edge">
<title>Node9&#45;&gt;Node14</title>
<g id="a_edge16_Node000014_Node000009"><a xlink:title=" ">
<path fill="none" stroke="#8b1a1a" d="M589.15,-132.27C591.38,-132.6 593.58,-132.93 595.75,-133.25 655.7,-142.05 725.13,-151.14 768.96,-156.74"/>
<polygon fill="#8b1a1a" stroke="#8b1a1a" points="589.84,-128.84 579.43,-130.79 588.79,-135.76 589.84,-128.84"/>
</a>
</g>
</g>
<!-- Node10 -->
<g id="Node000010" class="node">
<title>Node10</title>
<g id="a_Node000010"><a xlink:href="classllvm_1_1ilist__base.html" target="_top" xlink:title="Implementations of list algorithms using ilist_node_base.">
<polygon fill="white" stroke="#666666" points="263.25,-130.5 120.5,-130.5 120.5,-100 263.25,-100 263.25,-130.5"/>
<text xml:space="preserve" text-anchor="start" x="128.5" y="-117" font-family="Helvetica,sans-Serif" font-size="10.00">llvm::ilist_base&lt; Enable</text>
<text xml:space="preserve" text-anchor="middle" x="191.88" y="-105.75" font-family="Helvetica,sans-Serif" font-size="10.00">SentinelTracking, ParentTy &gt;</text>
</a>
</g>
</g>
<!-- Node10&#45;&gt;Node9 -->
<g id="edge10_Node000009_Node000010" class="edge">
<title>Node10&#45;&gt;Node9</title>
<g id="a_edge10_Node000009_Node000010"><a xlink:title=" ">
<path fill="none" stroke="orange" stroke-dasharray="5,2" d="M275,-115.36C317.79,-115.53 370.96,-115.91 418.5,-116.75 424.28,-116.85 430.28,-116.98 436.3,-117.12"/>
<polygon fill="orange" stroke="orange" points="275.03,-111.86 265.02,-115.33 275.01,-118.86 275.03,-111.86"/>
</a>
</g>
<text xml:space="preserve" text-anchor="start" x="290.25" y="-138" font-family="Helvetica,sans-Serif" font-size="10.00" fill="grey">&lt; enable_sentinel_tracking,</text>
<text xml:space="preserve" text-anchor="start" x="290.25" y="-122.75" font-family="Helvetica,sans-Serif" font-size="10.00" fill="grey">   parent_ty &gt;</text>
</g>
<!-- Node11 -->
<g id="Node000011" class="node">
<title>Node11</title>
<g id="a_Node000011"><a xlink:href="structllvm_1_1ilist__detail_1_1SpecificNodeAccess.html" target="_top" xlink:title=" ">
<polygon fill="white" stroke="#666666" points="577.75,-228.38 436.5,-228.38 436.5,-164.12 577.75,-164.12 577.75,-228.38"/>
<text xml:space="preserve" text-anchor="start" x="444.5" y="-214.88" font-family="Helvetica,sans-Serif" font-size="10.00">llvm::ilist_detail</text>
<text xml:space="preserve" text-anchor="start" x="444.5" y="-203.62" font-family="Helvetica,sans-Serif" font-size="10.00">::SpecificNodeAccess</text>
<text xml:space="preserve" text-anchor="start" x="444.5" y="-192.38" font-family="Helvetica,sans-Serif" font-size="10.00">&lt; ilist_detail::compute</text>
<text xml:space="preserve" text-anchor="start" x="444.5" y="-181.12" font-family="Helvetica,sans-Serif" font-size="10.00">_node_options&lt; T, Options...</text>
<text xml:space="preserve" text-anchor="middle" x="507.12" y="-169.88" font-family="Helvetica,sans-Serif" font-size="10.00"> &gt;::type &gt;</text>
</a>
</g>
</g>
<!-- Node11&#45;&gt;Node8 -->
<g id="edge11_Node000008_Node000011" class="edge">
<title>Node11&#45;&gt;Node8</title>
<g id="a_edge11_Node000008_Node000011"><a xlink:title=" ">
<path fill="none" stroke="#8b1a1a" d="M589.26,-199.31C680.59,-201.5 833.2,-201.42 963,-183.25 976.76,-181.32 991.52,-178.11 1004.84,-174.78"/>
<polygon fill="#8b1a1a" stroke="#8b1a1a" points="589.48,-195.81 579.39,-199.05 589.3,-202.81 589.48,-195.81"/>
</a>
</g>
</g>
<!-- Node11&#45;&gt;Node14 -->
<g id="edge17_Node000014_Node000011" class="edge">
<title>Node11&#45;&gt;Node14</title>
<g id="a_edge17_Node000014_Node000011"><a xlink:title=" ">
<path fill="none" stroke="#8b1a1a" d="M589.27,-187.19C646.96,-180.75 722.22,-172.34 768.98,-167.12"/>
<polygon fill="#8b1a1a" stroke="#8b1a1a" points="589.04,-183.69 579.49,-188.28 589.81,-190.65 589.04,-183.69"/>
</a>
</g>
</g>
<!-- Node12 -->
<g id="Node000012" class="node">
<title>Node12</title>
<g id="a_Node000012"><a xlink:href="structllvm_1_1ilist__detail_1_1NodeAccess.html" target="_top" xlink:title="An access class for ilist_node private API.">
<polygon fill="white" stroke="#666666" points="83.5,-221.5 0,-221.5 0,-191 83.5,-191 83.5,-221.5"/>
<text xml:space="preserve" text-anchor="start" x="8" y="-208" font-family="Helvetica,sans-Serif" font-size="10.00">llvm::ilist_detail</text>
<text xml:space="preserve" text-anchor="middle" x="41.75" y="-196.75" font-family="Helvetica,sans-Serif" font-size="10.00">::NodeAccess</text>
</a>
</g>
</g>
<!-- Node12&#45;&gt;Node11 -->
<g id="edge12_Node000011_Node000012" class="edge">
<title>Node12&#45;&gt;Node11</title>
<g id="a_edge12_Node000011_Node000012"><a xlink:title=" ">
<path fill="none" stroke="#63b8ff" d="M94.97,-213.78C167.79,-223.02 303.81,-235.67 418.5,-220.25 424.28,-219.47 430.23,-218.42 436.16,-217.18"/>
<polygon fill="#63b8ff" stroke="#63b8ff" points="95.71,-210.35 85.34,-212.53 94.8,-217.29 95.71,-210.35"/>
</a>
</g>
</g>
<!-- Node13 -->
<g id="Node000013" class="node">
<title>Node13</title>
<g id="a_Node000013"><a xlink:href="structllvm_1_1ilist__detail_1_1SpecificNodeAccess.html" target="_top" xlink:title=" ">
<polygon fill="white" stroke="#666666" points="248.62,-199.12 135.12,-199.12 135.12,-157.38 248.62,-157.38 248.62,-199.12"/>
<text xml:space="preserve" text-anchor="start" x="143.12" y="-185.62" font-family="Helvetica,sans-Serif" font-size="10.00">llvm::ilist_detail</text>
<text xml:space="preserve" text-anchor="start" x="143.12" y="-174.38" font-family="Helvetica,sans-Serif" font-size="10.00">::SpecificNodeAccess</text>
<text xml:space="preserve" text-anchor="middle" x="191.88" y="-163.12" font-family="Helvetica,sans-Serif" font-size="10.00">&lt; OptionsT &gt;</text>
</a>
</g>
</g>
<!-- Node12&#45;&gt;Node13 -->
<g id="edge14_Node000013_Node000012" class="edge">
<title>Node12&#45;&gt;Node13</title>
<g id="a_edge14_Node000013_Node000012"><a xlink:title=" ">
<path fill="none" stroke="#63b8ff" d="M94.73,-196.42C107.73,-193.97 121.72,-191.32 134.89,-188.83"/>
<polygon fill="#63b8ff" stroke="#63b8ff" points="94.28,-192.95 85.11,-198.24 95.58,-199.83 94.28,-192.95"/>
</a>
</g>
</g>
<!-- Node13&#45;&gt;Node11 -->
<g id="edge13_Node000011_Node000013" class="edge">
<title>Node13&#45;&gt;Node11</title>
<g id="a_edge13_Node000011_Node000013"><a xlink:title=" ">
<path fill="none" stroke="orange" stroke-dasharray="5,2" d="M260.16,-171.02C305.17,-167.53 365.62,-165.46 418.5,-172.5 424.28,-173.27 430.22,-174.31 436.15,-175.53"/>
<polygon fill="orange" stroke="orange" points="259.96,-167.52 250.28,-171.83 260.53,-174.5 259.96,-167.52"/>
</a>
</g>
<text xml:space="preserve" text-anchor="start" x="284.25" y="-209" font-family="Helvetica,sans-Serif" font-size="10.00" fill="grey">&lt; ilist_detail::compute</text>
<text xml:space="preserve" text-anchor="start" x="284.25" y="-193.75" font-family="Helvetica,sans-Serif" font-size="10.00" fill="grey">  _node_options&lt; T, Options...</text>
<text xml:space="preserve" text-anchor="start" x="284.25" y="-178.5" font-family="Helvetica,sans-Serif" font-size="10.00" fill="grey">   &gt;::type &gt;</text>
</g>
<!-- Node14&#45;&gt;Node8 -->
<g id="edge15_Node000008_Node000014" class="edge">
<title>Node14&#45;&gt;Node8</title>
<g id="a_edge15_Node000008_Node000014"><a xlink:title=" ">
<path fill="none" stroke="orange" stroke-dasharray="5,2" d="M869.78,-162.25C910.92,-162.25 966.36,-162.25 1004.5,-162.25"/>
<polygon fill="orange" stroke="orange" points="869.83,-158.75 859.83,-162.25 869.83,-165.75 869.83,-158.75"/>
</a>
</g>
<text xml:space="preserve" text-anchor="start" x="903" y="-168.25" font-family="Helvetica,sans-Serif" font-size="10.00" fill="grey">&lt; T, Args... &gt;</text>
</g>
<!-- Node15 -->
<g id="Node000015" class="node">
<title>Node15</title>
<g id="a_Node000015"><a xlink:href="classllvm_1_1iplist__impl.html" target="_top" xlink:title="A wrapper around an intrusive list with callbacks and non&#45;intrusive ownership.">
<polygon fill="white" stroke="#666666" points="1110.62,-96.5 988.12,-96.5 988.12,-66 1110.62,-66 1110.62,-96.5"/>
<text xml:space="preserve" text-anchor="start" x="996.12" y="-83" font-family="Helvetica,sans-Serif" font-size="10.00">llvm::iplist_impl&lt;</text>
<text xml:space="preserve" text-anchor="middle" x="1049.38" y="-71.75" font-family="Helvetica,sans-Serif" font-size="10.00"> IntrusiveListT, TraitsT &gt;</text>
</a>
</g>
</g>
<!-- Node15&#45;&gt;Node2 -->
<g id="edge18_Node000002_Node000015" class="edge">
<title>Node15&#45;&gt;Node2</title>
<g id="a_edge18_Node000002_Node000015"><a xlink:title=" ">
<path fill="none" stroke="orange" stroke-dasharray="5,2" d="M1122.17,-83.21C1165.09,-86.26 1220.07,-93.54 1266.25,-110.5 1282.52,-116.48 1298.92,-126.14 1312.66,-135.5"/>
<polygon fill="orange" stroke="orange" points="1122.4,-79.72 1112.19,-82.57 1121.95,-86.7 1122.4,-79.72"/>
</a>
</g>
<text xml:space="preserve" text-anchor="start" x="1138.75" y="-147" font-family="Helvetica,sans-Serif" font-size="10.00" fill="grey">&lt; simple_ilist&lt; T,</text>
<text xml:space="preserve" text-anchor="start" x="1138.75" y="-131.75" font-family="Helvetica,sans-Serif" font-size="10.00" fill="grey">   Args... &gt;, SymbolTableList</text>
<text xml:space="preserve" text-anchor="start" x="1138.75" y="-116.5" font-family="Helvetica,sans-Serif" font-size="10.00" fill="grey">  Traits&lt; T, Args... &gt; &gt;</text>
</g>
<!-- Node16 -->
<g id="Node000016" class="node">
<title>Node16</title>
<g id="a_Node000016"><a xlink:href="classTraitsT.html" target="_top" xlink:title=" ">
<polygon fill="white" stroke="#666666" points="837,-90.88 790.25,-90.88 790.25,-71.62 837,-71.62 837,-90.88"/>
<text xml:space="preserve" text-anchor="middle" x="813.62" y="-77.38" font-family="Helvetica,sans-Serif" font-size="10.00">TraitsT</text>
</a>
</g>
</g>
<!-- Node16&#45;&gt;Node15 -->
<g id="edge19_Node000015_Node000016" class="edge">
<title>Node16&#45;&gt;Node15</title>
<g id="a_edge19_Node000015_Node000016"><a xlink:title=" ">
<path fill="none" stroke="#63b8ff" d="M848.94,-81.25C885.43,-81.25 943.85,-81.25 988.06,-81.25"/>
<polygon fill="#63b8ff" stroke="#63b8ff" points="848.98,-77.75 838.98,-81.25 848.98,-84.75 848.98,-77.75"/>
</a>
</g>
</g>
<!-- Node17 -->
<g id="Node000017" class="node">
<title>Node17</title>
<g id="a_Node000017"><a xlink:href="classIntrusiveListT.html" target="_top" xlink:title=" ">
<polygon fill="white" stroke="#666666" points="851.25,-53.88 776,-53.88 776,-34.62 851.25,-34.62 851.25,-53.88"/>
<text xml:space="preserve" text-anchor="middle" x="813.62" y="-40.38" font-family="Helvetica,sans-Serif" font-size="10.00">IntrusiveListT</text>
</a>
</g>
</g>
<!-- Node17&#45;&gt;Node15 -->
<g id="edge20_Node000015_Node000017" class="edge">
<title>Node17&#45;&gt;Node15</title>
<g id="a_edge20_Node000015_Node000017"><a xlink:title=" ">
<path fill="none" stroke="#8b1a1a" d="M862.91,-51.89C899.14,-57.63 948.96,-65.51 987.84,-71.67"/>
<polygon fill="#8b1a1a" stroke="#8b1a1a" points="863.58,-48.46 853.16,-50.35 862.49,-55.37 863.58,-48.46"/>
</a>
</g>
</g>
</g>
</svg>
