<?xml version="1.0" encoding="UTF-8" standalone="no"?>
<!DOCTYPE svg PUBLIC "-//W3C//DTD SVG 1.1//EN"
 "http://www.w3.org/Graphics/SVG/1.1/DTD/svg11.dtd">
<!-- Generated by graphviz version 14.1.3 (20260303.0454)
 -->
<!-- Title: llvm::raw_ostream_proxy_adaptor&lt; RawOstreamT &gt; Pages: 1 -->
<svg width="1103pt" height="125pt"
 viewBox="0.00 0.00 1103.00 125.00" xmlns="http://www.w3.org/2000/svg" xmlns:xlink="http://www.w3.org/1999/xlink">
<g id="graph0" class="graph" transform="scale(1 1) rotate(0) translate(4 120.88)">
<title>llvm::raw_ostream_proxy_adaptor&lt; RawOstreamT &gt;</title>
<!-- Node1 -->
<g id="Node000001" class="node">
<title>Node1</title>
<g id="a_Node000001"><a xlink:title="Adaptor to create a stream class that proxies another raw_ostream.">
<polygon fill="#999999" stroke="#666666" points="268.5,-79.5 133.25,-79.5 133.25,-49 268.5,-49 268.5,-79.5"/>
<text xml:space="preserve" text-anchor="start" x="141.25" y="-66" font-family="Helvetica,sans-Serif" font-size="10.00">llvm::raw_ostream_proxy</text>
<text xml:space="preserve" text-anchor="middle" x="200.88" y="-54.75" font-family="Helvetica,sans-Serif" font-size="10.00">_adaptor&lt; RawOstreamT &gt;</text>
</a>
</g>
</g>
<!-- Node3 -->
<g id="Node000003" class="node">
<title>Node3</title>
<g id="a_Node000003"><a xlink:href="classllvm_1_1raw__ostream__proxy.html" target="_top" xlink:title="Non&#45;owning proxy for a raw_ostream.">
<polygon fill="white" stroke="#666666" points="561.25,-116.88 423.75,-116.88 423.75,-97.62 561.25,-97.62 561.25,-116.88"/>
<text xml:space="preserve" text-anchor="middle" x="492.5" y="-103.38" font-family="Helvetica,sans-Serif" font-size="10.00">llvm::raw_ostream_proxy&lt;&gt;</text>
</a>
</g>
</g>
<!-- Node1&#45;&gt;Node3 -->
<g id="edge2_Node000001_Node000003" class="edge">
<title>Node1&#45;&gt;Node3</title>
<g id="a_edge2_Node000001_Node000003"><a xlink:title=" ">
<path fill="none" stroke="#63b8ff" d="M271.73,-82.37C276.72,-83.42 281.67,-84.4 286.5,-85.25 331.79,-93.26 383.27,-98.77 423.31,-102.28"/>
<polygon fill="#63b8ff" stroke="#63b8ff" points="272.84,-79.03 262.32,-80.3 271.33,-85.87 272.84,-79.03"/>
</a>
</g>
</g>
<!-- Node4 -->
<g id="Node000004" class="node">
<title>Node4</title>
<g id="a_Node000004"><a xlink:href="classllvm_1_1raw__ostream__proxy__adaptor.html" target="_top" xlink:title=" ">
<polygon fill="white" stroke="#666666" points="571,-79.5 414,-79.5 414,-49 571,-49 571,-79.5"/>
<text xml:space="preserve" text-anchor="start" x="422" y="-66" font-family="Helvetica,sans-Serif" font-size="10.00">llvm::raw_ostream_proxy</text>
<text xml:space="preserve" text-anchor="middle" x="492.5" y="-54.75" font-family="Helvetica,sans-Serif" font-size="10.00">_adaptor&lt; RawPwriteStreamT &gt;</text>
</a>
</g>
</g>
<!-- Node1&#45;&gt;Node4 -->
<g id="edge3_Node000001_Node000004" class="edge">
<title>Node1&#45;&gt;Node4</title>
<g id="a_edge3_Node000001_Node000004"><a xlink:title=" ">
<path fill="none" stroke="orange" stroke-dasharray="5,2" d="M280.12,-64.25C321.58,-64.25 372.35,-64.25 413.75,-64.25"/>
<polygon fill="orange" stroke="orange" points="280.2,-60.75 270.2,-64.25 280.2,-67.75 280.2,-60.75"/>
</a>
</g>
<text xml:space="preserve" text-anchor="start" x="289.5" y="-70.25" font-family="Helvetica,sans-Serif" font-size="10.00" fill="grey">&lt; RawPwriteStreamT &gt;</text>
</g>
<!-- Node5 -->
<g id="Node000005" class="node">
<title>Node5</title>
<g id="a_Node000005"><a xlink:href="classllvm_1_1raw__ostream__proxy__adaptor.html" target="_top" xlink:title=" ">
<polygon fill="white" stroke="#666666" points="569.5,-30.5 415.5,-30.5 415.5,0 569.5,0 569.5,-30.5"/>
<text xml:space="preserve" text-anchor="start" x="423.5" y="-17" font-family="Helvetica,sans-Serif" font-size="10.00">llvm::raw_ostream_proxy</text>
<text xml:space="preserve" text-anchor="middle" x="492.5" y="-5.75" font-family="Helvetica,sans-Serif" font-size="10.00">_adaptor&lt; raw_pwrite_stream &gt;</text>
</a>
</g>
</g>
<!-- Node1&#45;&gt;Node5 -->
<g id="edge4_Node000001_Node000005" class="edge">
<title>Node1&#45;&gt;Node5</title>
<g id="a_edge4_Node000001_Node000005"><a xlink:title=" ">
<path fill="none" stroke="orange" stroke-dasharray="5,2" d="M271.76,-46.06C276.73,-44.96 281.68,-43.93 286.5,-43 328.82,-34.85 376.51,-28.24 415.23,-23.52"/>
<polygon fill="orange" stroke="orange" points="271.32,-42.57 262.35,-48.21 272.87,-49.39 271.32,-42.57"/>
</a>
</g>
<text xml:space="preserve" text-anchor="start" x="291" y="-49" font-family="Helvetica,sans-Serif" font-size="10.00" fill="grey">&lt; raw_pwrite_stream &gt;</text>
</g>
<!-- Node2 -->
<g id="Node000002" class="node">
<title>Node2</title>
<g id="a_Node000002"><a xlink:href="classllvm_1_1raw__ostream.html" target="_top" xlink:title="This class implements an extremely fast bulk output stream that can only output to a stream.">
<polygon fill="white" stroke="#666666" points="96.25,-73.88 0,-73.88 0,-54.62 96.25,-54.62 96.25,-73.88"/>
<text xml:space="preserve" text-anchor="middle" x="48.12" y="-60.38" font-family="Helvetica,sans-Serif" font-size="10.00">llvm::raw_ostream</text>
</a>
</g>
</g>
<!-- Node2&#45;&gt;Node1 -->
<g id="edge1_Node000001_Node000002" class="edge">
<title>Node2&#45;&gt;Node1</title>
<g id="a_edge1_Node000001_Node000002"><a xlink:title=" ">
<path fill="none" stroke="#63b8ff" d="M107.8,-64.25C116.02,-64.25 124.52,-64.25 132.88,-64.25"/>
<polygon fill="#63b8ff" stroke="#63b8ff" points="107.92,-60.75 97.92,-64.25 107.92,-67.75 107.92,-60.75"/>
</a>
</g>
</g>
<!-- Node6 -->
<g id="Node000006" class="node">
<title>Node6</title>
<g id="a_Node000006"><a xlink:href="classllvm_1_1raw__pwrite__stream__proxy__adaptor.html" target="_top" xlink:title="Adaptor for creating a stream that proxies a raw_pwrite_stream.">
<polygon fill="white" stroke="#666666" points="794.25,-30.5 608,-30.5 608,0 794.25,0 794.25,-30.5"/>
<text xml:space="preserve" text-anchor="start" x="616" y="-17" font-family="Helvetica,sans-Serif" font-size="10.00">llvm::raw_pwrite_stream</text>
<text xml:space="preserve" text-anchor="middle" x="701.12" y="-5.75" font-family="Helvetica,sans-Serif" font-size="10.00">_proxy_adaptor&lt; RawPwriteStreamT &gt;</text>
</a>
</g>
</g>
<!-- Node5&#45;&gt;Node6 -->
<g id="edge5_Node000005_Node000006" class="edge">
<title>Node5&#45;&gt;Node6</title>
<g id="a_edge5_Node000005_Node000006"><a xlink:title=" ">
<path fill="none" stroke="#63b8ff" d="M581.23,-15.25C589.96,-15.25 598.85,-15.25 607.63,-15.25"/>
<polygon fill="#63b8ff" stroke="#63b8ff" points="581.37,-11.75 571.37,-15.25 581.37,-18.75 581.37,-11.75"/>
</a>
</g>
</g>
<!-- Node7 -->
<g id="Node000007" class="node">
<title>Node7</title>
<g id="a_Node000007"><a xlink:href="classllvm_1_1raw__pwrite__stream__proxy.html" target="_top" xlink:title="Non&#45;owning proxy for a raw_pwrite_stream.">
<polygon fill="white" stroke="#666666" points="953.75,-30.5 831.25,-30.5 831.25,0 953.75,0 953.75,-30.5"/>
<text xml:space="preserve" text-anchor="start" x="839.25" y="-17" font-family="Helvetica,sans-Serif" font-size="10.00">llvm::raw_pwrite_stream</text>
<text xml:space="preserve" text-anchor="middle" x="892.5" y="-5.75" font-family="Helvetica,sans-Serif" font-size="10.00">_proxy&lt;&gt;</text>
</a>
</g>
</g>
<!-- Node6&#45;&gt;Node7 -->
<g id="edge6_Node000006_Node000007" class="edge">
<title>Node6&#45;&gt;Node7</title>
<g id="a_edge6_Node000006_Node000007"><a xlink:title=" ">
<path fill="none" stroke="#63b8ff" d="M805.83,-15.25C814.35,-15.25 822.77,-15.25 830.81,-15.25"/>
<polygon fill="#63b8ff" stroke="#63b8ff" points="806.11,-11.75 796.11,-15.25 806.11,-18.75 806.11,-11.75"/>
</a>
</g>
</g>
<!-- Node8 -->
<g id="Node000008" class="node">
<title>Node8</title>
<g id="a_Node000008"><a xlink:href="classOutputFile_1_1TrackedProxy.html" target="_top" xlink:title=" ">
<polygon fill="white" stroke="#666666" points="1095.25,-30.5 990.75,-30.5 990.75,0 1095.25,0 1095.25,-30.5"/>
<text xml:space="preserve" text-anchor="start" x="998.75" y="-17" font-family="Helvetica,sans-Serif" font-size="10.00">llvm::vfs::OutputFile</text>
<text xml:space="preserve" text-anchor="middle" x="1043" y="-5.75" font-family="Helvetica,sans-Serif" font-size="10.00">::TrackedProxy</text>
</a>
</g>
</g>
<!-- Node7&#45;&gt;Node8 -->
<g id="edge7_Node000007_Node000008" class="edge">
<title>Node7&#45;&gt;Node8</title>
<g id="a_edge7_Node000007_Node000008"><a xlink:title=" ">
<path fill="none" stroke="#63b8ff" d="M965.16,-15.25C973.78,-15.25 982.44,-15.25 990.69,-15.25"/>
<polygon fill="#63b8ff" stroke="#63b8ff" points="965.41,-11.75 955.41,-15.25 965.41,-18.75 965.41,-11.75"/>
</a>
</g>
</g>
</g>
</svg>
