<?xml version="1.0" encoding="UTF-8" standalone="no"?>
<!DOCTYPE svg PUBLIC "-//W3C//DTD SVG 1.1//EN"
 "http://www.w3.org/Graphics/SVG/1.1/DTD/svg11.dtd">
<!-- Generated by graphviz version 14.1.3 (20260303.0454)
 -->
<!-- Title: llvm::MipsFrameLowering Pages: 1 -->
<svg width="306pt" height="138pt"
 viewBox="0.00 0.00 306.00 138.00" xmlns="http://www.w3.org/2000/svg" xmlns:xlink="http://www.w3.org/1999/xlink">
<g id="graph0" class="graph" transform="scale(1 1) rotate(0) translate(4 133.75)">
<title>llvm::MipsFrameLowering</title>
<!-- Node1 -->
<g id="Node000001" class="node">
<title>Node1</title>
<g id="a_Node000001"><a xlink:title=" ">
<polygon fill="#999999" stroke="#666666" points="212,-74.5 84.25,-74.5 84.25,-55.25 212,-55.25 212,-74.5"/>
<text xml:space="preserve" text-anchor="middle" x="148.12" y="-61" font-family="Helvetica,sans-Serif" font-size="10.00">llvm::MipsFrameLowering</text>
</a>
</g>
</g>
<!-- Node3 -->
<g id="Node000003" class="node">
<title>Node3</title>
<g id="a_Node000003"><a xlink:href="classllvm_1_1Mips16FrameLowering.html" target="_top" xlink:title=" ">
<polygon fill="white" stroke="#666666" points="138.25,-19.25 0,-19.25 0,0 138.25,0 138.25,-19.25"/>
<text xml:space="preserve" text-anchor="middle" x="69.12" y="-5.75" font-family="Helvetica,sans-Serif" font-size="10.00">llvm::Mips16FrameLowering</text>
</a>
</g>
</g>
<!-- Node1&#45;&gt;Node3 -->
<g id="edge2_Node000001_Node000003" class="edge">
<title>Node1&#45;&gt;Node3</title>
<g id="a_edge2_Node000001_Node000003"><a xlink:title=" ">
<path fill="none" stroke="#63b8ff" d="M125.36,-48.53C111.52,-39.2 94.3,-27.6 82.59,-19.7"/>
<polygon fill="#63b8ff" stroke="#63b8ff" points="123.22,-51.31 133.47,-54 127.13,-45.5 123.22,-51.31"/>
</a>
</g>
</g>
<!-- Node4 -->
<g id="Node000004" class="node">
<title>Node4</title>
<g id="a_Node000004"><a xlink:href="classllvm_1_1MipsSEFrameLowering.html" target="_top" xlink:title=" ">
<polygon fill="white" stroke="#666666" points="297.75,-19.25 156.5,-19.25 156.5,0 297.75,0 297.75,-19.25"/>
<text xml:space="preserve" text-anchor="middle" x="227.12" y="-5.75" font-family="Helvetica,sans-Serif" font-size="10.00">llvm::MipsSEFrameLowering</text>
</a>
</g>
</g>
<!-- Node1&#45;&gt;Node4 -->
<g id="edge3_Node000001_Node000004" class="edge">
<title>Node1&#45;&gt;Node4</title>
<g id="a_edge3_Node000001_Node000004"><a xlink:title=" ">
<path fill="none" stroke="#63b8ff" d="M170.89,-48.53C184.73,-39.2 201.95,-27.6 213.66,-19.7"/>
<polygon fill="#63b8ff" stroke="#63b8ff" points="169.12,-45.5 162.78,-54 173.03,-51.31 169.12,-45.5"/>
</a>
</g>
</g>
<!-- Node2 -->
<g id="Node000002" class="node">
<title>Node2</title>
<g id="a_Node000002"><a xlink:href="classllvm_1_1TargetFrameLowering.html" target="_top" xlink:title="Information about stack frame layout on the target.">
<polygon fill="white" stroke="#666666" points="215,-129.75 81.25,-129.75 81.25,-110.5 215,-110.5 215,-129.75"/>
<text xml:space="preserve" text-anchor="middle" x="148.12" y="-116.25" font-family="Helvetica,sans-Serif" font-size="10.00">llvm::TargetFrameLowering</text>
</a>
</g>
</g>
<!-- Node2&#45;&gt;Node1 -->
<g id="edge1_Node000001_Node000002" class="edge">
<title>Node2&#45;&gt;Node1</title>
<g id="a_edge1_Node000001_Node000002"><a xlink:title=" ">
<path fill="none" stroke="#63b8ff" d="M148.12,-98.88C148.12,-90.59 148.12,-81.42 148.12,-74.86"/>
<polygon fill="#63b8ff" stroke="#63b8ff" points="144.63,-98.82 148.13,-108.82 151.63,-98.82 144.63,-98.82"/>
</a>
</g>
</g>
</g>
</svg>
