<?xml version="1.0" encoding="UTF-8" standalone="no"?>
<!DOCTYPE svg PUBLIC "-//W3C//DTD SVG 1.1//EN"
 "http://www.w3.org/Graphics/SVG/1.1/DTD/svg11.dtd">
<!-- Generated by graphviz version 14.1.3 (20260303.0454)
 -->
<!-- Title: llvm::objcopy::elf::IHexSectionWriterBase Pages: 1 -->
<svg width="132pt" height="305pt"
 viewBox="0.00 0.00 132.00 305.00" xmlns="http://www.w3.org/2000/svg" xmlns:xlink="http://www.w3.org/1999/xlink">
<g id="graph0" class="graph" transform="scale(1 1) rotate(0) translate(4 300.5)">
<title>llvm::objcopy::elf::IHexSectionWriterBase</title>
<!-- Node1 -->
<g id="Node000001" class="node">
<title>Node1</title>
<g id="a_Node000001"><a xlink:title=" ">
<polygon fill="#999999" stroke="#666666" points="124,-97 0,-97 0,-66.5 124,-66.5 124,-97"/>
<text xml:space="preserve" text-anchor="start" x="8" y="-83.5" font-family="Helvetica,sans-Serif" font-size="10.00">llvm::objcopy::elf</text>
<text xml:space="preserve" text-anchor="middle" x="62" y="-72.25" font-family="Helvetica,sans-Serif" font-size="10.00">::IHexSectionWriterBase</text>
</a>
</g>
</g>
<!-- Node5 -->
<g id="Node000005" class="node">
<title>Node5</title>
<g id="a_Node000005"><a xlink:href="classllvm_1_1objcopy_1_1elf_1_1IHexSectionWriter.html" target="_top" xlink:title=" ">
<polygon fill="white" stroke="#666666" points="112.75,-30.5 11.25,-30.5 11.25,0 112.75,0 112.75,-30.5"/>
<text xml:space="preserve" text-anchor="start" x="19.25" y="-17" font-family="Helvetica,sans-Serif" font-size="10.00">llvm::objcopy::elf</text>
<text xml:space="preserve" text-anchor="middle" x="62" y="-5.75" font-family="Helvetica,sans-Serif" font-size="10.00">::IHexSectionWriter</text>
</a>
</g>
</g>
<!-- Node1&#45;&gt;Node5 -->
<g id="edge4_Node000001_Node000005" class="edge">
<title>Node1&#45;&gt;Node5</title>
<g id="a_edge4_Node000001_Node000005"><a xlink:title=" ">
<path fill="none" stroke="#63b8ff" d="M62,-54.81C62,-46.64 62,-37.91 62,-30.83"/>
<polygon fill="#63b8ff" stroke="#63b8ff" points="58.5,-54.6 62,-64.6 65.5,-54.6 58.5,-54.6"/>
</a>
</g>
</g>
<!-- Node2 -->
<g id="Node000002" class="node">
<title>Node2</title>
<g id="a_Node000002"><a xlink:href="classllvm_1_1objcopy_1_1elf_1_1BinarySectionWriter.html" target="_top" xlink:title=" ">
<polygon fill="white" stroke="#666666" points="116.12,-163.5 7.88,-163.5 7.88,-133 116.12,-133 116.12,-163.5"/>
<text xml:space="preserve" text-anchor="start" x="15.88" y="-150" font-family="Helvetica,sans-Serif" font-size="10.00">llvm::objcopy::elf</text>
<text xml:space="preserve" text-anchor="middle" x="62" y="-138.75" font-family="Helvetica,sans-Serif" font-size="10.00">::BinarySectionWriter</text>
</a>
</g>
</g>
<!-- Node2&#45;&gt;Node1 -->
<g id="edge1_Node000001_Node000002" class="edge">
<title>Node2&#45;&gt;Node1</title>
<g id="a_edge1_Node000001_Node000002"><a xlink:title=" ">
<path fill="none" stroke="#63b8ff" d="M62,-121.31C62,-113.14 62,-104.41 62,-97.33"/>
<polygon fill="#63b8ff" stroke="#63b8ff" points="58.5,-121.1 62,-131.1 65.5,-121.1 58.5,-121.1"/>
</a>
</g>
</g>
<!-- Node3 -->
<g id="Node000003" class="node">
<title>Node3</title>
<g id="a_Node000003"><a xlink:href="classllvm_1_1objcopy_1_1elf_1_1SectionWriter.html" target="_top" xlink:title=" ">
<polygon fill="white" stroke="#666666" points="107.12,-230 16.88,-230 16.88,-199.5 107.12,-199.5 107.12,-230"/>
<text xml:space="preserve" text-anchor="start" x="24.88" y="-216.5" font-family="Helvetica,sans-Serif" font-size="10.00">llvm::objcopy::elf</text>
<text xml:space="preserve" text-anchor="middle" x="62" y="-205.25" font-family="Helvetica,sans-Serif" font-size="10.00">::SectionWriter</text>
</a>
</g>
</g>
<!-- Node3&#45;&gt;Node2 -->
<g id="edge2_Node000002_Node000003" class="edge">
<title>Node3&#45;&gt;Node2</title>
<g id="a_edge2_Node000002_Node000003"><a xlink:title=" ">
<path fill="none" stroke="#63b8ff" d="M62,-187.81C62,-179.64 62,-170.91 62,-163.83"/>
<polygon fill="#63b8ff" stroke="#63b8ff" points="58.5,-187.6 62,-197.6 65.5,-187.6 58.5,-187.6"/>
</a>
</g>
</g>
<!-- Node4 -->
<g id="Node000004" class="node">
<title>Node4</title>
<g id="a_Node000004"><a xlink:href="classllvm_1_1objcopy_1_1elf_1_1SectionVisitor.html" target="_top" xlink:title=" ">
<polygon fill="white" stroke="#666666" points="107.12,-296.5 16.88,-296.5 16.88,-266 107.12,-266 107.12,-296.5"/>
<text xml:space="preserve" text-anchor="start" x="24.88" y="-283" font-family="Helvetica,sans-Serif" font-size="10.00">llvm::objcopy::elf</text>
<text xml:space="preserve" text-anchor="middle" x="62" y="-271.75" font-family="Helvetica,sans-Serif" font-size="10.00">::SectionVisitor</text>
</a>
</g>
</g>
<!-- Node4&#45;&gt;Node3 -->
<g id="edge3_Node000003_Node000004" class="edge">
<title>Node4&#45;&gt;Node3</title>
<g id="a_edge3_Node000003_Node000004"><a xlink:title=" ">
<path fill="none" stroke="#63b8ff" d="M62,-254.31C62,-246.14 62,-237.41 62,-230.33"/>
<polygon fill="#63b8ff" stroke="#63b8ff" points="58.5,-254.1 62,-264.1 65.5,-254.1 58.5,-254.1"/>
</a>
</g>
</g>
</g>
</svg>
