<?xml version="1.0" encoding="UTF-8" standalone="no"?>
<!DOCTYPE svg PUBLIC "-//W3C//DTD SVG 1.1//EN"
 "http://www.w3.org/Graphics/SVG/1.1/DTD/svg11.dtd">
<!-- Generated by graphviz version 14.1.3 (20260303.0454)
 -->
<!-- Title: llvm::EphemeralValuesAnalysis Pages: 1 -->
<svg width="942pt" height="90pt"
 viewBox="0.00 0.00 942.00 90.00" xmlns="http://www.w3.org/2000/svg" xmlns:xlink="http://www.w3.org/1999/xlink">
<g id="graph0" class="graph" transform="scale(1 1) rotate(0) translate(4 85.5)">
<title>llvm::EphemeralValuesAnalysis</title>
<!-- Node1 -->
<g id="Node000001" class="node">
<title>Node1</title>
<g id="a_Node000001"><a xlink:title=" ">
<polygon fill="#999999" stroke="#666666" points="933.5,-48.88 780.25,-48.88 780.25,-29.62 933.5,-29.62 933.5,-48.88"/>
<text xml:space="preserve" text-anchor="middle" x="856.88" y="-35.38" font-family="Helvetica,sans-Serif" font-size="10.00">llvm::EphemeralValuesAnalysis</text>
</a>
</g>
</g>
<!-- Node2 -->
<g id="Node000002" class="node">
<title>Node2</title>
<g id="a_Node000002"><a xlink:href="structllvm_1_1AnalysisInfoMixin.html" target="_top" xlink:title=" ">
<polygon fill="white" stroke="#666666" points="743.25,-54.5 596,-54.5 596,-24 743.25,-24 743.25,-54.5"/>
<text xml:space="preserve" text-anchor="start" x="604" y="-41" font-family="Helvetica,sans-Serif" font-size="10.00">llvm::AnalysisInfoMixin</text>
<text xml:space="preserve" text-anchor="middle" x="669.62" y="-29.75" font-family="Helvetica,sans-Serif" font-size="10.00">&lt; EphemeralValuesAnalysis &gt;</text>
</a>
</g>
</g>
<!-- Node2&#45;&gt;Node1 -->
<g id="edge1_Node000001_Node000002" class="edge">
<title>Node2&#45;&gt;Node1</title>
<g id="a_edge1_Node000001_Node000002"><a xlink:title=" ">
<path fill="none" stroke="#63b8ff" d="M754.88,-39.25C763.24,-39.25 771.68,-39.25 779.95,-39.25"/>
<polygon fill="#63b8ff" stroke="#63b8ff" points="755.09,-35.75 745.09,-39.25 755.09,-42.75 755.09,-35.75"/>
</a>
</g>
</g>
<!-- Node3 -->
<g id="Node000003" class="node">
<title>Node3</title>
<g id="a_Node000003"><a xlink:href="structllvm_1_1PassInfoMixin.html" target="_top" xlink:title=" ">
<polygon fill="white" stroke="#666666" points="422.75,-79.5 275.5,-79.5 275.5,-49 422.75,-49 422.75,-79.5"/>
<text xml:space="preserve" text-anchor="start" x="283.5" y="-66" font-family="Helvetica,sans-Serif" font-size="10.00">llvm::PassInfoMixin</text>
<text xml:space="preserve" text-anchor="middle" x="349.12" y="-54.75" font-family="Helvetica,sans-Serif" font-size="10.00">&lt; EphemeralValuesAnalysis &gt;</text>
</a>
</g>
</g>
<!-- Node3&#45;&gt;Node2 -->
<g id="edge2_Node000002_Node000003" class="edge">
<title>Node3&#45;&gt;Node2</title>
<g id="a_edge2_Node000002_Node000003"><a xlink:title=" ">
<path fill="none" stroke="#63b8ff" d="M434.66,-57.61C484.78,-53.68 547.67,-48.74 595.62,-44.98"/>
<polygon fill="#63b8ff" stroke="#63b8ff" points="434.4,-54.12 424.7,-58.4 434.95,-61.1 434.4,-54.12"/>
</a>
</g>
</g>
<!-- Node4 -->
<g id="Node000004" class="node">
<title>Node4</title>
<g id="a_Node000004"><a xlink:href="structllvm_1_1PassInfoMixin.html" target="_top" xlink:title="A CRTP mix&#45;in to automatically provide informational APIs needed for passes.">
<polygon fill="white" stroke="#666666" points="102.25,-79.5 0,-79.5 0,-49 102.25,-49 102.25,-79.5"/>
<text xml:space="preserve" text-anchor="start" x="8" y="-66" font-family="Helvetica,sans-Serif" font-size="10.00">llvm::PassInfoMixin</text>
<text xml:space="preserve" text-anchor="middle" x="51.12" y="-54.75" font-family="Helvetica,sans-Serif" font-size="10.00">&lt; DerivedT &gt;</text>
</a>
</g>
</g>
<!-- Node4&#45;&gt;Node3 -->
<g id="edge3_Node000003_Node000004" class="edge">
<title>Node4&#45;&gt;Node3</title>
<g id="a_edge3_Node000003_Node000004"><a xlink:title=" ">
<path fill="none" stroke="orange" stroke-dasharray="5,2" d="M113.9,-64.25C160.83,-64.25 225.53,-64.25 275.04,-64.25"/>
<polygon fill="orange" stroke="orange" points="114.19,-60.75 104.19,-64.25 114.19,-67.75 114.19,-60.75"/>
</a>
</g>
<text xml:space="preserve" text-anchor="start" x="123.25" y="-70.25" font-family="Helvetica,sans-Serif" font-size="10.00" fill="grey">&lt; EphemeralValuesAnalysis &gt;</text>
</g>
<!-- Node5 -->
<g id="Node000005" class="node">
<title>Node5</title>
<g id="a_Node000005"><a xlink:href="structllvm_1_1AnalysisInfoMixin.html" target="_top" xlink:title="A CRTP mix&#45;in that provides informational APIs needed for analysis passes.">
<polygon fill="white" stroke="#666666" points="407.75,-30.5 290.5,-30.5 290.5,0 407.75,0 407.75,-30.5"/>
<text xml:space="preserve" text-anchor="start" x="298.5" y="-17" font-family="Helvetica,sans-Serif" font-size="10.00">llvm::AnalysisInfoMixin</text>
<text xml:space="preserve" text-anchor="middle" x="349.12" y="-5.75" font-family="Helvetica,sans-Serif" font-size="10.00">&lt; DerivedT &gt;</text>
</a>
</g>
</g>
<!-- Node5&#45;&gt;Node2 -->
<g id="edge4_Node000002_Node000005" class="edge">
<title>Node5&#45;&gt;Node2</title>
<g id="a_edge4_Node000002_Node000005"><a xlink:title=" ">
<path fill="none" stroke="orange" stroke-dasharray="5,2" d="M419.25,-17.9C464.47,-19.94 524.81,-23.22 578,-28 583.84,-28.53 589.89,-29.13 595.96,-29.79"/>
<polygon fill="orange" stroke="orange" points="419.46,-14.41 409.31,-17.46 419.15,-21.4 419.46,-14.41"/>
</a>
</g>
<text xml:space="preserve" text-anchor="start" x="443.75" y="-34" font-family="Helvetica,sans-Serif" font-size="10.00" fill="grey">&lt; EphemeralValuesAnalysis &gt;</text>
</g>
<!-- Node6 -->
<g id="Node000006" class="node">
<title>Node6</title>
<g id="a_Node000006"><a xlink:href="structllvm_1_1PassInfoMixin.html" target="_top" xlink:title="A CRTP mix&#45;in to automatically provide informational APIs needed for passes.">
<polygon fill="white" stroke="#666666" points="102.25,-30.5 0,-30.5 0,0 102.25,0 102.25,-30.5"/>
<text xml:space="preserve" text-anchor="start" x="8" y="-17" font-family="Helvetica,sans-Serif" font-size="10.00">llvm::PassInfoMixin</text>
<text xml:space="preserve" text-anchor="middle" x="51.12" y="-5.75" font-family="Helvetica,sans-Serif" font-size="10.00">&lt; DerivedT &gt;</text>
</a>
</g>
</g>
<!-- Node6&#45;&gt;Node5 -->
<g id="edge5_Node000005_Node000006" class="edge">
<title>Node6&#45;&gt;Node5</title>
<g id="a_edge5_Node000005_Node000006"><a xlink:title=" ">
<path fill="none" stroke="#63b8ff" d="M114.05,-15.25C165.93,-15.25 239.44,-15.25 290.18,-15.25"/>
<polygon fill="#63b8ff" stroke="#63b8ff" points="114.19,-11.75 104.19,-15.25 114.19,-18.75 114.19,-11.75"/>
</a>
</g>
</g>
</g>
</svg>
