<?xml version="1.0" encoding="UTF-8" standalone="no"?>
<!DOCTYPE svg PUBLIC "-//W3C//DTD SVG 1.1//EN"
 "http://www.w3.org/Graphics/SVG/1.1/DTD/svg11.dtd">
<!-- Generated by graphviz version 14.1.3 (20260303.0454)
 -->
<!-- Title: llvm::RecTy Pages: 1 -->
<svg width="213pt" height="249pt"
 viewBox="0.00 0.00 213.00 249.00" xmlns="http://www.w3.org/2000/svg" xmlns:xlink="http://www.w3.org/1999/xlink">
<g id="graph0" class="graph" transform="scale(1 1) rotate(0) translate(4 245.25)">
<title>llvm::RecTy</title>
<!-- Node1 -->
<g id="Node000001" class="node">
<title>Node1</title>
<g id="a_Node000001"><a xlink:title=" ">
<polygon fill="#999999" stroke="#666666" points="68.5,-130.25 0,-130.25 0,-111 68.5,-111 68.5,-130.25"/>
<text xml:space="preserve" text-anchor="middle" x="34.25" y="-116.75" font-family="Helvetica,sans-Serif" font-size="10.00">llvm::RecTy</text>
</a>
</g>
</g>
<!-- Node2 -->
<g id="Node000002" class="node">
<title>Node2</title>
<g id="a_Node000002"><a xlink:href="classllvm_1_1BitRecTy.html" target="_top" xlink:title="&#39;bit&#39; &#45; Represent a single bit">
<polygon fill="white" stroke="#666666" points="194.75,-241.25 114.25,-241.25 114.25,-222 194.75,-222 194.75,-241.25"/>
<text xml:space="preserve" text-anchor="middle" x="154.5" y="-227.75" font-family="Helvetica,sans-Serif" font-size="10.00">llvm::BitRecTy</text>
</a>
</g>
</g>
<!-- Node1&#45;&gt;Node2 -->
<g id="edge1_Node000001_Node000002" class="edge">
<title>Node1&#45;&gt;Node2</title>
<g id="a_edge1_Node000001_Node000002"><a xlink:title=" ">
<path fill="none" stroke="#63b8ff" d="M45.49,-140.53C57.17,-161.42 78.11,-193.92 104.5,-213.62 108.64,-216.72 113.36,-219.32 118.21,-221.51"/>
<polygon fill="#63b8ff" stroke="#63b8ff" points="48.65,-139.01 40.83,-131.86 42.48,-142.32 48.65,-139.01"/>
</a>
</g>
</g>
<!-- Node3 -->
<g id="Node000003" class="node">
<title>Node3</title>
<g id="a_Node000003"><a xlink:href="classllvm_1_1BitsRecTy.html" target="_top" xlink:title="&#39;bits&lt;n&gt;&#39; &#45; Represent a fixed number of bits">
<polygon fill="white" stroke="#666666" points="197.38,-204.25 111.62,-204.25 111.62,-185 197.38,-185 197.38,-204.25"/>
<text xml:space="preserve" text-anchor="middle" x="154.5" y="-190.75" font-family="Helvetica,sans-Serif" font-size="10.00">llvm::BitsRecTy</text>
</a>
</g>
</g>
<!-- Node1&#45;&gt;Node3 -->
<g id="edge2_Node000001_Node000003" class="edge">
<title>Node1&#45;&gt;Node3</title>
<g id="a_edge2_Node000001_Node000003"><a xlink:title=" ">
<path fill="none" stroke="#63b8ff" d="M53.49,-138.18C66.79,-150.25 85.71,-165.96 104.5,-176.62 109.78,-179.62 115.65,-182.28 121.45,-184.58"/>
<polygon fill="#63b8ff" stroke="#63b8ff" points="56.07,-135.8 46.36,-131.55 51.3,-140.92 56.07,-135.8"/>
</a>
</g>
</g>
<!-- Node4 -->
<g id="Node000004" class="node">
<title>Node4</title>
<g id="a_Node000004"><a xlink:href="classllvm_1_1DagRecTy.html" target="_top" xlink:title="&#39;dag&#39; &#45; Represent a dag fragment">
<polygon fill="white" stroke="#666666" points="197.75,-167.25 111.25,-167.25 111.25,-148 197.75,-148 197.75,-167.25"/>
<text xml:space="preserve" text-anchor="middle" x="154.5" y="-153.75" font-family="Helvetica,sans-Serif" font-size="10.00">llvm::DagRecTy</text>
</a>
</g>
</g>
<!-- Node1&#45;&gt;Node4 -->
<g id="edge3_Node000001_Node000004" class="edge">
<title>Node1&#45;&gt;Node4</title>
<g id="a_edge3_Node000001_Node000004"><a xlink:title=" ">
<path fill="none" stroke="#63b8ff" d="M78.54,-134.17C92.65,-138.59 108.07,-143.41 121.23,-147.53"/>
<polygon fill="#63b8ff" stroke="#63b8ff" points="79.6,-130.83 69.01,-131.19 77.51,-137.51 79.6,-130.83"/>
</a>
</g>
</g>
<!-- Node5 -->
<g id="Node000005" class="node">
<title>Node5</title>
<g id="a_Node000005"><a xlink:href="classllvm_1_1IntRecTy.html" target="_top" xlink:title="&#39;int&#39; &#45; Represent an integer value of no particular size">
<polygon fill="white" stroke="#666666" points="194.38,-130.25 114.62,-130.25 114.62,-111 194.38,-111 194.38,-130.25"/>
<text xml:space="preserve" text-anchor="middle" x="154.5" y="-116.75" font-family="Helvetica,sans-Serif" font-size="10.00">llvm::IntRecTy</text>
</a>
</g>
</g>
<!-- Node1&#45;&gt;Node5 -->
<g id="edge4_Node000001_Node000005" class="edge">
<title>Node1&#45;&gt;Node5</title>
<g id="a_edge4_Node000001_Node000005"><a xlink:title=" ">
<path fill="none" stroke="#63b8ff" d="M80.22,-120.62C91.48,-120.62 103.46,-120.62 114.41,-120.62"/>
<polygon fill="#63b8ff" stroke="#63b8ff" points="80.33,-117.13 70.33,-120.63 80.33,-124.13 80.33,-117.13"/>
</a>
</g>
</g>
<!-- Node6 -->
<g id="Node000006" class="node">
<title>Node6</title>
<g id="a_Node000006"><a xlink:href="classllvm_1_1ListRecTy.html" target="_top" xlink:title="&#39;list&lt;Ty&gt;&#39; &#45; Represent a list of element values, all of which must be of the specified type.">
<polygon fill="white" stroke="#666666" points="196.62,-93.25 112.38,-93.25 112.38,-74 196.62,-74 196.62,-93.25"/>
<text xml:space="preserve" text-anchor="middle" x="154.5" y="-79.75" font-family="Helvetica,sans-Serif" font-size="10.00">llvm::ListRecTy</text>
</a>
</g>
</g>
<!-- Node1&#45;&gt;Node6 -->
<g id="edge5_Node000001_Node000006" class="edge">
<title>Node1&#45;&gt;Node6</title>
<g id="a_edge5_Node000001_Node000006"><a xlink:title=" ">
<path fill="none" stroke="#63b8ff" d="M78.54,-107.08C92.65,-102.66 108.07,-97.84 121.23,-93.72"/>
<polygon fill="#63b8ff" stroke="#63b8ff" points="77.51,-103.74 69.01,-110.06 79.6,-110.42 77.51,-103.74"/>
</a>
</g>
</g>
<!-- Node7 -->
<g id="Node000007" class="node">
<title>Node7</title>
<g id="a_Node000007"><a xlink:href="classllvm_1_1RecordRecTy.html" target="_top" xlink:title="&#39;[classname]&#39; &#45; Type of record values that have zero or more superclasses.">
<polygon fill="white" stroke="#666666" points="204.5,-56.25 104.5,-56.25 104.5,-37 204.5,-37 204.5,-56.25"/>
<text xml:space="preserve" text-anchor="middle" x="154.5" y="-42.75" font-family="Helvetica,sans-Serif" font-size="10.00">llvm::RecordRecTy</text>
</a>
</g>
</g>
<!-- Node1&#45;&gt;Node7 -->
<g id="edge6_Node000001_Node000007" class="edge">
<title>Node1&#45;&gt;Node7</title>
<g id="a_edge6_Node000001_Node000007"><a xlink:title=" ">
<path fill="none" stroke="#63b8ff" d="M53.49,-103.07C66.79,-91 85.71,-75.29 104.5,-64.62 109.78,-61.63 115.65,-58.97 121.45,-56.67"/>
<polygon fill="#63b8ff" stroke="#63b8ff" points="51.3,-100.33 46.36,-109.7 56.07,-105.45 51.3,-100.33"/>
</a>
</g>
</g>
<!-- Node8 -->
<g id="Node000008" class="node">
<title>Node8</title>
<g id="a_Node000008"><a xlink:href="classllvm_1_1StringRecTy.html" target="_top" xlink:title="&#39;string&#39; &#45; Represent an string value">
<polygon fill="white" stroke="#666666" points="201.5,-19.25 107.5,-19.25 107.5,0 201.5,0 201.5,-19.25"/>
<text xml:space="preserve" text-anchor="middle" x="154.5" y="-5.75" font-family="Helvetica,sans-Serif" font-size="10.00">llvm::StringRecTy</text>
</a>
</g>
</g>
<!-- Node1&#45;&gt;Node8 -->
<g id="edge7_Node000001_Node000008" class="edge">
<title>Node1&#45;&gt;Node8</title>
<g id="a_edge7_Node000001_Node000008"><a xlink:title=" ">
<path fill="none" stroke="#63b8ff" d="M45.49,-100.72C57.17,-79.83 78.11,-47.33 104.5,-27.62 108.64,-24.53 113.36,-21.93 118.21,-19.74"/>
<polygon fill="#63b8ff" stroke="#63b8ff" points="42.48,-98.93 40.83,-109.39 48.65,-102.24 42.48,-98.93"/>
</a>
</g>
</g>
</g>
</svg>
