<?xml version="1.0" encoding="UTF-8" standalone="no"?>
<!DOCTYPE svg PUBLIC "-//W3C//DTD SVG 1.1//EN"
 "http://www.w3.org/Graphics/SVG/1.1/DTD/svg11.dtd">
<!-- Generated by graphviz version 14.1.3 (20260303.0454)
 -->
<!-- Title: llvm::BinaryConstantExpr Pages: 1 -->
<svg width="136pt" height="248pt"
 viewBox="0.00 0.00 136.00 248.00" xmlns="http://www.w3.org/2000/svg" xmlns:xlink="http://www.w3.org/1999/xlink">
<g id="graph0" class="graph" transform="scale(1 1) rotate(0) translate(4 244.25)">
<title>llvm::BinaryConstantExpr</title>
<!-- Node1 -->
<g id="Node000001" class="node">
<title>Node1</title>
<g id="a_Node000001"><a xlink:title="BinaryConstantExpr &#45; This class is private to Constants.cpp, and is used behind the scenes to impleme...">
<polygon fill="#999999" stroke="#666666" points="127.75,-19.25 0,-19.25 0,0 127.75,0 127.75,-19.25"/>
<text xml:space="preserve" text-anchor="middle" x="63.88" y="-5.75" font-family="Helvetica,sans-Serif" font-size="10.00">llvm::BinaryConstantExpr</text>
</a>
</g>
</g>
<!-- Node2 -->
<g id="Node000002" class="node">
<title>Node2</title>
<g id="a_Node000002"><a xlink:href="classllvm_1_1ConstantExpr.html" target="_top" xlink:title="A constant value that is initialized with an expression using other constant values.">
<polygon fill="white" stroke="#666666" points="113.88,-74.5 13.88,-74.5 13.88,-55.25 113.88,-55.25 113.88,-74.5"/>
<text xml:space="preserve" text-anchor="middle" x="63.88" y="-61" font-family="Helvetica,sans-Serif" font-size="10.00">llvm::ConstantExpr</text>
</a>
</g>
</g>
<!-- Node2&#45;&gt;Node1 -->
<g id="edge1_Node000001_Node000002" class="edge">
<title>Node2&#45;&gt;Node1</title>
<g id="a_edge1_Node000001_Node000002"><a xlink:title=" ">
<path fill="none" stroke="#63b8ff" d="M63.88,-43.63C63.88,-35.34 63.88,-26.17 63.88,-19.61"/>
<polygon fill="#63b8ff" stroke="#63b8ff" points="60.38,-43.57 63.88,-53.57 67.38,-43.57 60.38,-43.57"/>
</a>
</g>
</g>
<!-- Node3 -->
<g id="Node000003" class="node">
<title>Node3</title>
<g id="a_Node000003"><a xlink:href="classllvm_1_1Constant.html" target="_top" xlink:title="This is an important base class in LLVM.">
<polygon fill="white" stroke="#666666" points="103.75,-129.75 24,-129.75 24,-110.5 103.75,-110.5 103.75,-129.75"/>
<text xml:space="preserve" text-anchor="middle" x="63.88" y="-116.25" font-family="Helvetica,sans-Serif" font-size="10.00">llvm::Constant</text>
</a>
</g>
</g>
<!-- Node3&#45;&gt;Node2 -->
<g id="edge2_Node000002_Node000003" class="edge">
<title>Node3&#45;&gt;Node2</title>
<g id="a_edge2_Node000002_Node000003"><a xlink:title=" ">
<path fill="none" stroke="#63b8ff" d="M63.88,-98.88C63.88,-90.59 63.88,-81.42 63.88,-74.86"/>
<polygon fill="#63b8ff" stroke="#63b8ff" points="60.38,-98.82 63.88,-108.82 67.38,-98.82 60.38,-98.82"/>
</a>
</g>
</g>
<!-- Node4 -->
<g id="Node000004" class="node">
<title>Node4</title>
<g id="a_Node000004"><a xlink:href="classllvm_1_1User.html" target="_top" xlink:title=" ">
<polygon fill="white" stroke="#666666" points="94.38,-185 33.38,-185 33.38,-165.75 94.38,-165.75 94.38,-185"/>
<text xml:space="preserve" text-anchor="middle" x="63.88" y="-171.5" font-family="Helvetica,sans-Serif" font-size="10.00">llvm::User</text>
</a>
</g>
</g>
<!-- Node4&#45;&gt;Node3 -->
<g id="edge3_Node000003_Node000004" class="edge">
<title>Node4&#45;&gt;Node3</title>
<g id="a_edge3_Node000003_Node000004"><a xlink:title=" ">
<path fill="none" stroke="#63b8ff" d="M63.88,-154.13C63.88,-145.84 63.88,-136.67 63.88,-130.11"/>
<polygon fill="#63b8ff" stroke="#63b8ff" points="60.38,-154.07 63.88,-164.07 67.38,-154.07 60.38,-154.07"/>
</a>
</g>
</g>
<!-- Node5 -->
<g id="Node000005" class="node">
<title>Node5</title>
<g id="a_Node000005"><a xlink:href="classllvm_1_1Value.html" target="_top" xlink:title="LLVM Value Representation.">
<polygon fill="white" stroke="#666666" points="95.88,-240.25 31.88,-240.25 31.88,-221 95.88,-221 95.88,-240.25"/>
<text xml:space="preserve" text-anchor="middle" x="63.88" y="-226.75" font-family="Helvetica,sans-Serif" font-size="10.00">llvm::Value</text>
</a>
</g>
</g>
<!-- Node5&#45;&gt;Node4 -->
<g id="edge4_Node000004_Node000005" class="edge">
<title>Node5&#45;&gt;Node4</title>
<g id="a_edge4_Node000004_Node000005"><a xlink:title=" ">
<path fill="none" stroke="#63b8ff" d="M63.88,-209.38C63.88,-201.09 63.88,-191.92 63.88,-185.36"/>
<polygon fill="#63b8ff" stroke="#63b8ff" points="60.38,-209.32 63.88,-219.32 67.38,-209.32 60.38,-209.32"/>
</a>
</g>
</g>
</g>
</svg>
