<?xml version="1.0" encoding="UTF-8" standalone="no"?>
<!DOCTYPE svg PUBLIC "-//W3C//DTD SVG 1.1//EN"
 "http://www.w3.org/Graphics/SVG/1.1/DTD/svg11.dtd">
<!-- Generated by graphviz version 14.1.3 (20260303.0454)
 -->
<!-- Title: llvm::cas::OnDiskTrieRawHashMap::PointerImpl&lt; ProxyT &gt; Pages: 1 -->
<svg width="580pt" height="110pt"
 viewBox="0.00 0.00 580.00 110.00" xmlns="http://www.w3.org/2000/svg" xmlns:xlink="http://www.w3.org/1999/xlink">
<g id="graph0" class="graph" transform="scale(1 1) rotate(0) translate(4 105.75)">
<title>llvm::cas::OnDiskTrieRawHashMap::PointerImpl&lt; ProxyT &gt;</title>
<!-- Node1 -->
<g id="Node000001" class="node">
<title>Node1</title>
<g id="a_Node000001"><a xlink:title="Template class to implement a pointer type into the trie data structure.">
<polygon fill="#999999" stroke="#666666" points="131.5,-71.75 0,-71.75 0,-30 131.5,-30 131.5,-71.75"/>
<text xml:space="preserve" text-anchor="start" x="8" y="-58.25" font-family="Helvetica,sans-Serif" font-size="10.00">llvm::cas::OnDiskTrieRaw</text>
<text xml:space="preserve" text-anchor="start" x="8" y="-47" font-family="Helvetica,sans-Serif" font-size="10.00">HashMap::PointerImpl&lt;</text>
<text xml:space="preserve" text-anchor="middle" x="65.75" y="-35.75" font-family="Helvetica,sans-Serif" font-size="10.00"> ProxyT &gt;</text>
</a>
</g>
</g>
<!-- Node2 -->
<g id="Node000002" class="node">
<title>Node2</title>
<g id="a_Node000002"><a xlink:href="classllvm_1_1cas_1_1OnDiskTrieRawHashMap_1_1PointerImpl.html" target="_top" xlink:title=" ">
<polygon fill="white" stroke="#666666" points="398.75,-101.75 267.25,-101.75 267.25,-60 398.75,-60 398.75,-101.75"/>
<text xml:space="preserve" text-anchor="start" x="275.25" y="-88.25" font-family="Helvetica,sans-Serif" font-size="10.00">llvm::cas::OnDiskTrieRaw</text>
<text xml:space="preserve" text-anchor="start" x="275.25" y="-77" font-family="Helvetica,sans-Serif" font-size="10.00">HashMap::PointerImpl&lt;</text>
<text xml:space="preserve" text-anchor="middle" x="333" y="-65.75" font-family="Helvetica,sans-Serif" font-size="10.00"> ConstValueProxy &gt;</text>
</a>
</g>
</g>
<!-- Node1&#45;&gt;Node2 -->
<g id="edge1_Node000001_Node000002" class="edge">
<title>Node1&#45;&gt;Node2</title>
<g id="a_edge1_Node000001_Node000002"><a xlink:title=" ">
<path fill="none" stroke="orange" stroke-dasharray="5,2" d="M143.33,-59.54C182.49,-63.97 229.65,-69.3 267.03,-73.53"/>
<polygon fill="orange" stroke="orange" points="143.81,-56.07 133.48,-58.42 143.02,-63.02 143.81,-56.07"/>
</a>
</g>
<text xml:space="preserve" text-anchor="start" x="152.5" y="-77.17" font-family="Helvetica,sans-Serif" font-size="10.00" fill="grey">&lt; ConstValueProxy &gt;</text>
</g>
<!-- Node4 -->
<g id="Node000004" class="node">
<title>Node4</title>
<g id="a_Node000004"><a xlink:href="classllvm_1_1cas_1_1OnDiskTrieRawHashMap_1_1PointerImpl.html" target="_top" xlink:title=" ">
<polygon fill="white" stroke="#666666" points="398.75,-41.75 267.25,-41.75 267.25,0 398.75,0 398.75,-41.75"/>
<text xml:space="preserve" text-anchor="start" x="275.25" y="-28.25" font-family="Helvetica,sans-Serif" font-size="10.00">llvm::cas::OnDiskTrieRaw</text>
<text xml:space="preserve" text-anchor="start" x="275.25" y="-17" font-family="Helvetica,sans-Serif" font-size="10.00">HashMap::PointerImpl&lt;</text>
<text xml:space="preserve" text-anchor="middle" x="333" y="-5.75" font-family="Helvetica,sans-Serif" font-size="10.00"> ValueProxy &gt;</text>
</a>
</g>
</g>
<!-- Node1&#45;&gt;Node4 -->
<g id="edge3_Node000001_Node000004" class="edge">
<title>Node1&#45;&gt;Node4</title>
<g id="a_edge3_Node000001_Node000004"><a xlink:title=" ">
<path fill="none" stroke="orange" stroke-dasharray="5,2" d="M142.94,-40.42C145.15,-40.15 147.34,-39.88 149.5,-39.62 188.4,-34.98 232.05,-30.47 266.91,-27.04"/>
<polygon fill="orange" stroke="orange" points="142.76,-36.92 133.27,-41.64 143.63,-43.86 142.76,-36.92"/>
</a>
</g>
<text xml:space="preserve" text-anchor="start" x="165.62" y="-45.62" font-family="Helvetica,sans-Serif" font-size="10.00" fill="grey">&lt; ValueProxy &gt;</text>
</g>
<!-- Node3 -->
<g id="Node000003" class="node">
<title>Node3</title>
<g id="a_Node000003"><a xlink:href="classllvm_1_1cas_1_1OnDiskTrieRawHashMap_1_1ConstOnDiskPtr.html" target="_top" xlink:title=" ">
<polygon fill="white" stroke="#666666" points="571.75,-96.12 435.75,-96.12 435.75,-65.62 571.75,-65.62 571.75,-96.12"/>
<text xml:space="preserve" text-anchor="start" x="443.75" y="-82.62" font-family="Helvetica,sans-Serif" font-size="10.00">llvm::cas::OnDiskTrieRaw</text>
<text xml:space="preserve" text-anchor="middle" x="503.75" y="-71.38" font-family="Helvetica,sans-Serif" font-size="10.00">HashMap::ConstOnDiskPtr</text>
</a>
</g>
</g>
<!-- Node2&#45;&gt;Node3 -->
<g id="edge2_Node000002_Node000003" class="edge">
<title>Node2&#45;&gt;Node3</title>
<g id="a_edge2_Node000002_Node000003"><a xlink:title=" ">
<path fill="none" stroke="#63b8ff" d="M410.5,-80.88C418.82,-80.88 427.25,-80.88 435.45,-80.88"/>
<polygon fill="#63b8ff" stroke="#63b8ff" points="410.76,-77.38 400.76,-80.88 410.76,-84.38 410.76,-77.38"/>
</a>
</g>
</g>
<!-- Node5 -->
<g id="Node000005" class="node">
<title>Node5</title>
<g id="a_Node000005"><a xlink:href="classllvm_1_1cas_1_1OnDiskTrieRawHashMap_1_1OnDiskPtr.html" target="_top" xlink:title=" ">
<polygon fill="white" stroke="#666666" points="569.5,-36.12 438,-36.12 438,-5.62 569.5,-5.62 569.5,-36.12"/>
<text xml:space="preserve" text-anchor="start" x="446" y="-22.62" font-family="Helvetica,sans-Serif" font-size="10.00">llvm::cas::OnDiskTrieRaw</text>
<text xml:space="preserve" text-anchor="middle" x="503.75" y="-11.38" font-family="Helvetica,sans-Serif" font-size="10.00">HashMap::OnDiskPtr</text>
</a>
</g>
</g>
<!-- Node4&#45;&gt;Node5 -->
<g id="edge4_Node000004_Node000005" class="edge">
<title>Node4&#45;&gt;Node5</title>
<g id="a_edge4_Node000004_Node000005"><a xlink:title=" ">
<path fill="none" stroke="#63b8ff" d="M410.6,-20.88C419.65,-20.88 428.82,-20.88 437.68,-20.88"/>
<polygon fill="#63b8ff" stroke="#63b8ff" points="410.76,-17.38 400.76,-20.88 410.76,-24.38 410.76,-17.38"/>
</a>
</g>
</g>
</g>
</svg>
