<?xml version="1.0" encoding="UTF-8" standalone="no"?>
<!DOCTYPE svg PUBLIC "-//W3C//DTD SVG 1.1//EN"
 "http://www.w3.org/Graphics/SVG/1.1/DTD/svg11.dtd">
<!-- Generated by graphviz version 14.1.3 (20260303.0454)
 -->
<!-- Title: llvm::SCEVRewriteVisitor&lt; SC &gt; Pages: 1 -->
<svg width="1061pt" height="137pt"
 viewBox="0.00 0.00 1061.00 137.00" xmlns="http://www.w3.org/2000/svg" xmlns:xlink="http://www.w3.org/1999/xlink">
<g id="graph0" class="graph" transform="scale(1 1) rotate(0) translate(4 132.5)">
<title>llvm::SCEVRewriteVisitor&lt; SC &gt;</title>
<!-- Node1 -->
<g id="Node000001" class="node">
<title>Node1</title>
<g id="a_Node000001"><a xlink:title="This visitor recursively visits a SCEV expression and re&#45;writes it.">
<polygon fill="#999999" stroke="#666666" points="519.25,-79.5 390,-79.5 390,-49 519.25,-49 519.25,-79.5"/>
<text xml:space="preserve" text-anchor="start" x="398" y="-66" font-family="Helvetica,sans-Serif" font-size="10.00">llvm::SCEVRewriteVisitor</text>
<text xml:space="preserve" text-anchor="middle" x="454.62" y="-54.75" font-family="Helvetica,sans-Serif" font-size="10.00">&lt; SC &gt;</text>
</a>
</g>
</g>
<!-- Node4 -->
<g id="Node000004" class="node">
<title>Node4</title>
<g id="a_Node000004"><a xlink:href="classllvm_1_1SCEVRewriteVisitor.html" target="_top" xlink:title=" ">
<polygon fill="white" stroke="#666666" points="853.25,-128.5 701.5,-128.5 701.5,-98 853.25,-98 853.25,-128.5"/>
<text xml:space="preserve" text-anchor="start" x="709.5" y="-115" font-family="Helvetica,sans-Serif" font-size="10.00">llvm::SCEVRewriteVisitor</text>
<text xml:space="preserve" text-anchor="middle" x="777.38" y="-103.75" font-family="Helvetica,sans-Serif" font-size="10.00">&lt; SCEVCastSinkingRewriter &gt;</text>
</a>
</g>
</g>
<!-- Node1&#45;&gt;Node4 -->
<g id="edge3_Node000001_Node000004" class="edge">
<title>Node1&#45;&gt;Node4</title>
<g id="a_edge3_Node000001_Node000004"><a xlink:title=" ">
<path fill="none" stroke="orange" stroke-dasharray="5,2" d="M523.39,-82.43C528.07,-83.45 532.72,-84.41 537.25,-85.25 591.7,-95.39 653.84,-102.54 701.13,-107.07"/>
<polygon fill="orange" stroke="orange" points="524.5,-79.09 513.97,-80.27 522.93,-85.91 524.5,-79.09"/>
</a>
</g>
<text xml:space="preserve" text-anchor="start" x="541.75" y="-110.85" font-family="Helvetica,sans-Serif" font-size="10.00" fill="grey">&lt; SCEVCastSinkingRewriter &gt;</text>
</g>
<!-- Node6 -->
<g id="Node000006" class="node">
<title>Node6</title>
<g id="a_Node000006"><a xlink:href="classllvm_1_1SCEVRewriteVisitor.html" target="_top" xlink:title=" ">
<polygon fill="white" stroke="#666666" points="854.75,-79.5 700,-79.5 700,-49 854.75,-49 854.75,-79.5"/>
<text xml:space="preserve" text-anchor="start" x="708" y="-66" font-family="Helvetica,sans-Serif" font-size="10.00">llvm::SCEVRewriteVisitor</text>
<text xml:space="preserve" text-anchor="middle" x="777.38" y="-54.75" font-family="Helvetica,sans-Serif" font-size="10.00">&lt; SCEVLoopAddRecRewriter &gt;</text>
</a>
</g>
</g>
<!-- Node1&#45;&gt;Node6 -->
<g id="edge5_Node000001_Node000006" class="edge">
<title>Node1&#45;&gt;Node6</title>
<g id="a_edge5_Node000001_Node000006"><a xlink:title=" ">
<path fill="none" stroke="orange" stroke-dasharray="5,2" d="M530.63,-64.25C581.49,-64.25 648.53,-64.25 699.74,-64.25"/>
<polygon fill="orange" stroke="orange" points="530.89,-60.75 520.89,-64.25 530.89,-67.75 530.89,-60.75"/>
</a>
</g>
<text xml:space="preserve" text-anchor="start" x="540.25" y="-70.25" font-family="Helvetica,sans-Serif" font-size="10.00" fill="grey">&lt; SCEVLoopAddRecRewriter &gt;</text>
</g>
<!-- Node8 -->
<g id="Node000008" class="node">
<title>Node8</title>
<g id="a_Node000008"><a xlink:href="classllvm_1_1SCEVRewriteVisitor.html" target="_top" xlink:title=" ">
<polygon fill="white" stroke="#666666" points="849.12,-30.5 705.62,-30.5 705.62,0 849.12,0 849.12,-30.5"/>
<text xml:space="preserve" text-anchor="start" x="713.62" y="-17" font-family="Helvetica,sans-Serif" font-size="10.00">llvm::SCEVRewriteVisitor</text>
<text xml:space="preserve" text-anchor="middle" x="777.38" y="-5.75" font-family="Helvetica,sans-Serif" font-size="10.00">&lt; SCEVParameterRewriter &gt;</text>
</a>
</g>
</g>
<!-- Node1&#45;&gt;Node8 -->
<g id="edge7_Node000001_Node000008" class="edge">
<title>Node1&#45;&gt;Node8</title>
<g id="a_edge7_Node000001_Node000008"><a xlink:title=" ">
<path fill="none" stroke="orange" stroke-dasharray="5,2" d="M522.48,-46.05C527.46,-44.94 532.42,-43.9 537.25,-43 593.32,-32.5 657.58,-25.31 705.36,-20.88"/>
<polygon fill="orange" stroke="orange" points="522.02,-42.56 513.07,-48.24 523.6,-49.38 522.02,-42.56"/>
</a>
</g>
<text xml:space="preserve" text-anchor="start" x="545.88" y="-49" font-family="Helvetica,sans-Serif" font-size="10.00" fill="grey">&lt; SCEVParameterRewriter &gt;</text>
</g>
<!-- Node2 -->
<g id="Node000002" class="node">
<title>Node2</title>
<g id="a_Node000002"><a xlink:href="structllvm_1_1SCEVVisitor.html" target="_top" xlink:title=" ">
<polygon fill="white" stroke="#666666" points="353,-79.5 243.25,-79.5 243.25,-49 353,-49 353,-79.5"/>
<text xml:space="preserve" text-anchor="start" x="251.25" y="-66" font-family="Helvetica,sans-Serif" font-size="10.00">llvm::SCEVVisitor&lt;</text>
<text xml:space="preserve" text-anchor="middle" x="298.12" y="-54.75" font-family="Helvetica,sans-Serif" font-size="10.00"> SC, const SCEV * &gt;</text>
</a>
</g>
</g>
<!-- Node2&#45;&gt;Node1 -->
<g id="edge1_Node000001_Node000002" class="edge">
<title>Node2&#45;&gt;Node1</title>
<g id="a_edge1_Node000001_Node000002"><a xlink:title=" ">
<path fill="none" stroke="#63b8ff" d="M364.65,-64.25C372.9,-64.25 381.32,-64.25 389.54,-64.25"/>
<polygon fill="#63b8ff" stroke="#63b8ff" points="364.68,-60.75 354.68,-64.25 364.68,-67.75 364.68,-60.75"/>
</a>
</g>
</g>
<!-- Node3 -->
<g id="Node000003" class="node">
<title>Node3</title>
<g id="a_Node000003"><a xlink:href="structllvm_1_1SCEVVisitor.html" target="_top" xlink:title="This class defines a simple visitor class that may be used for various SCEV analysis purposes.">
<polygon fill="white" stroke="#666666" points="101.5,-79.5 0,-79.5 0,-49 101.5,-49 101.5,-79.5"/>
<text xml:space="preserve" text-anchor="start" x="8" y="-66" font-family="Helvetica,sans-Serif" font-size="10.00">llvm::SCEVVisitor&lt;</text>
<text xml:space="preserve" text-anchor="middle" x="50.75" y="-54.75" font-family="Helvetica,sans-Serif" font-size="10.00"> SC, RetVal &gt;</text>
</a>
</g>
</g>
<!-- Node3&#45;&gt;Node2 -->
<g id="edge2_Node000002_Node000003" class="edge">
<title>Node3&#45;&gt;Node2</title>
<g id="a_edge2_Node000002_Node000003"><a xlink:title=" ">
<path fill="none" stroke="orange" stroke-dasharray="5,2" d="M113.46,-64.25C153.37,-64.25 204.82,-64.25 243.11,-64.25"/>
<polygon fill="orange" stroke="orange" points="113.51,-60.75 103.51,-64.25 113.51,-67.75 113.51,-60.75"/>
</a>
</g>
<text xml:space="preserve" text-anchor="start" x="122.5" y="-70.25" font-family="Helvetica,sans-Serif" font-size="10.00" fill="grey">&lt; SC, const SCEV * &gt;</text>
</g>
<!-- Node5 -->
<g id="Node000005" class="node">
<title>Node5</title>
<g id="a_Node000005"><a xlink:href="classSCEVCastSinkingRewriter.html" target="_top" xlink:title="The SCEVCastSinkingRewriter takes a scalar evolution expression, which computes a pointer&#45;typed value...">
<polygon fill="white" stroke="#666666" points="1039,-122.88 905.25,-122.88 905.25,-103.62 1039,-103.62 1039,-122.88"/>
<text xml:space="preserve" text-anchor="middle" x="972.12" y="-109.38" font-family="Helvetica,sans-Serif" font-size="10.00">SCEVCastSinkingRewriter</text>
</a>
</g>
</g>
<!-- Node4&#45;&gt;Node5 -->
<g id="edge4_Node000004_Node000005" class="edge">
<title>Node4&#45;&gt;Node5</title>
<g id="a_edge4_Node000004_Node000005"><a xlink:title=" ">
<path fill="none" stroke="#63b8ff" d="M864.92,-113.25C878.34,-113.25 892.03,-113.25 904.91,-113.25"/>
<polygon fill="#63b8ff" stroke="#63b8ff" points="865.24,-109.75 855.24,-113.25 865.24,-116.75 865.24,-109.75"/>
</a>
</g>
</g>
<!-- Node7 -->
<g id="Node000007" class="node">
<title>Node7</title>
<g id="a_Node000007"><a xlink:href="classllvm_1_1SCEVLoopAddRecRewriter.html" target="_top" xlink:title="The SCEVLoopAddRecRewriter takes a scalar evolution expression and applies the Map (Loop &#45;&gt; SCEV) to ...">
<polygon fill="white" stroke="#666666" points="1052.5,-73.88 891.75,-73.88 891.75,-54.62 1052.5,-54.62 1052.5,-73.88"/>
<text xml:space="preserve" text-anchor="middle" x="972.12" y="-60.38" font-family="Helvetica,sans-Serif" font-size="10.00">llvm::SCEVLoopAddRecRewriter</text>
</a>
</g>
</g>
<!-- Node6&#45;&gt;Node7 -->
<g id="edge6_Node000006_Node000007" class="edge">
<title>Node6&#45;&gt;Node7</title>
<g id="a_edge6_Node000006_Node000007"><a xlink:title=" ">
<path fill="none" stroke="#63b8ff" d="M866.43,-64.25C874.79,-64.25 883.23,-64.25 891.5,-64.25"/>
<polygon fill="#63b8ff" stroke="#63b8ff" points="866.62,-60.75 856.62,-64.25 866.62,-67.75 866.62,-60.75"/>
</a>
</g>
</g>
<!-- Node9 -->
<g id="Node000009" class="node">
<title>Node9</title>
<g id="a_Node000009"><a xlink:href="classllvm_1_1SCEVParameterRewriter.html" target="_top" xlink:title="The SCEVParameterRewriter takes a scalar evolution expression and updates the SCEVUnknown components ...">
<polygon fill="white" stroke="#666666" points="1046.88,-24.88 897.38,-24.88 897.38,-5.62 1046.88,-5.62 1046.88,-24.88"/>
<text xml:space="preserve" text-anchor="middle" x="972.12" y="-11.38" font-family="Helvetica,sans-Serif" font-size="10.00">llvm::SCEVParameterRewriter</text>
</a>
</g>
</g>
<!-- Node8&#45;&gt;Node9 -->
<g id="edge8_Node000008_Node000009" class="edge">
<title>Node8&#45;&gt;Node9</title>
<g id="a_edge8_Node000008_Node000009"><a xlink:title=" ">
<path fill="none" stroke="#63b8ff" d="M860.96,-15.25C872.92,-15.25 885.18,-15.25 896.96,-15.25"/>
<polygon fill="#63b8ff" stroke="#63b8ff" points="861.11,-11.75 851.11,-15.25 861.11,-18.75 861.11,-11.75"/>
</a>
</g>
</g>
</g>
</svg>
