<?xml version="1.0" encoding="UTF-8" standalone="no"?>
<!DOCTYPE svg PUBLIC "-//W3C//DTD SVG 1.1//EN"
 "http://www.w3.org/Graphics/SVG/1.1/DTD/svg11.dtd">
<!-- Generated by graphviz version 14.1.3 (20260303.0454)
 -->
<!-- Title: llvm::TargetPassConfig Pages: 1 -->
<svg width="262pt" height="248pt"
 viewBox="0.00 0.00 262.00 248.00" xmlns="http://www.w3.org/2000/svg" xmlns:xlink="http://www.w3.org/1999/xlink">
<g id="graph0" class="graph" transform="scale(1 1) rotate(0) translate(4 244.25)">
<title>llvm::TargetPassConfig</title>
<!-- Node1 -->
<g id="Node000001" class="node">
<title>Node1</title>
<g id="a_Node000001"><a xlink:title="Target&#45;Independent Code Generator Pass Configuration Options.">
<polygon fill="#999999" stroke="#666666" points="177,-74.5 59,-74.5 59,-55.25 177,-55.25 177,-74.5"/>
<text xml:space="preserve" text-anchor="middle" x="118" y="-61" font-family="Helvetica,sans-Serif" font-size="10.00">llvm::TargetPassConfig</text>
</a>
</g>
</g>
<!-- Node5 -->
<g id="Node000005" class="node">
<title>Node5</title>
<g id="a_Node000005"><a xlink:href="classDirectXPassConfig.html" target="_top" xlink:title=" ">
<polygon fill="white" stroke="#666666" points="100,-19.25 0,-19.25 0,0 100,0 100,-19.25"/>
<text xml:space="preserve" text-anchor="middle" x="50" y="-5.75" font-family="Helvetica,sans-Serif" font-size="10.00">DirectXPassConfig</text>
</a>
</g>
</g>
<!-- Node1&#45;&gt;Node5 -->
<g id="edge4_Node000001_Node000005" class="edge">
<title>Node1&#45;&gt;Node5</title>
<g id="a_edge4_Node000001_Node000005"><a xlink:title=" ">
<path fill="none" stroke="#63b8ff" d="M97.65,-47.94C85.78,-38.64 71.24,-27.26 61.36,-19.52"/>
<polygon fill="#63b8ff" stroke="#63b8ff" points="95.24,-50.5 105.27,-53.91 99.56,-44.99 95.24,-50.5"/>
</a>
</g>
</g>
<!-- Node6 -->
<g id="Node000006" class="node">
<title>Node6</title>
<g id="a_Node000006"><a xlink:href="classllvm_1_1AMDGPUPassConfig.html" target="_top" xlink:title=" ">
<polygon fill="white" stroke="#666666" points="253.62,-19.25 118.38,-19.25 118.38,0 253.62,0 253.62,-19.25"/>
<text xml:space="preserve" text-anchor="middle" x="186" y="-5.75" font-family="Helvetica,sans-Serif" font-size="10.00">llvm::AMDGPUPassConfig</text>
</a>
</g>
</g>
<!-- Node1&#45;&gt;Node6 -->
<g id="edge5_Node000001_Node000006" class="edge">
<title>Node1&#45;&gt;Node6</title>
<g id="a_edge5_Node000001_Node000006"><a xlink:title=" ">
<path fill="none" stroke="#63b8ff" d="M138.35,-47.94C150.22,-38.64 164.76,-27.26 174.64,-19.52"/>
<polygon fill="#63b8ff" stroke="#63b8ff" points="136.44,-44.99 130.73,-53.91 140.76,-50.5 136.44,-44.99"/>
</a>
</g>
</g>
<!-- Node2 -->
<g id="Node000002" class="node">
<title>Node2</title>
<g id="a_Node000002"><a xlink:href="classllvm_1_1ImmutablePass.html" target="_top" xlink:title="ImmutablePass class &#45; This class is used to provide information that does not need to be run.">
<polygon fill="white" stroke="#666666" points="172.12,-129.75 63.88,-129.75 63.88,-110.5 172.12,-110.5 172.12,-129.75"/>
<text xml:space="preserve" text-anchor="middle" x="118" y="-116.25" font-family="Helvetica,sans-Serif" font-size="10.00">llvm::ImmutablePass</text>
</a>
</g>
</g>
<!-- Node2&#45;&gt;Node1 -->
<g id="edge1_Node000001_Node000002" class="edge">
<title>Node2&#45;&gt;Node1</title>
<g id="a_edge1_Node000001_Node000002"><a xlink:title=" ">
<path fill="none" stroke="#63b8ff" d="M118,-98.88C118,-90.59 118,-81.42 118,-74.86"/>
<polygon fill="#63b8ff" stroke="#63b8ff" points="114.5,-98.82 118,-108.82 121.5,-98.82 114.5,-98.82"/>
</a>
</g>
</g>
<!-- Node3 -->
<g id="Node000003" class="node">
<title>Node3</title>
<g id="a_Node000003"><a xlink:href="classllvm_1_1ModulePass.html" target="_top" xlink:title="ModulePass class &#45; This class is used to implement unstructured interprocedural optimizations and ana...">
<polygon fill="white" stroke="#666666" points="165,-185 71,-185 71,-165.75 165,-165.75 165,-185"/>
<text xml:space="preserve" text-anchor="middle" x="118" y="-171.5" font-family="Helvetica,sans-Serif" font-size="10.00">llvm::ModulePass</text>
</a>
</g>
</g>
<!-- Node3&#45;&gt;Node2 -->
<g id="edge2_Node000002_Node000003" class="edge">
<title>Node3&#45;&gt;Node2</title>
<g id="a_edge2_Node000002_Node000003"><a xlink:title=" ">
<path fill="none" stroke="#63b8ff" d="M118,-154.13C118,-145.84 118,-136.67 118,-130.11"/>
<polygon fill="#63b8ff" stroke="#63b8ff" points="114.5,-154.07 118,-164.07 121.5,-154.07 114.5,-154.07"/>
</a>
</g>
</g>
<!-- Node4 -->
<g id="Node000004" class="node">
<title>Node4</title>
<g id="a_Node000004"><a xlink:href="classllvm_1_1Pass.html" target="_top" xlink:title="Pass interface &#45; Implemented by all &#39;passes&#39;.">
<polygon fill="white" stroke="#666666" points="149.25,-240.25 86.75,-240.25 86.75,-221 149.25,-221 149.25,-240.25"/>
<text xml:space="preserve" text-anchor="middle" x="118" y="-226.75" font-family="Helvetica,sans-Serif" font-size="10.00">llvm::Pass</text>
</a>
</g>
</g>
<!-- Node4&#45;&gt;Node3 -->
<g id="edge3_Node000003_Node000004" class="edge">
<title>Node4&#45;&gt;Node3</title>
<g id="a_edge3_Node000003_Node000004"><a xlink:title=" ">
<path fill="none" stroke="#63b8ff" d="M118,-209.38C118,-201.09 118,-191.92 118,-185.36"/>
<polygon fill="#63b8ff" stroke="#63b8ff" points="114.5,-209.32 118,-219.32 121.5,-209.32 114.5,-209.32"/>
</a>
</g>
</g>
</g>
</svg>
