<?xml version="1.0" encoding="UTF-8" standalone="no"?>
<!DOCTYPE svg PUBLIC "-//W3C//DTD SVG 1.1//EN"
 "http://www.w3.org/Graphics/SVG/1.1/DTD/svg11.dtd">
<!-- Generated by graphviz version 14.1.3 (20260303.0454)
 -->
<!-- Title: llvm::DIScope Pages: 1 -->
<svg width="901pt" height="360pt"
 viewBox="0.00 0.00 901.00 360.00" xmlns="http://www.w3.org/2000/svg" xmlns:xlink="http://www.w3.org/1999/xlink">
<g id="graph0" class="graph" transform="scale(1 1) rotate(0) translate(4 356.25)">
<title>llvm::DIScope</title>
<!-- Node1 -->
<g id="Node000001" class="node">
<title>Node1</title>
<g id="a_Node000001"><a xlink:title="Base class for scope&#45;like contexts.">
<polygon fill="#999999" stroke="#666666" points="419.5,-241.25 341.25,-241.25 341.25,-222 419.5,-222 419.5,-241.25"/>
<text xml:space="preserve" text-anchor="middle" x="380.38" y="-227.75" font-family="Helvetica,sans-Serif" font-size="10.00">llvm::DIScope</text>
</a>
</g>
</g>
<!-- Node5 -->
<g id="Node000005" class="node">
<title>Node5</title>
<g id="a_Node000005"><a xlink:href="classllvm_1_1DICommonBlock.html" target="_top" xlink:title="Debug common block.">
<polygon fill="white" stroke="#666666" points="570.5,-352.25 455.5,-352.25 455.5,-333 570.5,-333 570.5,-352.25"/>
<text xml:space="preserve" text-anchor="middle" x="513" y="-338.75" font-family="Helvetica,sans-Serif" font-size="10.00">llvm::DICommonBlock</text>
</a>
</g>
</g>
<!-- Node1&#45;&gt;Node5 -->
<g id="edge4_Node000001_Node000005" class="edge">
<title>Node1&#45;&gt;Node5</title>
<g id="a_edge4_Node000001_Node000005"><a xlink:title=" ">
<path fill="none" stroke="#63b8ff" d="M392.33,-251.45C404.94,-272.51 427.55,-305.38 455.5,-324.62 460.08,-327.78 465.24,-330.4 470.53,-332.58"/>
<polygon fill="#63b8ff" stroke="#63b8ff" points="395.46,-249.87 387.43,-242.95 389.39,-253.36 395.46,-249.87"/>
</a>
</g>
</g>
<!-- Node6 -->
<g id="Node000006" class="node">
<title>Node6</title>
<g id="a_Node000006"><a xlink:href="classllvm_1_1DICompileUnit.html" target="_top" xlink:title="Compile unit.">
<polygon fill="white" stroke="#666666" points="565.25,-315.25 460.75,-315.25 460.75,-296 565.25,-296 565.25,-315.25"/>
<text xml:space="preserve" text-anchor="middle" x="513" y="-301.75" font-family="Helvetica,sans-Serif" font-size="10.00">llvm::DICompileUnit</text>
</a>
</g>
</g>
<!-- Node1&#45;&gt;Node6 -->
<g id="edge5_Node000001_Node000006" class="edge">
<title>Node1&#45;&gt;Node6</title>
<g id="a_edge5_Node000001_Node000006"><a xlink:title=" ">
<path fill="none" stroke="#63b8ff" d="M400.56,-249.02C414.84,-261.22 435.29,-277.16 455.5,-287.62 461.35,-290.65 467.81,-293.29 474.2,-295.55"/>
<polygon fill="#63b8ff" stroke="#63b8ff" points="403.09,-246.59 393.26,-242.63 398.48,-251.85 403.09,-246.59"/>
</a>
</g>
</g>
<!-- Node7 -->
<g id="Node000007" class="node">
<title>Node7</title>
<g id="a_Node000007"><a xlink:href="classllvm_1_1DIFile.html" target="_top" xlink:title="File.">
<polygon fill="white" stroke="#666666" points="546.12,-278.25 479.88,-278.25 479.88,-259 546.12,-259 546.12,-278.25"/>
<text xml:space="preserve" text-anchor="middle" x="513" y="-264.75" font-family="Helvetica,sans-Serif" font-size="10.00">llvm::DIFile</text>
</a>
</g>
</g>
<!-- Node1&#45;&gt;Node7 -->
<g id="edge6_Node000001_Node000007" class="edge">
<title>Node1&#45;&gt;Node7</title>
<g id="a_edge6_Node000001_Node000007"><a xlink:title=" ">
<path fill="none" stroke="#63b8ff" d="M427.95,-244.82C445,-249.65 463.92,-255.01 479.48,-259.41"/>
<polygon fill="#63b8ff" stroke="#63b8ff" points="429.1,-241.51 418.53,-242.15 427.19,-248.24 429.1,-241.51"/>
</a>
</g>
</g>
<!-- Node8 -->
<g id="Node000008" class="node">
<title>Node8</title>
<g id="a_Node000008"><a xlink:href="classllvm_1_1DILocalScope.html" target="_top" xlink:title="A scope for locals.">
<polygon fill="white" stroke="#666666" points="563.75,-241.25 462.25,-241.25 462.25,-222 563.75,-222 563.75,-241.25"/>
<text xml:space="preserve" text-anchor="middle" x="513" y="-227.75" font-family="Helvetica,sans-Serif" font-size="10.00">llvm::DILocalScope</text>
</a>
</g>
</g>
<!-- Node1&#45;&gt;Node8 -->
<g id="edge7_Node000001_Node000008" class="edge">
<title>Node1&#45;&gt;Node8</title>
<g id="a_edge7_Node000001_Node000008"><a xlink:title=" ">
<path fill="none" stroke="#63b8ff" d="M431.07,-231.62C441.25,-231.62 451.97,-231.62 462.15,-231.62"/>
<polygon fill="#63b8ff" stroke="#63b8ff" points="431.37,-228.13 421.37,-231.63 431.37,-235.13 431.37,-228.13"/>
</a>
</g>
</g>
<!-- Node13 -->
<g id="Node000013" class="node">
<title>Node13</title>
<g id="a_Node000013"><a xlink:href="classllvm_1_1DIModule.html" target="_top" xlink:title="Represents a module in the programming language, for example, a Clang module, or a Fortran module.">
<polygon fill="white" stroke="#666666" points="554,-204.25 472,-204.25 472,-185 554,-185 554,-204.25"/>
<text xml:space="preserve" text-anchor="middle" x="513" y="-190.75" font-family="Helvetica,sans-Serif" font-size="10.00">llvm::DIModule</text>
</a>
</g>
</g>
<!-- Node1&#45;&gt;Node13 -->
<g id="edge12_Node000001_Node000013" class="edge">
<title>Node1&#45;&gt;Node13</title>
<g id="a_edge12_Node000001_Node000013"><a xlink:title=" ">
<path fill="none" stroke="#63b8ff" d="M427.8,-218.47C443.77,-213.95 461.38,-208.96 476.35,-204.72"/>
<polygon fill="#63b8ff" stroke="#63b8ff" points="427.19,-215.01 418.53,-221.1 429.1,-221.74 427.19,-215.01"/>
</a>
</g>
</g>
<!-- Node14 -->
<g id="Node000014" class="node">
<title>Node14</title>
<g id="a_Node000014"><a xlink:href="classllvm_1_1DINamespace.html" target="_top" xlink:title="Debug lexical block.">
<polygon fill="white" stroke="#666666" points="564.5,-167.25 461.5,-167.25 461.5,-148 564.5,-148 564.5,-167.25"/>
<text xml:space="preserve" text-anchor="middle" x="513" y="-153.75" font-family="Helvetica,sans-Serif" font-size="10.00">llvm::DINamespace</text>
</a>
</g>
</g>
<!-- Node1&#45;&gt;Node14 -->
<g id="edge13_Node000001_Node000014" class="edge">
<title>Node1&#45;&gt;Node14</title>
<g id="a_edge13_Node000001_Node000014"><a xlink:title=" ">
<path fill="none" stroke="#63b8ff" d="M400.56,-214.23C414.84,-202.03 435.29,-186.09 455.5,-175.62 461.35,-172.6 467.81,-169.96 474.2,-167.7"/>
<polygon fill="#63b8ff" stroke="#63b8ff" points="398.48,-211.4 393.26,-220.62 403.09,-216.66 398.48,-211.4"/>
</a>
</g>
</g>
<!-- Node15 -->
<g id="Node000015" class="node">
<title>Node15</title>
<g id="a_Node000015"><a xlink:href="classllvm_1_1DIType.html" target="_top" xlink:title="Base class for types.">
<polygon fill="white" stroke="#666666" points="548.75,-130.25 477.25,-130.25 477.25,-111 548.75,-111 548.75,-130.25"/>
<text xml:space="preserve" text-anchor="middle" x="513" y="-116.75" font-family="Helvetica,sans-Serif" font-size="10.00">llvm::DIType</text>
</a>
</g>
</g>
<!-- Node1&#45;&gt;Node15 -->
<g id="edge14_Node000001_Node000015" class="edge">
<title>Node1&#45;&gt;Node15</title>
<g id="a_edge14_Node000001_Node000015"><a xlink:title=" ">
<path fill="none" stroke="#63b8ff" d="M392.33,-211.8C404.94,-190.74 427.55,-157.87 455.5,-138.62 461.94,-134.19 469.54,-130.8 477.04,-128.23"/>
<polygon fill="#63b8ff" stroke="#63b8ff" points="389.39,-209.89 387.43,-220.3 395.46,-213.38 389.39,-209.89"/>
</a>
</g>
</g>
<!-- Node2 -->
<g id="Node000002" class="node">
<title>Node2</title>
<g id="a_Node000002"><a xlink:href="classllvm_1_1DINode.html" target="_top" xlink:title="Tagged DWARF&#45;like metadata node.">
<polygon fill="white" stroke="#666666" points="305.25,-241.25 231.5,-241.25 231.5,-222 305.25,-222 305.25,-241.25"/>
<text xml:space="preserve" text-anchor="middle" x="268.38" y="-227.75" font-family="Helvetica,sans-Serif" font-size="10.00">llvm::DINode</text>
</a>
</g>
</g>
<!-- Node2&#45;&gt;Node1 -->
<g id="edge1_Node000001_Node000002" class="edge">
<title>Node2&#45;&gt;Node1</title>
<g id="a_edge1_Node000001_Node000002"><a xlink:title=" ">
<path fill="none" stroke="#63b8ff" d="M317.09,-231.62C325.02,-231.62 333.16,-231.62 340.82,-231.62"/>
<polygon fill="#63b8ff" stroke="#63b8ff" points="317.21,-228.13 307.21,-231.63 317.21,-235.13 317.21,-228.13"/>
</a>
</g>
</g>
<!-- Node3 -->
<g id="Node000003" class="node">
<title>Node3</title>
<g id="a_Node000003"><a xlink:href="classllvm_1_1MDNode.html" target="_top" xlink:title="Metadata node.">
<polygon fill="white" stroke="#666666" points="195.5,-241.25 116.5,-241.25 116.5,-222 195.5,-222 195.5,-241.25"/>
<text xml:space="preserve" text-anchor="middle" x="156" y="-227.75" font-family="Helvetica,sans-Serif" font-size="10.00">llvm::MDNode</text>
</a>
</g>
</g>
<!-- Node3&#45;&gt;Node2 -->
<g id="edge2_Node000002_Node000003" class="edge">
<title>Node3&#45;&gt;Node2</title>
<g id="a_edge2_Node000002_Node000003"><a xlink:title=" ">
<path fill="none" stroke="#63b8ff" d="M207.41,-231.62C215.37,-231.62 223.47,-231.62 231.03,-231.62"/>
<polygon fill="#63b8ff" stroke="#63b8ff" points="207.43,-228.13 197.43,-231.63 207.43,-235.13 207.43,-228.13"/>
</a>
</g>
</g>
<!-- Node4 -->
<g id="Node000004" class="node">
<title>Node4</title>
<g id="a_Node000004"><a xlink:href="classllvm_1_1Metadata.html" target="_top" xlink:title="Root of the metadata hierarchy.">
<polygon fill="white" stroke="#666666" points="80.5,-241.25 0,-241.25 0,-222 80.5,-222 80.5,-241.25"/>
<text xml:space="preserve" text-anchor="middle" x="40.25" y="-227.75" font-family="Helvetica,sans-Serif" font-size="10.00">llvm::Metadata</text>
</a>
</g>
</g>
<!-- Node4&#45;&gt;Node3 -->
<g id="edge3_Node000003_Node000004" class="edge">
<title>Node4&#45;&gt;Node3</title>
<g id="a_edge3_Node000003_Node000004"><a xlink:title=" ">
<path fill="none" stroke="#63b8ff" d="M92.07,-231.62C100.23,-231.62 108.56,-231.62 116.37,-231.62"/>
<polygon fill="#63b8ff" stroke="#63b8ff" points="92.23,-228.13 82.23,-231.63 92.23,-235.13 92.23,-228.13"/>
</a>
</g>
</g>
<!-- Node9 -->
<g id="Node000009" class="node">
<title>Node9</title>
<g id="a_Node000009"><a xlink:href="classllvm_1_1DILexicalBlockBase.html" target="_top" xlink:title=" ">
<polygon fill="white" stroke="#666666" points="735,-278.25 606.5,-278.25 606.5,-259 735,-259 735,-278.25"/>
<text xml:space="preserve" text-anchor="middle" x="670.75" y="-264.75" font-family="Helvetica,sans-Serif" font-size="10.00">llvm::DILexicalBlockBase</text>
</a>
</g>
</g>
<!-- Node8&#45;&gt;Node9 -->
<g id="edge8_Node000008_Node000009" class="edge">
<title>Node8&#45;&gt;Node9</title>
<g id="a_edge8_Node000008_Node000009"><a xlink:title=" ">
<path fill="none" stroke="#63b8ff" d="M567.72,-244.39C587.18,-249.01 608.88,-254.16 627.24,-258.53"/>
<polygon fill="#63b8ff" stroke="#63b8ff" points="568.57,-240.99 558.03,-242.09 566.95,-247.8 568.57,-240.99"/>
</a>
</g>
</g>
<!-- Node12 -->
<g id="Node000012" class="node">
<title>Node12</title>
<g id="a_Node000012"><a xlink:href="classllvm_1_1DISubprogram.html" target="_top" xlink:title="Subprogram description. Uses SubclassData1.">
<polygon fill="white" stroke="#666666" points="722.25,-241.25 619.25,-241.25 619.25,-222 722.25,-222 722.25,-241.25"/>
<text xml:space="preserve" text-anchor="middle" x="670.75" y="-227.75" font-family="Helvetica,sans-Serif" font-size="10.00">llvm::DISubprogram</text>
</a>
</g>
</g>
<!-- Node8&#45;&gt;Node12 -->
<g id="edge11_Node000008_Node000012" class="edge">
<title>Node8&#45;&gt;Node12</title>
<g id="a_edge11_Node000008_Node000012"><a xlink:title=" ">
<path fill="none" stroke="#63b8ff" d="M575.47,-231.62C589.86,-231.62 605.04,-231.62 618.9,-231.62"/>
<polygon fill="#63b8ff" stroke="#63b8ff" points="575.65,-228.13 565.65,-231.63 575.65,-235.13 575.65,-228.13"/>
</a>
</g>
</g>
<!-- Node10 -->
<g id="Node000010" class="node">
<title>Node10</title>
<g id="a_Node000010"><a xlink:href="classllvm_1_1DILexicalBlock.html" target="_top" xlink:title="Debug lexical block.">
<polygon fill="white" stroke="#666666" points="884.88,-296.25 778.88,-296.25 778.88,-277 884.88,-277 884.88,-296.25"/>
<text xml:space="preserve" text-anchor="middle" x="831.88" y="-282.75" font-family="Helvetica,sans-Serif" font-size="10.00">llvm::DILexicalBlock</text>
</a>
</g>
</g>
<!-- Node9&#45;&gt;Node10 -->
<g id="edge9_Node000009_Node000010" class="edge">
<title>Node9&#45;&gt;Node10</title>
<g id="a_edge9_Node000009_Node000010"><a xlink:title=" ">
<path fill="none" stroke="#63b8ff" d="M746.34,-277.06C757.2,-278.29 768.19,-279.53 778.48,-280.7"/>
<polygon fill="#63b8ff" stroke="#63b8ff" points="746.93,-273.61 736.6,-275.96 746.14,-280.56 746.93,-273.61"/>
</a>
</g>
</g>
<!-- Node11 -->
<g id="Node000011" class="node">
<title>Node11</title>
<g id="a_Node000011"><a xlink:href="classllvm_1_1DILexicalBlockFile.html" target="_top" xlink:title=" ">
<polygon fill="white" stroke="#666666" points="892.75,-259.25 771,-259.25 771,-240 892.75,-240 892.75,-259.25"/>
<text xml:space="preserve" text-anchor="middle" x="831.88" y="-245.75" font-family="Helvetica,sans-Serif" font-size="10.00">llvm::DILexicalBlockFile</text>
</a>
</g>
</g>
<!-- Node9&#45;&gt;Node11 -->
<g id="edge10_Node000009_Node000011" class="edge">
<title>Node9&#45;&gt;Node11</title>
<g id="a_edge10_Node000009_Node000011"><a xlink:title=" ">
<path fill="none" stroke="#63b8ff" d="M746.46,-259.7C754.55,-258.74 762.7,-257.76 770.59,-256.82"/>
<polygon fill="#63b8ff" stroke="#63b8ff" points="746.11,-256.22 736.6,-260.88 746.94,-263.17 746.11,-256.22"/>
</a>
</g>
</g>
<!-- Node16 -->
<g id="Node000016" class="node">
<title>Node16</title>
<g id="a_Node000016"><a xlink:href="classllvm_1_1DIBasicType.html" target="_top" xlink:title="Basic type, like &#39;int&#39; or &#39;float&#39;.">
<polygon fill="white" stroke="#666666" points="718.88,-204.25 622.62,-204.25 622.62,-185 718.88,-185 718.88,-204.25"/>
<text xml:space="preserve" text-anchor="middle" x="670.75" y="-190.75" font-family="Helvetica,sans-Serif" font-size="10.00">llvm::DIBasicType</text>
</a>
</g>
</g>
<!-- Node15&#45;&gt;Node16 -->
<g id="edge15_Node000015_Node000016" class="edge">
<title>Node15&#45;&gt;Node16</title>
<g id="a_edge15_Node000015_Node000016"><a xlink:title=" ">
<path fill="none" stroke="#63b8ff" d="M559.39,-132.79C563.26,-134.51 567.03,-136.44 570.5,-138.62 590.21,-150.99 586.6,-164.57 606.5,-176.62 611.67,-179.76 617.42,-182.37 623.27,-184.54"/>
<polygon fill="#63b8ff" stroke="#63b8ff" points="560.98,-129.65 550.4,-129.29 558.45,-136.18 560.98,-129.65"/>
</a>
</g>
</g>
<!-- Node18 -->
<g id="Node000018" class="node">
<title>Node18</title>
<g id="a_Node000018"><a xlink:href="classllvm_1_1DICompositeType.html" target="_top" xlink:title="Composite types.">
<polygon fill="white" stroke="#666666" points="730.12,-167.25 611.38,-167.25 611.38,-148 730.12,-148 730.12,-167.25"/>
<text xml:space="preserve" text-anchor="middle" x="670.75" y="-153.75" font-family="Helvetica,sans-Serif" font-size="10.00">llvm::DICompositeType</text>
</a>
</g>
</g>
<!-- Node15&#45;&gt;Node18 -->
<g id="edge17_Node000015_Node000018" class="edge">
<title>Node15&#45;&gt;Node18</title>
<g id="a_edge17_Node000015_Node000018"><a xlink:title=" ">
<path fill="none" stroke="#63b8ff" d="M559.99,-131.55C581.25,-136.6 606.33,-142.56 627.14,-147.5"/>
<polygon fill="#63b8ff" stroke="#63b8ff" points="560.96,-128.18 550.43,-129.28 559.35,-134.99 560.96,-128.18"/>
</a>
</g>
</g>
<!-- Node19 -->
<g id="Node000019" class="node">
<title>Node19</title>
<g id="a_Node000019"><a xlink:href="classllvm_1_1DIDerivedType.html" target="_top" xlink:title="Derived types.">
<polygon fill="white" stroke="#666666" points="723.38,-130.25 618.12,-130.25 618.12,-111 723.38,-111 723.38,-130.25"/>
<text xml:space="preserve" text-anchor="middle" x="670.75" y="-116.75" font-family="Helvetica,sans-Serif" font-size="10.00">llvm::DIDerivedType</text>
</a>
</g>
</g>
<!-- Node15&#45;&gt;Node19 -->
<g id="edge18_Node000015_Node000019" class="edge">
<title>Node15&#45;&gt;Node19</title>
<g id="a_edge18_Node000015_Node000019"><a xlink:title=" ">
<path fill="none" stroke="#63b8ff" d="M560.37,-120.62C578.43,-120.62 599.2,-120.62 617.76,-120.62"/>
<polygon fill="#63b8ff" stroke="#63b8ff" points="560.47,-117.13 550.47,-120.63 560.47,-124.13 560.47,-117.13"/>
</a>
</g>
</g>
<!-- Node20 -->
<g id="Node000020" class="node">
<title>Node20</title>
<g id="a_Node000020"><a xlink:href="classllvm_1_1DIStringType.html" target="_top" xlink:title="String type, Fortran CHARACTER(n).">
<polygon fill="white" stroke="#666666" points="719.25,-93.25 622.25,-93.25 622.25,-74 719.25,-74 719.25,-93.25"/>
<text xml:space="preserve" text-anchor="middle" x="670.75" y="-79.75" font-family="Helvetica,sans-Serif" font-size="10.00">llvm::DIStringType</text>
</a>
</g>
</g>
<!-- Node15&#45;&gt;Node20 -->
<g id="edge19_Node000015_Node000020" class="edge">
<title>Node15&#45;&gt;Node20</title>
<g id="a_edge19_Node000015_Node000020"><a xlink:title=" ">
<path fill="none" stroke="#63b8ff" d="M559.99,-109.7C581.25,-104.65 606.33,-98.69 627.14,-93.75"/>
<polygon fill="#63b8ff" stroke="#63b8ff" points="559.35,-106.26 550.43,-111.97 560.96,-113.07 559.35,-106.26"/>
</a>
</g>
</g>
<!-- Node21 -->
<g id="Node000021" class="node">
<title>Node21</title>
<g id="a_Node000021"><a xlink:href="classllvm_1_1DISubrangeType.html" target="_top" xlink:title="Subrange type.">
<polygon fill="white" stroke="#666666" points="727.12,-56.25 614.38,-56.25 614.38,-37 727.12,-37 727.12,-56.25"/>
<text xml:space="preserve" text-anchor="middle" x="670.75" y="-42.75" font-family="Helvetica,sans-Serif" font-size="10.00">llvm::DISubrangeType</text>
</a>
</g>
</g>
<!-- Node15&#45;&gt;Node21 -->
<g id="edge20_Node000015_Node000021" class="edge">
<title>Node15&#45;&gt;Node21</title>
<g id="a_edge20_Node000015_Node000021"><a xlink:title=" ">
<path fill="none" stroke="#63b8ff" d="M537.22,-104.16C555.38,-91.89 581.64,-75.45 606.5,-64.62 613.41,-61.62 620.96,-58.96 628.36,-56.68"/>
<polygon fill="#63b8ff" stroke="#63b8ff" points="535.28,-101.25 529.03,-109.8 539.25,-107.02 535.28,-101.25"/>
</a>
</g>
</g>
<!-- Node22 -->
<g id="Node000022" class="node">
<title>Node22</title>
<g id="a_Node000022"><a xlink:href="classllvm_1_1DISubroutineType.html" target="_top" xlink:title="Type array for a subprogram.">
<polygon fill="white" stroke="#666666" points="729.75,-19.25 611.75,-19.25 611.75,0 729.75,0 729.75,-19.25"/>
<text xml:space="preserve" text-anchor="middle" x="670.75" y="-5.75" font-family="Helvetica,sans-Serif" font-size="10.00">llvm::DISubroutineType</text>
</a>
</g>
</g>
<!-- Node15&#45;&gt;Node22 -->
<g id="edge21_Node000015_Node000022" class="edge">
<title>Node15&#45;&gt;Node22</title>
<g id="a_edge21_Node000015_Node000022"><a xlink:title=" ">
<path fill="none" stroke="#63b8ff" d="M528,-101.58C544.49,-80.47 573.81,-46.89 606.5,-27.62 611.81,-24.49 617.7,-21.88 623.68,-19.71"/>
<polygon fill="#63b8ff" stroke="#63b8ff" points="525.36,-99.27 522.09,-109.35 530.93,-103.51 525.36,-99.27"/>
</a>
</g>
</g>
<!-- Node17 -->
<g id="Node000017" class="node">
<title>Node17</title>
<g id="a_Node000017"><a xlink:href="classllvm_1_1DIFixedPointType.html" target="_top" xlink:title="Fixed&#45;point type.">
<polygon fill="white" stroke="#666666" points="890.88,-204.25 772.88,-204.25 772.88,-185 890.88,-185 890.88,-204.25"/>
<text xml:space="preserve" text-anchor="middle" x="831.88" y="-190.75" font-family="Helvetica,sans-Serif" font-size="10.00">llvm::DIFixedPointType</text>
</a>
</g>
</g>
<!-- Node16&#45;&gt;Node17 -->
<g id="edge16_Node000016_Node000017" class="edge">
<title>Node16&#45;&gt;Node17</title>
<g id="a_edge16_Node000016_Node000017"><a xlink:title=" ">
<path fill="none" stroke="#63b8ff" d="M730.35,-194.62C744.1,-194.62 758.74,-194.62 772.47,-194.62"/>
<polygon fill="#63b8ff" stroke="#63b8ff" points="730.58,-191.13 720.58,-194.63 730.58,-198.13 730.58,-191.13"/>
</a>
</g>
</g>
</g>
</svg>
