<?xml version="1.0" encoding="UTF-8" standalone="no"?>
<!DOCTYPE svg PUBLIC "-//W3C//DTD SVG 1.1//EN"
 "http://www.w3.org/Graphics/SVG/1.1/DTD/svg11.dtd">
<!-- Generated by graphviz version 14.1.3 (20260303.0454)
 -->
<!-- Title: AllocaSlices::SliceBuilder Pages: 1 -->
<svg width="876pt" height="132pt"
 viewBox="0.00 0.00 876.00 132.00" xmlns="http://www.w3.org/2000/svg" xmlns:xlink="http://www.w3.org/1999/xlink">
<g id="graph0" class="graph" transform="scale(1 1) rotate(0) translate(4 127.5)">
<title>AllocaSlices::SliceBuilder</title>
<!-- Node1 -->
<g id="Node000001" class="node">
<title>Node1</title>
<g id="a_Node000001"><a xlink:title="Builder for the alloca slices.">
<polygon fill="#999999" stroke="#666666" points="868,-74.88 740.25,-74.88 740.25,-55.62 868,-55.62 868,-74.88"/>
<text xml:space="preserve" text-anchor="middle" x="804.12" y="-61.38" font-family="Helvetica,sans-Serif" font-size="10.00">AllocaSlices::SliceBuilder</text>
</a>
</g>
</g>
<!-- Node2 -->
<g id="Node000002" class="node">
<title>Node2</title>
<g id="a_Node000002"><a xlink:href="classllvm_1_1PtrUseVisitor.html" target="_top" xlink:title=" ">
<polygon fill="white" stroke="#666666" points="703.25,-80.5 604.75,-80.5 604.75,-50 703.25,-50 703.25,-80.5"/>
<text xml:space="preserve" text-anchor="start" x="612.75" y="-67" font-family="Helvetica,sans-Serif" font-size="10.00">llvm::PtrUseVisitor</text>
<text xml:space="preserve" text-anchor="middle" x="654" y="-55.75" font-family="Helvetica,sans-Serif" font-size="10.00">&lt; SliceBuilder &gt;</text>
</a>
</g>
</g>
<!-- Node2&#45;&gt;Node1 -->
<g id="edge1_Node000001_Node000002" class="edge">
<title>Node2&#45;&gt;Node1</title>
<g id="a_edge1_Node000001_Node000002"><a xlink:title=" ">
<path fill="none" stroke="#63b8ff" d="M714.94,-65.25C723.18,-65.25 731.66,-65.25 739.95,-65.25"/>
<polygon fill="#63b8ff" stroke="#63b8ff" points="715.02,-61.75 705.02,-65.25 715.02,-68.75 715.02,-61.75"/>
</a>
</g>
</g>
<!-- Node3 -->
<g id="Node000003" class="node">
<title>Node3</title>
<g id="a_Node000003"><a xlink:href="classllvm_1_1InstVisitor.html" target="_top" xlink:title="Base class for instruction visitors.">
<polygon fill="white" stroke="#666666" points="493,-123.5 390,-123.5 390,-93 493,-93 493,-123.5"/>
<text xml:space="preserve" text-anchor="start" x="398" y="-110" font-family="Helvetica,sans-Serif" font-size="10.00">llvm::InstVisitor&lt;</text>
<text xml:space="preserve" text-anchor="middle" x="441.5" y="-98.75" font-family="Helvetica,sans-Serif" font-size="10.00"> SubClass, RetTy &gt;</text>
</a>
</g>
</g>
<!-- Node3&#45;&gt;Node2 -->
<g id="edge2_Node000002_Node000003" class="edge">
<title>Node3&#45;&gt;Node2</title>
<g id="a_edge2_Node000002_Node000003"><a xlink:title=" ">
<path fill="none" stroke="darkgreen" d="M504.29,-95.97C529.83,-90.85 559.73,-84.82 586.75,-79.25 592.51,-78.06 598.54,-76.81 604.53,-75.55"/>
<polygon fill="darkgreen" stroke="darkgreen" points="503.86,-92.48 494.75,-97.88 505.24,-99.35 503.86,-92.48"/>
</a>
</g>
</g>
<!-- Node4 -->
<g id="Node000004" class="node">
<title>Node4</title>
<g id="a_Node000004"><a xlink:href="classllvm_1_1detail_1_1PtrUseVisitorBase.html" target="_top" xlink:title="Implementation of non&#45;dependent functionality for PtrUseVisitor.">
<polygon fill="white" stroke="#666666" points="353,-70.88 202.75,-70.88 202.75,-51.62 353,-51.62 353,-70.88"/>
<text xml:space="preserve" text-anchor="middle" x="277.88" y="-57.38" font-family="Helvetica,sans-Serif" font-size="10.00">llvm::detail::PtrUseVisitorBase</text>
</a>
</g>
</g>
<!-- Node4&#45;&gt;Node2 -->
<g id="edge3_Node000002_Node000004" class="edge">
<title>Node4&#45;&gt;Node2</title>
<g id="a_edge3_Node000002_Node000004"><a xlink:title=" ">
<path fill="none" stroke="#63b8ff" d="M364.43,-62.16C438.71,-62.96 543.63,-64.08 604.36,-64.73"/>
<polygon fill="#63b8ff" stroke="#63b8ff" points="364.79,-58.67 354.75,-62.06 364.71,-65.67 364.79,-58.67"/>
</a>
</g>
</g>
<!-- Node5 -->
<g id="Node000005" class="node">
<title>Node5</title>
<g id="a_Node000005"><a xlink:href="classllvm_1_1PtrUseVisitor.html" target="_top" xlink:title="A base class for visitors over the uses of a pointer value.">
<polygon fill="white" stroke="#666666" points="490.75,-37.5 392.25,-37.5 392.25,-7 490.75,-7 490.75,-37.5"/>
<text xml:space="preserve" text-anchor="start" x="400.25" y="-24" font-family="Helvetica,sans-Serif" font-size="10.00">llvm::PtrUseVisitor</text>
<text xml:space="preserve" text-anchor="middle" x="441.5" y="-12.75" font-family="Helvetica,sans-Serif" font-size="10.00">&lt; DerivedT &gt;</text>
</a>
</g>
</g>
<!-- Node4&#45;&gt;Node5 -->
<g id="edge7_Node000005_Node000004" class="edge">
<title>Node4&#45;&gt;Node5</title>
<g id="a_edge7_Node000005_Node000004"><a xlink:title=" ">
<path fill="none" stroke="#63b8ff" d="M331.59,-48.53C350.98,-43.85 372.83,-38.58 391.85,-33.99"/>
<polygon fill="#63b8ff" stroke="#63b8ff" points="330.87,-45.1 321.97,-50.85 332.51,-51.91 330.87,-45.1"/>
</a>
</g>
</g>
<!-- Node5&#45;&gt;Node2 -->
<g id="edge4_Node000002_Node000005" class="edge">
<title>Node5&#45;&gt;Node2</title>
<g id="a_edge4_Node000002_Node000005"><a xlink:title=" ">
<path fill="none" stroke="orange" stroke-dasharray="5,2" d="M502.32,-22.33C528.59,-23.58 559.58,-26.74 586.75,-34 600.02,-37.54 613.88,-43.66 625.48,-49.55"/>
<polygon fill="orange" stroke="orange" points="502.63,-18.84 492.5,-21.95 502.36,-25.83 502.63,-18.84"/>
</a>
</g>
<text xml:space="preserve" text-anchor="start" x="514" y="-40" font-family="Helvetica,sans-Serif" font-size="10.00" fill="grey">&lt; SliceBuilder &gt;</text>
</g>
<!-- Node6 -->
<g id="Node000006" class="node">
<title>Node6</title>
<g id="a_Node000006"><a xlink:href="classllvm_1_1InstVisitor.html" target="_top" xlink:title=" ">
<polygon fill="white" stroke="#666666" points="323,-30.5 232.75,-30.5 232.75,0 323,0 323,-30.5"/>
<text xml:space="preserve" text-anchor="start" x="240.75" y="-17" font-family="Helvetica,sans-Serif" font-size="10.00">llvm::InstVisitor&lt;</text>
<text xml:space="preserve" text-anchor="middle" x="277.88" y="-5.75" font-family="Helvetica,sans-Serif" font-size="10.00"> DerivedT &gt;</text>
</a>
</g>
</g>
<!-- Node6&#45;&gt;Node5 -->
<g id="edge5_Node000005_Node000006" class="edge">
<title>Node6&#45;&gt;Node5</title>
<g id="a_edge5_Node000005_Node000006"><a xlink:title=" ">
<path fill="none" stroke="darkgreen" d="M334.74,-17.67C353.3,-18.47 373.82,-19.36 391.8,-20.14"/>
<polygon fill="darkgreen" stroke="darkgreen" points="335.12,-14.18 324.98,-17.25 334.82,-21.18 335.12,-14.18"/>
</a>
</g>
</g>
<!-- Node7 -->
<g id="Node000007" class="node">
<title>Node7</title>
<g id="a_Node000007"><a xlink:href="classllvm_1_1InstVisitor.html" target="_top" xlink:title="Base class for instruction visitors.">
<polygon fill="white" stroke="#666666" points="103,-30.5 0,-30.5 0,0 103,0 103,-30.5"/>
<text xml:space="preserve" text-anchor="start" x="8" y="-17" font-family="Helvetica,sans-Serif" font-size="10.00">llvm::InstVisitor&lt;</text>
<text xml:space="preserve" text-anchor="middle" x="51.5" y="-5.75" font-family="Helvetica,sans-Serif" font-size="10.00"> SubClass, RetTy &gt;</text>
</a>
</g>
</g>
<!-- Node7&#45;&gt;Node6 -->
<g id="edge6_Node000006_Node000007" class="edge">
<title>Node7&#45;&gt;Node6</title>
<g id="a_edge6_Node000006_Node000007"><a xlink:title=" ">
<path fill="none" stroke="orange" stroke-dasharray="5,2" d="M114.71,-15.25C152.15,-15.25 198.93,-15.25 232.61,-15.25"/>
<polygon fill="orange" stroke="orange" points="114.93,-11.75 104.93,-15.25 114.93,-18.75 114.93,-11.75"/>
</a>
</g>
<text xml:space="preserve" text-anchor="start" x="124" y="-21.25" font-family="Helvetica,sans-Serif" font-size="10.00" fill="grey">&lt; DerivedT &gt;</text>
</g>
</g>
</svg>
