<?xml version="1.0" encoding="UTF-8" standalone="no"?>
<!DOCTYPE svg PUBLIC "-//W3C//DTD SVG 1.1//EN"
 "http://www.w3.org/Graphics/SVG/1.1/DTD/svg11.dtd">
<!-- Generated by graphviz version 14.1.3 (20260303.0454)
 -->
<!-- Title: llvm::RegUsageInfoCollectorPass Pages: 1 -->
<svg width="998pt" height="90pt"
 viewBox="0.00 0.00 998.00 90.00" xmlns="http://www.w3.org/2000/svg" xmlns:xlink="http://www.w3.org/1999/xlink">
<g id="graph0" class="graph" transform="scale(1 1) rotate(0) translate(4 85.5)">
<title>llvm::RegUsageInfoCollectorPass</title>
<!-- Node1 -->
<g id="Node000001" class="node">
<title>Node1</title>
<g id="a_Node000001"><a xlink:title=" ">
<polygon fill="#999999" stroke="#666666" points="989.75,-48.88 825.25,-48.88 825.25,-29.62 989.75,-29.62 989.75,-48.88"/>
<text xml:space="preserve" text-anchor="middle" x="907.5" y="-35.38" font-family="Helvetica,sans-Serif" font-size="10.00">llvm::RegUsageInfoCollectorPass</text>
</a>
</g>
</g>
<!-- Node2 -->
<g id="Node000002" class="node">
<title>Node2</title>
<g id="a_Node000002"><a xlink:href="structllvm_1_1AnalysisInfoMixin.html" target="_top" xlink:title=" ">
<polygon fill="white" stroke="#666666" points="788.25,-54.5 629.75,-54.5 629.75,-24 788.25,-24 788.25,-54.5"/>
<text xml:space="preserve" text-anchor="start" x="637.75" y="-41" font-family="Helvetica,sans-Serif" font-size="10.00">llvm::AnalysisInfoMixin</text>
<text xml:space="preserve" text-anchor="middle" x="709" y="-29.75" font-family="Helvetica,sans-Serif" font-size="10.00">&lt; RegUsageInfoCollectorPass &gt;</text>
</a>
</g>
</g>
<!-- Node2&#45;&gt;Node1 -->
<g id="edge1_Node000001_Node000002" class="edge">
<title>Node2&#45;&gt;Node1</title>
<g id="a_edge1_Node000001_Node000002"><a xlink:title=" ">
<path fill="none" stroke="#63b8ff" d="M799.83,-39.25C808.19,-39.25 816.62,-39.25 824.9,-39.25"/>
<polygon fill="#63b8ff" stroke="#63b8ff" points="800.02,-35.75 790.02,-39.25 800.02,-42.75 800.02,-35.75"/>
</a>
</g>
</g>
<!-- Node3 -->
<g id="Node000003" class="node">
<title>Node3</title>
<g id="a_Node000003"><a xlink:href="structllvm_1_1PassInfoMixin.html" target="_top" xlink:title=" ">
<polygon fill="white" stroke="#666666" points="445.25,-79.5 286.75,-79.5 286.75,-49 445.25,-49 445.25,-79.5"/>
<text xml:space="preserve" text-anchor="start" x="294.75" y="-66" font-family="Helvetica,sans-Serif" font-size="10.00">llvm::PassInfoMixin</text>
<text xml:space="preserve" text-anchor="middle" x="366" y="-54.75" font-family="Helvetica,sans-Serif" font-size="10.00">&lt; RegUsageInfoCollectorPass &gt;</text>
</a>
</g>
</g>
<!-- Node3&#45;&gt;Node2 -->
<g id="edge2_Node000002_Node000003" class="edge">
<title>Node3&#45;&gt;Node2</title>
<g id="a_edge2_Node000002_Node000003"><a xlink:title=" ">
<path fill="none" stroke="#63b8ff" d="M456.88,-57.66C510.51,-53.73 577.95,-48.78 629.44,-45.01"/>
<polygon fill="#63b8ff" stroke="#63b8ff" points="456.89,-54.15 447.17,-58.37 457.4,-61.13 456.89,-54.15"/>
</a>
</g>
</g>
<!-- Node4 -->
<g id="Node000004" class="node">
<title>Node4</title>
<g id="a_Node000004"><a xlink:href="structllvm_1_1PassInfoMixin.html" target="_top" xlink:title="A CRTP mix&#45;in to automatically provide informational APIs needed for passes.">
<polygon fill="white" stroke="#666666" points="102.25,-79.5 0,-79.5 0,-49 102.25,-49 102.25,-79.5"/>
<text xml:space="preserve" text-anchor="start" x="8" y="-66" font-family="Helvetica,sans-Serif" font-size="10.00">llvm::PassInfoMixin</text>
<text xml:space="preserve" text-anchor="middle" x="51.12" y="-54.75" font-family="Helvetica,sans-Serif" font-size="10.00">&lt; DerivedT &gt;</text>
</a>
</g>
</g>
<!-- Node4&#45;&gt;Node3 -->
<g id="edge3_Node000003_Node000004" class="edge">
<title>Node4&#45;&gt;Node3</title>
<g id="a_edge3_Node000003_Node000004"><a xlink:title=" ">
<path fill="none" stroke="orange" stroke-dasharray="5,2" d="M114.22,-64.25C163.61,-64.25 233.04,-64.25 286.33,-64.25"/>
<polygon fill="orange" stroke="orange" points="114.26,-60.75 104.26,-64.25 114.26,-67.75 114.26,-60.75"/>
</a>
</g>
<text xml:space="preserve" text-anchor="start" x="123.25" y="-70.25" font-family="Helvetica,sans-Serif" font-size="10.00" fill="grey">&lt; RegUsageInfoCollectorPass &gt;</text>
</g>
<!-- Node5 -->
<g id="Node000005" class="node">
<title>Node5</title>
<g id="a_Node000005"><a xlink:href="structllvm_1_1AnalysisInfoMixin.html" target="_top" xlink:title="A CRTP mix&#45;in that provides informational APIs needed for analysis passes.">
<polygon fill="white" stroke="#666666" points="424.62,-30.5 307.38,-30.5 307.38,0 424.62,0 424.62,-30.5"/>
<text xml:space="preserve" text-anchor="start" x="315.38" y="-17" font-family="Helvetica,sans-Serif" font-size="10.00">llvm::AnalysisInfoMixin</text>
<text xml:space="preserve" text-anchor="middle" x="366" y="-5.75" font-family="Helvetica,sans-Serif" font-size="10.00">&lt; DerivedT &gt;</text>
</a>
</g>
</g>
<!-- Node5&#45;&gt;Node2 -->
<g id="edge4_Node000002_Node000005" class="edge">
<title>Node5&#45;&gt;Node2</title>
<g id="a_edge4_Node000002_Node000005"><a xlink:title=" ">
<path fill="none" stroke="orange" stroke-dasharray="5,2" d="M436.36,-17.67C485.41,-19.68 552.68,-23.01 611.75,-28 617.45,-28.48 623.33,-29.03 629.25,-29.63"/>
<polygon fill="orange" stroke="orange" points="436.57,-14.18 426.44,-17.28 436.29,-21.17 436.57,-14.18"/>
</a>
</g>
<text xml:space="preserve" text-anchor="start" x="466.25" y="-34" font-family="Helvetica,sans-Serif" font-size="10.00" fill="grey">&lt; RegUsageInfoCollectorPass &gt;</text>
</g>
<!-- Node6 -->
<g id="Node000006" class="node">
<title>Node6</title>
<g id="a_Node000006"><a xlink:href="structllvm_1_1PassInfoMixin.html" target="_top" xlink:title="A CRTP mix&#45;in to automatically provide informational APIs needed for passes.">
<polygon fill="white" stroke="#666666" points="102.25,-30.5 0,-30.5 0,0 102.25,0 102.25,-30.5"/>
<text xml:space="preserve" text-anchor="start" x="8" y="-17" font-family="Helvetica,sans-Serif" font-size="10.00">llvm::PassInfoMixin</text>
<text xml:space="preserve" text-anchor="middle" x="51.12" y="-5.75" font-family="Helvetica,sans-Serif" font-size="10.00">&lt; DerivedT &gt;</text>
</a>
</g>
</g>
<!-- Node6&#45;&gt;Node5 -->
<g id="edge5_Node000005_Node000006" class="edge">
<title>Node6&#45;&gt;Node5</title>
<g id="a_edge5_Node000005_Node000006"><a xlink:title=" ">
<path fill="none" stroke="#63b8ff" d="M113.95,-15.25C170.05,-15.25 252.14,-15.25 307.01,-15.25"/>
<polygon fill="#63b8ff" stroke="#63b8ff" points="114.26,-11.75 104.26,-15.25 114.26,-18.75 114.26,-11.75"/>
</a>
</g>
</g>
</g>
</svg>
