<?xml version="1.0" encoding="UTF-8" standalone="no"?>
<!DOCTYPE svg PUBLIC "-//W3C//DTD SVG 1.1//EN"
 "http://www.w3.org/Graphics/SVG/1.1/DTD/svg11.dtd">
<!-- Generated by graphviz version 14.1.3 (20260303.0454)
 -->
<!-- Title: llvm::SmallPtrSetIterator&lt; PtrTy &gt; Pages: 1 -->
<svg width="274pt" height="246pt"
 viewBox="0.00 0.00 274.00 246.00" xmlns="http://www.w3.org/2000/svg" xmlns:xlink="http://www.w3.org/1999/xlink">
<g id="graph0" class="graph" transform="scale(1 1) rotate(0) translate(4 242)">
<title>llvm::SmallPtrSetIterator&lt; PtrTy &gt;</title>
<!-- Node1 -->
<g id="Node000001" class="node">
<title>Node1</title>
<g id="a_Node000001"><a xlink:title="SmallPtrSetIterator &#45; This implements a const_iterator for SmallPtrSet.">
<polygon fill="#999999" stroke="#666666" points="193.25,-114.25 70,-114.25 70,-83.75 193.25,-83.75 193.25,-114.25"/>
<text xml:space="preserve" text-anchor="start" x="78" y="-100.75" font-family="Helvetica,sans-Serif" font-size="10.00">llvm::SmallPtrSetIterator</text>
<text xml:space="preserve" text-anchor="middle" x="131.62" y="-89.5" font-family="Helvetica,sans-Serif" font-size="10.00">&lt; PtrTy &gt;</text>
</a>
</g>
</g>
<!-- Node4 -->
<g id="Node000004" class="node">
<title>Node4</title>
<g id="a_Node000004"><a xlink:href="classllvm_1_1SmallPtrSetIterator.html" target="_top" xlink:title=" ">
<polygon fill="white" stroke="#666666" points="123.25,-30.5 0,-30.5 0,0 123.25,0 123.25,-30.5"/>
<text xml:space="preserve" text-anchor="start" x="8" y="-17" font-family="Helvetica,sans-Serif" font-size="10.00">llvm::SmallPtrSetIterator</text>
<text xml:space="preserve" text-anchor="middle" x="61.62" y="-5.75" font-family="Helvetica,sans-Serif" font-size="10.00">&lt; PtrType &gt;</text>
</a>
</g>
</g>
<!-- Node1&#45;&gt;Node4 -->
<g id="edge3_Node000001_Node000004" class="edge">
<title>Node1&#45;&gt;Node4</title>
<g id="a_edge3_Node000001_Node000004"><a xlink:title=" ">
<path fill="none" stroke="orange" stroke-dasharray="5,2" d="M111.65,-74.68C99.54,-60.53 84.45,-42.91 74.03,-30.74"/>
<polygon fill="orange" stroke="orange" points="108.96,-76.92 118.13,-82.24 114.28,-72.36 108.96,-76.92"/>
</a>
</g>
<text xml:space="preserve" text-anchor="start" x="105.89" y="-54.5" font-family="Helvetica,sans-Serif" font-size="10.00" fill="grey">&lt; PtrType &gt;</text>
</g>
<!-- Node5 -->
<g id="Node000005" class="node">
<title>Node5</title>
<g id="a_Node000005"><a xlink:href="classllvm_1_1SmallPtrSetIterator.html" target="_top" xlink:title=" ">
<polygon fill="white" stroke="#666666" points="264.25,-30.5 141,-30.5 141,0 264.25,0 264.25,-30.5"/>
<text xml:space="preserve" text-anchor="start" x="149" y="-17" font-family="Helvetica,sans-Serif" font-size="10.00">llvm::SmallPtrSetIterator</text>
<text xml:space="preserve" text-anchor="middle" x="202.62" y="-5.75" font-family="Helvetica,sans-Serif" font-size="10.00">&lt; MachineInstr * &gt;</text>
</a>
</g>
</g>
<!-- Node1&#45;&gt;Node5 -->
<g id="edge4_Node000001_Node000005" class="edge">
<title>Node1&#45;&gt;Node5</title>
<g id="a_edge4_Node000001_Node000005"><a xlink:title=" ">
<path fill="none" stroke="orange" stroke-dasharray="5,2" d="M155.63,-75.34C158.73,-72.18 161.8,-68.93 164.62,-65.75 174.55,-54.57 184.82,-41.06 192.17,-30.98"/>
<polygon fill="orange" stroke="orange" points="153.26,-72.76 148.61,-82.28 158.18,-77.74 153.26,-72.76"/>
</a>
</g>
<text xml:space="preserve" text-anchor="start" x="181.86" y="-54.5" font-family="Helvetica,sans-Serif" font-size="10.00" fill="grey">&lt; MachineInstr * &gt;</text>
</g>
<!-- Node2 -->
<g id="Node000002" class="node">
<title>Node2</title>
<g id="a_Node000002"><a xlink:href="classllvm_1_1SmallPtrSetIteratorImpl.html" target="_top" xlink:title="SmallPtrSetIteratorImpl &#45; This is the common base class shared between all instances of SmallPtrSetIt...">
<polygon fill="white" stroke="#666666" points="202.62,-170.5 60.62,-170.5 60.62,-151.25 202.62,-151.25 202.62,-170.5"/>
<text xml:space="preserve" text-anchor="middle" x="131.62" y="-157" font-family="Helvetica,sans-Serif" font-size="10.00">llvm::SmallPtrSetIteratorImpl</text>
</a>
</g>
</g>
<!-- Node2&#45;&gt;Node1 -->
<g id="edge1_Node000001_Node000002" class="edge">
<title>Node2&#45;&gt;Node1</title>
<g id="a_edge1_Node000001_Node000002"><a xlink:title=" ">
<path fill="none" stroke="#63b8ff" d="M131.62,-139.44C131.62,-131.18 131.62,-121.84 131.62,-114.32"/>
<polygon fill="#63b8ff" stroke="#63b8ff" points="128.13,-139.27 131.63,-149.27 135.13,-139.27 128.13,-139.27"/>
</a>
</g>
</g>
<!-- Node3 -->
<g id="Node000003" class="node">
<title>Node3</title>
<g id="a_Node000003"><a xlink:href="classllvm_1_1DebugEpochBase_1_1HandleBase.html" target="_top" xlink:title=" ">
<polygon fill="white" stroke="#666666" points="191,-238 72.25,-238 72.25,-207.5 191,-207.5 191,-238"/>
<text xml:space="preserve" text-anchor="start" x="80.25" y="-224.5" font-family="Helvetica,sans-Serif" font-size="10.00">llvm::DebugEpochBase</text>
<text xml:space="preserve" text-anchor="middle" x="131.62" y="-213.25" font-family="Helvetica,sans-Serif" font-size="10.00">::HandleBase</text>
</a>
</g>
</g>
<!-- Node3&#45;&gt;Node2 -->
<g id="edge2_Node000002_Node000003" class="edge">
<title>Node3&#45;&gt;Node2</title>
<g id="a_edge2_Node000002_Node000003"><a xlink:title=" ">
<path fill="none" stroke="#63b8ff" d="M131.62,-196.02C131.62,-187.04 131.62,-177.54 131.62,-170.85"/>
<polygon fill="#63b8ff" stroke="#63b8ff" points="128.13,-195.74 131.63,-205.74 135.13,-195.74 128.13,-195.74"/>
</a>
</g>
</g>
</g>
</svg>
