<?xml version="1.0" encoding="UTF-8" standalone="no"?>
<!DOCTYPE svg PUBLIC "-//W3C//DTD SVG 1.1//EN"
 "http://www.w3.org/Graphics/SVG/1.1/DTD/svg11.dtd">
<!-- Generated by graphviz version 14.1.3 (20260303.0454)
 -->
<!-- Title: llvm::AMDGPUTargetLowering Pages: 1 -->
<svg width="272pt" height="193pt"
 viewBox="0.00 0.00 272.00 193.00" xmlns="http://www.w3.org/2000/svg" xmlns:xlink="http://www.w3.org/1999/xlink">
<g id="graph0" class="graph" transform="scale(1 1) rotate(0) translate(4 189)">
<title>llvm::AMDGPUTargetLowering</title>
<!-- Node1 -->
<g id="Node000001" class="node">
<title>Node1</title>
<g id="a_Node000001"><a xlink:title=" ">
<polygon fill="#999999" stroke="#666666" points="209.75,-74.5 59.5,-74.5 59.5,-55.25 209.75,-55.25 209.75,-74.5"/>
<text xml:space="preserve" text-anchor="middle" x="134.62" y="-61" font-family="Helvetica,sans-Serif" font-size="10.00">llvm::AMDGPUTargetLowering</text>
</a>
</g>
</g>
<!-- Node4 -->
<g id="Node000004" class="node">
<title>Node4</title>
<g id="a_Node000004"><a xlink:href="classllvm_1_1R600TargetLowering.html" target="_top" xlink:title=" ">
<polygon fill="white" stroke="#666666" points="129.25,-19.25 0,-19.25 0,0 129.25,0 129.25,-19.25"/>
<text xml:space="preserve" text-anchor="middle" x="64.62" y="-5.75" font-family="Helvetica,sans-Serif" font-size="10.00">llvm::R600TargetLowering</text>
</a>
</g>
</g>
<!-- Node1&#45;&gt;Node4 -->
<g id="edge3_Node000001_Node000004" class="edge">
<title>Node1&#45;&gt;Node4</title>
<g id="a_edge3_Node000001_Node000004"><a xlink:title=" ">
<path fill="none" stroke="#63b8ff" d="M113.68,-47.94C101.45,-38.64 86.49,-27.26 76.32,-19.52"/>
<polygon fill="#63b8ff" stroke="#63b8ff" points="111.47,-50.66 121.55,-53.93 115.71,-45.09 111.47,-50.66"/>
</a>
</g>
</g>
<!-- Node5 -->
<g id="Node000005" class="node">
<title>Node5</title>
<g id="a_Node000005"><a xlink:href="classllvm_1_1SITargetLowering.html" target="_top" xlink:title=" ">
<polygon fill="white" stroke="#666666" points="263.5,-19.25 147.75,-19.25 147.75,0 263.5,0 263.5,-19.25"/>
<text xml:space="preserve" text-anchor="middle" x="205.62" y="-5.75" font-family="Helvetica,sans-Serif" font-size="10.00">llvm::SITargetLowering</text>
</a>
</g>
</g>
<!-- Node1&#45;&gt;Node5 -->
<g id="edge4_Node000001_Node000005" class="edge">
<title>Node1&#45;&gt;Node5</title>
<g id="a_edge4_Node000001_Node000005"><a xlink:title=" ">
<path fill="none" stroke="#63b8ff" d="M155.87,-47.94C168.27,-38.64 183.45,-27.26 193.76,-19.52"/>
<polygon fill="#63b8ff" stroke="#63b8ff" points="153.78,-45.13 147.88,-53.93 157.98,-50.73 153.78,-45.13"/>
</a>
</g>
</g>
<!-- Node2 -->
<g id="Node000002" class="node">
<title>Node2</title>
<g id="a_Node000002"><a xlink:href="classllvm_1_1TargetLowering.html" target="_top" xlink:title="This class defines information used to lower LLVM code to legal SelectionDAG operators that the targe...">
<polygon fill="white" stroke="#666666" points="187.62,-129.75 81.62,-129.75 81.62,-110.5 187.62,-110.5 187.62,-129.75"/>
<text xml:space="preserve" text-anchor="middle" x="134.62" y="-116.25" font-family="Helvetica,sans-Serif" font-size="10.00">llvm::TargetLowering</text>
</a>
</g>
</g>
<!-- Node2&#45;&gt;Node1 -->
<g id="edge1_Node000001_Node000002" class="edge">
<title>Node2&#45;&gt;Node1</title>
<g id="a_edge1_Node000001_Node000002"><a xlink:title=" ">
<path fill="none" stroke="#63b8ff" d="M134.62,-98.88C134.62,-90.59 134.62,-81.42 134.62,-74.86"/>
<polygon fill="#63b8ff" stroke="#63b8ff" points="131.13,-98.82 134.63,-108.82 138.13,-98.82 131.13,-98.82"/>
</a>
</g>
</g>
<!-- Node3 -->
<g id="Node000003" class="node">
<title>Node3</title>
<g id="a_Node000003"><a xlink:href="classllvm_1_1TargetLoweringBase.html" target="_top" xlink:title="This base class for TargetLowering contains the SelectionDAG&#45;independent parts that can be used from ...">
<polygon fill="white" stroke="#666666" points="198.88,-185 70.38,-185 70.38,-165.75 198.88,-165.75 198.88,-185"/>
<text xml:space="preserve" text-anchor="middle" x="134.62" y="-171.5" font-family="Helvetica,sans-Serif" font-size="10.00">llvm::TargetLoweringBase</text>
</a>
</g>
</g>
<!-- Node3&#45;&gt;Node2 -->
<g id="edge2_Node000002_Node000003" class="edge">
<title>Node3&#45;&gt;Node2</title>
<g id="a_edge2_Node000002_Node000003"><a xlink:title=" ">
<path fill="none" stroke="#63b8ff" d="M134.62,-154.13C134.62,-145.84 134.62,-136.67 134.62,-130.11"/>
<polygon fill="#63b8ff" stroke="#63b8ff" points="131.13,-154.07 134.63,-164.07 138.13,-154.07 131.13,-154.07"/>
</a>
</g>
</g>
</g>
</svg>
