<?xml version="1.0" encoding="UTF-8" standalone="no"?>
<!DOCTYPE svg PUBLIC "-//W3C//DTD SVG 1.1//EN"
 "http://www.w3.org/Graphics/SVG/1.1/DTD/svg11.dtd">
<!-- Generated by graphviz version 14.1.3 (20260303.0454)
 -->
<!-- Title: llvm::ResolverError Pages: 1 -->
<svg width="201pt" height="235pt"
 viewBox="0.00 0.00 201.00 235.00" xmlns="http://www.w3.org/2000/svg" xmlns:xlink="http://www.w3.org/1999/xlink">
<g id="graph0" class="graph" transform="scale(1 1) rotate(0) translate(4 230.75)">
<title>llvm::ResolverError</title>
<!-- Node1 -->
<g id="Node000001" class="node">
<title>Node1</title>
<g id="a_Node000001"><a xlink:title=" ">
<polygon fill="#999999" stroke="#666666" points="112.75,-19.25 12.75,-19.25 12.75,0 112.75,0 112.75,-19.25"/>
<text xml:space="preserve" text-anchor="middle" x="62.75" y="-5.75" font-family="Helvetica,sans-Serif" font-size="10.00">llvm::ResolverError</text>
</a>
</g>
</g>
<!-- Node2 -->
<g id="Node000002" class="node">
<title>Node2</title>
<g id="a_Node000002"><a xlink:href="classllvm_1_1ErrorInfo.html" target="_top" xlink:title=" ">
<polygon fill="white" stroke="#666666" points="125.5,-86.75 0,-86.75 0,-56.25 125.5,-56.25 125.5,-86.75"/>
<text xml:space="preserve" text-anchor="start" x="8" y="-73.25" font-family="Helvetica,sans-Serif" font-size="10.00">llvm::ErrorInfo&lt; Resolver</text>
<text xml:space="preserve" text-anchor="middle" x="62.75" y="-62" font-family="Helvetica,sans-Serif" font-size="10.00">Error &gt;</text>
</a>
</g>
</g>
<!-- Node2&#45;&gt;Node1 -->
<g id="edge1_Node000001_Node000002" class="edge">
<title>Node2&#45;&gt;Node1</title>
<g id="a_edge1_Node000001_Node000002"><a xlink:title=" ">
<path fill="none" stroke="#63b8ff" d="M62.75,-44.77C62.75,-35.79 62.75,-26.29 62.75,-19.6"/>
<polygon fill="#63b8ff" stroke="#63b8ff" points="59.25,-44.49 62.75,-54.49 66.25,-44.49 59.25,-44.49"/>
</a>
</g>
</g>
<!-- Node3 -->
<g id="Node000003" class="node">
<title>Node3</title>
<g id="a_Node000003"><a xlink:href="classllvm_1_1ErrorInfoBase.html" target="_top" xlink:title="Base class for error info classes.">
<polygon fill="white" stroke="#666666" points="108.75,-226.75 8.75,-226.75 8.75,-207.5 108.75,-207.5 108.75,-226.75"/>
<text xml:space="preserve" text-anchor="middle" x="58.75" y="-213.25" font-family="Helvetica,sans-Serif" font-size="10.00">llvm::ErrorInfoBase</text>
</a>
</g>
</g>
<!-- Node3&#45;&gt;Node2 -->
<g id="edge2_Node000002_Node000003" class="edge">
<title>Node3&#45;&gt;Node2</title>
<g id="a_edge2_Node000002_Node000003"><a xlink:title=" ">
<path fill="none" stroke="#63b8ff" d="M59.32,-195.84C60.14,-166.37 61.64,-112.46 62.35,-86.8"/>
<polygon fill="#63b8ff" stroke="#63b8ff" points="55.82,-195.53 59.04,-205.63 62.82,-195.73 55.82,-195.53"/>
</a>
</g>
</g>
<!-- Node4 -->
<g id="Node000004" class="node">
<title>Node4</title>
<g id="a_Node000004"><a xlink:href="classllvm_1_1ErrorInfo.html" target="_top" xlink:title="Base class for user error types.">
<polygon fill="white" stroke="#666666" points="192.75,-170.5 74.75,-170.5 74.75,-140 192.75,-140 192.75,-170.5"/>
<text xml:space="preserve" text-anchor="start" x="82.75" y="-157" font-family="Helvetica,sans-Serif" font-size="10.00">llvm::ErrorInfo&lt; ThisErr</text>
<text xml:space="preserve" text-anchor="middle" x="133.75" y="-145.75" font-family="Helvetica,sans-Serif" font-size="10.00">T, ParentErrT &gt;</text>
</a>
</g>
</g>
<!-- Node3&#45;&gt;Node4 -->
<g id="edge4_Node000004_Node000003" class="edge">
<title>Node3&#45;&gt;Node4</title>
<g id="a_edge4_Node000004_Node000003"><a xlink:title=" ">
<path fill="none" stroke="#63b8ff" d="M78.94,-200C90.34,-190.9 104.47,-179.63 115.53,-170.8"/>
<polygon fill="#63b8ff" stroke="#63b8ff" points="76.96,-197.11 71.32,-206.09 81.32,-202.58 76.96,-197.11"/>
</a>
</g>
</g>
<!-- Node4&#45;&gt;Node2 -->
<g id="edge3_Node000002_Node000004" class="edge">
<title>Node4&#45;&gt;Node2</title>
<g id="a_edge3_Node000002_Node000004"><a xlink:title=" ">
<path fill="none" stroke="orange" stroke-dasharray="5,2" d="M113.84,-131.33C101.49,-117.11 86,-99.27 75.33,-86.99"/>
<polygon fill="orange" stroke="orange" points="110.86,-133.24 120.06,-138.49 116.15,-128.65 110.86,-133.24"/>
</a>
</g>
<text xml:space="preserve" text-anchor="start" x="107.61" y="-110.75" font-family="Helvetica,sans-Serif" font-size="10.00" fill="grey">&lt; ResolverError &gt;</text>
</g>
</g>
</svg>
