<?xml version="1.0" encoding="UTF-8" standalone="no"?>
<!DOCTYPE svg PUBLIC "-//W3C//DTD SVG 1.1//EN"
 "http://www.w3.org/Graphics/SVG/1.1/DTD/svg11.dtd">
<!-- Generated by graphviz version 14.1.3 (20260303.0454)
 -->
<!-- Title: llvm::InstCostVisitor Pages: 1 -->
<svg width="163pt" height="194pt"
 viewBox="0.00 0.00 163.00 194.00" xmlns="http://www.w3.org/2000/svg" xmlns:xlink="http://www.w3.org/1999/xlink">
<g id="graph0" class="graph" transform="scale(1 1) rotate(0) translate(4 189.75)">
<title>llvm::InstCostVisitor</title>
<!-- Node1 -->
<g id="Node000001" class="node">
<title>Node1</title>
<g id="a_Node000001"><a xlink:title=" ">
<polygon fill="#999999" stroke="#666666" points="125.12,-19.25 19.88,-19.25 19.88,0 125.12,0 125.12,-19.25"/>
<text xml:space="preserve" text-anchor="middle" x="72.5" y="-5.75" font-family="Helvetica,sans-Serif" font-size="10.00">llvm::InstCostVisitor</text>
</a>
</g>
</g>
<!-- Node2 -->
<g id="Node000002" class="node">
<title>Node2</title>
<g id="a_Node000002"><a xlink:href="classllvm_1_1InstVisitor.html" target="_top" xlink:title=" ">
<polygon fill="white" stroke="#666666" points="145,-86.75 0,-86.75 0,-56.25 145,-56.25 145,-86.75"/>
<text xml:space="preserve" text-anchor="start" x="8" y="-73.25" font-family="Helvetica,sans-Serif" font-size="10.00">llvm::InstVisitor&lt;</text>
<text xml:space="preserve" text-anchor="middle" x="72.5" y="-62" font-family="Helvetica,sans-Serif" font-size="10.00"> InstCostVisitor, Constant * &gt;</text>
</a>
</g>
</g>
<!-- Node2&#45;&gt;Node1 -->
<g id="edge1_Node000001_Node000002" class="edge">
<title>Node2&#45;&gt;Node1</title>
<g id="a_edge1_Node000001_Node000002"><a xlink:title=" ">
<path fill="none" stroke="#63b8ff" d="M72.5,-44.77C72.5,-35.79 72.5,-26.29 72.5,-19.6"/>
<polygon fill="#63b8ff" stroke="#63b8ff" points="69,-44.49 72.5,-54.49 76,-44.49 69,-44.49"/>
</a>
</g>
</g>
<!-- Node3 -->
<g id="Node000003" class="node">
<title>Node3</title>
<g id="a_Node000003"><a xlink:href="classllvm_1_1InstVisitor.html" target="_top" xlink:title="Base class for instruction visitors.">
<polygon fill="white" stroke="#666666" points="124,-185.75 21,-185.75 21,-155.25 124,-155.25 124,-185.75"/>
<text xml:space="preserve" text-anchor="start" x="29" y="-172.25" font-family="Helvetica,sans-Serif" font-size="10.00">llvm::InstVisitor&lt;</text>
<text xml:space="preserve" text-anchor="middle" x="72.5" y="-161" font-family="Helvetica,sans-Serif" font-size="10.00"> SubClass, RetTy &gt;</text>
</a>
</g>
</g>
<!-- Node3&#45;&gt;Node2 -->
<g id="edge2_Node000002_Node000003" class="edge">
<title>Node3&#45;&gt;Node2</title>
<g id="a_edge2_Node000002_Node000003"><a xlink:title=" ">
<path fill="none" stroke="orange" stroke-dasharray="5,2" d="M72.5,-143.27C72.5,-125.21 72.5,-101.88 72.5,-87.05"/>
<polygon fill="orange" stroke="orange" points="69,-143.25 72.5,-153.25 76,-143.25 69,-143.25"/>
</a>
</g>
<text xml:space="preserve" text-anchor="start" x="75.5" y="-126" font-family="Helvetica,sans-Serif" font-size="10.00" fill="grey">&lt; InstCostVisitor,</text>
<text xml:space="preserve" text-anchor="start" x="75.5" y="-110.75" font-family="Helvetica,sans-Serif" font-size="10.00" fill="grey">   Constant * &gt;</text>
</g>
</g>
</svg>
