<?xml version="1.0" encoding="UTF-8" standalone="no"?>
<!DOCTYPE svg PUBLIC "-//W3C//DTD SVG 1.1//EN"
 "http://www.w3.org/Graphics/SVG/1.1/DTD/svg11.dtd">
<!-- Generated by graphviz version 14.1.3 (20260303.0454)
 -->
<!-- Title: llvm::logicalview::LVBinaryReader Pages: 1 -->
<svg width="226pt" height="172pt"
 viewBox="0.00 0.00 226.00 172.00" xmlns="http://www.w3.org/2000/svg" xmlns:xlink="http://www.w3.org/1999/xlink">
<g id="graph0" class="graph" transform="scale(1 1) rotate(0) translate(4 167.5)">
<title>llvm::logicalview::LVBinaryReader</title>
<!-- Node1 -->
<g id="Node000001" class="node">
<title>Node1</title>
<g id="a_Node000001"><a xlink:title=" ">
<polygon fill="#999999" stroke="#666666" points="157.88,-97 63.87,-97 63.87,-66.5 157.88,-66.5 157.88,-97"/>
<text xml:space="preserve" text-anchor="start" x="71.88" y="-83.5" font-family="Helvetica,sans-Serif" font-size="10.00">llvm::logicalview::</text>
<text xml:space="preserve" text-anchor="middle" x="110.88" y="-72.25" font-family="Helvetica,sans-Serif" font-size="10.00">LVBinaryReader</text>
</a>
</g>
</g>
<!-- Node3 -->
<g id="Node000003" class="node">
<title>Node3</title>
<g id="a_Node000003"><a xlink:href="classllvm_1_1logicalview_1_1LVCodeViewReader.html" target="_top" xlink:title=" ">
<polygon fill="white" stroke="#666666" points="103.75,-30.5 0,-30.5 0,0 103.75,0 103.75,-30.5"/>
<text xml:space="preserve" text-anchor="start" x="8" y="-17" font-family="Helvetica,sans-Serif" font-size="10.00">llvm::logicalview::</text>
<text xml:space="preserve" text-anchor="middle" x="51.88" y="-5.75" font-family="Helvetica,sans-Serif" font-size="10.00">LVCodeViewReader</text>
</a>
</g>
</g>
<!-- Node1&#45;&gt;Node3 -->
<g id="edge2_Node000001_Node000003" class="edge">
<title>Node1&#45;&gt;Node3</title>
<g id="a_edge2_Node000001_Node000003"><a xlink:title=" ">
<path fill="none" stroke="#63b8ff" d="M89.73,-57.63C81.55,-48.69 72.44,-38.74 65.21,-30.83"/>
<polygon fill="#63b8ff" stroke="#63b8ff" points="87.13,-59.98 96.47,-65 92.3,-55.26 87.13,-59.98"/>
</a>
</g>
</g>
<!-- Node4 -->
<g id="Node000004" class="node">
<title>Node4</title>
<g id="a_Node000004"><a xlink:href="classllvm_1_1logicalview_1_1LVDWARFReader.html" target="_top" xlink:title=" ">
<polygon fill="white" stroke="#666666" points="217.62,-30.5 122.12,-30.5 122.12,0 217.62,0 217.62,-30.5"/>
<text xml:space="preserve" text-anchor="start" x="130.12" y="-17" font-family="Helvetica,sans-Serif" font-size="10.00">llvm::logicalview::</text>
<text xml:space="preserve" text-anchor="middle" x="169.88" y="-5.75" font-family="Helvetica,sans-Serif" font-size="10.00">LVDWARFReader</text>
</a>
</g>
</g>
<!-- Node1&#45;&gt;Node4 -->
<g id="edge3_Node000001_Node000004" class="edge">
<title>Node1&#45;&gt;Node4</title>
<g id="a_edge3_Node000001_Node000004"><a xlink:title=" ">
<path fill="none" stroke="#63b8ff" d="M132.02,-57.63C140.2,-48.69 149.31,-38.74 156.54,-30.83"/>
<polygon fill="#63b8ff" stroke="#63b8ff" points="129.45,-55.26 125.28,-65 134.62,-59.98 129.45,-55.26"/>
</a>
</g>
</g>
<!-- Node2 -->
<g id="Node000002" class="node">
<title>Node2</title>
<g id="a_Node000002"><a xlink:href="classllvm_1_1logicalview_1_1LVReader.html" target="_top" xlink:title="The logical reader owns of all the logical elements created during the debug information parsing.">
<polygon fill="white" stroke="#666666" points="157.88,-163.5 63.87,-163.5 63.87,-133 157.88,-133 157.88,-163.5"/>
<text xml:space="preserve" text-anchor="start" x="71.88" y="-150" font-family="Helvetica,sans-Serif" font-size="10.00">llvm::logicalview::</text>
<text xml:space="preserve" text-anchor="middle" x="110.88" y="-138.75" font-family="Helvetica,sans-Serif" font-size="10.00">LVReader</text>
</a>
</g>
</g>
<!-- Node2&#45;&gt;Node1 -->
<g id="edge1_Node000001_Node000002" class="edge">
<title>Node2&#45;&gt;Node1</title>
<g id="a_edge1_Node000001_Node000002"><a xlink:title=" ">
<path fill="none" stroke="#63b8ff" d="M110.88,-121.31C110.88,-113.14 110.88,-104.41 110.88,-97.33"/>
<polygon fill="#63b8ff" stroke="#63b8ff" points="107.38,-121.1 110.88,-131.1 114.38,-121.1 107.38,-121.1"/>
</a>
</g>
</g>
</g>
</svg>
