<?xml version="1.0" encoding="UTF-8" standalone="no"?>
<!DOCTYPE svg PUBLIC "-//W3C//DTD SVG 1.1//EN"
 "http://www.w3.org/Graphics/SVG/1.1/DTD/svg11.dtd">
<!-- Generated by graphviz version 14.1.3 (20260303.0454)
 -->
<!-- Title: llvm::Substitution Pages: 1 -->
<svg width="272pt" height="83pt"
 viewBox="0.00 0.00 272.00 83.00" xmlns="http://www.w3.org/2000/svg" xmlns:xlink="http://www.w3.org/1999/xlink">
<g id="graph0" class="graph" transform="scale(1 1) rotate(0) translate(4 78.5)">
<title>llvm::Substitution</title>
<!-- Node1 -->
<g id="Node000001" class="node">
<title>Node1</title>
<g id="a_Node000001"><a xlink:title="Class representing a substitution to perform in the RegExStr string.">
<polygon fill="#999999" stroke="#666666" points="180.12,-74.5 88.38,-74.5 88.38,-55.25 180.12,-55.25 180.12,-74.5"/>
<text xml:space="preserve" text-anchor="middle" x="134.25" y="-61" font-family="Helvetica,sans-Serif" font-size="10.00">llvm::Substitution</text>
</a>
</g>
</g>
<!-- Node2 -->
<g id="Node000002" class="node">
<title>Node2</title>
<g id="a_Node000002"><a xlink:href="classllvm_1_1NumericSubstitution.html" target="_top" xlink:title=" ">
<polygon fill="white" stroke="#666666" points="128.5,-19.25 0,-19.25 0,0 128.5,0 128.5,-19.25"/>
<text xml:space="preserve" text-anchor="middle" x="64.25" y="-5.75" font-family="Helvetica,sans-Serif" font-size="10.00">llvm::NumericSubstitution</text>
</a>
</g>
</g>
<!-- Node1&#45;&gt;Node2 -->
<g id="edge1_Node000001_Node000002" class="edge">
<title>Node1&#45;&gt;Node2</title>
<g id="a_edge1_Node000001_Node000002"><a xlink:title=" ">
<path fill="none" stroke="#63b8ff" d="M113.3,-47.94C101.08,-38.64 86.11,-27.26 75.95,-19.52"/>
<polygon fill="#63b8ff" stroke="#63b8ff" points="111.09,-50.66 121.17,-53.93 115.33,-45.09 111.09,-50.66"/>
</a>
</g>
</g>
<!-- Node3 -->
<g id="Node000003" class="node">
<title>Node3</title>
<g id="a_Node000003"><a xlink:href="classllvm_1_1StringSubstitution.html" target="_top" xlink:title=" ">
<polygon fill="white" stroke="#666666" points="263.88,-19.25 146.62,-19.25 146.62,0 263.88,0 263.88,-19.25"/>
<text xml:space="preserve" text-anchor="middle" x="205.25" y="-5.75" font-family="Helvetica,sans-Serif" font-size="10.00">llvm::StringSubstitution</text>
</a>
</g>
</g>
<!-- Node1&#45;&gt;Node3 -->
<g id="edge2_Node000001_Node000003" class="edge">
<title>Node1&#45;&gt;Node3</title>
<g id="a_edge2_Node000001_Node000003"><a xlink:title=" ">
<path fill="none" stroke="#63b8ff" d="M155.5,-47.94C167.89,-38.64 183.07,-27.26 193.38,-19.52"/>
<polygon fill="#63b8ff" stroke="#63b8ff" points="153.41,-45.13 147.51,-53.93 157.61,-50.73 153.41,-45.13"/>
</a>
</g>
</g>
</g>
</svg>
