<?xml version="1.0" encoding="UTF-8" standalone="no"?>
<!DOCTYPE svg PUBLIC "-//W3C//DTD SVG 1.1//EN"
 "http://www.w3.org/Graphics/SVG/1.1/DTD/svg11.dtd">
<!-- Generated by graphviz version 14.1.3 (20260303.0454)
 -->
<!-- Title: llvm::ModuleSummaryIndexAnalysis Pages: 1 -->
<svg width="1013pt" height="90pt"
 viewBox="0.00 0.00 1013.00 90.00" xmlns="http://www.w3.org/2000/svg" xmlns:xlink="http://www.w3.org/1999/xlink">
<g id="graph0" class="graph" transform="scale(1 1) rotate(0) translate(4 85.5)">
<title>llvm::ModuleSummaryIndexAnalysis</title>
<!-- Node1 -->
<g id="Node000001" class="node">
<title>Node1</title>
<g id="a_Node000001"><a xlink:title="Analysis pass to provide the ModuleSummaryIndex object.">
<polygon fill="#999999" stroke="#666666" points="1004.75,-54.5 867.25,-54.5 867.25,-24 1004.75,-24 1004.75,-54.5"/>
<text xml:space="preserve" text-anchor="start" x="875.25" y="-41" font-family="Helvetica,sans-Serif" font-size="10.00">llvm::ModuleSummaryIndex</text>
<text xml:space="preserve" text-anchor="middle" x="936" y="-29.75" font-family="Helvetica,sans-Serif" font-size="10.00">Analysis</text>
</a>
</g>
</g>
<!-- Node2 -->
<g id="Node000002" class="node">
<title>Node2</title>
<g id="a_Node000002"><a xlink:href="structllvm_1_1AnalysisInfoMixin.html" target="_top" xlink:title=" ">
<polygon fill="white" stroke="#666666" points="830.25,-54.5 661.25,-54.5 661.25,-24 830.25,-24 830.25,-54.5"/>
<text xml:space="preserve" text-anchor="start" x="669.25" y="-41" font-family="Helvetica,sans-Serif" font-size="10.00">llvm::AnalysisInfoMixin</text>
<text xml:space="preserve" text-anchor="middle" x="745.75" y="-29.75" font-family="Helvetica,sans-Serif" font-size="10.00">&lt; ModuleSummaryIndexAnalysis &gt;</text>
</a>
</g>
</g>
<!-- Node2&#45;&gt;Node1 -->
<g id="edge1_Node000001_Node000002" class="edge">
<title>Node2&#45;&gt;Node1</title>
<g id="a_edge1_Node000001_Node000002"><a xlink:title=" ">
<path fill="none" stroke="#63b8ff" d="M842.13,-39.25C850.53,-39.25 858.92,-39.25 867.03,-39.25"/>
<polygon fill="#63b8ff" stroke="#63b8ff" points="842.2,-35.75 832.2,-39.25 842.2,-42.75 842.2,-35.75"/>
</a>
</g>
</g>
<!-- Node3 -->
<g id="Node000003" class="node">
<title>Node3</title>
<g id="a_Node000003"><a xlink:href="structllvm_1_1PassInfoMixin.html" target="_top" xlink:title=" ">
<polygon fill="white" stroke="#666666" points="466.25,-79.5 297.25,-79.5 297.25,-49 466.25,-49 466.25,-79.5"/>
<text xml:space="preserve" text-anchor="start" x="305.25" y="-66" font-family="Helvetica,sans-Serif" font-size="10.00">llvm::PassInfoMixin</text>
<text xml:space="preserve" text-anchor="middle" x="381.75" y="-54.75" font-family="Helvetica,sans-Serif" font-size="10.00">&lt; ModuleSummaryIndexAnalysis &gt;</text>
</a>
</g>
</g>
<!-- Node3&#45;&gt;Node2 -->
<g id="edge2_Node000002_Node000003" class="edge">
<title>Node3&#45;&gt;Node2</title>
<g id="a_edge2_Node000002_Node000003"><a xlink:title=" ">
<path fill="none" stroke="#63b8ff" d="M477.87,-57.68C534.7,-53.76 606.23,-48.82 660.93,-45.04"/>
<polygon fill="#63b8ff" stroke="#63b8ff" points="477.95,-54.17 468.22,-58.35 478.44,-61.15 477.95,-54.17"/>
</a>
</g>
</g>
<!-- Node4 -->
<g id="Node000004" class="node">
<title>Node4</title>
<g id="a_Node000004"><a xlink:href="structllvm_1_1PassInfoMixin.html" target="_top" xlink:title="A CRTP mix&#45;in to automatically provide informational APIs needed for passes.">
<polygon fill="white" stroke="#666666" points="102.25,-79.5 0,-79.5 0,-49 102.25,-49 102.25,-79.5"/>
<text xml:space="preserve" text-anchor="start" x="8" y="-66" font-family="Helvetica,sans-Serif" font-size="10.00">llvm::PassInfoMixin</text>
<text xml:space="preserve" text-anchor="middle" x="51.12" y="-54.75" font-family="Helvetica,sans-Serif" font-size="10.00">&lt; DerivedT &gt;</text>
</a>
</g>
</g>
<!-- Node4&#45;&gt;Node3 -->
<g id="edge3_Node000003_Node000004" class="edge">
<title>Node4&#45;&gt;Node3</title>
<g id="a_edge3_Node000003_Node000004"><a xlink:title=" ">
<path fill="none" stroke="orange" stroke-dasharray="5,2" d="M113.72,-64.25C165.44,-64.25 239.81,-64.25 296.95,-64.25"/>
<polygon fill="orange" stroke="orange" points="113.91,-60.75 103.91,-64.25 113.91,-67.75 113.91,-60.75"/>
</a>
</g>
<text xml:space="preserve" text-anchor="start" x="123.25" y="-70.25" font-family="Helvetica,sans-Serif" font-size="10.00" fill="grey">&lt; ModuleSummaryIndexAnalysis &gt;</text>
</g>
<!-- Node5 -->
<g id="Node000005" class="node">
<title>Node5</title>
<g id="a_Node000005"><a xlink:href="structllvm_1_1AnalysisInfoMixin.html" target="_top" xlink:title="A CRTP mix&#45;in that provides informational APIs needed for analysis passes.">
<polygon fill="white" stroke="#666666" points="440.38,-30.5 323.12,-30.5 323.12,0 440.38,0 440.38,-30.5"/>
<text xml:space="preserve" text-anchor="start" x="331.12" y="-17" font-family="Helvetica,sans-Serif" font-size="10.00">llvm::AnalysisInfoMixin</text>
<text xml:space="preserve" text-anchor="middle" x="381.75" y="-5.75" font-family="Helvetica,sans-Serif" font-size="10.00">&lt; DerivedT &gt;</text>
</a>
</g>
</g>
<!-- Node5&#45;&gt;Node2 -->
<g id="edge4_Node000002_Node000005" class="edge">
<title>Node5&#45;&gt;Node2</title>
<g id="a_edge4_Node000002_Node000005"><a xlink:title=" ">
<path fill="none" stroke="orange" stroke-dasharray="5,2" d="M451.96,-17.48C504.5,-19.45 578.49,-22.83 643.25,-28 648.99,-28.46 654.92,-28.98 660.88,-29.55"/>
<polygon fill="orange" stroke="orange" points="452.39,-13.99 442.27,-17.12 452.13,-20.99 452.39,-13.99"/>
</a>
</g>
<text xml:space="preserve" text-anchor="start" x="487.25" y="-34" font-family="Helvetica,sans-Serif" font-size="10.00" fill="grey">&lt; ModuleSummaryIndexAnalysis &gt;</text>
</g>
<!-- Node6 -->
<g id="Node000006" class="node">
<title>Node6</title>
<g id="a_Node000006"><a xlink:href="structllvm_1_1PassInfoMixin.html" target="_top" xlink:title="A CRTP mix&#45;in to automatically provide informational APIs needed for passes.">
<polygon fill="white" stroke="#666666" points="102.25,-30.5 0,-30.5 0,0 102.25,0 102.25,-30.5"/>
<text xml:space="preserve" text-anchor="start" x="8" y="-17" font-family="Helvetica,sans-Serif" font-size="10.00">llvm::PassInfoMixin</text>
<text xml:space="preserve" text-anchor="middle" x="51.12" y="-5.75" font-family="Helvetica,sans-Serif" font-size="10.00">&lt; DerivedT &gt;</text>
</a>
</g>
</g>
<!-- Node6&#45;&gt;Node5 -->
<g id="edge5_Node000005_Node000006" class="edge">
<title>Node6&#45;&gt;Node5</title>
<g id="a_edge5_Node000005_Node000006"><a xlink:title=" ">
<path fill="none" stroke="#63b8ff" d="M113.59,-15.25C173.52,-15.25 264,-15.25 322.73,-15.25"/>
<polygon fill="#63b8ff" stroke="#63b8ff" points="113.91,-11.75 103.91,-15.25 113.91,-18.75 113.91,-11.75"/>
</a>
</g>
</g>
</g>
</svg>
