<?xml version="1.0" encoding="UTF-8" standalone="no"?>
<!DOCTYPE svg PUBLIC "-//W3C//DTD SVG 1.1//EN"
 "http://www.w3.org/Graphics/SVG/1.1/DTD/svg11.dtd">
<!-- Generated by graphviz version 14.1.3 (20260303.0454)
 -->
<!-- Title: llvm::ConstantUniqueMap&lt; ConstantClass &gt; Pages: 1 -->
<svg width="425pt" height="284pt"
 viewBox="0.00 0.00 425.00 284.00" xmlns="http://www.w3.org/2000/svg" xmlns:xlink="http://www.w3.org/1999/xlink">
<g id="graph0" class="graph" transform="scale(1 1) rotate(0) translate(4 279.5)">
<title>llvm::ConstantUniqueMap&lt; ConstantClass &gt;</title>
<!-- Node1 -->
<g id="Node000001" class="node">
<title>Node1</title>
<g id="a_Node000001"><a xlink:title=" ">
<polygon fill="#999999" stroke="#666666" points="129.25,-152.5 0,-152.5 0,-122 129.25,-122 129.25,-152.5"/>
<text xml:space="preserve" text-anchor="start" x="8" y="-139" font-family="Helvetica,sans-Serif" font-size="10.00">llvm::ConstantUniqueMap</text>
<text xml:space="preserve" text-anchor="middle" x="64.62" y="-127.75" font-family="Helvetica,sans-Serif" font-size="10.00">&lt; ConstantClass &gt;</text>
</a>
</g>
</g>
<!-- Node2 -->
<g id="Node000002" class="node">
<title>Node2</title>
<g id="a_Node000002"><a xlink:href="classllvm_1_1ConstantUniqueMap.html" target="_top" xlink:title=" ">
<polygon fill="white" stroke="#666666" points="416,-275.5 286.75,-275.5 286.75,-245 416,-245 416,-275.5"/>
<text xml:space="preserve" text-anchor="start" x="294.75" y="-262" font-family="Helvetica,sans-Serif" font-size="10.00">llvm::ConstantUniqueMap</text>
<text xml:space="preserve" text-anchor="middle" x="351.38" y="-250.75" font-family="Helvetica,sans-Serif" font-size="10.00">&lt; ConstantArray &gt;</text>
</a>
</g>
</g>
<!-- Node1&#45;&gt;Node2 -->
<g id="edge1_Node000001_Node000002" class="edge">
<title>Node1&#45;&gt;Node2</title>
<g id="a_edge1_Node000001_Node000002"><a xlink:title=" ">
<path fill="none" stroke="orange" stroke-dasharray="5,2" d="M82.39,-162.17C97.09,-181.97 120.3,-208.67 147.25,-223.25 190.13,-246.44 244.78,-255.44 286.59,-258.77"/>
<polygon fill="orange" stroke="orange" points="85.24,-160.14 76.57,-154.05 79.55,-164.22 85.24,-160.14"/>
</a>
</g>
<text xml:space="preserve" text-anchor="start" x="167.12" y="-262.51" font-family="Helvetica,sans-Serif" font-size="10.00" fill="grey">&lt; ConstantArray &gt;</text>
</g>
<!-- Node3 -->
<g id="Node000003" class="node">
<title>Node3</title>
<g id="a_Node000003"><a xlink:href="classllvm_1_1ConstantUniqueMap.html" target="_top" xlink:title=" ">
<polygon fill="white" stroke="#666666" points="416,-226.5 286.75,-226.5 286.75,-196 416,-196 416,-226.5"/>
<text xml:space="preserve" text-anchor="start" x="294.75" y="-213" font-family="Helvetica,sans-Serif" font-size="10.00">llvm::ConstantUniqueMap</text>
<text xml:space="preserve" text-anchor="middle" x="351.38" y="-201.75" font-family="Helvetica,sans-Serif" font-size="10.00">&lt; ConstantStruct &gt;</text>
</a>
</g>
</g>
<!-- Node1&#45;&gt;Node3 -->
<g id="edge2_Node000001_Node000003" class="edge">
<title>Node1&#45;&gt;Node3</title>
<g id="a_edge2_Node000001_Node000003"><a xlink:title=" ">
<path fill="none" stroke="orange" stroke-dasharray="5,2" d="M103.43,-157.98C116.93,-164.66 132.46,-171.54 147.25,-176.25 192.77,-190.74 246.05,-199.64 286.62,-204.83"/>
<polygon fill="orange" stroke="orange" points="105.4,-155.05 94.9,-153.64 102.22,-161.29 105.4,-155.05"/>
</a>
</g>
<text xml:space="preserve" text-anchor="start" x="165.62" y="-208.12" font-family="Helvetica,sans-Serif" font-size="10.00" fill="grey">&lt; ConstantStruct &gt;</text>
</g>
<!-- Node4 -->
<g id="Node000004" class="node">
<title>Node4</title>
<g id="a_Node000004"><a xlink:href="classllvm_1_1ConstantUniqueMap.html" target="_top" xlink:title=" ">
<polygon fill="white" stroke="#666666" points="416,-177.5 286.75,-177.5 286.75,-147 416,-147 416,-177.5"/>
<text xml:space="preserve" text-anchor="start" x="294.75" y="-164" font-family="Helvetica,sans-Serif" font-size="10.00">llvm::ConstantUniqueMap</text>
<text xml:space="preserve" text-anchor="middle" x="351.38" y="-152.75" font-family="Helvetica,sans-Serif" font-size="10.00">&lt; ConstantVector &gt;</text>
</a>
</g>
</g>
<!-- Node1&#45;&gt;Node4 -->
<g id="edge3_Node000001_Node000004" class="edge">
<title>Node1&#45;&gt;Node4</title>
<g id="a_edge3_Node000001_Node000004"><a xlink:title=" ">
<path fill="none" stroke="orange" stroke-dasharray="5,2" d="M140.81,-143.85C186.23,-147.84 243.5,-152.87 286.68,-156.66"/>
<polygon fill="orange" stroke="orange" points="141.3,-140.38 131.04,-142.99 140.69,-147.35 141.3,-140.38"/>
</a>
</g>
<text xml:space="preserve" text-anchor="start" x="164.5" y="-160.86" font-family="Helvetica,sans-Serif" font-size="10.00" fill="grey">&lt; ConstantVector &gt;</text>
</g>
<!-- Node5 -->
<g id="Node000005" class="node">
<title>Node5</title>
<g id="a_Node000005"><a xlink:href="classllvm_1_1ConstantUniqueMap.html" target="_top" xlink:title=" ">
<polygon fill="white" stroke="#666666" points="416.75,-128.5 286,-128.5 286,-98 416.75,-98 416.75,-128.5"/>
<text xml:space="preserve" text-anchor="start" x="294" y="-115" font-family="Helvetica,sans-Serif" font-size="10.00">llvm::ConstantUniqueMap</text>
<text xml:space="preserve" text-anchor="middle" x="351.38" y="-103.75" font-family="Helvetica,sans-Serif" font-size="10.00">&lt; llvm::ConstantPtrAuth &gt;</text>
</a>
</g>
</g>
<!-- Node1&#45;&gt;Node5 -->
<g id="edge4_Node000001_Node000005" class="edge">
<title>Node1&#45;&gt;Node5</title>
<g id="a_edge4_Node000001_Node000005"><a xlink:title=" ">
<path fill="none" stroke="orange" stroke-dasharray="5,2" d="M141.01,-123.74C143.11,-123.48 145.19,-123.23 147.25,-123 193.39,-117.88 245.73,-115.45 285.72,-114.3"/>
<polygon fill="orange" stroke="orange" points="140.61,-120.26 131.18,-125.08 141.56,-127.2 140.61,-120.26"/>
</a>
</g>
<text xml:space="preserve" text-anchor="start" x="150.25" y="-129" font-family="Helvetica,sans-Serif" font-size="10.00" fill="grey">&lt; llvm::ConstantPtrAuth &gt;</text>
</g>
<!-- Node6 -->
<g id="Node000006" class="node">
<title>Node6</title>
<g id="a_Node000006"><a xlink:href="classllvm_1_1ConstantUniqueMap.html" target="_top" xlink:title=" ">
<polygon fill="white" stroke="#666666" points="416,-79.5 286.75,-79.5 286.75,-49 416,-49 416,-79.5"/>
<text xml:space="preserve" text-anchor="start" x="294.75" y="-66" font-family="Helvetica,sans-Serif" font-size="10.00">llvm::ConstantUniqueMap</text>
<text xml:space="preserve" text-anchor="middle" x="351.38" y="-54.75" font-family="Helvetica,sans-Serif" font-size="10.00">&lt; llvm::ConstantExpr &gt;</text>
</a>
</g>
</g>
<!-- Node1&#45;&gt;Node6 -->
<g id="edge5_Node000001_Node000006" class="edge">
<title>Node1&#45;&gt;Node6</title>
<g id="a_edge5_Node000001_Node000006"><a xlink:title=" ">
<path fill="none" stroke="orange" stroke-dasharray="5,2" d="M99.49,-115.96C113.74,-107.9 130.82,-99.38 147.25,-94 192.47,-79.2 245.77,-71.74 286.42,-68"/>
<polygon fill="orange" stroke="orange" points="97.84,-112.87 90.96,-120.94 101.36,-118.92 97.84,-112.87"/>
</a>
</g>
<text xml:space="preserve" text-anchor="start" x="156.62" y="-100" font-family="Helvetica,sans-Serif" font-size="10.00" fill="grey">&lt; llvm::ConstantExpr &gt;</text>
</g>
<!-- Node7 -->
<g id="Node000007" class="node">
<title>Node7</title>
<g id="a_Node000007"><a xlink:href="classllvm_1_1ConstantUniqueMap.html" target="_top" xlink:title=" ">
<polygon fill="white" stroke="#666666" points="416,-30.5 286.75,-30.5 286.75,0 416,0 416,-30.5"/>
<text xml:space="preserve" text-anchor="start" x="294.75" y="-17" font-family="Helvetica,sans-Serif" font-size="10.00">llvm::ConstantUniqueMap</text>
<text xml:space="preserve" text-anchor="middle" x="351.38" y="-5.75" font-family="Helvetica,sans-Serif" font-size="10.00">&lt; llvm::InlineAsm &gt;</text>
</a>
</g>
</g>
<!-- Node1&#45;&gt;Node7 -->
<g id="edge6_Node000001_Node000007" class="edge">
<title>Node1&#45;&gt;Node7</title>
<g id="a_edge6_Node000001_Node000007"><a xlink:title=" ">
<path fill="none" stroke="orange" stroke-dasharray="5,2" d="M81.73,-112.19C96.29,-91.75 119.62,-63.9 147.25,-49 190.04,-25.93 244.7,-17.84 286.53,-15.34"/>
<polygon fill="orange" stroke="orange" points="78.94,-110.07 76.17,-120.29 84.72,-114.03 78.94,-110.07"/>
</a>
</g>
<text xml:space="preserve" text-anchor="start" x="164.88" y="-55" font-family="Helvetica,sans-Serif" font-size="10.00" fill="grey">&lt; llvm::InlineAsm &gt;</text>
</g>
</g>
</svg>
