<?xml version="1.0" encoding="UTF-8" standalone="no"?>
<!DOCTYPE svg PUBLIC "-//W3C//DTD SVG 1.1//EN"
 "http://www.w3.org/Graphics/SVG/1.1/DTD/svg11.dtd">
<!-- Generated by graphviz version 14.1.3 (20260303.0454)
 -->
<!-- Title: llvm::MCStreamer Pages: 1 -->
<svg width="690pt" height="304pt"
 viewBox="0.00 0.00 690.00 304.00" xmlns="http://www.w3.org/2000/svg" xmlns:xlink="http://www.w3.org/1999/xlink">
<g id="graph0" class="graph" transform="scale(1 1) rotate(0) translate(4 300.25)">
<title>llvm::MCStreamer</title>
<!-- Node1 -->
<g id="Node000001" class="node">
<title>Node1</title>
<g id="a_Node000001"><a xlink:title="Streaming machine code generation interface.">
<polygon fill="#999999" stroke="#666666" points="95.5,-111.25 0,-111.25 0,-92 95.5,-92 95.5,-111.25"/>
<text xml:space="preserve" text-anchor="middle" x="47.75" y="-97.75" font-family="Helvetica,sans-Serif" font-size="10.00">llvm::MCStreamer</text>
</a>
</g>
</g>
<!-- Node2 -->
<g id="Node000002" class="node">
<title>Node2</title>
<g id="a_Node000002"><a xlink:href="classllvm_1_1CFIFunctionFrameStreamer.html" target="_top" xlink:title="This class is an MCStreamer implementation that watches for machine instructions and CFI directives.">
<polygon fill="white" stroke="#666666" points="299.38,-167.25 137.88,-167.25 137.88,-148 299.38,-148 299.38,-167.25"/>
<text xml:space="preserve" text-anchor="middle" x="218.62" y="-153.75" font-family="Helvetica,sans-Serif" font-size="10.00">llvm::CFIFunctionFrameStreamer</text>
</a>
</g>
</g>
<!-- Node1&#45;&gt;Node2 -->
<g id="edge1_Node000001_Node000002" class="edge">
<title>Node1&#45;&gt;Node2</title>
<g id="a_edge1_Node000001_Node000002"><a xlink:title=" ">
<path fill="none" stroke="#63b8ff" d="M77.4,-116.72C93.05,-124.46 112.96,-133.52 131.5,-139.62 140.79,-142.68 150.81,-145.34 160.63,-147.6"/>
<polygon fill="#63b8ff" stroke="#63b8ff" points="79.18,-113.69 68.68,-112.3 76.02,-119.94 79.18,-113.69"/>
</a>
</g>
</g>
<!-- Node3 -->
<g id="Node000003" class="node">
<title>Node3</title>
<g id="a_Node000003"><a xlink:href="classllvm_1_1MCObjectStreamer.html" target="_top" xlink:title="Streaming object file generation interface.">
<polygon fill="white" stroke="#666666" points="280.62,-130.25 156.62,-130.25 156.62,-111 280.62,-111 280.62,-130.25"/>
<text xml:space="preserve" text-anchor="middle" x="218.62" y="-116.75" font-family="Helvetica,sans-Serif" font-size="10.00">llvm::MCObjectStreamer</text>
</a>
</g>
</g>
<!-- Node1&#45;&gt;Node3 -->
<g id="edge2_Node000001_Node000003" class="edge">
<title>Node1&#45;&gt;Node3</title>
<g id="a_edge2_Node000001_Node000003"><a xlink:title=" ">
<path fill="none" stroke="#63b8ff" d="M107.09,-108.19C122.98,-109.98 140.24,-111.92 156.3,-113.73"/>
<polygon fill="#63b8ff" stroke="#63b8ff" points="107.62,-104.73 97.3,-107.09 106.84,-111.68 107.62,-104.73"/>
</a>
</g>
</g>
<!-- Node18 -->
<g id="Node000018" class="node">
<title>Node18</title>
<g id="a_Node000018"><a xlink:href="classllvm_1_1RecordStreamer.html" target="_top" xlink:title=" ">
<polygon fill="white" stroke="#666666" points="274.25,-93.25 163,-93.25 163,-74 274.25,-74 274.25,-93.25"/>
<text xml:space="preserve" text-anchor="middle" x="218.62" y="-79.75" font-family="Helvetica,sans-Serif" font-size="10.00">llvm::RecordStreamer</text>
</a>
</g>
</g>
<!-- Node1&#45;&gt;Node18 -->
<g id="edge17_Node000001_Node000018" class="edge">
<title>Node1&#45;&gt;Node18</title>
<g id="a_edge17_Node000001_Node000018"><a xlink:title=" ">
<path fill="none" stroke="#63b8ff" d="M107.07,-95.41C125.13,-93.48 144.96,-91.37 162.77,-89.47"/>
<polygon fill="#63b8ff" stroke="#63b8ff" points="106.87,-91.91 97.3,-96.45 107.61,-98.87 106.87,-91.91"/>
</a>
</g>
</g>
<!-- Node19 -->
<g id="Node000019" class="node">
<title>Node19</title>
<g id="a_Node000019"><a xlink:href="classllvm_1_1SystemZHLASMAsmStreamer.html" target="_top" xlink:title=" ">
<polygon fill="white" stroke="#666666" points="305.75,-56.25 131.5,-56.25 131.5,-37 305.75,-37 305.75,-56.25"/>
<text xml:space="preserve" text-anchor="middle" x="218.62" y="-42.75" font-family="Helvetica,sans-Serif" font-size="10.00">llvm::SystemZHLASMAsmStreamer</text>
</a>
</g>
</g>
<!-- Node1&#45;&gt;Node19 -->
<g id="edge18_Node000001_Node000019" class="edge">
<title>Node1&#45;&gt;Node19</title>
<g id="a_edge18_Node000001_Node000019"><a xlink:title=" ">
<path fill="none" stroke="#63b8ff" d="M78.07,-86.67C93.63,-79.2 113.25,-70.54 131.5,-64.62 140.8,-61.61 150.83,-58.98 160.65,-56.73"/>
<polygon fill="#63b8ff" stroke="#63b8ff" points="76.81,-83.38 69.37,-90.92 79.89,-89.67 76.81,-83.38"/>
</a>
</g>
</g>
<!-- Node4 -->
<g id="Node000004" class="node">
<title>Node4</title>
<g id="a_Node000004"><a xlink:href="classllvm_1_1MCDXContainerStreamer.html" target="_top" xlink:title=" ">
<polygon fill="white" stroke="#666666" points="493.5,-241.25 341.75,-241.25 341.75,-222 493.5,-222 493.5,-241.25"/>
<text xml:space="preserve" text-anchor="middle" x="417.62" y="-227.75" font-family="Helvetica,sans-Serif" font-size="10.00">llvm::MCDXContainerStreamer</text>
</a>
</g>
</g>
<!-- Node3&#45;&gt;Node4 -->
<g id="edge3_Node000003_Node000004" class="edge">
<title>Node3&#45;&gt;Node4</title>
<g id="a_edge3_Node000003_Node000004"><a xlink:title=" ">
<path fill="none" stroke="#63b8ff" d="M291.69,-130.21C296.71,-132.5 301.47,-135.27 305.75,-138.62 334.85,-161.43 312.99,-190.39 341.75,-213.62 345.7,-216.82 350.13,-219.46 354.81,-221.64"/>
<polygon fill="#63b8ff" stroke="#63b8ff" points="293.09,-127 282.5,-126.72 290.6,-133.55 293.09,-127"/>
</a>
</g>
</g>
<!-- Node5 -->
<g id="Node000005" class="node">
<title>Node5</title>
<g id="a_Node000005"><a xlink:href="classllvm_1_1MCELFStreamer.html" target="_top" xlink:title=" ">
<polygon fill="white" stroke="#666666" points="474.38,-204.25 360.88,-204.25 360.88,-185 474.38,-185 474.38,-204.25"/>
<text xml:space="preserve" text-anchor="middle" x="417.62" y="-190.75" font-family="Helvetica,sans-Serif" font-size="10.00">llvm::MCELFStreamer</text>
</a>
</g>
</g>
<!-- Node3&#45;&gt;Node5 -->
<g id="edge4_Node000003_Node000005" class="edge">
<title>Node3&#45;&gt;Node5</title>
<g id="a_edge4_Node000003_Node000005"><a xlink:title=" ">
<path fill="none" stroke="#63b8ff" d="M291.83,-132.22C296.66,-134.05 301.35,-136.17 305.75,-138.62 326.06,-149.97 321.61,-164.98 341.75,-176.62 347.54,-179.97 353.92,-182.7 360.45,-184.92"/>
<polygon fill="#63b8ff" stroke="#63b8ff" points="293.09,-128.95 282.5,-129.13 290.89,-135.59 293.09,-128.95"/>
</a>
</g>
</g>
<!-- Node12 -->
<g id="Node000012" class="node">
<title>Node12</title>
<g id="a_Node000012"><a xlink:href="classllvm_1_1MCGOFFStreamer.html" target="_top" xlink:title=" ">
<polygon fill="white" stroke="#666666" points="478.88,-167.25 356.38,-167.25 356.38,-148 478.88,-148 478.88,-167.25"/>
<text xml:space="preserve" text-anchor="middle" x="417.62" y="-153.75" font-family="Helvetica,sans-Serif" font-size="10.00">llvm::MCGOFFStreamer</text>
</a>
</g>
</g>
<!-- Node3&#45;&gt;Node12 -->
<g id="edge11_Node000003_Node000012" class="edge">
<title>Node3&#45;&gt;Node12</title>
<g id="a_edge11_Node000003_Node000012"><a xlink:title=" ">
<path fill="none" stroke="#63b8ff" d="M284.48,-132.81C309.87,-137.57 338.65,-142.98 362.86,-147.53"/>
<polygon fill="#63b8ff" stroke="#63b8ff" points="285.42,-129.42 274.94,-131.01 284.13,-136.3 285.42,-129.42"/>
</a>
</g>
</g>
<!-- Node13 -->
<g id="Node000013" class="node">
<title>Node13</title>
<g id="a_Node000013"><a xlink:href="classllvm_1_1MCSPIRVStreamer.html" target="_top" xlink:title=" ">
<polygon fill="white" stroke="#666666" points="480.75,-130.25 354.5,-130.25 354.5,-111 480.75,-111 480.75,-130.25"/>
<text xml:space="preserve" text-anchor="middle" x="417.62" y="-116.75" font-family="Helvetica,sans-Serif" font-size="10.00">llvm::MCSPIRVStreamer</text>
</a>
</g>
</g>
<!-- Node3&#45;&gt;Node13 -->
<g id="edge12_Node000003_Node000013" class="edge">
<title>Node3&#45;&gt;Node13</title>
<g id="a_edge12_Node000003_Node000013"><a xlink:title=" ">
<path fill="none" stroke="#63b8ff" d="M292.28,-120.62C312.56,-120.62 334.41,-120.62 354.05,-120.62"/>
<polygon fill="#63b8ff" stroke="#63b8ff" points="292.39,-117.13 282.39,-120.63 292.39,-124.13 292.39,-117.13"/>
</a>
</g>
</g>
<!-- Node14 -->
<g id="Node000014" class="node">
<title>Node14</title>
<g id="a_Node000014"><a xlink:href="classllvm_1_1MCWasmStreamer.html" target="_top" xlink:title=" ">
<polygon fill="white" stroke="#666666" points="479.25,-93.25 356,-93.25 356,-74 479.25,-74 479.25,-93.25"/>
<text xml:space="preserve" text-anchor="middle" x="417.62" y="-79.75" font-family="Helvetica,sans-Serif" font-size="10.00">llvm::MCWasmStreamer</text>
</a>
</g>
</g>
<!-- Node3&#45;&gt;Node14 -->
<g id="edge13_Node000003_Node000014" class="edge">
<title>Node3&#45;&gt;Node14</title>
<g id="a_edge13_Node000003_Node000014"><a xlink:title=" ">
<path fill="none" stroke="#63b8ff" d="M284.48,-108.44C309.87,-103.68 338.65,-98.27 362.86,-93.72"/>
<polygon fill="#63b8ff" stroke="#63b8ff" points="284.13,-104.95 274.94,-110.24 285.42,-111.83 284.13,-104.95"/>
</a>
</g>
</g>
<!-- Node15 -->
<g id="Node000015" class="node">
<title>Node15</title>
<g id="a_Node000015"><a xlink:href="classllvm_1_1MCWinCOFFStreamer.html" target="_top" xlink:title=" ">
<polygon fill="white" stroke="#666666" points="487.5,-56.25 347.75,-56.25 347.75,-37 487.5,-37 487.5,-56.25"/>
<text xml:space="preserve" text-anchor="middle" x="417.62" y="-42.75" font-family="Helvetica,sans-Serif" font-size="10.00">llvm::MCWinCOFFStreamer</text>
</a>
</g>
</g>
<!-- Node3&#45;&gt;Node15 -->
<g id="edge14_Node000003_Node000015" class="edge">
<title>Node3&#45;&gt;Node15</title>
<g id="a_edge14_Node000003_Node000015"><a xlink:title=" ">
<path fill="none" stroke="#63b8ff" d="M291.83,-109.03C296.66,-107.2 301.35,-105.08 305.75,-102.62 326.06,-91.28 321.61,-76.27 341.75,-64.62 347.19,-61.48 353.16,-58.88 359.27,-56.74"/>
<polygon fill="#63b8ff" stroke="#63b8ff" points="290.89,-105.66 282.5,-112.12 293.09,-112.3 290.89,-105.66"/>
</a>
</g>
</g>
<!-- Node16 -->
<g id="Node000016" class="node">
<title>Node16</title>
<g id="a_Node000016"><a xlink:href="classllvm_1_1MCXCOFFStreamer.html" target="_top" xlink:title=" ">
<polygon fill="white" stroke="#666666" points="482.25,-19.25 353,-19.25 353,0 482.25,0 482.25,-19.25"/>
<text xml:space="preserve" text-anchor="middle" x="417.62" y="-5.75" font-family="Helvetica,sans-Serif" font-size="10.00">llvm::MCXCOFFStreamer</text>
</a>
</g>
</g>
<!-- Node3&#45;&gt;Node16 -->
<g id="edge15_Node000003_Node000016" class="edge">
<title>Node3&#45;&gt;Node16</title>
<g id="a_edge15_Node000003_Node000016"><a xlink:title=" ">
<path fill="none" stroke="#63b8ff" d="M291.69,-111.04C296.71,-108.75 301.47,-105.98 305.75,-102.62 334.85,-79.82 312.99,-50.86 341.75,-27.62 345.7,-24.43 350.13,-21.79 354.81,-19.61"/>
<polygon fill="#63b8ff" stroke="#63b8ff" points="290.6,-107.7 282.5,-114.53 293.09,-114.25 290.6,-107.7"/>
</a>
</g>
</g>
<!-- Node6 -->
<g id="Node000006" class="node">
<title>Node6</title>
<g id="a_Node000006"><a xlink:href="classllvm_1_1AVRMCELFStreamer.html" target="_top" xlink:title=" ">
<polygon fill="white" stroke="#666666" points="672.25,-296.25 539.25,-296.25 539.25,-277 672.25,-277 672.25,-296.25"/>
<text xml:space="preserve" text-anchor="middle" x="605.75" y="-282.75" font-family="Helvetica,sans-Serif" font-size="10.00">llvm::AVRMCELFStreamer</text>
</a>
</g>
</g>
<!-- Node5&#45;&gt;Node6 -->
<g id="edge5_Node000005_Node000006" class="edge">
<title>Node5&#45;&gt;Node6</title>
<g id="a_edge5_Node000005_Node000006"><a xlink:title=" ">
<path fill="none" stroke="#63b8ff" d="M485.07,-207.53C488.01,-209.05 490.84,-210.74 493.5,-212.62 517.62,-229.76 505.37,-251.5 529.5,-268.62 533.99,-271.81 538.97,-274.44 544.18,-276.61"/>
<polygon fill="#63b8ff" stroke="#63b8ff" points="486.65,-204.4 476.08,-203.63 483.86,-210.82 486.65,-204.4"/>
</a>
</g>
</g>
<!-- Node7 -->
<g id="Node000007" class="node">
<title>Node7</title>
<g id="a_Node000007"><a xlink:href="classllvm_1_1CSKYELFStreamer.html" target="_top" xlink:title=" ">
<polygon fill="white" stroke="#666666" points="668.5,-259.25 543,-259.25 543,-240 668.5,-240 668.5,-259.25"/>
<text xml:space="preserve" text-anchor="middle" x="605.75" y="-245.75" font-family="Helvetica,sans-Serif" font-size="10.00">llvm::CSKYELFStreamer</text>
</a>
</g>
</g>
<!-- Node5&#45;&gt;Node7 -->
<g id="edge6_Node000005_Node000007" class="edge">
<title>Node5&#45;&gt;Node7</title>
<g id="a_edge6_Node000005_Node000007"><a xlink:title=" ">
<path fill="none" stroke="#63b8ff" d="M479.1,-207.77C484.02,-209.26 488.87,-210.88 493.5,-212.62 510.43,-219.01 512.57,-225.25 529.5,-231.62 537.55,-234.66 546.27,-237.3 554.83,-239.55"/>
<polygon fill="#63b8ff" stroke="#63b8ff" points="480.32,-204.48 469.75,-205.13 478.42,-211.22 480.32,-204.48"/>
</a>
</g>
</g>
<!-- Node8 -->
<g id="Node000008" class="node">
<title>Node8</title>
<g id="a_Node000008"><a xlink:href="classllvm_1_1HexagonMCELFStreamer.html" target="_top" xlink:title=" ">
<polygon fill="white" stroke="#666666" points="682,-222.25 529.5,-222.25 529.5,-203 682,-203 682,-222.25"/>
<text xml:space="preserve" text-anchor="middle" x="605.75" y="-208.75" font-family="Helvetica,sans-Serif" font-size="10.00">llvm::HexagonMCELFStreamer</text>
</a>
</g>
</g>
<!-- Node5&#45;&gt;Node8 -->
<g id="edge7_Node000005_Node000008" class="edge">
<title>Node5&#45;&gt;Node8</title>
<g id="a_edge7_Node000005_Node000008"><a xlink:title=" ">
<path fill="none" stroke="#63b8ff" d="M485.8,-201.12C499.87,-202.48 514.81,-203.93 529.16,-205.32"/>
<polygon fill="#63b8ff" stroke="#63b8ff" points="486.52,-197.67 476.23,-200.2 485.84,-204.64 486.52,-197.67"/>
</a>
</g>
</g>
<!-- Node9 -->
<g id="Node000009" class="node">
<title>Node9</title>
<g id="a_Node000009"><a xlink:href="classllvm_1_1MipsELFStreamer.html" target="_top" xlink:title=" ">
<polygon fill="white" stroke="#666666" points="665.12,-185.25 546.38,-185.25 546.38,-166 665.12,-166 665.12,-185.25"/>
<text xml:space="preserve" text-anchor="middle" x="605.75" y="-171.75" font-family="Helvetica,sans-Serif" font-size="10.00">llvm::MipsELFStreamer</text>
</a>
</g>
</g>
<!-- Node5&#45;&gt;Node9 -->
<g id="edge8_Node000005_Node000009" class="edge">
<title>Node5&#45;&gt;Node9</title>
<g id="a_edge8_Node000005_Node000009"><a xlink:title=" ">
<path fill="none" stroke="#63b8ff" d="M486.09,-187.74C505.77,-185.73 527.1,-183.55 546.19,-181.6"/>
<polygon fill="#63b8ff" stroke="#63b8ff" points="485.82,-184.25 476.23,-188.74 486.53,-191.21 485.82,-184.25"/>
</a>
</g>
</g>
<!-- Node10 -->
<g id="Node000010" class="node">
<title>Node10</title>
<g id="a_Node000010"><a xlink:href="classllvm_1_1PPCELFStreamer.html" target="_top" xlink:title=" ">
<polygon fill="white" stroke="#666666" points="665.12,-148.25 546.38,-148.25 546.38,-129 665.12,-129 665.12,-148.25"/>
<text xml:space="preserve" text-anchor="middle" x="605.75" y="-134.75" font-family="Helvetica,sans-Serif" font-size="10.00">llvm::PPCELFStreamer</text>
</a>
</g>
</g>
<!-- Node5&#45;&gt;Node10 -->
<g id="edge9_Node000005_Node000010" class="edge">
<title>Node5&#45;&gt;Node10</title>
<g id="a_edge9_Node000005_Node000010"><a xlink:title=" ">
<path fill="none" stroke="#63b8ff" d="M479.76,-181.39C484.46,-179.93 489.09,-178.34 493.5,-176.62 510.55,-169.98 512.44,-163.26 529.5,-156.62 537.39,-153.56 545.95,-150.91 554.38,-148.66"/>
<polygon fill="#63b8ff" stroke="#63b8ff" points="478.84,-178.02 470.2,-184.15 480.78,-184.74 478.84,-178.02"/>
</a>
</g>
</g>
<!-- Node11 -->
<g id="Node000011" class="node">
<title>Node11</title>
<g id="a_Node000011"><a xlink:href="classllvm_1_1RISCVELFStreamer.html" target="_top" xlink:title=" ">
<polygon fill="white" stroke="#666666" points="670.38,-111.25 541.12,-111.25 541.12,-92 670.38,-92 670.38,-111.25"/>
<text xml:space="preserve" text-anchor="middle" x="605.75" y="-97.75" font-family="Helvetica,sans-Serif" font-size="10.00">llvm::RISCVELFStreamer</text>
</a>
</g>
</g>
<!-- Node5&#45;&gt;Node11 -->
<g id="edge10_Node000005_Node000011" class="edge">
<title>Node5&#45;&gt;Node11</title>
<g id="a_edge10_Node000005_Node000011"><a xlink:title=" ">
<path fill="none" stroke="#63b8ff" d="M485.09,-181.74C488.03,-180.22 490.85,-178.52 493.5,-176.62 517.86,-159.17 505.13,-137.06 529.5,-119.62 533.98,-116.42 538.95,-113.78 544.15,-111.61"/>
<polygon fill="#63b8ff" stroke="#63b8ff" points="483.88,-178.45 476.11,-185.66 486.67,-184.87 483.88,-178.45"/>
</a>
</g>
</g>
<!-- Node17 -->
<g id="Node000017" class="node">
<title>Node17</title>
<g id="a_Node000017"><a xlink:href="classllvm_1_1PPCXCOFFStreamer.html" target="_top" xlink:title=" ">
<polygon fill="white" stroke="#666666" points="673,-19.25 538.5,-19.25 538.5,0 673,0 673,-19.25"/>
<text xml:space="preserve" text-anchor="middle" x="605.75" y="-5.75" font-family="Helvetica,sans-Serif" font-size="10.00">llvm::PPCXCOFFStreamer</text>
</a>
</g>
</g>
<!-- Node16&#45;&gt;Node17 -->
<g id="edge16_Node000016_Node000017" class="edge">
<title>Node16&#45;&gt;Node17</title>
<g id="a_edge16_Node000016_Node000017"><a xlink:title=" ">
<path fill="none" stroke="#63b8ff" d="M494.17,-9.62C508.7,-9.62 523.82,-9.62 538.04,-9.62"/>
<polygon fill="#63b8ff" stroke="#63b8ff" points="494.19,-6.13 484.19,-9.63 494.19,-13.13 494.19,-6.13"/>
</a>
</g>
</g>
</g>
</svg>
