<?xml version="1.0" encoding="UTF-8" standalone="no"?>
<!DOCTYPE svg PUBLIC "-//W3C//DTD SVG 1.1//EN"
 "http://www.w3.org/Graphics/SVG/1.1/DTD/svg11.dtd">
<!-- Generated by graphviz version 14.1.3 (20260303.0454)
 -->
<!-- Title: llvm::DISubrange Pages: 1 -->
<svg width="100pt" height="193pt"
 viewBox="0.00 0.00 100.00 193.00" xmlns="http://www.w3.org/2000/svg" xmlns:xlink="http://www.w3.org/1999/xlink">
<g id="graph0" class="graph" transform="scale(1 1) rotate(0) translate(4 189)">
<title>llvm::DISubrange</title>
<!-- Node1 -->
<g id="Node000001" class="node">
<title>Node1</title>
<g id="a_Node000001"><a xlink:title="Array subrange.">
<polygon fill="#999999" stroke="#666666" points="91.75,-19.25 0,-19.25 0,0 91.75,0 91.75,-19.25"/>
<text xml:space="preserve" text-anchor="middle" x="45.88" y="-5.75" font-family="Helvetica,sans-Serif" font-size="10.00">llvm::DISubrange</text>
</a>
</g>
</g>
<!-- Node2 -->
<g id="Node000002" class="node">
<title>Node2</title>
<g id="a_Node000002"><a xlink:href="classllvm_1_1DINode.html" target="_top" xlink:title="Tagged DWARF&#45;like metadata node.">
<polygon fill="white" stroke="#666666" points="82.75,-74.5 9,-74.5 9,-55.25 82.75,-55.25 82.75,-74.5"/>
<text xml:space="preserve" text-anchor="middle" x="45.88" y="-61" font-family="Helvetica,sans-Serif" font-size="10.00">llvm::DINode</text>
</a>
</g>
</g>
<!-- Node2&#45;&gt;Node1 -->
<g id="edge1_Node000001_Node000002" class="edge">
<title>Node2&#45;&gt;Node1</title>
<g id="a_edge1_Node000001_Node000002"><a xlink:title=" ">
<path fill="none" stroke="#63b8ff" d="M45.88,-43.63C45.88,-35.34 45.88,-26.17 45.88,-19.61"/>
<polygon fill="#63b8ff" stroke="#63b8ff" points="42.38,-43.57 45.88,-53.57 49.38,-43.57 42.38,-43.57"/>
</a>
</g>
</g>
<!-- Node3 -->
<g id="Node000003" class="node">
<title>Node3</title>
<g id="a_Node000003"><a xlink:href="classllvm_1_1MDNode.html" target="_top" xlink:title="Metadata node.">
<polygon fill="white" stroke="#666666" points="85.38,-129.75 6.38,-129.75 6.38,-110.5 85.38,-110.5 85.38,-129.75"/>
<text xml:space="preserve" text-anchor="middle" x="45.88" y="-116.25" font-family="Helvetica,sans-Serif" font-size="10.00">llvm::MDNode</text>
</a>
</g>
</g>
<!-- Node3&#45;&gt;Node2 -->
<g id="edge2_Node000002_Node000003" class="edge">
<title>Node3&#45;&gt;Node2</title>
<g id="a_edge2_Node000002_Node000003"><a xlink:title=" ">
<path fill="none" stroke="#63b8ff" d="M45.88,-98.88C45.88,-90.59 45.88,-81.42 45.88,-74.86"/>
<polygon fill="#63b8ff" stroke="#63b8ff" points="42.38,-98.82 45.88,-108.82 49.38,-98.82 42.38,-98.82"/>
</a>
</g>
</g>
<!-- Node4 -->
<g id="Node000004" class="node">
<title>Node4</title>
<g id="a_Node000004"><a xlink:href="classllvm_1_1Metadata.html" target="_top" xlink:title="Root of the metadata hierarchy.">
<polygon fill="white" stroke="#666666" points="86.12,-185 5.62,-185 5.62,-165.75 86.12,-165.75 86.12,-185"/>
<text xml:space="preserve" text-anchor="middle" x="45.88" y="-171.5" font-family="Helvetica,sans-Serif" font-size="10.00">llvm::Metadata</text>
</a>
</g>
</g>
<!-- Node4&#45;&gt;Node3 -->
<g id="edge3_Node000003_Node000004" class="edge">
<title>Node4&#45;&gt;Node3</title>
<g id="a_edge3_Node000003_Node000004"><a xlink:title=" ">
<path fill="none" stroke="#63b8ff" d="M45.88,-154.13C45.88,-145.84 45.88,-136.67 45.88,-130.11"/>
<polygon fill="#63b8ff" stroke="#63b8ff" points="42.38,-154.07 45.88,-164.07 49.38,-154.07 42.38,-154.07"/>
</a>
</g>
</g>
</g>
</svg>
