<?xml version="1.0" encoding="UTF-8" standalone="no"?>
<!DOCTYPE svg PUBLIC "-//W3C//DTD SVG 1.1//EN"
 "http://www.w3.org/Graphics/SVG/1.1/DTD/svg11.dtd">
<!-- Generated by graphviz version 14.1.3 (20260303.0454)
 -->
<!-- Title: llvm::GISelObserverWrapper Pages: 1 -->
<svg width="278pt" height="94pt"
 viewBox="0.00 0.00 278.00 94.00" xmlns="http://www.w3.org/2000/svg" xmlns:xlink="http://www.w3.org/1999/xlink">
<g id="graph0" class="graph" transform="scale(1 1) rotate(0) translate(4 89.75)">
<title>llvm::GISelObserverWrapper</title>
<!-- Node1 -->
<g id="Node000001" class="node">
<title>Node1</title>
<g id="a_Node000001"><a xlink:title="Simple wrapper observer that takes several observers, and calls each one for each event.">
<polygon fill="#999999" stroke="#666666" points="199.38,-19.25 58.88,-19.25 58.88,0 199.38,0 199.38,-19.25"/>
<text xml:space="preserve" text-anchor="middle" x="129.12" y="-5.75" font-family="Helvetica,sans-Serif" font-size="10.00">llvm::GISelObserverWrapper</text>
</a>
</g>
</g>
<!-- Node2 -->
<g id="Node000002" class="node">
<title>Node2</title>
<g id="a_Node000002"><a xlink:href="classllvm_1_1MachineFunction_1_1Delegate.html" target="_top" xlink:title=" ">
<polygon fill="white" stroke="#666666" points="114.25,-85.75 0,-85.75 0,-55.25 114.25,-55.25 114.25,-85.75"/>
<text xml:space="preserve" text-anchor="start" x="8" y="-72.25" font-family="Helvetica,sans-Serif" font-size="10.00">llvm::MachineFunction</text>
<text xml:space="preserve" text-anchor="middle" x="57.12" y="-61" font-family="Helvetica,sans-Serif" font-size="10.00">::Delegate</text>
</a>
</g>
</g>
<!-- Node2&#45;&gt;Node1 -->
<g id="edge1_Node000001_Node000002" class="edge">
<title>Node2&#45;&gt;Node1</title>
<g id="a_edge1_Node000001_Node000002"><a xlink:title=" ">
<path fill="none" stroke="#63b8ff" d="M83.62,-47.83C95.5,-38.12 108.87,-27.19 118.03,-19.7"/>
<polygon fill="#63b8ff" stroke="#63b8ff" points="81.62,-44.95 76.09,-53.99 86.05,-50.37 81.62,-44.95"/>
</a>
</g>
</g>
<!-- Node3 -->
<g id="Node000003" class="node">
<title>Node3</title>
<g id="a_Node000003"><a xlink:href="classllvm_1_1GISelChangeObserver.html" target="_top" xlink:title="Abstract class that contains various methods for clients to notify about changes.">
<polygon fill="white" stroke="#666666" points="270.25,-80.12 132,-80.12 132,-60.88 270.25,-60.88 270.25,-80.12"/>
<text xml:space="preserve" text-anchor="middle" x="201.12" y="-66.62" font-family="Helvetica,sans-Serif" font-size="10.00">llvm::GISelChangeObserver</text>
</a>
</g>
</g>
<!-- Node3&#45;&gt;Node1 -->
<g id="edge2_Node000001_Node000003" class="edge">
<title>Node3&#45;&gt;Node1</title>
<g id="a_edge2_Node000001_Node000003"><a xlink:title=" ">
<path fill="none" stroke="#63b8ff" d="M181.33,-53.31C168.06,-42.46 151.09,-28.59 140.16,-19.65"/>
<polygon fill="#63b8ff" stroke="#63b8ff" points="179.06,-55.98 189.02,-59.6 183.49,-50.56 179.06,-55.98"/>
</a>
</g>
</g>
</g>
</svg>
