<?xml version="1.0" encoding="UTF-8" standalone="no"?>
<!DOCTYPE svg PUBLIC "-//W3C//DTD SVG 1.1//EN"
 "http://www.w3.org/Graphics/SVG/1.1/DTD/svg11.dtd">
<!-- Generated by graphviz version 14.1.3 (20260303.0454)
 -->
<!-- Title: llvm::X86MCAsmInfoMicrosoftMASM Pages: 1 -->
<svg width="188pt" height="248pt"
 viewBox="0.00 0.00 188.00 248.00" xmlns="http://www.w3.org/2000/svg" xmlns:xlink="http://www.w3.org/1999/xlink">
<g id="graph0" class="graph" transform="scale(1 1) rotate(0) translate(4 244.25)">
<title>llvm::X86MCAsmInfoMicrosoftMASM</title>
<!-- Node1 -->
<g id="Node000001" class="node">
<title>Node1</title>
<g id="a_Node000001"><a xlink:title=" ">
<polygon fill="#999999" stroke="#666666" points="180.25,-19.25 0,-19.25 0,0 180.25,0 180.25,-19.25"/>
<text xml:space="preserve" text-anchor="middle" x="90.12" y="-5.75" font-family="Helvetica,sans-Serif" font-size="10.00">llvm::X86MCAsmInfoMicrosoftMASM</text>
</a>
</g>
</g>
<!-- Node2 -->
<g id="Node000002" class="node">
<title>Node2</title>
<g id="a_Node000002"><a xlink:href="classllvm_1_1X86MCAsmInfoMicrosoft.html" target="_top" xlink:title=" ">
<polygon fill="white" stroke="#666666" points="165.25,-74.5 15,-74.5 15,-55.25 165.25,-55.25 165.25,-74.5"/>
<text xml:space="preserve" text-anchor="middle" x="90.12" y="-61" font-family="Helvetica,sans-Serif" font-size="10.00">llvm::X86MCAsmInfoMicrosoft</text>
</a>
</g>
</g>
<!-- Node2&#45;&gt;Node1 -->
<g id="edge1_Node000001_Node000002" class="edge">
<title>Node2&#45;&gt;Node1</title>
<g id="a_edge1_Node000001_Node000002"><a xlink:title=" ">
<path fill="none" stroke="#63b8ff" d="M90.12,-43.63C90.12,-35.34 90.12,-26.17 90.12,-19.61"/>
<polygon fill="#63b8ff" stroke="#63b8ff" points="86.63,-43.57 90.13,-53.57 93.63,-43.57 86.63,-43.57"/>
</a>
</g>
</g>
<!-- Node3 -->
<g id="Node000003" class="node">
<title>Node3</title>
<g id="a_Node000003"><a xlink:href="classllvm_1_1MCAsmInfoMicrosoft.html" target="_top" xlink:title=" ">
<polygon fill="white" stroke="#666666" points="156.62,-129.75 23.62,-129.75 23.62,-110.5 156.62,-110.5 156.62,-129.75"/>
<text xml:space="preserve" text-anchor="middle" x="90.12" y="-116.25" font-family="Helvetica,sans-Serif" font-size="10.00">llvm::MCAsmInfoMicrosoft</text>
</a>
</g>
</g>
<!-- Node3&#45;&gt;Node2 -->
<g id="edge2_Node000002_Node000003" class="edge">
<title>Node3&#45;&gt;Node2</title>
<g id="a_edge2_Node000002_Node000003"><a xlink:title=" ">
<path fill="none" stroke="#63b8ff" d="M90.12,-98.88C90.12,-90.59 90.12,-81.42 90.12,-74.86"/>
<polygon fill="#63b8ff" stroke="#63b8ff" points="86.63,-98.82 90.13,-108.82 93.63,-98.82 86.63,-98.82"/>
</a>
</g>
</g>
<!-- Node4 -->
<g id="Node000004" class="node">
<title>Node4</title>
<g id="a_Node000004"><a xlink:href="classllvm_1_1MCAsmInfoCOFF.html" target="_top" xlink:title=" ">
<polygon fill="white" stroke="#666666" points="149.88,-185 30.38,-185 30.38,-165.75 149.88,-165.75 149.88,-185"/>
<text xml:space="preserve" text-anchor="middle" x="90.12" y="-171.5" font-family="Helvetica,sans-Serif" font-size="10.00">llvm::MCAsmInfoCOFF</text>
</a>
</g>
</g>
<!-- Node4&#45;&gt;Node3 -->
<g id="edge3_Node000003_Node000004" class="edge">
<title>Node4&#45;&gt;Node3</title>
<g id="a_edge3_Node000003_Node000004"><a xlink:title=" ">
<path fill="none" stroke="#63b8ff" d="M90.12,-154.13C90.12,-145.84 90.12,-136.67 90.12,-130.11"/>
<polygon fill="#63b8ff" stroke="#63b8ff" points="86.63,-154.07 90.13,-164.07 93.63,-154.07 86.63,-154.07"/>
</a>
</g>
</g>
<!-- Node5 -->
<g id="Node000005" class="node">
<title>Node5</title>
<g id="a_Node000005"><a xlink:href="classllvm_1_1MCAsmInfo.html" target="_top" xlink:title="This class is intended to be used as a base class for asm properties and features specific to the tar...">
<polygon fill="white" stroke="#666666" points="136.38,-240.25 43.88,-240.25 43.88,-221 136.38,-221 136.38,-240.25"/>
<text xml:space="preserve" text-anchor="middle" x="90.12" y="-226.75" font-family="Helvetica,sans-Serif" font-size="10.00">llvm::MCAsmInfo</text>
</a>
</g>
</g>
<!-- Node5&#45;&gt;Node4 -->
<g id="edge4_Node000004_Node000005" class="edge">
<title>Node5&#45;&gt;Node4</title>
<g id="a_edge4_Node000004_Node000005"><a xlink:title=" ">
<path fill="none" stroke="#63b8ff" d="M90.12,-209.38C90.12,-201.09 90.12,-191.92 90.12,-185.36"/>
<polygon fill="#63b8ff" stroke="#63b8ff" points="86.63,-209.32 90.13,-219.32 93.63,-209.32 86.63,-209.32"/>
</a>
</g>
</g>
</g>
</svg>
