<?xml version="1.0" encoding="UTF-8" standalone="no"?>
<!DOCTYPE svg PUBLIC "-//W3C//DTD SVG 1.1//EN"
 "http://www.w3.org/Graphics/SVG/1.1/DTD/svg11.dtd">
<!-- Generated by graphviz version 14.1.3 (20260303.0454)
 -->
<!-- Title: llvm::InstVisitor&lt; SubClass, RetTy &gt; Pages: 1 -->
<svg width="1040pt" height="966pt"
 viewBox="0.00 0.00 1040.00 966.00" xmlns="http://www.w3.org/2000/svg" xmlns:xlink="http://www.w3.org/1999/xlink">
<g id="graph0" class="graph" transform="scale(1 1) rotate(0) translate(4 962.11)">
<title>llvm::InstVisitor&lt; SubClass, RetTy &gt;</title>
<!-- Node1 -->
<g id="Node000001" class="node">
<title>Node1</title>
<g id="a_Node000001"><a xlink:title="Base class for instruction visitors.">
<polygon fill="#999999" stroke="#666666" points="103,-471.13 0,-471.13 0,-440.63 103,-440.63 103,-471.13"/>
<text xml:space="preserve" text-anchor="start" x="8" y="-457.63" font-family="Helvetica,sans-Serif" font-size="10.00">llvm::InstVisitor&lt;</text>
<text xml:space="preserve" text-anchor="middle" x="51.5" y="-446.38" font-family="Helvetica,sans-Serif" font-size="10.00"> SubClass, RetTy &gt;</text>
</a>
</g>
</g>
<!-- Node2 -->
<g id="Node000002" class="node">
<title>Node2</title>
<g id="a_Node000002"><a xlink:href="classllvm_1_1PtrUseVisitor.html" target="_top" xlink:title=" ">
<polygon fill="white" stroke="#666666" points="866,-909.13 763,-909.13 763,-878.63 866,-878.63 866,-909.13"/>
<text xml:space="preserve" text-anchor="start" x="771" y="-895.63" font-family="Helvetica,sans-Serif" font-size="10.00">llvm::PtrUseVisitor</text>
<text xml:space="preserve" text-anchor="middle" x="814.5" y="-884.38" font-family="Helvetica,sans-Serif" font-size="10.00">&lt; ArgUseChecker &gt;</text>
</a>
</g>
</g>
<!-- Node1&#45;&gt;Node2 -->
<g id="edge1_Node000001_Node000002" class="edge">
<title>Node1&#45;&gt;Node2</title>
<g id="a_edge1_Node000001_Node000002"><a xlink:title=" ">
<path fill="none" stroke="darkgreen" d="M53.04,-482.46C55.27,-563.1 66.45,-802.62 121,-852.88 302.58,-1020.18 637.41,-945.83 763.62,-909.57"/>
<polygon fill="darkgreen" stroke="darkgreen" points="56.55,-482.76 52.8,-472.85 49.55,-482.94 56.55,-482.76"/>
</a>
</g>
</g>
<!-- Node3 -->
<g id="Node000003" class="node">
<title>Node3</title>
<g id="a_Node000003"><a xlink:href="classllvm_1_1PtrUseVisitor.html" target="_top" xlink:title=" ">
<polygon fill="white" stroke="#666666" points="867.5,-847.13 761.5,-847.13 761.5,-816.63 867.5,-816.63 867.5,-847.13"/>
<text xml:space="preserve" text-anchor="start" x="769.5" y="-833.63" font-family="Helvetica,sans-Serif" font-size="10.00">llvm::PtrUseVisitor</text>
<text xml:space="preserve" text-anchor="middle" x="814.5" y="-822.38" font-family="Helvetica,sans-Serif" font-size="10.00">&lt; AllocaUseVisitor &gt;</text>
</a>
</g>
</g>
<!-- Node1&#45;&gt;Node3 -->
<g id="edge2_Node000001_Node000003" class="edge">
<title>Node1&#45;&gt;Node3</title>
<g id="a_edge2_Node000001_Node000003"><a xlink:title=" ">
<path fill="none" stroke="darkgreen" d="M55.06,-482.57C61.78,-546.43 82.11,-705.27 121,-738.88 225.93,-829.58 612.44,-738.49 743.5,-783.88 763.55,-790.83 783.19,-805.15 796.54,-816.35"/>
<polygon fill="darkgreen" stroke="darkgreen" points="58.58,-482.56 54.09,-472.97 51.62,-483.27 58.58,-482.56"/>
</a>
</g>
</g>
<!-- Node4 -->
<g id="Node000004" class="node">
<title>Node4</title>
<g id="a_Node000004"><a xlink:href="classllvm_1_1PtrUseVisitor.html" target="_top" xlink:title=" ">
<polygon fill="white" stroke="#666666" points="863.75,-772.13 765.25,-772.13 765.25,-741.63 863.75,-741.63 863.75,-772.13"/>
<text xml:space="preserve" text-anchor="start" x="773.25" y="-758.63" font-family="Helvetica,sans-Serif" font-size="10.00">llvm::PtrUseVisitor</text>
<text xml:space="preserve" text-anchor="middle" x="814.5" y="-747.38" font-family="Helvetica,sans-Serif" font-size="10.00">&lt; SliceBuilder &gt;</text>
</a>
</g>
</g>
<!-- Node1&#45;&gt;Node4 -->
<g id="edge3_Node000001_Node000004" class="edge">
<title>Node1&#45;&gt;Node4</title>
<g id="a_edge3_Node000001_Node000004"><a xlink:title=" ">
<path fill="none" stroke="darkgreen" d="M55.58,-482.49C63.15,-542.63 84.68,-686.14 121,-715.88 145.88,-736.26 611.46,-751.18 764.9,-755.56"/>
<polygon fill="darkgreen" stroke="darkgreen" points="59.09,-482.31 54.4,-472.81 52.14,-483.16 59.09,-482.31"/>
</a>
</g>
</g>
<!-- Node6 -->
<g id="Node000006" class="node">
<title>Node6</title>
<g id="a_Node000006"><a xlink:href="classllvm_1_1InstVisitor.html" target="_top" xlink:title=" ">
<polygon fill="white" stroke="#666666" points="410.38,-703.76 298.38,-703.76 298.38,-662.01 410.38,-662.01 410.38,-703.76"/>
<text xml:space="preserve" text-anchor="start" x="306.38" y="-690.26" font-family="Helvetica,sans-Serif" font-size="10.00">llvm::InstVisitor&lt;</text>
<text xml:space="preserve" text-anchor="start" x="306.38" y="-679.01" font-family="Helvetica,sans-Serif" font-size="10.00"> UnrolledInstAnalyzer,</text>
<text xml:space="preserve" text-anchor="middle" x="354.38" y="-667.76" font-family="Helvetica,sans-Serif" font-size="10.00"> bool &gt;</text>
</a>
</g>
</g>
<!-- Node1&#45;&gt;Node6 -->
<g id="edge5_Node000001_Node000006" class="edge">
<title>Node1&#45;&gt;Node6</title>
<g id="a_edge5_Node000001_Node000006"><a xlink:title=" ">
<path fill="none" stroke="orange" stroke-dasharray="5,2" d="M53.53,-483.04C56.74,-525.97 69.66,-608.94 121,-650.88 147.3,-672.36 237.93,-679.44 297.93,-681.76"/>
<polygon fill="orange" stroke="orange" points="57.03,-482.85 52.93,-473.08 50.04,-483.28 57.03,-482.85"/>
</a>
</g>
<text xml:space="preserve" text-anchor="start" x="136.75" y="-700.5" font-family="Helvetica,sans-Serif" font-size="10.00" fill="grey">&lt; UnrolledInstAnalyzer,</text>
<text xml:space="preserve" text-anchor="start" x="136.75" y="-685.25" font-family="Helvetica,sans-Serif" font-size="10.00" fill="grey">   bool &gt;</text>
</g>
<!-- Node8 -->
<g id="Node000008" class="node">
<title>Node8</title>
<g id="a_Node000008"><a xlink:href="classllvm_1_1InstVisitor.html" target="_top" xlink:title=" ">
<polygon fill="white" stroke="#666666" points="399.5,-841.13 309.25,-841.13 309.25,-810.63 399.5,-810.63 399.5,-841.13"/>
<text xml:space="preserve" text-anchor="start" x="317.25" y="-827.63" font-family="Helvetica,sans-Serif" font-size="10.00">llvm::InstVisitor&lt;</text>
<text xml:space="preserve" text-anchor="middle" x="354.38" y="-816.38" font-family="Helvetica,sans-Serif" font-size="10.00"> DerivedT &gt;</text>
</a>
</g>
</g>
<!-- Node1&#45;&gt;Node8 -->
<g id="edge7_Node000001_Node000008" class="edge">
<title>Node1&#45;&gt;Node8</title>
<g id="a_edge7_Node000001_Node000008"><a xlink:title=" ">
<path fill="none" stroke="orange" stroke-dasharray="5,2" d="M54.32,-482.65C59.68,-553.23 77.84,-741.88 121,-783.88 170.8,-832.35 256.52,-835.05 308.77,-831.34"/>
<polygon fill="orange" stroke="orange" points="57.82,-482.5 53.6,-472.78 50.84,-483.01 57.82,-482.5"/>
</a>
</g>
<text xml:space="preserve" text-anchor="start" x="158.88" y="-837.82" font-family="Helvetica,sans-Serif" font-size="10.00" fill="grey">&lt; DerivedT &gt;</text>
</g>
<!-- Node10 -->
<g id="Node000010" class="node">
<title>Node10</title>
<g id="a_Node000010"><a xlink:href="classllvm_1_1InstVisitor.html" target="_top" xlink:title=" ">
<polygon fill="white" stroke="#666666" points="407.75,-644.13 301,-644.13 301,-613.63 407.75,-613.63 407.75,-644.13"/>
<text xml:space="preserve" text-anchor="start" x="309" y="-630.63" font-family="Helvetica,sans-Serif" font-size="10.00">llvm::InstVisitor&lt;</text>
<text xml:space="preserve" text-anchor="middle" x="354.38" y="-619.38" font-family="Helvetica,sans-Serif" font-size="10.00"> CallAnalyzer, bool &gt;</text>
</a>
</g>
</g>
<!-- Node1&#45;&gt;Node10 -->
<g id="edge12_Node000001_Node000010" class="edge">
<title>Node1&#45;&gt;Node10</title>
<g id="a_edge12_Node000001_Node000010"><a xlink:title=" ">
<path fill="none" stroke="orange" stroke-dasharray="5,2" d="M56.38,-482.68C62.97,-517.58 79.91,-577.57 121,-606.88 148.88,-626.77 241.22,-629.99 300.76,-629.88"/>
<polygon fill="orange" stroke="orange" points="59.85,-482.23 54.71,-472.97 52.95,-483.42 59.85,-482.23"/>
</a>
</g>
<text xml:space="preserve" text-anchor="start" x="139.38" y="-635.18" font-family="Helvetica,sans-Serif" font-size="10.00" fill="grey">&lt; CallAnalyzer, bool &gt;</text>
</g>
<!-- Node11 -->
<g id="Node000011" class="node">
<title>Node11</title>
<g id="a_Node000011"><a xlink:href="classllvm_1_1InstVisitor.html" target="_top" xlink:title=" ">
<polygon fill="white" stroke="#666666" points="407.38,-595.76 301.38,-595.76 301.38,-554.01 407.38,-554.01 407.38,-595.76"/>
<text xml:space="preserve" text-anchor="start" x="309.38" y="-582.26" font-family="Helvetica,sans-Serif" font-size="10.00">llvm::InstVisitor&lt;</text>
<text xml:space="preserve" text-anchor="start" x="309.38" y="-571.01" font-family="Helvetica,sans-Serif" font-size="10.00"> AllocaSliceRewriter,</text>
<text xml:space="preserve" text-anchor="middle" x="354.38" y="-559.76" font-family="Helvetica,sans-Serif" font-size="10.00"> bool &gt;</text>
</a>
</g>
</g>
<!-- Node1&#45;&gt;Node11 -->
<g id="edge13_Node000001_Node000011" class="edge">
<title>Node1&#45;&gt;Node11</title>
<g id="a_edge13_Node000001_Node000011"><a xlink:title=" ">
<path fill="none" stroke="orange" stroke-dasharray="5,2" d="M64.1,-481.79C75.34,-503.6 94.56,-533.61 121,-548.88 150.66,-566.01 242.19,-571.86 301.13,-573.85"/>
<polygon fill="orange" stroke="orange" points="67.29,-480.36 59.76,-472.91 61.01,-483.43 67.29,-480.36"/>
</a>
</g>
<text xml:space="preserve" text-anchor="start" x="139.75" y="-592.88" font-family="Helvetica,sans-Serif" font-size="10.00" fill="grey">&lt; AllocaSliceRewriter,</text>
<text xml:space="preserve" text-anchor="start" x="139.75" y="-577.63" font-family="Helvetica,sans-Serif" font-size="10.00" fill="grey">   bool &gt;</text>
</g>
<!-- Node12 -->
<g id="Node000012" class="node">
<title>Node12</title>
<g id="a_Node000012"><a xlink:href="classllvm_1_1InstVisitor.html" target="_top" xlink:title=" ">
<polygon fill="white" stroke="#666666" points="411.12,-535.76 297.62,-535.76 297.62,-494.01 411.12,-494.01 411.12,-535.76"/>
<text xml:space="preserve" text-anchor="start" x="305.62" y="-522.26" font-family="Helvetica,sans-Serif" font-size="10.00">llvm::InstVisitor&lt;</text>
<text xml:space="preserve" text-anchor="start" x="305.62" y="-511.01" font-family="Helvetica,sans-Serif" font-size="10.00"> DataScalarizerVisitor,</text>
<text xml:space="preserve" text-anchor="middle" x="354.38" y="-499.76" font-family="Helvetica,sans-Serif" font-size="10.00"> bool &gt;</text>
</a>
</g>
</g>
<!-- Node1&#45;&gt;Node12 -->
<g id="edge14_Node000001_Node000012" class="edge">
<title>Node1&#45;&gt;Node12</title>
<g id="a_edge14_Node000001_Node000012"><a xlink:title=" ">
<path fill="none" stroke="orange" stroke-dasharray="5,2" d="M87.55,-476.92C97.98,-482.31 109.67,-487.53 121,-490.88 179.53,-508.2 249.55,-513.45 297.33,-514.84"/>
<polygon fill="orange" stroke="orange" points="89.37,-473.93 78.91,-472.25 86.04,-480.09 89.37,-473.93"/>
</a>
</g>
<text xml:space="preserve" text-anchor="start" x="136" y="-533.76" font-family="Helvetica,sans-Serif" font-size="10.00" fill="grey">&lt; DataScalarizerVisitor,</text>
<text xml:space="preserve" text-anchor="start" x="136" y="-518.51" font-family="Helvetica,sans-Serif" font-size="10.00" fill="grey">   bool &gt;</text>
</g>
<!-- Node14 -->
<g id="Node000014" class="node">
<title>Node14</title>
<g id="a_Node000014"><a xlink:href="classllvm_1_1InstVisitor.html" target="_top" xlink:title=" ">
<polygon fill="white" stroke="#666666" points="405.5,-475.76 303.25,-475.76 303.25,-434.01 405.5,-434.01 405.5,-475.76"/>
<text xml:space="preserve" text-anchor="start" x="311.25" y="-462.26" font-family="Helvetica,sans-Serif" font-size="10.00">llvm::InstVisitor&lt;</text>
<text xml:space="preserve" text-anchor="start" x="311.25" y="-451.01" font-family="Helvetica,sans-Serif" font-size="10.00"> InstructionAllowed,</text>
<text xml:space="preserve" text-anchor="middle" x="354.38" y="-439.76" font-family="Helvetica,sans-Serif" font-size="10.00"> bool &gt;</text>
</a>
</g>
</g>
<!-- Node1&#45;&gt;Node14 -->
<g id="edge16_Node000001_Node000014" class="edge">
<title>Node1&#45;&gt;Node14</title>
<g id="a_edge16_Node000001_Node000014"><a xlink:title=" ">
<path fill="none" stroke="orange" stroke-dasharray="5,2" d="M114.69,-455.68C170.43,-455.49 251.17,-455.22 302.97,-455.05"/>
<polygon fill="orange" stroke="orange" points="114.7,-452.18 104.71,-455.71 114.72,-459.18 114.7,-452.18"/>
</a>
</g>
<text xml:space="preserve" text-anchor="start" x="141.62" y="-476.89" font-family="Helvetica,sans-Serif" font-size="10.00" fill="grey">&lt; InstructionAllowed,</text>
<text xml:space="preserve" text-anchor="start" x="141.62" y="-461.64" font-family="Helvetica,sans-Serif" font-size="10.00" fill="grey">   bool &gt;</text>
</g>
<!-- Node15 -->
<g id="Node000015" class="node">
<title>Node15</title>
<g id="a_Node000015"><a xlink:href="classllvm_1_1InstVisitor.html" target="_top" xlink:title=" ">
<polygon fill="white" stroke="#666666" points="417.88,-415.76 290.88,-415.76 290.88,-374.01 417.88,-374.01 417.88,-415.76"/>
<text xml:space="preserve" text-anchor="start" x="298.88" y="-402.26" font-family="Helvetica,sans-Serif" font-size="10.00">llvm::InstVisitor&lt;</text>
<text xml:space="preserve" text-anchor="start" x="298.88" y="-391.01" font-family="Helvetica,sans-Serif" font-size="10.00"> InstructionClassification,</text>
<text xml:space="preserve" text-anchor="middle" x="354.38" y="-379.76" font-family="Helvetica,sans-Serif" font-size="10.00"> InstrType &gt;</text>
</a>
</g>
</g>
<!-- Node1&#45;&gt;Node15 -->
<g id="edge17_Node000001_Node000015" class="edge">
<title>Node1&#45;&gt;Node15</title>
<g id="a_edge17_Node000001_Node000015"><a xlink:title=" ">
<path fill="none" stroke="orange" stroke-dasharray="5,2" d="M85.13,-434.56C96.11,-428.34 108.71,-422.2 121,-418.38 176.57,-401.14 242.86,-395.84 290.39,-394.52"/>
<polygon fill="orange" stroke="orange" points="83.67,-431.35 76.85,-439.46 87.24,-437.38 83.67,-431.35"/>
</a>
</g>
<text xml:space="preserve" text-anchor="start" x="129.25" y="-439.63" font-family="Helvetica,sans-Serif" font-size="10.00" fill="grey">&lt; InstructionClassification,</text>
<text xml:space="preserve" text-anchor="start" x="129.25" y="-424.38" font-family="Helvetica,sans-Serif" font-size="10.00" fill="grey">   InstrType &gt;</text>
</g>
<!-- Node17 -->
<g id="Node000017" class="node">
<title>Node17</title>
<g id="a_Node000017"><a xlink:href="classllvm_1_1InstVisitor.html" target="_top" xlink:title=" ">
<polygon fill="white" stroke="#666666" points="436.25,-356.13 272.5,-356.13 272.5,-325.63 436.25,-325.63 436.25,-356.13"/>
<text xml:space="preserve" text-anchor="start" x="280.5" y="-342.63" font-family="Helvetica,sans-Serif" font-size="10.00">llvm::InstVisitor&lt;</text>
<text xml:space="preserve" text-anchor="middle" x="354.38" y="-331.38" font-family="Helvetica,sans-Serif" font-size="10.00"> InstCombinerImpl, Instruction * &gt;</text>
</a>
</g>
</g>
<!-- Node1&#45;&gt;Node17 -->
<g id="edge19_Node000001_Node000017" class="edge">
<title>Node1&#45;&gt;Node17</title>
<g id="a_edge19_Node000001_Node000017"><a xlink:title=" ">
<path fill="none" stroke="orange" stroke-dasharray="5,2" d="M63.3,-430.17C74.26,-407.58 93.55,-375.96 121,-360.38 166.42,-334.61 225.07,-329.86 272.09,-331.49"/>
<polygon fill="orange" stroke="orange" points="60.21,-428.5 59.21,-439.05 66.57,-431.42 60.21,-428.5"/>
</a>
</g>
<text xml:space="preserve" text-anchor="start" x="143.12" y="-381.63" font-family="Helvetica,sans-Serif" font-size="10.00" fill="grey">&lt; InstCombinerImpl,</text>
<text xml:space="preserve" text-anchor="start" x="143.12" y="-366.38" font-family="Helvetica,sans-Serif" font-size="10.00" fill="grey">   Instruction * &gt;</text>
</g>
<!-- Node19 -->
<g id="Node000019" class="node">
<title>Node19</title>
<g id="a_Node000019"><a xlink:href="classllvm_1_1InstVisitor.html" target="_top" xlink:title=" ">
<polygon fill="white" stroke="#666666" points="426.88,-307.13 281.88,-307.13 281.88,-276.63 426.88,-276.63 426.88,-307.13"/>
<text xml:space="preserve" text-anchor="start" x="289.88" y="-293.63" font-family="Helvetica,sans-Serif" font-size="10.00">llvm::InstVisitor&lt;</text>
<text xml:space="preserve" text-anchor="middle" x="354.38" y="-282.38" font-family="Helvetica,sans-Serif" font-size="10.00"> InstCostVisitor, Constant * &gt;</text>
</a>
</g>
</g>
<!-- Node1&#45;&gt;Node19 -->
<g id="edge21_Node000001_Node000019" class="edge">
<title>Node1&#45;&gt;Node19</title>
<g id="a_edge21_Node000001_Node000019"><a xlink:title=" ">
<path fill="none" stroke="orange" stroke-dasharray="5,2" d="M55.06,-429.15C60.24,-391.68 75.68,-324.74 121,-294.38 172.45,-259.92 245.75,-265.88 296.19,-276.19"/>
<polygon fill="orange" stroke="orange" points="51.63,-428.34 53.9,-438.69 58.58,-429.19 51.63,-428.34"/>
</a>
</g>
<text xml:space="preserve" text-anchor="start" x="149.5" y="-315.63" font-family="Helvetica,sans-Serif" font-size="10.00" fill="grey">&lt; InstCostVisitor,</text>
<text xml:space="preserve" text-anchor="start" x="149.5" y="-300.38" font-family="Helvetica,sans-Serif" font-size="10.00" fill="grey">   Constant * &gt;</text>
</g>
<!-- Node21 -->
<g id="Node000021" class="node">
<title>Node21</title>
<g id="a_Node000021"><a xlink:href="classllvm_1_1InstVisitor.html" target="_top" xlink:title=" ">
<polygon fill="white" stroke="#666666" points="399.5,-258.13 309.25,-258.13 309.25,-227.63 399.5,-227.63 399.5,-258.13"/>
<text xml:space="preserve" text-anchor="start" x="317.25" y="-244.63" font-family="Helvetica,sans-Serif" font-size="10.00">llvm::InstVisitor&lt;</text>
<text xml:space="preserve" text-anchor="middle" x="354.38" y="-233.38" font-family="Helvetica,sans-Serif" font-size="10.00"> Interpreter &gt;</text>
</a>
</g>
</g>
<!-- Node1&#45;&gt;Node21 -->
<g id="edge23_Node000001_Node000021" class="edge">
<title>Node1&#45;&gt;Node21</title>
<g id="a_edge23_Node000001_Node000021"><a xlink:title=" ">
<path fill="none" stroke="orange" stroke-dasharray="5,2" d="M52.18,-428.98C53.26,-382.83 62.94,-289.44 121,-246.63 149.74,-225.44 249.82,-231.76 308.86,-237.68"/>
<polygon fill="orange" stroke="orange" points="48.68,-428.85 52.08,-438.89 55.68,-428.92 48.68,-428.85"/>
</a>
</g>
<text xml:space="preserve" text-anchor="start" x="156.62" y="-252.63" font-family="Helvetica,sans-Serif" font-size="10.00" fill="grey">&lt; Interpreter &gt;</text>
</g>
<!-- Node23 -->
<g id="Node000023" class="node">
<title>Node23</title>
<g id="a_Node000023"><a xlink:href="classllvm_1_1InstVisitor.html" target="_top" xlink:title=" ">
<polygon fill="white" stroke="#666666" points="423.12,-209.76 285.62,-209.76 285.62,-168.01 423.12,-168.01 423.12,-209.76"/>
<text xml:space="preserve" text-anchor="start" x="293.62" y="-196.26" font-family="Helvetica,sans-Serif" font-size="10.00">llvm::InstVisitor&lt;</text>
<text xml:space="preserve" text-anchor="start" x="293.62" y="-185.01" font-family="Helvetica,sans-Serif" font-size="10.00"> ObjectSizeOffsetEvaluator,</text>
<text xml:space="preserve" text-anchor="middle" x="354.38" y="-173.76" font-family="Helvetica,sans-Serif" font-size="10.00"> SizeOffsetValue &gt;</text>
</a>
</g>
</g>
<!-- Node1&#45;&gt;Node23 -->
<g id="edge25_Node000001_Node000023" class="edge">
<title>Node1&#45;&gt;Node23</title>
<g id="a_edge25_Node000001_Node000023"><a xlink:title=" ">
<path fill="none" stroke="orange" stroke-dasharray="5,2" d="M55.51,-429.15C62.92,-368.73 84.16,-224.62 121,-195.38 145.54,-175.91 225.78,-177.66 285.13,-182.06"/>
<polygon fill="orange" stroke="orange" points="52.06,-428.54 54.36,-438.88 59.01,-429.36 52.06,-428.54"/>
</a>
</g>
<text xml:space="preserve" text-anchor="start" x="124" y="-216.63" font-family="Helvetica,sans-Serif" font-size="10.00" fill="grey">&lt; ObjectSizeOffsetEvaluator,</text>
<text xml:space="preserve" text-anchor="start" x="124" y="-201.38" font-family="Helvetica,sans-Serif" font-size="10.00" fill="grey">   SizeOffsetValue &gt;</text>
</g>
<!-- Node25 -->
<g id="Node000025" class="node">
<title>Node25</title>
<g id="a_Node000025"><a xlink:href="classllvm_1_1InstVisitor.html" target="_top" xlink:title=" ">
<polygon fill="white" stroke="#666666" points="416.38,-149.76 292.38,-149.76 292.38,-108.01 416.38,-108.01 416.38,-149.76"/>
<text xml:space="preserve" text-anchor="start" x="300.38" y="-136.26" font-family="Helvetica,sans-Serif" font-size="10.00">llvm::InstVisitor&lt;</text>
<text xml:space="preserve" text-anchor="start" x="300.38" y="-125.01" font-family="Helvetica,sans-Serif" font-size="10.00"> ObjectSizeOffsetVisitor,</text>
<text xml:space="preserve" text-anchor="middle" x="354.38" y="-113.76" font-family="Helvetica,sans-Serif" font-size="10.00"> OffsetSpan &gt;</text>
</a>
</g>
</g>
<!-- Node1&#45;&gt;Node25 -->
<g id="edge27_Node000001_Node000025" class="edge">
<title>Node1&#45;&gt;Node25</title>
<g id="a_edge27_Node000001_Node000025"><a xlink:title=" ">
<path fill="none" stroke="orange" stroke-dasharray="5,2" d="M54.32,-429.07C59.58,-360.16 77.34,-179.67 121,-142.38 167.55,-102.62 240.39,-105.19 292.1,-113.92"/>
<polygon fill="orange" stroke="orange" points="50.85,-428.48 53.61,-438.71 57.83,-428.99 50.85,-428.48"/>
</a>
</g>
<text xml:space="preserve" text-anchor="start" x="130.75" y="-163.63" font-family="Helvetica,sans-Serif" font-size="10.00" fill="grey">&lt; ObjectSizeOffsetVisitor,</text>
<text xml:space="preserve" text-anchor="start" x="130.75" y="-148.38" font-family="Helvetica,sans-Serif" font-size="10.00" fill="grey">   OffsetSpan &gt;</text>
</g>
<!-- Node27 -->
<g id="Node000027" class="node">
<title>Node27</title>
<g id="a_Node000027"><a xlink:href="classllvm_1_1InstVisitor.html" target="_top" xlink:title=" ">
<polygon fill="white" stroke="#666666" points="417.88,-90.13 290.88,-90.13 290.88,-59.63 417.88,-59.63 417.88,-90.13"/>
<text xml:space="preserve" text-anchor="start" x="298.88" y="-76.63" font-family="Helvetica,sans-Serif" font-size="10.00">llvm::InstVisitor&lt;</text>
<text xml:space="preserve" text-anchor="middle" x="354.38" y="-65.38" font-family="Helvetica,sans-Serif" font-size="10.00"> PGOIndirectCallVisitor &gt;</text>
</a>
</g>
</g>
<!-- Node1&#45;&gt;Node27 -->
<g id="edge29_Node000001_Node000027" class="edge">
<title>Node1&#45;&gt;Node27</title>
<g id="a_edge29_Node000001_Node000027"><a xlink:title=" ">
<path fill="none" stroke="orange" stroke-dasharray="5,2" d="M53.36,-429.13C56.44,-352.15 69.64,-132.75 121,-87.63 166.68,-47.5 238.96,-50.15 290.78,-59.15"/>
<polygon fill="orange" stroke="orange" points="49.88,-428.58 53.01,-438.7 56.87,-428.84 49.88,-428.58"/>
</a>
</g>
<text xml:space="preserve" text-anchor="start" x="129.25" y="-93.63" font-family="Helvetica,sans-Serif" font-size="10.00" fill="grey">&lt; PGOIndirectCallVisitor &gt;</text>
</g>
<!-- Node29 -->
<g id="Node000029" class="node">
<title>Node29</title>
<g id="a_Node000029"><a xlink:href="classllvm_1_1InstVisitor.html" target="_top" xlink:title=" ">
<polygon fill="white" stroke="#666666" points="404.75,-41.13 304,-41.13 304,-10.63 404.75,-10.63 404.75,-41.13"/>
<text xml:space="preserve" text-anchor="start" x="312" y="-27.63" font-family="Helvetica,sans-Serif" font-size="10.00">llvm::InstVisitor&lt;</text>
<text xml:space="preserve" text-anchor="middle" x="354.38" y="-16.38" font-family="Helvetica,sans-Serif" font-size="10.00"> SCCPInstVisitor &gt;</text>
</a>
</g>
</g>
<!-- Node1&#45;&gt;Node29 -->
<g id="edge31_Node000001_Node000029" class="edge">
<title>Node1&#45;&gt;Node29</title>
<g id="a_edge31_Node000001_Node000029"><a xlink:title=" ">
<path fill="none" stroke="orange" stroke-dasharray="5,2" d="M52.6,-428.83C53.53,-343.88 61.31,-84.96 121,-32.63 170.62,10.86 251.65,1.55 303.72,-10.85"/>
<polygon fill="orange" stroke="orange" points="49.1,-428.73 52.52,-438.76 56.1,-428.79 49.1,-428.73"/>
</a>
</g>
<text xml:space="preserve" text-anchor="start" x="142.38" y="-38.63" font-family="Helvetica,sans-Serif" font-size="10.00" fill="grey">&lt; SCCPInstVisitor &gt;</text>
</g>
<!-- Node5 -->
<g id="Node000005" class="node">
<title>Node5</title>
<g id="a_Node000005"><a xlink:href="classAllocaSlices_1_1SliceBuilder.html" target="_top" xlink:title="Builder for the alloca slices.">
<polygon fill="white" stroke="#666666" points="1032.25,-766.51 904.5,-766.51 904.5,-747.26 1032.25,-747.26 1032.25,-766.51"/>
<text xml:space="preserve" text-anchor="middle" x="968.38" y="-753.01" font-family="Helvetica,sans-Serif" font-size="10.00">AllocaSlices::SliceBuilder</text>
</a>
</g>
</g>
<!-- Node4&#45;&gt;Node5 -->
<g id="edge4_Node000004_Node000005" class="edge">
<title>Node4&#45;&gt;Node5</title>
<g id="a_edge4_Node000004_Node000005"><a xlink:title=" ">
<path fill="none" stroke="#63b8ff" d="M875.3,-756.88C884.76,-756.88 894.57,-756.88 904.1,-756.88"/>
<polygon fill="#63b8ff" stroke="#63b8ff" points="875.49,-753.38 865.49,-756.88 875.49,-760.38 875.49,-753.38"/>
</a>
</g>
</g>
<!-- Node7 -->
<g id="Node000007" class="node">
<title>Node7</title>
<g id="a_Node000007"><a xlink:href="classllvm_1_1UnrolledInstAnalyzer.html" target="_top" xlink:title=" ">
<polygon fill="white" stroke="#666666" points="616.75,-692.51 486,-692.51 486,-673.26 616.75,-673.26 616.75,-692.51"/>
<text xml:space="preserve" text-anchor="middle" x="551.38" y="-679.01" font-family="Helvetica,sans-Serif" font-size="10.00">llvm::UnrolledInstAnalyzer</text>
</a>
</g>
</g>
<!-- Node6&#45;&gt;Node7 -->
<g id="edge6_Node000006_Node000007" class="edge">
<title>Node6&#45;&gt;Node7</title>
<g id="a_edge6_Node000006_Node000007"><a xlink:title=" ">
<path fill="none" stroke="#8b1a1a" d="M422.21,-682.88C442.7,-682.88 465.21,-682.88 485.57,-682.88"/>
<polygon fill="#8b1a1a" stroke="#8b1a1a" points="422.25,-679.38 412.25,-682.88 422.25,-686.38 422.25,-679.38"/>
</a>
</g>
</g>
<!-- Node9 -->
<g id="Node000009" class="node">
<title>Node9</title>
<g id="a_Node000009"><a xlink:href="classllvm_1_1PtrUseVisitor.html" target="_top" xlink:title="A base class for visitors over the uses of a pointer value.">
<polygon fill="white" stroke="#666666" points="600.62,-853.13 502.12,-853.13 502.12,-822.63 600.62,-822.63 600.62,-853.13"/>
<text xml:space="preserve" text-anchor="start" x="510.12" y="-839.63" font-family="Helvetica,sans-Serif" font-size="10.00">llvm::PtrUseVisitor</text>
<text xml:space="preserve" text-anchor="middle" x="551.38" y="-828.38" font-family="Helvetica,sans-Serif" font-size="10.00">&lt; DerivedT &gt;</text>
</a>
</g>
</g>
<!-- Node8&#45;&gt;Node9 -->
<g id="edge8_Node000008_Node000009" class="edge">
<title>Node8&#45;&gt;Node9</title>
<g id="a_edge8_Node000008_Node000009"><a xlink:title=" ">
<path fill="none" stroke="darkgreen" d="M411.09,-829.31C439.74,-831.07 474.32,-833.2 501.86,-834.9"/>
<polygon fill="darkgreen" stroke="darkgreen" points="411.33,-825.82 401.13,-828.7 410.9,-832.81 411.33,-825.82"/>
</a>
</g>
</g>
<!-- Node9&#45;&gt;Node2 -->
<g id="edge9_Node000009_Node000002" class="edge">
<title>Node9&#45;&gt;Node2</title>
<g id="a_edge9_Node000009_Node000002"><a xlink:title=" ">
<path fill="none" stroke="orange" stroke-dasharray="5,2" d="M612.06,-850.68C657.52,-860.43 719.44,-873.71 762.58,-882.96"/>
<polygon fill="orange" stroke="orange" points="612.87,-847.28 602.36,-848.6 611.4,-854.12 612.87,-847.28"/>
</a>
</g>
<text xml:space="preserve" text-anchor="start" x="652" y="-884.86" font-family="Helvetica,sans-Serif" font-size="10.00" fill="grey">&lt; ArgUseChecker &gt;</text>
</g>
<!-- Node9&#45;&gt;Node3 -->
<g id="edge10_Node000009_Node000003" class="edge">
<title>Node9&#45;&gt;Node3</title>
<g id="a_edge10_Node000009_Node000003"><a xlink:title=" ">
<path fill="none" stroke="orange" stroke-dasharray="5,2" d="M612.24,-836.51C657.21,-835.47 718.21,-834.07 761.23,-833.08"/>
<polygon fill="orange" stroke="orange" points="612.31,-833 602.39,-836.73 612.47,-840 612.31,-833"/>
</a>
</g>
<text xml:space="preserve" text-anchor="start" x="650.5" y="-841.6" font-family="Helvetica,sans-Serif" font-size="10.00" fill="grey">&lt; AllocaUseVisitor &gt;</text>
</g>
<!-- Node9&#45;&gt;Node4 -->
<g id="edge11_Node000009_Node000004" class="edge">
<title>Node9&#45;&gt;Node4</title>
<g id="a_edge11_Node000009_Node000004"><a xlink:title=" ">
<path fill="none" stroke="orange" stroke-dasharray="5,2" d="M611.66,-819.49C657.95,-805.13 721.47,-785.43 764.81,-771.99"/>
<polygon fill="orange" stroke="orange" points="610.84,-816.08 602.32,-822.39 612.91,-822.77 610.84,-816.08"/>
</a>
</g>
<text xml:space="preserve" text-anchor="start" x="660.62" y="-813.02" font-family="Helvetica,sans-Serif" font-size="10.00" fill="grey">&lt; SliceBuilder &gt;</text>
</g>
<!-- Node13 -->
<g id="Node000013" class="node">
<title>Node13</title>
<g id="a_Node000013"><a xlink:href="classDataScalarizerVisitor.html" target="_top" xlink:title=" ">
<polygon fill="white" stroke="#666666" points="605.5,-524.51 497.25,-524.51 497.25,-505.26 605.5,-505.26 605.5,-524.51"/>
<text xml:space="preserve" text-anchor="middle" x="551.38" y="-511.01" font-family="Helvetica,sans-Serif" font-size="10.00">DataScalarizerVisitor</text>
</a>
</g>
</g>
<!-- Node12&#45;&gt;Node13 -->
<g id="edge15_Node000012_Node000013" class="edge">
<title>Node12&#45;&gt;Node13</title>
<g id="a_edge15_Node000012_Node000013"><a xlink:title=" ">
<path fill="none" stroke="#63b8ff" d="M422.81,-514.88C447.06,-514.88 474.08,-514.88 496.98,-514.88"/>
<polygon fill="#63b8ff" stroke="#63b8ff" points="423.03,-511.38 413.03,-514.88 423.03,-518.38 423.03,-511.38"/>
</a>
</g>
</g>
<!-- Node16 -->
<g id="Node000016" class="node">
<title>Node16</title>
<g id="a_Node000016"><a xlink:href="structllvm_1_1IRSimilarity_1_1IRInstructionMapper_1_1InstructionClassification.html" target="_top" xlink:title="Custom InstVisitor to classify different instructions for whether it can be analyzed for similarity.">
<polygon fill="white" stroke="#666666" points="614.88,-415.76 487.88,-415.76 487.88,-374.01 614.88,-374.01 614.88,-415.76"/>
<text xml:space="preserve" text-anchor="start" x="495.88" y="-402.26" font-family="Helvetica,sans-Serif" font-size="10.00">llvm::IRSimilarity</text>
<text xml:space="preserve" text-anchor="start" x="495.88" y="-391.01" font-family="Helvetica,sans-Serif" font-size="10.00">::IRInstructionMapper</text>
<text xml:space="preserve" text-anchor="middle" x="551.38" y="-379.76" font-family="Helvetica,sans-Serif" font-size="10.00">::InstructionClassification</text>
</a>
</g>
</g>
<!-- Node15&#45;&gt;Node16 -->
<g id="edge18_Node000015_Node000016" class="edge">
<title>Node15&#45;&gt;Node16</title>
<g id="a_edge18_Node000015_Node000016"><a xlink:title=" ">
<path fill="none" stroke="#63b8ff" d="M429.52,-394.88C448.59,-394.88 468.94,-394.88 487.39,-394.88"/>
<polygon fill="#63b8ff" stroke="#63b8ff" points="429.66,-391.38 419.66,-394.88 429.66,-398.38 429.66,-391.38"/>
</a>
</g>
</g>
<!-- Node18 -->
<g id="Node000018" class="node">
<title>Node18</title>
<g id="a_Node000018"><a xlink:href="classllvm_1_1InstCombinerImpl.html" target="_top" xlink:title=" ">
<polygon fill="white" stroke="#666666" points="610,-350.51 492.75,-350.51 492.75,-331.26 610,-331.26 610,-350.51"/>
<text xml:space="preserve" text-anchor="middle" x="551.38" y="-337.01" font-family="Helvetica,sans-Serif" font-size="10.00">llvm::InstCombinerImpl</text>
</a>
</g>
</g>
<!-- Node17&#45;&gt;Node18 -->
<g id="edge20_Node000017_Node000018" class="edge">
<title>Node17&#45;&gt;Node18</title>
<g id="a_edge20_Node000017_Node000018"><a xlink:title=" ">
<path fill="none" stroke="#63b8ff" d="M448.14,-340.88C463.21,-340.88 478.44,-340.88 492.38,-340.88"/>
<polygon fill="#63b8ff" stroke="#63b8ff" points="448.17,-337.38 438.17,-340.88 448.17,-344.38 448.17,-337.38"/>
</a>
</g>
</g>
<!-- Node20 -->
<g id="Node000020" class="node">
<title>Node20</title>
<g id="a_Node000020"><a xlink:href="classllvm_1_1InstCostVisitor.html" target="_top" xlink:title=" ">
<polygon fill="white" stroke="#666666" points="604,-301.51 498.75,-301.51 498.75,-282.26 604,-282.26 604,-301.51"/>
<text xml:space="preserve" text-anchor="middle" x="551.38" y="-288.01" font-family="Helvetica,sans-Serif" font-size="10.00">llvm::InstCostVisitor</text>
</a>
</g>
</g>
<!-- Node19&#45;&gt;Node20 -->
<g id="edge22_Node000019_Node000020" class="edge">
<title>Node19&#45;&gt;Node20</title>
<g id="a_edge22_Node000019_Node000020"><a xlink:title=" ">
<path fill="none" stroke="#63b8ff" d="M438.62,-291.88C458.86,-291.88 479.94,-291.88 498.26,-291.88"/>
<polygon fill="#63b8ff" stroke="#63b8ff" points="438.67,-288.38 428.67,-291.88 438.67,-295.38 438.67,-288.38"/>
</a>
</g>
</g>
<!-- Node22 -->
<g id="Node000022" class="node">
<title>Node22</title>
<g id="a_Node000022"><a xlink:href="classllvm_1_1Interpreter.html" target="_top" xlink:title=" ">
<polygon fill="white" stroke="#666666" points="593.5,-252.51 509.25,-252.51 509.25,-233.26 593.5,-233.26 593.5,-252.51"/>
<text xml:space="preserve" text-anchor="middle" x="551.38" y="-239.01" font-family="Helvetica,sans-Serif" font-size="10.00">llvm::Interpreter</text>
</a>
</g>
</g>
<!-- Node21&#45;&gt;Node22 -->
<g id="edge24_Node000021_Node000022" class="edge">
<title>Node21&#45;&gt;Node22</title>
<g id="a_edge24_Node000021_Node000022"><a xlink:title=" ">
<path fill="none" stroke="#63b8ff" d="M410.78,-242.88C442,-242.88 480.37,-242.88 508.97,-242.88"/>
<polygon fill="#63b8ff" stroke="#63b8ff" points="411.14,-239.38 401.14,-242.88 411.14,-246.38 411.14,-239.38"/>
</a>
</g>
</g>
<!-- Node24 -->
<g id="Node000024" class="node">
<title>Node24</title>
<g id="a_Node000024"><a xlink:href="classllvm_1_1ObjectSizeOffsetEvaluator.html" target="_top" xlink:title="Evaluate the size and offset of an object pointed to by a Value*.">
<polygon fill="white" stroke="#666666" points="629.5,-198.51 473.25,-198.51 473.25,-179.26 629.5,-179.26 629.5,-198.51"/>
<text xml:space="preserve" text-anchor="middle" x="551.38" y="-185.01" font-family="Helvetica,sans-Serif" font-size="10.00">llvm::ObjectSizeOffsetEvaluator</text>
</a>
</g>
</g>
<!-- Node23&#45;&gt;Node24 -->
<g id="edge26_Node000023_Node000024" class="edge">
<title>Node23&#45;&gt;Node24</title>
<g id="a_edge26_Node000023_Node000024"><a xlink:title=" ">
<path fill="none" stroke="#63b8ff" d="M434.94,-188.88C447.46,-188.88 460.4,-188.88 472.87,-188.88"/>
<polygon fill="#63b8ff" stroke="#63b8ff" points="435.09,-185.38 425.09,-188.88 435.09,-192.38 435.09,-185.38"/>
</a>
</g>
</g>
<!-- Node26 -->
<g id="Node000026" class="node">
<title>Node26</title>
<g id="a_Node000026"><a xlink:href="classllvm_1_1ObjectSizeOffsetVisitor.html" target="_top" xlink:title="Evaluate the size and offset of an object pointed to by a Value* statically.">
<polygon fill="white" stroke="#666666" points="622.75,-138.51 480,-138.51 480,-119.26 622.75,-119.26 622.75,-138.51"/>
<text xml:space="preserve" text-anchor="middle" x="551.38" y="-125.01" font-family="Helvetica,sans-Serif" font-size="10.00">llvm::ObjectSizeOffsetVisitor</text>
</a>
</g>
</g>
<!-- Node25&#45;&gt;Node26 -->
<g id="edge28_Node000025_Node000026" class="edge">
<title>Node25&#45;&gt;Node26</title>
<g id="a_edge28_Node000025_Node000026"><a xlink:title=" ">
<path fill="none" stroke="#63b8ff" d="M428.27,-128.88C445.1,-128.88 462.99,-128.88 479.73,-128.88"/>
<polygon fill="#63b8ff" stroke="#63b8ff" points="428.32,-125.38 418.32,-128.88 428.32,-132.38 428.32,-125.38"/>
</a>
</g>
</g>
<!-- Node28 -->
<g id="Node000028" class="node">
<title>Node28</title>
<g id="a_Node000028"><a xlink:href="structllvm_1_1PGOIndirectCallVisitor.html" target="_top" xlink:title=" ">
<polygon fill="white" stroke="#666666" points="620.88,-84.51 481.88,-84.51 481.88,-65.26 620.88,-65.26 620.88,-84.51"/>
<text xml:space="preserve" text-anchor="middle" x="551.38" y="-71.01" font-family="Helvetica,sans-Serif" font-size="10.00">llvm::PGOIndirectCallVisitor</text>
</a>
</g>
</g>
<!-- Node27&#45;&gt;Node28 -->
<g id="edge30_Node000027_Node000028" class="edge">
<title>Node27&#45;&gt;Node28</title>
<g id="a_edge30_Node000027_Node000028"><a xlink:title=" ">
<path fill="none" stroke="#63b8ff" d="M429.27,-74.88C446.46,-74.88 464.69,-74.88 481.65,-74.88"/>
<polygon fill="#63b8ff" stroke="#63b8ff" points="429.66,-71.38 419.66,-74.88 429.66,-78.38 429.66,-71.38"/>
</a>
</g>
</g>
<!-- Node30 -->
<g id="Node000030" class="node">
<title>Node30</title>
<g id="a_Node000030"><a xlink:href="classllvm_1_1SCCPInstVisitor.html" target="_top" xlink:title="Helper class for SCCPSolver.">
<polygon fill="white" stroke="#666666" points="607.75,-35.51 495,-35.51 495,-16.26 607.75,-16.26 607.75,-35.51"/>
<text xml:space="preserve" text-anchor="middle" x="551.38" y="-22.01" font-family="Helvetica,sans-Serif" font-size="10.00">llvm::SCCPInstVisitor</text>
</a>
</g>
</g>
<!-- Node29&#45;&gt;Node30 -->
<g id="edge32_Node000029_Node000030" class="edge">
<title>Node29&#45;&gt;Node30</title>
<g id="a_edge32_Node000029_Node000030"><a xlink:title=" ">
<path fill="none" stroke="#63b8ff" d="M416.29,-25.88C441.31,-25.88 470.09,-25.88 494.56,-25.88"/>
<polygon fill="#63b8ff" stroke="#63b8ff" points="416.6,-22.38 406.6,-25.88 416.6,-29.38 416.6,-22.38"/>
</a>
</g>
</g>
</g>
</svg>
