<?xml version="1.0" encoding="UTF-8" standalone="no"?>
<!DOCTYPE svg PUBLIC "-//W3C//DTD SVG 1.1//EN"
 "http://www.w3.org/Graphics/SVG/1.1/DTD/svg11.dtd">
<!-- Generated by graphviz version 14.1.3 (20260303.0454)
 -->
<!-- Title: llvm::vfs::OnDiskOutputBackend Pages: 1 -->
<svg width="180pt" height="235pt"
 viewBox="0.00 0.00 180.00 235.00" xmlns="http://www.w3.org/2000/svg" xmlns:xlink="http://www.w3.org/1999/xlink">
<g id="graph0" class="graph" transform="scale(1 1) rotate(0) translate(4 230.75)">
<title>llvm::vfs::OnDiskOutputBackend</title>
<!-- Node1 -->
<g id="Node000001" class="node">
<title>Node1</title>
<g id="a_Node000001"><a xlink:title="An output backend that creates files on disk, wrapping APIs in sys::fs.">
<polygon fill="#999999" stroke="#666666" points="160,-19.25 0,-19.25 0,0 160,0 160,-19.25"/>
<text xml:space="preserve" text-anchor="middle" x="80" y="-5.75" font-family="Helvetica,sans-Serif" font-size="10.00">llvm::vfs::OnDiskOutputBackend</text>
</a>
</g>
</g>
<!-- Node2 -->
<g id="Node000002" class="node">
<title>Node2</title>
<g id="a_Node000002"><a xlink:href="classllvm_1_1vfs_1_1OutputBackend.html" target="_top" xlink:title="Interface for virtualized outputs.">
<polygon fill="white" stroke="#666666" points="143.5,-75.5 16.5,-75.5 16.5,-56.25 143.5,-56.25 143.5,-75.5"/>
<text xml:space="preserve" text-anchor="middle" x="80" y="-62" font-family="Helvetica,sans-Serif" font-size="10.00">llvm::vfs::OutputBackend</text>
</a>
</g>
</g>
<!-- Node2&#45;&gt;Node1 -->
<g id="edge1_Node000001_Node000002" class="edge">
<title>Node2&#45;&gt;Node1</title>
<g id="a_edge1_Node000001_Node000002"><a xlink:title=" ">
<path fill="none" stroke="#63b8ff" d="M80,-44.69C80,-35.98 80,-26.24 80,-19.42"/>
<polygon fill="#63b8ff" stroke="#63b8ff" points="76.5,-44.4 80,-54.4 83.5,-44.4 76.5,-44.4"/>
</a>
</g>
</g>
<!-- Node3 -->
<g id="Node000003" class="node">
<title>Node3</title>
<g id="a_Node000003"><a xlink:href="classllvm_1_1RefCountedBase.html" target="_top" xlink:title=" ">
<polygon fill="white" stroke="#666666" points="137.5,-143 22.5,-143 22.5,-112.5 137.5,-112.5 137.5,-143"/>
<text xml:space="preserve" text-anchor="start" x="30.5" y="-129.5" font-family="Helvetica,sans-Serif" font-size="10.00">llvm::RefCountedBase</text>
<text xml:space="preserve" text-anchor="middle" x="80" y="-118.25" font-family="Helvetica,sans-Serif" font-size="10.00">&lt; OutputBackend &gt;</text>
</a>
</g>
</g>
<!-- Node3&#45;&gt;Node2 -->
<g id="edge2_Node000002_Node000003" class="edge">
<title>Node3&#45;&gt;Node2</title>
<g id="a_edge2_Node000002_Node000003"><a xlink:title=" ">
<path fill="none" stroke="#63b8ff" d="M80,-101.02C80,-92.04 80,-82.54 80,-75.85"/>
<polygon fill="#63b8ff" stroke="#63b8ff" points="76.5,-100.74 80,-110.74 83.5,-100.74 76.5,-100.74"/>
</a>
</g>
</g>
<!-- Node4 -->
<g id="Node000004" class="node">
<title>Node4</title>
<g id="a_Node000004"><a xlink:href="classllvm_1_1RefCountedBase.html" target="_top" xlink:title="A CRTP mixin class that adds reference counting to a type.">
<polygon fill="white" stroke="#666666" points="137.5,-226.75 22.5,-226.75 22.5,-196.25 137.5,-196.25 137.5,-226.75"/>
<text xml:space="preserve" text-anchor="start" x="30.5" y="-213.25" font-family="Helvetica,sans-Serif" font-size="10.00">llvm::RefCountedBase</text>
<text xml:space="preserve" text-anchor="middle" x="80" y="-202" font-family="Helvetica,sans-Serif" font-size="10.00">&lt; Derived &gt;</text>
</a>
</g>
</g>
<!-- Node4&#45;&gt;Node3 -->
<g id="edge3_Node000003_Node000004" class="edge">
<title>Node4&#45;&gt;Node3</title>
<g id="a_edge3_Node000003_Node000004"><a xlink:title=" ">
<path fill="none" stroke="orange" stroke-dasharray="5,2" d="M80,-184.72C80,-171.03 80,-154.71 80,-143.24"/>
<polygon fill="orange" stroke="orange" points="76.5,-184.37 80,-194.37 83.5,-184.37 76.5,-184.37"/>
</a>
</g>
<text xml:space="preserve" text-anchor="start" x="83" y="-167" font-family="Helvetica,sans-Serif" font-size="10.00" fill="grey">&lt; OutputBackend &gt;</text>
</g>
</g>
</svg>
