<?xml version="1.0" encoding="UTF-8" standalone="no"?>
<!DOCTYPE svg PUBLIC "-//W3C//DTD SVG 1.1//EN"
 "http://www.w3.org/Graphics/SVG/1.1/DTD/svg11.dtd">
<!-- Generated by graphviz version 14.1.3 (20260303.0454)
 -->
<!-- Title: llvm::WritableBinaryStream Pages: 1 -->
<svg width="468pt" height="162pt"
 viewBox="0.00 0.00 468.00 162.00" xmlns="http://www.w3.org/2000/svg" xmlns:xlink="http://www.w3.org/1999/xlink">
<g id="graph0" class="graph" transform="scale(1 1) rotate(0) translate(4 157.5)">
<title>llvm::WritableBinaryStream</title>
<!-- Node1 -->
<g id="Node000001" class="node">
<title>Node1</title>
<g id="a_Node000001"><a xlink:title="A BinaryStream which can be read from as well as written to.">
<polygon fill="#999999" stroke="#666666" points="269.75,-85.88 135.25,-85.88 135.25,-66.62 269.75,-66.62 269.75,-85.88"/>
<text xml:space="preserve" text-anchor="middle" x="202.5" y="-72.38" font-family="Helvetica,sans-Serif" font-size="10.00">llvm::WritableBinaryStream</text>
</a>
</g>
</g>
<!-- Node3 -->
<g id="Node000003" class="node">
<title>Node3</title>
<g id="a_Node000003"><a xlink:href="classllvm_1_1AppendingBinaryByteStream.html" target="_top" xlink:title="An implementation of WritableBinaryStream which can write at its end causing the underlying data to g...">
<polygon fill="white" stroke="#666666" points="449.62,-153.5 315.88,-153.5 315.88,-123 449.62,-123 449.62,-153.5"/>
<text xml:space="preserve" text-anchor="start" x="323.88" y="-140" font-family="Helvetica,sans-Serif" font-size="10.00">llvm::AppendingBinaryByte</text>
<text xml:space="preserve" text-anchor="middle" x="382.75" y="-128.75" font-family="Helvetica,sans-Serif" font-size="10.00">Stream</text>
</a>
</g>
</g>
<!-- Node1&#45;&gt;Node3 -->
<g id="edge2_Node000001_Node000003" class="edge">
<title>Node1&#45;&gt;Node3</title>
<g id="a_edge2_Node000001_Node000003"><a xlink:title=" ">
<path fill="none" stroke="#63b8ff" d="M239.96,-90.3C259.41,-97.67 283.79,-106.71 305.75,-114.25 313.86,-117.04 322.5,-119.88 330.94,-122.59"/>
<polygon fill="#63b8ff" stroke="#63b8ff" points="241.43,-87.12 230.84,-86.83 238.94,-93.66 241.43,-87.12"/>
</a>
</g>
</g>
<!-- Node4 -->
<g id="Node000004" class="node">
<title>Node4</title>
<g id="a_Node000004"><a xlink:href="classllvm_1_1FileBufferByteStream.html" target="_top" xlink:title="An implementation of WritableBinaryStream backed by an llvm FileOutputBuffer.">
<polygon fill="white" stroke="#666666" points="449.62,-104.88 315.88,-104.88 315.88,-85.62 449.62,-85.62 449.62,-104.88"/>
<text xml:space="preserve" text-anchor="middle" x="382.75" y="-91.38" font-family="Helvetica,sans-Serif" font-size="10.00">llvm::FileBufferByteStream</text>
</a>
</g>
</g>
<!-- Node1&#45;&gt;Node4 -->
<g id="edge3_Node000001_Node000004" class="edge">
<title>Node1&#45;&gt;Node4</title>
<g id="a_edge3_Node000001_Node000004"><a xlink:title=" ">
<path fill="none" stroke="#63b8ff" d="M281.39,-84.55C292.76,-85.76 304.39,-87 315.5,-88.19"/>
<polygon fill="#63b8ff" stroke="#63b8ff" points="281.95,-81.09 271.63,-83.51 281.2,-88.05 281.95,-81.09"/>
</a>
</g>
</g>
<!-- Node5 -->
<g id="Node000005" class="node">
<title>Node5</title>
<g id="a_Node000005"><a xlink:href="classllvm_1_1MutableBinaryByteStream.html" target="_top" xlink:title="An implementation of BinaryStream which holds its entire data set in a single contiguous buffer.">
<polygon fill="white" stroke="#666666" points="459.75,-67.88 305.75,-67.88 305.75,-48.62 459.75,-48.62 459.75,-67.88"/>
<text xml:space="preserve" text-anchor="middle" x="382.75" y="-54.38" font-family="Helvetica,sans-Serif" font-size="10.00">llvm::MutableBinaryByteStream</text>
</a>
</g>
</g>
<!-- Node1&#45;&gt;Node5 -->
<g id="edge4_Node000001_Node000005" class="edge">
<title>Node1&#45;&gt;Node5</title>
<g id="a_edge4_Node000001_Node000005"><a xlink:title=" ">
<path fill="none" stroke="#63b8ff" d="M281.56,-68.37C289.44,-67.57 297.44,-66.76 305.31,-65.97"/>
<polygon fill="#63b8ff" stroke="#63b8ff" points="281.23,-64.88 271.63,-69.37 281.93,-71.85 281.23,-64.88"/>
</a>
</g>
</g>
<!-- Node6 -->
<g id="Node000006" class="node">
<title>Node6</title>
<g id="a_Node000006"><a xlink:href="classllvm_1_1msf_1_1WritableMappedBlockStream.html" target="_top" xlink:title=" ">
<polygon fill="white" stroke="#666666" points="448.88,-30.5 316.62,-30.5 316.62,0 448.88,0 448.88,-30.5"/>
<text xml:space="preserve" text-anchor="start" x="324.62" y="-17" font-family="Helvetica,sans-Serif" font-size="10.00">llvm::msf::WritableMapped</text>
<text xml:space="preserve" text-anchor="middle" x="382.75" y="-5.75" font-family="Helvetica,sans-Serif" font-size="10.00">BlockStream</text>
</a>
</g>
</g>
<!-- Node1&#45;&gt;Node6 -->
<g id="edge5_Node000001_Node000006" class="edge">
<title>Node1&#45;&gt;Node6</title>
<g id="a_edge5_Node000001_Node000006"><a xlink:title=" ">
<path fill="none" stroke="#63b8ff" d="M241.06,-62.24C260.34,-55.15 284.23,-46.54 305.75,-39.25 313.88,-36.5 322.52,-33.67 330.96,-30.97"/>
<polygon fill="#63b8ff" stroke="#63b8ff" points="239.89,-58.94 231.72,-65.68 242.32,-65.5 239.89,-58.94"/>
</a>
</g>
</g>
<!-- Node2 -->
<g id="Node000002" class="node">
<title>Node2</title>
<g id="a_Node000002"><a xlink:href="classllvm_1_1BinaryStream.html" target="_top" xlink:title="An interface for accessing data in a stream&#45;like format, but which discourages copying.">
<polygon fill="white" stroke="#666666" points="99.25,-85.88 0,-85.88 0,-66.62 99.25,-66.62 99.25,-85.88"/>
<text xml:space="preserve" text-anchor="middle" x="49.62" y="-72.38" font-family="Helvetica,sans-Serif" font-size="10.00">llvm::BinaryStream</text>
</a>
</g>
</g>
<!-- Node2&#45;&gt;Node1 -->
<g id="edge1_Node000001_Node000002" class="edge">
<title>Node2&#45;&gt;Node1</title>
<g id="a_edge1_Node000001_Node000002"><a xlink:title=" ">
<path fill="none" stroke="#63b8ff" d="M110.95,-76.25C118.84,-76.25 126.95,-76.25 134.93,-76.25"/>
<polygon fill="#63b8ff" stroke="#63b8ff" points="111.12,-72.75 101.12,-76.25 111.12,-79.75 111.12,-72.75"/>
</a>
</g>
</g>
</g>
</svg>
