<?xml version="1.0" encoding="UTF-8" standalone="no"?>
<!DOCTYPE svg PUBLIC "-//W3C//DTD SVG 1.1//EN"
 "http://www.w3.org/Graphics/SVG/1.1/DTD/svg11.dtd">
<!-- Generated by graphviz version 14.1.3 (20260303.0454)
 -->
<!-- Title: DataScalarizerVisitor Pages: 1 -->
<svg width="174pt" height="205pt"
 viewBox="0.00 0.00 174.00 205.00" xmlns="http://www.w3.org/2000/svg" xmlns:xlink="http://www.w3.org/1999/xlink">
<g id="graph0" class="graph" transform="scale(1 1) rotate(0) translate(4 201)">
<title>DataScalarizerVisitor</title>
<!-- Node1 -->
<g id="Node000001" class="node">
<title>Node1</title>
<g id="a_Node000001"><a xlink:title=" ">
<polygon fill="#999999" stroke="#666666" points="110.88,-19.25 2.62,-19.25 2.62,0 110.88,0 110.88,-19.25"/>
<text xml:space="preserve" text-anchor="middle" x="56.75" y="-5.75" font-family="Helvetica,sans-Serif" font-size="10.00">DataScalarizerVisitor</text>
</a>
</g>
</g>
<!-- Node2 -->
<g id="Node000002" class="node">
<title>Node2</title>
<g id="a_Node000002"><a xlink:href="classllvm_1_1InstVisitor.html" target="_top" xlink:title=" ">
<polygon fill="white" stroke="#666666" points="113.5,-98 0,-98 0,-56.25 113.5,-56.25 113.5,-98"/>
<text xml:space="preserve" text-anchor="start" x="8" y="-84.5" font-family="Helvetica,sans-Serif" font-size="10.00">llvm::InstVisitor&lt;</text>
<text xml:space="preserve" text-anchor="start" x="8" y="-73.25" font-family="Helvetica,sans-Serif" font-size="10.00"> DataScalarizerVisitor,</text>
<text xml:space="preserve" text-anchor="middle" x="56.75" y="-62" font-family="Helvetica,sans-Serif" font-size="10.00"> bool &gt;</text>
</a>
</g>
</g>
<!-- Node2&#45;&gt;Node1 -->
<g id="edge1_Node000001_Node000002" class="edge">
<title>Node2&#45;&gt;Node1</title>
<g id="a_edge1_Node000001_Node000002"><a xlink:title=" ">
<path fill="none" stroke="#63b8ff" d="M56.75,-44.43C56.75,-35.27 56.75,-26 56.75,-19.49"/>
<polygon fill="#63b8ff" stroke="#63b8ff" points="53.25,-44.25 56.75,-54.25 60.25,-44.25 53.25,-44.25"/>
</a>
</g>
</g>
<!-- Node3 -->
<g id="Node000003" class="node">
<title>Node3</title>
<g id="a_Node000003"><a xlink:href="classllvm_1_1InstVisitor.html" target="_top" xlink:title="Base class for instruction visitors.">
<polygon fill="white" stroke="#666666" points="108.25,-197 5.25,-197 5.25,-166.5 108.25,-166.5 108.25,-197"/>
<text xml:space="preserve" text-anchor="start" x="13.25" y="-183.5" font-family="Helvetica,sans-Serif" font-size="10.00">llvm::InstVisitor&lt;</text>
<text xml:space="preserve" text-anchor="middle" x="56.75" y="-172.25" font-family="Helvetica,sans-Serif" font-size="10.00"> SubClass, RetTy &gt;</text>
</a>
</g>
</g>
<!-- Node3&#45;&gt;Node2 -->
<g id="edge2_Node000002_Node000003" class="edge">
<title>Node3&#45;&gt;Node2</title>
<g id="a_edge2_Node000002_Node000003"><a xlink:title=" ">
<path fill="none" stroke="orange" stroke-dasharray="5,2" d="M56.75,-154.68C56.75,-137.23 56.75,-114.58 56.75,-98.46"/>
<polygon fill="orange" stroke="orange" points="53.25,-154.53 56.75,-164.53 60.25,-154.53 53.25,-154.53"/>
</a>
</g>
<text xml:space="preserve" text-anchor="start" x="59.75" y="-137.25" font-family="Helvetica,sans-Serif" font-size="10.00" fill="grey">&lt; DataScalarizerVisitor,</text>
<text xml:space="preserve" text-anchor="start" x="59.75" y="-122" font-family="Helvetica,sans-Serif" font-size="10.00" fill="grey">   bool &gt;</text>
</g>
</g>
</svg>
