<?xml version="1.0" encoding="UTF-8" standalone="no"?>
<!DOCTYPE svg PUBLIC "-//W3C//DTD SVG 1.1//EN"
 "http://www.w3.org/Graphics/SVG/1.1/DTD/svg11.dtd">
<!-- Generated by graphviz version 14.1.3 (20260303.0454)
 -->
<!-- Title: llvm::logicalview::LVType Pages: 1 -->
<svg width="497pt" height="235pt"
 viewBox="0.00 0.00 497.00 235.00" xmlns="http://www.w3.org/2000/svg" xmlns:xlink="http://www.w3.org/1999/xlink">
<g id="graph0" class="graph" transform="scale(1 1) rotate(0) translate(4 230.5)">
<title>llvm::logicalview::LVType</title>
<!-- Node1 -->
<g id="Node000001" class="node">
<title>Node1</title>
<g id="a_Node000001"><a xlink:title=" ">
<polygon fill="#999999" stroke="#666666" points="354,-128.5 260,-128.5 260,-98 354,-98 354,-128.5"/>
<text xml:space="preserve" text-anchor="start" x="268" y="-115" font-family="Helvetica,sans-Serif" font-size="10.00">llvm::logicalview::</text>
<text xml:space="preserve" text-anchor="middle" x="307" y="-103.75" font-family="Helvetica,sans-Serif" font-size="10.00">LVType</text>
</a>
</g>
</g>
<!-- Node4 -->
<g id="Node000004" class="node">
<title>Node4</title>
<g id="a_Node000004"><a xlink:href="classllvm_1_1logicalview_1_1LVTypeDefinition.html" target="_top" xlink:title=" ">
<polygon fill="white" stroke="#666666" points="486.25,-226.5 392.25,-226.5 392.25,-196 486.25,-196 486.25,-226.5"/>
<text xml:space="preserve" text-anchor="start" x="400.25" y="-213" font-family="Helvetica,sans-Serif" font-size="10.00">llvm::logicalview::</text>
<text xml:space="preserve" text-anchor="middle" x="439.25" y="-201.75" font-family="Helvetica,sans-Serif" font-size="10.00">LVTypeDefinition</text>
</a>
</g>
</g>
<!-- Node1&#45;&gt;Node4 -->
<g id="edge3_Node000001_Node000004" class="edge">
<title>Node1&#45;&gt;Node4</title>
<g id="a_edge3_Node000001_Node000004"><a xlink:title=" ">
<path fill="none" stroke="#63b8ff" d="M331.14,-136.7C346.89,-151.92 368.67,-171.57 390,-186.25 394.74,-189.51 399.96,-192.64 405.17,-195.51"/>
<polygon fill="#63b8ff" stroke="#63b8ff" points="333.72,-134.33 324.13,-129.82 328.82,-139.32 333.72,-134.33"/>
</a>
</g>
</g>
<!-- Node5 -->
<g id="Node000005" class="node">
<title>Node5</title>
<g id="a_Node000005"><a xlink:href="classllvm_1_1logicalview_1_1LVTypeEnumerator.html" target="_top" xlink:title=" ">
<polygon fill="white" stroke="#666666" points="488.5,-177.5 390,-177.5 390,-147 488.5,-147 488.5,-177.5"/>
<text xml:space="preserve" text-anchor="start" x="398" y="-164" font-family="Helvetica,sans-Serif" font-size="10.00">llvm::logicalview::</text>
<text xml:space="preserve" text-anchor="middle" x="439.25" y="-152.75" font-family="Helvetica,sans-Serif" font-size="10.00">LVTypeEnumerator</text>
</a>
</g>
</g>
<!-- Node1&#45;&gt;Node5 -->
<g id="edge4_Node000001_Node000005" class="edge">
<title>Node1&#45;&gt;Node5</title>
<g id="a_edge4_Node000001_Node000005"><a xlink:title=" ">
<path fill="none" stroke="#63b8ff" d="M360.05,-132.83C372.2,-137.4 384.99,-142.21 396.63,-146.59"/>
<polygon fill="#63b8ff" stroke="#63b8ff" points="361.58,-129.67 350.99,-129.42 359.11,-136.22 361.58,-129.67"/>
</a>
</g>
</g>
<!-- Node6 -->
<g id="Node000006" class="node">
<title>Node6</title>
<g id="a_Node000006"><a xlink:href="classllvm_1_1logicalview_1_1LVTypeImport.html" target="_top" xlink:title=" ">
<polygon fill="white" stroke="#666666" points="486.25,-128.5 392.25,-128.5 392.25,-98 486.25,-98 486.25,-128.5"/>
<text xml:space="preserve" text-anchor="start" x="400.25" y="-115" font-family="Helvetica,sans-Serif" font-size="10.00">llvm::logicalview::</text>
<text xml:space="preserve" text-anchor="middle" x="439.25" y="-103.75" font-family="Helvetica,sans-Serif" font-size="10.00">LVTypeImport</text>
</a>
</g>
</g>
<!-- Node1&#45;&gt;Node6 -->
<g id="edge5_Node000001_Node000006" class="edge">
<title>Node1&#45;&gt;Node6</title>
<g id="a_edge5_Node000001_Node000006"><a xlink:title=" ">
<path fill="none" stroke="#63b8ff" d="M365.73,-113.25C374.56,-113.25 383.58,-113.25 392.11,-113.25"/>
<polygon fill="#63b8ff" stroke="#63b8ff" points="365.8,-109.75 355.8,-113.25 365.8,-116.75 365.8,-109.75"/>
</a>
</g>
</g>
<!-- Node7 -->
<g id="Node000007" class="node">
<title>Node7</title>
<g id="a_Node000007"><a xlink:href="classllvm_1_1logicalview_1_1LVTypeParam.html" target="_top" xlink:title=" ">
<polygon fill="white" stroke="#666666" points="486.25,-79.5 392.25,-79.5 392.25,-49 486.25,-49 486.25,-79.5"/>
<text xml:space="preserve" text-anchor="start" x="400.25" y="-66" font-family="Helvetica,sans-Serif" font-size="10.00">llvm::logicalview::</text>
<text xml:space="preserve" text-anchor="middle" x="439.25" y="-54.75" font-family="Helvetica,sans-Serif" font-size="10.00">LVTypeParam</text>
</a>
</g>
</g>
<!-- Node1&#45;&gt;Node7 -->
<g id="edge6_Node000001_Node000007" class="edge">
<title>Node1&#45;&gt;Node7</title>
<g id="a_edge6_Node000001_Node000007"><a xlink:title=" ">
<path fill="none" stroke="#63b8ff" d="M360.05,-93.67C372.2,-89.1 384.99,-84.29 396.63,-79.91"/>
<polygon fill="#63b8ff" stroke="#63b8ff" points="359.11,-90.28 350.99,-97.08 361.58,-96.83 359.11,-90.28"/>
</a>
</g>
</g>
<!-- Node8 -->
<g id="Node000008" class="node">
<title>Node8</title>
<g id="a_Node000008"><a xlink:href="classllvm_1_1logicalview_1_1LVTypeSubrange.html" target="_top" xlink:title=" ">
<polygon fill="white" stroke="#666666" points="486.25,-30.5 392.25,-30.5 392.25,0 486.25,0 486.25,-30.5"/>
<text xml:space="preserve" text-anchor="start" x="400.25" y="-17" font-family="Helvetica,sans-Serif" font-size="10.00">llvm::logicalview::</text>
<text xml:space="preserve" text-anchor="middle" x="439.25" y="-5.75" font-family="Helvetica,sans-Serif" font-size="10.00">LVTypeSubrange</text>
</a>
</g>
</g>
<!-- Node1&#45;&gt;Node8 -->
<g id="edge7_Node000001_Node000008" class="edge">
<title>Node1&#45;&gt;Node8</title>
<g id="a_edge7_Node000001_Node000008"><a xlink:title=" ">
<path fill="none" stroke="#63b8ff" d="M331.14,-89.8C346.89,-74.58 368.67,-54.93 390,-40.25 394.74,-36.99 399.96,-33.86 405.17,-30.99"/>
<polygon fill="#63b8ff" stroke="#63b8ff" points="328.82,-87.18 324.13,-96.68 333.72,-92.17 328.82,-87.18"/>
</a>
</g>
</g>
<!-- Node2 -->
<g id="Node000002" class="node">
<title>Node2</title>
<g id="a_Node000002"><a xlink:href="classllvm_1_1logicalview_1_1LVElement.html" target="_top" xlink:title=" ">
<polygon fill="white" stroke="#666666" points="224,-128.5 130,-128.5 130,-98 224,-98 224,-128.5"/>
<text xml:space="preserve" text-anchor="start" x="138" y="-115" font-family="Helvetica,sans-Serif" font-size="10.00">llvm::logicalview::</text>
<text xml:space="preserve" text-anchor="middle" x="177" y="-103.75" font-family="Helvetica,sans-Serif" font-size="10.00">LVElement</text>
</a>
</g>
</g>
<!-- Node2&#45;&gt;Node1 -->
<g id="edge1_Node000001_Node000002" class="edge">
<title>Node2&#45;&gt;Node1</title>
<g id="a_edge1_Node000001_Node000002"><a xlink:title=" ">
<path fill="none" stroke="#63b8ff" d="M235.56,-113.25C243.7,-113.25 251.97,-113.25 259.86,-113.25"/>
<polygon fill="#63b8ff" stroke="#63b8ff" points="235.72,-109.75 225.72,-113.25 235.72,-116.75 235.72,-109.75"/>
</a>
</g>
</g>
<!-- Node3 -->
<g id="Node000003" class="node">
<title>Node3</title>
<g id="a_Node000003"><a xlink:href="classllvm_1_1logicalview_1_1LVObject.html" target="_top" xlink:title=" ">
<polygon fill="white" stroke="#666666" points="94,-128.5 0,-128.5 0,-98 94,-98 94,-128.5"/>
<text xml:space="preserve" text-anchor="start" x="8" y="-115" font-family="Helvetica,sans-Serif" font-size="10.00">llvm::logicalview::</text>
<text xml:space="preserve" text-anchor="middle" x="47" y="-103.75" font-family="Helvetica,sans-Serif" font-size="10.00">LVObject</text>
</a>
</g>
</g>
<!-- Node3&#45;&gt;Node2 -->
<g id="edge2_Node000002_Node000003" class="edge">
<title>Node3&#45;&gt;Node2</title>
<g id="a_edge2_Node000002_Node000003"><a xlink:title=" ">
<path fill="none" stroke="#63b8ff" d="M105.56,-113.25C113.7,-113.25 121.97,-113.25 129.86,-113.25"/>
<polygon fill="#63b8ff" stroke="#63b8ff" points="105.72,-109.75 95.72,-113.25 105.72,-116.75 105.72,-109.75"/>
</a>
</g>
</g>
</g>
</svg>
