<?xml version="1.0" encoding="UTF-8" standalone="no"?>
<!DOCTYPE svg PUBLIC "-//W3C//DTD SVG 1.1//EN"
 "http://www.w3.org/Graphics/SVG/1.1/DTD/svg11.dtd">
<!-- Generated by graphviz version 14.1.3 (20260303.0454)
 -->
<!-- Title: llvm::orc::UnexpectedSymbolDefinitions Pages: 1 -->
<svg width="278pt" height="246pt"
 viewBox="0.00 0.00 278.00 246.00" xmlns="http://www.w3.org/2000/svg" xmlns:xlink="http://www.w3.org/1999/xlink">
<g id="graph0" class="graph" transform="scale(1 1) rotate(0) translate(4 242)">
<title>llvm::orc::UnexpectedSymbolDefinitions</title>
<!-- Node1 -->
<g id="Node000001" class="node">
<title>Node1</title>
<g id="a_Node000001"><a xlink:title="Errors of this type should be returned if a module contains definitions for symbols that are not clai...">
<polygon fill="#999999" stroke="#666666" points="145,-30.5 0,-30.5 0,0 145,0 145,-30.5"/>
<text xml:space="preserve" text-anchor="start" x="8" y="-17" font-family="Helvetica,sans-Serif" font-size="10.00">llvm::orc::UnexpectedSymbol</text>
<text xml:space="preserve" text-anchor="middle" x="72.5" y="-5.75" font-family="Helvetica,sans-Serif" font-size="10.00">Definitions</text>
</a>
</g>
</g>
<!-- Node2 -->
<g id="Node000002" class="node">
<title>Node2</title>
<g id="a_Node000002"><a xlink:href="classllvm_1_1ErrorInfo.html" target="_top" xlink:title=" ">
<polygon fill="white" stroke="#666666" points="142,-98 3,-98 3,-67.5 142,-67.5 142,-98"/>
<text xml:space="preserve" text-anchor="start" x="11" y="-84.5" font-family="Helvetica,sans-Serif" font-size="10.00">llvm::ErrorInfo&lt; Unexpected</text>
<text xml:space="preserve" text-anchor="middle" x="72.5" y="-73.25" font-family="Helvetica,sans-Serif" font-size="10.00">SymbolDefinitions &gt;</text>
</a>
</g>
</g>
<!-- Node2&#45;&gt;Node1 -->
<g id="edge1_Node000001_Node000002" class="edge">
<title>Node2&#45;&gt;Node1</title>
<g id="a_edge1_Node000001_Node000002"><a xlink:title=" ">
<path fill="none" stroke="#63b8ff" d="M72.5,-55.84C72.5,-47.3 72.5,-38.12 72.5,-30.75"/>
<polygon fill="#63b8ff" stroke="#63b8ff" points="69,-55.7 72.5,-65.7 76,-55.7 69,-55.7"/>
</a>
</g>
</g>
<!-- Node3 -->
<g id="Node000003" class="node">
<title>Node3</title>
<g id="a_Node000003"><a xlink:href="classllvm_1_1ErrorInfoBase.html" target="_top" xlink:title="Base class for error info classes.">
<polygon fill="white" stroke="#666666" points="118.5,-238 18.5,-238 18.5,-218.75 118.5,-218.75 118.5,-238"/>
<text xml:space="preserve" text-anchor="middle" x="68.5" y="-224.5" font-family="Helvetica,sans-Serif" font-size="10.00">llvm::ErrorInfoBase</text>
</a>
</g>
</g>
<!-- Node3&#45;&gt;Node2 -->
<g id="edge2_Node000002_Node000003" class="edge">
<title>Node3&#45;&gt;Node2</title>
<g id="a_edge2_Node000002_Node000003"><a xlink:title=" ">
<path fill="none" stroke="#63b8ff" d="M69.07,-207.09C69.89,-177.62 71.39,-123.71 72.1,-98.05"/>
<polygon fill="#63b8ff" stroke="#63b8ff" points="65.57,-206.78 68.79,-216.88 72.57,-206.98 65.57,-206.78"/>
</a>
</g>
</g>
<!-- Node4 -->
<g id="Node000004" class="node">
<title>Node4</title>
<g id="a_Node000004"><a xlink:href="classllvm_1_1ErrorInfo.html" target="_top" xlink:title="Base class for user error types.">
<polygon fill="white" stroke="#666666" points="202.5,-181.75 84.5,-181.75 84.5,-151.25 202.5,-151.25 202.5,-181.75"/>
<text xml:space="preserve" text-anchor="start" x="92.5" y="-168.25" font-family="Helvetica,sans-Serif" font-size="10.00">llvm::ErrorInfo&lt; ThisErr</text>
<text xml:space="preserve" text-anchor="middle" x="143.5" y="-157" font-family="Helvetica,sans-Serif" font-size="10.00">T, ParentErrT &gt;</text>
</a>
</g>
</g>
<!-- Node3&#45;&gt;Node4 -->
<g id="edge4_Node000004_Node000003" class="edge">
<title>Node3&#45;&gt;Node4</title>
<g id="a_edge4_Node000004_Node000003"><a xlink:title=" ">
<path fill="none" stroke="#63b8ff" d="M88.69,-211.25C100.09,-202.15 114.22,-190.88 125.28,-182.05"/>
<polygon fill="#63b8ff" stroke="#63b8ff" points="86.71,-208.36 81.07,-217.34 91.07,-213.83 86.71,-208.36"/>
</a>
</g>
</g>
<!-- Node4&#45;&gt;Node2 -->
<g id="edge3_Node000002_Node000004" class="edge">
<title>Node4&#45;&gt;Node2</title>
<g id="a_edge3_Node000002_Node000004"><a xlink:title=" ">
<path fill="none" stroke="orange" stroke-dasharray="5,2" d="M123.59,-142.58C111.24,-128.36 95.75,-110.52 85.08,-98.24"/>
<polygon fill="orange" stroke="orange" points="120.61,-144.49 129.81,-149.74 125.9,-139.9 120.61,-144.49"/>
</a>
</g>
<text xml:space="preserve" text-anchor="start" x="117.36" y="-122" font-family="Helvetica,sans-Serif" font-size="10.00" fill="grey">&lt; UnexpectedSymbolDefinitions &gt;</text>
</g>
</g>
</svg>
