<?xml version="1.0" encoding="UTF-8" standalone="no"?>
<!DOCTYPE svg PUBLIC "-//W3C//DTD SVG 1.1//EN"
 "http://www.w3.org/Graphics/SVG/1.1/DTD/svg11.dtd">
<!-- Generated by graphviz version 14.1.3 (20260303.0454)
 -->
<!-- Title: llvm::FunctionPass Pages: 1 -->
<svg width="639pt" height="1547pt"
 viewBox="0.00 0.00 639.00 1547.00" xmlns="http://www.w3.org/2000/svg" xmlns:xlink="http://www.w3.org/1999/xlink">
<g id="graph0" class="graph" transform="scale(1 1) rotate(0) translate(4 1542.88)">
<title>llvm::FunctionPass</title>
<!-- Node1 -->
<g id="Node000001" class="node">
<title>Node1</title>
<g id="a_Node000001"><a xlink:title="FunctionPass class &#45; This class is used to implement most global optimizations.">
<polygon fill="#999999" stroke="#666666" points="198.5,-715.25 98.5,-715.25 98.5,-696 198.5,-696 198.5,-715.25"/>
<text xml:space="preserve" text-anchor="middle" x="148.5" y="-701.75" font-family="Helvetica,sans-Serif" font-size="10.00">llvm::FunctionPass</text>
</a>
</g>
</g>
<!-- Node3 -->
<g id="Node000003" class="node">
<title>Node3</title>
<g id="a_Node000003"><a xlink:href="classAMDGPUAnnotateUniformValuesLegacy.html" target="_top" xlink:title=" ">
<polygon fill="white" stroke="#666666" points="410.25,-1538.88 247.25,-1538.88 247.25,-1508.38 410.25,-1508.38 410.25,-1538.88"/>
<text xml:space="preserve" text-anchor="start" x="255.25" y="-1525.38" font-family="Helvetica,sans-Serif" font-size="10.00">AMDGPUAnnotateUniformValues</text>
<text xml:space="preserve" text-anchor="middle" x="328.75" y="-1514.12" font-family="Helvetica,sans-Serif" font-size="10.00">Legacy</text>
</a>
</g>
</g>
<!-- Node1&#45;&gt;Node3 -->
<g id="edge2_Node000001_Node000003" class="edge">
<title>Node1&#45;&gt;Node3</title>
<g id="a_edge2_Node000001_Node000003"><a xlink:title=" ">
<path fill="none" stroke="#63b8ff" d="M150.36,-726.83C155.4,-846.88 182.76,-1438.17 234.5,-1498.62 238.1,-1502.83 242.31,-1506.36 246.94,-1509.33"/>
<polygon fill="#63b8ff" stroke="#63b8ff" points="153.87,-726.99 149.96,-717.14 146.87,-727.28 153.87,-726.99"/>
</a>
</g>
</g>
<!-- Node4 -->
<g id="Node000004" class="node">
<title>Node4</title>
<g id="a_Node000004"><a xlink:href="classAMDGPULateCodeGenPrepareLegacy.html" target="_top" xlink:title=" ">
<polygon fill="white" stroke="#666666" points="405.75,-1489.88 251.75,-1489.88 251.75,-1459.38 405.75,-1459.38 405.75,-1489.88"/>
<text xml:space="preserve" text-anchor="start" x="259.75" y="-1476.38" font-family="Helvetica,sans-Serif" font-size="10.00">AMDGPULateCodeGenPrepare</text>
<text xml:space="preserve" text-anchor="middle" x="328.75" y="-1465.12" font-family="Helvetica,sans-Serif" font-size="10.00">Legacy</text>
</a>
</g>
</g>
<!-- Node1&#45;&gt;Node4 -->
<g id="edge3_Node000001_Node000004" class="edge">
<title>Node1&#45;&gt;Node4</title>
<g id="a_edge3_Node000001_Node000004"><a xlink:title=" ">
<path fill="none" stroke="#63b8ff" d="M150.51,-726.97C156.18,-842.98 185.58,-1394.43 234.5,-1450.62 239.22,-1456.05 244.98,-1460.32 251.31,-1463.69"/>
<polygon fill="#63b8ff" stroke="#63b8ff" points="154.01,-726.89 150.03,-717.07 147.02,-727.22 154.01,-726.89"/>
</a>
</g>
</g>
<!-- Node5 -->
<g id="Node000005" class="node">
<title>Node5</title>
<g id="a_Node000005"><a xlink:href="classSIAnnotateControlFlowLegacy.html" target="_top" xlink:title=" ">
<polygon fill="white" stroke="#666666" points="403.12,-1441.25 254.38,-1441.25 254.38,-1422 403.12,-1422 403.12,-1441.25"/>
<text xml:space="preserve" text-anchor="middle" x="328.75" y="-1427.75" font-family="Helvetica,sans-Serif" font-size="10.00">SIAnnotateControlFlowLegacy</text>
</a>
</g>
</g>
<!-- Node1&#45;&gt;Node5 -->
<g id="edge4_Node000001_Node000005" class="edge">
<title>Node1&#45;&gt;Node5</title>
<g id="a_edge4_Node000001_Node000005"><a xlink:title=" ">
<path fill="none" stroke="#63b8ff" d="M150.59,-727.01C156.5,-839.75 186.36,-1361.93 234.5,-1413.62 240.01,-1419.54 246.82,-1423.85 254.24,-1426.95"/>
<polygon fill="#63b8ff" stroke="#63b8ff" points="154.09,-726.92 150.07,-717.11 147.09,-727.28 154.09,-726.92"/>
</a>
</g>
</g>
<!-- Node6 -->
<g id="Node000006" class="node">
<title>Node6</title>
<g id="a_Node000006"><a xlink:href="classllvm_1_1AAResultsWrapperPass.html" target="_top" xlink:title="A wrapper pass to provide the legacy pass manager access to a suitably prepared AAResults object.">
<polygon fill="white" stroke="#666666" points="401.62,-1404.25 255.88,-1404.25 255.88,-1385 401.62,-1385 401.62,-1404.25"/>
<text xml:space="preserve" text-anchor="middle" x="328.75" y="-1390.75" font-family="Helvetica,sans-Serif" font-size="10.00">llvm::AAResultsWrapperPass</text>
</a>
</g>
</g>
<!-- Node1&#45;&gt;Node6 -->
<g id="edge5_Node000001_Node000006" class="edge">
<title>Node1&#45;&gt;Node6</title>
<g id="a_edge5_Node000001_Node000006"><a xlink:title=" ">
<path fill="none" stroke="#63b8ff" d="M150.74,-726.87C157.27,-835.61 189.14,-1326.74 234.5,-1375.62 240.34,-1381.92 247.66,-1386.45 255.61,-1389.66"/>
<polygon fill="#63b8ff" stroke="#63b8ff" points="154.24,-726.84 150.16,-717.07 147.26,-727.26 154.24,-726.84"/>
</a>
</g>
</g>
<!-- Node7 -->
<g id="Node000007" class="node">
<title>Node7</title>
<g id="a_Node000007"><a xlink:href="classllvm_1_1AssignmentTrackingAnalysis.html" target="_top" xlink:title=" ">
<polygon fill="white" stroke="#666666" points="393.38,-1366.88 264.12,-1366.88 264.12,-1336.38 393.38,-1336.38 393.38,-1366.88"/>
<text xml:space="preserve" text-anchor="start" x="272.12" y="-1353.38" font-family="Helvetica,sans-Serif" font-size="10.00">llvm::AssignmentTracking</text>
<text xml:space="preserve" text-anchor="middle" x="328.75" y="-1342.12" font-family="Helvetica,sans-Serif" font-size="10.00">Analysis</text>
</a>
</g>
</g>
<!-- Node1&#45;&gt;Node7 -->
<g id="edge6_Node000001_Node000007" class="edge">
<title>Node1&#45;&gt;Node7</title>
<g id="a_edge6_Node000001_Node000007"><a xlink:title=" ">
<path fill="none" stroke="#63b8ff" d="M149.35,-726.88C149.1,-825.32 153.01,-1236.08 234.5,-1327.62 242.28,-1336.37 252.78,-1342.12 263.93,-1345.87"/>
<polygon fill="#63b8ff" stroke="#63b8ff" points="152.85,-727.09 149.4,-717.08 145.85,-727.06 152.85,-727.09"/>
</a>
</g>
</g>
<!-- Node8 -->
<g id="Node000008" class="node">
<title>Node8</title>
<g id="a_Node000008"><a xlink:href="classllvm_1_1BasicAAWrapperPass.html" target="_top" xlink:title="Legacy wrapper pass to provide the BasicAAResult object.">
<polygon fill="white" stroke="#666666" points="397.12,-1318.25 260.38,-1318.25 260.38,-1299 397.12,-1299 397.12,-1318.25"/>
<text xml:space="preserve" text-anchor="middle" x="328.75" y="-1304.75" font-family="Helvetica,sans-Serif" font-size="10.00">llvm::BasicAAWrapperPass</text>
</a>
</g>
</g>
<!-- Node1&#45;&gt;Node8 -->
<g id="edge7_Node000001_Node000008" class="edge">
<title>Node1&#45;&gt;Node8</title>
<g id="a_edge7_Node000001_Node000008"><a xlink:title=" ">
<path fill="none" stroke="#63b8ff" d="M149.46,-726.85C149.72,-821.77 155.69,-1206.24 234.5,-1289.62 241.42,-1296.95 250.34,-1301.86 259.91,-1305.1"/>
<polygon fill="#63b8ff" stroke="#63b8ff" points="152.96,-726.95 149.45,-716.96 145.96,-726.96 152.96,-726.95"/>
</a>
</g>
</g>
<!-- Node9 -->
<g id="Node000009" class="node">
<title>Node9</title>
<g id="a_Node000009"><a xlink:href="classllvm_1_1BlockFrequencyInfoWrapperPass.html" target="_top" xlink:title="Legacy analysis pass which computes BlockFrequencyInfo.">
<polygon fill="white" stroke="#666666" points="392.25,-1280.88 265.25,-1280.88 265.25,-1250.38 392.25,-1250.38 392.25,-1280.88"/>
<text xml:space="preserve" text-anchor="start" x="273.25" y="-1267.38" font-family="Helvetica,sans-Serif" font-size="10.00">llvm::BlockFrequencyInfo</text>
<text xml:space="preserve" text-anchor="middle" x="328.75" y="-1256.12" font-family="Helvetica,sans-Serif" font-size="10.00">WrapperPass</text>
</a>
</g>
</g>
<!-- Node1&#45;&gt;Node9 -->
<g id="edge8_Node000001_Node000009" class="edge">
<title>Node1&#45;&gt;Node9</title>
<g id="a_edge8_Node000001_Node000009"><a xlink:title=" ">
<path fill="none" stroke="#63b8ff" d="M149.89,-726.65C151.96,-815.97 164.46,-1162.86 234.5,-1240.62 242.58,-1249.59 253.49,-1255.49 265,-1259.34"/>
<polygon fill="#63b8ff" stroke="#63b8ff" points="153.39,-726.84 149.68,-716.92 146.39,-726.99 153.39,-726.84"/>
</a>
</g>
</g>
<!-- Node10 -->
<g id="Node000010" class="node">
<title>Node10</title>
<g id="a_Node000010"><a xlink:href="classllvm_1_1BranchProbabilityInfoWrapperPass.html" target="_top" xlink:title="Legacy analysis pass which computes BranchProbabilityInfo.">
<polygon fill="white" stroke="#666666" points="395.25,-1231.88 262.25,-1231.88 262.25,-1201.38 395.25,-1201.38 395.25,-1231.88"/>
<text xml:space="preserve" text-anchor="start" x="270.25" y="-1218.38" font-family="Helvetica,sans-Serif" font-size="10.00">llvm::BranchProbabilityInfo</text>
<text xml:space="preserve" text-anchor="middle" x="328.75" y="-1207.12" font-family="Helvetica,sans-Serif" font-size="10.00">WrapperPass</text>
</a>
</g>
</g>
<!-- Node1&#45;&gt;Node10 -->
<g id="edge9_Node000001_Node000010" class="edge">
<title>Node1&#45;&gt;Node10</title>
<g id="a_edge9_Node000001_Node000010"><a xlink:title=" ">
<path fill="none" stroke="#63b8ff" d="M150.25,-727.18C153.64,-812.2 170.3,-1123.14 234.5,-1192.62 241.87,-1200.61 251.51,-1206.08 261.8,-1209.81"/>
<polygon fill="#63b8ff" stroke="#63b8ff" points="153.75,-727.11 149.88,-717.25 146.75,-727.37 153.75,-727.11"/>
</a>
</g>
</g>
<!-- Node11 -->
<g id="Node000011" class="node">
<title>Node11</title>
<g id="a_Node000011"><a xlink:href="classllvm_1_1CycleInfoWrapperPass.html" target="_top" xlink:title="Legacy analysis pass which computes a CycleInfo.">
<polygon fill="white" stroke="#666666" points="399,-1183.25 258.5,-1183.25 258.5,-1164 399,-1164 399,-1183.25"/>
<text xml:space="preserve" text-anchor="middle" x="328.75" y="-1169.75" font-family="Helvetica,sans-Serif" font-size="10.00">llvm::CycleInfoWrapperPass</text>
</a>
</g>
</g>
<!-- Node1&#45;&gt;Node11 -->
<g id="edge10_Node000001_Node000011" class="edge">
<title>Node1&#45;&gt;Node11</title>
<g id="a_edge10_Node000001_Node000011"><a xlink:title=" ">
<path fill="none" stroke="#63b8ff" d="M150.42,-726.42C154.41,-806.53 172.85,-1093.73 234.5,-1155.62 241.13,-1162.28 249.43,-1166.87 258.33,-1169.98"/>
<polygon fill="#63b8ff" stroke="#63b8ff" points="153.94,-726.74 149.97,-716.92 146.95,-727.08 153.94,-726.74"/>
</a>
</g>
</g>
<!-- Node12 -->
<g id="Node000012" class="node">
<title>Node12</title>
<g id="a_Node000012"><a xlink:href="classllvm_1_1DOTGraphTraitsPrinterWrapperPass.html" target="_top" xlink:title=" ">
<polygon fill="white" stroke="#666666" points="410.25,-1146.12 247.25,-1146.12 247.25,-1093.12 410.25,-1093.12 410.25,-1146.12"/>
<text xml:space="preserve" text-anchor="start" x="255.25" y="-1132.62" font-family="Helvetica,sans-Serif" font-size="10.00">llvm::DOTGraphTraitsPrinter</text>
<text xml:space="preserve" text-anchor="start" x="255.25" y="-1121.38" font-family="Helvetica,sans-Serif" font-size="10.00">WrapperPass&lt; AnalysisT,</text>
<text xml:space="preserve" text-anchor="start" x="255.25" y="-1110.12" font-family="Helvetica,sans-Serif" font-size="10.00"> IsSimple, GraphT, AnalysisGraph</text>
<text xml:space="preserve" text-anchor="middle" x="328.75" y="-1098.88" font-family="Helvetica,sans-Serif" font-size="10.00">TraitsT &gt;</text>
</a>
</g>
</g>
<!-- Node1&#45;&gt;Node12 -->
<g id="edge11_Node000001_Node000012" class="edge">
<title>Node1&#45;&gt;Node12</title>
<g id="a_edge11_Node000001_Node000012"><a xlink:title=" ">
<path fill="none" stroke="#63b8ff" d="M151.62,-726.88C159.15,-798.54 186.78,-1029.8 234.5,-1084.62 238.13,-1088.8 242.31,-1092.48 246.85,-1095.72"/>
<polygon fill="#63b8ff" stroke="#63b8ff" points="155.1,-726.54 150.6,-716.95 148.14,-727.25 155.1,-726.54"/>
</a>
</g>
</g>
<!-- Node13 -->
<g id="Node000013" class="node">
<title>Node13</title>
<g id="a_Node000013"><a xlink:href="classllvm_1_1DOTGraphTraitsViewerWrapperPass.html" target="_top" xlink:title=" ">
<polygon fill="white" stroke="#666666" points="410.25,-1075.12 247.25,-1075.12 247.25,-1022.12 410.25,-1022.12 410.25,-1075.12"/>
<text xml:space="preserve" text-anchor="start" x="255.25" y="-1061.62" font-family="Helvetica,sans-Serif" font-size="10.00">llvm::DOTGraphTraitsViewer</text>
<text xml:space="preserve" text-anchor="start" x="255.25" y="-1050.38" font-family="Helvetica,sans-Serif" font-size="10.00">WrapperPass&lt; AnalysisT,</text>
<text xml:space="preserve" text-anchor="start" x="255.25" y="-1039.12" font-family="Helvetica,sans-Serif" font-size="10.00"> IsSimple, GraphT, AnalysisGraph</text>
<text xml:space="preserve" text-anchor="middle" x="328.75" y="-1027.88" font-family="Helvetica,sans-Serif" font-size="10.00">TraitsT &gt;</text>
</a>
</g>
</g>
<!-- Node1&#45;&gt;Node13 -->
<g id="edge12_Node000001_Node000013" class="edge">
<title>Node1&#45;&gt;Node13</title>
<g id="a_edge12_Node000001_Node000013"><a xlink:title=" ">
<path fill="none" stroke="#63b8ff" d="M149.21,-726.9C149.62,-781.54 158.18,-928.4 234.5,-1012.62 238.23,-1016.74 242.48,-1020.39 247.07,-1023.62"/>
<polygon fill="#63b8ff" stroke="#63b8ff" points="152.71,-727.14 149.23,-717.13 145.71,-727.12 152.71,-727.14"/>
</a>
</g>
</g>
<!-- Node14 -->
<g id="Node000014" class="node">
<title>Node14</title>
<g id="a_Node000014"><a xlink:href="classllvm_1_1DependenceAnalysisWrapperPass.html" target="_top" xlink:title="Legacy pass manager pass to access dependence information.">
<polygon fill="white" stroke="#666666" points="394.88,-1003.88 262.62,-1003.88 262.62,-973.38 394.88,-973.38 394.88,-1003.88"/>
<text xml:space="preserve" text-anchor="start" x="270.62" y="-990.38" font-family="Helvetica,sans-Serif" font-size="10.00">llvm::DependenceAnalysis</text>
<text xml:space="preserve" text-anchor="middle" x="328.75" y="-979.12" font-family="Helvetica,sans-Serif" font-size="10.00">WrapperPass</text>
</a>
</g>
</g>
<!-- Node1&#45;&gt;Node14 -->
<g id="edge13_Node000001_Node000014" class="edge">
<title>Node1&#45;&gt;Node14</title>
<g id="a_edge13_Node000001_Node000014"><a xlink:title=" ">
<path fill="none" stroke="#63b8ff" d="M149.95,-726.98C152.21,-776.41 164.91,-899.43 234.5,-964.62 242.31,-971.94 252.04,-977.1 262.25,-980.72"/>
<polygon fill="#63b8ff" stroke="#63b8ff" points="153.46,-726.98 149.62,-717.1 146.46,-727.21 153.46,-726.98"/>
</a>
</g>
</g>
<!-- Node15 -->
<g id="Node000015" class="node">
<title>Node15</title>
<g id="a_Node000015"><a xlink:href="classllvm_1_1DominanceFrontierWrapperPass.html" target="_top" xlink:title=" ">
<polygon fill="white" stroke="#666666" points="419.25,-955.25 238.25,-955.25 238.25,-936 419.25,-936 419.25,-955.25"/>
<text xml:space="preserve" text-anchor="middle" x="328.75" y="-941.75" font-family="Helvetica,sans-Serif" font-size="10.00">llvm::DominanceFrontierWrapperPass</text>
</a>
</g>
</g>
<!-- Node1&#45;&gt;Node15 -->
<g id="edge14_Node000001_Node000015" class="edge">
<title>Node1&#45;&gt;Node15</title>
<g id="a_edge14_Node000001_Node000015"><a xlink:title=" ">
<path fill="none" stroke="#63b8ff" d="M151,-726.9C155.37,-771.55 172.05,-875.25 234.5,-927.62 238.16,-930.7 242.19,-933.31 246.46,-935.51"/>
<polygon fill="#63b8ff" stroke="#63b8ff" points="154.5,-726.68 150.17,-717.01 147.52,-727.27 154.5,-726.68"/>
</a>
</g>
</g>
<!-- Node16 -->
<g id="Node000016" class="node">
<title>Node16</title>
<g id="a_Node000016"><a xlink:href="classllvm_1_1DominatorTreeWrapperPass.html" target="_top" xlink:title="Legacy analysis pass which computes a DominatorTree.">
<polygon fill="white" stroke="#666666" points="410.25,-918.25 247.25,-918.25 247.25,-899 410.25,-899 410.25,-918.25"/>
<text xml:space="preserve" text-anchor="middle" x="328.75" y="-904.75" font-family="Helvetica,sans-Serif" font-size="10.00">llvm::DominatorTreeWrapperPass</text>
</a>
</g>
</g>
<!-- Node1&#45;&gt;Node16 -->
<g id="edge15_Node000001_Node000016" class="edge">
<title>Node1&#45;&gt;Node16</title>
<g id="a_edge15_Node000001_Node000016"><a xlink:title=" ">
<path fill="none" stroke="#63b8ff" d="M152.8,-726.81C160.04,-765.8 181.17,-848.78 234.5,-890.62 238.52,-893.78 242.94,-896.44 247.59,-898.67"/>
<polygon fill="#63b8ff" stroke="#63b8ff" points="156.27,-726.35 151.13,-717.09 149.37,-727.54 156.27,-726.35"/>
</a>
</g>
</g>
<!-- Node17 -->
<g id="Node000017" class="node">
<title>Node17</title>
<g id="a_Node000017"><a xlink:href="classllvm_1_1InstructionCombiningPass.html" target="_top" xlink:title="The legacy pass manager&#39;s instcombine pass.">
<polygon fill="white" stroke="#666666" points="406.12,-881.25 251.38,-881.25 251.38,-862 406.12,-862 406.12,-881.25"/>
<text xml:space="preserve" text-anchor="middle" x="328.75" y="-867.75" font-family="Helvetica,sans-Serif" font-size="10.00">llvm::InstructionCombiningPass</text>
</a>
</g>
</g>
<!-- Node1&#45;&gt;Node17 -->
<g id="edge16_Node000001_Node000017" class="edge">
<title>Node1&#45;&gt;Node17</title>
<g id="a_edge16_Node000001_Node000017"><a xlink:title=" ">
<path fill="none" stroke="#63b8ff" d="M155.29,-726.41C165.51,-759.05 190.02,-821.87 234.5,-853.62 239.6,-857.27 245.24,-860.22 251.15,-862.62"/>
<polygon fill="#63b8ff" stroke="#63b8ff" points="158.68,-725.55 152.48,-716.96 151.97,-727.54 158.68,-725.55"/>
</a>
</g>
</g>
<!-- Node18 -->
<g id="Node000018" class="node">
<title>Node18</title>
<g id="a_Node000018"><a xlink:href="structllvm_1_1LCSSAVerificationPass.html" target="_top" xlink:title=" ">
<polygon fill="white" stroke="#666666" points="400.12,-844.25 257.38,-844.25 257.38,-825 400.12,-825 400.12,-844.25"/>
<text xml:space="preserve" text-anchor="middle" x="328.75" y="-830.75" font-family="Helvetica,sans-Serif" font-size="10.00">llvm::LCSSAVerificationPass</text>
</a>
</g>
</g>
<!-- Node1&#45;&gt;Node18 -->
<g id="edge17_Node000001_Node000018" class="edge">
<title>Node1&#45;&gt;Node18</title>
<g id="a_edge17_Node000001_Node000018"><a xlink:title=" ">
<path fill="none" stroke="#63b8ff" d="M158.97,-725.56C172.16,-751 198.54,-794.38 234.5,-816.62 241.37,-820.88 249.03,-824.16 256.92,-826.69"/>
<polygon fill="#63b8ff" stroke="#63b8ff" points="162.26,-724.32 154.67,-716.92 156,-727.44 162.26,-724.32"/>
</a>
</g>
</g>
<!-- Node19 -->
<g id="Node000019" class="node">
<title>Node19</title>
<g id="a_Node000019"><a xlink:href="classllvm_1_1LPPassManager.html" target="_top" xlink:title=" ">
<polygon fill="white" stroke="#666666" points="384.75,-807.25 272.75,-807.25 272.75,-788 384.75,-788 384.75,-807.25"/>
<text xml:space="preserve" text-anchor="middle" x="328.75" y="-793.75" font-family="Helvetica,sans-Serif" font-size="10.00">llvm::LPPassManager</text>
</a>
</g>
</g>
<!-- Node1&#45;&gt;Node19 -->
<g id="edge18_Node000001_Node000019" class="edge">
<title>Node1&#45;&gt;Node19</title>
<g id="a_edge18_Node000001_Node000019"><a xlink:title=" ">
<path fill="none" stroke="#63b8ff" d="M165.77,-724.2C181.61,-741.06 207.23,-765.27 234.5,-778.62 246.22,-784.36 259.59,-788.37 272.47,-791.17"/>
<polygon fill="#63b8ff" stroke="#63b8ff" points="168.37,-721.86 159.05,-716.82 163.2,-726.57 168.37,-721.86"/>
</a>
</g>
</g>
<!-- Node20 -->
<g id="Node000020" class="node">
<title>Node20</title>
<g id="a_Node000020"><a xlink:href="classllvm_1_1LazyBlockFrequencyInfoPass.html" target="_top" xlink:title="This is an alternative analysis pass to BlockFrequencyInfoWrapperPass.">
<polygon fill="white" stroke="#666666" points="394.5,-769.88 263,-769.88 263,-739.38 394.5,-739.38 394.5,-769.88"/>
<text xml:space="preserve" text-anchor="start" x="271" y="-756.38" font-family="Helvetica,sans-Serif" font-size="10.00">llvm::LazyBlockFrequency</text>
<text xml:space="preserve" text-anchor="middle" x="328.75" y="-745.12" font-family="Helvetica,sans-Serif" font-size="10.00">InfoPass</text>
</a>
</g>
</g>
<!-- Node1&#45;&gt;Node20 -->
<g id="edge19_Node000001_Node000020" class="edge">
<title>Node1&#45;&gt;Node20</title>
<g id="a_edge19_Node000001_Node000020"><a xlink:title=" ">
<path fill="none" stroke="#63b8ff" d="M195.41,-718.71C208.07,-722.28 221.81,-726.13 234.5,-729.62 245.65,-732.69 257.56,-735.92 269.02,-739.01"/>
<polygon fill="#63b8ff" stroke="#63b8ff" points="196.65,-715.42 186.08,-716.07 194.75,-722.16 196.65,-715.42"/>
</a>
</g>
</g>
<!-- Node21 -->
<g id="Node000021" class="node">
<title>Node21</title>
<g id="a_Node000021"><a xlink:href="classllvm_1_1LazyBranchProbabilityInfoPass.html" target="_top" xlink:title="This is an alternative analysis pass to BranchProbabilityInfoWrapperPass.">
<polygon fill="white" stroke="#666666" points="397.5,-720.88 260,-720.88 260,-690.38 397.5,-690.38 397.5,-720.88"/>
<text xml:space="preserve" text-anchor="start" x="268" y="-707.38" font-family="Helvetica,sans-Serif" font-size="10.00">llvm::LazyBranchProbability</text>
<text xml:space="preserve" text-anchor="middle" x="328.75" y="-696.12" font-family="Helvetica,sans-Serif" font-size="10.00">InfoPass</text>
</a>
</g>
</g>
<!-- Node1&#45;&gt;Node21 -->
<g id="edge20_Node000001_Node000021" class="edge">
<title>Node1&#45;&gt;Node21</title>
<g id="a_edge20_Node000001_Node000021"><a xlink:title=" ">
<path fill="none" stroke="#63b8ff" d="M210.04,-705.62C226.02,-705.62 243.37,-705.62 259.72,-705.62"/>
<polygon fill="#63b8ff" stroke="#63b8ff" points="210.19,-702.13 200.19,-705.63 210.19,-709.13 210.19,-702.13"/>
</a>
</g>
</g>
<!-- Node22 -->
<g id="Node000022" class="node">
<title>Node22</title>
<g id="a_Node000022"><a xlink:href="classllvm_1_1LazyValueInfoWrapperPass.html" target="_top" xlink:title="Wrapper around LazyValueInfo.">
<polygon fill="white" stroke="#666666" points="408.75,-672.25 248.75,-672.25 248.75,-653 408.75,-653 408.75,-672.25"/>
<text xml:space="preserve" text-anchor="middle" x="328.75" y="-658.75" font-family="Helvetica,sans-Serif" font-size="10.00">llvm::LazyValueInfoWrapperPass</text>
</a>
</g>
</g>
<!-- Node1&#45;&gt;Node22 -->
<g id="edge21_Node000001_Node000022" class="edge">
<title>Node1&#45;&gt;Node22</title>
<g id="a_edge21_Node000001_Node000022"><a xlink:title=" ">
<path fill="none" stroke="#63b8ff" d="M193.92,-692.41C206.94,-688.72 221.25,-684.84 234.5,-681.62 247.51,-678.47 261.62,-675.41 274.83,-672.7"/>
<polygon fill="#63b8ff" stroke="#63b8ff" points="192.96,-689.05 184.31,-695.17 194.89,-695.77 192.96,-689.05"/>
</a>
</g>
</g>
<!-- Node23 -->
<g id="Node000023" class="node">
<title>Node23</title>
<g id="a_Node000023"><a xlink:href="classllvm_1_1LoopInfoWrapperPass.html" target="_top" xlink:title="The legacy pass manager&#39;s analysis pass to compute loop information.">
<polygon fill="white" stroke="#666666" points="396.75,-635.25 260.75,-635.25 260.75,-616 396.75,-616 396.75,-635.25"/>
<text xml:space="preserve" text-anchor="middle" x="328.75" y="-621.75" font-family="Helvetica,sans-Serif" font-size="10.00">llvm::LoopInfoWrapperPass</text>
</a>
</g>
</g>
<!-- Node1&#45;&gt;Node23 -->
<g id="edge22_Node000001_Node000023" class="edge">
<title>Node1&#45;&gt;Node23</title>
<g id="a_edge22_Node000001_Node000023"><a xlink:title=" ">
<path fill="none" stroke="#63b8ff" d="M168.35,-688.06C184.63,-673.87 209.44,-654.53 234.5,-643.62 242.66,-640.07 251.53,-637.22 260.45,-634.92"/>
<polygon fill="#63b8ff" stroke="#63b8ff" points="166.05,-685.42 160.93,-694.7 170.72,-690.63 166.05,-685.42"/>
</a>
</g>
</g>
<!-- Node24 -->
<g id="Node000024" class="node">
<title>Node24</title>
<g id="a_Node000024"><a xlink:href="classllvm_1_1MachineFunctionPass.html" target="_top" xlink:title="MachineFunctionPass &#45; This class adapts the FunctionPass interface to allow convenient creation of pa...">
<polygon fill="#fff0f0" stroke="red" points="397.12,-598.25 260.38,-598.25 260.38,-579 397.12,-579 397.12,-598.25"/>
<text xml:space="preserve" text-anchor="middle" x="328.75" y="-584.75" font-family="Helvetica,sans-Serif" font-size="10.00">llvm::MachineFunctionPass</text>
</a>
</g>
</g>
<!-- Node1&#45;&gt;Node24 -->
<g id="edge23_Node000001_Node000024" class="edge">
<title>Node1&#45;&gt;Node24</title>
<g id="a_edge23_Node000001_Node000024"><a xlink:title=" ">
<path fill="none" stroke="#63b8ff" d="M160.76,-685.84C174.89,-662.92 201.35,-625.87 234.5,-606.62 242.34,-602.07 251.12,-598.64 260.07,-596.07"/>
<polygon fill="#63b8ff" stroke="#63b8ff" points="157.87,-683.85 155.76,-694.23 163.88,-687.43 157.87,-683.85"/>
</a>
</g>
</g>
<!-- Node103 -->
<g id="Node000103" class="node">
<title>Node103</title>
<g id="a_Node000103"><a xlink:href="classllvm_1_1MemoryDependenceWrapperPass.html" target="_top" xlink:title="A wrapper analysis pass for the legacy pass manager that exposes a MemoryDepnedenceResults instance.">
<polygon fill="white" stroke="#666666" points="423,-561.25 234.5,-561.25 234.5,-542 423,-542 423,-561.25"/>
<text xml:space="preserve" text-anchor="middle" x="328.75" y="-547.75" font-family="Helvetica,sans-Serif" font-size="10.00">llvm::MemoryDependenceWrapperPass</text>
</a>
</g>
</g>
<!-- Node1&#45;&gt;Node103 -->
<g id="edge34_Node000001_Node000103" class="edge">
<title>Node1&#45;&gt;Node103</title>
<g id="a_edge34_Node000001_Node000103"><a xlink:title=" ">
<path fill="none" stroke="#63b8ff" d="M156.25,-685.22C167.42,-654.85 192.75,-598.28 234.5,-569.62 239.12,-566.45 244.16,-563.81 249.43,-561.6"/>
<polygon fill="#63b8ff" stroke="#63b8ff" points="153.05,-683.78 153.05,-694.37 159.66,-686.09 153.05,-683.78"/>
</a>
</g>
</g>
<!-- Node104 -->
<g id="Node000104" class="node">
<title>Node104</title>
<g id="a_Node000104"><a xlink:href="classllvm_1_1MemorySSAWrapperPass.html" target="_top" xlink:title="Legacy analysis pass which computes MemorySSA.">
<polygon fill="white" stroke="#666666" points="405.75,-524.25 251.75,-524.25 251.75,-505 405.75,-505 405.75,-524.25"/>
<text xml:space="preserve" text-anchor="middle" x="328.75" y="-510.75" font-family="Helvetica,sans-Serif" font-size="10.00">llvm::MemorySSAWrapperPass</text>
</a>
</g>
</g>
<!-- Node1&#45;&gt;Node104 -->
<g id="edge35_Node000001_Node000104" class="edge">
<title>Node1&#45;&gt;Node104</title>
<g id="a_edge35_Node000001_Node000104"><a xlink:title=" ">
<path fill="none" stroke="#63b8ff" d="M153.4,-685.03C161.52,-648.2 183.85,-571.32 234.5,-532.62 239.61,-528.72 245.33,-525.59 251.35,-523.08"/>
<polygon fill="#63b8ff" stroke="#63b8ff" points="150.06,-683.88 151.48,-694.38 156.92,-685.29 150.06,-683.88"/>
</a>
</g>
</g>
<!-- Node105 -->
<g id="Node000105" class="node">
<title>Node105</title>
<g id="a_Node000105"><a xlink:href="classllvm_1_1OptimizationRemarkEmitterWrapperPass.html" target="_top" xlink:title="OptimizationRemarkEmitter legacy analysis pass.">
<polygon fill="white" stroke="#666666" points="393.38,-486.88 264.12,-486.88 264.12,-456.38 393.38,-456.38 393.38,-486.88"/>
<text xml:space="preserve" text-anchor="start" x="272.12" y="-473.38" font-family="Helvetica,sans-Serif" font-size="10.00">llvm::OptimizationRemark</text>
<text xml:space="preserve" text-anchor="middle" x="328.75" y="-462.12" font-family="Helvetica,sans-Serif" font-size="10.00">EmitterWrapperPass</text>
</a>
</g>
</g>
<!-- Node1&#45;&gt;Node105 -->
<g id="edge36_Node000001_Node000105" class="edge">
<title>Node1&#45;&gt;Node105</title>
<g id="a_edge36_Node000001_Node000105"><a xlink:title=" ">
<path fill="none" stroke="#63b8ff" d="M151.78,-684.63C157.53,-642.28 176.57,-546.34 234.5,-495.62 242.93,-488.25 253.33,-483.09 264.1,-479.49"/>
<polygon fill="#63b8ff" stroke="#63b8ff" points="148.32,-684.09 150.58,-694.44 155.27,-684.94 148.32,-684.09"/>
</a>
</g>
</g>
<!-- Node106 -->
<g id="Node000106" class="node">
<title>Node106</title>
<g id="a_Node000106"><a xlink:href="classllvm_1_1PhiValuesWrapperPass.html" target="_top" xlink:title="Wrapper pass for the legacy pass manager.">
<polygon fill="white" stroke="#666666" points="399.75,-438.25 257.75,-438.25 257.75,-419 399.75,-419 399.75,-438.25"/>
<text xml:space="preserve" text-anchor="middle" x="328.75" y="-424.75" font-family="Helvetica,sans-Serif" font-size="10.00">llvm::PhiValuesWrapperPass</text>
</a>
</g>
</g>
<!-- Node1&#45;&gt;Node106 -->
<g id="edge37_Node000001_Node000106" class="edge">
<title>Node1&#45;&gt;Node106</title>
<g id="a_edge37_Node000001_Node000106"><a xlink:title=" ">
<path fill="none" stroke="#63b8ff" d="M149.76,-684.11C151.6,-634.34 163.49,-510.76 234.5,-447.62 241.17,-441.7 249.17,-437.42 257.65,-434.37"/>
<polygon fill="#63b8ff" stroke="#63b8ff" points="146.26,-683.98 149.51,-694.07 153.26,-684.16 146.26,-683.98"/>
</a>
</g>
</g>
<!-- Node107 -->
<g id="Node000107" class="node">
<title>Node107</title>
<g id="a_Node000107"><a xlink:href="structllvm_1_1PostDominatorTreeWrapperPass.html" target="_top" xlink:title=" ">
<polygon fill="white" stroke="#666666" points="420.38,-401.25 237.12,-401.25 237.12,-382 420.38,-382 420.38,-401.25"/>
<text xml:space="preserve" text-anchor="middle" x="328.75" y="-387.75" font-family="Helvetica,sans-Serif" font-size="10.00">llvm::PostDominatorTreeWrapperPass</text>
</a>
</g>
</g>
<!-- Node1&#45;&gt;Node107 -->
<g id="edge38_Node000001_Node000107" class="edge">
<title>Node1&#45;&gt;Node107</title>
<g id="a_edge38_Node000001_Node000107"><a xlink:title=" ">
<path fill="none" stroke="#63b8ff" d="M148.65,-684.29C147.74,-629.65 153.42,-483.79 234.5,-409.62 237.91,-406.51 241.68,-403.86 245.71,-401.61"/>
<polygon fill="#63b8ff" stroke="#63b8ff" points="145.15,-684.17 148.92,-694.07 152.15,-683.98 145.15,-684.17"/>
</a>
</g>
</g>
<!-- Node108 -->
<g id="Node000108" class="node">
<title>Node108</title>
<g id="a_Node000108"><a xlink:href="classllvm_1_1RGPassManager.html" target="_top" xlink:title="The pass manager to schedule RegionPasses.">
<polygon fill="white" stroke="#666666" points="386.25,-364.25 271.25,-364.25 271.25,-345 386.25,-345 386.25,-364.25"/>
<text xml:space="preserve" text-anchor="middle" x="328.75" y="-350.75" font-family="Helvetica,sans-Serif" font-size="10.00">llvm::RGPassManager</text>
</a>
</g>
</g>
<!-- Node1&#45;&gt;Node108 -->
<g id="edge39_Node000001_Node000108" class="edge">
<title>Node1&#45;&gt;Node108</title>
<g id="a_edge39_Node000001_Node000108"><a xlink:title=" ">
<path fill="none" stroke="#63b8ff" d="M151.95,-684.52C160.05,-618.28 188.2,-416.26 234.5,-372.62 244.46,-363.24 257.76,-358.05 271.2,-355.32"/>
<polygon fill="#63b8ff" stroke="#63b8ff" points="148.52,-683.71 150.81,-694.06 155.47,-684.54 148.52,-683.71"/>
</a>
</g>
</g>
<!-- Node109 -->
<g id="Node000109" class="node">
<title>Node109</title>
<g id="a_Node000109"><a xlink:href="classllvm_1_1RegionInfoPass.html" target="_top" xlink:title=" ">
<polygon fill="white" stroke="#666666" points="383.62,-327.25 273.88,-327.25 273.88,-308 383.62,-308 383.62,-327.25"/>
<text xml:space="preserve" text-anchor="middle" x="328.75" y="-313.75" font-family="Helvetica,sans-Serif" font-size="10.00">llvm::RegionInfoPass</text>
</a>
</g>
</g>
<!-- Node1&#45;&gt;Node109 -->
<g id="edge40_Node000001_Node000109" class="edge">
<title>Node1&#45;&gt;Node109</title>
<g id="a_edge40_Node000001_Node000109"><a xlink:title=" ">
<path fill="none" stroke="#63b8ff" d="M151.41,-684.09C158.19,-612.6 183.5,-384.86 234.5,-335.62 244.94,-325.55 259.22,-320.27 273.47,-317.69"/>
<polygon fill="#63b8ff" stroke="#63b8ff" points="147.93,-683.76 150.5,-694.04 154.9,-684.4 147.93,-683.76"/>
</a>
</g>
</g>
<!-- Node110 -->
<g id="Node000110" class="node">
<title>Node110</title>
<g id="a_Node000110"><a xlink:href="structllvm_1_1ReplaceWithVeclibLegacy.html" target="_top" xlink:title=" ">
<polygon fill="white" stroke="#666666" points="406.12,-290.25 251.38,-290.25 251.38,-271 406.12,-271 406.12,-290.25"/>
<text xml:space="preserve" text-anchor="middle" x="328.75" y="-276.75" font-family="Helvetica,sans-Serif" font-size="10.00">llvm::ReplaceWithVeclibLegacy</text>
</a>
</g>
</g>
<!-- Node1&#45;&gt;Node110 -->
<g id="edge41_Node000001_Node000110" class="edge">
<title>Node1&#45;&gt;Node110</title>
<g id="a_edge41_Node000001_Node000110"><a xlink:title=" ">
<path fill="none" stroke="#63b8ff" d="M150.9,-684.43C156.34,-608.8 178.59,-353.69 234.5,-298.62 239.32,-293.88 244.98,-290.2 251.1,-287.35"/>
<polygon fill="#63b8ff" stroke="#63b8ff" points="147.42,-683.96 150.23,-694.18 154.41,-684.44 147.42,-683.96"/>
</a>
</g>
</g>
<!-- Node111 -->
<g id="Node000111" class="node">
<title>Node111</title>
<g id="a_Node000111"><a xlink:href="classllvm_1_1SCEVAAWrapperPass.html" target="_top" xlink:title="Legacy wrapper pass to provide the SCEVAAResult object.">
<polygon fill="white" stroke="#666666" points="397.88,-253.25 259.62,-253.25 259.62,-234 397.88,-234 397.88,-253.25"/>
<text xml:space="preserve" text-anchor="middle" x="328.75" y="-239.75" font-family="Helvetica,sans-Serif" font-size="10.00">llvm::SCEVAAWrapperPass</text>
</a>
</g>
</g>
<!-- Node1&#45;&gt;Node111 -->
<g id="edge42_Node000001_Node000111" class="edge">
<title>Node1&#45;&gt;Node111</title>
<g id="a_edge42_Node000001_Node000111"><a xlink:title=" ">
<path fill="none" stroke="#63b8ff" d="M150.52,-684.09C154.77,-603.67 173.83,-322.39 234.5,-261.62 241.37,-254.74 250.03,-250.07 259.29,-246.97"/>
<polygon fill="#63b8ff" stroke="#63b8ff" points="147.02,-683.91 150.02,-694.07 154.01,-684.26 147.02,-683.91"/>
</a>
</g>
</g>
<!-- Node112 -->
<g id="Node000112" class="node">
<title>Node112</title>
<g id="a_Node000112"><a xlink:href="classllvm_1_1SPIRVConvergenceRegionAnalysisWrapperPass.html" target="_top" xlink:title=" ">
<polygon fill="white" stroke="#666666" points="408.38,-215.88 249.12,-215.88 249.12,-185.38 408.38,-185.38 408.38,-215.88"/>
<text xml:space="preserve" text-anchor="start" x="257.12" y="-202.38" font-family="Helvetica,sans-Serif" font-size="10.00">llvm::SPIRVConvergenceRegion</text>
<text xml:space="preserve" text-anchor="middle" x="328.75" y="-191.12" font-family="Helvetica,sans-Serif" font-size="10.00">AnalysisWrapperPass</text>
</a>
</g>
</g>
<!-- Node1&#45;&gt;Node112 -->
<g id="edge43_Node000001_Node000112" class="edge">
<title>Node1&#45;&gt;Node112</title>
<g id="a_edge43_Node000001_Node000112"><a xlink:title=" ">
<path fill="none" stroke="#63b8ff" d="M150.29,-684.34C153.83,-600.35 171,-293.21 234.5,-224.62 238.7,-220.09 243.64,-216.36 249.01,-213.3"/>
<polygon fill="#63b8ff" stroke="#63b8ff" points="146.8,-683.99 149.9,-694.13 153.79,-684.27 146.8,-683.99"/>
</a>
</g>
</g>
<!-- Node113 -->
<g id="Node000113" class="node">
<title>Node113</title>
<g id="a_Node000113"><a xlink:href="classllvm_1_1ScalarEvolutionWrapperPass.html" target="_top" xlink:title=" ">
<polygon fill="white" stroke="#666666" points="412.12,-167.25 245.38,-167.25 245.38,-148 412.12,-148 412.12,-167.25"/>
<text xml:space="preserve" text-anchor="middle" x="328.75" y="-153.75" font-family="Helvetica,sans-Serif" font-size="10.00">llvm::ScalarEvolutionWrapperPass</text>
</a>
</g>
</g>
<!-- Node1&#45;&gt;Node113 -->
<g id="edge44_Node000001_Node000113" class="edge">
<title>Node1&#45;&gt;Node113</title>
<g id="a_edge44_Node000001_Node000113"><a xlink:title=" ">
<path fill="none" stroke="#63b8ff" d="M149.81,-684.45C151.56,-595.24 162.92,-251.25 234.5,-176.62 237.93,-173.05 241.84,-170.05 246.06,-167.54"/>
<polygon fill="#63b8ff" stroke="#63b8ff" points="146.31,-684.33 149.64,-694.39 153.31,-684.45 146.31,-684.33"/>
</a>
</g>
</g>
<!-- Node114 -->
<g id="Node000114" class="node">
<title>Node114</title>
<g id="a_Node000114"><a xlink:href="classllvm_1_1StackProtector.html" target="_top" xlink:title=" ">
<polygon fill="white" stroke="#666666" points="381.38,-130.25 276.12,-130.25 276.12,-111 381.38,-111 381.38,-130.25"/>
<text xml:space="preserve" text-anchor="middle" x="328.75" y="-116.75" font-family="Helvetica,sans-Serif" font-size="10.00">llvm::StackProtector</text>
</a>
</g>
</g>
<!-- Node1&#45;&gt;Node114 -->
<g id="edge45_Node000001_Node000114" class="edge">
<title>Node1&#45;&gt;Node114</title>
<g id="a_edge45_Node000001_Node000114"><a xlink:title=" ">
<path fill="none" stroke="#63b8ff" d="M149.54,-684.4C150.16,-591.14 157.51,-218.9 234.5,-138.62 245.23,-127.44 260.65,-122.04 275.87,-119.69"/>
<polygon fill="#63b8ff" stroke="#63b8ff" points="146.04,-684.12 149.5,-694.13 153.04,-684.15 146.04,-684.12"/>
</a>
</g>
</g>
<!-- Node115 -->
<g id="Node000115" class="node">
<title>Node115</title>
<g id="a_Node000115"><a xlink:href="classllvm_1_1StackSafetyInfoWrapperPass.html" target="_top" xlink:title="StackSafetyInfo wrapper for the legacy pass manager.">
<polygon fill="white" stroke="#666666" points="413.25,-93.25 244.25,-93.25 244.25,-74 413.25,-74 413.25,-93.25"/>
<text xml:space="preserve" text-anchor="middle" x="328.75" y="-79.75" font-family="Helvetica,sans-Serif" font-size="10.00">llvm::StackSafetyInfoWrapperPass</text>
</a>
</g>
</g>
<!-- Node1&#45;&gt;Node115 -->
<g id="edge46_Node000001_Node000115" class="edge">
<title>Node1&#45;&gt;Node115</title>
<g id="a_edge46_Node000001_Node000115"><a xlink:title=" ">
<path fill="none" stroke="#63b8ff" d="M149.33,-684.58C148.97,-587.95 152.55,-187.85 234.5,-101.62 237.45,-98.52 240.77,-95.86 244.34,-93.58"/>
<polygon fill="#63b8ff" stroke="#63b8ff" points="145.82,-684.43 149.38,-694.41 152.82,-684.39 145.82,-684.43"/>
</a>
</g>
</g>
<!-- Node116 -->
<g id="Node000116" class="node">
<title>Node116</title>
<g id="a_Node000116"><a xlink:href="classllvm_1_1UniformityInfoWrapperPass.html" target="_top" xlink:title="Legacy analysis pass which computes a CycleInfo.">
<polygon fill="white" stroke="#666666" points="408.75,-56.25 248.75,-56.25 248.75,-37 408.75,-37 408.75,-56.25"/>
<text xml:space="preserve" text-anchor="middle" x="328.75" y="-42.75" font-family="Helvetica,sans-Serif" font-size="10.00">llvm::UniformityInfoWrapperPass</text>
</a>
</g>
</g>
<!-- Node1&#45;&gt;Node116 -->
<g id="edge47_Node000001_Node000116" class="edge">
<title>Node1&#45;&gt;Node116</title>
<g id="a_edge47_Node000001_Node000116"><a xlink:title=" ">
<path fill="none" stroke="#63b8ff" d="M149.14,-684.57C147.86,-584.35 147.63,-156.76 234.5,-64.62 238.57,-60.31 243.34,-56.85 248.54,-54.09"/>
<polygon fill="#63b8ff" stroke="#63b8ff" points="145.63,-684.34 149.28,-694.29 152.63,-684.24 145.63,-684.34"/>
</a>
</g>
</g>
<!-- Node117 -->
<g id="Node000117" class="node">
<title>Node117</title>
<g id="a_Node000117"><a xlink:href="classllvm_1_1gvn_1_1GVNLegacyPass.html" target="_top" xlink:title=" ">
<polygon fill="white" stroke="#666666" points="397.5,-19.25 260,-19.25 260,0 397.5,0 397.5,-19.25"/>
<text xml:space="preserve" text-anchor="middle" x="328.75" y="-5.75" font-family="Helvetica,sans-Serif" font-size="10.00">llvm::gvn::GVNLegacyPass</text>
</a>
</g>
</g>
<!-- Node1&#45;&gt;Node117 -->
<g id="edge48_Node000001_Node000117" class="edge">
<title>Node1&#45;&gt;Node117</title>
<g id="a_edge48_Node000001_Node000117"><a xlink:title=" ">
<path fill="none" stroke="#63b8ff" d="M150.71,-684.12C157.11,-574.04 188.39,-76.88 234.5,-27.62 241.37,-20.28 250.27,-15.42 259.82,-12.27"/>
<polygon fill="#63b8ff" stroke="#63b8ff" points="147.22,-683.88 150.14,-694.06 154.21,-684.28 147.22,-683.88"/>
</a>
</g>
</g>
<!-- Node2 -->
<g id="Node000002" class="node">
<title>Node2</title>
<g id="a_Node000002"><a xlink:href="classllvm_1_1Pass.html" target="_top" xlink:title="Pass interface &#45; Implemented by all &#39;passes&#39;.">
<polygon fill="white" stroke="#666666" points="62.5,-715.25 0,-715.25 0,-696 62.5,-696 62.5,-715.25"/>
<text xml:space="preserve" text-anchor="middle" x="31.25" y="-701.75" font-family="Helvetica,sans-Serif" font-size="10.00">llvm::Pass</text>
</a>
</g>
</g>
<!-- Node2&#45;&gt;Node1 -->
<g id="edge1_Node000001_Node000002" class="edge">
<title>Node2&#45;&gt;Node1</title>
<g id="a_edge1_Node000001_Node000002"><a xlink:title=" ">
<path fill="none" stroke="#63b8ff" d="M74.19,-705.62C81.94,-705.62 90.1,-705.62 98.04,-705.62"/>
<polygon fill="#63b8ff" stroke="#63b8ff" points="74.35,-702.13 64.35,-705.63 74.35,-709.13 74.35,-702.13"/>
</a>
</g>
</g>
<!-- Node25 -->
<g id="Node000025" class="node">
<title>Node25</title>
<g id="a_Node000025"><a xlink:href="classGCEmptyBasicBlocksLegacy.html" target="_top" xlink:title=" ">
<polygon fill="white" stroke="#666666" points="617.88,-773.25 472.12,-773.25 472.12,-754 617.88,-754 617.88,-773.25"/>
<text xml:space="preserve" text-anchor="middle" x="545" y="-759.75" font-family="Helvetica,sans-Serif" font-size="10.00">GCEmptyBasicBlocksLegacy</text>
</a>
</g>
</g>
<!-- Node24&#45;&gt;Node25 -->
<g id="edge24_Node000024_Node000025" class="edge">
<title>Node24&#45;&gt;Node25</title>
<g id="a_edge24_Node000024_Node000025"><a xlink:title=" ">
<path fill="none" stroke="#63b8ff" d="M407.73,-596.33C413.31,-599.01 418.49,-602.39 423,-606.62 469.52,-650.31 412.88,-701.52 459,-745.62 462.82,-749.27 467.18,-752.26 471.86,-754.7"/>
<polygon fill="#63b8ff" stroke="#63b8ff" points="409.35,-593.2 398.76,-592.77 406.77,-599.71 409.35,-593.2"/>
</a>
</g>
</g>
<!-- Node26 -->
<g id="Node000026" class="node">
<title>Node26</title>
<g id="a_Node000026"><a xlink:href="classRemoveLoadsIntoFakeUsesLegacy.html" target="_top" xlink:title=" ">
<polygon fill="white" stroke="#666666" points="631,-736.25 459,-736.25 459,-717 631,-717 631,-736.25"/>
<text xml:space="preserve" text-anchor="middle" x="545" y="-722.75" font-family="Helvetica,sans-Serif" font-size="10.00">RemoveLoadsIntoFakeUsesLegacy</text>
</a>
</g>
</g>
<!-- Node24&#45;&gt;Node26 -->
<g id="edge25_Node000024_Node000026" class="edge">
<title>Node24&#45;&gt;Node26</title>
<g id="a_edge25_Node000024_Node000026"><a xlink:title=" ">
<path fill="none" stroke="#63b8ff" d="M408.04,-597.08C413.44,-599.62 418.51,-602.76 423,-606.62 459.42,-638 422.86,-676.92 459,-708.62 462.63,-711.81 466.68,-714.48 470.99,-716.71"/>
<polygon fill="#63b8ff" stroke="#63b8ff" points="409.33,-593.83 398.74,-593.47 406.79,-600.35 409.33,-593.83"/>
</a>
</g>
</g>
<!-- Node27 -->
<g id="Node000027" class="node">
<title>Node27</title>
<g id="a_Node000027"><a xlink:href="classSILowerI1CopiesLegacy.html" target="_top" xlink:title=" ">
<polygon fill="white" stroke="#666666" points="606.25,-699.25 483.75,-699.25 483.75,-680 606.25,-680 606.25,-699.25"/>
<text xml:space="preserve" text-anchor="middle" x="545" y="-685.75" font-family="Helvetica,sans-Serif" font-size="10.00">SILowerI1CopiesLegacy</text>
</a>
</g>
</g>
<!-- Node24&#45;&gt;Node27 -->
<g id="edge26_Node000024_Node000027" class="edge">
<title>Node24&#45;&gt;Node27</title>
<g id="a_edge26_Node000024_Node000027"><a xlink:title=" ">
<path fill="none" stroke="#63b8ff" d="M407.93,-598.18C413.27,-600.48 418.37,-603.26 423,-606.62 449.73,-626.02 432.45,-651.99 459,-671.62 466.28,-677.01 474.81,-680.85 483.61,-683.59"/>
<polygon fill="#63b8ff" stroke="#63b8ff" points="409.42,-595 398.82,-594.86 407.02,-601.57 409.42,-595"/>
</a>
</g>
</g>
<!-- Node28 -->
<g id="Node000028" class="node">
<title>Node28</title>
<g id="a_Node000028"><a xlink:href="classStaticDataSplitter.html" target="_top" xlink:title=" ">
<polygon fill="white" stroke="#666666" points="591.62,-662.25 498.38,-662.25 498.38,-643 591.62,-643 591.62,-662.25"/>
<text xml:space="preserve" text-anchor="middle" x="545" y="-648.75" font-family="Helvetica,sans-Serif" font-size="10.00">StaticDataSplitter</text>
</a>
</g>
</g>
<!-- Node24&#45;&gt;Node28 -->
<g id="edge27_Node000024_Node000028" class="edge">
<title>Node24&#45;&gt;Node28</title>
<g id="a_edge27_Node000024_Node000028"><a xlink:title=" ">
<path fill="none" stroke="#63b8ff" d="M408.57,-601.16C413.53,-602.76 418.38,-604.58 423,-606.62 441.29,-614.73 440.83,-625.26 459,-633.62 471.22,-639.26 485.22,-643.27 498.28,-646.11"/>
<polygon fill="#63b8ff" stroke="#63b8ff" points="409.63,-597.82 399.05,-598.38 407.67,-604.54 409.63,-597.82"/>
</a>
</g>
</g>
<!-- Node29 -->
<g id="Node000029" class="node">
<title>Node29</title>
<g id="a_Node000029"><a xlink:href="structllvm_1_1AMDGPUResourceUsageAnalysisWrapperPass.html" target="_top" xlink:title=" ">
<polygon fill="white" stroke="#666666" points="622.38,-624.88 467.62,-624.88 467.62,-594.38 622.38,-594.38 622.38,-624.88"/>
<text xml:space="preserve" text-anchor="start" x="475.62" y="-611.38" font-family="Helvetica,sans-Serif" font-size="10.00">llvm::AMDGPUResourceUsage</text>
<text xml:space="preserve" text-anchor="middle" x="545" y="-600.12" font-family="Helvetica,sans-Serif" font-size="10.00">AnalysisWrapperPass</text>
</a>
</g>
</g>
<!-- Node24&#45;&gt;Node29 -->
<g id="edge28_Node000024_Node000029" class="edge">
<title>Node24&#45;&gt;Node29</title>
<g id="a_edge28_Node000024_Node000029"><a xlink:title=" ">
<path fill="none" stroke="#63b8ff" d="M408.92,-596.39C428.01,-598.26 448.36,-600.25 467.33,-602.11"/>
<polygon fill="#63b8ff" stroke="#63b8ff" points="409.34,-592.91 399.05,-595.42 408.66,-599.88 409.34,-592.91"/>
</a>
</g>
</g>
<!-- Node30 -->
<g id="Node000030" class="node">
<title>Node30</title>
<g id="a_Node000030"><a xlink:href="classllvm_1_1ARMBlockPlacement.html" target="_top" xlink:title=" ">
<polygon fill="white" stroke="#666666" points="611.88,-576.25 478.12,-576.25 478.12,-557 611.88,-557 611.88,-576.25"/>
<text xml:space="preserve" text-anchor="middle" x="545" y="-562.75" font-family="Helvetica,sans-Serif" font-size="10.00">llvm::ARMBlockPlacement</text>
</a>
</g>
</g>
<!-- Node24&#45;&gt;Node30 -->
<g id="edge29_Node000024_Node000030" class="edge">
<title>Node24&#45;&gt;Node30</title>
<g id="a_edge29_Node000024_Node000030"><a xlink:title=" ">
<path fill="none" stroke="#63b8ff" d="M408.85,-580.5C431.5,-578.18 455.95,-575.67 477.75,-573.43"/>
<polygon fill="#63b8ff" stroke="#63b8ff" points="408.64,-577.01 399.05,-581.51 409.35,-583.97 408.64,-577.01"/>
</a>
</g>
</g>
<!-- Node31 -->
<g id="Node000031" class="node">
<title>Node31</title>
<g id="a_Node000031"><a xlink:href="structllvm_1_1AVRFrameAnalyzer.html" target="_top" xlink:title="The frame analyzer pass.">
<polygon fill="white" stroke="#666666" points="607.75,-539.25 482.25,-539.25 482.25,-520 607.75,-520 607.75,-539.25"/>
<text xml:space="preserve" text-anchor="middle" x="545" y="-525.75" font-family="Helvetica,sans-Serif" font-size="10.00">llvm::AVRFrameAnalyzer</text>
</a>
</g>
</g>
<!-- Node24&#45;&gt;Node31 -->
<g id="edge30_Node000024_Node000031" class="edge">
<title>Node24&#45;&gt;Node31</title>
<g id="a_edge30_Node000024_Node000031"><a xlink:title=" ">
<path fill="none" stroke="#63b8ff" d="M408.4,-575.69C413.4,-574.18 418.31,-572.5 423,-570.62 440.64,-563.59 441.43,-554.82 459,-547.62 466.68,-544.48 474.98,-541.86 483.28,-539.68"/>
<polygon fill="#63b8ff" stroke="#63b8ff" points="407.53,-572.3 398.81,-578.33 409.38,-579.05 407.53,-572.3"/>
</a>
</g>
</g>
<!-- Node32 -->
<g id="Node000032" class="node">
<title>Node32</title>
<g id="a_Node000032"><a xlink:href="classllvm_1_1AsmPrinter.html" target="_top" xlink:title="This class is intended to be used as a driving class for all asm writers.">
<polygon fill="#fff0f0" stroke="red" points="589.38,-502.25 500.62,-502.25 500.62,-483 589.38,-483 589.38,-502.25"/>
<text xml:space="preserve" text-anchor="middle" x="545" y="-488.75" font-family="Helvetica,sans-Serif" font-size="10.00">llvm::AsmPrinter</text>
</a>
</g>
</g>
<!-- Node24&#45;&gt;Node32 -->
<g id="edge31_Node000024_Node000032" class="edge">
<title>Node24&#45;&gt;Node32</title>
<g id="a_edge31_Node000024_Node000032"><a xlink:title=" ">
<path fill="none" stroke="#63b8ff" d="M407.8,-578.89C413.17,-576.63 418.31,-573.91 423,-570.62 448.48,-552.8 433.68,-528.68 459,-510.62 470.91,-502.13 486,-497.49 500.15,-495"/>
<polygon fill="#63b8ff" stroke="#63b8ff" points="406.89,-575.5 398.66,-582.16 409.25,-582.09 406.89,-575.5"/>
</a>
</g>
</g>
<!-- Node47 -->
<g id="Node000047" class="node">
<title>Node47</title>
<g id="a_Node000047"><a xlink:href="classllvm_1_1BasicBlockMatchingAndInference.html" target="_top" xlink:title=" ">
<polygon fill="white" stroke="#666666" points="609.62,-464.88 480.38,-464.88 480.38,-434.38 609.62,-434.38 609.62,-464.88"/>
<text xml:space="preserve" text-anchor="start" x="488.38" y="-451.38" font-family="Helvetica,sans-Serif" font-size="10.00">llvm::BasicBlockMatching</text>
<text xml:space="preserve" text-anchor="middle" x="545" y="-440.12" font-family="Helvetica,sans-Serif" font-size="10.00">AndInference</text>
</a>
</g>
</g>
<!-- Node24&#45;&gt;Node47 -->
<g id="edge32_Node000024_Node000047" class="edge">
<title>Node24&#45;&gt;Node47</title>
<g id="a_edge32_Node000024_Node000047"><a xlink:title=" ">
<path fill="none" stroke="#63b8ff" d="M407.98,-580.09C413.39,-577.57 418.48,-574.46 423,-570.62 458.08,-540.89 425.21,-504.81 459,-473.62 465.09,-468.01 472.39,-463.69 480.12,-460.38"/>
<polygon fill="#63b8ff" stroke="#63b8ff" points="406.72,-576.82 398.65,-583.68 409.24,-583.35 406.72,-576.82"/>
</a>
</g>
</g>
<!-- Node48 -->
<g id="Node000048" class="node">
<title>Node48</title>
<g id="a_Node000048"><a xlink:href="classllvm_1_1CFIFixup.html" target="_top" xlink:title=" ">
<polygon fill="white" stroke="#666666" points="585.25,-416.25 504.75,-416.25 504.75,-397 585.25,-397 585.25,-416.25"/>
<text xml:space="preserve" text-anchor="middle" x="545" y="-402.75" font-family="Helvetica,sans-Serif" font-size="10.00">llvm::CFIFixup</text>
</a>
</g>
</g>
<!-- Node24&#45;&gt;Node48 -->
<g id="edge33_Node000024_Node000048" class="edge">
<title>Node24&#45;&gt;Node48</title>
<g id="a_edge33_Node000024_Node000048"><a xlink:title=" ">
<path fill="none" stroke="#63b8ff" d="M407.78,-580.97C413.34,-578.28 418.51,-574.88 423,-570.62 471.17,-524.93 411.5,-472.02 459,-425.62 471.01,-413.9 488.58,-408.77 504.64,-406.72"/>
<polygon fill="#63b8ff" stroke="#63b8ff" points="406.81,-577.59 398.82,-584.54 409.4,-584.09 406.81,-577.59"/>
</a>
</g>
</g>
</g>
</svg>
