<?xml version="1.0" encoding="UTF-8" standalone="no"?>
<!DOCTYPE svg PUBLIC "-//W3C//DTD SVG 1.1//EN"
 "http://www.w3.org/Graphics/SVG/1.1/DTD/svg11.dtd">
<!-- Generated by graphviz version 14.1.3 (20260303.0454)
 -->
<!-- Title: llvm::logicalview::LVScopeFunction Pages: 1 -->
<svg width="260pt" height="305pt"
 viewBox="0.00 0.00 260.00 305.00" xmlns="http://www.w3.org/2000/svg" xmlns:xlink="http://www.w3.org/1999/xlink">
<g id="graph0" class="graph" transform="scale(1 1) rotate(0) translate(4 300.5)">
<title>llvm::logicalview::LVScopeFunction</title>
<!-- Node1 -->
<g id="Node000001" class="node">
<title>Node1</title>
<g id="a_Node000001"><a xlink:title=" ">
<polygon fill="#999999" stroke="#666666" points="174.5,-97 80.5,-97 80.5,-66.5 174.5,-66.5 174.5,-97"/>
<text xml:space="preserve" text-anchor="start" x="88.5" y="-83.5" font-family="Helvetica,sans-Serif" font-size="10.00">llvm::logicalview::</text>
<text xml:space="preserve" text-anchor="middle" x="127.5" y="-72.25" font-family="Helvetica,sans-Serif" font-size="10.00">LVScopeFunction</text>
</a>
</g>
</g>
<!-- Node5 -->
<g id="Node000005" class="node">
<title>Node5</title>
<g id="a_Node000005"><a xlink:href="classllvm_1_1logicalview_1_1LVScopeFunctionInlined.html" target="_top" xlink:title=" ">
<polygon fill="white" stroke="#666666" points="121,-30.5 0,-30.5 0,0 121,0 121,-30.5"/>
<text xml:space="preserve" text-anchor="start" x="8" y="-17" font-family="Helvetica,sans-Serif" font-size="10.00">llvm::logicalview::</text>
<text xml:space="preserve" text-anchor="middle" x="60.5" y="-5.75" font-family="Helvetica,sans-Serif" font-size="10.00">LVScopeFunctionInlined</text>
</a>
</g>
</g>
<!-- Node1&#45;&gt;Node5 -->
<g id="edge4_Node000001_Node000005" class="edge">
<title>Node1&#45;&gt;Node5</title>
<g id="a_edge4_Node000001_Node000005"><a xlink:title=" ">
<path fill="none" stroke="#63b8ff" d="M104.06,-58.19C94.63,-49.11 84.03,-38.9 75.64,-30.83"/>
<polygon fill="#63b8ff" stroke="#63b8ff" points="101.57,-60.65 111.21,-65.06 106.43,-55.61 101.57,-60.65"/>
</a>
</g>
</g>
<!-- Node6 -->
<g id="Node000006" class="node">
<title>Node6</title>
<g id="a_Node000006"><a xlink:href="classllvm_1_1logicalview_1_1LVScopeFunctionType.html" target="_top" xlink:title=" ">
<polygon fill="white" stroke="#666666" points="252.25,-30.5 138.75,-30.5 138.75,0 252.25,0 252.25,-30.5"/>
<text xml:space="preserve" text-anchor="start" x="146.75" y="-17" font-family="Helvetica,sans-Serif" font-size="10.00">llvm::logicalview::</text>
<text xml:space="preserve" text-anchor="middle" x="195.5" y="-5.75" font-family="Helvetica,sans-Serif" font-size="10.00">LVScopeFunctionType</text>
</a>
</g>
</g>
<!-- Node1&#45;&gt;Node6 -->
<g id="edge5_Node000001_Node000006" class="edge">
<title>Node1&#45;&gt;Node6</title>
<g id="a_edge5_Node000001_Node000006"><a xlink:title=" ">
<path fill="none" stroke="#63b8ff" d="M150.99,-58.46C160.64,-49.32 171.53,-38.98 180.13,-30.83"/>
<polygon fill="#63b8ff" stroke="#63b8ff" points="148.88,-55.65 144.03,-65.07 153.69,-60.73 148.88,-55.65"/>
</a>
</g>
</g>
<!-- Node2 -->
<g id="Node000002" class="node">
<title>Node2</title>
<g id="a_Node000002"><a xlink:href="classllvm_1_1logicalview_1_1LVScope.html" target="_top" xlink:title=" ">
<polygon fill="white" stroke="#666666" points="174.5,-163.5 80.5,-163.5 80.5,-133 174.5,-133 174.5,-163.5"/>
<text xml:space="preserve" text-anchor="start" x="88.5" y="-150" font-family="Helvetica,sans-Serif" font-size="10.00">llvm::logicalview::</text>
<text xml:space="preserve" text-anchor="middle" x="127.5" y="-138.75" font-family="Helvetica,sans-Serif" font-size="10.00">LVScope</text>
</a>
</g>
</g>
<!-- Node2&#45;&gt;Node1 -->
<g id="edge1_Node000001_Node000002" class="edge">
<title>Node2&#45;&gt;Node1</title>
<g id="a_edge1_Node000001_Node000002"><a xlink:title=" ">
<path fill="none" stroke="#63b8ff" d="M127.5,-121.31C127.5,-113.14 127.5,-104.41 127.5,-97.33"/>
<polygon fill="#63b8ff" stroke="#63b8ff" points="124,-121.1 127.5,-131.1 131,-121.1 124,-121.1"/>
</a>
</g>
</g>
<!-- Node3 -->
<g id="Node000003" class="node">
<title>Node3</title>
<g id="a_Node000003"><a xlink:href="classllvm_1_1logicalview_1_1LVElement.html" target="_top" xlink:title=" ">
<polygon fill="white" stroke="#666666" points="174.5,-230 80.5,-230 80.5,-199.5 174.5,-199.5 174.5,-230"/>
<text xml:space="preserve" text-anchor="start" x="88.5" y="-216.5" font-family="Helvetica,sans-Serif" font-size="10.00">llvm::logicalview::</text>
<text xml:space="preserve" text-anchor="middle" x="127.5" y="-205.25" font-family="Helvetica,sans-Serif" font-size="10.00">LVElement</text>
</a>
</g>
</g>
<!-- Node3&#45;&gt;Node2 -->
<g id="edge2_Node000002_Node000003" class="edge">
<title>Node3&#45;&gt;Node2</title>
<g id="a_edge2_Node000002_Node000003"><a xlink:title=" ">
<path fill="none" stroke="#63b8ff" d="M127.5,-187.81C127.5,-179.64 127.5,-170.91 127.5,-163.83"/>
<polygon fill="#63b8ff" stroke="#63b8ff" points="124,-187.6 127.5,-197.6 131,-187.6 124,-187.6"/>
</a>
</g>
</g>
<!-- Node4 -->
<g id="Node000004" class="node">
<title>Node4</title>
<g id="a_Node000004"><a xlink:href="classllvm_1_1logicalview_1_1LVObject.html" target="_top" xlink:title=" ">
<polygon fill="white" stroke="#666666" points="174.5,-296.5 80.5,-296.5 80.5,-266 174.5,-266 174.5,-296.5"/>
<text xml:space="preserve" text-anchor="start" x="88.5" y="-283" font-family="Helvetica,sans-Serif" font-size="10.00">llvm::logicalview::</text>
<text xml:space="preserve" text-anchor="middle" x="127.5" y="-271.75" font-family="Helvetica,sans-Serif" font-size="10.00">LVObject</text>
</a>
</g>
</g>
<!-- Node4&#45;&gt;Node3 -->
<g id="edge3_Node000003_Node000004" class="edge">
<title>Node4&#45;&gt;Node3</title>
<g id="a_edge3_Node000003_Node000004"><a xlink:title=" ">
<path fill="none" stroke="#63b8ff" d="M127.5,-254.31C127.5,-246.14 127.5,-237.41 127.5,-230.33"/>
<polygon fill="#63b8ff" stroke="#63b8ff" points="124,-254.1 127.5,-264.1 131,-254.1 124,-254.1"/>
</a>
</g>
</g>
</g>
</svg>
