<?xml version="1.0" encoding="UTF-8" standalone="no"?>
<!DOCTYPE svg PUBLIC "-//W3C//DTD SVG 1.1//EN"
 "http://www.w3.org/Graphics/SVG/1.1/DTD/svg11.dtd">
<!-- Generated by graphviz version 14.1.3 (20260303.0454)
 -->
<!-- Title: llvm::RISCVELFStreamer Pages: 1 -->
<svg width="137pt" height="193pt"
 viewBox="0.00 0.00 137.00 193.00" xmlns="http://www.w3.org/2000/svg" xmlns:xlink="http://www.w3.org/1999/xlink">
<g id="graph0" class="graph" transform="scale(1 1) rotate(0) translate(4 189)">
<title>llvm::RISCVELFStreamer</title>
<!-- Node1 -->
<g id="Node000001" class="node">
<title>Node1</title>
<g id="a_Node000001"><a xlink:title=" ">
<polygon fill="#999999" stroke="#666666" points="129.25,-19.25 0,-19.25 0,0 129.25,0 129.25,-19.25"/>
<text xml:space="preserve" text-anchor="middle" x="64.62" y="-5.75" font-family="Helvetica,sans-Serif" font-size="10.00">llvm::RISCVELFStreamer</text>
</a>
</g>
</g>
<!-- Node2 -->
<g id="Node000002" class="node">
<title>Node2</title>
<g id="a_Node000002"><a xlink:href="classllvm_1_1MCELFStreamer.html" target="_top" xlink:title=" ">
<polygon fill="white" stroke="#666666" points="121.38,-74.5 7.88,-74.5 7.88,-55.25 121.38,-55.25 121.38,-74.5"/>
<text xml:space="preserve" text-anchor="middle" x="64.62" y="-61" font-family="Helvetica,sans-Serif" font-size="10.00">llvm::MCELFStreamer</text>
</a>
</g>
</g>
<!-- Node2&#45;&gt;Node1 -->
<g id="edge1_Node000001_Node000002" class="edge">
<title>Node2&#45;&gt;Node1</title>
<g id="a_edge1_Node000001_Node000002"><a xlink:title=" ">
<path fill="none" stroke="#63b8ff" d="M64.62,-43.63C64.62,-35.34 64.62,-26.17 64.62,-19.61"/>
<polygon fill="#63b8ff" stroke="#63b8ff" points="61.13,-43.57 64.63,-53.57 68.13,-43.57 61.13,-43.57"/>
</a>
</g>
</g>
<!-- Node3 -->
<g id="Node000003" class="node">
<title>Node3</title>
<g id="a_Node000003"><a xlink:href="classllvm_1_1MCObjectStreamer.html" target="_top" xlink:title="Streaming object file generation interface.">
<polygon fill="white" stroke="#666666" points="126.62,-129.75 2.62,-129.75 2.62,-110.5 126.62,-110.5 126.62,-129.75"/>
<text xml:space="preserve" text-anchor="middle" x="64.62" y="-116.25" font-family="Helvetica,sans-Serif" font-size="10.00">llvm::MCObjectStreamer</text>
</a>
</g>
</g>
<!-- Node3&#45;&gt;Node2 -->
<g id="edge2_Node000002_Node000003" class="edge">
<title>Node3&#45;&gt;Node2</title>
<g id="a_edge2_Node000002_Node000003"><a xlink:title=" ">
<path fill="none" stroke="#63b8ff" d="M64.62,-98.88C64.62,-90.59 64.62,-81.42 64.62,-74.86"/>
<polygon fill="#63b8ff" stroke="#63b8ff" points="61.13,-98.82 64.63,-108.82 68.13,-98.82 61.13,-98.82"/>
</a>
</g>
</g>
<!-- Node4 -->
<g id="Node000004" class="node">
<title>Node4</title>
<g id="a_Node000004"><a xlink:href="classllvm_1_1MCStreamer.html" target="_top" xlink:title="Streaming machine code generation interface.">
<polygon fill="white" stroke="#666666" points="112.38,-185 16.88,-185 16.88,-165.75 112.38,-165.75 112.38,-185"/>
<text xml:space="preserve" text-anchor="middle" x="64.62" y="-171.5" font-family="Helvetica,sans-Serif" font-size="10.00">llvm::MCStreamer</text>
</a>
</g>
</g>
<!-- Node4&#45;&gt;Node3 -->
<g id="edge3_Node000003_Node000004" class="edge">
<title>Node4&#45;&gt;Node3</title>
<g id="a_edge3_Node000003_Node000004"><a xlink:title=" ">
<path fill="none" stroke="#63b8ff" d="M64.62,-154.13C64.62,-145.84 64.62,-136.67 64.62,-130.11"/>
<polygon fill="#63b8ff" stroke="#63b8ff" points="61.13,-154.07 64.63,-164.07 68.13,-154.07 61.13,-154.07"/>
</a>
</g>
</g>
</g>
</svg>
