<?xml version="1.0" encoding="UTF-8" standalone="no"?>
<!DOCTYPE svg PUBLIC "-//W3C//DTD SVG 1.1//EN"
 "http://www.w3.org/Graphics/SVG/1.1/DTD/svg11.dtd">
<!-- Generated by graphviz version 14.1.3 (20260303.0454)
 -->
<!-- Title: llvm::LiveStacksAnalysis Pages: 1 -->
<svg width="287pt" height="262pt"
 viewBox="0.00 0.00 287.00 262.00" xmlns="http://www.w3.org/2000/svg" xmlns:xlink="http://www.w3.org/1999/xlink">
<g id="graph0" class="graph" transform="scale(1 1) rotate(0) translate(4 258.25)">
<title>llvm::LiveStacksAnalysis</title>
<!-- Node1 -->
<g id="Node000001" class="node">
<title>Node1</title>
<g id="a_Node000001"><a xlink:title=" ">
<polygon fill="#999999" stroke="#666666" points="191.25,-19.25 65,-19.25 65,0 191.25,0 191.25,-19.25"/>
<text xml:space="preserve" text-anchor="middle" x="128.12" y="-5.75" font-family="Helvetica,sans-Serif" font-size="10.00">llvm::LiveStacksAnalysis</text>
</a>
</g>
</g>
<!-- Node2 -->
<g id="Node000002" class="node">
<title>Node2</title>
<g id="a_Node000002"><a xlink:href="structllvm_1_1AnalysisInfoMixin.html" target="_top" xlink:title=" ">
<polygon fill="white" stroke="#666666" points="188.25,-86.75 68,-86.75 68,-56.25 188.25,-56.25 188.25,-86.75"/>
<text xml:space="preserve" text-anchor="start" x="76" y="-73.25" font-family="Helvetica,sans-Serif" font-size="10.00">llvm::AnalysisInfoMixin</text>
<text xml:space="preserve" text-anchor="middle" x="128.12" y="-62" font-family="Helvetica,sans-Serif" font-size="10.00">&lt; LiveStacksAnalysis &gt;</text>
</a>
</g>
</g>
<!-- Node2&#45;&gt;Node1 -->
<g id="edge1_Node000001_Node000002" class="edge">
<title>Node2&#45;&gt;Node1</title>
<g id="a_edge1_Node000001_Node000002"><a xlink:title=" ">
<path fill="none" stroke="#63b8ff" d="M128.12,-44.77C128.12,-35.79 128.12,-26.29 128.12,-19.6"/>
<polygon fill="#63b8ff" stroke="#63b8ff" points="124.63,-44.49 128.13,-54.49 131.63,-44.49 124.63,-44.49"/>
</a>
</g>
</g>
<!-- Node3 -->
<g id="Node000003" class="node">
<title>Node3</title>
<g id="a_Node000003"><a xlink:href="structllvm_1_1PassInfoMixin.html" target="_top" xlink:title=" ">
<polygon fill="white" stroke="#666666" points="120.25,-170.5 0,-170.5 0,-140 120.25,-140 120.25,-170.5"/>
<text xml:space="preserve" text-anchor="start" x="8" y="-157" font-family="Helvetica,sans-Serif" font-size="10.00">llvm::PassInfoMixin</text>
<text xml:space="preserve" text-anchor="middle" x="60.12" y="-145.75" font-family="Helvetica,sans-Serif" font-size="10.00">&lt; LiveStacksAnalysis &gt;</text>
</a>
</g>
</g>
<!-- Node3&#45;&gt;Node2 -->
<g id="edge2_Node000002_Node000003" class="edge">
<title>Node3&#45;&gt;Node2</title>
<g id="a_edge2_Node000002_Node000003"><a xlink:title=" ">
<path fill="none" stroke="#63b8ff" d="M79.52,-130.93C91.3,-116.78 105.95,-99.16 116.07,-86.99"/>
<polygon fill="#63b8ff" stroke="#63b8ff" points="76.95,-128.54 73.25,-138.47 82.34,-133.02 76.95,-128.54"/>
</a>
</g>
</g>
<!-- Node4 -->
<g id="Node000004" class="node">
<title>Node4</title>
<g id="a_Node000004"><a xlink:href="structllvm_1_1PassInfoMixin.html" target="_top" xlink:title="A CRTP mix&#45;in to automatically provide informational APIs needed for passes.">
<polygon fill="white" stroke="#666666" points="111.25,-254.25 9,-254.25 9,-223.75 111.25,-223.75 111.25,-254.25"/>
<text xml:space="preserve" text-anchor="start" x="17" y="-240.75" font-family="Helvetica,sans-Serif" font-size="10.00">llvm::PassInfoMixin</text>
<text xml:space="preserve" text-anchor="middle" x="60.12" y="-229.5" font-family="Helvetica,sans-Serif" font-size="10.00">&lt; DerivedT &gt;</text>
</a>
</g>
</g>
<!-- Node4&#45;&gt;Node3 -->
<g id="edge3_Node000003_Node000004" class="edge">
<title>Node4&#45;&gt;Node3</title>
<g id="a_edge3_Node000003_Node000004"><a xlink:title=" ">
<path fill="none" stroke="orange" stroke-dasharray="5,2" d="M60.12,-212.22C60.12,-198.53 60.12,-182.21 60.12,-170.74"/>
<polygon fill="orange" stroke="orange" points="56.63,-211.87 60.13,-221.87 63.63,-211.87 56.63,-211.87"/>
</a>
</g>
<text xml:space="preserve" text-anchor="start" x="63.12" y="-194.5" font-family="Helvetica,sans-Serif" font-size="10.00" fill="grey">&lt; LiveStacksAnalysis &gt;</text>
</g>
<!-- Node5 -->
<g id="Node000005" class="node">
<title>Node5</title>
<g id="a_Node000005"><a xlink:href="structllvm_1_1AnalysisInfoMixin.html" target="_top" xlink:title="A CRTP mix&#45;in that provides informational APIs needed for analysis passes.">
<polygon fill="white" stroke="#666666" points="255.75,-170.5 138.5,-170.5 138.5,-140 255.75,-140 255.75,-170.5"/>
<text xml:space="preserve" text-anchor="start" x="146.5" y="-157" font-family="Helvetica,sans-Serif" font-size="10.00">llvm::AnalysisInfoMixin</text>
<text xml:space="preserve" text-anchor="middle" x="197.12" y="-145.75" font-family="Helvetica,sans-Serif" font-size="10.00">&lt; DerivedT &gt;</text>
</a>
</g>
</g>
<!-- Node5&#45;&gt;Node2 -->
<g id="edge4_Node000002_Node000005" class="edge">
<title>Node5&#45;&gt;Node2</title>
<g id="a_edge4_Node000002_Node000005"><a xlink:title=" ">
<path fill="none" stroke="orange" stroke-dasharray="5,2" d="M177.44,-130.93C165.49,-116.78 150.62,-99.16 140.35,-86.99"/>
<polygon fill="orange" stroke="orange" points="174.69,-133.09 183.81,-138.48 180.04,-128.58 174.69,-133.09"/>
</a>
</g>
<text xml:space="preserve" text-anchor="start" x="171.81" y="-110.75" font-family="Helvetica,sans-Serif" font-size="10.00" fill="grey">&lt; LiveStacksAnalysis &gt;</text>
</g>
<!-- Node6 -->
<g id="Node000006" class="node">
<title>Node6</title>
<g id="a_Node000006"><a xlink:href="structllvm_1_1PassInfoMixin.html" target="_top" xlink:title="A CRTP mix&#45;in to automatically provide informational APIs needed for passes.">
<polygon fill="white" stroke="#666666" points="248.25,-254.25 146,-254.25 146,-223.75 248.25,-223.75 248.25,-254.25"/>
<text xml:space="preserve" text-anchor="start" x="154" y="-240.75" font-family="Helvetica,sans-Serif" font-size="10.00">llvm::PassInfoMixin</text>
<text xml:space="preserve" text-anchor="middle" x="197.12" y="-229.5" font-family="Helvetica,sans-Serif" font-size="10.00">&lt; DerivedT &gt;</text>
</a>
</g>
</g>
<!-- Node6&#45;&gt;Node5 -->
<g id="edge5_Node000005_Node000006" class="edge">
<title>Node6&#45;&gt;Node5</title>
<g id="a_edge5_Node000005_Node000006"><a xlink:title=" ">
<path fill="none" stroke="#63b8ff" d="M197.12,-212.22C197.12,-198.53 197.12,-182.21 197.12,-170.74"/>
<polygon fill="#63b8ff" stroke="#63b8ff" points="193.63,-211.87 197.13,-221.87 200.63,-211.87 193.63,-211.87"/>
</a>
</g>
</g>
</g>
</svg>
