<?xml version="1.0" encoding="UTF-8" standalone="no"?>
<!DOCTYPE svg PUBLIC "-//W3C//DTD SVG 1.1//EN"
 "http://www.w3.org/Graphics/SVG/1.1/DTD/svg11.dtd">
<!-- Generated by graphviz version 14.1.3 (20260303.0454)
 -->
<!-- Title: llvm::DWARFDataExtractorSimple Pages: 1 -->
<svg width="299pt" height="246pt"
 viewBox="0.00 0.00 299.00 246.00" xmlns="http://www.w3.org/2000/svg" xmlns:xlink="http://www.w3.org/1999/xlink">
<g id="graph0" class="graph" transform="scale(1 1) rotate(0) translate(4 242)">
<title>llvm::DWARFDataExtractorSimple</title>
<!-- Node1 -->
<g id="Node000001" class="node">
<title>Node1</title>
<g id="a_Node000001"><a xlink:title=" ">
<polygon fill="#999999" stroke="#666666" points="160.75,-30.5 23.25,-30.5 23.25,0 160.75,0 160.75,-30.5"/>
<text xml:space="preserve" text-anchor="start" x="31.25" y="-17" font-family="Helvetica,sans-Serif" font-size="10.00">llvm::DWARFDataExtractor</text>
<text xml:space="preserve" text-anchor="middle" x="92" y="-5.75" font-family="Helvetica,sans-Serif" font-size="10.00">Simple</text>
</a>
</g>
</g>
<!-- Node2 -->
<g id="Node000002" class="node">
<title>Node2</title>
<g id="a_Node000002"><a xlink:href="classllvm_1_1DWARFDataExtractorBase.html" target="_top" xlink:title=" ">
<polygon fill="white" stroke="#666666" points="184,-98 0,-98 0,-67.5 184,-67.5 184,-98"/>
<text xml:space="preserve" text-anchor="start" x="8" y="-84.5" font-family="Helvetica,sans-Serif" font-size="10.00">llvm::DWARFDataExtractor</text>
<text xml:space="preserve" text-anchor="middle" x="92" y="-73.25" font-family="Helvetica,sans-Serif" font-size="10.00">Base&lt; DWARFDataExtractorSimple &gt;</text>
</a>
</g>
</g>
<!-- Node2&#45;&gt;Node1 -->
<g id="edge1_Node000001_Node000002" class="edge">
<title>Node2&#45;&gt;Node1</title>
<g id="a_edge1_Node000001_Node000002"><a xlink:title=" ">
<path fill="none" stroke="#63b8ff" d="M92,-55.84C92,-47.3 92,-38.12 92,-30.75"/>
<polygon fill="#63b8ff" stroke="#63b8ff" points="88.5,-55.7 92,-65.7 95.5,-55.7 88.5,-55.7"/>
</a>
</g>
</g>
<!-- Node3 -->
<g id="Node000003" class="node">
<title>Node3</title>
<g id="a_Node000003"><a xlink:href="classllvm_1_1DataExtractor.html" target="_top" xlink:title=" ">
<polygon fill="white" stroke="#666666" points="138.38,-238 37.62,-238 37.62,-218.75 138.38,-218.75 138.38,-238"/>
<text xml:space="preserve" text-anchor="middle" x="88" y="-224.5" font-family="Helvetica,sans-Serif" font-size="10.00">llvm::DataExtractor</text>
</a>
</g>
</g>
<!-- Node3&#45;&gt;Node2 -->
<g id="edge2_Node000002_Node000003" class="edge">
<title>Node3&#45;&gt;Node2</title>
<g id="a_edge2_Node000002_Node000003"><a xlink:title=" ">
<path fill="none" stroke="#63b8ff" d="M88.57,-207.09C89.39,-177.62 90.89,-123.71 91.6,-98.05"/>
<polygon fill="#63b8ff" stroke="#63b8ff" points="85.07,-206.78 88.29,-216.88 92.07,-206.98 85.07,-206.78"/>
</a>
</g>
</g>
<!-- Node4 -->
<g id="Node000004" class="node">
<title>Node4</title>
<g id="a_Node000004"><a xlink:href="classllvm_1_1DWARFDataExtractorBase.html" target="_top" xlink:title="A DataExtractor suitable use for parsing dwarf from memory.">
<polygon fill="white" stroke="#666666" points="241.75,-181.75 104.25,-181.75 104.25,-151.25 241.75,-151.25 241.75,-181.75"/>
<text xml:space="preserve" text-anchor="start" x="112.25" y="-168.25" font-family="Helvetica,sans-Serif" font-size="10.00">llvm::DWARFDataExtractor</text>
<text xml:space="preserve" text-anchor="middle" x="173" y="-157" font-family="Helvetica,sans-Serif" font-size="10.00">Base&lt; Relocator &gt;</text>
</a>
</g>
</g>
<!-- Node3&#45;&gt;Node4 -->
<g id="edge4_Node000004_Node000003" class="edge">
<title>Node3&#45;&gt;Node4</title>
<g id="a_edge4_Node000004_Node000003"><a xlink:title=" ">
<path fill="none" stroke="#63b8ff" d="M110.12,-211.8C123.16,-202.61 139.57,-191.05 152.35,-182.05"/>
<polygon fill="#63b8ff" stroke="#63b8ff" points="108.31,-208.79 102.15,-217.41 112.34,-214.51 108.31,-208.79"/>
</a>
</g>
</g>
<!-- Node4&#45;&gt;Node2 -->
<g id="edge3_Node000002_Node000004" class="edge">
<title>Node4&#45;&gt;Node2</title>
<g id="a_edge3_Node000002_Node000004"><a xlink:title=" ">
<path fill="none" stroke="orange" stroke-dasharray="5,2" d="M150.69,-142.98C136.54,-128.7 118.64,-110.64 106.36,-98.24"/>
<polygon fill="orange" stroke="orange" points="147.93,-145.17 157.45,-149.81 152.9,-140.24 147.93,-145.17"/>
</a>
</g>
<text xml:space="preserve" text-anchor="start" x="142.76" y="-122" font-family="Helvetica,sans-Serif" font-size="10.00" fill="grey">&lt; DWARFDataExtractorSimple &gt;</text>
</g>
</g>
</svg>
