<?xml version="1.0" encoding="UTF-8" standalone="no"?>
<!DOCTYPE svg PUBLIC "-//W3C//DTD SVG 1.1//EN"
 "http://www.w3.org/Graphics/SVG/1.1/DTD/svg11.dtd">
<!-- Generated by graphviz version 14.1.3 (20260303.0454)
 -->
<!-- Title: ImplT Pages: 1 -->
<svg width="410pt" height="230pt"
 viewBox="0.00 0.00 410.00 230.00" xmlns="http://www.w3.org/2000/svg" xmlns:xlink="http://www.w3.org/1999/xlink">
<g id="graph0" class="graph" transform="scale(1 1) rotate(0) translate(4 225.75)">
<title>ImplT</title>
<!-- Node1 -->
<g id="Node000001" class="node">
<title>Node1</title>
<g id="a_Node000001"><a xlink:title=" ">
<polygon fill="#999999" stroke="#666666" points="40.75,-120.5 0,-120.5 0,-101.25 40.75,-101.25 40.75,-120.5"/>
<text xml:space="preserve" text-anchor="middle" x="20.38" y="-107" font-family="Helvetica,sans-Serif" font-size="10.00">ImplT</text>
</a>
</g>
</g>
<!-- Node2 -->
<g id="Node000002" class="node">
<title>Node2</title>
<g id="a_Node000002"><a xlink:href="structllvm_1_1orc_1_1CallableTraitsHelper_3_01ImplT_00_01RetT_07ArgTs_8_8_8_08_4.html" target="_top" xlink:title=" ">
<polygon fill="white" stroke="#666666" points="227,-126.12 76.75,-126.12 76.75,-95.62 227,-95.62 227,-126.12"/>
<text xml:space="preserve" text-anchor="start" x="84.75" y="-112.62" font-family="Helvetica,sans-Serif" font-size="10.00">llvm::orc::CallableTraits</text>
<text xml:space="preserve" text-anchor="middle" x="151.88" y="-101.38" font-family="Helvetica,sans-Serif" font-size="10.00">Helper&lt; ImplT, RetT(ArgTs...)&gt;</text>
</a>
</g>
</g>
<!-- Node1&#45;&gt;Node2 -->
<g id="edge1_Node000001_Node000002" class="edge">
<title>Node1&#45;&gt;Node2</title>
<g id="a_edge1_Node000001_Node000002"><a xlink:title=" ">
<path fill="none" stroke="#63b8ff" d="M52.52,-110.88C59.85,-110.88 67.97,-110.88 76.31,-110.88"/>
<polygon fill="#63b8ff" stroke="#63b8ff" points="52.56,-107.38 42.56,-110.88 52.56,-114.38 52.56,-107.38"/>
</a>
</g>
</g>
<!-- Node3 -->
<g id="Node000003" class="node">
<title>Node3</title>
<g id="a_Node000003"><a xlink:href="structllvm_1_1orc_1_1CallableTraitsHelper_3_01ImplT_00_01RetT_07_6_08_07ArgTs_8_8_8_08_4.html" target="_top" xlink:title=" ">
<polygon fill="white" stroke="#666666" points="392.25,-221.75 272.75,-221.75 272.75,-180 392.25,-180 392.25,-221.75"/>
<text xml:space="preserve" text-anchor="start" x="280.75" y="-208.25" font-family="Helvetica,sans-Serif" font-size="10.00">llvm::orc::CallableTraits</text>
<text xml:space="preserve" text-anchor="start" x="280.75" y="-197" font-family="Helvetica,sans-Serif" font-size="10.00">Helper&lt; ImplT, RetT(&amp;)</text>
<text xml:space="preserve" text-anchor="middle" x="332.5" y="-185.75" font-family="Helvetica,sans-Serif" font-size="10.00">(ArgTs...)&gt;</text>
</a>
</g>
</g>
<!-- Node2&#45;&gt;Node3 -->
<g id="edge2_Node000002_Node000003" class="edge">
<title>Node2&#45;&gt;Node3</title>
<g id="a_edge2_Node000002_Node000003"><a xlink:title=" ">
<path fill="none" stroke="#63b8ff" d="M190.01,-132.14C211.16,-144 238.3,-158.77 263,-170.88 268.95,-173.79 275.24,-176.73 281.51,-179.58"/>
<polygon fill="#63b8ff" stroke="#63b8ff" points="191.89,-129.19 181.46,-127.32 188.45,-135.28 191.89,-129.19"/>
</a>
</g>
</g>
<!-- Node4 -->
<g id="Node000004" class="node">
<title>Node4</title>
<g id="a_Node000004"><a xlink:href="structllvm_1_1orc_1_1CallableTraitsHelper_3_01ImplT_00_01RetT_07_5_08_07ArgTs_8_8_8_08_4.html" target="_top" xlink:title=" ">
<polygon fill="white" stroke="#666666" points="392.25,-161.75 272.75,-161.75 272.75,-120 392.25,-120 392.25,-161.75"/>
<text xml:space="preserve" text-anchor="start" x="280.75" y="-148.25" font-family="Helvetica,sans-Serif" font-size="10.00">llvm::orc::CallableTraits</text>
<text xml:space="preserve" text-anchor="start" x="280.75" y="-137" font-family="Helvetica,sans-Serif" font-size="10.00">Helper&lt; ImplT, RetT(*)</text>
<text xml:space="preserve" text-anchor="middle" x="332.5" y="-125.75" font-family="Helvetica,sans-Serif" font-size="10.00">(ArgTs...)&gt;</text>
</a>
</g>
</g>
<!-- Node2&#45;&gt;Node4 -->
<g id="edge3_Node000002_Node000004" class="edge">
<title>Node2&#45;&gt;Node4</title>
<g id="a_edge3_Node000002_Node000004"><a xlink:title=" ">
<path fill="none" stroke="#63b8ff" d="M238.69,-125.29C250.09,-127.2 261.57,-129.13 272.39,-130.95"/>
<polygon fill="#63b8ff" stroke="#63b8ff" points="239.27,-121.84 228.83,-123.63 238.11,-128.74 239.27,-121.84"/>
</a>
</g>
</g>
<!-- Node5 -->
<g id="Node000005" class="node">
<title>Node5</title>
<g id="a_Node000005"><a xlink:href="structllvm_1_1orc_1_1CallableTraitsHelper_3_01ImplT_00_01RetT_07ClassT_1_1_5_08_07ArgTs_8_8_8_08_01const_01_4.html" target="_top" xlink:title=" ">
<polygon fill="white" stroke="#666666" points="402,-101.75 263,-101.75 263,-60 402,-60 402,-101.75"/>
<text xml:space="preserve" text-anchor="start" x="271" y="-88.25" font-family="Helvetica,sans-Serif" font-size="10.00">llvm::orc::CallableTraits</text>
<text xml:space="preserve" text-anchor="start" x="271" y="-77" font-family="Helvetica,sans-Serif" font-size="10.00">Helper&lt; ImplT, RetT(ClassT</text>
<text xml:space="preserve" text-anchor="middle" x="332.5" y="-65.75" font-family="Helvetica,sans-Serif" font-size="10.00">::*)(ArgTs...) const &gt;</text>
</a>
</g>
</g>
<!-- Node2&#45;&gt;Node5 -->
<g id="edge4_Node000002_Node000005" class="edge">
<title>Node2&#45;&gt;Node5</title>
<g id="a_edge4_Node000002_Node000005"><a xlink:title=" ">
<path fill="none" stroke="#63b8ff" d="M238.64,-96.47C246.67,-95.12 254.74,-93.77 262.59,-92.45"/>
<polygon fill="#63b8ff" stroke="#63b8ff" points="238.11,-93.01 228.83,-98.12 239.27,-99.91 238.11,-93.01"/>
</a>
</g>
</g>
<!-- Node6 -->
<g id="Node000006" class="node">
<title>Node6</title>
<g id="a_Node000006"><a xlink:href="structllvm_1_1orc_1_1CallableTraitsHelper_3_01ImplT_00_01RetT_07ClassT_1_1_5_08_07ArgTs_8_8_8_08_4.html" target="_top" xlink:title=" ">
<polygon fill="white" stroke="#666666" points="402,-41.75 263,-41.75 263,0 402,0 402,-41.75"/>
<text xml:space="preserve" text-anchor="start" x="271" y="-28.25" font-family="Helvetica,sans-Serif" font-size="10.00">llvm::orc::CallableTraits</text>
<text xml:space="preserve" text-anchor="start" x="271" y="-17" font-family="Helvetica,sans-Serif" font-size="10.00">Helper&lt; ImplT, RetT(ClassT</text>
<text xml:space="preserve" text-anchor="middle" x="332.5" y="-5.75" font-family="Helvetica,sans-Serif" font-size="10.00">::*)(ArgTs...)&gt;</text>
</a>
</g>
</g>
<!-- Node2&#45;&gt;Node6 -->
<g id="edge5_Node000002_Node000006" class="edge">
<title>Node2&#45;&gt;Node6</title>
<g id="a_edge5_Node000002_Node000006"><a xlink:title=" ">
<path fill="none" stroke="#63b8ff" d="M190.01,-89.61C211.16,-77.75 238.3,-62.98 263,-50.88 268.95,-47.96 275.24,-45.02 281.51,-42.17"/>
<polygon fill="#63b8ff" stroke="#63b8ff" points="188.45,-86.47 181.46,-94.43 191.89,-92.56 188.45,-86.47"/>
</a>
</g>
</g>
</g>
</svg>
