<?xml version="1.0" encoding="UTF-8" standalone="no"?>
<!DOCTYPE svg PUBLIC "-//W3C//DTD SVG 1.1//EN"
 "http://www.w3.org/Graphics/SVG/1.1/DTD/svg11.dtd">
<!-- Generated by graphviz version 14.1.3 (20260303.0454)
 -->
<!-- Title: llvm::ConstantAggregate Pages: 1 -->
<svg width="362pt" height="248pt"
 viewBox="0.00 0.00 362.00 248.00" xmlns="http://www.w3.org/2000/svg" xmlns:xlink="http://www.w3.org/1999/xlink">
<g id="graph0" class="graph" transform="scale(1 1) rotate(0) translate(4 244.25)">
<title>llvm::ConstantAggregate</title>
<!-- Node1 -->
<g id="Node000001" class="node">
<title>Node1</title>
<g id="a_Node000001"><a xlink:title="Base class for aggregate constants (with operands).">
<polygon fill="#999999" stroke="#666666" points="236.5,-74.5 112.5,-74.5 112.5,-55.25 236.5,-55.25 236.5,-74.5"/>
<text xml:space="preserve" text-anchor="middle" x="174.5" y="-61" font-family="Helvetica,sans-Serif" font-size="10.00">llvm::ConstantAggregate</text>
</a>
</g>
</g>
<!-- Node5 -->
<g id="Node000005" class="node">
<title>Node5</title>
<g id="a_Node000005"><a xlink:href="classllvm_1_1ConstantArray.html" target="_top" xlink:title="ConstantArray &#45; Constant Array Declarations.">
<polygon fill="white" stroke="#666666" points="103,-19.25 0,-19.25 0,0 103,0 103,-19.25"/>
<text xml:space="preserve" text-anchor="middle" x="51.5" y="-5.75" font-family="Helvetica,sans-Serif" font-size="10.00">llvm::ConstantArray</text>
</a>
</g>
</g>
<!-- Node1&#45;&gt;Node5 -->
<g id="edge4_Node000001_Node000005" class="edge">
<title>Node1&#45;&gt;Node5</title>
<g id="a_edge4_Node000001_Node000005"><a xlink:title=" ">
<path fill="none" stroke="#63b8ff" d="M143.08,-50.27C120.92,-40.68 91.85,-28.09 72.47,-19.7"/>
<polygon fill="#63b8ff" stroke="#63b8ff" points="141.68,-53.48 152.25,-54.24 144.46,-47.06 141.68,-53.48"/>
</a>
</g>
</g>
<!-- Node6 -->
<g id="Node000006" class="node">
<title>Node6</title>
<g id="a_Node000006"><a xlink:href="classllvm_1_1ConstantStruct.html" target="_top" xlink:title=" ">
<polygon fill="white" stroke="#666666" points="227.5,-19.25 121.5,-19.25 121.5,0 227.5,0 227.5,-19.25"/>
<text xml:space="preserve" text-anchor="middle" x="174.5" y="-5.75" font-family="Helvetica,sans-Serif" font-size="10.00">llvm::ConstantStruct</text>
</a>
</g>
</g>
<!-- Node1&#45;&gt;Node6 -->
<g id="edge5_Node000001_Node000006" class="edge">
<title>Node1&#45;&gt;Node6</title>
<g id="a_edge5_Node000001_Node000006"><a xlink:title=" ">
<path fill="none" stroke="#63b8ff" d="M174.5,-43.63C174.5,-35.34 174.5,-26.17 174.5,-19.61"/>
<polygon fill="#63b8ff" stroke="#63b8ff" points="171,-43.57 174.5,-53.57 178,-43.57 171,-43.57"/>
</a>
</g>
</g>
<!-- Node7 -->
<g id="Node000007" class="node">
<title>Node7</title>
<g id="a_Node000007"><a xlink:href="classllvm_1_1ConstantVector.html" target="_top" xlink:title="Constant Vector Declarations.">
<polygon fill="white" stroke="#666666" points="353.62,-19.25 245.38,-19.25 245.38,0 353.62,0 353.62,-19.25"/>
<text xml:space="preserve" text-anchor="middle" x="299.5" y="-5.75" font-family="Helvetica,sans-Serif" font-size="10.00">llvm::ConstantVector</text>
</a>
</g>
</g>
<!-- Node1&#45;&gt;Node7 -->
<g id="edge6_Node000001_Node000007" class="edge">
<title>Node1&#45;&gt;Node7</title>
<g id="a_edge6_Node000001_Node000007"><a xlink:title=" ">
<path fill="none" stroke="#63b8ff" d="M206.13,-50.4C228.68,-40.79 258.4,-28.13 278.19,-19.7"/>
<polygon fill="#63b8ff" stroke="#63b8ff" points="204.93,-47.11 197.1,-54.25 207.67,-53.55 204.93,-47.11"/>
</a>
</g>
</g>
<!-- Node2 -->
<g id="Node000002" class="node">
<title>Node2</title>
<g id="a_Node000002"><a xlink:href="classllvm_1_1Constant.html" target="_top" xlink:title="This is an important base class in LLVM.">
<polygon fill="white" stroke="#666666" points="214.38,-129.75 134.62,-129.75 134.62,-110.5 214.38,-110.5 214.38,-129.75"/>
<text xml:space="preserve" text-anchor="middle" x="174.5" y="-116.25" font-family="Helvetica,sans-Serif" font-size="10.00">llvm::Constant</text>
</a>
</g>
</g>
<!-- Node2&#45;&gt;Node1 -->
<g id="edge1_Node000001_Node000002" class="edge">
<title>Node2&#45;&gt;Node1</title>
<g id="a_edge1_Node000001_Node000002"><a xlink:title=" ">
<path fill="none" stroke="#63b8ff" d="M174.5,-98.88C174.5,-90.59 174.5,-81.42 174.5,-74.86"/>
<polygon fill="#63b8ff" stroke="#63b8ff" points="171,-98.82 174.5,-108.82 178,-98.82 171,-98.82"/>
</a>
</g>
</g>
<!-- Node3 -->
<g id="Node000003" class="node">
<title>Node3</title>
<g id="a_Node000003"><a xlink:href="classllvm_1_1User.html" target="_top" xlink:title=" ">
<polygon fill="white" stroke="#666666" points="205,-185 144,-185 144,-165.75 205,-165.75 205,-185"/>
<text xml:space="preserve" text-anchor="middle" x="174.5" y="-171.5" font-family="Helvetica,sans-Serif" font-size="10.00">llvm::User</text>
</a>
</g>
</g>
<!-- Node3&#45;&gt;Node2 -->
<g id="edge2_Node000002_Node000003" class="edge">
<title>Node3&#45;&gt;Node2</title>
<g id="a_edge2_Node000002_Node000003"><a xlink:title=" ">
<path fill="none" stroke="#63b8ff" d="M174.5,-154.13C174.5,-145.84 174.5,-136.67 174.5,-130.11"/>
<polygon fill="#63b8ff" stroke="#63b8ff" points="171,-154.07 174.5,-164.07 178,-154.07 171,-154.07"/>
</a>
</g>
</g>
<!-- Node4 -->
<g id="Node000004" class="node">
<title>Node4</title>
<g id="a_Node000004"><a xlink:href="classllvm_1_1Value.html" target="_top" xlink:title="LLVM Value Representation.">
<polygon fill="white" stroke="#666666" points="206.5,-240.25 142.5,-240.25 142.5,-221 206.5,-221 206.5,-240.25"/>
<text xml:space="preserve" text-anchor="middle" x="174.5" y="-226.75" font-family="Helvetica,sans-Serif" font-size="10.00">llvm::Value</text>
</a>
</g>
</g>
<!-- Node4&#45;&gt;Node3 -->
<g id="edge3_Node000003_Node000004" class="edge">
<title>Node4&#45;&gt;Node3</title>
<g id="a_edge3_Node000003_Node000004"><a xlink:title=" ">
<path fill="none" stroke="#63b8ff" d="M174.5,-209.38C174.5,-201.09 174.5,-191.92 174.5,-185.36"/>
<polygon fill="#63b8ff" stroke="#63b8ff" points="171,-209.32 174.5,-219.32 178,-209.32 171,-209.32"/>
</a>
</g>
</g>
</g>
</svg>
