<?xml version="1.0" encoding="UTF-8" standalone="no"?>
<!DOCTYPE svg PUBLIC "-//W3C//DTD SVG 1.1//EN"
 "http://www.w3.org/Graphics/SVG/1.1/DTD/svg11.dtd">
<!-- Generated by graphviz version 14.1.3 (20260303.0454)
 -->
<!-- Title: llvm::object::ObjectFile Pages: 1 -->
<svg width="1029pt" height="291pt"
 viewBox="0.00 0.00 1029.00 291.00" xmlns="http://www.w3.org/2000/svg" xmlns:xlink="http://www.w3.org/1999/xlink">
<g id="graph0" class="graph" transform="scale(1 1) rotate(0) translate(4 286.88)">
<title>llvm::object::ObjectFile</title>
<!-- Node1 -->
<g id="Node000001" class="node">
<title>Node1</title>
<g id="a_Node000001"><a xlink:title="This class is the base class for all object file types.">
<polygon fill="#999999" stroke="#666666" points="419,-130.25 302.5,-130.25 302.5,-111 419,-111 419,-130.25"/>
<text xml:space="preserve" text-anchor="middle" x="360.75" y="-116.75" font-family="Helvetica,sans-Serif" font-size="10.00">llvm::object::ObjectFile</text>
</a>
</g>
</g>
<!-- Node4 -->
<g id="Node000004" class="node">
<title>Node4</title>
<g id="a_Node000004"><a xlink:href="classllvm_1_1object_1_1COFFObjectFile.html" target="_top" xlink:title=" ">
<polygon fill="white" stroke="#666666" points="606.25,-253.25 462.75,-253.25 462.75,-234 606.25,-234 606.25,-253.25"/>
<text xml:space="preserve" text-anchor="middle" x="534.5" y="-239.75" font-family="Helvetica,sans-Serif" font-size="10.00">llvm::object::COFFObjectFile</text>
</a>
</g>
</g>
<!-- Node1&#45;&gt;Node4 -->
<g id="edge3_Node000001_Node000004" class="edge">
<title>Node1&#45;&gt;Node4</title>
<g id="a_edge3_Node000001_Node000004"><a xlink:title=" ">
<path fill="none" stroke="#63b8ff" d="M374.01,-140.1C389.97,-163.78 420.08,-203.22 456,-224.62 462.07,-228.24 468.8,-231.17 475.68,-233.55"/>
<polygon fill="#63b8ff" stroke="#63b8ff" points="377.12,-138.46 368.72,-132 371.26,-142.29 377.12,-138.46"/>
</a>
</g>
</g>
<!-- Node5 -->
<g id="Node000005" class="node">
<title>Node5</title>
<g id="a_Node000005"><a xlink:href="classllvm_1_1object_1_1DXContainerObjectFile.html" target="_top" xlink:title=" ">
<polygon fill="white" stroke="#666666" points="598.75,-215.88 470.25,-215.88 470.25,-185.38 598.75,-185.38 598.75,-215.88"/>
<text xml:space="preserve" text-anchor="start" x="478.25" y="-202.38" font-family="Helvetica,sans-Serif" font-size="10.00">llvm::object::DXContainer</text>
<text xml:space="preserve" text-anchor="middle" x="534.5" y="-191.12" font-family="Helvetica,sans-Serif" font-size="10.00">ObjectFile</text>
</a>
</g>
</g>
<!-- Node1&#45;&gt;Node5 -->
<g id="edge4_Node000001_Node000005" class="edge">
<title>Node1&#45;&gt;Node5</title>
<g id="a_edge4_Node000001_Node000005"><a xlink:title=" ">
<path fill="none" stroke="#63b8ff" d="M385.59,-136.94C404.16,-149.1 430.91,-165.47 456,-176.62 462.82,-179.66 470.14,-182.46 477.46,-185"/>
<polygon fill="#63b8ff" stroke="#63b8ff" points="387.71,-134.14 377.44,-131.51 383.83,-139.97 387.71,-134.14"/>
</a>
</g>
</g>
<!-- Node6 -->
<g id="Node000006" class="node">
<title>Node6</title>
<g id="a_Node000006"><a xlink:href="classllvm_1_1object_1_1ELFObjectFileBase.html" target="_top" xlink:title=" ">
<polygon fill="white" stroke="#666666" points="613,-167.25 456,-167.25 456,-148 613,-148 613,-167.25"/>
<text xml:space="preserve" text-anchor="middle" x="534.5" y="-153.75" font-family="Helvetica,sans-Serif" font-size="10.00">llvm::object::ELFObjectFileBase</text>
</a>
</g>
</g>
<!-- Node1&#45;&gt;Node6 -->
<g id="edge5_Node000001_Node000006" class="edge">
<title>Node1&#45;&gt;Node6</title>
<g id="a_edge5_Node000001_Node000006"><a xlink:title=" ">
<path fill="none" stroke="#63b8ff" d="M419.79,-133.13C441.55,-137.82 466,-143.08 486.63,-147.53"/>
<polygon fill="#63b8ff" stroke="#63b8ff" points="420.67,-129.74 410.16,-131.05 419.2,-136.58 420.67,-129.74"/>
</a>
</g>
</g>
<!-- Node12 -->
<g id="Node000012" class="node">
<title>Node12</title>
<g id="a_Node000012"><a xlink:href="classllvm_1_1object_1_1GOFFObjectFile.html" target="_top" xlink:title=" ">
<polygon fill="white" stroke="#666666" points="606.25,-130.25 462.75,-130.25 462.75,-111 606.25,-111 606.25,-130.25"/>
<text xml:space="preserve" text-anchor="middle" x="534.5" y="-116.75" font-family="Helvetica,sans-Serif" font-size="10.00">llvm::object::GOFFObjectFile</text>
</a>
</g>
</g>
<!-- Node1&#45;&gt;Node12 -->
<g id="edge15_Node000001_Node000012" class="edge">
<title>Node1&#45;&gt;Node12</title>
<g id="a_edge15_Node000001_Node000012"><a xlink:title=" ">
<path fill="none" stroke="#63b8ff" d="M430.9,-120.62C441.22,-120.62 451.89,-120.62 462.25,-120.62"/>
<polygon fill="#63b8ff" stroke="#63b8ff" points="430.93,-117.13 420.93,-120.63 430.93,-124.13 430.93,-117.13"/>
</a>
</g>
</g>
<!-- Node13 -->
<g id="Node000013" class="node">
<title>Node13</title>
<g id="a_Node000013"><a xlink:href="classllvm_1_1object_1_1MachOObjectFile.html" target="_top" xlink:title=" ">
<polygon fill="white" stroke="#666666" points="608.5,-93.25 460.5,-93.25 460.5,-74 608.5,-74 608.5,-93.25"/>
<text xml:space="preserve" text-anchor="middle" x="534.5" y="-79.75" font-family="Helvetica,sans-Serif" font-size="10.00">llvm::object::MachOObjectFile</text>
</a>
</g>
</g>
<!-- Node1&#45;&gt;Node13 -->
<g id="edge16_Node000001_Node000013" class="edge">
<title>Node1&#45;&gt;Node13</title>
<g id="a_edge16_Node000001_Node000013"><a xlink:title=" ">
<path fill="none" stroke="#63b8ff" d="M419.79,-108.12C441.55,-103.43 466,-98.17 486.63,-93.72"/>
<polygon fill="#63b8ff" stroke="#63b8ff" points="419.2,-104.67 410.16,-110.2 420.67,-111.51 419.2,-104.67"/>
</a>
</g>
</g>
<!-- Node14 -->
<g id="Node000014" class="node">
<title>Node14</title>
<g id="a_Node000014"><a xlink:href="classllvm_1_1object_1_1WasmObjectFile.html" target="_top" xlink:title=" ">
<polygon fill="white" stroke="#666666" points="606.62,-56.25 462.38,-56.25 462.38,-37 606.62,-37 606.62,-56.25"/>
<text xml:space="preserve" text-anchor="middle" x="534.5" y="-42.75" font-family="Helvetica,sans-Serif" font-size="10.00">llvm::object::WasmObjectFile</text>
</a>
</g>
</g>
<!-- Node1&#45;&gt;Node14 -->
<g id="edge17_Node000001_Node000014" class="edge">
<title>Node1&#45;&gt;Node14</title>
<g id="a_edge17_Node000001_Node000014"><a xlink:title=" ">
<path fill="none" stroke="#63b8ff" d="M384.73,-104.22C403.2,-91.74 430.22,-74.99 456,-64.62 463.69,-61.53 472.03,-58.9 480.3,-56.69"/>
<polygon fill="#63b8ff" stroke="#63b8ff" points="382.9,-101.23 376.66,-109.8 386.88,-107 382.9,-101.23"/>
</a>
</g>
</g>
<!-- Node15 -->
<g id="Node000015" class="node">
<title>Node15</title>
<g id="a_Node000015"><a xlink:href="classllvm_1_1object_1_1XCOFFObjectFile.html" target="_top" xlink:title=" ">
<polygon fill="white" stroke="#666666" points="609.62,-19.25 459.38,-19.25 459.38,0 609.62,0 609.62,-19.25"/>
<text xml:space="preserve" text-anchor="middle" x="534.5" y="-5.75" font-family="Helvetica,sans-Serif" font-size="10.00">llvm::object::XCOFFObjectFile</text>
</a>
</g>
</g>
<!-- Node1&#45;&gt;Node15 -->
<g id="edge18_Node000001_Node000015" class="edge">
<title>Node1&#45;&gt;Node15</title>
<g id="a_edge18_Node000001_Node000015"><a xlink:title=" ">
<path fill="none" stroke="#63b8ff" d="M375.67,-101.62C392.34,-80.27 422.28,-46.2 456,-27.62 461.81,-24.43 468.16,-21.79 474.65,-19.63"/>
<polygon fill="#63b8ff" stroke="#63b8ff" points="372.96,-99.4 369.7,-109.48 378.53,-103.63 372.96,-99.4"/>
</a>
</g>
</g>
<!-- Node2 -->
<g id="Node000002" class="node">
<title>Node2</title>
<g id="a_Node000002"><a xlink:href="classllvm_1_1object_1_1SymbolicFile.html" target="_top" xlink:title=" ">
<polygon fill="white" stroke="#666666" points="265.5,-130.25 137,-130.25 137,-111 265.5,-111 265.5,-130.25"/>
<text xml:space="preserve" text-anchor="middle" x="201.25" y="-116.75" font-family="Helvetica,sans-Serif" font-size="10.00">llvm::object::SymbolicFile</text>
</a>
</g>
</g>
<!-- Node2&#45;&gt;Node1 -->
<g id="edge1_Node000001_Node000002" class="edge">
<title>Node2&#45;&gt;Node1</title>
<g id="a_edge1_Node000001_Node000002"><a xlink:title=" ">
<path fill="none" stroke="#63b8ff" d="M277.17,-120.62C285.52,-120.62 293.92,-120.62 302.01,-120.62"/>
<polygon fill="#63b8ff" stroke="#63b8ff" points="277.37,-117.13 267.37,-120.63 277.37,-124.13 277.37,-117.13"/>
</a>
</g>
</g>
<!-- Node3 -->
<g id="Node000003" class="node">
<title>Node3</title>
<g id="a_Node000003"><a xlink:href="classllvm_1_1object_1_1Binary.html" target="_top" xlink:title=" ">
<polygon fill="white" stroke="#666666" points="100,-130.25 0,-130.25 0,-111 100,-111 100,-130.25"/>
<text xml:space="preserve" text-anchor="middle" x="50" y="-116.75" font-family="Helvetica,sans-Serif" font-size="10.00">llvm::object::Binary</text>
</a>
</g>
</g>
<!-- Node3&#45;&gt;Node2 -->
<g id="edge2_Node000002_Node000003" class="edge">
<title>Node3&#45;&gt;Node2</title>
<g id="a_edge2_Node000002_Node000003"><a xlink:title=" ">
<path fill="none" stroke="#63b8ff" d="M111.7,-120.62C119.92,-120.62 128.38,-120.62 136.65,-120.62"/>
<polygon fill="#63b8ff" stroke="#63b8ff" points="111.8,-117.13 101.8,-120.63 111.8,-124.13 111.8,-117.13"/>
</a>
</g>
</g>
<!-- Node7 -->
<g id="Node000007" class="node">
<title>Node7</title>
<g id="a_Node000007"><a xlink:href="classllvm_1_1object_1_1ELFObjectFile.html" target="_top" xlink:title=" ">
<polygon fill="white" stroke="#666666" points="1021,-203.88 886.5,-203.88 886.5,-173.38 1021,-173.38 1021,-203.88"/>
<text xml:space="preserve" text-anchor="start" x="894.5" y="-190.38" font-family="Helvetica,sans-Serif" font-size="10.00">llvm::object::ELFObjectFile</text>
<text xml:space="preserve" text-anchor="middle" x="953.75" y="-179.12" font-family="Helvetica,sans-Serif" font-size="10.00">&lt; ELF32LE &gt;</text>
</a>
</g>
</g>
<!-- Node6&#45;&gt;Node7 -->
<g id="edge6_Node000006_Node000007" class="edge">
<title>Node6&#45;&gt;Node7</title>
<g id="a_edge6_Node000006_Node000007"><a xlink:title=" ">
<path fill="none" stroke="#63b8ff" d="M589.64,-170.45C597.5,-172.44 605.47,-174.53 613,-176.62 697.99,-200.25 715.29,-222.36 802.5,-235.62 831.5,-240.04 840.11,-243.01 868.5,-235.62 891.84,-229.55 915.58,-215.44 931.89,-204.26"/>
<polygon fill="#63b8ff" stroke="#63b8ff" points="590.68,-167.1 580.13,-168.08 588.99,-173.89 590.68,-167.1"/>
</a>
</g>
</g>
<!-- Node8 -->
<g id="Node000008" class="node">
<title>Node8</title>
<g id="a_Node000008"><a xlink:href="classllvm_1_1object_1_1ELFObjectFile.html" target="_top" xlink:title=" ">
<polygon fill="white" stroke="#666666" points="1021,-282.88 886.5,-282.88 886.5,-252.38 1021,-252.38 1021,-282.88"/>
<text xml:space="preserve" text-anchor="start" x="894.5" y="-269.38" font-family="Helvetica,sans-Serif" font-size="10.00">llvm::object::ELFObjectFile</text>
<text xml:space="preserve" text-anchor="middle" x="953.75" y="-258.12" font-family="Helvetica,sans-Serif" font-size="10.00">&lt; ELF64LE &gt;</text>
</a>
</g>
</g>
<!-- Node6&#45;&gt;Node8 -->
<g id="edge7_Node000006_Node000008" class="edge">
<title>Node6&#45;&gt;Node8</title>
<g id="a_edge7_Node000006_Node000008"><a xlink:title=" ">
<path fill="none" stroke="#63b8ff" d="M605.36,-172.25C608,-173.58 610.56,-175.04 613,-176.62 635.57,-191.32 626.96,-210.67 650,-224.62 722.08,-268.29 821.19,-274.34 886.08,-272.63"/>
<polygon fill="#63b8ff" stroke="#63b8ff" points="606.77,-169.05 596.2,-168.29 603.99,-175.47 606.77,-169.05"/>
</a>
</g>
</g>
<!-- Node9 -->
<g id="Node000009" class="node">
<title>Node9</title>
<g id="a_Node000009"><a xlink:href="classllvm_1_1object_1_1ELFObjectFile.html" target="_top" xlink:title=" ">
<polygon fill="white" stroke="#666666" points="1021,-66.88 886.5,-66.88 886.5,-36.38 1021,-36.38 1021,-66.88"/>
<text xml:space="preserve" text-anchor="start" x="894.5" y="-53.38" font-family="Helvetica,sans-Serif" font-size="10.00">llvm::object::ELFObjectFile</text>
<text xml:space="preserve" text-anchor="middle" x="953.75" y="-42.12" font-family="Helvetica,sans-Serif" font-size="10.00">&lt; ELF32BE &gt;</text>
</a>
</g>
</g>
<!-- Node6&#45;&gt;Node9 -->
<g id="edge8_Node000006_Node000009" class="edge">
<title>Node6&#45;&gt;Node9</title>
<g id="a_edge8_Node000006_Node000009"><a xlink:title=" ">
<path fill="none" stroke="#63b8ff" d="M609.35,-142.15C610.6,-141.35 611.82,-140.51 613,-139.62 639.65,-119.75 621.92,-92.41 650,-74.62 720.92,-29.71 820.76,-31.78 886.1,-39.75"/>
<polygon fill="#63b8ff" stroke="#63b8ff" points="607.75,-139.03 600.57,-146.81 611.04,-145.21 607.75,-139.03"/>
</a>
</g>
</g>
<!-- Node10 -->
<g id="Node000010" class="node">
<title>Node10</title>
<g id="a_Node000010"><a xlink:href="classllvm_1_1object_1_1ELFObjectFile.html" target="_top" xlink:title=" ">
<polygon fill="white" stroke="#666666" points="1021,-141.88 886.5,-141.88 886.5,-111.38 1021,-111.38 1021,-141.88"/>
<text xml:space="preserve" text-anchor="start" x="894.5" y="-128.38" font-family="Helvetica,sans-Serif" font-size="10.00">llvm::object::ELFObjectFile</text>
<text xml:space="preserve" text-anchor="middle" x="953.75" y="-117.12" font-family="Helvetica,sans-Serif" font-size="10.00">&lt; ELF64BE &gt;</text>
</a>
</g>
</g>
<!-- Node6&#45;&gt;Node10 -->
<g id="edge9_Node000006_Node000010" class="edge">
<title>Node6&#45;&gt;Node10</title>
<g id="a_edge9_Node000006_Node000010"><a xlink:title=" ">
<path fill="none" stroke="#63b8ff" d="M592.09,-144.89C599.15,-143.18 606.25,-141.4 613,-139.62 725.41,-109.99 755.47,-56.45 868.5,-83.62 890.53,-88.92 913.29,-101 929.6,-111.02"/>
<polygon fill="#63b8ff" stroke="#63b8ff" points="591.49,-141.44 582.57,-147.16 593.11,-148.25 591.49,-141.44"/>
</a>
</g>
</g>
<!-- Node11 -->
<g id="Node000011" class="node">
<title>Node11</title>
<g id="a_Node000011"><a xlink:href="classllvm_1_1object_1_1ELFObjectFile.html" target="_top" xlink:title=" ">
<polygon fill="white" stroke="#666666" points="784.5,-172.88 650,-172.88 650,-142.38 784.5,-142.38 784.5,-172.88"/>
<text xml:space="preserve" text-anchor="start" x="658" y="-159.38" font-family="Helvetica,sans-Serif" font-size="10.00">llvm::object::ELFObjectFile</text>
<text xml:space="preserve" text-anchor="middle" x="717.25" y="-148.12" font-family="Helvetica,sans-Serif" font-size="10.00">&lt; ELFT &gt;</text>
</a>
</g>
</g>
<!-- Node6&#45;&gt;Node11 -->
<g id="edge10_Node000006_Node000011" class="edge">
<title>Node6&#45;&gt;Node11</title>
<g id="a_edge10_Node000006_Node000011"><a xlink:title=" ">
<path fill="none" stroke="#63b8ff" d="M624.81,-157.62C633.16,-157.62 641.52,-157.62 649.6,-157.62"/>
<polygon fill="#63b8ff" stroke="#63b8ff" points="624.98,-154.13 614.98,-157.63 624.98,-161.13 624.98,-154.13"/>
</a>
</g>
</g>
<!-- Node11&#45;&gt;Node7 -->
<g id="edge11_Node000011_Node000007" class="edge">
<title>Node11&#45;&gt;Node7</title>
<g id="a_edge11_Node000011_Node000007"><a xlink:title=" ">
<path fill="none" stroke="orange" stroke-dasharray="5,2" d="M796.19,-167.93C825.28,-171.77 858.02,-176.1 886.01,-179.8"/>
<polygon fill="orange" stroke="orange" points="796.69,-164.46 786.32,-166.62 795.78,-171.4 796.69,-164.46"/>
</a>
</g>
<text xml:space="preserve" text-anchor="start" x="806.25" y="-182.81" font-family="Helvetica,sans-Serif" font-size="10.00" fill="grey">&lt; ELF32LE &gt;</text>
</g>
<!-- Node11&#45;&gt;Node8 -->
<g id="edge12_Node000011_Node000008" class="edge">
<title>Node11&#45;&gt;Node8</title>
<g id="a_edge12_Node000011_Node000008"><a xlink:title=" ">
<path fill="none" stroke="orange" stroke-dasharray="5,2" d="M761.52,-177.92C807.13,-199.32 877.99,-232.56 919.44,-252"/>
<polygon fill="orange" stroke="orange" points="763.26,-174.87 752.72,-173.79 760.29,-181.21 763.26,-174.87"/>
</a>
</g>
<text xml:space="preserve" text-anchor="start" x="806.25" y="-231.71" font-family="Helvetica,sans-Serif" font-size="10.00" fill="grey">&lt; ELF64LE &gt;</text>
</g>
<!-- Node11&#45;&gt;Node9 -->
<g id="edge13_Node000011_Node000009" class="edge">
<title>Node11&#45;&gt;Node9</title>
<g id="a_edge13_Node000011_Node000009"><a xlink:title=" ">
<path fill="none" stroke="orange" stroke-dasharray="5,2" d="M760.84,-136.94C774.14,-130.57 788.89,-123.6 802.5,-117.38 840.95,-99.78 885.35,-80.48 915.86,-67.36"/>
<polygon fill="orange" stroke="orange" points="759.4,-133.75 751.9,-141.24 762.43,-140.06 759.4,-133.75"/>
</a>
</g>
<text xml:space="preserve" text-anchor="start" x="805.5" y="-123.38" font-family="Helvetica,sans-Serif" font-size="10.00" fill="grey">&lt; ELF32BE &gt;</text>
</g>
<!-- Node11&#45;&gt;Node10 -->
<g id="edge14_Node000011_Node000010" class="edge">
<title>Node11&#45;&gt;Node10</title>
<g id="a_edge14_Node000011_Node000010"><a xlink:title=" ">
<path fill="none" stroke="orange" stroke-dasharray="5,2" d="M796.19,-147.32C825.28,-143.48 858.02,-139.15 886.01,-135.45"/>
<polygon fill="orange" stroke="orange" points="795.78,-143.85 786.32,-148.63 796.69,-150.79 795.78,-143.85"/>
</a>
</g>
<text xml:space="preserve" text-anchor="start" x="805.5" y="-151.81" font-family="Helvetica,sans-Serif" font-size="10.00" fill="grey">&lt; ELF64BE &gt;</text>
</g>
</g>
</svg>
