<?xml version="1.0" encoding="UTF-8" standalone="no"?>
<!DOCTYPE svg PUBLIC "-//W3C//DTD SVG 1.1//EN"
 "http://www.w3.org/Graphics/SVG/1.1/DTD/svg11.dtd">
<!-- Generated by graphviz version 14.1.3 (20260303.0454)
 -->
<!-- Title: llvm::VPUnrollPartAccessor&lt; PartOpIdx &gt; Pages: 1 -->
<svg width="753pt" height="205pt"
 viewBox="0.00 0.00 753.00 205.00" xmlns="http://www.w3.org/2000/svg" xmlns:xlink="http://www.w3.org/1999/xlink">
<g id="graph0" class="graph" transform="scale(1 1) rotate(0) translate(4 201.25)">
<title>llvm::VPUnrollPartAccessor&lt; PartOpIdx &gt;</title>
<!-- Node1 -->
<g id="Node000001" class="node">
<title>Node1</title>
<g id="a_Node000001"><a xlink:title="Helper to access the operand that contains the unroll part for this recipe after unrolling.">
<polygon fill="#999999" stroke="#666666" points="138.25,-99.88 0,-99.88 0,-69.38 138.25,-69.38 138.25,-99.88"/>
<text xml:space="preserve" text-anchor="start" x="8" y="-86.38" font-family="Helvetica,sans-Serif" font-size="10.00">llvm::VPUnrollPartAccessor</text>
<text xml:space="preserve" text-anchor="middle" x="69.12" y="-75.12" font-family="Helvetica,sans-Serif" font-size="10.00">&lt; PartOpIdx &gt;</text>
</a>
</g>
</g>
<!-- Node2 -->
<g id="Node000002" class="node">
<title>Node2</title>
<g id="a_Node000002"><a xlink:href="classllvm_1_1VPUnrollPartAccessor.html" target="_top" xlink:title=" ">
<polygon fill="white" stroke="#666666" points="365,-142.25 203.5,-142.25 203.5,-123 365,-123 365,-142.25"/>
<text xml:space="preserve" text-anchor="middle" x="284.25" y="-128.75" font-family="Helvetica,sans-Serif" font-size="10.00">llvm::VPUnrollPartAccessor&lt; 1 &gt;</text>
</a>
</g>
</g>
<!-- Node1&#45;&gt;Node2 -->
<g id="edge1_Node000001_Node000002" class="edge">
<title>Node1&#45;&gt;Node2</title>
<g id="a_edge1_Node000001_Node000002"><a xlink:title=" ">
<path fill="none" stroke="orange" stroke-dasharray="5,2" d="M144.66,-102.94C148.58,-103.86 152.46,-104.76 156.25,-105.62 181.85,-111.47 210.45,-117.58 234.02,-122.51"/>
<polygon fill="orange" stroke="orange" points="145.58,-99.57 135.04,-100.67 143.97,-106.38 145.58,-99.57"/>
</a>
</g>
<text xml:space="preserve" text-anchor="start" x="159.25" y="-117.82" font-family="Helvetica,sans-Serif" font-size="10.00" fill="grey">&lt; 1 &gt;</text>
</g>
<!-- Node7 -->
<g id="Node000007" class="node">
<title>Node7</title>
<g id="a_Node000007"><a xlink:href="classllvm_1_1VPUnrollPartAccessor.html" target="_top" xlink:title=" ">
<polygon fill="white" stroke="#666666" points="365,-94.25 203.5,-94.25 203.5,-75 365,-75 365,-94.25"/>
<text xml:space="preserve" text-anchor="middle" x="284.25" y="-80.75" font-family="Helvetica,sans-Serif" font-size="10.00">llvm::VPUnrollPartAccessor&lt; 2 &gt;</text>
</a>
</g>
</g>
<!-- Node1&#45;&gt;Node7 -->
<g id="edge6_Node000001_Node000007" class="edge">
<title>Node1&#45;&gt;Node7</title>
<g id="a_edge6_Node000001_Node000007"><a xlink:title=" ">
<path fill="none" stroke="orange" stroke-dasharray="5,2" d="M150.01,-84.62C167.42,-84.62 185.85,-84.62 203.26,-84.62"/>
<polygon fill="orange" stroke="orange" points="150.25,-81.13 140.25,-84.63 150.25,-88.13 150.25,-81.13"/>
</a>
</g>
<text xml:space="preserve" text-anchor="start" x="159.25" y="-90.62" font-family="Helvetica,sans-Serif" font-size="10.00" fill="grey">&lt; 2 &gt;</text>
</g>
<!-- Node10 -->
<g id="Node000010" class="node">
<title>Node10</title>
<g id="a_Node000010"><a xlink:href="classllvm_1_1VPUnrollPartAccessor.html" target="_top" xlink:title=" ">
<polygon fill="white" stroke="#666666" points="365,-22.25 203.5,-22.25 203.5,-3 365,-3 365,-22.25"/>
<text xml:space="preserve" text-anchor="middle" x="284.25" y="-8.75" font-family="Helvetica,sans-Serif" font-size="10.00">llvm::VPUnrollPartAccessor&lt; 3 &gt;</text>
</a>
</g>
</g>
<!-- Node1&#45;&gt;Node10 -->
<g id="edge9_Node000001_Node000010" class="edge">
<title>Node1&#45;&gt;Node10</title>
<g id="a_edge9_Node000001_Node000010"><a xlink:title=" ">
<path fill="none" stroke="orange" stroke-dasharray="5,2" d="M127.48,-65.25C168.15,-51.51 221.07,-33.63 253.57,-22.65"/>
<polygon fill="orange" stroke="orange" points="126.42,-61.91 118.07,-68.43 128.66,-68.54 126.42,-61.91"/>
</a>
</g>
<text xml:space="preserve" text-anchor="start" x="159.25" y="-61.07" font-family="Helvetica,sans-Serif" font-size="10.00" fill="grey">&lt; 3 &gt;</text>
</g>
<!-- Node3 -->
<g id="Node000003" class="node">
<title>Node3</title>
<g id="a_Node000003"><a xlink:href="classllvm_1_1VPInstruction.html" target="_top" xlink:title="This is a concrete Recipe that models a single VPlan&#45;level instruction.">
<polygon fill="white" stroke="#666666" points="534.25,-179.25 435,-179.25 435,-160 534.25,-160 534.25,-179.25"/>
<text xml:space="preserve" text-anchor="middle" x="484.62" y="-165.75" font-family="Helvetica,sans-Serif" font-size="10.00">llvm::VPInstruction</text>
</a>
</g>
</g>
<!-- Node2&#45;&gt;Node3 -->
<g id="edge2_Node000002_Node000003" class="edge">
<title>Node2&#45;&gt;Node3</title>
<g id="a_edge2_Node000002_Node000003"><a xlink:title=" ">
<path fill="none" stroke="#63b8ff" d="M350.53,-144.8C377.91,-149.91 409.21,-155.74 434.57,-160.48"/>
<polygon fill="#63b8ff" stroke="#63b8ff" points="351.42,-141.41 340.94,-143.01 350.13,-148.29 351.42,-141.41"/>
</a>
</g>
</g>
<!-- Node6 -->
<g id="Node000006" class="node">
<title>Node6</title>
<g id="a_Node000006"><a xlink:href="classllvm_1_1VPWidenCanonicalIVRecipe.html" target="_top" xlink:title="A Recipe for widening the canonical induction variable of the vector loop.">
<polygon fill="white" stroke="#666666" points="567.25,-142.25 402,-142.25 402,-123 567.25,-123 567.25,-142.25"/>
<text xml:space="preserve" text-anchor="middle" x="484.62" y="-128.75" font-family="Helvetica,sans-Serif" font-size="10.00">llvm::VPWidenCanonicalIVRecipe</text>
</a>
</g>
</g>
<!-- Node2&#45;&gt;Node6 -->
<g id="edge5_Node000002_Node000006" class="edge">
<title>Node2&#45;&gt;Node6</title>
<g id="a_edge5_Node000002_Node000006"><a xlink:title=" ">
<path fill="none" stroke="#63b8ff" d="M376.64,-132.62C384.97,-132.62 393.36,-132.62 401.59,-132.62"/>
<polygon fill="#63b8ff" stroke="#63b8ff" points="376.88,-129.13 366.88,-132.63 376.88,-136.13 376.88,-129.13"/>
</a>
</g>
</g>
<!-- Node4 -->
<g id="Node000004" class="node">
<title>Node4</title>
<g id="a_Node000004"><a xlink:href="classllvm_1_1VPInstructionWithType.html" target="_top" xlink:title="A specialization of VPInstruction augmenting it with a dedicated result type, to be used when the opc...">
<polygon fill="white" stroke="#666666" points="744.75,-197.25 604.25,-197.25 604.25,-178 744.75,-178 744.75,-197.25"/>
<text xml:space="preserve" text-anchor="middle" x="674.5" y="-183.75" font-family="Helvetica,sans-Serif" font-size="10.00">llvm::VPInstructionWithType</text>
</a>
</g>
</g>
<!-- Node3&#45;&gt;Node4 -->
<g id="edge3_Node000003_Node000004" class="edge">
<title>Node3&#45;&gt;Node4</title>
<g id="a_edge3_Node000003_Node000004"><a xlink:title=" ">
<path fill="none" stroke="#63b8ff" d="M545.75,-175.39C564.3,-177.16 584.88,-179.13 604.01,-180.97"/>
<polygon fill="#63b8ff" stroke="#63b8ff" points="546.29,-171.92 536,-174.45 545.62,-178.89 546.29,-171.92"/>
</a>
</g>
</g>
<!-- Node5 -->
<g id="Node000005" class="node">
<title>Node5</title>
<g id="a_Node000005"><a xlink:href="structllvm_1_1VPPhi.html" target="_top" xlink:title=" ">
<polygon fill="white" stroke="#666666" points="708.38,-160.25 640.62,-160.25 640.62,-141 708.38,-141 708.38,-160.25"/>
<text xml:space="preserve" text-anchor="middle" x="674.5" y="-146.75" font-family="Helvetica,sans-Serif" font-size="10.00">llvm::VPPhi</text>
</a>
</g>
</g>
<!-- Node3&#45;&gt;Node5 -->
<g id="edge4_Node000003_Node000005" class="edge">
<title>Node3&#45;&gt;Node5</title>
<g id="a_edge4_Node000003_Node000005"><a xlink:title=" ">
<path fill="none" stroke="#63b8ff" d="M545.74,-163.55C577.04,-160.38 614.13,-156.63 640.26,-153.99"/>
<polygon fill="#63b8ff" stroke="#63b8ff" points="545.6,-160.04 536,-164.53 546.3,-167.01 545.6,-160.04"/>
</a>
</g>
</g>
<!-- Node8 -->
<g id="Node000008" class="node">
<title>Node8</title>
<g id="a_Node000008"><a xlink:href="classllvm_1_1VPReductionPHIRecipe.html" target="_top" xlink:title="A recipe for handling reduction phis.">
<polygon fill="white" stroke="#666666" points="557.5,-105.25 411.75,-105.25 411.75,-86 557.5,-86 557.5,-105.25"/>
<text xml:space="preserve" text-anchor="middle" x="484.62" y="-91.75" font-family="Helvetica,sans-Serif" font-size="10.00">llvm::VPReductionPHIRecipe</text>
</a>
</g>
</g>
<!-- Node7&#45;&gt;Node8 -->
<g id="edge7_Node000007_Node000008" class="edge">
<title>Node7&#45;&gt;Node8</title>
<g id="a_edge7_Node000007_Node000008"><a xlink:title=" ">
<path fill="none" stroke="#63b8ff" d="M376.55,-89.69C388.28,-90.34 400.16,-91 411.53,-91.63"/>
<polygon fill="#63b8ff" stroke="#63b8ff" points="377.05,-86.21 366.88,-89.15 376.67,-93.2 377.05,-86.21"/>
</a>
</g>
</g>
<!-- Node9 -->
<g id="Node000009" class="node">
<title>Node9</title>
<g id="a_Node000009"><a xlink:href="classllvm_1_1VPVectorEndPointerRecipe.html" target="_top" xlink:title="A recipe to compute a pointer to the last element of each part of a widened memory access for widened...">
<polygon fill="white" stroke="#666666" points="549.62,-67.88 419.62,-67.88 419.62,-37.38 549.62,-37.38 549.62,-67.88"/>
<text xml:space="preserve" text-anchor="start" x="427.62" y="-54.38" font-family="Helvetica,sans-Serif" font-size="10.00">llvm::VPVectorEndPointer</text>
<text xml:space="preserve" text-anchor="middle" x="484.62" y="-43.12" font-family="Helvetica,sans-Serif" font-size="10.00">Recipe</text>
</a>
</g>
</g>
<!-- Node7&#45;&gt;Node9 -->
<g id="edge8_Node000007_Node000009" class="edge">
<title>Node7&#45;&gt;Node9</title>
<g id="a_edge8_Node000007_Node000009"><a xlink:title=" ">
<path fill="none" stroke="#63b8ff" d="M359.13,-72.71C378.87,-69.52 400.04,-66.11 419.22,-63.01"/>
<polygon fill="#63b8ff" stroke="#63b8ff" points="358.83,-69.21 349.51,-74.26 359.94,-76.12 358.83,-69.21"/>
</a>
</g>
</g>
<!-- Node11 -->
<g id="Node000011" class="node">
<title>Node11</title>
<g id="a_Node000011"><a xlink:href="classllvm_1_1VPScalarIVStepsRecipe.html" target="_top" xlink:title="A recipe for handling phi nodes of integer and floating&#45;point inductions, producing their scalar valu...">
<polygon fill="white" stroke="#666666" points="558.25,-19.25 411,-19.25 411,0 558.25,0 558.25,-19.25"/>
<text xml:space="preserve" text-anchor="middle" x="484.62" y="-5.75" font-family="Helvetica,sans-Serif" font-size="10.00">llvm::VPScalarIVStepsRecipe</text>
</a>
</g>
</g>
<!-- Node10&#45;&gt;Node11 -->
<g id="edge10_Node000010_Node000011" class="edge">
<title>Node10&#45;&gt;Node11</title>
<g id="a_edge10_Node000010_Node000011"><a xlink:title=" ">
<path fill="none" stroke="#63b8ff" d="M376.67,-11.24C388.03,-11.07 399.54,-10.9 410.58,-10.73"/>
<polygon fill="#63b8ff" stroke="#63b8ff" points="376.82,-7.74 366.88,-11.39 376.93,-14.74 376.82,-7.74"/>
</a>
</g>
</g>
</g>
</svg>
