<?xml version="1.0" encoding="UTF-8" standalone="no"?>
<!DOCTYPE svg PUBLIC "-//W3C//DTD SVG 1.1//EN"
 "http://www.w3.org/Graphics/SVG/1.1/DTD/svg11.dtd">
<!-- Generated by graphviz version 14.1.3 (20260303.0454)
 -->
<!-- Title: llvm::objcopy::elf::DynamicSymbolTableSection Pages: 1 -->
<svg width="158pt" height="172pt"
 viewBox="0.00 0.00 158.00 172.00" xmlns="http://www.w3.org/2000/svg" xmlns:xlink="http://www.w3.org/1999/xlink">
<g id="graph0" class="graph" transform="scale(1 1) rotate(0) translate(4 167.5)">
<title>llvm::objcopy::elf::DynamicSymbolTableSection</title>
<!-- Node1 -->
<g id="Node000001" class="node">
<title>Node1</title>
<g id="a_Node000001"><a xlink:title=" ">
<polygon fill="#999999" stroke="#666666" points="150.25,-30.5 0,-30.5 0,0 150.25,0 150.25,-30.5"/>
<text xml:space="preserve" text-anchor="start" x="8" y="-17" font-family="Helvetica,sans-Serif" font-size="10.00">llvm::objcopy::elf</text>
<text xml:space="preserve" text-anchor="middle" x="75.12" y="-5.75" font-family="Helvetica,sans-Serif" font-size="10.00">::DynamicSymbolTableSection</text>
</a>
</g>
</g>
<!-- Node2 -->
<g id="Node000002" class="node">
<title>Node2</title>
<g id="a_Node000002"><a xlink:href="classllvm_1_1objcopy_1_1elf_1_1Section.html" target="_top" xlink:title=" ">
<polygon fill="white" stroke="#666666" points="120.25,-97 30,-97 30,-66.5 120.25,-66.5 120.25,-97"/>
<text xml:space="preserve" text-anchor="start" x="38" y="-83.5" font-family="Helvetica,sans-Serif" font-size="10.00">llvm::objcopy::elf</text>
<text xml:space="preserve" text-anchor="middle" x="75.12" y="-72.25" font-family="Helvetica,sans-Serif" font-size="10.00">::Section</text>
</a>
</g>
</g>
<!-- Node2&#45;&gt;Node1 -->
<g id="edge1_Node000001_Node000002" class="edge">
<title>Node2&#45;&gt;Node1</title>
<g id="a_edge1_Node000001_Node000002"><a xlink:title=" ">
<path fill="none" stroke="#63b8ff" d="M75.12,-54.81C75.12,-46.64 75.12,-37.91 75.12,-30.83"/>
<polygon fill="#63b8ff" stroke="#63b8ff" points="71.63,-54.6 75.13,-64.6 78.63,-54.6 71.63,-54.6"/>
</a>
</g>
</g>
<!-- Node3 -->
<g id="Node000003" class="node">
<title>Node3</title>
<g id="a_Node000003"><a xlink:href="classllvm_1_1objcopy_1_1elf_1_1SectionBase.html" target="_top" xlink:title=" ">
<polygon fill="white" stroke="#666666" points="120.25,-163.5 30,-163.5 30,-133 120.25,-133 120.25,-163.5"/>
<text xml:space="preserve" text-anchor="start" x="38" y="-150" font-family="Helvetica,sans-Serif" font-size="10.00">llvm::objcopy::elf</text>
<text xml:space="preserve" text-anchor="middle" x="75.12" y="-138.75" font-family="Helvetica,sans-Serif" font-size="10.00">::SectionBase</text>
</a>
</g>
</g>
<!-- Node3&#45;&gt;Node2 -->
<g id="edge2_Node000002_Node000003" class="edge">
<title>Node3&#45;&gt;Node2</title>
<g id="a_edge2_Node000002_Node000003"><a xlink:title=" ">
<path fill="none" stroke="#63b8ff" d="M75.12,-121.31C75.12,-113.14 75.12,-104.41 75.12,-97.33"/>
<polygon fill="#63b8ff" stroke="#63b8ff" points="71.63,-121.1 75.13,-131.1 78.63,-121.1 71.63,-121.1"/>
</a>
</g>
</g>
</g>
</svg>
