<?xml version="1.0" encoding="UTF-8" standalone="no"?>
<!DOCTYPE svg PUBLIC "-//W3C//DTD SVG 1.1//EN"
 "http://www.w3.org/Graphics/SVG/1.1/DTD/svg11.dtd">
<!-- Generated by graphviz version 14.1.3 (20260303.0454)
 -->
<!-- Title: llvm::ValueMapIteratorImpl&lt; DenseMapT, KeyT, IsConst &gt; Pages: 1 -->
<svg width="441pt" height="200pt"
 viewBox="0.00 0.00 441.00 200.00" xmlns="http://www.w3.org/2000/svg" xmlns:xlink="http://www.w3.org/1999/xlink">
<g id="graph0" class="graph" transform="scale(1 1) rotate(0) translate(4 195.5)">
<title>llvm::ValueMapIteratorImpl&lt; DenseMapT, KeyT, IsConst &gt;</title>
<!-- Node1 -->
<g id="Node000001" class="node">
<title>Node1</title>
<g id="a_Node000001"><a xlink:title=" ">
<polygon fill="#999999" stroke="#666666" points="154,-114.5 0,-114.5 0,-84 154,-84 154,-114.5"/>
<text xml:space="preserve" text-anchor="start" x="8" y="-101" font-family="Helvetica,sans-Serif" font-size="10.00">llvm::ValueMapIteratorImpl</text>
<text xml:space="preserve" text-anchor="middle" x="77" y="-89.75" font-family="Helvetica,sans-Serif" font-size="10.00">&lt; DenseMapT, KeyT, IsConst &gt;</text>
</a>
</g>
</g>
<!-- Node2 -->
<g id="Node000002" class="node">
<title>Node2</title>
<g id="a_Node000002"><a xlink:href="classllvm_1_1ValueMapIteratorImpl.html" target="_top" xlink:title=" ">
<polygon fill="white" stroke="#666666" points="428.38,-191.5 296.12,-191.5 296.12,-161 428.38,-161 428.38,-191.5"/>
<text xml:space="preserve" text-anchor="start" x="304.12" y="-178" font-family="Helvetica,sans-Serif" font-size="10.00">llvm::ValueMapIteratorImpl</text>
<text xml:space="preserve" text-anchor="middle" x="362.25" y="-166.75" font-family="Helvetica,sans-Serif" font-size="10.00">&lt; MapT, KeyT, false &gt;</text>
</a>
</g>
</g>
<!-- Node1&#45;&gt;Node2 -->
<g id="edge1_Node000001_Node000002" class="edge">
<title>Node1&#45;&gt;Node2</title>
<g id="a_edge1_Node000001_Node000002"><a xlink:title=" ">
<path fill="none" stroke="orange" stroke-dasharray="5,2" d="M120.1,-119.39C136.07,-126.44 154.61,-133.92 172,-139.25 212.49,-151.67 259.17,-160.85 296.04,-166.96"/>
<polygon fill="orange" stroke="orange" points="121.94,-116.38 111.38,-115.47 119.06,-122.76 121.94,-116.38"/>
</a>
</g>
<text xml:space="preserve" text-anchor="start" x="175" y="-168.23" font-family="Helvetica,sans-Serif" font-size="10.00" fill="grey">&lt; MapT, KeyT, false &gt;</text>
</g>
<!-- Node3 -->
<g id="Node000003" class="node">
<title>Node3</title>
<g id="a_Node000003"><a xlink:href="classllvm_1_1ValueMapIteratorImpl.html" target="_top" xlink:title=" ">
<polygon fill="white" stroke="#666666" points="428.38,-142.5 296.12,-142.5 296.12,-112 428.38,-112 428.38,-142.5"/>
<text xml:space="preserve" text-anchor="start" x="304.12" y="-129" font-family="Helvetica,sans-Serif" font-size="10.00">llvm::ValueMapIteratorImpl</text>
<text xml:space="preserve" text-anchor="middle" x="362.25" y="-117.75" font-family="Helvetica,sans-Serif" font-size="10.00">&lt; MapT, KeyT, true &gt;</text>
</a>
</g>
</g>
<!-- Node1&#45;&gt;Node3 -->
<g id="edge2_Node000001_Node000003" class="edge">
<title>Node1&#45;&gt;Node3</title>
<g id="a_edge2_Node000001_Node000003"><a xlink:title=" ">
<path fill="none" stroke="orange" stroke-dasharray="5,2" d="M165.64,-107.91C207.69,-112.07 257.2,-116.96 295.9,-120.79"/>
<polygon fill="orange" stroke="orange" points="166.08,-104.44 155.78,-106.94 165.39,-111.41 166.08,-104.44"/>
</a>
</g>
<text xml:space="preserve" text-anchor="start" x="177.25" y="-124.19" font-family="Helvetica,sans-Serif" font-size="10.00" fill="grey">&lt; MapT, KeyT, true &gt;</text>
</g>
<!-- Node4 -->
<g id="Node000004" class="node">
<title>Node4</title>
<g id="a_Node000004"><a xlink:href="classllvm_1_1ValueMapIteratorImpl.html" target="_top" xlink:title=" ">
<polygon fill="white" stroke="#666666" points="432.5,-86.5 292,-86.5 292,-56 432.5,-56 432.5,-86.5"/>
<text xml:space="preserve" text-anchor="start" x="300" y="-73" font-family="Helvetica,sans-Serif" font-size="10.00">llvm::ValueMapIteratorImpl</text>
<text xml:space="preserve" text-anchor="middle" x="362.25" y="-61.75" font-family="Helvetica,sans-Serif" font-size="10.00">&lt; DenseMapT, KeyT, false &gt;</text>
</a>
</g>
</g>
<!-- Node1&#45;&gt;Node4 -->
<g id="edge3_Node000001_Node000004" class="edge">
<title>Node1&#45;&gt;Node4</title>
<g id="a_edge3_Node000001_Node000004"><a xlink:title=" ">
<path fill="none" stroke="orange" stroke-dasharray="5,2" d="M135.16,-80.52C147.2,-77.32 159.92,-74.47 172,-72.75 211.36,-67.15 255.79,-66.51 291.71,-67.39"/>
<polygon fill="orange" stroke="orange" points="134.48,-77.08 125.79,-83.14 136.36,-83.82 134.48,-77.08"/>
</a>
</g>
<text xml:space="preserve" text-anchor="start" x="177.25" y="-94" font-family="Helvetica,sans-Serif" font-size="10.00" fill="grey">&lt; DenseMapT, KeyT,</text>
<text xml:space="preserve" text-anchor="start" x="177.25" y="-78.75" font-family="Helvetica,sans-Serif" font-size="10.00" fill="grey">   false &gt;</text>
</g>
<!-- Node5 -->
<g id="Node000005" class="node">
<title>Node5</title>
<g id="a_Node000005"><a xlink:href="classllvm_1_1ValueMapIteratorImpl.html" target="_top" xlink:title=" ">
<polygon fill="white" stroke="#666666" points="430.25,-30.5 294.25,-30.5 294.25,0 430.25,0 430.25,-30.5"/>
<text xml:space="preserve" text-anchor="start" x="302.25" y="-17" font-family="Helvetica,sans-Serif" font-size="10.00">llvm::ValueMapIteratorImpl</text>
<text xml:space="preserve" text-anchor="middle" x="362.25" y="-5.75" font-family="Helvetica,sans-Serif" font-size="10.00">&lt; DenseMapT, KeyT, true &gt;</text>
</a>
</g>
</g>
<!-- Node1&#45;&gt;Node5 -->
<g id="edge4_Node000001_Node000005" class="edge">
<title>Node1&#45;&gt;Node5</title>
<g id="a_edge4_Node000001_Node000005"><a xlink:title=" ">
<path fill="none" stroke="orange" stroke-dasharray="5,2" d="M101.73,-76.18C119.53,-60.42 145.32,-40.66 172,-30.75 210.78,-16.34 257.02,-12.33 294.09,-11.99"/>
<polygon fill="orange" stroke="orange" points="99.81,-73.19 94.79,-82.52 104.53,-78.36 99.81,-73.19"/>
</a>
</g>
<text xml:space="preserve" text-anchor="start" x="177.25" y="-52" font-family="Helvetica,sans-Serif" font-size="10.00" fill="grey">&lt; DenseMapT, KeyT,</text>
<text xml:space="preserve" text-anchor="start" x="177.25" y="-36.75" font-family="Helvetica,sans-Serif" font-size="10.00" fill="grey">   true &gt;</text>
</g>
</g>
</svg>
