<?xml version="1.0" encoding="UTF-8" standalone="no"?>
<!DOCTYPE svg PUBLIC "-//W3C//DTD SVG 1.1//EN"
 "http://www.w3.org/Graphics/SVG/1.1/DTD/svg11.dtd">
<!-- Generated by graphviz version 14.1.3 (20260303.0454)
 -->
<!-- Title: llvm::lsp::LSPError Pages: 1 -->
<svg width="206pt" height="224pt"
 viewBox="0.00 0.00 206.00 224.00" xmlns="http://www.w3.org/2000/svg" xmlns:xlink="http://www.w3.org/1999/xlink">
<g id="graph0" class="graph" transform="scale(1 1) rotate(0) translate(4 219.5)">
<title>llvm::lsp::LSPError</title>
<!-- Node1 -->
<g id="Node000001" class="node">
<title>Node1</title>
<g id="a_Node000001"><a xlink:title="This class models an LSP error as an llvm::Error.">
<polygon fill="#999999" stroke="#666666" points="116.88,-19.25 18.37,-19.25 18.37,0 116.88,0 116.88,-19.25"/>
<text xml:space="preserve" text-anchor="middle" x="67.62" y="-5.75" font-family="Helvetica,sans-Serif" font-size="10.00">llvm::lsp::LSPError</text>
</a>
</g>
</g>
<!-- Node2 -->
<g id="Node000002" class="node">
<title>Node2</title>
<g id="a_Node000002"><a xlink:href="classllvm_1_1ErrorInfo.html" target="_top" xlink:title=" ">
<polygon fill="white" stroke="#666666" points="135.25,-75.5 0,-75.5 0,-56.25 135.25,-56.25 135.25,-75.5"/>
<text xml:space="preserve" text-anchor="middle" x="67.62" y="-62" font-family="Helvetica,sans-Serif" font-size="10.00">llvm::ErrorInfo&lt; LSPError &gt;</text>
</a>
</g>
</g>
<!-- Node2&#45;&gt;Node1 -->
<g id="edge1_Node000001_Node000002" class="edge">
<title>Node2&#45;&gt;Node1</title>
<g id="a_edge1_Node000001_Node000002"><a xlink:title=" ">
<path fill="none" stroke="#63b8ff" d="M67.62,-44.69C67.62,-35.98 67.62,-26.24 67.62,-19.42"/>
<polygon fill="#63b8ff" stroke="#63b8ff" points="64.13,-44.4 67.63,-54.4 71.13,-44.4 64.13,-44.4"/>
</a>
</g>
</g>
<!-- Node3 -->
<g id="Node000003" class="node">
<title>Node3</title>
<g id="a_Node000003"><a xlink:href="classllvm_1_1ErrorInfoBase.html" target="_top" xlink:title="Base class for error info classes.">
<polygon fill="white" stroke="#666666" points="113.62,-215.5 13.62,-215.5 13.62,-196.25 113.62,-196.25 113.62,-215.5"/>
<text xml:space="preserve" text-anchor="middle" x="63.62" y="-202" font-family="Helvetica,sans-Serif" font-size="10.00">llvm::ErrorInfoBase</text>
</a>
</g>
</g>
<!-- Node3&#45;&gt;Node2 -->
<g id="edge2_Node000002_Node000003" class="edge">
<title>Node3&#45;&gt;Node2</title>
<g id="a_edge2_Node000002_Node000003"><a xlink:title=" ">
<path fill="none" stroke="#63b8ff" d="M64.22,-184.49C65.1,-153.94 66.74,-97.56 67.37,-75.78"/>
<polygon fill="#63b8ff" stroke="#63b8ff" points="60.72,-184.21 63.93,-194.31 67.72,-184.41 60.72,-184.21"/>
</a>
</g>
</g>
<!-- Node4 -->
<g id="Node000004" class="node">
<title>Node4</title>
<g id="a_Node000004"><a xlink:href="classllvm_1_1ErrorInfo.html" target="_top" xlink:title="Base class for user error types.">
<polygon fill="white" stroke="#666666" points="197.62,-159.25 79.62,-159.25 79.62,-128.75 197.62,-128.75 197.62,-159.25"/>
<text xml:space="preserve" text-anchor="start" x="87.62" y="-145.75" font-family="Helvetica,sans-Serif" font-size="10.00">llvm::ErrorInfo&lt; ThisErr</text>
<text xml:space="preserve" text-anchor="middle" x="138.62" y="-134.5" font-family="Helvetica,sans-Serif" font-size="10.00">T, ParentErrT &gt;</text>
</a>
</g>
</g>
<!-- Node3&#45;&gt;Node4 -->
<g id="edge4_Node000004_Node000003" class="edge">
<title>Node3&#45;&gt;Node4</title>
<g id="a_edge4_Node000004_Node000003"><a xlink:title=" ">
<path fill="none" stroke="#63b8ff" d="M83.82,-188.75C95.22,-179.65 109.34,-168.38 120.4,-159.55"/>
<polygon fill="#63b8ff" stroke="#63b8ff" points="81.83,-185.86 76.2,-194.84 86.2,-191.33 81.83,-185.86"/>
</a>
</g>
</g>
<!-- Node4&#45;&gt;Node2 -->
<g id="edge3_Node000002_Node000004" class="edge">
<title>Node4&#45;&gt;Node2</title>
<g id="a_edge3_Node000002_Node000004"><a xlink:title=" ">
<path fill="none" stroke="orange" stroke-dasharray="5,2" d="M117.24,-120.07C103.35,-105.17 86.01,-86.59 75.94,-75.79"/>
<polygon fill="orange" stroke="orange" points="114.52,-122.29 123.9,-127.22 119.64,-117.52 114.52,-122.29"/>
</a>
</g>
<text xml:space="preserve" text-anchor="start" x="110.38" y="-99.5" font-family="Helvetica,sans-Serif" font-size="10.00" fill="grey">&lt; LSPError &gt;</text>
</g>
</g>
</svg>
