<?xml version="1.0" encoding="UTF-8" standalone="no"?>
<!DOCTYPE svg PUBLIC "-//W3C//DTD SVG 1.1//EN"
 "http://www.w3.org/Graphics/SVG/1.1/DTD/svg11.dtd">
<!-- Generated by graphviz version 14.1.3 (20260303.0454)
 -->
<!-- Title: llvm::RTTIRoot Pages: 1 -->
<svg width="769pt" height="186pt"
 viewBox="0.00 0.00 769.00 186.00" xmlns="http://www.w3.org/2000/svg" xmlns:xlink="http://www.w3.org/1999/xlink">
<g id="graph0" class="graph" transform="scale(1 1) rotate(0) translate(4 181.5)">
<title>llvm::RTTIRoot</title>
<!-- Node1 -->
<g id="Node000001" class="node">
<title>Node1</title>
<g id="a_Node000001"><a xlink:title="Base class for the extensible RTTI hierarchy.">
<polygon fill="#999999" stroke="#666666" points="83.5,-97.88 0,-97.88 0,-78.62 83.5,-78.62 83.5,-97.88"/>
<text xml:space="preserve" text-anchor="middle" x="41.75" y="-84.38" font-family="Helvetica,sans-Serif" font-size="10.00">llvm::RTTIRoot</text>
</a>
</g>
</g>
<!-- Node2 -->
<g id="Node000002" class="node">
<title>Node2</title>
<g id="a_Node000002"><a xlink:href="classllvm_1_1RTTIExtends.html" target="_top" xlink:title=" ">
<polygon fill="white" stroke="#666666" points="254.75,-177.5 125.5,-177.5 125.5,-147 254.75,-147 254.75,-177.5"/>
<text xml:space="preserve" text-anchor="start" x="133.5" y="-164" font-family="Helvetica,sans-Serif" font-size="10.00">llvm::RTTIExtends&lt;</text>
<text xml:space="preserve" text-anchor="middle" x="190.12" y="-152.75" font-family="Helvetica,sans-Serif" font-size="10.00"> ObjectLayer, RTTIRoot &gt;</text>
</a>
</g>
</g>
<!-- Node1&#45;&gt;Node2 -->
<g id="edge1_Node000001_Node000002" class="edge">
<title>Node1&#45;&gt;Node2</title>
<g id="a_edge1_Node000001_Node000002"><a xlink:title=" ">
<path fill="none" stroke="#63b8ff" d="M65.72,-104.84C80.57,-115.07 100.59,-127.96 119.5,-137.25 126.3,-140.59 133.67,-143.72 140.97,-146.56"/>
<polygon fill="#63b8ff" stroke="#63b8ff" points="67.78,-102.01 57.58,-99.13 63.76,-107.74 67.78,-102.01"/>
</a>
</g>
</g>
<!-- Node5 -->
<g id="Node000005" class="node">
<title>Node5</title>
<g id="a_Node000005"><a xlink:href="classllvm_1_1RTTIExtends.html" target="_top" xlink:title=" ">
<polygon fill="white" stroke="#666666" points="242.38,-128.5 137.88,-128.5 137.88,-98 242.38,-98 242.38,-128.5"/>
<text xml:space="preserve" text-anchor="start" x="145.88" y="-115" font-family="Helvetica,sans-Serif" font-size="10.00">llvm::RTTIExtends&lt;</text>
<text xml:space="preserve" text-anchor="middle" x="190.12" y="-103.75" font-family="Helvetica,sans-Serif" font-size="10.00"> Task, RTTIRoot &gt;</text>
</a>
</g>
</g>
<!-- Node1&#45;&gt;Node5 -->
<g id="edge4_Node000001_Node000005" class="edge">
<title>Node1&#45;&gt;Node5</title>
<g id="a_edge4_Node000001_Node000005"><a xlink:title=" ">
<path fill="none" stroke="#63b8ff" d="M95.19,-97.21C108.98,-99.56 123.83,-102.1 137.57,-104.44"/>
<polygon fill="#63b8ff" stroke="#63b8ff" points="95.85,-93.77 85.41,-95.54 94.67,-100.67 95.85,-93.77"/>
</a>
</g>
</g>
<!-- Node7 -->
<g id="Node000007" class="node">
<title>Node7</title>
<g id="a_Node000007"><a xlink:href="classllvm_1_1RTTIExtends.html" target="_top" xlink:title=" ">
<polygon fill="white" stroke="#666666" points="253.62,-79.5 126.62,-79.5 126.62,-49 253.62,-49 253.62,-79.5"/>
<text xml:space="preserve" text-anchor="start" x="134.62" y="-66" font-family="Helvetica,sans-Serif" font-size="10.00">llvm::RTTIExtends&lt;</text>
<text xml:space="preserve" text-anchor="middle" x="190.12" y="-54.75" font-family="Helvetica,sans-Serif" font-size="10.00"> FileSystem, RTTIRoot &gt;</text>
</a>
</g>
</g>
<!-- Node1&#45;&gt;Node7 -->
<g id="edge6_Node000001_Node000007" class="edge">
<title>Node1&#45;&gt;Node7</title>
<g id="a_edge6_Node000001_Node000007"><a xlink:title=" ">
<path fill="none" stroke="#63b8ff" d="M95.08,-79.67C105.22,-78.01 115.95,-76.25 126.4,-74.54"/>
<polygon fill="#63b8ff" stroke="#63b8ff" points="94.71,-76.18 85.41,-81.26 95.84,-83.09 94.71,-76.18"/>
</a>
</g>
</g>
<!-- Node12 -->
<g id="Node000012" class="node">
<title>Node12</title>
<g id="a_Node000012"><a xlink:href="classllvm_1_1RTTIExtends.html" target="_top" xlink:title=" ">
<polygon fill="white" stroke="#666666" points="260.75,-30.5 119.5,-30.5 119.5,0 260.75,0 260.75,-30.5"/>
<text xml:space="preserve" text-anchor="start" x="127.5" y="-17" font-family="Helvetica,sans-Serif" font-size="10.00">llvm::RTTIExtends&lt;</text>
<text xml:space="preserve" text-anchor="middle" x="190.12" y="-5.75" font-family="Helvetica,sans-Serif" font-size="10.00"> OutputFileImpl, RTTIRoot &gt;</text>
</a>
</g>
</g>
<!-- Node1&#45;&gt;Node12 -->
<g id="edge11_Node000001_Node000012" class="edge">
<title>Node1&#45;&gt;Node12</title>
<g id="a_edge11_Node000001_Node000012"><a xlink:title=" ">
<path fill="none" stroke="#63b8ff" d="M66.04,-71.85C80.88,-61.87 100.77,-49.34 119.5,-40.25 126.43,-36.89 133.94,-33.72 141.37,-30.86"/>
<polygon fill="#63b8ff" stroke="#63b8ff" points="64.18,-68.88 57.9,-77.42 68.13,-74.66 64.18,-68.88"/>
</a>
</g>
</g>
<!-- Node3 -->
<g id="Node000003" class="node">
<title>Node3</title>
<g id="a_Node000003"><a xlink:href="classllvm_1_1orc_1_1ObjectLayer.html" target="_top" xlink:title="Interface for Layers that accept object files.">
<polygon fill="white" stroke="#666666" points="414.38,-171.88 302.38,-171.88 302.38,-152.62 414.38,-152.62 414.38,-171.88"/>
<text xml:space="preserve" text-anchor="middle" x="358.38" y="-158.38" font-family="Helvetica,sans-Serif" font-size="10.00">llvm::orc::ObjectLayer</text>
</a>
</g>
</g>
<!-- Node2&#45;&gt;Node3 -->
<g id="edge2_Node000002_Node000003" class="edge">
<title>Node2&#45;&gt;Node3</title>
<g id="a_edge2_Node000002_Node000003"><a xlink:title=" ">
<path fill="none" stroke="#63b8ff" d="M266.3,-162.25C278.28,-162.25 290.47,-162.25 301.88,-162.25"/>
<polygon fill="#63b8ff" stroke="#63b8ff" points="266.44,-158.75 256.44,-162.25 266.44,-165.75 266.44,-158.75"/>
</a>
</g>
</g>
<!-- Node4 -->
<g id="Node000004" class="node">
<title>Node4</title>
<g id="a_Node000004"><a xlink:href="classllvm_1_1orc_1_1LazyObjectLinkingLayer.html" target="_top" xlink:title="LazyObjectLinkingLayer is an adapter for ObjectLinkingLayer that builds lazy reexports for all functi...">
<polygon fill="white" stroke="#666666" points="598,-177.5 458.25,-177.5 458.25,-147 598,-147 598,-177.5"/>
<text xml:space="preserve" text-anchor="start" x="466.25" y="-164" font-family="Helvetica,sans-Serif" font-size="10.00">llvm::orc::LazyObjectLinking</text>
<text xml:space="preserve" text-anchor="middle" x="528.12" y="-152.75" font-family="Helvetica,sans-Serif" font-size="10.00">Layer</text>
</a>
</g>
</g>
<!-- Node3&#45;&gt;Node4 -->
<g id="edge3_Node000003_Node000004" class="edge">
<title>Node3&#45;&gt;Node4</title>
<g id="a_edge3_Node000003_Node000004"><a xlink:title=" ">
<path fill="none" stroke="#63b8ff" d="M426.01,-162.25C436.54,-162.25 447.44,-162.25 458.03,-162.25"/>
<polygon fill="#63b8ff" stroke="#63b8ff" points="426.28,-158.75 416.28,-162.25 426.28,-165.75 426.28,-158.75"/>
</a>
</g>
</g>
<!-- Node6 -->
<g id="Node000006" class="node">
<title>Node6</title>
<g id="a_Node000006"><a xlink:href="classllvm_1_1orc_1_1Task.html" target="_top" xlink:title="Represents an abstract task for ORC to run.">
<polygon fill="white" stroke="#666666" points="398.62,-122.88 318.12,-122.88 318.12,-103.62 398.62,-103.62 398.62,-122.88"/>
<text xml:space="preserve" text-anchor="middle" x="358.38" y="-109.38" font-family="Helvetica,sans-Serif" font-size="10.00">llvm::orc::Task</text>
</a>
</g>
</g>
<!-- Node5&#45;&gt;Node6 -->
<g id="edge5_Node000005_Node000006" class="edge">
<title>Node5&#45;&gt;Node6</title>
<g id="a_edge5_Node000005_Node000006"><a xlink:title=" ">
<path fill="none" stroke="#63b8ff" d="M254.14,-113.25C275.54,-113.25 298.83,-113.25 317.87,-113.25"/>
<polygon fill="#63b8ff" stroke="#63b8ff" points="254.33,-109.75 244.33,-113.25 254.33,-116.75 254.33,-109.75"/>
</a>
</g>
</g>
<!-- Node8 -->
<g id="Node000008" class="node">
<title>Node8</title>
<g id="a_Node000008"><a xlink:href="classllvm_1_1vfs_1_1FileSystem.html" target="_top" xlink:title="The virtual file system interface.">
<polygon fill="white" stroke="#666666" points="412.88,-73.88 303.88,-73.88 303.88,-54.62 412.88,-54.62 412.88,-73.88"/>
<text xml:space="preserve" text-anchor="middle" x="358.38" y="-60.38" font-family="Helvetica,sans-Serif" font-size="10.00">llvm::vfs::FileSystem</text>
</a>
</g>
</g>
<!-- Node7&#45;&gt;Node8 -->
<g id="edge7_Node000007_Node000008" class="edge">
<title>Node7&#45;&gt;Node8</title>
<g id="a_edge7_Node000007_Node000008"><a xlink:title=" ">
<path fill="none" stroke="#63b8ff" d="M265.18,-64.25C278.05,-64.25 291.21,-64.25 303.41,-64.25"/>
<polygon fill="#63b8ff" stroke="#63b8ff" points="265.49,-60.75 255.49,-64.25 265.49,-67.75 265.49,-60.75"/>
</a>
</g>
</g>
<!-- Node9 -->
<g id="Node000009" class="node">
<title>Node9</title>
<g id="a_Node000009"><a xlink:href="classllvm_1_1RTTIExtends.html" target="_top" xlink:title=" ">
<polygon fill="white" stroke="#666666" points="588.62,-129.12 467.62,-129.12 467.62,-87.38 588.62,-87.38 588.62,-129.12"/>
<text xml:space="preserve" text-anchor="start" x="475.62" y="-115.62" font-family="Helvetica,sans-Serif" font-size="10.00">llvm::RTTIExtends&lt;</text>
<text xml:space="preserve" text-anchor="start" x="475.62" y="-104.38" font-family="Helvetica,sans-Serif" font-size="10.00"> RedirectingFileSystem,</text>
<text xml:space="preserve" text-anchor="middle" x="528.12" y="-93.12" font-family="Helvetica,sans-Serif" font-size="10.00"> vfs::FileSystem &gt;</text>
</a>
</g>
</g>
<!-- Node8&#45;&gt;Node9 -->
<g id="edge8_Node000008_Node000009" class="edge">
<title>Node8&#45;&gt;Node9</title>
<g id="a_edge8_Node000008_Node000009"><a xlink:title=" ">
<path fill="none" stroke="#63b8ff" d="M408.91,-77.24C427.26,-82.06 448.27,-87.57 467.44,-92.6"/>
<polygon fill="#63b8ff" stroke="#63b8ff" points="409.89,-73.88 399.32,-74.73 408.11,-80.65 409.89,-73.88"/>
</a>
</g>
</g>
<!-- Node11 -->
<g id="Node000011" class="node">
<title>Node11</title>
<g id="a_Node000011"><a xlink:href="classllvm_1_1FileCollectorFileSystem.html" target="_top" xlink:title=" ">
<polygon fill="white" stroke="#666666" points="600.25,-68.88 456,-68.88 456,-49.62 600.25,-49.62 600.25,-68.88"/>
<text xml:space="preserve" text-anchor="middle" x="528.12" y="-55.38" font-family="Helvetica,sans-Serif" font-size="10.00">llvm::FileCollectorFileSystem</text>
</a>
</g>
</g>
<!-- Node8&#45;&gt;Node11 -->
<g id="edge10_Node000008_Node000011" class="edge">
<title>Node8&#45;&gt;Node11</title>
<g id="a_edge10_Node000008_Node000011"><a xlink:title=" ">
<path fill="none" stroke="#63b8ff" d="M424.32,-62.31C434.61,-62.01 445.3,-61.69 455.73,-61.38"/>
<polygon fill="#63b8ff" stroke="#63b8ff" points="424.32,-58.81 414.43,-62.61 424.53,-65.81 424.32,-58.81"/>
</a>
</g>
</g>
<!-- Node10 -->
<g id="Node000010" class="node">
<title>Node10</title>
<g id="a_Node000010"><a xlink:href="classllvm_1_1vfs_1_1RedirectingFileSystem.html" target="_top" xlink:title="A virtual file system parsed from a YAML file.">
<polygon fill="white" stroke="#666666" points="761,-123.5 636.25,-123.5 636.25,-93 761,-93 761,-123.5"/>
<text xml:space="preserve" text-anchor="start" x="644.25" y="-110" font-family="Helvetica,sans-Serif" font-size="10.00">llvm::vfs::RedirectingFile</text>
<text xml:space="preserve" text-anchor="middle" x="698.62" y="-98.75" font-family="Helvetica,sans-Serif" font-size="10.00">System</text>
</a>
</g>
</g>
<!-- Node9&#45;&gt;Node10 -->
<g id="edge9_Node000009_Node000010" class="edge">
<title>Node9&#45;&gt;Node10</title>
<g id="a_edge9_Node000009_Node000010"><a xlink:title=" ">
<path fill="none" stroke="#63b8ff" d="M600.24,-108.25C612.11,-108.25 624.34,-108.25 635.94,-108.25"/>
<polygon fill="#63b8ff" stroke="#63b8ff" points="600.52,-104.75 590.52,-108.25 600.52,-111.75 600.52,-104.75"/>
</a>
</g>
</g>
<!-- Node13 -->
<g id="Node000013" class="node">
<title>Node13</title>
<g id="a_Node000013"><a xlink:href="classllvm_1_1vfs_1_1OutputFileImpl.html" target="_top" xlink:title=" ">
<polygon fill="white" stroke="#666666" points="420,-24.88 296.75,-24.88 296.75,-5.63 420,-5.63 420,-24.88"/>
<text xml:space="preserve" text-anchor="middle" x="358.38" y="-11.38" font-family="Helvetica,sans-Serif" font-size="10.00">llvm::vfs::OutputFileImpl</text>
</a>
</g>
</g>
<!-- Node12&#45;&gt;Node13 -->
<g id="edge12_Node000012_Node000013" class="edge">
<title>Node12&#45;&gt;Node13</title>
<g id="a_edge12_Node000012_Node000013"><a xlink:title=" ">
<path fill="none" stroke="#63b8ff" d="M272.48,-15.25C280.53,-15.25 288.6,-15.25 296.4,-15.25"/>
<polygon fill="#63b8ff" stroke="#63b8ff" points="272.66,-11.75 262.66,-15.25 272.66,-18.75 272.66,-11.75"/>
</a>
</g>
</g>
<!-- Node14 -->
<g id="Node000014" class="node">
<title>Node14</title>
<g id="a_Node000014"><a xlink:href="classllvm_1_1vfs_1_1HashingOutputFile.html" target="_top" xlink:title="HashingOutputFile.">
<polygon fill="white" stroke="#666666" points="590.5,-30.5 465.75,-30.5 465.75,0 590.5,0 590.5,-30.5"/>
<text xml:space="preserve" text-anchor="start" x="473.75" y="-17" font-family="Helvetica,sans-Serif" font-size="10.00">llvm::vfs::HashingOutput</text>
<text xml:space="preserve" text-anchor="middle" x="528.12" y="-5.75" font-family="Helvetica,sans-Serif" font-size="10.00">File&lt; HasherT &gt;</text>
</a>
</g>
</g>
<!-- Node13&#45;&gt;Node14 -->
<g id="edge13_Node000013_Node000014" class="edge">
<title>Node13&#45;&gt;Node14</title>
<g id="a_edge13_Node000013_Node000014"><a xlink:title=" ">
<path fill="none" stroke="#63b8ff" d="M431.88,-15.25C443.01,-15.25 454.42,-15.25 465.29,-15.25"/>
<polygon fill="#63b8ff" stroke="#63b8ff" points="431.92,-11.75 421.92,-15.25 431.92,-18.75 431.92,-11.75"/>
</a>
</g>
</g>
</g>
</svg>
