<?xml version="1.0" encoding="UTF-8" standalone="no"?>
<!DOCTYPE svg PUBLIC "-//W3C//DTD SVG 1.1//EN"
 "http://www.w3.org/Graphics/SVG/1.1/DTD/svg11.dtd">
<!-- Generated by graphviz version 14.1.3 (20260303.0454)
 -->
<!-- Title: llvm::HexagonDAGToDAGISelLegacy Pages: 1 -->
<svg width="159pt" height="260pt"
 viewBox="0.00 0.00 159.00 260.00" xmlns="http://www.w3.org/2000/svg" xmlns:xlink="http://www.w3.org/1999/xlink">
<g id="graph0" class="graph" transform="scale(1 1) rotate(0) translate(4 255.5)">
<title>llvm::HexagonDAGToDAGISelLegacy</title>
<!-- Node1 -->
<g id="Node000001" class="node">
<title>Node1</title>
<g id="a_Node000001"><a xlink:title=" ">
<polygon fill="#999999" stroke="#666666" points="150.62,-30.5 0.38,-30.5 0.38,0 150.62,0 150.62,-30.5"/>
<text xml:space="preserve" text-anchor="start" x="8.38" y="-17" font-family="Helvetica,sans-Serif" font-size="10.00">llvm::HexagonDAGToDAGISel</text>
<text xml:space="preserve" text-anchor="middle" x="75.5" y="-5.75" font-family="Helvetica,sans-Serif" font-size="10.00">Legacy</text>
</a>
</g>
</g>
<!-- Node2 -->
<g id="Node000002" class="node">
<title>Node2</title>
<g id="a_Node000002"><a xlink:href="classllvm_1_1SelectionDAGISelLegacy.html" target="_top" xlink:title=" ">
<polygon fill="white" stroke="#666666" points="151,-85.75 0,-85.75 0,-66.5 151,-66.5 151,-85.75"/>
<text xml:space="preserve" text-anchor="middle" x="75.5" y="-72.25" font-family="Helvetica,sans-Serif" font-size="10.00">llvm::SelectionDAGISelLegacy</text>
</a>
</g>
</g>
<!-- Node2&#45;&gt;Node1 -->
<g id="edge1_Node000001_Node000002" class="edge">
<title>Node2&#45;&gt;Node1</title>
<g id="a_edge1_Node000001_Node000002"><a xlink:title=" ">
<path fill="none" stroke="#63b8ff" d="M75.5,-54.92C75.5,-46.99 75.5,-38.06 75.5,-30.78"/>
<polygon fill="#63b8ff" stroke="#63b8ff" points="72,-54.67 75.5,-64.67 79,-54.67 72,-54.67"/>
</a>
</g>
</g>
<!-- Node3 -->
<g id="Node000003" class="node">
<title>Node3</title>
<g id="a_Node000003"><a xlink:href="classllvm_1_1MachineFunctionPass.html" target="_top" xlink:title="MachineFunctionPass &#45; This class adapts the FunctionPass interface to allow convenient creation of pa...">
<polygon fill="white" stroke="#666666" points="143.88,-141 7.12,-141 7.12,-121.75 143.88,-121.75 143.88,-141"/>
<text xml:space="preserve" text-anchor="middle" x="75.5" y="-127.5" font-family="Helvetica,sans-Serif" font-size="10.00">llvm::MachineFunctionPass</text>
</a>
</g>
</g>
<!-- Node3&#45;&gt;Node2 -->
<g id="edge2_Node000002_Node000003" class="edge">
<title>Node3&#45;&gt;Node2</title>
<g id="a_edge2_Node000002_Node000003"><a xlink:title=" ">
<path fill="none" stroke="#63b8ff" d="M75.5,-110.13C75.5,-101.84 75.5,-92.67 75.5,-86.11"/>
<polygon fill="#63b8ff" stroke="#63b8ff" points="72,-110.07 75.5,-120.07 79,-110.07 72,-110.07"/>
</a>
</g>
</g>
<!-- Node4 -->
<g id="Node000004" class="node">
<title>Node4</title>
<g id="a_Node000004"><a xlink:href="classllvm_1_1FunctionPass.html" target="_top" xlink:title="FunctionPass class &#45; This class is used to implement most global optimizations.">
<polygon fill="white" stroke="#666666" points="125.5,-196.25 25.5,-196.25 25.5,-177 125.5,-177 125.5,-196.25"/>
<text xml:space="preserve" text-anchor="middle" x="75.5" y="-182.75" font-family="Helvetica,sans-Serif" font-size="10.00">llvm::FunctionPass</text>
</a>
</g>
</g>
<!-- Node4&#45;&gt;Node3 -->
<g id="edge3_Node000003_Node000004" class="edge">
<title>Node4&#45;&gt;Node3</title>
<g id="a_edge3_Node000003_Node000004"><a xlink:title=" ">
<path fill="none" stroke="#63b8ff" d="M75.5,-165.38C75.5,-157.09 75.5,-147.92 75.5,-141.36"/>
<polygon fill="#63b8ff" stroke="#63b8ff" points="72,-165.32 75.5,-175.32 79,-165.32 72,-165.32"/>
</a>
</g>
</g>
<!-- Node5 -->
<g id="Node000005" class="node">
<title>Node5</title>
<g id="a_Node000005"><a xlink:href="classllvm_1_1Pass.html" target="_top" xlink:title="Pass interface &#45; Implemented by all &#39;passes&#39;.">
<polygon fill="white" stroke="#666666" points="106.75,-251.5 44.25,-251.5 44.25,-232.25 106.75,-232.25 106.75,-251.5"/>
<text xml:space="preserve" text-anchor="middle" x="75.5" y="-238" font-family="Helvetica,sans-Serif" font-size="10.00">llvm::Pass</text>
</a>
</g>
</g>
<!-- Node5&#45;&gt;Node4 -->
<g id="edge4_Node000004_Node000005" class="edge">
<title>Node5&#45;&gt;Node4</title>
<g id="a_edge4_Node000004_Node000005"><a xlink:title=" ">
<path fill="none" stroke="#63b8ff" d="M75.5,-220.63C75.5,-212.34 75.5,-203.17 75.5,-196.61"/>
<polygon fill="#63b8ff" stroke="#63b8ff" points="72,-220.57 75.5,-230.57 79,-220.57 72,-220.57"/>
</a>
</g>
</g>
</g>
</svg>
