<?xml version="1.0" encoding="UTF-8" standalone="no"?>
<!DOCTYPE svg PUBLIC "-//W3C//DTD SVG 1.1//EN"
 "http://www.w3.org/Graphics/SVG/1.1/DTD/svg11.dtd">
<!-- Generated by graphviz version 14.1.3 (20260303.0454)
 -->
<!-- Title: llvm::DISubroutineType Pages: 1 -->
<svg width="126pt" height="304pt"
 viewBox="0.00 0.00 126.00 304.00" xmlns="http://www.w3.org/2000/svg" xmlns:xlink="http://www.w3.org/1999/xlink">
<g id="graph0" class="graph" transform="scale(1 1) rotate(0) translate(4 299.5)">
<title>llvm::DISubroutineType</title>
<!-- Node1 -->
<g id="Node000001" class="node">
<title>Node1</title>
<g id="a_Node000001"><a xlink:title="Type array for a subprogram.">
<polygon fill="#999999" stroke="#666666" points="118,-19.25 0,-19.25 0,0 118,0 118,-19.25"/>
<text xml:space="preserve" text-anchor="middle" x="59" y="-5.75" font-family="Helvetica,sans-Serif" font-size="10.00">llvm::DISubroutineType</text>
</a>
</g>
</g>
<!-- Node2 -->
<g id="Node000002" class="node">
<title>Node2</title>
<g id="a_Node000002"><a xlink:href="classllvm_1_1DIType.html" target="_top" xlink:title="Base class for types.">
<polygon fill="white" stroke="#666666" points="94.75,-74.5 23.25,-74.5 23.25,-55.25 94.75,-55.25 94.75,-74.5"/>
<text xml:space="preserve" text-anchor="middle" x="59" y="-61" font-family="Helvetica,sans-Serif" font-size="10.00">llvm::DIType</text>
</a>
</g>
</g>
<!-- Node2&#45;&gt;Node1 -->
<g id="edge1_Node000001_Node000002" class="edge">
<title>Node2&#45;&gt;Node1</title>
<g id="a_edge1_Node000001_Node000002"><a xlink:title=" ">
<path fill="none" stroke="#63b8ff" d="M59,-43.63C59,-35.34 59,-26.17 59,-19.61"/>
<polygon fill="#63b8ff" stroke="#63b8ff" points="55.5,-43.57 59,-53.57 62.5,-43.57 55.5,-43.57"/>
</a>
</g>
</g>
<!-- Node3 -->
<g id="Node000003" class="node">
<title>Node3</title>
<g id="a_Node000003"><a xlink:href="classllvm_1_1DIScope.html" target="_top" xlink:title="Base class for scope&#45;like contexts.">
<polygon fill="white" stroke="#666666" points="98.12,-129.75 19.88,-129.75 19.88,-110.5 98.12,-110.5 98.12,-129.75"/>
<text xml:space="preserve" text-anchor="middle" x="59" y="-116.25" font-family="Helvetica,sans-Serif" font-size="10.00">llvm::DIScope</text>
</a>
</g>
</g>
<!-- Node3&#45;&gt;Node2 -->
<g id="edge2_Node000002_Node000003" class="edge">
<title>Node3&#45;&gt;Node2</title>
<g id="a_edge2_Node000002_Node000003"><a xlink:title=" ">
<path fill="none" stroke="#63b8ff" d="M59,-98.88C59,-90.59 59,-81.42 59,-74.86"/>
<polygon fill="#63b8ff" stroke="#63b8ff" points="55.5,-98.82 59,-108.82 62.5,-98.82 55.5,-98.82"/>
</a>
</g>
</g>
<!-- Node4 -->
<g id="Node000004" class="node">
<title>Node4</title>
<g id="a_Node000004"><a xlink:href="classllvm_1_1DINode.html" target="_top" xlink:title="Tagged DWARF&#45;like metadata node.">
<polygon fill="white" stroke="#666666" points="95.88,-185 22.12,-185 22.12,-165.75 95.88,-165.75 95.88,-185"/>
<text xml:space="preserve" text-anchor="middle" x="59" y="-171.5" font-family="Helvetica,sans-Serif" font-size="10.00">llvm::DINode</text>
</a>
</g>
</g>
<!-- Node4&#45;&gt;Node3 -->
<g id="edge3_Node000003_Node000004" class="edge">
<title>Node4&#45;&gt;Node3</title>
<g id="a_edge3_Node000003_Node000004"><a xlink:title=" ">
<path fill="none" stroke="#63b8ff" d="M59,-154.13C59,-145.84 59,-136.67 59,-130.11"/>
<polygon fill="#63b8ff" stroke="#63b8ff" points="55.5,-154.07 59,-164.07 62.5,-154.07 55.5,-154.07"/>
</a>
</g>
</g>
<!-- Node5 -->
<g id="Node000005" class="node">
<title>Node5</title>
<g id="a_Node000005"><a xlink:href="classllvm_1_1MDNode.html" target="_top" xlink:title="Metadata node.">
<polygon fill="white" stroke="#666666" points="98.5,-240.25 19.5,-240.25 19.5,-221 98.5,-221 98.5,-240.25"/>
<text xml:space="preserve" text-anchor="middle" x="59" y="-226.75" font-family="Helvetica,sans-Serif" font-size="10.00">llvm::MDNode</text>
</a>
</g>
</g>
<!-- Node5&#45;&gt;Node4 -->
<g id="edge4_Node000004_Node000005" class="edge">
<title>Node5&#45;&gt;Node4</title>
<g id="a_edge4_Node000004_Node000005"><a xlink:title=" ">
<path fill="none" stroke="#63b8ff" d="M59,-209.38C59,-201.09 59,-191.92 59,-185.36"/>
<polygon fill="#63b8ff" stroke="#63b8ff" points="55.5,-209.32 59,-219.32 62.5,-209.32 55.5,-209.32"/>
</a>
</g>
</g>
<!-- Node6 -->
<g id="Node000006" class="node">
<title>Node6</title>
<g id="a_Node000006"><a xlink:href="classllvm_1_1Metadata.html" target="_top" xlink:title="Root of the metadata hierarchy.">
<polygon fill="white" stroke="#666666" points="99.25,-295.5 18.75,-295.5 18.75,-276.25 99.25,-276.25 99.25,-295.5"/>
<text xml:space="preserve" text-anchor="middle" x="59" y="-282" font-family="Helvetica,sans-Serif" font-size="10.00">llvm::Metadata</text>
</a>
</g>
</g>
<!-- Node6&#45;&gt;Node5 -->
<g id="edge5_Node000005_Node000006" class="edge">
<title>Node6&#45;&gt;Node5</title>
<g id="a_edge5_Node000005_Node000006"><a xlink:title=" ">
<path fill="none" stroke="#63b8ff" d="M59,-264.63C59,-256.34 59,-247.17 59,-240.61"/>
<polygon fill="#63b8ff" stroke="#63b8ff" points="55.5,-264.57 59,-274.57 62.5,-264.57 55.5,-264.57"/>
</a>
</g>
</g>
</g>
</svg>
