<?xml version="1.0" encoding="UTF-8" standalone="no"?>
<!DOCTYPE svg PUBLIC "-//W3C//DTD SVG 1.1//EN"
 "http://www.w3.org/Graphics/SVG/1.1/DTD/svg11.dtd">
<!-- Generated by graphviz version 14.1.3 (20260303.0454)
 -->
<!-- Title: llvm::codeview::TypeCollection Pages: 1 -->
<svg width="341pt" height="235pt"
 viewBox="0.00 0.00 341.00 235.00" xmlns="http://www.w3.org/2000/svg" xmlns:xlink="http://www.w3.org/1999/xlink">
<g id="graph0" class="graph" transform="scale(1 1) rotate(0) translate(4 230.5)">
<title>llvm::codeview::TypeCollection</title>
<!-- Node1 -->
<g id="Node000001" class="node">
<title>Node1</title>
<g id="a_Node000001"><a xlink:title=" ">
<polygon fill="#999999" stroke="#666666" points="151.75,-122.88 0,-122.88 0,-103.62 151.75,-103.62 151.75,-122.88"/>
<text xml:space="preserve" text-anchor="middle" x="75.88" y="-109.38" font-family="Helvetica,sans-Serif" font-size="10.00">llvm::codeview::TypeCollection</text>
</a>
</g>
</g>
<!-- Node2 -->
<g id="Node000002" class="node">
<title>Node2</title>
<g id="a_Node000002"><a xlink:href="classllvm_1_1codeview_1_1AppendingTypeTableBuilder.html" target="_top" xlink:title=" ">
<polygon fill="white" stroke="#666666" points="326.75,-226.5 193.75,-226.5 193.75,-196 326.75,-196 326.75,-226.5"/>
<text xml:space="preserve" text-anchor="start" x="201.75" y="-213" font-family="Helvetica,sans-Serif" font-size="10.00">llvm::codeview::Appending</text>
<text xml:space="preserve" text-anchor="middle" x="260.25" y="-201.75" font-family="Helvetica,sans-Serif" font-size="10.00">TypeTableBuilder</text>
</a>
</g>
</g>
<!-- Node1&#45;&gt;Node2 -->
<g id="edge1_Node000001_Node000002" class="edge">
<title>Node1&#45;&gt;Node2</title>
<g id="a_edge1_Node000001_Node000002"><a xlink:title=" ">
<path fill="none" stroke="#63b8ff" d="M98.9,-130.11C120.6,-146.14 155.15,-170.12 187.75,-186.25 194.59,-189.63 202,-192.76 209.37,-195.59"/>
<polygon fill="#63b8ff" stroke="#63b8ff" points="101.2,-127.46 91.1,-124.27 97.01,-133.06 101.2,-127.46"/>
</a>
</g>
</g>
<!-- Node3 -->
<g id="Node000003" class="node">
<title>Node3</title>
<g id="a_Node000003"><a xlink:href="classllvm_1_1codeview_1_1GlobalTypeTableBuilder.html" target="_top" xlink:title=" ">
<polygon fill="white" stroke="#666666" points="328.25,-177.5 192.25,-177.5 192.25,-147 328.25,-147 328.25,-177.5"/>
<text xml:space="preserve" text-anchor="start" x="200.25" y="-164" font-family="Helvetica,sans-Serif" font-size="10.00">llvm::codeview::GlobalType</text>
<text xml:space="preserve" text-anchor="middle" x="260.25" y="-152.75" font-family="Helvetica,sans-Serif" font-size="10.00">TableBuilder</text>
</a>
</g>
</g>
<!-- Node1&#45;&gt;Node3 -->
<g id="edge2_Node000001_Node000003" class="edge">
<title>Node1&#45;&gt;Node3</title>
<g id="a_edge2_Node000001_Node000003"><a xlink:title=" ">
<path fill="none" stroke="#63b8ff" d="M125.19,-126.23C148.38,-132.46 176.37,-139.98 200.77,-146.54"/>
<polygon fill="#63b8ff" stroke="#63b8ff" points="126.25,-122.89 115.68,-123.68 124.43,-129.65 126.25,-122.89"/>
</a>
</g>
</g>
<!-- Node4 -->
<g id="Node000004" class="node">
<title>Node4</title>
<g id="a_Node000004"><a xlink:href="classllvm_1_1codeview_1_1LazyRandomTypeCollection.html" target="_top" xlink:title="Provides amortized O(1) random access to a CodeView type stream.">
<polygon fill="white" stroke="#666666" points="332.75,-128.5 187.75,-128.5 187.75,-98 332.75,-98 332.75,-128.5"/>
<text xml:space="preserve" text-anchor="start" x="195.75" y="-115" font-family="Helvetica,sans-Serif" font-size="10.00">llvm::codeview::LazyRandom</text>
<text xml:space="preserve" text-anchor="middle" x="260.25" y="-103.75" font-family="Helvetica,sans-Serif" font-size="10.00">TypeCollection</text>
</a>
</g>
</g>
<!-- Node1&#45;&gt;Node4 -->
<g id="edge3_Node000001_Node000004" class="edge">
<title>Node1&#45;&gt;Node4</title>
<g id="a_edge3_Node000001_Node000004"><a xlink:title=" ">
<path fill="none" stroke="#63b8ff" d="M163.41,-113.25C171.45,-113.25 179.53,-113.25 187.42,-113.25"/>
<polygon fill="#63b8ff" stroke="#63b8ff" points="163.62,-109.75 153.62,-113.25 163.62,-116.75 163.62,-109.75"/>
</a>
</g>
</g>
<!-- Node5 -->
<g id="Node000005" class="node">
<title>Node5</title>
<g id="a_Node000005"><a xlink:href="classllvm_1_1codeview_1_1MergingTypeTableBuilder.html" target="_top" xlink:title=" ">
<polygon fill="white" stroke="#666666" points="331.62,-79.5 188.88,-79.5 188.88,-49 331.62,-49 331.62,-79.5"/>
<text xml:space="preserve" text-anchor="start" x="196.88" y="-66" font-family="Helvetica,sans-Serif" font-size="10.00">llvm::codeview::MergingType</text>
<text xml:space="preserve" text-anchor="middle" x="260.25" y="-54.75" font-family="Helvetica,sans-Serif" font-size="10.00">TableBuilder</text>
</a>
</g>
</g>
<!-- Node1&#45;&gt;Node5 -->
<g id="edge4_Node000001_Node000005" class="edge">
<title>Node1&#45;&gt;Node5</title>
<g id="a_edge4_Node000001_Node000005"><a xlink:title=" ">
<path fill="none" stroke="#63b8ff" d="M125.19,-100.27C148.38,-94.04 176.37,-86.52 200.77,-79.96"/>
<polygon fill="#63b8ff" stroke="#63b8ff" points="124.43,-96.85 115.68,-102.82 126.25,-103.61 124.43,-96.85"/>
</a>
</g>
</g>
<!-- Node6 -->
<g id="Node000006" class="node">
<title>Node6</title>
<g id="a_Node000006"><a xlink:href="classllvm_1_1codeview_1_1TypeTableCollection.html" target="_top" xlink:title=" ">
<polygon fill="white" stroke="#666666" points="326,-30.5 194.5,-30.5 194.5,0 326,0 326,-30.5"/>
<text xml:space="preserve" text-anchor="start" x="202.5" y="-17" font-family="Helvetica,sans-Serif" font-size="10.00">llvm::codeview::TypeTable</text>
<text xml:space="preserve" text-anchor="middle" x="260.25" y="-5.75" font-family="Helvetica,sans-Serif" font-size="10.00">Collection</text>
</a>
</g>
</g>
<!-- Node1&#45;&gt;Node6 -->
<g id="edge5_Node000001_Node000006" class="edge">
<title>Node1&#45;&gt;Node6</title>
<g id="a_edge5_Node000001_Node000006"><a xlink:title=" ">
<path fill="none" stroke="#63b8ff" d="M98.9,-96.39C120.6,-80.36 155.15,-56.38 187.75,-40.25 194.59,-36.87 202,-33.74 209.37,-30.91"/>
<polygon fill="#63b8ff" stroke="#63b8ff" points="97.01,-93.44 91.1,-102.23 101.2,-99.04 97.01,-93.44"/>
</a>
</g>
</g>
</g>
</svg>
