<?xml version="1.0" encoding="UTF-8" standalone="no"?>
<!DOCTYPE svg PUBLIC "-//W3C//DTD SVG 1.1//EN"
 "http://www.w3.org/Graphics/SVG/1.1/DTD/svg11.dtd">
<!-- Generated by graphviz version 14.1.3 (20260303.0454)
 -->
<!-- Title: llvm::objcopy::elf::BinarySectionWriter Pages: 1 -->
<svg width="687pt" height="137pt"
 viewBox="0.00 0.00 687.00 137.00" xmlns="http://www.w3.org/2000/svg" xmlns:xlink="http://www.w3.org/1999/xlink">
<g id="graph0" class="graph" transform="scale(1 1) rotate(0) translate(4 132.5)">
<title>llvm::objcopy::elf::BinarySectionWriter</title>
<!-- Node1 -->
<g id="Node000001" class="node">
<title>Node1</title>
<g id="a_Node000001"><a xlink:title=" ">
<polygon fill="#999999" stroke="#666666" points="360.75,-103.5 252.5,-103.5 252.5,-73 360.75,-73 360.75,-103.5"/>
<text xml:space="preserve" text-anchor="start" x="260.5" y="-90" font-family="Helvetica,sans-Serif" font-size="10.00">llvm::objcopy::elf</text>
<text xml:space="preserve" text-anchor="middle" x="306.62" y="-78.75" font-family="Helvetica,sans-Serif" font-size="10.00">::BinarySectionWriter</text>
</a>
</g>
</g>
<!-- Node4 -->
<g id="Node000004" class="node">
<title>Node4</title>
<g id="a_Node000004"><a xlink:href="classllvm_1_1objcopy_1_1elf_1_1IHexSectionWriterBase.html" target="_top" xlink:title=" ">
<polygon fill="white" stroke="#666666" points="524.5,-128.5 400.5,-128.5 400.5,-98 524.5,-98 524.5,-128.5"/>
<text xml:space="preserve" text-anchor="start" x="408.5" y="-115" font-family="Helvetica,sans-Serif" font-size="10.00">llvm::objcopy::elf</text>
<text xml:space="preserve" text-anchor="middle" x="462.5" y="-103.75" font-family="Helvetica,sans-Serif" font-size="10.00">::IHexSectionWriterBase</text>
</a>
</g>
</g>
<!-- Node1&#45;&gt;Node4 -->
<g id="edge3_Node000001_Node000004" class="edge">
<title>Node1&#45;&gt;Node4</title>
<g id="a_edge3_Node000001_Node000004"><a xlink:title=" ">
<path fill="none" stroke="#63b8ff" d="M372.12,-98.73C381.36,-100.23 390.85,-101.77 400.03,-103.26"/>
<polygon fill="#63b8ff" stroke="#63b8ff" points="372.94,-95.32 362.51,-97.17 371.81,-102.22 372.94,-95.32"/>
</a>
</g>
</g>
<!-- Node6 -->
<g id="Node000006" class="node">
<title>Node6</title>
<g id="a_Node000006"><a xlink:href="classllvm_1_1objcopy_1_1elf_1_1SRECSectionWriterBase.html" target="_top" xlink:title=" ">
<polygon fill="white" stroke="#666666" points="528.25,-79.5 396.75,-79.5 396.75,-49 528.25,-49 528.25,-79.5"/>
<text xml:space="preserve" text-anchor="start" x="404.75" y="-66" font-family="Helvetica,sans-Serif" font-size="10.00">llvm::objcopy::elf</text>
<text xml:space="preserve" text-anchor="middle" x="462.5" y="-54.75" font-family="Helvetica,sans-Serif" font-size="10.00">::SRECSectionWriterBase</text>
</a>
</g>
</g>
<!-- Node1&#45;&gt;Node6 -->
<g id="edge5_Node000001_Node000006" class="edge">
<title>Node1&#45;&gt;Node6</title>
<g id="a_edge5_Node000001_Node000006"><a xlink:title=" ">
<path fill="none" stroke="#63b8ff" d="M372.13,-78.19C380.12,-76.94 388.28,-75.67 396.27,-74.42"/>
<polygon fill="#63b8ff" stroke="#63b8ff" points="371.85,-74.69 362.51,-79.69 372.93,-81.61 371.85,-74.69"/>
</a>
</g>
</g>
<!-- Node2 -->
<g id="Node000002" class="node">
<title>Node2</title>
<g id="a_Node000002"><a xlink:href="classllvm_1_1objcopy_1_1elf_1_1SectionWriter.html" target="_top" xlink:title=" ">
<polygon fill="white" stroke="#666666" points="216.5,-103.5 126.25,-103.5 126.25,-73 216.5,-73 216.5,-103.5"/>
<text xml:space="preserve" text-anchor="start" x="134.25" y="-90" font-family="Helvetica,sans-Serif" font-size="10.00">llvm::objcopy::elf</text>
<text xml:space="preserve" text-anchor="middle" x="171.38" y="-78.75" font-family="Helvetica,sans-Serif" font-size="10.00">::SectionWriter</text>
</a>
</g>
</g>
<!-- Node2&#45;&gt;Node1 -->
<g id="edge1_Node000001_Node000002" class="edge">
<title>Node2&#45;&gt;Node1</title>
<g id="a_edge1_Node000001_Node000002"><a xlink:title=" ">
<path fill="none" stroke="#63b8ff" d="M228.18,-88.25C236.13,-88.25 244.29,-88.25 252.19,-88.25"/>
<polygon fill="#63b8ff" stroke="#63b8ff" points="228.26,-84.75 218.26,-88.25 228.26,-91.75 228.26,-84.75"/>
</a>
</g>
</g>
<!-- Node3 -->
<g id="Node000003" class="node">
<title>Node3</title>
<g id="a_Node000003"><a xlink:href="classllvm_1_1objcopy_1_1elf_1_1SectionVisitor.html" target="_top" xlink:title=" ">
<polygon fill="white" stroke="#666666" points="90.25,-103.5 0,-103.5 0,-73 90.25,-73 90.25,-103.5"/>
<text xml:space="preserve" text-anchor="start" x="8" y="-90" font-family="Helvetica,sans-Serif" font-size="10.00">llvm::objcopy::elf</text>
<text xml:space="preserve" text-anchor="middle" x="45.12" y="-78.75" font-family="Helvetica,sans-Serif" font-size="10.00">::SectionVisitor</text>
</a>
</g>
</g>
<!-- Node3&#45;&gt;Node2 -->
<g id="edge2_Node000002_Node000003" class="edge">
<title>Node3&#45;&gt;Node2</title>
<g id="a_edge2_Node000002_Node000003"><a xlink:title=" ">
<path fill="none" stroke="#63b8ff" d="M102.09,-88.25C110.02,-88.25 118.09,-88.25 125.76,-88.25"/>
<polygon fill="#63b8ff" stroke="#63b8ff" points="102.14,-84.75 92.14,-88.25 102.14,-91.75 102.14,-84.75"/>
</a>
</g>
</g>
<!-- Node5 -->
<g id="Node000005" class="node">
<title>Node5</title>
<g id="a_Node000005"><a xlink:href="classllvm_1_1objcopy_1_1elf_1_1IHexSectionWriter.html" target="_top" xlink:title=" ">
<polygon fill="white" stroke="#666666" points="672.12,-128.5 570.62,-128.5 570.62,-98 672.12,-98 672.12,-128.5"/>
<text xml:space="preserve" text-anchor="start" x="578.62" y="-115" font-family="Helvetica,sans-Serif" font-size="10.00">llvm::objcopy::elf</text>
<text xml:space="preserve" text-anchor="middle" x="621.38" y="-103.75" font-family="Helvetica,sans-Serif" font-size="10.00">::IHexSectionWriter</text>
</a>
</g>
</g>
<!-- Node4&#45;&gt;Node5 -->
<g id="edge4_Node000004_Node000005" class="edge">
<title>Node4&#45;&gt;Node5</title>
<g id="a_edge4_Node000004_Node000005"><a xlink:title=" ">
<path fill="none" stroke="#63b8ff" d="M536.09,-113.25C547.67,-113.25 559.43,-113.25 570.33,-113.25"/>
<polygon fill="#63b8ff" stroke="#63b8ff" points="536.11,-109.75 526.11,-113.25 536.11,-116.75 536.11,-109.75"/>
</a>
</g>
</g>
<!-- Node7 -->
<g id="Node000007" class="node">
<title>Node7</title>
<g id="a_Node000007"><a xlink:href="classllvm_1_1objcopy_1_1elf_1_1SRECSectionWriter.html" target="_top" xlink:title=" ">
<polygon fill="white" stroke="#666666" points="675.88,-79.5 566.88,-79.5 566.88,-49 675.88,-49 675.88,-79.5"/>
<text xml:space="preserve" text-anchor="start" x="574.88" y="-66" font-family="Helvetica,sans-Serif" font-size="10.00">llvm::objcopy::elf</text>
<text xml:space="preserve" text-anchor="middle" x="621.38" y="-54.75" font-family="Helvetica,sans-Serif" font-size="10.00">::SRECSectionWriter</text>
</a>
</g>
</g>
<!-- Node6&#45;&gt;Node7 -->
<g id="edge6_Node000006_Node000007" class="edge">
<title>Node6&#45;&gt;Node7</title>
<g id="a_edge6_Node000006_Node000007"><a xlink:title=" ">
<path fill="none" stroke="#63b8ff" d="M540,-64.25C548.99,-64.25 558.02,-64.25 566.61,-64.25"/>
<polygon fill="#63b8ff" stroke="#63b8ff" points="540.18,-60.75 530.18,-64.25 540.18,-67.75 540.18,-60.75"/>
</a>
</g>
</g>
<!-- Node8 -->
<g id="Node000008" class="node">
<title>Node8</title>
<g id="a_Node000008"><a xlink:href="classllvm_1_1objcopy_1_1elf_1_1SRECSizeCalculator.html" target="_top" xlink:title=" ">
<polygon fill="white" stroke="#666666" points="678.5,-30.5 564.25,-30.5 564.25,0 678.5,0 678.5,-30.5"/>
<text xml:space="preserve" text-anchor="start" x="572.25" y="-17" font-family="Helvetica,sans-Serif" font-size="10.00">llvm::objcopy::elf</text>
<text xml:space="preserve" text-anchor="middle" x="621.38" y="-5.75" font-family="Helvetica,sans-Serif" font-size="10.00">::SRECSizeCalculator</text>
</a>
</g>
</g>
<!-- Node6&#45;&gt;Node8 -->
<g id="edge7_Node000006_Node000008" class="edge">
<title>Node6&#45;&gt;Node8</title>
<g id="a_edge7_Node000006_Node000008"><a xlink:title=" ">
<path fill="none" stroke="#63b8ff" d="M524.36,-45.24C539.45,-40.53 555.45,-35.53 569.98,-30.99"/>
<polygon fill="#63b8ff" stroke="#63b8ff" points="523.51,-41.84 515.01,-48.16 525.6,-48.52 523.51,-41.84"/>
</a>
</g>
</g>
</g>
</svg>
