<?xml version="1.0" encoding="UTF-8" standalone="no"?>
<!DOCTYPE svg PUBLIC "-//W3C//DTD SVG 1.1//EN"
 "http://www.w3.org/Graphics/SVG/1.1/DTD/svg11.dtd">
<!-- Generated by graphviz version 14.1.3 (20260303.0454)
 -->
<!-- Title: llvm::sandboxir::ICmpInst Pages: 1 -->
<svg width="299pt" height="404pt"
 viewBox="0.00 0.00 299.00 404.00" xmlns="http://www.w3.org/2000/svg" xmlns:xlink="http://www.w3.org/1999/xlink">
<g id="graph0" class="graph" transform="scale(1 1) rotate(0) translate(4 399.5)">
<title>llvm::sandboxir::ICmpInst</title>
<!-- Node1 -->
<g id="Node000001" class="node">
<title>Node1</title>
<g id="a_Node000001"><a xlink:title=" ">
<polygon fill="#999999" stroke="#666666" points="157,-19.25 28.5,-19.25 28.5,0 157,0 157,-19.25"/>
<text xml:space="preserve" text-anchor="middle" x="92.75" y="-5.75" font-family="Helvetica,sans-Serif" font-size="10.00">llvm::sandboxir::ICmpInst</text>
</a>
</g>
</g>
<!-- Node2 -->
<g id="Node000002" class="node">
<title>Node2</title>
<g id="a_Node000002"><a xlink:href="classllvm_1_1sandboxir_1_1CmpInst.html" target="_top" xlink:title=" ">
<polygon fill="white" stroke="#666666" points="155.5,-75.5 30,-75.5 30,-56.25 155.5,-56.25 155.5,-75.5"/>
<text xml:space="preserve" text-anchor="middle" x="92.75" y="-62" font-family="Helvetica,sans-Serif" font-size="10.00">llvm::sandboxir::CmpInst</text>
</a>
</g>
</g>
<!-- Node2&#45;&gt;Node1 -->
<g id="edge1_Node000001_Node000002" class="edge">
<title>Node2&#45;&gt;Node1</title>
<g id="a_edge1_Node000001_Node000002"><a xlink:title=" ">
<path fill="none" stroke="#63b8ff" d="M92.75,-44.69C92.75,-35.98 92.75,-26.24 92.75,-19.42"/>
<polygon fill="#63b8ff" stroke="#63b8ff" points="89.25,-44.4 92.75,-54.4 96.25,-44.4 89.25,-44.4"/>
</a>
</g>
</g>
<!-- Node3 -->
<g id="Node000003" class="node">
<title>Node3</title>
<g id="a_Node000003"><a xlink:href="classllvm_1_1sandboxir_1_1SingleLLVMInstructionImpl.html" target="_top" xlink:title=" ">
<polygon fill="white" stroke="#666666" points="185.5,-143 0,-143 0,-112.5 185.5,-112.5 185.5,-143"/>
<text xml:space="preserve" text-anchor="start" x="8" y="-129.5" font-family="Helvetica,sans-Serif" font-size="10.00">llvm::sandboxir::SingleLLVMInstruction</text>
<text xml:space="preserve" text-anchor="middle" x="92.75" y="-118.25" font-family="Helvetica,sans-Serif" font-size="10.00">Impl&lt; llvm::CmpInst &gt;</text>
</a>
</g>
</g>
<!-- Node3&#45;&gt;Node2 -->
<g id="edge2_Node000002_Node000003" class="edge">
<title>Node3&#45;&gt;Node2</title>
<g id="a_edge2_Node000002_Node000003"><a xlink:title=" ">
<path fill="none" stroke="#63b8ff" d="M92.75,-101.02C92.75,-92.04 92.75,-82.54 92.75,-75.85"/>
<polygon fill="#63b8ff" stroke="#63b8ff" points="89.25,-100.74 92.75,-110.74 96.25,-100.74 89.25,-100.74"/>
</a>
</g>
</g>
<!-- Node4 -->
<g id="Node000004" class="node">
<title>Node4</title>
<g id="a_Node000004"><a xlink:href="classllvm_1_1sandboxir_1_1Instruction.html" target="_top" xlink:title="A sandboxir::User with operands, opcode and linked with previous/next instructions in an instruction ...">
<polygon fill="white" stroke="#666666" points="155.62,-283 21.88,-283 21.88,-263.75 155.62,-263.75 155.62,-283"/>
<text xml:space="preserve" text-anchor="middle" x="88.75" y="-269.5" font-family="Helvetica,sans-Serif" font-size="10.00">llvm::sandboxir::Instruction</text>
</a>
</g>
</g>
<!-- Node4&#45;&gt;Node3 -->
<g id="edge3_Node000003_Node000004" class="edge">
<title>Node4&#45;&gt;Node3</title>
<g id="a_edge3_Node000003_Node000004"><a xlink:title=" ">
<path fill="none" stroke="#63b8ff" d="M89.32,-252.09C90.14,-222.62 91.64,-168.71 92.35,-143.05"/>
<polygon fill="#63b8ff" stroke="#63b8ff" points="85.82,-251.78 89.04,-261.88 92.82,-251.98 85.82,-251.78"/>
</a>
</g>
</g>
<!-- Node7 -->
<g id="Node000007" class="node">
<title>Node7</title>
<g id="a_Node000007"><a xlink:href="classllvm_1_1sandboxir_1_1SingleLLVMInstructionImpl.html" target="_top" xlink:title="Instructions that contain a single LLVM Instruction can inherit from this.">
<polygon fill="white" stroke="#666666" points="290.5,-226.75 105,-226.75 105,-196.25 290.5,-196.25 290.5,-226.75"/>
<text xml:space="preserve" text-anchor="start" x="113" y="-213.25" font-family="Helvetica,sans-Serif" font-size="10.00">llvm::sandboxir::SingleLLVMInstruction</text>
<text xml:space="preserve" text-anchor="middle" x="197.75" y="-202" font-family="Helvetica,sans-Serif" font-size="10.00">Impl&lt; LLVMT &gt;</text>
</a>
</g>
</g>
<!-- Node4&#45;&gt;Node7 -->
<g id="edge7_Node000007_Node000004" class="edge">
<title>Node4&#45;&gt;Node7</title>
<g id="a_edge7_Node000007_Node000004"><a xlink:title=" ">
<path fill="none" stroke="#63b8ff" d="M115.16,-257.87C132.18,-248.52 154.23,-236.4 171.27,-227.05"/>
<polygon fill="#63b8ff" stroke="#63b8ff" points="113.71,-254.67 106.63,-262.55 117.08,-260.81 113.71,-254.67"/>
</a>
</g>
</g>
<!-- Node5 -->
<g id="Node000005" class="node">
<title>Node5</title>
<g id="a_Node000005"><a xlink:href="classllvm_1_1sandboxir_1_1User.html" target="_top" xlink:title="A sandboxir::User has operands.">
<polygon fill="white" stroke="#666666" points="143.25,-339.25 34.25,-339.25 34.25,-320 143.25,-320 143.25,-339.25"/>
<text xml:space="preserve" text-anchor="middle" x="88.75" y="-325.75" font-family="Helvetica,sans-Serif" font-size="10.00">llvm::sandboxir::User</text>
</a>
</g>
</g>
<!-- Node5&#45;&gt;Node4 -->
<g id="edge4_Node000004_Node000005" class="edge">
<title>Node5&#45;&gt;Node4</title>
<g id="a_edge4_Node000004_Node000005"><a xlink:title=" ">
<path fill="none" stroke="#63b8ff" d="M88.75,-308.44C88.75,-299.73 88.75,-289.99 88.75,-283.17"/>
<polygon fill="#63b8ff" stroke="#63b8ff" points="85.25,-308.15 88.75,-318.15 92.25,-308.15 85.25,-308.15"/>
</a>
</g>
</g>
<!-- Node6 -->
<g id="Node000006" class="node">
<title>Node6</title>
<g id="a_Node000006"><a xlink:href="classllvm_1_1sandboxir_1_1Value.html" target="_top" xlink:title="A SandboxIR Value has users. This is the base class.">
<polygon fill="white" stroke="#666666" points="144.75,-395.5 32.75,-395.5 32.75,-376.25 144.75,-376.25 144.75,-395.5"/>
<text xml:space="preserve" text-anchor="middle" x="88.75" y="-382" font-family="Helvetica,sans-Serif" font-size="10.00">llvm::sandboxir::Value</text>
</a>
</g>
</g>
<!-- Node6&#45;&gt;Node5 -->
<g id="edge5_Node000005_Node000006" class="edge">
<title>Node6&#45;&gt;Node5</title>
<g id="a_edge5_Node000005_Node000006"><a xlink:title=" ">
<path fill="none" stroke="#63b8ff" d="M88.75,-364.69C88.75,-355.98 88.75,-346.24 88.75,-339.42"/>
<polygon fill="#63b8ff" stroke="#63b8ff" points="85.25,-364.4 88.75,-374.4 92.25,-364.4 85.25,-364.4"/>
</a>
</g>
</g>
<!-- Node7&#45;&gt;Node3 -->
<g id="edge6_Node000003_Node000007" class="edge">
<title>Node7&#45;&gt;Node3</title>
<g id="a_edge6_Node000003_Node000007"><a xlink:title=" ">
<path fill="none" stroke="orange" stroke-dasharray="5,2" d="M170.11,-188.98C151.57,-174.55 127.66,-155.93 111.36,-143.24"/>
<polygon fill="orange" stroke="orange" points="167.74,-191.57 177.78,-194.95 172.04,-186.05 167.74,-191.57"/>
</a>
</g>
<text xml:space="preserve" text-anchor="start" x="157.65" y="-167" font-family="Helvetica,sans-Serif" font-size="10.00" fill="grey">&lt; llvm::CmpInst &gt;</text>
</g>
</g>
</svg>
