<?xml version="1.0" encoding="UTF-8" standalone="no"?>
<!DOCTYPE svg PUBLIC "-//W3C//DTD SVG 1.1//EN"
 "http://www.w3.org/Graphics/SVG/1.1/DTD/svg11.dtd">
<!-- Generated by graphviz version 14.1.3 (20260303.0454)
 -->
<!-- Title: llvm::orc::shared::SPSSequence&lt; SPSElementTagT &gt; Pages: 1 -->
<svg width="612pt" height="810pt"
 viewBox="0.00 0.00 612.00 810.00" xmlns="http://www.w3.org/2000/svg" xmlns:xlink="http://www.w3.org/1999/xlink">
<g id="graph0" class="graph" transform="scale(1 1) rotate(0) translate(4 806.3)">
<title>llvm::orc::shared::SPSSequence&lt; SPSElementTagT &gt;</title>
<!-- Node1 -->
<g id="Node000001" class="node">
<title>Node1</title>
<g id="a_Node000001"><a xlink:title="SPS tag type for sequences.">
<polygon fill="#999999" stroke="#666666" points="175.75,-412.17 0,-412.17 0,-381.67 175.75,-381.67 175.75,-412.17"/>
<text xml:space="preserve" text-anchor="start" x="8" y="-398.67" font-family="Helvetica,sans-Serif" font-size="10.00">llvm::orc::shared::</text>
<text xml:space="preserve" text-anchor="middle" x="87.88" y="-387.42" font-family="Helvetica,sans-Serif" font-size="10.00">SPSSequence&lt; SPSElementTagT &gt;</text>
</a>
</g>
</g>
<!-- Node2 -->
<g id="Node000002" class="node">
<title>Node2</title>
<g id="a_Node000002"><a xlink:href="classllvm_1_1orc_1_1shared_1_1SPSSequence.html" target="_top" xlink:title=" ">
<polygon fill="white" stroke="#666666" points="591.88,-776.42 418.38,-776.42 418.38,-723.42 591.88,-723.42 591.88,-776.42"/>
<text xml:space="preserve" text-anchor="start" x="426.38" y="-762.92" font-family="Helvetica,sans-Serif" font-size="10.00">llvm::orc::shared::</text>
<text xml:space="preserve" text-anchor="start" x="426.38" y="-751.67" font-family="Helvetica,sans-Serif" font-size="10.00">SPSSequence&lt; SPSTuple</text>
<text xml:space="preserve" text-anchor="start" x="426.38" y="-740.42" font-family="Helvetica,sans-Serif" font-size="10.00">&lt; SPSExecutorAddr, SPSSequence</text>
<text xml:space="preserve" text-anchor="middle" x="505.12" y="-729.17" font-family="Helvetica,sans-Serif" font-size="10.00">&lt; SPSExecutorAddr &gt; &gt; &gt;</text>
</a>
</g>
</g>
<!-- Node1&#45;&gt;Node2 -->
<g id="edge1_Node000001_Node000002" class="edge">
<title>Node1&#45;&gt;Node2</title>
<g id="a_edge1_Node000001_Node000002"><a xlink:title=" ">
<path fill="none" stroke="orange" stroke-dasharray="5,2" d="M88.37,-423.85C88.79,-487.57 99.62,-647.86 193.75,-722.92 256.23,-772.75 349.98,-774.05 418.09,-766.25"/>
<polygon fill="orange" stroke="orange" points="91.87,-423.97 88.4,-413.96 84.87,-423.95 91.87,-423.97"/>
</a>
</g>
<text xml:space="preserve" text-anchor="start" x="196.75" y="-791.05" font-family="Helvetica,sans-Serif" font-size="10.00" fill="grey">&lt; SPSTuple&lt; SPSExecutorAddr,</text>
<text xml:space="preserve" text-anchor="start" x="196.75" y="-775.8" font-family="Helvetica,sans-Serif" font-size="10.00" fill="grey">   SPSSequence&lt; SPSExecutorAddr &gt; &gt; &gt;</text>
</g>
<!-- Node3 -->
<g id="Node000003" class="node">
<title>Node3</title>
<g id="a_Node000003"><a xlink:href="classllvm_1_1orc_1_1shared_1_1SPSSequence.html" target="_top" xlink:title=" ">
<polygon fill="white" stroke="#666666" points="589.25,-705.8 421,-705.8 421,-664.05 589.25,-664.05 589.25,-705.8"/>
<text xml:space="preserve" text-anchor="start" x="429" y="-692.3" font-family="Helvetica,sans-Serif" font-size="10.00">llvm::orc::shared::</text>
<text xml:space="preserve" text-anchor="start" x="429" y="-681.05" font-family="Helvetica,sans-Serif" font-size="10.00">SPSSequence&lt; SPSExecutorAddr</text>
<text xml:space="preserve" text-anchor="middle" x="505.12" y="-669.8" font-family="Helvetica,sans-Serif" font-size="10.00">Range &gt;</text>
</a>
</g>
</g>
<!-- Node1&#45;&gt;Node3 -->
<g id="edge2_Node000001_Node000003" class="edge">
<title>Node1&#45;&gt;Node3</title>
<g id="a_edge2_Node000001_Node000003"><a xlink:title=" ">
<path fill="none" stroke="orange" stroke-dasharray="5,2" d="M90.91,-423.79C96.57,-477.81 117.56,-599.24 193.75,-655.92 258.45,-704.05 352.98,-705.98 420.69,-699.18"/>
<polygon fill="orange" stroke="orange" points="94.4,-423.59 89.99,-413.96 87.43,-424.24 94.4,-423.59"/>
</a>
</g>
<text xml:space="preserve" text-anchor="start" x="227.88" y="-708.06" font-family="Helvetica,sans-Serif" font-size="10.00" fill="grey">&lt; SPSExecutorAddrRange &gt;</text>
</g>
<!-- Node4 -->
<g id="Node000004" class="node">
<title>Node4</title>
<g id="a_Node000004"><a xlink:href="classllvm_1_1orc_1_1shared_1_1SPSSequence.html" target="_top" xlink:title=" ">
<polygon fill="white" stroke="#666666" points="563.38,-646.17 446.88,-646.17 446.88,-615.67 563.38,-615.67 563.38,-646.17"/>
<text xml:space="preserve" text-anchor="start" x="454.88" y="-632.67" font-family="Helvetica,sans-Serif" font-size="10.00">llvm::orc::shared::</text>
<text xml:space="preserve" text-anchor="middle" x="505.12" y="-621.42" font-family="Helvetica,sans-Serif" font-size="10.00">SPSSequence&lt; char &gt;</text>
</a>
</g>
</g>
<!-- Node1&#45;&gt;Node4 -->
<g id="edge3_Node000001_Node000004" class="edge">
<title>Node1&#45;&gt;Node4</title>
<g id="a_edge3_Node000001_Node000004"><a xlink:title=" ">
<path fill="none" stroke="orange" stroke-dasharray="5,2" d="M93.41,-423.92C102.83,-470.63 129.27,-565.65 193.75,-608.92 233.73,-635.75 368.51,-635.89 446.69,-633.49"/>
<polygon fill="orange" stroke="orange" points="96.85,-423.3 91.56,-414.12 89.97,-424.59 96.85,-423.3"/>
</a>
</g>
<text xml:space="preserve" text-anchor="start" x="272.5" y="-640.45" font-family="Helvetica,sans-Serif" font-size="10.00" fill="grey">&lt; char &gt;</text>
</g>
<!-- Node5 -->
<g id="Node000005" class="node">
<title>Node5</title>
<g id="a_Node000005"><a xlink:href="classllvm_1_1orc_1_1shared_1_1SPSSequence.html" target="_top" xlink:title=" ">
<polygon fill="white" stroke="#666666" points="576.88,-597.8 433.38,-597.8 433.38,-556.05 576.88,-556.05 576.88,-597.8"/>
<text xml:space="preserve" text-anchor="start" x="441.38" y="-584.3" font-family="Helvetica,sans-Serif" font-size="10.00">llvm::orc::shared::</text>
<text xml:space="preserve" text-anchor="start" x="441.38" y="-573.05" font-family="Helvetica,sans-Serif" font-size="10.00">SPSSequence&lt; SPSTuple</text>
<text xml:space="preserve" text-anchor="middle" x="505.12" y="-561.8" font-family="Helvetica,sans-Serif" font-size="10.00">&lt; SPSTagT1, SPSTagT2 &gt; &gt;</text>
</a>
</g>
</g>
<!-- Node1&#45;&gt;Node5 -->
<g id="edge4_Node000001_Node000005" class="edge">
<title>Node1&#45;&gt;Node5</title>
<g id="a_edge4_Node000001_Node000005"><a xlink:title=" ">
<path fill="none" stroke="orange" stroke-dasharray="5,2" d="M98.02,-422.99C112.24,-459.19 143.39,-523.55 193.75,-552.92 213.88,-564.67 347.81,-571.48 433.03,-574.68"/>
<polygon fill="orange" stroke="orange" points="101.33,-421.84 94.52,-413.72 94.77,-424.31 101.33,-421.84"/>
</a>
</g>
<text xml:space="preserve" text-anchor="start" x="234.62" y="-593.99" font-family="Helvetica,sans-Serif" font-size="10.00" fill="grey">&lt; SPSTuple&lt; SPSTagT1,</text>
<text xml:space="preserve" text-anchor="start" x="234.62" y="-578.74" font-family="Helvetica,sans-Serif" font-size="10.00" fill="grey">   SPSTagT2 &gt; &gt;</text>
</g>
<!-- Node6 -->
<g id="Node000006" class="node">
<title>Node6</title>
<g id="a_Node000006"><a xlink:href="classllvm_1_1orc_1_1shared_1_1SPSSequence.html" target="_top" xlink:title=" ">
<polygon fill="white" stroke="#666666" points="593.38,-537.8 416.88,-537.8 416.88,-496.05 593.38,-496.05 593.38,-537.8"/>
<text xml:space="preserve" text-anchor="start" x="424.88" y="-524.3" font-family="Helvetica,sans-Serif" font-size="10.00">llvm::orc::shared::</text>
<text xml:space="preserve" text-anchor="start" x="424.88" y="-513.05" font-family="Helvetica,sans-Serif" font-size="10.00">SPSSequence&lt; SPSRemoteSymbol</text>
<text xml:space="preserve" text-anchor="middle" x="505.12" y="-501.8" font-family="Helvetica,sans-Serif" font-size="10.00">LookupSetElement &gt;</text>
</a>
</g>
</g>
<!-- Node1&#45;&gt;Node6 -->
<g id="edge5_Node000001_Node000006" class="edge">
<title>Node1&#45;&gt;Node6</title>
<g id="a_edge5_Node000001_Node000006"><a xlink:title=" ">
<path fill="none" stroke="orange" stroke-dasharray="5,2" d="M110.7,-420.65C130.36,-440.37 161.12,-467.3 193.75,-480.92 264.84,-510.59 352.56,-518.42 416.59,-519.52"/>
<polygon fill="orange" stroke="orange" points="113.26,-418.27 103.79,-413.53 108.24,-423.14 113.26,-418.27"/>
</a>
</g>
<text xml:space="preserve" text-anchor="start" x="219.25" y="-539.54" font-family="Helvetica,sans-Serif" font-size="10.00" fill="grey">&lt; SPSRemoteSymbolLookupSet</text>
<text xml:space="preserve" text-anchor="start" x="219.25" y="-524.29" font-family="Helvetica,sans-Serif" font-size="10.00" fill="grey">  Element &gt;</text>
</g>
<!-- Node7 -->
<g id="Node000007" class="node">
<title>Node7</title>
<g id="a_Node000007"><a xlink:href="classllvm_1_1orc_1_1shared_1_1SPSSequence.html" target="_top" xlink:title=" ">
<polygon fill="white" stroke="#666666" points="571.62,-477.8 438.62,-477.8 438.62,-436.05 571.62,-436.05 571.62,-477.8"/>
<text xml:space="preserve" text-anchor="start" x="446.62" y="-464.3" font-family="Helvetica,sans-Serif" font-size="10.00">llvm::orc::shared::</text>
<text xml:space="preserve" text-anchor="start" x="446.62" y="-453.05" font-family="Helvetica,sans-Serif" font-size="10.00">SPSSequence&lt; SPSTuple</text>
<text xml:space="preserve" text-anchor="middle" x="505.12" y="-441.8" font-family="Helvetica,sans-Serif" font-size="10.00">&lt; uint32_t, uint32_t &gt; &gt;</text>
</a>
</g>
</g>
<!-- Node1&#45;&gt;Node7 -->
<g id="edge6_Node000001_Node000007" class="edge">
<title>Node1&#45;&gt;Node7</title>
<g id="a_edge6_Node000001_Node000007"><a xlink:title=" ">
<path fill="none" stroke="orange" stroke-dasharray="5,2" d="M175.31,-414.74C181.54,-415.87 187.74,-416.94 193.75,-417.92 277.77,-431.6 375.27,-443.15 438.23,-450.05"/>
<polygon fill="orange" stroke="orange" points="176.04,-411.32 165.57,-412.94 174.77,-418.2 176.04,-411.32"/>
</a>
</g>
<text xml:space="preserve" text-anchor="start" x="246.62" y="-465.32" font-family="Helvetica,sans-Serif" font-size="10.00" fill="grey">&lt; SPSTuple&lt; uint32</text>
<text xml:space="preserve" text-anchor="start" x="246.62" y="-450.07" font-family="Helvetica,sans-Serif" font-size="10.00" fill="grey">  _t, uint32_t &gt; &gt;</text>
</g>
<!-- Node8 -->
<g id="Node000008" class="node">
<title>Node8</title>
<g id="a_Node000008"><a xlink:href="classllvm_1_1orc_1_1shared_1_1SPSSequence.html" target="_top" xlink:title=" ">
<polygon fill="white" stroke="#666666" points="590,-417.8 420.25,-417.8 420.25,-376.05 590,-376.05 590,-417.8"/>
<text xml:space="preserve" text-anchor="start" x="428.25" y="-404.3" font-family="Helvetica,sans-Serif" font-size="10.00">llvm::orc::shared::</text>
<text xml:space="preserve" text-anchor="start" x="428.25" y="-393.05" font-family="Helvetica,sans-Serif" font-size="10.00">SPSSequence&lt; SPSVTuneMethod</text>
<text xml:space="preserve" text-anchor="middle" x="505.12" y="-381.8" font-family="Helvetica,sans-Serif" font-size="10.00">Info &gt;</text>
</a>
</g>
</g>
<!-- Node1&#45;&gt;Node8 -->
<g id="edge7_Node000001_Node000008" class="edge">
<title>Node1&#45;&gt;Node8</title>
<g id="a_edge7_Node000001_Node000008"><a xlink:title=" ">
<path fill="none" stroke="orange" stroke-dasharray="5,2" d="M187.32,-396.92C258.08,-396.92 352.47,-396.92 419.78,-396.92"/>
<polygon fill="orange" stroke="orange" points="187.69,-393.42 177.69,-396.92 187.69,-400.42 187.69,-393.42"/>
</a>
</g>
<text xml:space="preserve" text-anchor="start" x="233.12" y="-402.92" font-family="Helvetica,sans-Serif" font-size="10.00" fill="grey">&lt; SPSVTuneMethodInfo &gt;</text>
</g>
<!-- Node9 -->
<g id="Node000009" class="node">
<title>Node9</title>
<g id="a_Node000009"><a xlink:href="classllvm_1_1orc_1_1shared_1_1SPSSequence.html" target="_top" xlink:title=" ">
<polygon fill="white" stroke="#666666" points="576.88,-358.17 433.38,-358.17 433.38,-327.67 576.88,-327.67 576.88,-358.17"/>
<text xml:space="preserve" text-anchor="start" x="441.38" y="-344.67" font-family="Helvetica,sans-Serif" font-size="10.00">llvm::orc::shared::</text>
<text xml:space="preserve" text-anchor="middle" x="505.12" y="-333.42" font-family="Helvetica,sans-Serif" font-size="10.00">SPSSequence&lt; SPSString &gt;</text>
</a>
</g>
</g>
<!-- Node1&#45;&gt;Node9 -->
<g id="edge8_Node000001_Node000009" class="edge">
<title>Node1&#45;&gt;Node9</title>
<g id="a_edge8_Node000001_Node000009"><a xlink:title=" ">
<path fill="none" stroke="orange" stroke-dasharray="5,2" d="M172.85,-379.18C179.91,-377.91 186.94,-376.72 193.75,-375.67 275.42,-363.12 369.93,-353.9 433,-348.5"/>
<polygon fill="orange" stroke="orange" points="172.46,-375.69 163.27,-380.95 173.74,-382.57 172.46,-375.69"/>
</a>
</g>
<text xml:space="preserve" text-anchor="start" x="259" y="-381.67" font-family="Helvetica,sans-Serif" font-size="10.00" fill="grey">&lt; SPSString &gt;</text>
</g>
<!-- Node10 -->
<g id="Node000010" class="node">
<title>Node10</title>
<g id="a_Node000010"><a xlink:href="classllvm_1_1orc_1_1shared_1_1SPSSequence.html" target="_top" xlink:title=" ">
<polygon fill="white" stroke="#666666" points="571.62,-309.8 438.62,-309.8 438.62,-268.05 571.62,-268.05 571.62,-309.8"/>
<text xml:space="preserve" text-anchor="start" x="446.62" y="-296.3" font-family="Helvetica,sans-Serif" font-size="10.00">llvm::orc::shared::</text>
<text xml:space="preserve" text-anchor="start" x="446.62" y="-285.05" font-family="Helvetica,sans-Serif" font-size="10.00">SPSSequence&lt; SPSTuple</text>
<text xml:space="preserve" text-anchor="middle" x="505.12" y="-273.8" font-family="Helvetica,sans-Serif" font-size="10.00">&lt; uint64_t, uint64_t &gt; &gt;</text>
</a>
</g>
</g>
<!-- Node1&#45;&gt;Node10 -->
<g id="edge9_Node000001_Node000010" class="edge">
<title>Node1&#45;&gt;Node10</title>
<g id="a_edge9_Node000001_Node000010"><a xlink:title=" ">
<path fill="none" stroke="orange" stroke-dasharray="5,2" d="M111.49,-373.31C131.25,-354.35 161.71,-328.91 193.75,-316.42 273.77,-285.25 373.9,-282.16 438.43,-284.32"/>
<polygon fill="orange" stroke="orange" points="109.2,-370.66 104.54,-380.18 114.11,-375.64 109.2,-370.66"/>
</a>
</g>
<text xml:space="preserve" text-anchor="start" x="246.62" y="-337.67" font-family="Helvetica,sans-Serif" font-size="10.00" fill="grey">&lt; SPSTuple&lt; uint64</text>
<text xml:space="preserve" text-anchor="start" x="246.62" y="-322.42" font-family="Helvetica,sans-Serif" font-size="10.00" fill="grey">  _t, uint64_t &gt; &gt;</text>
</g>
<!-- Node11 -->
<g id="Node000011" class="node">
<title>Node11</title>
<g id="a_Node000011"><a xlink:href="classllvm_1_1orc_1_1shared_1_1SPSSequence.html" target="_top" xlink:title=" ">
<polygon fill="white" stroke="#666666" points="593.75,-250.17 416.5,-250.17 416.5,-219.67 593.75,-219.67 593.75,-250.17"/>
<text xml:space="preserve" text-anchor="start" x="424.5" y="-236.67" font-family="Helvetica,sans-Serif" font-size="10.00">llvm::orc::shared::</text>
<text xml:space="preserve" text-anchor="middle" x="505.12" y="-225.42" font-family="Helvetica,sans-Serif" font-size="10.00">SPSSequence&lt; SPSExecutorAddr &gt;</text>
</a>
</g>
</g>
<!-- Node1&#45;&gt;Node11 -->
<g id="edge10_Node000001_Node000011" class="edge">
<title>Node1&#45;&gt;Node11</title>
<g id="a_edge10_Node000001_Node000011"><a xlink:title=" ">
<path fill="none" stroke="orange" stroke-dasharray="5,2" d="M100.73,-371.26C116.85,-339.63 148.9,-287.08 193.75,-262.67 261.82,-225.63 350.89,-221.35 416.15,-224.77"/>
<polygon fill="orange" stroke="orange" points="97.63,-369.61 96.36,-380.13 103.91,-372.7 97.63,-369.61"/>
</a>
</g>
<text xml:space="preserve" text-anchor="start" x="242.12" y="-268.67" font-family="Helvetica,sans-Serif" font-size="10.00" fill="grey">&lt; SPSExecutorAddr &gt;</text>
</g>
<!-- Node12 -->
<g id="Node000012" class="node">
<title>Node12</title>
<g id="a_Node000012"><a xlink:href="classllvm_1_1orc_1_1shared_1_1SPSSequence.html" target="_top" xlink:title=" ">
<polygon fill="white" stroke="#666666" points="602,-201.42 408.25,-201.42 408.25,-148.42 602,-148.42 602,-201.42"/>
<text xml:space="preserve" text-anchor="start" x="416.25" y="-187.92" font-family="Helvetica,sans-Serif" font-size="10.00">llvm::orc::shared::</text>
<text xml:space="preserve" text-anchor="start" x="416.25" y="-176.67" font-family="Helvetica,sans-Serif" font-size="10.00">SPSSequence&lt; SPSTuple</text>
<text xml:space="preserve" text-anchor="start" x="416.25" y="-165.42" font-family="Helvetica,sans-Serif" font-size="10.00">&lt; SPSExecutorAddr, SPSCOFFJITDylib</text>
<text xml:space="preserve" text-anchor="middle" x="505.12" y="-154.17" font-family="Helvetica,sans-Serif" font-size="10.00">DepInfo &gt; &gt;</text>
</a>
</g>
</g>
<!-- Node1&#45;&gt;Node12 -->
<g id="edge11_Node000001_Node000012" class="edge">
<title>Node1&#45;&gt;Node12</title>
<g id="a_edge11_Node000001_Node000012"><a xlink:title=" ">
<path fill="none" stroke="orange" stroke-dasharray="5,2" d="M93.38,-370.03C102.76,-323.55 129.14,-229.15 193.75,-187.42 256.61,-146.83 342.5,-146.56 408,-154.84"/>
<polygon fill="orange" stroke="orange" points="89.95,-369.31 91.54,-379.78 96.83,-370.61 89.95,-369.31"/>
</a>
</g>
<text xml:space="preserve" text-anchor="start" x="218.12" y="-208.67" font-family="Helvetica,sans-Serif" font-size="10.00" fill="grey">&lt; SPSTuple&lt; SPSExecutorAddr,</text>
<text xml:space="preserve" text-anchor="start" x="218.12" y="-193.42" font-family="Helvetica,sans-Serif" font-size="10.00" fill="grey">   SPSCOFFJITDylibDepInfo &gt; &gt;</text>
</g>
<!-- Node13 -->
<g id="Node000013" class="node">
<title>Node13</title>
<g id="a_Node000013"><a xlink:href="classllvm_1_1orc_1_1shared_1_1SPSSequence.html" target="_top" xlink:title=" ">
<polygon fill="white" stroke="#666666" points="583.25,-130.42 427,-130.42 427,-77.42 583.25,-77.42 583.25,-130.42"/>
<text xml:space="preserve" text-anchor="start" x="435" y="-116.92" font-family="Helvetica,sans-Serif" font-size="10.00">llvm::orc::shared::</text>
<text xml:space="preserve" text-anchor="start" x="435" y="-105.67" font-family="Helvetica,sans-Serif" font-size="10.00">SPSSequence&lt; SPSTuple</text>
<text xml:space="preserve" text-anchor="start" x="435" y="-94.42" font-family="Helvetica,sans-Serif" font-size="10.00">&lt; SPSString, SPSExecutorAddr</text>
<text xml:space="preserve" text-anchor="middle" x="505.12" y="-83.17" font-family="Helvetica,sans-Serif" font-size="10.00">Range &gt; &gt;</text>
</a>
</g>
</g>
<!-- Node1&#45;&gt;Node13 -->
<g id="edge12_Node000001_Node000013" class="edge">
<title>Node1&#45;&gt;Node13</title>
<g id="a_edge12_Node000001_Node000013"><a xlink:title=" ">
<path fill="none" stroke="orange" stroke-dasharray="5,2" d="M89.62,-369.71C92.86,-311.47 109.53,-175.13 193.75,-114.42 260.78,-66.11 358.78,-71.88 426.65,-84.29"/>
<polygon fill="orange" stroke="orange" points="86.13,-369.55 89.17,-379.69 93.12,-369.86 86.13,-369.55"/>
</a>
</g>
<text xml:space="preserve" text-anchor="start" x="223.38" y="-135.67" font-family="Helvetica,sans-Serif" font-size="10.00" fill="grey">&lt; SPSTuple&lt; SPSString,</text>
<text xml:space="preserve" text-anchor="start" x="223.38" y="-120.42" font-family="Helvetica,sans-Serif" font-size="10.00" fill="grey">   SPSExecutorAddrRange &gt; &gt;</text>
</g>
<!-- Node14 -->
<g id="Node000014" class="node">
<title>Node14</title>
<g id="a_Node000014"><a xlink:href="classllvm_1_1orc_1_1shared_1_1SPSSequence.html" target="_top" xlink:title=" ">
<polygon fill="white" stroke="#666666" points="604.25,-59.42 406,-59.42 406,-6.42 604.25,-6.42 604.25,-59.42"/>
<text xml:space="preserve" text-anchor="start" x="414" y="-45.92" font-family="Helvetica,sans-Serif" font-size="10.00">llvm::orc::shared::</text>
<text xml:space="preserve" text-anchor="start" x="414" y="-34.67" font-family="Helvetica,sans-Serif" font-size="10.00">SPSSequence&lt; SPSTuple</text>
<text xml:space="preserve" text-anchor="start" x="414" y="-23.42" font-family="Helvetica,sans-Serif" font-size="10.00">&lt; SPSExecutorAddr, SPSMachOJITDylib</text>
<text xml:space="preserve" text-anchor="middle" x="505.12" y="-12.17" font-family="Helvetica,sans-Serif" font-size="10.00">DepInfo &gt; &gt;</text>
</a>
</g>
</g>
<!-- Node1&#45;&gt;Node14 -->
<g id="edge13_Node000001_Node000014" class="edge">
<title>Node1&#45;&gt;Node14</title>
<g id="a_edge13_Node000001_Node000014"><a xlink:title=" ">
<path fill="none" stroke="orange" stroke-dasharray="5,2" d="M92.62,-370.25C103.86,-294.45 139.86,-80.66 193.75,-39.42 253.14,6.02 339.32,4.12 405.81,-7.16"/>
<polygon fill="orange" stroke="orange" points="89.17,-369.67 91.19,-380.07 96.1,-370.68 89.17,-369.67"/>
</a>
</g>
<text xml:space="preserve" text-anchor="start" x="215.88" y="-60.67" font-family="Helvetica,sans-Serif" font-size="10.00" fill="grey">&lt; SPSTuple&lt; SPSExecutorAddr,</text>
<text xml:space="preserve" text-anchor="start" x="215.88" y="-45.42" font-family="Helvetica,sans-Serif" font-size="10.00" fill="grey">   SPSMachOJITDylibDepInfo &gt; &gt;</text>
</g>
</g>
</svg>
