<?xml version="1.0" encoding="UTF-8" standalone="no"?>
<!DOCTYPE svg PUBLIC "-//W3C//DTD SVG 1.1//EN"
 "http://www.w3.org/Graphics/SVG/1.1/DTD/svg11.dtd">
<!-- Generated by graphviz version 14.1.3 (20260303.0454)
 -->
<!-- Title: llvm::CCState Pages: 1 -->
<svg width="228pt" height="83pt"
 viewBox="0.00 0.00 228.00 83.00" xmlns="http://www.w3.org/2000/svg" xmlns:xlink="http://www.w3.org/1999/xlink">
<g id="graph0" class="graph" transform="scale(1 1) rotate(0) translate(4 78.5)">
<title>llvm::CCState</title>
<!-- Node1 -->
<g id="Node000001" class="node">
<title>Node1</title>
<g id="a_Node000001"><a xlink:title="CCState &#45; This class holds information needed while lowering arguments and return values.">
<polygon fill="#999999" stroke="#666666" points="149.25,-74.5 71,-74.5 71,-55.25 149.25,-55.25 149.25,-74.5"/>
<text xml:space="preserve" text-anchor="middle" x="110.12" y="-61" font-family="Helvetica,sans-Serif" font-size="10.00">llvm::CCState</text>
</a>
</g>
</g>
<!-- Node2 -->
<g id="Node000002" class="node">
<title>Node2</title>
<g id="a_Node000002"><a xlink:href="structllvm_1_1M68kCCState.html" target="_top" xlink:title="Custom state to propagate llvm type info to register CC assigner.">
<polygon fill="white" stroke="#666666" points="102.25,-19.25 0,-19.25 0,0 102.25,0 102.25,-19.25"/>
<text xml:space="preserve" text-anchor="middle" x="51.12" y="-5.75" font-family="Helvetica,sans-Serif" font-size="10.00">llvm::M68kCCState</text>
</a>
</g>
</g>
<!-- Node1&#45;&gt;Node2 -->
<g id="edge1_Node000001_Node000002" class="edge">
<title>Node1&#45;&gt;Node2</title>
<g id="a_edge1_Node000001_Node000002"><a xlink:title=" ">
<path fill="none" stroke="#63b8ff" d="M91.86,-47.39C81.67,-38.19 69.38,-27.1 60.99,-19.52"/>
<polygon fill="#63b8ff" stroke="#63b8ff" points="89.22,-49.73 98.99,-53.83 93.91,-44.53 89.22,-49.73"/>
</a>
</g>
</g>
<!-- Node3 -->
<g id="Node000003" class="node">
<title>Node3</title>
<g id="a_Node000003"><a xlink:href="classllvm_1_1MipsCCState.html" target="_top" xlink:title=" ">
<polygon fill="white" stroke="#666666" points="219.75,-19.25 120.5,-19.25 120.5,0 219.75,0 219.75,-19.25"/>
<text xml:space="preserve" text-anchor="middle" x="170.12" y="-5.75" font-family="Helvetica,sans-Serif" font-size="10.00">llvm::MipsCCState</text>
</a>
</g>
</g>
<!-- Node1&#45;&gt;Node3 -->
<g id="edge2_Node000001_Node000003" class="edge">
<title>Node1&#45;&gt;Node3</title>
<g id="a_edge2_Node000001_Node000003"><a xlink:title=" ">
<path fill="none" stroke="#63b8ff" d="M128.7,-47.39C139.06,-38.19 151.56,-27.1 160.1,-19.52"/>
<polygon fill="#63b8ff" stroke="#63b8ff" points="126.59,-44.58 121.44,-53.84 131.24,-49.82 126.59,-44.58"/>
</a>
</g>
</g>
</g>
</svg>
