<?xml version="1.0" encoding="UTF-8" standalone="no"?>
<!DOCTYPE svg PUBLIC "-//W3C//DTD SVG 1.1//EN"
 "http://www.w3.org/Graphics/SVG/1.1/DTD/svg11.dtd">
<!-- Generated by graphviz version 14.1.3 (20260303.0454)
 -->
<!-- Title: llvm::TypeSwitch&lt; T, void &gt; Pages: 1 -->
<svg width="744pt" height="108pt"
 viewBox="0.00 0.00 744.00 108.00" xmlns="http://www.w3.org/2000/svg" xmlns:xlink="http://www.w3.org/1999/xlink">
<g id="graph0" class="graph" transform="scale(1 1) rotate(0) translate(4 103.75)">
<title>llvm::TypeSwitch&lt; T, void &gt;</title>
<!-- Node1 -->
<g id="Node000001" class="node">
<title>Node1</title>
<g id="a_Node000001"><a xlink:title="Specialization of TypeSwitch for void returning callables.">
<polygon fill="#999999" stroke="#666666" points="736.25,-82.5 628.75,-82.5 628.75,-52 736.25,-52 736.25,-82.5"/>
<text xml:space="preserve" text-anchor="start" x="636.75" y="-69" font-family="Helvetica,sans-Serif" font-size="10.00">llvm::TypeSwitch&lt; T,</text>
<text xml:space="preserve" text-anchor="middle" x="682.5" y="-57.75" font-family="Helvetica,sans-Serif" font-size="10.00"> void &gt;</text>
</a>
</g>
</g>
<!-- Node2 -->
<g id="Node000002" class="node">
<title>Node2</title>
<g id="a_Node000002"><a xlink:href="classllvm_1_1detail_1_1TypeSwitchBase.html" target="_top" xlink:title=" ">
<polygon fill="white" stroke="#666666" points="395.75,-88.12 259.75,-88.12 259.75,-46.38 395.75,-46.38 395.75,-88.12"/>
<text xml:space="preserve" text-anchor="start" x="267.75" y="-74.62" font-family="Helvetica,sans-Serif" font-size="10.00">llvm::detail::TypeSwitch</text>
<text xml:space="preserve" text-anchor="start" x="267.75" y="-63.38" font-family="Helvetica,sans-Serif" font-size="10.00">Base&lt; TypeSwitch&lt; T, void</text>
<text xml:space="preserve" text-anchor="middle" x="327.75" y="-52.12" font-family="Helvetica,sans-Serif" font-size="10.00"> &gt;, T &gt;</text>
</a>
</g>
</g>
<!-- Node2&#45;&gt;Node1 -->
<g id="edge1_Node000001_Node000002" class="edge">
<title>Node2&#45;&gt;Node1</title>
<g id="a_edge1_Node000001_Node000002"><a xlink:title=" ">
<path fill="none" stroke="#63b8ff" d="M407.32,-61.52C474.62,-59.95 569.7,-60.19 628.38,-62.26"/>
<polygon fill="#63b8ff" stroke="#63b8ff" points="407.35,-58.02 397.44,-61.78 407.53,-65.02 407.35,-58.02"/>
</a>
</g>
</g>
<!-- Node2&#45;&gt;Node1 -->
<g id="edge3_Node000001_Node000002" class="edge">
<title>Node2&#45;&gt;Node1</title>
<g id="a_edge3_Node000001_Node000002"><a xlink:title=" ">
<path fill="none" stroke="#63b8ff" d="M407.32,-72.98C474.62,-74.55 569.7,-74.31 628.38,-72.24"/>
<polygon fill="#63b8ff" stroke="#63b8ff" points="407.53,-69.48 397.44,-72.72 407.35,-76.48 407.53,-69.48"/>
</a>
</g>
</g>
<!-- Node4 -->
<g id="Node000004" class="node">
<title>Node4</title>
<g id="a_Node000004"><a xlink:href="classllvm_1_1TypeSwitch.html" target="_top" xlink:title="This class implements a switch&#45;like dispatch statement for a value of &#39;T&#39; using dyn_cast functionalit...">
<polygon fill="white" stroke="#666666" points="540.25,-30.5 432.75,-30.5 432.75,0 540.25,0 540.25,-30.5"/>
<text xml:space="preserve" text-anchor="start" x="440.75" y="-17" font-family="Helvetica,sans-Serif" font-size="10.00">llvm::TypeSwitch&lt; T,</text>
<text xml:space="preserve" text-anchor="middle" x="486.5" y="-5.75" font-family="Helvetica,sans-Serif" font-size="10.00"> ResultT &gt;</text>
</a>
</g>
</g>
<!-- Node2&#45;&gt;Node4 -->
<g id="edge5_Node000004_Node000002" class="edge">
<title>Node2&#45;&gt;Node4</title>
<g id="a_edge5_Node000004_Node000002"><a xlink:title=" ">
<path fill="none" stroke="#63b8ff" d="M403.75,-42.37C415.57,-38.45 427.48,-34.5 438.43,-30.87"/>
<polygon fill="#63b8ff" stroke="#63b8ff" points="402.78,-39 394.4,-45.47 404.99,-45.65 402.78,-39"/>
</a>
</g>
</g>
<!-- Node3 -->
<g id="Node000003" class="node">
<title>Node3</title>
<g id="a_Node000003"><a xlink:href="classllvm_1_1detail_1_1TypeSwitchBase.html" target="_top" xlink:title=" ">
<polygon fill="white" stroke="#666666" points="120.25,-82.5 0,-82.5 0,-52 120.25,-52 120.25,-82.5"/>
<text xml:space="preserve" text-anchor="start" x="8" y="-69" font-family="Helvetica,sans-Serif" font-size="10.00">llvm::detail::TypeSwitch</text>
<text xml:space="preserve" text-anchor="middle" x="60.12" y="-57.75" font-family="Helvetica,sans-Serif" font-size="10.00">Base&lt; DerivedT, T &gt;</text>
</a>
</g>
</g>
<!-- Node3&#45;&gt;Node2 -->
<g id="edge2_Node000002_Node000003" class="edge">
<title>Node3&#45;&gt;Node2</title>
<g id="a_edge2_Node000002_Node000003"><a xlink:title=" ">
<path fill="none" stroke="orange" stroke-dasharray="5,2" d="M132.14,-67.25C171.63,-67.25 220.5,-67.25 259.39,-67.25"/>
<polygon fill="orange" stroke="orange" points="132.25,-63.75 122.25,-67.25 132.25,-70.75 132.25,-63.75"/>
</a>
</g>
<text xml:space="preserve" text-anchor="start" x="141.25" y="-88.5" font-family="Helvetica,sans-Serif" font-size="10.00" fill="grey">&lt; TypeSwitch&lt; T, void</text>
<text xml:space="preserve" text-anchor="start" x="141.25" y="-73.25" font-family="Helvetica,sans-Serif" font-size="10.00" fill="grey">   &gt;, T &gt;</text>
</g>
<!-- Node4&#45;&gt;Node1 -->
<g id="edge4_Node000001_Node000004" class="edge">
<title>Node4&#45;&gt;Node1</title>
<g id="a_edge4_Node000001_Node000004"><a xlink:title=" ">
<path fill="none" stroke="orange" stroke-dasharray="5,2" d="M552.05,-16.27C571.28,-17.94 592.16,-21.12 610.75,-27 628.27,-32.54 646.24,-42.83 659.68,-51.62"/>
<polygon fill="orange" stroke="orange" points="552.39,-12.79 542.16,-15.55 551.88,-19.77 552.39,-12.79"/>
</a>
</g>
<text xml:space="preserve" text-anchor="start" x="561.25" y="-33" font-family="Helvetica,sans-Serif" font-size="10.00" fill="grey">&lt; T, void &gt;</text>
</g>
</g>
</svg>
