<?xml version="1.0" encoding="UTF-8" standalone="no"?>
<!DOCTYPE svg PUBLIC "-//W3C//DTD SVG 1.1//EN"
 "http://www.w3.org/Graphics/SVG/1.1/DTD/svg11.dtd">
<!-- Generated by graphviz version 14.1.3 (20260303.0454)
 -->
<!-- Title: llvm::ExistsOpInit Pages: 1 -->
<svg width="192pt" height="138pt"
 viewBox="0.00 0.00 192.00 138.00" xmlns="http://www.w3.org/2000/svg" xmlns:xlink="http://www.w3.org/1999/xlink">
<g id="graph0" class="graph" transform="scale(1 1) rotate(0) translate(4 133.75)">
<title>llvm::ExistsOpInit</title>
<!-- Node1 -->
<g id="Node000001" class="node">
<title>Node1</title>
<g id="a_Node000001"><a xlink:title="!exists&lt;type&gt;(expr) &#45; Dynamically determine if a record of type named expr exists.">
<polygon fill="#999999" stroke="#666666" points="136.88,-19.25 42.87,-19.25 42.87,0 136.88,0 136.88,-19.25"/>
<text xml:space="preserve" text-anchor="middle" x="89.88" y="-5.75" font-family="Helvetica,sans-Serif" font-size="10.00">llvm::ExistsOpInit</text>
</a>
</g>
</g>
<!-- Node2 -->
<g id="Node000002" class="node">
<title>Node2</title>
<g id="a_Node000002"><a xlink:href="classllvm_1_1TypedInit.html" target="_top" xlink:title="This is the common superclass of types that have a specific, explicit type, stored in ValueTy.">
<polygon fill="white" stroke="#666666" points="79.75,-74.5 0,-74.5 0,-55.25 79.75,-55.25 79.75,-74.5"/>
<text xml:space="preserve" text-anchor="middle" x="39.88" y="-61" font-family="Helvetica,sans-Serif" font-size="10.00">llvm::TypedInit</text>
</a>
</g>
</g>
<!-- Node2&#45;&gt;Node1 -->
<g id="edge1_Node000001_Node000002" class="edge">
<title>Node2&#45;&gt;Node1</title>
<g id="a_edge1_Node000001_Node000002"><a xlink:title=" ">
<path fill="none" stroke="#63b8ff" d="M55.92,-46.79C64.4,-37.75 74.48,-27.02 81.44,-19.61"/>
<polygon fill="#63b8ff" stroke="#63b8ff" points="53.46,-44.29 49.17,-53.98 58.56,-49.08 53.46,-44.29"/>
</a>
</g>
</g>
<!-- Node3 -->
<g id="Node000003" class="node">
<title>Node3</title>
<g id="a_Node000003"><a xlink:href="classllvm_1_1Init.html" target="_top" xlink:title=" ">
<polygon fill="white" stroke="#666666" points="66.62,-129.75 13.12,-129.75 13.12,-110.5 66.62,-110.5 66.62,-129.75"/>
<text xml:space="preserve" text-anchor="middle" x="39.88" y="-116.25" font-family="Helvetica,sans-Serif" font-size="10.00">llvm::Init</text>
</a>
</g>
</g>
<!-- Node3&#45;&gt;Node2 -->
<g id="edge2_Node000002_Node000003" class="edge">
<title>Node3&#45;&gt;Node2</title>
<g id="a_edge2_Node000002_Node000003"><a xlink:title=" ">
<path fill="none" stroke="#63b8ff" d="M39.88,-98.88C39.88,-90.59 39.88,-81.42 39.88,-74.86"/>
<polygon fill="#63b8ff" stroke="#63b8ff" points="36.38,-98.82 39.88,-108.82 43.38,-98.82 36.38,-98.82"/>
</a>
</g>
</g>
<!-- Node4 -->
<g id="Node000004" class="node">
<title>Node4</title>
<g id="a_Node000004"><a xlink:href="classllvm_1_1FoldingSetBase_1_1Node.html" target="_top" xlink:title="Node &#45; This class is used to maintain the singly linked bucket list in a folding set.">
<polygon fill="white" stroke="#666666" points="183.75,-74.5 98,-74.5 98,-55.25 183.75,-55.25 183.75,-74.5"/>
<text xml:space="preserve" text-anchor="middle" x="140.88" y="-61" font-family="Helvetica,sans-Serif" font-size="10.00">FoldingSetNode</text>
</a>
</g>
</g>
<!-- Node4&#45;&gt;Node1 -->
<g id="edge3_Node000001_Node000004" class="edge">
<title>Node4&#45;&gt;Node1</title>
<g id="a_edge3_Node000001_Node000004"><a xlink:title=" ">
<path fill="none" stroke="#63b8ff" d="M124.51,-46.79C115.86,-37.75 105.58,-27.02 98.48,-19.61"/>
<polygon fill="#63b8ff" stroke="#63b8ff" points="121.96,-49.19 131.41,-53.99 127.02,-44.35 121.96,-49.19"/>
</a>
</g>
</g>
</g>
</svg>
