<?xml version="1.0" encoding="UTF-8" standalone="no"?>
<!DOCTYPE svg PUBLIC "-//W3C//DTD SVG 1.1//EN"
 "http://www.w3.org/Graphics/SVG/1.1/DTD/svg11.dtd">
<!-- Generated by graphviz version 14.1.3 (20260303.0454)
 -->
<!-- Title: llvm::AccelTable&lt; DataT &gt; Pages: 1 -->
<svg width="802pt" height="271pt"
 viewBox="0.00 0.00 802.00 271.00" xmlns="http://www.w3.org/2000/svg" xmlns:xlink="http://www.w3.org/1999/xlink">
<g id="graph0" class="graph" transform="scale(1 1) rotate(0) translate(4 267.02)">
<title>llvm::AccelTable&lt; DataT &gt;</title>
<!-- Node1 -->
<g id="Node000001" class="node">
<title>Node1</title>
<g id="a_Node000001"><a xlink:title="This class holds an abstract representation of an Accelerator Table, consisting of a sequence of buck...">
<polygon fill="#999999" stroke="#666666" points="280.5,-136.88 147.5,-136.88 147.5,-117.62 280.5,-117.62 280.5,-136.88"/>
<text xml:space="preserve" text-anchor="middle" x="214" y="-123.38" font-family="Helvetica,sans-Serif" font-size="10.00">llvm::AccelTable&lt; DataT &gt;</text>
</a>
</g>
</g>
<!-- Node3 -->
<g id="Node000003" class="node">
<title>Node3</title>
<g id="a_Node000003"><a xlink:href="classllvm_1_1AccelTable.html" target="_top" xlink:title=" ">
<polygon fill="white" stroke="#666666" points="610.38,-254.5 471.38,-254.5 471.38,-224 610.38,-224 610.38,-254.5"/>
<text xml:space="preserve" text-anchor="start" x="479.38" y="-241" font-family="Helvetica,sans-Serif" font-size="10.00">llvm::AccelTable&lt; DWARF5</text>
<text xml:space="preserve" text-anchor="middle" x="540.88" y="-229.75" font-family="Helvetica,sans-Serif" font-size="10.00">AccelTableData &gt;</text>
</a>
</g>
</g>
<!-- Node1&#45;&gt;Node3 -->
<g id="edge2_Node000001_Node000003" class="edge">
<title>Node1&#45;&gt;Node3</title>
<g id="a_edge2_Node000001_Node000003"><a xlink:title=" ">
<path fill="none" stroke="orange" stroke-dasharray="5,2" d="M226.94,-147.03C241.08,-168.45 266.75,-201.65 298.5,-217.25 352.22,-243.66 420.77,-247.51 471.08,-245.72"/>
<polygon fill="orange" stroke="orange" points="229.91,-145.17 221.6,-138.6 224,-148.92 229.91,-145.17"/>
</a>
</g>
<text xml:space="preserve" text-anchor="start" x="303.38" y="-251.77" font-family="Helvetica,sans-Serif" font-size="10.00" fill="grey">&lt; DWARF5AccelTableData &gt;</text>
</g>
<!-- Node5 -->
<g id="Node000005" class="node">
<title>Node5</title>
<g id="a_Node000005"><a xlink:href="classllvm_1_1AccelTable.html" target="_top" xlink:title=" ">
<polygon fill="white" stroke="#666666" points="616.75,-198.5 465,-198.5 465,-168 616.75,-168 616.75,-198.5"/>
<text xml:space="preserve" text-anchor="start" x="473" y="-185" font-family="Helvetica,sans-Serif" font-size="10.00">llvm::AccelTable&lt; llvm</text>
<text xml:space="preserve" text-anchor="middle" x="540.88" y="-173.75" font-family="Helvetica,sans-Serif" font-size="10.00">::AppleAccelTableOffsetData &gt;</text>
</a>
</g>
</g>
<!-- Node1&#45;&gt;Node5 -->
<g id="edge4_Node000001_Node000005" class="edge">
<title>Node1&#45;&gt;Node5</title>
<g id="a_edge4_Node000001_Node000005"><a xlink:title=" ">
<path fill="none" stroke="orange" stroke-dasharray="5,2" d="M245.11,-142.04C260.68,-149.03 280.21,-156.8 298.5,-161.25 353.18,-174.56 416.61,-179.97 464.73,-182.1"/>
<polygon fill="orange" stroke="orange" points="246.95,-139.03 236.4,-138.01 244.01,-145.38 246.95,-139.03"/>
</a>
</g>
<text xml:space="preserve" text-anchor="start" x="301.5" y="-201.68" font-family="Helvetica,sans-Serif" font-size="10.00" fill="grey">&lt; llvm::AppleAccelTableOffset</text>
<text xml:space="preserve" text-anchor="start" x="301.5" y="-186.43" font-family="Helvetica,sans-Serif" font-size="10.00" fill="grey">  Data &gt;</text>
</g>
<!-- Node6 -->
<g id="Node000006" class="node">
<title>Node6</title>
<g id="a_Node000006"><a xlink:href="classllvm_1_1AccelTable.html" target="_top" xlink:title=" ">
<polygon fill="white" stroke="#666666" points="613.75,-142.5 468,-142.5 468,-112 613.75,-112 613.75,-142.5"/>
<text xml:space="preserve" text-anchor="start" x="476" y="-129" font-family="Helvetica,sans-Serif" font-size="10.00">llvm::AccelTable&lt; llvm</text>
<text xml:space="preserve" text-anchor="middle" x="540.88" y="-117.75" font-family="Helvetica,sans-Serif" font-size="10.00">::AppleAccelTableTypeData &gt;</text>
</a>
</g>
</g>
<!-- Node1&#45;&gt;Node6 -->
<g id="edge5_Node000001_Node000006" class="edge">
<title>Node1&#45;&gt;Node6</title>
<g id="a_edge5_Node000001_Node000006"><a xlink:title=" ">
<path fill="none" stroke="orange" stroke-dasharray="5,2" d="M292.17,-127.25C345.38,-127.25 415.64,-127.25 467.73,-127.25"/>
<polygon fill="orange" stroke="orange" points="292.26,-123.75 282.26,-127.25 292.26,-130.75 292.26,-123.75"/>
</a>
</g>
<text xml:space="preserve" text-anchor="start" x="304.5" y="-148.5" font-family="Helvetica,sans-Serif" font-size="10.00" fill="grey">&lt; llvm::AppleAccelTableType</text>
<text xml:space="preserve" text-anchor="start" x="304.5" y="-133.25" font-family="Helvetica,sans-Serif" font-size="10.00" fill="grey">  Data &gt;</text>
</g>
<!-- Node7 -->
<g id="Node000007" class="node">
<title>Node7</title>
<g id="a_Node000007"><a xlink:href="classllvm_1_1AccelTable.html" target="_top" xlink:title=" ">
<polygon fill="white" stroke="#666666" points="614.5,-92.12 467.25,-92.12 467.25,-50.38 614.5,-50.38 614.5,-92.12"/>
<text xml:space="preserve" text-anchor="start" x="475.25" y="-78.62" font-family="Helvetica,sans-Serif" font-size="10.00">llvm::AccelTable&lt; llvm</text>
<text xml:space="preserve" text-anchor="start" x="475.25" y="-67.38" font-family="Helvetica,sans-Serif" font-size="10.00">::AppleAccelTableStaticOffset</text>
<text xml:space="preserve" text-anchor="middle" x="540.88" y="-56.12" font-family="Helvetica,sans-Serif" font-size="10.00">Data &gt;</text>
</a>
</g>
</g>
<!-- Node1&#45;&gt;Node7 -->
<g id="edge6_Node000001_Node000007" class="edge">
<title>Node1&#45;&gt;Node7</title>
<g id="a_edge6_Node000001_Node000007"><a xlink:title=" ">
<path fill="none" stroke="orange" stroke-dasharray="5,2" d="M243.41,-112.02C259.19,-104.29 279.43,-95.55 298.5,-90.75 353.85,-76.83 418.37,-72.19 466.77,-70.9"/>
<polygon fill="orange" stroke="orange" points="241.97,-108.83 234.62,-116.46 245.13,-115.07 241.97,-108.83"/>
</a>
</g>
<text xml:space="preserve" text-anchor="start" x="302.25" y="-112" font-family="Helvetica,sans-Serif" font-size="10.00" fill="grey">&lt; llvm::AppleAccelTableStatic</text>
<text xml:space="preserve" text-anchor="start" x="302.25" y="-96.75" font-family="Helvetica,sans-Serif" font-size="10.00" fill="grey">  OffsetData &gt;</text>
</g>
<!-- Node8 -->
<g id="Node000008" class="node">
<title>Node8</title>
<g id="a_Node000008"><a xlink:href="classllvm_1_1AccelTable.html" target="_top" xlink:title=" ">
<polygon fill="white" stroke="#666666" points="626.5,-30.5 455.25,-30.5 455.25,0 626.5,0 626.5,-30.5"/>
<text xml:space="preserve" text-anchor="start" x="463.25" y="-17" font-family="Helvetica,sans-Serif" font-size="10.00">llvm::AccelTable&lt; llvm</text>
<text xml:space="preserve" text-anchor="middle" x="540.88" y="-5.75" font-family="Helvetica,sans-Serif" font-size="10.00">::AppleAccelTableStaticTypeData &gt;</text>
</a>
</g>
</g>
<!-- Node1&#45;&gt;Node8 -->
<g id="edge7_Node000001_Node000008" class="edge">
<title>Node1&#45;&gt;Node8</title>
<g id="a_edge7_Node000001_Node000008"><a xlink:title=" ">
<path fill="none" stroke="orange" stroke-dasharray="5,2" d="M226.43,-107.74C240.39,-85.96 266.17,-51.68 298.5,-35.75 346.6,-12.05 406.66,-6.87 454.84,-7.64"/>
<polygon fill="orange" stroke="orange" points="223.61,-105.66 221.35,-116.01 229.57,-109.33 223.61,-105.66"/>
</a>
</g>
<text xml:space="preserve" text-anchor="start" x="302.25" y="-57" font-family="Helvetica,sans-Serif" font-size="10.00" fill="grey">&lt; llvm::AppleAccelTableStatic</text>
<text xml:space="preserve" text-anchor="start" x="302.25" y="-41.75" font-family="Helvetica,sans-Serif" font-size="10.00" fill="grey">  TypeData &gt;</text>
</g>
<!-- Node2 -->
<g id="Node000002" class="node">
<title>Node2</title>
<g id="a_Node000002"><a xlink:href="classllvm_1_1AccelTableBase.html" target="_top" xlink:title="A base class holding non&#45;template&#45;dependant functionality of the AccelTable class.">
<polygon fill="white" stroke="#666666" points="110.5,-136.88 0,-136.88 0,-117.62 110.5,-117.62 110.5,-136.88"/>
<text xml:space="preserve" text-anchor="middle" x="55.25" y="-123.38" font-family="Helvetica,sans-Serif" font-size="10.00">llvm::AccelTableBase</text>
</a>
</g>
</g>
<!-- Node2&#45;&gt;Node1 -->
<g id="edge1_Node000001_Node000002" class="edge">
<title>Node2&#45;&gt;Node1</title>
<g id="a_edge1_Node000001_Node000002"><a xlink:title=" ">
<path fill="none" stroke="#63b8ff" d="M122.14,-127.25C130.4,-127.25 138.84,-127.25 147.1,-127.25"/>
<polygon fill="#63b8ff" stroke="#63b8ff" points="122.15,-123.75 112.15,-127.25 122.15,-130.75 122.15,-123.75"/>
</a>
</g>
</g>
<!-- Node4 -->
<g id="Node000004" class="node">
<title>Node4</title>
<g id="a_Node000004"><a xlink:href="classllvm_1_1DWARF5AccelTable.html" target="_top" xlink:title=" ">
<polygon fill="white" stroke="#666666" points="793.5,-248.88 663.5,-248.88 663.5,-229.62 793.5,-229.62 793.5,-248.88"/>
<text xml:space="preserve" text-anchor="middle" x="728.5" y="-235.38" font-family="Helvetica,sans-Serif" font-size="10.00">llvm::DWARF5AccelTable</text>
</a>
</g>
</g>
<!-- Node3&#45;&gt;Node4 -->
<g id="edge3_Node000003_Node000004" class="edge">
<title>Node3&#45;&gt;Node4</title>
<g id="a_edge3_Node000003_Node000004"><a xlink:title=" ">
<path fill="none" stroke="#63b8ff" d="M622.11,-239.25C635.8,-239.25 649.85,-239.25 663.06,-239.25"/>
<polygon fill="#63b8ff" stroke="#63b8ff" points="622.24,-235.75 612.24,-239.25 622.24,-242.75 622.24,-235.75"/>
</a>
</g>
</g>
</g>
</svg>
