<?xml version="1.0" encoding="UTF-8" standalone="no"?>
<!DOCTYPE svg PUBLIC "-//W3C//DTD SVG 1.1//EN"
 "http://www.w3.org/Graphics/SVG/1.1/DTD/svg11.dtd">
<!-- Generated by graphviz version 14.1.3 (20260303.0454)
 -->
<!-- Title: llvm::ReplaceableMetadataImpl Pages: 1 -->
<svg width="295pt" height="138pt"
 viewBox="0.00 0.00 295.00 138.00" xmlns="http://www.w3.org/2000/svg" xmlns:xlink="http://www.w3.org/1999/xlink">
<g id="graph0" class="graph" transform="scale(1 1) rotate(0) translate(4 133.75)">
<title>llvm::ReplaceableMetadataImpl</title>
<!-- Node1 -->
<g id="Node000001" class="node">
<title>Node1</title>
<g id="a_Node000001"><a xlink:title="Shared implementation of use&#45;lists for replaceable metadata.">
<polygon fill="#999999" stroke="#666666" points="175.25,-129.75 22,-129.75 22,-110.5 175.25,-110.5 175.25,-129.75"/>
<text xml:space="preserve" text-anchor="middle" x="98.62" y="-116.25" font-family="Helvetica,sans-Serif" font-size="10.00">llvm::ReplaceableMetadataImpl</text>
</a>
</g>
</g>
<!-- Node2 -->
<g id="Node000002" class="node">
<title>Node2</title>
<g id="a_Node000002"><a xlink:href="classllvm_1_1DIArgList.html" target="_top" xlink:title="List of ValueAsMetadata, to be used as an argument to a dbg.value intrinsic.">
<polygon fill="white" stroke="#666666" points="81.25,-74.5 0,-74.5 0,-55.25 81.25,-55.25 81.25,-74.5"/>
<text xml:space="preserve" text-anchor="middle" x="40.62" y="-61" font-family="Helvetica,sans-Serif" font-size="10.00">llvm::DIArgList</text>
</a>
</g>
</g>
<!-- Node1&#45;&gt;Node2 -->
<g id="edge1_Node000001_Node000002" class="edge">
<title>Node1&#45;&gt;Node2</title>
<g id="a_edge1_Node000001_Node000002"><a xlink:title=" ">
<path fill="none" stroke="#8b1a1a" d="M80.36,-102.36C70.41,-93.22 58.49,-82.28 50.32,-74.77"/>
<polygon fill="#8b1a1a" stroke="#8b1a1a" points="77.94,-104.88 87.67,-109.07 82.67,-99.73 77.94,-104.88"/>
</a>
</g>
</g>
<!-- Node3 -->
<g id="Node000003" class="node">
<title>Node3</title>
<g id="a_Node000003"><a xlink:href="classllvm_1_1ValueAsMetadata.html" target="_top" xlink:title="Value wrapper in the Metadata hierarchy.">
<polygon fill="white" stroke="#666666" points="215.88,-74.5 99.38,-74.5 99.38,-55.25 215.88,-55.25 215.88,-74.5"/>
<text xml:space="preserve" text-anchor="middle" x="157.62" y="-61" font-family="Helvetica,sans-Serif" font-size="10.00">llvm::ValueAsMetadata</text>
</a>
</g>
</g>
<!-- Node1&#45;&gt;Node3 -->
<g id="edge2_Node000001_Node000003" class="edge">
<title>Node1&#45;&gt;Node3</title>
<g id="a_edge2_Node000001_Node000003"><a xlink:title=" ">
<path fill="none" stroke="#8b1a1a" d="M116.89,-102.64C127.08,-93.44 139.37,-82.35 147.76,-74.77"/>
<polygon fill="#8b1a1a" stroke="#8b1a1a" points="114.84,-99.78 109.76,-109.08 119.53,-104.98 114.84,-99.78"/>
</a>
</g>
</g>
<!-- Node4 -->
<g id="Node000004" class="node">
<title>Node4</title>
<g id="a_Node000004"><a xlink:href="classllvm_1_1ConstantAsMetadata.html" target="_top" xlink:title=" ">
<polygon fill="white" stroke="#666666" points="152.75,-19.25 20.5,-19.25 20.5,0 152.75,0 152.75,-19.25"/>
<text xml:space="preserve" text-anchor="middle" x="86.62" y="-5.75" font-family="Helvetica,sans-Serif" font-size="10.00">llvm::ConstantAsMetadata</text>
</a>
</g>
</g>
<!-- Node3&#45;&gt;Node4 -->
<g id="edge3_Node000003_Node000004" class="edge">
<title>Node3&#45;&gt;Node4</title>
<g id="a_edge3_Node000003_Node000004"><a xlink:title=" ">
<path fill="none" stroke="#63b8ff" d="M136.38,-47.94C123.98,-38.64 108.8,-27.26 98.49,-19.52"/>
<polygon fill="#63b8ff" stroke="#63b8ff" points="134.27,-50.73 144.37,-53.93 138.47,-45.13 134.27,-50.73"/>
</a>
</g>
</g>
<!-- Node5 -->
<g id="Node000005" class="node">
<title>Node5</title>
<g id="a_Node000005"><a xlink:href="classllvm_1_1LocalAsMetadata.html" target="_top" xlink:title=" ">
<polygon fill="white" stroke="#666666" points="286.5,-19.25 170.75,-19.25 170.75,0 286.5,0 286.5,-19.25"/>
<text xml:space="preserve" text-anchor="middle" x="228.62" y="-5.75" font-family="Helvetica,sans-Serif" font-size="10.00">llvm::LocalAsMetadata</text>
</a>
</g>
</g>
<!-- Node3&#45;&gt;Node5 -->
<g id="edge4_Node000003_Node000005" class="edge">
<title>Node3&#45;&gt;Node5</title>
<g id="a_edge4_Node000003_Node000005"><a xlink:title=" ">
<path fill="none" stroke="#63b8ff" d="M178.87,-47.94C191.27,-38.64 206.45,-27.26 216.76,-19.52"/>
<polygon fill="#63b8ff" stroke="#63b8ff" points="176.78,-45.13 170.88,-53.93 180.98,-50.73 176.78,-45.13"/>
</a>
</g>
</g>
</g>
</svg>
