<?xml version="1.0" encoding="UTF-8" standalone="no"?>
<!DOCTYPE svg PUBLIC "-//W3C//DTD SVG 1.1//EN"
 "http://www.w3.org/Graphics/SVG/1.1/DTD/svg11.dtd">
<!-- Generated by graphviz version 14.1.3 (20260303.0454)
 -->
<!-- Title: llvm::LibcallLoweringInfoWrapper Pages: 1 -->
<svg width="131pt" height="204pt"
 viewBox="0.00 0.00 131.00 204.00" xmlns="http://www.w3.org/2000/svg" xmlns:xlink="http://www.w3.org/1999/xlink">
<g id="graph0" class="graph" transform="scale(1 1) rotate(0) translate(4 200.25)">
<title>llvm::LibcallLoweringInfoWrapper</title>
<!-- Node1 -->
<g id="Node000001" class="node">
<title>Node1</title>
<g id="a_Node000001"><a xlink:title=" ">
<polygon fill="#999999" stroke="#666666" points="123.25,-30.5 0,-30.5 0,0 123.25,0 123.25,-30.5"/>
<text xml:space="preserve" text-anchor="start" x="8" y="-17" font-family="Helvetica,sans-Serif" font-size="10.00">llvm::LibcallLoweringInfo</text>
<text xml:space="preserve" text-anchor="middle" x="61.62" y="-5.75" font-family="Helvetica,sans-Serif" font-size="10.00">Wrapper</text>
</a>
</g>
</g>
<!-- Node2 -->
<g id="Node000002" class="node">
<title>Node2</title>
<g id="a_Node000002"><a xlink:href="classllvm_1_1ImmutablePass.html" target="_top" xlink:title="ImmutablePass class &#45; This class is used to provide information that does not need to be run.">
<polygon fill="white" stroke="#666666" points="115.75,-85.75 7.5,-85.75 7.5,-66.5 115.75,-66.5 115.75,-85.75"/>
<text xml:space="preserve" text-anchor="middle" x="61.62" y="-72.25" font-family="Helvetica,sans-Serif" font-size="10.00">llvm::ImmutablePass</text>
</a>
</g>
</g>
<!-- Node2&#45;&gt;Node1 -->
<g id="edge1_Node000001_Node000002" class="edge">
<title>Node2&#45;&gt;Node1</title>
<g id="a_edge1_Node000001_Node000002"><a xlink:title=" ">
<path fill="none" stroke="#63b8ff" d="M61.62,-54.92C61.62,-46.99 61.62,-38.06 61.62,-30.78"/>
<polygon fill="#63b8ff" stroke="#63b8ff" points="58.13,-54.67 61.63,-64.67 65.13,-54.67 58.13,-54.67"/>
</a>
</g>
</g>
<!-- Node3 -->
<g id="Node000003" class="node">
<title>Node3</title>
<g id="a_Node000003"><a xlink:href="classllvm_1_1ModulePass.html" target="_top" xlink:title="ModulePass class &#45; This class is used to implement unstructured interprocedural optimizations and ana...">
<polygon fill="white" stroke="#666666" points="108.62,-141 14.62,-141 14.62,-121.75 108.62,-121.75 108.62,-141"/>
<text xml:space="preserve" text-anchor="middle" x="61.62" y="-127.5" font-family="Helvetica,sans-Serif" font-size="10.00">llvm::ModulePass</text>
</a>
</g>
</g>
<!-- Node3&#45;&gt;Node2 -->
<g id="edge2_Node000002_Node000003" class="edge">
<title>Node3&#45;&gt;Node2</title>
<g id="a_edge2_Node000002_Node000003"><a xlink:title=" ">
<path fill="none" stroke="#63b8ff" d="M61.62,-110.13C61.62,-101.84 61.62,-92.67 61.62,-86.11"/>
<polygon fill="#63b8ff" stroke="#63b8ff" points="58.13,-110.07 61.63,-120.07 65.13,-110.07 58.13,-110.07"/>
</a>
</g>
</g>
<!-- Node4 -->
<g id="Node000004" class="node">
<title>Node4</title>
<g id="a_Node000004"><a xlink:href="classllvm_1_1Pass.html" target="_top" xlink:title="Pass interface &#45; Implemented by all &#39;passes&#39;.">
<polygon fill="white" stroke="#666666" points="92.88,-196.25 30.38,-196.25 30.38,-177 92.88,-177 92.88,-196.25"/>
<text xml:space="preserve" text-anchor="middle" x="61.62" y="-182.75" font-family="Helvetica,sans-Serif" font-size="10.00">llvm::Pass</text>
</a>
</g>
</g>
<!-- Node4&#45;&gt;Node3 -->
<g id="edge3_Node000003_Node000004" class="edge">
<title>Node4&#45;&gt;Node3</title>
<g id="a_edge3_Node000003_Node000004"><a xlink:title=" ">
<path fill="none" stroke="#63b8ff" d="M61.62,-165.38C61.62,-157.09 61.62,-147.92 61.62,-141.36"/>
<polygon fill="#63b8ff" stroke="#63b8ff" points="58.13,-165.32 61.63,-175.32 65.13,-165.32 58.13,-165.32"/>
</a>
</g>
</g>
</g>
</svg>
