<?xml version="1.0" encoding="UTF-8" standalone="no"?>
<!DOCTYPE svg PUBLIC "-//W3C//DTD SVG 1.1//EN"
 "http://www.w3.org/Graphics/SVG/1.1/DTD/svg11.dtd">
<!-- Generated by graphviz version 14.1.3 (20260303.0454)
 -->
<!-- Title: llvm::SCEVPredicate Pages: 1 -->
<svg width="459pt" height="138pt"
 viewBox="0.00 0.00 459.00 138.00" xmlns="http://www.w3.org/2000/svg" xmlns:xlink="http://www.w3.org/1999/xlink">
<g id="graph0" class="graph" transform="scale(1 1) rotate(0) translate(4 133.75)">
<title>llvm::SCEVPredicate</title>
<!-- Node1 -->
<g id="Node000001" class="node">
<title>Node1</title>
<g id="a_Node000001"><a xlink:title="This class represents an assumption made using SCEV expressions which can be checked at run&#45;time.">
<polygon fill="#999999" stroke="#666666" points="288.88,-74.5 179.88,-74.5 179.88,-55.25 288.88,-55.25 288.88,-74.5"/>
<text xml:space="preserve" text-anchor="middle" x="234.38" y="-61" font-family="Helvetica,sans-Serif" font-size="10.00">llvm::SCEVPredicate</text>
</a>
</g>
</g>
<!-- Node3 -->
<g id="Node000003" class="node">
<title>Node3</title>
<g id="a_Node000003"><a xlink:href="classllvm_1_1SCEVComparePredicate.html" target="_top" xlink:title="This class represents an assumption that the expression LHS Pred RHS evaluates to true,...">
<polygon fill="white" stroke="#666666" points="148.75,-19.25 0,-19.25 0,0 148.75,0 148.75,-19.25"/>
<text xml:space="preserve" text-anchor="middle" x="74.38" y="-5.75" font-family="Helvetica,sans-Serif" font-size="10.00">llvm::SCEVComparePredicate</text>
</a>
</g>
</g>
<!-- Node1&#45;&gt;Node3 -->
<g id="edge2_Node000001_Node000003" class="edge">
<title>Node1&#45;&gt;Node3</title>
<g id="a_edge2_Node000001_Node000003"><a xlink:title=" ">
<path fill="none" stroke="#63b8ff" d="M196.62,-51.31C167.45,-41.6 127.79,-28.4 101.65,-19.7"/>
<polygon fill="#63b8ff" stroke="#63b8ff" points="195.2,-54.53 205.8,-54.36 197.41,-47.89 195.2,-54.53"/>
</a>
</g>
</g>
<!-- Node4 -->
<g id="Node000004" class="node">
<title>Node4</title>
<g id="a_Node000004"><a xlink:href="classllvm_1_1SCEVUnionPredicate.html" target="_top" xlink:title="This class represents a composition of other SCEV predicates, and is the class that most clients will...">
<polygon fill="white" stroke="#666666" points="301.62,-19.25 167.12,-19.25 167.12,0 301.62,0 301.62,-19.25"/>
<text xml:space="preserve" text-anchor="middle" x="234.38" y="-5.75" font-family="Helvetica,sans-Serif" font-size="10.00">llvm::SCEVUnionPredicate</text>
</a>
</g>
</g>
<!-- Node1&#45;&gt;Node4 -->
<g id="edge3_Node000001_Node000004" class="edge">
<title>Node1&#45;&gt;Node4</title>
<g id="a_edge3_Node000001_Node000004"><a xlink:title=" ">
<path fill="none" stroke="#63b8ff" d="M234.38,-43.63C234.38,-35.34 234.38,-26.17 234.38,-19.61"/>
<polygon fill="#63b8ff" stroke="#63b8ff" points="230.88,-43.57 234.38,-53.57 237.88,-43.57 230.88,-43.57"/>
</a>
</g>
</g>
<!-- Node5 -->
<g id="Node000005" class="node">
<title>Node5</title>
<g id="a_Node000005"><a xlink:href="classllvm_1_1SCEVWrapPredicate.html" target="_top" xlink:title="This class represents an assumption made on an AddRec expression.">
<polygon fill="white" stroke="#666666" points="451.12,-19.25 319.62,-19.25 319.62,0 451.12,0 451.12,-19.25"/>
<text xml:space="preserve" text-anchor="middle" x="385.38" y="-5.75" font-family="Helvetica,sans-Serif" font-size="10.00">llvm::SCEVWrapPredicate</text>
</a>
</g>
</g>
<!-- Node1&#45;&gt;Node5 -->
<g id="edge4_Node000001_Node000005" class="edge">
<title>Node1&#45;&gt;Node5</title>
<g id="a_edge4_Node000001_Node000005"><a xlink:title=" ">
<path fill="none" stroke="#63b8ff" d="M270.74,-51.05C298.19,-41.37 335.19,-28.32 359.63,-19.7"/>
<polygon fill="#63b8ff" stroke="#63b8ff" points="269.68,-47.71 261.42,-54.34 272.01,-54.31 269.68,-47.71"/>
</a>
</g>
</g>
<!-- Node2 -->
<g id="Node000002" class="node">
<title>Node2</title>
<g id="a_Node000002"><a xlink:href="classllvm_1_1FoldingSetBase_1_1Node.html" target="_top" xlink:title="Node &#45; This class is used to maintain the singly linked bucket list in a folding set.">
<polygon fill="white" stroke="#666666" points="277.25,-129.75 191.5,-129.75 191.5,-110.5 277.25,-110.5 277.25,-129.75"/>
<text xml:space="preserve" text-anchor="middle" x="234.38" y="-116.25" font-family="Helvetica,sans-Serif" font-size="10.00">FoldingSetNode</text>
</a>
</g>
</g>
<!-- Node2&#45;&gt;Node1 -->
<g id="edge1_Node000001_Node000002" class="edge">
<title>Node2&#45;&gt;Node1</title>
<g id="a_edge1_Node000001_Node000002"><a xlink:title=" ">
<path fill="none" stroke="#63b8ff" d="M234.38,-98.88C234.38,-90.59 234.38,-81.42 234.38,-74.86"/>
<polygon fill="#63b8ff" stroke="#63b8ff" points="230.88,-98.82 234.38,-108.82 237.88,-98.82 230.88,-98.82"/>
</a>
</g>
</g>
</g>
</svg>
