<?xml version="1.0" encoding="UTF-8" standalone="no"?>
<!DOCTYPE svg PUBLIC "-//W3C//DTD SVG 1.1//EN"
 "http://www.w3.org/Graphics/SVG/1.1/DTD/svg11.dtd">
<!-- Generated by graphviz version 14.1.3 (20260303.0454)
 -->
<!-- Title: llvm::orc::DuplicateDefinition Pages: 1 -->
<svg width="227pt" height="235pt"
 viewBox="0.00 0.00 227.00 235.00" xmlns="http://www.w3.org/2000/svg" xmlns:xlink="http://www.w3.org/1999/xlink">
<g id="graph0" class="graph" transform="scale(1 1) rotate(0) translate(4 230.75)">
<title>llvm::orc::DuplicateDefinition</title>
<!-- Node1 -->
<g id="Node000001" class="node">
<title>Node1</title>
<g id="a_Node000001"><a xlink:title=" ">
<polygon fill="#999999" stroke="#666666" points="142,-19.25 0,-19.25 0,0 142,0 142,-19.25"/>
<text xml:space="preserve" text-anchor="middle" x="71" y="-5.75" font-family="Helvetica,sans-Serif" font-size="10.00">llvm::orc::DuplicateDefinition</text>
</a>
</g>
</g>
<!-- Node2 -->
<g id="Node000002" class="node">
<title>Node2</title>
<g id="a_Node000002"><a xlink:href="classllvm_1_1ErrorInfo.html" target="_top" xlink:title=" ">
<polygon fill="white" stroke="#666666" points="134.88,-86.75 7.12,-86.75 7.12,-56.25 134.88,-56.25 134.88,-86.75"/>
<text xml:space="preserve" text-anchor="start" x="15.12" y="-73.25" font-family="Helvetica,sans-Serif" font-size="10.00">llvm::ErrorInfo&lt; Duplicate</text>
<text xml:space="preserve" text-anchor="middle" x="71" y="-62" font-family="Helvetica,sans-Serif" font-size="10.00">Definition &gt;</text>
</a>
</g>
</g>
<!-- Node2&#45;&gt;Node1 -->
<g id="edge1_Node000001_Node000002" class="edge">
<title>Node2&#45;&gt;Node1</title>
<g id="a_edge1_Node000001_Node000002"><a xlink:title=" ">
<path fill="none" stroke="#63b8ff" d="M71,-44.77C71,-35.79 71,-26.29 71,-19.6"/>
<polygon fill="#63b8ff" stroke="#63b8ff" points="67.5,-44.49 71,-54.49 74.5,-44.49 67.5,-44.49"/>
</a>
</g>
</g>
<!-- Node3 -->
<g id="Node000003" class="node">
<title>Node3</title>
<g id="a_Node000003"><a xlink:href="classllvm_1_1ErrorInfoBase.html" target="_top" xlink:title="Base class for error info classes.">
<polygon fill="white" stroke="#666666" points="117,-226.75 17,-226.75 17,-207.5 117,-207.5 117,-226.75"/>
<text xml:space="preserve" text-anchor="middle" x="67" y="-213.25" font-family="Helvetica,sans-Serif" font-size="10.00">llvm::ErrorInfoBase</text>
</a>
</g>
</g>
<!-- Node3&#45;&gt;Node2 -->
<g id="edge2_Node000002_Node000003" class="edge">
<title>Node3&#45;&gt;Node2</title>
<g id="a_edge2_Node000002_Node000003"><a xlink:title=" ">
<path fill="none" stroke="#63b8ff" d="M67.57,-195.84C68.39,-166.37 69.89,-112.46 70.6,-86.8"/>
<polygon fill="#63b8ff" stroke="#63b8ff" points="64.07,-195.53 67.29,-205.63 71.07,-195.73 64.07,-195.53"/>
</a>
</g>
</g>
<!-- Node4 -->
<g id="Node000004" class="node">
<title>Node4</title>
<g id="a_Node000004"><a xlink:href="classllvm_1_1ErrorInfo.html" target="_top" xlink:title="Base class for user error types.">
<polygon fill="white" stroke="#666666" points="201,-170.5 83,-170.5 83,-140 201,-140 201,-170.5"/>
<text xml:space="preserve" text-anchor="start" x="91" y="-157" font-family="Helvetica,sans-Serif" font-size="10.00">llvm::ErrorInfo&lt; ThisErr</text>
<text xml:space="preserve" text-anchor="middle" x="142" y="-145.75" font-family="Helvetica,sans-Serif" font-size="10.00">T, ParentErrT &gt;</text>
</a>
</g>
</g>
<!-- Node3&#45;&gt;Node4 -->
<g id="edge4_Node000004_Node000003" class="edge">
<title>Node3&#45;&gt;Node4</title>
<g id="a_edge4_Node000004_Node000003"><a xlink:title=" ">
<path fill="none" stroke="#63b8ff" d="M87.19,-200C98.59,-190.9 112.72,-179.63 123.78,-170.8"/>
<polygon fill="#63b8ff" stroke="#63b8ff" points="85.21,-197.11 79.57,-206.09 89.57,-202.58 85.21,-197.11"/>
</a>
</g>
</g>
<!-- Node4&#45;&gt;Node2 -->
<g id="edge3_Node000002_Node000004" class="edge">
<title>Node4&#45;&gt;Node2</title>
<g id="a_edge3_Node000002_Node000004"><a xlink:title=" ">
<path fill="none" stroke="orange" stroke-dasharray="5,2" d="M122.09,-131.33C109.74,-117.11 94.25,-99.27 83.58,-86.99"/>
<polygon fill="orange" stroke="orange" points="119.11,-133.24 128.31,-138.49 124.4,-128.65 119.11,-133.24"/>
</a>
</g>
<text xml:space="preserve" text-anchor="start" x="115.86" y="-110.75" font-family="Helvetica,sans-Serif" font-size="10.00" fill="grey">&lt; DuplicateDefinition &gt;</text>
</g>
</g>
</svg>
