<?xml version="1.0" encoding="UTF-8" standalone="no"?>
<!DOCTYPE svg PUBLIC "-//W3C//DTD SVG 1.1//EN"
 "http://www.w3.org/Graphics/SVG/1.1/DTD/svg11.dtd">
<!-- Generated by graphviz version 14.1.3 (20260303.0454)
 -->
<!-- Title: llvm::SpillPlacementAnalysis Pages: 1 -->
<svg width="318pt" height="262pt"
 viewBox="0.00 0.00 318.00 262.00" xmlns="http://www.w3.org/2000/svg" xmlns:xlink="http://www.w3.org/1999/xlink">
<g id="graph0" class="graph" transform="scale(1 1) rotate(0) translate(4 258.25)">
<title>llvm::SpillPlacementAnalysis</title>
<!-- Node1 -->
<g id="Node000001" class="node">
<title>Node1</title>
<g id="a_Node000001"><a xlink:title=" ">
<polygon fill="#999999" stroke="#666666" points="211.75,-19.25 69,-19.25 69,0 211.75,0 211.75,-19.25"/>
<text xml:space="preserve" text-anchor="middle" x="140.38" y="-5.75" font-family="Helvetica,sans-Serif" font-size="10.00">llvm::SpillPlacementAnalysis</text>
</a>
</g>
</g>
<!-- Node2 -->
<g id="Node000002" class="node">
<title>Node2</title>
<g id="a_Node000002"><a xlink:href="structllvm_1_1AnalysisInfoMixin.html" target="_top" xlink:title=" ">
<polygon fill="white" stroke="#666666" points="208.75,-86.75 72,-86.75 72,-56.25 208.75,-56.25 208.75,-86.75"/>
<text xml:space="preserve" text-anchor="start" x="80" y="-73.25" font-family="Helvetica,sans-Serif" font-size="10.00">llvm::AnalysisInfoMixin</text>
<text xml:space="preserve" text-anchor="middle" x="140.38" y="-62" font-family="Helvetica,sans-Serif" font-size="10.00">&lt; SpillPlacementAnalysis &gt;</text>
</a>
</g>
</g>
<!-- Node2&#45;&gt;Node1 -->
<g id="edge1_Node000001_Node000002" class="edge">
<title>Node2&#45;&gt;Node1</title>
<g id="a_edge1_Node000001_Node000002"><a xlink:title=" ">
<path fill="none" stroke="#63b8ff" d="M140.38,-44.77C140.38,-35.79 140.38,-26.29 140.38,-19.6"/>
<polygon fill="#63b8ff" stroke="#63b8ff" points="136.88,-44.49 140.38,-54.49 143.88,-44.49 136.88,-44.49"/>
</a>
</g>
</g>
<!-- Node3 -->
<g id="Node000003" class="node">
<title>Node3</title>
<g id="a_Node000003"><a xlink:href="structllvm_1_1PassInfoMixin.html" target="_top" xlink:title=" ">
<polygon fill="white" stroke="#666666" points="136.75,-170.5 0,-170.5 0,-140 136.75,-140 136.75,-170.5"/>
<text xml:space="preserve" text-anchor="start" x="8" y="-157" font-family="Helvetica,sans-Serif" font-size="10.00">llvm::PassInfoMixin</text>
<text xml:space="preserve" text-anchor="middle" x="68.38" y="-145.75" font-family="Helvetica,sans-Serif" font-size="10.00">&lt; SpillPlacementAnalysis &gt;</text>
</a>
</g>
</g>
<!-- Node3&#45;&gt;Node2 -->
<g id="edge2_Node000002_Node000003" class="edge">
<title>Node3&#45;&gt;Node2</title>
<g id="a_edge2_Node000002_Node000003"><a xlink:title=" ">
<path fill="none" stroke="#63b8ff" d="M88.56,-131.33C101.08,-117.11 116.79,-99.27 127.61,-86.99"/>
<polygon fill="#63b8ff" stroke="#63b8ff" points="86.23,-128.68 82.25,-138.5 91.48,-133.31 86.23,-128.68"/>
</a>
</g>
</g>
<!-- Node4 -->
<g id="Node000004" class="node">
<title>Node4</title>
<g id="a_Node000004"><a xlink:href="structllvm_1_1PassInfoMixin.html" target="_top" xlink:title="A CRTP mix&#45;in to automatically provide informational APIs needed for passes.">
<polygon fill="white" stroke="#666666" points="119.5,-254.25 17.25,-254.25 17.25,-223.75 119.5,-223.75 119.5,-254.25"/>
<text xml:space="preserve" text-anchor="start" x="25.25" y="-240.75" font-family="Helvetica,sans-Serif" font-size="10.00">llvm::PassInfoMixin</text>
<text xml:space="preserve" text-anchor="middle" x="68.38" y="-229.5" font-family="Helvetica,sans-Serif" font-size="10.00">&lt; DerivedT &gt;</text>
</a>
</g>
</g>
<!-- Node4&#45;&gt;Node3 -->
<g id="edge3_Node000003_Node000004" class="edge">
<title>Node4&#45;&gt;Node3</title>
<g id="a_edge3_Node000003_Node000004"><a xlink:title=" ">
<path fill="none" stroke="orange" stroke-dasharray="5,2" d="M68.38,-212.22C68.38,-198.53 68.38,-182.21 68.38,-170.74"/>
<polygon fill="orange" stroke="orange" points="64.88,-211.87 68.38,-221.87 71.88,-211.87 64.88,-211.87"/>
</a>
</g>
<text xml:space="preserve" text-anchor="start" x="71.38" y="-194.5" font-family="Helvetica,sans-Serif" font-size="10.00" fill="grey">&lt; SpillPlacementAnalysis &gt;</text>
</g>
<!-- Node5 -->
<g id="Node000005" class="node">
<title>Node5</title>
<g id="a_Node000005"><a xlink:href="structllvm_1_1AnalysisInfoMixin.html" target="_top" xlink:title="A CRTP mix&#45;in that provides informational APIs needed for analysis passes.">
<polygon fill="white" stroke="#666666" points="272,-170.5 154.75,-170.5 154.75,-140 272,-140 272,-170.5"/>
<text xml:space="preserve" text-anchor="start" x="162.75" y="-157" font-family="Helvetica,sans-Serif" font-size="10.00">llvm::AnalysisInfoMixin</text>
<text xml:space="preserve" text-anchor="middle" x="213.38" y="-145.75" font-family="Helvetica,sans-Serif" font-size="10.00">&lt; DerivedT &gt;</text>
</a>
</g>
</g>
<!-- Node5&#45;&gt;Node2 -->
<g id="edge4_Node000002_Node000005" class="edge">
<title>Node5&#45;&gt;Node2</title>
<g id="a_edge4_Node000002_Node000005"><a xlink:title=" ">
<path fill="none" stroke="orange" stroke-dasharray="5,2" d="M192.91,-131.33C180.21,-117.11 164.28,-99.27 153.31,-86.99"/>
<polygon fill="orange" stroke="orange" points="190.04,-133.38 199.32,-138.51 195.27,-128.72 190.04,-133.38"/>
</a>
</g>
<text xml:space="preserve" text-anchor="start" x="186.41" y="-110.75" font-family="Helvetica,sans-Serif" font-size="10.00" fill="grey">&lt; SpillPlacementAnalysis &gt;</text>
</g>
<!-- Node6 -->
<g id="Node000006" class="node">
<title>Node6</title>
<g id="a_Node000006"><a xlink:href="structllvm_1_1PassInfoMixin.html" target="_top" xlink:title="A CRTP mix&#45;in to automatically provide informational APIs needed for passes.">
<polygon fill="white" stroke="#666666" points="264.5,-254.25 162.25,-254.25 162.25,-223.75 264.5,-223.75 264.5,-254.25"/>
<text xml:space="preserve" text-anchor="start" x="170.25" y="-240.75" font-family="Helvetica,sans-Serif" font-size="10.00">llvm::PassInfoMixin</text>
<text xml:space="preserve" text-anchor="middle" x="213.38" y="-229.5" font-family="Helvetica,sans-Serif" font-size="10.00">&lt; DerivedT &gt;</text>
</a>
</g>
</g>
<!-- Node6&#45;&gt;Node5 -->
<g id="edge5_Node000005_Node000006" class="edge">
<title>Node6&#45;&gt;Node5</title>
<g id="a_edge5_Node000005_Node000006"><a xlink:title=" ">
<path fill="none" stroke="#63b8ff" d="M213.38,-212.22C213.38,-198.53 213.38,-182.21 213.38,-170.74"/>
<polygon fill="#63b8ff" stroke="#63b8ff" points="209.88,-211.87 213.38,-221.87 216.88,-211.87 209.88,-211.87"/>
</a>
</g>
</g>
</g>
</svg>
