<?xml version="1.0" encoding="UTF-8" standalone="no"?>
<!DOCTYPE svg PUBLIC "-//W3C//DTD SVG 1.1//EN"
 "http://www.w3.org/Graphics/SVG/1.1/DTD/svg11.dtd">
<!-- Generated by graphviz version 14.1.3 (20260303.0454)
 -->
<!-- Title: llvm::User Pages: 1 -->
<svg width="493pt" height="1697pt"
 viewBox="0.00 0.00 493.00 1697.00" xmlns="http://www.w3.org/2000/svg" xmlns:xlink="http://www.w3.org/1999/xlink">
<g id="graph0" class="graph" transform="scale(1 1) rotate(0) translate(4 1693.25)">
<title>llvm::User</title>
<!-- Node1 -->
<g id="Node000001" class="node">
<title>Node1</title>
<g id="a_Node000001"><a xlink:title=" ">
<polygon fill="#999999" stroke="#666666" points="161,-1152.25 100,-1152.25 100,-1133 161,-1133 161,-1152.25"/>
<text xml:space="preserve" text-anchor="middle" x="130.5" y="-1138.75" font-family="Helvetica,sans-Serif" font-size="10.00">llvm::User</text>
</a>
</g>
</g>
<!-- Node3 -->
<g id="Node000003" class="node">
<title>Node3</title>
<g id="a_Node000003"><a xlink:href="classllvm_1_1Constant.html" target="_top" xlink:title="This is an important base class in LLVM.">
<polygon fill="white" stroke="#666666" points="284.25,-1541.25 204.5,-1541.25 204.5,-1522 284.25,-1522 284.25,-1541.25"/>
<text xml:space="preserve" text-anchor="middle" x="244.38" y="-1527.75" font-family="Helvetica,sans-Serif" font-size="10.00">llvm::Constant</text>
</a>
</g>
</g>
<!-- Node1&#45;&gt;Node3 -->
<g id="edge2_Node000001_Node000003" class="edge">
<title>Node1&#45;&gt;Node3</title>
<g id="a_edge2_Node000001_Node000003"><a xlink:title=" ">
<path fill="none" stroke="#63b8ff" d="M137.46,-1163.35C158.05,-1234.95 225.75,-1470.36 240.52,-1521.68"/>
<polygon fill="#63b8ff" stroke="#63b8ff" points="140.92,-1162.73 134.8,-1154.09 134.2,-1164.66 140.92,-1162.73"/>
</a>
</g>
</g>
<!-- Node37 -->
<g id="Node000037" class="node">
<title>Node37</title>
<g id="a_Node000037"><a xlink:href="classllvm_1_1DerivedUser.html" target="_top" xlink:title="Extension point for the Value hierarchy.">
<polygon fill="white" stroke="#666666" points="291.75,-1273.25 197,-1273.25 197,-1254 291.75,-1254 291.75,-1273.25"/>
<text xml:space="preserve" text-anchor="middle" x="244.38" y="-1259.75" font-family="Helvetica,sans-Serif" font-size="10.00">llvm::DerivedUser</text>
</a>
</g>
</g>
<!-- Node1&#45;&gt;Node37 -->
<g id="edge11_Node000001_Node000037" class="edge">
<title>Node1&#45;&gt;Node37</title>
<g id="a_edge11_Node000001_Node000037"><a xlink:title=" ">
<path fill="none" stroke="#63b8ff" d="M148.24,-1160.73C172.13,-1186.57 215.22,-1233.17 234.09,-1253.59"/>
<polygon fill="#63b8ff" stroke="#63b8ff" points="151.04,-1158.6 141.68,-1153.64 145.9,-1163.36 151.04,-1158.6"/>
</a>
</g>
</g>
<!-- Node43 -->
<g id="Node000043" class="node">
<title>Node43</title>
<g id="a_Node000043"><a xlink:href="classllvm_1_1Instruction.html" target="_top" xlink:title=" ">
<polygon fill="white" stroke="#666666" points="287.25,-912.25 201.5,-912.25 201.5,-893 287.25,-893 287.25,-912.25"/>
<text xml:space="preserve" text-anchor="middle" x="244.38" y="-898.75" font-family="Helvetica,sans-Serif" font-size="10.00">llvm::Instruction</text>
</a>
</g>
</g>
<!-- Node1&#45;&gt;Node43 -->
<g id="edge13_Node000001_Node000043" class="edge">
<title>Node1&#45;&gt;Node43</title>
<g id="a_edge13_Node000001_Node000043"><a xlink:title=" ">
<path fill="none" stroke="#63b8ff" d="M140.97,-1122.31C163.91,-1073.1 221.81,-948.88 238.69,-912.67"/>
<polygon fill="#63b8ff" stroke="#63b8ff" points="137.86,-1120.7 136.8,-1131.25 144.2,-1123.66 137.86,-1120.7"/>
</a>
</g>
</g>
<!-- Node192 -->
<g id="Node000192" class="node">
<title>Node192</title>
<g id="a_Node000192"><a xlink:href="classllvm_1_1Operator.html" target="_top" xlink:title="This is a utility class that provides an abstraction for the common functionality between Instruction...">
<polygon fill="white" stroke="#666666" points="283.12,-202.25 205.62,-202.25 205.62,-183 283.12,-183 283.12,-202.25"/>
<text xml:space="preserve" text-anchor="middle" x="244.38" y="-188.75" font-family="Helvetica,sans-Serif" font-size="10.00">llvm::Operator</text>
</a>
</g>
</g>
<!-- Node1&#45;&gt;Node192 -->
<g id="edge40_Node000001_Node000192" class="edge">
<title>Node1&#45;&gt;Node192</title>
<g id="a_edge40_Node000001_Node000192"><a xlink:title=" ">
<path fill="none" stroke="#63b8ff" d="M133.99,-1121.45C149.4,-990.59 231.37,-294.58 242.19,-202.65"/>
<polygon fill="#63b8ff" stroke="#63b8ff" points="130.55,-1120.75 132.86,-1131.1 137.5,-1121.57 130.55,-1120.75"/>
</a>
</g>
</g>
<!-- Node2 -->
<g id="Node000002" class="node">
<title>Node2</title>
<g id="a_Node000002"><a xlink:href="classllvm_1_1Value.html" target="_top" xlink:title="LLVM Value Representation.">
<polygon fill="white" stroke="#666666" points="64,-1152.25 0,-1152.25 0,-1133 64,-1133 64,-1152.25"/>
<text xml:space="preserve" text-anchor="middle" x="32" y="-1138.75" font-family="Helvetica,sans-Serif" font-size="10.00">llvm::Value</text>
</a>
</g>
</g>
<!-- Node2&#45;&gt;Node1 -->
<g id="edge1_Node000001_Node000002" class="edge">
<title>Node2&#45;&gt;Node1</title>
<g id="a_edge1_Node000001_Node000002"><a xlink:title=" ">
<path fill="none" stroke="#63b8ff" d="M75.57,-1142.62C83.68,-1142.62 92.02,-1142.62 99.64,-1142.62"/>
<polygon fill="#63b8ff" stroke="#63b8ff" points="75.84,-1139.13 65.84,-1142.63 75.84,-1146.13 75.84,-1139.13"/>
</a>
</g>
</g>
<!-- Node4 -->
<g id="Node000004" class="node">
<title>Node4</title>
<g id="a_Node000004"><a xlink:href="classllvm_1_1BlockAddress.html" target="_top" xlink:title="The address of a basic block.">
<polygon fill="white" stroke="#666666" points="456.62,-1689.25 355.88,-1689.25 355.88,-1670 456.62,-1670 456.62,-1689.25"/>
<text xml:space="preserve" text-anchor="middle" x="406.25" y="-1675.75" font-family="Helvetica,sans-Serif" font-size="10.00">llvm::BlockAddress</text>
</a>
</g>
</g>
<!-- Node3&#45;&gt;Node4 -->
<g id="edge3_Node000003_Node000004" class="edge">
<title>Node3&#45;&gt;Node4</title>
<g id="a_edge3_Node000003_Node000004"><a xlink:title=" ">
<path fill="none" stroke="#63b8ff" d="M252.61,-1552.18C263.93,-1581.24 288.68,-1633.9 327.75,-1661.62 335.97,-1667.46 345.81,-1671.43 355.67,-1674.13"/>
<polygon fill="#63b8ff" stroke="#63b8ff" points="255.98,-1551.21 249.22,-1543.05 249.42,-1553.64 255.98,-1551.21"/>
</a>
</g>
</g>
<!-- Node5 -->
<g id="Node000005" class="node">
<title>Node5</title>
<g id="a_Node000005"><a xlink:href="classllvm_1_1ConstantAggregate.html" target="_top" xlink:title="Base class for aggregate constants (with operands).">
<polygon fill="#fff0f0" stroke="red" points="468.25,-1652.25 344.25,-1652.25 344.25,-1633 468.25,-1633 468.25,-1652.25"/>
<text xml:space="preserve" text-anchor="middle" x="406.25" y="-1638.75" font-family="Helvetica,sans-Serif" font-size="10.00">llvm::ConstantAggregate</text>
</a>
</g>
</g>
<!-- Node3&#45;&gt;Node5 -->
<g id="edge4_Node000003_Node000005" class="edge">
<title>Node3&#45;&gt;Node5</title>
<g id="a_edge4_Node000003_Node000005"><a xlink:title=" ">
<path fill="none" stroke="#63b8ff" d="M257.36,-1551.25C271.5,-1572.66 296.99,-1606.31 327.75,-1624.62 333.09,-1627.81 338.95,-1630.42 344.98,-1632.58"/>
<polygon fill="#63b8ff" stroke="#63b8ff" points="260.34,-1549.41 252.02,-1542.86 254.44,-1553.17 260.34,-1549.41"/>
</a>
</g>
</g>
<!-- Node9 -->
<g id="Node000009" class="node">
<title>Node9</title>
<g id="a_Node000009"><a xlink:href="classllvm_1_1ConstantData.html" target="_top" xlink:title="Base class for constants with no operands.">
<polygon fill="#fff0f0" stroke="red" points="456.62,-1615.25 355.88,-1615.25 355.88,-1596 456.62,-1596 456.62,-1615.25"/>
<text xml:space="preserve" text-anchor="middle" x="406.25" y="-1601.75" font-family="Helvetica,sans-Serif" font-size="10.00">llvm::ConstantData</text>
</a>
</g>
</g>
<!-- Node3&#45;&gt;Node9 -->
<g id="edge5_Node000003_Node000009" class="edge">
<title>Node3&#45;&gt;Node9</title>
<g id="a_edge5_Node000003_Node000009"><a xlink:title=" ">
<path fill="none" stroke="#63b8ff" d="M266.03,-1548.86C281.96,-1561.34 305.05,-1577.69 327.75,-1587.62 336.48,-1591.45 346.14,-1594.52 355.58,-1596.96"/>
<polygon fill="#63b8ff" stroke="#63b8ff" points="268.26,-1546.17 258.27,-1542.63 263.88,-1551.62 268.26,-1546.17"/>
</a>
</g>
</g>
<!-- Node21 -->
<g id="Node000021" class="node">
<title>Node21</title>
<g id="a_Node000021"><a xlink:href="classllvm_1_1ConstantExpr.html" target="_top" xlink:title="A constant value that is initialized with an expression using other constant values.">
<polygon fill="#fff0f0" stroke="red" points="456.25,-1578.25 356.25,-1578.25 356.25,-1559 456.25,-1559 456.25,-1578.25"/>
<text xml:space="preserve" text-anchor="middle" x="406.25" y="-1564.75" font-family="Helvetica,sans-Serif" font-size="10.00">llvm::ConstantExpr</text>
</a>
</g>
</g>
<!-- Node3&#45;&gt;Node21 -->
<g id="edge6_Node000003_Node000021" class="edge">
<title>Node3&#45;&gt;Node21</title>
<g id="a_edge6_Node000003_Node000021"><a xlink:title=" ">
<path fill="none" stroke="#63b8ff" d="M295.58,-1543.24C316.81,-1548.16 341.31,-1553.83 361.76,-1558.56"/>
<polygon fill="#63b8ff" stroke="#63b8ff" points="296.49,-1539.86 285.96,-1541.02 294.91,-1546.68 296.49,-1539.86"/>
</a>
</g>
</g>
<!-- Node28 -->
<g id="Node000028" class="node">
<title>Node28</title>
<g id="a_Node000028"><a xlink:href="classllvm_1_1ConstantPtrAuth.html" target="_top" xlink:title="A signed pointer, in the ptrauth sense.">
<polygon fill="white" stroke="#666666" points="462.62,-1541.25 349.88,-1541.25 349.88,-1522 462.62,-1522 462.62,-1541.25"/>
<text xml:space="preserve" text-anchor="middle" x="406.25" y="-1527.75" font-family="Helvetica,sans-Serif" font-size="10.00">llvm::ConstantPtrAuth</text>
</a>
</g>
</g>
<!-- Node3&#45;&gt;Node28 -->
<g id="edge7_Node000003_Node000028" class="edge">
<title>Node3&#45;&gt;Node28</title>
<g id="a_edge7_Node000003_Node000028"><a xlink:title=" ">
<path fill="none" stroke="#63b8ff" d="M295.93,-1531.62C313.02,-1531.62 332.18,-1531.62 349.64,-1531.62"/>
<polygon fill="#63b8ff" stroke="#63b8ff" points="296,-1528.13 286,-1531.63 296,-1535.13 296,-1528.13"/>
</a>
</g>
</g>
<!-- Node29 -->
<g id="Node000029" class="node">
<title>Node29</title>
<g id="a_Node000029"><a xlink:href="classllvm_1_1DSOLocalEquivalent.html" target="_top" xlink:title="Wrapper for a function that represents a value that functionally represents the original function.">
<polygon fill="white" stroke="#666666" points="471.62,-1504.25 340.88,-1504.25 340.88,-1485 471.62,-1485 471.62,-1504.25"/>
<text xml:space="preserve" text-anchor="middle" x="406.25" y="-1490.75" font-family="Helvetica,sans-Serif" font-size="10.00">llvm::DSOLocalEquivalent</text>
</a>
</g>
</g>
<!-- Node3&#45;&gt;Node29 -->
<g id="edge8_Node000003_Node000029" class="edge">
<title>Node3&#45;&gt;Node29</title>
<g id="a_edge8_Node000003_Node000029"><a xlink:title=" ">
<path fill="none" stroke="#63b8ff" d="M295.58,-1520.01C316.81,-1515.09 341.31,-1509.42 361.76,-1504.69"/>
<polygon fill="#63b8ff" stroke="#63b8ff" points="294.91,-1516.57 285.96,-1522.23 296.49,-1523.39 294.91,-1516.57"/>
</a>
</g>
</g>
<!-- Node30 -->
<g id="Node000030" class="node">
<title>Node30</title>
<g id="a_Node000030"><a xlink:href="classllvm_1_1GlobalValue.html" target="_top" xlink:title=" ">
<polygon fill="#fff0f0" stroke="red" points="452.12,-1467.25 360.38,-1467.25 360.38,-1448 452.12,-1448 452.12,-1467.25"/>
<text xml:space="preserve" text-anchor="middle" x="406.25" y="-1453.75" font-family="Helvetica,sans-Serif" font-size="10.00">llvm::GlobalValue</text>
</a>
</g>
</g>
<!-- Node3&#45;&gt;Node30 -->
<g id="edge9_Node000003_Node000030" class="edge">
<title>Node3&#45;&gt;Node30</title>
<g id="a_edge9_Node000003_Node000030"><a xlink:title=" ">
<path fill="none" stroke="#63b8ff" d="M266.03,-1514.39C281.96,-1501.91 305.05,-1485.56 327.75,-1475.62 337.87,-1471.19 349.24,-1467.77 360.08,-1465.17"/>
<polygon fill="#63b8ff" stroke="#63b8ff" points="263.88,-1511.63 258.27,-1520.62 268.26,-1517.08 263.88,-1511.63"/>
</a>
</g>
</g>
<!-- Node36 -->
<g id="Node000036" class="node">
<title>Node36</title>
<g id="a_Node000036"><a xlink:href="classllvm_1_1NoCFIValue.html" target="_top" xlink:title="Wrapper for a value that won&#39;t be replaced with a CFI jump table pointer in LowerTypeTestsModule.">
<polygon fill="white" stroke="#666666" points="452.88,-1430.25 359.62,-1430.25 359.62,-1411 452.88,-1411 452.88,-1430.25"/>
<text xml:space="preserve" text-anchor="middle" x="406.25" y="-1416.75" font-family="Helvetica,sans-Serif" font-size="10.00">llvm::NoCFIValue</text>
</a>
</g>
</g>
<!-- Node3&#45;&gt;Node36 -->
<g id="edge10_Node000003_Node000036" class="edge">
<title>Node3&#45;&gt;Node36</title>
<g id="a_edge10_Node000003_Node000036"><a xlink:title=" ">
<path fill="none" stroke="#63b8ff" d="M257.36,-1512C271.5,-1490.59 296.99,-1456.94 327.75,-1438.62 337.24,-1432.97 348.37,-1429.09 359.19,-1426.43"/>
<polygon fill="#63b8ff" stroke="#63b8ff" points="254.44,-1510.08 252.02,-1520.39 260.34,-1513.84 254.44,-1510.08"/>
</a>
</g>
</g>
<!-- Node38 -->
<g id="Node000038" class="node">
<title>Node38</title>
<g id="a_Node000038"><a xlink:href="classllvm_1_1MemoryAccess.html" target="_top" xlink:title=" ">
<polygon fill="#fff0f0" stroke="red" points="460.38,-1393.25 352.12,-1393.25 352.12,-1374 460.38,-1374 460.38,-1393.25"/>
<text xml:space="preserve" text-anchor="middle" x="406.25" y="-1379.75" font-family="Helvetica,sans-Serif" font-size="10.00">llvm::MemoryAccess</text>
</a>
</g>
</g>
<!-- Node37&#45;&gt;Node38 -->
<g id="edge12_Node000037_Node000038" class="edge">
<title>Node37&#45;&gt;Node38</title>
<g id="a_edge12_Node000037_Node000038"><a xlink:title=" ">
<path fill="none" stroke="#63b8ff" d="M255.9,-1283.44C269.37,-1306.81 294.95,-1345.07 327.75,-1365.62 335.01,-1370.17 343.29,-1373.57 351.69,-1376.12"/>
<polygon fill="#63b8ff" stroke="#63b8ff" points="259.08,-1281.95 251.16,-1274.91 252.96,-1285.35 259.08,-1281.95"/>
</a>
</g>
</g>
<!-- Node44 -->
<g id="Node000044" class="node">
<title>Node44</title>
<g id="a_Node000044"><a xlink:href="classllvm_1_1AtomicCmpXchgInst.html" target="_top" xlink:title="An instruction that atomically checks whether a specified value is in a memory location,...">
<polygon fill="white" stroke="#666666" points="471.62,-1356.25 340.88,-1356.25 340.88,-1337 471.62,-1337 471.62,-1356.25"/>
<text xml:space="preserve" text-anchor="middle" x="406.25" y="-1342.75" font-family="Helvetica,sans-Serif" font-size="10.00">llvm::AtomicCmpXchgInst</text>
</a>
</g>
</g>
<!-- Node43&#45;&gt;Node44 -->
<g id="edge14_Node000043_Node000044" class="edge">
<title>Node43&#45;&gt;Node44</title>
<g id="a_edge14_Node000043_Node000044"><a xlink:title=" ">
<path fill="none" stroke="#63b8ff" d="M248.14,-924.05C258.92,-1006.3 299.04,-1298.82 327.75,-1328.62 331.49,-1332.5 335.89,-1335.62 340.65,-1338.11"/>
<polygon fill="#63b8ff" stroke="#63b8ff" points="251.62,-923.69 246.86,-914.22 244.68,-924.59 251.62,-923.69"/>
</a>
</g>
</g>
<!-- Node45 -->
<g id="Node000045" class="node">
<title>Node45</title>
<g id="a_Node000045"><a xlink:href="classllvm_1_1AtomicRMWInst.html" target="_top" xlink:title="an instruction that atomically reads a memory location, combines it with another value,...">
<polygon fill="white" stroke="#666666" points="462.62,-1319.25 349.88,-1319.25 349.88,-1300 462.62,-1300 462.62,-1319.25"/>
<text xml:space="preserve" text-anchor="middle" x="406.25" y="-1305.75" font-family="Helvetica,sans-Serif" font-size="10.00">llvm::AtomicRMWInst</text>
</a>
</g>
</g>
<!-- Node43&#45;&gt;Node45 -->
<g id="edge15_Node000043_Node000045" class="edge">
<title>Node43&#45;&gt;Node45</title>
<g id="a_edge15_Node000043_Node000045"><a xlink:title=" ">
<path fill="none" stroke="#63b8ff" d="M246.92,-923.74C252.69,-996.94 275.43,-1238.27 327.75,-1291.62 333.75,-1297.74 341.38,-1301.95 349.52,-1304.82"/>
<polygon fill="#63b8ff" stroke="#63b8ff" points="250.42,-923.66 246.17,-913.96 243.44,-924.19 250.42,-923.66"/>
</a>
</g>
</g>
<!-- Node46 -->
<g id="Node000046" class="node">
<title>Node46</title>
<g id="a_Node000046"><a xlink:href="classllvm_1_1BinaryOperator.html" target="_top" xlink:title=" ">
<polygon fill="#fff0f0" stroke="red" points="458.88,-1282.25 353.62,-1282.25 353.62,-1263 458.88,-1263 458.88,-1282.25"/>
<text xml:space="preserve" text-anchor="middle" x="406.25" y="-1268.75" font-family="Helvetica,sans-Serif" font-size="10.00">llvm::BinaryOperator</text>
</a>
</g>
</g>
<!-- Node43&#45;&gt;Node46 -->
<g id="edge16_Node000043_Node000046" class="edge">
<title>Node43&#45;&gt;Node46</title>
<g id="a_edge16_Node000043_Node000046"><a xlink:title=" ">
<path fill="none" stroke="#63b8ff" d="M247.44,-923.92C254.55,-992.69 280.18,-1207.14 327.75,-1254.62 334.69,-1261.55 343.74,-1266.02 353.2,-1268.87"/>
<polygon fill="#63b8ff" stroke="#63b8ff" points="250.93,-923.63 246.45,-914.03 243.97,-924.33 250.93,-923.63"/>
</a>
</g>
</g>
<!-- Node48 -->
<g id="Node000048" class="node">
<title>Node48</title>
<g id="a_Node000048"><a xlink:href="classllvm_1_1BranchInst.html" target="_top" xlink:title="Conditional or Unconditional Branch instruction.">
<polygon fill="white" stroke="#666666" points="449.88,-1245.25 362.62,-1245.25 362.62,-1226 449.88,-1226 449.88,-1245.25"/>
<text xml:space="preserve" text-anchor="middle" x="406.25" y="-1231.75" font-family="Helvetica,sans-Serif" font-size="10.00">llvm::BranchInst</text>
</a>
</g>
</g>
<!-- Node43&#45;&gt;Node48 -->
<g id="edge17_Node000043_Node000048" class="edge">
<title>Node43&#45;&gt;Node48</title>
<g id="a_edge17_Node000043_Node000048"><a xlink:title=" ">
<path fill="none" stroke="#63b8ff" d="M248.04,-923.73C256.52,-987.41 284.82,-1175.86 327.75,-1217.62 336.96,-1226.58 349.7,-1231.41 362.2,-1233.92"/>
<polygon fill="#63b8ff" stroke="#63b8ff" points="251.53,-923.4 246.77,-913.93 244.59,-924.3 251.53,-923.4"/>
</a>
</g>
</g>
<!-- Node49 -->
<g id="Node000049" class="node">
<title>Node49</title>
<g id="a_Node000049"><a xlink:href="classllvm_1_1CallBase.html" target="_top" xlink:title="Base class for all callable instructions (InvokeInst and CallInst) Holds everything related to callin...">
<polygon fill="#fff0f0" stroke="red" points="446.12,-1208.25 366.38,-1208.25 366.38,-1189 446.12,-1189 446.12,-1208.25"/>
<text xml:space="preserve" text-anchor="middle" x="406.25" y="-1194.75" font-family="Helvetica,sans-Serif" font-size="10.00">llvm::CallBase</text>
</a>
</g>
</g>
<!-- Node43&#45;&gt;Node49 -->
<g id="edge18_Node000043_Node000049" class="edge">
<title>Node43&#45;&gt;Node49</title>
<g id="a_edge18_Node000043_Node000049"><a xlink:title=" ">
<path fill="none" stroke="#63b8ff" d="M244.94,-923.86C245.09,-975.84 253.09,-1110.31 327.75,-1180.62 338.01,-1190.29 352.39,-1195.1 365.99,-1197.41"/>
<polygon fill="#63b8ff" stroke="#63b8ff" points="248.44,-924.06 245.02,-914.03 241.44,-924 248.44,-924.06"/>
</a>
</g>
</g>
<!-- Node145 -->
<g id="Node000145" class="node">
<title>Node145</title>
<g id="a_Node000145"><a xlink:href="classllvm_1_1CatchReturnInst.html" target="_top" xlink:title=" ">
<polygon fill="white" stroke="#666666" points="462.25,-1171.25 350.25,-1171.25 350.25,-1152 462.25,-1152 462.25,-1171.25"/>
<text xml:space="preserve" text-anchor="middle" x="406.25" y="-1157.75" font-family="Helvetica,sans-Serif" font-size="10.00">llvm::CatchReturnInst</text>
</a>
</g>
</g>
<!-- Node43&#45;&gt;Node145 -->
<g id="edge19_Node000043_Node000145" class="edge">
<title>Node43&#45;&gt;Node145</title>
<g id="a_edge19_Node000043_Node000145"><a xlink:title=" ">
<path fill="none" stroke="#63b8ff" d="M246.09,-924.18C248.87,-971.42 262.38,-1084.55 327.75,-1143.62 334.1,-1149.37 341.93,-1153.38 350.13,-1156.17"/>
<polygon fill="#63b8ff" stroke="#63b8ff" points="249.58,-924.05 245.62,-914.22 242.59,-924.37 249.58,-924.05"/>
</a>
</g>
</g>
<!-- Node146 -->
<g id="Node000146" class="node">
<title>Node146</title>
<g id="a_Node000146"><a xlink:href="classllvm_1_1CatchSwitchInst.html" target="_top" xlink:title=" ">
<polygon fill="white" stroke="#666666" points="462.62,-1134.25 349.88,-1134.25 349.88,-1115 462.62,-1115 462.62,-1134.25"/>
<text xml:space="preserve" text-anchor="middle" x="406.25" y="-1120.75" font-family="Helvetica,sans-Serif" font-size="10.00">llvm::CatchSwitchInst</text>
</a>
</g>
</g>
<!-- Node43&#45;&gt;Node146 -->
<g id="edge20_Node000043_Node000146" class="edge">
<title>Node43&#45;&gt;Node146</title>
<g id="a_edge20_Node000043_Node000146"><a xlink:title=" ">
<path fill="none" stroke="#63b8ff" d="M247.55,-923.71C253.01,-965.34 271.2,-1058.25 327.75,-1106.62 334.05,-1112.01 341.65,-1115.86 349.6,-1118.6"/>
<polygon fill="#63b8ff" stroke="#63b8ff" points="251.06,-923.56 246.41,-914.04 244.11,-924.38 251.06,-923.56"/>
</a>
</g>
</g>
<!-- Node147 -->
<g id="Node000147" class="node">
<title>Node147</title>
<g id="a_Node000147"><a xlink:href="classllvm_1_1CleanupReturnInst.html" target="_top" xlink:title=" ">
<polygon fill="white" stroke="#666666" points="467.12,-1097.25 345.38,-1097.25 345.38,-1078 467.12,-1078 467.12,-1097.25"/>
<text xml:space="preserve" text-anchor="middle" x="406.25" y="-1083.75" font-family="Helvetica,sans-Serif" font-size="10.00">llvm::CleanupReturnInst</text>
</a>
</g>
</g>
<!-- Node43&#45;&gt;Node147 -->
<g id="edge21_Node000043_Node000147" class="edge">
<title>Node43&#45;&gt;Node147</title>
<g id="a_edge21_Node000043_Node000147"><a xlink:title=" ">
<path fill="none" stroke="#63b8ff" d="M249.54,-923.3C257.85,-958.93 279.94,-1031.72 327.75,-1069.62 332.95,-1073.74 338.92,-1076.95 345.19,-1079.44"/>
<polygon fill="#63b8ff" stroke="#63b8ff" points="253.03,-922.87 247.48,-913.84 246.19,-924.36 253.03,-922.87"/>
</a>
</g>
</g>
<!-- Node148 -->
<g id="Node000148" class="node">
<title>Node148</title>
<g id="a_Node000148"><a xlink:href="classllvm_1_1CmpInst.html" target="_top" xlink:title="This class is the base class for the comparison instructions.">
<polygon fill="#fff0f0" stroke="red" points="445,-1060.25 367.5,-1060.25 367.5,-1041 445,-1041 445,-1060.25"/>
<text xml:space="preserve" text-anchor="middle" x="406.25" y="-1046.75" font-family="Helvetica,sans-Serif" font-size="10.00">llvm::CmpInst</text>
</a>
</g>
</g>
<!-- Node43&#45;&gt;Node148 -->
<g id="edge22_Node000043_Node000148" class="edge">
<title>Node43&#45;&gt;Node148</title>
<g id="a_edge22_Node000043_Node000148"><a xlink:title=" ">
<path fill="none" stroke="#63b8ff" d="M252.61,-923.18C263.93,-952.24 288.68,-1004.9 327.75,-1032.62 339.24,-1040.78 353.88,-1045.29 367.33,-1047.77"/>
<polygon fill="#63b8ff" stroke="#63b8ff" points="255.98,-922.21 249.22,-914.05 249.42,-924.64 255.98,-922.21"/>
</a>
</g>
</g>
<!-- Node151 -->
<g id="Node000151" class="node">
<title>Node151</title>
<g id="a_Node000151"><a xlink:href="classllvm_1_1ExtractElementInst.html" target="_top" xlink:title="This instruction extracts a single (scalar) element from a VectorType value.">
<polygon fill="white" stroke="#666666" points="468.25,-1023.25 344.25,-1023.25 344.25,-1004 468.25,-1004 468.25,-1023.25"/>
<text xml:space="preserve" text-anchor="middle" x="406.25" y="-1009.75" font-family="Helvetica,sans-Serif" font-size="10.00">llvm::ExtractElementInst</text>
</a>
</g>
</g>
<!-- Node43&#45;&gt;Node151 -->
<g id="edge23_Node000043_Node000151" class="edge">
<title>Node43&#45;&gt;Node151</title>
<g id="a_edge23_Node000043_Node000151"><a xlink:title=" ">
<path fill="none" stroke="#63b8ff" d="M257.36,-922.25C271.5,-943.66 296.99,-977.31 327.75,-995.62 333.09,-998.81 338.95,-1001.42 344.98,-1003.58"/>
<polygon fill="#63b8ff" stroke="#63b8ff" points="260.34,-920.41 252.02,-913.86 254.44,-924.17 260.34,-920.41"/>
</a>
</g>
</g>
<!-- Node152 -->
<g id="Node000152" class="node">
<title>Node152</title>
<g id="a_Node000152"><a xlink:href="classllvm_1_1FenceInst.html" target="_top" xlink:title="An instruction for ordering other memory operations.">
<polygon fill="white" stroke="#666666" points="448,-986.25 364.5,-986.25 364.5,-967 448,-967 448,-986.25"/>
<text xml:space="preserve" text-anchor="middle" x="406.25" y="-972.75" font-family="Helvetica,sans-Serif" font-size="10.00">llvm::FenceInst</text>
</a>
</g>
</g>
<!-- Node43&#45;&gt;Node152 -->
<g id="edge24_Node000043_Node000152" class="edge">
<title>Node43&#45;&gt;Node152</title>
<g id="a_edge24_Node000043_Node000152"><a xlink:title=" ">
<path fill="none" stroke="#63b8ff" d="M266.03,-919.86C281.96,-932.34 305.05,-948.69 327.75,-958.62 339.14,-963.61 352.1,-967.32 364.12,-970.02"/>
<polygon fill="#63b8ff" stroke="#63b8ff" points="268.26,-917.17 258.27,-913.63 263.88,-922.62 268.26,-917.17"/>
</a>
</g>
</g>
<!-- Node153 -->
<g id="Node000153" class="node">
<title>Node153</title>
<g id="a_Node000153"><a xlink:href="classllvm_1_1FuncletPadInst.html" target="_top" xlink:title=" ">
<polygon fill="#fff0f0" stroke="red" points="459.25,-949.25 353.25,-949.25 353.25,-930 459.25,-930 459.25,-949.25"/>
<text xml:space="preserve" text-anchor="middle" x="406.25" y="-935.75" font-family="Helvetica,sans-Serif" font-size="10.00">llvm::FuncletPadInst</text>
</a>
</g>
</g>
<!-- Node43&#45;&gt;Node153 -->
<g id="edge25_Node000043_Node000153" class="edge">
<title>Node43&#45;&gt;Node153</title>
<g id="a_edge25_Node000043_Node000153"><a xlink:title=" ">
<path fill="none" stroke="#63b8ff" d="M298.45,-914.91C318.93,-919.65 342.08,-925 361.57,-929.52"/>
<polygon fill="#63b8ff" stroke="#63b8ff" points="299.39,-911.53 288.85,-912.69 297.81,-918.35 299.39,-911.53"/>
</a>
</g>
</g>
<!-- Node156 -->
<g id="Node000156" class="node">
<title>Node156</title>
<g id="a_Node000156"><a xlink:href="classllvm_1_1GetElementPtrInst.html" target="_top" xlink:title="an instruction for type&#45;safe pointer arithmetic to access elements of arrays and structs">
<polygon fill="white" stroke="#666666" points="466.75,-912.25 345.75,-912.25 345.75,-893 466.75,-893 466.75,-912.25"/>
<text xml:space="preserve" text-anchor="middle" x="406.25" y="-898.75" font-family="Helvetica,sans-Serif" font-size="10.00">llvm::GetElementPtrInst</text>
</a>
</g>
</g>
<!-- Node43&#45;&gt;Node156 -->
<g id="edge26_Node000043_Node000156" class="edge">
<title>Node43&#45;&gt;Node156</title>
<g id="a_edge26_Node000043_Node000156"><a xlink:title=" ">
<path fill="none" stroke="#63b8ff" d="M298.57,-902.62C313.61,-902.62 330.09,-902.62 345.49,-902.62"/>
<polygon fill="#63b8ff" stroke="#63b8ff" points="298.89,-899.13 288.89,-902.63 298.89,-906.13 298.89,-899.13"/>
</a>
</g>
</g>
<!-- Node157 -->
<g id="Node000157" class="node">
<title>Node157</title>
<g id="a_Node000157"><a xlink:href="classllvm_1_1IndirectBrInst.html" target="_top" xlink:title="Indirect Branch Instruction.">
<polygon fill="white" stroke="#666666" points="455.5,-875.25 357,-875.25 357,-856 455.5,-856 455.5,-875.25"/>
<text xml:space="preserve" text-anchor="middle" x="406.25" y="-861.75" font-family="Helvetica,sans-Serif" font-size="10.00">llvm::IndirectBrInst</text>
</a>
</g>
</g>
<!-- Node43&#45;&gt;Node157 -->
<g id="edge27_Node000043_Node000157" class="edge">
<title>Node43&#45;&gt;Node157</title>
<g id="a_edge27_Node000043_Node000157"><a xlink:title=" ">
<path fill="none" stroke="#63b8ff" d="M298.45,-890.34C318.93,-885.6 342.08,-880.25 361.57,-875.73"/>
<polygon fill="#63b8ff" stroke="#63b8ff" points="297.81,-886.9 288.85,-892.56 299.39,-893.72 297.81,-886.9"/>
</a>
</g>
</g>
<!-- Node158 -->
<g id="Node000158" class="node">
<title>Node158</title>
<g id="a_Node000158"><a xlink:href="classllvm_1_1InsertElementInst.html" target="_top" xlink:title="This instruction inserts a single (scalar) element into a VectorType value.">
<polygon fill="white" stroke="#666666" points="464.88,-838.25 347.62,-838.25 347.62,-819 464.88,-819 464.88,-838.25"/>
<text xml:space="preserve" text-anchor="middle" x="406.25" y="-824.75" font-family="Helvetica,sans-Serif" font-size="10.00">llvm::InsertElementInst</text>
</a>
</g>
</g>
<!-- Node43&#45;&gt;Node158 -->
<g id="edge28_Node000043_Node000158" class="edge">
<title>Node43&#45;&gt;Node158</title>
<g id="a_edge28_Node000043_Node000158"><a xlink:title=" ">
<path fill="none" stroke="#63b8ff" d="M266.03,-885.39C281.96,-872.91 305.05,-856.56 327.75,-846.62 334.84,-843.52 342.53,-840.92 350.23,-838.74"/>
<polygon fill="#63b8ff" stroke="#63b8ff" points="263.88,-882.63 258.27,-891.62 268.26,-888.08 263.88,-882.63"/>
</a>
</g>
</g>
<!-- Node159 -->
<g id="Node000159" class="node">
<title>Node159</title>
<g id="a_Node000159"><a xlink:href="classllvm_1_1InsertValueInst.html" target="_top" xlink:title="This instruction inserts a struct field of array element value into an aggregate value.">
<polygon fill="white" stroke="#666666" points="458.88,-801.25 353.62,-801.25 353.62,-782 458.88,-782 458.88,-801.25"/>
<text xml:space="preserve" text-anchor="middle" x="406.25" y="-787.75" font-family="Helvetica,sans-Serif" font-size="10.00">llvm::InsertValueInst</text>
</a>
</g>
</g>
<!-- Node43&#45;&gt;Node159 -->
<g id="edge29_Node000043_Node000159" class="edge">
<title>Node43&#45;&gt;Node159</title>
<g id="a_edge29_Node000043_Node000159"><a xlink:title=" ">
<path fill="none" stroke="#63b8ff" d="M257.36,-883C271.5,-861.59 296.99,-827.94 327.75,-809.62 335.58,-804.96 344.53,-801.51 353.49,-798.95"/>
<polygon fill="#63b8ff" stroke="#63b8ff" points="254.44,-881.08 252.02,-891.39 260.34,-884.84 254.44,-881.08"/>
</a>
</g>
</g>
<!-- Node160 -->
<g id="Node000160" class="node">
<title>Node160</title>
<g id="a_Node000160"><a xlink:href="classllvm_1_1LandingPadInst.html" target="_top" xlink:title="The landingpad instruction holds all of the information necessary to generate correct exception handl...">
<polygon fill="white" stroke="#666666" points="460,-764.25 352.5,-764.25 352.5,-745 460,-745 460,-764.25"/>
<text xml:space="preserve" text-anchor="middle" x="406.25" y="-750.75" font-family="Helvetica,sans-Serif" font-size="10.00">llvm::LandingPadInst</text>
</a>
</g>
</g>
<!-- Node43&#45;&gt;Node160 -->
<g id="edge30_Node000043_Node000160" class="edge">
<title>Node43&#45;&gt;Node160</title>
<g id="a_edge30_Node000043_Node000160"><a xlink:title=" ">
<path fill="none" stroke="#63b8ff" d="M252.61,-882.07C263.93,-853.01 288.68,-800.35 327.75,-772.62 334.96,-767.51 343.41,-763.83 352.03,-761.18"/>
<polygon fill="#63b8ff" stroke="#63b8ff" points="249.42,-880.61 249.22,-891.2 255.98,-883.04 249.42,-880.61"/>
</a>
</g>
</g>
<!-- Node161 -->
<g id="Node000161" class="node">
<title>Node161</title>
<g id="a_Node000161"><a xlink:href="classllvm_1_1PHINode.html" target="_top" xlink:title=" ">
<polygon fill="white" stroke="#666666" points="446.5,-727.25 366,-727.25 366,-708 446.5,-708 446.5,-727.25"/>
<text xml:space="preserve" text-anchor="middle" x="406.25" y="-713.75" font-family="Helvetica,sans-Serif" font-size="10.00">llvm::PHINode</text>
</a>
</g>
</g>
<!-- Node43&#45;&gt;Node161 -->
<g id="edge31_Node000043_Node000161" class="edge">
<title>Node43&#45;&gt;Node161</title>
<g id="a_edge31_Node000043_Node000161"><a xlink:title=" ">
<path fill="none" stroke="#63b8ff" d="M249.54,-881.95C257.85,-846.32 279.94,-773.53 327.75,-735.62 338.47,-727.13 352.48,-722.51 365.65,-720.04"/>
<polygon fill="#63b8ff" stroke="#63b8ff" points="246.19,-880.89 247.48,-891.41 253.03,-882.38 246.19,-880.89"/>
</a>
</g>
</g>
<!-- Node162 -->
<g id="Node000162" class="node">
<title>Node162</title>
<g id="a_Node000162"><a xlink:href="classllvm_1_1ResumeInst.html" target="_top" xlink:title="Resume the propagation of an exception.">
<polygon fill="white" stroke="#666666" points="452.88,-690.25 359.62,-690.25 359.62,-671 452.88,-671 452.88,-690.25"/>
<text xml:space="preserve" text-anchor="middle" x="406.25" y="-676.75" font-family="Helvetica,sans-Serif" font-size="10.00">llvm::ResumeInst</text>
</a>
</g>
</g>
<!-- Node43&#45;&gt;Node162 -->
<g id="edge32_Node000043_Node000162" class="edge">
<title>Node43&#45;&gt;Node162</title>
<g id="a_edge32_Node000043_Node000162"><a xlink:title=" ">
<path fill="none" stroke="#63b8ff" d="M247.55,-881.54C253.01,-839.91 271.2,-747 327.75,-698.62 336.57,-691.08 347.94,-686.55 359.25,-683.87"/>
<polygon fill="#63b8ff" stroke="#63b8ff" points="244.11,-880.87 246.41,-891.21 251.06,-881.69 244.11,-880.87"/>
</a>
</g>
</g>
<!-- Node163 -->
<g id="Node000163" class="node">
<title>Node163</title>
<g id="a_Node000163"><a xlink:href="classllvm_1_1ReturnInst.html" target="_top" xlink:title="Return a value (possibly void), from a function.">
<polygon fill="white" stroke="#666666" points="449.12,-653.25 363.38,-653.25 363.38,-634 449.12,-634 449.12,-653.25"/>
<text xml:space="preserve" text-anchor="middle" x="406.25" y="-639.75" font-family="Helvetica,sans-Serif" font-size="10.00">llvm::ReturnInst</text>
</a>
</g>
</g>
<!-- Node43&#45;&gt;Node163 -->
<g id="edge33_Node000043_Node000163" class="edge">
<title>Node43&#45;&gt;Node163</title>
<g id="a_edge33_Node000043_Node000163"><a xlink:title=" ">
<path fill="none" stroke="#63b8ff" d="M246.09,-881.07C248.87,-833.83 262.38,-720.7 327.75,-661.62 337.38,-652.92 350.39,-648.18 363,-645.67"/>
<polygon fill="#63b8ff" stroke="#63b8ff" points="242.59,-880.88 245.62,-891.03 249.58,-881.2 242.59,-880.88"/>
</a>
</g>
</g>
<!-- Node164 -->
<g id="Node000164" class="node">
<title>Node164</title>
<g id="a_Node000164"><a xlink:href="classllvm_1_1SelectInst.html" target="_top" xlink:title="This class represents the LLVM &#39;select&#39; instruction.">
<polygon fill="white" stroke="#666666" points="448.38,-616.25 364.12,-616.25 364.12,-597 448.38,-597 448.38,-616.25"/>
<text xml:space="preserve" text-anchor="middle" x="406.25" y="-602.75" font-family="Helvetica,sans-Serif" font-size="10.00">llvm::SelectInst</text>
</a>
</g>
</g>
<!-- Node43&#45;&gt;Node164 -->
<g id="edge34_Node000043_Node000164" class="edge">
<title>Node43&#45;&gt;Node164</title>
<g id="a_edge34_Node000043_Node000164"><a xlink:title=" ">
<path fill="none" stroke="#63b8ff" d="M244.94,-881.39C245.09,-829.41 253.09,-694.94 327.75,-624.62 337.5,-615.44 350.99,-610.63 363.99,-608.2"/>
<polygon fill="#63b8ff" stroke="#63b8ff" points="241.44,-881.25 245.02,-891.22 248.44,-881.19 241.44,-881.25"/>
</a>
</g>
</g>
<!-- Node165 -->
<g id="Node000165" class="node">
<title>Node165</title>
<g id="a_Node000165"><a xlink:href="classllvm_1_1ShuffleVectorInst.html" target="_top" xlink:title="This instruction constructs a fixed permutation of two input vectors.">
<polygon fill="white" stroke="#666666" points="464.12,-579.25 348.38,-579.25 348.38,-560 464.12,-560 464.12,-579.25"/>
<text xml:space="preserve" text-anchor="middle" x="406.25" y="-565.75" font-family="Helvetica,sans-Serif" font-size="10.00">llvm::ShuffleVectorInst</text>
</a>
</g>
</g>
<!-- Node43&#45;&gt;Node165 -->
<g id="edge35_Node000043_Node000165" class="edge">
<title>Node43&#45;&gt;Node165</title>
<g id="a_edge35_Node000043_Node000165"><a xlink:title=" ">
<path fill="none" stroke="#63b8ff" d="M248.04,-881.52C256.52,-817.84 284.82,-629.39 327.75,-587.62 333.49,-582.04 340.61,-578.06 348.19,-575.25"/>
<polygon fill="#63b8ff" stroke="#63b8ff" points="244.59,-880.95 246.77,-891.32 251.53,-881.85 244.59,-880.95"/>
</a>
</g>
</g>
<!-- Node166 -->
<g id="Node000166" class="node">
<title>Node166</title>
<g id="a_Node000166"><a xlink:href="classllvm_1_1StoreInst.html" target="_top" xlink:title="An instruction for storing to memory.">
<polygon fill="white" stroke="#666666" points="446.12,-542.25 366.38,-542.25 366.38,-523 446.12,-523 446.12,-542.25"/>
<text xml:space="preserve" text-anchor="middle" x="406.25" y="-528.75" font-family="Helvetica,sans-Serif" font-size="10.00">llvm::StoreInst</text>
</a>
</g>
</g>
<!-- Node43&#45;&gt;Node166 -->
<g id="edge36_Node000043_Node000166" class="edge">
<title>Node43&#45;&gt;Node166</title>
<g id="a_edge36_Node000043_Node000166"><a xlink:title=" ">
<path fill="none" stroke="#63b8ff" d="M247.44,-881.33C254.55,-812.56 280.18,-598.11 327.75,-550.62 337.82,-540.57 352.33,-535.7 366.08,-533.46"/>
<polygon fill="#63b8ff" stroke="#63b8ff" points="243.97,-880.92 246.45,-891.22 250.93,-881.62 243.97,-880.92"/>
</a>
</g>
</g>
<!-- Node167 -->
<g id="Node000167" class="node">
<title>Node167</title>
<g id="a_Node000167"><a xlink:href="classllvm_1_1SwitchInst.html" target="_top" xlink:title="Multiway switch.">
<polygon fill="white" stroke="#666666" points="449.5,-505.25 363,-505.25 363,-486 449.5,-486 449.5,-505.25"/>
<text xml:space="preserve" text-anchor="middle" x="406.25" y="-491.75" font-family="Helvetica,sans-Serif" font-size="10.00">llvm::SwitchInst</text>
</a>
</g>
</g>
<!-- Node43&#45;&gt;Node167 -->
<g id="edge37_Node000043_Node000167" class="edge">
<title>Node43&#45;&gt;Node167</title>
<g id="a_edge37_Node000043_Node000167"><a xlink:title=" ">
<path fill="none" stroke="#63b8ff" d="M246.92,-881.51C252.69,-808.31 275.43,-566.98 327.75,-513.62 336.94,-504.26 349.98,-499.36 362.75,-496.91"/>
<polygon fill="#63b8ff" stroke="#63b8ff" points="243.44,-881.06 246.17,-891.29 250.42,-881.59 243.44,-881.06"/>
</a>
</g>
</g>
<!-- Node168 -->
<g id="Node000168" class="node">
<title>Node168</title>
<g id="a_Node000168"><a xlink:href="classllvm_1_1UnaryInstruction.html" target="_top" xlink:title=" ">
<polygon fill="#fff0f0" stroke="red" points="462.25,-468.25 350.25,-468.25 350.25,-449 462.25,-449 462.25,-468.25"/>
<text xml:space="preserve" text-anchor="middle" x="406.25" y="-454.75" font-family="Helvetica,sans-Serif" font-size="10.00">llvm::UnaryInstruction</text>
</a>
</g>
</g>
<!-- Node43&#45;&gt;Node168 -->
<g id="edge38_Node000043_Node000168" class="edge">
<title>Node43&#45;&gt;Node168</title>
<g id="a_edge38_Node000043_Node000168"><a xlink:title=" ">
<path fill="none" stroke="#63b8ff" d="M246.49,-881.53C251.04,-803.94 270.69,-535.85 327.75,-476.62 333.79,-470.36 341.55,-466.09 349.82,-463.21"/>
<polygon fill="#63b8ff" stroke="#63b8ff" points="243.02,-880.96 245.96,-891.14 250.01,-881.35 243.02,-880.96"/>
</a>
</g>
</g>
<!-- Node191 -->
<g id="Node000191" class="node">
<title>Node191</title>
<g id="a_Node000191"><a xlink:href="classllvm_1_1UnreachableInst.html" target="_top" xlink:title="This function has undefined behavior.">
<polygon fill="white" stroke="#666666" points="461.88,-431.25 350.62,-431.25 350.62,-412 461.88,-412 461.88,-431.25"/>
<text xml:space="preserve" text-anchor="middle" x="406.25" y="-417.75" font-family="Helvetica,sans-Serif" font-size="10.00">llvm::UnreachableInst</text>
</a>
</g>
</g>
<!-- Node43&#45;&gt;Node191 -->
<g id="edge39_Node000043_Node000191" class="edge">
<title>Node43&#45;&gt;Node191</title>
<g id="a_edge39_Node000043_Node000191"><a xlink:title=" ">
<path fill="none" stroke="#63b8ff" d="M246.15,-881.31C249.56,-799.2 265.99,-504.69 327.75,-439.62 333.84,-433.21 341.72,-428.88 350.13,-425.99"/>
<polygon fill="#63b8ff" stroke="#63b8ff" points="242.66,-880.96 245.77,-891.09 249.65,-881.23 242.66,-880.96"/>
</a>
</g>
</g>
<!-- Node193 -->
<g id="Node000193" class="node">
<title>Node193</title>
<g id="a_Node000193"><a xlink:href="classllvm_1_1ConcreteOperator.html" target="_top" xlink:title=" ">
<polygon fill="#fff0f0" stroke="red" points="464.88,-393.5 347.62,-393.5 347.62,-351.75 464.88,-351.75 464.88,-393.5"/>
<text xml:space="preserve" text-anchor="start" x="355.62" y="-380" font-family="Helvetica,sans-Serif" font-size="10.00">llvm::ConcreteOperator</text>
<text xml:space="preserve" text-anchor="start" x="355.62" y="-368.75" font-family="Helvetica,sans-Serif" font-size="10.00">&lt; Operator, Instruction</text>
<text xml:space="preserve" text-anchor="middle" x="406.25" y="-357.5" font-family="Helvetica,sans-Serif" font-size="10.00">::AddrSpaceCast &gt;</text>
</a>
</g>
</g>
<!-- Node192&#45;&gt;Node193 -->
<g id="edge41_Node000192_Node000193" class="edge">
<title>Node192&#45;&gt;Node193</title>
<g id="a_edge41_Node000192_Node000193"><a xlink:title=" ">
<path fill="none" stroke="#63b8ff" d="M251.57,-213.24C262.18,-245.18 286.71,-306.71 327.75,-342.62 333.5,-347.66 340.2,-351.9 347.19,-355.45"/>
<polygon fill="#63b8ff" stroke="#63b8ff" points="255,-212.47 248.64,-204 248.33,-214.59 255,-212.47"/>
</a>
</g>
</g>
<!-- Node195 -->
<g id="Node000195" class="node">
<title>Node195</title>
<g id="a_Node000195"><a xlink:href="classllvm_1_1ConcreteOperator.html" target="_top" xlink:title=" ">
<polygon fill="#fff0f0" stroke="red" points="464.88,-333.5 347.62,-333.5 347.62,-291.75 464.88,-291.75 464.88,-333.5"/>
<text xml:space="preserve" text-anchor="start" x="355.62" y="-320" font-family="Helvetica,sans-Serif" font-size="10.00">llvm::ConcreteOperator</text>
<text xml:space="preserve" text-anchor="start" x="355.62" y="-308.75" font-family="Helvetica,sans-Serif" font-size="10.00">&lt; Operator, Instruction</text>
<text xml:space="preserve" text-anchor="middle" x="406.25" y="-297.5" font-family="Helvetica,sans-Serif" font-size="10.00">::BitCast &gt;</text>
</a>
</g>
</g>
<!-- Node192&#45;&gt;Node195 -->
<g id="edge42_Node000192_Node000195" class="edge">
<title>Node192&#45;&gt;Node195</title>
<g id="a_edge42_Node000192_Node000195"><a xlink:title=" ">
<path fill="none" stroke="#63b8ff" d="M258.7,-211.77C273.52,-231.83 299.17,-263.1 327.75,-282.62 333.83,-286.78 340.56,-290.46 347.44,-293.71"/>
<polygon fill="#63b8ff" stroke="#63b8ff" points="261.71,-209.97 253.03,-203.9 256.03,-214.06 261.71,-209.97"/>
</a>
</g>
</g>
<!-- Node197 -->
<g id="Node000197" class="node">
<title>Node197</title>
<g id="a_Node000197"><a xlink:href="classllvm_1_1ConcreteOperator.html" target="_top" xlink:title=" ">
<polygon fill="#fff0f0" stroke="red" points="464.88,-273.5 347.62,-273.5 347.62,-231.75 464.88,-231.75 464.88,-273.5"/>
<text xml:space="preserve" text-anchor="start" x="355.62" y="-260" font-family="Helvetica,sans-Serif" font-size="10.00">llvm::ConcreteOperator</text>
<text xml:space="preserve" text-anchor="start" x="355.62" y="-248.75" font-family="Helvetica,sans-Serif" font-size="10.00">&lt; Operator, Instruction</text>
<text xml:space="preserve" text-anchor="middle" x="406.25" y="-237.5" font-family="Helvetica,sans-Serif" font-size="10.00">::GetElementPtr &gt;</text>
</a>
</g>
</g>
<!-- Node192&#45;&gt;Node197 -->
<g id="edge43_Node000192_Node000197" class="edge">
<title>Node192&#45;&gt;Node197</title>
<g id="a_edge43_Node000192_Node000197"><a xlink:title=" ">
<path fill="none" stroke="#63b8ff" d="M282.75,-206.65C302.32,-214 326.69,-223.14 348.53,-231.34"/>
<polygon fill="#63b8ff" stroke="#63b8ff" points="284.14,-203.44 273.55,-203.2 281.68,-209.99 284.14,-203.44"/>
</a>
</g>
</g>
<!-- Node199 -->
<g id="Node000199" class="node">
<title>Node199</title>
<g id="a_Node000199"><a xlink:href="classllvm_1_1ConcreteOperator.html" target="_top" xlink:title=" ">
<polygon fill="#fff0f0" stroke="red" points="464.88,-213.5 347.62,-213.5 347.62,-171.75 464.88,-171.75 464.88,-213.5"/>
<text xml:space="preserve" text-anchor="start" x="355.62" y="-200" font-family="Helvetica,sans-Serif" font-size="10.00">llvm::ConcreteOperator</text>
<text xml:space="preserve" text-anchor="start" x="355.62" y="-188.75" font-family="Helvetica,sans-Serif" font-size="10.00">&lt; Operator, Instruction</text>
<text xml:space="preserve" text-anchor="middle" x="406.25" y="-177.5" font-family="Helvetica,sans-Serif" font-size="10.00">::PtrToAddr &gt;</text>
</a>
</g>
</g>
<!-- Node192&#45;&gt;Node199 -->
<g id="edge44_Node000192_Node000199" class="edge">
<title>Node192&#45;&gt;Node199</title>
<g id="a_edge44_Node000192_Node000199"><a xlink:title=" ">
<path fill="none" stroke="#63b8ff" d="M294.44,-192.62C311.15,-192.62 329.97,-192.62 347.31,-192.62"/>
<polygon fill="#63b8ff" stroke="#63b8ff" points="294.78,-189.13 284.78,-192.63 294.78,-196.13 294.78,-189.13"/>
</a>
</g>
</g>
<!-- Node201 -->
<g id="Node000201" class="node">
<title>Node201</title>
<g id="a_Node000201"><a xlink:href="classllvm_1_1ConcreteOperator.html" target="_top" xlink:title=" ">
<polygon fill="#fff0f0" stroke="red" points="464.88,-153.5 347.62,-153.5 347.62,-111.75 464.88,-111.75 464.88,-153.5"/>
<text xml:space="preserve" text-anchor="start" x="355.62" y="-140" font-family="Helvetica,sans-Serif" font-size="10.00">llvm::ConcreteOperator</text>
<text xml:space="preserve" text-anchor="start" x="355.62" y="-128.75" font-family="Helvetica,sans-Serif" font-size="10.00">&lt; Operator, Instruction</text>
<text xml:space="preserve" text-anchor="middle" x="406.25" y="-117.5" font-family="Helvetica,sans-Serif" font-size="10.00">::PtrToInt &gt;</text>
</a>
</g>
</g>
<!-- Node192&#45;&gt;Node201 -->
<g id="edge45_Node000192_Node000201" class="edge">
<title>Node192&#45;&gt;Node201</title>
<g id="a_edge45_Node000192_Node000201"><a xlink:title=" ">
<path fill="none" stroke="#63b8ff" d="M282.75,-178.6C302.32,-171.25 326.69,-162.11 348.53,-153.91"/>
<polygon fill="#63b8ff" stroke="#63b8ff" points="281.68,-175.26 273.55,-182.05 284.14,-181.81 281.68,-175.26"/>
</a>
</g>
</g>
<!-- Node203 -->
<g id="Node000203" class="node">
<title>Node203</title>
<g id="a_Node000203"><a xlink:href="classllvm_1_1FPMathOperator.html" target="_top" xlink:title="Utility class for floating point operations which can have information about relaxed accuracy require...">
<polygon fill="white" stroke="#666666" points="462.25,-93.25 350.25,-93.25 350.25,-74 462.25,-74 462.25,-93.25"/>
<text xml:space="preserve" text-anchor="middle" x="406.25" y="-79.75" font-family="Helvetica,sans-Serif" font-size="10.00">llvm::FPMathOperator</text>
</a>
</g>
</g>
<!-- Node192&#45;&gt;Node203 -->
<g id="edge46_Node000192_Node000203" class="edge">
<title>Node192&#45;&gt;Node203</title>
<g id="a_edge46_Node000192_Node000203"><a xlink:title=" ">
<path fill="none" stroke="#63b8ff" d="M257.78,-173.39C272.12,-152.72 297.66,-120.46 327.75,-102.62 334.54,-98.6 342.15,-95.42 349.88,-92.92"/>
<polygon fill="#63b8ff" stroke="#63b8ff" points="255.01,-171.23 252.34,-181.49 260.82,-175.13 255.01,-171.23"/>
</a>
</g>
</g>
<!-- Node204 -->
<g id="Node000204" class="node">
<title>Node204</title>
<g id="a_Node000204"><a xlink:href="classllvm_1_1OverflowingBinaryOperator.html" target="_top" xlink:title="Utility class for integer operators which may exhibit overflow &#45; Add, Sub, Mul, and Shl.">
<polygon fill="#fff0f0" stroke="red" points="484.75,-56.25 327.75,-56.25 327.75,-37 484.75,-37 484.75,-56.25"/>
<text xml:space="preserve" text-anchor="middle" x="406.25" y="-42.75" font-family="Helvetica,sans-Serif" font-size="10.00">llvm::OverflowingBinaryOperator</text>
</a>
</g>
</g>
<!-- Node192&#45;&gt;Node204 -->
<g id="edge47_Node000192_Node000204" class="edge">
<title>Node192&#45;&gt;Node204</title>
<g id="a_edge47_Node000192_Node000204"><a xlink:title=" ">
<path fill="none" stroke="#63b8ff" d="M252.7,-172.39C264.13,-143.76 289.01,-91.91 327.75,-64.62 332.27,-61.44 337.27,-58.82 342.48,-56.65"/>
<polygon fill="#63b8ff" stroke="#63b8ff" points="249.57,-170.76 249.27,-181.35 256.11,-173.26 249.57,-170.76"/>
</a>
</g>
</g>
<!-- Node213 -->
<g id="Node000213" class="node">
<title>Node213</title>
<g id="a_Node000213"><a xlink:href="classllvm_1_1PossiblyExactOperator.html" target="_top" xlink:title="A udiv, sdiv, lshr, or ashr instruction, which can be marked as &quot;exact&quot;, indicating that no bits are ...">
<polygon fill="#fff0f0" stroke="red" points="476.5,-19.25 336,-19.25 336,0 476.5,0 476.5,-19.25"/>
<text xml:space="preserve" text-anchor="middle" x="406.25" y="-5.75" font-family="Helvetica,sans-Serif" font-size="10.00">llvm::PossiblyExactOperator</text>
</a>
</g>
</g>
<!-- Node192&#45;&gt;Node213 -->
<g id="edge48_Node000192_Node000213" class="edge">
<title>Node192&#45;&gt;Node213</title>
<g id="a_edge48_Node000192_Node000213"><a xlink:title=" ">
<path fill="none" stroke="#63b8ff" d="M249.74,-171.69C258.26,-136.3 280.53,-64.88 327.75,-27.62 331.76,-24.46 336.23,-21.83 340.95,-19.66"/>
<polygon fill="#63b8ff" stroke="#63b8ff" points="246.4,-170.59 247.62,-181.11 253.23,-172.13 246.4,-170.59"/>
</a>
</g>
</g>
</g>
</svg>
