<?xml version="1.0" encoding="UTF-8" standalone="no"?>
<!DOCTYPE svg PUBLIC "-//W3C//DTD SVG 1.1//EN"
 "http://www.w3.org/Graphics/SVG/1.1/DTD/svg11.dtd">
<!-- Generated by graphviz version 14.1.3 (20260303.0454)
 -->
<!-- Title: llvm::RegionInfoAnalysis Pages: 1 -->
<svg width="284pt" height="262pt"
 viewBox="0.00 0.00 284.00 262.00" xmlns="http://www.w3.org/2000/svg" xmlns:xlink="http://www.w3.org/1999/xlink">
<g id="graph0" class="graph" transform="scale(1 1) rotate(0) translate(4 258.25)">
<title>llvm::RegionInfoAnalysis</title>
<!-- Node1 -->
<g id="Node000001" class="node">
<title>Node1</title>
<g id="a_Node000001"><a xlink:title="Analysis pass that exposes the RegionInfo for a function.">
<polygon fill="#999999" stroke="#666666" points="188.75,-19.25 64,-19.25 64,0 188.75,0 188.75,-19.25"/>
<text xml:space="preserve" text-anchor="middle" x="126.38" y="-5.75" font-family="Helvetica,sans-Serif" font-size="10.00">llvm::RegionInfoAnalysis</text>
</a>
</g>
</g>
<!-- Node2 -->
<g id="Node000002" class="node">
<title>Node2</title>
<g id="a_Node000002"><a xlink:href="structllvm_1_1AnalysisInfoMixin.html" target="_top" xlink:title=" ">
<polygon fill="white" stroke="#666666" points="185.75,-86.75 67,-86.75 67,-56.25 185.75,-56.25 185.75,-86.75"/>
<text xml:space="preserve" text-anchor="start" x="75" y="-73.25" font-family="Helvetica,sans-Serif" font-size="10.00">llvm::AnalysisInfoMixin</text>
<text xml:space="preserve" text-anchor="middle" x="126.38" y="-62" font-family="Helvetica,sans-Serif" font-size="10.00">&lt; RegionInfoAnalysis &gt;</text>
</a>
</g>
</g>
<!-- Node2&#45;&gt;Node1 -->
<g id="edge1_Node000001_Node000002" class="edge">
<title>Node2&#45;&gt;Node1</title>
<g id="a_edge1_Node000001_Node000002"><a xlink:title=" ">
<path fill="none" stroke="#63b8ff" d="M126.38,-44.77C126.38,-35.79 126.38,-26.29 126.38,-19.6"/>
<polygon fill="#63b8ff" stroke="#63b8ff" points="122.88,-44.49 126.38,-54.49 129.88,-44.49 122.88,-44.49"/>
</a>
</g>
</g>
<!-- Node3 -->
<g id="Node000003" class="node">
<title>Node3</title>
<g id="a_Node000003"><a xlink:href="structllvm_1_1PassInfoMixin.html" target="_top" xlink:title=" ">
<polygon fill="white" stroke="#666666" points="118.75,-170.5 0,-170.5 0,-140 118.75,-140 118.75,-170.5"/>
<text xml:space="preserve" text-anchor="start" x="8" y="-157" font-family="Helvetica,sans-Serif" font-size="10.00">llvm::PassInfoMixin</text>
<text xml:space="preserve" text-anchor="middle" x="59.38" y="-145.75" font-family="Helvetica,sans-Serif" font-size="10.00">&lt; RegionInfoAnalysis &gt;</text>
</a>
</g>
</g>
<!-- Node3&#45;&gt;Node2 -->
<g id="edge2_Node000002_Node000003" class="edge">
<title>Node3&#45;&gt;Node2</title>
<g id="a_edge2_Node000002_Node000003"><a xlink:title=" ">
<path fill="none" stroke="#63b8ff" d="M78.49,-130.93C90.09,-116.78 104.53,-99.16 114.5,-86.99"/>
<polygon fill="#63b8ff" stroke="#63b8ff" points="75.94,-128.51 72.31,-138.46 81.36,-132.95 75.94,-128.51"/>
</a>
</g>
</g>
<!-- Node4 -->
<g id="Node000004" class="node">
<title>Node4</title>
<g id="a_Node000004"><a xlink:href="structllvm_1_1PassInfoMixin.html" target="_top" xlink:title="A CRTP mix&#45;in to automatically provide informational APIs needed for passes.">
<polygon fill="white" stroke="#666666" points="110.5,-254.25 8.25,-254.25 8.25,-223.75 110.5,-223.75 110.5,-254.25"/>
<text xml:space="preserve" text-anchor="start" x="16.25" y="-240.75" font-family="Helvetica,sans-Serif" font-size="10.00">llvm::PassInfoMixin</text>
<text xml:space="preserve" text-anchor="middle" x="59.38" y="-229.5" font-family="Helvetica,sans-Serif" font-size="10.00">&lt; DerivedT &gt;</text>
</a>
</g>
</g>
<!-- Node4&#45;&gt;Node3 -->
<g id="edge3_Node000003_Node000004" class="edge">
<title>Node4&#45;&gt;Node3</title>
<g id="a_edge3_Node000003_Node000004"><a xlink:title=" ">
<path fill="none" stroke="orange" stroke-dasharray="5,2" d="M59.38,-212.22C59.38,-198.53 59.38,-182.21 59.38,-170.74"/>
<polygon fill="orange" stroke="orange" points="55.88,-211.87 59.38,-221.87 62.88,-211.87 55.88,-211.87"/>
</a>
</g>
<text xml:space="preserve" text-anchor="start" x="62.38" y="-194.5" font-family="Helvetica,sans-Serif" font-size="10.00" fill="grey">&lt; RegionInfoAnalysis &gt;</text>
</g>
<!-- Node5 -->
<g id="Node000005" class="node">
<title>Node5</title>
<g id="a_Node000005"><a xlink:href="structllvm_1_1AnalysisInfoMixin.html" target="_top" xlink:title="A CRTP mix&#45;in that provides informational APIs needed for analysis passes.">
<polygon fill="white" stroke="#666666" points="254,-170.5 136.75,-170.5 136.75,-140 254,-140 254,-170.5"/>
<text xml:space="preserve" text-anchor="start" x="144.75" y="-157" font-family="Helvetica,sans-Serif" font-size="10.00">llvm::AnalysisInfoMixin</text>
<text xml:space="preserve" text-anchor="middle" x="195.38" y="-145.75" font-family="Helvetica,sans-Serif" font-size="10.00">&lt; DerivedT &gt;</text>
</a>
</g>
</g>
<!-- Node5&#45;&gt;Node2 -->
<g id="edge4_Node000002_Node000005" class="edge">
<title>Node5&#45;&gt;Node2</title>
<g id="a_edge4_Node000002_Node000005"><a xlink:title=" ">
<path fill="none" stroke="orange" stroke-dasharray="5,2" d="M175.69,-130.93C163.74,-116.78 148.87,-99.16 138.6,-86.99"/>
<polygon fill="orange" stroke="orange" points="172.94,-133.09 182.06,-138.48 178.29,-128.58 172.94,-133.09"/>
</a>
</g>
<text xml:space="preserve" text-anchor="start" x="170.06" y="-110.75" font-family="Helvetica,sans-Serif" font-size="10.00" fill="grey">&lt; RegionInfoAnalysis &gt;</text>
</g>
<!-- Node6 -->
<g id="Node000006" class="node">
<title>Node6</title>
<g id="a_Node000006"><a xlink:href="structllvm_1_1PassInfoMixin.html" target="_top" xlink:title="A CRTP mix&#45;in to automatically provide informational APIs needed for passes.">
<polygon fill="white" stroke="#666666" points="246.5,-254.25 144.25,-254.25 144.25,-223.75 246.5,-223.75 246.5,-254.25"/>
<text xml:space="preserve" text-anchor="start" x="152.25" y="-240.75" font-family="Helvetica,sans-Serif" font-size="10.00">llvm::PassInfoMixin</text>
<text xml:space="preserve" text-anchor="middle" x="195.38" y="-229.5" font-family="Helvetica,sans-Serif" font-size="10.00">&lt; DerivedT &gt;</text>
</a>
</g>
</g>
<!-- Node6&#45;&gt;Node5 -->
<g id="edge5_Node000005_Node000006" class="edge">
<title>Node6&#45;&gt;Node5</title>
<g id="a_edge5_Node000005_Node000006"><a xlink:title=" ">
<path fill="none" stroke="#63b8ff" d="M195.38,-212.22C195.38,-198.53 195.38,-182.21 195.38,-170.74"/>
<polygon fill="#63b8ff" stroke="#63b8ff" points="191.88,-211.87 195.38,-221.87 198.88,-211.87 191.88,-211.87"/>
</a>
</g>
</g>
</g>
</svg>
