<?xml version="1.0" encoding="UTF-8" standalone="no"?>
<!DOCTYPE svg PUBLIC "-//W3C//DTD SVG 1.1//EN"
 "http://www.w3.org/Graphics/SVG/1.1/DTD/svg11.dtd">
<!-- Generated by graphviz version 14.1.3 (20260303.0454)
 -->
<!-- Title: llvm::ErrorHandlerTraits&lt; RetT(C::*)(const ErrT &amp;) const &gt; Pages: 1 -->
<svg width="277pt" height="203pt"
 viewBox="0.00 0.00 277.00 203.00" xmlns="http://www.w3.org/2000/svg" xmlns:xlink="http://www.w3.org/1999/xlink">
<g id="graph0" class="graph" transform="scale(1 1) rotate(0) translate(4 199)">
<title>llvm::ErrorHandlerTraits&lt; RetT(C::*)(const ErrT &amp;) const &gt;</title>
<!-- Node1 -->
<g id="Node000001" class="node">
<title>Node1</title>
<g id="a_Node000001"><a xlink:title=" ">
<polygon fill="#999999" stroke="#666666" points="150.5,-41.75 31,-41.75 31,0 150.5,0 150.5,-41.75"/>
<text xml:space="preserve" text-anchor="start" x="39" y="-28.25" font-family="Helvetica,sans-Serif" font-size="10.00">llvm::ErrorHandlerTraits</text>
<text xml:space="preserve" text-anchor="start" x="39" y="-17" font-family="Helvetica,sans-Serif" font-size="10.00">&lt; RetT(C::*)(const ErrT</text>
<text xml:space="preserve" text-anchor="middle" x="90.75" y="-5.75" font-family="Helvetica,sans-Serif" font-size="10.00"> &amp;) const &gt;</text>
</a>
</g>
</g>
<!-- Node2 -->
<g id="Node000002" class="node">
<title>Node2</title>
<g id="a_Node000002"><a xlink:href="classllvm_1_1ErrorHandlerTraits.html" target="_top" xlink:title=" ">
<polygon fill="white" stroke="#666666" points="268.5,-110.25 149,-110.25 149,-79.75 268.5,-79.75 268.5,-110.25"/>
<text xml:space="preserve" text-anchor="start" x="157" y="-96.75" font-family="Helvetica,sans-Serif" font-size="10.00">llvm::ErrorHandlerTraits</text>
<text xml:space="preserve" text-anchor="middle" x="208.75" y="-85.5" font-family="Helvetica,sans-Serif" font-size="10.00">&lt; RetT(&amp;)(ErrT &amp;)&gt;</text>
</a>
</g>
</g>
<!-- Node2&#45;&gt;Node1 -->
<g id="edge1_Node000001_Node000002" class="edge">
<title>Node2&#45;&gt;Node1</title>
<g id="a_edge1_Node000001_Node000002"><a xlink:title=" ">
<path fill="none" stroke="#63b8ff" d="M175.32,-73.57C159.25,-63.74 140.03,-52 123.98,-42.19"/>
<polygon fill="#63b8ff" stroke="#63b8ff" points="173.22,-76.39 183.58,-78.62 176.87,-70.41 173.22,-76.39"/>
</a>
</g>
</g>
<!-- Node3 -->
<g id="Node000003" class="node">
<title>Node3</title>
<g id="a_Node000003"><a xlink:href="classllvm_1_1ErrorHandlerTraits.html" target="_top" xlink:title="Helper for testing applicability of, and applying, handlers for ErrorInfo types.">
<polygon fill="white" stroke="#666666" points="119.5,-195 0,-195 0,-164.5 119.5,-164.5 119.5,-195"/>
<text xml:space="preserve" text-anchor="start" x="8" y="-181.5" font-family="Helvetica,sans-Serif" font-size="10.00">llvm::ErrorHandlerTraits</text>
<text xml:space="preserve" text-anchor="middle" x="59.75" y="-170.25" font-family="Helvetica,sans-Serif" font-size="10.00">&lt; HandlerT &gt;</text>
</a>
</g>
</g>
<!-- Node3&#45;&gt;Node1 -->
<g id="edge3_Node000001_Node000003" class="edge">
<title>Node3&#45;&gt;Node1</title>
<g id="a_edge3_Node000001_Node000003"><a xlink:title=" ">
<path fill="none" stroke="orange" stroke-dasharray="5,2" d="M53,-153.17C48.74,-132.62 45.32,-103.25 52.75,-78.75 56.78,-65.45 65.07,-52.43 72.87,-42.21"/>
<polygon fill="orange" stroke="orange" points="49.53,-153.71 55.18,-162.67 56.35,-152.14 49.53,-153.71"/>
</a>
</g>
<text xml:space="preserve" text-anchor="start" x="55.75" y="-100" font-family="Helvetica,sans-Serif" font-size="10.00" fill="grey">&lt; RetT(C::*)(const</text>
<text xml:space="preserve" text-anchor="start" x="55.75" y="-84.75" font-family="Helvetica,sans-Serif" font-size="10.00" fill="grey">   ErrT &amp;) const &gt;</text>
</g>
<!-- Node3&#45;&gt;Node2 -->
<g id="edge2_Node000002_Node000003" class="edge">
<title>Node3&#45;&gt;Node2</title>
<g id="a_edge2_Node000002_Node000003"><a xlink:title=" ">
<path fill="none" stroke="orange" stroke-dasharray="5,2" d="M95.77,-158.74C122.43,-143.94 158.14,-124.11 182.22,-110.74"/>
<polygon fill="orange" stroke="orange" points="94.41,-155.5 87.37,-163.41 97.81,-161.62 94.41,-155.5"/>
</a>
</g>
<text xml:space="preserve" text-anchor="start" x="150.6" y="-135.25" font-family="Helvetica,sans-Serif" font-size="10.00" fill="grey">&lt; RetT(&amp;)(ErrT &amp;)&gt;</text>
</g>
</g>
</svg>
