<?xml version="1.0" encoding="UTF-8" standalone="no"?>
<!DOCTYPE svg PUBLIC "-//W3C//DTD SVG 1.1//EN"
 "http://www.w3.org/Graphics/SVG/1.1/DTD/svg11.dtd">
<!-- Generated by graphviz version 14.1.3 (20260303.0454)
 -->
<!-- Title: llvm::codeview::CVRecord&lt; Kind &gt; Pages: 1 -->
<svg width="292pt" height="122pt"
 viewBox="0.00 0.00 292.00 122.00" xmlns="http://www.w3.org/2000/svg" xmlns:xlink="http://www.w3.org/1999/xlink">
<g id="graph0" class="graph" transform="scale(1 1) rotate(0) translate(4 118.25)">
<title>llvm::codeview::CVRecord&lt; Kind &gt;</title>
<!-- Node1 -->
<g id="Node000001" class="node">
<title>Node1</title>
<g id="a_Node000001"><a xlink:title="CVRecord is a fat pointer (base + size pair) to a symbol or type record.">
<polygon fill="#999999" stroke="#666666" points="208,-114.25 75,-114.25 75,-83.75 208,-83.75 208,-114.25"/>
<text xml:space="preserve" text-anchor="start" x="83" y="-100.75" font-family="Helvetica,sans-Serif" font-size="10.00">llvm::codeview::CVRecord</text>
<text xml:space="preserve" text-anchor="middle" x="141.5" y="-89.5" font-family="Helvetica,sans-Serif" font-size="10.00">&lt; Kind &gt;</text>
</a>
</g>
</g>
<!-- Node2 -->
<g id="Node000002" class="node">
<title>Node2</title>
<g id="a_Node000002"><a xlink:href="classllvm_1_1codeview_1_1CVRecord.html" target="_top" xlink:title=" ">
<polygon fill="white" stroke="#666666" points="133,-30.5 0,-30.5 0,0 133,0 133,-30.5"/>
<text xml:space="preserve" text-anchor="start" x="8" y="-17" font-family="Helvetica,sans-Serif" font-size="10.00">llvm::codeview::CVRecord</text>
<text xml:space="preserve" text-anchor="middle" x="66.5" y="-5.75" font-family="Helvetica,sans-Serif" font-size="10.00">&lt; TypeLeafKind &gt;</text>
</a>
</g>
</g>
<!-- Node1&#45;&gt;Node2 -->
<g id="edge1_Node000001_Node000002" class="edge">
<title>Node1&#45;&gt;Node2</title>
<g id="a_edge1_Node000001_Node000002"><a xlink:title=" ">
<path fill="none" stroke="orange" stroke-dasharray="5,2" d="M120.47,-75.08C107.43,-60.86 91.06,-43.02 79.79,-30.74"/>
<polygon fill="orange" stroke="orange" points="117.73,-77.27 127.07,-82.27 122.89,-72.53 117.73,-77.27"/>
</a>
</g>
<text xml:space="preserve" text-anchor="start" x="113.72" y="-54.5" font-family="Helvetica,sans-Serif" font-size="10.00" fill="grey">&lt; TypeLeafKind &gt;</text>
</g>
<!-- Node3 -->
<g id="Node000003" class="node">
<title>Node3</title>
<g id="a_Node000003"><a xlink:href="classllvm_1_1codeview_1_1CVRecord.html" target="_top" xlink:title=" ">
<polygon fill="white" stroke="#666666" points="284,-30.5 151,-30.5 151,0 284,0 284,-30.5"/>
<text xml:space="preserve" text-anchor="start" x="159" y="-17" font-family="Helvetica,sans-Serif" font-size="10.00">llvm::codeview::CVRecord</text>
<text xml:space="preserve" text-anchor="middle" x="217.5" y="-5.75" font-family="Helvetica,sans-Serif" font-size="10.00">&lt; SymbolKind &gt;</text>
</a>
</g>
</g>
<!-- Node1&#45;&gt;Node3 -->
<g id="edge2_Node000001_Node000003" class="edge">
<title>Node1&#45;&gt;Node3</title>
<g id="a_edge2_Node000001_Node000003"><a xlink:title=" ">
<path fill="none" stroke="orange" stroke-dasharray="5,2" d="M182.6,-77.26C187.3,-73.82 191.75,-69.98 195.5,-65.75 204.48,-55.62 210.32,-41.22 213.71,-30.56"/>
<polygon fill="orange" stroke="orange" points="181.04,-74.09 174.62,-82.52 184.89,-79.94 181.04,-74.09"/>
</a>
</g>
<text xml:space="preserve" text-anchor="start" x="209.01" y="-54.5" font-family="Helvetica,sans-Serif" font-size="10.00" fill="grey">&lt; SymbolKind &gt;</text>
</g>
</g>
</svg>
