<?xml version="1.0" encoding="UTF-8" standalone="no"?>
<!DOCTYPE svg PUBLIC "-//W3C//DTD SVG 1.1//EN"
 "http://www.w3.org/Graphics/SVG/1.1/DTD/svg11.dtd">
<!-- Generated by graphviz version 14.1.3 (20260303.0454)
 -->
<!-- Title: llvm::ScheduleDAGInstrs::Value2SUsMap Pages: 1 -->
<svg width="1208pt" height="181pt"
 viewBox="0.00 0.00 1208.00 181.00" xmlns="http://www.w3.org/2000/svg" xmlns:xlink="http://www.w3.org/1999/xlink">
<g id="graph0" class="graph" transform="scale(1 1) rotate(0) translate(4 176.53)">
<title>llvm::ScheduleDAGInstrs::Value2SUsMap</title>
<!-- Node1 -->
<g id="Node000001" class="node">
<title>Node1</title>
<g id="a_Node000001"><a xlink:title=" ">
<polygon fill="#999999" stroke="#666666" points="1200.25,-84.38 1073.25,-84.38 1073.25,-53.88 1200.25,-53.88 1200.25,-84.38"/>
<text xml:space="preserve" text-anchor="start" x="1081.25" y="-70.88" font-family="Helvetica,sans-Serif" font-size="10.00">llvm::ScheduleDAGInstrs</text>
<text xml:space="preserve" text-anchor="middle" x="1136.75" y="-59.62" font-family="Helvetica,sans-Serif" font-size="10.00">::Value2SUsMap</text>
</a>
</g>
</g>
<!-- Node2 -->
<g id="Node000002" class="node">
<title>Node2</title>
<g id="a_Node000002"><a xlink:href="structllvm_1_1SmallMapVector.html" target="_top" xlink:title=" ">
<polygon fill="white" stroke="#666666" points="1036.25,-84.38 910,-84.38 910,-53.88 1036.25,-53.88 1036.25,-84.38"/>
<text xml:space="preserve" text-anchor="start" x="918" y="-70.88" font-family="Helvetica,sans-Serif" font-size="10.00">llvm::SmallMapVector</text>
<text xml:space="preserve" text-anchor="middle" x="973.12" y="-59.62" font-family="Helvetica,sans-Serif" font-size="10.00">&lt; ValueType, SUList, 4 &gt;</text>
</a>
</g>
</g>
<!-- Node2&#45;&gt;Node1 -->
<g id="edge1_Node000001_Node000002" class="edge">
<title>Node2&#45;&gt;Node1</title>
<g id="a_edge1_Node000001_Node000002"><a xlink:title=" ">
<path fill="none" stroke="#63b8ff" d="M1047.9,-69.12C1056.25,-69.12 1064.7,-69.12 1072.89,-69.12"/>
<polygon fill="#63b8ff" stroke="#63b8ff" points="1048.13,-65.63 1038.13,-69.13 1048.13,-72.63 1048.13,-65.63"/>
</a>
</g>
</g>
<!-- Node3 -->
<g id="Node000003" class="node">
<title>Node3</title>
<g id="a_Node000003"><a xlink:href="classllvm_1_1MapVector.html" target="_top" xlink:title=" ">
<polygon fill="white" stroke="#666666" points="627.75,-127.25 483.5,-127.25 483.5,-63 627.75,-63 627.75,-127.25"/>
<text xml:space="preserve" text-anchor="start" x="491.5" y="-113.75" font-family="Helvetica,sans-Serif" font-size="10.00">llvm::MapVector&lt; ValueType,</text>
<text xml:space="preserve" text-anchor="start" x="491.5" y="-102.5" font-family="Helvetica,sans-Serif" font-size="10.00"> SUList, SmallDenseMap&lt;</text>
<text xml:space="preserve" text-anchor="start" x="491.5" y="-91.25" font-family="Helvetica,sans-Serif" font-size="10.00"> ValueType, unsigned, N &gt;</text>
<text xml:space="preserve" text-anchor="start" x="491.5" y="-80" font-family="Helvetica,sans-Serif" font-size="10.00">, SmallVector&lt; std::pair&lt;</text>
<text xml:space="preserve" text-anchor="middle" x="555.62" y="-68.75" font-family="Helvetica,sans-Serif" font-size="10.00"> ValueType, SUList &gt;, N &gt; &gt;</text>
</a>
</g>
</g>
<!-- Node3&#45;&gt;Node2 -->
<g id="edge2_Node000002_Node000003" class="edge">
<title>Node3&#45;&gt;Node2</title>
<g id="a_edge2_Node000002_Node000003"><a xlink:title=" ">
<path fill="none" stroke="#63b8ff" d="M639.42,-90.54C707.31,-86.69 805.9,-80.92 892,-75.12 897.71,-74.74 903.64,-74.33 909.58,-73.9"/>
<polygon fill="#63b8ff" stroke="#63b8ff" points="639.25,-87.04 629.47,-91.1 639.65,-94.03 639.25,-87.04"/>
</a>
</g>
</g>
<!-- Node4 -->
<g id="Node000004" class="node">
<title>Node4</title>
<g id="a_Node000004"><a xlink:href="classllvm_1_1MapVector.html" target="_top" xlink:title="This class implements a map that also provides access to all stored values in a deterministic order.">
<polygon fill="white" stroke="#666666" points="157.75,-77.38 0,-77.38 0,-46.88 157.75,-46.88 157.75,-77.38"/>
<text xml:space="preserve" text-anchor="start" x="8" y="-63.88" font-family="Helvetica,sans-Serif" font-size="10.00">llvm::MapVector&lt; KeyT,</text>
<text xml:space="preserve" text-anchor="middle" x="78.88" y="-52.62" font-family="Helvetica,sans-Serif" font-size="10.00"> ValueT, MapType, VectorType &gt;</text>
</a>
</g>
</g>
<!-- Node4&#45;&gt;Node3 -->
<g id="edge3_Node000003_Node000004" class="edge">
<title>Node4&#45;&gt;Node3</title>
<g id="a_edge3_Node000003_Node000004"><a xlink:title=" ">
<path fill="none" stroke="orange" stroke-dasharray="5,2" d="M155.08,-79.96C162.04,-81.2 169.01,-82.29 175.75,-83.12 282.2,-96.35 406.69,-97.6 483.1,-96.76"/>
<polygon fill="orange" stroke="orange" points="155.76,-76.53 145.29,-78.11 154.46,-83.41 155.76,-76.53"/>
</a>
</g>
<text xml:space="preserve" text-anchor="start" x="178.75" y="-161.28" font-family="Helvetica,sans-Serif" font-size="10.00" fill="grey">&lt; ValueType, SUList,</text>
<text xml:space="preserve" text-anchor="start" x="178.75" y="-146.03" font-family="Helvetica,sans-Serif" font-size="10.00" fill="grey">   SmallDenseMap&lt; ValueType,</text>
<text xml:space="preserve" text-anchor="start" x="178.75" y="-130.78" font-family="Helvetica,sans-Serif" font-size="10.00" fill="grey">   unsigned, N &gt;, SmallVector</text>
<text xml:space="preserve" text-anchor="start" x="178.75" y="-115.53" font-family="Helvetica,sans-Serif" font-size="10.00" fill="grey">  &lt; std::pair&lt; ValueType, SUList</text>
<text xml:space="preserve" text-anchor="start" x="178.75" y="-100.28" font-family="Helvetica,sans-Serif" font-size="10.00" fill="grey">   &gt;, N &gt; &gt;</text>
</g>
<!-- Node6 -->
<g id="Node000006" class="node">
<title>Node6</title>
<g id="a_Node000006"><a xlink:href="classllvm_1_1MapVector.html" target="_top" xlink:title=" ">
<polygon fill="white" stroke="#666666" points="465.5,-64.25 340,-64.25 340,0 465.5,0 465.5,-64.25"/>
<text xml:space="preserve" text-anchor="start" x="348" y="-50.75" font-family="Helvetica,sans-Serif" font-size="10.00">llvm::MapVector&lt; KeyT,</text>
<text xml:space="preserve" text-anchor="start" x="348" y="-39.5" font-family="Helvetica,sans-Serif" font-size="10.00"> ValueT, SmallDenseMap</text>
<text xml:space="preserve" text-anchor="start" x="348" y="-28.25" font-family="Helvetica,sans-Serif" font-size="10.00">&lt; KeyT, unsigned, N &gt;,</text>
<text xml:space="preserve" text-anchor="start" x="348" y="-17" font-family="Helvetica,sans-Serif" font-size="10.00"> SmallVector&lt; std::pair</text>
<text xml:space="preserve" text-anchor="middle" x="402.75" y="-5.75" font-family="Helvetica,sans-Serif" font-size="10.00">&lt; KeyT, ValueT &gt;, N &gt; &gt;</text>
</a>
</g>
</g>
<!-- Node4&#45;&gt;Node6 -->
<g id="edge6_Node000006_Node000004" class="edge">
<title>Node4&#45;&gt;Node6</title>
<g id="a_edge6_Node000006_Node000004"><a xlink:title=" ">
<path fill="none" stroke="orange" stroke-dasharray="5,2" d="M117.56,-41.31C134.76,-32.95 155.72,-24.32 175.75,-20.12 230.36,-8.69 293.92,-13.63 339.7,-20.3"/>
<polygon fill="orange" stroke="orange" points="116.09,-38.13 108.73,-45.75 119.24,-44.38 116.09,-38.13"/>
</a>
</g>
<text xml:space="preserve" text-anchor="start" x="186.62" y="-71.88" font-family="Helvetica,sans-Serif" font-size="10.00" fill="grey">&lt; KeyT, ValueT, SmallDense</text>
<text xml:space="preserve" text-anchor="start" x="186.62" y="-56.62" font-family="Helvetica,sans-Serif" font-size="10.00" fill="grey">  Map&lt; KeyT, unsigned, N</text>
<text xml:space="preserve" text-anchor="start" x="186.62" y="-41.38" font-family="Helvetica,sans-Serif" font-size="10.00" fill="grey">   &gt;, SmallVector&lt; std::pair</text>
<text xml:space="preserve" text-anchor="start" x="186.62" y="-26.12" font-family="Helvetica,sans-Serif" font-size="10.00" fill="grey">  &lt; KeyT, ValueT &gt;, N &gt; &gt;</text>
</g>
<!-- Node5 -->
<g id="Node000005" class="node">
<title>Node5</title>
<g id="a_Node000005"><a xlink:href="structllvm_1_1SmallMapVector.html" target="_top" xlink:title="A MapVector that performs no allocations if smaller than a certain size.">
<polygon fill="white" stroke="#666666" points="757.75,-55.38 645.75,-55.38 645.75,-24.88 757.75,-24.88 757.75,-55.38"/>
<text xml:space="preserve" text-anchor="start" x="653.75" y="-41.88" font-family="Helvetica,sans-Serif" font-size="10.00">llvm::SmallMapVector</text>
<text xml:space="preserve" text-anchor="middle" x="701.75" y="-30.62" font-family="Helvetica,sans-Serif" font-size="10.00">&lt; KeyT, ValueT, N &gt;</text>
</a>
</g>
</g>
<!-- Node5&#45;&gt;Node2 -->
<g id="edge4_Node000002_Node000005" class="edge">
<title>Node5&#45;&gt;Node2</title>
<g id="a_edge4_Node000002_Node000005"><a xlink:title=" ">
<path fill="none" stroke="orange" stroke-dasharray="5,2" d="M769.33,-45.62C805.63,-48.8 851.33,-53.12 892,-57.88 897.72,-58.54 903.66,-59.29 909.61,-60.06"/>
<polygon fill="orange" stroke="orange" points="769.66,-42.13 759.4,-44.75 769.06,-49.11 769.66,-42.13"/>
</a>
</g>
<text xml:space="preserve" text-anchor="start" x="778.75" y="-63.88" font-family="Helvetica,sans-Serif" font-size="10.00" fill="grey">&lt; ValueType, SUList, 4 &gt;</text>
</g>
<!-- Node6&#45;&gt;Node5 -->
<g id="edge5_Node000005_Node000006" class="edge">
<title>Node6&#45;&gt;Node5</title>
<g id="a_edge5_Node000005_Node000006"><a xlink:title=" ">
<path fill="none" stroke="#63b8ff" d="M477.16,-34.1C529.21,-35.5 597.98,-37.36 645.44,-38.64"/>
<polygon fill="#63b8ff" stroke="#63b8ff" points="477.25,-30.6 467.16,-33.83 477.06,-37.6 477.25,-30.6"/>
</a>
</g>
</g>
</g>
</svg>
