<?xml version="1.0" encoding="UTF-8" standalone="no"?>
<!DOCTYPE svg PUBLIC "-//W3C//DTD SVG 1.1//EN"
 "http://www.w3.org/Graphics/SVG/1.1/DTD/svg11.dtd">
<!-- Generated by graphviz version 14.1.3 (20260303.0454)
 -->
<!-- Title: llvm::StringMapIterBase&lt; ValueTy, IsConst &gt; Pages: 1 -->
<svg width="371pt" height="88pt"
 viewBox="0.00 0.00 371.00 88.00" xmlns="http://www.w3.org/2000/svg" xmlns:xlink="http://www.w3.org/1999/xlink">
<g id="graph0" class="graph" transform="scale(1 1) rotate(0) translate(4 83.5)">
<title>llvm::StringMapIterBase&lt; ValueTy, IsConst &gt;</title>
<!-- Node1 -->
<g id="Node000001" class="node">
<title>Node1</title>
<g id="a_Node000001"><a xlink:title=" ">
<polygon fill="#999999" stroke="#666666" points="121,-54.5 0,-54.5 0,-24 121,-24 121,-54.5"/>
<text xml:space="preserve" text-anchor="start" x="8" y="-41" font-family="Helvetica,sans-Serif" font-size="10.00">llvm::StringMapIterBase</text>
<text xml:space="preserve" text-anchor="middle" x="60.5" y="-29.75" font-family="Helvetica,sans-Serif" font-size="10.00">&lt; ValueTy, IsConst &gt;</text>
</a>
</g>
</g>
<!-- Node2 -->
<g id="Node000002" class="node">
<title>Node2</title>
<g id="a_Node000002"><a xlink:href="classllvm_1_1StringMapIterBase.html" target="_top" xlink:title=" ">
<polygon fill="white" stroke="#666666" points="362.75,-79.5 241.75,-79.5 241.75,-49 362.75,-49 362.75,-79.5"/>
<text xml:space="preserve" text-anchor="start" x="249.75" y="-66" font-family="Helvetica,sans-Serif" font-size="10.00">llvm::StringMapIterBase</text>
<text xml:space="preserve" text-anchor="middle" x="302.25" y="-54.75" font-family="Helvetica,sans-Serif" font-size="10.00">&lt; ValueTy, true &gt;</text>
</a>
</g>
</g>
<!-- Node1&#45;&gt;Node2 -->
<g id="edge1_Node000001_Node000002" class="edge">
<title>Node1&#45;&gt;Node2</title>
<g id="a_edge1_Node000001_Node000002"><a xlink:title=" ">
<path fill="none" stroke="orange" stroke-dasharray="5,2" d="M132.83,-46.69C167.37,-50.29 208.39,-54.57 241.3,-58"/>
<polygon fill="orange" stroke="orange" points="133.2,-43.21 122.89,-45.65 132.47,-50.17 133.2,-43.21"/>
</a>
</g>
<text xml:space="preserve" text-anchor="start" x="144.25" y="-62.16" font-family="Helvetica,sans-Serif" font-size="10.00" fill="grey">&lt; ValueTy, true &gt;</text>
</g>
<!-- Node3 -->
<g id="Node000003" class="node">
<title>Node3</title>
<g id="a_Node000003"><a xlink:href="classllvm_1_1StringMapIterBase.html" target="_top" xlink:title=" ">
<polygon fill="white" stroke="#666666" points="362.75,-30.5 241.75,-30.5 241.75,0 362.75,0 362.75,-30.5"/>
<text xml:space="preserve" text-anchor="start" x="249.75" y="-17" font-family="Helvetica,sans-Serif" font-size="10.00">llvm::StringMapIterBase</text>
<text xml:space="preserve" text-anchor="middle" x="302.25" y="-5.75" font-family="Helvetica,sans-Serif" font-size="10.00">&lt; ValueTy, false &gt;</text>
</a>
</g>
</g>
<!-- Node1&#45;&gt;Node3 -->
<g id="edge2_Node000001_Node000003" class="edge">
<title>Node1&#45;&gt;Node3</title>
<g id="a_edge2_Node000001_Node000003"><a xlink:title=" ">
<path fill="none" stroke="orange" stroke-dasharray="5,2" d="M132.78,-25.8C134.87,-25.52 136.95,-25.25 139,-25 172.76,-20.9 210.68,-18.5 241.37,-17.11"/>
<polygon fill="orange" stroke="orange" points="132.35,-22.33 122.97,-27.26 133.37,-29.25 132.35,-22.33"/>
</a>
</g>
<text xml:space="preserve" text-anchor="start" x="142" y="-31" font-family="Helvetica,sans-Serif" font-size="10.00" fill="grey">&lt; ValueTy, false &gt;</text>
</g>
</g>
</svg>
