<?xml version="1.0" encoding="UTF-8" standalone="no"?>
<!DOCTYPE svg PUBLIC "-//W3C//DTD SVG 1.1//EN"
 "http://www.w3.org/Graphics/SVG/1.1/DTD/svg11.dtd">
<!-- Generated by graphviz version 14.1.3 (20260303.0454)
 -->
<!-- Title: lib/Target/PowerPC Pages: 1 -->
<svg width="344pt" height="236pt"
 viewBox="0.00 0.00 344.00 236.00" xmlns="http://www.w3.org/2000/svg" xmlns:xlink="http://www.w3.org/1999/xlink">
<g id="graph0" class="graph" transform="scale(1 1) rotate(0) translate(4 232.25)">
<title>lib/Target/PowerPC</title>
<g id="clust1" class="cluster">
<title>clusterdir_794e483eb1cc7921d35fd149d9cc325b</title>
<g id="a_clust1"><a xlink:href="dir_794e483eb1cc7921d35fd149d9cc325b.html" target="_top" xlink:title="Target">
<polygon fill="#edf0f7" stroke="#7f7f7f" stroke-dasharray="5,2" points="8,-39.25 8,-220.25 274,-220.25 274,-39.25 8,-39.25"/>
<text xml:space="preserve" text-anchor="middle" x="141" y="-206.75" font-family="Helvetica,sans-Serif" font-size="10.00">Target</text>
</a>
</g>
</g>
<g id="clust2" class="cluster">
<title>clusterdir_1854d513cb8eef295481a59a854f7656</title>
<g id="a_clust2"><a xlink:href="dir_1854d513cb8eef295481a59a854f7656.html" target="_top">
<polygon fill="#edf0f7" stroke="#404040" stroke-width="2" points="16,-47.25 16,-193 266,-193 266,-47.25 16,-47.25"/>
</a>
</g>
</g>
<!-- dir_1854d513cb8eef295481a59a854f7656 -->
<g id="node1" class="node">
<title>dir_1854d513cb8eef295481a59a854f7656</title>
<text xml:space="preserve" text-anchor="middle" x="135" y="-171.5" font-family="Helvetica,sans-Serif" font-size="10.00">PowerPC</text>
</g>
<!-- dir_bfbb8cf7bea8d13e71bdabb67feef033 -->
<g id="node4" class="node">
<title>dir_bfbb8cf7bea8d13e71bdabb67feef033</title>
<g id="a_node4"><a xlink:href="dir_bfbb8cf7bea8d13e71bdabb67feef033.html" target="_top" xlink:title="GISel">
<polygon fill="#a2b4d6" stroke="#404040" points="239.38,-129.75 198.62,-129.75 198.62,-110.5 239.38,-110.5 239.38,-129.75"/>
<text xml:space="preserve" text-anchor="middle" x="219" y="-116.25" font-family="Helvetica,sans-Serif" font-size="10.00">GISel</text>
</a>
</g>
</g>
<!-- dir_1854d513cb8eef295481a59a854f7656&#45;&gt;dir_bfbb8cf7bea8d13e71bdabb67feef033 -->
<g id="edge3" class="edge">
<title>dir_1854d513cb8eef295481a59a854f7656&#45;&gt;dir_bfbb8cf7bea8d13e71bdabb67feef033</title>
<g id="a_edge3"><a xlink:href="dir_000279_000143.html" target="_top">
<path fill="none" stroke="#63b8ff" d="M148.5,-165.82C161.01,-157.89 179.9,-145.91 194.99,-136.35"/>
<polygon fill="#63b8ff" stroke="#63b8ff" points="196.84,-139.31 203.42,-131 193.1,-133.4 196.84,-139.31"/>
</a>
</g>
<g id="a_edge3&#45;headlabel"><a xlink:href="dir_000279_000143.html" target="_top" xlink:title="3">
<text xml:space="preserve" text-anchor="middle" x="196.61" y="-138.95" font-family="Helvetica,sans-Serif" font-size="10.00" fill="#63b8ff">3</text>
</a>
</g>
</g>
<!-- dir_5145c5eb0f1c1165a8aedc8d28dc1d66 -->
<g id="node5" class="node">
<title>dir_5145c5eb0f1c1165a8aedc8d28dc1d66</title>
<g id="a_node5"><a xlink:href="dir_5145c5eb0f1c1165a8aedc8d28dc1d66.html" target="_top" xlink:title="MCTargetDesc">
<polygon fill="#a2b4d6" stroke="#404040" points="161,-129.75 79,-129.75 79,-110.5 161,-110.5 161,-129.75"/>
<text xml:space="preserve" text-anchor="middle" x="120" y="-116.25" font-family="Helvetica,sans-Serif" font-size="10.00">MCTargetDesc</text>
</a>
</g>
</g>
<!-- dir_1854d513cb8eef295481a59a854f7656&#45;&gt;dir_5145c5eb0f1c1165a8aedc8d28dc1d66 -->
<g id="edge1" class="edge">
<title>dir_1854d513cb8eef295481a59a854f7656&#45;&gt;dir_5145c5eb0f1c1165a8aedc8d28dc1d66</title>
<g id="a_edge1"><a xlink:href="dir_000279_000230.html" target="_top">
<path fill="none" stroke="#63b8ff" d="M132.66,-166.05C130.75,-159.3 127.99,-149.49 125.53,-140.76"/>
<polygon fill="#63b8ff" stroke="#63b8ff" points="128.97,-140.05 122.89,-131.37 122.23,-141.95 128.97,-140.05"/>
</a>
</g>
<g id="a_edge1&#45;headlabel"><a xlink:href="dir_000279_000230.html" target="_top" xlink:title="27">
<text xml:space="preserve" text-anchor="middle" x="132.26" y="-137.41" font-family="Helvetica,sans-Serif" font-size="10.00" fill="#63b8ff">27</text>
</a>
</g>
</g>
<!-- dir_9caa13905757761738893b9bf4320c4b -->
<g id="node6" class="node">
<title>dir_9caa13905757761738893b9bf4320c4b</title>
<g id="a_node6"><a xlink:href="dir_9caa13905757761738893b9bf4320c4b.html" target="_top" xlink:title="TargetInfo">
<polygon fill="#a2b4d6" stroke="#404040" points="149.75,-74.5 90.25,-74.5 90.25,-55.25 149.75,-55.25 149.75,-74.5"/>
<text xml:space="preserve" text-anchor="middle" x="120" y="-61" font-family="Helvetica,sans-Serif" font-size="10.00">TargetInfo</text>
</a>
</g>
</g>
<!-- dir_1854d513cb8eef295481a59a854f7656&#45;&gt;dir_9caa13905757761738893b9bf4320c4b -->
<g id="edge2" class="edge">
<title>dir_1854d513cb8eef295481a59a854f7656&#45;&gt;dir_9caa13905757761738893b9bf4320c4b</title>
<g id="a_edge2"><a xlink:href="dir_000279_000333.html" target="_top">
<path fill="none" stroke="#63b8ff" d="M112.88,-165.79C97.8,-158.63 78.99,-146.83 70,-129.75 60.42,-111.56 78.02,-93.35 94.92,-81.05"/>
<polygon fill="#63b8ff" stroke="#63b8ff" points="96.49,-84.22 102.81,-75.71 92.56,-78.42 96.49,-84.22"/>
</a>
</g>
<g id="a_edge2&#45;headlabel"><a xlink:href="dir_000279_000333.html" target="_top" xlink:title="5">
<text xml:space="preserve" text-anchor="middle" x="96.36" y="-83.86" font-family="Helvetica,sans-Serif" font-size="10.00" fill="#63b8ff">5</text>
</a>
</g>
</g>
<!-- dir_d44c64559bbebec7f509842c48db8b23 -->
<g id="node7" class="node">
<title>dir_d44c64559bbebec7f509842c48db8b23</title>
<g id="a_node7"><a xlink:href="dir_d44c64559bbebec7f509842c48db8b23.html" target="_top" xlink:title="include">
<polygon fill="#edf0f7" stroke="red" points="271.38,-19.25 224.62,-19.25 224.62,0 271.38,0 271.38,-19.25"/>
<text xml:space="preserve" text-anchor="middle" x="248" y="-5.75" font-family="Helvetica,sans-Serif" font-size="10.00">include</text>
</a>
</g>
</g>
<!-- dir_1854d513cb8eef295481a59a854f7656&#45;&gt;dir_d44c64559bbebec7f509842c48db8b23 -->
<g id="edge4" class="edge">
<title>dir_1854d513cb8eef295481a59a854f7656&#45;&gt;dir_d44c64559bbebec7f509842c48db8b23</title>
<g id="a_edge4"><a xlink:href="dir_000279_000157.html" target="_top">
<path fill="none" stroke="#63b8ff" d="M163.75,-167.53C204.22,-157.61 273.89,-139.36 281,-129.75 304.93,-97.42 297.7,-75.84 281,-39.25 278.85,-34.54 275.51,-30.31 271.75,-26.64"/>
<polygon fill="#63b8ff" stroke="#63b8ff" points="274.28,-24.19 264.35,-20.48 269.8,-29.57 274.28,-24.19"/>
</a>
</g>
<g id="a_edge4&#45;headlabel"><a xlink:href="dir_000279_000157.html" target="_top" xlink:title="682">
<text xml:space="preserve" text-anchor="middle" x="277.7" y="-19.46" font-family="Helvetica,sans-Serif" font-size="10.00" fill="#63b8ff">682</text>
</a>
</g>
</g>
<!-- dir_36a151665040f40949985924b1b31d4c -->
<g id="node2" class="node">
<title>dir_36a151665040f40949985924b1b31d4c</title>
<g id="a_node2"><a xlink:href="dir_36a151665040f40949985924b1b31d4c.html" target="_top" xlink:title="AsmParser">
<polygon fill="#a2b4d6" stroke="#404040" points="88.38,-185 23.62,-185 23.62,-165.75 88.38,-165.75 88.38,-185"/>
<text xml:space="preserve" text-anchor="middle" x="56" y="-171.5" font-family="Helvetica,sans-Serif" font-size="10.00">AsmParser</text>
</a>
</g>
</g>
<!-- dir_36a151665040f40949985924b1b31d4c&#45;&gt;dir_5145c5eb0f1c1165a8aedc8d28dc1d66 -->
<g id="edge5" class="edge">
<title>dir_36a151665040f40949985924b1b31d4c&#45;&gt;dir_5145c5eb0f1c1165a8aedc8d28dc1d66</title>
<g id="a_edge5"><a xlink:href="dir_000029_000230.html" target="_top">
<path fill="none" stroke="#63b8ff" d="M66.86,-165.34C76.11,-157.65 89.62,-146.4 100.71,-137.18"/>
<polygon fill="#63b8ff" stroke="#63b8ff" points="102.69,-140.08 108.14,-130.99 98.21,-134.7 102.69,-140.08"/>
</a>
</g>
<g id="a_edge5&#45;headlabel"><a xlink:href="dir_000029_000230.html" target="_top" xlink:title="3">
<text xml:space="preserve" text-anchor="middle" x="102.91" y="-139.72" font-family="Helvetica,sans-Serif" font-size="10.00" fill="#63b8ff">3</text>
</a>
</g>
</g>
<!-- dir_36a151665040f40949985924b1b31d4c&#45;&gt;dir_9caa13905757761738893b9bf4320c4b -->
<g id="edge6" class="edge">
<title>dir_36a151665040f40949985924b1b31d4c&#45;&gt;dir_9caa13905757761738893b9bf4320c4b</title>
<g id="a_edge6"><a xlink:href="dir_000029_000333.html" target="_top">
<path fill="none" stroke="#63b8ff" d="M54.9,-165.47C53.74,-152.5 53.23,-128.05 63,-110.5 69.74,-98.39 81.24,-88.44 92.16,-81.03"/>
<polygon fill="#63b8ff" stroke="#63b8ff" points="93.97,-84.02 100.59,-75.75 90.25,-78.09 93.97,-84.02"/>
</a>
</g>
<g id="a_edge6&#45;headlabel"><a xlink:href="dir_000029_000333.html" target="_top" xlink:title="1">
<text xml:space="preserve" text-anchor="middle" x="93.71" y="-83.66" font-family="Helvetica,sans-Serif" font-size="10.00" fill="#63b8ff">1</text>
</a>
</g>
</g>
<!-- dir_36a151665040f40949985924b1b31d4c&#45;&gt;dir_d44c64559bbebec7f509842c48db8b23 -->
<g id="edge7" class="edge">
<title>dir_36a151665040f40949985924b1b31d4c&#45;&gt;dir_d44c64559bbebec7f509842c48db8b23</title>
<g id="a_edge7"><a xlink:href="dir_000029_000157.html" target="_top">
<path fill="none" stroke="#63b8ff" d="M88.47,-167.35C142.55,-155.59 245.44,-132.86 248,-129.75 271.05,-101.78 262.54,-56.28 254.88,-30.36"/>
<polygon fill="#63b8ff" stroke="#63b8ff" points="258.3,-29.55 251.9,-21.1 251.63,-31.69 258.3,-29.55"/>
</a>
</g>
<g id="a_edge7&#45;headlabel"><a xlink:href="dir_000029_000157.html" target="_top" xlink:title="16">
<text xml:space="preserve" text-anchor="middle" x="261.64" y="-26.78" font-family="Helvetica,sans-Serif" font-size="10.00" fill="#63b8ff">16</text>
</a>
</g>
</g>
<!-- dir_968c5c9b1f33bf46375badfb75e715ed -->
<g id="node3" class="node">
<title>dir_968c5c9b1f33bf46375badfb75e715ed</title>
<g id="a_node3"><a xlink:href="dir_968c5c9b1f33bf46375badfb75e715ed.html" target="_top" xlink:title="Disassembler">
<polygon fill="#a2b4d6" stroke="#404040" points="258,-185 182,-185 182,-165.75 258,-165.75 258,-185"/>
<text xml:space="preserve" text-anchor="middle" x="220" y="-171.5" font-family="Helvetica,sans-Serif" font-size="10.00">Disassembler</text>
</a>
</g>
</g>
<!-- dir_968c5c9b1f33bf46375badfb75e715ed&#45;&gt;dir_5145c5eb0f1c1165a8aedc8d28dc1d66 -->
<g id="edge8" class="edge">
<title>dir_968c5c9b1f33bf46375badfb75e715ed&#45;&gt;dir_5145c5eb0f1c1165a8aedc8d28dc1d66</title>
<g id="a_edge8"><a xlink:href="dir_000103_000230.html" target="_top">
<path fill="none" stroke="#63b8ff" d="M203.04,-165.34C187.74,-157.19 164.97,-145.07 147.14,-135.58"/>
<polygon fill="#63b8ff" stroke="#63b8ff" points="148.85,-132.52 138.38,-130.91 145.56,-138.7 148.85,-132.52"/>
</a>
</g>
<g id="a_edge8&#45;headlabel"><a xlink:href="dir_000103_000230.html" target="_top" xlink:title="1">
<text xml:space="preserve" text-anchor="middle" x="152.03" y="-127.12" font-family="Helvetica,sans-Serif" font-size="10.00" fill="#63b8ff">1</text>
</a>
</g>
</g>
<!-- dir_968c5c9b1f33bf46375badfb75e715ed&#45;&gt;dir_9caa13905757761738893b9bf4320c4b -->
<g id="edge9" class="edge">
<title>dir_968c5c9b1f33bf46375badfb75e715ed&#45;&gt;dir_9caa13905757761738893b9bf4320c4b</title>
<g id="a_edge9"><a xlink:href="dir_000103_000333.html" target="_top">
<path fill="none" stroke="#63b8ff" d="M213.68,-165.29C204.62,-152.53 187.14,-128.79 170,-110.5 160.69,-100.57 149.45,-90.39 139.98,-82.27"/>
<polygon fill="#63b8ff" stroke="#63b8ff" points="142.31,-79.66 132.4,-75.9 137.8,-85.01 142.31,-79.66"/>
</a>
</g>
<g id="a_edge9&#45;headlabel"><a xlink:href="dir_000103_000333.html" target="_top" xlink:title="1">
<text xml:space="preserve" text-anchor="middle" x="145.73" y="-74.95" font-family="Helvetica,sans-Serif" font-size="10.00" fill="#63b8ff">1</text>
</a>
</g>
</g>
<!-- dir_968c5c9b1f33bf46375badfb75e715ed&#45;&gt;dir_d44c64559bbebec7f509842c48db8b23 -->
<g id="edge10" class="edge">
<title>dir_968c5c9b1f33bf46375badfb75e715ed&#45;&gt;dir_d44c64559bbebec7f509842c48db8b23</title>
<g id="a_edge10"><a xlink:href="dir_000103_000157.html" target="_top">
<path fill="none" stroke="#63b8ff" d="M258.42,-167.62C280.18,-161.61 305.65,-150.41 319,-129.75 340.83,-95.97 341.5,-72.59 319,-39.25 310.81,-27.12 296.52,-20.12 282.9,-16.1"/>
<polygon fill="#63b8ff" stroke="#63b8ff" points="283.78,-12.71 273.23,-13.72 282.11,-19.51 283.78,-12.71"/>
</a>
</g>
<g id="a_edge10&#45;headlabel"><a xlink:href="dir_000103_000157.html" target="_top" xlink:title="8">
<text xml:space="preserve" text-anchor="middle" x="286.48" y="-6.57" font-family="Helvetica,sans-Serif" font-size="10.00" fill="#63b8ff">8</text>
</a>
</g>
</g>
<!-- dir_bfbb8cf7bea8d13e71bdabb67feef033&#45;&gt;dir_d44c64559bbebec7f509842c48db8b23 -->
<g id="edge11" class="edge">
<title>dir_bfbb8cf7bea8d13e71bdabb67feef033&#45;&gt;dir_d44c64559bbebec7f509842c48db8b23</title>
<g id="a_edge11"><a xlink:href="dir_000143_000157.html" target="_top">
<path fill="none" stroke="#63b8ff" d="M221.37,-110.25C226,-92.92 236.35,-54.23 242.69,-30.49"/>
<polygon fill="#63b8ff" stroke="#63b8ff" points="246,-31.65 245.2,-21.09 239.24,-29.85 246,-31.65"/>
</a>
</g>
<g id="a_edge11&#45;headlabel"><a xlink:href="dir_000143_000157.html" target="_top" xlink:title="21">
<text xml:space="preserve" text-anchor="middle" x="248.21" y="-30.52" font-family="Helvetica,sans-Serif" font-size="10.00" fill="#63b8ff">21</text>
</a>
</g>
</g>
<!-- dir_5145c5eb0f1c1165a8aedc8d28dc1d66&#45;&gt;dir_9caa13905757761738893b9bf4320c4b -->
<g id="edge12" class="edge">
<title>dir_5145c5eb0f1c1165a8aedc8d28dc1d66&#45;&gt;dir_9caa13905757761738893b9bf4320c4b</title>
<g id="a_edge12"><a xlink:href="dir_000230_000333.html" target="_top">
<path fill="none" stroke="#63b8ff" d="M120,-110.33C120,-103.82 120,-94.67 120,-86.37"/>
<polygon fill="#63b8ff" stroke="#63b8ff" points="123.5,-86.37 120,-76.37 116.5,-86.37 123.5,-86.37"/>
</a>
</g>
<g id="a_edge12&#45;headlabel"><a xlink:href="dir_000230_000333.html" target="_top" xlink:title="1">
<text xml:space="preserve" text-anchor="middle" x="126.34" y="-84.58" font-family="Helvetica,sans-Serif" font-size="10.00" fill="#63b8ff">1</text>
</a>
</g>
</g>
<!-- dir_5145c5eb0f1c1165a8aedc8d28dc1d66&#45;&gt;dir_d44c64559bbebec7f509842c48db8b23 -->
<g id="edge13" class="edge">
<title>dir_5145c5eb0f1c1165a8aedc8d28dc1d66&#45;&gt;dir_d44c64559bbebec7f509842c48db8b23</title>
<g id="a_edge13"><a xlink:href="dir_000230_000157.html" target="_top">
<path fill="none" stroke="#63b8ff" d="M130.47,-110.25C151.95,-92.05 201.23,-50.27 228.67,-27.01"/>
<polygon fill="#63b8ff" stroke="#63b8ff" points="230.86,-29.74 236.23,-20.61 226.33,-24.4 230.86,-29.74"/>
</a>
</g>
<g id="a_edge13&#45;headlabel"><a xlink:href="dir_000230_000157.html" target="_top" xlink:title="111">
<text xml:space="preserve" text-anchor="middle" x="231.11" y="-29.38" font-family="Helvetica,sans-Serif" font-size="10.00" fill="#63b8ff">111</text>
</a>
</g>
</g>
<!-- dir_9caa13905757761738893b9bf4320c4b&#45;&gt;dir_d44c64559bbebec7f509842c48db8b23 -->
<g id="edge14" class="edge">
<title>dir_9caa13905757761738893b9bf4320c4b&#45;&gt;dir_d44c64559bbebec7f509842c48db8b23</title>
<g id="a_edge14"><a xlink:href="dir_000333_000157.html" target="_top">
<path fill="none" stroke="#63b8ff" d="M137.75,-54.8C147.47,-49.96 159.78,-44.03 171,-39.25 184.74,-33.4 200.11,-27.54 213.49,-22.67"/>
<polygon fill="#63b8ff" stroke="#63b8ff" points="214.53,-26.02 222.76,-19.34 212.16,-19.43 214.53,-26.02"/>
</a>
</g>
<g id="a_edge14&#45;headlabel"><a xlink:href="dir_000333_000157.html" target="_top" xlink:title="2">
<text xml:space="preserve" text-anchor="middle" x="213.53" y="-25.52" font-family="Helvetica,sans-Serif" font-size="10.00" fill="#63b8ff">2</text>
</a>
</g>
</g>
</g>
</svg>
