<?xml version="1.0" encoding="UTF-8" standalone="no"?>
<!DOCTYPE svg PUBLIC "-//W3C//DTD SVG 1.1//EN"
 "http://www.w3.org/Graphics/SVG/1.1/DTD/svg11.dtd">
<!-- Generated by graphviz version 14.1.3 (20260303.0454)
 -->
<!-- Title: lib/Target/ARC Pages: 1 -->
<svg width="210pt" height="236pt"
 viewBox="0.00 0.00 210.00 236.00" xmlns="http://www.w3.org/2000/svg" xmlns:xlink="http://www.w3.org/1999/xlink">
<g id="graph0" class="graph" transform="scale(1 1) rotate(0) translate(4 232.25)">
<title>lib/Target/ARC</title>
<g id="clust1" class="cluster">
<title>clusterdir_794e483eb1cc7921d35fd149d9cc325b</title>
<g id="a_clust1"><a xlink:href="dir_794e483eb1cc7921d35fd149d9cc325b.html" target="_top" xlink:title="Target">
<polygon fill="#edf0f7" stroke="#7f7f7f" stroke-dasharray="5,2" points="8,-39.25 8,-220.25 172,-220.25 172,-39.25 8,-39.25"/>
<text xml:space="preserve" text-anchor="middle" x="90" y="-206.75" font-family="Helvetica,sans-Serif" font-size="10.00">Target</text>
</a>
</g>
</g>
<g id="clust2" class="cluster">
<title>clusterdir_570b8dfaee4849cdbe8f7b4195b963a2</title>
<g id="a_clust2"><a xlink:href="dir_570b8dfaee4849cdbe8f7b4195b963a2.html" target="_top">
<polygon fill="#edf0f7" stroke="#404040" stroke-width="2" points="16,-47.25 16,-193 164,-193 164,-47.25 16,-47.25"/>
</a>
</g>
</g>
<!-- dir_570b8dfaee4849cdbe8f7b4195b963a2 -->
<g id="node1" class="node">
<title>dir_570b8dfaee4849cdbe8f7b4195b963a2</title>
<text xml:space="preserve" text-anchor="middle" x="43" y="-171.5" font-family="Helvetica,sans-Serif" font-size="10.00">ARC</text>
</g>
<!-- dir_1ed7ae2b4078b173511f50255713b9af -->
<g id="node3" class="node">
<title>dir_1ed7ae2b4078b173511f50255713b9af</title>
<g id="a_node3"><a xlink:href="dir_1ed7ae2b4078b173511f50255713b9af.html" target="_top" xlink:title="MCTargetDesc">
<polygon fill="#a2b4d6" stroke="#404040" points="126,-129.75 44,-129.75 44,-110.5 126,-110.5 126,-129.75"/>
<text xml:space="preserve" text-anchor="middle" x="85" y="-116.25" font-family="Helvetica,sans-Serif" font-size="10.00">MCTargetDesc</text>
</a>
</g>
</g>
<!-- dir_570b8dfaee4849cdbe8f7b4195b963a2&#45;&gt;dir_1ed7ae2b4078b173511f50255713b9af -->
<g id="edge1" class="edge">
<title>dir_570b8dfaee4849cdbe8f7b4195b963a2&#45;&gt;dir_1ed7ae2b4078b173511f50255713b9af</title>
<g id="a_edge1"><a xlink:href="dir_000013_000217.html" target="_top">
<path fill="none" stroke="#63b8ff" d="M49.56,-166.05C55.32,-158.76 63.87,-147.91 71.13,-138.7"/>
<polygon fill="#63b8ff" stroke="#63b8ff" points="73.68,-141.13 77.13,-131.11 68.19,-136.79 73.68,-141.13"/>
</a>
</g>
<g id="a_edge1&#45;headlabel"><a xlink:href="dir_000013_000217.html" target="_top" xlink:title="7">
<text xml:space="preserve" text-anchor="middle" x="74.62" y="-140.64" font-family="Helvetica,sans-Serif" font-size="10.00" fill="#63b8ff">7</text>
</a>
</g>
</g>
<!-- dir_50a3ea2d52724bfaac80c4952ce6101f -->
<g id="node4" class="node">
<title>dir_50a3ea2d52724bfaac80c4952ce6101f</title>
<g id="a_node4"><a xlink:href="dir_50a3ea2d52724bfaac80c4952ce6101f.html" target="_top" xlink:title="TargetInfo">
<polygon fill="#a2b4d6" stroke="#404040" points="107.75,-74.5 48.25,-74.5 48.25,-55.25 107.75,-55.25 107.75,-74.5"/>
<text xml:space="preserve" text-anchor="middle" x="78" y="-61" font-family="Helvetica,sans-Serif" font-size="10.00">TargetInfo</text>
</a>
</g>
</g>
<!-- dir_570b8dfaee4849cdbe8f7b4195b963a2&#45;&gt;dir_50a3ea2d52724bfaac80c4952ce6101f -->
<g id="edge2" class="edge">
<title>dir_570b8dfaee4849cdbe8f7b4195b963a2&#45;&gt;dir_50a3ea2d52724bfaac80c4952ce6101f</title>
<g id="a_edge2"><a xlink:href="dir_000013_000320.html" target="_top">
<path fill="none" stroke="#63b8ff" d="M39.31,-165.76C34.49,-153.16 27.47,-129.16 35,-110.5 39.43,-99.51 48.01,-89.71 56.35,-82.12"/>
<polygon fill="#63b8ff" stroke="#63b8ff" points="58.52,-84.87 63.93,-75.77 54.02,-79.51 58.52,-84.87"/>
</a>
</g>
<g id="a_edge2&#45;headlabel"><a xlink:href="dir_000013_000320.html" target="_top" xlink:title="4">
<text xml:space="preserve" text-anchor="middle" x="58.75" y="-84.51" font-family="Helvetica,sans-Serif" font-size="10.00" fill="#63b8ff">4</text>
</a>
</g>
</g>
<!-- dir_d44c64559bbebec7f509842c48db8b23 -->
<g id="node5" class="node">
<title>dir_d44c64559bbebec7f509842c48db8b23</title>
<g id="a_node5"><a xlink:href="dir_d44c64559bbebec7f509842c48db8b23.html" target="_top" xlink:title="include">
<polygon fill="#edf0f7" stroke="red" points="178.38,-19.25 131.62,-19.25 131.62,0 178.38,0 178.38,-19.25"/>
<text xml:space="preserve" text-anchor="middle" x="155" y="-5.75" font-family="Helvetica,sans-Serif" font-size="10.00">include</text>
</a>
</g>
</g>
<!-- dir_570b8dfaee4849cdbe8f7b4195b963a2&#45;&gt;dir_d44c64559bbebec7f509842c48db8b23 -->
<g id="edge3" class="edge">
<title>dir_570b8dfaee4849cdbe8f7b4195b963a2&#45;&gt;dir_d44c64559bbebec7f509842c48db8b23</title>
<g id="a_edge3"><a xlink:href="dir_000013_000157.html" target="_top">
<path fill="none" stroke="#63b8ff" d="M61.59,-167.69C85.66,-158.66 125.64,-142.25 135,-129.75 156.83,-100.6 158.25,-56.18 156.9,-30.62"/>
<polygon fill="#63b8ff" stroke="#63b8ff" points="160.41,-30.67 156.18,-20.96 153.43,-31.19 160.41,-30.67"/>
</a>
</g>
<g id="a_edge3&#45;headlabel"><a xlink:href="dir_000013_000157.html" target="_top" xlink:title="135">
<text xml:space="preserve" text-anchor="middle" x="163.4" y="-28.66" font-family="Helvetica,sans-Serif" font-size="10.00" fill="#63b8ff">135</text>
</a>
</g>
</g>
<!-- dir_52999ed125e43b1d7166cddb34ffe2d4 -->
<g id="node2" class="node">
<title>dir_52999ed125e43b1d7166cddb34ffe2d4</title>
<g id="a_node2"><a xlink:href="dir_52999ed125e43b1d7166cddb34ffe2d4.html" target="_top" xlink:title="Disassembler">
<polygon fill="#a2b4d6" stroke="#404040" points="156,-185 80,-185 80,-165.75 156,-165.75 156,-185"/>
<text xml:space="preserve" text-anchor="middle" x="118" y="-171.5" font-family="Helvetica,sans-Serif" font-size="10.00">Disassembler</text>
</a>
</g>
</g>
<!-- dir_52999ed125e43b1d7166cddb34ffe2d4&#45;&gt;dir_1ed7ae2b4078b173511f50255713b9af -->
<g id="edge4" class="edge">
<title>dir_52999ed125e43b1d7166cddb34ffe2d4&#45;&gt;dir_1ed7ae2b4078b173511f50255713b9af</title>
<g id="a_edge4"><a xlink:href="dir_000092_000217.html" target="_top">
<path fill="none" stroke="#63b8ff" d="M112.55,-165.58C108.23,-158.61 102.04,-148.62 96.62,-139.87"/>
<polygon fill="#63b8ff" stroke="#63b8ff" points="99.61,-138.05 91.36,-131.4 93.66,-141.74 99.61,-138.05"/>
</a>
</g>
<g id="a_edge4&#45;headlabel"><a xlink:href="dir_000092_000217.html" target="_top" xlink:title="1">
<text xml:space="preserve" text-anchor="middle" x="103.12" y="-134.45" font-family="Helvetica,sans-Serif" font-size="10.00" fill="#63b8ff">1</text>
</a>
</g>
</g>
<!-- dir_52999ed125e43b1d7166cddb34ffe2d4&#45;&gt;dir_50a3ea2d52724bfaac80c4952ce6101f -->
<g id="edge5" class="edge">
<title>dir_52999ed125e43b1d7166cddb34ffe2d4&#45;&gt;dir_50a3ea2d52724bfaac80c4952ce6101f</title>
<g id="a_edge5"><a xlink:href="dir_000092_000320.html" target="_top">
<path fill="none" stroke="#63b8ff" d="M124.26,-165.31C132.23,-152.57 143.95,-128.86 135,-110.5 129.02,-98.22 117.83,-88.32 106.95,-80.99"/>
<polygon fill="#63b8ff" stroke="#63b8ff" points="108.83,-78.04 98.48,-75.79 105.17,-84.01 108.83,-78.04"/>
</a>
</g>
<g id="a_edge5&#45;headlabel"><a xlink:href="dir_000092_000320.html" target="_top" xlink:title="1">
<text xml:space="preserve" text-anchor="middle" x="112.09" y="-72.84" font-family="Helvetica,sans-Serif" font-size="10.00" fill="#63b8ff">1</text>
</a>
</g>
</g>
<!-- dir_52999ed125e43b1d7166cddb34ffe2d4&#45;&gt;dir_d44c64559bbebec7f509842c48db8b23 -->
<g id="edge6" class="edge">
<title>dir_52999ed125e43b1d7166cddb34ffe2d4&#45;&gt;dir_d44c64559bbebec7f509842c48db8b23</title>
<g id="a_edge6"><a xlink:href="dir_000092_000157.html" target="_top">
<path fill="none" stroke="#63b8ff" d="M143.86,-165.32C159.69,-158.29 178.64,-146.81 188,-129.75 207.34,-94.48 204.7,-75.84 188,-39.25 185.85,-34.54 182.51,-30.31 178.75,-26.64"/>
<polygon fill="#63b8ff" stroke="#63b8ff" points="181.28,-24.19 171.35,-20.48 176.8,-29.57 181.28,-24.19"/>
</a>
</g>
<g id="a_edge6&#45;headlabel"><a xlink:href="dir_000092_000157.html" target="_top" xlink:title="8">
<text xml:space="preserve" text-anchor="middle" x="184.7" y="-19.46" font-family="Helvetica,sans-Serif" font-size="10.00" fill="#63b8ff">8</text>
</a>
</g>
</g>
<!-- dir_1ed7ae2b4078b173511f50255713b9af&#45;&gt;dir_50a3ea2d52724bfaac80c4952ce6101f -->
<g id="edge7" class="edge">
<title>dir_1ed7ae2b4078b173511f50255713b9af&#45;&gt;dir_50a3ea2d52724bfaac80c4952ce6101f</title>
<g id="a_edge7"><a xlink:href="dir_000217_000320.html" target="_top">
<path fill="none" stroke="#63b8ff" d="M83.84,-110.33C82.98,-103.74 81.76,-94.46 80.66,-86.07"/>
<polygon fill="#63b8ff" stroke="#63b8ff" points="84.15,-85.82 79.38,-76.36 77.21,-86.73 84.15,-85.82"/>
</a>
</g>
<g id="a_edge7&#45;headlabel"><a xlink:href="dir_000217_000320.html" target="_top" xlink:title="1">
<text xml:space="preserve" text-anchor="middle" x="87.24" y="-83.64" font-family="Helvetica,sans-Serif" font-size="10.00" fill="#63b8ff">1</text>
</a>
</g>
</g>
<!-- dir_1ed7ae2b4078b173511f50255713b9af&#45;&gt;dir_d44c64559bbebec7f509842c48db8b23 -->
<g id="edge8" class="edge">
<title>dir_1ed7ae2b4078b173511f50255713b9af&#45;&gt;dir_d44c64559bbebec7f509842c48db8b23</title>
<g id="a_edge8"><a xlink:href="dir_000217_000157.html" target="_top">
<path fill="none" stroke="#63b8ff" d="M91.85,-110.05C98.5,-101.15 108.75,-87.1 117,-74.5 126.73,-59.63 136.98,-42.28 144.38,-29.42"/>
<polygon fill="#63b8ff" stroke="#63b8ff" points="147.41,-31.18 149.32,-20.76 141.33,-27.72 147.41,-31.18"/>
</a>
</g>
<g id="a_edge8&#45;headlabel"><a xlink:href="dir_000217_000157.html" target="_top" xlink:title="19">
<text xml:space="preserve" text-anchor="middle" x="148.84" y="-30.52" font-family="Helvetica,sans-Serif" font-size="10.00" fill="#63b8ff">19</text>
</a>
</g>
</g>
<!-- dir_50a3ea2d52724bfaac80c4952ce6101f&#45;&gt;dir_d44c64559bbebec7f509842c48db8b23 -->
<g id="edge9" class="edge">
<title>dir_50a3ea2d52724bfaac80c4952ce6101f&#45;&gt;dir_d44c64559bbebec7f509842c48db8b23</title>
<g id="a_edge9"><a xlink:href="dir_000320_000157.html" target="_top">
<path fill="none" stroke="#63b8ff" d="M91.06,-54.84C102.46,-46.96 119.23,-35.36 132.74,-26.02"/>
<polygon fill="#63b8ff" stroke="#63b8ff" points="134.4,-29.13 140.63,-20.56 130.41,-23.37 134.4,-29.13"/>
</a>
</g>
<g id="a_edge9&#45;headlabel"><a xlink:href="dir_000320_000157.html" target="_top" xlink:title="1">
<text xml:space="preserve" text-anchor="middle" x="134.3" y="-28.77" font-family="Helvetica,sans-Serif" font-size="10.00" fill="#63b8ff">1</text>
</a>
</g>
</g>
</g>
</svg>
