<?xml version="1.0" encoding="UTF-8" standalone="no"?>
<!DOCTYPE svg PUBLIC "-//W3C//DTD SVG 1.1//EN"
 "http://www.w3.org/Graphics/SVG/1.1/DTD/svg11.dtd">
<!-- Generated by graphviz version 14.1.3 (20260303.0454)
 -->
<!-- Title: include/llvm/MC Pages: 1 -->
<svg width="410pt" height="197pt"
 viewBox="0.00 0.00 410.00 197.00" xmlns="http://www.w3.org/2000/svg" xmlns:xlink="http://www.w3.org/1999/xlink">
<g id="graph0" class="graph" transform="scale(1 1) rotate(0) translate(4 193)">
<title>include/llvm/MC</title>
<g id="clust1" class="cluster">
<title>clusterdir_dcde91663b8816e1e2311938ccd8f690</title>
<g id="a_clust1"><a xlink:href="dir_dcde91663b8816e1e2311938ccd8f690.html" target="_top" xlink:title="llvm">
<polygon fill="#edf0f7" stroke="#7f7f7f" stroke-dasharray="5,2" points="8,-8 8,-181 352,-181 352,-8 8,-8"/>
<text xml:space="preserve" text-anchor="middle" x="180" y="-167.5" font-family="Helvetica,sans-Serif" font-size="10.00">llvm</text>
</a>
</g>
</g>
<g id="clust2" class="cluster">
<title>clusterdir_3c463fb0a03f5ca9e2abd53334bc8356</title>
<g id="a_clust2"><a xlink:href="dir_3c463fb0a03f5ca9e2abd53334bc8356.html" target="_top">
<polygon fill="#edf0f7" stroke="#404040" stroke-width="2" points="52,-63.25 52,-153.75 178,-153.75 178,-63.25 52,-63.25"/>
</a>
</g>
</g>
<!-- dir_32453792af2ba70c54e3ccae3a790d1b -->
<g id="node1" class="node">
<title>dir_32453792af2ba70c54e3ccae3a790d1b</title>
<g id="a_node1"><a xlink:href="dir_32453792af2ba70c54e3ccae3a790d1b.html" target="_top" xlink:title="ADT">
<polygon fill="#a2b4d6" stroke="#404040" points="144.12,-35.25 107.88,-35.25 107.88,-16 144.12,-16 144.12,-35.25"/>
<text xml:space="preserve" text-anchor="middle" x="126" y="-21.75" font-family="Helvetica,sans-Serif" font-size="10.00">ADT</text>
</a>
</g>
</g>
<!-- dir_76bc56fc1555430657f301d4de3959f5 -->
<g id="node2" class="node">
<title>dir_76bc56fc1555430657f301d4de3959f5</title>
<g id="a_node2"><a xlink:href="dir_76bc56fc1555430657f301d4de3959f5.html" target="_top" xlink:title="BinaryFormat">
<polygon fill="#a2b4d6" stroke="#404040" points="90.25,-35.25 15.75,-35.25 15.75,-16 90.25,-16 90.25,-35.25"/>
<text xml:space="preserve" text-anchor="middle" x="53" y="-21.75" font-family="Helvetica,sans-Serif" font-size="10.00">BinaryFormat</text>
</a>
</g>
</g>
<!-- dir_ae1e398ac700924fa434b51c248a5531 -->
<g id="node3" class="node">
<title>dir_ae1e398ac700924fa434b51c248a5531</title>
<g id="a_node3"><a xlink:href="dir_ae1e398ac700924fa434b51c248a5531.html" target="_top" xlink:title="Support">
<polygon fill="#a2b4d6" stroke="red" points="257.88,-35.25 208.12,-35.25 208.12,-16 257.88,-16 257.88,-35.25"/>
<text xml:space="preserve" text-anchor="middle" x="233" y="-21.75" font-family="Helvetica,sans-Serif" font-size="10.00">Support</text>
</a>
</g>
</g>
<!-- dir_b404620133d8508a838af4d853306b62 -->
<g id="node4" class="node">
<title>dir_b404620133d8508a838af4d853306b62</title>
<g id="a_node4"><a xlink:href="dir_b404620133d8508a838af4d853306b62.html" target="_top" xlink:title="TargetParser">
<polygon fill="#a2b4d6" stroke="#404040" points="323.75,-90.5 252.25,-90.5 252.25,-71.25 323.75,-71.25 323.75,-90.5"/>
<text xml:space="preserve" text-anchor="middle" x="288" y="-77" font-family="Helvetica,sans-Serif" font-size="10.00">TargetParser</text>
</a>
</g>
</g>
<!-- dir_c3e93f23a4a31c717998b98ce143b7c0 -->
<g id="node5" class="node">
<title>dir_c3e93f23a4a31c717998b98ce143b7c0</title>
<g id="a_node5"><a xlink:href="dir_c3e93f23a4a31c717998b98ce143b7c0.html" target="_top" xlink:title="IR">
<polygon fill="#a2b4d6" stroke="#404040" points="214.4,-90.5 185.6,-90.5 185.6,-71.25 214.4,-71.25 214.4,-90.5"/>
<text xml:space="preserve" text-anchor="middle" x="200" y="-77" font-family="Helvetica,sans-Serif" font-size="10.00">IR</text>
</a>
</g>
</g>
<!-- dir_3c463fb0a03f5ca9e2abd53334bc8356 -->
<g id="node6" class="node">
<title>dir_3c463fb0a03f5ca9e2abd53334bc8356</title>
<text xml:space="preserve" text-anchor="middle" x="76" y="-132.25" font-family="Helvetica,sans-Serif" font-size="10.00">MC</text>
</g>
<!-- dir_3c463fb0a03f5ca9e2abd53334bc8356&#45;&gt;dir_32453792af2ba70c54e3ccae3a790d1b -->
<g id="edge1" class="edge">
<title>dir_3c463fb0a03f5ca9e2abd53334bc8356&#45;&gt;dir_32453792af2ba70c54e3ccae3a790d1b</title>
<g id="a_edge1"><a xlink:href="dir_000203_000003.html" target="_top">
<path fill="none" stroke="#63b8ff" d="M70.15,-126.54C61.32,-112.41 46.83,-83.76 59,-63.25 63.47,-55.72 81.16,-46.21 97.24,-38.77"/>
<polygon fill="#63b8ff" stroke="#63b8ff" points="98.33,-42.11 106.03,-34.84 95.48,-35.72 98.33,-42.11"/>
</a>
</g>
<g id="a_edge1&#45;headlabel"><a xlink:href="dir_000203_000003.html" target="_top" xlink:title="111">
<text xml:space="preserve" text-anchor="middle" x="97.59" y="-41.68" font-family="Helvetica,sans-Serif" font-size="10.00" fill="#63b8ff">111</text>
</a>
</g>
</g>
<!-- dir_3c463fb0a03f5ca9e2abd53334bc8356&#45;&gt;dir_76bc56fc1555430657f301d4de3959f5 -->
<g id="edge3" class="edge">
<title>dir_3c463fb0a03f5ca9e2abd53334bc8356&#45;&gt;dir_76bc56fc1555430657f301d4de3959f5</title>
<g id="a_edge3"><a xlink:href="dir_000203_000041.html" target="_top">
<path fill="none" stroke="#63b8ff" d="M63.22,-126.59C52.61,-118.66 38.27,-105.8 32,-90.5 25.84,-75.48 32.57,-57.93 40,-45.03"/>
<polygon fill="#63b8ff" stroke="#63b8ff" points="42.88,-47.03 45.33,-36.72 36.98,-43.25 42.88,-47.03"/>
</a>
</g>
<g id="a_edge3&#45;headlabel"><a xlink:href="dir_000203_000041.html" target="_top" xlink:title="21">
<text xml:space="preserve" text-anchor="middle" x="44.15" y="-46.44" font-family="Helvetica,sans-Serif" font-size="10.00" fill="#63b8ff">21</text>
</a>
</g>
</g>
<!-- dir_3c463fb0a03f5ca9e2abd53334bc8356&#45;&gt;dir_ae1e398ac700924fa434b51c248a5531 -->
<g id="edge4" class="edge">
<title>dir_3c463fb0a03f5ca9e2abd53334bc8356&#45;&gt;dir_ae1e398ac700924fa434b51c248a5531</title>
<g id="a_edge4"><a xlink:href="dir_000203_000305.html" target="_top">
<path fill="none" stroke="#63b8ff" d="M91.83,-129.54C94.87,-128.51 98.03,-127.45 101,-126.5 154.85,-109.28 185.74,-133.02 223,-90.5 233.31,-78.74 235.36,-60.85 235.08,-47"/>
<polygon fill="#63b8ff" stroke="#63b8ff" points="238.59,-46.96 234.45,-37.21 231.6,-47.42 238.59,-46.96"/>
</a>
</g>
<g id="a_edge4&#45;headlabel"><a xlink:href="dir_000203_000305.html" target="_top" xlink:title="105">
<text xml:space="preserve" text-anchor="middle" x="241.56" y="-44.98" font-family="Helvetica,sans-Serif" font-size="10.00" fill="#63b8ff">105</text>
</a>
</g>
</g>
<!-- dir_3c463fb0a03f5ca9e2abd53334bc8356&#45;&gt;dir_b404620133d8508a838af4d853306b62 -->
<g id="edge5" class="edge">
<title>dir_3c463fb0a03f5ca9e2abd53334bc8356&#45;&gt;dir_b404620133d8508a838af4d853306b62</title>
<g id="a_edge5"><a xlink:href="dir_000203_000343.html" target="_top">
<path fill="none" stroke="#63b8ff" d="M91.8,-129.41C94.83,-128.39 98,-127.37 101,-126.5 148.05,-112.81 202.64,-100.14 240.64,-91.83"/>
<polygon fill="#63b8ff" stroke="#63b8ff" points="241.37,-95.25 250.4,-89.72 239.88,-88.41 241.37,-95.25"/>
</a>
</g>
<g id="a_edge5&#45;headlabel"><a xlink:href="dir_000203_000343.html" target="_top" xlink:title="10">
<text xml:space="preserve" text-anchor="middle" x="239.93" y="-94.6" font-family="Helvetica,sans-Serif" font-size="10.00" fill="#63b8ff">10</text>
</a>
</g>
</g>
<!-- dir_3c463fb0a03f5ca9e2abd53334bc8356&#45;&gt;dir_c3e93f23a4a31c717998b98ce143b7c0 -->
<g id="edge6" class="edge">
<title>dir_3c463fb0a03f5ca9e2abd53334bc8356&#45;&gt;dir_c3e93f23a4a31c717998b98ce143b7c0</title>
<g id="a_edge6"><a xlink:href="dir_000203_000169.html" target="_top">
<path fill="none" stroke="#63b8ff" d="M91.55,-128.85C110.27,-121.25 142.91,-107.81 175.08,-93.55"/>
<polygon fill="#63b8ff" stroke="#63b8ff" points="176.4,-96.79 184.11,-89.52 173.55,-90.4 176.4,-96.79"/>
</a>
</g>
<g id="a_edge6&#45;headlabel"><a xlink:href="dir_000203_000169.html" target="_top" xlink:title="1">
<text xml:space="preserve" text-anchor="middle" x="175.66" y="-96.36" font-family="Helvetica,sans-Serif" font-size="10.00" fill="#63b8ff">1</text>
</a>
</g>
</g>
<!-- dir_58163bf2ec8feb0df009d824c5b17ddf -->
<g id="node7" class="node">
<title>dir_58163bf2ec8feb0df009d824c5b17ddf</title>
<g id="a_node7"><a xlink:href="dir_58163bf2ec8feb0df009d824c5b17ddf.html" target="_top" xlink:title="MCDisassembler">
<polygon fill="#a2b4d6" stroke="#404040" points="167.88,-90.5 76.12,-90.5 76.12,-71.25 167.88,-71.25 167.88,-90.5"/>
<text xml:space="preserve" text-anchor="middle" x="122" y="-77" font-family="Helvetica,sans-Serif" font-size="10.00">MCDisassembler</text>
</a>
</g>
</g>
<!-- dir_3c463fb0a03f5ca9e2abd53334bc8356&#45;&gt;dir_58163bf2ec8feb0df009d824c5b17ddf -->
<g id="edge2" class="edge">
<title>dir_3c463fb0a03f5ca9e2abd53334bc8356&#45;&gt;dir_58163bf2ec8feb0df009d824c5b17ddf</title>
<g id="a_edge2"><a xlink:href="dir_000203_000210.html" target="_top">
<path fill="none" stroke="#63b8ff" d="M83.19,-126.8C89.56,-119.43 99.06,-108.43 107.07,-99.16"/>
<polygon fill="#63b8ff" stroke="#63b8ff" points="109.53,-101.67 113.41,-91.81 104.23,-97.09 109.53,-101.67"/>
</a>
</g>
<g id="a_edge2&#45;headlabel"><a xlink:href="dir_000203_000210.html" target="_top" xlink:title="1">
<text xml:space="preserve" text-anchor="middle" x="110.31" y="-101.22" font-family="Helvetica,sans-Serif" font-size="10.00" fill="#63b8ff">1</text>
</a>
</g>
</g>
<!-- dir_db1e4f1ef1b4536ff54becd23c94e664 -->
<g id="node9" class="node">
<title>dir_db1e4f1ef1b4536ff54becd23c94e664</title>
<g id="a_node9"><a xlink:href="dir_db1e4f1ef1b4536ff54becd23c94e664.html" target="_top" xlink:title="llvm&#45;c">
<polygon fill="#edf0f7" stroke="red" stroke-dasharray="5,2" points="402.12,-35.25 359.88,-35.25 359.88,-16 402.12,-16 402.12,-35.25"/>
<text xml:space="preserve" text-anchor="middle" x="381" y="-21.75" font-family="Helvetica,sans-Serif" font-size="10.00">llvm&#45;c</text>
</a>
</g>
</g>
<!-- dir_3c463fb0a03f5ca9e2abd53334bc8356&#45;&gt;dir_db1e4f1ef1b4536ff54becd23c94e664 -->
<g id="edge7" class="edge">
<title>dir_3c463fb0a03f5ca9e2abd53334bc8356&#45;&gt;dir_db1e4f1ef1b4536ff54becd23c94e664</title>
<g id="a_edge7"><a xlink:href="dir_000203_000186.html" target="_top">
<path fill="none" stroke="#63b8ff" d="M91.73,-129.18C94.78,-128.18 97.96,-127.23 101,-126.5 212.28,-99.71 266.21,-161.49 356,-90.5 369.29,-79.99 375.53,-61.43 378.45,-47.01"/>
<polygon fill="#63b8ff" stroke="#63b8ff" points="381.9,-47.64 380.02,-37.21 374.99,-46.53 381.9,-47.64"/>
</a>
</g>
<g id="a_edge7&#45;headlabel"><a xlink:href="dir_000203_000186.html" target="_top" xlink:title="2">
<text xml:space="preserve" text-anchor="middle" x="384.37" y="-46.27" font-family="Helvetica,sans-Serif" font-size="10.00" fill="#63b8ff">2</text>
</a>
</g>
</g>
<!-- dir_58163bf2ec8feb0df009d824c5b17ddf&#45;&gt;dir_32453792af2ba70c54e3ccae3a790d1b -->
<g id="edge8" class="edge">
<title>dir_58163bf2ec8feb0df009d824c5b17ddf&#45;&gt;dir_32453792af2ba70c54e3ccae3a790d1b</title>
<g id="a_edge8"><a xlink:href="dir_000210_000003.html" target="_top">
<path fill="none" stroke="#63b8ff" d="M122.66,-71.08C123.16,-64.49 123.85,-55.21 124.48,-46.82"/>
<polygon fill="#63b8ff" stroke="#63b8ff" points="127.95,-47.35 125.21,-37.12 120.97,-46.83 127.95,-47.35"/>
</a>
</g>
<g id="a_edge8&#45;headlabel"><a xlink:href="dir_000210_000003.html" target="_top" xlink:title="2">
<text xml:space="preserve" text-anchor="middle" x="130.63" y="-45.77" font-family="Helvetica,sans-Serif" font-size="10.00" fill="#63b8ff">2</text>
</a>
</g>
</g>
<!-- dir_58163bf2ec8feb0df009d824c5b17ddf&#45;&gt;dir_76bc56fc1555430657f301d4de3959f5 -->
<g id="edge9" class="edge">
<title>dir_58163bf2ec8feb0df009d824c5b17ddf&#45;&gt;dir_76bc56fc1555430657f301d4de3959f5</title>
<g id="a_edge9"><a xlink:href="dir_000210_000041.html" target="_top">
<path fill="none" stroke="#63b8ff" d="M110.3,-70.84C100.22,-63.07 85.46,-51.67 73.44,-42.4"/>
<polygon fill="#63b8ff" stroke="#63b8ff" points="75.79,-39.79 65.73,-36.45 71.51,-45.33 75.79,-39.79"/>
</a>
</g>
<g id="a_edge9&#45;headlabel"><a xlink:href="dir_000210_000041.html" target="_top" xlink:title="1">
<text xml:space="preserve" text-anchor="middle" x="79.17" y="-34.94" font-family="Helvetica,sans-Serif" font-size="10.00" fill="#63b8ff">1</text>
</a>
</g>
</g>
<!-- dir_58163bf2ec8feb0df009d824c5b17ddf&#45;&gt;dir_ae1e398ac700924fa434b51c248a5531 -->
<g id="edge10" class="edge">
<title>dir_58163bf2ec8feb0df009d824c5b17ddf&#45;&gt;dir_ae1e398ac700924fa434b51c248a5531</title>
<g id="a_edge10"><a xlink:href="dir_000210_000305.html" target="_top">
<path fill="none" stroke="#63b8ff" d="M140.83,-70.84C158.05,-62.58 183.8,-50.23 203.71,-40.68"/>
<polygon fill="#63b8ff" stroke="#63b8ff" points="205.21,-43.84 212.71,-36.36 202.18,-37.53 205.21,-43.84"/>
</a>
</g>
<g id="a_edge10&#45;headlabel"><a xlink:href="dir_000210_000305.html" target="_top" xlink:title="4">
<text xml:space="preserve" text-anchor="middle" x="204.56" y="-43.42" font-family="Helvetica,sans-Serif" font-size="10.00" fill="#63b8ff">4</text>
</a>
</g>
</g>
<!-- dir_58163bf2ec8feb0df009d824c5b17ddf&#45;&gt;dir_db1e4f1ef1b4536ff54becd23c94e664 -->
<g id="edge11" class="edge">
<title>dir_58163bf2ec8feb0df009d824c5b17ddf&#45;&gt;dir_db1e4f1ef1b4536ff54becd23c94e664</title>
<g id="a_edge11"><a xlink:href="dir_000210_000186.html" target="_top">
<path fill="none" stroke="#63b8ff" d="M146.43,-70.83C154.49,-68.1 163.55,-65.28 172,-63.25 248.81,-44.78 273.48,-54.1 348.58,-36.92"/>
<polygon fill="#63b8ff" stroke="#63b8ff" points="349.14,-40.38 358.06,-34.66 347.52,-33.57 349.14,-40.38"/>
</a>
</g>
<g id="a_edge11&#45;headlabel"><a xlink:href="dir_000210_000186.html" target="_top" xlink:title="1">
<text xml:space="preserve" text-anchor="middle" x="347.77" y="-39.75" font-family="Helvetica,sans-Serif" font-size="10.00" fill="#63b8ff">1</text>
</a>
</g>
</g>
<!-- dir_7d535f6b20d94b232098dbe4cecc414b -->
<g id="node8" class="node">
<title>dir_7d535f6b20d94b232098dbe4cecc414b</title>
<g id="a_node8"><a xlink:href="dir_7d535f6b20d94b232098dbe4cecc414b.html" target="_top" xlink:title="MCParser">
<polygon fill="#a2b4d6" stroke="#404040" points="170.12,-145.75 109.88,-145.75 109.88,-126.5 170.12,-126.5 170.12,-145.75"/>
<text xml:space="preserve" text-anchor="middle" x="140" y="-132.25" font-family="Helvetica,sans-Serif" font-size="10.00">MCParser</text>
</a>
</g>
</g>
<!-- dir_7d535f6b20d94b232098dbe4cecc414b&#45;&gt;dir_32453792af2ba70c54e3ccae3a790d1b -->
<g id="edge12" class="edge">
<title>dir_7d535f6b20d94b232098dbe4cecc414b&#45;&gt;dir_32453792af2ba70c54e3ccae3a790d1b</title>
<g id="a_edge12"><a xlink:href="dir_000213_000003.html" target="_top">
<path fill="none" stroke="#63b8ff" d="M112.33,-126.05C95.99,-119.1 76.66,-107.73 67,-90.5 61.08,-79.94 61.11,-73.83 67,-63.25 73.55,-51.47 85.63,-43 97.16,-37.19"/>
<polygon fill="#63b8ff" stroke="#63b8ff" points="98.35,-40.49 106.04,-33.2 95.48,-34.1 98.35,-40.49"/>
</a>
</g>
<g id="a_edge12&#45;headlabel"><a xlink:href="dir_000213_000003.html" target="_top" xlink:title="12">
<text xml:space="preserve" text-anchor="middle" x="97.62" y="-40.06" font-family="Helvetica,sans-Serif" font-size="10.00" fill="#63b8ff">12</text>
</a>
</g>
</g>
<!-- dir_7d535f6b20d94b232098dbe4cecc414b&#45;&gt;dir_ae1e398ac700924fa434b51c248a5531 -->
<g id="edge13" class="edge">
<title>dir_7d535f6b20d94b232098dbe4cecc414b&#45;&gt;dir_ae1e398ac700924fa434b51c248a5531</title>
<g id="a_edge13"><a xlink:href="dir_000213_000305.html" target="_top">
<path fill="none" stroke="#63b8ff" d="M170.54,-132.59C219.73,-127.81 313.04,-115.6 333,-90.5 340.54,-81.02 339.94,-73.18 333,-63.25 318.66,-42.73 291.52,-33.67 269.12,-29.69"/>
<polygon fill="#63b8ff" stroke="#63b8ff" points="269.84,-26.26 259.44,-28.26 268.82,-33.18 269.84,-26.26"/>
</a>
</g>
<g id="a_edge13&#45;headlabel"><a xlink:href="dir_000213_000305.html" target="_top" xlink:title="9">
<text xml:space="preserve" text-anchor="middle" x="272.31" y="-19.88" font-family="Helvetica,sans-Serif" font-size="10.00" fill="#63b8ff">9</text>
</a>
</g>
</g>
<!-- dir_7d535f6b20d94b232098dbe4cecc414b&#45;&gt;dir_b404620133d8508a838af4d853306b62 -->
<g id="edge14" class="edge">
<title>dir_7d535f6b20d94b232098dbe4cecc414b&#45;&gt;dir_b404620133d8508a838af4d853306b62</title>
<g id="a_edge14"><a xlink:href="dir_000213_000343.html" target="_top">
<path fill="none" stroke="#63b8ff" d="M165.11,-126.09C189.03,-117.49 225.28,-104.44 252.22,-94.75"/>
<polygon fill="#63b8ff" stroke="#63b8ff" points="253.12,-98.14 261.35,-91.46 250.75,-91.56 253.12,-98.14"/>
</a>
</g>
<g id="a_edge14&#45;headlabel"><a xlink:href="dir_000213_000343.html" target="_top" xlink:title="1">
<text xml:space="preserve" text-anchor="middle" x="252.12" y="-97.64" font-family="Helvetica,sans-Serif" font-size="10.00" fill="#63b8ff">1</text>
</a>
</g>
</g>
</g>
</svg>
