<?xml version="1.0" encoding="UTF-8" standalone="no"?>
<!DOCTYPE svg PUBLIC "-//W3C//DTD SVG 1.1//EN"
 "http://www.w3.org/Graphics/SVG/1.1/DTD/svg11.dtd">
<!-- Generated by graphviz version 14.1.3 (20260303.0454)
 -->
<!-- Title: include/llvm/ExecutionEngine/Orc Pages: 1 -->
<svg width="701pt" height="238pt"
 viewBox="0.00 0.00 701.00 238.00" xmlns="http://www.w3.org/2000/svg" xmlns:xlink="http://www.w3.org/1999/xlink">
<g id="graph0" class="graph" transform="scale(1 1) rotate(0) translate(4 233.55)">
<title>include/llvm/ExecutionEngine/Orc</title>
<g id="clust1" class="cluster">
<title>clusterdir_cc1d272c7136420c830a4e2c3c711b3d</title>
<g id="a_clust1"><a xlink:href="dir_cc1d272c7136420c830a4e2c3c711b3d.html" target="_top" xlink:title="ExecutionEngine">
<polygon fill="#edf0f7" stroke="#7f7f7f" stroke-dasharray="5,2" points="8,-40.55 8,-221.55 276,-221.55 276,-40.55 8,-40.55"/>
<text xml:space="preserve" text-anchor="middle" x="142" y="-208.05" font-family="Helvetica,sans-Serif" font-size="10.00">ExecutionEngine</text>
</a>
</g>
</g>
<g id="clust2" class="cluster">
<title>clusterdir_00734df7853c3add6cfb6066f377bd99</title>
<g id="a_clust2"><a xlink:href="dir_00734df7853c3add6cfb6066f377bd99.html" target="_top">
<polygon fill="#edf0f7" stroke="#404040" stroke-width="2" points="16,-48.55 16,-194.3 212,-194.3 212,-48.55 16,-48.55"/>
</a>
</g>
</g>
<!-- dir_4d6f2571dbe779997553ca550d1a42a7 -->
<g id="node1" class="node">
<title>dir_4d6f2571dbe779997553ca550d1a42a7</title>
<g id="a_node1"><a xlink:href="dir_4d6f2571dbe779997553ca550d1a42a7.html" target="_top" xlink:title="JITLink">
<polygon fill="#a2b4d6" stroke="#404040" points="268.12,-75.8 219.88,-75.8 219.88,-56.55 268.12,-56.55 268.12,-75.8"/>
<text xml:space="preserve" text-anchor="middle" x="244" y="-62.3" font-family="Helvetica,sans-Serif" font-size="10.00">JITLink</text>
</a>
</g>
</g>
<!-- dir_00734df7853c3add6cfb6066f377bd99 -->
<g id="node2" class="node">
<title>dir_00734df7853c3add6cfb6066f377bd99</title>
<text xml:space="preserve" text-anchor="middle" x="188" y="-172.8" font-family="Helvetica,sans-Serif" font-size="10.00">Orc</text>
</g>
<!-- dir_00734df7853c3add6cfb6066f377bd99&#45;&gt;dir_4d6f2571dbe779997553ca550d1a42a7 -->
<g id="edge3" class="edge">
<title>dir_00734df7853c3add6cfb6066f377bd99&#45;&gt;dir_4d6f2571dbe779997553ca550d1a42a7</title>
<g id="a_edge3"><a xlink:href="dir_000265_000175.html" target="_top">
<path fill="none" stroke="#63b8ff" d="M192.94,-167.2C198.1,-158.28 206.34,-143.8 213,-131.05 220.78,-116.16 229.06,-99.02 235.1,-86.25"/>
<polygon fill="#63b8ff" stroke="#63b8ff" points="238.22,-87.84 239.31,-77.3 231.89,-84.87 238.22,-87.84"/>
</a>
</g>
<g id="a_edge3&#45;headlabel"><a xlink:href="dir_000265_000175.html" target="_top" xlink:title="8">
<text xml:space="preserve" text-anchor="middle" x="239.91" y="-87.06" font-family="Helvetica,sans-Serif" font-size="10.00" fill="#63b8ff">8</text>
</a>
</g>
</g>
<!-- dir_3b5da4d65ff8c0234a7b6cb51dccf9f8 -->
<g id="node4" class="node">
<title>dir_3b5da4d65ff8c0234a7b6cb51dccf9f8</title>
<g id="a_node4"><a xlink:href="dir_3b5da4d65ff8c0234a7b6cb51dccf9f8.html" target="_top" xlink:title="Shared">
<polygon fill="#a2b4d6" stroke="#404040" points="196.38,-75.8 149.62,-75.8 149.62,-56.55 196.38,-56.55 196.38,-75.8"/>
<text xml:space="preserve" text-anchor="middle" x="173" y="-62.3" font-family="Helvetica,sans-Serif" font-size="10.00">Shared</text>
</a>
</g>
</g>
<!-- dir_00734df7853c3add6cfb6066f377bd99&#45;&gt;dir_3b5da4d65ff8c0234a7b6cb51dccf9f8 -->
<g id="edge2" class="edge">
<title>dir_00734df7853c3add6cfb6066f377bd99&#45;&gt;dir_3b5da4d65ff8c0234a7b6cb51dccf9f8</title>
<g id="a_edge2"><a xlink:href="dir_000265_000298.html" target="_top">
<path fill="none" stroke="#63b8ff" d="M172.26,-173.44C136.82,-168.07 52.56,-153.18 36,-131.05 7.39,-92.83 88.62,-76.67 138.03,-70.52"/>
<polygon fill="#63b8ff" stroke="#63b8ff" points="138.19,-74.03 147.73,-69.4 137.39,-67.07 138.19,-74.03"/>
</a>
</g>
<g id="a_edge2&#45;headlabel"><a xlink:href="dir_000265_000298.html" target="_top" xlink:title="50">
<text xml:space="preserve" text-anchor="middle" x="136.45" y="-73.21" font-family="Helvetica,sans-Serif" font-size="10.00" fill="#63b8ff">50</text>
</a>
</g>
</g>
<!-- dir_811f698a6ed3b88d7d5e6360e09e4c3e -->
<g id="node5" class="node">
<title>dir_811f698a6ed3b88d7d5e6360e09e4c3e</title>
<g id="a_node5"><a xlink:href="dir_811f698a6ed3b88d7d5e6360e09e4c3e.html" target="_top" xlink:title="TargetProcess">
<polygon fill="#a2b4d6" stroke="#404040" points="123.5,-131.05 44.5,-131.05 44.5,-111.8 123.5,-111.8 123.5,-131.05"/>
<text xml:space="preserve" text-anchor="middle" x="84" y="-117.55" font-family="Helvetica,sans-Serif" font-size="10.00">TargetProcess</text>
</a>
</g>
</g>
<!-- dir_00734df7853c3add6cfb6066f377bd99&#45;&gt;dir_811f698a6ed3b88d7d5e6360e09e4c3e -->
<g id="edge6" class="edge">
<title>dir_00734df7853c3add6cfb6066f377bd99&#45;&gt;dir_811f698a6ed3b88d7d5e6360e09e4c3e</title>
<g id="a_edge6"><a xlink:href="dir_000265_000345.html" target="_top">
<path fill="none" stroke="#63b8ff" d="M172.2,-167.59C156.19,-159.39 131.08,-146.53 111.74,-136.63"/>
<polygon fill="#63b8ff" stroke="#63b8ff" points="113.53,-133.61 103.04,-132.17 110.34,-139.84 113.53,-133.61"/>
</a>
</g>
<g id="a_edge6&#45;headlabel"><a xlink:href="dir_000265_000345.html" target="_top" xlink:title="1">
<text xml:space="preserve" text-anchor="middle" x="116.68" y="-128.16" font-family="Helvetica,sans-Serif" font-size="10.00" fill="#63b8ff">1</text>
</a>
</g>
</g>
<!-- dir_32453792af2ba70c54e3ccae3a790d1b -->
<g id="node6" class="node">
<title>dir_32453792af2ba70c54e3ccae3a790d1b</title>
<g id="a_node6"><a xlink:href="dir_32453792af2ba70c54e3ccae3a790d1b.html" target="_top" xlink:title="ADT">
<polygon fill="#edf0f7" stroke="#7f7f7f" points="121.12,-20.55 84.88,-20.55 84.88,-1.3 121.12,-1.3 121.12,-20.55"/>
<text xml:space="preserve" text-anchor="middle" x="103" y="-7.05" font-family="Helvetica,sans-Serif" font-size="10.00">ADT</text>
</a>
</g>
</g>
<!-- dir_00734df7853c3add6cfb6066f377bd99&#45;&gt;dir_32453792af2ba70c54e3ccae3a790d1b -->
<g id="edge1" class="edge">
<title>dir_00734df7853c3add6cfb6066f377bd99&#45;&gt;dir_32453792af2ba70c54e3ccae3a790d1b</title>
<g id="a_edge1"><a xlink:href="dir_000265_000003.html" target="_top">
<path fill="none" stroke="#63b8ff" d="M172.35,-173.76C135.3,-168.86 43.94,-154.6 26,-131.05 -1.05,-95.54 48.8,-50.6 80.22,-27.38"/>
<polygon fill="#63b8ff" stroke="#63b8ff" points="81.94,-30.45 88.04,-21.79 77.87,-24.76 81.94,-30.45"/>
</a>
</g>
<g id="a_edge1&#45;headlabel"><a xlink:href="dir_000265_000003.html" target="_top" xlink:title="79">
<text xml:space="preserve" text-anchor="middle" x="81.9" y="-30.1" font-family="Helvetica,sans-Serif" font-size="10.00" fill="#63b8ff">79</text>
</a>
</g>
</g>
<!-- dir_5625ec55672b6ae9c183a884d9f7b761 -->
<g id="node8" class="node">
<title>dir_5625ec55672b6ae9c183a884d9f7b761</title>
<g id="a_node8"><a xlink:href="dir_5625ec55672b6ae9c183a884d9f7b761.html" target="_top" xlink:title="Transforms">
<polygon fill="#edf0f7" stroke="red" stroke-dasharray="5,2" points="421.75,-131.05 356.25,-131.05 356.25,-111.8 421.75,-111.8 421.75,-131.05"/>
<text xml:space="preserve" text-anchor="middle" x="389" y="-117.55" font-family="Helvetica,sans-Serif" font-size="10.00">Transforms</text>
</a>
</g>
</g>
<!-- dir_00734df7853c3add6cfb6066f377bd99&#45;&gt;dir_5625ec55672b6ae9c183a884d9f7b761 -->
<g id="edge4" class="edge">
<title>dir_00734df7853c3add6cfb6066f377bd99&#45;&gt;dir_5625ec55672b6ae9c183a884d9f7b761</title>
<g id="a_edge4"><a xlink:href="dir_000265_000357.html" target="_top">
<path fill="none" stroke="#63b8ff" d="M203.77,-171.49C233.83,-163.53 300.27,-145.93 344.85,-134.12"/>
<polygon fill="#63b8ff" stroke="#63b8ff" points="345.72,-137.51 354.49,-131.56 343.93,-130.74 345.72,-137.51"/>
</a>
</g>
<g id="a_edge4&#45;headlabel"><a xlink:href="dir_000265_000357.html" target="_top" xlink:title="4">
<text xml:space="preserve" text-anchor="middle" x="344.44" y="-136.91" font-family="Helvetica,sans-Serif" font-size="10.00" fill="#63b8ff">4</text>
</a>
</g>
</g>
<!-- dir_76bc56fc1555430657f301d4de3959f5 -->
<g id="node9" class="node">
<title>dir_76bc56fc1555430657f301d4de3959f5</title>
<g id="a_node9"><a xlink:href="dir_76bc56fc1555430657f301d4de3959f5.html" target="_top" xlink:title="BinaryFormat">
<polygon fill="#edf0f7" stroke="#7f7f7f" points="514.25,-131.05 439.75,-131.05 439.75,-111.8 514.25,-111.8 514.25,-131.05"/>
<text xml:space="preserve" text-anchor="middle" x="477" y="-117.55" font-family="Helvetica,sans-Serif" font-size="10.00">BinaryFormat</text>
</a>
</g>
</g>
<!-- dir_00734df7853c3add6cfb6066f377bd99&#45;&gt;dir_76bc56fc1555430657f301d4de3959f5 -->
<g id="edge5" class="edge">
<title>dir_00734df7853c3add6cfb6066f377bd99&#45;&gt;dir_76bc56fc1555430657f301d4de3959f5</title>
<g id="a_edge5"><a xlink:href="dir_000265_000041.html" target="_top">
<path fill="none" stroke="#63b8ff" d="M203.64,-172.82C240.74,-166.05 337.23,-148.43 428.28,-131.55"/>
<polygon fill="#63b8ff" stroke="#63b8ff" points="428.66,-135.04 437.86,-129.77 427.39,-128.15 428.66,-135.04"/>
</a>
</g>
<g id="a_edge5&#45;headlabel"><a xlink:href="dir_000265_000041.html" target="_top" xlink:title="1">
<text xml:space="preserve" text-anchor="middle" x="427.14" y="-134.33" font-family="Helvetica,sans-Serif" font-size="10.00" fill="#63b8ff">1</text>
</a>
</g>
</g>
<!-- dir_93bbf26a6ebee48bd39196855fde3e19 -->
<g id="node10" class="node">
<title>dir_93bbf26a6ebee48bd39196855fde3e19</title>
<g id="a_node10"><a xlink:href="dir_93bbf26a6ebee48bd39196855fde3e19.html" target="_top" xlink:title="Target">
<polygon fill="#edf0f7" stroke="#7f7f7f" points="575.5,-131.05 532.5,-131.05 532.5,-111.8 575.5,-111.8 575.5,-131.05"/>
<text xml:space="preserve" text-anchor="middle" x="554" y="-117.55" font-family="Helvetica,sans-Serif" font-size="10.00">Target</text>
</a>
</g>
</g>
<!-- dir_00734df7853c3add6cfb6066f377bd99&#45;&gt;dir_93bbf26a6ebee48bd39196855fde3e19 -->
<g id="edge7" class="edge">
<title>dir_00734df7853c3add6cfb6066f377bd99&#45;&gt;dir_93bbf26a6ebee48bd39196855fde3e19</title>
<g id="a_edge7"><a xlink:href="dir_000265_000316.html" target="_top">
<path fill="none" stroke="#63b8ff" d="M203.83,-174.35C250.71,-170.28 393.05,-156.73 520.93,-131.19"/>
<polygon fill="#63b8ff" stroke="#63b8ff" points="521.49,-134.65 530.59,-129.23 520.1,-127.79 521.49,-134.65"/>
</a>
</g>
<g id="a_edge7&#45;headlabel"><a xlink:href="dir_000265_000316.html" target="_top" xlink:title="2">
<text xml:space="preserve" text-anchor="middle" x="520.02" y="-133.97" font-family="Helvetica,sans-Serif" font-size="10.00" fill="#63b8ff">2</text>
</a>
</g>
</g>
<!-- dir_97cdd6ae7e6843add574fb55e792badd -->
<g id="node11" class="node">
<title>dir_97cdd6ae7e6843add574fb55e792badd</title>
<g id="a_node11"><a xlink:href="dir_97cdd6ae7e6843add574fb55e792badd.html" target="_top" xlink:title="Analysis">
<polygon fill="#edf0f7" stroke="red" stroke-dasharray="5,2" points="646.75,-131.05 593.25,-131.05 593.25,-111.8 646.75,-111.8 646.75,-131.05"/>
<text xml:space="preserve" text-anchor="middle" x="620" y="-117.55" font-family="Helvetica,sans-Serif" font-size="10.00">Analysis</text>
</a>
</g>
</g>
<!-- dir_00734df7853c3add6cfb6066f377bd99&#45;&gt;dir_97cdd6ae7e6843add574fb55e792badd -->
<g id="edge8" class="edge">
<title>dir_00734df7853c3add6cfb6066f377bd99&#45;&gt;dir_97cdd6ae7e6843add574fb55e792badd</title>
<g id="a_edge8"><a xlink:href="dir_000265_000008.html" target="_top">
<path fill="none" stroke="#63b8ff" d="M203.62,-174.65C255.87,-171.07 429.46,-157.97 582,-131.4"/>
<polygon fill="#63b8ff" stroke="#63b8ff" points="582.21,-134.91 591.45,-129.72 580.99,-128.02 582.21,-134.91"/>
</a>
</g>
<g id="a_edge8&#45;headlabel"><a xlink:href="dir_000265_000008.html" target="_top" xlink:title="1">
<text xml:space="preserve" text-anchor="middle" x="580.66" y="-134.19" font-family="Helvetica,sans-Serif" font-size="10.00" fill="#63b8ff">1</text>
</a>
</g>
</g>
<!-- dir_ae1e398ac700924fa434b51c248a5531 -->
<g id="node12" class="node">
<title>dir_ae1e398ac700924fa434b51c248a5531</title>
<g id="a_node12"><a xlink:href="dir_ae1e398ac700924fa434b51c248a5531.html" target="_top" xlink:title="Support">
<polygon fill="#edf0f7" stroke="red" stroke-dasharray="5,2" points="410.88,-20.55 361.12,-20.55 361.12,-1.3 410.88,-1.3 410.88,-20.55"/>
<text xml:space="preserve" text-anchor="middle" x="386" y="-7.05" font-family="Helvetica,sans-Serif" font-size="10.00">Support</text>
</a>
</g>
</g>
<!-- dir_00734df7853c3add6cfb6066f377bd99&#45;&gt;dir_ae1e398ac700924fa434b51c248a5531 -->
<g id="edge9" class="edge">
<title>dir_00734df7853c3add6cfb6066f377bd99&#45;&gt;dir_ae1e398ac700924fa434b51c248a5531</title>
<g id="a_edge9"><a xlink:href="dir_000265_000305.html" target="_top">
<path fill="none" stroke="#63b8ff" d="M203.51,-170.6C226.75,-162.85 271.85,-147.24 309,-131.05 326.35,-123.48 328.97,-117.56 347,-111.8 397.95,-95.51 550.12,-116.35 585,-75.8 631.19,-22.1 491.23,-13.15 422.15,-11.93"/>
<polygon fill="#63b8ff" stroke="#63b8ff" points="422.48,-8.44 412.44,-11.81 422.39,-15.44 422.48,-8.44"/>
</a>
</g>
<g id="a_edge9&#45;headlabel"><a xlink:href="dir_000265_000305.html" target="_top" xlink:title="160">
<text xml:space="preserve" text-anchor="middle" x="424.6" y="-1.75" font-family="Helvetica,sans-Serif" font-size="10.00" fill="#63b8ff">160</text>
</a>
</g>
</g>
<!-- dir_b21276aa901501839874154d4047f901 -->
<g id="node13" class="node">
<title>dir_b21276aa901501839874154d4047f901</title>
<g id="a_node13"><a xlink:href="dir_b21276aa901501839874154d4047f901.html" target="_top" xlink:title="Object">
<polygon fill="#edf0f7" stroke="#7f7f7f" points="368.25,-75.8 323.75,-75.8 323.75,-56.55 368.25,-56.55 368.25,-75.8"/>
<text xml:space="preserve" text-anchor="middle" x="346" y="-62.3" font-family="Helvetica,sans-Serif" font-size="10.00">Object</text>
</a>
</g>
</g>
<!-- dir_00734df7853c3add6cfb6066f377bd99&#45;&gt;dir_b21276aa901501839874154d4047f901 -->
<g id="edge10" class="edge">
<title>dir_00734df7853c3add6cfb6066f377bd99&#45;&gt;dir_b21276aa901501839874154d4047f901</title>
<g id="a_edge10"><a xlink:href="dir_000265_000253.html" target="_top">
<path fill="none" stroke="#63b8ff" d="M199.24,-167.18C215.82,-154.73 247.91,-130.92 276,-111.8 291,-101.59 308.18,-90.63 321.76,-82.12"/>
<polygon fill="#63b8ff" stroke="#63b8ff" points="323.43,-85.21 330.07,-76.95 319.73,-79.26 323.43,-85.21"/>
</a>
</g>
<g id="a_edge10&#45;headlabel"><a xlink:href="dir_000265_000253.html" target="_top" xlink:title="4">
<text xml:space="preserve" text-anchor="middle" x="323.16" y="-84.84" font-family="Helvetica,sans-Serif" font-size="10.00" fill="#63b8ff">4</text>
</a>
</g>
</g>
<!-- dir_b404620133d8508a838af4d853306b62 -->
<g id="node14" class="node">
<title>dir_b404620133d8508a838af4d853306b62</title>
<g id="a_node14"><a xlink:href="dir_b404620133d8508a838af4d853306b62.html" target="_top" xlink:title="TargetParser">
<polygon fill="#edf0f7" stroke="#7f7f7f" points="575.75,-75.8 504.25,-75.8 504.25,-56.55 575.75,-56.55 575.75,-75.8"/>
<text xml:space="preserve" text-anchor="middle" x="540" y="-62.3" font-family="Helvetica,sans-Serif" font-size="10.00">TargetParser</text>
</a>
</g>
</g>
<!-- dir_00734df7853c3add6cfb6066f377bd99&#45;&gt;dir_b404620133d8508a838af4d853306b62 -->
<g id="edge11" class="edge">
<title>dir_00734df7853c3add6cfb6066f377bd99&#45;&gt;dir_b404620133d8508a838af4d853306b62</title>
<g id="a_edge11"><a xlink:href="dir_000265_000343.html" target="_top">
<path fill="none" stroke="#63b8ff" d="M203.68,-167.72C237.4,-150.62 313.82,-111.86 314,-111.8 346.37,-100.64 436.52,-84.45 492.69,-74.94"/>
<polygon fill="#63b8ff" stroke="#63b8ff" points="493.01,-78.44 502.3,-73.33 491.85,-71.54 493.01,-78.44"/>
</a>
</g>
<g id="a_edge11&#45;headlabel"><a xlink:href="dir_000265_000343.html" target="_top" xlink:title="6">
<text xml:space="preserve" text-anchor="middle" x="491.43" y="-77.71" font-family="Helvetica,sans-Serif" font-size="10.00" fill="#63b8ff">6</text>
</a>
</g>
</g>
<!-- dir_c3e93f23a4a31c717998b98ce143b7c0 -->
<g id="node15" class="node">
<title>dir_c3e93f23a4a31c717998b98ce143b7c0</title>
<g id="a_node15"><a xlink:href="dir_c3e93f23a4a31c717998b98ce143b7c0.html" target="_top" xlink:title="IR">
<polygon fill="#edf0f7" stroke="#7f7f7f" points="693.4,-131.05 664.6,-131.05 664.6,-111.8 693.4,-111.8 693.4,-131.05"/>
<text xml:space="preserve" text-anchor="middle" x="679" y="-117.55" font-family="Helvetica,sans-Serif" font-size="10.00">IR</text>
</a>
</g>
</g>
<!-- dir_00734df7853c3add6cfb6066f377bd99&#45;&gt;dir_c3e93f23a4a31c717998b98ce143b7c0 -->
<g id="edge12" class="edge">
<title>dir_00734df7853c3add6cfb6066f377bd99&#45;&gt;dir_c3e93f23a4a31c717998b98ce143b7c0</title>
<g id="a_edge12"><a xlink:href="dir_000265_000169.html" target="_top">
<path fill="none" stroke="#63b8ff" d="M203.59,-175.67C261.97,-175.34 473.15,-171.42 653.56,-131.01"/>
<polygon fill="#63b8ff" stroke="#63b8ff" points="654.14,-134.47 663.1,-128.83 652.57,-127.65 654.14,-134.47"/>
</a>
</g>
<g id="a_edge12&#45;headlabel"><a xlink:href="dir_000265_000169.html" target="_top" xlink:title="29">
<text xml:space="preserve" text-anchor="middle" x="652.74" y="-133.83" font-family="Helvetica,sans-Serif" font-size="10.00" fill="#63b8ff">29</text>
</a>
</g>
</g>
<!-- dir_5a2ca65d64e95657edc16a60c9f48d96 -->
<g id="node3" class="node">
<title>dir_5a2ca65d64e95657edc16a60c9f48d96</title>
<g id="a_node3"><a xlink:href="dir_5a2ca65d64e95657edc16a60c9f48d96.html" target="_top" xlink:title="Debugging">
<polygon fill="#a2b4d6" stroke="#404040" points="204.25,-131.05 141.75,-131.05 141.75,-111.8 204.25,-111.8 204.25,-131.05"/>
<text xml:space="preserve" text-anchor="middle" x="173" y="-117.55" font-family="Helvetica,sans-Serif" font-size="10.00">Debugging</text>
</a>
</g>
</g>
<!-- dir_5a2ca65d64e95657edc16a60c9f48d96&#45;&gt;dir_4d6f2571dbe779997553ca550d1a42a7 -->
<g id="edge15" class="edge">
<title>dir_5a2ca65d64e95657edc16a60c9f48d96&#45;&gt;dir_4d6f2571dbe779997553ca550d1a42a7</title>
<g id="a_edge15"><a xlink:href="dir_000075_000175.html" target="_top">
<path fill="none" stroke="#63b8ff" d="M185.04,-111.39C195.41,-103.62 210.6,-92.22 222.97,-82.95"/>
<polygon fill="#63b8ff" stroke="#63b8ff" points="225.02,-85.78 230.92,-76.98 220.82,-80.18 225.02,-85.78"/>
</a>
</g>
<g id="a_edge15&#45;headlabel"><a xlink:href="dir_000075_000175.html" target="_top" xlink:title="1">
<text xml:space="preserve" text-anchor="middle" x="225.06" y="-85.43" font-family="Helvetica,sans-Serif" font-size="10.00" fill="#63b8ff">1</text>
</a>
</g>
</g>
<!-- dir_5a2ca65d64e95657edc16a60c9f48d96&#45;&gt;dir_3b5da4d65ff8c0234a7b6cb51dccf9f8 -->
<g id="edge14" class="edge">
<title>dir_5a2ca65d64e95657edc16a60c9f48d96&#45;&gt;dir_3b5da4d65ff8c0234a7b6cb51dccf9f8</title>
<g id="a_edge14"><a xlink:href="dir_000075_000298.html" target="_top">
<path fill="none" stroke="#63b8ff" d="M173,-111.63C173,-105.12 173,-95.97 173,-87.67"/>
<polygon fill="#63b8ff" stroke="#63b8ff" points="176.5,-87.67 173,-77.67 169.5,-87.67 176.5,-87.67"/>
</a>
</g>
<g id="a_edge14&#45;headlabel"><a xlink:href="dir_000075_000298.html" target="_top" xlink:title="4">
<text xml:space="preserve" text-anchor="middle" x="179.34" y="-85.88" font-family="Helvetica,sans-Serif" font-size="10.00" fill="#63b8ff">4</text>
</a>
</g>
</g>
<!-- dir_5a2ca65d64e95657edc16a60c9f48d96&#45;&gt;dir_32453792af2ba70c54e3ccae3a790d1b -->
<g id="edge13" class="edge">
<title>dir_5a2ca65d64e95657edc16a60c9f48d96&#45;&gt;dir_32453792af2ba70c54e3ccae3a790d1b</title>
<g id="a_edge13"><a xlink:href="dir_000075_000003.html" target="_top">
<path fill="none" stroke="#63b8ff" d="M166.15,-111.35C159.5,-102.45 149.25,-88.4 141,-75.8 131.27,-60.93 121.02,-43.58 113.62,-30.72"/>
<polygon fill="#63b8ff" stroke="#63b8ff" points="116.67,-29.02 108.68,-22.06 110.59,-32.48 116.67,-29.02"/>
</a>
</g>
<g id="a_edge13&#45;headlabel"><a xlink:href="dir_000075_000003.html" target="_top" xlink:title="2">
<text xml:space="preserve" text-anchor="middle" x="120.17" y="-25.54" font-family="Helvetica,sans-Serif" font-size="10.00" fill="#63b8ff">2</text>
</a>
</g>
</g>
<!-- dir_fc2cd323963d6c4db27150ccf17ad26a -->
<g id="node7" class="node">
<title>dir_fc2cd323963d6c4db27150ccf17ad26a</title>
<g id="a_node7"><a xlink:href="dir_fc2cd323963d6c4db27150ccf17ad26a.html" target="_top" xlink:title="DebugInfo">
<polygon fill="#edf0f7" stroke="red" stroke-dasharray="5,2" points="447.5,-75.8 386.5,-75.8 386.5,-56.55 447.5,-56.55 447.5,-75.8"/>
<text xml:space="preserve" text-anchor="middle" x="417" y="-62.3" font-family="Helvetica,sans-Serif" font-size="10.00">DebugInfo</text>
</a>
</g>
</g>
<!-- dir_5a2ca65d64e95657edc16a60c9f48d96&#45;&gt;dir_fc2cd323963d6c4db27150ccf17ad26a -->
<g id="edge18" class="edge">
<title>dir_5a2ca65d64e95657edc16a60c9f48d96&#45;&gt;dir_fc2cd323963d6c4db27150ccf17ad26a</title>
<g id="a_edge18"><a xlink:href="dir_000075_000077.html" target="_top">
<path fill="none" stroke="#63b8ff" d="M204.4,-113.57C247.89,-104.08 326.58,-86.91 375.06,-76.33"/>
<polygon fill="#63b8ff" stroke="#63b8ff" points="375.6,-79.79 384.63,-74.24 374.11,-72.95 375.6,-79.79"/>
</a>
</g>
<g id="a_edge18&#45;headlabel"><a xlink:href="dir_000075_000077.html" target="_top" xlink:title="1">
<text xml:space="preserve" text-anchor="middle" x="374.18" y="-79.13" font-family="Helvetica,sans-Serif" font-size="10.00" fill="#63b8ff">1</text>
</a>
</g>
</g>
<!-- dir_5a2ca65d64e95657edc16a60c9f48d96&#45;&gt;dir_ae1e398ac700924fa434b51c248a5531 -->
<g id="edge16" class="edge">
<title>dir_5a2ca65d64e95657edc16a60c9f48d96&#45;&gt;dir_ae1e398ac700924fa434b51c248a5531</title>
<g id="a_edge16"><a xlink:href="dir_000075_000305.html" target="_top">
<path fill="none" stroke="#63b8ff" d="M204.7,-117.74C275.33,-111.46 440.72,-94.84 457,-75.8 467.18,-63.89 465.77,-53.53 457,-40.55 449.04,-28.76 435.33,-21.82 422.06,-17.74"/>
<polygon fill="#63b8ff" stroke="#63b8ff" points="423.18,-14.42 412.62,-15.32 421.44,-21.2 423.18,-14.42"/>
</a>
</g>
<g id="a_edge16&#45;headlabel"><a xlink:href="dir_000075_000305.html" target="_top" xlink:title="10">
<text xml:space="preserve" text-anchor="middle" x="425.9" y="-8.31" font-family="Helvetica,sans-Serif" font-size="10.00" fill="#63b8ff">10</text>
</a>
</g>
</g>
<!-- dir_5a2ca65d64e95657edc16a60c9f48d96&#45;&gt;dir_b404620133d8508a838af4d853306b62 -->
<g id="edge17" class="edge">
<title>dir_5a2ca65d64e95657edc16a60c9f48d96&#45;&gt;dir_b404620133d8508a838af4d853306b62</title>
<g id="a_edge17"><a xlink:href="dir_000075_000343.html" target="_top">
<path fill="none" stroke="#63b8ff" d="M204.54,-116.31C261.59,-108.8 385.67,-92.14 490,-75.8 490.99,-75.64 491.99,-75.49 493,-75.32"/>
<polygon fill="#63b8ff" stroke="#63b8ff" points="493.18,-78.84 502.48,-73.77 492.04,-71.93 493.18,-78.84"/>
</a>
</g>
<g id="a_edge17&#45;headlabel"><a xlink:href="dir_000075_000343.html" target="_top" xlink:title="1">
<text xml:space="preserve" text-anchor="middle" x="491.58" y="-78.11" font-family="Helvetica,sans-Serif" font-size="10.00" fill="#63b8ff">1</text>
</a>
</g>
</g>
<!-- dir_3b5da4d65ff8c0234a7b6cb51dccf9f8&#45;&gt;dir_32453792af2ba70c54e3ccae3a790d1b -->
<g id="edge19" class="edge">
<title>dir_3b5da4d65ff8c0234a7b6cb51dccf9f8&#45;&gt;dir_32453792af2ba70c54e3ccae3a790d1b</title>
<g id="a_edge19"><a xlink:href="dir_000298_000003.html" target="_top">
<path fill="none" stroke="#63b8ff" d="M161.13,-56.14C150.91,-48.37 135.93,-36.97 123.74,-27.7"/>
<polygon fill="#63b8ff" stroke="#63b8ff" points="125.98,-25.01 115.9,-21.74 121.74,-30.58 125.98,-25.01"/>
</a>
</g>
<g id="a_edge19&#45;headlabel"><a xlink:href="dir_000298_000003.html" target="_top" xlink:title="16">
<text xml:space="preserve" text-anchor="middle" x="129.36" y="-20.13" font-family="Helvetica,sans-Serif" font-size="10.00" fill="#63b8ff">16</text>
</a>
</g>
</g>
<!-- dir_3b5da4d65ff8c0234a7b6cb51dccf9f8&#45;&gt;dir_ae1e398ac700924fa434b51c248a5531 -->
<g id="edge20" class="edge">
<title>dir_3b5da4d65ff8c0234a7b6cb51dccf9f8&#45;&gt;dir_ae1e398ac700924fa434b51c248a5531</title>
<g id="a_edge20"><a xlink:href="dir_000298_000305.html" target="_top">
<path fill="none" stroke="#63b8ff" d="M180.1,-56.47C185.08,-50.99 192.22,-44.27 200,-40.55 248.21,-17.49 310.76,-12.21 349.63,-11.41"/>
<polygon fill="#63b8ff" stroke="#63b8ff" points="349.42,-14.91 359.38,-11.3 349.34,-7.91 349.42,-14.91"/>
</a>
</g>
<g id="a_edge20&#45;headlabel"><a xlink:href="dir_000298_000305.html" target="_top" xlink:title="18">
<text xml:space="preserve" text-anchor="middle" x="347.37" y="-13.9" font-family="Helvetica,sans-Serif" font-size="10.00" fill="#63b8ff">18</text>
</a>
</g>
</g>
<!-- dir_811f698a6ed3b88d7d5e6360e09e4c3e&#45;&gt;dir_3b5da4d65ff8c0234a7b6cb51dccf9f8 -->
<g id="edge22" class="edge">
<title>dir_811f698a6ed3b88d7d5e6360e09e4c3e&#45;&gt;dir_3b5da4d65ff8c0234a7b6cb51dccf9f8</title>
<g id="a_edge22"><a xlink:href="dir_000345_000298.html" target="_top">
<path fill="none" stroke="#63b8ff" d="M99.1,-111.39C112.52,-103.36 132.41,-91.46 148.17,-82.03"/>
<polygon fill="#63b8ff" stroke="#63b8ff" points="149.75,-85.17 156.53,-77.03 146.15,-79.16 149.75,-85.17"/>
</a>
</g>
<g id="a_edge22&#45;headlabel"><a xlink:href="dir_000345_000298.html" target="_top" xlink:title="23">
<text xml:space="preserve" text-anchor="middle" x="149.42" y="-84.8" font-family="Helvetica,sans-Serif" font-size="10.00" fill="#63b8ff">23</text>
</a>
</g>
</g>
<!-- dir_811f698a6ed3b88d7d5e6360e09e4c3e&#45;&gt;dir_32453792af2ba70c54e3ccae3a790d1b -->
<g id="edge21" class="edge">
<title>dir_811f698a6ed3b88d7d5e6360e09e4c3e&#45;&gt;dir_32453792af2ba70c54e3ccae3a790d1b</title>
<g id="a_edge21"><a xlink:href="dir_000345_000003.html" target="_top">
<path fill="none" stroke="#63b8ff" d="M85.55,-111.54C88.57,-94.3 95.3,-55.88 99.46,-32.11"/>
<polygon fill="#63b8ff" stroke="#63b8ff" points="102.89,-32.87 101.16,-22.42 95.99,-31.66 102.89,-32.87"/>
</a>
</g>
<g id="a_edge21&#45;headlabel"><a xlink:href="dir_000345_000003.html" target="_top" xlink:title="15">
<text xml:space="preserve" text-anchor="middle" x="105.32" y="-31.53" font-family="Helvetica,sans-Serif" font-size="10.00" fill="#63b8ff">15</text>
</a>
</g>
</g>
<!-- dir_811f698a6ed3b88d7d5e6360e09e4c3e&#45;&gt;dir_ae1e398ac700924fa434b51c248a5531 -->
<g id="edge23" class="edge">
<title>dir_811f698a6ed3b88d7d5e6360e09e4c3e&#45;&gt;dir_ae1e398ac700924fa434b51c248a5531</title>
<g id="a_edge23"><a xlink:href="dir_000345_000305.html" target="_top">
<path fill="none" stroke="#63b8ff" d="M123.72,-112.62C176.97,-101.96 266.42,-83.33 280,-75.8 299.31,-65.09 296.61,-52.76 315,-40.55 325.66,-33.47 338.34,-27.67 350.01,-23.19"/>
<polygon fill="#63b8ff" stroke="#63b8ff" points="351.16,-26.49 359.37,-19.81 348.78,-19.91 351.16,-26.49"/>
</a>
</g>
<g id="a_edge23&#45;headlabel"><a xlink:href="dir_000345_000305.html" target="_top" xlink:title="23">
<text xml:space="preserve" text-anchor="middle" x="350.16" y="-26" font-family="Helvetica,sans-Serif" font-size="10.00" fill="#63b8ff">23</text>
</a>
</g>
</g>
<!-- dir_811f698a6ed3b88d7d5e6360e09e4c3e&#45;&gt;dir_b21276aa901501839874154d4047f901 -->
<g id="edge24" class="edge">
<title>dir_811f698a6ed3b88d7d5e6360e09e4c3e&#45;&gt;dir_b21276aa901501839874154d4047f901</title>
<g id="a_edge24"><a xlink:href="dir_000345_000253.html" target="_top">
<path fill="none" stroke="#63b8ff" d="M123.7,-113.08C168.91,-104.61 244.94,-90.01 310,-75.8 310.82,-75.62 311.66,-75.43 312.5,-75.25"/>
<polygon fill="#63b8ff" stroke="#63b8ff" points="313.13,-78.69 322.09,-73.04 311.56,-71.87 313.13,-78.69"/>
</a>
</g>
<g id="a_edge24&#45;headlabel"><a xlink:href="dir_000345_000253.html" target="_top" xlink:title="1">
<text xml:space="preserve" text-anchor="middle" x="311.74" y="-78.05" font-family="Helvetica,sans-Serif" font-size="10.00" fill="#63b8ff">1</text>
</a>
</g>
</g>
</g>
</svg>
