<?xml version="1.0" encoding="UTF-8" standalone="no"?>
<!DOCTYPE svg PUBLIC "-//W3C//DTD SVG 1.1//EN"
 "http://www.w3.org/Graphics/SVG/1.1/DTD/svg11.dtd">
<!-- Generated by graphviz version 14.1.3 (20260303.0454)
 -->
<!-- Title: lib/Target/ARM Pages: 1 -->
<svg width="331pt" height="236pt"
 viewBox="0.00 0.00 331.00 236.00" xmlns="http://www.w3.org/2000/svg" xmlns:xlink="http://www.w3.org/1999/xlink">
<g id="graph0" class="graph" transform="scale(1 1) rotate(0) translate(4 232.25)">
<title>lib/Target/ARM</title>
<g id="clust1" class="cluster">
<title>clusterdir_794e483eb1cc7921d35fd149d9cc325b</title>
<g id="a_clust1"><a xlink:href="dir_794e483eb1cc7921d35fd149d9cc325b.html" target="_top" xlink:title="Target">
<polygon fill="#edf0f7" stroke="#7f7f7f" stroke-dasharray="5,2" points="8,-39.25 8,-220.25 255,-220.25 255,-39.25 8,-39.25"/>
<text xml:space="preserve" text-anchor="middle" x="131.5" y="-206.75" font-family="Helvetica,sans-Serif" font-size="10.00">Target</text>
</a>
</g>
</g>
<g id="clust2" class="cluster">
<title>clusterdir_4394675d1fa84070817ace1e93b57e8a</title>
<g id="a_clust2"><a xlink:href="dir_4394675d1fa84070817ace1e93b57e8a.html" target="_top">
<polygon fill="#edf0f7" stroke="#404040" stroke-width="2" points="16,-47.25 16,-193 247,-193 247,-47.25 16,-47.25"/>
</a>
</g>
</g>
<!-- dir_4394675d1fa84070817ace1e93b57e8a -->
<g id="node1" class="node">
<title>dir_4394675d1fa84070817ace1e93b57e8a</title>
<text xml:space="preserve" text-anchor="middle" x="137" y="-171.5" font-family="Helvetica,sans-Serif" font-size="10.00">ARM</text>
</g>
<!-- dir_01936f0ac99a25b61f7f8770fcd2356f -->
<g id="node4" class="node">
<title>dir_01936f0ac99a25b61f7f8770fcd2356f</title>
<g id="a_node4"><a xlink:href="dir_01936f0ac99a25b61f7f8770fcd2356f.html" target="_top" xlink:title="MCTargetDesc">
<polygon fill="#a2b4d6" stroke="#404040" points="206,-129.75 124,-129.75 124,-110.5 206,-110.5 206,-129.75"/>
<text xml:space="preserve" text-anchor="middle" x="165" y="-116.25" font-family="Helvetica,sans-Serif" font-size="10.00">MCTargetDesc</text>
</a>
</g>
</g>
<!-- dir_4394675d1fa84070817ace1e93b57e8a&#45;&gt;dir_01936f0ac99a25b61f7f8770fcd2356f -->
<g id="edge1" class="edge">
<title>dir_4394675d1fa84070817ace1e93b57e8a&#45;&gt;dir_01936f0ac99a25b61f7f8770fcd2356f</title>
<g id="a_edge1"><a xlink:href="dir_000014_000218.html" target="_top">
<path fill="none" stroke="#63b8ff" d="M141.38,-166.05C145.05,-159.07 150.44,-148.82 155.14,-139.88"/>
<polygon fill="#63b8ff" stroke="#63b8ff" points="158.12,-141.74 159.67,-131.26 151.92,-138.48 158.12,-141.74"/>
</a>
</g>
<g id="a_edge1&#45;headlabel"><a xlink:href="dir_000014_000218.html" target="_top" xlink:title="41">
<text xml:space="preserve" text-anchor="middle" x="159.66" y="-141.03" font-family="Helvetica,sans-Serif" font-size="10.00" fill="#63b8ff">41</text>
</a>
</g>
</g>
<!-- dir_e74ffd2db7d0965c485dd377d7fa07ac -->
<g id="node5" class="node">
<title>dir_e74ffd2db7d0965c485dd377d7fa07ac</title>
<g id="a_node5"><a xlink:href="dir_e74ffd2db7d0965c485dd377d7fa07ac.html" target="_top" xlink:title="TargetInfo">
<polygon fill="#a2b4d6" stroke="#404040" points="114.75,-74.5 55.25,-74.5 55.25,-55.25 114.75,-55.25 114.75,-74.5"/>
<text xml:space="preserve" text-anchor="middle" x="85" y="-61" font-family="Helvetica,sans-Serif" font-size="10.00">TargetInfo</text>
</a>
</g>
</g>
<!-- dir_4394675d1fa84070817ace1e93b57e8a&#45;&gt;dir_e74ffd2db7d0965c485dd377d7fa07ac -->
<g id="edge4" class="edge">
<title>dir_4394675d1fa84070817ace1e93b57e8a&#45;&gt;dir_e74ffd2db7d0965c485dd377d7fa07ac</title>
<g id="a_edge4"><a xlink:href="dir_000014_000321.html" target="_top">
<path fill="none" stroke="#63b8ff" d="M118.92,-165.88C105.45,-158.44 88.04,-146.25 80,-129.75 73.29,-115.97 75.25,-98.51 78.49,-85.34"/>
<polygon fill="#63b8ff" stroke="#63b8ff" points="81.74,-86.7 81.2,-76.11 75.03,-84.73 81.74,-86.7"/>
</a>
</g>
<g id="a_edge4&#45;headlabel"><a xlink:href="dir_000014_000321.html" target="_top" xlink:title="5">
<text xml:space="preserve" text-anchor="middle" x="83.88" y="-85.62" font-family="Helvetica,sans-Serif" font-size="10.00" fill="#63b8ff">5</text>
</a>
</g>
</g>
<!-- dir_4e37b6fde532b2a91802f4c74b8b2743 -->
<g id="node6" class="node">
<title>dir_4e37b6fde532b2a91802f4c74b8b2743</title>
<g id="a_node6"><a xlink:href="dir_4e37b6fde532b2a91802f4c74b8b2743.html" target="_top" xlink:title="Utils">
<polygon fill="#a2b4d6" stroke="#404040" points="183.12,-74.5 146.88,-74.5 146.88,-55.25 183.12,-55.25 183.12,-74.5"/>
<text xml:space="preserve" text-anchor="middle" x="165" y="-61" font-family="Helvetica,sans-Serif" font-size="10.00">Utils</text>
</a>
</g>
</g>
<!-- dir_4394675d1fa84070817ace1e93b57e8a&#45;&gt;dir_4e37b6fde532b2a91802f4c74b8b2743 -->
<g id="edge2" class="edge">
<title>dir_4394675d1fa84070817ace1e93b57e8a&#45;&gt;dir_4e37b6fde532b2a91802f4c74b8b2743</title>
<g id="a_edge2"><a xlink:href="dir_000014_000365.html" target="_top">
<path fill="none" stroke="#63b8ff" d="M130.05,-165.92C120.75,-153.52 106.37,-129.77 115,-110.5 120.21,-98.87 130.11,-89.03 139.73,-81.57"/>
<polygon fill="#63b8ff" stroke="#63b8ff" points="141.73,-84.45 147.85,-75.8 137.67,-78.74 141.73,-84.45"/>
</a>
</g>
<g id="a_edge2&#45;headlabel"><a xlink:href="dir_000014_000365.html" target="_top" xlink:title="14">
<text xml:space="preserve" text-anchor="middle" x="141.67" y="-84.09" font-family="Helvetica,sans-Serif" font-size="10.00" fill="#63b8ff">14</text>
</a>
</g>
</g>
<!-- dir_d44c64559bbebec7f509842c48db8b23 -->
<g id="node7" class="node">
<title>dir_d44c64559bbebec7f509842c48db8b23</title>
<g id="a_node7"><a xlink:href="dir_d44c64559bbebec7f509842c48db8b23.html" target="_top" xlink:title="include">
<polygon fill="#edf0f7" stroke="red" points="256.38,-19.25 209.62,-19.25 209.62,0 256.38,0 256.38,-19.25"/>
<text xml:space="preserve" text-anchor="middle" x="233" y="-5.75" font-family="Helvetica,sans-Serif" font-size="10.00">include</text>
</a>
</g>
</g>
<!-- dir_4394675d1fa84070817ace1e93b57e8a&#45;&gt;dir_d44c64559bbebec7f509842c48db8b23 -->
<g id="edge3" class="edge">
<title>dir_4394675d1fa84070817ace1e93b57e8a&#45;&gt;dir_d44c64559bbebec7f509842c48db8b23</title>
<g id="a_edge3"><a xlink:href="dir_000014_000157.html" target="_top">
<path fill="none" stroke="#63b8ff" d="M156.01,-168.54C191.51,-157.55 264.62,-134.48 268,-129.75 291.41,-97.04 285.23,-75.6 268,-39.25 265.75,-34.49 262.27,-30.26 258.37,-26.61"/>
<polygon fill="#63b8ff" stroke="#63b8ff" points="260.66,-23.96 250.64,-20.5 256.31,-29.45 260.66,-23.96"/>
</a>
</g>
<g id="a_edge3&#45;headlabel"><a xlink:href="dir_000014_000157.html" target="_top" xlink:title="1100">
<text xml:space="preserve" text-anchor="middle" x="264.05" y="-19.15" font-family="Helvetica,sans-Serif" font-size="10.00" fill="#63b8ff">1100</text>
</a>
</g>
</g>
<!-- dir_f54a02ae71ee9179afdc9bc6d797c5e2 -->
<g id="node2" class="node">
<title>dir_f54a02ae71ee9179afdc9bc6d797c5e2</title>
<g id="a_node2"><a xlink:href="dir_f54a02ae71ee9179afdc9bc6d797c5e2.html" target="_top" xlink:title="AsmParser">
<polygon fill="#a2b4d6" stroke="#404040" points="239.38,-185 174.62,-185 174.62,-165.75 239.38,-165.75 239.38,-185"/>
<text xml:space="preserve" text-anchor="middle" x="207" y="-171.5" font-family="Helvetica,sans-Serif" font-size="10.00">AsmParser</text>
</a>
</g>
</g>
<!-- dir_f54a02ae71ee9179afdc9bc6d797c5e2&#45;&gt;dir_01936f0ac99a25b61f7f8770fcd2356f -->
<g id="edge5" class="edge">
<title>dir_f54a02ae71ee9179afdc9bc6d797c5e2&#45;&gt;dir_01936f0ac99a25b61f7f8770fcd2356f</title>
<g id="a_edge5"><a xlink:href="dir_000019_000218.html" target="_top">
<path fill="none" stroke="#63b8ff" d="M200.06,-165.58C194.38,-158.38 186.16,-147.96 179.11,-139.01"/>
<polygon fill="#63b8ff" stroke="#63b8ff" points="181.96,-136.98 173.02,-131.3 176.47,-141.32 181.96,-136.98"/>
</a>
</g>
<g id="a_edge5&#45;headlabel"><a xlink:href="dir_000019_000218.html" target="_top" xlink:title="5">
<text xml:space="preserve" text-anchor="middle" x="185.48" y="-132.98" font-family="Helvetica,sans-Serif" font-size="10.00" fill="#63b8ff">5</text>
</a>
</g>
</g>
<!-- dir_f54a02ae71ee9179afdc9bc6d797c5e2&#45;&gt;dir_e74ffd2db7d0965c485dd377d7fa07ac -->
<g id="edge8" class="edge">
<title>dir_f54a02ae71ee9179afdc9bc6d797c5e2&#45;&gt;dir_e74ffd2db7d0965c485dd377d7fa07ac</title>
<g id="a_edge8"><a xlink:href="dir_000019_000321.html" target="_top">
<path fill="none" stroke="#63b8ff" d="M176.06,-165.32C156.5,-158.28 131.84,-146.8 115,-129.75 102.88,-117.48 95.02,-99.39 90.4,-85.59"/>
<polygon fill="#63b8ff" stroke="#63b8ff" points="93.82,-84.83 87.58,-76.27 87.12,-86.86 93.82,-84.83"/>
</a>
</g>
<g id="a_edge8&#45;headlabel"><a xlink:href="dir_000019_000321.html" target="_top" xlink:title="1">
<text xml:space="preserve" text-anchor="middle" x="97.14" y="-82.13" font-family="Helvetica,sans-Serif" font-size="10.00" fill="#63b8ff">1</text>
</a>
</g>
</g>
<!-- dir_f54a02ae71ee9179afdc9bc6d797c5e2&#45;&gt;dir_4e37b6fde532b2a91802f4c74b8b2743 -->
<g id="edge6" class="edge">
<title>dir_f54a02ae71ee9179afdc9bc6d797c5e2&#45;&gt;dir_4e37b6fde532b2a91802f4c74b8b2743</title>
<g id="a_edge6"><a xlink:href="dir_000019_000365.html" target="_top">
<path fill="none" stroke="#63b8ff" d="M211.04,-165.26C216.09,-152.44 223.13,-128.66 215,-110.5 209.79,-98.87 199.89,-89.03 190.27,-81.57"/>
<polygon fill="#63b8ff" stroke="#63b8ff" points="192.33,-78.74 182.15,-75.8 188.27,-84.45 192.33,-78.74"/>
</a>
</g>
<g id="a_edge6&#45;headlabel"><a xlink:href="dir_000019_000365.html" target="_top" xlink:title="1">
<text xml:space="preserve" text-anchor="middle" x="195.67" y="-73.76" font-family="Helvetica,sans-Serif" font-size="10.00" fill="#63b8ff">1</text>
</a>
</g>
</g>
<!-- dir_f54a02ae71ee9179afdc9bc6d797c5e2&#45;&gt;dir_d44c64559bbebec7f509842c48db8b23 -->
<g id="edge7" class="edge">
<title>dir_f54a02ae71ee9179afdc9bc6d797c5e2&#45;&gt;dir_d44c64559bbebec7f509842c48db8b23</title>
<g id="a_edge7"><a xlink:href="dir_000019_000157.html" target="_top">
<path fill="none" stroke="#63b8ff" d="M239.77,-169.09C262.6,-163.51 291.47,-152.24 306,-129.75 327.83,-95.97 328.66,-72.48 306,-39.25 297.35,-26.56 282.14,-19.5 267.84,-15.56"/>
<polygon fill="#63b8ff" stroke="#63b8ff" points="268.71,-12.17 258.18,-13.37 267.15,-19 268.71,-12.17"/>
</a>
</g>
<g id="a_edge7&#45;headlabel"><a xlink:href="dir_000019_000157.html" target="_top" xlink:title="40">
<text xml:space="preserve" text-anchor="middle" x="271.36" y="-5.99" font-family="Helvetica,sans-Serif" font-size="10.00" fill="#63b8ff">40</text>
</a>
</g>
</g>
<!-- dir_9284bacc593f864a459203e09e618af5 -->
<g id="node3" class="node">
<title>dir_9284bacc593f864a459203e09e618af5</title>
<g id="a_node3"><a xlink:href="dir_9284bacc593f864a459203e09e618af5.html" target="_top" xlink:title="Disassembler">
<polygon fill="#a2b4d6" stroke="#404040" points="100,-185 24,-185 24,-165.75 100,-165.75 100,-185"/>
<text xml:space="preserve" text-anchor="middle" x="62" y="-171.5" font-family="Helvetica,sans-Serif" font-size="10.00">Disassembler</text>
</a>
</g>
</g>
<!-- dir_9284bacc593f864a459203e09e618af5&#45;&gt;dir_01936f0ac99a25b61f7f8770fcd2356f -->
<g id="edge9" class="edge">
<title>dir_9284bacc593f864a459203e09e618af5&#45;&gt;dir_01936f0ac99a25b61f7f8770fcd2356f</title>
<g id="a_edge9"><a xlink:href="dir_000093_000218.html" target="_top">
<path fill="none" stroke="#63b8ff" d="M79.47,-165.34C95.31,-157.16 118.91,-144.96 137.31,-135.44"/>
<polygon fill="#63b8ff" stroke="#63b8ff" points="138.82,-138.6 146.1,-130.9 135.61,-132.38 138.82,-138.6"/>
</a>
</g>
<g id="a_edge9&#45;headlabel"><a xlink:href="dir_000093_000218.html" target="_top" xlink:title="3">
<text xml:space="preserve" text-anchor="middle" x="138.28" y="-138.2" font-family="Helvetica,sans-Serif" font-size="10.00" fill="#63b8ff">3</text>
</a>
</g>
</g>
<!-- dir_9284bacc593f864a459203e09e618af5&#45;&gt;dir_e74ffd2db7d0965c485dd377d7fa07ac -->
<g id="edge12" class="edge">
<title>dir_9284bacc593f864a459203e09e618af5&#45;&gt;dir_e74ffd2db7d0965c485dd377d7fa07ac</title>
<g id="a_edge12"><a xlink:href="dir_000093_000321.html" target="_top">
<path fill="none" stroke="#63b8ff" d="M54.88,-165.57C45.74,-153.12 31.97,-129.77 40,-110.5 44.65,-99.34 53.59,-89.55 62.29,-81.99"/>
<polygon fill="#63b8ff" stroke="#63b8ff" points="64.26,-84.9 69.89,-75.92 59.89,-79.43 64.26,-84.9"/>
</a>
</g>
<g id="a_edge12&#45;headlabel"><a xlink:href="dir_000093_000321.html" target="_top" xlink:title="1">
<text xml:space="preserve" text-anchor="middle" x="64.41" y="-84.54" font-family="Helvetica,sans-Serif" font-size="10.00" fill="#63b8ff">1</text>
</a>
</g>
</g>
<!-- dir_9284bacc593f864a459203e09e618af5&#45;&gt;dir_4e37b6fde532b2a91802f4c74b8b2743 -->
<g id="edge10" class="edge">
<title>dir_9284bacc593f864a459203e09e618af5&#45;&gt;dir_4e37b6fde532b2a91802f4c74b8b2743</title>
<g id="a_edge10"><a xlink:href="dir_000093_000365.html" target="_top">
<path fill="none" stroke="#63b8ff" d="M67.25,-165.52C75.14,-152.61 90.96,-128.24 108,-110.5 118.27,-99.81 131.17,-89.51 142.1,-81.49"/>
<polygon fill="#63b8ff" stroke="#63b8ff" points="144.1,-84.36 150.22,-75.71 140.04,-78.66 144.1,-84.36"/>
</a>
</g>
<g id="a_edge10&#45;headlabel"><a xlink:href="dir_000093_000365.html" target="_top" xlink:title="1">
<text xml:space="preserve" text-anchor="middle" x="144.05" y="-84.01" font-family="Helvetica,sans-Serif" font-size="10.00" fill="#63b8ff">1</text>
</a>
</g>
</g>
<!-- dir_9284bacc593f864a459203e09e618af5&#45;&gt;dir_d44c64559bbebec7f509842c48db8b23 -->
<g id="edge11" class="edge">
<title>dir_9284bacc593f864a459203e09e618af5&#45;&gt;dir_d44c64559bbebec7f509842c48db8b23</title>
<g id="a_edge11"><a xlink:href="dir_000093_000157.html" target="_top">
<path fill="none" stroke="#63b8ff" d="M100.33,-165.47C143.09,-155.18 207.3,-138.55 215,-129.75 239.02,-102.28 238.66,-56.93 236,-30.83"/>
<polygon fill="#63b8ff" stroke="#63b8ff" points="239.51,-30.71 234.79,-21.22 232.56,-31.58 239.51,-30.71"/>
</a>
</g>
<g id="a_edge11&#45;headlabel"><a xlink:href="dir_000093_000157.html" target="_top" xlink:title="14">
<text xml:space="preserve" text-anchor="middle" x="242.59" y="-28.54" font-family="Helvetica,sans-Serif" font-size="10.00" fill="#63b8ff">14</text>
</a>
</g>
</g>
<!-- dir_01936f0ac99a25b61f7f8770fcd2356f&#45;&gt;dir_e74ffd2db7d0965c485dd377d7fa07ac -->
<g id="edge15" class="edge">
<title>dir_01936f0ac99a25b61f7f8770fcd2356f&#45;&gt;dir_e74ffd2db7d0965c485dd377d7fa07ac</title>
<g id="a_edge15"><a xlink:href="dir_000218_000321.html" target="_top">
<path fill="none" stroke="#63b8ff" d="M151.43,-110.09C139.59,-102.21 122.16,-90.61 108.13,-81.27"/>
<polygon fill="#63b8ff" stroke="#63b8ff" points="110.16,-78.42 99.9,-75.79 106.28,-84.25 110.16,-78.42"/>
</a>
</g>
<g id="a_edge15&#45;headlabel"><a xlink:href="dir_000218_000321.html" target="_top" xlink:title="1">
<text xml:space="preserve" text-anchor="middle" x="113.47" y="-73.33" font-family="Helvetica,sans-Serif" font-size="10.00" fill="#63b8ff">1</text>
</a>
</g>
</g>
<!-- dir_01936f0ac99a25b61f7f8770fcd2356f&#45;&gt;dir_4e37b6fde532b2a91802f4c74b8b2743 -->
<g id="edge13" class="edge">
<title>dir_01936f0ac99a25b61f7f8770fcd2356f&#45;&gt;dir_4e37b6fde532b2a91802f4c74b8b2743</title>
<g id="a_edge13"><a xlink:href="dir_000218_000365.html" target="_top">
<path fill="none" stroke="#63b8ff" d="M159.83,-110.33C158.42,-103.74 157.96,-94.46 158.43,-86.07"/>
<polygon fill="#63b8ff" stroke="#63b8ff" points="161.88,-86.71 159.61,-76.36 154.93,-85.87 161.88,-86.71"/>
</a>
</g>
<g id="a_edge13&#45;headlabel"><a xlink:href="dir_000218_000365.html" target="_top" xlink:title="3">
<text xml:space="preserve" text-anchor="middle" x="164.44" y="-85.25" font-family="Helvetica,sans-Serif" font-size="10.00" fill="#63b8ff">3</text>
</a>
</g>
</g>
<!-- dir_01936f0ac99a25b61f7f8770fcd2356f&#45;&gt;dir_d44c64559bbebec7f509842c48db8b23 -->
<g id="edge14" class="edge">
<title>dir_01936f0ac99a25b61f7f8770fcd2356f&#45;&gt;dir_d44c64559bbebec7f509842c48db8b23</title>
<g id="a_edge14"><a xlink:href="dir_000218_000157.html" target="_top">
<path fill="none" stroke="#63b8ff" d="M170.56,-110.25C181.62,-92.6 206.57,-52.8 221.36,-29.2"/>
<polygon fill="#63b8ff" stroke="#63b8ff" points="224.21,-31.24 226.55,-20.91 218.28,-27.52 224.21,-31.24"/>
</a>
</g>
<g id="a_edge14&#45;headlabel"><a xlink:href="dir_000218_000157.html" target="_top" xlink:title="176">
<text xml:space="preserve" text-anchor="middle" x="225.51" y="-30.64" font-family="Helvetica,sans-Serif" font-size="10.00" fill="#63b8ff">176</text>
</a>
</g>
</g>
<!-- dir_e74ffd2db7d0965c485dd377d7fa07ac&#45;&gt;dir_d44c64559bbebec7f509842c48db8b23 -->
<g id="edge16" class="edge">
<title>dir_e74ffd2db7d0965c485dd377d7fa07ac&#45;&gt;dir_d44c64559bbebec7f509842c48db8b23</title>
<g id="a_edge16"><a xlink:href="dir_000321_000157.html" target="_top">
<path fill="none" stroke="#63b8ff" d="M102.88,-54.79C113.03,-49.84 126.05,-43.8 138,-39.25 157.64,-31.77 180.13,-24.92 198.3,-19.8"/>
<polygon fill="#63b8ff" stroke="#63b8ff" points="199.1,-23.21 207.8,-17.17 197.23,-16.46 199.1,-23.21"/>
</a>
</g>
<g id="a_edge16&#45;headlabel"><a xlink:href="dir_000321_000157.html" target="_top" xlink:title="2">
<text xml:space="preserve" text-anchor="middle" x="197.85" y="-22.62" font-family="Helvetica,sans-Serif" font-size="10.00" fill="#63b8ff">2</text>
</a>
</g>
</g>
<!-- dir_4e37b6fde532b2a91802f4c74b8b2743&#45;&gt;dir_01936f0ac99a25b61f7f8770fcd2356f -->
<g id="edge17" class="edge">
<title>dir_4e37b6fde532b2a91802f4c74b8b2743&#45;&gt;dir_01936f0ac99a25b61f7f8770fcd2356f</title>
<g id="a_edge17"><a xlink:href="dir_000365_000218.html" target="_top">
<path fill="none" stroke="#63b8ff" d="M170.21,-74.86C171.6,-81.5 172.05,-90.8 171.56,-99.17"/>
<polygon fill="#63b8ff" stroke="#63b8ff" points="168.12,-98.47 170.35,-108.83 175.06,-99.34 168.12,-98.47"/>
</a>
</g>
<g id="a_edge17&#45;headlabel"><a xlink:href="dir_000365_000218.html" target="_top" xlink:title="1">
<text xml:space="preserve" text-anchor="middle" x="165.56" y="-92.18" font-family="Helvetica,sans-Serif" font-size="10.00" fill="#63b8ff">1</text>
</a>
</g>
</g>
<!-- dir_4e37b6fde532b2a91802f4c74b8b2743&#45;&gt;dir_d44c64559bbebec7f509842c48db8b23 -->
<g id="edge18" class="edge">
<title>dir_4e37b6fde532b2a91802f4c74b8b2743&#45;&gt;dir_d44c64559bbebec7f509842c48db8b23</title>
<g id="a_edge18"><a xlink:href="dir_000365_000157.html" target="_top">
<path fill="none" stroke="#63b8ff" d="M176.54,-54.84C186.46,-47.07 201.01,-35.67 212.86,-26.4"/>
<polygon fill="#63b8ff" stroke="#63b8ff" points="214.73,-29.38 220.44,-20.46 210.41,-23.87 214.73,-29.38"/>
</a>
</g>
<g id="a_edge18&#45;headlabel"><a xlink:href="dir_000365_000157.html" target="_top" xlink:title="3">
<text xml:space="preserve" text-anchor="middle" x="214.84" y="-29.02" font-family="Helvetica,sans-Serif" font-size="10.00" fill="#63b8ff">3</text>
</a>
</g>
</g>
</g>
</svg>
