<?xml version="1.0" encoding="UTF-8" standalone="no"?>
<!DOCTYPE svg PUBLIC "-//W3C//DTD SVG 1.1//EN"
 "http://www.w3.org/Graphics/SVG/1.1/DTD/svg11.dtd">
<!-- Generated by graphviz version 14.1.3 (20260303.0454)
 -->
<!-- Title: lib/Target/X86 Pages: 1 -->
<svg width="387pt" height="292pt"
 viewBox="0.00 0.00 387.00 292.00" xmlns="http://www.w3.org/2000/svg" xmlns:xlink="http://www.w3.org/1999/xlink">
<g id="graph0" class="graph" transform="scale(1 1) rotate(0) translate(4 287.5)">
<title>lib/Target/X86</title>
<g id="clust1" class="cluster">
<title>clusterdir_794e483eb1cc7921d35fd149d9cc325b</title>
<g id="a_clust1"><a xlink:href="dir_794e483eb1cc7921d35fd149d9cc325b.html" target="_top" xlink:title="Target">
<polygon fill="#edf0f7" stroke="#7f7f7f" stroke-dasharray="5,2" points="8,-39.25 8,-275.5 353,-275.5 353,-39.25 8,-39.25"/>
<text xml:space="preserve" text-anchor="middle" x="180.5" y="-262" font-family="Helvetica,sans-Serif" font-size="10.00">Target</text>
</a>
</g>
</g>
<g id="clust2" class="cluster">
<title>clusterdir_558b7c0c66e2ff4834e628dd4b3edd32</title>
<g id="a_clust2"><a xlink:href="dir_558b7c0c66e2ff4834e628dd4b3edd32.html" target="_top">
<polygon fill="#edf0f7" stroke="#404040" stroke-width="2" points="16,-47.25 16,-248.25 345,-248.25 345,-47.25 16,-47.25"/>
</a>
</g>
</g>
<!-- dir_558b7c0c66e2ff4834e628dd4b3edd32 -->
<g id="node1" class="node">
<title>dir_558b7c0c66e2ff4834e628dd4b3edd32</title>
<text xml:space="preserve" text-anchor="middle" x="250" y="-226.75" font-family="Helvetica,sans-Serif" font-size="10.00">X86</text>
</g>
<!-- dir_3b660fb4fb86a410b8dbabffcb17c333 -->
<g id="node4" class="node">
<title>dir_3b660fb4fb86a410b8dbabffcb17c333</title>
<g id="a_node4"><a xlink:href="dir_3b660fb4fb86a410b8dbabffcb17c333.html" target="_top" xlink:title="GISel">
<polygon fill="#a2b4d6" stroke="#404040" points="337.38,-185 296.62,-185 296.62,-165.75 337.38,-165.75 337.38,-185"/>
<text xml:space="preserve" text-anchor="middle" x="317" y="-171.5" font-family="Helvetica,sans-Serif" font-size="10.00">GISel</text>
</a>
</g>
</g>
<!-- dir_558b7c0c66e2ff4834e628dd4b3edd32&#45;&gt;dir_3b660fb4fb86a410b8dbabffcb17c333 -->
<g id="edge2" class="edge">
<title>dir_558b7c0c66e2ff4834e628dd4b3edd32&#45;&gt;dir_3b660fb4fb86a410b8dbabffcb17c333</title>
<g id="a_edge2"><a xlink:href="dir_000383_000145.html" target="_top">
<path fill="none" stroke="#63b8ff" d="M260.76,-221.07C270.46,-213.37 284.95,-201.85 296.8,-192.43"/>
<polygon fill="#63b8ff" stroke="#63b8ff" points="298.75,-195.35 304.4,-186.39 294.4,-189.87 298.75,-195.35"/>
</a>
</g>
<g id="a_edge2&#45;headlabel"><a xlink:href="dir_000383_000145.html" target="_top" xlink:title="3">
<text xml:space="preserve" text-anchor="middle" x="298.89" y="-194.99" font-family="Helvetica,sans-Serif" font-size="10.00" fill="#63b8ff">3</text>
</a>
</g>
</g>
<!-- dir_a2721e2966d02b967b3f5a8b3a5c50ec -->
<g id="node6" class="node">
<title>dir_a2721e2966d02b967b3f5a8b3a5c50ec</title>
<g id="a_node6"><a xlink:href="dir_a2721e2966d02b967b3f5a8b3a5c50ec.html" target="_top" xlink:title="MCTargetDesc">
<polygon fill="#a2b4d6" stroke="#404040" points="170,-129.75 88,-129.75 88,-110.5 170,-110.5 170,-129.75"/>
<text xml:space="preserve" text-anchor="middle" x="129" y="-116.25" font-family="Helvetica,sans-Serif" font-size="10.00">MCTargetDesc</text>
</a>
</g>
</g>
<!-- dir_558b7c0c66e2ff4834e628dd4b3edd32&#45;&gt;dir_a2721e2966d02b967b3f5a8b3a5c50ec -->
<g id="edge3" class="edge">
<title>dir_558b7c0c66e2ff4834e628dd4b3edd32&#45;&gt;dir_a2721e2966d02b967b3f5a8b3a5c50ec</title>
<g id="a_edge3"><a xlink:href="dir_000383_000237.html" target="_top">
<path fill="none" stroke="#63b8ff" d="M238.56,-221.07C227.04,-212.32 208.89,-198.19 194,-185 189.11,-180.67 163.52,-155.39 145.95,-137.96"/>
<polygon fill="#63b8ff" stroke="#63b8ff" points="148.73,-135.79 139.16,-131.23 143.8,-140.76 148.73,-135.79"/>
</a>
</g>
<g id="a_edge3&#45;headlabel"><a xlink:href="dir_000383_000237.html" target="_top" xlink:title="38">
<text xml:space="preserve" text-anchor="middle" x="152.21" y="-131.36" font-family="Helvetica,sans-Serif" font-size="10.00" fill="#63b8ff">38</text>
</a>
</g>
</g>
<!-- dir_32d3208121019942dc9cbaa52385dba7 -->
<g id="node7" class="node">
<title>dir_32d3208121019942dc9cbaa52385dba7</title>
<g id="a_node7"><a xlink:href="dir_32d3208121019942dc9cbaa52385dba7.html" target="_top" xlink:title="TargetInfo">
<polygon fill="#a2b4d6" stroke="#404040" points="112.75,-74.5 53.25,-74.5 53.25,-55.25 112.75,-55.25 112.75,-74.5"/>
<text xml:space="preserve" text-anchor="middle" x="83" y="-61" font-family="Helvetica,sans-Serif" font-size="10.00">TargetInfo</text>
</a>
</g>
</g>
<!-- dir_558b7c0c66e2ff4834e628dd4b3edd32&#45;&gt;dir_32d3208121019942dc9cbaa52385dba7 -->
<g id="edge1" class="edge">
<title>dir_558b7c0c66e2ff4834e628dd4b3edd32&#45;&gt;dir_32d3208121019942dc9cbaa52385dba7</title>
<g id="a_edge1"><a xlink:href="dir_000383_000340.html" target="_top">
<path fill="none" stroke="#63b8ff" d="M233.46,-228.79C187.53,-226.09 60.14,-215.9 35,-185 9.68,-153.89 43.65,-107.67 66.09,-82.95"/>
<polygon fill="#63b8ff" stroke="#63b8ff" points="68.34,-85.65 72.66,-75.98 63.25,-80.85 68.34,-85.65"/>
</a>
</g>
<g id="a_edge1&#45;headlabel"><a xlink:href="dir_000383_000340.html" target="_top" xlink:title="6">
<text xml:space="preserve" text-anchor="middle" x="68.98" y="-85.24" font-family="Helvetica,sans-Serif" font-size="10.00" fill="#63b8ff">6</text>
</a>
</g>
</g>
<!-- dir_d44c64559bbebec7f509842c48db8b23 -->
<g id="node8" class="node">
<title>dir_d44c64559bbebec7f509842c48db8b23</title>
<g id="a_node8"><a xlink:href="dir_d44c64559bbebec7f509842c48db8b23.html" target="_top" xlink:title="include">
<polygon fill="#edf0f7" stroke="red" points="279.38,-19.25 232.62,-19.25 232.62,0 279.38,0 279.38,-19.25"/>
<text xml:space="preserve" text-anchor="middle" x="256" y="-5.75" font-family="Helvetica,sans-Serif" font-size="10.00">include</text>
</a>
</g>
</g>
<!-- dir_558b7c0c66e2ff4834e628dd4b3edd32&#45;&gt;dir_d44c64559bbebec7f509842c48db8b23 -->
<g id="edge4" class="edge">
<title>dir_558b7c0c66e2ff4834e628dd4b3edd32&#45;&gt;dir_d44c64559bbebec7f509842c48db8b23</title>
<g id="a_edge4"><a xlink:href="dir_000383_000157.html" target="_top">
<path fill="none" stroke="#63b8ff" d="M266.41,-227.4C288.87,-223.38 328.41,-212.58 346,-185 370.31,-146.9 421.64,-179.87 308,-39.25 303.08,-33.16 296.51,-28.17 289.69,-24.16"/>
<polygon fill="#63b8ff" stroke="#63b8ff" points="291.53,-21.17 281.04,-19.66 288.3,-27.38 291.53,-21.17"/>
</a>
</g>
<g id="a_edge4&#45;headlabel"><a xlink:href="dir_000383_000157.html" target="_top" xlink:title="1115">
<text xml:space="preserve" text-anchor="middle" x="294.68" y="-15.73" font-family="Helvetica,sans-Serif" font-size="10.00" fill="#63b8ff">1115</text>
</a>
</g>
</g>
<!-- dir_e111d3f0a2a43936304a51dbe7eff171 -->
<g id="node2" class="node">
<title>dir_e111d3f0a2a43936304a51dbe7eff171</title>
<g id="a_node2"><a xlink:href="dir_e111d3f0a2a43936304a51dbe7eff171.html" target="_top" xlink:title="AsmParser">
<polygon fill="#a2b4d6" stroke="#404040" points="165.38,-185 100.62,-185 100.62,-165.75 165.38,-165.75 165.38,-185"/>
<text xml:space="preserve" text-anchor="middle" x="133" y="-171.5" font-family="Helvetica,sans-Serif" font-size="10.00">AsmParser</text>
</a>
</g>
</g>
<!-- dir_e111d3f0a2a43936304a51dbe7eff171&#45;&gt;dir_a2721e2966d02b967b3f5a8b3a5c50ec -->
<g id="edge6" class="edge">
<title>dir_e111d3f0a2a43936304a51dbe7eff171&#45;&gt;dir_a2721e2966d02b967b3f5a8b3a5c50ec</title>
<g id="a_edge6"><a xlink:href="dir_000035_000237.html" target="_top">
<path fill="none" stroke="#63b8ff" d="M132.34,-165.58C131.84,-158.99 131.15,-149.71 130.52,-141.32"/>
<polygon fill="#63b8ff" stroke="#63b8ff" points="134.03,-141.33 129.79,-131.62 127.05,-141.85 134.03,-141.33"/>
</a>
</g>
<g id="a_edge6&#45;headlabel"><a xlink:href="dir_000035_000237.html" target="_top" xlink:title="9">
<text xml:space="preserve" text-anchor="middle" x="137.01" y="-139.32" font-family="Helvetica,sans-Serif" font-size="10.00" fill="#63b8ff">9</text>
</a>
</g>
</g>
<!-- dir_e111d3f0a2a43936304a51dbe7eff171&#45;&gt;dir_32d3208121019942dc9cbaa52385dba7 -->
<g id="edge5" class="edge">
<title>dir_e111d3f0a2a43936304a51dbe7eff171&#45;&gt;dir_32d3208121019942dc9cbaa52385dba7</title>
<g id="a_edge5"><a xlink:href="dir_000035_000340.html" target="_top">
<path fill="none" stroke="#63b8ff" d="M115.32,-165.32C102.61,-157.73 86.46,-145.59 79,-129.75 72.54,-116.04 74.1,-98.8 76.97,-85.69"/>
<polygon fill="#63b8ff" stroke="#63b8ff" points="80.33,-86.66 79.51,-76.1 73.57,-84.87 80.33,-86.66"/>
</a>
</g>
<g id="a_edge5&#45;headlabel"><a xlink:href="dir_000035_000340.html" target="_top" xlink:title="1">
<text xml:space="preserve" text-anchor="middle" x="82.54" y="-85.53" font-family="Helvetica,sans-Serif" font-size="10.00" fill="#63b8ff">1</text>
</a>
</g>
</g>
<!-- dir_e111d3f0a2a43936304a51dbe7eff171&#45;&gt;dir_d44c64559bbebec7f509842c48db8b23 -->
<g id="edge7" class="edge">
<title>dir_e111d3f0a2a43936304a51dbe7eff171&#45;&gt;dir_d44c64559bbebec7f509842c48db8b23</title>
<g id="a_edge7"><a xlink:href="dir_000035_000157.html" target="_top">
<path fill="none" stroke="#63b8ff" d="M165.42,-167.9C187.48,-161.8 215.55,-150.39 232,-129.75 254.84,-101.1 257.74,-56.5 257.24,-30.78"/>
<polygon fill="#63b8ff" stroke="#63b8ff" points="260.74,-30.88 256.84,-21.03 253.75,-31.17 260.74,-30.88"/>
</a>
</g>
<g id="a_edge7&#45;headlabel"><a xlink:href="dir_000035_000157.html" target="_top" xlink:title="36">
<text xml:space="preserve" text-anchor="middle" x="263.67" y="-28.97" font-family="Helvetica,sans-Serif" font-size="10.00" fill="#63b8ff">36</text>
</a>
</g>
</g>
<!-- dir_2560eea5b289d3eb82407ff5927ed31f -->
<g id="node3" class="node">
<title>dir_2560eea5b289d3eb82407ff5927ed31f</title>
<g id="a_node3"><a xlink:href="dir_2560eea5b289d3eb82407ff5927ed31f.html" target="_top" xlink:title="Disassembler">
<polygon fill="#a2b4d6" stroke="#404040" points="279,-185 203,-185 203,-165.75 279,-165.75 279,-185"/>
<text xml:space="preserve" text-anchor="middle" x="241" y="-171.5" font-family="Helvetica,sans-Serif" font-size="10.00">Disassembler</text>
</a>
</g>
</g>
<!-- dir_2560eea5b289d3eb82407ff5927ed31f&#45;&gt;dir_a2721e2966d02b967b3f5a8b3a5c50ec -->
<g id="edge9" class="edge">
<title>dir_2560eea5b289d3eb82407ff5927ed31f&#45;&gt;dir_a2721e2966d02b967b3f5a8b3a5c50ec</title>
<g id="a_edge9"><a xlink:href="dir_000109_000237.html" target="_top">
<path fill="none" stroke="#63b8ff" d="M222,-165.34C204.54,-157.04 178.4,-144.61 158.28,-135.04"/>
<polygon fill="#63b8ff" stroke="#63b8ff" points="159.99,-131.99 149.46,-130.85 156.99,-138.31 159.99,-131.99"/>
</a>
</g>
<g id="a_edge9&#45;headlabel"><a xlink:href="dir_000109_000237.html" target="_top" xlink:title="2">
<text xml:space="preserve" text-anchor="middle" x="163.09" y="-126.44" font-family="Helvetica,sans-Serif" font-size="10.00" fill="#63b8ff">2</text>
</a>
</g>
</g>
<!-- dir_2560eea5b289d3eb82407ff5927ed31f&#45;&gt;dir_32d3208121019942dc9cbaa52385dba7 -->
<g id="edge8" class="edge">
<title>dir_2560eea5b289d3eb82407ff5927ed31f&#45;&gt;dir_32d3208121019942dc9cbaa52385dba7</title>
<g id="a_edge8"><a xlink:href="dir_000109_000340.html" target="_top">
<path fill="none" stroke="#63b8ff" d="M234.2,-165.53C223.59,-152.2 201.93,-126.79 179,-110.5 160.71,-97.51 138.04,-86.76 119.33,-79.07"/>
<polygon fill="#63b8ff" stroke="#63b8ff" points="120.82,-75.9 110.23,-75.46 118.24,-82.4 120.82,-75.9"/>
</a>
</g>
<g id="a_edge8&#45;headlabel"><a xlink:href="dir_000109_000340.html" target="_top" xlink:title="1">
<text xml:space="preserve" text-anchor="middle" x="123.8" y="-70.15" font-family="Helvetica,sans-Serif" font-size="10.00" fill="#63b8ff">1</text>
</a>
</g>
</g>
<!-- dir_2560eea5b289d3eb82407ff5927ed31f&#45;&gt;dir_d44c64559bbebec7f509842c48db8b23 -->
<g id="edge10" class="edge">
<title>dir_2560eea5b289d3eb82407ff5927ed31f&#45;&gt;dir_d44c64559bbebec7f509842c48db8b23</title>
<g id="a_edge10"><a xlink:href="dir_000109_000157.html" target="_top">
<path fill="none" stroke="#63b8ff" d="M249.22,-165.26C256.28,-156.77 265.96,-143.39 270,-129.75 281.43,-91.19 279.07,-78.44 270,-39.25 269.23,-35.92 268.01,-32.52 266.61,-29.29"/>
<polygon fill="#63b8ff" stroke="#63b8ff" points="269.85,-27.94 262.2,-20.61 263.61,-31.11 269.85,-27.94"/>
</a>
</g>
<g id="a_edge10&#45;headlabel"><a xlink:href="dir_000109_000157.html" target="_top" xlink:title="13">
<text xml:space="preserve" text-anchor="middle" x="273.32" y="-24.63" font-family="Helvetica,sans-Serif" font-size="10.00" fill="#63b8ff">13</text>
</a>
</g>
</g>
<!-- dir_3b660fb4fb86a410b8dbabffcb17c333&#45;&gt;dir_a2721e2966d02b967b3f5a8b3a5c50ec -->
<g id="edge11" class="edge">
<title>dir_3b660fb4fb86a410b8dbabffcb17c333&#45;&gt;dir_a2721e2966d02b967b3f5a8b3a5c50ec</title>
<g id="a_edge11"><a xlink:href="dir_000145_000237.html" target="_top">
<path fill="none" stroke="#63b8ff" d="M296.42,-168.21C293.59,-167.38 290.72,-166.54 288,-165.75 249.07,-154.5 204.66,-142.07 172.69,-133.19"/>
<polygon fill="#63b8ff" stroke="#63b8ff" points="173.96,-129.91 163.39,-130.61 172.09,-136.66 173.96,-129.91"/>
</a>
</g>
<g id="a_edge11&#45;headlabel"><a xlink:href="dir_000145_000237.html" target="_top" xlink:title="1">
<text xml:space="preserve" text-anchor="middle" x="176.72" y="-123.86" font-family="Helvetica,sans-Serif" font-size="10.00" fill="#63b8ff">1</text>
</a>
</g>
</g>
<!-- dir_3b660fb4fb86a410b8dbabffcb17c333&#45;&gt;dir_d44c64559bbebec7f509842c48db8b23 -->
<g id="edge12" class="edge">
<title>dir_3b660fb4fb86a410b8dbabffcb17c333&#45;&gt;dir_d44c64559bbebec7f509842c48db8b23</title>
<g id="a_edge12"><a xlink:href="dir_000145_000157.html" target="_top">
<path fill="none" stroke="#63b8ff" d="M316.83,-165.51C316.02,-142.91 311.56,-81.96 287,-39.25 284.49,-34.89 281.1,-30.81 277.48,-27.18"/>
<polygon fill="#63b8ff" stroke="#63b8ff" points="279.86,-24.61 270.06,-20.58 275.21,-29.84 279.86,-24.61"/>
</a>
</g>
<g id="a_edge12&#45;headlabel"><a xlink:href="dir_000145_000157.html" target="_top" xlink:title="81">
<text xml:space="preserve" text-anchor="middle" x="283.3" y="-19.99" font-family="Helvetica,sans-Serif" font-size="10.00" fill="#63b8ff">81</text>
</a>
</g>
</g>
<!-- dir_51f090ad574e29ea82de317bbbdae7b7 -->
<g id="node5" class="node">
<title>dir_51f090ad574e29ea82de317bbbdae7b7</title>
<g id="a_node5"><a xlink:href="dir_51f090ad574e29ea82de317bbbdae7b7.html" target="_top" xlink:title="MCA">
<polygon fill="#a2b4d6" stroke="#404040" points="82.25,-185 43.75,-185 43.75,-165.75 82.25,-165.75 82.25,-185"/>
<text xml:space="preserve" text-anchor="middle" x="63" y="-171.5" font-family="Helvetica,sans-Serif" font-size="10.00">MCA</text>
</a>
</g>
</g>
<!-- dir_51f090ad574e29ea82de317bbbdae7b7&#45;&gt;dir_a2721e2966d02b967b3f5a8b3a5c50ec -->
<g id="edge14" class="edge">
<title>dir_51f090ad574e29ea82de317bbbdae7b7&#45;&gt;dir_a2721e2966d02b967b3f5a8b3a5c50ec</title>
<g id="a_edge14"><a xlink:href="dir_000209_000237.html" target="_top">
<path fill="none" stroke="#63b8ff" d="M74.2,-165.34C83.74,-157.65 97.67,-146.4 109.11,-137.18"/>
<polygon fill="#63b8ff" stroke="#63b8ff" points="111.21,-139.98 116.79,-130.98 106.81,-134.53 111.21,-139.98"/>
</a>
</g>
<g id="a_edge14&#45;headlabel"><a xlink:href="dir_000209_000237.html" target="_top" xlink:title="1">
<text xml:space="preserve" text-anchor="middle" x="111.37" y="-139.62" font-family="Helvetica,sans-Serif" font-size="10.00" fill="#63b8ff">1</text>
</a>
</g>
</g>
<!-- dir_51f090ad574e29ea82de317bbbdae7b7&#45;&gt;dir_32d3208121019942dc9cbaa52385dba7 -->
<g id="edge13" class="edge">
<title>dir_51f090ad574e29ea82de317bbbdae7b7&#45;&gt;dir_32d3208121019942dc9cbaa52385dba7</title>
<g id="a_edge13"><a xlink:href="dir_000209_000340.html" target="_top">
<path fill="none" stroke="#63b8ff" d="M62.08,-165.58C61.02,-153.15 59.9,-129.81 64,-110.5 65.86,-101.76 69.44,-92.59 73,-84.86"/>
<polygon fill="#63b8ff" stroke="#63b8ff" points="76.02,-86.64 77.32,-76.12 69.75,-83.53 76.02,-86.64"/>
</a>
</g>
<g id="a_edge13&#45;headlabel"><a xlink:href="dir_000209_000340.html" target="_top" xlink:title="1">
<text xml:space="preserve" text-anchor="middle" x="77.64" y="-85.89" font-family="Helvetica,sans-Serif" font-size="10.00" fill="#63b8ff">1</text>
</a>
</g>
</g>
<!-- dir_51f090ad574e29ea82de317bbbdae7b7&#45;&gt;dir_d44c64559bbebec7f509842c48db8b23 -->
<g id="edge15" class="edge">
<title>dir_51f090ad574e29ea82de317bbbdae7b7&#45;&gt;dir_d44c64559bbebec7f509842c48db8b23</title>
<g id="a_edge15"><a xlink:href="dir_000209_000157.html" target="_top">
<path fill="none" stroke="#63b8ff" d="M82.65,-168.45C111.56,-159.46 163.76,-142.13 179,-129.75 212.82,-102.29 236.67,-55.89 248.18,-29.85"/>
<polygon fill="#63b8ff" stroke="#63b8ff" points="251.31,-31.42 252,-20.85 244.87,-28.68 251.31,-31.42"/>
</a>
</g>
<g id="a_edge15&#45;headlabel"><a xlink:href="dir_000209_000157.html" target="_top" xlink:title="4">
<text xml:space="preserve" text-anchor="middle" x="253.11" y="-30.57" font-family="Helvetica,sans-Serif" font-size="10.00" fill="#63b8ff">4</text>
</a>
</g>
</g>
<!-- dir_a2721e2966d02b967b3f5a8b3a5c50ec&#45;&gt;dir_32d3208121019942dc9cbaa52385dba7 -->
<g id="edge16" class="edge">
<title>dir_a2721e2966d02b967b3f5a8b3a5c50ec&#45;&gt;dir_32d3208121019942dc9cbaa52385dba7</title>
<g id="a_edge16"><a xlink:href="dir_000237_000340.html" target="_top">
<path fill="none" stroke="#63b8ff" d="M121.4,-110.33C115.12,-103.05 105.99,-92.48 98.2,-83.48"/>
<polygon fill="#63b8ff" stroke="#63b8ff" points="100.94,-81.28 91.75,-76 95.64,-85.86 100.94,-81.28"/>
</a>
</g>
<g id="a_edge16&#45;headlabel"><a xlink:href="dir_000237_000340.html" target="_top" xlink:title="1">
<text xml:space="preserve" text-anchor="middle" x="104.45" y="-77.13" font-family="Helvetica,sans-Serif" font-size="10.00" fill="#63b8ff">1</text>
</a>
</g>
</g>
<!-- dir_a2721e2966d02b967b3f5a8b3a5c50ec&#45;&gt;dir_d44c64559bbebec7f509842c48db8b23 -->
<g id="edge17" class="edge">
<title>dir_a2721e2966d02b967b3f5a8b3a5c50ec&#45;&gt;dir_d44c64559bbebec7f509842c48db8b23</title>
<g id="a_edge17"><a xlink:href="dir_000237_000157.html" target="_top">
<path fill="none" stroke="#63b8ff" d="M135.89,-110.11C148.25,-94.33 175.6,-61.29 204,-39.25 210.83,-33.95 218.76,-29.05 226.35,-24.86"/>
<polygon fill="#63b8ff" stroke="#63b8ff" points="227.77,-28.06 235,-20.31 224.52,-21.87 227.77,-28.06"/>
</a>
</g>
<g id="a_edge17&#45;headlabel"><a xlink:href="dir_000237_000157.html" target="_top" xlink:title="151">
<text xml:space="preserve" text-anchor="middle" x="227.25" y="-27.67" font-family="Helvetica,sans-Serif" font-size="10.00" fill="#63b8ff">151</text>
</a>
</g>
</g>
<!-- dir_32d3208121019942dc9cbaa52385dba7&#45;&gt;dir_d44c64559bbebec7f509842c48db8b23 -->
<g id="edge18" class="edge">
<title>dir_32d3208121019942dc9cbaa52385dba7&#45;&gt;dir_d44c64559bbebec7f509842c48db8b23</title>
<g id="a_edge18"><a xlink:href="dir_000340_000157.html" target="_top">
<path fill="none" stroke="#63b8ff" d="M107.49,-54.81C120.86,-49.97 137.76,-44.04 153,-39.25 175.5,-32.18 201.04,-25.07 221.05,-19.71"/>
<polygon fill="#63b8ff" stroke="#63b8ff" points="221.91,-23.11 230.68,-17.16 220.11,-16.34 221.91,-23.11"/>
</a>
</g>
<g id="a_edge18&#45;headlabel"><a xlink:href="dir_000340_000157.html" target="_top" xlink:title="2">
<text xml:space="preserve" text-anchor="middle" x="220.63" y="-22.51" font-family="Helvetica,sans-Serif" font-size="10.00" fill="#63b8ff">2</text>
</a>
</g>
</g>
</g>
</svg>
