<?xml version="1.0" encoding="UTF-8" standalone="no"?>
<!DOCTYPE svg PUBLIC "-//W3C//DTD SVG 1.1//EN"
 "http://www.w3.org/Graphics/SVG/1.1/DTD/svg11.dtd">
<!-- Generated by graphviz version 14.1.3 (20260303.0454)
 -->
<!-- Title: lib/Target/AMDGPU Pages: 1 -->
<svg width="411pt" height="236pt"
 viewBox="0.00 0.00 411.00 236.00" xmlns="http://www.w3.org/2000/svg" xmlns:xlink="http://www.w3.org/1999/xlink">
<g id="graph0" class="graph" transform="scale(1 1) rotate(0) translate(4 232.25)">
<title>lib/Target/AMDGPU</title>
<g id="clust1" class="cluster">
<title>clusterdir_794e483eb1cc7921d35fd149d9cc325b</title>
<g id="a_clust1"><a xlink:href="dir_794e483eb1cc7921d35fd149d9cc325b.html" target="_top" xlink:title="Target">
<polygon fill="#edf0f7" stroke="#7f7f7f" stroke-dasharray="5,2" points="8,-39.25 8,-220.25 332,-220.25 332,-39.25 8,-39.25"/>
<text xml:space="preserve" text-anchor="middle" x="170" y="-206.75" font-family="Helvetica,sans-Serif" font-size="10.00">Target</text>
</a>
</g>
</g>
<g id="clust2" class="cluster">
<title>clusterdir_447ce995d6e35417de5ec3060e97c93e</title>
<g id="a_clust2"><a xlink:href="dir_447ce995d6e35417de5ec3060e97c93e.html" target="_top">
<polygon fill="#edf0f7" stroke="#404040" stroke-width="2" points="16,-47.25 16,-193 324,-193 324,-47.25 16,-47.25"/>
</a>
</g>
</g>
<!-- dir_447ce995d6e35417de5ec3060e97c93e -->
<g id="node1" class="node">
<title>dir_447ce995d6e35417de5ec3060e97c93e</title>
<text xml:space="preserve" text-anchor="middle" x="110" y="-171.5" font-family="Helvetica,sans-Serif" font-size="10.00">AMDGPU</text>
</g>
<!-- dir_11079433822a7eb4461df62ee7457777 -->
<g id="node5" class="node">
<title>dir_11079433822a7eb4461df62ee7457777</title>
<g id="a_node5"><a xlink:href="dir_11079433822a7eb4461df62ee7457777.html" target="_top" xlink:title="MCTargetDesc">
<polygon fill="#a2b4d6" stroke="#404040" points="208,-129.75 126,-129.75 126,-110.5 208,-110.5 208,-129.75"/>
<text xml:space="preserve" text-anchor="middle" x="167" y="-116.25" font-family="Helvetica,sans-Serif" font-size="10.00">MCTargetDesc</text>
</a>
</g>
</g>
<!-- dir_447ce995d6e35417de5ec3060e97c93e&#45;&gt;dir_11079433822a7eb4461df62ee7457777 -->
<g id="edge1" class="edge">
<title>dir_447ce995d6e35417de5ec3060e97c93e&#45;&gt;dir_11079433822a7eb4461df62ee7457777</title>
<g id="a_edge1"><a xlink:href="dir_000007_000216.html" target="_top">
<path fill="none" stroke="#63b8ff" d="M119.16,-165.82C127.16,-158.35 139.01,-147.28 148.91,-138.03"/>
<polygon fill="#63b8ff" stroke="#63b8ff" points="151.27,-140.61 156.19,-131.23 146.49,-135.5 151.27,-140.61"/>
</a>
</g>
<g id="a_edge1&#45;headlabel"><a xlink:href="dir_000007_000216.html" target="_top" xlink:title="87">
<text xml:space="preserve" text-anchor="middle" x="151.69" y="-140.23" font-family="Helvetica,sans-Serif" font-size="10.00" fill="#63b8ff">87</text>
</a>
</g>
</g>
<!-- dir_c9171f2c0f5e8c5077bd9fc5c6f70647 -->
<g id="node6" class="node">
<title>dir_c9171f2c0f5e8c5077bd9fc5c6f70647</title>
<g id="a_node6"><a xlink:href="dir_c9171f2c0f5e8c5077bd9fc5c6f70647.html" target="_top" xlink:title="TargetInfo">
<polygon fill="#a2b4d6" stroke="#404040" points="113.75,-74.5 54.25,-74.5 54.25,-55.25 113.75,-55.25 113.75,-74.5"/>
<text xml:space="preserve" text-anchor="middle" x="84" y="-61" font-family="Helvetica,sans-Serif" font-size="10.00">TargetInfo</text>
</a>
</g>
</g>
<!-- dir_447ce995d6e35417de5ec3060e97c93e&#45;&gt;dir_c9171f2c0f5e8c5077bd9fc5c6f70647 -->
<g id="edge3" class="edge">
<title>dir_447ce995d6e35417de5ec3060e97c93e&#45;&gt;dir_c9171f2c0f5e8c5077bd9fc5c6f70647</title>
<g id="a_edge3"><a xlink:href="dir_000007_000319.html" target="_top">
<path fill="none" stroke="#63b8ff" d="M95.63,-165.81C84.13,-158.03 68.82,-145.4 62,-129.75 55.42,-114.65 62.68,-96.89 70.58,-83.94"/>
<polygon fill="#63b8ff" stroke="#63b8ff" points="73.26,-86.22 75.95,-75.98 67.45,-82.31 73.26,-86.22"/>
</a>
</g>
<g id="a_edge3&#45;headlabel"><a xlink:href="dir_000007_000319.html" target="_top" xlink:title="6">
<text xml:space="preserve" text-anchor="middle" x="74.45" y="-85.66" font-family="Helvetica,sans-Serif" font-size="10.00" fill="#63b8ff">6</text>
</a>
</g>
</g>
<!-- dir_234f42f82b76b03f6101df18c668b2d0 -->
<g id="node7" class="node">
<title>dir_234f42f82b76b03f6101df18c668b2d0</title>
<g id="a_node7"><a xlink:href="dir_234f42f82b76b03f6101df18c668b2d0.html" target="_top" xlink:title="Utils">
<polygon fill="#a2b4d6" stroke="#404040" points="185.12,-74.5 148.88,-74.5 148.88,-55.25 185.12,-55.25 185.12,-74.5"/>
<text xml:space="preserve" text-anchor="middle" x="167" y="-61" font-family="Helvetica,sans-Serif" font-size="10.00">Utils</text>
</a>
</g>
</g>
<!-- dir_447ce995d6e35417de5ec3060e97c93e&#45;&gt;dir_234f42f82b76b03f6101df18c668b2d0 -->
<g id="edge2" class="edge">
<title>dir_447ce995d6e35417de5ec3060e97c93e&#45;&gt;dir_234f42f82b76b03f6101df18c668b2d0</title>
<g id="a_edge2"><a xlink:href="dir_000007_000364.html" target="_top">
<path fill="none" stroke="#63b8ff" d="M109.09,-165.97C108.09,-153.22 107.7,-128.55 117,-110.5 122.91,-99.02 133.1,-89.1 142.74,-81.56"/>
<polygon fill="#63b8ff" stroke="#63b8ff" points="144.76,-84.42 150.8,-75.72 140.65,-78.75 144.76,-84.42"/>
</a>
</g>
<g id="a_edge2&#45;headlabel"><a xlink:href="dir_000007_000364.html" target="_top" xlink:title="54">
<text xml:space="preserve" text-anchor="middle" x="144.74" y="-84.06" font-family="Helvetica,sans-Serif" font-size="10.00" fill="#63b8ff">54</text>
</a>
</g>
</g>
<!-- dir_d44c64559bbebec7f509842c48db8b23 -->
<g id="node8" class="node">
<title>dir_d44c64559bbebec7f509842c48db8b23</title>
<g id="a_node8"><a xlink:href="dir_d44c64559bbebec7f509842c48db8b23.html" target="_top" xlink:title="include">
<polygon fill="#edf0f7" stroke="red" points="319.38,-19.25 272.62,-19.25 272.62,0 319.38,0 319.38,-19.25"/>
<text xml:space="preserve" text-anchor="middle" x="296" y="-5.75" font-family="Helvetica,sans-Serif" font-size="10.00">include</text>
</a>
</g>
</g>
<!-- dir_447ce995d6e35417de5ec3060e97c93e&#45;&gt;dir_d44c64559bbebec7f509842c48db8b23 -->
<g id="edge4" class="edge">
<title>dir_447ce995d6e35417de5ec3060e97c93e&#45;&gt;dir_d44c64559bbebec7f509842c48db8b23</title>
<g id="a_edge4"><a xlink:href="dir_000007_000157.html" target="_top">
<path fill="none" stroke="#63b8ff" d="M139.88,-167.77C195.57,-155.45 309.66,-130.17 310,-129.75 332.93,-101.15 317.7,-55.55 305.95,-29.86"/>
<polygon fill="#63b8ff" stroke="#63b8ff" points="309.14,-28.41 301.61,-20.95 302.85,-31.47 309.14,-28.41"/>
</a>
</g>
<g id="a_edge4&#45;headlabel"><a xlink:href="dir_000007_000157.html" target="_top" xlink:title="1249">
<text xml:space="preserve" text-anchor="middle" x="312.6" y="-25.16" font-family="Helvetica,sans-Serif" font-size="10.00" fill="#63b8ff">1249</text>
</a>
</g>
</g>
<!-- dir_85a100ef039c3f4c9003c4e03ed24421 -->
<g id="node2" class="node">
<title>dir_85a100ef039c3f4c9003c4e03ed24421</title>
<g id="a_node2"><a xlink:href="dir_85a100ef039c3f4c9003c4e03ed24421.html" target="_top" xlink:title="AsmParser">
<polygon fill="#a2b4d6" stroke="#404040" points="316.38,-185 251.62,-185 251.62,-165.75 316.38,-165.75 316.38,-185"/>
<text xml:space="preserve" text-anchor="middle" x="284" y="-171.5" font-family="Helvetica,sans-Serif" font-size="10.00">AsmParser</text>
</a>
</g>
</g>
<!-- dir_85a100ef039c3f4c9003c4e03ed24421&#45;&gt;dir_11079433822a7eb4461df62ee7457777 -->
<g id="edge5" class="edge">
<title>dir_85a100ef039c3f4c9003c4e03ed24421&#45;&gt;dir_11079433822a7eb4461df62ee7457777</title>
<g id="a_edge5"><a xlink:href="dir_000018_000216.html" target="_top">
<path fill="none" stroke="#63b8ff" d="M264.15,-165.34C245.83,-157 218.35,-144.5 197.29,-134.91"/>
<polygon fill="#63b8ff" stroke="#63b8ff" points="198.87,-131.79 188.32,-130.83 195.97,-138.16 198.87,-131.79"/>
</a>
</g>
<g id="a_edge5&#45;headlabel"><a xlink:href="dir_000018_000216.html" target="_top" xlink:title="6">
<text xml:space="preserve" text-anchor="middle" x="201.94" y="-126.19" font-family="Helvetica,sans-Serif" font-size="10.00" fill="#63b8ff">6</text>
</a>
</g>
</g>
<!-- dir_85a100ef039c3f4c9003c4e03ed24421&#45;&gt;dir_c9171f2c0f5e8c5077bd9fc5c6f70647 -->
<g id="edge7" class="edge">
<title>dir_85a100ef039c3f4c9003c4e03ed24421&#45;&gt;dir_c9171f2c0f5e8c5077bd9fc5c6f70647</title>
<g id="a_edge7"><a xlink:href="dir_000018_000319.html" target="_top">
<path fill="none" stroke="#63b8ff" d="M277.09,-165.68C265.86,-152.09 242.32,-125.77 217,-110.5 188.53,-93.33 152.61,-81.79 125.28,-74.75"/>
<polygon fill="#63b8ff" stroke="#63b8ff" points="126.15,-71.36 115.6,-72.36 124.48,-78.15 126.15,-71.36"/>
</a>
</g>
<g id="a_edge7&#45;headlabel"><a xlink:href="dir_000018_000319.html" target="_top" xlink:title="1">
<text xml:space="preserve" text-anchor="middle" x="128.85" y="-65.22" font-family="Helvetica,sans-Serif" font-size="10.00" fill="#63b8ff">1</text>
</a>
</g>
</g>
<!-- dir_85a100ef039c3f4c9003c4e03ed24421&#45;&gt;dir_234f42f82b76b03f6101df18c668b2d0 -->
<g id="edge6" class="edge">
<title>dir_85a100ef039c3f4c9003c4e03ed24421&#45;&gt;dir_234f42f82b76b03f6101df18c668b2d0</title>
<g id="a_edge6"><a xlink:href="dir_000018_000364.html" target="_top">
<path fill="none" stroke="#63b8ff" d="M281.49,-165.49C277.31,-152.1 267.81,-126.61 252,-110.5 236.41,-94.61 213.96,-83.16 196.05,-75.84"/>
<polygon fill="#63b8ff" stroke="#63b8ff" points="197.32,-72.58 186.73,-72.25 194.81,-79.11 197.32,-72.58"/>
</a>
</g>
<g id="a_edge6&#45;headlabel"><a xlink:href="dir_000018_000364.html" target="_top" xlink:title="3">
<text xml:space="preserve" text-anchor="middle" x="200.28" y="-66.8" font-family="Helvetica,sans-Serif" font-size="10.00" fill="#63b8ff">3</text>
</a>
</g>
</g>
<!-- dir_85a100ef039c3f4c9003c4e03ed24421&#45;&gt;dir_d44c64559bbebec7f509842c48db8b23 -->
<g id="edge8" class="edge">
<title>dir_85a100ef039c3f4c9003c4e03ed24421&#45;&gt;dir_d44c64559bbebec7f509842c48db8b23</title>
<g id="a_edge8"><a xlink:href="dir_000018_000157.html" target="_top">
<path fill="none" stroke="#63b8ff" d="M316.74,-169.6C340.4,-164.25 370.77,-153.04 386,-129.75 408.02,-96.09 409.74,-71.72 386,-39.25 373.44,-22.07 350.48,-14.95 330.89,-12.11"/>
<polygon fill="#63b8ff" stroke="#63b8ff" points="331.39,-8.64 321.06,-11.03 330.62,-15.6 331.39,-8.64"/>
</a>
</g>
<g id="a_edge8&#45;headlabel"><a xlink:href="dir_000018_000157.html" target="_top" xlink:title="24">
<text xml:space="preserve" text-anchor="middle" x="333.76" y="-2.17" font-family="Helvetica,sans-Serif" font-size="10.00" fill="#63b8ff">24</text>
</a>
</g>
</g>
<!-- dir_aecf830508d23262985d43a7b64360cb -->
<g id="node3" class="node">
<title>dir_aecf830508d23262985d43a7b64360cb</title>
<g id="a_node3"><a xlink:href="dir_aecf830508d23262985d43a7b64360cb.html" target="_top" xlink:title="Disassembler">
<polygon fill="#a2b4d6" stroke="#404040" points="234,-185 158,-185 158,-165.75 234,-165.75 234,-185"/>
<text xml:space="preserve" text-anchor="middle" x="196" y="-171.5" font-family="Helvetica,sans-Serif" font-size="10.00">Disassembler</text>
</a>
</g>
</g>
<!-- dir_aecf830508d23262985d43a7b64360cb&#45;&gt;dir_11079433822a7eb4461df62ee7457777 -->
<g id="edge9" class="edge">
<title>dir_aecf830508d23262985d43a7b64360cb&#45;&gt;dir_11079433822a7eb4461df62ee7457777</title>
<g id="a_edge9"><a xlink:href="dir_000091_000216.html" target="_top">
<path fill="none" stroke="#63b8ff" d="M191.21,-165.58C187.46,-158.69 182.09,-148.84 177.37,-140.16"/>
<polygon fill="#63b8ff" stroke="#63b8ff" points="180.47,-138.55 172.62,-131.44 174.33,-141.89 180.47,-138.55"/>
</a>
</g>
<g id="a_edge9&#45;headlabel"><a xlink:href="dir_000091_000216.html" target="_top" xlink:title="2">
<text xml:space="preserve" text-anchor="middle" x="183.96" y="-135.14" font-family="Helvetica,sans-Serif" font-size="10.00" fill="#63b8ff">2</text>
</a>
</g>
</g>
<!-- dir_aecf830508d23262985d43a7b64360cb&#45;&gt;dir_c9171f2c0f5e8c5077bd9fc5c6f70647 -->
<g id="edge11" class="edge">
<title>dir_aecf830508d23262985d43a7b64360cb&#45;&gt;dir_c9171f2c0f5e8c5077bd9fc5c6f70647</title>
<g id="a_edge11"><a xlink:href="dir_000091_000319.html" target="_top">
<path fill="none" stroke="#63b8ff" d="M172.19,-165.29C155.13,-157.83 132.52,-145.86 117,-129.75 104.81,-117.1 96.05,-99.05 90.63,-85.36"/>
<polygon fill="#63b8ff" stroke="#63b8ff" points="93.97,-84.31 87.25,-76.12 87.4,-86.71 93.97,-84.31"/>
</a>
</g>
<g id="a_edge11&#45;headlabel"><a xlink:href="dir_000091_000319.html" target="_top" xlink:title="1">
<text xml:space="preserve" text-anchor="middle" x="97.35" y="-81.41" font-family="Helvetica,sans-Serif" font-size="10.00" fill="#63b8ff">1</text>
</a>
</g>
</g>
<!-- dir_aecf830508d23262985d43a7b64360cb&#45;&gt;dir_234f42f82b76b03f6101df18c668b2d0 -->
<g id="edge10" class="edge">
<title>dir_aecf830508d23262985d43a7b64360cb&#45;&gt;dir_234f42f82b76b03f6101df18c668b2d0</title>
<g id="a_edge10"><a xlink:href="dir_000091_000364.html" target="_top">
<path fill="none" stroke="#63b8ff" d="M203.03,-165.48C212.02,-152.94 225.49,-129.46 217,-110.5 211.79,-98.87 201.89,-89.03 192.27,-81.57"/>
<polygon fill="#63b8ff" stroke="#63b8ff" points="194.33,-78.74 184.15,-75.8 190.27,-84.45 194.33,-78.74"/>
</a>
</g>
<g id="a_edge10&#45;headlabel"><a xlink:href="dir_000091_000364.html" target="_top" xlink:title="2">
<text xml:space="preserve" text-anchor="middle" x="197.67" y="-73.76" font-family="Helvetica,sans-Serif" font-size="10.00" fill="#63b8ff">2</text>
</a>
</g>
</g>
<!-- dir_aecf830508d23262985d43a7b64360cb&#45;&gt;dir_d44c64559bbebec7f509842c48db8b23 -->
<g id="edge12" class="edge">
<title>dir_aecf830508d23262985d43a7b64360cb&#45;&gt;dir_d44c64559bbebec7f509842c48db8b23</title>
<g id="a_edge12"><a xlink:href="dir_000091_000157.html" target="_top">
<path fill="none" stroke="#63b8ff" d="M234.32,-165.64C277.02,-155.52 341.04,-139.05 348,-129.75 372.1,-97.55 368.47,-73.88 348,-39.25 343.75,-32.05 336.97,-26.54 329.69,-22.37"/>
<polygon fill="#63b8ff" stroke="#63b8ff" points="331.53,-19.38 321.01,-18.15 328.47,-25.67 331.53,-19.38"/>
</a>
</g>
<g id="a_edge12&#45;headlabel"><a xlink:href="dir_000091_000157.html" target="_top" xlink:title="19">
<text xml:space="preserve" text-anchor="middle" x="334.64" y="-13.86" font-family="Helvetica,sans-Serif" font-size="10.00" fill="#63b8ff">19</text>
</a>
</g>
</g>
<!-- dir_a38c21fc135969bdd6d4286f2bcb9e32 -->
<g id="node4" class="node">
<title>dir_a38c21fc135969bdd6d4286f2bcb9e32</title>
<g id="a_node4"><a xlink:href="dir_a38c21fc135969bdd6d4286f2bcb9e32.html" target="_top" xlink:title="MCA">
<polygon fill="#a2b4d6" stroke="#404040" points="62.25,-185 23.75,-185 23.75,-165.75 62.25,-165.75 62.25,-185"/>
<text xml:space="preserve" text-anchor="middle" x="43" y="-171.5" font-family="Helvetica,sans-Serif" font-size="10.00">MCA</text>
</a>
</g>
</g>
<!-- dir_a38c21fc135969bdd6d4286f2bcb9e32&#45;&gt;dir_11079433822a7eb4461df62ee7457777 -->
<g id="edge13" class="edge">
<title>dir_a38c21fc135969bdd6d4286f2bcb9e32&#45;&gt;dir_11079433822a7eb4461df62ee7457777</title>
<g id="a_edge13"><a xlink:href="dir_000207_000216.html" target="_top">
<path fill="none" stroke="#63b8ff" d="M62.65,-165.94C82.13,-157.57 112.31,-144.61 135.2,-134.78"/>
<polygon fill="#63b8ff" stroke="#63b8ff" points="136.58,-138 144.39,-130.83 133.82,-131.56 136.58,-138"/>
</a>
</g>
<g id="a_edge13&#45;headlabel"><a xlink:href="dir_000207_000216.html" target="_top" xlink:title="1">
<text xml:space="preserve" text-anchor="middle" x="135.79" y="-137.55" font-family="Helvetica,sans-Serif" font-size="10.00" fill="#63b8ff">1</text>
</a>
</g>
</g>
<!-- dir_a38c21fc135969bdd6d4286f2bcb9e32&#45;&gt;dir_c9171f2c0f5e8c5077bd9fc5c6f70647 -->
<g id="edge15" class="edge">
<title>dir_a38c21fc135969bdd6d4286f2bcb9e32&#45;&gt;dir_c9171f2c0f5e8c5077bd9fc5c6f70647</title>
<g id="a_edge15"><a xlink:href="dir_000207_000319.html" target="_top">
<path fill="none" stroke="#63b8ff" d="M43.58,-165.39C44.65,-152.74 47.53,-129.14 55,-110.5 58.73,-101.2 64.5,-91.77 69.92,-83.99"/>
<polygon fill="#63b8ff" stroke="#63b8ff" points="72.63,-86.21 75.74,-76.08 66.99,-82.06 72.63,-86.21"/>
</a>
</g>
<g id="a_edge15&#45;headlabel"><a xlink:href="dir_000207_000319.html" target="_top" xlink:title="1">
<text xml:space="preserve" text-anchor="middle" x="73.68" y="-85.69" font-family="Helvetica,sans-Serif" font-size="10.00" fill="#63b8ff">1</text>
</a>
</g>
</g>
<!-- dir_a38c21fc135969bdd6d4286f2bcb9e32&#45;&gt;dir_234f42f82b76b03f6101df18c668b2d0 -->
<g id="edge14" class="edge">
<title>dir_a38c21fc135969bdd6d4286f2bcb9e32&#45;&gt;dir_234f42f82b76b03f6101df18c668b2d0</title>
<g id="a_edge14"><a xlink:href="dir_000207_000364.html" target="_top">
<path fill="none" stroke="#63b8ff" d="M51.31,-165.28C63.17,-152.51 85.84,-128.76 107,-110.5 118.86,-100.27 132.87,-89.77 144.36,-81.52"/>
<polygon fill="#63b8ff" stroke="#63b8ff" points="146.32,-84.43 152.47,-75.8 142.28,-78.71 146.32,-84.43"/>
</a>
</g>
<g id="a_edge14&#45;headlabel"><a xlink:href="dir_000207_000364.html" target="_top" xlink:title="2">
<text xml:space="preserve" text-anchor="middle" x="146.26" y="-84.07" font-family="Helvetica,sans-Serif" font-size="10.00" fill="#63b8ff">2</text>
</a>
</g>
</g>
<!-- dir_a38c21fc135969bdd6d4286f2bcb9e32&#45;&gt;dir_d44c64559bbebec7f509842c48db8b23 -->
<g id="edge16" class="edge">
<title>dir_a38c21fc135969bdd6d4286f2bcb9e32&#45;&gt;dir_d44c64559bbebec7f509842c48db8b23</title>
<g id="a_edge16"><a xlink:href="dir_000207_000157.html" target="_top">
<path fill="none" stroke="#63b8ff" d="M62.54,-168.2C65.37,-167.35 68.25,-166.51 71,-165.75 135.41,-147.91 161.58,-167.1 217,-129.75 253.75,-104.99 277.67,-56.81 288.78,-29.93"/>
<polygon fill="#63b8ff" stroke="#63b8ff" points="291.91,-31.54 292.31,-20.95 285.39,-28.97 291.91,-31.54"/>
</a>
</g>
<g id="a_edge16&#45;headlabel"><a xlink:href="dir_000207_000157.html" target="_top" xlink:title="6">
<text xml:space="preserve" text-anchor="middle" x="293.79" y="-30.64" font-family="Helvetica,sans-Serif" font-size="10.00" fill="#63b8ff">6</text>
</a>
</g>
</g>
<!-- dir_11079433822a7eb4461df62ee7457777&#45;&gt;dir_c9171f2c0f5e8c5077bd9fc5c6f70647 -->
<g id="edge18" class="edge">
<title>dir_11079433822a7eb4461df62ee7457777&#45;&gt;dir_c9171f2c0f5e8c5077bd9fc5c6f70647</title>
<g id="a_edge18"><a xlink:href="dir_000216_000319.html" target="_top">
<path fill="none" stroke="#63b8ff" d="M152.92,-110.09C140.52,-102.14 122.21,-90.39 107.57,-81"/>
<polygon fill="#63b8ff" stroke="#63b8ff" points="109.73,-78.22 99.42,-75.77 105.95,-84.12 109.73,-78.22"/>
</a>
</g>
<g id="a_edge18&#45;headlabel"><a xlink:href="dir_000216_000319.html" target="_top" xlink:title="1">
<text xml:space="preserve" text-anchor="middle" x="113.01" y="-73.08" font-family="Helvetica,sans-Serif" font-size="10.00" fill="#63b8ff">1</text>
</a>
</g>
</g>
<!-- dir_11079433822a7eb4461df62ee7457777&#45;&gt;dir_234f42f82b76b03f6101df18c668b2d0 -->
<g id="edge17" class="edge">
<title>dir_11079433822a7eb4461df62ee7457777&#45;&gt;dir_234f42f82b76b03f6101df18c668b2d0</title>
<g id="a_edge17"><a xlink:href="dir_000216_000364.html" target="_top">
<path fill="none" stroke="#63b8ff" d="M161.83,-110.33C160.42,-103.74 159.96,-94.46 160.43,-86.07"/>
<polygon fill="#63b8ff" stroke="#63b8ff" points="163.88,-86.71 161.61,-76.36 156.93,-85.87 163.88,-86.71"/>
</a>
</g>
<g id="a_edge17&#45;headlabel"><a xlink:href="dir_000216_000364.html" target="_top" xlink:title="10">
<text xml:space="preserve" text-anchor="middle" x="166.44" y="-85.25" font-family="Helvetica,sans-Serif" font-size="10.00" fill="#63b8ff">10</text>
</a>
</g>
</g>
<!-- dir_11079433822a7eb4461df62ee7457777&#45;&gt;dir_d44c64559bbebec7f509842c48db8b23 -->
<g id="edge19" class="edge">
<title>dir_11079433822a7eb4461df62ee7457777&#45;&gt;dir_d44c64559bbebec7f509842c48db8b23</title>
<g id="a_edge19"><a xlink:href="dir_000216_000157.html" target="_top">
<path fill="none" stroke="#63b8ff" d="M177.56,-110.25C199.2,-92.05 248.87,-50.27 276.52,-27.01"/>
<polygon fill="#63b8ff" stroke="#63b8ff" points="278.74,-29.72 284.14,-20.6 274.23,-24.36 278.74,-29.72"/>
</a>
</g>
<g id="a_edge19&#45;headlabel"><a xlink:href="dir_000216_000157.html" target="_top" xlink:title="101">
<text xml:space="preserve" text-anchor="middle" x="278.97" y="-29.35" font-family="Helvetica,sans-Serif" font-size="10.00" fill="#63b8ff">101</text>
</a>
</g>
</g>
<!-- dir_c9171f2c0f5e8c5077bd9fc5c6f70647&#45;&gt;dir_d44c64559bbebec7f509842c48db8b23 -->
<g id="edge20" class="edge">
<title>dir_c9171f2c0f5e8c5077bd9fc5c6f70647&#45;&gt;dir_d44c64559bbebec7f509842c48db8b23</title>
<g id="a_edge20"><a xlink:href="dir_000319_000157.html" target="_top">
<path fill="none" stroke="#63b8ff" d="M101.75,-54.8C112.57,-49.59 126.8,-43.3 140,-39.25 180.61,-26.78 228.94,-18.94 260.92,-14.69"/>
<polygon fill="#63b8ff" stroke="#63b8ff" points="261.36,-18.16 270.83,-13.42 260.47,-11.22 261.36,-18.16"/>
</a>
</g>
<g id="a_edge20&#45;headlabel"><a xlink:href="dir_000319_000157.html" target="_top" xlink:title="2">
<text xml:space="preserve" text-anchor="middle" x="259.65" y="-17.36" font-family="Helvetica,sans-Serif" font-size="10.00" fill="#63b8ff">2</text>
</a>
</g>
</g>
<!-- dir_234f42f82b76b03f6101df18c668b2d0&#45;&gt;dir_11079433822a7eb4461df62ee7457777 -->
<g id="edge21" class="edge">
<title>dir_234f42f82b76b03f6101df18c668b2d0&#45;&gt;dir_11079433822a7eb4461df62ee7457777</title>
<g id="a_edge21"><a xlink:href="dir_000364_000216.html" target="_top">
<path fill="none" stroke="#63b8ff" d="M172.21,-74.86C173.6,-81.5 174.05,-90.8 173.56,-99.17"/>
<polygon fill="#63b8ff" stroke="#63b8ff" points="170.12,-98.47 172.35,-108.83 177.06,-99.34 170.12,-98.47"/>
</a>
</g>
<g id="a_edge21&#45;headlabel"><a xlink:href="dir_000364_000216.html" target="_top" xlink:title="1">
<text xml:space="preserve" text-anchor="middle" x="167.56" y="-92.18" font-family="Helvetica,sans-Serif" font-size="10.00" fill="#63b8ff">1</text>
</a>
</g>
</g>
<!-- dir_234f42f82b76b03f6101df18c668b2d0&#45;&gt;dir_d44c64559bbebec7f509842c48db8b23 -->
<g id="edge22" class="edge">
<title>dir_234f42f82b76b03f6101df18c668b2d0&#45;&gt;dir_d44c64559bbebec7f509842c48db8b23</title>
<g id="a_edge22"><a xlink:href="dir_000364_000157.html" target="_top">
<path fill="none" stroke="#63b8ff" d="M185.48,-55.31C196.1,-50.46 209.74,-44.36 222,-39.25 234.88,-33.88 249.16,-28.28 261.71,-23.46"/>
<polygon fill="#63b8ff" stroke="#63b8ff" points="262.7,-26.83 270.8,-20.01 260.21,-20.29 262.7,-26.83"/>
</a>
</g>
<g id="a_edge22&#45;headlabel"><a xlink:href="dir_000364_000157.html" target="_top" xlink:title="42">
<text xml:space="preserve" text-anchor="middle" x="261.76" y="-26.35" font-family="Helvetica,sans-Serif" font-size="10.00" fill="#63b8ff">42</text>
</a>
</g>
</g>
</g>
</svg>
