<?xml version="1.0" encoding="UTF-8" standalone="no"?>
<!DOCTYPE svg PUBLIC "-//W3C//DTD SVG 1.1//EN"
 "http://www.w3.org/Graphics/SVG/1.1/DTD/svg11.dtd">
<!-- Generated by graphviz version 14.1.3 (20260303.0454)
 -->
<!-- Title: include/llvm/Frontend Pages: 1 -->
<svg width="943pt" height="197pt"
 viewBox="0.00 0.00 943.00 197.00" xmlns="http://www.w3.org/2000/svg" xmlns:xlink="http://www.w3.org/1999/xlink">
<g id="graph0" class="graph" transform="scale(1 1) rotate(0) translate(4 193)">
<title>include/llvm/Frontend</title>
<g id="clust1" class="cluster">
<title>clusterdir_dcde91663b8816e1e2311938ccd8f690</title>
<g id="a_clust1"><a xlink:href="dir_dcde91663b8816e1e2311938ccd8f690.html" target="_top" xlink:title="llvm">
<polygon fill="#edf0f7" stroke="#7f7f7f" stroke-dasharray="5,2" points="8,-8 8,-181 927,-181 927,-8 8,-8"/>
<text xml:space="preserve" text-anchor="middle" x="467.5" y="-167.5" font-family="Helvetica,sans-Serif" font-size="10.00">llvm</text>
</a>
</g>
</g>
<g id="clust2" class="cluster">
<title>clusterdir_8b88ca948c2776c050dedd5dc7d3a9c7</title>
<g id="a_clust2"><a xlink:href="dir_8b88ca948c2776c050dedd5dc7d3a9c7.html" target="_top">
<polygon fill="#edf0f7" stroke="#404040" stroke-width="2" points="262,-63.25 262,-153.75 737,-153.75 737,-63.25 262,-63.25"/>
</a>
</g>
</g>
<!-- dir_32453792af2ba70c54e3ccae3a790d1b -->
<g id="node1" class="node">
<title>dir_32453792af2ba70c54e3ccae3a790d1b</title>
<g id="a_node1"><a xlink:href="dir_32453792af2ba70c54e3ccae3a790d1b.html" target="_top" xlink:title="ADT">
<polygon fill="#a2b4d6" stroke="#404040" points="254.12,-90.5 217.88,-90.5 217.88,-71.25 254.12,-71.25 254.12,-90.5"/>
<text xml:space="preserve" text-anchor="middle" x="236" y="-77" font-family="Helvetica,sans-Serif" font-size="10.00">ADT</text>
</a>
</g>
</g>
<!-- dir_b404620133d8508a838af4d853306b62 -->
<g id="node2" class="node">
<title>dir_b404620133d8508a838af4d853306b62</title>
<g id="a_node2"><a xlink:href="dir_b404620133d8508a838af4d853306b62.html" target="_top" xlink:title="TargetParser">
<polygon fill="#a2b4d6" stroke="#404040" points="816.75,-90.5 745.25,-90.5 745.25,-71.25 816.75,-71.25 816.75,-90.5"/>
<text xml:space="preserve" text-anchor="middle" x="781" y="-77" font-family="Helvetica,sans-Serif" font-size="10.00">TargetParser</text>
</a>
</g>
</g>
<!-- dir_ae1e398ac700924fa434b51c248a5531 -->
<g id="node3" class="node">
<title>dir_ae1e398ac700924fa434b51c248a5531</title>
<g id="a_node3"><a xlink:href="dir_ae1e398ac700924fa434b51c248a5531.html" target="_top" xlink:title="Support">
<polygon fill="#a2b4d6" stroke="red" points="225.88,-35.25 176.12,-35.25 176.12,-16 225.88,-16 225.88,-35.25"/>
<text xml:space="preserve" text-anchor="middle" x="201" y="-21.75" font-family="Helvetica,sans-Serif" font-size="10.00">Support</text>
</a>
</g>
</g>
<!-- dir_c3e93f23a4a31c717998b98ce143b7c0 -->
<g id="node4" class="node">
<title>dir_c3e93f23a4a31c717998b98ce143b7c0</title>
<g id="a_node4"><a xlink:href="dir_c3e93f23a4a31c717998b98ce143b7c0.html" target="_top" xlink:title="IR">
<polygon fill="#a2b4d6" stroke="#404040" points="780.4,-35.25 751.6,-35.25 751.6,-16 780.4,-16 780.4,-35.25"/>
<text xml:space="preserve" text-anchor="middle" x="766" y="-21.75" font-family="Helvetica,sans-Serif" font-size="10.00">IR</text>
</a>
</g>
</g>
<!-- dir_76bc56fc1555430657f301d4de3959f5 -->
<g id="node5" class="node">
<title>dir_76bc56fc1555430657f301d4de3959f5</title>
<g id="a_node5"><a xlink:href="dir_76bc56fc1555430657f301d4de3959f5.html" target="_top" xlink:title="BinaryFormat">
<polygon fill="#a2b4d6" stroke="#404040" points="150.25,-90.5 75.75,-90.5 75.75,-71.25 150.25,-71.25 150.25,-90.5"/>
<text xml:space="preserve" text-anchor="middle" x="113" y="-77" font-family="Helvetica,sans-Serif" font-size="10.00">BinaryFormat</text>
</a>
</g>
</g>
<!-- dir_3c463fb0a03f5ca9e2abd53334bc8356 -->
<g id="node6" class="node">
<title>dir_3c463fb0a03f5ca9e2abd53334bc8356</title>
<g id="a_node6"><a xlink:href="dir_3c463fb0a03f5ca9e2abd53334bc8356.html" target="_top" xlink:title="MC">
<polygon fill="#a2b4d6" stroke="red" points="199.88,-90.5 168.12,-90.5 168.12,-71.25 199.88,-71.25 199.88,-90.5"/>
<text xml:space="preserve" text-anchor="middle" x="184" y="-77" font-family="Helvetica,sans-Serif" font-size="10.00">MC</text>
</a>
</g>
</g>
<!-- dir_b21276aa901501839874154d4047f901 -->
<g id="node7" class="node">
<title>dir_b21276aa901501839874154d4047f901</title>
<g id="a_node7"><a xlink:href="dir_b21276aa901501839874154d4047f901.html" target="_top" xlink:title="Object">
<polygon fill="#a2b4d6" stroke="#404040" points="899.25,-90.5 854.75,-90.5 854.75,-71.25 899.25,-71.25 899.25,-90.5"/>
<text xml:space="preserve" text-anchor="middle" x="877" y="-77" font-family="Helvetica,sans-Serif" font-size="10.00">Object</text>
</a>
</g>
</g>
<!-- dir_8b88ca948c2776c050dedd5dc7d3a9c7 -->
<g id="node8" class="node">
<title>dir_8b88ca948c2776c050dedd5dc7d3a9c7</title>
<text xml:space="preserve" text-anchor="middle" x="297" y="-132.25" font-family="Helvetica,sans-Serif" font-size="10.00">Frontend</text>
</g>
<!-- dir_e07c0664e2cdede4f669831d54dd23df -->
<g id="node9" class="node">
<title>dir_e07c0664e2cdede4f669831d54dd23df</title>
<g id="a_node9"><a xlink:href="dir_e07c0664e2cdede4f669831d54dd23df.html" target="_top" xlink:title="Atomic">
<polygon fill="#a2b4d6" stroke="#404040" points="647.38,-90.5 600.62,-90.5 600.62,-71.25 647.38,-71.25 647.38,-90.5"/>
<text xml:space="preserve" text-anchor="middle" x="624" y="-77" font-family="Helvetica,sans-Serif" font-size="10.00">Atomic</text>
</a>
</g>
</g>
<!-- dir_e07c0664e2cdede4f669831d54dd23df&#45;&gt;dir_ae1e398ac700924fa434b51c248a5531 -->
<g id="edge1" class="edge">
<title>dir_e07c0664e2cdede4f669831d54dd23df&#45;&gt;dir_ae1e398ac700924fa434b51c248a5531</title>
<g id="a_edge1"><a xlink:href="dir_000038_000305.html" target="_top">
<path fill="none" stroke="#63b8ff" d="M611.96,-70.82C607.48,-67.91 602.22,-64.99 597,-63.25 530.84,-41.17 322.47,-31.13 237.56,-27.88"/>
<polygon fill="#63b8ff" stroke="#63b8ff" points="237.82,-24.39 227.7,-27.51 237.56,-31.38 237.82,-24.39"/>
</a>
</g>
<g id="a_edge1&#45;headlabel"><a xlink:href="dir_000038_000305.html" target="_top" xlink:title="1">
<text xml:space="preserve" text-anchor="middle" x="240.01" y="-17.75" font-family="Helvetica,sans-Serif" font-size="10.00" fill="#63b8ff">1</text>
</a>
</g>
</g>
<!-- dir_e07c0664e2cdede4f669831d54dd23df&#45;&gt;dir_c3e93f23a4a31c717998b98ce143b7c0 -->
<g id="edge2" class="edge">
<title>dir_e07c0664e2cdede4f669831d54dd23df&#45;&gt;dir_c3e93f23a4a31c717998b98ce143b7c0</title>
<g id="a_edge2"><a xlink:href="dir_000038_000169.html" target="_top">
<path fill="none" stroke="#63b8ff" d="M637.1,-70.92C641.41,-68.22 646.3,-65.41 651,-63.25 680.65,-49.65 716.77,-39.04 740.53,-32.82"/>
<polygon fill="#63b8ff" stroke="#63b8ff" points="741.12,-36.28 749.95,-30.42 739.4,-29.5 741.12,-36.28"/>
</a>
</g>
<g id="a_edge2&#45;headlabel"><a xlink:href="dir_000038_000169.html" target="_top" xlink:title="2">
<text xml:space="preserve" text-anchor="middle" x="739.81" y="-35.67" font-family="Helvetica,sans-Serif" font-size="10.00" fill="#63b8ff">2</text>
</a>
</g>
</g>
<!-- dir_1314a51098bca7f4ee7b04da21c424b4 -->
<g id="node10" class="node">
<title>dir_1314a51098bca7f4ee7b04da21c424b4</title>
<g id="a_node10"><a xlink:href="dir_1314a51098bca7f4ee7b04da21c424b4.html" target="_top" xlink:title="Debug">
<polygon fill="#a2b4d6" stroke="#404040" points="386.25,-145.75 341.75,-145.75 341.75,-126.5 386.25,-126.5 386.25,-145.75"/>
<text xml:space="preserve" text-anchor="middle" x="364" y="-132.25" font-family="Helvetica,sans-Serif" font-size="10.00">Debug</text>
</a>
</g>
</g>
<!-- dir_24be37e623de8368c81f3b5159c227f8 -->
<g id="node11" class="node">
<title>dir_24be37e623de8368c81f3b5159c227f8</title>
<g id="a_node11"><a xlink:href="dir_24be37e623de8368c81f3b5159c227f8.html" target="_top" xlink:title="Directive">
<polygon fill="#a2b4d6" stroke="#404040" points="519.5,-145.75 464.5,-145.75 464.5,-126.5 519.5,-126.5 519.5,-145.75"/>
<text xml:space="preserve" text-anchor="middle" x="492" y="-132.25" font-family="Helvetica,sans-Serif" font-size="10.00">Directive</text>
</a>
</g>
</g>
<!-- dir_24be37e623de8368c81f3b5159c227f8&#45;&gt;dir_32453792af2ba70c54e3ccae3a790d1b -->
<g id="edge3" class="edge">
<title>dir_24be37e623de8368c81f3b5159c227f8&#45;&gt;dir_32453792af2ba70c54e3ccae3a790d1b</title>
<g id="a_edge3"><a xlink:href="dir_000086_000003.html" target="_top">
<path fill="none" stroke="#63b8ff" d="M464.15,-128.48C461.07,-127.79 457.97,-127.12 455,-126.5 371.43,-109.13 345.7,-114.37 264.84,-92.29"/>
<polygon fill="#63b8ff" stroke="#63b8ff" points="266.19,-89.03 255.61,-89.71 264.3,-95.77 266.19,-89.03"/>
</a>
</g>
<g id="a_edge3&#45;headlabel"><a xlink:href="dir_000086_000003.html" target="_top" xlink:title="2">
<text xml:space="preserve" text-anchor="middle" x="268.95" y="-82.98" font-family="Helvetica,sans-Serif" font-size="10.00" fill="#63b8ff">2</text>
</a>
</g>
</g>
<!-- dir_24be37e623de8368c81f3b5159c227f8&#45;&gt;dir_ae1e398ac700924fa434b51c248a5531 -->
<g id="edge4" class="edge">
<title>dir_24be37e623de8368c81f3b5159c227f8&#45;&gt;dir_ae1e398ac700924fa434b51c248a5531</title>
<g id="a_edge4"><a xlink:href="dir_000086_000305.html" target="_top">
<path fill="none" stroke="#63b8ff" d="M464.2,-128.21C461.11,-127.57 458,-126.98 455,-126.5 410.61,-119.38 82.34,-123.67 52,-90.5 16.96,-52.19 109.78,-35.93 164.39,-29.83"/>
<polygon fill="#63b8ff" stroke="#63b8ff" points="164.64,-33.32 174.22,-28.8 163.91,-26.36 164.64,-33.32"/>
</a>
</g>
<g id="a_edge4&#45;headlabel"><a xlink:href="dir_000086_000305.html" target="_top" xlink:title="1">
<text xml:space="preserve" text-anchor="middle" x="162.87" y="-32.48" font-family="Helvetica,sans-Serif" font-size="10.00" fill="#63b8ff">1</text>
</a>
</g>
</g>
<!-- dir_3ed93ff5f0bd2cebfe38b2524dcf07eb -->
<g id="node12" class="node">
<title>dir_3ed93ff5f0bd2cebfe38b2524dcf07eb</title>
<g id="a_node12"><a xlink:href="dir_3ed93ff5f0bd2cebfe38b2524dcf07eb.html" target="_top" xlink:title="Driver">
<polygon fill="#a2b4d6" stroke="#404040" points="446.12,-145.75 403.88,-145.75 403.88,-126.5 446.12,-126.5 446.12,-145.75"/>
<text xml:space="preserve" text-anchor="middle" x="425" y="-132.25" font-family="Helvetica,sans-Serif" font-size="10.00">Driver</text>
</a>
</g>
</g>
<!-- dir_3ed93ff5f0bd2cebfe38b2524dcf07eb&#45;&gt;dir_ae1e398ac700924fa434b51c248a5531 -->
<g id="edge5" class="edge">
<title>dir_3ed93ff5f0bd2cebfe38b2524dcf07eb&#45;&gt;dir_ae1e398ac700924fa434b51c248a5531</title>
<g id="a_edge5"><a xlink:href="dir_000113_000305.html" target="_top">
<path fill="none" stroke="#63b8ff" d="M403.48,-128.43C400.65,-127.7 397.77,-127.03 395,-126.5 315.39,-111.24 86.42,-150.58 32,-90.5 -7.88,-46.47 103.73,-32.63 164.52,-28.41"/>
<polygon fill="#63b8ff" stroke="#63b8ff" points="164.67,-31.9 174.43,-27.78 164.22,-24.92 164.67,-31.9"/>
</a>
</g>
<g id="a_edge5&#45;headlabel"><a xlink:href="dir_000113_000305.html" target="_top" xlink:title="1">
<text xml:space="preserve" text-anchor="middle" x="162.77" y="-30.99" font-family="Helvetica,sans-Serif" font-size="10.00" fill="#63b8ff">1</text>
</a>
</g>
</g>
<!-- dir_58b8e227fb587dcfd8d87ed95c9804cd -->
<g id="node13" class="node">
<title>dir_58b8e227fb587dcfd8d87ed95c9804cd</title>
<g id="a_node13"><a xlink:href="dir_58b8e227fb587dcfd8d87ed95c9804cd.html" target="_top" xlink:title="HLSL">
<polygon fill="#a2b4d6" stroke="#404040" points="578.38,-145.75 537.62,-145.75 537.62,-126.5 578.38,-126.5 578.38,-145.75"/>
<text xml:space="preserve" text-anchor="middle" x="558" y="-132.25" font-family="Helvetica,sans-Serif" font-size="10.00">HLSL</text>
</a>
</g>
</g>
<!-- dir_58b8e227fb587dcfd8d87ed95c9804cd&#45;&gt;dir_32453792af2ba70c54e3ccae3a790d1b -->
<g id="edge6" class="edge">
<title>dir_58b8e227fb587dcfd8d87ed95c9804cd&#45;&gt;dir_32453792af2ba70c54e3ccae3a790d1b</title>
<g id="a_edge6"><a xlink:href="dir_000155_000003.html" target="_top">
<path fill="none" stroke="#63b8ff" d="M537.19,-128.51C534.45,-127.77 531.67,-127.07 529,-126.5 413.89,-101.9 377.88,-119.7 265.72,-92.32"/>
<polygon fill="#63b8ff" stroke="#63b8ff" points="266.64,-88.95 256.09,-89.9 264.93,-95.73 266.64,-88.95"/>
</a>
</g>
<g id="a_edge6&#45;headlabel"><a xlink:href="dir_000155_000003.html" target="_top" xlink:title="6">
<text xml:space="preserve" text-anchor="middle" x="269.35" y="-82.83" font-family="Helvetica,sans-Serif" font-size="10.00" fill="#63b8ff">6</text>
</a>
</g>
</g>
<!-- dir_58b8e227fb587dcfd8d87ed95c9804cd&#45;&gt;dir_ae1e398ac700924fa434b51c248a5531 -->
<g id="edge9" class="edge">
<title>dir_58b8e227fb587dcfd8d87ed95c9804cd&#45;&gt;dir_ae1e398ac700924fa434b51c248a5531</title>
<g id="a_edge9"><a xlink:href="dir_000155_000305.html" target="_top">
<path fill="none" stroke="#63b8ff" d="M537.22,-128.37C534.48,-127.65 531.69,-127 529,-126.5 478.37,-117.11 101.97,-128.3 67,-90.5 35.41,-56.35 115.01,-38.6 164.69,-31.1"/>
<polygon fill="#63b8ff" stroke="#63b8ff" points="165.08,-34.58 174.49,-29.71 164.1,-27.65 165.08,-34.58"/>
</a>
</g>
<g id="a_edge9&#45;headlabel"><a xlink:href="dir_000155_000305.html" target="_top" xlink:title="9">
<text xml:space="preserve" text-anchor="middle" x="163.42" y="-33.81" font-family="Helvetica,sans-Serif" font-size="10.00" fill="#63b8ff">9</text>
</a>
</g>
</g>
<!-- dir_58b8e227fb587dcfd8d87ed95c9804cd&#45;&gt;dir_c3e93f23a4a31c717998b98ce143b7c0 -->
<g id="edge10" class="edge">
<title>dir_58b8e227fb587dcfd8d87ed95c9804cd&#45;&gt;dir_c3e93f23a4a31c717998b98ce143b7c0</title>
<g id="a_edge10"><a xlink:href="dir_000155_000169.html" target="_top">
<path fill="none" stroke="#63b8ff" d="M578.55,-126.47C598.58,-117.88 629.76,-104.05 656,-90.5 686.32,-74.84 720.12,-54.81 742.14,-41.4"/>
<polygon fill="#63b8ff" stroke="#63b8ff" points="743.68,-44.56 750.37,-36.35 740.02,-38.59 743.68,-44.56"/>
</a>
</g>
<g id="a_edge10&#45;headlabel"><a xlink:href="dir_000155_000169.html" target="_top" xlink:title="3">
<text xml:space="preserve" text-anchor="middle" x="743.39" y="-44.2" font-family="Helvetica,sans-Serif" font-size="10.00" fill="#63b8ff">3</text>
</a>
</g>
</g>
<!-- dir_58b8e227fb587dcfd8d87ed95c9804cd&#45;&gt;dir_76bc56fc1555430657f301d4de3959f5 -->
<g id="edge8" class="edge">
<title>dir_58b8e227fb587dcfd8d87ed95c9804cd&#45;&gt;dir_76bc56fc1555430657f301d4de3959f5</title>
<g id="a_edge8"><a xlink:href="dir_000155_000041.html" target="_top">
<path fill="none" stroke="#63b8ff" d="M537.21,-128.42C534.47,-127.69 531.68,-127.02 529,-126.5 370.49,-95.52 324.63,-112.92 162.01,-90.8"/>
<polygon fill="#63b8ff" stroke="#63b8ff" points="162.5,-87.33 152.11,-89.42 161.53,-94.26 162.5,-87.33"/>
</a>
</g>
<g id="a_edge8&#45;headlabel"><a xlink:href="dir_000155_000041.html" target="_top" xlink:title="1">
<text xml:space="preserve" text-anchor="middle" x="164.95" y="-80.93" font-family="Helvetica,sans-Serif" font-size="10.00" fill="#63b8ff">1</text>
</a>
</g>
</g>
<!-- dir_58b8e227fb587dcfd8d87ed95c9804cd&#45;&gt;dir_3c463fb0a03f5ca9e2abd53334bc8356 -->
<g id="edge7" class="edge">
<title>dir_58b8e227fb587dcfd8d87ed95c9804cd&#45;&gt;dir_3c463fb0a03f5ca9e2abd53334bc8356</title>
<g id="a_edge7"><a xlink:href="dir_000155_000203.html" target="_top">
<path fill="none" stroke="#63b8ff" d="M537.2,-128.46C534.46,-127.72 531.68,-127.04 529,-126.5 392.31,-98.71 350.71,-120.84 211.35,-90.54"/>
<polygon fill="#63b8ff" stroke="#63b8ff" points="212.26,-87.15 201.73,-88.39 210.73,-93.98 212.26,-87.15"/>
</a>
</g>
<g id="a_edge7&#45;headlabel"><a xlink:href="dir_000155_000203.html" target="_top" xlink:title="1">
<text xml:space="preserve" text-anchor="middle" x="214.91" y="-80.96" font-family="Helvetica,sans-Serif" font-size="10.00" fill="#63b8ff">1</text>
</a>
</g>
</g>
<!-- dir_8ad3a6252d704b771eb5ea0b780a78e4 -->
<g id="node14" class="node">
<title>dir_8ad3a6252d704b771eb5ea0b780a78e4</title>
<g id="a_node14"><a xlink:href="dir_8ad3a6252d704b771eb5ea0b780a78e4.html" target="_top" xlink:title="Offloading">
<polygon fill="#a2b4d6" stroke="#404040" points="729.12,-145.75 668.88,-145.75 668.88,-126.5 729.12,-126.5 729.12,-145.75"/>
<text xml:space="preserve" text-anchor="middle" x="699" y="-132.25" font-family="Helvetica,sans-Serif" font-size="10.00">Offloading</text>
</a>
</g>
</g>
<!-- dir_8ad3a6252d704b771eb5ea0b780a78e4&#45;&gt;dir_32453792af2ba70c54e3ccae3a790d1b -->
<g id="edge11" class="edge">
<title>dir_8ad3a6252d704b771eb5ea0b780a78e4&#45;&gt;dir_32453792af2ba70c54e3ccae3a790d1b</title>
<g id="a_edge11"><a xlink:href="dir_000257_000003.html" target="_top">
<path fill="none" stroke="#63b8ff" d="M668.41,-127.97C665.58,-127.43 662.74,-126.92 660,-126.5 486.45,-99.65 434.76,-130.31 265.65,-92.14"/>
<polygon fill="#63b8ff" stroke="#63b8ff" points="266.61,-88.77 256.08,-89.93 265.04,-95.59 266.61,-88.77"/>
</a>
</g>
<g id="a_edge11&#45;headlabel"><a xlink:href="dir_000257_000003.html" target="_top" xlink:title="4">
<text xml:space="preserve" text-anchor="middle" x="269.28" y="-82.6" font-family="Helvetica,sans-Serif" font-size="10.00" fill="#63b8ff">4</text>
</a>
</g>
</g>
<!-- dir_8ad3a6252d704b771eb5ea0b780a78e4&#45;&gt;dir_ae1e398ac700924fa434b51c248a5531 -->
<g id="edge12" class="edge">
<title>dir_8ad3a6252d704b771eb5ea0b780a78e4&#45;&gt;dir_ae1e398ac700924fa434b51c248a5531</title>
<g id="a_edge12"><a xlink:href="dir_000257_000305.html" target="_top">
<path fill="none" stroke="#63b8ff" d="M668.46,-127.25C614.35,-113.42 498.02,-84.25 399,-63.25 342.79,-51.33 277.12,-39.61 237.33,-32.76"/>
<polygon fill="#63b8ff" stroke="#63b8ff" points="238.03,-29.33 227.58,-31.09 236.85,-36.23 238.03,-29.33"/>
</a>
</g>
<g id="a_edge12&#45;headlabel"><a xlink:href="dir_000257_000305.html" target="_top" xlink:title="6">
<text xml:space="preserve" text-anchor="middle" x="240.56" y="-23" font-family="Helvetica,sans-Serif" font-size="10.00" fill="#63b8ff">6</text>
</a>
</g>
</g>
<!-- dir_8ad3a6252d704b771eb5ea0b780a78e4&#45;&gt;dir_c3e93f23a4a31c717998b98ce143b7c0 -->
<g id="edge14" class="edge">
<title>dir_8ad3a6252d704b771eb5ea0b780a78e4&#45;&gt;dir_c3e93f23a4a31c717998b98ce143b7c0</title>
<g id="a_edge14"><a xlink:href="dir_000257_000169.html" target="_top">
<path fill="none" stroke="#63b8ff" d="M729.51,-133.19C781.99,-129.15 885.89,-117.83 908,-90.5 941.15,-49.52 841.43,-33.91 792.01,-28.8"/>
<polygon fill="#63b8ff" stroke="#63b8ff" points="792.43,-25.32 782.15,-27.86 791.77,-32.29 792.43,-25.32"/>
</a>
</g>
<g id="a_edge14&#45;headlabel"><a xlink:href="dir_000257_000169.html" target="_top" xlink:title="2">
<text xml:space="preserve" text-anchor="middle" x="794.77" y="-18.82" font-family="Helvetica,sans-Serif" font-size="10.00" fill="#63b8ff">2</text>
</a>
</g>
</g>
<!-- dir_8ad3a6252d704b771eb5ea0b780a78e4&#45;&gt;dir_b21276aa901501839874154d4047f901 -->
<g id="edge13" class="edge">
<title>dir_8ad3a6252d704b771eb5ea0b780a78e4&#45;&gt;dir_b21276aa901501839874154d4047f901</title>
<g id="a_edge13"><a xlink:href="dir_000257_000253.html" target="_top">
<path fill="none" stroke="#63b8ff" d="M729.2,-126.09C760.87,-116.62 810.53,-101.76 843.42,-91.92"/>
<polygon fill="#63b8ff" stroke="#63b8ff" points="844.27,-95.32 852.85,-89.1 842.27,-88.61 844.27,-95.32"/>
</a>
</g>
<g id="a_edge13&#45;headlabel"><a xlink:href="dir_000257_000253.html" target="_top" xlink:title="1">
<text xml:space="preserve" text-anchor="middle" x="843.09" y="-94.76" font-family="Helvetica,sans-Serif" font-size="10.00" fill="#63b8ff">1</text>
</a>
</g>
</g>
<!-- dir_8fc939330e6243356cb2f924c96e8aa9 -->
<g id="node15" class="node">
<title>dir_8fc939330e6243356cb2f924c96e8aa9</title>
<g id="a_node15"><a xlink:href="dir_8fc939330e6243356cb2f924c96e8aa9.html" target="_top" xlink:title="OpenMP">
<polygon fill="#a2b4d6" stroke="#404040" points="651.12,-145.75 596.88,-145.75 596.88,-126.5 651.12,-126.5 651.12,-145.75"/>
<text xml:space="preserve" text-anchor="middle" x="624" y="-132.25" font-family="Helvetica,sans-Serif" font-size="10.00">OpenMP</text>
</a>
</g>
</g>
<!-- dir_8fc939330e6243356cb2f924c96e8aa9&#45;&gt;dir_32453792af2ba70c54e3ccae3a790d1b -->
<g id="edge15" class="edge">
<title>dir_8fc939330e6243356cb2f924c96e8aa9&#45;&gt;dir_32453792af2ba70c54e3ccae3a790d1b</title>
<g id="a_edge15"><a xlink:href="dir_000260_000003.html" target="_top">
<path fill="none" stroke="#63b8ff" d="M596.6,-128.35C593.37,-127.67 590.12,-127.03 587,-126.5 445.68,-102.39 402.99,-124.47 265.55,-92.19"/>
<polygon fill="#63b8ff" stroke="#63b8ff" points="266.63,-88.85 256.09,-89.91 264.99,-95.66 266.63,-88.85"/>
</a>
</g>
<g id="a_edge15&#45;headlabel"><a xlink:href="dir_000260_000003.html" target="_top" xlink:title="23">
<text xml:space="preserve" text-anchor="middle" x="269.31" y="-82.71" font-family="Helvetica,sans-Serif" font-size="10.00" fill="#63b8ff">23</text>
</a>
</g>
</g>
<!-- dir_8fc939330e6243356cb2f924c96e8aa9&#45;&gt;dir_b404620133d8508a838af4d853306b62 -->
<g id="edge17" class="edge">
<title>dir_8fc939330e6243356cb2f924c96e8aa9&#45;&gt;dir_b404620133d8508a838af4d853306b62</title>
<g id="a_edge17"><a xlink:href="dir_000260_000343.html" target="_top">
<path fill="none" stroke="#63b8ff" d="M650.63,-126.09C676.12,-117.45 714.81,-104.32 743.43,-94.62"/>
<polygon fill="#63b8ff" stroke="#63b8ff" points="744.46,-97.97 752.8,-91.44 742.21,-91.34 744.46,-97.97"/>
</a>
</g>
<g id="a_edge17&#45;headlabel"><a xlink:href="dir_000260_000343.html" target="_top" xlink:title="1">
<text xml:space="preserve" text-anchor="middle" x="743.4" y="-97.45" font-family="Helvetica,sans-Serif" font-size="10.00" fill="#63b8ff">1</text>
</a>
</g>
</g>
<!-- dir_8fc939330e6243356cb2f924c96e8aa9&#45;&gt;dir_ae1e398ac700924fa434b51c248a5531 -->
<g id="edge16" class="edge">
<title>dir_8fc939330e6243356cb2f924c96e8aa9&#45;&gt;dir_ae1e398ac700924fa434b51c248a5531</title>
<g id="a_edge16"><a xlink:href="dir_000260_000305.html" target="_top">
<path fill="none" stroke="#63b8ff" d="M596.57,-128.09C522.86,-109.18 320.46,-57.27 237.35,-35.95"/>
<polygon fill="#63b8ff" stroke="#63b8ff" points="238.23,-32.56 227.68,-33.47 236.49,-39.34 238.23,-32.56"/>
</a>
</g>
<g id="a_edge16&#45;headlabel"><a xlink:href="dir_000260_000305.html" target="_top" xlink:title="8">
<text xml:space="preserve" text-anchor="middle" x="240.95" y="-26.45" font-family="Helvetica,sans-Serif" font-size="10.00" fill="#63b8ff">8</text>
</a>
</g>
</g>
<!-- dir_8fc939330e6243356cb2f924c96e8aa9&#45;&gt;dir_c3e93f23a4a31c717998b98ce143b7c0 -->
<g id="edge18" class="edge">
<title>dir_8fc939330e6243356cb2f924c96e8aa9&#45;&gt;dir_c3e93f23a4a31c717998b98ce143b7c0</title>
<g id="a_edge18"><a xlink:href="dir_000260_000169.html" target="_top">
<path fill="none" stroke="#63b8ff" d="M651.5,-128.47C654.37,-127.8 657.24,-127.13 660,-126.5 733.6,-109.7 778.61,-149.27 826,-90.5 833.6,-81.07 831.93,-73.81 826,-63.25 818.56,-50 804.16,-40.97 791.34,-35.2"/>
<polygon fill="#63b8ff" stroke="#63b8ff" points="792.67,-31.96 782.09,-31.5 790.07,-38.46 792.67,-31.96"/>
</a>
</g>
<g id="a_edge18&#45;headlabel"><a xlink:href="dir_000260_000169.html" target="_top" xlink:title="5">
<text xml:space="preserve" text-anchor="middle" x="795.66" y="-26.22" font-family="Helvetica,sans-Serif" font-size="10.00" fill="#63b8ff">5</text>
</a>
</g>
</g>
<!-- dir_8fc939330e6243356cb2f924c96e8aa9&#45;&gt;dir_e07c0664e2cdede4f669831d54dd23df -->
<g id="edge19" class="edge">
<title>dir_8fc939330e6243356cb2f924c96e8aa9&#45;&gt;dir_e07c0664e2cdede4f669831d54dd23df</title>
<g id="a_edge19"><a xlink:href="dir_000260_000038.html" target="_top">
<path fill="none" stroke="#63b8ff" d="M624,-126.33C624,-119.82 624,-110.67 624,-102.37"/>
<polygon fill="#63b8ff" stroke="#63b8ff" points="627.5,-102.37 624,-92.37 620.5,-102.37 627.5,-102.37"/>
</a>
</g>
<g id="a_edge19&#45;headlabel"><a xlink:href="dir_000260_000038.html" target="_top" xlink:title="1">
<text xml:space="preserve" text-anchor="middle" x="630.34" y="-100.58" font-family="Helvetica,sans-Serif" font-size="10.00" fill="#63b8ff">1</text>
</a>
</g>
</g>
</g>
</svg>
