<?xml version="1.0" encoding="UTF-8" standalone="no"?>
<!DOCTYPE svg PUBLIC "-//W3C//DTD SVG 1.1//EN"
 "http://www.w3.org/Graphics/SVG/1.1/DTD/svg11.dtd">
<!-- Generated by graphviz version 14.1.3 (20260303.0454)
 -->
<!-- Title: LLVM&#45;C: C interface to LLVM Pages: 1 -->
<svg width="249pt" height="668pt"
 viewBox="0.00 0.00 249.00 668.00" xmlns="http://www.w3.org/2000/svg" xmlns:xlink="http://www.w3.org/1999/xlink">
<g id="graph0" class="graph" transform="scale(1 1) rotate(0) translate(4 664.25)">
<title>LLVM&#45;C: C interface to LLVM</title>
<!-- Node1 -->
<g id="Node000001" class="node">
<title>Node1</title>
<g id="a_Node000001"><a xlink:title="This module exposes parts of the LLVM library as a C API.">
<polygon fill="#999999" stroke="#666666" points="105.25,-350.88 0,-350.88 0,-320.38 105.25,-320.38 105.25,-350.88"/>
<text xml:space="preserve" text-anchor="start" x="8" y="-337.38" font-family="Helvetica,sans-Serif" font-size="10.00">LLVM&#45;C: C interface</text>
<text xml:space="preserve" text-anchor="middle" x="52.62" y="-326.12" font-family="Helvetica,sans-Serif" font-size="10.00"> to LLVM</text>
</a>
</g>
</g>
<!-- Node2 -->
<g id="Node000002" class="node">
<title>Node2</title>
<g id="a_Node000002"><a xlink:href="group__LLVMCAnalysis.html" target="_top" xlink:title=" ">
<polygon fill="white" stroke="#666666" points="218,-660.25 164.5,-660.25 164.5,-641 218,-641 218,-660.25"/>
<text xml:space="preserve" text-anchor="middle" x="191.25" y="-646.75" font-family="Helvetica,sans-Serif" font-size="10.00">Analysis</text>
</a>
</g>
</g>
<!-- Node1&#45;&gt;Node2 -->
<g id="edge1" class="edge">
<title>Node1&#45;&gt;Node2</title>
<path fill="none" stroke="black" d="M53.87,-362.51C55.86,-419.8 68.48,-554.96 141.25,-632.62 147.32,-639.11 155.93,-643.26 164.23,-645.93"/>
<polygon fill="black" stroke="black" points="57.38,-362.64 53.63,-352.73 50.38,-362.81 57.38,-362.64"/>
</g>
<!-- Node3 -->
<g id="Node000003" class="node">
<title>Node3</title>
<g id="a_Node000003"><a xlink:href="group__LLVMCBitReader.html" target="_top" xlink:title=" ">
<polygon fill="white" stroke="#666666" points="222.5,-623.25 160,-623.25 160,-604 222.5,-604 222.5,-623.25"/>
<text xml:space="preserve" text-anchor="middle" x="191.25" y="-609.75" font-family="Helvetica,sans-Serif" font-size="10.00">Bit Reader</text>
</a>
</g>
</g>
<!-- Node1&#45;&gt;Node3 -->
<g id="edge2" class="edge">
<title>Node1&#45;&gt;Node3</title>
<path fill="none" stroke="black" d="M55.22,-362.38C59.72,-414.3 76.81,-529.42 141.25,-595.62 146.24,-600.76 152.82,-604.43 159.53,-607.07"/>
<polygon fill="black" stroke="black" points="58.73,-362.38 54.47,-352.67 51.75,-362.91 58.73,-362.38"/>
</g>
<!-- Node4 -->
<g id="Node000004" class="node">
<title>Node4</title>
<g id="a_Node000004"><a xlink:href="group__LLVMCBitWriter.html" target="_top" xlink:title=" ">
<polygon fill="white" stroke="#666666" points="219.5,-586.25 163,-586.25 163,-567 219.5,-567 219.5,-586.25"/>
<text xml:space="preserve" text-anchor="middle" x="191.25" y="-572.75" font-family="Helvetica,sans-Serif" font-size="10.00">Bit Writer</text>
</a>
</g>
</g>
<!-- Node1&#45;&gt;Node4 -->
<g id="edge3" class="edge">
<title>Node1&#45;&gt;Node4</title>
<path fill="none" stroke="black" d="M56.98,-362.42C64.15,-408.67 85.15,-503.76 141.25,-558.62 147.08,-564.33 154.87,-568.25 162.52,-570.93"/>
<polygon fill="black" stroke="black" points="60.48,-362.16 55.59,-352.76 53.55,-363.15 60.48,-362.16"/>
</g>
<!-- Node6 -->
<g id="Node000006" class="node">
<title>Node6</title>
<g id="a_Node000006"><a xlink:href="group__LLVMCCore.html" target="_top" xlink:title="This modules provide an interface to libLLVMCore, which implements the LLVM intermediate representati...">
<polygon fill="white" stroke="#666666" points="209.75,-549.25 172.75,-549.25 172.75,-530 209.75,-530 209.75,-549.25"/>
<text xml:space="preserve" text-anchor="middle" x="191.25" y="-535.75" font-family="Helvetica,sans-Serif" font-size="10.00">Core</text>
</a>
</g>
</g>
<!-- Node1&#45;&gt;Node6 -->
<g id="edge5" class="edge">
<title>Node1&#45;&gt;Node6</title>
<path fill="none" stroke="black" d="M59.33,-362.21C69.23,-402.18 93.31,-477.73 141.25,-521.62 149.94,-529.58 162.44,-534.1 172.64,-536.62"/>
<polygon fill="black" stroke="black" points="62.8,-361.65 57.1,-352.72 55.98,-363.26 62.8,-361.65"/>
</g>
<!-- Node7 -->
<g id="Node000007" class="node">
<title>Node7</title>
<g id="a_Node000007"><a xlink:href="group__LLVMCCoreInstructionBuilder.html" target="_top" xlink:title="An instruction builder represents a point within a basic block and is the exclusive means of building...">
<polygon fill="white" stroke="#666666" points="241.25,-512.25 141.25,-512.25 141.25,-493 241.25,-493 241.25,-512.25"/>
<text xml:space="preserve" text-anchor="middle" x="191.25" y="-498.75" font-family="Helvetica,sans-Serif" font-size="10.00">Instruction Builders</text>
</a>
</g>
</g>
<!-- Node1&#45;&gt;Node7 -->
<g id="edge6" class="edge">
<title>Node1&#45;&gt;Node7</title>
<path fill="none" stroke="black" d="M62.6,-361.66C75.23,-394.65 101.27,-451.25 141.25,-484.62 145.01,-487.76 149.36,-490.38 153.89,-492.55"/>
<polygon fill="black" stroke="black" points="65.95,-360.64 59.21,-352.47 59.39,-363.06 65.95,-360.64"/>
</g>
<!-- Node9 -->
<g id="Node000009" class="node">
<title>Node9</title>
<g id="a_Node000009"><a xlink:href="group__LLVMCCoreMemoryBuffers.html" target="_top" xlink:title=" ">
<polygon fill="white" stroke="#666666" points="234.12,-475.25 148.38,-475.25 148.38,-456 234.12,-456 234.12,-475.25"/>
<text xml:space="preserve" text-anchor="middle" x="191.25" y="-461.75" font-family="Helvetica,sans-Serif" font-size="10.00">Memory Buffers</text>
</a>
</g>
</g>
<!-- Node1&#45;&gt;Node9 -->
<g id="edge8" class="edge">
<title>Node1&#45;&gt;Node9</title>
<path fill="none" stroke="black" d="M67.84,-361.19C83.03,-386.37 109.29,-424.35 141.25,-447.62 145.5,-450.72 150.34,-453.34 155.28,-455.53"/>
<polygon fill="black" stroke="black" points="70.87,-359.43 62.79,-352.57 64.83,-362.97 70.87,-359.43"/>
</g>
<!-- Node8 -->
<g id="Node000008" class="node">
<title>Node8</title>
<g id="a_Node000008"><a xlink:href="group__LLVMCCoreModuleProvider.html" target="_top" xlink:title=" ">
<polygon fill="white" stroke="#666666" points="237.12,-438.25 145.38,-438.25 145.38,-419 237.12,-419 237.12,-438.25"/>
<text xml:space="preserve" text-anchor="middle" x="191.25" y="-424.75" font-family="Helvetica,sans-Serif" font-size="10.00">Module Providers</text>
</a>
</g>
</g>
<!-- Node1&#45;&gt;Node8 -->
<g id="edge7" class="edge">
<title>Node1&#45;&gt;Node8</title>
<path fill="none" stroke="black" d="M76.52,-359.26C93.24,-375.46 117.12,-396.49 141.25,-410.62 146.41,-413.65 152.17,-416.31 157.87,-418.59"/>
<polygon fill="black" stroke="black" points="79.11,-356.9 69.54,-352.35 74.19,-361.87 79.11,-356.9"/>
</g>
<!-- Node10 -->
<g id="Node000010" class="node">
<title>Node10</title>
<g id="a_Node000010"><a xlink:href="group__LLVMCCorePassManagers.html" target="_top" xlink:title=" ">
<polygon fill="white" stroke="#666666" points="233.38,-401.25 149.12,-401.25 149.12,-382 233.38,-382 233.38,-401.25"/>
<text xml:space="preserve" text-anchor="middle" x="191.25" y="-387.75" font-family="Helvetica,sans-Serif" font-size="10.00">Pass Managers</text>
</a>
</g>
</g>
<!-- Node1&#45;&gt;Node10 -->
<g id="edge9" class="edge">
<title>Node1&#45;&gt;Node10</title>
<path fill="none" stroke="black" d="M98.92,-355.85C112.47,-361.75 127.4,-368.08 141.25,-373.62 147.9,-376.28 155.11,-379.02 161.9,-381.52"/>
<polygon fill="black" stroke="black" points="100.35,-352.66 89.78,-351.85 97.54,-359.07 100.35,-352.66"/>
</g>
<!-- Node11 -->
<g id="Node000011" class="node">
<title>Node11</title>
<g id="a_Node000011"><a xlink:href="group__LLVMCCoreThreading.html" target="_top" xlink:title="Handle the structures needed to make LLVM safe for multithreading.">
<polygon fill="white" stroke="#666666" points="220.62,-364.25 161.88,-364.25 161.88,-345 220.62,-345 220.62,-364.25"/>
<text xml:space="preserve" text-anchor="middle" x="191.25" y="-350.75" font-family="Helvetica,sans-Serif" font-size="10.00">Threading</text>
</a>
</g>
</g>
<!-- Node1&#45;&gt;Node11 -->
<g id="edge10" class="edge">
<title>Node1&#45;&gt;Node11</title>
<path fill="none" stroke="black" d="M116.96,-344.43C132.62,-346.61 148.62,-348.84 161.67,-350.65"/>
<polygon fill="black" stroke="black" points="117.55,-340.98 107.17,-343.07 116.59,-347.91 117.55,-340.98"/>
</g>
<!-- Node12 -->
<g id="Node000012" class="node">
<title>Node12</title>
<g id="a_Node000012"><a xlink:href="group__LLVMCDisassembler.html" target="_top" xlink:title=" ">
<polygon fill="white" stroke="#666666" points="229.25,-327.25 153.25,-327.25 153.25,-308 229.25,-308 229.25,-327.25"/>
<text xml:space="preserve" text-anchor="middle" x="191.25" y="-313.75" font-family="Helvetica,sans-Serif" font-size="10.00">Disassembler</text>
</a>
</g>
</g>
<!-- Node1&#45;&gt;Node12 -->
<g id="edge11" class="edge">
<title>Node1&#45;&gt;Node12</title>
<path fill="none" stroke="black" d="M116.85,-327.3C129.14,-325.68 141.66,-324.03 152.79,-322.56"/>
<polygon fill="black" stroke="black" points="116.62,-323.79 107.17,-328.57 117.54,-330.73 116.62,-323.79"/>
</g>
<!-- Node13 -->
<g id="Node000013" class="node">
<title>Node13</title>
<g id="a_Node000013"><a xlink:href="group__LLVMCError.html" target="_top" xlink:title=" ">
<polygon fill="white" stroke="#666666" points="230.38,-290.25 152.12,-290.25 152.12,-271 230.38,-271 230.38,-290.25"/>
<text xml:space="preserve" text-anchor="middle" x="191.25" y="-276.75" font-family="Helvetica,sans-Serif" font-size="10.00">Error Handling</text>
</a>
</g>
</g>
<!-- Node1&#45;&gt;Node13 -->
<g id="edge12" class="edge">
<title>Node1&#45;&gt;Node13</title>
<path fill="none" stroke="black" d="M100.03,-315.55C113.29,-309.94 127.8,-303.93 141.25,-298.62 147.99,-295.96 155.31,-293.21 162.18,-290.68"/>
<polygon fill="black" stroke="black" points="98.93,-312.21 91.1,-319.34 101.67,-318.65 98.93,-312.21"/>
</g>
<!-- Node14 -->
<g id="Node000014" class="node">
<title>Node14</title>
<g id="a_Node000014"><a xlink:href="group__LLVMCExecutionEngine.html" target="_top" xlink:title=" ">
<polygon fill="white" stroke="#666666" points="237.5,-253.25 145,-253.25 145,-234 237.5,-234 237.5,-253.25"/>
<text xml:space="preserve" text-anchor="middle" x="191.25" y="-239.75" font-family="Helvetica,sans-Serif" font-size="10.00">Execution Engine</text>
</a>
</g>
</g>
<!-- Node1&#45;&gt;Node14 -->
<g id="edge13" class="edge">
<title>Node1&#45;&gt;Node14</title>
<path fill="none" stroke="black" d="M76.88,-312.03C93.61,-296.1 117.36,-275.52 141.25,-261.62 146.42,-258.62 152.18,-255.97 157.89,-253.68"/>
<polygon fill="black" stroke="black" points="74.62,-309.35 69.89,-318.83 79.5,-314.37 74.62,-309.35"/>
</g>
<!-- Node15 -->
<g id="Node000015" class="node">
<title>Node15</title>
<g id="a_Node000015"><a xlink:href="group__LLVMCLTO.html" target="_top" xlink:title=" ">
<polygon fill="white" stroke="#666666" points="208.62,-216.25 173.88,-216.25 173.88,-197 208.62,-197 208.62,-216.25"/>
<text xml:space="preserve" text-anchor="middle" x="191.25" y="-202.75" font-family="Helvetica,sans-Serif" font-size="10.00">LTO</text>
</a>
</g>
</g>
<!-- Node1&#45;&gt;Node15 -->
<g id="edge14" class="edge">
<title>Node1&#45;&gt;Node15</title>
<path fill="none" stroke="black" d="M67.9,-310.29C83.13,-285.34 109.42,-247.7 141.25,-224.62 150.94,-217.6 163.66,-213.04 173.72,-210.26"/>
<polygon fill="black" stroke="black" points="64.93,-308.44 62.84,-318.83 70.95,-312.01 64.93,-308.44"/>
</g>
<!-- Node17 -->
<g id="Node000017" class="node">
<title>Node17</title>
<g id="a_Node000017"><a xlink:href="group__LLVMCObject.html" target="_top" xlink:title=" ">
<polygon fill="white" stroke="#666666" points="238.62,-178.88 143.88,-178.88 143.88,-148.38 238.62,-148.38 238.62,-178.88"/>
<text xml:space="preserve" text-anchor="start" x="151.88" y="-165.38" font-family="Helvetica,sans-Serif" font-size="10.00">Object file reading</text>
<text xml:space="preserve" text-anchor="middle" x="191.25" y="-154.12" font-family="Helvetica,sans-Serif" font-size="10.00"> and writing</text>
</a>
</g>
</g>
<!-- Node1&#45;&gt;Node17 -->
<g id="edge16" class="edge">
<title>Node1&#45;&gt;Node17</title>
<path fill="none" stroke="black" d="M63.4,-309.9C76.74,-277.72 103.38,-222.61 141.25,-187.62 144.59,-184.54 148.4,-181.77 152.39,-179.3"/>
<polygon fill="black" stroke="black" points="60.29,-308.26 59.81,-318.85 66.78,-310.87 60.29,-308.26"/>
</g>
<!-- Node18 -->
<g id="Node000018" class="node">
<title>Node18</title>
<g id="a_Node000018"><a xlink:href="group__LLVMCREMARKS.html" target="_top" xlink:title=" ">
<polygon fill="white" stroke="#666666" points="219.12,-130.25 163.38,-130.25 163.38,-111 219.12,-111 219.12,-130.25"/>
<text xml:space="preserve" text-anchor="middle" x="191.25" y="-116.75" font-family="Helvetica,sans-Serif" font-size="10.00">Remarks</text>
</a>
</g>
</g>
<!-- Node1&#45;&gt;Node18 -->
<g id="edge17" class="edge">
<title>Node1&#45;&gt;Node18</title>
<path fill="none" stroke="black" d="M58.75,-308.95C68.06,-267.33 91.59,-186.84 141.25,-139.62 147.27,-133.9 155.2,-129.85 162.92,-127"/>
<polygon fill="black" stroke="black" points="55.35,-308.08 56.71,-318.59 62.2,-309.53 55.35,-308.08"/>
</g>
<!-- Node16 -->
<g id="Node000016" class="node">
<title>Node16</title>
<g id="a_Node000016"><a xlink:href="group__LLVMCTLTO.html" target="_top" xlink:title="// endgoup LLVMCLTO">
<polygon fill="white" stroke="#666666" points="218,-93.25 164.5,-93.25 164.5,-74 218,-74 218,-93.25"/>
<text xml:space="preserve" text-anchor="middle" x="191.25" y="-79.75" font-family="Helvetica,sans-Serif" font-size="10.00">ThinLTO</text>
</a>
</g>
</g>
<!-- Node1&#45;&gt;Node16 -->
<g id="edge15" class="edge">
<title>Node1&#45;&gt;Node16</title>
<path fill="none" stroke="black" d="M56.39,-308.89C62.75,-260.93 82.66,-159.85 141.25,-101.62 147.49,-95.43 156.03,-91.34 164.24,-88.66"/>
<polygon fill="black" stroke="black" points="52.94,-308.29 55.21,-318.64 59.89,-309.14 52.94,-308.29"/>
</g>
<!-- Node19 -->
<g id="Node000019" class="node">
<title>Node19</title>
<g id="a_Node000019"><a xlink:href="group__LLVMCTarget.html" target="_top" xlink:title=" ">
<polygon fill="white" stroke="#666666" points="238.25,-56.25 144.25,-56.25 144.25,-37 238.25,-37 238.25,-56.25"/>
<text xml:space="preserve" text-anchor="middle" x="191.25" y="-42.75" font-family="Helvetica,sans-Serif" font-size="10.00">Target information</text>
</a>
</g>
</g>
<!-- Node1&#45;&gt;Node19 -->
<g id="edge18" class="edge">
<title>Node1&#45;&gt;Node19</title>
<path fill="none" stroke="black" d="M54.78,-308.87C58.51,-255.35 74.32,-134.23 141.25,-64.62 144.39,-61.36 148.17,-58.68 152.23,-56.49"/>
<polygon fill="black" stroke="black" points="51.3,-308.39 54.2,-318.59 58.29,-308.81 51.3,-308.39"/>
</g>
<!-- Node5 -->
<g id="Node000005" class="node">
<title>Node5</title>
<g id="a_Node000005"><a xlink:href="group__LLVMCTransforms.html" target="_top" xlink:title=" ">
<polygon fill="white" stroke="#666666" points="224,-19.25 158.5,-19.25 158.5,0 224,0 224,-19.25"/>
<text xml:space="preserve" text-anchor="middle" x="191.25" y="-5.75" font-family="Helvetica,sans-Serif" font-size="10.00">Transforms</text>
</a>
</g>
</g>
<!-- Node1&#45;&gt;Node5 -->
<g id="edge4" class="edge">
<title>Node1&#45;&gt;Node5</title>
<path fill="none" stroke="black" d="M53.53,-308.96C54.76,-250.31 65.88,-108.86 141.25,-27.62 145.81,-22.71 151.83,-19.13 158.08,-16.53"/>
<polygon fill="black" stroke="black" points="50.03,-308.62 53.41,-318.66 57.03,-308.7 50.03,-308.62"/>
</g>
</g>
</svg>
