<?xml version="1.0" encoding="UTF-8" standalone="no"?>
<!DOCTYPE svg PUBLIC "-//W3C//DTD SVG 1.1//EN"
 "http://www.w3.org/Graphics/SVG/1.1/DTD/svg11.dtd">
<!-- Generated by graphviz version 14.1.3 (20260303.0454)
 -->
<!-- Title: LLJIT Pages: 1 -->
<svg width="290pt" height="27pt"
 viewBox="0.00 0.00 290.00 27.00" xmlns="http://www.w3.org/2000/svg" xmlns:xlink="http://www.w3.org/1999/xlink">
<g id="graph0" class="graph" transform="scale(1 1) rotate(0) translate(4 23.25)">
<title>LLJIT</title>
<!-- Node2 -->
<g id="Node000002" class="node">
<title>Node2</title>
<g id="a_Node000002"><a xlink:href="group__LLVMCExecutionEngine.html" target="_top" xlink:title=" ">
<polygon fill="white" stroke="#666666" points="92.5,-19.25 0,-19.25 0,0 92.5,0 92.5,-19.25"/>
<text xml:space="preserve" text-anchor="middle" x="46.25" y="-5.75" font-family="Helvetica,sans-Serif" font-size="10.00">Execution Engine</text>
</a>
</g>
</g>
<!-- Node1 -->
<g id="Node000001" class="node">
<title>Node1</title>
<g id="a_Node000001"><a xlink:title=" ">
<polygon fill="#999999" stroke="#666666" points="169.25,-19.25 128.5,-19.25 128.5,0 169.25,0 169.25,-19.25"/>
<text xml:space="preserve" text-anchor="middle" x="148.88" y="-5.75" font-family="Helvetica,sans-Serif" font-size="10.00">LLJIT</text>
</a>
</g>
</g>
<!-- Node2&#45;&gt;Node1 -->
<g id="edge1" class="edge">
<title>Node2&#45;&gt;Node1</title>
<path fill="none" stroke="black" d="M104.19,-9.62C112.76,-9.62 121.07,-9.62 128.1,-9.62"/>
<polygon fill="black" stroke="black" points="104.37,-6.13 94.37,-9.63 104.37,-13.13 104.37,-6.13"/>
</g>
<!-- Node3 -->
<g id="Node000003" class="node">
<title>Node3</title>
<g id="a_Node000003"><a xlink:href="group__LLVMCExecutionEngineLLJITUtils.html" target="_top" xlink:title=" ">
<polygon fill="white" stroke="#666666" points="282,-19.25 205.25,-19.25 205.25,0 282,0 282,-19.25"/>
<text xml:space="preserve" text-anchor="middle" x="243.62" y="-5.75" font-family="Helvetica,sans-Serif" font-size="10.00">LLJIT Utilities</text>
</a>
</g>
</g>
<!-- Node1&#45;&gt;Node3 -->
<g id="edge2" class="edge">
<title>Node1&#45;&gt;Node3</title>
<path fill="none" stroke="black" d="M180.99,-9.62C188.69,-9.62 197.03,-9.62 205.01,-9.62"/>
<polygon fill="black" stroke="black" points="181.06,-6.13 171.06,-9.63 181.06,-13.13 181.06,-6.13"/>
</g>
</g>
</svg>
