<?xml version="1.0" encoding="UTF-8" standalone="no"?>
<!DOCTYPE svg PUBLIC "-//W3C//DTD SVG 1.1//EN"
 "http://www.w3.org/Graphics/SVG/1.1/DTD/svg11.dtd">
<!-- Generated by graphviz version 14.1.3 (20260303.0454)
 -->
<!-- Title: Graphical Class Hierarchy Pages: 1 -->
<svg width="324pt" height="88pt"
 viewBox="0.00 0.00 324.00 88.00" xmlns="http://www.w3.org/2000/svg" xmlns:xlink="http://www.w3.org/1999/xlink">
<g id="graph0" class="graph" transform="scale(1 1) rotate(0) translate(4 83.5)">
<title>Graphical Class Hierarchy</title>
<!-- Node0 -->
<g id="Node000000" class="node">
<title>Node0</title>
<g id="a_Node000000"><a xlink:href="classllvm_1_1DependenceGraphInfo.html" target="_top" xlink:title=" ">
<polygon fill="white" stroke="#666666" points="137.5,-79.5 0,-79.5 0,-49 137.5,-49 137.5,-79.5"/>
<text xml:space="preserve" text-anchor="start" x="8" y="-66" font-family="Helvetica,sans-Serif" font-size="10.00">llvm::DependenceGraphInfo</text>
<text xml:space="preserve" text-anchor="middle" x="68.75" y="-54.75" font-family="Helvetica,sans-Serif" font-size="10.00">&lt; DDGNode &gt;</text>
</a>
</g>
</g>
<!-- Node1 -->
<g id="Node000001" class="node">
<title>Node1</title>
<g id="a_Node000001"><a xlink:href="classllvm_1_1DataDependenceGraph.html" target="_top" xlink:title="Data Dependency Graph.">
<polygon fill="white" stroke="#666666" points="315.5,-48.88 173.5,-48.88 173.5,-29.62 315.5,-29.62 315.5,-48.88"/>
<text xml:space="preserve" text-anchor="middle" x="244.5" y="-35.38" font-family="Helvetica,sans-Serif" font-size="10.00">llvm::DataDependenceGraph</text>
</a>
</g>
</g>
<!-- Node0&#45;&gt;Node1 -->
<g id="edge3037_Node000000_Node000001" class="edge">
<title>Node0&#45;&gt;Node1</title>
<g id="a_edge3037_Node000000_Node000001"><a xlink:title=" ">
<path fill="none" stroke="#63b8ff" d="M149.18,-52.82C157.21,-51.67 165.32,-50.5 173.24,-49.36"/>
<polygon fill="#63b8ff" stroke="#63b8ff" points="148.82,-49.34 139.42,-54.23 149.82,-56.27 148.82,-49.34"/>
</a>
</g>
</g>
<!-- Node2 -->
<g id="Node000002" class="node">
<title>Node2</title>
<g id="a_Node000002"><a xlink:href="classllvm_1_1DirectedGraph.html" target="_top" xlink:title=" ">
<polygon fill="white" stroke="#666666" points="134.12,-30.5 3.38,-30.5 3.38,0 134.12,0 134.12,-30.5"/>
<text xml:space="preserve" text-anchor="start" x="11.38" y="-17" font-family="Helvetica,sans-Serif" font-size="10.00">llvm::DirectedGraph</text>
<text xml:space="preserve" text-anchor="middle" x="68.75" y="-5.75" font-family="Helvetica,sans-Serif" font-size="10.00">&lt; DDGNode, DDGEdge &gt;</text>
</a>
</g>
</g>
<!-- Node2&#45;&gt;Node1 -->
<g id="edge3038_Node000002_Node000001" class="edge">
<title>Node2&#45;&gt;Node1</title>
<g id="a_edge3038_Node000002_Node000001"><a xlink:title=" ">
<path fill="none" stroke="#63b8ff" d="M145.85,-25.76C154.95,-27.02 164.2,-28.3 173.21,-29.54"/>
<polygon fill="#63b8ff" stroke="#63b8ff" points="146.33,-22.3 135.95,-24.39 145.37,-29.23 146.33,-22.3"/>
</a>
</g>
</g>
</g>
</svg>
