<?xml version="1.0" encoding="UTF-8" standalone="no"?>
<!DOCTYPE svg PUBLIC "-//W3C//DTD SVG 1.1//EN"
 "http://www.w3.org/Graphics/SVG/1.1/DTD/svg11.dtd">
<!-- Generated by graphviz version 14.1.3 (20260303.0454)
 -->
<!-- Title: Graphical Class Hierarchy Pages: 1 -->
<svg width="304pt" height="196pt"
 viewBox="0.00 0.00 304.00 196.00" xmlns="http://www.w3.org/2000/svg" xmlns:xlink="http://www.w3.org/1999/xlink">
<g id="graph0" class="graph" transform="scale(1 1) rotate(0) translate(4 191.5)">
<title>Graphical Class Hierarchy</title>
<!-- Node0 -->
<g id="Node000000" class="node">
<title>Node0</title>
<g id="a_Node000000"><a xlink:href="classllvm_1_1ErrorHandlerTraits.html" target="_top" xlink:title=" ">
<polygon fill="white" stroke="#666666" points="119.5,-111.5 0,-111.5 0,-81 119.5,-81 119.5,-111.5"/>
<text xml:space="preserve" text-anchor="start" x="8" y="-98" font-family="Helvetica,sans-Serif" font-size="10.00">llvm::ErrorHandlerTraits</text>
<text xml:space="preserve" text-anchor="middle" x="59.75" y="-86.75" font-family="Helvetica,sans-Serif" font-size="10.00">&lt; RetT(&amp;)(ErrT &amp;)&gt;</text>
</a>
</g>
</g>
<!-- Node1 -->
<g id="Node000001" class="node">
<title>Node1</title>
<g id="a_Node000001"><a xlink:href="classllvm_1_1ErrorHandlerTraits_3_01RetT_07C_1_1_5_08_07ErrT_01_6_08_01const_01_4.html" target="_top" xlink:title=" ">
<polygon fill="white" stroke="#666666" points="296,-187.5 155.5,-187.5 155.5,-157 296,-157 296,-187.5"/>
<text xml:space="preserve" text-anchor="start" x="163.5" y="-174" font-family="Helvetica,sans-Serif" font-size="10.00">llvm::ErrorHandlerTraits</text>
<text xml:space="preserve" text-anchor="middle" x="225.75" y="-162.75" font-family="Helvetica,sans-Serif" font-size="10.00">&lt; RetT(C::*)(ErrT &amp;) const &gt;</text>
</a>
</g>
</g>
<!-- Node0&#45;&gt;Node1 -->
<g id="edge3319_Node000000_Node000001" class="edge">
<title>Node0&#45;&gt;Node1</title>
<g id="a_edge3319_Node000000_Node000001"><a xlink:title=" ">
<path fill="none" stroke="#63b8ff" d="M96.93,-117.35C114.33,-127.07 135.68,-138.4 155.5,-147.25 162.74,-150.48 170.53,-153.62 178.18,-156.51"/>
<polygon fill="#63b8ff" stroke="#63b8ff" points="98.92,-114.45 88.49,-112.58 95.48,-120.55 98.92,-114.45"/>
</a>
</g>
</g>
<!-- Node2 -->
<g id="Node000002" class="node">
<title>Node2</title>
<g id="a_Node000002"><a xlink:href="classllvm_1_1ErrorHandlerTraits_3_01RetT_07C_1_1_5_08_07ErrT_01_6_08_4.html" target="_top" xlink:title=" ">
<polygon fill="white" stroke="#666666" points="285.5,-138.5 166,-138.5 166,-108 285.5,-108 285.5,-138.5"/>
<text xml:space="preserve" text-anchor="start" x="174" y="-125" font-family="Helvetica,sans-Serif" font-size="10.00">llvm::ErrorHandlerTraits</text>
<text xml:space="preserve" text-anchor="middle" x="225.75" y="-113.75" font-family="Helvetica,sans-Serif" font-size="10.00">&lt; RetT(C::*)(ErrT &amp;)&gt;</text>
</a>
</g>
</g>
<!-- Node0&#45;&gt;Node2 -->
<g id="edge3320_Node000000_Node000002" class="edge">
<title>Node0&#45;&gt;Node2</title>
<g id="a_edge3320_Node000000_Node000002"><a xlink:title=" ">
<path fill="none" stroke="#63b8ff" d="M131.27,-107.86C142.73,-109.75 154.48,-111.68 165.63,-113.52"/>
<polygon fill="#63b8ff" stroke="#63b8ff" points="131.89,-104.41 121.45,-106.24 130.75,-111.32 131.89,-104.41"/>
</a>
</g>
</g>
<!-- Node3 -->
<g id="Node000003" class="node">
<title>Node3</title>
<g id="a_Node000003"><a xlink:href="classllvm_1_1ErrorHandlerTraits_3_01RetT_07C_1_1_5_08_07const_01ErrT_01_6_08_01const_01_4.html" target="_top" xlink:title=" ">
<polygon fill="white" stroke="#666666" points="285.5,-90.12 166,-90.12 166,-48.38 285.5,-48.38 285.5,-90.12"/>
<text xml:space="preserve" text-anchor="start" x="174" y="-76.62" font-family="Helvetica,sans-Serif" font-size="10.00">llvm::ErrorHandlerTraits</text>
<text xml:space="preserve" text-anchor="start" x="174" y="-65.38" font-family="Helvetica,sans-Serif" font-size="10.00">&lt; RetT(C::*)(const ErrT</text>
<text xml:space="preserve" text-anchor="middle" x="225.75" y="-54.12" font-family="Helvetica,sans-Serif" font-size="10.00"> &amp;) const &gt;</text>
</a>
</g>
</g>
<!-- Node0&#45;&gt;Node3 -->
<g id="edge3321_Node000000_Node000003" class="edge">
<title>Node0&#45;&gt;Node3</title>
<g id="a_edge3321_Node000000_Node000003"><a xlink:title=" ">
<path fill="none" stroke="#63b8ff" d="M131.27,-84.64C142.73,-82.75 154.48,-80.82 165.63,-78.98"/>
<polygon fill="#63b8ff" stroke="#63b8ff" points="130.75,-81.18 121.45,-86.26 131.89,-88.09 130.75,-81.18"/>
</a>
</g>
</g>
<!-- Node4 -->
<g id="Node000004" class="node">
<title>Node4</title>
<g id="a_Node000004"><a xlink:href="classllvm_1_1ErrorHandlerTraits_3_01RetT_07C_1_1_5_08_07const_01ErrT_01_6_08_4.html" target="_top" xlink:title=" ">
<polygon fill="white" stroke="#666666" points="294.5,-30.5 157,-30.5 157,0 294.5,0 294.5,-30.5"/>
<text xml:space="preserve" text-anchor="start" x="165" y="-17" font-family="Helvetica,sans-Serif" font-size="10.00">llvm::ErrorHandlerTraits</text>
<text xml:space="preserve" text-anchor="middle" x="225.75" y="-5.75" font-family="Helvetica,sans-Serif" font-size="10.00">&lt; RetT(C::*)(const ErrT &amp;)&gt;</text>
</a>
</g>
</g>
<!-- Node0&#45;&gt;Node4 -->
<g id="edge3322_Node000000_Node000004" class="edge">
<title>Node0&#45;&gt;Node4</title>
<g id="a_edge3322_Node000000_Node000004"><a xlink:title=" ">
<path fill="none" stroke="#63b8ff" d="M93.38,-74.31C111.24,-62.91 134.03,-49.29 155.5,-39.25 161.84,-36.28 168.65,-33.49 175.44,-30.92"/>
<polygon fill="#63b8ff" stroke="#63b8ff" points="91.51,-71.35 85.02,-79.73 95.32,-77.23 91.51,-71.35"/>
</a>
</g>
</g>
</g>
</svg>
