<?xml version="1.0" encoding="UTF-8" standalone="no"?>
<!DOCTYPE svg PUBLIC "-//W3C//DTD SVG 1.1//EN"
 "http://www.w3.org/Graphics/SVG/1.1/DTD/svg11.dtd">
<!-- Generated by graphviz version 14.1.3 (20260303.0454)
 -->
<!-- Title: Graphical Class Hierarchy Pages: 1 -->
<svg width="824pt" height="93pt"
 viewBox="0.00 0.00 824.00 93.00" xmlns="http://www.w3.org/2000/svg" xmlns:xlink="http://www.w3.org/1999/xlink">
<g id="graph0" class="graph" transform="scale(1 1) rotate(0) translate(4 89.12)">
<title>Graphical Class Hierarchy</title>
<!-- Node0 -->
<g id="Node000000" class="node">
<title>Node0</title>
<g id="a_Node000000"><a xlink:href="classllvm_1_1SmallVectorBase.html" target="_top" xlink:title=" ">
<polygon fill="white" stroke="#666666" points="130.75,-85.12 0,-85.12 0,-43.38 130.75,-43.38 130.75,-85.12"/>
<text xml:space="preserve" text-anchor="start" x="8" y="-71.62" font-family="Helvetica,sans-Serif" font-size="10.00">llvm::SmallVectorBase</text>
<text xml:space="preserve" text-anchor="start" x="8" y="-60.38" font-family="Helvetica,sans-Serif" font-size="10.00">&lt; SmallVectorSizeType</text>
<text xml:space="preserve" text-anchor="middle" x="65.38" y="-49.12" font-family="Helvetica,sans-Serif" font-size="10.00">&lt; llvm::CoroSizeInst * &gt; &gt;</text>
</a>
</g>
</g>
<!-- Node1 -->
<g id="Node000001" class="node">
<title>Node1</title>
<g id="a_Node000001"><a xlink:href="classllvm_1_1SmallVectorTemplateCommon.html" target="_top" xlink:title=" ">
<polygon fill="white" stroke="#666666" points="328.25,-79.5 166.75,-79.5 166.75,-49 328.25,-49 328.25,-79.5"/>
<text xml:space="preserve" text-anchor="start" x="174.75" y="-66" font-family="Helvetica,sans-Serif" font-size="10.00">llvm::SmallVectorTemplate</text>
<text xml:space="preserve" text-anchor="middle" x="247.5" y="-54.75" font-family="Helvetica,sans-Serif" font-size="10.00">Common&lt; llvm::CoroSizeInst * &gt;</text>
</a>
</g>
</g>
<!-- Node0&#45;&gt;Node1 -->
<g id="edge8389_Node000000_Node000001" class="edge">
<title>Node0&#45;&gt;Node1</title>
<g id="a_edge8389_Node000000_Node000001"><a xlink:title=" ">
<path fill="none" stroke="#63b8ff" d="M142.53,-64.25C150.39,-64.25 158.39,-64.25 166.29,-64.25"/>
<polygon fill="#63b8ff" stroke="#63b8ff" points="142.66,-60.75 132.66,-64.25 142.66,-67.75 142.66,-60.75"/>
</a>
</g>
</g>
<!-- Node2 -->
<g id="Node000002" class="node">
<title>Node2</title>
<g id="a_Node000002"><a xlink:href="classllvm_1_1SmallVectorTemplateBase.html" target="_top" xlink:title=" ">
<polygon fill="white" stroke="#666666" points="508.5,-79.5 364.25,-79.5 364.25,-49 508.5,-49 508.5,-79.5"/>
<text xml:space="preserve" text-anchor="start" x="372.25" y="-66" font-family="Helvetica,sans-Serif" font-size="10.00">llvm::SmallVectorTemplate</text>
<text xml:space="preserve" text-anchor="middle" x="436.38" y="-54.75" font-family="Helvetica,sans-Serif" font-size="10.00">Base&lt; llvm::CoroSizeInst * &gt;</text>
</a>
</g>
</g>
<!-- Node1&#45;&gt;Node2 -->
<g id="edge8390_Node000001_Node000002" class="edge">
<title>Node1&#45;&gt;Node2</title>
<g id="a_edge8390_Node000001_Node000002"><a xlink:title=" ">
<path fill="none" stroke="#63b8ff" d="M339.96,-64.25C348.04,-64.25 356.15,-64.25 364.03,-64.25"/>
<polygon fill="#63b8ff" stroke="#63b8ff" points="340.08,-60.75 330.08,-64.25 340.08,-67.75 340.08,-60.75"/>
</a>
</g>
</g>
<!-- Node3 -->
<g id="Node000003" class="node">
<title>Node3</title>
<g id="a_Node000003"><a xlink:href="classllvm_1_1SmallVectorImpl.html" target="_top" xlink:title=" ">
<polygon fill="white" stroke="#666666" points="673,-79.5 551.25,-79.5 551.25,-49 673,-49 673,-79.5"/>
<text xml:space="preserve" text-anchor="start" x="559.25" y="-66" font-family="Helvetica,sans-Serif" font-size="10.00">llvm::SmallVectorImpl</text>
<text xml:space="preserve" text-anchor="middle" x="612.12" y="-54.75" font-family="Helvetica,sans-Serif" font-size="10.00">&lt; llvm::CoroSizeInst * &gt;</text>
</a>
</g>
</g>
<!-- Node2&#45;&gt;Node3 -->
<g id="edge8391_Node000002_Node000003" class="edge">
<title>Node2&#45;&gt;Node3</title>
<g id="a_edge8391_Node000002_Node000003"><a xlink:title=" ">
<path fill="none" stroke="#63b8ff" d="M520,-64.25C530.38,-64.25 540.84,-64.25 550.78,-64.25"/>
<polygon fill="#63b8ff" stroke="#63b8ff" points="520.31,-60.75 510.31,-64.25 520.31,-67.75 520.31,-60.75"/>
</a>
</g>
</g>
<!-- Node4 -->
<g id="Node000004" class="node">
<title>Node4</title>
<g id="a_Node000004"><a xlink:href="classllvm_1_1SmallVector.html" target="_top" xlink:title=" ">
<polygon fill="white" stroke="#666666" points="815.75,-60.12 715.75,-60.12 715.75,-18.38 815.75,-18.38 815.75,-60.12"/>
<text xml:space="preserve" text-anchor="start" x="723.75" y="-46.62" font-family="Helvetica,sans-Serif" font-size="10.00">llvm::SmallVector&lt;</text>
<text xml:space="preserve" text-anchor="start" x="723.75" y="-35.38" font-family="Helvetica,sans-Serif" font-size="10.00"> llvm::CoroSizeInst</text>
<text xml:space="preserve" text-anchor="middle" x="765.75" y="-24.12" font-family="Helvetica,sans-Serif" font-size="10.00"> *, 2 &gt;</text>
</a>
</g>
</g>
<!-- Node3&#45;&gt;Node4 -->
<g id="edge8392_Node000003_Node000004" class="edge">
<title>Node3&#45;&gt;Node4</title>
<g id="a_edge8392_Node000003_Node000004"><a xlink:title=" ">
<path fill="none" stroke="#63b8ff" d="M684.66,-52.46C695.03,-50.75 705.5,-49.02 715.31,-47.4"/>
<polygon fill="#63b8ff" stroke="#63b8ff" points="684.28,-48.97 674.98,-54.05 685.42,-55.88 684.28,-48.97"/>
</a>
</g>
</g>
<!-- Node5 -->
<g id="Node000005" class="node">
<title>Node5</title>
<g id="a_Node000005"><a xlink:href="structllvm_1_1SmallVectorStorage.html" target="_top" xlink:title=" ">
<polygon fill="white" stroke="#666666" points="679.75,-30.5 544.5,-30.5 544.5,0 679.75,0 679.75,-30.5"/>
<text xml:space="preserve" text-anchor="start" x="552.5" y="-17" font-family="Helvetica,sans-Serif" font-size="10.00">llvm::SmallVectorStorage</text>
<text xml:space="preserve" text-anchor="middle" x="612.12" y="-5.75" font-family="Helvetica,sans-Serif" font-size="10.00">&lt; llvm::CoroSizeInst *, N &gt;</text>
</a>
</g>
</g>
<!-- Node5&#45;&gt;Node4 -->
<g id="edge8393_Node000005_Node000004" class="edge">
<title>Node5&#45;&gt;Node4</title>
<g id="a_edge8393_Node000005_Node000004"><a xlink:title=" ">
<path fill="none" stroke="#8b1a1a" d="M691.28,-27.62C699.51,-28.92 707.7,-30.22 715.46,-31.45"/>
<polygon fill="#8b1a1a" stroke="#8b1a1a" points="691.99,-24.19 681.57,-26.08 690.9,-31.1 691.99,-24.19"/>
</a>
</g>
</g>
</g>
</svg>
