<?xml version="1.0" encoding="UTF-8" standalone="no"?>
<!DOCTYPE svg PUBLIC "-//W3C//DTD SVG 1.1//EN"
 "http://www.w3.org/Graphics/SVG/1.1/DTD/svg11.dtd">
<!-- Generated by graphviz version 14.1.3 (20260303.0454)
 -->
<!-- Title: Graphical Class Hierarchy Pages: 1 -->
<svg width="925pt" height="93pt"
 viewBox="0.00 0.00 925.00 93.00" xmlns="http://www.w3.org/2000/svg" xmlns:xlink="http://www.w3.org/1999/xlink">
<g id="graph0" class="graph" transform="scale(1 1) rotate(0) translate(4 89.12)">
<title>Graphical Class Hierarchy</title>
<!-- Node0 -->
<g id="Node000000" class="node">
<title>Node0</title>
<g id="a_Node000000"><a xlink:href="classllvm_1_1SmallVectorBase.html" target="_top" xlink:title=" ">
<polygon fill="white" stroke="#666666" points="151,-85.12 0,-85.12 0,-43.38 151,-43.38 151,-85.12"/>
<text xml:space="preserve" text-anchor="start" x="8" y="-71.62" font-family="Helvetica,sans-Serif" font-size="10.00">llvm::SmallVectorBase</text>
<text xml:space="preserve" text-anchor="start" x="8" y="-60.38" font-family="Helvetica,sans-Serif" font-size="10.00">&lt; SmallVectorSizeType</text>
<text xml:space="preserve" text-anchor="middle" x="75.5" y="-49.12" font-family="Helvetica,sans-Serif" font-size="10.00">&lt; SCEVInsertPointGuard * &gt; &gt;</text>
</a>
</g>
</g>
<!-- Node1 -->
<g id="Node000001" class="node">
<title>Node1</title>
<g id="a_Node000001"><a xlink:href="classllvm_1_1SmallVectorTemplateCommon.html" target="_top" xlink:title=" ">
<polygon fill="white" stroke="#666666" points="368.75,-79.5 187,-79.5 187,-49 368.75,-49 368.75,-79.5"/>
<text xml:space="preserve" text-anchor="start" x="195" y="-66" font-family="Helvetica,sans-Serif" font-size="10.00">llvm::SmallVectorTemplate</text>
<text xml:space="preserve" text-anchor="middle" x="277.88" y="-54.75" font-family="Helvetica,sans-Serif" font-size="10.00">Common&lt; SCEVInsertPointGuard * &gt;</text>
</a>
</g>
</g>
<!-- Node0&#45;&gt;Node1 -->
<g id="edge9490_Node000000_Node000001" class="edge">
<title>Node0&#45;&gt;Node1</title>
<g id="a_edge9490_Node000000_Node000001"><a xlink:title=" ">
<path fill="none" stroke="#63b8ff" d="M162.8,-64.25C170.65,-64.25 178.62,-64.25 186.51,-64.25"/>
<polygon fill="#63b8ff" stroke="#63b8ff" points="162.91,-60.75 152.91,-64.25 162.91,-67.75 162.91,-60.75"/>
</a>
</g>
</g>
<!-- Node2 -->
<g id="Node000002" class="node">
<title>Node2</title>
<g id="a_Node000002"><a xlink:href="classllvm_1_1SmallVectorTemplateBase.html" target="_top" xlink:title=" ">
<polygon fill="white" stroke="#666666" points="569.25,-79.5 404.75,-79.5 404.75,-49 569.25,-49 569.25,-79.5"/>
<text xml:space="preserve" text-anchor="start" x="412.75" y="-66" font-family="Helvetica,sans-Serif" font-size="10.00">llvm::SmallVectorTemplate</text>
<text xml:space="preserve" text-anchor="middle" x="487" y="-54.75" font-family="Helvetica,sans-Serif" font-size="10.00">Base&lt; SCEVInsertPointGuard * &gt;</text>
</a>
</g>
</g>
<!-- Node1&#45;&gt;Node2 -->
<g id="edge9491_Node000001_Node000002" class="edge">
<title>Node1&#45;&gt;Node2</title>
<g id="a_edge9491_Node000001_Node000002"><a xlink:title=" ">
<path fill="none" stroke="#63b8ff" d="M380.49,-64.25C388.55,-64.25 396.62,-64.25 404.52,-64.25"/>
<polygon fill="#63b8ff" stroke="#63b8ff" points="380.63,-60.75 370.63,-64.25 380.63,-67.75 380.63,-60.75"/>
</a>
</g>
</g>
<!-- Node3 -->
<g id="Node000003" class="node">
<title>Node3</title>
<g id="a_Node000003"><a xlink:href="classllvm_1_1SmallVectorImpl.html" target="_top" xlink:title=" ">
<polygon fill="white" stroke="#666666" points="754,-79.5 612,-79.5 612,-49 754,-49 754,-79.5"/>
<text xml:space="preserve" text-anchor="start" x="620" y="-66" font-family="Helvetica,sans-Serif" font-size="10.00">llvm::SmallVectorImpl</text>
<text xml:space="preserve" text-anchor="middle" x="683" y="-54.75" font-family="Helvetica,sans-Serif" font-size="10.00">&lt; SCEVInsertPointGuard * &gt;</text>
</a>
</g>
</g>
<!-- Node2&#45;&gt;Node3 -->
<g id="edge9492_Node000002_Node000003" class="edge">
<title>Node2&#45;&gt;Node3</title>
<g id="a_edge9492_Node000002_Node000003"><a xlink:title=" ">
<path fill="none" stroke="#63b8ff" d="M580.92,-64.25C591.29,-64.25 601.73,-64.25 611.75,-64.25"/>
<polygon fill="#63b8ff" stroke="#63b8ff" points="581.22,-60.75 571.22,-64.25 581.22,-67.75 581.22,-60.75"/>
</a>
</g>
</g>
<!-- Node4 -->
<g id="Node000004" class="node">
<title>Node4</title>
<g id="a_Node000004"><a xlink:href="classllvm_1_1SmallVector.html" target="_top" xlink:title=" ">
<polygon fill="white" stroke="#666666" points="917,-60.12 796.75,-60.12 796.75,-18.38 917,-18.38 917,-60.12"/>
<text xml:space="preserve" text-anchor="start" x="804.75" y="-46.62" font-family="Helvetica,sans-Serif" font-size="10.00">llvm::SmallVector&lt;</text>
<text xml:space="preserve" text-anchor="start" x="804.75" y="-35.38" font-family="Helvetica,sans-Serif" font-size="10.00"> SCEVInsertPointGuard</text>
<text xml:space="preserve" text-anchor="middle" x="856.88" y="-24.12" font-family="Helvetica,sans-Serif" font-size="10.00"> *, 8 &gt;</text>
</a>
</g>
</g>
<!-- Node3&#45;&gt;Node4 -->
<g id="edge9493_Node000003_Node000004" class="edge">
<title>Node3&#45;&gt;Node4</title>
<g id="a_edge9493_Node000003_Node000004"><a xlink:title=" ">
<path fill="none" stroke="#63b8ff" d="M765.58,-52.38C775.93,-50.88 786.36,-49.36 796.28,-47.92"/>
<polygon fill="#63b8ff" stroke="#63b8ff" points="765.29,-48.89 755.9,-53.79 766.3,-55.82 765.29,-48.89"/>
</a>
</g>
</g>
<!-- Node5 -->
<g id="Node000005" class="node">
<title>Node5</title>
<g id="a_Node000005"><a xlink:href="structllvm_1_1SmallVectorStorage.html" target="_top" xlink:title=" ">
<polygon fill="white" stroke="#666666" points="760.75,-30.5 605.25,-30.5 605.25,0 760.75,0 760.75,-30.5"/>
<text xml:space="preserve" text-anchor="start" x="613.25" y="-17" font-family="Helvetica,sans-Serif" font-size="10.00">llvm::SmallVectorStorage</text>
<text xml:space="preserve" text-anchor="middle" x="683" y="-5.75" font-family="Helvetica,sans-Serif" font-size="10.00">&lt; SCEVInsertPointGuard *, N &gt;</text>
</a>
</g>
</g>
<!-- Node5&#45;&gt;Node4 -->
<g id="edge9494_Node000005_Node000004" class="edge">
<title>Node5&#45;&gt;Node4</title>
<g id="a_edge9494_Node000005_Node000004"><a xlink:title=" ">
<path fill="none" stroke="#8b1a1a" d="M772.3,-27.58C780.5,-28.72 788.67,-29.87 796.51,-30.96"/>
<polygon fill="#8b1a1a" stroke="#8b1a1a" points="773.03,-24.15 762.64,-26.23 772.06,-31.08 773.03,-24.15"/>
</a>
</g>
</g>
</g>
</svg>
