<?xml version="1.0" encoding="UTF-8" standalone="no"?>
<!DOCTYPE svg PUBLIC "-//W3C//DTD SVG 1.1//EN"
 "http://www.w3.org/Graphics/SVG/1.1/DTD/svg11.dtd">
<!-- Generated by graphviz version 14.1.3 (20260303.0454)
 -->
<!-- Title: Graphical Class Hierarchy Pages: 1 -->
<svg width="788pt" height="115pt"
 viewBox="0.00 0.00 788.00 115.00" xmlns="http://www.w3.org/2000/svg" xmlns:xlink="http://www.w3.org/1999/xlink">
<g id="graph0" class="graph" transform="scale(1 1) rotate(0) translate(4 111.38)">
<title>Graphical Class Hierarchy</title>
<!-- Node0 -->
<g id="Node000000" class="node">
<title>Node0</title>
<g id="a_Node000000"><a xlink:href="classllvm_1_1SmallVectorBase.html" target="_top" xlink:title=" ">
<polygon fill="white" stroke="#666666" points="129.25,-107.38 0,-107.38 0,-54.38 129.25,-54.38 129.25,-107.38"/>
<text xml:space="preserve" text-anchor="start" x="8" y="-93.88" font-family="Helvetica,sans-Serif" font-size="10.00">llvm::SmallVectorBase</text>
<text xml:space="preserve" text-anchor="start" x="8" y="-82.62" font-family="Helvetica,sans-Serif" font-size="10.00">&lt; SmallVectorSizeType</text>
<text xml:space="preserve" text-anchor="start" x="8" y="-71.38" font-family="Helvetica,sans-Serif" font-size="10.00">&lt; llvm::SmallVector&lt; size</text>
<text xml:space="preserve" text-anchor="middle" x="64.62" y="-60.12" font-family="Helvetica,sans-Serif" font-size="10.00">_t, 4 &gt; &gt; &gt;</text>
</a>
</g>
</g>
<!-- Node1 -->
<g id="Node000001" class="node">
<title>Node1</title>
<g id="a_Node000001"><a xlink:href="classllvm_1_1SmallVectorTemplateCommon.html" target="_top" xlink:title=" ">
<polygon fill="white" stroke="#666666" points="307.25,-101.75 165.25,-101.75 165.25,-60 307.25,-60 307.25,-101.75"/>
<text xml:space="preserve" text-anchor="start" x="173.25" y="-88.25" font-family="Helvetica,sans-Serif" font-size="10.00">llvm::SmallVectorTemplate</text>
<text xml:space="preserve" text-anchor="start" x="173.25" y="-77" font-family="Helvetica,sans-Serif" font-size="10.00">Common&lt; llvm::SmallVector</text>
<text xml:space="preserve" text-anchor="middle" x="236.25" y="-65.75" font-family="Helvetica,sans-Serif" font-size="10.00">&lt; size_t, 4 &gt; &gt;</text>
</a>
</g>
</g>
<!-- Node0&#45;&gt;Node1 -->
<g id="edge9118_Node000000_Node000001" class="edge">
<title>Node0&#45;&gt;Node1</title>
<g id="a_edge9118_Node000000_Node000001"><a xlink:title=" ">
<path fill="none" stroke="#63b8ff" d="M140.62,-80.88C148.72,-80.88 156.94,-80.88 164.99,-80.88"/>
<polygon fill="#63b8ff" stroke="#63b8ff" points="140.78,-77.38 130.78,-80.88 140.78,-84.38 140.78,-77.38"/>
</a>
</g>
</g>
<!-- Node2 -->
<g id="Node000002" class="node">
<title>Node2</title>
<g id="a_Node000002"><a xlink:href="classllvm_1_1SmallVectorTemplateBase.html" target="_top" xlink:title=" ">
<polygon fill="white" stroke="#666666" points="476.25,-101.75 343.25,-101.75 343.25,-60 476.25,-60 476.25,-101.75"/>
<text xml:space="preserve" text-anchor="start" x="351.25" y="-88.25" font-family="Helvetica,sans-Serif" font-size="10.00">llvm::SmallVectorTemplate</text>
<text xml:space="preserve" text-anchor="start" x="351.25" y="-77" font-family="Helvetica,sans-Serif" font-size="10.00">Base&lt; llvm::SmallVector</text>
<text xml:space="preserve" text-anchor="middle" x="409.75" y="-65.75" font-family="Helvetica,sans-Serif" font-size="10.00">&lt; size_t, 4 &gt; &gt;</text>
</a>
</g>
</g>
<!-- Node1&#45;&gt;Node2 -->
<g id="edge9119_Node000001_Node000002" class="edge">
<title>Node1&#45;&gt;Node2</title>
<g id="a_edge9119_Node000001_Node000002"><a xlink:title=" ">
<path fill="none" stroke="#63b8ff" d="M318.79,-80.88C326.82,-80.88 334.9,-80.88 342.75,-80.88"/>
<polygon fill="#63b8ff" stroke="#63b8ff" points="319.01,-77.38 309.01,-80.88 319.01,-84.38 319.01,-77.38"/>
</a>
</g>
</g>
<!-- Node3 -->
<g id="Node000003" class="node">
<title>Node3</title>
<g id="a_Node000003"><a xlink:href="classllvm_1_1SmallVectorImpl.html" target="_top" xlink:title=" ">
<polygon fill="white" stroke="#666666" points="632.88,-101.75 520.88,-101.75 520.88,-60 632.88,-60 632.88,-101.75"/>
<text xml:space="preserve" text-anchor="start" x="528.88" y="-88.25" font-family="Helvetica,sans-Serif" font-size="10.00">llvm::SmallVectorImpl</text>
<text xml:space="preserve" text-anchor="start" x="528.88" y="-77" font-family="Helvetica,sans-Serif" font-size="10.00">&lt; llvm::SmallVector&lt;</text>
<text xml:space="preserve" text-anchor="middle" x="576.88" y="-65.75" font-family="Helvetica,sans-Serif" font-size="10.00"> size_t, 4 &gt; &gt;</text>
</a>
</g>
</g>
<!-- Node2&#45;&gt;Node3 -->
<g id="edge9120_Node000002_Node000003" class="edge">
<title>Node2&#45;&gt;Node3</title>
<g id="a_edge9120_Node000002_Node000003"><a xlink:title=" ">
<path fill="none" stroke="#63b8ff" d="M487.87,-80.88C498.87,-80.88 509.99,-80.88 520.47,-80.88"/>
<polygon fill="#63b8ff" stroke="#63b8ff" points="488,-77.38 478,-80.88 488,-84.38 488,-77.38"/>
</a>
</g>
</g>
<!-- Node4 -->
<g id="Node000004" class="node">
<title>Node4</title>
<g id="a_Node000004"><a xlink:href="classllvm_1_1SmallVector.html" target="_top" xlink:title=" ">
<polygon fill="white" stroke="#666666" points="779.75,-71.75 677.5,-71.75 677.5,-30 779.75,-30 779.75,-71.75"/>
<text xml:space="preserve" text-anchor="start" x="685.5" y="-58.25" font-family="Helvetica,sans-Serif" font-size="10.00">llvm::SmallVector&lt;</text>
<text xml:space="preserve" text-anchor="start" x="685.5" y="-47" font-family="Helvetica,sans-Serif" font-size="10.00"> llvm::SmallVector&lt;</text>
<text xml:space="preserve" text-anchor="middle" x="728.62" y="-35.75" font-family="Helvetica,sans-Serif" font-size="10.00"> size_t, 4 &gt;, 0 &gt;</text>
</a>
</g>
</g>
<!-- Node3&#45;&gt;Node4 -->
<g id="edge9121_Node000003_Node000004" class="edge">
<title>Node3&#45;&gt;Node4</title>
<g id="a_edge9121_Node000003_Node000004"><a xlink:title=" ">
<path fill="none" stroke="#63b8ff" d="M644.24,-67.58C655.4,-65.34 666.81,-63.06 677.47,-60.92"/>
<polygon fill="#63b8ff" stroke="#63b8ff" points="643.81,-64.1 634.69,-69.49 645.19,-70.96 643.81,-64.1"/>
</a>
</g>
</g>
<!-- Node5 -->
<g id="Node000005" class="node">
<title>Node5</title>
<g id="a_Node000005"><a xlink:href="structllvm_1_1SmallVectorStorage.html" target="_top" xlink:title=" ">
<polygon fill="white" stroke="#666666" points="641.5,-41.75 512.25,-41.75 512.25,0 641.5,0 641.5,-41.75"/>
<text xml:space="preserve" text-anchor="start" x="520.25" y="-28.25" font-family="Helvetica,sans-Serif" font-size="10.00">llvm::SmallVectorStorage</text>
<text xml:space="preserve" text-anchor="start" x="520.25" y="-17" font-family="Helvetica,sans-Serif" font-size="10.00">&lt; llvm::SmallVector&lt; size</text>
<text xml:space="preserve" text-anchor="middle" x="576.88" y="-5.75" font-family="Helvetica,sans-Serif" font-size="10.00">_t, 4 &gt;, N &gt;</text>
</a>
</g>
</g>
<!-- Node5&#45;&gt;Node4 -->
<g id="edge9122_Node000005_Node000004" class="edge">
<title>Node5&#45;&gt;Node4</title>
<g id="a_edge9122_Node000005_Node000004"><a xlink:title=" ">
<path fill="none" stroke="#8b1a1a" d="M652.92,-35.91C661.08,-37.54 669.25,-39.18 677.02,-40.74"/>
<polygon fill="#8b1a1a" stroke="#8b1a1a" points="653.79,-32.51 643.3,-33.98 652.42,-39.38 653.79,-32.51"/>
</a>
</g>
</g>
</g>
</svg>
