<?xml version="1.0" encoding="UTF-8" standalone="no"?>
<!DOCTYPE svg PUBLIC "-//W3C//DTD SVG 1.1//EN"
 "http://www.w3.org/Graphics/SVG/1.1/DTD/svg11.dtd">
<!-- Generated by graphviz version 14.1.3 (20260303.0454)
 -->
<!-- Title: Graphical Class Hierarchy Pages: 1 -->
<svg width="820pt" height="115pt"
 viewBox="0.00 0.00 820.00 115.00" xmlns="http://www.w3.org/2000/svg" xmlns:xlink="http://www.w3.org/1999/xlink">
<g id="graph0" class="graph" transform="scale(1 1) rotate(0) translate(4 111.38)">
<title>Graphical Class Hierarchy</title>
<!-- Node0 -->
<g id="Node000000" class="node">
<title>Node0</title>
<g id="a_Node000000"><a xlink:href="classllvm_1_1SmallVectorBase.html" target="_top" xlink:title=" ">
<polygon fill="white" stroke="#666666" points="125.5,-107.38 0,-107.38 0,-54.38 125.5,-54.38 125.5,-107.38"/>
<text xml:space="preserve" text-anchor="start" x="8" y="-93.88" font-family="Helvetica,sans-Serif" font-size="10.00">llvm::SmallVectorBase</text>
<text xml:space="preserve" text-anchor="start" x="8" y="-82.62" font-family="Helvetica,sans-Serif" font-size="10.00">&lt; SmallVectorSizeType</text>
<text xml:space="preserve" text-anchor="start" x="8" y="-71.38" font-family="Helvetica,sans-Serif" font-size="10.00">&lt; std::pair&lt; unsigned,</text>
<text xml:space="preserve" text-anchor="middle" x="62.75" y="-60.12" font-family="Helvetica,sans-Serif" font-size="10.00"> llvm::MCSymbol * &gt; &gt; &gt;</text>
</a>
</g>
</g>
<!-- Node1 -->
<g id="Node000001" class="node">
<title>Node1</title>
<g id="a_Node000001"><a xlink:href="classllvm_1_1SmallVectorTemplateCommon.html" target="_top" xlink:title=" ">
<polygon fill="white" stroke="#666666" points="312.5,-101.75 161.5,-101.75 161.5,-60 312.5,-60 312.5,-101.75"/>
<text xml:space="preserve" text-anchor="start" x="169.5" y="-88.25" font-family="Helvetica,sans-Serif" font-size="10.00">llvm::SmallVectorTemplate</text>
<text xml:space="preserve" text-anchor="start" x="169.5" y="-77" font-family="Helvetica,sans-Serif" font-size="10.00">Common&lt; std::pair&lt; unsigned,</text>
<text xml:space="preserve" text-anchor="middle" x="237" y="-65.75" font-family="Helvetica,sans-Serif" font-size="10.00"> llvm::MCSymbol * &gt; &gt;</text>
</a>
</g>
</g>
<!-- Node0&#45;&gt;Node1 -->
<g id="edge10076_Node000000_Node000001" class="edge">
<title>Node0&#45;&gt;Node1</title>
<g id="a_edge10076_Node000000_Node000001"><a xlink:title=" ">
<path fill="none" stroke="#63b8ff" d="M137.39,-80.88C145.3,-80.88 153.36,-80.88 161.28,-80.88"/>
<polygon fill="#63b8ff" stroke="#63b8ff" points="137.45,-77.38 127.45,-80.88 137.45,-84.38 137.45,-77.38"/>
</a>
</g>
</g>
<!-- Node2 -->
<g id="Node000002" class="node">
<title>Node2</title>
<g id="a_Node000002"><a xlink:href="classllvm_1_1SmallVectorTemplateBase.html" target="_top" xlink:title=" ">
<polygon fill="white" stroke="#666666" points="482.25,-101.75 348.5,-101.75 348.5,-60 482.25,-60 482.25,-101.75"/>
<text xml:space="preserve" text-anchor="start" x="356.5" y="-88.25" font-family="Helvetica,sans-Serif" font-size="10.00">llvm::SmallVectorTemplate</text>
<text xml:space="preserve" text-anchor="start" x="356.5" y="-77" font-family="Helvetica,sans-Serif" font-size="10.00">Base&lt; std::pair&lt; unsigned,</text>
<text xml:space="preserve" text-anchor="middle" x="415.38" y="-65.75" font-family="Helvetica,sans-Serif" font-size="10.00"> llvm::MCSymbol * &gt; &gt;</text>
</a>
</g>
</g>
<!-- Node1&#45;&gt;Node2 -->
<g id="edge10077_Node000001_Node000002" class="edge">
<title>Node1&#45;&gt;Node2</title>
<g id="a_edge10077_Node000001_Node000002"><a xlink:title=" ">
<path fill="none" stroke="#63b8ff" d="M324.15,-80.88C332.21,-80.88 340.29,-80.88 348.12,-80.88"/>
<polygon fill="#63b8ff" stroke="#63b8ff" points="324.31,-77.38 314.31,-80.88 324.31,-84.38 324.31,-77.38"/>
</a>
</g>
</g>
<!-- Node3 -->
<g id="Node000003" class="node">
<title>Node3</title>
<g id="a_Node000003"><a xlink:href="classllvm_1_1SmallVectorImpl.html" target="_top" xlink:title=" ">
<polygon fill="white" stroke="#666666" points="641.5,-101.75 525,-101.75 525,-60 641.5,-60 641.5,-101.75"/>
<text xml:space="preserve" text-anchor="start" x="533" y="-88.25" font-family="Helvetica,sans-Serif" font-size="10.00">llvm::SmallVectorImpl</text>
<text xml:space="preserve" text-anchor="start" x="533" y="-77" font-family="Helvetica,sans-Serif" font-size="10.00">&lt; std::pair&lt; unsigned,</text>
<text xml:space="preserve" text-anchor="middle" x="583.25" y="-65.75" font-family="Helvetica,sans-Serif" font-size="10.00"> llvm::MCSymbol * &gt; &gt;</text>
</a>
</g>
</g>
<!-- Node2&#45;&gt;Node3 -->
<g id="edge10078_Node000002_Node000003" class="edge">
<title>Node2&#45;&gt;Node3</title>
<g id="a_edge10078_Node000002_Node000003"><a xlink:title=" ">
<path fill="none" stroke="#63b8ff" d="M493.68,-80.88C504.14,-80.88 514.72,-80.88 524.75,-80.88"/>
<polygon fill="#63b8ff" stroke="#63b8ff" points="493.92,-77.38 483.92,-80.88 493.92,-84.38 493.92,-77.38"/>
</a>
</g>
</g>
<!-- Node4 -->
<g id="Node000004" class="node">
<title>Node4</title>
<g id="a_Node000004"><a xlink:href="classllvm_1_1SmallVector.html" target="_top" xlink:title=" ">
<polygon fill="white" stroke="#666666" points="812,-101.75 684.25,-101.75 684.25,-60 812,-60 812,-101.75"/>
<text xml:space="preserve" text-anchor="start" x="692.25" y="-88.25" font-family="Helvetica,sans-Serif" font-size="10.00">llvm::SmallVector&lt;</text>
<text xml:space="preserve" text-anchor="start" x="692.25" y="-77" font-family="Helvetica,sans-Serif" font-size="10.00"> std::pair&lt; unsigned,</text>
<text xml:space="preserve" text-anchor="middle" x="748.12" y="-65.75" font-family="Helvetica,sans-Serif" font-size="10.00"> llvm::MCSymbol * &gt;, 2 &gt;</text>
</a>
</g>
</g>
<!-- Node3&#45;&gt;Node4 -->
<g id="edge10079_Node000003_Node000004" class="edge">
<title>Node3&#45;&gt;Node4</title>
<g id="a_edge10079_Node000003_Node000004"><a xlink:title=" ">
<path fill="none" stroke="#63b8ff" d="M653.05,-80.88C663.27,-80.88 673.75,-80.88 683.85,-80.88"/>
<polygon fill="#63b8ff" stroke="#63b8ff" points="653.19,-77.38 643.19,-80.88 653.19,-84.38 653.19,-77.38"/>
</a>
</g>
</g>
<!-- Node6 -->
<g id="Node000006" class="node">
<title>Node6</title>
<g id="a_Node000006"><a xlink:href="classllvm_1_1SmallVector.html" target="_top" xlink:title=" ">
<polygon fill="white" stroke="#666666" points="812,-41.75 684.25,-41.75 684.25,0 812,0 812,-41.75"/>
<text xml:space="preserve" text-anchor="start" x="692.25" y="-28.25" font-family="Helvetica,sans-Serif" font-size="10.00">llvm::SmallVector&lt;</text>
<text xml:space="preserve" text-anchor="start" x="692.25" y="-17" font-family="Helvetica,sans-Serif" font-size="10.00"> std::pair&lt; unsigned,</text>
<text xml:space="preserve" text-anchor="middle" x="748.12" y="-5.75" font-family="Helvetica,sans-Serif" font-size="10.00"> llvm::MCSymbol * &gt;, 4 &gt;</text>
</a>
</g>
</g>
<!-- Node3&#45;&gt;Node6 -->
<g id="edge10080_Node000003_Node000006" class="edge">
<title>Node3&#45;&gt;Node6</title>
<g id="a_edge10080_Node000003_Node000006"><a xlink:title=" ">
<path fill="none" stroke="#63b8ff" d="M652.3,-55.81C664.54,-51.3 677.2,-46.64 689.12,-42.24"/>
<polygon fill="#63b8ff" stroke="#63b8ff" points="651.27,-52.46 643.09,-59.2 653.69,-59.03 651.27,-52.46"/>
</a>
</g>
</g>
<!-- Node5 -->
<g id="Node000005" class="node">
<title>Node5</title>
<g id="a_Node000005"><a xlink:href="structllvm_1_1SmallVectorStorage.html" target="_top" xlink:title=" ">
<polygon fill="white" stroke="#666666" points="648.25,-41.75 518.25,-41.75 518.25,0 648.25,0 648.25,-41.75"/>
<text xml:space="preserve" text-anchor="start" x="526.25" y="-28.25" font-family="Helvetica,sans-Serif" font-size="10.00">llvm::SmallVectorStorage</text>
<text xml:space="preserve" text-anchor="start" x="526.25" y="-17" font-family="Helvetica,sans-Serif" font-size="10.00">&lt; std::pair&lt; unsigned,</text>
<text xml:space="preserve" text-anchor="middle" x="583.25" y="-5.75" font-family="Helvetica,sans-Serif" font-size="10.00"> llvm::MCSymbol * &gt;, N &gt;</text>
</a>
</g>
</g>
<!-- Node5&#45;&gt;Node4 -->
<g id="edge10081_Node000005_Node000004" class="edge">
<title>Node5&#45;&gt;Node4</title>
<g id="a_edge10081_Node000005_Node000004"><a xlink:title=" ">
<path fill="none" stroke="#8b1a1a" d="M652.67,-46.08C664.81,-50.55 677.34,-55.17 689.15,-59.52"/>
<polygon fill="#8b1a1a" stroke="#8b1a1a" points="654.15,-42.89 643.55,-42.72 651.73,-49.46 654.15,-42.89"/>
</a>
</g>
</g>
<!-- Node5&#45;&gt;Node6 -->
<g id="edge10082_Node000005_Node000006" class="edge">
<title>Node5&#45;&gt;Node6</title>
<g id="a_edge10082_Node000005_Node000006"><a xlink:title=" ">
<path fill="none" stroke="#8b1a1a" d="M660.12,-20.88C668.03,-20.88 676.01,-20.88 683.75,-20.88"/>
<polygon fill="#8b1a1a" stroke="#8b1a1a" points="660.14,-17.38 650.14,-20.88 660.14,-24.38 660.14,-17.38"/>
</a>
</g>
</g>
</g>
</svg>
