<?xml version="1.0" encoding="UTF-8" standalone="no"?>
<!DOCTYPE svg PUBLIC "-//W3C//DTD SVG 1.1//EN"
 "http://www.w3.org/Graphics/SVG/1.1/DTD/svg11.dtd">
<!-- Generated by graphviz version 14.1.3 (20260303.0454)
 -->
<!-- Title: Graphical Class Hierarchy Pages: 1 -->
<svg width="843pt" height="93pt"
 viewBox="0.00 0.00 843.00 93.00" xmlns="http://www.w3.org/2000/svg" xmlns:xlink="http://www.w3.org/1999/xlink">
<g id="graph0" class="graph" transform="scale(1 1) rotate(0) translate(4 89.12)">
<title>Graphical Class Hierarchy</title>
<!-- Node0 -->
<g id="Node000000" class="node">
<title>Node0</title>
<g id="a_Node000000"><a xlink:href="classllvm_1_1SmallVectorBase.html" target="_top" xlink:title=" ">
<polygon fill="white" stroke="#666666" points="129.25,-85.12 0,-85.12 0,-43.38 129.25,-43.38 129.25,-85.12"/>
<text xml:space="preserve" text-anchor="start" x="8" y="-71.62" font-family="Helvetica,sans-Serif" font-size="10.00">llvm::SmallVectorBase</text>
<text xml:space="preserve" text-anchor="start" x="8" y="-60.38" font-family="Helvetica,sans-Serif" font-size="10.00">&lt; SmallVectorSizeType</text>
<text xml:space="preserve" text-anchor="middle" x="64.62" y="-49.12" font-family="Helvetica,sans-Serif" font-size="10.00">&lt; GCNSchedStageID &gt; &gt;</text>
</a>
</g>
</g>
<!-- Node1 -->
<g id="Node000001" class="node">
<title>Node1</title>
<g id="a_Node000001"><a xlink:href="classllvm_1_1SmallVectorTemplateCommon.html" target="_top" xlink:title=" ">
<polygon fill="white" stroke="#666666" points="325.25,-79.5 165.25,-79.5 165.25,-49 325.25,-49 325.25,-79.5"/>
<text xml:space="preserve" text-anchor="start" x="173.25" y="-66" font-family="Helvetica,sans-Serif" font-size="10.00">llvm::SmallVectorTemplate</text>
<text xml:space="preserve" text-anchor="middle" x="245.25" y="-54.75" font-family="Helvetica,sans-Serif" font-size="10.00">Common&lt; GCNSchedStageID &gt;</text>
</a>
</g>
</g>
<!-- Node0&#45;&gt;Node1 -->
<g id="edge8124_Node000000_Node000001" class="edge">
<title>Node0&#45;&gt;Node1</title>
<g id="a_edge8124_Node000000_Node000001"><a xlink:title=" ">
<path fill="none" stroke="#63b8ff" d="M141.01,-64.25C148.88,-64.25 156.9,-64.25 164.82,-64.25"/>
<polygon fill="#63b8ff" stroke="#63b8ff" points="141.12,-60.75 131.12,-64.25 141.12,-67.75 141.12,-60.75"/>
</a>
</g>
</g>
<!-- Node2 -->
<g id="Node000002" class="node">
<title>Node2</title>
<g id="a_Node000002"><a xlink:href="classllvm_1_1SmallVectorTemplateBase.html" target="_top" xlink:title=" ">
<polygon fill="white" stroke="#666666" points="504,-79.5 361.25,-79.5 361.25,-49 504,-49 504,-79.5"/>
<text xml:space="preserve" text-anchor="start" x="369.25" y="-66" font-family="Helvetica,sans-Serif" font-size="10.00">llvm::SmallVectorTemplate</text>
<text xml:space="preserve" text-anchor="middle" x="432.62" y="-54.75" font-family="Helvetica,sans-Serif" font-size="10.00">Base&lt; GCNSchedStageID &gt;</text>
</a>
</g>
</g>
<!-- Node1&#45;&gt;Node2 -->
<g id="edge8125_Node000001_Node000002" class="edge">
<title>Node1&#45;&gt;Node2</title>
<g id="a_edge8125_Node000001_Node000002"><a xlink:title=" ">
<path fill="none" stroke="#63b8ff" d="M336.97,-64.25C344.99,-64.25 353.03,-64.25 360.85,-64.25"/>
<polygon fill="#63b8ff" stroke="#63b8ff" points="337.19,-60.75 327.19,-64.25 337.19,-67.75 337.19,-60.75"/>
</a>
</g>
</g>
<!-- Node3 -->
<g id="Node000003" class="node">
<title>Node3</title>
<g id="a_Node000003"><a xlink:href="classllvm_1_1SmallVectorImpl.html" target="_top" xlink:title=" ">
<polygon fill="white" stroke="#666666" points="667,-79.5 546.75,-79.5 546.75,-49 667,-49 667,-79.5"/>
<text xml:space="preserve" text-anchor="start" x="554.75" y="-66" font-family="Helvetica,sans-Serif" font-size="10.00">llvm::SmallVectorImpl</text>
<text xml:space="preserve" text-anchor="middle" x="606.88" y="-54.75" font-family="Helvetica,sans-Serif" font-size="10.00">&lt; GCNSchedStageID &gt;</text>
</a>
</g>
</g>
<!-- Node2&#45;&gt;Node3 -->
<g id="edge8126_Node000002_Node000003" class="edge">
<title>Node2&#45;&gt;Node3</title>
<g id="a_edge8126_Node000002_Node000003"><a xlink:title=" ">
<path fill="none" stroke="#63b8ff" d="M515.45,-64.25C525.9,-64.25 536.43,-64.25 546.42,-64.25"/>
<polygon fill="#63b8ff" stroke="#63b8ff" points="515.7,-60.75 505.7,-64.25 515.7,-67.75 515.7,-60.75"/>
</a>
</g>
</g>
<!-- Node4 -->
<g id="Node000004" class="node">
<title>Node4</title>
<g id="a_Node000004"><a xlink:href="classllvm_1_1SmallVector.html" target="_top" xlink:title=" ">
<polygon fill="white" stroke="#666666" points="835.25,-54.5 709.75,-54.5 709.75,-24 835.25,-24 835.25,-54.5"/>
<text xml:space="preserve" text-anchor="start" x="717.75" y="-41" font-family="Helvetica,sans-Serif" font-size="10.00">llvm::SmallVector&lt;</text>
<text xml:space="preserve" text-anchor="middle" x="772.5" y="-29.75" font-family="Helvetica,sans-Serif" font-size="10.00"> GCNSchedStageID, 4 &gt;</text>
</a>
</g>
</g>
<!-- Node3&#45;&gt;Node4 -->
<g id="edge8127_Node000003_Node000004" class="edge">
<title>Node3&#45;&gt;Node4</title>
<g id="a_edge8127_Node000003_Node000004"><a xlink:title=" ">
<path fill="none" stroke="#63b8ff" d="M678.74,-53.42C688.9,-51.87 699.28,-50.28 709.26,-48.76"/>
<polygon fill="#63b8ff" stroke="#63b8ff" points="678.26,-49.95 668.91,-54.93 679.32,-56.87 678.26,-49.95"/>
</a>
</g>
</g>
<!-- Node5 -->
<g id="Node000005" class="node">
<title>Node5</title>
<g id="a_Node000005"><a xlink:href="structllvm_1_1SmallVectorStorage.html" target="_top" xlink:title=" ">
<polygon fill="white" stroke="#666666" points="673.75,-30.5 540,-30.5 540,0 673.75,0 673.75,-30.5"/>
<text xml:space="preserve" text-anchor="start" x="548" y="-17" font-family="Helvetica,sans-Serif" font-size="10.00">llvm::SmallVectorStorage</text>
<text xml:space="preserve" text-anchor="middle" x="606.88" y="-5.75" font-family="Helvetica,sans-Serif" font-size="10.00">&lt; GCNSchedStageID, N &gt;</text>
</a>
</g>
</g>
<!-- Node5&#45;&gt;Node4 -->
<g id="edge8128_Node000005_Node000004" class="edge">
<title>Node5&#45;&gt;Node4</title>
<g id="a_edge8128_Node000005_Node000004"><a xlink:title=" ">
<path fill="none" stroke="#8b1a1a" d="M685.31,-26.61C693.39,-27.79 701.53,-28.99 709.41,-30.14"/>
<polygon fill="#8b1a1a" stroke="#8b1a1a" points="685.86,-23.15 675.45,-25.16 684.84,-30.08 685.86,-23.15"/>
</a>
</g>
</g>
</g>
</svg>
