<?xml version="1.0" encoding="UTF-8" standalone="no"?>
<!DOCTYPE svg PUBLIC "-//W3C//DTD SVG 1.1//EN"
 "http://www.w3.org/Graphics/SVG/1.1/DTD/svg11.dtd">
<!-- Generated by graphviz version 14.1.3 (20260303.0454)
 -->
<!-- Title: Graphical Class Hierarchy Pages: 1 -->
<svg width="386pt" height="137pt"
 viewBox="0.00 0.00 386.00 137.00" xmlns="http://www.w3.org/2000/svg" xmlns:xlink="http://www.w3.org/1999/xlink">
<g id="graph0" class="graph" transform="scale(1 1) rotate(0) translate(4 132.5)">
<title>Graphical Class Hierarchy</title>
<!-- Node0 -->
<g id="Node000000" class="node">
<title>Node0</title>
<g id="a_Node000000"><a xlink:href="structllvm_1_1ilist__alloc__traits.html" target="_top" xlink:title="Use delete by default for iplist and ilist.">
<polygon fill="white" stroke="#666666" points="107.5,-104.5 0,-104.5 0,-74 107.5,-74 107.5,-104.5"/>
<text xml:space="preserve" text-anchor="start" x="8" y="-91" font-family="Helvetica,sans-Serif" font-size="10.00">llvm::ilist_alloc_traits</text>
<text xml:space="preserve" text-anchor="middle" x="53.75" y="-79.75" font-family="Helvetica,sans-Serif" font-size="10.00">&lt; NodeTy &gt;</text>
</a>
</g>
</g>
<!-- Node1 -->
<g id="Node000001" class="node">
<title>Node1</title>
<g id="a_Node000001"><a xlink:href="structllvm_1_1ilist__node__traits.html" target="_top" xlink:title="A fragment for template traits for intrusive list that provides default node related operations.">
<polygon fill="white" stroke="#666666" points="251.75,-79.5 143.5,-79.5 143.5,-49 251.75,-49 251.75,-79.5"/>
<text xml:space="preserve" text-anchor="start" x="151.5" y="-66" font-family="Helvetica,sans-Serif" font-size="10.00">llvm::ilist_node_traits</text>
<text xml:space="preserve" text-anchor="middle" x="197.62" y="-54.75" font-family="Helvetica,sans-Serif" font-size="10.00">&lt; NodeTy &gt;</text>
</a>
</g>
</g>
<!-- Node0&#45;&gt;Node1 -->
<g id="edge3617_Node000000_Node000001" class="edge">
<title>Node0&#45;&gt;Node1</title>
<g id="a_edge3617_Node000000_Node000001"><a xlink:title=" ">
<path fill="none" stroke="#63b8ff" d="M119.17,-77.9C127.17,-76.49 135.28,-75.06 143.09,-73.68"/>
<polygon fill="#63b8ff" stroke="#63b8ff" points="118.71,-74.42 109.47,-79.61 119.93,-81.32 118.71,-74.42"/>
</a>
</g>
</g>
<!-- Node2 -->
<g id="Node000002" class="node">
<title>Node2</title>
<g id="a_Node000002"><a xlink:href="structllvm_1_1ilist__traits_3_01MachineInstr_01_4.html" target="_top" xlink:title=" ">
<polygon fill="white" stroke="#666666" points="378,-128.5 287.75,-128.5 287.75,-98 378,-98 378,-128.5"/>
<text xml:space="preserve" text-anchor="start" x="295.75" y="-115" font-family="Helvetica,sans-Serif" font-size="10.00">llvm::ilist_traits</text>
<text xml:space="preserve" text-anchor="middle" x="332.88" y="-103.75" font-family="Helvetica,sans-Serif" font-size="10.00">&lt; MachineInstr &gt;</text>
</a>
</g>
</g>
<!-- Node1&#45;&gt;Node2 -->
<g id="edge3618_Node000001_Node000002" class="edge">
<title>Node1&#45;&gt;Node2</title>
<g id="a_edge3618_Node000001_Node000002"><a xlink:title=" ">
<path fill="none" stroke="#63b8ff" d="M251.87,-83.83C264.31,-88.4 277.39,-93.21 289.29,-97.59"/>
<polygon fill="#63b8ff" stroke="#63b8ff" points="253.17,-80.58 242.57,-80.41 250.75,-87.15 253.17,-80.58"/>
</a>
</g>
</g>
<!-- Node3 -->
<g id="Node000003" class="node">
<title>Node3</title>
<g id="a_Node000003"><a xlink:href="structllvm_1_1ilist__traits_3_01const_01Ty_01_4.html" target="_top" xlink:title="Const traits should never be instantiated.">
<polygon fill="white" stroke="#666666" points="373.88,-79.5 291.88,-79.5 291.88,-49 373.88,-49 373.88,-79.5"/>
<text xml:space="preserve" text-anchor="start" x="299.88" y="-66" font-family="Helvetica,sans-Serif" font-size="10.00">llvm::ilist_traits</text>
<text xml:space="preserve" text-anchor="middle" x="332.88" y="-54.75" font-family="Helvetica,sans-Serif" font-size="10.00">&lt; const Ty &gt;</text>
</a>
</g>
</g>
<!-- Node1&#45;&gt;Node3 -->
<g id="edge3619_Node000001_Node000003" class="edge">
<title>Node1&#45;&gt;Node3</title>
<g id="a_edge3619_Node000001_Node000003"><a xlink:title=" ">
<path fill="none" stroke="#63b8ff" d="M263.3,-64.25C272.93,-64.25 282.63,-64.25 291.57,-64.25"/>
<polygon fill="#63b8ff" stroke="#63b8ff" points="263.57,-60.75 253.57,-64.25 263.57,-67.75 263.57,-60.75"/>
</a>
</g>
</g>
<!-- Node4 -->
<g id="Node000004" class="node">
<title>Node4</title>
<g id="a_Node000004"><a xlink:href="structllvm_1_1ilist__traits.html" target="_top" xlink:title="Template traits for intrusive list.">
<polygon fill="white" stroke="#666666" points="373.88,-30.5 291.88,-30.5 291.88,0 373.88,0 373.88,-30.5"/>
<text xml:space="preserve" text-anchor="start" x="299.88" y="-17" font-family="Helvetica,sans-Serif" font-size="10.00">llvm::ilist_traits</text>
<text xml:space="preserve" text-anchor="middle" x="332.88" y="-5.75" font-family="Helvetica,sans-Serif" font-size="10.00">&lt; NodeTy &gt;</text>
</a>
</g>
</g>
<!-- Node1&#45;&gt;Node4 -->
<g id="edge3620_Node000001_Node000004" class="edge">
<title>Node1&#45;&gt;Node4</title>
<g id="a_edge3620_Node000001_Node000004"><a xlink:title=" ">
<path fill="none" stroke="#63b8ff" d="M251.62,-44.76C264.93,-39.87 278.99,-34.7 291.57,-30.07"/>
<polygon fill="#63b8ff" stroke="#63b8ff" points="250.75,-41.35 242.57,-48.09 253.17,-47.92 250.75,-41.35"/>
</a>
</g>
</g>
<!-- Node5 -->
<g id="Node000005" class="node">
<title>Node5</title>
<g id="a_Node000005"><a xlink:href="structllvm_1_1ilist__callback__traits.html" target="_top" xlink:title="Callbacks do nothing by default in iplist and ilist.">
<polygon fill="white" stroke="#666666" points="101.88,-55.5 5.62,-55.5 5.62,-25 101.88,-25 101.88,-55.5"/>
<text xml:space="preserve" text-anchor="start" x="13.62" y="-42" font-family="Helvetica,sans-Serif" font-size="10.00">llvm::ilist_callback</text>
<text xml:space="preserve" text-anchor="middle" x="53.75" y="-30.75" font-family="Helvetica,sans-Serif" font-size="10.00">_traits&lt; NodeTy &gt;</text>
</a>
</g>
</g>
<!-- Node5&#45;&gt;Node1 -->
<g id="edge3621_Node000005_Node000001" class="edge">
<title>Node5&#45;&gt;Node1</title>
<g id="a_edge3621_Node000005_Node000001"><a xlink:title=" ">
<path fill="none" stroke="#63b8ff" d="M113.07,-50.12C123.05,-51.8 133.38,-53.55 143.22,-55.22"/>
<polygon fill="#63b8ff" stroke="#63b8ff" points="113.93,-46.71 103.48,-48.49 112.76,-53.61 113.93,-46.71"/>
</a>
</g>
</g>
</g>
</svg>
