<?xml version="1.0" encoding="UTF-8" standalone="no"?>
<!DOCTYPE svg PUBLIC "-//W3C//DTD SVG 1.1//EN"
 "http://www.w3.org/Graphics/SVG/1.1/DTD/svg11.dtd">
<!-- Generated by graphviz version 14.1.3 (20260303.0454)
 -->
<!-- Title: Graphical Class Hierarchy Pages: 1 -->
<svg width="544pt" height="39pt"
 viewBox="0.00 0.00 544.00 39.00" xmlns="http://www.w3.org/2000/svg" xmlns:xlink="http://www.w3.org/1999/xlink">
<g id="graph0" class="graph" transform="scale(1 1) rotate(0) translate(4 34.5)">
<title>Graphical Class Hierarchy</title>
<!-- Node0 -->
<g id="Node000000" class="node">
<title>Node0</title>
<g id="a_Node000000"><a xlink:href="structllvm_1_1PassInfoMixin.html" target="_top" xlink:title=" ">
<polygon fill="white" stroke="#666666" points="165.25,-30.5 0,-30.5 0,0 165.25,0 165.25,-30.5"/>
<text xml:space="preserve" text-anchor="start" x="8" y="-17" font-family="Helvetica,sans-Serif" font-size="10.00">llvm::PassInfoMixin</text>
<text xml:space="preserve" text-anchor="middle" x="82.62" y="-5.75" font-family="Helvetica,sans-Serif" font-size="10.00">&lt; MachineTraceMetricsAnalysis &gt;</text>
</a>
</g>
</g>
<!-- Node1 -->
<g id="Node000001" class="node">
<title>Node1</title>
<g id="a_Node000001"><a xlink:href="structllvm_1_1AnalysisInfoMixin.html" target="_top" xlink:title=" ">
<polygon fill="white" stroke="#666666" points="366.5,-30.5 201.25,-30.5 201.25,0 366.5,0 366.5,-30.5"/>
<text xml:space="preserve" text-anchor="start" x="209.25" y="-17" font-family="Helvetica,sans-Serif" font-size="10.00">llvm::AnalysisInfoMixin</text>
<text xml:space="preserve" text-anchor="middle" x="283.88" y="-5.75" font-family="Helvetica,sans-Serif" font-size="10.00">&lt; MachineTraceMetricsAnalysis &gt;</text>
</a>
</g>
</g>
<!-- Node0&#45;&gt;Node1 -->
<g id="edge5573_Node000000_Node000001" class="edge">
<title>Node0&#45;&gt;Node1</title>
<g id="a_edge5573_Node000000_Node000001"><a xlink:title=" ">
<path fill="none" stroke="#63b8ff" d="M176.85,-15.25C184.91,-15.25 193.01,-15.25 200.97,-15.25"/>
<polygon fill="#63b8ff" stroke="#63b8ff" points="177.04,-11.75 167.04,-15.25 177.04,-18.75 177.04,-11.75"/>
</a>
</g>
</g>
<!-- Node2 -->
<g id="Node000002" class="node">
<title>Node2</title>
<g id="a_Node000002"><a xlink:href="classllvm_1_1MachineTraceMetricsAnalysis.html" target="_top" xlink:title=" ">
<polygon fill="white" stroke="#666666" points="536.25,-30.5 402.5,-30.5 402.5,0 536.25,0 536.25,-30.5"/>
<text xml:space="preserve" text-anchor="start" x="410.5" y="-17" font-family="Helvetica,sans-Serif" font-size="10.00">llvm::MachineTraceMetrics</text>
<text xml:space="preserve" text-anchor="middle" x="469.38" y="-5.75" font-family="Helvetica,sans-Serif" font-size="10.00">Analysis</text>
</a>
</g>
</g>
<!-- Node1&#45;&gt;Node2 -->
<g id="edge5574_Node000001_Node000002" class="edge">
<title>Node1&#45;&gt;Node2</title>
<g id="a_edge5574_Node000001_Node000002"><a xlink:title=" ">
<path fill="none" stroke="#63b8ff" d="M378.28,-15.25C386.3,-15.25 394.3,-15.25 402.04,-15.25"/>
<polygon fill="#63b8ff" stroke="#63b8ff" points="378.48,-11.75 368.48,-15.25 378.48,-18.75 378.48,-11.75"/>
</a>
</g>
</g>
</g>
</svg>
