<?xml version="1.0" encoding="UTF-8" standalone="no"?>
<!DOCTYPE svg PUBLIC "-//W3C//DTD SVG 1.1//EN"
 "http://www.w3.org/Graphics/SVG/1.1/DTD/svg11.dtd">
<!-- Generated by graphviz version 14.1.3 (20260303.0454)
 -->
<!-- Title: Graphical Class Hierarchy Pages: 1 -->
<svg width="217pt" height="64pt"
 viewBox="0.00 0.00 217.00 64.00" xmlns="http://www.w3.org/2000/svg" xmlns:xlink="http://www.w3.org/1999/xlink">
<g id="graph0" class="graph" transform="scale(1 1) rotate(0) translate(4 60.25)">
<title>Graphical Class Hierarchy</title>
<!-- Node0 -->
<g id="Node000000" class="node">
<title>Node0</title>
<g id="a_Node000000"><a xlink:title=" ">
<polygon fill="#e0e0e0" stroke="#999999" points="69.25,-37.25 0,-37.25 0,-18 69.25,-18 69.25,-37.25"/>
<text xml:space="preserve" text-anchor="middle" x="34.62" y="-23.75" font-family="Helvetica,sans-Serif" font-size="10.00">std::optional</text>
</a>
</g>
</g>
<!-- Node1 -->
<g id="Node000001" class="node">
<title>Node1</title>
<g id="a_Node000001"><a xlink:href="classllvm_1_1FailureOr.html" target="_top" xlink:title="This class provides support for representing a failure result, or a valid value of type T.">
<polygon fill="white" stroke="#666666" points="209,-56.25 105.25,-56.25 105.25,-37 209,-37 209,-56.25"/>
<text xml:space="preserve" text-anchor="middle" x="157.12" y="-42.75" font-family="Helvetica,sans-Serif" font-size="10.00">llvm::FailureOr&lt; T &gt;</text>
</a>
</g>
</g>
<!-- Node0&#45;&gt;Node1 -->
<g id="edge10966_Node000000_Node000001" class="edge">
<title>Node0&#45;&gt;Node1</title>
<g id="a_edge10966_Node000000_Node000001"><a xlink:title=" ">
<path fill="none" stroke="#63b8ff" d="M80.74,-34.74C88.63,-35.98 96.9,-37.29 104.94,-38.55"/>
<polygon fill="#63b8ff" stroke="#63b8ff" points="81.43,-31.3 71.01,-33.2 80.34,-38.22 81.43,-31.3"/>
</a>
</g>
</g>
<!-- Node2 -->
<g id="Node000002" class="node">
<title>Node2</title>
<g id="a_Node000002"><a xlink:href="structllvm_1_1MaybeAlign.html" target="_top" xlink:title="This struct is a compact representation of a valid (power of two) or undefined (0) alignment.">
<polygon fill="white" stroke="#666666" points="202.62,-19.25 111.62,-19.25 111.62,0 202.62,0 202.62,-19.25"/>
<text xml:space="preserve" text-anchor="middle" x="157.12" y="-5.75" font-family="Helvetica,sans-Serif" font-size="10.00">llvm::MaybeAlign</text>
</a>
</g>
</g>
<!-- Node0&#45;&gt;Node2 -->
<g id="edge10967_Node000000_Node000002" class="edge">
<title>Node0&#45;&gt;Node2</title>
<g id="a_edge10967_Node000000_Node000002"><a xlink:title=" ">
<path fill="none" stroke="#63b8ff" d="M80.85,-20.87C90.79,-19.38 101.32,-17.81 111.25,-16.33"/>
<polygon fill="#63b8ff" stroke="#63b8ff" points="80.38,-17.4 71.01,-22.34 81.42,-24.32 80.38,-17.4"/>
</a>
</g>
</g>
</g>
</svg>
