<?xml version="1.0" encoding="UTF-8" standalone="no"?>
<!DOCTYPE svg PUBLIC "-//W3C//DTD SVG 1.1//EN"
 "http://www.w3.org/Graphics/SVG/1.1/DTD/svg11.dtd">
<!-- Generated by graphviz version 14.1.3 (20260303.0454)
 -->
<!-- Title: Graphical Class Hierarchy Pages: 1 -->
<svg width="763pt" height="137pt"
 viewBox="0.00 0.00 763.00 137.00" xmlns="http://www.w3.org/2000/svg" xmlns:xlink="http://www.w3.org/1999/xlink">
<g id="graph0" class="graph" transform="scale(1 1) rotate(0) translate(4 132.5)">
<title>Graphical Class Hierarchy</title>
<!-- Node0 -->
<g id="Node000000" class="node">
<title>Node0</title>
<g id="a_Node000000"><a xlink:href="classllvm_1_1SmallVectorBase.html" target="_top" xlink:title=" ">
<polygon fill="white" stroke="#666666" points="118.75,-109.12 0,-109.12 0,-67.38 118.75,-67.38 118.75,-109.12"/>
<text xml:space="preserve" text-anchor="start" x="8" y="-95.62" font-family="Helvetica,sans-Serif" font-size="10.00">llvm::SmallVectorBase</text>
<text xml:space="preserve" text-anchor="start" x="8" y="-84.38" font-family="Helvetica,sans-Serif" font-size="10.00">&lt; SmallVectorSizeType</text>
<text xml:space="preserve" text-anchor="middle" x="59.38" y="-73.12" font-family="Helvetica,sans-Serif" font-size="10.00">&lt; IdxMBBPair &gt; &gt;</text>
</a>
</g>
</g>
<!-- Node1 -->
<g id="Node000001" class="node">
<title>Node1</title>
<g id="a_Node000001"><a xlink:href="classllvm_1_1SmallVectorTemplateCommon.html" target="_top" xlink:title=" ">
<polygon fill="white" stroke="#666666" points="287.75,-103.5 154.75,-103.5 154.75,-73 287.75,-73 287.75,-103.5"/>
<text xml:space="preserve" text-anchor="start" x="162.75" y="-90" font-family="Helvetica,sans-Serif" font-size="10.00">llvm::SmallVectorTemplate</text>
<text xml:space="preserve" text-anchor="middle" x="221.25" y="-78.75" font-family="Helvetica,sans-Serif" font-size="10.00">Common&lt; IdxMBBPair &gt;</text>
</a>
</g>
</g>
<!-- Node0&#45;&gt;Node1 -->
<g id="edge8134_Node000000_Node000001" class="edge">
<title>Node0&#45;&gt;Node1</title>
<g id="a_edge8134_Node000000_Node000001"><a xlink:title=" ">
<path fill="none" stroke="#63b8ff" d="M130.48,-88.25C138.41,-88.25 146.47,-88.25 154.34,-88.25"/>
<polygon fill="#63b8ff" stroke="#63b8ff" points="130.51,-84.75 120.51,-88.25 130.51,-91.75 130.51,-84.75"/>
</a>
</g>
</g>
<!-- Node2 -->
<g id="Node000002" class="node">
<title>Node2</title>
<g id="a_Node000002"><a xlink:href="classllvm_1_1SmallVectorTemplateBase.html" target="_top" xlink:title=" ">
<polygon fill="white" stroke="#666666" points="456.75,-103.5 323.75,-103.5 323.75,-73 456.75,-73 456.75,-103.5"/>
<text xml:space="preserve" text-anchor="start" x="331.75" y="-90" font-family="Helvetica,sans-Serif" font-size="10.00">llvm::SmallVectorTemplate</text>
<text xml:space="preserve" text-anchor="middle" x="390.25" y="-78.75" font-family="Helvetica,sans-Serif" font-size="10.00">Base&lt; IdxMBBPair &gt;</text>
</a>
</g>
</g>
<!-- Node1&#45;&gt;Node2 -->
<g id="edge8135_Node000001_Node000002" class="edge">
<title>Node1&#45;&gt;Node2</title>
<g id="a_edge8135_Node000001_Node000002"><a xlink:title=" ">
<path fill="none" stroke="#63b8ff" d="M299.13,-88.25C307.23,-88.25 315.41,-88.25 323.37,-88.25"/>
<polygon fill="#63b8ff" stroke="#63b8ff" points="299.29,-84.75 289.29,-88.25 299.29,-91.75 299.29,-84.75"/>
</a>
</g>
</g>
<!-- Node3 -->
<g id="Node000003" class="node">
<title>Node3</title>
<g id="a_Node000003"><a xlink:href="classllvm_1_1SmallVectorImpl.html" target="_top" xlink:title=" ">
<polygon fill="white" stroke="#666666" points="605.88,-128.5 506.62,-128.5 506.62,-98 605.88,-98 605.88,-128.5"/>
<text xml:space="preserve" text-anchor="start" x="514.62" y="-115" font-family="Helvetica,sans-Serif" font-size="10.00">llvm::const_iterator</text>
<text xml:space="preserve" text-anchor="middle" x="556.25" y="-103.75" font-family="Helvetica,sans-Serif" font-size="10.00">&lt; IdxMBBPair &gt;</text>
</a>
</g>
</g>
<!-- Node2&#45;&gt;Node3 -->
<g id="edge8136_Node000002_Node000003" class="edge">
<title>Node2&#45;&gt;Node3</title>
<g id="a_edge8136_Node000002_Node000003"><a xlink:title=" ">
<path fill="none" stroke="#63b8ff" d="M468.26,-99.99C481.15,-101.95 494.2,-103.94 506.14,-105.76"/>
<polygon fill="#63b8ff" stroke="#63b8ff" points="468.92,-96.55 458.51,-98.5 467.86,-103.47 468.92,-96.55"/>
</a>
</g>
</g>
<!-- Node4 -->
<g id="Node000004" class="node">
<title>Node4</title>
<g id="a_Node000004"><a xlink:href="classllvm_1_1SmallVectorImpl.html" target="_top" xlink:title=" ">
<polygon fill="white" stroke="#666666" points="612.25,-79.5 500.25,-79.5 500.25,-49 612.25,-49 612.25,-79.5"/>
<text xml:space="preserve" text-anchor="start" x="508.25" y="-66" font-family="Helvetica,sans-Serif" font-size="10.00">llvm::SmallVectorImpl</text>
<text xml:space="preserve" text-anchor="middle" x="556.25" y="-54.75" font-family="Helvetica,sans-Serif" font-size="10.00">&lt; IdxMBBPair &gt;</text>
</a>
</g>
</g>
<!-- Node2&#45;&gt;Node4 -->
<g id="edge8137_Node000002_Node000004" class="edge">
<title>Node2&#45;&gt;Node4</title>
<g id="a_edge8137_Node000002_Node000004"><a xlink:title=" ">
<path fill="none" stroke="#63b8ff" d="M468.07,-77.01C478.76,-75.44 489.56,-73.86 499.75,-72.37"/>
<polygon fill="#63b8ff" stroke="#63b8ff" points="467.9,-73.5 458.51,-78.41 468.91,-80.42 467.9,-73.5"/>
</a>
</g>
</g>
<!-- Node5 -->
<g id="Node000005" class="node">
<title>Node5</title>
<g id="a_Node000005"><a xlink:href="classllvm_1_1SmallVector.html" target="_top" xlink:title=" ">
<polygon fill="white" stroke="#666666" points="755,-54.5 655.75,-54.5 655.75,-24 755,-24 755,-54.5"/>
<text xml:space="preserve" text-anchor="start" x="663.75" y="-41" font-family="Helvetica,sans-Serif" font-size="10.00">llvm::SmallVector&lt;</text>
<text xml:space="preserve" text-anchor="middle" x="705.38" y="-29.75" font-family="Helvetica,sans-Serif" font-size="10.00"> IdxMBBPair, 8 &gt;</text>
</a>
</g>
</g>
<!-- Node4&#45;&gt;Node5 -->
<g id="edge8138_Node000004_Node000005" class="edge">
<title>Node4&#45;&gt;Node5</title>
<g id="a_edge8138_Node000004_Node000005"><a xlink:title=" ">
<path fill="none" stroke="#63b8ff" d="M623.58,-52.98C634.37,-51.15 645.37,-49.28 655.64,-47.53"/>
<polygon fill="#63b8ff" stroke="#63b8ff" points="623.22,-49.49 613.94,-54.62 624.39,-56.39 623.22,-49.49"/>
</a>
</g>
</g>
<!-- Node6 -->
<g id="Node000006" class="node">
<title>Node6</title>
<g id="a_Node000006"><a xlink:href="structllvm_1_1SmallVectorStorage.html" target="_top" xlink:title=" ">
<polygon fill="white" stroke="#666666" points="619.75,-30.5 492.75,-30.5 492.75,0 619.75,0 619.75,-30.5"/>
<text xml:space="preserve" text-anchor="start" x="500.75" y="-17" font-family="Helvetica,sans-Serif" font-size="10.00">llvm::SmallVectorStorage</text>
<text xml:space="preserve" text-anchor="middle" x="556.25" y="-5.75" font-family="Helvetica,sans-Serif" font-size="10.00">&lt; IdxMBBPair, N &gt;</text>
</a>
</g>
</g>
<!-- Node6&#45;&gt;Node5 -->
<g id="edge8139_Node000006_Node000005" class="edge">
<title>Node6&#45;&gt;Node5</title>
<g id="a_edge8139_Node000006_Node000005"><a xlink:title=" ">
<path fill="none" stroke="#8b1a1a" d="M631.27,-27.33C639.51,-28.67 647.75,-30.01 655.56,-31.29"/>
<polygon fill="#8b1a1a" stroke="#8b1a1a" points="632,-23.9 621.56,-25.74 630.87,-30.81 632,-23.9"/>
</a>
</g>
</g>
</g>
</svg>
