<?xml version="1.0" encoding="UTF-8" standalone="no"?>
<!DOCTYPE svg PUBLIC "-//W3C//DTD SVG 1.1//EN"
 "http://www.w3.org/Graphics/SVG/1.1/DTD/svg11.dtd">
<!-- Generated by graphviz version 14.1.3 (20260303.0454)
 -->
<!-- Title: Graphical Class Hierarchy Pages: 1 -->
<svg width="868pt" height="115pt"
 viewBox="0.00 0.00 868.00 115.00" xmlns="http://www.w3.org/2000/svg" xmlns:xlink="http://www.w3.org/1999/xlink">
<g id="graph0" class="graph" transform="scale(1 1) rotate(0) translate(4 111.38)">
<title>Graphical Class Hierarchy</title>
<!-- Node0 -->
<g id="Node000000" class="node">
<title>Node0</title>
<g id="a_Node000000"><a xlink:href="classllvm_1_1SmallVectorBase.html" target="_top" xlink:title=" ">
<polygon fill="white" stroke="#666666" points="147.25,-107.38 0,-107.38 0,-54.38 147.25,-54.38 147.25,-107.38"/>
<text xml:space="preserve" text-anchor="start" x="8" y="-93.88" font-family="Helvetica,sans-Serif" font-size="10.00">llvm::SmallVectorBase</text>
<text xml:space="preserve" text-anchor="start" x="8" y="-82.62" font-family="Helvetica,sans-Serif" font-size="10.00">&lt; SmallVectorSizeType</text>
<text xml:space="preserve" text-anchor="start" x="8" y="-71.38" font-family="Helvetica,sans-Serif" font-size="10.00">&lt; llvm::unique_function</text>
<text xml:space="preserve" text-anchor="middle" x="73.62" y="-60.12" font-family="Helvetica,sans-Serif" font-size="10.00">&lt; AnalysesClearedFunc &gt; &gt; &gt;</text>
</a>
</g>
</g>
<!-- Node1 -->
<g id="Node000001" class="node">
<title>Node1</title>
<g id="a_Node000001"><a xlink:href="classllvm_1_1SmallVectorTemplateCommon.html" target="_top" xlink:title=" ">
<polygon fill="white" stroke="#666666" points="340.25,-101.75 183.25,-101.75 183.25,-60 340.25,-60 340.25,-101.75"/>
<text xml:space="preserve" text-anchor="start" x="191.25" y="-88.25" font-family="Helvetica,sans-Serif" font-size="10.00">llvm::SmallVectorTemplate</text>
<text xml:space="preserve" text-anchor="start" x="191.25" y="-77" font-family="Helvetica,sans-Serif" font-size="10.00">Common&lt; llvm::unique_function</text>
<text xml:space="preserve" text-anchor="middle" x="261.75" y="-65.75" font-family="Helvetica,sans-Serif" font-size="10.00">&lt; AnalysesClearedFunc &gt; &gt;</text>
</a>
</g>
</g>
<!-- Node0&#45;&gt;Node1 -->
<g id="edge9220_Node000000_Node000001" class="edge">
<title>Node0&#45;&gt;Node1</title>
<g id="a_edge9220_Node000000_Node000001"><a xlink:title=" ">
<path fill="none" stroke="#63b8ff" d="M158.92,-80.88C166.95,-80.88 175.06,-80.88 183.02,-80.88"/>
<polygon fill="#63b8ff" stroke="#63b8ff" points="159.17,-77.38 149.17,-80.88 159.17,-84.38 159.17,-77.38"/>
</a>
</g>
</g>
<!-- Node2 -->
<g id="Node000002" class="node">
<title>Node2</title>
<g id="a_Node000002"><a xlink:href="classllvm_1_1SmallVectorTemplateBase.html" target="_top" xlink:title=" ">
<polygon fill="white" stroke="#666666" points="516,-101.75 376.25,-101.75 376.25,-60 516,-60 516,-101.75"/>
<text xml:space="preserve" text-anchor="start" x="384.25" y="-88.25" font-family="Helvetica,sans-Serif" font-size="10.00">llvm::SmallVectorTemplate</text>
<text xml:space="preserve" text-anchor="start" x="384.25" y="-77" font-family="Helvetica,sans-Serif" font-size="10.00">Base&lt; llvm::unique_function</text>
<text xml:space="preserve" text-anchor="middle" x="446.12" y="-65.75" font-family="Helvetica,sans-Serif" font-size="10.00">&lt; AnalysesClearedFunc &gt; &gt;</text>
</a>
</g>
</g>
<!-- Node1&#45;&gt;Node2 -->
<g id="edge9221_Node000001_Node000002" class="edge">
<title>Node1&#45;&gt;Node2</title>
<g id="a_edge9221_Node000001_Node000002"><a xlink:title=" ">
<path fill="none" stroke="#63b8ff" d="M351.95,-80.88C359.98,-80.88 368.04,-80.88 375.87,-80.88"/>
<polygon fill="#63b8ff" stroke="#63b8ff" points="352.14,-77.38 342.14,-80.88 352.14,-84.38 352.14,-77.38"/>
</a>
</g>
</g>
<!-- Node3 -->
<g id="Node000003" class="node">
<title>Node3</title>
<g id="a_Node000003"><a xlink:href="classllvm_1_1SmallVectorImpl.html" target="_top" xlink:title=" ">
<polygon fill="white" stroke="#666666" points="697,-101.75 558.75,-101.75 558.75,-60 697,-60 697,-101.75"/>
<text xml:space="preserve" text-anchor="start" x="566.75" y="-88.25" font-family="Helvetica,sans-Serif" font-size="10.00">llvm::SmallVectorImpl</text>
<text xml:space="preserve" text-anchor="start" x="566.75" y="-77" font-family="Helvetica,sans-Serif" font-size="10.00">&lt; llvm::unique_function</text>
<text xml:space="preserve" text-anchor="middle" x="627.88" y="-65.75" font-family="Helvetica,sans-Serif" font-size="10.00">&lt; AnalysesClearedFunc &gt; &gt;</text>
</a>
</g>
</g>
<!-- Node2&#45;&gt;Node3 -->
<g id="edge9222_Node000002_Node000003" class="edge">
<title>Node2&#45;&gt;Node3</title>
<g id="a_edge9222_Node000002_Node000003"><a xlink:title=" ">
<path fill="none" stroke="#63b8ff" d="M527.77,-80.88C537.95,-80.88 548.29,-80.88 558.26,-80.88"/>
<polygon fill="#63b8ff" stroke="#63b8ff" points="527.88,-77.38 517.88,-80.88 527.88,-84.38 527.88,-77.38"/>
</a>
</g>
</g>
<!-- Node4 -->
<g id="Node000004" class="node">
<title>Node4</title>
<g id="a_Node000004"><a xlink:href="classllvm_1_1SmallVector.html" target="_top" xlink:title=" ">
<polygon fill="white" stroke="#666666" points="860,-77.38 739.75,-77.38 739.75,-24.38 860,-24.38 860,-77.38"/>
<text xml:space="preserve" text-anchor="start" x="747.75" y="-63.88" font-family="Helvetica,sans-Serif" font-size="10.00">llvm::SmallVector&lt;</text>
<text xml:space="preserve" text-anchor="start" x="747.75" y="-52.62" font-family="Helvetica,sans-Serif" font-size="10.00"> llvm::unique_function</text>
<text xml:space="preserve" text-anchor="start" x="747.75" y="-41.38" font-family="Helvetica,sans-Serif" font-size="10.00">&lt; AnalysesClearedFunc</text>
<text xml:space="preserve" text-anchor="middle" x="799.88" y="-30.12" font-family="Helvetica,sans-Serif" font-size="10.00"> &gt;, 4 &gt;</text>
</a>
</g>
</g>
<!-- Node3&#45;&gt;Node4 -->
<g id="edge9223_Node000003_Node000004" class="edge">
<title>Node3&#45;&gt;Node4</title>
<g id="a_edge9223_Node000003_Node000004"><a xlink:title=" ">
<path fill="none" stroke="#63b8ff" d="M708.33,-66.85C718.81,-65 729.4,-63.14 739.46,-61.36"/>
<polygon fill="#63b8ff" stroke="#63b8ff" points="707.77,-63.4 698.53,-68.58 708.99,-70.29 707.77,-63.4"/>
</a>
</g>
</g>
<!-- Node5 -->
<g id="Node000005" class="node">
<title>Node5</title>
<g id="a_Node000005"><a xlink:href="structllvm_1_1SmallVectorStorage.html" target="_top" xlink:title=" ">
<polygon fill="white" stroke="#666666" points="703.75,-41.75 552,-41.75 552,0 703.75,0 703.75,-41.75"/>
<text xml:space="preserve" text-anchor="start" x="560" y="-28.25" font-family="Helvetica,sans-Serif" font-size="10.00">llvm::SmallVectorStorage</text>
<text xml:space="preserve" text-anchor="start" x="560" y="-17" font-family="Helvetica,sans-Serif" font-size="10.00">&lt; llvm::unique_function</text>
<text xml:space="preserve" text-anchor="middle" x="627.88" y="-5.75" font-family="Helvetica,sans-Serif" font-size="10.00">&lt; AnalysesClearedFunc &gt;, N &gt;</text>
</a>
</g>
</g>
<!-- Node5&#45;&gt;Node4 -->
<g id="edge9224_Node000005_Node000004" class="edge">
<title>Node5&#45;&gt;Node4</title>
<g id="a_edge9224_Node000005_Node000004"><a xlink:title=" ">
<path fill="none" stroke="#8b1a1a" d="M715.07,-36.09C723.25,-37.53 731.42,-38.97 739.27,-40.36"/>
<polygon fill="#8b1a1a" stroke="#8b1a1a" points="715.88,-32.67 705.42,-34.38 714.66,-39.57 715.88,-32.67"/>
</a>
</g>
</g>
</g>
</svg>
