<?xml version="1.0" encoding="UTF-8" standalone="no"?>
<!DOCTYPE svg PUBLIC "-//W3C//DTD SVG 1.1//EN"
 "http://www.w3.org/Graphics/SVG/1.1/DTD/svg11.dtd">
<!-- Generated by graphviz version 14.1.3 (20260303.0454)
 -->
<!-- Title: Graphical Class Hierarchy Pages: 1 -->
<svg width="922pt" height="93pt"
 viewBox="0.00 0.00 922.00 93.00" xmlns="http://www.w3.org/2000/svg" xmlns:xlink="http://www.w3.org/1999/xlink">
<g id="graph0" class="graph" transform="scale(1 1) rotate(0) translate(4 89.12)">
<title>Graphical Class Hierarchy</title>
<!-- Node0 -->
<g id="Node000000" class="node">
<title>Node0</title>
<g id="a_Node000000"><a xlink:href="classllvm_1_1SmallVectorBase.html" target="_top" xlink:title=" ">
<polygon fill="white" stroke="#666666" points="145,-85.12 0,-85.12 0,-43.38 145,-43.38 145,-85.12"/>
<text xml:space="preserve" text-anchor="start" x="8" y="-71.62" font-family="Helvetica,sans-Serif" font-size="10.00">llvm::SmallVectorBase</text>
<text xml:space="preserve" text-anchor="start" x="8" y="-60.38" font-family="Helvetica,sans-Serif" font-size="10.00">&lt; SmallVectorSizeType</text>
<text xml:space="preserve" text-anchor="middle" x="72.5" y="-49.12" font-family="Helvetica,sans-Serif" font-size="10.00">&lt; PrologEpilogSGPRSpill &gt; &gt;</text>
</a>
</g>
</g>
<!-- Node1 -->
<g id="Node000001" class="node">
<title>Node1</title>
<g id="a_Node000001"><a xlink:href="classllvm_1_1SmallVectorTemplateCommon.html" target="_top" xlink:title=" ">
<polygon fill="white" stroke="#666666" points="356.75,-79.5 181,-79.5 181,-49 356.75,-49 356.75,-79.5"/>
<text xml:space="preserve" text-anchor="start" x="189" y="-66" font-family="Helvetica,sans-Serif" font-size="10.00">llvm::SmallVectorTemplate</text>
<text xml:space="preserve" text-anchor="middle" x="268.88" y="-54.75" font-family="Helvetica,sans-Serif" font-size="10.00">Common&lt; PrologEpilogSGPRSpill &gt;</text>
</a>
</g>
</g>
<!-- Node0&#45;&gt;Node1 -->
<g id="edge9418_Node000000_Node000001" class="edge">
<title>Node0&#45;&gt;Node1</title>
<g id="a_edge9418_Node000000_Node000001"><a xlink:title=" ">
<path fill="none" stroke="#63b8ff" d="M156.75,-64.25C164.62,-64.25 172.62,-64.25 180.53,-64.25"/>
<polygon fill="#63b8ff" stroke="#63b8ff" points="156.84,-60.75 146.84,-64.25 156.84,-67.75 156.84,-60.75"/>
</a>
</g>
</g>
<!-- Node2 -->
<g id="Node000002" class="node">
<title>Node2</title>
<g id="a_Node000002"><a xlink:href="classllvm_1_1SmallVectorTemplateBase.html" target="_top" xlink:title=" ">
<polygon fill="white" stroke="#666666" points="551.25,-79.5 392.75,-79.5 392.75,-49 551.25,-49 551.25,-79.5"/>
<text xml:space="preserve" text-anchor="start" x="400.75" y="-66" font-family="Helvetica,sans-Serif" font-size="10.00">llvm::SmallVectorTemplate</text>
<text xml:space="preserve" text-anchor="middle" x="472" y="-54.75" font-family="Helvetica,sans-Serif" font-size="10.00">Base&lt; PrologEpilogSGPRSpill &gt;</text>
</a>
</g>
</g>
<!-- Node1&#45;&gt;Node2 -->
<g id="edge9419_Node000001_Node000002" class="edge">
<title>Node1&#45;&gt;Node2</title>
<g id="a_edge9419_Node000001_Node000002"><a xlink:title=" ">
<path fill="none" stroke="#63b8ff" d="M368.47,-64.25C376.46,-64.25 384.46,-64.25 392.28,-64.25"/>
<polygon fill="#63b8ff" stroke="#63b8ff" points="368.73,-60.75 358.73,-64.25 368.73,-67.75 368.73,-60.75"/>
</a>
</g>
</g>
<!-- Node3 -->
<g id="Node000003" class="node">
<title>Node3</title>
<g id="a_Node000003"><a xlink:href="classllvm_1_1SmallVectorImpl.html" target="_top" xlink:title=" ">
<polygon fill="white" stroke="#666666" points="730,-79.5 594,-79.5 594,-49 730,-49 730,-79.5"/>
<text xml:space="preserve" text-anchor="start" x="602" y="-66" font-family="Helvetica,sans-Serif" font-size="10.00">llvm::SmallVectorImpl</text>
<text xml:space="preserve" text-anchor="middle" x="662" y="-54.75" font-family="Helvetica,sans-Serif" font-size="10.00">&lt; PrologEpilogSGPRSpill &gt;</text>
</a>
</g>
</g>
<!-- Node2&#45;&gt;Node3 -->
<g id="edge9420_Node000002_Node000003" class="edge">
<title>Node2&#45;&gt;Node3</title>
<g id="a_edge9420_Node000002_Node000003"><a xlink:title=" ">
<path fill="none" stroke="#63b8ff" d="M562.86,-64.25C573.25,-64.25 583.7,-64.25 593.71,-64.25"/>
<polygon fill="#63b8ff" stroke="#63b8ff" points="563.15,-60.75 553.15,-64.25 563.15,-67.75 563.15,-60.75"/>
</a>
</g>
</g>
<!-- Node4 -->
<g id="Node000004" class="node">
<title>Node4</title>
<g id="a_Node000004"><a xlink:href="classllvm_1_1SmallVector.html" target="_top" xlink:title=" ">
<polygon fill="white" stroke="#666666" points="914,-54.5 772.75,-54.5 772.75,-24 914,-24 914,-54.5"/>
<text xml:space="preserve" text-anchor="start" x="780.75" y="-41" font-family="Helvetica,sans-Serif" font-size="10.00">llvm::SmallVector&lt;</text>
<text xml:space="preserve" text-anchor="middle" x="843.38" y="-29.75" font-family="Helvetica,sans-Serif" font-size="10.00"> PrologEpilogSGPRSpill, 3 &gt;</text>
</a>
</g>
</g>
<!-- Node3&#45;&gt;Node4 -->
<g id="edge9421_Node000003_Node000004" class="edge">
<title>Node3&#45;&gt;Node4</title>
<g id="a_edge9421_Node000003_Node000004"><a xlink:title=" ">
<path fill="none" stroke="#63b8ff" d="M741.7,-53.28C751.88,-51.86 762.26,-50.42 772.3,-49.02"/>
<polygon fill="#63b8ff" stroke="#63b8ff" points="741.22,-49.81 731.8,-54.66 742.19,-56.75 741.22,-49.81"/>
</a>
</g>
</g>
<!-- Node5 -->
<g id="Node000005" class="node">
<title>Node5</title>
<g id="a_Node000005"><a xlink:href="structllvm_1_1SmallVectorStorage.html" target="_top" xlink:title=" ">
<polygon fill="white" stroke="#666666" points="736.75,-30.5 587.25,-30.5 587.25,0 736.75,0 736.75,-30.5"/>
<text xml:space="preserve" text-anchor="start" x="595.25" y="-17" font-family="Helvetica,sans-Serif" font-size="10.00">llvm::SmallVectorStorage</text>
<text xml:space="preserve" text-anchor="middle" x="662" y="-5.75" font-family="Helvetica,sans-Serif" font-size="10.00">&lt; PrologEpilogSGPRSpill, N &gt;</text>
</a>
</g>
</g>
<!-- Node5&#45;&gt;Node4 -->
<g id="edge9422_Node000005_Node000004" class="edge">
<title>Node5&#45;&gt;Node4</title>
<g id="a_edge9422_Node000005_Node000004"><a xlink:title=" ">
<path fill="none" stroke="#8b1a1a" d="M748.3,-26.66C756.34,-27.74 764.43,-28.82 772.3,-29.87"/>
<polygon fill="#8b1a1a" stroke="#8b1a1a" points="748.87,-23.21 738.49,-25.35 747.94,-30.15 748.87,-23.21"/>
</a>
</g>
</g>
</g>
</svg>
