<?xml version="1.0" encoding="UTF-8" standalone="no"?>
<!DOCTYPE svg PUBLIC "-//W3C//DTD SVG 1.1//EN"
 "http://www.w3.org/Graphics/SVG/1.1/DTD/svg11.dtd">
<!-- Generated by graphviz version 14.1.3 (20260303.0454)
 -->
<!-- Title: Graphical Class Hierarchy Pages: 1 -->
<svg width="798pt" height="204pt"
 viewBox="0.00 0.00 798.00 204.00" xmlns="http://www.w3.org/2000/svg" xmlns:xlink="http://www.w3.org/1999/xlink">
<g id="graph0" class="graph" transform="scale(1 1) rotate(0) translate(4 199.62)">
<title>Graphical Class Hierarchy</title>
<!-- Node0 -->
<g id="Node000000" class="node">
<title>Node0</title>
<g id="a_Node000000"><a xlink:href="classllvm_1_1SmallVectorBase.html" target="_top" xlink:title=" ">
<polygon fill="white" stroke="#666666" points="118.75,-141.25 0,-141.25 0,-88.25 118.75,-88.25 118.75,-141.25"/>
<text xml:space="preserve" text-anchor="start" x="8" y="-127.75" font-family="Helvetica,sans-Serif" font-size="10.00">llvm::SmallVectorBase</text>
<text xml:space="preserve" text-anchor="start" x="8" y="-116.5" font-family="Helvetica,sans-Serif" font-size="10.00">&lt; SmallVectorSizeType</text>
<text xml:space="preserve" text-anchor="start" x="8" y="-105.25" font-family="Helvetica,sans-Serif" font-size="10.00">&lt; std::pair&lt; std::string,</text>
<text xml:space="preserve" text-anchor="middle" x="59.38" y="-94" font-family="Helvetica,sans-Serif" font-size="10.00"> std::string &gt; &gt; &gt;</text>
</a>
</g>
</g>
<!-- Node1 -->
<g id="Node000001" class="node">
<title>Node1</title>
<g id="a_Node000001"><a xlink:href="classllvm_1_1SmallVectorTemplateCommon.html" target="_top" xlink:title=" ">
<polygon fill="white" stroke="#666666" points="287.75,-135.62 154.75,-135.62 154.75,-93.88 287.75,-93.88 287.75,-135.62"/>
<text xml:space="preserve" text-anchor="start" x="162.75" y="-122.12" font-family="Helvetica,sans-Serif" font-size="10.00">llvm::SmallVectorTemplate</text>
<text xml:space="preserve" text-anchor="start" x="162.75" y="-110.88" font-family="Helvetica,sans-Serif" font-size="10.00">Common&lt; std::pair&lt; std</text>
<text xml:space="preserve" text-anchor="middle" x="221.25" y="-99.62" font-family="Helvetica,sans-Serif" font-size="10.00">::string, std::string &gt; &gt;</text>
</a>
</g>
</g>
<!-- Node0&#45;&gt;Node1 -->
<g id="edge9999_Node000000_Node000001" class="edge">
<title>Node0&#45;&gt;Node1</title>
<g id="a_edge9999_Node000000_Node000001"><a xlink:title=" ">
<path fill="none" stroke="#63b8ff" d="M130.48,-114.75C138.41,-114.75 146.47,-114.75 154.34,-114.75"/>
<polygon fill="#63b8ff" stroke="#63b8ff" points="130.51,-111.25 120.51,-114.75 130.51,-118.25 130.51,-111.25"/>
</a>
</g>
</g>
<!-- Node2 -->
<g id="Node000002" class="node">
<title>Node2</title>
<g id="a_Node000002"><a xlink:href="classllvm_1_1SmallVectorTemplateBase.html" target="_top" xlink:title=" ">
<polygon fill="white" stroke="#666666" points="462,-135.62 323.75,-135.62 323.75,-93.88 462,-93.88 462,-135.62"/>
<text xml:space="preserve" text-anchor="start" x="331.75" y="-122.12" font-family="Helvetica,sans-Serif" font-size="10.00">llvm::SmallVectorTemplate</text>
<text xml:space="preserve" text-anchor="start" x="331.75" y="-110.88" font-family="Helvetica,sans-Serif" font-size="10.00">Base&lt; std::pair&lt; std::string,</text>
<text xml:space="preserve" text-anchor="middle" x="392.88" y="-99.62" font-family="Helvetica,sans-Serif" font-size="10.00"> std::string &gt; &gt;</text>
</a>
</g>
</g>
<!-- Node1&#45;&gt;Node2 -->
<g id="edge10000_Node000001_Node000002" class="edge">
<title>Node1&#45;&gt;Node2</title>
<g id="a_edge10000_Node000001_Node000002"><a xlink:title=" ">
<path fill="none" stroke="#63b8ff" d="M299.16,-114.75C307.23,-114.75 315.41,-114.75 323.38,-114.75"/>
<polygon fill="#63b8ff" stroke="#63b8ff" points="299.35,-111.25 289.34,-114.75 299.34,-118.25 299.35,-111.25"/>
</a>
</g>
</g>
<!-- Node3 -->
<g id="Node000003" class="node">
<title>Node3</title>
<g id="a_Node000003"><a xlink:href="classllvm_1_1SmallVectorImpl.html" target="_top" xlink:title=" ">
<polygon fill="white" stroke="#666666" points="628.75,-135.62 513,-135.62 513,-93.88 628.75,-93.88 628.75,-135.62"/>
<text xml:space="preserve" text-anchor="start" x="521" y="-122.12" font-family="Helvetica,sans-Serif" font-size="10.00">llvm::SmallVectorImpl</text>
<text xml:space="preserve" text-anchor="start" x="521" y="-110.88" font-family="Helvetica,sans-Serif" font-size="10.00">&lt; std::pair&lt; std::string,</text>
<text xml:space="preserve" text-anchor="middle" x="570.88" y="-99.62" font-family="Helvetica,sans-Serif" font-size="10.00"> std::string &gt; &gt;</text>
</a>
</g>
</g>
<!-- Node2&#45;&gt;Node3 -->
<g id="edge10001_Node000002_Node000003" class="edge">
<title>Node2&#45;&gt;Node3</title>
<g id="a_edge10001_Node000002_Node000003"><a xlink:title=" ">
<path fill="none" stroke="#63b8ff" d="M473.83,-114.75C486.91,-114.75 500.23,-114.75 512.62,-114.75"/>
<polygon fill="#63b8ff" stroke="#63b8ff" points="473.94,-111.25 463.94,-114.75 473.94,-118.25 473.94,-111.25"/>
</a>
</g>
</g>
<!-- Node4 -->
<g id="Node000004" class="node">
<title>Node4</title>
<g id="a_Node000004"><a xlink:href="classllvm_1_1SmallVector.html" target="_top" xlink:title=" ">
<polygon fill="white" stroke="#666666" points="789.5,-165.62 679.75,-165.62 679.75,-123.88 789.5,-123.88 789.5,-165.62"/>
<text xml:space="preserve" text-anchor="start" x="687.75" y="-152.12" font-family="Helvetica,sans-Serif" font-size="10.00">llvm::SmallVector&lt;</text>
<text xml:space="preserve" text-anchor="start" x="687.75" y="-140.88" font-family="Helvetica,sans-Serif" font-size="10.00"> std::pair&lt; std::string,</text>
<text xml:space="preserve" text-anchor="middle" x="734.62" y="-129.62" font-family="Helvetica,sans-Serif" font-size="10.00"> std::string &gt;, 0 &gt;</text>
</a>
</g>
</g>
<!-- Node3&#45;&gt;Node4 -->
<g id="edge10002_Node000003_Node000004" class="edge">
<title>Node3&#45;&gt;Node4</title>
<g id="a_edge10002_Node000003_Node000004"><a xlink:title=" ">
<path fill="none" stroke="#63b8ff" d="M640.21,-127.43C653.26,-129.84 666.75,-132.35 679.28,-134.67"/>
<polygon fill="#63b8ff" stroke="#63b8ff" points="640.86,-123.99 630.39,-125.6 639.58,-130.87 640.86,-123.99"/>
</a>
</g>
</g>
<!-- Node6 -->
<g id="Node000006" class="node">
<title>Node6</title>
<g id="a_Node000006"><a xlink:href="classllvm_1_1SmallVector.html" target="_top" xlink:title=" ">
<polygon fill="white" stroke="#666666" points="789.5,-97.62 679.75,-97.62 679.75,-55.88 789.5,-55.88 789.5,-97.62"/>
<text xml:space="preserve" text-anchor="start" x="687.75" y="-84.12" font-family="Helvetica,sans-Serif" font-size="10.00">llvm::SmallVector&lt;</text>
<text xml:space="preserve" text-anchor="start" x="687.75" y="-72.88" font-family="Helvetica,sans-Serif" font-size="10.00"> std::pair&lt; std::string,</text>
<text xml:space="preserve" text-anchor="middle" x="734.62" y="-61.62" font-family="Helvetica,sans-Serif" font-size="10.00"> std::string &gt; &gt;</text>
</a>
</g>
</g>
<!-- Node3&#45;&gt;Node6 -->
<g id="edge10003_Node000003_Node000006" class="edge">
<title>Node3&#45;&gt;Node6</title>
<g id="a_edge10003_Node000003_Node000006"><a xlink:title=" ">
<path fill="none" stroke="#63b8ff" d="M639.82,-98.79C652.99,-95.69 666.62,-92.49 679.28,-89.52"/>
<polygon fill="#63b8ff" stroke="#63b8ff" points="639.31,-95.31 630.38,-101.01 640.91,-102.13 639.31,-95.31"/>
</a>
</g>
</g>
<!-- Node7 -->
<g id="Node000007" class="node">
<title>Node7</title>
<g id="a_Node000007"><a xlink:title=" ">
<polygon fill="#e0e0e0" stroke="#999999" points="643.75,-75.5 498,-75.5 498,0 643.75,0 643.75,-75.5"/>
<text xml:space="preserve" text-anchor="start" x="506" y="-62" font-family="Helvetica,sans-Serif" font-size="10.00">SmallVectorStorage</text>
<text xml:space="preserve" text-anchor="start" x="506" y="-50.75" font-family="Helvetica,sans-Serif" font-size="10.00">&lt; std::pair&lt; std::string,</text>
<text xml:space="preserve" text-anchor="start" x="506" y="-39.5" font-family="Helvetica,sans-Serif" font-size="10.00"> std::string &gt;, CalculateSmall</text>
<text xml:space="preserve" text-anchor="start" x="506" y="-28.25" font-family="Helvetica,sans-Serif" font-size="10.00">VectorDefaultInlinedElements</text>
<text xml:space="preserve" text-anchor="start" x="506" y="-17" font-family="Helvetica,sans-Serif" font-size="10.00">&lt; std::pair&lt; std::string, std</text>
<text xml:space="preserve" text-anchor="middle" x="570.88" y="-5.75" font-family="Helvetica,sans-Serif" font-size="10.00">::string &gt; &gt;::value &gt;</text>
</a>
</g>
</g>
<!-- Node7&#45;&gt;Node6 -->
<g id="edge10004_Node000007_Node000006" class="edge">
<title>Node7&#45;&gt;Node6</title>
<g id="a_edge10004_Node000007_Node000006"><a xlink:title=" ">
<path fill="none" stroke="#8b1a1a" d="M655.31,-57.87C663.45,-59.83 671.55,-61.78 679.28,-63.65"/>
<polygon fill="#8b1a1a" stroke="#8b1a1a" points="656.25,-54.49 645.71,-55.55 654.61,-61.3 656.25,-54.49"/>
</a>
</g>
</g>
<!-- Node5 -->
<g id="Node000005" class="node">
<title>Node5</title>
<g id="a_Node000005"><a xlink:href="structllvm_1_1SmallVectorStorage.html" target="_top" xlink:title=" ">
<polygon fill="white" stroke="#666666" points="634.38,-195.62 507.38,-195.62 507.38,-153.88 634.38,-153.88 634.38,-195.62"/>
<text xml:space="preserve" text-anchor="start" x="515.38" y="-182.12" font-family="Helvetica,sans-Serif" font-size="10.00">llvm::SmallVectorStorage</text>
<text xml:space="preserve" text-anchor="start" x="515.38" y="-170.88" font-family="Helvetica,sans-Serif" font-size="10.00">&lt; std::pair&lt; std::string,</text>
<text xml:space="preserve" text-anchor="middle" x="570.88" y="-159.62" font-family="Helvetica,sans-Serif" font-size="10.00"> std::string &gt;, N &gt;</text>
</a>
</g>
</g>
<!-- Node5&#45;&gt;Node4 -->
<g id="edge10005_Node000005_Node000004" class="edge">
<title>Node5&#45;&gt;Node4</title>
<g id="a_edge10005_Node000005_Node000004"><a xlink:title=" ">
<path fill="none" stroke="#8b1a1a" d="M646.04,-160.99C657.3,-158.91 668.73,-156.79 679.46,-154.8"/>
<polygon fill="#8b1a1a" stroke="#8b1a1a" points="645.56,-157.52 636.36,-162.79 646.83,-164.41 645.56,-157.52"/>
</a>
</g>
</g>
</g>
</svg>
