<?xml version="1.0" encoding="UTF-8" standalone="no"?>
<!DOCTYPE svg PUBLIC "-//W3C//DTD SVG 1.1//EN"
 "http://www.w3.org/Graphics/SVG/1.1/DTD/svg11.dtd">
<!-- Generated by graphviz version 14.1.3 (20260303.0454)
 -->
<!-- Title: Graphical Class Hierarchy Pages: 1 -->
<svg width="801pt" height="115pt"
 viewBox="0.00 0.00 801.00 115.00" xmlns="http://www.w3.org/2000/svg" xmlns:xlink="http://www.w3.org/1999/xlink">
<g id="graph0" class="graph" transform="scale(1 1) rotate(0) translate(4 111.38)">
<title>Graphical Class Hierarchy</title>
<!-- Node0 -->
<g id="Node000000" class="node">
<title>Node0</title>
<g id="a_Node000000"><a xlink:href="classllvm_1_1SmallVectorBase.html" target="_top" xlink:title=" ">
<polygon fill="white" stroke="#666666" points="118.75,-107.38 0,-107.38 0,-54.38 118.75,-54.38 118.75,-107.38"/>
<text xml:space="preserve" text-anchor="start" x="8" y="-93.88" font-family="Helvetica,sans-Serif" font-size="10.00">llvm::SmallVectorBase</text>
<text xml:space="preserve" text-anchor="start" x="8" y="-82.62" font-family="Helvetica,sans-Serif" font-size="10.00">&lt; SmallVectorSizeType</text>
<text xml:space="preserve" text-anchor="start" x="8" y="-71.38" font-family="Helvetica,sans-Serif" font-size="10.00">&lt; llvm::SpillPlacement</text>
<text xml:space="preserve" text-anchor="middle" x="59.38" y="-60.12" font-family="Helvetica,sans-Serif" font-size="10.00">::BlockConstraint &gt; &gt;</text>
</a>
</g>
</g>
<!-- Node1 -->
<g id="Node000001" class="node">
<title>Node1</title>
<g id="a_Node000001"><a xlink:href="classllvm_1_1SmallVectorTemplateCommon.html" target="_top" xlink:title=" ">
<polygon fill="white" stroke="#666666" points="308.75,-101.75 154.75,-101.75 154.75,-60 308.75,-60 308.75,-101.75"/>
<text xml:space="preserve" text-anchor="start" x="162.75" y="-88.25" font-family="Helvetica,sans-Serif" font-size="10.00">llvm::SmallVectorTemplate</text>
<text xml:space="preserve" text-anchor="start" x="162.75" y="-77" font-family="Helvetica,sans-Serif" font-size="10.00">Common&lt; llvm::SpillPlacement</text>
<text xml:space="preserve" text-anchor="middle" x="231.75" y="-65.75" font-family="Helvetica,sans-Serif" font-size="10.00">::BlockConstraint &gt;</text>
</a>
</g>
</g>
<!-- Node0&#45;&gt;Node1 -->
<g id="edge9160_Node000000_Node000001" class="edge">
<title>Node0&#45;&gt;Node1</title>
<g id="a_edge9160_Node000000_Node000001"><a xlink:title=" ">
<path fill="none" stroke="#63b8ff" d="M130.38,-80.88C138.26,-80.88 146.31,-80.88 154.26,-80.88"/>
<polygon fill="#63b8ff" stroke="#63b8ff" points="130.52,-77.38 120.52,-80.88 130.52,-84.38 130.52,-77.38"/>
</a>
</g>
</g>
<!-- Node2 -->
<g id="Node000002" class="node">
<title>Node2</title>
<g id="a_Node000002"><a xlink:href="classllvm_1_1SmallVectorTemplateBase.html" target="_top" xlink:title=" ">
<polygon fill="white" stroke="#666666" points="481.5,-101.75 344.75,-101.75 344.75,-60 481.5,-60 481.5,-101.75"/>
<text xml:space="preserve" text-anchor="start" x="352.75" y="-88.25" font-family="Helvetica,sans-Serif" font-size="10.00">llvm::SmallVectorTemplate</text>
<text xml:space="preserve" text-anchor="start" x="352.75" y="-77" font-family="Helvetica,sans-Serif" font-size="10.00">Base&lt; llvm::SpillPlacement</text>
<text xml:space="preserve" text-anchor="middle" x="413.12" y="-65.75" font-family="Helvetica,sans-Serif" font-size="10.00">::BlockConstraint &gt;</text>
</a>
</g>
</g>
<!-- Node1&#45;&gt;Node2 -->
<g id="edge9161_Node000001_Node000002" class="edge">
<title>Node1&#45;&gt;Node2</title>
<g id="a_edge9161_Node000001_Node000002"><a xlink:title=" ">
<path fill="none" stroke="#63b8ff" d="M320.42,-80.88C328.47,-80.88 336.54,-80.88 344.38,-80.88"/>
<polygon fill="#63b8ff" stroke="#63b8ff" points="320.59,-77.38 310.59,-80.88 320.59,-84.38 320.59,-77.38"/>
</a>
</g>
</g>
<!-- Node3 -->
<g id="Node000003" class="node">
<title>Node3</title>
<g id="a_Node000003"><a xlink:href="classllvm_1_1SmallVectorImpl.html" target="_top" xlink:title=" ">
<polygon fill="white" stroke="#666666" points="638.12,-101.75 523.88,-101.75 523.88,-60 638.12,-60 638.12,-101.75"/>
<text xml:space="preserve" text-anchor="start" x="531.88" y="-88.25" font-family="Helvetica,sans-Serif" font-size="10.00">llvm::SmallVectorImpl</text>
<text xml:space="preserve" text-anchor="start" x="531.88" y="-77" font-family="Helvetica,sans-Serif" font-size="10.00">&lt; llvm::SpillPlacement</text>
<text xml:space="preserve" text-anchor="middle" x="581" y="-65.75" font-family="Helvetica,sans-Serif" font-size="10.00">::BlockConstraint &gt;</text>
</a>
</g>
</g>
<!-- Node2&#45;&gt;Node3 -->
<g id="edge9162_Node000002_Node000003" class="edge">
<title>Node2&#45;&gt;Node3</title>
<g id="a_edge9162_Node000002_Node000003"><a xlink:title=" ">
<path fill="none" stroke="#63b8ff" d="M493.1,-80.88C503.35,-80.88 513.68,-80.88 523.47,-80.88"/>
<polygon fill="#63b8ff" stroke="#63b8ff" points="493.11,-77.38 483.11,-80.88 493.11,-84.38 493.11,-77.38"/>
</a>
</g>
</g>
<!-- Node4 -->
<g id="Node000004" class="node">
<title>Node4</title>
<g id="a_Node000004"><a xlink:href="classllvm_1_1SmallVector.html" target="_top" xlink:title=" ">
<polygon fill="white" stroke="#666666" points="792.5,-71.75 680.5,-71.75 680.5,-30 792.5,-30 792.5,-71.75"/>
<text xml:space="preserve" text-anchor="start" x="688.5" y="-58.25" font-family="Helvetica,sans-Serif" font-size="10.00">llvm::SmallVector&lt;</text>
<text xml:space="preserve" text-anchor="start" x="688.5" y="-47" font-family="Helvetica,sans-Serif" font-size="10.00"> llvm::SpillPlacement</text>
<text xml:space="preserve" text-anchor="middle" x="736.5" y="-35.75" font-family="Helvetica,sans-Serif" font-size="10.00">::BlockConstraint, 8 &gt;</text>
</a>
</g>
</g>
<!-- Node3&#45;&gt;Node4 -->
<g id="edge9163_Node000003_Node000004" class="edge">
<title>Node3&#45;&gt;Node4</title>
<g id="a_edge9163_Node000003_Node000004"><a xlink:title=" ">
<path fill="none" stroke="#63b8ff" d="M649.36,-67.71C659.68,-65.69 670.23,-63.63 680.25,-61.67"/>
<polygon fill="#63b8ff" stroke="#63b8ff" points="648.91,-64.23 639.77,-69.58 650.26,-71.1 648.91,-64.23"/>
</a>
</g>
</g>
<!-- Node5 -->
<g id="Node000005" class="node">
<title>Node5</title>
<g id="a_Node000005"><a xlink:href="structllvm_1_1SmallVectorStorage.html" target="_top" xlink:title=" ">
<polygon fill="white" stroke="#666666" points="644.5,-41.75 517.5,-41.75 517.5,0 644.5,0 644.5,-41.75"/>
<text xml:space="preserve" text-anchor="start" x="525.5" y="-28.25" font-family="Helvetica,sans-Serif" font-size="10.00">llvm::SmallVectorStorage</text>
<text xml:space="preserve" text-anchor="start" x="525.5" y="-17" font-family="Helvetica,sans-Serif" font-size="10.00">&lt; llvm::SpillPlacement</text>
<text xml:space="preserve" text-anchor="middle" x="581" y="-5.75" font-family="Helvetica,sans-Serif" font-size="10.00">::BlockConstraint, N &gt;</text>
</a>
</g>
</g>
<!-- Node5&#45;&gt;Node4 -->
<g id="edge9164_Node000005_Node000004" class="edge">
<title>Node5&#45;&gt;Node4</title>
<g id="a_edge9164_Node000005_Node000004"><a xlink:title=" ">
<path fill="none" stroke="#8b1a1a" d="M656,-35.34C664.19,-36.94 672.43,-38.55 680.34,-40.09"/>
<polygon fill="#8b1a1a" stroke="#8b1a1a" points="656.85,-31.94 646.36,-33.45 655.51,-38.81 656.85,-31.94"/>
</a>
</g>
</g>
</g>
</svg>
