<?xml version="1.0" encoding="UTF-8" standalone="no"?>
<!DOCTYPE svg PUBLIC "-//W3C//DTD SVG 1.1//EN"
 "http://www.w3.org/Graphics/SVG/1.1/DTD/svg11.dtd">
<!-- Generated by graphviz version 14.1.3 (20260303.0454)
 -->
<!-- Title: Graphical Class Hierarchy Pages: 1 -->
<svg width="512pt" height="39pt"
 viewBox="0.00 0.00 512.00 39.00" xmlns="http://www.w3.org/2000/svg" xmlns:xlink="http://www.w3.org/1999/xlink">
<g id="graph0" class="graph" transform="scale(1 1) rotate(0) translate(4 34.5)">
<title>Graphical Class Hierarchy</title>
<!-- Node0 -->
<g id="Node000000" class="node">
<title>Node0</title>
<g id="a_Node000000"><a xlink:href="structllvm_1_1PassInfoMixin.html" target="_top" xlink:title=" ">
<polygon fill="white" stroke="#666666" points="142,-30.5 0,-30.5 0,0 142,0 142,-30.5"/>
<text xml:space="preserve" text-anchor="start" x="8" y="-17" font-family="Helvetica,sans-Serif" font-size="10.00">llvm::PassInfoMixin</text>
<text xml:space="preserve" text-anchor="middle" x="71" y="-5.75" font-family="Helvetica,sans-Serif" font-size="10.00">&lt; BlockFrequencyAnalysis &gt;</text>
</a>
</g>
</g>
<!-- Node1 -->
<g id="Node000001" class="node">
<title>Node1</title>
<g id="a_Node000001"><a xlink:href="structllvm_1_1AnalysisInfoMixin.html" target="_top" xlink:title=" ">
<polygon fill="white" stroke="#666666" points="320,-30.5 178,-30.5 178,0 320,0 320,-30.5"/>
<text xml:space="preserve" text-anchor="start" x="186" y="-17" font-family="Helvetica,sans-Serif" font-size="10.00">llvm::AnalysisInfoMixin</text>
<text xml:space="preserve" text-anchor="middle" x="249" y="-5.75" font-family="Helvetica,sans-Serif" font-size="10.00">&lt; BlockFrequencyAnalysis &gt;</text>
</a>
</g>
</g>
<!-- Node0&#45;&gt;Node1 -->
<g id="edge5175_Node000000_Node000001" class="edge">
<title>Node0&#45;&gt;Node1</title>
<g id="a_edge5175_Node000000_Node000001"><a xlink:title=" ">
<path fill="none" stroke="#63b8ff" d="M153.83,-15.25C161.74,-15.25 169.72,-15.25 177.51,-15.25"/>
<polygon fill="#63b8ff" stroke="#63b8ff" points="153.83,-11.75 143.83,-15.25 153.83,-18.75 153.83,-11.75"/>
</a>
</g>
</g>
<!-- Node2 -->
<g id="Node000002" class="node">
<title>Node2</title>
<g id="a_Node000002"><a xlink:href="classllvm_1_1BlockFrequencyAnalysis.html" target="_top" xlink:title="Analysis pass which computes BlockFrequencyInfo.">
<polygon fill="white" stroke="#666666" points="504,-24.88 356,-24.88 356,-5.63 504,-5.63 504,-24.88"/>
<text xml:space="preserve" text-anchor="middle" x="430" y="-11.38" font-family="Helvetica,sans-Serif" font-size="10.00">llvm::BlockFrequencyAnalysis</text>
</a>
</g>
</g>
<!-- Node1&#45;&gt;Node2 -->
<g id="edge5176_Node000001_Node000002" class="edge">
<title>Node1&#45;&gt;Node2</title>
<g id="a_edge5176_Node000001_Node000002"><a xlink:title=" ">
<path fill="none" stroke="#63b8ff" d="M331.97,-15.25C339.86,-15.25 347.83,-15.25 355.63,-15.25"/>
<polygon fill="#63b8ff" stroke="#63b8ff" points="332,-11.75 322,-15.25 332,-18.75 332,-11.75"/>
</a>
</g>
</g>
</g>
</svg>
