<?xml version="1.0" encoding="UTF-8" standalone="no"?>
<!DOCTYPE svg PUBLIC "-//W3C//DTD SVG 1.1//EN"
 "http://www.w3.org/Graphics/SVG/1.1/DTD/svg11.dtd">
<!-- Generated by graphviz version 14.1.3 (20260303.0454)
 -->
<!-- Title: Graphical Class Hierarchy Pages: 1 -->
<svg width="341pt" height="76pt"
 viewBox="0.00 0.00 341.00 76.00" xmlns="http://www.w3.org/2000/svg" xmlns:xlink="http://www.w3.org/1999/xlink">
<g id="graph0" class="graph" transform="scale(1 1) rotate(0) translate(4 71.88)">
<title>Graphical Class Hierarchy</title>
<!-- Node0 -->
<g id="Node000000" class="node">
<title>Node0</title>
<g id="a_Node000000"><a xlink:href="classllvm_1_1orc_1_1SymbolStringPtrBase.html" target="_top" xlink:title="Base class for both owning and non&#45;owning symbol&#45;string ptrs.">
<polygon fill="white" stroke="#666666" points="153.25,-40.25 0,-40.25 0,-21 153.25,-21 153.25,-40.25"/>
<text xml:space="preserve" text-anchor="middle" x="76.62" y="-26.75" font-family="Helvetica,sans-Serif" font-size="10.00">llvm::orc::SymbolStringPtrBase</text>
</a>
</g>
</g>
<!-- Node1 -->
<g id="Node000001" class="node">
<title>Node1</title>
<g id="a_Node000001"><a xlink:href="classllvm_1_1orc_1_1NonOwningSymbolStringPtr.html" target="_top" xlink:title="Non&#45;owning SymbolStringPool entry pointer.">
<polygon fill="white" stroke="#666666" points="332.75,-67.88 189.25,-67.88 189.25,-37.38 332.75,-37.38 332.75,-67.88"/>
<text xml:space="preserve" text-anchor="start" x="197.25" y="-54.38" font-family="Helvetica,sans-Serif" font-size="10.00">llvm::orc::NonOwningSymbol</text>
<text xml:space="preserve" text-anchor="middle" x="261" y="-43.12" font-family="Helvetica,sans-Serif" font-size="10.00">StringPtr</text>
</a>
</g>
</g>
<!-- Node0&#45;&gt;Node1 -->
<g id="edge5090_Node000000_Node000001" class="edge">
<title>Node0&#45;&gt;Node1</title>
<g id="a_edge5090_Node000000_Node000001"><a xlink:title=" ">
<path fill="none" stroke="#63b8ff" d="M164.9,-41.15C172.9,-42.12 180.94,-43.09 188.77,-44.03"/>
<polygon fill="#63b8ff" stroke="#63b8ff" points="165.5,-37.7 155.15,-39.98 164.66,-44.65 165.5,-37.7"/>
</a>
</g>
</g>
<!-- Node2 -->
<g id="Node000002" class="node">
<title>Node2</title>
<g id="a_Node000002"><a xlink:href="classllvm_1_1orc_1_1SymbolStringPtr.html" target="_top" xlink:title="Pointer to a pooled string representing a symbol name.">
<polygon fill="white" stroke="#666666" points="326.38,-19.25 195.62,-19.25 195.62,0 326.38,0 326.38,-19.25"/>
<text xml:space="preserve" text-anchor="middle" x="261" y="-5.75" font-family="Helvetica,sans-Serif" font-size="10.00">llvm::orc::SymbolStringPtr</text>
</a>
</g>
</g>
<!-- Node0&#45;&gt;Node2 -->
<g id="edge5091_Node000000_Node000002" class="edge">
<title>Node0&#45;&gt;Node2</title>
<g id="a_edge5091_Node000000_Node000002"><a xlink:title=" ">
<path fill="none" stroke="#63b8ff" d="M164.78,-20.59C175.1,-19.4 185.48,-18.21 195.4,-17.06"/>
<polygon fill="#63b8ff" stroke="#63b8ff" points="164.69,-17.08 155.15,-21.7 165.49,-24.03 164.69,-17.08"/>
</a>
</g>
</g>
</g>
</svg>
