<?xml version="1.0" encoding="UTF-8" standalone="no"?>
<!DOCTYPE svg PUBLIC "-//W3C//DTD SVG 1.1//EN"
 "http://www.w3.org/Graphics/SVG/1.1/DTD/svg11.dtd">
<!-- Generated by graphviz version 14.1.3 (20260303.0454)
 -->
<!-- Title: Graphical Class Hierarchy Pages: 1 -->
<svg width="278pt" height="286pt"
 viewBox="0.00 0.00 278.00 286.00" xmlns="http://www.w3.org/2000/svg" xmlns:xlink="http://www.w3.org/1999/xlink">
<g id="graph0" class="graph" transform="scale(1 1) rotate(0) translate(4 282.25)">
<title>Graphical Class Hierarchy</title>
<!-- Node0 -->
<g id="Node000000" class="node">
<title>Node0</title>
<g id="a_Node000000"><a xlink:href="classllvm_1_1MCSection.html" target="_top" xlink:title="Instances of this class represent a uniqued identifier for a section in the current translation unit.">
<polygon fill="white" stroke="#666666" points="88.75,-148.25 0,-148.25 0,-129 88.75,-129 88.75,-148.25"/>
<text xml:space="preserve" text-anchor="middle" x="44.38" y="-134.75" font-family="Helvetica,sans-Serif" font-size="10.00">llvm::MCSection</text>
</a>
</g>
</g>
<!-- Node1 -->
<g id="Node000001" class="node">
<title>Node1</title>
<g id="a_Node000001"><a xlink:href="classllvm_1_1MCSectionCOFF.html" target="_top" xlink:title="This represents a section on Windows.">
<polygon fill="white" stroke="#666666" points="255.12,-278.25 139.38,-278.25 139.38,-259 255.12,-259 255.12,-278.25"/>
<text xml:space="preserve" text-anchor="middle" x="197.25" y="-264.75" font-family="Helvetica,sans-Serif" font-size="10.00">llvm::MCSectionCOFF</text>
</a>
</g>
</g>
<!-- Node0&#45;&gt;Node1 -->
<g id="edge4656_Node000000_Node000001" class="edge">
<title>Node0&#45;&gt;Node1</title>
<g id="a_edge4656_Node000000_Node000001"><a xlink:title=" ">
<path fill="none" stroke="#63b8ff" d="M54.18,-158.77C66.32,-184.15 90.65,-227.27 124.75,-250.62 129.4,-253.81 134.56,-256.43 139.92,-258.58"/>
<polygon fill="#63b8ff" stroke="#63b8ff" points="57.44,-157.5 50.09,-149.87 51.08,-160.42 57.44,-157.5"/>
</a>
</g>
</g>
<!-- Node2 -->
<g id="Node000002" class="node">
<title>Node2</title>
<g id="a_Node000002"><a xlink:href="classllvm_1_1MCSectionDXContainer.html" target="_top" xlink:title=" ">
<polygon fill="white" stroke="#666666" points="269.75,-241.25 124.75,-241.25 124.75,-222 269.75,-222 269.75,-241.25"/>
<text xml:space="preserve" text-anchor="middle" x="197.25" y="-227.75" font-family="Helvetica,sans-Serif" font-size="10.00">llvm::MCSectionDXContainer</text>
</a>
</g>
</g>
<!-- Node0&#45;&gt;Node2 -->
<g id="edge4657_Node000000_Node000002" class="edge">
<title>Node0&#45;&gt;Node2</title>
<g id="a_edge4657_Node000000_Node000002"><a xlink:title=" ">
<path fill="none" stroke="#63b8ff" d="M60.12,-157.2C74.73,-174.36 98.67,-199.31 124.75,-213.62 130.47,-216.77 136.75,-219.37 143.14,-221.52"/>
<polygon fill="#63b8ff" stroke="#63b8ff" points="63.03,-155.23 53.96,-149.74 57.63,-159.68 63.03,-155.23"/>
</a>
</g>
</g>
<!-- Node3 -->
<g id="Node000003" class="node">
<title>Node3</title>
<g id="a_Node000003"><a xlink:href="classllvm_1_1MCSectionELF.html" target="_top" xlink:title="This represents a section on linux, lots of unix variants and some bare metal systems.">
<polygon fill="white" stroke="#666666" points="250.62,-204.25 143.88,-204.25 143.88,-185 250.62,-185 250.62,-204.25"/>
<text xml:space="preserve" text-anchor="middle" x="197.25" y="-190.75" font-family="Helvetica,sans-Serif" font-size="10.00">llvm::MCSectionELF</text>
</a>
</g>
</g>
<!-- Node0&#45;&gt;Node3 -->
<g id="edge4658_Node000000_Node000003" class="edge">
<title>Node0&#45;&gt;Node3</title>
<g id="a_edge4658_Node000000_Node000003"><a xlink:title=" ">
<path fill="none" stroke="#63b8ff" d="M73.62,-153.85C88.52,-161.44 107.29,-170.32 124.75,-176.62 132.94,-179.58 141.82,-182.24 150.45,-184.54"/>
<polygon fill="#63b8ff" stroke="#63b8ff" points="75.36,-150.81 64.87,-149.3 72.13,-157.02 75.36,-150.81"/>
</a>
</g>
</g>
<!-- Node4 -->
<g id="Node000004" class="node">
<title>Node4</title>
<g id="a_Node000004"><a xlink:href="classllvm_1_1MCSectionGOFF.html" target="_top" xlink:title=" ">
<polygon fill="white" stroke="#666666" points="255.12,-167.25 139.38,-167.25 139.38,-148 255.12,-148 255.12,-167.25"/>
<text xml:space="preserve" text-anchor="middle" x="197.25" y="-153.75" font-family="Helvetica,sans-Serif" font-size="10.00">llvm::MCSectionGOFF</text>
</a>
</g>
</g>
<!-- Node0&#45;&gt;Node4 -->
<g id="edge4659_Node000000_Node000004" class="edge">
<title>Node0&#45;&gt;Node4</title>
<g id="a_edge4659_Node000000_Node000004"><a xlink:title=" ">
<path fill="none" stroke="#63b8ff" d="M100.29,-145.54C112.86,-147.12 126.27,-148.81 138.94,-150.41"/>
<polygon fill="#63b8ff" stroke="#63b8ff" points="100.87,-142.09 90.52,-144.31 100,-149.03 100.87,-142.09"/>
</a>
</g>
</g>
<!-- Node5 -->
<g id="Node000005" class="node">
<title>Node5</title>
<g id="a_Node000005"><a xlink:href="classllvm_1_1MCSectionMachO.html" target="_top" xlink:title="This represents a section on a Mach&#45;O system (used by Mac OS X).">
<polygon fill="white" stroke="#666666" points="257.38,-130.25 137.12,-130.25 137.12,-111 257.38,-111 257.38,-130.25"/>
<text xml:space="preserve" text-anchor="middle" x="197.25" y="-116.75" font-family="Helvetica,sans-Serif" font-size="10.00">llvm::MCSectionMachO</text>
</a>
</g>
</g>
<!-- Node0&#45;&gt;Node5 -->
<g id="edge4660_Node000000_Node000005" class="edge">
<title>Node0&#45;&gt;Node5</title>
<g id="a_edge4660_Node000000_Node000005"><a xlink:title=" ">
<path fill="none" stroke="#63b8ff" d="M100.14,-132.09C112.03,-130.67 124.65,-129.17 136.71,-127.73"/>
<polygon fill="#63b8ff" stroke="#63b8ff" points="100.03,-128.58 90.52,-133.24 100.86,-135.53 100.03,-128.58"/>
</a>
</g>
</g>
<!-- Node6 -->
<g id="Node000006" class="node">
<title>Node6</title>
<g id="a_Node000006"><a xlink:href="classllvm_1_1MCSectionSPIRV.html" target="_top" xlink:title=" ">
<polygon fill="white" stroke="#666666" points="257,-93.25 137.5,-93.25 137.5,-74 257,-74 257,-93.25"/>
<text xml:space="preserve" text-anchor="middle" x="197.25" y="-79.75" font-family="Helvetica,sans-Serif" font-size="10.00">llvm::MCSectionSPIRV</text>
</a>
</g>
</g>
<!-- Node0&#45;&gt;Node6 -->
<g id="edge4661_Node000000_Node000006" class="edge">
<title>Node0&#45;&gt;Node6</title>
<g id="a_edge4661_Node000000_Node000006"><a xlink:title=" ">
<path fill="none" stroke="#63b8ff" d="M74.26,-123.55C89.07,-116.23 107.57,-107.73 124.75,-101.62 133.07,-98.67 142.1,-96 150.86,-93.67"/>
<polygon fill="#63b8ff" stroke="#63b8ff" points="72.91,-120.31 65.55,-127.93 76.05,-126.56 72.91,-120.31"/>
</a>
</g>
</g>
<!-- Node7 -->
<g id="Node000007" class="node">
<title>Node7</title>
<g id="a_Node000007"><a xlink:href="classllvm_1_1MCSectionWasm.html" target="_top" xlink:title="This represents a section on wasm.">
<polygon fill="white" stroke="#666666" points="255.5,-56.25 139,-56.25 139,-37 255.5,-37 255.5,-56.25"/>
<text xml:space="preserve" text-anchor="middle" x="197.25" y="-42.75" font-family="Helvetica,sans-Serif" font-size="10.00">llvm::MCSectionWasm</text>
</a>
</g>
</g>
<!-- Node0&#45;&gt;Node7 -->
<g id="edge4662_Node000000_Node000007" class="edge">
<title>Node0&#45;&gt;Node7</title>
<g id="a_edge4662_Node000000_Node000007"><a xlink:title=" ">
<path fill="none" stroke="#63b8ff" d="M60.4,-120.03C75.08,-103.11 98.92,-78.69 124.75,-64.62 130.6,-61.44 137.02,-58.81 143.54,-56.64"/>
<polygon fill="#63b8ff" stroke="#63b8ff" points="57.97,-117.49 54.22,-127.39 63.33,-121.99 57.97,-117.49"/>
</a>
</g>
</g>
<!-- Node8 -->
<g id="Node000008" class="node">
<title>Node8</title>
<g id="a_Node000008"><a xlink:href="classllvm_1_1MCSectionXCOFF.html" target="_top" xlink:title=" ">
<polygon fill="white" stroke="#666666" points="258.5,-19.25 136,-19.25 136,0 258.5,0 258.5,-19.25"/>
<text xml:space="preserve" text-anchor="middle" x="197.25" y="-5.75" font-family="Helvetica,sans-Serif" font-size="10.00">llvm::MCSectionXCOFF</text>
</a>
</g>
</g>
<!-- Node0&#45;&gt;Node8 -->
<g id="edge4663_Node000000_Node000008" class="edge">
<title>Node0&#45;&gt;Node8</title>
<g id="a_edge4663_Node000000_Node000008"><a xlink:title=" ">
<path fill="none" stroke="#63b8ff" d="M54.41,-118.28C66.66,-93.07 90.97,-50.65 124.75,-27.62 129.4,-24.45 134.57,-21.84 139.94,-19.69"/>
<polygon fill="#63b8ff" stroke="#63b8ff" points="51.33,-116.6 50.27,-127.14 57.67,-119.56 51.33,-116.6"/>
</a>
</g>
</g>
</g>
</svg>
