<?xml version="1.0" encoding="UTF-8" standalone="no"?>
<!DOCTYPE svg PUBLIC "-//W3C//DTD SVG 1.1//EN"
 "http://www.w3.org/Graphics/SVG/1.1/DTD/svg11.dtd">
<!-- Generated by graphviz version 14.1.3 (20260303.0454)
 -->
<!-- Title: Graphical Class Hierarchy Pages: 1 -->
<svg width="336pt" height="137pt"
 viewBox="0.00 0.00 336.00 137.00" xmlns="http://www.w3.org/2000/svg" xmlns:xlink="http://www.w3.org/1999/xlink">
<g id="graph0" class="graph" transform="scale(1 1) rotate(0) translate(4 132.5)">
<title>Graphical Class Hierarchy</title>
<!-- Node0 -->
<g id="Node000000" class="node">
<title>Node0</title>
<g id="a_Node000000"><a xlink:href="classllvm_1_1sandboxir_1_1SeedBundle.html" target="_top" xlink:title="A set of candidate Instructions for vectorizing together.">
<polygon fill="white" stroke="#666666" points="140.5,-73.88 0,-73.88 0,-54.62 140.5,-54.62 140.5,-73.88"/>
<text xml:space="preserve" text-anchor="middle" x="70.25" y="-60.38" font-family="Helvetica,sans-Serif" font-size="10.00">llvm::sandboxir::SeedBundle</text>
</a>
</g>
</g>
<!-- Node1 -->
<g id="Node000001" class="node">
<title>Node1</title>
<g id="a_Node000001"><a xlink:href="classllvm_1_1sandboxir_1_1MemSeedBundle.html" target="_top" xlink:title=" ">
<polygon fill="white" stroke="#666666" points="328.25,-128.5 176.5,-128.5 176.5,-98 328.25,-98 328.25,-128.5"/>
<text xml:space="preserve" text-anchor="start" x="184.5" y="-115" font-family="Helvetica,sans-Serif" font-size="10.00">llvm::sandboxir::MemSeed</text>
<text xml:space="preserve" text-anchor="middle" x="252.38" y="-103.75" font-family="Helvetica,sans-Serif" font-size="10.00">Bundle&lt; sandboxir::StoreInst &gt;</text>
</a>
</g>
</g>
<!-- Node0&#45;&gt;Node1 -->
<g id="edge6240_Node000000_Node000001" class="edge">
<title>Node0&#45;&gt;Node1</title>
<g id="a_edge6240_Node000000_Node000001"><a xlink:title=" ">
<path fill="none" stroke="#63b8ff" d="M118.97,-77.23C141.88,-83.46 169.52,-90.98 193.61,-97.54"/>
<polygon fill="#63b8ff" stroke="#63b8ff" points="120.16,-73.93 109.6,-74.68 118.33,-80.68 120.16,-73.93"/>
</a>
</g>
</g>
<!-- Node2 -->
<g id="Node000002" class="node">
<title>Node2</title>
<g id="a_Node000002"><a xlink:href="classllvm_1_1sandboxir_1_1MemSeedBundle.html" target="_top" xlink:title=" ">
<polygon fill="white" stroke="#666666" points="327.12,-79.5 177.62,-79.5 177.62,-49 327.12,-49 327.12,-79.5"/>
<text xml:space="preserve" text-anchor="start" x="185.62" y="-66" font-family="Helvetica,sans-Serif" font-size="10.00">llvm::sandboxir::MemSeed</text>
<text xml:space="preserve" text-anchor="middle" x="252.38" y="-54.75" font-family="Helvetica,sans-Serif" font-size="10.00">Bundle&lt; sandboxir::LoadInst &gt;</text>
</a>
</g>
</g>
<!-- Node0&#45;&gt;Node2 -->
<g id="edge6241_Node000000_Node000002" class="edge">
<title>Node0&#45;&gt;Node2</title>
<g id="a_edge6241_Node000000_Node000002"><a xlink:title=" ">
<path fill="none" stroke="#63b8ff" d="M152.15,-64.25C160.47,-64.25 168.9,-64.25 177.14,-64.25"/>
<polygon fill="#63b8ff" stroke="#63b8ff" points="152.4,-60.75 142.4,-64.25 152.4,-67.75 152.4,-60.75"/>
</a>
</g>
</g>
<!-- Node3 -->
<g id="Node000003" class="node">
<title>Node3</title>
<g id="a_Node000003"><a xlink:href="classllvm_1_1sandboxir_1_1MemSeedBundle.html" target="_top" xlink:title="Specialization of SeedBundle for memory access instructions.">
<polygon fill="white" stroke="#666666" points="318.5,-30.5 186.25,-30.5 186.25,0 318.5,0 318.5,-30.5"/>
<text xml:space="preserve" text-anchor="start" x="194.25" y="-17" font-family="Helvetica,sans-Serif" font-size="10.00">llvm::sandboxir::MemSeed</text>
<text xml:space="preserve" text-anchor="middle" x="252.38" y="-5.75" font-family="Helvetica,sans-Serif" font-size="10.00">Bundle&lt; LoadOrStoreT &gt;</text>
</a>
</g>
</g>
<!-- Node0&#45;&gt;Node3 -->
<g id="edge6242_Node000000_Node000003" class="edge">
<title>Node0&#45;&gt;Node3</title>
<g id="a_edge6242_Node000000_Node000003"><a xlink:title=" ">
<path fill="none" stroke="#63b8ff" d="M118.97,-51.27C141.88,-45.04 169.52,-37.52 193.61,-30.96"/>
<polygon fill="#63b8ff" stroke="#63b8ff" points="118.33,-47.82 109.6,-53.82 120.16,-54.57 118.33,-47.82"/>
</a>
</g>
</g>
</g>
</svg>
