<?xml version="1.0" encoding="UTF-8" standalone="no"?>
<!DOCTYPE svg PUBLIC "-//W3C//DTD SVG 1.1//EN"
 "http://www.w3.org/Graphics/SVG/1.1/DTD/svg11.dtd">
<!-- Generated by graphviz version 14.1.3 (20260303.0454)
 -->
<!-- Title: Graphical Class Hierarchy Pages: 1 -->
<svg width="779pt" height="115pt"
 viewBox="0.00 0.00 779.00 115.00" xmlns="http://www.w3.org/2000/svg" xmlns:xlink="http://www.w3.org/1999/xlink">
<g id="graph0" class="graph" transform="scale(1 1) rotate(0) translate(4 111.38)">
<title>Graphical Class Hierarchy</title>
<!-- Node0 -->
<g id="Node000000" class="node">
<title>Node0</title>
<g id="a_Node000000"><a xlink:href="classllvm_1_1SmallVectorBase.html" target="_top" xlink:title=" ">
<polygon fill="white" stroke="#666666" points="118.75,-107.38 0,-107.38 0,-54.38 118.75,-54.38 118.75,-107.38"/>
<text xml:space="preserve" text-anchor="start" x="8" y="-93.88" font-family="Helvetica,sans-Serif" font-size="10.00">llvm::SmallVectorBase</text>
<text xml:space="preserve" text-anchor="start" x="8" y="-82.62" font-family="Helvetica,sans-Serif" font-size="10.00">&lt; SmallVectorSizeType</text>
<text xml:space="preserve" text-anchor="start" x="8" y="-71.38" font-family="Helvetica,sans-Serif" font-size="10.00">&lt; std::pair&lt; llvm::Use</text>
<text xml:space="preserve" text-anchor="middle" x="59.38" y="-60.12" font-family="Helvetica,sans-Serif" font-size="10.00"> *, llvm::Value * &gt; &gt; &gt;</text>
</a>
</g>
</g>
<!-- Node1 -->
<g id="Node000001" class="node">
<title>Node1</title>
<g id="a_Node000001"><a xlink:href="classllvm_1_1SmallVectorTemplateCommon.html" target="_top" xlink:title=" ">
<polygon fill="white" stroke="#666666" points="287.75,-101.75 154.75,-101.75 154.75,-60 287.75,-60 287.75,-101.75"/>
<text xml:space="preserve" text-anchor="start" x="162.75" y="-88.25" font-family="Helvetica,sans-Serif" font-size="10.00">llvm::SmallVectorTemplate</text>
<text xml:space="preserve" text-anchor="start" x="162.75" y="-77" font-family="Helvetica,sans-Serif" font-size="10.00">Common&lt; std::pair&lt; llvm</text>
<text xml:space="preserve" text-anchor="middle" x="221.25" y="-65.75" font-family="Helvetica,sans-Serif" font-size="10.00">::Use *, llvm::Value * &gt; &gt;</text>
</a>
</g>
</g>
<!-- Node0&#45;&gt;Node1 -->
<g id="edge9949_Node000000_Node000001" class="edge">
<title>Node0&#45;&gt;Node1</title>
<g id="a_edge9949_Node000000_Node000001"><a xlink:title=" ">
<path fill="none" stroke="#63b8ff" d="M130.48,-80.88C138.41,-80.88 146.47,-80.88 154.34,-80.88"/>
<polygon fill="#63b8ff" stroke="#63b8ff" points="130.51,-77.38 120.51,-80.88 130.51,-84.38 130.51,-77.38"/>
</a>
</g>
</g>
<!-- Node2 -->
<g id="Node000002" class="node">
<title>Node2</title>
<g id="a_Node000002"><a xlink:href="classllvm_1_1SmallVectorTemplateBase.html" target="_top" xlink:title=" ">
<polygon fill="white" stroke="#666666" points="456.75,-101.75 323.75,-101.75 323.75,-60 456.75,-60 456.75,-101.75"/>
<text xml:space="preserve" text-anchor="start" x="331.75" y="-88.25" font-family="Helvetica,sans-Serif" font-size="10.00">llvm::SmallVectorTemplate</text>
<text xml:space="preserve" text-anchor="start" x="331.75" y="-77" font-family="Helvetica,sans-Serif" font-size="10.00">Base&lt; std::pair&lt; llvm::</text>
<text xml:space="preserve" text-anchor="middle" x="390.25" y="-65.75" font-family="Helvetica,sans-Serif" font-size="10.00">Use *, llvm::Value * &gt; &gt;</text>
</a>
</g>
</g>
<!-- Node1&#45;&gt;Node2 -->
<g id="edge9950_Node000001_Node000002" class="edge">
<title>Node1&#45;&gt;Node2</title>
<g id="a_edge9950_Node000001_Node000002"><a xlink:title=" ">
<path fill="none" stroke="#63b8ff" d="M299.13,-80.88C307.23,-80.88 315.41,-80.88 323.37,-80.88"/>
<polygon fill="#63b8ff" stroke="#63b8ff" points="299.29,-77.38 289.29,-80.88 299.29,-84.38 299.29,-77.38"/>
</a>
</g>
</g>
<!-- Node3 -->
<g id="Node000003" class="node">
<title>Node3</title>
<g id="a_Node000003"><a xlink:href="classllvm_1_1SmallVectorImpl.html" target="_top" xlink:title=" ">
<polygon fill="white" stroke="#666666" points="612.25,-101.75 500.25,-101.75 500.25,-60 612.25,-60 612.25,-101.75"/>
<text xml:space="preserve" text-anchor="start" x="508.25" y="-88.25" font-family="Helvetica,sans-Serif" font-size="10.00">llvm::SmallVectorImpl</text>
<text xml:space="preserve" text-anchor="start" x="508.25" y="-77" font-family="Helvetica,sans-Serif" font-size="10.00">&lt; std::pair&lt; llvm::Use</text>
<text xml:space="preserve" text-anchor="middle" x="556.25" y="-65.75" font-family="Helvetica,sans-Serif" font-size="10.00"> *, llvm::Value * &gt; &gt;</text>
</a>
</g>
</g>
<!-- Node2&#45;&gt;Node3 -->
<g id="edge9951_Node000002_Node000003" class="edge">
<title>Node2&#45;&gt;Node3</title>
<g id="a_edge9951_Node000002_Node000003"><a xlink:title=" ">
<path fill="none" stroke="#63b8ff" d="M468.41,-80.88C478.99,-80.88 489.67,-80.88 499.75,-80.88"/>
<polygon fill="#63b8ff" stroke="#63b8ff" points="468.52,-77.38 458.52,-80.88 468.52,-84.38 468.52,-77.38"/>
</a>
</g>
</g>
<!-- Node4 -->
<g id="Node000004" class="node">
<title>Node4</title>
<g id="a_Node000004"><a xlink:href="classllvm_1_1SmallVector.html" target="_top" xlink:title=" ">
<polygon fill="white" stroke="#666666" points="770.75,-71.75 655.75,-71.75 655.75,-30 770.75,-30 770.75,-71.75"/>
<text xml:space="preserve" text-anchor="start" x="663.75" y="-58.25" font-family="Helvetica,sans-Serif" font-size="10.00">llvm::SmallVector&lt;</text>
<text xml:space="preserve" text-anchor="start" x="663.75" y="-47" font-family="Helvetica,sans-Serif" font-size="10.00"> std::pair&lt; llvm::Use</text>
<text xml:space="preserve" text-anchor="middle" x="713.25" y="-35.75" font-family="Helvetica,sans-Serif" font-size="10.00"> *, llvm::Value * &gt;, N &gt;</text>
</a>
</g>
</g>
<!-- Node3&#45;&gt;Node4 -->
<g id="edge9952_Node000003_Node000004" class="edge">
<title>Node3&#45;&gt;Node4</title>
<g id="a_edge9952_Node000003_Node000004"><a xlink:title=" ">
<path fill="none" stroke="#63b8ff" d="M623.35,-68.08C634.05,-66.01 645.05,-63.88 655.51,-61.86"/>
<polygon fill="#63b8ff" stroke="#63b8ff" points="622.97,-64.59 613.82,-69.93 624.3,-71.46 622.97,-64.59"/>
</a>
</g>
</g>
<!-- Node5 -->
<g id="Node000005" class="node">
<title>Node5</title>
<g id="a_Node000005"><a xlink:href="structllvm_1_1SmallVectorStorage.html" target="_top" xlink:title=" ">
<polygon fill="white" stroke="#666666" points="619.75,-41.75 492.75,-41.75 492.75,0 619.75,0 619.75,-41.75"/>
<text xml:space="preserve" text-anchor="start" x="500.75" y="-28.25" font-family="Helvetica,sans-Serif" font-size="10.00">llvm::SmallVectorStorage</text>
<text xml:space="preserve" text-anchor="start" x="500.75" y="-17" font-family="Helvetica,sans-Serif" font-size="10.00">&lt; std::pair&lt; llvm::Use</text>
<text xml:space="preserve" text-anchor="middle" x="556.25" y="-5.75" font-family="Helvetica,sans-Serif" font-size="10.00"> *, llvm::Value * &gt;, N &gt;</text>
</a>
</g>
</g>
<!-- Node5&#45;&gt;Node4 -->
<g id="edge9953_Node000005_Node000004" class="edge">
<title>Node5&#45;&gt;Node4</title>
<g id="a_edge9953_Node000005_Node000004"><a xlink:title=" ">
<path fill="none" stroke="#8b1a1a" d="M630.98,-35.15C639.19,-36.74 647.47,-38.34 655.42,-39.88"/>
<polygon fill="#8b1a1a" stroke="#8b1a1a" points="631.82,-31.74 621.33,-33.28 630.49,-38.61 631.82,-31.74"/>
</a>
</g>
</g>
</g>
</svg>
