<?xml version="1.0" encoding="UTF-8" standalone="no"?>
<!DOCTYPE svg PUBLIC "-//W3C//DTD SVG 1.1//EN"
 "http://www.w3.org/Graphics/SVG/1.1/DTD/svg11.dtd">
<!-- Generated by graphviz version 14.1.3 (20260303.0454)
 -->
<!-- Title: Graphical Class Hierarchy Pages: 1 -->
<svg width="892pt" height="138pt"
 viewBox="0.00 0.00 892.00 138.00" xmlns="http://www.w3.org/2000/svg" xmlns:xlink="http://www.w3.org/1999/xlink">
<g id="graph0" class="graph" transform="scale(1 1) rotate(0) translate(4 133.62)">
<title>Graphical Class Hierarchy</title>
<!-- Node0 -->
<g id="Node000000" class="node">
<title>Node0</title>
<g id="a_Node000000"><a xlink:href="classllvm_1_1SmallVectorBase.html" target="_top" xlink:title=" ">
<polygon fill="white" stroke="#666666" points="160,-129.62 0,-129.62 0,-76.62 160,-76.62 160,-129.62"/>
<text xml:space="preserve" text-anchor="start" x="8" y="-116.12" font-family="Helvetica,sans-Serif" font-size="10.00">llvm::SmallVectorBase</text>
<text xml:space="preserve" text-anchor="start" x="8" y="-104.88" font-family="Helvetica,sans-Serif" font-size="10.00">&lt; SmallVectorSizeType</text>
<text xml:space="preserve" text-anchor="start" x="8" y="-93.62" font-family="Helvetica,sans-Serif" font-size="10.00">&lt; std::unique_ptr&lt; ScheduleData</text>
<text xml:space="preserve" text-anchor="middle" x="80" y="-82.38" font-family="Helvetica,sans-Serif" font-size="10.00">[]&gt; &gt; &gt;</text>
</a>
</g>
</g>
<!-- Node1 -->
<g id="Node000001" class="node">
<title>Node1</title>
<g id="a_Node000001"><a xlink:href="classllvm_1_1SmallVectorTemplateCommon.html" target="_top" xlink:title=" ">
<polygon fill="white" stroke="#666666" points="329,-124 196,-124 196,-82.25 329,-82.25 329,-124"/>
<text xml:space="preserve" text-anchor="start" x="204" y="-110.5" font-family="Helvetica,sans-Serif" font-size="10.00">llvm::SmallVectorTemplate</text>
<text xml:space="preserve" text-anchor="start" x="204" y="-99.25" font-family="Helvetica,sans-Serif" font-size="10.00">Common&lt; std::unique_ptr</text>
<text xml:space="preserve" text-anchor="middle" x="262.5" y="-88" font-family="Helvetica,sans-Serif" font-size="10.00">&lt; ScheduleData[]&gt; &gt;</text>
</a>
</g>
</g>
<!-- Node0&#45;&gt;Node1 -->
<g id="edge10290_Node000000_Node000001" class="edge">
<title>Node0&#45;&gt;Node1</title>
<g id="a_edge10290_Node000000_Node000001"><a xlink:title=" ">
<path fill="none" stroke="#63b8ff" d="M171.75,-103.12C179.78,-103.12 187.79,-103.12 195.55,-103.12"/>
<polygon fill="#63b8ff" stroke="#63b8ff" points="171.95,-99.63 161.95,-103.13 171.95,-106.63 171.95,-99.63"/>
</a>
</g>
</g>
<!-- Node2 -->
<g id="Node000002" class="node">
<title>Node2</title>
<g id="a_Node000002"><a xlink:href="classllvm_1_1SmallVectorTemplateBase.html" target="_top" xlink:title=" ">
<polygon fill="white" stroke="#666666" points="498,-124 365,-124 365,-82.25 498,-82.25 498,-124"/>
<text xml:space="preserve" text-anchor="start" x="373" y="-110.5" font-family="Helvetica,sans-Serif" font-size="10.00">llvm::SmallVectorTemplate</text>
<text xml:space="preserve" text-anchor="start" x="373" y="-99.25" font-family="Helvetica,sans-Serif" font-size="10.00">Base&lt; std::unique_ptr&lt;</text>
<text xml:space="preserve" text-anchor="middle" x="431.5" y="-88" font-family="Helvetica,sans-Serif" font-size="10.00"> ScheduleData[]&gt; &gt;</text>
</a>
</g>
</g>
<!-- Node1&#45;&gt;Node2 -->
<g id="edge10291_Node000001_Node000002" class="edge">
<title>Node1&#45;&gt;Node2</title>
<g id="a_edge10291_Node000001_Node000002"><a xlink:title=" ">
<path fill="none" stroke="#63b8ff" d="M340.38,-103.12C348.48,-103.12 356.66,-103.12 364.62,-103.12"/>
<polygon fill="#63b8ff" stroke="#63b8ff" points="340.54,-99.63 330.54,-103.13 340.54,-106.63 340.54,-99.63"/>
</a>
</g>
</g>
<!-- Node3 -->
<g id="Node000003" class="node">
<title>Node3</title>
<g id="a_Node000003"><a xlink:href="classllvm_1_1SmallVectorImpl.html" target="_top" xlink:title=" ">
<polygon fill="white" stroke="#666666" points="694,-124 555,-124 555,-82.25 694,-82.25 694,-124"/>
<text xml:space="preserve" text-anchor="start" x="563" y="-110.5" font-family="Helvetica,sans-Serif" font-size="10.00">llvm::SmallVectorImpl</text>
<text xml:space="preserve" text-anchor="start" x="563" y="-99.25" font-family="Helvetica,sans-Serif" font-size="10.00">&lt; std::unique_ptr&lt; Schedule</text>
<text xml:space="preserve" text-anchor="middle" x="624.5" y="-88" font-family="Helvetica,sans-Serif" font-size="10.00">Data[]&gt; &gt;</text>
</a>
</g>
</g>
<!-- Node2&#45;&gt;Node3 -->
<g id="edge10292_Node000002_Node000003" class="edge">
<title>Node2&#45;&gt;Node3</title>
<g id="a_edge10292_Node000002_Node000003"><a xlink:title=" ">
<path fill="none" stroke="#63b8ff" d="M509.71,-103.12C524.55,-103.12 540.01,-103.12 554.57,-103.12"/>
<polygon fill="#63b8ff" stroke="#63b8ff" points="510.01,-99.63 500.01,-103.13 510.01,-106.63 510.01,-99.63"/>
</a>
</g>
</g>
<!-- Node4 -->
<g id="Node000004" class="node">
<title>Node4</title>
<g id="a_Node000004"><a xlink:href="classllvm_1_1SmallVector.html" target="_top" xlink:title=" ">
<polygon fill="white" stroke="#666666" points="884,-88 751,-88 751,-46.25 884,-46.25 884,-88"/>
<text xml:space="preserve" text-anchor="start" x="759" y="-74.5" font-family="Helvetica,sans-Serif" font-size="10.00">llvm::SmallVector&lt;</text>
<text xml:space="preserve" text-anchor="start" x="759" y="-63.25" font-family="Helvetica,sans-Serif" font-size="10.00"> std::unique_ptr&lt; Schedule</text>
<text xml:space="preserve" text-anchor="middle" x="817.5" y="-52" font-family="Helvetica,sans-Serif" font-size="10.00">Data[]&gt; &gt;</text>
</a>
</g>
</g>
<!-- Node3&#45;&gt;Node4 -->
<g id="edge10293_Node000003_Node000004" class="edge">
<title>Node3&#45;&gt;Node4</title>
<g id="a_edge10293_Node000003_Node000004"><a xlink:title=" ">
<path fill="none" stroke="#63b8ff" d="M705.74,-88C720.66,-85.19 736.09,-82.28 750.52,-79.56"/>
<polygon fill="#63b8ff" stroke="#63b8ff" points="705.12,-84.56 695.94,-89.85 706.42,-91.43 705.12,-84.56"/>
</a>
</g>
</g>
<!-- Node5 -->
<g id="Node000005" class="node">
<title>Node5</title>
<g id="a_Node000005"><a xlink:title=" ">
<polygon fill="#e0e0e0" stroke="#999999" points="715,-64.25 534,-64.25 534,0 715,0 715,-64.25"/>
<text xml:space="preserve" text-anchor="start" x="542" y="-50.75" font-family="Helvetica,sans-Serif" font-size="10.00">SmallVectorStorage</text>
<text xml:space="preserve" text-anchor="start" x="542" y="-39.5" font-family="Helvetica,sans-Serif" font-size="10.00">&lt; std::unique_ptr&lt; Schedule</text>
<text xml:space="preserve" text-anchor="start" x="542" y="-28.25" font-family="Helvetica,sans-Serif" font-size="10.00">Data[]&gt;, CalculateSmallVectorDefault</text>
<text xml:space="preserve" text-anchor="start" x="542" y="-17" font-family="Helvetica,sans-Serif" font-size="10.00">InlinedElements&lt; std::unique_ptr</text>
<text xml:space="preserve" text-anchor="middle" x="624.5" y="-5.75" font-family="Helvetica,sans-Serif" font-size="10.00">&lt; ScheduleData[]&gt; &gt;::value &gt;</text>
</a>
</g>
</g>
<!-- Node5&#45;&gt;Node4 -->
<g id="edge10294_Node000005_Node000004" class="edge">
<title>Node5&#45;&gt;Node4</title>
<g id="a_edge10294_Node000005_Node000004"><a xlink:title=" ">
<path fill="none" stroke="#8b1a1a" d="M726.58,-50.65C734.76,-52.15 742.89,-53.64 750.72,-55.07"/>
<polygon fill="#8b1a1a" stroke="#8b1a1a" points="727.36,-47.23 716.9,-48.87 726.1,-54.12 727.36,-47.23"/>
</a>
</g>
</g>
</g>
</svg>
