<?xml version="1.0" encoding="UTF-8" standalone="no"?>
<!DOCTYPE svg PUBLIC "-//W3C//DTD SVG 1.1//EN"
 "http://www.w3.org/Graphics/SVG/1.1/DTD/svg11.dtd">
<!-- Generated by graphviz version 14.1.3 (20260303.0454)
 -->
<!-- Title: Graphical Class Hierarchy Pages: 1 -->
<svg width="765pt" height="93pt"
 viewBox="0.00 0.00 765.00 93.00" xmlns="http://www.w3.org/2000/svg" xmlns:xlink="http://www.w3.org/1999/xlink">
<g id="graph0" class="graph" transform="scale(1 1) rotate(0) translate(4 89.12)">
<title>Graphical Class Hierarchy</title>
<!-- Node0 -->
<g id="Node000000" class="node">
<title>Node0</title>
<g id="a_Node000000"><a xlink:href="classllvm_1_1SmallVectorBase.html" target="_top" xlink:title=" ">
<polygon fill="white" stroke="#666666" points="118.75,-85.12 0,-85.12 0,-43.38 118.75,-43.38 118.75,-85.12"/>
<text xml:space="preserve" text-anchor="start" x="8" y="-71.62" font-family="Helvetica,sans-Serif" font-size="10.00">llvm::SmallVectorBase</text>
<text xml:space="preserve" text-anchor="start" x="8" y="-60.38" font-family="Helvetica,sans-Serif" font-size="10.00">&lt; SmallVectorSizeType</text>
<text xml:space="preserve" text-anchor="middle" x="59.38" y="-49.12" font-family="Helvetica,sans-Serif" font-size="10.00">&lt; llvm::Attribute &gt; &gt;</text>
</a>
</g>
</g>
<!-- Node1 -->
<g id="Node000001" class="node">
<title>Node1</title>
<g id="a_Node000001"><a xlink:href="classllvm_1_1SmallVectorTemplateCommon.html" target="_top" xlink:title=" ">
<polygon fill="white" stroke="#666666" points="289.25,-79.5 154.75,-79.5 154.75,-49 289.25,-49 289.25,-79.5"/>
<text xml:space="preserve" text-anchor="start" x="162.75" y="-66" font-family="Helvetica,sans-Serif" font-size="10.00">llvm::SmallVectorTemplate</text>
<text xml:space="preserve" text-anchor="middle" x="222" y="-54.75" font-family="Helvetica,sans-Serif" font-size="10.00">Common&lt; llvm::Attribute &gt;</text>
</a>
</g>
</g>
<!-- Node0&#45;&gt;Node1 -->
<g id="edge8267_Node000000_Node000001" class="edge">
<title>Node0&#45;&gt;Node1</title>
<g id="a_edge8267_Node000000_Node000001"><a xlink:title=" ">
<path fill="none" stroke="#63b8ff" d="M130.1,-64.25C138.18,-64.25 146.4,-64.25 154.43,-64.25"/>
<polygon fill="#63b8ff" stroke="#63b8ff" points="130.33,-60.75 120.33,-64.25 130.33,-67.75 130.33,-60.75"/>
</a>
</g>
</g>
<!-- Node2 -->
<g id="Node000002" class="node">
<title>Node2</title>
<g id="a_Node000002"><a xlink:href="classllvm_1_1SmallVectorTemplateBase.html" target="_top" xlink:title=" ">
<polygon fill="white" stroke="#666666" points="458.25,-79.5 325.25,-79.5 325.25,-49 458.25,-49 458.25,-79.5"/>
<text xml:space="preserve" text-anchor="start" x="333.25" y="-66" font-family="Helvetica,sans-Serif" font-size="10.00">llvm::SmallVectorTemplate</text>
<text xml:space="preserve" text-anchor="middle" x="391.75" y="-54.75" font-family="Helvetica,sans-Serif" font-size="10.00">Base&lt; llvm::Attribute &gt;</text>
</a>
</g>
</g>
<!-- Node1&#45;&gt;Node2 -->
<g id="edge8268_Node000001_Node000002" class="edge">
<title>Node1&#45;&gt;Node2</title>
<g id="a_edge8268_Node000001_Node000002"><a xlink:title=" ">
<path fill="none" stroke="#63b8ff" d="M300.68,-64.25C308.79,-64.25 316.97,-64.25 324.93,-64.25"/>
<polygon fill="#63b8ff" stroke="#63b8ff" points="300.81,-60.75 290.81,-64.25 300.81,-67.75 300.81,-60.75"/>
</a>
</g>
</g>
<!-- Node3 -->
<g id="Node000003" class="node">
<title>Node3</title>
<g id="a_Node000003"><a xlink:href="classllvm_1_1SmallVectorImpl.html" target="_top" xlink:title=" ">
<polygon fill="white" stroke="#666666" points="613.75,-79.5 501.75,-79.5 501.75,-49 613.75,-49 613.75,-79.5"/>
<text xml:space="preserve" text-anchor="start" x="509.75" y="-66" font-family="Helvetica,sans-Serif" font-size="10.00">llvm::SmallVectorImpl</text>
<text xml:space="preserve" text-anchor="middle" x="557.75" y="-54.75" font-family="Helvetica,sans-Serif" font-size="10.00">&lt; llvm::Attribute &gt;</text>
</a>
</g>
</g>
<!-- Node2&#45;&gt;Node3 -->
<g id="edge8269_Node000002_Node000003" class="edge">
<title>Node2&#45;&gt;Node3</title>
<g id="a_edge8269_Node000002_Node000003"><a xlink:title=" ">
<path fill="none" stroke="#63b8ff" d="M469.91,-64.25C480.49,-64.25 491.17,-64.25 501.25,-64.25"/>
<polygon fill="#63b8ff" stroke="#63b8ff" points="470.02,-60.75 460.02,-64.25 470.02,-67.75 470.02,-60.75"/>
</a>
</g>
</g>
<!-- Node4 -->
<g id="Node000004" class="node">
<title>Node4</title>
<g id="a_Node000004"><a xlink:href="classllvm_1_1SmallVector.html" target="_top" xlink:title=" ">
<polygon fill="white" stroke="#666666" points="757.25,-54.5 657.25,-54.5 657.25,-24 757.25,-24 757.25,-54.5"/>
<text xml:space="preserve" text-anchor="start" x="665.25" y="-41" font-family="Helvetica,sans-Serif" font-size="10.00">llvm::SmallVector&lt;</text>
<text xml:space="preserve" text-anchor="middle" x="707.25" y="-29.75" font-family="Helvetica,sans-Serif" font-size="10.00"> llvm::Attribute, 8 &gt;</text>
</a>
</g>
</g>
<!-- Node3&#45;&gt;Node4 -->
<g id="edge8270_Node000003_Node000004" class="edge">
<title>Node3&#45;&gt;Node4</title>
<g id="a_edge8270_Node000003_Node000004"><a xlink:title=" ">
<path fill="none" stroke="#63b8ff" d="M625.12,-53C635.81,-51.19 646.71,-49.34 656.91,-47.61"/>
<polygon fill="#63b8ff" stroke="#63b8ff" points="624.86,-49.49 615.59,-54.62 626.03,-56.4 624.86,-49.49"/>
</a>
</g>
</g>
<!-- Node5 -->
<g id="Node000005" class="node">
<title>Node5</title>
<g id="a_Node000005"><a xlink:href="structllvm_1_1SmallVectorStorage.html" target="_top" xlink:title=" ">
<polygon fill="white" stroke="#666666" points="621.25,-30.5 494.25,-30.5 494.25,0 621.25,0 621.25,-30.5"/>
<text xml:space="preserve" text-anchor="start" x="502.25" y="-17" font-family="Helvetica,sans-Serif" font-size="10.00">llvm::SmallVectorStorage</text>
<text xml:space="preserve" text-anchor="middle" x="557.75" y="-5.75" font-family="Helvetica,sans-Serif" font-size="10.00">&lt; llvm::Attribute, N &gt;</text>
</a>
</g>
</g>
<!-- Node5&#45;&gt;Node4 -->
<g id="edge8271_Node000005_Node000004" class="edge">
<title>Node5&#45;&gt;Node4</title>
<g id="a_edge8271_Node000005_Node000004"><a xlink:title=" ">
<path fill="none" stroke="#8b1a1a" d="M633.09,-27.35C641.15,-28.66 649.2,-29.97 656.86,-31.21"/>
<polygon fill="#8b1a1a" stroke="#8b1a1a" points="633.66,-23.89 623.23,-25.74 632.53,-30.8 633.66,-23.89"/>
</a>
</g>
</g>
</g>
</svg>
