<?xml version="1.0" encoding="UTF-8" standalone="no"?>
<!DOCTYPE svg PUBLIC "-//W3C//DTD SVG 1.1//EN"
 "http://www.w3.org/Graphics/SVG/1.1/DTD/svg11.dtd">
<!-- Generated by graphviz version 14.1.3 (20260303.0454)
 -->
<!-- Title: Graphical Class Hierarchy Pages: 1 -->
<svg width="225pt" height="64pt"
 viewBox="0.00 0.00 225.00 64.00" xmlns="http://www.w3.org/2000/svg" xmlns:xlink="http://www.w3.org/1999/xlink">
<g id="graph0" class="graph" transform="scale(1 1) rotate(0) translate(4 60.25)">
<title>Graphical Class Hierarchy</title>
<!-- Node0 -->
<g id="Node000000" class="node">
<title>Node0</title>
<g id="a_Node000000"><a xlink:href="classllvm_1_1CCState.html" target="_top" xlink:title="CCState &#45; This class holds information needed while lowering arguments and return values.">
<polygon fill="white" stroke="#666666" points="78.25,-37.25 0,-37.25 0,-18 78.25,-18 78.25,-37.25"/>
<text xml:space="preserve" text-anchor="middle" x="39.12" y="-23.75" font-family="Helvetica,sans-Serif" font-size="10.00">llvm::CCState</text>
</a>
</g>
</g>
<!-- Node1 -->
<g id="Node000001" class="node">
<title>Node1</title>
<g id="a_Node000001"><a xlink:href="structllvm_1_1M68kCCState.html" target="_top" xlink:title="Custom state to propagate llvm type info to register CC assigner.">
<polygon fill="white" stroke="#666666" points="216.5,-56.25 114.25,-56.25 114.25,-37 216.5,-37 216.5,-56.25"/>
<text xml:space="preserve" text-anchor="middle" x="165.38" y="-42.75" font-family="Helvetica,sans-Serif" font-size="10.00">llvm::M68kCCState</text>
</a>
</g>
</g>
<!-- Node0&#45;&gt;Node1 -->
<g id="edge1000_Node000000_Node000001" class="edge">
<title>Node0&#45;&gt;Node1</title>
<g id="a_edge1000_Node000000_Node000001"><a xlink:title=" ">
<path fill="none" stroke="#63b8ff" d="M89.56,-35.18C97.63,-36.42 105.99,-37.7 114.08,-38.93"/>
<polygon fill="#63b8ff" stroke="#63b8ff" points="90.33,-31.76 79.91,-33.71 89.27,-38.68 90.33,-31.76"/>
</a>
</g>
</g>
<!-- Node2 -->
<g id="Node000002" class="node">
<title>Node2</title>
<g id="a_Node000002"><a xlink:href="classllvm_1_1MipsCCState.html" target="_top" xlink:title=" ">
<polygon fill="white" stroke="#666666" points="215,-19.25 115.75,-19.25 115.75,0 215,0 215,-19.25"/>
<text xml:space="preserve" text-anchor="middle" x="165.38" y="-5.75" font-family="Helvetica,sans-Serif" font-size="10.00">llvm::MipsCCState</text>
</a>
</g>
</g>
<!-- Node0&#45;&gt;Node2 -->
<g id="edge1001_Node000000_Node000002" class="edge">
<title>Node0&#45;&gt;Node2</title>
<g id="a_edge1001_Node000000_Node000002"><a xlink:title=" ">
<path fill="none" stroke="#63b8ff" d="M89.71,-20.44C98.18,-19.21 106.98,-17.94 115.43,-16.72"/>
<polygon fill="#63b8ff" stroke="#63b8ff" points="89.31,-16.96 79.92,-21.86 90.31,-23.89 89.31,-16.96"/>
</a>
</g>
</g>
</g>
</svg>
