<?xml version="1.0" encoding="UTF-8" standalone="no"?>
<!DOCTYPE svg PUBLIC "-//W3C//DTD SVG 1.1//EN"
 "http://www.w3.org/Graphics/SVG/1.1/DTD/svg11.dtd">
<!-- Generated by graphviz version 14.1.3 (20260303.0454)
 -->
<!-- Title: Graphical Class Hierarchy Pages: 1 -->
<svg width="429pt" height="88pt"
 viewBox="0.00 0.00 429.00 88.00" xmlns="http://www.w3.org/2000/svg" xmlns:xlink="http://www.w3.org/1999/xlink">
<g id="graph0" class="graph" transform="scale(1 1) rotate(0) translate(4 83.5)">
<title>Graphical Class Hierarchy</title>
<!-- Node0 -->
<g id="Node000000" class="node">
<title>Node0</title>
<g id="a_Node000000"><a xlink:title=" ">
<polygon fill="#e0e0e0" stroke="#999999" points="66.25,-48.88 0,-48.88 0,-29.62 66.25,-29.62 66.25,-48.88"/>
<text xml:space="preserve" text-anchor="middle" x="33.12" y="-35.38" font-family="Helvetica,sans-Serif" font-size="10.00">OutputError</text>
</a>
</g>
</g>
<!-- Node1 -->
<g id="Node000001" class="node">
<title>Node1</title>
<g id="a_Node000001"><a xlink:href="classllvm_1_1ErrorInfo.html" target="_top" xlink:title=" ">
<polygon fill="white" stroke="#666666" points="246.5,-79.5 102.25,-79.5 102.25,-49 246.5,-49 246.5,-79.5"/>
<text xml:space="preserve" text-anchor="start" x="110.25" y="-66" font-family="Helvetica,sans-Serif" font-size="10.00">llvm::ErrorInfo&lt; OutputConfig</text>
<text xml:space="preserve" text-anchor="middle" x="174.38" y="-54.75" font-family="Helvetica,sans-Serif" font-size="10.00">Error, OutputError &gt;</text>
</a>
</g>
</g>
<!-- Node0&#45;&gt;Node1 -->
<g id="edge10907_Node000000_Node000001" class="edge">
<title>Node0&#45;&gt;Node1</title>
<g id="a_edge10907_Node000000_Node000001"><a xlink:title=" ">
<path fill="none" stroke="#63b8ff" d="M77.69,-47.07C85.41,-48.46 93.63,-49.93 101.89,-51.42"/>
<polygon fill="#63b8ff" stroke="#63b8ff" points="78.37,-43.64 67.91,-45.32 77.14,-50.53 78.37,-43.64"/>
</a>
</g>
</g>
<!-- Node3 -->
<g id="Node000003" class="node">
<title>Node3</title>
<g id="a_Node000003"><a xlink:href="classllvm_1_1ErrorInfo.html" target="_top" xlink:title=" ">
<polygon fill="white" stroke="#666666" points="239.75,-30.5 109,-30.5 109,0 239.75,0 239.75,-30.5"/>
<text xml:space="preserve" text-anchor="start" x="117" y="-17" font-family="Helvetica,sans-Serif" font-size="10.00">llvm::ErrorInfo&lt; TempFile</text>
<text xml:space="preserve" text-anchor="middle" x="174.38" y="-5.75" font-family="Helvetica,sans-Serif" font-size="10.00">OutputError, OutputError &gt;</text>
</a>
</g>
</g>
<!-- Node0&#45;&gt;Node3 -->
<g id="edge10909_Node000000_Node000003" class="edge">
<title>Node0&#45;&gt;Node3</title>
<g id="a_edge10909_Node000000_Node000003"><a xlink:title=" ">
<path fill="none" stroke="#63b8ff" d="M77.56,-31.76C87.41,-30.07 98.09,-28.23 108.62,-26.41"/>
<polygon fill="#63b8ff" stroke="#63b8ff" points="77.17,-28.28 67.91,-33.43 78.36,-35.18 77.17,-28.28"/>
</a>
</g>
</g>
<!-- Node2 -->
<g id="Node000002" class="node">
<title>Node2</title>
<g id="a_Node000002"><a xlink:href="classllvm_1_1vfs_1_1OutputConfigError.html" target="_top" xlink:title="Error related to an OutputConfig for an OutputFile.">
<polygon fill="white" stroke="#666666" points="420.75,-73.88 282.5,-73.88 282.5,-54.62 420.75,-54.62 420.75,-73.88"/>
<text xml:space="preserve" text-anchor="middle" x="351.62" y="-60.38" font-family="Helvetica,sans-Serif" font-size="10.00">llvm::vfs::OutputConfigError</text>
</a>
</g>
</g>
<!-- Node1&#45;&gt;Node2 -->
<g id="edge10908_Node000001_Node000002" class="edge">
<title>Node1&#45;&gt;Node2</title>
<g id="a_edge10908_Node000001_Node000002"><a xlink:title=" ">
<path fill="none" stroke="#63b8ff" d="M258.19,-64.25C266.21,-64.25 274.29,-64.25 282.15,-64.25"/>
<polygon fill="#63b8ff" stroke="#63b8ff" points="258.42,-60.75 248.42,-64.25 258.42,-67.75 258.42,-60.75"/>
</a>
</g>
</g>
<!-- Node4 -->
<g id="Node000004" class="node">
<title>Node4</title>
<g id="a_Node000004"><a xlink:href="classllvm_1_1vfs_1_1TempFileOutputError.html" target="_top" xlink:title="Error related to a temporary file for an OutputFile.">
<polygon fill="white" stroke="#666666" points="415.88,-30.5 287.38,-30.5 287.38,0 415.88,0 415.88,-30.5"/>
<text xml:space="preserve" text-anchor="start" x="295.38" y="-17" font-family="Helvetica,sans-Serif" font-size="10.00">llvm::vfs::TempFileOutput</text>
<text xml:space="preserve" text-anchor="middle" x="351.62" y="-5.75" font-family="Helvetica,sans-Serif" font-size="10.00">Error</text>
</a>
</g>
</g>
<!-- Node3&#45;&gt;Node4 -->
<g id="edge10910_Node000003_Node000004" class="edge">
<title>Node3&#45;&gt;Node4</title>
<g id="a_edge10910_Node000003_Node000004"><a xlink:title=" ">
<path fill="none" stroke="#63b8ff" d="M251.4,-15.25C263.28,-15.25 275.45,-15.25 287.01,-15.25"/>
<polygon fill="#63b8ff" stroke="#63b8ff" points="251.65,-11.75 241.65,-15.25 251.65,-18.75 251.65,-11.75"/>
</a>
</g>
</g>
</g>
</svg>
