<?xml version="1.0" encoding="UTF-8" standalone="no"?>
<!DOCTYPE svg PUBLIC "-//W3C//DTD SVG 1.1//EN"
 "http://www.w3.org/Graphics/SVG/1.1/DTD/svg11.dtd">
<!-- Generated by graphviz version 14.1.3 (20260303.0454)
 -->
<!-- Title: Graphical Class Hierarchy Pages: 1 -->
<svg width="840pt" height="93pt"
 viewBox="0.00 0.00 840.00 93.00" xmlns="http://www.w3.org/2000/svg" xmlns:xlink="http://www.w3.org/1999/xlink">
<g id="graph0" class="graph" transform="scale(1 1) rotate(0) translate(4 89.12)">
<title>Graphical Class Hierarchy</title>
<!-- Node0 -->
<g id="Node000000" class="node">
<title>Node0</title>
<g id="a_Node000000"><a xlink:href="classllvm_1_1SmallVectorBase.html" target="_top" xlink:title=" ">
<polygon fill="white" stroke="#666666" points="128.5,-85.12 0,-85.12 0,-43.38 128.5,-43.38 128.5,-85.12"/>
<text xml:space="preserve" text-anchor="start" x="8" y="-71.62" font-family="Helvetica,sans-Serif" font-size="10.00">llvm::SmallVectorBase</text>
<text xml:space="preserve" text-anchor="start" x="8" y="-60.38" font-family="Helvetica,sans-Serif" font-size="10.00">&lt; SmallVectorSizeType</text>
<text xml:space="preserve" text-anchor="middle" x="64.25" y="-49.12" font-family="Helvetica,sans-Serif" font-size="10.00">&lt; const llvm::SCEV * &gt; &gt;</text>
</a>
</g>
</g>
<!-- Node1 -->
<g id="Node000001" class="node">
<title>Node1</title>
<g id="a_Node000001"><a xlink:href="classllvm_1_1SmallVectorTemplateCommon.html" target="_top" xlink:title=" ">
<polygon fill="white" stroke="#666666" points="323.75,-79.5 164.5,-79.5 164.5,-49 323.75,-49 323.75,-79.5"/>
<text xml:space="preserve" text-anchor="start" x="172.5" y="-66" font-family="Helvetica,sans-Serif" font-size="10.00">llvm::SmallVectorTemplate</text>
<text xml:space="preserve" text-anchor="middle" x="244.12" y="-54.75" font-family="Helvetica,sans-Serif" font-size="10.00">Common&lt; const llvm::SCEV * &gt;</text>
</a>
</g>
</g>
<!-- Node0&#45;&gt;Node1 -->
<g id="edge8005_Node000000_Node000001" class="edge">
<title>Node0&#45;&gt;Node1</title>
<g id="a_edge8005_Node000000_Node000001"><a xlink:title=" ">
<path fill="none" stroke="#63b8ff" d="M140.32,-64.25C148.15,-64.25 156.14,-64.25 164.02,-64.25"/>
<polygon fill="#63b8ff" stroke="#63b8ff" points="140.48,-60.75 130.48,-64.25 140.48,-67.75 140.48,-60.75"/>
</a>
</g>
</g>
<!-- Node2 -->
<g id="Node000002" class="node">
<title>Node2</title>
<g id="a_Node000002"><a xlink:href="classllvm_1_1SmallVectorTemplateBase.html" target="_top" xlink:title=" ">
<polygon fill="white" stroke="#666666" points="501.75,-79.5 359.75,-79.5 359.75,-49 501.75,-49 501.75,-79.5"/>
<text xml:space="preserve" text-anchor="start" x="367.75" y="-66" font-family="Helvetica,sans-Serif" font-size="10.00">llvm::SmallVectorTemplate</text>
<text xml:space="preserve" text-anchor="middle" x="430.75" y="-54.75" font-family="Helvetica,sans-Serif" font-size="10.00">Base&lt; const llvm::SCEV * &gt;</text>
</a>
</g>
</g>
<!-- Node1&#45;&gt;Node2 -->
<g id="edge8006_Node000001_Node000002" class="edge">
<title>Node1&#45;&gt;Node2</title>
<g id="a_edge8006_Node000001_Node000002"><a xlink:title=" ">
<path fill="none" stroke="#63b8ff" d="M335.48,-64.25C343.47,-64.25 351.48,-64.25 359.26,-64.25"/>
<polygon fill="#63b8ff" stroke="#63b8ff" points="335.74,-60.75 325.74,-64.25 335.74,-67.75 335.74,-60.75"/>
</a>
</g>
</g>
<!-- Node3 -->
<g id="Node000003" class="node">
<title>Node3</title>
<g id="a_Node000003"><a xlink:href="classllvm_1_1SmallVectorImpl.html" target="_top" xlink:title=" ">
<polygon fill="white" stroke="#666666" points="664,-79.5 544.5,-79.5 544.5,-49 664,-49 664,-79.5"/>
<text xml:space="preserve" text-anchor="start" x="552.5" y="-66" font-family="Helvetica,sans-Serif" font-size="10.00">llvm::SmallVectorImpl</text>
<text xml:space="preserve" text-anchor="middle" x="604.25" y="-54.75" font-family="Helvetica,sans-Serif" font-size="10.00">&lt; const llvm::SCEV * &gt;</text>
</a>
</g>
</g>
<!-- Node2&#45;&gt;Node3 -->
<g id="edge8007_Node000002_Node000003" class="edge">
<title>Node2&#45;&gt;Node3</title>
<g id="a_edge8007_Node000002_Node000003"><a xlink:title=" ">
<path fill="none" stroke="#63b8ff" d="M513.22,-64.25C523.62,-64.25 534.1,-64.25 544.06,-64.25"/>
<polygon fill="#63b8ff" stroke="#63b8ff" points="513.51,-60.75 503.51,-64.25 513.51,-67.75 513.51,-60.75"/>
</a>
</g>
</g>
<!-- Node4 -->
<g id="Node000004" class="node">
<title>Node4</title>
<g id="a_Node000004"><a xlink:href="classllvm_1_1SmallVector.html" target="_top" xlink:title=" ">
<polygon fill="white" stroke="#666666" points="831.5,-79.5 706.75,-79.5 706.75,-49 831.5,-49 831.5,-79.5"/>
<text xml:space="preserve" text-anchor="start" x="714.75" y="-66" font-family="Helvetica,sans-Serif" font-size="10.00">llvm::SmallVector&lt;</text>
<text xml:space="preserve" text-anchor="middle" x="769.12" y="-54.75" font-family="Helvetica,sans-Serif" font-size="10.00"> const llvm::SCEV *, 3 &gt;</text>
</a>
</g>
</g>
<!-- Node3&#45;&gt;Node4 -->
<g id="edge8008_Node000003_Node000004" class="edge">
<title>Node3&#45;&gt;Node4</title>
<g id="a_edge8008_Node000003_Node000004"><a xlink:title=" ">
<path fill="none" stroke="#63b8ff" d="M675.51,-64.25C685.79,-64.25 696.3,-64.25 706.39,-64.25"/>
<polygon fill="#63b8ff" stroke="#63b8ff" points="675.57,-60.75 665.57,-64.25 675.57,-67.75 675.57,-60.75"/>
</a>
</g>
</g>
<!-- Node6 -->
<g id="Node000006" class="node">
<title>Node6</title>
<g id="a_Node000006"><a xlink:href="classllvm_1_1SmallVector.html" target="_top" xlink:title=" ">
<polygon fill="white" stroke="#666666" points="831.5,-30.5 706.75,-30.5 706.75,0 831.5,0 831.5,-30.5"/>
<text xml:space="preserve" text-anchor="start" x="714.75" y="-17" font-family="Helvetica,sans-Serif" font-size="10.00">llvm::SmallVector&lt;</text>
<text xml:space="preserve" text-anchor="middle" x="769.12" y="-5.75" font-family="Helvetica,sans-Serif" font-size="10.00"> const llvm::SCEV *, 8 &gt;</text>
</a>
</g>
</g>
<!-- Node3&#45;&gt;Node6 -->
<g id="edge8009_Node000003_Node000006" class="edge">
<title>Node3&#45;&gt;Node6</title>
<g id="a_edge8009_Node000003_Node000006"><a xlink:title=" ">
<path fill="none" stroke="#63b8ff" d="M667.98,-45.38C683.78,-40.63 700.57,-35.57 715.8,-30.99"/>
<polygon fill="#63b8ff" stroke="#63b8ff" points="667.25,-41.94 658.68,-48.18 669.27,-48.65 667.25,-41.94"/>
</a>
</g>
</g>
<!-- Node5 -->
<g id="Node000005" class="node">
<title>Node5</title>
<g id="a_Node000005"><a xlink:href="structllvm_1_1SmallVectorStorage.html" target="_top" xlink:title=" ">
<polygon fill="white" stroke="#666666" points="670.75,-30.5 537.75,-30.5 537.75,0 670.75,0 670.75,-30.5"/>
<text xml:space="preserve" text-anchor="start" x="545.75" y="-17" font-family="Helvetica,sans-Serif" font-size="10.00">llvm::SmallVectorStorage</text>
<text xml:space="preserve" text-anchor="middle" x="604.25" y="-5.75" font-family="Helvetica,sans-Serif" font-size="10.00">&lt; const llvm::SCEV *, N &gt;</text>
</a>
</g>
</g>
<!-- Node5&#45;&gt;Node4 -->
<g id="edge8010_Node000005_Node000004" class="edge">
<title>Node5&#45;&gt;Node4</title>
<g id="a_edge8010_Node000005_Node000004"><a xlink:title=" ">
<path fill="none" stroke="#8b1a1a" d="M667.98,-34.12C683.78,-38.87 700.57,-43.93 715.8,-48.51"/>
<polygon fill="#8b1a1a" stroke="#8b1a1a" points="669.27,-30.85 658.68,-31.32 667.25,-37.56 669.27,-30.85"/>
</a>
</g>
</g>
<!-- Node5&#45;&gt;Node6 -->
<g id="edge8011_Node000005_Node000006" class="edge">
<title>Node5&#45;&gt;Node6</title>
<g id="a_edge8011_Node000005_Node000006"><a xlink:title=" ">
<path fill="none" stroke="#8b1a1a" d="M682.33,-15.25C690.38,-15.25 698.48,-15.25 706.32,-15.25"/>
<polygon fill="#8b1a1a" stroke="#8b1a1a" points="682.54,-11.75 672.54,-15.25 682.54,-18.75 682.54,-11.75"/>
</a>
</g>
</g>
</g>
</svg>
