<?xml version="1.0" encoding="UTF-8" standalone="no"?>
<!DOCTYPE svg PUBLIC "-//W3C//DTD SVG 1.1//EN"
 "http://www.w3.org/Graphics/SVG/1.1/DTD/svg11.dtd">
<!-- Generated by graphviz version 14.1.3 (20260303.0454)
 -->
<!-- Title: Graphical Class Hierarchy Pages: 1 -->
<svg width="647pt" height="382pt"
 viewBox="0.00 0.00 647.00 382.00" xmlns="http://www.w3.org/2000/svg" xmlns:xlink="http://www.w3.org/1999/xlink">
<g id="graph0" class="graph" transform="scale(1 1) rotate(0) translate(4 377.5)">
<title>Graphical Class Hierarchy</title>
<!-- Node0 -->
<g id="Node000000" class="node">
<title>Node0</title>
<g id="a_Node000000"><a xlink:href="structllvm_1_1jitlink_1_1aarch32_1_1FixupInfoBase.html" target="_top" xlink:title="FixupInfo base class is required for dynamic lookups.">
<polygon fill="white" stroke="#666666" points="103,-226.5 0,-226.5 0,-196 103,-196 103,-226.5"/>
<text xml:space="preserve" text-anchor="start" x="8" y="-213" font-family="Helvetica,sans-Serif" font-size="10.00">llvm::jitlink::aarch32</text>
<text xml:space="preserve" text-anchor="middle" x="51.5" y="-201.75" font-family="Helvetica,sans-Serif" font-size="10.00">::FixupInfoBase</text>
</a>
</g>
</g>
<!-- Node1 -->
<g id="Node000001" class="node">
<title>Node1</title>
<g id="a_Node000001"><a xlink:href="structllvm_1_1jitlink_1_1aarch32_1_1FixupInfoArm.html" target="_top" xlink:title="FixupInfo checks for Arm edge kinds work on 32&#45;bit words.">
<polygon fill="white" stroke="#666666" points="242,-275.5 139,-275.5 139,-245 242,-245 242,-275.5"/>
<text xml:space="preserve" text-anchor="start" x="147" y="-262" font-family="Helvetica,sans-Serif" font-size="10.00">llvm::jitlink::aarch32</text>
<text xml:space="preserve" text-anchor="middle" x="190.5" y="-250.75" font-family="Helvetica,sans-Serif" font-size="10.00">::FixupInfoArm</text>
</a>
</g>
</g>
<!-- Node0&#45;&gt;Node1 -->
<g id="edge4005_Node000000_Node000001" class="edge">
<title>Node0&#45;&gt;Node1</title>
<g id="a_edge4005_Node000000_Node000001"><a xlink:title=" ">
<path fill="none" stroke="#63b8ff" d="M106.85,-230.69C119.76,-235.31 133.36,-240.17 145.72,-244.59"/>
<polygon fill="#63b8ff" stroke="#63b8ff" points="108.24,-227.47 97.65,-227.4 105.89,-234.06 108.24,-227.47"/>
</a>
</g>
</g>
<!-- Node8 -->
<g id="Node000008" class="node">
<title>Node8</title>
<g id="a_Node000008"><a xlink:href="structllvm_1_1jitlink_1_1aarch32_1_1FixupInfoThumb.html" target="_top" xlink:title="FixupInfo check for Thumb32 edge kinds work on a pair of 16&#45;bit halfwords.">
<polygon fill="white" stroke="#666666" points="242,-202.5 139,-202.5 139,-172 242,-172 242,-202.5"/>
<text xml:space="preserve" text-anchor="start" x="147" y="-189" font-family="Helvetica,sans-Serif" font-size="10.00">llvm::jitlink::aarch32</text>
<text xml:space="preserve" text-anchor="middle" x="190.5" y="-177.75" font-family="Helvetica,sans-Serif" font-size="10.00">::FixupInfoThumb</text>
</a>
</g>
</g>
<!-- Node0&#45;&gt;Node8 -->
<g id="edge4012_Node000000_Node000008" class="edge">
<title>Node0&#45;&gt;Node8</title>
<g id="a_edge4012_Node000000_Node000008"><a xlink:title=" ">
<path fill="none" stroke="#63b8ff" d="M114.44,-200.4C122.53,-198.98 130.74,-197.54 138.63,-196.16"/>
<polygon fill="#63b8ff" stroke="#63b8ff" points="113.86,-196.95 104.62,-202.12 115.07,-203.84 113.86,-196.95"/>
</a>
</g>
</g>
<!-- Node2 -->
<g id="Node000002" class="node">
<title>Node2</title>
<g id="a_Node000002"><a xlink:href="structllvm_1_1jitlink_1_1aarch32_1_1FixupInfoArmBranch.html" target="_top" xlink:title=" ">
<polygon fill="white" stroke="#666666" points="408.75,-324.5 297.5,-324.5 297.5,-294 408.75,-294 408.75,-324.5"/>
<text xml:space="preserve" text-anchor="start" x="305.5" y="-311" font-family="Helvetica,sans-Serif" font-size="10.00">llvm::jitlink::aarch32</text>
<text xml:space="preserve" text-anchor="middle" x="353.12" y="-299.75" font-family="Helvetica,sans-Serif" font-size="10.00">::FixupInfoArmBranch</text>
</a>
</g>
</g>
<!-- Node1&#45;&gt;Node2 -->
<g id="edge4006_Node000001_Node000002" class="edge">
<title>Node1&#45;&gt;Node2</title>
<g id="a_edge4006_Node000001_Node000002"><a xlink:title=" ">
<path fill="none" stroke="#63b8ff" d="M252.99,-279.01C268.68,-283.8 285.39,-288.89 300.53,-293.51"/>
<polygon fill="#63b8ff" stroke="#63b8ff" points="254.36,-275.77 243.77,-276.2 252.31,-282.46 254.36,-275.77"/>
</a>
</g>
</g>
<!-- Node5 -->
<g id="Node000005" class="node">
<title>Node5</title>
<g id="a_Node000005"><a xlink:href="structllvm_1_1jitlink_1_1aarch32_1_1FixupInfoArmMov.html" target="_top" xlink:title=" ">
<polygon fill="white" stroke="#666666" points="404.62,-275.5 301.62,-275.5 301.62,-245 404.62,-245 404.62,-275.5"/>
<text xml:space="preserve" text-anchor="start" x="309.62" y="-262" font-family="Helvetica,sans-Serif" font-size="10.00">llvm::jitlink::aarch32</text>
<text xml:space="preserve" text-anchor="middle" x="353.12" y="-250.75" font-family="Helvetica,sans-Serif" font-size="10.00">::FixupInfoArmMov</text>
</a>
</g>
</g>
<!-- Node1&#45;&gt;Node5 -->
<g id="edge4009_Node000001_Node000005" class="edge">
<title>Node1&#45;&gt;Node5</title>
<g id="a_edge4009_Node000001_Node000005"><a xlink:title=" ">
<path fill="none" stroke="#63b8ff" d="M253.61,-260.25C269.41,-260.25 286.2,-260.25 301.36,-260.25"/>
<polygon fill="#63b8ff" stroke="#63b8ff" points="253.84,-256.75 243.84,-260.25 253.84,-263.75 253.84,-256.75"/>
</a>
</g>
</g>
<!-- Node3 -->
<g id="Node000003" class="node">
<title>Node3</title>
<g id="a_Node000003"><a xlink:href="structllvm_1_1jitlink_1_1aarch32_1_1FixupInfo_3_01Arm__Call_01_4.html" target="_top" xlink:title=" ">
<polygon fill="white" stroke="#666666" points="611.5,-373.5 491.25,-373.5 491.25,-343 611.5,-343 611.5,-373.5"/>
<text xml:space="preserve" text-anchor="start" x="499.25" y="-360" font-family="Helvetica,sans-Serif" font-size="10.00">llvm::jitlink::aarch32</text>
<text xml:space="preserve" text-anchor="middle" x="551.38" y="-348.75" font-family="Helvetica,sans-Serif" font-size="10.00">::FixupInfo&lt; Arm_Call &gt;</text>
</a>
</g>
</g>
<!-- Node2&#45;&gt;Node3 -->
<g id="edge4007_Node000002_Node000003" class="edge">
<title>Node2&#45;&gt;Node3</title>
<g id="a_edge4007_Node000002_Node000003"><a xlink:title=" ">
<path fill="none" stroke="#63b8ff" d="M420.08,-325.72C443.03,-331.45 468.61,-337.83 490.99,-343.42"/>
<polygon fill="#63b8ff" stroke="#63b8ff" points="421.07,-322.36 410.52,-323.33 419.38,-329.15 421.07,-322.36"/>
</a>
</g>
</g>
<!-- Node4 -->
<g id="Node000004" class="node">
<title>Node4</title>
<g id="a_Node000004"><a xlink:href="structllvm_1_1jitlink_1_1aarch32_1_1FixupInfo_3_01Arm__Jump24_01_4.html" target="_top" xlink:title=" ">
<polygon fill="white" stroke="#666666" points="620.12,-324.5 482.62,-324.5 482.62,-294 620.12,-294 620.12,-324.5"/>
<text xml:space="preserve" text-anchor="start" x="490.62" y="-311" font-family="Helvetica,sans-Serif" font-size="10.00">llvm::jitlink::aarch32</text>
<text xml:space="preserve" text-anchor="middle" x="551.38" y="-299.75" font-family="Helvetica,sans-Serif" font-size="10.00">::FixupInfo&lt; Arm_Jump24 &gt;</text>
</a>
</g>
</g>
<!-- Node2&#45;&gt;Node4 -->
<g id="edge4008_Node000002_Node000004" class="edge">
<title>Node2&#45;&gt;Node4</title>
<g id="a_edge4008_Node000002_Node000004"><a xlink:title=" ">
<path fill="none" stroke="#63b8ff" d="M420.5,-309.25C440.36,-309.25 462.18,-309.25 482.16,-309.25"/>
<polygon fill="#63b8ff" stroke="#63b8ff" points="420.57,-305.75 410.57,-309.25 420.57,-312.75 420.57,-305.75"/>
</a>
</g>
</g>
<!-- Node6 -->
<g id="Node000006" class="node">
<title>Node6</title>
<g id="a_Node000006"><a xlink:href="structllvm_1_1jitlink_1_1aarch32_1_1FixupInfo_3_01Arm__MovtAbs_01_4.html" target="_top" xlink:title=" ">
<polygon fill="white" stroke="#666666" points="622.38,-275.5 480.38,-275.5 480.38,-245 622.38,-245 622.38,-275.5"/>
<text xml:space="preserve" text-anchor="start" x="488.38" y="-262" font-family="Helvetica,sans-Serif" font-size="10.00">llvm::jitlink::aarch32</text>
<text xml:space="preserve" text-anchor="middle" x="551.38" y="-250.75" font-family="Helvetica,sans-Serif" font-size="10.00">::FixupInfo&lt; Arm_MovtAbs &gt;</text>
</a>
</g>
</g>
<!-- Node5&#45;&gt;Node6 -->
<g id="edge4010_Node000005_Node000006" class="edge">
<title>Node5&#45;&gt;Node6</title>
<g id="a_edge4010_Node000005_Node000006"><a xlink:title=" ">
<path fill="none" stroke="#63b8ff" d="M416.26,-260.25C436.6,-260.25 459.32,-260.25 480.21,-260.25"/>
<polygon fill="#63b8ff" stroke="#63b8ff" points="416.43,-256.75 406.43,-260.25 416.43,-263.75 416.43,-256.75"/>
</a>
</g>
</g>
<!-- Node7 -->
<g id="Node000007" class="node">
<title>Node7</title>
<g id="a_Node000007"><a xlink:href="structllvm_1_1jitlink_1_1aarch32_1_1FixupInfo_3_01Arm__MovwAbsNC_01_4.html" target="_top" xlink:title=" ">
<polygon fill="white" stroke="#666666" points="632.12,-226.5 470.62,-226.5 470.62,-196 632.12,-196 632.12,-226.5"/>
<text xml:space="preserve" text-anchor="start" x="478.62" y="-213" font-family="Helvetica,sans-Serif" font-size="10.00">llvm::jitlink::aarch32</text>
<text xml:space="preserve" text-anchor="middle" x="551.38" y="-201.75" font-family="Helvetica,sans-Serif" font-size="10.00">::FixupInfo&lt; Arm_MovwAbsNC &gt;</text>
</a>
</g>
</g>
<!-- Node5&#45;&gt;Node7 -->
<g id="edge4011_Node000005_Node000007" class="edge">
<title>Node5&#45;&gt;Node7</title>
<g id="a_edge4011_Node000005_Node000007"><a xlink:title=" ">
<path fill="none" stroke="#63b8ff" d="M415.85,-244.84C438.69,-239.14 464.58,-232.67 487.51,-226.95"/>
<polygon fill="#63b8ff" stroke="#63b8ff" points="415.24,-241.38 406.39,-247.2 416.94,-248.17 415.24,-241.38"/>
</a>
</g>
</g>
<!-- Node9 -->
<g id="Node000009" class="node">
<title>Node9</title>
<g id="a_Node000009"><a xlink:href="structllvm_1_1jitlink_1_1aarch32_1_1FixupInfo_3_01Thumb__Call_01_4.html" target="_top" xlink:title=" ">
<polygon fill="white" stroke="#666666" points="419.62,-226.5 286.62,-226.5 286.62,-196 419.62,-196 419.62,-226.5"/>
<text xml:space="preserve" text-anchor="start" x="294.62" y="-213" font-family="Helvetica,sans-Serif" font-size="10.00">llvm::jitlink::aarch32</text>
<text xml:space="preserve" text-anchor="middle" x="353.12" y="-201.75" font-family="Helvetica,sans-Serif" font-size="10.00">::FixupInfo&lt; Thumb_Call &gt;</text>
</a>
</g>
</g>
<!-- Node8&#45;&gt;Node9 -->
<g id="edge4013_Node000008_Node000009" class="edge">
<title>Node8&#45;&gt;Node9</title>
<g id="a_edge4013_Node000008_Node000009"><a xlink:title=" ">
<path fill="none" stroke="#63b8ff" d="M253.71,-196.55C264.4,-198.14 275.55,-199.81 286.33,-201.42"/>
<polygon fill="#63b8ff" stroke="#63b8ff" points="254.23,-193.08 243.82,-195.07 253.19,-200.01 254.23,-193.08"/>
</a>
</g>
</g>
<!-- Node10 -->
<g id="Node000010" class="node">
<title>Node10</title>
<g id="a_Node000010"><a xlink:href="structllvm_1_1jitlink_1_1aarch32_1_1FixupInfo_3_01Thumb__Jump24_01_4.html" target="_top" xlink:title=" ">
<polygon fill="white" stroke="#666666" points="428.25,-177.5 278,-177.5 278,-147 428.25,-147 428.25,-177.5"/>
<text xml:space="preserve" text-anchor="start" x="286" y="-164" font-family="Helvetica,sans-Serif" font-size="10.00">llvm::jitlink::aarch32</text>
<text xml:space="preserve" text-anchor="middle" x="353.12" y="-152.75" font-family="Helvetica,sans-Serif" font-size="10.00">::FixupInfo&lt; Thumb_Jump24 &gt;</text>
</a>
</g>
</g>
<!-- Node8&#45;&gt;Node10 -->
<g id="edge4014_Node000008_Node000010" class="edge">
<title>Node8&#45;&gt;Node10</title>
<g id="a_edge4014_Node000008_Node000010"><a xlink:title=" ">
<path fill="none" stroke="#63b8ff" d="M253.61,-177.58C261.46,-176.36 269.56,-175.1 277.57,-173.85"/>
<polygon fill="#63b8ff" stroke="#63b8ff" points="253.16,-174.11 243.82,-179.11 254.24,-181.03 253.16,-174.11"/>
</a>
</g>
</g>
<!-- Node11 -->
<g id="Node000011" class="node">
<title>Node11</title>
<g id="a_Node000011"><a xlink:href="structllvm_1_1jitlink_1_1aarch32_1_1FixupInfoThumbMov.html" target="_top" xlink:title=" ">
<polygon fill="white" stroke="#666666" points="408.75,-128.5 297.5,-128.5 297.5,-98 408.75,-98 408.75,-128.5"/>
<text xml:space="preserve" text-anchor="start" x="305.5" y="-115" font-family="Helvetica,sans-Serif" font-size="10.00">llvm::jitlink::aarch32</text>
<text xml:space="preserve" text-anchor="middle" x="353.12" y="-103.75" font-family="Helvetica,sans-Serif" font-size="10.00">::FixupInfoThumbMov</text>
</a>
</g>
</g>
<!-- Node8&#45;&gt;Node11 -->
<g id="edge4015_Node000008_Node000011" class="edge">
<title>Node8&#45;&gt;Node11</title>
<g id="a_edge4015_Node000008_Node000011"><a xlink:title=" ">
<path fill="none" stroke="#63b8ff" d="M225.91,-165.76C241.46,-156.57 260.29,-146.17 278,-138.25 285.44,-134.92 293.46,-131.78 301.39,-128.93"/>
<polygon fill="#63b8ff" stroke="#63b8ff" points="224.27,-162.66 217.5,-170.81 227.88,-168.66 224.27,-162.66"/>
</a>
</g>
</g>
<!-- Node12 -->
<g id="Node000012" class="node">
<title>Node12</title>
<g id="a_Node000012"><a xlink:href="structllvm_1_1jitlink_1_1aarch32_1_1FixupInfo_3_01Thumb__MovtAbs_01_4.html" target="_top" xlink:title=" ">
<polygon fill="white" stroke="#666666" points="628.75,-177.5 474,-177.5 474,-147 628.75,-147 628.75,-177.5"/>
<text xml:space="preserve" text-anchor="start" x="482" y="-164" font-family="Helvetica,sans-Serif" font-size="10.00">llvm::jitlink::aarch32</text>
<text xml:space="preserve" text-anchor="middle" x="551.38" y="-152.75" font-family="Helvetica,sans-Serif" font-size="10.00">::FixupInfo&lt; Thumb_MovtAbs &gt;</text>
</a>
</g>
</g>
<!-- Node11&#45;&gt;Node12 -->
<g id="edge4016_Node000011_Node000012" class="edge">
<title>Node11&#45;&gt;Node12</title>
<g id="a_edge4016_Node000011_Node000012"><a xlink:title=" ">
<path fill="none" stroke="#63b8ff" d="M420.18,-129.74C441.91,-135.17 466,-141.18 487.49,-146.55"/>
<polygon fill="#63b8ff" stroke="#63b8ff" points="421.07,-126.36 410.52,-127.33 419.38,-133.15 421.07,-126.36"/>
</a>
</g>
</g>
<!-- Node13 -->
<g id="Node000013" class="node">
<title>Node13</title>
<g id="a_Node000013"><a xlink:href="structllvm_1_1jitlink_1_1aarch32_1_1FixupInfo_3_01Thumb__MovtPrel_01_4.html" target="_top" xlink:title=" ">
<polygon fill="white" stroke="#666666" points="628.75,-128.5 474,-128.5 474,-98 628.75,-98 628.75,-128.5"/>
<text xml:space="preserve" text-anchor="start" x="482" y="-115" font-family="Helvetica,sans-Serif" font-size="10.00">llvm::jitlink::aarch32</text>
<text xml:space="preserve" text-anchor="middle" x="551.38" y="-103.75" font-family="Helvetica,sans-Serif" font-size="10.00">::FixupInfo&lt; Thumb_MovtPrel &gt;</text>
</a>
</g>
</g>
<!-- Node11&#45;&gt;Node13 -->
<g id="edge4017_Node000011_Node000013" class="edge">
<title>Node11&#45;&gt;Node13</title>
<g id="a_edge4017_Node000011_Node000013"><a xlink:title=" ">
<path fill="none" stroke="#63b8ff" d="M420.14,-113.25C437.37,-113.25 456.09,-113.25 473.82,-113.25"/>
<polygon fill="#63b8ff" stroke="#63b8ff" points="420.57,-109.75 410.57,-113.25 420.57,-116.75 420.57,-109.75"/>
</a>
</g>
</g>
<!-- Node14 -->
<g id="Node000014" class="node">
<title>Node14</title>
<g id="a_Node000014"><a xlink:href="structllvm_1_1jitlink_1_1aarch32_1_1FixupInfo_3_01Thumb__MovwAbsNC_01_4.html" target="_top" xlink:title=" ">
<polygon fill="white" stroke="#666666" points="638.5,-79.5 464.25,-79.5 464.25,-49 638.5,-49 638.5,-79.5"/>
<text xml:space="preserve" text-anchor="start" x="472.25" y="-66" font-family="Helvetica,sans-Serif" font-size="10.00">llvm::jitlink::aarch32</text>
<text xml:space="preserve" text-anchor="middle" x="551.38" y="-54.75" font-family="Helvetica,sans-Serif" font-size="10.00">::FixupInfo&lt; Thumb_MovwAbsNC &gt;</text>
</a>
</g>
</g>
<!-- Node11&#45;&gt;Node14 -->
<g id="edge4018_Node000011_Node000014" class="edge">
<title>Node11&#45;&gt;Node14</title>
<g id="a_edge4018_Node000011_Node000014"><a xlink:title=" ">
<path fill="none" stroke="#63b8ff" d="M420.18,-96.76C441.91,-91.33 466,-85.32 487.49,-79.95"/>
<polygon fill="#63b8ff" stroke="#63b8ff" points="419.38,-93.35 410.52,-99.17 421.07,-100.14 419.38,-93.35"/>
</a>
</g>
</g>
<!-- Node15 -->
<g id="Node000015" class="node">
<title>Node15</title>
<g id="a_Node000015"><a xlink:href="structllvm_1_1jitlink_1_1aarch32_1_1FixupInfo_3_01Thumb__MovwPrelNC_01_4.html" target="_top" xlink:title=" ">
<polygon fill="white" stroke="#666666" points="638.5,-30.5 464.25,-30.5 464.25,0 638.5,0 638.5,-30.5"/>
<text xml:space="preserve" text-anchor="start" x="472.25" y="-17" font-family="Helvetica,sans-Serif" font-size="10.00">llvm::jitlink::aarch32</text>
<text xml:space="preserve" text-anchor="middle" x="551.38" y="-5.75" font-family="Helvetica,sans-Serif" font-size="10.00">::FixupInfo&lt; Thumb_MovwPrelNC &gt;</text>
</a>
</g>
</g>
<!-- Node11&#45;&gt;Node15 -->
<g id="edge4019_Node000011_Node000015" class="edge">
<title>Node11&#45;&gt;Node15</title>
<g id="a_edge4019_Node000011_Node000015"><a xlink:title=" ">
<path fill="none" stroke="#63b8ff" d="M382.9,-90.64C404.33,-74.72 434.83,-53.88 464.25,-40.25 471.74,-36.78 479.82,-33.68 487.92,-30.93"/>
<polygon fill="#63b8ff" stroke="#63b8ff" points="380.81,-87.84 374.94,-96.66 385.03,-93.42 380.81,-87.84"/>
</a>
</g>
</g>
</g>
</svg>
