<?xml version="1.0" encoding="UTF-8" standalone="no"?>
<!DOCTYPE svg PUBLIC "-//W3C//DTD SVG 1.1//EN"
 "http://www.w3.org/Graphics/SVG/1.1/DTD/svg11.dtd">
<!-- Generated by graphviz version 14.1.3 (20260303.0454)
 -->
<!-- Title: Graphical Class Hierarchy Pages: 1 -->
<svg width="556pt" height="50pt"
 viewBox="0.00 0.00 556.00 50.00" xmlns="http://www.w3.org/2000/svg" xmlns:xlink="http://www.w3.org/1999/xlink">
<g id="graph0" class="graph" transform="scale(1 1) rotate(0) translate(4 45.75)">
<title>Graphical Class Hierarchy</title>
<!-- Node0 -->
<g id="Node000000" class="node">
<title>Node0</title>
<g id="a_Node000000"><a xlink:href="structllvm_1_1PassInfoMixin.html" target="_top" xlink:title=" ">
<polygon fill="white" stroke="#666666" points="138.25,-41.75 0,-41.75 0,0 138.25,0 138.25,-41.75"/>
<text xml:space="preserve" text-anchor="start" x="8" y="-28.25" font-family="Helvetica,sans-Serif" font-size="10.00">llvm::PassInfoMixin</text>
<text xml:space="preserve" text-anchor="start" x="8" y="-17" font-family="Helvetica,sans-Serif" font-size="10.00">&lt; MachineBranchProbability</text>
<text xml:space="preserve" text-anchor="middle" x="69.12" y="-5.75" font-family="Helvetica,sans-Serif" font-size="10.00">Analysis &gt;</text>
</a>
</g>
</g>
<!-- Node1 -->
<g id="Node000001" class="node">
<title>Node1</title>
<g id="a_Node000001"><a xlink:href="structllvm_1_1AnalysisInfoMixin.html" target="_top" xlink:title=" ">
<polygon fill="white" stroke="#666666" points="359,-36.12 174.25,-36.12 174.25,-5.62 359,-5.62 359,-36.12"/>
<text xml:space="preserve" text-anchor="start" x="182.25" y="-22.62" font-family="Helvetica,sans-Serif" font-size="10.00">llvm::AnalysisInfoMixin</text>
<text xml:space="preserve" text-anchor="middle" x="266.62" y="-11.38" font-family="Helvetica,sans-Serif" font-size="10.00">&lt; MachineBranchProbabilityAnalysis &gt;</text>
</a>
</g>
</g>
<!-- Node0&#45;&gt;Node1 -->
<g id="edge5544_Node000000_Node000001" class="edge">
<title>Node0&#45;&gt;Node1</title>
<g id="a_edge5544_Node000000_Node000001"><a xlink:title=" ">
<path fill="none" stroke="#63b8ff" d="M149.94,-20.88C157.84,-20.88 165.91,-20.88 173.92,-20.88"/>
<polygon fill="#63b8ff" stroke="#63b8ff" points="150.01,-17.38 140.01,-20.88 150.01,-24.38 150.01,-17.38"/>
</a>
</g>
</g>
<!-- Node2 -->
<g id="Node000002" class="node">
<title>Node2</title>
<g id="a_Node000002"><a xlink:href="classllvm_1_1MachineBranchProbabilityAnalysis.html" target="_top" xlink:title=" ">
<polygon fill="white" stroke="#666666" points="548.25,-36.12 395,-36.12 395,-5.62 548.25,-5.62 548.25,-36.12"/>
<text xml:space="preserve" text-anchor="start" x="403" y="-22.62" font-family="Helvetica,sans-Serif" font-size="10.00">llvm::MachineBranchProbability</text>
<text xml:space="preserve" text-anchor="middle" x="471.62" y="-11.38" font-family="Helvetica,sans-Serif" font-size="10.00">Analysis</text>
</a>
</g>
</g>
<!-- Node1&#45;&gt;Node2 -->
<g id="edge5545_Node000001_Node000002" class="edge">
<title>Node1&#45;&gt;Node2</title>
<g id="a_edge5545_Node000001_Node000002"><a xlink:title=" ">
<path fill="none" stroke="#63b8ff" d="M370.67,-20.88C378.7,-20.88 386.72,-20.88 394.52,-20.88"/>
<polygon fill="#63b8ff" stroke="#63b8ff" points="370.84,-17.38 360.84,-20.88 370.84,-24.38 370.84,-17.38"/>
</a>
</g>
</g>
</g>
</svg>
