<?xml version="1.0" encoding="UTF-8" standalone="no"?>
<!DOCTYPE svg PUBLIC "-//W3C//DTD SVG 1.1//EN"
 "http://www.w3.org/Graphics/SVG/1.1/DTD/svg11.dtd">
<!-- Generated by graphviz version 14.1.3 (20260303.0454)
 -->
<!-- Title: Graphical Class Hierarchy Pages: 1 -->
<svg width="450pt" height="88pt"
 viewBox="0.00 0.00 450.00 88.00" xmlns="http://www.w3.org/2000/svg" xmlns:xlink="http://www.w3.org/1999/xlink">
<g id="graph0" class="graph" transform="scale(1 1) rotate(0) translate(4 83.5)">
<title>Graphical Class Hierarchy</title>
<!-- Node0 -->
<g id="Node000000" class="node">
<title>Node0</title>
<g id="a_Node000000"><a xlink:href="classllvm_1_1dwarf__linker_1_1DWARFLinkerBase.html" target="_top" xlink:title="The base interface for DWARFLinker implementations.">
<polygon fill="white" stroke="#666666" points="107.5,-54.5 0,-54.5 0,-24 107.5,-24 107.5,-54.5"/>
<text xml:space="preserve" text-anchor="start" x="8" y="-41" font-family="Helvetica,sans-Serif" font-size="10.00">llvm::dwarf_linker</text>
<text xml:space="preserve" text-anchor="middle" x="53.75" y="-29.75" font-family="Helvetica,sans-Serif" font-size="10.00">::DWARFLinkerBase</text>
</a>
</g>
</g>
<!-- Node1 -->
<g id="Node000001" class="node">
<title>Node1</title>
<g id="a_Node000001"><a xlink:href="classllvm_1_1dwarf__linker_1_1classic_1_1DWARFLinker.html" target="_top" xlink:title="The core of the Dwarf linking logic.">
<polygon fill="white" stroke="#666666" points="265.25,-79.5 143.5,-79.5 143.5,-49 265.25,-49 265.25,-79.5"/>
<text xml:space="preserve" text-anchor="start" x="151.5" y="-66" font-family="Helvetica,sans-Serif" font-size="10.00">llvm::dwarf_linker</text>
<text xml:space="preserve" text-anchor="middle" x="204.38" y="-54.75" font-family="Helvetica,sans-Serif" font-size="10.00">::classic::DWARFLinker</text>
</a>
</g>
</g>
<!-- Node0&#45;&gt;Node1 -->
<g id="edge3245_Node000000_Node000001" class="edge">
<title>Node0&#45;&gt;Node1</title>
<g id="a_edge3245_Node000000_Node000001"><a xlink:title=" ">
<path fill="none" stroke="#63b8ff" d="M119.14,-50.08C127.12,-51.42 135.27,-52.79 143.19,-54.13"/>
<polygon fill="#63b8ff" stroke="#63b8ff" points="119.92,-46.66 109.48,-48.46 118.76,-53.57 119.92,-46.66"/>
</a>
</g>
</g>
<!-- Node2 -->
<g id="Node000002" class="node">
<title>Node2</title>
<g id="a_Node000002"><a xlink:href="classllvm_1_1dwarf__linker_1_1parallel_1_1DWARFLinker.html" target="_top" xlink:title=" ">
<polygon fill="white" stroke="#666666" points="265.25,-30.5 143.5,-30.5 143.5,0 265.25,0 265.25,-30.5"/>
<text xml:space="preserve" text-anchor="start" x="151.5" y="-17" font-family="Helvetica,sans-Serif" font-size="10.00">llvm::dwarf_linker</text>
<text xml:space="preserve" text-anchor="middle" x="204.38" y="-5.75" font-family="Helvetica,sans-Serif" font-size="10.00">::parallel::DWARFLinker</text>
</a>
</g>
</g>
<!-- Node0&#45;&gt;Node2 -->
<g id="edge3246_Node000000_Node000002" class="edge">
<title>Node0&#45;&gt;Node2</title>
<g id="a_edge3246_Node000000_Node000002"><a xlink:title=" ">
<path fill="none" stroke="#63b8ff" d="M119.14,-28.85C127.12,-27.56 135.27,-26.25 143.19,-24.97"/>
<polygon fill="#63b8ff" stroke="#63b8ff" points="118.8,-25.36 109.48,-30.41 119.91,-32.27 118.8,-25.36"/>
</a>
</g>
</g>
<!-- Node3 -->
<g id="Node000003" class="node">
<title>Node3</title>
<g id="a_Node000003"><a xlink:href="classllvm_1_1dwarf__linker_1_1parallel_1_1DWARFLinkerImpl.html" target="_top" xlink:title="This class links debug info.">
<polygon fill="white" stroke="#666666" points="441.75,-30.5 301.25,-30.5 301.25,0 441.75,0 441.75,-30.5"/>
<text xml:space="preserve" text-anchor="start" x="309.25" y="-17" font-family="Helvetica,sans-Serif" font-size="10.00">llvm::dwarf_linker</text>
<text xml:space="preserve" text-anchor="middle" x="371.5" y="-5.75" font-family="Helvetica,sans-Serif" font-size="10.00">::parallel::DWARFLinkerImpl</text>
</a>
</g>
</g>
<!-- Node2&#45;&gt;Node3 -->
<g id="edge3247_Node000002_Node000003" class="edge">
<title>Node2&#45;&gt;Node3</title>
<g id="a_edge3247_Node000002_Node000003"><a xlink:title=" ">
<path fill="none" stroke="#63b8ff" d="M276.69,-15.25C284.74,-15.25 292.92,-15.25 300.94,-15.25"/>
<polygon fill="#63b8ff" stroke="#63b8ff" points="276.97,-11.75 266.97,-15.25 276.97,-18.75 276.97,-11.75"/>
</a>
</g>
</g>
</g>
</svg>
