<?xml version="1.0" encoding="UTF-8" standalone="no"?>
<!DOCTYPE svg PUBLIC "-//W3C//DTD SVG 1.1//EN"
 "http://www.w3.org/Graphics/SVG/1.1/DTD/svg11.dtd">
<!-- Generated by graphviz version 14.1.3 (20260303.0454)
 -->
<!-- Title: Graphical Class Hierarchy Pages: 1 -->
<svg width="653pt" height="1154pt"
 viewBox="0.00 0.00 653.00 1154.00" xmlns="http://www.w3.org/2000/svg" xmlns:xlink="http://www.w3.org/1999/xlink">
<g id="graph0" class="graph" transform="scale(1 1) rotate(0) translate(4 1149.88)">
<title>Graphical Class Hierarchy</title>
<!-- Node0 -->
<g id="Node000000" class="node">
<title>Node0</title>
<g id="a_Node000000"><a xlink:href="classllvm_1_1TargetTransformInfoImplBase.html" target="_top" xlink:title="Base class for use as a mix&#45;in that aids implementing a TargetTransformInfo&#45;compatible class.">
<polygon fill="white" stroke="#666666" points="127.75,-581.88 0,-581.88 0,-551.38 127.75,-551.38 127.75,-581.88"/>
<text xml:space="preserve" text-anchor="start" x="8" y="-568.38" font-family="Helvetica,sans-Serif" font-size="10.00">llvm::TargetTransformInfo</text>
<text xml:space="preserve" text-anchor="middle" x="63.88" y="-557.12" font-family="Helvetica,sans-Serif" font-size="10.00">ImplBase</text>
</a>
</g>
</g>
<!-- Node1 -->
<g id="Node000001" class="node">
<title>Node1</title>
<g id="a_Node000001"><a xlink:href="classllvm_1_1TargetTransformInfoImplCRTPBase.html" target="_top" xlink:title="CRTP base class for use as a mix&#45;in that aids implementing a TargetTransformInfo&#45;compatible class.">
<polygon fill="white" stroke="#666666" points="291.5,-581.88 163.75,-581.88 163.75,-551.38 291.5,-551.38 291.5,-581.88"/>
<text xml:space="preserve" text-anchor="start" x="171.75" y="-568.38" font-family="Helvetica,sans-Serif" font-size="10.00">llvm::TargetTransformInfo</text>
<text xml:space="preserve" text-anchor="middle" x="227.62" y="-557.12" font-family="Helvetica,sans-Serif" font-size="10.00">ImplCRTPBase&lt; T &gt;</text>
</a>
</g>
</g>
<!-- Node0&#45;&gt;Node1 -->
<g id="edge10595_Node000000_Node000001" class="edge">
<title>Node0&#45;&gt;Node1</title>
<g id="a_edge10595_Node000000_Node000001"><a xlink:title=" ">
<path fill="none" stroke="#63b8ff" d="M139.17,-566.62C147.22,-566.62 155.36,-566.62 163.26,-566.62"/>
<polygon fill="#63b8ff" stroke="#63b8ff" points="139.39,-563.13 129.39,-566.63 139.39,-570.13 139.39,-563.13"/>
</a>
</g>
</g>
<!-- Node2 -->
<g id="Node000002" class="node">
<title>Node2</title>
<g id="a_Node000002"><a xlink:href="classllvm_1_1BasicTTIImplBase.html" target="_top" xlink:title=" ">
<polygon fill="white" stroke="#666666" points="460.5,-1145.88 339.5,-1145.88 339.5,-1115.38 460.5,-1115.38 460.5,-1145.88"/>
<text xml:space="preserve" text-anchor="start" x="347.5" y="-1132.38" font-family="Helvetica,sans-Serif" font-size="10.00">llvm::BasicTTIImplBase</text>
<text xml:space="preserve" text-anchor="middle" x="400" y="-1121.12" font-family="Helvetica,sans-Serif" font-size="10.00">&lt; BasicTTIImpl &gt;</text>
</a>
</g>
</g>
<!-- Node1&#45;&gt;Node2 -->
<g id="edge10596_Node000001_Node000002" class="edge">
<title>Node1&#45;&gt;Node2</title>
<g id="a_edge10596_Node000001_Node000002"><a xlink:title=" ">
<path fill="none" stroke="#63b8ff" d="M230.06,-593.59C235.79,-691.54 260.08,-1026.86 327.5,-1105.62 330.83,-1109.52 334.81,-1112.81 339.16,-1115.59"/>
<polygon fill="#63b8ff" stroke="#63b8ff" points="233.56,-593.42 229.5,-583.63 226.57,-593.81 233.56,-593.42"/>
</a>
</g>
</g>
<!-- Node4 -->
<g id="Node000004" class="node">
<title>Node4</title>
<g id="a_Node000004"><a xlink:href="classllvm_1_1BasicTTIImplBase.html" target="_top" xlink:title=" ">
<polygon fill="white" stroke="#666666" points="460.5,-1096.88 339.5,-1096.88 339.5,-1066.38 460.5,-1066.38 460.5,-1096.88"/>
<text xml:space="preserve" text-anchor="start" x="347.5" y="-1083.38" font-family="Helvetica,sans-Serif" font-size="10.00">llvm::BasicTTIImplBase</text>
<text xml:space="preserve" text-anchor="middle" x="400" y="-1072.12" font-family="Helvetica,sans-Serif" font-size="10.00">&lt; AArch64TTIImpl &gt;</text>
</a>
</g>
</g>
<!-- Node1&#45;&gt;Node4 -->
<g id="edge10598_Node000001_Node000004" class="edge">
<title>Node1&#45;&gt;Node4</title>
<g id="a_edge10598_Node000001_Node000004"><a xlink:title=" ">
<path fill="none" stroke="#63b8ff" d="M230.6,-593.51C237.85,-685.51 265.91,-985.94 327.5,-1056.62 330.87,-1060.49 334.87,-1063.76 339.24,-1066.52"/>
<polygon fill="#63b8ff" stroke="#63b8ff" points="234.1,-593.4 229.84,-583.7 227.12,-593.94 234.1,-593.4"/>
</a>
</g>
</g>
<!-- Node6 -->
<g id="Node000006" class="node">
<title>Node6</title>
<g id="a_Node000006"><a xlink:href="classllvm_1_1BasicTTIImplBase.html" target="_top" xlink:title=" ">
<polygon fill="white" stroke="#666666" points="460.5,-1047.88 339.5,-1047.88 339.5,-1017.38 460.5,-1017.38 460.5,-1047.88"/>
<text xml:space="preserve" text-anchor="start" x="347.5" y="-1034.38" font-family="Helvetica,sans-Serif" font-size="10.00">llvm::BasicTTIImplBase</text>
<text xml:space="preserve" text-anchor="middle" x="400" y="-1023.12" font-family="Helvetica,sans-Serif" font-size="10.00">&lt; AMDGPUTTIImpl &gt;</text>
</a>
</g>
</g>
<!-- Node1&#45;&gt;Node6 -->
<g id="edge10600_Node000001_Node000006" class="edge">
<title>Node1&#45;&gt;Node6</title>
<g id="a_edge10600_Node000001_Node000006"><a xlink:title=" ">
<path fill="none" stroke="#63b8ff" d="M231.23,-593.31C240.09,-678.94 271.68,-944.93 327.5,-1007.62 330.91,-1011.46 334.94,-1014.7 339.32,-1017.45"/>
<polygon fill="#63b8ff" stroke="#63b8ff" points="234.73,-593.13 230.24,-583.53 227.77,-593.83 234.73,-593.13"/>
</a>
</g>
</g>
<!-- Node8 -->
<g id="Node000008" class="node">
<title>Node8</title>
<g id="a_Node000008"><a xlink:href="classllvm_1_1BasicTTIImplBase.html" target="_top" xlink:title=" ">
<polygon fill="white" stroke="#666666" points="460.5,-998.88 339.5,-998.88 339.5,-968.38 460.5,-968.38 460.5,-998.88"/>
<text xml:space="preserve" text-anchor="start" x="347.5" y="-985.38" font-family="Helvetica,sans-Serif" font-size="10.00">llvm::BasicTTIImplBase</text>
<text xml:space="preserve" text-anchor="middle" x="400" y="-974.12" font-family="Helvetica,sans-Serif" font-size="10.00">&lt; GCNTTIImpl &gt;</text>
</a>
</g>
</g>
<!-- Node1&#45;&gt;Node8 -->
<g id="edge10602_Node000001_Node000008" class="edge">
<title>Node1&#45;&gt;Node8</title>
<g id="a_edge10602_Node000001_Node000008"><a xlink:title=" ">
<path fill="none" stroke="#63b8ff" d="M232.05,-593.41C242.7,-672.67 277.48,-903.93 327.5,-958.62 330.87,-962.31 334.82,-965.46 339.09,-968.14"/>
<polygon fill="#63b8ff" stroke="#63b8ff" points="235.53,-593 230.75,-583.55 228.59,-593.92 235.53,-593"/>
</a>
</g>
</g>
<!-- Node10 -->
<g id="Node000010" class="node">
<title>Node10</title>
<g id="a_Node000010"><a xlink:href="classllvm_1_1BasicTTIImplBase.html" target="_top" xlink:title=" ">
<polygon fill="white" stroke="#666666" points="460.5,-949.88 339.5,-949.88 339.5,-919.38 460.5,-919.38 460.5,-949.88"/>
<text xml:space="preserve" text-anchor="start" x="347.5" y="-936.38" font-family="Helvetica,sans-Serif" font-size="10.00">llvm::BasicTTIImplBase</text>
<text xml:space="preserve" text-anchor="middle" x="400" y="-925.12" font-family="Helvetica,sans-Serif" font-size="10.00">&lt; R600TTIImpl &gt;</text>
</a>
</g>
</g>
<!-- Node1&#45;&gt;Node10 -->
<g id="edge10604_Node000001_Node000010" class="edge">
<title>Node1&#45;&gt;Node10</title>
<g id="a_edge10604_Node000001_Node000010"><a xlink:title=" ">
<path fill="none" stroke="#63b8ff" d="M228.48,-593.36C229.59,-656.9 241.27,-818.45 327.5,-909.62 330.93,-913.26 334.92,-916.36 339.23,-919.01"/>
<polygon fill="#63b8ff" stroke="#63b8ff" points="231.98,-593.49 228.39,-583.52 224.98,-593.55 231.98,-593.49"/>
</a>
</g>
</g>
<!-- Node12 -->
<g id="Node000012" class="node">
<title>Node12</title>
<g id="a_Node000012"><a xlink:href="classllvm_1_1BasicTTIImplBase.html" target="_top" xlink:title=" ">
<polygon fill="white" stroke="#666666" points="460.5,-900.88 339.5,-900.88 339.5,-870.38 460.5,-870.38 460.5,-900.88"/>
<text xml:space="preserve" text-anchor="start" x="347.5" y="-887.38" font-family="Helvetica,sans-Serif" font-size="10.00">llvm::BasicTTIImplBase</text>
<text xml:space="preserve" text-anchor="middle" x="400" y="-876.12" font-family="Helvetica,sans-Serif" font-size="10.00">&lt; ARCTTIImpl &gt;</text>
</a>
</g>
</g>
<!-- Node1&#45;&gt;Node12 -->
<g id="edge10606_Node000001_Node000012" class="edge">
<title>Node1&#45;&gt;Node12</title>
<g id="a_edge10606_Node000001_Node000012"><a xlink:title=" ">
<path fill="none" stroke="#63b8ff" d="M230.01,-593.4C234.4,-650.42 252.57,-784.79 327.5,-860.62 331.1,-864.27 335.27,-867.39 339.74,-870.05"/>
<polygon fill="#63b8ff" stroke="#63b8ff" points="233.52,-593.41 229.35,-583.67 226.54,-593.88 233.52,-593.41"/>
</a>
</g>
</g>
<!-- Node14 -->
<g id="Node000014" class="node">
<title>Node14</title>
<g id="a_Node000014"><a xlink:href="classllvm_1_1BasicTTIImplBase.html" target="_top" xlink:title=" ">
<polygon fill="white" stroke="#666666" points="460.5,-851.88 339.5,-851.88 339.5,-821.38 460.5,-821.38 460.5,-851.88"/>
<text xml:space="preserve" text-anchor="start" x="347.5" y="-838.38" font-family="Helvetica,sans-Serif" font-size="10.00">llvm::BasicTTIImplBase</text>
<text xml:space="preserve" text-anchor="middle" x="400" y="-827.12" font-family="Helvetica,sans-Serif" font-size="10.00">&lt; ARMTTIImpl &gt;</text>
</a>
</g>
</g>
<!-- Node1&#45;&gt;Node14 -->
<g id="edge10608_Node000001_Node000014" class="edge">
<title>Node1&#45;&gt;Node14</title>
<g id="a_edge10608_Node000001_Node000014"><a xlink:title=" ">
<path fill="none" stroke="#63b8ff" d="M232.11,-593.39C239.98,-643.25 263.72,-750.79 327.5,-811.62 331.31,-815.26 335.67,-818.36 340.32,-821.02"/>
<polygon fill="#63b8ff" stroke="#63b8ff" points="235.61,-593.17 230.69,-583.79 228.69,-594.19 235.61,-593.17"/>
</a>
</g>
</g>
<!-- Node16 -->
<g id="Node000016" class="node">
<title>Node16</title>
<g id="a_Node000016"><a xlink:href="classllvm_1_1BasicTTIImplBase.html" target="_top" xlink:title=" ">
<polygon fill="white" stroke="#666666" points="460.5,-802.88 339.5,-802.88 339.5,-772.38 460.5,-772.38 460.5,-802.88"/>
<text xml:space="preserve" text-anchor="start" x="347.5" y="-789.38" font-family="Helvetica,sans-Serif" font-size="10.00">llvm::BasicTTIImplBase</text>
<text xml:space="preserve" text-anchor="middle" x="400" y="-778.12" font-family="Helvetica,sans-Serif" font-size="10.00">&lt; AVRTTIImpl &gt;</text>
</a>
</g>
</g>
<!-- Node1&#45;&gt;Node16 -->
<g id="edge10610_Node000001_Node000016" class="edge">
<title>Node1&#45;&gt;Node16</title>
<g id="a_edge10610_Node000001_Node000016"><a xlink:title=" ">
<path fill="none" stroke="#63b8ff" d="M235.13,-593.28C246.69,-635.14 274.71,-716.32 327.5,-762.62 331.65,-766.27 336.37,-769.39 341.35,-772.06"/>
<polygon fill="#63b8ff" stroke="#63b8ff" points="238.57,-592.57 232.63,-583.8 231.8,-594.36 238.57,-592.57"/>
</a>
</g>
</g>
<!-- Node18 -->
<g id="Node000018" class="node">
<title>Node18</title>
<g id="a_Node000018"><a xlink:href="classllvm_1_1BasicTTIImplBase.html" target="_top" xlink:title=" ">
<polygon fill="white" stroke="#666666" points="460.5,-753.88 339.5,-753.88 339.5,-723.38 460.5,-723.38 460.5,-753.88"/>
<text xml:space="preserve" text-anchor="start" x="347.5" y="-740.38" font-family="Helvetica,sans-Serif" font-size="10.00">llvm::BasicTTIImplBase</text>
<text xml:space="preserve" text-anchor="middle" x="400" y="-729.12" font-family="Helvetica,sans-Serif" font-size="10.00">&lt; BPFTTIImpl &gt;</text>
</a>
</g>
</g>
<!-- Node1&#45;&gt;Node18 -->
<g id="edge10612_Node000001_Node000018" class="edge">
<title>Node1&#45;&gt;Node18</title>
<g id="a_edge10612_Node000001_Node000018"><a xlink:title=" ">
<path fill="none" stroke="#63b8ff" d="M239.68,-592.48C254.9,-625.15 285.29,-681.03 327.5,-713.62 332.18,-717.24 337.43,-720.36 342.9,-723.04"/>
<polygon fill="#63b8ff" stroke="#63b8ff" points="243.04,-591.41 235.73,-583.74 236.66,-594.29 243.04,-591.41"/>
</a>
</g>
</g>
<!-- Node20 -->
<g id="Node000020" class="node">
<title>Node20</title>
<g id="a_Node000020"><a xlink:href="classllvm_1_1BasicTTIImplBase.html" target="_top" xlink:title=" ">
<polygon fill="white" stroke="#666666" points="460.5,-704.88 339.5,-704.88 339.5,-674.38 460.5,-674.38 460.5,-704.88"/>
<text xml:space="preserve" text-anchor="start" x="347.5" y="-691.38" font-family="Helvetica,sans-Serif" font-size="10.00">llvm::BasicTTIImplBase</text>
<text xml:space="preserve" text-anchor="middle" x="400" y="-680.12" font-family="Helvetica,sans-Serif" font-size="10.00">&lt; DirectXTTIImpl &gt;</text>
</a>
</g>
</g>
<!-- Node1&#45;&gt;Node20 -->
<g id="edge10614_Node000001_Node000020" class="edge">
<title>Node1&#45;&gt;Node20</title>
<g id="a_edge10614_Node000001_Node000020"><a xlink:title=" ">
<path fill="none" stroke="#63b8ff" d="M247.55,-590.76C265.9,-612.72 295.58,-644.67 327.5,-664.62 333.08,-668.11 339.2,-671.19 345.45,-673.88"/>
<polygon fill="#63b8ff" stroke="#63b8ff" points="250.41,-588.72 241.37,-583.2 244.99,-593.15 250.41,-588.72"/>
</a>
</g>
</g>
<!-- Node22 -->
<g id="Node000022" class="node">
<title>Node22</title>
<g id="a_Node000022"><a xlink:href="classllvm_1_1BasicTTIImplBase.html" target="_top" xlink:title=" ">
<polygon fill="white" stroke="#666666" points="460.5,-655.88 339.5,-655.88 339.5,-625.38 460.5,-625.38 460.5,-655.88"/>
<text xml:space="preserve" text-anchor="start" x="347.5" y="-642.38" font-family="Helvetica,sans-Serif" font-size="10.00">llvm::BasicTTIImplBase</text>
<text xml:space="preserve" text-anchor="middle" x="400" y="-631.12" font-family="Helvetica,sans-Serif" font-size="10.00">&lt; HexagonTTIImpl &gt;</text>
</a>
</g>
</g>
<!-- Node1&#45;&gt;Node22 -->
<g id="edge10616_Node000001_Node000022" class="edge">
<title>Node1&#45;&gt;Node22</title>
<g id="a_edge10616_Node000001_Node000022"><a xlink:title=" ">
<path fill="none" stroke="#63b8ff" d="M267.71,-587.39C285.68,-596.57 307.42,-607.18 327.5,-615.62 335.14,-618.84 343.34,-621.98 351.38,-624.9"/>
<polygon fill="#63b8ff" stroke="#63b8ff" points="269.44,-584.34 258.95,-582.87 266.23,-590.56 269.44,-584.34"/>
</a>
</g>
</g>
<!-- Node24 -->
<g id="Node000024" class="node">
<title>Node24</title>
<g id="a_Node000024"><a xlink:href="classllvm_1_1BasicTTIImplBase.html" target="_top" xlink:title=" ">
<polygon fill="white" stroke="#666666" points="460.5,-606.88 339.5,-606.88 339.5,-576.38 460.5,-576.38 460.5,-606.88"/>
<text xml:space="preserve" text-anchor="start" x="347.5" y="-593.38" font-family="Helvetica,sans-Serif" font-size="10.00">llvm::BasicTTIImplBase</text>
<text xml:space="preserve" text-anchor="middle" x="400" y="-582.12" font-family="Helvetica,sans-Serif" font-size="10.00">&lt; LanaiTTIImpl &gt;</text>
</a>
</g>
</g>
<!-- Node1&#45;&gt;Node24 -->
<g id="edge10618_Node000001_Node000024" class="edge">
<title>Node1&#45;&gt;Node24</title>
<g id="a_edge10618_Node000001_Node000024"><a xlink:title=" ">
<path fill="none" stroke="#63b8ff" d="M302.66,-577.49C314.85,-579.28 327.34,-581.11 339.13,-582.84"/>
<polygon fill="#63b8ff" stroke="#63b8ff" points="303.48,-574.07 293.08,-576.08 302.47,-581 303.48,-574.07"/>
</a>
</g>
</g>
<!-- Node26 -->
<g id="Node000026" class="node">
<title>Node26</title>
<g id="a_Node000026"><a xlink:href="classllvm_1_1BasicTTIImplBase.html" target="_top" xlink:title=" ">
<polygon fill="white" stroke="#666666" points="460.5,-557.88 339.5,-557.88 339.5,-527.38 460.5,-527.38 460.5,-557.88"/>
<text xml:space="preserve" text-anchor="start" x="347.5" y="-544.38" font-family="Helvetica,sans-Serif" font-size="10.00">llvm::BasicTTIImplBase</text>
<text xml:space="preserve" text-anchor="middle" x="400" y="-533.12" font-family="Helvetica,sans-Serif" font-size="10.00">&lt; LoongArchTTIImpl &gt;</text>
</a>
</g>
</g>
<!-- Node1&#45;&gt;Node26 -->
<g id="edge10620_Node000001_Node000026" class="edge">
<title>Node1&#45;&gt;Node26</title>
<g id="a_edge10620_Node000001_Node000026"><a xlink:title=" ">
<path fill="none" stroke="#63b8ff" d="M302.66,-556.2C314.85,-554.48 327.34,-552.72 339.13,-551.06"/>
<polygon fill="#63b8ff" stroke="#63b8ff" points="302.5,-552.68 293.08,-557.55 303.47,-559.62 302.5,-552.68"/>
</a>
</g>
</g>
<!-- Node28 -->
<g id="Node000028" class="node">
<title>Node28</title>
<g id="a_Node000028"><a xlink:href="classllvm_1_1BasicTTIImplBase.html" target="_top" xlink:title=" ">
<polygon fill="white" stroke="#666666" points="460.5,-508.88 339.5,-508.88 339.5,-478.38 460.5,-478.38 460.5,-508.88"/>
<text xml:space="preserve" text-anchor="start" x="347.5" y="-495.38" font-family="Helvetica,sans-Serif" font-size="10.00">llvm::BasicTTIImplBase</text>
<text xml:space="preserve" text-anchor="middle" x="400" y="-484.12" font-family="Helvetica,sans-Serif" font-size="10.00">&lt; MipsTTIImpl &gt;</text>
</a>
</g>
</g>
<!-- Node1&#45;&gt;Node28 -->
<g id="edge10622_Node000001_Node000028" class="edge">
<title>Node1&#45;&gt;Node28</title>
<g id="a_edge10622_Node000001_Node000028"><a xlink:title=" ">
<path fill="none" stroke="#63b8ff" d="M268.55,-545.94C286.37,-537.05 307.76,-526.83 327.5,-518.62 335.27,-515.39 343.62,-512.21 351.78,-509.26"/>
<polygon fill="#63b8ff" stroke="#63b8ff" points="267.21,-542.7 259.86,-550.32 270.36,-548.95 267.21,-542.7"/>
</a>
</g>
</g>
<!-- Node30 -->
<g id="Node000030" class="node">
<title>Node30</title>
<g id="a_Node000030"><a xlink:href="classllvm_1_1BasicTTIImplBase.html" target="_top" xlink:title=" ">
<polygon fill="white" stroke="#666666" points="460.5,-459.88 339.5,-459.88 339.5,-429.38 460.5,-429.38 460.5,-459.88"/>
<text xml:space="preserve" text-anchor="start" x="347.5" y="-446.38" font-family="Helvetica,sans-Serif" font-size="10.00">llvm::BasicTTIImplBase</text>
<text xml:space="preserve" text-anchor="middle" x="400" y="-435.12" font-family="Helvetica,sans-Serif" font-size="10.00">&lt; NVPTXTTIImpl &gt;</text>
</a>
</g>
</g>
<!-- Node1&#45;&gt;Node30 -->
<g id="edge10624_Node000001_Node000030" class="edge">
<title>Node1&#45;&gt;Node30</title>
<g id="a_edge10624_Node000001_Node000030"><a xlink:title=" ">
<path fill="none" stroke="#63b8ff" d="M247.91,-542.38C266.32,-520.66 295.87,-489.28 327.5,-469.62 333.2,-466.08 339.46,-462.96 345.84,-460.23"/>
<polygon fill="#63b8ff" stroke="#63b8ff" points="245.39,-539.94 241.7,-549.87 250.78,-544.41 245.39,-539.94"/>
</a>
</g>
</g>
<!-- Node32 -->
<g id="Node000032" class="node">
<title>Node32</title>
<g id="a_Node000032"><a xlink:href="classllvm_1_1BasicTTIImplBase.html" target="_top" xlink:title=" ">
<polygon fill="white" stroke="#666666" points="460.5,-410.88 339.5,-410.88 339.5,-380.38 460.5,-380.38 460.5,-410.88"/>
<text xml:space="preserve" text-anchor="start" x="347.5" y="-397.38" font-family="Helvetica,sans-Serif" font-size="10.00">llvm::BasicTTIImplBase</text>
<text xml:space="preserve" text-anchor="middle" x="400" y="-386.12" font-family="Helvetica,sans-Serif" font-size="10.00">&lt; PPCTTIImpl &gt;</text>
</a>
</g>
</g>
<!-- Node1&#45;&gt;Node32 -->
<g id="edge10626_Node000001_Node000032" class="edge">
<title>Node1&#45;&gt;Node32</title>
<g id="a_edge10626_Node000001_Node000032"><a xlink:title=" ">
<path fill="none" stroke="#63b8ff" d="M239.73,-540.95C254.99,-508.5 285.43,-453 327.5,-420.62 332.19,-417.02 337.44,-413.9 342.91,-411.22"/>
<polygon fill="#63b8ff" stroke="#63b8ff" points="236.73,-539.07 235.76,-549.62 243.1,-541.98 236.73,-539.07"/>
</a>
</g>
</g>
<!-- Node34 -->
<g id="Node000034" class="node">
<title>Node34</title>
<g id="a_Node000034"><a xlink:href="classllvm_1_1BasicTTIImplBase.html" target="_top" xlink:title=" ">
<polygon fill="white" stroke="#666666" points="460.5,-361.88 339.5,-361.88 339.5,-331.38 460.5,-331.38 460.5,-361.88"/>
<text xml:space="preserve" text-anchor="start" x="347.5" y="-348.38" font-family="Helvetica,sans-Serif" font-size="10.00">llvm::BasicTTIImplBase</text>
<text xml:space="preserve" text-anchor="middle" x="400" y="-337.12" font-family="Helvetica,sans-Serif" font-size="10.00">&lt; RISCVTTIImpl &gt;</text>
</a>
</g>
</g>
<!-- Node1&#45;&gt;Node34 -->
<g id="edge10628_Node000001_Node000034" class="edge">
<title>Node1&#45;&gt;Node34</title>
<g id="a_edge10628_Node000001_Node000034"><a xlink:title=" ">
<path fill="none" stroke="#63b8ff" d="M235.17,-540.11C246.78,-498.45 274.87,-417.68 327.5,-371.62 331.66,-367.99 336.37,-364.87 341.35,-362.2"/>
<polygon fill="#63b8ff" stroke="#63b8ff" points="231.85,-538.97 232.66,-549.53 238.62,-540.77 231.85,-538.97"/>
</a>
</g>
</g>
<!-- Node36 -->
<g id="Node000036" class="node">
<title>Node36</title>
<g id="a_Node000036"><a xlink:href="classllvm_1_1BasicTTIImplBase.html" target="_top" xlink:title=" ">
<polygon fill="white" stroke="#666666" points="460.5,-312.88 339.5,-312.88 339.5,-282.38 460.5,-282.38 460.5,-312.88"/>
<text xml:space="preserve" text-anchor="start" x="347.5" y="-299.38" font-family="Helvetica,sans-Serif" font-size="10.00">llvm::BasicTTIImplBase</text>
<text xml:space="preserve" text-anchor="middle" x="400" y="-288.12" font-family="Helvetica,sans-Serif" font-size="10.00">&lt; SPIRVTTIImpl &gt;</text>
</a>
</g>
</g>
<!-- Node1&#45;&gt;Node36 -->
<g id="edge10630_Node000001_Node000036" class="edge">
<title>Node1&#45;&gt;Node36</title>
<g id="a_edge10630_Node000001_Node000036"><a xlink:title=" ">
<path fill="none" stroke="#63b8ff" d="M232.19,-539.65C240.17,-489.86 264.04,-383.07 327.5,-322.62 331.31,-319 335.67,-315.89 340.33,-313.24"/>
<polygon fill="#63b8ff" stroke="#63b8ff" points="228.73,-539.12 230.71,-549.53 235.65,-540.15 228.73,-539.12"/>
</a>
</g>
</g>
<!-- Node38 -->
<g id="Node000038" class="node">
<title>Node38</title>
<g id="a_Node000038"><a xlink:href="classllvm_1_1BasicTTIImplBase.html" target="_top" xlink:title=" ">
<polygon fill="white" stroke="#666666" points="460.5,-263.88 339.5,-263.88 339.5,-233.38 460.5,-233.38 460.5,-263.88"/>
<text xml:space="preserve" text-anchor="start" x="347.5" y="-250.38" font-family="Helvetica,sans-Serif" font-size="10.00">llvm::BasicTTIImplBase</text>
<text xml:space="preserve" text-anchor="middle" x="400" y="-239.12" font-family="Helvetica,sans-Serif" font-size="10.00">&lt; SystemZTTIImpl &gt;</text>
</a>
</g>
</g>
<!-- Node1&#45;&gt;Node38 -->
<g id="edge10632_Node000001_Node000038" class="edge">
<title>Node1&#45;&gt;Node38</title>
<g id="a_edge10632_Node000001_Node000038"><a xlink:title=" ">
<path fill="none" stroke="#63b8ff" d="M230.04,-539.94C234.48,-483.11 252.76,-349.19 327.5,-273.62 331.11,-269.98 335.27,-266.86 339.75,-264.2"/>
<polygon fill="#63b8ff" stroke="#63b8ff" points="226.57,-539.42 229.37,-549.64 233.55,-539.9 226.57,-539.42"/>
</a>
</g>
</g>
<!-- Node40 -->
<g id="Node000040" class="node">
<title>Node40</title>
<g id="a_Node000040"><a xlink:href="classllvm_1_1BasicTTIImplBase.html" target="_top" xlink:title=" ">
<polygon fill="white" stroke="#666666" points="460.5,-214.88 339.5,-214.88 339.5,-184.38 460.5,-184.38 460.5,-214.88"/>
<text xml:space="preserve" text-anchor="start" x="347.5" y="-201.38" font-family="Helvetica,sans-Serif" font-size="10.00">llvm::BasicTTIImplBase</text>
<text xml:space="preserve" text-anchor="middle" x="400" y="-190.12" font-family="Helvetica,sans-Serif" font-size="10.00">&lt; VETTIImpl &gt;</text>
</a>
</g>
</g>
<!-- Node1&#45;&gt;Node40 -->
<g id="edge10634_Node000001_Node000040" class="edge">
<title>Node1&#45;&gt;Node40</title>
<g id="a_edge10634_Node000001_Node000040"><a xlink:title=" ">
<path fill="none" stroke="#63b8ff" d="M228.51,-539.53C229.73,-475.86 241.66,-315.31 327.5,-224.62 330.94,-221 334.93,-217.89 339.23,-215.24"/>
<polygon fill="#63b8ff" stroke="#63b8ff" points="225.01,-539.37 228.41,-549.4 232.01,-539.44 225.01,-539.37"/>
</a>
</g>
</g>
<!-- Node42 -->
<g id="Node000042" class="node">
<title>Node42</title>
<g id="a_Node000042"><a xlink:href="classllvm_1_1BasicTTIImplBase.html" target="_top" xlink:title=" ">
<polygon fill="white" stroke="#666666" points="465.38,-165.88 334.62,-165.88 334.62,-135.38 465.38,-135.38 465.38,-165.88"/>
<text xml:space="preserve" text-anchor="start" x="342.62" y="-152.38" font-family="Helvetica,sans-Serif" font-size="10.00">llvm::BasicTTIImplBase</text>
<text xml:space="preserve" text-anchor="middle" x="400" y="-141.12" font-family="Helvetica,sans-Serif" font-size="10.00">&lt; WebAssemblyTTIImpl &gt;</text>
</a>
</g>
</g>
<!-- Node1&#45;&gt;Node42 -->
<g id="edge10636_Node000001_Node000042" class="edge">
<title>Node1&#45;&gt;Node42</title>
<g id="a_edge10636_Node000001_Node000042"><a xlink:title=" ">
<path fill="none" stroke="#63b8ff" d="M232.06,-539.91C242.73,-460.84 277.59,-230.17 327.5,-175.62 330.78,-172.04 334.61,-168.96 338.76,-166.33"/>
<polygon fill="#63b8ff" stroke="#63b8ff" points="228.6,-539.37 230.76,-549.74 235.54,-540.29 228.6,-539.37"/>
</a>
</g>
</g>
<!-- Node44 -->
<g id="Node000044" class="node">
<title>Node44</title>
<g id="a_Node000044"><a xlink:href="classllvm_1_1BasicTTIImplBase.html" target="_top" xlink:title=" ">
<polygon fill="white" stroke="#666666" points="460.5,-116.88 339.5,-116.88 339.5,-86.38 460.5,-86.38 460.5,-116.88"/>
<text xml:space="preserve" text-anchor="start" x="347.5" y="-103.38" font-family="Helvetica,sans-Serif" font-size="10.00">llvm::BasicTTIImplBase</text>
<text xml:space="preserve" text-anchor="middle" x="400" y="-92.12" font-family="Helvetica,sans-Serif" font-size="10.00">&lt; X86TTIImpl &gt;</text>
</a>
</g>
</g>
<!-- Node1&#45;&gt;Node44 -->
<g id="edge10638_Node000001_Node000044" class="edge">
<title>Node1&#45;&gt;Node44</title>
<g id="a_edge10638_Node000001_Node000044"><a xlink:title=" ">
<path fill="none" stroke="#63b8ff" d="M231.24,-540C240.13,-454.56 271.78,-189.17 327.5,-126.62 330.91,-122.8 334.94,-119.55 339.33,-116.81"/>
<polygon fill="#63b8ff" stroke="#63b8ff" points="227.78,-539.45 230.25,-549.75 234.74,-540.16 227.78,-539.45"/>
</a>
</g>
</g>
<!-- Node46 -->
<g id="Node000046" class="node">
<title>Node46</title>
<g id="a_Node000046"><a xlink:href="classllvm_1_1BasicTTIImplBase.html" target="_top" xlink:title=" ">
<polygon fill="white" stroke="#666666" points="460.5,-67.88 339.5,-67.88 339.5,-37.38 460.5,-37.38 460.5,-67.88"/>
<text xml:space="preserve" text-anchor="start" x="347.5" y="-54.38" font-family="Helvetica,sans-Serif" font-size="10.00">llvm::BasicTTIImplBase</text>
<text xml:space="preserve" text-anchor="middle" x="400" y="-43.12" font-family="Helvetica,sans-Serif" font-size="10.00">&lt; XCoreTTIImpl &gt;</text>
</a>
</g>
</g>
<!-- Node1&#45;&gt;Node46 -->
<g id="edge10640_Node000001_Node000046" class="edge">
<title>Node1&#45;&gt;Node46</title>
<g id="a_edge10640_Node000001_Node000046"><a xlink:title=" ">
<path fill="none" stroke="#63b8ff" d="M230.6,-539.79C237.88,-447.98 266.01,-148.16 327.5,-77.62 330.87,-73.76 334.87,-70.49 339.24,-67.73"/>
<polygon fill="#63b8ff" stroke="#63b8ff" points="227.13,-539.34 229.85,-549.58 234.11,-539.88 227.13,-539.34"/>
</a>
</g>
</g>
<!-- Node48 -->
<g id="Node000048" class="node">
<title>Node48</title>
<g id="a_Node000048"><a xlink:href="classllvm_1_1BasicTTIImplBase.html" target="_top" xlink:title="Base class which can be used to help build a TTI implementation.">
<polygon fill="white" stroke="#666666" points="472.5,-19.25 327.5,-19.25 327.5,0 472.5,0 472.5,-19.25"/>
<text xml:space="preserve" text-anchor="middle" x="400" y="-5.75" font-family="Helvetica,sans-Serif" font-size="10.00">llvm::BasicTTIImplBase&lt; T &gt;</text>
</a>
</g>
</g>
<!-- Node1&#45;&gt;Node48 -->
<g id="edge10642_Node000001_Node000048" class="edge">
<title>Node1&#45;&gt;Node48</title>
<g id="a_edge10642_Node000001_Node000048"><a xlink:title=" ">
<path fill="none" stroke="#63b8ff" d="M229.86,-539.83C234.9,-441.84 257.16,-104.68 327.5,-28.62 330.81,-25.04 334.72,-22.1 338.97,-19.7"/>
<polygon fill="#63b8ff" stroke="#63b8ff" points="226.37,-539.38 229.38,-549.54 233.37,-539.73 226.37,-539.38"/>
</a>
</g>
</g>
<!-- Node3 -->
<g id="Node000003" class="node">
<title>Node3</title>
<g id="a_Node000003"><a xlink:href="classllvm_1_1BasicTTIImpl.html" target="_top" xlink:title="Concrete BasicTTIImpl that can be used if no further customization is needed.">
<polygon fill="white" stroke="#666666" points="626.12,-1140.25 527.62,-1140.25 527.62,-1121 626.12,-1121 626.12,-1140.25"/>
<text xml:space="preserve" text-anchor="middle" x="576.88" y="-1126.75" font-family="Helvetica,sans-Serif" font-size="10.00">llvm::BasicTTIImpl</text>
</a>
</g>
</g>
<!-- Node2&#45;&gt;Node3 -->
<g id="edge10597_Node000002_Node000003" class="edge">
<title>Node2&#45;&gt;Node3</title>
<g id="a_edge10597_Node000002_Node000003"><a xlink:title=" ">
<path fill="none" stroke="#63b8ff" d="M472.06,-1130.62C490.58,-1130.62 510.11,-1130.62 527.17,-1130.62"/>
<polygon fill="#63b8ff" stroke="#63b8ff" points="472.21,-1127.13 462.21,-1130.63 472.21,-1134.13 472.21,-1127.13"/>
</a>
</g>
</g>
<!-- Node5 -->
<g id="Node000005" class="node">
<title>Node5</title>
<g id="a_Node000005"><a xlink:href="classllvm_1_1AArch64TTIImpl.html" target="_top" xlink:title=" ">
<polygon fill="white" stroke="#666666" points="632.5,-1091.25 521.25,-1091.25 521.25,-1072 632.5,-1072 632.5,-1091.25"/>
<text xml:space="preserve" text-anchor="middle" x="576.88" y="-1077.75" font-family="Helvetica,sans-Serif" font-size="10.00">llvm::AArch64TTIImpl</text>
</a>
</g>
</g>
<!-- Node4&#45;&gt;Node5 -->
<g id="edge10599_Node000004_Node000005" class="edge">
<title>Node4&#45;&gt;Node5</title>
<g id="a_edge10599_Node000004_Node000005"><a xlink:title=" ">
<path fill="none" stroke="#63b8ff" d="M471.84,-1081.62C488.18,-1081.62 505.32,-1081.62 520.86,-1081.62"/>
<polygon fill="#63b8ff" stroke="#63b8ff" points="472.21,-1078.13 462.21,-1081.63 472.21,-1085.13 472.21,-1078.13"/>
</a>
</g>
</g>
<!-- Node7 -->
<g id="Node000007" class="node">
<title>Node7</title>
<g id="a_Node000007"><a xlink:href="classllvm_1_1AMDGPUTTIImpl.html" target="_top" xlink:title=" ">
<polygon fill="white" stroke="#666666" points="635.88,-1042.25 517.88,-1042.25 517.88,-1023 635.88,-1023 635.88,-1042.25"/>
<text xml:space="preserve" text-anchor="middle" x="576.88" y="-1028.75" font-family="Helvetica,sans-Serif" font-size="10.00">llvm::AMDGPUTTIImpl</text>
</a>
</g>
</g>
<!-- Node6&#45;&gt;Node7 -->
<g id="edge10601_Node000006_Node000007" class="edge">
<title>Node6&#45;&gt;Node7</title>
<g id="a_edge10601_Node000006_Node000007"><a xlink:title=" ">
<path fill="none" stroke="#63b8ff" d="M472.1,-1032.62C487.24,-1032.62 503.05,-1032.62 517.63,-1032.62"/>
<polygon fill="#63b8ff" stroke="#63b8ff" points="472.21,-1029.13 462.21,-1032.63 472.21,-1036.13 472.21,-1029.13"/>
</a>
</g>
</g>
<!-- Node9 -->
<g id="Node000009" class="node">
<title>Node9</title>
<g id="a_Node000009"><a xlink:href="classllvm_1_1GCNTTIImpl.html" target="_top" xlink:title=" ">
<polygon fill="white" stroke="#666666" points="625,-993.25 528.75,-993.25 528.75,-974 625,-974 625,-993.25"/>
<text xml:space="preserve" text-anchor="middle" x="576.88" y="-979.75" font-family="Helvetica,sans-Serif" font-size="10.00">llvm::GCNTTIImpl</text>
</a>
</g>
</g>
<!-- Node8&#45;&gt;Node9 -->
<g id="edge10603_Node000008_Node000009" class="edge">
<title>Node8&#45;&gt;Node9</title>
<g id="a_edge10603_Node000008_Node000009"><a xlink:title=" ">
<path fill="none" stroke="#63b8ff" d="M472,-983.62C490.94,-983.62 510.95,-983.62 528.3,-983.62"/>
<polygon fill="#63b8ff" stroke="#63b8ff" points="472.21,-980.13 462.21,-983.63 472.21,-987.13 472.21,-980.13"/>
</a>
</g>
</g>
<!-- Node11 -->
<g id="Node000011" class="node">
<title>Node11</title>
<g id="a_Node000011"><a xlink:href="classllvm_1_1R600TTIImpl.html" target="_top" xlink:title=" ">
<polygon fill="white" stroke="#666666" points="625.38,-944.25 528.38,-944.25 528.38,-925 625.38,-925 625.38,-944.25"/>
<text xml:space="preserve" text-anchor="middle" x="576.88" y="-930.75" font-family="Helvetica,sans-Serif" font-size="10.00">llvm::R600TTIImpl</text>
</a>
</g>
</g>
<!-- Node10&#45;&gt;Node11 -->
<g id="edge10605_Node000010_Node000011" class="edge">
<title>Node10&#45;&gt;Node11</title>
<g id="a_edge10605_Node000010_Node000011"><a xlink:title=" ">
<path fill="none" stroke="#63b8ff" d="M471.95,-934.62C490.81,-934.62 510.72,-934.62 528.02,-934.62"/>
<polygon fill="#63b8ff" stroke="#63b8ff" points="472.21,-931.13 462.21,-934.63 472.21,-938.13 472.21,-931.13"/>
</a>
</g>
</g>
<!-- Node13 -->
<g id="Node000013" class="node">
<title>Node13</title>
<g id="a_Node000013"><a xlink:href="classllvm_1_1ARCTTIImpl.html" target="_top" xlink:title=" ">
<polygon fill="white" stroke="#666666" points="624.62,-895.25 529.12,-895.25 529.12,-876 624.62,-876 624.62,-895.25"/>
<text xml:space="preserve" text-anchor="middle" x="576.88" y="-881.75" font-family="Helvetica,sans-Serif" font-size="10.00">llvm::ARCTTIImpl</text>
</a>
</g>
</g>
<!-- Node12&#45;&gt;Node13 -->
<g id="edge10607_Node000012_Node000013" class="edge">
<title>Node12&#45;&gt;Node13</title>
<g id="a_edge10607_Node000012_Node000013"><a xlink:title=" ">
<path fill="none" stroke="#63b8ff" d="M472.11,-885.62C491.22,-885.62 511.42,-885.62 528.86,-885.62"/>
<polygon fill="#63b8ff" stroke="#63b8ff" points="472.21,-882.13 462.21,-885.63 472.21,-889.13 472.21,-882.13"/>
</a>
</g>
</g>
<!-- Node15 -->
<g id="Node000015" class="node">
<title>Node15</title>
<g id="a_Node000015"><a xlink:href="classllvm_1_1ARMTTIImpl.html" target="_top" xlink:title=" ">
<polygon fill="white" stroke="#666666" points="625,-846.25 528.75,-846.25 528.75,-827 625,-827 625,-846.25"/>
<text xml:space="preserve" text-anchor="middle" x="576.88" y="-832.75" font-family="Helvetica,sans-Serif" font-size="10.00">llvm::ARMTTIImpl</text>
</a>
</g>
</g>
<!-- Node14&#45;&gt;Node15 -->
<g id="edge10609_Node000014_Node000015" class="edge">
<title>Node14&#45;&gt;Node15</title>
<g id="a_edge10609_Node000014_Node000015"><a xlink:title=" ">
<path fill="none" stroke="#63b8ff" d="M472,-836.62C490.94,-836.62 510.95,-836.62 528.3,-836.62"/>
<polygon fill="#63b8ff" stroke="#63b8ff" points="472.21,-833.13 462.21,-836.63 472.21,-840.13 472.21,-833.13"/>
</a>
</g>
</g>
<!-- Node17 -->
<g id="Node000017" class="node">
<title>Node17</title>
<g id="a_Node000017"><a xlink:href="classllvm_1_1AVRTTIImpl.html" target="_top" xlink:title=" ">
<polygon fill="white" stroke="#666666" points="623.5,-797.25 530.25,-797.25 530.25,-778 623.5,-778 623.5,-797.25"/>
<text xml:space="preserve" text-anchor="middle" x="576.88" y="-783.75" font-family="Helvetica,sans-Serif" font-size="10.00">llvm::AVRTTIImpl</text>
</a>
</g>
</g>
<!-- Node16&#45;&gt;Node17 -->
<g id="edge10611_Node000016_Node000017" class="edge">
<title>Node16&#45;&gt;Node17</title>
<g id="a_edge10611_Node000016_Node000017"><a xlink:title=" ">
<path fill="none" stroke="#63b8ff" d="M472.04,-787.62C491.58,-787.62 512.26,-787.62 529.97,-787.62"/>
<polygon fill="#63b8ff" stroke="#63b8ff" points="472.21,-784.13 462.21,-787.63 472.21,-791.13 472.21,-784.13"/>
</a>
</g>
</g>
<!-- Node19 -->
<g id="Node000019" class="node">
<title>Node19</title>
<g id="a_Node000019"><a xlink:href="classllvm_1_1BPFTTIImpl.html" target="_top" xlink:title=" ">
<polygon fill="white" stroke="#666666" points="623.5,-748.25 530.25,-748.25 530.25,-729 623.5,-729 623.5,-748.25"/>
<text xml:space="preserve" text-anchor="middle" x="576.88" y="-734.75" font-family="Helvetica,sans-Serif" font-size="10.00">llvm::BPFTTIImpl</text>
</a>
</g>
</g>
<!-- Node18&#45;&gt;Node19 -->
<g id="edge10613_Node000018_Node000019" class="edge">
<title>Node18&#45;&gt;Node19</title>
<g id="a_edge10613_Node000018_Node000019"><a xlink:title=" ">
<path fill="none" stroke="#63b8ff" d="M472.04,-738.62C491.58,-738.62 512.26,-738.62 529.97,-738.62"/>
<polygon fill="#63b8ff" stroke="#63b8ff" points="472.21,-735.13 462.21,-738.63 472.21,-742.13 472.21,-735.13"/>
</a>
</g>
</g>
<!-- Node21 -->
<g id="Node000021" class="node">
<title>Node21</title>
<g id="a_Node000021"><a xlink:href="classllvm_1_1DirectXTTIImpl.html" target="_top" xlink:title=" ">
<polygon fill="white" stroke="#666666" points="630.25,-699.25 523.5,-699.25 523.5,-680 630.25,-680 630.25,-699.25"/>
<text xml:space="preserve" text-anchor="middle" x="576.88" y="-685.75" font-family="Helvetica,sans-Serif" font-size="10.00">llvm::DirectXTTIImpl</text>
</a>
</g>
</g>
<!-- Node20&#45;&gt;Node21 -->
<g id="edge10615_Node000020_Node000021" class="edge">
<title>Node20&#45;&gt;Node21</title>
<g id="a_edge10615_Node000020_Node000021"><a xlink:title=" ">
<path fill="none" stroke="#63b8ff" d="M471.81,-689.62C488.97,-689.62 507.02,-689.62 523.18,-689.62"/>
<polygon fill="#63b8ff" stroke="#63b8ff" points="472.21,-686.13 462.21,-689.63 472.21,-693.13 472.21,-686.13"/>
</a>
</g>
</g>
<!-- Node23 -->
<g id="Node000023" class="node">
<title>Node23</title>
<g id="a_Node000023"><a xlink:href="classllvm_1_1HexagonTTIImpl.html" target="_top" xlink:title=" ">
<polygon fill="white" stroke="#666666" points="633.25,-650.25 520.5,-650.25 520.5,-631 633.25,-631 633.25,-650.25"/>
<text xml:space="preserve" text-anchor="middle" x="576.88" y="-636.75" font-family="Helvetica,sans-Serif" font-size="10.00">llvm::HexagonTTIImpl</text>
</a>
</g>
</g>
<!-- Node22&#45;&gt;Node23 -->
<g id="edge10617_Node000022_Node000023" class="edge">
<title>Node22&#45;&gt;Node23</title>
<g id="a_edge10617_Node000022_Node000023"><a xlink:title=" ">
<path fill="none" stroke="#63b8ff" d="M472.2,-640.62C488.22,-640.62 505,-640.62 520.28,-640.62"/>
<polygon fill="#63b8ff" stroke="#63b8ff" points="472.21,-637.13 462.21,-640.63 472.21,-644.13 472.21,-637.13"/>
</a>
</g>
</g>
<!-- Node25 -->
<g id="Node000025" class="node">
<title>Node25</title>
<g id="a_Node000025"><a xlink:href="classllvm_1_1LanaiTTIImpl.html" target="_top" xlink:title=" ">
<polygon fill="white" stroke="#666666" points="625.38,-601.25 528.38,-601.25 528.38,-582 625.38,-582 625.38,-601.25"/>
<text xml:space="preserve" text-anchor="middle" x="576.88" y="-587.75" font-family="Helvetica,sans-Serif" font-size="10.00">llvm::LanaiTTIImpl</text>
</a>
</g>
</g>
<!-- Node24&#45;&gt;Node25 -->
<g id="edge10619_Node000024_Node000025" class="edge">
<title>Node24&#45;&gt;Node25</title>
<g id="a_edge10619_Node000024_Node000025"><a xlink:title=" ">
<path fill="none" stroke="#63b8ff" d="M471.95,-591.62C490.81,-591.62 510.72,-591.62 528.02,-591.62"/>
<polygon fill="#63b8ff" stroke="#63b8ff" points="472.21,-588.13 462.21,-591.63 472.21,-595.13 472.21,-588.13"/>
</a>
</g>
</g>
<!-- Node27 -->
<g id="Node000027" class="node">
<title>Node27</title>
<g id="a_Node000027"><a xlink:href="classllvm_1_1LoongArchTTIImpl.html" target="_top" xlink:title=" ">
<polygon fill="white" stroke="#666666" points="637,-552.25 516.75,-552.25 516.75,-533 637,-533 637,-552.25"/>
<text xml:space="preserve" text-anchor="middle" x="576.88" y="-538.75" font-family="Helvetica,sans-Serif" font-size="10.00">llvm::LoongArchTTIImpl</text>
</a>
</g>
</g>
<!-- Node26&#45;&gt;Node27 -->
<g id="edge10621_Node000026_Node000027" class="edge">
<title>Node26&#45;&gt;Node27</title>
<g id="a_edge10621_Node000026_Node000027"><a xlink:title=" ">
<path fill="none" stroke="#63b8ff" d="M471.85,-542.62C486.66,-542.62 502.11,-542.62 516.45,-542.62"/>
<polygon fill="#63b8ff" stroke="#63b8ff" points="472.21,-539.13 462.21,-542.63 472.21,-546.13 472.21,-539.13"/>
</a>
</g>
</g>
<!-- Node29 -->
<g id="Node000029" class="node">
<title>Node29</title>
<g id="a_Node000029"><a xlink:href="classllvm_1_1MipsTTIImpl.html" target="_top" xlink:title=" ">
<polygon fill="white" stroke="#666666" points="624.25,-503.25 529.5,-503.25 529.5,-484 624.25,-484 624.25,-503.25"/>
<text xml:space="preserve" text-anchor="middle" x="576.88" y="-489.75" font-family="Helvetica,sans-Serif" font-size="10.00">llvm::MipsTTIImpl</text>
</a>
</g>
</g>
<!-- Node28&#45;&gt;Node29 -->
<g id="edge10623_Node000028_Node000029" class="edge">
<title>Node28&#45;&gt;Node29</title>
<g id="a_edge10623_Node000028_Node000029"><a xlink:title=" ">
<path fill="none" stroke="#63b8ff" d="M472.16,-493.62C491.36,-493.62 511.65,-493.62 529.14,-493.62"/>
<polygon fill="#63b8ff" stroke="#63b8ff" points="472.21,-490.13 462.21,-493.63 472.21,-497.13 472.21,-490.13"/>
</a>
</g>
</g>
<!-- Node31 -->
<g id="Node000031" class="node">
<title>Node31</title>
<g id="a_Node000031"><a xlink:href="classllvm_1_1NVPTXTTIImpl.html" target="_top" xlink:title=" ">
<polygon fill="white" stroke="#666666" points="630.62,-454.25 523.12,-454.25 523.12,-435 630.62,-435 630.62,-454.25"/>
<text xml:space="preserve" text-anchor="middle" x="576.88" y="-440.75" font-family="Helvetica,sans-Serif" font-size="10.00">llvm::NVPTXTTIImpl</text>
</a>
</g>
</g>
<!-- Node30&#45;&gt;Node31 -->
<g id="edge10625_Node000030_Node000031" class="edge">
<title>Node30&#45;&gt;Node31</title>
<g id="a_edge10625_Node000030_Node000031"><a xlink:title=" ">
<path fill="none" stroke="#63b8ff" d="M471.76,-444.62C488.83,-444.62 506.79,-444.62 522.89,-444.62"/>
<polygon fill="#63b8ff" stroke="#63b8ff" points="472.21,-441.13 462.21,-444.63 472.21,-448.13 472.21,-441.13"/>
</a>
</g>
</g>
<!-- Node33 -->
<g id="Node000033" class="node">
<title>Node33</title>
<g id="a_Node000033"><a xlink:href="classllvm_1_1PPCTTIImpl.html" target="_top" xlink:title=" ">
<polygon fill="white" stroke="#666666" points="624.25,-405.25 529.5,-405.25 529.5,-386 624.25,-386 624.25,-405.25"/>
<text xml:space="preserve" text-anchor="middle" x="576.88" y="-391.75" font-family="Helvetica,sans-Serif" font-size="10.00">llvm::PPCTTIImpl</text>
</a>
</g>
</g>
<!-- Node32&#45;&gt;Node33 -->
<g id="edge10627_Node000032_Node000033" class="edge">
<title>Node32&#45;&gt;Node33</title>
<g id="a_edge10627_Node000032_Node000033"><a xlink:title=" ">
<path fill="none" stroke="#63b8ff" d="M472.16,-395.62C491.36,-395.62 511.65,-395.62 529.14,-395.62"/>
<polygon fill="#63b8ff" stroke="#63b8ff" points="472.21,-392.13 462.21,-395.63 472.21,-399.13 472.21,-392.13"/>
</a>
</g>
</g>
<!-- Node35 -->
<g id="Node000035" class="node">
<title>Node35</title>
<g id="a_Node000035"><a xlink:href="classllvm_1_1RISCVTTIImpl.html" target="_top" xlink:title=" ">
<polygon fill="white" stroke="#666666" points="629.5,-356.25 524.25,-356.25 524.25,-337 629.5,-337 629.5,-356.25"/>
<text xml:space="preserve" text-anchor="middle" x="576.88" y="-342.75" font-family="Helvetica,sans-Serif" font-size="10.00">llvm::RISCVTTIImpl</text>
</a>
</g>
</g>
<!-- Node34&#45;&gt;Node35 -->
<g id="edge10629_Node000034_Node000035" class="edge">
<title>Node34&#45;&gt;Node35</title>
<g id="a_edge10629_Node000034_Node000035"><a xlink:title=" ">
<path fill="none" stroke="#63b8ff" d="M471.92,-346.62C489.26,-346.62 507.49,-346.62 523.76,-346.62"/>
<polygon fill="#63b8ff" stroke="#63b8ff" points="472.21,-343.13 462.21,-346.63 472.21,-350.13 472.21,-343.13"/>
</a>
</g>
</g>
<!-- Node37 -->
<g id="Node000037" class="node">
<title>Node37</title>
<g id="a_Node000037"><a xlink:href="classllvm_1_1SPIRVTTIImpl.html" target="_top" xlink:title=" ">
<polygon fill="white" stroke="#666666" points="629.12,-307.25 524.62,-307.25 524.62,-288 629.12,-288 629.12,-307.25"/>
<text xml:space="preserve" text-anchor="middle" x="576.88" y="-293.75" font-family="Helvetica,sans-Serif" font-size="10.00">llvm::SPIRVTTIImpl</text>
</a>
</g>
</g>
<!-- Node36&#45;&gt;Node37 -->
<g id="edge10631_Node000036_Node000037" class="edge">
<title>Node36&#45;&gt;Node37</title>
<g id="a_edge10631_Node000036_Node000037"><a xlink:title=" ">
<path fill="none" stroke="#63b8ff" d="M472.03,-297.62C489.54,-297.62 507.95,-297.62 524.33,-297.62"/>
<polygon fill="#63b8ff" stroke="#63b8ff" points="472.21,-294.13 462.21,-297.63 472.21,-301.13 472.21,-294.13"/>
</a>
</g>
</g>
<!-- Node39 -->
<g id="Node000039" class="node">
<title>Node39</title>
<g id="a_Node000039"><a xlink:href="classllvm_1_1SystemZTTIImpl.html" target="_top" xlink:title=" ">
<polygon fill="white" stroke="#666666" points="633.62,-258.25 520.12,-258.25 520.12,-239 633.62,-239 633.62,-258.25"/>
<text xml:space="preserve" text-anchor="middle" x="576.88" y="-244.75" font-family="Helvetica,sans-Serif" font-size="10.00">llvm::SystemZTTIImpl</text>
</a>
</g>
</g>
<!-- Node38&#45;&gt;Node39 -->
<g id="edge10633_Node000038_Node000039" class="edge">
<title>Node38&#45;&gt;Node39</title>
<g id="a_edge10633_Node000038_Node000039"><a xlink:title=" ">
<path fill="none" stroke="#63b8ff" d="M472.08,-248.62C487.93,-248.62 504.53,-248.62 519.69,-248.62"/>
<polygon fill="#63b8ff" stroke="#63b8ff" points="472.21,-245.13 462.21,-248.63 472.21,-252.13 472.21,-245.13"/>
</a>
</g>
</g>
<!-- Node41 -->
<g id="Node000041" class="node">
<title>Node41</title>
<g id="a_Node000041"><a xlink:href="classllvm_1_1VETTIImpl.html" target="_top" xlink:title=" ">
<polygon fill="white" stroke="#666666" points="620.5,-209.25 533.25,-209.25 533.25,-190 620.5,-190 620.5,-209.25"/>
<text xml:space="preserve" text-anchor="middle" x="576.88" y="-195.75" font-family="Helvetica,sans-Serif" font-size="10.00">llvm::VETTIImpl</text>
</a>
</g>
</g>
<!-- Node40&#45;&gt;Node41 -->
<g id="edge10635_Node000040_Node000041" class="edge">
<title>Node40&#45;&gt;Node41</title>
<g id="a_edge10635_Node000040_Node000041"><a xlink:title=" ">
<path fill="none" stroke="#63b8ff" d="M472.02,-199.62C492.69,-199.62 514.63,-199.62 533,-199.62"/>
<polygon fill="#63b8ff" stroke="#63b8ff" points="472.21,-196.13 462.21,-199.63 472.21,-203.13 472.21,-196.13"/>
</a>
</g>
</g>
<!-- Node43 -->
<g id="Node000043" class="node">
<title>Node43</title>
<g id="a_Node000043"><a xlink:href="classllvm_1_1WebAssemblyTTIImpl.html" target="_top" xlink:title=" ">
<polygon fill="white" stroke="#666666" points="645.25,-160.25 508.5,-160.25 508.5,-141 645.25,-141 645.25,-160.25"/>
<text xml:space="preserve" text-anchor="middle" x="576.88" y="-146.75" font-family="Helvetica,sans-Serif" font-size="10.00">llvm::WebAssemblyTTIImpl</text>
</a>
</g>
</g>
<!-- Node42&#45;&gt;Node43 -->
<g id="edge10637_Node000042_Node000043" class="edge">
<title>Node42&#45;&gt;Node43</title>
<g id="a_edge10637_Node000042_Node000043"><a xlink:title=" ">
<path fill="none" stroke="#63b8ff" d="M477.11,-150.62C487.39,-150.62 497.88,-150.62 508,-150.62"/>
<polygon fill="#63b8ff" stroke="#63b8ff" points="477.13,-147.13 467.13,-150.63 477.13,-154.13 477.13,-147.13"/>
</a>
</g>
</g>
<!-- Node45 -->
<g id="Node000045" class="node">
<title>Node45</title>
<g id="a_Node000045"><a xlink:href="classllvm_1_1X86TTIImpl.html" target="_top" xlink:title=" ">
<polygon fill="white" stroke="#666666" points="622.38,-111.25 531.38,-111.25 531.38,-92 622.38,-92 622.38,-111.25"/>
<text xml:space="preserve" text-anchor="middle" x="576.88" y="-97.75" font-family="Helvetica,sans-Serif" font-size="10.00">llvm::X86TTIImpl</text>
</a>
</g>
</g>
<!-- Node44&#45;&gt;Node45 -->
<g id="edge10639_Node000044_Node000045" class="edge">
<title>Node44&#45;&gt;Node45</title>
<g id="a_edge10639_Node000044_Node000045"><a xlink:title=" ">
<path fill="none" stroke="#63b8ff" d="M471.96,-101.62C491.94,-101.62 513.1,-101.62 531.08,-101.62"/>
<polygon fill="#63b8ff" stroke="#63b8ff" points="472.21,-98.13 462.21,-101.63 472.21,-105.13 472.21,-98.13"/>
</a>
</g>
</g>
<!-- Node47 -->
<g id="Node000047" class="node">
<title>Node47</title>
<g id="a_Node000047"><a xlink:href="classllvm_1_1XCoreTTIImpl.html" target="_top" xlink:title=" ">
<polygon fill="white" stroke="#666666" points="627.62,-62.25 526.12,-62.25 526.12,-43 627.62,-43 627.62,-62.25"/>
<text xml:space="preserve" text-anchor="middle" x="576.88" y="-48.75" font-family="Helvetica,sans-Serif" font-size="10.00">llvm::XCoreTTIImpl</text>
</a>
</g>
</g>
<!-- Node46&#45;&gt;Node47 -->
<g id="edge10641_Node000046_Node000047" class="edge">
<title>Node46&#45;&gt;Node47</title>
<g id="a_edge10641_Node000046_Node000047"><a xlink:title=" ">
<path fill="none" stroke="#63b8ff" d="M472.05,-52.62C490.06,-52.62 509.03,-52.62 525.76,-52.62"/>
<polygon fill="#63b8ff" stroke="#63b8ff" points="472.21,-49.13 462.21,-52.63 472.21,-56.13 472.21,-49.13"/>
</a>
</g>
</g>
</g>
</svg>
