<?xml version="1.0" encoding="UTF-8" standalone="no"?>
<!DOCTYPE svg PUBLIC "-//W3C//DTD SVG 1.1//EN"
 "http://www.w3.org/Graphics/SVG/1.1/DTD/svg11.dtd">
<!-- Generated by graphviz version 14.1.3 (20260303.0454)
 -->
<!-- Title: Graphical Class Hierarchy Pages: 1 -->
<svg width="293pt" height="235pt"
 viewBox="0.00 0.00 293.00 235.00" xmlns="http://www.w3.org/2000/svg" xmlns:xlink="http://www.w3.org/1999/xlink">
<g id="graph0" class="graph" transform="scale(1 1) rotate(0) translate(4 230.5)">
<title>Graphical Class Hierarchy</title>
<!-- Node0 -->
<g id="Node000000" class="node">
<title>Node0</title>
<g id="a_Node000000"><a xlink:href="classllvm_1_1jitlink_1_1TableManager.html" target="_top" xlink:title=" ">
<polygon fill="white" stroke="#666666" points="129.25,-128.5 0,-128.5 0,-98 129.25,-98 129.25,-128.5"/>
<text xml:space="preserve" text-anchor="start" x="8" y="-115" font-family="Helvetica,sans-Serif" font-size="10.00">llvm::jitlink::TableManager</text>
<text xml:space="preserve" text-anchor="middle" x="64.62" y="-103.75" font-family="Helvetica,sans-Serif" font-size="10.00">&lt; GOTTableManager &gt;</text>
</a>
</g>
</g>
<!-- Node1 -->
<g id="Node000001" class="node">
<title>Node1</title>
<g id="a_Node000001"><a xlink:href="classllvm_1_1jitlink_1_1aarch64_1_1GOTTableManager.html" target="_top" xlink:title="Global Offset Table Builder.">
<polygon fill="white" stroke="#666666" points="276.88,-226.5 173.12,-226.5 173.12,-196 276.88,-196 276.88,-226.5"/>
<text xml:space="preserve" text-anchor="start" x="181.12" y="-213" font-family="Helvetica,sans-Serif" font-size="10.00">llvm::jitlink::aarch64</text>
<text xml:space="preserve" text-anchor="middle" x="225" y="-201.75" font-family="Helvetica,sans-Serif" font-size="10.00">::GOTTableManager</text>
</a>
</g>
</g>
<!-- Node0&#45;&gt;Node1 -->
<g id="edge4064_Node000000_Node000001" class="edge">
<title>Node0&#45;&gt;Node1</title>
<g id="a_edge4064_Node000000_Node000001"><a xlink:title=" ">
<path fill="none" stroke="#63b8ff" d="M93.07,-136.03C112.45,-151.44 139.46,-171.58 165.25,-186.25 171.03,-189.54 177.33,-192.66 183.58,-195.51"/>
<polygon fill="#63b8ff" stroke="#63b8ff" points="95.37,-133.39 85.38,-129.84 90.98,-138.84 95.37,-133.39"/>
</a>
</g>
</g>
<!-- Node2 -->
<g id="Node000002" class="node">
<title>Node2</title>
<g id="a_Node000002"><a xlink:href="classllvm_1_1jitlink_1_1loongarch_1_1GOTTableManager.html" target="_top" xlink:title="Global Offset Table Builder.">
<polygon fill="white" stroke="#666666" points="280.25,-177.5 169.75,-177.5 169.75,-147 280.25,-147 280.25,-177.5"/>
<text xml:space="preserve" text-anchor="start" x="177.75" y="-164" font-family="Helvetica,sans-Serif" font-size="10.00">llvm::jitlink::loongarch</text>
<text xml:space="preserve" text-anchor="middle" x="225" y="-152.75" font-family="Helvetica,sans-Serif" font-size="10.00">::GOTTableManager</text>
</a>
</g>
</g>
<!-- Node0&#45;&gt;Node2 -->
<g id="edge4065_Node000000_Node000002" class="edge">
<title>Node0&#45;&gt;Node2</title>
<g id="a_edge4065_Node000000_Node000002"><a xlink:title=" ">
<path fill="none" stroke="#63b8ff" d="M127.07,-132.26C142.3,-136.97 158.45,-141.97 173.12,-146.51"/>
<polygon fill="#63b8ff" stroke="#63b8ff" points="128.2,-128.95 117.62,-129.34 126.14,-135.64 128.2,-128.95"/>
</a>
</g>
</g>
<!-- Node3 -->
<g id="Node000003" class="node">
<title>Node3</title>
<g id="a_Node000003"><a xlink:href="classllvm_1_1jitlink_1_1systemz_1_1GOTTableManager.html" target="_top" xlink:title="Global Offset Table Builder.">
<polygon fill="white" stroke="#666666" points="278,-128.5 172,-128.5 172,-98 278,-98 278,-128.5"/>
<text xml:space="preserve" text-anchor="start" x="180" y="-115" font-family="Helvetica,sans-Serif" font-size="10.00">llvm::jitlink::systemz</text>
<text xml:space="preserve" text-anchor="middle" x="225" y="-103.75" font-family="Helvetica,sans-Serif" font-size="10.00">::GOTTableManager</text>
</a>
</g>
</g>
<!-- Node0&#45;&gt;Node3 -->
<g id="edge4066_Node000000_Node000003" class="edge">
<title>Node0&#45;&gt;Node3</title>
<g id="a_edge4066_Node000000_Node000003"><a xlink:title=" ">
<path fill="none" stroke="#63b8ff" d="M140.91,-113.25C151.41,-113.25 162.01,-113.25 171.95,-113.25"/>
<polygon fill="#63b8ff" stroke="#63b8ff" points="141.1,-109.75 131.1,-113.25 141.1,-116.75 141.1,-109.75"/>
</a>
</g>
</g>
<!-- Node4 -->
<g id="Node000004" class="node">
<title>Node4</title>
<g id="a_Node000004"><a xlink:href="classllvm_1_1jitlink_1_1x86_1_1GOTTableManager.html" target="_top" xlink:title="Global Offset Table Builder.">
<polygon fill="white" stroke="#666666" points="276.88,-79.5 173.12,-79.5 173.12,-49 276.88,-49 276.88,-79.5"/>
<text xml:space="preserve" text-anchor="start" x="181.12" y="-66" font-family="Helvetica,sans-Serif" font-size="10.00">llvm::jitlink::x86</text>
<text xml:space="preserve" text-anchor="middle" x="225" y="-54.75" font-family="Helvetica,sans-Serif" font-size="10.00">::GOTTableManager</text>
</a>
</g>
</g>
<!-- Node0&#45;&gt;Node4 -->
<g id="edge4067_Node000000_Node000004" class="edge">
<title>Node0&#45;&gt;Node4</title>
<g id="a_edge4067_Node000000_Node000004"><a xlink:title=" ">
<path fill="none" stroke="#63b8ff" d="M127.07,-94.24C142.3,-89.53 158.45,-84.53 173.12,-79.99"/>
<polygon fill="#63b8ff" stroke="#63b8ff" points="126.14,-90.86 117.62,-97.16 128.2,-97.55 126.14,-90.86"/>
</a>
</g>
</g>
<!-- Node5 -->
<g id="Node000005" class="node">
<title>Node5</title>
<g id="a_Node000005"><a xlink:href="classllvm_1_1jitlink_1_1x86__64_1_1GOTTableManager.html" target="_top" xlink:title="Global Offset Table Builder.">
<polygon fill="white" stroke="#666666" points="284.75,-30.5 165.25,-30.5 165.25,0 284.75,0 284.75,-30.5"/>
<text xml:space="preserve" text-anchor="start" x="173.25" y="-17" font-family="Helvetica,sans-Serif" font-size="10.00">llvm::jitlink::x86</text>
<text xml:space="preserve" text-anchor="middle" x="225" y="-5.75" font-family="Helvetica,sans-Serif" font-size="10.00">_64::GOTTableManager</text>
</a>
</g>
</g>
<!-- Node0&#45;&gt;Node5 -->
<g id="edge4068_Node000000_Node000005" class="edge">
<title>Node0&#45;&gt;Node5</title>
<g id="a_edge4068_Node000000_Node000005"><a xlink:title=" ">
<path fill="none" stroke="#63b8ff" d="M93.07,-90.47C112.45,-75.06 139.46,-54.92 165.25,-40.25 171.03,-36.96 177.33,-33.84 183.58,-30.99"/>
<polygon fill="#63b8ff" stroke="#63b8ff" points="90.98,-87.66 85.38,-96.66 95.37,-93.11 90.98,-87.66"/>
</a>
</g>
</g>
</g>
</svg>
