<?xml version="1.0" encoding="UTF-8" standalone="no"?>
<!DOCTYPE svg PUBLIC "-//W3C//DTD SVG 1.1//EN"
 "http://www.w3.org/Graphics/SVG/1.1/DTD/svg11.dtd">
<!-- Generated by graphviz version 14.1.3 (20260303.0454)
 -->
<!-- Title: Graphical Class Hierarchy Pages: 1 -->
<svg width="877pt" height="138pt"
 viewBox="0.00 0.00 877.00 138.00" xmlns="http://www.w3.org/2000/svg" xmlns:xlink="http://www.w3.org/1999/xlink">
<g id="graph0" class="graph" transform="scale(1 1) rotate(0) translate(4 133.62)">
<title>Graphical Class Hierarchy</title>
<!-- Node0 -->
<g id="Node000000" class="node">
<title>Node0</title>
<g id="a_Node000000"><a xlink:href="classllvm_1_1SmallVectorBase.html" target="_top" xlink:title=" ">
<polygon fill="white" stroke="#666666" points="142.75,-129.62 0,-129.62 0,-76.62 142.75,-76.62 142.75,-129.62"/>
<text xml:space="preserve" text-anchor="start" x="8" y="-116.12" font-family="Helvetica,sans-Serif" font-size="10.00">llvm::SmallVectorBase</text>
<text xml:space="preserve" text-anchor="start" x="8" y="-104.88" font-family="Helvetica,sans-Serif" font-size="10.00">&lt; SmallVectorSizeType</text>
<text xml:space="preserve" text-anchor="start" x="8" y="-93.62" font-family="Helvetica,sans-Serif" font-size="10.00">&lt; std::unique_ptr&lt; Contained</text>
<text xml:space="preserve" text-anchor="middle" x="71.38" y="-82.38" font-family="Helvetica,sans-Serif" font-size="10.00">Pass &gt; &gt; &gt;</text>
</a>
</g>
</g>
<!-- Node1 -->
<g id="Node000001" class="node">
<title>Node1</title>
<g id="a_Node000001"><a xlink:href="classllvm_1_1SmallVectorTemplateCommon.html" target="_top" xlink:title=" ">
<polygon fill="white" stroke="#666666" points="311.75,-124 178.75,-124 178.75,-82.25 311.75,-82.25 311.75,-124"/>
<text xml:space="preserve" text-anchor="start" x="186.75" y="-110.5" font-family="Helvetica,sans-Serif" font-size="10.00">llvm::SmallVectorTemplate</text>
<text xml:space="preserve" text-anchor="start" x="186.75" y="-99.25" font-family="Helvetica,sans-Serif" font-size="10.00">Common&lt; std::unique_ptr</text>
<text xml:space="preserve" text-anchor="middle" x="245.25" y="-88" font-family="Helvetica,sans-Serif" font-size="10.00">&lt; ContainedPass &gt; &gt;</text>
</a>
</g>
</g>
<!-- Node0&#45;&gt;Node1 -->
<g id="edge10131_Node000000_Node000001" class="edge">
<title>Node0&#45;&gt;Node1</title>
<g id="a_edge10131_Node000000_Node000001"><a xlink:title=" ">
<path fill="none" stroke="#63b8ff" d="M154.19,-103.12C162.3,-103.12 170.46,-103.12 178.38,-103.12"/>
<polygon fill="#63b8ff" stroke="#63b8ff" points="154.29,-99.63 144.29,-103.13 154.29,-106.63 154.29,-99.63"/>
</a>
</g>
</g>
<!-- Node2 -->
<g id="Node000002" class="node">
<title>Node2</title>
<g id="a_Node000002"><a xlink:href="classllvm_1_1SmallVectorTemplateBase.html" target="_top" xlink:title=" ">
<polygon fill="white" stroke="#666666" points="480.75,-124 347.75,-124 347.75,-82.25 480.75,-82.25 480.75,-124"/>
<text xml:space="preserve" text-anchor="start" x="355.75" y="-110.5" font-family="Helvetica,sans-Serif" font-size="10.00">llvm::SmallVectorTemplate</text>
<text xml:space="preserve" text-anchor="start" x="355.75" y="-99.25" font-family="Helvetica,sans-Serif" font-size="10.00">Base&lt; std::unique_ptr&lt;</text>
<text xml:space="preserve" text-anchor="middle" x="414.25" y="-88" font-family="Helvetica,sans-Serif" font-size="10.00"> ContainedPass &gt; &gt;</text>
</a>
</g>
</g>
<!-- Node1&#45;&gt;Node2 -->
<g id="edge10132_Node000001_Node000002" class="edge">
<title>Node1&#45;&gt;Node2</title>
<g id="a_edge10132_Node000001_Node000002"><a xlink:title=" ">
<path fill="none" stroke="#63b8ff" d="M323.13,-103.12C331.23,-103.12 339.41,-103.12 347.37,-103.12"/>
<polygon fill="#63b8ff" stroke="#63b8ff" points="323.29,-99.63 313.29,-103.13 323.29,-106.63 323.29,-99.63"/>
</a>
</g>
</g>
<!-- Node3 -->
<g id="Node000003" class="node">
<title>Node3</title>
<g id="a_Node000003"><a xlink:href="classllvm_1_1SmallVectorImpl.html" target="_top" xlink:title=" ">
<polygon fill="white" stroke="#666666" points="677.88,-124 535.12,-124 535.12,-82.25 677.88,-82.25 677.88,-124"/>
<text xml:space="preserve" text-anchor="start" x="543.12" y="-110.5" font-family="Helvetica,sans-Serif" font-size="10.00">llvm::SmallVectorImpl</text>
<text xml:space="preserve" text-anchor="start" x="543.12" y="-99.25" font-family="Helvetica,sans-Serif" font-size="10.00">&lt; std::unique_ptr&lt; Contained</text>
<text xml:space="preserve" text-anchor="middle" x="606.5" y="-88" font-family="Helvetica,sans-Serif" font-size="10.00">Pass &gt; &gt;</text>
</a>
</g>
</g>
<!-- Node2&#45;&gt;Node3 -->
<g id="edge10133_Node000002_Node000003" class="edge">
<title>Node2&#45;&gt;Node3</title>
<g id="a_edge10133_Node000002_Node000003"><a xlink:title=" ">
<path fill="none" stroke="#63b8ff" d="M492.17,-103.12C506.29,-103.12 520.97,-103.12 534.89,-103.12"/>
<polygon fill="#63b8ff" stroke="#63b8ff" points="492.5,-99.63 482.5,-103.13 492.5,-106.63 492.5,-99.63"/>
</a>
</g>
</g>
<!-- Node4 -->
<g id="Node000004" class="node">
<title>Node4</title>
<g id="a_Node000004"><a xlink:href="classllvm_1_1SmallVector.html" target="_top" xlink:title=" ">
<polygon fill="white" stroke="#666666" points="869,-88 732.25,-88 732.25,-46.25 869,-46.25 869,-88"/>
<text xml:space="preserve" text-anchor="start" x="740.25" y="-74.5" font-family="Helvetica,sans-Serif" font-size="10.00">llvm::SmallVector&lt;</text>
<text xml:space="preserve" text-anchor="start" x="740.25" y="-63.25" font-family="Helvetica,sans-Serif" font-size="10.00"> std::unique_ptr&lt; Contained</text>
<text xml:space="preserve" text-anchor="middle" x="800.62" y="-52" font-family="Helvetica,sans-Serif" font-size="10.00">Pass &gt; &gt;</text>
</a>
</g>
</g>
<!-- Node3&#45;&gt;Node4 -->
<g id="edge10134_Node000003_Node000004" class="edge">
<title>Node3&#45;&gt;Node4</title>
<g id="a_edge10134_Node000003_Node000004"><a xlink:title=" ">
<path fill="none" stroke="#63b8ff" d="M689.46,-87.77C703.62,-85.11 718.2,-82.38 731.93,-79.81"/>
<polygon fill="#63b8ff" stroke="#63b8ff" points="688.89,-84.31 679.71,-89.59 690.18,-91.19 688.89,-84.31"/>
</a>
</g>
</g>
<!-- Node5 -->
<g id="Node000005" class="node">
<title>Node5</title>
<g id="a_Node000005"><a xlink:title=" ">
<polygon fill="#e0e0e0" stroke="#999999" points="696.25,-64.25 516.75,-64.25 516.75,0 696.25,0 696.25,-64.25"/>
<text xml:space="preserve" text-anchor="start" x="524.75" y="-50.75" font-family="Helvetica,sans-Serif" font-size="10.00">SmallVectorStorage</text>
<text xml:space="preserve" text-anchor="start" x="524.75" y="-39.5" font-family="Helvetica,sans-Serif" font-size="10.00">&lt; std::unique_ptr&lt; Contained</text>
<text xml:space="preserve" text-anchor="start" x="524.75" y="-28.25" font-family="Helvetica,sans-Serif" font-size="10.00">Pass &gt;, CalculateSmallVectorDefault</text>
<text xml:space="preserve" text-anchor="start" x="524.75" y="-17" font-family="Helvetica,sans-Serif" font-size="10.00">InlinedElements&lt; std::unique_ptr</text>
<text xml:space="preserve" text-anchor="middle" x="606.5" y="-5.75" font-family="Helvetica,sans-Serif" font-size="10.00">&lt; ContainedPass &gt; &gt;::value &gt;</text>
</a>
</g>
</g>
<!-- Node5&#45;&gt;Node4 -->
<g id="edge10135_Node000005_Node000004" class="edge">
<title>Node5&#45;&gt;Node4</title>
<g id="a_edge10135_Node000005_Node000004"><a xlink:title=" ">
<path fill="none" stroke="#8b1a1a" d="M707.69,-50.38C715.87,-51.87 724,-53.35 731.86,-54.78"/>
<polygon fill="#8b1a1a" stroke="#8b1a1a" points="708.49,-46.96 698.02,-48.62 707.23,-53.85 708.49,-46.96"/>
</a>
</g>
</g>
</g>
</svg>
