<?xml version="1.0" encoding="UTF-8" standalone="no"?>
<!DOCTYPE svg PUBLIC "-//W3C//DTD SVG 1.1//EN"
 "http://www.w3.org/Graphics/SVG/1.1/DTD/svg11.dtd">
<!-- Generated by graphviz version 14.1.3 (20260303.0454)
 -->
<!-- Title: Graphical Class Hierarchy Pages: 1 -->
<svg width="476pt" height="158pt"
 viewBox="0.00 0.00 476.00 158.00" xmlns="http://www.w3.org/2000/svg" xmlns:xlink="http://www.w3.org/1999/xlink">
<g id="graph0" class="graph" transform="scale(1 1) rotate(0) translate(4 154.12)">
<title>Graphical Class Hierarchy</title>
<!-- Node0 -->
<g id="Node000000" class="node">
<title>Node0</title>
<g id="a_Node000000"><a xlink:href="classllvm_1_1remarks_1_1BitstreamBlockParserHelperBase.html" target="_top" xlink:title=" ">
<polygon fill="white" stroke="#666666" points="123.25,-84.5 0,-84.5 0,-54 123.25,-54 123.25,-84.5"/>
<text xml:space="preserve" text-anchor="start" x="8" y="-71" font-family="Helvetica,sans-Serif" font-size="10.00">llvm::remarks::Bitstream</text>
<text xml:space="preserve" text-anchor="middle" x="61.62" y="-59.75" font-family="Helvetica,sans-Serif" font-size="10.00">BlockParserHelperBase</text>
</a>
</g>
</g>
<!-- Node1 -->
<g id="Node000001" class="node">
<title>Node1</title>
<g id="a_Node000001"><a xlink:href="classllvm_1_1remarks_1_1BitstreamBlockParserHelper.html" target="_top" xlink:title=" ">
<polygon fill="white" stroke="#666666" points="308.38,-150.12 159.62,-150.12 159.62,-108.38 308.38,-108.38 308.38,-150.12"/>
<text xml:space="preserve" text-anchor="start" x="167.62" y="-136.62" font-family="Helvetica,sans-Serif" font-size="10.00">llvm::remarks::Bitstream</text>
<text xml:space="preserve" text-anchor="start" x="167.62" y="-125.38" font-family="Helvetica,sans-Serif" font-size="10.00">BlockParserHelper&lt; Bitstream</text>
<text xml:space="preserve" text-anchor="middle" x="234" y="-114.12" font-family="Helvetica,sans-Serif" font-size="10.00">MetaParserHelper &gt;</text>
</a>
</g>
</g>
<!-- Node0&#45;&gt;Node1 -->
<g id="edge6148_Node000000_Node000001" class="edge">
<title>Node0&#45;&gt;Node1</title>
<g id="a_edge6148_Node000000_Node000001"><a xlink:title=" ">
<path fill="none" stroke="#63b8ff" d="M117.58,-88.6C135.13,-94.78 154.64,-101.65 172.55,-107.96"/>
<polygon fill="#63b8ff" stroke="#63b8ff" points="118.97,-85.38 108.37,-85.36 116.64,-91.98 118.97,-85.38"/>
</a>
</g>
</g>
<!-- Node3 -->
<g id="Node000003" class="node">
<title>Node3</title>
<g id="a_Node000003"><a xlink:href="classllvm_1_1remarks_1_1BitstreamBlockParserHelper.html" target="_top" xlink:title=" ">
<polygon fill="white" stroke="#666666" points="308.38,-90.12 159.62,-90.12 159.62,-48.38 308.38,-48.38 308.38,-90.12"/>
<text xml:space="preserve" text-anchor="start" x="167.62" y="-76.62" font-family="Helvetica,sans-Serif" font-size="10.00">llvm::remarks::Bitstream</text>
<text xml:space="preserve" text-anchor="start" x="167.62" y="-65.38" font-family="Helvetica,sans-Serif" font-size="10.00">BlockParserHelper&lt; Bitstream</text>
<text xml:space="preserve" text-anchor="middle" x="234" y="-54.12" font-family="Helvetica,sans-Serif" font-size="10.00">RemarkParserHelper &gt;</text>
</a>
</g>
</g>
<!-- Node0&#45;&gt;Node3 -->
<g id="edge6150_Node000000_Node000003" class="edge">
<title>Node0&#45;&gt;Node3</title>
<g id="a_edge6150_Node000000_Node000003"><a xlink:title=" ">
<path fill="none" stroke="#63b8ff" d="M134.92,-69.25C142.99,-69.25 151.22,-69.25 159.3,-69.25"/>
<polygon fill="#63b8ff" stroke="#63b8ff" points="135.17,-65.75 125.17,-69.25 135.17,-72.75 135.17,-65.75"/>
</a>
</g>
</g>
<!-- Node5 -->
<g id="Node000005" class="node">
<title>Node5</title>
<g id="a_Node000005"><a xlink:href="classllvm_1_1remarks_1_1BitstreamBlockParserHelper.html" target="_top" xlink:title=" ">
<polygon fill="white" stroke="#666666" points="308.75,-30.5 159.25,-30.5 159.25,0 308.75,0 308.75,-30.5"/>
<text xml:space="preserve" text-anchor="start" x="167.25" y="-17" font-family="Helvetica,sans-Serif" font-size="10.00">llvm::remarks::Bitstream</text>
<text xml:space="preserve" text-anchor="middle" x="234" y="-5.75" font-family="Helvetica,sans-Serif" font-size="10.00">BlockParserHelper&lt; Derived &gt;</text>
</a>
</g>
</g>
<!-- Node0&#45;&gt;Node5 -->
<g id="edge6152_Node000000_Node000005" class="edge">
<title>Node0&#45;&gt;Node5</title>
<g id="a_edge6152_Node000000_Node000005"><a xlink:title=" ">
<path fill="none" stroke="#63b8ff" d="M122.72,-50.2C142.62,-43.89 164.53,-36.95 183.54,-30.93"/>
<polygon fill="#63b8ff" stroke="#63b8ff" points="121.82,-46.82 113.35,-53.17 123.94,-53.49 121.82,-46.82"/>
</a>
</g>
</g>
<!-- Node2 -->
<g id="Node000002" class="node">
<title>Node2</title>
<g id="a_Node000002"><a xlink:href="classllvm_1_1remarks_1_1BitstreamMetaParserHelper.html" target="_top" xlink:title="Helper to parse a META_BLOCK for a bitstream remark container.">
<polygon fill="white" stroke="#666666" points="468,-144.5 344.75,-144.5 344.75,-114 468,-114 468,-144.5"/>
<text xml:space="preserve" text-anchor="start" x="352.75" y="-131" font-family="Helvetica,sans-Serif" font-size="10.00">llvm::remarks::Bitstream</text>
<text xml:space="preserve" text-anchor="middle" x="406.38" y="-119.75" font-family="Helvetica,sans-Serif" font-size="10.00">MetaParserHelper</text>
</a>
</g>
</g>
<!-- Node1&#45;&gt;Node2 -->
<g id="edge6149_Node000001_Node000002" class="edge">
<title>Node1&#45;&gt;Node2</title>
<g id="a_edge6149_Node000001_Node000002"><a xlink:title=" ">
<path fill="none" stroke="#63b8ff" d="M320.21,-129.25C328.34,-129.25 336.48,-129.25 344.31,-129.25"/>
<polygon fill="#63b8ff" stroke="#63b8ff" points="320.25,-125.75 310.25,-129.25 320.25,-132.75 320.25,-125.75"/>
</a>
</g>
</g>
<!-- Node4 -->
<g id="Node000004" class="node">
<title>Node4</title>
<g id="a_Node000004"><a xlink:href="classllvm_1_1remarks_1_1BitstreamRemarkParserHelper.html" target="_top" xlink:title="Helper to parse a REMARK_BLOCK for a bitstream remark container.">
<polygon fill="white" stroke="#666666" points="468,-84.5 344.75,-84.5 344.75,-54 468,-54 468,-84.5"/>
<text xml:space="preserve" text-anchor="start" x="352.75" y="-71" font-family="Helvetica,sans-Serif" font-size="10.00">llvm::remarks::Bitstream</text>
<text xml:space="preserve" text-anchor="middle" x="406.38" y="-59.75" font-family="Helvetica,sans-Serif" font-size="10.00">RemarkParserHelper</text>
</a>
</g>
</g>
<!-- Node3&#45;&gt;Node4 -->
<g id="edge6151_Node000003_Node000004" class="edge">
<title>Node3&#45;&gt;Node4</title>
<g id="a_edge6151_Node000003_Node000004"><a xlink:title=" ">
<path fill="none" stroke="#63b8ff" d="M320.21,-69.25C328.34,-69.25 336.48,-69.25 344.31,-69.25"/>
<polygon fill="#63b8ff" stroke="#63b8ff" points="320.25,-65.75 310.25,-69.25 320.25,-72.75 320.25,-65.75"/>
</a>
</g>
</g>
</g>
</svg>
