<?xml version="1.0" encoding="UTF-8" standalone="no"?>
<!DOCTYPE svg PUBLIC "-//W3C//DTD SVG 1.1//EN"
 "http://www.w3.org/Graphics/SVG/1.1/DTD/svg11.dtd">
<!-- Generated by graphviz version 14.1.3 (20260303.0454)
 -->
<!-- Title: Graphical Class Hierarchy Pages: 1 -->
<svg width="451pt" height="64pt"
 viewBox="0.00 0.00 451.00 64.00" xmlns="http://www.w3.org/2000/svg" xmlns:xlink="http://www.w3.org/1999/xlink">
<g id="graph0" class="graph" transform="scale(1 1) rotate(0) translate(4 60.25)">
<title>Graphical Class Hierarchy</title>
<!-- Node0 -->
<g id="Node000000" class="node">
<title>Node0</title>
<g id="a_Node000000"><a xlink:href="classARMGenRegisterInfo.html" target="_top" xlink:title=" ">
<polygon fill="white" stroke="#666666" points="109.75,-37.25 0,-37.25 0,-18 109.75,-18 109.75,-37.25"/>
<text xml:space="preserve" text-anchor="middle" x="54.88" y="-23.75" font-family="Helvetica,sans-Serif" font-size="10.00">ARMGenRegisterInfo</text>
</a>
</g>
</g>
<!-- Node1 -->
<g id="Node000001" class="node">
<title>Node1</title>
<g id="a_Node000001"><a xlink:href="classllvm_1_1ARMBaseRegisterInfo.html" target="_top" xlink:title=" ">
<polygon fill="white" stroke="#666666" points="284,-37.25 145.75,-37.25 145.75,-18 284,-18 284,-37.25"/>
<text xml:space="preserve" text-anchor="middle" x="214.88" y="-23.75" font-family="Helvetica,sans-Serif" font-size="10.00">llvm::ARMBaseRegisterInfo</text>
</a>
</g>
</g>
<!-- Node0&#45;&gt;Node1 -->
<g id="edge26_Node000000_Node000001" class="edge">
<title>Node0&#45;&gt;Node1</title>
<g id="a_edge26_Node000000_Node000001"><a xlink:title=" ">
<path fill="none" stroke="#63b8ff" d="M121.61,-27.62C129.49,-27.62 137.54,-27.62 145.44,-27.62"/>
<polygon fill="#63b8ff" stroke="#63b8ff" points="121.76,-24.13 111.76,-27.63 121.76,-31.13 121.76,-24.13"/>
</a>
</g>
</g>
<!-- Node2 -->
<g id="Node000002" class="node">
<title>Node2</title>
<g id="a_Node000002"><a xlink:href="structllvm_1_1ARMRegisterInfo.html" target="_top" xlink:title=" ">
<polygon fill="white" stroke="#666666" points="439.5,-56.25 323.75,-56.25 323.75,-37 439.5,-37 439.5,-56.25"/>
<text xml:space="preserve" text-anchor="middle" x="381.62" y="-42.75" font-family="Helvetica,sans-Serif" font-size="10.00">llvm::ARMRegisterInfo</text>
</a>
</g>
</g>
<!-- Node1&#45;&gt;Node2 -->
<g id="edge27_Node000001_Node000002" class="edge">
<title>Node1&#45;&gt;Node2</title>
<g id="a_edge27_Node000001_Node000002"><a xlink:title=" ">
<path fill="none" stroke="#63b8ff" d="M295.67,-36.83C305.02,-37.91 314.42,-38.99 323.39,-40.02"/>
<polygon fill="#63b8ff" stroke="#63b8ff" points="296.15,-33.36 285.82,-35.69 295.35,-40.31 296.15,-33.36"/>
</a>
</g>
</g>
<!-- Node3 -->
<g id="Node000003" class="node">
<title>Node3</title>
<g id="a_Node000003"><a xlink:href="structllvm_1_1ThumbRegisterInfo.html" target="_top" xlink:title=" ">
<polygon fill="white" stroke="#666666" points="443.25,-19.25 320,-19.25 320,0 443.25,0 443.25,-19.25"/>
<text xml:space="preserve" text-anchor="middle" x="381.62" y="-5.75" font-family="Helvetica,sans-Serif" font-size="10.00">llvm::ThumbRegisterInfo</text>
</a>
</g>
</g>
<!-- Node1&#45;&gt;Node3 -->
<g id="edge28_Node000001_Node000003" class="edge">
<title>Node1&#45;&gt;Node3</title>
<g id="a_edge28_Node000001_Node000003"><a xlink:title=" ">
<path fill="none" stroke="#63b8ff" d="M295.61,-18.91C303.64,-18.04 311.71,-17.15 319.5,-16.3"/>
<polygon fill="#63b8ff" stroke="#63b8ff" points="295.38,-15.42 285.82,-19.98 296.14,-22.38 295.38,-15.42"/>
</a>
</g>
</g>
</g>
</svg>
