<?xml version="1.0" encoding="UTF-8" standalone="no"?>
<!DOCTYPE svg PUBLIC "-//W3C//DTD SVG 1.1//EN"
 "http://www.w3.org/Graphics/SVG/1.1/DTD/svg11.dtd">
<!-- Generated by graphviz version 14.1.3 (20260303.0454)
 -->
<!-- Title: Graphical Class Hierarchy Pages: 1 -->
<svg width="656pt" height="50pt"
 viewBox="0.00 0.00 656.00 50.00" xmlns="http://www.w3.org/2000/svg" xmlns:xlink="http://www.w3.org/1999/xlink">
<g id="graph0" class="graph" transform="scale(1 1) rotate(0) translate(4 45.75)">
<title>Graphical Class Hierarchy</title>
<!-- Node0 -->
<g id="Node000000" class="node">
<title>Node0</title>
<g id="a_Node000000"><a xlink:href="classllvm_1_1SmallVectorBase.html" target="_top" xlink:title=" ">
<polygon fill="white" stroke="#666666" points="126.25,-41.75 0,-41.75 0,0 126.25,0 126.25,-41.75"/>
<text xml:space="preserve" text-anchor="start" x="8" y="-28.25" font-family="Helvetica,sans-Serif" font-size="10.00">llvm::SmallVectorBase</text>
<text xml:space="preserve" text-anchor="start" x="8" y="-17" font-family="Helvetica,sans-Serif" font-size="10.00">&lt; SmallVectorSizeType</text>
<text xml:space="preserve" text-anchor="middle" x="63.12" y="-5.75" font-family="Helvetica,sans-Serif" font-size="10.00">&lt; llvm::DbgSSAPhi * &gt; &gt;</text>
</a>
</g>
</g>
<!-- Node1 -->
<g id="Node000001" class="node">
<title>Node1</title>
<g id="a_Node000001"><a xlink:href="classllvm_1_1SmallVectorTemplateCommon.html" target="_top" xlink:title=" ">
<polygon fill="white" stroke="#666666" points="319.25,-36.12 162.25,-36.12 162.25,-5.62 319.25,-5.62 319.25,-36.12"/>
<text xml:space="preserve" text-anchor="start" x="170.25" y="-22.62" font-family="Helvetica,sans-Serif" font-size="10.00">llvm::SmallVectorTemplate</text>
<text xml:space="preserve" text-anchor="middle" x="240.75" y="-11.38" font-family="Helvetica,sans-Serif" font-size="10.00">Common&lt; llvm::DbgSSAPhi * &gt;</text>
</a>
</g>
</g>
<!-- Node0&#45;&gt;Node1 -->
<g id="edge8413_Node000000_Node000001" class="edge">
<title>Node0&#45;&gt;Node1</title>
<g id="a_edge8413_Node000000_Node000001"><a xlink:title=" ">
<path fill="none" stroke="#63b8ff" d="M137.97,-20.88C145.87,-20.88 153.92,-20.88 161.86,-20.88"/>
<polygon fill="#63b8ff" stroke="#63b8ff" points="138.05,-17.38 128.05,-20.88 138.05,-24.38 138.05,-17.38"/>
</a>
</g>
</g>
<!-- Node2 -->
<g id="Node000002" class="node">
<title>Node2</title>
<g id="a_Node000002"><a xlink:href="classllvm_1_1SmallVectorTemplateBase.html" target="_top" xlink:title=" ">
<polygon fill="white" stroke="#666666" points="495,-36.12 355.25,-36.12 355.25,-5.62 495,-5.62 495,-36.12"/>
<text xml:space="preserve" text-anchor="start" x="363.25" y="-22.62" font-family="Helvetica,sans-Serif" font-size="10.00">llvm::SmallVectorTemplate</text>
<text xml:space="preserve" text-anchor="middle" x="425.12" y="-11.38" font-family="Helvetica,sans-Serif" font-size="10.00">Base&lt; llvm::DbgSSAPhi * &gt;</text>
</a>
</g>
</g>
<!-- Node1&#45;&gt;Node2 -->
<g id="edge8414_Node000001_Node000002" class="edge">
<title>Node1&#45;&gt;Node2</title>
<g id="a_edge8414_Node000001_Node000002"><a xlink:title=" ">
<path fill="none" stroke="#63b8ff" d="M330.95,-20.88C338.98,-20.88 347.04,-20.88 354.87,-20.88"/>
<polygon fill="#63b8ff" stroke="#63b8ff" points="331.14,-17.38 321.14,-20.88 331.14,-24.38 331.14,-17.38"/>
</a>
</g>
</g>
<!-- Node3 -->
<g id="Node000003" class="node">
<title>Node3</title>
<g id="a_Node000003"><a xlink:href="classllvm_1_1SmallVectorImpl.html" target="_top" xlink:title=" ">
<polygon fill="white" stroke="#666666" points="648.25,-36.12 531,-36.12 531,-5.62 648.25,-5.62 648.25,-36.12"/>
<text xml:space="preserve" text-anchor="start" x="539" y="-22.62" font-family="Helvetica,sans-Serif" font-size="10.00">llvm::SmallVectorImpl</text>
<text xml:space="preserve" text-anchor="middle" x="589.62" y="-11.38" font-family="Helvetica,sans-Serif" font-size="10.00">&lt; llvm::DbgSSAPhi * &gt;</text>
</a>
</g>
</g>
<!-- Node2&#45;&gt;Node3 -->
<g id="edge8415_Node000002_Node000003" class="edge">
<title>Node2&#45;&gt;Node3</title>
<g id="a_edge8415_Node000002_Node000003"><a xlink:title=" ">
<path fill="none" stroke="#63b8ff" d="M506.5,-20.88C514.64,-20.88 522.79,-20.88 530.63,-20.88"/>
<polygon fill="#63b8ff" stroke="#63b8ff" points="506.55,-17.38 496.55,-20.88 506.55,-24.38 506.55,-17.38"/>
</a>
</g>
</g>
</g>
</svg>
