<?xml version="1.0" encoding="UTF-8" standalone="no"?>
<!DOCTYPE svg PUBLIC "-//W3C//DTD SVG 1.1//EN"
 "http://www.w3.org/Graphics/SVG/1.1/DTD/svg11.dtd">
<!-- Generated by graphviz version 14.1.3 (20260303.0454)
 -->
<!-- Title: Graphical Class Hierarchy Pages: 1 -->
<svg width="763pt" height="137pt"
 viewBox="0.00 0.00 763.00 137.00" xmlns="http://www.w3.org/2000/svg" xmlns:xlink="http://www.w3.org/1999/xlink">
<g id="graph0" class="graph" transform="scale(1 1) rotate(0) translate(4 132.5)">
<title>Graphical Class Hierarchy</title>
<!-- Node0 -->
<g id="Node000000" class="node">
<title>Node0</title>
<g id="a_Node000000"><a xlink:href="classllvm_1_1SmallVectorBase.html" target="_top" xlink:title=" ">
<polygon fill="white" stroke="#666666" points="118.75,-109.12 0,-109.12 0,-67.38 118.75,-67.38 118.75,-109.12"/>
<text xml:space="preserve" text-anchor="start" x="8" y="-95.62" font-family="Helvetica,sans-Serif" font-size="10.00">llvm::SmallVectorBase</text>
<text xml:space="preserve" text-anchor="start" x="8" y="-84.38" font-family="Helvetica,sans-Serif" font-size="10.00">&lt; SmallVectorSizeType</text>
<text xml:space="preserve" text-anchor="middle" x="59.38" y="-73.12" font-family="Helvetica,sans-Serif" font-size="10.00">&lt; const Value * &gt; &gt;</text>
</a>
</g>
</g>
<!-- Node1 -->
<g id="Node000001" class="node">
<title>Node1</title>
<g id="a_Node000001"><a xlink:href="classllvm_1_1SmallVectorTemplateCommon.html" target="_top" xlink:title=" ">
<polygon fill="white" stroke="#666666" points="287.75,-103.5 154.75,-103.5 154.75,-73 287.75,-73 287.75,-103.5"/>
<text xml:space="preserve" text-anchor="start" x="162.75" y="-90" font-family="Helvetica,sans-Serif" font-size="10.00">llvm::SmallVectorTemplate</text>
<text xml:space="preserve" text-anchor="middle" x="221.25" y="-78.75" font-family="Helvetica,sans-Serif" font-size="10.00">Common&lt; const Value * &gt;</text>
</a>
</g>
</g>
<!-- Node0&#45;&gt;Node1 -->
<g id="edge8045_Node000000_Node000001" class="edge">
<title>Node0&#45;&gt;Node1</title>
<g id="a_edge8045_Node000000_Node000001"><a xlink:title=" ">
<path fill="none" stroke="#63b8ff" d="M130.48,-88.25C138.41,-88.25 146.47,-88.25 154.34,-88.25"/>
<polygon fill="#63b8ff" stroke="#63b8ff" points="130.51,-84.75 120.51,-88.25 130.51,-91.75 130.51,-84.75"/>
</a>
</g>
</g>
<!-- Node2 -->
<g id="Node000002" class="node">
<title>Node2</title>
<g id="a_Node000002"><a xlink:href="classllvm_1_1SmallVectorTemplateBase.html" target="_top" xlink:title=" ">
<polygon fill="white" stroke="#666666" points="456.75,-103.5 323.75,-103.5 323.75,-73 456.75,-73 456.75,-103.5"/>
<text xml:space="preserve" text-anchor="start" x="331.75" y="-90" font-family="Helvetica,sans-Serif" font-size="10.00">llvm::SmallVectorTemplate</text>
<text xml:space="preserve" text-anchor="middle" x="390.25" y="-78.75" font-family="Helvetica,sans-Serif" font-size="10.00">Base&lt; const Value * &gt;</text>
</a>
</g>
</g>
<!-- Node1&#45;&gt;Node2 -->
<g id="edge8046_Node000001_Node000002" class="edge">
<title>Node1&#45;&gt;Node2</title>
<g id="a_edge8046_Node000001_Node000002"><a xlink:title=" ">
<path fill="none" stroke="#63b8ff" d="M299.13,-88.25C307.23,-88.25 315.41,-88.25 323.37,-88.25"/>
<polygon fill="#63b8ff" stroke="#63b8ff" points="299.29,-84.75 289.29,-88.25 299.29,-91.75 299.29,-84.75"/>
</a>
</g>
</g>
<!-- Node3 -->
<g id="Node000003" class="node">
<title>Node3</title>
<g id="a_Node000003"><a xlink:href="classllvm_1_1SmallVectorImpl.html" target="_top" xlink:title=" ">
<polygon fill="white" stroke="#666666" points="612.25,-103.5 500.25,-103.5 500.25,-73 612.25,-73 612.25,-103.5"/>
<text xml:space="preserve" text-anchor="start" x="508.25" y="-90" font-family="Helvetica,sans-Serif" font-size="10.00">llvm::SmallVectorImpl</text>
<text xml:space="preserve" text-anchor="middle" x="556.25" y="-78.75" font-family="Helvetica,sans-Serif" font-size="10.00">&lt; const Value * &gt;</text>
</a>
</g>
</g>
<!-- Node2&#45;&gt;Node3 -->
<g id="edge8047_Node000002_Node000003" class="edge">
<title>Node2&#45;&gt;Node3</title>
<g id="a_edge8047_Node000002_Node000003"><a xlink:title=" ">
<path fill="none" stroke="#63b8ff" d="M468.41,-88.25C478.99,-88.25 489.67,-88.25 499.75,-88.25"/>
<polygon fill="#63b8ff" stroke="#63b8ff" points="468.52,-84.75 458.52,-88.25 468.52,-91.75 468.52,-84.75"/>
</a>
</g>
</g>
<!-- Node4 -->
<g id="Node000004" class="node">
<title>Node4</title>
<g id="a_Node000004"><a xlink:href="classllvm_1_1SmallVector.html" target="_top" xlink:title=" ">
<polygon fill="white" stroke="#666666" points="755,-128.5 655.75,-128.5 655.75,-98 755,-98 755,-128.5"/>
<text xml:space="preserve" text-anchor="start" x="663.75" y="-115" font-family="Helvetica,sans-Serif" font-size="10.00">llvm::SmallVector&lt;</text>
<text xml:space="preserve" text-anchor="middle" x="705.38" y="-103.75" font-family="Helvetica,sans-Serif" font-size="10.00"> const Value *, 8 &gt;</text>
</a>
</g>
</g>
<!-- Node3&#45;&gt;Node4 -->
<g id="edge8048_Node000003_Node000004" class="edge">
<title>Node3&#45;&gt;Node4</title>
<g id="a_edge8048_Node000003_Node000004"><a xlink:title=" ">
<path fill="none" stroke="#63b8ff" d="M623.58,-99.52C634.37,-101.35 645.37,-103.22 655.64,-104.97"/>
<polygon fill="#63b8ff" stroke="#63b8ff" points="624.39,-96.11 613.94,-97.88 623.22,-103.01 624.39,-96.11"/>
</a>
</g>
</g>
<!-- Node6 -->
<g id="Node000006" class="node">
<title>Node6</title>
<g id="a_Node000006"><a xlink:href="classllvm_1_1SmallVector.html" target="_top" xlink:title=" ">
<polygon fill="white" stroke="#666666" points="755,-79.5 655.75,-79.5 655.75,-49 755,-49 755,-79.5"/>
<text xml:space="preserve" text-anchor="start" x="663.75" y="-66" font-family="Helvetica,sans-Serif" font-size="10.00">llvm::SmallVector&lt;</text>
<text xml:space="preserve" text-anchor="middle" x="705.38" y="-54.75" font-family="Helvetica,sans-Serif" font-size="10.00"> const Value *, 1 &gt;</text>
</a>
</g>
</g>
<!-- Node3&#45;&gt;Node6 -->
<g id="edge8049_Node000003_Node000006" class="edge">
<title>Node3&#45;&gt;Node6</title>
<g id="a_edge8049_Node000003_Node000006"><a xlink:title=" ">
<path fill="none" stroke="#63b8ff" d="M623.58,-77.43C634.37,-75.67 645.37,-73.88 655.64,-72.2"/>
<polygon fill="#63b8ff" stroke="#63b8ff" points="623.25,-73.94 613.95,-79 624.38,-80.85 623.25,-73.94"/>
</a>
</g>
</g>
<!-- Node7 -->
<g id="Node000007" class="node">
<title>Node7</title>
<g id="a_Node000007"><a xlink:href="classllvm_1_1SmallVector.html" target="_top" xlink:title=" ">
<polygon fill="white" stroke="#666666" points="755,-30.5 655.75,-30.5 655.75,0 755,0 755,-30.5"/>
<text xml:space="preserve" text-anchor="start" x="663.75" y="-17" font-family="Helvetica,sans-Serif" font-size="10.00">llvm::SmallVector&lt;</text>
<text xml:space="preserve" text-anchor="middle" x="705.38" y="-5.75" font-family="Helvetica,sans-Serif" font-size="10.00"> const Value *, 2 &gt;</text>
</a>
</g>
</g>
<!-- Node3&#45;&gt;Node7 -->
<g id="edge8050_Node000003_Node000007" class="edge">
<title>Node3&#45;&gt;Node7</title>
<g id="a_edge8050_Node000003_Node000007"><a xlink:title=" ">
<path fill="none" stroke="#63b8ff" d="M610.23,-67.88C613.48,-66.37 616.68,-64.83 619.75,-63.25 636.64,-54.57 639.29,-49.71 655.75,-40.25 661.18,-37.13 667.04,-33.95 672.76,-30.96"/>
<polygon fill="#63b8ff" stroke="#63b8ff" points="608.88,-64.65 601.14,-71.89 611.7,-71.05 608.88,-64.65"/>
</a>
</g>
</g>
<!-- Node5 -->
<g id="Node000005" class="node">
<title>Node5</title>
<g id="a_Node000005"><a xlink:href="structllvm_1_1SmallVectorStorage.html" target="_top" xlink:title=" ">
<polygon fill="white" stroke="#666666" points="619.75,-54.5 492.75,-54.5 492.75,-24 619.75,-24 619.75,-54.5"/>
<text xml:space="preserve" text-anchor="start" x="500.75" y="-41" font-family="Helvetica,sans-Serif" font-size="10.00">llvm::SmallVectorStorage</text>
<text xml:space="preserve" text-anchor="middle" x="556.25" y="-29.75" font-family="Helvetica,sans-Serif" font-size="10.00">&lt; const Value *, N &gt;</text>
</a>
</g>
</g>
<!-- Node5&#45;&gt;Node4 -->
<g id="edge8051_Node000005_Node000004" class="edge">
<title>Node5&#45;&gt;Node4</title>
<g id="a_edge8051_Node000005_Node000004"><a xlink:title=" ">
<path fill="none" stroke="#8b1a1a" d="M610.27,-59.55C613.51,-61.07 616.69,-62.64 619.75,-64.25 636.77,-73.2 639.17,-78.5 655.75,-88.25 661.15,-91.42 667,-94.62 672.7,-97.62"/>
<polygon fill="#8b1a1a" stroke="#8b1a1a" points="611.75,-56.38 601.2,-55.51 608.9,-62.78 611.75,-56.38"/>
</a>
</g>
</g>
<!-- Node5&#45;&gt;Node6 -->
<g id="edge8052_Node000005_Node000006" class="edge">
<title>Node5&#45;&gt;Node6</title>
<g id="a_edge8052_Node000005_Node000006"><a xlink:title=" ">
<path fill="none" stroke="#8b1a1a" d="M631.27,-51.83C639.51,-53.23 647.75,-54.63 655.56,-55.95"/>
<polygon fill="#8b1a1a" stroke="#8b1a1a" points="632.01,-48.4 621.56,-50.18 630.84,-55.3 632.01,-48.4"/>
</a>
</g>
</g>
<!-- Node5&#45;&gt;Node7 -->
<g id="edge8053_Node000005_Node000007" class="edge">
<title>Node5&#45;&gt;Node7</title>
<g id="a_edge8053_Node000005_Node000007"><a xlink:title=" ">
<path fill="none" stroke="#8b1a1a" d="M631.27,-27.17C639.51,-25.83 647.75,-24.49 655.56,-23.21"/>
<polygon fill="#8b1a1a" stroke="#8b1a1a" points="630.87,-23.69 621.56,-28.76 632,-30.6 630.87,-23.69"/>
</a>
</g>
</g>
</g>
</svg>
