<?xml version="1.0" encoding="UTF-8" standalone="no"?>
<!DOCTYPE svg PUBLIC "-//W3C//DTD SVG 1.1//EN"
 "http://www.w3.org/Graphics/SVG/1.1/DTD/svg11.dtd">
<!-- Generated by graphviz version 14.1.3 (20260303.0454)
 -->
<!-- Title: Graphical Class Hierarchy Pages: 1 -->
<svg width="341pt" height="64pt"
 viewBox="0.00 0.00 341.00 64.00" xmlns="http://www.w3.org/2000/svg" xmlns:xlink="http://www.w3.org/1999/xlink">
<g id="graph0" class="graph" transform="scale(1 1) rotate(0) translate(4 60.25)">
<title>Graphical Class Hierarchy</title>
<!-- Node0 -->
<g id="Node000000" class="node">
<title>Node0</title>
<g id="a_Node000000"><a xlink:href="classllvm_1_1xray_1_1RecordConsumer.html" target="_top" xlink:title=" ">
<polygon fill="white" stroke="#666666" points="141.25,-37.25 0,-37.25 0,-18 141.25,-18 141.25,-37.25"/>
<text xml:space="preserve" text-anchor="middle" x="70.62" y="-23.75" font-family="Helvetica,sans-Serif" font-size="10.00">llvm::xray::RecordConsumer</text>
</a>
</g>
</g>
<!-- Node1 -->
<g id="Node000001" class="node">
<title>Node1</title>
<g id="a_Node000001"><a xlink:href="classllvm_1_1xray_1_1LogBuilderConsumer.html" target="_top" xlink:title=" ">
<polygon fill="white" stroke="#666666" points="332.75,-56.25 177.25,-56.25 177.25,-37 332.75,-37 332.75,-56.25"/>
<text xml:space="preserve" text-anchor="middle" x="255" y="-42.75" font-family="Helvetica,sans-Serif" font-size="10.00">llvm::xray::LogBuilderConsumer</text>
</a>
</g>
</g>
<!-- Node0&#45;&gt;Node1 -->
<g id="edge10745_Node000000_Node000001" class="edge">
<title>Node0&#45;&gt;Node1</title>
<g id="a_edge10745_Node000000_Node000001"><a xlink:title=" ">
<path fill="none" stroke="#63b8ff" d="M152.84,-36.09C160.84,-36.92 168.95,-37.76 176.91,-38.59"/>
<polygon fill="#63b8ff" stroke="#63b8ff" points="153.43,-32.63 143.12,-35.07 152.7,-39.59 153.43,-32.63"/>
</a>
</g>
</g>
<!-- Node2 -->
<g id="Node000002" class="node">
<title>Node2</title>
<g id="a_Node000002"><a xlink:href="classllvm_1_1xray_1_1PipelineConsumer.html" target="_top" xlink:title=" ">
<polygon fill="white" stroke="#666666" points="327.12,-19.25 182.88,-19.25 182.88,0 327.12,0 327.12,-19.25"/>
<text xml:space="preserve" text-anchor="middle" x="255" y="-5.75" font-family="Helvetica,sans-Serif" font-size="10.00">llvm::xray::PipelineConsumer</text>
</a>
</g>
</g>
<!-- Node0&#45;&gt;Node2 -->
<g id="edge10746_Node000000_Node000002" class="edge">
<title>Node0&#45;&gt;Node2</title>
<g id="a_edge10746_Node000000_Node000002"><a xlink:title=" ">
<path fill="none" stroke="#63b8ff" d="M153.01,-19.59C162.8,-18.63 172.75,-17.64 182.39,-16.69"/>
<polygon fill="#63b8ff" stroke="#63b8ff" points="152.73,-16.1 143.12,-20.57 153.42,-23.07 152.73,-16.1"/>
</a>
</g>
</g>
</g>
</svg>
