<?xml version="1.0" encoding="UTF-8" standalone="no"?>
<!DOCTYPE svg PUBLIC "-//W3C//DTD SVG 1.1//EN"
 "http://www.w3.org/Graphics/SVG/1.1/DTD/svg11.dtd">
<!-- Generated by graphviz version 14.1.3 (20260303.0454)
 -->
<!-- Title: Graphical Class Hierarchy Pages: 1 -->
<svg width="218pt" height="64pt"
 viewBox="0.00 0.00 218.00 64.00" xmlns="http://www.w3.org/2000/svg" xmlns:xlink="http://www.w3.org/1999/xlink">
<g id="graph0" class="graph" transform="scale(1 1) rotate(0) translate(4 60.25)">
<title>Graphical Class Hierarchy</title>
<!-- Node0 -->
<g id="Node000000" class="node">
<title>Node0</title>
<g id="a_Node000000"><a xlink:title=" ">
<polygon fill="#e0e0e0" stroke="#999999" points="57.25,-37.25 0,-37.25 0,-18 57.25,-18 57.25,-37.25"/>
<text xml:space="preserve" text-anchor="middle" x="28.62" y="-23.75" font-family="Helvetica,sans-Serif" font-size="10.00">std::array</text>
</a>
</g>
</g>
<!-- Node1 -->
<g id="Node000001" class="node">
<title>Node1</title>
<g id="a_Node000001"><a xlink:href="structllvm_1_1CRCTable.html" target="_top" xlink:title="A custom std::array with 256 entries, that also has a print function.">
<polygon fill="white" stroke="#666666" points="194.38,-56.25 108.62,-56.25 108.62,-37 194.38,-37 194.38,-56.25"/>
<text xml:space="preserve" text-anchor="middle" x="151.5" y="-42.75" font-family="Helvetica,sans-Serif" font-size="10.00">llvm::CRCTable</text>
</a>
</g>
</g>
<!-- Node0&#45;&gt;Node1 -->
<g id="edge10935_Node000000_Node000001" class="edge">
<title>Node0&#45;&gt;Node1</title>
<g id="a_edge10935_Node000000_Node000001"><a xlink:title=" ">
<path fill="none" stroke="#63b8ff" d="M68.8,-33.78C81.46,-35.77 95.54,-37.99 108.39,-40.01"/>
<polygon fill="#63b8ff" stroke="#63b8ff" points="69.58,-30.36 59.16,-32.27 68.49,-37.28 69.58,-30.36"/>
</a>
</g>
</g>
<!-- Node2 -->
<g id="Node000002" class="node">
<title>Node2</title>
<g id="a_Node000002"><a xlink:href="structllvm_1_1MD5_1_1MD5Result.html" target="_top" xlink:title=" ">
<polygon fill="white" stroke="#666666" points="209.75,-19.25 93.25,-19.25 93.25,0 209.75,0 209.75,-19.25"/>
<text xml:space="preserve" text-anchor="middle" x="151.5" y="-5.75" font-family="Helvetica,sans-Serif" font-size="10.00">llvm::MD5::MD5Result</text>
</a>
</g>
</g>
<!-- Node0&#45;&gt;Node2 -->
<g id="edge10936_Node000000_Node000002" class="edge">
<title>Node0&#45;&gt;Node2</title>
<g id="a_edge10936_Node000000_Node000002"><a xlink:title=" ">
<path fill="none" stroke="#63b8ff" d="M68.9,-21.78C76.63,-20.62 84.89,-19.4 93.07,-18.18"/>
<polygon fill="#63b8ff" stroke="#63b8ff" points="68.53,-18.29 59.16,-23.23 69.56,-25.22 68.53,-18.29"/>
</a>
</g>
</g>
</g>
</svg>
