<?xml version="1.0" encoding="UTF-8" standalone="no"?>
<!DOCTYPE svg PUBLIC "-//W3C//DTD SVG 1.1//EN"
 "http://www.w3.org/Graphics/SVG/1.1/DTD/svg11.dtd">
<!-- Generated by graphviz version 14.1.3 (20260303.0454)
 -->
<!-- Title: Graphical Class Hierarchy Pages: 1 -->
<svg width="204pt" height="64pt"
 viewBox="0.00 0.00 204.00 64.00" xmlns="http://www.w3.org/2000/svg" xmlns:xlink="http://www.w3.org/1999/xlink">
<g id="graph0" class="graph" transform="scale(1 1) rotate(0) translate(4 60.25)">
<title>Graphical Class Hierarchy</title>
<!-- Node0 -->
<g id="Node000000" class="node">
<title>Node0</title>
<g id="a_Node000000"><a xlink:href="classllvm_1_1Error.html" target="_top" xlink:title="Lightweight error class with error context and mandatory checking.">
<polygon fill="white" stroke="#666666" points="61,-37.25 0,-37.25 0,-18 61,-18 61,-37.25"/>
<text xml:space="preserve" text-anchor="middle" x="30.5" y="-23.75" font-family="Helvetica,sans-Serif" font-size="10.00">llvm::Error</text>
</a>
</g>
</g>
<!-- Node1 -->
<g id="Node000001" class="node">
<title>Node1</title>
<g id="a_Node000001"><a xlink:href="classllvm_1_1ErrorSuccess.html" target="_top" xlink:title="Subclass of Error for the sole purpose of identifying the success path in the type system.">
<polygon fill="white" stroke="#666666" points="196.25,-56.25 97,-56.25 97,-37 196.25,-37 196.25,-56.25"/>
<text xml:space="preserve" text-anchor="middle" x="146.62" y="-42.75" font-family="Helvetica,sans-Serif" font-size="10.00">llvm::ErrorSuccess</text>
</a>
</g>
</g>
<!-- Node0&#45;&gt;Node1 -->
<g id="edge3317_Node000000_Node000001" class="edge">
<title>Node0&#45;&gt;Node1</title>
<g id="a_edge3317_Node000000_Node000001"><a xlink:title=" ">
<path fill="none" stroke="#63b8ff" d="M72.62,-34.47C80.48,-35.78 88.79,-37.16 96.86,-38.51"/>
<polygon fill="#63b8ff" stroke="#63b8ff" points="73.42,-31.06 62.98,-32.87 72.27,-37.96 73.42,-31.06"/>
</a>
</g>
</g>
<!-- Node2 -->
<g id="Node000002" class="node">
<title>Node2</title>
<g id="a_Node000002"><a xlink:href="classllvm_1_1MSVCPError.html" target="_top" xlink:title=" ">
<polygon fill="white" stroke="#666666" points="195.12,-19.25 98.12,-19.25 98.12,0 195.12,0 195.12,-19.25"/>
<text xml:space="preserve" text-anchor="middle" x="146.62" y="-5.75" font-family="Helvetica,sans-Serif" font-size="10.00">llvm::MSVCPError</text>
</a>
</g>
</g>
<!-- Node0&#45;&gt;Node2 -->
<g id="edge3318_Node000000_Node000002" class="edge">
<title>Node0&#45;&gt;Node2</title>
<g id="a_edge3318_Node000000_Node000002"><a xlink:title=" ">
<path fill="none" stroke="#63b8ff" d="M72.62,-21.14C80.77,-19.85 89.39,-18.49 97.74,-17.18"/>
<polygon fill="#63b8ff" stroke="#63b8ff" points="72.31,-17.64 62.98,-22.66 73.4,-24.56 72.31,-17.64"/>
</a>
</g>
</g>
</g>
</svg>
