<?xml version="1.0" encoding="UTF-8" standalone="no"?>
<!DOCTYPE svg PUBLIC "-//W3C//DTD SVG 1.1//EN"
 "http://www.w3.org/Graphics/SVG/1.1/DTD/svg11.dtd">
<!-- Generated by graphviz version 14.1.3 (20260303.0454)
 -->
<!-- Title: Graphical Class Hierarchy Pages: 1 -->
<svg width="500pt" height="260pt"
 viewBox="0.00 0.00 500.00 260.00" xmlns="http://www.w3.org/2000/svg" xmlns:xlink="http://www.w3.org/1999/xlink">
<g id="graph0" class="graph" transform="scale(1 1) rotate(0) translate(4 255.5)">
<title>Graphical Class Hierarchy</title>
<!-- Node0 -->
<g id="Node000000" class="node">
<title>Node0</title>
<g id="a_Node000000"><a xlink:href="classllvm_1_1IRBuilderBase.html" target="_top" xlink:title="Common base class shared among various IRBuilders.">
<polygon fill="white" stroke="#666666" points="103,-137.88 0,-137.88 0,-118.62 103,-118.62 103,-137.88"/>
<text xml:space="preserve" text-anchor="middle" x="51.5" y="-124.38" font-family="Helvetica,sans-Serif" font-size="10.00">llvm::IRBuilderBase</text>
</a>
</g>
</g>
<!-- Node1 -->
<g id="Node000001" class="node">
<title>Node1</title>
<g id="a_Node000001"><a xlink:href="classllvm_1_1IRBuilder.html" target="_top" xlink:title=" ">
<polygon fill="white" stroke="#666666" points="296.38,-251.5 150.62,-251.5 150.62,-221 296.38,-221 296.38,-251.5"/>
<text xml:space="preserve" text-anchor="start" x="158.62" y="-238" font-family="Helvetica,sans-Serif" font-size="10.00">llvm::IRBuilder&lt; TargetFolder,</text>
<text xml:space="preserve" text-anchor="middle" x="223.5" y="-226.75" font-family="Helvetica,sans-Serif" font-size="10.00"> IRBuilderCallbackInserter &gt;</text>
</a>
</g>
</g>
<!-- Node0&#45;&gt;Node1 -->
<g id="edge3783_Node000000_Node000001" class="edge">
<title>Node0&#45;&gt;Node1</title>
<g id="a_edge3783_Node000000_Node000001"><a xlink:title=" ">
<path fill="none" stroke="#63b8ff" d="M67.12,-147.1C82.88,-166.2 109.7,-195.27 139,-212.25 144.48,-215.43 150.41,-218.21 156.5,-220.64"/>
<polygon fill="#63b8ff" stroke="#63b8ff" points="69.86,-144.93 60.87,-139.32 64.4,-149.31 69.86,-144.93"/>
</a>
</g>
</g>
<!-- Node2 -->
<g id="Node000002" class="node">
<title>Node2</title>
<g id="a_Node000002"><a xlink:href="classllvm_1_1IRBuilder.html" target="_top" xlink:title=" ">
<polygon fill="white" stroke="#666666" points="267.12,-202.88 179.88,-202.88 179.88,-183.62 267.12,-183.62 267.12,-202.88"/>
<text xml:space="preserve" text-anchor="middle" x="223.5" y="-189.38" font-family="Helvetica,sans-Serif" font-size="10.00">llvm::InsertPoint</text>
</a>
</g>
</g>
<!-- Node0&#45;&gt;Node2 -->
<g id="edge3784_Node000000_Node000002" class="edge">
<title>Node0&#45;&gt;Node2</title>
<g id="a_edge3784_Node000000_Node000002"><a xlink:title=" ">
<path fill="none" stroke="#63b8ff" d="M77.79,-144C94.61,-153.89 117.48,-166.24 139,-174.25 151.82,-179.02 166.21,-182.82 179.38,-185.72"/>
<polygon fill="#63b8ff" stroke="#63b8ff" points="79.84,-141.15 69.46,-139 76.23,-147.15 79.84,-141.15"/>
</a>
</g>
</g>
<!-- Node3 -->
<g id="Node000003" class="node">
<title>Node3</title>
<g id="a_Node000003"><a xlink:href="classllvm_1_1IRBuilder.html" target="_top" xlink:title=" ">
<polygon fill="white" stroke="#666666" points="308,-165.5 139,-165.5 139,-135 308,-135 308,-165.5"/>
<text xml:space="preserve" text-anchor="start" x="147" y="-152" font-family="Helvetica,sans-Serif" font-size="10.00">llvm::IRBuilder&lt; InstSimplify</text>
<text xml:space="preserve" text-anchor="middle" x="223.5" y="-140.75" font-family="Helvetica,sans-Serif" font-size="10.00">Folder, IRBuilderCallbackInserter &gt;</text>
</a>
</g>
</g>
<!-- Node0&#45;&gt;Node3 -->
<g id="edge3785_Node000000_Node000003" class="edge">
<title>Node0&#45;&gt;Node3</title>
<g id="a_edge3785_Node000000_Node000003"><a xlink:title=" ">
<path fill="none" stroke="#63b8ff" d="M114.4,-136.26C122.32,-137.29 130.53,-138.35 138.72,-139.41"/>
<polygon fill="#63b8ff" stroke="#63b8ff" points="114.91,-132.8 104.55,-134.99 114.01,-139.74 114.91,-132.8"/>
</a>
</g>
</g>
<!-- Node4 -->
<g id="Node000004" class="node">
<title>Node4</title>
<g id="a_Node000004"><a xlink:href="classllvm_1_1IRBuilder.html" target="_top" xlink:title=" ">
<polygon fill="white" stroke="#666666" points="299.75,-116.88 147.25,-116.88 147.25,-97.62 299.75,-97.62 299.75,-116.88"/>
<text xml:space="preserve" text-anchor="middle" x="223.5" y="-103.38" font-family="Helvetica,sans-Serif" font-size="10.00">llvm::IRBuilder&lt; TargetFolder &gt;</text>
</a>
</g>
</g>
<!-- Node0&#45;&gt;Node4 -->
<g id="edge3786_Node000000_Node000004" class="edge">
<title>Node0&#45;&gt;Node4</title>
<g id="a_edge3786_Node000000_Node000004"><a xlink:title=" ">
<path fill="none" stroke="#63b8ff" d="M114.32,-120.61C124.92,-119.3 136.05,-117.93 146.97,-116.58"/>
<polygon fill="#63b8ff" stroke="#63b8ff" points="114.04,-117.12 104.55,-121.82 114.9,-124.07 114.04,-117.12"/>
</a>
</g>
</g>
<!-- Node6 -->
<g id="Node000006" class="node">
<title>Node6</title>
<g id="a_Node000006"><a xlink:href="classllvm_1_1IRBuilder.html" target="_top" xlink:title=" ">
<polygon fill="white" stroke="#666666" points="277.25,-79.5 169.75,-79.5 169.75,-49 277.25,-49 277.25,-79.5"/>
<text xml:space="preserve" text-anchor="start" x="177.75" y="-66" font-family="Helvetica,sans-Serif" font-size="10.00">llvm::IRBuilder&lt; llvm</text>
<text xml:space="preserve" text-anchor="middle" x="223.5" y="-54.75" font-family="Helvetica,sans-Serif" font-size="10.00">::ConstantFolder &gt;</text>
</a>
</g>
</g>
<!-- Node0&#45;&gt;Node6 -->
<g id="edge3788_Node000000_Node000006" class="edge">
<title>Node0&#45;&gt;Node6</title>
<g id="a_edge3788_Node000000_Node000006"><a xlink:title=" ">
<path fill="none" stroke="#63b8ff" d="M82.17,-113.16C98.65,-105.13 119.67,-95.45 139,-88.25 148.75,-84.62 159.31,-81.2 169.54,-78.14"/>
<polygon fill="#63b8ff" stroke="#63b8ff" points="80.83,-109.91 73.42,-117.48 83.93,-116.19 80.83,-109.91"/>
</a>
</g>
</g>
<!-- Node7 -->
<g id="Node000007" class="node">
<title>Node7</title>
<g id="a_Node000007"><a xlink:href="classllvm_1_1IRBuilder.html" target="_top" xlink:title="This provides a uniform API for creating instructions and inserting them into a basic block: either a...">
<polygon fill="white" stroke="#666666" points="288.12,-30.5 158.88,-30.5 158.88,0 288.12,0 288.12,-30.5"/>
<text xml:space="preserve" text-anchor="start" x="166.88" y="-17" font-family="Helvetica,sans-Serif" font-size="10.00">llvm::IRBuilder&lt; FolderTy,</text>
<text xml:space="preserve" text-anchor="middle" x="223.5" y="-5.75" font-family="Helvetica,sans-Serif" font-size="10.00"> InserterTy &gt;</text>
</a>
</g>
</g>
<!-- Node0&#45;&gt;Node7 -->
<g id="edge3789_Node000000_Node000007" class="edge">
<title>Node0&#45;&gt;Node7</title>
<g id="a_edge3789_Node000000_Node000007"><a xlink:title=" ">
<path fill="none" stroke="#63b8ff" d="M66.5,-109.13C82.07,-89.17 109.02,-58.32 139,-40.25 145.09,-36.58 151.76,-33.41 158.59,-30.69"/>
<polygon fill="#63b8ff" stroke="#63b8ff" points="63.79,-106.91 60.53,-116.99 69.37,-111.14 63.79,-106.91"/>
</a>
</g>
</g>
<!-- Node5 -->
<g id="Node000005" class="node">
<title>Node5</title>
<g id="a_Node000005"><a xlink:href="classBuilderTy.html" target="_top" xlink:title=" ">
<polygon fill="white" stroke="#666666" points="446.25,-116.88 389.75,-116.88 389.75,-97.62 446.25,-97.62 446.25,-116.88"/>
<text xml:space="preserve" text-anchor="middle" x="418" y="-103.38" font-family="Helvetica,sans-Serif" font-size="10.00">BuilderTy</text>
</a>
</g>
</g>
<!-- Node4&#45;&gt;Node5 -->
<g id="edge3787_Node000004_Node000005" class="edge">
<title>Node4&#45;&gt;Node5</title>
<g id="a_edge3787_Node000004_Node000005"><a xlink:title=" ">
<path fill="none" stroke="#63b8ff" d="M311.24,-107.25C339.61,-107.25 369.09,-107.25 389.7,-107.25"/>
<polygon fill="#63b8ff" stroke="#63b8ff" points="311.54,-103.75 301.54,-107.25 311.54,-110.75 311.54,-103.75"/>
</a>
</g>
</g>
<!-- Node8 -->
<g id="Node000008" class="node">
<title>Node8</title>
<g id="a_Node000008"><a xlink:href="structllvm_1_1InstrumentationIRBuilder.html" target="_top" xlink:title=" ">
<polygon fill="white" stroke="#666666" points="492,-24.88 344,-24.88 344,-5.63 492,-5.63 492,-24.88"/>
<text xml:space="preserve" text-anchor="middle" x="418" y="-11.38" font-family="Helvetica,sans-Serif" font-size="10.00">llvm::InstrumentationIRBuilder</text>
</a>
</g>
</g>
<!-- Node7&#45;&gt;Node8 -->
<g id="edge3790_Node000007_Node000008" class="edge">
<title>Node7&#45;&gt;Node8</title>
<g id="a_edge3790_Node000007_Node000008"><a xlink:title=" ">
<path fill="none" stroke="#63b8ff" d="M299.93,-15.25C314.27,-15.25 329.26,-15.25 343.53,-15.25"/>
<polygon fill="#63b8ff" stroke="#63b8ff" points="300.11,-11.75 290.11,-15.25 300.11,-18.75 300.11,-11.75"/>
</a>
</g>
</g>
</g>
</svg>
