<?xml version="1.0" encoding="UTF-8" standalone="no"?>
<!DOCTYPE svg PUBLIC "-//W3C//DTD SVG 1.1//EN"
 "http://www.w3.org/Graphics/SVG/1.1/DTD/svg11.dtd">
<!-- Generated by graphviz version 14.1.3 (20260303.0454)
 -->
<!-- Title: Graphical Class Hierarchy Pages: 1 -->
<svg width="277pt" height="249pt"
 viewBox="0.00 0.00 277.00 249.00" xmlns="http://www.w3.org/2000/svg" xmlns:xlink="http://www.w3.org/1999/xlink">
<g id="graph0" class="graph" transform="scale(1 1) rotate(0) translate(4 245.25)">
<title>Graphical Class Hierarchy</title>
<!-- Node0 -->
<g id="Node000000" class="node">
<title>Node0</title>
<g id="a_Node000000"><a xlink:href="classllvm_1_1yaml_1_1Node.html" target="_top" xlink:title="Abstract base class for all Nodes.">
<polygon fill="white" stroke="#666666" points="90.25,-130.25 0,-130.25 0,-111 90.25,-111 90.25,-130.25"/>
<text xml:space="preserve" text-anchor="middle" x="45.12" y="-116.75" font-family="Helvetica,sans-Serif" font-size="10.00">llvm::yaml::Node</text>
</a>
</g>
</g>
<!-- Node1 -->
<g id="Node000001" class="node">
<title>Node1</title>
<g id="a_Node000001"><a xlink:href="classllvm_1_1yaml_1_1AliasNode.html" target="_top" xlink:title="Represents an alias to a Node with an anchor.">
<polygon fill="white" stroke="#666666" points="253.62,-241.25 141.62,-241.25 141.62,-222 253.62,-222 253.62,-241.25"/>
<text xml:space="preserve" text-anchor="middle" x="197.62" y="-227.75" font-family="Helvetica,sans-Serif" font-size="10.00">llvm::yaml::AliasNode</text>
</a>
</g>
</g>
<!-- Node0&#45;&gt;Node1 -->
<g id="edge10780_Node000000_Node000001" class="edge">
<title>Node0&#45;&gt;Node1</title>
<g id="a_edge10780_Node000000_Node000001"><a xlink:title=" ">
<path fill="none" stroke="#63b8ff" d="M57.73,-140.13C71.43,-161.43 96.19,-194.99 126.25,-213.62 131.39,-216.81 137.08,-219.44 142.93,-221.6"/>
<polygon fill="#63b8ff" stroke="#63b8ff" points="60.81,-138.45 52.56,-131.8 54.86,-142.14 60.81,-138.45"/>
</a>
</g>
</g>
<!-- Node2 -->
<g id="Node000002" class="node">
<title>Node2</title>
<g id="a_Node000002"><a xlink:href="classllvm_1_1yaml_1_1BlockScalarNode.html" target="_top" xlink:title="A block scalar node is an opaque datum that can be presented as a series of zero or more Unicode scal...">
<polygon fill="white" stroke="#666666" points="269,-204.25 126.25,-204.25 126.25,-185 269,-185 269,-204.25"/>
<text xml:space="preserve" text-anchor="middle" x="197.62" y="-190.75" font-family="Helvetica,sans-Serif" font-size="10.00">llvm::yaml::BlockScalarNode</text>
</a>
</g>
</g>
<!-- Node0&#45;&gt;Node2 -->
<g id="edge10781_Node000000_Node000002" class="edge">
<title>Node0&#45;&gt;Node2</title>
<g id="a_edge10781_Node000000_Node000002"><a xlink:title=" ">
<path fill="none" stroke="#63b8ff" d="M66.2,-137.74C81.69,-150.16 104.15,-166.48 126.25,-176.62 133.01,-179.73 140.4,-182.36 147.76,-184.57"/>
<polygon fill="#63b8ff" stroke="#63b8ff" points="68.63,-135.21 58.69,-131.57 64.19,-140.62 68.63,-135.21"/>
</a>
</g>
</g>
<!-- Node3 -->
<g id="Node000003" class="node">
<title>Node3</title>
<g id="a_Node000003"><a xlink:href="classllvm_1_1yaml_1_1KeyValueNode.html" target="_top" xlink:title="A key and value pair.">
<polygon fill="white" stroke="#666666" points="263.38,-167.25 131.88,-167.25 131.88,-148 263.38,-148 263.38,-167.25"/>
<text xml:space="preserve" text-anchor="middle" x="197.62" y="-153.75" font-family="Helvetica,sans-Serif" font-size="10.00">llvm::yaml::KeyValueNode</text>
</a>
</g>
</g>
<!-- Node0&#45;&gt;Node3 -->
<g id="edge10782_Node000000_Node000003" class="edge">
<title>Node0&#45;&gt;Node3</title>
<g id="a_edge10782_Node000000_Node000003"><a xlink:title=" ">
<path fill="none" stroke="#63b8ff" d="M98.3,-133.45C117.03,-138.06 137.89,-143.18 155.55,-147.53"/>
<polygon fill="#63b8ff" stroke="#63b8ff" points="99.27,-130.09 88.72,-131.1 97.59,-136.88 99.27,-130.09"/>
</a>
</g>
</g>
<!-- Node4 -->
<g id="Node000004" class="node">
<title>Node4</title>
<g id="a_Node000004"><a xlink:href="classllvm_1_1yaml_1_1MappingNode.html" target="_top" xlink:title="Represents a YAML map created from either a block map for a flow map.">
<polygon fill="white" stroke="#666666" points="261.12,-130.25 134.12,-130.25 134.12,-111 261.12,-111 261.12,-130.25"/>
<text xml:space="preserve" text-anchor="middle" x="197.62" y="-116.75" font-family="Helvetica,sans-Serif" font-size="10.00">llvm::yaml::MappingNode</text>
</a>
</g>
</g>
<!-- Node0&#45;&gt;Node4 -->
<g id="edge10783_Node000000_Node000004" class="edge">
<title>Node0&#45;&gt;Node4</title>
<g id="a_edge10783_Node000000_Node000004"><a xlink:title=" ">
<path fill="none" stroke="#63b8ff" d="M101.88,-120.62C112.22,-120.62 123.1,-120.62 133.64,-120.62"/>
<polygon fill="#63b8ff" stroke="#63b8ff" points="101.98,-117.13 91.98,-120.63 101.98,-124.13 101.98,-117.13"/>
</a>
</g>
</g>
<!-- Node5 -->
<g id="Node000005" class="node">
<title>Node5</title>
<g id="a_Node000005"><a xlink:href="classllvm_1_1yaml_1_1NullNode.html" target="_top" xlink:title="A null value.">
<polygon fill="white" stroke="#666666" points="251.38,-93.25 143.88,-93.25 143.88,-74 251.38,-74 251.38,-93.25"/>
<text xml:space="preserve" text-anchor="middle" x="197.62" y="-79.75" font-family="Helvetica,sans-Serif" font-size="10.00">llvm::yaml::NullNode</text>
</a>
</g>
</g>
<!-- Node0&#45;&gt;Node5 -->
<g id="edge10784_Node000000_Node000005" class="edge">
<title>Node0&#45;&gt;Node5</title>
<g id="a_edge10784_Node000000_Node000005"><a xlink:title=" ">
<path fill="none" stroke="#63b8ff" d="M98.3,-107.8C117.03,-103.19 137.89,-98.07 155.55,-93.72"/>
<polygon fill="#63b8ff" stroke="#63b8ff" points="97.59,-104.37 88.72,-110.15 99.27,-111.16 97.59,-104.37"/>
</a>
</g>
</g>
<!-- Node6 -->
<g id="Node000006" class="node">
<title>Node6</title>
<g id="a_Node000006"><a xlink:href="classllvm_1_1yaml_1_1ScalarNode.html" target="_top" xlink:title="A scalar node is an opaque datum that can be presented as a series of zero or more Unicode scalar val...">
<polygon fill="white" stroke="#666666" points="256.62,-56.25 138.62,-56.25 138.62,-37 256.62,-37 256.62,-56.25"/>
<text xml:space="preserve" text-anchor="middle" x="197.62" y="-42.75" font-family="Helvetica,sans-Serif" font-size="10.00">llvm::yaml::ScalarNode</text>
</a>
</g>
</g>
<!-- Node0&#45;&gt;Node6 -->
<g id="edge10785_Node000000_Node000006" class="edge">
<title>Node0&#45;&gt;Node6</title>
<g id="a_edge10785_Node000000_Node000006"><a xlink:title=" ">
<path fill="none" stroke="#63b8ff" d="M66.2,-103.51C81.69,-91.09 104.15,-74.77 126.25,-64.62 133.01,-61.52 140.4,-58.89 147.76,-56.68"/>
<polygon fill="#63b8ff" stroke="#63b8ff" points="64.19,-100.63 58.69,-109.68 68.63,-106.04 64.19,-100.63"/>
</a>
</g>
</g>
<!-- Node7 -->
<g id="Node000007" class="node">
<title>Node7</title>
<g id="a_Node000007"><a xlink:href="classllvm_1_1yaml_1_1SequenceNode.html" target="_top" xlink:title="Represents a YAML sequence created from either a block sequence for a flow sequence.">
<polygon fill="white" stroke="#666666" points="264.5,-19.25 130.75,-19.25 130.75,0 264.5,0 264.5,-19.25"/>
<text xml:space="preserve" text-anchor="middle" x="197.62" y="-5.75" font-family="Helvetica,sans-Serif" font-size="10.00">llvm::yaml::SequenceNode</text>
</a>
</g>
</g>
<!-- Node0&#45;&gt;Node7 -->
<g id="edge10786_Node000000_Node000007" class="edge">
<title>Node0&#45;&gt;Node7</title>
<g id="a_edge10786_Node000000_Node000007"><a xlink:title=" ">
<path fill="none" stroke="#63b8ff" d="M57.73,-101.12C71.43,-79.82 96.19,-46.26 126.25,-27.62 131.39,-24.44 137.08,-21.81 142.93,-19.65"/>
<polygon fill="#63b8ff" stroke="#63b8ff" points="54.86,-99.11 52.56,-109.45 60.81,-102.8 54.86,-99.11"/>
</a>
</g>
</g>
</g>
</svg>
