<?xml version="1.0" encoding="UTF-8" standalone="no"?>
<!DOCTYPE svg PUBLIC "-//W3C//DTD SVG 1.1//EN"
 "http://www.w3.org/Graphics/SVG/1.1/DTD/svg11.dtd">
<!-- Generated by graphviz version 14.1.3 (20260303.0454)
 -->
<!-- Title: Graphical Class Hierarchy Pages: 1 -->
<svg width="327pt" height="88pt"
 viewBox="0.00 0.00 327.00 88.00" xmlns="http://www.w3.org/2000/svg" xmlns:xlink="http://www.w3.org/1999/xlink">
<g id="graph0" class="graph" transform="scale(1 1) rotate(0) translate(4 83.5)">
<title>Graphical Class Hierarchy</title>
<!-- Node0 -->
<g id="Node000000" class="node">
<title>Node0</title>
<g id="a_Node000000"><a xlink:href="classllvm_1_1MCInstrAnalysis.html" target="_top" xlink:title=" ">
<polygon fill="white" stroke="#666666" points="112.75,-48.88 0,-48.88 0,-29.62 112.75,-29.62 112.75,-48.88"/>
<text xml:space="preserve" text-anchor="middle" x="56.38" y="-35.38" font-family="Helvetica,sans-Serif" font-size="10.00">llvm::MCInstrAnalysis</text>
</a>
</g>
</g>
<!-- Node1 -->
<g id="Node000001" class="node">
<title>Node1</title>
<g id="a_Node000001"><a xlink:href="classllvm_1_1AMDGPU_1_1AMDGPUMCInstrAnalysis.html" target="_top" xlink:title=" ">
<polygon fill="white" stroke="#666666" points="318.5,-79.5 148.75,-79.5 148.75,-49 318.5,-49 318.5,-79.5"/>
<text xml:space="preserve" text-anchor="start" x="156.75" y="-66" font-family="Helvetica,sans-Serif" font-size="10.00">llvm::AMDGPU::AMDGPUMCInstr</text>
<text xml:space="preserve" text-anchor="middle" x="233.62" y="-54.75" font-family="Helvetica,sans-Serif" font-size="10.00">Analysis</text>
</a>
</g>
</g>
<!-- Node0&#45;&gt;Node1 -->
<g id="edge4597_Node000000_Node000001" class="edge">
<title>Node0&#45;&gt;Node1</title>
<g id="a_edge4597_Node000000_Node000001"><a xlink:title=" ">
<path fill="none" stroke="#63b8ff" d="M124.22,-48.79C132.13,-49.91 140.29,-51.08 148.4,-52.24"/>
<polygon fill="#63b8ff" stroke="#63b8ff" points="124.72,-45.32 114.32,-47.37 123.73,-52.25 124.72,-45.32"/>
</a>
</g>
</g>
<!-- Node2 -->
<g id="Node000002" class="node">
<title>Node2</title>
<g id="a_Node000002"><a xlink:href="classllvm_1_1X86__MC_1_1X86MCInstrAnalysis.html" target="_top" xlink:title=" ">
<polygon fill="white" stroke="#666666" points="302,-30.5 165.25,-30.5 165.25,0 302,0 302,-30.5"/>
<text xml:space="preserve" text-anchor="start" x="173.25" y="-17" font-family="Helvetica,sans-Serif" font-size="10.00">llvm::X86_MC::X86MCInstr</text>
<text xml:space="preserve" text-anchor="middle" x="233.62" y="-5.75" font-family="Helvetica,sans-Serif" font-size="10.00">Analysis</text>
</a>
</g>
</g>
<!-- Node0&#45;&gt;Node2 -->
<g id="edge4598_Node000000_Node000002" class="edge">
<title>Node0&#45;&gt;Node2</title>
<g id="a_edge4598_Node000000_Node000002"><a xlink:title=" ">
<path fill="none" stroke="#63b8ff" d="M123.91,-30.14C137.34,-28.3 151.47,-26.36 164.93,-24.52"/>
<polygon fill="#63b8ff" stroke="#63b8ff" points="123.76,-26.63 114.32,-31.45 124.71,-33.56 123.76,-26.63"/>
</a>
</g>
</g>
</g>
</svg>
