<?xml version="1.0" encoding="UTF-8" standalone="no"?>
<!DOCTYPE svg PUBLIC "-//W3C//DTD SVG 1.1//EN"
 "http://www.w3.org/Graphics/SVG/1.1/DTD/svg11.dtd">
<!-- Generated by graphviz version 14.1.3 (20260303.0454)
 -->
<!-- Title: Graphical Class Hierarchy Pages: 1 -->
<svg width="553pt" height="828pt"
 viewBox="0.00 0.00 553.00 828.00" xmlns="http://www.w3.org/2000/svg" xmlns:xlink="http://www.w3.org/1999/xlink">
<g id="graph0" class="graph" transform="scale(1 1) rotate(0) translate(4 824.25)">
<title>Graphical Class Hierarchy</title>
<!-- Node0 -->
<g id="Node000000" class="node">
<title>Node0</title>
<g id="a_Node000000"><a xlink:href="classllvm_1_1SelectionDAGTargetInfo.html" target="_top" xlink:title="Targets can subclass this to parameterize the SelectionDAG lowering and instruction selection process...">
<polygon fill="white" stroke="#666666" points="145.75,-400.25 0,-400.25 0,-381 145.75,-381 145.75,-400.25"/>
<text xml:space="preserve" text-anchor="middle" x="72.88" y="-386.75" font-family="Helvetica,sans-Serif" font-size="10.00">llvm::SelectionDAGTargetInfo</text>
</a>
</g>
</g>
<!-- Node1 -->
<g id="Node000001" class="node">
<title>Node1</title>
<g id="a_Node000001"><a xlink:href="classllvm_1_1SelectionDAGGenTargetInfo.html" target="_top" xlink:title="Proxy class that targets should inherit from if they wish to use the generated node descriptions.">
<polygon fill="white" stroke="#666666" points="345.5,-419.25 181.75,-419.25 181.75,-400 345.5,-400 345.5,-419.25"/>
<text xml:space="preserve" text-anchor="middle" x="263.62" y="-405.75" font-family="Helvetica,sans-Serif" font-size="10.00">llvm::SelectionDAGGenTargetInfo</text>
</a>
</g>
</g>
<!-- Node0&#45;&gt;Node1 -->
<g id="edge6440_Node000000_Node000001" class="edge">
<title>Node0&#45;&gt;Node1</title>
<g id="a_edge6440_Node000000_Node000001"><a xlink:title=" ">
<path fill="none" stroke="#63b8ff" d="M157.26,-399.02C165.27,-399.82 173.38,-400.64 181.36,-401.44"/>
<polygon fill="#63b8ff" stroke="#63b8ff" points="157.85,-395.56 147.55,-398.04 157.15,-402.53 157.85,-395.56"/>
</a>
</g>
</g>
<!-- Node24 -->
<g id="Node000024" class="node">
<title>Node24</title>
<g id="a_Node000024"><a xlink:href="classllvm_1_1X86SelectionDAGInfo.html" target="_top" xlink:title=" ">
<polygon fill="white" stroke="#666666" points="331.62,-382.25 195.62,-382.25 195.62,-363 331.62,-363 331.62,-382.25"/>
<text xml:space="preserve" text-anchor="middle" x="263.62" y="-368.75" font-family="Helvetica,sans-Serif" font-size="10.00">llvm::X86SelectionDAGInfo</text>
</a>
</g>
</g>
<!-- Node0&#45;&gt;Node24 -->
<g id="edge6463_Node000000_Node000024" class="edge">
<title>Node0&#45;&gt;Node24</title>
<g id="a_edge6463_Node000000_Node000024"><a xlink:title=" ">
<path fill="none" stroke="#63b8ff" d="M157.12,-382.69C169.84,-381.47 182.83,-380.23 195.15,-379.06"/>
<polygon fill="#63b8ff" stroke="#63b8ff" points="157.17,-379.17 147.55,-383.6 157.84,-386.13 157.17,-379.17"/>
</a>
</g>
</g>
<!-- Node2 -->
<g id="Node000002" class="node">
<title>Node2</title>
<g id="a_Node000002"><a xlink:href="classllvm_1_1AArch64SelectionDAGInfo.html" target="_top" xlink:title=" ">
<polygon fill="white" stroke="#666666" points="541.12,-820.25 384.88,-820.25 384.88,-801 541.12,-801 541.12,-820.25"/>
<text xml:space="preserve" text-anchor="middle" x="463" y="-806.75" font-family="Helvetica,sans-Serif" font-size="10.00">llvm::AArch64SelectionDAGInfo</text>
</a>
</g>
</g>
<!-- Node1&#45;&gt;Node2 -->
<g id="edge6441_Node000001_Node000002" class="edge">
<title>Node1&#45;&gt;Node2</title>
<g id="a_edge6441_Node000001_Node000002"><a xlink:title=" ">
<path fill="none" stroke="#63b8ff" d="M264.21,-430.89C264.19,-495.72 273.44,-692.5 381.5,-792.62 384.86,-795.74 388.64,-798.36 392.68,-800.55"/>
<polygon fill="#63b8ff" stroke="#63b8ff" points="267.71,-430.99 264.31,-420.96 260.71,-430.93 267.71,-430.99"/>
</a>
</g>
</g>
<!-- Node3 -->
<g id="Node000003" class="node">
<title>Node3</title>
<g id="a_Node000003"><a xlink:href="classllvm_1_1AMDGPUSelectionDAGInfo.html" target="_top" xlink:title=" ">
<polygon fill="white" stroke="#666666" points="544.5,-783.25 381.5,-783.25 381.5,-764 544.5,-764 544.5,-783.25"/>
<text xml:space="preserve" text-anchor="middle" x="463" y="-769.75" font-family="Helvetica,sans-Serif" font-size="10.00">llvm::AMDGPUSelectionDAGInfo</text>
</a>
</g>
</g>
<!-- Node1&#45;&gt;Node3 -->
<g id="edge6442_Node000001_Node000003" class="edge">
<title>Node1&#45;&gt;Node3</title>
<g id="a_edge6442_Node000001_Node000003"><a xlink:title=" ">
<path fill="none" stroke="#63b8ff" d="M265.03,-431.23C267.4,-492.21 282.9,-666.94 381.5,-755.62 385.01,-758.79 388.96,-761.43 393.17,-763.64"/>
<polygon fill="#63b8ff" stroke="#63b8ff" points="268.53,-431.13 264.74,-421.24 261.53,-431.34 268.53,-431.13"/>
</a>
</g>
</g>
<!-- Node4 -->
<g id="Node000004" class="node">
<title>Node4</title>
<g id="a_Node000004"><a xlink:href="classllvm_1_1ARCSelectionDAGInfo.html" target="_top" xlink:title=" ">
<polygon fill="white" stroke="#666666" points="533.25,-746.25 392.75,-746.25 392.75,-727 533.25,-727 533.25,-746.25"/>
<text xml:space="preserve" text-anchor="middle" x="463" y="-732.75" font-family="Helvetica,sans-Serif" font-size="10.00">llvm::ARCSelectionDAGInfo</text>
</a>
</g>
</g>
<!-- Node1&#45;&gt;Node4 -->
<g id="edge6443_Node000001_Node000004" class="edge">
<title>Node1&#45;&gt;Node4</title>
<g id="a_edge6443_Node000001_Node000004"><a xlink:title=" ">
<path fill="none" stroke="#63b8ff" d="M265.98,-430.8C270.78,-486.98 291.87,-640.87 381.5,-718.62 385.18,-721.82 389.3,-724.48 393.68,-726.69"/>
<polygon fill="#63b8ff" stroke="#63b8ff" points="269.49,-430.75 265.25,-421.04 262.51,-431.27 269.49,-430.75"/>
</a>
</g>
</g>
<!-- Node5 -->
<g id="Node000005" class="node">
<title>Node5</title>
<g id="a_Node000005"><a xlink:href="classllvm_1_1ARMSelectionDAGInfo.html" target="_top" xlink:title=" ">
<polygon fill="white" stroke="#666666" points="533.62,-709.25 392.38,-709.25 392.38,-690 533.62,-690 533.62,-709.25"/>
<text xml:space="preserve" text-anchor="middle" x="463" y="-695.75" font-family="Helvetica,sans-Serif" font-size="10.00">llvm::ARMSelectionDAGInfo</text>
</a>
</g>
</g>
<!-- Node1&#45;&gt;Node5 -->
<g id="edge6444_Node000001_Node000005" class="edge">
<title>Node1&#45;&gt;Node5</title>
<g id="a_edge6444_Node000001_Node000005"><a xlink:title=" ">
<path fill="none" stroke="#63b8ff" d="M267.22,-431C274.69,-482.65 301.09,-614.92 381.5,-681.62 385.25,-684.73 389.42,-687.33 393.84,-689.51"/>
<polygon fill="#63b8ff" stroke="#63b8ff" points="270.71,-430.64 265.91,-421.19 263.77,-431.57 270.71,-430.64"/>
</a>
</g>
</g>
<!-- Node6 -->
<g id="Node000006" class="node">
<title>Node6</title>
<g id="a_Node000006"><a xlink:href="classllvm_1_1AVRSelectionDAGInfo.html" target="_top" xlink:title="Holds information about the AVR instruction selection DAG.">
<polygon fill="white" stroke="#666666" points="532.12,-672.25 393.88,-672.25 393.88,-653 532.12,-653 532.12,-672.25"/>
<text xml:space="preserve" text-anchor="middle" x="463" y="-658.75" font-family="Helvetica,sans-Serif" font-size="10.00">llvm::AVRSelectionDAGInfo</text>
</a>
</g>
</g>
<!-- Node1&#45;&gt;Node6 -->
<g id="edge6445_Node000001_Node000006" class="edge">
<title>Node1&#45;&gt;Node6</title>
<g id="a_edge6445_Node000001_Node000006"><a xlink:title=" ">
<path fill="none" stroke="#63b8ff" d="M268.71,-430.59C278.88,-476.95 309.88,-588.5 381.5,-644.62 385.56,-647.8 390.07,-650.45 394.82,-652.64"/>
<polygon fill="#63b8ff" stroke="#63b8ff" points="272.19,-430.13 266.73,-421.05 265.33,-431.56 272.19,-430.13"/>
</a>
</g>
</g>
<!-- Node7 -->
<g id="Node000007" class="node">
<title>Node7</title>
<g id="a_Node000007"><a xlink:href="classllvm_1_1BPFSelectionDAGInfo.html" target="_top" xlink:title=" ">
<polygon fill="white" stroke="#666666" points="532.12,-635.25 393.88,-635.25 393.88,-616 532.12,-616 532.12,-635.25"/>
<text xml:space="preserve" text-anchor="middle" x="463" y="-621.75" font-family="Helvetica,sans-Serif" font-size="10.00">llvm::BPFSelectionDAGInfo</text>
</a>
</g>
</g>
<!-- Node1&#45;&gt;Node7 -->
<g id="edge6446_Node000001_Node000007" class="edge">
<title>Node1&#45;&gt;Node7</title>
<g id="a_edge6446_Node000001_Node000007"><a xlink:title=" ">
<path fill="none" stroke="#63b8ff" d="M270.68,-430.29C283.74,-471.07 318.6,-561.88 381.5,-607.62 385.9,-610.83 390.77,-613.47 395.87,-615.66"/>
<polygon fill="#63b8ff" stroke="#63b8ff" points="274.04,-429.33 267.76,-420.8 267.35,-431.38 274.04,-429.33"/>
</a>
</g>
</g>
<!-- Node8 -->
<g id="Node000008" class="node">
<title>Node8</title>
<g id="a_Node000008"><a xlink:href="classllvm_1_1CSKYSelectionDAGInfo.html" target="_top" xlink:title=" ">
<polygon fill="white" stroke="#666666" points="536.25,-598.25 389.75,-598.25 389.75,-579 536.25,-579 536.25,-598.25"/>
<text xml:space="preserve" text-anchor="middle" x="463" y="-584.75" font-family="Helvetica,sans-Serif" font-size="10.00">llvm::CSKYSelectionDAGInfo</text>
</a>
</g>
</g>
<!-- Node1&#45;&gt;Node8 -->
<g id="edge6447_Node000001_Node000008" class="edge">
<title>Node1&#45;&gt;Node8</title>
<g id="a_edge6447_Node000001_Node000008"><a xlink:title=" ">
<path fill="none" stroke="#63b8ff" d="M273.32,-429.75C289.37,-464.35 327.04,-534.83 381.5,-570.62 386.29,-573.77 391.54,-576.37 397.01,-578.53"/>
<polygon fill="#63b8ff" stroke="#63b8ff" points="276.63,-428.56 269.34,-420.87 270.24,-431.43 276.63,-428.56"/>
</a>
</g>
</g>
<!-- Node9 -->
<g id="Node000009" class="node">
<title>Node9</title>
<g id="a_Node000009"><a xlink:href="classllvm_1_1HexagonSelectionDAGInfo.html" target="_top" xlink:title=" ">
<polygon fill="white" stroke="#666666" points="541.88,-561.25 384.12,-561.25 384.12,-542 541.88,-542 541.88,-561.25"/>
<text xml:space="preserve" text-anchor="middle" x="463" y="-547.75" font-family="Helvetica,sans-Serif" font-size="10.00">llvm::HexagonSelectionDAGInfo</text>
</a>
</g>
</g>
<!-- Node1&#45;&gt;Node9 -->
<g id="edge6448_Node000001_Node000009" class="edge">
<title>Node1&#45;&gt;Node9</title>
<g id="a_edge6448_Node000001_Node000009"><a xlink:title=" ">
<path fill="none" stroke="#63b8ff" d="M277.17,-428.96C296.24,-456.68 335.22,-507.28 381.5,-533.62 387.1,-536.81 393.22,-539.44 399.5,-541.6"/>
<polygon fill="#63b8ff" stroke="#63b8ff" points="280.19,-427.16 271.71,-420.81 274.37,-431.06 280.19,-427.16"/>
</a>
</g>
</g>
<!-- Node10 -->
<g id="Node000010" class="node">
<title>Node10</title>
<g id="a_Node000010"><a xlink:href="classllvm_1_1LanaiSelectionDAGInfo.html" target="_top" xlink:title=" ">
<polygon fill="white" stroke="#666666" points="534,-524.25 392,-524.25 392,-505 534,-505 534,-524.25"/>
<text xml:space="preserve" text-anchor="middle" x="463" y="-510.75" font-family="Helvetica,sans-Serif" font-size="10.00">llvm::LanaiSelectionDAGInfo</text>
</a>
</g>
</g>
<!-- Node1&#45;&gt;Node10 -->
<g id="edge6449_Node000001_Node000010" class="edge">
<title>Node1&#45;&gt;Node10</title>
<g id="a_edge6449_Node000001_Node000010"><a xlink:title=" ">
<path fill="none" stroke="#63b8ff" d="M283.29,-427.14C305.15,-446.7 343.28,-477.96 381.5,-495.62 389.19,-499.18 397.61,-502.11 406.02,-504.5"/>
<polygon fill="#63b8ff" stroke="#63b8ff" points="285.82,-424.71 276.07,-420.56 281.1,-429.88 285.82,-424.71"/>
</a>
</g>
</g>
<!-- Node11 -->
<g id="Node000011" class="node">
<title>Node11</title>
<g id="a_Node000011"><a xlink:href="classllvm_1_1LoongArchSelectionDAGInfo.html" target="_top" xlink:title=" ">
<polygon fill="white" stroke="#666666" points="526.5,-486.88 399.5,-486.88 399.5,-456.38 526.5,-456.38 526.5,-486.88"/>
<text xml:space="preserve" text-anchor="start" x="407.5" y="-473.38" font-family="Helvetica,sans-Serif" font-size="10.00">llvm::LoongArchSelection</text>
<text xml:space="preserve" text-anchor="middle" x="463" y="-462.12" font-family="Helvetica,sans-Serif" font-size="10.00">DAGInfo</text>
</a>
</g>
</g>
<!-- Node1&#45;&gt;Node11 -->
<g id="edge6450_Node000001_Node000011" class="edge">
<title>Node1&#45;&gt;Node11</title>
<g id="a_edge6450_Node000001_Node000011"><a xlink:title=" ">
<path fill="none" stroke="#63b8ff" d="M305.63,-423.23C328.01,-430.59 356.23,-439.75 381.5,-447.62 390.27,-450.36 399.6,-453.2 408.68,-455.93"/>
<polygon fill="#63b8ff" stroke="#63b8ff" points="306.86,-419.95 296.27,-420.15 304.67,-426.6 306.86,-419.95"/>
</a>
</g>
</g>
<!-- Node12 -->
<g id="Node000012" class="node">
<title>Node12</title>
<g id="a_Node000012"><a xlink:href="classllvm_1_1M68kSelectionDAGInfo.html" target="_top" xlink:title=" ">
<polygon fill="white" stroke="#666666" points="534.38,-438.25 391.62,-438.25 391.62,-419 534.38,-419 534.38,-438.25"/>
<text xml:space="preserve" text-anchor="middle" x="463" y="-424.75" font-family="Helvetica,sans-Serif" font-size="10.00">llvm::M68kSelectionDAGInfo</text>
</a>
</g>
</g>
<!-- Node1&#45;&gt;Node12 -->
<g id="edge6451_Node000001_Node000012" class="edge">
<title>Node1&#45;&gt;Node12</title>
<g id="a_edge6451_Node000001_Node000012"><a xlink:title=" ">
<path fill="none" stroke="#63b8ff" d="M357.17,-418.53C368.63,-419.64 380.21,-420.75 391.28,-421.82"/>
<polygon fill="#63b8ff" stroke="#63b8ff" points="357.56,-415.05 347.27,-417.58 356.88,-422.02 357.56,-415.05"/>
</a>
</g>
</g>
<!-- Node13 -->
<g id="Node000013" class="node">
<title>Node13</title>
<g id="a_Node000013"><a xlink:href="classllvm_1_1MSP430SelectionDAGInfo.html" target="_top" xlink:title=" ">
<polygon fill="white" stroke="#666666" points="541.12,-401.25 384.88,-401.25 384.88,-382 541.12,-382 541.12,-401.25"/>
<text xml:space="preserve" text-anchor="middle" x="463" y="-387.75" font-family="Helvetica,sans-Serif" font-size="10.00">llvm::MSP430SelectionDAGInfo</text>
</a>
</g>
</g>
<!-- Node1&#45;&gt;Node13 -->
<g id="edge6452_Node000001_Node000013" class="edge">
<title>Node1&#45;&gt;Node13</title>
<g id="a_edge6452_Node000001_Node000013"><a xlink:title=" ">
<path fill="none" stroke="#63b8ff" d="M357,-401.2C366.26,-400.36 375.59,-399.5 384.68,-398.68"/>
<polygon fill="#63b8ff" stroke="#63b8ff" points="356.91,-397.69 347.27,-402.09 357.54,-404.67 356.91,-397.69"/>
</a>
</g>
</g>
<!-- Node14 -->
<g id="Node000014" class="node">
<title>Node14</title>
<g id="a_Node000014"><a xlink:href="classllvm_1_1MipsSelectionDAGInfo.html" target="_top" xlink:title=" ">
<polygon fill="white" stroke="#666666" points="532.88,-364.25 393.12,-364.25 393.12,-345 532.88,-345 532.88,-364.25"/>
<text xml:space="preserve" text-anchor="middle" x="463" y="-350.75" font-family="Helvetica,sans-Serif" font-size="10.00">llvm::MipsSelectionDAGInfo</text>
</a>
</g>
</g>
<!-- Node1&#45;&gt;Node14 -->
<g id="edge6453_Node000001_Node000014" class="edge">
<title>Node1&#45;&gt;Node14</title>
<g id="a_edge6453_Node000001_Node000014"><a xlink:title=" ">
<path fill="none" stroke="#63b8ff" d="M330.03,-396.65C335.32,-395.13 340.53,-393.45 345.5,-391.62 362.48,-385.38 364.52,-378.88 381.5,-372.62 389.83,-369.56 398.85,-366.92 407.73,-364.68"/>
<polygon fill="#63b8ff" stroke="#63b8ff" points="329.35,-393.21 320.61,-399.19 331.17,-399.97 329.35,-393.21"/>
</a>
</g>
</g>
<!-- Node15 -->
<g id="Node000015" class="node">
<title>Node15</title>
<g id="a_Node000015"><a xlink:href="classllvm_1_1NVPTXSelectionDAGInfo.html" target="_top" xlink:title=" ">
<polygon fill="white" stroke="#666666" points="539.25,-327.25 386.75,-327.25 386.75,-308 539.25,-308 539.25,-327.25"/>
<text xml:space="preserve" text-anchor="middle" x="463" y="-313.75" font-family="Helvetica,sans-Serif" font-size="10.00">llvm::NVPTXSelectionDAGInfo</text>
</a>
</g>
</g>
<!-- Node1&#45;&gt;Node15 -->
<g id="edge6454_Node000001_Node000015" class="edge">
<title>Node1&#45;&gt;Node15</title>
<g id="a_edge6454_Node000001_Node000015"><a xlink:title=" ">
<path fill="none" stroke="#63b8ff" d="M341.17,-394.4C342.65,-393.53 344.1,-392.6 345.5,-391.62 369.76,-374.69 357.24,-352.57 381.5,-335.62 386.08,-332.43 391.13,-329.79 396.41,-327.6"/>
<polygon fill="#63b8ff" stroke="#63b8ff" points="339.68,-391.24 332.29,-398.83 342.8,-397.5 339.68,-391.24"/>
</a>
</g>
</g>
<!-- Node16 -->
<g id="Node000016" class="node">
<title>Node16</title>
<g id="a_Node000016"><a xlink:href="classllvm_1_1PPCSelectionDAGInfo.html" target="_top" xlink:title=" ">
<polygon fill="white" stroke="#666666" points="532.88,-290.25 393.12,-290.25 393.12,-271 532.88,-271 532.88,-290.25"/>
<text xml:space="preserve" text-anchor="middle" x="463" y="-276.75" font-family="Helvetica,sans-Serif" font-size="10.00">llvm::PPCSelectionDAGInfo</text>
</a>
</g>
</g>
<!-- Node1&#45;&gt;Node16 -->
<g id="edge6455_Node000001_Node000016" class="edge">
<title>Node1&#45;&gt;Node16</title>
<g id="a_edge6455_Node000001_Node000016"><a xlink:title=" ">
<path fill="none" stroke="#63b8ff" d="M343.01,-393.64C343.86,-392.99 344.69,-392.32 345.5,-391.62 379.11,-362.73 347.91,-327.54 381.5,-298.62 385.19,-295.45 389.32,-292.8 393.71,-290.59"/>
<polygon fill="#63b8ff" stroke="#63b8ff" points="341.18,-390.65 334.52,-398.89 344.87,-396.61 341.18,-390.65"/>
</a>
</g>
</g>
<!-- Node17 -->
<g id="Node000017" class="node">
<title>Node17</title>
<g id="a_Node000017"><a xlink:href="classllvm_1_1RISCVSelectionDAGInfo.html" target="_top" xlink:title=" ">
<polygon fill="white" stroke="#666666" points="538.12,-253.25 387.88,-253.25 387.88,-234 538.12,-234 538.12,-253.25"/>
<text xml:space="preserve" text-anchor="middle" x="463" y="-239.75" font-family="Helvetica,sans-Serif" font-size="10.00">llvm::RISCVSelectionDAGInfo</text>
</a>
</g>
</g>
<!-- Node1&#45;&gt;Node17 -->
<g id="edge6456_Node000001_Node000017" class="edge">
<title>Node1&#45;&gt;Node17</title>
<g id="a_edge6456_Node000001_Node000017"><a xlink:title=" ">
<path fill="none" stroke="#63b8ff" d="M343.58,-393.35C344.23,-392.8 344.87,-392.22 345.5,-391.62 388.96,-350.33 338.06,-302.94 381.5,-261.62 384.82,-258.47 388.57,-255.82 392.59,-253.6"/>
<polygon fill="#63b8ff" stroke="#63b8ff" points="341.87,-390.28 335.61,-398.82 345.83,-396.05 341.87,-390.28"/>
</a>
</g>
</g>
<!-- Node18 -->
<g id="Node000018" class="node">
<title>Node18</title>
<g id="a_Node000018"><a xlink:href="classllvm_1_1SparcSelectionDAGInfo.html" target="_top" xlink:title=" ">
<polygon fill="white" stroke="#666666" points="535.12,-216.25 390.88,-216.25 390.88,-197 535.12,-197 535.12,-216.25"/>
<text xml:space="preserve" text-anchor="middle" x="463" y="-202.75" font-family="Helvetica,sans-Serif" font-size="10.00">llvm::SparcSelectionDAGInfo</text>
</a>
</g>
</g>
<!-- Node1&#45;&gt;Node18 -->
<g id="edge6457_Node000001_Node000018" class="edge">
<title>Node1&#45;&gt;Node18</title>
<g id="a_edge6457_Node000001_Node000018"><a xlink:title=" ">
<path fill="none" stroke="#63b8ff" d="M344,-393.07C344.51,-392.6 345.01,-392.12 345.5,-391.62 399.01,-337.76 328.02,-278.52 381.5,-224.62 384.63,-221.47 388.18,-218.82 392,-216.59"/>
<polygon fill="#63b8ff" stroke="#63b8ff" points="342.18,-390.07 336.17,-398.79 346.31,-395.72 342.18,-390.07"/>
</a>
</g>
</g>
<!-- Node19 -->
<g id="Node000019" class="node">
<title>Node19</title>
<g id="a_Node000019"><a xlink:href="classllvm_1_1SystemZSelectionDAGInfo.html" target="_top" xlink:title=" ">
<polygon fill="white" stroke="#666666" points="542.25,-179.25 383.75,-179.25 383.75,-160 542.25,-160 542.25,-179.25"/>
<text xml:space="preserve" text-anchor="middle" x="463" y="-165.75" font-family="Helvetica,sans-Serif" font-size="10.00">llvm::SystemZSelectionDAGInfo</text>
</a>
</g>
</g>
<!-- Node1&#45;&gt;Node19 -->
<g id="edge6458_Node000001_Node000019" class="edge">
<title>Node1&#45;&gt;Node19</title>
<g id="a_edge6458_Node000001_Node000019"><a xlink:title=" ">
<path fill="none" stroke="#63b8ff" d="M344.36,-392.77C344.75,-392.4 345.13,-392.01 345.5,-391.62 409.14,-325.1 317.89,-254.18 381.5,-187.62 384.47,-184.52 387.85,-181.89 391.5,-179.68"/>
<polygon fill="#63b8ff" stroke="#63b8ff" points="342.46,-389.82 336.66,-398.68 346.72,-395.37 342.46,-389.82"/>
</a>
</g>
</g>
<!-- Node20 -->
<g id="Node000020" class="node">
<title>Node20</title>
<g id="a_Node000020"><a xlink:href="classllvm_1_1VESelectionDAGInfo.html" target="_top" xlink:title=" ">
<polygon fill="white" stroke="#666666" points="529.12,-142.25 396.88,-142.25 396.88,-123 529.12,-123 529.12,-142.25"/>
<text xml:space="preserve" text-anchor="middle" x="463" y="-128.75" font-family="Helvetica,sans-Serif" font-size="10.00">llvm::VESelectionDAGInfo</text>
</a>
</g>
</g>
<!-- Node1&#45;&gt;Node20 -->
<g id="edge6459_Node000001_Node000020" class="edge">
<title>Node1&#45;&gt;Node20</title>
<g id="a_edge6459_Node000001_Node000020"><a xlink:title=" ">
<path fill="none" stroke="#63b8ff" d="M344.38,-392.79C344.76,-392.41 345.13,-392.02 345.5,-391.62 419.32,-312.39 307.71,-229.9 381.5,-150.62 385.79,-146.01 390.99,-142.45 396.65,-139.72"/>
<polygon fill="#63b8ff" stroke="#63b8ff" points="342.46,-389.84 336.74,-398.76 346.78,-395.35 342.46,-389.84"/>
</a>
</g>
</g>
<!-- Node21 -->
<g id="Node000021" class="node">
<title>Node21</title>
<g id="a_Node000021"><a xlink:href="classllvm_1_1WebAssemblySelectionDAGInfo.html" target="_top" xlink:title=" ">
<polygon fill="white" stroke="#666666" points="534.75,-104.88 391.25,-104.88 391.25,-74.38 534.75,-74.38 534.75,-104.88"/>
<text xml:space="preserve" text-anchor="start" x="399.25" y="-91.38" font-family="Helvetica,sans-Serif" font-size="10.00">llvm::WebAssemblySelection</text>
<text xml:space="preserve" text-anchor="middle" x="463" y="-80.12" font-family="Helvetica,sans-Serif" font-size="10.00">DAGInfo</text>
</a>
</g>
</g>
<!-- Node1&#45;&gt;Node21 -->
<g id="edge6460_Node000001_Node000021" class="edge">
<title>Node1&#45;&gt;Node21</title>
<g id="a_edge6460_Node000001_Node000021"><a xlink:title=" ">
<path fill="none" stroke="#63b8ff" d="M344.7,-392.48C344.97,-392.2 345.24,-391.91 345.5,-391.62 429.53,-299.65 300.77,-208.52 381.5,-113.62 384.24,-110.4 387.39,-107.6 390.83,-105.17"/>
<polygon fill="#63b8ff" stroke="#63b8ff" points="342.73,-389.57 337.16,-398.58 347.14,-395.01 342.73,-389.57"/>
</a>
</g>
</g>
<!-- Node22 -->
<g id="Node000022" class="node">
<title>Node22</title>
<g id="a_Node000022"><a xlink:href="classllvm_1_1XCoreSelectionDAGInfo.html" target="_top" xlink:title=" ">
<polygon fill="white" stroke="#666666" points="536.25,-56.25 389.75,-56.25 389.75,-37 536.25,-37 536.25,-56.25"/>
<text xml:space="preserve" text-anchor="middle" x="463" y="-42.75" font-family="Helvetica,sans-Serif" font-size="10.00">llvm::XCoreSelectionDAGInfo</text>
</a>
</g>
</g>
<!-- Node1&#45;&gt;Node22 -->
<g id="edge6461_Node000001_Node000022" class="edge">
<title>Node1&#45;&gt;Node22</title>
<g id="a_edge6461_Node000001_Node000022"><a xlink:title=" ">
<path fill="none" stroke="#63b8ff" d="M344.71,-392.49C344.97,-392.2 345.24,-391.92 345.5,-391.62 442.81,-283.09 284.89,-174.78 381.5,-65.62 384.64,-62.08 388.31,-59.13 392.32,-56.68"/>
<polygon fill="#63b8ff" stroke="#63b8ff" points="342.73,-389.58 337.22,-398.63 347.17,-394.99 342.73,-389.58"/>
</a>
</g>
</g>
<!-- Node23 -->
<g id="Node000023" class="node">
<title>Node23</title>
<g id="a_Node000023"><a xlink:href="classllvm_1_1XtensaSelectionDAGInfo.html" target="_top" xlink:title=" ">
<polygon fill="white" stroke="#666666" points="537.75,-19.25 388.25,-19.25 388.25,0 537.75,0 537.75,-19.25"/>
<text xml:space="preserve" text-anchor="middle" x="463" y="-5.75" font-family="Helvetica,sans-Serif" font-size="10.00">llvm::XtensaSelectionDAGInfo</text>
</a>
</g>
</g>
<!-- Node1&#45;&gt;Node23 -->
<g id="edge6462_Node000001_Node000023" class="edge">
<title>Node1&#45;&gt;Node23</title>
<g id="a_edge6462_Node000001_Node000023"><a xlink:title=" ">
<path fill="none" stroke="#63b8ff" d="M344.71,-392.49C344.98,-392.21 345.24,-391.92 345.5,-391.62 453.33,-269.96 273.73,-149.34 381.5,-27.62 384.25,-24.52 387.42,-21.88 390.86,-19.65"/>
<polygon fill="#63b8ff" stroke="#63b8ff" points="342.73,-389.59 337.26,-398.66 347.19,-394.98 342.73,-389.59"/>
</a>
</g>
</g>
</g>
</svg>
