<?xml version="1.0" encoding="UTF-8" standalone="no"?>
<!DOCTYPE svg PUBLIC "-//W3C//DTD SVG 1.1//EN"
 "http://www.w3.org/Graphics/SVG/1.1/DTD/svg11.dtd">
<!-- Generated by graphviz version 14.1.3 (20260303.0454)
 -->
<!-- Title: Graphical Class Hierarchy Pages: 1 -->
<svg width="418pt" height="203pt"
 viewBox="0.00 0.00 418.00 203.00" xmlns="http://www.w3.org/2000/svg" xmlns:xlink="http://www.w3.org/1999/xlink">
<g id="graph0" class="graph" transform="scale(1 1) rotate(0) translate(4 199)">
<title>Graphical Class Hierarchy</title>
<!-- Node0 -->
<g id="Node000000" class="node">
<title>Node0</title>
<g id="a_Node000000"><a xlink:title=" ">
<polygon fill="#e0e0e0" stroke="#999999" points="37.75,-131.12 0,-131.12 0,-111.88 37.75,-111.88 37.75,-131.12"/>
<text xml:space="preserve" text-anchor="middle" x="18.88" y="-117.62" font-family="Helvetica,sans-Serif" font-size="10.00">Alloc</text>
</a>
</g>
</g>
<!-- Node1 -->
<g id="Node000001" class="node">
<title>Node1</title>
<g id="a_Node000001"><a xlink:href="classllvm_1_1detail_1_1AllocatorHolder_3_01Alloc_01_6_01_4.html" target="_top" xlink:title=" ">
<polygon fill="white" stroke="#666666" points="209.75,-161.75 73.75,-161.75 73.75,-131.25 209.75,-131.25 209.75,-161.75"/>
<text xml:space="preserve" text-anchor="start" x="81.75" y="-148.25" font-family="Helvetica,sans-Serif" font-size="10.00">llvm::detail::AllocatorHolder</text>
<text xml:space="preserve" text-anchor="middle" x="141.75" y="-137" font-family="Helvetica,sans-Serif" font-size="10.00">&lt; Alloc &amp; &gt;</text>
</a>
</g>
</g>
<!-- Node0&#45;&gt;Node1 -->
<g id="edge6_Node000000_Node000001" class="edge">
<title>Node0&#45;&gt;Node1</title>
<g id="a_edge6_Node000000_Node000001"><a xlink:title=" ">
<path fill="none" stroke="#8b1a1a" d="M49.35,-127.6C56.7,-129.12 64.9,-130.81 73.27,-132.54"/>
<polygon fill="#8b1a1a" stroke="#8b1a1a" points="50.22,-124.2 39.72,-125.6 48.8,-131.06 50.22,-124.2"/>
</a>
</g>
</g>
<!-- Node2 -->
<g id="Node000002" class="node">
<title>Node2</title>
<g id="a_Node000002"><a xlink:href="classllvm_1_1detail_1_1AllocatorHolder.html" target="_top" xlink:title=" ">
<polygon fill="white" stroke="#666666" points="209.75,-112.75 73.75,-112.75 73.75,-82.25 209.75,-82.25 209.75,-112.75"/>
<text xml:space="preserve" text-anchor="start" x="81.75" y="-99.25" font-family="Helvetica,sans-Serif" font-size="10.00">llvm::detail::AllocatorHolder</text>
<text xml:space="preserve" text-anchor="middle" x="141.75" y="-88" font-family="Helvetica,sans-Serif" font-size="10.00">&lt; Alloc &gt;</text>
</a>
</g>
</g>
<!-- Node0&#45;&gt;Node2 -->
<g id="edge7_Node000000_Node000002" class="edge">
<title>Node0&#45;&gt;Node2</title>
<g id="a_edge7_Node000000_Node000002"><a xlink:title=" ">
<path fill="none" stroke="#8b1a1a" d="M49.35,-115.65C56.7,-114.19 64.9,-112.56 73.27,-110.9"/>
<polygon fill="#8b1a1a" stroke="#8b1a1a" points="48.84,-112.18 39.72,-117.56 50.21,-119.05 48.84,-112.18"/>
</a>
</g>
</g>
<!-- Node3 -->
<g id="Node000003" class="node">
<title>Node3</title>
<g id="a_Node000003"><a xlink:href="classllvm_1_1ScopedHashTable.html" target="_top" xlink:title=" ">
<polygon fill="white" stroke="#666666" points="388.88,-195 266.38,-195 266.38,-142 388.88,-142 388.88,-195"/>
<text xml:space="preserve" text-anchor="start" x="274.38" y="-181.5" font-family="Helvetica,sans-Serif" font-size="10.00">llvm::ScopedHashTable</text>
<text xml:space="preserve" text-anchor="start" x="274.38" y="-170.25" font-family="Helvetica,sans-Serif" font-size="10.00">&lt; Value *, LoadValue,</text>
<text xml:space="preserve" text-anchor="start" x="274.38" y="-159" font-family="Helvetica,sans-Serif" font-size="10.00"> DenseMapInfo&lt; Value *</text>
<text xml:space="preserve" text-anchor="middle" x="327.62" y="-147.75" font-family="Helvetica,sans-Serif" font-size="10.00"> &gt;, LoadMapAllocator &gt;</text>
</a>
</g>
</g>
<!-- Node2&#45;&gt;Node3 -->
<g id="edge8_Node000002_Node000003" class="edge">
<title>Node2&#45;&gt;Node3</title>
<g id="a_edge8_Node000002_Node000003"><a xlink:title=" ">
<path fill="none" stroke="#8b1a1a" d="M195.49,-117.08C200.32,-118.9 205.13,-120.73 209.75,-122.5 228.08,-129.52 247.96,-137.3 266.04,-144.42"/>
<polygon fill="#8b1a1a" stroke="#8b1a1a" points="196.98,-113.9 186.38,-113.65 194.51,-120.45 196.98,-113.9"/>
</a>
</g>
</g>
<!-- Node4 -->
<g id="Node000004" class="node">
<title>Node4</title>
<g id="a_Node000004"><a xlink:href="classllvm_1_1ScopedHashTable.html" target="_top" xlink:title=" ">
<polygon fill="white" stroke="#666666" points="409.5,-124 245.75,-124 245.75,-71 409.5,-71 409.5,-124"/>
<text xml:space="preserve" text-anchor="start" x="253.75" y="-110.5" font-family="Helvetica,sans-Serif" font-size="10.00">llvm::ScopedHashTable</text>
<text xml:space="preserve" text-anchor="start" x="253.75" y="-99.25" font-family="Helvetica,sans-Serif" font-size="10.00">&lt; MemoryLocation, unsigned,</text>
<text xml:space="preserve" text-anchor="start" x="253.75" y="-88" font-family="Helvetica,sans-Serif" font-size="10.00"> DenseMapInfo&lt; MemoryLocation</text>
<text xml:space="preserve" text-anchor="middle" x="327.62" y="-76.75" font-family="Helvetica,sans-Serif" font-size="10.00"> &gt;, InvariantMapAllocator &gt;</text>
</a>
</g>
</g>
<!-- Node2&#45;&gt;Node4 -->
<g id="edge9_Node000002_Node000004" class="edge">
<title>Node2&#45;&gt;Node4</title>
<g id="a_edge9_Node000002_Node000004"><a xlink:title=" ">
<path fill="none" stroke="#8b1a1a" d="M221.62,-97.5C229.52,-97.5 237.55,-97.5 245.47,-97.5"/>
<polygon fill="#8b1a1a" stroke="#8b1a1a" points="221.69,-94 211.69,-97.5 221.69,-101 221.69,-94"/>
</a>
</g>
</g>
<!-- Node5 -->
<g id="Node000005" class="node">
<title>Node5</title>
<g id="a_Node000005"><a xlink:href="classllvm_1_1ScopedHashTable.html" target="_top" xlink:title=" ">
<polygon fill="white" stroke="#666666" points="396,-53 259.25,-53 259.25,0 396,0 396,-53"/>
<text xml:space="preserve" text-anchor="start" x="267.25" y="-39.5" font-family="Helvetica,sans-Serif" font-size="10.00">llvm::ScopedHashTable</text>
<text xml:space="preserve" text-anchor="start" x="267.25" y="-28.25" font-family="Helvetica,sans-Serif" font-size="10.00">&lt; GEPValue, Value *,</text>
<text xml:space="preserve" text-anchor="start" x="267.25" y="-17" font-family="Helvetica,sans-Serif" font-size="10.00"> DenseMapInfo&lt; GEPValue</text>
<text xml:space="preserve" text-anchor="middle" x="327.62" y="-5.75" font-family="Helvetica,sans-Serif" font-size="10.00"> &gt;, GEPMapAllocatorTy &gt;</text>
</a>
</g>
</g>
<!-- Node2&#45;&gt;Node5 -->
<g id="edge10_Node000002_Node000005" class="edge">
<title>Node2&#45;&gt;Node5</title>
<g id="a_edge10_Node000002_Node000005"><a xlink:title=" ">
<path fill="none" stroke="#8b1a1a" d="M193.63,-77.85C213.81,-70.06 237.32,-60.99 258.9,-52.65"/>
<polygon fill="#8b1a1a" stroke="#8b1a1a" points="192.58,-74.51 184.51,-81.37 195.1,-81.04 192.58,-74.51"/>
</a>
</g>
</g>
</g>
</svg>
