<?xml version="1.0" encoding="UTF-8" standalone="no"?>
<!DOCTYPE svg PUBLIC "-//W3C//DTD SVG 1.1//EN"
 "http://www.w3.org/Graphics/SVG/1.1/DTD/svg11.dtd">
<!-- Generated by graphviz version 14.1.3 (20260303.0454)
 -->
<!-- Title: Graphical Class Hierarchy Pages: 1 -->
<svg width="786pt" height="115pt"
 viewBox="0.00 0.00 786.00 115.00" xmlns="http://www.w3.org/2000/svg" xmlns:xlink="http://www.w3.org/1999/xlink">
<g id="graph0" class="graph" transform="scale(1 1) rotate(0) translate(4 111.38)">
<title>Graphical Class Hierarchy</title>
<!-- Node0 -->
<g id="Node000000" class="node">
<title>Node0</title>
<g id="a_Node000000"><a xlink:href="classllvm_1_1SmallVectorBase.html" target="_top" xlink:title=" ">
<polygon fill="white" stroke="#666666" points="118.75,-107.38 0,-107.38 0,-54.38 118.75,-54.38 118.75,-107.38"/>
<text xml:space="preserve" text-anchor="start" x="8" y="-93.88" font-family="Helvetica,sans-Serif" font-size="10.00">llvm::SmallVectorBase</text>
<text xml:space="preserve" text-anchor="start" x="8" y="-82.62" font-family="Helvetica,sans-Serif" font-size="10.00">&lt; SmallVectorSizeType</text>
<text xml:space="preserve" text-anchor="start" x="8" y="-71.38" font-family="Helvetica,sans-Serif" font-size="10.00">&lt; std::pair&lt; llvm::mca</text>
<text xml:space="preserve" text-anchor="middle" x="59.38" y="-60.12" font-family="Helvetica,sans-Serif" font-size="10.00">::ReadState *, int &gt; &gt; &gt;</text>
</a>
</g>
</g>
<!-- Node1 -->
<g id="Node000001" class="node">
<title>Node1</title>
<g id="a_Node000001"><a xlink:href="classllvm_1_1SmallVectorTemplateCommon.html" target="_top" xlink:title=" ">
<polygon fill="white" stroke="#666666" points="289.25,-101.75 154.75,-101.75 154.75,-60 289.25,-60 289.25,-101.75"/>
<text xml:space="preserve" text-anchor="start" x="162.75" y="-88.25" font-family="Helvetica,sans-Serif" font-size="10.00">llvm::SmallVectorTemplate</text>
<text xml:space="preserve" text-anchor="start" x="162.75" y="-77" font-family="Helvetica,sans-Serif" font-size="10.00">Common&lt; std::pair&lt; llvm</text>
<text xml:space="preserve" text-anchor="middle" x="222" y="-65.75" font-family="Helvetica,sans-Serif" font-size="10.00">::mca::ReadState *, int &gt; &gt;</text>
</a>
</g>
</g>
<!-- Node0&#45;&gt;Node1 -->
<g id="edge9839_Node000000_Node000001" class="edge">
<title>Node0&#45;&gt;Node1</title>
<g id="a_edge9839_Node000000_Node000001"><a xlink:title=" ">
<path fill="none" stroke="#63b8ff" d="M130.1,-80.88C138.18,-80.88 146.4,-80.88 154.43,-80.88"/>
<polygon fill="#63b8ff" stroke="#63b8ff" points="130.33,-77.38 120.33,-80.88 130.33,-84.38 130.33,-77.38"/>
</a>
</g>
</g>
<!-- Node2 -->
<g id="Node000002" class="node">
<title>Node2</title>
<g id="a_Node000002"><a xlink:href="classllvm_1_1SmallVectorTemplateBase.html" target="_top" xlink:title=" ">
<polygon fill="white" stroke="#666666" points="458.25,-101.75 325.25,-101.75 325.25,-60 458.25,-60 458.25,-101.75"/>
<text xml:space="preserve" text-anchor="start" x="333.25" y="-88.25" font-family="Helvetica,sans-Serif" font-size="10.00">llvm::SmallVectorTemplate</text>
<text xml:space="preserve" text-anchor="start" x="333.25" y="-77" font-family="Helvetica,sans-Serif" font-size="10.00">Base&lt; std::pair&lt; llvm::</text>
<text xml:space="preserve" text-anchor="middle" x="391.75" y="-65.75" font-family="Helvetica,sans-Serif" font-size="10.00">mca::ReadState *, int &gt; &gt;</text>
</a>
</g>
</g>
<!-- Node1&#45;&gt;Node2 -->
<g id="edge9840_Node000001_Node000002" class="edge">
<title>Node1&#45;&gt;Node2</title>
<g id="a_edge9840_Node000001_Node000002"><a xlink:title=" ">
<path fill="none" stroke="#63b8ff" d="M300.68,-80.88C308.79,-80.88 316.97,-80.88 324.93,-80.88"/>
<polygon fill="#63b8ff" stroke="#63b8ff" points="300.81,-77.38 290.81,-80.88 300.81,-84.38 300.81,-77.38"/>
</a>
</g>
</g>
<!-- Node3 -->
<g id="Node000003" class="node">
<title>Node3</title>
<g id="a_Node000003"><a xlink:href="classllvm_1_1SmallVectorImpl.html" target="_top" xlink:title=" ">
<polygon fill="white" stroke="#666666" points="613.75,-101.75 501.75,-101.75 501.75,-60 613.75,-60 613.75,-101.75"/>
<text xml:space="preserve" text-anchor="start" x="509.75" y="-88.25" font-family="Helvetica,sans-Serif" font-size="10.00">llvm::SmallVectorImpl</text>
<text xml:space="preserve" text-anchor="start" x="509.75" y="-77" font-family="Helvetica,sans-Serif" font-size="10.00">&lt; std::pair&lt; llvm::mca</text>
<text xml:space="preserve" text-anchor="middle" x="557.75" y="-65.75" font-family="Helvetica,sans-Serif" font-size="10.00">::ReadState *, int &gt; &gt;</text>
</a>
</g>
</g>
<!-- Node2&#45;&gt;Node3 -->
<g id="edge9841_Node000002_Node000003" class="edge">
<title>Node2&#45;&gt;Node3</title>
<g id="a_edge9841_Node000002_Node000003"><a xlink:title=" ">
<path fill="none" stroke="#63b8ff" d="M469.91,-80.88C480.49,-80.88 491.17,-80.88 501.25,-80.88"/>
<polygon fill="#63b8ff" stroke="#63b8ff" points="470.02,-77.38 460.02,-80.88 470.02,-84.38 470.02,-77.38"/>
</a>
</g>
</g>
<!-- Node4 -->
<g id="Node000004" class="node">
<title>Node4</title>
<g id="a_Node000004"><a xlink:href="classllvm_1_1SmallVector.html" target="_top" xlink:title=" ">
<polygon fill="white" stroke="#666666" points="778.25,-71.75 657.25,-71.75 657.25,-30 778.25,-30 778.25,-71.75"/>
<text xml:space="preserve" text-anchor="start" x="665.25" y="-58.25" font-family="Helvetica,sans-Serif" font-size="10.00">llvm::SmallVector&lt;</text>
<text xml:space="preserve" text-anchor="start" x="665.25" y="-47" font-family="Helvetica,sans-Serif" font-size="10.00"> std::pair&lt; llvm::mca</text>
<text xml:space="preserve" text-anchor="middle" x="717.75" y="-35.75" font-family="Helvetica,sans-Serif" font-size="10.00">::ReadState *, int &gt;, 4 &gt;</text>
</a>
</g>
</g>
<!-- Node3&#45;&gt;Node4 -->
<g id="edge9842_Node000003_Node000004" class="edge">
<title>Node3&#45;&gt;Node4</title>
<g id="a_edge9842_Node000003_Node000004"><a xlink:title=" ">
<path fill="none" stroke="#63b8ff" d="M625.26,-68.25C635.78,-66.25 646.6,-64.2 656.95,-62.23"/>
<polygon fill="#63b8ff" stroke="#63b8ff" points="624.67,-64.8 615.5,-70.1 625.98,-71.67 624.67,-64.8"/>
</a>
</g>
</g>
<!-- Node5 -->
<g id="Node000005" class="node">
<title>Node5</title>
<g id="a_Node000005"><a xlink:href="structllvm_1_1SmallVectorStorage.html" target="_top" xlink:title=" ">
<polygon fill="white" stroke="#666666" points="621.25,-41.75 494.25,-41.75 494.25,0 621.25,0 621.25,-41.75"/>
<text xml:space="preserve" text-anchor="start" x="502.25" y="-28.25" font-family="Helvetica,sans-Serif" font-size="10.00">llvm::SmallVectorStorage</text>
<text xml:space="preserve" text-anchor="start" x="502.25" y="-17" font-family="Helvetica,sans-Serif" font-size="10.00">&lt; std::pair&lt; llvm::mca</text>
<text xml:space="preserve" text-anchor="middle" x="557.75" y="-5.75" font-family="Helvetica,sans-Serif" font-size="10.00">::ReadState *, int &gt;, N &gt;</text>
</a>
</g>
</g>
<!-- Node5&#45;&gt;Node4 -->
<g id="edge9843_Node000005_Node000004" class="edge">
<title>Node5&#45;&gt;Node4</title>
<g id="a_edge9843_Node000005_Node000004"><a xlink:title=" ">
<path fill="none" stroke="#8b1a1a" d="M632.93,-34.96C640.96,-36.48 649.06,-38.02 656.89,-39.51"/>
<polygon fill="#8b1a1a" stroke="#8b1a1a" points="633.61,-31.53 623.14,-33.1 632.31,-38.4 633.61,-31.53"/>
</a>
</g>
</g>
</g>
</svg>
