<?xml version="1.0" encoding="UTF-8" standalone="no"?>
<!DOCTYPE svg PUBLIC "-//W3C//DTD SVG 1.1//EN"
 "http://www.w3.org/Graphics/SVG/1.1/DTD/svg11.dtd">
<!-- Generated by graphviz version 14.1.3 (20260303.0454)
 -->
<!-- Title: Graphical Class Hierarchy Pages: 1 -->
<svg width="930pt" height="115pt"
 viewBox="0.00 0.00 930.00 115.00" xmlns="http://www.w3.org/2000/svg" xmlns:xlink="http://www.w3.org/1999/xlink">
<g id="graph0" class="graph" transform="scale(1 1) rotate(0) translate(4 111.38)">
<title>Graphical Class Hierarchy</title>
<!-- Node0 -->
<g id="Node000000" class="node">
<title>Node0</title>
<g id="a_Node000000"><a xlink:href="classllvm_1_1SmallVectorBase.html" target="_top" xlink:title=" ">
<polygon fill="white" stroke="#666666" points="144.25,-107.38 0,-107.38 0,-54.38 144.25,-54.38 144.25,-107.38"/>
<text xml:space="preserve" text-anchor="start" x="8" y="-93.88" font-family="Helvetica,sans-Serif" font-size="10.00">llvm::SmallVectorBase</text>
<text xml:space="preserve" text-anchor="start" x="8" y="-82.62" font-family="Helvetica,sans-Serif" font-size="10.00">&lt; SmallVectorSizeType</text>
<text xml:space="preserve" text-anchor="start" x="8" y="-71.38" font-family="Helvetica,sans-Serif" font-size="10.00">&lt; llvm::TypedTrackingMDRef</text>
<text xml:space="preserve" text-anchor="middle" x="72.12" y="-60.12" font-family="Helvetica,sans-Serif" font-size="10.00">&lt; MDNode &gt; &gt; &gt;</text>
</a>
</g>
</g>
<!-- Node1 -->
<g id="Node000001" class="node">
<title>Node1</title>
<g id="a_Node000001"><a xlink:href="classllvm_1_1SmallVectorTemplateCommon.html" target="_top" xlink:title=" ">
<polygon fill="white" stroke="#666666" points="364.25,-101.75 180.25,-101.75 180.25,-60 364.25,-60 364.25,-101.75"/>
<text xml:space="preserve" text-anchor="start" x="188.25" y="-88.25" font-family="Helvetica,sans-Serif" font-size="10.00">llvm::SmallVectorTemplate</text>
<text xml:space="preserve" text-anchor="start" x="188.25" y="-77" font-family="Helvetica,sans-Serif" font-size="10.00">Common&lt; llvm::TypedTrackingMDRef</text>
<text xml:space="preserve" text-anchor="middle" x="272.25" y="-65.75" font-family="Helvetica,sans-Serif" font-size="10.00">&lt; MDNode &gt; &gt;</text>
</a>
</g>
</g>
<!-- Node0&#45;&gt;Node1 -->
<g id="edge9200_Node000000_Node000001" class="edge">
<title>Node0&#45;&gt;Node1</title>
<g id="a_edge9200_Node000000_Node000001"><a xlink:title=" ">
<path fill="none" stroke="#63b8ff" d="M156.04,-80.88C163.89,-80.88 171.89,-80.88 179.82,-80.88"/>
<polygon fill="#63b8ff" stroke="#63b8ff" points="156.17,-77.38 146.17,-80.88 156.17,-84.38 156.17,-77.38"/>
</a>
</g>
</g>
<!-- Node2 -->
<g id="Node000002" class="node">
<title>Node2</title>
<g id="a_Node000002"><a xlink:href="classllvm_1_1SmallVectorTemplateBase.html" target="_top" xlink:title=" ">
<polygon fill="white" stroke="#666666" points="567,-101.75 400.25,-101.75 400.25,-60 567,-60 567,-101.75"/>
<text xml:space="preserve" text-anchor="start" x="408.25" y="-88.25" font-family="Helvetica,sans-Serif" font-size="10.00">llvm::SmallVectorTemplate</text>
<text xml:space="preserve" text-anchor="start" x="408.25" y="-77" font-family="Helvetica,sans-Serif" font-size="10.00">Base&lt; llvm::TypedTrackingMDRef</text>
<text xml:space="preserve" text-anchor="middle" x="483.62" y="-65.75" font-family="Helvetica,sans-Serif" font-size="10.00">&lt; MDNode &gt; &gt;</text>
</a>
</g>
</g>
<!-- Node1&#45;&gt;Node2 -->
<g id="edge9201_Node000001_Node000002" class="edge">
<title>Node1&#45;&gt;Node2</title>
<g id="a_edge9201_Node000001_Node000002"><a xlink:title=" ">
<path fill="none" stroke="#63b8ff" d="M375.86,-80.88C383.93,-80.88 392.02,-80.88 399.93,-80.88"/>
<polygon fill="#63b8ff" stroke="#63b8ff" points="375.99,-77.38 365.99,-80.88 375.99,-84.38 375.99,-77.38"/>
</a>
</g>
</g>
<!-- Node3 -->
<g id="Node000003" class="node">
<title>Node3</title>
<g id="a_Node000003"><a xlink:href="classllvm_1_1SmallVectorImpl.html" target="_top" xlink:title=" ">
<polygon fill="white" stroke="#666666" points="747.25,-101.75 603,-101.75 603,-60 747.25,-60 747.25,-101.75"/>
<text xml:space="preserve" text-anchor="start" x="611" y="-88.25" font-family="Helvetica,sans-Serif" font-size="10.00">llvm::SmallVectorImpl</text>
<text xml:space="preserve" text-anchor="start" x="611" y="-77" font-family="Helvetica,sans-Serif" font-size="10.00">&lt; llvm::TypedTrackingMDRef</text>
<text xml:space="preserve" text-anchor="middle" x="675.12" y="-65.75" font-family="Helvetica,sans-Serif" font-size="10.00">&lt; MDNode &gt; &gt;</text>
</a>
</g>
</g>
<!-- Node2&#45;&gt;Node3 -->
<g id="edge9202_Node000002_Node000003" class="edge">
<title>Node2&#45;&gt;Node3</title>
<g id="a_edge9202_Node000002_Node000003"><a xlink:title=" ">
<path fill="none" stroke="#63b8ff" d="M578.81,-80.88C586.86,-80.88 594.91,-80.88 602.73,-80.88"/>
<polygon fill="#63b8ff" stroke="#63b8ff" points="578.98,-77.38 568.98,-80.88 578.98,-84.38 578.98,-77.38"/>
</a>
</g>
</g>
<!-- Node4 -->
<g id="Node000004" class="node">
<title>Node4</title>
<g id="a_Node000004"><a xlink:href="classllvm_1_1SmallVector.html" target="_top" xlink:title=" ">
<polygon fill="white" stroke="#666666" points="921.5,-71.75 783.25,-71.75 783.25,-30 921.5,-30 921.5,-71.75"/>
<text xml:space="preserve" text-anchor="start" x="791.25" y="-58.25" font-family="Helvetica,sans-Serif" font-size="10.00">llvm::SmallVector&lt;</text>
<text xml:space="preserve" text-anchor="start" x="791.25" y="-47" font-family="Helvetica,sans-Serif" font-size="10.00"> llvm::TypedTrackingMDRef</text>
<text xml:space="preserve" text-anchor="middle" x="852.38" y="-35.75" font-family="Helvetica,sans-Serif" font-size="10.00">&lt; MDNode &gt;, 4 &gt;</text>
</a>
</g>
</g>
<!-- Node3&#45;&gt;Node4 -->
<g id="edge9203_Node000003_Node000004" class="edge">
<title>Node3&#45;&gt;Node4</title>
<g id="a_edge9203_Node000003_Node000004"><a xlink:title=" ">
<path fill="none" stroke="#63b8ff" d="M758.94,-66.7C766.96,-65.33 775.04,-63.94 782.9,-62.6"/>
<polygon fill="#63b8ff" stroke="#63b8ff" points="758.42,-63.24 749.15,-68.37 759.6,-70.14 758.42,-63.24"/>
</a>
</g>
</g>
<!-- Node5 -->
<g id="Node000005" class="node">
<title>Node5</title>
<g id="a_Node000005"><a xlink:href="structllvm_1_1SmallVectorStorage.html" target="_top" xlink:title=" ">
<polygon fill="white" stroke="#666666" points="747.25,-41.75 603,-41.75 603,0 747.25,0 747.25,-41.75"/>
<text xml:space="preserve" text-anchor="start" x="611" y="-28.25" font-family="Helvetica,sans-Serif" font-size="10.00">llvm::SmallVectorStorage</text>
<text xml:space="preserve" text-anchor="start" x="611" y="-17" font-family="Helvetica,sans-Serif" font-size="10.00">&lt; llvm::TypedTrackingMDRef</text>
<text xml:space="preserve" text-anchor="middle" x="675.12" y="-5.75" font-family="Helvetica,sans-Serif" font-size="10.00">&lt; MDNode &gt;, N &gt;</text>
</a>
</g>
</g>
<!-- Node5&#45;&gt;Node4 -->
<g id="edge9204_Node000005_Node000004" class="edge">
<title>Node5&#45;&gt;Node4</title>
<g id="a_edge9204_Node000005_Node000004"><a xlink:title=" ">
<path fill="none" stroke="#8b1a1a" d="M758.94,-35.05C766.96,-36.42 775.04,-37.81 782.9,-39.15"/>
<polygon fill="#8b1a1a" stroke="#8b1a1a" points="759.6,-31.61 749.15,-33.38 758.42,-38.51 759.6,-31.61"/>
</a>
</g>
</g>
</g>
</svg>
