<?xml version="1.0" encoding="UTF-8" standalone="no"?>
<!DOCTYPE svg PUBLIC "-//W3C//DTD SVG 1.1//EN"
 "http://www.w3.org/Graphics/SVG/1.1/DTD/svg11.dtd">
<!-- Generated by graphviz version 14.1.3 (20260303.0454)
 -->
<!-- Title: Graphical Class Hierarchy Pages: 1 -->
<svg width="937pt" height="115pt"
 viewBox="0.00 0.00 937.00 115.00" xmlns="http://www.w3.org/2000/svg" xmlns:xlink="http://www.w3.org/1999/xlink">
<g id="graph0" class="graph" transform="scale(1 1) rotate(0) translate(4 111.38)">
<title>Graphical Class Hierarchy</title>
<!-- Node0 -->
<g id="Node000000" class="node">
<title>Node0</title>
<g id="a_Node000000"><a xlink:href="classllvm_1_1SmallVectorBase.html" target="_top" xlink:title=" ">
<polygon fill="white" stroke="#666666" points="145.75,-107.38 0,-107.38 0,-54.38 145.75,-54.38 145.75,-107.38"/>
<text xml:space="preserve" text-anchor="start" x="8" y="-93.88" font-family="Helvetica,sans-Serif" font-size="10.00">llvm::SmallVectorBase</text>
<text xml:space="preserve" text-anchor="start" x="8" y="-82.62" font-family="Helvetica,sans-Serif" font-size="10.00">&lt; SmallVectorSizeType</text>
<text xml:space="preserve" text-anchor="start" x="8" y="-71.38" font-family="Helvetica,sans-Serif" font-size="10.00">&lt; llvm::DWARFDebugNames</text>
<text xml:space="preserve" text-anchor="middle" x="72.88" y="-60.12" font-family="Helvetica,sans-Serif" font-size="10.00">::NameIndex &gt; &gt;</text>
</a>
</g>
</g>
<!-- Node1 -->
<g id="Node000001" class="node">
<title>Node1</title>
<g id="a_Node000001"><a xlink:href="classllvm_1_1SmallVectorTemplateCommon.html" target="_top" xlink:title=" ">
<polygon fill="white" stroke="#666666" points="367.25,-101.75 181.75,-101.75 181.75,-60 367.25,-60 367.25,-101.75"/>
<text xml:space="preserve" text-anchor="start" x="189.75" y="-88.25" font-family="Helvetica,sans-Serif" font-size="10.00">llvm::SmallVectorTemplate</text>
<text xml:space="preserve" text-anchor="start" x="189.75" y="-77" font-family="Helvetica,sans-Serif" font-size="10.00">Common&lt; llvm::DWARFDebugNames</text>
<text xml:space="preserve" text-anchor="middle" x="274.5" y="-65.75" font-family="Helvetica,sans-Serif" font-size="10.00">::NameIndex &gt;</text>
</a>
</g>
</g>
<!-- Node0&#45;&gt;Node1 -->
<g id="edge8543_Node000000_Node000001" class="edge">
<title>Node0&#45;&gt;Node1</title>
<g id="a_edge8543_Node000000_Node000001"><a xlink:title=" ">
<path fill="none" stroke="#63b8ff" d="M157.57,-80.88C165.4,-80.88 173.36,-80.88 181.26,-80.88"/>
<polygon fill="#63b8ff" stroke="#63b8ff" points="157.74,-77.38 147.74,-80.88 157.74,-84.38 157.74,-77.38"/>
</a>
</g>
</g>
<!-- Node2 -->
<g id="Node000002" class="node">
<title>Node2</title>
<g id="a_Node000002"><a xlink:href="classllvm_1_1SmallVectorTemplateBase.html" target="_top" xlink:title=" ">
<polygon fill="white" stroke="#666666" points="571.5,-101.75 403.25,-101.75 403.25,-60 571.5,-60 571.5,-101.75"/>
<text xml:space="preserve" text-anchor="start" x="411.25" y="-88.25" font-family="Helvetica,sans-Serif" font-size="10.00">llvm::SmallVectorTemplate</text>
<text xml:space="preserve" text-anchor="start" x="411.25" y="-77" font-family="Helvetica,sans-Serif" font-size="10.00">Base&lt; llvm::DWARFDebugNames</text>
<text xml:space="preserve" text-anchor="middle" x="487.38" y="-65.75" font-family="Helvetica,sans-Serif" font-size="10.00">::NameIndex &gt;</text>
</a>
</g>
</g>
<!-- Node1&#45;&gt;Node2 -->
<g id="edge8544_Node000001_Node000002" class="edge">
<title>Node1&#45;&gt;Node2</title>
<g id="a_edge8544_Node000001_Node000002"><a xlink:title=" ">
<path fill="none" stroke="#63b8ff" d="M379.02,-80.88C387.06,-80.88 395.12,-80.88 403,-80.88"/>
<polygon fill="#63b8ff" stroke="#63b8ff" points="379.2,-77.38 369.2,-80.88 379.2,-84.38 379.2,-77.38"/>
</a>
</g>
</g>
<!-- Node3 -->
<g id="Node000003" class="node">
<title>Node3</title>
<g id="a_Node000003"><a xlink:href="classllvm_1_1SmallVectorImpl.html" target="_top" xlink:title=" ">
<polygon fill="white" stroke="#666666" points="753.25,-101.75 607.5,-101.75 607.5,-60 753.25,-60 753.25,-101.75"/>
<text xml:space="preserve" text-anchor="start" x="615.5" y="-88.25" font-family="Helvetica,sans-Serif" font-size="10.00">llvm::SmallVectorImpl</text>
<text xml:space="preserve" text-anchor="start" x="615.5" y="-77" font-family="Helvetica,sans-Serif" font-size="10.00">&lt; llvm::DWARFDebugNames</text>
<text xml:space="preserve" text-anchor="middle" x="680.38" y="-65.75" font-family="Helvetica,sans-Serif" font-size="10.00">::NameIndex &gt;</text>
</a>
</g>
</g>
<!-- Node2&#45;&gt;Node3 -->
<g id="edge8545_Node000002_Node000003" class="edge">
<title>Node2&#45;&gt;Node3</title>
<g id="a_edge8545_Node000002_Node000003"><a xlink:title=" ">
<path fill="none" stroke="#63b8ff" d="M583.21,-80.88C591.25,-80.88 599.29,-80.88 607.12,-80.88"/>
<polygon fill="#63b8ff" stroke="#63b8ff" points="583.39,-77.38 573.39,-80.88 583.39,-84.38 583.39,-77.38"/>
</a>
</g>
</g>
<!-- Node4 -->
<g id="Node000004" class="node">
<title>Node4</title>
<g id="a_Node000004"><a xlink:href="classllvm_1_1SmallVector.html" target="_top" xlink:title=" ">
<polygon fill="white" stroke="#666666" points="929,-71.75 789.25,-71.75 789.25,-30 929,-30 929,-71.75"/>
<text xml:space="preserve" text-anchor="start" x="797.25" y="-58.25" font-family="Helvetica,sans-Serif" font-size="10.00">llvm::SmallVector&lt;</text>
<text xml:space="preserve" text-anchor="start" x="797.25" y="-47" font-family="Helvetica,sans-Serif" font-size="10.00"> llvm::DWARFDebugNames</text>
<text xml:space="preserve" text-anchor="middle" x="859.12" y="-35.75" font-family="Helvetica,sans-Serif" font-size="10.00">::NameIndex, 0 &gt;</text>
</a>
</g>
</g>
<!-- Node3&#45;&gt;Node4 -->
<g id="edge8546_Node000003_Node000004" class="edge">
<title>Node3&#45;&gt;Node4</title>
<g id="a_edge8546_Node000003_Node000004"><a xlink:title=" ">
<path fill="none" stroke="#63b8ff" d="M764.8,-66.71C772.83,-65.35 780.91,-63.98 788.78,-62.65"/>
<polygon fill="#63b8ff" stroke="#63b8ff" points="764.29,-63.25 755.01,-68.38 765.46,-70.15 764.29,-63.25"/>
</a>
</g>
</g>
<!-- Node5 -->
<g id="Node000005" class="node">
<title>Node5</title>
<g id="a_Node000005"><a xlink:href="structllvm_1_1SmallVectorStorage.html" target="_top" xlink:title=" ">
<polygon fill="white" stroke="#666666" points="753.25,-41.75 607.5,-41.75 607.5,0 753.25,0 753.25,-41.75"/>
<text xml:space="preserve" text-anchor="start" x="615.5" y="-28.25" font-family="Helvetica,sans-Serif" font-size="10.00">llvm::SmallVectorStorage</text>
<text xml:space="preserve" text-anchor="start" x="615.5" y="-17" font-family="Helvetica,sans-Serif" font-size="10.00">&lt; llvm::DWARFDebugNames</text>
<text xml:space="preserve" text-anchor="middle" x="680.38" y="-5.75" font-family="Helvetica,sans-Serif" font-size="10.00">::NameIndex, N &gt;</text>
</a>
</g>
</g>
<!-- Node5&#45;&gt;Node4 -->
<g id="edge8547_Node000005_Node000004" class="edge">
<title>Node5&#45;&gt;Node4</title>
<g id="a_edge8547_Node000005_Node000004"><a xlink:title=" ">
<path fill="none" stroke="#8b1a1a" d="M764.8,-35.04C772.83,-36.4 780.91,-37.77 788.78,-39.1"/>
<polygon fill="#8b1a1a" stroke="#8b1a1a" points="765.46,-31.6 755.01,-33.37 764.29,-38.5 765.46,-31.6"/>
</a>
</g>
</g>
</g>
</svg>
