<?xml version="1.0" encoding="UTF-8" standalone="no"?>
<!DOCTYPE svg PUBLIC "-//W3C//DTD SVG 1.1//EN"
 "http://www.w3.org/Graphics/SVG/1.1/DTD/svg11.dtd">
<!-- Generated by graphviz version 14.1.3 (20260303.0454)
 -->
<!-- Title: Graphical Class Hierarchy Pages: 1 -->
<svg width="282pt" height="697pt"
 viewBox="0.00 0.00 282.00 697.00" xmlns="http://www.w3.org/2000/svg" xmlns:xlink="http://www.w3.org/1999/xlink">
<g id="graph0" class="graph" transform="scale(1 1) rotate(0) translate(4 692.5)">
<title>Graphical Class Hierarchy</title>
<!-- Node0 -->
<g id="Node000000" class="node">
<title>Node0</title>
<g id="a_Node000000"><a xlink:href="classllvm_1_1SetVector.html" target="_top" xlink:title="A vector that has set insertion semantics.">
<polygon fill="white" stroke="#666666" points="100,-369.5 0,-369.5 0,-339 100,-339 100,-369.5"/>
<text xml:space="preserve" text-anchor="start" x="8" y="-356" font-family="Helvetica,sans-Serif" font-size="10.00">llvm::SetVector&lt; T,</text>
<text xml:space="preserve" text-anchor="middle" x="50" y="-344.75" font-family="Helvetica,sans-Serif" font-size="10.00"> Vector, Set, N &gt;</text>
</a>
</g>
</g>
<!-- Node1 -->
<g id="Node000001" class="node">
<title>Node1</title>
<g id="a_Node000001"><a xlink:href="classllvm_1_1SmallSetVector.html" target="_top" xlink:title=" ">
<polygon fill="white" stroke="#666666" points="259.25,-688.5 151,-688.5 151,-658 259.25,-658 259.25,-688.5"/>
<text xml:space="preserve" text-anchor="start" x="159" y="-675" font-family="Helvetica,sans-Serif" font-size="10.00">llvm::SmallSetVector</text>
<text xml:space="preserve" text-anchor="middle" x="205.12" y="-663.75" font-family="Helvetica,sans-Serif" font-size="10.00">&lt; Value *, 4 &gt;</text>
</a>
</g>
</g>
<!-- Node0&#45;&gt;Node1 -->
<g id="edge6483_Node000000_Node000001" class="edge">
<title>Node0&#45;&gt;Node1</title>
<g id="a_edge6483_Node000000_Node000001"><a xlink:title=" ">
<path fill="none" stroke="#63b8ff" d="M51.07,-380.86C52.65,-437.54 64.28,-571.3 136,-648.25 140.21,-652.77 145.3,-656.47 150.79,-659.5"/>
<polygon fill="#63b8ff" stroke="#63b8ff" points="54.57,-381.12 50.89,-371.19 47.57,-381.25 54.57,-381.12"/>
</a>
</g>
</g>
<!-- Node2 -->
<g id="Node000002" class="node">
<title>Node2</title>
<g id="a_Node000002"><a xlink:href="classllvm_1_1SmallSetVector.html" target="_top" xlink:title=" ">
<polygon fill="white" stroke="#666666" points="259.25,-639.5 151,-639.5 151,-609 259.25,-609 259.25,-639.5"/>
<text xml:space="preserve" text-anchor="start" x="159" y="-626" font-family="Helvetica,sans-Serif" font-size="10.00">llvm::SmallSetVector</text>
<text xml:space="preserve" text-anchor="middle" x="205.12" y="-614.75" font-family="Helvetica,sans-Serif" font-size="10.00">&lt; const Value *, 4 &gt;</text>
</a>
</g>
</g>
<!-- Node0&#45;&gt;Node2 -->
<g id="edge6484_Node000000_Node000002" class="edge">
<title>Node0&#45;&gt;Node2</title>
<g id="a_edge6484_Node000000_Node000002"><a xlink:title=" ">
<path fill="none" stroke="#63b8ff" d="M52.94,-381.16C57.94,-430.88 75.5,-537.67 136,-599.25 140.24,-603.56 145.28,-607.14 150.68,-610.1"/>
<polygon fill="#63b8ff" stroke="#63b8ff" points="56.44,-380.97 52.06,-371.32 49.47,-381.59 56.44,-380.97"/>
</a>
</g>
</g>
<!-- Node3 -->
<g id="Node000003" class="node">
<title>Node3</title>
<g id="a_Node000003"><a xlink:href="classllvm_1_1SmallSetVector.html" target="_top" xlink:title=" ">
<polygon fill="white" stroke="#666666" points="261.88,-590.5 148.38,-590.5 148.38,-560 261.88,-560 261.88,-590.5"/>
<text xml:space="preserve" text-anchor="start" x="156.38" y="-577" font-family="Helvetica,sans-Serif" font-size="10.00">llvm::SmallSetVector</text>
<text xml:space="preserve" text-anchor="middle" x="205.12" y="-565.75" font-family="Helvetica,sans-Serif" font-size="10.00">&lt; MachineInstr *, 32 &gt;</text>
</a>
</g>
</g>
<!-- Node0&#45;&gt;Node3 -->
<g id="edge6485_Node000000_Node000003" class="edge">
<title>Node0&#45;&gt;Node3</title>
<g id="a_edge6485_Node000000_Node000003"><a xlink:title=" ">
<path fill="none" stroke="#63b8ff" d="M55.63,-381.02C64.21,-422.77 86.42,-503.44 136,-550.25 139.85,-553.88 144.27,-557 148.97,-559.66"/>
<polygon fill="#63b8ff" stroke="#63b8ff" points="59.1,-380.51 53.77,-371.35 52.23,-381.84 59.1,-380.51"/>
</a>
</g>
</g>
<!-- Node4 -->
<g id="Node000004" class="node">
<title>Node4</title>
<g id="a_Node000004"><a xlink:href="classllvm_1_1SmallSetVector.html" target="_top" xlink:title=" ">
<polygon fill="white" stroke="#666666" points="259.25,-541.5 151,-541.5 151,-511 259.25,-511 259.25,-541.5"/>
<text xml:space="preserve" text-anchor="start" x="159" y="-528" font-family="Helvetica,sans-Serif" font-size="10.00">llvm::SmallSetVector</text>
<text xml:space="preserve" text-anchor="middle" x="205.12" y="-516.75" font-family="Helvetica,sans-Serif" font-size="10.00">&lt; LiveInterval *, 8 &gt;</text>
</a>
</g>
</g>
<!-- Node0&#45;&gt;Node4 -->
<g id="edge6486_Node000000_Node000004" class="edge">
<title>Node0&#45;&gt;Node4</title>
<g id="a_edge6486_Node000000_Node000004"><a xlink:title=" ">
<path fill="none" stroke="#63b8ff" d="M59.78,-380.44C71.97,-413.06 97.04,-468.5 136,-501.25 140.44,-504.98 145.48,-508.18 150.76,-510.91"/>
<polygon fill="#63b8ff" stroke="#63b8ff" points="63.19,-379.57 56.51,-371.35 56.6,-381.94 63.19,-379.57"/>
</a>
</g>
</g>
<!-- Node5 -->
<g id="Node000005" class="node">
<title>Node5</title>
<g id="a_Node000005"><a xlink:href="classllvm_1_1SmallSetVector.html" target="_top" xlink:title=" ">
<polygon fill="white" stroke="#666666" points="259.25,-492.5 151,-492.5 151,-462 259.25,-462 259.25,-492.5"/>
<text xml:space="preserve" text-anchor="start" x="159" y="-479" font-family="Helvetica,sans-Serif" font-size="10.00">llvm::SmallSetVector</text>
<text xml:space="preserve" text-anchor="middle" x="205.12" y="-467.75" font-family="Helvetica,sans-Serif" font-size="10.00">&lt; SUnit *, 8 &gt;</text>
</a>
</g>
</g>
<!-- Node0&#45;&gt;Node5 -->
<g id="edge6487_Node000000_Node000005" class="edge">
<title>Node0&#45;&gt;Node5</title>
<g id="a_edge6487_Node000000_Node000005"><a xlink:title=" ">
<path fill="none" stroke="#63b8ff" d="M67.03,-378.99C82.38,-400.94 107.39,-432.51 136,-452.25 141.08,-455.76 146.71,-458.84 152.5,-461.52"/>
<polygon fill="#63b8ff" stroke="#63b8ff" points="70.05,-377.21 61.53,-370.91 64.26,-381.15 70.05,-377.21"/>
</a>
</g>
</g>
<!-- Node6 -->
<g id="Node000006" class="node">
<title>Node6</title>
<g id="a_Node000006"><a xlink:href="classllvm_1_1SmallSetVector.html" target="_top" xlink:title=" ">
<polygon fill="white" stroke="#666666" points="263,-443.5 147.25,-443.5 147.25,-413 263,-413 263,-443.5"/>
<text xml:space="preserve" text-anchor="start" x="155.25" y="-430" font-family="Helvetica,sans-Serif" font-size="10.00">llvm::SmallSetVector</text>
<text xml:space="preserve" text-anchor="middle" x="205.12" y="-418.75" font-family="Helvetica,sans-Serif" font-size="10.00">&lt; const Record *, 16 &gt;</text>
</a>
</g>
</g>
<!-- Node0&#45;&gt;Node6 -->
<g id="edge6488_Node000000_Node000006" class="edge">
<title>Node0&#45;&gt;Node6</title>
<g id="a_edge6488_Node000000_Node000006"><a xlink:title=" ">
<path fill="none" stroke="#63b8ff" d="M85.2,-375.76C100.43,-384.86 118.79,-395.2 136,-403.25 143.08,-406.56 150.72,-409.73 158.24,-412.64"/>
<polygon fill="#63b8ff" stroke="#63b8ff" points="87.35,-372.97 76.98,-370.77 83.72,-378.95 87.35,-372.97"/>
</a>
</g>
</g>
<!-- Node7 -->
<g id="Node000007" class="node">
<title>Node7</title>
<g id="a_Node000007"><a xlink:href="classllvm_1_1SmallSetVector.html" target="_top" xlink:title=" ">
<polygon fill="white" stroke="#666666" points="269.38,-394.5 140.88,-394.5 140.88,-364 269.38,-364 269.38,-394.5"/>
<text xml:space="preserve" text-anchor="start" x="148.88" y="-381" font-family="Helvetica,sans-Serif" font-size="10.00">llvm::SmallSetVector</text>
<text xml:space="preserve" text-anchor="middle" x="205.12" y="-369.75" font-family="Helvetica,sans-Serif" font-size="10.00">&lt; const BasicBlock *, 4 &gt;</text>
</a>
</g>
</g>
<!-- Node0&#45;&gt;Node7 -->
<g id="edge6489_Node000000_Node000007" class="edge">
<title>Node0&#45;&gt;Node7</title>
<g id="a_edge6489_Node000000_Node000007"><a xlink:title=" ">
<path fill="none" stroke="#63b8ff" d="M111.38,-364.11C120.99,-365.68 130.97,-367.31 140.65,-368.89"/>
<polygon fill="#63b8ff" stroke="#63b8ff" points="112.22,-360.7 101.79,-362.54 111.09,-367.61 112.22,-360.7"/>
</a>
</g>
</g>
<!-- Node8 -->
<g id="Node000008" class="node">
<title>Node8</title>
<g id="a_Node000008"><a xlink:href="classllvm_1_1SmallSetVector.html" target="_top" xlink:title=" ">
<polygon fill="white" stroke="#666666" points="259.25,-345.5 151,-345.5 151,-315 259.25,-315 259.25,-345.5"/>
<text xml:space="preserve" text-anchor="start" x="159" y="-332" font-family="Helvetica,sans-Serif" font-size="10.00">llvm::SmallSetVector</text>
<text xml:space="preserve" text-anchor="middle" x="205.12" y="-320.75" font-family="Helvetica,sans-Serif" font-size="10.00">&lt; DepTy, 2 &gt;</text>
</a>
</g>
</g>
<!-- Node0&#45;&gt;Node8 -->
<g id="edge6490_Node000000_Node000008" class="edge">
<title>Node0&#45;&gt;Node8</title>
<g id="a_edge6490_Node000000_Node000008"><a xlink:title=" ">
<path fill="none" stroke="#63b8ff" d="M111.47,-344.77C124.43,-342.74 138.02,-340.61 150.69,-338.63"/>
<polygon fill="#63b8ff" stroke="#63b8ff" points="111.13,-341.28 101.79,-346.29 112.21,-348.2 111.13,-341.28"/>
</a>
</g>
</g>
<!-- Node9 -->
<g id="Node000009" class="node">
<title>Node9</title>
<g id="a_Node000009"><a xlink:href="classllvm_1_1SmallSetVector.html" target="_top" xlink:title=" ">
<polygon fill="white" stroke="#666666" points="259.25,-296.5 151,-296.5 151,-266 259.25,-266 259.25,-296.5"/>
<text xml:space="preserve" text-anchor="start" x="159" y="-283" font-family="Helvetica,sans-Serif" font-size="10.00">llvm::SmallSetVector</text>
<text xml:space="preserve" text-anchor="middle" x="205.12" y="-271.75" font-family="Helvetica,sans-Serif" font-size="10.00">&lt; MemberTy, 8 &gt;</text>
</a>
</g>
</g>
<!-- Node0&#45;&gt;Node9 -->
<g id="edge6491_Node000000_Node000009" class="edge">
<title>Node0&#45;&gt;Node9</title>
<g id="a_edge6491_Node000000_Node000009"><a xlink:title=" ">
<path fill="none" stroke="#63b8ff" d="M85.59,-333.03C100.76,-324.17 118.96,-314.12 136,-306.25 143.09,-302.97 150.74,-299.82 158.27,-296.92"/>
<polygon fill="#63b8ff" stroke="#63b8ff" points="84.22,-329.77 77.4,-337.88 87.79,-335.79 84.22,-329.77"/>
</a>
</g>
</g>
<!-- Node10 -->
<g id="Node000010" class="node">
<title>Node10</title>
<g id="a_Node000010"><a xlink:href="classllvm_1_1SmallSetVector.html" target="_top" xlink:title=" ">
<polygon fill="white" stroke="#666666" points="259.25,-247.5 151,-247.5 151,-217 259.25,-217 259.25,-247.5"/>
<text xml:space="preserve" text-anchor="start" x="159" y="-234" font-family="Helvetica,sans-Serif" font-size="10.00">llvm::SmallSetVector</text>
<text xml:space="preserve" text-anchor="middle" x="205.12" y="-222.75" font-family="Helvetica,sans-Serif" font-size="10.00">&lt; Instruction *, 8 &gt;</text>
</a>
</g>
</g>
<!-- Node0&#45;&gt;Node10 -->
<g id="edge6492_Node000000_Node000010" class="edge">
<title>Node0&#45;&gt;Node10</title>
<g id="a_edge6492_Node000000_Node000010"><a xlink:title=" ">
<path fill="none" stroke="#63b8ff" d="M67.34,-329.4C82.75,-307.7 107.66,-276.7 136,-257.25 141.19,-253.69 146.96,-250.56 152.87,-247.84"/>
<polygon fill="#63b8ff" stroke="#63b8ff" points="64.62,-327.18 61.81,-337.4 70.38,-331.16 64.62,-327.18"/>
</a>
</g>
</g>
<!-- Node11 -->
<g id="Node000011" class="node">
<title>Node11</title>
<g id="a_Node000011"><a xlink:href="classllvm_1_1SmallSetVector.html" target="_top" xlink:title=" ">
<polygon fill="white" stroke="#666666" points="259.25,-198.5 151,-198.5 151,-168 259.25,-168 259.25,-198.5"/>
<text xml:space="preserve" text-anchor="start" x="159" y="-185" font-family="Helvetica,sans-Serif" font-size="10.00">llvm::SmallSetVector</text>
<text xml:space="preserve" text-anchor="middle" x="205.12" y="-173.75" font-family="Helvetica,sans-Serif" font-size="10.00">&lt; int, 8 &gt;</text>
</a>
</g>
</g>
<!-- Node0&#45;&gt;Node11 -->
<g id="edge6493_Node000000_Node000011" class="edge">
<title>Node0&#45;&gt;Node11</title>
<g id="a_edge6493_Node000000_Node000011"><a xlink:title=" ">
<path fill="none" stroke="#63b8ff" d="M59.82,-328.24C72.07,-295.84 97.19,-240.78 136,-208.25 140.44,-204.53 145.49,-201.33 150.77,-198.6"/>
<polygon fill="#63b8ff" stroke="#63b8ff" points="56.67,-326.67 56.54,-337.26 63.25,-329.06 56.67,-326.67"/>
</a>
</g>
</g>
<!-- Node12 -->
<g id="Node000012" class="node">
<title>Node12</title>
<g id="a_Node000012"><a xlink:href="classllvm_1_1SmallSetVector.html" target="_top" xlink:title=" ">
<polygon fill="white" stroke="#666666" points="274.25,-150.12 136,-150.12 136,-108.38 274.25,-108.38 274.25,-150.12"/>
<text xml:space="preserve" text-anchor="start" x="144" y="-136.62" font-family="Helvetica,sans-Serif" font-size="10.00">llvm::SmallSetVector</text>
<text xml:space="preserve" text-anchor="start" x="144" y="-125.38" font-family="Helvetica,sans-Serif" font-size="10.00">&lt; const MachineBasicBlock</text>
<text xml:space="preserve" text-anchor="middle" x="205.12" y="-114.12" font-family="Helvetica,sans-Serif" font-size="10.00"> *, 16 &gt;</text>
</a>
</g>
</g>
<!-- Node0&#45;&gt;Node12 -->
<g id="edge6494_Node000000_Node000012" class="edge">
<title>Node0&#45;&gt;Node12</title>
<g id="a_edge6494_Node000000_Node000012"><a xlink:title=" ">
<path fill="none" stroke="#63b8ff" d="M56.16,-327.41C65.36,-286.2 88.3,-207.13 136,-159.25 139.19,-156.05 142.79,-153.16 146.61,-150.56"/>
<polygon fill="#63b8ff" stroke="#63b8ff" points="52.73,-326.68 54.09,-337.19 59.58,-328.13 52.73,-326.68"/>
</a>
</g>
</g>
<!-- Node13 -->
<g id="Node000013" class="node">
<title>Node13</title>
<g id="a_Node000013"><a xlink:href="classllvm_1_1SmallSetVector.html" target="_top" xlink:title=" ">
<polygon fill="white" stroke="#666666" points="259.25,-90.12 151,-90.12 151,-48.38 259.25,-48.38 259.25,-90.12"/>
<text xml:space="preserve" text-anchor="start" x="159" y="-76.62" font-family="Helvetica,sans-Serif" font-size="10.00">llvm::SmallSetVector</text>
<text xml:space="preserve" text-anchor="start" x="159" y="-65.38" font-family="Helvetica,sans-Serif" font-size="10.00">&lt; const LiveInterval</text>
<text xml:space="preserve" text-anchor="middle" x="205.12" y="-54.12" font-family="Helvetica,sans-Serif" font-size="10.00"> *, 4 &gt;</text>
</a>
</g>
</g>
<!-- Node0&#45;&gt;Node13 -->
<g id="edge6495_Node000000_Node000013" class="edge">
<title>Node0&#45;&gt;Node13</title>
<g id="a_edge6495_Node000000_Node000013"><a xlink:title=" ">
<path fill="none" stroke="#63b8ff" d="M52.92,-327.32C57.9,-276.52 75.47,-165.7 136,-99.25 140.18,-94.66 145.18,-90.74 150.56,-87.4"/>
<polygon fill="#63b8ff" stroke="#63b8ff" points="49.45,-326.82 52.06,-337.09 56.42,-327.44 49.45,-326.82"/>
</a>
</g>
</g>
<!-- Node14 -->
<g id="Node000014" class="node">
<title>Node14</title>
<g id="a_Node000014"><a xlink:href="classllvm_1_1SmallSetVector.html" target="_top" xlink:title=" ">
<polygon fill="white" stroke="#666666" points="259.25,-30.5 151,-30.5 151,0 259.25,0 259.25,-30.5"/>
<text xml:space="preserve" text-anchor="start" x="159" y="-17" font-family="Helvetica,sans-Serif" font-size="10.00">llvm::SmallSetVector</text>
<text xml:space="preserve" text-anchor="middle" x="205.12" y="-5.75" font-family="Helvetica,sans-Serif" font-size="10.00">&lt; Register, 8 &gt;</text>
</a>
</g>
</g>
<!-- Node0&#45;&gt;Node14 -->
<g id="edge6496_Node000000_Node000014" class="edge">
<title>Node0&#45;&gt;Node14</title>
<g id="a_edge6496_Node000000_Node000014"><a xlink:title=" ">
<path fill="none" stroke="#63b8ff" d="M50.36,-327.36C50.43,-267.54 59.04,-122.22 136,-39.25 140.18,-34.75 145.25,-31.09 150.73,-28.11"/>
<polygon fill="#63b8ff" stroke="#63b8ff" points="46.86,-327.29 50.44,-337.26 53.86,-327.23 46.86,-327.29"/>
</a>
</g>
</g>
</g>
</svg>
