<?xml version="1.0" encoding="UTF-8" standalone="no"?>
<!DOCTYPE svg PUBLIC "-//W3C//DTD SVG 1.1//EN"
 "http://www.w3.org/Graphics/SVG/1.1/DTD/svg11.dtd">
<!-- Generated by graphviz version 14.1.3 (20260303.0454)
 -->
<!-- Title: Graphical Class Hierarchy Pages: 1 -->
<svg width="312pt" height="248pt"
 viewBox="0.00 0.00 312.00 248.00" xmlns="http://www.w3.org/2000/svg" xmlns:xlink="http://www.w3.org/1999/xlink">
<g id="graph0" class="graph" transform="scale(1 1) rotate(0) translate(4 244.25)">
<title>Graphical Class Hierarchy</title>
<!-- Node0 -->
<g id="Node000000" class="node">
<title>Node0</title>
<g id="a_Node000000"><a xlink:href="classllvm_1_1GCNSchedStage.html" target="_top" xlink:title=" ">
<polygon fill="white" stroke="#666666" points="115.75,-123.25 0,-123.25 0,-104 115.75,-104 115.75,-123.25"/>
<text xml:space="preserve" text-anchor="middle" x="57.88" y="-109.75" font-family="Helvetica,sans-Serif" font-size="10.00">llvm::GCNSchedStage</text>
</a>
</g>
</g>
<!-- Node1 -->
<g id="Node000001" class="node">
<title>Node1</title>
<g id="a_Node000001"><a xlink:href="classllvm_1_1ClusteredLowOccStage.html" target="_top" xlink:title=" ">
<polygon fill="white" stroke="#666666" points="299.75,-240.25 156.25,-240.25 156.25,-221 299.75,-221 299.75,-240.25"/>
<text xml:space="preserve" text-anchor="middle" x="228" y="-226.75" font-family="Helvetica,sans-Serif" font-size="10.00">llvm::ClusteredLowOccStage</text>
</a>
</g>
</g>
<!-- Node0&#45;&gt;Node1 -->
<g id="edge3544_Node000000_Node000001" class="edge">
<title>Node0&#45;&gt;Node1</title>
<g id="a_edge3544_Node000000_Node000001"><a xlink:title=" ">
<path fill="none" stroke="#63b8ff" d="M71.89,-132.91C88,-155.27 117.55,-191.59 151.75,-211.62 157.91,-215.23 164.75,-218.16 171.72,-220.54"/>
<polygon fill="#63b8ff" stroke="#63b8ff" points="74.93,-131.16 66.33,-124.97 69.2,-135.17 74.93,-131.16"/>
</a>
</g>
</g>
<!-- Node2 -->
<g id="Node000002" class="node">
<title>Node2</title>
<g id="a_Node000002"><a xlink:href="classllvm_1_1ILPInitialScheduleStage.html" target="_top" xlink:title=" ">
<polygon fill="white" stroke="#666666" points="287.38,-202.88 168.62,-202.88 168.62,-172.38 287.38,-172.38 287.38,-202.88"/>
<text xml:space="preserve" text-anchor="start" x="176.62" y="-189.38" font-family="Helvetica,sans-Serif" font-size="10.00">llvm::ILPInitialSchedule</text>
<text xml:space="preserve" text-anchor="middle" x="228" y="-178.12" font-family="Helvetica,sans-Serif" font-size="10.00">Stage</text>
</a>
</g>
</g>
<!-- Node0&#45;&gt;Node2 -->
<g id="edge3545_Node000000_Node000002" class="edge">
<title>Node0&#45;&gt;Node2</title>
<g id="a_edge3545_Node000000_Node000002"><a xlink:title=" ">
<path fill="none" stroke="#63b8ff" d="M85.83,-129.36C104.06,-139.63 128.9,-152.88 151.75,-162.62 159.47,-165.92 167.79,-169.06 175.98,-171.94"/>
<polygon fill="#63b8ff" stroke="#63b8ff" points="87.65,-126.37 77.23,-124.46 84.19,-132.45 87.65,-126.37"/>
</a>
</g>
</g>
<!-- Node3 -->
<g id="Node000003" class="node">
<title>Node3</title>
<g id="a_Node000003"><a xlink:href="classllvm_1_1MemoryClauseInitialScheduleStage.html" target="_top" xlink:title=" ">
<polygon fill="white" stroke="#666666" points="292.62,-153.88 163.38,-153.88 163.38,-123.38 292.62,-123.38 292.62,-153.88"/>
<text xml:space="preserve" text-anchor="start" x="171.38" y="-140.38" font-family="Helvetica,sans-Serif" font-size="10.00">llvm::MemoryClauseInitial</text>
<text xml:space="preserve" text-anchor="middle" x="228" y="-129.12" font-family="Helvetica,sans-Serif" font-size="10.00">ScheduleStage</text>
</a>
</g>
</g>
<!-- Node0&#45;&gt;Node3 -->
<g id="edge3546_Node000000_Node000003" class="edge">
<title>Node0&#45;&gt;Node3</title>
<g id="a_edge3546_Node000000_Node000003"><a xlink:title=" ">
<path fill="none" stroke="#63b8ff" d="M127,-123.75C138.86,-125.52 151.16,-127.35 162.91,-129.09"/>
<polygon fill="#63b8ff" stroke="#63b8ff" points="127.7,-120.32 117.29,-122.31 126.67,-127.24 127.7,-120.32"/>
</a>
</g>
</g>
<!-- Node4 -->
<g id="Node000004" class="node">
<title>Node4</title>
<g id="a_Node000004"><a xlink:href="classllvm_1_1OccInitialScheduleStage.html" target="_top" xlink:title=" ">
<polygon fill="white" stroke="#666666" points="288.88,-104.88 167.12,-104.88 167.12,-74.38 288.88,-74.38 288.88,-104.88"/>
<text xml:space="preserve" text-anchor="start" x="175.12" y="-91.38" font-family="Helvetica,sans-Serif" font-size="10.00">llvm::OccInitialSchedule</text>
<text xml:space="preserve" text-anchor="middle" x="228" y="-80.12" font-family="Helvetica,sans-Serif" font-size="10.00">Stage</text>
</a>
</g>
</g>
<!-- Node0&#45;&gt;Node4 -->
<g id="edge3547_Node000000_Node000004" class="edge">
<title>Node0&#45;&gt;Node4</title>
<g id="a_edge3547_Node000000_Node000004"><a xlink:title=" ">
<path fill="none" stroke="#63b8ff" d="M127.14,-103.88C140.23,-102.01 153.86,-100.07 166.69,-98.23"/>
<polygon fill="#63b8ff" stroke="#63b8ff" points="126.7,-100.41 117.29,-105.29 127.69,-107.34 126.7,-100.41"/>
</a>
</g>
</g>
<!-- Node5 -->
<g id="Node000005" class="node">
<title>Node5</title>
<g id="a_Node000005"><a xlink:href="classllvm_1_1PreRARematStage.html" target="_top" xlink:title="Attempts to reduce function spilling or, if there is no spilling, to increase function occupancy by o...">
<polygon fill="white" stroke="#666666" points="290,-56.25 166,-56.25 166,-37 290,-37 290,-56.25"/>
<text xml:space="preserve" text-anchor="middle" x="228" y="-42.75" font-family="Helvetica,sans-Serif" font-size="10.00">llvm::PreRARematStage</text>
</a>
</g>
</g>
<!-- Node0&#45;&gt;Node5 -->
<g id="edge3548_Node000000_Node000005" class="edge">
<title>Node0&#45;&gt;Node5</title>
<g id="a_edge3548_Node000000_Node000005"><a xlink:title=" ">
<path fill="none" stroke="#63b8ff" d="M85.31,-97.88C103.5,-87.58 128.48,-74.44 151.75,-65.62 160.7,-62.24 170.47,-59.26 179.92,-56.74"/>
<polygon fill="#63b8ff" stroke="#63b8ff" points="83.68,-94.79 76.76,-102.81 87.18,-100.85 83.68,-94.79"/>
</a>
</g>
</g>
<!-- Node6 -->
<g id="Node000006" class="node">
<title>Node6</title>
<g id="a_Node000006"><a xlink:href="classllvm_1_1UnclusteredHighRPStage.html" target="_top" xlink:title=" ">
<polygon fill="white" stroke="#666666" points="304.25,-19.25 151.75,-19.25 151.75,0 304.25,0 304.25,-19.25"/>
<text xml:space="preserve" text-anchor="middle" x="228" y="-5.75" font-family="Helvetica,sans-Serif" font-size="10.00">llvm::UnclusteredHighRPStage</text>
</a>
</g>
</g>
<!-- Node0&#45;&gt;Node6 -->
<g id="edge3549_Node000000_Node000006" class="edge">
<title>Node0&#45;&gt;Node6</title>
<g id="a_edge3549_Node000000_Node000006"><a xlink:title=" ">
<path fill="none" stroke="#63b8ff" d="M73.88,-94.92C90.74,-75.18 119.94,-44.63 151.75,-27.62 157.67,-24.46 164.15,-21.84 170.75,-19.68"/>
<polygon fill="#63b8ff" stroke="#63b8ff" points="71.31,-92.54 67.61,-102.47 76.69,-97.02 71.31,-92.54"/>
</a>
</g>
</g>
</g>
</svg>
