<?xml version="1.0" encoding="UTF-8" standalone="no"?>
<!DOCTYPE svg PUBLIC "-//W3C//DTD SVG 1.1//EN"
 "http://www.w3.org/Graphics/SVG/1.1/DTD/svg11.dtd">
<!-- Generated by graphviz version 14.1.3 (20260303.0454)
 -->
<!-- Title: Graphical Class Hierarchy Pages: 1 -->
<svg width="821pt" height="93pt"
 viewBox="0.00 0.00 821.00 93.00" xmlns="http://www.w3.org/2000/svg" xmlns:xlink="http://www.w3.org/1999/xlink">
<g id="graph0" class="graph" transform="scale(1 1) rotate(0) translate(4 89.12)">
<title>Graphical Class Hierarchy</title>
<!-- Node0 -->
<g id="Node000000" class="node">
<title>Node0</title>
<g id="a_Node000000"><a xlink:href="classllvm_1_1SmallVectorBase.html" target="_top" xlink:title=" ">
<polygon fill="white" stroke="#666666" points="124.75,-85.12 0,-85.12 0,-43.38 124.75,-43.38 124.75,-85.12"/>
<text xml:space="preserve" text-anchor="start" x="8" y="-71.62" font-family="Helvetica,sans-Serif" font-size="10.00">llvm::SmallVectorBase</text>
<text xml:space="preserve" text-anchor="start" x="8" y="-60.38" font-family="Helvetica,sans-Serif" font-size="10.00">&lt; SmallVectorSizeType</text>
<text xml:space="preserve" text-anchor="middle" x="62.38" y="-49.12" font-family="Helvetica,sans-Serif" font-size="10.00">&lt; llvm::MCDwarfFile &gt; &gt;</text>
</a>
</g>
</g>
<!-- Node1 -->
<g id="Node000001" class="node">
<title>Node1</title>
<g id="a_Node000001"><a xlink:href="classllvm_1_1SmallVectorTemplateCommon.html" target="_top" xlink:title=" ">
<polygon fill="white" stroke="#666666" points="316.25,-79.5 160.75,-79.5 160.75,-49 316.25,-49 316.25,-79.5"/>
<text xml:space="preserve" text-anchor="start" x="168.75" y="-66" font-family="Helvetica,sans-Serif" font-size="10.00">llvm::SmallVectorTemplate</text>
<text xml:space="preserve" text-anchor="middle" x="238.5" y="-54.75" font-family="Helvetica,sans-Serif" font-size="10.00">Common&lt; llvm::MCDwarfFile &gt;</text>
</a>
</g>
</g>
<!-- Node0&#45;&gt;Node1 -->
<g id="edge8823_Node000000_Node000001" class="edge">
<title>Node0&#45;&gt;Node1</title>
<g id="a_edge8823_Node000000_Node000001"><a xlink:title=" ">
<path fill="none" stroke="#63b8ff" d="M136.04,-64.25C144.12,-64.25 152.37,-64.25 160.49,-64.25"/>
<polygon fill="#63b8ff" stroke="#63b8ff" points="136.28,-60.75 126.28,-64.25 136.28,-67.75 136.28,-60.75"/>
</a>
</g>
</g>
<!-- Node2 -->
<g id="Node000002" class="node">
<title>Node2</title>
<g id="a_Node000002"><a xlink:href="classllvm_1_1SmallVectorTemplateBase.html" target="_top" xlink:title=" ">
<polygon fill="white" stroke="#666666" points="490.5,-79.5 352.25,-79.5 352.25,-49 490.5,-49 490.5,-79.5"/>
<text xml:space="preserve" text-anchor="start" x="360.25" y="-66" font-family="Helvetica,sans-Serif" font-size="10.00">llvm::SmallVectorTemplate</text>
<text xml:space="preserve" text-anchor="middle" x="421.38" y="-54.75" font-family="Helvetica,sans-Serif" font-size="10.00">Base&lt; llvm::MCDwarfFile &gt;</text>
</a>
</g>
</g>
<!-- Node1&#45;&gt;Node2 -->
<g id="edge8824_Node000001_Node000002" class="edge">
<title>Node1&#45;&gt;Node2</title>
<g id="a_edge8824_Node000001_Node000002"><a xlink:title=" ">
<path fill="none" stroke="#63b8ff" d="M328.05,-64.25C336.09,-64.25 344.15,-64.25 351.97,-64.25"/>
<polygon fill="#63b8ff" stroke="#63b8ff" points="328.25,-60.75 318.25,-64.25 328.25,-67.75 328.25,-60.75"/>
</a>
</g>
</g>
<!-- Node3 -->
<g id="Node000003" class="node">
<title>Node3</title>
<g id="a_Node000003"><a xlink:href="classllvm_1_1SmallVectorImpl.html" target="_top" xlink:title=" ">
<polygon fill="white" stroke="#666666" points="649,-79.5 533.25,-79.5 533.25,-49 649,-49 649,-79.5"/>
<text xml:space="preserve" text-anchor="start" x="541.25" y="-66" font-family="Helvetica,sans-Serif" font-size="10.00">llvm::SmallVectorImpl</text>
<text xml:space="preserve" text-anchor="middle" x="591.12" y="-54.75" font-family="Helvetica,sans-Serif" font-size="10.00">&lt; llvm::MCDwarfFile &gt;</text>
</a>
</g>
</g>
<!-- Node2&#45;&gt;Node3 -->
<g id="edge8825_Node000002_Node000003" class="edge">
<title>Node2&#45;&gt;Node3</title>
<g id="a_edge8825_Node000002_Node000003"><a xlink:title=" ">
<path fill="none" stroke="#63b8ff" d="M501.91,-64.25C512.38,-64.25 522.95,-64.25 532.95,-64.25"/>
<polygon fill="#63b8ff" stroke="#63b8ff" points="502.12,-60.75 492.12,-64.25 502.12,-67.75 502.12,-60.75"/>
</a>
</g>
</g>
<!-- Node4 -->
<g id="Node000004" class="node">
<title>Node4</title>
<g id="a_Node000004"><a xlink:href="classllvm_1_1SmallVector.html" target="_top" xlink:title=" ">
<polygon fill="white" stroke="#666666" points="812.75,-54.5 691.75,-54.5 691.75,-24 812.75,-24 812.75,-54.5"/>
<text xml:space="preserve" text-anchor="start" x="699.75" y="-41" font-family="Helvetica,sans-Serif" font-size="10.00">llvm::SmallVector&lt;</text>
<text xml:space="preserve" text-anchor="middle" x="752.25" y="-29.75" font-family="Helvetica,sans-Serif" font-size="10.00"> llvm::MCDwarfFile, 3 &gt;</text>
</a>
</g>
</g>
<!-- Node3&#45;&gt;Node4 -->
<g id="edge8826_Node000003_Node000004" class="edge">
<title>Node3&#45;&gt;Node4</title>
<g id="a_edge8826_Node000003_Node000004"><a xlink:title=" ">
<path fill="none" stroke="#63b8ff" d="M660.24,-53.55C670.61,-51.92 681.25,-50.25 691.43,-48.65"/>
<polygon fill="#63b8ff" stroke="#63b8ff" points="659.95,-50.05 650.62,-55.06 661.04,-56.97 659.95,-50.05"/>
</a>
</g>
</g>
<!-- Node5 -->
<g id="Node000005" class="node">
<title>Node5</title>
<g id="a_Node000005"><a xlink:href="structllvm_1_1SmallVectorStorage.html" target="_top" xlink:title=" ">
<polygon fill="white" stroke="#666666" points="655.75,-30.5 526.5,-30.5 526.5,0 655.75,0 655.75,-30.5"/>
<text xml:space="preserve" text-anchor="start" x="534.5" y="-17" font-family="Helvetica,sans-Serif" font-size="10.00">llvm::SmallVectorStorage</text>
<text xml:space="preserve" text-anchor="middle" x="591.12" y="-5.75" font-family="Helvetica,sans-Serif" font-size="10.00">&lt; llvm::MCDwarfFile, N &gt;</text>
</a>
</g>
</g>
<!-- Node5&#45;&gt;Node4 -->
<g id="edge8827_Node000005_Node000004" class="edge">
<title>Node5&#45;&gt;Node4</title>
<g id="a_edge8827_Node000005_Node000004"><a xlink:title=" ">
<path fill="none" stroke="#8b1a1a" d="M667.26,-26.58C675.32,-27.8 683.45,-29.02 691.3,-30.21"/>
<polygon fill="#8b1a1a" stroke="#8b1a1a" points="667.84,-23.13 657.43,-25.1 666.79,-30.05 667.84,-23.13"/>
</a>
</g>
</g>
</g>
</svg>
