<?xml version="1.0" encoding="UTF-8" standalone="no"?>
<!DOCTYPE svg PUBLIC "-//W3C//DTD SVG 1.1//EN"
 "http://www.w3.org/Graphics/SVG/1.1/DTD/svg11.dtd">
<!-- Generated by graphviz version 14.1.3 (20260303.0454)
 -->
<!-- Title: Graphical Class Hierarchy Pages: 1 -->
<svg width="971pt" height="104pt"
 viewBox="0.00 0.00 971.00 104.00" xmlns="http://www.w3.org/2000/svg" xmlns:xlink="http://www.w3.org/1999/xlink">
<g id="graph0" class="graph" transform="scale(1 1) rotate(0) translate(4 99.75)">
<title>Graphical Class Hierarchy</title>
<!-- Node0 -->
<g id="Node000000" class="node">
<title>Node0</title>
<g id="a_Node000000"><a xlink:href="classllvm_1_1SmallVectorBase.html" target="_top" xlink:title=" ">
<polygon fill="white" stroke="#666666" points="164.5,-95.75 0,-95.75 0,-42.75 164.5,-42.75 164.5,-95.75"/>
<text xml:space="preserve" text-anchor="start" x="8" y="-82.25" font-family="Helvetica,sans-Serif" font-size="10.00">llvm::SmallVectorBase</text>
<text xml:space="preserve" text-anchor="start" x="8" y="-71" font-family="Helvetica,sans-Serif" font-size="10.00">&lt; SmallVectorSizeType</text>
<text xml:space="preserve" text-anchor="start" x="8" y="-59.75" font-family="Helvetica,sans-Serif" font-size="10.00">&lt; DWARFLinkerBase::AccelTable</text>
<text xml:space="preserve" text-anchor="middle" x="82.25" y="-48.5" font-family="Helvetica,sans-Serif" font-size="10.00">Kind &gt; &gt;</text>
</a>
</g>
</g>
<!-- Node1 -->
<g id="Node000001" class="node">
<title>Node1</title>
<g id="a_Node000001"><a xlink:href="classllvm_1_1SmallVectorTemplateCommon.html" target="_top" xlink:title=" ">
<polygon fill="white" stroke="#666666" points="350.75,-90.12 200.5,-90.12 200.5,-48.38 350.75,-48.38 350.75,-90.12"/>
<text xml:space="preserve" text-anchor="start" x="208.5" y="-76.62" font-family="Helvetica,sans-Serif" font-size="10.00">llvm::SmallVectorTemplate</text>
<text xml:space="preserve" text-anchor="start" x="208.5" y="-65.38" font-family="Helvetica,sans-Serif" font-size="10.00">Common&lt; DWARFLinkerBase</text>
<text xml:space="preserve" text-anchor="middle" x="275.62" y="-54.12" font-family="Helvetica,sans-Serif" font-size="10.00">::AccelTableKind &gt;</text>
</a>
</g>
</g>
<!-- Node0&#45;&gt;Node1 -->
<g id="edge8064_Node000000_Node000001" class="edge">
<title>Node0&#45;&gt;Node1</title>
<g id="a_edge8064_Node000000_Node000001"><a xlink:title=" ">
<path fill="none" stroke="#63b8ff" d="M176.26,-69.25C184.27,-69.25 192.31,-69.25 200.15,-69.25"/>
<polygon fill="#63b8ff" stroke="#63b8ff" points="176.48,-65.75 166.48,-69.25 176.48,-72.75 176.48,-65.75"/>
</a>
</g>
</g>
<!-- Node2 -->
<g id="Node000002" class="node">
<title>Node2</title>
<g id="a_Node000002"><a xlink:href="classllvm_1_1SmallVectorTemplateBase.html" target="_top" xlink:title=" ">
<polygon fill="white" stroke="#666666" points="525.75,-90.12 386.75,-90.12 386.75,-48.38 525.75,-48.38 525.75,-90.12"/>
<text xml:space="preserve" text-anchor="start" x="394.75" y="-76.62" font-family="Helvetica,sans-Serif" font-size="10.00">llvm::SmallVectorTemplate</text>
<text xml:space="preserve" text-anchor="start" x="394.75" y="-65.38" font-family="Helvetica,sans-Serif" font-size="10.00">Base&lt; DWARFLinkerBase::</text>
<text xml:space="preserve" text-anchor="middle" x="456.25" y="-54.12" font-family="Helvetica,sans-Serif" font-size="10.00">AccelTableKind &gt;</text>
</a>
</g>
</g>
<!-- Node1&#45;&gt;Node2 -->
<g id="edge8065_Node000001_Node000002" class="edge">
<title>Node1&#45;&gt;Node2</title>
<g id="a_edge8065_Node000001_Node000002"><a xlink:title=" ">
<path fill="none" stroke="#63b8ff" d="M362.39,-69.25C370.42,-69.25 378.49,-69.25 386.34,-69.25"/>
<polygon fill="#63b8ff" stroke="#63b8ff" points="362.6,-65.75 352.6,-69.25 362.6,-72.75 362.6,-65.75"/>
</a>
</g>
</g>
<!-- Node3 -->
<g id="Node000003" class="node">
<title>Node3</title>
<g id="a_Node000003"><a xlink:href="classllvm_1_1SmallVectorImpl.html" target="_top" xlink:title=" ">
<polygon fill="white" stroke="#666666" points="747.25,-90.12 582.75,-90.12 582.75,-48.38 747.25,-48.38 747.25,-90.12"/>
<text xml:space="preserve" text-anchor="start" x="590.75" y="-76.62" font-family="Helvetica,sans-Serif" font-size="10.00">llvm::SmallVectorImpl</text>
<text xml:space="preserve" text-anchor="start" x="590.75" y="-65.38" font-family="Helvetica,sans-Serif" font-size="10.00">&lt; DWARFLinkerBase::AccelTable</text>
<text xml:space="preserve" text-anchor="middle" x="665" y="-54.12" font-family="Helvetica,sans-Serif" font-size="10.00">Kind &gt;</text>
</a>
</g>
</g>
<!-- Node2&#45;&gt;Node3 -->
<g id="edge8066_Node000002_Node000003" class="edge">
<title>Node2&#45;&gt;Node3</title>
<g id="a_edge8066_Node000002_Node000003"><a xlink:title=" ">
<path fill="none" stroke="#63b8ff" d="M537.29,-69.25C552.14,-69.25 567.66,-69.25 582.55,-69.25"/>
<polygon fill="#63b8ff" stroke="#63b8ff" points="537.61,-65.75 527.61,-69.25 537.61,-72.75 537.61,-65.75"/>
</a>
</g>
</g>
<!-- Node4 -->
<g id="Node000004" class="node">
<title>Node4</title>
<g id="a_Node000004"><a xlink:href="classllvm_1_1SmallVector.html" target="_top" xlink:title=" ">
<polygon fill="white" stroke="#666666" points="962.75,-63.12 804.25,-63.12 804.25,-21.38 962.75,-21.38 962.75,-63.12"/>
<text xml:space="preserve" text-anchor="start" x="812.25" y="-49.62" font-family="Helvetica,sans-Serif" font-size="10.00">llvm::SmallVector&lt;</text>
<text xml:space="preserve" text-anchor="start" x="812.25" y="-38.38" font-family="Helvetica,sans-Serif" font-size="10.00"> DWARFLinkerBase::AccelTable</text>
<text xml:space="preserve" text-anchor="middle" x="883.5" y="-27.12" font-family="Helvetica,sans-Serif" font-size="10.00">Kind, 1 &gt;</text>
</a>
</g>
</g>
<!-- Node3&#45;&gt;Node4 -->
<g id="edge8067_Node000003_Node000004" class="edge">
<title>Node3&#45;&gt;Node4</title>
<g id="a_edge8067_Node000003_Node000004"><a xlink:title=" ">
<path fill="none" stroke="#63b8ff" d="M758.91,-57.66C773.9,-55.79 789.29,-53.87 803.9,-52.05"/>
<polygon fill="#63b8ff" stroke="#63b8ff" points="758.53,-54.18 749.04,-58.89 759.4,-61.13 758.53,-54.18"/>
</a>
</g>
</g>
<!-- Node5 -->
<g id="Node000005" class="node">
<title>Node5</title>
<g id="a_Node000005"><a xlink:href="structllvm_1_1SmallVectorStorage.html" target="_top" xlink:title=" ">
<polygon fill="white" stroke="#666666" points="768.25,-30.5 561.75,-30.5 561.75,0 768.25,0 768.25,-30.5"/>
<text xml:space="preserve" text-anchor="start" x="569.75" y="-17" font-family="Helvetica,sans-Serif" font-size="10.00">llvm::SmallVectorStorage</text>
<text xml:space="preserve" text-anchor="middle" x="665" y="-5.75" font-family="Helvetica,sans-Serif" font-size="10.00">&lt; DWARFLinkerBase::AccelTableKind, N &gt;</text>
</a>
</g>
</g>
<!-- Node5&#45;&gt;Node4 -->
<g id="edge8068_Node000005_Node000004" class="edge">
<title>Node5&#45;&gt;Node4</title>
<g id="a_edge8068_Node000005_Node000004"><a xlink:title=" ">
<path fill="none" stroke="#8b1a1a" d="M779.72,-29.43C787.91,-30.45 796.06,-31.47 803.98,-32.46"/>
<polygon fill="#8b1a1a" stroke="#8b1a1a" points="780.4,-25.99 770.05,-28.23 779.54,-32.94 780.4,-25.99"/>
</a>
</g>
</g>
</g>
</svg>
