<?xml version="1.0" encoding="UTF-8" standalone="no"?>
<!DOCTYPE svg PUBLIC "-//W3C//DTD SVG 1.1//EN"
 "http://www.w3.org/Graphics/SVG/1.1/DTD/svg11.dtd">
<!-- Generated by graphviz version 14.1.3 (20260303.0454)
 -->
<!-- Title: Graphical Class Hierarchy Pages: 1 -->
<svg width="888pt" height="126pt"
 viewBox="0.00 0.00 888.00 126.00" xmlns="http://www.w3.org/2000/svg" xmlns:xlink="http://www.w3.org/1999/xlink">
<g id="graph0" class="graph" transform="scale(1 1) rotate(0) translate(4 122)">
<title>Graphical Class Hierarchy</title>
<!-- Node0 -->
<g id="Node000000" class="node">
<title>Node0</title>
<g id="a_Node000000"><a xlink:href="classllvm_1_1SmallVectorBase.html" target="_top" xlink:title=" ">
<polygon fill="white" stroke="#666666" points="140.5,-118 0,-118 0,-76.25 140.5,-76.25 140.5,-118"/>
<text xml:space="preserve" text-anchor="start" x="8" y="-104.5" font-family="Helvetica,sans-Serif" font-size="10.00">llvm::SmallVectorBase</text>
<text xml:space="preserve" text-anchor="start" x="8" y="-93.25" font-family="Helvetica,sans-Serif" font-size="10.00">&lt; SmallVectorSizeType</text>
<text xml:space="preserve" text-anchor="middle" x="70.25" y="-82" font-family="Helvetica,sans-Serif" font-size="10.00">&lt; llvm::SmallString&lt; 0 &gt; &gt; &gt;</text>
</a>
</g>
</g>
<!-- Node1 -->
<g id="Node000001" class="node">
<title>Node1</title>
<g id="a_Node000001"><a xlink:href="classllvm_1_1SmallVectorTemplateCommon.html" target="_top" xlink:title=" ">
<polygon fill="white" stroke="#666666" points="347.75,-112.38 176.5,-112.38 176.5,-81.88 347.75,-81.88 347.75,-112.38"/>
<text xml:space="preserve" text-anchor="start" x="184.5" y="-98.88" font-family="Helvetica,sans-Serif" font-size="10.00">llvm::SmallVectorTemplate</text>
<text xml:space="preserve" text-anchor="middle" x="262.12" y="-87.62" font-family="Helvetica,sans-Serif" font-size="10.00">Common&lt; llvm::SmallString&lt; 0 &gt; &gt;</text>
</a>
</g>
</g>
<!-- Node0&#45;&gt;Node1 -->
<g id="edge9088_Node000000_Node000001" class="edge">
<title>Node0&#45;&gt;Node1</title>
<g id="a_edge9088_Node000000_Node000001"><a xlink:title=" ">
<path fill="none" stroke="#63b8ff" d="M152.27,-97.12C160.13,-97.12 168.12,-97.12 176.02,-97.12"/>
<polygon fill="#63b8ff" stroke="#63b8ff" points="152.39,-93.63 142.39,-97.13 152.39,-100.63 152.39,-93.63"/>
</a>
</g>
</g>
<!-- Node2 -->
<g id="Node000002" class="node">
<title>Node2</title>
<g id="a_Node000002"><a xlink:href="classllvm_1_1SmallVectorTemplateBase.html" target="_top" xlink:title=" ">
<polygon fill="white" stroke="#666666" points="537.75,-112.38 383.75,-112.38 383.75,-81.88 537.75,-81.88 537.75,-112.38"/>
<text xml:space="preserve" text-anchor="start" x="391.75" y="-98.88" font-family="Helvetica,sans-Serif" font-size="10.00">llvm::SmallVectorTemplate</text>
<text xml:space="preserve" text-anchor="middle" x="460.75" y="-87.62" font-family="Helvetica,sans-Serif" font-size="10.00">Base&lt; llvm::SmallString&lt; 0 &gt; &gt;</text>
</a>
</g>
</g>
<!-- Node1&#45;&gt;Node2 -->
<g id="edge9089_Node000001_Node000002" class="edge">
<title>Node1&#45;&gt;Node2</title>
<g id="a_edge9089_Node000001_Node000002"><a xlink:title=" ">
<path fill="none" stroke="#63b8ff" d="M359.55,-97.12C367.59,-97.12 375.64,-97.12 383.49,-97.12"/>
<polygon fill="#63b8ff" stroke="#63b8ff" points="359.74,-93.63 349.74,-97.13 359.74,-100.63 359.74,-93.63"/>
</a>
</g>
</g>
<!-- Node3 -->
<g id="Node000003" class="node">
<title>Node3</title>
<g id="a_Node000003"><a xlink:href="classllvm_1_1SmallVectorImpl.html" target="_top" xlink:title=" ">
<polygon fill="white" stroke="#666666" points="711.62,-112.38 580.12,-112.38 580.12,-81.88 711.62,-81.88 711.62,-112.38"/>
<text xml:space="preserve" text-anchor="start" x="588.12" y="-98.88" font-family="Helvetica,sans-Serif" font-size="10.00">llvm::SmallVectorImpl</text>
<text xml:space="preserve" text-anchor="middle" x="645.88" y="-87.62" font-family="Helvetica,sans-Serif" font-size="10.00">&lt; llvm::SmallString&lt; 0 &gt; &gt;</text>
</a>
</g>
</g>
<!-- Node2&#45;&gt;Node3 -->
<g id="edge9090_Node000002_Node000003" class="edge">
<title>Node2&#45;&gt;Node3</title>
<g id="a_edge9090_Node000002_Node000003"><a xlink:title=" ">
<path fill="none" stroke="#63b8ff" d="M549.52,-97.12C559.69,-97.12 569.92,-97.12 579.72,-97.12"/>
<polygon fill="#63b8ff" stroke="#63b8ff" points="549.6,-93.63 539.6,-97.13 549.6,-100.63 549.6,-93.63"/>
</a>
</g>
</g>
<!-- Node4 -->
<g id="Node000004" class="node">
<title>Node4</title>
<g id="a_Node000004"><a xlink:href="classllvm_1_1SmallVector.html" target="_top" xlink:title=" ">
<polygon fill="white" stroke="#666666" points="879.5,-79.38 754,-79.38 754,-48.88 879.5,-48.88 879.5,-79.38"/>
<text xml:space="preserve" text-anchor="start" x="762" y="-65.88" font-family="Helvetica,sans-Serif" font-size="10.00">llvm::SmallVector&lt;</text>
<text xml:space="preserve" text-anchor="middle" x="816.75" y="-54.62" font-family="Helvetica,sans-Serif" font-size="10.00"> llvm::SmallString&lt; 0 &gt; &gt;</text>
</a>
</g>
</g>
<!-- Node3&#45;&gt;Node4 -->
<g id="edge9091_Node000003_Node000004" class="edge">
<title>Node3&#45;&gt;Node4</title>
<g id="a_edge9091_Node000003_Node000004"><a xlink:title=" ">
<path fill="none" stroke="#63b8ff" d="M722.78,-82.29C733.1,-80.28 743.58,-78.23 753.62,-76.27"/>
<polygon fill="#63b8ff" stroke="#63b8ff" points="722.31,-78.82 713.17,-84.17 723.65,-85.69 722.31,-78.82"/>
</a>
</g>
</g>
<!-- Node5 -->
<g id="Node000005" class="node">
<title>Node5</title>
<g id="a_Node000005"><a xlink:title=" ">
<polygon fill="#e0e0e0" stroke="#999999" points="718,-64.25 573.75,-64.25 573.75,0 718,0 718,-64.25"/>
<text xml:space="preserve" text-anchor="start" x="581.75" y="-50.75" font-family="Helvetica,sans-Serif" font-size="10.00">SmallVectorStorage</text>
<text xml:space="preserve" text-anchor="start" x="581.75" y="-39.5" font-family="Helvetica,sans-Serif" font-size="10.00">&lt; llvm::SmallString</text>
<text xml:space="preserve" text-anchor="start" x="581.75" y="-28.25" font-family="Helvetica,sans-Serif" font-size="10.00">&lt; 0 &gt;, CalculateSmallVector</text>
<text xml:space="preserve" text-anchor="start" x="581.75" y="-17" font-family="Helvetica,sans-Serif" font-size="10.00">DefaultInlinedElements&lt; llvm</text>
<text xml:space="preserve" text-anchor="middle" x="645.88" y="-5.75" font-family="Helvetica,sans-Serif" font-size="10.00">::SmallString&lt; 0 &gt; &gt;::value &gt;</text>
</a>
</g>
</g>
<!-- Node5&#45;&gt;Node4 -->
<g id="edge9092_Node000005_Node000004" class="edge">
<title>Node5&#45;&gt;Node4</title>
<g id="a_edge9092_Node000005_Node000004"><a xlink:title=" ">
<path fill="none" stroke="#8b1a1a" d="M729.8,-47.84C737.82,-49.36 745.86,-50.88 753.64,-52.35"/>
<polygon fill="#8b1a1a" stroke="#8b1a1a" points="730.46,-44.4 719.98,-45.98 729.15,-51.28 730.46,-44.4"/>
</a>
</g>
</g>
</g>
</svg>
