<?xml version="1.0" encoding="UTF-8" standalone="no"?>
<!DOCTYPE svg PUBLIC "-//W3C//DTD SVG 1.1//EN"
 "http://www.w3.org/Graphics/SVG/1.1/DTD/svg11.dtd">
<!-- Generated by graphviz version 14.1.3 (20260303.0454)
 -->
<!-- Title: Graphical Class Hierarchy Pages: 1 -->
<svg width="316pt" height="64pt"
 viewBox="0.00 0.00 316.00 64.00" xmlns="http://www.w3.org/2000/svg" xmlns:xlink="http://www.w3.org/1999/xlink">
<g id="graph0" class="graph" transform="scale(1 1) rotate(0) translate(4 60.25)">
<title>Graphical Class Hierarchy</title>
<!-- Node0 -->
<g id="Node000000" class="node">
<title>Node0</title>
<g id="a_Node000000"><a xlink:href="classllvm_1_1orc_1_1SpeculateQuery.html" target="_top" xlink:title=" ">
<polygon fill="white" stroke="#666666" points="129.25,-37.25 0,-37.25 0,-18 129.25,-18 129.25,-37.25"/>
<text xml:space="preserve" text-anchor="middle" x="64.62" y="-23.75" font-family="Helvetica,sans-Serif" font-size="10.00">llvm::orc::SpeculateQuery</text>
</a>
</g>
</g>
<!-- Node1 -->
<g id="Node000001" class="node">
<title>Node1</title>
<g id="a_Node000001"><a xlink:href="classllvm_1_1orc_1_1BlockFreqQuery.html" target="_top" xlink:title=" ">
<polygon fill="white" stroke="#666666" points="301.62,-56.25 171.62,-56.25 171.62,-37 301.62,-37 301.62,-56.25"/>
<text xml:space="preserve" text-anchor="middle" x="236.62" y="-42.75" font-family="Helvetica,sans-Serif" font-size="10.00">llvm::orc::BlockFreqQuery</text>
</a>
</g>
</g>
<!-- Node0&#45;&gt;Node1 -->
<g id="edge5088_Node000000_Node000001" class="edge">
<title>Node0&#45;&gt;Node1</title>
<g id="a_edge5088_Node000000_Node000001"><a xlink:title=" ">
<path fill="none" stroke="#63b8ff" d="M140.76,-36.02C150.91,-37.16 161.26,-38.31 171.2,-39.42"/>
<polygon fill="#63b8ff" stroke="#63b8ff" points="141.24,-32.55 130.91,-34.92 140.46,-39.51 141.24,-32.55"/>
</a>
</g>
</g>
<!-- Node2 -->
<g id="Node000002" class="node">
<title>Node2</title>
<g id="a_Node000002"><a xlink:href="classllvm_1_1orc_1_1SequenceBBQuery.html" target="_top" xlink:title=" ">
<polygon fill="white" stroke="#666666" points="308,-19.25 165.25,-19.25 165.25,0 308,0 308,-19.25"/>
<text xml:space="preserve" text-anchor="middle" x="236.62" y="-5.75" font-family="Helvetica,sans-Serif" font-size="10.00">llvm::orc::SequenceBBQuery</text>
</a>
</g>
</g>
<!-- Node0&#45;&gt;Node2 -->
<g id="edge5089_Node000000_Node000002" class="edge">
<title>Node0&#45;&gt;Node2</title>
<g id="a_edge5089_Node000000_Node000002"><a xlink:title=" ">
<path fill="none" stroke="#63b8ff" d="M140.69,-19.68C148.74,-18.82 156.92,-17.96 164.92,-17.11"/>
<polygon fill="#63b8ff" stroke="#63b8ff" points="140.49,-16.18 130.92,-20.71 141.23,-23.14 140.49,-16.18"/>
</a>
</g>
</g>
</g>
</svg>
