<?xml version="1.0" encoding="UTF-8" standalone="no"?>
<!DOCTYPE svg PUBLIC "-//W3C//DTD SVG 1.1//EN"
 "http://www.w3.org/Graphics/SVG/1.1/DTD/svg11.dtd">
<!-- Generated by graphviz version 14.1.3 (20260303.0454)
 -->
<!-- Title: Graphical Class Hierarchy Pages: 1 -->
<svg width="918pt" height="115pt"
 viewBox="0.00 0.00 918.00 115.00" xmlns="http://www.w3.org/2000/svg" xmlns:xlink="http://www.w3.org/1999/xlink">
<g id="graph0" class="graph" transform="scale(1 1) rotate(0) translate(4 111.38)">
<title>Graphical Class Hierarchy</title>
<!-- Node0 -->
<g id="Node000000" class="node">
<title>Node0</title>
<g id="a_Node000000"><a xlink:href="classllvm_1_1SmallVectorBase.html" target="_top" xlink:title=" ">
<polygon fill="white" stroke="#666666" points="160,-107.38 0,-107.38 0,-54.38 160,-54.38 160,-107.38"/>
<text xml:space="preserve" text-anchor="start" x="8" y="-93.88" font-family="Helvetica,sans-Serif" font-size="10.00">llvm::SmallVectorBase</text>
<text xml:space="preserve" text-anchor="start" x="8" y="-82.62" font-family="Helvetica,sans-Serif" font-size="10.00">&lt; SmallVectorSizeType</text>
<text xml:space="preserve" text-anchor="start" x="8" y="-71.38" font-family="Helvetica,sans-Serif" font-size="10.00">&lt; llvm::unique_function</text>
<text xml:space="preserve" text-anchor="middle" x="80" y="-60.12" font-family="Helvetica,sans-Serif" font-size="10.00">&lt; BeforeSkippedPassFunc &gt; &gt; &gt;</text>
</a>
</g>
</g>
<!-- Node1 -->
<g id="Node000001" class="node">
<title>Node1</title>
<g id="a_Node000001"><a xlink:href="classllvm_1_1SmallVectorTemplateCommon.html" target="_top" xlink:title=" ">
<polygon fill="white" stroke="#666666" points="353,-101.75 196,-101.75 196,-60 353,-60 353,-101.75"/>
<text xml:space="preserve" text-anchor="start" x="204" y="-88.25" font-family="Helvetica,sans-Serif" font-size="10.00">llvm::SmallVectorTemplate</text>
<text xml:space="preserve" text-anchor="start" x="204" y="-77" font-family="Helvetica,sans-Serif" font-size="10.00">Common&lt; llvm::unique_function</text>
<text xml:space="preserve" text-anchor="middle" x="274.5" y="-65.75" font-family="Helvetica,sans-Serif" font-size="10.00">&lt; BeforeSkippedPassFunc &gt; &gt;</text>
</a>
</g>
</g>
<!-- Node0&#45;&gt;Node1 -->
<g id="edge9245_Node000000_Node000001" class="edge">
<title>Node0&#45;&gt;Node1</title>
<g id="a_edge9245_Node000000_Node000001"><a xlink:title=" ">
<path fill="none" stroke="#63b8ff" d="M171.91,-80.88C179.8,-80.88 187.74,-80.88 195.52,-80.88"/>
<polygon fill="#63b8ff" stroke="#63b8ff" points="171.92,-77.38 161.92,-80.88 171.92,-84.38 171.92,-77.38"/>
</a>
</g>
</g>
<!-- Node2 -->
<g id="Node000002" class="node">
<title>Node2</title>
<g id="a_Node000002"><a xlink:href="classllvm_1_1SmallVectorTemplateBase.html" target="_top" xlink:title=" ">
<polygon fill="white" stroke="#666666" points="540,-101.75 389,-101.75 389,-60 540,-60 540,-101.75"/>
<text xml:space="preserve" text-anchor="start" x="397" y="-88.25" font-family="Helvetica,sans-Serif" font-size="10.00">llvm::SmallVectorTemplate</text>
<text xml:space="preserve" text-anchor="start" x="397" y="-77" font-family="Helvetica,sans-Serif" font-size="10.00">Base&lt; llvm::unique_function</text>
<text xml:space="preserve" text-anchor="middle" x="464.5" y="-65.75" font-family="Helvetica,sans-Serif" font-size="10.00">&lt; BeforeSkippedPassFunc &gt; &gt;</text>
</a>
</g>
</g>
<!-- Node1&#45;&gt;Node2 -->
<g id="edge9246_Node000001_Node000002" class="edge">
<title>Node1&#45;&gt;Node2</title>
<g id="a_edge9246_Node000001_Node000002"><a xlink:title=" ">
<path fill="none" stroke="#63b8ff" d="M364.67,-80.88C372.73,-80.88 380.84,-80.88 388.76,-80.88"/>
<polygon fill="#63b8ff" stroke="#63b8ff" points="364.84,-77.38 354.84,-80.88 364.84,-84.38 364.84,-77.38"/>
</a>
</g>
</g>
<!-- Node3 -->
<g id="Node000003" class="node">
<title>Node3</title>
<g id="a_Node000003"><a xlink:href="classllvm_1_1SmallVectorImpl.html" target="_top" xlink:title=" ">
<polygon fill="white" stroke="#666666" points="733.75,-101.75 582.75,-101.75 582.75,-60 733.75,-60 733.75,-101.75"/>
<text xml:space="preserve" text-anchor="start" x="590.75" y="-88.25" font-family="Helvetica,sans-Serif" font-size="10.00">llvm::SmallVectorImpl</text>
<text xml:space="preserve" text-anchor="start" x="590.75" y="-77" font-family="Helvetica,sans-Serif" font-size="10.00">&lt; llvm::unique_function</text>
<text xml:space="preserve" text-anchor="middle" x="658.25" y="-65.75" font-family="Helvetica,sans-Serif" font-size="10.00">&lt; BeforeSkippedPassFunc &gt; &gt;</text>
</a>
</g>
</g>
<!-- Node2&#45;&gt;Node3 -->
<g id="edge9247_Node000002_Node000003" class="edge">
<title>Node2&#45;&gt;Node3</title>
<g id="a_edge9247_Node000002_Node000003"><a xlink:title=" ">
<path fill="none" stroke="#63b8ff" d="M551.86,-80.88C562.03,-80.88 572.35,-80.88 582.34,-80.88"/>
<polygon fill="#63b8ff" stroke="#63b8ff" points="551.97,-77.38 541.97,-80.88 551.97,-84.38 551.97,-77.38"/>
</a>
</g>
</g>
<!-- Node4 -->
<g id="Node000004" class="node">
<title>Node4</title>
<g id="a_Node000004"><a xlink:href="classllvm_1_1SmallVector.html" target="_top" xlink:title=" ">
<polygon fill="white" stroke="#666666" points="909.5,-77.38 776.5,-77.38 776.5,-24.38 909.5,-24.38 909.5,-77.38"/>
<text xml:space="preserve" text-anchor="start" x="784.5" y="-63.88" font-family="Helvetica,sans-Serif" font-size="10.00">llvm::SmallVector&lt;</text>
<text xml:space="preserve" text-anchor="start" x="784.5" y="-52.62" font-family="Helvetica,sans-Serif" font-size="10.00"> llvm::unique_function</text>
<text xml:space="preserve" text-anchor="start" x="784.5" y="-41.38" font-family="Helvetica,sans-Serif" font-size="10.00">&lt; BeforeSkippedPassFunc</text>
<text xml:space="preserve" text-anchor="middle" x="843" y="-30.12" font-family="Helvetica,sans-Serif" font-size="10.00"> &gt;, 4 &gt;</text>
</a>
</g>
</g>
<!-- Node3&#45;&gt;Node4 -->
<g id="edge9248_Node000003_Node000004" class="edge">
<title>Node3&#45;&gt;Node4</title>
<g id="a_edge9248_Node000003_Node000004"><a xlink:title=" ">
<path fill="none" stroke="#63b8ff" d="M745.27,-66.75C755.61,-65.06 766.05,-63.34 776.04,-61.7"/>
<polygon fill="#63b8ff" stroke="#63b8ff" points="744.9,-63.27 735.6,-68.34 746.04,-70.17 744.9,-63.27"/>
</a>
</g>
</g>
<!-- Node5 -->
<g id="Node000005" class="node">
<title>Node5</title>
<g id="a_Node000005"><a xlink:href="structllvm_1_1SmallVectorStorage.html" target="_top" xlink:title=" ">
<polygon fill="white" stroke="#666666" points="740.5,-41.75 576,-41.75 576,0 740.5,0 740.5,-41.75"/>
<text xml:space="preserve" text-anchor="start" x="584" y="-28.25" font-family="Helvetica,sans-Serif" font-size="10.00">llvm::SmallVectorStorage</text>
<text xml:space="preserve" text-anchor="start" x="584" y="-17" font-family="Helvetica,sans-Serif" font-size="10.00">&lt; llvm::unique_function</text>
<text xml:space="preserve" text-anchor="middle" x="658.25" y="-5.75" font-family="Helvetica,sans-Serif" font-size="10.00">&lt; BeforeSkippedPassFunc &gt;, N &gt;</text>
</a>
</g>
</g>
<!-- Node5&#45;&gt;Node4 -->
<g id="edge9249_Node000005_Node000004" class="edge">
<title>Node5&#45;&gt;Node4</title>
<g id="a_edge9249_Node000005_Node000004"><a xlink:title=" ">
<path fill="none" stroke="#8b1a1a" d="M751.84,-36.07C760,-37.41 768.14,-38.75 776.01,-40.04"/>
<polygon fill="#8b1a1a" stroke="#8b1a1a" points="752.67,-32.66 742.23,-34.5 751.53,-39.57 752.67,-32.66"/>
</a>
</g>
</g>
</g>
</svg>
