<?xml version="1.0" encoding="UTF-8" standalone="no"?>
<!DOCTYPE svg PUBLIC "-//W3C//DTD SVG 1.1//EN"
 "http://www.w3.org/Graphics/SVG/1.1/DTD/svg11.dtd">
<!-- Generated by graphviz version 14.1.3 (20260303.0454)
 -->
<!-- Title: Graphical Class Hierarchy Pages: 1 -->
<svg width="336pt" height="321pt"
 viewBox="0.00 0.00 336.00 321.00" xmlns="http://www.w3.org/2000/svg" xmlns:xlink="http://www.w3.org/1999/xlink">
<g id="graph0" class="graph" transform="scale(1 1) rotate(0) translate(4 316.5)">
<title>Graphical Class Hierarchy</title>
<!-- Node0 -->
<g id="Node000000" class="node">
<title>Node0</title>
<g id="a_Node000000"><a xlink:href="classllvm_1_1orc_1_1DefinitionGenerator.html" target="_top" xlink:title="Definition generators can be attached to JITDylibs to generate new definitions for otherwise unresolv...">
<polygon fill="white" stroke="#666666" points="143.5,-159.88 0,-159.88 0,-140.62 143.5,-140.62 143.5,-159.88"/>
<text xml:space="preserve" text-anchor="middle" x="71.75" y="-146.38" font-family="Helvetica,sans-Serif" font-size="10.00">llvm::orc::DefinitionGenerator</text>
</a>
</g>
</g>
<!-- Node1 -->
<g id="Node000001" class="node">
<title>Node1</title>
<g id="a_Node000001"><a xlink:href="classllvm_1_1orc_1_1CAPIDefinitionGenerator.html" target="_top" xlink:title=" ">
<polygon fill="white" stroke="#666666" points="316.25,-312.5 191.5,-312.5 191.5,-282 316.25,-282 316.25,-312.5"/>
<text xml:space="preserve" text-anchor="start" x="199.5" y="-299" font-family="Helvetica,sans-Serif" font-size="10.00">llvm::orc::CAPIDefinition</text>
<text xml:space="preserve" text-anchor="middle" x="253.88" y="-287.75" font-family="Helvetica,sans-Serif" font-size="10.00">Generator</text>
</a>
</g>
</g>
<!-- Node0&#45;&gt;Node1 -->
<g id="edge4989_Node000000_Node000001" class="edge">
<title>Node0&#45;&gt;Node1</title>
<g id="a_edge4989_Node000000_Node000001"><a xlink:title=" ">
<path fill="none" stroke="#63b8ff" d="M85.02,-169.81C102.75,-196.58 138.01,-244.46 179.5,-272.25 184.76,-275.77 190.55,-278.84 196.52,-281.51"/>
<polygon fill="#63b8ff" stroke="#63b8ff" points="88.1,-168.13 79.73,-161.64 82.22,-171.93 88.1,-168.13"/>
</a>
</g>
</g>
<!-- Node2 -->
<g id="Node000002" class="node">
<title>Node2</title>
<g id="a_Node000002"><a xlink:href="classllvm_1_1orc_1_1DLLImportDefinitionGenerator.html" target="_top" xlink:title="A utility class to create COFF dllimport GOT symbols (__imp_*) and PLT stubs.">
<polygon fill="white" stroke="#666666" points="327.12,-263.5 180.62,-263.5 180.62,-233 327.12,-233 327.12,-263.5"/>
<text xml:space="preserve" text-anchor="start" x="188.62" y="-250" font-family="Helvetica,sans-Serif" font-size="10.00">llvm::orc::DLLImportDefinition</text>
<text xml:space="preserve" text-anchor="middle" x="253.88" y="-238.75" font-family="Helvetica,sans-Serif" font-size="10.00">Generator</text>
</a>
</g>
</g>
<!-- Node0&#45;&gt;Node2 -->
<g id="edge4990_Node000000_Node000002" class="edge">
<title>Node0&#45;&gt;Node2</title>
<g id="a_edge4990_Node000000_Node000002"><a xlink:title=" ">
<path fill="none" stroke="#63b8ff" d="M93.77,-167.18C114.56,-183.29 147.78,-207.37 179.5,-223.25 186.36,-226.68 193.8,-229.83 201.23,-232.64"/>
<polygon fill="#63b8ff" stroke="#63b8ff" points="96.09,-164.55 86.07,-161.12 91.76,-170.06 96.09,-164.55"/>
</a>
</g>
</g>
<!-- Node3 -->
<g id="Node000003" class="node">
<title>Node3</title>
<g id="a_Node000003"><a xlink:href="classllvm_1_1orc_1_1DynamicLibrarySearchGenerator.html" target="_top" xlink:title="A utility class to expose symbols found via dlsym to the JIT.">
<polygon fill="white" stroke="#666666" points="317.75,-214.5 190,-214.5 190,-184 317.75,-184 317.75,-214.5"/>
<text xml:space="preserve" text-anchor="start" x="198" y="-201" font-family="Helvetica,sans-Serif" font-size="10.00">llvm::orc::DynamicLibrary</text>
<text xml:space="preserve" text-anchor="middle" x="253.88" y="-189.75" font-family="Helvetica,sans-Serif" font-size="10.00">SearchGenerator</text>
</a>
</g>
</g>
<!-- Node0&#45;&gt;Node3 -->
<g id="edge4991_Node000000_Node000003" class="edge">
<title>Node0&#45;&gt;Node3</title>
<g id="a_edge4991_Node000000_Node000003"><a xlink:title=" ">
<path fill="none" stroke="#63b8ff" d="M120.47,-163.23C143.38,-169.46 171.02,-176.98 195.11,-183.54"/>
<polygon fill="#63b8ff" stroke="#63b8ff" points="121.66,-159.93 111.1,-160.68 119.83,-166.68 121.66,-159.93"/>
</a>
</g>
</g>
<!-- Node4 -->
<g id="Node000004" class="node">
<title>Node4</title>
<g id="a_Node000004"><a xlink:href="classllvm_1_1orc_1_1EPCDynamicLibrarySearchGenerator.html" target="_top" xlink:title=" ">
<polygon fill="white" stroke="#666666" points="328.25,-165.5 179.5,-165.5 179.5,-135 328.25,-135 328.25,-165.5"/>
<text xml:space="preserve" text-anchor="start" x="187.5" y="-152" font-family="Helvetica,sans-Serif" font-size="10.00">llvm::orc::EPCDynamicLibrary</text>
<text xml:space="preserve" text-anchor="middle" x="253.88" y="-140.75" font-family="Helvetica,sans-Serif" font-size="10.00">SearchGenerator</text>
</a>
</g>
</g>
<!-- Node0&#45;&gt;Node4 -->
<g id="edge4992_Node000000_Node000004" class="edge">
<title>Node0&#45;&gt;Node4</title>
<g id="a_edge4992_Node000000_Node000004"><a xlink:title=" ">
<path fill="none" stroke="#63b8ff" d="M155.2,-150.25C163.22,-150.25 171.32,-150.25 179.25,-150.25"/>
<polygon fill="#63b8ff" stroke="#63b8ff" points="155.45,-146.75 145.45,-150.25 155.45,-153.75 155.45,-146.75"/>
</a>
</g>
</g>
<!-- Node5 -->
<g id="Node000005" class="node">
<title>Node5</title>
<g id="a_Node000005"><a xlink:href="classllvm_1_1orc_1_1ExecutorResolutionGenerator.html" target="_top" xlink:title=" ">
<polygon fill="white" stroke="#666666" points="326.38,-116.5 181.38,-116.5 181.38,-86 326.38,-86 326.38,-116.5"/>
<text xml:space="preserve" text-anchor="start" x="189.38" y="-103" font-family="Helvetica,sans-Serif" font-size="10.00">llvm::orc::ExecutorResolution</text>
<text xml:space="preserve" text-anchor="middle" x="253.88" y="-91.75" font-family="Helvetica,sans-Serif" font-size="10.00">Generator</text>
</a>
</g>
</g>
<!-- Node0&#45;&gt;Node5 -->
<g id="edge4993_Node000000_Node000005" class="edge">
<title>Node0&#45;&gt;Node5</title>
<g id="a_edge4993_Node000000_Node000005"><a xlink:title=" ">
<path fill="none" stroke="#63b8ff" d="M120.47,-137.27C143.38,-131.04 171.02,-123.52 195.11,-116.96"/>
<polygon fill="#63b8ff" stroke="#63b8ff" points="119.83,-133.82 111.1,-139.82 121.66,-140.57 119.83,-133.82"/>
</a>
</g>
</g>
<!-- Node6 -->
<g id="Node000006" class="node">
<title>Node6</title>
<g id="a_Node000006"><a xlink:href="classllvm_1_1orc_1_1ReexportsGenerator.html" target="_top" xlink:title="ReexportsGenerator can be used with JITDylib::addGenerator to automatically re&#45;export a subset of the...">
<polygon fill="white" stroke="#666666" points="327.5,-67.88 180.25,-67.88 180.25,-48.62 327.5,-48.62 327.5,-67.88"/>
<text xml:space="preserve" text-anchor="middle" x="253.88" y="-54.38" font-family="Helvetica,sans-Serif" font-size="10.00">llvm::orc::ReexportsGenerator</text>
</a>
</g>
</g>
<!-- Node0&#45;&gt;Node6 -->
<g id="edge4994_Node000000_Node000006" class="edge">
<title>Node0&#45;&gt;Node6</title>
<g id="a_edge4994_Node000000_Node000006"><a xlink:title=" ">
<path fill="none" stroke="#63b8ff" d="M93.18,-133.06C113.76,-116.56 147.03,-92.01 179.5,-77.25 187.29,-73.71 195.85,-70.74 204.29,-68.29"/>
<polygon fill="#63b8ff" stroke="#63b8ff" points="91.11,-130.23 85.58,-139.27 95.54,-135.65 91.11,-130.23"/>
</a>
</g>
</g>
<!-- Node7 -->
<g id="Node000007" class="node">
<title>Node7</title>
<g id="a_Node000007"><a xlink:href="classllvm_1_1orc_1_1StaticLibraryDefinitionGenerator.html" target="_top" xlink:title="A utility class to expose symbols from a static library.">
<polygon fill="white" stroke="#666666" points="311,-30.5 196.75,-30.5 196.75,0 311,0 311,-30.5"/>
<text xml:space="preserve" text-anchor="start" x="204.75" y="-17" font-family="Helvetica,sans-Serif" font-size="10.00">llvm::orc::StaticLibrary</text>
<text xml:space="preserve" text-anchor="middle" x="253.88" y="-5.75" font-family="Helvetica,sans-Serif" font-size="10.00">DefinitionGenerator</text>
</a>
</g>
</g>
<!-- Node0&#45;&gt;Node7 -->
<g id="edge4995_Node000000_Node000007" class="edge">
<title>Node0&#45;&gt;Node7</title>
<g id="a_edge4995_Node000000_Node000007"><a xlink:title=" ">
<path fill="none" stroke="#63b8ff" d="M86.18,-131.37C104.58,-106.81 139.89,-64.11 179.5,-39.25 184.72,-35.97 190.44,-33.1 196.3,-30.59"/>
<polygon fill="#63b8ff" stroke="#63b8ff" points="83.55,-129.04 80.46,-139.18 89.19,-133.18 83.55,-129.04"/>
</a>
</g>
</g>
</g>
</svg>
