<?xml version="1.0" encoding="UTF-8" standalone="no"?>
<!DOCTYPE svg PUBLIC "-//W3C//DTD SVG 1.1//EN"
 "http://www.w3.org/Graphics/SVG/1.1/DTD/svg11.dtd">
<!-- Generated by graphviz version 14.1.3 (20260303.0454)
 -->
<!-- Title: Graphical Class Hierarchy Pages: 1 -->
<svg width="305pt" height="267pt"
 viewBox="0.00 0.00 305.00 267.00" xmlns="http://www.w3.org/2000/svg" xmlns:xlink="http://www.w3.org/1999/xlink">
<g id="graph0" class="graph" transform="scale(1 1) rotate(0) translate(4 263.12)">
<title>Graphical Class Hierarchy</title>
<!-- Node0 -->
<g id="Node000000" class="node">
<title>Node0</title>
<g id="a_Node000000"><a xlink:title=" ">
<polygon fill="#e0e0e0" stroke="#999999" points="109.75,-144.5 0,-144.5 0,-125.25 109.75,-125.25 109.75,-144.5"/>
<text xml:space="preserve" text-anchor="middle" x="54.88" y="-131" font-family="Helvetica,sans-Serif" font-size="10.00">std::integral_constant</text>
</a>
</g>
</g>
<!-- Node1 -->
<g id="Node000001" class="node">
<title>Node1</title>
<g id="a_Node000001"><a xlink:href="structllvm_1_1FirstIndexOfType_3_01T_00_01T_00_01Us_8_8_8_01_4.html" target="_top" xlink:title=" ">
<polygon fill="white" stroke="#666666" points="278.75,-259.12 163.75,-259.12 163.75,-228.62 278.75,-228.62 278.75,-259.12"/>
<text xml:space="preserve" text-anchor="start" x="171.75" y="-245.62" font-family="Helvetica,sans-Serif" font-size="10.00">llvm::FirstIndexOfType</text>
<text xml:space="preserve" text-anchor="middle" x="221.25" y="-234.38" font-family="Helvetica,sans-Serif" font-size="10.00">&lt; T, T, Us... &gt;</text>
</a>
</g>
</g>
<!-- Node0&#45;&gt;Node1 -->
<g id="edge10957_Node000000_Node000001" class="edge">
<title>Node0&#45;&gt;Node1</title>
<g id="a_edge10957_Node000000_Node000001"><a xlink:title=" ">
<path fill="none" stroke="#63b8ff" d="M71.41,-153.48C88.05,-172.34 116.09,-201.19 145.75,-218.88 151.61,-222.37 158.02,-225.45 164.55,-228.15"/>
<polygon fill="#63b8ff" stroke="#63b8ff" points="74.16,-151.31 64.98,-146.02 68.86,-155.88 74.16,-151.31"/>
</a>
</g>
</g>
<!-- Node2 -->
<g id="Node000002" class="node">
<title>Node2</title>
<g id="a_Node000002"><a xlink:href="structllvm_1_1FirstIndexOfType_3_01T_00_01U_00_01Us_8_8_8_01_4.html" target="_top" xlink:title=" ">
<polygon fill="white" stroke="#666666" points="278.75,-210.12 163.75,-210.12 163.75,-179.62 278.75,-179.62 278.75,-210.12"/>
<text xml:space="preserve" text-anchor="start" x="171.75" y="-196.62" font-family="Helvetica,sans-Serif" font-size="10.00">llvm::FirstIndexOfType</text>
<text xml:space="preserve" text-anchor="middle" x="221.25" y="-185.38" font-family="Helvetica,sans-Serif" font-size="10.00">&lt; T, U, Us... &gt;</text>
</a>
</g>
</g>
<!-- Node0&#45;&gt;Node2 -->
<g id="edge10958_Node000000_Node000002" class="edge">
<title>Node0&#45;&gt;Node2</title>
<g id="a_edge10958_Node000000_Node000002"><a xlink:title=" ">
<path fill="none" stroke="#63b8ff" d="M90.1,-149.23C106.78,-156.06 127.2,-164.18 145.75,-170.88 153.55,-173.69 161.86,-176.52 170,-179.21"/>
<polygon fill="#63b8ff" stroke="#63b8ff" points="91.71,-146.11 81.13,-145.53 89.04,-152.58 91.71,-146.11"/>
</a>
</g>
</g>
<!-- Node3 -->
<g id="Node000003" class="node">
<title>Node3</title>
<g id="a_Node000003"><a xlink:href="structstd_1_1tuple__size_3_01llvm_1_1PointerIntPair_3_01PointerTy_00_01IntBits_00_01IntType_00_01PtrTraits_00_01Info_01_4_01_4.html" target="_top" xlink:title=" ">
<polygon fill="white" stroke="#666666" points="288.12,-161.38 154.38,-161.38 154.38,-108.38 288.12,-108.38 288.12,-161.38"/>
<text xml:space="preserve" text-anchor="start" x="162.38" y="-147.88" font-family="Helvetica,sans-Serif" font-size="10.00">std::tuple_size&lt; llvm</text>
<text xml:space="preserve" text-anchor="start" x="162.38" y="-136.62" font-family="Helvetica,sans-Serif" font-size="10.00">::PointerIntPair&lt; PointerTy,</text>
<text xml:space="preserve" text-anchor="start" x="162.38" y="-125.38" font-family="Helvetica,sans-Serif" font-size="10.00"> IntBits, IntType, PtrTraits,</text>
<text xml:space="preserve" text-anchor="middle" x="221.25" y="-114.12" font-family="Helvetica,sans-Serif" font-size="10.00"> Info &gt; &gt;</text>
</a>
</g>
</g>
<!-- Node0&#45;&gt;Node3 -->
<g id="edge10959_Node000000_Node000003" class="edge">
<title>Node0&#45;&gt;Node3</title>
<g id="a_edge10959_Node000000_Node000003"><a xlink:title=" ">
<path fill="none" stroke="#63b8ff" d="M121.56,-134.88C132.24,-134.88 143.31,-134.88 154,-134.88"/>
<polygon fill="#63b8ff" stroke="#63b8ff" points="121.67,-131.38 111.67,-134.88 121.67,-138.38 121.67,-131.38"/>
</a>
</g>
</g>
<!-- Node4 -->
<g id="Node000004" class="node">
<title>Node4</title>
<g id="a_Node000004"><a xlink:href="structstd_1_1tuple__size_3_01llvm_1_1StringMapEntry_3_01ValueTy_01_4_01_4.html" target="_top" xlink:title=" ">
<polygon fill="white" stroke="#666666" points="296.75,-90.12 145.75,-90.12 145.75,-59.62 296.75,-59.62 296.75,-90.12"/>
<text xml:space="preserve" text-anchor="start" x="153.75" y="-76.62" font-family="Helvetica,sans-Serif" font-size="10.00">std::tuple_size&lt; llvm</text>
<text xml:space="preserve" text-anchor="middle" x="221.25" y="-65.38" font-family="Helvetica,sans-Serif" font-size="10.00">::StringMapEntry&lt; ValueTy &gt; &gt;</text>
</a>
</g>
</g>
<!-- Node0&#45;&gt;Node4 -->
<g id="edge10960_Node000000_Node000004" class="edge">
<title>Node0&#45;&gt;Node4</title>
<g id="a_edge10960_Node000000_Node000004"><a xlink:title=" ">
<path fill="none" stroke="#63b8ff" d="M90.87,-120.8C107.44,-114.25 127.54,-106.47 145.75,-99.88 154.34,-96.76 163.54,-93.57 172.44,-90.54"/>
<polygon fill="#63b8ff" stroke="#63b8ff" points="89.96,-117.4 81.96,-124.34 92.54,-123.9 89.96,-117.4"/>
</a>
</g>
</g>
<!-- Node5 -->
<g id="Node000005" class="node">
<title>Node5</title>
<g id="a_Node000005"><a xlink:href="structstd_1_1tuple__size_3_01llvm_1_1detail_1_1enumerator__result_3_01Refs_8_8_8_01_4_01_4.html" target="_top" xlink:title=" ">
<polygon fill="white" stroke="#666666" points="274.62,-41.75 167.88,-41.75 167.88,0 274.62,0 274.62,-41.75"/>
<text xml:space="preserve" text-anchor="start" x="175.88" y="-28.25" font-family="Helvetica,sans-Serif" font-size="10.00">std::tuple_size&lt; llvm</text>
<text xml:space="preserve" text-anchor="start" x="175.88" y="-17" font-family="Helvetica,sans-Serif" font-size="10.00">::detail::enumerator</text>
<text xml:space="preserve" text-anchor="middle" x="221.25" y="-5.75" font-family="Helvetica,sans-Serif" font-size="10.00">_result&lt; Refs... &gt; &gt;</text>
</a>
</g>
</g>
<!-- Node0&#45;&gt;Node5 -->
<g id="edge10961_Node000000_Node000005" class="edge">
<title>Node0&#45;&gt;Node5</title>
<g id="a_edge10961_Node000000_Node000005"><a xlink:title=" ">
<path fill="none" stroke="#63b8ff" d="M71.89,-116.33C88.74,-97.75 116.78,-69.33 145.75,-50.88 152.57,-46.53 160.12,-42.61 167.73,-39.16"/>
<polygon fill="#63b8ff" stroke="#63b8ff" points="69.39,-113.88 65.37,-123.68 74.62,-118.52 69.39,-113.88"/>
</a>
</g>
</g>
</g>
</svg>
