<?xml version="1.0" encoding="UTF-8" standalone="no"?>
<!DOCTYPE svg PUBLIC "-//W3C//DTD SVG 1.1//EN"
 "http://www.w3.org/Graphics/SVG/1.1/DTD/svg11.dtd">
<!-- Generated by graphviz version 14.1.3 (20260303.0454)
 -->
<!-- Title: Graphical Class Hierarchy Pages: 1 -->
<svg width="344pt" height="64pt"
 viewBox="0.00 0.00 344.00 64.00" xmlns="http://www.w3.org/2000/svg" xmlns:xlink="http://www.w3.org/1999/xlink">
<g id="graph0" class="graph" transform="scale(1 1) rotate(0) translate(4 60.25)">
<title>Graphical Class Hierarchy</title>
<!-- Node0 -->
<g id="Node000000" class="node">
<title>Node0</title>
<g id="a_Node000000"><a xlink:href="structllvm_1_1lsp_1_1TextDocumentPositionParams.html" target="_top" xlink:title=" ">
<polygon fill="white" stroke="#666666" points="157.75,-42.88 0,-42.88 0,-12.37 157.75,-12.37 157.75,-42.88"/>
<text xml:space="preserve" text-anchor="start" x="8" y="-29.38" font-family="Helvetica,sans-Serif" font-size="10.00">llvm::lsp::TextDocumentPosition</text>
<text xml:space="preserve" text-anchor="middle" x="78.88" y="-18.12" font-family="Helvetica,sans-Serif" font-size="10.00">Params</text>
</a>
</g>
</g>
<!-- Node1 -->
<g id="Node000001" class="node">
<title>Node1</title>
<g id="a_Node000001"><a xlink:href="structllvm_1_1lsp_1_1CompletionParams.html" target="_top" xlink:title=" ">
<polygon fill="white" stroke="#666666" points="335.75,-56.25 193.75,-56.25 193.75,-37 335.75,-37 335.75,-56.25"/>
<text xml:space="preserve" text-anchor="middle" x="264.75" y="-42.75" font-family="Helvetica,sans-Serif" font-size="10.00">llvm::lsp::CompletionParams</text>
</a>
</g>
</g>
<!-- Node0&#45;&gt;Node1 -->
<g id="edge4331_Node000000_Node000001" class="edge">
<title>Node0&#45;&gt;Node1</title>
<g id="a_edge4331_Node000000_Node000001"><a xlink:title=" ">
<path fill="none" stroke="#63b8ff" d="M169.46,-36.88C177.51,-37.71 185.58,-38.55 193.44,-39.36"/>
<polygon fill="#63b8ff" stroke="#63b8ff" points="169.93,-33.41 159.63,-35.87 169.21,-40.38 169.93,-33.41"/>
</a>
</g>
</g>
<!-- Node2 -->
<g id="Node000002" class="node">
<title>Node2</title>
<g id="a_Node000002"><a xlink:href="structllvm_1_1lsp_1_1ReferenceParams.html" target="_top" xlink:title=" ">
<polygon fill="white" stroke="#666666" points="333.5,-19.25 196,-19.25 196,0 333.5,0 333.5,-19.25"/>
<text xml:space="preserve" text-anchor="middle" x="264.75" y="-5.75" font-family="Helvetica,sans-Serif" font-size="10.00">llvm::lsp::ReferenceParams</text>
</a>
</g>
</g>
<!-- Node0&#45;&gt;Node2 -->
<g id="edge4332_Node000000_Node000002" class="edge">
<title>Node0&#45;&gt;Node2</title>
<g id="a_edge4332_Node000000_Node000002"><a xlink:title=" ">
<path fill="none" stroke="#63b8ff" d="M169.33,-18.87C178.21,-18 187.13,-17.13 195.74,-16.28"/>
<polygon fill="#63b8ff" stroke="#63b8ff" points="169.24,-15.36 159.63,-19.82 169.92,-22.33 169.24,-15.36"/>
</a>
</g>
</g>
</g>
</svg>
