<?xml version="1.0" encoding="UTF-8" standalone="no"?>
<!DOCTYPE svg PUBLIC "-//W3C//DTD SVG 1.1//EN"
 "http://www.w3.org/Graphics/SVG/1.1/DTD/svg11.dtd">
<!-- Generated by graphviz version 14.1.3 (20260303.0454)
 -->
<!-- Title: Graphical Class Hierarchy Pages: 1 -->
<svg width="220pt" height="64pt"
 viewBox="0.00 0.00 220.00 64.00" xmlns="http://www.w3.org/2000/svg" xmlns:xlink="http://www.w3.org/1999/xlink">
<g id="graph0" class="graph" transform="scale(1 1) rotate(0) translate(4 60.25)">
<title>Graphical Class Hierarchy</title>
<!-- Node0 -->
<g id="Node000000" class="node">
<title>Node0</title>
<g id="a_Node000000"><a xlink:href="classllvm_1_1DbgEntity.html" target="_top" xlink:title="This class is defined as the common parent of DbgVariable and DbgLabel such that it could levarage po...">
<polygon fill="white" stroke="#666666" points="83.5,-56.25 0,-56.25 0,-37 83.5,-37 83.5,-56.25"/>
<text xml:space="preserve" text-anchor="middle" x="41.75" y="-42.75" font-family="Helvetica,sans-Serif" font-size="10.00">llvm::DbgEntity</text>
</a>
</g>
</g>
<!-- Node1 -->
<g id="Node000001" class="node">
<title>Node1</title>
<g id="a_Node000001"><a xlink:href="classllvm_1_1DbgLabel.html" target="_top" xlink:title="This class is used to track label information.">
<polygon fill="white" stroke="#666666" points="206.38,-56.25 125.12,-56.25 125.12,-37 206.38,-37 206.38,-56.25"/>
<text xml:space="preserve" text-anchor="middle" x="165.75" y="-42.75" font-family="Helvetica,sans-Serif" font-size="10.00">llvm::DbgLabel</text>
</a>
</g>
</g>
<!-- Node0&#45;&gt;Node1 -->
<g id="edge1251_Node000000_Node000001" class="edge">
<title>Node0&#45;&gt;Node1</title>
<g id="a_edge1251_Node000000_Node000001"><a xlink:title=" ">
<path fill="none" stroke="#63b8ff" d="M95.2,-46.62C105.16,-46.62 115.44,-46.62 124.93,-46.62"/>
<polygon fill="#63b8ff" stroke="#63b8ff" points="95.23,-43.13 85.23,-46.63 95.23,-50.13 95.23,-43.13"/>
</a>
</g>
</g>
<!-- Node2 -->
<g id="Node000002" class="node">
<title>Node2</title>
<g id="a_Node000002"><a xlink:href="classllvm_1_1DbgVariable.html" target="_top" xlink:title="This class is used to track local variable information.">
<polygon fill="white" stroke="#666666" points="212,-19.25 119.5,-19.25 119.5,0 212,0 212,-19.25"/>
<text xml:space="preserve" text-anchor="middle" x="165.75" y="-5.75" font-family="Helvetica,sans-Serif" font-size="10.00">llvm::DbgVariable</text>
</a>
</g>
</g>
<!-- Node0&#45;&gt;Node2 -->
<g id="edge1252_Node000000_Node000002" class="edge">
<title>Node0&#45;&gt;Node2</title>
<g id="a_edge1252_Node000000_Node000002"><a xlink:title=" ">
<path fill="none" stroke="#63b8ff" d="M86.98,-33.21C101.66,-28.76 117.74,-23.88 131.45,-19.72"/>
<polygon fill="#63b8ff" stroke="#63b8ff" points="86.09,-29.82 77.54,-36.08 88.12,-36.52 86.09,-29.82"/>
</a>
</g>
</g>
<!-- Node3 -->
<g id="Node000003" class="node">
<title>Node3</title>
<g id="a_Node000003"><a xlink:title=" ">
<polygon fill="#e0e0e0" stroke="#999999" points="75.62,-19.25 7.88,-19.25 7.88,0 75.62,0 75.62,-19.25"/>
<text xml:space="preserve" text-anchor="middle" x="41.75" y="-5.75" font-family="Helvetica,sans-Serif" font-size="10.00">Loc::Variant</text>
</a>
</g>
</g>
<!-- Node3&#45;&gt;Node2 -->
<g id="edge1253_Node000003_Node000002" class="edge">
<title>Node3&#45;&gt;Node2</title>
<g id="a_edge1253_Node000003_Node000002"><a xlink:title=" ">
<path fill="none" stroke="#63b8ff" d="M87.39,-9.62C97.72,-9.62 108.73,-9.62 119.1,-9.62"/>
<polygon fill="#63b8ff" stroke="#63b8ff" points="87.6,-6.13 77.6,-9.63 87.6,-13.13 87.6,-6.13"/>
</a>
</g>
</g>
</g>
</svg>
