<?xml version="1.0" encoding="UTF-8" standalone="no"?>
<!DOCTYPE svg PUBLIC "-//W3C//DTD SVG 1.1//EN"
 "http://www.w3.org/Graphics/SVG/1.1/DTD/svg11.dtd">
<!-- Generated by graphviz version 14.1.3 (20260303.0454)
 -->
<!-- Title: Graphical Class Hierarchy Pages: 1 -->
<svg width="325pt" height="286pt"
 viewBox="0.00 0.00 325.00 286.00" xmlns="http://www.w3.org/2000/svg" xmlns:xlink="http://www.w3.org/1999/xlink">
<g id="graph0" class="graph" transform="scale(1 1) rotate(0) translate(4 282.25)">
<title>Graphical Class Hierarchy</title>
<!-- Node0 -->
<g id="Node000000" class="node">
<title>Node0</title>
<g id="a_Node000000"><a xlink:href="classllvm_1_1IRMutationStrategy.html" target="_top" xlink:title="Base class for describing how to mutate a module.">
<polygon fill="white" stroke="#666666" points="124.75,-148.25 0,-148.25 0,-129 124.75,-129 124.75,-148.25"/>
<text xml:space="preserve" text-anchor="middle" x="62.38" y="-134.75" font-family="Helvetica,sans-Serif" font-size="10.00">llvm::IRMutationStrategy</text>
</a>
</g>
</g>
<!-- Node1 -->
<g id="Node000001" class="node">
<title>Node1</title>
<g id="a_Node000001"><a xlink:href="classllvm_1_1InjectorIRStrategy.html" target="_top" xlink:title="Strategy that injects operations into the function.">
<polygon fill="white" stroke="#666666" points="298.62,-278.25 179.12,-278.25 179.12,-259 298.62,-259 298.62,-278.25"/>
<text xml:space="preserve" text-anchor="middle" x="238.88" y="-264.75" font-family="Helvetica,sans-Serif" font-size="10.00">llvm::InjectorIRStrategy</text>
</a>
</g>
</g>
<!-- Node0&#45;&gt;Node1 -->
<g id="edge3796_Node000000_Node000001" class="edge">
<title>Node0&#45;&gt;Node1</title>
<g id="a_edge3796_Node000000_Node000001"><a xlink:title=" ">
<path fill="none" stroke="#63b8ff" d="M74.85,-158.18C90.81,-183.56 122.13,-227.36 160.75,-250.62 166.29,-253.96 172.39,-256.68 178.66,-258.89"/>
<polygon fill="#63b8ff" stroke="#63b8ff" points="77.96,-156.55 69.77,-149.83 71.98,-160.19 77.96,-156.55"/>
</a>
</g>
</g>
<!-- Node2 -->
<g id="Node000002" class="node">
<title>Node2</title>
<g id="a_Node000002"><a xlink:href="classllvm_1_1InsertCFGStrategy.html" target="_top" xlink:title="Strategy to split a random block and insert a random CFG in between.">
<polygon fill="white" stroke="#666666" points="300.12,-241.25 177.62,-241.25 177.62,-222 300.12,-222 300.12,-241.25"/>
<text xml:space="preserve" text-anchor="middle" x="238.88" y="-227.75" font-family="Helvetica,sans-Serif" font-size="10.00">llvm::InsertCFGStrategy</text>
</a>
</g>
</g>
<!-- Node0&#45;&gt;Node2 -->
<g id="edge3797_Node000000_Node000002" class="edge">
<title>Node0&#45;&gt;Node2</title>
<g id="a_edge3797_Node000000_Node000002"><a xlink:title=" ">
<path fill="none" stroke="#63b8ff" d="M81.48,-156.47C99.91,-173.64 130.07,-199.08 160.75,-213.62 167.33,-216.75 174.5,-219.35 181.72,-221.51"/>
<polygon fill="#63b8ff" stroke="#63b8ff" points="83.94,-153.98 74.29,-149.61 79.11,-159.05 83.94,-153.98"/>
</a>
</g>
</g>
<!-- Node3 -->
<g id="Node000003" class="node">
<title>Node3</title>
<g id="a_Node000003"><a xlink:href="classllvm_1_1InsertFunctionStrategy.html" target="_top" xlink:title="Strategy that generates new function calls and inserts function signatures to the modules.">
<polygon fill="white" stroke="#666666" points="308.38,-204.25 169.38,-204.25 169.38,-185 308.38,-185 308.38,-204.25"/>
<text xml:space="preserve" text-anchor="middle" x="238.88" y="-190.75" font-family="Helvetica,sans-Serif" font-size="10.00">llvm::InsertFunctionStrategy</text>
</a>
</g>
</g>
<!-- Node0&#45;&gt;Node3 -->
<g id="edge3798_Node000000_Node000003" class="edge">
<title>Node0&#45;&gt;Node3</title>
<g id="a_edge3798_Node000000_Node000003"><a xlink:title=" ">
<path fill="none" stroke="#63b8ff" d="M96.84,-153.05C115.43,-160.72 139.12,-169.92 160.75,-176.62 170.07,-179.52 180.16,-182.19 189.86,-184.54"/>
<polygon fill="#63b8ff" stroke="#63b8ff" points="98.23,-149.84 87.66,-149.21 95.53,-156.3 98.23,-149.84"/>
</a>
</g>
</g>
<!-- Node4 -->
<g id="Node000004" class="node">
<title>Node4</title>
<g id="a_Node000004"><a xlink:href="classllvm_1_1InsertPHIStrategy.html" target="_top" xlink:title="Strategy to insert PHI Nodes at the head of each basic block.">
<polygon fill="white" stroke="#666666" points="298.25,-167.25 179.5,-167.25 179.5,-148 298.25,-148 298.25,-167.25"/>
<text xml:space="preserve" text-anchor="middle" x="238.88" y="-153.75" font-family="Helvetica,sans-Serif" font-size="10.00">llvm::InsertPHIStrategy</text>
</a>
</g>
</g>
<!-- Node0&#45;&gt;Node4 -->
<g id="edge3799_Node000000_Node000004" class="edge">
<title>Node0&#45;&gt;Node4</title>
<g id="a_edge3799_Node000000_Node000004"><a xlink:title=" ">
<path fill="none" stroke="#63b8ff" d="M136.25,-146.56C150.59,-148.12 165.45,-149.74 179.25,-151.24"/>
<polygon fill="#63b8ff" stroke="#63b8ff" points="136.72,-143.09 126.4,-145.49 135.96,-150.05 136.72,-143.09"/>
</a>
</g>
</g>
<!-- Node5 -->
<g id="Node000005" class="node">
<title>Node5</title>
<g id="a_Node000005"><a xlink:href="classllvm_1_1InstDeleterIRStrategy.html" target="_top" xlink:title="Strategy that deletes instructions when the Module is too large.">
<polygon fill="white" stroke="#666666" points="306.5,-130.25 171.25,-130.25 171.25,-111 306.5,-111 306.5,-130.25"/>
<text xml:space="preserve" text-anchor="middle" x="238.88" y="-116.75" font-family="Helvetica,sans-Serif" font-size="10.00">llvm::InstDeleterIRStrategy</text>
</a>
</g>
</g>
<!-- Node0&#45;&gt;Node5 -->
<g id="edge3800_Node000000_Node000005" class="edge">
<title>Node0&#45;&gt;Node5</title>
<g id="a_edge3800_Node000000_Node000005"><a xlink:title=" ">
<path fill="none" stroke="#63b8ff" d="M136.26,-131.11C147.77,-129.92 159.62,-128.7 170.98,-127.53"/>
<polygon fill="#63b8ff" stroke="#63b8ff" points="135.99,-127.62 126.4,-132.12 136.71,-134.58 135.99,-127.62"/>
</a>
</g>
</g>
<!-- Node6 -->
<g id="Node000006" class="node">
<title>Node6</title>
<g id="a_Node000006"><a xlink:href="classllvm_1_1InstModificationIRStrategy.html" target="_top" xlink:title="Strategy that modifies instruction attributes and operands.">
<polygon fill="white" stroke="#666666" points="317,-93.25 160.75,-93.25 160.75,-74 317,-74 317,-93.25"/>
<text xml:space="preserve" text-anchor="middle" x="238.88" y="-79.75" font-family="Helvetica,sans-Serif" font-size="10.00">llvm::InstModificationIRStrategy</text>
</a>
</g>
</g>
<!-- Node0&#45;&gt;Node6 -->
<g id="edge3801_Node000000_Node000006" class="edge">
<title>Node0&#45;&gt;Node6</title>
<g id="a_edge3801_Node000000_Node000006"><a xlink:title=" ">
<path fill="none" stroke="#63b8ff" d="M97.62,-124.32C116.11,-116.93 139.45,-108.13 160.75,-101.62 170.22,-98.74 180.46,-96.05 190.29,-93.68"/>
<polygon fill="#63b8ff" stroke="#63b8ff" points="96.43,-121.03 88.48,-128.03 99.06,-127.52 96.43,-121.03"/>
</a>
</g>
</g>
<!-- Node7 -->
<g id="Node000007" class="node">
<title>Node7</title>
<g id="a_Node000007"><a xlink:href="classllvm_1_1ShuffleBlockStrategy.html" target="_top" xlink:title="Strategy to randomly select a block and shuffle the operations without affecting data dependency.">
<polygon fill="white" stroke="#666666" points="305,-56.25 172.75,-56.25 172.75,-37 305,-37 305,-56.25"/>
<text xml:space="preserve" text-anchor="middle" x="238.88" y="-42.75" font-family="Helvetica,sans-Serif" font-size="10.00">llvm::ShuffleBlockStrategy</text>
</a>
</g>
</g>
<!-- Node0&#45;&gt;Node7 -->
<g id="edge3802_Node000000_Node000007" class="edge">
<title>Node0&#45;&gt;Node7</title>
<g id="a_edge3802_Node000000_Node000007"><a xlink:title=" ">
<path fill="none" stroke="#63b8ff" d="M81.82,-120.76C100.31,-103.83 130.34,-78.92 160.75,-64.62 167.47,-61.47 174.79,-58.84 182.15,-56.66"/>
<polygon fill="#63b8ff" stroke="#63b8ff" points="79.5,-118.14 74.59,-127.53 84.28,-123.24 79.5,-118.14"/>
</a>
</g>
</g>
<!-- Node8 -->
<g id="Node000008" class="node">
<title>Node8</title>
<g id="a_Node000008"><a xlink:href="classllvm_1_1SinkInstructionStrategy.html" target="_top" xlink:title="Strategy to select a random instruction and add a new sink (user) to it to increate data dependency.">
<polygon fill="white" stroke="#666666" points="309.88,-19.25 167.88,-19.25 167.88,0 309.88,0 309.88,-19.25"/>
<text xml:space="preserve" text-anchor="middle" x="238.88" y="-5.75" font-family="Helvetica,sans-Serif" font-size="10.00">llvm::SinkInstructionStrategy</text>
</a>
</g>
</g>
<!-- Node0&#45;&gt;Node8 -->
<g id="edge3803_Node000000_Node000008" class="edge">
<title>Node0&#45;&gt;Node8</title>
<g id="a_edge3803_Node000000_Node000008"><a xlink:title=" ">
<path fill="none" stroke="#63b8ff" d="M74.89,-119.25C90.9,-94.09 122.27,-50.69 160.75,-27.62 166.06,-24.44 171.88,-21.83 177.88,-19.67"/>
<polygon fill="#63b8ff" stroke="#63b8ff" points="72.07,-117.16 69.8,-127.51 78.03,-120.84 72.07,-117.16"/>
</a>
</g>
</g>
</g>
</svg>
