<?xml version="1.0" encoding="UTF-8" standalone="no"?>
<!DOCTYPE svg PUBLIC "-//W3C//DTD SVG 1.1//EN"
 "http://www.w3.org/Graphics/SVG/1.1/DTD/svg11.dtd">
<!-- Generated by graphviz version 14.1.3 (20260303.0454)
 -->
<!-- Title: Graphical Class Hierarchy Pages: 1 -->
<svg width="547pt" height="50pt"
 viewBox="0.00 0.00 547.00 50.00" xmlns="http://www.w3.org/2000/svg" xmlns:xlink="http://www.w3.org/1999/xlink">
<g id="graph0" class="graph" transform="scale(1 1) rotate(0) translate(4 45.75)">
<title>Graphical Class Hierarchy</title>
<!-- Node0 -->
<g id="Node000000" class="node">
<title>Node0</title>
<g id="a_Node000000"><a xlink:href="structllvm_1_1PassInfoMixin.html" target="_top" xlink:title=" ">
<polygon fill="white" stroke="#666666" points="145.75,-41.75 0,-41.75 0,0 145.75,0 145.75,-41.75"/>
<text xml:space="preserve" text-anchor="start" x="8" y="-28.25" font-family="Helvetica,sans-Serif" font-size="10.00">llvm::PassInfoMixin</text>
<text xml:space="preserve" text-anchor="start" x="8" y="-17" font-family="Helvetica,sans-Serif" font-size="10.00">&lt; OptimizationRemarkEmitter</text>
<text xml:space="preserve" text-anchor="middle" x="72.88" y="-5.75" font-family="Helvetica,sans-Serif" font-size="10.00">Analysis &gt;</text>
</a>
</g>
</g>
<!-- Node1 -->
<g id="Node000001" class="node">
<title>Node1</title>
<g id="a_Node000001"><a xlink:href="structllvm_1_1AnalysisInfoMixin.html" target="_top" xlink:title=" ">
<polygon fill="white" stroke="#666666" points="374,-36.12 181.75,-36.12 181.75,-5.62 374,-5.62 374,-36.12"/>
<text xml:space="preserve" text-anchor="start" x="189.75" y="-22.62" font-family="Helvetica,sans-Serif" font-size="10.00">llvm::AnalysisInfoMixin</text>
<text xml:space="preserve" text-anchor="middle" x="277.88" y="-11.38" font-family="Helvetica,sans-Serif" font-size="10.00">&lt; OptimizationRemarkEmitterAnalysis &gt;</text>
</a>
</g>
</g>
<!-- Node0&#45;&gt;Node1 -->
<g id="edge5649_Node000000_Node000001" class="edge">
<title>Node0&#45;&gt;Node1</title>
<g id="a_edge5649_Node000000_Node000001"><a xlink:title=" ">
<path fill="none" stroke="#63b8ff" d="M157.5,-20.88C165.43,-20.88 173.51,-20.88 181.53,-20.88"/>
<polygon fill="#63b8ff" stroke="#63b8ff" points="157.53,-17.38 147.53,-20.88 157.53,-24.38 157.53,-17.38"/>
</a>
</g>
</g>
<!-- Node2 -->
<g id="Node000002" class="node">
<title>Node2</title>
<g id="a_Node000002"><a xlink:href="classllvm_1_1OptimizationRemarkEmitterAnalysis.html" target="_top" xlink:title=" ">
<polygon fill="white" stroke="#666666" points="539.25,-36.12 410,-36.12 410,-5.62 539.25,-5.62 539.25,-36.12"/>
<text xml:space="preserve" text-anchor="start" x="418" y="-22.62" font-family="Helvetica,sans-Serif" font-size="10.00">llvm::OptimizationRemark</text>
<text xml:space="preserve" text-anchor="middle" x="474.62" y="-11.38" font-family="Helvetica,sans-Serif" font-size="10.00">EmitterAnalysis</text>
</a>
</g>
</g>
<!-- Node1&#45;&gt;Node2 -->
<g id="edge5650_Node000001_Node000002" class="edge">
<title>Node1&#45;&gt;Node2</title>
<g id="a_edge5650_Node000001_Node000002"><a xlink:title=" ">
<path fill="none" stroke="#63b8ff" d="M385.73,-20.88C393.82,-20.88 401.82,-20.88 409.5,-20.88"/>
<polygon fill="#63b8ff" stroke="#63b8ff" points="385.77,-17.38 375.77,-20.88 385.77,-24.38 385.77,-17.38"/>
</a>
</g>
</g>
</g>
</svg>
