<?xml version="1.0" encoding="UTF-8" standalone="no"?>
<!DOCTYPE svg PUBLIC "-//W3C//DTD SVG 1.1//EN"
 "http://www.w3.org/Graphics/SVG/1.1/DTD/svg11.dtd">
<!-- Generated by graphviz version 14.1.3 (20260303.0454)
 -->
<!-- Title: Graphical Class Hierarchy Pages: 1 -->
<svg width="457pt" height="27pt"
 viewBox="0.00 0.00 457.00 27.00" xmlns="http://www.w3.org/2000/svg" xmlns:xlink="http://www.w3.org/1999/xlink">
<g id="graph0" class="graph" transform="scale(1 1) rotate(0) translate(4 23.25)">
<title>Graphical Class Hierarchy</title>
<!-- Node0 -->
<g id="Node000000" class="node">
<title>Node0</title>
<g id="a_Node000000"><a xlink:href="classllvm_1_1ArrayRef.html" target="_top" xlink:title="ArrayRef &#45; Represent a constant reference to an array (0 or more elements consecutively in memory),...">
<polygon fill="white" stroke="#666666" points="103,-19.25 0,-19.25 0,0 103,0 103,-19.25"/>
<text xml:space="preserve" text-anchor="middle" x="51.5" y="-5.75" font-family="Helvetica,sans-Serif" font-size="10.00">llvm::ArrayRef&lt; T &gt;</text>
</a>
</g>
</g>
<!-- Node1 -->
<g id="Node000001" class="node">
<title>Node1</title>
<g id="a_Node000001"><a xlink:href="classllvm_1_1MutableArrayRef.html" target="_top" xlink:title="MutableArrayRef &#45; Represent a mutable reference to an array (0 or more elements consecutively in memo...">
<polygon fill="white" stroke="#666666" points="276.5,-19.25 139,-19.25 139,0 276.5,0 276.5,-19.25"/>
<text xml:space="preserve" text-anchor="middle" x="207.75" y="-5.75" font-family="Helvetica,sans-Serif" font-size="10.00">llvm::MutableArrayRef&lt; T &gt;</text>
</a>
</g>
</g>
<!-- Node0&#45;&gt;Node1 -->
<g id="edge869_Node000000_Node000001" class="edge">
<title>Node0&#45;&gt;Node1</title>
<g id="a_edge869_Node000000_Node000001"><a xlink:title=" ">
<path fill="none" stroke="#63b8ff" d="M114.72,-9.62C122.56,-9.62 130.61,-9.62 138.53,-9.62"/>
<polygon fill="#63b8ff" stroke="#63b8ff" points="114.95,-6.13 104.95,-9.63 114.95,-13.13 114.95,-6.13"/>
</a>
</g>
</g>
<!-- Node2 -->
<g id="Node000002" class="node">
<title>Node2</title>
<g id="a_Node000002"><a xlink:href="classllvm_1_1OwningArrayRef.html" target="_top" xlink:title="This is a MutableArrayRef that owns its array.">
<polygon fill="white" stroke="#666666" points="448.5,-19.25 312.5,-19.25 312.5,0 448.5,0 448.5,-19.25"/>
<text xml:space="preserve" text-anchor="middle" x="380.5" y="-5.75" font-family="Helvetica,sans-Serif" font-size="10.00">llvm::OwningArrayRef&lt; T &gt;</text>
</a>
</g>
</g>
<!-- Node1&#45;&gt;Node2 -->
<g id="edge870_Node000001_Node000002" class="edge">
<title>Node1&#45;&gt;Node2</title>
<g id="a_edge870_Node000001_Node000002"><a xlink:title=" ">
<path fill="none" stroke="#63b8ff" d="M288,-9.62C296.04,-9.62 304.14,-9.62 312.04,-9.62"/>
<polygon fill="#63b8ff" stroke="#63b8ff" points="288.24,-6.13 278.24,-9.63 288.24,-13.13 288.24,-6.13"/>
</a>
</g>
</g>
</g>
</svg>
