<?xml version="1.0" encoding="UTF-8" standalone="no"?>
<!DOCTYPE svg PUBLIC "-//W3C//DTD SVG 1.1//EN"
 "http://www.w3.org/Graphics/SVG/1.1/DTD/svg11.dtd">
<!-- Generated by graphviz version 14.1.3 (20260303.0454)
 -->
<!-- Title: Graphical Class Hierarchy Pages: 1 -->
<svg width="339pt" height="451pt"
 viewBox="0.00 0.00 339.00 451.00" xmlns="http://www.w3.org/2000/svg" xmlns:xlink="http://www.w3.org/1999/xlink">
<g id="graph0" class="graph" transform="scale(1 1) rotate(0) translate(4 447.12)">
<title>Graphical Class Hierarchy</title>
<!-- Node0 -->
<g id="Node000000" class="node">
<title>Node0</title>
<g id="a_Node000000"><a xlink:href="classllvm_1_1detail_1_1DenseSetImpl.html" target="_top" xlink:title=" ">
<polygon fill="white" stroke="#666666" points="139.75,-259.62 0,-259.62 0,-184.12 139.75,-184.12 139.75,-259.62"/>
<text xml:space="preserve" text-anchor="start" x="8" y="-246.12" font-family="Helvetica,sans-Serif" font-size="10.00">llvm::detail::DenseSetImpl</text>
<text xml:space="preserve" text-anchor="start" x="8" y="-234.88" font-family="Helvetica,sans-Serif" font-size="10.00">&lt; ValueT, SmallDenseMap</text>
<text xml:space="preserve" text-anchor="start" x="8" y="-223.62" font-family="Helvetica,sans-Serif" font-size="10.00">&lt; ValueT, DenseSetEmpty,</text>
<text xml:space="preserve" text-anchor="start" x="8" y="-212.38" font-family="Helvetica,sans-Serif" font-size="10.00"> InlineBuckets, ValueInfoT,</text>
<text xml:space="preserve" text-anchor="start" x="8" y="-201.12" font-family="Helvetica,sans-Serif" font-size="10.00"> DenseSetPair&lt; ValueT &gt; &gt;,</text>
<text xml:space="preserve" text-anchor="middle" x="69.88" y="-189.88" font-family="Helvetica,sans-Serif" font-size="10.00"> ValueInfoT &gt;</text>
</a>
</g>
</g>
<!-- Node1 -->
<g id="Node000001" class="node">
<title>Node1</title>
<g id="a_Node000001"><a xlink:href="classllvm_1_1SmallDenseSet.html" target="_top" xlink:title=" ">
<polygon fill="white" stroke="#666666" points="307.62,-443.12 199.38,-443.12 199.38,-412.62 307.62,-412.62 307.62,-443.12"/>
<text xml:space="preserve" text-anchor="start" x="207.38" y="-429.62" font-family="Helvetica,sans-Serif" font-size="10.00">llvm::SmallDenseSet</text>
<text xml:space="preserve" text-anchor="middle" x="253.5" y="-418.38" font-family="Helvetica,sans-Serif" font-size="10.00">&lt; unsigned &gt;</text>
</a>
</g>
</g>
<!-- Node0&#45;&gt;Node1 -->
<g id="edge3138_Node000000_Node000001" class="edge">
<title>Node0&#45;&gt;Node1</title>
<g id="a_edge3138_Node000000_Node000001"><a xlink:title=" ">
<path fill="none" stroke="#63b8ff" d="M87.34,-270.48C103.66,-311.61 132.52,-369.23 175.75,-403.88 182.61,-409.38 190.75,-413.62 199.11,-416.9"/>
<polygon fill="#63b8ff" stroke="#63b8ff" points="90.67,-269.37 83.81,-261.29 84.13,-271.88 90.67,-269.37"/>
</a>
</g>
</g>
<!-- Node2 -->
<g id="Node000002" class="node">
<title>Node2</title>
<g id="a_Node000002"><a xlink:href="classllvm_1_1SmallDenseSet.html" target="_top" xlink:title=" ">
<polygon fill="white" stroke="#666666" points="307.62,-394.75 199.38,-394.75 199.38,-353 307.62,-353 307.62,-394.75"/>
<text xml:space="preserve" text-anchor="start" x="207.38" y="-381.25" font-family="Helvetica,sans-Serif" font-size="10.00">llvm::SmallDenseSet</text>
<text xml:space="preserve" text-anchor="start" x="207.38" y="-370" font-family="Helvetica,sans-Serif" font-size="10.00">&lt; const Instruction</text>
<text xml:space="preserve" text-anchor="middle" x="253.5" y="-358.75" font-family="Helvetica,sans-Serif" font-size="10.00"> *, 8 &gt;</text>
</a>
</g>
</g>
<!-- Node0&#45;&gt;Node2 -->
<g id="edge3139_Node000000_Node000002" class="edge">
<title>Node0&#45;&gt;Node2</title>
<g id="a_edge3139_Node000000_Node000002"><a xlink:title=" ">
<path fill="none" stroke="#63b8ff" d="M102.72,-269.08C121.54,-294.06 147.24,-323.66 175.75,-343.88 182.87,-348.92 190.95,-353.27 199.14,-356.96"/>
<polygon fill="#63b8ff" stroke="#63b8ff" points="105.76,-267.3 97,-261.33 100.12,-271.45 105.76,-267.3"/>
</a>
</g>
</g>
<!-- Node3 -->
<g id="Node000003" class="node">
<title>Node3</title>
<g id="a_Node000003"><a xlink:href="classllvm_1_1SmallDenseSet.html" target="_top" xlink:title=" ">
<polygon fill="white" stroke="#666666" points="307.62,-335.12 199.38,-335.12 199.38,-304.62 307.62,-304.62 307.62,-335.12"/>
<text xml:space="preserve" text-anchor="start" x="207.38" y="-321.62" font-family="Helvetica,sans-Serif" font-size="10.00">llvm::SmallDenseSet</text>
<text xml:space="preserve" text-anchor="middle" x="253.5" y="-310.38" font-family="Helvetica,sans-Serif" font-size="10.00">&lt; Value *, 4 &gt;</text>
</a>
</g>
</g>
<!-- Node0&#45;&gt;Node3 -->
<g id="edge3140_Node000000_Node000003" class="edge">
<title>Node0&#45;&gt;Node3</title>
<g id="a_edge3140_Node000000_Node000003"><a xlink:title=" ">
<path fill="none" stroke="#63b8ff" d="M128.48,-266.46C143.36,-276.69 159.71,-286.9 175.75,-294.88 183.15,-298.56 191.22,-301.87 199.25,-304.79"/>
<polygon fill="#63b8ff" stroke="#63b8ff" points="130.86,-263.85 120.67,-260.97 126.84,-269.58 130.86,-263.85"/>
</a>
</g>
</g>
<!-- Node4 -->
<g id="Node000004" class="node">
<title>Node4</title>
<g id="a_Node000004"><a xlink:href="classllvm_1_1SmallDenseSet.html" target="_top" xlink:title=" ">
<polygon fill="white" stroke="#666666" points="307.62,-286.12 199.38,-286.12 199.38,-255.62 307.62,-255.62 307.62,-286.12"/>
<text xml:space="preserve" text-anchor="start" x="207.38" y="-272.62" font-family="Helvetica,sans-Serif" font-size="10.00">llvm::SmallDenseSet</text>
<text xml:space="preserve" text-anchor="middle" x="253.5" y="-261.38" font-family="Helvetica,sans-Serif" font-size="10.00">&lt; Value * &gt;</text>
</a>
</g>
</g>
<!-- Node0&#45;&gt;Node4 -->
<g id="edge3141_Node000000_Node000004" class="edge">
<title>Node0&#45;&gt;Node4</title>
<g id="a_edge3141_Node000000_Node000004"><a xlink:title=" ">
<path fill="none" stroke="#63b8ff" d="M150.71,-243.41C167.06,-247.82 183.89,-252.37 199.05,-256.45"/>
<polygon fill="#63b8ff" stroke="#63b8ff" points="152.09,-240.16 141.52,-240.93 150.26,-246.92 152.09,-240.16"/>
</a>
</g>
</g>
<!-- Node5 -->
<g id="Node000005" class="node">
<title>Node5</title>
<g id="a_Node000005"><a xlink:href="classllvm_1_1SmallDenseSet.html" target="_top" xlink:title=" ">
<polygon fill="white" stroke="#666666" points="307.62,-237.12 199.38,-237.12 199.38,-206.62 307.62,-206.62 307.62,-237.12"/>
<text xml:space="preserve" text-anchor="start" x="207.38" y="-223.62" font-family="Helvetica,sans-Serif" font-size="10.00">llvm::SmallDenseSet</text>
<text xml:space="preserve" text-anchor="middle" x="253.5" y="-212.38" font-family="Helvetica,sans-Serif" font-size="10.00">&lt; llvm::Register, 8 &gt;</text>
</a>
</g>
</g>
<!-- Node0&#45;&gt;Node5 -->
<g id="edge3142_Node000000_Node000005" class="edge">
<title>Node0&#45;&gt;Node5</title>
<g id="a_edge3142_Node000000_Node000005"><a xlink:title=" ">
<path fill="none" stroke="#63b8ff" d="M151.18,-221.88C167.38,-221.88 184.04,-221.88 199.05,-221.88"/>
<polygon fill="#63b8ff" stroke="#63b8ff" points="151.57,-218.38 141.57,-221.88 151.57,-225.38 151.57,-218.38"/>
</a>
</g>
</g>
<!-- Node6 -->
<g id="Node000006" class="node">
<title>Node6</title>
<g id="a_Node000006"><a xlink:href="classllvm_1_1SmallDenseSet.html" target="_top" xlink:title=" ">
<polygon fill="white" stroke="#666666" points="331.25,-188.12 175.75,-188.12 175.75,-157.62 331.25,-157.62 331.25,-188.12"/>
<text xml:space="preserve" text-anchor="start" x="183.75" y="-174.62" font-family="Helvetica,sans-Serif" font-size="10.00">llvm::SmallDenseSet</text>
<text xml:space="preserve" text-anchor="middle" x="253.5" y="-163.38" font-family="Helvetica,sans-Serif" font-size="10.00">&lt; llvm::DomTreeNodeBase, 8 &gt;</text>
</a>
</g>
</g>
<!-- Node0&#45;&gt;Node6 -->
<g id="edge3143_Node000000_Node000006" class="edge">
<title>Node0&#45;&gt;Node6</title>
<g id="a_edge3143_Node000000_Node000006"><a xlink:title=" ">
<path fill="none" stroke="#63b8ff" d="M151.05,-200.24C165.56,-196.33 180.43,-192.32 194.16,-188.61"/>
<polygon fill="#63b8ff" stroke="#63b8ff" points="150.26,-196.83 141.52,-202.82 152.09,-203.59 150.26,-196.83"/>
</a>
</g>
</g>
<!-- Node7 -->
<g id="Node000007" class="node">
<title>Node7</title>
<g id="a_Node000007"><a xlink:href="classllvm_1_1SmallDenseSet.html" target="_top" xlink:title=" ">
<polygon fill="white" stroke="#666666" points="327.5,-139.12 179.5,-139.12 179.5,-108.62 327.5,-108.62 327.5,-139.12"/>
<text xml:space="preserve" text-anchor="start" x="187.5" y="-125.62" font-family="Helvetica,sans-Serif" font-size="10.00">llvm::SmallDenseSet</text>
<text xml:space="preserve" text-anchor="middle" x="253.5" y="-114.38" font-family="Helvetica,sans-Serif" font-size="10.00">&lt; const llvm::MachineInstr * &gt;</text>
</a>
</g>
</g>
<!-- Node0&#45;&gt;Node7 -->
<g id="edge3144_Node000000_Node000007" class="edge">
<title>Node0&#45;&gt;Node7</title>
<g id="a_edge3144_Node000000_Node000007"><a xlink:title=" ">
<path fill="none" stroke="#63b8ff" d="M128.48,-177.29C143.36,-167.06 159.71,-156.85 175.75,-148.88 182.65,-145.44 190.13,-142.33 197.62,-139.56"/>
<polygon fill="#63b8ff" stroke="#63b8ff" points="126.84,-174.17 120.67,-182.78 130.86,-179.9 126.84,-174.17"/>
</a>
</g>
</g>
<!-- Node8 -->
<g id="Node000008" class="node">
<title>Node8</title>
<g id="a_Node000008"><a xlink:href="classllvm_1_1SmallDenseSet.html" target="_top" xlink:title=" ">
<polygon fill="white" stroke="#666666" points="307.62,-90.12 199.38,-90.12 199.38,-59.62 307.62,-59.62 307.62,-90.12"/>
<text xml:space="preserve" text-anchor="start" x="207.38" y="-76.62" font-family="Helvetica,sans-Serif" font-size="10.00">llvm::SmallDenseSet</text>
<text xml:space="preserve" text-anchor="middle" x="253.5" y="-65.38" font-family="Helvetica,sans-Serif" font-size="10.00">&lt; unsigned, 4 &gt;</text>
</a>
</g>
</g>
<!-- Node0&#45;&gt;Node8 -->
<g id="edge3145_Node000000_Node000008" class="edge">
<title>Node0&#45;&gt;Node8</title>
<g id="a_edge3145_Node000000_Node000008"><a xlink:title=" ">
<path fill="none" stroke="#63b8ff" d="M101.87,-174.56C120.59,-149.26 146.46,-119.39 175.75,-99.88 182.86,-95.13 190.94,-91.23 199.13,-88.04"/>
<polygon fill="#63b8ff" stroke="#63b8ff" points="99.22,-172.26 96.2,-182.42 104.89,-176.36 99.22,-172.26"/>
</a>
</g>
</g>
<!-- Node9 -->
<g id="Node000009" class="node">
<title>Node9</title>
<g id="a_Node000009"><a xlink:href="classllvm_1_1SmallDenseSet.html" target="_top" xlink:title="Implements a dense probed hash&#45;table based set with some number of buckets stored inline.">
<polygon fill="white" stroke="#666666" points="314.38,-41.75 192.62,-41.75 192.62,0 314.38,0 314.38,-41.75"/>
<text xml:space="preserve" text-anchor="start" x="200.62" y="-28.25" font-family="Helvetica,sans-Serif" font-size="10.00">llvm::SmallDenseSet</text>
<text xml:space="preserve" text-anchor="start" x="200.62" y="-17" font-family="Helvetica,sans-Serif" font-size="10.00">&lt; ValueT, InlineBuckets,</text>
<text xml:space="preserve" text-anchor="middle" x="253.5" y="-5.75" font-family="Helvetica,sans-Serif" font-size="10.00"> ValueInfoT &gt;</text>
</a>
</g>
</g>
<!-- Node0&#45;&gt;Node9 -->
<g id="edge3146_Node000000_Node000009" class="edge">
<title>Node0&#45;&gt;Node9</title>
<g id="a_edge3146_Node000000_Node000009"><a xlink:title=" ">
<path fill="none" stroke="#63b8ff" d="M90.15,-173.62C107.49,-135.67 136.32,-83.86 175.75,-50.88 180.8,-46.65 186.51,-42.98 192.48,-39.79"/>
<polygon fill="#63b8ff" stroke="#63b8ff" points="87.04,-171.98 86.18,-182.54 93.44,-174.83 87.04,-171.98"/>
</a>
</g>
</g>
</g>
</svg>
