<?xml version="1.0" encoding="UTF-8" standalone="no"?>
<!DOCTYPE svg PUBLIC "-//W3C//DTD SVG 1.1//EN"
 "http://www.w3.org/Graphics/SVG/1.1/DTD/svg11.dtd">
<!-- Generated by graphviz version 14.1.3 (20260303.0454)
 -->
<!-- Title: Graphical Class Hierarchy Pages: 1 -->
<svg width="989pt" height="93pt"
 viewBox="0.00 0.00 989.00 93.00" xmlns="http://www.w3.org/2000/svg" xmlns:xlink="http://www.w3.org/1999/xlink">
<g id="graph0" class="graph" transform="scale(1 1) rotate(0) translate(4 89.12)">
<title>Graphical Class Hierarchy</title>
<!-- Node0 -->
<g id="Node000000" class="node">
<title>Node0</title>
<g id="a_Node000000"><a xlink:href="classllvm_1_1SmallVectorBase.html" target="_top" xlink:title=" ">
<polygon fill="white" stroke="#666666" points="163.75,-85.12 0,-85.12 0,-43.38 163.75,-43.38 163.75,-85.12"/>
<text xml:space="preserve" text-anchor="start" x="8" y="-71.62" font-family="Helvetica,sans-Serif" font-size="10.00">llvm::SmallVectorBase</text>
<text xml:space="preserve" text-anchor="start" x="8" y="-60.38" font-family="Helvetica,sans-Serif" font-size="10.00">&lt; SmallVectorSizeType</text>
<text xml:space="preserve" text-anchor="middle" x="81.88" y="-49.12" font-family="Helvetica,sans-Serif" font-size="10.00">&lt; const llvm::DISubprogram * &gt; &gt;</text>
</a>
</g>
</g>
<!-- Node1 -->
<g id="Node000001" class="node">
<title>Node1</title>
<g id="a_Node000001"><a xlink:href="classllvm_1_1SmallVectorTemplateCommon.html" target="_top" xlink:title=" ">
<polygon fill="white" stroke="#666666" points="394.25,-79.5 199.75,-79.5 199.75,-49 394.25,-49 394.25,-79.5"/>
<text xml:space="preserve" text-anchor="start" x="207.75" y="-66" font-family="Helvetica,sans-Serif" font-size="10.00">llvm::SmallVectorTemplate</text>
<text xml:space="preserve" text-anchor="middle" x="297" y="-54.75" font-family="Helvetica,sans-Serif" font-size="10.00">Common&lt; const llvm::DISubprogram * &gt;</text>
</a>
</g>
</g>
<!-- Node0&#45;&gt;Node1 -->
<g id="edge7945_Node000000_Node000001" class="edge">
<title>Node0&#45;&gt;Node1</title>
<g id="a_edge7945_Node000000_Node000001"><a xlink:title=" ">
<path fill="none" stroke="#63b8ff" d="M175.52,-64.25C183.41,-64.25 191.4,-64.25 199.32,-64.25"/>
<polygon fill="#63b8ff" stroke="#63b8ff" points="175.57,-60.75 165.57,-64.25 175.57,-67.75 175.57,-60.75"/>
</a>
</g>
</g>
<!-- Node2 -->
<g id="Node000002" class="node">
<title>Node2</title>
<g id="a_Node000002"><a xlink:href="classllvm_1_1SmallVectorTemplateBase.html" target="_top" xlink:title=" ">
<polygon fill="white" stroke="#666666" points="607.5,-79.5 430.25,-79.5 430.25,-49 607.5,-49 607.5,-79.5"/>
<text xml:space="preserve" text-anchor="start" x="438.25" y="-66" font-family="Helvetica,sans-Serif" font-size="10.00">llvm::SmallVectorTemplate</text>
<text xml:space="preserve" text-anchor="middle" x="518.88" y="-54.75" font-family="Helvetica,sans-Serif" font-size="10.00">Base&lt; const llvm::DISubprogram * &gt;</text>
</a>
</g>
</g>
<!-- Node1&#45;&gt;Node2 -->
<g id="edge7946_Node000001_Node000002" class="edge">
<title>Node1&#45;&gt;Node2</title>
<g id="a_edge7946_Node000001_Node000002"><a xlink:title=" ">
<path fill="none" stroke="#63b8ff" d="M405.8,-64.25C413.85,-64.25 421.92,-64.25 429.83,-64.25"/>
<polygon fill="#63b8ff" stroke="#63b8ff" points="405.95,-60.75 395.95,-64.25 405.95,-67.75 405.95,-60.75"/>
</a>
</g>
</g>
<!-- Node3 -->
<g id="Node000003" class="node">
<title>Node3</title>
<g id="a_Node000003"><a xlink:href="classllvm_1_1SmallVectorImpl.html" target="_top" xlink:title=" ">
<polygon fill="white" stroke="#666666" points="805,-79.5 650.25,-79.5 650.25,-49 805,-49 805,-79.5"/>
<text xml:space="preserve" text-anchor="start" x="658.25" y="-66" font-family="Helvetica,sans-Serif" font-size="10.00">llvm::SmallVectorImpl</text>
<text xml:space="preserve" text-anchor="middle" x="727.62" y="-54.75" font-family="Helvetica,sans-Serif" font-size="10.00">&lt; const llvm::DISubprogram * &gt;</text>
</a>
</g>
</g>
<!-- Node2&#45;&gt;Node3 -->
<g id="edge7947_Node000002_Node000003" class="edge">
<title>Node2&#45;&gt;Node3</title>
<g id="a_edge7947_Node000002_Node000003"><a xlink:title=" ">
<path fill="none" stroke="#63b8ff" d="M619.04,-64.25C629.39,-64.25 639.79,-64.25 649.83,-64.25"/>
<polygon fill="#63b8ff" stroke="#63b8ff" points="619.37,-60.75 609.37,-64.25 619.37,-67.75 619.37,-60.75"/>
</a>
</g>
</g>
<!-- Node4 -->
<g id="Node000004" class="node">
<title>Node4</title>
<g id="a_Node000004"><a xlink:href="classllvm_1_1SmallVector.html" target="_top" xlink:title=" ">
<polygon fill="white" stroke="#666666" points="980.75,-60.12 847.75,-60.12 847.75,-18.38 980.75,-18.38 980.75,-60.12"/>
<text xml:space="preserve" text-anchor="start" x="855.75" y="-46.62" font-family="Helvetica,sans-Serif" font-size="10.00">llvm::SmallVector&lt;</text>
<text xml:space="preserve" text-anchor="start" x="855.75" y="-35.38" font-family="Helvetica,sans-Serif" font-size="10.00"> const llvm::DISubprogram</text>
<text xml:space="preserve" text-anchor="middle" x="914.25" y="-24.12" font-family="Helvetica,sans-Serif" font-size="10.00"> *, N &gt;</text>
</a>
</g>
</g>
<!-- Node3&#45;&gt;Node4 -->
<g id="edge7948_Node000003_Node000004" class="edge">
<title>Node3&#45;&gt;Node4</title>
<g id="a_edge7948_Node000003_Node000004"><a xlink:title=" ">
<path fill="none" stroke="#63b8ff" d="M816.53,-52.35C826.91,-50.94 837.37,-49.53 847.37,-48.17"/>
<polygon fill="#63b8ff" stroke="#63b8ff" points="816.26,-48.85 806.82,-53.66 817.2,-55.79 816.26,-48.85"/>
</a>
</g>
</g>
<!-- Node5 -->
<g id="Node000005" class="node">
<title>Node5</title>
<g id="a_Node000005"><a xlink:href="structllvm_1_1SmallVectorStorage.html" target="_top" xlink:title=" ">
<polygon fill="white" stroke="#666666" points="811.75,-30.5 643.5,-30.5 643.5,0 811.75,0 811.75,-30.5"/>
<text xml:space="preserve" text-anchor="start" x="651.5" y="-17" font-family="Helvetica,sans-Serif" font-size="10.00">llvm::SmallVectorStorage</text>
<text xml:space="preserve" text-anchor="middle" x="727.62" y="-5.75" font-family="Helvetica,sans-Serif" font-size="10.00">&lt; const llvm::DISubprogram *, N &gt;</text>
</a>
</g>
</g>
<!-- Node5&#45;&gt;Node4 -->
<g id="edge7949_Node000005_Node000004" class="edge">
<title>Node5&#45;&gt;Node4</title>
<g id="a_edge7949_Node000005_Node000004"><a xlink:title=" ">
<path fill="none" stroke="#8b1a1a" d="M823.17,-27.54C831.35,-28.6 839.5,-29.66 847.38,-30.69"/>
<polygon fill="#8b1a1a" stroke="#8b1a1a" points="823.89,-24.1 813.53,-26.29 822.99,-31.05 823.89,-24.1"/>
</a>
</g>
</g>
</g>
</svg>
