<?xml version="1.0" encoding="UTF-8" standalone="no"?>
<!DOCTYPE svg PUBLIC "-//W3C//DTD SVG 1.1//EN"
 "http://www.w3.org/Graphics/SVG/1.1/DTD/svg11.dtd">
<!-- Generated by graphviz version 14.1.3 (20260303.0454)
 -->
<!-- Title: Graphical Class Hierarchy Pages: 1 -->
<svg width="300pt" height="88pt"
 viewBox="0.00 0.00 300.00 88.00" xmlns="http://www.w3.org/2000/svg" xmlns:xlink="http://www.w3.org/1999/xlink">
<g id="graph0" class="graph" transform="scale(1 1) rotate(0) translate(4 83.5)">
<title>Graphical Class Hierarchy</title>
<!-- Node0 -->
<g id="Node000000" class="node">
<title>Node0</title>
<g id="a_Node000000"><a xlink:href="structllvm_1_1object_1_1Elf__Sym__Base.html" target="_top" xlink:title=" ">
<polygon fill="white" stroke="#666666" points="109.75,-54.5 0,-54.5 0,-24 109.75,-24 109.75,-54.5"/>
<text xml:space="preserve" text-anchor="start" x="8" y="-41" font-family="Helvetica,sans-Serif" font-size="10.00">llvm::object::Elf_Sym</text>
<text xml:space="preserve" text-anchor="middle" x="54.88" y="-29.75" font-family="Helvetica,sans-Serif" font-size="10.00">_Base&lt; ELFT &gt;</text>
</a>
</g>
</g>
<!-- Node1 -->
<g id="Node000001" class="node">
<title>Node1</title>
<g id="a_Node000001"><a xlink:href="structllvm_1_1object_1_1Elf__Sym__Impl.html" target="_top" xlink:title=" ">
<polygon fill="white" stroke="#666666" points="292.25,-79.5 145.75,-79.5 145.75,-49 292.25,-49 292.25,-79.5"/>
<text xml:space="preserve" text-anchor="start" x="153.75" y="-66" font-family="Helvetica,sans-Serif" font-size="10.00">llvm::object::Elf_Sym</text>
<text xml:space="preserve" text-anchor="middle" x="219" y="-54.75" font-family="Helvetica,sans-Serif" font-size="10.00">_Impl&lt; ELFType&lt; E, Is64 &gt; &gt;</text>
</a>
</g>
</g>
<!-- Node0&#45;&gt;Node1 -->
<g id="edge4952_Node000000_Node000001" class="edge">
<title>Node0&#45;&gt;Node1</title>
<g id="a_edge4952_Node000000_Node000001"><a xlink:title=" ">
<path fill="none" stroke="#63b8ff" d="M121.05,-49.3C129.09,-50.54 137.35,-51.81 145.5,-53.07"/>
<polygon fill="#63b8ff" stroke="#63b8ff" points="121.77,-45.87 111.36,-47.81 120.71,-52.79 121.77,-45.87"/>
</a>
</g>
</g>
<!-- Node2 -->
<g id="Node000002" class="node">
<title>Node2</title>
<g id="a_Node000002"><a xlink:href="structllvm_1_1object_1_1Elf__Sym__Impl.html" target="_top" xlink:title=" ">
<polygon fill="white" stroke="#666666" points="273.88,-30.5 164.12,-30.5 164.12,0 273.88,0 273.88,-30.5"/>
<text xml:space="preserve" text-anchor="start" x="172.12" y="-17" font-family="Helvetica,sans-Serif" font-size="10.00">llvm::object::Elf_Sym</text>
<text xml:space="preserve" text-anchor="middle" x="219" y="-5.75" font-family="Helvetica,sans-Serif" font-size="10.00">_Impl&lt; ELFT &gt;</text>
</a>
</g>
</g>
<!-- Node0&#45;&gt;Node2 -->
<g id="edge4953_Node000000_Node000002" class="edge">
<title>Node0&#45;&gt;Node2</title>
<g id="a_edge4953_Node000000_Node000002"><a xlink:title=" ">
<path fill="none" stroke="#63b8ff" d="M121.03,-29.6C135.19,-27.51 150.02,-25.31 163.7,-23.29"/>
<polygon fill="#63b8ff" stroke="#63b8ff" points="120.74,-26.11 111.36,-31.04 121.76,-33.03 120.74,-26.11"/>
</a>
</g>
</g>
</g>
</svg>
