<?xml version="1.0" encoding="UTF-8" standalone="no"?>
<!DOCTYPE svg PUBLIC "-//W3C//DTD SVG 1.1//EN"
 "http://www.w3.org/Graphics/SVG/1.1/DTD/svg11.dtd">
<!-- Generated by graphviz version 14.1.3 (20260303.0454)
 -->
<!-- Title: Graphical Class Hierarchy Pages: 1 -->
<svg width="702pt" height="935pt"
 viewBox="0.00 0.00 702.00 935.00" xmlns="http://www.w3.org/2000/svg" xmlns:xlink="http://www.w3.org/1999/xlink">
<g id="graph0" class="graph" transform="scale(1 1) rotate(0) translate(4 930.5)">
<title>Graphical Class Hierarchy</title>
<!-- Node0 -->
<g id="Node000000" class="node">
<title>Node0</title>
<g id="a_Node000000"><a xlink:href="classllvm_1_1cl_1_1basic__parser__impl.html" target="_top" xlink:title=" ">
<polygon fill="white" stroke="#666666" points="132.25,-601.88 0,-601.88 0,-582.62 132.25,-582.62 132.25,-601.88"/>
<text xml:space="preserve" text-anchor="middle" x="66.12" y="-588.38" font-family="Helvetica,sans-Serif" font-size="10.00">llvm::cl::basic_parser_impl</text>
</a>
</g>
</g>
<!-- Node1 -->
<g id="Node000001" class="node">
<title>Node1</title>
<g id="a_Node000001"><a xlink:href="classllvm_1_1cl_1_1basic__parser.html" target="_top" xlink:title=" ">
<polygon fill="white" stroke="#666666" points="294.5,-779.5 185.5,-779.5 185.5,-749 294.5,-749 294.5,-779.5"/>
<text xml:space="preserve" text-anchor="start" x="193.5" y="-766" font-family="Helvetica,sans-Serif" font-size="10.00">llvm::cl::basic_parser</text>
<text xml:space="preserve" text-anchor="middle" x="240" y="-754.75" font-family="Helvetica,sans-Serif" font-size="10.00">&lt; bool &gt;</text>
</a>
</g>
</g>
<!-- Node0&#45;&gt;Node1 -->
<g id="edge1010_Node000000_Node000001" class="edge">
<title>Node0&#45;&gt;Node1</title>
<g id="a_edge1010_Node000000_Node000001"><a xlink:title=" ">
<path fill="none" stroke="#63b8ff" d="M75.8,-612.18C90.44,-643.57 122.92,-704.51 168.25,-739.25 173.42,-743.21 179.27,-746.58 185.34,-749.44"/>
<polygon fill="#63b8ff" stroke="#63b8ff" points="79.16,-611.11 71.85,-603.44 72.78,-613.99 79.16,-611.11"/>
</a>
</g>
</g>
<!-- Node17 -->
<g id="Node000017" class="node">
<title>Node17</title>
<g id="a_Node000017"><a xlink:href="classllvm_1_1cl_1_1basic__parser.html" target="_top" xlink:title=" ">
<polygon fill="white" stroke="#666666" points="294.5,-730.5 185.5,-730.5 185.5,-700 294.5,-700 294.5,-730.5"/>
<text xml:space="preserve" text-anchor="start" x="193.5" y="-717" font-family="Helvetica,sans-Serif" font-size="10.00">llvm::cl::basic_parser</text>
<text xml:space="preserve" text-anchor="middle" x="240" y="-705.75" font-family="Helvetica,sans-Serif" font-size="10.00">&lt; boolOrDefault &gt;</text>
</a>
</g>
</g>
<!-- Node0&#45;&gt;Node17 -->
<g id="edge1012_Node000000_Node000017" class="edge">
<title>Node0&#45;&gt;Node17</title>
<g id="a_edge1012_Node000000_Node000017"><a xlink:title=" ">
<path fill="none" stroke="#63b8ff" d="M82.06,-610.98C100.31,-632.75 133.13,-668.49 168.25,-690.25 173.9,-693.75 180.1,-696.85 186.42,-699.56"/>
<polygon fill="#63b8ff" stroke="#63b8ff" points="84.96,-609 75.91,-603.48 79.55,-613.44 84.96,-609"/>
</a>
</g>
</g>
<!-- Node19 -->
<g id="Node000019" class="node">
<title>Node19</title>
<g id="a_Node000019"><a xlink:href="classllvm_1_1cl_1_1basic__parser.html" target="_top" xlink:title=" ">
<polygon fill="white" stroke="#666666" points="294.5,-681.5 185.5,-681.5 185.5,-651 294.5,-651 294.5,-681.5"/>
<text xml:space="preserve" text-anchor="start" x="193.5" y="-668" font-family="Helvetica,sans-Serif" font-size="10.00">llvm::cl::basic_parser</text>
<text xml:space="preserve" text-anchor="middle" x="240" y="-656.75" font-family="Helvetica,sans-Serif" font-size="10.00">&lt; char &gt;</text>
</a>
</g>
</g>
<!-- Node0&#45;&gt;Node19 -->
<g id="edge1014_Node000000_Node000019" class="edge">
<title>Node0&#45;&gt;Node19</title>
<g id="a_edge1014_Node000000_Node000019"><a xlink:title=" ">
<path fill="none" stroke="#63b8ff" d="M96.23,-607.43C116.23,-617.58 143.53,-630.93 168.25,-641.25 175.94,-644.46 184.21,-647.63 192.29,-650.58"/>
<polygon fill="#63b8ff" stroke="#63b8ff" points="98.06,-604.43 87.57,-602.98 94.87,-610.66 98.06,-604.43"/>
</a>
</g>
</g>
<!-- Node21 -->
<g id="Node000021" class="node">
<title>Node21</title>
<g id="a_Node000021"><a xlink:href="classllvm_1_1cl_1_1basic__parser.html" target="_top" xlink:title=" ">
<polygon fill="white" stroke="#666666" points="294.5,-632.5 185.5,-632.5 185.5,-602 294.5,-602 294.5,-632.5"/>
<text xml:space="preserve" text-anchor="start" x="193.5" y="-619" font-family="Helvetica,sans-Serif" font-size="10.00">llvm::cl::basic_parser</text>
<text xml:space="preserve" text-anchor="middle" x="240" y="-607.75" font-family="Helvetica,sans-Serif" font-size="10.00">&lt; double &gt;</text>
</a>
</g>
</g>
<!-- Node0&#45;&gt;Node21 -->
<g id="edge1016_Node000000_Node000021" class="edge">
<title>Node0&#45;&gt;Node21</title>
<g id="a_edge1016_Node000000_Node000021"><a xlink:title=" ">
<path fill="none" stroke="#63b8ff" d="M143.71,-603.39C157.69,-605.42 172.01,-607.51 185.16,-609.42"/>
<polygon fill="#63b8ff" stroke="#63b8ff" points="144.49,-599.97 134.09,-601.99 143.48,-606.89 144.49,-599.97"/>
</a>
</g>
</g>
<!-- Node23 -->
<g id="Node000023" class="node">
<title>Node23</title>
<g id="a_Node000023"><a xlink:href="classllvm_1_1cl_1_1basic__parser.html" target="_top" xlink:title=" ">
<polygon fill="white" stroke="#666666" points="294.5,-583.5 185.5,-583.5 185.5,-553 294.5,-553 294.5,-583.5"/>
<text xml:space="preserve" text-anchor="start" x="193.5" y="-570" font-family="Helvetica,sans-Serif" font-size="10.00">llvm::cl::basic_parser</text>
<text xml:space="preserve" text-anchor="middle" x="240" y="-558.75" font-family="Helvetica,sans-Serif" font-size="10.00">&lt; float &gt;</text>
</a>
</g>
</g>
<!-- Node0&#45;&gt;Node23 -->
<g id="edge1018_Node000000_Node000023" class="edge">
<title>Node0&#45;&gt;Node23</title>
<g id="a_edge1018_Node000000_Node000023"><a xlink:title=" ">
<path fill="none" stroke="#63b8ff" d="M143.71,-581.56C157.69,-579.6 172.01,-577.6 185.16,-575.77"/>
<polygon fill="#63b8ff" stroke="#63b8ff" points="143.51,-578.05 134.09,-582.9 144.48,-584.98 143.51,-578.05"/>
</a>
</g>
</g>
<!-- Node25 -->
<g id="Node000025" class="node">
<title>Node25</title>
<g id="a_Node000025"><a xlink:href="classllvm_1_1cl_1_1basic__parser.html" target="_top" xlink:title=" ">
<polygon fill="white" stroke="#666666" points="294.5,-392.5 185.5,-392.5 185.5,-362 294.5,-362 294.5,-392.5"/>
<text xml:space="preserve" text-anchor="start" x="193.5" y="-379" font-family="Helvetica,sans-Serif" font-size="10.00">llvm::cl::basic_parser</text>
<text xml:space="preserve" text-anchor="middle" x="240" y="-367.75" font-family="Helvetica,sans-Serif" font-size="10.00">&lt; int &gt;</text>
</a>
</g>
</g>
<!-- Node0&#45;&gt;Node25 -->
<g id="edge1020_Node000000_Node000025" class="edge">
<title>Node0&#45;&gt;Node25</title>
<g id="a_edge1020_Node000000_Node000025"><a xlink:title=" ">
<path fill="none" stroke="#63b8ff" d="M72.78,-571.63C84.35,-533.18 114.28,-450.19 168.25,-403.25 173.29,-398.87 179.12,-395.2 185.24,-392.14"/>
<polygon fill="#63b8ff" stroke="#63b8ff" points="69.49,-570.41 70.08,-580.99 76.22,-572.35 69.49,-570.41"/>
</a>
</g>
</g>
<!-- Node27 -->
<g id="Node000027" class="node">
<title>Node27</title>
<g id="a_Node000027"><a xlink:href="classllvm_1_1cl_1_1basic__parser.html" target="_top" xlink:title=" ">
<polygon fill="white" stroke="#666666" points="294.5,-340.5 185.5,-340.5 185.5,-310 294.5,-310 294.5,-340.5"/>
<text xml:space="preserve" text-anchor="start" x="193.5" y="-327" font-family="Helvetica,sans-Serif" font-size="10.00">llvm::cl::basic_parser</text>
<text xml:space="preserve" text-anchor="middle" x="240" y="-315.75" font-family="Helvetica,sans-Serif" font-size="10.00">&lt; long &gt;</text>
</a>
</g>
</g>
<!-- Node0&#45;&gt;Node27 -->
<g id="edge1022_Node000000_Node000027" class="edge">
<title>Node0&#45;&gt;Node27</title>
<g id="a_edge1022_Node000000_Node000027"><a xlink:title=" ">
<path fill="none" stroke="#63b8ff" d="M70.36,-571.48C78.52,-525.86 104.03,-415.98 168.25,-353.25 173.26,-348.36 179.23,-344.29 185.54,-340.92"/>
<polygon fill="#63b8ff" stroke="#63b8ff" points="66.96,-570.62 68.75,-581.06 73.86,-571.78 66.96,-570.62"/>
</a>
</g>
</g>
<!-- Node29 -->
<g id="Node000029" class="node">
<title>Node29</title>
<g id="a_Node000029"><a xlink:href="classllvm_1_1cl_1_1basic__parser.html" target="_top" xlink:title=" ">
<polygon fill="white" stroke="#666666" points="294.5,-284.5 185.5,-284.5 185.5,-254 294.5,-254 294.5,-284.5"/>
<text xml:space="preserve" text-anchor="start" x="193.5" y="-271" font-family="Helvetica,sans-Serif" font-size="10.00">llvm::cl::basic_parser</text>
<text xml:space="preserve" text-anchor="middle" x="240" y="-259.75" font-family="Helvetica,sans-Serif" font-size="10.00">&lt; long long &gt;</text>
</a>
</g>
</g>
<!-- Node0&#45;&gt;Node29 -->
<g id="edge1024_Node000000_Node000029" class="edge">
<title>Node0&#45;&gt;Node29</title>
<g id="a_edge1024_Node000000_Node000029"><a xlink:title=" ">
<path fill="none" stroke="#63b8ff" d="M68.86,-570.87C74.19,-518.41 94.76,-381.7 168.25,-301.25 174.34,-294.58 182.09,-289.21 190.21,-284.92"/>
<polygon fill="#63b8ff" stroke="#63b8ff" points="65.38,-570.53 67.95,-580.81 72.35,-571.17 65.38,-570.53"/>
</a>
</g>
</g>
<!-- Node31 -->
<g id="Node000031" class="node">
<title>Node31</title>
<g id="a_Node000031"><a xlink:href="classllvm_1_1cl_1_1basic__parser.html" target="_top" xlink:title=" ">
<polygon fill="white" stroke="#666666" points="294.5,-222.12 185.5,-222.12 185.5,-180.38 294.5,-180.38 294.5,-222.12"/>
<text xml:space="preserve" text-anchor="start" x="193.5" y="-208.62" font-family="Helvetica,sans-Serif" font-size="10.00">llvm::cl::basic_parser</text>
<text xml:space="preserve" text-anchor="start" x="193.5" y="-197.38" font-family="Helvetica,sans-Serif" font-size="10.00">&lt; std::optional&lt; std::</text>
<text xml:space="preserve" text-anchor="middle" x="240" y="-186.12" font-family="Helvetica,sans-Serif" font-size="10.00">string &gt; &gt;</text>
</a>
</g>
</g>
<!-- Node0&#45;&gt;Node31 -->
<g id="edge1026_Node000000_Node000031" class="edge">
<title>Node0&#45;&gt;Node31</title>
<g id="a_edge1026_Node000000_Node000031"><a xlink:title=" ">
<path fill="none" stroke="#63b8ff" d="M68.15,-571.01C71.95,-512.98 89.45,-349.13 168.25,-245.25 175.07,-236.26 184.3,-228.67 193.84,-222.45"/>
<polygon fill="#63b8ff" stroke="#63b8ff" points="64.67,-570.6 67.59,-580.78 71.66,-571 64.67,-570.6"/>
</a>
</g>
</g>
<!-- Node33 -->
<g id="Node000033" class="node">
<title>Node33</title>
<g id="a_Node000033"><a xlink:href="classllvm_1_1cl_1_1basic__parser.html" target="_top" xlink:title=" ">
<polygon fill="white" stroke="#666666" points="294.5,-134.5 185.5,-134.5 185.5,-104 294.5,-104 294.5,-134.5"/>
<text xml:space="preserve" text-anchor="start" x="193.5" y="-121" font-family="Helvetica,sans-Serif" font-size="10.00">llvm::cl::basic_parser</text>
<text xml:space="preserve" text-anchor="middle" x="240" y="-109.75" font-family="Helvetica,sans-Serif" font-size="10.00">&lt; std::string &gt;</text>
</a>
</g>
</g>
<!-- Node0&#45;&gt;Node33 -->
<g id="edge1028_Node000000_Node000033" class="edge">
<title>Node0&#45;&gt;Node33</title>
<g id="a_edge1028_Node000000_Node000033"><a xlink:title=" ">
<path fill="none" stroke="#63b8ff" d="M67.24,-571.3C68.55,-506.25 79.93,-304.21 168.25,-171.25 178.37,-156.01 194.55,-143.63 208.88,-134.78"/>
<polygon fill="#63b8ff" stroke="#63b8ff" points="63.74,-570.86 67.11,-580.9 70.74,-570.95 63.74,-570.86"/>
</a>
</g>
</g>
<!-- Node35 -->
<g id="Node000035" class="node">
<title>Node35</title>
<g id="a_Node000035"><a xlink:href="classllvm_1_1cl_1_1basic__parser.html" target="_top" xlink:title=" ">
<polygon fill="white" stroke="#666666" points="294.5,-30.5 185.5,-30.5 185.5,0 294.5,0 294.5,-30.5"/>
<text xml:space="preserve" text-anchor="start" x="193.5" y="-17" font-family="Helvetica,sans-Serif" font-size="10.00">llvm::cl::basic_parser</text>
<text xml:space="preserve" text-anchor="middle" x="240" y="-5.75" font-family="Helvetica,sans-Serif" font-size="10.00">&lt; unsigned &gt;</text>
</a>
</g>
</g>
<!-- Node0&#45;&gt;Node35 -->
<g id="edge1030_Node000000_Node000035" class="edge">
<title>Node0&#45;&gt;Node35</title>
<g id="a_edge1030_Node000000_Node000035"><a xlink:title=" ">
<path fill="none" stroke="#63b8ff" d="M67.59,-570.77C69.92,-499.29 83.94,-264.4 168.25,-95.25 181.07,-69.53 204.3,-45.63 220.64,-30.77"/>
<polygon fill="#63b8ff" stroke="#63b8ff" points="64.09,-570.56 67.32,-580.65 71.09,-570.75 64.09,-570.56"/>
</a>
</g>
</g>
<!-- Node37 -->
<g id="Node000037" class="node">
<title>Node37</title>
<g id="a_Node000037"><a xlink:href="classllvm_1_1cl_1_1basic__parser.html" target="_top" xlink:title=" ">
<polygon fill="white" stroke="#666666" points="294.5,-926.5 185.5,-926.5 185.5,-896 294.5,-896 294.5,-926.5"/>
<text xml:space="preserve" text-anchor="start" x="193.5" y="-913" font-family="Helvetica,sans-Serif" font-size="10.00">llvm::cl::basic_parser</text>
<text xml:space="preserve" text-anchor="middle" x="240" y="-901.75" font-family="Helvetica,sans-Serif" font-size="10.00">&lt; unsigned long &gt;</text>
</a>
</g>
</g>
<!-- Node0&#45;&gt;Node37 -->
<g id="edge1032_Node000000_Node000037" class="edge">
<title>Node0&#45;&gt;Node37</title>
<g id="a_edge1032_Node000000_Node000037"><a xlink:title=" ">
<path fill="none" stroke="#63b8ff" d="M68.31,-613.54C72.42,-666.93 90.48,-807.82 168.25,-886.25 173.11,-891.15 178.99,-895.1 185.26,-898.27"/>
<polygon fill="#63b8ff" stroke="#63b8ff" points="71.81,-613.46 67.65,-603.71 64.83,-613.93 71.81,-613.46"/>
</a>
</g>
</g>
<!-- Node39 -->
<g id="Node000039" class="node">
<title>Node39</title>
<g id="a_Node000039"><a xlink:href="classllvm_1_1cl_1_1basic__parser.html" target="_top" xlink:title=" ">
<polygon fill="white" stroke="#666666" points="297.5,-877.5 182.5,-877.5 182.5,-847 297.5,-847 297.5,-877.5"/>
<text xml:space="preserve" text-anchor="start" x="190.5" y="-864" font-family="Helvetica,sans-Serif" font-size="10.00">llvm::cl::basic_parser</text>
<text xml:space="preserve" text-anchor="middle" x="240" y="-852.75" font-family="Helvetica,sans-Serif" font-size="10.00">&lt; unsigned long long &gt;</text>
</a>
</g>
</g>
<!-- Node0&#45;&gt;Node39 -->
<g id="edge1034_Node000000_Node000039" class="edge">
<title>Node0&#45;&gt;Node39</title>
<g id="a_edge1034_Node000000_Node000039"><a xlink:title=" ">
<path fill="none" stroke="#63b8ff" d="M69.98,-613.41C77.4,-660.34 101.61,-773.98 168.25,-837.25 172.31,-841.11 177.01,-844.37 182,-847.14"/>
<polygon fill="#63b8ff" stroke="#63b8ff" points="73.48,-613.16 68.56,-603.77 66.55,-614.18 73.48,-613.16"/>
</a>
</g>
</g>
<!-- Node41 -->
<g id="Node000041" class="node">
<title>Node41</title>
<g id="a_Node000041"><a xlink:href="classllvm_1_1cl_1_1basic__parser.html" target="_top" xlink:title=" ">
<polygon fill="white" stroke="#666666" points="294.5,-828.5 185.5,-828.5 185.5,-798 294.5,-798 294.5,-828.5"/>
<text xml:space="preserve" text-anchor="start" x="193.5" y="-815" font-family="Helvetica,sans-Serif" font-size="10.00">llvm::cl::basic_parser</text>
<text xml:space="preserve" text-anchor="middle" x="240" y="-803.75" font-family="Helvetica,sans-Serif" font-size="10.00">&lt; DataType &gt;</text>
</a>
</g>
</g>
<!-- Node0&#45;&gt;Node41 -->
<g id="edge1036_Node000000_Node000041" class="edge">
<title>Node0&#45;&gt;Node41</title>
<g id="a_edge1036_Node000000_Node000041"><a xlink:title=" ">
<path fill="none" stroke="#63b8ff" d="M72.28,-612.87C83.2,-652.48 112.4,-739.55 168.25,-788.25 173.26,-792.62 179.08,-796.23 185.19,-799.23"/>
<polygon fill="#63b8ff" stroke="#63b8ff" points="75.73,-612.24 69.8,-603.46 68.96,-614.02 75.73,-612.24"/>
</a>
</g>
</g>
<!-- Node2 -->
<g id="Node000002" class="node">
<title>Node2</title>
<g id="a_Node000002"><a xlink:href="classllvm_1_1cl_1_1parser_3_01bool_01_4.html" target="_top" xlink:title=" ">
<polygon fill="white" stroke="#666666" points="480.75,-828.88 364.25,-828.88 364.25,-809.62 480.75,-809.62 480.75,-828.88"/>
<text xml:space="preserve" text-anchor="middle" x="422.5" y="-815.38" font-family="Helvetica,sans-Serif" font-size="10.00">llvm::cl::parser&lt; bool &gt;</text>
</a>
</g>
</g>
<!-- Node1&#45;&gt;Node2 -->
<g id="edge1011_Node000001_Node000002" class="edge">
<title>Node1&#45;&gt;Node2</title>
<g id="a_edge1011_Node000001_Node000002"><a xlink:title=" ">
<path fill="none" stroke="#63b8ff" d="M295.81,-783.59C312.41,-789.22 330.76,-795.2 347.75,-800.25 358.14,-803.34 369.45,-806.4 380.01,-809.13"/>
<polygon fill="#63b8ff" stroke="#63b8ff" points="297.2,-780.37 286.61,-780.44 294.94,-786.99 297.2,-780.37"/>
</a>
</g>
</g>
<!-- Node16 -->
<g id="Node000016" class="node">
<title>Node16</title>
<g id="a_Node000016"><a xlink:href="classllvm_1_1cl_1_1parser_3_01boolOrDefault_01_4.html" target="_top" xlink:title=" ">
<polygon fill="white" stroke="#666666" points="481.5,-791.5 363.5,-791.5 363.5,-761 481.5,-761 481.5,-791.5"/>
<text xml:space="preserve" text-anchor="start" x="371.5" y="-778" font-family="Helvetica,sans-Serif" font-size="10.00">llvm::cl::parser&lt; boolOr</text>
<text xml:space="preserve" text-anchor="middle" x="422.5" y="-766.75" font-family="Helvetica,sans-Serif" font-size="10.00">Default &gt;</text>
</a>
</g>
</g>
<!-- Node17&#45;&gt;Node16 -->
<g id="edge1013_Node000017_Node000016" class="edge">
<title>Node17&#45;&gt;Node16</title>
<g id="a_edge1013_Node000017_Node000016"><a xlink:title=" ">
<path fill="none" stroke="#63b8ff" d="M296.21,-734.61C312.76,-740.35 330.97,-746.61 347.75,-752.25 355.79,-754.95 364.34,-757.78 372.66,-760.5"/>
<polygon fill="#63b8ff" stroke="#63b8ff" points="297.63,-731.4 287.03,-731.42 295.33,-738.01 297.63,-731.4"/>
</a>
</g>
</g>
<!-- Node18 -->
<g id="Node000018" class="node">
<title>Node18</title>
<g id="a_Node000018"><a xlink:href="classllvm_1_1cl_1_1parser_3_01char_01_4.html" target="_top" xlink:title=" ">
<polygon fill="white" stroke="#666666" points="481.12,-742.88 363.88,-742.88 363.88,-723.62 481.12,-723.62 481.12,-742.88"/>
<text xml:space="preserve" text-anchor="middle" x="422.5" y="-729.38" font-family="Helvetica,sans-Serif" font-size="10.00">llvm::cl::parser&lt; char &gt;</text>
</a>
</g>
</g>
<!-- Node19&#45;&gt;Node18 -->
<g id="edge1015_Node000019_Node000018" class="edge">
<title>Node19&#45;&gt;Node18</title>
<g id="a_edge1015_Node000019_Node000018"><a xlink:title=" ">
<path fill="none" stroke="#63b8ff" d="M300.93,-686.23C304.63,-687.83 308.27,-689.51 311.75,-691.25 328.95,-699.85 330.14,-707.52 347.75,-715.25 354.87,-718.38 362.63,-721.02 370.35,-723.23"/>
<polygon fill="#63b8ff" stroke="#63b8ff" points="302.36,-683.03 291.77,-682.49 299.71,-689.51 302.36,-683.03"/>
</a>
</g>
</g>
<!-- Node20 -->
<g id="Node000020" class="node">
<title>Node20</title>
<g id="a_Node000020"><a xlink:href="classllvm_1_1cl_1_1parser_3_01double_01_4.html" target="_top" xlink:title=" ">
<polygon fill="white" stroke="#666666" points="486,-705.88 359,-705.88 359,-686.62 486,-686.62 486,-705.88"/>
<text xml:space="preserve" text-anchor="middle" x="422.5" y="-692.38" font-family="Helvetica,sans-Serif" font-size="10.00">llvm::cl::parser&lt; double &gt;</text>
</a>
</g>
</g>
<!-- Node21&#45;&gt;Node20 -->
<g id="edge1017_Node000021_Node000020" class="edge">
<title>Node21&#45;&gt;Node20</title>
<g id="a_edge1017_Node000021_Node000020"><a xlink:title=" ">
<path fill="none" stroke="#63b8ff" d="M303.8,-637.69C306.54,-639.12 309.2,-640.64 311.75,-642.25 330.89,-654.32 328.03,-667.16 347.75,-678.25 353.38,-681.42 359.55,-684.03 365.86,-686.19"/>
<polygon fill="#63b8ff" stroke="#63b8ff" points="305.53,-634.64 295,-633.5 302.53,-640.96 305.53,-634.64"/>
</a>
</g>
</g>
<!-- Node22 -->
<g id="Node000022" class="node">
<title>Node22</title>
<g id="a_Node000022"><a xlink:href="classllvm_1_1cl_1_1parser_3_01float_01_4.html" target="_top" xlink:title=" ">
<polygon fill="white" stroke="#666666" points="481.12,-668.88 363.88,-668.88 363.88,-649.62 481.12,-649.62 481.12,-668.88"/>
<text xml:space="preserve" text-anchor="middle" x="422.5" y="-655.38" font-family="Helvetica,sans-Serif" font-size="10.00">llvm::cl::parser&lt; float &gt;</text>
</a>
</g>
</g>
<!-- Node23&#45;&gt;Node22 -->
<g id="edge1019_Node000023_Node000022" class="edge">
<title>Node23&#45;&gt;Node22</title>
<g id="a_edge1019_Node000023_Node000022"><a xlink:title=" ">
<path fill="none" stroke="#63b8ff" d="M304.92,-588.77C307.28,-590.18 309.57,-591.67 311.75,-593.25 333.04,-608.72 325.81,-625.73 347.75,-640.25 353.26,-643.9 359.44,-646.85 365.8,-649.23"/>
<polygon fill="#63b8ff" stroke="#63b8ff" points="306.66,-585.74 296.18,-584.19 303.41,-591.94 306.66,-585.74"/>
</a>
</g>
</g>
<!-- Node24 -->
<g id="Node000024" class="node">
<title>Node24</title>
<g id="a_Node000024"><a xlink:href="classllvm_1_1cl_1_1parser_3_01int_01_4.html" target="_top" xlink:title=" ">
<polygon fill="white" stroke="#666666" points="477,-243.88 368,-243.88 368,-224.62 477,-224.62 477,-243.88"/>
<text xml:space="preserve" text-anchor="middle" x="422.5" y="-230.38" font-family="Helvetica,sans-Serif" font-size="10.00">llvm::cl::parser&lt; int &gt;</text>
</a>
</g>
</g>
<!-- Node25&#45;&gt;Node24 -->
<g id="edge1021_Node000025_Node000024" class="edge">
<title>Node25&#45;&gt;Node24</title>
<g id="a_edge1021_Node000025_Node000024"><a xlink:title=" ">
<path fill="none" stroke="#63b8ff" d="M304.27,-355.73C306.94,-353.75 309.45,-351.6 311.75,-349.25 343.92,-316.39 313.4,-282.83 347.75,-252.25 353.46,-247.17 360.37,-243.46 367.64,-240.77"/>
<polygon fill="#63b8ff" stroke="#63b8ff" points="302.53,-352.68 295.95,-360.98 306.27,-358.6 302.53,-352.68"/>
</a>
</g>
</g>
<!-- Node26 -->
<g id="Node000026" class="node">
<title>Node26</title>
<g id="a_Node000026"><a xlink:href="classllvm_1_1cl_1_1parser_3_01long_01_4.html" target="_top" xlink:title=" ">
<polygon fill="white" stroke="#666666" points="480.75,-206.88 364.25,-206.88 364.25,-187.62 480.75,-187.62 480.75,-206.88"/>
<text xml:space="preserve" text-anchor="middle" x="422.5" y="-193.38" font-family="Helvetica,sans-Serif" font-size="10.00">llvm::cl::parser&lt; long &gt;</text>
</a>
</g>
</g>
<!-- Node27&#45;&gt;Node26 -->
<g id="edge1023_Node000027_Node000026" class="edge">
<title>Node27&#45;&gt;Node26</title>
<g id="a_edge1023_Node000027_Node000026"><a xlink:title=" ">
<path fill="none" stroke="#63b8ff" d="M298.01,-304.06C302.98,-300.89 307.67,-297.3 311.75,-293.25 338.85,-266.36 318.28,-239.52 347.75,-215.25 352.53,-211.31 358.04,-208.21 363.86,-205.78"/>
<polygon fill="#63b8ff" stroke="#63b8ff" points="296.45,-300.92 289.48,-308.9 299.91,-307.01 296.45,-300.92"/>
</a>
</g>
</g>
<!-- Node28 -->
<g id="Node000028" class="node">
<title>Node28</title>
<g id="a_Node000028"><a xlink:href="classllvm_1_1cl_1_1parser_3_01long_01long_01_4.html" target="_top" xlink:title=" ">
<polygon fill="white" stroke="#666666" points="476.25,-169.5 368.75,-169.5 368.75,-139 476.25,-139 476.25,-169.5"/>
<text xml:space="preserve" text-anchor="start" x="376.75" y="-156" font-family="Helvetica,sans-Serif" font-size="10.00">llvm::cl::parser&lt; long</text>
<text xml:space="preserve" text-anchor="middle" x="422.5" y="-144.75" font-family="Helvetica,sans-Serif" font-size="10.00"> long &gt;</text>
</a>
</g>
</g>
<!-- Node29&#45;&gt;Node28 -->
<g id="edge1025_Node000029_Node000028" class="edge">
<title>Node29&#45;&gt;Node28</title>
<g id="a_edge1025_Node000029_Node000028"><a xlink:title=" ">
<path fill="none" stroke="#63b8ff" d="M287.93,-248.2C296.35,-243.3 304.68,-237.62 311.75,-231.25 332.9,-212.19 324.98,-195.36 347.75,-178.25 353.99,-173.56 361.19,-169.76 368.6,-166.69"/>
<polygon fill="#63b8ff" stroke="#63b8ff" points="286.5,-244.99 279.41,-252.86 289.86,-251.13 286.5,-244.99"/>
</a>
</g>
</g>
<!-- Node30 -->
<g id="Node000030" class="node">
<title>Node30</title>
<g id="a_Node000030"><a xlink:href="classllvm_1_1cl_1_1parser_3_01std_1_1optional_3_01std_1_1string_01_4_01_4.html" target="_top" xlink:title=" ">
<polygon fill="white" stroke="#666666" points="485.62,-120.5 359.38,-120.5 359.38,-90 485.62,-90 485.62,-120.5"/>
<text xml:space="preserve" text-anchor="start" x="367.38" y="-107" font-family="Helvetica,sans-Serif" font-size="10.00">llvm::cl::parser&lt; std</text>
<text xml:space="preserve" text-anchor="middle" x="422.5" y="-95.75" font-family="Helvetica,sans-Serif" font-size="10.00">::optional&lt; std::string &gt; &gt;</text>
</a>
</g>
</g>
<!-- Node31&#45;&gt;Node30 -->
<g id="edge1027_Node000031_Node000030" class="edge">
<title>Node31&#45;&gt;Node30</title>
<g id="a_edge1027_Node000031_Node000030"><a xlink:title=" ">
<path fill="none" stroke="#63b8ff" d="M277.66,-173.41C297.62,-159.16 323.2,-142.32 347.75,-130.25 354.67,-126.85 362.16,-123.73 369.63,-120.92"/>
<polygon fill="#63b8ff" stroke="#63b8ff" points="275.61,-170.58 269.56,-179.28 279.72,-176.24 275.61,-170.58"/>
</a>
</g>
</g>
<!-- Node32 -->
<g id="Node000032" class="node">
<title>Node32</title>
<g id="a_Node000032"><a xlink:href="classllvm_1_1cl_1_1parser_3_01std_1_1string_01_4.html" target="_top" xlink:title=" ">
<polygon fill="white" stroke="#666666" points="474,-71.5 371,-71.5 371,-41 474,-41 474,-71.5"/>
<text xml:space="preserve" text-anchor="start" x="379" y="-58" font-family="Helvetica,sans-Serif" font-size="10.00">llvm::cl::parser&lt; std</text>
<text xml:space="preserve" text-anchor="middle" x="422.5" y="-46.75" font-family="Helvetica,sans-Serif" font-size="10.00">::string &gt;</text>
</a>
</g>
</g>
<!-- Node33&#45;&gt;Node32 -->
<g id="edge1029_Node000033_Node000032" class="edge">
<title>Node33&#45;&gt;Node32</title>
<g id="a_edge1029_Node000033_Node000032"><a xlink:title=" ">
<path fill="none" stroke="#63b8ff" d="M295.32,-99.73C312.11,-93.75 330.68,-87.18 347.75,-81.25 356.56,-78.19 365.98,-74.96 375.04,-71.88"/>
<polygon fill="#63b8ff" stroke="#63b8ff" points="294.24,-96.4 286,-103.06 296.6,-103 294.24,-96.4"/>
</a>
</g>
</g>
<!-- Node34 -->
<g id="Node000034" class="node">
<title>Node34</title>
<g id="a_Node000034"><a xlink:href="classllvm_1_1cl_1_1parser_3_01unsigned_01_4.html" target="_top" xlink:title=" ">
<polygon fill="white" stroke="#666666" points="491.25,-22.88 353.75,-22.88 353.75,-3.63 491.25,-3.63 491.25,-22.88"/>
<text xml:space="preserve" text-anchor="middle" x="422.5" y="-9.38" font-family="Helvetica,sans-Serif" font-size="10.00">llvm::cl::parser&lt; unsigned &gt;</text>
</a>
</g>
</g>
<!-- Node35&#45;&gt;Node34 -->
<g id="edge1031_Node000035_Node000034" class="edge">
<title>Node35&#45;&gt;Node34</title>
<g id="a_edge1031_Node000035_Node000034"><a xlink:title=" ">
<path fill="none" stroke="#63b8ff" d="M306.15,-14.53C321.47,-14.36 337.83,-14.18 353.28,-14.01"/>
<polygon fill="#63b8ff" stroke="#63b8ff" points="306.14,-11.03 296.18,-14.64 306.22,-18.03 306.14,-11.03"/>
</a>
</g>
</g>
<!-- Node36 -->
<g id="Node000036" class="node">
<title>Node36</title>
<g id="a_Node000036"><a xlink:href="classllvm_1_1cl_1_1parser_3_01unsigned_01long_01_4.html" target="_top" xlink:title=" ">
<polygon fill="white" stroke="#666666" points="486.75,-926.5 358.25,-926.5 358.25,-896 486.75,-896 486.75,-926.5"/>
<text xml:space="preserve" text-anchor="start" x="366.25" y="-913" font-family="Helvetica,sans-Serif" font-size="10.00">llvm::cl::parser&lt; unsigned</text>
<text xml:space="preserve" text-anchor="middle" x="422.5" y="-901.75" font-family="Helvetica,sans-Serif" font-size="10.00"> long &gt;</text>
</a>
</g>
</g>
<!-- Node37&#45;&gt;Node36 -->
<g id="edge1033_Node000037_Node000036" class="edge">
<title>Node37&#45;&gt;Node36</title>
<g id="a_edge1033_Node000037_Node000036"><a xlink:title=" ">
<path fill="none" stroke="#63b8ff" d="M306.1,-911.25C322.95,-911.25 341.08,-911.25 357.86,-911.25"/>
<polygon fill="#63b8ff" stroke="#63b8ff" points="306.18,-907.75 296.18,-911.25 306.18,-914.75 306.18,-907.75"/>
</a>
</g>
</g>
<!-- Node38 -->
<g id="Node000038" class="node">
<title>Node38</title>
<g id="a_Node000038"><a xlink:href="classllvm_1_1cl_1_1parser_3_01unsigned_01long_01long_01_4.html" target="_top" xlink:title=" ">
<polygon fill="white" stroke="#666666" points="486.75,-877.5 358.25,-877.5 358.25,-847 486.75,-847 486.75,-877.5"/>
<text xml:space="preserve" text-anchor="start" x="366.25" y="-864" font-family="Helvetica,sans-Serif" font-size="10.00">llvm::cl::parser&lt; unsigned</text>
<text xml:space="preserve" text-anchor="middle" x="422.5" y="-852.75" font-family="Helvetica,sans-Serif" font-size="10.00"> long long &gt;</text>
</a>
</g>
</g>
<!-- Node39&#45;&gt;Node38 -->
<g id="edge1035_Node000039_Node000038" class="edge">
<title>Node39&#45;&gt;Node38</title>
<g id="a_edge1035_Node000039_Node000038"><a xlink:title=" ">
<path fill="none" stroke="#63b8ff" d="M309.06,-862.25C325.06,-862.25 342.06,-862.25 357.86,-862.25"/>
<polygon fill="#63b8ff" stroke="#63b8ff" points="309.13,-858.75 299.13,-862.25 309.13,-865.75 309.13,-858.75"/>
</a>
</g>
</g>
<!-- Node3 -->
<g id="Node000003" class="node">
<title>Node3</title>
<g id="a_Node000003"><a xlink:href="classllvm_1_1cl_1_1generic__parser__base.html" target="_top" xlink:title=" ">
<polygon fill="white" stroke="#666666" points="311.75,-431.88 168.25,-431.88 168.25,-412.62 311.75,-412.62 311.75,-431.88"/>
<text xml:space="preserve" text-anchor="middle" x="240" y="-418.38" font-family="Helvetica,sans-Serif" font-size="10.00">llvm::cl::generic_parser_base</text>
</a>
</g>
</g>
<!-- Node3&#45;&gt;Node2 -->
<g id="edge1047_Node000003_Node000002" class="edge">
<title>Node3&#45;&gt;Node2</title>
<g id="a_edge1047_Node000003_Node000002"><a xlink:title=" ">
<path fill="none" stroke="#63b8ff" d="M255.28,-441.4C271.74,-464.5 298.24,-505.14 311.75,-544.25 349.27,-652.85 271.2,-714.57 347.75,-800.25 352.24,-805.28 357.87,-809.06 364.01,-811.89"/>
<polygon fill="#63b8ff" stroke="#63b8ff" points="258.31,-439.61 249.6,-433.58 252.65,-443.72 258.31,-439.61"/>
</a>
</g>
</g>
<!-- Node3&#45;&gt;Node16 -->
<g id="edge1048_Node000003_Node000016" class="edge">
<title>Node3&#45;&gt;Node16</title>
<g id="a_edge1048_Node000003_Node000016"><a xlink:title=" ">
<path fill="none" stroke="#63b8ff" d="M255.04,-441.43C271.28,-464.6 297.61,-505.33 311.75,-544.25 343.78,-632.43 286.33,-681.33 347.75,-752.25 352.07,-757.24 357.44,-761.19 363.29,-764.33"/>
<polygon fill="#63b8ff" stroke="#63b8ff" points="257.9,-439.42 249.24,-433.32 252.21,-443.49 257.9,-439.42"/>
</a>
</g>
</g>
<!-- Node3&#45;&gt;Node18 -->
<g id="edge1049_Node000003_Node000018" class="edge">
<title>Node3&#45;&gt;Node18</title>
<g id="a_edge1049_Node000003_Node000018"><a xlink:title=" ">
<path fill="none" stroke="#63b8ff" d="M254.79,-441.52C270.81,-464.78 296.91,-505.6 311.75,-544.25 339.58,-616.76 293.71,-659.46 347.75,-715.25 352.24,-719.89 357.72,-723.41 363.63,-726.07"/>
<polygon fill="#63b8ff" stroke="#63b8ff" points="257.69,-439.56 249.09,-433.38 251.96,-443.58 257.69,-439.56"/>
</a>
</g>
</g>
<!-- Node3&#45;&gt;Node20 -->
<g id="edge1050_Node000003_Node000020" class="edge">
<title>Node3&#45;&gt;Node20</title>
<g id="a_edge1050_Node000003_Node000020"><a xlink:title=" ">
<path fill="none" stroke="#63b8ff" d="M254.43,-441.66C270.09,-465.06 295.86,-506.02 311.75,-544.25 335.42,-601.19 303.64,-635.15 347.75,-678.25 350.95,-681.38 354.61,-684 358.54,-686.18"/>
<polygon fill="#63b8ff" stroke="#63b8ff" points="257.38,-439.78 248.87,-433.47 251.59,-443.71 257.38,-439.78"/>
</a>
</g>
</g>
<!-- Node3&#45;&gt;Node22 -->
<g id="edge1051_Node000003_Node000022" class="edge">
<title>Node3&#45;&gt;Node22</title>
<g id="a_edge1051_Node000003_Node000022"><a xlink:title=" ">
<path fill="none" stroke="#63b8ff" d="M253.57,-441.58C268.59,-465.19 293.94,-506.64 311.75,-544.25 331.25,-585.44 313.86,-609.79 347.75,-640.25 352.37,-644.4 357.78,-647.67 363.54,-650.24"/>
<polygon fill="#63b8ff" stroke="#63b8ff" points="256.62,-439.86 248.27,-433.34 250.73,-443.64 256.62,-439.86"/>
</a>
</g>
</g>
<!-- Node3&#45;&gt;Node24 -->
<g id="edge1052_Node000003_Node000024" class="edge">
<title>Node3&#45;&gt;Node24</title>
<g id="a_edge1052_Node000003_Node000024"><a xlink:title=" ">
<path fill="none" stroke="#63b8ff" d="M306.05,-406.33C308.08,-404.79 309.99,-403.1 311.75,-401.25 358.67,-351.85 299.63,-300.48 347.75,-252.25 353.34,-246.65 360.35,-242.69 367.83,-239.9"/>
<polygon fill="#63b8ff" stroke="#63b8ff" points="304.47,-403.19 297.78,-411.4 308.13,-409.16 304.47,-403.19"/>
</a>
</g>
</g>
<!-- Node3&#45;&gt;Node26 -->
<g id="edge1053_Node000003_Node000026" class="edge">
<title>Node3&#45;&gt;Node26</title>
<g id="a_edge1053_Node000003_Node000026"><a xlink:title=" ">
<path fill="none" stroke="#63b8ff" d="M306.28,-406.34C308.24,-404.79 310.07,-403.1 311.75,-401.25 368.32,-338.88 289.66,-276.21 347.75,-215.25 352.3,-210.48 357.88,-206.89 363.92,-204.19"/>
<polygon fill="#63b8ff" stroke="#63b8ff" points="304.88,-403.08 298.32,-411.4 308.63,-408.99 304.88,-403.08"/>
</a>
</g>
</g>
<!-- Node3&#45;&gt;Node28 -->
<g id="edge1054_Node000003_Node000028" class="edge">
<title>Node3&#45;&gt;Node28</title>
<g id="a_edge1054_Node000003_Node000028"><a xlink:title=" ">
<path fill="none" stroke="#63b8ff" d="M306.91,-405.95C308.64,-404.51 310.26,-402.95 311.75,-401.25 378.04,-325.85 282.45,-254.51 347.75,-178.25 353.27,-171.81 360.54,-167.08 368.36,-163.62"/>
<polygon fill="#63b8ff" stroke="#63b8ff" points="305.19,-402.89 298.78,-411.32 309.06,-408.73 305.19,-402.89"/>
</a>
</g>
</g>
<!-- Node3&#45;&gt;Node30 -->
<g id="edge1055_Node000003_Node000030" class="edge">
<title>Node3&#45;&gt;Node30</title>
<g id="a_edge1055_Node000003_Node000030"><a xlink:title=" ">
<path fill="none" stroke="#63b8ff" d="M306.97,-406C308.68,-404.55 310.28,-402.97 311.75,-401.25 390.69,-308.88 270.59,-224.11 347.75,-130.25 350.93,-126.39 354.73,-123.12 358.9,-120.35"/>
<polygon fill="#63b8ff" stroke="#63b8ff" points="305.25,-402.94 298.9,-411.42 309.16,-408.75 305.25,-402.94"/>
</a>
</g>
</g>
<!-- Node3&#45;&gt;Node32 -->
<g id="edge1056_Node000003_Node000032" class="edge">
<title>Node3&#45;&gt;Node32</title>
<g id="a_edge1056_Node000003_Node000032"><a xlink:title=" ">
<path fill="none" stroke="#63b8ff" d="M307.13,-405.94C308.78,-404.51 310.33,-402.94 311.75,-401.25 403.64,-291.52 257.98,-192.72 347.75,-81.25 353.69,-73.88 361.89,-68.67 370.68,-64.99"/>
<polygon fill="#63b8ff" stroke="#63b8ff" points="305.59,-402.76 299.33,-411.31 309.55,-408.53 305.59,-402.76"/>
</a>
</g>
</g>
<!-- Node3&#45;&gt;Node34 -->
<g id="edge1057_Node000003_Node000034" class="edge">
<title>Node3&#45;&gt;Node34</title>
<g id="a_edge1057_Node000003_Node000034"><a xlink:title=" ">
<path fill="none" stroke="#63b8ff" d="M307.57,-405.61C309.06,-404.26 310.46,-402.81 311.75,-401.25 364.18,-337.69 294.17,-94.84 347.75,-32.25 350.85,-28.63 354.53,-25.66 358.57,-23.22"/>
<polygon fill="#63b8ff" stroke="#63b8ff" points="305.56,-402.74 299.39,-411.35 309.58,-408.47 305.56,-402.74"/>
</a>
</g>
</g>
<!-- Node3&#45;&gt;Node36 -->
<g id="edge1058_Node000003_Node000036" class="edge">
<title>Node3&#45;&gt;Node36</title>
<g id="a_edge1058_Node000003_Node000036"><a xlink:title=" ">
<path fill="none" stroke="#63b8ff" d="M255.52,-441.32C272.2,-464.35 298.92,-504.91 311.75,-544.25 335.44,-616.91 300.03,-826.56 347.75,-886.25 350.62,-889.84 354.03,-892.92 357.78,-895.56"/>
<polygon fill="#63b8ff" stroke="#63b8ff" points="258.51,-439.48 249.75,-433.52 252.88,-443.64 258.51,-439.48"/>
</a>
</g>
</g>
<!-- Node3&#45;&gt;Node38 -->
<g id="edge1059_Node000003_Node000038" class="edge">
<title>Node3&#45;&gt;Node38</title>
<g id="a_edge1059_Node000003_Node000038"><a xlink:title=" ">
<path fill="none" stroke="#63b8ff" d="M255.4,-441.35C271.97,-464.42 298.59,-505.02 311.75,-544.25 332.69,-606.65 305.9,-787.44 347.75,-838.25 350.66,-841.78 354.1,-844.8 357.87,-847.38"/>
<polygon fill="#63b8ff" stroke="#63b8ff" points="258.41,-439.54 249.68,-433.55 252.77,-443.68 258.41,-439.54"/>
</a>
</g>
</g>
<!-- Node4 -->
<g id="Node000004" class="node">
<title>Node4</title>
<g id="a_Node000004"><a xlink:href="classllvm_1_1cl_1_1parser.html" target="_top" xlink:title=" ">
<polygon fill="white" stroke="#666666" points="479.25,-631.5 365.75,-631.5 365.75,-601 479.25,-601 479.25,-631.5"/>
<text xml:space="preserve" text-anchor="start" x="373.75" y="-618" font-family="Helvetica,sans-Serif" font-size="10.00">llvm::cl::parser&lt; const</text>
<text xml:space="preserve" text-anchor="middle" x="422.5" y="-606.75" font-family="Helvetica,sans-Serif" font-size="10.00"> PassInfo * &gt;</text>
</a>
</g>
</g>
<!-- Node3&#45;&gt;Node4 -->
<g id="edge1037_Node000003_Node000004" class="edge">
<title>Node3&#45;&gt;Node4</title>
<g id="a_edge1037_Node000003_Node000004"><a xlink:title=" ">
<path fill="none" stroke="#63b8ff" d="M252.26,-441.8C276.8,-484.17 334.04,-581.55 347.75,-592.25 353.06,-596.39 359.11,-599.83 365.4,-602.68"/>
<polygon fill="#63b8ff" stroke="#63b8ff" points="255.43,-440.29 247.4,-433.39 249.37,-443.8 255.43,-440.29"/>
</a>
</g>
</g>
<!-- Node7 -->
<g id="Node000007" class="node">
<title>Node7</title>
<g id="a_Node000007"><a xlink:href="classllvm_1_1cl_1_1parser.html" target="_top" xlink:title=" ">
<polygon fill="white" stroke="#666666" points="487.12,-545.5 357.88,-545.5 357.88,-515 487.12,-515 487.12,-545.5"/>
<text xml:space="preserve" text-anchor="start" x="365.88" y="-532" font-family="Helvetica,sans-Serif" font-size="10.00">llvm::cl::parser&lt; RegAlloc</text>
<text xml:space="preserve" text-anchor="middle" x="422.5" y="-520.75" font-family="Helvetica,sans-Serif" font-size="10.00">Type &gt;</text>
</a>
</g>
</g>
<!-- Node3&#45;&gt;Node7 -->
<g id="edge1039_Node000003_Node000007" class="edge">
<title>Node3&#45;&gt;Node7</title>
<g id="a_edge1039_Node000003_Node000007"><a xlink:title=" ">
<path fill="none" stroke="#63b8ff" d="M259.27,-439.97C279.46,-458.71 313.66,-488.04 347.75,-506.25 353.57,-509.36 359.86,-512.16 366.24,-514.65"/>
<polygon fill="#63b8ff" stroke="#63b8ff" points="261.8,-437.55 252.13,-433.22 256.99,-442.64 261.8,-437.55"/>
</a>
</g>
</g>
<!-- Node9 -->
<g id="Node000009" class="node">
<title>Node9</title>
<g id="a_Node000009"><a xlink:href="classllvm_1_1cl_1_1parser.html" target="_top" xlink:title=" ">
<polygon fill="white" stroke="#666666" points="490.12,-437.5 354.88,-437.5 354.88,-407 490.12,-407 490.12,-437.5"/>
<text xml:space="preserve" text-anchor="start" x="362.88" y="-424" font-family="Helvetica,sans-Serif" font-size="10.00">llvm::cl::parser&lt; Registry</text>
<text xml:space="preserve" text-anchor="middle" x="422.5" y="-412.75" font-family="Helvetica,sans-Serif" font-size="10.00">Class::FunctionPassCtor &gt;</text>
</a>
</g>
</g>
<!-- Node3&#45;&gt;Node9 -->
<g id="edge1041_Node000003_Node000009" class="edge">
<title>Node3&#45;&gt;Node9</title>
<g id="a_edge1041_Node000003_Node000009"><a xlink:title=" ">
<path fill="none" stroke="#63b8ff" d="M323.35,-422.25C333.82,-422.25 344.43,-422.25 354.61,-422.25"/>
<polygon fill="#63b8ff" stroke="#63b8ff" points="323.59,-418.75 313.59,-422.25 323.59,-425.75 323.59,-418.75"/>
</a>
</g>
</g>
<!-- Node12 -->
<g id="Node000012" class="node">
<title>Node12</title>
<g id="a_Node000012"><a xlink:href="classllvm_1_1cl_1_1parser.html" target="_top" xlink:title=" ">
<polygon fill="white" stroke="#666666" points="484.5,-389.12 360.5,-389.12 360.5,-347.38 484.5,-347.38 484.5,-389.12"/>
<text xml:space="preserve" text-anchor="start" x="368.5" y="-375.62" font-family="Helvetica,sans-Serif" font-size="10.00">llvm::cl::parser&lt; std</text>
<text xml:space="preserve" text-anchor="start" x="368.5" y="-364.38" font-family="Helvetica,sans-Serif" font-size="10.00">::set&lt; SPIRV::Extension</text>
<text xml:space="preserve" text-anchor="middle" x="422.5" y="-353.12" font-family="Helvetica,sans-Serif" font-size="10.00">::Extension &gt; &gt;</text>
</a>
</g>
</g>
<!-- Node3&#45;&gt;Node12 -->
<g id="edge1043_Node000003_Node000012" class="edge">
<title>Node3&#45;&gt;Node12</title>
<g id="a_edge1043_Node000003_Node000012"><a xlink:title=" ">
<path fill="none" stroke="#63b8ff" d="M286.13,-408.88C294.64,-406.35 303.47,-403.72 311.75,-401.25 327.48,-396.55 344.47,-391.45 360.27,-386.7"/>
<polygon fill="#63b8ff" stroke="#63b8ff" points="285.24,-405.5 276.64,-411.7 287.23,-412.21 285.24,-405.5"/>
</a>
</g>
</g>
<!-- Node14 -->
<g id="Node000014" class="node">
<title>Node14</title>
<g id="a_Node000014"><a xlink:href="classllvm_1_1cl_1_1parser.html" target="_top" xlink:title=" ">
<polygon fill="white" stroke="#666666" points="481.12,-329.5 363.88,-329.5 363.88,-299 481.12,-299 481.12,-329.5"/>
<text xml:space="preserve" text-anchor="start" x="371.88" y="-316" font-family="Helvetica,sans-Serif" font-size="10.00">llvm::cl::parser&lt; std</text>
<text xml:space="preserve" text-anchor="middle" x="422.5" y="-304.75" font-family="Helvetica,sans-Serif" font-size="10.00">::optional&lt; uint64_t &gt; &gt;</text>
</a>
</g>
</g>
<!-- Node3&#45;&gt;Node14 -->
<g id="edge1045_Node000003_Node000014" class="edge">
<title>Node3&#45;&gt;Node14</title>
<g id="a_edge1045_Node000003_Node000014"><a xlink:title=" ">
<path fill="none" stroke="#63b8ff" d="M302.53,-407.35C305.79,-405.54 308.89,-403.52 311.75,-401.25 337.03,-381.22 322.74,-358.61 347.75,-338.25 352.55,-334.34 358.01,-331.06 363.74,-328.31"/>
<polygon fill="#63b8ff" stroke="#63b8ff" points="301.33,-404.05 293.78,-411.48 304.32,-410.37 301.33,-404.05"/>
</a>
</g>
</g>
<!-- Node40 -->
<g id="Node000040" class="node">
<title>Node40</title>
<g id="a_Node000040"><a xlink:href="classllvm_1_1cl_1_1parser.html" target="_top" xlink:title=" ">
<polygon fill="white" stroke="#666666" points="492.75,-280.88 352.25,-280.88 352.25,-261.62 492.75,-261.62 492.75,-280.88"/>
<text xml:space="preserve" text-anchor="middle" x="422.5" y="-267.38" font-family="Helvetica,sans-Serif" font-size="10.00">llvm::cl::parser&lt; DataType &gt;</text>
</a>
</g>
</g>
<!-- Node3&#45;&gt;Node40 -->
<g id="edge1060_Node000003_Node000040" class="edge">
<title>Node3&#45;&gt;Node40</title>
<g id="a_edge1060_Node000003_Node000040"><a xlink:title=" ">
<path fill="none" stroke="#63b8ff" d="M305.37,-406.51C307.63,-404.92 309.78,-403.17 311.75,-401.25 348.88,-365.04 309.97,-325.78 347.75,-290.25 351.6,-286.63 356.05,-283.67 360.82,-281.27"/>
<polygon fill="#63b8ff" stroke="#63b8ff" points="303.7,-403.44 296.76,-411.44 307.18,-409.51 303.7,-403.44"/>
</a>
</g>
</g>
<!-- Node5 -->
<g id="Node000005" class="node">
<title>Node5</title>
<g id="a_Node000005"><a xlink:href="classllvm_1_1PassNameParser.html" target="_top" xlink:title=" ">
<polygon fill="white" stroke="#666666" points="672.25,-603.88 555,-603.88 555,-584.62 672.25,-584.62 672.25,-603.88"/>
<text xml:space="preserve" text-anchor="middle" x="613.62" y="-590.38" font-family="Helvetica,sans-Serif" font-size="10.00">llvm::PassNameParser</text>
</a>
</g>
</g>
<!-- Node4&#45;&gt;Node5 -->
<g id="edge1038_Node000004_Node000005" class="edge">
<title>Node4&#45;&gt;Node5</title>
<g id="a_edge1038_Node000004_Node000005"><a xlink:title=" ">
<path fill="none" stroke="#63b8ff" d="M491.06,-608.39C511.86,-605.97 534.55,-603.33 554.64,-600.99"/>
<polygon fill="#63b8ff" stroke="#63b8ff" points="490.76,-604.9 481.24,-609.53 491.57,-611.85 490.76,-604.9"/>
</a>
</g>
</g>
<!-- Node8 -->
<g id="Node000008" class="node">
<title>Node8</title>
<g id="a_Node000008"><a xlink:href="classllvm_1_1RegAllocTypeParser.html" target="_top" xlink:title=" ">
<polygon fill="white" stroke="#666666" points="678.25,-539.88 549,-539.88 549,-520.62 678.25,-520.62 678.25,-539.88"/>
<text xml:space="preserve" text-anchor="middle" x="613.62" y="-526.38" font-family="Helvetica,sans-Serif" font-size="10.00">llvm::RegAllocTypeParser</text>
</a>
</g>
</g>
<!-- Node7&#45;&gt;Node8 -->
<g id="edge1040_Node000007_Node000008" class="edge">
<title>Node7&#45;&gt;Node8</title>
<g id="a_edge1040_Node000007_Node000008"><a xlink:title=" ">
<path fill="none" stroke="#63b8ff" d="M498.8,-530.25C515.32,-530.25 532.64,-530.25 548.66,-530.25"/>
<polygon fill="#63b8ff" stroke="#63b8ff" points="499.04,-526.75 489.04,-530.25 499.04,-533.75 499.04,-526.75"/>
</a>
</g>
</g>
<!-- Node10 -->
<g id="Node000010" class="node">
<title>Node10</title>
<g id="a_Node000010"><a xlink:href="classllvm_1_1RegisterPassParser.html" target="_top" xlink:title="RegisterPassParser class &#45; Handle the addition of new machine passes.">
<polygon fill="white" stroke="#666666" points="677.5,-464.5 549.75,-464.5 549.75,-434 677.5,-434 677.5,-464.5"/>
<text xml:space="preserve" text-anchor="start" x="557.75" y="-451" font-family="Helvetica,sans-Serif" font-size="10.00">llvm::RegisterPassParser</text>
<text xml:space="preserve" text-anchor="middle" x="613.62" y="-439.75" font-family="Helvetica,sans-Serif" font-size="10.00">&lt; RegistryClass &gt;</text>
</a>
</g>
</g>
<!-- Node9&#45;&gt;Node10 -->
<g id="edge1042_Node000009_Node000010" class="edge">
<title>Node9&#45;&gt;Node10</title>
<g id="a_edge1042_Node000009_Node000010"><a xlink:title=" ">
<path fill="none" stroke="#63b8ff" d="M501.81,-433.43C517.62,-435.69 534.04,-438.03 549.26,-440.2"/>
<polygon fill="#63b8ff" stroke="#63b8ff" points="502.34,-429.97 491.94,-432.02 501.35,-436.9 502.34,-429.97"/>
</a>
</g>
</g>
<!-- Node13 -->
<g id="Node000013" class="node">
<title>Node13</title>
<g id="a_Node000013"><a xlink:href="structllvm_1_1SPIRVExtensionsParser.html" target="_top" xlink:title="Command line parser for toggling SPIR&#45;V extensions.">
<polygon fill="white" stroke="#666666" points="687.62,-377.88 539.62,-377.88 539.62,-358.62 687.62,-358.62 687.62,-377.88"/>
<text xml:space="preserve" text-anchor="middle" x="613.62" y="-364.38" font-family="Helvetica,sans-Serif" font-size="10.00">llvm::SPIRVExtensionsParser</text>
</a>
</g>
</g>
<!-- Node12&#45;&gt;Node13 -->
<g id="edge1044_Node000012_Node000013" class="edge">
<title>Node12&#45;&gt;Node13</title>
<g id="a_edge1044_Node000012_Node000013"><a xlink:title=" ">
<path fill="none" stroke="#63b8ff" d="M496.09,-368.25C510.27,-368.25 525.14,-368.25 539.33,-368.25"/>
<polygon fill="#63b8ff" stroke="#63b8ff" points="496.42,-364.75 486.42,-368.25 496.42,-371.75 496.42,-364.75"/>
</a>
</g>
</g>
<!-- Node15 -->
<g id="Node000015" class="node">
<title>Node15</title>
<g id="a_Node000015"><a xlink:href="classllvm_1_1remarks_1_1HotnessThresholdParser.html" target="_top" xlink:title=" ">
<polygon fill="white" stroke="#666666" points="694,-329.5 533.25,-329.5 533.25,-299 694,-299 694,-329.5"/>
<text xml:space="preserve" text-anchor="start" x="541.25" y="-316" font-family="Helvetica,sans-Serif" font-size="10.00">llvm::remarks::HotnessThreshold</text>
<text xml:space="preserve" text-anchor="middle" x="613.62" y="-304.75" font-family="Helvetica,sans-Serif" font-size="10.00">Parser</text>
</a>
</g>
</g>
<!-- Node14&#45;&gt;Node15 -->
<g id="edge1046_Node000014_Node000015" class="edge">
<title>Node14&#45;&gt;Node15</title>
<g id="a_edge1046_Node000014_Node000015"><a xlink:title=" ">
<path fill="none" stroke="#63b8ff" d="M492.76,-314.25C505.77,-314.25 519.47,-314.25 532.77,-314.25"/>
<polygon fill="#63b8ff" stroke="#63b8ff" points="493.04,-310.75 483.04,-314.25 493.04,-317.75 493.04,-310.75"/>
</a>
</g>
</g>
<!-- Node11 -->
<g id="Node000011" class="node">
<title>Node11</title>
<g id="a_Node000011"><a xlink:href="classllvm_1_1MachinePassRegistryListener.html" target="_top" xlink:title=" ">
<polygon fill="white" stroke="#666666" points="490.5,-497.12 354.5,-497.12 354.5,-455.38 490.5,-455.38 490.5,-497.12"/>
<text xml:space="preserve" text-anchor="start" x="362.5" y="-483.62" font-family="Helvetica,sans-Serif" font-size="10.00">llvm::MachinePassRegistry</text>
<text xml:space="preserve" text-anchor="start" x="362.5" y="-472.38" font-family="Helvetica,sans-Serif" font-size="10.00">Listener&lt; RegistryClass</text>
<text xml:space="preserve" text-anchor="middle" x="422.5" y="-461.12" font-family="Helvetica,sans-Serif" font-size="10.00">::FunctionPassCtor &gt;</text>
</a>
</g>
</g>
<!-- Node11&#45;&gt;Node10 -->
<g id="edge1061_Node000011_Node000010" class="edge">
<title>Node11&#45;&gt;Node10</title>
<g id="a_edge1061_Node000011_Node000010"><a xlink:title=" ">
<path fill="none" stroke="#63b8ff" d="M502.26,-465.01C517.93,-462.77 534.21,-460.45 549.28,-458.29"/>
<polygon fill="#63b8ff" stroke="#63b8ff" points="501.88,-461.52 492.48,-466.4 502.87,-468.45 501.88,-461.52"/>
</a>
</g>
</g>
<!-- Node6 -->
<g id="Node000006" class="node">
<title>Node6</title>
<g id="a_Node000006"><a xlink:href="structllvm_1_1PassRegistrationListener.html" target="_top" xlink:title="PassRegistrationListener class &#45; This class is meant to be derived from by clients that are intereste...">
<polygon fill="white" stroke="#666666" points="497.25,-582.88 347.75,-582.88 347.75,-563.62 497.25,-563.62 497.25,-582.88"/>
<text xml:space="preserve" text-anchor="middle" x="422.5" y="-569.38" font-family="Helvetica,sans-Serif" font-size="10.00">llvm::PassRegistrationListener</text>
</a>
</g>
</g>
<!-- Node6&#45;&gt;Node5 -->
<g id="edge1062_Node000006_Node000005" class="edge">
<title>Node6&#45;&gt;Node5</title>
<g id="a_edge1062_Node000006_Node000005"><a xlink:title=" ">
<path fill="none" stroke="#63b8ff" d="M508.91,-582.73C524.41,-584.45 540.24,-586.21 554.71,-587.82"/>
<polygon fill="#63b8ff" stroke="#63b8ff" points="509.53,-579.28 499.21,-581.66 508.76,-586.24 509.53,-579.28"/>
</a>
</g>
</g>
</g>
</svg>
