<?xml version="1.0" encoding="UTF-8" standalone="no"?>
<!DOCTYPE svg PUBLIC "-//W3C//DTD SVG 1.1//EN"
 "http://www.w3.org/Graphics/SVG/1.1/DTD/svg11.dtd">
<!-- Generated by graphviz version 14.1.3 (20260303.0454)
 -->
<!-- Title: Graphical Class Hierarchy Pages: 1 -->
<svg width="552pt" height="410pt"
 viewBox="0.00 0.00 552.00 410.00" xmlns="http://www.w3.org/2000/svg" xmlns:xlink="http://www.w3.org/1999/xlink">
<g id="graph0" class="graph" transform="scale(1 1) rotate(0) translate(4 405.75)">
<title>Graphical Class Hierarchy</title>
<!-- Node0 -->
<g id="Node000000" class="node">
<title>Node0</title>
<g id="a_Node000000"><a xlink:href="structllvm_1_1BTF_1_1CommonType.html" target="_top" xlink:title="The BTF common type definition.">
<polygon fill="white" stroke="#666666" points="372.88,-212 247.38,-212 247.38,-192.75 372.88,-192.75 372.88,-212"/>
<text xml:space="preserve" text-anchor="middle" x="310.12" y="-198.5" font-family="Helvetica,sans-Serif" font-size="10.00">llvm::BTF::CommonType</text>
</a>
</g>
</g>
<!-- Node1 -->
<g id="Node000001" class="node">
<title>Node1</title>
<g id="a_Node000001"><a xlink:href="structllvm_1_1BTF_1_1ArrayType.html" target="_top" xlink:title=" ">
<polygon fill="white" stroke="#666666" points="537.38,-300 428.38,-300 428.38,-280.75 537.38,-280.75 537.38,-300"/>
<text xml:space="preserve" text-anchor="middle" x="482.88" y="-286.5" font-family="Helvetica,sans-Serif" font-size="10.00">llvm::BTF::ArrayType</text>
</a>
</g>
</g>
<!-- Node0&#45;&gt;Node1 -->
<g id="edge911_Node000000_Node000001" class="edge">
<title>Node0&#45;&gt;Node1</title>
<g id="a_edge911_Node000000_Node000001"><a xlink:title=" ">
<path fill="none" stroke="#63b8ff" d="M360.47,-216.03C369.14,-219.03 377.96,-222.5 386,-226.38 418.09,-241.85 451.9,-266.75 469.53,-280.48"/>
<polygon fill="#63b8ff" stroke="#63b8ff" points="361.66,-212.74 351.07,-212.94 359.47,-219.39 361.66,-212.74"/>
</a>
</g>
</g>
<!-- Node4 -->
<g id="Node000004" class="node">
<title>Node4</title>
<g id="a_Node000004"><a xlink:href="structllvm_1_1BTF_1_1Enum64Type.html" target="_top" xlink:title=" ">
<polygon fill="white" stroke="#666666" points="543.75,-236 422,-236 422,-216.75 543.75,-216.75 543.75,-236"/>
<text xml:space="preserve" text-anchor="middle" x="482.88" y="-222.5" font-family="Helvetica,sans-Serif" font-size="10.00">llvm::BTF::Enum64Type</text>
</a>
</g>
</g>
<!-- Node0&#45;&gt;Node4 -->
<g id="edge912_Node000000_Node000004" class="edge">
<title>Node0&#45;&gt;Node4</title>
<g id="a_edge912_Node000000_Node000004"><a xlink:title=" ">
<path fill="none" stroke="#63b8ff" d="M384.47,-212.68C396.83,-214.42 409.53,-216.21 421.51,-217.89"/>
<polygon fill="#63b8ff" stroke="#63b8ff" points="385.14,-209.24 374.75,-211.32 384.17,-216.18 385.14,-209.24"/>
</a>
</g>
</g>
<!-- Node7 -->
<g id="Node000007" class="node">
<title>Node7</title>
<g id="a_Node000007"><a xlink:href="structllvm_1_1BTF_1_1EnumType.html" target="_top" xlink:title=" ">
<polygon fill="white" stroke="#666666" points="538.5,-179 427.25,-179 427.25,-159.75 538.5,-159.75 538.5,-179"/>
<text xml:space="preserve" text-anchor="middle" x="482.88" y="-165.5" font-family="Helvetica,sans-Serif" font-size="10.00">llvm::BTF::EnumType</text>
</a>
</g>
</g>
<!-- Node0&#45;&gt;Node7 -->
<g id="edge913_Node000000_Node000007" class="edge">
<title>Node0&#45;&gt;Node7</title>
<g id="a_edge913_Node000000_Node000007"><a xlink:title=" ">
<path fill="none" stroke="#63b8ff" d="M374.41,-190.14C392.62,-186.62 412.28,-182.82 429.74,-179.45"/>
<polygon fill="#63b8ff" stroke="#63b8ff" points="373.92,-186.67 364.77,-192.01 375.25,-193.55 373.92,-186.67"/>
</a>
</g>
</g>
<!-- Node10 -->
<g id="Node000010" class="node">
<title>Node10</title>
<g id="a_Node000010"><a xlink:href="structllvm_1_1BTF_1_1StructType.html" target="_top" xlink:title=" ">
<polygon fill="white" stroke="#666666" points="538.88,-136 426.88,-136 426.88,-116.75 538.88,-116.75 538.88,-136"/>
<text xml:space="preserve" text-anchor="middle" x="482.88" y="-122.5" font-family="Helvetica,sans-Serif" font-size="10.00">llvm::BTF::StructType</text>
</a>
</g>
</g>
<!-- Node0&#45;&gt;Node10 -->
<g id="edge914_Node000000_Node000010" class="edge">
<title>Node0&#45;&gt;Node10</title>
<g id="a_edge914_Node000000_Node000010"><a xlink:title=" ">
<path fill="none" stroke="#63b8ff" d="M353.34,-188.52C364.2,-184.44 375.71,-179.64 386,-174.38 403.12,-165.62 404.98,-159.33 422,-150.38 431.91,-145.16 443.21,-140.35 453.31,-136.44"/>
<polygon fill="#63b8ff" stroke="#63b8ff" points="352.41,-185.14 344.2,-191.84 354.79,-191.72 352.41,-185.14"/>
</a>
</g>
</g>
<!-- Node3 -->
<g id="Node000003" class="node">
<title>Node3</title>
<g id="a_Node000003"><a xlink:href="classllvm_1_1trailing__objects__internal_1_1TrailingObjectsImpl.html" target="_top" xlink:title=" ">
<polygon fill="white" stroke="#666666" points="173.88,-401.75 24.38,-401.75 24.38,-315 173.88,-315 173.88,-401.75"/>
<text xml:space="preserve" text-anchor="start" x="32.38" y="-388.25" font-family="Helvetica,sans-Serif" font-size="10.00">llvm::trailing_objects</text>
<text xml:space="preserve" text-anchor="start" x="32.38" y="-377" font-family="Helvetica,sans-Serif" font-size="10.00">_internal::TrailingObjectsImpl</text>
<text xml:space="preserve" text-anchor="start" x="32.38" y="-365.75" font-family="Helvetica,sans-Serif" font-size="10.00">&lt; trailing_objects_internal</text>
<text xml:space="preserve" text-anchor="start" x="32.38" y="-354.5" font-family="Helvetica,sans-Serif" font-size="10.00">::MaxAlignment&lt; TrailingTys...</text>
<text xml:space="preserve" text-anchor="start" x="32.38" y="-343.25" font-family="Helvetica,sans-Serif" font-size="10.00"> &gt;, ArrayType, TrailingObjects</text>
<text xml:space="preserve" text-anchor="start" x="32.38" y="-332" font-family="Helvetica,sans-Serif" font-size="10.00">&lt; ArrayType, TrailingTys... &gt;,</text>
<text xml:space="preserve" text-anchor="middle" x="99.12" y="-320.75" font-family="Helvetica,sans-Serif" font-size="10.00"> ArrayType, TrailingTys... &gt;</text>
</a>
</g>
</g>
<!-- Node2 -->
<g id="Node000002" class="node">
<title>Node2</title>
<g id="a_Node000002"><a xlink:href="classllvm_1_1TrailingObjects.html" target="_top" xlink:title=" ">
<polygon fill="white" stroke="#666666" points="372.88,-344.62 247.38,-344.62 247.38,-314.12 372.88,-314.12 372.88,-344.62"/>
<text xml:space="preserve" text-anchor="start" x="255.38" y="-331.12" font-family="Helvetica,sans-Serif" font-size="10.00">llvm::TrailingObjects</text>
<text xml:space="preserve" text-anchor="middle" x="310.12" y="-319.88" font-family="Helvetica,sans-Serif" font-size="10.00">&lt; ArrayType, BTFArray &gt;</text>
</a>
</g>
</g>
<!-- Node3&#45;&gt;Node2 -->
<g id="edge915_Node000003_Node000002" class="edge">
<title>Node3&#45;&gt;Node2</title>
<g id="a_edge915_Node000003_Node000002"><a xlink:title=" ">
<path fill="none" stroke="#8b1a1a" d="M185.43,-346.54C206.04,-343.68 227.68,-340.68 247,-338"/>
<polygon fill="#8b1a1a" stroke="#8b1a1a" points="185.03,-343.06 175.6,-347.9 185.99,-349.99 185.03,-343.06"/>
</a>
</g>
</g>
<!-- Node2&#45;&gt;Node1 -->
<g id="edge916_Node000002_Node000001" class="edge">
<title>Node2&#45;&gt;Node1</title>
<g id="a_edge916_Node000002_Node000001"><a xlink:title=" ">
<path fill="none" stroke="#8b1a1a" d="M384.42,-312.63C402.56,-308.49 421.45,-304.18 437.71,-300.46"/>
<polygon fill="#8b1a1a" stroke="#8b1a1a" points="383.7,-309.21 374.73,-314.85 385.26,-316.03 383.7,-309.21"/>
</a>
</g>
</g>
<!-- Node6 -->
<g id="Node000006" class="node">
<title>Node6</title>
<g id="a_Node000006"><a xlink:href="classllvm_1_1trailing__objects__internal_1_1TrailingObjectsImpl.html" target="_top" xlink:title=" ">
<polygon fill="white" stroke="#666666" points="178.75,-296.75 19.5,-296.75 19.5,-210 178.75,-210 178.75,-296.75"/>
<text xml:space="preserve" text-anchor="start" x="27.5" y="-283.25" font-family="Helvetica,sans-Serif" font-size="10.00">llvm::trailing_objects</text>
<text xml:space="preserve" text-anchor="start" x="27.5" y="-272" font-family="Helvetica,sans-Serif" font-size="10.00">_internal::TrailingObjectsImpl</text>
<text xml:space="preserve" text-anchor="start" x="27.5" y="-260.75" font-family="Helvetica,sans-Serif" font-size="10.00">&lt; trailing_objects_internal</text>
<text xml:space="preserve" text-anchor="start" x="27.5" y="-249.5" font-family="Helvetica,sans-Serif" font-size="10.00">::MaxAlignment&lt; TrailingTys...</text>
<text xml:space="preserve" text-anchor="start" x="27.5" y="-238.25" font-family="Helvetica,sans-Serif" font-size="10.00"> &gt;, Enum64Type, TrailingObjects</text>
<text xml:space="preserve" text-anchor="start" x="27.5" y="-227" font-family="Helvetica,sans-Serif" font-size="10.00">&lt; Enum64Type, TrailingTys... &gt;,</text>
<text xml:space="preserve" text-anchor="middle" x="99.12" y="-215.75" font-family="Helvetica,sans-Serif" font-size="10.00"> Enum64Type, TrailingTys... &gt;</text>
</a>
</g>
</g>
<!-- Node5 -->
<g id="Node000005" class="node">
<title>Node5</title>
<g id="a_Node000005"><a xlink:href="classllvm_1_1TrailingObjects.html" target="_top" xlink:title=" ">
<polygon fill="white" stroke="#666666" points="386,-265.62 234.25,-265.62 234.25,-235.12 386,-235.12 386,-265.62"/>
<text xml:space="preserve" text-anchor="start" x="242.25" y="-252.12" font-family="Helvetica,sans-Serif" font-size="10.00">llvm::TrailingObjects</text>
<text xml:space="preserve" text-anchor="middle" x="310.12" y="-240.88" font-family="Helvetica,sans-Serif" font-size="10.00">&lt; Enum64Type, BTFEnum64 &gt;</text>
</a>
</g>
</g>
<!-- Node6&#45;&gt;Node5 -->
<g id="edge917_Node000006_Node000005" class="edge">
<title>Node6&#45;&gt;Node5</title>
<g id="a_edge917_Node000006_Node000005"><a xlink:title=" ">
<path fill="none" stroke="#8b1a1a" d="M190.6,-252.08C205.01,-251.87 219.78,-251.66 233.8,-251.46"/>
<polygon fill="#8b1a1a" stroke="#8b1a1a" points="190.6,-248.58 180.65,-252.22 190.7,-255.58 190.6,-248.58"/>
</a>
</g>
</g>
<!-- Node5&#45;&gt;Node4 -->
<g id="edge918_Node000005_Node000004" class="edge">
<title>Node5&#45;&gt;Node4</title>
<g id="a_edge918_Node000005_Node000004"><a xlink:title=" ">
<path fill="none" stroke="#8b1a1a" d="M397.24,-238.27C405.49,-237.11 413.73,-235.95 421.65,-234.84"/>
<polygon fill="#8b1a1a" stroke="#8b1a1a" points="396.93,-234.78 387.52,-239.64 397.91,-241.71 396.93,-234.78"/>
</a>
</g>
</g>
<!-- Node9 -->
<g id="Node000009" class="node">
<title>Node9</title>
<g id="a_Node000009"><a xlink:href="classllvm_1_1trailing__objects__internal_1_1TrailingObjectsImpl.html" target="_top" xlink:title=" ">
<polygon fill="white" stroke="#666666" points="198.25,-191.75 0,-191.75 0,-105 198.25,-105 198.25,-191.75"/>
<text xml:space="preserve" text-anchor="start" x="8" y="-178.25" font-family="Helvetica,sans-Serif" font-size="10.00">llvm::trailing_objects</text>
<text xml:space="preserve" text-anchor="start" x="8" y="-167" font-family="Helvetica,sans-Serif" font-size="10.00">_internal::TrailingObjectsImpl</text>
<text xml:space="preserve" text-anchor="start" x="8" y="-155.75" font-family="Helvetica,sans-Serif" font-size="10.00">&lt; trailing_objects_internal</text>
<text xml:space="preserve" text-anchor="start" x="8" y="-144.5" font-family="Helvetica,sans-Serif" font-size="10.00">::MaxAlignment&lt; TrailingTys...</text>
<text xml:space="preserve" text-anchor="start" x="8" y="-133.25" font-family="Helvetica,sans-Serif" font-size="10.00"> &gt;, EnumType, TrailingObjects</text>
<text xml:space="preserve" text-anchor="start" x="8" y="-122" font-family="Helvetica,sans-Serif" font-size="10.00">&lt; EnumType, TrailingTys... &gt;, EnumType,</text>
<text xml:space="preserve" text-anchor="middle" x="99.12" y="-110.75" font-family="Helvetica,sans-Serif" font-size="10.00"> TrailingTys... &gt;</text>
</a>
</g>
</g>
<!-- Node8 -->
<g id="Node000008" class="node">
<title>Node8</title>
<g id="a_Node000008"><a xlink:href="classllvm_1_1TrailingObjects.html" target="_top" xlink:title=" ">
<polygon fill="white" stroke="#666666" points="375.5,-165.62 244.75,-165.62 244.75,-135.12 375.5,-135.12 375.5,-165.62"/>
<text xml:space="preserve" text-anchor="start" x="252.75" y="-152.12" font-family="Helvetica,sans-Serif" font-size="10.00">llvm::TrailingObjects</text>
<text xml:space="preserve" text-anchor="middle" x="310.12" y="-140.88" font-family="Helvetica,sans-Serif" font-size="10.00">&lt; EnumType, BTFEnum &gt;</text>
</a>
</g>
</g>
<!-- Node9&#45;&gt;Node8 -->
<g id="edge919_Node000009_Node000008" class="edge">
<title>Node9&#45;&gt;Node8</title>
<g id="a_edge919_Node000009_Node000008"><a xlink:title=" ">
<path fill="none" stroke="#8b1a1a" d="M209.83,-149.42C221.62,-149.54 233.34,-149.65 244.35,-149.76"/>
<polygon fill="#8b1a1a" stroke="#8b1a1a" points="210.05,-145.93 200.02,-149.33 209.98,-152.93 210.05,-145.93"/>
</a>
</g>
</g>
<!-- Node8&#45;&gt;Node7 -->
<g id="edge920_Node000008_Node000007" class="edge">
<title>Node8&#45;&gt;Node7</title>
<g id="a_edge920_Node000008_Node000007"><a xlink:title=" ">
<path fill="none" stroke="#8b1a1a" d="M386.91,-158.81C400.4,-160.31 414.22,-161.85 427,-163.27"/>
<polygon fill="#8b1a1a" stroke="#8b1a1a" points="387.51,-155.35 377.18,-157.73 386.73,-162.31 387.51,-155.35"/>
</a>
</g>
</g>
<!-- Node12 -->
<g id="Node000012" class="node">
<title>Node12</title>
<g id="a_Node000012"><a xlink:href="classllvm_1_1trailing__objects__internal_1_1TrailingObjectsImpl.html" target="_top" xlink:title=" ">
<polygon fill="white" stroke="#666666" points="173.88,-86.75 24.38,-86.75 24.38,0 173.88,0 173.88,-86.75"/>
<text xml:space="preserve" text-anchor="start" x="32.38" y="-73.25" font-family="Helvetica,sans-Serif" font-size="10.00">llvm::trailing_objects</text>
<text xml:space="preserve" text-anchor="start" x="32.38" y="-62" font-family="Helvetica,sans-Serif" font-size="10.00">_internal::TrailingObjectsImpl</text>
<text xml:space="preserve" text-anchor="start" x="32.38" y="-50.75" font-family="Helvetica,sans-Serif" font-size="10.00">&lt; trailing_objects_internal</text>
<text xml:space="preserve" text-anchor="start" x="32.38" y="-39.5" font-family="Helvetica,sans-Serif" font-size="10.00">::MaxAlignment&lt; TrailingTys...</text>
<text xml:space="preserve" text-anchor="start" x="32.38" y="-28.25" font-family="Helvetica,sans-Serif" font-size="10.00"> &gt;, StructType, TrailingObjects</text>
<text xml:space="preserve" text-anchor="start" x="32.38" y="-17" font-family="Helvetica,sans-Serif" font-size="10.00">&lt; StructType, TrailingTys... &gt;,</text>
<text xml:space="preserve" text-anchor="middle" x="99.12" y="-5.75" font-family="Helvetica,sans-Serif" font-size="10.00"> StructType, TrailingTys... &gt;</text>
</a>
</g>
</g>
<!-- Node11 -->
<g id="Node000011" class="node">
<title>Node11</title>
<g id="a_Node000011"><a xlink:href="classllvm_1_1TrailingObjects.html" target="_top" xlink:title=" ">
<polygon fill="white" stroke="#666666" points="380.75,-88.62 239.5,-88.62 239.5,-58.12 380.75,-58.12 380.75,-88.62"/>
<text xml:space="preserve" text-anchor="start" x="247.5" y="-75.12" font-family="Helvetica,sans-Serif" font-size="10.00">llvm::TrailingObjects</text>
<text xml:space="preserve" text-anchor="middle" x="310.12" y="-63.88" font-family="Helvetica,sans-Serif" font-size="10.00">&lt; StructType, BTFMember &gt;</text>
</a>
</g>
</g>
<!-- Node12&#45;&gt;Node11 -->
<g id="edge921_Node000012_Node000011" class="edge">
<title>Node12&#45;&gt;Node11</title>
<g id="a_edge921_Node000012_Node000011"><a xlink:title=" ">
<path fill="none" stroke="#8b1a1a" d="M185.4,-55.62C203.25,-58.18 221.88,-60.85 239.1,-63.32"/>
<polygon fill="#8b1a1a" stroke="#8b1a1a" points="186,-52.17 175.6,-54.21 185,-59.09 186,-52.17"/>
</a>
</g>
</g>
<!-- Node11&#45;&gt;Node10 -->
<g id="edge922_Node000011_Node000010" class="edge">
<title>Node11&#45;&gt;Node10</title>
<g id="a_edge922_Node000011_Node000010"><a xlink:title=" ">
<path fill="none" stroke="#8b1a1a" d="M372.36,-92.38C398.39,-100.46 427.68,-109.55 449.41,-116.3"/>
<polygon fill="#8b1a1a" stroke="#8b1a1a" points="373.47,-89.06 362.88,-89.44 371.39,-95.75 373.47,-89.06"/>
</a>
</g>
</g>
</g>
</svg>
