<?xml version="1.0" encoding="UTF-8" standalone="no"?>
<!DOCTYPE svg PUBLIC "-//W3C//DTD SVG 1.1//EN"
 "http://www.w3.org/Graphics/SVG/1.1/DTD/svg11.dtd">
<!-- Generated by graphviz version 14.1.3 (20260303.0454)
 -->
<!-- Title: Graphical Class Hierarchy Pages: 1 -->
<svg width="345pt" height="175pt"
 viewBox="0.00 0.00 345.00 175.00" xmlns="http://www.w3.org/2000/svg" xmlns:xlink="http://www.w3.org/1999/xlink">
<g id="graph0" class="graph" transform="scale(1 1) rotate(0) translate(4 171.25)">
<title>Graphical Class Hierarchy</title>
<!-- Node0 -->
<g id="Node000000" class="node">
<title>Node0</title>
<g id="a_Node000000"><a xlink:href="classllvm_1_1pdb_1_1IPDBEnumChildren.html" target="_top" xlink:title=" ">
<polygon fill="white" stroke="#666666" points="147.25,-98.88 0,-98.88 0,-68.38 147.25,-68.38 147.25,-98.88"/>
<text xml:space="preserve" text-anchor="start" x="8" y="-85.38" font-family="Helvetica,sans-Serif" font-size="10.00">llvm::pdb::IPDBEnumChildren</text>
<text xml:space="preserve" text-anchor="middle" x="73.62" y="-74.12" font-family="Helvetica,sans-Serif" font-size="10.00">&lt; PDBSymbol &gt;</text>
</a>
</g>
</g>
<!-- Node1 -->
<g id="Node000001" class="node">
<title>Node1</title>
<g id="a_Node000001"><a xlink:href="classllvm_1_1pdb_1_1DIAEnumSymbols.html" target="_top" xlink:title=" ">
<polygon fill="white" stroke="#666666" points="331.62,-167.25 188.88,-167.25 188.88,-148 331.62,-148 331.62,-167.25"/>
<text xml:space="preserve" text-anchor="middle" x="260.25" y="-153.75" font-family="Helvetica,sans-Serif" font-size="10.00">llvm::pdb::DIAEnumSymbols</text>
</a>
</g>
</g>
<!-- Node0&#45;&gt;Node1 -->
<g id="edge5936_Node000000_Node000001" class="edge">
<title>Node0&#45;&gt;Node1</title>
<g id="a_edge5936_Node000000_Node000001"><a xlink:title=" ">
<path fill="none" stroke="#63b8ff" d="M110.51,-104.94C131.21,-116.51 158.06,-130.31 183.25,-139.62 191.39,-142.64 200.21,-145.27 208.86,-147.52"/>
<polygon fill="#63b8ff" stroke="#63b8ff" points="112.33,-101.94 101.9,-100.05 108.87,-108.03 112.33,-101.94"/>
</a>
</g>
</g>
<!-- Node2 -->
<g id="Node000002" class="node">
<title>Node2</title>
<g id="a_Node000002"><a xlink:href="classllvm_1_1pdb_1_1NativeEnumGlobals.html" target="_top" xlink:title=" ">
<polygon fill="white" stroke="#666666" points="334.62,-130.25 185.88,-130.25 185.88,-111 334.62,-111 334.62,-130.25"/>
<text xml:space="preserve" text-anchor="middle" x="260.25" y="-116.75" font-family="Helvetica,sans-Serif" font-size="10.00">llvm::pdb::NativeEnumGlobals</text>
</a>
</g>
</g>
<!-- Node0&#45;&gt;Node2 -->
<g id="edge5937_Node000000_Node000002" class="edge">
<title>Node0&#45;&gt;Node2</title>
<g id="a_edge5937_Node000000_Node000002"><a xlink:title=" ">
<path fill="none" stroke="#63b8ff" d="M158.78,-100.49C175.93,-103.93 193.46,-107.44 208.97,-110.55"/>
<polygon fill="#63b8ff" stroke="#63b8ff" points="159.57,-97.08 149.08,-98.55 158.19,-103.94 159.57,-97.08"/>
</a>
</g>
</g>
<!-- Node3 -->
<g id="Node000003" class="node">
<title>Node3</title>
<g id="a_Node000003"><a xlink:href="classllvm_1_1pdb_1_1NativeEnumModules.html" target="_top" xlink:title=" ">
<polygon fill="white" stroke="#666666" points="336.5,-93.25 184,-93.25 184,-74 336.5,-74 336.5,-93.25"/>
<text xml:space="preserve" text-anchor="middle" x="260.25" y="-79.75" font-family="Helvetica,sans-Serif" font-size="10.00">llvm::pdb::NativeEnumModules</text>
</a>
</g>
</g>
<!-- Node0&#45;&gt;Node3 -->
<g id="edge5938_Node000000_Node000003" class="edge">
<title>Node0&#45;&gt;Node3</title>
<g id="a_edge5938_Node000000_Node000003"><a xlink:title=" ">
<path fill="none" stroke="#63b8ff" d="M158.85,-83.62C167.16,-83.62 175.56,-83.62 183.78,-83.62"/>
<polygon fill="#63b8ff" stroke="#63b8ff" points="159.11,-80.13 149.11,-83.63 159.11,-87.13 159.11,-80.13"/>
</a>
</g>
</g>
<!-- Node4 -->
<g id="Node000004" class="node">
<title>Node4</title>
<g id="a_Node000004"><a xlink:href="classllvm_1_1pdb_1_1NativeEnumSymbols.html" target="_top" xlink:title=" ">
<polygon fill="white" stroke="#666666" points="337.25,-56.25 183.25,-56.25 183.25,-37 337.25,-37 337.25,-56.25"/>
<text xml:space="preserve" text-anchor="middle" x="260.25" y="-42.75" font-family="Helvetica,sans-Serif" font-size="10.00">llvm::pdb::NativeEnumSymbols</text>
</a>
</g>
</g>
<!-- Node0&#45;&gt;Node4 -->
<g id="edge5939_Node000000_Node000004" class="edge">
<title>Node0&#45;&gt;Node4</title>
<g id="a_edge5939_Node000000_Node000004"><a xlink:title=" ">
<path fill="none" stroke="#63b8ff" d="M158.78,-66.76C175.93,-63.32 193.46,-59.81 208.97,-56.7"/>
<polygon fill="#63b8ff" stroke="#63b8ff" points="158.19,-63.31 149.08,-68.7 159.57,-70.17 158.19,-63.31"/>
</a>
</g>
</g>
<!-- Node5 -->
<g id="Node000005" class="node">
<title>Node5</title>
<g id="a_Node000005"><a xlink:href="classllvm_1_1pdb_1_1NativeEnumTypes.html" target="_top" xlink:title=" ">
<polygon fill="white" stroke="#666666" points="331.25,-19.25 189.25,-19.25 189.25,0 331.25,0 331.25,-19.25"/>
<text xml:space="preserve" text-anchor="middle" x="260.25" y="-5.75" font-family="Helvetica,sans-Serif" font-size="10.00">llvm::pdb::NativeEnumTypes</text>
</a>
</g>
</g>
<!-- Node0&#45;&gt;Node5 -->
<g id="edge5940_Node000000_Node000005" class="edge">
<title>Node0&#45;&gt;Node5</title>
<g id="a_edge5940_Node000000_Node000005"><a xlink:title=" ">
<path fill="none" stroke="#63b8ff" d="M110.51,-62.31C131.21,-50.74 158.06,-36.94 183.25,-27.62 191.39,-24.61 200.21,-21.98 208.86,-19.73"/>
<polygon fill="#63b8ff" stroke="#63b8ff" points="108.87,-59.22 101.9,-67.2 112.33,-65.31 108.87,-59.22"/>
</a>
</g>
</g>
</g>
</svg>
