<?xml version="1.0" encoding="UTF-8" standalone="no"?>
<!DOCTYPE svg PUBLIC "-//W3C//DTD SVG 1.1//EN"
 "http://www.w3.org/Graphics/SVG/1.1/DTD/svg11.dtd">
<!-- Generated by graphviz version 14.1.3 (20260303.0454)
 -->
<!-- Title: Graphical Class Hierarchy Pages: 1 -->
<svg width="294pt" height="64pt"
 viewBox="0.00 0.00 294.00 64.00" xmlns="http://www.w3.org/2000/svg" xmlns:xlink="http://www.w3.org/1999/xlink">
<g id="graph0" class="graph" transform="scale(1 1) rotate(0) translate(4 60.25)">
<title>Graphical Class Hierarchy</title>
<!-- Node0 -->
<g id="Node000000" class="node">
<title>Node0</title>
<g id="a_Node000000"><a xlink:href="classllvm_1_1cas_1_1ReferenceBase.html" target="_top" xlink:title="Base class for references to things in ObjectStore.">
<polygon fill="white" stroke="#666666" points="129.25,-37.25 0,-37.25 0,-18 129.25,-18 129.25,-37.25"/>
<text xml:space="preserve" text-anchor="middle" x="64.62" y="-23.75" font-family="Helvetica,sans-Serif" font-size="10.00">llvm::cas::ReferenceBase</text>
</a>
</g>
</g>
<!-- Node1 -->
<g id="Node000001" class="node">
<title>Node1</title>
<g id="a_Node000001"><a xlink:href="classllvm_1_1cas_1_1ObjectHandle.html" target="_top" xlink:title="Handle to a loaded object in a ObjectStore instance.">
<polygon fill="white" stroke="#666666" points="286.25,-56.25 165.25,-56.25 165.25,-37 286.25,-37 286.25,-56.25"/>
<text xml:space="preserve" text-anchor="middle" x="225.75" y="-42.75" font-family="Helvetica,sans-Serif" font-size="10.00">llvm::cas::ObjectHandle</text>
</a>
</g>
</g>
<!-- Node0&#45;&gt;Node1 -->
<g id="edge965_Node000000_Node000001" class="edge">
<title>Node0&#45;&gt;Node1</title>
<g id="a_edge965_Node000000_Node000001"><a xlink:title=" ">
<path fill="none" stroke="#63b8ff" d="M140.76,-36.6C148.82,-37.56 156.95,-38.53 164.8,-39.47"/>
<polygon fill="#63b8ff" stroke="#63b8ff" points="141.28,-33.13 130.93,-35.42 140.45,-40.08 141.28,-33.13"/>
</a>
</g>
</g>
<!-- Node2 -->
<g id="Node000002" class="node">
<title>Node2</title>
<g id="a_Node000002"><a xlink:href="classllvm_1_1cas_1_1ObjectRef.html" target="_top" xlink:title="Reference to an object in an ObjectStore instance.">
<polygon fill="white" stroke="#666666" points="278.75,-19.25 172.75,-19.25 172.75,0 278.75,0 278.75,-19.25"/>
<text xml:space="preserve" text-anchor="middle" x="225.75" y="-5.75" font-family="Helvetica,sans-Serif" font-size="10.00">llvm::cas::ObjectRef</text>
</a>
</g>
</g>
<!-- Node0&#45;&gt;Node2 -->
<g id="edge966_Node000000_Node000002" class="edge">
<title>Node0&#45;&gt;Node2</title>
<g id="a_edge966_Node000000_Node000002"><a xlink:title=" ">
<path fill="none" stroke="#63b8ff" d="M140.64,-19.14C151.47,-17.91 162.41,-16.68 172.66,-15.52"/>
<polygon fill="#63b8ff" stroke="#63b8ff" points="140.48,-15.64 130.93,-20.24 141.26,-22.59 140.48,-15.64"/>
</a>
</g>
</g>
</g>
</svg>
