<?xml version="1.0" encoding="UTF-8" standalone="no"?>
<!DOCTYPE svg PUBLIC "-//W3C//DTD SVG 1.1//EN"
 "http://www.w3.org/Graphics/SVG/1.1/DTD/svg11.dtd">
<!-- Generated by graphviz version 14.1.3 (20260303.0454)
 -->
<!-- Title: Graphical Class Hierarchy Pages: 1 -->
<svg width="785pt" height="93pt"
 viewBox="0.00 0.00 785.00 93.00" xmlns="http://www.w3.org/2000/svg" xmlns:xlink="http://www.w3.org/1999/xlink">
<g id="graph0" class="graph" transform="scale(1 1) rotate(0) translate(4 89.12)">
<title>Graphical Class Hierarchy</title>
<!-- Node0 -->
<g id="Node000000" class="node">
<title>Node0</title>
<g id="a_Node000000"><a xlink:href="classllvm_1_1SmallVectorBase.html" target="_top" xlink:title=" ">
<polygon fill="white" stroke="#666666" points="118.75,-85.12 0,-85.12 0,-43.38 118.75,-43.38 118.75,-85.12"/>
<text xml:space="preserve" text-anchor="start" x="8" y="-71.62" font-family="Helvetica,sans-Serif" font-size="10.00">llvm::SmallVectorBase</text>
<text xml:space="preserve" text-anchor="start" x="8" y="-60.38" font-family="Helvetica,sans-Serif" font-size="10.00">&lt; SmallVectorSizeType</text>
<text xml:space="preserve" text-anchor="middle" x="59.38" y="-49.12" font-family="Helvetica,sans-Serif" font-size="10.00">&lt; llvm::AsmToken &gt; &gt;</text>
</a>
</g>
</g>
<!-- Node1 -->
<g id="Node000001" class="node">
<title>Node1</title>
<g id="a_Node000001"><a xlink:href="classllvm_1_1SmallVectorTemplateCommon.html" target="_top" xlink:title=" ">
<polygon fill="white" stroke="#666666" points="299,-79.5 154.75,-79.5 154.75,-49 299,-49 299,-79.5"/>
<text xml:space="preserve" text-anchor="start" x="162.75" y="-66" font-family="Helvetica,sans-Serif" font-size="10.00">llvm::SmallVectorTemplate</text>
<text xml:space="preserve" text-anchor="middle" x="226.88" y="-54.75" font-family="Helvetica,sans-Serif" font-size="10.00">Common&lt; llvm::AsmToken &gt;</text>
</a>
</g>
</g>
<!-- Node0&#45;&gt;Node1 -->
<g id="edge8252_Node000000_Node000001" class="edge">
<title>Node0&#45;&gt;Node1</title>
<g id="a_edge8252_Node000000_Node000001"><a xlink:title=" ">
<path fill="none" stroke="#63b8ff" d="M130.62,-64.25C138.52,-64.25 146.58,-64.25 154.49,-64.25"/>
<polygon fill="#63b8ff" stroke="#63b8ff" points="130.7,-60.75 120.7,-64.25 130.7,-67.75 130.7,-60.75"/>
</a>
</g>
</g>
<!-- Node2 -->
<g id="Node000002" class="node">
<title>Node2</title>
<g id="a_Node000002"><a xlink:href="classllvm_1_1SmallVectorTemplateBase.html" target="_top" xlink:title=" ">
<polygon fill="white" stroke="#666666" points="468,-79.5 335,-79.5 335,-49 468,-49 468,-79.5"/>
<text xml:space="preserve" text-anchor="start" x="343" y="-66" font-family="Helvetica,sans-Serif" font-size="10.00">llvm::SmallVectorTemplate</text>
<text xml:space="preserve" text-anchor="middle" x="401.5" y="-54.75" font-family="Helvetica,sans-Serif" font-size="10.00">Base&lt; llvm::AsmToken &gt;</text>
</a>
</g>
</g>
<!-- Node1&#45;&gt;Node2 -->
<g id="edge8253_Node000001_Node000002" class="edge">
<title>Node1&#45;&gt;Node2</title>
<g id="a_edge8253_Node000001_Node000002"><a xlink:title=" ">
<path fill="none" stroke="#63b8ff" d="M310.51,-64.25C318.63,-64.25 326.8,-64.25 334.72,-64.25"/>
<polygon fill="#63b8ff" stroke="#63b8ff" points="310.6,-60.75 300.6,-64.25 310.6,-67.75 310.6,-60.75"/>
</a>
</g>
</g>
<!-- Node3 -->
<g id="Node000003" class="node">
<title>Node3</title>
<g id="a_Node000003"><a xlink:href="classllvm_1_1SmallVectorImpl.html" target="_top" xlink:title=" ">
<polygon fill="white" stroke="#666666" points="623.5,-79.5 511.5,-79.5 511.5,-49 623.5,-49 623.5,-79.5"/>
<text xml:space="preserve" text-anchor="start" x="519.5" y="-66" font-family="Helvetica,sans-Serif" font-size="10.00">llvm::SmallVectorImpl</text>
<text xml:space="preserve" text-anchor="middle" x="567.5" y="-54.75" font-family="Helvetica,sans-Serif" font-size="10.00">&lt; llvm::AsmToken &gt;</text>
</a>
</g>
</g>
<!-- Node2&#45;&gt;Node3 -->
<g id="edge8254_Node000002_Node000003" class="edge">
<title>Node2&#45;&gt;Node3</title>
<g id="a_edge8254_Node000002_Node000003"><a xlink:title=" ">
<path fill="none" stroke="#63b8ff" d="M479.66,-64.25C490.24,-64.25 500.92,-64.25 511,-64.25"/>
<polygon fill="#63b8ff" stroke="#63b8ff" points="479.77,-60.75 469.77,-64.25 479.77,-67.75 479.77,-60.75"/>
</a>
</g>
</g>
<!-- Node4 -->
<g id="Node000004" class="node">
<title>Node4</title>
<g id="a_Node000004"><a xlink:href="classllvm_1_1SmallVector.html" target="_top" xlink:title=" ">
<polygon fill="white" stroke="#666666" points="776.75,-54.5 667,-54.5 667,-24 776.75,-24 776.75,-54.5"/>
<text xml:space="preserve" text-anchor="start" x="675" y="-41" font-family="Helvetica,sans-Serif" font-size="10.00">llvm::SmallVector&lt;</text>
<text xml:space="preserve" text-anchor="middle" x="721.88" y="-29.75" font-family="Helvetica,sans-Serif" font-size="10.00"> llvm::AsmToken, 1 &gt;</text>
</a>
</g>
</g>
<!-- Node3&#45;&gt;Node4 -->
<g id="edge8255_Node000003_Node000004" class="edge">
<title>Node3&#45;&gt;Node4</title>
<g id="a_edge8255_Node000003_Node000004"><a xlink:title=" ">
<path fill="none" stroke="#63b8ff" d="M635.24,-53.3C645.77,-51.57 656.55,-49.8 666.75,-48.13"/>
<polygon fill="#63b8ff" stroke="#63b8ff" points="634.74,-49.84 625.44,-54.91 635.87,-56.74 634.74,-49.84"/>
</a>
</g>
</g>
<!-- Node5 -->
<g id="Node000005" class="node">
<title>Node5</title>
<g id="a_Node000005"><a xlink:href="structllvm_1_1SmallVectorStorage.html" target="_top" xlink:title=" ">
<polygon fill="white" stroke="#666666" points="631,-30.5 504,-30.5 504,0 631,0 631,-30.5"/>
<text xml:space="preserve" text-anchor="start" x="512" y="-17" font-family="Helvetica,sans-Serif" font-size="10.00">llvm::SmallVectorStorage</text>
<text xml:space="preserve" text-anchor="middle" x="567.5" y="-5.75" font-family="Helvetica,sans-Serif" font-size="10.00">&lt; llvm::AsmToken, N &gt;</text>
</a>
</g>
</g>
<!-- Node5&#45;&gt;Node4 -->
<g id="edge8256_Node000005_Node000004" class="edge">
<title>Node5&#45;&gt;Node4</title>
<g id="a_edge8256_Node000005_Node000004"><a xlink:title=" ">
<path fill="none" stroke="#8b1a1a" d="M642.52,-26.91C650.74,-28.2 659,-29.5 666.91,-30.75"/>
<polygon fill="#8b1a1a" stroke="#8b1a1a" points="643.27,-23.48 632.85,-25.39 642.19,-30.4 643.27,-23.48"/>
</a>
</g>
</g>
</g>
</svg>
