<?xml version="1.0" encoding="UTF-8" standalone="no"?>
<!DOCTYPE svg PUBLIC "-//W3C//DTD SVG 1.1//EN"
 "http://www.w3.org/Graphics/SVG/1.1/DTD/svg11.dtd">
<!-- Generated by graphviz version 14.1.3 (20260303.0454)
 -->
<!-- Title: Graphical Class Hierarchy Pages: 1 -->
<svg width="300pt" height="64pt"
 viewBox="0.00 0.00 300.00 64.00" xmlns="http://www.w3.org/2000/svg" xmlns:xlink="http://www.w3.org/1999/xlink">
<g id="graph0" class="graph" transform="scale(1 1) rotate(0) translate(4 60.25)">
<title>Graphical Class Hierarchy</title>
<!-- Node0 -->
<g id="Node000000" class="node">
<title>Node0</title>
<g id="a_Node000000"><a xlink:href="structllvm_1_1CaptureAnalysis.html" target="_top" xlink:title="Virtual base class for providers of capture analysis.">
<polygon fill="white" stroke="#666666" points="112,-37.25 0,-37.25 0,-18 112,-18 112,-37.25"/>
<text xml:space="preserve" text-anchor="middle" x="56" y="-23.75" font-family="Helvetica,sans-Serif" font-size="10.00">llvm::CaptureAnalysis</text>
</a>
</g>
</g>
<!-- Node1 -->
<g id="Node000001" class="node">
<title>Node1</title>
<g id="a_Node000001"><a xlink:href="classllvm_1_1EarliestEscapeAnalysis.html" target="_top" xlink:title="Context&#45;sensitive CaptureAnalysis provider, which computes and caches the earliest common dominator c...">
<polygon fill="white" stroke="#666666" points="291.5,-56.25 148,-56.25 148,-37 291.5,-37 291.5,-56.25"/>
<text xml:space="preserve" text-anchor="middle" x="219.75" y="-42.75" font-family="Helvetica,sans-Serif" font-size="10.00">llvm::EarliestEscapeAnalysis</text>
</a>
</g>
</g>
<!-- Node0&#45;&gt;Node1 -->
<g id="edge959_Node000000_Node000001" class="edge">
<title>Node0&#45;&gt;Node1</title>
<g id="a_edge959_Node000000_Node000001"><a xlink:title=" ">
<path fill="none" stroke="#63b8ff" d="M123.41,-35.43C131.44,-36.37 139.67,-37.34 147.77,-38.29"/>
<polygon fill="#63b8ff" stroke="#63b8ff" points="124.06,-31.98 113.72,-34.29 123.24,-38.93 124.06,-31.98"/>
</a>
</g>
</g>
<!-- Node2 -->
<g id="Node000002" class="node">
<title>Node2</title>
<g id="a_Node000002"><a xlink:href="classllvm_1_1SimpleCaptureAnalysis.html" target="_top" xlink:title="Context&#45;free CaptureAnalysis provider, which computes and caches whether an object is captured in the...">
<polygon fill="white" stroke="#666666" points="290.75,-19.25 148.75,-19.25 148.75,0 290.75,0 290.75,-19.25"/>
<text xml:space="preserve" text-anchor="middle" x="219.75" y="-5.75" font-family="Helvetica,sans-Serif" font-size="10.00">llvm::SimpleCaptureAnalysis</text>
</a>
</g>
</g>
<!-- Node0&#45;&gt;Node2 -->
<g id="edge960_Node000000_Node000002" class="edge">
<title>Node0&#45;&gt;Node2</title>
<g id="a_edge960_Node000000_Node000002"><a xlink:title=" ">
<path fill="none" stroke="#63b8ff" d="M123.59,-20.21C131.75,-19.31 140.12,-18.38 148.34,-17.46"/>
<polygon fill="#63b8ff" stroke="#63b8ff" points="123.27,-16.73 113.72,-21.31 124.04,-23.69 123.27,-16.73"/>
</a>
</g>
</g>
</g>
</svg>
