<?xml version="1.0" encoding="UTF-8" standalone="no"?>
<!DOCTYPE svg PUBLIC "-//W3C//DTD SVG 1.1//EN"
 "http://www.w3.org/Graphics/SVG/1.1/DTD/svg11.dtd">
<!-- Generated by graphviz version 14.1.3 (20260303.0454)
 -->
<!-- Title: Graphical Class Hierarchy Pages: 1 -->
<svg width="858pt" height="93pt"
 viewBox="0.00 0.00 858.00 93.00" xmlns="http://www.w3.org/2000/svg" xmlns:xlink="http://www.w3.org/1999/xlink">
<g id="graph0" class="graph" transform="scale(1 1) rotate(0) translate(4 89.12)">
<title>Graphical Class Hierarchy</title>
<!-- Node0 -->
<g id="Node000000" class="node">
<title>Node0</title>
<g id="a_Node000000"><a xlink:href="classllvm_1_1SmallVectorBase.html" target="_top" xlink:title=" ">
<polygon fill="white" stroke="#666666" points="137.5,-85.12 0,-85.12 0,-43.38 137.5,-43.38 137.5,-85.12"/>
<text xml:space="preserve" text-anchor="start" x="8" y="-71.62" font-family="Helvetica,sans-Serif" font-size="10.00">llvm::SmallVectorBase</text>
<text xml:space="preserve" text-anchor="start" x="8" y="-60.38" font-family="Helvetica,sans-Serif" font-size="10.00">&lt; SmallVectorSizeType</text>
<text xml:space="preserve" text-anchor="middle" x="68.75" y="-49.12" font-family="Helvetica,sans-Serif" font-size="10.00">&lt; llvm::PredicateBase * &gt; &gt;</text>
</a>
</g>
</g>
<!-- Node1 -->
<g id="Node000001" class="node">
<title>Node1</title>
<g id="a_Node000001"><a xlink:href="classllvm_1_1SmallVectorTemplateCommon.html" target="_top" xlink:title=" ">
<polygon fill="white" stroke="#666666" points="341.75,-79.5 173.5,-79.5 173.5,-49 341.75,-49 341.75,-79.5"/>
<text xml:space="preserve" text-anchor="start" x="181.5" y="-66" font-family="Helvetica,sans-Serif" font-size="10.00">llvm::SmallVectorTemplate</text>
<text xml:space="preserve" text-anchor="middle" x="257.62" y="-54.75" font-family="Helvetica,sans-Serif" font-size="10.00">Common&lt; llvm::PredicateBase * &gt;</text>
</a>
</g>
</g>
<!-- Node0&#45;&gt;Node1 -->
<g id="edge8974_Node000000_Node000001" class="edge">
<title>Node0&#45;&gt;Node1</title>
<g id="a_edge8974_Node000000_Node000001"><a xlink:title=" ">
<path fill="none" stroke="#63b8ff" d="M149.2,-64.25C157.1,-64.25 165.14,-64.25 173.08,-64.25"/>
<polygon fill="#63b8ff" stroke="#63b8ff" points="149.26,-60.75 139.26,-64.25 149.26,-67.75 149.26,-60.75"/>
</a>
</g>
</g>
<!-- Node2 -->
<g id="Node000002" class="node">
<title>Node2</title>
<g id="a_Node000002"><a xlink:href="classllvm_1_1SmallVectorTemplateBase.html" target="_top" xlink:title=" ">
<polygon fill="white" stroke="#666666" points="528.75,-79.5 377.75,-79.5 377.75,-49 528.75,-49 528.75,-79.5"/>
<text xml:space="preserve" text-anchor="start" x="385.75" y="-66" font-family="Helvetica,sans-Serif" font-size="10.00">llvm::SmallVectorTemplate</text>
<text xml:space="preserve" text-anchor="middle" x="453.25" y="-54.75" font-family="Helvetica,sans-Serif" font-size="10.00">Base&lt; llvm::PredicateBase * &gt;</text>
</a>
</g>
</g>
<!-- Node1&#45;&gt;Node2 -->
<g id="edge8975_Node000001_Node000002" class="edge">
<title>Node1&#45;&gt;Node2</title>
<g id="a_edge8975_Node000001_Node000002"><a xlink:title=" ">
<path fill="none" stroke="#63b8ff" d="M353.51,-64.25C361.58,-64.25 369.67,-64.25 377.54,-64.25"/>
<polygon fill="#63b8ff" stroke="#63b8ff" points="353.66,-60.75 343.66,-64.25 353.66,-67.75 353.66,-60.75"/>
</a>
</g>
</g>
<!-- Node3 -->
<g id="Node000003" class="node">
<title>Node3</title>
<g id="a_Node000003"><a xlink:href="classllvm_1_1SmallVectorImpl.html" target="_top" xlink:title=" ">
<polygon fill="white" stroke="#666666" points="700,-79.5 571.5,-79.5 571.5,-49 700,-49 700,-79.5"/>
<text xml:space="preserve" text-anchor="start" x="579.5" y="-66" font-family="Helvetica,sans-Serif" font-size="10.00">llvm::SmallVectorImpl</text>
<text xml:space="preserve" text-anchor="middle" x="635.75" y="-54.75" font-family="Helvetica,sans-Serif" font-size="10.00">&lt; llvm::PredicateBase * &gt;</text>
</a>
</g>
</g>
<!-- Node2&#45;&gt;Node3 -->
<g id="edge8976_Node000002_Node000003" class="edge">
<title>Node2&#45;&gt;Node3</title>
<g id="a_edge8976_Node000002_Node000003"><a xlink:title=" ">
<path fill="none" stroke="#63b8ff" d="M540.42,-64.25C550.79,-64.25 561.23,-64.25 571.19,-64.25"/>
<polygon fill="#63b8ff" stroke="#63b8ff" points="540.74,-60.75 530.74,-64.25 540.74,-67.75 540.74,-60.75"/>
</a>
</g>
</g>
<!-- Node4 -->
<g id="Node000004" class="node">
<title>Node4</title>
<g id="a_Node000004"><a xlink:href="classllvm_1_1SmallVector.html" target="_top" xlink:title=" ">
<polygon fill="white" stroke="#666666" points="849.5,-60.12 742.75,-60.12 742.75,-18.38 849.5,-18.38 849.5,-60.12"/>
<text xml:space="preserve" text-anchor="start" x="750.75" y="-46.62" font-family="Helvetica,sans-Serif" font-size="10.00">llvm::SmallVector&lt;</text>
<text xml:space="preserve" text-anchor="start" x="750.75" y="-35.38" font-family="Helvetica,sans-Serif" font-size="10.00"> llvm::PredicateBase</text>
<text xml:space="preserve" text-anchor="middle" x="796.12" y="-24.12" font-family="Helvetica,sans-Serif" font-size="10.00"> *, 4 &gt;</text>
</a>
</g>
</g>
<!-- Node3&#45;&gt;Node4 -->
<g id="edge8977_Node000003_Node000004" class="edge">
<title>Node3&#45;&gt;Node4</title>
<g id="a_edge8977_Node000003_Node000004"><a xlink:title=" ">
<path fill="none" stroke="#63b8ff" d="M711.47,-52.45C721.88,-50.81 732.39,-49.15 742.28,-47.59"/>
<polygon fill="#63b8ff" stroke="#63b8ff" points="711.08,-48.97 701.75,-53.99 712.17,-55.89 711.08,-48.97"/>
</a>
</g>
</g>
<!-- Node5 -->
<g id="Node000005" class="node">
<title>Node5</title>
<g id="a_Node000005"><a xlink:href="structllvm_1_1SmallVectorStorage.html" target="_top" xlink:title=" ">
<polygon fill="white" stroke="#666666" points="706.75,-30.5 564.75,-30.5 564.75,0 706.75,0 706.75,-30.5"/>
<text xml:space="preserve" text-anchor="start" x="572.75" y="-17" font-family="Helvetica,sans-Serif" font-size="10.00">llvm::SmallVectorStorage</text>
<text xml:space="preserve" text-anchor="middle" x="635.75" y="-5.75" font-family="Helvetica,sans-Serif" font-size="10.00">&lt; llvm::PredicateBase *, N &gt;</text>
</a>
</g>
</g>
<!-- Node5&#45;&gt;Node4 -->
<g id="edge8978_Node000005_Node000004" class="edge">
<title>Node5&#45;&gt;Node4</title>
<g id="a_edge8978_Node000005_Node000004"><a xlink:title=" ">
<path fill="none" stroke="#8b1a1a" d="M718.34,-27.61C726.56,-28.86 734.74,-30.1 742.54,-31.28"/>
<polygon fill="#8b1a1a" stroke="#8b1a1a" points="719.05,-24.18 708.63,-26.14 718,-31.1 719.05,-24.18"/>
</a>
</g>
</g>
</g>
</svg>
