<?xml version="1.0" encoding="UTF-8" standalone="no"?>
<!DOCTYPE svg PUBLIC "-//W3C//DTD SVG 1.1//EN"
 "http://www.w3.org/Graphics/SVG/1.1/DTD/svg11.dtd">
<!-- Generated by graphviz version 14.1.3 (20260303.0454)
 -->
<!-- Title: Graphical Class Hierarchy Pages: 1 -->
<svg width="903pt" height="93pt"
 viewBox="0.00 0.00 903.00 93.00" xmlns="http://www.w3.org/2000/svg" xmlns:xlink="http://www.w3.org/1999/xlink">
<g id="graph0" class="graph" transform="scale(1 1) rotate(0) translate(4 89.12)">
<title>Graphical Class Hierarchy</title>
<!-- Node0 -->
<g id="Node000000" class="node">
<title>Node0</title>
<g id="a_Node000000"><a xlink:href="classllvm_1_1SmallVectorBase.html" target="_top" xlink:title=" ">
<polygon fill="white" stroke="#666666" points="146.5,-85.12 0,-85.12 0,-43.38 146.5,-43.38 146.5,-85.12"/>
<text xml:space="preserve" text-anchor="start" x="8" y="-71.62" font-family="Helvetica,sans-Serif" font-size="10.00">llvm::SmallVectorBase</text>
<text xml:space="preserve" text-anchor="start" x="8" y="-60.38" font-family="Helvetica,sans-Serif" font-size="10.00">&lt; SmallVectorSizeType</text>
<text xml:space="preserve" text-anchor="middle" x="73.25" y="-49.12" font-family="Helvetica,sans-Serif" font-size="10.00">&lt; const llvm::Instruction * &gt; &gt;</text>
</a>
</g>
</g>
<!-- Node1 -->
<g id="Node000001" class="node">
<title>Node1</title>
<g id="a_Node000001"><a xlink:href="classllvm_1_1SmallVectorTemplateCommon.html" target="_top" xlink:title=" ">
<polygon fill="white" stroke="#666666" points="359.75,-79.5 182.5,-79.5 182.5,-49 359.75,-49 359.75,-79.5"/>
<text xml:space="preserve" text-anchor="start" x="190.5" y="-66" font-family="Helvetica,sans-Serif" font-size="10.00">llvm::SmallVectorTemplate</text>
<text xml:space="preserve" text-anchor="middle" x="271.12" y="-54.75" font-family="Helvetica,sans-Serif" font-size="10.00">Common&lt; const llvm::Instruction * &gt;</text>
</a>
</g>
</g>
<!-- Node0&#45;&gt;Node1 -->
<g id="edge7969_Node000000_Node000001" class="edge">
<title>Node0&#45;&gt;Node1</title>
<g id="a_edge7969_Node000000_Node000001"><a xlink:title=" ">
<path fill="none" stroke="#63b8ff" d="M158.3,-64.25C166.15,-64.25 174.12,-64.25 182,-64.25"/>
<polygon fill="#63b8ff" stroke="#63b8ff" points="158.42,-60.75 148.42,-64.25 158.42,-67.75 158.42,-60.75"/>
</a>
</g>
</g>
<!-- Node2 -->
<g id="Node000002" class="node">
<title>Node2</title>
<g id="a_Node000002"><a xlink:href="classllvm_1_1SmallVectorTemplateBase.html" target="_top" xlink:title=" ">
<polygon fill="white" stroke="#666666" points="555.75,-79.5 395.75,-79.5 395.75,-49 555.75,-49 555.75,-79.5"/>
<text xml:space="preserve" text-anchor="start" x="403.75" y="-66" font-family="Helvetica,sans-Serif" font-size="10.00">llvm::SmallVectorTemplate</text>
<text xml:space="preserve" text-anchor="middle" x="475.75" y="-54.75" font-family="Helvetica,sans-Serif" font-size="10.00">Base&lt; const llvm::Instruction * &gt;</text>
</a>
</g>
</g>
<!-- Node1&#45;&gt;Node2 -->
<g id="edge7970_Node000001_Node000002" class="edge">
<title>Node1&#45;&gt;Node2</title>
<g id="a_edge7970_Node000001_Node000002"><a xlink:title=" ">
<path fill="none" stroke="#63b8ff" d="M371.46,-64.25C379.5,-64.25 387.57,-64.25 395.44,-64.25"/>
<polygon fill="#63b8ff" stroke="#63b8ff" points="371.63,-60.75 361.63,-64.25 371.63,-67.75 371.63,-60.75"/>
</a>
</g>
</g>
<!-- Node3 -->
<g id="Node000003" class="node">
<title>Node3</title>
<g id="a_Node000003"><a xlink:href="classllvm_1_1SmallVectorImpl.html" target="_top" xlink:title=" ">
<polygon fill="white" stroke="#666666" points="736,-79.5 598.5,-79.5 598.5,-49 736,-49 736,-79.5"/>
<text xml:space="preserve" text-anchor="start" x="606.5" y="-66" font-family="Helvetica,sans-Serif" font-size="10.00">llvm::SmallVectorImpl</text>
<text xml:space="preserve" text-anchor="middle" x="667.25" y="-54.75" font-family="Helvetica,sans-Serif" font-size="10.00">&lt; const llvm::Instruction * &gt;</text>
</a>
</g>
</g>
<!-- Node2&#45;&gt;Node3 -->
<g id="edge7971_Node000002_Node000003" class="edge">
<title>Node2&#45;&gt;Node3</title>
<g id="a_edge7971_Node000002_Node000003"><a xlink:title=" ">
<path fill="none" stroke="#63b8ff" d="M567.24,-64.25C577.64,-64.25 588.1,-64.25 598.13,-64.25"/>
<polygon fill="#63b8ff" stroke="#63b8ff" points="567.53,-60.75 557.53,-64.25 567.53,-67.75 567.53,-60.75"/>
</a>
</g>
</g>
<!-- Node4 -->
<g id="Node000004" class="node">
<title>Node4</title>
<g id="a_Node000004"><a xlink:href="classllvm_1_1SmallVector.html" target="_top" xlink:title=" ">
<polygon fill="white" stroke="#666666" points="894.5,-60.12 778.75,-60.12 778.75,-18.38 894.5,-18.38 894.5,-60.12"/>
<text xml:space="preserve" text-anchor="start" x="786.75" y="-46.62" font-family="Helvetica,sans-Serif" font-size="10.00">llvm::SmallVector&lt;</text>
<text xml:space="preserve" text-anchor="start" x="786.75" y="-35.38" font-family="Helvetica,sans-Serif" font-size="10.00"> const llvm::Instruction</text>
<text xml:space="preserve" text-anchor="middle" x="836.62" y="-24.12" font-family="Helvetica,sans-Serif" font-size="10.00"> *, 0 &gt;</text>
</a>
</g>
</g>
<!-- Node3&#45;&gt;Node4 -->
<g id="edge7972_Node000003_Node000004" class="edge">
<title>Node3&#45;&gt;Node4</title>
<g id="a_edge7972_Node000003_Node000004"><a xlink:title=" ">
<path fill="none" stroke="#63b8ff" d="M747.53,-52.41C757.92,-50.86 768.39,-49.29 778.32,-47.81"/>
<polygon fill="#63b8ff" stroke="#63b8ff" points="747.2,-48.92 737.82,-53.86 748.23,-55.84 747.2,-48.92"/>
</a>
</g>
</g>
<!-- Node5 -->
<g id="Node000005" class="node">
<title>Node5</title>
<g id="a_Node000005"><a xlink:href="structllvm_1_1SmallVectorStorage.html" target="_top" xlink:title=" ">
<polygon fill="white" stroke="#666666" points="742.75,-30.5 591.75,-30.5 591.75,0 742.75,0 742.75,-30.5"/>
<text xml:space="preserve" text-anchor="start" x="599.75" y="-17" font-family="Helvetica,sans-Serif" font-size="10.00">llvm::SmallVectorStorage</text>
<text xml:space="preserve" text-anchor="middle" x="667.25" y="-5.75" font-family="Helvetica,sans-Serif" font-size="10.00">&lt; const llvm::Instruction *, N &gt;</text>
</a>
</g>
</g>
<!-- Node5&#45;&gt;Node4 -->
<g id="edge7973_Node000005_Node000004" class="edge">
<title>Node5&#45;&gt;Node4</title>
<g id="a_edge7973_Node000005_Node000004"><a xlink:title=" ">
<path fill="none" stroke="#8b1a1a" d="M754.26,-27.58C762.44,-28.76 770.59,-29.92 778.39,-31.04"/>
<polygon fill="#8b1a1a" stroke="#8b1a1a" points="755.02,-24.16 744.62,-26.2 754.03,-31.09 755.02,-24.16"/>
</a>
</g>
</g>
</g>
</svg>
