<?xml version="1.0" encoding="UTF-8" standalone="no"?>
<!DOCTYPE svg PUBLIC "-//W3C//DTD SVG 1.1//EN"
 "http://www.w3.org/Graphics/SVG/1.1/DTD/svg11.dtd">
<!-- Generated by graphviz version 14.1.3 (20260303.0454)
 -->
<!-- Title: Graphical Class Hierarchy Pages: 1 -->
<svg width="536pt" height="64pt"
 viewBox="0.00 0.00 536.00 64.00" xmlns="http://www.w3.org/2000/svg" xmlns:xlink="http://www.w3.org/1999/xlink">
<g id="graph0" class="graph" transform="scale(1 1) rotate(0) translate(4 60.25)">
<title>Graphical Class Hierarchy</title>
<!-- Node0 -->
<g id="Node000000" class="node">
<title>Node0</title>
<g id="a_Node000000"><a xlink:href="structllvm_1_1PassInfoMixin.html" target="_top" xlink:title=" ">
<polygon fill="white" stroke="#666666" points="136,-42.88 0,-42.88 0,-12.37 136,-12.37 136,-42.88"/>
<text xml:space="preserve" text-anchor="start" x="8" y="-29.38" font-family="Helvetica,sans-Serif" font-size="10.00">llvm::PassInfoMixin</text>
<text xml:space="preserve" text-anchor="middle" x="68" y="-18.12" font-family="Helvetica,sans-Serif" font-size="10.00">&lt; SelectionDAGISelPass &gt;</text>
</a>
</g>
</g>
<!-- Node1 -->
<g id="Node000001" class="node">
<title>Node1</title>
<g id="a_Node000001"><a xlink:href="classllvm_1_1SelectionDAGISelPass.html" target="_top" xlink:title=" ">
<polygon fill="white" stroke="#666666" points="314,-37.25 172,-37.25 172,-18 314,-18 314,-37.25"/>
<text xml:space="preserve" text-anchor="middle" x="243" y="-23.75" font-family="Helvetica,sans-Serif" font-size="10.00">llvm::SelectionDAGISelPass</text>
</a>
</g>
</g>
<!-- Node0&#45;&gt;Node1 -->
<g id="edge5767_Node000000_Node000001" class="edge">
<title>Node0&#45;&gt;Node1</title>
<g id="a_edge5767_Node000000_Node000001"><a xlink:title=" ">
<path fill="none" stroke="#63b8ff" d="M147.62,-27.62C155.64,-27.62 163.74,-27.62 171.66,-27.62"/>
<polygon fill="#63b8ff" stroke="#63b8ff" points="147.9,-24.13 137.9,-27.63 147.9,-31.13 147.9,-24.13"/>
</a>
</g>
</g>
<!-- Node2 -->
<g id="Node000002" class="node">
<title>Node2</title>
<g id="a_Node000002"><a xlink:href="classllvm_1_1AMDGPUISelDAGToDAGPass.html" target="_top" xlink:title=" ">
<polygon fill="white" stroke="#666666" points="528,-56.25 350,-56.25 350,-37 528,-37 528,-56.25"/>
<text xml:space="preserve" text-anchor="middle" x="439" y="-42.75" font-family="Helvetica,sans-Serif" font-size="10.00">llvm::AMDGPUISelDAGToDAGPass</text>
</a>
</g>
</g>
<!-- Node1&#45;&gt;Node2 -->
<g id="edge5768_Node000001_Node000002" class="edge">
<title>Node1&#45;&gt;Node2</title>
<g id="a_edge5768_Node000001_Node000002"><a xlink:title=" ">
<path fill="none" stroke="#63b8ff" d="M325.5,-35.61C333.5,-36.39 341.64,-37.19 349.7,-37.98"/>
<polygon fill="#63b8ff" stroke="#63b8ff" points="326.11,-32.15 315.82,-34.66 325.43,-39.12 326.11,-32.15"/>
</a>
</g>
</g>
<!-- Node3 -->
<g id="Node000003" class="node">
<title>Node3</title>
<g id="a_Node000003"><a xlink:href="classllvm_1_1X86ISelDAGToDAGPass.html" target="_top" xlink:title=" ">
<polygon fill="white" stroke="#666666" points="514.5,-19.25 363.5,-19.25 363.5,0 514.5,0 514.5,-19.25"/>
<text xml:space="preserve" text-anchor="middle" x="439" y="-5.75" font-family="Helvetica,sans-Serif" font-size="10.00">llvm::X86ISelDAGToDAGPass</text>
</a>
</g>
</g>
<!-- Node1&#45;&gt;Node3 -->
<g id="edge5769_Node000001_Node000003" class="edge">
<title>Node1&#45;&gt;Node3</title>
<g id="a_edge5769_Node000001_Node000003"><a xlink:title=" ">
<path fill="none" stroke="#63b8ff" d="M325.59,-20.05C338,-18.9 350.76,-17.72 363.02,-16.58"/>
<polygon fill="#63b8ff" stroke="#63b8ff" points="325.45,-16.55 315.82,-20.96 326.1,-23.52 325.45,-16.55"/>
</a>
</g>
</g>
</g>
</svg>
