<?xml version="1.0" encoding="UTF-8" standalone="no"?>
<!DOCTYPE svg PUBLIC "-//W3C//DTD SVG 1.1//EN"
 "http://www.w3.org/Graphics/SVG/1.1/DTD/svg11.dtd">
<!-- Generated by graphviz version 14.1.3 (20260303.0454)
 -->
<!-- Title: Graphical Class Hierarchy Pages: 1 -->
<svg width="492pt" height="282pt"
 viewBox="0.00 0.00 492.00 282.00" xmlns="http://www.w3.org/2000/svg" xmlns:xlink="http://www.w3.org/1999/xlink">
<g id="graph0" class="graph" transform="scale(1 1) rotate(0) translate(4 277.88)">
<title>Graphical Class Hierarchy</title>
<!-- Node0 -->
<g id="Node000000" class="node">
<title>Node0</title>
<g id="a_Node000000"><a xlink:href="classllvm_1_1AccelTableBase.html" target="_top" xlink:title="A base class holding non&#45;template&#45;dependant functionality of the AccelTable class.">
<polygon fill="white" stroke="#666666" points="110.5,-143.25 0,-143.25 0,-124 110.5,-124 110.5,-143.25"/>
<text xml:space="preserve" text-anchor="middle" x="55.25" y="-129.75" font-family="Helvetica,sans-Serif" font-size="10.00">llvm::AccelTableBase</text>
</a>
</g>
</g>
<!-- Node1 -->
<g id="Node000001" class="node">
<title>Node1</title>
<g id="a_Node000001"><a xlink:href="classllvm_1_1AccelTable.html" target="_top" xlink:title=" ">
<polygon fill="white" stroke="#666666" points="301.62,-273.88 162.62,-273.88 162.62,-243.38 301.62,-243.38 301.62,-273.88"/>
<text xml:space="preserve" text-anchor="start" x="170.62" y="-260.38" font-family="Helvetica,sans-Serif" font-size="10.00">llvm::AccelTable&lt; DWARF5</text>
<text xml:space="preserve" text-anchor="middle" x="232.12" y="-249.12" font-family="Helvetica,sans-Serif" font-size="10.00">AccelTableData &gt;</text>
</a>
</g>
</g>
<!-- Node0&#45;&gt;Node1 -->
<g id="edge588_Node000000_Node000001" class="edge">
<title>Node0&#45;&gt;Node1</title>
<g id="a_edge588_Node000000_Node000001"><a xlink:title=" ">
<path fill="none" stroke="#63b8ff" d="M68.79,-153.05C84.37,-175.64 113.01,-212.54 146.5,-233.62 152.2,-237.22 158.45,-240.31 164.88,-242.98"/>
<polygon fill="#63b8ff" stroke="#63b8ff" points="71.72,-151.13 63.25,-144.76 65.9,-155.02 71.72,-151.13"/>
</a>
</g>
</g>
<!-- Node3 -->
<g id="Node000003" class="node">
<title>Node3</title>
<g id="a_Node000003"><a xlink:href="classllvm_1_1AccelTable.html" target="_top" xlink:title=" ">
<polygon fill="white" stroke="#666666" points="308,-224.88 156.25,-224.88 156.25,-194.38 308,-194.38 308,-224.88"/>
<text xml:space="preserve" text-anchor="start" x="164.25" y="-211.38" font-family="Helvetica,sans-Serif" font-size="10.00">llvm::AccelTable&lt; llvm</text>
<text xml:space="preserve" text-anchor="middle" x="232.12" y="-200.12" font-family="Helvetica,sans-Serif" font-size="10.00">::AppleAccelTableOffsetData &gt;</text>
</a>
</g>
</g>
<!-- Node0&#45;&gt;Node3 -->
<g id="edge590_Node000000_Node000003" class="edge">
<title>Node0&#45;&gt;Node3</title>
<g id="a_edge590_Node000000_Node000003"><a xlink:title=" ">
<path fill="none" stroke="#63b8ff" d="M80.91,-149.59C98.63,-160.55 123.37,-174.82 146.5,-184.62 154.54,-188.03 163.2,-191.16 171.79,-193.97"/>
<polygon fill="#63b8ff" stroke="#63b8ff" points="82.97,-146.75 72.64,-144.39 79.24,-152.67 82.97,-146.75"/>
</a>
</g>
</g>
<!-- Node4 -->
<g id="Node000004" class="node">
<title>Node4</title>
<g id="a_Node000004"><a xlink:href="classllvm_1_1AccelTable.html" target="_top" xlink:title=" ">
<polygon fill="white" stroke="#666666" points="305,-175.88 159.25,-175.88 159.25,-145.38 305,-145.38 305,-175.88"/>
<text xml:space="preserve" text-anchor="start" x="167.25" y="-162.38" font-family="Helvetica,sans-Serif" font-size="10.00">llvm::AccelTable&lt; llvm</text>
<text xml:space="preserve" text-anchor="middle" x="232.12" y="-151.12" font-family="Helvetica,sans-Serif" font-size="10.00">::AppleAccelTableTypeData &gt;</text>
</a>
</g>
</g>
<!-- Node0&#45;&gt;Node4 -->
<g id="edge591_Node000000_Node000004" class="edge">
<title>Node0&#45;&gt;Node4</title>
<g id="a_edge591_Node000000_Node000004"><a xlink:title=" ">
<path fill="none" stroke="#63b8ff" d="M121.94,-143.77C133.96,-145.62 146.58,-147.57 158.78,-149.46"/>
<polygon fill="#63b8ff" stroke="#63b8ff" points="122.54,-140.32 112.12,-142.25 121.47,-147.24 122.54,-140.32"/>
</a>
</g>
</g>
<!-- Node5 -->
<g id="Node000005" class="node">
<title>Node5</title>
<g id="a_Node000005"><a xlink:href="classllvm_1_1AccelTable.html" target="_top" xlink:title=" ">
<polygon fill="white" stroke="#666666" points="305.75,-127.5 158.5,-127.5 158.5,-85.75 305.75,-85.75 305.75,-127.5"/>
<text xml:space="preserve" text-anchor="start" x="166.5" y="-114" font-family="Helvetica,sans-Serif" font-size="10.00">llvm::AccelTable&lt; llvm</text>
<text xml:space="preserve" text-anchor="start" x="166.5" y="-102.75" font-family="Helvetica,sans-Serif" font-size="10.00">::AppleAccelTableStaticOffset</text>
<text xml:space="preserve" text-anchor="middle" x="232.12" y="-91.5" font-family="Helvetica,sans-Serif" font-size="10.00">Data &gt;</text>
</a>
</g>
</g>
<!-- Node0&#45;&gt;Node5 -->
<g id="edge592_Node000000_Node000005" class="edge">
<title>Node0&#45;&gt;Node5</title>
<g id="a_edge592_Node000000_Node000005"><a xlink:title=" ">
<path fill="none" stroke="#63b8ff" d="M121.79,-123.51C133.65,-121.67 146.09,-119.75 158.15,-117.89"/>
<polygon fill="#63b8ff" stroke="#63b8ff" points="121.47,-120.01 112.12,-125 122.54,-126.93 121.47,-120.01"/>
</a>
</g>
</g>
<!-- Node6 -->
<g id="Node000006" class="node">
<title>Node6</title>
<g id="a_Node000006"><a xlink:href="classllvm_1_1AccelTable.html" target="_top" xlink:title=" ">
<polygon fill="white" stroke="#666666" points="317.75,-67.88 146.5,-67.88 146.5,-37.38 317.75,-37.38 317.75,-67.88"/>
<text xml:space="preserve" text-anchor="start" x="154.5" y="-54.38" font-family="Helvetica,sans-Serif" font-size="10.00">llvm::AccelTable&lt; llvm</text>
<text xml:space="preserve" text-anchor="middle" x="232.12" y="-43.12" font-family="Helvetica,sans-Serif" font-size="10.00">::AppleAccelTableStaticTypeData &gt;</text>
</a>
</g>
</g>
<!-- Node0&#45;&gt;Node6 -->
<g id="edge593_Node000000_Node000006" class="edge">
<title>Node0&#45;&gt;Node6</title>
<g id="a_edge593_Node000000_Node000006"><a xlink:title=" ">
<path fill="none" stroke="#63b8ff" d="M78.25,-117.2C95.92,-104.63 121.8,-87.65 146.5,-76.62 153.33,-73.57 160.65,-70.81 168.02,-68.34"/>
<polygon fill="#63b8ff" stroke="#63b8ff" points="76.6,-114.07 70.55,-122.77 80.7,-119.74 76.6,-114.07"/>
</a>
</g>
</g>
<!-- Node7 -->
<g id="Node000007" class="node">
<title>Node7</title>
<g id="a_Node000007"><a xlink:href="classllvm_1_1AccelTable.html" target="_top" xlink:title="This class holds an abstract representation of an Accelerator Table, consisting of a sequence of buck...">
<polygon fill="white" stroke="#666666" points="298.62,-19.25 165.62,-19.25 165.62,0 298.62,0 298.62,-19.25"/>
<text xml:space="preserve" text-anchor="middle" x="232.12" y="-5.75" font-family="Helvetica,sans-Serif" font-size="10.00">llvm::AccelTable&lt; DataT &gt;</text>
</a>
</g>
</g>
<!-- Node0&#45;&gt;Node7 -->
<g id="edge594_Node000000_Node000007" class="edge">
<title>Node0&#45;&gt;Node7</title>
<g id="a_edge594_Node000000_Node000007"><a xlink:title=" ">
<path fill="none" stroke="#63b8ff" d="M67.65,-113.88C82.6,-89.85 111.12,-49.87 146.5,-28.62 152.57,-24.98 159.26,-22.04 166.14,-19.65"/>
<polygon fill="#63b8ff" stroke="#63b8ff" points="64.7,-112 62.55,-122.37 70.7,-115.61 64.7,-112"/>
</a>
</g>
</g>
<!-- Node2 -->
<g id="Node000002" class="node">
<title>Node2</title>
<g id="a_Node000002"><a xlink:href="classllvm_1_1DWARF5AccelTable.html" target="_top" xlink:title=" ">
<polygon fill="white" stroke="#666666" points="483.75,-268.25 353.75,-268.25 353.75,-249 483.75,-249 483.75,-268.25"/>
<text xml:space="preserve" text-anchor="middle" x="418.75" y="-254.75" font-family="Helvetica,sans-Serif" font-size="10.00">llvm::DWARF5AccelTable</text>
</a>
</g>
</g>
<!-- Node1&#45;&gt;Node2 -->
<g id="edge589_Node000001_Node000002" class="edge">
<title>Node1&#45;&gt;Node2</title>
<g id="a_edge589_Node000001_Node000002"><a xlink:title=" ">
<path fill="none" stroke="#63b8ff" d="M313.11,-258.62C326.62,-258.62 340.49,-258.62 353.53,-258.62"/>
<polygon fill="#63b8ff" stroke="#63b8ff" points="313.39,-255.13 303.39,-258.63 313.39,-262.13 313.39,-255.13"/>
</a>
</g>
</g>
</g>
</svg>
