<?xml version="1.0" encoding="UTF-8" standalone="no"?>
<!DOCTYPE svg PUBLIC "-//W3C//DTD SVG 1.1//EN"
 "http://www.w3.org/Graphics/SVG/1.1/DTD/svg11.dtd">
<!-- Generated by graphviz version 14.1.3 (20260303.0454)
 -->
<!-- Title: Graphical Class Hierarchy Pages: 1 -->
<svg width="267pt" height="88pt"
 viewBox="0.00 0.00 267.00 88.00" xmlns="http://www.w3.org/2000/svg" xmlns:xlink="http://www.w3.org/1999/xlink">
<g id="graph0" class="graph" transform="scale(1 1) rotate(0) translate(4 83.5)">
<title>Graphical Class Hierarchy</title>
<!-- Node0 -->
<g id="Node000000" class="node">
<title>Node0</title>
<g id="a_Node000000"><a xlink:href="structllvm_1_1PatternMatch_1_1immconstant__ty.html" target="_top" xlink:title=" ">
<polygon fill="white" stroke="#666666" points="98.5,-54.5 0,-54.5 0,-24 98.5,-24 98.5,-54.5"/>
<text xml:space="preserve" text-anchor="start" x="8" y="-41" font-family="Helvetica,sans-Serif" font-size="10.00">llvm::PatternMatch</text>
<text xml:space="preserve" text-anchor="middle" x="49.25" y="-29.75" font-family="Helvetica,sans-Serif" font-size="10.00">::immconstant_ty</text>
</a>
</g>
</g>
<!-- Node1 -->
<g id="Node000001" class="node">
<title>Node1</title>
<g id="a_Node000001"><a xlink:href="structllvm_1_1PatternMatch_1_1bind__immconstant__ty.html" target="_top" xlink:title=" ">
<polygon fill="white" stroke="#666666" points="254,-79.5 139,-79.5 139,-49 254,-49 254,-79.5"/>
<text xml:space="preserve" text-anchor="start" x="147" y="-66" font-family="Helvetica,sans-Serif" font-size="10.00">llvm::PatternMatch</text>
<text xml:space="preserve" text-anchor="middle" x="196.5" y="-54.75" font-family="Helvetica,sans-Serif" font-size="10.00">::bind_immconstant_ty</text>
</a>
</g>
</g>
<!-- Node0&#45;&gt;Node1 -->
<g id="edge5912_Node000000_Node000001" class="edge">
<title>Node0&#45;&gt;Node1</title>
<g id="a_edge5912_Node000000_Node000001"><a xlink:title=" ">
<path fill="none" stroke="#63b8ff" d="M109.95,-49.53C119.4,-51.15 129.15,-52.83 138.53,-54.45"/>
<polygon fill="#63b8ff" stroke="#63b8ff" points="110.56,-46.08 100.11,-47.83 109.37,-52.98 110.56,-46.08"/>
</a>
</g>
</g>
<!-- Node2 -->
<g id="Node000002" class="node">
<title>Node2</title>
<g id="a_Node000002"><a xlink:href="structllvm_1_1PatternMatch_1_1match__immconstant__ty.html" target="_top" xlink:title=" ">
<polygon fill="white" stroke="#666666" points="258.5,-30.5 134.5,-30.5 134.5,0 258.5,0 258.5,-30.5"/>
<text xml:space="preserve" text-anchor="start" x="142.5" y="-17" font-family="Helvetica,sans-Serif" font-size="10.00">llvm::PatternMatch</text>
<text xml:space="preserve" text-anchor="middle" x="196.5" y="-5.75" font-family="Helvetica,sans-Serif" font-size="10.00">::match_immconstant_ty</text>
</a>
</g>
</g>
<!-- Node0&#45;&gt;Node2 -->
<g id="edge5913_Node000000_Node000002" class="edge">
<title>Node0&#45;&gt;Node2</title>
<g id="a_edge5913_Node000000_Node000002"><a xlink:title=" ">
<path fill="none" stroke="#63b8ff" d="M109.79,-29.41C117.83,-28.08 126.1,-26.72 134.17,-25.38"/>
<polygon fill="#63b8ff" stroke="#63b8ff" points="109.41,-25.93 100.11,-31.01 110.55,-32.83 109.41,-25.93"/>
</a>
</g>
</g>
</g>
</svg>
