<?xml version="1.0" encoding="UTF-8" standalone="no"?>
<!DOCTYPE svg PUBLIC "-//W3C//DTD SVG 1.1//EN"
 "http://www.w3.org/Graphics/SVG/1.1/DTD/svg11.dtd">
<!-- Generated by graphviz version 14.1.3 (20260303.0454)
 -->
<!-- Title: Graphical Class Hierarchy Pages: 1 -->
<svg width="1009pt" height="93pt"
 viewBox="0.00 0.00 1009.00 93.00" xmlns="http://www.w3.org/2000/svg" xmlns:xlink="http://www.w3.org/1999/xlink">
<g id="graph0" class="graph" transform="scale(1 1) rotate(0) translate(4 89.12)">
<title>Graphical Class Hierarchy</title>
<!-- Node0 -->
<g id="Node000000" class="node">
<title>Node0</title>
<g id="a_Node000000"><a xlink:href="classllvm_1_1SmallVectorBase.html" target="_top" xlink:title=" ">
<polygon fill="white" stroke="#666666" points="174.25,-85.12 0,-85.12 0,-43.38 174.25,-43.38 174.25,-85.12"/>
<text xml:space="preserve" text-anchor="start" x="8" y="-71.62" font-family="Helvetica,sans-Serif" font-size="10.00">llvm::SmallVectorBase</text>
<text xml:space="preserve" text-anchor="start" x="8" y="-60.38" font-family="Helvetica,sans-Serif" font-size="10.00">&lt; SmallVectorSizeType</text>
<text xml:space="preserve" text-anchor="middle" x="87.12" y="-49.12" font-family="Helvetica,sans-Serif" font-size="10.00">&lt; llvm::CoroAwaitSuspendInst * &gt; &gt;</text>
</a>
</g>
</g>
<!-- Node1 -->
<g id="Node000001" class="node">
<title>Node1</title>
<g id="a_Node000001"><a xlink:href="classllvm_1_1SmallVectorTemplateCommon.html" target="_top" xlink:title=" ">
<polygon fill="white" stroke="#666666" points="383,-85.12 210.25,-85.12 210.25,-43.38 383,-43.38 383,-85.12"/>
<text xml:space="preserve" text-anchor="start" x="218.25" y="-71.62" font-family="Helvetica,sans-Serif" font-size="10.00">llvm::SmallVectorTemplate</text>
<text xml:space="preserve" text-anchor="start" x="218.25" y="-60.38" font-family="Helvetica,sans-Serif" font-size="10.00">Common&lt; llvm::CoroAwaitSuspend</text>
<text xml:space="preserve" text-anchor="middle" x="296.62" y="-49.12" font-family="Helvetica,sans-Serif" font-size="10.00">Inst * &gt;</text>
</a>
</g>
</g>
<!-- Node0&#45;&gt;Node1 -->
<g id="edge8379_Node000000_Node000001" class="edge">
<title>Node0&#45;&gt;Node1</title>
<g id="a_edge8379_Node000000_Node000001"><a xlink:title=" ">
<path fill="none" stroke="#63b8ff" d="M185.91,-64.25C193.94,-64.25 202.01,-64.25 209.94,-64.25"/>
<polygon fill="#63b8ff" stroke="#63b8ff" points="186.13,-60.75 176.13,-64.25 186.13,-67.75 186.13,-60.75"/>
</a>
</g>
</g>
<!-- Node2 -->
<g id="Node000002" class="node">
<title>Node2</title>
<g id="a_Node000002"><a xlink:href="classllvm_1_1SmallVectorTemplateBase.html" target="_top" xlink:title=" ">
<polygon fill="white" stroke="#666666" points="606.75,-79.5 419,-79.5 419,-49 606.75,-49 606.75,-79.5"/>
<text xml:space="preserve" text-anchor="start" x="427" y="-66" font-family="Helvetica,sans-Serif" font-size="10.00">llvm::SmallVectorTemplate</text>
<text xml:space="preserve" text-anchor="middle" x="512.88" y="-54.75" font-family="Helvetica,sans-Serif" font-size="10.00">Base&lt; llvm::CoroAwaitSuspendInst * &gt;</text>
</a>
</g>
</g>
<!-- Node1&#45;&gt;Node2 -->
<g id="edge8380_Node000001_Node000002" class="edge">
<title>Node1&#45;&gt;Node2</title>
<g id="a_edge8380_Node000001_Node000002"><a xlink:title=" ">
<path fill="none" stroke="#63b8ff" d="M394.52,-64.25C402.55,-64.25 410.67,-64.25 418.67,-64.25"/>
<polygon fill="#63b8ff" stroke="#63b8ff" points="394.74,-60.75 384.74,-64.25 394.74,-67.75 394.74,-60.75"/>
</a>
</g>
</g>
<!-- Node3 -->
<g id="Node000003" class="node">
<title>Node3</title>
<g id="a_Node000003"><a xlink:href="classllvm_1_1SmallVectorImpl.html" target="_top" xlink:title=" ">
<polygon fill="white" stroke="#666666" points="814.75,-79.5 649.5,-79.5 649.5,-49 814.75,-49 814.75,-79.5"/>
<text xml:space="preserve" text-anchor="start" x="657.5" y="-66" font-family="Helvetica,sans-Serif" font-size="10.00">llvm::SmallVectorImpl</text>
<text xml:space="preserve" text-anchor="middle" x="732.12" y="-54.75" font-family="Helvetica,sans-Serif" font-size="10.00">&lt; llvm::CoroAwaitSuspendInst * &gt;</text>
</a>
</g>
</g>
<!-- Node2&#45;&gt;Node3 -->
<g id="edge8381_Node000002_Node000003" class="edge">
<title>Node2&#45;&gt;Node3</title>
<g id="a_edge8381_Node000002_Node000003"><a xlink:title=" ">
<path fill="none" stroke="#63b8ff" d="M618.21,-64.25C628.61,-64.25 639.07,-64.25 649.2,-64.25"/>
<polygon fill="#63b8ff" stroke="#63b8ff" points="618.47,-60.75 608.47,-64.25 618.47,-67.75 618.47,-60.75"/>
</a>
</g>
</g>
<!-- Node4 -->
<g id="Node000004" class="node">
<title>Node4</title>
<g id="a_Node000004"><a xlink:href="classllvm_1_1SmallVector.html" target="_top" xlink:title=" ">
<polygon fill="white" stroke="#666666" points="1001,-60.12 857.5,-60.12 857.5,-18.38 1001,-18.38 1001,-60.12"/>
<text xml:space="preserve" text-anchor="start" x="865.5" y="-46.62" font-family="Helvetica,sans-Serif" font-size="10.00">llvm::SmallVector&lt;</text>
<text xml:space="preserve" text-anchor="start" x="865.5" y="-35.38" font-family="Helvetica,sans-Serif" font-size="10.00"> llvm::CoroAwaitSuspendInst</text>
<text xml:space="preserve" text-anchor="middle" x="929.25" y="-24.12" font-family="Helvetica,sans-Serif" font-size="10.00"> *, 4 &gt;</text>
</a>
</g>
</g>
<!-- Node3&#45;&gt;Node4 -->
<g id="edge8382_Node000003_Node000004" class="edge">
<title>Node3&#45;&gt;Node4</title>
<g id="a_edge8382_Node000003_Node000004"><a xlink:title=" ">
<path fill="none" stroke="#63b8ff" d="M826.23,-52.32C836.61,-50.99 847.05,-49.65 857.09,-48.37"/>
<polygon fill="#63b8ff" stroke="#63b8ff" points="826,-48.82 816.53,-53.56 826.89,-55.76 826,-48.82"/>
</a>
</g>
</g>
<!-- Node5 -->
<g id="Node000005" class="node">
<title>Node5</title>
<g id="a_Node000005"><a xlink:href="structllvm_1_1SmallVectorStorage.html" target="_top" xlink:title=" ">
<polygon fill="white" stroke="#666666" points="821.5,-30.5 642.75,-30.5 642.75,0 821.5,0 821.5,-30.5"/>
<text xml:space="preserve" text-anchor="start" x="650.75" y="-17" font-family="Helvetica,sans-Serif" font-size="10.00">llvm::SmallVectorStorage</text>
<text xml:space="preserve" text-anchor="middle" x="732.12" y="-5.75" font-family="Helvetica,sans-Serif" font-size="10.00">&lt; llvm::CoroAwaitSuspendInst *, N &gt;</text>
</a>
</g>
</g>
<!-- Node5&#45;&gt;Node4 -->
<g id="edge8383_Node000005_Node000004" class="edge">
<title>Node5&#45;&gt;Node4</title>
<g id="a_edge8383_Node000005_Node000004"><a xlink:title=" ">
<path fill="none" stroke="#8b1a1a" d="M833.19,-27.56C841.22,-28.55 849.23,-29.53 857,-30.49"/>
<polygon fill="#8b1a1a" stroke="#8b1a1a" points="833.69,-24.09 823.34,-26.35 832.84,-31.04 833.69,-24.09"/>
</a>
</g>
</g>
</g>
</svg>
