<?xml version="1.0" encoding="UTF-8" standalone="no"?>
<!DOCTYPE svg PUBLIC "-//W3C//DTD SVG 1.1//EN"
 "http://www.w3.org/Graphics/SVG/1.1/DTD/svg11.dtd">
<!-- Generated by graphviz version 14.1.3 (20260303.0454)
 -->
<!-- Title: Graphical Class Hierarchy Pages: 1 -->
<svg width="962pt" height="93pt"
 viewBox="0.00 0.00 962.00 93.00" xmlns="http://www.w3.org/2000/svg" xmlns:xlink="http://www.w3.org/1999/xlink">
<g id="graph0" class="graph" transform="scale(1 1) rotate(0) translate(4 89.12)">
<title>Graphical Class Hierarchy</title>
<!-- Node0 -->
<g id="Node000000" class="node">
<title>Node0</title>
<g id="a_Node000000"><a xlink:href="classllvm_1_1SmallVectorBase.html" target="_top" xlink:title=" ">
<polygon fill="white" stroke="#666666" points="153.25,-85.12 0,-85.12 0,-43.38 153.25,-43.38 153.25,-85.12"/>
<text xml:space="preserve" text-anchor="start" x="8" y="-71.62" font-family="Helvetica,sans-Serif" font-size="10.00">llvm::SmallVectorBase</text>
<text xml:space="preserve" text-anchor="start" x="8" y="-60.38" font-family="Helvetica,sans-Serif" font-size="10.00">&lt; SmallVectorSizeType</text>
<text xml:space="preserve" text-anchor="middle" x="76.62" y="-49.12" font-family="Helvetica,sans-Serif" font-size="10.00">&lt; InjectedSourceDescriptor &gt; &gt;</text>
</a>
</g>
</g>
<!-- Node1 -->
<g id="Node000001" class="node">
<title>Node1</title>
<g id="a_Node000001"><a xlink:href="classllvm_1_1SmallVectorTemplateCommon.html" target="_top" xlink:title=" ">
<polygon fill="white" stroke="#666666" points="373.25,-79.5 189.25,-79.5 189.25,-49 373.25,-49 373.25,-79.5"/>
<text xml:space="preserve" text-anchor="start" x="197.25" y="-66" font-family="Helvetica,sans-Serif" font-size="10.00">llvm::SmallVectorTemplate</text>
<text xml:space="preserve" text-anchor="middle" x="281.25" y="-54.75" font-family="Helvetica,sans-Serif" font-size="10.00">Common&lt; InjectedSourceDescriptor &gt;</text>
</a>
</g>
</g>
<!-- Node0&#45;&gt;Node1 -->
<g id="edge8145_Node000000_Node000001" class="edge">
<title>Node0&#45;&gt;Node1</title>
<g id="a_edge8145_Node000000_Node000001"><a xlink:title=" ">
<path fill="none" stroke="#63b8ff" d="M165.05,-64.25C172.91,-64.25 180.87,-64.25 188.76,-64.25"/>
<polygon fill="#63b8ff" stroke="#63b8ff" points="165.17,-60.75 155.17,-64.25 165.17,-67.75 165.17,-60.75"/>
</a>
</g>
</g>
<!-- Node2 -->
<g id="Node000002" class="node">
<title>Node2</title>
<g id="a_Node000002"><a xlink:href="classllvm_1_1SmallVectorTemplateBase.html" target="_top" xlink:title=" ">
<polygon fill="white" stroke="#666666" points="576,-79.5 409.25,-79.5 409.25,-49 576,-49 576,-79.5"/>
<text xml:space="preserve" text-anchor="start" x="417.25" y="-66" font-family="Helvetica,sans-Serif" font-size="10.00">llvm::SmallVectorTemplate</text>
<text xml:space="preserve" text-anchor="middle" x="492.62" y="-54.75" font-family="Helvetica,sans-Serif" font-size="10.00">Base&lt; InjectedSourceDescriptor &gt;</text>
</a>
</g>
</g>
<!-- Node1&#45;&gt;Node2 -->
<g id="edge8146_Node000001_Node000002" class="edge">
<title>Node1&#45;&gt;Node2</title>
<g id="a_edge8146_Node000001_Node000002"><a xlink:title=" ">
<path fill="none" stroke="#63b8ff" d="M384.86,-64.25C392.93,-64.25 401.02,-64.25 408.93,-64.25"/>
<polygon fill="#63b8ff" stroke="#63b8ff" points="384.99,-60.75 374.99,-64.25 384.99,-67.75 384.99,-60.75"/>
</a>
</g>
</g>
<!-- Node3 -->
<g id="Node000003" class="node">
<title>Node3</title>
<g id="a_Node000003"><a xlink:href="classllvm_1_1SmallVectorImpl.html" target="_top" xlink:title=" ">
<polygon fill="white" stroke="#666666" points="762.62,-79.5 618.38,-79.5 618.38,-49 762.62,-49 762.62,-79.5"/>
<text xml:space="preserve" text-anchor="start" x="626.38" y="-66" font-family="Helvetica,sans-Serif" font-size="10.00">llvm::SmallVectorImpl</text>
<text xml:space="preserve" text-anchor="middle" x="690.5" y="-54.75" font-family="Helvetica,sans-Serif" font-size="10.00">&lt; InjectedSourceDescriptor &gt;</text>
</a>
</g>
</g>
<!-- Node2&#45;&gt;Node3 -->
<g id="edge8147_Node000002_Node000003" class="edge">
<title>Node2&#45;&gt;Node3</title>
<g id="a_edge8147_Node000002_Node000003"><a xlink:title=" ">
<path fill="none" stroke="#63b8ff" d="M587.87,-64.25C598.06,-64.25 608.31,-64.25 618.17,-64.25"/>
<polygon fill="#63b8ff" stroke="#63b8ff" points="587.92,-60.75 577.92,-64.25 587.92,-67.75 587.92,-60.75"/>
</a>
</g>
</g>
<!-- Node4 -->
<g id="Node000004" class="node">
<title>Node4</title>
<g id="a_Node000004"><a xlink:href="classllvm_1_1SmallVector.html" target="_top" xlink:title=" ">
<polygon fill="white" stroke="#666666" points="953.75,-54.5 805,-54.5 805,-24 953.75,-24 953.75,-54.5"/>
<text xml:space="preserve" text-anchor="start" x="813" y="-41" font-family="Helvetica,sans-Serif" font-size="10.00">llvm::SmallVector&lt;</text>
<text xml:space="preserve" text-anchor="middle" x="879.38" y="-29.75" font-family="Helvetica,sans-Serif" font-size="10.00"> InjectedSourceDescriptor, 2 &gt;</text>
</a>
</g>
</g>
<!-- Node3&#45;&gt;Node4 -->
<g id="edge8148_Node000003_Node000004" class="edge">
<title>Node3&#45;&gt;Node4</title>
<g id="a_edge8148_Node000003_Node000004"><a xlink:title=" ">
<path fill="none" stroke="#63b8ff" d="M774.32,-53.17C784.47,-51.81 794.79,-50.43 804.8,-49.09"/>
<polygon fill="#63b8ff" stroke="#63b8ff" points="773.9,-49.7 764.45,-54.49 774.83,-56.63 773.9,-49.7"/>
</a>
</g>
</g>
<!-- Node5 -->
<g id="Node000005" class="node">
<title>Node5</title>
<g id="a_Node000005"><a xlink:href="structllvm_1_1SmallVectorStorage.html" target="_top" xlink:title=" ">
<polygon fill="white" stroke="#666666" points="769,-30.5 612,-30.5 612,0 769,0 769,-30.5"/>
<text xml:space="preserve" text-anchor="start" x="620" y="-17" font-family="Helvetica,sans-Serif" font-size="10.00">llvm::SmallVectorStorage</text>
<text xml:space="preserve" text-anchor="middle" x="690.5" y="-5.75" font-family="Helvetica,sans-Serif" font-size="10.00">&lt; InjectedSourceDescriptor, N &gt;</text>
</a>
</g>
</g>
<!-- Node5&#45;&gt;Node4 -->
<g id="edge8149_Node000005_Node000004" class="edge">
<title>Node5&#45;&gt;Node4</title>
<g id="a_edge8149_Node000005_Node000004"><a xlink:title=" ">
<path fill="none" stroke="#8b1a1a" d="M780.74,-26.71C788.79,-27.75 796.89,-28.79 804.79,-29.8"/>
<polygon fill="#8b1a1a" stroke="#8b1a1a" points="781.26,-23.25 770.9,-25.45 780.37,-30.19 781.26,-23.25"/>
</a>
</g>
</g>
</g>
</svg>
