<?xml version="1.0" encoding="UTF-8" standalone="no"?>
<!DOCTYPE svg PUBLIC "-//W3C//DTD SVG 1.1//EN"
 "http://www.w3.org/Graphics/SVG/1.1/DTD/svg11.dtd">
<!-- Generated by graphviz version 14.1.3 (20260303.0454)
 -->
<!-- Title: Graphical Class Hierarchy Pages: 1 -->
<svg width="978pt" height="93pt"
 viewBox="0.00 0.00 978.00 93.00" xmlns="http://www.w3.org/2000/svg" xmlns:xlink="http://www.w3.org/1999/xlink">
<g id="graph0" class="graph" transform="scale(1 1) rotate(0) translate(4 89.12)">
<title>Graphical Class Hierarchy</title>
<!-- Node0 -->
<g id="Node000000" class="node">
<title>Node0</title>
<g id="a_Node000000"><a xlink:href="classllvm_1_1SmallVectorBase.html" target="_top" xlink:title=" ">
<polygon fill="white" stroke="#666666" points="156.25,-85.12 0,-85.12 0,-43.38 156.25,-43.38 156.25,-85.12"/>
<text xml:space="preserve" text-anchor="start" x="8" y="-71.62" font-family="Helvetica,sans-Serif" font-size="10.00">llvm::SmallVectorBase</text>
<text xml:space="preserve" text-anchor="start" x="8" y="-60.38" font-family="Helvetica,sans-Serif" font-size="10.00">&lt; SmallVectorSizeType</text>
<text xml:space="preserve" text-anchor="middle" x="78.12" y="-49.12" font-family="Helvetica,sans-Serif" font-size="10.00">&lt; TemporalDivergenceTuple &gt; &gt;</text>
</a>
</g>
</g>
<!-- Node1 -->
<g id="Node000001" class="node">
<title>Node1</title>
<g id="a_Node000001"><a xlink:href="classllvm_1_1SmallVectorTemplateCommon.html" target="_top" xlink:title=" ">
<polygon fill="white" stroke="#666666" points="379.25,-79.5 192.25,-79.5 192.25,-49 379.25,-49 379.25,-79.5"/>
<text xml:space="preserve" text-anchor="start" x="200.25" y="-66" font-family="Helvetica,sans-Serif" font-size="10.00">llvm::SmallVectorTemplate</text>
<text xml:space="preserve" text-anchor="middle" x="285.75" y="-54.75" font-family="Helvetica,sans-Serif" font-size="10.00">Common&lt; TemporalDivergenceTuple &gt;</text>
</a>
</g>
</g>
<!-- Node0&#45;&gt;Node1 -->
<g id="edge10325_Node000000_Node000001" class="edge">
<title>Node0&#45;&gt;Node1</title>
<g id="a_edge10325_Node000000_Node000001"><a xlink:title=" ">
<path fill="none" stroke="#63b8ff" d="M168.01,-64.25C175.89,-64.25 183.88,-64.25 191.79,-64.25"/>
<polygon fill="#63b8ff" stroke="#63b8ff" points="168.08,-60.75 158.08,-64.25 168.08,-67.75 168.08,-60.75"/>
</a>
</g>
</g>
<!-- Node2 -->
<g id="Node000002" class="node">
<title>Node2</title>
<g id="a_Node000002"><a xlink:href="classllvm_1_1SmallVectorTemplateBase.html" target="_top" xlink:title=" ">
<polygon fill="white" stroke="#666666" points="585,-79.5 415.25,-79.5 415.25,-49 585,-49 585,-79.5"/>
<text xml:space="preserve" text-anchor="start" x="423.25" y="-66" font-family="Helvetica,sans-Serif" font-size="10.00">llvm::SmallVectorTemplate</text>
<text xml:space="preserve" text-anchor="middle" x="500.12" y="-54.75" font-family="Helvetica,sans-Serif" font-size="10.00">Base&lt; TemporalDivergenceTuple &gt;</text>
</a>
</g>
</g>
<!-- Node1&#45;&gt;Node2 -->
<g id="edge10326_Node000001_Node000002" class="edge">
<title>Node1&#45;&gt;Node2</title>
<g id="a_edge10326_Node000001_Node000002"><a xlink:title=" ">
<path fill="none" stroke="#63b8ff" d="M390.9,-64.25C398.92,-64.25 406.96,-64.25 414.83,-64.25"/>
<polygon fill="#63b8ff" stroke="#63b8ff" points="391.11,-60.75 381.11,-64.25 391.11,-67.75 391.11,-60.75"/>
</a>
</g>
</g>
<!-- Node3 -->
<g id="Node000003" class="node">
<title>Node3</title>
<g id="a_Node000003"><a xlink:href="classllvm_1_1SmallVectorImpl.html" target="_top" xlink:title=" ">
<polygon fill="white" stroke="#666666" points="775,-79.5 627.75,-79.5 627.75,-49 775,-49 775,-79.5"/>
<text xml:space="preserve" text-anchor="start" x="635.75" y="-66" font-family="Helvetica,sans-Serif" font-size="10.00">llvm::SmallVectorImpl</text>
<text xml:space="preserve" text-anchor="middle" x="701.38" y="-54.75" font-family="Helvetica,sans-Serif" font-size="10.00">&lt; TemporalDivergenceTuple &gt;</text>
</a>
</g>
</g>
<!-- Node2&#45;&gt;Node3 -->
<g id="edge10327_Node000002_Node000003" class="edge">
<title>Node2&#45;&gt;Node3</title>
<g id="a_edge10327_Node000002_Node000003"><a xlink:title=" ">
<path fill="none" stroke="#63b8ff" d="M596.58,-64.25C606.97,-64.25 617.43,-64.25 627.5,-64.25"/>
<polygon fill="#63b8ff" stroke="#63b8ff" points="596.85,-60.75 586.85,-64.25 596.85,-67.75 596.85,-60.75"/>
</a>
</g>
</g>
<!-- Node4 -->
<g id="Node000004" class="node">
<title>Node4</title>
<g id="a_Node000004"><a xlink:href="classllvm_1_1SmallVector.html" target="_top" xlink:title=" ">
<polygon fill="white" stroke="#666666" points="970.25,-54.5 817.75,-54.5 817.75,-24 970.25,-24 970.25,-54.5"/>
<text xml:space="preserve" text-anchor="start" x="825.75" y="-41" font-family="Helvetica,sans-Serif" font-size="10.00">llvm::SmallVector&lt;</text>
<text xml:space="preserve" text-anchor="middle" x="894" y="-29.75" font-family="Helvetica,sans-Serif" font-size="10.00"> TemporalDivergenceTuple, 8 &gt;</text>
</a>
</g>
</g>
<!-- Node3&#45;&gt;Node4 -->
<g id="edge10328_Node000003_Node000004" class="edge">
<title>Node3&#45;&gt;Node4</title>
<g id="a_edge10328_Node000003_Node000004"><a xlink:title=" ">
<path fill="none" stroke="#63b8ff" d="M786.35,-53.24C796.65,-51.89 807.14,-50.51 817.31,-49.18"/>
<polygon fill="#63b8ff" stroke="#63b8ff" points="786.22,-49.72 776.76,-54.49 787.13,-56.66 786.22,-49.72"/>
</a>
</g>
</g>
<!-- Node5 -->
<g id="Node000005" class="node">
<title>Node5</title>
<g id="a_Node000005"><a xlink:href="structllvm_1_1SmallVectorStorage.html" target="_top" xlink:title=" ">
<polygon fill="white" stroke="#666666" points="781.75,-30.5 621,-30.5 621,0 781.75,0 781.75,-30.5"/>
<text xml:space="preserve" text-anchor="start" x="629" y="-17" font-family="Helvetica,sans-Serif" font-size="10.00">llvm::SmallVectorStorage</text>
<text xml:space="preserve" text-anchor="middle" x="701.38" y="-5.75" font-family="Helvetica,sans-Serif" font-size="10.00">&lt; TemporalDivergenceTuple, N &gt;</text>
</a>
</g>
</g>
<!-- Node5&#45;&gt;Node4 -->
<g id="edge10329_Node000005_Node000004" class="edge">
<title>Node5&#45;&gt;Node4</title>
<g id="a_edge10329_Node000005_Node000004"><a xlink:title=" ">
<path fill="none" stroke="#8b1a1a" d="M793.46,-26.72C801.53,-27.73 809.63,-28.75 817.54,-29.75"/>
<polygon fill="#8b1a1a" stroke="#8b1a1a" points="793.97,-23.25 783.61,-25.48 793.1,-30.2 793.97,-23.25"/>
</a>
</g>
</g>
</g>
</svg>
