<?xml version="1.0" encoding="UTF-8" standalone="no"?>
<!DOCTYPE svg PUBLIC "-//W3C//DTD SVG 1.1//EN"
 "http://www.w3.org/Graphics/SVG/1.1/DTD/svg11.dtd">
<!-- Generated by graphviz version 14.1.3 (20260303.0454)
 -->
<!-- Title: Graphical Class Hierarchy Pages: 1 -->
<svg width="844pt" height="115pt"
 viewBox="0.00 0.00 844.00 115.00" xmlns="http://www.w3.org/2000/svg" xmlns:xlink="http://www.w3.org/1999/xlink">
<g id="graph0" class="graph" transform="scale(1 1) rotate(0) translate(4 111.38)">
<title>Graphical Class Hierarchy</title>
<!-- Node0 -->
<g id="Node000000" class="node">
<title>Node0</title>
<g id="a_Node000000"><a xlink:href="classllvm_1_1SmallVectorBase.html" target="_top" xlink:title=" ">
<polygon fill="white" stroke="#666666" points="142,-107.38 0,-107.38 0,-54.38 142,-54.38 142,-107.38"/>
<text xml:space="preserve" text-anchor="start" x="8" y="-93.88" font-family="Helvetica,sans-Serif" font-size="10.00">llvm::SmallVectorBase</text>
<text xml:space="preserve" text-anchor="start" x="8" y="-82.62" font-family="Helvetica,sans-Serif" font-size="10.00">&lt; SmallVectorSizeType</text>
<text xml:space="preserve" text-anchor="start" x="8" y="-71.38" font-family="Helvetica,sans-Serif" font-size="10.00">&lt; std::pair&lt; uint64_t,</text>
<text xml:space="preserve" text-anchor="middle" x="71" y="-60.12" font-family="Helvetica,sans-Serif" font-size="10.00"> llvm::memprof::Frame &gt; &gt; &gt;</text>
</a>
</g>
</g>
<!-- Node1 -->
<g id="Node000001" class="node">
<title>Node1</title>
<g id="a_Node000001"><a xlink:href="classllvm_1_1SmallVectorTemplateCommon.html" target="_top" xlink:title=" ">
<polygon fill="white" stroke="#666666" points="322.25,-101.75 178,-101.75 178,-60 322.25,-60 322.25,-101.75"/>
<text xml:space="preserve" text-anchor="start" x="186" y="-88.25" font-family="Helvetica,sans-Serif" font-size="10.00">llvm::SmallVectorTemplate</text>
<text xml:space="preserve" text-anchor="start" x="186" y="-77" font-family="Helvetica,sans-Serif" font-size="10.00">Common&lt; std::pair&lt; uint64</text>
<text xml:space="preserve" text-anchor="middle" x="250.12" y="-65.75" font-family="Helvetica,sans-Serif" font-size="10.00">_t, llvm::memprof::Frame &gt; &gt;</text>
</a>
</g>
</g>
<!-- Node0&#45;&gt;Node1 -->
<g id="edge10036_Node000000_Node000001" class="edge">
<title>Node0&#45;&gt;Node1</title>
<g id="a_edge10036_Node000000_Node000001"><a xlink:title=" ">
<path fill="none" stroke="#63b8ff" d="M153.5,-80.88C161.51,-80.88 169.6,-80.88 177.5,-80.88"/>
<polygon fill="#63b8ff" stroke="#63b8ff" points="153.77,-77.38 143.77,-80.88 153.77,-84.38 153.77,-77.38"/>
</a>
</g>
</g>
<!-- Node2 -->
<g id="Node000002" class="node">
<title>Node2</title>
<g id="a_Node000002"><a xlink:href="classllvm_1_1SmallVectorTemplateBase.html" target="_top" xlink:title=" ">
<polygon fill="white" stroke="#666666" points="502.5,-101.75 358.25,-101.75 358.25,-60 502.5,-60 502.5,-101.75"/>
<text xml:space="preserve" text-anchor="start" x="366.25" y="-88.25" font-family="Helvetica,sans-Serif" font-size="10.00">llvm::SmallVectorTemplate</text>
<text xml:space="preserve" text-anchor="start" x="366.25" y="-77" font-family="Helvetica,sans-Serif" font-size="10.00">Base&lt; std::pair&lt; uint64</text>
<text xml:space="preserve" text-anchor="middle" x="430.38" y="-65.75" font-family="Helvetica,sans-Serif" font-size="10.00">_t, llvm::memprof::Frame &gt; &gt;</text>
</a>
</g>
</g>
<!-- Node1&#45;&gt;Node2 -->
<g id="edge10037_Node000001_Node000002" class="edge">
<title>Node1&#45;&gt;Node2</title>
<g id="a_edge10037_Node000001_Node000002"><a xlink:title=" ">
<path fill="none" stroke="#63b8ff" d="M333.87,-80.88C341.89,-80.88 349.98,-80.88 357.88,-80.88"/>
<polygon fill="#63b8ff" stroke="#63b8ff" points="334.11,-77.38 324.11,-80.88 334.11,-84.38 334.11,-77.38"/>
</a>
</g>
</g>
<!-- Node3 -->
<g id="Node000003" class="node">
<title>Node3</title>
<g id="a_Node000003"><a xlink:href="classllvm_1_1SmallVectorImpl.html" target="_top" xlink:title=" ">
<polygon fill="white" stroke="#666666" points="678.25,-101.75 545.25,-101.75 545.25,-60 678.25,-60 678.25,-101.75"/>
<text xml:space="preserve" text-anchor="start" x="553.25" y="-88.25" font-family="Helvetica,sans-Serif" font-size="10.00">llvm::SmallVectorImpl</text>
<text xml:space="preserve" text-anchor="start" x="553.25" y="-77" font-family="Helvetica,sans-Serif" font-size="10.00">&lt; std::pair&lt; uint64_t,</text>
<text xml:space="preserve" text-anchor="middle" x="611.75" y="-65.75" font-family="Helvetica,sans-Serif" font-size="10.00"> llvm::memprof::Frame &gt; &gt;</text>
</a>
</g>
</g>
<!-- Node2&#45;&gt;Node3 -->
<g id="edge10038_Node000002_Node000003" class="edge">
<title>Node2&#45;&gt;Node3</title>
<g id="a_edge10038_Node000002_Node000003"><a xlink:title=" ">
<path fill="none" stroke="#63b8ff" d="M514.27,-80.88C524.52,-80.88 534.88,-80.88 544.83,-80.88"/>
<polygon fill="#63b8ff" stroke="#63b8ff" points="514.3,-77.38 504.3,-80.88 514.3,-84.38 514.3,-77.38"/>
</a>
</g>
</g>
<!-- Node4 -->
<g id="Node000004" class="node">
<title>Node4</title>
<g id="a_Node000004"><a xlink:href="classllvm_1_1SmallVector.html" target="_top" xlink:title=" ">
<polygon fill="white" stroke="#666666" points="836,-77.38 721,-77.38 721,-24.38 836,-24.38 836,-77.38"/>
<text xml:space="preserve" text-anchor="start" x="729" y="-63.88" font-family="Helvetica,sans-Serif" font-size="10.00">llvm::SmallVector&lt;</text>
<text xml:space="preserve" text-anchor="start" x="729" y="-52.62" font-family="Helvetica,sans-Serif" font-size="10.00"> std::pair&lt; uint64_t,</text>
<text xml:space="preserve" text-anchor="start" x="729" y="-41.38" font-family="Helvetica,sans-Serif" font-size="10.00"> llvm::memprof::Frame</text>
<text xml:space="preserve" text-anchor="middle" x="778.5" y="-30.12" font-family="Helvetica,sans-Serif" font-size="10.00"> &gt;, 0 &gt;</text>
</a>
</g>
</g>
<!-- Node3&#45;&gt;Node4 -->
<g id="edge10039_Node000003_Node000004" class="edge">
<title>Node3&#45;&gt;Node4</title>
<g id="a_edge10039_Node000003_Node000004"><a xlink:title=" ">
<path fill="none" stroke="#63b8ff" d="M689.6,-66.88C700.06,-64.98 710.63,-63.05 720.65,-61.23"/>
<polygon fill="#63b8ff" stroke="#63b8ff" points="689.04,-63.43 679.83,-68.66 690.29,-70.31 689.04,-63.43"/>
</a>
</g>
</g>
<!-- Node5 -->
<g id="Node000005" class="node">
<title>Node5</title>
<g id="a_Node000005"><a xlink:href="structllvm_1_1SmallVectorStorage.html" target="_top" xlink:title=" ">
<polygon fill="white" stroke="#666666" points="685,-41.75 538.5,-41.75 538.5,0 685,0 685,-41.75"/>
<text xml:space="preserve" text-anchor="start" x="546.5" y="-28.25" font-family="Helvetica,sans-Serif" font-size="10.00">llvm::SmallVectorStorage</text>
<text xml:space="preserve" text-anchor="start" x="546.5" y="-17" font-family="Helvetica,sans-Serif" font-size="10.00">&lt; std::pair&lt; uint64_t,</text>
<text xml:space="preserve" text-anchor="middle" x="611.75" y="-5.75" font-family="Helvetica,sans-Serif" font-size="10.00"> llvm::memprof::Frame &gt;, N &gt;</text>
</a>
</g>
</g>
<!-- Node5&#45;&gt;Node4 -->
<g id="edge10040_Node000005_Node000004" class="edge">
<title>Node5&#45;&gt;Node4</title>
<g id="a_edge10040_Node000005_Node000004"><a xlink:title=" ">
<path fill="none" stroke="#8b1a1a" d="M696.69,-36.16C704.92,-37.66 713.13,-39.15 720.98,-40.58"/>
<polygon fill="#8b1a1a" stroke="#8b1a1a" points="697.45,-32.74 686.98,-34.39 696.19,-39.63 697.45,-32.74"/>
</a>
</g>
</g>
</g>
</svg>
