<?xml version="1.0" encoding="UTF-8" standalone="no"?>
<!DOCTYPE svg PUBLIC "-//W3C//DTD SVG 1.1//EN"
 "http://www.w3.org/Graphics/SVG/1.1/DTD/svg11.dtd">
<!-- Generated by graphviz version 14.1.3 (20260303.0454)
 -->
<!-- Title: Graphical Class Hierarchy Pages: 1 -->
<svg width="566pt" height="93pt"
 viewBox="0.00 0.00 566.00 93.00" xmlns="http://www.w3.org/2000/svg" xmlns:xlink="http://www.w3.org/1999/xlink">
<g id="graph0" class="graph" transform="scale(1 1) rotate(0) translate(4 89.12)">
<title>Graphical Class Hierarchy</title>
<!-- Node0 -->
<g id="Node000000" class="node">
<title>Node0</title>
<g id="a_Node000000"><a xlink:href="structllvm_1_1PassInfoMixin.html" target="_top" xlink:title=" ">
<polygon fill="white" stroke="#666666" points="147.25,-85.12 0,-85.12 0,-43.38 147.25,-43.38 147.25,-85.12"/>
<text xml:space="preserve" text-anchor="start" x="8" y="-71.62" font-family="Helvetica,sans-Serif" font-size="10.00">llvm::PassInfoMixin</text>
<text xml:space="preserve" text-anchor="start" x="8" y="-60.38" font-family="Helvetica,sans-Serif" font-size="10.00">&lt; ShouldRunExtraSimpleLoop</text>
<text xml:space="preserve" text-anchor="middle" x="73.62" y="-49.12" font-family="Helvetica,sans-Serif" font-size="10.00">Unswitch &gt;</text>
</a>
</g>
</g>
<!-- Node1 -->
<g id="Node000001" class="node">
<title>Node1</title>
<g id="a_Node000001"><a xlink:href="structllvm_1_1AnalysisInfoMixin.html" target="_top" xlink:title=" ">
<polygon fill="white" stroke="#666666" points="380.75,-79.5 183.25,-79.5 183.25,-49 380.75,-49 380.75,-79.5"/>
<text xml:space="preserve" text-anchor="start" x="191.25" y="-66" font-family="Helvetica,sans-Serif" font-size="10.00">llvm::AnalysisInfoMixin</text>
<text xml:space="preserve" text-anchor="middle" x="282" y="-54.75" font-family="Helvetica,sans-Serif" font-size="10.00">&lt; ShouldRunExtraSimpleLoopUnswitch &gt;</text>
</a>
</g>
</g>
<!-- Node0&#45;&gt;Node1 -->
<g id="edge5778_Node000000_Node000001" class="edge">
<title>Node0&#45;&gt;Node1</title>
<g id="a_edge5778_Node000000_Node000001"><a xlink:title=" ">
<path fill="none" stroke="#63b8ff" d="M159.13,-64.25C167.04,-64.25 175.09,-64.25 183.11,-64.25"/>
<polygon fill="#63b8ff" stroke="#63b8ff" points="159.19,-60.75 149.19,-64.25 159.19,-67.75 159.19,-60.75"/>
</a>
</g>
</g>
<!-- Node2 -->
<g id="Node000002" class="node">
<title>Node2</title>
<g id="a_Node000002"><a xlink:href="structllvm_1_1ShouldRunExtraSimpleLoopUnswitch.html" target="_top" xlink:title="A marker analysis to determine if SimpleLoopUnswitch should run again on a given loop.">
<polygon fill="white" stroke="#666666" points="558,-54.5 416.75,-54.5 416.75,-24 558,-24 558,-54.5"/>
<text xml:space="preserve" text-anchor="start" x="424.75" y="-41" font-family="Helvetica,sans-Serif" font-size="10.00">llvm::ShouldRunExtraSimple</text>
<text xml:space="preserve" text-anchor="middle" x="487.38" y="-29.75" font-family="Helvetica,sans-Serif" font-size="10.00">LoopUnswitch</text>
</a>
</g>
</g>
<!-- Node1&#45;&gt;Node2 -->
<g id="edge5779_Node000001_Node000002" class="edge">
<title>Node1&#45;&gt;Node2</title>
<g id="a_edge5779_Node000001_Node000002"><a xlink:title=" ">
<path fill="none" stroke="#63b8ff" d="M392.53,-50.79C400.59,-49.79 408.59,-48.81 416.31,-47.86"/>
<polygon fill="#63b8ff" stroke="#63b8ff" points="392.11,-47.31 382.62,-52 392.97,-54.26 392.11,-47.31"/>
</a>
</g>
</g>
<!-- Node3 -->
<g id="Node000003" class="node">
<title>Node3</title>
<g id="a_Node000003"><a xlink:href="structllvm_1_1ShouldRunExtraPasses.html" target="_top" xlink:title=" ">
<polygon fill="white" stroke="#666666" points="380.75,-30.5 183.25,-30.5 183.25,0 380.75,0 380.75,-30.5"/>
<text xml:space="preserve" text-anchor="start" x="191.25" y="-17" font-family="Helvetica,sans-Serif" font-size="10.00">llvm::ShouldRunExtraPasses</text>
<text xml:space="preserve" text-anchor="middle" x="282" y="-5.75" font-family="Helvetica,sans-Serif" font-size="10.00">&lt; ShouldRunExtraSimpleLoopUnswitch &gt;</text>
</a>
</g>
</g>
<!-- Node3&#45;&gt;Node2 -->
<g id="edge5780_Node000003_Node000002" class="edge">
<title>Node3&#45;&gt;Node2</title>
<g id="a_edge5780_Node000003_Node000002"><a xlink:title=" ">
<path fill="none" stroke="#63b8ff" d="M392.53,-28.18C400.59,-29.13 408.59,-30.07 416.31,-30.98"/>
<polygon fill="#63b8ff" stroke="#63b8ff" points="392.96,-24.7 382.62,-27.01 392.14,-31.65 392.96,-24.7"/>
</a>
</g>
</g>
</g>
</svg>
