<?xml version="1.0" encoding="UTF-8" standalone="no"?>
<!DOCTYPE svg PUBLIC "-//W3C//DTD SVG 1.1//EN"
 "http://www.w3.org/Graphics/SVG/1.1/DTD/svg11.dtd">
<!-- Generated by graphviz version 14.1.3 (20260303.0454)
 -->
<!-- Title: Graphical Class Hierarchy Pages: 1 -->
<svg width="948pt" height="93pt"
 viewBox="0.00 0.00 948.00 93.00" xmlns="http://www.w3.org/2000/svg" xmlns:xlink="http://www.w3.org/1999/xlink">
<g id="graph0" class="graph" transform="scale(1 1) rotate(0) translate(4 89.12)">
<title>Graphical Class Hierarchy</title>
<!-- Node0 -->
<g id="Node000000" class="node">
<title>Node0</title>
<g id="a_Node000000"><a xlink:href="classllvm_1_1SmallVectorBase.html" target="_top" xlink:title=" ">
<polygon fill="white" stroke="#666666" points="155.5,-85.12 0,-85.12 0,-43.38 155.5,-43.38 155.5,-85.12"/>
<text xml:space="preserve" text-anchor="start" x="8" y="-71.62" font-family="Helvetica,sans-Serif" font-size="10.00">llvm::SmallVectorBase</text>
<text xml:space="preserve" text-anchor="start" x="8" y="-60.38" font-family="Helvetica,sans-Serif" font-size="10.00">&lt; SmallVectorSizeType</text>
<text xml:space="preserve" text-anchor="middle" x="77.75" y="-49.12" font-family="Helvetica,sans-Serif" font-size="10.00">&lt; llvm::cl::OptionCategory * &gt; &gt;</text>
</a>
</g>
</g>
<!-- Node1 -->
<g id="Node000001" class="node">
<title>Node1</title>
<g id="a_Node000001"><a xlink:href="classllvm_1_1SmallVectorTemplateCommon.html" target="_top" xlink:title=" ">
<polygon fill="white" stroke="#666666" points="377.75,-79.5 191.5,-79.5 191.5,-49 377.75,-49 377.75,-79.5"/>
<text xml:space="preserve" text-anchor="start" x="199.5" y="-66" font-family="Helvetica,sans-Serif" font-size="10.00">llvm::SmallVectorTemplate</text>
<text xml:space="preserve" text-anchor="middle" x="284.62" y="-54.75" font-family="Helvetica,sans-Serif" font-size="10.00">Common&lt; llvm::cl::OptionCategory * &gt;</text>
</a>
</g>
</g>
<!-- Node0&#45;&gt;Node1 -->
<g id="edge8327_Node000000_Node000001" class="edge">
<title>Node0&#45;&gt;Node1</title>
<g id="a_edge8327_Node000000_Node000001"><a xlink:title=" ">
<path fill="none" stroke="#63b8ff" d="M167.31,-64.25C175.16,-64.25 183.12,-64.25 191.01,-64.25"/>
<polygon fill="#63b8ff" stroke="#63b8ff" points="167.43,-60.75 157.43,-64.25 167.43,-67.75 167.43,-60.75"/>
</a>
</g>
</g>
<!-- Node2 -->
<g id="Node000002" class="node">
<title>Node2</title>
<g id="a_Node000002"><a xlink:href="classllvm_1_1SmallVectorTemplateBase.html" target="_top" xlink:title=" ">
<polygon fill="white" stroke="#666666" points="582.75,-79.5 413.75,-79.5 413.75,-49 582.75,-49 582.75,-79.5"/>
<text xml:space="preserve" text-anchor="start" x="421.75" y="-66" font-family="Helvetica,sans-Serif" font-size="10.00">llvm::SmallVectorTemplate</text>
<text xml:space="preserve" text-anchor="middle" x="498.25" y="-54.75" font-family="Helvetica,sans-Serif" font-size="10.00">Base&lt; llvm::cl::OptionCategory * &gt;</text>
</a>
</g>
</g>
<!-- Node1&#45;&gt;Node2 -->
<g id="edge8328_Node000001_Node000002" class="edge">
<title>Node1&#45;&gt;Node2</title>
<g id="a_edge8328_Node000001_Node000002"><a xlink:title=" ">
<path fill="none" stroke="#63b8ff" d="M389.41,-64.25C397.4,-64.25 405.41,-64.25 413.25,-64.25"/>
<polygon fill="#63b8ff" stroke="#63b8ff" points="389.65,-60.75 379.65,-64.25 389.65,-67.75 389.65,-60.75"/>
</a>
</g>
</g>
<!-- Node3 -->
<g id="Node000003" class="node">
<title>Node3</title>
<g id="a_Node000003"><a xlink:href="classllvm_1_1SmallVectorImpl.html" target="_top" xlink:title=" ">
<polygon fill="white" stroke="#666666" points="772,-79.5 625.5,-79.5 625.5,-49 772,-49 772,-79.5"/>
<text xml:space="preserve" text-anchor="start" x="633.5" y="-66" font-family="Helvetica,sans-Serif" font-size="10.00">llvm::SmallVectorImpl</text>
<text xml:space="preserve" text-anchor="middle" x="698.75" y="-54.75" font-family="Helvetica,sans-Serif" font-size="10.00">&lt; llvm::cl::OptionCategory * &gt;</text>
</a>
</g>
</g>
<!-- Node2&#45;&gt;Node3 -->
<g id="edge8329_Node000002_Node000003" class="edge">
<title>Node2&#45;&gt;Node3</title>
<g id="a_edge8329_Node000002_Node000003"><a xlink:title=" ">
<path fill="none" stroke="#63b8ff" d="M594.34,-64.25C604.7,-64.25 615.12,-64.25 625.15,-64.25"/>
<polygon fill="#63b8ff" stroke="#63b8ff" points="594.66,-60.75 584.66,-64.25 594.66,-67.75 594.66,-60.75"/>
</a>
</g>
</g>
<!-- Node4 -->
<g id="Node000004" class="node">
<title>Node4</title>
<g id="a_Node000004"><a xlink:href="classllvm_1_1SmallVector.html" target="_top" xlink:title=" ">
<polygon fill="white" stroke="#666666" points="939.5,-60.12 814.75,-60.12 814.75,-18.38 939.5,-18.38 939.5,-60.12"/>
<text xml:space="preserve" text-anchor="start" x="822.75" y="-46.62" font-family="Helvetica,sans-Serif" font-size="10.00">llvm::SmallVector&lt;</text>
<text xml:space="preserve" text-anchor="start" x="822.75" y="-35.38" font-family="Helvetica,sans-Serif" font-size="10.00"> llvm::cl::OptionCategory</text>
<text xml:space="preserve" text-anchor="middle" x="877.12" y="-24.12" font-family="Helvetica,sans-Serif" font-size="10.00"> *, 1 &gt;</text>
</a>
</g>
</g>
<!-- Node3&#45;&gt;Node4 -->
<g id="edge8330_Node000003_Node000004" class="edge">
<title>Node3&#45;&gt;Node4</title>
<g id="a_edge8330_Node000003_Node000004"><a xlink:title=" ">
<path fill="none" stroke="#63b8ff" d="M783.47,-52.38C793.86,-50.91 804.34,-49.43 814.32,-48.01"/>
<polygon fill="#63b8ff" stroke="#63b8ff" points="783.16,-48.89 773.75,-53.76 784.14,-55.82 783.16,-48.89"/>
</a>
</g>
</g>
<!-- Node5 -->
<g id="Node000005" class="node">
<title>Node5</title>
<g id="a_Node000005"><a xlink:href="structllvm_1_1SmallVectorStorage.html" target="_top" xlink:title=" ">
<polygon fill="white" stroke="#666666" points="778.75,-30.5 618.75,-30.5 618.75,0 778.75,0 778.75,-30.5"/>
<text xml:space="preserve" text-anchor="start" x="626.75" y="-17" font-family="Helvetica,sans-Serif" font-size="10.00">llvm::SmallVectorStorage</text>
<text xml:space="preserve" text-anchor="middle" x="698.75" y="-5.75" font-family="Helvetica,sans-Serif" font-size="10.00">&lt; llvm::cl::OptionCategory *, N &gt;</text>
</a>
</g>
</g>
<!-- Node5&#45;&gt;Node4 -->
<g id="edge8331_Node000005_Node000004" class="edge">
<title>Node5&#45;&gt;Node4</title>
<g id="a_edge8331_Node000005_Node000004"><a xlink:title=" ">
<path fill="none" stroke="#8b1a1a" d="M790.54,-27.6C798.59,-28.7 806.61,-29.79 814.33,-30.84"/>
<polygon fill="#8b1a1a" stroke="#8b1a1a" points="791.05,-24.14 780.67,-26.26 790.1,-31.08 791.05,-24.14"/>
</a>
</g>
</g>
</g>
</svg>
