<?xml version="1.0" encoding="UTF-8" standalone="no"?>
<!DOCTYPE svg PUBLIC "-//W3C//DTD SVG 1.1//EN"
 "http://www.w3.org/Graphics/SVG/1.1/DTD/svg11.dtd">
<!-- Generated by graphviz version 14.1.3 (20260303.0454)
 -->
<!-- Title: Graphical Class Hierarchy Pages: 1 -->
<svg width="783pt" height="115pt"
 viewBox="0.00 0.00 783.00 115.00" xmlns="http://www.w3.org/2000/svg" xmlns:xlink="http://www.w3.org/1999/xlink">
<g id="graph0" class="graph" transform="scale(1 1) rotate(0) translate(4 111.38)">
<title>Graphical Class Hierarchy</title>
<!-- Node0 -->
<g id="Node000000" class="node">
<title>Node0</title>
<g id="a_Node000000"><a xlink:href="classllvm_1_1SmallVectorBase.html" target="_top" xlink:title=" ">
<polygon fill="white" stroke="#666666" points="118.75,-107.38 0,-107.38 0,-54.38 118.75,-54.38 118.75,-107.38"/>
<text xml:space="preserve" text-anchor="start" x="8" y="-93.88" font-family="Helvetica,sans-Serif" font-size="10.00">llvm::SmallVectorBase</text>
<text xml:space="preserve" text-anchor="start" x="8" y="-82.62" font-family="Helvetica,sans-Serif" font-size="10.00">&lt; SmallVectorSizeType</text>
<text xml:space="preserve" text-anchor="start" x="8" y="-71.38" font-family="Helvetica,sans-Serif" font-size="10.00">&lt; std::unique_ptr&lt; llvm</text>
<text xml:space="preserve" text-anchor="middle" x="59.38" y="-60.12" font-family="Helvetica,sans-Serif" font-size="10.00">::GlobalVariable &gt; &gt; &gt;</text>
</a>
</g>
</g>
<!-- Node1 -->
<g id="Node000001" class="node">
<title>Node1</title>
<g id="a_Node000001"><a xlink:href="classllvm_1_1SmallVectorTemplateCommon.html" target="_top" xlink:title=" ">
<polygon fill="white" stroke="#666666" points="287.75,-101.75 154.75,-101.75 154.75,-60 287.75,-60 287.75,-101.75"/>
<text xml:space="preserve" text-anchor="start" x="162.75" y="-88.25" font-family="Helvetica,sans-Serif" font-size="10.00">llvm::SmallVectorTemplate</text>
<text xml:space="preserve" text-anchor="start" x="162.75" y="-77" font-family="Helvetica,sans-Serif" font-size="10.00">Common&lt; std::unique_ptr</text>
<text xml:space="preserve" text-anchor="middle" x="221.25" y="-65.75" font-family="Helvetica,sans-Serif" font-size="10.00">&lt; llvm::GlobalVariable &gt; &gt;</text>
</a>
</g>
</g>
<!-- Node0&#45;&gt;Node1 -->
<g id="edge10208_Node000000_Node000001" class="edge">
<title>Node0&#45;&gt;Node1</title>
<g id="a_edge10208_Node000000_Node000001"><a xlink:title=" ">
<path fill="none" stroke="#63b8ff" d="M130.48,-80.88C138.41,-80.88 146.47,-80.88 154.34,-80.88"/>
<polygon fill="#63b8ff" stroke="#63b8ff" points="130.51,-77.38 120.51,-80.88 130.51,-84.38 130.51,-77.38"/>
</a>
</g>
</g>
<!-- Node2 -->
<g id="Node000002" class="node">
<title>Node2</title>
<g id="a_Node000002"><a xlink:href="classllvm_1_1SmallVectorTemplateBase.html" target="_top" xlink:title=" ">
<polygon fill="white" stroke="#666666" points="456.75,-101.75 323.75,-101.75 323.75,-60 456.75,-60 456.75,-101.75"/>
<text xml:space="preserve" text-anchor="start" x="331.75" y="-88.25" font-family="Helvetica,sans-Serif" font-size="10.00">llvm::SmallVectorTemplate</text>
<text xml:space="preserve" text-anchor="start" x="331.75" y="-77" font-family="Helvetica,sans-Serif" font-size="10.00">Base&lt; std::unique_ptr&lt;</text>
<text xml:space="preserve" text-anchor="middle" x="390.25" y="-65.75" font-family="Helvetica,sans-Serif" font-size="10.00"> llvm::GlobalVariable &gt; &gt;</text>
</a>
</g>
</g>
<!-- Node1&#45;&gt;Node2 -->
<g id="edge10209_Node000001_Node000002" class="edge">
<title>Node1&#45;&gt;Node2</title>
<g id="a_edge10209_Node000001_Node000002"><a xlink:title=" ">
<path fill="none" stroke="#63b8ff" d="M299.13,-80.88C307.23,-80.88 315.41,-80.88 323.37,-80.88"/>
<polygon fill="#63b8ff" stroke="#63b8ff" points="299.29,-77.38 289.29,-80.88 299.29,-84.38 299.29,-77.38"/>
</a>
</g>
</g>
<!-- Node3 -->
<g id="Node000003" class="node">
<title>Node3</title>
<g id="a_Node000003"><a xlink:href="classllvm_1_1SmallVectorImpl.html" target="_top" xlink:title=" ">
<polygon fill="white" stroke="#666666" points="614.5,-101.75 498,-101.75 498,-60 614.5,-60 614.5,-101.75"/>
<text xml:space="preserve" text-anchor="start" x="506" y="-88.25" font-family="Helvetica,sans-Serif" font-size="10.00">llvm::SmallVectorImpl</text>
<text xml:space="preserve" text-anchor="start" x="506" y="-77" font-family="Helvetica,sans-Serif" font-size="10.00">&lt; std::unique_ptr&lt; llvm</text>
<text xml:space="preserve" text-anchor="middle" x="556.25" y="-65.75" font-family="Helvetica,sans-Serif" font-size="10.00">::GlobalVariable &gt; &gt;</text>
</a>
</g>
</g>
<!-- Node2&#45;&gt;Node3 -->
<g id="edge10210_Node000002_Node000003" class="edge">
<title>Node2&#45;&gt;Node3</title>
<g id="a_edge10210_Node000002_Node000003"><a xlink:title=" ">
<path fill="none" stroke="#63b8ff" d="M468.47,-80.88C478.3,-80.88 488.23,-80.88 497.67,-80.88"/>
<polygon fill="#63b8ff" stroke="#63b8ff" points="468.52,-77.38 458.52,-80.88 468.52,-84.38 468.52,-77.38"/>
</a>
</g>
</g>
<!-- Node4 -->
<g id="Node000004" class="node">
<title>Node4</title>
<g id="a_Node000004"><a xlink:href="classllvm_1_1SmallVector.html" target="_top" xlink:title=" ">
<polygon fill="white" stroke="#666666" points="774.5,-71.75 655.75,-71.75 655.75,-30 774.5,-30 774.5,-71.75"/>
<text xml:space="preserve" text-anchor="start" x="663.75" y="-58.25" font-family="Helvetica,sans-Serif" font-size="10.00">llvm::SmallVector&lt;</text>
<text xml:space="preserve" text-anchor="start" x="663.75" y="-47" font-family="Helvetica,sans-Serif" font-size="10.00"> std::unique_ptr&lt; llvm</text>
<text xml:space="preserve" text-anchor="middle" x="715.12" y="-35.75" font-family="Helvetica,sans-Serif" font-size="10.00">::GlobalVariable &gt;, 32 &gt;</text>
</a>
</g>
</g>
<!-- Node3&#45;&gt;Node4 -->
<g id="edge10211_Node000003_Node000004" class="edge">
<title>Node3&#45;&gt;Node4</title>
<g id="a_edge10211_Node000003_Node000004"><a xlink:title=" ">
<path fill="none" stroke="#63b8ff" d="M626.08,-67.71C635.82,-65.85 645.76,-63.95 655.29,-62.13"/>
<polygon fill="#63b8ff" stroke="#63b8ff" points="625.42,-64.27 616.26,-69.59 626.74,-71.15 625.42,-64.27"/>
</a>
</g>
</g>
<!-- Node5 -->
<g id="Node000005" class="node">
<title>Node5</title>
<g id="a_Node000005"><a xlink:href="structllvm_1_1SmallVectorStorage.html" target="_top" xlink:title=" ">
<polygon fill="white" stroke="#666666" points="619.75,-41.75 492.75,-41.75 492.75,0 619.75,0 619.75,-41.75"/>
<text xml:space="preserve" text-anchor="start" x="500.75" y="-28.25" font-family="Helvetica,sans-Serif" font-size="10.00">llvm::SmallVectorStorage</text>
<text xml:space="preserve" text-anchor="start" x="500.75" y="-17" font-family="Helvetica,sans-Serif" font-size="10.00">&lt; std::unique_ptr&lt; llvm</text>
<text xml:space="preserve" text-anchor="middle" x="556.25" y="-5.75" font-family="Helvetica,sans-Serif" font-size="10.00">::GlobalVariable &gt;, N &gt;</text>
</a>
</g>
</g>
<!-- Node5&#45;&gt;Node4 -->
<g id="edge10212_Node000005_Node000004" class="edge">
<title>Node5&#45;&gt;Node4</title>
<g id="a_edge10212_Node000005_Node000004"><a xlink:title=" ">
<path fill="none" stroke="#8b1a1a" d="M631.4,-35.06C639.41,-36.59 647.48,-38.13 655.28,-39.62"/>
<polygon fill="#8b1a1a" stroke="#8b1a1a" points="632.12,-31.63 621.64,-33.19 630.8,-38.5 632.12,-31.63"/>
</a>
</g>
</g>
</g>
</svg>
