<?xml version="1.0" encoding="UTF-8" standalone="no"?>
<!DOCTYPE svg PUBLIC "-//W3C//DTD SVG 1.1//EN"
 "http://www.w3.org/Graphics/SVG/1.1/DTD/svg11.dtd">
<!-- Generated by graphviz version 14.1.3 (20260303.0454)
 -->
<!-- Title: Graphical Class Hierarchy Pages: 1 -->
<svg width="553pt" height="480pt"
 viewBox="0.00 0.00 553.00 480.00" xmlns="http://www.w3.org/2000/svg" xmlns:xlink="http://www.w3.org/1999/xlink">
<g id="graph0" class="graph" transform="scale(1 1) rotate(0) translate(4 475.5)">
<title>Graphical Class Hierarchy</title>
<!-- Node0 -->
<g id="Node000000" class="node">
<title>Node0</title>
<g id="a_Node000000"><a xlink:href="classllvm_1_1jitlink_1_1JITLinkerBase.html" target="_top" xlink:title="Base class for a JIT linker.">
<polygon fill="white" stroke="#666666" points="131.5,-244.88 0,-244.88 0,-225.62 131.5,-225.62 131.5,-244.88"/>
<text xml:space="preserve" text-anchor="middle" x="65.75" y="-231.38" font-family="Helvetica,sans-Serif" font-size="10.00">llvm::jitlink::JITLinkerBase</text>
</a>
</g>
</g>
<!-- Node1 -->
<g id="Node000001" class="node">
<title>Node1</title>
<g id="a_Node000001"><a xlink:href="classllvm_1_1jitlink_1_1JITLinker.html" target="_top" xlink:title=" ">
<polygon fill="white" stroke="#666666" points="360.5,-471.5 167.5,-471.5 167.5,-441 360.5,-441 360.5,-471.5"/>
<text xml:space="preserve" text-anchor="start" x="175.5" y="-458" font-family="Helvetica,sans-Serif" font-size="10.00">llvm::jitlink::JITLinker</text>
<text xml:space="preserve" text-anchor="middle" x="264" y="-446.75" font-family="Helvetica,sans-Serif" font-size="10.00">&lt; ELFJITLinker_ppc64&lt; Endianness &gt; &gt;</text>
</a>
</g>
</g>
<!-- Node0&#45;&gt;Node1 -->
<g id="edge4038_Node000000_Node000001" class="edge">
<title>Node0&#45;&gt;Node1</title>
<g id="a_edge4038_Node000000_Node000001"><a xlink:title=" ">
<path fill="none" stroke="#63b8ff" d="M71.5,-256.3C81.73,-296.63 109.74,-384.92 167.5,-431.25 172.05,-434.9 177.07,-438.01 182.36,-440.68"/>
<polygon fill="#63b8ff" stroke="#63b8ff" points="74.93,-255.59 69.19,-246.68 68.13,-257.22 74.93,-255.59"/>
</a>
</g>
</g>
<!-- Node3 -->
<g id="Node000003" class="node">
<title>Node3</title>
<g id="a_Node000003"><a xlink:href="classllvm_1_1jitlink_1_1JITLinker.html" target="_top" xlink:title=" ">
<polygon fill="white" stroke="#666666" points="333.88,-422.5 194.12,-422.5 194.12,-392 333.88,-392 333.88,-422.5"/>
<text xml:space="preserve" text-anchor="start" x="202.12" y="-409" font-family="Helvetica,sans-Serif" font-size="10.00">llvm::jitlink::JITLinker</text>
<text xml:space="preserve" text-anchor="middle" x="264" y="-397.75" font-family="Helvetica,sans-Serif" font-size="10.00">&lt; XCOFFJITLinker_ppc64 &gt;</text>
</a>
</g>
</g>
<!-- Node0&#45;&gt;Node3 -->
<g id="edge4040_Node000000_Node000003" class="edge">
<title>Node0&#45;&gt;Node3</title>
<g id="a_edge4040_Node000000_Node000003"><a xlink:title=" ">
<path fill="none" stroke="#63b8ff" d="M75.04,-255.63C89.14,-287.65 120.85,-349.43 167.5,-382.25 175.49,-387.87 184.66,-392.23 194.08,-395.6"/>
<polygon fill="#63b8ff" stroke="#63b8ff" points="78.37,-254.52 71.24,-246.69 71.93,-257.26 78.37,-254.52"/>
</a>
</g>
</g>
<!-- Node5 -->
<g id="Node000005" class="node">
<title>Node5</title>
<g id="a_Node000005"><a xlink:href="classllvm_1_1jitlink_1_1JITLinker.html" target="_top" xlink:title=" ">
<polygon fill="white" stroke="#666666" points="330.12,-373.5 197.88,-373.5 197.88,-343 330.12,-343 330.12,-373.5"/>
<text xml:space="preserve" text-anchor="start" x="205.88" y="-360" font-family="Helvetica,sans-Serif" font-size="10.00">llvm::jitlink::JITLinker</text>
<text xml:space="preserve" text-anchor="middle" x="264" y="-348.75" font-family="Helvetica,sans-Serif" font-size="10.00">&lt; ELFJITLinker_aarch32 &gt;</text>
</a>
</g>
</g>
<!-- Node0&#45;&gt;Node5 -->
<g id="edge4042_Node000000_Node000005" class="edge">
<title>Node0&#45;&gt;Node5</title>
<g id="a_edge4042_Node000000_Node000005"><a xlink:title=" ">
<path fill="none" stroke="#63b8ff" d="M81.03,-254.15C98.85,-276.39 131.4,-312.88 167.5,-333.25 176.75,-338.47 187.13,-342.63 197.53,-345.94"/>
<polygon fill="#63b8ff" stroke="#63b8ff" points="83.97,-252.23 75.06,-246.5 78.46,-256.54 83.97,-252.23"/>
</a>
</g>
</g>
<!-- Node7 -->
<g id="Node000007" class="node">
<title>Node7</title>
<g id="a_Node000007"><a xlink:href="classllvm_1_1jitlink_1_1JITLinker.html" target="_top" xlink:title=" ">
<polygon fill="white" stroke="#666666" points="323.38,-324.5 204.62,-324.5 204.62,-294 323.38,-294 323.38,-324.5"/>
<text xml:space="preserve" text-anchor="start" x="212.62" y="-311" font-family="Helvetica,sans-Serif" font-size="10.00">llvm::jitlink::JITLinker</text>
<text xml:space="preserve" text-anchor="middle" x="264" y="-299.75" font-family="Helvetica,sans-Serif" font-size="10.00">&lt; ELFJITLinker_riscv &gt;</text>
</a>
</g>
</g>
<!-- Node0&#45;&gt;Node7 -->
<g id="edge4044_Node000000_Node000007" class="edge">
<title>Node0&#45;&gt;Node7</title>
<g id="a_edge4044_Node000000_Node000007"><a xlink:title=" ">
<path fill="none" stroke="#63b8ff" d="M94.39,-250.53C114.28,-261.06 141.99,-274.81 167.5,-284.25 179.23,-288.59 192.04,-292.49 204.36,-295.84"/>
<polygon fill="#63b8ff" stroke="#63b8ff" points="96.28,-247.57 85.81,-245.92 92.97,-253.73 96.28,-247.57"/>
</a>
</g>
</g>
<!-- Node9 -->
<g id="Node000009" class="node">
<title>Node9</title>
<g id="a_Node000009"><a xlink:href="classllvm_1_1jitlink_1_1JITLinker.html" target="_top" xlink:title=" ">
<polygon fill="white" stroke="#666666" points="331.62,-275.5 196.38,-275.5 196.38,-245 331.62,-245 331.62,-275.5"/>
<text xml:space="preserve" text-anchor="start" x="204.38" y="-262" font-family="Helvetica,sans-Serif" font-size="10.00">llvm::jitlink::JITLinker</text>
<text xml:space="preserve" text-anchor="middle" x="264" y="-250.75" font-family="Helvetica,sans-Serif" font-size="10.00">&lt; ELFJITLinker_systemz &gt;</text>
</a>
</g>
</g>
<!-- Node0&#45;&gt;Node9 -->
<g id="edge4046_Node000000_Node000009" class="edge">
<title>Node0&#45;&gt;Node9</title>
<g id="a_edge4046_Node000000_Node000009"><a xlink:title=" ">
<path fill="none" stroke="#63b8ff" d="M143.14,-244.98C160.61,-247.21 179.05,-249.56 196.09,-251.73"/>
<polygon fill="#63b8ff" stroke="#63b8ff" points="143.69,-241.52 133.33,-243.73 142.8,-248.47 143.69,-241.52"/>
</a>
</g>
</g>
<!-- Node11 -->
<g id="Node000011" class="node">
<title>Node11</title>
<g id="a_Node000011"><a xlink:href="classllvm_1_1jitlink_1_1JITLinker.html" target="_top" xlink:title=" ">
<polygon fill="white" stroke="#666666" points="320.75,-226.5 207.25,-226.5 207.25,-196 320.75,-196 320.75,-226.5"/>
<text xml:space="preserve" text-anchor="start" x="215.25" y="-213" font-family="Helvetica,sans-Serif" font-size="10.00">llvm::jitlink::JITLinker</text>
<text xml:space="preserve" text-anchor="middle" x="264" y="-201.75" font-family="Helvetica,sans-Serif" font-size="10.00">&lt; ELFJITLinker_x86 &gt;</text>
</a>
</g>
</g>
<!-- Node0&#45;&gt;Node11 -->
<g id="edge4048_Node000000_Node000011" class="edge">
<title>Node0&#45;&gt;Node11</title>
<g id="a_edge4048_Node000000_Node000011"><a xlink:title=" ">
<path fill="none" stroke="#63b8ff" d="M143.13,-225.91C164.4,-223.31 187.11,-220.53 206.98,-218.1"/>
<polygon fill="#63b8ff" stroke="#63b8ff" points="142.83,-222.42 133.33,-227.11 143.68,-229.37 142.83,-222.42"/>
</a>
</g>
</g>
<!-- Node13 -->
<g id="Node000013" class="node">
<title>Node13</title>
<g id="a_Node000013"><a xlink:href="classllvm_1_1jitlink_1_1JITLinker.html" target="_top" xlink:title=" ">
<polygon fill="white" stroke="#666666" points="328.62,-177.5 199.38,-177.5 199.38,-147 328.62,-147 328.62,-177.5"/>
<text xml:space="preserve" text-anchor="start" x="207.38" y="-164" font-family="Helvetica,sans-Serif" font-size="10.00">llvm::jitlink::JITLinker</text>
<text xml:space="preserve" text-anchor="middle" x="264" y="-152.75" font-family="Helvetica,sans-Serif" font-size="10.00">&lt; ELFJITLinker_x86_64 &gt;</text>
</a>
</g>
</g>
<!-- Node0&#45;&gt;Node13 -->
<g id="edge4050_Node000000_Node000013" class="edge">
<title>Node0&#45;&gt;Node13</title>
<g id="a_edge4050_Node000000_Node000013"><a xlink:title=" ">
<path fill="none" stroke="#63b8ff" d="M95.43,-219.8C115.26,-209.57 142.47,-196.4 167.5,-187.25 177.56,-183.57 188.4,-180.2 199.04,-177.21"/>
<polygon fill="#63b8ff" stroke="#63b8ff" points="93.81,-216.7 86.57,-224.44 97.06,-222.9 93.81,-216.7"/>
</a>
</g>
</g>
<!-- Node15 -->
<g id="Node000015" class="node">
<title>Node15</title>
<g id="a_Node000015"><a xlink:href="classllvm_1_1jitlink_1_1JITLinker.html" target="_top" xlink:title=" ">
<polygon fill="white" stroke="#666666" points="333.12,-128.5 194.88,-128.5 194.88,-98 333.12,-98 333.12,-128.5"/>
<text xml:space="preserve" text-anchor="start" x="202.88" y="-115" font-family="Helvetica,sans-Serif" font-size="10.00">llvm::jitlink::JITLinker</text>
<text xml:space="preserve" text-anchor="middle" x="264" y="-103.75" font-family="Helvetica,sans-Serif" font-size="10.00">&lt; MachOJITLinker_arm64 &gt;</text>
</a>
</g>
</g>
<!-- Node0&#45;&gt;Node15 -->
<g id="edge4052_Node000000_Node000015" class="edge">
<title>Node0&#45;&gt;Node15</title>
<g id="a_edge4052_Node000000_Node000015"><a xlink:title=" ">
<path fill="none" stroke="#63b8ff" d="M81.08,-216.55C98.94,-194.54 131.53,-158.43 167.5,-138.25 175.87,-133.55 185.15,-129.72 194.54,-126.59"/>
<polygon fill="#63b8ff" stroke="#63b8ff" points="78.55,-214.1 75.09,-224.11 84.04,-218.44 78.55,-214.1"/>
</a>
</g>
</g>
<!-- Node17 -->
<g id="Node000017" class="node">
<title>Node17</title>
<g id="a_Node000017"><a xlink:href="classllvm_1_1jitlink_1_1JITLinker.html" target="_top" xlink:title=" ">
<polygon fill="white" stroke="#666666" points="335.38,-79.5 192.62,-79.5 192.62,-49 335.38,-49 335.38,-79.5"/>
<text xml:space="preserve" text-anchor="start" x="200.62" y="-66" font-family="Helvetica,sans-Serif" font-size="10.00">llvm::jitlink::JITLinker</text>
<text xml:space="preserve" text-anchor="middle" x="264" y="-54.75" font-family="Helvetica,sans-Serif" font-size="10.00">&lt; MachOJITLinker_x86_64 &gt;</text>
</a>
</g>
</g>
<!-- Node0&#45;&gt;Node17 -->
<g id="edge4054_Node000000_Node000017" class="edge">
<title>Node0&#45;&gt;Node17</title>
<g id="a_edge4054_Node000000_Node000017"><a xlink:title=" ">
<path fill="none" stroke="#63b8ff" d="M75.08,-215C89.23,-183.21 121.01,-121.84 167.5,-89.25 175.08,-83.94 183.71,-79.75 192.61,-76.46"/>
<polygon fill="#63b8ff" stroke="#63b8ff" points="72,-213.31 71.27,-223.88 78.43,-216.07 72,-213.31"/>
</a>
</g>
</g>
<!-- Node19 -->
<g id="Node000019" class="node">
<title>Node19</title>
<g id="a_Node000019"><a xlink:href="classllvm_1_1jitlink_1_1JITLinker.html" target="_top" xlink:title=" ">
<polygon fill="white" stroke="#666666" points="318.5,-30.5 209.5,-30.5 209.5,0 318.5,0 318.5,-30.5"/>
<text xml:space="preserve" text-anchor="start" x="217.5" y="-17" font-family="Helvetica,sans-Serif" font-size="10.00">llvm::jitlink::JITLinker</text>
<text xml:space="preserve" text-anchor="middle" x="264" y="-5.75" font-family="Helvetica,sans-Serif" font-size="10.00">&lt; LinkerImpl &gt;</text>
</a>
</g>
</g>
<!-- Node0&#45;&gt;Node19 -->
<g id="edge4056_Node000000_Node000019" class="edge">
<title>Node0&#45;&gt;Node19</title>
<g id="a_edge4056_Node000000_Node000019"><a xlink:title=" ">
<path fill="none" stroke="#63b8ff" d="M71.54,-214.31C81.82,-174.17 109.93,-86.33 167.5,-40.25 179.41,-30.72 194.58,-24.79 209.31,-21.12"/>
<polygon fill="#63b8ff" stroke="#63b8ff" points="68.17,-213.33 69.21,-223.87 74.98,-214.98 68.17,-213.33"/>
</a>
</g>
</g>
<!-- Node2 -->
<g id="Node000002" class="node">
<title>Node2</title>
<g id="a_Node000002"><a xlink:href="classllvm_1_1jitlink_1_1ELFJITLinker__ppc64.html" target="_top" xlink:title=" ">
<polygon fill="white" stroke="#666666" points="534,-471.5 407,-471.5 407,-441 534,-441 534,-471.5"/>
<text xml:space="preserve" text-anchor="start" x="415" y="-458" font-family="Helvetica,sans-Serif" font-size="10.00">llvm::jitlink::ELFJITLinker</text>
<text xml:space="preserve" text-anchor="middle" x="470.5" y="-446.75" font-family="Helvetica,sans-Serif" font-size="10.00">_ppc64&lt; Endianness &gt;</text>
</a>
</g>
</g>
<!-- Node1&#45;&gt;Node2 -->
<g id="edge4039_Node000001_Node000002" class="edge">
<title>Node1&#45;&gt;Node2</title>
<g id="a_edge4039_Node000001_Node000002"><a xlink:title=" ">
<path fill="none" stroke="#63b8ff" d="M372.21,-456.25C383.94,-456.25 395.57,-456.25 406.51,-456.25"/>
<polygon fill="#63b8ff" stroke="#63b8ff" points="372.48,-452.75 362.48,-456.25 372.48,-459.75 372.48,-452.75"/>
</a>
</g>
</g>
<!-- Node4 -->
<g id="Node000004" class="node">
<title>Node4</title>
<g id="a_Node000004"><a xlink:href="classllvm_1_1jitlink_1_1XCOFFJITLinker__ppc64.html" target="_top" xlink:title=" ">
<polygon fill="white" stroke="#666666" points="541.88,-422.5 399.12,-422.5 399.12,-392 541.88,-392 541.88,-422.5"/>
<text xml:space="preserve" text-anchor="start" x="407.12" y="-409" font-family="Helvetica,sans-Serif" font-size="10.00">llvm::jitlink::XCOFFJITLinker</text>
<text xml:space="preserve" text-anchor="middle" x="470.5" y="-397.75" font-family="Helvetica,sans-Serif" font-size="10.00">_ppc64</text>
</a>
</g>
</g>
<!-- Node3&#45;&gt;Node4 -->
<g id="edge4041_Node000003_Node000004" class="edge">
<title>Node3&#45;&gt;Node4</title>
<g id="a_edge4041_Node000003_Node000004"><a xlink:title=" ">
<path fill="none" stroke="#63b8ff" d="M345.65,-407.25C363.26,-407.25 381.76,-407.25 398.94,-407.25"/>
<polygon fill="#63b8ff" stroke="#63b8ff" points="345.75,-403.75 335.75,-407.25 345.75,-410.75 345.75,-403.75"/>
</a>
</g>
</g>
<!-- Node6 -->
<g id="Node000006" class="node">
<title>Node6</title>
<g id="a_Node000006"><a xlink:href="classllvm_1_1jitlink_1_1ELFJITLinker__aarch32.html" target="_top" xlink:title=" ">
<polygon fill="white" stroke="#666666" points="534,-373.5 407,-373.5 407,-343 534,-343 534,-373.5"/>
<text xml:space="preserve" text-anchor="start" x="415" y="-360" font-family="Helvetica,sans-Serif" font-size="10.00">llvm::jitlink::ELFJITLinker</text>
<text xml:space="preserve" text-anchor="middle" x="470.5" y="-348.75" font-family="Helvetica,sans-Serif" font-size="10.00">_aarch32</text>
</a>
</g>
</g>
<!-- Node5&#45;&gt;Node6 -->
<g id="edge4043_Node000005_Node000006" class="edge">
<title>Node5&#45;&gt;Node6</title>
<g id="a_edge4043_Node000005_Node000006"><a xlink:title=" ">
<path fill="none" stroke="#63b8ff" d="M341.91,-358.25C363.31,-358.25 386.28,-358.25 406.76,-358.25"/>
<polygon fill="#63b8ff" stroke="#63b8ff" points="342.06,-354.75 332.06,-358.25 342.06,-361.75 342.06,-354.75"/>
</a>
</g>
</g>
<!-- Node8 -->
<g id="Node000008" class="node">
<title>Node8</title>
<g id="a_Node000008"><a xlink:href="classllvm_1_1jitlink_1_1ELFJITLinker__riscv.html" target="_top" xlink:title=" ">
<polygon fill="white" stroke="#666666" points="534,-324.5 407,-324.5 407,-294 534,-294 534,-324.5"/>
<text xml:space="preserve" text-anchor="start" x="415" y="-311" font-family="Helvetica,sans-Serif" font-size="10.00">llvm::jitlink::ELFJITLinker</text>
<text xml:space="preserve" text-anchor="middle" x="470.5" y="-299.75" font-family="Helvetica,sans-Serif" font-size="10.00">_riscv</text>
</a>
</g>
</g>
<!-- Node7&#45;&gt;Node8 -->
<g id="edge4045_Node000007_Node000008" class="edge">
<title>Node7&#45;&gt;Node8</title>
<g id="a_edge4045_Node000007_Node000008"><a xlink:title=" ">
<path fill="none" stroke="#63b8ff" d="M334.81,-309.25C358.09,-309.25 383.87,-309.25 406.6,-309.25"/>
<polygon fill="#63b8ff" stroke="#63b8ff" points="335.12,-305.75 325.12,-309.25 335.12,-312.75 335.12,-305.75"/>
</a>
</g>
</g>
<!-- Node10 -->
<g id="Node000010" class="node">
<title>Node10</title>
<g id="a_Node000010"><a xlink:href="classllvm_1_1jitlink_1_1ELFJITLinker__systemz.html" target="_top" xlink:title=" ">
<polygon fill="white" stroke="#666666" points="534,-275.5 407,-275.5 407,-245 534,-245 534,-275.5"/>
<text xml:space="preserve" text-anchor="start" x="415" y="-262" font-family="Helvetica,sans-Serif" font-size="10.00">llvm::jitlink::ELFJITLinker</text>
<text xml:space="preserve" text-anchor="middle" x="470.5" y="-250.75" font-family="Helvetica,sans-Serif" font-size="10.00">_systemz</text>
</a>
</g>
</g>
<!-- Node9&#45;&gt;Node10 -->
<g id="edge4047_Node000009_Node000010" class="edge">
<title>Node9&#45;&gt;Node10</title>
<g id="a_edge4047_Node000009_Node000010"><a xlink:title=" ">
<path fill="none" stroke="#63b8ff" d="M343.4,-260.25C364.3,-260.25 386.6,-260.25 406.55,-260.25"/>
<polygon fill="#63b8ff" stroke="#63b8ff" points="343.47,-256.75 333.47,-260.25 343.47,-263.75 343.47,-256.75"/>
</a>
</g>
</g>
<!-- Node12 -->
<g id="Node000012" class="node">
<title>Node12</title>
<g id="a_Node000012"><a xlink:href="classllvm_1_1jitlink_1_1ELFJITLinker__x86.html" target="_top" xlink:title=" ">
<polygon fill="white" stroke="#666666" points="544.5,-220.88 396.5,-220.88 396.5,-201.62 544.5,-201.62 544.5,-220.88"/>
<text xml:space="preserve" text-anchor="middle" x="470.5" y="-207.38" font-family="Helvetica,sans-Serif" font-size="10.00">llvm::jitlink::ELFJITLinker_x86</text>
</a>
</g>
</g>
<!-- Node11&#45;&gt;Node12 -->
<g id="edge4049_Node000011_Node000012" class="edge">
<title>Node11&#45;&gt;Node12</title>
<g id="a_edge4049_Node000011_Node000012"><a xlink:title=" ">
<path fill="none" stroke="#63b8ff" d="M332.57,-211.25C352.97,-211.25 375.46,-211.25 396.21,-211.25"/>
<polygon fill="#63b8ff" stroke="#63b8ff" points="332.66,-207.75 322.66,-211.25 332.66,-214.75 332.66,-207.75"/>
</a>
</g>
</g>
<!-- Node14 -->
<g id="Node000014" class="node">
<title>Node14</title>
<g id="a_Node000014"><a xlink:href="classllvm_1_1jitlink_1_1ELFJITLinker__x86__64.html" target="_top" xlink:title=" ">
<polygon fill="white" stroke="#666666" points="534,-177.5 407,-177.5 407,-147 534,-147 534,-177.5"/>
<text xml:space="preserve" text-anchor="start" x="415" y="-164" font-family="Helvetica,sans-Serif" font-size="10.00">llvm::jitlink::ELFJITLinker</text>
<text xml:space="preserve" text-anchor="middle" x="470.5" y="-152.75" font-family="Helvetica,sans-Serif" font-size="10.00">_x86_64</text>
</a>
</g>
</g>
<!-- Node13&#45;&gt;Node14 -->
<g id="edge4051_Node000013_Node000014" class="edge">
<title>Node13&#45;&gt;Node14</title>
<g id="a_edge4051_Node000013_Node000014"><a xlink:title=" ">
<path fill="none" stroke="#63b8ff" d="M340.14,-162.25C362.05,-162.25 385.76,-162.25 406.82,-162.25"/>
<polygon fill="#63b8ff" stroke="#63b8ff" points="340.38,-158.75 330.38,-162.25 340.38,-165.75 340.38,-158.75"/>
</a>
</g>
</g>
<!-- Node16 -->
<g id="Node000016" class="node">
<title>Node16</title>
<g id="a_Node000016"><a xlink:href="classllvm_1_1jitlink_1_1MachOJITLinker__arm64.html" target="_top" xlink:title=" ">
<polygon fill="white" stroke="#666666" points="540.75,-128.5 400.25,-128.5 400.25,-98 540.75,-98 540.75,-128.5"/>
<text xml:space="preserve" text-anchor="start" x="408.25" y="-115" font-family="Helvetica,sans-Serif" font-size="10.00">llvm::jitlink::MachOJITLinker</text>
<text xml:space="preserve" text-anchor="middle" x="470.5" y="-103.75" font-family="Helvetica,sans-Serif" font-size="10.00">_arm64</text>
</a>
</g>
</g>
<!-- Node15&#45;&gt;Node16 -->
<g id="edge4053_Node000015_Node000016" class="edge">
<title>Node15&#45;&gt;Node16</title>
<g id="a_edge4053_Node000015_Node000016"><a xlink:title=" ">
<path fill="none" stroke="#63b8ff" d="M344.83,-113.25C362.97,-113.25 382.1,-113.25 399.79,-113.25"/>
<polygon fill="#63b8ff" stroke="#63b8ff" points="344.89,-109.75 334.89,-113.25 344.89,-116.75 344.89,-109.75"/>
</a>
</g>
</g>
<!-- Node18 -->
<g id="Node000018" class="node">
<title>Node18</title>
<g id="a_Node000018"><a xlink:href="classllvm_1_1jitlink_1_1MachOJITLinker__x86__64.html" target="_top" xlink:title=" ">
<polygon fill="white" stroke="#666666" points="540.75,-79.5 400.25,-79.5 400.25,-49 540.75,-49 540.75,-79.5"/>
<text xml:space="preserve" text-anchor="start" x="408.25" y="-66" font-family="Helvetica,sans-Serif" font-size="10.00">llvm::jitlink::MachOJITLinker</text>
<text xml:space="preserve" text-anchor="middle" x="470.5" y="-54.75" font-family="Helvetica,sans-Serif" font-size="10.00">_x86_64</text>
</a>
</g>
</g>
<!-- Node17&#45;&gt;Node18 -->
<g id="edge4055_Node000017_Node000018" class="edge">
<title>Node17&#45;&gt;Node18</title>
<g id="a_edge4055_Node000017_Node000018"><a xlink:title=" ">
<path fill="none" stroke="#63b8ff" d="M347.03,-64.25C364.54,-64.25 382.88,-64.25 399.87,-64.25"/>
<polygon fill="#63b8ff" stroke="#63b8ff" points="347.18,-60.75 337.18,-64.25 347.18,-67.75 347.18,-60.75"/>
</a>
</g>
</g>
</g>
</svg>
