<?xml version="1.0" encoding="UTF-8" standalone="no"?>
<!DOCTYPE svg PUBLIC "-//W3C//DTD SVG 1.1//EN"
 "http://www.w3.org/Graphics/SVG/1.1/DTD/svg11.dtd">
<!-- Generated by graphviz version 14.1.3 (20260303.0454)
 -->
<!-- Title: llvm::orc::detail::SPSCallSerialization&lt; SPSSig &gt; Pages: 1 -->
<svg width="1161pt" height="118pt"
 viewBox="0.00 0.00 1161.00 118.00" xmlns="http://www.w3.org/2000/svg" xmlns:xlink="http://www.w3.org/1999/xlink">
<g id="graph0" class="graph" transform="scale(1 1) rotate(0) translate(4 114.07)">
<title>llvm::orc::detail::SPSCallSerialization&lt; SPSSig &gt;</title>
<!-- Node1 -->
<g id="Node000001" class="node">
<title>Node1</title>
<g id="a_Node000001"><a xlink:title=" ">
<polygon fill="#999999" stroke="#666666" points="607.75,-95.75 501,-95.75 501,-54 607.75,-54 607.75,-95.75"/>
<text xml:space="preserve" text-anchor="start" x="509" y="-82.25" font-family="Helvetica,sans-Serif" font-size="10.00">llvm::orc::detail::</text>
<text xml:space="preserve" text-anchor="start" x="509" y="-71" font-family="Helvetica,sans-Serif" font-size="10.00">SPSCallSerialization</text>
<text xml:space="preserve" text-anchor="middle" x="554.38" y="-59.75" font-family="Helvetica,sans-Serif" font-size="10.00">&lt; SPSSig &gt;</text>
</a>
</g>
</g>
<!-- Node4 -->
<g id="Node000004" class="node">
<title>Node4</title>
<g id="a_Node000004"><a xlink:href="structllvm_1_1orc_1_1SPSCallSerializer_3_01void_07SPSArgTs_8_8_8_08_4.html" target="_top" xlink:title="SPS serialization for void calls.">
<polygon fill="white" stroke="#666666" points="1152.75,-90.12 1015.25,-90.12 1015.25,-59.62 1152.75,-59.62 1152.75,-90.12"/>
<text xml:space="preserve" text-anchor="start" x="1023.25" y="-76.62" font-family="Helvetica,sans-Serif" font-size="10.00">llvm::orc::SPSCallSerializer</text>
<text xml:space="preserve" text-anchor="middle" x="1084" y="-65.38" font-family="Helvetica,sans-Serif" font-size="10.00">&lt; void(SPSArgTs...)&gt;</text>
</a>
</g>
</g>
<!-- Node1&#45;&gt;Node4 -->
<g id="edge3_Node000001_Node000004" class="edge">
<title>Node1&#45;&gt;Node4</title>
<g id="a_edge3_Node000001_Node000004"><a xlink:title=" ">
<path fill="none" stroke="#63b8ff" d="M619.14,-87.88C621.37,-88.23 623.58,-88.57 625.75,-88.88 789.26,-112.05 833.57,-117.76 997.25,-95.88 1006.67,-94.62 1016.56,-92.73 1026.13,-90.61"/>
<polygon fill="#63b8ff" stroke="#63b8ff" points="619.85,-84.45 609.41,-86.24 618.68,-91.36 619.85,-84.45"/>
</a>
</g>
</g>
<!-- Node5 -->
<g id="Node000005" class="node">
<title>Node5</title>
<g id="a_Node000005"><a xlink:href="structllvm_1_1orc_1_1SPSCallSerializer.html" target="_top" xlink:title="SPS serialization for non&#45;void calls.">
<polygon fill="white" stroke="#666666" points="880.25,-90.12 742.75,-90.12 742.75,-59.62 880.25,-59.62 880.25,-90.12"/>
<text xml:space="preserve" text-anchor="start" x="750.75" y="-76.62" font-family="Helvetica,sans-Serif" font-size="10.00">llvm::orc::SPSCallSerializer</text>
<text xml:space="preserve" text-anchor="middle" x="811.5" y="-65.38" font-family="Helvetica,sans-Serif" font-size="10.00">&lt; SPSSig &gt;</text>
</a>
</g>
</g>
<!-- Node1&#45;&gt;Node5 -->
<g id="edge4_Node000001_Node000005" class="edge">
<title>Node1&#45;&gt;Node5</title>
<g id="a_edge4_Node000001_Node000005"><a xlink:title=" ">
<path fill="none" stroke="#63b8ff" d="M619.55,-74.88C657.11,-74.88 704.48,-74.88 742.65,-74.88"/>
<polygon fill="#63b8ff" stroke="#63b8ff" points="619.75,-71.38 609.75,-74.88 619.75,-78.38 619.75,-71.38"/>
</a>
</g>
</g>
<!-- Node6 -->
<g id="Node000006" class="node">
<title>Node6</title>
<g id="a_Node000006"><a xlink:href="structllvm_1_1orc_1_1detail_1_1SPSCallSerialization.html" target="_top" xlink:title=" ">
<polygon fill="white" stroke="#666666" points="866,-41.75 757,-41.75 757,0 866,0 866,-41.75"/>
<text xml:space="preserve" text-anchor="start" x="765" y="-28.25" font-family="Helvetica,sans-Serif" font-size="10.00">llvm::orc::detail::</text>
<text xml:space="preserve" text-anchor="start" x="765" y="-17" font-family="Helvetica,sans-Serif" font-size="10.00">SPSCallSerialization</text>
<text xml:space="preserve" text-anchor="middle" x="811.5" y="-5.75" font-family="Helvetica,sans-Serif" font-size="10.00">&lt; void(SPSArgTs...)&gt;</text>
</a>
</g>
</g>
<!-- Node1&#45;&gt;Node6 -->
<g id="edge6_Node000001_Node000006" class="edge">
<title>Node1&#45;&gt;Node6</title>
<g id="a_edge6_Node000001_Node000006"><a xlink:title=" ">
<path fill="none" stroke="orange" stroke-dasharray="5,2" d="M619.25,-55.24C621.44,-54.68 623.61,-54.14 625.75,-53.62 669.47,-43.19 719.74,-34.49 756.8,-28.68"/>
<polygon fill="orange" stroke="orange" points="618.44,-51.83 609.68,-57.8 620.25,-58.59 618.44,-51.83"/>
</a>
</g>
<text xml:space="preserve" text-anchor="start" x="628.75" y="-59.62" font-family="Helvetica,sans-Serif" font-size="10.00" fill="grey">&lt; void(SPSArgTs...)&gt;</text>
</g>
<!-- Node2 -->
<g id="Node000002" class="node">
<title>Node2</title>
<g id="a_Node000002"><a xlink:href="structllvm_1_1orc_1_1CallableTraitsHelper.html" target="_top" xlink:title=" ">
<polygon fill="white" stroke="#666666" points="464,-95.75 290.5,-95.75 290.5,-54 464,-54 464,-95.75"/>
<text xml:space="preserve" text-anchor="start" x="298.5" y="-82.25" font-family="Helvetica,sans-Serif" font-size="10.00">llvm::orc::CallableTraits</text>
<text xml:space="preserve" text-anchor="start" x="298.5" y="-71" font-family="Helvetica,sans-Serif" font-size="10.00">Helper&lt; detail::SPSCallSerialization</text>
<text xml:space="preserve" text-anchor="middle" x="377.25" y="-59.75" font-family="Helvetica,sans-Serif" font-size="10.00">Impl, SPSSig &gt;</text>
</a>
</g>
</g>
<!-- Node2&#45;&gt;Node1 -->
<g id="edge1_Node000001_Node000002" class="edge">
<title>Node2&#45;&gt;Node1</title>
<g id="a_edge1_Node000001_Node000002"><a xlink:title=" ">
<path fill="none" stroke="#63b8ff" d="M475.64,-74.88C484.26,-74.88 492.74,-74.88 500.76,-74.88"/>
<polygon fill="#63b8ff" stroke="#63b8ff" points="475.79,-71.38 465.79,-74.88 475.79,-78.38 475.79,-71.38"/>
</a>
</g>
</g>
<!-- Node3 -->
<g id="Node000003" class="node">
<title>Node3</title>
<g id="a_Node000003"><a xlink:href="structllvm_1_1orc_1_1CallableTraitsHelper.html" target="_top" xlink:title="CallableTraitsHelper takes an implementation class template Impl and some callable type C and passes ...">
<polygon fill="white" stroke="#666666" points="119.5,-90.12 0,-90.12 0,-59.62 119.5,-59.62 119.5,-90.12"/>
<text xml:space="preserve" text-anchor="start" x="8" y="-76.62" font-family="Helvetica,sans-Serif" font-size="10.00">llvm::orc::CallableTraits</text>
<text xml:space="preserve" text-anchor="middle" x="59.75" y="-65.38" font-family="Helvetica,sans-Serif" font-size="10.00">Helper&lt; ImplT, C &gt;</text>
</a>
</g>
</g>
<!-- Node3&#45;&gt;Node2 -->
<g id="edge2_Node000002_Node000003" class="edge">
<title>Node3&#45;&gt;Node2</title>
<g id="a_edge2_Node000002_Node000003"><a xlink:title=" ">
<path fill="none" stroke="orange" stroke-dasharray="5,2" d="M131.03,-74.88C178.03,-74.88 240.19,-74.88 290.17,-74.88"/>
<polygon fill="orange" stroke="orange" points="131.24,-71.38 121.24,-74.88 131.24,-78.38 131.24,-71.38"/>
</a>
</g>
<text xml:space="preserve" text-anchor="start" x="140.5" y="-96.12" font-family="Helvetica,sans-Serif" font-size="10.00" fill="grey">&lt; detail::SPSCallSerialization</text>
<text xml:space="preserve" text-anchor="start" x="140.5" y="-80.88" font-family="Helvetica,sans-Serif" font-size="10.00" fill="grey">  Impl, SPSSig &gt;</text>
</g>
<!-- Node5&#45;&gt;Node4 -->
<g id="edge5_Node000005_Node000004" class="edge">
<title>Node5&#45;&gt;Node4</title>
<g id="a_edge5_Node000005_Node000004"><a xlink:title=" ">
<path fill="none" stroke="orange" stroke-dasharray="5,2" d="M891.76,-74.88C930.88,-74.88 977.6,-74.88 1015.06,-74.88"/>
<polygon fill="orange" stroke="orange" points="891.92,-71.38 881.92,-74.88 891.92,-78.38 891.92,-71.38"/>
</a>
</g>
<text xml:space="preserve" text-anchor="start" x="901.25" y="-80.88" font-family="Helvetica,sans-Serif" font-size="10.00" fill="grey">&lt; void(SPSArgTs...)&gt;</text>
</g>
<!-- Node6&#45;&gt;Node4 -->
<g id="edge7_Node000006_Node000004" class="edge">
<title>Node6&#45;&gt;Node4</title>
<g id="a_edge7_Node000006_Node000004"><a xlink:title=" ">
<path fill="none" stroke="#63b8ff" d="M877.37,-33.82C918.91,-42.12 972.75,-52.87 1014.91,-61.28"/>
<polygon fill="#63b8ff" stroke="#63b8ff" points="878.24,-30.43 867.75,-31.9 876.87,-37.29 878.24,-30.43"/>
</a>
</g>
</g>
</g>
</svg>
