<?xml version="1.0" encoding="UTF-8" standalone="no"?>
<!DOCTYPE svg PUBLIC "-//W3C//DTD SVG 1.1//EN"
 "http://www.w3.org/Graphics/SVG/1.1/DTD/svg11.dtd">
<!-- Generated by graphviz version 14.1.3 (20260303.0454)
 -->
<!-- Title: llvm::GraphTraits&lt; const BasicBlock * &gt; Pages: 1 -->
<svg width="519pt" height="186pt"
 viewBox="0.00 0.00 519.00 186.00" xmlns="http://www.w3.org/2000/svg" xmlns:xlink="http://www.w3.org/1999/xlink">
<g id="graph0" class="graph" transform="scale(1 1) rotate(0) translate(4 181.5)">
<title>llvm::GraphTraits&lt; const BasicBlock * &gt;</title>
<!-- Node1 -->
<g id="Node000001" class="node">
<title>Node1</title>
<g id="a_Node000001"><a xlink:title=" ">
<polygon fill="#999999" stroke="#666666" points="351.5,-103.5 240.25,-103.5 240.25,-73 351.5,-73 351.5,-103.5"/>
<text xml:space="preserve" text-anchor="start" x="248.25" y="-90" font-family="Helvetica,sans-Serif" font-size="10.00">llvm::GraphTraits&lt;</text>
<text xml:space="preserve" text-anchor="middle" x="295.88" y="-78.75" font-family="Helvetica,sans-Serif" font-size="10.00"> const BasicBlock * &gt;</text>
</a>
</g>
</g>
<!-- Node3 -->
<g id="Node000003" class="node">
<title>Node3</title>
<g id="a_Node000003"><a xlink:href="structllvm_1_1GraphTraits_3_01DOTFuncInfo_01_5_01_4.html" target="_top" xlink:title=" ">
<polygon fill="white" stroke="#666666" points="498.25,-177.5 401.25,-177.5 401.25,-147 498.25,-147 498.25,-177.5"/>
<text xml:space="preserve" text-anchor="start" x="409.25" y="-164" font-family="Helvetica,sans-Serif" font-size="10.00">llvm::GraphTraits&lt;</text>
<text xml:space="preserve" text-anchor="middle" x="449.75" y="-152.75" font-family="Helvetica,sans-Serif" font-size="10.00"> DOTFuncInfo * &gt;</text>
</a>
</g>
</g>
<!-- Node1&#45;&gt;Node3 -->
<g id="edge2_Node000001_Node000003" class="edge">
<title>Node1&#45;&gt;Node3</title>
<g id="a_edge2_Node000001_Node000003"><a xlink:title=" ">
<path fill="none" stroke="#63b8ff" d="M334.36,-109.36C350.78,-118.34 370.41,-128.68 388.5,-137.25 395.15,-140.4 402.31,-143.56 409.29,-146.53"/>
<polygon fill="#63b8ff" stroke="#63b8ff" points="336.36,-106.47 325.91,-104.71 332.98,-112.6 336.36,-106.47"/>
</a>
</g>
</g>
<!-- Node4 -->
<g id="Node000004" class="node">
<title>Node4</title>
<g id="a_Node000004"><a xlink:href="structllvm_1_1GraphTraits_3_01DOTFuncMSSAInfo_01_5_01_4.html" target="_top" xlink:title=" ">
<polygon fill="white" stroke="#666666" points="511,-128.5 388.5,-128.5 388.5,-98 511,-98 511,-128.5"/>
<text xml:space="preserve" text-anchor="start" x="396.5" y="-115" font-family="Helvetica,sans-Serif" font-size="10.00">llvm::GraphTraits&lt;</text>
<text xml:space="preserve" text-anchor="middle" x="449.75" y="-103.75" font-family="Helvetica,sans-Serif" font-size="10.00"> DOTFuncMSSAInfo * &gt;</text>
</a>
</g>
</g>
<!-- Node1&#45;&gt;Node4 -->
<g id="edge3_Node000001_Node000004" class="edge">
<title>Node1&#45;&gt;Node4</title>
<g id="a_edge3_Node000001_Node000004"><a xlink:title=" ">
<path fill="none" stroke="#63b8ff" d="M362.96,-99.13C371.31,-100.5 379.82,-101.9 388.08,-103.26"/>
<polygon fill="#63b8ff" stroke="#63b8ff" points="363.63,-95.69 353.2,-97.52 362.5,-102.6 363.63,-95.69"/>
</a>
</g>
</g>
<!-- Node5 -->
<g id="Node000005" class="node">
<title>Node5</title>
<g id="a_Node000005"><a xlink:href="structllvm_1_1GraphTraits_3_01DotFuncBCIInfo_01_5_01_4.html" target="_top" xlink:title=" ">
<polygon fill="white" stroke="#666666" points="502.75,-79.5 396.75,-79.5 396.75,-49 502.75,-49 502.75,-79.5"/>
<text xml:space="preserve" text-anchor="start" x="404.75" y="-66" font-family="Helvetica,sans-Serif" font-size="10.00">llvm::GraphTraits&lt;</text>
<text xml:space="preserve" text-anchor="middle" x="449.75" y="-54.75" font-family="Helvetica,sans-Serif" font-size="10.00"> DotFuncBCIInfo * &gt;</text>
</a>
</g>
</g>
<!-- Node1&#45;&gt;Node5 -->
<g id="edge4_Node000001_Node000005" class="edge">
<title>Node1&#45;&gt;Node5</title>
<g id="a_edge4_Node000001_Node000005"><a xlink:title=" ">
<path fill="none" stroke="#63b8ff" d="M362.78,-77.84C373.98,-76.07 385.48,-74.25 396.28,-72.54"/>
<polygon fill="#63b8ff" stroke="#63b8ff" points="362.53,-74.33 353.2,-79.35 363.62,-81.25 362.53,-74.33"/>
</a>
</g>
</g>
<!-- Node6 -->
<g id="Node000006" class="node">
<title>Node6</title>
<g id="a_Node000006"><a xlink:href="structllvm_1_1GraphTraits_3_01const_01Function_01_5_01_4.html" target="_top" xlink:title=" ">
<polygon fill="white" stroke="#666666" points="499.38,-30.5 400.12,-30.5 400.12,0 499.38,0 499.38,-30.5"/>
<text xml:space="preserve" text-anchor="start" x="408.12" y="-17" font-family="Helvetica,sans-Serif" font-size="10.00">llvm::GraphTraits&lt;</text>
<text xml:space="preserve" text-anchor="middle" x="449.75" y="-5.75" font-family="Helvetica,sans-Serif" font-size="10.00"> const Function * &gt;</text>
</a>
</g>
</g>
<!-- Node1&#45;&gt;Node6 -->
<g id="edge5_Node000001_Node000006" class="edge">
<title>Node1&#45;&gt;Node6</title>
<g id="a_edge5_Node000001_Node000006"><a xlink:title=" ">
<path fill="none" stroke="#63b8ff" d="M334.77,-67.43C351.13,-58.69 370.59,-48.64 388.5,-40.25 395.27,-37.08 402.55,-33.88 409.63,-30.88"/>
<polygon fill="#63b8ff" stroke="#63b8ff" points="333.51,-64.13 326.36,-71.95 336.82,-70.3 333.51,-64.13"/>
</a>
</g>
</g>
<!-- Node2 -->
<g id="Node000002" class="node">
<title>Node2</title>
<g id="a_Node000002"><a xlink:href="structllvm_1_1GraphTraits.html" target="_top" xlink:title=" ">
<polygon fill="white" stroke="#666666" points="97,-103.5 0,-103.5 0,-73 97,-73 97,-103.5"/>
<text xml:space="preserve" text-anchor="start" x="8" y="-90" font-family="Helvetica,sans-Serif" font-size="10.00">llvm::GraphTraits&lt;</text>
<text xml:space="preserve" text-anchor="middle" x="48.5" y="-78.75" font-family="Helvetica,sans-Serif" font-size="10.00"> GraphType &gt;</text>
</a>
</g>
</g>
<!-- Node2&#45;&gt;Node1 -->
<g id="edge1_Node000001_Node000002" class="edge">
<title>Node2&#45;&gt;Node1</title>
<g id="a_edge1_Node000001_Node000002"><a xlink:title=" ">
<path fill="none" stroke="orange" stroke-dasharray="5,2" d="M108.82,-88.25C148.69,-88.25 200.87,-88.25 239.82,-88.25"/>
<polygon fill="orange" stroke="orange" points="108.91,-84.75 98.91,-88.25 108.91,-91.75 108.91,-84.75"/>
</a>
</g>
<text xml:space="preserve" text-anchor="start" x="118" y="-94.25" font-family="Helvetica,sans-Serif" font-size="10.00" fill="grey">&lt; const BasicBlock * &gt;</text>
</g>
</g>
</svg>
