<?xml version="1.0" encoding="UTF-8" standalone="no"?>
<!DOCTYPE svg PUBLIC "-//W3C//DTD SVG 1.1//EN"
 "http://www.w3.org/Graphics/SVG/1.1/DTD/svg11.dtd">
<!-- Generated by graphviz version 14.1.3 (20260303.0454)
 -->
<!-- Title: llvm::BFIDOTGraphTraitsBase&lt; BlockFrequencyInfoT, BranchProbabilityInfoT &gt; Pages: 1 -->
<svg width="973pt" height="112pt"
 viewBox="0.00 0.00 973.00 112.00" xmlns="http://www.w3.org/2000/svg" xmlns:xlink="http://www.w3.org/1999/xlink">
<g id="graph0" class="graph" transform="scale(1 1) rotate(0) translate(4 107.67)">
<title>llvm::BFIDOTGraphTraitsBase&lt; BlockFrequencyInfoT, BranchProbabilityInfoT &gt;</title>
<!-- Node1 -->
<g id="Node000001" class="node">
<title>Node1</title>
<g id="a_Node000001"><a xlink:title=" ">
<polygon fill="#999999" stroke="#666666" points="379.5,-71.75 180.5,-71.75 180.5,-30 379.5,-30 379.5,-71.75"/>
<text xml:space="preserve" text-anchor="start" x="188.5" y="-58.25" font-family="Helvetica,sans-Serif" font-size="10.00">llvm::BFIDOTGraphTraitsBase</text>
<text xml:space="preserve" text-anchor="start" x="188.5" y="-47" font-family="Helvetica,sans-Serif" font-size="10.00">&lt; BlockFrequencyInfoT, BranchProbability</text>
<text xml:space="preserve" text-anchor="middle" x="280" y="-35.75" font-family="Helvetica,sans-Serif" font-size="10.00">InfoT &gt;</text>
</a>
</g>
</g>
<!-- Node3 -->
<g id="Node000003" class="node">
<title>Node3</title>
<g id="a_Node000003"><a xlink:href="structllvm_1_1BFIDOTGraphTraitsBase.html" target="_top" xlink:title=" ">
<polygon fill="white" stroke="#666666" points="763.75,-101.75 569.25,-101.75 569.25,-60 763.75,-60 763.75,-101.75"/>
<text xml:space="preserve" text-anchor="start" x="577.25" y="-88.25" font-family="Helvetica,sans-Serif" font-size="10.00">llvm::BFIDOTGraphTraitsBase</text>
<text xml:space="preserve" text-anchor="start" x="577.25" y="-77" font-family="Helvetica,sans-Serif" font-size="10.00">&lt; BlockFrequencyInfo, BranchProbability</text>
<text xml:space="preserve" text-anchor="middle" x="666.5" y="-65.75" font-family="Helvetica,sans-Serif" font-size="10.00">Info &gt;</text>
</a>
</g>
</g>
<!-- Node1&#45;&gt;Node3 -->
<g id="edge2_Node000001_Node000003" class="edge">
<title>Node1&#45;&gt;Node3</title>
<g id="a_edge2_Node000001_Node000003"><a xlink:title=" ">
<path fill="none" stroke="orange" stroke-dasharray="5,2" d="M390.95,-59.45C447.09,-63.83 514.78,-69.12 568.9,-73.34"/>
<polygon fill="orange" stroke="orange" points="391.27,-55.97 381.03,-58.68 390.73,-62.95 391.27,-55.97"/>
</a>
</g>
<text xml:space="preserve" text-anchor="start" x="418.88" y="-92.42" font-family="Helvetica,sans-Serif" font-size="10.00" fill="grey">&lt; BlockFrequencyInfo,</text>
<text xml:space="preserve" text-anchor="start" x="418.88" y="-77.17" font-family="Helvetica,sans-Serif" font-size="10.00" fill="grey">   BranchProbabilityInfo &gt;</text>
</g>
<!-- Node5 -->
<g id="Node000005" class="node">
<title>Node5</title>
<g id="a_Node000005"><a xlink:href="structllvm_1_1BFIDOTGraphTraitsBase.html" target="_top" xlink:title=" ">
<polygon fill="white" stroke="#666666" points="745.38,-41.75 587.62,-41.75 587.62,0 745.38,0 745.38,-41.75"/>
<text xml:space="preserve" text-anchor="start" x="595.62" y="-28.25" font-family="Helvetica,sans-Serif" font-size="10.00">llvm::BFIDOTGraphTraitsBase</text>
<text xml:space="preserve" text-anchor="start" x="595.62" y="-17" font-family="Helvetica,sans-Serif" font-size="10.00">&lt; MachineBlockFrequencyInfo,</text>
<text xml:space="preserve" text-anchor="middle" x="666.5" y="-5.75" font-family="Helvetica,sans-Serif" font-size="10.00"> MachineBranchProbabilityInfo &gt;</text>
</a>
</g>
</g>
<!-- Node1&#45;&gt;Node5 -->
<g id="edge4_Node000001_Node000005" class="edge">
<title>Node1&#45;&gt;Node5</title>
<g id="a_edge4_Node000001_Node000005"><a xlink:title=" ">
<path fill="none" stroke="orange" stroke-dasharray="5,2" d="M376.42,-27.47C383.52,-26.25 390.61,-25.19 397.5,-24.38 461.03,-16.82 533.63,-16.37 587.23,-17.57"/>
<polygon fill="orange" stroke="orange" points="375.96,-24 366.75,-29.24 377.22,-30.89 375.96,-24"/>
</a>
</g>
<text xml:space="preserve" text-anchor="start" x="400.5" y="-45.62" font-family="Helvetica,sans-Serif" font-size="10.00" fill="grey">&lt; MachineBlockFrequencyInfo,</text>
<text xml:space="preserve" text-anchor="start" x="400.5" y="-30.38" font-family="Helvetica,sans-Serif" font-size="10.00" fill="grey">   MachineBranchProbabilityInfo &gt;</text>
</g>
<!-- Node2 -->
<g id="Node000002" class="node">
<title>Node2</title>
<g id="a_Node000002"><a xlink:href="structllvm_1_1DefaultDOTGraphTraits.html" target="_top" xlink:title="DefaultDOTGraphTraits &#45; This class provides the default implementations of all of the DOTGraphTraits ...">
<polygon fill="white" stroke="#666666" points="143.5,-60.5 0,-60.5 0,-41.25 143.5,-41.25 143.5,-60.5"/>
<text xml:space="preserve" text-anchor="middle" x="71.75" y="-47" font-family="Helvetica,sans-Serif" font-size="10.00">llvm::DefaultDOTGraphTraits</text>
</a>
</g>
</g>
<!-- Node2&#45;&gt;Node1 -->
<g id="edge1_Node000001_Node000002" class="edge">
<title>Node2&#45;&gt;Node1</title>
<g id="a_edge1_Node000001_Node000002"><a xlink:title=" ">
<path fill="none" stroke="#63b8ff" d="M155.21,-50.88C163.43,-50.88 171.83,-50.88 180.2,-50.88"/>
<polygon fill="#63b8ff" stroke="#63b8ff" points="155.24,-47.38 145.24,-50.88 155.24,-54.38 155.24,-47.38"/>
</a>
</g>
</g>
<!-- Node4 -->
<g id="Node000004" class="node">
<title>Node4</title>
<g id="a_Node000004"><a xlink:href="structllvm_1_1DOTGraphTraits_3_01BlockFrequencyInfo_01_5_01_4.html" target="_top" xlink:title=" ">
<polygon fill="white" stroke="#666666" points="946.88,-96.12 819.12,-96.12 819.12,-65.62 946.88,-65.62 946.88,-96.12"/>
<text xml:space="preserve" text-anchor="start" x="827.12" y="-82.62" font-family="Helvetica,sans-Serif" font-size="10.00">llvm::DOTGraphTraits</text>
<text xml:space="preserve" text-anchor="middle" x="883" y="-71.38" font-family="Helvetica,sans-Serif" font-size="10.00">&lt; BlockFrequencyInfo * &gt;</text>
</a>
</g>
</g>
<!-- Node3&#45;&gt;Node4 -->
<g id="edge3_Node000003_Node000004" class="edge">
<title>Node3&#45;&gt;Node4</title>
<g id="a_edge3_Node000003_Node000004"><a xlink:title=" ">
<path fill="none" stroke="#63b8ff" d="M775.43,-80.88C790.3,-80.88 805.14,-80.88 818.83,-80.88"/>
<polygon fill="#63b8ff" stroke="#63b8ff" points="775.6,-77.38 765.6,-80.88 775.6,-84.38 775.6,-77.38"/>
</a>
</g>
</g>
<!-- Node6 -->
<g id="Node000006" class="node">
<title>Node6</title>
<g id="a_Node000006"><a xlink:href="structllvm_1_1DOTGraphTraits_3_01MachineBlockFrequencyInfo_01_5_01_4.html" target="_top" xlink:title=" ">
<polygon fill="white" stroke="#666666" points="965.25,-36.12 800.75,-36.12 800.75,-5.62 965.25,-5.62 965.25,-36.12"/>
<text xml:space="preserve" text-anchor="start" x="808.75" y="-22.62" font-family="Helvetica,sans-Serif" font-size="10.00">llvm::DOTGraphTraits</text>
<text xml:space="preserve" text-anchor="middle" x="883" y="-11.38" font-family="Helvetica,sans-Serif" font-size="10.00">&lt; MachineBlockFrequencyInfo * &gt;</text>
</a>
</g>
</g>
<!-- Node5&#45;&gt;Node6 -->
<g id="edge5_Node000005_Node000006" class="edge">
<title>Node5&#45;&gt;Node6</title>
<g id="a_edge5_Node000005_Node000006"><a xlink:title=" ">
<path fill="none" stroke="#63b8ff" d="M757.19,-20.88C771.47,-20.88 786.18,-20.88 800.26,-20.88"/>
<polygon fill="#63b8ff" stroke="#63b8ff" points="757.36,-17.38 747.36,-20.88 757.36,-24.38 757.36,-17.38"/>
</a>
</g>
</g>
</g>
</svg>
