<?xml version="1.0" encoding="UTF-8" standalone="no"?>
<!DOCTYPE svg PUBLIC "-//W3C//DTD SVG 1.1//EN"
 "http://www.w3.org/Graphics/SVG/1.1/DTD/svg11.dtd">
<!-- Generated by graphviz version 14.1.3 (20260303.0454)
 -->
<!-- Title: llvm::DenseMapInfo&lt; AssertingVH&lt; T &gt; &gt; Pages: 1 -->
<svg width="269pt" height="190pt"
 viewBox="0.00 0.00 269.00 190.00" xmlns="http://www.w3.org/2000/svg" xmlns:xlink="http://www.w3.org/1999/xlink">
<g id="graph0" class="graph" transform="scale(1 1) rotate(0) translate(4 185.75)">
<title>llvm::DenseMapInfo&lt; AssertingVH&lt; T &gt; &gt;</title>
<!-- Node1 -->
<g id="Node000001" class="node">
<title>Node1</title>
<g id="a_Node000001"><a xlink:title=" ">
<polygon fill="#999999" stroke="#666666" points="141.25,-30.5 28.5,-30.5 28.5,0 141.25,0 141.25,-30.5"/>
<text xml:space="preserve" text-anchor="start" x="36.5" y="-17" font-family="Helvetica,sans-Serif" font-size="10.00">llvm::DenseMapInfo</text>
<text xml:space="preserve" text-anchor="middle" x="84.88" y="-5.75" font-family="Helvetica,sans-Serif" font-size="10.00">&lt; AssertingVH&lt; T &gt; &gt;</text>
</a>
</g>
</g>
<!-- Node2 -->
<g id="Node000002" class="node">
<title>Node2</title>
<g id="a_Node000002"><a xlink:href="structllvm_1_1DenseMapInfo_3_01T_01_5_01_4.html" target="_top" xlink:title=" ">
<polygon fill="white" stroke="#666666" points="260.75,-98 157,-98 157,-67.5 260.75,-67.5 260.75,-98"/>
<text xml:space="preserve" text-anchor="start" x="165" y="-84.5" font-family="Helvetica,sans-Serif" font-size="10.00">llvm::DenseMapInfo</text>
<text xml:space="preserve" text-anchor="middle" x="208.88" y="-73.25" font-family="Helvetica,sans-Serif" font-size="10.00">&lt; T * &gt;</text>
</a>
</g>
</g>
<!-- Node2&#45;&gt;Node1 -->
<g id="edge1_Node000001_Node000002" class="edge">
<title>Node2&#45;&gt;Node1</title>
<g id="a_edge1_Node000001_Node000002"><a xlink:title=" ">
<path fill="none" stroke="#63b8ff" d="M171,-61.74C152.17,-51.8 129.82,-39.99 112.61,-30.9"/>
<polygon fill="#63b8ff" stroke="#63b8ff" points="169.23,-64.77 179.71,-66.34 172.5,-58.58 169.23,-64.77"/>
</a>
</g>
</g>
<!-- Node3 -->
<g id="Node000003" class="node">
<title>Node3</title>
<g id="a_Node000003"><a xlink:href="structllvm_1_1DenseMapInfo.html" target="_top" xlink:title="An information struct used to provide DenseMap with the various necessary components for a given valu...">
<polygon fill="white" stroke="#666666" points="103.75,-181.75 0,-181.75 0,-151.25 103.75,-151.25 103.75,-181.75"/>
<text xml:space="preserve" text-anchor="start" x="8" y="-168.25" font-family="Helvetica,sans-Serif" font-size="10.00">llvm::DenseMapInfo</text>
<text xml:space="preserve" text-anchor="middle" x="51.88" y="-157" font-family="Helvetica,sans-Serif" font-size="10.00">&lt; T, Enable &gt;</text>
</a>
</g>
</g>
<!-- Node3&#45;&gt;Node1 -->
<g id="edge3_Node000001_Node000003" class="edge">
<title>Node3&#45;&gt;Node1</title>
<g id="a_edge3_Node000001_Node000003"><a xlink:title=" ">
<path fill="none" stroke="orange" stroke-dasharray="5,2" d="M44.7,-139.65C40.37,-119.46 37.08,-90.99 45.12,-67.5 49.94,-53.44 60.36,-40.25 69.32,-30.78"/>
<polygon fill="orange" stroke="orange" points="41.28,-140.38 47.02,-149.28 48.09,-138.74 41.28,-140.38"/>
</a>
</g>
<text xml:space="preserve" text-anchor="start" x="48.12" y="-80.12" font-family="Helvetica,sans-Serif" font-size="10.00" fill="grey">&lt; AssertingVH&lt; T &gt; &gt;</text>
</g>
<!-- Node3&#45;&gt;Node2 -->
<g id="edge2_Node000002_Node000003" class="edge">
<title>Node3&#45;&gt;Node2</title>
<g id="a_edge2_Node000002_Node000003"><a xlink:title=" ">
<path fill="none" stroke="orange" stroke-dasharray="5,2" d="M89.8,-145.75C117.84,-131.15 155.41,-111.59 180.79,-98.38"/>
<polygon fill="orange" stroke="orange" points="88.54,-142.46 81.29,-150.19 91.77,-148.67 88.54,-142.46"/>
</a>
</g>
<text xml:space="preserve" text-anchor="start" x="147.44" y="-122" font-family="Helvetica,sans-Serif" font-size="10.00" fill="grey">&lt; T * &gt;</text>
</g>
</g>
</svg>
