<?xml version="1.0" encoding="UTF-8" standalone="no"?>
<!DOCTYPE svg PUBLIC "-//W3C//DTD SVG 1.1//EN"
 "http://www.w3.org/Graphics/SVG/1.1/DTD/svg11.dtd">
<!-- Generated by graphviz version 14.1.3 (20260303.0454)
 -->
<!-- Title: llvm::irsymtab::storage::Range&lt; T &gt; Pages: 1 -->
<svg width="396pt" height="303pt"
 viewBox="0.00 0.00 396.00 303.00" xmlns="http://www.w3.org/2000/svg" xmlns:xlink="http://www.w3.org/1999/xlink">
<g id="graph0" class="graph" transform="scale(1 1) rotate(0) translate(4 299.09)">
<title>llvm::irsymtab::storage::Range&lt; T &gt;</title>
<!-- Node1 -->
<g id="Node000001" class="node">
<title>Node1</title>
<g id="a_Node000001"><a xlink:title="A reference to a range of objects in the symbol table.">
<polygon fill="#999999" stroke="#666666" points="115.75,-156.12 0,-156.12 0,-125.62 115.75,-125.62 115.75,-156.12"/>
<text xml:space="preserve" text-anchor="start" x="8" y="-142.62" font-family="Helvetica,sans-Serif" font-size="10.00">llvm::irsymtab::storage</text>
<text xml:space="preserve" text-anchor="middle" x="57.88" y="-131.38" font-family="Helvetica,sans-Serif" font-size="10.00">::Range&lt; T &gt;</text>
</a>
</g>
</g>
<!-- Node2 -->
<g id="Node000002" class="node">
<title>Node2</title>
<g id="a_Node000002"><a xlink:href="structllvm_1_1irsymtab_1_1storage_1_1Range.html" target="_top" xlink:title=" ">
<polygon fill="white" stroke="#666666" points="387.5,-281.75 266.5,-281.75 266.5,-240 387.5,-240 387.5,-281.75"/>
<text xml:space="preserve" text-anchor="start" x="274.5" y="-268.25" font-family="Helvetica,sans-Serif" font-size="10.00">llvm::irsymtab::storage</text>
<text xml:space="preserve" text-anchor="start" x="274.5" y="-257" font-family="Helvetica,sans-Serif" font-size="10.00">::Range&lt; llvm::irsymtab</text>
<text xml:space="preserve" text-anchor="middle" x="327" y="-245.75" font-family="Helvetica,sans-Serif" font-size="10.00">::storage::Module &gt;</text>
</a>
</g>
</g>
<!-- Node1&#45;&gt;Node2 -->
<g id="edge1_Node000001_Node000002" class="edge">
<title>Node1&#45;&gt;Node2</title>
<g id="a_edge1_Node000001_Node000002"><a xlink:title=" ">
<path fill="none" stroke="orange" stroke-dasharray="5,2" d="M72.1,-166.34C84.82,-188.07 106.17,-218.22 133.75,-233.88 173.91,-256.67 226.14,-262.8 266.03,-263.57"/>
<polygon fill="orange" stroke="orange" points="75.24,-164.78 67.3,-157.76 69.13,-168.2 75.24,-164.78"/>
</a>
</g>
<text xml:space="preserve" text-anchor="start" x="136.75" y="-283.84" font-family="Helvetica,sans-Serif" font-size="10.00" fill="grey">&lt; llvm::irsymtab::storage</text>
<text xml:space="preserve" text-anchor="start" x="136.75" y="-268.59" font-family="Helvetica,sans-Serif" font-size="10.00" fill="grey">  ::Module &gt;</text>
</g>
<!-- Node3 -->
<g id="Node000003" class="node">
<title>Node3</title>
<g id="a_Node000003"><a xlink:href="structllvm_1_1irsymtab_1_1storage_1_1Range.html" target="_top" xlink:title=" ">
<polygon fill="white" stroke="#666666" points="387.5,-221.75 266.5,-221.75 266.5,-180 387.5,-180 387.5,-221.75"/>
<text xml:space="preserve" text-anchor="start" x="274.5" y="-208.25" font-family="Helvetica,sans-Serif" font-size="10.00">llvm::irsymtab::storage</text>
<text xml:space="preserve" text-anchor="start" x="274.5" y="-197" font-family="Helvetica,sans-Serif" font-size="10.00">::Range&lt; llvm::irsymtab</text>
<text xml:space="preserve" text-anchor="middle" x="327" y="-185.75" font-family="Helvetica,sans-Serif" font-size="10.00">::storage::Comdat &gt;</text>
</a>
</g>
</g>
<!-- Node1&#45;&gt;Node3 -->
<g id="edge2_Node000001_Node000003" class="edge">
<title>Node1&#45;&gt;Node3</title>
<g id="a_edge2_Node000001_Node000003"><a xlink:title=" ">
<path fill="none" stroke="orange" stroke-dasharray="5,2" d="M95.05,-161.84C107.02,-167.92 120.64,-173.98 133.75,-177.88 176.93,-190.71 227.58,-196.41 266.05,-198.93"/>
<polygon fill="orange" stroke="orange" points="96.82,-158.82 86.34,-157.24 93.55,-165 96.82,-158.82"/>
</a>
</g>
<text xml:space="preserve" text-anchor="start" x="136.75" y="-218.72" font-family="Helvetica,sans-Serif" font-size="10.00" fill="grey">&lt; llvm::irsymtab::storage</text>
<text xml:space="preserve" text-anchor="start" x="136.75" y="-203.47" font-family="Helvetica,sans-Serif" font-size="10.00" fill="grey">  ::Comdat &gt;</text>
</g>
<!-- Node4 -->
<g id="Node000004" class="node">
<title>Node4</title>
<g id="a_Node000004"><a xlink:href="structllvm_1_1irsymtab_1_1storage_1_1Range.html" target="_top" xlink:title=" ">
<polygon fill="white" stroke="#666666" points="387.5,-161.75 266.5,-161.75 266.5,-120 387.5,-120 387.5,-161.75"/>
<text xml:space="preserve" text-anchor="start" x="274.5" y="-148.25" font-family="Helvetica,sans-Serif" font-size="10.00">llvm::irsymtab::storage</text>
<text xml:space="preserve" text-anchor="start" x="274.5" y="-137" font-family="Helvetica,sans-Serif" font-size="10.00">::Range&lt; llvm::irsymtab</text>
<text xml:space="preserve" text-anchor="middle" x="327" y="-125.75" font-family="Helvetica,sans-Serif" font-size="10.00">::storage::Symbol &gt;</text>
</a>
</g>
</g>
<!-- Node1&#45;&gt;Node4 -->
<g id="edge3_Node000001_Node000004" class="edge">
<title>Node1&#45;&gt;Node4</title>
<g id="a_edge3_Node000001_Node000004"><a xlink:title=" ">
<path fill="none" stroke="orange" stroke-dasharray="5,2" d="M127.64,-140.88C170.44,-140.88 224.96,-140.88 266.01,-140.88"/>
<polygon fill="orange" stroke="orange" points="127.69,-137.38 117.69,-140.88 127.69,-144.38 127.69,-137.38"/>
</a>
</g>
<text xml:space="preserve" text-anchor="start" x="136.75" y="-162.12" font-family="Helvetica,sans-Serif" font-size="10.00" fill="grey">&lt; llvm::irsymtab::storage</text>
<text xml:space="preserve" text-anchor="start" x="136.75" y="-146.88" font-family="Helvetica,sans-Serif" font-size="10.00" fill="grey">  ::Symbol &gt;</text>
</g>
<!-- Node5 -->
<g id="Node000005" class="node">
<title>Node5</title>
<g id="a_Node000005"><a xlink:href="structllvm_1_1irsymtab_1_1storage_1_1Range.html" target="_top" xlink:title=" ">
<polygon fill="white" stroke="#666666" points="387.5,-101.75 266.5,-101.75 266.5,-60 387.5,-60 387.5,-101.75"/>
<text xml:space="preserve" text-anchor="start" x="274.5" y="-88.25" font-family="Helvetica,sans-Serif" font-size="10.00">llvm::irsymtab::storage</text>
<text xml:space="preserve" text-anchor="start" x="274.5" y="-77" font-family="Helvetica,sans-Serif" font-size="10.00">::Range&lt; llvm::irsymtab</text>
<text xml:space="preserve" text-anchor="middle" x="327" y="-65.75" font-family="Helvetica,sans-Serif" font-size="10.00">::storage::Uncommon &gt;</text>
</a>
</g>
</g>
<!-- Node1&#45;&gt;Node5 -->
<g id="edge4_Node000001_Node000005" class="edge">
<title>Node1&#45;&gt;Node5</title>
<g id="a_edge4_Node000001_Node000005"><a xlink:title=" ">
<path fill="none" stroke="orange" stroke-dasharray="5,2" d="M95.38,-120.08C107.28,-114.12 120.77,-108.21 133.75,-104.38 176.96,-91.59 227.61,-85.75 266.07,-83.09"/>
<polygon fill="orange" stroke="orange" points="93.98,-116.86 86.72,-124.57 97.21,-123.07 93.98,-116.86"/>
</a>
</g>
<text xml:space="preserve" text-anchor="start" x="136.75" y="-125.62" font-family="Helvetica,sans-Serif" font-size="10.00" fill="grey">&lt; llvm::irsymtab::storage</text>
<text xml:space="preserve" text-anchor="start" x="136.75" y="-110.38" font-family="Helvetica,sans-Serif" font-size="10.00" fill="grey">  ::Uncommon &gt;</text>
</g>
<!-- Node6 -->
<g id="Node000006" class="node">
<title>Node6</title>
<g id="a_Node000006"><a xlink:href="structllvm_1_1irsymtab_1_1storage_1_1Range.html" target="_top" xlink:title=" ">
<polygon fill="white" stroke="#666666" points="387.5,-41.75 266.5,-41.75 266.5,0 387.5,0 387.5,-41.75"/>
<text xml:space="preserve" text-anchor="start" x="274.5" y="-28.25" font-family="Helvetica,sans-Serif" font-size="10.00">llvm::irsymtab::storage</text>
<text xml:space="preserve" text-anchor="start" x="274.5" y="-17" font-family="Helvetica,sans-Serif" font-size="10.00">::Range&lt; llvm::irsymtab</text>
<text xml:space="preserve" text-anchor="middle" x="327" y="-5.75" font-family="Helvetica,sans-Serif" font-size="10.00">::storage::Str &gt;</text>
</a>
</g>
</g>
<!-- Node1&#45;&gt;Node6 -->
<g id="edge5_Node000001_Node000006" class="edge">
<title>Node1&#45;&gt;Node6</title>
<g id="a_edge5_Node000001_Node000006"><a xlink:title=" ">
<path fill="none" stroke="orange" stroke-dasharray="5,2" d="M72.14,-115.57C84.89,-93.96 106.26,-63.97 133.75,-48.38 173.92,-25.58 226.16,-19.3 266.04,-18.4"/>
<polygon fill="orange" stroke="orange" points="69.2,-113.66 67.33,-124.08 75.29,-117.1 69.2,-113.66"/>
</a>
</g>
<text xml:space="preserve" text-anchor="start" x="136.75" y="-69.62" font-family="Helvetica,sans-Serif" font-size="10.00" fill="grey">&lt; llvm::irsymtab::storage</text>
<text xml:space="preserve" text-anchor="start" x="136.75" y="-54.38" font-family="Helvetica,sans-Serif" font-size="10.00" fill="grey">  ::Str &gt;</text>
</g>
</g>
</svg>
