<?xml version="1.0" encoding="UTF-8" standalone="no"?>
<!DOCTYPE svg PUBLIC "-//W3C//DTD SVG 1.1//EN"
 "http://www.w3.org/Graphics/SVG/1.1/DTD/svg11.dtd">
<!-- Generated by graphviz version 14.1.3 (20260303.0454)
 -->
<!-- Title: llvm::ImutContainerInfo&lt; T &gt; Pages: 1 -->
<svg width="262pt" height="167pt"
 viewBox="0.00 0.00 262.00 167.00" xmlns="http://www.w3.org/2000/svg" xmlns:xlink="http://www.w3.org/1999/xlink">
<g id="graph0" class="graph" transform="scale(1 1) rotate(0) translate(4 163.25)">
<title>llvm::ImutContainerInfo&lt; T &gt;</title>
<!-- Node1 -->
<g id="Node000001" class="node">
<title>Node1</title>
<g id="a_Node000001"><a xlink:title="ImutContainerInfo &#45; Generic definition of comparison operations for elements of immutable containers ...">
<polygon fill="#999999" stroke="#666666" points="198,-103 56,-103 56,-83.75 198,-83.75 198,-103"/>
<text xml:space="preserve" text-anchor="middle" x="127" y="-89.5" font-family="Helvetica,sans-Serif" font-size="10.00">llvm::ImutContainerInfo&lt; T &gt;</text>
</a>
</g>
</g>
<!-- Node3 -->
<g id="Node000003" class="node">
<title>Node3</title>
<g id="a_Node000003"><a xlink:href="structllvm_1_1ImutContainerInfo.html" target="_top" xlink:title=" ">
<polygon fill="white" stroke="#666666" points="118,-30.5 0,-30.5 0,0 118,0 118,-30.5"/>
<text xml:space="preserve" text-anchor="start" x="8" y="-17" font-family="Helvetica,sans-Serif" font-size="10.00">llvm::ImutContainerInfo</text>
<text xml:space="preserve" text-anchor="middle" x="59" y="-5.75" font-family="Helvetica,sans-Serif" font-size="10.00">&lt; ValT &gt;</text>
</a>
</g>
</g>
<!-- Node1&#45;&gt;Node3 -->
<g id="edge2_Node000001_Node000003" class="edge">
<title>Node1&#45;&gt;Node3</title>
<g id="a_edge2_Node000001_Node000003"><a xlink:title=" ">
<path fill="none" stroke="orange" stroke-dasharray="5,2" d="M111.47,-74.99C99.52,-61.61 83.19,-43.32 71.93,-30.73"/>
<polygon fill="orange" stroke="orange" points="108.65,-77.09 117.92,-82.21 113.87,-72.43 108.65,-77.09"/>
</a>
</g>
<text xml:space="preserve" text-anchor="start" x="106.06" y="-54.5" font-family="Helvetica,sans-Serif" font-size="10.00" fill="grey">&lt; ValT &gt;</text>
</g>
<!-- Node4 -->
<g id="Node000004" class="node">
<title>Node4</title>
<g id="a_Node000004"><a xlink:href="structllvm_1_1ImutContainerInfo_3_01T_01_5_01_4.html" target="_top" xlink:title="ImutContainerInfo &#45; Specialization for pointer values to treat pointers as references to unique objec...">
<polygon fill="white" stroke="#666666" points="254,-30.5 136,-30.5 136,0 254,0 254,-30.5"/>
<text xml:space="preserve" text-anchor="start" x="144" y="-17" font-family="Helvetica,sans-Serif" font-size="10.00">llvm::ImutContainerInfo</text>
<text xml:space="preserve" text-anchor="middle" x="195" y="-5.75" font-family="Helvetica,sans-Serif" font-size="10.00">&lt; T * &gt;</text>
</a>
</g>
</g>
<!-- Node1&#45;&gt;Node4 -->
<g id="edge3_Node000001_Node000004" class="edge">
<title>Node1&#45;&gt;Node4</title>
<g id="a_edge3_Node000001_Node000004"><a xlink:title=" ">
<path fill="none" stroke="orange" stroke-dasharray="5,2" d="M142.51,-75.2C145.34,-72.06 148.26,-68.81 151,-65.75 161.58,-53.93 173.54,-40.47 182.32,-30.57"/>
<polygon fill="orange" stroke="orange" points="140.13,-72.62 136.03,-82.39 145.33,-77.31 140.13,-72.62"/>
</a>
</g>
<text xml:space="preserve" text-anchor="start" x="168.55" y="-54.5" font-family="Helvetica,sans-Serif" font-size="10.00" fill="grey">&lt; T * &gt;</text>
</g>
<!-- Node2 -->
<g id="Node000002" class="node">
<title>Node2</title>
<g id="a_Node000002"><a xlink:href="structllvm_1_1ImutProfileInfo.html" target="_top" xlink:title="Generic profile template.">
<polygon fill="white" stroke="#666666" points="190.88,-159.25 63.12,-159.25 63.12,-140 190.88,-140 190.88,-159.25"/>
<text xml:space="preserve" text-anchor="middle" x="127" y="-145.75" font-family="Helvetica,sans-Serif" font-size="10.00">llvm::ImutProfileInfo&lt; T &gt;</text>
</a>
</g>
</g>
<!-- Node2&#45;&gt;Node1 -->
<g id="edge1_Node000001_Node000002" class="edge">
<title>Node2&#45;&gt;Node1</title>
<g id="a_edge1_Node000001_Node000002"><a xlink:title=" ">
<path fill="none" stroke="#63b8ff" d="M127,-128.44C127,-119.73 127,-109.99 127,-103.17"/>
<polygon fill="#63b8ff" stroke="#63b8ff" points="123.5,-128.15 127,-138.15 130.5,-128.15 123.5,-128.15"/>
</a>
</g>
</g>
</g>
</svg>
