<?xml version="1.0" encoding="UTF-8" standalone="no"?>
<!DOCTYPE svg PUBLIC "-//W3C//DTD SVG 1.1//EN"
 "http://www.w3.org/Graphics/SVG/1.1/DTD/svg11.dtd">
<!-- Generated by graphviz version 14.1.3 (20260303.0454)
 -->
<!-- Title: llvm::GraphTraits&lt; CallGraphNode * &gt; Pages: 1 -->
<svg width="156pt" height="190pt"
 viewBox="0.00 0.00 156.00 190.00" xmlns="http://www.w3.org/2000/svg" xmlns:xlink="http://www.w3.org/1999/xlink">
<g id="graph0" class="graph" transform="scale(1 1) rotate(0) translate(4 185.75)">
<title>llvm::GraphTraits&lt; CallGraphNode * &gt;</title>
<!-- Node1 -->
<g id="Node000001" class="node">
<title>Node1</title>
<g id="a_Node000001"><a xlink:title=" ">
<polygon fill="#999999" stroke="#666666" points="101.5,-98 0,-98 0,-67.5 101.5,-67.5 101.5,-98"/>
<text xml:space="preserve" text-anchor="start" x="8" y="-84.5" font-family="Helvetica,sans-Serif" font-size="10.00">llvm::GraphTraits&lt;</text>
<text xml:space="preserve" text-anchor="middle" x="50.75" y="-73.25" font-family="Helvetica,sans-Serif" font-size="10.00"> CallGraphNode * &gt;</text>
</a>
</g>
</g>
<!-- Node3 -->
<g id="Node000003" class="node">
<title>Node3</title>
<g id="a_Node000003"><a xlink:href="structllvm_1_1GraphTraits_3_01CallGraph_01_5_01_4.html" target="_top" xlink:title=" ">
<polygon fill="white" stroke="#666666" points="99.25,-30.5 2.25,-30.5 2.25,0 99.25,0 99.25,-30.5"/>
<text xml:space="preserve" text-anchor="start" x="10.25" y="-17" font-family="Helvetica,sans-Serif" font-size="10.00">llvm::GraphTraits&lt;</text>
<text xml:space="preserve" text-anchor="middle" x="50.75" y="-5.75" font-family="Helvetica,sans-Serif" font-size="10.00"> CallGraph * &gt;</text>
</a>
</g>
</g>
<!-- Node1&#45;&gt;Node3 -->
<g id="edge2_Node000001_Node000003" class="edge">
<title>Node1&#45;&gt;Node3</title>
<g id="a_edge2_Node000001_Node000003"><a xlink:title=" ">
<path fill="none" stroke="#63b8ff" d="M50.75,-55.84C50.75,-47.3 50.75,-38.12 50.75,-30.75"/>
<polygon fill="#63b8ff" stroke="#63b8ff" points="47.25,-55.7 50.75,-65.7 54.25,-55.7 47.25,-55.7"/>
</a>
</g>
</g>
<!-- Node2 -->
<g id="Node000002" class="node">
<title>Node2</title>
<g id="a_Node000002"><a xlink:href="structllvm_1_1GraphTraits.html" target="_top" xlink:title=" ">
<polygon fill="white" stroke="#666666" points="99.25,-181.75 2.25,-181.75 2.25,-151.25 99.25,-151.25 99.25,-181.75"/>
<text xml:space="preserve" text-anchor="start" x="10.25" y="-168.25" font-family="Helvetica,sans-Serif" font-size="10.00">llvm::GraphTraits&lt;</text>
<text xml:space="preserve" text-anchor="middle" x="50.75" y="-157" font-family="Helvetica,sans-Serif" font-size="10.00"> GraphType &gt;</text>
</a>
</g>
</g>
<!-- Node2&#45;&gt;Node1 -->
<g id="edge1_Node000001_Node000002" class="edge">
<title>Node2&#45;&gt;Node1</title>
<g id="a_edge1_Node000001_Node000002"><a xlink:title=" ">
<path fill="none" stroke="orange" stroke-dasharray="5,2" d="M50.75,-139.72C50.75,-126.03 50.75,-109.71 50.75,-98.24"/>
<polygon fill="orange" stroke="orange" points="47.25,-139.37 50.75,-149.37 54.25,-139.37 47.25,-139.37"/>
</a>
</g>
<text xml:space="preserve" text-anchor="start" x="53.75" y="-122" font-family="Helvetica,sans-Serif" font-size="10.00" fill="grey">&lt; CallGraphNode * &gt;</text>
</g>
</g>
</svg>
