<?xml version="1.0" encoding="UTF-8" standalone="no"?>
<!DOCTYPE svg PUBLIC "-//W3C//DTD SVG 1.1//EN"
 "http://www.w3.org/Graphics/SVG/1.1/DTD/svg11.dtd">
<!-- Generated by graphviz version 14.1.3 (20260303.0454)
 -->
<!-- Title: llvm::AADereferenceable Pages: 1 -->
<svg width="1079pt" height="194pt"
 viewBox="0.00 0.00 1079.00 194.00" xmlns="http://www.w3.org/2000/svg" xmlns:xlink="http://www.w3.org/1999/xlink">
<g id="graph0" class="graph" transform="scale(1 1) rotate(0) translate(4 189.88)">
<title>llvm::AADereferenceable</title>
<!-- Node1 -->
<g id="Node000001" class="node">
<title>Node1</title>
<g id="a_Node000001"><a xlink:title="An abstract interface for all dereferenceable attribute.">
<polygon fill="#999999" stroke="#666666" points="1070.5,-50.88 945.75,-50.88 945.75,-31.62 1070.5,-31.62 1070.5,-50.88"/>
<text xml:space="preserve" text-anchor="middle" x="1008.12" y="-37.38" font-family="Helvetica,sans-Serif" font-size="10.00">llvm::AADereferenceable</text>
</a>
</g>
</g>
<!-- Node2 -->
<g id="Node000002" class="node">
<title>Node2</title>
<g id="a_Node000002"><a xlink:href="structllvm_1_1IRAttribute.html" target="_top" xlink:title=" ">
<polygon fill="white" stroke="#666666" points="908.75,-67.75 709,-67.75 709,-14.75 908.75,-14.75 908.75,-67.75"/>
<text xml:space="preserve" text-anchor="start" x="717" y="-54.25" font-family="Helvetica,sans-Serif" font-size="10.00">llvm::IRAttribute&lt;</text>
<text xml:space="preserve" text-anchor="start" x="717" y="-43" font-family="Helvetica,sans-Serif" font-size="10.00"> Attribute::Dereferenceable,</text>
<text xml:space="preserve" text-anchor="start" x="717" y="-31.75" font-family="Helvetica,sans-Serif" font-size="10.00"> StateWrapper&lt; DerefState,</text>
<text xml:space="preserve" text-anchor="middle" x="808.88" y="-20.5" font-family="Helvetica,sans-Serif" font-size="10.00"> AbstractAttribute &gt;, AADereferenceable &gt;</text>
</a>
</g>
</g>
<!-- Node2&#45;&gt;Node1 -->
<g id="edge1_Node000001_Node000002" class="edge">
<title>Node2&#45;&gt;Node1</title>
<g id="a_edge1_Node000001_Node000002"><a xlink:title=" ">
<path fill="none" stroke="#63b8ff" d="M920.36,-41.25C928.91,-41.25 937.34,-41.25 945.39,-41.25"/>
<polygon fill="#63b8ff" stroke="#63b8ff" points="920.59,-37.75 910.59,-41.25 920.59,-44.75 920.59,-37.75"/>
</a>
</g>
</g>
<!-- Node3 -->
<g id="Node000003" class="node">
<title>Node3</title>
<g id="a_Node000003"><a xlink:href="structllvm_1_1StateWrapper.html" target="_top" xlink:title=" ">
<polygon fill="white" stroke="#666666" points="654.12,-112.5 494.12,-112.5 494.12,-82 654.12,-82 654.12,-112.5"/>
<text xml:space="preserve" text-anchor="start" x="502.12" y="-99" font-family="Helvetica,sans-Serif" font-size="10.00">llvm::StateWrapper</text>
<text xml:space="preserve" text-anchor="middle" x="574.12" y="-87.75" font-family="Helvetica,sans-Serif" font-size="10.00">&lt; DerefState, AbstractAttribute &gt;</text>
</a>
</g>
</g>
<!-- Node3&#45;&gt;Node2 -->
<g id="edge2_Node000002_Node000003" class="edge">
<title>Node3&#45;&gt;Node2</title>
<g id="a_edge2_Node000002_Node000003"><a xlink:title=" ">
<path fill="none" stroke="#63b8ff" d="M651.69,-78.83C669.87,-74.45 689.53,-69.72 708.57,-65.14"/>
<polygon fill="#63b8ff" stroke="#63b8ff" points="650.95,-75.41 642.05,-81.15 652.59,-82.21 650.95,-75.41"/>
</a>
</g>
</g>
<!-- Node4 -->
<g id="Node000004" class="node">
<title>Node4</title>
<g id="a_Node000004"><a xlink:href="structllvm_1_1AbstractAttribute.html" target="_top" xlink:title="Base struct for all &quot;concrete attribute&quot; deductions.">
<polygon fill="white" stroke="#666666" points="280.88,-114.88 167.38,-114.88 167.38,-95.62 280.88,-95.62 280.88,-114.88"/>
<text xml:space="preserve" text-anchor="middle" x="224.12" y="-101.38" font-family="Helvetica,sans-Serif" font-size="10.00">llvm::AbstractAttribute</text>
</a>
</g>
</g>
<!-- Node4&#45;&gt;Node3 -->
<g id="edge3_Node000003_Node000004" class="edge">
<title>Node4&#45;&gt;Node3</title>
<g id="a_edge3_Node000003_Node000004"><a xlink:title=" ">
<path fill="none" stroke="#63b8ff" d="M292.19,-103.71C349.75,-102.38 432.81,-100.48 493.68,-99.08"/>
<polygon fill="#63b8ff" stroke="#63b8ff" points="292.47,-100.2 282.55,-103.93 292.63,-107.2 292.47,-100.2"/>
</a>
</g>
</g>
<!-- Node5 -->
<g id="Node000005" class="node">
<title>Node5</title>
<g id="a_Node000005"><a xlink:href="structllvm_1_1IRPosition.html" target="_top" xlink:title="Helper to describe and deal with positions in the LLVM&#45;IR.">
<polygon fill="white" stroke="#666666" points="103.38,-111.88 17.62,-111.88 17.62,-92.62 103.38,-92.62 103.38,-111.88"/>
<text xml:space="preserve" text-anchor="middle" x="60.5" y="-98.38" font-family="Helvetica,sans-Serif" font-size="10.00">llvm::IRPosition</text>
</a>
</g>
</g>
<!-- Node5&#45;&gt;Node4 -->
<g id="edge4_Node000004_Node000005" class="edge">
<title>Node5&#45;&gt;Node4</title>
<g id="a_edge4_Node000004_Node000005"><a xlink:title=" ">
<path fill="none" stroke="#63b8ff" d="M114.8,-103.24C131.54,-103.55 150.06,-103.89 166.99,-104.21"/>
<polygon fill="#63b8ff" stroke="#63b8ff" points="115.12,-99.74 105.06,-103.06 114.99,-106.74 115.12,-99.74"/>
</a>
</g>
</g>
<!-- Node6 -->
<g id="Node000006" class="node">
<title>Node6</title>
<g id="a_Node000006"><a xlink:href="structllvm_1_1AADepGraphNode.html" target="_top" xlink:title="}">
<polygon fill="white" stroke="#666666" points="121,-148.88 0,-148.88 0,-129.62 121,-129.62 121,-148.88"/>
<text xml:space="preserve" text-anchor="middle" x="60.5" y="-135.38" font-family="Helvetica,sans-Serif" font-size="10.00">llvm::AADepGraphNode</text>
</a>
</g>
</g>
<!-- Node6&#45;&gt;Node4 -->
<g id="edge5_Node000004_Node000006" class="edge">
<title>Node6&#45;&gt;Node4</title>
<g id="a_edge5_Node000004_Node000006"><a xlink:title=" ">
<path fill="none" stroke="#63b8ff" d="M120.78,-126.78C138.71,-123.01 158.17,-118.91 175.25,-115.32"/>
<polygon fill="#63b8ff" stroke="#63b8ff" points="120.1,-123.35 111.04,-128.83 121.54,-130.2 120.1,-123.35"/>
</a>
</g>
</g>
<!-- Node7 -->
<g id="Node000007" class="node">
<title>Node7</title>
<g id="a_Node000007"><a xlink:href="structllvm_1_1DerefState.html" target="_top" xlink:title="State for dereferenceable attribute.">
<polygon fill="white" stroke="#666666" points="267.75,-167.88 180.5,-167.88 180.5,-148.62 267.75,-148.62 267.75,-167.88"/>
<text xml:space="preserve" text-anchor="middle" x="224.12" y="-154.38" font-family="Helvetica,sans-Serif" font-size="10.00">llvm::DerefState</text>
</a>
</g>
</g>
<!-- Node7&#45;&gt;Node3 -->
<g id="edge6_Node000003_Node000007" class="edge">
<title>Node7&#45;&gt;Node3</title>
<g id="a_edge6_Node000003_Node000007"><a xlink:title=" ">
<path fill="none" stroke="#63b8ff" d="M279.17,-148.78C336.65,-138.7 428.16,-122.66 493.81,-111.15"/>
<polygon fill="#63b8ff" stroke="#63b8ff" points="278.88,-145.27 269.64,-150.45 280.09,-152.17 278.88,-145.27"/>
</a>
</g>
</g>
<!-- Node8 -->
<g id="Node000008" class="node">
<title>Node8</title>
<g id="a_Node000008"><a xlink:href="structllvm_1_1AbstractState.html" target="_top" xlink:title="An interface to query the internal state of an abstract attribute.">
<polygon fill="white" stroke="#666666" points="110.5,-185.88 10.5,-185.88 10.5,-166.62 110.5,-166.62 110.5,-185.88"/>
<text xml:space="preserve" text-anchor="middle" x="60.5" y="-172.38" font-family="Helvetica,sans-Serif" font-size="10.00">llvm::AbstractState</text>
</a>
</g>
</g>
<!-- Node8&#45;&gt;Node7 -->
<g id="edge7_Node000007_Node000008" class="edge">
<title>Node8&#45;&gt;Node7</title>
<g id="a_edge7_Node000007_Node000008"><a xlink:title=" ">
<path fill="none" stroke="#63b8ff" d="M122.28,-169.48C141.51,-167.34 162.35,-165.02 180.07,-163.04"/>
<polygon fill="#63b8ff" stroke="#63b8ff" points="121.93,-166 112.38,-170.58 122.7,-172.96 121.93,-166"/>
</a>
</g>
</g>
<!-- Node9 -->
<g id="Node000009" class="node">
<title>Node9</title>
<g id="a_Node000009"><a xlink:href="structllvm_1_1StateWrapper.html" target="_top" xlink:title="Helper to tie a abstract state implementation to an abstract attribute.">
<polygon fill="white" stroke="#666666" points="290.25,-77.5 158,-77.5 158,-47 290.25,-47 290.25,-77.5"/>
<text xml:space="preserve" text-anchor="start" x="166" y="-64" font-family="Helvetica,sans-Serif" font-size="10.00">llvm::StateWrapper</text>
<text xml:space="preserve" text-anchor="middle" x="224.12" y="-52.75" font-family="Helvetica,sans-Serif" font-size="10.00">&lt; StateTy, BaseType, Ts &gt;</text>
</a>
</g>
</g>
<!-- Node9&#45;&gt;Node3 -->
<g id="edge8_Node000003_Node000009" class="edge">
<title>Node9&#45;&gt;Node3</title>
<g id="a_edge8_Node000003_Node000009"><a xlink:title=" ">
<path fill="none" stroke="orange" stroke-dasharray="5,2" d="M301.86,-66.1C347.4,-68.8 406.22,-73.01 458.25,-79 469.79,-80.33 481.93,-81.98 493.84,-83.74"/>
<polygon fill="orange" stroke="orange" points="302.28,-62.62 292.09,-65.54 301.87,-69.61 302.28,-62.62"/>
</a>
</g>
<text xml:space="preserve" text-anchor="start" x="311.25" y="-85" font-family="Helvetica,sans-Serif" font-size="10.00" fill="grey">&lt; DerefState, AbstractAttribute &gt;</text>
</g>
<!-- Node10 -->
<g id="Node000010" class="node">
<title>Node10</title>
<g id="a_Node000010"><a xlink:href="classBaseType.html" target="_top" xlink:title=" ">
<polygon fill="white" stroke="#666666" points="90.25,-31.88 30.75,-31.88 30.75,-12.62 90.25,-12.62 90.25,-31.88"/>
<text xml:space="preserve" text-anchor="middle" x="60.5" y="-18.38" font-family="Helvetica,sans-Serif" font-size="10.00">BaseType</text>
</a>
</g>
</g>
<!-- Node10&#45;&gt;Node9 -->
<g id="edge9_Node000009_Node000010" class="edge">
<title>Node10&#45;&gt;Node9</title>
<g id="a_edge9_Node000009_Node000010"><a xlink:title=" ">
<path fill="none" stroke="#63b8ff" d="M101.38,-32.12C118.94,-36.47 140.01,-41.68 159.65,-46.54"/>
<polygon fill="#63b8ff" stroke="#63b8ff" points="102.41,-28.77 91.86,-29.76 100.73,-35.56 102.41,-28.77"/>
</a>
</g>
</g>
<!-- Node12 -->
<g id="Node000012" class="node">
<title>Node12</title>
<g id="a_Node000012"><a xlink:href="structllvm_1_1IRAttribute.html" target="_top" xlink:title="Helper class that provides common functionality to manifest IR attributes.">
<polygon fill="white" stroke="#666666" points="447.5,-30.5 319,-30.5 319,0 447.5,0 447.5,-30.5"/>
<text xml:space="preserve" text-anchor="start" x="327" y="-17" font-family="Helvetica,sans-Serif" font-size="10.00">llvm::IRAttribute&lt;</text>
<text xml:space="preserve" text-anchor="middle" x="383.25" y="-5.75" font-family="Helvetica,sans-Serif" font-size="10.00"> AK, BaseType, AAType &gt;</text>
</a>
</g>
</g>
<!-- Node10&#45;&gt;Node12 -->
<g id="edge12_Node000012_Node000010" class="edge">
<title>Node10&#45;&gt;Node12</title>
<g id="a_edge12_Node000012_Node000010"><a xlink:title=" ">
<path fill="none" stroke="#63b8ff" d="M101.81,-21.37C156.35,-20.18 254.24,-18.04 318.73,-16.64"/>
<polygon fill="#63b8ff" stroke="#63b8ff" points="101.96,-17.87 92.04,-21.58 102.12,-24.86 101.96,-17.87"/>
</a>
</g>
</g>
<!-- Node11 -->
<g id="Node000011" class="node">
<title>Node11</title>
<g id="a_Node000011"><a xlink:href="classStateTy.html" target="_top" xlink:title=" ">
<polygon fill="white" stroke="#666666" points="85.38,-74.88 35.62,-74.88 35.62,-55.62 85.38,-55.62 85.38,-74.88"/>
<text xml:space="preserve" text-anchor="middle" x="60.5" y="-61.38" font-family="Helvetica,sans-Serif" font-size="10.00">StateTy</text>
</a>
</g>
</g>
<!-- Node11&#45;&gt;Node9 -->
<g id="edge10_Node000009_Node000011" class="edge">
<title>Node11&#45;&gt;Node9</title>
<g id="a_edge10_Node000009_Node000011"><a xlink:title=" ">
<path fill="none" stroke="#63b8ff" d="M96.96,-64.59C114.72,-64.26 136.81,-63.85 157.51,-63.47"/>
<polygon fill="#63b8ff" stroke="#63b8ff" points="97.14,-61.09 87.21,-64.77 97.27,-68.09 97.14,-61.09"/>
</a>
</g>
</g>
<!-- Node12&#45;&gt;Node2 -->
<g id="edge11_Node000002_Node000012" class="edge">
<title>Node12&#45;&gt;Node2</title>
<g id="a_edge11_Node000002_Node000012"><a xlink:title=" ">
<path fill="none" stroke="orange" stroke-dasharray="5,2" d="M459.05,-16.28C517.19,-17.48 599.8,-20.04 672,-25.5 683.84,-26.4 696.24,-27.54 708.52,-28.81"/>
<polygon fill="orange" stroke="orange" points="459.34,-12.79 449.28,-16.09 459.21,-19.78 459.34,-12.79"/>
</a>
</g>
<text xml:space="preserve" text-anchor="start" x="479.25" y="-62" font-family="Helvetica,sans-Serif" font-size="10.00" fill="grey">&lt; Attribute::Dereferenceable,</text>
<text xml:space="preserve" text-anchor="start" x="479.25" y="-46.75" font-family="Helvetica,sans-Serif" font-size="10.00" fill="grey">   StateWrapper&lt; DerefState,</text>
<text xml:space="preserve" text-anchor="start" x="479.25" y="-31.5" font-family="Helvetica,sans-Serif" font-size="10.00" fill="grey">   AbstractAttribute &gt;, AADereferenceable &gt;</text>
</g>
</g>
</svg>
