<?xml version="1.0" encoding="UTF-8" standalone="no"?>
<!DOCTYPE svg PUBLIC "-//W3C//DTD SVG 1.1//EN"
 "http://www.w3.org/Graphics/SVG/1.1/DTD/svg11.dtd">
<!-- Generated by graphviz version 14.1.3 (20260303.0454)
 -->
<!-- Title: llvm::ms_demangle::ConversionOperatorIdentifierNode Pages: 1 -->
<svg width="172pt" height="160pt"
 viewBox="0.00 0.00 172.00 160.00" xmlns="http://www.w3.org/2000/svg" xmlns:xlink="http://www.w3.org/1999/xlink">
<g id="graph0" class="graph" transform="scale(1 1) rotate(0) translate(4 156.25)">
<title>llvm::ms_demangle::ConversionOperatorIdentifierNode</title>
<!-- Node1 -->
<g id="Node000001" class="node">
<title>Node1</title>
<g id="a_Node000001"><a xlink:title=" ">
<polygon fill="#999999" stroke="#666666" points="163.75,-30.5 0,-30.5 0,0 163.75,0 163.75,-30.5"/>
<text xml:space="preserve" text-anchor="start" x="8" y="-17" font-family="Helvetica,sans-Serif" font-size="10.00">llvm::ms_demangle::</text>
<text xml:space="preserve" text-anchor="middle" x="81.88" y="-5.75" font-family="Helvetica,sans-Serif" font-size="10.00">ConversionOperatorIdentifierNode</text>
</a>
</g>
</g>
<!-- Node2 -->
<g id="Node000002" class="node">
<title>Node2</title>
<g id="a_Node000002"><a xlink:href="structllvm_1_1ms__demangle_1_1IdentifierNode.html" target="_top" xlink:title=" ">
<polygon fill="white" stroke="#666666" points="135.25,-97 28.5,-97 28.5,-66.5 135.25,-66.5 135.25,-97"/>
<text xml:space="preserve" text-anchor="start" x="36.5" y="-83.5" font-family="Helvetica,sans-Serif" font-size="10.00">llvm::ms_demangle::</text>
<text xml:space="preserve" text-anchor="middle" x="81.88" y="-72.25" font-family="Helvetica,sans-Serif" font-size="10.00">IdentifierNode</text>
</a>
</g>
</g>
<!-- Node2&#45;&gt;Node1 -->
<g id="edge1_Node000001_Node000002" class="edge">
<title>Node2&#45;&gt;Node1</title>
<g id="a_edge1_Node000001_Node000002"><a xlink:title=" ">
<path fill="none" stroke="#63b8ff" d="M81.88,-54.81C81.88,-46.64 81.88,-37.91 81.88,-30.83"/>
<polygon fill="#63b8ff" stroke="#63b8ff" points="78.38,-54.6 81.88,-64.6 85.38,-54.6 78.38,-54.6"/>
</a>
</g>
</g>
<!-- Node3 -->
<g id="Node000003" class="node">
<title>Node3</title>
<g id="a_Node000003"><a xlink:href="structllvm_1_1ms__demangle_1_1Node.html" target="_top" xlink:title=" ">
<polygon fill="white" stroke="#666666" points="146.88,-152.25 16.88,-152.25 16.88,-133 146.88,-133 146.88,-152.25"/>
<text xml:space="preserve" text-anchor="middle" x="81.88" y="-138.75" font-family="Helvetica,sans-Serif" font-size="10.00">llvm::ms_demangle::Node</text>
</a>
</g>
</g>
<!-- Node3&#45;&gt;Node2 -->
<g id="edge2_Node000002_Node000003" class="edge">
<title>Node3&#45;&gt;Node2</title>
<g id="a_edge2_Node000002_Node000003"><a xlink:title=" ">
<path fill="none" stroke="#63b8ff" d="M81.88,-121.42C81.88,-113.49 81.88,-104.56 81.88,-97.28"/>
<polygon fill="#63b8ff" stroke="#63b8ff" points="78.38,-121.17 81.88,-131.17 85.38,-121.17 78.38,-121.17"/>
</a>
</g>
</g>
</g>
</svg>
