<?xml version="1.0" encoding="UTF-8" standalone="no"?>
<!DOCTYPE svg PUBLIC "-//W3C//DTD SVG 1.1//EN"
 "http://www.w3.org/Graphics/SVG/1.1/DTD/svg11.dtd">
<!-- Generated by graphviz version 14.1.3 (20260303.0454)
 -->
<!-- Title: llvm::UnderlyingObject Pages: 1 -->
<svg width="175pt" height="190pt"
 viewBox="0.00 0.00 175.00 190.00" xmlns="http://www.w3.org/2000/svg" xmlns:xlink="http://www.w3.org/1999/xlink">
<g id="graph0" class="graph" transform="scale(1 1) rotate(0) translate(4 185.75)">
<title>llvm::UnderlyingObject</title>
<!-- Node1 -->
<g id="Node000001" class="node">
<title>Node1</title>
<g id="a_Node000001"><a xlink:title=" ">
<polygon fill="#999999" stroke="#666666" points="120.62,-19.25 5.62,-19.25 5.62,0 120.62,0 120.62,-19.25"/>
<text xml:space="preserve" text-anchor="middle" x="63.12" y="-5.75" font-family="Helvetica,sans-Serif" font-size="10.00">llvm::UnderlyingObject</text>
</a>
</g>
</g>
<!-- Node2 -->
<g id="Node000002" class="node">
<title>Node2</title>
<g id="a_Node000002"><a xlink:href="classllvm_1_1PointerIntPair.html" target="_top" xlink:title=" ">
<polygon fill="white" stroke="#666666" points="120.25,-86.75 6,-86.75 6,-56.25 120.25,-56.25 120.25,-86.75"/>
<text xml:space="preserve" text-anchor="start" x="14" y="-73.25" font-family="Helvetica,sans-Serif" font-size="10.00">llvm::PointerIntPair</text>
<text xml:space="preserve" text-anchor="middle" x="63.12" y="-62" font-family="Helvetica,sans-Serif" font-size="10.00">&lt; ValueType, 1, bool &gt;</text>
</a>
</g>
</g>
<!-- Node2&#45;&gt;Node1 -->
<g id="edge1_Node000001_Node000002" class="edge">
<title>Node2&#45;&gt;Node1</title>
<g id="a_edge1_Node000001_Node000002"><a xlink:title=" ">
<path fill="none" stroke="#63b8ff" d="M63.12,-44.77C63.12,-35.79 63.12,-26.29 63.12,-19.6"/>
<polygon fill="#63b8ff" stroke="#63b8ff" points="59.63,-44.49 63.13,-54.49 66.63,-44.49 59.63,-44.49"/>
</a>
</g>
</g>
<!-- Node3 -->
<g id="Node000003" class="node">
<title>Node3</title>
<g id="a_Node000003"><a xlink:href="classllvm_1_1PointerIntPair.html" target="_top" xlink:title="PointerIntPair &#45; This class implements a pair of a pointer and small integer.">
<polygon fill="white" stroke="#666666" points="126.25,-181.75 0,-181.75 0,-140 126.25,-140 126.25,-181.75"/>
<text xml:space="preserve" text-anchor="start" x="8" y="-168.25" font-family="Helvetica,sans-Serif" font-size="10.00">llvm::PointerIntPair</text>
<text xml:space="preserve" text-anchor="start" x="8" y="-157" font-family="Helvetica,sans-Serif" font-size="10.00">&lt; PointerTy, IntBits,</text>
<text xml:space="preserve" text-anchor="middle" x="63.12" y="-145.75" font-family="Helvetica,sans-Serif" font-size="10.00"> IntType, PtrTraits, Info &gt;</text>
</a>
</g>
</g>
<!-- Node3&#45;&gt;Node2 -->
<g id="edge2_Node000002_Node000003" class="edge">
<title>Node3&#45;&gt;Node2</title>
<g id="a_edge2_Node000002_Node000003"><a xlink:title=" ">
<path fill="none" stroke="orange" stroke-dasharray="5,2" d="M63.12,-128.37C63.12,-114.32 63.12,-98.43 63.12,-87.2"/>
<polygon fill="orange" stroke="orange" points="59.63,-128.1 63.13,-138.1 66.63,-128.1 59.63,-128.1"/>
</a>
</g>
<text xml:space="preserve" text-anchor="start" x="66.12" y="-110.75" font-family="Helvetica,sans-Serif" font-size="10.00" fill="grey">&lt; ValueType, 1, bool &gt;</text>
</g>
</g>
</svg>
