<?xml version="1.0" encoding="UTF-8" standalone="no"?>
<!DOCTYPE svg PUBLIC "-//W3C//DTD SVG 1.1//EN"
 "http://www.w3.org/Graphics/SVG/1.1/DTD/svg11.dtd">
<!-- Generated by graphviz version 14.1.3 (20260303.0454)
 -->
<!-- Title: llvm::MinidumpYAML::Stream Pages: 1 -->
<svg width="811pt" height="534pt"
 viewBox="0.00 0.00 811.00 534.00" xmlns="http://www.w3.org/2000/svg" xmlns:xlink="http://www.w3.org/1999/xlink">
<g id="graph0" class="graph" transform="scale(1 1) rotate(0) translate(4 530.12)">
<title>llvm::MinidumpYAML::Stream</title>
<!-- Node1 -->
<g id="Node000001" class="node">
<title>Node1</title>
<g id="a_Node000001"><a xlink:title="The base class for all minidump streams.">
<polygon fill="#999999" stroke="#666666" points="107.5,-247.5 0,-247.5 0,-217 107.5,-217 107.5,-247.5"/>
<text xml:space="preserve" text-anchor="start" x="8" y="-234" font-family="Helvetica,sans-Serif" font-size="10.00">llvm::MinidumpYAML</text>
<text xml:space="preserve" text-anchor="middle" x="53.75" y="-222.75" font-family="Helvetica,sans-Serif" font-size="10.00">::Stream</text>
</a>
</g>
</g>
<!-- Node2 -->
<g id="Node000002" class="node">
<title>Node2</title>
<g id="a_Node000002"><a xlink:href="structllvm_1_1MinidumpYAML_1_1detail_1_1ListStream.html" target="_top" xlink:title=" ">
<polygon fill="white" stroke="#666666" points="620.88,-441.12 495.38,-441.12 495.38,-399.38 620.88,-399.38 620.88,-441.12"/>
<text xml:space="preserve" text-anchor="start" x="503.38" y="-427.62" font-family="Helvetica,sans-Serif" font-size="10.00">llvm::MinidumpYAML</text>
<text xml:space="preserve" text-anchor="start" x="503.38" y="-416.38" font-family="Helvetica,sans-Serif" font-size="10.00">::detail::ListStream</text>
<text xml:space="preserve" text-anchor="middle" x="558.12" y="-405.12" font-family="Helvetica,sans-Serif" font-size="10.00">&lt; detail::ParsedModule &gt;</text>
</a>
</g>
</g>
<!-- Node1&#45;&gt;Node2 -->
<g id="edge1_Node000001_Node000002" class="edge">
<title>Node1&#45;&gt;Node2</title>
<g id="a_edge1_Node000001_Node000002"><a xlink:title=" ">
<path fill="none" stroke="#63b8ff" d="M64.7,-257.88C78.58,-291.09 106.41,-349.33 144.5,-388.25 194.99,-439.84 213.97,-452.87 283.5,-472.25 353.82,-491.85 376.54,-488.32 447.75,-472.25 474.21,-466.28 501.77,-453.12 522.61,-441.54"/>
<polygon fill="#63b8ff" stroke="#63b8ff" points="68.11,-256.99 61.1,-249.05 61.63,-259.63 68.11,-256.99"/>
</a>
</g>
</g>
<!-- Node3 -->
<g id="Node000003" class="node">
<title>Node3</title>
<g id="a_Node000003"><a xlink:href="structllvm_1_1MinidumpYAML_1_1detail_1_1ListStream.html" target="_top" xlink:title=" ">
<polygon fill="white" stroke="#666666" points="620.12,-526.12 496.12,-526.12 496.12,-484.38 620.12,-484.38 620.12,-526.12"/>
<text xml:space="preserve" text-anchor="start" x="504.12" y="-512.62" font-family="Helvetica,sans-Serif" font-size="10.00">llvm::MinidumpYAML</text>
<text xml:space="preserve" text-anchor="start" x="504.12" y="-501.38" font-family="Helvetica,sans-Serif" font-size="10.00">::detail::ListStream</text>
<text xml:space="preserve" text-anchor="middle" x="558.12" y="-490.12" font-family="Helvetica,sans-Serif" font-size="10.00">&lt; detail::ParsedThread &gt;</text>
</a>
</g>
</g>
<!-- Node1&#45;&gt;Node3 -->
<g id="edge2_Node000001_Node000003" class="edge">
<title>Node1&#45;&gt;Node3</title>
<g id="a_edge2_Node000001_Node000003"><a xlink:title=" ">
<path fill="none" stroke="#63b8ff" d="M59.22,-258.88C67.93,-302.76 91.21,-390.44 144.5,-441.25 239.33,-531.67 405.95,-526.31 495.71,-515.35"/>
<polygon fill="#63b8ff" stroke="#63b8ff" points="62.69,-258.41 57.42,-249.22 55.81,-259.7 62.69,-258.41"/>
</a>
</g>
</g>
<!-- Node4 -->
<g id="Node000004" class="node">
<title>Node4</title>
<g id="a_Node000004"><a xlink:href="structllvm_1_1MinidumpYAML_1_1detail_1_1ListStream.html" target="_top" xlink:title=" ">
<polygon fill="white" stroke="#666666" points="645.25,-296.12 471,-296.12 471,-254.38 645.25,-254.38 645.25,-296.12"/>
<text xml:space="preserve" text-anchor="start" x="479" y="-282.62" font-family="Helvetica,sans-Serif" font-size="10.00">llvm::MinidumpYAML</text>
<text xml:space="preserve" text-anchor="start" x="479" y="-271.38" font-family="Helvetica,sans-Serif" font-size="10.00">::detail::ListStream</text>
<text xml:space="preserve" text-anchor="middle" x="558.12" y="-260.12" font-family="Helvetica,sans-Serif" font-size="10.00">&lt; detail::ParsedMemoryDescriptor &gt;</text>
</a>
</g>
</g>
<!-- Node1&#45;&gt;Node4 -->
<g id="edge3_Node000001_Node000004" class="edge">
<title>Node1&#45;&gt;Node4</title>
<g id="a_edge3_Node000001_Node000004"><a xlink:title=" ">
<path fill="none" stroke="#63b8ff" d="M118.89,-237.74C208.33,-245.4 370.75,-259.3 470.76,-267.86"/>
<polygon fill="#63b8ff" stroke="#63b8ff" points="119.33,-234.27 109.07,-236.9 118.74,-241.24 119.33,-234.27"/>
</a>
</g>
</g>
<!-- Node5 -->
<g id="Node000005" class="node">
<title>Node5</title>
<g id="a_Node000005"><a xlink:href="structllvm_1_1MinidumpYAML_1_1detail_1_1ListStream.html" target="_top" xlink:title=" ">
<polygon fill="white" stroke="#666666" points="650.5,-373.12 465.75,-373.12 465.75,-331.38 650.5,-331.38 650.5,-373.12"/>
<text xml:space="preserve" text-anchor="start" x="473.75" y="-359.62" font-family="Helvetica,sans-Serif" font-size="10.00">llvm::MinidumpYAML</text>
<text xml:space="preserve" text-anchor="start" x="473.75" y="-348.38" font-family="Helvetica,sans-Serif" font-size="10.00">::detail::ListStream</text>
<text xml:space="preserve" text-anchor="middle" x="558.12" y="-337.12" font-family="Helvetica,sans-Serif" font-size="10.00">&lt; detail::ParsedMemory64Descriptor &gt;</text>
</a>
</g>
</g>
<!-- Node1&#45;&gt;Node5 -->
<g id="edge4_Node000001_Node000005" class="edge">
<title>Node1&#45;&gt;Node5</title>
<g id="a_edge4_Node000001_Node000005"><a xlink:title=" ">
<path fill="none" stroke="#63b8ff" d="M112.66,-251.16C123.18,-254.17 134.11,-257.02 144.5,-259.25 277.41,-287.81 317.53,-260.22 447.75,-299.25 473.22,-306.88 500.11,-319.84 520.86,-331.03"/>
<polygon fill="#63b8ff" stroke="#63b8ff" points="113.92,-247.88 103.34,-248.41 111.94,-254.6 113.92,-247.88"/>
</a>
</g>
</g>
<!-- Node7 -->
<g id="Node000007" class="node">
<title>Node7</title>
<g id="a_Node000007"><a xlink:href="structllvm_1_1MinidumpYAML_1_1ExceptionStream.html" target="_top" xlink:title="ExceptionStream minidump stream.">
<polygon fill="white" stroke="#666666" points="258.75,-226.5 151.25,-226.5 151.25,-196 258.75,-196 258.75,-226.5"/>
<text xml:space="preserve" text-anchor="start" x="159.25" y="-213" font-family="Helvetica,sans-Serif" font-size="10.00">llvm::MinidumpYAML</text>
<text xml:space="preserve" text-anchor="middle" x="205" y="-201.75" font-family="Helvetica,sans-Serif" font-size="10.00">::ExceptionStream</text>
</a>
</g>
</g>
<!-- Node1&#45;&gt;Node7 -->
<g id="edge6_Node000001_Node000007" class="edge">
<title>Node1&#45;&gt;Node7</title>
<g id="a_edge6_Node000001_Node000007"><a xlink:title=" ">
<path fill="none" stroke="#63b8ff" d="M119.13,-223.19C129.73,-221.7 140.6,-220.17 150.88,-218.72"/>
<polygon fill="#63b8ff" stroke="#63b8ff" points="118.7,-219.72 109.29,-224.58 119.68,-226.65 118.7,-219.72"/>
</a>
</g>
</g>
<!-- Node8 -->
<g id="Node000008" class="node">
<title>Node8</title>
<g id="a_Node000008"><a xlink:href="structllvm_1_1MinidumpYAML_1_1MemoryInfoListStream.html" target="_top" xlink:title="A structure containing the list of MemoryInfo entries comprising a MemoryInfoList stream.">
<polygon fill="white" stroke="#666666" points="265.5,-177.5 144.5,-177.5 144.5,-147 265.5,-147 265.5,-177.5"/>
<text xml:space="preserve" text-anchor="start" x="152.5" y="-164" font-family="Helvetica,sans-Serif" font-size="10.00">llvm::MinidumpYAML</text>
<text xml:space="preserve" text-anchor="middle" x="205" y="-152.75" font-family="Helvetica,sans-Serif" font-size="10.00">::MemoryInfoListStream</text>
</a>
</g>
</g>
<!-- Node1&#45;&gt;Node8 -->
<g id="edge7_Node000001_Node000008" class="edge">
<title>Node1&#45;&gt;Node8</title>
<g id="a_edge7_Node000001_Node000008"><a xlink:title=" ">
<path fill="none" stroke="#63b8ff" d="M95.04,-211.33C110.41,-203.54 128.16,-194.77 144.5,-187.25 151.32,-184.11 158.65,-180.9 165.74,-177.88"/>
<polygon fill="#63b8ff" stroke="#63b8ff" points="93.5,-208.19 86.18,-215.85 96.68,-214.42 93.5,-208.19"/>
</a>
</g>
</g>
<!-- Node9 -->
<g id="Node000009" class="node">
<title>Node9</title>
<g id="a_Node000009"><a xlink:href="structllvm_1_1MinidumpYAML_1_1RawContentStream.html" target="_top" xlink:title="A minidump stream represented as a sequence of hex bytes.">
<polygon fill="white" stroke="#666666" points="259.12,-128.5 150.88,-128.5 150.88,-98 259.12,-98 259.12,-128.5"/>
<text xml:space="preserve" text-anchor="start" x="158.88" y="-115" font-family="Helvetica,sans-Serif" font-size="10.00">llvm::MinidumpYAML</text>
<text xml:space="preserve" text-anchor="middle" x="205" y="-103.75" font-family="Helvetica,sans-Serif" font-size="10.00">::RawContentStream</text>
</a>
</g>
</g>
<!-- Node1&#45;&gt;Node9 -->
<g id="edge8_Node000001_Node000009" class="edge">
<title>Node1&#45;&gt;Node9</title>
<g id="a_edge8_Node000001_Node000009"><a xlink:title=" ">
<path fill="none" stroke="#63b8ff" d="M73.25,-207.85C89.99,-187.1 116.3,-157.67 144.5,-138.25 149.48,-134.82 155.01,-131.72 160.63,-128.97"/>
<polygon fill="#63b8ff" stroke="#63b8ff" points="70.64,-205.5 67.19,-215.51 76.14,-209.84 70.64,-205.5"/>
</a>
</g>
</g>
<!-- Node10 -->
<g id="Node000010" class="node">
<title>Node10</title>
<g id="a_Node000010"><a xlink:href="structllvm_1_1MinidumpYAML_1_1SystemInfoStream.html" target="_top" xlink:title="SystemInfo minidump stream.">
<polygon fill="white" stroke="#666666" points="258.75,-79.5 151.25,-79.5 151.25,-49 258.75,-49 258.75,-79.5"/>
<text xml:space="preserve" text-anchor="start" x="159.25" y="-66" font-family="Helvetica,sans-Serif" font-size="10.00">llvm::MinidumpYAML</text>
<text xml:space="preserve" text-anchor="middle" x="205" y="-54.75" font-family="Helvetica,sans-Serif" font-size="10.00">::SystemInfoStream</text>
</a>
</g>
</g>
<!-- Node1&#45;&gt;Node10 -->
<g id="edge9_Node000001_Node000010" class="edge">
<title>Node1&#45;&gt;Node10</title>
<g id="a_edge9_Node000001_Node000010"><a xlink:title=" ">
<path fill="none" stroke="#63b8ff" d="M65.23,-206.15C79.08,-174.6 106.3,-121.69 144.5,-89.25 148.68,-85.7 153.45,-82.59 158.41,-79.88"/>
<polygon fill="#63b8ff" stroke="#63b8ff" points="62.01,-204.77 61.32,-215.34 68.45,-207.51 62.01,-204.77"/>
</a>
</g>
</g>
<!-- Node11 -->
<g id="Node000011" class="node">
<title>Node11</title>
<g id="a_Node000011"><a xlink:href="structllvm_1_1MinidumpYAML_1_1TextContentStream.html" target="_top" xlink:title="A StringRef, which is printed using YAML block notation.">
<polygon fill="white" stroke="#666666" points="258.75,-30.5 151.25,-30.5 151.25,0 258.75,0 258.75,-30.5"/>
<text xml:space="preserve" text-anchor="start" x="159.25" y="-17" font-family="Helvetica,sans-Serif" font-size="10.00">llvm::MinidumpYAML</text>
<text xml:space="preserve" text-anchor="middle" x="205" y="-5.75" font-family="Helvetica,sans-Serif" font-size="10.00">::TextContentStream</text>
</a>
</g>
</g>
<!-- Node1&#45;&gt;Node11 -->
<g id="edge10_Node000001_Node000011" class="edge">
<title>Node1&#45;&gt;Node11</title>
<g id="a_edge10_Node000001_Node000011"><a xlink:title=" ">
<path fill="none" stroke="#63b8ff" d="M60.72,-205.4C71.08,-164.59 96.08,-86.8 144.5,-40.25 148.22,-36.68 152.52,-33.58 157.07,-30.91"/>
<polygon fill="#63b8ff" stroke="#63b8ff" points="57.32,-204.55 58.37,-215.1 64.12,-206.2 57.32,-204.55"/>
</a>
</g>
</g>
<!-- Node12 -->
<g id="Node000012" class="node">
<title>Node12</title>
<g id="a_Node000012"><a xlink:href="structllvm_1_1MinidumpYAML_1_1detail_1_1ListStream.html" target="_top" xlink:title="A stream representing a list of abstract entries in a minidump stream.">
<polygon fill="white" stroke="#666666" points="258.75,-379.12 151.25,-379.12 151.25,-337.38 258.75,-337.38 258.75,-379.12"/>
<text xml:space="preserve" text-anchor="start" x="159.25" y="-365.62" font-family="Helvetica,sans-Serif" font-size="10.00">llvm::MinidumpYAML</text>
<text xml:space="preserve" text-anchor="start" x="159.25" y="-354.38" font-family="Helvetica,sans-Serif" font-size="10.00">::detail::ListStream</text>
<text xml:space="preserve" text-anchor="middle" x="205" y="-343.12" font-family="Helvetica,sans-Serif" font-size="10.00">&lt; EntryT &gt;</text>
</a>
</g>
</g>
<!-- Node1&#45;&gt;Node12 -->
<g id="edge11_Node000001_Node000012" class="edge">
<title>Node1&#45;&gt;Node12</title>
<g id="a_edge11_Node000001_Node000012"><a xlink:title=" ">
<path fill="none" stroke="#63b8ff" d="M75.27,-256.33C88.77,-271.49 107.26,-291 125.5,-306.25 138.79,-317.37 154.54,-328.19 168.42,-337.06"/>
<polygon fill="#63b8ff" stroke="#63b8ff" points="78.16,-254.31 68.93,-249.11 72.9,-258.93 78.16,-254.31"/>
</a>
</g>
</g>
<!-- Node6 -->
<g id="Node000006" class="node">
<title>Node6</title>
<g id="a_Node000006"><a xlink:href="structllvm_1_1MinidumpYAML_1_1Memory64ListStream.html" target="_top" xlink:title=" ">
<polygon fill="white" stroke="#666666" points="802.5,-367.5 687.5,-367.5 687.5,-337 802.5,-337 802.5,-367.5"/>
<text xml:space="preserve" text-anchor="start" x="695.5" y="-354" font-family="Helvetica,sans-Serif" font-size="10.00">llvm::MinidumpYAML</text>
<text xml:space="preserve" text-anchor="middle" x="745" y="-342.75" font-family="Helvetica,sans-Serif" font-size="10.00">::Memory64ListStream</text>
</a>
</g>
</g>
<!-- Node5&#45;&gt;Node6 -->
<g id="edge5_Node000005_Node000006" class="edge">
<title>Node5&#45;&gt;Node6</title>
<g id="a_edge5_Node000005_Node000006"><a xlink:title=" ">
<path fill="none" stroke="#63b8ff" d="M662.1,-352.25C670.7,-352.25 679.18,-352.25 687.23,-352.25"/>
<polygon fill="#63b8ff" stroke="#63b8ff" points="662.26,-348.75 652.26,-352.25 662.26,-355.75 662.26,-348.75"/>
</a>
</g>
</g>
<!-- Node12&#45;&gt;Node2 -->
<g id="edge12_Node000012_Node000002" class="edge">
<title>Node12&#45;&gt;Node2</title>
<g id="a_edge12_Node000012_Node000002"><a xlink:title=" ">
<path fill="none" stroke="orange" stroke-dasharray="5,2" d="M258.7,-383.96C266.86,-387.17 275.3,-390.09 283.5,-392.25 322.06,-402.41 426.75,-411.23 494.89,-416.14"/>
<polygon fill="orange" stroke="orange" points="260.16,-380.77 249.58,-380.17 257.48,-387.24 260.16,-380.77"/>
</a>
</g>
<text xml:space="preserve" text-anchor="start" x="310.88" y="-418.09" font-family="Helvetica,sans-Serif" font-size="10.00" fill="grey">&lt; detail::ParsedModule &gt;</text>
</g>
<!-- Node12&#45;&gt;Node3 -->
<g id="edge13_Node000012_Node000003" class="edge">
<title>Node12&#45;&gt;Node3</title>
<g id="a_edge13_Node000012_Node000003"><a xlink:title=" ">
<path fill="none" stroke="orange" stroke-dasharray="5,2" d="M230.22,-387.65C244.31,-402.99 263.24,-420.88 283.5,-432.25 350.6,-469.91 437.92,-488.81 495.66,-497.81"/>
<polygon fill="orange" stroke="orange" points="233.19,-385.72 223.93,-380.58 227.96,-390.38 233.19,-385.72"/>
</a>
</g>
<text xml:space="preserve" text-anchor="start" x="311.62" y="-493.72" font-family="Helvetica,sans-Serif" font-size="10.00" fill="grey">&lt; detail::ParsedThread &gt;</text>
</g>
<!-- Node12&#45;&gt;Node4 -->
<g id="edge14_Node000012_Node000004" class="edge">
<title>Node12&#45;&gt;Node4</title>
<g id="a_edge14_Node000012_Node000004"><a xlink:title=" ">
<path fill="none" stroke="orange" stroke-dasharray="5,2" d="M269.86,-336.85C274.46,-335.49 279.04,-334.19 283.5,-333 345.53,-316.4 416.49,-301.54 470.61,-291.05"/>
<polygon fill="orange" stroke="orange" points="269.14,-333.41 260.59,-339.67 271.17,-340.11 269.14,-333.41"/>
</a>
</g>
<text xml:space="preserve" text-anchor="start" x="286.5" y="-339" font-family="Helvetica,sans-Serif" font-size="10.00" fill="grey">&lt; detail::ParsedMemoryDescriptor &gt;</text>
</g>
<!-- Node12&#45;&gt;Node5 -->
<g id="edge15_Node000012_Node000005" class="edge">
<title>Node12&#45;&gt;Node5</title>
<g id="a_edge15_Node000012_Node000005"><a xlink:title=" ">
<path fill="none" stroke="orange" stroke-dasharray="5,2" d="M270.23,-357.15C324.91,-356.22 404.12,-354.86 465.46,-353.82"/>
<polygon fill="orange" stroke="orange" points="270.4,-353.65 260.46,-357.32 270.52,-360.65 270.4,-353.65"/>
</a>
</g>
<text xml:space="preserve" text-anchor="start" x="308.25" y="-378.05" font-family="Helvetica,sans-Serif" font-size="10.00" fill="grey">&lt; detail::ParsedMemory64</text>
<text xml:space="preserve" text-anchor="start" x="308.25" y="-362.8" font-family="Helvetica,sans-Serif" font-size="10.00" fill="grey">  Descriptor &gt;</text>
</g>
</g>
</svg>
