<?xml version="1.0" encoding="UTF-8" standalone="no"?>
<!DOCTYPE svg PUBLIC "-//W3C//DTD SVG 1.1//EN"
 "http://www.w3.org/Graphics/SVG/1.1/DTD/svg11.dtd">
<!-- Generated by graphviz version 14.1.3 (20260303.0454)
 -->
<!-- Title: llvm::GraphTraits&lt; ProfiledCallGraph * &gt; Pages: 1 -->
<svg width="301pt" height="190pt"
 viewBox="0.00 0.00 301.00 190.00" xmlns="http://www.w3.org/2000/svg" xmlns:xlink="http://www.w3.org/1999/xlink">
<g id="graph0" class="graph" transform="scale(1 1) rotate(0) translate(4 185.75)">
<title>llvm::GraphTraits&lt; ProfiledCallGraph * &gt;</title>
<!-- Node1 -->
<g id="Node000001" class="node">
<title>Node1</title>
<g id="a_Node000001"><a xlink:title=" ">
<polygon fill="#999999" stroke="#666666" points="142.12,-30.5 30.88,-30.5 30.88,0 142.12,0 142.12,-30.5"/>
<text xml:space="preserve" text-anchor="start" x="38.88" y="-17" font-family="Helvetica,sans-Serif" font-size="10.00">llvm::GraphTraits&lt;</text>
<text xml:space="preserve" text-anchor="middle" x="86.5" y="-5.75" font-family="Helvetica,sans-Serif" font-size="10.00"> ProfiledCallGraph * &gt;</text>
</a>
</g>
</g>
<!-- Node2 -->
<g id="Node000002" class="node">
<title>Node2</title>
<g id="a_Node000002"><a xlink:href="structllvm_1_1GraphTraits_3_01ProfiledCallGraphNode_01_5_01_4.html" target="_top" xlink:title=" ">
<polygon fill="white" stroke="#666666" points="292.75,-98 158.25,-98 158.25,-67.5 292.75,-67.5 292.75,-98"/>
<text xml:space="preserve" text-anchor="start" x="166.25" y="-84.5" font-family="Helvetica,sans-Serif" font-size="10.00">llvm::GraphTraits&lt;</text>
<text xml:space="preserve" text-anchor="middle" x="225.5" y="-73.25" font-family="Helvetica,sans-Serif" font-size="10.00"> ProfiledCallGraphNode * &gt;</text>
</a>
</g>
</g>
<!-- Node2&#45;&gt;Node1 -->
<g id="edge1_Node000001_Node000002" class="edge">
<title>Node2&#45;&gt;Node1</title>
<g id="a_edge1_Node000001_Node000002"><a xlink:title=" ">
<path fill="none" stroke="#63b8ff" d="M183.92,-62.16C162.63,-52.13 137.15,-40.12 117.59,-30.9"/>
<polygon fill="#63b8ff" stroke="#63b8ff" points="182.4,-65.31 192.94,-66.41 185.38,-58.98 182.4,-65.31"/>
</a>
</g>
</g>
<!-- Node3 -->
<g id="Node000003" class="node">
<title>Node3</title>
<g id="a_Node000003"><a xlink:href="structllvm_1_1GraphTraits.html" target="_top" xlink:title=" ">
<polygon fill="white" stroke="#666666" points="97,-181.75 0,-181.75 0,-151.25 97,-151.25 97,-181.75"/>
<text xml:space="preserve" text-anchor="start" x="8" y="-168.25" font-family="Helvetica,sans-Serif" font-size="10.00">llvm::GraphTraits&lt;</text>
<text xml:space="preserve" text-anchor="middle" x="48.5" y="-157" font-family="Helvetica,sans-Serif" font-size="10.00"> GraphType &gt;</text>
</a>
</g>
</g>
<!-- Node3&#45;&gt;Node1 -->
<g id="edge3_Node000001_Node000003" class="edge">
<title>Node3&#45;&gt;Node1</title>
<g id="a_edge3_Node000001_Node000003"><a xlink:title=" ">
<path fill="none" stroke="orange" stroke-dasharray="5,2" d="M41.26,-139.87C36.84,-119.59 33.55,-90.9 42.25,-67.5 47.58,-53.18 58.91,-40.18 68.77,-30.87"/>
<polygon fill="orange" stroke="orange" points="37.85,-140.66 43.63,-149.54 44.65,-138.99 37.85,-140.66"/>
</a>
</g>
<text xml:space="preserve" text-anchor="start" x="45.25" y="-80.12" font-family="Helvetica,sans-Serif" font-size="10.00" fill="grey">&lt; ProfiledCallGraph * &gt;</text>
</g>
<!-- Node3&#45;&gt;Node2 -->
<g id="edge2_Node000002_Node000003" class="edge">
<title>Node3&#45;&gt;Node2</title>
<g id="a_edge2_Node000002_Node000003"><a xlink:title=" ">
<path fill="none" stroke="orange" stroke-dasharray="5,2" d="M90.43,-146.13C122.13,-131.49 164.97,-111.71 193.83,-98.38"/>
<polygon fill="orange" stroke="orange" points="89.13,-142.88 81.52,-150.25 92.06,-149.23 89.13,-142.88"/>
</a>
</g>
<text xml:space="preserve" text-anchor="start" x="155.85" y="-122" font-family="Helvetica,sans-Serif" font-size="10.00" fill="grey">&lt; ProfiledCallGraphNode * &gt;</text>
</g>
</g>
</svg>
