<?xml version="1.0" encoding="UTF-8" standalone="no"?>
<!DOCTYPE svg PUBLIC "-//W3C//DTD SVG 1.1//EN"
 "http://www.w3.org/Graphics/SVG/1.1/DTD/svg11.dtd">
<!-- Generated by graphviz version 14.1.3 (20260303.0454)
 -->
<!-- Title: llvm::AANoCapture Pages: 1 -->
<svg width="1597pt" height="282pt"
 viewBox="0.00 0.00 1597.00 282.00" xmlns="http://www.w3.org/2000/svg" xmlns:xlink="http://www.w3.org/1999/xlink">
<g id="graph0" class="graph" transform="scale(1 1) rotate(0) translate(4 277.94)">
<title>llvm::AANoCapture</title>
<!-- Node1 -->
<g id="Node000001" class="node">
<title>Node1</title>
<g id="a_Node000001"><a xlink:title="An abstract interface for all nocapture attributes.">
<polygon fill="#999999" stroke="#666666" points="1588.5,-57.88 1487.75,-57.88 1487.75,-38.62 1588.5,-38.62 1588.5,-57.88"/>
<text xml:space="preserve" text-anchor="middle" x="1538.12" y="-44.38" font-family="Helvetica,sans-Serif" font-size="10.00">llvm::AANoCapture</text>
</a>
</g>
</g>
<!-- Node2 -->
<g id="Node000002" class="node">
<title>Node2</title>
<g id="a_Node000002"><a xlink:href="structllvm_1_1IRAttribute.html" target="_top" xlink:title=" ">
<polygon fill="white" stroke="#666666" points="1450.75,-80.38 1281,-80.38 1281,-16.12 1450.75,-16.12 1450.75,-80.38"/>
<text xml:space="preserve" text-anchor="start" x="1289" y="-66.88" font-family="Helvetica,sans-Serif" font-size="10.00">llvm::IRAttribute&lt;</text>
<text xml:space="preserve" text-anchor="start" x="1289" y="-55.62" font-family="Helvetica,sans-Serif" font-size="10.00"> Attribute::Captures,</text>
<text xml:space="preserve" text-anchor="start" x="1289" y="-44.38" font-family="Helvetica,sans-Serif" font-size="10.00"> StateWrapper&lt; BitIntegerState</text>
<text xml:space="preserve" text-anchor="start" x="1289" y="-33.12" font-family="Helvetica,sans-Serif" font-size="10.00">&lt; uint16_t, 7, 0 &gt;, AbstractAttribute</text>
<text xml:space="preserve" text-anchor="middle" x="1365.88" y="-21.88" font-family="Helvetica,sans-Serif" font-size="10.00"> &gt;, AANoCapture &gt;</text>
</a>
</g>
</g>
<!-- Node2&#45;&gt;Node1 -->
<g id="edge1_Node000001_Node000002" class="edge">
<title>Node2&#45;&gt;Node1</title>
<g id="a_edge1_Node000001_Node000002"><a xlink:title=" ">
<path fill="none" stroke="#63b8ff" d="M1462.47,-48.25C1471.14,-48.25 1479.68,-48.25 1487.69,-48.25"/>
<polygon fill="#63b8ff" stroke="#63b8ff" points="1462.52,-44.75 1452.52,-48.25 1462.52,-51.75 1462.52,-44.75"/>
</a>
</g>
</g>
<!-- Node3 -->
<g id="Node000003" class="node">
<title>Node3</title>
<g id="a_Node000003"><a xlink:href="structllvm_1_1StateWrapper.html" target="_top" xlink:title=" ">
<polygon fill="white" stroke="#666666" points="1232.88,-140.12 1089.38,-140.12 1089.38,-98.38 1232.88,-98.38 1232.88,-140.12"/>
<text xml:space="preserve" text-anchor="start" x="1097.38" y="-126.62" font-family="Helvetica,sans-Serif" font-size="10.00">llvm::StateWrapper</text>
<text xml:space="preserve" text-anchor="start" x="1097.38" y="-115.38" font-family="Helvetica,sans-Serif" font-size="10.00">&lt; BitIntegerState&lt; uint16</text>
<text xml:space="preserve" text-anchor="middle" x="1161.12" y="-104.12" font-family="Helvetica,sans-Serif" font-size="10.00">_t, 7, 0 &gt;, AbstractAttribute &gt;</text>
</a>
</g>
</g>
<!-- Node3&#45;&gt;Node2 -->
<g id="edge2_Node000002_Node000003" class="edge">
<title>Node3&#45;&gt;Node2</title>
<g id="a_edge2_Node000002_Node000003"><a xlink:title=" ">
<path fill="none" stroke="#63b8ff" d="M1233.39,-94.29C1248.73,-88.92 1265.07,-83.2 1280.84,-77.68"/>
<polygon fill="#63b8ff" stroke="#63b8ff" points="1232.67,-90.84 1224.39,-97.45 1234.98,-97.45 1232.67,-90.84"/>
</a>
</g>
</g>
<!-- Node4 -->
<g id="Node000004" class="node">
<title>Node4</title>
<g id="a_Node000004"><a xlink:href="structllvm_1_1AbstractAttribute.html" target="_top" xlink:title="Base struct for all &quot;concrete attribute&quot; deductions.">
<polygon fill="white" stroke="#666666" points="904.38,-129.88 790.88,-129.88 790.88,-110.62 904.38,-110.62 904.38,-129.88"/>
<text xml:space="preserve" text-anchor="middle" x="847.62" y="-116.38" font-family="Helvetica,sans-Serif" font-size="10.00">llvm::AbstractAttribute</text>
</a>
</g>
</g>
<!-- Node4&#45;&gt;Node3 -->
<g id="edge3_Node000003_Node000004" class="edge">
<title>Node4&#45;&gt;Node3</title>
<g id="a_edge3_Node000003_Node000004"><a xlink:title=" ">
<path fill="none" stroke="#63b8ff" d="M915.91,-120.03C966.95,-119.87 1036.95,-119.65 1088.92,-119.48"/>
<polygon fill="#63b8ff" stroke="#63b8ff" points="916.18,-116.53 906.19,-120.07 916.2,-123.53 916.18,-116.53"/>
</a>
</g>
</g>
<!-- Node5 -->
<g id="Node000005" class="node">
<title>Node5</title>
<g id="a_Node000005"><a xlink:href="structllvm_1_1IRPosition.html" target="_top" xlink:title="Helper to describe and deal with positions in the LLVM&#45;IR.">
<polygon fill="white" stroke="#666666" points="646.88,-143.88 561.12,-143.88 561.12,-124.62 646.88,-124.62 646.88,-143.88"/>
<text xml:space="preserve" text-anchor="middle" x="604" y="-130.38" font-family="Helvetica,sans-Serif" font-size="10.00">llvm::IRPosition</text>
</a>
</g>
</g>
<!-- Node5&#45;&gt;Node4 -->
<g id="edge4_Node000004_Node000005" class="edge">
<title>Node5&#45;&gt;Node4</title>
<g id="a_edge4_Node000004_Node000005"><a xlink:title=" ">
<path fill="none" stroke="#63b8ff" d="M658.8,-131.13C698,-128.86 750.96,-125.79 790.66,-123.49"/>
<polygon fill="#63b8ff" stroke="#63b8ff" points="658.66,-127.64 648.88,-131.71 659.06,-134.62 658.66,-127.64"/>
</a>
</g>
</g>
<!-- Node6 -->
<g id="Node000006" class="node">
<title>Node6</title>
<g id="a_Node000006"><a xlink:href="structllvm_1_1AADepGraphNode.html" target="_top" xlink:title="}">
<polygon fill="white" stroke="#666666" points="664.5,-106.88 543.5,-106.88 543.5,-87.62 664.5,-87.62 664.5,-106.88"/>
<text xml:space="preserve" text-anchor="middle" x="604" y="-93.38" font-family="Helvetica,sans-Serif" font-size="10.00">llvm::AADepGraphNode</text>
</a>
</g>
</g>
<!-- Node6&#45;&gt;Node4 -->
<g id="edge5_Node000004_Node000006" class="edge">
<title>Node6&#45;&gt;Node4</title>
<g id="a_edge5_Node000004_Node000006"><a xlink:title=" ">
<path fill="none" stroke="#63b8ff" d="M675.81,-103.99C712.36,-107.47 756.32,-111.65 790.49,-114.91"/>
<polygon fill="#63b8ff" stroke="#63b8ff" points="676.52,-100.54 666.23,-103.08 675.86,-107.51 676.52,-100.54"/>
</a>
</g>
</g>
<!-- Node7 -->
<g id="Node000007" class="node">
<title>Node7</title>
<g id="a_Node000007"><a xlink:href="structllvm_1_1BitIntegerState.html" target="_top" xlink:title=" ">
<polygon fill="white" stroke="#666666" points="900.25,-198.5 795,-198.5 795,-168 900.25,-168 900.25,-198.5"/>
<text xml:space="preserve" text-anchor="start" x="803" y="-185" font-family="Helvetica,sans-Serif" font-size="10.00">llvm::BitIntegerState</text>
<text xml:space="preserve" text-anchor="middle" x="847.62" y="-173.75" font-family="Helvetica,sans-Serif" font-size="10.00">&lt; uint16_t, 7, 0 &gt;</text>
</a>
</g>
</g>
<!-- Node7&#45;&gt;Node3 -->
<g id="edge6_Node000003_Node000007" class="edge">
<title>Node7&#45;&gt;Node3</title>
<g id="a_edge6_Node000003_Node000007"><a xlink:title=" ">
<path fill="none" stroke="#63b8ff" d="M911.68,-170.29C963.04,-159.74 1035.53,-144.85 1088.96,-133.87"/>
<polygon fill="#63b8ff" stroke="#63b8ff" points="910.99,-166.86 901.9,-172.31 912.39,-173.72 910.99,-166.86"/>
</a>
</g>
</g>
<!-- Node8 -->
<g id="Node000008" class="node">
<title>Node8</title>
<g id="a_Node000008"><a xlink:href="structllvm_1_1IntegerStateBase.html" target="_top" xlink:title=" ">
<polygon fill="white" stroke="#666666" points="506.5,-260.12 390.75,-260.12 390.75,-218.38 506.5,-218.38 506.5,-260.12"/>
<text xml:space="preserve" text-anchor="start" x="398.75" y="-246.62" font-family="Helvetica,sans-Serif" font-size="10.00">llvm::IntegerStateBase</text>
<text xml:space="preserve" text-anchor="start" x="398.75" y="-235.38" font-family="Helvetica,sans-Serif" font-size="10.00">&lt; uint16_t, BestState,</text>
<text xml:space="preserve" text-anchor="middle" x="448.62" y="-224.12" font-family="Helvetica,sans-Serif" font-size="10.00"> WorstState &gt;</text>
</a>
</g>
</g>
<!-- Node8&#45;&gt;Node7 -->
<g id="edge7_Node000007_Node000008" class="edge">
<title>Node8&#45;&gt;Node7</title>
<g id="a_edge7_Node000007_Node000008"><a xlink:title=" ">
<path fill="none" stroke="#63b8ff" d="M518.08,-234.32C581.92,-229.09 679.65,-219.44 763.5,-204.25 773.61,-202.42 784.3,-200.05 794.54,-197.56"/>
<polygon fill="#63b8ff" stroke="#63b8ff" points="518.15,-230.81 508.46,-235.1 518.71,-237.78 518.15,-230.81"/>
</a>
</g>
</g>
<!-- Node9 -->
<g id="Node000009" class="node">
<title>Node9</title>
<g id="a_Node000009"><a xlink:href="structllvm_1_1AbstractState.html" target="_top" xlink:title="An interface to query the internal state of an abstract attribute.">
<polygon fill="white" stroke="#666666" points="100,-225.88 0,-225.88 0,-206.62 100,-206.62 100,-225.88"/>
<text xml:space="preserve" text-anchor="middle" x="50" y="-212.38" font-family="Helvetica,sans-Serif" font-size="10.00">llvm::AbstractState</text>
</a>
</g>
</g>
<!-- Node9&#45;&gt;Node8 -->
<g id="edge8_Node000008_Node000009" class="edge">
<title>Node9&#45;&gt;Node8</title>
<g id="a_edge8_Node000008_Node000009"><a xlink:title=" ">
<path fill="none" stroke="#63b8ff" d="M87.25,-230.28C146.93,-251.55 269.55,-287.54 372.75,-268.25 381.93,-266.53 391.43,-263.73 400.46,-260.52"/>
<polygon fill="#63b8ff" stroke="#63b8ff" points="88.53,-227.02 77.94,-226.89 86.14,-233.6 88.53,-227.02"/>
</a>
</g>
</g>
<!-- Node10 -->
<g id="Node000010" class="node">
<title>Node10</title>
<g id="a_Node000010"><a xlink:href="structllvm_1_1IntegerStateBase.html" target="_top" xlink:title="Simple state with integers encoding.">
<polygon fill="white" stroke="#666666" points="252.75,-237.12 137,-237.12 137,-195.38 252.75,-195.38 252.75,-237.12"/>
<text xml:space="preserve" text-anchor="start" x="145" y="-223.62" font-family="Helvetica,sans-Serif" font-size="10.00">llvm::IntegerStateBase</text>
<text xml:space="preserve" text-anchor="start" x="145" y="-212.38" font-family="Helvetica,sans-Serif" font-size="10.00">&lt; base_ty, BestState,</text>
<text xml:space="preserve" text-anchor="middle" x="194.88" y="-201.12" font-family="Helvetica,sans-Serif" font-size="10.00"> WorstState &gt;</text>
</a>
</g>
</g>
<!-- Node9&#45;&gt;Node10 -->
<g id="edge10_Node000010_Node000009" class="edge">
<title>Node9&#45;&gt;Node10</title>
<g id="a_edge10_Node000010_Node000009"><a xlink:title=" ">
<path fill="none" stroke="#63b8ff" d="M111.44,-216.25C119.83,-216.25 128.42,-216.25 136.75,-216.25"/>
<polygon fill="#63b8ff" stroke="#63b8ff" points="111.68,-212.75 101.68,-216.25 111.68,-219.75 111.68,-212.75"/>
</a>
</g>
</g>
<!-- Node12 -->
<g id="Node000012" class="node">
<title>Node12</title>
<g id="a_Node000012"><a xlink:href="structllvm_1_1IntegerStateBase.html" target="_top" xlink:title=" ">
<polygon fill="white" stroke="#666666" points="506.5,-200.12 390.75,-200.12 390.75,-158.38 506.5,-158.38 506.5,-200.12"/>
<text xml:space="preserve" text-anchor="start" x="398.75" y="-186.62" font-family="Helvetica,sans-Serif" font-size="10.00">llvm::IntegerStateBase</text>
<text xml:space="preserve" text-anchor="start" x="398.75" y="-175.38" font-family="Helvetica,sans-Serif" font-size="10.00">&lt; uint32_t, ~uint32_t</text>
<text xml:space="preserve" text-anchor="middle" x="448.62" y="-164.12" font-family="Helvetica,sans-Serif" font-size="10.00">(0), 0 &gt;</text>
</a>
</g>
</g>
<!-- Node9&#45;&gt;Node12 -->
<g id="edge13_Node000012_Node000009" class="edge">
<title>Node9&#45;&gt;Node12</title>
<g id="a_edge13_Node000012_Node000009"><a xlink:title=" ">
<path fill="none" stroke="#63b8ff" d="M85.66,-202.04C101.13,-196.25 119.73,-190.05 137,-186.25 223.8,-167.18 327.53,-169.76 390.45,-174.02"/>
<polygon fill="#63b8ff" stroke="#63b8ff" points="84.51,-198.73 76.43,-205.59 87.02,-205.26 84.51,-198.73"/>
</a>
</g>
</g>
<!-- Node10&#45;&gt;Node8 -->
<g id="edge9_Node000008_Node000010" class="edge">
<title>Node10&#45;&gt;Node8</title>
<g id="a_edge9_Node000008_Node000010"><a xlink:title=" ">
<path fill="none" stroke="orange" stroke-dasharray="5,2" d="M264.39,-222.51C303.85,-226.11 352.88,-230.59 390.29,-234.01"/>
<polygon fill="orange" stroke="orange" points="264.79,-219.03 254.51,-221.61 264.15,-226 264.79,-219.03"/>
</a>
</g>
<text xml:space="preserve" text-anchor="start" x="273.75" y="-253.06" font-family="Helvetica,sans-Serif" font-size="10.00" fill="grey">&lt; uint16_t, BestState,</text>
<text xml:space="preserve" text-anchor="start" x="273.75" y="-237.81" font-family="Helvetica,sans-Serif" font-size="10.00" fill="grey">   WorstState &gt;</text>
</g>
<!-- Node10&#45;&gt;Node12 -->
<g id="edge14_Node000012_Node000010" class="edge">
<title>Node10&#45;&gt;Node12</title>
<g id="a_edge14_Node000012_Node000010"><a xlink:title=" ">
<path fill="none" stroke="orange" stroke-dasharray="5,2" d="M253.82,-191.27C259.46,-189.49 265.17,-187.93 270.75,-186.75 310.14,-178.4 355.53,-176.63 390.47,-176.9"/>
<polygon fill="orange" stroke="orange" points="252.84,-187.9 244.51,-194.44 255.1,-194.53 252.84,-187.9"/>
</a>
</g>
<text xml:space="preserve" text-anchor="start" x="280.88" y="-208" font-family="Helvetica,sans-Serif" font-size="10.00" fill="grey">&lt; uint32_t, ~uint32</text>
<text xml:space="preserve" text-anchor="start" x="280.88" y="-192.75" font-family="Helvetica,sans-Serif" font-size="10.00" fill="grey">  _t(0), 0 &gt;</text>
</g>
<!-- Node11 -->
<g id="Node000011" class="node">
<title>Node11</title>
<g id="a_Node000011"><a xlink:href="structllvm_1_1BitIntegerState.html" target="_top" xlink:title="Specialization of the integer state for a bit&#45;wise encoding.">
<polygon fill="white" stroke="#666666" points="659.25,-204.12 548.75,-204.12 548.75,-162.38 659.25,-162.38 659.25,-204.12"/>
<text xml:space="preserve" text-anchor="start" x="556.75" y="-190.62" font-family="Helvetica,sans-Serif" font-size="10.00">llvm::BitIntegerState</text>
<text xml:space="preserve" text-anchor="start" x="556.75" y="-179.38" font-family="Helvetica,sans-Serif" font-size="10.00">&lt; base_ty, BestState,</text>
<text xml:space="preserve" text-anchor="middle" x="604" y="-168.12" font-family="Helvetica,sans-Serif" font-size="10.00"> WorstState &gt;</text>
</a>
</g>
</g>
<!-- Node11&#45;&gt;Node7 -->
<g id="edge11_Node000007_Node000011" class="edge">
<title>Node11&#45;&gt;Node7</title>
<g id="a_edge11_Node000007_Node000011"><a xlink:title=" ">
<path fill="none" stroke="orange" stroke-dasharray="5,2" d="M671.02,-183.25C709.98,-183.25 758.59,-183.25 794.78,-183.25"/>
<polygon fill="orange" stroke="orange" points="671.04,-179.75 661.04,-183.25 671.04,-186.75 671.04,-179.75"/>
</a>
</g>
<text xml:space="preserve" text-anchor="start" x="685.5" y="-189.25" font-family="Helvetica,sans-Serif" font-size="10.00" fill="grey">&lt; uint16_t, 7, 0 &gt;</text>
</g>
<!-- Node12&#45;&gt;Node11 -->
<g id="edge12_Node000011_Node000012" class="edge">
<title>Node12&#45;&gt;Node11</title>
<g id="a_edge12_Node000011_Node000012"><a xlink:title=" ">
<path fill="none" stroke="#63b8ff" d="M518.07,-181.04C528.22,-181.3 538.57,-181.57 548.39,-181.83"/>
<polygon fill="#63b8ff" stroke="#63b8ff" points="518.34,-177.54 508.25,-180.78 518.15,-184.54 518.34,-177.54"/>
</a>
</g>
</g>
<!-- Node13 -->
<g id="Node000013" class="node">
<title>Node13</title>
<g id="a_Node000013"><a xlink:href="structllvm_1_1StateWrapper.html" target="_top" xlink:title="Helper to tie a abstract state implementation to an abstract attribute.">
<polygon fill="white" stroke="#666666" points="913.75,-72.5 781.5,-72.5 781.5,-42 913.75,-42 913.75,-72.5"/>
<text xml:space="preserve" text-anchor="start" x="789.5" y="-59" font-family="Helvetica,sans-Serif" font-size="10.00">llvm::StateWrapper</text>
<text xml:space="preserve" text-anchor="middle" x="847.62" y="-47.75" font-family="Helvetica,sans-Serif" font-size="10.00">&lt; StateTy, BaseType, Ts &gt;</text>
</a>
</g>
</g>
<!-- Node13&#45;&gt;Node3 -->
<g id="edge15_Node000003_Node000013" class="edge">
<title>Node13&#45;&gt;Node3</title>
<g id="a_edge15_Node000003_Node000013"><a xlink:title=" ">
<path fill="none" stroke="orange" stroke-dasharray="5,2" d="M925.35,-49.01C966.72,-47.48 1017.85,-50.39 1060.25,-67.5 1070.11,-71.48 1069.28,-77.54 1078.25,-83.25 1086.64,-88.58 1095.94,-93.5 1105.19,-97.88"/>
<polygon fill="orange" stroke="orange" points="925.29,-45.51 915.46,-49.48 925.62,-52.5 925.29,-45.51"/>
</a>
</g>
<text xml:space="preserve" text-anchor="start" x="937.5" y="-104" font-family="Helvetica,sans-Serif" font-size="10.00" fill="grey">&lt; BitIntegerState&lt;</text>
<text xml:space="preserve" text-anchor="start" x="937.5" y="-88.75" font-family="Helvetica,sans-Serif" font-size="10.00" fill="grey">   uint16_t, 7, 0 &gt;, Abstract</text>
<text xml:space="preserve" text-anchor="start" x="937.5" y="-73.5" font-family="Helvetica,sans-Serif" font-size="10.00" fill="grey">  Attribute &gt;</text>
</g>
<!-- Node14 -->
<g id="Node000014" class="node">
<title>Node14</title>
<g id="a_Node000014"><a xlink:href="classBaseType.html" target="_top" xlink:title=" ">
<polygon fill="white" stroke="#666666" points="633.75,-26.88 574.25,-26.88 574.25,-7.62 633.75,-7.62 633.75,-26.88"/>
<text xml:space="preserve" text-anchor="middle" x="604" y="-13.38" font-family="Helvetica,sans-Serif" font-size="10.00">BaseType</text>
</a>
</g>
</g>
<!-- Node14&#45;&gt;Node13 -->
<g id="edge16_Node000013_Node000014" class="edge">
<title>Node14&#45;&gt;Node13</title>
<g id="a_edge16_Node000013_Node000014"><a xlink:title=" ">
<path fill="none" stroke="#63b8ff" d="M645.5,-23.95C682.59,-30.09 738.13,-39.29 781.46,-46.46"/>
<polygon fill="#63b8ff" stroke="#63b8ff" points="646.08,-20.5 635.64,-22.32 644.93,-27.41 646.08,-20.5"/>
</a>
</g>
</g>
<!-- Node16 -->
<g id="Node000016" class="node">
<title>Node16</title>
<g id="a_Node000016"><a xlink:href="structllvm_1_1IRAttribute.html" target="_top" xlink:title="Helper class that provides common functionality to manifest IR attributes.">
<polygon fill="white" stroke="#666666" points="1060.25,-30.5 931.75,-30.5 931.75,0 1060.25,0 1060.25,-30.5"/>
<text xml:space="preserve" text-anchor="start" x="939.75" y="-17" font-family="Helvetica,sans-Serif" font-size="10.00">llvm::IRAttribute&lt;</text>
<text xml:space="preserve" text-anchor="middle" x="996" y="-5.75" font-family="Helvetica,sans-Serif" font-size="10.00"> AK, BaseType, AAType &gt;</text>
</a>
</g>
</g>
<!-- Node14&#45;&gt;Node16 -->
<g id="edge19_Node000016_Node000014" class="edge">
<title>Node14&#45;&gt;Node16</title>
<g id="a_edge19_Node000016_Node000014"><a xlink:title=" ">
<path fill="none" stroke="#63b8ff" d="M645.43,-17.04C713.25,-16.69 850.42,-15.99 931.3,-15.58"/>
<polygon fill="#63b8ff" stroke="#63b8ff" points="645.49,-13.54 635.51,-17.09 645.53,-20.54 645.49,-13.54"/>
</a>
</g>
</g>
<!-- Node15 -->
<g id="Node000015" class="node">
<title>Node15</title>
<g id="a_Node000015"><a xlink:href="classStateTy.html" target="_top" xlink:title=" ">
<polygon fill="white" stroke="#666666" points="628.88,-69.88 579.12,-69.88 579.12,-50.62 628.88,-50.62 628.88,-69.88"/>
<text xml:space="preserve" text-anchor="middle" x="604" y="-56.38" font-family="Helvetica,sans-Serif" font-size="10.00">StateTy</text>
</a>
</g>
</g>
<!-- Node15&#45;&gt;Node13 -->
<g id="edge17_Node000013_Node000015" class="edge">
<title>Node15&#45;&gt;Node13</title>
<g id="a_edge17_Node000013_Node000015"><a xlink:title=" ">
<path fill="none" stroke="#63b8ff" d="M640.21,-59.81C677.08,-59.36 735.82,-58.63 781.23,-58.06"/>
<polygon fill="#63b8ff" stroke="#63b8ff" points="640.52,-56.31 630.56,-59.93 640.61,-63.31 640.52,-56.31"/>
</a>
</g>
</g>
<!-- Node16&#45;&gt;Node2 -->
<g id="edge18_Node000002_Node000016" class="edge">
<title>Node16&#45;&gt;Node2</title>
<g id="a_edge18_Node000002_Node000016"><a xlink:title=" ">
<path fill="none" stroke="orange" stroke-dasharray="5,2" d="M1072.11,-15.96C1121.17,-17.07 1186.54,-19.77 1244,-26.25 1255.87,-27.59 1268.33,-29.39 1280.56,-31.4"/>
<polygon fill="orange" stroke="orange" points="1072.23,-12.46 1062.15,-15.75 1072.08,-19.46 1072.23,-12.46"/>
</a>
</g>
<text xml:space="preserve" text-anchor="start" x="1081.25" y="-78" font-family="Helvetica,sans-Serif" font-size="10.00" fill="grey">&lt; Attribute::Captures,</text>
<text xml:space="preserve" text-anchor="start" x="1081.25" y="-62.75" font-family="Helvetica,sans-Serif" font-size="10.00" fill="grey">   StateWrapper&lt; BitIntegerState</text>
<text xml:space="preserve" text-anchor="start" x="1081.25" y="-47.5" font-family="Helvetica,sans-Serif" font-size="10.00" fill="grey">  &lt; uint16_t, 7, 0 &gt;, AbstractAttribute</text>
<text xml:space="preserve" text-anchor="start" x="1081.25" y="-32.25" font-family="Helvetica,sans-Serif" font-size="10.00" fill="grey">   &gt;, AANoCapture &gt;</text>
</g>
</g>
</svg>
