<?xml version="1.0" encoding="UTF-8" standalone="no"?>
<!DOCTYPE svg PUBLIC "-//W3C//DTD SVG 1.1//EN"
 "http://www.w3.org/Graphics/SVG/1.1/DTD/svg11.dtd">
<!-- Generated by graphviz version 14.1.3 (20260303.0454)
 -->
<!-- Title: llvm::rdf::RefNode Pages: 1 -->
<svg width="228pt" height="193pt"
 viewBox="0.00 0.00 228.00 193.00" xmlns="http://www.w3.org/2000/svg" xmlns:xlink="http://www.w3.org/1999/xlink">
<g id="graph0" class="graph" transform="scale(1 1) rotate(0) translate(4 189)">
<title>llvm::rdf::RefNode</title>
<!-- Node1 -->
<g id="Node000001" class="node">
<title>Node1</title>
<g id="a_Node000001"><a xlink:title=" ">
<polygon fill="#999999" stroke="#666666" points="153.25,-129.75 57,-129.75 57,-110.5 153.25,-110.5 153.25,-129.75"/>
<text xml:space="preserve" text-anchor="middle" x="105.12" y="-116.25" font-family="Helvetica,sans-Serif" font-size="10.00">llvm::rdf::RefNode</text>
</a>
</g>
</g>
<!-- Node3 -->
<g id="Node000003" class="node">
<title>Node3</title>
<g id="a_Node000003"><a xlink:href="structllvm_1_1rdf_1_1DefNode.html" target="_top" xlink:title=" ">
<polygon fill="white" stroke="#666666" points="96.25,-74.5 0,-74.5 0,-55.25 96.25,-55.25 96.25,-74.5"/>
<text xml:space="preserve" text-anchor="middle" x="48.12" y="-61" font-family="Helvetica,sans-Serif" font-size="10.00">llvm::rdf::DefNode</text>
</a>
</g>
</g>
<!-- Node1&#45;&gt;Node3 -->
<g id="edge2_Node000001_Node000003" class="edge">
<title>Node1&#45;&gt;Node3</title>
<g id="a_edge2_Node000001_Node000003"><a xlink:title=" ">
<path fill="none" stroke="#63b8ff" d="M87.18,-102.36C77.39,-93.22 65.68,-82.28 57.65,-74.77"/>
<polygon fill="#63b8ff" stroke="#63b8ff" points="84.65,-104.79 94.35,-109.06 89.43,-99.67 84.65,-104.79"/>
</a>
</g>
</g>
<!-- Node4 -->
<g id="Node000004" class="node">
<title>Node4</title>
<g id="a_Node000004"><a xlink:href="structllvm_1_1rdf_1_1UseNode.html" target="_top" xlink:title=" ">
<polygon fill="white" stroke="#666666" points="212.38,-74.5 113.88,-74.5 113.88,-55.25 212.38,-55.25 212.38,-74.5"/>
<text xml:space="preserve" text-anchor="middle" x="163.12" y="-61" font-family="Helvetica,sans-Serif" font-size="10.00">llvm::rdf::UseNode</text>
</a>
</g>
</g>
<!-- Node1&#45;&gt;Node4 -->
<g id="edge3_Node000001_Node000004" class="edge">
<title>Node1&#45;&gt;Node4</title>
<g id="a_edge3_Node000001_Node000004"><a xlink:title=" ">
<path fill="none" stroke="#63b8ff" d="M123.39,-102.36C133.34,-93.22 145.26,-82.28 153.43,-74.77"/>
<polygon fill="#63b8ff" stroke="#63b8ff" points="121.08,-99.73 116.08,-109.07 125.81,-104.88 121.08,-99.73"/>
</a>
</g>
</g>
<!-- Node2 -->
<g id="Node000002" class="node">
<title>Node2</title>
<g id="a_Node000002"><a xlink:href="structllvm_1_1rdf_1_1NodeBase.html" target="_top" xlink:title=" ">
<polygon fill="white" stroke="#666666" points="156.62,-185 53.62,-185 53.62,-165.75 156.62,-165.75 156.62,-185"/>
<text xml:space="preserve" text-anchor="middle" x="105.12" y="-171.5" font-family="Helvetica,sans-Serif" font-size="10.00">llvm::rdf::NodeBase</text>
</a>
</g>
</g>
<!-- Node2&#45;&gt;Node1 -->
<g id="edge1_Node000001_Node000002" class="edge">
<title>Node2&#45;&gt;Node1</title>
<g id="a_edge1_Node000001_Node000002"><a xlink:title=" ">
<path fill="none" stroke="#63b8ff" d="M105.12,-154.13C105.12,-145.84 105.12,-136.67 105.12,-130.11"/>
<polygon fill="#63b8ff" stroke="#63b8ff" points="101.63,-154.07 105.13,-164.07 108.63,-154.07 101.63,-154.07"/>
</a>
</g>
</g>
<!-- Node5 -->
<g id="Node000005" class="node">
<title>Node5</title>
<g id="a_Node000005"><a xlink:href="structllvm_1_1rdf_1_1PhiUseNode.html" target="_top" xlink:title=" ">
<polygon fill="white" stroke="#666666" points="219.5,-19.25 106.75,-19.25 106.75,0 219.5,0 219.5,-19.25"/>
<text xml:space="preserve" text-anchor="middle" x="163.12" y="-5.75" font-family="Helvetica,sans-Serif" font-size="10.00">llvm::rdf::PhiUseNode</text>
</a>
</g>
</g>
<!-- Node4&#45;&gt;Node5 -->
<g id="edge4_Node000004_Node000005" class="edge">
<title>Node4&#45;&gt;Node5</title>
<g id="a_edge4_Node000004_Node000005"><a xlink:title=" ">
<path fill="none" stroke="#63b8ff" d="M163.12,-43.63C163.12,-35.34 163.12,-26.17 163.12,-19.61"/>
<polygon fill="#63b8ff" stroke="#63b8ff" points="159.63,-43.57 163.13,-53.57 166.63,-43.57 159.63,-43.57"/>
</a>
</g>
</g>
</g>
</svg>
