<?xml version="1.0" encoding="UTF-8" standalone="no"?>
<!DOCTYPE svg PUBLIC "-//W3C//DTD SVG 1.1//EN"
 "http://www.w3.org/Graphics/SVG/1.1/DTD/svg11.dtd">
<!-- Generated by graphviz version 14.1.3 (20260303.0454)
 -->
<!-- Title: llvm::DomOnlyPrinter Pages: 1 -->
<svg width="741pt" height="98pt"
 viewBox="0.00 0.00 741.00 98.00" xmlns="http://www.w3.org/2000/svg" xmlns:xlink="http://www.w3.org/1999/xlink">
<g id="graph0" class="graph" transform="scale(1 1) rotate(0) translate(4 94.12)">
<title>llvm::DomOnlyPrinter</title>
<!-- Node1 -->
<g id="Node000001" class="node">
<title>Node1</title>
<g id="a_Node000001"><a xlink:title=" ">
<polygon fill="#999999" stroke="#666666" points="732.75,-57.5 623,-57.5 623,-38.25 732.75,-38.25 732.75,-57.5"/>
<text xml:space="preserve" text-anchor="middle" x="677.88" y="-44" font-family="Helvetica,sans-Serif" font-size="10.00">llvm::DomOnlyPrinter</text>
</a>
</g>
</g>
<!-- Node2 -->
<g id="Node000002" class="node">
<title>Node2</title>
<g id="a_Node000002"><a xlink:href="structllvm_1_1DOTGraphTraitsPrinter.html" target="_top" xlink:title=" ">
<polygon fill="white" stroke="#666666" points="586,-68.75 445.5,-68.75 445.5,-27 586,-27 586,-68.75"/>
<text xml:space="preserve" text-anchor="start" x="453.5" y="-55.25" font-family="Helvetica,sans-Serif" font-size="10.00">llvm::DOTGraphTraitsPrinter</text>
<text xml:space="preserve" text-anchor="start" x="453.5" y="-44" font-family="Helvetica,sans-Serif" font-size="10.00">&lt; DominatorTreeAnalysis,</text>
<text xml:space="preserve" text-anchor="middle" x="515.75" y="-32.75" font-family="Helvetica,sans-Serif" font-size="10.00"> true &gt;</text>
</a>
</g>
</g>
<!-- Node2&#45;&gt;Node1 -->
<g id="edge1_Node000001_Node000002" class="edge">
<title>Node2&#45;&gt;Node1</title>
<g id="a_edge1_Node000001_Node000002"><a xlink:title=" ">
<path fill="none" stroke="#63b8ff" d="M597.39,-47.88C606.04,-47.88 614.69,-47.88 622.91,-47.88"/>
<polygon fill="#63b8ff" stroke="#63b8ff" points="597.57,-44.38 587.57,-47.88 597.57,-51.38 597.57,-44.38"/>
</a>
</g>
</g>
<!-- Node3 -->
<g id="Node000003" class="node">
<title>Node3</title>
<g id="a_Node000003"><a xlink:href="structllvm_1_1PassInfoMixin.html" target="_top" xlink:title="A CRTP mix&#45;in to automatically provide informational APIs needed for passes.">
<polygon fill="white" stroke="#666666" points="265.5,-90.12 163.25,-90.12 163.25,-59.62 265.5,-59.62 265.5,-90.12"/>
<text xml:space="preserve" text-anchor="start" x="171.25" y="-76.62" font-family="Helvetica,sans-Serif" font-size="10.00">llvm::PassInfoMixin</text>
<text xml:space="preserve" text-anchor="middle" x="214.38" y="-65.38" font-family="Helvetica,sans-Serif" font-size="10.00">&lt; DerivedT &gt;</text>
</a>
</g>
</g>
<!-- Node3&#45;&gt;Node2 -->
<g id="edge2_Node000002_Node000003" class="edge">
<title>Node3&#45;&gt;Node2</title>
<g id="a_edge2_Node000002_Node000003"><a xlink:title=" ">
<path fill="none" stroke="#63b8ff" d="M276.88,-72.15C319.29,-69.95 376.91,-66.3 427.5,-60.88 433.29,-60.25 439.28,-59.53 445.28,-58.75"/>
<polygon fill="#63b8ff" stroke="#63b8ff" points="276.94,-68.64 267.13,-72.64 277.3,-75.63 276.94,-68.64"/>
</a>
</g>
</g>
<!-- Node4 -->
<g id="Node000004" class="node">
<title>Node4</title>
<g id="a_Node000004"><a xlink:href="structllvm_1_1DOTGraphTraitsPrinter.html" target="_top" xlink:title=" ">
<polygon fill="white" stroke="#666666" points="289.5,-41.75 139.25,-41.75 139.25,0 289.5,0 289.5,-41.75"/>
<text xml:space="preserve" text-anchor="start" x="147.25" y="-28.25" font-family="Helvetica,sans-Serif" font-size="10.00">llvm::DOTGraphTraitsPrinter</text>
<text xml:space="preserve" text-anchor="start" x="147.25" y="-17" font-family="Helvetica,sans-Serif" font-size="10.00">&lt; AnalysisT, IsSimple, GraphT,</text>
<text xml:space="preserve" text-anchor="middle" x="214.38" y="-5.75" font-family="Helvetica,sans-Serif" font-size="10.00"> AnalysisGraphTraitsT &gt;</text>
</a>
</g>
</g>
<!-- Node4&#45;&gt;Node2 -->
<g id="edge3_Node000002_Node000004" class="edge">
<title>Node4&#45;&gt;Node2</title>
<g id="a_edge3_Node000002_Node000004"><a xlink:title=" ">
<path fill="none" stroke="orange" stroke-dasharray="5,2" d="M301.09,-17.5C339.87,-17.21 386.17,-18.56 427.5,-24.38 433.25,-25.18 439.16,-26.25 445.06,-27.48"/>
<polygon fill="orange" stroke="orange" points="301.31,-14 291.36,-17.62 301.4,-21 301.31,-14"/>
</a>
</g>
<text xml:space="preserve" text-anchor="start" x="310.5" y="-45.62" font-family="Helvetica,sans-Serif" font-size="10.00" fill="grey">&lt; DominatorTreeAnalysis,</text>
<text xml:space="preserve" text-anchor="start" x="310.5" y="-30.38" font-family="Helvetica,sans-Serif" font-size="10.00" fill="grey">   true &gt;</text>
</g>
<!-- Node5 -->
<g id="Node000005" class="node">
<title>Node5</title>
<g id="a_Node000005"><a xlink:href="structllvm_1_1PassInfoMixin.html" target="_top" xlink:title="A CRTP mix&#45;in to automatically provide informational APIs needed for passes.">
<polygon fill="white" stroke="#666666" points="102.25,-36.12 0,-36.12 0,-5.62 102.25,-5.62 102.25,-36.12"/>
<text xml:space="preserve" text-anchor="start" x="8" y="-22.62" font-family="Helvetica,sans-Serif" font-size="10.00">llvm::PassInfoMixin</text>
<text xml:space="preserve" text-anchor="middle" x="51.12" y="-11.38" font-family="Helvetica,sans-Serif" font-size="10.00">&lt; DerivedT &gt;</text>
</a>
</g>
</g>
<!-- Node5&#45;&gt;Node4 -->
<g id="edge4_Node000004_Node000005" class="edge">
<title>Node5&#45;&gt;Node4</title>
<g id="a_edge4_Node000004_Node000005"><a xlink:title=" ">
<path fill="none" stroke="#63b8ff" d="M113.96,-20.88C122.08,-20.88 130.46,-20.88 138.76,-20.88"/>
<polygon fill="#63b8ff" stroke="#63b8ff" points="114.22,-17.38 104.22,-20.88 114.22,-24.38 114.22,-17.38"/>
</a>
</g>
</g>
</g>
</svg>
