<?xml version="1.0" encoding="UTF-8" standalone="no"?>
<!DOCTYPE svg PUBLIC "-//W3C//DTD SVG 1.1//EN"
 "http://www.w3.org/Graphics/SVG/1.1/DTD/svg11.dtd">
<!-- Generated by graphviz version 14.1.3 (20260303.0454)
 -->
<!-- Title: llvm::DOTGraphTraits&lt; MachineBlockFrequencyInfo * &gt; Pages: 1 -->
<svg width="387pt" height="261pt"
 viewBox="0.00 0.00 387.00 261.00" xmlns="http://www.w3.org/2000/svg" xmlns:xlink="http://www.w3.org/1999/xlink">
<g id="graph0" class="graph" transform="scale(1 1) rotate(0) translate(4 257.25)">
<title>llvm::DOTGraphTraits&lt; MachineBlockFrequencyInfo * &gt;</title>
<!-- Node1 -->
<g id="Node000001" class="node">
<title>Node1</title>
<g id="a_Node000001"><a xlink:title=" ">
<polygon fill="#999999" stroke="#666666" points="164.5,-30.5 0,-30.5 0,0 164.5,0 164.5,-30.5"/>
<text xml:space="preserve" text-anchor="start" x="8" y="-17" font-family="Helvetica,sans-Serif" font-size="10.00">llvm::DOTGraphTraits</text>
<text xml:space="preserve" text-anchor="middle" x="82.25" y="-5.75" font-family="Helvetica,sans-Serif" font-size="10.00">&lt; MachineBlockFrequencyInfo * &gt;</text>
</a>
</g>
</g>
<!-- Node2 -->
<g id="Node000002" class="node">
<title>Node2</title>
<g id="a_Node000002"><a xlink:href="structllvm_1_1DefaultDOTGraphTraits.html" target="_top" xlink:title="DefaultDOTGraphTraits &#45; This class provides the default implementations of all of the DOTGraphTraits ...">
<polygon fill="white" stroke="#666666" points="169,-253.25 25.5,-253.25 25.5,-234 169,-234 169,-253.25"/>
<text xml:space="preserve" text-anchor="middle" x="97.25" y="-239.75" font-family="Helvetica,sans-Serif" font-size="10.00">llvm::DefaultDOTGraphTraits</text>
</a>
</g>
</g>
<!-- Node2&#45;&gt;Node1 -->
<g id="edge1_Node000001_Node000002" class="edge">
<title>Node2&#45;&gt;Node1</title>
<g id="a_edge1_Node000001_Node000002"><a xlink:title=" ">
<path fill="none" stroke="#63b8ff" d="M72.35,-227.26C61.78,-219.48 50.29,-209.1 43.25,-197 17.26,-152.32 14.58,-137.76 6.25,-86.75 4.87,-78.31 2.23,-75.05 6.25,-67.5 14.92,-51.2 31.33,-39.15 46.7,-30.84"/>
<polygon fill="#63b8ff" stroke="#63b8ff" points="70.18,-230.02 80.41,-232.8 74.15,-224.25 70.18,-230.02"/>
</a>
</g>
</g>
<!-- Node3 -->
<g id="Node000003" class="node">
<title>Node3</title>
<g id="a_Node000003"><a xlink:href="structllvm_1_1BFIDOTGraphTraitsBase.html" target="_top" xlink:title=" ">
<polygon fill="white" stroke="#666666" points="149.5,-86.75 15,-86.75 15,-67.5 149.5,-67.5 149.5,-86.75"/>
<text xml:space="preserve" text-anchor="middle" x="82.25" y="-73.25" font-family="Helvetica,sans-Serif" font-size="10.00">MBFIDOTGraphTraitsBase</text>
</a>
</g>
</g>
<!-- Node2&#45;&gt;Node3 -->
<g id="edge3_Node000003_Node000002" class="edge">
<title>Node2&#45;&gt;Node3</title>
<g id="a_edge3_Node000003_Node000002"><a xlink:title=" ">
<path fill="none" stroke="#63b8ff" d="M74.88,-226.36C66.07,-218.58 56.95,-208.46 52.25,-197 36.09,-157.61 63.49,-107.21 76.25,-87.05"/>
<polygon fill="#63b8ff" stroke="#63b8ff" points="72.61,-229.02 82.58,-232.62 77.03,-223.6 72.61,-229.02"/>
</a>
</g>
</g>
<!-- Node4 -->
<g id="Node000004" class="node">
<title>Node4</title>
<g id="a_Node000004"><a xlink:href="structllvm_1_1BFIDOTGraphTraitsBase.html" target="_top" xlink:title=" ">
<polygon fill="white" stroke="#666666" points="260.75,-197 61.75,-197 61.75,-155.25 260.75,-155.25 260.75,-197"/>
<text xml:space="preserve" text-anchor="start" x="69.75" y="-183.5" font-family="Helvetica,sans-Serif" font-size="10.00">llvm::BFIDOTGraphTraitsBase</text>
<text xml:space="preserve" text-anchor="start" x="69.75" y="-172.25" font-family="Helvetica,sans-Serif" font-size="10.00">&lt; BlockFrequencyInfoT, BranchProbability</text>
<text xml:space="preserve" text-anchor="middle" x="161.25" y="-161" font-family="Helvetica,sans-Serif" font-size="10.00">InfoT &gt;</text>
</a>
</g>
</g>
<!-- Node2&#45;&gt;Node4 -->
<g id="edge5_Node000004_Node000002" class="edge">
<title>Node2&#45;&gt;Node4</title>
<g id="a_edge5_Node000004_Node000002"><a xlink:title=" ">
<path fill="none" stroke="#63b8ff" d="M114.08,-225.4C122.45,-216.83 132.62,-206.42 141.37,-197.47"/>
<polygon fill="#63b8ff" stroke="#63b8ff" points="111.69,-222.84 107.21,-232.43 116.7,-227.73 111.69,-222.84"/>
</a>
</g>
</g>
<!-- Node5 -->
<g id="Node000005" class="node">
<title>Node5</title>
<g id="a_Node000005"><a xlink:href="structllvm_1_1DOTGraphTraits.html" target="_top" xlink:title="DOTGraphTraits &#45; Template class that can be specialized to customize how graphs are converted to &#39;dot...">
<polygon fill="white" stroke="#666666" points="351.25,-136.25 239.25,-136.25 239.25,-105.75 351.25,-105.75 351.25,-136.25"/>
<text xml:space="preserve" text-anchor="start" x="247.25" y="-122.75" font-family="Helvetica,sans-Serif" font-size="10.00">llvm::DOTGraphTraits</text>
<text xml:space="preserve" text-anchor="middle" x="295.25" y="-111.5" font-family="Helvetica,sans-Serif" font-size="10.00">&lt; Ty &gt;</text>
</a>
</g>
</g>
<!-- Node2&#45;&gt;Node5 -->
<g id="edge7_Node000005_Node000002" class="edge">
<title>Node2&#45;&gt;Node5</title>
<g id="a_edge7_Node000005_Node000002"><a xlink:title=" ">
<path fill="none" stroke="#63b8ff" d="M180.3,-237.34C211.88,-231.42 246.03,-219.72 270.25,-197 287.17,-181.13 292.64,-153.53 294.41,-136.6"/>
<polygon fill="#63b8ff" stroke="#63b8ff" points="180.03,-233.84 170.76,-238.95 181.2,-240.74 180.03,-233.84"/>
</a>
</g>
</g>
<!-- Node3&#45;&gt;Node1 -->
<g id="edge2_Node000001_Node000003" class="edge">
<title>Node3&#45;&gt;Node1</title>
<g id="a_edge2_Node000001_Node000003"><a xlink:title=" ">
<path fill="none" stroke="#63b8ff" d="M82.25,-55.69C82.25,-47.43 82.25,-38.09 82.25,-30.57"/>
<polygon fill="#63b8ff" stroke="#63b8ff" points="78.75,-55.52 82.25,-65.52 85.75,-55.52 78.75,-55.52"/>
</a>
</g>
</g>
<!-- Node4&#45;&gt;Node3 -->
<g id="edge4_Node000003_Node000004" class="edge">
<title>Node4&#45;&gt;Node3</title>
<g id="a_edge4_Node000003_Node000004"><a xlink:title=" ">
<path fill="none" stroke="orange" stroke-dasharray="5,2" d="M85.8,-148.11C82.27,-144.89 79.11,-141.28 76.5,-137.25 66.51,-121.85 73.19,-99.28 78.19,-86.96"/>
<polygon fill="orange" stroke="orange" points="83.41,-150.69 93.46,-154.04 87.7,-145.15 83.41,-150.69"/>
</a>
</g>
<text xml:space="preserve" text-anchor="start" x="79.5" y="-126" font-family="Helvetica,sans-Serif" font-size="10.00" fill="grey">&lt; MachineBlockFrequencyInfo,</text>
<text xml:space="preserve" text-anchor="start" x="79.5" y="-110.75" font-family="Helvetica,sans-Serif" font-size="10.00" fill="grey">   MachineBranchProbabilityInfo &gt;</text>
</g>
<!-- Node5&#45;&gt;Node1 -->
<g id="edge6_Node000001_Node000005" class="edge">
<title>Node5&#45;&gt;Node1</title>
<g id="a_edge6_Node000001_Node000005"><a xlink:title=" ">
<path fill="none" stroke="orange" stroke-dasharray="5,2" d="M254.89,-100.34C213.43,-80.15 149.84,-49.17 112.51,-30.99"/>
<polygon fill="orange" stroke="orange" points="253.3,-103.46 263.82,-104.69 256.37,-97.17 253.3,-103.46"/>
</a>
</g>
<text xml:space="preserve" text-anchor="start" x="227.63" y="-74.5" font-family="Helvetica,sans-Serif" font-size="10.00" fill="grey">&lt; MachineBlockFrequencyInfo * &gt;</text>
</g>
</g>
</svg>
