<?xml version="1.0" encoding="UTF-8" standalone="no"?>
<!DOCTYPE svg PUBLIC "-//W3C//DTD SVG 1.1//EN"
 "http://www.w3.org/Graphics/SVG/1.1/DTD/svg11.dtd">
<!-- Generated by graphviz version 14.1.3 (20260303.0454)
 -->
<!-- Title: llvm::AAPotentialConstantValues Pages: 1 -->
<svg width="976pt" height="225pt"
 viewBox="0.00 0.00 976.00 225.00" xmlns="http://www.w3.org/2000/svg" xmlns:xlink="http://www.w3.org/1999/xlink">
<g id="graph0" class="graph" transform="scale(1 1) rotate(0) translate(4 221.25)">
<title>llvm::AAPotentialConstantValues</title>
<!-- Node1 -->
<g id="Node000001" class="node">
<title>Node1</title>
<g id="a_Node000001"><a xlink:title="An abstract interface for potential values analysis.">
<polygon fill="#999999" stroke="#666666" points="967.75,-126.88 836.25,-126.88 836.25,-96.38 967.75,-96.38 967.75,-126.88"/>
<text xml:space="preserve" text-anchor="start" x="844.25" y="-113.38" font-family="Helvetica,sans-Serif" font-size="10.00">llvm::AAPotentialConstant</text>
<text xml:space="preserve" text-anchor="middle" x="902" y="-102.12" font-family="Helvetica,sans-Serif" font-size="10.00">Values</text>
</a>
</g>
</g>
<!-- Node2 -->
<g id="Node000002" class="node">
<title>Node2</title>
<g id="a_Node000002"><a xlink:href="structllvm_1_1StateWrapper.html" target="_top" xlink:title=" ">
<polygon fill="white" stroke="#666666" points="799.25,-132.5 655.75,-132.5 655.75,-90.75 799.25,-90.75 799.25,-132.5"/>
<text xml:space="preserve" text-anchor="start" x="663.75" y="-119" font-family="Helvetica,sans-Serif" font-size="10.00">llvm::StateWrapper</text>
<text xml:space="preserve" text-anchor="start" x="663.75" y="-107.75" font-family="Helvetica,sans-Serif" font-size="10.00">&lt; PotentialConstantIntValues</text>
<text xml:space="preserve" text-anchor="middle" x="727.5" y="-96.5" font-family="Helvetica,sans-Serif" font-size="10.00">State, AbstractAttribute &gt;</text>
</a>
</g>
</g>
<!-- Node2&#45;&gt;Node1 -->
<g id="edge1_Node000001_Node000002" class="edge">
<title>Node2&#45;&gt;Node1</title>
<g id="a_edge1_Node000001_Node000002"><a xlink:title=" ">
<path fill="none" stroke="#63b8ff" d="M810.97,-111.62C819.31,-111.62 827.69,-111.62 835.81,-111.62"/>
<polygon fill="#63b8ff" stroke="#63b8ff" points="811.17,-108.13 801.17,-111.63 811.17,-115.13 811.17,-108.13"/>
</a>
</g>
</g>
<!-- Node3 -->
<g id="Node000003" class="node">
<title>Node3</title>
<g id="a_Node000003"><a xlink:href="structllvm_1_1AbstractAttribute.html" target="_top" xlink:title="Base struct for all &quot;concrete attribute&quot; deductions.">
<polygon fill="white" stroke="#666666" points="475.75,-180.25 362.25,-180.25 362.25,-161 475.75,-161 475.75,-180.25"/>
<text xml:space="preserve" text-anchor="middle" x="419" y="-166.75" font-family="Helvetica,sans-Serif" font-size="10.00">llvm::AbstractAttribute</text>
</a>
</g>
</g>
<!-- Node3&#45;&gt;Node2 -->
<g id="edge2_Node000002_Node000003" class="edge">
<title>Node3&#45;&gt;Node2</title>
<g id="a_edge2_Node000002_Node000003"><a xlink:title=" ">
<path fill="none" stroke="#63b8ff" d="M483.35,-158.43C533.46,-148.78 603.4,-135.32 655.42,-125.31"/>
<polygon fill="#63b8ff" stroke="#63b8ff" points="482.99,-154.94 473.83,-160.26 484.31,-161.81 482.99,-154.94"/>
</a>
</g>
</g>
<!-- Node4 -->
<g id="Node000004" class="node">
<title>Node4</title>
<g id="a_Node000004"><a xlink:href="structllvm_1_1IRPosition.html" target="_top" xlink:title="Helper to describe and deal with positions in the LLVM&#45;IR.">
<polygon fill="white" stroke="#666666" points="245.25,-217.25 159.5,-217.25 159.5,-198 245.25,-198 245.25,-217.25"/>
<text xml:space="preserve" text-anchor="middle" x="202.38" y="-203.75" font-family="Helvetica,sans-Serif" font-size="10.00">llvm::IRPosition</text>
</a>
</g>
</g>
<!-- Node4&#45;&gt;Node3 -->
<g id="edge3_Node000003_Node000004" class="edge">
<title>Node4&#45;&gt;Node3</title>
<g id="a_edge3_Node000003_Node000004"><a xlink:title=" ">
<path fill="none" stroke="#63b8ff" d="M256.49,-198.47C288.61,-192.93 329.52,-185.88 362.12,-180.26"/>
<polygon fill="#63b8ff" stroke="#63b8ff" points="256.27,-194.95 247.01,-200.1 257.46,-201.85 256.27,-194.95"/>
</a>
</g>
</g>
<!-- Node5 -->
<g id="Node000005" class="node">
<title>Node5</title>
<g id="a_Node000005"><a xlink:href="structllvm_1_1AADepGraphNode.html" target="_top" xlink:title="}">
<polygon fill="white" stroke="#666666" points="262.88,-180.25 141.88,-180.25 141.88,-161 262.88,-161 262.88,-180.25"/>
<text xml:space="preserve" text-anchor="middle" x="202.38" y="-166.75" font-family="Helvetica,sans-Serif" font-size="10.00">llvm::AADepGraphNode</text>
</a>
</g>
</g>
<!-- Node5&#45;&gt;Node3 -->
<g id="edge4_Node000003_Node000005" class="edge">
<title>Node5&#45;&gt;Node3</title>
<g id="a_edge4_Node000003_Node000005"><a xlink:title=" ">
<path fill="none" stroke="#63b8ff" d="M274.65,-170.62C303.01,-170.62 335.19,-170.62 361.85,-170.62"/>
<polygon fill="#63b8ff" stroke="#63b8ff" points="274.67,-167.13 264.67,-170.63 274.67,-174.13 274.67,-167.13"/>
</a>
</g>
</g>
<!-- Node6 -->
<g id="Node000006" class="node">
<title>Node6</title>
<g id="a_Node000006"><a xlink:href="structllvm_1_1PotentialValuesState.html" target="_top" xlink:title=" ">
<polygon fill="white" stroke="#666666" points="486.25,-126.88 351.75,-126.88 351.75,-96.38 486.25,-96.38 486.25,-126.88"/>
<text xml:space="preserve" text-anchor="start" x="359.75" y="-113.38" font-family="Helvetica,sans-Serif" font-size="10.00">PotentialConstantIntValues</text>
<text xml:space="preserve" text-anchor="middle" x="419" y="-102.12" font-family="Helvetica,sans-Serif" font-size="10.00">State</text>
</a>
</g>
</g>
<!-- Node6&#45;&gt;Node2 -->
<g id="edge5_Node000002_Node000006" class="edge">
<title>Node6&#45;&gt;Node2</title>
<g id="a_edge5_Node000002_Node000006"><a xlink:title=" ">
<path fill="none" stroke="#63b8ff" d="M497.89,-111.62C546.34,-111.62 608.18,-111.62 655.32,-111.62"/>
<polygon fill="#63b8ff" stroke="#63b8ff" points="498.02,-108.13 488.02,-111.63 498.02,-115.13 498.02,-108.13"/>
</a>
</g>
</g>
<!-- Node7 -->
<g id="Node000007" class="node">
<title>Node7</title>
<g id="a_Node000007"><a xlink:href="structllvm_1_1AbstractState.html" target="_top" xlink:title="An interface to query the internal state of an abstract attribute.">
<polygon fill="white" stroke="#666666" points="100,-120.25 0,-120.25 0,-101 100,-101 100,-120.25"/>
<text xml:space="preserve" text-anchor="middle" x="50" y="-106.75" font-family="Helvetica,sans-Serif" font-size="10.00">llvm::AbstractState</text>
</a>
</g>
</g>
<!-- Node7&#45;&gt;Node6 -->
<g id="edge6_Node000006_Node000007" class="edge">
<title>Node7&#45;&gt;Node6</title>
<g id="a_edge6_Node000006_Node000007"><a xlink:title=" ">
<path fill="none" stroke="#63b8ff" d="M111.75,-115.31C113.86,-115.42 115.95,-115.53 118,-115.62 213.8,-120.05 237.93,-122.6 333.75,-118.62 339.47,-118.39 345.4,-118.06 351.35,-117.68"/>
<polygon fill="#63b8ff" stroke="#63b8ff" points="112.08,-111.82 101.89,-114.72 111.66,-118.81 112.08,-111.82"/>
</a>
</g>
</g>
<!-- Node8 -->
<g id="Node000008" class="node">
<title>Node8</title>
<g id="a_Node000008"><a xlink:href="structllvm_1_1PotentialValuesState.html" target="_top" xlink:title="A class for a set state.">
<polygon fill="white" stroke="#666666" points="267.75,-104.88 137,-104.88 137,-74.38 267.75,-74.38 267.75,-104.88"/>
<text xml:space="preserve" text-anchor="start" x="145" y="-91.38" font-family="Helvetica,sans-Serif" font-size="10.00">llvm::PotentialValuesState</text>
<text xml:space="preserve" text-anchor="middle" x="202.38" y="-80.12" font-family="Helvetica,sans-Serif" font-size="10.00">&lt; MemberTy &gt;</text>
</a>
</g>
</g>
<!-- Node7&#45;&gt;Node8 -->
<g id="edge8_Node000008_Node000007" class="edge">
<title>Node7&#45;&gt;Node8</title>
<g id="a_edge8_Node000008_Node000007"><a xlink:title=" ">
<path fill="none" stroke="#63b8ff" d="M111.4,-102.19C119.72,-101.03 128.3,-99.83 136.7,-98.66"/>
<polygon fill="#63b8ff" stroke="#63b8ff" points="111.16,-98.69 101.74,-103.54 112.13,-105.62 111.16,-98.69"/>
</a>
</g>
</g>
<!-- Node8&#45;&gt;Node6 -->
<g id="edge7_Node000006_Node000008" class="edge">
<title>Node8&#45;&gt;Node6</title>
<g id="a_edge7_Node000006_Node000008"><a xlink:title=" ">
<path fill="none" stroke="orange" stroke-dasharray="5,2" d="M279.32,-96.07C297.19,-97.69 316.15,-99.51 333.75,-101.38 339.46,-101.98 345.39,-102.64 351.34,-103.32"/>
<polygon fill="orange" stroke="orange" points="279.85,-92.6 269.58,-95.19 279.22,-99.57 279.85,-92.6"/>
</a>
</g>
<text xml:space="preserve" text-anchor="start" x="288.75" y="-107.38" font-family="Helvetica,sans-Serif" font-size="10.00" fill="grey">&lt; APInt &gt;</text>
</g>
<!-- Node9 -->
<g id="Node000009" class="node">
<title>Node9</title>
<g id="a_Node000009"><a xlink:href="structllvm_1_1StateWrapper.html" target="_top" xlink:title="Helper to tie a abstract state implementation to an abstract attribute.">
<polygon fill="white" stroke="#666666" points="485.12,-61.88 352.88,-61.88 352.88,-31.38 485.12,-31.38 485.12,-61.88"/>
<text xml:space="preserve" text-anchor="start" x="360.88" y="-48.38" font-family="Helvetica,sans-Serif" font-size="10.00">llvm::StateWrapper</text>
<text xml:space="preserve" text-anchor="middle" x="419" y="-37.12" font-family="Helvetica,sans-Serif" font-size="10.00">&lt; StateTy, BaseType, Ts &gt;</text>
</a>
</g>
</g>
<!-- Node9&#45;&gt;Node2 -->
<g id="edge9_Node000002_Node000009" class="edge">
<title>Node9&#45;&gt;Node2</title>
<g id="a_edge9_Node000002_Node000009"><a xlink:title=" ">
<path fill="none" stroke="orange" stroke-dasharray="5,2" d="M496.49,-51.74C538.67,-55.78 591.68,-62.86 637.75,-75.12 652.24,-78.98 667.51,-84.64 681.22,-90.35"/>
<polygon fill="orange" stroke="orange" points="496.96,-48.27 486.68,-50.84 496.32,-55.24 496.96,-48.27"/>
</a>
</g>
<text xml:space="preserve" text-anchor="start" x="507.25" y="-96.38" font-family="Helvetica,sans-Serif" font-size="10.00" fill="grey">&lt; PotentialConstantIntValues</text>
<text xml:space="preserve" text-anchor="start" x="507.25" y="-81.12" font-family="Helvetica,sans-Serif" font-size="10.00" fill="grey">  State, AbstractAttribute &gt;</text>
</g>
<!-- Node10 -->
<g id="Node000010" class="node">
<title>Node10</title>
<g id="a_Node000010"><a xlink:href="classBaseType.html" target="_top" xlink:title=" ">
<polygon fill="white" stroke="#666666" points="232.12,-56.25 172.62,-56.25 172.62,-37 232.12,-37 232.12,-56.25"/>
<text xml:space="preserve" text-anchor="middle" x="202.38" y="-42.75" font-family="Helvetica,sans-Serif" font-size="10.00">BaseType</text>
</a>
</g>
</g>
<!-- Node10&#45;&gt;Node9 -->
<g id="edge10_Node000009_Node000010" class="edge">
<title>Node10&#45;&gt;Node9</title>
<g id="a_edge10_Node000009_Node000010"><a xlink:title=" ">
<path fill="none" stroke="#63b8ff" d="M243.83,-46.62C274.44,-46.62 317.13,-46.62 352.58,-46.62"/>
<polygon fill="#63b8ff" stroke="#63b8ff" points="243.83,-43.13 233.83,-46.63 243.83,-50.13 243.83,-43.13"/>
</a>
</g>
</g>
<!-- Node11 -->
<g id="Node000011" class="node">
<title>Node11</title>
<g id="a_Node000011"><a xlink:href="classStateTy.html" target="_top" xlink:title=" ">
<polygon fill="white" stroke="#666666" points="227.25,-19.25 177.5,-19.25 177.5,0 227.25,0 227.25,-19.25"/>
<text xml:space="preserve" text-anchor="middle" x="202.38" y="-5.75" font-family="Helvetica,sans-Serif" font-size="10.00">StateTy</text>
</a>
</g>
</g>
<!-- Node11&#45;&gt;Node9 -->
<g id="edge11_Node000009_Node000011" class="edge">
<title>Node11&#45;&gt;Node9</title>
<g id="a_edge11_Node000009_Node000011"><a xlink:title=" ">
<path fill="none" stroke="#63b8ff" d="M238.64,-15.71C269.53,-21.03 315.22,-28.91 352.75,-35.38"/>
<polygon fill="#63b8ff" stroke="#63b8ff" points="239.52,-12.3 229.07,-14.05 238.33,-19.2 239.52,-12.3"/>
</a>
</g>
</g>
</g>
</svg>
