<?xml version="1.0" encoding="UTF-8" standalone="no"?>
<!DOCTYPE svg PUBLIC "-//W3C//DTD SVG 1.1//EN"
 "http://www.w3.org/Graphics/SVG/1.1/DTD/svg11.dtd">
<!-- Generated by graphviz version 14.1.3 (20260303.0454)
 -->
<!-- Title: llvm::MinidumpYAML::detail::ListStream&lt; EntryT &gt; Pages: 1 -->
<svg width="797pt" height="230pt"
 viewBox="0.00 0.00 797.00 230.00" xmlns="http://www.w3.org/2000/svg" xmlns:xlink="http://www.w3.org/1999/xlink">
<g id="graph0" class="graph" transform="scale(1 1) rotate(0) translate(4 225.75)">
<title>llvm::MinidumpYAML::detail::ListStream&lt; EntryT &gt;</title>
<!-- Node1 -->
<g id="Node000001" class="node">
<title>Node1</title>
<g id="a_Node000001"><a xlink:title="A stream representing a list of abstract entries in a minidump stream.">
<polygon fill="#999999" stroke="#666666" points="252,-131.75 144.5,-131.75 144.5,-90 252,-90 252,-131.75"/>
<text xml:space="preserve" text-anchor="start" x="152.5" y="-118.25" font-family="Helvetica,sans-Serif" font-size="10.00">llvm::MinidumpYAML</text>
<text xml:space="preserve" text-anchor="start" x="152.5" y="-107" font-family="Helvetica,sans-Serif" font-size="10.00">::detail::ListStream</text>
<text xml:space="preserve" text-anchor="middle" x="198.25" y="-95.75" font-family="Helvetica,sans-Serif" font-size="10.00">&lt; EntryT &gt;</text>
</a>
</g>
</g>
<!-- Node3 -->
<g id="Node000003" class="node">
<title>Node3</title>
<g id="a_Node000003"><a xlink:href="structllvm_1_1MinidumpYAML_1_1detail_1_1ListStream.html" target="_top" xlink:title=" ">
<polygon fill="white" stroke="#666666" points="607.38,-221.75 481.88,-221.75 481.88,-180 607.38,-180 607.38,-221.75"/>
<text xml:space="preserve" text-anchor="start" x="489.88" y="-208.25" font-family="Helvetica,sans-Serif" font-size="10.00">llvm::MinidumpYAML</text>
<text xml:space="preserve" text-anchor="start" x="489.88" y="-197" font-family="Helvetica,sans-Serif" font-size="10.00">::detail::ListStream</text>
<text xml:space="preserve" text-anchor="middle" x="544.62" y="-185.75" font-family="Helvetica,sans-Serif" font-size="10.00">&lt; detail::ParsedModule &gt;</text>
</a>
</g>
</g>
<!-- Node1&#45;&gt;Node3 -->
<g id="edge2_Node000001_Node000003" class="edge">
<title>Node1&#45;&gt;Node3</title>
<g id="a_edge2_Node000001_Node000003"><a xlink:title=" ">
<path fill="none" stroke="orange" stroke-dasharray="5,2" d="M239.17,-137.96C248.92,-143.6 259.56,-149.01 270,-152.88 339.88,-178.75 425.07,-190.88 481.65,-196.43"/>
<polygon fill="orange" stroke="orange" points="241.04,-135 230.67,-132.82 237.42,-140.99 241.04,-135"/>
</a>
</g>
<text xml:space="preserve" text-anchor="start" x="297.38" y="-196.33" font-family="Helvetica,sans-Serif" font-size="10.00" fill="grey">&lt; detail::ParsedModule &gt;</text>
</g>
<!-- Node4 -->
<g id="Node000004" class="node">
<title>Node4</title>
<g id="a_Node000004"><a xlink:href="structllvm_1_1MinidumpYAML_1_1detail_1_1ListStream.html" target="_top" xlink:title=" ">
<polygon fill="white" stroke="#666666" points="606.62,-161.75 482.62,-161.75 482.62,-120 606.62,-120 606.62,-161.75"/>
<text xml:space="preserve" text-anchor="start" x="490.62" y="-148.25" font-family="Helvetica,sans-Serif" font-size="10.00">llvm::MinidumpYAML</text>
<text xml:space="preserve" text-anchor="start" x="490.62" y="-137" font-family="Helvetica,sans-Serif" font-size="10.00">::detail::ListStream</text>
<text xml:space="preserve" text-anchor="middle" x="544.62" y="-125.75" font-family="Helvetica,sans-Serif" font-size="10.00">&lt; detail::ParsedThread &gt;</text>
</a>
</g>
</g>
<!-- Node1&#45;&gt;Node4 -->
<g id="edge3_Node000001_Node000004" class="edge">
<title>Node1&#45;&gt;Node4</title>
<g id="a_edge3_Node000001_Node000004"><a xlink:title=" ">
<path fill="none" stroke="orange" stroke-dasharray="5,2" d="M263.62,-116.48C326.27,-121.94 420.8,-130.17 482.37,-135.54"/>
<polygon fill="orange" stroke="orange" points="264.08,-113.01 253.81,-115.63 263.47,-119.98 264.08,-113.01"/>
</a>
</g>
<text xml:space="preserve" text-anchor="start" x="298.12" y="-137.17" font-family="Helvetica,sans-Serif" font-size="10.00" fill="grey">&lt; detail::ParsedThread &gt;</text>
</g>
<!-- Node5 -->
<g id="Node000005" class="node">
<title>Node5</title>
<g id="a_Node000005"><a xlink:href="structllvm_1_1MinidumpYAML_1_1detail_1_1ListStream.html" target="_top" xlink:title=" ">
<polygon fill="white" stroke="#666666" points="631.75,-101.75 457.5,-101.75 457.5,-60 631.75,-60 631.75,-101.75"/>
<text xml:space="preserve" text-anchor="start" x="465.5" y="-88.25" font-family="Helvetica,sans-Serif" font-size="10.00">llvm::MinidumpYAML</text>
<text xml:space="preserve" text-anchor="start" x="465.5" y="-77" font-family="Helvetica,sans-Serif" font-size="10.00">::detail::ListStream</text>
<text xml:space="preserve" text-anchor="middle" x="544.62" y="-65.75" font-family="Helvetica,sans-Serif" font-size="10.00">&lt; detail::ParsedMemoryDescriptor &gt;</text>
</a>
</g>
</g>
<!-- Node1&#45;&gt;Node5 -->
<g id="edge4_Node000001_Node000005" class="edge">
<title>Node1&#45;&gt;Node5</title>
<g id="a_edge4_Node000001_Node000005"><a xlink:title=" ">
<path fill="none" stroke="orange" stroke-dasharray="5,2" d="M263.75,-96.53C265.85,-96.2 267.94,-95.9 270,-95.62 332.24,-87.29 403.04,-83.63 457.03,-82.04"/>
<polygon fill="orange" stroke="orange" points="263.16,-93.08 253.89,-98.22 264.34,-99.98 263.16,-93.08"/>
</a>
</g>
<text xml:space="preserve" text-anchor="start" x="273" y="-101.62" font-family="Helvetica,sans-Serif" font-size="10.00" fill="grey">&lt; detail::ParsedMemoryDescriptor &gt;</text>
</g>
<!-- Node6 -->
<g id="Node000006" class="node">
<title>Node6</title>
<g id="a_Node000006"><a xlink:href="structllvm_1_1MinidumpYAML_1_1detail_1_1ListStream.html" target="_top" xlink:title=" ">
<polygon fill="white" stroke="#666666" points="637,-41.75 452.25,-41.75 452.25,0 637,0 637,-41.75"/>
<text xml:space="preserve" text-anchor="start" x="460.25" y="-28.25" font-family="Helvetica,sans-Serif" font-size="10.00">llvm::MinidumpYAML</text>
<text xml:space="preserve" text-anchor="start" x="460.25" y="-17" font-family="Helvetica,sans-Serif" font-size="10.00">::detail::ListStream</text>
<text xml:space="preserve" text-anchor="middle" x="544.62" y="-5.75" font-family="Helvetica,sans-Serif" font-size="10.00">&lt; detail::ParsedMemory64Descriptor &gt;</text>
</a>
</g>
</g>
<!-- Node1&#45;&gt;Node6 -->
<g id="edge5_Node000001_Node000006" class="edge">
<title>Node1&#45;&gt;Node6</title>
<g id="a_edge5_Node000001_Node000006"><a xlink:title=" ">
<path fill="none" stroke="orange" stroke-dasharray="5,2" d="M223.61,-81.26C236.05,-68.26 252.29,-54.2 270,-46.38 326.95,-21.21 396.94,-15.08 451.88,-15.11"/>
<polygon fill="orange" stroke="orange" points="221.19,-78.71 217.02,-88.45 226.36,-83.44 221.19,-78.71"/>
</a>
</g>
<text xml:space="preserve" text-anchor="start" x="294.75" y="-67.62" font-family="Helvetica,sans-Serif" font-size="10.00" fill="grey">&lt; detail::ParsedMemory64</text>
<text xml:space="preserve" text-anchor="start" x="294.75" y="-52.38" font-family="Helvetica,sans-Serif" font-size="10.00" fill="grey">  Descriptor &gt;</text>
</g>
<!-- Node2 -->
<g id="Node000002" class="node">
<title>Node2</title>
<g id="a_Node000002"><a xlink:href="structllvm_1_1MinidumpYAML_1_1Stream.html" target="_top" xlink:title="The base class for all minidump streams.">
<polygon fill="white" stroke="#666666" points="107.5,-126.12 0,-126.12 0,-95.62 107.5,-95.62 107.5,-126.12"/>
<text xml:space="preserve" text-anchor="start" x="8" y="-112.62" font-family="Helvetica,sans-Serif" font-size="10.00">llvm::MinidumpYAML</text>
<text xml:space="preserve" text-anchor="middle" x="53.75" y="-101.38" font-family="Helvetica,sans-Serif" font-size="10.00">::Stream</text>
</a>
</g>
</g>
<!-- Node2&#45;&gt;Node1 -->
<g id="edge1_Node000001_Node000002" class="edge">
<title>Node2&#45;&gt;Node1</title>
<g id="a_edge1_Node000001_Node000002"><a xlink:title=" ">
<path fill="none" stroke="#63b8ff" d="M119.11,-110.88C127.48,-110.88 135.98,-110.88 144.14,-110.88"/>
<polygon fill="#63b8ff" stroke="#63b8ff" points="119.33,-107.38 109.33,-110.88 119.33,-114.38 119.33,-107.38"/>
</a>
</g>
</g>
<!-- Node7 -->
<g id="Node000007" class="node">
<title>Node7</title>
<g id="a_Node000007"><a xlink:href="structllvm_1_1MinidumpYAML_1_1Memory64ListStream.html" target="_top" xlink:title=" ">
<polygon fill="white" stroke="#666666" points="789,-36.12 674,-36.12 674,-5.62 789,-5.62 789,-36.12"/>
<text xml:space="preserve" text-anchor="start" x="682" y="-22.62" font-family="Helvetica,sans-Serif" font-size="10.00">llvm::MinidumpYAML</text>
<text xml:space="preserve" text-anchor="middle" x="731.5" y="-11.38" font-family="Helvetica,sans-Serif" font-size="10.00">::Memory64ListStream</text>
</a>
</g>
</g>
<!-- Node6&#45;&gt;Node7 -->
<g id="edge6_Node000006_Node000007" class="edge">
<title>Node6&#45;&gt;Node7</title>
<g id="a_edge6_Node000006_Node000007"><a xlink:title=" ">
<path fill="none" stroke="#63b8ff" d="M648.6,-20.88C657.2,-20.88 665.68,-20.88 673.73,-20.88"/>
<polygon fill="#63b8ff" stroke="#63b8ff" points="648.76,-17.38 638.76,-20.88 648.76,-24.38 648.76,-17.38"/>
</a>
</g>
</g>
</g>
</svg>
