<?xml version="1.0" encoding="UTF-8" standalone="no"?>
<!DOCTYPE svg PUBLIC "-//W3C//DTD SVG 1.1//EN"
 "http://www.w3.org/Graphics/SVG/1.1/DTD/svg11.dtd">
<!-- Generated by graphviz version 14.1.3 (20260303.0454)
 -->
<!-- Title: llvm::orc::CallableTraitsHelper&lt; ImplT, RetT(ClassT::*)(ArgTs...)&gt; Pages: 1 -->
<svg width="602pt" height="93pt"
 viewBox="0.00 0.00 602.00 93.00" xmlns="http://www.w3.org/2000/svg" xmlns:xlink="http://www.w3.org/1999/xlink">
<g id="graph0" class="graph" transform="scale(1 1) rotate(0) translate(4 88.5)">
<title>llvm::orc::CallableTraitsHelper&lt; ImplT, RetT(ClassT::*)(ArgTs...)&gt;</title>
<!-- Node1 -->
<g id="Node000001" class="node">
<title>Node1</title>
<g id="a_Node000001"><a xlink:title=" ">
<polygon fill="#999999" stroke="#666666" points="593.5,-46.12 454.5,-46.12 454.5,-4.38 593.5,-4.38 593.5,-46.12"/>
<text xml:space="preserve" text-anchor="start" x="462.5" y="-32.62" font-family="Helvetica,sans-Serif" font-size="10.00">llvm::orc::CallableTraits</text>
<text xml:space="preserve" text-anchor="start" x="462.5" y="-21.38" font-family="Helvetica,sans-Serif" font-size="10.00">Helper&lt; ImplT, RetT(ClassT</text>
<text xml:space="preserve" text-anchor="middle" x="524" y="-10.12" font-family="Helvetica,sans-Serif" font-size="10.00">::*)(ArgTs...)&gt;</text>
</a>
</g>
</g>
<!-- Node2 -->
<g id="Node000002" class="node">
<title>Node2</title>
<g id="a_Node000002"><a xlink:href="structllvm_1_1orc_1_1CallableTraitsHelper_3_01ImplT_00_01RetT_07ArgTs_8_8_8_08_4.html" target="_top" xlink:title=" ">
<polygon fill="white" stroke="#666666" points="417.5,-84.5 267.25,-84.5 267.25,-54 417.5,-54 417.5,-84.5"/>
<text xml:space="preserve" text-anchor="start" x="275.25" y="-71" font-family="Helvetica,sans-Serif" font-size="10.00">llvm::orc::CallableTraits</text>
<text xml:space="preserve" text-anchor="middle" x="342.38" y="-59.75" font-family="Helvetica,sans-Serif" font-size="10.00">Helper&lt; ImplT, RetT(ArgTs...)&gt;</text>
</a>
</g>
</g>
<!-- Node2&#45;&gt;Node1 -->
<g id="edge1_Node000001_Node000002" class="edge">
<title>Node2&#45;&gt;Node1</title>
<g id="a_edge1_Node000001_Node000002"><a xlink:title=" ">
<path fill="none" stroke="#63b8ff" d="M418.6,-50.82C430.36,-47.94 442.46,-44.98 454.07,-42.14"/>
<polygon fill="#63b8ff" stroke="#63b8ff" points="417.81,-47.41 408.93,-53.19 419.48,-54.21 417.81,-47.41"/>
</a>
</g>
</g>
<!-- Node3 -->
<g id="Node000003" class="node">
<title>Node3</title>
<g id="a_Node000003"><a xlink:href="classImplT.html" target="_top" xlink:title=" ">
<polygon fill="white" stroke="#666666" points="118.75,-78.88 0.75,-78.88 0.75,-59.62 118.75,-59.62 118.75,-78.88"/>
<text xml:space="preserve" text-anchor="middle" x="59.75" y="-65.38" font-family="Helvetica,sans-Serif" font-size="10.00">ImplT&lt; RetT, ArgTs... &gt;</text>
</a>
</g>
</g>
<!-- Node3&#45;&gt;Node2 -->
<g id="edge2_Node000002_Node000003" class="edge">
<title>Node3&#45;&gt;Node2</title>
<g id="a_edge2_Node000002_Node000003"><a xlink:title=" ">
<path fill="none" stroke="#63b8ff" d="M130.62,-69.25C172.1,-69.25 224.66,-69.25 266.92,-69.25"/>
<polygon fill="#63b8ff" stroke="#63b8ff" points="130.75,-65.75 120.75,-69.25 130.75,-72.75 130.75,-65.75"/>
</a>
</g>
</g>
<!-- Node4 -->
<g id="Node000004" class="node">
<title>Node4</title>
<g id="a_Node000004"><a xlink:href="structllvm_1_1orc_1_1CallableTraitsHelper.html" target="_top" xlink:title="CallableTraitsHelper takes an implementation class template Impl and some callable type C and passes ...">
<polygon fill="white" stroke="#666666" points="119.5,-30.5 0,-30.5 0,0 119.5,0 119.5,-30.5"/>
<text xml:space="preserve" text-anchor="start" x="8" y="-17" font-family="Helvetica,sans-Serif" font-size="10.00">llvm::orc::CallableTraits</text>
<text xml:space="preserve" text-anchor="middle" x="59.75" y="-5.75" font-family="Helvetica,sans-Serif" font-size="10.00">Helper&lt; ImplT, C &gt;</text>
</a>
</g>
</g>
<!-- Node4&#45;&gt;Node1 -->
<g id="edge4_Node000001_Node000004" class="edge">
<title>Node4&#45;&gt;Node1</title>
<g id="a_edge4_Node000001_Node000004"><a xlink:title=" ">
<path fill="none" stroke="orange" stroke-dasharray="5,2" d="M131.01,-12.03C203.01,-9.37 318.17,-6.89 417.5,-12.75 429.38,-13.45 441.96,-14.59 454.15,-15.91"/>
<polygon fill="orange" stroke="orange" points="131.21,-8.52 121.35,-12.4 131.47,-15.51 131.21,-8.52"/>
</a>
</g>
<text xml:space="preserve" text-anchor="start" x="295.12" y="-34" font-family="Helvetica,sans-Serif" font-size="10.00" fill="grey">&lt; ImplT, RetT(ClassT</text>
<text xml:space="preserve" text-anchor="start" x="295.12" y="-18.75" font-family="Helvetica,sans-Serif" font-size="10.00" fill="grey">  ::*)(ArgTs...)&gt;</text>
</g>
<!-- Node4&#45;&gt;Node2 -->
<g id="edge3_Node000002_Node000004" class="edge">
<title>Node4&#45;&gt;Node2</title>
<g id="a_edge3_Node000002_Node000004"><a xlink:title=" ">
<path fill="none" stroke="orange" stroke-dasharray="5,2" d="M131.14,-26.54C166.64,-32.47 210.32,-40.14 249.25,-48 257.78,-49.72 266.72,-51.64 275.55,-53.61"/>
<polygon fill="orange" stroke="orange" points="131.84,-23.11 121.41,-24.92 130.7,-30.02 131.84,-23.11"/>
</a>
</g>
<text xml:space="preserve" text-anchor="start" x="140.5" y="-54" font-family="Helvetica,sans-Serif" font-size="10.00" fill="grey">&lt; ImplT, RetT(ArgTs...)&gt;</text>
</g>
</g>
</svg>
