<?xml version="1.0" encoding="UTF-8" standalone="no"?>
<!DOCTYPE svg PUBLIC "-//W3C//DTD SVG 1.1//EN"
 "http://www.w3.org/Graphics/SVG/1.1/DTD/svg11.dtd">
<!-- Generated by graphviz version 14.1.3 (20260303.0454)
 -->
<!-- Title: llvm::ELFYAML::Section Pages: 1 -->
<svg width="484pt" height="875pt"
 viewBox="0.00 0.00 484.00 875.00" xmlns="http://www.w3.org/2000/svg" xmlns:xlink="http://www.w3.org/1999/xlink">
<g id="graph0" class="graph" transform="scale(1 1) rotate(0) translate(4 870.88)">
<title>llvm::ELFYAML::Section</title>
<!-- Node1 -->
<g id="Node000001" class="node">
<title>Node1</title>
<g id="a_Node000001"><a xlink:title=" ">
<polygon fill="#999999" stroke="#666666" points="276.5,-437.25 154,-437.25 154,-418 276.5,-418 276.5,-437.25"/>
<text xml:space="preserve" text-anchor="middle" x="215.25" y="-423.75" font-family="Helvetica,sans-Serif" font-size="10.00">llvm::ELFYAML::Section</text>
</a>
</g>
</g>
<!-- Node3 -->
<g id="Node000003" class="node">
<title>Node3</title>
<g id="a_Node000003"><a xlink:href="structllvm_1_1ELFYAML_1_1ARMIndexTableSection.html" target="_top" xlink:title=" ">
<polygon fill="white" stroke="#666666" points="474,-866.88 314.75,-866.88 314.75,-836.38 474,-836.38 474,-866.88"/>
<text xml:space="preserve" text-anchor="start" x="322.75" y="-853.38" font-family="Helvetica,sans-Serif" font-size="10.00">llvm::ELFYAML::ARMIndexTable</text>
<text xml:space="preserve" text-anchor="middle" x="394.38" y="-842.12" font-family="Helvetica,sans-Serif" font-size="10.00">Section</text>
</a>
</g>
</g>
<!-- Node1&#45;&gt;Node3 -->
<g id="edge2_Node000001_Node000003" class="edge">
<title>Node1&#45;&gt;Node3</title>
<g id="a_edge2_Node000001_Node000003"><a xlink:title=" ">
<path fill="none" stroke="#63b8ff" d="M218.56,-448.79C227.1,-523.2 259.17,-771.42 312.5,-827.62 315.52,-830.81 318.95,-833.58 322.64,-835.99"/>
<polygon fill="#63b8ff" stroke="#63b8ff" points="222.08,-448.74 217.49,-439.19 215.12,-449.52 222.08,-448.74"/>
</a>
</g>
</g>
<!-- Node4 -->
<g id="Node000004" class="node">
<title>Node4</title>
<g id="a_Node000004"><a xlink:href="structllvm_1_1ELFYAML_1_1AddrsigSection.html" target="_top" xlink:title=" ">
<polygon fill="white" stroke="#666666" points="472.12,-818.25 316.62,-818.25 316.62,-799 472.12,-799 472.12,-818.25"/>
<text xml:space="preserve" text-anchor="middle" x="394.38" y="-804.75" font-family="Helvetica,sans-Serif" font-size="10.00">llvm::ELFYAML::AddrsigSection</text>
</a>
</g>
</g>
<!-- Node1&#45;&gt;Node4 -->
<g id="edge3_Node000001_Node000004" class="edge">
<title>Node1&#45;&gt;Node4</title>
<g id="a_edge3_Node000001_Node000004"><a xlink:title=" ">
<path fill="none" stroke="#63b8ff" d="M218.99,-448.65C228.51,-518.46 262.33,-740.89 312.5,-789.62 316.22,-793.24 320.5,-796.22 325.1,-798.66"/>
<polygon fill="#63b8ff" stroke="#63b8ff" points="222.49,-448.42 217.7,-438.97 215.55,-449.34 222.49,-448.42"/>
</a>
</g>
</g>
<!-- Node5 -->
<g id="Node000005" class="node">
<title>Node5</title>
<g id="a_Node000005"><a xlink:href="structllvm_1_1ELFYAML_1_1BBAddrMapSection.html" target="_top" xlink:title=" ">
<polygon fill="white" stroke="#666666" points="465.38,-780.88 323.38,-780.88 323.38,-750.38 465.38,-750.38 465.38,-780.88"/>
<text xml:space="preserve" text-anchor="start" x="331.38" y="-767.38" font-family="Helvetica,sans-Serif" font-size="10.00">llvm::ELFYAML::BBAddrMap</text>
<text xml:space="preserve" text-anchor="middle" x="394.38" y="-756.12" font-family="Helvetica,sans-Serif" font-size="10.00">Section</text>
</a>
</g>
</g>
<!-- Node1&#45;&gt;Node5 -->
<g id="edge4_Node000001_Node000005" class="edge">
<title>Node1&#45;&gt;Node5</title>
<g id="a_edge4_Node000001_Node000005"><a xlink:title=" ">
<path fill="none" stroke="#63b8ff" d="M216.35,-448.95C217.8,-504.96 229.58,-657.58 312.5,-740.62 316.13,-744.26 320.29,-747.38 324.75,-750.04"/>
<polygon fill="#63b8ff" stroke="#63b8ff" points="219.86,-449.16 216.2,-439.22 212.86,-449.27 219.86,-449.16"/>
</a>
</g>
</g>
<!-- Node6 -->
<g id="Node000006" class="node">
<title>Node6</title>
<g id="a_Node000006"><a xlink:href="structllvm_1_1ELFYAML_1_1CallGraphProfileSection.html" target="_top" xlink:title=" ">
<polygon fill="white" stroke="#666666" points="460.88,-731.88 327.88,-731.88 327.88,-701.38 460.88,-701.38 460.88,-731.88"/>
<text xml:space="preserve" text-anchor="start" x="335.88" y="-718.38" font-family="Helvetica,sans-Serif" font-size="10.00">llvm::ELFYAML::CallGraph</text>
<text xml:space="preserve" text-anchor="middle" x="394.38" y="-707.12" font-family="Helvetica,sans-Serif" font-size="10.00">ProfileSection</text>
</a>
</g>
</g>
<!-- Node1&#45;&gt;Node6 -->
<g id="edge5_Node000001_Node000006" class="edge">
<title>Node1&#45;&gt;Node6</title>
<g id="a_edge5_Node000001_Node000006"><a xlink:title=" ">
<path fill="none" stroke="#63b8ff" d="M217.77,-448.9C222.47,-498.69 241.13,-623.73 312.5,-691.62 316.97,-695.88 322.15,-699.41 327.69,-702.34"/>
<polygon fill="#63b8ff" stroke="#63b8ff" points="221.28,-448.88 216.96,-439.2 214.3,-449.46 221.28,-448.88"/>
</a>
</g>
</g>
<!-- Node7 -->
<g id="Node000007" class="node">
<title>Node7</title>
<g id="a_Node000007"><a xlink:href="structllvm_1_1ELFYAML_1_1DependentLibrariesSection.html" target="_top" xlink:title=" ">
<polygon fill="white" stroke="#666666" points="462.75,-682.88 326,-682.88 326,-652.38 462.75,-652.38 462.75,-682.88"/>
<text xml:space="preserve" text-anchor="start" x="334" y="-669.38" font-family="Helvetica,sans-Serif" font-size="10.00">llvm::ELFYAML::Dependent</text>
<text xml:space="preserve" text-anchor="middle" x="394.38" y="-658.12" font-family="Helvetica,sans-Serif" font-size="10.00">LibrariesSection</text>
</a>
</g>
</g>
<!-- Node1&#45;&gt;Node7 -->
<g id="edge6_Node000001_Node000007" class="edge">
<title>Node1&#45;&gt;Node7</title>
<g id="a_edge6_Node000001_Node000007"><a xlink:title=" ">
<path fill="none" stroke="#63b8ff" d="M219.64,-448.8C227.68,-491.96 251.95,-590.52 312.5,-643.62 316.46,-647.1 320.91,-650.08 325.63,-652.62"/>
<polygon fill="#63b8ff" stroke="#63b8ff" points="223.1,-448.26 217.94,-439.01 216.2,-449.46 223.1,-448.26"/>
</a>
</g>
</g>
<!-- Node8 -->
<g id="Node000008" class="node">
<title>Node8</title>
<g id="a_Node000008"><a xlink:href="structllvm_1_1ELFYAML_1_1DynamicSection.html" target="_top" xlink:title=" ">
<polygon fill="white" stroke="#666666" points="475.12,-634.25 313.62,-634.25 313.62,-615 475.12,-615 475.12,-634.25"/>
<text xml:space="preserve" text-anchor="middle" x="394.38" y="-620.75" font-family="Helvetica,sans-Serif" font-size="10.00">llvm::ELFYAML::DynamicSection</text>
</a>
</g>
</g>
<!-- Node1&#45;&gt;Node8 -->
<g id="edge7_Node000001_Node000008" class="edge">
<title>Node1&#45;&gt;Node8</title>
<g id="a_edge7_Node000001_Node000008"><a xlink:title=" ">
<path fill="none" stroke="#63b8ff" d="M221.28,-448.34C231.56,-486.07 258.69,-565.87 312.5,-606.62 316.63,-609.75 321.19,-612.35 325.99,-614.52"/>
<polygon fill="#63b8ff" stroke="#63b8ff" points="224.79,-447.94 218.9,-439.13 218.01,-449.69 224.79,-447.94"/>
</a>
</g>
</g>
<!-- Node9 -->
<g id="Node000009" class="node">
<title>Node9</title>
<g id="a_Node000009"><a xlink:href="structllvm_1_1ELFYAML_1_1GnuHashSection.html" target="_top" xlink:title=" ">
<polygon fill="white" stroke="#666666" points="476.25,-597.25 312.5,-597.25 312.5,-578 476.25,-578 476.25,-597.25"/>
<text xml:space="preserve" text-anchor="middle" x="394.38" y="-583.75" font-family="Helvetica,sans-Serif" font-size="10.00">llvm::ELFYAML::GnuHashSection</text>
</a>
</g>
</g>
<!-- Node1&#45;&gt;Node9 -->
<g id="edge8_Node000001_Node000009" class="edge">
<title>Node1&#45;&gt;Node9</title>
<g id="a_edge8_Node000001_Node000009"><a xlink:title=" ">
<path fill="none" stroke="#63b8ff" d="M224.15,-447.92C237.43,-479.23 267.29,-538.89 312.5,-569.62 317.14,-572.78 322.24,-575.39 327.56,-577.55"/>
<polygon fill="#63b8ff" stroke="#63b8ff" points="227.46,-446.77 220.45,-438.83 220.98,-449.41 227.46,-446.77"/>
</a>
</g>
</g>
<!-- Node10 -->
<g id="Node000010" class="node">
<title>Node10</title>
<g id="a_Node000010"><a xlink:href="structllvm_1_1ELFYAML_1_1GroupSection.html" target="_top" xlink:title=" ">
<polygon fill="white" stroke="#666666" points="468.75,-560.25 320,-560.25 320,-541 468.75,-541 468.75,-560.25"/>
<text xml:space="preserve" text-anchor="middle" x="394.38" y="-546.75" font-family="Helvetica,sans-Serif" font-size="10.00">llvm::ELFYAML::GroupSection</text>
</a>
</g>
</g>
<!-- Node1&#45;&gt;Node10 -->
<g id="edge9_Node000001_Node000010" class="edge">
<title>Node1&#45;&gt;Node10</title>
<g id="a_edge9_Node000001_Node000010"><a xlink:title=" ">
<path fill="none" stroke="#63b8ff" d="M228.51,-447.05C244.71,-471.04 275.57,-511.29 312.5,-532.62 317.98,-535.79 323.97,-538.4 330.12,-540.55"/>
<polygon fill="#63b8ff" stroke="#63b8ff" points="231.54,-445.29 223.13,-438.85 225.69,-449.13 231.54,-445.29"/>
</a>
</g>
</g>
<!-- Node11 -->
<g id="Node000011" class="node">
<title>Node11</title>
<g id="a_Node000011"><a xlink:href="structllvm_1_1ELFYAML_1_1HashSection.html" target="_top" xlink:title=" ">
<polygon fill="white" stroke="#666666" points="467.25,-523.25 321.5,-523.25 321.5,-504 467.25,-504 467.25,-523.25"/>
<text xml:space="preserve" text-anchor="middle" x="394.38" y="-509.75" font-family="Helvetica,sans-Serif" font-size="10.00">llvm::ELFYAML::HashSection</text>
</a>
</g>
</g>
<!-- Node1&#45;&gt;Node11 -->
<g id="edge10_Node000001_Node000011" class="edge">
<title>Node1&#45;&gt;Node11</title>
<g id="a_edge10_Node000001_Node000011"><a xlink:title=" ">
<path fill="none" stroke="#63b8ff" d="M236.23,-444.94C254.8,-460.17 283.84,-481.85 312.5,-494.62 320.54,-498.21 329.33,-501.16 338.07,-503.58"/>
<polygon fill="#63b8ff" stroke="#63b8ff" points="238.6,-442.36 228.69,-438.62 234.1,-447.72 238.6,-442.36"/>
</a>
</g>
</g>
<!-- Node12 -->
<g id="Node000012" class="node">
<title>Node12</title>
<g id="a_Node000012"><a xlink:href="structllvm_1_1ELFYAML_1_1LinkerOptionsSection.html" target="_top" xlink:title=" ">
<polygon fill="white" stroke="#666666" points="469.12,-485.88 319.62,-485.88 319.62,-455.38 469.12,-455.38 469.12,-485.88"/>
<text xml:space="preserve" text-anchor="start" x="327.62" y="-472.38" font-family="Helvetica,sans-Serif" font-size="10.00">llvm::ELFYAML::LinkerOptions</text>
<text xml:space="preserve" text-anchor="middle" x="394.38" y="-461.12" font-family="Helvetica,sans-Serif" font-size="10.00">Section</text>
</a>
</g>
</g>
<!-- Node1&#45;&gt;Node12 -->
<g id="edge11_Node000001_Node000012" class="edge">
<title>Node1&#45;&gt;Node12</title>
<g id="a_edge11_Node000001_Node000012"><a xlink:title=" ">
<path fill="none" stroke="#63b8ff" d="M268.78,-440.38C287.53,-444.93 308.88,-450.11 328.54,-454.88"/>
<polygon fill="#63b8ff" stroke="#63b8ff" points="269.79,-437.02 259.25,-438.06 268.14,-443.82 269.79,-437.02"/>
</a>
</g>
</g>
<!-- Node13 -->
<g id="Node000013" class="node">
<title>Node13</title>
<g id="a_Node000013"><a xlink:href="structllvm_1_1ELFYAML_1_1MipsABIFlags.html" target="_top" xlink:title=" ">
<polygon fill="white" stroke="#666666" points="469.88,-437.25 318.88,-437.25 318.88,-418 469.88,-418 469.88,-437.25"/>
<text xml:space="preserve" text-anchor="middle" x="394.38" y="-423.75" font-family="Helvetica,sans-Serif" font-size="10.00">llvm::ELFYAML::MipsABIFlags</text>
</a>
</g>
</g>
<!-- Node1&#45;&gt;Node13 -->
<g id="edge12_Node000001_Node000013" class="edge">
<title>Node1&#45;&gt;Node13</title>
<g id="a_edge12_Node000001_Node000013"><a xlink:title=" ">
<path fill="none" stroke="#63b8ff" d="M287.91,-427.62C297.98,-427.62 308.34,-427.62 318.46,-427.62"/>
<polygon fill="#63b8ff" stroke="#63b8ff" points="288.22,-424.13 278.22,-427.63 288.22,-431.13 288.22,-424.13"/>
</a>
</g>
</g>
<!-- Node14 -->
<g id="Node000014" class="node">
<title>Node14</title>
<g id="a_Node000014"><a xlink:href="structllvm_1_1ELFYAML_1_1NoBitsSection.html" target="_top" xlink:title=" ">
<polygon fill="white" stroke="#666666" points="470.62,-400.25 318.12,-400.25 318.12,-381 470.62,-381 470.62,-400.25"/>
<text xml:space="preserve" text-anchor="middle" x="394.38" y="-386.75" font-family="Helvetica,sans-Serif" font-size="10.00">llvm::ELFYAML::NoBitsSection</text>
</a>
</g>
</g>
<!-- Node1&#45;&gt;Node14 -->
<g id="edge13_Node000001_Node000014" class="edge">
<title>Node1&#45;&gt;Node14</title>
<g id="a_edge13_Node000001_Node000014"><a xlink:title=" ">
<path fill="none" stroke="#63b8ff" d="M275.79,-415.19C298.32,-410.48 323.66,-405.19 345.03,-400.72"/>
<polygon fill="#63b8ff" stroke="#63b8ff" points="275.2,-411.73 266.13,-417.21 276.64,-418.59 275.2,-411.73"/>
</a>
</g>
</g>
<!-- Node15 -->
<g id="Node000015" class="node">
<title>Node15</title>
<g id="a_Node000015"><a xlink:href="structllvm_1_1ELFYAML_1_1NoteSection.html" target="_top" xlink:title=" ">
<polygon fill="white" stroke="#666666" points="466.12,-363.25 322.62,-363.25 322.62,-344 466.12,-344 466.12,-363.25"/>
<text xml:space="preserve" text-anchor="middle" x="394.38" y="-349.75" font-family="Helvetica,sans-Serif" font-size="10.00">llvm::ELFYAML::NoteSection</text>
</a>
</g>
</g>
<!-- Node1&#45;&gt;Node15 -->
<g id="edge14_Node000001_Node000015" class="edge">
<title>Node1&#45;&gt;Node15</title>
<g id="a_edge14_Node000001_Node000015"><a xlink:title=" ">
<path fill="none" stroke="#63b8ff" d="M239.74,-411.18C258.62,-398.67 286.22,-381.91 312.5,-371.62 320.4,-368.53 328.96,-365.91 337.45,-363.7"/>
<polygon fill="#63b8ff" stroke="#63b8ff" points="237.79,-408.27 231.47,-416.78 241.72,-414.07 237.79,-408.27"/>
</a>
</g>
</g>
<!-- Node16 -->
<g id="Node000016" class="node">
<title>Node16</title>
<g id="a_Node000016"><a xlink:href="structllvm_1_1ELFYAML_1_1RawContentSection.html" target="_top" xlink:title=" ">
<polygon fill="white" stroke="#666666" points="466.5,-325.88 322.25,-325.88 322.25,-295.38 466.5,-295.38 466.5,-325.88"/>
<text xml:space="preserve" text-anchor="start" x="330.25" y="-312.38" font-family="Helvetica,sans-Serif" font-size="10.00">llvm::ELFYAML::RawContent</text>
<text xml:space="preserve" text-anchor="middle" x="394.38" y="-301.12" font-family="Helvetica,sans-Serif" font-size="10.00">Section</text>
</a>
</g>
</g>
<!-- Node1&#45;&gt;Node16 -->
<g id="edge15_Node000001_Node000016" class="edge">
<title>Node1&#45;&gt;Node16</title>
<g id="a_edge15_Node000001_Node000016"><a xlink:title=" ">
<path fill="none" stroke="#63b8ff" d="M231.03,-408.67C248.38,-387.65 279.06,-354.14 312.5,-334.62 317.94,-331.45 323.83,-328.66 329.87,-326.23"/>
<polygon fill="#63b8ff" stroke="#63b8ff" points="228.33,-406.44 224.78,-416.43 233.78,-410.83 228.33,-406.44"/>
</a>
</g>
</g>
<!-- Node17 -->
<g id="Node000017" class="node">
<title>Node17</title>
<g id="a_Node000017"><a xlink:href="structllvm_1_1ELFYAML_1_1RelocationSection.html" target="_top" xlink:title=" ">
<polygon fill="white" stroke="#666666" points="462.38,-276.88 326.38,-276.88 326.38,-246.38 462.38,-246.38 462.38,-276.88"/>
<text xml:space="preserve" text-anchor="start" x="334.38" y="-263.38" font-family="Helvetica,sans-Serif" font-size="10.00">llvm::ELFYAML::Relocation</text>
<text xml:space="preserve" text-anchor="middle" x="394.38" y="-252.12" font-family="Helvetica,sans-Serif" font-size="10.00">Section</text>
</a>
</g>
</g>
<!-- Node1&#45;&gt;Node17 -->
<g id="edge16_Node000001_Node000017" class="edge">
<title>Node1&#45;&gt;Node17</title>
<g id="a_edge16_Node000001_Node000017"><a xlink:title=" ">
<path fill="none" stroke="#63b8ff" d="M224.7,-407.46C238.54,-376.83 268.94,-318.77 312.5,-286.62 317.35,-283.05 322.72,-279.97 328.32,-277.34"/>
<polygon fill="#63b8ff" stroke="#63b8ff" points="221.61,-405.79 220.81,-416.35 228.02,-408.59 221.61,-405.79"/>
</a>
</g>
</g>
<!-- Node18 -->
<g id="Node000018" class="node">
<title>Node18</title>
<g id="a_Node000018"><a xlink:href="structllvm_1_1ELFYAML_1_1RelrSection.html" target="_top" xlink:title=" ">
<polygon fill="white" stroke="#666666" points="464.62,-228.25 324.12,-228.25 324.12,-209 464.62,-209 464.62,-228.25"/>
<text xml:space="preserve" text-anchor="middle" x="394.38" y="-214.75" font-family="Helvetica,sans-Serif" font-size="10.00">llvm::ELFYAML::RelrSection</text>
</a>
</g>
</g>
<!-- Node1&#45;&gt;Node18 -->
<g id="edge17_Node000001_Node000018" class="edge">
<title>Node1&#45;&gt;Node18</title>
<g id="a_edge17_Node000001_Node000018"><a xlink:title=" ">
<path fill="none" stroke="#63b8ff" d="M220.66,-406.84C230.15,-367.42 256.37,-281.76 312.5,-237.62 317.15,-233.97 322.38,-231 327.9,-228.58"/>
<polygon fill="#63b8ff" stroke="#63b8ff" points="217.28,-405.91 218.48,-416.43 224.11,-407.46 217.28,-405.91"/>
</a>
</g>
</g>
<!-- Node19 -->
<g id="Node000019" class="node">
<title>Node19</title>
<g id="a_Node000019"><a xlink:href="structllvm_1_1ELFYAML_1_1StackSizesSection.html" target="_top" xlink:title=" ">
<polygon fill="white" stroke="#666666" points="464.25,-190.88 324.5,-190.88 324.5,-160.38 464.25,-160.38 464.25,-190.88"/>
<text xml:space="preserve" text-anchor="start" x="332.5" y="-177.38" font-family="Helvetica,sans-Serif" font-size="10.00">llvm::ELFYAML::StackSizes</text>
<text xml:space="preserve" text-anchor="middle" x="394.38" y="-166.12" font-family="Helvetica,sans-Serif" font-size="10.00">Section</text>
</a>
</g>
</g>
<!-- Node1&#45;&gt;Node19 -->
<g id="edge18_Node000001_Node000019" class="edge">
<title>Node1&#45;&gt;Node19</title>
<g id="a_edge18_Node000001_Node000019"><a xlink:title=" ">
<path fill="none" stroke="#63b8ff" d="M219.08,-406.5C226.21,-361.64 249.12,-256.33 312.5,-199.62 316.1,-196.4 320.12,-193.61 324.38,-191.2"/>
<polygon fill="#63b8ff" stroke="#63b8ff" points="215.65,-405.79 217.65,-416.19 222.57,-406.81 215.65,-405.79"/>
</a>
</g>
</g>
<!-- Node20 -->
<g id="Node000020" class="node">
<title>Node20</title>
<g id="a_Node000020"><a xlink:href="structllvm_1_1ELFYAML_1_1SymtabShndxSection.html" target="_top" xlink:title=" ">
<polygon fill="white" stroke="#666666" points="469.88,-141.88 318.88,-141.88 318.88,-111.38 469.88,-111.38 469.88,-141.88"/>
<text xml:space="preserve" text-anchor="start" x="326.88" y="-128.38" font-family="Helvetica,sans-Serif" font-size="10.00">llvm::ELFYAML::SymtabShndx</text>
<text xml:space="preserve" text-anchor="middle" x="394.38" y="-117.12" font-family="Helvetica,sans-Serif" font-size="10.00">Section</text>
</a>
</g>
</g>
<!-- Node1&#45;&gt;Node20 -->
<g id="edge19_Node000001_Node000020" class="edge">
<title>Node1&#45;&gt;Node20</title>
<g id="a_edge19_Node000001_Node000020"><a xlink:title=" ">
<path fill="none" stroke="#63b8ff" d="M217.37,-406.44C221.24,-355.15 238.27,-223.25 312.5,-151.62 316.2,-148.05 320.4,-144.99 324.9,-142.37"/>
<polygon fill="#63b8ff" stroke="#63b8ff" points="213.89,-405.94 216.74,-416.15 220.88,-406.39 213.89,-405.94"/>
</a>
</g>
</g>
<!-- Node21 -->
<g id="Node000021" class="node">
<title>Node21</title>
<g id="a_Node000021"><a xlink:href="structllvm_1_1ELFYAML_1_1SymverSection.html" target="_top" xlink:title=" ">
<polygon fill="white" stroke="#666666" points="472.5,-93.25 316.25,-93.25 316.25,-74 472.5,-74 472.5,-93.25"/>
<text xml:space="preserve" text-anchor="middle" x="394.38" y="-79.75" font-family="Helvetica,sans-Serif" font-size="10.00">llvm::ELFYAML::SymverSection</text>
</a>
</g>
</g>
<!-- Node1&#45;&gt;Node21 -->
<g id="edge20_Node000001_Node000021" class="edge">
<title>Node1&#45;&gt;Node21</title>
<g id="a_edge20_Node000001_Node000021"><a xlink:title=" ">
<path fill="none" stroke="#63b8ff" d="M215.75,-406.32C215.61,-348.36 223.6,-186.58 312.5,-102.62 316.27,-99.06 320.59,-96.12 325.21,-93.7"/>
<polygon fill="#63b8ff" stroke="#63b8ff" points="212.24,-406.14 215.87,-416.09 219.24,-406.05 212.24,-406.14"/>
</a>
</g>
</g>
<!-- Node22 -->
<g id="Node000022" class="node">
<title>Node22</title>
<g id="a_Node000022"><a xlink:href="structllvm_1_1ELFYAML_1_1VerdefSection.html" target="_top" xlink:title=" ">
<polygon fill="white" stroke="#666666" points="469.88,-56.25 318.88,-56.25 318.88,-37 469.88,-37 469.88,-56.25"/>
<text xml:space="preserve" text-anchor="middle" x="394.38" y="-42.75" font-family="Helvetica,sans-Serif" font-size="10.00">llvm::ELFYAML::VerdefSection</text>
</a>
</g>
</g>
<!-- Node1&#45;&gt;Node22 -->
<g id="edge21_Node000001_Node000022" class="edge">
<title>Node1&#45;&gt;Node22</title>
<g id="a_edge21_Node000001_Node000022"><a xlink:title=" ">
<path fill="none" stroke="#63b8ff" d="M218.96,-406.52C228.39,-336.45 261.93,-113.2 312.5,-64.62 315.72,-61.54 319.34,-58.93 323.22,-56.74"/>
<polygon fill="#63b8ff" stroke="#63b8ff" points="215.52,-405.87 217.68,-416.24 222.46,-406.79 215.52,-405.87"/>
</a>
</g>
</g>
<!-- Node23 -->
<g id="Node000023" class="node">
<title>Node23</title>
<g id="a_Node000023"><a xlink:href="structllvm_1_1ELFYAML_1_1VerneedSection.html" target="_top" xlink:title=" ">
<polygon fill="white" stroke="#666666" points="473.62,-19.25 315.12,-19.25 315.12,0 473.62,0 473.62,-19.25"/>
<text xml:space="preserve" text-anchor="middle" x="394.38" y="-5.75" font-family="Helvetica,sans-Serif" font-size="10.00">llvm::ELFYAML::VerneedSection</text>
</a>
</g>
</g>
<!-- Node1&#45;&gt;Node23 -->
<g id="edge22_Node000001_Node000023" class="edge">
<title>Node1&#45;&gt;Node23</title>
<g id="a_edge22_Node000001_Node000023"><a xlink:title=" ">
<path fill="none" stroke="#63b8ff" d="M218.43,-406.33C226.52,-331.47 257.25,-81.94 312.5,-27.62 315.68,-24.5 319.28,-21.87 323.14,-19.65"/>
<polygon fill="#63b8ff" stroke="#63b8ff" points="214.98,-405.68 217.41,-416 221.94,-406.42 214.98,-405.68"/>
</a>
</g>
</g>
<!-- Node2 -->
<g id="Node000002" class="node">
<title>Node2</title>
<g id="a_Node000002"><a xlink:href="structllvm_1_1ELFYAML_1_1Chunk.html" target="_top" xlink:title=" ">
<polygon fill="white" stroke="#666666" points="118,-437.25 0,-437.25 0,-418 118,-418 118,-437.25"/>
<text xml:space="preserve" text-anchor="middle" x="59" y="-423.75" font-family="Helvetica,sans-Serif" font-size="10.00">llvm::ELFYAML::Chunk</text>
</a>
</g>
</g>
<!-- Node2&#45;&gt;Node1 -->
<g id="edge1_Node000001_Node000002" class="edge">
<title>Node2&#45;&gt;Node1</title>
<g id="a_edge1_Node000001_Node000002"><a xlink:title=" ">
<path fill="none" stroke="#63b8ff" d="M129.81,-427.62C137.73,-427.62 145.75,-427.62 153.54,-427.62"/>
<polygon fill="#63b8ff" stroke="#63b8ff" points="129.83,-424.13 119.83,-427.63 129.83,-431.13 129.83,-424.13"/>
</a>
</g>
</g>
</g>
</svg>
