<?xml version="1.0" encoding="UTF-8" standalone="no"?>
<!DOCTYPE svg PUBLIC "-//W3C//DTD SVG 1.1//EN"
 "http://www.w3.org/Graphics/SVG/1.1/DTD/svg11.dtd">
<!-- Generated by graphviz version 14.1.3 (20260303.0454)
 -->
<!-- Title: llvm::ilist_detail::IteratorHelper&lt; IsReverse &gt; Pages: 1 -->
<svg width="354pt" height="88pt"
 viewBox="0.00 0.00 354.00 88.00" xmlns="http://www.w3.org/2000/svg" xmlns:xlink="http://www.w3.org/1999/xlink">
<g id="graph0" class="graph" transform="scale(1 1) rotate(0) translate(4 83.5)">
<title>llvm::ilist_detail::IteratorHelper&lt; IsReverse &gt;</title>
<!-- Node1 -->
<g id="Node000001" class="node">
<title>Node1</title>
<g id="a_Node000001"><a xlink:title=" ">
<polygon fill="#999999" stroke="#666666" points="144.25,-54.5 0,-54.5 0,-24 144.25,-24 144.25,-54.5"/>
<text xml:space="preserve" text-anchor="start" x="8" y="-41" font-family="Helvetica,sans-Serif" font-size="10.00">llvm::ilist_detail</text>
<text xml:space="preserve" text-anchor="middle" x="72.12" y="-29.75" font-family="Helvetica,sans-Serif" font-size="10.00">::IteratorHelper&lt; IsReverse &gt;</text>
</a>
</g>
</g>
<!-- Node2 -->
<g id="Node000002" class="node">
<title>Node2</title>
<g id="a_Node000002"><a xlink:href="structllvm_1_1ilist__detail_1_1IteratorHelper_3_01false_01_4.html" target="_top" xlink:title=" ">
<polygon fill="white" stroke="#666666" points="345.5,-79.5 225.25,-79.5 225.25,-49 345.5,-49 345.5,-79.5"/>
<text xml:space="preserve" text-anchor="start" x="233.25" y="-66" font-family="Helvetica,sans-Serif" font-size="10.00">llvm::ilist_detail</text>
<text xml:space="preserve" text-anchor="middle" x="285.38" y="-54.75" font-family="Helvetica,sans-Serif" font-size="10.00">::IteratorHelper&lt; false &gt;</text>
</a>
</g>
</g>
<!-- Node1&#45;&gt;Node2 -->
<g id="edge1_Node000001_Node000002" class="edge">
<title>Node1&#45;&gt;Node2</title>
<g id="a_edge1_Node000001_Node000002"><a xlink:title=" ">
<path fill="none" stroke="orange" stroke-dasharray="5,2" d="M155.82,-49.04C178.87,-51.76 203.45,-54.67 224.88,-57.21"/>
<polygon fill="orange" stroke="orange" points="156.49,-45.59 146.15,-47.89 155.67,-52.54 156.49,-45.59"/>
</a>
</g>
<text xml:space="preserve" text-anchor="start" x="165.25" y="-60.72" font-family="Helvetica,sans-Serif" font-size="10.00" fill="grey">&lt; false &gt;</text>
</g>
<!-- Node3 -->
<g id="Node000003" class="node">
<title>Node3</title>
<g id="a_Node000003"><a xlink:href="structllvm_1_1ilist__detail_1_1IteratorHelper_3_01true_01_4.html" target="_top" xlink:title=" ">
<polygon fill="white" stroke="#666666" points="343.25,-30.5 227.5,-30.5 227.5,0 343.25,0 343.25,-30.5"/>
<text xml:space="preserve" text-anchor="start" x="235.5" y="-17" font-family="Helvetica,sans-Serif" font-size="10.00">llvm::ilist_detail</text>
<text xml:space="preserve" text-anchor="middle" x="285.38" y="-5.75" font-family="Helvetica,sans-Serif" font-size="10.00">::IteratorHelper&lt; true &gt;</text>
</a>
</g>
</g>
<!-- Node1&#45;&gt;Node3 -->
<g id="edge2_Node000001_Node000003" class="edge">
<title>Node1&#45;&gt;Node3</title>
<g id="a_edge2_Node000001_Node000003"><a xlink:title=" ">
<path fill="none" stroke="orange" stroke-dasharray="5,2" d="M155.7,-25.81C157.9,-25.53 160.09,-25.26 162.25,-25 183.37,-22.47 206.62,-20.43 227.12,-18.88"/>
<polygon fill="orange" stroke="orange" points="155.51,-22.31 146.06,-27.12 156.44,-29.25 155.51,-22.31"/>
</a>
</g>
<text xml:space="preserve" text-anchor="start" x="167.5" y="-31" font-family="Helvetica,sans-Serif" font-size="10.00" fill="grey">&lt; true &gt;</text>
</g>
</g>
</svg>
