<?xml version="1.0" encoding="UTF-8" standalone="no"?>
<!DOCTYPE svg PUBLIC "-//W3C//DTD SVG 1.1//EN"
 "http://www.w3.org/Graphics/SVG/1.1/DTD/svg11.dtd">
<!-- Generated by graphviz version 14.1.3 (20260303.0454)
 -->
<!-- Title: llvm::RegisterPressure Pages: 1 -->
<svg width="248pt" height="83pt"
 viewBox="0.00 0.00 248.00 83.00" xmlns="http://www.w3.org/2000/svg" xmlns:xlink="http://www.w3.org/1999/xlink">
<g id="graph0" class="graph" transform="scale(1 1) rotate(0) translate(4 78.5)">
<title>llvm::RegisterPressure</title>
<!-- Node1 -->
<g id="Node000001" class="node">
<title>Node1</title>
<g id="a_Node000001"><a xlink:title="Base class for register pressure results.">
<polygon fill="#999999" stroke="#666666" points="177.5,-74.5 61.75,-74.5 61.75,-55.25 177.5,-55.25 177.5,-74.5"/>
<text xml:space="preserve" text-anchor="middle" x="119.62" y="-61" font-family="Helvetica,sans-Serif" font-size="10.00">llvm::RegisterPressure</text>
</a>
</g>
</g>
<!-- Node2 -->
<g id="Node000002" class="node">
<title>Node2</title>
<g id="a_Node000002"><a xlink:href="structllvm_1_1IntervalPressure.html" target="_top" xlink:title="RegisterPressure computed within a region of instructions delimited by TopIdx and BottomIdx.">
<polygon fill="white" stroke="#666666" points="111.25,-19.25 0,-19.25 0,0 111.25,0 111.25,-19.25"/>
<text xml:space="preserve" text-anchor="middle" x="55.62" y="-5.75" font-family="Helvetica,sans-Serif" font-size="10.00">llvm::IntervalPressure</text>
</a>
</g>
</g>
<!-- Node1&#45;&gt;Node2 -->
<g id="edge1_Node000001_Node000002" class="edge">
<title>Node1&#45;&gt;Node2</title>
<g id="a_edge1_Node000001_Node000002"><a xlink:title=" ">
<path fill="none" stroke="#63b8ff" d="M100.14,-47.66C89.03,-38.42 75.52,-27.18 66.32,-19.52"/>
<polygon fill="#63b8ff" stroke="#63b8ff" points="97.68,-50.17 107.6,-53.87 102.16,-44.79 97.68,-50.17"/>
</a>
</g>
</g>
<!-- Node3 -->
<g id="Node000003" class="node">
<title>Node3</title>
<g id="a_Node000003"><a xlink:href="structllvm_1_1RegionPressure.html" target="_top" xlink:title="RegisterPressure computed within a region of instructions delimited by TopPos and BottomPos.">
<polygon fill="white" stroke="#666666" points="239.5,-19.25 129.75,-19.25 129.75,0 239.5,0 239.5,-19.25"/>
<text xml:space="preserve" text-anchor="middle" x="184.62" y="-5.75" font-family="Helvetica,sans-Serif" font-size="10.00">llvm::RegionPressure</text>
</a>
</g>
</g>
<!-- Node1&#45;&gt;Node3 -->
<g id="edge2_Node000001_Node000003" class="edge">
<title>Node1&#45;&gt;Node3</title>
<g id="a_edge2_Node000001_Node000003"><a xlink:title=" ">
<path fill="none" stroke="#63b8ff" d="M139.41,-47.66C150.7,-38.42 164.42,-27.18 173.76,-19.52"/>
<polygon fill="#63b8ff" stroke="#63b8ff" points="137.34,-44.84 131.82,-53.88 141.78,-50.25 137.34,-44.84"/>
</a>
</g>
</g>
</g>
</svg>
