<?xml version="1.0" encoding="UTF-8" standalone="no"?>
<!DOCTYPE svg PUBLIC "-//W3C//DTD SVG 1.1//EN"
 "http://www.w3.org/Graphics/SVG/1.1/DTD/svg11.dtd">
<!-- Generated by graphviz version 14.1.3 (20260303.0454)
 -->
<!-- Title: llvm::idf_ext_iterator&lt; T, SetTy &gt; Pages: 1 -->
<svg width="183pt" height="238pt"
 viewBox="0.00 0.00 183.00 238.00" xmlns="http://www.w3.org/2000/svg" xmlns:xlink="http://www.w3.org/1999/xlink">
<g id="graph0" class="graph" transform="scale(1 1) rotate(0) translate(4 234)">
<title>llvm::idf_ext_iterator&lt; T, SetTy &gt;</title>
<!-- Node1 -->
<g id="Node000001" class="node">
<title>Node1</title>
<g id="a_Node000001"><a xlink:title=" ">
<polygon fill="#999999" stroke="#666666" points="139.75,-30.5 35.25,-30.5 35.25,0 139.75,0 139.75,-30.5"/>
<text xml:space="preserve" text-anchor="start" x="43.25" y="-17" font-family="Helvetica,sans-Serif" font-size="10.00">llvm::idf_ext_iterator</text>
<text xml:space="preserve" text-anchor="middle" x="87.5" y="-5.75" font-family="Helvetica,sans-Serif" font-size="10.00">&lt; T, SetTy &gt;</text>
</a>
</g>
</g>
<!-- Node2 -->
<g id="Node000002" class="node">
<title>Node2</title>
<g id="a_Node000002"><a xlink:href="structllvm_1_1idf__iterator.html" target="_top" xlink:title=" ">
<polygon fill="white" stroke="#666666" points="143.12,-97 31.88,-97 31.88,-66.5 143.12,-66.5 143.12,-97"/>
<text xml:space="preserve" text-anchor="start" x="39.88" y="-83.5" font-family="Helvetica,sans-Serif" font-size="10.00">llvm::idf_iterator</text>
<text xml:space="preserve" text-anchor="middle" x="87.5" y="-72.25" font-family="Helvetica,sans-Serif" font-size="10.00">&lt; T, SetTy, External &gt;</text>
</a>
</g>
</g>
<!-- Node2&#45;&gt;Node1 -->
<g id="edge1_Node000001_Node000002" class="edge">
<title>Node2&#45;&gt;Node1</title>
<g id="a_edge1_Node000001_Node000002"><a xlink:title=" ">
<path fill="none" stroke="#63b8ff" d="M87.5,-54.81C87.5,-46.64 87.5,-37.91 87.5,-30.83"/>
<polygon fill="#63b8ff" stroke="#63b8ff" points="84,-54.6 87.5,-64.6 91,-54.6 84,-54.6"/>
</a>
</g>
</g>
<!-- Node3 -->
<g id="Node000003" class="node">
<title>Node3</title>
<g id="a_Node000003"><a xlink:href="classllvm_1_1df__iterator.html" target="_top" xlink:title=" ">
<polygon fill="white" stroke="#666666" points="175,-163.5 0,-163.5 0,-133 175,-133 175,-163.5"/>
<text xml:space="preserve" text-anchor="start" x="8" y="-150" font-family="Helvetica,sans-Serif" font-size="10.00">llvm::df_iterator&lt;</text>
<text xml:space="preserve" text-anchor="middle" x="87.5" y="-138.75" font-family="Helvetica,sans-Serif" font-size="10.00"> GraphT, SetType, ExtStorage, GT &gt;</text>
</a>
</g>
</g>
<!-- Node3&#45;&gt;Node2 -->
<g id="edge2_Node000002_Node000003" class="edge">
<title>Node3&#45;&gt;Node2</title>
<g id="a_edge2_Node000002_Node000003"><a xlink:title=" ">
<path fill="none" stroke="#63b8ff" d="M87.5,-121.31C87.5,-113.14 87.5,-104.41 87.5,-97.33"/>
<polygon fill="#63b8ff" stroke="#63b8ff" points="84,-121.1 87.5,-131.1 91,-121.1 84,-121.1"/>
</a>
</g>
</g>
<!-- Node4 -->
<g id="Node000004" class="node">
<title>Node4</title>
<g id="a_Node000004"><a xlink:href="classllvm_1_1df__iterator__storage.html" target="_top" xlink:title=" ">
<polygon fill="white" stroke="#666666" points="148,-230 27,-230 27,-199.5 148,-199.5 148,-230"/>
<text xml:space="preserve" text-anchor="start" x="35" y="-216.5" font-family="Helvetica,sans-Serif" font-size="10.00">llvm::df_iterator_storage</text>
<text xml:space="preserve" text-anchor="middle" x="87.5" y="-205.25" font-family="Helvetica,sans-Serif" font-size="10.00">&lt; SetType, External &gt;</text>
</a>
</g>
</g>
<!-- Node4&#45;&gt;Node3 -->
<g id="edge3_Node000003_Node000004" class="edge">
<title>Node4&#45;&gt;Node3</title>
<g id="a_edge3_Node000003_Node000004"><a xlink:title=" ">
<path fill="none" stroke="#63b8ff" d="M87.5,-187.81C87.5,-179.64 87.5,-170.91 87.5,-163.83"/>
<polygon fill="#63b8ff" stroke="#63b8ff" points="84,-187.6 87.5,-197.6 91,-187.6 84,-187.6"/>
</a>
</g>
</g>
</g>
</svg>
