<?xml version="1.0" encoding="UTF-8" standalone="no"?>
<!DOCTYPE svg PUBLIC "-//W3C//DTD SVG 1.1//EN"
 "http://www.w3.org/Graphics/SVG/1.1/DTD/svg11.dtd">
<!-- Generated by graphviz version 14.1.3 (20260303.0454)
 -->
<!-- Title: llvm::DenseMapInfo&lt; AAPointerInfo::Access &gt; Pages: 1 -->
<svg width="289pt" height="190pt"
 viewBox="0.00 0.00 289.00 190.00" xmlns="http://www.w3.org/2000/svg" xmlns:xlink="http://www.w3.org/1999/xlink">
<g id="graph0" class="graph" transform="scale(1 1) rotate(0) translate(4 185.75)">
<title>llvm::DenseMapInfo&lt; AAPointerInfo::Access &gt;</title>
<!-- Node1 -->
<g id="Node000001" class="node">
<title>Node1</title>
<g id="a_Node000001"><a xlink:title="Helper for AA::PointerInfo::Access DenseMap/Set usage.">
<polygon fill="#999999" stroke="#666666" points="156.38,-30.5 23.38,-30.5 23.38,0 156.38,0 156.38,-30.5"/>
<text xml:space="preserve" text-anchor="start" x="31.38" y="-17" font-family="Helvetica,sans-Serif" font-size="10.00">llvm::DenseMapInfo</text>
<text xml:space="preserve" text-anchor="middle" x="89.88" y="-5.75" font-family="Helvetica,sans-Serif" font-size="10.00">&lt; AAPointerInfo::Access &gt;</text>
</a>
</g>
</g>
<!-- Node2 -->
<g id="Node000002" class="node">
<title>Node2</title>
<g id="a_Node000002"><a xlink:href="structllvm_1_1DenseMapInfo.html" target="_top" xlink:title=" ">
<polygon fill="white" stroke="#666666" points="280.75,-98 177,-98 177,-67.5 280.75,-67.5 280.75,-98"/>
<text xml:space="preserve" text-anchor="start" x="185" y="-84.5" font-family="Helvetica,sans-Serif" font-size="10.00">llvm::DenseMapInfo</text>
<text xml:space="preserve" text-anchor="middle" x="228.88" y="-73.25" font-family="Helvetica,sans-Serif" font-size="10.00">&lt; Instruction * &gt;</text>
</a>
</g>
</g>
<!-- Node2&#45;&gt;Node1 -->
<g id="edge1_Node000001_Node000002" class="edge">
<title>Node2&#45;&gt;Node1</title>
<g id="a_edge1_Node000001_Node000002"><a xlink:title=" ">
<path fill="none" stroke="#63b8ff" d="M187.3,-62.16C166.01,-52.13 140.53,-40.12 120.97,-30.9"/>
<polygon fill="#63b8ff" stroke="#63b8ff" points="185.77,-65.31 196.31,-66.41 188.76,-58.98 185.77,-65.31"/>
</a>
</g>
</g>
<!-- Node3 -->
<g id="Node000003" class="node">
<title>Node3</title>
<g id="a_Node000003"><a xlink:href="structllvm_1_1DenseMapInfo.html" target="_top" xlink:title="An information struct used to provide DenseMap with the various necessary components for a given valu...">
<polygon fill="white" stroke="#666666" points="103.75,-181.75 0,-181.75 0,-151.25 103.75,-151.25 103.75,-181.75"/>
<text xml:space="preserve" text-anchor="start" x="8" y="-168.25" font-family="Helvetica,sans-Serif" font-size="10.00">llvm::DenseMapInfo</text>
<text xml:space="preserve" text-anchor="middle" x="51.88" y="-157" font-family="Helvetica,sans-Serif" font-size="10.00">&lt; T, Enable &gt;</text>
</a>
</g>
</g>
<!-- Node3&#45;&gt;Node1 -->
<g id="edge3_Node000001_Node000003" class="edge">
<title>Node3&#45;&gt;Node1</title>
<g id="a_edge3_Node000001_Node000003"><a xlink:title=" ">
<path fill="none" stroke="orange" stroke-dasharray="5,2" d="M44.29,-139.86C39.63,-119.57 36.07,-90.87 44.88,-67.5 50.3,-53.1 61.82,-40.1 71.85,-30.81"/>
<polygon fill="orange" stroke="orange" points="40.9,-140.72 46.77,-149.54 47.67,-138.98 40.9,-140.72"/>
</a>
</g>
<text xml:space="preserve" text-anchor="start" x="47.88" y="-80.12" font-family="Helvetica,sans-Serif" font-size="10.00" fill="grey">&lt; AAPointerInfo::Access &gt;</text>
</g>
<!-- Node3&#45;&gt;Node2 -->
<g id="edge2_Node000002_Node000003" class="edge">
<title>Node3&#45;&gt;Node2</title>
<g id="a_edge2_Node000002_Node000003"><a xlink:title=" ">
<path fill="none" stroke="orange" stroke-dasharray="5,2" d="M93.8,-146.13C125.5,-131.49 168.34,-111.71 197.21,-98.38"/>
<polygon fill="orange" stroke="orange" points="92.5,-142.88 84.89,-150.25 95.44,-149.23 92.5,-142.88"/>
</a>
</g>
<text xml:space="preserve" text-anchor="start" x="159.23" y="-122" font-family="Helvetica,sans-Serif" font-size="10.00" fill="grey">&lt; Instruction * &gt;</text>
</g>
</g>
</svg>
