<?xml version="1.0" encoding="UTF-8" standalone="no"?>
<!DOCTYPE svg PUBLIC "-//W3C//DTD SVG 1.1//EN"
 "http://www.w3.org/Graphics/SVG/1.1/DTD/svg11.dtd">
<!-- Generated by graphviz version 14.1.3 (20260303.0454)
 -->
<!-- Title: llvm::df_iterator_default_set&lt; NodeRef, SmallSize &gt; Pages: 1 -->
<svg width="1337pt" height="115pt"
 viewBox="0.00 0.00 1337.00 115.00" xmlns="http://www.w3.org/2000/svg" xmlns:xlink="http://www.w3.org/1999/xlink">
<g id="graph0" class="graph" transform="scale(1 1) rotate(0) translate(4 111.24)">
<title>llvm::df_iterator_default_set&lt; NodeRef, SmallSize &gt;</title>
<!-- Node1 -->
<g id="Node000001" class="node">
<title>Node1</title>
<g id="a_Node000001"><a xlink:title=" ">
<polygon fill="#999999" stroke="#666666" points="1036.5,-66.12 894.5,-66.12 894.5,-35.62 1036.5,-35.62 1036.5,-66.12"/>
<text xml:space="preserve" text-anchor="start" x="902.5" y="-52.62" font-family="Helvetica,sans-Serif" font-size="10.00">llvm::df_iterator_default</text>
<text xml:space="preserve" text-anchor="middle" x="965.5" y="-41.38" font-family="Helvetica,sans-Serif" font-size="10.00">_set&lt; NodeRef, SmallSize &gt;</text>
</a>
</g>
</g>
<!-- Node9 -->
<g id="Node000009" class="node">
<title>Node9</title>
<g id="a_Node000009"><a xlink:href="structllvm_1_1df__iterator__default__set.html" target="_top" xlink:title=" ">
<polygon fill="white" stroke="#666666" points="1329.25,-101.75 1188.75,-101.75 1188.75,-60 1329.25,-60 1329.25,-101.75"/>
<text xml:space="preserve" text-anchor="start" x="1196.75" y="-88.25" font-family="Helvetica,sans-Serif" font-size="10.00">llvm::df_iterator_default</text>
<text xml:space="preserve" text-anchor="start" x="1196.75" y="-77" font-family="Helvetica,sans-Serif" font-size="10.00">_set&lt; typename GraphTraits</text>
<text xml:space="preserve" text-anchor="middle" x="1259" y="-65.75" font-family="Helvetica,sans-Serif" font-size="10.00">&lt; T &gt;::NodeRef &gt;</text>
</a>
</g>
</g>
<!-- Node1&#45;&gt;Node9 -->
<g id="edge10_Node000001_Node000009" class="edge">
<title>Node1&#45;&gt;Node9</title>
<g id="a_edge10_Node000001_Node000009"><a xlink:title=" ">
<path fill="none" stroke="orange" stroke-dasharray="5,2" d="M1047.99,-59.26C1092.18,-63.81 1146.22,-69.37 1188.42,-73.71"/>
<polygon fill="orange" stroke="orange" points="1048.5,-55.8 1038.2,-58.25 1047.79,-62.76 1048.5,-55.8"/>
</a>
</g>
<text xml:space="preserve" text-anchor="start" x="1059.75" y="-92.42" font-family="Helvetica,sans-Serif" font-size="10.00" fill="grey">&lt; typename GraphTraits</text>
<text xml:space="preserve" text-anchor="start" x="1059.75" y="-77.17" font-family="Helvetica,sans-Serif" font-size="10.00" fill="grey">  &lt; T &gt;::NodeRef &gt;</text>
</g>
<!-- Node10 -->
<g id="Node000010" class="node">
<title>Node10</title>
<g id="a_Node000010"><a xlink:href="structllvm_1_1df__iterator__default__set.html" target="_top" xlink:title=" ">
<polygon fill="white" stroke="#666666" points="1329.25,-41.75 1188.75,-41.75 1188.75,0 1329.25,0 1329.25,-41.75"/>
<text xml:space="preserve" text-anchor="start" x="1196.75" y="-28.25" font-family="Helvetica,sans-Serif" font-size="10.00">llvm::df_iterator_default</text>
<text xml:space="preserve" text-anchor="start" x="1196.75" y="-17" font-family="Helvetica,sans-Serif" font-size="10.00">_set&lt; typename GraphTraits</text>
<text xml:space="preserve" text-anchor="middle" x="1259" y="-5.75" font-family="Helvetica,sans-Serif" font-size="10.00">&lt; GraphT &gt;::NodeRef &gt;</text>
</a>
</g>
</g>
<!-- Node1&#45;&gt;Node10 -->
<g id="edge11_Node000001_Node000010" class="edge">
<title>Node1&#45;&gt;Node10</title>
<g id="a_edge11_Node000001_Node000010"><a xlink:title=" ">
<path fill="none" stroke="orange" stroke-dasharray="5,2" d="M1020.65,-32.03C1031.72,-28.9 1043.39,-26.11 1054.5,-24.38 1098.66,-17.48 1148.87,-16.55 1188.37,-17.36"/>
<polygon fill="orange" stroke="orange" points="1019.86,-28.61 1011.27,-34.82 1021.85,-35.32 1019.86,-28.61"/>
</a>
</g>
<text xml:space="preserve" text-anchor="start" x="1057.5" y="-45.62" font-family="Helvetica,sans-Serif" font-size="10.00" fill="grey">&lt; typename GraphTraits</text>
<text xml:space="preserve" text-anchor="start" x="1057.5" y="-30.38" font-family="Helvetica,sans-Serif" font-size="10.00" fill="grey">  &lt; GraphT &gt;::NodeRef &gt;</text>
</g>
<!-- Node2 -->
<g id="Node000002" class="node">
<title>Node2</title>
<g id="a_Node000002"><a xlink:href="classllvm_1_1SmallPtrSet.html" target="_top" xlink:title=" ">
<polygon fill="white" stroke="#666666" points="857.5,-66.12 759,-66.12 759,-35.62 857.5,-35.62 857.5,-66.12"/>
<text xml:space="preserve" text-anchor="start" x="767" y="-52.62" font-family="Helvetica,sans-Serif" font-size="10.00">llvm::SmallPtrSet&lt;</text>
<text xml:space="preserve" text-anchor="middle" x="808.25" y="-41.38" font-family="Helvetica,sans-Serif" font-size="10.00"> NodeRef, 8 &gt;</text>
</a>
</g>
</g>
<!-- Node2&#45;&gt;Node1 -->
<g id="edge1_Node000001_Node000002" class="edge">
<title>Node2&#45;&gt;Node1</title>
<g id="a_edge1_Node000001_Node000002"><a xlink:title=" ">
<path fill="none" stroke="#63b8ff" d="M869.23,-50.88C877.37,-50.88 885.78,-50.88 894.09,-50.88"/>
<polygon fill="#63b8ff" stroke="#63b8ff" points="869.46,-47.38 859.46,-50.88 869.46,-54.38 869.46,-47.38"/>
</a>
</g>
</g>
<!-- Node3 -->
<g id="Node000003" class="node">
<title>Node3</title>
<g id="a_Node000003"><a xlink:href="classllvm_1_1SmallPtrSetImpl.html" target="_top" xlink:title=" ">
<polygon fill="white" stroke="#666666" points="648.38,-91.12 537.12,-91.12 537.12,-60.62 648.38,-60.62 648.38,-91.12"/>
<text xml:space="preserve" text-anchor="start" x="545.12" y="-77.62" font-family="Helvetica,sans-Serif" font-size="10.00">llvm::SmallPtrSetImpl</text>
<text xml:space="preserve" text-anchor="middle" x="592.75" y="-66.38" font-family="Helvetica,sans-Serif" font-size="10.00">&lt; NodeRef &gt;</text>
</a>
</g>
</g>
<!-- Node3&#45;&gt;Node2 -->
<g id="edge2_Node000002_Node000003" class="edge">
<title>Node3&#45;&gt;Node2</title>
<g id="a_edge2_Node000002_Node000003"><a xlink:title=" ">
<path fill="none" stroke="#63b8ff" d="M659.77,-68.14C691.71,-64.4 729.37,-59.99 758.64,-56.57"/>
<polygon fill="#63b8ff" stroke="#63b8ff" points="659.76,-64.62 650.23,-69.26 660.57,-71.57 659.76,-64.62"/>
</a>
</g>
</g>
<!-- Node4 -->
<g id="Node000004" class="node">
<title>Node4</title>
<g id="a_Node000004"><a xlink:href="classllvm_1_1SmallPtrSetImplBase.html" target="_top" xlink:title="SmallPtrSetImplBase &#45; This is the common code shared among all the SmallPtrSet&lt;&gt;&#39;s,...">
<polygon fill="white" stroke="#666666" points="289.5,-85.5 155.75,-85.5 155.75,-66.25 289.5,-66.25 289.5,-85.5"/>
<text xml:space="preserve" text-anchor="middle" x="222.62" y="-72" font-family="Helvetica,sans-Serif" font-size="10.00">llvm::SmallPtrSetImplBase</text>
</a>
</g>
</g>
<!-- Node4&#45;&gt;Node3 -->
<g id="edge3_Node000003_Node000004" class="edge">
<title>Node4&#45;&gt;Node3</title>
<g id="a_edge3_Node000003_Node000004"><a xlink:title=" ">
<path fill="none" stroke="#63b8ff" d="M268.98,-88.82C286.75,-93.27 307.43,-97.68 326.5,-99.88 411.39,-109.65 434.37,-110.37 518.75,-96.88 526.82,-95.58 535.27,-93.69 543.43,-91.55"/>
<polygon fill="#63b8ff" stroke="#63b8ff" points="270.06,-85.48 259.5,-86.37 268.31,-92.26 270.06,-85.48"/>
</a>
</g>
</g>
<!-- Node6 -->
<g id="Node000006" class="node">
<title>Node6</title>
<g id="a_Node000006"><a xlink:href="classllvm_1_1SmallPtrSetImpl.html" target="_top" xlink:title="A templated base class for SmallPtrSet which provides the typesafe interface that is common across al...">
<polygon fill="white" stroke="#666666" points="437.75,-91.12 326.5,-91.12 326.5,-60.62 437.75,-60.62 437.75,-91.12"/>
<text xml:space="preserve" text-anchor="start" x="334.5" y="-77.62" font-family="Helvetica,sans-Serif" font-size="10.00">llvm::SmallPtrSetImpl</text>
<text xml:space="preserve" text-anchor="middle" x="382.12" y="-66.38" font-family="Helvetica,sans-Serif" font-size="10.00">&lt; PtrType &gt;</text>
</a>
</g>
</g>
<!-- Node4&#45;&gt;Node6 -->
<g id="edge6_Node000006_Node000004" class="edge">
<title>Node4&#45;&gt;Node6</title>
<g id="a_edge6_Node000006_Node000004"><a xlink:title=" ">
<path fill="none" stroke="#63b8ff" d="M301.39,-75.88C309.81,-75.88 318.24,-75.88 326.3,-75.88"/>
<polygon fill="#63b8ff" stroke="#63b8ff" points="301.48,-72.38 291.48,-75.88 301.48,-79.38 301.48,-72.38"/>
</a>
</g>
</g>
<!-- Node8 -->
<g id="Node000008" class="node">
<title>Node8</title>
<g id="a_Node000008"><a xlink:href="classllvm_1_1SmallPtrSetImpl.html" target="_top" xlink:title="A templated base class for SmallPtrSet which provides the typesafe interface that is common across al...">
<polygon fill="white" stroke="#666666" points="437.75,-42.12 326.5,-42.12 326.5,-11.62 437.75,-11.62 437.75,-42.12"/>
<text xml:space="preserve" text-anchor="start" x="334.5" y="-28.62" font-family="Helvetica,sans-Serif" font-size="10.00">llvm::SmallPtrSetImpl</text>
<text xml:space="preserve" text-anchor="middle" x="382.12" y="-17.38" font-family="Helvetica,sans-Serif" font-size="10.00">&lt; PtrType &gt;</text>
</a>
</g>
</g>
<!-- Node4&#45;&gt;Node8 -->
<g id="edge9_Node000008_Node000004" class="edge">
<title>Node4&#45;&gt;Node8</title>
<g id="a_edge9_Node000008_Node000004"><a xlink:title=" ">
<path fill="none" stroke="#63b8ff" d="M266.72,-62.47C286.48,-56.32 310.03,-48.99 330.62,-42.59"/>
<polygon fill="#63b8ff" stroke="#63b8ff" points="265.83,-59.08 257.32,-65.39 267.91,-65.76 265.83,-59.08"/>
</a>
</g>
</g>
<!-- Node5 -->
<g id="Node000005" class="node">
<title>Node5</title>
<g id="a_Node000005"><a xlink:href="classllvm_1_1DebugEpochBase.html" target="_top" xlink:title=" ">
<polygon fill="white" stroke="#666666" points="118.75,-85.5 0,-85.5 0,-66.25 118.75,-66.25 118.75,-85.5"/>
<text xml:space="preserve" text-anchor="middle" x="59.38" y="-72" font-family="Helvetica,sans-Serif" font-size="10.00">llvm::DebugEpochBase</text>
</a>
</g>
</g>
<!-- Node5&#45;&gt;Node4 -->
<g id="edge4_Node000004_Node000005" class="edge">
<title>Node5&#45;&gt;Node4</title>
<g id="a_edge4_Node000004_Node000005"><a xlink:title=" ">
<path fill="none" stroke="#63b8ff" d="M130.55,-75.88C138.79,-75.88 147.17,-75.88 155.35,-75.88"/>
<polygon fill="#63b8ff" stroke="#63b8ff" points="130.56,-72.38 120.56,-75.88 130.56,-79.38 130.56,-72.38"/>
</a>
</g>
</g>
<!-- Node6&#45;&gt;Node3 -->
<g id="edge5_Node000003_Node000006" class="edge">
<title>Node6&#45;&gt;Node3</title>
<g id="a_edge5_Node000003_Node000006"><a xlink:title=" ">
<path fill="none" stroke="orange" stroke-dasharray="5,2" d="M449.56,-75.88C477.65,-75.88 509.99,-75.88 536.72,-75.88"/>
<polygon fill="orange" stroke="orange" points="449.73,-72.38 439.73,-75.88 449.73,-79.38 449.73,-72.38"/>
</a>
</g>
<text xml:space="preserve" text-anchor="start" x="458.75" y="-81.88" font-family="Helvetica,sans-Serif" font-size="10.00" fill="grey">&lt; NodeRef &gt;</text>
</g>
<!-- Node7 -->
<g id="Node000007" class="node">
<title>Node7</title>
<g id="a_Node000007"><a xlink:href="classllvm_1_1SmallPtrSet.html" target="_top" xlink:title="SmallPtrSet &#45; This class implements a set which is optimized for holding SmallSize or less elements.">
<polygon fill="white" stroke="#666666" points="648.75,-42.12 536.75,-42.12 536.75,-11.62 648.75,-11.62 648.75,-42.12"/>
<text xml:space="preserve" text-anchor="start" x="544.75" y="-28.62" font-family="Helvetica,sans-Serif" font-size="10.00">llvm::SmallPtrSet&lt;</text>
<text xml:space="preserve" text-anchor="middle" x="592.75" y="-17.38" font-family="Helvetica,sans-Serif" font-size="10.00"> PtrType, SmallSize &gt;</text>
</a>
</g>
</g>
<!-- Node7&#45;&gt;Node2 -->
<g id="edge7_Node000002_Node000007" class="edge">
<title>Node7&#45;&gt;Node2</title>
<g id="a_edge7_Node000002_Node000007"><a xlink:title=" ">
<path fill="none" stroke="orange" stroke-dasharray="5,2" d="M660.43,-31.49C685.72,-33.54 714.73,-36.26 741,-39.62 746.79,-40.37 752.84,-41.25 758.83,-42.18"/>
<polygon fill="orange" stroke="orange" points="660.86,-28.01 650.61,-30.71 660.31,-34.99 660.86,-28.01"/>
</a>
</g>
<text xml:space="preserve" text-anchor="start" x="669.75" y="-45.62" font-family="Helvetica,sans-Serif" font-size="10.00" fill="grey">&lt; NodeRef, 8 &gt;</text>
</g>
<!-- Node8&#45;&gt;Node7 -->
<g id="edge8_Node000007_Node000008" class="edge">
<title>Node8&#45;&gt;Node7</title>
<g id="a_edge8_Node000007_Node000008"><a xlink:title=" ">
<path fill="none" stroke="#63b8ff" d="M449.51,-26.88C477.49,-26.88 509.68,-26.88 536.35,-26.88"/>
<polygon fill="#63b8ff" stroke="#63b8ff" points="449.73,-23.38 439.73,-26.88 449.73,-30.38 449.73,-23.38"/>
</a>
</g>
</g>
</g>
</svg>
