<?xml version="1.0" encoding="UTF-8" standalone="no"?>
<!DOCTYPE svg PUBLIC "-//W3C//DTD SVG 1.1//EN"
 "http://www.w3.org/Graphics/SVG/1.1/DTD/svg11.dtd">
<!-- Generated by graphviz version 14.1.3 (20260303.0454)
 -->
<!-- Title: llvm::orc::MachOBuilder&lt; MachOTraits &gt;::Segment Pages: 1 -->
<svg width="897pt" height="63pt"
 viewBox="0.00 0.00 897.00 63.00" xmlns="http://www.w3.org/2000/svg" xmlns:xlink="http://www.w3.org/1999/xlink">
<g id="graph0" class="graph" transform="scale(1 1) rotate(0) translate(4 58.5)">
<title>llvm::orc::MachOBuilder&lt; MachOTraits &gt;::Segment</title>
<!-- Node1 -->
<g id="Node000001" class="node">
<title>Node1</title>
<g id="a_Node000001"><a xlink:title=" ">
<polygon fill="#999999" stroke="#666666" points="888.75,-54.5 753.5,-54.5 753.5,-24 888.75,-24 888.75,-54.5"/>
<text xml:space="preserve" text-anchor="start" x="761.5" y="-41" font-family="Helvetica,sans-Serif" font-size="10.00">llvm::orc::MachOBuilder</text>
<text xml:space="preserve" text-anchor="middle" x="821.12" y="-29.75" font-family="Helvetica,sans-Serif" font-size="10.00">&lt; MachOTraits &gt;::Segment</text>
</a>
</g>
</g>
<!-- Node2 -->
<g id="Node000002" class="node">
<title>Node2</title>
<g id="a_Node000002"><a xlink:href="structllvm_1_1orc_1_1MachOBuilderLoadCommand.html" target="_top" xlink:title=" ">
<polygon fill="white" stroke="#666666" points="716.5,-54.5 515.25,-54.5 515.25,-24 716.5,-24 716.5,-54.5"/>
<text xml:space="preserve" text-anchor="start" x="523.25" y="-41" font-family="Helvetica,sans-Serif" font-size="10.00">llvm::orc::MachOBuilderLoad</text>
<text xml:space="preserve" text-anchor="middle" x="615.88" y="-29.75" font-family="Helvetica,sans-Serif" font-size="10.00">Command&lt; MachOTraits::SegmentCmd &gt;</text>
</a>
</g>
</g>
<!-- Node2&#45;&gt;Node1 -->
<g id="edge1_Node000001_Node000002" class="edge">
<title>Node2&#45;&gt;Node1</title>
<g id="a_edge1_Node000001_Node000002"><a xlink:title=" ">
<path fill="none" stroke="#63b8ff" d="M727.99,-39.25C736.54,-39.25 745.01,-39.25 753.13,-39.25"/>
<polygon fill="#63b8ff" stroke="#63b8ff" points="728.23,-35.75 718.23,-39.25 728.23,-42.75 728.23,-35.75"/>
</a>
</g>
</g>
<!-- Node3 -->
<g id="Node000003" class="node">
<title>Node3</title>
<g id="a_Node000003"><a xlink:href="structllvm_1_1orc_1_1MachOBuilderLoadCommandImplBase.html" target="_top" xlink:title="MachOBuilder load command wrapper type.">
<polygon fill="white" stroke="#666666" points="154,-51.5 0,-51.5 0,-21 154,-21 154,-51.5"/>
<text xml:space="preserve" text-anchor="start" x="8" y="-38" font-family="Helvetica,sans-Serif" font-size="10.00">llvm::orc::MachOBuilderLoad</text>
<text xml:space="preserve" text-anchor="middle" x="77" y="-26.75" font-family="Helvetica,sans-Serif" font-size="10.00">CommandImplBase&lt; LCType &gt;</text>
</a>
</g>
</g>
<!-- Node3&#45;&gt;Node2 -->
<g id="edge2_Node000002_Node000003" class="edge">
<title>Node3&#45;&gt;Node2</title>
<g id="a_edge2_Node000002_Node000003"><a xlink:title=" ">
<path fill="none" stroke="#63b8ff" d="M165.51,-39.97C250.33,-43.1 382.61,-46.69 497.25,-44.25 502.97,-44.13 508.85,-43.97 514.78,-43.79"/>
<polygon fill="#63b8ff" stroke="#63b8ff" points="165.76,-36.48 155.64,-39.6 165.5,-43.47 165.76,-36.48"/>
</a>
</g>
</g>
<!-- Node4 -->
<g id="Node000004" class="node">
<title>Node4</title>
<g id="a_Node000004"><a xlink:href="structllvm_1_1orc_1_1MachOBuilderLoadCommand.html" target="_top" xlink:title=" ">
<polygon fill="white" stroke="#666666" points="333,-30.5 191,-30.5 191,0 333,0 333,-30.5"/>
<text xml:space="preserve" text-anchor="start" x="199" y="-17" font-family="Helvetica,sans-Serif" font-size="10.00">llvm::orc::MachOBuilderLoad</text>
<text xml:space="preserve" text-anchor="middle" x="262" y="-5.75" font-family="Helvetica,sans-Serif" font-size="10.00">Command&lt; LCType &gt;</text>
</a>
</g>
</g>
<!-- Node3&#45;&gt;Node4 -->
<g id="edge4_Node000004_Node000003" class="edge">
<title>Node3&#45;&gt;Node4</title>
<g id="a_edge4_Node000004_Node000003"><a xlink:title=" ">
<path fill="none" stroke="#63b8ff" d="M165.67,-26.19C174.06,-25.23 182.5,-24.26 190.69,-23.32"/>
<polygon fill="#63b8ff" stroke="#63b8ff" points="165.32,-22.71 155.79,-27.32 166.12,-29.66 165.32,-22.71"/>
</a>
</g>
</g>
<!-- Node4&#45;&gt;Node2 -->
<g id="edge3_Node000002_Node000004" class="edge">
<title>Node4&#45;&gt;Node2</title>
<g id="a_edge3_Node000002_Node000004"><a xlink:title=" ">
<path fill="none" stroke="orange" stroke-dasharray="5,2" d="M344.75,-18.27C389.78,-20.21 446.64,-23.1 497.25,-27 502.98,-27.44 508.87,-27.93 514.8,-28.46"/>
<polygon fill="orange" stroke="orange" points="344.93,-14.78 334.79,-17.85 344.63,-21.77 344.93,-14.78"/>
</a>
</g>
<text xml:space="preserve" text-anchor="start" x="354" y="-33" font-family="Helvetica,sans-Serif" font-size="10.00" fill="grey">&lt; MachOTraits::SegmentCmd &gt;</text>
</g>
</g>
</svg>
