<?xml version="1.0" encoding="UTF-8" standalone="no"?>
<!DOCTYPE svg PUBLIC "-//W3C//DTD SVG 1.1//EN"
 "http://www.w3.org/Graphics/SVG/1.1/DTD/svg11.dtd">
<!-- Generated by graphviz version 14.1.3 (20260303.0454)
 -->
<!-- Title: llvm::rdf::IndexedSet&lt; T, N &gt; Pages: 1 -->
<svg width="271pt" height="179pt"
 viewBox="0.00 0.00 271.00 179.00" xmlns="http://www.w3.org/2000/svg" xmlns:xlink="http://www.w3.org/1999/xlink">
<g id="graph0" class="graph" transform="scale(1 1) rotate(0) translate(4 174.5)">
<title>llvm::rdf::IndexedSet&lt; T, N &gt;</title>
<!-- Node1 -->
<g id="Node000001" class="node">
<title>Node1</title>
<g id="a_Node000001"><a xlink:title=" ">
<polygon fill="#999999" stroke="#666666" points="179.5,-170.5 72.75,-170.5 72.75,-140 179.5,-140 179.5,-170.5"/>
<text xml:space="preserve" text-anchor="start" x="80.75" y="-157" font-family="Helvetica,sans-Serif" font-size="10.00">llvm::rdf::IndexedSet</text>
<text xml:space="preserve" text-anchor="middle" x="126.12" y="-145.75" font-family="Helvetica,sans-Serif" font-size="10.00">&lt; T, N &gt;</text>
</a>
</g>
</g>
<!-- Node2 -->
<g id="Node000002" class="node">
<title>Node2</title>
<g id="a_Node000002"><a xlink:href="structllvm_1_1rdf_1_1IndexedSet.html" target="_top" xlink:title=" ">
<polygon fill="white" stroke="#666666" points="116.5,-86.75 9.75,-86.75 9.75,-56.25 116.5,-56.25 116.5,-86.75"/>
<text xml:space="preserve" text-anchor="start" x="17.75" y="-73.25" font-family="Helvetica,sans-Serif" font-size="10.00">llvm::rdf::IndexedSet</text>
<text xml:space="preserve" text-anchor="middle" x="63.12" y="-62" font-family="Helvetica,sans-Serif" font-size="10.00">&lt; LaneBitmask &gt;</text>
</a>
</g>
</g>
<!-- Node1&#45;&gt;Node2 -->
<g id="edge1_Node000001_Node000002" class="edge">
<title>Node1&#45;&gt;Node2</title>
<g id="a_edge1_Node000001_Node000002"><a xlink:title=" ">
<path fill="none" stroke="orange" stroke-dasharray="5,2" d="M84.62,-133.09C80.66,-129.8 77.04,-126.11 74.12,-122 66.89,-111.81 64.3,-97.69 63.42,-87.14"/>
<polygon fill="orange" stroke="orange" points="82.32,-135.74 92.47,-138.77 86.42,-130.07 82.32,-135.74"/>
</a>
</g>
<text xml:space="preserve" text-anchor="start" x="77.12" y="-110.75" font-family="Helvetica,sans-Serif" font-size="10.00" fill="grey">&lt; LaneBitmask &gt;</text>
</g>
<!-- Node4 -->
<g id="Node000004" class="node">
<title>Node4</title>
<g id="a_Node000004"><a xlink:href="structllvm_1_1rdf_1_1IndexedSet.html" target="_top" xlink:title=" ">
<polygon fill="white" stroke="#666666" points="241.5,-86.75 134.75,-86.75 134.75,-56.25 241.5,-56.25 241.5,-86.75"/>
<text xml:space="preserve" text-anchor="start" x="142.75" y="-73.25" font-family="Helvetica,sans-Serif" font-size="10.00">llvm::rdf::IndexedSet</text>
<text xml:space="preserve" text-anchor="middle" x="188.12" y="-62" font-family="Helvetica,sans-Serif" font-size="10.00">&lt; const uint32_t * &gt;</text>
</a>
</g>
</g>
<!-- Node1&#45;&gt;Node4 -->
<g id="edge3_Node000001_Node000004" class="edge">
<title>Node1&#45;&gt;Node4</title>
<g id="a_edge3_Node000001_Node000004"><a xlink:title=" ">
<path fill="none" stroke="orange" stroke-dasharray="5,2" d="M150.7,-131.71C153.67,-128.57 156.56,-125.29 159.12,-122 167.71,-111.01 175.58,-97.24 180.95,-87.01"/>
<polygon fill="orange" stroke="orange" points="148.45,-129.01 143.86,-138.56 153.41,-133.95 148.45,-129.01"/>
</a>
</g>
<text xml:space="preserve" text-anchor="start" x="173.69" y="-110.75" font-family="Helvetica,sans-Serif" font-size="10.00" fill="grey">&lt; const uint32_t * &gt;</text>
</g>
<!-- Node3 -->
<g id="Node000003" class="node">
<title>Node3</title>
<g id="a_Node000003"><a xlink:href="structllvm_1_1rdf_1_1LaneMaskIndex.html" target="_top" xlink:title=" ">
<polygon fill="white" stroke="#666666" points="126.25,-19.25 0,-19.25 0,0 126.25,0 126.25,-19.25"/>
<text xml:space="preserve" text-anchor="middle" x="63.12" y="-5.75" font-family="Helvetica,sans-Serif" font-size="10.00">llvm::rdf::LaneMaskIndex</text>
</a>
</g>
</g>
<!-- Node2&#45;&gt;Node3 -->
<g id="edge2_Node000002_Node000003" class="edge">
<title>Node2&#45;&gt;Node3</title>
<g id="a_edge2_Node000002_Node000003"><a xlink:title=" ">
<path fill="none" stroke="#8b1a1a" d="M63.12,-44.77C63.12,-35.79 63.12,-26.29 63.12,-19.6"/>
<polygon fill="#8b1a1a" stroke="#8b1a1a" points="59.63,-44.49 63.13,-54.49 66.63,-44.49 59.63,-44.49"/>
</a>
</g>
</g>
</g>
</svg>
