<?xml version="1.0" encoding="UTF-8" standalone="no"?>
<!DOCTYPE svg PUBLIC "-//W3C//DTD SVG 1.1//EN"
 "http://www.w3.org/Graphics/SVG/1.1/DTD/svg11.dtd">
<!-- Generated by graphviz version 14.1.3 (20260303.0454)
 -->
<!-- Title: llvm::ImutProfileInfo&lt; T &gt; Pages: 1 -->
<svg width="555pt" height="226pt"
 viewBox="0.00 0.00 555.00 226.00" xmlns="http://www.w3.org/2000/svg" xmlns:xlink="http://www.w3.org/1999/xlink">
<g id="graph0" class="graph" transform="scale(1 1) rotate(0) translate(4 221.5)">
<title>llvm::ImutProfileInfo&lt; T &gt;</title>
<!-- Node1 -->
<g id="Node000001" class="node">
<title>Node1</title>
<g id="a_Node000001"><a xlink:title="Generic profile template.">
<polygon fill="#999999" stroke="#666666" points="127.75,-116.88 0,-116.88 0,-97.62 127.75,-97.62 127.75,-116.88"/>
<text xml:space="preserve" text-anchor="middle" x="63.88" y="-103.38" font-family="Helvetica,sans-Serif" font-size="10.00">llvm::ImutProfileInfo&lt; T &gt;</text>
</a>
</g>
</g>
<!-- Node2 -->
<g id="Node000002" class="node">
<title>Node2</title>
<g id="a_Node000002"><a xlink:href="structllvm_1_1ImutContainerInfo_3_01T_01_5_01_4.html" target="_top" xlink:title="ImutContainerInfo &#45; Specialization for pointer values to treat pointers as references to unique objec...">
<polygon fill="white" stroke="#666666" points="546.75,-195.5 428.75,-195.5 428.75,-165 546.75,-165 546.75,-195.5"/>
<text xml:space="preserve" text-anchor="start" x="436.75" y="-182" font-family="Helvetica,sans-Serif" font-size="10.00">llvm::ImutContainerInfo</text>
<text xml:space="preserve" text-anchor="middle" x="487.75" y="-170.75" font-family="Helvetica,sans-Serif" font-size="10.00">&lt; T * &gt;</text>
</a>
</g>
</g>
<!-- Node1&#45;&gt;Node2 -->
<g id="edge1_Node000001_Node000002" class="edge">
<title>Node1&#45;&gt;Node2</title>
<g id="a_edge1_Node000001_Node000002"><a xlink:title=" ">
<path fill="none" stroke="#63b8ff" d="M139.18,-97.48C210.99,-90.96 321.67,-88.7 410.75,-121.25 423.62,-125.95 451.19,-148.84 469.34,-164.69"/>
<polygon fill="#63b8ff" stroke="#63b8ff" points="139.12,-93.97 129.51,-98.42 139.8,-100.94 139.12,-93.97"/>
</a>
</g>
</g>
<!-- Node3 -->
<g id="Node000003" class="node">
<title>Node3</title>
<g id="a_Node000003"><a xlink:href="structllvm_1_1ImutContainerInfo.html" target="_top" xlink:title="ImutContainerInfo &#45; Generic definition of comparison operations for elements of immutable containers ...">
<polygon fill="white" stroke="#666666" points="349.25,-154.88 207.25,-154.88 207.25,-135.62 349.25,-135.62 349.25,-154.88"/>
<text xml:space="preserve" text-anchor="middle" x="278.25" y="-141.38" font-family="Helvetica,sans-Serif" font-size="10.00">llvm::ImutContainerInfo&lt; T &gt;</text>
</a>
</g>
</g>
<!-- Node1&#45;&gt;Node3 -->
<g id="edge2_Node000001_Node000003" class="edge">
<title>Node1&#45;&gt;Node3</title>
<g id="a_edge2_Node000001_Node000003"><a xlink:title=" ">
<path fill="none" stroke="#63b8ff" d="M132.35,-119.32C160.9,-124.43 193.79,-130.32 221,-135.19"/>
<polygon fill="#63b8ff" stroke="#63b8ff" points="133.18,-115.92 122.72,-117.6 131.95,-122.81 133.18,-115.92"/>
</a>
</g>
</g>
<!-- Node5 -->
<g id="Node000005" class="node">
<title>Node5</title>
<g id="a_Node000005"><a xlink:href="structllvm_1_1ImutProfileInfo.html" target="_top" xlink:title=" ">
<polygon fill="white" stroke="#666666" points="330.12,-79.5 226.38,-79.5 226.38,-49 330.12,-49 330.12,-79.5"/>
<text xml:space="preserve" text-anchor="start" x="234.38" y="-66" font-family="Helvetica,sans-Serif" font-size="10.00">llvm::ImutProfileInfo</text>
<text xml:space="preserve" text-anchor="middle" x="278.25" y="-54.75" font-family="Helvetica,sans-Serif" font-size="10.00">&lt; ValT &gt;</text>
</a>
</g>
</g>
<!-- Node1&#45;&gt;Node5 -->
<g id="edge5_Node000001_Node000005" class="edge">
<title>Node1&#45;&gt;Node5</title>
<g id="a_edge5_Node000001_Node000005"><a xlink:title=" ">
<path fill="none" stroke="orange" stroke-dasharray="5,2" d="M96.51,-92.66C111.19,-86.51 129.04,-79.89 145.75,-76 171.87,-69.91 201.58,-66.94 226.14,-65.5"/>
<polygon fill="orange" stroke="orange" points="95.16,-89.43 87.37,-96.61 97.94,-95.85 95.16,-89.43"/>
</a>
</g>
<text xml:space="preserve" text-anchor="start" x="148.75" y="-82" font-family="Helvetica,sans-Serif" font-size="10.00" fill="grey">&lt; ValT &gt;</text>
</g>
<!-- Node6 -->
<g id="Node000006" class="node">
<title>Node6</title>
<g id="a_Node000006"><a xlink:href="structllvm_1_1ImutProfileInfo_3_01T_01_5_01_4.html" target="_top" xlink:title="Generic profile trait for pointer types.">
<polygon fill="white" stroke="#666666" points="330.12,-217.5 226.38,-217.5 226.38,-187 330.12,-187 330.12,-217.5"/>
<text xml:space="preserve" text-anchor="start" x="234.38" y="-204" font-family="Helvetica,sans-Serif" font-size="10.00">llvm::ImutProfileInfo</text>
<text xml:space="preserve" text-anchor="middle" x="278.25" y="-192.75" font-family="Helvetica,sans-Serif" font-size="10.00">&lt; T * &gt;</text>
</a>
</g>
</g>
<!-- Node1&#45;&gt;Node6 -->
<g id="edge7_Node000001_Node000006" class="edge">
<title>Node1&#45;&gt;Node6</title>
<g id="a_edge7_Node000001_Node000006"><a xlink:title=" ">
<path fill="none" stroke="orange" stroke-dasharray="5,2" d="M97.51,-121.85C136.68,-139.37 202.09,-168.63 242.27,-186.6"/>
<polygon fill="orange" stroke="orange" points="99.14,-118.74 88.58,-117.86 96.28,-125.13 99.14,-118.74"/>
</a>
</g>
<text xml:space="preserve" text-anchor="start" x="152.12" y="-166.44" font-family="Helvetica,sans-Serif" font-size="10.00" fill="grey">&lt; T * &gt;</text>
</g>
<!-- Node7 -->
<g id="Node000007" class="node">
<title>Node7</title>
<g id="a_Node000007"><a xlink:href="structllvm_1_1ImutProfileInfo_3_01bool_01_4.html" target="_top" xlink:title="Profile traits for booleans.">
<polygon fill="white" stroke="#666666" points="330.12,-30.5 226.38,-30.5 226.38,0 330.12,0 330.12,-30.5"/>
<text xml:space="preserve" text-anchor="start" x="234.38" y="-17" font-family="Helvetica,sans-Serif" font-size="10.00">llvm::ImutProfileInfo</text>
<text xml:space="preserve" text-anchor="middle" x="278.25" y="-5.75" font-family="Helvetica,sans-Serif" font-size="10.00">&lt; bool &gt;</text>
</a>
</g>
</g>
<!-- Node1&#45;&gt;Node7 -->
<g id="edge9_Node000001_Node000007" class="edge">
<title>Node1&#45;&gt;Node7</title>
<g id="a_edge9_Node000001_Node000007"><a xlink:title=" ">
<path fill="none" stroke="orange" stroke-dasharray="5,2" d="M83.73,-90.11C99.31,-76.81 122.56,-58.87 145.75,-48 171,-36.17 201.05,-28.28 226.04,-23.21"/>
<polygon fill="orange" stroke="orange" points="81.86,-87.1 76.64,-96.32 86.47,-92.36 81.86,-87.1"/>
</a>
</g>
<text xml:space="preserve" text-anchor="start" x="149.5" y="-54" font-family="Helvetica,sans-Serif" font-size="10.00" fill="grey">&lt; bool &gt;</text>
</g>
<!-- Node3&#45;&gt;Node2 -->
<g id="edge4_Node000003_Node000002" class="edge">
<title>Node3&#45;&gt;Node2</title>
<g id="a_edge4_Node000003_Node000002"><a xlink:title=" ">
<path fill="none" stroke="orange" stroke-dasharray="5,2" d="M350.34,-157.24C375.75,-161.53 404.07,-166.3 428.3,-170.39"/>
<polygon fill="orange" stroke="orange" points="351.2,-153.84 340.76,-155.63 350.04,-160.74 351.2,-153.84"/>
</a>
</g>
<text xml:space="preserve" text-anchor="start" x="373.62" y="-172.91" font-family="Helvetica,sans-Serif" font-size="10.00" fill="grey">&lt; T * &gt;</text>
</g>
<!-- Node4 -->
<g id="Node000004" class="node">
<title>Node4</title>
<g id="a_Node000004"><a xlink:href="structllvm_1_1ImutContainerInfo.html" target="_top" xlink:title=" ">
<polygon fill="white" stroke="#666666" points="546.75,-122.5 428.75,-122.5 428.75,-92 546.75,-92 546.75,-122.5"/>
<text xml:space="preserve" text-anchor="start" x="436.75" y="-109" font-family="Helvetica,sans-Serif" font-size="10.00">llvm::ImutContainerInfo</text>
<text xml:space="preserve" text-anchor="middle" x="487.75" y="-97.75" font-family="Helvetica,sans-Serif" font-size="10.00">&lt; ValT &gt;</text>
</a>
</g>
</g>
<!-- Node3&#45;&gt;Node4 -->
<g id="edge3_Node000003_Node000004" class="edge">
<title>Node3&#45;&gt;Node4</title>
<g id="a_edge3_Node000003_Node000004"><a xlink:title=" ">
<path fill="none" stroke="orange" stroke-dasharray="5,2" d="M345.49,-133.12C372.18,-128.23 402.7,-122.64 428.52,-117.91"/>
<polygon fill="orange" stroke="orange" points="345.01,-129.65 335.8,-134.89 346.27,-136.54 345.01,-129.65"/>
</a>
</g>
<text xml:space="preserve" text-anchor="start" x="370.25" y="-134.53" font-family="Helvetica,sans-Serif" font-size="10.00" fill="grey">&lt; ValT &gt;</text>
</g>
<!-- Node5&#45;&gt;Node4 -->
<g id="edge6_Node000005_Node000004" class="edge">
<title>Node5&#45;&gt;Node4</title>
<g id="a_edge6_Node000005_Node000004"><a xlink:title=" ">
<path fill="none" stroke="#63b8ff" d="M341.63,-77.18C369.15,-82.88 401.31,-89.54 428.35,-95.15"/>
<polygon fill="#63b8ff" stroke="#63b8ff" points="342.53,-73.79 332.02,-75.19 341.11,-80.64 342.53,-73.79"/>
</a>
</g>
</g>
<!-- Node6&#45;&gt;Node2 -->
<g id="edge8_Node000006_Node000002" class="edge">
<title>Node6&#45;&gt;Node2</title>
<g id="a_edge8_Node000006_Node000002"><a xlink:title=" ">
<path fill="none" stroke="#63b8ff" d="M341.83,-202.92C363.71,-202.48 388.39,-201.21 410.75,-198.25 416.53,-197.49 422.51,-196.47 428.47,-195.31"/>
<polygon fill="#63b8ff" stroke="#63b8ff" points="341.8,-199.42 331.85,-203.07 341.9,-206.42 341.8,-199.42"/>
</a>
</g>
</g>
</g>
</svg>
