<?xml version="1.0" encoding="UTF-8" standalone="no"?>
<!DOCTYPE svg PUBLIC "-//W3C//DTD SVG 1.1//EN"
 "http://www.w3.org/Graphics/SVG/1.1/DTD/svg11.dtd">
<!-- Generated by graphviz version 14.1.3 (20260303.0454)
 -->
<!-- Title: llvm::CastInfoVPIRMetadata&lt; DstTy, SrcTy &gt; Pages: 1 -->
<svg width="1055pt" height="108pt"
 viewBox="0.00 0.00 1055.00 108.00" xmlns="http://www.w3.org/2000/svg" xmlns:xlink="http://www.w3.org/1999/xlink">
<g id="graph0" class="graph" transform="scale(1 1) rotate(0) translate(4 103.52)">
<title>llvm::CastInfoVPIRMetadata&lt; DstTy, SrcTy &gt;</title>
<!-- Node1 -->
<g id="Node000001" class="node">
<title>Node1</title>
<g id="a_Node000001"><a xlink:title="Support casting from VPRecipeBase &#45;&gt; VPIRMetadata, by down&#45;casting to the recipe types implementing V...">
<polygon fill="#999999" stroke="#666666" points="511.75,-64.12 369.75,-64.12 369.75,-33.62 511.75,-33.62 511.75,-64.12"/>
<text xml:space="preserve" text-anchor="start" x="377.75" y="-50.62" font-family="Helvetica,sans-Serif" font-size="10.00">llvm::CastInfoVPIRMetadata</text>
<text xml:space="preserve" text-anchor="middle" x="440.75" y="-39.38" font-family="Helvetica,sans-Serif" font-size="10.00">&lt; DstTy, SrcTy &gt;</text>
</a>
</g>
</g>
<!-- Node4 -->
<g id="Node000004" class="node">
<title>Node4</title>
<g id="a_Node000004"><a xlink:href="structllvm_1_1CastInfoVPIRMetadata.html" target="_top" xlink:title=" ">
<polygon fill="white" stroke="#666666" points="855.5,-92.12 677.5,-92.12 677.5,-61.62 855.5,-61.62 855.5,-92.12"/>
<text xml:space="preserve" text-anchor="start" x="685.5" y="-78.62" font-family="Helvetica,sans-Serif" font-size="10.00">llvm::CastInfoVPIRMetadata</text>
<text xml:space="preserve" text-anchor="middle" x="766.5" y="-67.38" font-family="Helvetica,sans-Serif" font-size="10.00">&lt; VPIRMetadata, VPRecipeBase * &gt;</text>
</a>
</g>
</g>
<!-- Node1&#45;&gt;Node4 -->
<g id="edge3_Node000001_Node000004" class="edge">
<title>Node1&#45;&gt;Node4</title>
<g id="a_edge3_Node000001_Node000004"><a xlink:title=" ">
<path fill="none" stroke="orange" stroke-dasharray="5,2" d="M523.34,-55.93C570.24,-59.99 629.17,-65.08 677.16,-69.23"/>
<polygon fill="orange" stroke="orange" points="523.77,-52.46 513.51,-55.08 523.17,-59.43 523.77,-52.46"/>
</a>
</g>
<text xml:space="preserve" text-anchor="start" x="532.75" y="-88.27" font-family="Helvetica,sans-Serif" font-size="10.00" fill="grey">&lt; VPIRMetadata, VPRecipe</text>
<text xml:space="preserve" text-anchor="start" x="532.75" y="-73.02" font-family="Helvetica,sans-Serif" font-size="10.00" fill="grey">  Base * &gt;</text>
</g>
<!-- Node6 -->
<g id="Node000006" class="node">
<title>Node6</title>
<g id="a_Node000006"><a xlink:href="structllvm_1_1CastInfoVPIRMetadata.html" target="_top" xlink:title=" ">
<polygon fill="white" stroke="#666666" points="839.75,-41.75 693.25,-41.75 693.25,0 839.75,0 839.75,-41.75"/>
<text xml:space="preserve" text-anchor="start" x="701.25" y="-28.25" font-family="Helvetica,sans-Serif" font-size="10.00">llvm::CastInfoVPIRMetadata</text>
<text xml:space="preserve" text-anchor="start" x="701.25" y="-17" font-family="Helvetica,sans-Serif" font-size="10.00">&lt; const VPIRMetadata, const</text>
<text xml:space="preserve" text-anchor="middle" x="766.5" y="-5.75" font-family="Helvetica,sans-Serif" font-size="10.00"> VPRecipeBase * &gt;</text>
</a>
</g>
</g>
<!-- Node1&#45;&gt;Node6 -->
<g id="edge5_Node000001_Node000006" class="edge">
<title>Node1&#45;&gt;Node6</title>
<g id="a_edge5_Node000001_Node000006"><a xlink:title=" ">
<path fill="none" stroke="orange" stroke-dasharray="5,2" d="M491.88,-29.66C504.09,-25.81 517.24,-22.35 529.75,-20.38 583.92,-11.82 645.98,-12.36 692.82,-14.81"/>
<polygon fill="orange" stroke="orange" points="490.8,-26.33 482.41,-32.79 493,-32.97 490.8,-26.33"/>
</a>
</g>
<text xml:space="preserve" text-anchor="start" x="535.38" y="-41.62" font-family="Helvetica,sans-Serif" font-size="10.00" fill="grey">&lt; const VPIRMetadata,</text>
<text xml:space="preserve" text-anchor="start" x="535.38" y="-26.38" font-family="Helvetica,sans-Serif" font-size="10.00" fill="grey">   const VPRecipeBase * &gt;</text>
</g>
<!-- Node2 -->
<g id="Node000002" class="node">
<title>Node2</title>
<g id="a_Node000002"><a xlink:href="structllvm_1_1CastIsPossible.html" target="_top" xlink:title=" ">
<polygon fill="white" stroke="#666666" points="332.75,-64.12 226,-64.12 226,-33.62 332.75,-33.62 332.75,-64.12"/>
<text xml:space="preserve" text-anchor="start" x="234" y="-50.62" font-family="Helvetica,sans-Serif" font-size="10.00">llvm::CastIsPossible</text>
<text xml:space="preserve" text-anchor="middle" x="279.38" y="-39.38" font-family="Helvetica,sans-Serif" font-size="10.00">&lt; DstTy, SrcTy &gt;</text>
</a>
</g>
</g>
<!-- Node2&#45;&gt;Node1 -->
<g id="edge1_Node000001_Node000002" class="edge">
<title>Node2&#45;&gt;Node1</title>
<g id="a_edge1_Node000001_Node000002"><a xlink:title=" ">
<path fill="none" stroke="#63b8ff" d="M344.38,-48.88C352.57,-48.88 360.98,-48.88 369.27,-48.88"/>
<polygon fill="#63b8ff" stroke="#63b8ff" points="344.52,-45.38 334.52,-48.88 344.52,-52.38 344.52,-45.38"/>
</a>
</g>
</g>
<!-- Node3 -->
<g id="Node000003" class="node">
<title>Node3</title>
<g id="a_Node000003"><a xlink:href="structllvm_1_1CastIsPossible.html" target="_top" xlink:title="This struct provides a way to check if a given cast is possible.">
<polygon fill="white" stroke="#666666" points="109,-64.12 0,-64.12 0,-33.62 109,-33.62 109,-64.12"/>
<text xml:space="preserve" text-anchor="start" x="8" y="-50.62" font-family="Helvetica,sans-Serif" font-size="10.00">llvm::CastIsPossible</text>
<text xml:space="preserve" text-anchor="middle" x="54.5" y="-39.38" font-family="Helvetica,sans-Serif" font-size="10.00">&lt; To, From, Enable &gt;</text>
</a>
</g>
</g>
<!-- Node3&#45;&gt;Node2 -->
<g id="edge2_Node000002_Node000003" class="edge">
<title>Node3&#45;&gt;Node2</title>
<g id="a_edge2_Node000002_Node000003"><a xlink:title=" ">
<path fill="none" stroke="orange" stroke-dasharray="5,2" d="M120.95,-48.88C154.31,-48.88 194.34,-48.88 225.69,-48.88"/>
<polygon fill="orange" stroke="orange" points="120.97,-45.38 110.97,-48.88 120.97,-52.38 120.97,-45.38"/>
</a>
</g>
<text xml:space="preserve" text-anchor="start" x="130" y="-54.88" font-family="Helvetica,sans-Serif" font-size="10.00" fill="grey">&lt; DstTy, SrcTy &gt;</text>
</g>
<!-- Node5 -->
<g id="Node000005" class="node">
<title>Node5</title>
<g id="a_Node000005"><a xlink:href="structllvm_1_1CastInfo_3_01VPIRMetadata_00_01VPRecipeBase_01_5_01_4.html" target="_top" xlink:title=" ">
<polygon fill="white" stroke="#666666" points="1046.5,-92.12 892.5,-92.12 892.5,-61.62 1046.5,-61.62 1046.5,-92.12"/>
<text xml:space="preserve" text-anchor="start" x="900.5" y="-78.62" font-family="Helvetica,sans-Serif" font-size="10.00">llvm::CastInfo&lt; VPIRMetadata,</text>
<text xml:space="preserve" text-anchor="middle" x="969.5" y="-67.38" font-family="Helvetica,sans-Serif" font-size="10.00"> VPRecipeBase * &gt;</text>
</a>
</g>
</g>
<!-- Node4&#45;&gt;Node5 -->
<g id="edge4_Node000004_Node000005" class="edge">
<title>Node4&#45;&gt;Node5</title>
<g id="a_edge4_Node000004_Node000005"><a xlink:title=" ">
<path fill="none" stroke="#63b8ff" d="M867.36,-76.88C875.74,-76.88 884.12,-76.88 892.28,-76.88"/>
<polygon fill="#63b8ff" stroke="#63b8ff" points="867.47,-73.38 857.47,-76.88 867.47,-80.38 867.47,-73.38"/>
</a>
</g>
</g>
<!-- Node7 -->
<g id="Node000007" class="node">
<title>Node7</title>
<g id="a_Node000007"><a xlink:href="structllvm_1_1CastInfo_3_01VPIRMetadata_00_01const_01VPRecipeBase_01_5_01_4.html" target="_top" xlink:title=" ">
<polygon fill="white" stroke="#666666" points="1046.5,-36.12 892.5,-36.12 892.5,-5.62 1046.5,-5.62 1046.5,-36.12"/>
<text xml:space="preserve" text-anchor="start" x="900.5" y="-22.62" font-family="Helvetica,sans-Serif" font-size="10.00">llvm::CastInfo&lt; VPIRMetadata,</text>
<text xml:space="preserve" text-anchor="middle" x="969.5" y="-11.38" font-family="Helvetica,sans-Serif" font-size="10.00"> const VPRecipeBase * &gt;</text>
</a>
</g>
</g>
<!-- Node6&#45;&gt;Node7 -->
<g id="edge6_Node000006_Node000007" class="edge">
<title>Node6&#45;&gt;Node7</title>
<g id="a_edge6_Node000006_Node000007"><a xlink:title=" ">
<path fill="none" stroke="#63b8ff" d="M851.35,-20.88C864.93,-20.88 878.93,-20.88 892.31,-20.88"/>
<polygon fill="#63b8ff" stroke="#63b8ff" points="851.58,-17.38 841.58,-20.88 851.58,-24.38 851.58,-17.38"/>
</a>
</g>
</g>
</g>
</svg>
