<?xml version="1.0" encoding="UTF-8" standalone="no"?>
<!DOCTYPE svg PUBLIC "-//W3C//DTD SVG 1.1//EN"
 "http://www.w3.org/Graphics/SVG/1.1/DTD/svg11.dtd">
<!-- Generated by graphviz version 14.1.3 (20260303.0454)
 -->
<!-- Title: llvm::ilist_detail::extract_iterator_bits&lt;&gt; Pages: 1 -->
<svg width="292pt" height="217pt"
 viewBox="0.00 0.00 292.00 217.00" xmlns="http://www.w3.org/2000/svg" xmlns:xlink="http://www.w3.org/1999/xlink">
<g id="graph0" class="graph" transform="scale(1 1) rotate(0) translate(4 213.25)">
<title>llvm::ilist_detail::extract_iterator_bits&lt;&gt;</title>
<!-- Node1 -->
<g id="Node000001" class="node">
<title>Node1</title>
<g id="a_Node000001"><a xlink:title=" ">
<polygon fill="#999999" stroke="#666666" points="188.38,-30.5 68.12,-30.5 68.12,0 188.38,0 188.38,-30.5"/>
<text xml:space="preserve" text-anchor="start" x="76.12" y="-17" font-family="Helvetica,sans-Serif" font-size="10.00">llvm::ilist_detail</text>
<text xml:space="preserve" text-anchor="middle" x="128.25" y="-5.75" font-family="Helvetica,sans-Serif" font-size="10.00">::extract_iterator_bits&lt;&gt;</text>
</a>
</g>
</g>
<!-- Node2 -->
<g id="Node000002" class="node">
<title>Node2</title>
<g id="a_Node000002"><a xlink:title=" ">
<polygon fill="white" stroke="#666666" points="80.5,-114.25 0,-114.25 0,-95 80.5,-95 80.5,-114.25"/>
<text xml:space="preserve" text-anchor="middle" x="40.25" y="-100.75" font-family="Helvetica,sans-Serif" font-size="10.00">std::false_type</text>
</a>
</g>
</g>
<!-- Node2&#45;&gt;Node1 -->
<g id="edge1_Node000001_Node000002" class="edge">
<title>Node2&#45;&gt;Node1</title>
<g id="a_edge1_Node000001_Node000002"><a xlink:title=" ">
<path fill="none" stroke="#63b8ff" d="M57.49,-86.51C73.82,-70.29 98.09,-46.2 113.53,-30.86"/>
<polygon fill="#63b8ff" stroke="#63b8ff" points="55.04,-84.01 50.41,-93.54 59.97,-88.97 55.04,-84.01"/>
</a>
</g>
</g>
<!-- Node3 -->
<g id="Node000003" class="node">
<title>Node3</title>
<g id="a_Node000003"><a xlink:href="structllvm_1_1ilist__detail_1_1explicitness.html" target="_top" xlink:title=" ">
<polygon fill="white" stroke="#666666" points="158,-114.25 98.5,-114.25 98.5,-95 158,-95 158,-114.25"/>
<text xml:space="preserve" text-anchor="middle" x="128.25" y="-100.75" font-family="Helvetica,sans-Serif" font-size="10.00">is_implicit</text>
</a>
</g>
</g>
<!-- Node3&#45;&gt;Node1 -->
<g id="edge2_Node000001_Node000003" class="edge">
<title>Node3&#45;&gt;Node1</title>
<g id="a_edge2_Node000001_Node000003"><a xlink:title=" ">
<path fill="none" stroke="#63b8ff" d="M128.25,-83.26C128.25,-67.21 128.25,-45.2 128.25,-30.86"/>
<polygon fill="#63b8ff" stroke="#63b8ff" points="124.75,-83.09 128.25,-93.09 131.75,-83.09 124.75,-83.09"/>
</a>
</g>
</g>
<!-- Node4 -->
<g id="Node000004" class="node">
<title>Node4</title>
<g id="a_Node000004"><a xlink:href="structllvm_1_1ilist__detail_1_1explicitness.html" target="_top" xlink:title="Helper trait for recording whether an option is specified explicitly.">
<polygon fill="white" stroke="#666666" points="194.38,-209.25 62.12,-209.25 62.12,-178.75 194.38,-178.75 194.38,-209.25"/>
<text xml:space="preserve" text-anchor="start" x="70.12" y="-195.75" font-family="Helvetica,sans-Serif" font-size="10.00">llvm::ilist_detail</text>
<text xml:space="preserve" text-anchor="middle" x="128.25" y="-184.5" font-family="Helvetica,sans-Serif" font-size="10.00">::explicitness&lt; IsExplicit &gt;</text>
</a>
</g>
</g>
<!-- Node4&#45;&gt;Node3 -->
<g id="edge3_Node000003_Node000004" class="edge">
<title>Node4&#45;&gt;Node3</title>
<g id="a_edge3_Node000003_Node000004"><a xlink:title=" ">
<path fill="none" stroke="orange" stroke-dasharray="5,2" d="M128.25,-167.18C128.25,-149.35 128.25,-126.72 128.25,-114.47"/>
<polygon fill="orange" stroke="orange" points="124.75,-167.06 128.25,-177.06 131.75,-167.06 124.75,-167.06"/>
</a>
</g>
<text xml:space="preserve" text-anchor="start" x="131.25" y="-149.5" font-family="Helvetica,sans-Serif" font-size="10.00" fill="grey">&lt; false &gt;</text>
</g>
<!-- Node5 -->
<g id="Node000005" class="node">
<title>Node5</title>
<g id="a_Node000005"><a xlink:href="structllvm_1_1ilist__detail_1_1extract__iterator__bits.html" target="_top" xlink:title="Extract iterator bits option.">
<polygon fill="white" stroke="#666666" points="284.38,-125.5 176.12,-125.5 176.12,-83.75 284.38,-83.75 284.38,-125.5"/>
<text xml:space="preserve" text-anchor="start" x="184.12" y="-112" font-family="Helvetica,sans-Serif" font-size="10.00">llvm::ilist_detail</text>
<text xml:space="preserve" text-anchor="start" x="184.12" y="-100.75" font-family="Helvetica,sans-Serif" font-size="10.00">::extract_iterator_bits</text>
<text xml:space="preserve" text-anchor="middle" x="230.25" y="-89.5" font-family="Helvetica,sans-Serif" font-size="10.00">&lt; Options &gt;</text>
</a>
</g>
</g>
<!-- Node5&#45;&gt;Node1 -->
<g id="edge4_Node000001_Node000005" class="edge">
<title>Node5&#45;&gt;Node1</title>
<g id="a_edge4_Node000001_Node000005"><a xlink:title=" ">
<path fill="none" stroke="orange" stroke-dasharray="5,2" d="M197.85,-75.87C180.45,-60.96 159.7,-43.19 145.41,-30.95"/>
<polygon fill="orange" stroke="orange" points="195.57,-78.53 205.44,-82.38 200.13,-73.21 195.57,-78.53"/>
</a>
</g>
<text xml:space="preserve" text-anchor="start" x="188.36" y="-54.5" font-family="Helvetica,sans-Serif" font-size="10.00" fill="grey">&lt;&gt;</text>
</g>
</g>
</svg>
