<?xml version="1.0" encoding="UTF-8" standalone="no"?>
<!DOCTYPE svg PUBLIC "-//W3C//DTD SVG 1.1//EN"
 "http://www.w3.org/Graphics/SVG/1.1/DTD/svg11.dtd">
<!-- Generated by graphviz version 14.1.3 (20260303.0454)
 -->
<!-- Title: llvm::DomTreeGraphTraitsBase&lt; Node, ChildIterator &gt; Pages: 1 -->
<svg width="853pt" height="269pt"
 viewBox="0.00 0.00 853.00 269.00" xmlns="http://www.w3.org/2000/svg" xmlns:xlink="http://www.w3.org/1999/xlink">
<g id="graph0" class="graph" transform="scale(1 1) rotate(0) translate(4 265.12)">
<title>llvm::DomTreeGraphTraitsBase&lt; Node, ChildIterator &gt;</title>
<!-- Node1 -->
<g id="Node000001" class="node">
<title>Node1</title>
<g id="a_Node000001"><a xlink:title=" ">
<polygon fill="#999999" stroke="#666666" points="139,-142.12 0,-142.12 0,-111.62 139,-111.62 139,-142.12"/>
<text xml:space="preserve" text-anchor="start" x="8" y="-128.62" font-family="Helvetica,sans-Serif" font-size="10.00">llvm::DomTreeGraphTraits</text>
<text xml:space="preserve" text-anchor="middle" x="69.5" y="-117.38" font-family="Helvetica,sans-Serif" font-size="10.00">Base&lt; Node, ChildIterator &gt;</text>
</a>
</g>
</g>
<!-- Node2 -->
<g id="Node000002" class="node">
<title>Node2</title>
<g id="a_Node000002"><a xlink:href="structllvm_1_1DomTreeGraphTraitsBase.html" target="_top" xlink:title=" ">
<polygon fill="white" stroke="#666666" points="510.12,-242.75 329.12,-242.75 329.12,-201 510.12,-201 510.12,-242.75"/>
<text xml:space="preserve" text-anchor="start" x="337.12" y="-229.25" font-family="Helvetica,sans-Serif" font-size="10.00">llvm::DomTreeGraphTraits</text>
<text xml:space="preserve" text-anchor="start" x="337.12" y="-218" font-family="Helvetica,sans-Serif" font-size="10.00">Base&lt; DomTreeNode, DomTreeNode</text>
<text xml:space="preserve" text-anchor="middle" x="419.62" y="-206.75" font-family="Helvetica,sans-Serif" font-size="10.00">::const_iterator &gt;</text>
</a>
</g>
</g>
<!-- Node1&#45;&gt;Node2 -->
<g id="edge1_Node000001_Node000002" class="edge">
<title>Node1&#45;&gt;Node2</title>
<g id="a_edge1_Node000001_Node000002"><a xlink:title=" ">
<path fill="none" stroke="orange" stroke-dasharray="5,2" d="M94.49,-150.02C110.78,-164.29 133.56,-181.58 157,-190.88 211.42,-212.45 276.83,-220.2 328.63,-222.56"/>
<polygon fill="orange" stroke="orange" points="97.04,-147.6 87.27,-143.49 92.34,-152.8 97.04,-147.6"/>
</a>
</g>
<text xml:space="preserve" text-anchor="start" x="161.88" y="-242.23" font-family="Helvetica,sans-Serif" font-size="10.00" fill="grey">&lt; DomTreeNode, DomTreeNode</text>
<text xml:space="preserve" text-anchor="start" x="161.88" y="-226.98" font-family="Helvetica,sans-Serif" font-size="10.00" fill="grey">  ::const_iterator &gt;</text>
</g>
<!-- Node6 -->
<g id="Node000006" class="node">
<title>Node6</title>
<g id="a_Node000006"><a xlink:href="structllvm_1_1DomTreeGraphTraitsBase.html" target="_top" xlink:title=" ">
<polygon fill="white" stroke="#666666" points="512,-182.75 327.25,-182.75 327.25,-141 512,-141 512,-182.75"/>
<text xml:space="preserve" text-anchor="start" x="335.25" y="-169.25" font-family="Helvetica,sans-Serif" font-size="10.00">llvm::DomTreeGraphTraits</text>
<text xml:space="preserve" text-anchor="start" x="335.25" y="-158" font-family="Helvetica,sans-Serif" font-size="10.00">Base&lt; VPDomTreeNode, VPDomTree</text>
<text xml:space="preserve" text-anchor="middle" x="419.62" y="-146.75" font-family="Helvetica,sans-Serif" font-size="10.00">Node::const_iterator &gt;</text>
</a>
</g>
</g>
<!-- Node1&#45;&gt;Node6 -->
<g id="edge5_Node000001_Node000006" class="edge">
<title>Node1&#45;&gt;Node6</title>
<g id="a_edge5_Node000001_Node000006"><a xlink:title=" ">
<path fill="none" stroke="orange" stroke-dasharray="5,2" d="M150.74,-140.09C152.85,-140.36 154.94,-140.63 157,-140.88 213.32,-147.68 276.74,-152.83 327.03,-156.33"/>
<polygon fill="orange" stroke="orange" points="151.24,-136.63 140.86,-138.74 150.3,-143.56 151.24,-136.63"/>
</a>
</g>
<text xml:space="preserve" text-anchor="start" x="160" y="-176.06" font-family="Helvetica,sans-Serif" font-size="10.00" fill="grey">&lt; VPDomTreeNode, VPDomTree</text>
<text xml:space="preserve" text-anchor="start" x="160" y="-160.81" font-family="Helvetica,sans-Serif" font-size="10.00" fill="grey">  Node::const_iterator &gt;</text>
</g>
<!-- Node8 -->
<g id="Node000008" class="node">
<title>Node8</title>
<g id="a_Node000008"><a xlink:href="structllvm_1_1DomTreeGraphTraitsBase.html" target="_top" xlink:title=" ">
<polygon fill="white" stroke="#666666" points="498.12,-112.75 341.12,-112.75 341.12,-71 498.12,-71 498.12,-112.75"/>
<text xml:space="preserve" text-anchor="start" x="349.12" y="-99.25" font-family="Helvetica,sans-Serif" font-size="10.00">llvm::DomTreeGraphTraits</text>
<text xml:space="preserve" text-anchor="start" x="349.12" y="-88" font-family="Helvetica,sans-Serif" font-size="10.00">Base&lt; const DomTreeNode,</text>
<text xml:space="preserve" text-anchor="middle" x="419.62" y="-76.75" font-family="Helvetica,sans-Serif" font-size="10.00"> DomTreeNode::const_iterator &gt;</text>
</a>
</g>
</g>
<!-- Node1&#45;&gt;Node8 -->
<g id="edge7_Node000001_Node000008" class="edge">
<title>Node1&#45;&gt;Node8</title>
<g id="a_edge7_Node000001_Node000008"><a xlink:title=" ">
<path fill="none" stroke="orange" stroke-dasharray="5,2" d="M108.56,-106.24C123.25,-99.36 140.48,-92.57 157,-89.12 217.81,-76.43 288.3,-78.09 340.79,-82.38"/>
<polygon fill="orange" stroke="orange" points="107.17,-103.02 99.71,-110.55 110.23,-109.31 107.17,-103.02"/>
</a>
</g>
<text xml:space="preserve" text-anchor="start" x="181.75" y="-125.62" font-family="Helvetica,sans-Serif" font-size="10.00" fill="grey">&lt; const DomTreeNode,</text>
<text xml:space="preserve" text-anchor="start" x="181.75" y="-110.38" font-family="Helvetica,sans-Serif" font-size="10.00" fill="grey">   DomTreeNode::const</text>
<text xml:space="preserve" text-anchor="start" x="181.75" y="-95.12" font-family="Helvetica,sans-Serif" font-size="10.00" fill="grey">  _iterator &gt;</text>
</g>
<!-- Node10 -->
<g id="Node000010" class="node">
<title>Node10</title>
<g id="a_Node000010"><a xlink:href="structllvm_1_1DomTreeGraphTraitsBase.html" target="_top" xlink:title=" ">
<polygon fill="white" stroke="#666666" points="504.88,-41.75 334.38,-41.75 334.38,0 504.88,0 504.88,-41.75"/>
<text xml:space="preserve" text-anchor="start" x="342.38" y="-28.25" font-family="Helvetica,sans-Serif" font-size="10.00">llvm::DomTreeGraphTraits</text>
<text xml:space="preserve" text-anchor="start" x="342.38" y="-17" font-family="Helvetica,sans-Serif" font-size="10.00">Base&lt; const VPDomTreeNode,</text>
<text xml:space="preserve" text-anchor="middle" x="419.62" y="-5.75" font-family="Helvetica,sans-Serif" font-size="10.00"> VPDomTreeNode::const_iterator &gt;</text>
</a>
</g>
</g>
<!-- Node1&#45;&gt;Node10 -->
<g id="edge9_Node000001_Node000010" class="edge">
<title>Node1&#45;&gt;Node10</title>
<g id="a_edge9_Node000001_Node000010"><a xlink:title=" ">
<path fill="none" stroke="orange" stroke-dasharray="5,2" d="M84.27,-101.24C98.79,-77.17 124.12,-42.61 157,-27.12 211.87,-1.28 280.66,-0.69 333.93,-6.05"/>
<polygon fill="orange" stroke="orange" points="81.28,-99.43 79.3,-109.83 87.34,-102.93 81.28,-99.43"/>
</a>
</g>
<text xml:space="preserve" text-anchor="start" x="175" y="-63.62" font-family="Helvetica,sans-Serif" font-size="10.00" fill="grey">&lt; const VPDomTreeNode,</text>
<text xml:space="preserve" text-anchor="start" x="175" y="-48.38" font-family="Helvetica,sans-Serif" font-size="10.00" fill="grey">   VPDomTreeNode::const</text>
<text xml:space="preserve" text-anchor="start" x="175" y="-33.12" font-family="Helvetica,sans-Serif" font-size="10.00" fill="grey">  _iterator &gt;</text>
</g>
<!-- Node3 -->
<g id="Node000003" class="node">
<title>Node3</title>
<g id="a_Node000003"><a xlink:href="structllvm_1_1GraphTraits_3_01DomTreeNode_01_5_01_4.html" target="_top" xlink:title=" ">
<polygon fill="white" stroke="#666666" points="667.75,-237.12 569.25,-237.12 569.25,-206.62 667.75,-206.62 667.75,-237.12"/>
<text xml:space="preserve" text-anchor="start" x="577.25" y="-223.62" font-family="Helvetica,sans-Serif" font-size="10.00">llvm::GraphTraits&lt;</text>
<text xml:space="preserve" text-anchor="middle" x="618.5" y="-212.38" font-family="Helvetica,sans-Serif" font-size="10.00"> DomTreeNode * &gt;</text>
</a>
</g>
</g>
<!-- Node2&#45;&gt;Node3 -->
<g id="edge2_Node000002_Node000003" class="edge">
<title>Node2&#45;&gt;Node3</title>
<g id="a_edge2_Node000002_Node000003"><a xlink:title=" ">
<path fill="none" stroke="#63b8ff" d="M521.8,-221.88C538.25,-221.88 554.6,-221.88 569,-221.88"/>
<polygon fill="#63b8ff" stroke="#63b8ff" points="521.93,-218.38 511.93,-221.88 521.93,-225.38 521.93,-218.38"/>
</a>
</g>
</g>
<!-- Node4 -->
<g id="Node000004" class="node">
<title>Node4</title>
<g id="a_Node000004"><a xlink:href="structllvm_1_1GraphTraits_3_01DominatorTree_01_5_01_4.html" target="_top" xlink:title=" ">
<polygon fill="white" stroke="#666666" points="834.38,-261.12 735.12,-261.12 735.12,-230.62 834.38,-230.62 834.38,-261.12"/>
<text xml:space="preserve" text-anchor="start" x="743.12" y="-247.62" font-family="Helvetica,sans-Serif" font-size="10.00">llvm::GraphTraits&lt;</text>
<text xml:space="preserve" text-anchor="middle" x="784.75" y="-236.38" font-family="Helvetica,sans-Serif" font-size="10.00"> DominatorTree * &gt;</text>
</a>
</g>
</g>
<!-- Node3&#45;&gt;Node4 -->
<g id="edge3_Node000003_Node000004" class="edge">
<title>Node3&#45;&gt;Node4</title>
<g id="a_edge3_Node000003_Node000004"><a xlink:title=" ">
<path fill="none" stroke="#63b8ff" d="M679.06,-230.58C697.38,-233.25 717.33,-236.17 734.85,-238.73"/>
<polygon fill="#63b8ff" stroke="#63b8ff" points="679.79,-227.15 669.39,-229.16 678.78,-234.07 679.79,-227.15"/>
</a>
</g>
</g>
<!-- Node5 -->
<g id="Node000005" class="node">
<title>Node5</title>
<g id="a_Node000005"><a xlink:href="structllvm_1_1GraphTraits_3_01PostDominatorTree_01_5_01_4.html" target="_top" xlink:title=" ">
<polygon fill="white" stroke="#666666" points="844.5,-212.12 725,-212.12 725,-181.62 844.5,-181.62 844.5,-212.12"/>
<text xml:space="preserve" text-anchor="start" x="733" y="-198.62" font-family="Helvetica,sans-Serif" font-size="10.00">llvm::GraphTraits&lt;</text>
<text xml:space="preserve" text-anchor="middle" x="784.75" y="-187.38" font-family="Helvetica,sans-Serif" font-size="10.00"> PostDominatorTree * &gt;</text>
</a>
</g>
</g>
<!-- Node3&#45;&gt;Node5 -->
<g id="edge4_Node000003_Node000005" class="edge">
<title>Node3&#45;&gt;Node5</title>
<g id="a_edge4_Node000003_Node000005"><a xlink:title=" ">
<path fill="none" stroke="#63b8ff" d="M679.01,-212.82C693.88,-210.55 709.81,-208.13 724.66,-205.87"/>
<polygon fill="#63b8ff" stroke="#63b8ff" points="678.75,-209.32 669.39,-214.28 679.8,-216.24 678.75,-209.32"/>
</a>
</g>
</g>
<!-- Node7 -->
<g id="Node000007" class="node">
<title>Node7</title>
<g id="a_Node000007"><a xlink:href="structllvm_1_1GraphTraits_3_01VPDomTreeNode_01_5_01_4.html" target="_top" xlink:title="Template specializations of GraphTraits for VPDomTreeNode.">
<polygon fill="white" stroke="#666666" points="674.5,-177.12 562.5,-177.12 562.5,-146.62 674.5,-146.62 674.5,-177.12"/>
<text xml:space="preserve" text-anchor="start" x="570.5" y="-163.62" font-family="Helvetica,sans-Serif" font-size="10.00">llvm::GraphTraits&lt;</text>
<text xml:space="preserve" text-anchor="middle" x="618.5" y="-152.38" font-family="Helvetica,sans-Serif" font-size="10.00"> VPDomTreeNode * &gt;</text>
</a>
</g>
</g>
<!-- Node6&#45;&gt;Node7 -->
<g id="edge6_Node000006_Node000007" class="edge">
<title>Node6&#45;&gt;Node7</title>
<g id="a_edge6_Node000006_Node000007"><a xlink:title=" ">
<path fill="none" stroke="#63b8ff" d="M523.57,-161.88C536.82,-161.88 549.96,-161.88 562.03,-161.88"/>
<polygon fill="#63b8ff" stroke="#63b8ff" points="523.95,-158.38 513.95,-161.88 523.95,-165.38 523.95,-158.38"/>
</a>
</g>
</g>
<!-- Node9 -->
<g id="Node000009" class="node">
<title>Node9</title>
<g id="a_Node000009"><a xlink:href="structllvm_1_1GraphTraits_3_01const_01DomTreeNode_01_5_01_4.html" target="_top" xlink:title=" ">
<polygon fill="white" stroke="#666666" points="681.25,-107.12 555.75,-107.12 555.75,-76.62 681.25,-76.62 681.25,-107.12"/>
<text xml:space="preserve" text-anchor="start" x="563.75" y="-93.62" font-family="Helvetica,sans-Serif" font-size="10.00">llvm::GraphTraits&lt;</text>
<text xml:space="preserve" text-anchor="middle" x="618.5" y="-82.38" font-family="Helvetica,sans-Serif" font-size="10.00"> const DomTreeNode * &gt;</text>
</a>
</g>
</g>
<!-- Node8&#45;&gt;Node9 -->
<g id="edge8_Node000008_Node000009" class="edge">
<title>Node8&#45;&gt;Node9</title>
<g id="a_edge8_Node000008_Node000009"><a xlink:title=" ">
<path fill="none" stroke="#63b8ff" d="M509.62,-91.88C525.08,-91.88 540.86,-91.88 555.41,-91.88"/>
<polygon fill="#63b8ff" stroke="#63b8ff" points="509.95,-88.38 499.95,-91.88 509.95,-95.38 509.95,-88.38"/>
</a>
</g>
</g>
<!-- Node11 -->
<g id="Node000011" class="node">
<title>Node11</title>
<g id="a_Node000011"><a xlink:href="structllvm_1_1GraphTraits_3_01const_01VPDomTreeNode_01_5_01_4.html" target="_top" xlink:title=" ">
<polygon fill="white" stroke="#666666" points="688,-36.12 549,-36.12 549,-5.62 688,-5.62 688,-36.12"/>
<text xml:space="preserve" text-anchor="start" x="557" y="-22.62" font-family="Helvetica,sans-Serif" font-size="10.00">llvm::GraphTraits&lt;</text>
<text xml:space="preserve" text-anchor="middle" x="618.5" y="-11.38" font-family="Helvetica,sans-Serif" font-size="10.00"> const VPDomTreeNode * &gt;</text>
</a>
</g>
</g>
<!-- Node10&#45;&gt;Node11 -->
<g id="edge10_Node000010_Node000011" class="edge">
<title>Node10&#45;&gt;Node11</title>
<g id="a_edge10_Node000010_Node000011"><a xlink:title=" ">
<path fill="none" stroke="#63b8ff" d="M516.52,-20.88C527.37,-20.88 538.25,-20.88 548.65,-20.88"/>
<polygon fill="#63b8ff" stroke="#63b8ff" points="516.77,-17.38 506.77,-20.88 516.77,-24.38 516.77,-17.38"/>
</a>
</g>
</g>
</g>
</svg>
