<?xml version="1.0" encoding="UTF-8" standalone="no"?>
<!DOCTYPE svg PUBLIC "-//W3C//DTD SVG 1.1//EN"
 "http://www.w3.org/Graphics/SVG/1.1/DTD/svg11.dtd">
<!-- Generated by graphviz version 14.1.3 (20260303.0454)
 -->
<!-- Title: llvm::DOTGraphTraits&lt; DotFuncBCIInfo * &gt; Pages: 1 -->
<svg width="237pt" height="179pt"
 viewBox="0.00 0.00 237.00 179.00" xmlns="http://www.w3.org/2000/svg" xmlns:xlink="http://www.w3.org/1999/xlink">
<g id="graph0" class="graph" transform="scale(1 1) rotate(0) translate(4 174.5)">
<title>llvm::DOTGraphTraits&lt; DotFuncBCIInfo * &gt;</title>
<!-- Node1 -->
<g id="Node000001" class="node">
<title>Node1</title>
<g id="a_Node000001"><a xlink:title=" ">
<polygon fill="#999999" stroke="#666666" points="127.75,-30.5 15.75,-30.5 15.75,0 127.75,0 127.75,-30.5"/>
<text xml:space="preserve" text-anchor="start" x="23.75" y="-17" font-family="Helvetica,sans-Serif" font-size="10.00">llvm::DOTGraphTraits</text>
<text xml:space="preserve" text-anchor="middle" x="71.75" y="-5.75" font-family="Helvetica,sans-Serif" font-size="10.00">&lt; DotFuncBCIInfo * &gt;</text>
</a>
</g>
</g>
<!-- Node2 -->
<g id="Node000002" class="node">
<title>Node2</title>
<g id="a_Node000002"><a xlink:href="structllvm_1_1DefaultDOTGraphTraits.html" target="_top" xlink:title="DefaultDOTGraphTraits &#45; This class provides the default implementations of all of the DOTGraphTraits ...">
<polygon fill="white" stroke="#666666" points="143.5,-170.5 0,-170.5 0,-151.25 143.5,-151.25 143.5,-170.5"/>
<text xml:space="preserve" text-anchor="middle" x="71.75" y="-157" font-family="Helvetica,sans-Serif" font-size="10.00">llvm::DefaultDOTGraphTraits</text>
</a>
</g>
</g>
<!-- Node2&#45;&gt;Node1 -->
<g id="edge1_Node000001_Node000002" class="edge">
<title>Node2&#45;&gt;Node1</title>
<g id="a_edge1_Node000001_Node000002"><a xlink:title=" ">
<path fill="none" stroke="#63b8ff" d="M66.88,-139.59C64.18,-110.12 64.39,-56.21 67.51,-30.55"/>
<polygon fill="#63b8ff" stroke="#63b8ff" points="63.39,-139.89 68.08,-149.39 70.33,-139.04 63.39,-139.89"/>
</a>
</g>
</g>
<!-- Node2&#45;&gt;Node1 -->
<g id="edge2_Node000001_Node000002" class="edge">
<title>Node2&#45;&gt;Node1</title>
<g id="a_edge2_Node000001_Node000002"><a xlink:title=" ">
<path fill="none" stroke="#63b8ff" d="M76.62,-139.59C79.32,-110.12 79.11,-56.21 75.99,-30.55"/>
<polygon fill="#63b8ff" stroke="#63b8ff" points="73.17,-139.04 75.42,-149.39 80.11,-139.89 73.17,-139.04"/>
</a>
</g>
</g>
<!-- Node3 -->
<g id="Node000003" class="node">
<title>Node3</title>
<g id="a_Node000003"><a xlink:href="structllvm_1_1DOTGraphTraits.html" target="_top" xlink:title="DOTGraphTraits &#45; Template class that can be specialized to customize how graphs are converted to &#39;dot...">
<polygon fill="white" stroke="#666666" points="220.75,-114.25 108.75,-114.25 108.75,-83.75 220.75,-83.75 220.75,-114.25"/>
<text xml:space="preserve" text-anchor="start" x="116.75" y="-100.75" font-family="Helvetica,sans-Serif" font-size="10.00">llvm::DOTGraphTraits</text>
<text xml:space="preserve" text-anchor="middle" x="164.75" y="-89.5" font-family="Helvetica,sans-Serif" font-size="10.00">&lt; Ty &gt;</text>
</a>
</g>
</g>
<!-- Node2&#45;&gt;Node3 -->
<g id="edge4_Node000003_Node000002" class="edge">
<title>Node2&#45;&gt;Node3</title>
<g id="a_edge4_Node000003_Node000002"><a xlink:title=" ">
<path fill="none" stroke="#63b8ff" d="M95.53,-144.57C109.87,-135.33 128.03,-123.64 142.15,-114.55"/>
<polygon fill="#63b8ff" stroke="#63b8ff" points="93.66,-141.61 87.15,-149.96 97.45,-147.49 93.66,-141.61"/>
</a>
</g>
</g>
<!-- Node3&#45;&gt;Node1 -->
<g id="edge3_Node000001_Node000003" class="edge">
<title>Node3&#45;&gt;Node1</title>
<g id="a_edge3_Node000001_Node000003"><a xlink:title=" ">
<path fill="none" stroke="orange" stroke-dasharray="5,2" d="M139.59,-75.88C123.27,-61.54 102.47,-43.26 88.23,-30.74"/>
<polygon fill="orange" stroke="orange" points="137.17,-78.41 146.99,-82.39 141.79,-73.15 137.17,-78.41"/>
</a>
</g>
<text xml:space="preserve" text-anchor="start" x="129.58" y="-54.5" font-family="Helvetica,sans-Serif" font-size="10.00" fill="grey">&lt; DotFuncBCIInfo * &gt;</text>
</g>
</g>
</svg>
