<?xml version="1.0" encoding="UTF-8" standalone="no"?>
<!DOCTYPE svg PUBLIC "-//W3C//DTD SVG 1.1//EN"
 "http://www.w3.org/Graphics/SVG/1.1/DTD/svg11.dtd">
<!-- Generated by graphviz version 14.1.3 (20260303.0454)
 -->
<!-- Title: llvm::ilist_traits&lt; NodeTy &gt; Pages: 1 -->
<svg width="1570pt" height="602pt"
 viewBox="0.00 0.00 1570.00 602.00" xmlns="http://www.w3.org/2000/svg" xmlns:xlink="http://www.w3.org/1999/xlink">
<g id="graph0" class="graph" transform="scale(1 1) rotate(0) translate(4 598.05)">
<title>llvm::ilist_traits&lt; NodeTy &gt;</title>
<!-- Node1 -->
<g id="Node000001" class="node">
<title>Node1</title>
<g id="a_Node000001"><a xlink:title="Template traits for intrusive list.">
<polygon fill="#999999" stroke="#666666" points="371.75,-218.73 289.75,-218.73 289.75,-188.23 371.75,-188.23 371.75,-218.73"/>
<text xml:space="preserve" text-anchor="start" x="297.75" y="-205.23" font-family="Helvetica,sans-Serif" font-size="10.00">llvm::ilist_traits</text>
<text xml:space="preserve" text-anchor="middle" x="330.75" y="-193.98" font-family="Helvetica,sans-Serif" font-size="10.00">&lt; NodeTy &gt;</text>
</a>
</g>
</g>
<!-- Node5 -->
<g id="Node000005" class="node">
<title>Node5</title>
<g id="a_Node000005"><a xlink:href="structllvm_1_1ilist__traits.html" target="_top" xlink:title=" ">
<polygon fill="white" stroke="#666666" points="594,-256.11 488,-256.11 488,-236.86 594,-236.86 594,-256.11"/>
<text xml:space="preserve" text-anchor="middle" x="541" y="-242.61" font-family="Helvetica,sans-Serif" font-size="10.00">llvm::ilist_traits&lt; T &gt;</text>
</a>
</g>
</g>
<!-- Node1&#45;&gt;Node5 -->
<g id="edge4_Node000001_Node000005" class="edge">
<title>Node1&#45;&gt;Node5</title>
<g id="a_edge4_Node000001_Node000005"><a xlink:title=" ">
<path fill="none" stroke="orange" stroke-dasharray="5,2" d="M382.9,-220.72C385.21,-221.35 387.5,-221.94 389.75,-222.48 421.97,-230.28 458.71,-236.2 487.79,-240.21"/>
<polygon fill="orange" stroke="orange" points="384.11,-217.43 373.53,-218.02 382.17,-224.15 384.11,-217.43"/>
</a>
</g>
<text xml:space="preserve" text-anchor="start" x="417.88" y="-243.22" font-family="Helvetica,sans-Serif" font-size="10.00" fill="grey">&lt; T &gt;</text>
</g>
<!-- Node24 -->
<g id="Node000024" class="node">
<title>Node24</title>
<g id="a_Node000024"><a xlink:href="structllvm_1_1ilist__traits_3_01MachineInstr_01_4.html" target="_top" xlink:title=" ">
<polygon fill="white" stroke="#666666" points="586.12,-218.73 495.88,-218.73 495.88,-188.23 586.12,-188.23 586.12,-218.73"/>
<text xml:space="preserve" text-anchor="start" x="503.88" y="-205.23" font-family="Helvetica,sans-Serif" font-size="10.00">llvm::ilist_traits</text>
<text xml:space="preserve" text-anchor="middle" x="541" y="-193.98" font-family="Helvetica,sans-Serif" font-size="10.00">&lt; MachineInstr &gt;</text>
</a>
</g>
</g>
<!-- Node1&#45;&gt;Node24 -->
<g id="edge24_Node000001_Node000024" class="edge">
<title>Node1&#45;&gt;Node24</title>
<g id="a_edge24_Node000001_Node000024"><a xlink:title=" ">
<path fill="none" stroke="orange" stroke-dasharray="5,2" d="M383.17,-203.48C417.69,-203.48 462.7,-203.48 495.64,-203.48"/>
<polygon fill="orange" stroke="orange" points="383.42,-199.98 373.42,-203.48 383.42,-206.98 383.42,-199.98"/>
</a>
</g>
<text xml:space="preserve" text-anchor="start" x="392.75" y="-209.48" font-family="Helvetica,sans-Serif" font-size="10.00" fill="grey">&lt; MachineInstr &gt;</text>
</g>
<!-- Node25 -->
<g id="Node000025" class="node">
<title>Node25</title>
<g id="a_Node000025"><a xlink:href="structllvm_1_1ilist__traits_3_01const_01Ty_01_4.html" target="_top" xlink:title="Const traits should never be instantiated.">
<polygon fill="white" stroke="#666666" points="582,-169.73 500,-169.73 500,-139.23 582,-139.23 582,-169.73"/>
<text xml:space="preserve" text-anchor="start" x="508" y="-156.23" font-family="Helvetica,sans-Serif" font-size="10.00">llvm::ilist_traits</text>
<text xml:space="preserve" text-anchor="middle" x="541" y="-144.98" font-family="Helvetica,sans-Serif" font-size="10.00">&lt; const Ty &gt;</text>
</a>
</g>
</g>
<!-- Node1&#45;&gt;Node25 -->
<g id="edge25_Node000001_Node000025" class="edge">
<title>Node1&#45;&gt;Node25</title>
<g id="a_edge25_Node000001_Node000025"><a xlink:title=" ">
<path fill="none" stroke="orange" stroke-dasharray="5,2" d="M382.87,-184.22C385.19,-183.52 387.49,-182.85 389.75,-182.23 426.47,-172.19 469.23,-164.69 499.73,-160.03"/>
<polygon fill="orange" stroke="orange" points="381.9,-180.86 373.47,-187.27 384.06,-187.52 381.9,-180.86"/>
</a>
</g>
<text xml:space="preserve" text-anchor="start" x="402.12" y="-188.23" font-family="Helvetica,sans-Serif" font-size="10.00" fill="grey">&lt; const Ty &gt;</text>
</g>
<!-- Node2 -->
<g id="Node000002" class="node">
<title>Node2</title>
<g id="a_Node000002"><a xlink:href="structllvm_1_1ilist__node__traits.html" target="_top" xlink:title="A fragment for template traits for intrusive list that provides default node related operations.">
<polygon fill="white" stroke="#666666" points="252.75,-218.73 144.5,-218.73 144.5,-188.23 252.75,-188.23 252.75,-218.73"/>
<text xml:space="preserve" text-anchor="start" x="152.5" y="-205.23" font-family="Helvetica,sans-Serif" font-size="10.00">llvm::ilist_node_traits</text>
<text xml:space="preserve" text-anchor="middle" x="198.62" y="-193.98" font-family="Helvetica,sans-Serif" font-size="10.00">&lt; NodeTy &gt;</text>
</a>
</g>
</g>
<!-- Node2&#45;&gt;Node1 -->
<g id="edge1_Node000001_Node000002" class="edge">
<title>Node2&#45;&gt;Node1</title>
<g id="a_edge1_Node000001_Node000002"><a xlink:title=" ">
<path fill="none" stroke="#63b8ff" d="M264.2,-203.48C272.82,-203.48 281.45,-203.48 289.48,-203.48"/>
<polygon fill="#63b8ff" stroke="#63b8ff" points="264.44,-199.98 254.44,-203.48 264.44,-206.98 264.44,-199.98"/>
</a>
</g>
</g>
<!-- Node3 -->
<g id="Node000003" class="node">
<title>Node3</title>
<g id="a_Node000003"><a xlink:href="structllvm_1_1ilist__alloc__traits.html" target="_top" xlink:title="Use delete by default for iplist and ilist.">
<polygon fill="white" stroke="#666666" points="107.5,-243.73 0,-243.73 0,-213.23 107.5,-213.23 107.5,-243.73"/>
<text xml:space="preserve" text-anchor="start" x="8" y="-230.23" font-family="Helvetica,sans-Serif" font-size="10.00">llvm::ilist_alloc_traits</text>
<text xml:space="preserve" text-anchor="middle" x="53.75" y="-218.98" font-family="Helvetica,sans-Serif" font-size="10.00">&lt; NodeTy &gt;</text>
</a>
</g>
</g>
<!-- Node3&#45;&gt;Node2 -->
<g id="edge2_Node000002_Node000003" class="edge">
<title>Node3&#45;&gt;Node2</title>
<g id="a_edge2_Node000002_Node000003"><a xlink:title=" ">
<path fill="none" stroke="#63b8ff" d="M119.28,-217.19C127.67,-215.72 136.2,-214.23 144.38,-212.8"/>
<polygon fill="#63b8ff" stroke="#63b8ff" points="118.69,-213.74 109.44,-218.91 119.9,-220.64 118.69,-213.74"/>
</a>
</g>
</g>
<!-- Node4 -->
<g id="Node000004" class="node">
<title>Node4</title>
<g id="a_Node000004"><a xlink:href="structllvm_1_1ilist__callback__traits.html" target="_top" xlink:title="Callbacks do nothing by default in iplist and ilist.">
<polygon fill="white" stroke="#666666" points="101.88,-194.73 5.62,-194.73 5.62,-164.23 101.88,-164.23 101.88,-194.73"/>
<text xml:space="preserve" text-anchor="start" x="13.62" y="-181.23" font-family="Helvetica,sans-Serif" font-size="10.00">llvm::ilist_callback</text>
<text xml:space="preserve" text-anchor="middle" x="53.75" y="-169.98" font-family="Helvetica,sans-Serif" font-size="10.00">_traits&lt; NodeTy &gt;</text>
</a>
</g>
</g>
<!-- Node4&#45;&gt;Node2 -->
<g id="edge3_Node000002_Node000004" class="edge">
<title>Node4&#45;&gt;Node2</title>
<g id="a_edge3_Node000002_Node000004"><a xlink:title=" ">
<path fill="none" stroke="#63b8ff" d="M113.62,-189.37C123.8,-191.08 134.33,-192.85 144.34,-194.53"/>
<polygon fill="#63b8ff" stroke="#63b8ff" points="114.26,-185.93 103.82,-187.73 113.1,-192.83 114.26,-185.93"/>
</a>
</g>
</g>
<!-- Node6 -->
<g id="Node000006" class="node">
<title>Node6</title>
<g id="a_Node000006"><a xlink:href="classllvm_1_1iplist__impl.html" target="_top" xlink:title=" ">
<polygon fill="white" stroke="#666666" points="761,-267.36 631,-267.36 631,-225.61 761,-225.61 761,-267.36"/>
<text xml:space="preserve" text-anchor="start" x="639" y="-253.86" font-family="Helvetica,sans-Serif" font-size="10.00">llvm::iplist_impl&lt;</text>
<text xml:space="preserve" text-anchor="start" x="639" y="-242.61" font-family="Helvetica,sans-Serif" font-size="10.00"> simple_ilist&lt; T, Options...</text>
<text xml:space="preserve" text-anchor="middle" x="696" y="-231.36" font-family="Helvetica,sans-Serif" font-size="10.00"> &gt;, ilist_traits&lt; T &gt; &gt;</text>
</a>
</g>
</g>
<!-- Node5&#45;&gt;Node6 -->
<g id="edge5_Node000005_Node000006" class="edge">
<title>Node5&#45;&gt;Node6</title>
<g id="a_edge5_Node000005_Node000006"><a xlink:title=" ">
<path fill="none" stroke="#63b8ff" d="M605.67,-246.48C613.9,-246.48 622.32,-246.48 630.56,-246.48"/>
<polygon fill="#63b8ff" stroke="#63b8ff" points="605.74,-242.98 595.74,-246.48 605.74,-249.98 605.74,-242.98"/>
</a>
</g>
</g>
<!-- Node7 -->
<g id="Node000007" class="node">
<title>Node7</title>
<g id="a_Node000007"><a xlink:href="classllvm_1_1iplist.html" target="_top" xlink:title=" ">
<polygon fill="white" stroke="#666666" points="1247,-292.11 1115.5,-292.11 1115.5,-272.86 1247,-272.86 1247,-292.11"/>
<text xml:space="preserve" text-anchor="middle" x="1181.25" y="-278.61" font-family="Helvetica,sans-Serif" font-size="10.00">llvm::iplist&lt; T, Options... &gt;</text>
</a>
</g>
</g>
<!-- Node6&#45;&gt;Node7 -->
<g id="edge6_Node000006_Node000007" class="edge">
<title>Node6&#45;&gt;Node7</title>
<g id="a_edge6_Node000006_Node000007"><a xlink:title=" ">
<path fill="none" stroke="#63b8ff" d="M772.36,-261.44C819.82,-270.09 882.48,-280.1 938.5,-284.48 1005.96,-289.76 1023.09,-285.24 1090.75,-284.48 1098.68,-284.39 1107,-284.26 1115.24,-284.11"/>
<polygon fill="#63b8ff" stroke="#63b8ff" points="773.21,-258.04 762.74,-259.67 771.94,-264.92 773.21,-258.04"/>
</a>
</g>
</g>
<!-- Node20 -->
<g id="Node000020" class="node">
<title>Node20</title>
<g id="a_Node000020"><a xlink:href="classllvm_1_1iplist.html" target="_top" xlink:title="An intrusive list with ownership and callbacks specified/controlled by ilist_traits,...">
<polygon fill="white" stroke="#666666" points="920.5,-205.11 798,-205.11 798,-185.86 920.5,-185.86 920.5,-205.11"/>
<text xml:space="preserve" text-anchor="middle" x="859.25" y="-191.61" font-family="Helvetica,sans-Serif" font-size="10.00">llvm::iplist&lt; T, Options &gt;</text>
</a>
</g>
</g>
<!-- Node6&#45;&gt;Node20 -->
<g id="edge19_Node000006_Node000020" class="edge">
<title>Node6&#45;&gt;Node20</title>
<g id="a_edge19_Node000006_Node000020"><a xlink:title=" ">
<path fill="none" stroke="#63b8ff" d="M772.1,-222.73C791.31,-216.66 810.93,-210.45 826.58,-205.5"/>
<polygon fill="#63b8ff" stroke="#63b8ff" points="771.12,-219.37 762.64,-225.72 773.23,-226.05 771.12,-219.37"/>
</a>
</g>
</g>
<!-- Node8 -->
<g id="Node000008" class="node">
<title>Node8</title>
<g id="a_Node000008"><a xlink:href="classllvm_1_1iplist.html" target="_top" xlink:title=" ">
<polygon fill="white" stroke="#666666" points="1555.12,-574.11 1431.12,-574.11 1431.12,-554.86 1555.12,-554.86 1555.12,-574.11"/>
<text xml:space="preserve" text-anchor="middle" x="1493.12" y="-560.61" font-family="Helvetica,sans-Serif" font-size="10.00">llvm::iterator&lt; AliasSet &gt;</text>
</a>
</g>
</g>
<!-- Node7&#45;&gt;Node8 -->
<g id="edge7_Node000007_Node000008" class="edge">
<title>Node7&#45;&gt;Node8</title>
<g id="a_edge7_Node000007_Node000008"><a xlink:title=" ">
<path fill="none" stroke="orange" stroke-dasharray="5,2" d="M1182.41,-304.03C1184.08,-354.88 1195.98,-482.53 1271.75,-542.48 1317.28,-578.51 1385.77,-579.69 1434.3,-574.6"/>
<polygon fill="orange" stroke="orange" points="1185.91,-304.03 1182.21,-294.11 1178.92,-304.18 1185.91,-304.03"/>
</a>
</g>
<text xml:space="preserve" text-anchor="start" x="1293.88" y="-582.8" font-family="Helvetica,sans-Serif" font-size="10.00" fill="grey">&lt; AliasSet &gt;::iterator</text>
</g>
<!-- Node9 -->
<g id="Node000009" class="node">
<title>Node9</title>
<g id="a_Node000009"><a xlink:href="classllvm_1_1iplist.html" target="_top" xlink:title=" ">
<polygon fill="white" stroke="#666666" points="1542.75,-528.73 1443.5,-528.73 1443.5,-498.23 1542.75,-498.23 1542.75,-528.73"/>
<text xml:space="preserve" text-anchor="start" x="1451.5" y="-515.23" font-family="Helvetica,sans-Serif" font-size="10.00">llvm::const_iterator</text>
<text xml:space="preserve" text-anchor="middle" x="1493.12" y="-503.98" font-family="Helvetica,sans-Serif" font-size="10.00">&lt; AliasSet &gt;</text>
</a>
</g>
</g>
<!-- Node7&#45;&gt;Node9 -->
<g id="edge8_Node000007_Node000009" class="edge">
<title>Node7&#45;&gt;Node9</title>
<g id="a_edge8_Node000007_Node000009"><a xlink:title=" ">
<path fill="none" stroke="orange" stroke-dasharray="5,2" d="M1184.75,-303.43C1190.98,-345.57 1211.32,-440.4 1271.75,-485.48 1285.22,-495.53 1382.45,-504.87 1443.18,-509.81"/>
<polygon fill="orange" stroke="orange" points="1188.23,-303.11 1183.44,-293.66 1181.3,-304.03 1188.23,-303.11"/>
</a>
</g>
<text xml:space="preserve" text-anchor="start" x="1296.88" y="-527.47" font-family="Helvetica,sans-Serif" font-size="10.00" fill="grey">&lt; AliasSet &gt;::const</text>
<text xml:space="preserve" text-anchor="start" x="1296.88" y="-512.22" font-family="Helvetica,sans-Serif" font-size="10.00" fill="grey">  _iterator</text>
</g>
<!-- Node10 -->
<g id="Node000010" class="node">
<title>Node10</title>
<g id="a_Node000010"><a xlink:href="classllvm_1_1iplist.html" target="_top" xlink:title=" ">
<polygon fill="white" stroke="#666666" points="1550.25,-479.73 1436,-479.73 1436,-449.23 1550.25,-449.23 1550.25,-479.73"/>
<text xml:space="preserve" text-anchor="start" x="1444" y="-466.23" font-family="Helvetica,sans-Serif" font-size="10.00">llvm::iterator&lt; IVStride</text>
<text xml:space="preserve" text-anchor="middle" x="1493.12" y="-454.98" font-family="Helvetica,sans-Serif" font-size="10.00">Use &gt;</text>
</a>
</g>
</g>
<!-- Node7&#45;&gt;Node10 -->
<g id="edge9_Node000007_Node000010" class="edge">
<title>Node7&#45;&gt;Node10</title>
<g id="a_edge9_Node000007_Node000010"><a xlink:title=" ">
<path fill="none" stroke="orange" stroke-dasharray="5,2" d="M1187.27,-303.49C1196.93,-338.88 1221.74,-409.71 1271.75,-442.48 1297.84,-459.58 1379.38,-463.84 1435.6,-464.67"/>
<polygon fill="orange" stroke="orange" points="1190.72,-302.86 1184.84,-294.04 1183.94,-304.6 1190.72,-302.86"/>
</a>
</g>
<text xml:space="preserve" text-anchor="start" x="1285.25" y="-469.84" font-family="Helvetica,sans-Serif" font-size="10.00" fill="grey">&lt; IVStrideUse &gt;::iterator</text>
</g>
<!-- Node11 -->
<g id="Node000011" class="node">
<title>Node11</title>
<g id="a_Node000011"><a xlink:href="classllvm_1_1iplist.html" target="_top" xlink:title=" ">
<polygon fill="white" stroke="#666666" points="1542.75,-430.73 1443.5,-430.73 1443.5,-400.23 1542.75,-400.23 1542.75,-430.73"/>
<text xml:space="preserve" text-anchor="start" x="1451.5" y="-417.23" font-family="Helvetica,sans-Serif" font-size="10.00">llvm::const_iterator</text>
<text xml:space="preserve" text-anchor="middle" x="1493.12" y="-405.98" font-family="Helvetica,sans-Serif" font-size="10.00">&lt; IVStrideUse &gt;</text>
</a>
</g>
</g>
<!-- Node7&#45;&gt;Node11 -->
<g id="edge10_Node000007_Node000011" class="edge">
<title>Node7&#45;&gt;Node11</title>
<g id="a_edge10_Node000007_Node000011"><a xlink:title=" ">
<path fill="none" stroke="orange" stroke-dasharray="5,2" d="M1193.05,-302.19C1207.51,-326.48 1235.59,-366.94 1271.75,-386.48 1286.5,-394.45 1382.74,-404.96 1443.06,-410.89"/>
<polygon fill="orange" stroke="orange" points="1196.14,-300.55 1188.14,-293.62 1190.07,-304.03 1196.14,-300.55"/>
</a>
</g>
<text xml:space="preserve" text-anchor="start" x="1288.25" y="-427.99" font-family="Helvetica,sans-Serif" font-size="10.00" fill="grey">&lt; IVStrideUse &gt;::const</text>
<text xml:space="preserve" text-anchor="start" x="1288.25" y="-412.74" font-family="Helvetica,sans-Serif" font-size="10.00" fill="grey">  _iterator</text>
</g>
<!-- Node12 -->
<g id="Node000012" class="node">
<title>Node12</title>
<g id="a_Node000012"><a xlink:href="classllvm_1_1iplist.html" target="_top" xlink:title=" ">
<polygon fill="white" stroke="#666666" points="1562.25,-382.36 1424,-382.36 1424,-340.61 1562.25,-340.61 1562.25,-382.36"/>
<text xml:space="preserve" text-anchor="start" x="1432" y="-368.86" font-family="Helvetica,sans-Serif" font-size="10.00">llvm::iplist&lt; T, Options...</text>
<text xml:space="preserve" text-anchor="start" x="1432" y="-357.61" font-family="Helvetica,sans-Serif" font-size="10.00"> &gt;&lt; MachineInstr, ilist</text>
<text xml:space="preserve" text-anchor="middle" x="1493.12" y="-346.36" font-family="Helvetica,sans-Serif" font-size="10.00">_sentinel_tracking&lt; true &gt; &gt;</text>
</a>
</g>
</g>
<!-- Node7&#45;&gt;Node12 -->
<g id="edge11_Node000007_Node000012" class="edge">
<title>Node7&#45;&gt;Node12</title>
<g id="a_edge11_Node000007_Node000012"><a xlink:title=" ">
<path fill="none" stroke="orange" stroke-dasharray="5,2" d="M1211.62,-297.34C1228.78,-305.49 1251.07,-315.19 1271.75,-321.48 1321.6,-336.64 1379.64,-346.89 1423.64,-353.22"/>
<polygon fill="orange" stroke="orange" points="1213.55,-294.38 1203.02,-293.17 1210.49,-300.68 1213.55,-294.38"/>
</a>
</g>
<text xml:space="preserve" text-anchor="start" x="1274.75" y="-371.14" font-family="Helvetica,sans-Serif" font-size="10.00" fill="grey">&lt; MachineInstr, ilist</text>
<text xml:space="preserve" text-anchor="start" x="1274.75" y="-355.89" font-family="Helvetica,sans-Serif" font-size="10.00" fill="grey">  _sentinel_tracking&lt; true &gt; &gt;</text>
</g>
<!-- Node13 -->
<g id="Node000013" class="node">
<title>Node13</title>
<g id="a_Node000013"><a xlink:href="classllvm_1_1iplist.html" target="_top" xlink:title=" ">
<polygon fill="white" stroke="#666666" points="1557.75,-322.73 1428.5,-322.73 1428.5,-292.23 1557.75,-292.23 1557.75,-322.73"/>
<text xml:space="preserve" text-anchor="start" x="1436.5" y="-309.23" font-family="Helvetica,sans-Serif" font-size="10.00">llvm::iplist&lt; T, Options...</text>
<text xml:space="preserve" text-anchor="middle" x="1493.12" y="-297.98" font-family="Helvetica,sans-Serif" font-size="10.00"> &gt;&lt; MachineBasicBlock &gt;</text>
</a>
</g>
</g>
<!-- Node7&#45;&gt;Node13 -->
<g id="edge12_Node000007_Node000013" class="edge">
<title>Node7&#45;&gt;Node13</title>
<g id="a_edge12_Node000007_Node000013"><a xlink:title=" ">
<path fill="none" stroke="orange" stroke-dasharray="5,2" d="M1258.4,-288.63C1310.48,-292.83 1378.75,-298.34 1428.05,-302.31"/>
<polygon fill="orange" stroke="orange" points="1258.97,-285.16 1248.72,-287.85 1258.4,-292.14 1258.97,-285.16"/>
</a>
</g>
<text xml:space="preserve" text-anchor="start" x="1286.75" y="-306.1" font-family="Helvetica,sans-Serif" font-size="10.00" fill="grey">&lt; MachineBasicBlock &gt;</text>
</g>
<!-- Node14 -->
<g id="Node000014" class="node">
<title>Node14</title>
<g id="a_Node000014"><a xlink:href="classllvm_1_1iplist.html" target="_top" xlink:title=" ">
<polygon fill="white" stroke="#666666" points="1542.75,-273.73 1443.5,-273.73 1443.5,-243.23 1542.75,-243.23 1542.75,-273.73"/>
<text xml:space="preserve" text-anchor="start" x="1451.5" y="-260.23" font-family="Helvetica,sans-Serif" font-size="10.00">llvm::const_iterator</text>
<text xml:space="preserve" text-anchor="middle" x="1493.12" y="-248.98" font-family="Helvetica,sans-Serif" font-size="10.00">&lt; SDNode &gt;</text>
</a>
</g>
</g>
<!-- Node7&#45;&gt;Node14 -->
<g id="edge13_Node000007_Node000014" class="edge">
<title>Node7&#45;&gt;Node14</title>
<g id="a_edge13_Node000007_Node000014"><a xlink:title=" ">
<path fill="none" stroke="orange" stroke-dasharray="5,2" d="M1250.57,-270.79C1257.71,-269.81 1264.87,-268.93 1271.75,-268.23 1330.62,-262.26 1398.7,-259.95 1443.43,-259.05"/>
<polygon fill="orange" stroke="orange" points="1250.32,-267.29 1240.92,-272.17 1251.31,-274.22 1250.32,-267.29"/>
</a>
</g>
<text xml:space="preserve" text-anchor="start" x="1278.5" y="-274.23" font-family="Helvetica,sans-Serif" font-size="10.00" fill="grey">&lt; SDNode &gt;::const_iterator</text>
</g>
<!-- Node15 -->
<g id="Node000015" class="node">
<title>Node15</title>
<g id="a_Node000015"><a xlink:href="classllvm_1_1iplist.html" target="_top" xlink:title=" ">
<polygon fill="white" stroke="#666666" points="1555.88,-225.11 1430.38,-225.11 1430.38,-205.86 1555.88,-205.86 1555.88,-225.11"/>
<text xml:space="preserve" text-anchor="middle" x="1493.12" y="-211.61" font-family="Helvetica,sans-Serif" font-size="10.00">llvm::iterator&lt; SDNode &gt;</text>
</a>
</g>
</g>
<!-- Node7&#45;&gt;Node15 -->
<g id="edge14_Node000007_Node000015" class="edge">
<title>Node7&#45;&gt;Node15</title>
<g id="a_edge14_Node000007_Node000015"><a xlink:title=" ">
<path fill="none" stroke="orange" stroke-dasharray="5,2" d="M1208.65,-266.75C1225.98,-257.17 1249.49,-245.6 1271.75,-239.23 1323.91,-224.3 1385.47,-218.62 1430.25,-216.52"/>
<polygon fill="orange" stroke="orange" points="1207,-263.66 1200.03,-271.64 1210.46,-269.74 1207,-263.66"/>
</a>
</g>
<text xml:space="preserve" text-anchor="start" x="1293.12" y="-245.23" font-family="Helvetica,sans-Serif" font-size="10.00" fill="grey">&lt; SDNode &gt;::iterator</text>
</g>
<!-- Node16 -->
<g id="Node000016" class="node">
<title>Node16</title>
<g id="a_Node000016"><a xlink:href="classllvm_1_1iplist.html" target="_top" xlink:title=" ">
<polygon fill="white" stroke="#666666" points="1554.38,-187.73 1431.88,-187.73 1431.88,-157.23 1554.38,-157.23 1554.38,-187.73"/>
<text xml:space="preserve" text-anchor="start" x="1439.88" y="-174.23" font-family="Helvetica,sans-Serif" font-size="10.00">llvm::iplist&lt; T, Options...</text>
<text xml:space="preserve" text-anchor="middle" x="1493.12" y="-162.98" font-family="Helvetica,sans-Serif" font-size="10.00"> &gt;&lt; NamedMDNode &gt;</text>
</a>
</g>
</g>
<!-- Node7&#45;&gt;Node16 -->
<g id="edge15_Node000007_Node000016" class="edge">
<title>Node7&#45;&gt;Node16</title>
<g id="a_edge15_Node000007_Node000016"><a xlink:title=" ">
<path fill="none" stroke="orange" stroke-dasharray="5,2" d="M1209.2,-266.48C1223.62,-256.99 1240.99,-244.01 1253.75,-229.48 1264.59,-217.15 1258.08,-206.32 1271.75,-197.23 1318.72,-166 1384.1,-162.41 1431.44,-165.05"/>
<polygon fill="orange" stroke="orange" points="1207.62,-263.33 1201.05,-271.65 1211.37,-269.24 1207.62,-263.33"/>
</a>
</g>
<text xml:space="preserve" text-anchor="start" x="1294.62" y="-203.23" font-family="Helvetica,sans-Serif" font-size="10.00" fill="grey">&lt; NamedMDNode &gt;</text>
</g>
<!-- Node17 -->
<g id="Node000017" class="node">
<title>Node17</title>
<g id="a_Node000017"><a xlink:href="classllvm_1_1iplist.html" target="_top" xlink:title=" ">
<polygon fill="white" stroke="#666666" points="1554.38,-138.73 1431.88,-138.73 1431.88,-108.23 1554.38,-108.23 1554.38,-138.73"/>
<text xml:space="preserve" text-anchor="start" x="1439.88" y="-125.23" font-family="Helvetica,sans-Serif" font-size="10.00">llvm::iplist&lt; T, Options...</text>
<text xml:space="preserve" text-anchor="middle" x="1493.12" y="-113.98" font-family="Helvetica,sans-Serif" font-size="10.00"> &gt;&lt; llvm::AliasSet &gt;</text>
</a>
</g>
</g>
<!-- Node7&#45;&gt;Node17 -->
<g id="edge16_Node000007_Node000017" class="edge">
<title>Node7&#45;&gt;Node17</title>
<g id="a_edge16_Node000007_Node000017"><a xlink:title=" ">
<path fill="none" stroke="orange" stroke-dasharray="5,2" d="M1212.79,-266.78C1227.35,-257.77 1243.73,-245.13 1253.75,-229.48 1274.86,-196.5 1242.5,-169.27 1271.75,-143.23 1314.65,-105.06 1382.6,-104.73 1431.71,-111.07"/>
<polygon fill="orange" stroke="orange" points="1211.29,-263.61 1204.41,-271.67 1214.82,-269.65 1211.29,-263.61"/>
</a>
</g>
<text xml:space="preserve" text-anchor="start" x="1299.5" y="-149.23" font-family="Helvetica,sans-Serif" font-size="10.00" fill="grey">&lt; llvm::AliasSet &gt;</text>
</g>
<!-- Node18 -->
<g id="Node000018" class="node">
<title>Node18</title>
<g id="a_Node000018"><a xlink:href="classllvm_1_1iplist.html" target="_top" xlink:title=" ">
<polygon fill="white" stroke="#666666" points="1554.38,-89.73 1431.88,-89.73 1431.88,-59.23 1554.38,-59.23 1554.38,-89.73"/>
<text xml:space="preserve" text-anchor="start" x="1439.88" y="-76.23" font-family="Helvetica,sans-Serif" font-size="10.00">llvm::iplist&lt; T, Options...</text>
<text xml:space="preserve" text-anchor="middle" x="1493.12" y="-64.98" font-family="Helvetica,sans-Serif" font-size="10.00"> &gt;&lt; llvm::IVStrideUse &gt;</text>
</a>
</g>
</g>
<!-- Node7&#45;&gt;Node18 -->
<g id="edge17_Node000007_Node000018" class="edge">
<title>Node7&#45;&gt;Node18</title>
<g id="a_edge17_Node000007_Node000018"><a xlink:title=" ">
<path fill="none" stroke="orange" stroke-dasharray="5,2" d="M1213.63,-266.93C1228.24,-258.01 1244.43,-245.41 1253.75,-229.48 1269.84,-201.98 1248.47,-108.98 1271.75,-87.23 1313.76,-47.99 1382.2,-50.36 1431.67,-59.05"/>
<polygon fill="orange" stroke="orange" points="1212.12,-263.75 1205.17,-271.75 1215.59,-269.83 1212.12,-263.75"/>
</a>
</g>
<text xml:space="preserve" text-anchor="start" x="1291.25" y="-93.23" font-family="Helvetica,sans-Serif" font-size="10.00" fill="grey">&lt; llvm::IVStrideUse &gt;</text>
</g>
<!-- Node19 -->
<g id="Node000019" class="node">
<title>Node19</title>
<g id="a_Node000019"><a xlink:href="classllvm_1_1iplist.html" target="_top" xlink:title=" ">
<polygon fill="white" stroke="#666666" points="1554.38,-40.73 1431.88,-40.73 1431.88,-10.23 1554.38,-10.23 1554.38,-40.73"/>
<text xml:space="preserve" text-anchor="start" x="1439.88" y="-27.23" font-family="Helvetica,sans-Serif" font-size="10.00">llvm::iplist&lt; T, Options...</text>
<text xml:space="preserve" text-anchor="middle" x="1493.12" y="-15.98" font-family="Helvetica,sans-Serif" font-size="10.00"> &gt;&lt; llvm::SDNode &gt;</text>
</a>
</g>
</g>
<!-- Node7&#45;&gt;Node19 -->
<g id="edge18_Node000007_Node000019" class="edge">
<title>Node7&#45;&gt;Node19</title>
<g id="a_edge18_Node000007_Node000019"><a xlink:title=" ">
<path fill="none" stroke="orange" stroke-dasharray="5,2" d="M1214.16,-266.88C1228.76,-258.01 1244.77,-245.46 1253.75,-229.48 1275.31,-191.11 1239.7,-62.4 1271.75,-32.23 1316.2,9.61 1390.81,1.94 1440.74,-9.8"/>
<polygon fill="orange" stroke="orange" points="1212.67,-263.7 1205.7,-271.68 1216.13,-269.79 1212.67,-263.7"/>
</a>
</g>
<text xml:space="preserve" text-anchor="start" x="1299.12" y="-38.23" font-family="Helvetica,sans-Serif" font-size="10.00" fill="grey">&lt; llvm::SDNode &gt;</text>
</g>
<!-- Node20&#45;&gt;Node7 -->
<g id="edge20_Node000020_Node000007" class="edge">
<title>Node20&#45;&gt;Node7</title>
<g id="a_edge20_Node000020_Node000007"><a xlink:title=" ">
<path fill="none" stroke="orange" stroke-dasharray="5,2" d="M881.64,-212.28C896.69,-223.21 917.78,-236.83 938.5,-244.48 1002.68,-268.19 1023.19,-256.43 1090.75,-267.23 1100.87,-268.85 1111.62,-270.63 1122.02,-272.38"/>
<polygon fill="orange" stroke="orange" points="883.99,-209.67 873.89,-206.47 879.79,-215.27 883.99,-209.67"/>
</a>
</g>
<text xml:space="preserve" text-anchor="start" x="979" y="-273.23" font-family="Helvetica,sans-Serif" font-size="10.00" fill="grey">&lt; T, Options... &gt;</text>
</g>
<!-- Node21 -->
<g id="Node000021" class="node">
<title>Node21</title>
<g id="a_Node000021"><a xlink:href="classllvm_1_1iplist.html" target="_top" xlink:title=" ">
<polygon fill="white" stroke="#666666" points="1251.5,-220.36 1111,-220.36 1111,-178.61 1251.5,-178.61 1251.5,-220.36"/>
<text xml:space="preserve" text-anchor="start" x="1119" y="-206.86" font-family="Helvetica,sans-Serif" font-size="10.00">llvm::iplist&lt; MemoryAccess,</text>
<text xml:space="preserve" text-anchor="start" x="1119" y="-195.61" font-family="Helvetica,sans-Serif" font-size="10.00"> ilist_tag&lt; MSSAHelpers</text>
<text xml:space="preserve" text-anchor="middle" x="1181.25" y="-184.36" font-family="Helvetica,sans-Serif" font-size="10.00">::AllAccessTag &gt; &gt;</text>
</a>
</g>
</g>
<!-- Node20&#45;&gt;Node21 -->
<g id="edge21_Node000020_Node000021" class="edge">
<title>Node20&#45;&gt;Node21</title>
<g id="a_edge21_Node000020_Node000021"><a xlink:title=" ">
<path fill="none" stroke="orange" stroke-dasharray="5,2" d="M932.15,-195.41C977.62,-195.47 1037.63,-195.77 1090.75,-196.73 1097.28,-196.85 1104.07,-197 1110.87,-197.18"/>
<polygon fill="orange" stroke="orange" points="932.44,-191.91 922.43,-195.4 932.43,-198.91 932.44,-191.91"/>
</a>
</g>
<text xml:space="preserve" text-anchor="start" x="941.5" y="-233.23" font-family="Helvetica,sans-Serif" font-size="10.00" fill="grey">&lt; MemoryAccess, ilist</text>
<text xml:space="preserve" text-anchor="start" x="941.5" y="-217.98" font-family="Helvetica,sans-Serif" font-size="10.00" fill="grey">  _tag&lt; MSSAHelpers::AllAccess</text>
<text xml:space="preserve" text-anchor="start" x="941.5" y="-202.73" font-family="Helvetica,sans-Serif" font-size="10.00" fill="grey">  Tag &gt; &gt;</text>
</g>
<!-- Node22 -->
<g id="Node000022" class="node">
<title>Node22</title>
<g id="a_Node000022"><a xlink:href="classllvm_1_1iplist.html" target="_top" xlink:title=" ">
<polygon fill="white" stroke="#666666" points="1241.38,-160.11 1121.12,-160.11 1121.12,-140.86 1241.38,-140.86 1241.38,-160.11"/>
<text xml:space="preserve" text-anchor="middle" x="1181.25" y="-146.61" font-family="Helvetica,sans-Serif" font-size="10.00">llvm::iplist&lt; ASTNode &gt;</text>
</a>
</g>
</g>
<!-- Node20&#45;&gt;Node22 -->
<g id="edge22_Node000020_Node000022" class="edge">
<title>Node20&#45;&gt;Node22</title>
<g id="a_edge22_Node000020_Node000022"><a xlink:title=" ">
<path fill="none" stroke="orange" stroke-dasharray="5,2" d="M903.62,-182.32C914.89,-179.28 927.08,-176.33 938.5,-174.23 1000.1,-162.93 1071.58,-156.75 1120.75,-153.55"/>
<polygon fill="orange" stroke="orange" points="902.86,-178.9 894.17,-184.95 904.74,-185.64 902.86,-178.9"/>
</a>
</g>
<text xml:space="preserve" text-anchor="start" x="984.62" y="-180.23" font-family="Helvetica,sans-Serif" font-size="10.00" fill="grey">&lt; ASTNode &gt;</text>
</g>
<!-- Node23 -->
<g id="Node000023" class="node">
<title>Node23</title>
<g id="a_Node000023"><a xlink:href="classllvm_1_1iplist.html" target="_top" xlink:title=" ">
<polygon fill="white" stroke="#666666" points="1253.75,-121.11 1108.75,-121.11 1108.75,-101.86 1253.75,-101.86 1253.75,-121.11"/>
<text xml:space="preserve" text-anchor="middle" x="1181.25" y="-107.61" font-family="Helvetica,sans-Serif" font-size="10.00">llvm::iplist&lt; VPRecipeBase &gt;</text>
</a>
</g>
</g>
<!-- Node20&#45;&gt;Node23 -->
<g id="edge23_Node000020_Node000023" class="edge">
<title>Node20&#45;&gt;Node23</title>
<g id="a_edge23_Node000020_Node000023"><a xlink:title=" ">
<path fill="none" stroke="orange" stroke-dasharray="5,2" d="M876.88,-177.74C891.58,-163.31 914.38,-143.84 938.5,-134.23 992.74,-112.63 1059.05,-107.74 1108.5,-107.81"/>
<polygon fill="orange" stroke="orange" points="874.79,-174.87 870.28,-184.45 879.79,-179.78 874.79,-174.87"/>
</a>
</g>
<text xml:space="preserve" text-anchor="start" x="972.25" y="-140.23" font-family="Helvetica,sans-Serif" font-size="10.00" fill="grey">&lt; VPRecipeBase &gt;</text>
</g>
</g>
</svg>
