<?xml version="1.0" encoding="UTF-8" standalone="no"?>
<!DOCTYPE svg PUBLIC "-//W3C//DTD SVG 1.1//EN"
 "http://www.w3.org/Graphics/SVG/1.1/DTD/svg11.dtd">
<!-- Generated by graphviz version 14.1.3 (20260303.0454)
 -->
<!-- Title: llvm::simplify_type&lt; From &gt; Pages: 1 -->
<svg width="635pt" height="1523pt"
 viewBox="0.00 0.00 635.00 1523.00" xmlns="http://www.w3.org/2000/svg" xmlns:xlink="http://www.w3.org/1999/xlink">
<g id="graph0" class="graph" transform="scale(1 1) rotate(0) translate(4 1518.97)">
<title>llvm::simplify_type&lt; From &gt;</title>
<!-- Node1 -->
<g id="Node000001" class="node">
<title>Node1</title>
<g id="a_Node000001"><a xlink:title="Define a template that can be specialized by smart pointers to reflect the fact that they are automat...">
<polygon fill="#999999" stroke="#666666" points="97.75,-791.03 0,-791.03 0,-760.53 97.75,-760.53 97.75,-791.03"/>
<text xml:space="preserve" text-anchor="start" x="8" y="-777.53" font-family="Helvetica,sans-Serif" font-size="10.00">llvm::simplify_type</text>
<text xml:space="preserve" text-anchor="middle" x="48.88" y="-766.28" font-family="Helvetica,sans-Serif" font-size="10.00">&lt; From &gt;</text>
</a>
</g>
</g>
<!-- Node2 -->
<g id="Node000002" class="node">
<title>Node2</title>
<g id="a_Node000002"><a xlink:href="structllvm_1_1simplify__type_3_01AssumptionCache_1_1ResultElem_01_4.html" target="_top" xlink:title=" ">
<polygon fill="white" stroke="#666666" points="441.5,-1481.03 271,-1481.03 271,-1450.53 441.5,-1450.53 441.5,-1481.03"/>
<text xml:space="preserve" text-anchor="start" x="279" y="-1467.53" font-family="Helvetica,sans-Serif" font-size="10.00">llvm::simplify_type</text>
<text xml:space="preserve" text-anchor="middle" x="356.25" y="-1456.28" font-family="Helvetica,sans-Serif" font-size="10.00">&lt; AssumptionCache::ResultElem &gt;</text>
</a>
</g>
</g>
<!-- Node1&#45;&gt;Node2 -->
<g id="edge1_Node000001_Node000002" class="edge">
<title>Node1&#45;&gt;Node2</title>
<g id="a_edge1_Node000001_Node000002"><a xlink:title=" ">
<path fill="none" stroke="orange" stroke-dasharray="5,2" d="M50.57,-802.47C53.88,-920.85 69.97,-1394.76 115.75,-1440.78 155.18,-1480.43 218.79,-1485.47 270.54,-1481.25"/>
<polygon fill="orange" stroke="orange" points="54.07,-802.69 50.3,-792.79 47.08,-802.88 54.07,-802.69"/>
</a>
</g>
<text xml:space="preserve" text-anchor="start" x="137.12" y="-1503.72" font-family="Helvetica,sans-Serif" font-size="10.00" fill="grey">&lt; AssumptionCache::</text>
<text xml:space="preserve" text-anchor="start" x="137.12" y="-1488.47" font-family="Helvetica,sans-Serif" font-size="10.00" fill="grey">  ResultElem &gt;</text>
</g>
<!-- Node3 -->
<g id="Node000003" class="node">
<title>Node3</title>
<g id="a_Node000003"><a xlink:href="structllvm_1_1simplify__type_3_01IndexCall_01_4.html" target="_top" xlink:title=" ">
<polygon fill="white" stroke="#666666" points="405.12,-1432.03 307.38,-1432.03 307.38,-1401.53 405.12,-1401.53 405.12,-1432.03"/>
<text xml:space="preserve" text-anchor="start" x="315.38" y="-1418.53" font-family="Helvetica,sans-Serif" font-size="10.00">llvm::simplify_type</text>
<text xml:space="preserve" text-anchor="middle" x="356.25" y="-1407.28" font-family="Helvetica,sans-Serif" font-size="10.00">&lt; IndexCall &gt;</text>
</a>
</g>
</g>
<!-- Node1&#45;&gt;Node3 -->
<g id="edge2_Node000001_Node000003" class="edge">
<title>Node1&#45;&gt;Node3</title>
<g id="a_edge2_Node000001_Node000003"><a xlink:title=" ">
<path fill="none" stroke="orange" stroke-dasharray="5,2" d="M50.77,-802.78C54.8,-916.49 72.95,-1352.6 115.75,-1394.78 141.88,-1420.54 245.01,-1421.3 307.1,-1419.25"/>
<polygon fill="orange" stroke="orange" points="54.27,-802.77 50.43,-792.9 47.28,-803.01 54.27,-802.77"/>
</a>
</g>
<text xml:space="preserve" text-anchor="start" x="154.75" y="-1425.85" font-family="Helvetica,sans-Serif" font-size="10.00" fill="grey">&lt; IndexCall &gt;</text>
</g>
<!-- Node4 -->
<g id="Node000004" class="node">
<title>Node4</title>
<g id="a_Node000004"><a xlink:href="structllvm_1_1simplify__type_3_01IntrusiveRefCntPtr_3_01T_01_4_01_4.html" target="_top" xlink:title=" ">
<polygon fill="white" stroke="#666666" points="409.62,-1383.66 302.88,-1383.66 302.88,-1341.91 409.62,-1341.91 409.62,-1383.66"/>
<text xml:space="preserve" text-anchor="start" x="310.88" y="-1370.16" font-family="Helvetica,sans-Serif" font-size="10.00">llvm::simplify_type</text>
<text xml:space="preserve" text-anchor="start" x="310.88" y="-1358.91" font-family="Helvetica,sans-Serif" font-size="10.00">&lt; IntrusiveRefCntPtr</text>
<text xml:space="preserve" text-anchor="middle" x="356.25" y="-1347.66" font-family="Helvetica,sans-Serif" font-size="10.00">&lt; T &gt; &gt;</text>
</a>
</g>
</g>
<!-- Node1&#45;&gt;Node4 -->
<g id="edge3_Node000001_Node000004" class="edge">
<title>Node1&#45;&gt;Node4</title>
<g id="a_edge3_Node000001_Node000004"><a xlink:title=" ">
<path fill="none" stroke="orange" stroke-dasharray="5,2" d="M51.16,-802.62C56.46,-908.41 78.2,-1292.68 115.75,-1330.78 141,-1356.41 239.9,-1362.06 302.45,-1363"/>
<polygon fill="orange" stroke="orange" points="54.67,-802.73 50.68,-792.91 47.68,-803.07 54.67,-802.73"/>
</a>
</g>
<text xml:space="preserve" text-anchor="start" x="139" y="-1382.38" font-family="Helvetica,sans-Serif" font-size="10.00" fill="grey">&lt; IntrusiveRefCntPtr</text>
<text xml:space="preserve" text-anchor="start" x="139" y="-1367.13" font-family="Helvetica,sans-Serif" font-size="10.00" fill="grey">  &lt; T &gt; &gt;</text>
</g>
<!-- Node5 -->
<g id="Node000005" class="node">
<title>Node5</title>
<g id="a_Node000005"><a xlink:href="structllvm_1_1simplify__type_3_01MDOperand_01_4.html" target="_top" xlink:title=" ">
<polygon fill="white" stroke="#666666" points="405.12,-1324.03 307.38,-1324.03 307.38,-1293.53 405.12,-1293.53 405.12,-1324.03"/>
<text xml:space="preserve" text-anchor="start" x="315.38" y="-1310.53" font-family="Helvetica,sans-Serif" font-size="10.00">llvm::simplify_type</text>
<text xml:space="preserve" text-anchor="middle" x="356.25" y="-1299.28" font-family="Helvetica,sans-Serif" font-size="10.00">&lt; MDOperand &gt;</text>
</a>
</g>
</g>
<!-- Node1&#45;&gt;Node5 -->
<g id="edge4_Node000001_Node000005" class="edge">
<title>Node1&#45;&gt;Node5</title>
<g id="a_edge4_Node000001_Node000005"><a xlink:title=" ">
<path fill="none" stroke="orange" stroke-dasharray="5,2" d="M51.47,-802.79C57.62,-902.76 81.22,-1247.84 115.75,-1281.78 141.97,-1307.56 245.07,-1310.67 307.13,-1310.09"/>
<polygon fill="orange" stroke="orange" points="54.96,-802.63 50.87,-792.86 47.98,-803.05 54.96,-802.63"/>
</a>
</g>
<text xml:space="preserve" text-anchor="start" x="149.12" y="-1315.36" font-family="Helvetica,sans-Serif" font-size="10.00" fill="grey">&lt; MDOperand &gt;</text>
</g>
<!-- Node6 -->
<g id="Node000006" class="node">
<title>Node6</title>
<g id="a_Node000006"><a xlink:href="structllvm_1_1simplify__type_3_01SDUse_01_4.html" target="_top" xlink:title="simplify_type specializations &#45; Allow casting operators to work directly on SDValues as if they were ...">
<polygon fill="white" stroke="#666666" points="405.12,-1275.03 307.38,-1275.03 307.38,-1244.53 405.12,-1244.53 405.12,-1275.03"/>
<text xml:space="preserve" text-anchor="start" x="315.38" y="-1261.53" font-family="Helvetica,sans-Serif" font-size="10.00">llvm::simplify_type</text>
<text xml:space="preserve" text-anchor="middle" x="356.25" y="-1250.28" font-family="Helvetica,sans-Serif" font-size="10.00">&lt; SDUse &gt;</text>
</a>
</g>
</g>
<!-- Node1&#45;&gt;Node6 -->
<g id="edge5_Node000001_Node000006" class="edge">
<title>Node1&#45;&gt;Node6</title>
<g id="a_edge5_Node000001_Node000006"><a xlink:title=" ">
<path fill="none" stroke="orange" stroke-dasharray="5,2" d="M49.62,-802.46C49.38,-891.13 53.59,-1173.75 115.75,-1233.78 142.15,-1259.28 244.91,-1262.04 306.93,-1261.25"/>
<polygon fill="orange" stroke="orange" points="53.12,-802.59 49.68,-792.57 46.12,-802.55 53.12,-802.59"/>
</a>
</g>
<text xml:space="preserve" text-anchor="start" x="159.25" y="-1266.73" font-family="Helvetica,sans-Serif" font-size="10.00" fill="grey">&lt; SDUse &gt;</text>
</g>
<!-- Node7 -->
<g id="Node000007" class="node">
<title>Node7</title>
<g id="a_Node000007"><a xlink:href="structllvm_1_1simplify__type_3_01SDValue_01_4.html" target="_top" xlink:title="Allow casting operators to work directly on SDValues as if they were SDNode*&#39;s.">
<polygon fill="white" stroke="#666666" points="405.12,-1226.03 307.38,-1226.03 307.38,-1195.53 405.12,-1195.53 405.12,-1226.03"/>
<text xml:space="preserve" text-anchor="start" x="315.38" y="-1212.53" font-family="Helvetica,sans-Serif" font-size="10.00">llvm::simplify_type</text>
<text xml:space="preserve" text-anchor="middle" x="356.25" y="-1201.28" font-family="Helvetica,sans-Serif" font-size="10.00">&lt; SDValue &gt;</text>
</a>
</g>
</g>
<!-- Node1&#45;&gt;Node7 -->
<g id="edge6_Node000001_Node000007" class="edge">
<title>Node1&#45;&gt;Node7</title>
<g id="a_edge6_Node000001_Node000007"><a xlink:title=" ">
<path fill="none" stroke="orange" stroke-dasharray="5,2" d="M50.11,-802.61C51.44,-885.19 60.09,-1133.12 115.75,-1185.78 142.4,-1211 245.07,-1213.39 307,-1212.4"/>
<polygon fill="orange" stroke="orange" points="53.62,-802.72 49.98,-792.77 46.62,-802.81 53.62,-802.72"/>
</a>
</g>
<text xml:space="preserve" text-anchor="start" x="156.25" y="-1218.08" font-family="Helvetica,sans-Serif" font-size="10.00" fill="grey">&lt; SDValue &gt;</text>
</g>
<!-- Node8 -->
<g id="Node000008" class="node">
<title>Node8</title>
<g id="a_Node000008"><a xlink:href="structllvm_1_1simplify__type_3_01TrackingMDRef_01_4.html" target="_top" xlink:title=" ">
<polygon fill="white" stroke="#666666" points="407.75,-1177.03 304.75,-1177.03 304.75,-1146.53 407.75,-1146.53 407.75,-1177.03"/>
<text xml:space="preserve" text-anchor="start" x="312.75" y="-1163.53" font-family="Helvetica,sans-Serif" font-size="10.00">llvm::simplify_type</text>
<text xml:space="preserve" text-anchor="middle" x="356.25" y="-1152.28" font-family="Helvetica,sans-Serif" font-size="10.00">&lt; TrackingMDRef &gt;</text>
</a>
</g>
</g>
<!-- Node1&#45;&gt;Node8 -->
<g id="edge7_Node000001_Node000008" class="edge">
<title>Node1&#45;&gt;Node8</title>
<g id="a_edge7_Node000001_Node000008"><a xlink:title=" ">
<path fill="none" stroke="orange" stroke-dasharray="5,2" d="M50.68,-802.6C53.58,-878.85 66.07,-1094.27 115.75,-1139.78 142.38,-1164.18 242.39,-1165.65 304.45,-1164.04"/>
<polygon fill="orange" stroke="orange" points="54.19,-802.6 50.34,-792.73 47.19,-802.85 54.19,-802.6"/>
</a>
</g>
<text xml:space="preserve" text-anchor="start" x="140.88" y="-1170.32" font-family="Helvetica,sans-Serif" font-size="10.00" fill="grey">&lt; TrackingMDRef &gt;</text>
</g>
<!-- Node9 -->
<g id="Node000009" class="node">
<title>Node9</title>
<g id="a_Node000009"><a xlink:href="structllvm_1_1simplify__type_3_01TypedTrackingMDRef_3_01T_01_4_01_4.html" target="_top" xlink:title=" ">
<polygon fill="white" stroke="#666666" points="416.38,-1128.66 296.12,-1128.66 296.12,-1086.91 416.38,-1086.91 416.38,-1128.66"/>
<text xml:space="preserve" text-anchor="start" x="304.12" y="-1115.16" font-family="Helvetica,sans-Serif" font-size="10.00">llvm::simplify_type</text>
<text xml:space="preserve" text-anchor="start" x="304.12" y="-1103.91" font-family="Helvetica,sans-Serif" font-size="10.00">&lt; TypedTrackingMDRef</text>
<text xml:space="preserve" text-anchor="middle" x="356.25" y="-1092.66" font-family="Helvetica,sans-Serif" font-size="10.00">&lt; T &gt; &gt;</text>
</a>
</g>
</g>
<!-- Node1&#45;&gt;Node9 -->
<g id="edge8_Node000001_Node000009" class="edge">
<title>Node1&#45;&gt;Node9</title>
<g id="a_edge8_Node000001_Node000009"><a xlink:title=" ">
<path fill="none" stroke="orange" stroke-dasharray="5,2" d="M51.69,-802.91C56.83,-871 73.94,-1046.37 115.75,-1083.78 128.91,-1095.56 229.07,-1102.25 295.63,-1105.43"/>
<polygon fill="orange" stroke="orange" points="55.18,-802.73 50.97,-793.01 48.2,-803.24 55.18,-802.73"/>
</a>
</g>
<text xml:space="preserve" text-anchor="start" x="132.25" y="-1124.16" font-family="Helvetica,sans-Serif" font-size="10.00" fill="grey">&lt; TypedTrackingMDRef</text>
<text xml:space="preserve" text-anchor="start" x="132.25" y="-1108.91" font-family="Helvetica,sans-Serif" font-size="10.00" fill="grey">  &lt; T &gt; &gt;</text>
</g>
<!-- Node10 -->
<g id="Node000010" class="node">
<title>Node10</title>
<g id="a_Node000010"><a xlink:href="structllvm_1_1simplify__type_3_01Use_01_4.html" target="_top" xlink:title="Allow clients to treat uses just like values when using casting operators.">
<polygon fill="white" stroke="#666666" points="405.12,-1069.03 307.38,-1069.03 307.38,-1038.53 405.12,-1038.53 405.12,-1069.03"/>
<text xml:space="preserve" text-anchor="start" x="315.38" y="-1055.53" font-family="Helvetica,sans-Serif" font-size="10.00">llvm::simplify_type</text>
<text xml:space="preserve" text-anchor="middle" x="356.25" y="-1044.28" font-family="Helvetica,sans-Serif" font-size="10.00">&lt; Use &gt;</text>
</a>
</g>
</g>
<!-- Node1&#45;&gt;Node10 -->
<g id="edge9_Node000001_Node000010" class="edge">
<title>Node1&#45;&gt;Node10</title>
<g id="a_edge9_Node000001_Node000010"><a xlink:title=" ">
<path fill="none" stroke="orange" stroke-dasharray="5,2" d="M53.19,-802.69C60.93,-860.88 82.14,-995.52 115.75,-1024.78 168.35,-1070.58 253.84,-1069.07 307.18,-1062.42"/>
<polygon fill="orange" stroke="orange" points="56.69,-802.47 51.94,-793 49.75,-803.37 56.69,-802.47"/>
</a>
</g>
<text xml:space="preserve" text-anchor="start" x="166.38" y="-1071.83" font-family="Helvetica,sans-Serif" font-size="10.00" fill="grey">&lt; Use &gt;</text>
</g>
<!-- Node11 -->
<g id="Node000011" class="node">
<title>Node11</title>
<g id="a_Node000011"><a xlink:href="structllvm_1_1simplify__type_3_01User_1_1const__op__iterator_01_4.html" target="_top" xlink:title=" ">
<polygon fill="white" stroke="#666666" points="424.25,-1020.03 288.25,-1020.03 288.25,-989.53 424.25,-989.53 424.25,-1020.03"/>
<text xml:space="preserve" text-anchor="start" x="296.25" y="-1006.53" font-family="Helvetica,sans-Serif" font-size="10.00">llvm::simplify_type</text>
<text xml:space="preserve" text-anchor="middle" x="356.25" y="-995.28" font-family="Helvetica,sans-Serif" font-size="10.00">&lt; User::const_op_iterator &gt;</text>
</a>
</g>
</g>
<!-- Node1&#45;&gt;Node11 -->
<g id="edge10_Node000001_Node000011" class="edge">
<title>Node1&#45;&gt;Node11</title>
<g id="a_edge10_Node000001_Node000011"><a xlink:title=" ">
<path fill="none" stroke="orange" stroke-dasharray="5,2" d="M50.02,-802.78C51.84,-847 62.44,-934.33 115.75,-977.78 141.33,-998.64 226.33,-1004.04 287.8,-1005.12"/>
<polygon fill="orange" stroke="orange" points="53.52,-802.93 49.75,-793.03 46.52,-803.12 53.52,-802.93"/>
</a>
</g>
<text xml:space="preserve" text-anchor="start" x="124.38" y="-1009.97" font-family="Helvetica,sans-Serif" font-size="10.00" fill="grey">&lt; User::const_op_iterator &gt;</text>
</g>
<!-- Node12 -->
<g id="Node000012" class="node">
<title>Node12</title>
<g id="a_Node000012"><a xlink:href="structllvm_1_1simplify__type_3_01User_1_1op__iterator_01_4.html" target="_top" xlink:title=" ">
<polygon fill="white" stroke="#666666" points="409.62,-971.03 302.88,-971.03 302.88,-940.53 409.62,-940.53 409.62,-971.03"/>
<text xml:space="preserve" text-anchor="start" x="310.88" y="-957.53" font-family="Helvetica,sans-Serif" font-size="10.00">llvm::simplify_type</text>
<text xml:space="preserve" text-anchor="middle" x="356.25" y="-946.28" font-family="Helvetica,sans-Serif" font-size="10.00">&lt; User::op_iterator &gt;</text>
</a>
</g>
</g>
<!-- Node1&#45;&gt;Node12 -->
<g id="edge11_Node000001_Node000012" class="edge">
<title>Node1&#45;&gt;Node12</title>
<g id="a_edge11_Node000001_Node000012"><a xlink:title=" ">
<path fill="none" stroke="orange" stroke-dasharray="5,2" d="M52.63,-802.19C57.94,-838.39 73.15,-902.48 115.75,-933.78 144.44,-954.86 241.15,-957.62 302.55,-957.12"/>
<polygon fill="orange" stroke="orange" points="56.14,-802.04 51.38,-792.58 49.2,-802.94 56.14,-802.04"/>
</a>
</g>
<text xml:space="preserve" text-anchor="start" x="139" y="-962.65" font-family="Helvetica,sans-Serif" font-size="10.00" fill="grey">&lt; User::op_iterator &gt;</text>
</g>
<!-- Node13 -->
<g id="Node000013" class="node">
<title>Node13</title>
<g id="a_Node000013"><a xlink:href="structllvm_1_1simplify__type_3_01WeakTrackingVH_01_4.html" target="_top" xlink:title=" ">
<polygon fill="white" stroke="#666666" points="411.5,-922.03 301,-922.03 301,-891.53 411.5,-891.53 411.5,-922.03"/>
<text xml:space="preserve" text-anchor="start" x="309" y="-908.53" font-family="Helvetica,sans-Serif" font-size="10.00">llvm::simplify_type</text>
<text xml:space="preserve" text-anchor="middle" x="356.25" y="-897.28" font-family="Helvetica,sans-Serif" font-size="10.00">&lt; WeakTrackingVH &gt;</text>
</a>
</g>
</g>
<!-- Node1&#45;&gt;Node13 -->
<g id="edge12_Node000001_Node000013" class="edge">
<title>Node1&#45;&gt;Node13</title>
<g id="a_edge12_Node000001_Node000013"><a xlink:title=" ">
<path fill="none" stroke="orange" stroke-dasharray="5,2" d="M58.86,-801.97C68.75,-826.46 87.13,-861.87 115.75,-879.78 171.61,-914.75 249.39,-916.91 300.98,-913.4"/>
<polygon fill="orange" stroke="orange" points="62.16,-800.79 55.34,-792.69 55.62,-803.28 62.16,-800.79"/>
</a>
</g>
<text xml:space="preserve" text-anchor="start" x="137.12" y="-920.39" font-family="Helvetica,sans-Serif" font-size="10.00" fill="grey">&lt; WeakTrackingVH &gt;</text>
</g>
<!-- Node14 -->
<g id="Node000014" class="node">
<title>Node14</title>
<g id="a_Node000014"><a xlink:href="structllvm_1_1simplify__type_3_01WeakVH_01_4.html" target="_top" xlink:title=" ">
<polygon fill="white" stroke="#666666" points="405.12,-873.03 307.38,-873.03 307.38,-842.53 405.12,-842.53 405.12,-873.03"/>
<text xml:space="preserve" text-anchor="start" x="315.38" y="-859.53" font-family="Helvetica,sans-Serif" font-size="10.00">llvm::simplify_type</text>
<text xml:space="preserve" text-anchor="middle" x="356.25" y="-848.28" font-family="Helvetica,sans-Serif" font-size="10.00">&lt; WeakVH &gt;</text>
</a>
</g>
</g>
<!-- Node1&#45;&gt;Node14 -->
<g id="edge13_Node000001_Node000014" class="edge">
<title>Node1&#45;&gt;Node14</title>
<g id="a_edge13_Node000001_Node000014"><a xlink:title=" ">
<path fill="none" stroke="orange" stroke-dasharray="5,2" d="M71.53,-799.48C83.42,-810.92 99.1,-823.67 115.75,-830.78 178.08,-857.43 257.43,-861.16 307.3,-860.31"/>
<polygon fill="orange" stroke="orange" points="74.19,-797.19 64.66,-792.56 69.22,-802.12 74.19,-797.19"/>
</a>
</g>
<text xml:space="preserve" text-anchor="start" x="155.88" y="-864.92" font-family="Helvetica,sans-Serif" font-size="10.00" fill="grey">&lt; WeakVH &gt;</text>
</g>
<!-- Node15 -->
<g id="Node000015" class="node">
<title>Node15</title>
<g id="a_Node000015"><a xlink:href="structllvm_1_1simplify__type_3_01const_01AssumptionCache_1_1ResultElem_01_4.html" target="_top" xlink:title=" ">
<polygon fill="white" stroke="#666666" points="422,-824.66 290.5,-824.66 290.5,-782.91 422,-782.91 422,-824.66"/>
<text xml:space="preserve" text-anchor="start" x="298.5" y="-811.16" font-family="Helvetica,sans-Serif" font-size="10.00">llvm::simplify_type</text>
<text xml:space="preserve" text-anchor="start" x="298.5" y="-799.91" font-family="Helvetica,sans-Serif" font-size="10.00">&lt; const AssumptionCache</text>
<text xml:space="preserve" text-anchor="middle" x="356.25" y="-788.66" font-family="Helvetica,sans-Serif" font-size="10.00">::ResultElem &gt;</text>
</a>
</g>
</g>
<!-- Node1&#45;&gt;Node15 -->
<g id="edge14_Node000001_Node000015" class="edge">
<title>Node1&#45;&gt;Node15</title>
<g id="a_edge14_Node000001_Node000015"><a xlink:title=" ">
<path fill="none" stroke="orange" stroke-dasharray="5,2" d="M109.3,-781.23C161.26,-786 236.59,-792.9 290.17,-797.82"/>
<polygon fill="orange" stroke="orange" points="109.71,-777.76 99.43,-780.33 109.07,-784.73 109.71,-777.76"/>
</a>
</g>
<text xml:space="preserve" text-anchor="start" x="126.62" y="-815.18" font-family="Helvetica,sans-Serif" font-size="10.00" fill="grey">&lt; const AssumptionCache</text>
<text xml:space="preserve" text-anchor="start" x="126.62" y="-799.93" font-family="Helvetica,sans-Serif" font-size="10.00" fill="grey">  ::ResultElem &gt;</text>
</g>
<!-- Node16 -->
<g id="Node000016" class="node">
<title>Node16</title>
<g id="a_Node000016"><a xlink:href="structllvm_1_1simplify__type_3_01const_01From_01_4.html" target="_top" xlink:title=" ">
<polygon fill="white" stroke="#666666" points="405.12,-765.03 307.38,-765.03 307.38,-734.53 405.12,-734.53 405.12,-765.03"/>
<text xml:space="preserve" text-anchor="start" x="315.38" y="-751.53" font-family="Helvetica,sans-Serif" font-size="10.00">llvm::simplify_type</text>
<text xml:space="preserve" text-anchor="middle" x="356.25" y="-740.28" font-family="Helvetica,sans-Serif" font-size="10.00">&lt; const From &gt;</text>
</a>
</g>
</g>
<!-- Node1&#45;&gt;Node16 -->
<g id="edge15_Node000001_Node000016" class="edge">
<title>Node1&#45;&gt;Node16</title>
<g id="a_edge15_Node000001_Node000016"><a xlink:title=" ">
<path fill="none" stroke="orange" stroke-dasharray="5,2" d="M109.15,-763.44C111.37,-763.11 113.58,-762.81 115.75,-762.53 181.64,-754.2 258.39,-751.3 306.9,-750.3"/>
<polygon fill="orange" stroke="orange" points="108.75,-759.96 99.45,-765.03 109.88,-766.87 108.75,-759.96"/>
</a>
</g>
<text xml:space="preserve" text-anchor="start" x="150.62" y="-768.53" font-family="Helvetica,sans-Serif" font-size="10.00" fill="grey">&lt; const From &gt;</text>
</g>
<!-- Node17 -->
<g id="Node000017" class="node">
<title>Node17</title>
<g id="a_Node000017"><a xlink:href="structllvm_1_1simplify__type_3_01const_01IndexCall_01_4.html" target="_top" xlink:title=" ">
<polygon fill="white" stroke="#666666" points="407.38,-716.03 305.12,-716.03 305.12,-685.53 407.38,-685.53 407.38,-716.03"/>
<text xml:space="preserve" text-anchor="start" x="313.12" y="-702.53" font-family="Helvetica,sans-Serif" font-size="10.00">llvm::simplify_type</text>
<text xml:space="preserve" text-anchor="middle" x="356.25" y="-691.28" font-family="Helvetica,sans-Serif" font-size="10.00">&lt; const IndexCall &gt;</text>
</a>
</g>
</g>
<!-- Node1&#45;&gt;Node17 -->
<g id="edge16_Node000001_Node000017" class="edge">
<title>Node1&#45;&gt;Node17</title>
<g id="a_edge16_Node000001_Node000017"><a xlink:title=" ">
<path fill="none" stroke="orange" stroke-dasharray="5,2" d="M76.48,-753.19C87.88,-744.71 101.76,-735.84 115.75,-730.53 178.04,-706.9 255.34,-701.14 304.98,-700.18"/>
<polygon fill="orange" stroke="orange" points="74.49,-750.3 68.74,-759.21 78.79,-755.83 74.49,-750.3"/>
</a>
</g>
<text xml:space="preserve" text-anchor="start" x="141.25" y="-736.53" font-family="Helvetica,sans-Serif" font-size="10.00" fill="grey">&lt; const IndexCall &gt;</text>
</g>
<!-- Node18 -->
<g id="Node000018" class="node">
<title>Node18</title>
<g id="a_Node000018"><a xlink:href="structllvm_1_1simplify__type_3_01const_01IntrusiveRefCntPtr_3_01T_01_4_01_4.html" target="_top" xlink:title=" ">
<polygon fill="white" stroke="#666666" points="423.12,-667.66 289.38,-667.66 289.38,-625.91 423.12,-625.91 423.12,-667.66"/>
<text xml:space="preserve" text-anchor="start" x="297.38" y="-654.16" font-family="Helvetica,sans-Serif" font-size="10.00">llvm::simplify_type</text>
<text xml:space="preserve" text-anchor="start" x="297.38" y="-642.91" font-family="Helvetica,sans-Serif" font-size="10.00">&lt; const IntrusiveRefCntPtr</text>
<text xml:space="preserve" text-anchor="middle" x="356.25" y="-631.66" font-family="Helvetica,sans-Serif" font-size="10.00">&lt; T &gt; &gt;</text>
</a>
</g>
</g>
<!-- Node1&#45;&gt;Node18 -->
<g id="edge17_Node000001_Node000018" class="edge">
<title>Node1&#45;&gt;Node18</title>
<g id="a_edge17_Node000001_Node000018"><a xlink:title=" ">
<path fill="none" stroke="orange" stroke-dasharray="5,2" d="M57.79,-749.59C67.13,-723.64 85.37,-685.13 115.75,-666.28 167.42,-634.23 237.89,-632.36 289,-636.69"/>
<polygon fill="orange" stroke="orange" points="54.58,-748.15 54.7,-758.75 61.21,-750.39 54.58,-748.15"/>
</a>
</g>
<text xml:space="preserve" text-anchor="start" x="125.5" y="-687.53" font-family="Helvetica,sans-Serif" font-size="10.00" fill="grey">&lt; const IntrusiveRefCntPtr</text>
<text xml:space="preserve" text-anchor="start" x="125.5" y="-672.28" font-family="Helvetica,sans-Serif" font-size="10.00" fill="grey">  &lt; T &gt; &gt;</text>
</g>
<!-- Node19 -->
<g id="Node000019" class="node">
<title>Node19</title>
<g id="a_Node000019"><a xlink:href="structllvm_1_1simplify__type_3_01const_01MDOperand_01_4.html" target="_top" xlink:title=" ">
<polygon fill="white" stroke="#666666" points="413,-608.03 299.5,-608.03 299.5,-577.53 413,-577.53 413,-608.03"/>
<text xml:space="preserve" text-anchor="start" x="307.5" y="-594.53" font-family="Helvetica,sans-Serif" font-size="10.00">llvm::simplify_type</text>
<text xml:space="preserve" text-anchor="middle" x="356.25" y="-583.28" font-family="Helvetica,sans-Serif" font-size="10.00">&lt; const MDOperand &gt;</text>
</a>
</g>
</g>
<!-- Node1&#45;&gt;Node19 -->
<g id="edge18_Node000001_Node000019" class="edge">
<title>Node1&#45;&gt;Node19</title>
<g id="a_edge18_Node000001_Node000019"><a xlink:title=" ">
<path fill="none" stroke="orange" stroke-dasharray="5,2" d="M52.38,-748.66C57.39,-711.48 72.24,-645.65 115.75,-613.53 168.47,-574.63 246.61,-575.64 299.15,-582.24"/>
<polygon fill="orange" stroke="orange" points="48.9,-748.23 51.21,-758.57 55.86,-749.05 48.9,-748.23"/>
</a>
</g>
<text xml:space="preserve" text-anchor="start" x="135.62" y="-619.53" font-family="Helvetica,sans-Serif" font-size="10.00" fill="grey">&lt; const MDOperand &gt;</text>
</g>
<!-- Node20 -->
<g id="Node000020" class="node">
<title>Node20</title>
<g id="a_Node000020"><a xlink:href="structllvm_1_1simplify__type_3_01const_01SDValue_01_4.html" target="_top" xlink:title=" ">
<polygon fill="white" stroke="#666666" points="405.88,-559.03 306.62,-559.03 306.62,-528.53 405.88,-528.53 405.88,-559.03"/>
<text xml:space="preserve" text-anchor="start" x="314.62" y="-545.53" font-family="Helvetica,sans-Serif" font-size="10.00">llvm::simplify_type</text>
<text xml:space="preserve" text-anchor="middle" x="356.25" y="-534.28" font-family="Helvetica,sans-Serif" font-size="10.00">&lt; const SDValue &gt;</text>
</a>
</g>
</g>
<!-- Node1&#45;&gt;Node20 -->
<g id="edge19_Node000001_Node000020" class="edge">
<title>Node1&#45;&gt;Node20</title>
<g id="a_edge19_Node000001_Node000020"><a xlink:title=" ">
<path fill="none" stroke="orange" stroke-dasharray="5,2" d="M48.98,-748.7C49.05,-701.31 56.83,-603.98 115.75,-557.53 169.72,-515 253.61,-521.58 306.44,-531.64"/>
<polygon fill="orange" stroke="orange" points="45.48,-748.66 49.09,-758.62 52.48,-748.58 45.48,-748.66"/>
</a>
</g>
<text xml:space="preserve" text-anchor="start" x="142.75" y="-563.53" font-family="Helvetica,sans-Serif" font-size="10.00" fill="grey">&lt; const SDValue &gt;</text>
</g>
<!-- Node21 -->
<g id="Node000021" class="node">
<title>Node21</title>
<g id="a_Node000021"><a xlink:href="structllvm_1_1simplify__type_3_01const_01TrackingMDRef_01_4.html" target="_top" xlink:title=" ">
<polygon fill="white" stroke="#666666" points="421.25,-510.03 291.25,-510.03 291.25,-479.53 421.25,-479.53 421.25,-510.03"/>
<text xml:space="preserve" text-anchor="start" x="299.25" y="-496.53" font-family="Helvetica,sans-Serif" font-size="10.00">llvm::simplify_type</text>
<text xml:space="preserve" text-anchor="middle" x="356.25" y="-485.28" font-family="Helvetica,sans-Serif" font-size="10.00">&lt; const TrackingMDRef &gt;</text>
</a>
</g>
</g>
<!-- Node1&#45;&gt;Node21 -->
<g id="edge20_Node000001_Node000021" class="edge">
<title>Node1&#45;&gt;Node21</title>
<g id="a_edge20_Node000001_Node000021"><a xlink:title=" ">
<path fill="none" stroke="orange" stroke-dasharray="5,2" d="M52.28,-749.06C58.52,-686.55 77.43,-533.73 115.75,-502.53 141.64,-481.46 229.21,-483.76 290.94,-488.42"/>
<polygon fill="orange" stroke="orange" points="48.82,-748.5 51.35,-758.79 55.79,-749.17 48.82,-748.5"/>
</a>
</g>
<text xml:space="preserve" text-anchor="start" x="127.38" y="-508.53" font-family="Helvetica,sans-Serif" font-size="10.00" fill="grey">&lt; const TrackingMDRef &gt;</text>
</g>
<!-- Node22 -->
<g id="Node000022" class="node">
<title>Node22</title>
<g id="a_Node000022"><a xlink:href="structllvm_1_1simplify__type_3_01const_01TypedTrackingMDRef_3_01T_01_4_01_4.html" target="_top" xlink:title=" ">
<polygon fill="white" stroke="#666666" points="429.88,-461.66 282.62,-461.66 282.62,-419.91 429.88,-419.91 429.88,-461.66"/>
<text xml:space="preserve" text-anchor="start" x="290.62" y="-448.16" font-family="Helvetica,sans-Serif" font-size="10.00">llvm::simplify_type</text>
<text xml:space="preserve" text-anchor="start" x="290.62" y="-436.91" font-family="Helvetica,sans-Serif" font-size="10.00">&lt; const TypedTrackingMDRef</text>
<text xml:space="preserve" text-anchor="middle" x="356.25" y="-425.66" font-family="Helvetica,sans-Serif" font-size="10.00">&lt; T &gt; &gt;</text>
</a>
</g>
</g>
<!-- Node1&#45;&gt;Node22 -->
<g id="edge21_Node000001_Node000022" class="edge">
<title>Node1&#45;&gt;Node22</title>
<g id="a_edge21_Node000001_Node000022"><a xlink:title=" ">
<path fill="none" stroke="orange" stroke-dasharray="5,2" d="M51.12,-749.15C55.06,-678.16 69.8,-487.13 115.75,-448.28 160.94,-410.08 229.86,-412.02 282.18,-421.28"/>
<polygon fill="orange" stroke="orange" points="47.65,-748.54 50.63,-758.7 54.64,-748.9 47.65,-748.54"/>
</a>
</g>
<text xml:space="preserve" text-anchor="start" x="118.75" y="-469.53" font-family="Helvetica,sans-Serif" font-size="10.00" fill="grey">&lt; const TypedTrackingMDRef</text>
<text xml:space="preserve" text-anchor="start" x="118.75" y="-454.28" font-family="Helvetica,sans-Serif" font-size="10.00" fill="grey">  &lt; T &gt; &gt;</text>
</g>
<!-- Node23 -->
<g id="Node000023" class="node">
<title>Node23</title>
<g id="a_Node000023"><a xlink:href="structllvm_1_1simplify__type_3_01const_01Use_01_4.html" target="_top" xlink:title=" ">
<polygon fill="white" stroke="#666666" points="405.12,-402.03 307.38,-402.03 307.38,-371.53 405.12,-371.53 405.12,-402.03"/>
<text xml:space="preserve" text-anchor="start" x="315.38" y="-388.53" font-family="Helvetica,sans-Serif" font-size="10.00">llvm::simplify_type</text>
<text xml:space="preserve" text-anchor="middle" x="356.25" y="-377.28" font-family="Helvetica,sans-Serif" font-size="10.00">&lt; const Use &gt;</text>
</a>
</g>
</g>
<!-- Node1&#45;&gt;Node23 -->
<g id="edge22_Node000001_Node000023" class="edge">
<title>Node1&#45;&gt;Node23</title>
<g id="a_edge22_Node000001_Node000023"><a xlink:title=" ">
<path fill="none" stroke="orange" stroke-dasharray="5,2" d="M50.3,-749.12C52.18,-670.32 62.24,-441.09 115.75,-394.53 168.01,-349.07 253.6,-359.47 307.06,-372.29"/>
<polygon fill="orange" stroke="orange" points="46.81,-748.84 50.1,-758.91 53.81,-748.99 46.81,-748.84"/>
</a>
</g>
<text xml:space="preserve" text-anchor="start" x="152.88" y="-400.53" font-family="Helvetica,sans-Serif" font-size="10.00" fill="grey">&lt; const Use &gt;</text>
</g>
<!-- Node24 -->
<g id="Node000024" class="node">
<title>Node24</title>
<g id="a_Node000024"><a xlink:href="structllvm_1_1simplify__type_3_01const_01WeakTrackingVH_01_4.html" target="_top" xlink:title=" ">
<polygon fill="white" stroke="#666666" points="425,-353.03 287.5,-353.03 287.5,-322.53 425,-322.53 425,-353.03"/>
<text xml:space="preserve" text-anchor="start" x="295.5" y="-339.53" font-family="Helvetica,sans-Serif" font-size="10.00">llvm::simplify_type</text>
<text xml:space="preserve" text-anchor="middle" x="356.25" y="-328.28" font-family="Helvetica,sans-Serif" font-size="10.00">&lt; const WeakTrackingVH &gt;</text>
</a>
</g>
</g>
<!-- Node1&#45;&gt;Node24 -->
<g id="edge23_Node000001_Node000024" class="edge">
<title>Node1&#45;&gt;Node24</title>
<g id="a_edge23_Node000001_Node000024"><a xlink:title=" ">
<path fill="none" stroke="orange" stroke-dasharray="5,2" d="M49.63,-748.79C49.48,-662.24 54.06,-394.21 115.75,-340.53 140.45,-319.04 225.41,-322.95 287.14,-329.15"/>
<polygon fill="orange" stroke="orange" points="46.13,-748.7 49.68,-758.68 53.13,-748.67 46.13,-748.7"/>
</a>
</g>
<text xml:space="preserve" text-anchor="start" x="123.62" y="-346.53" font-family="Helvetica,sans-Serif" font-size="10.00" fill="grey">&lt; const WeakTrackingVH &gt;</text>
</g>
<!-- Node25 -->
<g id="Node000025" class="node">
<title>Node25</title>
<g id="a_Node000025"><a xlink:href="structllvm_1_1simplify__type_3_01const_01WeakVH_01_4.html" target="_top" xlink:title=" ">
<polygon fill="white" stroke="#666666" points="406.25,-304.03 306.25,-304.03 306.25,-273.53 406.25,-273.53 406.25,-304.03"/>
<text xml:space="preserve" text-anchor="start" x="314.25" y="-290.53" font-family="Helvetica,sans-Serif" font-size="10.00">llvm::simplify_type</text>
<text xml:space="preserve" text-anchor="middle" x="356.25" y="-279.28" font-family="Helvetica,sans-Serif" font-size="10.00">&lt; const WeakVH &gt;</text>
</a>
</g>
</g>
<!-- Node1&#45;&gt;Node25 -->
<g id="edge24_Node000001_Node000025" class="edge">
<title>Node1&#45;&gt;Node25</title>
<g id="a_edge24_Node000001_Node000025"><a xlink:title=" ">
<path fill="none" stroke="orange" stroke-dasharray="5,2" d="M49.37,-748.69C48.28,-657.36 50.01,-363.16 115.75,-302.53 166.58,-255.67 252.19,-263.8 306.1,-275.31"/>
<polygon fill="orange" stroke="orange" points="45.87,-748.72 49.51,-758.67 52.87,-748.62 45.87,-748.72"/>
</a>
</g>
<text xml:space="preserve" text-anchor="start" x="142.38" y="-308.53" font-family="Helvetica,sans-Serif" font-size="10.00" fill="grey">&lt; const WeakVH &gt;</text>
</g>
<!-- Node26 -->
<g id="Node000026" class="node">
<title>Node26</title>
<g id="a_Node000026"><a xlink:href="structllvm_1_1simplify__type_3_01const_01ilist__iterator_3_01OptionsT_00_01false_00_01IsConst_01_4_01_4.html" target="_top" xlink:title=" ">
<polygon fill="white" stroke="#666666" points="627.25,-228.66 478.5,-228.66 478.5,-186.91 627.25,-186.91 627.25,-228.66"/>
<text xml:space="preserve" text-anchor="start" x="486.5" y="-215.16" font-family="Helvetica,sans-Serif" font-size="10.00">llvm::simplify_type</text>
<text xml:space="preserve" text-anchor="start" x="486.5" y="-203.91" font-family="Helvetica,sans-Serif" font-size="10.00">&lt; const ilist_iterator</text>
<text xml:space="preserve" text-anchor="middle" x="552.88" y="-192.66" font-family="Helvetica,sans-Serif" font-size="10.00">&lt; OptionsT, false, IsConst &gt; &gt;</text>
</a>
</g>
</g>
<!-- Node1&#45;&gt;Node26 -->
<g id="edge25_Node000001_Node000026" class="edge">
<title>Node1&#45;&gt;Node26</title>
<g id="a_edge25_Node000001_Node000026"><a xlink:title=" ">
<path fill="none" stroke="orange" stroke-dasharray="5,2" d="M49.36,-748.66C48.13,-653.08 49.18,-333.92 115.75,-262.78 163.59,-211.66 366.93,-205.57 478.26,-206.22"/>
<polygon fill="orange" stroke="orange" points="45.86,-748.68 49.51,-758.62 52.86,-748.57 45.86,-748.68"/>
</a>
</g>
<text xml:space="preserve" text-anchor="start" x="286.88" y="-236.52" font-family="Helvetica,sans-Serif" font-size="10.00" fill="grey">&lt; const ilist_iterator</text>
<text xml:space="preserve" text-anchor="start" x="286.88" y="-221.27" font-family="Helvetica,sans-Serif" font-size="10.00" fill="grey">  &lt; OptionsT, false, IsConst &gt; &gt;</text>
</g>
<!-- Node27 -->
<g id="Node000027" class="node">
<title>Node27</title>
<g id="a_Node000027"><a xlink:href="structllvm_1_1simplify__type_3_01const_01ilist__iterator__w__bits_3_01OptionsT_00_01false_00_01IsConst_01_4_01_4.html" target="_top" xlink:title=" ">
<polygon fill="white" stroke="#666666" points="616.38,-85.28 489.38,-85.28 489.38,-32.28 616.38,-32.28 616.38,-85.28"/>
<text xml:space="preserve" text-anchor="start" x="497.38" y="-71.78" font-family="Helvetica,sans-Serif" font-size="10.00">llvm::simplify_type</text>
<text xml:space="preserve" text-anchor="start" x="497.38" y="-60.53" font-family="Helvetica,sans-Serif" font-size="10.00">&lt; const ilist_iterator</text>
<text xml:space="preserve" text-anchor="start" x="497.38" y="-49.28" font-family="Helvetica,sans-Serif" font-size="10.00">_w_bits&lt; OptionsT, false,</text>
<text xml:space="preserve" text-anchor="middle" x="552.88" y="-38.03" font-family="Helvetica,sans-Serif" font-size="10.00"> IsConst &gt; &gt;</text>
</a>
</g>
</g>
<!-- Node1&#45;&gt;Node27 -->
<g id="edge26_Node000001_Node000027" class="edge">
<title>Node1&#45;&gt;Node27</title>
<g id="a_edge26_Node000001_Node000027"><a xlink:title=" ">
<path fill="none" stroke="orange" stroke-dasharray="5,2" d="M50.59,-748.77C54.11,-625.69 71.14,-121.69 115.75,-68.78 205.58,37.75 391.58,-3.69 489.1,-35.43"/>
<polygon fill="orange" stroke="orange" points="47.1,-748.46 50.32,-758.56 54.1,-748.66 47.1,-748.46"/>
</a>
</g>
<text xml:space="preserve" text-anchor="start" x="297.75" y="-57.91" font-family="Helvetica,sans-Serif" font-size="10.00" fill="grey">&lt; const ilist_iterator</text>
<text xml:space="preserve" text-anchor="start" x="297.75" y="-42.66" font-family="Helvetica,sans-Serif" font-size="10.00" fill="grey">  _w_bits&lt; OptionsT, false,</text>
<text xml:space="preserve" text-anchor="start" x="297.75" y="-27.41" font-family="Helvetica,sans-Serif" font-size="10.00" fill="grey">   IsConst &gt; &gt;</text>
</g>
<!-- Node28 -->
<g id="Node000028" class="node">
<title>Node28</title>
<g id="a_Node000028"><a xlink:href="structllvm_1_1simplify__type_3_01ilist__iterator_3_01OptionsT_00_01false_00_01IsConst_01_4_01_4.html" target="_top" xlink:title="Allow ilist_iterators to convert into pointers to a node automatically when used by the dyn_cast,...">
<polygon fill="white" stroke="#666666" points="419,-186.66 293.5,-186.66 293.5,-144.91 419,-144.91 419,-186.66"/>
<text xml:space="preserve" text-anchor="start" x="301.5" y="-173.16" font-family="Helvetica,sans-Serif" font-size="10.00">llvm::simplify_type</text>
<text xml:space="preserve" text-anchor="start" x="301.5" y="-161.91" font-family="Helvetica,sans-Serif" font-size="10.00">&lt; ilist_iterator&lt; OptionsT,</text>
<text xml:space="preserve" text-anchor="middle" x="356.25" y="-150.66" font-family="Helvetica,sans-Serif" font-size="10.00"> false, IsConst &gt; &gt;</text>
</a>
</g>
</g>
<!-- Node1&#45;&gt;Node28 -->
<g id="edge27_Node000001_Node000028" class="edge">
<title>Node1&#45;&gt;Node28</title>
<g id="a_edge27_Node000001_Node000028"><a xlink:title=" ">
<path fill="none" stroke="orange" stroke-dasharray="5,2" d="M50.81,-748.87C54.96,-637.4 73.35,-215.99 115.75,-176.28 140.51,-153.1 230.83,-155.18 293.19,-159.76"/>
<polygon fill="orange" stroke="orange" points="47.33,-748.43 50.46,-758.55 54.32,-748.68 47.33,-748.43"/>
</a>
</g>
<text xml:space="preserve" text-anchor="start" x="133.38" y="-197.53" font-family="Helvetica,sans-Serif" font-size="10.00" fill="grey">&lt; ilist_iterator&lt; Options</text>
<text xml:space="preserve" text-anchor="start" x="133.38" y="-182.28" font-family="Helvetica,sans-Serif" font-size="10.00" fill="grey">  T, false, IsConst &gt; &gt;</text>
</g>
<!-- Node29 -->
<g id="Node000029" class="node">
<title>Node29</title>
<g id="a_Node000029"><a xlink:href="structllvm_1_1simplify__type_3_01ilist__iterator__w__bits_3_01OptionsT_00_01false_00_01IsConst_01_4_01_4.html" target="_top" xlink:title=" ">
<polygon fill="white" stroke="#666666" points="430.62,-125.66 281.88,-125.66 281.88,-83.91 430.62,-83.91 430.62,-125.66"/>
<text xml:space="preserve" text-anchor="start" x="289.88" y="-112.16" font-family="Helvetica,sans-Serif" font-size="10.00">llvm::simplify_type</text>
<text xml:space="preserve" text-anchor="start" x="289.88" y="-100.91" font-family="Helvetica,sans-Serif" font-size="10.00">&lt; ilist_iterator_w_bits</text>
<text xml:space="preserve" text-anchor="middle" x="356.25" y="-89.66" font-family="Helvetica,sans-Serif" font-size="10.00">&lt; OptionsT, false, IsConst &gt; &gt;</text>
</a>
</g>
</g>
<!-- Node1&#45;&gt;Node29 -->
<g id="edge29_Node000001_Node000029" class="edge">
<title>Node1&#45;&gt;Node29</title>
<g id="a_edge29_Node000001_Node000029"><a xlink:title=" ">
<path fill="none" stroke="orange" stroke-dasharray="5,2" d="M50.44,-748.75C53.21,-628.85 67.26,-149.04 115.75,-105.03 162.09,-62.98 236.72,-70.29 290.36,-83.45"/>
<polygon fill="orange" stroke="orange" points="46.94,-748.51 50.22,-758.58 53.94,-748.66 46.94,-748.51"/>
</a>
</g>
<text xml:space="preserve" text-anchor="start" x="132.25" y="-141.53" font-family="Helvetica,sans-Serif" font-size="10.00" fill="grey">&lt; ilist_iterator_w</text>
<text xml:space="preserve" text-anchor="start" x="132.25" y="-126.28" font-family="Helvetica,sans-Serif" font-size="10.00" fill="grey">  _bits&lt; OptionsT, false,</text>
<text xml:space="preserve" text-anchor="start" x="132.25" y="-111.03" font-family="Helvetica,sans-Serif" font-size="10.00" fill="grey">   IsConst &gt; &gt;</text>
</g>
<!-- Node28&#45;&gt;Node26 -->
<g id="edge28_Node000028_Node000026" class="edge">
<title>Node28&#45;&gt;Node26</title>
<g id="a_edge28_Node000028_Node000026"><a xlink:title=" ">
<path fill="none" stroke="#63b8ff" d="M430.52,-181.6C446.09,-184.96 462.53,-188.5 478.11,-191.87"/>
<polygon fill="#63b8ff" stroke="#63b8ff" points="431.36,-178.2 420.85,-179.51 429.88,-185.04 431.36,-178.2"/>
</a>
</g>
</g>
<!-- Node29&#45;&gt;Node27 -->
<g id="edge30_Node000029_Node000027" class="edge">
<title>Node29&#45;&gt;Node27</title>
<g id="a_edge30_Node000029_Node000027"><a xlink:title=" ">
<path fill="none" stroke="#63b8ff" d="M441.99,-84.76C457.84,-81.01 474.15,-77.16 489.18,-73.6"/>
<polygon fill="#63b8ff" stroke="#63b8ff" points="441.51,-81.27 432.58,-86.98 443.12,-88.09 441.51,-81.27"/>
</a>
</g>
</g>
</g>
</svg>
