<?xml version="1.0" encoding="UTF-8" standalone="no"?>
<!DOCTYPE svg PUBLIC "-//W3C//DTD SVG 1.1//EN"
 "http://www.w3.org/Graphics/SVG/1.1/DTD/svg11.dtd">
<!-- Generated by graphviz version 14.1.3 (20260303.0454)
 -->
<!-- Title: llvm::DenseMapInfo&lt; const AA::InstExclusionSetTy * &gt; Pages: 1 -->
<svg width="286pt" height="203pt"
 viewBox="0.00 0.00 286.00 203.00" xmlns="http://www.w3.org/2000/svg" xmlns:xlink="http://www.w3.org/1999/xlink">
<g id="graph0" class="graph" transform="scale(1 1) rotate(0) translate(4 199)">
<title>llvm::DenseMapInfo&lt; const AA::InstExclusionSetTy * &gt;</title>
<!-- Node1 -->
<g id="Node000001" class="node">
<title>Node1</title>
<g id="a_Node000001"><a xlink:title=" ">
<polygon fill="#999999" stroke="#666666" points="161.38,-41.75 16.38,-41.75 16.38,0 161.38,0 161.38,-41.75"/>
<text xml:space="preserve" text-anchor="start" x="24.38" y="-28.25" font-family="Helvetica,sans-Serif" font-size="10.00">llvm::DenseMapInfo</text>
<text xml:space="preserve" text-anchor="start" x="24.38" y="-17" font-family="Helvetica,sans-Serif" font-size="10.00">&lt; const AA::InstExclusionSet</text>
<text xml:space="preserve" text-anchor="middle" x="88.88" y="-5.75" font-family="Helvetica,sans-Serif" font-size="10.00">Ty * &gt;</text>
</a>
</g>
</g>
<!-- Node2 -->
<g id="Node000002" class="node">
<title>Node2</title>
<g id="a_Node000002"><a xlink:href="structllvm_1_1DenseMapInfo.html" target="_top" xlink:title=" ">
<polygon fill="white" stroke="#666666" points="277.75,-110.25 174,-110.25 174,-79.75 277.75,-79.75 277.75,-110.25"/>
<text xml:space="preserve" text-anchor="start" x="182" y="-96.75" font-family="Helvetica,sans-Serif" font-size="10.00">llvm::DenseMapInfo</text>
<text xml:space="preserve" text-anchor="middle" x="225.88" y="-85.5" font-family="Helvetica,sans-Serif" font-size="10.00">&lt; void * &gt;</text>
</a>
</g>
</g>
<!-- Node2&#45;&gt;Node1 -->
<g id="edge1_Node000001_Node000002" class="edge">
<title>Node2&#45;&gt;Node1</title>
<g id="a_edge1_Node000001_Node000002"><a xlink:title=" ">
<path fill="none" stroke="#63b8ff" d="M188.12,-74.12C169.25,-64.19 146.44,-52.18 127.46,-42.19"/>
<polygon fill="#63b8ff" stroke="#63b8ff" points="186.33,-77.14 196.81,-78.7 189.59,-70.94 186.33,-77.14"/>
</a>
</g>
</g>
<!-- Node3 -->
<g id="Node000003" class="node">
<title>Node3</title>
<g id="a_Node000003"><a xlink:href="structllvm_1_1DenseMapInfo.html" target="_top" xlink:title="An information struct used to provide DenseMap with the various necessary components for a given valu...">
<polygon fill="white" stroke="#666666" points="103.75,-195 0,-195 0,-164.5 103.75,-164.5 103.75,-195"/>
<text xml:space="preserve" text-anchor="start" x="8" y="-181.5" font-family="Helvetica,sans-Serif" font-size="10.00">llvm::DenseMapInfo</text>
<text xml:space="preserve" text-anchor="middle" x="51.88" y="-170.25" font-family="Helvetica,sans-Serif" font-size="10.00">&lt; T, Enable &gt;</text>
</a>
</g>
</g>
<!-- Node3&#45;&gt;Node1 -->
<g id="edge3_Node000001_Node000003" class="edge">
<title>Node3&#45;&gt;Node1</title>
<g id="a_edge3_Node000001_Node000003"><a xlink:title=" ">
<path fill="none" stroke="orange" stroke-dasharray="5,2" d="M44.66,-153.02C40.15,-132.39 36.6,-102.98 44.88,-78.75 49.56,-65.05 59.03,-52.08 67.99,-42"/>
<polygon fill="orange" stroke="orange" points="41.22,-153.69 46.99,-162.58 48.02,-152.03 41.22,-153.69"/>
</a>
</g>
<text xml:space="preserve" text-anchor="start" x="47.88" y="-100" font-family="Helvetica,sans-Serif" font-size="10.00" fill="grey">&lt; const AA::InstExclusion</text>
<text xml:space="preserve" text-anchor="start" x="47.88" y="-84.75" font-family="Helvetica,sans-Serif" font-size="10.00" fill="grey">  SetTy * &gt;</text>
</g>
<!-- Node3&#45;&gt;Node2 -->
<g id="edge2_Node000002_Node000003" class="edge">
<title>Node3&#45;&gt;Node2</title>
<g id="a_edge2_Node000002_Node000003"><a xlink:title=" ">
<path fill="none" stroke="orange" stroke-dasharray="5,2" d="M92.71,-159.33C123.96,-144.47 166.4,-124.29 194.89,-110.74"/>
<polygon fill="orange" stroke="orange" points="91.48,-156.04 83.95,-163.5 94.48,-162.36 91.48,-156.04"/>
</a>
</g>
<text xml:space="preserve" text-anchor="start" x="157.46" y="-135.25" font-family="Helvetica,sans-Serif" font-size="10.00" fill="grey">&lt; void * &gt;</text>
</g>
</g>
</svg>
