<?xml version="1.0" encoding="UTF-8" standalone="no"?>
<!DOCTYPE svg PUBLIC "-//W3C//DTD SVG 1.1//EN"
 "http://www.w3.org/Graphics/SVG/1.1/DTD/svg11.dtd">
<!-- Generated by graphviz version 14.1.3 (20260303.0454)
 -->
<!-- Title: llvm::MIPatternMatch::And&lt; Preds &gt; Pages: 1 -->
<svg width="228pt" height="190pt"
 viewBox="0.00 0.00 228.00 190.00" xmlns="http://www.w3.org/2000/svg" xmlns:xlink="http://www.w3.org/1999/xlink">
<g id="graph0" class="graph" transform="scale(1 1) rotate(0) translate(4 185.75)">
<title>llvm::MIPatternMatch::And&lt; Preds &gt;</title>
<!-- Node1 -->
<g id="Node000001" class="node">
<title>Node1</title>
<g id="a_Node000001"><a xlink:title="Matching combinators.">
<polygon fill="#999999" stroke="#666666" points="155.75,-181.75 46,-181.75 46,-151.25 155.75,-151.25 155.75,-181.75"/>
<text xml:space="preserve" text-anchor="start" x="54" y="-168.25" font-family="Helvetica,sans-Serif" font-size="10.00">llvm::MIPatternMatch</text>
<text xml:space="preserve" text-anchor="middle" x="100.88" y="-157" font-family="Helvetica,sans-Serif" font-size="10.00">::And&lt; Preds &gt;</text>
</a>
</g>
</g>
<!-- Node2 -->
<g id="Node000002" class="node">
<title>Node2</title>
<g id="a_Node000002"><a xlink:href="structllvm_1_1MIPatternMatch_1_1And.html" target="_top" xlink:title=" ">
<polygon fill="white" stroke="#666666" points="109.75,-98 0,-98 0,-67.5 109.75,-67.5 109.75,-98"/>
<text xml:space="preserve" text-anchor="start" x="8" y="-84.5" font-family="Helvetica,sans-Serif" font-size="10.00">llvm::MIPatternMatch</text>
<text xml:space="preserve" text-anchor="middle" x="54.88" y="-73.25" font-family="Helvetica,sans-Serif" font-size="10.00">::And&lt; Preds... &gt;</text>
</a>
</g>
</g>
<!-- Node1&#45;&gt;Node2 -->
<g id="edge1_Node000001_Node000002" class="edge">
<title>Node1&#45;&gt;Node2</title>
<g id="a_edge1_Node000001_Node000002"><a xlink:title=" ">
<path fill="none" stroke="orange" stroke-dasharray="5,2" d="M79.39,-142.16C77.21,-139.26 75.15,-136.26 73.38,-133.25 66.86,-122.18 61.94,-108.41 58.82,-98.21"/>
<polygon fill="orange" stroke="orange" points="76.55,-144.22 85.6,-149.74 81.97,-139.79 76.55,-144.22"/>
</a>
</g>
<text xml:space="preserve" text-anchor="start" x="76.38" y="-122" font-family="Helvetica,sans-Serif" font-size="10.00" fill="grey">&lt; Preds... &gt;</text>
</g>
<!-- Node3 -->
<g id="Node000003" class="node">
<title>Node3</title>
<g id="a_Node000003"><a xlink:href="structllvm_1_1MIPatternMatch_1_1And_3_01Pred_00_01Preds_8_8_8_01_4.html" target="_top" xlink:title=" ">
<polygon fill="white" stroke="#666666" points="158.88,-30.5 40.88,-30.5 40.88,0 158.88,0 158.88,-30.5"/>
<text xml:space="preserve" text-anchor="start" x="48.88" y="-17" font-family="Helvetica,sans-Serif" font-size="10.00">llvm::MIPatternMatch</text>
<text xml:space="preserve" text-anchor="middle" x="99.88" y="-5.75" font-family="Helvetica,sans-Serif" font-size="10.00">::And&lt; Pred, Preds... &gt;</text>
</a>
</g>
</g>
<!-- Node1&#45;&gt;Node3 -->
<g id="edge3_Node000001_Node000003" class="edge">
<title>Node1&#45;&gt;Node3</title>
<g id="a_edge3_Node000001_Node000003"><a xlink:title=" ">
<path fill="none" stroke="orange" stroke-dasharray="5,2" d="M126.74,-142.41C128.8,-139.53 130.58,-136.46 131.88,-133.25 146.27,-97.5 123.73,-53.08 109.71,-30.65"/>
<polygon fill="orange" stroke="orange" points="124.29,-139.89 120.44,-149.76 129.6,-144.45 124.29,-139.89"/>
</a>
</g>
<text xml:space="preserve" text-anchor="start" x="138.75" y="-80.12" font-family="Helvetica,sans-Serif" font-size="10.00" fill="grey">&lt; Pred, Preds... &gt;</text>
</g>
<!-- Node2&#45;&gt;Node3 -->
<g id="edge2_Node000002_Node000003" class="edge">
<title>Node2&#45;&gt;Node3</title>
<g id="a_edge2_Node000002_Node000003"><a xlink:title=" ">
<path fill="none" stroke="#63b8ff" d="M71.27,-57.88C77.52,-48.79 84.44,-38.71 89.92,-30.75"/>
<polygon fill="#63b8ff" stroke="#63b8ff" points="68.5,-55.74 65.72,-65.97 74.27,-59.71 68.5,-55.74"/>
</a>
</g>
</g>
</g>
</svg>
