<?xml version="1.0" encoding="UTF-8" standalone="no"?>
<!DOCTYPE svg PUBLIC "-//W3C//DTD SVG 1.1//EN"
 "http://www.w3.org/Graphics/SVG/1.1/DTD/svg11.dtd">
<!-- Generated by graphviz version 14.1.3 (20260303.0454)
 -->
<!-- Title: llvm::rdf::NodeBase Pages: 1 -->
<svg width="541pt" height="175pt"
 viewBox="0.00 0.00 541.00 175.00" xmlns="http://www.w3.org/2000/svg" xmlns:xlink="http://www.w3.org/1999/xlink">
<g id="graph0" class="graph" transform="scale(1 1) rotate(0) translate(4 171.25)">
<title>llvm::rdf::NodeBase</title>
<!-- Node1 -->
<g id="Node000001" class="node">
<title>Node1</title>
<g id="a_Node000001"><a xlink:title=" ">
<polygon fill="#999999" stroke="#666666" points="103,-74.25 0,-74.25 0,-55 103,-55 103,-74.25"/>
<text xml:space="preserve" text-anchor="middle" x="51.5" y="-60.75" font-family="Helvetica,sans-Serif" font-size="10.00">llvm::rdf::NodeBase</text>
</a>
</g>
</g>
<!-- Node2 -->
<g id="Node000002" class="node">
<title>Node2</title>
<g id="a_Node000002"><a xlink:href="structllvm_1_1rdf_1_1CodeNode.html" target="_top" xlink:title=" ">
<polygon fill="white" stroke="#666666" points="242.75,-111.25 139,-111.25 139,-92 242.75,-92 242.75,-111.25"/>
<text xml:space="preserve" text-anchor="middle" x="190.88" y="-97.75" font-family="Helvetica,sans-Serif" font-size="10.00">llvm::rdf::CodeNode</text>
</a>
</g>
</g>
<!-- Node1&#45;&gt;Node2 -->
<g id="edge1_Node000001_Node000002" class="edge">
<title>Node1&#45;&gt;Node2</title>
<g id="a_edge1_Node000001_Node000002"><a xlink:title=" ">
<path fill="none" stroke="#63b8ff" d="M100.85,-77.65C117.76,-82.2 136.49,-87.25 152.38,-91.53"/>
<polygon fill="#63b8ff" stroke="#63b8ff" points="102.07,-74.35 91.5,-75.13 100.25,-81.11 102.07,-74.35"/>
</a>
</g>
</g>
<!-- Node8 -->
<g id="Node000008" class="node">
<title>Node8</title>
<g id="a_Node000008"><a xlink:href="structllvm_1_1rdf_1_1RefNode.html" target="_top" xlink:title=" ">
<polygon fill="white" stroke="#666666" points="239,-56.25 142.75,-56.25 142.75,-37 239,-37 239,-56.25"/>
<text xml:space="preserve" text-anchor="middle" x="190.88" y="-42.75" font-family="Helvetica,sans-Serif" font-size="10.00">llvm::rdf::RefNode</text>
</a>
</g>
</g>
<!-- Node1&#45;&gt;Node8 -->
<g id="edge7_Node000001_Node000008" class="edge">
<title>Node1&#45;&gt;Node8</title>
<g id="a_edge7_Node000001_Node000008"><a xlink:title=" ">
<path fill="none" stroke="#63b8ff" d="M114.58,-56.49C123.96,-55.26 133.5,-54.01 142.51,-52.83"/>
<polygon fill="#63b8ff" stroke="#63b8ff" points="114.22,-53.01 104.76,-57.78 115.13,-59.95 114.22,-53.01"/>
</a>
</g>
</g>
<!-- Node3 -->
<g id="Node000003" class="node">
<title>Node3</title>
<g id="a_Node000003"><a xlink:href="structllvm_1_1rdf_1_1BlockNode.html" target="_top" xlink:title=" ">
<polygon fill="white" stroke="#666666" points="384,-167.25 278.75,-167.25 278.75,-148 384,-148 384,-167.25"/>
<text xml:space="preserve" text-anchor="middle" x="331.38" y="-153.75" font-family="Helvetica,sans-Serif" font-size="10.00">llvm::rdf::BlockNode</text>
</a>
</g>
</g>
<!-- Node2&#45;&gt;Node3 -->
<g id="edge2_Node000002_Node000003" class="edge">
<title>Node2&#45;&gt;Node3</title>
<g id="a_edge2_Node000002_Node000003"><a xlink:title=" ">
<path fill="none" stroke="#63b8ff" d="M223.57,-116.19C239.92,-123.52 260.27,-132.37 278.75,-139.62 285.64,-142.33 293.13,-145.06 300.2,-147.54"/>
<polygon fill="#63b8ff" stroke="#63b8ff" points="225.39,-113.17 214.84,-112.24 222.51,-119.55 225.39,-113.17"/>
</a>
</g>
</g>
<!-- Node4 -->
<g id="Node000004" class="node">
<title>Node4</title>
<g id="a_Node000004"><a xlink:href="structllvm_1_1rdf_1_1FuncNode.html" target="_top" xlink:title=" ">
<polygon fill="white" stroke="#666666" points="382.5,-130.25 280.25,-130.25 280.25,-111 382.5,-111 382.5,-130.25"/>
<text xml:space="preserve" text-anchor="middle" x="331.38" y="-116.75" font-family="Helvetica,sans-Serif" font-size="10.00">llvm::rdf::FuncNode</text>
</a>
</g>
</g>
<!-- Node2&#45;&gt;Node4 -->
<g id="edge3_Node000002_Node000004" class="edge">
<title>Node2&#45;&gt;Node4</title>
<g id="a_edge3_Node000002_Node000004"><a xlink:title=" ">
<path fill="none" stroke="#63b8ff" d="M254.21,-110.18C262.8,-111.35 271.53,-112.55 279.87,-113.7"/>
<polygon fill="#63b8ff" stroke="#63b8ff" points="254.94,-106.74 244.55,-108.85 253.98,-113.68 254.94,-106.74"/>
</a>
</g>
</g>
<!-- Node5 -->
<g id="Node000005" class="node">
<title>Node5</title>
<g id="a_Node000005"><a xlink:href="structllvm_1_1rdf_1_1InstrNode.html" target="_top" xlink:title=" ">
<polygon fill="white" stroke="#666666" points="381.38,-93.25 281.38,-93.25 281.38,-74 381.38,-74 381.38,-93.25"/>
<text xml:space="preserve" text-anchor="middle" x="331.38" y="-79.75" font-family="Helvetica,sans-Serif" font-size="10.00">llvm::rdf::InstrNode</text>
</a>
</g>
</g>
<!-- Node2&#45;&gt;Node5 -->
<g id="edge4_Node000002_Node000005" class="edge">
<title>Node2&#45;&gt;Node5</title>
<g id="a_edge4_Node000002_Node000005"><a xlink:title=" ">
<path fill="none" stroke="#63b8ff" d="M254.35,-93.51C263.37,-92.33 272.54,-91.14 281.25,-90.01"/>
<polygon fill="#63b8ff" stroke="#63b8ff" points="254.02,-90.02 244.55,-94.78 254.92,-96.96 254.02,-90.02"/>
</a>
</g>
</g>
<!-- Node6 -->
<g id="Node000006" class="node">
<title>Node6</title>
<g id="a_Node000006"><a xlink:href="structllvm_1_1rdf_1_1PhiNode.html" target="_top" xlink:title=" ">
<polygon fill="white" stroke="#666666" points="523.75,-111.25 429,-111.25 429,-92 523.75,-92 523.75,-111.25"/>
<text xml:space="preserve" text-anchor="middle" x="476.38" y="-97.75" font-family="Helvetica,sans-Serif" font-size="10.00">llvm::rdf::PhiNode</text>
</a>
</g>
</g>
<!-- Node5&#45;&gt;Node6 -->
<g id="edge5_Node000005_Node000006" class="edge">
<title>Node5&#45;&gt;Node6</title>
<g id="a_edge5_Node000005_Node000006"><a xlink:title=" ">
<path fill="none" stroke="#63b8ff" d="M392.96,-91.25C405.01,-92.77 417.48,-94.34 428.96,-95.78"/>
<polygon fill="#63b8ff" stroke="#63b8ff" points="393.45,-87.78 383.09,-90.01 392.57,-94.73 393.45,-87.78"/>
</a>
</g>
</g>
<!-- Node7 -->
<g id="Node000007" class="node">
<title>Node7</title>
<g id="a_Node000007"><a xlink:href="structllvm_1_1rdf_1_1StmtNode.html" target="_top" xlink:title=" ">
<polygon fill="white" stroke="#666666" points="527.12,-74.25 425.62,-74.25 425.62,-55 527.12,-55 527.12,-74.25"/>
<text xml:space="preserve" text-anchor="middle" x="476.38" y="-60.75" font-family="Helvetica,sans-Serif" font-size="10.00">llvm::rdf::StmtNode</text>
</a>
</g>
</g>
<!-- Node5&#45;&gt;Node7 -->
<g id="edge6_Node000005_Node000007" class="edge">
<title>Node5&#45;&gt;Node7</title>
<g id="a_edge6_Node000005_Node000007"><a xlink:title=" ">
<path fill="none" stroke="#63b8ff" d="M392.8,-75.6C403.73,-74.14 415.01,-72.65 425.59,-71.24"/>
<polygon fill="#63b8ff" stroke="#63b8ff" points="392.54,-72.1 383.09,-76.89 393.46,-79.04 392.54,-72.1"/>
</a>
</g>
</g>
<!-- Node9 -->
<g id="Node000009" class="node">
<title>Node9</title>
<g id="a_Node000009"><a xlink:href="structllvm_1_1rdf_1_1DefNode.html" target="_top" xlink:title=" ">
<polygon fill="white" stroke="#666666" points="379.5,-56.25 283.25,-56.25 283.25,-37 379.5,-37 379.5,-56.25"/>
<text xml:space="preserve" text-anchor="middle" x="331.38" y="-42.75" font-family="Helvetica,sans-Serif" font-size="10.00">llvm::rdf::DefNode</text>
</a>
</g>
</g>
<!-- Node8&#45;&gt;Node9 -->
<g id="edge8_Node000008_Node000009" class="edge">
<title>Node8&#45;&gt;Node9</title>
<g id="a_edge8_Node000008_Node000009"><a xlink:title=" ">
<path fill="none" stroke="#63b8ff" d="M250.63,-46.62C261.38,-46.62 272.47,-46.62 282.84,-46.62"/>
<polygon fill="#63b8ff" stroke="#63b8ff" points="250.67,-43.13 240.67,-46.63 250.66,-50.13 250.67,-43.13"/>
</a>
</g>
</g>
<!-- Node10 -->
<g id="Node000010" class="node">
<title>Node10</title>
<g id="a_Node000010"><a xlink:href="structllvm_1_1rdf_1_1UseNode.html" target="_top" xlink:title=" ">
<polygon fill="white" stroke="#666666" points="380.62,-19.25 282.12,-19.25 282.12,0 380.62,0 380.62,-19.25"/>
<text xml:space="preserve" text-anchor="middle" x="331.38" y="-5.75" font-family="Helvetica,sans-Serif" font-size="10.00">llvm::rdf::UseNode</text>
</a>
</g>
</g>
<!-- Node8&#45;&gt;Node10 -->
<g id="edge9_Node000008_Node000010" class="edge">
<title>Node8&#45;&gt;Node10</title>
<g id="a_edge9_Node000008_Node000010"><a xlink:title=" ">
<path fill="none" stroke="#63b8ff" d="M240.62,-33.6C257.67,-29.05 276.55,-24 292.58,-19.72"/>
<polygon fill="#63b8ff" stroke="#63b8ff" points="239.94,-30.16 231.18,-36.12 241.75,-36.92 239.94,-30.16"/>
</a>
</g>
</g>
<!-- Node11 -->
<g id="Node000011" class="node">
<title>Node11</title>
<g id="a_Node000011"><a xlink:href="structllvm_1_1rdf_1_1PhiUseNode.html" target="_top" xlink:title=" ">
<polygon fill="white" stroke="#666666" points="532.75,-19.25 420,-19.25 420,0 532.75,0 532.75,-19.25"/>
<text xml:space="preserve" text-anchor="middle" x="476.38" y="-5.75" font-family="Helvetica,sans-Serif" font-size="10.00">llvm::rdf::PhiUseNode</text>
</a>
</g>
</g>
<!-- Node10&#45;&gt;Node11 -->
<g id="edge10_Node000010_Node000011" class="edge">
<title>Node10&#45;&gt;Node11</title>
<g id="a_edge10_Node000010_Node000011"><a xlink:title=" ">
<path fill="none" stroke="#63b8ff" d="M392.13,-9.62C401.24,-9.62 410.6,-9.62 419.61,-9.62"/>
<polygon fill="#63b8ff" stroke="#63b8ff" points="392.3,-6.13 382.3,-9.63 392.3,-13.13 392.3,-6.13"/>
</a>
</g>
</g>
</g>
</svg>
