<?xml version="1.0" encoding="UTF-8" standalone="no"?>
<!DOCTYPE svg PUBLIC "-//W3C//DTD SVG 1.1//EN"
 "http://www.w3.org/Graphics/SVG/1.1/DTD/svg11.dtd">
<!-- Generated by graphviz version 14.1.3 (20260303.0454)
 -->
<!-- Title: llvm::jitlink::aarch32::FixupInfo&lt; Kind &gt; Pages: 1 -->
<svg width="439pt" height="493pt"
 viewBox="0.00 0.00 439.00 493.00" xmlns="http://www.w3.org/2000/svg" xmlns:xlink="http://www.w3.org/1999/xlink">
<g id="graph0" class="graph" transform="scale(1 1) rotate(0) translate(4 489.38)">
<title>llvm::jitlink::aarch32::FixupInfo&lt; Kind &gt;</title>
<!-- Node1 -->
<g id="Node000001" class="node">
<title>Node1</title>
<g id="a_Node000001"><a xlink:title="Collection of named constants per fixup kind.">
<polygon fill="#999999" stroke="#666666" points="103,-250.5 0,-250.5 0,-220 103,-220 103,-250.5"/>
<text xml:space="preserve" text-anchor="start" x="8" y="-237" font-family="Helvetica,sans-Serif" font-size="10.00">llvm::jitlink::aarch32</text>
<text xml:space="preserve" text-anchor="middle" x="51.5" y="-225.75" font-family="Helvetica,sans-Serif" font-size="10.00">::FixupInfo&lt; Kind &gt;</text>
</a>
</g>
</g>
<!-- Node2 -->
<g id="Node000002" class="node">
<title>Node2</title>
<g id="a_Node000002"><a xlink:href="structllvm_1_1jitlink_1_1aarch32_1_1FixupInfo_3_01Arm__Call_01_4.html" target="_top" xlink:title=" ">
<polygon fill="white" stroke="#666666" points="404,-471.5 283.75,-471.5 283.75,-441 404,-441 404,-471.5"/>
<text xml:space="preserve" text-anchor="start" x="291.75" y="-458" font-family="Helvetica,sans-Serif" font-size="10.00">llvm::jitlink::aarch32</text>
<text xml:space="preserve" text-anchor="middle" x="343.88" y="-446.75" font-family="Helvetica,sans-Serif" font-size="10.00">::FixupInfo&lt; Arm_Call &gt;</text>
</a>
</g>
</g>
<!-- Node1&#45;&gt;Node2 -->
<g id="edge1_Node000001_Node000002" class="edge">
<title>Node1&#45;&gt;Node2</title>
<g id="a_edge1_Node000001_Node000002"><a xlink:title=" ">
<path fill="none" stroke="orange" stroke-dasharray="5,2" d="M53.17,-262.09C55.84,-305.67 67.97,-391.19 121,-433.25 166.51,-469.35 234.87,-471.04 283.67,-466.25"/>
<polygon fill="orange" stroke="orange" points="56.67,-262.07 52.71,-252.24 49.68,-262.4 56.67,-262.07"/>
</a>
</g>
<text xml:space="preserve" text-anchor="start" x="151" y="-474.13" font-family="Helvetica,sans-Serif" font-size="10.00" fill="grey">&lt; Arm_Call &gt;</text>
</g>
<!-- Node3 -->
<g id="Node000003" class="node">
<title>Node3</title>
<g id="a_Node000003"><a xlink:href="structllvm_1_1jitlink_1_1aarch32_1_1FixupInfo_3_01Arm__Jump24_01_4.html" target="_top" xlink:title=" ">
<polygon fill="white" stroke="#666666" points="412.62,-422.5 275.12,-422.5 275.12,-392 412.62,-392 412.62,-422.5"/>
<text xml:space="preserve" text-anchor="start" x="283.12" y="-409" font-family="Helvetica,sans-Serif" font-size="10.00">llvm::jitlink::aarch32</text>
<text xml:space="preserve" text-anchor="middle" x="343.88" y="-397.75" font-family="Helvetica,sans-Serif" font-size="10.00">::FixupInfo&lt; Arm_Jump24 &gt;</text>
</a>
</g>
</g>
<!-- Node1&#45;&gt;Node3 -->
<g id="edge2_Node000001_Node000003" class="edge">
<title>Node1&#45;&gt;Node3</title>
<g id="a_edge2_Node000001_Node000003"><a xlink:title=" ">
<path fill="none" stroke="orange" stroke-dasharray="5,2" d="M57.45,-261.5C65.07,-294.04 82.97,-348.6 121,-376.25 165.12,-408.33 227.49,-414.56 274.87,-413.64"/>
<polygon fill="orange" stroke="orange" points="60.95,-261.1 55.41,-252.07 54.11,-262.58 60.95,-261.1"/>
</a>
</g>
<text xml:space="preserve" text-anchor="start" x="142.38" y="-418.46" font-family="Helvetica,sans-Serif" font-size="10.00" fill="grey">&lt; Arm_Jump24 &gt;</text>
</g>
<!-- Node4 -->
<g id="Node000004" class="node">
<title>Node4</title>
<g id="a_Node000004"><a xlink:href="structllvm_1_1jitlink_1_1aarch32_1_1FixupInfo_3_01Arm__MovtAbs_01_4.html" target="_top" xlink:title=" ">
<polygon fill="white" stroke="#666666" points="414.88,-373.5 272.88,-373.5 272.88,-343 414.88,-343 414.88,-373.5"/>
<text xml:space="preserve" text-anchor="start" x="280.88" y="-360" font-family="Helvetica,sans-Serif" font-size="10.00">llvm::jitlink::aarch32</text>
<text xml:space="preserve" text-anchor="middle" x="343.88" y="-348.75" font-family="Helvetica,sans-Serif" font-size="10.00">::FixupInfo&lt; Arm_MovtAbs &gt;</text>
</a>
</g>
</g>
<!-- Node1&#45;&gt;Node4 -->
<g id="edge3_Node000001_Node000004" class="edge">
<title>Node1&#45;&gt;Node4</title>
<g id="a_edge3_Node000001_Node000004"><a xlink:title=" ">
<path fill="none" stroke="orange" stroke-dasharray="5,2" d="M66.29,-260.5C78.19,-279.76 97.2,-305.29 121,-319.25 166.88,-346.16 226.64,-355.48 272.57,-358.31"/>
<polygon fill="orange" stroke="orange" points="69.44,-258.96 61.35,-252.12 63.42,-262.52 69.44,-258.96"/>
</a>
</g>
<text xml:space="preserve" text-anchor="start" x="140.12" y="-360.86" font-family="Helvetica,sans-Serif" font-size="10.00" fill="grey">&lt; Arm_MovtAbs &gt;</text>
</g>
<!-- Node5 -->
<g id="Node000005" class="node">
<title>Node5</title>
<g id="a_Node000005"><a xlink:href="structllvm_1_1jitlink_1_1aarch32_1_1FixupInfo_3_01Arm__MovwAbsNC_01_4.html" target="_top" xlink:title=" ">
<polygon fill="white" stroke="#666666" points="424.62,-324.5 263.12,-324.5 263.12,-294 424.62,-294 424.62,-324.5"/>
<text xml:space="preserve" text-anchor="start" x="271.12" y="-311" font-family="Helvetica,sans-Serif" font-size="10.00">llvm::jitlink::aarch32</text>
<text xml:space="preserve" text-anchor="middle" x="343.88" y="-299.75" font-family="Helvetica,sans-Serif" font-size="10.00">::FixupInfo&lt; Arm_MovwAbsNC &gt;</text>
</a>
</g>
</g>
<!-- Node1&#45;&gt;Node5 -->
<g id="edge4_Node000001_Node000005" class="edge">
<title>Node1&#45;&gt;Node5</title>
<g id="a_edge4_Node000001_Node000005"><a xlink:title=" ">
<path fill="none" stroke="orange" stroke-dasharray="5,2" d="M86.44,-256.44C97.16,-262.34 109.28,-268.23 121,-272.25 166.62,-287.89 219.86,-297.05 262.76,-302.34"/>
<polygon fill="orange" stroke="orange" points="88.38,-253.52 77.96,-251.59 84.91,-259.6 88.38,-253.52"/>
</a>
</g>
<text xml:space="preserve" text-anchor="start" x="130.38" y="-304.42" font-family="Helvetica,sans-Serif" font-size="10.00" fill="grey">&lt; Arm_MovwAbsNC &gt;</text>
</g>
<!-- Node6 -->
<g id="Node000006" class="node">
<title>Node6</title>
<g id="a_Node000006"><a xlink:href="structllvm_1_1jitlink_1_1aarch32_1_1FixupInfo_3_01Thumb__Call_01_4.html" target="_top" xlink:title=" ">
<polygon fill="white" stroke="#666666" points="410.38,-275.5 277.38,-275.5 277.38,-245 410.38,-245 410.38,-275.5"/>
<text xml:space="preserve" text-anchor="start" x="285.38" y="-262" font-family="Helvetica,sans-Serif" font-size="10.00">llvm::jitlink::aarch32</text>
<text xml:space="preserve" text-anchor="middle" x="343.88" y="-250.75" font-family="Helvetica,sans-Serif" font-size="10.00">::FixupInfo&lt; Thumb_Call &gt;</text>
</a>
</g>
</g>
<!-- Node1&#45;&gt;Node6 -->
<g id="edge5_Node000001_Node000006" class="edge">
<title>Node1&#45;&gt;Node6</title>
<g id="a_edge5_Node000001_Node000006"><a xlink:title=" ">
<path fill="none" stroke="orange" stroke-dasharray="5,2" d="M114.84,-240.62C162.59,-244.73 228.32,-250.39 276.95,-254.57"/>
<polygon fill="orange" stroke="orange" points="115.18,-237.13 104.92,-239.76 114.58,-244.11 115.18,-237.13"/>
</a>
</g>
<text xml:space="preserve" text-anchor="start" x="144.62" y="-256.72" font-family="Helvetica,sans-Serif" font-size="10.00" fill="grey">&lt; Thumb_Call &gt;</text>
</g>
<!-- Node7 -->
<g id="Node000007" class="node">
<title>Node7</title>
<g id="a_Node000007"><a xlink:href="structllvm_1_1jitlink_1_1aarch32_1_1FixupInfo_3_01Thumb__Jump24_01_4.html" target="_top" xlink:title=" ">
<polygon fill="white" stroke="#666666" points="419,-226.5 268.75,-226.5 268.75,-196 419,-196 419,-226.5"/>
<text xml:space="preserve" text-anchor="start" x="276.75" y="-213" font-family="Helvetica,sans-Serif" font-size="10.00">llvm::jitlink::aarch32</text>
<text xml:space="preserve" text-anchor="middle" x="343.88" y="-201.75" font-family="Helvetica,sans-Serif" font-size="10.00">::FixupInfo&lt; Thumb_Jump24 &gt;</text>
</a>
</g>
</g>
<!-- Node1&#45;&gt;Node7 -->
<g id="edge6_Node000001_Node000007" class="edge">
<title>Node1&#45;&gt;Node7</title>
<g id="a_edge6_Node000001_Node000007"><a xlink:title=" ">
<path fill="none" stroke="orange" stroke-dasharray="5,2" d="M114.41,-221.91C116.63,-221.58 118.83,-221.27 121,-221 169.88,-214.88 225.22,-212.44 268.41,-211.53"/>
<polygon fill="orange" stroke="orange" points="114.01,-218.42 104.71,-223.5 115.15,-225.33 114.01,-218.42"/>
</a>
</g>
<text xml:space="preserve" text-anchor="start" x="136" y="-227" font-family="Helvetica,sans-Serif" font-size="10.00" fill="grey">&lt; Thumb_Jump24 &gt;</text>
</g>
<!-- Node8 -->
<g id="Node000008" class="node">
<title>Node8</title>
<g id="a_Node000008"><a xlink:href="structllvm_1_1jitlink_1_1aarch32_1_1FixupInfo_3_01Thumb__MovtAbs_01_4.html" target="_top" xlink:title=" ">
<polygon fill="white" stroke="#666666" points="421.25,-177.5 266.5,-177.5 266.5,-147 421.25,-147 421.25,-177.5"/>
<text xml:space="preserve" text-anchor="start" x="274.5" y="-164" font-family="Helvetica,sans-Serif" font-size="10.00">llvm::jitlink::aarch32</text>
<text xml:space="preserve" text-anchor="middle" x="343.88" y="-152.75" font-family="Helvetica,sans-Serif" font-size="10.00">::FixupInfo&lt; Thumb_MovtAbs &gt;</text>
</a>
</g>
</g>
<!-- Node1&#45;&gt;Node8 -->
<g id="edge7_Node000001_Node000008" class="edge">
<title>Node1&#45;&gt;Node8</title>
<g id="a_edge7_Node000001_Node000008"><a xlink:title=" ">
<path fill="none" stroke="orange" stroke-dasharray="5,2" d="M80.9,-212.85C92.68,-204.68 106.88,-196.18 121,-191 167.41,-174 222.5,-166.79 266.18,-163.85"/>
<polygon fill="orange" stroke="orange" points="78.9,-209.98 72.85,-218.68 83,-215.65 78.9,-209.98"/>
</a>
</g>
<text xml:space="preserve" text-anchor="start" x="133.75" y="-197" font-family="Helvetica,sans-Serif" font-size="10.00" fill="grey">&lt; Thumb_MovtAbs &gt;</text>
</g>
<!-- Node9 -->
<g id="Node000009" class="node">
<title>Node9</title>
<g id="a_Node000009"><a xlink:href="structllvm_1_1jitlink_1_1aarch32_1_1FixupInfo_3_01Thumb__MovtPrel_01_4.html" target="_top" xlink:title=" ">
<polygon fill="white" stroke="#666666" points="421.25,-128.5 266.5,-128.5 266.5,-98 421.25,-98 421.25,-128.5"/>
<text xml:space="preserve" text-anchor="start" x="274.5" y="-115" font-family="Helvetica,sans-Serif" font-size="10.00">llvm::jitlink::aarch32</text>
<text xml:space="preserve" text-anchor="middle" x="343.88" y="-103.75" font-family="Helvetica,sans-Serif" font-size="10.00">::FixupInfo&lt; Thumb_MovtPrel &gt;</text>
</a>
</g>
</g>
<!-- Node1&#45;&gt;Node9 -->
<g id="edge8_Node000001_Node000009" class="edge">
<title>Node1&#45;&gt;Node9</title>
<g id="a_edge8_Node000001_Node000009"><a xlink:title=" ">
<path fill="none" stroke="orange" stroke-dasharray="5,2" d="M64.76,-209.64C76.24,-188.65 95.45,-160.04 121,-145 164.6,-119.35 221.13,-111.56 266.22,-110.11"/>
<polygon fill="orange" stroke="orange" points="61.68,-207.99 60.17,-218.47 67.89,-211.22 61.68,-207.99"/>
</a>
</g>
<text xml:space="preserve" text-anchor="start" x="133.75" y="-151" font-family="Helvetica,sans-Serif" font-size="10.00" fill="grey">&lt; Thumb_MovtPrel &gt;</text>
</g>
<!-- Node10 -->
<g id="Node000010" class="node">
<title>Node10</title>
<g id="a_Node000010"><a xlink:href="structllvm_1_1jitlink_1_1aarch32_1_1FixupInfo_3_01Thumb__MovwAbsNC_01_4.html" target="_top" xlink:title=" ">
<polygon fill="white" stroke="#666666" points="431,-79.5 256.75,-79.5 256.75,-49 431,-49 431,-79.5"/>
<text xml:space="preserve" text-anchor="start" x="264.75" y="-66" font-family="Helvetica,sans-Serif" font-size="10.00">llvm::jitlink::aarch32</text>
<text xml:space="preserve" text-anchor="middle" x="343.88" y="-54.75" font-family="Helvetica,sans-Serif" font-size="10.00">::FixupInfo&lt; Thumb_MovwAbsNC &gt;</text>
</a>
</g>
</g>
<!-- Node1&#45;&gt;Node10 -->
<g id="edge9_Node000001_Node000010" class="edge">
<title>Node1&#45;&gt;Node10</title>
<g id="a_edge9_Node000001_Node000010"><a xlink:title=" ">
<path fill="none" stroke="orange" stroke-dasharray="5,2" d="M57.07,-208.81C64.34,-175.48 81.92,-119.12 121,-91 159.58,-63.24 212.04,-55.92 256.27,-55.84"/>
<polygon fill="orange" stroke="orange" points="53.67,-207.98 55.14,-218.48 60.53,-209.36 53.67,-207.98"/>
</a>
</g>
<text xml:space="preserve" text-anchor="start" x="124" y="-97" font-family="Helvetica,sans-Serif" font-size="10.00" fill="grey">&lt; Thumb_MovwAbsNC &gt;</text>
</g>
<!-- Node11 -->
<g id="Node000011" class="node">
<title>Node11</title>
<g id="a_Node000011"><a xlink:href="structllvm_1_1jitlink_1_1aarch32_1_1FixupInfo_3_01Thumb__MovwPrelNC_01_4.html" target="_top" xlink:title=" ">
<polygon fill="white" stroke="#666666" points="431,-30.5 256.75,-30.5 256.75,0 431,0 431,-30.5"/>
<text xml:space="preserve" text-anchor="start" x="264.75" y="-17" font-family="Helvetica,sans-Serif" font-size="10.00">llvm::jitlink::aarch32</text>
<text xml:space="preserve" text-anchor="middle" x="343.88" y="-5.75" font-family="Helvetica,sans-Serif" font-size="10.00">::FixupInfo&lt; Thumb_MovwPrelNC &gt;</text>
</a>
</g>
</g>
<!-- Node1&#45;&gt;Node11 -->
<g id="edge10_Node000001_Node000011" class="edge">
<title>Node1&#45;&gt;Node11</title>
<g id="a_edge10_Node000001_Node000011"><a xlink:title=" ">
<path fill="none" stroke="orange" stroke-dasharray="5,2" d="M52.98,-208.31C55.37,-164.21 67.08,-77.28 121,-35 158.58,-5.53 211.54,0.1 256.29,-1.96"/>
<polygon fill="orange" stroke="orange" points="49.5,-207.9 52.59,-218.03 56.49,-208.18 49.5,-207.9"/>
</a>
</g>
<text xml:space="preserve" text-anchor="start" x="124" y="-41" font-family="Helvetica,sans-Serif" font-size="10.00" fill="grey">&lt; Thumb_MovwPrelNC &gt;</text>
</g>
</g>
</svg>
