<?xml version="1.0" encoding="UTF-8" standalone="no"?>
<!DOCTYPE svg PUBLIC "-//W3C//DTD SVG 1.1//EN"
 "http://www.w3.org/Graphics/SVG/1.1/DTD/svg11.dtd">
<!-- Generated by graphviz version 14.1.3 (20260303.0454)
 -->
<!-- Title: llvm::isa_impl&lt; To, From, Enabler &gt; Pages: 1 -->
<svg width="409pt" height="769pt"
 viewBox="0.00 0.00 409.00 769.00" xmlns="http://www.w3.org/2000/svg" xmlns:xlink="http://www.w3.org/1999/xlink">
<g id="graph0" class="graph" transform="scale(1 1) rotate(0) translate(4 765.22)">
<title>llvm::isa_impl&lt; To, From, Enabler &gt;</title>
<!-- Node1 -->
<g id="Node000001" class="node">
<title>Node1</title>
<g id="a_Node000001"><a xlink:title=" ">
<polygon fill="#999999" stroke="#666666" points="98.5,-403.31 0,-403.31 0,-372.81 98.5,-372.81 98.5,-403.31"/>
<text xml:space="preserve" text-anchor="start" x="8" y="-389.81" font-family="Helvetica,sans-Serif" font-size="10.00">llvm::isa_impl&lt; To,</text>
<text xml:space="preserve" text-anchor="middle" x="49.25" y="-378.56" font-family="Helvetica,sans-Serif" font-size="10.00"> From, Enabler &gt;</text>
</a>
</g>
</g>
<!-- Node2 -->
<g id="Node000002" class="node">
<title>Node2</title>
<g id="a_Node000002"><a xlink:href="structllvm_1_1isa__impl_3_01Argument_00_01Value_01_4.html" target="_top" xlink:title=" ">
<polygon fill="white" stroke="#666666" points="390.5,-746.31 261.25,-746.31 261.25,-715.81 390.5,-715.81 390.5,-746.31"/>
<text xml:space="preserve" text-anchor="start" x="269.25" y="-732.81" font-family="Helvetica,sans-Serif" font-size="10.00">llvm::isa_impl&lt; Argument,</text>
<text xml:space="preserve" text-anchor="middle" x="325.88" y="-721.56" font-family="Helvetica,sans-Serif" font-size="10.00"> Value &gt;</text>
</a>
</g>
</g>
<!-- Node1&#45;&gt;Node2 -->
<g id="edge1_Node000001_Node000002" class="edge">
<title>Node1&#45;&gt;Node2</title>
<g id="a_edge1_Node000001_Node000002"><a xlink:title=" ">
<path fill="none" stroke="orange" stroke-dasharray="5,2" d="M51.83,-414.9C56.54,-484.76 72.94,-669.59 116.5,-709.06 154.91,-743.87 215.13,-746.74 260.97,-742.44"/>
<polygon fill="orange" stroke="orange" points="55.34,-414.88 51.21,-405.12 48.35,-415.33 55.34,-414.88"/>
</a>
</g>
<text xml:space="preserve" text-anchor="start" x="130" y="-749.97" font-family="Helvetica,sans-Serif" font-size="10.00" fill="grey">&lt; Argument, Value &gt;</text>
</g>
<!-- Node3 -->
<g id="Node000003" class="node">
<title>Node3</title>
<g id="a_Node000003"><a xlink:href="structllvm_1_1isa__impl_3_01BasicBlock_00_01Value_01_4.html" target="_top" xlink:title=" ">
<polygon fill="white" stroke="#666666" points="394.62,-697.31 257.12,-697.31 257.12,-666.81 394.62,-666.81 394.62,-697.31"/>
<text xml:space="preserve" text-anchor="start" x="265.12" y="-683.81" font-family="Helvetica,sans-Serif" font-size="10.00">llvm::isa_impl&lt; BasicBlock,</text>
<text xml:space="preserve" text-anchor="middle" x="325.88" y="-672.56" font-family="Helvetica,sans-Serif" font-size="10.00"> Value &gt;</text>
</a>
</g>
</g>
<!-- Node1&#45;&gt;Node3 -->
<g id="edge2_Node000001_Node000003" class="edge">
<title>Node1&#45;&gt;Node3</title>
<g id="a_edge2_Node000001_Node000003"><a xlink:title=" ">
<path fill="none" stroke="orange" stroke-dasharray="5,2" d="M53.16,-415.07C60.32,-476.16 80.84,-622.13 116.5,-654.06 154.03,-687.65 211.65,-693.16 256.79,-691.11"/>
<polygon fill="orange" stroke="orange" points="56.65,-414.76 52.04,-405.22 49.69,-415.55 56.65,-414.76"/>
</a>
</g>
<text xml:space="preserve" text-anchor="start" x="125.88" y="-697.35" font-family="Helvetica,sans-Serif" font-size="10.00" fill="grey">&lt; BasicBlock, Value &gt;</text>
</g>
<!-- Node4 -->
<g id="Node000004" class="node">
<title>Node4</title>
<g id="a_Node000004"><a xlink:href="structllvm_1_1isa__impl_3_01Constant_00_01Value_01_4.html" target="_top" xlink:title=" ">
<polygon fill="white" stroke="#666666" points="389.75,-648.31 262,-648.31 262,-617.81 389.75,-617.81 389.75,-648.31"/>
<text xml:space="preserve" text-anchor="start" x="270" y="-634.81" font-family="Helvetica,sans-Serif" font-size="10.00">llvm::isa_impl&lt; Constant,</text>
<text xml:space="preserve" text-anchor="middle" x="325.88" y="-623.56" font-family="Helvetica,sans-Serif" font-size="10.00"> Value &gt;</text>
</a>
</g>
</g>
<!-- Node1&#45;&gt;Node4 -->
<g id="edge3_Node000001_Node000004" class="edge">
<title>Node1&#45;&gt;Node4</title>
<g id="a_edge3_Node000001_Node000004"><a xlink:title=" ">
<path fill="none" stroke="orange" stroke-dasharray="5,2" d="M49.42,-414.78C49.55,-462.48 57.36,-561.89 116.5,-611.06 137.97,-628.91 208.61,-633.26 261.73,-633.88"/>
<polygon fill="orange" stroke="orange" points="52.92,-415.11 49.52,-405.08 45.92,-415.04 52.92,-415.11"/>
</a>
</g>
<text xml:space="preserve" text-anchor="start" x="130.75" y="-638.99" font-family="Helvetica,sans-Serif" font-size="10.00" fill="grey">&lt; Constant, Value &gt;</text>
</g>
<!-- Node5 -->
<g id="Node000005" class="node">
<title>Node5</title>
<g id="a_Node000005"><a xlink:href="structllvm_1_1isa__impl_3_01ConstantAggregate_00_01Value_01_4.html" target="_top" xlink:title=" ">
<polygon fill="white" stroke="#666666" points="388.25,-599.31 263.5,-599.31 263.5,-568.81 388.25,-568.81 388.25,-599.31"/>
<text xml:space="preserve" text-anchor="start" x="271.5" y="-585.81" font-family="Helvetica,sans-Serif" font-size="10.00">llvm::isa_impl&lt; Constant</text>
<text xml:space="preserve" text-anchor="middle" x="325.88" y="-574.56" font-family="Helvetica,sans-Serif" font-size="10.00">Aggregate, Value &gt;</text>
</a>
</g>
</g>
<!-- Node1&#45;&gt;Node5 -->
<g id="edge4_Node000001_Node000005" class="edge">
<title>Node1&#45;&gt;Node5</title>
<g id="a_edge4_Node000001_Node000005"><a xlink:title=" ">
<path fill="none" stroke="orange" stroke-dasharray="5,2" d="M52.7,-414.86C57.68,-452.58 72.56,-520.55 116.5,-555.06 127.95,-564.05 206.02,-573.1 263.25,-578.64"/>
<polygon fill="orange" stroke="orange" points="56.21,-414.79 51.58,-405.26 49.26,-415.6 56.21,-414.79"/>
</a>
</g>
<text xml:space="preserve" text-anchor="start" x="126.62" y="-596.22" font-family="Helvetica,sans-Serif" font-size="10.00" fill="grey">&lt; ConstantAggregate,</text>
<text xml:space="preserve" text-anchor="start" x="126.62" y="-580.97" font-family="Helvetica,sans-Serif" font-size="10.00" fill="grey">   Value &gt;</text>
</g>
<!-- Node6 -->
<g id="Node000006" class="node">
<title>Node6</title>
<g id="a_Node000006"><a xlink:href="structllvm_1_1isa__impl_3_01ConstantData_00_01Value_01_4.html" target="_top" xlink:title=" ">
<polygon fill="white" stroke="#666666" points="388.25,-550.31 263.5,-550.31 263.5,-519.81 388.25,-519.81 388.25,-550.31"/>
<text xml:space="preserve" text-anchor="start" x="271.5" y="-536.81" font-family="Helvetica,sans-Serif" font-size="10.00">llvm::isa_impl&lt; Constant</text>
<text xml:space="preserve" text-anchor="middle" x="325.88" y="-525.56" font-family="Helvetica,sans-Serif" font-size="10.00">Data, Value &gt;</text>
</a>
</g>
</g>
<!-- Node1&#45;&gt;Node6 -->
<g id="edge5_Node000001_Node000006" class="edge">
<title>Node1&#45;&gt;Node6</title>
<g id="a_edge5_Node000001_Node000006"><a xlink:title=" ">
<path fill="none" stroke="orange" stroke-dasharray="5,2" d="M58.11,-414.39C67.5,-441 85.9,-481.09 116.5,-502.06 159.41,-531.45 218.82,-538.39 263.24,-538.74"/>
<polygon fill="orange" stroke="orange" points="61.47,-413.4 55,-405 54.82,-415.6 61.47,-413.4"/>
</a>
</g>
<text xml:space="preserve" text-anchor="start" x="120.25" y="-543.09" font-family="Helvetica,sans-Serif" font-size="10.00" fill="grey">&lt; ConstantData, Value &gt;</text>
</g>
<!-- Node7 -->
<g id="Node000007" class="node">
<title>Node7</title>
<g id="a_Node000007"><a xlink:href="structllvm_1_1isa__impl_3_01Function_00_01Value_01_4.html" target="_top" xlink:title=" ">
<polygon fill="white" stroke="#666666" points="388.62,-501.31 263.12,-501.31 263.12,-470.81 388.62,-470.81 388.62,-501.31"/>
<text xml:space="preserve" text-anchor="start" x="271.12" y="-487.81" font-family="Helvetica,sans-Serif" font-size="10.00">llvm::isa_impl&lt; Function,</text>
<text xml:space="preserve" text-anchor="middle" x="325.88" y="-476.56" font-family="Helvetica,sans-Serif" font-size="10.00"> Value &gt;</text>
</a>
</g>
</g>
<!-- Node1&#45;&gt;Node7 -->
<g id="edge6_Node000001_Node000007" class="edge">
<title>Node1&#45;&gt;Node7</title>
<g id="a_edge6_Node000001_Node000007"><a xlink:title=" ">
<path fill="none" stroke="orange" stroke-dasharray="5,2" d="M70.28,-412.28C82.33,-425.22 98.74,-440.26 116.5,-449.06 162.26,-471.73 219.76,-480.69 262.76,-484.14"/>
<polygon fill="orange" stroke="orange" points="72.95,-410.01 63.68,-404.88 67.73,-414.67 72.95,-410.01"/>
</a>
</g>
<text xml:space="preserve" text-anchor="start" x="131.88" y="-486.85" font-family="Helvetica,sans-Serif" font-size="10.00" fill="grey">&lt; Function, Value &gt;</text>
</g>
<!-- Node8 -->
<g id="Node000008" class="node">
<title>Node8</title>
<g id="a_Node000008"><a xlink:href="structllvm_1_1isa__impl_3_01GlobalAlias_00_01Value_01_4.html" target="_top" xlink:title=" ">
<polygon fill="white" stroke="#666666" points="394.62,-452.31 257.12,-452.31 257.12,-421.81 394.62,-421.81 394.62,-452.31"/>
<text xml:space="preserve" text-anchor="start" x="265.12" y="-438.81" font-family="Helvetica,sans-Serif" font-size="10.00">llvm::isa_impl&lt; GlobalAlias,</text>
<text xml:space="preserve" text-anchor="middle" x="325.88" y="-427.56" font-family="Helvetica,sans-Serif" font-size="10.00"> Value &gt;</text>
</a>
</g>
</g>
<!-- Node1&#45;&gt;Node8 -->
<g id="edge7_Node000001_Node000008" class="edge">
<title>Node1&#45;&gt;Node8</title>
<g id="a_edge7_Node000001_Node000008"><a xlink:title=" ">
<path fill="none" stroke="orange" stroke-dasharray="5,2" d="M107.08,-406.77C110.26,-407.59 113.41,-408.36 116.5,-409.06 162.81,-419.42 215.82,-426.48 256.78,-430.92"/>
<polygon fill="orange" stroke="orange" points="108.33,-403.48 97.76,-404.18 106.46,-410.23 108.33,-403.48"/>
</a>
</g>
<text xml:space="preserve" text-anchor="start" x="125.88" y="-433.73" font-family="Helvetica,sans-Serif" font-size="10.00" fill="grey">&lt; GlobalAlias, Value &gt;</text>
</g>
<!-- Node9 -->
<g id="Node000009" class="node">
<title>Node9</title>
<g id="a_Node000009"><a xlink:href="structllvm_1_1isa__impl_3_01GlobalIFunc_00_01Value_01_4.html" target="_top" xlink:title=" ">
<polygon fill="white" stroke="#666666" points="396.12,-403.31 255.62,-403.31 255.62,-372.81 396.12,-372.81 396.12,-403.31"/>
<text xml:space="preserve" text-anchor="start" x="263.62" y="-389.81" font-family="Helvetica,sans-Serif" font-size="10.00">llvm::isa_impl&lt; GlobalIFunc,</text>
<text xml:space="preserve" text-anchor="middle" x="325.88" y="-378.56" font-family="Helvetica,sans-Serif" font-size="10.00"> Value &gt;</text>
</a>
</g>
</g>
<!-- Node1&#45;&gt;Node9 -->
<g id="edge8_Node000001_Node000009" class="edge">
<title>Node1&#45;&gt;Node9</title>
<g id="a_edge8_Node000001_Node000009"><a xlink:title=" ">
<path fill="none" stroke="orange" stroke-dasharray="5,2" d="M110.07,-388.06C152.81,-388.06 210.44,-388.06 255.25,-388.06"/>
<polygon fill="orange" stroke="orange" points="110.23,-384.56 100.23,-388.06 110.23,-391.56 110.23,-384.56"/>
</a>
</g>
<text xml:space="preserve" text-anchor="start" x="124.38" y="-394.06" font-family="Helvetica,sans-Serif" font-size="10.00" fill="grey">&lt; GlobalIFunc, Value &gt;</text>
</g>
<!-- Node10 -->
<g id="Node000010" class="node">
<title>Node10</title>
<g id="a_Node000010"><a xlink:href="structllvm_1_1isa__impl_3_01GlobalObject_00_01Value_01_4.html" target="_top" xlink:title=" ">
<polygon fill="white" stroke="#666666" points="398,-354.31 253.75,-354.31 253.75,-323.81 398,-323.81 398,-354.31"/>
<text xml:space="preserve" text-anchor="start" x="261.75" y="-340.81" font-family="Helvetica,sans-Serif" font-size="10.00">llvm::isa_impl&lt; GlobalObject,</text>
<text xml:space="preserve" text-anchor="middle" x="325.88" y="-329.56" font-family="Helvetica,sans-Serif" font-size="10.00"> Value &gt;</text>
</a>
</g>
</g>
<!-- Node1&#45;&gt;Node10 -->
<g id="edge9_Node000001_Node000010" class="edge">
<title>Node1&#45;&gt;Node10</title>
<g id="a_edge9_Node000001_Node000010"><a xlink:title=" ">
<path fill="none" stroke="orange" stroke-dasharray="5,2" d="M106.41,-369.29C109.81,-368.39 113.19,-367.55 116.5,-366.81 161.54,-356.67 212.95,-349.77 253.43,-345.39"/>
<polygon fill="orange" stroke="orange" points="105.7,-365.85 97.03,-371.93 107.6,-372.59 105.7,-365.85"/>
</a>
</g>
<text xml:space="preserve" text-anchor="start" x="122.5" y="-372.81" font-family="Helvetica,sans-Serif" font-size="10.00" fill="grey">&lt; GlobalObject, Value &gt;</text>
</g>
<!-- Node11 -->
<g id="Node000011" class="node">
<title>Node11</title>
<g id="a_Node000011"><a xlink:href="structllvm_1_1isa__impl_3_01GlobalValue_00_01Value_01_4.html" target="_top" xlink:title=" ">
<polygon fill="white" stroke="#666666" points="395.75,-305.31 256,-305.31 256,-274.81 395.75,-274.81 395.75,-305.31"/>
<text xml:space="preserve" text-anchor="start" x="264" y="-291.81" font-family="Helvetica,sans-Serif" font-size="10.00">llvm::isa_impl&lt; GlobalValue,</text>
<text xml:space="preserve" text-anchor="middle" x="325.88" y="-280.56" font-family="Helvetica,sans-Serif" font-size="10.00"> Value &gt;</text>
</a>
</g>
</g>
<!-- Node1&#45;&gt;Node11 -->
<g id="edge10_Node000001_Node000011" class="edge">
<title>Node1&#45;&gt;Node11</title>
<g id="a_edge10_Node000001_Node000011"><a xlink:title=" ">
<path fill="none" stroke="orange" stroke-dasharray="5,2" d="M70.03,-363.98C82.09,-350.92 98.6,-335.68 116.5,-326.81 159.78,-305.34 213.57,-296.23 255.67,-292.45"/>
<polygon fill="orange" stroke="orange" points="67.44,-361.62 63.43,-371.43 72.68,-366.26 67.44,-361.62"/>
</a>
</g>
<text xml:space="preserve" text-anchor="start" x="124.75" y="-332.81" font-family="Helvetica,sans-Serif" font-size="10.00" fill="grey">&lt; GlobalValue, Value &gt;</text>
</g>
<!-- Node12 -->
<g id="Node000012" class="node">
<title>Node12</title>
<g id="a_Node000012"><a xlink:href="structllvm_1_1isa__impl_3_01GlobalVariable_00_01Value_01_4.html" target="_top" xlink:title=" ">
<polygon fill="white" stroke="#666666" points="401,-256.31 250.75,-256.31 250.75,-225.81 401,-225.81 401,-256.31"/>
<text xml:space="preserve" text-anchor="start" x="258.75" y="-242.81" font-family="Helvetica,sans-Serif" font-size="10.00">llvm::isa_impl&lt; GlobalVariable,</text>
<text xml:space="preserve" text-anchor="middle" x="325.88" y="-231.56" font-family="Helvetica,sans-Serif" font-size="10.00"> Value &gt;</text>
</a>
</g>
</g>
<!-- Node1&#45;&gt;Node12 -->
<g id="edge11_Node000001_Node000012" class="edge">
<title>Node1&#45;&gt;Node12</title>
<g id="a_edge11_Node000001_Node000012"><a xlink:title=" ">
<path fill="none" stroke="orange" stroke-dasharray="5,2" d="M58.09,-361.66C67.46,-334.99 85.85,-294.8 116.5,-273.81 155.47,-247.11 208.08,-239 250.68,-237.53"/>
<polygon fill="orange" stroke="orange" points="54.79,-360.48 54.98,-371.07 61.44,-362.67 54.79,-360.48"/>
</a>
</g>
<text xml:space="preserve" text-anchor="start" x="119.5" y="-279.81" font-family="Helvetica,sans-Serif" font-size="10.00" fill="grey">&lt; GlobalVariable, Value &gt;</text>
</g>
<!-- Node13 -->
<g id="Node000013" class="node">
<title>Node13</title>
<g id="a_Node000013"><a xlink:href="structllvm_1_1isa__impl_3_01InlineAsm_00_01Value_01_4.html" target="_top" xlink:title=" ">
<polygon fill="white" stroke="#666666" points="391.62,-207.31 260.12,-207.31 260.12,-176.81 391.62,-176.81 391.62,-207.31"/>
<text xml:space="preserve" text-anchor="start" x="268.12" y="-193.81" font-family="Helvetica,sans-Serif" font-size="10.00">llvm::isa_impl&lt; InlineAsm,</text>
<text xml:space="preserve" text-anchor="middle" x="325.88" y="-182.56" font-family="Helvetica,sans-Serif" font-size="10.00"> Value &gt;</text>
</a>
</g>
</g>
<!-- Node1&#45;&gt;Node13 -->
<g id="edge12_Node000001_Node000013" class="edge">
<title>Node1&#45;&gt;Node13</title>
<g id="a_edge12_Node000001_Node000013"><a xlink:title=" ">
<path fill="none" stroke="orange" stroke-dasharray="5,2" d="M52.39,-361.23C56.99,-322.81 71.44,-252.87 116.5,-217.81 156.77,-186.46 215.32,-181.7 260.1,-183.82"/>
<polygon fill="orange" stroke="orange" points="48.92,-360.7 51.37,-371.01 55.88,-361.43 48.92,-360.7"/>
</a>
</g>
<text xml:space="preserve" text-anchor="start" x="128.88" y="-223.81" font-family="Helvetica,sans-Serif" font-size="10.00" fill="grey">&lt; InlineAsm, Value &gt;</text>
</g>
<!-- Node14 -->
<g id="Node000014" class="node">
<title>Node14</title>
<g id="a_Node000014"><a xlink:href="structllvm_1_1isa__impl_3_01Instruction_00_01Value_01_4.html" target="_top" xlink:title=" ">
<polygon fill="white" stroke="#666666" points="392.75,-158.31 259,-158.31 259,-127.81 392.75,-127.81 392.75,-158.31"/>
<text xml:space="preserve" text-anchor="start" x="267" y="-144.81" font-family="Helvetica,sans-Serif" font-size="10.00">llvm::isa_impl&lt; Instruction,</text>
<text xml:space="preserve" text-anchor="middle" x="325.88" y="-133.56" font-family="Helvetica,sans-Serif" font-size="10.00"> Value &gt;</text>
</a>
</g>
</g>
<!-- Node1&#45;&gt;Node14 -->
<g id="edge13_Node000001_Node000014" class="edge">
<title>Node1&#45;&gt;Node14</title>
<g id="a_edge13_Node000001_Node000014"><a xlink:title=" ">
<path fill="none" stroke="orange" stroke-dasharray="5,2" d="M54.27,-361.32C63,-307.13 85.41,-187.35 116.5,-161.81 155.51,-129.75 213.59,-126.98 258.53,-131.14"/>
<polygon fill="orange" stroke="orange" points="50.86,-360.5 52.76,-370.92 57.77,-361.58 50.86,-360.5"/>
</a>
</g>
<text xml:space="preserve" text-anchor="start" x="127.75" y="-167.81" font-family="Helvetica,sans-Serif" font-size="10.00" fill="grey">&lt; Instruction, Value &gt;</text>
</g>
<!-- Node15 -->
<g id="Node000015" class="node">
<title>Node15</title>
<g id="a_Node000015"><a xlink:href="structllvm_1_1isa__impl_3_01PointerType_00_01Type_01_4.html" target="_top" xlink:title=" ">
<polygon fill="white" stroke="#666666" points="395.75,-109.31 256,-109.31 256,-78.81 395.75,-78.81 395.75,-109.31"/>
<text xml:space="preserve" text-anchor="start" x="264" y="-95.81" font-family="Helvetica,sans-Serif" font-size="10.00">llvm::isa_impl&lt; PointerType,</text>
<text xml:space="preserve" text-anchor="middle" x="325.88" y="-84.56" font-family="Helvetica,sans-Serif" font-size="10.00"> Type &gt;</text>
</a>
</g>
</g>
<!-- Node1&#45;&gt;Node15 -->
<g id="edge14_Node000001_Node000015" class="edge">
<title>Node1&#45;&gt;Node15</title>
<g id="a_edge14_Node000001_Node000015"><a xlink:title=" ">
<path fill="none" stroke="orange" stroke-dasharray="5,2" d="M52.64,-361.29C58.89,-297.91 77.96,-141.55 116.5,-108.81 154.23,-76.75 210.96,-74.69 255.71,-79.75"/>
<polygon fill="orange" stroke="orange" points="49.16,-360.86 51.7,-371.15 56.13,-361.53 49.16,-360.86"/>
</a>
</g>
<text xml:space="preserve" text-anchor="start" x="126.25" y="-114.81" font-family="Helvetica,sans-Serif" font-size="10.00" fill="grey">&lt; PointerType, Type &gt;</text>
</g>
<!-- Node16 -->
<g id="Node000016" class="node">
<title>Node16</title>
<g id="a_Node000016"><a xlink:href="structllvm_1_1isa__impl_3_01To_00_01From_00_01std_1_1enable__if__t_3_01std_1_1is__base__of__v_3_01To_00_01From_01_4_01_4_01_4.html" target="_top" xlink:title=" ">
<polygon fill="white" stroke="#666666" points="381.12,-54.56 270.62,-54.56 270.62,-1.56 381.12,-1.56 381.12,-54.56"/>
<text xml:space="preserve" text-anchor="start" x="278.62" y="-41.06" font-family="Helvetica,sans-Serif" font-size="10.00">llvm::isa_impl&lt; To,</text>
<text xml:space="preserve" text-anchor="start" x="278.62" y="-29.81" font-family="Helvetica,sans-Serif" font-size="10.00"> From, std::enable_if</text>
<text xml:space="preserve" text-anchor="start" x="278.62" y="-18.56" font-family="Helvetica,sans-Serif" font-size="10.00">_t&lt; std::is_base_of_v</text>
<text xml:space="preserve" text-anchor="middle" x="325.88" y="-7.31" font-family="Helvetica,sans-Serif" font-size="10.00">&lt; To, From &gt; &gt; &gt;</text>
</a>
</g>
</g>
<!-- Node1&#45;&gt;Node16 -->
<g id="edge15_Node000001_Node000016" class="edge">
<title>Node1&#45;&gt;Node16</title>
<g id="a_edge15_Node000001_Node000016"><a xlink:title=" ">
<path fill="none" stroke="orange" stroke-dasharray="5,2" d="M50.92,-361.17C53.43,-284.79 65.05,-69.19 116.5,-26.31 158.74,8.9 224.28,1.68 270.56,-9.99"/>
<polygon fill="orange" stroke="orange" points="47.42,-360.97 50.62,-371.07 54.42,-361.18 47.42,-360.97"/>
</a>
</g>
<text xml:space="preserve" text-anchor="start" x="123.62" y="-62.81" font-family="Helvetica,sans-Serif" font-size="10.00" fill="grey">&lt; To, From, std::enable</text>
<text xml:space="preserve" text-anchor="start" x="123.62" y="-47.56" font-family="Helvetica,sans-Serif" font-size="10.00" fill="grey">  _if_t&lt; std::is_base_of</text>
<text xml:space="preserve" text-anchor="start" x="123.62" y="-32.31" font-family="Helvetica,sans-Serif" font-size="10.00" fill="grey">  _v&lt; To, From &gt; &gt; &gt;</text>
</g>
</g>
</svg>
