<?xml version="1.0" encoding="UTF-8" standalone="no"?>
<!DOCTYPE svg PUBLIC "-//W3C//DTD SVG 1.1//EN"
 "http://www.w3.org/Graphics/SVG/1.1/DTD/svg11.dtd">
<!-- Generated by graphviz version 14.1.3 (20260303.0454)
 -->
<!-- Title: llvm::ConstantAggrKeyType&lt; ConstantClass &gt; Pages: 1 -->
<svg width="413pt" height="137pt"
 viewBox="0.00 0.00 413.00 137.00" xmlns="http://www.w3.org/2000/svg" xmlns:xlink="http://www.w3.org/1999/xlink">
<g id="graph0" class="graph" transform="scale(1 1) rotate(0) translate(4 132.5)">
<title>llvm::ConstantAggrKeyType&lt; ConstantClass &gt;</title>
<!-- Node1 -->
<g id="Node000001" class="node">
<title>Node1</title>
<g id="a_Node000001"><a xlink:title=" ">
<polygon fill="#999999" stroke="#666666" points="138.25,-79.5 0,-79.5 0,-49 138.25,-49 138.25,-79.5"/>
<text xml:space="preserve" text-anchor="start" x="8" y="-66" font-family="Helvetica,sans-Serif" font-size="10.00">llvm::ConstantAggrKeyType</text>
<text xml:space="preserve" text-anchor="middle" x="69.12" y="-54.75" font-family="Helvetica,sans-Serif" font-size="10.00">&lt; ConstantClass &gt;</text>
</a>
</g>
</g>
<!-- Node2 -->
<g id="Node000002" class="node">
<title>Node2</title>
<g id="a_Node000002"><a xlink:href="structllvm_1_1ConstantAggrKeyType.html" target="_top" xlink:title=" ">
<polygon fill="white" stroke="#666666" points="404.75,-128.5 266.5,-128.5 266.5,-98 404.75,-98 404.75,-128.5"/>
<text xml:space="preserve" text-anchor="start" x="274.5" y="-115" font-family="Helvetica,sans-Serif" font-size="10.00">llvm::ConstantAggrKeyType</text>
<text xml:space="preserve" text-anchor="middle" x="335.62" y="-103.75" font-family="Helvetica,sans-Serif" font-size="10.00">&lt; ConstantArray &gt;</text>
</a>
</g>
</g>
<!-- Node1&#45;&gt;Node2 -->
<g id="edge1_Node000001_Node000002" class="edge">
<title>Node1&#45;&gt;Node2</title>
<g id="a_edge1_Node000001_Node000002"><a xlink:title=" ">
<path fill="none" stroke="orange" stroke-dasharray="5,2" d="M142.48,-82.35C147.13,-83.37 151.75,-84.35 156.25,-85.25 192.37,-92.47 232.91,-98.97 266.2,-103.88"/>
<polygon fill="orange" stroke="orange" points="143.62,-79.02 133.09,-80.24 142.08,-85.85 143.62,-79.02"/>
</a>
</g>
<text xml:space="preserve" text-anchor="start" x="161.88" y="-107.2" font-family="Helvetica,sans-Serif" font-size="10.00" fill="grey">&lt; ConstantArray &gt;</text>
</g>
<!-- Node3 -->
<g id="Node000003" class="node">
<title>Node3</title>
<g id="a_Node000003"><a xlink:href="structllvm_1_1ConstantAggrKeyType.html" target="_top" xlink:title=" ">
<polygon fill="white" stroke="#666666" points="404.75,-79.5 266.5,-79.5 266.5,-49 404.75,-49 404.75,-79.5"/>
<text xml:space="preserve" text-anchor="start" x="274.5" y="-66" font-family="Helvetica,sans-Serif" font-size="10.00">llvm::ConstantAggrKeyType</text>
<text xml:space="preserve" text-anchor="middle" x="335.62" y="-54.75" font-family="Helvetica,sans-Serif" font-size="10.00">&lt; ConstantStruct &gt;</text>
</a>
</g>
</g>
<!-- Node1&#45;&gt;Node3 -->
<g id="edge2_Node000001_Node000003" class="edge">
<title>Node1&#45;&gt;Node3</title>
<g id="a_edge2_Node000001_Node000003"><a xlink:title=" ">
<path fill="none" stroke="orange" stroke-dasharray="5,2" d="M149.89,-64.25C187.07,-64.25 230.85,-64.25 266.45,-64.25"/>
<polygon fill="orange" stroke="orange" points="150.1,-60.75 140.1,-64.25 150.1,-67.75 150.1,-60.75"/>
</a>
</g>
<text xml:space="preserve" text-anchor="start" x="160.38" y="-70.25" font-family="Helvetica,sans-Serif" font-size="10.00" fill="grey">&lt; ConstantStruct &gt;</text>
</g>
<!-- Node4 -->
<g id="Node000004" class="node">
<title>Node4</title>
<g id="a_Node000004"><a xlink:href="structllvm_1_1ConstantAggrKeyType.html" target="_top" xlink:title=" ">
<polygon fill="white" stroke="#666666" points="404.75,-30.5 266.5,-30.5 266.5,0 404.75,0 404.75,-30.5"/>
<text xml:space="preserve" text-anchor="start" x="274.5" y="-17" font-family="Helvetica,sans-Serif" font-size="10.00">llvm::ConstantAggrKeyType</text>
<text xml:space="preserve" text-anchor="middle" x="335.62" y="-5.75" font-family="Helvetica,sans-Serif" font-size="10.00">&lt; ConstantVector &gt;</text>
</a>
</g>
</g>
<!-- Node1&#45;&gt;Node4 -->
<g id="edge3_Node000001_Node000004" class="edge">
<title>Node1&#45;&gt;Node4</title>
<g id="a_edge3_Node000001_Node000004"><a xlink:title=" ">
<path fill="none" stroke="orange" stroke-dasharray="5,2" d="M141.55,-46.12C146.51,-45.02 151.45,-43.96 156.25,-43 192.35,-35.75 232.89,-29.31 266.19,-24.46"/>
<polygon fill="orange" stroke="orange" points="141.12,-42.63 132.15,-48.27 142.68,-49.45 141.12,-42.63"/>
</a>
</g>
<text xml:space="preserve" text-anchor="start" x="159.25" y="-49" font-family="Helvetica,sans-Serif" font-size="10.00" fill="grey">&lt; ConstantVector &gt;</text>
</g>
</g>
</svg>
