<?xml version="1.0" encoding="UTF-8" standalone="no"?>
<!DOCTYPE svg PUBLIC "-//W3C//DTD SVG 1.1//EN"
 "http://www.w3.org/Graphics/SVG/1.1/DTD/svg11.dtd">
<!-- Generated by graphviz version 14.1.3 (20260303.0454)
 -->
<!-- Title: llvm::CastInfo&lt; VPIRMetadata, VPRecipeBase * &gt; Pages: 1 -->
<svg width="1242pt" height="154pt"
 viewBox="0.00 0.00 1242.00 154.00" xmlns="http://www.w3.org/2000/svg" xmlns:xlink="http://www.w3.org/1999/xlink">
<g id="graph0" class="graph" transform="scale(1 1) rotate(0) translate(4 150.24)">
<title>llvm::CastInfo&lt; VPIRMetadata, VPRecipeBase * &gt;</title>
<!-- Node1 -->
<g id="Node000001" class="node">
<title>Node1</title>
<g id="a_Node000001"><a xlink:title=" ">
<polygon fill="#999999" stroke="#666666" points="1234.25,-98.5 1080.25,-98.5 1080.25,-68 1234.25,-68 1234.25,-98.5"/>
<text xml:space="preserve" text-anchor="start" x="1088.25" y="-85" font-family="Helvetica,sans-Serif" font-size="10.00">llvm::CastInfo&lt; VPIRMetadata,</text>
<text xml:space="preserve" text-anchor="middle" x="1157.25" y="-73.75" font-family="Helvetica,sans-Serif" font-size="10.00"> VPRecipeBase * &gt;</text>
</a>
</g>
</g>
<!-- Node2 -->
<g id="Node000002" class="node">
<title>Node2</title>
<g id="a_Node000002"><a xlink:href="structllvm_1_1CastIsPossible.html" target="_top" xlink:title=" ">
<polygon fill="white" stroke="#666666" points="570.75,-130.5 392.75,-130.5 392.75,-100 570.75,-100 570.75,-130.5"/>
<text xml:space="preserve" text-anchor="start" x="400.75" y="-117" font-family="Helvetica,sans-Serif" font-size="10.00">llvm::CastIsPossible</text>
<text xml:space="preserve" text-anchor="middle" x="481.75" y="-105.75" font-family="Helvetica,sans-Serif" font-size="10.00">&lt; VPIRMetadata, VPRecipeBase * &gt;</text>
</a>
</g>
</g>
<!-- Node2&#45;&gt;Node1 -->
<g id="edge1_Node000001_Node000002" class="edge">
<title>Node2&#45;&gt;Node1</title>
<g id="a_edge1_Node000001_Node000002"><a xlink:title=" ">
<path fill="none" stroke="#63b8ff" d="M582.19,-116.78C697.88,-117.49 894.46,-115.39 1062.25,-97.25 1067.99,-96.63 1073.92,-95.92 1079.88,-95.15"/>
<polygon fill="#63b8ff" stroke="#63b8ff" points="582.45,-113.28 572.42,-116.71 582.4,-120.28 582.45,-113.28"/>
</a>
</g>
</g>
<!-- Node4 -->
<g id="Node000004" class="node">
<title>Node4</title>
<g id="a_Node000004"><a xlink:href="structllvm_1_1CastInfoVPIRMetadata.html" target="_top" xlink:title=" ">
<polygon fill="white" stroke="#666666" points="914.5,-98.5 736.5,-98.5 736.5,-68 914.5,-68 914.5,-98.5"/>
<text xml:space="preserve" text-anchor="start" x="744.5" y="-85" font-family="Helvetica,sans-Serif" font-size="10.00">llvm::CastInfoVPIRMetadata</text>
<text xml:space="preserve" text-anchor="middle" x="825.5" y="-73.75" font-family="Helvetica,sans-Serif" font-size="10.00">&lt; VPIRMetadata, VPRecipeBase * &gt;</text>
</a>
</g>
</g>
<!-- Node2&#45;&gt;Node4 -->
<g id="edge4_Node000004_Node000002" class="edge">
<title>Node2&#45;&gt;Node4</title>
<g id="a_edge4_Node000004_Node000002"><a xlink:title=" ">
<path fill="none" stroke="#63b8ff" d="M582.39,-105.92C631.04,-101.36 689.07,-95.93 736.12,-91.53"/>
<polygon fill="#63b8ff" stroke="#63b8ff" points="582.34,-102.41 572.71,-106.83 582.99,-109.38 582.34,-102.41"/>
</a>
</g>
</g>
<!-- Node3 -->
<g id="Node000003" class="node">
<title>Node3</title>
<g id="a_Node000003"><a xlink:href="structllvm_1_1CastIsPossible.html" target="_top" xlink:title="This struct provides a way to check if a given cast is possible.">
<polygon fill="white" stroke="#666666" points="109,-105.5 0,-105.5 0,-75 109,-75 109,-105.5"/>
<text xml:space="preserve" text-anchor="start" x="8" y="-92" font-family="Helvetica,sans-Serif" font-size="10.00">llvm::CastIsPossible</text>
<text xml:space="preserve" text-anchor="middle" x="54.5" y="-80.75" font-family="Helvetica,sans-Serif" font-size="10.00">&lt; To, From, Enable &gt;</text>
</a>
</g>
</g>
<!-- Node3&#45;&gt;Node2 -->
<g id="edge2_Node000002_Node000003" class="edge">
<title>Node3&#45;&gt;Node2</title>
<g id="a_edge2_Node000002_Node000003"><a xlink:title=" ">
<path fill="none" stroke="orange" stroke-dasharray="5,2" d="M120.72,-100.6C122.84,-100.83 124.93,-101.05 127,-101.25 217.24,-109.95 320.93,-113.27 392.61,-114.53"/>
<polygon fill="orange" stroke="orange" points="121.15,-97.12 110.8,-99.38 120.3,-104.07 121.15,-97.12"/>
</a>
</g>
<text xml:space="preserve" text-anchor="start" x="229" y="-134.99" font-family="Helvetica,sans-Serif" font-size="10.00" fill="grey">&lt; VPIRMetadata, VPRecipe</text>
<text xml:space="preserve" text-anchor="start" x="229" y="-119.74" font-family="Helvetica,sans-Serif" font-size="10.00" fill="grey">  Base * &gt;</text>
</g>
<!-- Node6 -->
<g id="Node000006" class="node">
<title>Node6</title>
<g id="a_Node000006"><a xlink:href="structllvm_1_1CastIsPossible.html" target="_top" xlink:title=" ">
<polygon fill="white" stroke="#666666" points="344.25,-79.5 237.5,-79.5 237.5,-49 344.25,-49 344.25,-79.5"/>
<text xml:space="preserve" text-anchor="start" x="245.5" y="-66" font-family="Helvetica,sans-Serif" font-size="10.00">llvm::CastIsPossible</text>
<text xml:space="preserve" text-anchor="middle" x="290.88" y="-54.75" font-family="Helvetica,sans-Serif" font-size="10.00">&lt; DstTy, SrcTy &gt;</text>
</a>
</g>
</g>
<!-- Node3&#45;&gt;Node6 -->
<g id="edge7_Node000006_Node000003" class="edge">
<title>Node3&#45;&gt;Node6</title>
<g id="a_edge7_Node000006_Node000003"><a xlink:title=" ">
<path fill="none" stroke="orange" stroke-dasharray="5,2" d="M120.39,-83.05C157.17,-78.97 202.6,-73.93 237.16,-70.1"/>
<polygon fill="orange" stroke="orange" points="120.33,-79.54 110.77,-84.12 121.1,-86.49 120.33,-79.54"/>
</a>
</g>
<text xml:space="preserve" text-anchor="start" x="130" y="-87.84" font-family="Helvetica,sans-Serif" font-size="10.00" fill="grey">&lt; DstTy, SrcTy &gt;</text>
</g>
<!-- Node4&#45;&gt;Node1 -->
<g id="edge3_Node000001_Node000004" class="edge">
<title>Node4&#45;&gt;Node1</title>
<g id="a_edge3_Node000001_Node000004"><a xlink:title=" ">
<path fill="none" stroke="#63b8ff" d="M926.22,-83.25C975.59,-83.25 1034.25,-83.25 1079.97,-83.25"/>
<polygon fill="#63b8ff" stroke="#63b8ff" points="926.38,-79.75 916.38,-83.25 926.38,-86.75 926.38,-79.75"/>
</a>
</g>
</g>
<!-- Node5 -->
<g id="Node000005" class="node">
<title>Node5</title>
<g id="a_Node000005"><a xlink:href="structllvm_1_1CastInfoVPIRMetadata.html" target="_top" xlink:title="Support casting from VPRecipeBase &#45;&gt; VPIRMetadata, by down&#45;casting to the recipe types implementing V...">
<polygon fill="white" stroke="#666666" points="552.75,-79.5 410.75,-79.5 410.75,-49 552.75,-49 552.75,-79.5"/>
<text xml:space="preserve" text-anchor="start" x="418.75" y="-66" font-family="Helvetica,sans-Serif" font-size="10.00">llvm::CastInfoVPIRMetadata</text>
<text xml:space="preserve" text-anchor="middle" x="481.75" y="-54.75" font-family="Helvetica,sans-Serif" font-size="10.00">&lt; DstTy, SrcTy &gt;</text>
</a>
</g>
</g>
<!-- Node5&#45;&gt;Node4 -->
<g id="edge5_Node000004_Node000005" class="edge">
<title>Node5&#45;&gt;Node4</title>
<g id="a_edge5_Node000004_Node000005"><a xlink:title=" ">
<path fill="none" stroke="orange" stroke-dasharray="5,2" d="M564.43,-56.18C609.93,-53.14 667.52,-51.7 718.5,-57.75 735.42,-59.76 753.54,-63.5 769.93,-67.52"/>
<polygon fill="orange" stroke="orange" points="564.37,-52.67 554.65,-56.87 564.87,-59.66 564.37,-52.67"/>
</a>
</g>
<text xml:space="preserve" text-anchor="start" x="591.75" y="-79" font-family="Helvetica,sans-Serif" font-size="10.00" fill="grey">&lt; VPIRMetadata, VPRecipe</text>
<text xml:space="preserve" text-anchor="start" x="591.75" y="-63.75" font-family="Helvetica,sans-Serif" font-size="10.00" fill="grey">  Base * &gt;</text>
</g>
<!-- Node6&#45;&gt;Node5 -->
<g id="edge6_Node000005_Node000006" class="edge">
<title>Node6&#45;&gt;Node5</title>
<g id="a_edge6_Node000005_Node000006"><a xlink:title=" ">
<path fill="none" stroke="#63b8ff" d="M356.02,-64.25C373.58,-64.25 392.71,-64.25 410.58,-64.25"/>
<polygon fill="#63b8ff" stroke="#63b8ff" points="356.25,-60.75 346.25,-64.25 356.25,-67.75 356.25,-60.75"/>
</a>
</g>
</g>
<!-- Node7 -->
<g id="Node000007" class="node">
<title>Node7</title>
<g id="a_Node000007"><a xlink:href="structllvm_1_1CastInfo.html" target="_top" xlink:title="This struct provides a method for customizing the way a cast is performed.">
<polygon fill="white" stroke="#666666" points="875.5,-42.5 775.5,-42.5 775.5,-12 875.5,-12 875.5,-42.5"/>
<text xml:space="preserve" text-anchor="start" x="783.5" y="-29" font-family="Helvetica,sans-Serif" font-size="10.00">llvm::CastInfo&lt; To,</text>
<text xml:space="preserve" text-anchor="middle" x="825.5" y="-17.75" font-family="Helvetica,sans-Serif" font-size="10.00"> From, Enable &gt;</text>
</a>
</g>
</g>
<!-- Node7&#45;&gt;Node1 -->
<g id="edge8_Node000001_Node000007" class="edge">
<title>Node7&#45;&gt;Node1</title>
<g id="a_edge8_Node000001_Node000007"><a xlink:title=" ">
<path fill="none" stroke="orange" stroke-dasharray="5,2" d="M887.35,-27.5C935.39,-28.84 1003.83,-33.29 1062.25,-46.75 1083.06,-51.55 1105.39,-60.06 1123.05,-67.66"/>
<polygon fill="orange" stroke="orange" points="887.49,-24 877.41,-27.27 887.32,-31 887.49,-24"/>
</a>
</g>
<text xml:space="preserve" text-anchor="start" x="935.5" y="-68" font-family="Helvetica,sans-Serif" font-size="10.00" fill="grey">&lt; VPIRMetadata, VPRecipe</text>
<text xml:space="preserve" text-anchor="start" x="935.5" y="-52.75" font-family="Helvetica,sans-Serif" font-size="10.00" fill="grey">  Base * &gt;</text>
</g>
<!-- Node8 -->
<g id="Node000008" class="node">
<title>Node8</title>
<g id="a_Node000008"><a xlink:href="structllvm_1_1CastIsPossible.html" target="_top" xlink:title="This struct provides a way to check if a given cast is possible.">
<polygon fill="white" stroke="#666666" points="536.25,-30.5 427.25,-30.5 427.25,0 536.25,0 536.25,-30.5"/>
<text xml:space="preserve" text-anchor="start" x="435.25" y="-17" font-family="Helvetica,sans-Serif" font-size="10.00">llvm::CastIsPossible</text>
<text xml:space="preserve" text-anchor="middle" x="481.75" y="-5.75" font-family="Helvetica,sans-Serif" font-size="10.00">&lt; To, From, Enable &gt;</text>
</a>
</g>
</g>
<!-- Node8&#45;&gt;Node7 -->
<g id="edge9_Node000007_Node000008" class="edge">
<title>Node8&#45;&gt;Node7</title>
<g id="a_edge9_Node000007_Node000008"><a xlink:title=" ">
<path fill="none" stroke="#63b8ff" d="M547.65,-17.53C613.9,-19.86 715.25,-23.41 775.2,-25.52"/>
<polygon fill="#63b8ff" stroke="#63b8ff" points="548.15,-14.04 538.04,-17.19 547.91,-21.04 548.15,-14.04"/>
</a>
</g>
</g>
</g>
</svg>
