<?xml version="1.0" encoding="UTF-8" standalone="no"?>
<!DOCTYPE svg PUBLIC "-//W3C//DTD SVG 1.1//EN"
 "http://www.w3.org/Graphics/SVG/1.1/DTD/svg11.dtd">
<!-- Generated by graphviz version 14.1.3 (20260303.0454)
 -->
<!-- Title: llvm::Bitfield::Element&lt; T, Offset, Size, MaxValue &gt; Pages: 1 -->
<svg width="528pt" height="1078pt"
 viewBox="0.00 0.00 528.00 1078.00" xmlns="http://www.w3.org/2000/svg" xmlns:xlink="http://www.w3.org/1999/xlink">
<g id="graph0" class="graph" transform="scale(1 1) rotate(0) translate(4 1074.23)">
<title>llvm::Bitfield::Element&lt; T, Offset, Size, MaxValue &gt;</title>
<!-- Node1 -->
<g id="Node000001" class="node">
<title>Node1</title>
<g id="a_Node000001"><a xlink:title="Describes an element of a Bitfield.">
<polygon fill="#999999" stroke="#666666" points="145.75,-534.64 0,-534.64 0,-504.14 145.75,-504.14 145.75,-534.64"/>
<text xml:space="preserve" text-anchor="start" x="8" y="-521.14" font-family="Helvetica,sans-Serif" font-size="10.00">llvm::Bitfield::Element</text>
<text xml:space="preserve" text-anchor="middle" x="72.88" y="-509.89" font-family="Helvetica,sans-Serif" font-size="10.00">&lt; T, Offset, Size, MaxValue &gt;</text>
</a>
</g>
</g>
<!-- Node2 -->
<g id="Node000002" class="node">
<title>Node2</title>
<g id="a_Node000002"><a xlink:href="structllvm_1_1Bitfield_1_1Element.html" target="_top" xlink:title=" ">
<polygon fill="white" stroke="#666666" points="478.25,-1049.64 366.25,-1049.64 366.25,-1019.14 478.25,-1019.14 478.25,-1049.64"/>
<text xml:space="preserve" text-anchor="start" x="374.25" y="-1036.14" font-family="Helvetica,sans-Serif" font-size="10.00">llvm::Bitfield::Element</text>
<text xml:space="preserve" text-anchor="middle" x="422.25" y="-1024.89" font-family="Helvetica,sans-Serif" font-size="10.00">&lt; unsigned, 0, 5 &gt;</text>
</a>
</g>
</g>
<!-- Node1&#45;&gt;Node2 -->
<g id="edge1_Node000001_Node000002" class="edge">
<title>Node1&#45;&gt;Node2</title>
<g id="a_edge1_Node000001_Node000002"><a xlink:title=" ">
<path fill="none" stroke="orange" stroke-dasharray="5,2" d="M74.67,-546.35C78.04,-639.87 94.3,-948.03 163.75,-1011.39 217.96,-1060.85 307.96,-1056.51 365.92,-1046.92"/>
<polygon fill="orange" stroke="orange" points="78.18,-546.49 74.35,-536.61 71.18,-546.72 78.18,-546.49"/>
</a>
</g>
<text xml:space="preserve" text-anchor="start" x="195.25" y="-1058.98" font-family="Helvetica,sans-Serif" font-size="10.00" fill="grey">&lt; unsigned, 0, 5 &gt;</text>
</g>
<!-- Node3 -->
<g id="Node000003" class="node">
<title>Node3</title>
<g id="a_Node000003"><a xlink:href="structllvm_1_1Bitfield_1_1Element.html" target="_top" xlink:title=" ">
<polygon fill="white" stroke="#666666" points="500,-993.64 344.5,-993.64 344.5,-963.14 500,-963.14 500,-993.64"/>
<text xml:space="preserve" text-anchor="start" x="352.5" y="-980.14" font-family="Helvetica,sans-Serif" font-size="10.00">llvm::Bitfield::Element</text>
<text xml:space="preserve" text-anchor="middle" x="422.25" y="-968.89" font-family="Helvetica,sans-Serif" font-size="10.00">&lt; bool, AlignLower::NextBit, 1 &gt;</text>
</a>
</g>
</g>
<!-- Node1&#45;&gt;Node3 -->
<g id="edge2_Node000001_Node000003" class="edge">
<title>Node1&#45;&gt;Node3</title>
<g id="a_edge2_Node000001_Node000003"><a xlink:title=" ">
<path fill="none" stroke="orange" stroke-dasharray="5,2" d="M75.34,-546.4C80.62,-633.01 101.81,-901.34 163.75,-956.39 177.08,-968.24 273.18,-973.86 344.1,-976.41"/>
<polygon fill="orange" stroke="orange" points="78.84,-546.28 74.76,-536.5 71.85,-546.69 78.84,-546.28"/>
</a>
</g>
<text xml:space="preserve" text-anchor="start" x="194.88" y="-995.79" font-family="Helvetica,sans-Serif" font-size="10.00" fill="grey">&lt; bool, AlignLower</text>
<text xml:space="preserve" text-anchor="start" x="194.88" y="-980.54" font-family="Helvetica,sans-Serif" font-size="10.00" fill="grey">  ::NextBit, 1 &gt;</text>
</g>
<!-- Node4 -->
<g id="Node000004" class="node">
<title>Node4</title>
<g id="a_Node000004"><a xlink:href="structllvm_1_1Bitfield_1_1Element.html" target="_top" xlink:title=" ">
<polygon fill="white" stroke="#666666" points="486.12,-945.27 358.38,-945.27 358.38,-903.52 486.12,-903.52 486.12,-945.27"/>
<text xml:space="preserve" text-anchor="start" x="366.38" y="-931.77" font-family="Helvetica,sans-Serif" font-size="10.00">llvm::Bitfield::Element</text>
<text xml:space="preserve" text-anchor="start" x="366.38" y="-920.52" font-family="Helvetica,sans-Serif" font-size="10.00">&lt; bool, UsedWithInAlloca</text>
<text xml:space="preserve" text-anchor="middle" x="422.25" y="-909.27" font-family="Helvetica,sans-Serif" font-size="10.00">::NextBit, 1 &gt;</text>
</a>
</g>
</g>
<!-- Node1&#45;&gt;Node4 -->
<g id="edge3_Node000001_Node000004" class="edge">
<title>Node1&#45;&gt;Node4</title>
<g id="a_edge3_Node000001_Node000004"><a xlink:title=" ">
<path fill="none" stroke="orange" stroke-dasharray="5,2" d="M76.19,-545.98C83.63,-624.58 109.61,-853.28 163.75,-900.39 178.12,-912.9 286.65,-919.37 358.15,-922.31"/>
<polygon fill="orange" stroke="orange" points="79.7,-545.85 75.3,-536.21 72.73,-546.49 79.7,-545.85"/>
</a>
</g>
<text xml:space="preserve" text-anchor="start" x="179.12" y="-940.71" font-family="Helvetica,sans-Serif" font-size="10.00" fill="grey">&lt; bool, UsedWithInAlloca</text>
<text xml:space="preserve" text-anchor="start" x="179.12" y="-925.46" font-family="Helvetica,sans-Serif" font-size="10.00" fill="grey">  ::NextBit, 1 &gt;</text>
</g>
<!-- Node5 -->
<g id="Node000005" class="node">
<title>Node5</title>
<g id="a_Node000005"><a xlink:href="structllvm_1_1Bitfield_1_1Element.html" target="_top" xlink:title=" ">
<polygon fill="white" stroke="#666666" points="478.25,-885.27 366.25,-885.27 366.25,-843.52 478.25,-843.52 478.25,-885.27"/>
<text xml:space="preserve" text-anchor="start" x="374.25" y="-871.77" font-family="Helvetica,sans-Serif" font-size="10.00">llvm::Bitfield::Element</text>
<text xml:space="preserve" text-anchor="start" x="374.25" y="-860.52" font-family="Helvetica,sans-Serif" font-size="10.00">&lt; bool, ExplicitType::</text>
<text xml:space="preserve" text-anchor="middle" x="422.25" y="-849.27" font-family="Helvetica,sans-Serif" font-size="10.00">NextBit, 1 &gt;</text>
</a>
</g>
</g>
<!-- Node1&#45;&gt;Node5 -->
<g id="edge4_Node000001_Node000005" class="edge">
<title>Node1&#45;&gt;Node5</title>
<g id="a_edge4_Node000001_Node000005"><a xlink:title=" ">
<path fill="none" stroke="orange" stroke-dasharray="5,2" d="M77.39,-546.11C87.23,-616.44 117.37,-803.93 163.75,-842.39 193.45,-867.02 299.48,-868.49 365.87,-866.79"/>
<polygon fill="orange" stroke="orange" points="80.92,-546.06 76.1,-536.63 73.98,-547.01 80.92,-546.06"/>
</a>
</g>
<text xml:space="preserve" text-anchor="start" x="191.88" y="-888.25" font-family="Helvetica,sans-Serif" font-size="10.00" fill="grey">&lt; bool, ExplicitType</text>
<text xml:space="preserve" text-anchor="start" x="191.88" y="-873" font-family="Helvetica,sans-Serif" font-size="10.00" fill="grey">  ::NextBit, 1 &gt;</text>
</g>
<!-- Node6 -->
<g id="Node000006" class="node">
<title>Node6</title>
<g id="a_Node000006"><a xlink:href="structllvm_1_1Bitfield_1_1Element.html" target="_top" xlink:title=" ">
<polygon fill="white" stroke="#666666" points="479,-825.27 365.5,-825.27 365.5,-783.52 479,-783.52 479,-825.27"/>
<text xml:space="preserve" text-anchor="start" x="373.5" y="-811.77" font-family="Helvetica,sans-Serif" font-size="10.00">llvm::Bitfield::Element</text>
<text xml:space="preserve" text-anchor="start" x="373.5" y="-800.52" font-family="Helvetica,sans-Serif" font-size="10.00">&lt; unsigned, SwiftError</text>
<text xml:space="preserve" text-anchor="middle" x="422.25" y="-789.27" font-family="Helvetica,sans-Serif" font-size="10.00">::NextBit, 3 &gt;</text>
</a>
</g>
</g>
<!-- Node1&#45;&gt;Node6 -->
<g id="edge5_Node000001_Node000006" class="edge">
<title>Node1&#45;&gt;Node6</title>
<g id="a_edge5_Node000001_Node000006"><a xlink:title=" ">
<path fill="none" stroke="orange" stroke-dasharray="5,2" d="M74.1,-546.57C76.17,-601.24 89.33,-724.23 163.75,-782.39 194.02,-806.05 299.02,-807.9 365.22,-806.53"/>
<polygon fill="orange" stroke="orange" points="77.6,-546.52 73.83,-536.61 70.6,-546.7 77.6,-546.52"/>
</a>
</g>
<text xml:space="preserve" text-anchor="start" x="186.25" y="-827.75" font-family="Helvetica,sans-Serif" font-size="10.00" fill="grey">&lt; unsigned, SwiftError</text>
<text xml:space="preserve" text-anchor="start" x="186.25" y="-812.5" font-family="Helvetica,sans-Serif" font-size="10.00" fill="grey">  ::NextBit, 3 &gt;</text>
</g>
<!-- Node7 -->
<g id="Node000007" class="node">
<title>Node7</title>
<g id="a_Node000007"><a xlink:href="structllvm_1_1Bitfield_1_1Element.html" target="_top" xlink:title=" ">
<polygon fill="white" stroke="#666666" points="486.88,-765.64 357.62,-765.64 357.62,-735.14 486.88,-735.14 486.88,-765.64"/>
<text xml:space="preserve" text-anchor="start" x="365.62" y="-752.14" font-family="Helvetica,sans-Serif" font-size="10.00">llvm::Bitfield::Element</text>
<text xml:space="preserve" text-anchor="middle" x="422.25" y="-740.89" font-family="Helvetica,sans-Serif" font-size="10.00">&lt; Kind, 0, 3, Kind::Func &gt;</text>
</a>
</g>
</g>
<!-- Node1&#45;&gt;Node7 -->
<g id="edge6_Node000001_Node000007" class="edge">
<title>Node1&#45;&gt;Node7</title>
<g id="a_edge6_Node000001_Node000007"><a xlink:title=" ">
<path fill="none" stroke="orange" stroke-dasharray="5,2" d="M77.27,-546.47C84.44,-591.22 105.58,-679.88 163.75,-722.39 193.57,-744.18 291.12,-749.54 357.22,-750.58"/>
<polygon fill="orange" stroke="orange" points="80.73,-545.97 75.82,-536.58 73.81,-546.98 80.73,-545.97"/>
</a>
</g>
<text xml:space="preserve" text-anchor="start" x="196.75" y="-770.03" font-family="Helvetica,sans-Serif" font-size="10.00" fill="grey">&lt; Kind, 0, 3, Kind</text>
<text xml:space="preserve" text-anchor="start" x="196.75" y="-754.78" font-family="Helvetica,sans-Serif" font-size="10.00" fill="grey">  ::Func &gt;</text>
</g>
<!-- Node8 -->
<g id="Node000008" class="node">
<title>Node8</title>
<g id="a_Node000008"><a xlink:href="structllvm_1_1Bitfield_1_1Element.html" target="_top" xlink:title=" ">
<polygon fill="white" stroke="#666666" points="478.25,-716.64 366.25,-716.64 366.25,-686.14 478.25,-686.14 478.25,-716.64"/>
<text xml:space="preserve" text-anchor="start" x="374.25" y="-703.14" font-family="Helvetica,sans-Serif" font-size="10.00">llvm::Bitfield::Element</text>
<text xml:space="preserve" text-anchor="middle" x="422.25" y="-691.89" font-family="Helvetica,sans-Serif" font-size="10.00">&lt; unsigned, 3, 13 &gt;</text>
</a>
</g>
</g>
<!-- Node1&#45;&gt;Node8 -->
<g id="edge7_Node000001_Node000008" class="edge">
<title>Node1&#45;&gt;Node8</title>
<g id="a_edge7_Node000001_Node000008"><a xlink:title=" ">
<path fill="none" stroke="orange" stroke-dasharray="5,2" d="M80.56,-545.56C91.35,-581.96 116.38,-646.81 163.75,-677.39 196.05,-698.24 300.36,-701.94 365.89,-702.1"/>
<polygon fill="orange" stroke="orange" points="84.02,-544.96 77.95,-536.28 77.29,-546.86 84.02,-544.96"/>
</a>
</g>
<text xml:space="preserve" text-anchor="start" x="192.62" y="-706.81" font-family="Helvetica,sans-Serif" font-size="10.00" fill="grey">&lt; unsigned, 3, 13 &gt;</text>
</g>
<!-- Node9 -->
<g id="Node000009" class="node">
<title>Node9</title>
<g id="a_Node000009"><a xlink:href="structllvm_1_1Bitfield_1_1Element.html" target="_top" xlink:title=" ">
<polygon fill="white" stroke="#666666" points="478.25,-667.64 366.25,-667.64 366.25,-637.14 478.25,-637.14 478.25,-667.64"/>
<text xml:space="preserve" text-anchor="start" x="374.25" y="-654.14" font-family="Helvetica,sans-Serif" font-size="10.00">llvm::Bitfield::Element</text>
<text xml:space="preserve" text-anchor="middle" x="422.25" y="-642.89" font-family="Helvetica,sans-Serif" font-size="10.00">&lt; unsigned, 16, 15 &gt;</text>
</a>
</g>
</g>
<!-- Node1&#45;&gt;Node9 -->
<g id="edge8_Node000001_Node000009" class="edge">
<title>Node1&#45;&gt;Node9</title>
<g id="a_edge8_Node000001_Node000009"><a xlink:title=" ">
<path fill="none" stroke="orange" stroke-dasharray="5,2" d="M88.43,-544.59C103.83,-568.7 130.48,-603.9 163.75,-621.39 227.22,-654.77 311.37,-658.61 365.91,-656.76"/>
<polygon fill="orange" stroke="orange" points="91.55,-542.99 83.33,-536.31 85.59,-546.66 91.55,-542.99"/>
</a>
</g>
<text xml:space="preserve" text-anchor="start" x="190" y="-661.94" font-family="Helvetica,sans-Serif" font-size="10.00" fill="grey">&lt; unsigned, 16, 15 &gt;</text>
</g>
<!-- Node10 -->
<g id="Node000010" class="node">
<title>Node10</title>
<g id="a_Node000010"><a xlink:href="structllvm_1_1Bitfield_1_1Element.html" target="_top" xlink:title=" ">
<polygon fill="white" stroke="#666666" points="491,-619.27 353.5,-619.27 353.5,-577.52 491,-577.52 491,-619.27"/>
<text xml:space="preserve" text-anchor="start" x="361.5" y="-605.77" font-family="Helvetica,sans-Serif" font-size="10.00">llvm::Bitfield::Element</text>
<text xml:space="preserve" text-anchor="start" x="361.5" y="-594.52" font-family="Helvetica,sans-Serif" font-size="10.00">&lt; ConstraintCode, 16,</text>
<text xml:space="preserve" text-anchor="middle" x="422.25" y="-583.27" font-family="Helvetica,sans-Serif" font-size="10.00"> 15, ConstraintCode::Max &gt;</text>
</a>
</g>
</g>
<!-- Node1&#45;&gt;Node10 -->
<g id="edge9_Node000001_Node000010" class="edge">
<title>Node1&#45;&gt;Node10</title>
<g id="a_edge9_Node000001_Node000010"><a xlink:title=" ">
<path fill="none" stroke="orange" stroke-dasharray="5,2" d="M117.16,-539.55C131.71,-545.7 148.2,-551.99 163.75,-556.39 226.72,-574.23 300.65,-585.31 353.1,-591.58"/>
<polygon fill="orange" stroke="orange" points="118.9,-536.5 108.33,-535.74 116.12,-542.92 118.9,-536.5"/>
</a>
</g>
<text xml:space="preserve" text-anchor="start" x="171.25" y="-606.08" font-family="Helvetica,sans-Serif" font-size="10.00" fill="grey">&lt; ConstraintCode, 16,</text>
<text xml:space="preserve" text-anchor="start" x="171.25" y="-590.83" font-family="Helvetica,sans-Serif" font-size="10.00" fill="grey">   15, ConstraintCode::Max &gt;</text>
</g>
<!-- Node11 -->
<g id="Node000011" class="node">
<title>Node11</title>
<g id="a_Node000011"><a xlink:href="structllvm_1_1Bitfield_1_1Element.html" target="_top" xlink:title=" ">
<polygon fill="white" stroke="#666666" points="478.25,-559.64 366.25,-559.64 366.25,-529.14 478.25,-529.14 478.25,-559.64"/>
<text xml:space="preserve" text-anchor="start" x="374.25" y="-546.14" font-family="Helvetica,sans-Serif" font-size="10.00">llvm::Bitfield::Element</text>
<text xml:space="preserve" text-anchor="middle" x="422.25" y="-534.89" font-family="Helvetica,sans-Serif" font-size="10.00">&lt; unsigned, 16, 14 &gt;</text>
</a>
</g>
</g>
<!-- Node1&#45;&gt;Node11 -->
<g id="edge10_Node000001_Node000011" class="edge">
<title>Node1&#45;&gt;Node11</title>
<g id="a_edge10_Node000001_Node000011"><a xlink:title=" ">
<path fill="none" stroke="orange" stroke-dasharray="5,2" d="M157.23,-525.39C221.89,-530.04 309.68,-536.36 365.91,-540.41"/>
<polygon fill="orange" stroke="orange" points="157.59,-521.91 147.36,-524.68 157.08,-528.89 157.59,-521.91"/>
</a>
</g>
<text xml:space="preserve" text-anchor="start" x="190" y="-541.59" font-family="Helvetica,sans-Serif" font-size="10.00" fill="grey">&lt; unsigned, 16, 14 &gt;</text>
</g>
<!-- Node12 -->
<g id="Node000012" class="node">
<title>Node12</title>
<g id="a_Node000012"><a xlink:href="structllvm_1_1Bitfield_1_1Element.html" target="_top" xlink:title=" ">
<polygon fill="white" stroke="#666666" points="478.25,-510.64 366.25,-510.64 366.25,-480.14 478.25,-480.14 478.25,-510.64"/>
<text xml:space="preserve" text-anchor="start" x="374.25" y="-497.14" font-family="Helvetica,sans-Serif" font-size="10.00">llvm::Bitfield::Element</text>
<text xml:space="preserve" text-anchor="middle" x="422.25" y="-485.89" font-family="Helvetica,sans-Serif" font-size="10.00">&lt; bool, 30, 1 &gt;</text>
</a>
</g>
</g>
<!-- Node1&#45;&gt;Node12 -->
<g id="edge11_Node000001_Node000012" class="edge">
<title>Node1&#45;&gt;Node12</title>
<g id="a_edge11_Node000001_Node000012"><a xlink:title=" ">
<path fill="none" stroke="orange" stroke-dasharray="5,2" d="M157.13,-505.83C159.36,-505.59 161.57,-505.35 163.75,-505.14 233.21,-498.34 313.63,-496.21 365.87,-495.58"/>
<polygon fill="orange" stroke="orange" points="156.9,-502.34 147.39,-507.01 157.74,-509.29 156.9,-502.34"/>
</a>
</g>
<text xml:space="preserve" text-anchor="start" x="203.12" y="-511.14" font-family="Helvetica,sans-Serif" font-size="10.00" fill="grey">&lt; bool, 30, 1 &gt;</text>
</g>
<!-- Node13 -->
<g id="Node000013" class="node">
<title>Node13</title>
<g id="a_Node000013"><a xlink:href="structllvm_1_1Bitfield_1_1Element.html" target="_top" xlink:title=" ">
<polygon fill="white" stroke="#666666" points="478.25,-461.64 366.25,-461.64 366.25,-431.14 478.25,-431.14 478.25,-461.64"/>
<text xml:space="preserve" text-anchor="start" x="374.25" y="-448.14" font-family="Helvetica,sans-Serif" font-size="10.00">llvm::Bitfield::Element</text>
<text xml:space="preserve" text-anchor="middle" x="422.25" y="-436.89" font-family="Helvetica,sans-Serif" font-size="10.00">&lt; bool, 31, 1 &gt;</text>
</a>
</g>
</g>
<!-- Node1&#45;&gt;Node13 -->
<g id="edge12_Node000001_Node000013" class="edge">
<title>Node1&#45;&gt;Node13</title>
<g id="a_edge12_Node000001_Node000013"><a xlink:title=" ">
<path fill="none" stroke="orange" stroke-dasharray="5,2" d="M109.64,-498.23C125.67,-489.69 145.13,-480.58 163.75,-475.14 231.54,-455.33 313.03,-449 365.92,-447.07"/>
<polygon fill="orange" stroke="orange" points="108.05,-495.1 100.97,-502.98 111.42,-501.24 108.05,-495.1"/>
</a>
</g>
<text xml:space="preserve" text-anchor="start" x="203.12" y="-481.14" font-family="Helvetica,sans-Serif" font-size="10.00" fill="grey">&lt; bool, 31, 1 &gt;</text>
</g>
<!-- Node14 -->
<g id="Node000014" class="node">
<title>Node14</title>
<g id="a_Node000014"><a xlink:href="structllvm_1_1Bitfield_1_1Element.html" target="_top" xlink:title=" ">
<polygon fill="white" stroke="#666666" points="482,-413.27 362.5,-413.27 362.5,-371.52 482,-371.52 482,-413.27"/>
<text xml:space="preserve" text-anchor="start" x="370.5" y="-399.77" font-family="Helvetica,sans-Serif" font-size="10.00">llvm::Bitfield::Element</text>
<text xml:space="preserve" text-anchor="start" x="370.5" y="-388.52" font-family="Helvetica,sans-Serif" font-size="10.00">&lt; Predicate, 0, 6, LAST</text>
<text xml:space="preserve" text-anchor="middle" x="422.25" y="-377.27" font-family="Helvetica,sans-Serif" font-size="10.00">_ICMP_PREDICATE &gt;</text>
</a>
</g>
</g>
<!-- Node1&#45;&gt;Node14 -->
<g id="edge13_Node000001_Node000014" class="edge">
<title>Node1&#45;&gt;Node14</title>
<g id="a_edge13_Node000001_Node000014"><a xlink:title=" ">
<path fill="none" stroke="orange" stroke-dasharray="5,2" d="M87.66,-494.16C102.76,-469.27 129.47,-432.47 163.75,-414.89 225.84,-383.05 307.51,-381.59 362.06,-385.35"/>
<polygon fill="orange" stroke="orange" points="84.69,-492.3 82.67,-502.7 90.73,-495.83 84.69,-492.3"/>
</a>
</g>
<text xml:space="preserve" text-anchor="start" x="166.75" y="-436.14" font-family="Helvetica,sans-Serif" font-size="10.00" fill="grey">&lt; Predicate, 0, 6,</text>
<text xml:space="preserve" text-anchor="start" x="166.75" y="-420.89" font-family="Helvetica,sans-Serif" font-size="10.00" fill="grey">   LAST_ICMP_PREDICATE &gt;</text>
</g>
<!-- Node15 -->
<g id="Node000015" class="node">
<title>Node15</title>
<g id="a_Node000015"><a xlink:href="structllvm_1_1Bitfield_1_1Element.html" target="_top" xlink:title=" ">
<polygon fill="white" stroke="#666666" points="478.25,-353.64 366.25,-353.64 366.25,-323.14 478.25,-323.14 478.25,-353.64"/>
<text xml:space="preserve" text-anchor="start" x="374.25" y="-340.14" font-family="Helvetica,sans-Serif" font-size="10.00">llvm::Bitfield::Element</text>
<text xml:space="preserve" text-anchor="middle" x="422.25" y="-328.89" font-family="Helvetica,sans-Serif" font-size="10.00">&lt; unsigned, 0, 2 &gt;</text>
</a>
</g>
</g>
<!-- Node1&#45;&gt;Node15 -->
<g id="edge14_Node000001_Node000015" class="edge">
<title>Node1&#45;&gt;Node15</title>
<g id="a_edge14_Node000001_Node000015"><a xlink:title=" ">
<path fill="none" stroke="orange" stroke-dasharray="5,2" d="M80.66,-493.52C91.58,-457.54 116.75,-393.42 163.75,-363.14 196.08,-342.31 300.38,-338.28 365.9,-337.88"/>
<polygon fill="orange" stroke="orange" points="77.42,-492.1 78.02,-502.68 84.15,-494.03 77.42,-492.1"/>
</a>
</g>
<text xml:space="preserve" text-anchor="start" x="195.25" y="-369.14" font-family="Helvetica,sans-Serif" font-size="10.00" fill="grey">&lt; unsigned, 0, 2 &gt;</text>
</g>
<!-- Node16 -->
<g id="Node000016" class="node">
<title>Node16</title>
<g id="a_Node000016"><a xlink:href="structllvm_1_1Bitfield_1_1Element.html" target="_top" xlink:title=" ">
<polygon fill="white" stroke="#666666" points="520.25,-305.27 324.25,-305.27 324.25,-263.52 520.25,-263.52 520.25,-305.27"/>
<text xml:space="preserve" text-anchor="start" x="332.25" y="-291.77" font-family="Helvetica,sans-Serif" font-size="10.00">llvm::Bitfield::Element</text>
<text xml:space="preserve" text-anchor="start" x="332.25" y="-280.52" font-family="Helvetica,sans-Serif" font-size="10.00">&lt; CallingConv::ID, CallInstReserved</text>
<text xml:space="preserve" text-anchor="middle" x="422.25" y="-269.27" font-family="Helvetica,sans-Serif" font-size="10.00">Field::NextBit, 10, CallingConv::MaxID &gt;</text>
</a>
</g>
</g>
<!-- Node1&#45;&gt;Node16 -->
<g id="edge15_Node000001_Node000016" class="edge">
<title>Node1&#45;&gt;Node16</title>
<g id="a_edge15_Node000001_Node000016"><a xlink:title=" ">
<path fill="none" stroke="orange" stroke-dasharray="5,2" d="M74.36,-492.22C76.95,-439.33 91.08,-323.28 163.75,-272.39 189.09,-254.65 262.16,-259.57 324.02,-267.85"/>
<polygon fill="orange" stroke="orange" points="70.86,-492.02 73.99,-502.14 77.86,-492.28 70.86,-492.02"/>
</a>
</g>
<text xml:space="preserve" text-anchor="start" x="174.62" y="-324.14" font-family="Helvetica,sans-Serif" font-size="10.00" fill="grey">&lt; CallingConv::ID,</text>
<text xml:space="preserve" text-anchor="start" x="174.62" y="-308.89" font-family="Helvetica,sans-Serif" font-size="10.00" fill="grey">   CallInstReservedField</text>
<text xml:space="preserve" text-anchor="start" x="174.62" y="-293.64" font-family="Helvetica,sans-Serif" font-size="10.00" fill="grey">  ::NextBit, 10, CallingConv</text>
<text xml:space="preserve" text-anchor="start" x="174.62" y="-278.39" font-family="Helvetica,sans-Serif" font-size="10.00" fill="grey">  ::MaxID &gt;</text>
</g>
<!-- Node17 -->
<g id="Node000017" class="node">
<title>Node17</title>
<g id="a_Node000017"><a xlink:href="structllvm_1_1Bitfield_1_1Element.html" target="_top" xlink:title=" ">
<polygon fill="white" stroke="#666666" points="478.25,-245.64 366.25,-245.64 366.25,-215.14 478.25,-215.14 478.25,-245.64"/>
<text xml:space="preserve" text-anchor="start" x="374.25" y="-232.14" font-family="Helvetica,sans-Serif" font-size="10.00">llvm::Bitfield::Element</text>
<text xml:space="preserve" text-anchor="middle" x="422.25" y="-220.89" font-family="Helvetica,sans-Serif" font-size="10.00">&lt; uint16_t, 0, 15 &gt;</text>
</a>
</g>
</g>
<!-- Node1&#45;&gt;Node17 -->
<g id="edge16_Node000001_Node000017" class="edge">
<title>Node1&#45;&gt;Node17</title>
<g id="a_edge16_Node000001_Node000017"><a xlink:title=" ">
<path fill="none" stroke="orange" stroke-dasharray="5,2" d="M73.19,-492.53C73.37,-435.03 82.86,-300.28 163.75,-239.14 221.56,-195.45 309.32,-203.55 365.97,-215.39"/>
<polygon fill="orange" stroke="orange" points="69.69,-492.39 73.27,-502.37 76.69,-492.34 69.69,-492.39"/>
</a>
</g>
<text xml:space="preserve" text-anchor="start" x="194.88" y="-245.14" font-family="Helvetica,sans-Serif" font-size="10.00" fill="grey">&lt; uint16_t, 0, 15 &gt;</text>
</g>
<!-- Node18 -->
<g id="Node000018" class="node">
<title>Node18</title>
<g id="a_Node000018"><a xlink:href="structllvm_1_1Bitfield_1_1Element.html" target="_top" xlink:title=" ">
<polygon fill="white" stroke="#666666" points="478.25,-196.64 366.25,-196.64 366.25,-166.14 478.25,-166.14 478.25,-196.64"/>
<text xml:space="preserve" text-anchor="start" x="374.25" y="-183.14" font-family="Helvetica,sans-Serif" font-size="10.00">llvm::Bitfield::Element</text>
<text xml:space="preserve" text-anchor="middle" x="422.25" y="-171.89" font-family="Helvetica,sans-Serif" font-size="10.00">&lt; bool, 15, 1 &gt;</text>
</a>
</g>
</g>
<!-- Node1&#45;&gt;Node18 -->
<g id="edge17_Node000001_Node000018" class="edge">
<title>Node1&#45;&gt;Node18</title>
<g id="a_edge17_Node000001_Node000018"><a xlink:title=" ">
<path fill="none" stroke="orange" stroke-dasharray="5,2" d="M76.97,-492.56C85.93,-420.13 114.44,-223.52 163.75,-185.14 194.05,-161.56 299.6,-167.93 365.78,-174.68"/>
<polygon fill="orange" stroke="orange" points="73.52,-491.98 75.79,-502.33 80.47,-492.82 73.52,-491.98"/>
</a>
</g>
<text xml:space="preserve" text-anchor="start" x="203.12" y="-191.14" font-family="Helvetica,sans-Serif" font-size="10.00" fill="grey">&lt; bool, 15, 1 &gt;</text>
</g>
<!-- Node19 -->
<g id="Node000019" class="node">
<title>Node19</title>
<g id="a_Node000019"><a xlink:href="structllvm_1_1Bitfield_1_1Element.html" target="_top" xlink:title=" ">
<polygon fill="white" stroke="#666666" points="478.25,-148.27 366.25,-148.27 366.25,-106.52 478.25,-106.52 478.25,-148.27"/>
<text xml:space="preserve" text-anchor="start" x="374.25" y="-134.77" font-family="Helvetica,sans-Serif" font-size="10.00">llvm::Bitfield::Element</text>
<text xml:space="preserve" text-anchor="start" x="374.25" y="-123.52" font-family="Helvetica,sans-Serif" font-size="10.00">&lt; TailCallKind, 0, 2,</text>
<text xml:space="preserve" text-anchor="middle" x="422.25" y="-112.27" font-family="Helvetica,sans-Serif" font-size="10.00"> TCK_LAST &gt;</text>
</a>
</g>
</g>
<!-- Node1&#45;&gt;Node19 -->
<g id="edge18_Node000001_Node000019" class="edge">
<title>Node1&#45;&gt;Node19</title>
<g id="a_edge18_Node000001_Node000019"><a xlink:title=" ">
<path fill="none" stroke="orange" stroke-dasharray="5,2" d="M75.92,-492.65C82.63,-412.65 106.93,-177.85 163.75,-131.89 220.24,-86.19 308.77,-96.7 365.9,-110.47"/>
<polygon fill="orange" stroke="orange" points="72.46,-491.94 75.14,-502.19 79.44,-492.51 72.46,-491.94"/>
</a>
</g>
<text xml:space="preserve" text-anchor="start" x="195.25" y="-153.14" font-family="Helvetica,sans-Serif" font-size="10.00" fill="grey">&lt; TailCallKind, 0,</text>
<text xml:space="preserve" text-anchor="start" x="195.25" y="-137.89" font-family="Helvetica,sans-Serif" font-size="10.00" fill="grey">   2, TCK_LAST &gt;</text>
</g>
<!-- Node20 -->
<g id="Node000020" class="node">
<title>Node20</title>
<g id="a_Node000020"><a xlink:href="structllvm_1_1Bitfield_1_1Element.html" target="_top" xlink:title=" ">
<polygon fill="white" stroke="#666666" points="478.25,-88.64 366.25,-88.64 366.25,-58.14 478.25,-58.14 478.25,-88.64"/>
<text xml:space="preserve" text-anchor="start" x="374.25" y="-75.14" font-family="Helvetica,sans-Serif" font-size="10.00">llvm::Bitfield::Element</text>
<text xml:space="preserve" text-anchor="middle" x="422.25" y="-63.89" font-family="Helvetica,sans-Serif" font-size="10.00">&lt; bool, 0, 1 &gt;</text>
</a>
</g>
</g>
<!-- Node1&#45;&gt;Node20 -->
<g id="edge19_Node000001_Node000020" class="edge">
<title>Node1&#45;&gt;Node20</title>
<g id="a_edge19_Node000001_Node000020"><a xlink:title=" ">
<path fill="none" stroke="orange" stroke-dasharray="5,2" d="M75.08,-492.73C79.65,-405.46 99.02,-130.83 163.75,-77.14 193.34,-52.59 299.41,-59.34 365.83,-66.41"/>
<polygon fill="orange" stroke="orange" points="71.6,-492.31 74.6,-502.47 78.59,-492.66 71.6,-492.31"/>
</a>
</g>
<text xml:space="preserve" text-anchor="start" x="205.75" y="-83.14" font-family="Helvetica,sans-Serif" font-size="10.00" fill="grey">&lt; bool, 0, 1 &gt;</text>
</g>
<!-- Node21 -->
<g id="Node000021" class="node">
<title>Node21</title>
<g id="a_Node000021"><a xlink:href="structllvm_1_1Bitfield_1_1Element.html" target="_top" xlink:title=" ">
<polygon fill="white" stroke="#666666" points="478.25,-39.64 366.25,-39.64 366.25,-9.14 478.25,-9.14 478.25,-39.64"/>
<text xml:space="preserve" text-anchor="start" x="374.25" y="-26.14" font-family="Helvetica,sans-Serif" font-size="10.00">llvm::Bitfield::Element</text>
<text xml:space="preserve" text-anchor="middle" x="422.25" y="-14.89" font-family="Helvetica,sans-Serif" font-size="10.00">&lt; bool, 1, 1 &gt;</text>
</a>
</g>
</g>
<!-- Node1&#45;&gt;Node21 -->
<g id="edge20_Node000001_Node000021" class="edge">
<title>Node1&#45;&gt;Node21</title>
<g id="a_edge20_Node000001_Node000021"><a xlink:title=" ">
<path fill="none" stroke="orange" stroke-dasharray="5,2" d="M74.71,-492.33C78.19,-399.85 94.7,-98.67 163.75,-38.14 218.71,10.04 308.29,2.36 365.98,-9.53"/>
<polygon fill="orange" stroke="orange" points="71.22,-492.09 74.37,-502.21 78.22,-492.34 71.22,-492.09"/>
</a>
</g>
<text xml:space="preserve" text-anchor="start" x="205.75" y="-44.14" font-family="Helvetica,sans-Serif" font-size="10.00" fill="grey">&lt; bool, 1, 1 &gt;</text>
</g>
</g>
</svg>
