<?xml version="1.0" encoding="UTF-8" standalone="no"?>
<!DOCTYPE svg PUBLIC "-//W3C//DTD SVG 1.1//EN"
 "http://www.w3.org/Graphics/SVG/1.1/DTD/svg11.dtd">
<!-- Generated by graphviz version 14.1.3 (20260303.0454)
 -->
<!-- Title: llvm::is_bitmask_enum&lt; E, std::void_t&lt; decltype(E::LLVM_BITMASK_LARGEST_ENUMERATOR)&gt; &gt; Pages: 1 -->
<svg width="302pt" height="232pt"
 viewBox="0.00 0.00 302.00 232.00" xmlns="http://www.w3.org/2000/svg" xmlns:xlink="http://www.w3.org/1999/xlink">
<g id="graph0" class="graph" transform="scale(1 1) rotate(0) translate(4 227.5)">
<title>llvm::is_bitmask_enum&lt; E, std::void_t&lt; decltype(E::LLVM_BITMASK_LARGEST_ENUMERATOR)&gt; &gt;</title>
<!-- Node1 -->
<g id="Node000001" class="node">
<title>Node1</title>
<g id="a_Node000001"><a xlink:title=" ">
<polygon fill="#999999" stroke="#666666" points="166.12,-53 8.38,-53 8.38,0 166.12,0 166.12,-53"/>
<text xml:space="preserve" text-anchor="start" x="16.38" y="-39.5" font-family="Helvetica,sans-Serif" font-size="10.00">llvm::is_bitmask_enum</text>
<text xml:space="preserve" text-anchor="start" x="16.38" y="-28.25" font-family="Helvetica,sans-Serif" font-size="10.00">&lt; E, std::void_t&lt; decltype</text>
<text xml:space="preserve" text-anchor="start" x="16.38" y="-17" font-family="Helvetica,sans-Serif" font-size="10.00">(E::LLVM_BITMASK_LARGEST</text>
<text xml:space="preserve" text-anchor="middle" x="87.25" y="-5.75" font-family="Helvetica,sans-Serif" font-size="10.00">_ENUMERATOR)&gt; &gt;</text>
</a>
</g>
</g>
<!-- Node2 -->
<g id="Node000002" class="node">
<title>Node2</title>
<g id="a_Node000002"><a xlink:title=" ">
<polygon fill="white" stroke="#666666" points="80.5,-223.5 0,-223.5 0,-204.25 80.5,-204.25 80.5,-223.5"/>
<text xml:space="preserve" text-anchor="middle" x="40.25" y="-210" font-family="Helvetica,sans-Serif" font-size="10.00">std::false_type</text>
</a>
</g>
</g>
<!-- Node2&#45;&gt;Node1 -->
<g id="edge1_Node000001_Node000002" class="edge">
<title>Node2&#45;&gt;Node1</title>
<g id="a_edge1_Node000001_Node000002"><a xlink:title=" ">
<path fill="none" stroke="#63b8ff" d="M40.69,-192.54C41.37,-177.08 43.06,-155.36 47.25,-136.75 53.86,-107.39 66.32,-75.2 75.59,-53.41"/>
<polygon fill="#63b8ff" stroke="#63b8ff" points="37.2,-192.23 40.38,-202.34 44.2,-192.46 37.2,-192.23"/>
</a>
</g>
</g>
<!-- Node4 -->
<g id="Node000004" class="node">
<title>Node4</title>
<g id="a_Node000004"><a xlink:href="structllvm_1_1is__bitmask__enum.html" target="_top" xlink:title="Traits class to determine whether an enum has a LLVM_BITMASK_LARGEST_ENUMERATOR enumerator.">
<polygon fill="white" stroke="#666666" points="172.5,-167.25 56,-167.25 56,-136.75 172.5,-136.75 172.5,-167.25"/>
<text xml:space="preserve" text-anchor="start" x="64" y="-153.75" font-family="Helvetica,sans-Serif" font-size="10.00">llvm::is_bitmask_enum</text>
<text xml:space="preserve" text-anchor="middle" x="114.25" y="-142.5" font-family="Helvetica,sans-Serif" font-size="10.00">&lt; E, Enable &gt;</text>
</a>
</g>
</g>
<!-- Node2&#45;&gt;Node4 -->
<g id="edge4_Node000004_Node000002" class="edge">
<title>Node2&#45;&gt;Node4</title>
<g id="a_edge4_Node000004_Node000002"><a xlink:title=" ">
<path fill="none" stroke="#63b8ff" d="M60.18,-196.75C71.42,-187.65 85.36,-176.38 96.27,-167.55"/>
<polygon fill="#63b8ff" stroke="#63b8ff" points="58.24,-193.82 52.67,-202.83 62.64,-199.26 58.24,-193.82"/>
</a>
</g>
</g>
<!-- Node3 -->
<g id="Node000003" class="node">
<title>Node3</title>
<g id="a_Node000003"><a xlink:title=" ">
<polygon fill="white" stroke="#666666" points="294.25,-161.62 218.25,-161.62 218.25,-142.38 294.25,-142.38 294.25,-161.62"/>
<text xml:space="preserve" text-anchor="middle" x="256.25" y="-148.12" font-family="Helvetica,sans-Serif" font-size="10.00">std::true_type</text>
</a>
</g>
</g>
<!-- Node3&#45;&gt;Node1 -->
<g id="edge2_Node000001_Node000003" class="edge">
<title>Node3&#45;&gt;Node1</title>
<g id="a_edge2_Node000001_Node000003"><a xlink:title=" ">
<path fill="none" stroke="#63b8ff" d="M258.29,-130.58C258.91,-112.68 256.79,-87.07 242.25,-71 222.94,-49.65 194.08,-38.44 166.47,-32.66"/>
<polygon fill="#63b8ff" stroke="#63b8ff" points="254.81,-130.28 257.6,-140.5 261.79,-130.77 254.81,-130.28"/>
</a>
</g>
</g>
<!-- Node4&#45;&gt;Node1 -->
<g id="edge3_Node000001_Node000004" class="edge">
<title>Node4&#45;&gt;Node1</title>
<g id="a_edge3_Node000001_Node000004"><a xlink:title=" ">
<path fill="none" stroke="orange" stroke-dasharray="5,2" d="M92.65,-127.29C90.99,-124.55 89.55,-121.68 88.5,-118.75 80.97,-97.72 81.36,-72.17 83.22,-53.47"/>
<polygon fill="orange" stroke="orange" points="89.77,-129.28 98.47,-135.32 95.43,-125.17 89.77,-129.28"/>
</a>
</g>
<text xml:space="preserve" text-anchor="start" x="91.5" y="-107.5" font-family="Helvetica,sans-Serif" font-size="10.00" fill="grey">&lt; E, std::void_t&lt; decltype</text>
<text xml:space="preserve" text-anchor="start" x="91.5" y="-92.25" font-family="Helvetica,sans-Serif" font-size="10.00" fill="grey">  (E::LLVM_BITMASK_LARGEST</text>
<text xml:space="preserve" text-anchor="start" x="91.5" y="-77" font-family="Helvetica,sans-Serif" font-size="10.00" fill="grey">  _ENUMERATOR)&gt; &gt;</text>
</g>
</g>
</svg>
