<?xml version="1.0" encoding="UTF-8" standalone="no"?>
<!DOCTYPE svg PUBLIC "-//W3C//DTD SVG 1.1//EN"
 "http://www.w3.org/Graphics/SVG/1.1/DTD/svg11.dtd">
<!-- Generated by graphviz version 14.1.3 (20260303.0454)
 -->
<!-- Title: llvm::jitlink::aarch32::FixupInfoArm Pages: 1 -->
<svg width="595pt" height="186pt"
 viewBox="0.00 0.00 595.00 186.00" xmlns="http://www.w3.org/2000/svg" xmlns:xlink="http://www.w3.org/1999/xlink">
<g id="graph0" class="graph" transform="scale(1 1) rotate(0) translate(4 181.5)">
<title>llvm::jitlink::aarch32::FixupInfoArm</title>
<!-- Node1 -->
<g id="Node000001" class="node">
<title>Node1</title>
<g id="a_Node000001"><a xlink:title="FixupInfo checks for Arm edge kinds work on 32&#45;bit words.">
<polygon fill="#999999" stroke="#666666" points="242,-103.5 139,-103.5 139,-73 242,-73 242,-103.5"/>
<text xml:space="preserve" text-anchor="start" x="147" y="-90" font-family="Helvetica,sans-Serif" font-size="10.00">llvm::jitlink::aarch32</text>
<text xml:space="preserve" text-anchor="middle" x="190.5" y="-78.75" font-family="Helvetica,sans-Serif" font-size="10.00">::FixupInfoArm</text>
</a>
</g>
</g>
<!-- Node3 -->
<g id="Node000003" class="node">
<title>Node3</title>
<g id="a_Node000003"><a xlink:href="structllvm_1_1jitlink_1_1aarch32_1_1FixupInfoArmBranch.html" target="_top" xlink:title=" ">
<polygon fill="white" stroke="#666666" points="389.25,-128.5 278,-128.5 278,-98 389.25,-98 389.25,-128.5"/>
<text xml:space="preserve" text-anchor="start" x="286" y="-115" font-family="Helvetica,sans-Serif" font-size="10.00">llvm::jitlink::aarch32</text>
<text xml:space="preserve" text-anchor="middle" x="333.62" y="-103.75" font-family="Helvetica,sans-Serif" font-size="10.00">::FixupInfoArmBranch</text>
</a>
</g>
</g>
<!-- Node1&#45;&gt;Node3 -->
<g id="edge2_Node000001_Node000003" class="edge">
<title>Node1&#45;&gt;Node3</title>
<g id="a_edge2_Node000001_Node000003"><a xlink:title=" ">
<path fill="none" stroke="#63b8ff" d="M253.71,-99.27C261.78,-100.7 270,-102.16 277.94,-103.56"/>
<polygon fill="#63b8ff" stroke="#63b8ff" points="254.4,-95.84 243.94,-97.54 253.18,-102.73 254.4,-95.84"/>
</a>
</g>
</g>
<!-- Node6 -->
<g id="Node000006" class="node">
<title>Node6</title>
<g id="a_Node000006"><a xlink:href="structllvm_1_1jitlink_1_1aarch32_1_1FixupInfoArmMov.html" target="_top" xlink:title=" ">
<polygon fill="white" stroke="#666666" points="385.12,-79.5 282.12,-79.5 282.12,-49 385.12,-49 385.12,-79.5"/>
<text xml:space="preserve" text-anchor="start" x="290.12" y="-66" font-family="Helvetica,sans-Serif" font-size="10.00">llvm::jitlink::aarch32</text>
<text xml:space="preserve" text-anchor="middle" x="333.62" y="-54.75" font-family="Helvetica,sans-Serif" font-size="10.00">::FixupInfoArmMov</text>
</a>
</g>
</g>
<!-- Node1&#45;&gt;Node6 -->
<g id="edge5_Node000001_Node000006" class="edge">
<title>Node1&#45;&gt;Node6</title>
<g id="a_edge5_Node000001_Node000006"><a xlink:title=" ">
<path fill="none" stroke="#63b8ff" d="M253.73,-77.67C263.1,-76.07 272.66,-74.45 281.75,-72.9"/>
<polygon fill="#63b8ff" stroke="#63b8ff" points="253.21,-74.2 243.94,-79.33 254.39,-81.11 253.21,-74.2"/>
</a>
</g>
</g>
<!-- Node2 -->
<g id="Node000002" class="node">
<title>Node2</title>
<g id="a_Node000002"><a xlink:href="structllvm_1_1jitlink_1_1aarch32_1_1FixupInfoBase.html" target="_top" xlink:title="FixupInfo base class is required for dynamic lookups.">
<polygon fill="white" stroke="#666666" points="103,-103.5 0,-103.5 0,-73 103,-73 103,-103.5"/>
<text xml:space="preserve" text-anchor="start" x="8" y="-90" font-family="Helvetica,sans-Serif" font-size="10.00">llvm::jitlink::aarch32</text>
<text xml:space="preserve" text-anchor="middle" x="51.5" y="-78.75" font-family="Helvetica,sans-Serif" font-size="10.00">::FixupInfoBase</text>
</a>
</g>
</g>
<!-- Node2&#45;&gt;Node1 -->
<g id="edge1_Node000001_Node000002" class="edge">
<title>Node2&#45;&gt;Node1</title>
<g id="a_edge1_Node000001_Node000002"><a xlink:title=" ">
<path fill="none" stroke="#63b8ff" d="M114.44,-88.25C122.53,-88.25 130.74,-88.25 138.63,-88.25"/>
<polygon fill="#63b8ff" stroke="#63b8ff" points="114.64,-84.75 104.64,-88.25 114.64,-91.75 114.64,-84.75"/>
</a>
</g>
</g>
<!-- Node4 -->
<g id="Node000004" class="node">
<title>Node4</title>
<g id="a_Node000004"><a xlink:href="structllvm_1_1jitlink_1_1aarch32_1_1FixupInfo_3_01Arm__Call_01_4.html" target="_top" xlink:title=" ">
<polygon fill="white" stroke="#666666" points="566.12,-177.5 445.88,-177.5 445.88,-147 566.12,-147 566.12,-177.5"/>
<text xml:space="preserve" text-anchor="start" x="453.88" y="-164" font-family="Helvetica,sans-Serif" font-size="10.00">llvm::jitlink::aarch32</text>
<text xml:space="preserve" text-anchor="middle" x="506" y="-152.75" font-family="Helvetica,sans-Serif" font-size="10.00">::FixupInfo&lt; Arm_Call &gt;</text>
</a>
</g>
</g>
<!-- Node3&#45;&gt;Node4 -->
<g id="edge3_Node000003_Node000004" class="edge">
<title>Node3&#45;&gt;Node4</title>
<g id="a_edge3_Node000003_Node000004"><a xlink:title=" ">
<path fill="none" stroke="#63b8ff" d="M399.77,-131.98C416.43,-136.78 434.18,-141.88 450.26,-146.51"/>
<polygon fill="#63b8ff" stroke="#63b8ff" points="401.03,-128.71 390.46,-129.31 399.1,-135.43 401.03,-128.71"/>
</a>
</g>
</g>
<!-- Node5 -->
<g id="Node000005" class="node">
<title>Node5</title>
<g id="a_Node000005"><a xlink:href="structllvm_1_1jitlink_1_1aarch32_1_1FixupInfo_3_01Arm__Jump24_01_4.html" target="_top" xlink:title=" ">
<polygon fill="white" stroke="#666666" points="574.75,-128.5 437.25,-128.5 437.25,-98 574.75,-98 574.75,-128.5"/>
<text xml:space="preserve" text-anchor="start" x="445.25" y="-115" font-family="Helvetica,sans-Serif" font-size="10.00">llvm::jitlink::aarch32</text>
<text xml:space="preserve" text-anchor="middle" x="506" y="-103.75" font-family="Helvetica,sans-Serif" font-size="10.00">::FixupInfo&lt; Arm_Jump24 &gt;</text>
</a>
</g>
</g>
<!-- Node3&#45;&gt;Node5 -->
<g id="edge4_Node000003_Node000005" class="edge">
<title>Node3&#45;&gt;Node5</title>
<g id="a_edge4_Node000003_Node000005"><a xlink:title=" ">
<path fill="none" stroke="#63b8ff" d="M400.65,-113.25C412.51,-113.25 424.9,-113.25 436.82,-113.25"/>
<polygon fill="#63b8ff" stroke="#63b8ff" points="400.98,-109.75 390.98,-113.25 400.98,-116.75 400.98,-109.75"/>
</a>
</g>
</g>
<!-- Node7 -->
<g id="Node000007" class="node">
<title>Node7</title>
<g id="a_Node000007"><a xlink:href="structllvm_1_1jitlink_1_1aarch32_1_1FixupInfo_3_01Arm__MovtAbs_01_4.html" target="_top" xlink:title=" ">
<polygon fill="white" stroke="#666666" points="577,-79.5 435,-79.5 435,-49 577,-49 577,-79.5"/>
<text xml:space="preserve" text-anchor="start" x="443" y="-66" font-family="Helvetica,sans-Serif" font-size="10.00">llvm::jitlink::aarch32</text>
<text xml:space="preserve" text-anchor="middle" x="506" y="-54.75" font-family="Helvetica,sans-Serif" font-size="10.00">::FixupInfo&lt; Arm_MovtAbs &gt;</text>
</a>
</g>
</g>
<!-- Node6&#45;&gt;Node7 -->
<g id="edge6_Node000006_Node000007" class="edge">
<title>Node6&#45;&gt;Node7</title>
<g id="a_edge6_Node000006_Node000007"><a xlink:title=" ">
<path fill="none" stroke="#63b8ff" d="M396.45,-64.25C408.86,-64.25 422,-64.25 434.67,-64.25"/>
<polygon fill="#63b8ff" stroke="#63b8ff" points="396.8,-60.75 386.8,-64.25 396.8,-67.75 396.8,-60.75"/>
</a>
</g>
</g>
<!-- Node8 -->
<g id="Node000008" class="node">
<title>Node8</title>
<g id="a_Node000008"><a xlink:href="structllvm_1_1jitlink_1_1aarch32_1_1FixupInfo_3_01Arm__MovwAbsNC_01_4.html" target="_top" xlink:title=" ">
<polygon fill="white" stroke="#666666" points="586.75,-30.5 425.25,-30.5 425.25,0 586.75,0 586.75,-30.5"/>
<text xml:space="preserve" text-anchor="start" x="433.25" y="-17" font-family="Helvetica,sans-Serif" font-size="10.00">llvm::jitlink::aarch32</text>
<text xml:space="preserve" text-anchor="middle" x="506" y="-5.75" font-family="Helvetica,sans-Serif" font-size="10.00">::FixupInfo&lt; Arm_MovwAbsNC &gt;</text>
</a>
</g>
</g>
<!-- Node6&#45;&gt;Node8 -->
<g id="edge7_Node000006_Node000008" class="edge">
<title>Node6&#45;&gt;Node8</title>
<g id="a_edge7_Node000006_Node000008"><a xlink:title=" ">
<path fill="none" stroke="#63b8ff" d="M396.11,-46.57C413.85,-41.46 433.08,-35.93 450.38,-30.96"/>
<polygon fill="#63b8ff" stroke="#63b8ff" points="395.38,-43.14 386.74,-49.26 397.31,-49.86 395.38,-43.14"/>
</a>
</g>
</g>
</g>
</svg>
