<?xml version="1.0" encoding="UTF-8" standalone="no"?>
<!DOCTYPE svg PUBLIC "-//W3C//DTD SVG 1.1//EN"
 "http://www.w3.org/Graphics/SVG/1.1/DTD/svg11.dtd">
<!-- Generated by graphviz version 14.1.3 (20260303.0454)
 -->
<!-- Title: llvm::object::ExceptionSectionEntry&lt; AddressType &gt; Pages: 1 -->
<svg width="441pt" height="88pt"
 viewBox="0.00 0.00 441.00 88.00" xmlns="http://www.w3.org/2000/svg" xmlns:xlink="http://www.w3.org/1999/xlink">
<g id="graph0" class="graph" transform="scale(1 1) rotate(0) translate(4 83.5)">
<title>llvm::object::ExceptionSectionEntry&lt; AddressType &gt;</title>
<!-- Node1 -->
<g id="Node000001" class="node">
<title>Node1</title>
<g id="a_Node000001"><a xlink:title=" ">
<polygon fill="#999999" stroke="#666666" points="148.75,-54.5 0,-54.5 0,-24 148.75,-24 148.75,-54.5"/>
<text xml:space="preserve" text-anchor="start" x="8" y="-41" font-family="Helvetica,sans-Serif" font-size="10.00">llvm::object::ExceptionSection</text>
<text xml:space="preserve" text-anchor="middle" x="74.38" y="-29.75" font-family="Helvetica,sans-Serif" font-size="10.00">Entry&lt; AddressType &gt;</text>
</a>
</g>
</g>
<!-- Node2 -->
<g id="Node000002" class="node">
<title>Node2</title>
<g id="a_Node000002"><a xlink:href="structllvm_1_1object_1_1ExceptionSectionEntry.html" target="_top" xlink:title=" ">
<polygon fill="white" stroke="#666666" points="432.5,-79.5 283.75,-79.5 283.75,-49 432.5,-49 432.5,-79.5"/>
<text xml:space="preserve" text-anchor="start" x="291.75" y="-66" font-family="Helvetica,sans-Serif" font-size="10.00">llvm::object::ExceptionSection</text>
<text xml:space="preserve" text-anchor="middle" x="358.12" y="-54.75" font-family="Helvetica,sans-Serif" font-size="10.00">Entry&lt; support::ubig32_t &gt;</text>
</a>
</g>
</g>
<!-- Node1&#45;&gt;Node2 -->
<g id="edge1_Node000001_Node000002" class="edge">
<title>Node1&#45;&gt;Node2</title>
<g id="a_edge1_Node000001_Node000002"><a xlink:title=" ">
<path fill="none" stroke="orange" stroke-dasharray="5,2" d="M160.43,-46.8C199.63,-50.27 245.71,-54.36 283.41,-57.71"/>
<polygon fill="orange" stroke="orange" points="160.81,-43.32 150.54,-45.92 160.19,-50.29 160.81,-43.32"/>
</a>
</g>
<text xml:space="preserve" text-anchor="start" x="169.75" y="-61.45" font-family="Helvetica,sans-Serif" font-size="10.00" fill="grey">&lt; support::ubig32_t &gt;</text>
</g>
<!-- Node3 -->
<g id="Node000003" class="node">
<title>Node3</title>
<g id="a_Node000003"><a xlink:href="structllvm_1_1object_1_1ExceptionSectionEntry.html" target="_top" xlink:title=" ">
<polygon fill="white" stroke="#666666" points="432.5,-30.5 283.75,-30.5 283.75,0 432.5,0 432.5,-30.5"/>
<text xml:space="preserve" text-anchor="start" x="291.75" y="-17" font-family="Helvetica,sans-Serif" font-size="10.00">llvm::object::ExceptionSection</text>
<text xml:space="preserve" text-anchor="middle" x="358.12" y="-5.75" font-family="Helvetica,sans-Serif" font-size="10.00">Entry&lt; support::ubig64_t &gt;</text>
</a>
</g>
</g>
<!-- Node1&#45;&gt;Node3 -->
<g id="edge2_Node000001_Node000003" class="edge">
<title>Node1&#45;&gt;Node3</title>
<g id="a_edge2_Node000001_Node000003"><a xlink:title=" ">
<path fill="none" stroke="orange" stroke-dasharray="5,2" d="M160.49,-25.68C162.59,-25.44 164.68,-25.21 166.75,-25 205.1,-21.04 247.97,-18.66 283.31,-17.25"/>
<polygon fill="orange" stroke="orange" points="160.1,-22.2 150.6,-26.9 160.95,-29.15 160.1,-22.2"/>
</a>
</g>
<text xml:space="preserve" text-anchor="start" x="169.75" y="-31" font-family="Helvetica,sans-Serif" font-size="10.00" fill="grey">&lt; support::ubig64_t &gt;</text>
</g>
</g>
</svg>
