<?xml version="1.0" encoding="UTF-8" standalone="no"?>
<!DOCTYPE svg PUBLIC "-//W3C//DTD SVG 1.1//EN"
 "http://www.w3.org/Graphics/SVG/1.1/DTD/svg11.dtd">
<!-- Generated by graphviz version 14.1.3 (20260303.0454)
 -->
<!-- Title: llvm::SysAliasOptionalReg Pages: 1 -->
<svg width="401pt" height="149pt"
 viewBox="0.00 0.00 401.00 149.00" xmlns="http://www.w3.org/2000/svg" xmlns:xlink="http://www.w3.org/1999/xlink">
<g id="graph0" class="graph" transform="scale(1 1) rotate(0) translate(4 145)">
<title>llvm::SysAliasOptionalReg</title>
<!-- Node1 -->
<g id="Node000001" class="node">
<title>Node1</title>
<g id="a_Node000001"><a xlink:title=" ">
<polygon fill="#999999" stroke="#666666" points="274,-85.75 141,-85.75 141,-66.5 274,-66.5 274,-85.75"/>
<text xml:space="preserve" text-anchor="middle" x="207.5" y="-72.25" font-family="Helvetica,sans-Serif" font-size="10.00">llvm::SysAliasOptionalReg</text>
</a>
</g>
</g>
<!-- Node3 -->
<g id="Node000003" class="node">
<title>Node3</title>
<g id="a_Node000003"><a xlink:href="structllvm_1_1AArch64PLBI_1_1PLBI.html" target="_top" xlink:title=" ">
<polygon fill="white" stroke="#666666" points="127,-24.88 0,-24.88 0,-5.63 127,-5.63 127,-24.88"/>
<text xml:space="preserve" text-anchor="middle" x="63.5" y="-11.38" font-family="Helvetica,sans-Serif" font-size="10.00">llvm::AArch64PLBI::PLBI</text>
</a>
</g>
</g>
<!-- Node1&#45;&gt;Node3 -->
<g id="edge2_Node000001_Node000003" class="edge">
<title>Node1&#45;&gt;Node3</title>
<g id="a_edge2_Node000001_Node000003"><a xlink:title=" ">
<path fill="none" stroke="#63b8ff" d="M174.71,-61.72C147.39,-50.55 109.24,-34.95 85.47,-25.23"/>
<polygon fill="#63b8ff" stroke="#63b8ff" points="173.33,-64.94 183.91,-65.48 175.98,-58.46 173.33,-64.94"/>
</a>
</g>
</g>
<!-- Node4 -->
<g id="Node000004" class="node">
<title>Node4</title>
<g id="a_Node000004"><a xlink:href="structllvm_1_1AArch64TLBI_1_1TLBI.html" target="_top" xlink:title=" ">
<polygon fill="white" stroke="#666666" points="270.25,-24.88 144.75,-24.88 144.75,-5.63 270.25,-5.63 270.25,-24.88"/>
<text xml:space="preserve" text-anchor="middle" x="207.5" y="-11.38" font-family="Helvetica,sans-Serif" font-size="10.00">llvm::AArch64TLBI::TLBI</text>
</a>
</g>
</g>
<!-- Node1&#45;&gt;Node4 -->
<g id="edge3_Node000001_Node000004" class="edge">
<title>Node1&#45;&gt;Node4</title>
<g id="a_edge3_Node000001_Node000004"><a xlink:title=" ">
<path fill="none" stroke="#63b8ff" d="M207.5,-54.7C207.5,-44.67 207.5,-33.08 207.5,-25.28"/>
<polygon fill="#63b8ff" stroke="#63b8ff" points="204,-54.67 207.5,-64.67 211,-54.67 204,-54.67"/>
</a>
</g>
</g>
<!-- Node5 -->
<g id="Node000005" class="node">
<title>Node5</title>
<g id="a_Node000005"><a xlink:href="structllvm_1_1AArch64TLBIP_1_1TLBIP.html" target="_top" xlink:title=" ">
<polygon fill="white" stroke="#666666" points="393.12,-30.5 287.88,-30.5 287.88,0 393.12,0 393.12,-30.5"/>
<text xml:space="preserve" text-anchor="start" x="295.88" y="-17" font-family="Helvetica,sans-Serif" font-size="10.00">llvm::AArch64TLBIP</text>
<text xml:space="preserve" text-anchor="middle" x="340.5" y="-5.75" font-family="Helvetica,sans-Serif" font-size="10.00">::TLBIP</text>
</a>
</g>
</g>
<!-- Node1&#45;&gt;Node5 -->
<g id="edge4_Node000001_Node000005" class="edge">
<title>Node1&#45;&gt;Node5</title>
<g id="a_edge4_Node000001_Node000005"><a xlink:title=" ">
<path fill="none" stroke="#63b8ff" d="M238.42,-61.44C259.07,-52.3 286.2,-40.29 307.3,-30.94"/>
<polygon fill="#63b8ff" stroke="#63b8ff" points="237.1,-58.19 229.37,-65.44 239.93,-64.59 237.1,-58.19"/>
</a>
</g>
</g>
<!-- Node2 -->
<g id="Node000002" class="node">
<title>Node2</title>
<g id="a_Node000002"><a xlink:href="structllvm_1_1SysAlias.html" target="_top" xlink:title=" ">
<polygon fill="white" stroke="#666666" points="247,-141 168,-141 168,-121.75 247,-121.75 247,-141"/>
<text xml:space="preserve" text-anchor="middle" x="207.5" y="-127.5" font-family="Helvetica,sans-Serif" font-size="10.00">llvm::SysAlias</text>
</a>
</g>
</g>
<!-- Node2&#45;&gt;Node1 -->
<g id="edge1_Node000001_Node000002" class="edge">
<title>Node2&#45;&gt;Node1</title>
<g id="a_edge1_Node000001_Node000002"><a xlink:title=" ">
<path fill="none" stroke="#63b8ff" d="M207.5,-110.13C207.5,-101.84 207.5,-92.67 207.5,-86.11"/>
<polygon fill="#63b8ff" stroke="#63b8ff" points="204,-110.07 207.5,-120.07 211,-110.07 204,-110.07"/>
</a>
</g>
</g>
</g>
</svg>
