<?xml version="1.0" encoding="UTF-8" standalone="no"?>
<!DOCTYPE svg PUBLIC "-//W3C//DTD SVG 1.1//EN"
 "http://www.w3.org/Graphics/SVG/1.1/DTD/svg11.dtd">
<!-- Generated by graphviz version 14.1.3 (20260303.0454)
 -->
<!-- Title: llvm::UniquePtrCast&lt; To, From, Derived &gt; Pages: 1 -->
<svg width="144pt" height="257pt"
 viewBox="0.00 0.00 144.00 257.00" xmlns="http://www.w3.org/2000/svg" xmlns:xlink="http://www.w3.org/1999/xlink">
<g id="graph0" class="graph" transform="scale(1 1) rotate(0) translate(4 253.25)">
<title>llvm::UniquePtrCast&lt; To, From, Derived &gt;</title>
<!-- Node1 -->
<g id="Node000001" class="node">
<title>Node1</title>
<g id="a_Node000001"><a xlink:title="This cast trait provides std::unique_ptr casting.">
<polygon fill="#999999" stroke="#666666" points="122.88,-98 10.12,-98 10.12,-67.5 122.88,-67.5 122.88,-98"/>
<text xml:space="preserve" text-anchor="start" x="18.12" y="-84.5" font-family="Helvetica,sans-Serif" font-size="10.00">llvm::UniquePtrCast</text>
<text xml:space="preserve" text-anchor="middle" x="66.5" y="-73.25" font-family="Helvetica,sans-Serif" font-size="10.00">&lt; To, From, Derived &gt;</text>
</a>
</g>
</g>
<!-- Node4 -->
<g id="Node000004" class="node">
<title>Node4</title>
<g id="a_Node000004"><a xlink:href="structllvm_1_1CastInfo_3_01To_00_01std_1_1unique__ptr_3_01From_01_4_01_4.html" target="_top" xlink:title="Provide a CastInfo specialized for std::unique_ptr.">
<polygon fill="white" stroke="#666666" points="133,-30.5 0,-30.5 0,0 133,0 133,-30.5"/>
<text xml:space="preserve" text-anchor="start" x="8" y="-17" font-family="Helvetica,sans-Serif" font-size="10.00">llvm::CastInfo&lt; To,</text>
<text xml:space="preserve" text-anchor="middle" x="66.5" y="-5.75" font-family="Helvetica,sans-Serif" font-size="10.00"> std::unique_ptr&lt; From &gt; &gt;</text>
</a>
</g>
</g>
<!-- Node1&#45;&gt;Node4 -->
<g id="edge3_Node000001_Node000004" class="edge">
<title>Node1&#45;&gt;Node4</title>
<g id="a_edge3_Node000001_Node000004"><a xlink:title=" ">
<path fill="none" stroke="#63b8ff" d="M66.5,-55.84C66.5,-47.3 66.5,-38.12 66.5,-30.75"/>
<polygon fill="#63b8ff" stroke="#63b8ff" points="63,-55.7 66.5,-65.7 70,-55.7 63,-55.7"/>
</a>
</g>
</g>
<!-- Node2 -->
<g id="Node000002" class="node">
<title>Node2</title>
<g id="a_Node000002"><a xlink:href="structllvm_1_1CastIsPossible.html" target="_top" xlink:title=" ">
<polygon fill="white" stroke="#666666" points="119.88,-165.5 13.13,-165.5 13.13,-135 119.88,-135 119.88,-165.5"/>
<text xml:space="preserve" text-anchor="start" x="21.12" y="-152" font-family="Helvetica,sans-Serif" font-size="10.00">llvm::CastIsPossible</text>
<text xml:space="preserve" text-anchor="middle" x="66.5" y="-140.75" font-family="Helvetica,sans-Serif" font-size="10.00">&lt; To, From * &gt;</text>
</a>
</g>
</g>
<!-- Node2&#45;&gt;Node1 -->
<g id="edge1_Node000001_Node000002" class="edge">
<title>Node2&#45;&gt;Node1</title>
<g id="a_edge1_Node000001_Node000002"><a xlink:title=" ">
<path fill="none" stroke="#63b8ff" d="M66.5,-123.34C66.5,-114.8 66.5,-105.62 66.5,-98.25"/>
<polygon fill="#63b8ff" stroke="#63b8ff" points="63,-123.2 66.5,-133.2 70,-123.2 63,-123.2"/>
</a>
</g>
</g>
<!-- Node3 -->
<g id="Node000003" class="node">
<title>Node3</title>
<g id="a_Node000003"><a xlink:href="structllvm_1_1CastIsPossible.html" target="_top" xlink:title="This struct provides a way to check if a given cast is possible.">
<polygon fill="white" stroke="#666666" points="121,-249.25 12,-249.25 12,-218.75 121,-218.75 121,-249.25"/>
<text xml:space="preserve" text-anchor="start" x="20" y="-235.75" font-family="Helvetica,sans-Serif" font-size="10.00">llvm::CastIsPossible</text>
<text xml:space="preserve" text-anchor="middle" x="66.5" y="-224.5" font-family="Helvetica,sans-Serif" font-size="10.00">&lt; To, From, Enable &gt;</text>
</a>
</g>
</g>
<!-- Node3&#45;&gt;Node2 -->
<g id="edge2_Node000002_Node000003" class="edge">
<title>Node3&#45;&gt;Node2</title>
<g id="a_edge2_Node000002_Node000003"><a xlink:title=" ">
<path fill="none" stroke="orange" stroke-dasharray="5,2" d="M66.5,-207.22C66.5,-193.53 66.5,-177.21 66.5,-165.74"/>
<polygon fill="orange" stroke="orange" points="63,-206.87 66.5,-216.87 70,-206.87 63,-206.87"/>
</a>
</g>
<text xml:space="preserve" text-anchor="start" x="69.5" y="-189.5" font-family="Helvetica,sans-Serif" font-size="10.00" fill="grey">&lt; To, From * &gt;</text>
</g>
</g>
</svg>
