<?xml version="1.0" encoding="UTF-8" standalone="no"?>
<!DOCTYPE svg PUBLIC "-//W3C//DTD SVG 1.1//EN"
 "http://www.w3.org/Graphics/SVG/1.1/DTD/svg11.dtd">
<!-- Generated by graphviz version 14.1.3 (20260303.0454)
 -->
<!-- Title: llvm::GraphTraits&lt; MachineGadgetGraph * &gt; Pages: 1 -->
<svg width="596pt" height="95pt"
 viewBox="0.00 0.00 596.00 95.00" xmlns="http://www.w3.org/2000/svg" xmlns:xlink="http://www.w3.org/1999/xlink">
<g id="graph0" class="graph" transform="scale(1 1) rotate(0) translate(4 90.58)">
<title>llvm::GraphTraits&lt; MachineGadgetGraph * &gt;</title>
<!-- Node1 -->
<g id="Node000001" class="node">
<title>Node1</title>
<g id="a_Node000001"><a xlink:title=" ">
<polygon fill="#999999" stroke="#666666" points="588.25,-64.12 459,-64.12 459,-33.62 588.25,-33.62 588.25,-64.12"/>
<text xml:space="preserve" text-anchor="start" x="467" y="-50.62" font-family="Helvetica,sans-Serif" font-size="10.00">llvm::GraphTraits&lt;</text>
<text xml:space="preserve" text-anchor="middle" x="523.62" y="-39.38" font-family="Helvetica,sans-Serif" font-size="10.00"> MachineGadgetGraph * &gt;</text>
</a>
</g>
</g>
<!-- Node2 -->
<g id="Node000002" class="node">
<title>Node2</title>
<g id="a_Node000002"><a xlink:href="structllvm_1_1GraphTraits.html" target="_top" xlink:title=" ">
<polygon fill="white" stroke="#666666" points="422,-41.75 265.75,-41.75 265.75,0 422,0 422,-41.75"/>
<text xml:space="preserve" text-anchor="start" x="273.75" y="-28.25" font-family="Helvetica,sans-Serif" font-size="10.00">llvm::GraphTraits&lt;</text>
<text xml:space="preserve" text-anchor="start" x="273.75" y="-17" font-family="Helvetica,sans-Serif" font-size="10.00"> ImmutableGraph&lt; MachineInstr</text>
<text xml:space="preserve" text-anchor="middle" x="343.88" y="-5.75" font-family="Helvetica,sans-Serif" font-size="10.00"> *, int &gt; * &gt;</text>
</a>
</g>
</g>
<!-- Node2&#45;&gt;Node1 -->
<g id="edge1_Node000001_Node000002" class="edge">
<title>Node2&#45;&gt;Node1</title>
<g id="a_edge1_Node000001_Node000002"><a xlink:title=" ">
<path fill="none" stroke="#63b8ff" d="M433.49,-34.83C442.01,-36.18 450.53,-37.52 458.75,-38.81"/>
<polygon fill="#63b8ff" stroke="#63b8ff" points="434.24,-31.41 423.82,-33.31 433.15,-38.32 434.24,-31.41"/>
</a>
</g>
</g>
<!-- Node3 -->
<g id="Node000003" class="node">
<title>Node3</title>
<g id="a_Node000003"><a xlink:href="structllvm_1_1GraphTraits.html" target="_top" xlink:title=" ">
<polygon fill="white" stroke="#666666" points="97,-65.12 0,-65.12 0,-34.62 97,-34.62 97,-65.12"/>
<text xml:space="preserve" text-anchor="start" x="8" y="-51.62" font-family="Helvetica,sans-Serif" font-size="10.00">llvm::GraphTraits&lt;</text>
<text xml:space="preserve" text-anchor="middle" x="48.5" y="-40.38" font-family="Helvetica,sans-Serif" font-size="10.00"> GraphType &gt;</text>
</a>
</g>
</g>
<!-- Node3&#45;&gt;Node1 -->
<g id="edge3_Node000001_Node000003" class="edge">
<title>Node3&#45;&gt;Node1</title>
<g id="a_edge3_Node000001_Node000003"><a xlink:title=" ">
<path fill="none" stroke="orange" stroke-dasharray="5,2" d="M108.41,-63.07C110.63,-63.38 112.83,-63.65 115,-63.88 235.95,-76.66 378.09,-65.54 458.54,-56.83"/>
<polygon fill="orange" stroke="orange" points="109.17,-59.65 98.74,-61.53 108.07,-66.56 109.17,-59.65"/>
</a>
</g>
<text xml:space="preserve" text-anchor="start" x="284.25" y="-75.33" font-family="Helvetica,sans-Serif" font-size="10.00" fill="grey">&lt; MachineGadgetGraph * &gt;</text>
</g>
<!-- Node3&#45;&gt;Node2 -->
<g id="edge2_Node000002_Node000003" class="edge">
<title>Node3&#45;&gt;Node2</title>
<g id="a_edge2_Node000002_Node000003"><a xlink:title=" ">
<path fill="none" stroke="orange" stroke-dasharray="5,2" d="M108.36,-32.57C110.59,-32.13 112.81,-31.73 115,-31.38 164.65,-23.33 221.12,-20.68 265.42,-20.06"/>
<polygon fill="orange" stroke="orange" points="107.64,-29.15 98.63,-34.73 109.15,-35.98 107.64,-29.15"/>
</a>
</g>
<text xml:space="preserve" text-anchor="start" x="118" y="-52.62" font-family="Helvetica,sans-Serif" font-size="10.00" fill="grey">&lt; ImmutableGraph&lt; Machine</text>
<text xml:space="preserve" text-anchor="start" x="118" y="-37.38" font-family="Helvetica,sans-Serif" font-size="10.00" fill="grey">  Instr *, int &gt; * &gt;</text>
</g>
</g>
</svg>
