<?xml version="1.0" encoding="UTF-8" standalone="no"?>
<!DOCTYPE svg PUBLIC "-//W3C//DTD SVG 1.1//EN"
 "http://www.w3.org/Graphics/SVG/1.1/DTD/svg11.dtd">
<!-- Generated by graphviz version 14.1.3 (20260303.0454)
 -->
<!-- Title: llvm::SameType&lt; T, T &gt; Pages: 1 -->
<svg width="460pt" height="556pt"
 viewBox="0.00 0.00 460.00 556.00" xmlns="http://www.w3.org/2000/svg" xmlns:xlink="http://www.w3.org/1999/xlink">
<g id="graph0" class="graph" transform="scale(1 1) rotate(0) translate(4 552.21)">
<title>llvm::SameType&lt; T, T &gt;</title>
<!-- Node1 -->
<g id="Node000001" class="node">
<title>Node1</title>
<g id="a_Node000001"><a xlink:title=" ">
<polygon fill="#999999" stroke="#666666" points="121,-257.96 0,-257.96 0,-238.71 121,-238.71 121,-257.96"/>
<text xml:space="preserve" text-anchor="middle" x="60.5" y="-244.46" font-family="Helvetica,sans-Serif" font-size="10.00">llvm::SameType&lt; T, T &gt;</text>
</a>
</g>
</g>
<!-- Node2 -->
<g id="Node000002" class="node">
<title>Node2</title>
<g id="a_Node000002"><a xlink:href="structllvm_1_1SameType.html" target="_top" xlink:title=" ">
<polygon fill="white" stroke="#666666" points="437.38,-517.58 300.62,-517.58 300.62,-487.08 437.38,-487.08 437.38,-517.58"/>
<text xml:space="preserve" text-anchor="start" x="308.62" y="-504.08" font-family="Helvetica,sans-Serif" font-size="10.00">llvm::SameType&lt; Signature</text>
<text xml:space="preserve" text-anchor="middle" x="369" y="-492.83" font-family="Helvetica,sans-Serif" font-size="10.00">_format, &amp;U::format &gt;</text>
</a>
</g>
</g>
<!-- Node1&#45;&gt;Node2 -->
<g id="edge1_Node000001_Node000002" class="edge">
<title>Node1&#45;&gt;Node2</title>
<g id="a_edge1_Node000001_Node000002"><a xlink:title=" ">
<path fill="none" stroke="orange" stroke-dasharray="5,2" d="M61.48,-269.7C62.69,-316.42 72.78,-427.65 139,-480.33 183.85,-516.02 250.37,-518.61 300.18,-513.99"/>
<polygon fill="orange" stroke="orange" points="64.98,-269.81 61.35,-259.85 57.98,-269.9 64.98,-269.81"/>
</a>
</g>
<text xml:space="preserve" text-anchor="start" x="160.38" y="-536.96" font-family="Helvetica,sans-Serif" font-size="10.00" fill="grey">&lt; Signature_format,</text>
<text xml:space="preserve" text-anchor="start" x="160.38" y="-521.71" font-family="Helvetica,sans-Serif" font-size="10.00" fill="grey">   &amp;U::format &gt;</text>
</g>
<!-- Node3 -->
<g id="Node000003" class="node">
<title>Node3</title>
<g id="a_Node000003"><a xlink:href="structllvm_1_1SameType.html" target="_top" xlink:title=" ">
<polygon fill="white" stroke="#666666" points="452,-452.21 286,-452.21 286,-410.46 452,-410.46 452,-452.21"/>
<text xml:space="preserve" text-anchor="start" x="294" y="-438.71" font-family="Helvetica,sans-Serif" font-size="10.00">llvm::SameType&lt; Signature</text>
<text xml:space="preserve" text-anchor="start" x="294" y="-427.46" font-family="Helvetica,sans-Serif" font-size="10.00">Enumeration, &amp;ScalarEnumeration</text>
<text xml:space="preserve" text-anchor="middle" x="369" y="-416.21" font-family="Helvetica,sans-Serif" font-size="10.00">Traits&lt; U &gt;::enumeration &gt;</text>
</a>
</g>
</g>
<!-- Node1&#45;&gt;Node3 -->
<g id="edge2_Node000001_Node000003" class="edge">
<title>Node1&#45;&gt;Node3</title>
<g id="a_edge2_Node000001_Node000003"><a xlink:title=" ">
<path fill="none" stroke="orange" stroke-dasharray="5,2" d="M64.89,-269.4C71.82,-304.89 91.2,-376 139,-409.33 162.22,-425.52 229.94,-430.53 285.75,-431.77"/>
<polygon fill="orange" stroke="orange" points="68.4,-269.17 63.2,-259.94 61.51,-270.4 68.4,-269.17"/>
</a>
</g>
<text xml:space="preserve" text-anchor="start" x="142" y="-467.56" font-family="Helvetica,sans-Serif" font-size="10.00" fill="grey">&lt; SignatureEnumeration,</text>
<text xml:space="preserve" text-anchor="start" x="142" y="-452.31" font-family="Helvetica,sans-Serif" font-size="10.00" fill="grey">   &amp;ScalarEnumerationTraits</text>
<text xml:space="preserve" text-anchor="start" x="142" y="-437.06" font-family="Helvetica,sans-Serif" font-size="10.00" fill="grey">  &lt; U &gt;::enumeration &gt;</text>
</g>
<!-- Node4 -->
<g id="Node000004" class="node">
<title>Node4</title>
<g id="a_Node000004"><a xlink:href="structllvm_1_1SameType.html" target="_top" xlink:title=" ">
<polygon fill="white" stroke="#666666" points="437.38,-381.21 300.62,-381.21 300.62,-339.46 437.38,-339.46 437.38,-381.21"/>
<text xml:space="preserve" text-anchor="start" x="308.62" y="-367.71" font-family="Helvetica,sans-Serif" font-size="10.00">llvm::SameType&lt; Signature</text>
<text xml:space="preserve" text-anchor="start" x="308.62" y="-356.46" font-family="Helvetica,sans-Serif" font-size="10.00">Bitset, &amp;ScalarBitSetTraits</text>
<text xml:space="preserve" text-anchor="middle" x="369" y="-345.21" font-family="Helvetica,sans-Serif" font-size="10.00">&lt; U &gt;::bitset &gt;</text>
</a>
</g>
</g>
<!-- Node1&#45;&gt;Node4 -->
<g id="edge3_Node000001_Node000004" class="edge">
<title>Node1&#45;&gt;Node4</title>
<g id="a_edge3_Node000001_Node000004"><a xlink:title=" ">
<path fill="none" stroke="orange" stroke-dasharray="5,2" d="M72.49,-268.11C85.4,-289.24 108.93,-321.78 139,-337.33 166.24,-351.42 243.15,-356.88 300.36,-359"/>
<polygon fill="orange" stroke="orange" points="75.55,-266.42 67.49,-259.56 69.51,-269.96 75.55,-266.42"/>
</a>
</g>
<text xml:space="preserve" text-anchor="start" x="155.88" y="-393.79" font-family="Helvetica,sans-Serif" font-size="10.00" fill="grey">&lt; SignatureBitset,</text>
<text xml:space="preserve" text-anchor="start" x="155.88" y="-378.54" font-family="Helvetica,sans-Serif" font-size="10.00" fill="grey">   &amp;ScalarBitSetTraits</text>
<text xml:space="preserve" text-anchor="start" x="155.88" y="-363.29" font-family="Helvetica,sans-Serif" font-size="10.00" fill="grey">  &lt; U &gt;::bitset &gt;</text>
</g>
<!-- Node5 -->
<g id="Node000005" class="node">
<title>Node5</title>
<g id="a_Node000005"><a xlink:href="structllvm_1_1SameType.html" target="_top" xlink:title=" ">
<polygon fill="white" stroke="#666666" points="437.38,-319.58 300.62,-319.58 300.62,-289.08 437.38,-289.08 437.38,-319.58"/>
<text xml:space="preserve" text-anchor="start" x="308.62" y="-306.08" font-family="Helvetica,sans-Serif" font-size="10.00">llvm::SameType&lt; Signature</text>
<text xml:space="preserve" text-anchor="middle" x="369" y="-294.83" font-family="Helvetica,sans-Serif" font-size="10.00">Mapping, &amp;U::mapping &gt;</text>
</a>
</g>
</g>
<!-- Node1&#45;&gt;Node5 -->
<g id="edge4_Node000001_Node000005" class="edge">
<title>Node1&#45;&gt;Node5</title>
<g id="a_edge4_Node000001_Node000005"><a xlink:title=" ">
<path fill="none" stroke="orange" stroke-dasharray="5,2" d="M90.18,-263.52C104.46,-270.41 122.23,-277.97 139,-282.33 192.05,-296.14 254.04,-301.46 300.14,-303.43"/>
<polygon fill="orange" stroke="orange" points="91.87,-260.46 81.36,-259.13 88.75,-266.72 91.87,-260.46"/>
</a>
</g>
<text xml:space="preserve" text-anchor="start" x="158.5" y="-322.45" font-family="Helvetica,sans-Serif" font-size="10.00" fill="grey">&lt; SignatureMapping,</text>
<text xml:space="preserve" text-anchor="start" x="158.5" y="-307.2" font-family="Helvetica,sans-Serif" font-size="10.00" fill="grey">   &amp;U::mapping &gt;</text>
</g>
<!-- Node6 -->
<g id="Node000006" class="node">
<title>Node6</title>
<g id="a_Node000006"><a xlink:href="structllvm_1_1SameType.html" target="_top" xlink:title=" ">
<polygon fill="white" stroke="#666666" points="437.38,-263.58 300.62,-263.58 300.62,-233.08 437.38,-233.08 437.38,-263.58"/>
<text xml:space="preserve" text-anchor="start" x="308.62" y="-250.08" font-family="Helvetica,sans-Serif" font-size="10.00">llvm::SameType&lt; Signature</text>
<text xml:space="preserve" text-anchor="middle" x="369" y="-238.83" font-family="Helvetica,sans-Serif" font-size="10.00">Validate, &amp;U::validate &gt;</text>
</a>
</g>
</g>
<!-- Node1&#45;&gt;Node6 -->
<g id="edge5_Node000001_Node000006" class="edge">
<title>Node1&#45;&gt;Node6</title>
<g id="a_edge5_Node000001_Node000006"><a xlink:title=" ">
<path fill="none" stroke="orange" stroke-dasharray="5,2" d="M132.8,-248.33C183.31,-248.33 250.65,-248.33 300.32,-248.33"/>
<polygon fill="orange" stroke="orange" points="132.84,-244.83 122.84,-248.33 132.84,-251.83 132.84,-244.83"/>
</a>
</g>
<text xml:space="preserve" text-anchor="start" x="159.62" y="-269.58" font-family="Helvetica,sans-Serif" font-size="10.00" fill="grey">&lt; SignatureValidate,</text>
<text xml:space="preserve" text-anchor="start" x="159.62" y="-254.33" font-family="Helvetica,sans-Serif" font-size="10.00" fill="grey">   &amp;U::validate &gt;</text>
</g>
<!-- Node7 -->
<g id="Node000007" class="node">
<title>Node7</title>
<g id="a_Node000007"><a xlink:href="structllvm_1_1SameType.html" target="_top" xlink:title=" ">
<polygon fill="white" stroke="#666666" points="441.12,-207.58 296.88,-207.58 296.88,-177.08 441.12,-177.08 441.12,-207.58"/>
<text xml:space="preserve" text-anchor="start" x="304.88" y="-194.08" font-family="Helvetica,sans-Serif" font-size="10.00">llvm::SameType&lt; Signature</text>
<text xml:space="preserve" text-anchor="middle" x="369" y="-182.83" font-family="Helvetica,sans-Serif" font-size="10.00">EnumInput, &amp;U::enumInput &gt;</text>
</a>
</g>
</g>
<!-- Node1&#45;&gt;Node7 -->
<g id="edge6_Node000001_Node000007" class="edge">
<title>Node1&#45;&gt;Node7</title>
<g id="a_edge6_Node000001_Node000007"><a xlink:title=" ">
<path fill="none" stroke="orange" stroke-dasharray="5,2" d="M88.17,-232.88C102.72,-225.21 121.32,-216.58 139,-211.83 190.54,-197.98 250.73,-193.28 296.47,-191.95"/>
<polygon fill="orange" stroke="orange" points="86.8,-229.64 79.7,-237.5 90.15,-235.79 86.8,-229.64"/>
</a>
</g>
<text xml:space="preserve" text-anchor="start" x="153.25" y="-233.08" font-family="Helvetica,sans-Serif" font-size="10.00" fill="grey">&lt; SignatureEnumInput,</text>
<text xml:space="preserve" text-anchor="start" x="153.25" y="-217.83" font-family="Helvetica,sans-Serif" font-size="10.00" fill="grey">   &amp;U::enumInput &gt;</text>
</g>
<!-- Node8 -->
<g id="Node000008" class="node">
<title>Node8</title>
<g id="a_Node000008"><a xlink:href="structllvm_1_1SameType.html" target="_top" xlink:title=" ">
<polygon fill="white" stroke="#666666" points="437.38,-151.58 300.62,-151.58 300.62,-121.08 437.38,-121.08 437.38,-151.58"/>
<text xml:space="preserve" text-anchor="start" x="308.62" y="-138.08" font-family="Helvetica,sans-Serif" font-size="10.00">llvm::SameType&lt; Signature</text>
<text xml:space="preserve" text-anchor="middle" x="369" y="-126.83" font-family="Helvetica,sans-Serif" font-size="10.00">Size, &amp;U::size &gt;</text>
</a>
</g>
</g>
<!-- Node1&#45;&gt;Node8 -->
<g id="edge7_Node000001_Node000008" class="edge">
<title>Node1&#45;&gt;Node8</title>
<g id="a_edge7_Node000001_Node000008"><a xlink:title=" ">
<path fill="none" stroke="orange" stroke-dasharray="5,2" d="M71.94,-228.58C84.62,-206.83 108.18,-172.83 139,-156.83 188.69,-131.05 252.67,-127.36 300.36,-129.3"/>
<polygon fill="orange" stroke="orange" points="69.01,-226.64 67.2,-237.08 75.13,-230.05 69.01,-226.64"/>
</a>
</g>
<text xml:space="preserve" text-anchor="start" x="158.5" y="-178.08" font-family="Helvetica,sans-Serif" font-size="10.00" fill="grey">&lt; SignatureSize, &amp;U</text>
<text xml:space="preserve" text-anchor="start" x="158.5" y="-162.83" font-family="Helvetica,sans-Serif" font-size="10.00" fill="grey">  ::size &gt;</text>
</g>
<!-- Node9 -->
<g id="Node000009" class="node">
<title>Node9</title>
<g id="a_Node000009"><a xlink:href="structllvm_1_1SameType.html" target="_top" xlink:title=" ">
<polygon fill="white" stroke="#666666" points="437.38,-95.58 300.62,-95.58 300.62,-65.08 437.38,-65.08 437.38,-95.58"/>
<text xml:space="preserve" text-anchor="start" x="308.62" y="-82.08" font-family="Helvetica,sans-Serif" font-size="10.00">llvm::SameType&lt; Signature</text>
<text xml:space="preserve" text-anchor="middle" x="369" y="-70.83" font-family="Helvetica,sans-Serif" font-size="10.00">Input, &amp;U::inputOne &gt;</text>
</a>
</g>
</g>
<!-- Node1&#45;&gt;Node9 -->
<g id="edge8_Node000001_Node000009" class="edge">
<title>Node1&#45;&gt;Node9</title>
<g id="a_edge8_Node000001_Node000009"><a xlink:title=" ">
<path fill="none" stroke="orange" stroke-dasharray="5,2" d="M65.08,-227.3C72.23,-192.53 91.86,-123.82 139,-92.83 186.25,-61.78 251.54,-61.33 300.32,-67.08"/>
<polygon fill="orange" stroke="orange" points="61.67,-226.48 63.26,-236.96 68.55,-227.78 61.67,-226.48"/>
</a>
</g>
<text xml:space="preserve" text-anchor="start" x="157.38" y="-114.08" font-family="Helvetica,sans-Serif" font-size="10.00" fill="grey">&lt; SignatureInput, &amp;U</text>
<text xml:space="preserve" text-anchor="start" x="157.38" y="-98.83" font-family="Helvetica,sans-Serif" font-size="10.00" fill="grey">  ::inputOne &gt;</text>
</g>
<!-- Node10 -->
<g id="Node000010" class="node">
<title>Node10</title>
<g id="a_Node000010"><a xlink:href="structllvm_1_1SameType.html" target="_top" xlink:title=" ">
<polygon fill="white" stroke="#666666" points="437.38,-39.58 300.62,-39.58 300.62,-9.08 437.38,-9.08 437.38,-39.58"/>
<text xml:space="preserve" text-anchor="start" x="308.62" y="-26.08" font-family="Helvetica,sans-Serif" font-size="10.00">llvm::SameType&lt; Signature</text>
<text xml:space="preserve" text-anchor="middle" x="369" y="-14.83" font-family="Helvetica,sans-Serif" font-size="10.00">GetKind, &amp;U::getKind &gt;</text>
</a>
</g>
</g>
<!-- Node1&#45;&gt;Node10 -->
<g id="edge9_Node000001_Node000010" class="edge">
<title>Node1&#45;&gt;Node10</title>
<g id="a_edge9_Node000001_Node000010"><a xlink:title=" ">
<path fill="none" stroke="orange" stroke-dasharray="5,2" d="M61.57,-227.31C63.01,-181.91 73.52,-74.98 139,-27.83 188.85,8.06 261.94,1.91 312.06,-8.62"/>
<polygon fill="orange" stroke="orange" points="58.08,-227.04 61.4,-237.1 65.08,-227.17 58.08,-227.04"/>
</a>
</g>
<text xml:space="preserve" text-anchor="start" x="159.25" y="-49.08" font-family="Helvetica,sans-Serif" font-size="10.00" fill="grey">&lt; SignatureGetKind,</text>
<text xml:space="preserve" text-anchor="start" x="159.25" y="-33.83" font-family="Helvetica,sans-Serif" font-size="10.00" fill="grey">   &amp;U::getKind &gt;</text>
</g>
</g>
</svg>
