<?xml version="1.0" encoding="UTF-8" standalone="no"?>
<!DOCTYPE svg PUBLIC "-//W3C//DTD SVG 1.1//EN"
 "http://www.w3.org/Graphics/SVG/1.1/DTD/svg11.dtd">
<!-- Generated by graphviz version 14.1.3 (20260303.0454)
 -->
<!-- Title: llvm::DerefState Pages: 1 -->
<svg width="824pt" height="61pt"
 viewBox="0.00 0.00 824.00 61.00" xmlns="http://www.w3.org/2000/svg" xmlns:xlink="http://www.w3.org/1999/xlink">
<g id="graph0" class="graph" transform="scale(1 1) rotate(0) translate(4 57)">
<title>llvm::DerefState</title>
<!-- Node1 -->
<g id="Node000001" class="node">
<title>Node1</title>
<g id="a_Node000001"><a xlink:title="State for dereferenceable attribute.">
<polygon fill="#999999" stroke="#666666" points="223.25,-36.12 136,-36.12 136,-16.88 223.25,-16.88 223.25,-36.12"/>
<text xml:space="preserve" text-anchor="middle" x="179.62" y="-22.62" font-family="Helvetica,sans-Serif" font-size="10.00">llvm::DerefState</text>
</a>
</g>
</g>
<!-- Node3 -->
<g id="Node000003" class="node">
<title>Node3</title>
<g id="a_Node000003"><a xlink:href="structllvm_1_1StateWrapper.html" target="_top" xlink:title=" ">
<polygon fill="white" stroke="#666666" points="419.25,-41.75 259.25,-41.75 259.25,-11.25 419.25,-11.25 419.25,-41.75"/>
<text xml:space="preserve" text-anchor="start" x="267.25" y="-28.25" font-family="Helvetica,sans-Serif" font-size="10.00">llvm::StateWrapper</text>
<text xml:space="preserve" text-anchor="middle" x="339.25" y="-17" font-family="Helvetica,sans-Serif" font-size="10.00">&lt; DerefState, AbstractAttribute &gt;</text>
</a>
</g>
</g>
<!-- Node1&#45;&gt;Node3 -->
<g id="edge2_Node000001_Node000003" class="edge">
<title>Node1&#45;&gt;Node3</title>
<g id="a_edge2_Node000001_Node000003"><a xlink:title=" ">
<path fill="none" stroke="#63b8ff" d="M235.07,-26.5C242.77,-26.5 250.81,-26.5 258.86,-26.5"/>
<polygon fill="#63b8ff" stroke="#63b8ff" points="235.21,-23 225.21,-26.5 235.21,-30 235.21,-23"/>
</a>
</g>
</g>
<!-- Node2 -->
<g id="Node000002" class="node">
<title>Node2</title>
<g id="a_Node000002"><a xlink:href="structllvm_1_1AbstractState.html" target="_top" xlink:title="An interface to query the internal state of an abstract attribute.">
<polygon fill="white" stroke="#666666" points="100,-36.12 0,-36.12 0,-16.88 100,-16.88 100,-36.12"/>
<text xml:space="preserve" text-anchor="middle" x="50" y="-22.62" font-family="Helvetica,sans-Serif" font-size="10.00">llvm::AbstractState</text>
</a>
</g>
</g>
<!-- Node2&#45;&gt;Node1 -->
<g id="edge1_Node000001_Node000002" class="edge">
<title>Node2&#45;&gt;Node1</title>
<g id="a_edge1_Node000001_Node000002"><a xlink:title=" ">
<path fill="none" stroke="#63b8ff" d="M111.69,-26.5C119.78,-26.5 127.94,-26.5 135.65,-26.5"/>
<polygon fill="#63b8ff" stroke="#63b8ff" points="111.86,-23 101.86,-26.5 111.86,-30 111.86,-23"/>
</a>
</g>
</g>
<!-- Node4 -->
<g id="Node000004" class="node">
<title>Node4</title>
<g id="a_Node000004"><a xlink:href="structllvm_1_1IRAttribute.html" target="_top" xlink:title=" ">
<polygon fill="white" stroke="#666666" points="655,-53 455.25,-53 455.25,0 655,0 655,-53"/>
<text xml:space="preserve" text-anchor="start" x="463.25" y="-39.5" font-family="Helvetica,sans-Serif" font-size="10.00">llvm::IRAttribute&lt;</text>
<text xml:space="preserve" text-anchor="start" x="463.25" y="-28.25" font-family="Helvetica,sans-Serif" font-size="10.00"> Attribute::Dereferenceable,</text>
<text xml:space="preserve" text-anchor="start" x="463.25" y="-17" font-family="Helvetica,sans-Serif" font-size="10.00"> StateWrapper&lt; DerefState,</text>
<text xml:space="preserve" text-anchor="middle" x="555.12" y="-5.75" font-family="Helvetica,sans-Serif" font-size="10.00"> AbstractAttribute &gt;, AADereferenceable &gt;</text>
</a>
</g>
</g>
<!-- Node3&#45;&gt;Node4 -->
<g id="edge3_Node000003_Node000004" class="edge">
<title>Node3&#45;&gt;Node4</title>
<g id="a_edge3_Node000003_Node000004"><a xlink:title=" ">
<path fill="none" stroke="#63b8ff" d="M431.06,-26.5C438.97,-26.5 447,-26.5 454.97,-26.5"/>
<polygon fill="#63b8ff" stroke="#63b8ff" points="431.1,-23 421.1,-26.5 431.1,-30 431.1,-23"/>
</a>
</g>
</g>
<!-- Node5 -->
<g id="Node000005" class="node">
<title>Node5</title>
<g id="a_Node000005"><a xlink:href="structllvm_1_1AADereferenceable.html" target="_top" xlink:title="An abstract interface for all dereferenceable attribute.">
<polygon fill="white" stroke="#666666" points="815.75,-36.12 691,-36.12 691,-16.88 815.75,-16.88 815.75,-36.12"/>
<text xml:space="preserve" text-anchor="middle" x="753.38" y="-22.62" font-family="Helvetica,sans-Serif" font-size="10.00">llvm::AADereferenceable</text>
</a>
</g>
</g>
<!-- Node4&#45;&gt;Node5 -->
<g id="edge4_Node000004_Node000005" class="edge">
<title>Node4&#45;&gt;Node5</title>
<g id="a_edge4_Node000004_Node000005"><a xlink:title=" ">
<path fill="none" stroke="#63b8ff" d="M666.88,-26.5C674.96,-26.5 682.93,-26.5 690.55,-26.5"/>
<polygon fill="#63b8ff" stroke="#63b8ff" points="666.91,-23 656.91,-26.5 666.91,-30 666.91,-23"/>
</a>
</g>
</g>
</g>
</svg>
