<?xml version="1.0" encoding="UTF-8" standalone="no"?>
<!DOCTYPE svg PUBLIC "-//W3C//DTD SVG 1.1//EN"
 "http://www.w3.org/Graphics/SVG/1.1/DTD/svg11.dtd">
<!-- Generated by graphviz version 14.1.3 (20260303.0454)
 -->
<!-- Title: llvm::afdo_detail::IRTraits&lt; BlockT &gt; Pages: 1 -->
<svg width="410pt" height="137pt"
 viewBox="0.00 0.00 410.00 137.00" xmlns="http://www.w3.org/2000/svg" xmlns:xlink="http://www.w3.org/1999/xlink">
<g id="graph0" class="graph" transform="scale(1 1) rotate(0) translate(4 132.5)">
<title>llvm::afdo_detail::IRTraits&lt; BlockT &gt;</title>
<!-- Node1 -->
<g id="Node000001" class="node">
<title>Node1</title>
<g id="a_Node000001"><a xlink:title=" ">
<polygon fill="#999999" stroke="#666666" points="100,-79.5 0,-79.5 0,-49 100,-49 100,-79.5"/>
<text xml:space="preserve" text-anchor="start" x="8" y="-66" font-family="Helvetica,sans-Serif" font-size="10.00">llvm::afdo_detail::</text>
<text xml:space="preserve" text-anchor="middle" x="50" y="-54.75" font-family="Helvetica,sans-Serif" font-size="10.00">IRTraits&lt; BlockT &gt;</text>
</a>
</g>
</g>
<!-- Node2 -->
<g id="Node000002" class="node">
<title>Node2</title>
<g id="a_Node000002"><a xlink:href="structllvm_1_1afdo__detail_1_1IRTraits.html" target="_top" xlink:title=" ">
<polygon fill="white" stroke="#666666" points="370.62,-128.5 277.38,-128.5 277.38,-98 370.62,-98 370.62,-128.5"/>
<text xml:space="preserve" text-anchor="start" x="285.38" y="-115" font-family="Helvetica,sans-Serif" font-size="10.00">llvm::afdo_detail::</text>
<text xml:space="preserve" text-anchor="middle" x="324" y="-103.75" font-family="Helvetica,sans-Serif" font-size="10.00">IRTraits&lt; BT &gt;</text>
</a>
</g>
</g>
<!-- Node1&#45;&gt;Node2 -->
<g id="edge1_Node000001_Node000002" class="edge">
<title>Node1&#45;&gt;Node2</title>
<g id="a_edge1_Node000001_Node000002"><a xlink:title=" ">
<path fill="none" stroke="orange" stroke-dasharray="5,2" d="M108.49,-82.95C111.69,-83.78 114.88,-84.55 118,-85.25 171.99,-97.31 235.21,-104.99 277.01,-109.2"/>
<polygon fill="orange" stroke="orange" points="109.62,-79.63 99.04,-80.35 107.76,-86.38 109.62,-79.63"/>
</a>
</g>
<text xml:space="preserve" text-anchor="start" x="157.75" y="-109.09" font-family="Helvetica,sans-Serif" font-size="10.00" fill="grey">&lt; BT &gt;</text>
</g>
<!-- Node3 -->
<g id="Node000003" class="node">
<title>Node3</title>
<g id="a_Node000003"><a xlink:href="structllvm_1_1afdo__detail_1_1IRTraits_3_01BasicBlock_01_4.html" target="_top" xlink:title=" ">
<polygon fill="white" stroke="#666666" points="383.38,-79.5 264.62,-79.5 264.62,-49 383.38,-49 383.38,-79.5"/>
<text xml:space="preserve" text-anchor="start" x="272.62" y="-66" font-family="Helvetica,sans-Serif" font-size="10.00">llvm::afdo_detail::</text>
<text xml:space="preserve" text-anchor="middle" x="324" y="-54.75" font-family="Helvetica,sans-Serif" font-size="10.00">IRTraits&lt; BasicBlock &gt;</text>
</a>
</g>
</g>
<!-- Node1&#45;&gt;Node3 -->
<g id="edge2_Node000001_Node000003" class="edge">
<title>Node1&#45;&gt;Node3</title>
<g id="a_edge2_Node000001_Node000003"><a xlink:title=" ">
<path fill="none" stroke="orange" stroke-dasharray="5,2" d="M111.74,-64.25C157.24,-64.25 219.14,-64.25 264.17,-64.25"/>
<polygon fill="orange" stroke="orange" points="111.77,-60.75 101.77,-64.25 111.77,-67.75 111.77,-60.75"/>
</a>
</g>
<text xml:space="preserve" text-anchor="start" x="139.38" y="-70.25" font-family="Helvetica,sans-Serif" font-size="10.00" fill="grey">&lt; BasicBlock &gt;</text>
</g>
<!-- Node4 -->
<g id="Node000004" class="node">
<title>Node4</title>
<g id="a_Node000004"><a xlink:href="structllvm_1_1afdo__detail_1_1IRTraits_3_01MachineBasicBlock_01_4.html" target="_top" xlink:title=" ">
<polygon fill="white" stroke="#666666" points="401.75,-30.5 246.25,-30.5 246.25,0 401.75,0 401.75,-30.5"/>
<text xml:space="preserve" text-anchor="start" x="254.25" y="-17" font-family="Helvetica,sans-Serif" font-size="10.00">llvm::afdo_detail::</text>
<text xml:space="preserve" text-anchor="middle" x="324" y="-5.75" font-family="Helvetica,sans-Serif" font-size="10.00">IRTraits&lt; MachineBasicBlock &gt;</text>
</a>
</g>
</g>
<!-- Node1&#45;&gt;Node4 -->
<g id="edge3_Node000001_Node000004" class="edge">
<title>Node1&#45;&gt;Node4</title>
<g id="a_edge3_Node000001_Node000004"><a xlink:title=" ">
<path fill="none" stroke="orange" stroke-dasharray="5,2" d="M107.8,-45.5C111.24,-44.59 114.65,-43.75 118,-43 159.88,-33.6 207.33,-26.93 246.02,-22.49"/>
<polygon fill="orange" stroke="orange" points="106.99,-42.09 98.31,-48.15 108.88,-48.83 106.99,-42.09"/>
</a>
</g>
<text xml:space="preserve" text-anchor="start" x="121" y="-49" font-family="Helvetica,sans-Serif" font-size="10.00" fill="grey">&lt; MachineBasicBlock &gt;</text>
</g>
</g>
</svg>
