<?xml version="1.0" encoding="UTF-8" standalone="no"?>
<!DOCTYPE svg PUBLIC "-//W3C//DTD SVG 1.1//EN"
 "http://www.w3.org/Graphics/SVG/1.1/DTD/svg11.dtd">
<!-- Generated by graphviz version 14.1.3 (20260303.0454)
 -->
<!-- Title: llvm::remarks::MetaSerializer Pages: 1 -->
<svg width="318pt" height="94pt"
 viewBox="0.00 0.00 318.00 94.00" xmlns="http://www.w3.org/2000/svg" xmlns:xlink="http://www.w3.org/1999/xlink">
<g id="graph0" class="graph" transform="scale(1 1) rotate(0) translate(4 89.75)">
<title>llvm::remarks::MetaSerializer</title>
<!-- Node1 -->
<g id="Node000001" class="node">
<title>Node1</title>
<g id="a_Node000001"><a xlink:title="This is the base class for a remark metadata serializer.">
<polygon fill="#999999" stroke="#666666" points="215.38,-85.75 71.88,-85.75 71.88,-66.5 215.38,-66.5 215.38,-85.75"/>
<text xml:space="preserve" text-anchor="middle" x="143.62" y="-72.25" font-family="Helvetica,sans-Serif" font-size="10.00">llvm::remarks::MetaSerializer</text>
</a>
</g>
</g>
<!-- Node2 -->
<g id="Node000002" class="node">
<title>Node2</title>
<g id="a_Node000002"><a xlink:href="structllvm_1_1remarks_1_1BitstreamMetaSerializer.html" target="_top" xlink:title="Serializer of metadata for bitstream remarks.">
<polygon fill="white" stroke="#666666" points="123.25,-30.5 0,-30.5 0,0 123.25,0 123.25,-30.5"/>
<text xml:space="preserve" text-anchor="start" x="8" y="-17" font-family="Helvetica,sans-Serif" font-size="10.00">llvm::remarks::Bitstream</text>
<text xml:space="preserve" text-anchor="middle" x="61.62" y="-5.75" font-family="Helvetica,sans-Serif" font-size="10.00">MetaSerializer</text>
</a>
</g>
</g>
<!-- Node1&#45;&gt;Node2 -->
<g id="edge1_Node000001_Node000002" class="edge">
<title>Node1&#45;&gt;Node2</title>
<g id="a_edge1_Node000001_Node000002"><a xlink:title=" ">
<path fill="none" stroke="#63b8ff" d="M121.99,-59.59C109.56,-50.67 94.05,-39.53 81.87,-30.78"/>
<polygon fill="#63b8ff" stroke="#63b8ff" points="119.78,-62.31 129.94,-65.3 123.86,-56.63 119.78,-62.31"/>
</a>
</g>
</g>
<!-- Node3 -->
<g id="Node000003" class="node">
<title>Node3</title>
<g id="a_Node000003"><a xlink:href="structllvm_1_1remarks_1_1YAMLMetaSerializer.html" target="_top" xlink:title=" ">
<polygon fill="white" stroke="#666666" points="310.12,-24.88 141.12,-24.88 141.12,-5.63 310.12,-5.63 310.12,-24.88"/>
<text xml:space="preserve" text-anchor="middle" x="225.62" y="-11.38" font-family="Helvetica,sans-Serif" font-size="10.00">llvm::remarks::YAMLMetaSerializer</text>
</a>
</g>
</g>
<!-- Node1&#45;&gt;Node3 -->
<g id="edge2_Node000001_Node000003" class="edge">
<title>Node1&#45;&gt;Node3</title>
<g id="a_edge2_Node000001_Node000003"><a xlink:title=" ">
<path fill="none" stroke="#63b8ff" d="M165.3,-59.56C180.53,-48.63 200.37,-34.39 213.05,-25.28"/>
<polygon fill="#63b8ff" stroke="#63b8ff" points="163.39,-56.63 157.31,-65.3 167.47,-62.31 163.39,-56.63"/>
</a>
</g>
</g>
</g>
</svg>
