<?xml version="1.0" encoding="UTF-8" standalone="no"?>
<!DOCTYPE svg PUBLIC "-//W3C//DTD SVG 1.1//EN"
 "http://www.w3.org/Graphics/SVG/1.1/DTD/svg11.dtd">
<!-- Generated by graphviz version 14.1.3 (20260303.0454)
 -->
<!-- Title: llvm::orc::MachOBuilder&lt; MachOTraits &gt;::Section Pages: 1 -->
<svg width="286pt" height="105pt"
 viewBox="0.00 0.00 286.00 105.00" xmlns="http://www.w3.org/2000/svg" xmlns:xlink="http://www.w3.org/1999/xlink">
<g id="graph0" class="graph" transform="scale(1 1) rotate(0) translate(4 101)">
<title>llvm::orc::MachOBuilder&lt; MachOTraits &gt;::Section</title>
<!-- Node1 -->
<g id="Node000001" class="node">
<title>Node1</title>
<g id="a_Node000001"><a xlink:title=" ">
<polygon fill="#999999" stroke="#666666" points="194.25,-30.5 65,-30.5 65,0 194.25,0 194.25,-30.5"/>
<text xml:space="preserve" text-anchor="start" x="73" y="-17" font-family="Helvetica,sans-Serif" font-size="10.00">llvm::orc::MachOBuilder</text>
<text xml:space="preserve" text-anchor="middle" x="129.62" y="-5.75" font-family="Helvetica,sans-Serif" font-size="10.00">&lt; MachOTraits &gt;::Section</text>
</a>
</g>
</g>
<!-- Node2 -->
<g id="Node000002" class="node">
<title>Node2</title>
<g id="a_Node000002"><a xlink:title=" ">
<polygon fill="white" stroke="#666666" points="111.25,-91.38 0,-91.38 0,-72.12 111.25,-72.12 111.25,-91.38"/>
<text xml:space="preserve" text-anchor="middle" x="55.62" y="-77.88" font-family="Helvetica,sans-Serif" font-size="10.00">MachOTraits::Section</text>
</a>
</g>
</g>
<!-- Node2&#45;&gt;Node1 -->
<g id="edge1_Node000001_Node000002" class="edge">
<title>Node2&#45;&gt;Node1</title>
<g id="a_edge1_Node000001_Node000002"><a xlink:title=" ">
<path fill="none" stroke="#63b8ff" d="M74.57,-64.24C86.4,-53.92 101.5,-40.77 112.89,-30.84"/>
<polygon fill="#63b8ff" stroke="#63b8ff" points="72.29,-61.58 67.06,-70.79 76.89,-66.85 72.29,-61.58"/>
</a>
</g>
</g>
<!-- Node3 -->
<g id="Node000003" class="node">
<title>Node3</title>
<g id="a_Node000003"><a xlink:href="classllvm_1_1orc_1_1MachOBuilder_1_1RelocTarget.html" target="_top" xlink:title=" ">
<polygon fill="white" stroke="#666666" points="278,-97 129.25,-97 129.25,-66.5 278,-66.5 278,-97"/>
<text xml:space="preserve" text-anchor="start" x="137.25" y="-83.5" font-family="Helvetica,sans-Serif" font-size="10.00">llvm::orc::MachOBuilder</text>
<text xml:space="preserve" text-anchor="middle" x="203.62" y="-72.25" font-family="Helvetica,sans-Serif" font-size="10.00">&lt; MachOTraits &gt;::RelocTarget</text>
</a>
</g>
</g>
<!-- Node3&#45;&gt;Node1 -->
<g id="edge2_Node000001_Node000003" class="edge">
<title>Node3&#45;&gt;Node1</title>
<g id="a_edge2_Node000001_Node000003"><a xlink:title=" ">
<path fill="none" stroke="#63b8ff" d="M178.37,-58.74C167.8,-49.53 155.8,-39.06 146.35,-30.83"/>
<polygon fill="#63b8ff" stroke="#63b8ff" points="175.85,-61.19 185.69,-65.12 180.45,-55.91 175.85,-61.19"/>
</a>
</g>
</g>
</g>
</svg>
