<?xml version="1.0" encoding="UTF-8" standalone="no"?>
<!DOCTYPE svg PUBLIC "-//W3C//DTD SVG 1.1//EN"
 "http://www.w3.org/Graphics/SVG/1.1/DTD/svg11.dtd">
<!-- Generated by graphviz version 14.1.3 (20260303.0454)
 -->
<!-- Title: llvm::MDNodeSubsetEqualImpl&lt; NodeTy &gt; Pages: 1 -->
<svg width="440pt" height="88pt"
 viewBox="0.00 0.00 440.00 88.00" xmlns="http://www.w3.org/2000/svg" xmlns:xlink="http://www.w3.org/1999/xlink">
<g id="graph0" class="graph" transform="scale(1 1) rotate(0) translate(4 83.5)">
<title>llvm::MDNodeSubsetEqualImpl&lt; NodeTy &gt;</title>
<!-- Node1 -->
<g id="Node000001" class="node">
<title>Node1</title>
<g id="a_Node000001"><a xlink:title="Configuration point for MDNodeInfo::isEqual().">
<polygon fill="#999999" stroke="#666666" points="153.25,-54.5 0,-54.5 0,-24 153.25,-24 153.25,-54.5"/>
<text xml:space="preserve" text-anchor="start" x="8" y="-41" font-family="Helvetica,sans-Serif" font-size="10.00">llvm::MDNodeSubsetEqualImpl</text>
<text xml:space="preserve" text-anchor="middle" x="76.62" y="-29.75" font-family="Helvetica,sans-Serif" font-size="10.00">&lt; NodeTy &gt;</text>
</a>
</g>
</g>
<!-- Node2 -->
<g id="Node000002" class="node">
<title>Node2</title>
<g id="a_Node000002"><a xlink:href="structllvm_1_1MDNodeSubsetEqualImpl_3_01DIDerivedType_01_4.html" target="_top" xlink:title=" ">
<polygon fill="white" stroke="#666666" points="431.75,-79.5 278.5,-79.5 278.5,-49 431.75,-49 431.75,-79.5"/>
<text xml:space="preserve" text-anchor="start" x="286.5" y="-66" font-family="Helvetica,sans-Serif" font-size="10.00">llvm::MDNodeSubsetEqualImpl</text>
<text xml:space="preserve" text-anchor="middle" x="355.12" y="-54.75" font-family="Helvetica,sans-Serif" font-size="10.00">&lt; DIDerivedType &gt;</text>
</a>
</g>
</g>
<!-- Node1&#45;&gt;Node2 -->
<g id="edge1_Node000001_Node000002" class="edge">
<title>Node1&#45;&gt;Node2</title>
<g id="a_edge1_Node000001_Node000002"><a xlink:title=" ">
<path fill="none" stroke="orange" stroke-dasharray="5,2" d="M164.68,-47.12C201.16,-50.42 243.19,-54.22 278.37,-57.4"/>
<polygon fill="orange" stroke="orange" points="165.33,-43.67 155.05,-46.25 164.7,-50.64 165.33,-43.67"/>
</a>
</g>
<text xml:space="preserve" text-anchor="start" x="174.25" y="-61.45" font-family="Helvetica,sans-Serif" font-size="10.00" fill="grey">&lt; DIDerivedType &gt;</text>
</g>
<!-- Node3 -->
<g id="Node000003" class="node">
<title>Node3</title>
<g id="a_Node000003"><a xlink:href="structllvm_1_1MDNodeSubsetEqualImpl_3_01DISubprogram_01_4.html" target="_top" xlink:title=" ">
<polygon fill="white" stroke="#666666" points="431.75,-30.5 278.5,-30.5 278.5,0 431.75,0 431.75,-30.5"/>
<text xml:space="preserve" text-anchor="start" x="286.5" y="-17" font-family="Helvetica,sans-Serif" font-size="10.00">llvm::MDNodeSubsetEqualImpl</text>
<text xml:space="preserve" text-anchor="middle" x="355.12" y="-5.75" font-family="Helvetica,sans-Serif" font-size="10.00">&lt; DISubprogram &gt;</text>
</a>
</g>
</g>
<!-- Node1&#45;&gt;Node3 -->
<g id="edge2_Node000001_Node000003" class="edge">
<title>Node1&#45;&gt;Node3</title>
<g id="a_edge2_Node000001_Node000003"><a xlink:title=" ">
<path fill="none" stroke="orange" stroke-dasharray="5,2" d="M165.01,-25.67C167.11,-25.44 169.19,-25.21 171.25,-25 206.36,-21.4 245.4,-19.09 278.37,-17.63"/>
<polygon fill="orange" stroke="orange" points="164.69,-22.19 155.18,-26.86 165.53,-29.13 164.69,-22.19"/>
</a>
</g>
<text xml:space="preserve" text-anchor="start" x="175.38" y="-31" font-family="Helvetica,sans-Serif" font-size="10.00" fill="grey">&lt; DISubprogram &gt;</text>
</g>
</g>
</svg>
